<svg xmlns="http://www.w3.org/2000/svg" width="374.729" height="138.73" viewBox="0 0 374.729 138.73">
  <g id="Grupo_158085" data-name="Grupo 158085" transform="translate(-1004.881 -444.848)">
    <g id="Grupo_81094" data-name="Grupo 81094" transform="translate(866.815 136.549) rotate(9)">
      <g id="Grupo_81088" data-name="Grupo 81088" transform="translate(329.307 349.951)">
        <g id="Grupo_81084" data-name="Grupo 81084" transform="translate(1.449 1.448)" style="mix-blend-mode: overlay;isolation: isolate">
          <path id="Trazado_115037" data-name="Trazado 115037" d="M360.284,394.493l-6.414.947a2.192,2.192,0,0,0-1.82,1.71l-1.338,6.347a2.184,2.184,0,0,1-4.093.519l-2.883-5.809a2.185,2.185,0,0,0-2.187-1.2l-6.45.684a2.181,2.181,0,0,1-1.759-3.726l4.63-4.545a2.177,2.177,0,0,0,.464-2.449l-2.645-5.919a2.183,2.183,0,0,1,3.005-2.828l5.748,3.005a2.189,2.189,0,0,0,2.474-.318l4.813-4.349a2.185,2.185,0,0,1,3.616,1.985l-1.081,6.4a2.193,2.193,0,0,0,1.063,2.26l5.626,3.231A2.186,2.186,0,0,1,360.284,394.493Z" transform="translate(-332.068 -375.385)" fill="#3c384f"/>
          <path id="Trazado_115038" data-name="Trazado 115038" d="M348.171,405.451a2.757,2.757,0,0,1-2.488-1.553l-2.883-5.809a1.579,1.579,0,0,0-1.574-.861l-6.452.684a2.792,2.792,0,0,1-2.251-4.771l4.629-4.543a1.573,1.573,0,0,0,.334-1.765l-2.644-5.918a2.794,2.794,0,0,1,3.845-3.619l5.749,3.006a1.582,1.582,0,0,0,1.782-.23l4.813-4.349a2.8,2.8,0,0,1,4.628,2.539l-1.081,6.4a1.589,1.589,0,0,0,.767,1.63l5.623,3.229a2.8,2.8,0,0,1-.984,5.19h0l-6.414.947a1.585,1.585,0,0,0-1.312,1.233l-1.338,6.346a2.762,2.762,0,0,1-2.383,2.194A2.871,2.871,0,0,1,348.171,405.451ZM341.392,396a2.809,2.809,0,0,1,2.5,1.547l2.884,5.811a1.573,1.573,0,0,0,2.947-.374l1.338-6.347a2.815,2.815,0,0,1,2.328-2.189l6.414-.947a1.575,1.575,0,0,0,.556-2.922l-5.626-3.231a2.818,2.818,0,0,1-1.361-2.892l1.081-6.4a1.574,1.574,0,0,0-2.6-1.431l-4.814,4.35a2.8,2.8,0,0,1-3.167.4l-5.747-3.005a1.573,1.573,0,0,0-2.165,2.037l2.645,5.92a2.8,2.8,0,0,1-.6,3.136l-4.628,4.543a1.57,1.57,0,0,0,1.267,2.683l6.45-.685A2.814,2.814,0,0,1,341.392,396Z" transform="translate(-331.679 -374.996)" fill="#3c384f"/>
          <path id="Trazado_115039" data-name="Trazado 115039" d="M343.785,388.439a38.846,38.846,0,0,0-1.85-3.462.611.611,0,1,0-1.055.616,38.867,38.867,0,0,1,1.85,3.462.614.614,0,0,0,.836.219A.628.628,0,0,0,343.785,388.439Z" transform="translate(-335.228 -378.762)" fill="#3c384f"/>
          <path id="Trazado_115040" data-name="Trazado 115040" d="M356.825,415.185c-.611-1.192-1.19-2.444-1.685-3.65a.627.627,0,0,0-.751-.427.617.617,0,0,0-.426.751q.823,2.007,1.809,3.942a.615.615,0,0,0,.836.219A.625.625,0,0,0,356.825,415.185Z" transform="translate(-340.338 -389.039)" fill="#3c384f"/>
        </g>
        <g id="Grupo_81087" data-name="Grupo 81087">
          <g id="Grupo_81086" data-name="Grupo 81086">
            <g id="Grupo_81085" data-name="Grupo 81085">
              <path id="Trazado_115041" data-name="Trazado 115041" d="M357.913,392.121l-6.414.947a2.192,2.192,0,0,0-1.82,1.71l-1.338,6.347a2.184,2.184,0,0,1-4.093.519l-2.883-5.809a2.185,2.185,0,0,0-2.187-1.2l-6.45.684a2.181,2.181,0,0,1-1.759-3.726l4.63-4.545a2.177,2.177,0,0,0,.464-2.449l-2.645-5.919a2.183,2.183,0,0,1,3.005-2.828l5.748,3.005a2.188,2.188,0,0,0,2.474-.318l4.813-4.349a2.185,2.185,0,0,1,3.616,1.985l-1.081,6.4a2.192,2.192,0,0,0,1.063,2.26l5.626,3.231A2.186,2.186,0,0,1,357.913,392.121Z" transform="translate(-329.697 -373.013)" fill="#ffd947"/>
              <path id="Trazado_115042" data-name="Trazado 115042" d="M345.8,403.08a2.756,2.756,0,0,1-2.487-1.553l-2.883-5.808a1.58,1.58,0,0,0-1.574-.862l-6.452.685a2.792,2.792,0,0,1-2.251-4.771l4.629-4.543a1.574,1.574,0,0,0,.334-1.765l-2.644-5.919a2.794,2.794,0,0,1,3.845-3.619l5.749,3.006a1.584,1.584,0,0,0,1.782-.23l4.813-4.349a2.8,2.8,0,0,1,4.628,2.54l-1.082,6.4a1.59,1.59,0,0,0,.768,1.63l5.623,3.229a2.8,2.8,0,0,1-.984,5.19h0l-6.414.947a1.587,1.587,0,0,0-1.312,1.233l-1.337,6.346a2.811,2.811,0,0,1-2.75,2.217Zm-6.779-9.454a2.809,2.809,0,0,1,2.5,1.547l2.884,5.811a1.573,1.573,0,0,0,2.948-.374l1.338-6.346a2.813,2.813,0,0,1,2.328-2.189l6.414-.947a1.575,1.575,0,0,0,.556-2.922l-5.626-3.231A2.819,2.819,0,0,1,351,382.083l1.081-6.395a1.574,1.574,0,0,0-2.6-1.431l-4.813,4.35a2.806,2.806,0,0,1-3.167.4l-5.748-3.005a1.572,1.572,0,0,0-2.165,2.037l2.645,5.92a2.8,2.8,0,0,1-.6,3.137l-4.628,4.543a1.57,1.57,0,0,0,1.266,2.683l6.451-.684A2.831,2.831,0,0,1,339.021,393.626Z" transform="translate(-329.307 -372.625)"/>
            </g>
            <path id="Trazado_115043" data-name="Trazado 115043" d="M341.414,386.068a38.849,38.849,0,0,0-1.85-3.463.611.611,0,0,0-1.055.617,38.846,38.846,0,0,1,1.85,3.462.613.613,0,0,0,.836.219A.627.627,0,0,0,341.414,386.068Z" transform="translate(-332.856 -376.391)"/>
            <path id="Trazado_115044" data-name="Trazado 115044" d="M354.454,412.813c-.611-1.192-1.191-2.445-1.685-3.65a.627.627,0,0,0-.751-.426.616.616,0,0,0-.426.751q.823,2.007,1.808,3.942a.615.615,0,0,0,.836.219A.625.625,0,0,0,354.454,412.813Z" transform="translate(-337.966 -386.668)"/>
          </g>
        </g>
      </g>
      <g id="Grupo_81093" data-name="Grupo 81093" transform="translate(357.034 339.462)">
        <g id="Grupo_81089" data-name="Grupo 81089" transform="translate(1.448 1.448)" style="mix-blend-mode: overlay;isolation: isolate">
          <path id="Trazado_115045" data-name="Trazado 115045" d="M400.342,368.893l-3.61,2.889a1.876,1.876,0,0,0-.6,2.059l1.454,4.386a1.876,1.876,0,0,1-2.81,2.162l-3.867-2.535a1.876,1.876,0,0,0-2.144.055l-3.72,2.743a1.879,1.879,0,0,1-2.926-2.01l1.216-4.459a1.881,1.881,0,0,0-.715-2.022l-3.757-2.694a1.877,1.877,0,0,1,1-3.4l4.618-.22a1.875,1.875,0,0,0,1.7-1.307l1.4-4.4a1.879,1.879,0,0,1,3.549-.092l1.631,4.325a1.879,1.879,0,0,0,1.771,1.209l4.624-.031A1.882,1.882,0,0,1,400.342,368.893Z" transform="translate(-377.459 -358.213)" fill="#3c384f"/>
          <path id="Trazado_115046" data-name="Trazado 115046" d="M383.538,381.245a2.5,2.5,0,0,1-2.4-3.155l1.216-4.458a1.275,1.275,0,0,0-.483-1.365l-3.755-2.693a2.488,2.488,0,0,1,1.329-4.509l4.619-.22a1.254,1.254,0,0,0,1.15-.881l1.4-4.4a2.49,2.49,0,0,1,4.7-.122l1.631,4.325a1.261,1.261,0,0,0,1.185.814h.01l4.625-.031h.01a2.492,2.492,0,0,1,1.561,4.435l-3.61,2.89a1.265,1.265,0,0,0-.407,1.387l1.454,4.388a2.487,2.487,0,0,1-3.725,2.864l-3.865-2.534a1.273,1.273,0,0,0-1.449.037l-3.718,2.741A2.486,2.486,0,0,1,383.538,381.245Zm5.443-22.2h-.034a1.238,1.238,0,0,0-1.172.882l-1.4,4.4a2.5,2.5,0,0,1-2.258,1.732l-4.617.22a1.267,1.267,0,0,0-.675,2.3l3.756,2.694a2.5,2.5,0,0,1,.948,2.68l-1.215,4.458a1.268,1.268,0,0,0,1.974,1.357l3.719-2.742a2.5,2.5,0,0,1,2.845-.072l3.863,2.533a1.266,1.266,0,0,0,1.895-1.459l-1.453-4.386a2.491,2.491,0,0,1,.8-2.728l3.61-2.889a1.271,1.271,0,0,0-.8-2.26h0l-4.623.031h-.018a2.506,2.506,0,0,1-2.327-1.6l-1.632-4.328A1.241,1.241,0,0,0,388.981,359.046Z" transform="translate(-377.07 -357.824)" fill="#3c384f"/>
          <path id="Trazado_115047" data-name="Trazado 115047" d="M386.4,372.516l-2.829.1a.611.611,0,0,0,0,1.222l2.829-.1a.611.611,0,1,0,0-1.222Z" transform="translate(-379.363 -363.541)" fill="#3c384f"/>
        </g>
        <g id="Grupo_81092" data-name="Grupo 81092" transform="translate(0 0)">
          <g id="Grupo_81091" data-name="Grupo 81091">
            <g id="Grupo_81090" data-name="Grupo 81090">
              <path id="Trazado_115048" data-name="Trazado 115048" d="M397.97,366.522l-3.61,2.889a1.875,1.875,0,0,0-.6,2.059l1.454,4.386a1.877,1.877,0,0,1-2.81,2.162l-3.866-2.535a1.876,1.876,0,0,0-2.144.055l-3.721,2.743a1.879,1.879,0,0,1-2.925-2.01l1.215-4.459a1.882,1.882,0,0,0-.714-2.022l-3.757-2.694a1.877,1.877,0,0,1,1-3.4l4.617-.22a1.874,1.874,0,0,0,1.7-1.307l1.4-4.4a1.879,1.879,0,0,1,3.549-.092L390.39,362a1.88,1.88,0,0,0,1.771,1.209l4.624-.031A1.882,1.882,0,0,1,397.97,366.522Z" transform="translate(-375.088 -355.842)" fill="#ff5f65"/>
              <path id="Trazado_115049" data-name="Trazado 115049" d="M381.167,378.874a2.5,2.5,0,0,1-2.4-3.155l1.215-4.458a1.273,1.273,0,0,0-.483-1.365l-3.755-2.693a2.488,2.488,0,0,1,1.329-4.509l4.618-.221a1.255,1.255,0,0,0,1.151-.881l1.4-4.4a2.49,2.49,0,0,1,4.7-.122l1.631,4.325a1.261,1.261,0,0,0,1.185.814h.01l4.625-.031h.01a2.492,2.492,0,0,1,1.561,4.435l-3.61,2.889a1.265,1.265,0,0,0-.407,1.388l1.454,4.388a2.487,2.487,0,0,1-3.725,2.865l-3.866-2.535a1.273,1.273,0,0,0-1.449.038l-3.718,2.741A2.486,2.486,0,0,1,381.167,378.874Zm5.443-22.2h-.035a1.237,1.237,0,0,0-1.172.882l-1.4,4.4a2.5,2.5,0,0,1-2.258,1.732l-4.617.22a1.266,1.266,0,0,0-.674,2.3l3.756,2.694a2.5,2.5,0,0,1,.948,2.679l-1.216,4.458a1.268,1.268,0,0,0,1.975,1.357l3.719-2.742a2.5,2.5,0,0,1,2.844-.072l3.864,2.533a1.266,1.266,0,0,0,1.895-1.459l-1.454-4.386a2.491,2.491,0,0,1,.8-2.728l3.61-2.889a1.271,1.271,0,0,0-.8-2.259H396.4l-4.622.031h-.018a2.506,2.506,0,0,1-2.327-1.6L387.8,357.5A1.241,1.241,0,0,0,386.609,356.675Z" transform="translate(-374.699 -355.453)"/>
            </g>
            <path id="Trazado_115050" data-name="Trazado 115050" d="M384.031,370.145l-2.829.095a.611.611,0,1,0,0,1.222l2.829-.095a.611.611,0,0,0,0-1.222Z" transform="translate(-376.992 -361.17)"/>
          </g>
        </g>
      </g>
      <path id="Trazado_115051" data-name="Trazado 115051" d="M425.549,319.193c-1.2-4.032-5.775-4.741-9.365-4.829a.611.611,0,0,0,0,1.222c2.536.062,5.444.251,7.245,2.288a3.828,3.828,0,0,1,1.008,3.336,5.982,5.982,0,0,1-2.329,3.218c-.168.127-.346.244-.527.356a7.6,7.6,0,0,0-.728-1.256,7.989,7.989,0,0,0-3.69-2.849c-1.315-.476-2.974-.384-3.7.986-.779,1.468.1,3.137,1.277,4.074a6.025,6.025,0,0,0,4.543,1.186,7,7,0,0,0,1.605-.434,6.73,6.73,0,0,1-.075,3.666,6.264,6.264,0,0,1-3.79,4.032c-.52-2.4-1.93-4.806-4.336-5.039a2.683,2.683,0,0,0-3.03,2.526c.031,1.54,1.523,2.794,2.809,3.393a6.507,6.507,0,0,0,3.547.561c.214,2.7-1.277,5.666-4.116,6.23-3.236.642-5.422-2.344-5.468-5.3a.611.611,0,0,0-1.222,0c.052,3.336,2.34,6.7,5.943,6.606,3.351-.084,5.771-3.008,6.075-6.2a8.451,8.451,0,0,0-.015-1.592,7.125,7.125,0,0,0,3.511-2.453,7.942,7.942,0,0,0,1.293-6.968C424.436,324.557,426.359,321.924,425.549,319.193ZM412.5,333.7c-.975-.6-2.432-2.145-1.011-3.094,1.205-.805,2.614.3,3.265,1.289a7.953,7.953,0,0,1,1.073,2.556l-.017,0A5.438,5.438,0,0,1,412.5,333.7Zm2.752-9.133c-.878-.842-1.4-2.855.369-2.943a4.94,4.94,0,0,1,3.192,1.445,6.849,6.849,0,0,1,1.668,2.264A4.864,4.864,0,0,1,415.248,324.569Z" transform="translate(-29.536 0)"/>
    </g>
    <g id="Grupo_81069" data-name="Grupo 81069" transform="translate(874.272 319.533)">
      <g id="Grupo_81065" data-name="Grupo 81065" style="mix-blend-mode: overlay;isolation: isolate">
        <path id="Trazado_115015" data-name="Trazado 115015" d="M201.459,222.3c-4.818,4.93-9.8,9.679-14.871,14.344,2.194-4.96,4.559-9.841,6.642-14.853,2.361-5.682,5.106-13.427,2.129-19.387-6.784-13.585-23.933-.255-30.244,6.583-.672.729-1.314,1.49-1.964,2.242,2.255-5.522,4.285-11.2,3.749-17.162-.737-8.2-8.257-10.171-14.731-6.359-6.952,4.092-12.536,11.173-17.2,17.6-3.96,5.462,5.1,10.662,9.03,5.278a71.032,71.032,0,0,1,7.059-8.257q-.562,1.03-1.137,2.057a153.28,153.28,0,0,0-7.1,13.831c-3.952,9.119-9.8,21.744-4.825,31.336,2.506,4.834,8.382,5.325,12.806,3.358,5.947-2.644,10.066-8.481,14.037-13.421,4.145-5.158,7.8-10.635,11.633-16.017a77.947,77.947,0,0,1,5.041-6.6c.042-.048.086-.092.128-.139l-.046.145c-1.019,3.168-2.329,6.208-3.656,9.256-2.468,5.671-5.652,11.64-6.556,17.81-.8,5.456,1.41,11.571,7.972,11.175,6.169-.372,11.113-6.314,15.237-10.282,4.994-4.806,9.9-9.707,14.8-14.6C214.523,225.134,206.52,217.128,201.459,222.3Z" fill="#3c384f"/>
        <path id="Trazado_115016" data-name="Trazado 115016" d="M178.771,256.149a7.839,7.839,0,0,1-5.971-2.478c-2.078-2.263-2.976-5.949-2.4-9.86.747-5.1,2.971-9.983,5.121-14.705.515-1.131,1.025-2.251,1.507-3.359.457-1.051.938-2.155,1.415-3.3q-.438.61-.867,1.214l-.284.4c-1,1.4-1.981,2.8-2.964,4.206-2.761,3.94-5.616,8.015-8.7,11.857-.451.561-.9,1.134-1.362,1.713-3.541,4.478-7.554,9.553-13.048,11.995-4.9,2.175-11.313,1.566-14.1-3.811-5.007-9.659.4-22.088,4.347-31.163l.448-1.032c1.161-2.681,2.463-5.3,3.844-7.9q-.48.625-.942,1.26a6.656,6.656,0,0,1-9.394,1.306,5.277,5.277,0,0,1-1.254-7.761c4.977-6.865,10.542-13.783,17.5-17.879,3.862-2.273,8.089-2.642,11.31-.987,2.836,1.457,4.585,4.34,4.924,8.119A30.627,30.627,0,0,1,165.95,206.7c5.135-5.017,14.632-12.132,22.251-11.054,3.5.5,6.209,2.621,8.052,6.312,3.032,6.07.64,13.627-2.1,20.218-1.3,3.138-2.738,6.268-4.125,9.3l-.491,1.071c4.127-3.87,7.819-7.475,11.207-10.941h0a6.009,6.009,0,0,1,5.986-1.778,7.368,7.368,0,0,1,5.1,5.061,6.063,6.063,0,0,1-1.722,6.064l-.558.556c-4.645,4.636-9.448,9.43-14.26,14.059-.593.571-1.2,1.182-1.83,1.812-3.736,3.745-8.385,8.407-14.04,8.748C179.2,256.143,178.984,256.149,178.771,256.149Zm2.869-40.361a.944.944,0,0,1,.484.129.973.973,0,0,1,.472,1.135l-.047.146c-1.068,3.322-2.461,6.523-3.69,9.347-.487,1.119-1,2.249-1.521,3.389-2.092,4.6-4.256,9.348-4.962,14.167-.479,3.272.248,6.421,1.9,8.217a6,6,0,0,0,5.024,1.815c4.9-.3,9.066-4.476,12.745-8.165.638-.639,1.257-1.26,1.859-1.84,4.8-4.617,9.6-9.4,14.235-14.034l.557-.556a4.067,4.067,0,0,0,1.205-4.124,5.383,5.383,0,0,0-3.671-3.649A4.007,4.007,0,0,0,202.175,223h0c-4.377,4.477-9.254,9.181-14.911,14.38a1,1,0,0,1-1.591-1.141c.829-1.875,1.683-3.738,2.537-5.6,1.379-3.012,2.806-6.126,4.1-9.231,2.567-6.174,4.83-13.207,2.158-18.556-1.553-3.112-3.694-4.821-6.545-5.225-7.1-1.006-17.092,6.646-22.069,12.04-.531.574-1.042,1.17-1.554,1.766l-.387.451a1,1,0,0,1-1.683-1.031c2.147-5.26,4.2-10.882,3.678-16.7-.28-3.115-1.61-5.369-3.846-6.518-2.608-1.34-6.115-.991-9.382.931-6.642,3.911-12.046,10.64-16.9,17.33a3.316,3.316,0,0,0,.811,4.97,4.627,4.627,0,0,0,6.6-.868,72.419,72.419,0,0,1,7.158-8.374,1,1,0,0,1,1.587,1.185q-.565,1.035-1.143,2.066a152.988,152.988,0,0,0-7.053,13.74l-.449,1.034c-3.788,8.707-8.974,20.632-4.406,29.445,2.219,4.281,7.471,4.7,11.512,2.9,5.043-2.241,8.728-6.9,12.291-11.408.461-.582.918-1.16,1.373-1.725,3.046-3.791,5.881-7.838,8.624-11.752q1.479-2.112,2.973-4.219l.284-.4a74.4,74.4,0,0,1,4.824-6.284l.089-.1A1.092,1.092,0,0,1,181.64,215.788Zm19.82,6.517h0Z" fill="#3c384f"/>
        <path id="Trazado_115017" data-name="Trazado 115017" d="M142.792,223.274c-3.684,7.4-5.763,16.084-2.526,24.042.478,1.177,2.413.662,1.928-.532-3.038-7.472-1.14-15.537,2.325-22.5C145.091,223.135,143.366,222.12,142.792,223.274Z" fill="#3c384f"/>
        <path id="Trazado_115018" data-name="Trazado 115018" d="M145.829,244.381c-.017,0-.033-.007-.049-.01-.028-.054-.053-.113-.062-.129l-.005-.006c0-.008,0,0,0-.014-.129-.447-.221-.9-.319-1.354q-.339-1.582-.679-3.165a1.007,1.007,0,0,0-1.23-.7,1.023,1.023,0,0,0-.7,1.23q.384,1.789.769,3.58c.213.993.554,2.3,1.744,2.495a1.024,1.024,0,0,0,1.23-.7A1.011,1.011,0,0,0,145.829,244.381Z" fill="#3c384f"/>
        <path id="Trazado_115019" data-name="Trazado 115019" d="M189.856,201.723c-1.135-.606-2.146,1.12-1.009,1.727,1.57.838,2.049,2.544,2.111,4.22a28.922,28.922,0,0,1-.451,5.733,38.049,38.049,0,0,1-3.471,10.742c-.571,1.149,1.153,2.163,1.727,1.009a40.021,40.021,0,0,0,3.882-12.651C193.116,208.9,193.68,203.764,189.856,201.723Z" fill="#3c384f"/>
      </g>
      <g id="Grupo_81068" data-name="Grupo 81068">
        <g id="Grupo_81067" data-name="Grupo 81067">
          <g id="Grupo_81066" data-name="Grupo 81066">
            <path id="Trazado_115020" data-name="Trazado 115020" d="M199.088,219.934c-4.818,4.93-9.8,9.679-14.872,14.343,2.194-4.959,4.56-9.841,6.643-14.852,2.361-5.682,5.105-13.427,2.129-19.387-6.784-13.585-23.933-.256-30.244,6.583-.673.728-1.314,1.489-1.964,2.242,2.254-5.522,4.284-11.2,3.749-17.162-.737-8.2-8.257-10.171-14.731-6.36-6.953,4.093-12.536,11.174-17.2,17.6-3.96,5.462,5.1,10.662,9.031,5.278a71.117,71.117,0,0,1,7.058-8.258q-.562,1.03-1.136,2.058a153.4,153.4,0,0,0-7.1,13.83c-3.953,9.12-9.8,21.744-4.825,31.337,2.506,4.834,8.381,5.325,12.806,3.358,5.947-2.644,10.066-8.481,14.037-13.421,4.145-5.158,7.8-10.635,11.632-16.017a78.554,78.554,0,0,1,5.041-6.6c.042-.047.087-.091.129-.139l-.046.146c-1.019,3.168-2.33,6.208-3.656,9.256-2.469,5.67-5.652,11.639-6.556,17.81-.8,5.456,1.41,11.571,7.972,11.175,6.168-.372,11.112-6.314,15.236-10.282,4.995-4.806,9.9-9.708,14.806-14.6C212.151,222.763,204.148,214.757,199.088,219.934Z" fill="#ffd947"/>
            <path id="Trazado_115021" data-name="Trazado 115021" d="M176.4,253.777a7.836,7.836,0,0,1-5.97-2.477c-2.078-2.263-2.976-5.949-2.4-9.861.746-5.1,2.97-9.982,5.121-14.705.514-1.131,1.024-2.25,1.507-3.358.457-1.051.938-2.155,1.415-3.3-.292.406-.581.812-.867,1.214l-.284.4c-1,1.4-1.981,2.8-2.965,4.206-2.76,3.941-5.615,8.016-8.7,11.857q-.677.843-1.362,1.714c-3.541,4.477-7.554,9.552-13.048,11.995-4.9,2.175-11.313,1.565-14.1-3.812-5.007-9.658.4-22.087,4.346-31.163l.449-1.031c1.161-2.681,2.463-5.3,3.843-7.9q-.479.625-.942,1.259a6.654,6.654,0,0,1-9.393,1.307,5.277,5.277,0,0,1-1.254-7.761c4.977-6.865,10.542-13.783,17.5-17.88,3.863-2.272,8.089-2.641,11.311-.986,2.836,1.457,4.584,4.339,4.924,8.118a30.609,30.609,0,0,1-1.947,12.721c5.136-5.016,14.632-12.131,22.251-11.053,3.5.5,6.21,2.621,8.053,6.312,3.031,6.07.639,13.626-2.1,20.218-1.3,3.137-2.738,6.268-4.125,9.295l-.491,1.071c4.127-3.869,7.819-7.474,11.207-10.94h0a6.008,6.008,0,0,1,5.986-1.777,7.365,7.365,0,0,1,5.1,5.061,6.058,6.058,0,0,1-1.721,6.063l-.558.557c-4.645,4.636-9.448,9.429-14.26,14.059-.593.571-1.2,1.182-1.831,1.812-3.735,3.745-8.384,8.407-14.039,8.748C176.828,253.771,176.613,253.777,176.4,253.777Zm2.869-40.361a.943.943,0,0,1,.484.13.972.972,0,0,1,.473,1.135l-.047.146c-1.068,3.321-2.461,6.523-3.69,9.347-.487,1.118-1,2.248-1.521,3.389-2.093,4.6-4.257,9.348-4.963,14.166-.479,3.272.248,6.421,1.9,8.218a6.005,6.005,0,0,0,5.024,1.815c4.9-.3,9.066-4.476,12.744-8.165.638-.64,1.258-1.261,1.86-1.84,4.8-4.617,9.6-9.4,14.235-14.034l.557-.557a4.065,4.065,0,0,0,1.2-4.124,5.38,5.38,0,0,0-3.671-3.648,4.005,4.005,0,0,0-4.051,1.239h0c-4.377,4.477-9.254,9.181-14.911,14.381a1,1,0,0,1-1.591-1.141c.829-1.875,1.683-3.738,2.536-5.6,1.38-3.011,2.806-6.125,4.1-9.23,2.566-6.174,4.83-13.207,2.158-18.557-1.554-3.111-3.7-4.82-6.545-5.225-7.1-1.005-17.093,6.647-22.07,12.04-.53.575-1.041,1.171-1.553,1.766l-.388.452a1,1,0,0,1-1.683-1.032c2.148-5.259,4.2-10.882,3.679-16.7-.28-3.116-1.61-5.37-3.846-6.519-2.609-1.339-6.115-.99-9.382.932-6.643,3.91-12.046,10.64-16.9,17.33a3.314,3.314,0,0,0,.811,4.969,4.626,4.626,0,0,0,6.6-.867,72.237,72.237,0,0,1,7.158-8.374,1,1,0,0,1,1.586,1.184q-.565,1.036-1.142,2.067a153,153,0,0,0-7.054,13.74l-.449,1.034c-3.787,8.707-8.973,20.632-4.4,29.444,2.219,4.282,7.471,4.7,11.512,2.9,5.043-2.241,8.728-6.9,12.291-11.408q.691-.875,1.372-1.726c3.047-3.79,5.882-7.837,8.625-11.751.986-1.408,1.973-2.817,2.973-4.22l.284-.4a74.44,74.44,0,0,1,4.823-6.284l.09-.1A1.091,1.091,0,0,1,179.268,213.416Zm19.82,6.518h0Z"/>
          </g>
          <path id="Trazado_115022" data-name="Trazado 115022" d="M140.421,220.9c-3.685,7.4-5.763,16.083-2.527,24.042.479,1.176,2.414.662,1.929-.532-3.039-7.473-1.141-15.537,2.325-22.5C142.719,220.763,140.995,219.749,140.421,220.9Z"/>
          <path id="Trazado_115023" data-name="Trazado 115023" d="M143.458,242.01c-.017,0-.033-.007-.049-.01-.028-.055-.054-.113-.063-.129l0-.006c0-.008,0,0,0-.015-.129-.446-.222-.9-.319-1.353q-.34-1.582-.679-3.165a1.008,1.008,0,0,0-1.231-.7,1.023,1.023,0,0,0-.7,1.23l.768,3.579c.214.994.555,2.3,1.745,2.5a1.025,1.025,0,0,0,1.23-.7A1.012,1.012,0,0,0,143.458,242.01Z"/>
          <path id="Trazado_115024" data-name="Trazado 115024" d="M187.485,199.352c-1.135-.606-2.147,1.12-1.009,1.727,1.57.838,2.048,2.544,2.111,4.219a28.932,28.932,0,0,1-.451,5.734,38.049,38.049,0,0,1-3.471,10.742c-.572,1.149,1.153,2.163,1.727,1.009a40.062,40.062,0,0,0,3.882-12.651C190.745,206.527,191.309,201.392,187.485,199.352Z"/>
        </g>
      </g>
    </g>
    <g id="Grupo_82653" data-name="Grupo 82653" transform="translate(1222.295 168.518)">
      <g id="Grupo_81077" data-name="Grupo 81077" transform="translate(126.352 276.33)">
        <g id="Grupo_81074" data-name="Grupo 81074" transform="translate(1.804 1.804)" style="mix-blend-mode: overlay;isolation: isolate">
          <path id="Trazado_115029" data-name="Trazado 115029" d="M151.155,315.885a1.587,1.587,0,0,1-.567-.105c-4.728-1.841-9.4-3.859-13.874-6l-.466-.223.6-8.888.493-.158c3.094-.989,6.394-2.082,9.56-3.377a19.868,19.868,0,0,0,6.747-3.995,3.092,3.092,0,0,0,1.142-2.386,2.338,2.338,0,0,0-1.531-1.588,4.8,4.8,0,0,0-1.8-.327,7.076,7.076,0,0,0-1.976.3,14.547,14.547,0,0,0-2.672,1.142,1.591,1.591,0,0,1-.736.182,1.574,1.574,0,0,1-1.414-.874l-1.811-3.687a1.549,1.549,0,0,1,.081-1.532A9.971,9.971,0,0,1,147.5,280.6a12.072,12.072,0,0,1,4.671-.9,14.447,14.447,0,0,1,2.317.191,12.34,12.34,0,0,1,6.339,2.939,9,9,0,0,1,3.025,6.383,9.945,9.945,0,0,1-2.077,5.961,21.143,21.143,0,0,1-4.436,4.231,53.027,53.027,0,0,1-9.279,5.562l-.253.817.256-.718,6.045,2.161a1.578,1.578,0,0,1,.913,2.117l-2.41,5.579A1.574,1.574,0,0,1,151.155,315.885Z" transform="translate(-135.454 -278.94)" fill="#3c384f"/>
          <path id="Trazado_115030" data-name="Trazado 115030" d="M151.921,280.223a13.568,13.568,0,0,1,2.193.181,11.643,11.643,0,0,1,5.948,2.75,8.3,8.3,0,0,1,2.778,5.836,9.173,9.173,0,0,1-1.929,5.5,20.4,20.4,0,0,1-4.28,4.072,52.169,52.169,0,0,1-9.144,5.48.815.815,0,0,0,.069,1.506q3.024,1.079,6.045,2.162a.817.817,0,0,1,.471,1.1l-2.411,5.58a.821.821,0,0,1-.756.5.812.812,0,0,1-.291-.054q-7.019-2.732-13.821-5.974c.257-3.82.269-4.038.527-7.858,3.244-1.037,6.467-2.109,9.617-3.4a20.516,20.516,0,0,0,7-4.161,3.733,3.733,0,0,0,1.353-3.05,3.054,3.054,0,0,0-2-2.169,5.543,5.543,0,0,0-2.077-.381,7.88,7.88,0,0,0-2.19.33,15.1,15.1,0,0,0-2.813,1.2.823.823,0,0,1-1.116-.359q-.9-1.833-1.807-3.682a.791.791,0,0,1,.034-.78,9.221,9.221,0,0,1,4.222-3.487,11.371,11.371,0,0,1,4.379-.838m0-1.522h0a12.825,12.825,0,0,0-4.964.955,10.753,10.753,0,0,0-4.922,4.075,2.305,2.305,0,0,0-.11,2.28l1.8,3.671a2.344,2.344,0,0,0,3.187,1.036,13.9,13.9,0,0,1,2.531-1.086,6.344,6.344,0,0,1,1.766-.269,4.021,4.021,0,0,1,1.508.27,1.618,1.618,0,0,1,1.068,1.007c.072.43-.268,1.059-.932,1.728a19.214,19.214,0,0,1-6.49,3.824c-3.145,1.285-6.428,2.373-9.509,3.357l-.986.315-.07,1.032-.263,3.932-.263,3.926-.069,1.03.932.445c4.495,2.148,9.18,4.173,13.924,6.019a2.31,2.31,0,0,0,.844.158,2.336,2.336,0,0,0,2.159-1.435L154.35,312l1.12-2.591a2.339,2.339,0,0,0-1.348-3.13c-1.017-.362-2.024-.723-3.032-1.084l-1.438-.515a53.82,53.82,0,0,0,7.891-4.9,21.849,21.849,0,0,0,4.6-4.39,10.7,10.7,0,0,0,2.225-6.427,9.766,9.766,0,0,0-3.273-6.931,13.08,13.08,0,0,0-6.725-3.127,15.1,15.1,0,0,0-2.445-.2Z" transform="translate(-135.205 -278.701)" fill="#3c384f"/>
        </g>
        <g id="Grupo_81076" data-name="Grupo 81076" transform="translate(0)">
          <g id="Grupo_81075" data-name="Grupo 81075">
            <path id="Trazado_115031" data-name="Trazado 115031" d="M148.783,313.514a1.565,1.565,0,0,1-.566-.106c-4.728-1.841-9.4-3.859-13.874-6l-.466-.223.6-8.888.492-.158c3.094-.989,6.394-2.083,9.561-3.377a19.875,19.875,0,0,0,6.747-3.995,3.1,3.1,0,0,0,1.142-2.387,2.338,2.338,0,0,0-1.531-1.588,4.783,4.783,0,0,0-1.8-.326,7.107,7.107,0,0,0-1.976.3,14.57,14.57,0,0,0-2.671,1.142,1.579,1.579,0,0,1-2.15-.691l-1.811-3.688a1.543,1.543,0,0,1,.081-1.531,9.966,9.966,0,0,1,4.567-3.773,12.069,12.069,0,0,1,4.67-.9,14.46,14.46,0,0,1,2.318.191,12.343,12.343,0,0,1,6.338,2.938,9,9,0,0,1,3.026,6.384A9.952,9.952,0,0,1,159.4,292.8a21.149,21.149,0,0,1-4.437,4.231,53.01,53.01,0,0,1-9.279,5.561l-.253.817.256-.718,6.045,2.161a1.58,1.58,0,0,1,.913,2.116l-2.41,5.579A1.574,1.574,0,0,1,148.783,313.514Z" transform="translate(-133.083 -276.569)" fill="#ffd947"/>
            <path id="Trazado_115032" data-name="Trazado 115032" d="M149.55,277.852a13.583,13.583,0,0,1,2.193.181,11.644,11.644,0,0,1,5.948,2.75,8.3,8.3,0,0,1,2.778,5.836,9.172,9.172,0,0,1-1.929,5.5,20.384,20.384,0,0,1-4.281,4.072,52.181,52.181,0,0,1-9.143,5.48.815.815,0,0,0,.069,1.506q3.024,1.079,6.045,2.161a.817.817,0,0,1,.471,1.1l-2.411,5.58a.821.821,0,0,1-.756.5.8.8,0,0,1-.292-.055c-4.678-1.821-9.3-3.813-13.821-5.974.258-3.82.269-4.037.527-7.857,3.244-1.037,6.467-2.109,9.617-3.4a20.531,20.531,0,0,0,7-4.161,3.731,3.731,0,0,0,1.354-3.05,3.058,3.058,0,0,0-2-2.17,5.559,5.559,0,0,0-2.078-.38,7.878,7.878,0,0,0-2.189.329,15.15,15.15,0,0,0-2.813,1.2.821.821,0,0,1-1.116-.358l-1.808-3.682a.792.792,0,0,1,.035-.781,9.224,9.224,0,0,1,4.222-3.486,11.367,11.367,0,0,1,4.379-.838m0-1.522h0a12.829,12.829,0,0,0-4.965.955,10.746,10.746,0,0,0-4.921,4.075,2.305,2.305,0,0,0-.11,2.28l1.8,3.67a2.344,2.344,0,0,0,3.187,1.037,13.825,13.825,0,0,1,2.531-1.086,6.312,6.312,0,0,1,1.766-.269,4.026,4.026,0,0,1,1.509.27,1.617,1.617,0,0,1,1.068,1.007c.072.43-.268,1.059-.932,1.728a19.2,19.2,0,0,1-6.49,3.824c-3.145,1.285-6.428,2.373-9.509,3.357l-.986.315-.07,1.033-.263,3.932-.263,3.925-.069,1.031.932.445c4.5,2.147,9.181,4.172,13.925,6.019a2.339,2.339,0,0,0,3-1.276l1.285-2.974,1.12-2.591a2.341,2.341,0,0,0-1.348-3.13l-3.032-1.085-1.438-.514a53.812,53.812,0,0,0,7.891-4.9,21.862,21.862,0,0,0,4.6-4.389,10.7,10.7,0,0,0,2.225-6.428,9.764,9.764,0,0,0-3.273-6.93,13.075,13.075,0,0,0-6.724-3.127,15.1,15.1,0,0,0-2.444-.2Z" transform="translate(-132.834 -276.33)"/>
          </g>
        </g>
      </g>
      <g id="Grupo_81081" data-name="Grupo 81081" transform="translate(105.705 308.251)">
        <g id="Grupo_81078" data-name="Grupo 81078" transform="translate(1.805 1.804)" style="mix-blend-mode: overlay;isolation: isolate">
          <path id="Trazado_115033" data-name="Trazado 115033" d="M126.185,356.917a1.577,1.577,0,0,1-1.4-.858l-1.658-3.241a1.571,1.571,0,0,1,.654-2.105,14.243,14.243,0,0,0,4.234-3.083c1.195-1.384,2.019-3.6,1.171-5.426a2.9,2.9,0,0,0-1.96-1.655,2.233,2.233,0,0,0-.422-.039,3.606,3.606,0,0,0-2.457,1.168,7.941,7.941,0,0,0-1.3,1.875,1.582,1.582,0,0,1-2.415.457l-2.011-1.709a1.589,1.589,0,0,1-.3-2.063c1.409-2.169,2.921-4.715,3.042-7.48a4.046,4.046,0,0,0-.238-1.746,1.766,1.766,0,0,0-.995-1.017,1.388,1.388,0,0,0-.444-.071,2.662,2.662,0,0,0-1.276.395,5.707,5.707,0,0,0-2.174,2.558,10.907,10.907,0,0,0-.676,2.057,1.567,1.567,0,0,1-1.986,1.162l-3.357-.98a1.592,1.592,0,0,1-1.123-1.75c.5-3.223,1.282-6.527,3.567-8.9a9.331,9.331,0,0,1,6.709-2.829,8.929,8.929,0,0,1,1.326.1,9.224,9.224,0,0,1,7.473,11.74l.043.066a8.563,8.563,0,0,1,1.89-.211,8.945,8.945,0,0,1,4.83,1.426,10.266,10.266,0,0,1,4.417,7.251,12.6,12.6,0,0,1-1.932,8.241,14.631,14.631,0,0,1-11.118,6.656Z" transform="translate(-108.315 -320.883)" fill="#3c384f"/>
          <path id="Trazado_115034" data-name="Trazado 115034" d="M119.129,322.166a8.1,8.1,0,0,1,1.213.091,8.462,8.462,0,0,1,6.854,10.778.81.81,0,0,0,.775,1.037.85.85,0,0,0,.183-.021,7.646,7.646,0,0,1,1.706-.19,8.15,8.15,0,0,1,4.415,1.3,9.5,9.5,0,0,1,4.078,6.712,11.894,11.894,0,0,1-1.822,7.738,13.859,13.859,0,0,1-10.529,6.3h-.056a.823.823,0,0,1-.726-.448c-.551-1.077-1.1-2.159-1.655-3.237a.813.813,0,0,1,.339-1.089,15.16,15.16,0,0,0,4.448-3.255c1.467-1.7,2.231-4.2,1.285-6.243a3.659,3.659,0,0,0-2.5-2.082,3.063,3.063,0,0,0-.569-.052,4.36,4.36,0,0,0-3,1.4,8.856,8.856,0,0,0-1.432,2.049.813.813,0,0,1-.72.428.823.823,0,0,1-.533-.2c-.665-.565-1.339-1.133-2.007-1.7a.818.818,0,0,1-.153-1.069c1.574-2.424,3.039-5,3.164-7.861a4.8,4.8,0,0,0-.3-2.074,2.514,2.514,0,0,0-1.454-1.443,2.119,2.119,0,0,0-.687-.11,3.4,3.4,0,0,0-1.657.5,6.415,6.415,0,0,0-2.484,2.9,11.7,11.7,0,0,0-.726,2.2.807.807,0,0,1-1.025.607c-1.116-.328-2.238-.653-3.362-.983a.823.823,0,0,1-.585-.907c.483-3.092,1.215-6.253,3.362-8.478a8.633,8.633,0,0,1,6.161-2.6m0-1.522a10.1,10.1,0,0,0-7.259,3.066c-2.429,2.516-3.247,5.955-3.768,9.3a2.36,2.36,0,0,0,1.656,2.6l1.54.45,1.825.533a2.33,2.33,0,0,0,2.939-1.731,10.072,10.072,0,0,1,.626-1.908,4.952,4.952,0,0,1,1.868-2.216,1.919,1.919,0,0,1,.887-.288.608.608,0,0,1,.2.029,1.031,1.031,0,0,1,.541.589,3.334,3.334,0,0,1,.18,1.421c-.113,2.572-1.566,5.013-2.919,7.1a2.35,2.35,0,0,0,.437,3.053c.4.339.791.673,1.183,1.006l.829.7a2.364,2.364,0,0,0,1.521.558,2.336,2.336,0,0,0,2.06-1.229,7.287,7.287,0,0,1,1.18-1.708,2.882,2.882,0,0,1,1.912-.938,1.533,1.533,0,0,1,.285.026,2.159,2.159,0,0,1,1.409,1.231c.7,1.515-.024,3.4-1.058,4.6a13.6,13.6,0,0,1-4.018,2.91,2.327,2.327,0,0,0-.974,3.119l.811,1.585.846,1.654a2.341,2.341,0,0,0,2.082,1.278c.053,0,.107,0,.161-.005a15.405,15.405,0,0,0,11.712-7.01,13.355,13.355,0,0,0,2.044-8.742,11.038,11.038,0,0,0-4.757-7.794,9.716,9.716,0,0,0-5.245-1.549,9.322,9.322,0,0,0-.958.049,9.966,9.966,0,0,0-8.331-11.636,9.683,9.683,0,0,0-1.442-.108Z" transform="translate(-108.077 -320.644)" fill="#3c384f"/>
        </g>
        <g id="Grupo_81080" data-name="Grupo 81080">
          <g id="Grupo_81079" data-name="Grupo 81079">
            <path id="Trazado_115035" data-name="Trazado 115035" d="M123.813,354.546a1.577,1.577,0,0,1-1.4-.858l-1.658-3.242a1.571,1.571,0,0,1,.654-2.1,14.238,14.238,0,0,0,4.235-3.083c1.195-1.384,2.019-3.6,1.171-5.426a2.894,2.894,0,0,0-1.96-1.655,2.3,2.3,0,0,0-.422-.039,3.607,3.607,0,0,0-2.457,1.169,7.936,7.936,0,0,0-1.3,1.874,1.579,1.579,0,0,1-1.392.832,1.6,1.6,0,0,1-1.023-.374l-2.011-1.709a1.589,1.589,0,0,1-.3-2.063c1.409-2.17,2.921-4.715,3.042-7.48a4.046,4.046,0,0,0-.238-1.746,1.766,1.766,0,0,0-.995-1.017,1.373,1.373,0,0,0-.445-.071,2.662,2.662,0,0,0-1.276.395,5.7,5.7,0,0,0-2.174,2.558,10.9,10.9,0,0,0-.676,2.056,1.57,1.57,0,0,1-1.986,1.163l-3.357-.98A1.593,1.593,0,0,1,106.72,331c.5-3.224,1.283-6.527,3.568-8.9a9.331,9.331,0,0,1,6.709-2.83,8.931,8.931,0,0,1,1.327.1,9.223,9.223,0,0,1,7.472,11.741l.044.066a8.507,8.507,0,0,1,1.889-.211,8.946,8.946,0,0,1,4.83,1.426,10.265,10.265,0,0,1,4.417,7.251,12.6,12.6,0,0,1-1.932,8.241,14.631,14.631,0,0,1-11.118,6.656Z" transform="translate(-105.943 -318.512)" fill="#ff5f65"/>
            <path id="Trazado_115036" data-name="Trazado 115036" d="M116.758,319.8a8.1,8.1,0,0,1,1.213.091,8.462,8.462,0,0,1,6.854,10.778.81.81,0,0,0,.775,1.037.854.854,0,0,0,.183-.021,7.64,7.64,0,0,1,1.706-.19,8.152,8.152,0,0,1,4.415,1.3,9.5,9.5,0,0,1,4.078,6.711,11.9,11.9,0,0,1-1.822,7.738,13.861,13.861,0,0,1-10.53,6.3l-.055,0a.826.826,0,0,1-.727-.448c-.55-1.077-1.1-2.16-1.655-3.237a.814.814,0,0,1,.339-1.089,15.166,15.166,0,0,0,4.448-3.255c1.467-1.7,2.231-4.2,1.284-6.243a3.655,3.655,0,0,0-2.5-2.082,3.071,3.071,0,0,0-.57-.053,4.363,4.363,0,0,0-3,1.4,8.866,8.866,0,0,0-1.431,2.049.813.813,0,0,1-.721.429.826.826,0,0,1-.533-.2c-.665-.566-1.338-1.134-2.007-1.7a.819.819,0,0,1-.152-1.069c1.573-2.424,3.038-5,3.164-7.861a4.808,4.808,0,0,0-.3-2.075,2.518,2.518,0,0,0-1.454-1.442,2.1,2.1,0,0,0-.687-.11,3.392,3.392,0,0,0-1.657.5,6.408,6.408,0,0,0-2.484,2.9,11.686,11.686,0,0,0-.726,2.2.807.807,0,0,1-1.025.607c-1.116-.328-2.238-.653-3.363-.983a.825.825,0,0,1-.585-.908c.483-3.092,1.215-6.252,3.363-8.477a8.63,8.63,0,0,1,6.161-2.6m0-1.522a10.093,10.093,0,0,0-7.259,3.066c-2.429,2.517-3.247,5.956-3.769,9.3a2.361,2.361,0,0,0,1.657,2.6l1.54.45q.914.266,1.825.534a2.33,2.33,0,0,0,2.939-1.731,10.129,10.129,0,0,1,.626-1.908,4.953,4.953,0,0,1,1.868-2.216,1.915,1.915,0,0,1,.888-.288.61.61,0,0,1,.2.028,1.038,1.038,0,0,1,.541.59,3.346,3.346,0,0,1,.18,1.421c-.113,2.572-1.566,5.013-2.92,7.1a2.351,2.351,0,0,0,.438,3.053c.4.339.79.673,1.183,1.006l.829.7a2.344,2.344,0,0,0,3.581-.671,7.273,7.273,0,0,1,1.18-1.707,2.881,2.881,0,0,1,1.911-.938,1.535,1.535,0,0,1,.286.027,2.156,2.156,0,0,1,1.409,1.231c.7,1.514-.024,3.4-1.058,4.6a13.6,13.6,0,0,1-4.018,2.91,2.328,2.328,0,0,0-.973,3.12l.811,1.585.845,1.654a2.342,2.342,0,0,0,2.082,1.278c.053,0,.107,0,.161-.005a15.409,15.409,0,0,0,11.712-7.01,13.356,13.356,0,0,0,2.044-8.742,11.033,11.033,0,0,0-4.758-7.794,9.712,9.712,0,0,0-5.244-1.549,9.531,9.531,0,0,0-.958.049A9.967,9.967,0,0,0,118.2,318.38a9.8,9.8,0,0,0-1.442-.107Z" transform="translate(-105.705 -318.273)"/>
          </g>
        </g>
      </g>
    </g>
    <g id="Grupo_158055" data-name="Grupo 158055" transform="translate(1241.673 480.107)">
      <path id="Trazado_117337" data-name="Trazado 117337" d="M1399.489,1052.952c-1.225,0-2.411-1.482-3.913-3.36l-.441-.55a.424.424,0,0,1-.07-.132.383.383,0,0,1-.006-.358c4.3-8.822,9.107-17.7,13.271-25.33a.761.761,0,0,0-.668-1.126.73.73,0,0,0-.115.009c-1.389.213-2.739.388-4.015.52h0c-.337,0-.9-.812-1.17-1.2-.137-.2-.264-.379-.377-.519-.984-1.219-1.845-2.344-2.634-3.442-.074-.1-.057-.132-.038-.162a.689.689,0,0,0,.073-.149.893.893,0,0,0,.133-.17c3.944-6.993,8.3-13.821,12.421-20.157a.761.761,0,0,0-.637-1.176.7.7,0,0,0-.114.009l-2.41.364c-.19.028-.412.078-.648.131a5.872,5.872,0,0,1-1.143.182.851.851,0,0,1-.231-.024c-.411-.112-1.014-.981-1.373-1.5-.166-.239-.319-.458-.454-.627l-.15-.188c-.73-.91-1.484-1.851-2.136-2.82-.087-.128-.053-.171-.016-.219,5.914-10.1,11.088-20.752,16.09-31.051q1.956-4.024,3.918-8.029a.355.355,0,0,1,.248-.107c10.806-.058,21.785-.415,32.4-.76l.147,0a.185.185,0,0,1,.194.1,1.077,1.077,0,0,0,.123.159,54.422,54.422,0,0,0,3.747,4.751.35.35,0,0,1-.012.526c-4.987,5.941-9.684,12.3-14.225,18.453q-1.665,2.257-3.334,4.505a.763.763,0,0,0,.688,1.211l6.7-.689a.775.775,0,0,0,.168-.037.467.467,0,0,0,.085.014c.047.055.167.155.2.188,1.437,1.693,2.719,3.323,3.918,4.982a.429.429,0,0,1-.128.359c-6.048,7.048-12.358,14.079-18.459,20.878l-.139.155a.761.761,0,0,0,.566,1.27c.024,0,6.915-.663,6.915-.663a.6.6,0,0,0,.114-.02.563.563,0,0,0,.1.022c.038.027.09.063.1.068l.025.024a62.8,62.8,0,0,1,3.974,5.057.362.362,0,0,1-.058.292c-7.267,6.534-14.788,13.041-22.06,19.334q-4.26,3.686-8.513,7.379l-14.352,12.485a3.735,3.735,0,0,1-2.266,1.147Z" transform="translate(-1394.253 -950.244)" fill="#fff"/>
      <path id="Trazado_117338" data-name="Trazado 117338" d="M1456.766,953.736a1.1,1.1,0,0,0,0-1.518,54.611,54.611,0,0,1-3.733-4.734c-.016-.022-.034-.038-.05-.059a.936.936,0,0,0-.876-.473c-10.838.352-21.683.706-32.528.764a1.063,1.063,0,0,0-.927.532c-6.42,13.046-12.583,26.386-19.923,38.945a.9.9,0,0,0-.018,1.116c.715,1.061,1.524,2.06,2.323,3.058.527.658,1.329,2.141,2.218,2.385a6.629,6.629,0,0,0,2.34-.271c.8-.123,1.606-.242,2.409-.364-4.314,6.634-8.567,13.32-12.446,20.2a.8.8,0,0,0-.186.284.862.862,0,0,0,.062,1.015c.852,1.186,1.742,2.339,2.66,3.475.5.613,1.255,2.1,2.217,2,1.352-.141,2.7-.319,4.052-.525-4.573,8.38-9.105,16.79-13.287,25.361a1.092,1.092,0,0,0-.031.932,1.166,1.166,0,0,0,.2.369c2.769,3.437,4.334,5.806,7.715,2.86q7.172-6.248,14.351-12.485c10.21-8.884,20.519-17.671,30.583-26.72a1.062,1.062,0,0,0,.168-1.3,61.952,61.952,0,0,0-3.984-5.066,1.1,1.1,0,0,0-.071-.086l-.014-.016s-.007,0-.012-.008a1.385,1.385,0,0,0-.418-.277h-.007a.852.852,0,0,0-.493-.012q-3.42.327-6.842.658c6.255-6.97,12.511-13.939,18.609-21.046a1.079,1.079,0,0,0,.168-1.3c-1.252-1.733-2.572-3.4-3.954-5.028a.849.849,0,0,0-.432-.387.832.832,0,0,0-.09-.042l-.012,0a.839.839,0,0,0-.571,0q-3.35.344-6.7.689C1444.969,968.951,1450.595,961.089,1456.766,953.736Zm-24.108,21.525c.129.238.286.464.426.681.264.41.526.827.806,1.23-.947.089-1.893.178-2.84.261Q1431.855,976.347,1432.658,975.261Zm2.157,1.825c-.365-.588-.815-1.133-1.225-1.69a5.346,5.346,0,0,0-.543-.664q.643-.873,1.284-1.75c.309.575.717,1.127,1.014,1.66a15.756,15.756,0,0,0,1.081,2.229c-.019.024-.037.048-.055.072C1435.852,976.994,1435.333,977.036,1434.815,977.086Zm12.284-21.176c.26.723.649,1.437.9,2.076.283.736.409,1.76.771,2.543-.4.524-.8,1.051-1.2,1.576-.218-.461-.5-.9-.652-1.2a19.252,19.252,0,0,0-1.313-3.055C1446.1,957.2,1446.6,956.553,1447.1,955.911Zm-2.119,2.747a19.2,19.2,0,0,0,.936,2.241c.259.618.582,1.205.838,1.825.045.11.077.213.108.311q-.657.864-1.313,1.729c-.156-.429-.359-.847-.525-1.229a20.583,20.583,0,0,0-1.455-3.028C1444.035,959.887,1444.509,959.273,1444.979,958.658Zm-2,2.634c.18.549.468,1.086.686,1.581.322.731.685,1.432.956,2.186a6.05,6.05,0,0,1,.185.684c-.453.6-.91,1.194-1.362,1.792a14.038,14.038,0,0,0-.733-1.542c-.389-.8-.785-1.792-1.28-2.64Q1442.2,962.32,1442.977,961.292Zm-2.187,2.919c.215.531.5,1.047.719,1.507a18.755,18.755,0,0,1,.919,2.171c.1.288.141.5.22.693q-.782,1.038-1.561,2.079c-.361-.819-.725-1.636-1.132-2.432a18.592,18.592,0,0,0-.909-1.662Q1439.918,965.388,1440.79,964.21Zm-2.292,3.1c.331.725.72,1.439,1.034,2.119a8.826,8.826,0,0,0,.917,2.083q-.753,1-1.506,2.006a12.047,12.047,0,0,0-1.2-2.487,10.611,10.611,0,0,0-.924-1.437Q1437.657,968.451,1438.5,967.31Zm-2.213,3.012c.235.4.5.781.7,1.152.515.94.833,1.962,1.305,2.914l-1.258,1.675a13.038,13.038,0,0,0-.826-1.515,9.782,9.782,0,0,0-1.417-2.187Q1435.535,971.341,1436.285,970.322Zm13.329-10.911c-.229-.757-.613-1.522-.84-2.093a10.555,10.555,0,0,0-1.039-2.211q.848-1.077,1.7-2.146c.19.583.474,1.154.7,1.677a19.561,19.561,0,0,1,.771,2.047c.086.277.124.534.191.779q-.6.788-1.207,1.575C1449.8,959.162,1449.708,959.287,1449.614,959.411Zm1.822-8.892a15.336,15.336,0,0,0,.639,2.259,9.251,9.251,0,0,0,.9,2.282c-.359.459-.723.914-1.079,1.376-.167-.516-.418-1.024-.586-1.43A15.675,15.675,0,0,0,1450,952.26C1450.474,951.675,1450.957,951.1,1451.436,950.519Zm3.232,2.457a.436.436,0,0,0-.146.12c-.362.444-.711.9-1.066,1.348-.164-.641-.5-1.289-.7-1.855-.3-.851-.547-1.734-.917-2.559.073-.087.144-.175.217-.262.586.791,1.184,1.573,1.8,2.342A6,6,0,0,0,1454.668,952.976Zm-35.865-.2q.845-1.7,1.684-3.409c-.109.222,10.738.309,12.035.28q8.632-.2,17.26-.485c-7.7,9.338-14.708,19.32-21.938,29.009a1.079,1.079,0,0,0,.927,1.615c4.944-.4,9.88-.918,14.814-1.431-7.887,9.126-15.978,18.081-24.059,27.034-.555.613-.249,1.961.759,1.832,5.247-.669,10.519-1.176,15.786-1.677-13.416,12.009-27.078,23.756-40.677,35.559,3.811-7.537,7.825-14.977,11.876-22.39l0-.005q1.738-3.181,3.474-6.361a1.085,1.085,0,0,0-1.212-1.577c-3.711.573-7.412,1.207-11.11,1.854,5.166-8.97,10.918-17.635,16.564-26.3a1.079,1.079,0,0,0-.927-1.616c-4.145.433-8.275,1.008-12.392,1.653C1407.892,975.471,1413.243,964.011,1418.8,952.781Zm26.527,28.512c.407,1.03.775,2.1,1.2,3.116-.382.438-.766.874-1.149,1.312a12.212,12.212,0,0,0-1.813-4.076q.673-.775,1.346-1.551A9.218,9.218,0,0,0,1445.33,981.293Zm-3.054,5.594a18.288,18.288,0,0,0-1.052-2.542c.654-.747,1.3-1.5,1.953-2.25.311,1.521,1.227,2.925,1.446,4.49-.563.642-1.123,1.285-1.688,1.925C1442.756,987.933,1442.471,987.363,1442.276,986.887Zm-3.064,2.246a9.348,9.348,0,0,0,.817,2.655c-.4.453-.807.9-1.21,1.357a14.458,14.458,0,0,0-.615-1.711c-.324-.774-.657-1.66-1.082-2.441q.841-.95,1.682-1.9A13.591,13.591,0,0,0,1439.211,989.132Zm-5.075,9.261c-.3-.765-.608-1.524-.876-2.3-.218-.632-.367-1.382-.654-2.025q.772-.862,1.545-1.724a15.367,15.367,0,0,0,.635,1.927,7.394,7.394,0,0,0,1.023,2.248Q1434.973,997.455,1434.136,998.394Zm-9.333,4.352c.13.345.305.683.41.963a5.431,5.431,0,0,0,.3.755c-.843.092-1.683.2-2.525.294Zm.523-.579q1.05-1.165,2.1-2.33c.2.781.63,1.605.844,2.277.189.6.309,1.342.538,2q-1.258.129-2.515.265A6.043,6.043,0,0,0,1425.326,1002.167Zm3.719-.68a6.853,6.853,0,0,0-1.059-2.271q.865-.962,1.728-1.926a13.337,13.337,0,0,0,.533,1.38c.382.936.7,1.924,1.092,2.861-.556.62-1.106,1.243-1.662,1.863C1429.509,1002.713,1429.226,1002.025,1429.044,1001.487Zm2.415-2.431a25.463,25.463,0,0,0-1.022-2.573q.733-.816,1.464-1.632c.112.52.3,1.037.445,1.492a20.585,20.585,0,0,0,1.1,2.823c-.458.512-.913,1.027-1.372,1.539A13.143,13.143,0,0,0,1431.46,999.056Zm4.189-4.72c-.355-.818-.646-1.691-1.059-2.489.628-.7,1.25-1.412,1.876-2.117.129.412.3.817.456,1.207a17.424,17.424,0,0,1,1.066,3.138q-.86.968-1.723,1.932A7.3,7.3,0,0,0,1435.649,994.336Zm1.805,18.363c-.522-1.364-1.066-2.723-1.619-4.073.656-.586,1.318-1.168,1.973-1.755a12.739,12.739,0,0,0,.59,2.223,21.911,21.911,0,0,0,.655,2.2Q1438.255,1012,1437.454,1012.7Zm-4.841,4.238a24.425,24.425,0,0,1-1.033-2.343c-.18-.523-.343-1.122-.58-1.667.612-.542,1.22-1.087,1.831-1.629.239.749.58,1.507.818,2.18a10.565,10.565,0,0,0,.756,1.895Q1433.511,1016.156,1432.613,1016.937Zm-2.368,2.064a21.493,21.493,0,0,1-1.161-2.41c-.183-.467-.333-.992-.545-1.475.609-.537,1.21-1.081,1.819-1.618.129.579.327,1.153.5,1.669a9.465,9.465,0,0,0,1.045,2.39Q1431.073,1018.281,1430.245,1019Zm-2.452,2.139c-.3-.807-.6-1.617-.928-2.412a9.623,9.623,0,0,0-.719-1.517c.6-.528,1.209-1.052,1.811-1.581.146.619.373,1.239.55,1.792a6.973,6.973,0,0,0,1.071,2.162Zm-4.694,4.094c-.24-.557-.52-1.1-.76-1.652a13.77,13.77,0,0,0-1.039-2.134l1.625-1.421c.148.479.362.949.514,1.346a11.5,11.5,0,0,0,1.147,2.565Zm-23.942,20.841a18.305,18.305,0,0,0-.831-1.843c-.328-.643-.57-1.385-.92-2.034q.929-.807,1.86-1.612a14.426,14.426,0,0,0,.691,1.518c.34.7.61,1.636,1.046,2.365Zm-2.7.134a10.006,10.006,0,0,0-1.157-2.188l1.51-1.31a9.368,9.368,0,0,0,.486,1.248c.4.9.851,1.772,1.2,2.689q-.652.568-1.3,1.134C1396.993,1047.217,1396.663,1046.652,1396.461,1046.209Zm4.552-3.853a25.36,25.36,0,0,0-1.149-2.292q.944-.818,1.887-1.636a15.3,15.3,0,0,0,.762,1.757,22.329,22.329,0,0,0,.939,2.15l-1.689,1.47C1401.556,1043.3,1401.244,1042.8,1401.013,1042.356Zm2.421-2.257a15.548,15.548,0,0,0-1.061-2.21q.866-.752,1.732-1.5a16.872,16.872,0,0,0,.664,1.7,20.962,20.962,0,0,0,.955,2.278l-1.512,1.315C1403.982,1041.134,1403.681,1040.609,1403.434,1040.1Zm2.272-1.643c-.375-.805-.7-1.681-1.14-2.471q.92-.8,1.838-1.592a14.533,14.533,0,0,0,.688,1.518c.309.661.608,1.325.852,2.014.054.149.086.279.119.4l-1.711,1.488C1406.166,1039.349,1405.915,1038.9,1405.707,1038.457Zm2.571-1.9a21.786,21.786,0,0,0-1.246-2.7l1.811-1.569a144.73,144.73,0,0,0,1.84,3.767l-1.876,1.632C1408.653,1037.274,1408.42,1036.872,1408.278,1036.554Zm2.088-2.634c-.347-.641-.649-1.4-1.044-2.055l1.888-1.636c.156.39.351.769.516,1.123a16.792,16.792,0,0,0,1.27,2.684l-1.792,1.558A7.885,7.885,0,0,0,1410.366,1033.919Zm2.295-2.18c-.326-.622-.579-1.335-.882-2.005l1.613-1.4a11.09,11.09,0,0,0,.529,1.333,20.492,20.492,0,0,0,1.144,2.565l-1.495,1.3A11.334,11.334,0,0,0,1412.661,1031.74Zm2.231-1.737c-.33-.689-.592-1.451-.944-2.147l1.646-1.427c.119.375.289.743.442,1.1.392.922.737,1.919,1.2,2.814l-1.524,1.326C1415.488,1031.092,1415.143,1030.529,1414.891,1030Zm2.145-2.158c-.271-.6-.517-1.308-.864-1.92.6-.522,1.2-1.048,1.8-1.572.193.657.527,1.3.767,1.9.278.7.495,1.419.748,2.125l-1.635,1.426A15.038,15.038,0,0,0,1417.036,1027.845Zm2.554-1.824a11.49,11.49,0,0,0-.976-2.227q1.134-.988,2.265-1.98a14.835,14.835,0,0,0,.6,1.72,24.432,24.432,0,0,0,.938,2.293q-1.1.961-2.2,1.922C1420.03,1027.165,1419.806,1026.589,1419.59,1026.021Zm4.595-4.854c-.2-.5-.362-1.145-.6-1.713.645-.565,1.293-1.128,1.936-1.693.17.554.437,1.1.63,1.595.316.807.605,1.624.892,2.441l-1.822,1.589C1424.938,1022.629,1424.466,1021.871,1424.185,1021.167Zm10.742-6.662c-.306-.618-.521-1.279-.767-1.922a11.136,11.136,0,0,0-.773-1.78q.9-.8,1.793-1.594a35.448,35.448,0,0,0,1.591,4.089q-.848.742-1.694,1.487C1435.027,1014.692,1434.976,1014.6,1434.928,1014.5Zm-28.322.952a12.689,12.689,0,0,0-.638-1.328c-.088-.169-.175-.368-.27-.566q1.066-.176,2.133-.347Zm-4.625.746a15.415,15.415,0,0,0-1.176-1.817c.527-.091,1.054-.184,1.581-.274a9.431,9.431,0,0,0,.848,1.781,12.353,12.353,0,0,0,.794,1.569c-.411.063-.823.125-1.236.179A8.492,8.492,0,0,0,1401.98,1016.2Zm8.078-27.359c-.111-.465-.193-.982-.319-1.476.726-.092,1.455-.178,2.184-.263l-1.643,2.516C1410.205,989.342,1410.112,989.073,1410.057,988.844Zm-8.548-.292c.734-.116,1.468-.233,2.2-.344a14.7,14.7,0,0,0,.57,1.943c.133.4.2.88.325,1.327l-.644.1C1403.115,990.6,1402.284,989.594,1401.509,988.552Zm3.955,2.8a10.815,10.815,0,0,0-.373-1.078,14.778,14.778,0,0,0-.953-2.125q1.037-.156,2.079-.3c.1.656.231,1.309.369,1.958a9.008,9.008,0,0,0,.3,1.331Zm2.391-.363c-.1-.487-.36-1.011-.461-1.407a9.072,9.072,0,0,0-.594-1.821c.7-.1,1.407-.188,2.11-.28a11.226,11.226,0,0,0,.2,1.319,5.065,5.065,0,0,0,.525,1.82l-.073.111C1408.99,990.811,1408.423,990.9,1407.856,990.985Zm-7.794,26.137c-.624-.748-1.221-1.517-1.809-2.293l1.522-.264c.335.647.839,1.25,1.21,1.84.217.345.418.9.678,1.38-.231.028-.461.062-.692.088C1400.011,1017.982,1400.721,1017.913,1400.062,1017.121Zm4.852.191a8.434,8.434,0,0,0-.9-1.879,9.12,9.12,0,0,0-.813-1.465c.531-.089,1.062-.172,1.593-.26.087.276.217.548.3.784a7.865,7.865,0,0,0,.846,1.786.479.479,0,0,0,.138.13q-.211.389-.423.775C1405.413,1017.232,1405.163,1017.269,1404.913,1017.312Zm-11.493,28.342,1.289-1.117c.249.613.675,1.243.9,1.738.288.643.579,1.281.832,1.938.017.044.034.083.05.125C1395.274,1049,1394.406,1047.2,1393.42,1045.655Zm48.219-36.638q-.541.481-1.084.962c-.225.2-.453.4-.679.6-.153-.437-.358-.868-.493-1.265a28.706,28.706,0,0,0-1-2.952c.249-.223.5-.442.749-.666.581.668,1.144,1.351,1.667,2.067A14.468,14.468,0,0,1,1441.639,1009.016Zm-.872-18.058c-.128-.552-.375-1.1-.534-1.624a25.108,25.108,0,0,0-.915-2.822c.463-.526.931-1.049,1.393-1.577a11.055,11.055,0,0,0,.624,1.789c.238.628.469,1.255.665,1.9.079.258.12.511.176.756l-.175.2C1441.591,990.039,1441.177,990.5,1440.767,990.958Zm6.995-7.953c-.218.252-.44.5-.658.751a13.282,13.282,0,0,0-.658-1.709c-.278-.654-.535-1.314-.8-1.974a5.789,5.789,0,0,1-.19-.6c.233-.269.468-.536.7-.805.738.876,1.456,1.767,2.138,2.69C1449.18,982.524,1448.784,981.824,1447.762,983.006Zm-41.92.208a270.242,270.242,0,0,1,13.676-27.772c.032-.057.131-.017.107.046a238.941,238.941,0,0,1-13.537,27.829C1406.015,983.446,1405.783,983.356,1405.842,983.213Zm13.981-28.726a1.824,1.824,0,0,1,.266-1.049,1.14,1.14,0,0,1,.56-.685.119.119,0,0,1,.177.1c.011.519-.312,1.589-.9,1.691A.085.085,0,0,1,1419.823,954.487Zm4.437,43.413a82.122,82.122,0,0,1,11.883-14.179c.085-.086.207.04.13.13-4,4.686-7.906,9.444-11.881,14.151C1424.329,998.075,1424.209,997.979,1424.26,997.9Zm12.455-14.812c.167-.567.581-1.258,1.207-1.361a.119.119,0,0,1,.145.145c-.1.589-.732,1.021-1.2,1.329A.1.1,0,0,1,1436.714,983.088Zm-30.978,46.579a127.825,127.825,0,0,1,15.429-13.613c.15-.111.314.124.193.25-4.728,4.915-10.286,9.1-15.466,13.518C1405.786,1029.912,1405.638,1029.77,1405.736,1029.667Zm16.516-14.172a.113.113,0,0,1-.109-.109c-.052-.577.793-1.1,1.283-1.2.084-.017.193.058.155.155C1423.4,1014.8,1422.8,1015.556,1422.252,1015.5Z" transform="translate(-1390.953 -946.953)"/>
    </g>
  </g>
</svg>
