<svg id="Grupo_157490" data-name="Grupo 157490" xmlns="http://www.w3.org/2000/svg" xmlns:xlink="http://www.w3.org/1999/xlink" width="139.736" height="125" viewBox="0 0 139.736 125">
  <defs>
    <clipPath id="clip-path">
      <rect id="Rectángulo_37356" data-name="Rectángulo 37356" width="139.736" height="125" fill="none"/>
    </clipPath>
  </defs>
  <g id="Grupo_157489" data-name="Grupo 157489" transform="translate(0 0)" clip-path="url(#clip-path)">
    <path id="Trazado_128532" data-name="Trazado 128532" d="M43.082,2.736C43.626.638,44.39.013,46.513.013q40.923-.007,81.847,0a10.93,10.93,0,0,1,11.355,11.331q.042,17.595,0,35.188c-.016,6.614-4.737,11.275-11.375,11.315-3.092.017-6.185.037-9.276-.017-.938-.017-1.037.226-.765,1.063A34.873,34.873,0,0,1,119.889,73a35.858,35.858,0,0,1-5.562,16.164c-.168.267-.329.538-.494.807-.526,1.777-1.991,2.88-3.087,4.24a15.373,15.373,0,0,1-2.413,2.4c-.859.679-.706,1.156-.012,1.841,3.555,3.51,7.076,7.054,10.61,10.587,2.954,2.953,5.9,5.919,8.87,8.858a3.4,3.4,0,0,0,4.076.931c2.319-1.176,2.731-3.732.843-5.684-2.463-2.546-5-5.019-7.5-7.526a5.683,5.683,0,0,1-1.511-2.074,2.38,2.38,0,0,1,.85-2.848c1.972-1.192,2.836-1.11,4.446.488,2.614,2.6,5.255,5.164,7.806,7.819,4.7,4.892,3.521,12.227-2.444,15.054a8.764,8.764,0,0,1-9.5-1.039,15.879,15.879,0,0,1-1.721-1.549q-9.992-9.974-19.954-19.976a1.426,1.426,0,0,0-2.042-.318A35.416,35.416,0,0,1,52.784,85.45,34.982,34.982,0,0,1,50.813,59.1a2.374,2.374,0,0,0,.235-1.245H49.57c-12.459,0-24.92-.092-37.377.042-5.65.06-10.372-2.888-11.833-8.262-.056-.2-.07-.461-.359-.511V8.742c.774-1.3,1.066-2.836,1.992-4.074A11.075,11.075,0,0,1,11.22.016c3.406-.03,6.813-.014,10.219,0,2.113.006,2.887.633,3.43,2.723a2.4,2.4,0,0,1-1.5,2.687,5.119,5.119,0,0,1-2.395.423c-3.094,0-6.186-.012-9.278,0-3.823.021-5.851,2.01-5.857,5.8q-.023,17.325,0,34.651c.006,3.631,2.045,5.7,5.661,5.71,13.462.024,26.925,0,40.387.03a2.727,2.727,0,0,0,2.545-1.443A34.662,34.662,0,0,1,67.827,38.268c.866-.449,1.092-.932.609-1.831-1.077-2-2-4.087-3.106-6.071-.228-.406-.338-1.1-.908-1.057-.45.038-.542.679-.713,1.086-.931,2.228-2.108,4.334-3.138,6.513a3.25,3.25,0,0,1-2.888,2.159,3.153,3.153,0,0,1-2.922-1.916c-2.5-4.488-4.841-9.063-7.106-13.673A3.008,3.008,0,0,1,48.8,19.229c1.51-.867,3.09-.444,4.2,1.289,1.492,2.341,2.443,4.979,3.906,7.341.163.264.235.6.64.8a4.885,4.885,0,0,0,1.086-1.931c.828-1.975,1.859-3.848,2.791-5.771a3.306,3.306,0,0,1,2.9-2.162,3.245,3.245,0,0,1,3,1.984c1.334,2.332,2.442,4.776,3.7,7.147.156.294.221.787.687.714.343-.053.378-.478.5-.76,1.032-2.381,2.3-4.643,3.4-6.993a3.166,3.166,0,0,1,2.817-2.071,3.018,3.018,0,0,1,2.725,1.532,3.146,3.146,0,0,1-.036,3.248c-1.145,2.426-2.225,4.882-3.476,7.257-.676,1.284-1.154,2.655-1.968,4.225,2.065-.359,3.859-.762,5.685-.927a37.408,37.408,0,0,1,6.126-.039c.388.028.866.306,1.135-.112.253-.394-.115-.778-.3-1.127-1.465-2.825-3-5.616-4.372-8.487a11.135,11.135,0,0,1-.621-1.365A3.02,3.02,0,0,1,88.816,20.5c1.339,2.273,2.506,4.639,3.683,7,.212.427.307.955.928,1.267,1.167-2.471,2.463-4.858,3.586-7.33a5.945,5.945,0,0,1,.8-1.42,3.028,3.028,0,0,1,5.267.626c1.418,2.691,2.943,5.325,4.337,8.412,1.1-2.1,2.057-3.972,2.921-5.888.355-.788.679-1.59,1.109-2.34,1.064-1.856,2.582-2.479,4.178-1.737,1.693.787,2.258,2.39,1.39,4.389-.9,2.084-1.916,4.122-2.9,6.171-1.022,2.132-2.1,4.236-3.058,6.4a7.564,7.564,0,0,1-1.121,1.866,2.929,2.929,0,0,1-4.54.166,7.19,7.19,0,0,1-1.3-2.07c-1.116-2.376-2.526-4.591-3.7-7.137-1.278,2.2-2.158,4.335-3.14,6.422-.4.855.17,1.121.8,1.394a41.462,41.462,0,0,1,5.7,2.916A34.169,34.169,0,0,1,114.6,50.376a3.175,3.175,0,0,0,3.116,1.67c3.364-.092,6.731-.026,10.1-.03,4.1-.006,6.064-1.929,6.067-5.99q.014-17.12,0-34.242c0-3.966-1.987-5.933-5.99-5.934q-29.883-.01-59.765,0-10.574,0-21.149,0A4.033,4.033,0,0,1,43.44,4.471c-.391-.511-.775-1.047-.358-1.735" transform="translate(0 0)"/>
    <path id="Trazado_128533" data-name="Trazado 128533" d="M42.334,2.36c.56,2.183,1.3,2.731,3.7,2.731h80.9c4.534,0,6.581,2.036,6.581,6.549q0,17.05,0,34.1c0,4.145-2.144,6.277-6.3,6.281-3.775,0-7.55-.024-11.324.02a1.739,1.739,0,0,1-1.755-.911A34.724,34.724,0,0,0,96.61,36.451c-.879-.341-1.041-.641-.577-1.529,1.217-2.329,2.3-4.727,3.441-7.1.5.138.545.6.717.923q2.057,3.915,4.073,7.851a2.772,2.772,0,0,0,5.186-.048c2.16-4.5,4.331-8.987,6.466-13.495.825-1.746.388-3.271-1.045-3.994-1.478-.746-2.989-.125-3.872,1.668-1.4,2.837-2.75,5.7-4.241,8.795-1.437-2.769-2.764-5.314-4.082-7.864-.711-1.373-1.292-2.929-3.215-2.9s-2.449,1.594-3.117,3c-1.2,2.519-2.428,5.022-3.755,7.759-1.616-3.11-3.1-6-4.615-8.87-.777-1.472-1.917-2.1-3.153-1.819-1.944.445-2.7,2.308-1.69,4.306,1.682,3.317,3.412,6.61,5.122,9.913.184.354.365.708.682,1.325a35.88,35.88,0,0,0-14.466.932c-.224-.446.09-.728.227-1.014,1.737-3.643,3.5-7.274,5.238-10.915a3.783,3.783,0,0,0,.564-2.2,2.622,2.622,0,0,0-2.164-2.334,2.468,2.468,0,0,0-2.862,1.349c-.984,1.837-1.854,3.736-2.767,5.611-.574,1.179-1.135,2.363-1.787,3.723-1.543-2.956-3.025-5.736-4.446-8.548-.608-1.2-1.333-2.21-2.815-2.21-1.559,0-2.267,1.086-2.857,2.344-1.289,2.746-2.626,5.468-4.05,8.422-1.583-3.055-3.058-5.923-4.556-8.779-.91-1.734-2.145-2.323-3.615-1.778a2.558,2.558,0,0,0-1.617,3.274,11.259,11.259,0,0,0,.767,1.734c2.12,4.111,4.264,8.211,6.371,12.329.6,1.168,1.369,2.071,2.778,2.056s2.156-.942,2.716-2.132C60.923,33.4,62.3,30.6,63.749,27.6c1.67,3.215,3.244,6.252,4.825,9.285.43.823-.389.786-.722.956A35.964,35.964,0,0,0,56.463,47a26.647,26.647,0,0,0-2.9,4.115,1.59,1.59,0,0,1-1.608.926c-13.824-.029-27.648-.012-41.473-.028A5.432,5.432,0,0,1,4.718,46.3q-.031-17.732,0-35.464A5.446,5.446,0,0,1,10.457,5.1c3.41-.025,6.821,0,10.232-.009,2.114-.006,2.9-.64,3.432-2.728h6.752c.416.256.483.748.745,1.109A2.284,2.284,0,0,0,35.7,3.323c.209-.34.284-.774.7-.963h5.933" transform="translate(0.748 0.375)" fill="#fec56c"/>
    <path id="Trazado_128534" data-name="Trazado 128534" d="M109.86,88.349c-1.056,1.976-.932,2.8.7,4.443,2.6,2.606,5.234,5.169,7.79,7.814a3.771,3.771,0,0,1-1.7,6.443,3.914,3.914,0,0,1-3.913-1.334q-7.888-7.909-15.793-15.8c-1.38-1.38-2.741-2.782-4.149-4.132-.5-.48-.589-.782,0-1.263a38.989,38.989,0,0,0,6.339-6.889q2.159,2.09,4.319,4.183c.18.431-.105.775-.225,1.145a2.342,2.342,0,0,0,.578,2.475,2.207,2.207,0,0,0,2.359.518c.374-.108.728-.385,1.149-.154l2.543,2.553" transform="translate(14.695 12.348)" fill="#fe5d5d"/>
    <path id="Trazado_128535" data-name="Trazado 128535" d="M105.9,85.31c-1.939,1.034-3.4.792-4.247-.693a2.89,2.89,0,0,1,.386-3.291c2.116-1.223,4.025-.661,4.566,1.327a3.209,3.209,0,0,1-.7,2.657" transform="translate(16.111 12.833)" fill="#020101"/>
    <path id="Trazado_128536" data-name="Trazado 128536" d="M32.81,2.732c-.483,1.826-1.455,2.756-2.833,2.713-1.355-.043-2.245-.939-2.7-2.713C27.737.96,28.626.066,29.977.024c1.377-.043,2.349.887,2.833,2.708" transform="translate(4.339 0.004)" fill="#010101"/>
    <path id="Trazado_128537" data-name="Trazado 128537" d="M47.091,64.371a30.017,30.017,0,1,1,30,30.031,30.12,30.12,0,0,1-30-30.031" transform="translate(7.49 5.468)" fill="#fefefe"/>
    <path id="Trazado_128538" data-name="Trazado 128538" d="M34.309,27.087c1.318-2.747,2.626-5.488,3.949-8.221a6.633,6.633,0,0,1,.758-1.285,2.474,2.474,0,0,1,3.026-.869,2.593,2.593,0,0,1,1.728,2.776,4.948,4.948,0,0,1-.561,1.667Q40.14,27.529,37.1,33.916c-.581,1.225-1.335,2.207-2.819,2.2-1.413-.009-2.162-.948-2.75-2.108-1.431-2.817-2.9-5.616-4.474-8.657-1.343,2.779-2.574,5.329-3.809,7.879-.238.489-.451.994-.734,1.456a2.624,2.624,0,0,1-4.674.076c-2.57-4.745-5.025-9.554-7.443-14.378a2.614,2.614,0,0,1,1.215-3.591,2.7,2.7,0,0,1,3.681,1.343c1.345,2.47,2.6,4.99,3.891,7.486.249.479.516.949.879,1.615l3.694-7.642c.178-.367.37-.729.531-1.1A2.831,2.831,0,0,1,26.952,16.5a2.97,2.97,0,0,1,2.7,1.967c1.277,2.506,2.587,4.994,3.89,7.486.206.394.3.865.771,1.129" transform="translate(1.605 2.624)"/>
    <path id="Trazado_128539" data-name="Trazado 128539" d="M52.27,63.437a24.014,24.014,0,1,1,23.885,24.14A24.1,24.1,0,0,1,52.27,63.437" transform="translate(8.314 6.292)"/>
    <path id="Trazado_128540" data-name="Trazado 128540" d="M75.5,81.37A18.552,18.552,0,1,1,94.09,62.852,18.622,18.622,0,0,1,75.5,81.37" transform="translate(9.063 7.041)" fill="#72d7fe"/>
    <path id="Trazado_128541" data-name="Trazado 128541" d="M73.664,49.693a12.387,12.387,0,0,1,11.962,11.97,2.72,2.72,0,1,1-5.419.461c-.737-4.754-2.236-6.252-7.023-7.016a2.777,2.777,0,0,1-2.526-2.873,2.807,2.807,0,0,1,3.005-2.542" transform="translate(11.238 7.904)"/>
  </g>
</svg>
