<svg xmlns="http://www.w3.org/2000/svg" xmlns:xlink="http://www.w3.org/1999/xlink" width="129.404" height="196.026" viewBox="0 0 129.404 196.026">
  <defs>
    <clipPath id="clip-path">
      <rect id="Rectángulo_37494" data-name="Rectángulo 37494" width="19.422" height="25.143" fill="none"/>
    </clipPath>
    <clipPath id="clip-path-3">
      <rect id="Rectángulo_37496" data-name="Rectángulo 37496" width="5.278" height="2.471" fill="none"/>
    </clipPath>
    <clipPath id="clip-path-4">
      <rect id="Rectángulo_37497" data-name="Rectángulo 37497" width="10.736" height="2.682" fill="none"/>
    </clipPath>
    <clipPath id="clip-path-5">
      <rect id="Rectángulo_37498" data-name="Rectángulo 37498" width="34.079" height="52.355" fill="none"/>
    </clipPath>
    <clipPath id="clip-path-6">
      <rect id="Rectángulo_37499" data-name="Rectángulo 37499" width="65.074" height="44.868" fill="none"/>
    </clipPath>
    <clipPath id="clip-path-7">
      <rect id="Rectángulo_37500" data-name="Rectángulo 37500" width="62.272" height="43.158" fill="none"/>
    </clipPath>
  </defs>
  <g id="Grupo_157854" data-name="Grupo 157854" transform="translate(0 0)">
    <g id="Grupo_157851" data-name="Grupo 157851">
      <g id="Grupo_157855" data-name="Grupo 157855">
        <path id="Trazado_130040" data-name="Trazado 130040" d="M119.111,4.1S100.13-.048,90.763,3.119s-16.99,13.4-15.535,31.722S77.495,71.3,68.82,85.21c-8.792,14.1.935,20.877,9.692,27.67S114.7,90.55,114.7,90.55Z" transform="translate(-28.778 -0.849)" fill="#6b1536"/>
        <path id="Trazado_130041" data-name="Trazado 130041" d="M112.088,3.983a55.312,55.312,0,0,0-6.165-1.236,53.294,53.294,0,0,0-7.17-.61,36.314,36.314,0,0,0-4.4.207,23.881,23.881,0,0,0-4.752.969,20.216,20.216,0,0,0-8.95,5.932,26.756,26.756,0,0,0-5.52,10.693,43.326,43.326,0,0,0-1.281,12.948c.264,4.464.609,9.067.734,13.651a126.185,126.185,0,0,1-.319,13.721,67.35,67.35,0,0,1-2.323,13.122,42.925,42.925,0,0,1-5.105,11.383,28.7,28.7,0,0,0-2.666,4.97,15.3,15.3,0,0,0-1.141,5.076,12.236,12.236,0,0,0,.743,4.708,15.96,15.96,0,0,0,2.082,3.826,33.59,33.59,0,0,0,4.915,5.222c1.5,1.319,2.715,2.324,3.541,3.01l1.267,1.051-1.309-1c-.85-.655-2.115-1.594-3.658-2.878a33.931,33.931,0,0,1-5.13-5.128A16.5,16.5,0,0,1,63.2,99.734a12.566,12.566,0,0,1-.886-4.943,16.049,16.049,0,0,1,1.093-5.347,29.676,29.676,0,0,1,2.645-5.168,44.526,44.526,0,0,0,4.829-11.2,66.184,66.184,0,0,0,2.2-12.914,124.863,124.863,0,0,0,.231-13.59q-.094-3.422-.275-6.837c-.108-2.28-.284-4.52-.379-6.8a44.407,44.407,0,0,1,1.4-13.284,30.019,30.019,0,0,1,2.351-5.979,24.648,24.648,0,0,1,3.54-5.044,21.039,21.039,0,0,1,9.428-6,28.612,28.612,0,0,1,9.382-.967,53.613,53.613,0,0,1,7.2.84c1.976.358,3.5.751,4.542,1.025s1.582.456,1.582.456" transform="translate(-27.435 -0.717)" fill="#6b1536"/>
        <path id="Trazado_130042" data-name="Trazado 130042" d="M108.944,115.364s3.378,15.621-3.8,19-22.8,3.8-26.176,14.777,34.62,19,44.753,16.888,35.464-8.444,30.82-17.31-25.754-7.6-25.331-19.421-.845-27.865-.845-27.865Z" transform="translate(-34.676 -44.659)" fill="#ffb99a"/>
        <path id="Trazado_130043" data-name="Trazado 130043" d="M132.093,130.366c8.238-3.2,14.864-9.455,20.474-16.283-.274-7.035-.718-12.651-.718-12.651l-19.421,13.932s1.984,9.2-.335,15" transform="translate(-58.159 -44.659)" fill="#e09577"/>
        <path id="Trazado_130044" data-name="Trazado 130044" d="M116.71,20.231s-19.323.245-23.471,23.239S99.214,84,111.971,84.259s26.364-9.638,27.915-28.369-4.439-35.254-23.177-35.659" transform="translate(-40.637 -8.907)" fill="#ffb99a"/>
        <path id="Trazado_130045" data-name="Trazado 130045" d="M118.778,70.965a3.408,3.408,0,0,0-1.86-.993,3.853,3.853,0,0,0-2.57.569,3.988,3.988,0,0,1,.18,1.232l0-.4a2.939,2.939,0,0,1,2.1-.657,2.831,2.831,0,0,1,1.85,1.544l.375.338a4.014,4.014,0,0,1-.072-1.637" transform="translate(-50.346 -30.789)" fill="#1b262c"/>
        <g id="Grupo_157831" data-name="Grupo 157831" transform="translate(44.966 26.641)" opacity="0.4">
          <g id="Grupo_157830" data-name="Grupo 157830">
            <g id="Grupo_157829" data-name="Grupo 157829" clip-path="url(#clip-path)">
              <path id="Trazado_130046" data-name="Trazado 130046" d="M80.338,60.271c.073,6.943,4.479,12.526,9.841,12.469s9.651-5.73,9.578-12.673S95.279,47.542,89.917,47.6s-9.651,5.73-9.578,12.673" transform="translate(-80.337 -47.597)" fill="#fff"/>
            </g>
          </g>
        </g>
        <g id="Grupo_157834" data-name="Grupo 157834" transform="translate(68.066 27.035)" opacity="0.4">
          <g id="Grupo_157833" data-name="Grupo 157833">
            <g id="Grupo_157832" data-name="Grupo 157832" clip-path="url(#clip-path)">
              <path id="Trazado_130047" data-name="Trazado 130047" d="M121.609,60.975c.073,6.943,4.479,12.526,9.841,12.469s9.651-5.73,9.578-12.672-4.479-12.526-9.841-12.47-9.651,5.73-9.578,12.673" transform="translate(-121.609 -48.302)" fill="#fff"/>
            </g>
          </g>
        </g>
        <path id="Trazado_130048" data-name="Trazado 130048" d="M79.516,60.1c.081,4.728,2.218,10.1,6.865,12.045,4.256,1.781,8.761-.345,11.17-4.032a15.623,15.623,0,0,0,.759-15.04c-1.976-3.976-6.075-6.882-10.637-5.714-5.516,1.413-8.176,7.5-8.156,12.74,0,.413.922.232.921-.1-.017-4.374,1.728-9.45,5.868-11.557,3.968-2.021,8.2.235,10.423,3.706a15.352,15.352,0,0,1,.991,14.005c-1.658,3.8-5.391,7.037-9.764,5.817C82.917,70.565,80.519,64.8,80.437,60c-.007-.414-.927-.231-.921.1" transform="translate(-35.01 -20.738)" fill="#1b262c"/>
        <path id="Trazado_130049" data-name="Trazado 130049" d="M120.706,61c.081,4.748,2.3,10.159,7.012,12.018,4.275,1.688,8.775-.547,11.116-4.25a15.608,15.608,0,0,0,.577-15.038c-2.031-3.945-6.178-6.727-10.7-5.466-5.454,1.522-8.024,7.5-8,12.736,0,.271.919.1.917-.246-.017-4.4,1.8-9.519,5.988-11.58,4.013-1.975,8.24.462,10.4,3.949a15.429,15.429,0,0,1,.866,13.939c-1.687,3.86-5.556,7.1-9.962,5.688-4.929-1.577-7.212-7.224-7.294-12,0-.274-.924-.1-.917.246" transform="translate(-53.145 -21.114)" fill="#1b262c"/>
        <path id="Trazado_130050" data-name="Trazado 130050" d="M112.121,84.245a3.834,3.834,0,0,1-1-.22c-.158-.048-.3-.12-.449-.18a4.63,4.63,0,0,1-.425-.213,6.329,6.329,0,0,1-1.49-1.147l-.31-.323.125-.295c1.23-2.9,2.492-5.791,3.9-8.623-.865,3.044-1.877,6.03-2.922,9l-.185-.617a6.317,6.317,0,0,1,1.567,1.041,4.53,4.53,0,0,1,.339.334c.1.123.218.233.315.367a3.834,3.834,0,0,1,.53.874" transform="translate(-47.749 -32.248)" fill="#af593c"/>
        <g id="Grupo_157837" data-name="Grupo 157837" transform="translate(61.519 49.553)" opacity="0.5">
          <g id="Grupo_157836" data-name="Grupo 157836">
            <g id="Grupo_157835" data-name="Grupo 157835" clip-path="url(#clip-path-3)">
              <path id="Trazado_130051" data-name="Trazado 130051" d="M109.911,88.532l5.278,2.083L112.614,91Z" transform="translate(-109.911 -88.532)" fill="#af593c"/>
            </g>
          </g>
        </g>
        <path id="Trazado_130052" data-name="Trazado 130052" d="M108.424,105.428s.275.081.754.2,1.163.289,1.975.474c.411.076.849.181,1.318.258l.718.127c.248.026.5.068.752.1.507.1,1.039.1,1.571.169.534.034,1.079.06,1.619.059l.81-.015.4-.007.4-.045a13,13,0,0,0,1.545-.2c.249-.045.491-.1.734-.135s.465-.128.69-.187a9.688,9.688,0,0,0,1.256-.4c.378-.158.736-.29,1.054-.412.293-.163.559-.3.779-.408.44-.223.705-.344.705-.344s-.195.2-.559.549c-.183.172-.405.385-.673.617-.287.2-.618.421-.989.653a6.762,6.762,0,0,1-1.258.64c-.232.1-.465.218-.716.3s-.514.146-.779.221a9.581,9.581,0,0,1-1.661.33l-.432.059-.435.021-.876.037c-.583-.014-1.165-.057-1.735-.109a16.123,16.123,0,0,1-1.65-.29c-.264-.062-.524-.116-.776-.184l-.728-.228c-.476-.134-.906-.326-1.306-.481a12.264,12.264,0,0,1-2.511-1.367" transform="translate(-47.738 -46.082)" fill="#af593c"/>
        <g id="Grupo_157840" data-name="Grupo 157840" transform="translate(65.064 61.839)" opacity="0.5">
          <g id="Grupo_157839" data-name="Grupo 157839">
            <g id="Grupo_157838" data-name="Grupo 157838" clip-path="url(#clip-path-4)">
              <path id="Trazado_130053" data-name="Trazado 130053" d="M116.246,111.387l.492.1c.309.061.747.138,1.264.215.258.041.538.072.831.108s.6.041.917.081c.318,0,.643.036.972.029s.663,0,.993-.036a8.188,8.188,0,0,0,.986-.1c.328-.029.638-.115.947-.173a9.053,9.053,0,0,0,.882-.224,7.362,7.362,0,0,0,.788-.257c.238-.1.481-.152.674-.242s.371-.16.516-.221c.293-.119.474-.179.474-.179s-.11.146-.327.384c-.109.118-.241.266-.4.424a4.891,4.891,0,0,1-.592.475,3.989,3.989,0,0,1-.764.487,5.693,5.693,0,0,1-.925.428,6.2,6.2,0,0,1-1.051.306l-.555.106c-.187.027-.377.034-.565.051a7.293,7.293,0,0,1-1.128,0A9.08,9.08,0,0,1,119.6,113a8.687,8.687,0,0,1-.973-.272,5.937,5.937,0,0,1-.835-.334,6.468,6.468,0,0,1-.669-.353c-.192-.119-.355-.226-.484-.326a3.048,3.048,0,0,1-.39-.326" transform="translate(-116.246 -110.483)" fill="#af593c"/>
            </g>
          </g>
        </g>
        <path id="Trazado_130054" data-name="Trazado 130054" d="M95.242,71.814l.153.609c.058.188.115.41.207.663a8.511,8.511,0,0,0,.332.818,6.888,6.888,0,0,0,.5.882,5.038,5.038,0,0,0,.694.831,3.216,3.216,0,0,0,.889.616,2.042,2.042,0,0,0,.5.175c.086.012.17.04.256.044l.129.006.065,0,.032,0h.029c-.018,0,.047,0-.041,0l.336-.019c.109-.007.153-.033.235-.043a2.092,2.092,0,0,0,.485-.172,3.28,3.28,0,0,0,.888-.617,5.106,5.106,0,0,0,.693-.83,8.133,8.133,0,0,0,.5-.882,8.653,8.653,0,0,0,.332-.818c.092-.251.15-.479.208-.667.1-.385.153-.6.153-.6l.029.162a4.671,4.671,0,0,1,.069.464,5.1,5.1,0,0,1,.017.733,4.895,4.895,0,0,1-.118.958,4.808,4.808,0,0,1-.359,1.107,4.419,4.419,0,0,1-.706,1.136,3.712,3.712,0,0,1-1.155.949,3.24,3.24,0,0,1-.758.294c-.138.03-.309.072-.423.082l-.335.029H99l-.026,0-.051,0-.1-.008-.205-.018a3.933,3.933,0,0,1-.4-.082,3.28,3.28,0,0,1-.747-.291,3.748,3.748,0,0,1-1.154-.95,4.44,4.44,0,0,1-.706-1.136,4.839,4.839,0,0,1-.36-1.107,4.931,4.931,0,0,1-.118-.958,5.169,5.169,0,0,1,.017-.737c.013-.2.055-.353.069-.46l.029-.162" transform="translate(-41.88 -31.619)" fill="#1b262c"/>
        <path id="Trazado_130055" data-name="Trazado 130055" d="M133.762,74.62l.153.608c.058.189.115.411.207.663a8.428,8.428,0,0,0,.332.818,6.853,6.853,0,0,0,.5.882,5.038,5.038,0,0,0,.694.831,3.209,3.209,0,0,0,.889.616,2.043,2.043,0,0,0,.5.175c.086.012.17.04.256.044l.129.006.065,0,.032,0h.029c-.018,0,.047,0-.041,0l.336-.019c.109-.008.153-.033.234-.043a2.067,2.067,0,0,0,.485-.172,3.266,3.266,0,0,0,.888-.616,5.083,5.083,0,0,0,.694-.831,4.445,4.445,0,0,0,.269-.443,4.521,4.521,0,0,0,.229-.438,8.532,8.532,0,0,0,.332-.818c.092-.251.15-.478.208-.667.1-.385.153-.6.153-.6s.01.056.029.162a4.663,4.663,0,0,1,.069.464,5.105,5.105,0,0,1,.017.733,4.886,4.886,0,0,1-.118.958,4.8,4.8,0,0,1-.359,1.108,4.419,4.419,0,0,1-.706,1.136,3.712,3.712,0,0,1-1.155.949,3.249,3.249,0,0,1-.758.294c-.138.03-.309.072-.423.082l-.335.029h-.071l-.026,0-.051,0-.1-.008-.205-.018a3.932,3.932,0,0,1-.4-.082,3.307,3.307,0,0,1-.747-.291,3.748,3.748,0,0,1-1.154-.95,4.458,4.458,0,0,1-.706-1.136,4.864,4.864,0,0,1-.359-1.107,4.932,4.932,0,0,1-.118-.958,5.17,5.17,0,0,1,.017-.737c.013-.2.055-.353.069-.46l.029-.162" transform="translate(-58.84 -32.854)" fill="#1b262c"/>
        <path id="Trazado_130056" data-name="Trazado 130056" d="M129.167,11.916s14.954-1.093,16.843,12.769-13.187,54.686,2.268,64.771,18.8,6.581,33.1,14.6c0,0,6.559-11.309,1.013-17.188s-10.422-10.944-8.631-22.858,8.208-47.913-7.439-57.566-35.691-8.967-37.157,5.468" transform="translate(-56.871 0)" fill="#851d41"/>
        <path id="Trazado_130057" data-name="Trazado 130057" d="M192.4,143c-4.247-4.5-8.1-8.529-8.865-15.515a23.285,23.285,0,0,1-11.469,8.57,27.028,27.028,0,0,1-20.177-1.614c.9,4.873,2.839,8.824,6.4,11.144,15.455,10.085,18.8,6.581,33.1,14.6,0,0,6.559-11.308,1.013-17.188" transform="translate(-66.873 -56.13)" fill="#6b1536"/>
        <path id="Trazado_130058" data-name="Trazado 130058" d="M129.167,21.1a13.442,13.442,0,0,1,1.408-.187,18.291,18.291,0,0,1,4.039.132A14.207,14.207,0,0,1,140.6,23.3a12.394,12.394,0,0,1,4.847,6.87,11.12,11.12,0,0,1,.294,1.142,11.013,11.013,0,0,1,.221,1.178,15.636,15.636,0,0,1,.21,2.448,39.623,39.623,0,0,1-.266,5.024c-.369,3.4-1.019,6.913-1.719,10.529S142.71,57.823,142,61.608s-1.335,7.641-1.76,11.516a60.538,60.538,0,0,0-.28,11.574,27.151,27.151,0,0,0,1.016,5.534,15.373,15.373,0,0,0,2.388,4.862,11.773,11.773,0,0,0,1.833,1.893c.333.276.688.532,1.059.794s.724.524,1.088.763a44.35,44.35,0,0,0,4.4,2.668,36.973,36.973,0,0,0,8.825,3.264c2.851.678,5.518,1.148,7.824,1.8a36.784,36.784,0,0,1,5.814,2.141c1.557.729,2.72,1.417,3.517,1.875l1.2.739-1.215-.715c-.805-.442-1.981-1.1-3.548-1.8a36.613,36.613,0,0,0-5.83-2.012c-2.307-.606-4.969-1.018-7.853-1.641a37.462,37.462,0,0,1-9.008-3.124,45.111,45.111,0,0,1-4.52-2.618c-.38-.239-.743-.493-1.112-.746s-.744-.507-1.113-.8a12.588,12.588,0,0,1-2-1.988,16.232,16.232,0,0,1-2.623-5.085A28.112,28.112,0,0,1,138.94,84.8a63.053,63.053,0,0,1,.047-11.794c.323-3.934.873-7.837,1.461-11.662s1.235-7.576,1.867-11.191c.311-1.808.607-3.586.87-5.325s.522-3.436.7-5.086a40.6,40.6,0,0,0,.3-4.773,16.5,16.5,0,0,0-.151-2.208,9.588,9.588,0,0,0-.164-1.061,9.5,9.5,0,0,0-.229-1.023,12.841,12.841,0,0,0-1.544-3.6,11.251,11.251,0,0,0-2.359-2.629,14.522,14.522,0,0,0-5.3-2.6,21.724,21.724,0,0,0-3.871-.682,13.429,13.429,0,0,0-1.407-.071" transform="translate(-56.871 -9.182)" fill="#851d41"/>
        <path id="Trazado_130059" data-name="Trazado 130059" d="M40.1,264.813S51.537,300,65.815,300s5.949-52.354,5.949-52.354Z" transform="translate(-17.656 -109.034)" fill="#ff6464"/>
        <g id="Grupo_157843" data-name="Grupo 157843" transform="translate(22.444 138.609)" opacity="0.8">
          <g id="Grupo_157842" data-name="Grupo 157842">
            <g id="Grupo_157841" data-name="Grupo 157841" clip-path="url(#clip-path-5)">
              <path id="Trazado_130060" data-name="Trazado 130060" d="M40.1,264.813S51.537,300,65.815,300s5.949-52.354,5.949-52.354Z" transform="translate(-40.1 -247.643)" fill="#ba3a3a"/>
            </g>
          </g>
        </g>
        <path id="Trazado_130061" data-name="Trazado 130061" d="M74.169,278.242a212.282,212.282,0,0,0-2.405-30.6L40.1,264.812s1.4,4.3,3.825,9.891q15.089,2.069,30.244,3.54" transform="translate(-17.656 -109.034)" fill="#ba3a3a"/>
        <path id="Trazado_130063" data-name="Trazado 130063" d="M79.884,307.444c4.112,2.82,9.116,4.211,13.981,5.074,10.33,1.832,21.123,1.764,31.589,1.773a111.037,111.037,0,0,0,30.124-4.285c-.681-.937-1.385-1.872-2.123-2.8-41.8-52.563-70.506-6.333-70.506-6.333a56.106,56.106,0,0,0-4.742,5.308c.542.44,1.1.864,1.678,1.262" transform="translate(-34.433 -124.197)" fill="#151f23"/>
        <path id="Trazado_130066" data-name="Trazado 130066" d="M188.185,334.57s.627,1.081,1.575,3.2" transform="translate(-82.855 -147.307)" fill="none" stroke="#2e4149" stroke-miterlimit="10" stroke-width="1.063"/>
        <path id="Trazado_130071" data-name="Trazado 130071" d="M79.83,169.32s20.688,14.355,50.241,0c0,0,20.688,2.111,23.643,13.088s-5.066,50.241-15.621,66.707c0,0-27.443,13.088-62.063,2.111V234.76S63.3,223.946,62.519,206.051c-.422-9.711,4.222-30.4,17.31-36.731" transform="translate(-27.515 -74.549)" fill="#ff6464"/>
        <path id="Trazado_130072" data-name="Trazado 130072" d="M124.7,233.031a63.861,63.861,0,0,1-33.273,4.995,63.34,63.34,0,0,1-28.4-11.395,43.164,43.164,0,0,0,13.237,25.5v16.466c34.62,10.977,62.063-2.111,62.063-2.111,8.546-13.332,15.431-41.61,16.173-57.717a71.49,71.49,0,0,1-29.8,24.265" transform="translate(-27.751 -91.917)" fill="#e04c4c"/>
        <g id="Grupo_157846" data-name="Grupo 157846" transform="translate(59.014 136.191)" opacity="0.5">
          <g id="Grupo_157845" data-name="Grupo 157845">
            <g id="Grupo_157844" data-name="Grupo 157844" clip-path="url(#clip-path-6)">
              <path id="Trazado_130073" data-name="Trazado 130073" d="M164.565,249.391c-9.443,9.111-18.794,18.642-29.884,25.787a76.236,76.236,0,0,1-29.244,11.3C134.945,292.212,157,281.7,157,281.7c5.673-8.85,10.612-24.284,13.51-38.374-1.887,2.14-3.946,4.139-5.945,6.068" transform="translate(-105.436 -243.323)" fill="#ba3a3a"/>
            </g>
          </g>
        </g>
        <path id="Trazado_130074" data-name="Trazado 130074" d="M2.826,164.429s2.8-.778,4.353.525,7.507,17.814,6.255,22.1S2.826,164.429,2.826,164.429" transform="translate(-1.244 -72.294)" fill="#c4cace"/>
        <path id="Trazado_130075" data-name="Trazado 130075" d="M7.621,161.514s3.244,1.152,3.915,2.894,7.21,21.979,7.21,21.979l-3.626-.454s-3.242-18.556-7.5-24.419" transform="translate(-3.355 -71.113)" fill="#d9dbdd"/>
        <path id="Trazado_130076" data-name="Trazado 130076" d="M11.625,160.776S17.9,173.963,16.913,185.3l4.336-1.469s-4.787-17.761-9.623-23.051" transform="translate(-5.118 -70.788)" fill="#e8ebed"/>
        <path id="Trazado_130077" data-name="Trazado 130077" d="M21.072,200.526s8.677-7.341,42.372-4.508l18.663,45.625L68.9,241.627Z" transform="translate(-9.278 -86.018)" fill="#fff"/>
        <path id="Trazado_130078" data-name="Trazado 130078" d="M21.072,201.7s8.764-5.684,41.589-2.907l18.98,45.325-12.862-.071Z" transform="translate(-9.278 -87.188)" fill="#e8ebed"/>
        <path id="Trazado_130079" data-name="Trazado 130079" d="M21.072,202.791s8.394-4.057,40.367-1.347l18.536,43.648-12.528-.082Z" transform="translate(-9.278 -88.282)" fill="#d9dbdd"/>
        <path id="Trazado_130080" data-name="Trazado 130080" d="M21.072,203.789s8.077-2.425,39.41.238l18.242,41.986-12.276-.1Z" transform="translate(-9.278 -89.281)" fill="#c4cace"/>
        <path id="Trazado_130081" data-name="Trazado 130081" d="M21.072,204.584l38.755.385,19.714,43.42-42.407.521Z" transform="translate(-9.278 -90.076)" fill="#1b262c"/>
        <path id="Trazado_130082" data-name="Trazado 130082" d="M1.327,161.569l10.468,24.076,16.062,44.326-2.56-1.715L0,162.28Z" transform="translate(0 -71.137)" fill="#151f23"/>
        <path id="Trazado_130083" data-name="Trazado 130083" d="M32.94,253.3l.827,1.745s10.991-1.542,11.779-1.278c5.153,1.724-9.184,3.934-9.184,3.934s11.711-.9,12.356-.006c1.282,1.772-11.312,3.766-11.312,3.766s11.7-.836,11.239.362c-.491,1.281-8.732,2.563-8.732,2.563s-2.274,3.7-3.812,2.866c0,0-3.689.614-2.544-3.251,0,0-2.9-1.975-2.294-4.895,0,0-1.08-3.992,1.676-5.8" transform="translate(-13.673 -111.525)" fill="#ffb99a"/>
        <path id="Trazado_130084" data-name="Trazado 130084" d="M43.425,273.053s8.083-.588,8.391.158C52.67,275.283,40.1,275.9,40.1,275.9Z" transform="translate(-17.656 -120.125)" fill="#ffb99a"/>
        <path id="Trazado_130085" data-name="Trazado 130085" d="M82.595,259.188s13.3,4.433,15.389,6.454c1.444,1.4-.3,9.451-2.321,9.9s-5.314,4.282-6.394,4.046-2.689,2.777-4.3,2.331-7.2-10.468-2.5-9.866c0,0-3.23-5.206,2.3-2.924,0,0-4.4-5.13,2.472-4.236,0,0-16.373-7.749-4.644-5.7" transform="translate(-34.502 -113.965)" fill="#ffb99a"/>
        <path id="Trazado_130086" data-name="Trazado 130086" d="M103.176,270.991l2.2,9.03,29.06,13.014s35.676,27.232,6.544,19.843S97.5,289.657,97.5,289.657l-7.342-2.394Z" transform="translate(-39.695 -119.314)" fill="#ffb99a"/>
        <g id="Grupo_157849" data-name="Grupo 157849" transform="translate(50.462 151.677)" opacity="0.5">
          <g id="Grupo_157848" data-name="Grupo 157848">
            <g id="Grupo_157847" data-name="Grupo 157847" clip-path="url(#clip-path-7)">
              <path id="Trazado_130087" data-name="Trazado 130087" d="M103.176,270.991l2.2,9.03,29.06,13.014s35.676,27.232,6.544,19.843S97.5,289.657,97.5,289.657l-7.342-2.394Z" transform="translate(-90.156 -270.991)" fill="#e09577"/>
            </g>
          </g>
        </g>
        <path id="Trazado_130088" data-name="Trazado 130088" d="M148.166,302.9l-21.215-9.5c-1.737,4.881-3.469,9.766-5.62,14.474a103.609,103.609,0,0,0,33.379,14.871c29.131,7.388-6.544-19.843-6.544-19.843" transform="translate(-53.42 -129.181)" fill="#e09577"/>
        <path id="Trazado_130089" data-name="Trazado 130089" d="M153.621,211.063s11.221-29.656,21.506-28.367,9.351,26.647,5.61,55.444c-3.253,25.049-1.87,37.393-16.831,38.252s-33.165-8.529-41.4-15.5c0,0,5.774-8.834,8.022-16.255,0,0,13.74,5.532,17.481,5.532,0,0-1.871-3.009,1.87-3.009s-1.87-19.771,3.74-36.1" transform="translate(-53.939 -80.421)" fill="#ff6464"/>
      </g>
    </g>
  </g>
</svg>
