<svg xmlns="http://www.w3.org/2000/svg" xmlns:xlink="http://www.w3.org/1999/xlink" width="85" height="85" viewBox="0 0 85 85">
  <defs>
    <clipPath id="clip-path">
      <rect id="Rectángulo_37355" data-name="Rectángulo 37355" width="49.325" height="49.324" fill="none"/>
    </clipPath>
  </defs>
  <g id="Grupo_157488" data-name="Grupo 157488" transform="translate(-9880 10462)">
    <circle id="Elipse_4847" data-name="Elipse 4847" cx="42.5" cy="42.5" r="42.5" transform="translate(9880 -10462)" fill="#3c3fa7"/>
    <g id="Grupo_157487" data-name="Grupo 157487" transform="translate(9897.557 -10444.443)">
      <g id="Grupo_157486" data-name="Grupo 157486" clip-path="url(#clip-path)">
        <path id="Trazado_128512" data-name="Trazado 128512" d="M49.246,82.688a4.906,4.906,0,0,1-4.564,4.2c-.176.009-.353.009-.529.009-11.893,0-23.787.035-35.681-.023A7.971,7.971,0,0,1,1.08,82.67,9.276,9.276,0,0,1,.037,77.363C.2,75.218,1.555,74,3.492,73.313a14.315,14.315,0,0,1,3.176-.473,13.833,13.833,0,0,0,2.591-.489,2.078,2.078,0,0,1,.571-.243,27.878,27.878,0,0,0,6.312-2.687c.4-.237.4-.24.006-.511-.649-.45-.812-.961-.46-1.44a.876.876,0,0,1,1.144-.311,10.412,10.412,0,0,1,1.209.693.518.518,0,0,0,.66-.03c.342-.265.71-.5,1.063-.745.258-.182.227-.309-.021-.451-.153-.087-.306-.175-.452-.276a.9.9,0,0,1-.355-1.281.952.952,0,0,1,1.3-.32,11.314,11.314,0,0,1,1.034.613.567.567,0,0,0,.781-.066,6.724,6.724,0,0,1,.58-.506c.179-.134.153-.258-.029-.371-.286-.178-.582-.339-.863-.524a.977.977,0,0,1-.355-1.3.9.9,0,0,1,1.253-.333,8.833,8.833,0,0,1,1.246.726.552.552,0,0,0,.8-.068c.045-.045-.013.01.038-.03.821-.651.821-.652-.08-1.193a2.476,2.476,0,0,1-.715-.561.822.822,0,0,1-.03-1.064.878.878,0,0,1,1.013-.348,6.632,6.632,0,0,1,1.427.79.533.533,0,0,0,.824-.127c.235-.3.51-.576.756-.871a2.692,2.692,0,0,1,1.571-.954,3.047,3.047,0,0,1,2.322.611c.351.223.715.428,1.067.65a2.609,2.609,0,0,1,1.1,3.331c-.4,1-.832,1.979-1.266,2.96-.158.356-.066.493.291.551a6.347,6.347,0,0,0,.894.177,24.747,24.747,0,0,0,4.987.275,1.057,1.057,0,0,0,.758-.356,10.741,10.741,0,0,0,2.6-4.384c.064-.2.125-.4.175-.6a2.643,2.643,0,0,1,2.426-2.133,4.725,4.725,0,0,1,1.862.109A2.485,2.485,0,0,1,48.6,62.232q.005,7.844,0,15.688a1.375,1.375,0,0,0,.432,1.255c.245.189.2.527.3.791v2.215c-.113.155,0,.346-.079.506" transform="translate(0 -37.587)"/>
        <path id="Trazado_128513" data-name="Trazado 128513" d="M43.257,0a4.847,4.847,0,0,1,2.11,1.476q5.364,5.385,10.748,10.751a.64.64,0,0,0,.618.24,1.329,1.329,0,0,1,1.113.352,14.074,14.074,0,0,1,1.769,1.83,4.768,4.768,0,0,1-.234,6.113c-2.156,2.285-4.42,4.469-6.644,6.69a.821.821,0,0,1-1.1.08.785.785,0,0,1-.249-1.153,2.967,2.967,0,0,1,.449-.5q2.942-2.943,5.884-5.885a3.18,3.18,0,0,0-.011-4.845c-.181-.182-.361-.364-.544-.544-.371-.364-.385-.367-.764.011q-2.911,2.906-5.819,5.815a.93.93,0,0,1-1.434.127,1.03,1.03,0,0,1,.1-1.432c.459-.493.948-.958,1.425-1.435q1.889-1.891,3.779-3.78c.411-.412.411-.44.009-.844-.759-.762-1.526-1.516-2.278-2.285a.871.871,0,0,0-.81-.285,23.008,23.008,0,0,1-2.769.324,2.325,2.325,0,0,1-1.691-.681,7.06,7.06,0,0,0-.664-.628.713.713,0,0,0-1.04.021,17.505,17.505,0,0,0-2.082,2.194,26.681,26.681,0,0,1-4.147,3.864.755.755,0,0,0-.3.27,12.918,12.918,0,0,0,4.093-1.021,29.233,29.233,0,0,0,3.042-1.654,1.893,1.893,0,0,1,2.208.149,2.039,2.039,0,0,1,.73,2.276c-.149.492-.352.965-.519,1.45-.2.591-.429,1.176-.657,1.759a.951.951,0,0,1-1.339.618A.968.968,0,0,1,45.84,18.1c.274-.822.6-1.625.9-2.438.039-.105.077-.211.105-.32.036-.136.128-.3,0-.407-.156-.132-.3.016-.43.1a18.74,18.74,0,0,1-4.145,2.021,10.847,10.847,0,0,1-6.015.455A1.848,1.848,0,0,1,34.8,16.279c-.47-1.246-.951-2.489-1.491-3.707-.3-.682-.517-.781-1.246-.607-.484.115-.971.222-1.445.373a.75.75,0,0,0-.62.851c0,.354.106.7.1,1.054-.006.22.118.273.316.225a3.7,3.7,0,0,1,.66-.135,1.033,1.033,0,0,1,1.089.759.989.989,0,0,1-.7,1.078,8.671,8.671,0,0,1-.931.245.5.5,0,0,0-.441.585c0,.032,0,.064,0,.1-.016.886-.016.886.84.739a.991.991,0,0,1,1.206.692.932.932,0,0,1-.671,1.119,6.515,6.515,0,0,1-.973.273.565.565,0,0,0-.5.61.182.182,0,0,1,0,.048c-.051.956-.051.956.871.761a.976.976,0,0,1,1.243.683.949.949,0,0,1-.765,1.145,9.852,9.852,0,0,1-1.165.3.549.549,0,0,0-.511.538c-.057.429-.137.856-.212,1.282-.045.253.05.323.289.258a3.108,3.108,0,0,1,.8-.143.917.917,0,0,1,.341,1.791,9.8,9.8,0,0,1-1.351.35.8.8,0,0,0-.684.695,31.937,31.937,0,0,1-1.074,3.6,1.244,1.244,0,0,1-.526.779c-.266.135-.558.291-.822-.026-.505-.383-.591-.618-.385-1.194a30.477,30.477,0,0,0,1.007-3.344c-.271.065-.5.125-.725.173-.6.127-1.01-.089-1.124-.591-.108-.476.156-.851.721-1,.417-.113.836-.221,1.258-.313.171-.037.306-.08.338-.276.112-.678.228-1.355.349-2.069a3.716,3.716,0,0,0-.951.189c-.592.132-1.013-.082-1.14-.576s.155-.875.748-1.03c.046-.012.1-.015.142-.026,1.61-.4,1.612-.406,1.533-2.174-.434.107-.861.213-1.289.316a.83.83,0,1,1-.421-1.589c.5-.13.988-.276,1.491-.368.291-.053.359-.183.348-.45-.016-.384-.007-.77.011-1.155.01-.228-.069-.28-.28-.221-.416.115-.834.226-1.256.321a.821.821,0,1,1-.4-1.592c.509-.142,1.02-.279,1.537-.381.29-.058.4-.166.371-.474-.055-.542-.085-1.088-.1-1.632A2.431,2.431,0,0,1,30.16,10.6c.573-.147,1.149-.287,1.724-.426a2.453,2.453,0,0,1,2.975,1.494c.441,1.062.864,2.133,1.28,3.206.107.275.178.374.486.18a22,22,0,0,0,4.823-4.095.929.929,0,0,0,.255-.687,11.285,11.285,0,0,0-1.516-5.494,2.549,2.549,0,0,1,.482-3.611A3.03,3.03,0,0,1,42.378.082c.254-.1.532.04.783-.082Z" transform="translate(-16.184)"/>
        <path id="Trazado_128514" data-name="Trazado 128514" d="M74.051,0c-.248.155-.521.064-.783.082A.336.336,0,0,0,73.28,0Z" transform="translate(-47.075)" fill="#717171"/>
        <path id="Trazado_128515" data-name="Trazado 128515" d="M137.7,125.245a.539.539,0,0,1,.079-.506v.482l-.079.025" transform="translate(-88.458 -80.145)" fill="#3f3f3f"/>
        <path id="Trazado_128516" data-name="Trazado 128516" d="M26.894,53.665a.843.843,0,0,0,1.154-.62,29.832,29.832,0,0,0,1.193-4,.555.555,0,0,1,.49-.486c.484-.109.968-.223,1.447-.352a.823.823,0,0,0,.7-1.021c-.1-.468-.521-.691-1.1-.573a5.909,5.909,0,0,0-.7.181c-.338.113-.373-.033-.321-.319.1-.536.192-1.073.256-1.613a.372.372,0,0,1,.341-.378c.469-.1.934-.225,1.4-.352.566-.156.82-.529.7-1.011s-.522-.684-1.087-.579c-.355.066-.784.372-1.034.154-.167-.146.018-.661-.013-1.006-.049-.561.2-.814.738-.869a4.348,4.348,0,0,0,.745-.184.824.824,0,1,0-.4-1.591c-.309.07-.616.146-.953.226,0-.54.006-1.036,0-1.532,0-.2.092-.275.276-.315.36-.077.717-.169,1.071-.268a.835.835,0,0,0,.693-.988.847.847,0,0,0-1.08-.618c-.322.063-.715.339-.937.15-.172-.146-.08-.6-.1-.922-.017-.224-.046-.448-.043-.672a.764.764,0,0,1,.585-.788c.632-.176,1.268-.345,1.91-.478.5-.1.791.087,1,.605.544,1.334,1.1,2.666,1.6,4.014a1.43,1.43,0,0,0,1.091.955,10.724,10.724,0,0,0,6.241-.418,18.168,18.168,0,0,0,4.123-2.044c.164-.108.332-.3.557-.124s.078.385.011.569c-.342.948-.7,1.893-1.044,2.84-.218.6-.137.838.394,1.227a2.983,2.983,0,0,1-.658,1.693,2.926,2.926,0,0,0-1.678,1.131c-.318.38-.625.942-1.024,1.032s-.844-.432-1.277-.668c-.14-.077-.274-.167-.416-.241a.818.818,0,0,0-1.166.27A.8.8,0,0,0,40.9,44.8a11.565,11.565,0,0,0,1.071.643c.3.154.277.275.045.473-.352.3-.653.821-1.034.883-.343.055-.766-.381-1.153-.6-.208-.12-.407-.258-.622-.364a.786.786,0,0,0-1.082.308.806.806,0,0,0,.264,1.1c.359.24.737.454,1.113.669.172.1.2.18.035.314-.347.285-.695.57-1.027.872-.16.145-.279.085-.424,0-.41-.252-.819-.5-1.238-.741a.822.822,0,0,0-1.178.246.806.806,0,0,0,.326,1.154c.292.189.594.363.952.581-.623.439-1.2.841-1.769,1.25-.147.105-.259.051-.39-.03-.409-.252-.819-.5-1.238-.739a.819.819,0,1,0-.84,1.4c.213.141.436.268.646.4.023.119-.06.146-.126.186a28.356,28.356,0,0,1-7.141,3.032,1.075,1.075,0,0,1-.19.016l1-2.18" transform="translate(-16.639 -21.081)" fill="#f47c00"/>
        <path id="Trazado_128517" data-name="Trazado 128517" d="M59.652,75.594q1.421.6,2.888,1.069a1.051,1.051,0,0,1-.33,1.705c-.759.405-1.563.723-2.344,1.084-1.183.547-2.407,1-3.581,1.563a62.428,62.428,0,0,1-6.724,2.429c-.308.091-.352-.085-.447-.27a12.584,12.584,0,0,0-6.02-5.792,11.474,11.474,0,0,0-5.069-1.136c-.168,0-.336,0-.518,0,.06-.181.21-.181.317-.228a31.107,31.107,0,0,0,4.344-2.259.539.539,0,0,1,.684.006c.412.277.844.524,1.276.77a.828.828,0,1,0,.838-1.415c-.294-.189-.6-.363-.926-.561.591-.44,1.159-.855,1.717-1.283.152-.117.257-.053.384.024.411.25.822.5,1.238.741a.837.837,0,0,0,1.257-.211c.255-.432.1-.877-.427-1.2-.285-.177-.575-.348-.917-.555.429-.373.835-.717,1.232-1.073.145-.13.255-.064.384.015.341.209.68.424,1.031.616a.815.815,0,0,0,1.166-.281.854.854,0,0,0-.323-1.128c-.258-.192-.751-.24-.738-.567.01-.237.406-.459.631-.687.113-.115.235-.221.336-.345.128-.158.247-.147.407-.044.323.209.651.41.988.595a.814.814,0,0,0,1.163-.291.835.835,0,0,0-.327-1.124c-.271-.2-.786-.251-.775-.6.008-.261.389-.519.621-.762.184-.194.31-.453.581-.558a1.677,1.677,0,0,1,1.3,2.06,17.019,17.019,0,0,1-.88,2.185c-.289.7-.579,1.393-.895,2.077a.865.865,0,0,0,.07.9A9.628,9.628,0,0,0,57.5,74.653a22.5,22.5,0,0,0,2.156.941" transform="translate(-24.099 -41.018)" fill="#fe9701"/>
        <path id="Trazado_128518" data-name="Trazado 128518" d="M10.65,122.679a6.518,6.518,0,0,1-5.66-5.3c-.023-.141-.042-.283-.077-.515l.523.274a29.462,29.462,0,0,0,7.052,2.868,9.339,9.339,0,0,0,2.143.271c2.392-.005,4.784.023,7.175-.023a32.068,32.068,0,0,0,10.576-2.248,2.751,2.751,0,0,1,.981-.18q7.658.008,15.315,0c.176,0,.352.014.528.021a2.561,2.561,0,0,1-.057,2.051,5.242,5.242,0,0,0-2.4-.268c-2.018-.005-4.037,0-6.055,0a2.727,2.727,0,0,0-.622.035.6.6,0,0,0-.54.585.627.627,0,0,0,.51.665,2.015,2.015,0,0,0,.572.054c2.611-.009,5.222.024,7.833-.017.142,0,.291-.033.407.088a1.741,1.741,0,0,1-1.506,1.665H11.03a.871.871,0,0,1-.38-.034" transform="translate(-3.157 -75.087)" fill="#fedfb1"/>
        <path id="Trazado_128519" data-name="Trazado 128519" d="M25.147,109.418a13.738,13.738,0,0,1-3.138.367q-3.8.051-7.6.014a12.783,12.783,0,0,1-4.624-1.19,40.852,40.852,0,0,1-4.731-2.344.432.432,0,0,1-.23-.581,2.835,2.835,0,0,1,1.559-1.851,6.007,6.007,0,0,1,2.216-.58c1.391-.131,2.785-.127,4.179-.121,1.459.006,2.918,0,4.377,0a7.264,7.264,0,0,1,2.5.389,10.557,10.557,0,0,1,4.483,3.785,9.3,9.3,0,0,1,.938,1.619c.069.154.2.306.07.491" transform="translate(-3.078 -66.261)" fill="#f34335"/>
        <path id="Trazado_128520" data-name="Trazado 128520" d="M69.248,37.511l.658-1.693a.855.855,0,0,0,1.129-.608c.383-1.019.762-2.04,1.124-3.067a1.928,1.928,0,0,0-.589-2.255,1.9,1.9,0,0,0-2.327-.055,15.518,15.518,0,0,1-5.806,2.445,6.459,6.459,0,0,1-1.583.12c.334-.252.584-.439.832-.628a26.985,26.985,0,0,0,4.3-4.125,19,19,0,0,1,1.651-1.75.83.83,0,0,1,1.308.01,3.81,3.81,0,0,1,.306.306,2.713,2.713,0,0,0,2.692.9c.727-.122,1.46-.211,2.186-.334a.514.514,0,0,1,.509.164c.9.914,1.8,1.828,2.727,2.72.246.237.187.359-.02.565q-2.717,2.7-5.417,5.41a.879.879,0,0,0-.147,1.32,2.691,2.691,0,0,1-1.262,1.163,8.665,8.665,0,0,0-1.19-.565,2.77,2.77,0,0,0-1.08-.041" transform="translate(-39.74 -16.435)" fill="#9d9d9d"/>
        <path id="Trazado_128521" data-name="Trazado 128521" d="M93.962,96.712c1.1-.476,2.194-.944,3.285-1.429s2.159-.972,3.231-1.474a1.946,1.946,0,0,0-.438-3.76,15.212,15.212,0,0,1-5.928-2.493c-.27-.2-.519-.429-.774-.647-.056-.048-.1-.109-.215-.234.659.082,1.224.153,1.79.222a42.421,42.421,0,0,0,6.726-.041c1.386-.05,1.844-.092,1.768,1.624a2.406,2.406,0,0,0,1.051,2.107c.63.469,1.247.956,1.888,1.41a.715.715,0,0,1,.345.67c-.019,1.219-.024,2.439,0,3.657.008.385-.107.477-.482.475-4.075-.013-8.15-.008-12.224-.008l-.024-.079" transform="translate(-59.831 -55.688)" fill="#ced7db"/>
        <path id="Trazado_128522" data-name="Trazado 128522" d="M88.888,47.184l1.262-1.163a.877.877,0,0,0,1.315-.166c1.986-1.983,3.976-3.963,5.946-5.962.279-.284.429-.255.661.016s.52.522.778.787a3.268,3.268,0,0,1-.014,4.77c-2.055,2.073-4.126,4.131-6.189,6.2a.851.851,0,0,0-.082,1.372,11.3,11.3,0,0,0-1.739,1.614c-.122.109.062.142.089.217l-1.445-.3c.482-1.126.948-2.221,1.418-3.315a2.5,2.5,0,0,0-1.12-3.507c-.3-.181-.587-.375-.88-.563" transform="translate(-57.11 -25.502)" fill="#dec39b"/>
        <path id="Trazado_128523" data-name="Trazado 128523" d="M125.53,66.653a3.368,3.368,0,0,1,1.283-.006.717.717,0,0,1,.674.748q.005,4.878-.01,9.756c0,.011-.017.022-.063.076-.436-.334-.886-.657-1.311-1.011a.913.913,0,0,1-.253-.75,5.605,5.605,0,0,0-.1-1.478c-.137-1.968-.036-3.94-.061-5.91a4.633,4.633,0,0,0-.158-1.425" transform="translate(-80.653 -42.783)" fill="#c71e1e"/>
        <path id="Trazado_128524" data-name="Trazado 128524" d="M87.4,75.359a11.461,11.461,0,0,1-3.163-1.342,9.05,9.05,0,0,1-3.4-3.232.774.774,0,0,1-.058-.8c.59-1.33,1.16-2.668,1.721-4.011a1.634,1.634,0,0,0-.759-2.16c-.11-.064-.215-.138-.322-.207a.765.765,0,0,1,.9.034q.726.424,1.443.863a.852.852,0,0,1,.408,1.253c-.574,1.356-1.148,2.711-1.741,4.058A1.225,1.225,0,0,0,82.477,71a10.486,10.486,0,0,0,4.507,4.126c.14.074.275.157.413.235" transform="translate(-51.844 -40.782)" fill="#f47b00"/>
        <path id="Trazado_128525" data-name="Trazado 128525" d="M119.969,66.77c.3.1.3.361.3.59.009,2.161.006,4.322.007,6.483a.294.294,0,0,1-.089.261c-.583-1.493-1.818-1.787-3.314-1.692a19.249,19.249,0,0,0,1.317-2.1,13.2,13.2,0,0,0,1.035-2.725c.1-.4.25-.769.743-.82" transform="translate(-75.091 -42.9)" fill="#f34335"/>
        <path id="Trazado_128526" data-name="Trazado 128526" d="M20.96,124.294c.385,0,.769-.009,1.154-.009,11.667,0,23.333-.013,35,.025a1.771,1.771,0,0,0,1.724-1c.122-.213.343-.4.288-.691a2.988,2.988,0,0,0,.29-1.128c.216-.453.054-.934.1-1.4.019-.205,0-.413,0-.62.527-.03,1.186-.217,1.539.059.313.245.092.933.092,1.424a3.3,3.3,0,0,1-3.524,3.426q-11.672.006-23.345,0-6.185,0-12.37,0a2.188,2.188,0,0,1-.947-.084" transform="translate(-13.467 -76.702)" fill="#dec39b"/>
        <path id="Trazado_128527" data-name="Trazado 128527" d="M51.86,110.126a10.869,10.869,0,0,0-2.989-4.153,17.456,17.456,0,0,0-2.5-1.741,8.692,8.692,0,0,1,2.935,1.252,10.981,10.981,0,0,1,3.829,4.021c.141.251.224.414-.188.451a10.135,10.135,0,0,1-1.084.171" transform="translate(-29.791 -66.968)" fill="#c71e1e"/>
        <path id="Trazado_128528" data-name="Trazado 128528" d="M90.031,104.06a7.447,7.447,0,0,1,1.791-.862c1.295-.618,2.618-1.178,3.918-1.787a1.114,1.114,0,0,0,.546-1.7l1.5.338c.162.037.315.087.332.29.014.177-.105.257-.241.321-2.582,1.208-5.172,2.4-7.843,3.4" transform="translate(-57.845 -64.062)" fill="#f27b00"/>
        <path id="Trazado_128529" data-name="Trazado 128529" d="M79.422,11.761c-.325.059-.518.077-.7.13a2.1,2.1,0,0,1-2.331-.737,2.368,2.368,0,0,0-3.383-.053c-.241.209-.463.439-.751.713-.1-.494-.173-.938-.273-1.377A12.9,12.9,0,0,0,70.5,6.751a.915.915,0,0,1,.179-1.363c1.076-1.092,1.212-1.093,2.3-.005q3,2.995,5.992,5.989c.112.112.239.208.45.39" transform="translate(-45.151 -2.935)" fill="#c71e1e"/>
        <path id="Trazado_128530" data-name="Trazado 128530" d="M110.956,124.553a.921.921,0,0,1-.29,1.128,1.931,1.931,0,0,1-.608.118q-3.943-.007-7.886,0a.906.906,0,0,1-.865-.407.805.805,0,0,1,.745-1.232c1.49-.013,2.981,0,4.472-.005,1.154,0,2.308.012,3.462-.006a1.1,1.1,0,0,1,.97.406" transform="translate(-65.008 -79.764)"/>
        <path id="Trazado_128531" data-name="Trazado 128531" d="M99.471,53.018a.8.8,0,0,1-.737-.452.741.741,0,0,1,.11-.893c.233-.264.493-.5.742-.754l3.776-3.776a.811.811,0,0,1,1.044-.193.775.775,0,0,1,.389.9.942.942,0,0,1-.3.483l-4.355,4.354a.922.922,0,0,1-.671.331" transform="translate(-63.371 -30.092)"/>
      </g>
    </g>
  </g>
</svg>
