<svg id="Grupo_157221" data-name="Grupo 157221" xmlns="http://www.w3.org/2000/svg" xmlns:xlink="http://www.w3.org/1999/xlink" width="18.997" height="18.999" viewBox="0 0 18.997 18.999">
  <defs>
    <clipPath id="clip-path">
      <rect id="Rectángulo_36216" data-name="Rectángulo 36216" width="18.997" height="18.999" fill="none"/>
    </clipPath>
  </defs>
  <g id="Grupo_157221-2" data-name="Grupo 157221" clip-path="url(#clip-path)">
    <path id="Trazado_125330" data-name="Trazado 125330" d="M239.913,510.815l.11,0c.014.005.019.012.015.019s-.008.011-.012.011h-.111c-.012-.007-.016-.013-.012-.021s.007-.011.011-.011" transform="translate(-230.994 -491.848)" fill="#6b6b6b"/>
    <path id="Trazado_125331" data-name="Trazado 125331" d="M265.206,510.742c.028-.046.071-.037.113-.032q.016.012.01.022t-.012.01Z" transform="translate(-255.359 -491.743)" fill="#3b3b3b"/>
    <path id="Trazado_125332" data-name="Trazado 125332" d="M18.954,8.208a9.175,9.175,0,0,0-.969-3.075,9.522,9.522,0,0,0-1.939-2.552A9.82,9.82,0,0,0,13.8.994,9.632,9.632,0,0,0,8.5.041,8.837,8.837,0,0,0,5.312.954a9.4,9.4,0,0,0-2.707,2A9.829,9.829,0,0,0,.827,5.581,9.688,9.688,0,0,0,.04,10.533a8.778,8.778,0,0,0,.929,3.22,9.484,9.484,0,0,0,2.4,3.047,9.416,9.416,0,0,0,4.325,2.077c.333.067.67.076,1,.123h.148c.024-.026.057-.017.086-.019H9.1c.03,0,.061-.007.086.019h.667c.031-.031.071-.015.108-.019h.068c.029,0,.06-.006.084.019h.148c.193-.035.391-.02.584-.045a9.187,9.187,0,0,0,2.839-.857A9.545,9.545,0,0,0,16.8,15.655a9.407,9.407,0,0,0,2.062-4.267c.072-.35.09-.705.134-1.058V8.775c-.033-.188-.019-.379-.043-.567" transform="translate(0 0)"/>
    <path id="Trazado_125333" data-name="Trazado 125333" d="M238.341,510.716a.155.155,0,0,1,0,.032h-.074c.008-.047.042-.036.072-.032" transform="translate(-229.422 -491.749)" fill="#929292"/>
    <path id="Trazado_125334" data-name="Trazado 125334" d="M243.183,510.844c0-.01,0-.02,0-.03l.075,0c.013.006.018.013.014.021s-.008.011-.012.011Z" transform="translate(-234.151 -491.845)" fill="#494949"/>
    <path id="Trazado_125335" data-name="Trazado 125335" d="M245.21,510.8c0-.011,0-.021,0-.032a.063.063,0,0,1,.076.032Z" transform="translate(-236.103 -491.802)" fill="#373737"/>
    <path id="Trazado_125336" data-name="Trazado 125336" d="M268.2,510.84a.258.258,0,0,1,0-.032h.074q.016.011.01.022c0,.007-.008.01-.012.01Z" transform="translate(-258.241 -491.841)" fill="#565656"/>
    <path id="Trazado_125337" data-name="Trazado 125337" d="M270.2,510.778a.269.269,0,0,1,0-.031c.03,0,.062-.011.072.031Z" transform="translate(-260.163 -491.78)" fill="#737373"/>
    <path id="Trazado_125338" data-name="Trazado 125338" d="M39.14,30.807a8.372,8.372,0,1,1-8.385,8.358,8.384,8.384,0,0,1,8.385-8.358" transform="translate(-29.612 -29.664)" fill="#fe5956"/>
    <path id="Trazado_125339" data-name="Trazado 125339" d="M131.5,129.772a1.786,1.786,0,0,1,1.285.538c.513.517,1.034,1.026,1.541,1.549.124.128.185.107.3-.007.523-.533,1.048-1.065,1.585-1.584a1.739,1.739,0,0,1,2.909.871,1.681,1.681,0,0,1-.48,1.628q-.78.791-1.573,1.57c-.1.1-.105.154,0,.256.538.527,1.074,1.056,1.6,1.6a1.743,1.743,0,0,1-.868,2.921,1.684,1.684,0,0,1-1.626-.487q-.784-.774-1.556-1.56c-.1-.106-.157-.121-.27-.006-.53.543-1.062,1.086-1.61,1.61a1.734,1.734,0,0,1-2.861-.729,1.674,1.674,0,0,1,.435-1.771q.783-.8,1.585-1.583c.1-.1.1-.147,0-.243-.546-.537-1.094-1.071-1.622-1.625a1.739,1.739,0,0,1,.716-2.857,2.188,2.188,0,0,1,.519-.09" transform="translate(-124.96 -124.95)"/>
    <path id="Trazado_125340" data-name="Trazado 125340" d="M166.316,166.943a.739.739,0,0,1-.527-.234q-.979-.985-1.963-1.965a.583.583,0,0,0-.968-.005q-.982.981-1.963,1.964a.667.667,0,0,1-.559.233.6.6,0,0,1-.539-.418.626.626,0,0,1,.176-.692l2-2a.692.692,0,0,0,.212-.319.584.584,0,0,0-.186-.585c-.67-.666-1.335-1.336-2-2a.669.669,0,0,1-.234-.576.6.6,0,0,1,.412-.523.613.613,0,0,1,.679.158c.356.351.708.706,1.061,1.06l.956.955a.576.576,0,0,0,.941-.006q.989-.988,1.977-1.977a.636.636,0,1,1,.92.874c-.489.5-.985.987-1.478,1.481-.188.188-.377.374-.562.563a.555.555,0,0,0,0,.861c.674.678,1.353,1.353,2.028,2.031a.641.641,0,0,1-.382,1.122" transform="translate(-153.825 -153.844)" fill="#e6efee"/>
  </g>
</svg>
