<svg xmlns="http://www.w3.org/2000/svg" xmlns:xlink="http://www.w3.org/1999/xlink" width="118.076" height="118.076" viewBox="0 0 118.076 118.076">
  <defs>
    <clipPath id="clip-path">
      <rect id="Rectángulo_37516" data-name="Rectángulo 37516" width="74.332" height="76.046" fill="none"/>
    </clipPath>
  </defs>
  <g id="Grupo_157252" data-name="Grupo 157252" transform="translate(-0.08 -0.002)">
    <circle id="Elipse_4823" data-name="Elipse 4823" cx="59.038" cy="59.038" r="59.038" transform="translate(0.08 0.002)" fill="#ff9fa3"/>
    <g id="Grupo_157928" data-name="Grupo 157928" transform="translate(22.08 21.003)">
      <g id="Grupo_157928-2" data-name="Grupo 157928" transform="translate(0 0)" clip-path="url(#clip-path)">
        <path id="Trazado_130615" data-name="Trazado 130615" d="M2.419,76.046A1.89,1.89,0,0,1,1.6,74.222q.018-23.127.017-46.254c0-.571.036-1.021-.754-1.086A1,1,0,0,1,0,25.757a1.045,1.045,0,0,1,.939-1.15c.652-.059.708-.372.682-.9-.04-.839-.02-1.683-.008-2.523.017-1.133.446-1.559,1.588-1.56q6.717-.007,13.434,0a2.567,2.567,0,0,0,1.2-.284q8.728-4.383,17.474-8.728a1,1,0,0,0,.656-1.061c-.031-2.647-.017-5.3-.012-7.944,0-1.2.408-1.6,1.6-1.6Q42.083,0,46.611,0c1.151,0,1.565.413,1.572,1.559q.012,2.116,0,4.232c-.007,1.143-.416,1.567-1.564,1.572-2.523.013-5.048.023-7.57-.01-.577-.008-.614.2-.7.7-.291,1.708.45,2.522,1.978,3.247,5.434,2.58,10.788,5.332,16.167,8.031a2.564,2.564,0,0,0,1.2.284q6.643-.015,13.285-.006c1.344,0,1.73.382,1.738,1.71,0,.891.011,1.782,0,2.672-.006.341.036.506.46.554a1.205,1.205,0,0,1,0,2.409c-.5.035-.464.295-.463.634q.009,3.861,0,7.721,0,19.451.009,38.9a1.89,1.89,0,0,1-.817,1.825Z" transform="translate(0 0)"/>
        <path id="Trazado_130616" data-name="Trazado 130616" d="M61.9,70.969c-2.424.01-4.847.028-7.271.031q-5.864.008-11.727,0c-1.474,0-1.823.353-1.823,1.842,0,5.667-.014,11.334.018,17,0,.683-.2.818-.829.8-1.665-.041-1.666-.012-1.666-1.641,0-6.558.009-13.117-.015-19.675,0-.606.124-.818.758-.773.837.061,1.681.018,2.523.014,1.045-.006,1.613-.432,1.627-1.213.015-.8-.572-1.257-1.655-1.263-.916,0-1.831-.018-2.746.007-.388.01-.5-.11-.5-.5q.017-10.543,0-21.086c0-.339.075-.477.446-.476q11.429.031,22.857.042a3.051,3.051,0,0,1,.034,2.411,2.122,2.122,0,0,1-1.3.2q-8.421.007-16.842,0c-.3,0-.593,0-.89,0-1.195.037-1.549.382-1.551,1.571q-.013,6.754,0,13.507c0,1.323.333,1.662,1.678,1.665,5.862.012,11.722,0,17.584.009a2.253,2.253,0,0,1,1.3.186,2.959,2.959,0,0,1-.017,2.422q-4.3.018-8.6.035c-1.854,0-3.707,0-5.561,0a3.594,3.594,0,0,0-.877.1A1.082,1.082,0,0,0,46,67.26a1.14,1.14,0,0,0,.786,1.2,2.647,2.647,0,0,0,1.025.108L61.9,68.6a2.752,2.752,0,0,1,0,2.367" transform="translate(-14.935 -17.046)" fill="#fefad1"/>
        <path id="Trazado_130617" data-name="Trazado 130617" d="M100.079,90.58q-4.485.02-8.97.039c-1.286,0-2.572-.022-3.857.012-.527.014-.664-.164-.662-.675.019-3.709.01-7.418.01-11.128q0-16.953-.017-33.905c0-.709.162-.907.886-.9,4.2.048,8.4.04,12.606.051a3.108,3.108,0,0,1,.045,2.4,1.75,1.75,0,0,1-1.143.207c-2.5.007-4.994,0-7.49,0a6.817,6.817,0,0,0-.962.034,1.192,1.192,0,0,0-1.195,1.325c-.026,1.038-.007,2.077-.008,3.116q0,5.192,0,10.385c0,1.573.318,1.892,1.923,1.9,2.571.008,5.142,0,7.713,0a1.861,1.861,0,0,1,1.149.195,3.445,3.445,0,0,1,.021,2.43,1.678,1.678,0,0,1-1.139.216c-2.52.007-5.04,0-7.561,0a5.217,5.217,0,0,0-1.035.056A1.163,1.163,0,0,0,89.342,67.5a2.655,2.655,0,0,0-.015.3q-.009,6.932,0,13.865c0,1.011.4,1.37,1.5,1.38,2.693.023,5.387,0,8.08.012a1.834,1.834,0,0,1,1.215.215,1.525,1.525,0,0,1,.186.927q.011,2.7,0,5.4a1.438,1.438,0,0,1-.236.985" transform="translate(-33.513 -17.04)" fill="#f57547"/>
        <path id="Trazado_130618" data-name="Trazado 130618" d="M20.115,90.58q-4.3.02-8.6.039c-1.435.006-2.87-.02-4.3.012-.493.01-.623-.146-.617-.626.025-2,.01-4.007.01-6.012q0-19.558-.015-39.115c0-.668.154-.86.84-.853,4.229.045,8.457.039,12.685.051a3.088,3.088,0,0,1,.044,2.4,1.765,1.765,0,0,1-1.144.205c-2.547.006-5.094,0-7.641,0a5.809,5.809,0,0,0-.963.039,1.058,1.058,0,0,0-1.037,1.132c-.013.173-.01.346-.01.52q0,6.678,0,13.357c0,1.407.285,1.7,1.693,1.706,2.646.012,5.292,0,7.938.007a1.869,1.869,0,0,1,1.15.194,3.425,3.425,0,0,1,.022,2.432,1.687,1.687,0,0,1-1.139.215c-2.47.007-4.941,0-7.412,0-.272,0-.544-.007-.815.012-1.126.074-1.433.386-1.435,1.519q-.01,6.858,0,13.716c0,1.176.31,1.492,1.5,1.5,2.693.023,5.386,0,8.079.012a1.842,1.842,0,0,1,1.215.213,1.511,1.511,0,0,1,.188.927q.011,2.7,0,5.4a1.425,1.425,0,0,1-.237.985" transform="translate(-2.55 -17.041)" fill="#f57547"/>
        <path id="Trazado_130619" data-name="Trazado 130619" d="M28.653,66.067q0-1.186,0-2.372c1.062-.723.978-1.809.972-2.905q-.034-5.718,0-11.435c.006-1.1.091-2.183-.972-2.906q0-1.182,0-2.365c1.063-.011,2.126-.009,3.189-.039.406-.012.529.162.491.53a3.562,3.562,0,0,0,0,.371q0,22.387.02,44.772c0,.783-.223.976-.953.92-.91-.07-1.828-.039-2.742-.051q0-3.638,0-7.276a2.71,2.71,0,0,0,.978-2.607q-.056-5.9,0-11.794c.008-1.086.022-2.124-.973-2.843" transform="translate(-11.09 -17.048)" fill="#f24a28"/>
        <path id="Trazado_130620" data-name="Trazado 130620" d="M108.595,46.447V44.084c1.087-.01,2.174-.01,3.26-.037.365-.009.49.134.452.477a3.561,3.561,0,0,0,0,.371q0,22.44.013,44.88c0,.65-.123.92-.834.865-.958-.074-1.925-.039-2.888-.051q0-3.637,0-7.275c.989-.582.979-1.521.972-2.513-.027-4-.015-8-.009-12,0-1.03.15-2.1-.96-2.733q0-1.182,0-2.366c.951-.6.981-1.518.973-2.517q-.049-6.109,0-12.218c.008-1-.022-1.919-.973-2.517" transform="translate(-42.032 -17.049)" fill="#f24a28"/>
        <path id="Trazado_130621" data-name="Trazado 130621" d="M64.344,27.5c-1.062.01-2.124.027-3.186.028q-11.455,0-22.91,0h-1c.366-.2.543-.311.728-.4Q44.491,23.87,51,20.605a1.129,1.129,0,0,1,1.16,0c2.869,1.475,5.752,2.922,8.63,4.378,1,.627,2.034,1.209,2.992,1.9.224.163.563.24.562.616" transform="translate(-14.418 -7.913)" fill="#fefad1"/>
        <path id="Trazado_130622" data-name="Trazado 130622" d="M53.984,98.169c0,1.779-.023,3.559.013,5.337.012.591-.114.818-.761.8-1.975-.043-3.952-.032-5.928,0-.525.007-.729-.1-.724-.684.028-3.632.023-7.264,0-10.9,0-.5.1-.687.644-.678,2.05.032,4.1.029,6.15,0,.5-.007.618.167.612.636-.023,1.828-.009,3.657-.009,5.485" transform="translate(-18.031 -35.628)" fill="#97857f"/>
        <path id="Trazado_130623" data-name="Trazado 130623" d="M63.695,38.445c-.272.01-.543.028-.814.028q-15.7,0-31.4.017c-.675,0-.939-.1-.906-.858.069-1.583.02-1.585,1.578-1.585q15.328,0,30.657,0c.3,0,.591.023.888.036a2.762,2.762,0,0,1,0,2.362" transform="translate(-11.833 -13.952)" fill="#fbcb85"/>
        <path id="Trazado_130624" data-name="Trazado 130624" d="M76.619,66.057q0-1.182,0-2.364a2.619,2.619,0,0,0,.975-2.536q-.05-6.087,0-12.176a2.619,2.619,0,0,0-.975-2.536q0-1.182,0-2.364c1.085-.012,2.17,0,3.255-.044.535-.021.444.313.444.624V57.4c0,2.691-.01,5.383.01,8.074,0,.466-.1.652-.6.627-1.034-.049-2.071-.035-3.106-.047" transform="translate(-29.656 -17.044)" fill="#fde2ab"/>
        <path id="Trazado_130625" data-name="Trazado 130625" d="M76.619,86.449q0-1.183,0-2.367c1.013-.01,2.029.018,3.039-.044.59-.036.675.183.673.709-.02,5.22-.012,10.441-.012,15.661,0,1.707-.015,3.415.01,5.122.006.445-.1.588-.571.595-1.917.028-1.916.046-1.916-1.849q0-8.053,0-16.107c0-1.149-.148-1.349-1.22-1.72" transform="translate(-29.655 -32.526)" fill="#fde2ab"/>
        <path id="Trazado_130626" data-name="Trazado 130626" d="M66.294,104.264c-1.062.009-2.125.009-3.187.034-.385.009-.515-.135-.514-.518q.015-5.6,0-11.2c0-.382.115-.527.506-.517,1.062.026,2.125.023,3.187.031a1.277,1.277,0,0,1,.243.977q.009,5.105,0,10.211a1.407,1.407,0,0,1-.236.984" transform="translate(-24.227 -35.633)" fill="#856f69"/>
        <path id="Trazado_130627" data-name="Trazado 130627" d="M68.626,104.266q0-6.086-.008-12.172c1.063-.008,2.126-.006,3.188-.028.373-.008.524.106.523.5q-.017,5.6,0,11.2c0,.382-.129.528-.514.52-1.062-.022-2.125-.018-3.188-.025" transform="translate(-26.559 -35.635)" fill="#725a52"/>
        <path id="Trazado_130628" data-name="Trazado 130628" d="M60.1,118.467c-1.556.015-3.113.039-4.669.043-2.72.007-5.441-.009-8.161.012-.49,0-.685-.091-.682-.64.01-1.81-.013-1.812,1.785-1.809q5.86.009,11.721.024a2.768,2.768,0,0,1,.006,2.371" transform="translate(-18.032 -44.927)" fill="#fbcb85"/>
        <path id="Trazado_130629" data-name="Trazado 130629" d="M12.671,38.419c-1.852,0-3.7-.011-5.556.009-.4,0-.576-.082-.541-.52.049-.61-.186-1.409.12-1.788.324-.4,1.153-.119,1.759-.122,3.211-.014,6.421.008,9.631-.02.587-.006.81.1.794.753-.045,1.688-.011,1.689-1.687,1.689H12.671" transform="translate(-2.529 -13.897)" fill="#fefad1"/>
        <path id="Trazado_130630" data-name="Trazado 130630" d="M103.13,38.438c-2.694.01-5.389,0-8.083.038-.726.009-.548-.536-.455-.8.189-.538-.619-1.556.46-1.6,2.69-.1,5.387-.013,8.08,0a2.765,2.765,0,0,1,0,2.362" transform="translate(-36.568 -13.945)" fill="#fefad1"/>
        <path id="Trazado_130631" data-name="Trazado 130631" d="M66.248,6.46c-1.036,0-2.072-.015-3.108.008-.4.009-.549-.094-.561-.53-.051-1.91-.067-1.909,1.856-1.909,1.652,0,3.306.013,4.957-.009.446-.006.587.127.595.585.033,1.856.05,1.855-1.816,1.855H66.248" transform="translate(-24.216 -1.556)" fill="#f24a28"/>
        <path id="Trazado_130632" data-name="Trazado 130632" d="M108.594,38.441l0-2.362c1.108-.012,2.216-.012,3.323-.043.356-.01.379.158.394.444.1,1.99.11,1.992-1.873,1.988-.615,0-1.231-.018-1.846-.028" transform="translate(-42.032 -13.948)" fill="#fde2ab"/>
        <path id="Trazado_130633" data-name="Trazado 130633" d="M84.611,38.442q0-1.181,0-2.362c1.086-.012,2.172-.012,3.257-.041.37-.01.436.146.452.48.093,1.953.1,1.955-1.861,1.951-.617,0-1.234-.018-1.85-.028" transform="translate(-32.75 -13.949)" fill="#f8a067"/>
        <path id="Trazado_130634" data-name="Trazado 130634" d="M68.627,118.462q0-1.185-.006-2.371c1.085-.008,2.17,0,3.254-.031.369-.009.437.139.452.476.091,1.969.1,1.972-1.855,1.967-.615,0-1.23-.026-1.846-.04" transform="translate(-26.56 -44.922)" fill="#f8a066"/>
        <path id="Trazado_130635" data-name="Trazado 130635" d="M79.21,30.368c-1.065-.726-2.127-1.456-3.2-2.175-.143-.1-.3-.168-.357-.345l4.951,2.4c-.012.039-.024.079-.036.119Z" transform="translate(-29.283 -10.779)" fill="#f9dfa9"/>
        <path id="Trazado_130636" data-name="Trazado 130636" d="M63.47,47.965c1.078.36,1.221.553,1.222,1.719q0,6.906,0,13.811c0,1.166-.143,1.359-1.222,1.719-2.4-.009-4.8-.023-7.2-.026q-5.937-.006-11.875,0c-1.352,0-1.747-.38-1.747-1.693q0-6.9,0-13.808c0-1.312.4-1.692,1.747-1.693H62.656c.271,0,.542-.017.814-.026" transform="translate(-16.508 -18.565)"/>
        <path id="Trazado_130637" data-name="Trazado 130637" d="M101.652,79.968c1.08.371,1.233.572,1.234,1.706q0,6.924,0,13.849c0,1.153-.173,1.377-1.238,1.694l-9.277-.023c-1.328,0-1.718-.394-1.719-1.726q0-6.868,0-13.737c0-1.326.4-1.727,1.723-1.732q4.638-.018,9.276-.031" transform="translate(-35.088 -30.952)"/>
        <path id="Trazado_130638" data-name="Trazado 130638" d="M101.65,47.963c1.073.349,1.235.56,1.236,1.7q.006,6.923,0,13.846c0,1.143-.162,1.354-1.236,1.7l-9.2-.027c-1.423,0-1.8-.378-1.8-1.805q0-6.83,0-13.661c0-1.326.4-1.725,1.722-1.73l9.276-.028" transform="translate(-35.088 -18.565)"/>
        <path id="Trazado_130639" data-name="Trazado 130639" d="M21.682,79.974c1.038.381,1.2.607,1.2,1.744q0,6.92,0,13.841c0,1.086-.173,1.317-1.2,1.658L12.418,97.2c-1.4,0-1.773-.367-1.774-1.739q0-6.857,0-13.714c0-1.363.389-1.738,1.776-1.743l9.262-.028" transform="translate(-4.119 -30.955)"/>
        <path id="Trazado_130640" data-name="Trazado 130640" d="M21.682,47.967c1.04.377,1.2.6,1.2,1.741q0,6.882,0,13.764c0,1.139-.159,1.364-1.2,1.741l-9.262-.025c-1.393,0-1.776-.372-1.776-1.741q0-6.856,0-13.713c0-1.369.383-1.738,1.776-1.741l9.262-.025" transform="translate(-4.119 -18.566)"/>
        <path id="Trazado_130641" data-name="Trazado 130641" d="M50.373,60.052c1.037,0,2.075.013,3.111-.007.375-.007.514.089.51.492q-.029,3.187,0,6.373c0,.42-.165.481-.523.479q-3.186-.017-6.372,0c-.378,0-.509-.094-.506-.493q.028-3.186,0-6.373c0-.418.159-.484.519-.479,1.086.018,2.173.007,3.26.007" transform="translate(-18.035 -23.241)" fill="#fefefe"/>
        <path id="Trazado_130642" data-name="Trazado 130642" d="M60.08,54.448q-6.527.016-13.053.038c-.371,0-.435-.141-.449-.476-.082-1.956-.091-1.96,1.86-1.955q5.821.014,11.643.034a2.757,2.757,0,0,1,0,2.36" transform="translate(-18.019 -20.148)" fill="#cce1fe"/>
        <path id="Trazado_130643" data-name="Trazado 130643" d="M66.292,67.35c-1.085.011-2.17.01-3.255.04-.382.011-.439-.16-.438-.487q.017-3.186,0-6.37c0-.327.054-.5.437-.487,1.084.031,2.17.028,3.255.039a1.219,1.219,0,0,1,.237.9q.012,2.729,0,5.458a1.235,1.235,0,0,1-.237.9" transform="translate(-24.23 -23.241)" fill="#fefefe"/>
        <path id="Trazado_130644" data-name="Trazado 130644" d="M68.624,67.35q0-3.632,0-7.264c1.087-.011,2.173-.009,3.26-.039.378-.01.444.15.442.482q-.017,3.189,0,6.379c0,.332-.064.493-.442.483-1.086-.031-2.173-.029-3.259-.04" transform="translate(-26.561 -23.241)" fill="#cce1fe"/>
        <path id="Trazado_130645" data-name="Trazado 130645" d="M68.623,54.444q0-1.18,0-2.36c1.085-.012,2.17-.011,3.254-.04.371-.01.435.145.45.479.088,1.953.1,1.955-1.857,1.951-.616,0-1.232-.02-1.848-.03" transform="translate(-26.561 -20.144)" fill="#9ac4fe"/>
        <path id="Trazado_130646" data-name="Trazado 130646" d="M98.283,96.262c-1.062.013-2.124.02-3.186.045-.33.008-.491-.072-.49-.449q.016-5.679,0-11.358c0-.382.156-.451.485-.444,1.062.023,2.126.025,3.189.034a1.3,1.3,0,0,1,.239.979q.01,5.105,0,10.211a1.4,1.4,0,0,1-.237.983" transform="translate(-36.618 -32.534)" fill="#cce1fe"/>
        <path id="Trazado_130647" data-name="Trazado 130647" d="M100.6,96.262q0-6.086,0-12.173c1.086-.009,2.171-.007,3.256-.035.352-.009.462.1.46.457q-.017,5.666,0,11.334c0,.354-.1.473-.459.463-1.084-.031-2.169-.032-3.253-.046" transform="translate(-38.938 -32.534)" fill="#9ac4fe"/>
        <path id="Trazado_130648" data-name="Trazado 130648" d="M98.282,64.253c-1.062.011-2.124.015-3.187.038-.329.007-.489-.065-.488-.446q.017-5.676,0-11.353c0-.381.159-.453.488-.446,1.062.023,2.124.027,3.187.038a1.334,1.334,0,0,1,.238.981q.009,5.1,0,10.207a1.334,1.334,0,0,1-.238.981" transform="translate(-36.619 -20.145)" fill="#cce1fe"/>
        <path id="Trazado_130649" data-name="Trazado 130649" d="M100.6,64.248V52.079c1.06-.011,2.121.007,3.18-.046.517-.025.537.215.534.613-.013,2.148-.006,4.3-.006,6.443,0,1.555-.015,3.111.009,4.666.006.421-.119.549-.538.534-1.059-.037-2.12-.031-3.18-.042" transform="translate(-38.939 -20.139)" fill="#9ac4fe"/>
        <path id="Trazado_130650" data-name="Trazado 130650" d="M18.314,96.259c-1.06.013-2.123,0-3.181.054-.52.028-.536-.215-.534-.612.013-2.322.006-4.644.006-6.967,0-1.383.015-2.767-.009-4.15-.007-.416.108-.55.531-.536,1.06.037,2.122.028,3.183.038a1.293,1.293,0,0,1,.241.978q.009,5.105,0,10.211a1.387,1.387,0,0,1-.238.983" transform="translate(-5.65 -32.532)" fill="#cce1fe"/>
        <path id="Trazado_130651" data-name="Trazado 130651" d="M20.66,96.26q0-6.086,0-12.172c1.062-.009,2.126,0,3.187-.037.407-.012.491.148.49.519q-.017,5.6,0,11.206c0,.363-.076.544-.487.531-1.062-.034-2.124-.034-3.185-.048" transform="translate(-7.995 -32.533)" fill="#9ac4fe"/>
        <path id="Trazado_130652" data-name="Trazado 130652" d="M18.312,64.25c-1.06.012-2.123-.007-3.181.047-.521.026-.534-.217-.532-.612.013-2.42.006-4.84.006-7.26,0-1.284.017-2.568-.009-3.852-.009-.42.115-.549.534-.534,1.06.038,2.121.032,3.181.043a1.327,1.327,0,0,1,.24.98q.009,5.1,0,10.207a1.324,1.324,0,0,1-.24.98" transform="translate(-5.65 -20.142)" fill="#cce1fe"/>
        <path id="Trazado_130653" data-name="Trazado 130653" d="M20.659,64.253V52.085c1.062-.011,2.124-.015,3.186-.039.328-.007.491.067.49.446q-.017,5.676,0,11.352c0,.38-.162.453-.49.446-1.062-.023-2.124-.027-3.186-.039" transform="translate(-7.996 -20.145)" fill="#9ac4fe"/>
      </g>
    </g>
  </g>
</svg>
