<svg xmlns="http://www.w3.org/2000/svg" xmlns:xlink="http://www.w3.org/1999/xlink" width="315" height="253.51" viewBox="0 0 315 253.51">
  <defs>
    <clipPath id="clip-path">
      <rect id="Rect치ngulo_37492" data-name="Rect치ngulo 37492" width="22.517" height="181.799" fill="#fff"/>
    </clipPath>
  </defs>
  <g id="Grupo_85029" data-name="Grupo 85029" transform="translate(-265 -3244.678)">
    <g id="Grupo_85023" data-name="Grupo 85023">
      <rect id="Rect치ngulo_34651" data-name="Rect치ngulo 34651" width="315" height="170" transform="translate(265 3328.188)" fill="#6b8dff"/>
      <g id="Grupo_84254" data-name="Grupo 84254" transform="translate(267.564 3206.015)">
        <g id="Grupo_84000" data-name="Grupo 84000" transform="translate(12.141 38.664)">
          <path id="Trazado_118280" data-name="Trazado 118280" d="M150.733,260.461q-1.2-.2-2.42-.329c-9.524-1-19.038,1.6-28.608,1.95-17.246.633-34.142-6.148-48.252-16.087S45.68,223.081,34.517,209.919c-12-14.151-24.265-30.864-22.133-49.294,1.554-13.433,10.581-24.753,20.16-34.3,12.117-12.078,25.638-22.591,38.6-33.715,12.9-11.062,23.176-25.694,36.23-36.083,25.318-20.152,64.385-22.921,93.363-9.99,18.593,8.3,33.9,22.359,50.84,33.646,12.12,8.075,25.648,15.244,33.431,27.553,9.43,14.915,8.31,34.063,5.164,51.426-5.324,29.378-16.037,58.687-36.5,80.429s-52.013,34.594-80.929,27.161C165.35,264.852,158.235,261.7,150.733,260.461Z" transform="translate(-12.141 -38.664)" fill="#ffbfc1"/>
        </g>
        <g id="Grupo_157823" data-name="Grupo 157823" transform="translate(82.476 58.653)">
          <g id="Grupo_157826" data-name="Grupo 157826">
            <path id="Trazado_129999" data-name="Trazado 129999" d="M122.969,18.233c-1.335-3.325-6.144-5.157-6.144-5.157.867-1.56,7.548-12.5,6-13.061s-13.279,15.141-13.279,15.141c-2.431-4.054-9.62-8.409-6.98-2.678s1.428,15.474,1.428,15.474-3.319,29.307-7.2,59.963c-19.747,1.8-38.268,3.281-48.034,3.5A45.319,45.319,0,0,0,37.58,92.9c-9.7,2.741-11.947,15.544-3.567,21.151,3.289,2.2,8.072,3.836,15.052,3.886a355.988,355.988,0,0,0,44.027-1.9c6.11-.688,12.517-1.612,19.089-2.849a12.824,12.824,0,0,0,10.354-11.751c.365-5.188.585-10.555.6-16.049.06-18.322-2.134-37.981-8.6-56.877,5.609-2.827,9.625-7.309,8.432-10.278" transform="translate(16.78 0)" fill="#fa9778"/>
            <g id="Grupo_157825" data-name="Grupo 157825" transform="matrix(0.996, -0.087, 0.087, 0.996, 90.612, -11.89)">
              <g id="Grupo_157825-2" data-name="Grupo 157825" clip-path="url(#clip-path)">
                <path id="Trazado_130030" data-name="Trazado 130030" d="M12.042,18.826c1.092,2.089.925,3.488-.566,4.268s-2.736.118-3.828-1.971L.687,7.8C-.433,5.662-.333,4.4,2.108,3.125L5.526,1.338c4.747-2.481,8.641-1.374,10.5,2.179,1.432,2.74.758,5.613-1.889,7.618l5.485,2.037a4.7,4.7,0,0,1,2.62,1.842,2.294,2.294,0,0,1-1.011,3.153c-.868.454-1.844.238-3.182-.34L9.561,14.079Zm-1.978-8.74c1.79-.936,2.326-2.356,1.546-3.847C10.859,4.8,9.429,4.444,7.666,5.366L5.577,6.458,8.03,11.15Z" transform="translate(0 0)" fill="#fff"/>
                <path id="Trazado_130031" data-name="Trazado 130031" d="M13.294,97.545c2.269.836,4.273-.089,5.307.292a1.8,1.8,0,0,1,1.164,2.419c-.656,1.78-4.269,2.732-8.2,1.282a8.24,8.24,0,0,1-4.887-10.9c1.7-4.624,6.259-6.892,10.6-5.294a7.813,7.813,0,0,1,4.618,10.216c-.572,1.551-1.4,1.573-2.917,1.012l-8.1-2.985c-.423,1.768.47,3.239,2.422,3.959m4.583-4.737a3.087,3.087,0,0,0-1.934-3.779A3.28,3.28,0,0,0,11.9,90.607Z" transform="translate(-3.542 -49.346)" fill="#fff"/>
                <path id="Trazado_130032" data-name="Trazado 130032" d="M15.648,172.133c-3.557,1.713-8.092.058-10.283-4.492-2.125-4.412-.644-9.168,3.05-10.947a4.69,4.69,0,0,1,4.218-.129,2.6,2.6,0,0,1,1.4-2.375c1.489-.717,2.643-.016,3.665,2.107l4.21,8.742c1.023,2.123.838,3.5-.623,4.207a2.368,2.368,0,0,1-2.8-.521,5.063,5.063,0,0,1-2.843,3.408m-1.289-4.509c1.6-.771,2.108-2.748,1.072-4.9-1.023-2.123-2.887-2.89-4.459-2.133S8.8,163.27,9.834,165.421c1.063,2.206,2.927,2.973,4.526,2.2" transform="translate(-2.552 -89.531)" fill="#fff"/>
                <path id="Trazado_130033" data-name="Trazado 130033" d="M9.833,218.3c1.417-.789,2.652-.146,3.8,1.913l8.043,14.439c1.147,2.059,1.071,3.432-.373,4.236s-2.678.161-3.825-1.9L9.434,222.55c-1.147-2.059-1.045-3.447.4-4.251" transform="translate(-5.033 -126.791)" fill="#fff"/>
                <path id="Trazado_130034" data-name="Trazado 130034" d="M21.578,289.577c1.542.5,1.909,1.846,1.178,4.087L17.63,309.375c-.731,2.24-1.79,3.119-3.361,2.606s-1.938-1.856-1.207-4.1l5.126-15.712c.731-2.241,1.819-3.109,3.39-2.6" transform="translate(-7.388 -168.359)" fill="#fff"/>
                <path id="Trazado_130035" data-name="Trazado 130035" d="M13.489,375.48a2.179,2.179,0,0,1,2.925,1.554,4.767,4.767,0,0,1,.078,1.728L14.2,397.552c-.165,1.32-.464,2.169-1.495,2.462a2.187,2.187,0,0,1-2.933-1.584,3.829,3.829,0,0,1-.07-1.7l.731-4.7-7.79-9.588a3.216,3.216,0,0,1-.634-1.22,2.345,2.345,0,0,1,1.613-2.941c1.3-.369,2.051.275,2.992,1.566l4.615,6.26.751-8.2c.11-1.4.561-2.165,1.5-2.433" transform="translate(-1.116 -218.339)" fill="#fff"/>
              </g>
            </g>
            <path id="Trazado_130000" data-name="Trazado 130000" d="M69.411,56.112l1.664,30.319s-44.3,9.4-42.991-15.661c0,0-.739-18.33,41.327-14.658" transform="translate(16.322 32.361)" fill="#b4cbdd"/>
            <path id="Trazado_130001" data-name="Trazado 130001" d="M64.065,84.167C66.993,79.073,65.242,56.2,65.242,56.2s6.245,13.5,5.1,27.379Z" transform="translate(37.271 32.698)" fill="#450d20"/>
            <path id="Trazado_130002" data-name="Trazado 130002" d="M80.7,106.459c-3.1-15.943-2.056-32.913-12.882-35.633-7.107-1.786-11.645-1.855-15.661-4.521-.677-1.068-2.309-3.712-3.869-6.8a35.734,35.734,0,0,1-3.216-8.4l0-.011a7.779,7.779,0,0,1-.09-3.345L12.134,40.5c.049.089.085.169.134.256C13.5,43.231,23.1,62.639,22.92,74.534a21.349,21.349,0,0,1-7.384,4.181A15.043,15.043,0,0,0,7.281,85.3c-2.521,4.389-3.663,11.533,1.859,22.551,11.044,22.036,21.057,42.032,23.834,56.662L90.46,147.044s-6.36-23.1-9.76-40.585" transform="translate(3.018 23.564)" fill="#fa9778"/>
            <path id="Trazado_130003" data-name="Trazado 130003" d="M42.887,56.161c-14.666,6.56-27.925-9.307-28.415-9.9a18.8,18.8,0,0,0,13.26,4.5,31.247,31.247,0,0,0,11.852-2.948c.028-.021.059-.03.087-.051a35.708,35.708,0,0,0,3.216,8.4" transform="translate(8.419 26.913)" fill="#450d20"/>
            <path id="Trazado_130004" data-name="Trazado 130004" d="M92.615,135.66c-8.447,1.509-52.874,9.682-63.608,16.131a1.18,1.18,0,0,1-1.8-.838A113.382,113.382,0,0,0,22.664,130.6c-.168-.549-.351-1.082-.549-1.631-.106-.305-.214-.611-.335-.9-.182-.533-.381-1.052-.595-1.571a55.756,55.756,0,0,0-2.972-6.4C12.221,109.162,3.164,92.269,4.8,80.437A13.388,13.388,0,0,1,11,71.106l10.84-6.844s18.143,5.96,30.981-7.121c0,0,16.1,3.126,17.229,2.928,1.158-.2,7.455,4.559,10.305,25.721,2.471,18.478,11.023,42.475,13.159,48.3a1.176,1.176,0,0,1-.9,1.571" transform="translate(2.678 33.243)" fill="#b4cbdd"/>
            <path id="Trazado_130005" data-name="Trazado 130005" d="M51.471,68.232a15.473,15.473,0,0,0-10.145-9.421l.345-1.485A16.8,16.8,0,0,1,52.9,67.71Z" transform="translate(24.042 33.351)" fill="#450d20"/>
            <path id="Trazado_130006" data-name="Trazado 130006" d="M34.534,104.745l-.875-1.248c.082-.059,8.42-5.982,11.874-13.972l1.4.6c-3.629,8.391-12.042,14.366-12.4,14.616" transform="translate(19.582 52.083)" fill="#450d20"/>
            <path id="Trazado_130007" data-name="Trazado 130007" d="M38.608,108.371l-1.223-.914c.106-.141,10.639-14.25,12.3-19.865l1.46.432C49.41,93.9,39.049,107.782,38.608,108.371" transform="translate(21.749 50.958)" fill="#450d20"/>
            <path id="Trazado_130008" data-name="Trazado 130008" d="M22.947,103.6l-.229,1.509-6.495-.93c-.168-.549-.351-1.082-.549-1.631Z" transform="translate(9.119 59.661)" fill="#450d20"/>
            <path id="Trazado_130009" data-name="Trazado 130009" d="M20.209,99.483l-4.529,4.574c-.182-.535-.381-1.052-.595-1.571l4.041-4.071Z" transform="translate(8.777 57.255)" fill="#450d20"/>
            <path id="Trazado_130010" data-name="Trazado 130010" d="M90.991,36.109c5.58-2.83,9.565-7.292,8.375-10.251-1.335-3.325-6.142-5.155-6.142-5.155.867-1.561,7.547-12.5,6-13.062S85.942,22.781,85.942,22.781c-2.431-4.054-9.62-8.409-6.979-2.678s1.428,15.474,1.428,15.474l.033.006c-.179,1.568-3.418,30.085-7.191,59.887-19.747,1.8-38.268,3.281-48.034,3.5a45.319,45.319,0,0,0-11.18,1.476c-9.7,2.741-11.947,15.544-3.567,21.15,3.289,2.2,8.072,3.837,15.052,3.888a355.987,355.987,0,0,0,44.027-1.9c6.11-.688,12.517-1.612,19.089-2.85a12.821,12.821,0,0,0,10.354-11.749c.365-5.188.585-10.557.6-16.049.06-18.307-2.131-37.951-8.586-56.835" transform="translate(3.074 4.436)" fill="#fa9778"/>
            <path id="Trazado_130011" data-name="Trazado 130011" d="M46.839,64.493V94.858S2.091,101.813,4.772,76.864c0,0,.267-18.342,42.067-12.371" transform="translate(2.709 36.825)" fill="#b4cbdd"/>
            <path id="Trazado_130012" data-name="Trazado 130012" d="M32,87.682c-14.761,0-24.084-6.514-24.2-6.6l.886-1.24c.146.1,14.657,10.2,36.136,4.649l.38,1.476A52.577,52.577,0,0,1,32,87.682" transform="translate(4.538 46.451)" fill="#450d20"/>
            <path id="Trazado_130013" data-name="Trazado 130013" d="M31.324,64.75V92.533l5.331-28.2Z" transform="translate(18.224 37.427)" fill="#450d20"/>
            <path id="Trazado_130014" data-name="Trazado 130014" d="M57.072,49.8c-3.325-11.443-7.588-24.71-15.049-34.207C35.5,7.281,17.111,8.864,8.253,22.989,4.138,29.553,5.64,38.726,8.42,46.675a4.473,4.473,0,0,0-.813-.076c-2.637.134-4.538,2.729-4.571,5.256a6.939,6.939,0,0,0,2.537,5.264,8.738,8.738,0,0,0,4.76,2.017,11.184,11.184,0,0,0,3.364-.669A25.409,25.409,0,0,0,25.863,69.678,22.981,22.981,0,0,0,46,68.729c4.883-2.665,11.582-8.349,11.852-14.34a14.3,14.3,0,0,0-.781-4.593" transform="translate(1.765 6.13)" fill="#fa9778"/>
            <path id="Trazado_130015" data-name="Trazado 130015" d="M28.573,27.894c.531,1.748,1.653,2.955,2.507,2.7s1.115-1.887.584-3.635S30.011,24,29.157,24.261s-1.115,1.885-.584,3.633" transform="translate(16.463 14.094)" fill="#450d20"/>
            <path id="Trazado_130016" data-name="Trazado 130016" d="M23.2,29.527c.531,1.748.269,3.374-.584,3.633s-1.977-.946-2.507-2.694-.27-3.375.584-3.633,1.976.946,2.507,2.694" transform="translate(11.539 15.59)" fill="#450d20"/>
            <path id="Trazado_130017" data-name="Trazado 130017" d="M34.993,32.472a7.913,7.913,0,0,1-1.525,3.357,6.174,6.174,0,0,1-3.111,2.2,6.256,6.256,0,0,1-3.806-.142,11.845,11.845,0,0,1-1.694-.781c-.506-.357-1-.718-1.469-1.107.584.2,1.131.444,1.678.672.577.147,1.121.38,1.689.478a6.671,6.671,0,0,0,3.32-.06,6.518,6.518,0,0,0,2.817-1.761,13.973,13.973,0,0,0,2.1-2.855" transform="translate(13.606 18.891)" fill="#450d20"/>
            <path id="Trazado_130018" data-name="Trazado 130018" d="M30.36,36.82a2.65,2.65,0,0,1-1.46,1.046,2.778,2.778,0,0,1-1.8-.057A8.544,8.544,0,0,0,28.79,37.5a7.251,7.251,0,0,0,1.571-.677" transform="translate(15.769 21.421)" fill="#450d20"/>
            <path id="Trazado_130019" data-name="Trazado 130019" d="M23.578,21.457a3.837,3.837,0,0,0-2.664-.16,7.7,7.7,0,0,0-2.441,1.137A6.515,6.515,0,0,0,16.618,24.4a6.806,6.806,0,0,0-.936,2.431.773.773,0,0,0,1.422.555l.046-.076a9.509,9.509,0,0,1,1.158-1.677,5.587,5.587,0,0,1,1.474-1.2,6.9,6.9,0,0,1,1.773-.732A7.321,7.321,0,0,0,23.472,23l.18-.108a.808.808,0,0,0-.074-1.432" transform="translate(9.113 12.295)" fill="#450d20"/>
            <path id="Trazado_130020" data-name="Trazado 130020" d="M25.6,20.6a3.835,3.835,0,0,1,2.126-1.615,7.756,7.756,0,0,1,2.661-.413,6.523,6.523,0,0,1,2.637.6,6.833,6.833,0,0,1,2.131,1.5.774.774,0,0,1-.873,1.253l-.081-.038a9.506,9.506,0,0,0-1.893-.748,5.561,5.561,0,0,0-1.9-.18,6.794,6.794,0,0,0-1.879.378,7.327,7.327,0,0,1-1.987.479l-.209.011A.808.808,0,0,1,25.6,20.6" transform="translate(14.821 10.803)" fill="#450d20"/>
            <path id="Trazado_130021" data-name="Trazado 130021" d="M26.261,23.879c.636,1.109,1.2,2.232,1.773,3.338s1.155,2.2,1.824,3.209c.161.255.331.5.511.737a3.069,3.069,0,0,1,.579.94,2.151,2.151,0,0,1-.539,2.213,2.608,2.608,0,0,1-1.985.721,5.156,5.156,0,0,1-1.887-.47c1.235.079,2.63.011,3.232-.816a1.271,1.271,0,0,0,.206-1.294,2.372,2.372,0,0,0-.444-.633c-.21-.259-.4-.527-.585-.8a17.515,17.515,0,0,1-1.686-3.464,20.141,20.141,0,0,1-1-3.682" transform="translate(15.278 13.892)" fill="#450d20"/>
            <path id="Trazado_130022" data-name="Trazado 130022" d="M4.727,34.83a13.872,13.872,0,0,1,3.744,1.5,10.8,10.8,0,0,1,2.988,2.488l.677-.834a12.52,12.52,0,0,0-3.2-1.248,4.792,4.792,0,0,0-1.846-.084,2.088,2.088,0,0,0-1.6,1.291,3.136,3.136,0,0,0,.9,3.439,4.563,4.563,0,0,0,3.1,1.265,4.925,4.925,0,0,1-2.616-1.7,2.466,2.466,0,0,1-.473-2.6c.3-.748,1.292-.729,2.289-.506a14,14,0,0,1,2.92,1.106l.028.014a.542.542,0,0,0,.647-.849,9.88,9.88,0,0,0-3.48-2.458,10.119,10.119,0,0,0-4.081-.816" transform="translate(2.75 20.262)" fill="#450d20"/>
            <path id="Trazado_130023" data-name="Trazado 130023" d="M6.115,53.4s2.2-2.785,4.824-1.022a48.186,48.186,0,0,0,5.225,2.812A2.083,2.083,0,0,0,19.1,52.863l-2.123-9.731A10.83,10.83,0,0,1,18.5,34.889c2.885-4.419,8.116-11,14.391-12.452,0,0-.174,3.11-2.08,4.208,0,0,8.815-2.811,11.724-7.336,0,0,2.759,3.271,3.7,4.756,0,0,5.865-11.689-1.893-22.243,0,0-16.645,9.307-23.728,10.959-6.89,1.607-16.5,9.676-14.763,18.693,0,0-13.336,2.282.267,21.922" transform="translate(0 1.06)" fill="#450d20"/>
            <path id="Trazado_130024" data-name="Trazado 130024" d="M112.645,147.965c-4.279-5.433-7.95-9.788-10.8-12.7C93.205,126.42,85.393,118.8,78.511,112.7c-11.618,1.2-23.088,3.323-34.559,5.593l-2.344,16.773,11.338,12.9Z" transform="translate(24.206 65.566)" fill="#f28e6f"/>
            <path id="Trazado_130025" data-name="Trazado 130025" d="M64.731,145.737c-4.024-12.044-7.841-21.958-11.5-29.206l-1.2.236c-7.637,1.523-15.267,3.007-22.855,4.753-1.171.27-2.313.535-3.447.789l-4.114,8.611,1.691,14.816Z" transform="translate(12.578 67.794)" fill="#fa9778"/>
            <path id="Trazado_130026" data-name="Trazado 130026" d="M127.977,151.246l-20.713-24.731a.015.015,0,0,0-.016-.016.253.253,0,0,0-.06-.076,9.854,9.854,0,0,0-1.4-1.677l-3.6-3.323L101,120.34,86.574,107.061,81.452,108.4l-1.587.411L32.3,121.24l-1.479.4-3.659.96-1.511.4-6.738,1.754s-1.4,7.865.8,26.5Z" transform="translate(10.746 62.285)" fill="#69ceff"/>
            <path id="Trazado_130027" data-name="Trazado 130027" d="M26.419,145.532c-.31-2.784-.569-5.414-.788-7.868-.046-.519-.09-1.022-.136-1.525-.794-9.3-.962-15.963-.976-19.256l-1.511.4c.052,4.529.362,14.461,1.89,28.254Z" transform="translate(13.386 67.999)" fill="#450d20"/>
            <path id="Trazado_130028" data-name="Trazado 130028" d="M79.605,120.93a8.221,8.221,0,0,1-4.239,1.174,9.494,9.494,0,0,1-1.723-.168c-7.271-1.326-14.255-10.611-16.359-13.614l1.585-.413c2.349,3.249,8.752,11.375,15.049,12.534a6.837,6.837,0,0,0,4.5-.595Z" transform="translate(33.327 62.778)" fill="#450d20"/>
            <path id="Trazado_130029" data-name="Trazado 130029" d="M29.468,135.052a6.413,6.413,0,0,1-4.6,3.11,2.281,2.281,0,0,1-.32.062l-.214-1.509a2.963,2.963,0,0,0,.4-.077,4.977,4.977,0,0,0,3.447-2.377c2.866-4.742.244-14.546-.762-17.839l1.479-.4c1.082,3.521,3.8,13.736.579,19.027" transform="translate(14.154 67.5)" fill="#450d20"/>
          </g>
        </g>
      </g>
    </g>
  </g>
</svg>
