<svg xmlns="http://www.w3.org/2000/svg" xmlns:xlink="http://www.w3.org/1999/xlink" width="159.736" height="191" viewBox="0 0 159.736 191">
  <defs>
    <clipPath id="clip-path">
      <rect id="Rect치ngulo_37513" data-name="Rect치ngulo 37513" width="123.68" height="145.927" fill="none"/>
    </clipPath>
  </defs>
  <g id="Grupo_157919" data-name="Grupo 157919" transform="translate(-1230 -4240)">
    <g id="Grupo_157917" data-name="Grupo 157917" transform="translate(1230 4240)">
      <g id="Grupo_87397" data-name="Grupo 87397">
        <path id="Rect치ngulo_34437" data-name="Rect치ngulo 34437" d="M0,0H82.736a77,77,0,0,1,77,77V191a0,0,0,0,1,0,0H0a0,0,0,0,1,0,0V0A0,0,0,0,1,0,0Z" fill="#c4d1ff"/>
      </g>
    </g>
    <g id="Grupo_157923" data-name="Grupo 157923" transform="translate(1248 4263)">
      <g id="Grupo_157923-2" data-name="Grupo 157923" clip-path="url(#clip-path)">
        <path id="Trazado_130419" data-name="Trazado 130419" d="M25.789,0a2.969,2.969,0,0,1,1.452,2.987c-.089,1.366,0,2.744.012,4.117a2.824,2.824,0,0,1,.421,1.9q.01,20.614,0,41.229a2.816,2.816,0,0,1-.362,1.778c-.506.337-.792-.1-1.091-.35a10.928,10.928,0,0,0-2.383-1.538,1.63,1.63,0,0,1-1.049-1.664q.032-23.038.018-46.076a1.4,1.4,0,0,1,.093-.412c.026-1,.776-1.465,1.465-1.974Z" transform="translate(-14.093)" fill="#75737b"/>
        <path id="Trazado_130420" data-name="Trazado 130420" d="M288.973,7.1c.017-1.321.109-2.647.03-3.963A3.184,3.184,0,0,1,290.446,0h1.425c.612.454,1.323.824,1.448,1.695a3.2,3.2,0,0,1,.11,1.4c.006,14.9-.014,29.8.037,44.706,0,1.345-.37,2.186-1.626,2.6-1.071.355-1.617,1.615-2.871,1.648a2.519,2.519,0,0,1-.4-1.763q-.018-20.712,0-41.425A4.061,4.061,0,0,1,288.7,7.6a2.409,2.409,0,0,1,.273-.5" transform="translate(-178.452)" fill="#75737b"/>
        <path id="Trazado_130421" data-name="Trazado 130421" d="M122.281,288.281c-3.924-2.1-7.858-4.179-11.769-6.3q-13.245-7.2-26.469-14.427a2.35,2.35,0,0,0-1.336-.408c-2.7-1.348-5.313-2.873-7.987-4.276.024-.578-.486-.646-.834-.836q-17.524-9.564-35.057-19.114c-1.039-.567-2.074-1.143-3.111-1.714-.286-.552.041-.836.469-1.076a37.388,37.388,0,0,1,6.664-.166,43.9,43.9,0,0,1,7.374.18c5.327,2.69,10.5,5.671,15.753,8.509,5.793,3.131,11.562,6.307,17.356,9.436,2.313,1.3,4.622,2.6,6.989,3.8a1.817,1.817,0,0,1,.887.679c1.948,1.608,4.289,2.55,6.471,3.75,10.494,5.774,21.026,11.479,31.536,17.226a4.621,4.621,0,0,0,2.05.44c1.5.092,3.018-.281,4.5.213-.45.575-1.1.464-1.7.471-2.27.025-4.543.061-6.812,0-2.032-.059-3.488.658-4.211,2.635a1.533,1.533,0,0,1-.757.984" transform="translate(-22.023 -148.358)" fill="#afacb3"/>
        <path id="Trazado_130422" data-name="Trazado 130422" d="M13.976,95.217l-.281.827C11.534,99.2,8.646,100.5,4.864,99.5A6.592,6.592,0,0,1,.029,93.34Q-.02,76.108.034,58.876a6.581,6.581,0,0,1,6.674-6.4c1.932-.023,1.889.391,1.889-1.924q0-21.861.007-43.721c0-.555-.162-1.144.2-1.66.022.567.064,1.134.064,1.7q.005,22.052-.021,44.1c0,1.089.217,1.712,1.343,2.076a5.46,5.46,0,0,1,2.847,2.254l.264.069a4.838,4.838,0,0,1,1.375,3.894q.07,7.328,0,14.657c.081,6.354.031,12.707.025,19.06a2.794,2.794,0,0,1-.728,2.229" transform="translate(0 -3.199)" fill="#bab7bd"/>
        <path id="Trazado_130423" data-name="Trazado 130423" d="M287.226,54.814a6.432,6.432,0,0,1,3.015-2.271c1.039-.316,1.213-.907,1.211-1.875q-.04-20.98-.016-41.959c0-1.422.021-2.843.032-4.265.443.544.239,1.189.24,1.785q.018,22.08-.016,44.161c0,1.257.259,1.7,1.625,1.675,4.174-.077,6.96,2.762,6.962,6.919q.007,16.6,0,33.192c0,3.673-1.853,6.12-5.252,6.962a7.05,7.05,0,0,1-8.261-3.68c-.131-.247-.3-.473-.456-.708a3.179,3.179,0,0,1-.717-2.383c-.018-6.289-.066-12.578.016-18.867-.045-4.79-.054-9.581.006-14.371a5.782,5.782,0,0,1,1.352-4.224l.258-.09" transform="translate(-176.601 -2.748)" fill="#bab7bd"/>
        <path id="Trazado_130424" data-name="Trazado 130424" d="M66.485,300.044c1.216-.228,1.988.711,2.869,1.216,1.722.987,3.71,1.55,5.118,3.061Q55.686,314.571,36.9,324.828c-.494.27-.946.617-1.417.928-.106-.093-.234-.179-.269-.32-.711-2.839-2.617-3.791-5.4-3.607-1.927.128-3.869.039-5.8.016-.6-.007-1.246.094-1.715-.445a1.9,1.9,0,0,1,1.25-.158c2.809.349,5.21-.577,7.655-1.932,11.72-6.5,23.517-12.857,35.286-19.266" transform="translate(-13.787 -185.535)" fill="#75737b"/>
        <path id="Trazado_130425" data-name="Trazado 130425" d="M168.405,262.606a45.377,45.377,0,0,1-7.971-4.29c.207-.807.97-1.01,1.561-1.331,6.7-3.63,13.374-7.31,20.079-10.933,3.623-1.957,7.171-4.052,10.882-5.854,2.961-.438,5.935-.14,8.9-.195,1.735-.073,3.47-.031,5.2-.022a2,2,0,0,1,1.577.44,53.944,53.944,0,0,1-6.982,3.988q-16.606,9.135-33.253,18.2" transform="translate(-99.217 -148.396)" fill="#75737b"/>
        <path id="Trazado_130426" data-name="Trazado 130426" d="M15.9,356.07q4.332.013,8.665.026a4.144,4.144,0,0,1,4.527,4.33c.465,3.69-1.9,5.951-5.586,5.685-2.311-.168-4.644-.012-6.967-.037a4.433,4.433,0,0,1-4.567-4.293c-.184-3.412,1.1-5.285,3.928-5.711" transform="translate(-7.393 -220.205)" fill="#504e54"/>
        <path id="Trazado_130427" data-name="Trazado 130427" d="M262.753,360.08c.976-3.3,2.012-4.082,5.439-4.087q4.021-.006,8.042,0c2.947.728,4.1,2.663,3.7,6.186-.272,2.349-2.132,3.842-4.813,3.849-2.37.007-4.739,0-7.109,0-3.465,0-5.122-1.634-5.191-5.1-.005-.283-.043-.565-.065-.848" transform="translate(-162.494 -220.156)" fill="#504e54"/>
        <path id="Trazado_130428" data-name="Trazado 130428" d="M274.943,205.659l-6.857-.048a2.307,2.307,0,0,1-.429-1.738q-.024-8.916,0-17.831a2.938,2.938,0,0,1,.354-1.775,11.658,11.658,0,0,1,6.936.009q0,7.864.007,15.729a27.986,27.986,0,0,0,.278,5.63l-.287.025" transform="translate(-165.52 -113.633)" fill="#afacb3"/>
        <path id="Trazado_130429" data-name="Trazado 130429" d="M268.838,64.067q-.011-21.7-.046-43.405c0-1.117.4-1.354,1.41-1.327,2.181.06,4.364.008,6.546,0q.025,11.171.051,22.343t.054,22.343l-.093.114c-1.746.79-3.591.3-5.389.391-.854.041-1.791.238-2.534-.461" transform="translate(-166.229 -11.956)" fill="#afacb3"/>
        <path id="Trazado_130430" data-name="Trazado 130430" d="M125.259,184.411q-.02,10.649-.04,21.3c-2.492.014-4.985.032-7.477.041a3.529,3.529,0,0,0-1.65.25,24.412,24.412,0,0,1-4.54.22q-27.483,0-54.965,0a36.034,36.034,0,0,1-5.395-.2,3.777,3.777,0,0,0-1.8-.268q-6.382,0-12.763-.006c.516-2.383.249-4.8.272-7.2.045-4.729.024-9.458.031-14.188a3.779,3.779,0,0,1,2.606-.433q31.391-.017,62.783-.008,10.321,0,20.643.009c.786,0,1.633-.166,2.3.481" transform="translate(-22.653 -113.73)" fill="#d0ced2"/>
        <path id="Trazado_130431" data-name="Trazado 130431" d="M131.653,18.606,35,18.641c-.237,0-.474-.021-.71-.032-.012.522-.035,1.044-.035,1.565q0,20.8,0,41.595c0,.615-.053,1.23-.081,1.845.054.018.107.037.159.058a3.4,3.4,0,0,0,2.051.437q42.674.005,85.347,0a3.265,3.265,0,0,0,2.057-.388,4.266,4.266,0,0,0,.391-2.627q.017-19.431.008-38.864c0-.522.016-1.044.013-1.566,0-.9.43-1.279,1.31-1.281,1.329,0,2.658.016,3.986-.013.746-.016,1.537.12,2.158-.481a.555.555,0,0,0,0-.282" transform="translate(-21.133 -11.507)" fill="#d0ced2"/>
      </g>
    </g>
  </g>
</svg>
