<svg xmlns="http://www.w3.org/2000/svg" xmlns:xlink="http://www.w3.org/1999/xlink" width="155" height="89" viewBox="0 0 155 89">
  <defs>
    <clipPath id="clip-path">
      <rect id="Rect치ngulo_37365" data-name="Rect치ngulo 37365" width="52.437" height="74.324" fill="none"/>
    </clipPath>
  </defs>
  <g id="Grupo_157532" data-name="Grupo 157532" transform="translate(-3339 6912)">
    <rect id="Rect치ngulo_36136" data-name="Rect치ngulo 36136" width="155" height="89" transform="translate(3339 -6912)" fill="#e1e8ff"/>
    <g id="Grupo_157531" data-name="Grupo 157531" transform="translate(3390 -6905)">
      <g id="Grupo_157530" data-name="Grupo 157530" clip-path="url(#clip-path)">
        <path id="Trazado_128682" data-name="Trazado 128682" d="M.229,39.188a105.524,105.524,0,0,1,.1-15.276A37.91,37.91,0,0,1,2.736,13.221C5.406,6.673,10.277,2.7,17.087,1.019A35.311,35.311,0,0,1,22.514.15c.134-.012.3.037.364-.15h.871a1.486,1.486,0,0,0,1.016,0h.29a1.11,1.11,0,0,0,.871,0h.581a1.109,1.109,0,0,0,.871,0h.291a1.484,1.484,0,0,0,1.016,0h.726a18.536,18.536,0,0,0,2.957.423,24.7,24.7,0,0,1,10,3.6,19.833,19.833,0,0,1,7.651,10.01,39.4,39.4,0,0,1,2.135,10.242A106.966,106.966,0,0,1,52.2,39.188a36.1,36.1,0,0,1-.64,4.558,37.281,37.281,0,0,1-4.409,10.661,41.992,41.992,0,0,1-7.789,9.383,41.731,41.731,0,0,1-4.033,3.156c-.326.213-.727.7-1.055.391-.3-.276.2-.663.385-.969.726-1.221,1.458-2.438,2.069-3.724A50.174,50.174,0,0,0,39.743,56,23.7,23.7,0,0,0,41.1,51.813a42.885,42.885,0,0,0,1.893-8.03,41.879,41.879,0,0,0,.406-8.965A37.134,37.134,0,0,0,40.26,21.7c-.5-1.127-1.12-2.2-1.581-3.338-.08-.189-.218-.353-.253-.465.011.158.209.335.281.567a17.665,17.665,0,0,1,1.571,5.111c.01.072.025.143.035.215.221,1.641.065,1.814-1.515,1.521a57.04,57.04,0,0,0-9.153-.892c-1.423-.032-2.849-.155-4.273-.109a68.218,68.218,0,0,0-12.329,1.113c-.793.172-.98.035-.96-.778a15.1,15.1,0,0,1,1.331-5.512,36.634,36.634,0,0,0-3.123,7.927,39.1,39.1,0,0,0-1.3,9.1,49.4,49.4,0,0,0,1.862,14.334,13.562,13.562,0,0,0,.467,1.294,34.8,34.8,0,0,0,2.2,6.28A33.566,33.566,0,0,0,15.7,62.642a35.818,35.818,0,0,0,1.973,3.538c.09.143.19.28.269.429.117.22.233.477.034.672-.24.234-.439-.037-.624-.157a42.894,42.894,0,0,1-4.28-3.328A42.068,42.068,0,0,1,3.85,51.808,35.424,35.424,0,0,1,.436,41.471c-.121-.756-.044-1.53-.206-2.282" transform="translate(0)" fill="#684b37"/>
        <path id="Trazado_128683" data-name="Trazado 128683" d="M59.861,0a.834.834,0,0,1-1.016,0Z" transform="translate(-35.097)" fill="#968274"/>
        <path id="Trazado_128684" data-name="Trazado 128684" d="M69.571,0a.834.834,0,0,1-1.016,0Z" transform="translate(-40.888)" fill="#968274"/>
        <path id="Trazado_128685" data-name="Trazado 128685" d="M62.953,0a.655.655,0,0,1-.871,0Z" transform="translate(-37.027)" fill="#775d4b"/>
        <path id="Trazado_128686" data-name="Trazado 128686" d="M66.549,0a.656.656,0,0,1-.871,0Z" transform="translate(-39.172)" fill="#775d4b"/>
        <path id="Trazado_128687" data-name="Trazado 128687" d="M40.9,154.5c.048.43-.274.709-.445,1.043-.626,1.218-1.33,2.392-2,3.656.849-.606,1.7-1.216,2.548-1.817.826-.582,1.491-1.367,2.373-1.877a.847.847,0,0,1,.683.161,25.351,25.351,0,0,1,7.236,5.131,4.963,4.963,0,0,1,1.21,1.694,8.885,8.885,0,0,1,1.227,3.143c.04.429-.077.511-.439.477-.12-.011-.241,0-.362,0H7.692c-.891,0-.9,0-.741-.906a9.965,9.965,0,0,1,1.167-2.712,8.864,8.864,0,0,1,2.564-3A26.791,26.791,0,0,1,16.5,155.7c.234-.114.458-.288.748-.193.513.159.79.617,1.18.932,1.146.925,2.329,1.8,3.548,2.637.186-.309-.056-.494-.179-.708q-.975-1.7-1.953-3.388a.636.636,0,0,1-.121-.477,2.432,2.432,0,0,1,1.522-.6c.484.032.678.431.914.754q3.81,5.213,7.627,10.421c.518.7.538.705,1.048.012q3.826-5.2,7.626-10.421c.236-.323.427-.724.91-.764a2.4,2.4,0,0,1,1.534.6" transform="translate(-4.098 -91.79)" fill="#f4a760"/>
        <path id="Trazado_128688" data-name="Trazado 128688" d="M13.472,121.626a32.012,32.012,0,0,0-6.1,3.817,22.976,22.976,0,0,0-3.03,3.169c-.584-2.81-1.011-5.648-1.456-8.483-.734-4.672-1.374-9.358-1.8-14.069A77.151,77.151,0,0,1,.552,97.1a12.234,12.234,0,0,1,.416,2.452,34.247,34.247,0,0,0,2.545,8.391A40.671,40.671,0,0,0,9.4,117.327c1.03,1.248,2.208,2.356,3.344,3.5.253.256.488.53.731.8" transform="translate(-0.322 -57.914)" fill="#543c2a"/>
        <path id="Trazado_128689" data-name="Trazado 128689" d="M106.466,128.612a24.593,24.593,0,0,0-9.13-6.985c.858-.881,1.729-1.748,2.571-2.644a39.674,39.674,0,0,0,6.138-8.517,35.864,35.864,0,0,0,3.24-8.237,29.3,29.3,0,0,0,.821-4.667c.014-.168-.01-.342.151-.459a58.672,58.672,0,0,1-.355,6.938c-.508,6.305-1.4,12.563-2.411,18.8-.313,1.927-.682,3.846-1.025,5.768" transform="translate(-58.054 -57.914)" fill="#543c2a"/>
        <path id="Trazado_128690" data-name="Trazado 128690" d="M51.6,44.737a36.383,36.383,0,0,1,4.53,12.881,46.455,46.455,0,0,1-1.5,19.826,3.743,3.743,0,0,1-.491,1.118A3.8,3.8,0,0,1,52.8,80.138a17.6,17.6,0,0,1-8.369,4.043,25.715,25.715,0,0,1-8.669.322,3.172,3.172,0,0,0-1.477-.075,7.084,7.084,0,0,0-.023,3.094c.051.28.174.546.035.83-.481.216-.511-.207-.658-.465a18.054,18.054,0,0,1-.04-2.818.967.967,0,0,0-.862-1.155,16.777,16.777,0,0,1-7.986-4.465,1.854,1.854,0,0,1-.59-.887,11.409,11.409,0,0,1-1.07-3.361A46.142,46.142,0,0,1,21.76,61.338,37.669,37.669,0,0,1,26.587,44.88a1.33,1.33,0,0,1,.166-.234c.026-.029.085-.028.228-.07a18.055,18.055,0,0,0-1.755,7.381,66.952,66.952,0,0,1,15.742-1.224,54.848,54.848,0,0,1,11.656,1.145c.465.108.465-.057.46-.4a17.232,17.232,0,0,0-1.363-5.891c-.085-.224-.168-.45-.252-.674-.071-.142-.006-.183.128-.173" transform="translate(-12.932 -26.586)" fill="#fccb9a"/>
        <path id="Trazado_128691" data-name="Trazado 128691" d="M27.826,128.789a16.747,16.747,0,0,0,8.963,5.241c.514.117.7.321.67.858-.05,1.059-.022,2.122-.027,3.184a.459.459,0,0,1-.374.3c-1.1.182-2.156.6-3.278.685l-1.559.464A8.249,8.249,0,0,1,30.841,137c-.814-1.826-1.548-3.688-2.28-5.549a9.732,9.732,0,0,1-.735-2.666" transform="translate(-16.596 -76.813)" fill="#543c2a"/>
        <path id="Trazado_128692" data-name="Trazado 128692" d="M77.942,134.161a16.849,16.849,0,0,0,9.576-5.372,12.3,12.3,0,0,1-.9,3.07,66.874,66.874,0,0,1-3.042,7.034c-.119.232-.181.509-.458.628l-1.56-.464c-1.123-.086-2.179-.494-3.281-.685a.649.649,0,0,1-.5-.372,5.411,5.411,0,0,1-.092-1.57c.063-.758-.239-1.557.25-2.268" transform="translate(-46.316 -76.813)" fill="#543c2a"/>
        <path id="Trazado_128693" data-name="Trazado 128693" d="M95.159,44.356l-.128.173-.31-.592c.321.057.368.249.439.42" transform="translate(-56.493 -26.205)" fill="#fbca9a"/>
        <path id="Trazado_128694" data-name="Trazado 128694" d="M56.99,151.789a24.591,24.591,0,0,1,3.653.986c-.448.157-.616.58-.866.921-2.573,3.509-5.15,7.015-7.7,10.54-.373.515-.555.515-.927,0q-3.948-5.467-7.948-10.9c-.159-.218-.279-.527-.621-.565a24.311,24.311,0,0,1,3.652-.984c.142.2.2.46.435.6a9.431,9.431,0,0,1,1.362,2.029c1.068,1.722,2.092,3.472,3.136,5.209a1.5,1.5,0,0,0,.43.577c.254-.1.323-.348.442-.546,1.438-2.4,2.875-4.8,4.342-7.186.161-.26.271-.576.61-.68" transform="translate(-25.396 -90.531)" fill="#f08a45"/>
        <path id="Trazado_128695" data-name="Trazado 128695" d="M62.6,146.365l-5.38,8.9c-.585-.975-1.12-1.875-1.664-2.77-1.027-1.692-2.06-3.38-3.085-5.073a3.36,3.36,0,0,1-.195-.463A11.816,11.816,0,0,1,52,143.409c0-.231-.08-.49.143-.678.438-.132.793.139,1.148.289a19.07,19.07,0,0,0,8.024,1.543,1.676,1.676,0,0,1,1.25.2l.035,1.6" transform="translate(-31.006 -85.107)" fill="#fccb9a"/>
        <path id="Trazado_128696" data-name="Trazado 128696" d="M31.157,104.079a3.032,3.032,0,0,1-3.072,3.07,3.192,3.192,0,0,1-3.009-3.032,3.04,3.04,0,1,1,6.081-.038" transform="translate(-14.955 -60.267)" fill="#f8a98c"/>
        <path id="Trazado_128697" data-name="Trazado 128697" d="M96.667,104.1a2.972,2.972,0,0,1-3.082,3.037,3.039,3.039,0,1,1,3.082-3.037" transform="translate(-54.048 -60.277)" fill="#f8a98c"/>
        <path id="Trazado_128698" data-name="Trazado 128698" d="M34.327,85.393a2.3,2.3,0,0,1,2.258-2.415,2.451,2.451,0,0,1-.054,4.886,2.318,2.318,0,0,1-2.2-2.472" transform="translate(-20.473 -49.491)" fill="#3b2519"/>
        <path id="Trazado_128699" data-name="Trazado 128699" d="M85.832,83.728a2.088,2.088,0,0,1,2.787-.4,2.627,2.627,0,0,1,.818,3.167,2.194,2.194,0,0,1-2.612,1.284,2.481,2.481,0,0,1-1.638-2.605,2.15,2.15,0,0,1,.406-1.141c.123-.038.19.036.251.123.177.3.279.708.765.56a.364.364,0,0,0,.262-.45c-.121-.475-.542-.367-.876-.421a.337.337,0,0,1-.163-.117" transform="translate(-50.798 -49.481)" fill="#3b2519"/>
        <path id="Trazado_128700" data-name="Trazado 128700" d="M62.8,144.41a21.833,21.833,0,0,1-7.483-.856c-1.009-.331-1.95-.811-2.939-1.178.177-.214.381-.1.6-.073a25.665,25.665,0,0,0,7.976.113,16.334,16.334,0,0,0,1.917-.315L62.8,144.41" transform="translate(-31.238 -84.753)" fill="#fbbb85"/>
        <path id="Trazado_128701" data-name="Trazado 128701" d="M31.12,72.563c-.235-.017-.509.043-.641-.228a.7.7,0,0,1,.151-.743,3.233,3.233,0,0,1,2.316-1.2,6.874,6.874,0,0,1,3.5.259,1.731,1.731,0,0,1,1.287,1.495c-.012.367-.142.67-.568.5a8.532,8.532,0,0,0-5.753-.112,1.415,1.415,0,0,1-.289.026" transform="translate(-18.145 -41.919)" fill="#684b37"/>
        <path id="Trazado_128702" data-name="Trazado 128702" d="M87.866,72.576c-.228-.048-.54-.091-.84-.178a7.591,7.591,0,0,0-4.7.133c-.268.092-.621.37-.857.012a.937.937,0,0,1,.106-1.087,2.507,2.507,0,0,1,1.643-.972,6.874,6.874,0,0,1,4.253.319,2.247,2.247,0,0,1,1,.811.688.688,0,0,1,.131.743c-.143.262-.415.193-.734.22" transform="translate(-48.511 -41.925)" fill="#684b37"/>
        <path id="Trazado_128703" data-name="Trazado 128703" d="M59.8,110.424A3.835,3.835,0,0,1,57,109.689a1.707,1.707,0,0,1-.674-1.224c-.047-.41.091-.513.492-.33a7.053,7.053,0,0,0,3.009.877,7.636,7.636,0,0,0,2.88-.819c.163-.066.334-.282.514-.1.143.142.094.374.05.555a2.369,2.369,0,0,1-1.772,1.628,3.864,3.864,0,0,1-1.693.15" transform="translate(-33.586 -64.427)" fill="#fbbb85"/>
        <path id="Trazado_128704" data-name="Trazado 128704" d="M51.254,121.033a21.808,21.808,0,0,0,5.57,1.017,19.071,19.071,0,0,0,5.623-1.163A2.324,2.324,0,0,1,61,122.151a13.962,13.962,0,0,1-6.058.512,9.271,9.271,0,0,1-2.321-.49,2.208,2.208,0,0,1-1.371-1.14" transform="translate(-30.569 -72.1)" fill="#f6945e"/>
        <path id="Trazado_128705" data-name="Trazado 128705" d="M63.279,128.979a5.138,5.138,0,0,1-.536-.163c-.251-.106-.683-.178-.557-.515.138-.37.419.043.643.064a2.011,2.011,0,0,0,1.254-.144c.1-.059.234-.126.315.006a.27.27,0,0,1-.109.372,2.91,2.91,0,0,1-1.011.38" transform="translate(-37.076 -76.43)" fill="#fbbc86"/>
        <path id="Trazado_128706" data-name="Trazado 128706" d="M86.374,85.345l-.155-.182a.4.4,0,0,1,.239-.305l.209.023a.357.357,0,0,1-.293.464" transform="translate(-51.423 -50.611)" fill="#533b2d"/>
        <path id="Trazado_128707" data-name="Trazado 128707" d="M37.127,85.4a.64.64,0,0,1-.715.626.651.651,0,0,1,.1-1.3.63.63,0,0,1,.615.673" transform="translate(-21.358 -50.532)" fill="#f9f9f9"/>
        <path id="Trazado_128708" data-name="Trazado 128708" d="M86.6,85.262,86.9,84.8c.4-.118.791-.166.986.3a.588.588,0,0,1-.366.877c-.606.187-.827-.193-.913-.712" transform="translate(-51.653 -50.528)" fill="#fbfbfb"/>
      </g>
    </g>
  </g>
</svg>
