<svg xmlns="http://www.w3.org/2000/svg" xmlns:xlink="http://www.w3.org/1999/xlink" width="159.736" height="191" viewBox="0 0 159.736 191">
  <defs>
    <clipPath id="clip-path">
      <rect id="Rect치ngulo_37515" data-name="Rect치ngulo 37515" width="140.253" height="105.829" fill="none"/>
    </clipPath>
  </defs>
  <g id="Grupo_157922" data-name="Grupo 157922" transform="translate(-1230 -4240)">
    <g id="Grupo_157917" data-name="Grupo 157917" transform="translate(1230 4240)">
      <g id="Grupo_87397" data-name="Grupo 87397">
        <path id="Rect치ngulo_34437" data-name="Rect치ngulo 34437" d="M0,0H82.736a77,77,0,0,1,77,77V191a0,0,0,0,1,0,0H0a0,0,0,0,1,0,0V0A0,0,0,0,1,0,0Z" fill="#c4d1ff"/>
      </g>
    </g>
    <g id="Grupo_157927" data-name="Grupo 157927" transform="translate(1239.815 4282.087)">
      <g id="Grupo_157927-2" data-name="Grupo 157927" clip-path="url(#clip-path)">
        <path id="Trazado_130601" data-name="Trazado 130601" d="M266.131,122.895c-.507.546-.369,1.274-.491,1.913a24.954,24.954,0,0,1-28.7,19.6,31.586,31.586,0,0,1-6.758-1.969c-.2-.511.152-.874.385-1.234a53.612,53.612,0,0,0,3.133-5.7c.217-.444.434-.907.975-1.065,1.348-.054,2.566.554,3.871.757a15.483,15.483,0,0,0,8-29.8,15.028,15.028,0,0,0-8.2-.792,6.58,6.58,0,0,1-1.758.233.989.989,0,0,1-.893-.717,54.9,54.9,0,0,0-2.939-6.986.863.863,0,0,1-.041-.784A24.633,24.633,0,0,1,247.911,96c9.968,3.144,16,9.859,17.933,20.179.046.246-.067.567.287.688Z" transform="translate(-125.878 -51.944)" fill="#a41c1c"/>
        <path id="Trazado_130602" data-name="Trazado 130602" d="M174.379,89.518a41.413,41.413,0,0,1,3.307,7.809c.071.259.278.331.489.409A35.572,35.572,0,0,1,179.912,106a44.476,44.476,0,0,1-2.261,19.1,7.21,7.21,0,0,1-1.312,2.679c-1.379,2.054-2.167,4.442-3.637,6.446-.318.434-.574.913-.858,1.371a44.139,44.139,0,0,1-12.124,11.3,38.562,38.562,0,0,1-8.1,3.878,34.637,34.637,0,0,1-9.3-5.92,48.829,48.829,0,0,1-10.858-12.386A52.206,52.206,0,0,1,126.4,87.447c.416-1.21.955-2.367,1.469-3.536.237-.537.476-1.1,1.128-1.3a6,6,0,0,1,1.634-.139q18.618-.007,37.236,0a2.728,2.728,0,0,1,2.082.438c1.527,2.167,3.119,4.29,4.429,6.6" transform="translate(-67.534 -45.107)" fill="#ec4343"/>
        <path id="Trazado_130603" data-name="Trazado 130603" d="M92.679,82.647a58.457,58.457,0,0,0-3.359,9.641,64.4,64.4,0,0,0-1.368,10.362A50.626,50.626,0,0,0,90.293,120.2a46.649,46.649,0,0,0,4.736,10.581,50.071,50.071,0,0,0,8.6,10.882,53.314,53.314,0,0,0,11.183,8.19c.318.173.677.291.859.645q-8.134.032-16.268.062c-3.009.009-6.032-.187-9.022.051a16.551,16.551,0,0,1-9.344-2.338A42.422,42.422,0,0,1,62.6,129.3c-.279-.562-.6-1.1-.9-1.655-2.289-3.841-2.986-8.148-3.641-12.465a39.82,39.82,0,0,1-.3-6.526,49.958,49.958,0,0,1,1.409-9.508,3.1,3.1,0,0,1,.891-1.788,44.941,44.941,0,0,1,7.965-14.6c-.723-.275-1.409.077-1.956-.362a1.549,1.549,0,0,1,1.509-.421A87.26,87.26,0,0,0,76.7,82.2a3.753,3.753,0,0,1,1.991.313,1.968,1.968,0,0,1,.387,1.544c.012,3.559,0,7.118.012,10.677,0,1-.182,1.8-1.3,2.1-.7.19-.825.8-.834,1.416-.043,3.1-.033,6.2-.008,9.307a1.319,1.319,0,0,0,1.526,1.484c.958-.006,1.916.014,2.873.032.816-.057,1.634.018,2.451-.03a.947.947,0,0,0,1.023-1.021c.058-3.361.071-6.722-.007-10.083a1.149,1.149,0,0,0-.944-1.174,1.615,1.615,0,0,1-.949-.5,3.076,3.076,0,0,1-.28-1.6q-.016-5.189,0-10.377A2.736,2.736,0,0,1,83,82.586a.92.92,0,0,1,.471-.253,56.694,56.694,0,0,1,8.634-.021.864.864,0,0,1,.57.335" transform="translate(-31.587 -44.824)" fill="#c83f3f"/>
        <path id="Trazado_130604" data-name="Trazado 130604" d="M144.309,30.443a43.892,43.892,0,0,1,26.8,14.706,1.946,1.946,0,0,1-1.548.371q-20.609.01-41.219,0c-.575,0-1.269.14-1.607-.486-.3-.556.1-1.061.4-1.507,3.561-5.21,7.847-9.593,13.742-12.189a17.2,17.2,0,0,1,3.428-.891" transform="translate(-69.266 -16.652)" fill="#ec4343"/>
        <path id="Trazado_130605" data-name="Trazado 130605" d="M84.556,75.459c-4.233-.134-8.474.1-12.7-.272A4.4,4.4,0,0,1,68.8,68.808a1.1,1.1,0,0,1,1.114.363,5.38,5.38,0,0,0,3.829,1.162q33.069-.013,66.138,0a5.4,5.4,0,0,0,3.832-1.154,1.1,1.1,0,0,1,1.113-.366,4.51,4.51,0,0,1-3.95,6.573c-.36.024-.722.022-1.084.032l-41.323.016-9.611,0c-1.248.7-2.572.349-3.877.288a1.1,1.1,0,0,1-.422-.26" transform="translate(-37.374 -37.611)" fill="#8c1818"/>
        <path id="Trazado_130606" data-name="Trazado 130606" d="M145.392,65.313c-1.624,1.915-3.786,1.98-6.087,1.975q-31.927-.067-63.853,0c-2.306,0-4.457-.085-6.085-1.983,1.05-2.249,2.985-2.651,5.191-2.486a6.076,6.076,0,0,1,2.405-.4c5.332.011,10.671-.172,15.994.039,15.39.613,30.782.095,46.171.284a2.22,2.22,0,0,1,.811.075c2.27-.159,4.347.1,5.452,2.491" transform="translate(-37.943 -34.111)" fill="#a41c1c"/>
        <path id="Trazado_130607" data-name="Trazado 130607" d="M26.553,114.284a44.983,44.983,0,0,0,3.518,18.587,1.4,1.4,0,0,1,.042.406C26.5,129,22.868,124.73,19.268,120.437Q10.35,109.8,1.463,99.142c-.292-.349-.575-.706-.863-1.06a1.923,1.923,0,0,1,.118-2.9c.892-.9,1.716-1.876,2.569-2.819.363-.291.572-.04.782.219,2.6,3.2,5.825,5.757,8.816,8.553,1.4,1.306,2.777,2.634,4.185,3.929,2.783,2.558,5.482,5.211,8.319,7.713a4.565,4.565,0,0,1,1.163,1.5" transform="translate(0 -50.452)" fill="#8b1818"/>
        <path id="Trazado_130608" data-name="Trazado 130608" d="M146.209,44.263c-.41.018-.819.053-1.229.053q-31.463,0-62.925-.005c-.41,0-.819-.031-1.229-.048A48.019,48.019,0,0,1,94.887,33.407a42.631,42.631,0,0,1,16.433-4.428c.293-.018.655.134.838-.259a4.03,4.03,0,0,1,3,0c1.32.508,2.753.265,4.1.617a47,47,0,0,0-6.316,2.822,32.926,32.926,0,0,0-9.5,9.074c-.585.819-1.877,1.672-1.413,2.569.357.689,1.849.227,2.831.229q20.6.027,41.2.012a.252.252,0,0,1,.151.215" transform="translate(-44.211 -15.551)" fill="#c83f3f"/>
        <path id="Trazado_130609" data-name="Trazado 130609" d="M30.523,110.1c-2.293-2.071-4.616-4.11-6.871-6.221C18.7,99.245,13.8,94.562,8.839,89.937,8.253,89.39,8,88.565,7.258,88.182c.711-.82,1.414-1.648,2.136-2.459,1.225-1.377,1.878-1.479,3.4-.438,3.861,2.646,7.7,5.319,11.559,7.974q4.04,2.782,8.092,5.547A51.225,51.225,0,0,0,30.523,110.1" transform="translate(-3.97 -46.267)" fill="#a41c1c"/>
        <path id="Trazado_130610" data-name="Trazado 130610" d="M146.713,13.174a7.717,7.717,0,0,1-3-.005,6.231,6.231,0,0,1-5.053-5.247,6.175,6.175,0,0,1,2.533-6.49,6.145,6.145,0,0,1,7.151-.522c.057.756-.529,1.144-.988,1.525-2.265,1.875-2.255,6.717.007,8.578.46.379,1.047.768.985,1.525a3.123,3.123,0,0,1-1.635.636" transform="translate(-75.768 0)" fill="#8c1818"/>
        <path id="Trazado_130611" data-name="Trazado 130611" d="M156.524,13.634a5.956,5.956,0,0,0-.834-.9c-2.967-2.116-2.961-7.732-.006-9.84a6.047,6.047,0,0,0,.837-.893c4.691,2.814,4.693,8.868,0,11.628" transform="translate(-83.944 -1.097)" fill="#a41c1c"/>
        <path id="Trazado_130612" data-name="Trazado 130612" d="M101.415,83.547l.109.027c.652.5.52,1.226.524,1.89.023,3.146.007,6.292.012,9.438a4.617,4.617,0,0,0,.175,1.753c1.836.521,1.8,1.884,1.757,3.449-.087,3.4-.132,6.807.095,10.207-1.141.013-2.283,0-3.422.048s-1.527-.5-1.517-1.58c.03-3.332.022-6.665,0-10,0-.9.262-1.585,1.271-1.551.969.032.974-.521.973-1.221-.005-4.154.011-8.308.02-12.462" transform="translate(-54.233 -45.699)" fill="#f8a732"/>
        <path id="Trazado_130613" data-name="Trazado 130613" d="M107.089,126.2a2.226,2.226,0,0,1-.558-1.614c.092-3.535-.145-7.076.136-10.607.047-.584-.222-.574-.6-.615-.479-.053-1.008.174-1.427-.239a4.3,4.3,0,0,1,4.1-.019c2.207.1,2.208.1,2.208,2.389,0,3.05-.036,6.1.018,9.15.02,1.153-.321,1.72-1.552,1.6-.768-.073-1.546-.036-2.319-.048" transform="translate(-57.235 -61.589)" fill="#fec23e"/>
        <path id="Trazado_130614" data-name="Trazado 130614" d="M108.6,97.116l-4.1.019q-.054-6.832-.109-13.663a26.724,26.724,0,0,1,4.189-.054q.009,6.85.018,13.7" transform="translate(-57.103 -45.598)" fill="#dfdcdb"/>
      </g>
    </g>
  </g>
</svg>
