<svg xmlns="http://www.w3.org/2000/svg" xmlns:xlink="http://www.w3.org/1999/xlink" width="85" height="85" viewBox="0 0 85 85">
  <defs>
    <clipPath id="clip-path">
      <rect id="Rectángulo_37354" data-name="Rectángulo 37354" width="48.087" height="55.459" fill="none"/>
    </clipPath>
  </defs>
  <g id="Grupo_157485" data-name="Grupo 157485" transform="translate(-9880 10573)">
    <circle id="Elipse_4842" data-name="Elipse 4842" cx="42.5" cy="42.5" r="42.5" transform="translate(9880 -10573)" fill="#3c3fa7"/>
    <g id="Grupo_157484" data-name="Grupo 157484" transform="translate(9898 -10558)">
      <g id="Grupo_157483" data-name="Grupo 157483" clip-path="url(#clip-path)">
        <path id="Trazado_128489" data-name="Trazado 128489" d="M90.887,0l.2.236a.69.69,0,0,1-.018,1.01.744.744,0,0,1-1.021,0,.69.69,0,0,1-.013-1.01l.2-.237Z" transform="translate(-60.664)" fill="#88d14a"/>
        <path id="Trazado_128490" data-name="Trazado 128490" d="M13.725,41.2c-.507-.541-.945-1.018-1.394-1.485-.274-.286-.387-.6-.062-.89.305-.275.595-.13.844.139.5.543,1.027,1.067,1.512,1.626a.547.547,0,0,0,.744.183c.885-.442,1.8-.838,2.651-1.335a2.525,2.525,0,0,0,1.2-2.445.5.5,0,0,0-.285-.418,8.757,8.757,0,0,1-3.769-5.888c-.047-.268-.166-.3-.389-.317A4,4,0,0,1,12.1,23.661a.949.949,0,0,0,.237-.676,43.676,43.676,0,0,1,.093-4.488,9.166,9.166,0,0,1,7.905-7.744,25.908,25.908,0,0,1,3.9-.057,5.03,5.03,0,0,1,3.709,1.866.434.434,0,0,0,.583.146,5.271,5.271,0,0,1,7.2,4.862c.04,1.876.014,3.754,0,5.631a1.24,1.24,0,0,0,.257.787,4,4,0,0,1-2.882,6.371c-.328.03-.42.14-.471.426a8.678,8.678,0,0,1-3.48,5.594.673.673,0,0,0-.293.586,2.673,2.673,0,0,0,1.644,2.728c.717.335,1.42.7,2.131,1.049a.6.6,0,0,0,.842-.166c.47-.57,1-1.087,1.508-1.629.255-.273.548-.39.845-.106s.2.584-.059.854c-.444.471-.888.944-1.4,1.491.907.233,1.746.449,2.585.663.541.138,1.082.278,1.625.41a6.181,6.181,0,0,1,3.139,1.809.512.512,0,0,0,.607.164c.413-.127.833-.231,1.25-.342a.536.536,0,1,1,.286,1.028,6.469,6.469,0,0,1-.831.235c-.367.056-.36.188-.22.489,1.333,2.877,2.94,5.61,4.41,8.415a6.962,6.962,0,0,1,.8,2.222,5.49,5.49,0,0,1-5.395,6.357q-18.587.029-37.173,0a5.52,5.52,0,0,1-4.789-8.19c1.244-2.4,2.546-4.762,3.809-7.147.3-.572.536-1.18.838-1.752.147-.279.043-.323-.2-.376C4.8,45.1,4.492,45,4.183,44.9a.53.53,0,1,1,.257-1.028c.559.13,1.166.481,1.656.356s.842-.742,1.322-1.071a11.3,11.3,0,0,1,3.7-1.307c.834-.22,1.673-.42,2.611-.654" transform="translate(0 -7.194)"/>
        <path id="Trazado_128491" data-name="Trazado 128491" d="M107.728,10.34a.662.662,0,0,1-.683-.723c0-.326-.057-.5-.441-.477a.624.624,0,0,1-.74-.665.623.623,0,0,1,.754-.648c.34.029.43-.114.427-.436,0-.422.174-.738.658-.752a.643.643,0,0,1,.716.749c-.01.385.155.457.483.441a.6.6,0,0,1,.693.65.613.613,0,0,1-.691.661c-.39-.024-.481.134-.49.493a.665.665,0,0,1-.685.708" transform="translate(-71.498 -4.483)" fill="#70d5f8"/>
        <path id="Trazado_128492" data-name="Trazado 128492" d="M7.743,94.534a2.631,2.631,0,0,0-2.088,2.017,2.743,2.743,0,0,0-2.033-2.026,2.61,2.61,0,0,0,2.016-1.984,2.745,2.745,0,0,0,2.106,1.993" transform="translate(-2.446 -62.5)" fill="#f4c74c"/>
        <path id="Trazado_128493" data-name="Trazado 128493" d="M29.172,88.022a.564.564,0,0,1,.474.213c.429.463.862.923,1.293,1.384a.51.51,0,0,1,.016.806.528.528,0,0,1-.809-.076c-.445-.473-.891-.946-1.331-1.423a.5.5,0,0,1-.11-.6.492.492,0,0,1,.468-.308" transform="translate(-19.349 -59.448)" fill="#010101"/>
        <path id="Trazado_128494" data-name="Trazado 128494" d="M114.28,88.463a.609.609,0,0,1-.191.487l-1.3,1.383a.531.531,0,0,1-.809.083.507.507,0,0,1,.01-.8q.665-.712,1.329-1.425a.548.548,0,0,1,.645-.135.492.492,0,0,1,.311.413" transform="translate(-75.501 -59.433)" fill="#010101"/>
        <path id="Trazado_128495" data-name="Trazado 128495" d="M115.995,67.348a1.848,1.848,0,0,0,1.31-1.255,1.878,1.878,0,0,0,1.4,1.25,1.963,1.963,0,0,0-1.4,1.359,1.848,1.848,0,0,0-1.305-1.354" transform="translate(-78.341 -44.638)" fill="#f4c84e"/>
        <path id="Trazado_128496" data-name="Trazado 128496" d="M21.09,81.571a.761.761,0,0,1-.726-.729.739.739,0,1,1,1.477.025.764.764,0,0,1-.751.7" transform="translate(-13.753 -54.102)" fill="#fb6880"/>
        <path id="Trazado_128497" data-name="Trazado 128497" d="M9.566,107.911a4.641,4.641,0,0,1,2.153-1.249c1.566-.421,3.145-.793,4.714-1.2a.631.631,0,0,1,.7.256q1.694,1.828,3.4,3.639c.407.432.869.409,1.038-.039.117-.31-.07-.514-.259-.715q-1.446-1.54-2.893-3.08c-.134-.143-.263-.289-.414-.454a4.785,4.785,0,0,1,1.5-.69c.539-.039.682.669,1.02,1.027a7.815,7.815,0,0,0,12.087-.762c.224-.309.378-.4.717-.184.365.228.77.391,1.215.611-.755.809-1.488,1.6-2.223,2.38q-.574.613-1.152,1.222c-.257.27-.356.566-.053.85s.593.159.846-.111c1.161-1.239,2.327-2.472,3.479-3.719a.621.621,0,0,1,.7-.229c1.533.406,3.074.784,4.609,1.183a5.1,5.1,0,0,1,2.256,1.277c-1.091.305-2.12.6-3.15.882-.659.183-1.318.369-1.981.539-.387.1-.648.3-.522.722.116.39.44.427.795.329,1.719-.475,3.442-.938,5.157-1.428.357-.1.56-.055.721.3,1.381,3.057,3.108,5.935,4.643,8.912a4.456,4.456,0,0,1-4.044,6.661c-2.349.007-4.7-.011-7.046.013-.423,0-.5-.124-.493-.513.021-1.823.025-3.646,0-5.469-.007-.527.184-.692.694-.689,2.547.016,5.095.007,7.642.007a4.686,4.686,0,0,0,.487-.01c.33-.035.543-.205.53-.559a.5.5,0,0,0-.525-.5c-.144-.012-.289-.008-.433-.008-1.825,0-3.65-.011-5.474.008-.382,0-.571-.059-.516-.493.062-.494-.209-1.16.11-1.446.274-.245.925-.081,1.41-.078.406,0,.758-.088.748-.564-.009-.44-.347-.543-.732-.523a.864.864,0,0,1-.108,0c-.462-.033-1.076.2-1.344-.1-.227-.256-.068-.856-.077-1.3,0-.217,0-.433,0-.65,0-.38-.158-.651-.561-.641-.37.008-.524.267-.523.625,0,.524-.026,1.049.008,1.57.026.392-.07.519-.492.512-1.662-.028-3.324-.009-4.986-.014a.636.636,0,0,0-.642.3.479.479,0,0,0,.02.512.674.674,0,0,0,.663.27c1.662,0,3.324.007,4.986-.009.344,0,.509.074.445.439a.966.966,0,0,0,0,.162c0,.433.131.942-.051,1.278-.2.367-.756.071-1.149.166a1.211,1.211,0,0,0-.822.474c-.342.588-.815.448-1.306.319a1.165,1.165,0,0,1-.557-.32,3.683,3.683,0,0,0-3.274-.865,1,1,0,0,0-.95.837c-.071.421-.27.481-.619.45a4.765,4.765,0,0,0-.7,0,1.927,1.927,0,0,0-1.856,1.726,19.22,19.22,0,0,0,.018,3.514,3.24,3.24,0,0,0,.705,1.545H24.663a4.1,4.1,0,0,0,.806-3.089c-.01-.541.013-1.084-.006-1.624a2.013,2.013,0,0,0-2.148-2.075,3.858,3.858,0,0,0-.433,0c-.368.039-.565-.042-.653-.478a1.062,1.062,0,0,0-1.077-.826,3.745,3.745,0,0,0-3.207.934,1.615,1.615,0,0,1-1.318.37.276.276,0,0,1-.265-.142,1.539,1.539,0,0,0-1.659-.767c-.5.052-.635-.13-.579-.6a4.277,4.277,0,0,0,0-.973c-.045-.4.122-.466.484-.461,1.608.019,3.216.006,4.824.011.419,0,.871,0,.858-.558S19.813,114,19.4,114c-1.608,0-3.216-.007-4.824.009-.335,0-.482-.058-.457-.434.035-.521,0-1.046.011-1.57.006-.395-.122-.7-.561-.7-.4.007-.532.3-.527.676.007.523-.017,1.048.009,1.57.016.336-.058.491-.434.456s-.758,0-1.137-.009-.705.118-.7.558c.007.4.3.534.675.528.415-.006.831.01,1.246-.006.243-.009.362.041.348.32a10.023,10.023,0,0,0,0,1.3c.029.367-.14.4-.443.4-1.861-.011-3.721-.006-5.582,0a2.838,2.838,0,0,0-.539.034.46.46,0,0,0-.387.457.469.469,0,0,0,.353.538,2.317,2.317,0,0,0,.59.051q3.821,0,7.642,0c.724,0,.761.038.761.767,0,1.805-.011,3.61.009,5.415,0,.374-.086.482-.471.479-2.385-.019-4.77,0-7.154-.012A4.431,4.431,0,0,1,3.828,118.3c1.244-2.439,2.573-4.834,3.852-7.255.3-.572.57-1.165.827-1.759.161-.371.38-.432.76-.323,1.68.483,3.369.934,5.052,1.4.294.082.57.137.79-.136.27-.336.092-.738-.414-.88-1.561-.44-3.126-.864-4.688-1.3-.136-.038-.268-.086-.44-.142" transform="translate(-2.229 -70.468)" fill="#70d5f8"/>
        <path id="Trazado_128498" data-name="Trazado 128498" d="M65.243,44.834c-.041,1.123.071,2.5-.058,3.865a7.784,7.784,0,0,1-15.291,1.16,7.145,7.145,0,0,1-.237-1.819c0-2.076.012-4.151-.008-6.227,0-.407.1-.443.483-.391a9.322,9.322,0,0,0,8.7-2.9c.116-.127.183-.306.415-.108a9.18,9.18,0,0,0,5.532,2.045c.43.03.484.192.478.557-.02,1.191-.008,2.382-.008,3.82" transform="translate(-33.532 -25.882)" fill="#f8cfb3"/>
        <path id="Trazado_128499" data-name="Trazado 128499" d="M62.555,25.025a4.713,4.713,0,0,0-1.545-.438c-.232-.021-.292-.112-.312-.332-.1-1.095-.286-1.243-1.347-1.326a8.515,8.515,0,0,1-5.258-1.993c-.538-.482-1.1-.374-1.627.274a7.388,7.388,0,0,1-3.741,2.455,8.75,8.75,0,0,1-4.225.191c-.618-.123-1.2-.125-1.509.579a.222.222,0,0,1-.216.136,7.943,7.943,0,0,0-1.449.294c0-2.273-.254-4.544.934-6.624a7.959,7.959,0,0,1,7-4.261,15.934,15.934,0,0,1,3.241.068,4.129,4.129,0,0,1,2.79,1.785c.394.562.488.586,1.107.278a4.214,4.214,0,0,1,6.155,3.75c.016,1.694,0,3.387,0,5.164" transform="translate(-27.896 -9.409)" fill="#5b5d60"/>
        <path id="Trazado_128500" data-name="Trazado 128500" d="M47.154,152.824c-.9,0-1.807-.011-2.71.006-.3.006-.4-.068-.4-.386q.023-2.491,0-4.981c0-.325.117-.388.407-.383a2.469,2.469,0,0,0,1.86-.742,2.727,2.727,0,0,1,2.23-.556c.205,0,.2.165.237.3a1.192,1.192,0,0,0,1.328,1.005c1.743.025,1.794.078,1.794,1.811,0,.56.012,1.119,0,1.679a2.147,2.147,0,0,1-2.3,2.246c-.813,0-1.626,0-2.439,0" transform="translate(-29.746 -98.454)" fill="#f8cfb3"/>
        <path id="Trazado_128501" data-name="Trazado 128501" d="M84.644,152.8c-.849,0-1.7.006-2.547,0a2.113,2.113,0,0,1-2.222-2.1c-.04-.883-.028-1.769,0-2.652.018-.65.378-.965,1.043-.98.271-.006.542,0,.813,0a1.148,1.148,0,0,0,1.243-.97c.063-.267.169-.332.431-.345a2.693,2.693,0,0,1,2.234.714,2.214,2.214,0,0,0,1.694.595c.316-.011.39.1.388.4q-.019,2.491,0,4.982c0,.283-.077.373-.364.367-.9-.017-1.807-.006-2.71-.006" transform="translate(-53.929 -98.43)" fill="#f8cfb3"/>
        <path id="Trazado_128502" data-name="Trazado 128502" d="M56.695,95.977a3.62,3.62,0,0,0,1.862-2.843c.025-.263.118-.286.346-.2a8.777,8.777,0,0,0,6.838-.1c.275-.115.34-.063.361.213a3.456,3.456,0,0,0,1.655,2.764c.235.152.153.254.034.407a6.756,6.756,0,0,1-11.1-.25" transform="translate(-38.291 -62.666)" fill="#f8cfb3"/>
        <path id="Trazado_128503" data-name="Trazado 128503" d="M40.248,52.993c0,.846-.011,1.692.006,2.537.006.292-.048.411-.38.38a2.944,2.944,0,0,1,.062-5.844c.3-.022.319.1.317.336-.009.863,0,1.727,0,2.591" transform="translate(-25.206 -33.812)" fill="#f8cfb3"/>
        <path id="Trazado_128504" data-name="Trazado 128504" d="M101,52.971c0-.846.015-1.693-.007-2.539-.009-.341.123-.384.415-.339a2.942,2.942,0,0,1,.106,5.8c-.381.072-.546.006-.525-.442.04-.826.011-1.656.011-2.485" transform="translate(-68.205 -33.822)" fill="#f8cfb3"/>
        <path id="Trazado_128505" data-name="Trazado 128505" d="M68.919,122.561a2.758,2.758,0,0,1-.759,1.823c-1.024,1.044-2.053,2.082-3.1,3.1a1.187,1.187,0,0,1-1.822-.026c-1.006-.986-2.007-1.976-2.986-2.987A2.869,2.869,0,0,1,63.774,120a.671.671,0,0,0,.81-.023,2.9,2.9,0,0,1,4.335,2.587" transform="translate(-40.12 -80.76)"/>
        <path id="Trazado_128506" data-name="Trazado 128506" d="M93.38,123.538c-.422.01-.63-.1-.7-.4a.477.477,0,0,1,.31-.613q1.585-.539,3.182-1.045a.482.482,0,0,1,.614.315.459.459,0,0,1-.213.651c-1.1.4-2.212.755-3.2,1.087" transform="translate(-62.584 -82.031)" fill="#000101"/>
        <path id="Trazado_128507" data-name="Trazado 128507" d="M46.182,123.568c-.091-.026-.23-.062-.366-.106-.908-.294-1.813-.6-2.723-.883-.375-.118-.564-.357-.434-.73.12-.343.4-.42.751-.3.974.324,1.953.632,2.929.951a.54.54,0,0,1,.437.646c-.052.292-.254.419-.594.425" transform="translate(-28.784 -82.056)" fill="#000101"/>
        <path id="Trazado_128508" data-name="Trazado 128508" d="M67.447,75.324a6.469,6.469,0,0,1-2.676-.558c-.337-.149-.563-.386-.41-.758.168-.406.5-.383.863-.23a5.589,5.589,0,0,0,4.515,0c.338-.143.658-.179.836.191.19.395-.038.643-.4.8a6.456,6.456,0,0,1-2.731.556" transform="translate(-43.435 -49.758)" fill="#010000"/>
        <path id="Trazado_128509" data-name="Trazado 128509" d="M62.55,58.505a1.077,1.077,0,1,1-2.154-.041,1.077,1.077,0,0,1,2.154.041" transform="translate(-40.79 -38.781)" fill="#010101"/>
        <path id="Trazado_128510" data-name="Trazado 128510" d="M82.175,59.572A1.089,1.089,0,0,1,81.1,58.509a1.077,1.077,0,1,1,1.075,1.062" transform="translate(-54.773 -38.78)" fill="#010101"/>
        <path id="Trazado_128511" data-name="Trazado 128511" d="M62.738,124.707a1.761,1.761,0,0,1,.95-1.576,1.8,1.8,0,0,1,1.987.162c.723.517.756.522,1.492-.01a1.842,1.842,0,0,1,2.454.217,1.751,1.751,0,0,1-.052,2.445c-.95.986-1.936,1.938-2.9,2.915-.2.208-.332.185-.526-.012-.96-.976-1.934-1.939-2.9-2.91a1.848,1.848,0,0,1-.511-1.231" transform="translate(-42.372 -83.008)" fill="#fb657d"/>
      </g>
    </g>
  </g>
</svg>
