<svg xmlns="http://www.w3.org/2000/svg" xmlns:xlink="http://www.w3.org/1999/xlink" width="159.736" height="191" viewBox="0 0 159.736 191">
  <defs>
    <clipPath id="clip-path">
      <rect id="Rect치ngulo_37514" data-name="Rect치ngulo 37514" width="103.729" height="175.604" fill="none"/>
    </clipPath>
  </defs>
  <g id="Grupo_157921" data-name="Grupo 157921" transform="translate(-1230 -4240.5)">
    <g id="Grupo_157917" data-name="Grupo 157917" transform="translate(1230 4240.5)">
      <g id="Grupo_87397" data-name="Grupo 87397">
        <path id="Rect치ngulo_34437" data-name="Rect치ngulo 34437" d="M0,0H82.736a77,77,0,0,1,77,77V191a0,0,0,0,1,0,0H0a0,0,0,0,1,0,0V0A0,0,0,0,1,0,0Z" fill="#c4d1ff"/>
      </g>
    </g>
    <g id="Grupo_157926" data-name="Grupo 157926" transform="translate(1258 4247.5)">
      <g id="Grupo_157926-2" data-name="Grupo 157926" clip-path="url(#clip-path)">
        <path id="Trazado_130569" data-name="Trazado 130569" d="M138.08,0c1.917,1.4,2.163,2.142,1.346,4.332-1.25,3.355-2.524,6.7-3.788,10.052a4.925,4.925,0,0,1-4.76-2.041c1.2-3.224,2.418-6.439,3.572-9.679A5.243,5.243,0,0,1,136.365,0Z" transform="translate(-70.465)" fill="#fd0364"/>
        <path id="Trazado_130570" data-name="Trazado 130570" d="M24.737,170.536a44.447,44.447,0,0,1-10.15-16.22,1.092,1.092,0,0,0-1.254-.852c-1.141.035-2.283.009-3.425.008-4.987,0-9.063-3.023-9.754-7.6-.723-4.782,1.062-8.819,6.186-10.909a5.4,5.4,0,0,0,.579-.322c.469-.558,1.128-.477,1.744-.495,1.084-.031,2.17.009,3.255-.016,4.336-.1,7.139-2.906,7.212-7.274.048-2.855-.053-5.712.023-8.565.232-8.751,3.993-15.667,11-20.858a4.717,4.717,0,0,1,1.829-.907c2.642.014,5.136.872,7.687,1.389,4.9.993,9.766,2.127,14.662,3.132a6.146,6.146,0,0,1,2.245.761c.775,1.077.673,2.369.859,3.588.91,5.941,2.248,11.74,5.388,16.976,3.585,5.98,8.648,9.874,15.59,11.157a6.62,6.62,0,0,1,1.961.568,1.8,1.8,0,0,1,.693,1.5c.288,7.226.006,14.375-2.89,21.168q-7.861,18.443-27.2,23.708c-1.045.284-2.1.517-3.153.781a12.379,12.379,0,0,1-4.711-.59,38.1,38.1,0,0,1-17.272-8.851,3.314,3.314,0,0,1-1.1-1.278" transform="translate(0 -51.973)" fill="#fedece"/>
        <path id="Trazado_130571" data-name="Trazado 130571" d="M66.635,56.475q-11.642-2.5-23.283-4.994c-.5-.107-1.008-.159-1.513-.237-2.266.284-4.351-.618-6.508-1.024C31.825,49.557,28.356,48.713,24.86,48a2.486,2.486,0,0,1-1.789-.844,52.215,52.215,0,0,1-3.905-11.266c-.881-4.558-1.03-9.113.944-13.426,2.577-5.628,7.3-8.594,13.172-9.865a14.743,14.743,0,0,1,5.226-.671c-.006.535-.41.426-.338.418a72.8,72.8,0,0,1,15.346,3.823A109.823,109.823,0,0,1,66.8,21.645,105.8,105.8,0,0,1,90.342,36.788a42.717,42.717,0,0,1,9.619,11.476c2.15,3.918,3.009,8.013,1.055,12.3A5.888,5.888,0,0,1,98.8,63.533a6.905,6.905,0,0,1-2.475-.2c-9.238-2-18.489-3.94-27.723-5.956a3.123,3.123,0,0,1-1.971-.905" transform="translate(-9.985 -6.385)" fill="#fd76a7"/>
        <path id="Trazado_130572" data-name="Trazado 130572" d="M143,317.692l-15.673-.029c-.981-1.051-.513-2.356-.607-3.557a14.263,14.263,0,0,1,.023-2.2q-.073-2.6,0-5.2c-.056-2.608-.063-5.216,0-7.823-.049-1.732-.053-3.463,0-5.194-.052-2.6-.064-5.194,0-7.791q-.06-1.453,0-2.905c.022-3.961-.242-7.926.145-11.88.28-.747.963-.914,1.624-1.07a38.6,38.6,0,0,0,12.77-5.432c.594-.4,1.307-1.128,2.036-.1.463,2.183.162,4.392.22,6.586.065,2.427-.04,4.857.066,7.284.051.826-.12,1.643-.1,2.469.053,1.675.058,3.35,0,5.025q-.024,3.889,0,7.775.1,2.6,0,5.2c-.025,2.608-.015,5.216,0,7.825.072,1.735.057,3.469.011,5.205-.147,1.939.54,3.953-.521,5.809" transform="translate(-68.205 -142.134)" fill="#fd76a7"/>
        <path id="Trazado_130573" data-name="Trazado 130573" d="M19.886,88.317l18.769,4.091A25.5,25.5,0,0,0,26.57,111.154c-.476,3.564-.146,7.176-.174,10.766-.043,5.348-2.907,8.238-8.233,8.249-1.481,0-2.963.036-4.443.054-.618-.017-1.062-.12-1.035-.949.264-8.077-.637-16.193.71-24.231a42.15,42.15,0,0,1,6.491-16.727" transform="translate(-6.8 -47.55)" fill="#a96a51"/>
        <path id="Trazado_130574" data-name="Trazado 130574" d="M120.056,63.341c3.809-4.909,3.465-9.945.532-15.11-4.46-7.854-11.348-13.187-18.647-18.105A120.429,120.429,0,0,0,73.331,16.2,78.8,78.8,0,0,0,57.915,12.53c.558-.517,1.336.009,1.79-.553,8.823-.255,17.194,1.92,25.476,4.657,2.14.707,4.13,1.87,6.413,2.146a11.56,11.56,0,0,0,4.76,2.041c.14.172.245.421.425.5,4.952,2.262,9.627,5.034,14.329,7.755,5.623,3.9,11.159,7.913,15.7,13.1,2.909,3.326,5.383,6.907,6.286,11.365.843,4.167-.5,7.612-3.356,10.591q-.59.616-1.177,1.234c-1.028.442-2.008-.012-2.991-.191-1.448-.263-2.878-.621-4.312-.954-.491-.114-1.208-.048-1.2-.887" transform="translate(-31.182 -6.438)" fill="#fd5693"/>
        <path id="Trazado_130575" data-name="Trazado 130575" d="M80.868,266.922q.014,6.123.027,12.246c-2.189,1-4.572.889-6.846.85a63.253,63.253,0,0,1-18.2-2.729,45.335,45.335,0,0,1-12.439-6.213c-1.191-.9-2.631-1.688-2.652-3.506a6.256,6.256,0,0,1,1.56-5.827,58.91,58.91,0,0,1,4.258-4.886c2.34,1.581,4.373,3.568,6.828,5.009a37.959,37.959,0,0,0,16.136,5.381c3.167-.328,6.37.01,9.529-.533a1.972,1.972,0,0,1,1.8.207" transform="translate(-21.841 -138.293)" fill="#fd5693"/>
        <path id="Trazado_130576" data-name="Trazado 130576" d="M114.666,224.2a31.491,31.491,0,0,1-11.326.325c3.9-1.18,7.894-2.064,11.539-4.045,11.4-6.193,18.36-15.548,20.779-28.345.814-4.305.5-8.606.627-12.914a2.223,2.223,0,0,0-.352-1.3,1.241,1.241,0,0,1,1.238-.4c1.983.269,3.978.091,5.966.184,1.178.026,2.392-.257,3.5.4a1.685,1.685,0,0,1,.4,1.1c.041,5.412.487,10.85-1.043,16.161a3.526,3.526,0,0,1-.805,1.673,72.363,72.363,0,0,1-4.018,8.644,54.884,54.884,0,0,1-6.586,8.472,9.534,9.534,0,0,1-4.151,3.445c-3.752,2.26-7.509,4.512-11.807,5.622-1.316.34-2.641.643-3.961.964" transform="translate(-55.639 -95.567)" fill="#fecdbe"/>
        <path id="Trazado_130577" data-name="Trazado 130577" d="M68.141,338.854q0,3.912,0,7.824c-.86.787-1.932.582-2.938.583q-21.822.02-43.644.009c-.57,0-1.143.034-1.711,0-1.388-.083-1.988.539-1.908,1.927a5.78,5.78,0,0,1-.191,2.206,1.117,1.117,0,0,1-.413.518,8.814,8.814,0,0,1-.216-4.715c.434-2.8.149-5.579.277-8.362a3.109,3.109,0,0,1,2.267-.563q23.107-.017,46.214,0a3.051,3.051,0,0,1,2.262.574" transform="translate(-9.102 -182.127)" fill="#f2eff2"/>
        <path id="Trazado_130578" data-name="Trazado 130578" d="M69.126,310.672l0,7.8a3.1,3.1,0,0,1-2.267.558q-22.922.017-45.845,0a3.162,3.162,0,0,1-2.276-.53,39.5,39.5,0,0,1,1.952-8.259,7.208,7.208,0,0,1,2.033-.215q21.742.015,43.483.016c1,0,2.082-.219,2.915.629" transform="translate(-10.091 -166.915)" fill="#f2eff2"/>
        <path id="Trazado_130579" data-name="Trazado 130579" d="M68.645,367.063q.042,2.9.084,5.791-24.714.019-49.429.06c-1.181,0-1.454-.463-1.415-1.523.052-1.422-.024-2.848-.045-4.272l.07-.063a3.123,3.123,0,0,1,2.271-.547q23.1-.017,46.2,0a3.113,3.113,0,0,1,2.269.553" transform="translate(-9.605 -197.326)" fill="#f2eff2"/>
        <path id="Trazado_130580" data-name="Trazado 130580" d="M18.287,328.364l50.388-.027v5.168l-50.744-.011a20.587,20.587,0,0,1,.356-5.13" transform="translate(-9.636 -176.778)" fill="#7a6d79"/>
        <path id="Trazado_130581" data-name="Trazado 130581" d="M191.461,148.7l-3.424-.122a2.93,2.93,0,0,1-.543-2.266c-.021-3.429-.035-6.858,0-10.287a103.92,103.92,0,0,0-.654-11.279c-.072-.722-.322-1.474.16-2.162l2.4.319c2.76.992,5.706,1.208,8.506,2.033.854,7.537.21,15.1.432,22.651.024.816-.235,1.157-1.031,1.1a7.8,7.8,0,0,1-5.844.007" transform="translate(-100.525 -66)" fill="#925b44"/>
        <path id="Trazado_130582" data-name="Trazado 130582" d="M195.387,179.15l5.844-.007c3.371,1.388,5.9,3.534,6.727,7.29a9.521,9.521,0,0,1-9.173,11.515c-1.594.007-3.189-.009-4.784-.015.346-1.833.726-3.659,1.031-5.5.731-4.41.179-8.858.355-13.286" transform="translate(-104.451 -96.451)" fill="#fedece"/>
        <path id="Trazado_130583" data-name="Trazado 130583" d="M71.4,304.688q-23.187-.006-46.373-.028c-.687,0-1.5.358-2.058-.4a35.519,35.519,0,0,1,2.152-4.8,3.179,3.179,0,0,1,2.263-.549q7.5-.02,14.992,0a18.927,18.927,0,0,1,3.692.529,72.516,72.516,0,0,0,18.866,2.7c2.162,0,4.325-.215,6.487-.332l-.019,2.882" transform="translate(-12.368 -160.931)" fill="#7a6d79"/>
        <path id="Trazado_130584" data-name="Trazado 130584" d="M162.02,260.376l4.151-3.445a39.21,39.21,0,0,1,5.16,6.1,5.612,5.612,0,0,1,.629,4.575c-.149,1.791-1.517,2.71-2.744,3.664a29.214,29.214,0,0,1-3.673,2.421c-1.072.32-1.892,1.365-3.165,1.113-.554-.508-.324-1.177-.328-1.776-.026-4.218-.024-8.436-.03-12.654" transform="translate(-87.225 -138.333)" fill="#fd5693"/>
        <path id="Trazado_130585" data-name="Trazado 130585" d="M162.235,332.829q0-2.554,0-5.107a1.576,1.576,0,0,1,.533-.371,79.833,79.833,0,0,1,9.065-.158c2.882-.093,5.763-.033,8.644-.031a2.545,2.545,0,0,1,1.9.56,19.718,19.718,0,0,1,.364,5.134,2.985,2.985,0,0,1-2.093.533c-5.557.056-11.112-.109-16.669-.073a2.14,2.14,0,0,1-1.745-.486" transform="translate(-87.348 -176.134)" fill="#7a6d79"/>
        <path id="Trazado_130586" data-name="Trazado 130586" d="M162.232,339.464l20.507.027c-.216,3.776.311,7.528.348,11.3.006.6.166,1.25-.266,1.8a1,1,0,0,1-.412-.477,5.074,5.074,0,0,1-.205-1.688c-.073-2.5-.085-2.518-2.662-2.522-4.9-.008-9.806.008-14.709-.012-.893,0-1.845.172-2.6-.535q0-3.943,0-7.886" transform="translate(-87.345 -182.769)" fill="#e1dde1"/>
        <path id="Trazado_130587" data-name="Trazado 130587" d="M162.229,304.647q0-2.578,0-5.156c1.152-.9,2.506-.433,3.773-.549.677-.061,1.358.057,2.038.007,2.716-.054,5.432-.019,8.148-.017a2.953,2.953,0,0,1,2.088.533,27.43,27.43,0,0,1,2.132,4.807c-.228.894-1,.845-1.643.86-5.1.12-10.19-.064-15.286-.054a1.641,1.641,0,0,1-1.25-.431" transform="translate(-87.345 -160.939)" fill="#7a6d79"/>
        <path id="Trazado_130588" data-name="Trazado 130588" d="M162.229,310.891c5.482.009,10.964.027,16.446.015.587,0,1.277.268,1.733-.39a37.314,37.314,0,0,1,1.966,8.254l-10.625-.085c-.789-1.19-.694-2.622-1.048-3.93-.822-3.038-.774-3.052-3.837-3.052-.742,0-1.485.03-2.225,0-1.166-.052-1.664.476-1.638,1.631s.018,2.284-.005,3.425a2.634,2.634,0,0,1-.485,1.94.624.624,0,0,1-.279.075q0-3.94,0-7.88" transform="translate(-87.345 -167.183)" fill="#e1dde1"/>
        <path id="Trazado_130589" data-name="Trazado 130589" d="M48.579,289.3l-20.946.024a35.257,35.257,0,0,1,6.164-9.254c2.038,3.525,5.635,5.019,8.988,6.78,1.85.972,3.858,1.643,5.794,2.45" transform="translate(-14.878 -150.789)" fill="#f2eff2"/>
        <path id="Trazado_130590" data-name="Trazado 130590" d="M182.119,289.313l-10.307-.038c-1.321-.781-1.639-2.278-2.446-3.425,1.442-1.01,2.89-2.013,4.327-3.03a8.875,8.875,0,0,0,2.23-2.758,30.8,30.8,0,0,1,6.2,9.25" transform="translate(-91.187 -150.787)" fill="#e1dde1"/>
        <path id="Trazado_130591" data-name="Trazado 130591" d="M162.04,372.8q.045-2.909.09-5.818c.083-.076.159-.207.251-.22a27.025,27.025,0,0,1,10.012.111,7.609,7.609,0,0,1-.042,5.929H162.04" transform="translate(-87.243 -197.245)" fill="#f2eff2"/>
        <path id="Trazado_130592" data-name="Trazado 130592" d="M184.358,372.769q-.008-2.882-.017-5.765c.2-.111-.1-.068.118-.118a21,21,0,0,1,10.165.048l.1.09c-.026,1.308-.144,2.623-.054,3.923.095,1.37-.287,1.923-1.773,1.863-2.843-.116-5.693-.038-8.541-.04" transform="translate(-99.25 -197.209)" fill="#e1dde1"/>
        <path id="Trazado_130593" data-name="Trazado 130593" d="M152.549,115.007a46.181,46.181,0,0,1,.968,9.771c.213,5.4.066,10.814.07,16.222a52.936,52.936,0,0,1-7.218-.223c-8.749-1.077-14.94-5.749-18.861-13.53a49.358,49.358,0,0,1-4.783-18.736q14.518,3.09,29.034,6.186a5.051,5.051,0,0,1,.79.309" transform="translate(-66.076 -58.423)" fill="#a96a51"/>
        <path id="Trazado_130594" data-name="Trazado 130594" d="M89.632,212.542a6.038,6.038,0,0,1,4.639,1.38,15.032,15.032,0,0,0,13.874,3.375,2.728,2.728,0,0,1,.677.092A21.692,21.692,0,0,1,97.079,223.8a13.81,13.81,0,0,1-9.76-1.384c-.758-.423-1.247-.128-1.87.184-6.346,3.181-16.847.57-21.029-5.253,1.374.123,2.706.277,4.042.355a13.073,13.073,0,0,0,9.348-3.077,7.541,7.541,0,0,1,5.612-2.082,2.266,2.266,0,0,1,1.3.71c1.339,1.156,2.262,1.156,3.6,0a2.272,2.272,0,0,1,1.3-.71" transform="translate(-34.684 -114.416)" fill="#a96a51"/>
        <path id="Trazado_130595" data-name="Trazado 130595" d="M111.8,191.048c-.278.266-.578.512-.83.8-1.478,1.691-3.071,1.691-4.551,0-.252-.288-.552-.535-.829-.8.576-.493.365-1.165.367-1.767.016-4.4,0-8.792.012-13.187,0-2.02,1.162-3.5,2.715-3.507s2.718,1.432,2.732,3.507c.029,4.4,0,8.792.018,13.188,0,.6-.21,1.274.367,1.767" transform="translate(-56.847 -92.921)" fill="#feaf9e"/>
        <path id="Trazado_130596" data-name="Trazado 130596" d="M68.56,361.668l-50.735-.007c-.375-5.181-.375-5.181,4.758-5.181H68.559q0,2.593,0,5.186" transform="translate(-9.521 -191.93)" fill="#7a6d79"/>
        <path id="Trazado_130597" data-name="Trazado 130597" d="M182.718,361.625l-10.283.07-10.2-.054,0-5.158c6.317-.009,12.634.015,18.95-.056,1.269-.014,1.75.326,1.625,1.619-.115,1.184-.063,2.386-.085,3.579" transform="translate(-87.344 -191.901)" fill="#7b6e79"/>
        <path id="Trazado_130598" data-name="Trazado 130598" d="M165.466,292.6c1.419.71,1.579,2.32,2.446,3.425l-5.741.064a3.154,3.154,0,0,1,.269-2.078l3.025-1.411" transform="translate(-87.288 -157.537)" fill="#f2eef1"/>
        <path id="Trazado_130599" data-name="Trazado 130599" d="M162.8,319.48c0-2,.038-4-.028-5.992-.036-1.07.243-1.568,1.421-1.513,1.765.082,3.537.034,5.306.015.628-.006,1.107.094,1.27.82.492,2.207,1.427,4.328,1.27,6.659l-9.239.01" transform="translate(-87.637 -167.966)" fill="#f1eef1"/>
        <path id="Trazado_130600" data-name="Trazado 130600" d="M167.766,347.413c-1.252,0-2.506-.032-3.757.011-.868.03-1.238-.286-1.214-1.184.044-1.593.036-3.189,0-4.783-.018-.831.22-1.263,1.15-1.249,2.561.037,5.124.028,7.686,0,.79-.007,1.136.289,1.123,1.1-.029,1.651-.041,3.3.005,4.953.026.925-.4,1.184-1.237,1.159-1.251-.038-2.505-.01-3.757-.01" transform="translate(-87.649 -183.169)" fill="#f2eff2"/>
      </g>
    </g>
  </g>
</svg>
