<svg id="Grupo_157213" data-name="Grupo 157213" xmlns="http://www.w3.org/2000/svg" xmlns:xlink="http://www.w3.org/1999/xlink" width="16.199" height="13.37" viewBox="0 0 16.199 13.37">
  <defs>
    <clipPath id="clip-path">
      <rect id="Rectángulo_36213" data-name="Rectángulo 36213" width="16.199" height="13.37" fill="none"/>
    </clipPath>
  </defs>
  <g id="Grupo_157212" data-name="Grupo 157212" clip-path="url(#clip-path)">
    <path id="Trazado_125325" data-name="Trazado 125325" d="M1.645,13.37c-.1-.135-.263-.122-.393-.187A2.07,2.07,0,0,1,.011,11.247q-.023-4.206,0-8.412A2.07,2.07,0,0,1,2.11.7C4.94.669,7.772.686,10.6.693a1.829,1.829,0,0,1,1.153.379c.181.143.287.116.436-.046A2.9,2.9,0,0,1,13.47.089a2.116,2.116,0,0,1,2.4.9A2.087,2.087,0,0,1,15.6,3.574q-1.275,1.319-2.6,2.593a.971.971,0,0,0-.318.789c.018,1.264.007,2.529.007,3.793a2.267,2.267,0,0,1-1.723,2.62Z" transform="translate(0 0)"/>
    <path id="Trazado_125326" data-name="Trazado 125326" d="M22.1,28.7c-.278-.265-.548-.538-.835-.793a2.1,2.1,0,0,0-2.906.09,2.074,2.074,0,0,0-.068,2.873c.981,1.038,1.991,2.052,3.031,3.031a2.062,2.062,0,0,0,2.843-.058c.439-.413.865-.841,1.3-1.262.173.006.193.148.2.264a9.192,9.192,0,0,1-.026,1.809.463.463,0,0,1-.522.453c-2.459-.01-4.918-.005-7.377-.005a.385.385,0,0,1-.2-.035.633.633,0,0,1-.467-.69q-.01-4.168,0-8.335a.644.644,0,0,1,.62-.729.857.857,0,0,1,.365-.029q3.477,0,6.955,0c.139,0,.324-.08.408.1s-.044.316-.159.433q-1.371,1.393-2.766,2.763c-.1.1-.216.229-.392.124" transform="translate(-15.653 -23.172)" fill="#fedd00"/>
    <path id="Trazado_125327" data-name="Trazado 125327" d="M46.214,25.332a.771.771,0,0,1-.6-.275c-.884-.886-1.772-1.768-2.654-2.656a.728.728,0,0,1-.092-1.061.709.709,0,0,1,1.087.069c.51.5,1.012,1.011,1.518,1.516.591.59.865.592,1.447.011l5.6-5.6a3.1,3.1,0,0,1,.3-.283.685.685,0,0,1,.9.044.714.714,0,0,1,.092.906,1.713,1.713,0,0,1-.219.245q-3.369,3.371-6.738,6.741a.835.835,0,0,1-.647.345" transform="translate(-39.148 -15.503)" fill="#a2c500"/>
    <path id="Trazado_125328" data-name="Trazado 125328" d="M22.779,100.979c2.459,0,4.917-.01,7.376,0,.358,0,.6-.06.608-.459a7,7,0,0,0-.058-2.029l1.462-1.369c0,1.081.022,2.2-.011,3.313-.013.421-.346.615-.871.615q-3.357,0-6.713,0c-.467,0-.934,0-1.4,0-.133,0-.277.033-.392-.075" transform="translate(-20.894 -89.09)" fill="#fdc100"/>
    <path id="Trazado_125329" data-name="Trazado 125329" d="M29.04,28.657c.159,0,.237-.127.331-.221q1.356-1.352,2.707-2.71c.1-.1.292-.188.211-.36s-.273-.08-.413-.081q-3.624-.014-7.248-.017a.9.9,0,0,1,.445-.041q3.893,0,7.786,0a1,1,0,0,1,.7.158c-.647.643-1.279,1.27-1.909,1.9-.584.582-1.173,1.158-1.744,1.752-.188.2-.322.264-.507.012a4.55,4.55,0,0,0-.36-.392" transform="translate(-22.59 -23.133)" fill="#fdc100"/>
  </g>
</svg>
