<svg xmlns="http://www.w3.org/2000/svg" xmlns:xlink="http://www.w3.org/1999/xlink" width="155" height="117" viewBox="0 0 155 117">
  <defs>
    <clipPath id="clip-path">
      <rect id="Rect치ngulo_37366" data-name="Rect치ngulo 37366" width="85.263" height="93.436" fill="none"/>
    </clipPath>
  </defs>
  <g id="Grupo_157535" data-name="Grupo 157535" transform="translate(-3339 6787)">
    <rect id="Rect치ngulo_36139" data-name="Rect치ngulo 36139" width="155" height="117" transform="translate(3339 -6787)" fill="#e1e8ff"/>
    <g id="Grupo_157534" data-name="Grupo 157534" transform="translate(3374 -6775)">
      <g id="Grupo_157533" data-name="Grupo 157533" clip-path="url(#clip-path)">
        <path id="Trazado_128709" data-name="Trazado 128709" d="M110.326,186.7a7.5,7.5,0,0,1-2.573-2.162c-.11-.492.3-.7.563-.96,1.707-1.729,3.431-3.443,5.15-5.161q18.172-18.173,36.349-36.342c.328-.328.576-.807,1.147-.8.367,1.277.785,2.543,1.087,3.836a3.177,3.177,0,0,1-.782,2.96c-.264.293-.552.564-.832.843q-18.011,18.014-36.018,36.032a8.05,8.05,0,0,1-2.267,1.754Z" transform="translate(-71.123 -93.264)" fill="#d34a47"/>
        <path id="Trazado_128710" data-name="Trazado 128710" d="M100.918,92.912c-.244.227-.5.448-.731.683q-20.882,20.88-41.759,41.765c-.256.256-.48.543-.718.816q-2.941-2.921-5.881-5.844-9.285-9.279-18.562-18.565c-1.788-1.79-1.782-3.595.016-5.395Q41.917,97.732,50.555,89.1c.257-.258.5-.529.749-.795-.009-.457.36-.672.625-.94,1.347-1.37,2.72-2.715,4.065-4.087q6.782-6.754,13.538-13.533a4.542,4.542,0,0,1,3.666-1.71c2.029.405,4,1.027,5.995,1.569.528.143,1.055.291,1.586.422,2.614.75,5.24,1.458,7.862,2.179q2.2.6,4.383,1.224c.356.325.041.564-.144.754q-2.7,2.757-5.453,5.453a1.233,1.233,0,0,1-.636.331,9.269,9.269,0,0,0-2.668.3A4.458,4.458,0,0,0,81.284,85.4a4.643,4.643,0,0,0,4.089,3.711,4.786,4.786,0,0,0,4.334-2.183,6.837,6.837,0,0,0,.676-3.438,1.858,1.858,0,0,1,.6-.892q2.381-2.389,4.771-4.768c.231-.229.436-.523.824-.506Q98.043,82.53,99.5,87.737c.481,1.722.943,3.45,1.413,5.175" transform="translate(-21.079 -44.901)" fill="#ee5350"/>
        <path id="Trazado_128711" data-name="Trazado 128711" d="M52.141,23.314a3.976,3.976,0,0,0-2.958,1.379q-6.5,6.537-13.027,13.037c-.278.278-.576.537-.864.805a3.864,3.864,0,0,1-1.6.274Q17.749,38.8,1.807,38.8c-.5,0-1.045.1-1.471-.3Q.33,20.932.331,3.368A3.23,3.23,0,0,1,3.741,0Q30.154,0,56.567,0a3.371,3.371,0,0,1,3.117,1.857q4.9,8.641,9.809,17.278a.857.857,0,0,1-.732.293c-2.571.007-5.143.1-7.712-.047-.387-.083-.593-.393-.834-.666a4.467,4.467,0,0,0-5.357-1.256,4.54,4.54,0,0,0-2.677,5.058,1.083,1.083,0,0,1-.041.8" transform="translate(-0.216 0)" fill="#409efe"/>
        <path id="Trazado_128712" data-name="Trazado 128712" d="M.12,113.279q16.841,0,33.682.011c.424,0,.849.018,1.273.028l-4.851,4.864-25.057-.025H4.073c-3-.006-4.529-1.89-3.954-4.878" transform="translate(0 -74.783)" fill="#3a8fe5"/>
        <path id="Trazado_128713" data-name="Trazado 128713" d="M190.776,71.916l6.2-6.151c.019-.416.361-.613.607-.864,1.212-1.226,2.433-2.442,3.653-3.661.087-.092.178-.18.268-.268,1.36-1.342,2.7-2.7,4.055-4.052a2.78,2.78,0,0,1,.938-.7c.3-.038.6-.081.9-.113a2.484,2.484,0,0,1,2.374,3.864,5.614,5.614,0,0,1-.723.815q-3.955,3.965-7.916,7.925c-.234.234-.445.493-.667.741-2.073,1.975-4.1,3.991-6.068,6.076a2.729,2.729,0,0,1-2.575,1.482,2.944,2.944,0,0,1-2.474-2.228,2.619,2.619,0,0,1,1.429-2.862" transform="translate(-124.963 -37.025)" fill="#36474f"/>
        <path id="Trazado_128714" data-name="Trazado 128714" d="M192.388,55.947c-1.609,1.7-3.224,3.385-4.975,4.937a2.611,2.611,0,0,1-1.239.22c-5.09-.036-10.18.107-15.269,0a2.771,2.771,0,0,1-2.941-2.3,2.716,2.716,0,0,1,1.535-2.84,1.981,1.981,0,0,1,1.917-.079l8.715,0q5.493.013,10.986.028c.423,0,.846.018,1.269.028" transform="translate(-110.856 -36.755)" fill="#2c3940"/>
        <path id="Trazado_128715" data-name="Trazado 128715" d="M116.956,177.981A5.02,5.02,0,0,1,113.8,181.9a3.507,3.507,0,0,1-4.144-.979c-1.3-1.272-2.608-2.547-3.872-3.859-1.814-1.883-1.723-3.894.217-5.835,1.892-1.893,3.915-1.989,5.767-.221,1.361,1.3,2.685,2.64,4,3.987a3.948,3.948,0,0,1,1.187,2.983" transform="translate(-68.975 -112.06)" fill="#fefefe"/>
        <path id="Trazado_128716" data-name="Trazado 128716" d="M90.231,202.066a2.615,2.615,0,0,1-1.709-.54c-.522-.4-1.034-.825-.559-1.583a1.155,1.155,0,0,1,1.863-.405,1.563,1.563,0,0,0,2.054-.346A1.742,1.742,0,0,0,92.457,197c-.9-1.843-2.473-2.118-3.91-.684-.494.493-.995.981-1.48,1.483s-1,.565-1.471,0c-1.132-1.348-2.249-2.708-3.371-4.065a.631.631,0,0,1,.038-.962c1.206-1.2,2.4-2.408,3.6-3.613.514-.516.98-.33,1.418.106a.855.855,0,0,1,.017,1.405c-.768.734-1.483,1.525-2.262,2.246-.387.358-.361.589-.008.94.516.511.9,1.389,1.488,1.53.649.157,1.073-.814,1.623-1.257a3.542,3.542,0,0,1,5.145.153c1.935,1.808,2.237,3.6.868,5.466a5,5,0,0,1-3.923,2.315" transform="translate(-54.147 -124.672)" fill="#fefefe"/>
        <path id="Trazado_128717" data-name="Trazado 128717" d="M145.862,133.609a.8.8,0,0,1,.587-.945.727.727,0,0,1,.971.442c.213.534.387,1.084.573,1.629q2.023,5.939,4.044,11.879c.029.086.042.178.078.261a.808.808,0,0,1-.466,1.191c-.58.232-.91-.108-1.092-.638q-1.047-3.054-2.095-6.107-1.2-3.529-2.4-7.061c-.087-.257-.161-.519-.2-.651" transform="translate(-96.291 -87.548)" fill="#fefefe"/>
        <path id="Trazado_128718" data-name="Trazado 128718" d="M166.608,147.125a3.3,3.3,0,0,1-2,2.612,2.034,2.034,0,0,1-2.52-.657c-.659-.669-1.359-1.3-1.981-2-.864-.974-.748-2.074.26-3.156,1.067-1.146,2.2-1.4,3.2-.61a18.39,18.39,0,0,1,2.633,2.627,1.688,1.688,0,0,1,.409,1.189" transform="translate(-105.313 -94.305)" fill="#fefefe"/>
        <path id="Trazado_128719" data-name="Trazado 128719" d="M132.639,147.551a2.043,2.043,0,0,1,1.557.663c.7.673,1.4,1.348,2.064,2.061.991,1.07.887,2.217-.259,3.364-1.178,1.179-2.346,1.274-3.44.252-.621-.581-1.205-1.2-1.812-1.8a2.06,2.06,0,0,1-.705-2.519,3.234,3.234,0,0,1,2.594-2.024" transform="translate(-85.718 -97.406)" fill="#fefefe"/>
        <path id="Trazado_128720" data-name="Trazado 128720" d="M192.365,71.074c-2.056,0-4.113.045-6.168-.012a1.427,1.427,0,0,0-1.542.921c-.383.818-.87,1.588-1.312,2.379l-7.75-2.148c.2-.226.4-.457.6-.678.436-.467-.054-.413-.279-.507l16.56-.03c-.013.068-.051.093-.112.075" transform="translate(-115.921 -46.871)" fill="#409efd"/>
        <path id="Trazado_128721" data-name="Trazado 128721" d="M179.188,103.359a33.306,33.306,0,0,1-2.034,3.907,16.706,16.706,0,0,1-.874,1.471,4.631,4.631,0,0,1,2.909-5.378" transform="translate(-116.276 -68.234)" fill="#439cf8"/>
        <path id="Trazado_128722" data-name="Trazado 128722" d="M65.83,50.395a18.424,18.424,0,0,1-.11,3.633,3.372,3.372,0,0,1-2.465,2.655,5.783,5.783,0,0,1-3.319.029,3.591,3.591,0,0,1-2.621-3.729c-.038-1.7.019-3.4-.042-5.1-.129-3.6,2.356-4.651,5.059-4.346,2.25.254,3.365,1.581,3.49,4.037.048.94.008,1.883.008,2.825" transform="translate(-37.807 -28.705)" fill="#fefefe"/>
        <path id="Trazado_128723" data-name="Trazado 128723" d="M31.356,43.9c.152,0,.3-.007.456,0,1.281.066,2.446.408,2.971,1.709a3.994,3.994,0,0,1-.5,4.052c-.144.2-.673.288-.1.709a3.875,3.875,0,0,1-.392,6.3,5.272,5.272,0,0,1-5.156-.016,2.951,2.951,0,0,1-1.589-2.409c-.069-.638.109-1.118.812-1.16.612-.036,1.3-.169,1.5.75.231,1.064.986,1.5,2.2,1.375a1.62,1.62,0,0,0,1.624-1.805c.056-1.625-.254-2.027-1.809-2.2a.971.971,0,0,1-.057-1.932c1.218-.219,1.447-.482,1.482-1.545a1.633,1.633,0,0,0-2.488-1.652,1.13,1.13,0,0,0-.69.978c-.133.839-.609,1.128-1.486,1.033-.847-.092-.9-.651-.85-1.314a3.213,3.213,0,0,1,2.978-2.835c.361-.046.727-.042,1.091-.061,0,.008,0,.016,0,.024" transform="translate(-17.849 -28.965)" fill="#fefefe"/>
        <path id="Trazado_128724" data-name="Trazado 128724" d="M112.138,41.7c-.081.2-.156.434-.261.65q-3.025,6.261-6.053,12.521c-.208.431-.419.816-.994.755-.684-.072-.909-.593-.541-1.369.894-1.889,1.807-3.77,2.714-5.654q1.715-3.563,3.43-7.126c.2-.417.454-.743.97-.628a.9.9,0,0,1,.736.851" transform="translate(-68.732 -26.953)" fill="#fefefe"/>
        <path id="Trazado_128725" data-name="Trazado 128725" d="M120.184,64.231c0-.365.008-.73,0-1.095a2.06,2.06,0,0,1,1.311-2.268,3.12,3.12,0,0,1,3.265.43,1.379,1.379,0,0,1,.517.94,17.148,17.148,0,0,1,.076,3.818c-.217,1.411-1.136,1.982-2.922,1.884a2.109,2.109,0,0,1-2.226-2.159c-.031-.515-.005-1.034-.005-1.551Z" transform="translate(-79.339 -40.007)" fill="#fefefe"/>
        <path id="Trazado_128726" data-name="Trazado 128726" d="M101.069,46.9c0,.334-.015.669,0,1a2.082,2.082,0,0,1-1.153,2.274,3.169,3.169,0,0,1-3.21-.21,1.748,1.748,0,0,1-.776-1.478c-.02-1.094-.058-2.189-.019-3.281.048-1.345.968-2.059,2.583-2.087a2.246,2.246,0,0,1,2.542,2.049c.042.574.007,1.154.007,1.732h.022" transform="translate(-63.308 -28.468)" fill="#fefefe"/>
        <path id="Trazado_128727" data-name="Trazado 128727" d="M119.152,182.176a2.153,2.153,0,0,1-1.154,2,1.441,1.441,0,0,1-1.782-.16,42.906,42.906,0,0,1-4.447-4.435,1.859,1.859,0,0,1,2.5-2.635,40.1,40.1,0,0,1,4.584,4.549,1.227,1.227,0,0,1,.3.681" transform="translate(-73.509 -116.561)" fill="#ee5350"/>
        <path id="Trazado_128728" data-name="Trazado 128728" d="M165.281,147.517a.927.927,0,0,1,.644.292c.622.617,1.245,1.233,1.859,1.858a1.025,1.025,0,0,1-1.471,1.427q-.936-.923-1.862-1.856a.849.849,0,0,1-.185-1.076,1.086,1.086,0,0,1,1.014-.645" transform="translate(-108.365 -97.384)" fill="#ee5350"/>
        <path id="Trazado_128729" data-name="Trazado 128729" d="M135.663,151.981a1.928,1.928,0,0,1,.523.266c.679.647,1.352,1.3,1.994,1.985a.9.9,0,0,1-.065,1.372.867.867,0,0,1-1.356.085c-.679-.647-1.337-1.316-1.989-1.99a.841.841,0,0,1-.107-1.087,1.267,1.267,0,0,1,1-.63" transform="translate(-88.8 -100.332)" fill="#ee5351"/>
        <path id="Trazado_128730" data-name="Trazado 128730" d="M64.292,54.207c0-.942-.029-1.886.007-2.827a1.857,1.857,0,0,1,3.668-.3,33.285,33.285,0,0,1,.1,6.277c-.059,1.065-.854,1.553-2.014,1.51a1.651,1.651,0,0,1-1.718-1.74c-.057-.969-.012-1.945-.012-2.918h-.026" transform="translate(-42.436 -32.752)" fill="#409efe"/>
        <path id="Trazado_128731" data-name="Trazado 128731" d="M126.97,67.133c0,.426,0,.852,0,1.277-.008.7-.451.976-1.066.975a.876.876,0,0,1-.955-.977q-.009-1.323-.018-2.646c-.005-.648.34-.931.962-.948.66-.018,1.046.27,1.071.951.016.456,0,.912,0,1.369Z" transform="translate(-82.474 -42.787)" fill="#409ffe"/>
        <path id="Trazado_128732" data-name="Trazado 128732" d="M102.528,49.543a13.05,13.05,0,0,1-.01,1.36.932.932,0,0,1-1.032.913.9.9,0,0,1-1.025-.91,27.111,27.111,0,0,1-.023-2.81.879.879,0,0,1,.976-.861.894.894,0,0,1,1.05.772,14.882,14.882,0,0,1,.088,1.536h-.026" transform="translate(-66.289 -31.182)" fill="#42a0fe"/>
      </g>
    </g>
  </g>
</svg>
