<svg xmlns="http://www.w3.org/2000/svg" xmlns:xlink="http://www.w3.org/1999/xlink" width="1328" height="513" viewBox="0 0 1328 513">
  <defs>
    <clipPath id="clip-path">
      <rect id="Rect치ngulo_37571" data-name="Rect치ngulo 37571" width="1328" height="513" fill="#c4d1ff"/>
    </clipPath>
  </defs>
  <g id="Grupo_158085" data-name="Grupo 158085" transform="translate(-136 -7921)">
    <rect id="Rect치ngulo_36309" data-name="Rect치ngulo 36309" width="1328" height="513" transform="translate(136 7921)" fill="#c4d1ff"/>
    <g id="Enmascarar_grupo_186" data-name="Enmascarar grupo 186" transform="translate(136 7921)" opacity="0.512" clip-path="url(#clip-path)">
      <g id="Grupo_158084" data-name="Grupo 158084" transform="translate(-136 -113.628)" opacity="0.098">
        <g id="Grupo_81065" data-name="Grupo 81065" transform="translate(24.072 51.031)" style="mix-blend-mode: overlay;isolation: isolate">
          <path id="Trazado_115015" data-name="Trazado 115015" d="M818.964,556.021C770.05,606.074,719.5,654.288,667.986,701.65c22.275-50.357,46.286-99.911,67.433-150.8,23.97-57.687,51.839-136.318,21.615-196.828C688.159,216.1,514.053,351.438,449.98,420.861c-6.823,7.4-13.341,15.127-19.94,22.762,22.894-56.062,43.5-113.668,38.062-174.238-7.482-83.281-83.83-103.262-149.557-64.56-70.581,41.544-127.273,113.435-174.6,178.726C103.737,439,195.73,491.8,235.619,437.135a721.158,721.158,0,0,1,71.667-83.83q-5.711,10.462-11.543,20.884c-25.717,45.94-51.118,92.063-72.073,140.42C183.547,607.19,124.2,735.366,174.683,832.75c25.442,49.077,85.1,54.062,130.014,34.092,60.377-26.843,102.2-86.1,142.511-136.257,42.082-52.367,79.149-107.972,118.1-162.614,16.275-22.833,32.539-45.991,51.179-66.986.426-.487.873-.934,1.3-1.411l-.467,1.472c-10.346,32.163-23.645,63.027-37.118,93.972-25.056,57.575-57.382,118.176-66.56,180.817-8.112,55.393,14.315,117.475,80.936,113.455,62.631-3.776,112.825-64.1,154.695-104.389,50.7-48.793,100.5-98.551,150.308-148.258C951.6,584.743,870.347,503.462,818.964,556.021Z" transform="translate(-123.722 -175.663)" fill="#3c3fa7"/>
          <path id="Trazado_115016" data-name="Trazado 115016" d="M597.881,908.8c-24.579,0-45.443-8.63-60.621-25.158-21.1-22.975-30.214-60.4-24.4-100.1,7.584-51.768,30.163-101.353,51.991-149.293,5.229-11.483,10.406-22.854,15.3-34.1,4.64-10.67,9.523-21.879,14.366-33.473q-4.447,6.2-8.8,12.325l-2.883,4.051c-10.122,14.193-20.112,28.447-30.092,42.7-28.031,40-57.017,81.373-88.368,120.379-4.579,5.7-9.178,11.513-13.828,17.392-35.95,45.463-76.692,96.987-132.471,121.78-49.727,22.082-114.856,15.9-143.141-38.691-50.834-98.063,4.051-224.25,44.133-316.384l4.548-10.478c11.787-27.219,25.006-53.788,39.027-80.236q-4.873,6.351-9.564,12.792c-24.661,33.788-67.85,33.28-95.373,13.259-22.762-16.559-35.534-47.341-12.731-78.794C195.505,317.071,252,246.835,322.656,205.25c39.209-23.077,82.124-26.823,114.825-10.021,28.793,14.792,46.55,44.062,49.991,82.429,4.041,45-5.675,88.063-19.757,129.15,52.133-50.935,148.552-123.171,225.9-112.226,35.534,5.046,63.037,26.61,81.748,64.083,30.782,61.626,6.5,138.349-21.32,205.264-13.239,31.859-27.8,63.636-41.879,94.378l-4.985,10.873c41.9-39.29,79.383-75.89,113.78-111.079v.01c17.006-17.412,38.61-23.808,60.773-18.051,24.336,6.335,45.138,26.975,51.758,51.382,6.071,22.386-.132,44.255-17.483,61.565l-5.665,5.645c-47.159,47.067-95.921,95.738-144.775,142.735-6.02,5.8-12.2,12-18.579,18.4-37.93,38.021-85.129,85.352-142.542,88.815C602.237,908.741,600.044,908.8,597.881,908.8Zm29.128-409.767a9.583,9.583,0,0,1,4.914,1.31c4.082,2.416,6.254,7.015,4.792,11.523l-.477,1.482c-10.843,33.727-24.986,66.225-37.463,94.9-4.944,11.361-10.173,22.833-15.442,34.407-21.239,46.661-43.209,94.906-50.377,143.831-4.863,33.219,2.518,65.19,19.259,83.423,12.417,13.523,29.554,19.645,51.007,18.427,49.707-3,92.043-45.443,129.394-82.9,6.477-6.488,12.762-12.792,18.874-18.681,48.722-46.874,97.424-95.475,144.521-142.481l5.655-5.645c15.351-15.31,15.117-31.219,12.234-41.869-4.7-17.33-20.031-32.559-37.27-37.047-10.508-2.741-26.153-2.761-41.138,12.579v.01c-44.438,45.453-93.952,93.21-151.385,145.994a10.153,10.153,0,0,1-16.153-11.584c8.417-19.036,17.087-37.95,25.757-56.865,14-30.58,28.488-62.194,41.585-93.718,26.062-62.682,49.037-134.085,21.909-188.391-15.767-31.595-37.5-48.946-66.448-53.047C618.643,304.481,517.229,382.169,466.7,436.932c-5.391,5.827-10.579,11.878-15.777,17.929l-3.929,4.579a10.153,10.153,0,0,1-17.087-10.467c21.8-53.4,42.641-110.48,37.341-169.507-2.843-31.625-16.346-54.509-39.047-66.174-26.478-13.6-62.083-10.061-95.251,9.452-67.433,39.706-122.3,108.023-171.538,175.944-15.554,21.463-5.949,40.143,8.234,50.458,19.209,13.96,49.22,15.6,67.027-8.812a735.226,735.226,0,0,1,72.672-85.017,10.156,10.156,0,0,1,16.112,12.031q-5.741,10.508-11.6,20.975c-26.031,46.519-51.108,92.2-71.606,139.5l-4.559,10.5c-38.458,88.4-91.109,209.467-44.732,298.942,22.529,43.463,75.85,47.707,116.876,29.483,51.2-22.752,88.611-70.063,124.785-115.82,4.68-5.909,9.32-11.777,13.94-17.513,30.924-38.488,59.707-79.576,87.555-119.313q15.016-21.442,30.184-42.834l2.883-4.041c15.28-21.452,31.077-43.626,48.976-63.8l.9-.985A11.084,11.084,0,0,1,627.009,499.035ZM828.233,565.2h0Z" transform="translate(-132.979 -184.841)" fill="#a6bbff"/>
          <path id="Trazado_115017" data-name="Trazado 115017" d="M180.6,227.929c-37.4,75.169-58.509,163.294-25.645,244.088,4.853,11.949,24.5,6.721,19.574-5.4-30.843-75.86-11.574-157.74,23.6-228.443C203.937,226.517,186.424,216.213,180.6,227.929Z" transform="translate(-80.973 162.267)" fill="#3c3fa7"/>
          <path id="Trazado_115018" data-name="Trazado 115018" d="M173.945,293.946c-.173-.02-.335-.071-.5-.1-.284-.548-.538-1.147-.629-1.31l-.051-.061c-.02-.081.01-.02-.02-.142-1.31-4.538-2.244-9.127-3.239-13.747q-3.442-16.067-6.894-32.133c-1.117-5.2-7.482-8.711-12.488-7.086a10.39,10.39,0,0,0-7.1,12.488q3.9,18.168,7.807,36.346c2.163,10.081,5.624,23.31,17.706,25.331,5.218.873,11.188-1.371,12.488-7.1C182.148,301.53,179.549,294.88,173.945,293.946Z" transform="translate(-43.488 310.54)" fill="#3c3fa7"/>
          <path id="Trazado_115019" data-name="Trazado 115019" d="M216.713,202.886c-11.523-6.152-21.787,11.371-10.244,17.533,15.94,8.508,20.8,25.828,21.432,42.844.731,19.32-1.442,39.179-4.579,58.2a386.3,386.3,0,0,1-35.24,109.059c-5.8,11.665,11.706,21.96,17.534,10.244a406.316,406.316,0,0,0,39.412-128.44C249.81,275.74,255.536,223.607,216.713,202.886Z" transform="translate(360.73 -31.487)" fill="#c4d1ff"/>
        </g>
        <g id="Grupo_81068" data-name="Grupo 81068">
          <g id="Grupo_81067" data-name="Grupo 81067">
            <path id="Trazado_115020" data-name="Trazado 115020" d="M816.6,553.653c-48.915,50.052-99.464,98.267-150.989,145.618,22.275-50.346,46.3-99.911,67.443-150.785,23.97-57.687,51.829-136.318,21.615-196.828-68.875-137.922-242.981-2.6-307.054,66.834-6.833,7.391-13.34,15.117-19.94,22.762,22.884-56.062,43.494-113.668,38.062-174.238-7.482-83.281-83.83-103.262-149.557-64.57C245.592,244,188.91,315.891,141.569,381.182c-40.2,55.453,51.8,108.246,91.688,53.585a721.978,721.978,0,0,1,71.657-83.84q-5.711,10.462-11.533,20.894c-25.716,45.94-51.118,92.063-72.073,140.41-40.133,92.591-99.465,220.757-48.986,318.151,25.442,49.078,85.089,54.063,130.014,34.092,60.377-26.843,102.2-86.1,142.511-136.257C486.928,675.85,523.985,620.244,562.94,565.6c16.284-22.833,32.549-45.991,51.179-67,.426-.477.883-.924,1.31-1.411l-.467,1.482c-10.345,32.163-23.655,63.027-37.118,93.972-25.067,57.565-57.382,118.165-66.56,180.817-8.122,55.392,14.315,117.475,80.936,113.455,62.621-3.777,112.815-64.1,154.685-104.389,50.712-48.793,100.51-98.561,150.319-148.268C949.225,582.375,867.974,501.094,816.6,553.653Z" transform="translate(783.065 -183.472)" fill="#3c3fa7"/>
            <path id="Trazado_115021" data-name="Trazado 115021" d="M595.5,906.422c-24.579,0-45.433-8.619-60.611-25.148-21.1-22.975-30.214-60.4-24.4-100.114,7.574-51.758,30.153-101.343,51.991-149.294,5.218-11.482,10.4-22.843,15.3-34.092,4.639-10.67,9.523-21.879,14.366-33.473-2.965,4.122-5.9,8.244-8.8,12.325l-2.883,4.041c-10.122,14.193-20.112,28.458-30.1,42.7C522.341,663.38,493.355,704.751,462,743.747q-6.868,8.558-13.828,17.4c-35.95,45.453-76.692,96.977-132.471,121.78-49.737,22.082-114.856,15.889-143.141-38.7-50.834-98.054,4.051-224.24,44.123-316.384l4.558-10.467c11.787-27.219,25.006-53.788,39.016-80.236q-4.858,6.35-9.564,12.782c-24.65,33.8-67.839,33.29-95.363,13.269C132.574,446.633,119.8,415.85,142.6,384.4c50.529-69.7,107.028-139.933,177.67-181.528C359.494,179.8,402.4,176.057,435.11,192.859c28.793,14.792,46.539,44.052,49.991,82.418,4.041,45-5.675,88.074-19.767,129.151,52.143-50.925,148.552-123.161,225.9-112.216,35.534,5.046,63.047,26.61,81.759,64.083,30.772,61.626,6.487,138.339-21.32,205.264-13.239,31.848-27.8,63.636-41.879,94.368L704.813,666.8c41.9-39.28,79.383-75.88,113.78-111.069h0c17.005-17.412,38.61-23.8,60.773-18.041,24.336,6.335,45.138,26.975,51.748,51.382,6.081,22.386-.122,44.245-17.472,61.555l-5.665,5.655C860.817,703.35,812.054,752.011,763.2,799.018c-6.02,5.8-12.2,12-18.589,18.4-37.92,38.022-85.119,85.353-142.532,88.815C599.856,906.361,597.673,906.422,595.5,906.422Zm29.128-409.767a9.569,9.569,0,0,1,4.914,1.32c4.092,2.416,6.264,7.005,4.8,11.523l-.477,1.482c-10.843,33.717-24.985,66.225-37.463,94.9-4.944,11.351-10.173,22.823-15.442,34.407-21.249,46.661-43.219,94.906-50.387,143.821-4.863,33.219,2.518,65.19,19.27,83.434,12.406,13.513,29.554,19.645,51.006,18.427,49.707-3,92.043-45.443,129.384-82.9,6.477-6.5,12.772-12.8,18.884-18.681,48.722-46.874,97.424-95.475,144.522-142.481l5.655-5.655c15.34-15.3,15.117-31.209,12.224-41.869-4.7-17.32-20.021-32.559-37.27-37.037-10.5-2.741-26.143-2.761-41.128,12.579h0c-44.438,45.453-93.952,93.211-151.385,146a10.153,10.153,0,0,1-16.153-11.584c8.416-19.036,17.087-37.951,25.747-56.875,14.011-30.569,28.488-62.185,41.6-93.708,26.052-62.682,49.037-134.085,21.909-188.4-15.777-31.584-37.514-48.935-66.448-53.047-72.114-10.2-173.538,67.484-224.067,122.237-5.381,5.838-10.569,11.889-15.767,17.93l-3.939,4.589a10.156,10.156,0,0,1-17.087-10.477c21.808-53.392,42.651-110.48,37.351-169.5-2.843-31.635-16.346-54.519-39.047-66.184-26.488-13.594-62.083-10.051-95.251,9.462-67.443,39.7-122.3,108.023-171.538,175.944-15.564,21.463-5.949,40.133,8.234,50.448,19.209,13.97,49.219,15.615,67.027-8.8a733.4,733.4,0,0,1,72.672-85.017,10.149,10.149,0,0,1,16.1,12.021q-5.741,10.523-11.594,20.985c-26.041,46.519-51.108,92.2-71.616,139.5l-4.558,10.5c-38.448,88.4-91.1,209.467-44.722,298.932,22.528,43.473,75.85,47.717,116.876,29.493,51.2-22.752,88.612-70.073,124.785-115.82q7.021-8.879,13.929-17.523c30.935-38.478,59.717-79.566,87.566-119.3,10.01-14.295,20.031-28.6,30.183-42.844l2.883-4.031c15.28-21.452,31.077-43.635,48.966-63.8l.914-.985A11.071,11.071,0,0,1,624.628,496.654Zm201.224,66.174h0Z" transform="translate(-130.608 -155.511)" fill="#3c3fa7"/>
            <path id="Trazado_115022" data-name="Trazado 115022" d="M178.23,225.56c-37.412,75.17-58.509,163.284-25.656,244.088,4.863,11.939,24.508,6.721,19.584-5.4-30.854-75.87-11.584-157.74,23.6-228.443C201.561,224.138,184.058,213.844,178.23,225.56Z" transform="translate(-78.607 191.596)" fill="#3c3fa7"/>
            <path id="Trazado_115023" data-name="Trazado 115023" d="M171.574,291.575c-.172-.02-.335-.071-.5-.1-.284-.558-.548-1.147-.64-1.31l-.041-.061c-.02-.081.01-.03-.02-.152-1.31-4.528-2.254-9.127-3.239-13.737q-3.457-16.066-6.894-32.133c-1.117-5.2-7.482-8.711-12.5-7.086a10.388,10.388,0,0,0-7.087,12.488l7.8,36.336c2.173,10.092,5.635,23.32,17.716,25.341,5.219.863,11.188-1.37,12.488-7.1C179.777,299.159,177.168,292.509,171.574,291.575Z" transform="translate(-41.117 339.871)" fill="#3c3fa7"/>
            <path id="Trazado_115024" data-name="Trazado 115024" d="M214.345,200.515c-11.523-6.153-21.8,11.371-10.244,17.533,15.94,8.508,20.792,25.828,21.432,42.834.731,19.32-1.442,39.189-4.579,58.215a386.292,386.292,0,0,1-35.24,109.059c-5.807,11.665,11.706,21.96,17.533,10.244a406.731,406.731,0,0,0,39.412-128.44C247.442,273.359,253.168,221.226,214.345,200.515Z" transform="translate(363.098 -2.157)" fill="#3c3fa7"/>
          </g>
        </g>
      </g>
    </g>
  </g>
</svg>
