<svg xmlns="http://www.w3.org/2000/svg" xmlns:xlink="http://www.w3.org/1999/xlink" width="260" height="234" viewBox="0 0 260 234">
  <defs>
    <clipPath id="clip-path">
      <rect id="Rectángulo_37549" data-name="Rectángulo 37549" width="260" height="234" transform="translate(512 7406)" fill="#fff" stroke="#707070" stroke-width="1"/>
    </clipPath>
    <clipPath id="clip-path-2">
      <rect id="Rectángulo_37547" data-name="Rectángulo 37547" width="218.88" height="260.988" fill="none"/>
    </clipPath>
    <clipPath id="clip-path-4">
      <rect id="Rectángulo_37542" data-name="Rectángulo 37542" width="7.68" height="3.105" fill="none"/>
    </clipPath>
    <clipPath id="clip-path-5">
      <rect id="Rectángulo_37543" data-name="Rectángulo 37543" width="2.806" height="2.406" fill="none"/>
    </clipPath>
    <clipPath id="clip-path-6">
      <rect id="Rectángulo_37544" data-name="Rectángulo 37544" width="3.368" height="2.701" fill="none"/>
    </clipPath>
    <clipPath id="clip-path-7">
      <rect id="Rectángulo_37545" data-name="Rectángulo 37545" width="8.541" height="2.802" fill="none"/>
    </clipPath>
  </defs>
  <g id="Enmascarar_grupo_178" data-name="Enmascarar grupo 178" transform="translate(-512 -7406)" clip-path="url(#clip-path)">
    <g id="Grupo_158003" data-name="Grupo 158003" transform="translate(533 7406)">
      <g id="Grupo_158002" data-name="Grupo 158002" clip-path="url(#clip-path-2)">
        <g id="Grupo_158001" data-name="Grupo 158001">
          <g id="Grupo_158000" data-name="Grupo 158000" clip-path="url(#clip-path-2)">
            <path id="Trazado_131053" data-name="Trazado 131053" d="M134.482,216.613c3.887-26.68,8.036-62.784,8.036-62.784s-36.59-9.2-40.589,6.575c-2.83,11.17-5.627,34.188-7.777,56.209Z" transform="translate(27.639 44.375)" fill="#505050"/>
            <path id="Trazado_131054" data-name="Trazado 131054" d="M134.581,198.464q1.574.4,3.161.759c13.533,3.1,27.739,4.349,37.682,1.971,4.906-1.172,8.045-7.188,10.042-13.908a26.065,26.065,0,0,0,1.393-5.579c1.217-18.673-3.376-26.594-3.376-26.594L110.3,146.936s-2.433,4.487-5.133,10.337A122.582,122.582,0,0,0,99.7,170.93l-.006.013a35.616,35.616,0,0,0-1.626,7.265c-.581,6.654,16.819,15.3,36.513,20.256" transform="translate(28.785 43.135)" fill="#505050"/>
            <path id="Trazado_131055" data-name="Trazado 131055" d="M134.374,213.4H178.5c-.534-17.68-1.006-36.242-1.266-45.246-.1-3.381-.163-5.363-.163-5.363s-36.065-4.148-43.02,8.138a8.767,8.767,0,0,0-1.059,3.169,92.911,92.911,0,0,0-.37,13.09c.164,7.314.814,16.452,1.753,26.213" transform="translate(38.917 47.591)" fill="#505050"/>
            <path id="Trazado_131056" data-name="Trazado 131056" d="M131.628,84.727l-1,3.973c-.335,1.3-.667,2.6-1.021,3.886-.7,2.581-1.416,5.156-2.163,7.725-1.51,5.134-3.076,10.262-4.821,15.38s-3.579,10.249-5.741,15.415c-1.08,2.586-2.23,5.187-3.539,7.843a63.3,63.3,0,0,1-4.82,8.324c-.525.749-1.1,1.52-1.777,2.336a25.632,25.632,0,0,1-2.469,2.607,20.209,20.209,0,0,1-1.777,1.453A17.284,17.284,0,0,1,100,155.185a15.076,15.076,0,0,1-3.671,1.268,14.456,14.456,0,0,1-2.332.281l-.3.009h-.215l-.424-.006c-.291-.005-.543-.023-.811-.043a17.728,17.728,0,0,1-4.96-1.154A23.258,23.258,0,0,1,84,153.965,35.207,35.207,0,0,1,79.4,150.75a68.094,68.094,0,0,1-6.679-6.4c-1.974-2.134-3.8-4.275-5.548-6.43s-3.424-4.321-5.054-6.5-3.191-4.385-4.665-6.645-2.873-4.56-4.181-6.918q-.984-1.766-1.89-3.586c-.305-.6-.592-1.221-.882-1.839-.146-.308-.29-.618-.426-.935l-.424-.977A7.613,7.613,0,0,1,61.7,101.815l.326.294c.442.4.929.859,1.378,1.305s.922.9,1.372,1.36q1.354,1.374,2.676,2.771,2.641,2.792,5.174,5.631c1.7,1.885,3.359,3.779,5.013,5.655s3.335,3.707,5.029,5.472,3.406,3.464,5.115,5.027a48,48,0,0,0,4.966,4.046,12.064,12.064,0,0,0,1.9,1.12c.206.087.348.118.273.061a2.974,2.974,0,0,0-1.158-.283c-.1-.012-.2-.014-.322-.023l-.18,0-.274,0a8.188,8.188,0,0,0-3.2.755,6.9,6.9,0,0,0-.852.479c-.158.1-.256.182-.285.188-.078.047.023-.092.15-.294s.317-.5.511-.837c.395-.682.84-1.545,1.277-2.471s.887-1.931,1.318-2.974c.867-2.087,1.693-4.317,2.48-6.6,1.563-4.582,3.015-9.365,4.377-14.2,1.347-4.848,2.653-9.753,3.872-14.691.616-2.467,1.226-4.939,1.811-7.415l.88-3.707.834-3.636.048-.212A13.071,13.071,0,0,1,131.69,84.47l-.062.257" transform="translate(14.391 20.102)" fill="#bcbcbc"/>
            <path id="Trazado_131057" data-name="Trazado 131057" d="M104.581,60.7a33.724,33.724,0,0,0-9.636,16.323C91.927,88.9,84.334,111.541,84.334,111.541S105.07,124.518,114,124.194Z" transform="translate(24.757 17.82)" fill="#6a6a6a"/>
            <path id="Trazado_131058" data-name="Trazado 131058" d="M83.245,118.763l3.707,1.5c.648.261.2,1.253-.444.992l-3.707-1.5c-.649-.261-.2-1.253.444-.992" transform="translate(24.214 34.852)" fill="#848484"/>
            <path id="Trazado_131059" data-name="Trazado 131059" d="M81.356,118.414a9.561,9.561,0,0,1,2.828,5.934.586.586,0,0,0,1.164-.127,10.82,10.82,0,0,0-3.247-6.71c-.539-.528-1.279.379-.745.9" transform="translate(23.829 34.45)" fill="#848484"/>
            <path id="Trazado_131060" data-name="Trazado 131060" d="M186.463,193.144a.378.378,0,0,1-.069.043l-.019.012c-.041.023-.078.049-.11.069a.9.9,0,0,0-.125.078.242.242,0,0,0-.049.026l-.106.065c-.019.009-.043.026-.062.036a.056.056,0,0,1,.019-.017c-.074.039-.123.071-.136.075s-.052.025-.08.041c-.295.171-.75.427-1.013.576a.763.763,0,0,0-.074.039,71.876,71.876,0,0,1-7.836,3.738,79.4,79.4,0,0,1-9.381,3.15c-.589.162-1.181.31-1.776.462l-.142.032q-2.949.728-5.924,1.233-1.11.188-2.234.352c-2.671.392-5.353.66-8.014.812-.323.022-.647.039-.97.048-2.992.146-5.957.14-8.874,0l-.938-.049-.159-.009h0c-.483-.03-.961-.058-1.44-.1-1.585-.111-3.146-.276-4.692-.473-.541-.058-1.074-.132-1.6-.216a78.84,78.84,0,0,1-16.221-4.072c-.36-.136-.715-.27-1.071-.41-.259-.1-.511-.2-.766-.307-.062-.027-.12-.049-.185-.075-1.623-.673-3.178-1.4-4.65-2.169-.067-.036-.138-.072-.2-.1a44.948,44.948,0,0,1-5.381-3.337c.142-2.542.323-5.239.517-7.874v0c.045-.577.084-1.149.125-1.715.12-1.6.239-3.155.362-4.614a.049.049,0,0,1,0-.019c.295-3.063.56-6.239.806-9.4.006-.061.009-.1.009-.1.084-1.039.159-2.07.237-3.1.048-.64.093-1.272.136-1.9v0c.429-6.05.77-11.8.992-16.334l0,0c.026-.52.052-1.018.074-1.5.052-1.11.1-2.128.133-3.044.084-1.975.132-3.9.168-5.769.039-1.83.048-3.613.041-5.345-.006-1.979-.039-3.907-.1-5.767-.016-1-.058-1.982-.093-2.949v0c-.019-.446-.039-.89-.062-1.33-.019-.41-.039-.821-.065-1.225l0,0c-.006-.1-.01-.194-.017-.291-.022-.455-.052-.912-.08-1.354-.091-1.515-.2-2.982-.314-4.415-.268-3.2-.6-6.2-.97-8.992-.061-.488-.129-.973-.194-1.45-.679-4.837-1.475-9.055-2.27-12.735-.091-.441-.181-.872-.278-1.3-1.768-7.979-3.447-13.32-3.7-17a10.717,10.717,0,0,1,.013-1.807,12.819,12.819,0,0,1,.526-2.706,10.282,10.282,0,0,1,.99-2.2,13.429,13.429,0,0,1,6.177-4.969c.295-.138.589-.27.893-.4.808-.354,1.647-.688,2.5-1.028.3-.119.605-.243.916-.362.94-.371,1.9-.753,2.846-1.167a.086.086,0,0,1,.026-.008c.718-.316,1.432-.652,2.134-1.012.3-.154.6-.313.889-.475s.567-.317.838-.488c.352-.22.711-.454,1.057-.693a16.8,16.8,0,0,0,4.831-5.019.208.208,0,0,0,.036-.053c.158-.251.31-.519.462-.794l22.437-2.3a28.554,28.554,0,0,0,3.956,2.024c.285.131.585.252.9.385.181.071.362.138.55.216.2.081.414.155.63.237.116.041.25.087.373.132.792.278,1.665.554,2.609.812.362.1.737.194,1.125.288.308.074.621.145.942.21.177.041.358.078.539.114.291.061.58.116.886.173.605.107,1.233.208,1.882.288.34.048.683.087,1.028.125q1.174.132,2.436.2a14.814,14.814,0,0,1,4.627.99c.31.12.614.248.918.391a15.554,15.554,0,0,1,2.943,1.8,16.889,16.889,0,0,1,1.488,1.283h0c.071.069.138.133.207.2.21.2.414.415.617.635.291.313.576.64.858.979a26.16,26.16,0,0,1,1.969,2.751c.211.338.414.68.614,1.032.178.312.353.627.521.955.142.263.278.53.41.8a52.321,52.321,0,0,1,3.995,11.876l0,.009q.446,2.024.812,4.2c.656,3.958,1.313,7.812,1.943,11.577.075.431.146.864.22,1.291q.355,2.138.7,4.245c.42,2.6.834,5.168,1.222,7.707.075.523.159,1.044.237,1.574.175,1.175.317,2.235.436,3.243.31,2.575.5,4.8.821,7.724,0,0,4.773,58.5-2.163,75.007" transform="translate(28.653 13.995)" fill="#6a6a6a"/>
            <path id="Trazado_131061" data-name="Trazado 131061" d="M166.767,153.149c-.009.332-.019.662-.028,1-.243,7.662-.832,15.54-1.876,23.472-.043.326-.084.649-.129.977q-.413,3.031-.918,6.073a.473.473,0,0,1-.418.391.41.41,0,0,1-.125-.005.469.469,0,0,1-.388-.541q.5-3.041.918-6.08c.045-.327.087-.653.129-.979,1.035-7.865,1.62-15.672,1.863-23.266.009-.332.019-.662.028-.992A307.586,307.586,0,0,0,157.1,72.948a.472.472,0,0,1,.33-.578.463.463,0,0,1,.582.326,308.532,308.532,0,0,1,8.751,80.453" transform="translate(46.115 21.239)" fill="#373737"/>
            <path id="Trazado_131062" data-name="Trazado 131062" d="M110.274,39.85s-4.661,1.177-6.2-2.284,2.3-6.6-2.817-9.838S91.058,16.77,96.318,11.84s8.036,2.017,12.193-4.067S114.716.961,120.9.089c6.049-.852,8.252,4.709,14.6,3.735S146.846,10,145.539,14.237c-1.836,5.957-2.1,5.028-1.313,9.935s-2.519,8.869-6.322,8.735-27.631,6.943-27.631,6.943" transform="translate(27.624 0)" fill="#161616"/>
            <path id="Trazado_131063" data-name="Trazado 131063" d="M140.442,50.674c-.424,4.058-5.884,9.477-9.1,10.927a19.13,19.13,0,0,1-14.828.551l-1.5-7.769L114.7,52.8l-.581-3.006,16.551-15.948.955-.921.644-.621.376.634.429.731-.035.348c2.8,7.287,3.586,11.755,7.4,16.66" transform="translate(33.503 9.483)" fill="#b6b6b6"/>
            <path id="Trazado_131064" data-name="Trazado 131064" d="M115.839,56.627c7.235-3.242,10.358-9.836,11.427-13.857-3.159,3.72-7.267,6.531-11.395,6.909a11.324,11.324,0,0,1-1.3.044Z" transform="translate(33.635 12.556)" fill="#161616"/>
            <path id="Trazado_131065" data-name="Trazado 131065" d="M104.644,29.532s-2.26.645-2.136,3.663,2.546,7.628,5.4,6.455-3.262-10.118-3.262-10.118" transform="translate(30.091 8.67)" fill="#848484"/>
            <path id="Trazado_131066" data-name="Trazado 131066" d="M137.175,42.253l0,0c-.038.009-.074.021-.109.03-.021.265-.052.532-.088.8-.014.118-.03.233-.049.352-.076.484-.182.975-.31,1.472-2,7.7-9.951,16.444-17.651,16.859a12.044,12.044,0,0,1-1.316,0c-7.558-.44-10.856-8.384-11.119-14.774-.01-.241-.018-.48-.018-.717,0,0-.089-.426-.257-1.167-.135-.59-.322-1.393-.55-2.34-.687-2.829-1.77-7-3.085-11.063-2.306-7.129.688-18.75,15.137-23.879,11.518-4.086,18.582,1.433,21.418,7.77a16.526,16.526,0,0,1,1.347,4.859,29.43,29.43,0,0,1-.167,6.6c1.427-.138,3.068.374,4.3,2.72,2.278,4.336-2.283,11.041-7.483,12.48" transform="translate(29.92 1.885)" fill="#b6b6b6"/>
            <path id="Trazado_131067" data-name="Trazado 131067" d="M134.793,24.97a13.357,13.357,0,0,1-4.163,2.645l-2.572,4.231-3.71-1.647s.907-4.668-1.59-5.771-1.8-4.152-1.8-4.152,8.914-6.523,12.659-6.764a16.5,16.5,0,0,1,1.347,4.859,29.433,29.433,0,0,1-.167,6.6" transform="translate(35.482 3.967)" fill="#161616"/>
            <path id="Trazado_131068" data-name="Trazado 131068" d="M101.466,23.794s9.3-8.754,15.761-7.108a16.593,16.593,0,0,1,9.422,6.243s11.844.3,14.055-3.058S137.56,5.389,128.38,4.569s-21.87,4.084-26.914,19.225" transform="translate(29.787 1.316)" fill="#161616"/>
            <path id="Trazado_131069" data-name="Trazado 131069" d="M106.675,31.408c.3,1.022.977,1.724,1.507,1.568s.717-1.112.415-2.134-.975-1.724-1.507-1.568-.717,1.112-.415,2.134" transform="translate(31.273 8.587)" fill="#161616"/>
            <path id="Trazado_131070" data-name="Trazado 131070" d="M110.093,29.884a.285.285,0,0,0,.114-.132.281.281,0,0,0-.151-.369c-.12-.05-2.964-1.212-4.842.8a.282.282,0,0,0,.413.384c1.612-1.729,4.186-.679,4.212-.667a.281.281,0,0,0,.255-.019" transform="translate(30.865 8.515)" fill="#161616"/>
            <g id="Grupo_157990" data-name="Grupo 157990" transform="translate(149.911 39.909)" opacity="0.5">
              <g id="Grupo_157989" data-name="Grupo 157989">
                <g id="Grupo_157988" data-name="Grupo 157988" clip-path="url(#clip-path-4)">
                  <path id="Trazado_131071" data-name="Trazado 131071" d="M115.9,33.329c.166.688,2.015.832,4.129.321s3.693-1.484,3.526-2.172-2.015-.832-4.129-.321-3.693,1.484-3.526,2.172" transform="translate(-115.89 -30.852)" fill="#848484"/>
                </g>
              </g>
            </g>
            <g id="Grupo_157993" data-name="Grupo 157993" transform="translate(135.624 44.585)" opacity="0.5">
              <g id="Grupo_157992" data-name="Grupo 157992">
                <g id="Grupo_157991" data-name="Grupo 157991" clip-path="url(#clip-path-5)">
                  <path id="Trazado_131072" data-name="Trazado 131072" d="M105.4,36.873c1.431-.529,2.372-1.241,2.242-1.781s-1.285-.741-2.793-.561c.229.949.415,1.75.551,2.343" transform="translate(-104.845 -34.467)" fill="#848484"/>
                </g>
              </g>
            </g>
            <path id="Trazado_131073" data-name="Trazado 131073" d="M126.1,34.365a4,4,0,0,0,1.384.887,5.1,5.1,0,0,0,2.393.263c.019-.118.035-.235.049-.349.038-.27.067-.536.085-.8l.11-.03a5.362,5.362,0,0,1-.6.072,4.068,4.068,0,0,1-1.031-.05,3.021,3.021,0,0,1-1.6-.8.564.564,0,0,0-.789.807" transform="translate(36.969 9.804)" fill="#848484"/>
            <path id="Trazado_131074" data-name="Trazado 131074" d="M116.606,55.9a12.033,12.033,0,0,0,1.314,0c7.7-.417,15.655-9.16,17.649-16.859a2.463,2.463,0,0,0-2.081-1.733l-.913-9.244-3.713-1.648s-1.162,8.657-3.926,9.614-9.444,1.238-11.9,3.407c0,0-4.945-.7-7.549,1.687.264,6.389,3.562,14.334,11.122,14.775" transform="translate(30.966 7.754)" fill="#161616"/>
            <path id="Trazado_131075" data-name="Trazado 131075" d="M117.512,35.974s.983,4.908-3.02,6.2a4.315,4.315,0,0,1-5.467-2.583Z" transform="translate(32.006 10.561)" fill="#fff"/>
            <path id="Trazado_131076" data-name="Trazado 131076" d="M114.593,42.379a2.253,2.253,0,0,0,1.046-1.068.378.378,0,0,0-.7-.29,1.535,1.535,0,0,1-1.5.838.378.378,0,1,0-.022.755,2.455,2.455,0,0,0,1.169-.235" transform="translate(33.189 11.974)" fill="#616161"/>
            <path id="Trazado_131077" data-name="Trazado 131077" d="M129.677,32.938a.565.565,0,0,0,.334-.552c-.264-3.995,3.846-6.825,3.887-6.853a.564.564,0,0,0-.631-.935c-.191.129-4.689,3.216-4.381,7.862a.565.565,0,0,0,.6.526.6.6,0,0,0,.191-.048" transform="translate(37.832 7.193)" fill="#848484"/>
            <path id="Trazado_131078" data-name="Trazado 131078" d="M133.632,28.85a.551.551,0,0,0,.177-.124.564.564,0,0,0-.016-.8,3.873,3.873,0,0,0-3.719-.77.564.564,0,0,0,.329,1.08,2.746,2.746,0,0,1,2.609.5.562.562,0,0,0,.62.11" transform="translate(38.068 7.919)" fill="#848484"/>
            <path id="Trazado_131079" data-name="Trazado 131079" d="M112,38.307a.564.564,0,0,0,0-1.032l-3.459-1.5,2.445-1.413a.567.567,0,0,0,.273-.385l1.312-7.071a.564.564,0,1,0-1.109-.206L110.2,33.512l-3.189,1.842a.565.565,0,0,0,.057,1.006l4.485,1.948a.56.56,0,0,0,.454,0" transform="translate(31.331 7.702)" fill="#848484"/>
            <path id="Trazado_131080" data-name="Trazado 131080" d="M118.7,26.015a1.552,1.552,0,0,0,.329-2.636c-.16-.125-3.967-3.062-7.882-.679a1.551,1.551,0,1,0,1.612,2.649c2.1-1.275,4.328.45,4.352.467a1.548,1.548,0,0,0,1.59.2" transform="translate(32.409 6.391)" fill="#161616"/>
            <path id="Trazado_131081" data-name="Trazado 131081" d="M105.145,29.224a1.55,1.55,0,0,0,.869-1.015c.342-1.266,2.45-1.779,3-1.846a1.551,1.551,0,0,0-.38-3.079c-1.729.215-4.857,1.322-5.61,4.119a1.55,1.55,0,0,0,2.125,1.821" transform="translate(30.227 6.832)" fill="#161616"/>
            <path id="Trazado_131082" data-name="Trazado 131082" d="M113.588,29.453c.3,1.022.977,1.724,1.507,1.568s.717-1.112.415-2.134-.975-1.724-1.507-1.568-.717,1.112-.415,2.134" transform="translate(33.303 8.013)" fill="#161616"/>
            <path id="Trazado_131083" data-name="Trazado 131083" d="M117.592,28.181a.282.282,0,0,0,.026-.5c-.113-.065-2.786-1.577-4.9.185a.282.282,0,1,0,.36.433c1.819-1.512,4.239-.144,4.262-.129a.285.285,0,0,0,.256.013" transform="translate(33.059 7.93)" fill="#161616"/>
            <path id="Trazado_131084" data-name="Trazado 131084" d="M106.6,76.642a36.162,36.162,0,0,1-5.834,11.768c-.092-.442-.186-.873-.279-1.3a35.294,35.294,0,0,0,4.952-9.994,27.175,27.175,0,0,0-.949-18.68c.294-.14.589-.273.89-.4A27.968,27.968,0,0,1,106.6,76.642" transform="translate(29.5 17.036)" fill="#8e8e8e"/>
            <path id="Trazado_131085" data-name="Trazado 131085" d="M175.876,59.706a35.653,35.653,0,0,1-12.418,14.441v0q-1.2.792-2.445,1.484c-8.049,4.447-17.344,5.438-26.226,7.152-8.917,1.722-17.2,4.612-24.172,10.6a43.8,43.8,0,0,0-7.962,9.02c-.063-.49-.129-.975-.194-1.453a45.121,45.121,0,0,1,7.2-8.047c6.2-5.445,13.6-8.61,21.6-10.4,9.165-2.053,18.817-2.689,27.405-6.773a33.633,33.633,0,0,0,5.177-3.063,34.757,34.757,0,0,0,11.42-14c.211.336.415.679.617,1.032" transform="translate(30.079 17.225)" fill="#8e8e8e"/>
            <path id="Trazado_131086" data-name="Trazado 131086" d="M100.344,75.385c.067.32.594,2.882,1.269,6.518q.149.8.305,1.666c1.043,5.784,2.3,13.514,2.77,19.451a.552.552,0,0,1-.978.392l-.012-.014c-.445-5.926-1.741-13.868-2.8-19.748a.347.347,0,0,1-.017-.1c-.829-4.565-1.5-7.869-1.524-7.957a.5.5,0,0,1,.389-.6.5.5,0,0,1,.6.389" transform="translate(29.165 22.013)" fill="#373737"/>
            <path id="Trazado_131087" data-name="Trazado 131087" d="M127.52,77.737a74.446,74.446,0,0,1-2.027-13.044,40.805,40.805,0,0,1,.715-9.553s7.452-4.275,9.544-9.96c0,0,8.675,1.136,10.285,7.033,0,0-8.655,20.4-18.517,25.525" transform="translate(36.833 13.263)" fill="#373737"/>
            <path id="Trazado_131088" data-name="Trazado 131088" d="M116.1,50.543s-5.314-.1-4.634,7.045c1.35,14.207,11.016,17.207,11.016,17.207l1.228-7.5a47.236,47.236,0,0,0,.175-11.211s-7.077.283-7.785-5.539" transform="translate(32.705 14.838)" fill="#373737"/>
            <path id="Trazado_131089" data-name="Trazado 131089" d="M125.041,62.674a1.517,1.517,0,1,1-1.664-1.354,1.516,1.516,0,0,1,1.664,1.354" transform="translate(35.819 17.999)" fill="#373737"/>
            <path id="Trazado_131090" data-name="Trazado 131090" d="M125.122,67.352A1.517,1.517,0,1,1,123.458,66a1.517,1.517,0,0,1,1.664,1.354" transform="translate(35.843 19.372)" fill="#373737"/>
            <path id="Trazado_131091" data-name="Trazado 131091" d="M125.386,71.55a1.517,1.517,0,1,1-1.664-1.354,1.516,1.516,0,0,1,1.664,1.354" transform="translate(35.92 20.605)" fill="#373737"/>
            <path id="Trazado_131092" data-name="Trazado 131092" d="M134.588,98.971c-.193,3.738-4.073,6.75-6.434,9.215q-12.277,12.828-24.556,25.653c.027-.52.052-1.019.075-1.5l4.394-4.591q8.755-9.143,17.5-18.286,2.274-2.373,4.548-4.749a14.259,14.259,0,0,0,3.074-4.179c.946-2.283-.04-4.527-2.579-4.866a11.061,11.061,0,0,0-4.641.669,67.757,67.757,0,0,0-22.207,11.8c-.019-.413-.039-.823-.063-1.228l0,0a68.791,68.791,0,0,1,6.661-4.6,69.906,69.906,0,0,1,9.69-4.9c3.088-1.265,6.742-2.948,10.161-2.764,2.422.132,4.512,1.726,4.375,4.327" transform="translate(30.413 27.78)" fill="#8e8e8e"/>
            <path id="Trazado_131093" data-name="Trazado 131093" d="M156.6,73.373c-6.593,3.238-13.1,7.372-17.067,13.738-3.531,5.667-4.859,13.009-1.568,19.092a15.287,15.287,0,0,0,5.838,6.05c2.629,1.491,5.424,1.664,8.376,1.638,3.39-.028,8,.039,8.578,4.366.462,3.486-1.739,6.829-1.776,10.307-.066,6.142,7.089,10.606,12.623,8.187.581-.254.226-1.178-.36-.922a8.141,8.141,0,0,1-8.62-1.623c-2.541-2.256-2.995-5.186-2.264-8.377.625-2.728,1.98-5.692,1.213-8.527a5.738,5.738,0,0,0-4.158-3.992c-2.707-.754-5.58-.224-8.342-.457A12.422,12.422,0,0,1,141,108.773c-4.78-5.2-4.843-12.641-1.921-18.783,3.55-7.456,10.7-12.166,17.884-15.695.567-.278.213-1.2-.36-.922" transform="translate(39.949 21.524)" fill="#8e8e8e"/>
            <path id="Trazado_131094" data-name="Trazado 131094" d="M182.725,141.189c-.009.332-.019.662-.028,1-.317.019-.631.036-.944.041a24.021,24.021,0,0,1-5.465-.479,21.4,21.4,0,0,1-9.576-4.556c-3.4-2.9-5.782-6.765-8.184-10.488-2.471-3.829-5.135-7.712-9-10.277-4.515-2.991-9.6-2.913-14.4-.585-4.5,2.19-8.54,5.543-12.337,8.76a115.342,115.342,0,0,0-20.063,22.062c.048-.639.093-1.27.136-1.9v0a116.4,116.4,0,0,1,20.816-22.181c3.661-3,7.519-6.1,11.888-8.024a14.633,14.633,0,0,1,12.354-.179c3.7,1.757,6.62,4.861,8.981,8.137,2.7,3.751,4.873,7.886,7.917,11.39a20.7,20.7,0,0,0,10.778,6.679,23,23,0,0,0,6.183.653c.317-.01.631-.022.944-.045" transform="translate(30.157 33.199)" fill="#8e8e8e"/>
            <path id="Trazado_131095" data-name="Trazado 131095" d="M174.24,161.631c-.294.169-.753.426-1.015.576-7.764-4.192-16.752-6.467-25.288-3.163-4.441,1.72-9.4,5.4-10.135,10.451a7.529,7.529,0,0,0,.04,2.53q-.483.035-.97.05c-.7-3.733,1.4-7.346,4.062-9.838a21.936,21.936,0,0,1,11.24-5.383c7.747-1.366,15.339,1.022,22.067,4.776" transform="translate(40.141 45.933)" fill="#8e8e8e"/>
            <path id="Trazado_131096" data-name="Trazado 131096" d="M136.127,173.392c-.313-.014-.627-.032-.937-.049-.054-.005-.107-.006-.16-.01,2.368-4.641,4.539-10.583,2.971-15.54a7.232,7.232,0,0,0-7.667-4.932c-3.372.211-6.446,2.055-9.16,3.926A43.577,43.577,0,0,0,110,168.061c-.256-.1-.512-.2-.764-.3l-.184-.076c.369-.543.749-1.076,1.14-1.6A41.347,41.347,0,0,1,125.1,153.319c5.371-2.544,12.493-1.731,14.035,4.921,1.14,4.925-.661,10.483-3.011,15.153" transform="translate(32.013 44.617)" fill="#8e8e8e"/>
            <path id="Trazado_131097" data-name="Trazado 131097" d="M181.169,159.365c-.043.327-.084.651-.129.977-.31-.048-.621-.1-.931-.162a30.7,30.7,0,0,1-3.143-.757c-8.263-2.432-14.113-8.424-20.244-14.128a45.21,45.21,0,0,0-10.012-7.561,20.286,20.286,0,0,0-14.287-1.6c-5.394,1.339-10.232,4.333-14.666,7.6a86.737,86.737,0,0,0-11.1,9.753q-2.687,2.81-5.116,5.834c.041-.576.084-1.149.125-1.714a86.611,86.611,0,0,1,6.287-6.826c6.84-6.679,15.322-13.645,24.866-15.759,9.019-2,16.508,2.277,23.006,8.113,6.645,5.971,12.658,12.823,21.547,15.384.948.272,1.905.5,2.869.683.31.061.617.113.931.164" transform="translate(29.808 39.491)" fill="#8e8e8e"/>
            <path id="Trazado_131098" data-name="Trazado 131098" d="M104.377,97.7s1.733-9.056.709-12-1-7.92-3.033-7.4-1.886,6.648-1.886,6.648Z" transform="translate(29.405 22.976)" fill="#bcbcbc"/>
            <path id="Trazado_131099" data-name="Trazado 131099" d="M181.56,81.888l-1.045,4.167c-.351,1.363-.7,2.723-1.071,4.075-.736,2.707-1.484,5.407-2.268,8.1-1.582,5.385-3.226,10.764-5.055,16.132s-3.754,10.748-6.022,16.167c-1.133,2.713-2.339,5.441-3.713,8.226a66.167,66.167,0,0,1-5.054,8.73c-.551.785-1.154,1.595-1.864,2.45a27.11,27.11,0,0,1-2.591,2.735,21.475,21.475,0,0,1-1.863,1.523,18.278,18.278,0,0,1-2.63,1.591,15.824,15.824,0,0,1-3.851,1.328,15.068,15.068,0,0,1-2.446.294l-.318.01h-.225l-.445-.008c-.305-.005-.569-.025-.851-.045a18.608,18.608,0,0,1-5.2-1.209,24.371,24.371,0,0,1-3.438-1.652,36.859,36.859,0,0,1-4.828-3.372,71.124,71.124,0,0,1-7.006-6.71c-2.07-2.237-3.98-4.483-5.818-6.742s-3.591-4.533-5.3-6.817-3.346-4.6-4.891-6.97-3.014-4.782-4.385-7.256q-1.032-1.851-1.983-3.759c-.32-.634-.621-1.282-.925-1.93-.153-.322-.3-.648-.446-.982l-.444-1.023a7.983,7.983,0,0,1,12.638-9.133l.342.308c.463.414.974.9,1.445,1.369s.968.944,1.438,1.426q1.422,1.442,2.807,2.907,2.771,2.928,5.428,5.9c1.779,1.978,3.524,3.963,5.257,5.932s3.5,3.888,5.274,5.74,3.573,3.632,5.366,5.271a50.241,50.241,0,0,0,5.207,4.243,12.716,12.716,0,0,0,1.995,1.176c.216.091.366.123.286.063a3.1,3.1,0,0,0-1.213-.3c-.11-.012-.2-.014-.339-.023l-.188-.005-.288,0a8.737,8.737,0,0,0-1.429.164,8.393,8.393,0,0,0-1.927.629,7.072,7.072,0,0,0-.894.5c-.166.1-.269.19-.3.2-.082.049.025-.1.158-.308s.331-.523.537-.878c.413-.714.88-1.618,1.338-2.59s.93-2.026,1.383-3.12c.908-2.187,1.776-4.527,2.6-6.924,1.639-4.806,3.164-9.822,4.592-14.9,1.411-5.085,2.782-10.23,4.061-15.408.644-2.588,1.286-5.181,1.9-7.777l.922-3.887.874-3.815.052-.222a13.708,13.708,0,1,1,26.722,6.129c-.016.067-.049.2-.065.269" transform="translate(27.866 19.036)" fill="#bcbcbc"/>
            <path id="Trazado_131100" data-name="Trazado 131100" d="M130.815,117.585l3.888,1.57c.68.276.213,1.316-.466,1.041l-3.888-1.57c-.68-.276-.213-1.316.466-1.041" transform="translate(38.168 34.505)" fill="#848484"/>
            <path id="Trazado_131101" data-name="Trazado 131101" d="M128.834,117.219a10.027,10.027,0,0,1,2.965,6.223.615.615,0,0,0,1.221-.133,11.347,11.347,0,0,0-3.4-7.037c-.565-.554-1.341.4-.781.947" transform="translate(37.764 34.084)" fill="#848484"/>
            <path id="Trazado_131102" data-name="Trazado 131102" d="M110.352,109.242a8.692,8.692,0,0,1-11.76-2.6,21.264,21.264,0,0,0-4.934-5.295c-4.3-2.908-10.2-5.147-11.956-7.231-2.6-3.075,1.739-2.869,2.271-2.77a60.109,60.109,0,0,1,7.985,2.334s-7.276-5-10.686-5.679-4.866-3.453-1.321-4.636,12.708,2.653,14.959,4.4c0,0-3.693-4.24-8.281-5.315s-6.085-2.075-7.479-3.377S80.639,75.25,87,76.915A20.81,20.81,0,0,1,97.758,82.98a34.832,34.832,0,0,0-3.766-5.708c-2.638-3.362-8.04-4.181-8.576-6.681-.548-2.556,5.631-1.339,8.739.858s5.553,3.53,8.161,7.636,4.96,8.12,5.931,10.954,5.749,12.453,4.416,16.56a5.326,5.326,0,0,1-2.312,2.644" transform="translate(22.869 20.302)" fill="#bcbcbc"/>
            <path id="Trazado_131103" data-name="Trazado 131103" d="M172.618,80.233a143.278,143.278,0,0,1-1.371,18.129c-.041.347-.091.689-.136,1.024-.973,7.179-2.063,12.577-2.063,12.577-2.486.058-7.033-.9-12.14-2.251-.32-.084-.643-.171-.966-.259-4.068-1.106-8.425-2.429-12.328-3.67l-1.759-.563c-2.824-.912-5.329-1.754-7.2-2.387h0l-1.4-.483c-1.306-.449-2.063-.718-2.063-.718s.938-4.036,2.354-9.647c.084-.329.172-.666.256-1.009.378-1.486.789-3.072,1.219-4.709q.132-.495.259-1c2.889-10.885,6.659-23.694,9.087-26.55a9.505,9.505,0,0,1,1.669-1.523c.265-.19.541-.371.825-.541a13.872,13.872,0,0,1,1.61-.808,16.318,16.318,0,0,1,14.1.47c.272.142.537.3.8.466a13.867,13.867,0,0,1,3.467,3.117,17.539,17.539,0,0,1,1.317,1.934c.155.256.307.517.455.793a31.988,31.988,0,0,1,3.671,11.007,54.4,54.4,0,0,1,.336,5.676q.01.456.009.918" transform="translate(38.511 15.993)" fill="#6a6a6a"/>
            <path id="Trazado_131104" data-name="Trazado 131104" d="M165.628,88.4c-.041.347-.091.689-.136,1.024a21.071,21.071,0,0,0-3.152.942,22.642,22.642,0,0,0-11.051,9.385c-.32-.084-.643-.171-.966-.259a23.759,23.759,0,0,1,11.321-9.889,22.022,22.022,0,0,1,3.984-1.2" transform="translate(44.129 25.952)" fill="#8e8e8e"/>
            <path id="Trazado_131105" data-name="Trazado 131105" d="M167.732,60.962c-.453.113-.9.242-1.345.388-6,1.94-9.4,6.53-12.392,11.81-2.522,4.467-5.245,9.559-10.125,11.826a10.175,10.175,0,0,1-9.725-.384c.088-.33.175-.664.259-1,3.93,3.008,9.634.99,12.907-2.309,4.029-4.066,5.912-9.656,9.346-14.158a19.292,19.292,0,0,1,10.62-6.97c.155.256.307.519.455.793" transform="translate(39.38 17.663)" fill="#8e8e8e"/>
            <path id="Trazado_131106" data-name="Trazado 131106" d="M170.2,74.6c-4.828-.45-9.236,3.385-11.877,7.272-2.688,3.949-4.521,8.447-7.632,12.108a19.835,19.835,0,0,1-9.495,6.172l-1.759-.563c5.873-1.2,10.189-5.091,13.255-10.1,2.707-4.421,4.829-9.446,8.926-12.813a12.382,12.382,0,0,1,8.574-2.995q.01.456.009.918" transform="translate(40.932 21.624)" fill="#8e8e8e"/>
            <path id="Trazado_131107" data-name="Trazado 131107" d="M134.186,94.553h0l-1.4-.482c3.361-1.316,6.5-3.628,4.027-7.069a11.944,11.944,0,0,0-3.736-3.295c.084-.33.172-.666.256-1.009a10.784,10.784,0,0,1,5.035,5.08c1.352,3.212-1.18,5.407-4.174,6.776" transform="translate(38.979 24.277)" fill="#8e8e8e"/>
            <path id="Trazado_131108" data-name="Trazado 131108" d="M160.839,57.244c-.213.207-.427.414-.64.614-3.042,2.885-6.348,5.271-10.746,4.945a7.723,7.723,0,0,1-6.588-4.531c-.035-.075-.067-.146-.1-.22a11.684,11.684,0,0,1-.444-7.214c.308.074.621.145.942.21a10.617,10.617,0,0,0,.427,6.684c1.51,3.425,5.051,4.661,8.563,3.881a15.562,15.562,0,0,0,7.15-4.22c.276-.256.547-.517.819-.783.21.2.414.414.617.634" transform="translate(41.675 14.924)" fill="#8e8e8e"/>
            <path id="Trazado_131109" data-name="Trazado 131109" d="M163.183,78.142a96.49,96.49,0,0,1-3.158,26.7.485.485,0,0,0,.935.257,97.5,97.5,0,0,0,3.193-26.954.485.485,0,0,0-.97,0" transform="translate(46.972 22.802)" fill="#373737"/>
            <path id="Trazado_131110" data-name="Trazado 131110" d="M12.166,139.708c.162.433.322.867.475,1.3,3.957,10.981,6.914,22,8.011,29.351,2.277,15.221,1.6,13.361-5.154,43.559,0,0-1.308,9.139-2.762,20.907H106.3c-1.15-7.347-2.993-16.107-5.2-25.513-.084-.194-.728-2.693-.925-3.238-.125-.339-.27-.741-.428-1.2-.925-2.671-2.415-7.32-3.984-12.945-.331-1.189-.666-2.422-1-3.688-.874-3.315-1.737-6.866-2.51-10.484q-.437-2.045-.83-4.1c-.247-1.305-.48-2.61-.691-3.91-.228-1.369-.4-2.575-.528-3.592-.012-.084-.019-.164-.031-.242-.019-.177-.041-.352-.056-.519-.005-.034-.008-.065-.01-.094,0,0,.221-.22.6-.625.053-.056.109-.116.164-.181,1.775-1.921,6.106-7.047,7.675-12.7s-3.093-15.285-6.517-26.33c-.136-.441-.272-.889-.4-1.335a80.99,80.99,0,0,1-1.952-7.9c-2.79-14.761-2.094-20.591-25.27-24.734L63.4,91.4,37.978,89.115s-1.406.492-3.618,1.257c-4.579,1.589-12.617,4.362-18.762,6.412-13.95,4.65-13.015,19.877-7.217,33.388,1.334,3.1,2.6,6.309,3.785,9.535" transform="translate(1.289 26.161)" fill="#161616"/>
            <path id="Trazado_131111" data-name="Trazado 131111" d="M69.023,112.309q3.658,11.008,7.316,22.016c.159.482-.6.689-.759.21q-3.66-11.008-7.316-22.016c-.16-.482.6-.689.759-.21" transform="translate(20.033 32.89)" fill="#565656"/>
            <path id="Trazado_131112" data-name="Trazado 131112" d="M22.85,178.881A32.723,32.723,0,0,0,37.474,197.2a.591.591,0,0,0,.6-1.019,31.492,31.492,0,0,1-14.082-17.616c-.228-.722-1.369-.413-1.138.314" transform="translate(6.699 52.3)" fill="#565656"/>
            <path id="Trazado_131113" data-name="Trazado 131113" d="M78.934,180.212a20.093,20.093,0,0,1-5.861,14.13c-.546.532.29,1.366.834.836a21.3,21.3,0,0,0,6.208-14.965.591.591,0,0,0-1.181,0" transform="translate(21.399 52.736)" fill="#565656"/>
            <path id="Trazado_131114" data-name="Trazado 131114" d="M54.976,92.627c4.136,3.759,8.483,7.272,12.58,11.074.026-.2.053-.409.079-.613q-5.326,2.961-10.4,6.348a.4.4,0,0,0-.079.613l13.492,14.573v-.551c-2.77,2.356-5.675,4.555-8.32,7.052-.366.345.186.9.552.552,2.645-2.5,5.551-4.7,8.32-7.054a.394.394,0,0,0,0-.551L57.709,109.5c-.026.2-.053.407-.079.613q5.068-3.384,10.4-6.349a.394.394,0,0,0,.079-.613c-4.1-3.8-8.444-7.315-12.58-11.074-.371-.338-.925.213-.552.552" transform="translate(16.103 26.999)" fill="#565656"/>
            <path id="Trazado_131115" data-name="Trazado 131115" d="M75.809,225.159C70.7,181.73,61.589,123.2,61.478,122.49a.52.52,0,1,0-1.028.16c.111.71,9.2,59.12,14.312,102.508Z" transform="translate(17.744 35.829)" fill="#565656"/>
            <path id="Trazado_131116" data-name="Trazado 131116" d="M40.775,134.934a.493.493,0,0,1-.149-.022l-13.395-4a.519.519,0,0,1-.332-.695l6.566-16.1-12.713-7.99a.519.519,0,0,1-.128-.767L30.5,93.086a.52.52,0,1,1,.811.652L21.8,105.56l12.588,7.913a.518.518,0,0,1,.206.636l-6.516,15.974,12.845,3.832a.521.521,0,0,1-.149,1.019" transform="translate(6.021 27.27)" fill="#565656"/>
            <path id="Trazado_131117" data-name="Trazado 131117" d="M36.55,192.617c-.169,11.611-.4,22.487-.657,31.8h1.039c.257-9.243.481-19.878.643-30.61.419-28.13.47-63.028-.772-68.8a.521.521,0,0,0-1.018.219c1.207,5.609,1.165,39.812.766,67.4" transform="translate(10.502 36.574)" fill="#565656"/>
            <path id="Trazado_131118" data-name="Trazado 131118" d="M35.358,108.039c1.2,3.839,2.427,8.323,3.635,13.5.075.318.15.639.222.964q.947,4.123,1.867,8.827c.158.812.308,1.733.448,2.748.038.269.075.548.11.834.614,4.872,1.032,11.711,1.3,19.773l.023.8c.107,3.4.19,7.01.246,10.773.006.31.009.624.014.937.118,8.362.123,17.457.053,26.7l-.008.886c-.03,3.574-.07,7.166-.12,10.746,0,.243-.005.486-.01.727-.049,3.456-.107,6.895-.175,10.289l-.016.832q-.064,3.386-.14,6.7c-.008.3-.013.591-.021.889-.078,3.376-.16,6.671-.247,9.867H81.285c-.511-4.676-1.062-9.654-1.644-14.824-.04-.361-.083-.723-.123-1.087-.656-5.826-1.348-11.866-2.062-17.93v0q-.093-.8-.188-1.592v0c-.677-5.749-1.372-11.5-2.068-17.107-.031-.264-.066-.529-.1-.794-.7-5.652-1.41-11.139-2.106-16.294-.043-.326-.085-.649-.131-.973-.9-6.622-1.768-12.667-2.587-17.776-.056-.348-.113-.693-.166-1.032-.038-.217-.072-.431-.107-.643-.927-5.633-1.874-10.775-2.816-15.462-.054-.256-.1-.514-.158-.767-1.645-8.085-3.28-14.783-4.807-20.282-.067-.244-.135-.488-.2-.726A145.025,145.025,0,0,0,56.6,91.4L31.177,89.115s-1.4.49-3.619,1.257c1.792,2.141,4.531,7.444,7.477,16.644.11.335.216.677.323,1.022" transform="translate(8.09 26.161)" fill="#fff"/>
            <path id="Trazado_131119" data-name="Trazado 131119" d="M33.338,102.955c.11.334.217.677.323,1.022a36.48,36.48,0,0,0,18.56,2.881,22.833,22.833,0,0,0,8.306-2.661c-.067-.244-.135-.488-.2-.726-6.771,3.9-15.575,3.339-22.791,1.075a38.633,38.633,0,0,1-4.2-1.591" transform="translate(9.787 30.224)" fill="#cfcfcf"/>
            <path id="Trazado_131120" data-name="Trazado 131120" d="M36.4,114.179c.075.318.15.639.222.964a92.692,92.692,0,0,0,24.963,6.636c.979.1,1.987.163,3.009.171-.053-.256-.1-.514-.158-.767a48.536,48.536,0,0,1-7.169-.854,104.31,104.31,0,0,1-13.281-3.365q-3.848-1.244-7.587-2.785" transform="translate(10.685 33.519)" fill="#cfcfcf"/>
            <path id="Trazado_131121" data-name="Trazado 131121" d="M38.359,123.872c.038.27.075.548.11.834a105.3,105.3,0,0,1,28.638,11.535q-.083-.522-.166-1.032a106.417,106.417,0,0,0-28.583-11.337" transform="translate(11.261 36.364)" fill="#cfcfcf"/>
            <path id="Trazado_131122" data-name="Trazado 131122" d="M39.447,139.8q.012.4.025.8a105.374,105.374,0,0,1,30.035,9.711q-.064-.489-.132-.974A106.426,106.426,0,0,0,39.447,139.8" transform="translate(11.58 41.041)" fill="#cfcfcf"/>
            <path id="Trazado_131123" data-name="Trazado 131123" d="M56.166,167.066c1.185,2.277,2.945,5.363,2.309,8.015-.723,3.022-4.262,3.525-6.865,3.648a25.5,25.5,0,0,1-11.888-2.34l-.008.885a24.8,24.8,0,0,0,14.458,1.988c12.566-2.314-1.369-19.61-5.777-23.878a46.049,46.049,0,0,0-8.741-6.633c.006.31.009.622.014.935a44.464,44.464,0,0,1,16.5,17.38" transform="translate(11.641 43.668)" fill="#cfcfcf"/>
            <path id="Trazado_131124" data-name="Trazado 131124" d="M61.034,169.681a64.817,64.817,0,0,0,5.205,7.942q.838,1.2,1.691,2.4-.091-.8-.188-1.592v0q-2.406-3.419-4.694-6.912c-1.5-2.284-3.362-5.562-1.46-8.165a5.6,5.6,0,0,1,4.088-2.03c-.032-.265-.067-.53-.1-.8-.166.019-.334.04-.5.067a6.1,6.1,0,0,0-4.348,2.605c-1.257,2.039-.689,4.473.308,6.485" transform="translate(17.615 47.124)" fill="#cfcfcf"/>
            <path id="Trazado_131125" data-name="Trazado 131125" d="M39.6,179.835c11.024,1.533,21.864,4.746,31.472,10.448,1.724,1.026,3.407,2.124,5.033,3.3-.039-.361-.083-.722-.123-1.085-10.737-7.554-23.342-11.57-36.372-13.391,0,.243-.005.486-.01.727" transform="translate(11.625 52.58)" fill="#cfcfcf"/>
            <path id="Trazado_131126" data-name="Trazado 131126" d="M72.178,205.909h1.4A132.142,132.142,0,0,0,39.47,187.623c-.006.278-.012.554-.017.832.538.193,1.076.391,1.61.591a130.823,130.823,0,0,1,31.114,16.863" transform="translate(11.582 55.079)" fill="#cfcfcf"/>
            <path id="Trazado_131127" data-name="Trazado 131127" d="M52.39,204.2h1.186A49.638,49.638,0,0,0,39.35,193.445c-.008.3-.013.591-.021.887a48.881,48.881,0,0,1,7.014,4.428A49.622,49.622,0,0,1,52.39,204.2" transform="translate(11.546 56.788)" fill="#cfcfcf"/>
            <path id="Trazado_131128" data-name="Trazado 131128" d="M24.026,161.127c.072.429.141.852.207,1.274.207,1.3.389,2.568.542,3.791.18,1.416.321,2.78.417,4.072a29.6,29.6,0,0,1-.414,9.29,356.757,356.757,0,0,0-9.571,49.176H16.76a354.614,354.614,0,0,1,9.51-48.774,25.151,25.151,0,0,0,.6-6.858c-.035-1.583-.151-3.295-.335-5.107-.18-1.746-.419-3.586-.715-5.5-.065-.42-.131-.845-.2-1.274-3.429-21-12.7-49.2-13.228-50.812a.772.772,0,1,0-1.467.484c.128.395,9.568,29.118,13.105,50.233" transform="translate(3.194 32.256)" fill="#565656"/>
            <path id="Trazado_131129" data-name="Trazado 131129" d="M43.672,47.038s1.968-17.915-15.8-19.489C13.644,26.288,6.62,45.529,15.806,61.842S14.545,87.11,4.279,81.823c0,0,3.826,9.659,18.3,5.878S43.672,47.038,43.672,47.038" transform="translate(1.256 8.07)" fill="#161616"/>
            <path id="Trazado_131130" data-name="Trazado 131130" d="M21.09,75.991a31.577,31.577,0,0,0,8.955,10.562c10.867,8.522,20.145,14.575,32.748,8.311,3.806-1.977,6.523-6.715,6.6-6.846,1.939-3.521,3.246-10.53,3.406-16.6.158-5.988-.636-3.92,1.746-12.712,3.621-13.355-13.767-19.986-13.767-19.986-6.327-3.932-24.248-6.852-36.253,6.25-7.39,8.065-9.042,17.113-3.963,29.051a10.186,10.186,0,0,1,.533,1.965" transform="translate(5.175 10.392)" fill="#161616"/>
            <path id="Trazado_131131" data-name="Trazado 131131" d="M37.887,37.057a27.614,27.614,0,0,0-18.873,19.08.485.485,0,0,1-.935-.259A28.611,28.611,0,0,1,37.629,36.122a.485.485,0,0,1,.257.935" transform="translate(5.301 10.598)" fill="#a9a9a9"/>
            <path id="Trazado_131132" data-name="Trazado 131132" d="M27.669,42.022c-1.376-3.659-4.94-6.486-8.994-6.13-.821.071-1.741.382-1.419,1.449.128.427.884,1.05,1.229,1.354a11.885,11.885,0,0,0,2.662,1.764,12.512,12.512,0,0,0,6.461,1.2c.623-.044.621.926,0,.97a13.377,13.377,0,0,1-8.5-2.23c-1.288-.877-4.424-3.344-2.3-4.956,1.762-1.334,5.138-.334,6.874.561a10.452,10.452,0,0,1,4.918,5.76c.22.585-.717.837-.935.257" transform="translate(4.724 10.215)" fill="#a9a9a9"/>
            <path id="Trazado_131133" data-name="Trazado 131133" d="M25.655,43.054c-.7-2.745-1.444-5.75-.554-8.544.582-1.832,2.178-3.713,4.317-3.174,2.017.506,2.343,2.823,1.739,4.516a17.04,17.04,0,0,1-4.667,6.46c-.461.42-1.147-.264-.687-.687,1.5-1.376,7.459-8.117,3.277-9.13a1.894,1.894,0,0,0-2.207.711,3.72,3.72,0,0,0-.675,1.16,7.826,7.826,0,0,0-.524,2.908A21.92,21.92,0,0,0,26.59,42.8a.485.485,0,0,1-.935.257" transform="translate(7.249 9.171)" fill="#a9a9a9"/>
            <path id="Trazado_131134" data-name="Trazado 131134" d="M57.363,62.076s2.542.207,3.05,3.445-1.088,8.659-4.372,8.016,1.322-11.461,1.322-11.461" transform="translate(16.105 18.223)" fill="#3a3a3a"/>
            <path id="Trazado_131135" data-name="Trazado 131135" d="M53.241,72.569a4.471,4.471,0,1,1,4.286,4.649,4.477,4.477,0,0,1-4.286-4.649m1.306.053a3.164,3.164,0,1,0,3.291-3.032,3.168,3.168,0,0,0-3.291,3.032" transform="translate(15.628 20.045)" fill="#a9a9a9"/>
            <line id="Línea_226" data-name="Línea 226" y2="0.003" transform="translate(64.648 105.528)" fill="#777"/>
            <path id="Trazado_131136" data-name="Trazado 131136" d="M28.746,95.5a23.956,23.956,0,0,0,14.625,7.816C55.437,105,56.787,99.795,56.787,99.795A22.813,22.813,0,0,1,55.8,94.8c-.057-.658-.093-1.334-.1-2.035a55.279,55.279,0,0,1,.318-6.41c.056-.564.116-1.151.186-1.757l.006-.071C47.848,82.594,41,78.923,36.29,72.785l-1.256-.741-.847-.5-.153.488.167,1.551c.808,7.293-1.605,15.578-5.455,21.922" transform="translate(8.439 21.002)" fill="#777"/>
            <path id="Trazado_131137" data-name="Trazado 131137" d="M29.42,89.489c2.575,4.427,5.357,8.735,8.35,12.89,2.851,3.96,5.954,8.584,9.919,11.526,2.2,1.632,5.15,2.85,7.851,1.718,2.834-1.189,3.178-4.383,3.207-7.072.061-5.758-.482-11.637-2.846-16.951-.252-.565.585-1.059.837-.489a37.782,37.782,0,0,1,2.93,13.982c.144,3.634.63,8.931-3.059,11.092-3.442,2.018-7.633.149-10.37-2.2-3.275-2.808-5.945-6.54-8.488-10A156.373,156.373,0,0,1,28.582,89.98a.486.486,0,0,1,.838-.49" transform="translate(8.37 26.202)" fill="#1c1c1c"/>
            <path id="Trazado_131138" data-name="Trazado 131138" d="M39.075,77.443c1.784,3.978,5.912,11.006,13.59,13.593a55.279,55.279,0,0,1,.318-6.41c.056-.564.116-1.151.186-1.757-.164.021-.334.035-.5.047-4.547.323-9.5-2-13.591-5.473" transform="translate(11.471 22.734)" fill="#161616"/>
            <path id="Trazado_131139" data-name="Trazado 131139" d="M25.06,67.959c-.263,4.527,3.247,10.294,9.158,10.8l.031,0h0l.125.012c.08.265.176.528.277.8.043.115.088.233.133.348a.149.149,0,0,0,.016.032c3.24,7.9,13.936,13.068,19.852,13.573a13.553,13.553,0,0,0,4.026-.286c6.362-1,8.03-9.418,7.424-15.965a24.839,24.839,0,0,0-.4-2.7c-.013-.058-.026-.116-.038-.173,0,0,2.634-8.954,3.357-12.884,1.4-7.618-2.55-15.672-19.29-18.185S28.347,51.029,26.843,56.5c-.254.911-.388,6.423.481,7.363-1.643.721-2.176,2.573-2.264,4.094" transform="translate(7.353 12.606)" fill="#777"/>
            <path id="Trazado_131140" data-name="Trazado 131140" d="M50.844,74.78a5.2,5.2,0,0,1-.621-.146,6.162,6.162,0,0,1-3.253-3.018.675.675,0,1,1,1.216-.585,4.87,4.87,0,0,0,2.428,2.31,2.388,2.388,0,0,0,2.42-.382.678.678,0,0,1,.951-.021.67.67,0,0,1,.035.943,3.582,3.582,0,0,1-3.176.9" transform="translate(13.769 20.74)" fill="#3a3a3a"/>
            <path id="Trazado_131141" data-name="Trazado 131141" d="M48.751,76.364a2.526,2.526,0,0,1-1.348-1,.425.425,0,0,1,.726-.442,1.726,1.726,0,0,0,1.806.669.424.424,0,1,1,.155.834,2.758,2.758,0,0,1-1.339-.057" transform="translate(13.898 21.934)" fill="#3a3a3a"/>
            <path id="Trazado_131142" data-name="Trazado 131142" d="M54.483,64.929c-.158,1.109-.753,1.942-1.328,1.86s-.916-1.048-.758-2.156.753-1.942,1.328-1.86.916,1.048.758,2.156" transform="translate(15.37 18.426)" fill="#161616"/>
            <path id="Trazado_131143" data-name="Trazado 131143" d="M52.025,63.876a.3.3,0,0,1-.038-.528c.118-.07,2.9-1.71,5.16.1a.3.3,0,0,1-.371.463c-1.94-1.554-4.458-.069-4.482-.053a.3.3,0,0,1-.269.019" transform="translate(15.22 18.377)" fill="#161616"/>
            <path id="Trazado_131144" data-name="Trazado 131144" d="M46.993,63.993c-.158,1.109-.753,1.942-1.328,1.86s-.916-1.048-.758-2.158.753-1.94,1.328-1.859.916,1.048.758,2.156" transform="translate(13.172 18.151)" fill="#161616"/>
            <path id="Trazado_131145" data-name="Trazado 131145" d="M44.158,63.289a.29.29,0,0,1-.153-.1.3.3,0,0,1,.049-.418c.107-.084,2.658-2.065,5.13-.555a.3.3,0,0,1,.1.406.3.3,0,0,1-.407.1c-2.123-1.3-4.43.5-4.454.514a.293.293,0,0,1-.264.052" transform="translate(12.9 18.098)" fill="#161616"/>
            <path id="Trazado_131146" data-name="Trazado 131146" d="M30.54,67.2a.888.888,0,0,1-.054,1.319,3.168,3.168,0,1,0,2.371.689l.062-1.515A4.466,4.466,0,1,1,30.54,67.2" transform="translate(7.747 19.727)" fill="#a9a9a9"/>
            <path id="Trazado_131147" data-name="Trazado 131147" d="M27.318,64.156a9.772,9.772,0,0,1,1.353.238,10,10,0,0,1,5.781,4.339c.222-1.541,1.8-8.609,12.079-9.875.147-.017.305-.035.471-.048a8.779,8.779,0,0,0,1.088-4.43c-1.07-4.174,19.106-2.26,19.85,4.158.312,2.689.481,4.441.573,5.578v0a10.909,10.909,0,0,1,.093,2.089s1.8,1.834,1.855-7.015a12.012,12.012,0,0,0-3.07-7.862c-4.073-4.846-11.747-8.272-20.2-9.266-12.52-1.469-21.5,11.762-22.044,16.561s2.172,5.531,2.172,5.531" transform="translate(7.36 12.315)" fill="#161616"/>
            <g id="Grupo_157996" data-name="Grupo 157996" transform="translate(70.088 87.178)" opacity="0.5">
              <g id="Grupo_157995" data-name="Grupo 157995">
                <g id="Grupo_157994" data-name="Grupo 157994" clip-path="url(#clip-path-6)">
                  <path id="Trazado_131148" data-name="Trazado 131148" d="M54.182,68.6c-.026.673,1.42,1.292,3.368,1.5a24.779,24.779,0,0,0-.4-2.7c-1.7.116-2.94.587-2.964,1.2" transform="translate(-54.182 -67.394)" fill="#3a3a3a"/>
                </g>
              </g>
            </g>
            <path id="Trazado_131149" data-name="Trazado 131149" d="M49.319,59.988a1.247,1.247,0,0,0,1.79-1.671,3.615,3.615,0,0,0-2.067-1.475,9.046,9.046,0,0,0-7.923,1.436s4.806.005,6.992,1.006a6.968,6.968,0,0,1,1.208.7" transform="translate(12.071 16.576)" fill="#161616"/>
            <path id="Trazado_131150" data-name="Trazado 131150" d="M54,60.76a1.247,1.247,0,0,1-1.352-2.043A3.62,3.62,0,0,1,55,57.764c4.7-.29,5.853,2.8,5.853,2.8a16.547,16.547,0,0,0-5.516-.212,7.034,7.034,0,0,0-1.339.4" transform="translate(15.341 16.952)" fill="#161616"/>
            <g id="Grupo_157999" data-name="Grupo 157999" transform="translate(51.085 86.286)" opacity="0.5">
              <g id="Grupo_157998" data-name="Grupo 157998">
                <g id="Grupo_157997" data-name="Grupo 157997" clip-path="url(#clip-path-7)">
                  <path id="Trazado_131151" data-name="Trazado 131151" d="M48.033,68.277c-.032.768-1.969,1.313-4.327,1.219s-4.245-.8-4.213-1.563,1.968-1.313,4.324-1.219,4.245.8,4.216,1.563" transform="translate(-39.492 -66.704)" fill="#3a3a3a"/>
                </g>
              </g>
            </g>
            <path id="Trazado_131152" data-name="Trazado 131152" d="M32.137,71.034l.031,0h0l.125.012c.079.265.175.528.276.8.044.115.089.233.135.348a.225.225,0,0,0,.014.032,5.438,5.438,0,0,0,2.34-.772,4.323,4.323,0,0,0,1.283-1.237.613.613,0,0,0-1.012-.692A3.3,3.3,0,0,1,33.8,70.716a4.444,4.444,0,0,1-1.087.27,5.2,5.2,0,0,1-.577.048" transform="translate(9.434 20.332)" fill="#3a3a3a"/>
            <path id="Trazado_131153" data-name="Trazado 131153" d="M34.19,69.778a.611.611,0,0,1-.472-.517c-.568-4.306-5.542-6.446-5.592-6.467a.612.612,0,0,1,.472-1.129c.232.1,5.674,2.425,6.333,7.435a.612.612,0,0,1-.528.687.59.59,0,0,1-.213-.009" transform="translate(8.147 18.089)" fill="#3a3a3a"/>
            <path id="Trazado_131154" data-name="Trazado 131154" d="M28.837,66.433a.558.558,0,0,1-.215-.094.611.611,0,0,1-.154-.851,4.208,4.208,0,0,1,3.8-1.61.612.612,0,0,1-.12,1.219,2.985,2.985,0,0,0-2.67,1.09.61.61,0,0,1-.636.247" transform="translate(8.325 18.745)" fill="#3a3a3a"/>
            <path id="Trazado_131155" data-name="Trazado 131155" d="M28.89,82.828c3.359,2.428,6.777,3.692,10.424.424.332-5.322-.94-11.372-2.763-14.853C33.557,62.679,38.6,55.536,38.6,55.536c-3.249,1.385-6.861,1.384-8.76,5.221,3.274,3.7,1.36,13.859-.953,22.071" transform="translate(8.481 16.303)" fill="#161616"/>
            <path id="Trazado_131156" data-name="Trazado 131156" d="M52.5,64.383a6.145,6.145,0,1,0-5.932,6.353A6.147,6.147,0,0,0,52.5,64.383m-5.953,5.5a5.608,5.608,0,0,1-1.376-.123,5.309,5.309,0,0,1-1.239-.467A5.218,5.218,0,0,1,41.122,65.3a3.924,3.924,0,0,1-.047-.53,5.283,5.283,0,0,1,5.11-5.464,5.8,5.8,0,0,1,1.321.11,5.332,5.332,0,0,1,2.657,1.49,5.124,5.124,0,0,1,1.089,1.651,5.062,5.062,0,0,1,.341,1.272,3.349,3.349,0,0,1,.056.576,5.284,5.284,0,0,1-5.1,5.476" transform="translate(11.806 17.158)" fill="#fff"/>
            <path id="Trazado_131157" data-name="Trazado 131157" d="M63.316,65.485a6.145,6.145,0,1,0-5.931,6.353,6.147,6.147,0,0,0,5.931-6.353m-5.953,5.5a5.6,5.6,0,0,1-1.376-.123,5.309,5.309,0,0,1-1.239-.467A5.218,5.218,0,0,1,51.934,66.4a3.925,3.925,0,0,1-.047-.53A5.283,5.283,0,0,1,57,60.409a5.8,5.8,0,0,1,1.321.11,5.332,5.332,0,0,1,2.657,1.49,5.123,5.123,0,0,1,1.089,1.651,5.062,5.062,0,0,1,.342,1.272,3.349,3.349,0,0,1,.056.576,5.284,5.284,0,0,1-5.1,5.476" transform="translate(14.98 17.482)" fill="#fff"/>
            <path id="Trazado_131158" data-name="Trazado 131158" d="M42.623,62.8a.509.509,0,0,1-.254-.08,12.674,12.674,0,0,0-7.817-2.006.505.505,0,1,1-.138-1,13.5,13.5,0,0,1,8.5,2.158.505.505,0,0,1-.295.93" transform="translate(9.975 17.511)" fill="#fff"/>
            <path id="Trazado_131159" data-name="Trazado 131159" d="M61.059,65.772a.51.51,0,0,1-.212-.057,6.928,6.928,0,0,0-3.566-.674.5.5,0,0,1-.563-.442.505.505,0,0,1,.442-.561,7.919,7.919,0,0,1,4.156.783.505.505,0,0,1-.257.952" transform="translate(16.649 18.787)" fill="#fff"/>
            <path id="Trazado_131160" data-name="Trazado 131160" d="M51.166,70.968a.507.507,0,0,0,.282-.054L53.834,69.7a.513.513,0,0,0,.053-.884,7.4,7.4,0,0,1-3.151-5.4.513.513,0,1,0-1.014.16,8.55,8.55,0,0,0,2.911,5.583L50.983,70a.513.513,0,0,0,.184.969" transform="translate(14.595 18.49)" fill="#3a3a3a"/>
            <path id="Trazado_131161" data-name="Trazado 131161" d="M51.862,64.426a.506.506,0,0,1-.331-.142,1.438,1.438,0,0,0-1.692-.229.506.506,0,0,1-.494-.882,2.465,2.465,0,0,1,2.89.385.506.506,0,0,1-.373.868" transform="translate(14.411 18.457)" fill="#fff"/>
            <path id="Trazado_131162" data-name="Trazado 131162" d="M26.433,154.271c.683.255,16.9,6.32,34.094,11.418a208.3,208.3,0,0,0,25.461,6.172,58.632,58.632,0,0,0,8.941.806q1.141,0,2.181-.071a19.871,19.871,0,0,0,6.769-1.573q.607-.268,1.15-.567A13.245,13.245,0,0,0,110,165.81a13.748,13.748,0,0,0,1.874-8.889c-.023-.287-.057-.578-.1-.869a45.439,45.439,0,0,0-3.288-10.818c-2.066-5-5.19-11.4-9.288-19-6.822-12.663-13.99-24.351-14.293-24.842-1.026-1.673-4.341-4.169-5.956-5.027,2.017,6.32,4.7,13.967,6.518,20.361,1.462,5.138,3.522,9.951,4.415,15.22.677,4.013,2.066,8.525,1.319,12.576-.454,2.475-1.719,4.609-3.989,5.117.15.326.3.647.433.953a225.114,225.114,0,0,1-25.785-6.717c-14.7-4.551-27.837-9.465-27.968-9.514a10.631,10.631,0,1,0-7.463,19.909" transform="translate(5.734 28.29)" fill="#161616"/>
            <path id="Trazado_131163" data-name="Trazado 131163" d="M85.666,156.714a13.265,13.265,0,0,0,4.969-4.646,13.756,13.756,0,0,0,1.874-8.889c-3.769,2.939-7.922,7.629-6.843,13.536" transform="translate(25.098 42.032)" fill="#565656"/>
            <path id="Trazado_131164" data-name="Trazado 131164" d="M74.554,144.717Z" transform="translate(21.886 42.484)" fill="#161616"/>
            <path id="Trazado_131165" data-name="Trazado 131165" d="M.106,156.89c.063.906.142,1.856.329,3.055.054.326.107.633.176.971l.052.243.071.323.066.281.034.142.045.171c.06.23.125.462.194.689l.107.347.153.441c.1.294.217.586.335.872a13.346,13.346,0,0,0,1.25,2.318,13.625,13.625,0,0,0,2.823,3.044A14.385,14.385,0,0,0,8.071,171.3a16.362,16.362,0,0,0,3.189,1.244c.512.142.969.25,1.392.334.278.054.537.1.789.144.635.106,1.2.171,1.724.221,1.056.1,1.966.131,2.833.144s1.67,0,2.449-.031c1.56-.056,3.009-.166,4.427-.294,2.821-.265,5.494-.622,8.131-1.015s5.218-.833,7.781-1.295c5.123-.924,10.162-1.951,15.173-3.027s9.982-2.209,14.943-3.383q3.722-.879,7.429-1.793l3.711-.921,3.746-.951a10.633,10.633,0,0,0-4.772-20.718l-.145.031-3.606.753-3.648.746q-3.65.732-7.311,1.438-7.315,1.4-14.625,2.663c-4.87.83-9.731,1.6-14.542,2.264-2.4.327-4.8.626-7.151.878-1.714.181-3.418.342-5.063.454.21-2.128.48-4.336.78-6.56.64-4.75,1.42-9.588,2.26-14.428q.631-3.63,1.309-7.266l.688-3.627.7-3.573.028-.145a13.207,13.207,0,0,0-25.915-5.112c-.034.169-.071.388-.1.556L4.09,112.9l-.556,3.813q-.543,3.811-1.041,7.638c-.662,5.108-1.265,10.237-1.749,15.484-.238,2.627-.449,5.282-.591,8.033-.07,1.38-.123,2.782-.144,4.252s-.013,3,.1,4.772" transform="translate(0 28.718)" fill="#161616"/>
            <path id="Trazado_131166" data-name="Trazado 131166" d="M.512,146.787l.071.323.065.281.035.141.044.171c.061.232.127.462.2.691l.107.347.151.441c.106.294.219.585.336.871a13.3,13.3,0,0,0,1.25,2.318,13.692,13.692,0,0,0,2.821,3.045,14.441,14.441,0,0,0,2.331,1.512,16.422,16.422,0,0,0,3.19,1.244c.512.141.969.248,1.391.332C11.791,151.8,5.124,148.37.512,146.787" transform="translate(0.15 43.091)" fill="#565656"/>
            <path id="Trazado_131167" data-name="Trazado 131167" d="M66.706,138.181c-1.059-2.094-.884-4.17-.735-6.363,1.252-1.137,2.389-2.089,2.933-2.632a43.85,43.85,0,0,1,7.244-5.152c2.962-1.81,4.949-1.9,7.631-2.325s7.024.733,5.868,2.2c-1.129,1.432-4.847.259-7.595,1.583a24.871,24.871,0,0,0-4.208,2.472,14.866,14.866,0,0,1,8.8-.5c4.6.937,5.655,3.462,4.353,3.857s-2.578.565-5.855-.189a13.207,13.207,0,0,0-6.976.8c1.992-.413,9.068.01,10.967,1.883s.1,3.191-2.3,2.555-8.631.277-8.631.277a43,43,0,0,1,5.848,1.017c.373.1,3.215,1.335.585,2.489-1.781.781-6.262.362-9.935.872a13.348,13.348,0,0,0-3.886,1.349,10.259,10.259,0,0,1-4.1-4.189" transform="translate(19.334 35.703)" fill="#777"/>
            <path id="Trazado_131168" data-name="Trazado 131168" d="M65.989,131.093c.968-1.845,2.575-4.661,3.764-5.482,1.812-1.253,3.882-4.108,4.825-2.962s-1.7,4.588-1.7,4.588l-6.965,4.98c.023-.371.05-.746.074-1.124" transform="translate(19.35 35.927)" fill="#777"/>
            <path id="Trazado_131169" data-name="Trazado 131169" d="M73.15,138.088a21.58,21.58,0,0,1,5.584,7.267c.254.565-.582,1.059-.838.49a20.991,20.991,0,0,0-5.432-7.072c-.464-.419.222-1.1.686-.686" transform="translate(21.227 40.499)" fill="#565656"/>
            <path id="Trazado_131170" data-name="Trazado 131170" d="M51.654,152.314a182.844,182.844,0,0,0-28.932-11.536.485.485,0,0,1,.259-.935,184.343,184.343,0,0,1,29.162,11.633c.559.281.069,1.118-.489.838" transform="translate(6.571 41.046)" fill="#565656"/>
            <path id="Trazado_131171" data-name="Trazado 131171" d="M19.229,142.737a13.2,13.2,0,0,0-5.081,4.939.485.485,0,0,1-.837-.49A14.162,14.162,0,0,1,18.74,141.9c.547-.3,1.037.537.489.838" transform="translate(3.887 41.637)" fill="#565656"/>
            <path id="Trazado_131172" data-name="Trazado 131172" d="M67.914,138.232a136.209,136.209,0,0,0-15.5-4.581c-.608-.141-.351-1.076.259-.935a136.276,136.276,0,0,1,15.5,4.581c.583.211.331,1.149-.257.935" transform="translate(15.285 38.956)" fill="#565656"/>
            <path id="Trazado_131173" data-name="Trazado 131173" d="M41.616,134.673a7.307,7.307,0,0,1-7.671,6.606,17.921,17.921,0,0,0-6.049.655c-4.125,1.433-8.6,4.273-10.888,4.407-3.376.2-1.056-2.616-.719-2.925a50.543,50.543,0,0,1,5.591-4.2s-7.028,2.381-9.2,4.333S7.9,145.087,8.891,142.1s8.186-7.217,10.5-7.851c0,0-4.714.349-7.747,2.9S7.18,140.2,5.6,140.485s-1.827-2.93,2.5-6.376a17.485,17.485,0,0,1,9.5-4.183,29.234,29.234,0,0,0-5.738-.34c-3.591.083-6.862,3.305-8.814,2.407-2-.917,1.934-4.464,4.976-5.45s5.173-1.961,9.25-1.648a51.566,51.566,0,0,1,10.359,1.524c2.4.774,11.277,2.4,13.372,5.367a4.481,4.481,0,0,1,.614,2.887" transform="translate(0.734 36.647)" fill="#777"/>
            <path id="Trazado_131174" data-name="Trazado 131174" d="M30.016,129.016s-6.089-4.694-8.663-5.037-6.272-2.23-6.648-.524,4.238,3.9,4.238,3.9Z" transform="translate(4.31 36.035)" fill="#777"/>
          </g>
        </g>
      </g>
    </g>
  </g>
</svg>
