<svg xmlns="http://www.w3.org/2000/svg" width="188.52" height="385.251" viewBox="0 0 188.52 385.251">
  <g id="Grupo_80882" data-name="Grupo 80882" transform="translate(-31.362 -25)">
    <g id="Grupo_157493" data-name="Grupo 157493" transform="translate(31.362 25)">
      <path id="Trazado_114544" data-name="Trazado 114544" d="M140.568,396.807c-24.918-11.3-50.76-26.557-60.8-52.065-11.138-28.309.52-60.013.24-90.444C79.791,230.191,72,206.91,65.87,183.6s-10.632-48.079-4.307-71.338C65.8,96.691,74.789,82.6,86.4,71.424c20.445-19.685,49.9-30.337,77.889-25.835S217.7,70.6,225.884,97.816c11.592,38.552-11.052,79.706-6.239,119.681,1.883,15.642,7.91,30.434,12,45.648a187.479,187.479,0,0,1,6.4,49.665c-.153,25.661-6.639,53.039-25.732,70.127C193.055,400.174,164.4,407.616,140.568,396.807Z" transform="translate(-53.79 -44.565)" fill="#e1e8ff"/>
      <g id="Grupo_157492" data-name="Grupo 157492" transform="translate(0 12.256)">
        <g id="Grupo_83725" data-name="Grupo 83725" transform="translate(138.467 165.611)">
          <path id="Trazado_117626" data-name="Trazado 117626" d="M385.773,246.6s47.543,7.822,49.48-32.388c1.859-38.583-16.269-51-16.269-51l-33.65,52.007Z" transform="translate(-385.334 -163.213)" fill="#46467f"/>
        </g>
        <g id="Grupo_83727" data-name="Grupo 83727" transform="translate(144.378 96.863)">
          <path id="Trazado_117628" data-name="Trazado 117628" d="M388.352,244.258s31.738,5.261,41.993-31.85-40.434-84.3-40.434-84.3Z" transform="translate(-388.352 -128.111)" fill="#ffbf69"/>
        </g>
        <g id="Grupo_83728" data-name="Grupo 83728" transform="translate(26.856 208.538)">
          <path id="Trazado_117629" data-name="Trazado 117629" d="M446.864,199.006s6.614,41.227,6.614,71.966,3.265,64.474,0,67.475-35.665,13.065-74.836,10.816-50.922-12.339-50.27-15.915,5.223-6.592,5.223-6.592-2.613-88.862,7.834-112.647S396.4,185.131,396.4,185.131h47.89Z" transform="translate(-328.347 -185.131)" fill="#7772d3"/>
        </g>
        <g id="Grupo_83729" data-name="Grupo 83729" transform="translate(109.315 271.514)">
          <path id="Trazado_117630" data-name="Trazado 117630" d="M371.183,260.538a.742.742,0,0,1-.733-.774l2.339-41.781a.728.728,0,0,1,.774-.693.736.736,0,0,1,.693.774l-2.341,41.781A.733.733,0,0,1,371.183,260.538Z" transform="translate(-370.449 -217.286)" fill="#fff"/>
        </g>
        <g id="Grupo_83730" data-name="Grupo 83730" transform="translate(72.239 81.659)">
          <path id="Trazado_117631" data-name="Trazado 117631" d="M357.449,256.235s37.279,8.312,55.95-.783,8.147-61.378,8.147-61.378-10.141-71.61-24.691-73.138a121.482,121.482,0,0,0-27.39.4l-17.946,60.854Z" transform="translate(-351.519 -120.348)" fill="#f7734f"/>
        </g>
        <g id="Grupo_83731" data-name="Grupo 83731" transform="translate(44.59 80.291)">
          <path id="Trazado_117632" data-name="Trazado 117632" d="M404.328,119.651s2.439.711,6.06,1.953l-25.03,1.565s-3.369,35.011-4.591,75.163c-.856,28.452.012,54.118.619,66.645l-35.328-.858s-16.851-115.367-3.529-127.737,46.349-16.512,46.349-16.512Z" transform="translate(-337.401 -119.651)" fill="#ffbf69"/>
        </g>
        <g id="Grupo_83732" data-name="Grupo 83732" transform="translate(117.615 82.266)">
          <path id="Trazado_117633" data-name="Trazado 117633" d="M406.974,265.505l-19.848-.486c1.118-15.255,3.059-51.6-.425-87.844-4.444-46.1-11.573-55.936-12.014-56.517,9.546,3.255,27.253,10.216,30.51,17.731C409.692,148.786,406.974,265.505,406.974,265.505Z" transform="translate(-374.687 -120.658)" fill="#ffbf69"/>
        </g>
        <g id="Grupo_83733" data-name="Grupo 83733" transform="translate(84.755 193.821)">
          <path id="Trazado_117634" data-name="Trazado 117634" d="M409.873,177.617l33.182,34.488L399.56,270.136l-41.651-31.169Z" transform="translate(-357.909 -177.617)" fill="#a8a4ff"/>
        </g>
        <g id="Grupo_83734" data-name="Grupo 83734" transform="translate(90.238 199.623)">
          <path id="Trazado_117635" data-name="Trazado 117635" d="M412.672,180.58l33.182,34.488L402.359,273.1l-41.651-31.169Z" transform="translate(-360.709 -180.58)" fill="#fff"/>
        </g>
        <g id="Grupo_83735" data-name="Grupo 83735" transform="translate(58.332)">
          <path id="Trazado_117636" data-name="Trazado 117636" d="M387.929,101.719s-17.709-36.3-38-17.823c-16.975,15.457,9.293,39.216,24.507,32.414S387.929,101.719,387.929,101.719Z" transform="translate(-344.418 -78.655)"/>
        </g>
        <g id="Grupo_83739" data-name="Grupo 83739" transform="translate(73.661 208.656)">
          <g id="Grupo_83738" data-name="Grupo 83738">
            <path id="Trazado_117638" data-name="Trazado 117638" d="M364.063,185.191s35.277,5.832,42.246,12.253-9.936,31.047-14.282,35.04-35.3-16.275-35.3-16.275l-4.477-17.7Z" transform="translate(-352.245 -185.191)" fill="#fca397"/>
          </g>
        </g>
        <g id="Grupo_83741" data-name="Grupo 83741" transform="translate(119.834 220.908)">
          <g id="Grupo_83740" data-name="Grupo 83740">
            <path id="Trazado_117639" data-name="Trazado 117639" d="M383.711,191.447s14.742,21.072,12.307,29.768-20.2-18.187-20.2-18.187Z" transform="translate(-375.82 -191.447)" fill="#fca397"/>
          </g>
        </g>
        <g id="Grupo_83743" data-name="Grupo 83743" transform="translate(86.622 242.28)">
          <g id="Grupo_83742" data-name="Grupo 83742">
            <path id="Trazado_117640" data-name="Trazado 117640" d="M374,210.181s-18.265-2.577-14.662,4.042,23.122,5.47,26.35,1.8-6.961-13.669-6.961-13.669Z" transform="translate(-358.863 -202.359)" fill="#fca397"/>
          </g>
        </g>
        <g id="Grupo_83744" data-name="Grupo 83744" transform="translate(93.409 245.539)">
          <path id="Trazado_117641" data-name="Trazado 117641" d="M368.311,210.583a.777.777,0,0,1-.263-.047l-5.249-2a.736.736,0,0,1-.174-1.277l4.183-3.1a.743.743,0,0,1,1.028.155.733.733,0,0,1-.157,1.026l-3.1,2.3,4,1.518a.735.735,0,0,1-.262,1.422Z" transform="translate(-362.328 -204.024)"/>
        </g>
        <g id="Grupo_83745" data-name="Grupo 83745" transform="translate(119.953 228.033)">
          <path id="Trazado_117642" data-name="Trazado 117642" d="M381.534,206.316a.735.735,0,0,1-.685-.468c-1.216-3.147-3.568-8.5-4.708-9.468a.735.735,0,1,1,.952-1.12c1.8,1.53,4.791,9.189,5.126,10.057a.733.733,0,0,1-.421.95A.692.692,0,0,1,381.534,206.316Z" transform="translate(-375.881 -195.086)"/>
        </g>
        <g id="Grupo_83746" data-name="Grupo 83746" transform="translate(112.952 234.182)">
          <path id="Trazado_117643" data-name="Trazado 117643" d="M379.38,212.211a.733.733,0,0,1-.656-.4l-6.338-12.517a.735.735,0,0,1,1.312-.664l6.338,12.519a.734.734,0,0,1-.656,1.065Z" transform="translate(-372.307 -198.225)"/>
        </g>
        <g id="Grupo_83747" data-name="Grupo 83747" transform="translate(78.534 13.089)">
          <path id="Trazado_117644" data-name="Trazado 117644" d="M402.83,124.952a24.008,24.008,0,0,0,4.571-19.217c-1.438-7.873-4.985-10.378-4.985-10.378s5.2-10.844-10.715-9.969-25.171,8.823-25.171,8.823-7.327-3.472-10.472,5.059.294,21.005.294,21.005Z" transform="translate(-354.733 -85.337)"/>
        </g>
        <g id="Grupo_83751" data-name="Grupo 83751" transform="translate(91.862 66.311)">
          <g id="Grupo_83750" data-name="Grupo 83750">
            <g id="Grupo_83749" data-name="Grupo 83749">
              <g id="Grupo_83748" data-name="Grupo 83748">
                <path id="Trazado_117645" data-name="Trazado 117645" d="M361.538,112.512l.76,19.429s3.721,5.449,15.124,5.928c8.494.356,11.005-4.1,11.005-4.1l-2.715-16.922-20.7-3.711Z" transform="translate(-361.538 -112.512)" fill="#fca397"/>
              </g>
            </g>
          </g>
        </g>
        <g id="Grupo_83755" data-name="Grupo 83755" transform="translate(91.846 65.123)">
          <g id="Grupo_83754" data-name="Grupo 83754">
            <g id="Grupo_83753" data-name="Grupo 83753">
              <g id="Grupo_83752" data-name="Grupo 83752">
                <path id="Trazado_117646" data-name="Trazado 117646" d="M361.53,111.906a6.377,6.377,0,0,0,.638,1.853c4.726,9.536,20.183,12.977,25.091,13.224l-1.539-9.552Z" transform="translate(-361.53 -111.906)"/>
              </g>
            </g>
          </g>
        </g>
        <g id="Grupo_83759" data-name="Grupo 83759" transform="translate(77.642 19.418)">
          <g id="Grupo_83758" data-name="Grupo 83758">
            <g id="Grupo_83757" data-name="Grupo 83757">
              <g id="Grupo_83756" data-name="Grupo 83756">
                <path id="Trazado_117647" data-name="Trazado 117647" d="M395.272,95.345s11.15,23.963,7.658,37.653S387,144.841,379.522,142.387a24.557,24.557,0,0,1-11.027-6.921,10.458,10.458,0,0,1-11.655-3.819c-4.783-6.332-2.106-13.8,1.81-15.584s8.684.958,8.684.958l-3.852-6.949S378.147,73.948,395.272,95.345Z" transform="translate(-354.278 -88.57)" fill="#fca397"/>
              </g>
            </g>
          </g>
        </g>
        <g id="Grupo_83763" data-name="Grupo 83763" transform="translate(84.545 15.8)">
          <g id="Grupo_83762" data-name="Grupo 83762">
            <g id="Grupo_83761" data-name="Grupo 83761">
              <g id="Grupo_83760" data-name="Grupo 83760">
                <path id="Trazado_117648" data-name="Trazado 117648" d="M363.956,118.792s10.443,1.955,17.513-9.734,6.342-16.438,6.342-16.438l7.374,11.863s1.5-8.318-1.9-13.559-6.82-4.1-6.82-4.1l-22.88,6.058L357.8,111.371Z" transform="translate(-357.802 -86.721)"/>
              </g>
            </g>
          </g>
        </g>
        <g id="Grupo_83764" data-name="Grupo 83764" transform="translate(115.233 45.52)">
          <path id="Trazado_117649" data-name="Trazado 117649" d="M376.469,113.321a.7.7,0,0,1-.206-.029.731.731,0,0,1-.5-.909c1.307-4.487-2.119-9.272-2.152-9.321a.734.734,0,0,1,1.185-.866c.161.219,3.888,5.409,2.378,10.6A.734.734,0,0,1,376.469,113.321Z" transform="translate(-373.471 -101.897)"/>
        </g>
        <g id="Grupo_83765" data-name="Grupo 83765" transform="translate(82.42 50.877)">
          <path id="Trazado_117650" data-name="Trazado 117650" d="M364.146,112.96a.726.726,0,0,1-.527-.221l-6.694-6.859a.735.735,0,1,1,1.052-1.026l6.694,6.861a.734.734,0,0,1-.525,1.246Z" transform="translate(-356.717 -104.632)"/>
        </g>
        <g id="Grupo_83766" data-name="Grupo 83766" transform="translate(82.118 55.221)">
          <path id="Trazado_117651" data-name="Trazado 117651" d="M357.3,109.083a.734.734,0,0,1-.121-1.457l4.538-.766a.734.734,0,1,1,.245,1.447l-4.538.766A.671.671,0,0,1,357.3,109.083Z" transform="translate(-356.563 -106.849)"/>
        </g>
        <g id="Grupo_83767" data-name="Grupo 83767" transform="translate(117.572 34.894)">
          <path id="Trazado_117652" data-name="Trazado 117652" d="M379.71,98.627a.74.74,0,0,1-.113-.01l-4.313-.687a.734.734,0,0,1,.231-1.449l4.311.687a.734.734,0,0,1-.116,1.459Z" transform="translate(-374.665 -96.471)"/>
        </g>
        <g id="Grupo_83768" data-name="Grupo 83768" transform="translate(104.047 34.984)">
          <path id="Trazado_117653" data-name="Trazado 117653" d="M368.495,101.656a.734.734,0,0,1-.341-1.385l7-3.67a.735.735,0,0,1,.682,1.3l-7,3.668A.743.743,0,0,1,368.495,101.656Z" transform="translate(-367.76 -96.517)"/>
        </g>
        <g id="Grupo_83769" data-name="Grupo 83769" transform="translate(120.619 39.507)">
          <path id="Trazado_117654" data-name="Trazado 117654" d="M378.358,106.309a.733.733,0,0,1-.7-.509l-1.4-4.352a.734.734,0,0,1,.123-.684L377.7,99.1a.735.735,0,1,1,1.15.915l-1.073,1.353,1.281,3.978a.733.733,0,0,1-.472.924A.754.754,0,0,1,378.358,106.309Z" transform="translate(-376.221 -98.827)"/>
        </g>
        <g id="Grupo_83770" data-name="Grupo 83770" transform="translate(108.403 40.323)">
          <path id="Trazado_117655" data-name="Trazado 117655" d="M372.121,107.256a.731.731,0,0,1-.7-.509l-1.4-4.352a.733.733,0,0,1,.133-.7l1.823-2.19a.734.734,0,0,1,1.128.938l-1.565,1.88,1.281,3.968a.733.733,0,0,1-.474.924A.751.751,0,0,1,372.121,107.256Z" transform="translate(-369.984 -99.243)"/>
        </g>
        <g id="Grupo_83771" data-name="Grupo 83771" transform="translate(107.851 58.486)">
          <path id="Trazado_117656" data-name="Trazado 117656" d="M376.659,113.408c-2.987,0-6.3-3.2-6.741-3.637a.735.735,0,1,1,1.038-1.04c1.206,1.2,4.761,4.068,6.724,2.957a.734.734,0,1,1,.723,1.277A3.479,3.479,0,0,1,376.659,113.408Z" transform="translate(-369.702 -108.517)"/>
        </g>
        <g id="Grupo_83772" data-name="Grupo 83772" transform="translate(0 92.423)">
          <path id="Trazado_117657" data-name="Trazado 117657" d="M370.761,125.845s-56.572,35.927-56.124,91.34,75.437,71.994,75.437,71.994L413.136,232.1l-38.53-22.032Z" transform="translate(-314.635 -125.845)" fill="#ffbf69"/>
        </g>
        <g id="Grupo_83773" data-name="Grupo 83773" transform="translate(123.289 84.31)">
          <path id="Trazado_117658" data-name="Trazado 117658" d="M377.584,121.7A156.13,156.13,0,0,1,394.5,162.09c6.207,23.643,10.5,41.821,10.5,41.821s6.285-48.989-2.577-66.524C398.08,128.795,377.584,121.7,377.584,121.7Z" transform="translate(-377.584 -121.703)" fill="#46467f"/>
        </g>
        <g id="Grupo_83774" data-name="Grupo 83774" transform="translate(31.369 329.661)">
          <path id="Trazado_117659" data-name="Trazado 117659" d="M331.385,249.91a.735.735,0,0,1-.17-1.449L337.337,247a.723.723,0,0,1,.885.545.733.733,0,0,1-.544.883l-6.122,1.463A.634.634,0,0,1,331.385,249.91Z" transform="translate(-330.651 -246.975)" fill="#fff"/>
        </g>
        <g id="Grupo_83777" data-name="Grupo 83777" transform="translate(53.622 170.166)">
          <path id="Trazado_117662" data-name="Trazado 117662" d="M376.14,188.636a.73.73,0,0,1-.445-.151c-.239-.182-24.094-18.3-33.191-21.52a.734.734,0,1,1,.489-1.385c9.313,3.294,32.606,20.986,33.593,21.738a.734.734,0,0,1-.446,1.318Z" transform="translate(-342.013 -165.539)" fill="#7772d3"/>
        </g>
        <g id="Grupo_83778" data-name="Grupo 83778" transform="translate(57.505 159.786)">
          <path id="Trazado_117663" data-name="Trazado 117663" d="M352.735,178.179a.747.747,0,0,1-.527-.221c-.368-.38-9.054-9.346-8.146-14.481a3.748,3.748,0,0,1,2.229-2.82,3.252,3.252,0,0,1,3.337.076c4.036,2.6,3.874,15.29,3.841,16.728a.74.74,0,0,1-.464.668A.728.728,0,0,1,352.735,178.179Zm-4.759-16.473a2.442,2.442,0,0,0-1.05.274,2.33,2.33,0,0,0-1.416,1.753c-.552,3.112,3.741,8.737,6.49,11.837-.08-4.428-.724-12.027-3.169-13.6A1.524,1.524,0,0,0,347.976,161.706Z" transform="translate(-343.996 -160.24)" fill="#7772d3"/>
        </g>
        <g id="Grupo_83779" data-name="Grupo 83779" transform="translate(137.146 109.959)">
          <path id="Trazado_117664" data-name="Trazado 117664" d="M397.969,136.341s-13.894,18.081-13.291,25.255,5.8,3.549,5.8,3.549-3.132,8.036.137,9.72,5.711-3.574,5.711-3.574-.026,6.935,3.893,7.082,19.877-18.606,20.179-24.147-6.645-4.1-6.645-4.1,1.706-8.649-1.451-10.478-7.8,2.722-7.8,2.722S404.978,130.693,397.969,136.341Z" transform="translate(-384.659 -134.798)" fill="#fca397"/>
        </g>
        <g id="Grupo_83780" data-name="Grupo 83780" transform="translate(152.278 132.303)">
          <path id="Trazado_117665" data-name="Trazado 117665" d="M392.905,161.873s-3.373,18.516,7.062,18.422c21.84-.2,12.8-34.088,12.8-34.088Z" transform="translate(-392.386 -146.207)" fill="#fca397"/>
        </g>
        <g id="Grupo_83781" data-name="Grupo 83781" transform="translate(149.921 165.786)">
          <path id="Trazado_117666" data-name="Trazado 117666" d="M397.265,201.52a.729.729,0,0,1-.566-.266c-6.269-7.607-5.506-36.031-5.47-37.238a.735.735,0,0,1,1.469.043c-.01.29-.785,29.078,5.133,36.26a.734.734,0,0,1-.1,1.034A.72.72,0,0,1,397.265,201.52Z" transform="translate(-391.182 -163.303)" fill="#7772d3"/>
        </g>
        <g id="Grupo_83782" data-name="Grupo 83782" transform="translate(142.225 118.743)">
          <path id="Trazado_117667" data-name="Trazado 117667" d="M387.988,161.581a.72.72,0,0,1-.364-.1.734.734,0,0,1-.274-1l11.873-20.829a.735.735,0,0,1,1.279.727L388.626,161.21A.731.731,0,0,1,387.988,161.581Z" transform="translate(-387.253 -139.283)"/>
        </g>
        <g id="Grupo_83783" data-name="Grupo 83783" transform="translate(150.054 126.929)">
          <path id="Trazado_117668" data-name="Trazado 117668" d="M391.984,163.737a.714.714,0,0,1-.382-.11.734.734,0,0,1-.245-1.009l11.5-18.8a.734.734,0,0,1,1.254.766l-11.5,18.8A.739.739,0,0,1,391.984,163.737Z" transform="translate(-391.25 -143.462)"/>
        </g>
        <g id="Grupo_83784" data-name="Grupo 83784" transform="translate(91.886 85.007)">
          <path id="Trazado_117669" data-name="Trazado 117669" d="M379.129,129.535c-.568,0-1.159-.027-1.786-.084-7.6-.7-15.155-5.836-15.473-6.054a.734.734,0,1,1,.83-1.21c.074.051,7.566,5.137,14.777,5.8,7.582.7,10.194-3.553,10.3-3.733a.735.735,0,0,1,1.273.734C388.938,125.189,386.355,129.535,379.129,129.535Z" transform="translate(-361.551 -122.057)" fill="#7772d3"/>
        </g>
      </g>
    </g>
  </g>
</svg>
