<svg xmlns="http://www.w3.org/2000/svg" xmlns:xlink="http://www.w3.org/1999/xlink" width="260" height="234" viewBox="0 0 260 234">
  <defs>
    <clipPath id="clip-path">
      <rect id="Rectángulo_37548" data-name="Rectángulo 37548" width="260" height="234" transform="translate(198 7406)" fill="#fff" stroke="#707070" stroke-width="1"/>
    </clipPath>
    <clipPath id="clip-path-2">
      <rect id="Rectángulo_37531" data-name="Rectángulo 37531" width="218.876" height="233.586" fill="none"/>
    </clipPath>
    <clipPath id="clip-path-4">
      <rect id="Rectángulo_37525" data-name="Rectángulo 37525" width="2.374" height="1.799" transform="translate(144.55 80.813)" fill="none"/>
    </clipPath>
    <clipPath id="clip-path-5">
      <rect id="Rectángulo_37526" data-name="Rectángulo 37526" width="5.793" height="1.914" transform="translate(154.025 81.357)" fill="none"/>
    </clipPath>
    <clipPath id="clip-path-6">
      <rect id="Rectángulo_37527" data-name="Rectángulo 37527" width="75.667" height="88.16" transform="translate(25.37 145.426)" fill="none"/>
    </clipPath>
    <clipPath id="clip-path-7">
      <rect id="Rectángulo_37528" data-name="Rectángulo 37528" width="2.808" height="2.265" transform="translate(71.07 33.643)" fill="none"/>
    </clipPath>
    <clipPath id="clip-path-8">
      <rect id="Rectángulo_37529" data-name="Rectángulo 37529" width="7.152" height="2.356" transform="translate(55.161 32.736)" fill="none"/>
    </clipPath>
  </defs>
  <g id="Enmascarar_grupo_179" data-name="Enmascarar grupo 179" transform="translate(-198 -7406)" clip-path="url(#clip-path)">
    <g id="Grupo_157967" data-name="Grupo 157967" transform="translate(219 7406)">
      <g id="Grupo_157966" data-name="Grupo 157966" clip-path="url(#clip-path-2)">
        <g id="Grupo_157965" data-name="Grupo 157965">
          <g id="Grupo_157964" data-name="Grupo 157964" clip-path="url(#clip-path-2)">
            <path id="Trazado_130811" data-name="Trazado 130811" d="M109.694,152.773a11.617,11.617,0,0,0,4.832-1.019c2.917-1.318,7.553-4.454,19.82-17.718,6.421-6.943,11.892-13.39,12.122-13.661a8.6,8.6,0,0,0-13.126-11.125c-.067.079-5.288,6.23-11.3,12.748-7.3,7.916-11.213,11.452-13.128,12.995-1.8-.993-5.479-3.465-11.9-9.492-5.429-5.094-9.9-10.014-9.945-10.063a8.6,8.6,0,0,0-12.748,11.556c.25.276,6.216,6.844,13.165,13.123a85,85,0,0,0,11.289,8.856c1.712,1.073,6.065,3.8,10.921,3.8" fill="#666"/>
            <path id="Trazado_130812" data-name="Trazado 130812" d="M116.761,150.3a10.2,10.2,0,0,1-6.462,2.393,21.631,21.631,0,0,1-6.47-1.2s7.121-4.9,12.932-1.2" fill="#414141"/>
            <path id="Trazado_130813" data-name="Trazado 130813" d="M111.864,141.443a.522.522,0,0,0,.519-.577c-.283-2.649-2.632-5.13-2.732-5.234a.521.521,0,1,0-.753.721c.025.027,2.2,2.334,2.448,4.624a.522.522,0,0,0,.518.466" fill="#414141"/>
            <path id="Trazado_130814" data-name="Trazado 130814" d="M146.118,233.586c2.181-16.156,4.143-33.237,4.143-33.237s-24.774-6.229-27.482,4.453c-1.52,6-3.024,17.037-4.308,28.784Z" fill="#0f0f0f"/>
            <path id="Trazado_130815" data-name="Trazado 130815" d="M143.751,233.586c1.75-10.156,3.077-18.236,3.108-18.428A.488.488,0,0,0,145.9,215c-.031.193-1.372,8.358-3.135,18.586Z" fill="#555"/>
            <path id="Trazado_130816" data-name="Trazado 130816" d="M145.664,229.732q1.065.269,2.141.514c9.163,2.1,18.782,2.945,25.513,1.335,3.323-.794,5.447-4.867,6.8-9.417a17.7,17.7,0,0,0,.943-3.778c.824-12.643-2.286-18.007-2.286-18.007l-49.552-5.536s-1.647,3.038-3.475,7a82.808,82.808,0,0,0-3.7,9.248l0,.008a24.127,24.127,0,0,0-1.1,4.919c-.393,4.506,11.388,10.357,24.723,13.715" fill="#0f0f0f"/>
            <path id="Trazado_130817" data-name="Trazado 130817" d="M151.61,233.586h30.381c-.247-8.757-.456-16.84-.587-21.361-.07-2.29-.11-3.632-.11-3.632s-24.42-2.809-29.129,5.51a5.942,5.942,0,0,0-.717,2.147,62.869,62.869,0,0,0-.25,8.862c.057,2.536.2,5.4.412,8.474" fill="#0f0f0f"/>
            <path id="Trazado_130818" data-name="Trazado 130818" d="M176.009,230.052a.478.478,0,0,0,.107-.943,15.232,15.232,0,0,1-5.529-2.946c-3.717-3.055-5.776-7.425-6.118-12.987a.477.477,0,0,0-.953.058c.449,7.3,3.783,11.475,6.5,13.7a15.907,15.907,0,0,0,5.884,3.109.5.5,0,0,0,.108.012" fill="#555"/>
            <path id="Trazado_130819" data-name="Trazado 130819" d="M178.624,233.586c-.763-12.1-1.343-21.437-1.358-21.652a.487.487,0,0,0-.972.06c.015.215.591,9.523,1.352,21.592Z" fill="#555"/>
            <path id="Trazado_130820" data-name="Trazado 130820" d="M146.913,230.031a.488.488,0,0,0,.227-.92,13.274,13.274,0,0,1-6.266-8.92.488.488,0,0,0-.962.163,14.02,14.02,0,0,0,6.775,9.621.482.482,0,0,0,.226.056" fill="#555"/>
            <path id="Trazado_130821" data-name="Trazado 130821" d="M178.311,155.786c-1.543,10.306-1.084,9.047,3.488,29.494,0,0,.9,6.317,1.9,14.406,1.1,8.958,4.547,20.577-2.259,22.288-4.738,1.19-12.517,1.961-21.267,1.771l-.887-11.508-27.525-4.6a104.743,104.743,0,0,0-1.075,11.233c-.036-.014-.071-.025-.108-.038-6.01-2.151-10.258-4.785-10.839-7.338-1.07-4.7.994-16.1,4.1-29.337.057-.132.493-1.824.626-2.192.085-.23.183-.5.291-.816.625-1.809,1.636-4.956,2.7-8.765.223-.805.452-1.639.676-2.5.591-2.244,1.175-4.649,1.7-7.1q.3-1.385.563-2.778.252-1.326.467-2.647c.155-.927.274-1.745.358-2.433.007-.056.013-.111.02-.164.013-.12.028-.238.038-.351a.368.368,0,0,0,.007-.064s-.149-.149-.407-.423c-.035-.038-.074-.079-.111-.122-1.2-1.3-4.134-4.772-5.2-8.6s2.1-10.35,4.413-17.829c.093-.3.184-.6.274-.9a54.922,54.922,0,0,0,1.323-5.347c1.888-9.994,1.416-13.942,17.11-16.747l.679-.062,17.214-1.545s.951.333,2.449.852c3.1,1.075,8.543,2.953,12.7,4.34,9.445,3.149,8.811,13.46,4.886,22.608-.9,2.1-1.762,4.271-2.563,6.456-.109.293-.218.586-.321.881a114.852,114.852,0,0,0-5.423,19.874" fill="#666"/>
            <path id="Trazado_130822" data-name="Trazado 130822" d="M144.661,103.341c-2.8,2.545-5.743,4.924-8.518,7.5a.274.274,0,0,0,.055.427q3.606,2.005,7.041,4.3c-.018-.142-.037-.284-.055-.427L134.049,125a.273.273,0,0,0,0,.384c1.875,1.6,3.842,3.084,5.634,4.776.254.24.639-.144.384-.384-1.792-1.692-3.758-3.181-5.634-4.776v.384l9.135-9.867a.276.276,0,0,0-.055-.427q-3.431-2.291-7.04-4.3c.018.142.036.284.055.427,2.774-2.575,5.717-4.954,8.517-7.5.26-.235-.126-.619-.384-.384" fill="#919191"/>
            <path id="Trazado_130823" data-name="Trazado 130823" d="M128.425,216.658h-.031a.362.362,0,0,1-.33-.391c2.324-27.705,11.362-85.765,11.452-86.349a.362.362,0,1,1,.716.112c-.091.583-9.124,58.618-11.446,86.3a.363.363,0,0,1-.361.332" fill="#919191"/>
            <path id="Trazado_130824" data-name="Trazado 130824" d="M161.481,132.559a.363.363,0,0,1-.1-.71l8.686-2.591-4.407-10.8a.364.364,0,0,1,.143-.444l8.513-5.351-6.429-8a.362.362,0,1,1,.564-.454l6.685,8.313a.363.363,0,0,1-.089.534l-8.6,5.406,4.443,10.893a.367.367,0,0,1-.009.294.36.36,0,0,1-.223.19l-9.069,2.706a.379.379,0,0,1-.1.015" fill="#919191"/>
            <path id="Trazado_130825" data-name="Trazado 130825" d="M162.542,220.428a.4.4,0,0,1-.163-.036c-.308-.14-.628-.285-1.1-13.23-.274-7.578-.521-17.948-.678-28.453-.285-19.046-.319-42.676.521-46.588a.363.363,0,1,1,.709.152c-.816,3.795-.789,26.948-.518,45.621.318,21.884.951,39.962,1.457,41.846l.017.012a.363.363,0,0,1,.074.507.4.4,0,0,1-.324.169" fill="#919191"/>
            <path id="Trazado_130826" data-name="Trazado 130826" d="M130.279,217.329l-.049,0c-5.238-.705-10.192-7.17-10.4-7.445a.362.362,0,1,1,.577-.437c.049.065,4.982,6.5,9.92,7.164a.362.362,0,0,1-.048.721" fill="#919191"/>
            <path id="Trazado_130827" data-name="Trazado 130827" d="M168.559,220.754a46.379,46.379,0,0,1-7.778-.613.362.362,0,1,1,.136-.712c.133.026,13.471,2.506,23.631-2.783a.362.362,0,0,1,.334.642c-5.351,2.787-11.553,3.466-16.323,3.466" fill="#919191"/>
            <path id="Trazado_130828" data-name="Trazado 130828" d="M169.03,101.626c-1.214,1.449-3.068,5.041-5.062,11.27-.075.226-.147.458-.22.692-.811,2.6-1.642,5.634-2.461,9.139q-.077.324-.15.652-.642,2.793-1.265,5.977c-.107.551-.208,1.174-.3,1.86q-.039.274-.074.566c-.417,3.3-.7,7.929-.879,13.388-.005.18-.011.361-.016.542-.073,2.3-.129,4.745-.167,7.294,0,.21-.005.422-.009.634-.08,5.662-.083,11.82-.036,18.08,0,.2,0,.4,0,.6.02,2.42.047,4.852.082,7.276,0,.165,0,.33.007.493.033,2.34.073,4.667.118,6.966,0,.188.007.375.011.563q.044,2.293.094,4.535c.005.2.009.4.014.6.1,4.3.21,8.426.326,12.226.008.193.013.387.019.579.074,2.369.15,4.606.224,6.676a95.507,95.507,0,0,1-19.8-2.479q-3.9-.9-7.726-2.118c.169-1.57.348-3.243.54-5h0c.027-.259.056-.518.084-.781.418-3.838.882-8.053,1.378-12.46.027-.244.056-.489.083-.735.444-3.945.913-8.035,1.4-12.141v0c.041-.358.083-.719.127-1.077v0c.458-3.892.929-7.788,1.4-11.583.021-.179.045-.359.067-.538.476-3.827.954-7.542,1.425-11.032.029-.221.058-.44.089-.66.607-4.482,1.2-8.576,1.751-12.035q.057-.354.113-.7c.025-.146.049-.291.072-.434.629-3.815,1.27-7.3,1.907-10.469.037-.174.071-.348.107-.52,1.114-5.474,2.221-10.009,3.255-13.733.045-.165.091-.33.138-.491a97.923,97.923,0,0,1,3.671-10.925l17.212-1.545,2.451.851" fill="#fff"/>
            <path id="Trazado_130829" data-name="Trazado 130829" d="M163.967,112.9c-.074.226-.147.458-.219.692a24.711,24.711,0,0,1-12.567,1.951,15.455,15.455,0,0,1-5.624-1.8c.046-.164.091-.329.138-.49,4.584,2.639,10.545,2.26,15.432.728a26.326,26.326,0,0,0,2.84-1.078" fill="#d3d3d3"/>
            <path id="Trazado_130830" data-name="Trazado 130830" d="M161.287,122.727c-.051.215-.1.433-.15.652a62.738,62.738,0,0,1-16.9,4.494c-.663.069-1.346.11-2.038.116.037-.174.071-.348.107-.52a32.856,32.856,0,0,0,4.854-.578,70.485,70.485,0,0,0,8.993-2.279q2.605-.841,5.137-1.885" fill="#d3d3d3"/>
            <path id="Trazado_130831" data-name="Trazado 130831" d="M159.57,131.217c-.026.183-.052.371-.075.565a71.273,71.273,0,0,0-19.391,7.81c.039-.235.076-.469.112-.7a72.037,72.037,0,0,1,19.354-7.676" fill="#d3d3d3"/>
            <path id="Trazado_130832" data-name="Trazado 130832" d="M158.617,145.171c-.005.179-.011.36-.016.542a71.338,71.338,0,0,0-20.337,6.574c.029-.221.058-.44.089-.659a72.094,72.094,0,0,1,20.264-6.457" fill="#d3d3d3"/>
            <path id="Trazado_130833" data-name="Trazado 130833" d="M147.255,165.408c-.8,1.541-1.994,3.632-1.563,5.426.489,2.047,2.885,2.388,4.648,2.471a17.257,17.257,0,0,0,8.049-1.585c0,.2,0,.4,0,.6a16.805,16.805,0,0,1-9.79,1.346c-8.507-1.567.928-13.279,3.913-16.168a31.209,31.209,0,0,1,5.917-4.492c0,.21-.005.422-.009.634a30.106,30.106,0,0,0-11.17,11.768" fill="#d3d3d3"/>
            <path id="Trazado_130834" data-name="Trazado 130834" d="M139.914,169.519a43.948,43.948,0,0,1-3.525,5.378q-.567.814-1.144,1.622c.041-.358.083-.719.126-1.077v0q1.63-2.314,3.179-4.68c1.014-1.547,2.277-3.766.989-5.528a3.788,3.788,0,0,0-2.768-1.375c.022-.179.046-.359.068-.538.112.013.226.027.34.045a4.128,4.128,0,0,1,2.943,1.765,4.5,4.5,0,0,1-.208,4.39" fill="#d3d3d3"/>
            <path id="Trazado_130835" data-name="Trazado 130835" d="M158.483,180.088a56.912,56.912,0,0,0-21.309,7.075q-1.753,1.04-3.409,2.235c.027-.245.056-.489.083-.736,7.271-5.114,15.8-7.833,24.628-9.067,0,.165,0,.33.007.493" fill="#d3d3d3"/>
            <path id="Trazado_130836" data-name="Trazado 130836" d="M158.611,187.617q-.546.195-1.09.4A88.709,88.709,0,0,0,132.3,202.638c.027-.259.056-.518.083-.781a89.439,89.439,0,0,1,26.214-14.8c0,.188.007.375.011.563" fill="#d3d3d3"/>
            <path id="Trazado_130837" data-name="Trazado 130837" d="M159.064,205.559a43.5,43.5,0,0,1-5.218,1.695,18.46,18.46,0,0,1-4.827.821,3.717,3.717,0,0,1-3.119-1.3c-.9-1.326-.2-2.9.6-4.086a32.534,32.534,0,0,1,12.2-10.535c.006.2.009.4.015.6a33.377,33.377,0,0,0-4.749,3,32.427,32.427,0,0,0-6.825,6.964c-1.02,1.433-1.891,3.724.284,4.556a7.593,7.593,0,0,0,4.155-.055,43.328,43.328,0,0,0,7.461-2.237c.007.194.013.388.018.58" fill="#d3d3d3"/>
            <path id="Trazado_130838" data-name="Trazado 130838" d="M125.471,143.323a.547.547,0,0,0,.154-.023.523.523,0,0,0,.345-.652c-.7-2.274-.6-3.362,2.049-9.727a66.077,66.077,0,0,0,4.262-14.746.521.521,0,1,0-1.033-.139,65.017,65.017,0,0,1-4.192,14.484c-2.617,6.288-2.909,7.751-2.083,10.435a.521.521,0,0,0,.5.368" fill="#414141"/>
            <path id="Trazado_130839" data-name="Trazado 130839" d="M159.354,57.224s12.244-2.76,17,5.053-.784,20.037-.784,20.037.442,3.18,6.833,5.763,3.419,12.828-3.174,11.389c0,0-2.345,9.4-9.416,4.1s-17.766-3.807-17.766-3.807-3.989,3.4-8.612,1.088S142.078,95,142.078,95s-4.792,2.157-7.619-2.442c-3-4.88,5.019-8.528,5.716-11.019,2.529-9.043-1.009-7.123-4.505-12.117-4.269-6.1,3.848-11.153,7.4-6.622,0,0-5.33-5.335.8-9.148,5.6-3.485,15.48,3.572,15.48,3.572" fill="#757575"/>
            <path id="Trazado_130840" data-name="Trazado 130840" d="M145.169,76.139a2.49,2.49,0,0,0-2.287,2.128c-.556,2.154.169,5.921,2.431,5.7s-.144-7.829-.144-7.829" fill="#8b8b8b"/>
            <path id="Trazado_130841" data-name="Trazado 130841" d="M145.1,91.842a4.812,4.812,0,1,1,4.812-4.811,4.817,4.817,0,0,1-4.812,4.811m0-8.753a3.941,3.941,0,1,0,3.941,3.942,3.946,3.946,0,0,0-3.941-3.942" fill="#fff"/>
            <line id="Línea_223" data-name="Línea 223" y2="0.002" transform="translate(149.477 93.76)" fill="#c4c4c4"/>
            <path id="Trazado_130842" data-name="Trazado 130842" d="M166.993,101.691s-3.569,5.332-10.072,5.6c-8.261.345-8.832-3.259-8.832-3.259a15.5,15.5,0,0,0,.991-3.307c.082-.441.15-.9.2-1.368a37.4,37.4,0,0,0,.2-4.351c0-.385,0-.786-.011-1.2v-.048c5.775-.762,10.644-2.794,14.224-6.632l.9-.419.6-.284.072.34-.214,1.037c-1.023,4.874-.328,9.068,1.932,13.886" fill="#c4c4c4"/>
            <path id="Trazado_130843" data-name="Trazado 130843" d="M159.354,91.067c-1.466,2.57-4.714,7.048-10.07,8.294a37.4,37.4,0,0,0,.2-4.351c0-.385,0-.786-.011-1.2.11.025.224.046.337.065,3.051.516,6.55-.729,9.54-2.809" fill="#8b8b8b"/>
            <path id="Trazado_130844" data-name="Trazado 130844" d="M172.886,79c-.118,3.075-2.866,6.742-6.893,6.7h-.108c-.072.174-.154.345-.239.519-.037.075-.075.152-.113.227a.12.12,0,0,1-.013.021c-2.706,5.128-10.268,7.916-14.3,7.871a9.164,9.164,0,0,1-2.7-.457c-4.233-1.091-4.81-6.888-3.972-11.27a17,17,0,0,1,.45-1.8l.036-.115s-1.193-6.22-1.425-8.923c-.446-5.238,2.748-10.42,14.221-11.023s13.942,6.6,14.6,10.394c.112.633-.158,4.365-.807,4.944A3.053,3.053,0,0,1,172.886,79" fill="#c4c4c4"/>
            <path id="Trazado_130845" data-name="Trazado 130845" d="M146.807,78.764c.08.8.48,1.407.894,1.365s.683-.72.6-1.516-.48-1.406-.893-1.365-.683.721-.6,1.516" fill="#0f0f0f"/>
            <path id="Trazado_130846" data-name="Trazado 130846" d="M148.827,77.993a.208.208,0,0,0,.1-.082.211.211,0,0,0-.06-.293,3.4,3.4,0,0,0-3.682-.08.212.212,0,1,0,.251.341c1.428-1.052,3.181.081,3.2.093a.214.214,0,0,0,.191.021" fill="#0f0f0f"/>
            <path id="Trazado_130847" data-name="Trazado 130847" d="M153.752,78.182c.08.795.48,1.407.894,1.365s.683-.721.6-1.516-.48-1.407-.893-1.365-.683.721-.6,1.516" fill="#0f0f0f"/>
            <path id="Trazado_130848" data-name="Trazado 130848" d="M156.117,77.672a.216.216,0,0,0,.112-.068.211.211,0,0,0-.023-.3,3.4,3.4,0,0,0-3.642-.546.212.212,0,0,0,.206.371c1.551-.864,3.145.482,3.16.5a.215.215,0,0,0,.187.045" fill="#0f0f0f"/>
            <path id="Trazado_130849" data-name="Trazado 130849" d="M165.993,85.7h-.108c-.071.174-.153.345-.239.519-.036.075-.075.152-.113.227a.113.113,0,0,1-.012.021,3.694,3.694,0,0,1-1.53-.675,2.939,2.939,0,0,1-.786-.92.416.416,0,0,1,.728-.4,2.247,2.247,0,0,0,.957.9,3,3,0,0,0,.716.254,3.555,3.555,0,0,0,.387.07" fill="#8b8b8b"/>
            <g id="Grupo_157951" data-name="Grupo 157951" opacity="0.5">
              <g id="Grupo_157950" data-name="Grupo 157950">
                <g id="Grupo_157949" data-name="Grupo 157949" clip-path="url(#clip-path-4)">
                  <path id="Trazado_130850" data-name="Trazado 130850" d="M146.923,81.819c-.026.457-1.044.781-2.373.793a16.686,16.686,0,0,1,.449-1.8c1.14.189,1.948.589,1.924,1" fill="#8b8b8b"/>
                </g>
              </g>
            </g>
            <path id="Trazado_130851" data-name="Trazado 130851" d="M170.352,84.069c-.261.182-.52.366-.786.54a3.938,3.938,0,1,1-2.215-.456.949.949,0,0,0,.576-.882c-.075,0-.15-.005-.226-.005a4.827,4.827,0,1,0,2.651.8" fill="#fff"/>
            <path id="Trazado_130852" data-name="Trazado 130852" d="M150.632,88.364a1.44,1.44,0,0,0,.873-.386.243.243,0,0,0-.006-.342.24.24,0,0,0-.339,0,.983.983,0,0,1-1.086.143.241.241,0,0,0-.192.443,1.576,1.576,0,0,0,.75.137" fill="#8b8b8b"/>
            <path id="Trazado_130853" data-name="Trazado 130853" d="M150.32,86.714l.041,0a3.055,3.055,0,0,0,2.461-1.535.374.374,0,0,0-.669-.334,2.309,2.309,0,0,1-1.855,1.124l-.034,0a2.272,2.272,0,0,1-1.919-.618.373.373,0,0,0-.582.468,3,3,0,0,0,2.557.895" fill="#8b8b8b"/>
            <path id="Trazado_130854" data-name="Trazado 130854" d="M149.557,83.367a.347.347,0,0,1-.187-.055l-1.532-.977a.348.348,0,0,1,.022-.6,5.023,5.023,0,0,0,2.482-3.441.349.349,0,0,1,.675.174,5.8,5.8,0,0,1-2.332,3.581l1.06.676a.348.348,0,0,1-.188.642" fill="#8b8b8b"/>
            <path id="Trazado_130855" data-name="Trazado 130855" d="M153.706,74.668a.847.847,0,0,1-1.262-1.082,2.454,2.454,0,0,1,1.359-1.06,6.145,6.145,0,0,1,5.415.746,15.718,15.718,0,0,0-4.713.884,4.749,4.749,0,0,0-.8.512" fill="#757575"/>
            <path id="Trazado_130856" data-name="Trazado 130856" d="M148.169,74.574a.846.846,0,0,0,1.086-1.258,2.447,2.447,0,0,0-1.5-.845c-3.137-.6-4.183,1.381-4.183,1.381a11.253,11.253,0,0,1,3.731.335,4.772,4.772,0,0,1,.867.387" fill="#757575"/>
            <g id="Grupo_157954" data-name="Grupo 157954" opacity="0.5">
              <g id="Grupo_157953" data-name="Grupo 157953">
                <g id="Grupo_157952" data-name="Grupo 157952" clip-path="url(#clip-path-5)">
                  <path id="Trazado_130857" data-name="Trazado 130857" d="M154.025,82.151c-.029.521,1.243,1.016,2.843,1.106s2.92-.259,2.949-.78-1.243-1.016-2.843-1.106-2.92.259-2.949.78" fill="#8b8b8b"/>
                </g>
              </g>
            </g>
            <path id="Trazado_130858" data-name="Trazado 130858" d="M165.705,83.287a.415.415,0,0,0,.353-.319c.665-2.872,4.165-3.992,4.2-4a.415.415,0,0,0-.246-.793c-.163.05-3.991,1.267-4.764,4.609a.414.414,0,0,0,.311.5.4.4,0,0,0,.145.008" fill="#8b8b8b"/>
            <path id="Trazado_130859" data-name="Trazado 130859" d="M169.376,81.81a.4.4,0,0,0,.151-.05.414.414,0,0,0,.16-.565,2.853,2.853,0,0,0-2.459-1.336.416.416,0,0,0,0,.831,2.021,2.021,0,0,1,1.732.911.415.415,0,0,0,.414.209" fill="#8b8b8b"/>
            <path id="Trazado_130860" data-name="Trazado 130860" d="M158.409,66.982a5.267,5.267,0,0,0,1.917,5.2,15.733,15.733,0,0,0,3.563,2.117s-4.105,8.772-.775,10.2,3.311-8.355,8.51-8.4c0,0,1.887-.316,1.829-3.594s-5.256-12.8-13.809-12.629-16.3,4.066-16.841,10.048.8,4.861.8,4.861-.464-3.514,3.763-5.964c3.507-2.033,11.048-1.83,11.048-1.83" fill="#757575"/>
            <path id="Trazado_130861" data-name="Trazado 130861" d="M173.217,166.41a243.946,243.946,0,0,1,7.575,44.078.521.521,0,0,0,.519.481.31.31,0,0,0,.043,0,.521.521,0,0,0,.478-.564,244.932,244.932,0,0,0-7.6-44.265,20.072,20.072,0,0,1-.28-6.291c.065-.875.16-1.8.282-2.756.1-.829.227-1.687.367-2.568.045-.285.091-.572.14-.863,2.4-14.3,8.787-33.745,8.874-34.012a.523.523,0,1,0-.993-.328c-.361,1.094-6.635,20.188-8.957,34.405-.05.291-.094.578-.139.863-.2,1.292-.362,2.538-.483,3.721-.125,1.227-.2,2.386-.228,3.458a17.039,17.039,0,0,0,.407,4.643" fill="#414141"/>
            <path id="Trazado_130862" data-name="Trazado 130862" d="M218.873,157.64a15,15,0,0,0-.115-1.561,13.915,13.915,0,0,0-.35-1.776q-.066-.238-.138-.475c-.05-.162-.107-.327-.163-.489s-.124-.333-.19-.5l-.153-.369-.219-.508-.205-.447-.2-.421-.2-.4c-.254-.51-.505-.995-.749-1.449-.49-.916-.969-1.766-1.45-2.6-.964-1.656-1.93-3.224-2.9-4.777s-1.96-3.065-2.947-4.571q-2.979-4.508-6.042-8.874c-1.018-1.462-2.053-2.908-3.091-4.35s-2.072-2.886-3.131-4.309-2.107-2.856-3.184-4.266c-.538-.706-1.071-1.415-1.615-2.117s-1.081-1.4-1.652-2.116l-.025-.032a10.322,10.322,0,0,0-8.318-3.894,96.227,96.227,0,0,0-7.508,17.23l1.185,1.515,1.617,2.047c1.074,1.369,2.169,2.723,3.25,4.086l6.513,8.147c2.165,2.711,4.33,5.414,6.448,8.116q1.6,2.019,3.141,4.036c1.029,1.337,2.039,2.676,2.978,3.974.471.646.925,1.284,1.332,1.88.207.3.39.578.56.838l.138.215a13.393,13.393,0,0,1-.335,1.542c-.173.627-.379,1.3-.621,1.989-.485,1.378-1.071,2.83-1.722,4.29-1.3,2.931-2.812,5.92-4.4,8.9-.8,1.49-1.6,2.991-2.439,4.475q-.617,1.122-1.248,2.233l-1.231,2.186-.1.175a5.827,5.827,0,0,0,9.277,6.9l.505-.525.477-.5c.316-.337.632-.67.94-1.01q.924-1.017,1.831-2.045c1.2-1.383,2.382-2.778,3.53-4.215a105.222,105.222,0,0,0,6.572-9.1c1.029-1.627,2.033-3.312,2.97-5.148.468-.919.929-1.872,1.357-2.9a31.24,31.24,0,0,0,1.195-3.341,20.1,20.1,0,0,0,.787-4.316c.029-.428.04-.893.031-1.374m-17.386.8c.008-.042.024-.068.035-.057a1.628,1.628,0,0,1,.013.735,2.662,2.662,0,0,1-.059-.428,1.017,1.017,0,0,1,.011-.25" fill="#666"/>
            <path id="Trazado_130863" data-name="Trazado 130863" d="M183.415,136.463a.515.515,0,0,0,.321-.111.521.521,0,0,0,.089-.732l-9.9-12.647a.521.521,0,0,0-.821.643l9.9,12.647a.522.522,0,0,0,.411.2" fill="#414141"/>
            <path id="Trazado_130864" data-name="Trazado 130864" d="M216.87,150.981s-5.213,7.862.94,12.562c0,0,1.575-4.215.833-7.691a15.528,15.528,0,0,0-1.773-4.871" fill="#414141"/>
            <path id="Trazado_130865" data-name="Trazado 130865" d="M201.873,159.535a.521.521,0,0,0,.307-.1c2.05-1.5,5.7-1.355,5.737-1.353a.522.522,0,0,0,.046-1.042c-.164-.007-4.055-.159-6.4,1.553a.521.521,0,0,0,.308.942" fill="#414141"/>
            <path id="Trazado_130866" data-name="Trazado 130866" d="M181.439,183.722h.1c4.237-.043,10.748.5,10.748.5s-7.15,1.922-10.059,2.564c-.3-1.013-.588-2.028-.791-3.065" fill="#c4c4c4"/>
            <path id="Trazado_130867" data-name="Trazado 130867" d="M197.134,186.579a5.913,5.913,0,0,1-3.209,7.539,14.525,14.525,0,0,0-4.158,2.638c-2.483,2.515-4.718,6.177-6.331,7.092-2.381,1.352-1.7-1.522-1.568-1.866a40.939,40.939,0,0,1,2.559-5.048s-4.252,4.241-5.134,6.437-2.918,2.822-3.266.3,3.364-8.167,4.816-9.453a12.6,12.6,0,0,0-4.59,4.873c-1.293,2.933-2.149,3.81-3.2,4.58s-2.373-1.475-.464-5.524a14.15,14.15,0,0,1,5.4-6.432,23.708,23.708,0,0,0-4.289,1.8c-2.579,1.344-3.8,4.854-5.541,4.9-1.778.048-.191-3.933,1.667-5.737s3.055-3.272,6.127-4.5a41.739,41.739,0,0,1,8.067-2.6c2.016-.3,9.048-2.287,11.628-.883a3.631,3.631,0,0,1,1.479,1.877" fill="#c4c4c4"/>
            <path id="Trazado_130868" data-name="Trazado 130868" d="M74.53,6.425c-12.935-9.8-31.5-8.818-38.337,5.9a19.774,19.774,0,0,0-1.238,3.443C32.1,26.939,40.478,27.689,30.983,34.278S16.829,43.342,15.824,49.463c-1.776,10.812,11.1,8.125-2.132,17.436S-2.2,85.251,1.664,92.844c6.807,13.363,15.9-1.311,20.441,15.464.028.1.055.2.083.3a10.692,10.692,0,0,0,19.528,2.525c3.844-6.58,7.741-12.818,15.331-8.49,14.025,8,18.024,22.474,28.218,11.76s1.332-17.829,9.1-24.138S95.92,71.3,87.719,66.448s-18.73-5.667-13.845-11.64,6.912-9.884,4.293-14.55.436-4.194,1.531-11.28c.638-4.128,2.713-16.584-5.168-22.553" fill="#161616"/>
            <path id="Trazado_130869" data-name="Trazado 130869" d="M77.456,141.56q2.871-3.2,5.56-6.527,3.2-3.962,6.121-8.1c1.943-2.758,3.792-5.568,5.514-8.416.862-1.424,1.69-2.86,2.475-4.293l.15-.274c-.2-.43-.425-.878-.661-1.333-.848-1.632-1.878-3.355-2.965-5.078-2.2-3.453-4.67-6.928-7.234-10.363s-5.249-6.846-7.987-10.219q-2.054-2.531-4.152-5.03l-2.1-2.488L71.116,78.2,70.08,77.012l-.073-.087A9.145,9.145,0,0,1,83.818,64.933l1.153,1.326,1.115,1.3,2.2,2.6q2.191,2.611,4.341,5.258c2.866,3.53,5.683,7.114,8.44,10.8s5.447,7.464,8.025,11.513c1.287,2.039,2.546,4.131,3.752,6.445.6,1.161,1.191,2.375,1.753,3.724a27.991,27.991,0,0,1,1.533,4.768,8.9,8.9,0,0,1-.918,6.29l-.037.064c-.072.123-.1.161-.146.235l-.12.179-.226.333-.437.628c-.29.41-.578.807-.868,1.2-.575.785-1.156,1.546-1.741,2.294-1.171,1.5-2.362,2.955-3.576,4.382q-3.639,4.273-7.526,8.227t-7.992,7.639q-4.1,3.671-8.4,7.062Z" fill="#7e7e7e"/>
            <path id="Trazado_130870" data-name="Trazado 130870" d="M104.071,111.276a10.558,10.558,0,0,0-6.554,2.872c-.324.3-.813-.183-.488-.489a11.325,11.325,0,0,1,7.042-3.074c.444-.031.442.66,0,.691" fill="#3b3b3b"/>
            <path id="Trazado_130871" data-name="Trazado 130871" d="M101.61,108.831l-2.471,3.675c-.246.367-.845.021-.6-.349l2.471-3.675c.246-.367.845-.021.6.349" fill="#3b3b3b"/>
            <path id="Trazado_130872" data-name="Trazado 130872" d="M96.944,168.793s-9.975.51-25.118-3.775q-.313-.087-.628-.18a123.468,123.468,0,0,1-17.075-6.359l-.579-.267a136,136,0,0,1-14.318-7.725,45.491,45.491,0,0,0,2.582-6.034c.079-.219.157-.444.234-.673a47.619,47.619,0,0,0,2.411-11.265c.017-.206.031-.413.044-.62a34.28,34.28,0,0,0-.056-5.336,25.331,25.331,0,0,0-.537-3.246c-.046-.2-.093-.407-.145-.614-.13-.541-.279-1.093-.442-1.657a91.989,91.989,0,0,0-5.362-13.4c-.093-.192-.186-.387-.279-.581-1.8-3.727-3.777-7.481-5.7-11-.1-.186-.2-.372-.3-.556-1.467-2.669-2.893-5.194-4.178-7.459l-.4-.7-.861-1.519q-.441-.774-.858-1.488c-.109-.188-.219-.374-.324-.553-1.471-2.507-2.614-4.366-2.779-5.4-.135-.851-.254-1.732-.31-2.626-.015-.217-.025-.436-.031-.653a13.418,13.418,0,0,1,.052-1.614c.024-.273.059-.543.107-.816a9.365,9.365,0,0,1,.424-1.63,7.2,7.2,0,0,1,.336-.814,11.421,11.421,0,0,1,4.763-4.893q.267-.161.554-.318c.252-.141.516-.279.789-.415s.578-.281.884-.42c.7-.312,1.449-.615,2.265-.9a40.3,40.3,0,0,0,7.089-3.219c.248-.142.481-.287.706-.432a20.849,20.849,0,0,0,2.2-1.582c.167-.137.324-.273.473-.405a7.986,7.986,0,0,0,2.165-2.655l12,1.4.781.09,6.83.8a32.824,32.824,0,0,0,5.879,2.81q.486.167.979.31c.411.118.822.223,1.231.306.244.051.486.1.726.128.278.043.555.074.828.091,2.86.181,5.3.2,6.971,1.646a4.88,4.88,0,0,1,.6.62A7.113,7.113,0,0,1,82.824,65.9c.066.25.12.5.165.754.015.074.027.149.039.223.023.13.042.263.06.393s.036.285.05.427a39.225,39.225,0,0,1-.178,6.35,16.926,16.926,0,0,0,0,2.626c.021.213.048.419.085.62a4.128,4.128,0,0,0,.723,1.785c1.064,1.411,3.015,3.132,4.579,5.45.064.1.128.191.19.29.105.163.206.328.306.5.041.066.08.132.121.2a12.625,12.625,0,0,1,1.618,4.655c.015.106.027.211.037.318.017.147.029.294.04.445,0,.06.008.119.008.181a11.013,11.013,0,0,1,.006,1.234A17.688,17.688,0,0,1,90,96.3c-.066.259-.145.513-.221.773-.252.814-.542,1.624-.852,2.434-.117.308-.237.618-.359.926-.37.921-.756,1.841-1.134,2.756-.083.2-.164.4-.244.6q-.146.35-.285.7v0q-.2.489-.385.979v0c-.386,1.014-.733,2.025-1.01,3.033-.072.26-.136.521-.2.783a16.147,16.147,0,0,0-.329,1.831,32.581,32.581,0,0,0,.4,8.033c.025.163.05.326.074.49.007.043.015.086.021.13.227,1.44.506,2.942.824,4.463.071.343.145.684.219,1.029v0c.486,2.213,1.042,4.446,1.622,6.578.066.238.131.472.194.705.532,1.915,1.081,3.738,1.608,5.374q.523,1.628,1,3.172v.008c.227.744.446,1.463.657,2.176.017.053.031.107.045.159v.01c.05.159.1.312.141.469,4.8,16.434,5.157,24.883,5.157,24.883" fill="#fff"/>
            <path id="Trazado_130873" data-name="Trazado 130873" d="M83.041,77.29q-1.776-.1-3.552-.169l-.043,0c-.207-.007-.411-.015-.618-.019q-5.584-.183-11.174.027L67,77.152h0q-5.928.245-11.827.919c-.216.023-.436.048-.654.074h0q-7.029.831-13.965,2.271c-.31.064-.62.13-.93.2-.214.046-.427.091-.64.139q-6.878,1.5-13.6,3.587c-.109-.188-.219-.374-.324-.554q6.71-2.089,13.581-3.591c.215-.05.428-.1.642-.14q7.415-1.593,14.953-2.492h0c.219-.029.436-.054.655-.079q3.77-.437,7.556-.7,2.157-.148,4.317-.238c.221-.012.44-.02.659-.027q5.6-.216,11.2-.041c.207.006.413.012.622.021q1.863.062,3.721.171c.021.213.048.42.085.62" fill="#d3d3d3"/>
            <path id="Trazado_130874" data-name="Trazado 130874" d="M90.663,91.115Q87.1,90.452,83.5,90.026c-.031,0-.064-.008-.1-.01-.2-.025-.4-.048-.6-.07q-5.442-.6-10.923-.67c-.215,0-.432-.006-.647-.008-3.723-.023-7.449.136-11.157.481-.211.019-.422.04-.633.06A112.938,112.938,0,0,0,45.7,92.028l-.612.139a111.615,111.615,0,0,0-13.109,3.9c-.1-.186-.2-.372-.3-.556q1.758-.651,3.537-1.234,4.742-1.562,9.606-2.69c.2-.048.407-.093.611-.138A112.88,112.88,0,0,1,59.22,89.208l.632-.06q5.578-.523,11.191-.492c.217,0,.432,0,.648.007,3.653.041,7.306.258,10.939.656.2.021.4.044.6.069q3.709.424,7.384,1.1c.017.147.029.293.04.444,0,.06.008.12.008.182" fill="#d3d3d3"/>
            <path id="Trazado_130875" data-name="Trazado 130875" d="M87.436,103.186c-.083.2-.163.4-.244.6-.149-.017-.295-.031-.444-.045-.2-.021-.4-.04-.6-.056q-5.285-.494-10.6-.581h-.015c-.211,0-.423-.006-.634-.008q-5.3-.062-10.585.283c-.209.012-.419.027-.628.041q-6.531.456-13,1.519c-.209.035-.418.068-.626.105q-6.113,1.032-12.118,2.606c-.094-.192-.186-.387-.279-.581.02-.006.043-.01.064-.016q6.009-1.575,12.14-2.61.313-.056.627-.105,6.474-1.066,13.029-1.521l.628-.043q5.293-.345,10.6-.29c.211,0,.424.005.635.009h0q5.314.077,10.614.56l.6.057c.274.025.547.052.822.081" fill="#d3d3d3"/>
            <path id="Trazado_130876" data-name="Trazado 130876" d="M85.46,119.634c.006.043.014.087.021.13-.533-.066-1.069-.126-1.6-.182q-2.622-.271-5.256-.411l-.63-.031a102.742,102.742,0,0,0-10.279.044c-.209.012-.416.022-.624.037a102.564,102.564,0,0,0-12.635,1.549c-.2.036-.407.075-.61.114a102.259,102.259,0,0,0-9.94,2.428c-.045-.2-.093-.407-.144-.614a102.1,102.1,0,0,1,9.983-2.432c.2-.039.407-.076.61-.113a102.948,102.948,0,0,1,12.63-1.54c.209-.014.416-.027.622-.037q5.139-.282,10.288-.047l.63.031q3.439.176,6.864.584c.024.164.049.327.074.49" fill="#d3d3d3"/>
            <path id="Trazado_130877" data-name="Trazado 130877" d="M88.146,131.837c.066.238.13.471.194.705q-3.967-.584-7.992-1-.312-.035-.626-.064-5.145-.508-10.335-.684l-.626-.019a127.56,127.56,0,0,0-13.136.3c-.2.016-.4.031-.608.049a104.318,104.318,0,0,0-10.564,1.393c.016-.207.031-.413.043-.62,2.61-.469,5.236-.827,7.874-1.091q1.3-.131,2.608-.234l.607-.047q6.528-.486,13.1-.333c.209,0,.417.007.626.013q5.166.129,10.325.618c.21.018.419.039.628.059q3.951.385,7.878.957" fill="#d3d3d3"/>
            <path id="Trazado_130878" data-name="Trazado 130878" d="M91.787,143.91l-.126-.012-.622-.058c-3.141-.285-6.283-.55-9.43-.773l-.624-.043c-3.475-.24-6.953-.424-10.432-.519-.209-.008-.415-.012-.624-.016-3.593-.089-7.186-.083-10.781.057q-1.671.066-3.339.172c-.2.012-.407.025-.612.039a111,111,0,0,0-13.389,1.7c.079-.219.157-.444.234-.673a112.31,112.31,0,0,1,13.174-1.641c.2-.014.409-.029.611-.041,4.674-.293,9.366-.341,14.052-.227.207,0,.416.01.622.016q3.788.106,7.565.335,1.431.084,2.859.184c.209.012.415.027.624.041,3.161.221,6.316.486,9.471.771l.581.054a.259.259,0,0,1,.041,0c0,.051,0,.1,0,.155v.01c.05.159.1.312.141.469" fill="#d3d3d3"/>
            <path id="Trazado_130879" data-name="Trazado 130879" d="M83.089,67.267q-1.774-.136-3.553-.225-1.925-.1-3.85-.145l-.656-.012q-5.871-.119-11.739.244c-.226.012-.451.027-.677.043q-6.306.413-12.558,1.372c-.224.033-.449.068-.673.1A146.211,146.211,0,0,0,33.8,71.988c-.215.058-.429.116-.644.176h0q-5.666,1.57-11.189,3.6c-.014-.217-.024-.436-.031-.653q3.688-1.354,7.449-2.5,1.677-.512,3.364-.979h0c.218-.064.433-.122.646-.182a146.309,146.309,0,0,1,15.645-3.374c.225-.035.45-.07.674-.1Q55.982,67,62.321,66.575c.228-.017.452-.031.679-.044q5.881-.364,11.783-.26c.218,0,.437.008.658.015q3.778.083,7.548.365c.014.075.027.149.039.223.023.131.041.263.061.393" fill="#d3d3d3"/>
            <path id="Trazado_130880" data-name="Trazado 130880" d="M55.827,142.1c0,.207-.012.413-.018.62a112.127,112.127,0,0,1-1.686,15.761l-.579-.267A111.566,111.566,0,0,0,55.2,142.757c.006-.207.014-.411.018-.618q.147-4.59-.088-9.182c-.031-.611-.069-1.223-.11-1.834q-.018-.276-.039-.552-.354-4.869-1.134-9.686c-.033-.207-.067-.411-.1-.618a111.021,111.021,0,0,0-3.669-15.228c-.062-.2-.126-.4-.192-.6a109.365,109.365,0,0,0-4.794-12.271c-.089-.194-.18-.388-.271-.583Q44,89.831,43.11,88.105q-1.927-3.756-4.135-7.354c-.113-.186-.227-.371-.345-.557q-2.562-4.136-5.479-8.03h0c-.132-.179-.269-.359-.4-.537h0q-2.445-3.235-5.13-6.285c.177-.107.363-.213.553-.318q2.731,3.111,5.226,6.421c.093.122.183.244.274.366.044.06.089.118.131.178q2.916,3.911,5.477,8.064c.116.186.231.372.343.56a111.484,111.484,0,0,1,5.812,10.833c.091.194.182.388.271.583a110.594,110.594,0,0,1,4.808,12.3l.192.6q1.122,3.533,2,7.139.976,4.01,1.653,8.08c.035.205.068.411.1.618q.781,4.851,1.132,9.752c.015.182.029.366.04.55q.372,5.5.2,11.025" fill="#d3d3d3"/>
            <path id="Trazado_130881" data-name="Trazado 130881" d="M71.826,165.018c-.209-.058-.417-.118-.628-.18-.289-7.457-.661-14.911-1.269-22.349-.014-.207-.031-.412-.049-.618q-.18-2.191-.391-4.383-.322-3.355-.727-6.71c-.023-.2-.046-.391-.072-.587q-.674-5.5-1.6-10.97c-.035-.2-.068-.4-.1-.607-.891-5.112-1.969-10.186-3.287-15.2-.052-.2-.106-.4-.16-.6-1.171-4.389-2.524-8.728-4.093-13-.074-.2-.148-.4-.223-.6-.045-.122-.091-.243-.136-.365q-2.046-5.444-4.57-10.7h0c-.094-.2-.187-.39-.284-.585h0Q52,73,49.383,68.648c-.113-.192-.229-.385-.347-.577A104.086,104.086,0,0,0,42.1,58.053c.167-.137.324-.273.473-.405a103.57,103.57,0,0,1,7.141,10.32q.176.288.347.577.5.83.983,1.673,2.052,3.567,3.843,7.265c.1.2.193.392.285.589q2.6,5.427,4.685,11.076c.074.2.148.4.223.6,1.562,4.272,2.917,8.622,4.089,13.019.053.2.107.4.159.605q1.431,5.442,2.5,10.963.413,2.117.779,4.24c.037.2.072.4.107.607q.936,5.492,1.6,11.019c.024.2.047.4.072.593q.663,5.532,1.114,11.091.027.308.051.618c.608,7.492.982,15.007,1.273,22.513" fill="#d3d3d3"/>
            <path id="Trazado_130882" data-name="Trazado 130882" d="M56.852,57.275a.31.31,0,0,0,0-.62.31.31,0,0,0,0,.62" fill="#d3d3d3"/>
            <path id="Trazado_130883" data-name="Trazado 130883" d="M83.355,163.179c.033.4-.587.4-.62,0-.539-6.721-1.089-13.445-1.75-20.156-.019-.206-.039-.411-.06-.617q-.291-2.941-.616-5.876-.277-2.526-.586-5.05c-.027-.219-.054-.438-.083-.659q-.726-5.852-1.649-11.68-.046-.308-.1-.612c-.839-5.176-1.818-10.329-2.984-15.438-.045-.205-.092-.407-.14-.612q-1.342-5.8-3.027-11.529c-.167-.562-.335-1.122-.508-1.682-.062-.2-.126-.407-.19-.611Q69.232,82.833,67,77.152h0c-.078-.2-.157-.4-.24-.605q-1.9-4.761-4.14-9.375c-.1-.2-.194-.4-.294-.6q-2.389-4.861-5.181-9.516c-.079-.133-.16-.267-.242-.4-.052-.089-.108-.18-.161-.269l.781.091q2.969,4.9,5.481,10.05.148.3.291.6,1.415,2.919,2.689,5.9.74,1.736,1.436,3.486c.082.2.163.405.239.607q2.241,5.691,4.037,11.536c.064.2.127.409.189.613q2,6.537,3.522,13.211h0c.046.205.093.409.139.612h0q1.407,6.189,2.475,12.447.261,1.506.5,3.014c.035.205.066.407.1.612q.93,5.838,1.647,11.709.043.332.081.663.666,5.445,1.2,10.9c.021.207.039.413.06.62.659,6.7,1.209,13.407,1.746,20.112" fill="#d3d3d3"/>
            <path id="Trazado_130884" data-name="Trazado 130884" d="M86.907,104.481v0q-.2.489-.384.979-.18-.893-.37-1.783-.066-.315-.134-.632Q84.6,96.455,82.8,89.945q-.084-.312-.174-.626Q80.9,83.155,78.828,77.1c-.07-.207-.142-.413-.215-.622q-1.675-4.84-3.582-9.593c-.081-.205-.163-.409-.248-.614q-1.131-2.8-2.345-5.568.364.078.725.128,1.18,2.709,2.279,5.455c.083.2.163.409.244.611q1.739,4.377,3.281,8.825c.089.258.18.519.268.777.071.207.141.413.211.62Q81.51,83.2,83.231,89.388c.06.208.118.419.176.628q1.791,6.5,3.207,13.089c.045.211.091.419.134.63.054.248.107.5.159.746" fill="#d3d3d3"/>
            <path id="Trazado_130885" data-name="Trazado 130885" d="M91.719,146.753a.31.31,0,0,1-.62,0q-.018-1.457-.06-2.913c0-.207-.01-.416-.018-.622-.021-.707-.046-1.416-.077-2.122.228.744.447,1.463.657,2.175a.186.186,0,0,1,.042.005c0,.051,0,.1,0,.155v.01c.006.151.01.3.014.457q.041,1.425.058,2.855" fill="#d3d3d3"/>
            <path id="Trazado_130886" data-name="Trazado 130886" d="M29.75,84.034c11.371,14.714,20.392,32.4,19.175,51.49a47.827,47.827,0,0,1-3.59,15.5c-.186.44.534.633.717.2,7.579-18.027,2.7-38.281-6.807-54.56a122.948,122.948,0,0,0-8.969-13.157c-.292-.378-.815.152-.526.526" fill="#0f0f0f"/>
            <path id="Trazado_130887" data-name="Trazado 130887" d="M25.392,210.9q.078,2.5.246,4.767c0,.072.01.144.016.215.011.159.023.318.035.475.009.089.015.177.023.266.374,4.66.967,8.554,1.473,11.7.009.047.015.1.023.142.031.195.06.385.091.571,0,.016.006.031.008.047.286,1.766.526,3.259.672,4.511H62.6c.018-.326.037-.65.054-1,.244-4.62.554-11.222.847-18.364q.017-.423.036-.848l.018-.452c.013-.3.023-.61.035-.916.23-5.721.444-11.686.606-17.186q.012-.431.024-.855c.009-.273.015-.542.023-.81.01-.351.019-.7.029-1.044.008-.3.015-.6.023-.9.146-5.671.221-10.614.173-13.934-.012-.907-.033-1.692-.066-2.339-.016-.359-.037-.675-.062-.944-.087-.977-.217-1.351-.4-.971l-.568-.1-1.208-.219-15.8-2.87-.745-.137-6.939-1.26-1.077-.2-5.857-1.064c-1.215,3.963-2.219,7.754-3.044,11.376-.056.242-.109.481-.161.721-.715,3.213-1.287,6.292-1.738,9.236l0,0c-.053.349-.1.694-.155,1.039q-.474,3.252-.76,6.281c-.025.271-.05.542-.072.808a118.59,118.59,0,0,0-.451,13.406c.006.289.013.574.023.859" fill="#666"/>
            <path id="Trazado_130888" data-name="Trazado 130888" d="M28.733,181.237S31.752,158,42.613,142.785c0,0,28.112,12.3,50.437,5.625,0,0,7.733,24.488,5.759,60.438,0,0-61.639,12.281-70.076-27.611" fill="#666"/>
            <path id="Trazado_130889" data-name="Trazado 130889" d="M64.241,192.144c0,.335,0,.672,0,1.01,0,.277,0,.556,0,.837s0,.591.008.887c.036,5.214.131,10.826.264,16.2.007.287.014.575.02.86.023.843.045,1.68.068,2.506.009.3.016.606.025.907.171,5.864.38,11.205.6,15.106.018.285.036.562.052.83q.042.717.086,1.356c.023.312.059.629.085.943h35.678c-.032-.637-.063-1.264-.1-1.925-.015-.307-.03-.619-.046-.931-.233-4.513-.486-9.482-.73-14.323-.013-.281-.027-.562-.042-.841-.085-1.719-.169-3.417-.252-5.07-.014-.31-.03-.62-.044-.928-.236-4.771-.443-9.1-.587-12.331-.013-.291-.025-.57-.037-.843-.1-2.415-.166-4.1-.166-4.707,0-.663-.014-1.388-.043-2.163,0-.151-.013-.3-.02-.456s-.011-.294-.018-.443a.1.1,0,0,1,0-.025c-.147-3.119-.467-6.863-.816-10.355-.027-.269-.054-.535-.083-.8-.48-4.725-.993-8.849-1.155-10.109-.014-.124-.027-.219-.034-.288,0-.022-.007-.043-.009-.058l-.006-.049h0l-.277.066-9.514,2.225L86,169.5l0,0-4.9,1.147-.714.167L64.813,174.46l-.118.027c-.025.2-.049.423-.073.665-.058.6-.107,1.308-.153,2.12-.175,3.31-.243,8.291-.231,13.992,0,.291,0,.585,0,.88" fill="#666"/>
            <g id="Grupo_157957" data-name="Grupo 157957" opacity="0.5">
              <g id="Grupo_157956" data-name="Grupo 157956">
                <g id="Grupo_157955" data-name="Grupo 157955" clip-path="url(#clip-path-6)">
                  <path id="Trazado_130890" data-name="Trazado 130890" d="M25.392,210.9l7.345-7.345,9.608,9.6-9.608,9.606-7.1-7.1c0,.073.01.145.017.215.01.16.022.319.035.476.008.088.014.177.022.266l6.585,6.585-5.111,5.11c.008.047.014.1.022.142.031.195.06.385.091.57,0,.017.006.031.008.048l5.43-5.43,9.608,9.608-.333.333H43.56l-.333-.333,9.606-9.608,9.6,9.608-.333.333h.5c.018-.326.037-.65.054-1l-9.382-9.38,9.608-9.606.622.622c.01-.281.022-.564.035-.847l-.217-.217.235-.235c.013-.3.023-.61.035-.916l-.71.711-9.608-9.608,9.608-9.6,9.6,9.6-6.744,6.744-1.223,1.226c.008.287.015.574.021.859l8.386-8.386,7.067,7.064,2.541,2.541-9.608,9.606-8.318-8.319q.012.456.025.907l7.853,7.854-7.252,7.252c.019.285.035.562.052.831l7.64-7.643,9.608,9.608-.333.333h1.548l-.333-.333,9.606-9.608,8.015,8.017c-.017-.308-.031-.62-.048-.932l-7.527-7.525,6.8-6.8c-.013-.281-.027-.562-.042-.841l-7.2,7.2-9.606-9.606,9.606-9.6,6.944,6.944c-.014-.31-.031-.62-.045-.928l-6.459-6.459,5.67-5.667.2-.2c-.012-.292-.025-.571-.037-.844l-6.275,6.275-9.606-9.605,9.606-9.608,5.971,5.973.1.1c0-.151-.012-.3-.018-.457s-.013-.294-.019-.442a.11.11,0,0,1,0-.025l-.091-.091-5.5-5.494,4.771-4.771.053-.051q-.039-.406-.076-.808l-5.188,5.188-9.606-9.606,9.606-9.6L97,167.344c-.014-.1-.029-.2-.043-.295,0-.023-.006-.044-.008-.058,0-.033-.007-.05-.007-.05h0c-.031-.213-.062-.423-.093-.632l-3.388-3.389,2.407-2.407c-.045-.252-.093-.5-.138-.741l-2.709,2.708-9.606-9.607,3.031-3.031c-.339.049-.677.1-1.018.136l-2.455,2.455-2.089-2.089c-.283.012-.568.022-.851.031l2.5,2.5-9.608,9.607-9.605-9.607,3.39-3.391-.762-.118-3.068,3.069-4.61-4.61q-.593-.143-1.169-.287l5.336,5.337-9.6,9.607-9.606-9.607,7.232-7.232c-.227-.072-.451-.145-.668-.215l-7.006,7.007-3.795-3.8c-.106.19-.207.38-.308.572l3.663,3.664-8.963,8.963q-.276.826-.531,1.638l4.758,4.759,4.736,4.735-9.608,9.606-4.029-4.029c-.055.242-.109.481-.161.721l.42.421,3.33,3.329-2.419,2.42L26.809,188.5l0,0c-.053.349-.1.694-.155,1.039l3.453-3.455,2.632-2.632,9.608,9.608-4.787,4.787-4.821,4.818-6.845-6.845c-.025.271-.049.542-.072.808l6.477,6.477-6.928,6.928c.007.29.013.575.023.86m17.393,21.914-9.606-9.606,9.606-9.606,9.606,9.606Zm14.831-24.476,4.822,4.822-9.6,9.606-9.606-9.606,9.606-9.6Zm-4.783-5.666-9.606-9.605,9.606-9.608,9.6,9.608Zm.44-19.653,9.608-9.606,9.6,9.606-8.19,8.19-.058.058-1.357,1.358Zm10.048,10.048.952-.953,8.653-8.655,9.608,9.608-9.608,9.605ZM92.58,223.205l-9.606,9.606-9.606-9.606,9.606-9.606Zm0-20.1-7.312,7.313-2.294,2.295L80.858,210.6l-7.49-7.492,9.606-9.6Zm0-20.093-9.606,9.606-9.606-9.606,9.606-9.606Zm-9.606-29.7,9.606,9.6L86,169.5l0,0-3.025,3.025L81.1,170.65l-7.728-7.73Zm-2.593,17.5,2.153,2.151-9.608,9.606-9.605-9.606,9.605-9.6Zm-17.5-17.5,9.6,9.6-9.6,9.608-9.608-9.608Zm-.443,19.653-9.6,9.606-9.606-9.606,3.143-3.142,6.463-6.463Zm-23.752-4.539-5.507-5.509,9.606-9.6,9.606,9.6-6.767,6.769-2.839,2.839Zm-5.507,14.587,9.606-9.606,9.606,9.606-9.606,9.606ZM38,198.285l4.781-4.781,9.606,9.6-2.647,2.647-6.959,6.961-9.606-9.608Z" fill="#919191"/>
                </g>
              </g>
            </g>
            <path id="Trazado_130891" data-name="Trazado 130891" d="M91.078,167.838a48.844,48.844,0,0,0,6.026,7.549c.335.344.861-.182.526-.526a47.851,47.851,0,0,1-5.91-7.4c-.259-.4-.9-.028-.642.375" fill="#0f0f0f"/>
            <path id="Trazado_130892" data-name="Trazado 130892" d="M63.8,196.005a11.1,11.1,0,0,0,4.218-2.929,18.716,18.716,0,0,0,4.139-5.966c.184-.436-.456-.815-.642-.375a18.126,18.126,0,0,1-3.815,5.606,10.657,10.657,0,0,1-4.1,2.947c-.456.139-.261.858.2.717" fill="#0f0f0f"/>
            <path id="Trazado_130893" data-name="Trazado 130893" d="M33.626,233.586h.732c-1.611-11.517-2.783-23.114-2.345-34.757a128.3,128.3,0,0,1,8.426-40.881q1.115-2.925,2.354-5.8c.187-.435-.454-.814-.643-.375A132.058,132.058,0,0,0,31.6,193.168c-.989,12.17-.113,24.359,1.466,36.439.173,1.328.37,2.653.556,3.979" fill="#0f0f0f"/>
            <path id="Trazado_130894" data-name="Trazado 130894" d="M70.03,233.586q-.308-2.1-.588-4.2c-1.517-11.446-2.406-22.968-2.823-34.5-.017-.478-.761-.48-.744,0a358.85,358.85,0,0,0,3.417,38.707Z" fill="#0f0f0f"/>
            <path id="Trazado_130895" data-name="Trazado 130895" d="M42.926,140.908a11.4,11.4,0,0,0-3.7,9.578c-.333.6,22.566,13.733,55.984,4.742a16.56,16.56,0,0,0-3.151-10.844s-29.44,7.579-49.132-3.476" fill="#414141"/>
            <path id="Trazado_130896" data-name="Trazado 130896" d="M48.393,163.433a39.916,39.916,0,0,1-10.8,15.862c-.358.32.17.845.526.526a40.7,40.7,0,0,0,10.988-16.19c.167-.45-.552-.644-.717-.2" fill="#0f0f0f"/>
            <path id="Trazado_130897" data-name="Trazado 130897" d="M72.071,35.459,69.7,48.421s1.773,1.659,6.309.4L72.754,35.467Z" fill="#fff"/>
            <path id="Trazado_130898" data-name="Trazado 130898" d="M73.972,27.884A3.072,3.072,0,0,1,76.5,30.8c.4,2.717-.987,7.243-3.733,6.676s1.208-9.588,1.208-9.588" fill="#3b3b3b"/>
            <line id="Línea_224" data-name="Línea 224" y2="0.002" transform="translate(66.364 48.939)" fill="#7e7e7e"/>
            <path id="Trazado_130899" data-name="Trazado 130899" d="M43.826,56.364a22.128,22.128,0,0,0,11.621,8.2c9.971,2.863,11.268-2.835,11.268-2.835a19.141,19.141,0,0,1-.781-4.189c-.042-.552-.066-1.119-.07-1.7a46.3,46.3,0,0,1,.323-5.366c.051-.473.108-.964.171-1.47l.006-.06c-6.986-1.695-12.692-4.829-16.581-10.011L48.737,38.3l-.7-.428-.132.408.127,1.3c.613,6.115-.793,11.171-4.2,16.785" fill="#7e7e7e"/>
            <path id="Trazado_130900" data-name="Trazado 130900" d="M42.29,55.359c2.92,6.613,6.081,13.715,12.279,17.909,2.65,1.793,6.3,3.346,9.509,2.237,2.683-.929,4.319-3.626,4.9-6.283.9-4.116-.641-8.254-2.082-12.052-.168-.443-.887-.251-.717.2C67.4,60.6,68.709,64,68.474,67.521c-.184,2.763-1.522,5.881-4.171,7.1-3.159,1.449-7.009-.339-9.623-2.174a24.977,24.977,0,0,1-6.482-7.03,74.973,74.973,0,0,1-5.266-10.429c-.193-.437-.834-.059-.642.375" fill="#0f0f0f"/>
            <path id="Trazado_130901" data-name="Trazado 130901" d="M54.6,44.333c1.459,3.347,4.855,9.271,11.264,11.505a46.345,46.345,0,0,1,.323-5.367c.051-.472.108-.963.171-1.468-.138.015-.28.026-.421.033-3.812.232-7.942-1.755-11.337-4.7" fill="#161616"/>
            <path id="Trazado_130902" data-name="Trazado 130902" d="M39.582,27.748c-.26,3.79,2.629,8.65,7.576,9.127l.026,0h0l.1.012c.065.223.143.443.225.668.034.1.071.2.109.293a.106.106,0,0,0,.012.027c2.645,6.65,11.558,11.067,16.51,11.542a11.375,11.375,0,0,0,3.374-.2c5.337-.781,6.809-7.819,6.357-13.307a20.851,20.851,0,0,0-.314-2.266l-.03-.146s2.284-7.476,2.924-10.762c1.238-6.369-2-13.149-16-15.4S42.483,13.6,41.175,18.167c-.22.761-.381,5.377.339,6.172a3.768,3.768,0,0,0-1.932,3.409" fill="#7e7e7e"/>
            <path id="Trazado_130903" data-name="Trazado 130903" d="M71.265,30.5c-.142.928-.647,1.62-1.129,1.546s-.758-.885-.616-1.813.647-1.62,1.129-1.546.758.885.616,1.813" fill="#161616"/>
            <path id="Trazado_130904" data-name="Trazado 130904" d="M68.742,29.466a.249.249,0,0,1-.027-.442c.1-.058,2.443-1.408,4.321.127a.249.249,0,0,1-.315.385c-1.611-1.319-3.733-.1-3.754-.084a.246.246,0,0,1-.225.014" fill="#161616"/>
            <path id="Trazado_130905" data-name="Trazado 130905" d="M63.16,29.4c-.142.927-.647,1.62-1.129,1.546s-.758-.885-.616-1.813.648-1.62,1.13-1.546.757.886.615,1.813" fill="#161616"/>
            <path id="Trazado_130906" data-name="Trazado 130906" d="M60.217,28.653a.248.248,0,0,1-.082-.435c.09-.07,2.244-1.706,4.3-.42a.248.248,0,1,1-.263.421c-1.767-1.1-3.715.377-3.734.392a.252.252,0,0,1-.222.042" fill="#161616"/>
            <path id="Trazado_130907" data-name="Trazado 130907" d="M62.512,36.833s.007,4.449,3.722,4.872a3.836,3.836,0,0,0,4.308-3.212Z" fill="#fff"/>
            <path id="Trazado_130908" data-name="Trazado 130908" d="M65.4,43.339a2,2,0,0,1-1.1-.747.336.336,0,0,1,.558-.375,1.361,1.361,0,0,0,1.449.467.336.336,0,0,1,.152.655,2.182,2.182,0,0,1-1.06,0" fill="#3b3b3b"/>
            <path id="Trazado_130909" data-name="Trazado 130909" d="M41.515,24.34a7.84,7.84,0,0,1,5.936,3.9c.2-1.287,1.579-7.194,10.2-8.165.123-.013.256-.026.394-.037a7.355,7.355,0,0,0,.95-3.7c-.859-3.506,16.023-1.726,16.59,3.656.237,2.255.364,3.724.432,4.677v0a9.266,9.266,0,0,1,.06,1.751s1.49,1.552,1.615-5.86a10.064,10.064,0,0,0-2.5-6.612c-3.369-4.1-9.766-7.031-16.84-7.937-10.473-1.341-18.106,9.664-18.607,13.68s1.77,4.651,1.77,4.651" fill="#161616"/>
            <g id="Grupo_157960" data-name="Grupo 157960" opacity="0.5">
              <g id="Grupo_157959" data-name="Grupo 157959">
                <g id="Grupo_157958" data-name="Grupo 157958" clip-path="url(#clip-path-7)">
                  <path id="Trazado_130910" data-name="Trazado 130910" d="M71.071,34.623c-.028.563,1.178,1.095,2.808,1.285a20.914,20.914,0,0,0-.315-2.266c-1.423.083-2.468.467-2.493.981" fill="#3b3b3b"/>
                </g>
              </g>
            </g>
            <path id="Trazado_130911" data-name="Trazado 130911" d="M67.635,36.175a.439.439,0,0,0,.237-.042l2.008-1a.431.431,0,0,0,.053-.74,6.194,6.194,0,0,1-2.593-4.55.43.43,0,0,0-.851.126,7.165,7.165,0,0,0,2.389,4.7l-1.389.689a.43.43,0,0,0,.146.813" fill="#3b3b3b"/>
            <path id="Trazado_130912" data-name="Trazado 130912" d="M63.938,25.63a1.045,1.045,0,0,0,1.544-1.352,3.036,3.036,0,0,0-1.691-1.289,7.579,7.579,0,0,0-6.672.988s4.023.134,5.826,1.032a5.866,5.866,0,0,1,.993.621" fill="#161616"/>
            <path id="Trazado_130913" data-name="Trazado 130913" d="M70.337,26.374a1.045,1.045,0,0,1-1.145-1.7,3.03,3.03,0,0,1,1.965-.814c3.931-.272,4.921,2.312,4.921,2.312a13.875,13.875,0,0,0-4.622-.142,5.789,5.789,0,0,0-1.119.346" fill="#161616"/>
            <g id="Grupo_157963" data-name="Grupo 157963" opacity="0.5">
              <g id="Grupo_157962" data-name="Grupo 157962">
                <g id="Grupo_157961" data-name="Grupo 157961" clip-path="url(#clip-path-8)">
                  <path id="Trazado_130914" data-name="Trazado 130914" d="M62.312,34.1c-.032.643-1.66,1.083-3.634.982s-3.549-.7-3.517-1.345,1.66-1.082,3.635-.982,3.549.7,3.516,1.345" fill="#3b3b3b"/>
                </g>
              </g>
            </g>
            <path id="Trazado_130915" data-name="Trazado 130915" d="M47.159,36.875l.026,0h0l.1.011c.064.224.142.444.224.669.035.1.072.2.11.293a.107.107,0,0,0,.012.027,4.553,4.553,0,0,0,1.966-.626,3.61,3.61,0,0,0,1.085-1.025.513.513,0,0,0-.841-.588,2.759,2.759,0,0,1-1.293.984,3.7,3.7,0,0,1-.912.217,4.415,4.415,0,0,1-.484.035" fill="#3b3b3b"/>
            <path id="Trazado_130916" data-name="Trazado 130916" d="M47.831,33.951a.512.512,0,0,1-.391-.437C47,29.9,42.854,28.066,42.813,28.048a.513.513,0,0,1,.4-.942c.193.083,4.731,2.082,5.239,6.284a.512.512,0,0,1-.626.561" fill="#3b3b3b"/>
            <path id="Trazado_130917" data-name="Trazado 130917" d="M43.52,31.655a.5.5,0,0,1-.179-.081.513.513,0,0,1-.121-.715,3.521,3.521,0,0,1,3.193-1.315.513.513,0,0,1-.112,1.02,2.49,2.49,0,0,0-2.245.889.514.514,0,0,1-.536.2" fill="#3b3b3b"/>
            <path id="Trazado_130918" data-name="Trazado 130918" d="M43.772,44.03c2.792,2.063,5.644,3.151,8.727.447a26.222,26.222,0,0,0-2.185-12.466c-2.457-4.817,1.832-10.755,1.832-10.755-2.733,1.131-5.759,1.1-7.383,4.3,2.71,3.128,1.018,11.62-.991,18.478" fill="#161616"/>
            <path id="Trazado_130919" data-name="Trazado 130919" d="M44.507,33.979,39.95,46.343s1.462,1.938,6.148,1.471L45.177,34.1Z" fill="#fff"/>
            <path id="Trazado_130920" data-name="Trazado 130920" d="M40.173,148.217c.7-1.627.19-4.73,1.352-6.269-1.972-1.506-2.822-2.215-4.717-3.8q-3.9-3.271-7.568-6.774c-2.437-2.331-4.793-4.732-7.032-7.2q-1.68-1.847-3.256-3.736l-.2-.239c.117-.461.247-.944.391-1.436.518-1.764,1.2-3.653,1.931-5.553,1.491-3.813,3.248-7.7,5.1-11.563s3.832-7.729,5.869-11.567q1.527-2.88,3.1-5.735L36.736,81.5l.8-1.411.787-1.369.055-.1a9.145,9.145,0,1,0-15.863-9.106l-.876,1.524L20.8,72.527l-1.659,2.98q-1.647,2.985-3.247,5.994c-2.132,4.018-4.206,8.078-6.2,12.224S5.781,102.1,4.031,106.569c-.87,2.247-1.7,4.544-2.439,7.047-.367,1.254-.712,2.559-1,3.991A28.009,28.009,0,0,0,0,122.582a8.9,8.9,0,0,0,2.114,5.994l.048.057c.094.107.129.138.189.2l.152.152.286.283.55.533q.544.516,1.082,1.007c.716.66,1.432,1.294,2.151,1.917q2.157,1.868,4.353,3.61c2.929,2.329,5.923,4.527,8.97,6.623s6.154,4.079,9.314,5.956q4.188,2.488,8.487,4.73c.869-1.788,1.684-3.6,2.475-5.43" fill="#7e7e7e"/>
            <path id="Trazado_130921" data-name="Trazado 130921" d="M11.571,118.889a10.557,10.557,0,0,1,6.984,1.556c.377.236.763-.337.385-.574a11.321,11.321,0,0,0-7.5-1.66c-.441.055-.306.733.133.678" fill="#3b3b3b"/>
            <path id="Trazado_130922" data-name="Trazado 130922" d="M13.515,116.016l3.132,3.13c.313.313.834-.142.518-.457l-3.132-3.13c-.313-.312-.834.142-.518.457" fill="#3b3b3b"/>
            <path id="Trazado_130923" data-name="Trazado 130923" d="M90.078,137.978s4.064-.162,4.647,2.769-4.1,8.212-5.863,9.954-1.214-4.078.281-6.2a5.522,5.522,0,0,0,1.243-3.706Z" fill="#7e7e7e"/>
            <path id="Trazado_130924" data-name="Trazado 130924" d="M92.432,147.568s4.373-.271,4.955,2.659-4.1,8.212-5.862,9.954-1.214-4.078.28-6.2,1.047-3.449,1.047-3.449Z" fill="#7e7e7e"/>
            <path id="Trazado_130925" data-name="Trazado 130925" d="M94.451,151.968s3.863-.24,4.377,2.349-3.617,7.254-5.178,8.793-1.073-3.6.247-5.477.925-3.047.925-3.047Z" fill="#7e7e7e"/>
            <path id="Trazado_130926" data-name="Trazado 130926" d="M90.736,142.882s4.373-.272,4.956,2.659-4.1,8.212-5.864,9.954-1.213-4.078.281-6.2,1.047-3.449,1.047-3.449Z" fill="#7e7e7e"/>
            <path id="Trazado_130927" data-name="Trazado 130927" d="M42.406,141.385s-4.487-.472-5.317,2.4,3.382,8.531,5,10.417,1.556-3.96.247-6.2a5.521,5.521,0,0,1-.924-3.8Z" fill="#7e7e7e"/>
            <path id="Trazado_130928" data-name="Trazado 130928" d="M38.793,150.774s-4.334-.642-5.164,2.228,3.382,8.53,4.995,10.417,1.557-3.96.248-6.2-.749-3.526-.749-3.526Z" fill="#7e7e7e"/>
            <path id="Trazado_130929" data-name="Trazado 130929" d="M36.408,154.987s-3.828-.567-4.561,1.968,2.987,7.536,4.412,9.2,1.375-3.5.219-5.479-.662-3.114-.662-3.114Z" fill="#7e7e7e"/>
            <path id="Trazado_130930" data-name="Trazado 130930" d="M40.882,146.25s-4.334-.643-5.164,2.228,3.382,8.53,5,10.416,1.557-3.959.248-6.2-.749-3.526-.749-3.526Z" fill="#7e7e7e"/>
          </g>
        </g>
      </g>
    </g>
  </g>
</svg>
