<svg xmlns="http://www.w3.org/2000/svg" xmlns:xlink="http://www.w3.org/1999/xlink" width="260" height="234" viewBox="0 0 260 234">
  <defs>
    <clipPath id="clip-path">
      <rect id="Rectángulo_37561" data-name="Rectángulo 37561" width="260" height="234" transform="translate(1143 7361)" fill="#fff" stroke="#707070" stroke-width="1"/>
    </clipPath>
    <clipPath id="clip-path-2">
      <rect id="Rectángulo_37569" data-name="Rectángulo 37569" width="257.72" height="182.186" fill="none"/>
    </clipPath>
    <clipPath id="clip-path-4">
      <rect id="Rectángulo_37566" data-name="Rectángulo 37566" width="4.62" height="2.962" fill="none"/>
    </clipPath>
    <clipPath id="clip-path-5">
      <rect id="Rectángulo_37567" data-name="Rectángulo 37567" width="4.281" height="2.801" fill="none"/>
    </clipPath>
  </defs>
  <g id="Enmascarar_grupo_185" data-name="Enmascarar grupo 185" transform="translate(-1143 -7361)" clip-path="url(#clip-path)">
    <g id="Grupo_158038" data-name="Grupo 158038" transform="translate(1145 7413)">
      <g id="Grupo_158037" data-name="Grupo 158037" clip-path="url(#clip-path-2)">
        <g id="Grupo_158036" data-name="Grupo 158036">
          <g id="Grupo_158035" data-name="Grupo 158035" clip-path="url(#clip-path-2)">
            <path id="Trazado_131635" data-name="Trazado 131635" d="M175.265,193.569h53.394a2.389,2.389,0,0,0,.6-.883c4.9-13.87.8-28.517.8-28.517-22.369,7.683-41.6,6.891-58.936,1.3,0,0-1.121,18.826,1.732,26.018a4.648,4.648,0,0,0,2.412,2.077" transform="translate(-11.849 -11.383)" fill="#212121"/>
            <path id="Trazado_131636" data-name="Trazado 131636" d="M205.864,166.975c.02.345.041.7.062,1.06.418,7.3.969,17.633.877,20.1a1.445,1.445,0,0,1-.6,1.236,4.42,4.42,0,0,1-2.7.452c-.445-.032-.892-.09-1.311-.163a15.03,15.03,0,0,1-1.86-.442.646.646,0,1,0-.393,1.231,16.53,16.53,0,0,0,2.366.544,12.791,12.791,0,0,0,1.311.136,8.94,8.94,0,0,0,1.234-.022,4.326,4.326,0,0,0,2.092-.678,2.745,2.745,0,0,0,1.152-2.246c.1-2.542-.454-12.893-.877-20.209-.021-.386-.043-.76-.064-1.13Z" transform="translate(-13.831 -11.568)" fill="#484848"/>
            <path id="Trazado_131637" data-name="Trazado 131637" d="M239.467,182s4.906.256,6.344-2.009,1.7-8.1-5.663-8.276S239.467,182,239.467,182" transform="translate(-16.411 -11.906)" fill="#282828"/>
            <path id="Trazado_131638" data-name="Trazado 131638" d="M190.14,82.273A38.232,38.232,0,0,1,175.5,85.648c-8.189.174-6.621,4.971-6.621,4.971s9.671,43.9,10.568,55.486-4.122,20.144-3.6,20.438,59.934-1.8,64.115,1.514.047,6.921-4.7,7.27c0,0,7.666,1.081,8.363-3.966s-5.207-8.814-8.87-17.591-13.431-52.094-13.431-52.094-5.4-23.695-10.279-24.74-14.287,7.014-20.907,5.336" transform="translate(-11.701 -5.328)" fill="#696969"/>
            <path id="Trazado_131639" data-name="Trazado 131639" d="M182.349,90.164a5.27,5.27,0,0,0,6.2,6.168c2.407-.42,4.744-1.8,6.876-2.925a73.517,73.517,0,0,0,7.042-4.269c.411-.281.022-.956-.393-.672a72.416,72.416,0,0,1-10.416,5.944c-1.892.877-4.278,1.89-6.288.771a4.579,4.579,0,0,1-2.268-4.81c.095-.49-.655-.7-.75-.207" transform="translate(-12.636 -6.129)" fill="#373737"/>
            <path id="Trazado_131640" data-name="Trazado 131640" d="M176.224,166.981c11.818-7.422,26.316-.023,39.089-2.081.493-.08.284-.83-.207-.751-12.9,2.079-27.307-5.357-39.275,2.16-.423.265-.034.939.393.672" transform="translate(-12.178 -11.292)" fill="#373737"/>
            <path id="Trazado_131641" data-name="Trazado 131641" d="M220.764,108.971c6.709,15.416,4.483,33.108,11.489,48.444a35.137,35.137,0,0,0,6.984,10.262.389.389,0,0,0,.551-.55c-11.738-11.793-11.443-29.679-14.338-44.944a63.575,63.575,0,0,0-4.014-13.6c-.2-.458-.87-.062-.672.393" transform="translate(-15.304 -7.514)" fill="#373737"/>
            <path id="Trazado_131642" data-name="Trazado 131642" d="M182.74,36.768s-3.968,4.117-4.6,7.564a14.042,14.042,0,0,0,.652,6.767s7.923-9.322,3.95-14.33" transform="translate(-12.339 -2.549)" fill="#282828"/>
            <path id="Trazado_131643" data-name="Trazado 131643" d="M181.747,38.967a9.579,9.579,0,0,1-3.766-8.5c.329-5.849,11.634.173,11.634.173s-1.562-5.015,4.423-4.854,16.924,6.4,18.2,9.49c0,0,3.414-.034,4.747,1.054s-2.831,2.277-2.831,2.277,3.251.55,3.522,2.378-3.1.312-3.1.312a11.567,11.567,0,0,1,1.178,8.647,40.2,40.2,0,0,1-4.736,10.933s2.254,3.905-2.028,5.45-7.536-2-7.536-2,3.429-20.5-1.091-24.332-18.624-1.033-18.624-1.033" transform="translate(-12.339 -1.788)" fill="#282828"/>
            <path id="Trazado_131644" data-name="Trazado 131644" d="M205.114,80.416c-21.7,17.771-19.452,4.181-19.452,4.181a31.149,31.149,0,0,0,1.056-7.647c.13-3.154.033-6.288-.058-8.2-.055-1.145-.107-1.847-.107-1.847L202.837,61.7l.611,5.039.066.526Z" transform="translate(-12.868 -4.278)" fill="#a7a7a7"/>
            <path id="Trazado_131645" data-name="Trazado 131645" d="M201.1,65.525a7.3,7.3,0,0,1,.827,1.524c.479,1.787-6.692,8-12.51,9.67a11.507,11.507,0,0,1-2.619.455c.13-3.155.034-6.289-.058-8.2l13.912-4.056Z" transform="translate(-12.947 -4.501)" fill="#282828"/>
            <path id="Trazado_131646" data-name="Trazado 131646" d="M206.96,61.26c-2.771,3.757-11.084,8.3-16.991,8.917s-9.835.553-12.388-6.119a17.579,17.579,0,0,1-.592-8.512c.181-.876.379-1.765.592-2.659.808-3.4,1.8-6.861,2.664-9.7,3.9-12.748,19.967-17.143,29.539-7.863a16.5,16.5,0,0,1,2.234,2.661c5.948,8.89-2.288,19.522-5.058,23.279" transform="translate(-12.252 -2.105)" fill="#a7a7a7"/>
            <path id="Trazado_131647" data-name="Trazado 131647" d="M185.206,52.636l-1.226,1.254A5.578,5.578,0,0,0,182.95,55c-.467.893,1.094,1.649,1.637,2.066.385.3.762-.36.381-.652-.306-.235-.653-.455-.936-.719a.9.9,0,0,1-.344-.425l.2-.206a2.556,2.556,0,0,1,.415-.424l1.439-1.471c.34-.348-.194-.882-.534-.534" transform="translate(-12.679 -3.642)" fill="#282828"/>
            <path id="Trazado_131648" data-name="Trazado 131648" d="M191.421,53.828a.947.947,0,1,1-.462-1.443,1.095,1.095,0,0,1,.462,1.443" transform="translate(-13.147 -3.629)" fill="#282828"/>
            <path id="Trazado_131649" data-name="Trazado 131649" d="M183.021,51.333a.947.947,0,1,1-.461-1.443,1.095,1.095,0,0,1,.461,1.443" transform="translate(-12.564 -3.456)" fill="#282828"/>
            <path id="Trazado_131650" data-name="Trazado 131650" d="M180.124,59.118s2.879,1.6,8.819,2.06c0,0-2.2,4.908-6.3,3.457-3.479-1.23-2.517-5.518-2.517-5.518" transform="translate(-12.48 -4.099)" fill="#fff"/>
            <path id="Trazado_131651" data-name="Trazado 131651" d="M180.875,66.976a2.832,2.832,0,0,0,2.957.493c.523-.248.113-1.047-.409-.8a1.981,1.981,0,0,1-2.055-.444c-.467-.342-.957.41-.492.75" transform="translate(-12.528 -4.586)" fill="#767676"/>
            <path id="Trazado_131652" data-name="Trazado 131652" d="M195.494,59.256c-.23.715-1.527.936-2.9.5s-2.3-1.378-2.066-2.093,1.528-.935,2.9-.494,2.3,1.377,2.066,2.092" transform="translate(-13.208 -3.948)" fill="#767676"/>
            <path id="Trazado_131653" data-name="Trazado 131653" d="M180.134,55.619c-.228.715-1.525.934-2.9.494.181-.875.379-1.765.592-2.659.082.023.161.046.24.071,1.373.444,2.3,1.379,2.066,2.094" transform="translate(-12.289 -3.706)" fill="#767676"/>
            <path id="Trazado_131654" data-name="Trazado 131654" d="M192.016,49.367a2.1,2.1,0,0,1,2.4,1.747c.067,1.141,1.862,1.232,1.794.075a3.853,3.853,0,0,0-4.117-3.617c-1.143.061-1.233,1.857-.076,1.794" transform="translate(-13.256 -3.298)" fill="#282828"/>
            <path id="Trazado_131655" data-name="Trazado 131655" d="M181.15,47.2c.908-.43,2.112-1.1,3.024-.352.818.673,1.9-.567,1.082-1.241-1.453-1.2-3.118-.687-4.651.039-.949.45-.413,2.007.544,1.553" transform="translate(-12.488 -3.113)" fill="#282828"/>
            <path id="Trazado_131656" data-name="Trazado 131656" d="M182.689,38.67a5.973,5.973,0,0,0,7.319,2.774c5.145-1.6,5.522-.663,8.907.832s-2.02.894,1.546,4.516-1.107,1.314-2.061,5,1.326,3.029,4.525,3.381,3.763,4.268,1.835,7.779-.818,1.442-.818,1.442A20.278,20.278,0,0,0,214.9,50.813c1.384-5.873,1.219-12.973-5.094-17.7-12.5-9.351-25.712.27-27.118,5.553" transform="translate(-12.667 -2.024)" fill="#282828"/>
            <path id="Trazado_131657" data-name="Trazado 131657" d="M201.746,58.652a6.054,6.054,0,0,1,1.68-5.013c1.656-1.737,4.6-4.336,6.836-3.6,3.282,1.081,3.135,4.15,2.248,7.139s-3.621,6.618-7.707,5.207a4.386,4.386,0,0,1-3.056-3.734" transform="translate(-13.984 -3.461)" fill="#a7a7a7"/>
            <path id="Trazado_131658" data-name="Trazado 131658" d="M206.577,59.081a7.72,7.72,0,0,1,.819-3.729c.586-1.009,2.034-2.376,3.34-1.706.437.224.863-.419.422-.645a3.131,3.131,0,0,0-3.6.88,7.3,7.3,0,0,0-1.753,5.168.386.386,0,0,0,.771.032" transform="translate(-14.269 -3.656)" fill="#282828"/>
            <path id="Trazado_131659" data-name="Trazado 131659" d="M227.559,86.936s2.156,10.519,5.553,10.78,4.116-6.925,3.528-10.78Z" transform="translate(-15.778 -6.028)" fill="#282828"/>
            <path id="Trazado_131660" data-name="Trazado 131660" d="M220.676,72.032s14.711-7.838,20.155-14.156l15.282-36.907,6.272.871s-3.135,38.729-13.764,51.129c-7.5,8.756-23.577,14.737-23.577,14.737Z" transform="translate(-15.3 -1.454)" fill="#a7a7a7"/>
            <path id="Trazado_131661" data-name="Trazado 131661" d="M242.338,61.483a23.387,23.387,0,0,1,3.944,3.031c.272.26.685-.153.413-.412a24.115,24.115,0,0,0-4.062-3.122c-.322-.2-.615.307-.3.5" transform="translate(-16.793 -4.225)" fill="#767676"/>
            <path id="Trazado_131662" data-name="Trazado 131662" d="M274.978,14.487c.216,2.541-1.989,2.962-5.122,5.444-2.059,1.63-4.8,5.539-7.367,4.1a21.543,21.543,0,0,1-4.211-3.056,6.225,6.225,0,0,1-1.378-5.521s.98-4.7,2.143-5.386,2.813.661,2.813.661c1.12-.457,6.232-10.275,7.84-10.705,0,0,1.835-.406,1.139,2.023A44.445,44.445,0,0,1,267.4,9.1s5.66-7.39,7.394-7.336c.5.016.839.5.683,1.237-.226,1.062-1.332,2.117-1.986,2.983a52.1,52.1,0,0,0-3.17,4.638,3.432,3.432,0,0,1,2.505.191c1.039.651.141,2.071.141,2.071s1.874.033,2.007,1.6" transform="translate(-17.799 0)" fill="#a7a7a7"/>
            <path id="Trazado_131663" data-name="Trazado 131663" d="M258.21,22.779a8.051,8.051,0,0,0,4.128,3.2c.356.123.508-.441.155-.563a7.407,7.407,0,0,1-3.779-2.932c-.206-.313-.712-.02-.5.294" transform="translate(-17.899 -1.55)" fill="#767676"/>
            <path id="Trazado_131664" data-name="Trazado 131664" d="M262.979,17.228a3.957,3.957,0,0,0,.517.089,1.56,1.56,0,0,0,1.179-.278,1.187,1.187,0,0,0,.407-.86,2.668,2.668,0,0,0-.228-1.227,3.669,3.669,0,0,0-.249-.513,9.458,9.458,0,0,0-2.222-2.467.247.247,0,0,0-.342.047.244.244,0,0,0,.047.342,9.1,9.1,0,0,1,2.091,2.318,3.155,3.155,0,0,1,.221.452,2.219,2.219,0,0,1,.2,1.011.721.721,0,0,1-.233.521,1.1,1.1,0,0,1-.817.168,3.462,3.462,0,0,1-.451-.078,8.858,8.858,0,0,1-4.174-3.053.244.244,0,1,0-.383.3,9.219,9.219,0,0,0,4.44,3.225h0" transform="translate(-17.922 -0.827)" fill="#767676"/>
            <path id="Trazado_131665" data-name="Trazado 131665" d="M270.28,19.651a4,4,0,0,0,2.323-.512.244.244,0,1,0-.231-.43c-.467.25-1.794.791-2.315.294-.741-.705.84-2.757,1.454-3.419a.244.244,0,0,0-.318-.367c-.6.413-2.3,1.35-3.023.734a.486.486,0,0,1-.174-.4c0-1.046,2-3,2.773-3.664a.244.244,0,1,0-.319-.369c-.3.26-2.946,2.576-2.943,4.034a.979.979,0,0,0,.345.767c.655.558,1.7.279,2.5-.08-.686.957-1.428,2.353-.628,3.114a1.2,1.2,0,0,0,.56.294" transform="translate(-18.547 -0.795)" fill="#767676"/>
            <path id="Trazado_131666" data-name="Trazado 131666" d="M268.629,11.149a.24.24,0,0,0,.166-.02.244.244,0,0,0,.108-.328,4.2,4.2,0,0,0-2.28-1.835.244.244,0,1,0-.168.458,3.79,3.79,0,0,1,2.013,1.6.242.242,0,0,0,.162.128" transform="translate(-18.463 -0.621)" fill="#767676"/>
            <path id="Trazado_131667" data-name="Trazado 131667" d="M267.313,11.9a11.51,11.51,0,0,0-2.48,2.658,3.389,3.389,0,0,1,.236.487A11.582,11.582,0,0,1,267.6,12.3a.249.249,0,1,0-.286-.408" transform="translate(-18.362 -0.822)" fill="#767676"/>
            <path id="Trazado_131668" data-name="Trazado 131668" d="M262.258,22.4a.241.241,0,0,0,.186.235l.057.013a.251.251,0,0,0,.238-.245,12.4,12.4,0,0,1,1.042-4.952,3.868,3.868,0,0,1-.482-.084,12.993,12.993,0,0,0-1.041,5.033" transform="translate(-18.183 -1.204)" fill="#767676"/>
            <path id="Trazado_131669" data-name="Trazado 131669" d="M208.2,77.648l16.917-5.893s1.269,21.38,5.973,23.994,4.313-9,4.313-9,1.583,7.293-2.541,10.433-9.089,7.19-9.089,7.19-18.862,5.483-15.573-26.725" transform="translate(-14.409 -4.975)" fill="#696969"/>
            <path id="Trazado_131670" data-name="Trazado 131670" d="M224.4,105.98a51.414,51.414,0,0,1-12.027,5.51c-.48.15-.275.906.208.757a52.261,52.261,0,0,0,12.214-5.591c.427-.266.034-.945-.4-.677" transform="translate(-14.706 -7.344)" fill="#373737"/>
            <path id="Trazado_131671" data-name="Trazado 131671" d="M101.21,65.746s-9.2-3-15,1.094-8.027,15.138-8.027,15.138l18.007-.346Z" transform="translate(-5.421 -4.485)" fill="#484848"/>
            <path id="Trazado_131672" data-name="Trazado 131672" d="M86.994,96.1s-14.88-11.225-18.7,2.257c-4.117,14.525,3.867,23.248,3.867,23.248l9.817-9.619Z" transform="translate(-4.653 -6.359)" fill="#484848"/>
            <path id="Trazado_131673" data-name="Trazado 131673" d="M117.524,63.4S95.892,51.809,78.648,79.965s-6.83,61.956,8.375,70.487,32.62-2.215,32.62-2.215Z" transform="translate(-4.833 -4.232)" fill="#292929"/>
            <path id="Trazado_131674" data-name="Trazado 131674" d="M136.308,193.539c-.148-2.238-.269-4.338-.365-6.234l32.368-23.569s1.825,13.542,3.08,29.8Z" transform="translate(-9.425 -11.352)" fill="#292929"/>
            <path id="Trazado_131675" data-name="Trazado 131675" d="M102.442,194.175c.26-12.055.662-21.267.662-21.267L138.793,187.9c-.078,1.979-.18,4.084-.309,6.272Z" transform="translate(-7.103 -11.988)" fill="#292929"/>
            <path id="Trazado_131676" data-name="Trazado 131676" d="M149.851,85.2c.016.05.029.1.045.147l.038.123.785,2.466.782,2.5,1.535,5.014q1.52,5.02,2.959,10.05.547,1.926,1.083,3.852.607,2.2,1.195,4.389.24.9.477,1.807c.873,3.342,1.7,6.68,2.42,9.967.354,1.637.7,3.274.969,4.85.077.4.131.78.2,1.17l.092.574.074.529.075.527c.023.178.039.361.061.541.036.361.085.717.108,1.089a58.27,58.27,0,0,1-.025,9.23,90.325,90.325,0,0,1-1.267,9.623c-.3,1.61-.632,3.22-1,4.817-.187.8-.378,1.593-.581,2.377L159.564,162l-.294,1.04-.087.311a8.351,8.351,0,0,0,15.99,4.818l.252-.788.221-.71.413-1.394c.266-.923.516-1.842.757-2.763q.722-2.76,1.317-5.55a108.323,108.323,0,0,0,1.82-11.382c.2-1.94.342-3.9.409-5.9s.061-4.02-.058-6.088c-.021-.514-.07-1.037-.11-1.556-.021-.262-.039-.521-.066-.784l-.087-.79-.089-.789c-.031-.257-.067-.49-.1-.738-.069-.485-.133-.983-.212-1.454-.291-1.919-.635-3.758-.992-5.588-.718-3.65-1.52-7.2-2.361-10.732q-.3-1.259-.609-2.512c-.2-.805-.4-1.61-.6-2.413q-.7-2.795-1.431-5.573-1.369-5.215-2.819-10.392L169.359,85.1l-.749-2.587-.769-2.612a9.377,9.377,0,0,0-17.99,5.3" transform="translate(-10.363 -5.073)" fill="#b0b0b0"/>
            <path id="Trazado_131677" data-name="Trazado 131677" d="M157.643,111.812q.609,2.2,1.195,4.389l17.405-5.086c-.2-.805-.4-1.61-.6-2.413Z" transform="translate(-10.93 -7.537)" fill="#888"/>
            <path id="Trazado_131678" data-name="Trazado 131678" d="M149.328,86.328l6.02,25.417,22.348-4.984s-5.013-26.794-11.752-31.823c-3.731-2.785-7.041-3.389-10.908-1.381a11.406,11.406,0,0,0-5.709,12.771" transform="translate(-10.332 -5.018)" fill="#545454"/>
            <path id="Trazado_131679" data-name="Trazado 131679" d="M156.759,193.289H106.421c-5.6-13.553-3.14-28.023-3.14-28.023,24.412,5.625,44.584,2.668,62.234-5.13,0,0,3.257,19.711,1.046,27.6-.556,1.984-4.362,3.9-9.8,5.551" transform="translate(-7.124 -11.103)" fill="#292929"/>
            <path id="Trazado_131680" data-name="Trazado 131680" d="M138.65,193.662q-.018-1.476-.041-2.956c-.007-.463-.015-.925-.025-1.389-.16-8.595-.472-17.04-.726-23-.012-.273-.023-.54-.034-.8H139.2q.014.328.028.665c.25,5.913.562,14.283.724,22.826.011.472.019.946.029,1.416q.027,1.624.045,3.243Z" transform="translate(-9.556 -11.476)" fill="#484848"/>
            <path id="Trazado_131681" data-name="Trazado 131681" d="M133.16,165.511c.017.366.034.739.051,1.123.366,7.736.925,18.684,1.295,21.269a1.529,1.529,0,0,0,.772,1.236,4.675,4.675,0,0,0,2.89.178A13.748,13.748,0,0,0,139.53,189a16.072,16.072,0,0,0,1.911-.671.684.684,0,0,1,.55,1.254,17.493,17.493,0,0,1-2.433.834,13.655,13.655,0,0,1-1.366.288,9.47,9.47,0,0,1-1.3.113,4.6,4.6,0,0,1-2.279-.483,2.91,2.91,0,0,1-1.461-2.24c-.381-2.666-.944-13.632-1.307-21.387-.02-.409-.039-.806-.057-1.2Z" transform="translate(-9.137 -11.476)" fill="#484848"/>
            <path id="Trazado_131682" data-name="Trazado 131682" d="M98.729,111.122c.14,1.176.259,2.628.369,4.305q.056.864.112,1.8c.307,5.219.573,12.084,1.067,19.2.044.637.092,1.282.143,1.923,1.148,15.328-3.377,20.666,3.106,22.141,39.378,8.96,55.46-.024,60.252-3.775,5.293-4.141,1.725-20.735-.225-40.3-.064-.662-.126-1.312-.191-1.95-.521-5.324-.91-9.695-.92-12.248-.041-11.869-1.6-24.521-3.371-29.944s-21.559-9.727-21.559-9.727l-21.934.93a77.342,77.342,0,0,0-14.754,12.228c-7.85,8.17-3.567,22.952-2.095,35.414" transform="translate(-6.672 -4.337)" fill="#545454"/>
            <path id="Trazado_131683" data-name="Trazado 131683" d="M142.9,96.269l9.266,16.3-8.5.6,7.205,11.867-21.673-16.63,10.692-1.761L129.582,97.3Z" transform="translate(-8.958 -6.675)" fill="#343434"/>
            <path id="Trazado_131684" data-name="Trazado 131684" d="M145.807,63.836s3.831,24.309,6.127,34.873A71.112,71.112,0,0,0,162.2,122.9a75.08,75.08,0,0,0,6.459,8.074c.56.059,2.078-6.426-1.752-15.382-7.057-16.5-12.517-46.037-14.72-49.755s-6.376-2-6.376-2" transform="translate(-10.109 -4.399)" fill="#292929"/>
            <path id="Trazado_131685" data-name="Trazado 131685" d="M157.295,85.271a21.123,21.123,0,0,0-7.065-.114,2.164,2.164,0,0,0-1.748,2.458,91.58,91.58,0,0,0,2.566,12.216,2.164,2.164,0,0,0,2.448,1.457l5.909-1.079a2.163,2.163,0,0,0,1.687-2.744,47.571,47.571,0,0,1-2.007-10.178,2.158,2.158,0,0,0-1.791-2.017" transform="translate(-10.293 -5.887)" fill="#484848"/>
            <path id="Trazado_131686" data-name="Trazado 131686" d="M120.354,79.176a27.748,27.748,0,0,0,15.023-4.451,28.722,28.722,0,0,0,7.388-6.667.651.651,0,0,0-1.058-.759c-.1.136-9.951,13.53-27.091,9.974a.651.651,0,0,0-.265,1.275,29.512,29.512,0,0,0,6,.629" transform="translate(-7.892 -4.647)" fill="#343434"/>
            <path id="Trazado_131687" data-name="Trazado 131687" d="M105.125,70.723a31.8,31.8,0,0,1,13,20.269c2.561,13.825-7,32.856-17.913,38.274a14.018,14.018,0,0,0,.479,10.065s23.559-7.175,25.714-37.067-14.63-34.671-14.63-34.671c-2.12-.611-5.434,1.382-6.647,3.13" transform="translate(-6.899 -4.679)" fill="#292929"/>
            <path id="Trazado_131688" data-name="Trazado 131688" d="M119.571,87.916a19.929,19.929,0,0,1,6.448-1.7,2.042,2.042,0,0,1,2.158,1.856,86.374,86.374,0,0,1,.416,11.775,2.042,2.042,0,0,1-1.912,1.89l-5.659.351a2.043,2.043,0,0,1-2.168-2.132,44.913,44.913,0,0,0-.467-9.78,2.036,2.036,0,0,1,1.184-2.254" transform="translate(-8.206 -5.977)" fill="#484848"/>
            <path id="Trazado_131689" data-name="Trazado 131689" d="M167.525,110.237h.02a.452.452,0,0,0,.431-.471c-.007-.159-.725-16.048-2.574-25.449a.451.451,0,1,0-.885.174c1.836,9.335,2.55,25.156,2.557,25.314a.451.451,0,0,0,.45.432" transform="translate(-11.406 -5.821)" fill="#343434"/>
            <path id="Trazado_131690" data-name="Trazado 131690" d="M166.055,90.606a.451.451,0,0,0,.429-.311l1.136-3.46a.451.451,0,1,0-.858-.281l-1.136,3.46a.452.452,0,0,0,.288.57.462.462,0,0,0,.141.022" transform="translate(-11.482 -5.98)" fill="#343434"/>
            <path id="Trazado_131691" data-name="Trazado 131691" d="M121.342,161.791c8.553.536,17.444-2.785,26.076-9.809a73.278,73.278,0,0,0,13.424-14.527.624.624,0,1,0-1.042-.687,72.074,72.074,0,0,1-13.194,14.264c-7.385,6-18.872,12.316-31.664,8.306a.625.625,0,1,0-.373,1.192,28.588,28.588,0,0,0,6.773,1.26" transform="translate(-7.913 -9.463)" fill="#343434"/>
            <path id="Trazado_131692" data-name="Trazado 131692" d="M130.6,153.319a.623.623,0,0,0,.138-.007c10.467-1.67,19.419-14.358,19.8-14.9a.624.624,0,0,0-1.025-.714c-.089.128-9.027,12.793-18.967,14.379a.624.624,0,0,0,.059,1.24" transform="translate(-9.014 -9.529)" fill="#343434"/>
            <path id="Trazado_131693" data-name="Trazado 131693" d="M140.1,23.742s-1.173-5.97.357-10.924c1.506-4.875,1.506-7.789.567-8.652-2.956-2.724-5.736,3.9-5.736,3.9s.78-6.158-1.778-6.331-4.346,5.794-4.346,5.794S129.646-1.211,126.3.7s-4.583,7.738-4.583,7.738-11.5,1.915-15.729,9.63c0,0-3.461-3.687-5.714-1.512s2.427,5.774,2.427,5.774-3.6,2.366-3.04,5.764,4.826,1.069,4.826,1.069-.719,18.182,14.725,23.179,20.9-28.6,20.9-28.6" transform="translate(-6.906 -0.029)" fill="#757575"/>
            <path id="Trazado_131694" data-name="Trazado 131694" d="M136.827,56.864l.741,5.5a16.344,16.344,0,0,1-1.643,1.61c-8.184,6.944-18.8,1.139-18.8,1.139l-2.567-19.081,19.615,9.537Z" transform="translate(-7.943 -3.192)" fill="#b0b0b0"/>
            <path id="Trazado_131695" data-name="Trazado 131695" d="M137.319,57.457l.741,5.5a16.344,16.344,0,0,1-1.643,1.61c-8.059-2.2-14.758-9.986-14.758-9.986l13,1.581Z" transform="translate(-8.435 -3.785)" fill="#292929"/>
            <path id="Trazado_131696" data-name="Trazado 131696" d="M141.986,34.654s2.463-3.855,4.585-.616,1.79,10.414-2.823,9.868Z" transform="translate(-9.844 -2.27)" fill="#888"/>
            <path id="Trazado_131697" data-name="Trazado 131697" d="M144.174,42.75s1.2,10.782-9.9,12.249a29.3,29.3,0,0,1-19.5-4.289l-.013-.008-.422-2.225-2.192-11.549-1.172-6.172s-2.914-11.006,7.451-14.479c7.573-2.538,15.036-2.227,19.26,1.334.137.114.27.234.4.356a9.649,9.649,0,0,1,2.795,4.933l1.846,11.121.452,2.726Z" transform="translate(-7.668 -1.013)" fill="#b0b0b0"/>
            <path id="Trazado_131698" data-name="Trazado 131698" d="M129.082,42.262s1.6,4.628,5.448,5.261c4.381.72,5.18-4.758,5.18-4.758Z" transform="translate(-8.95 -2.93)" fill="#ededed"/>
            <path id="Trazado_131699" data-name="Trazado 131699" d="M136.481,49.572a2.326,2.326,0,0,0,.256-.093.356.356,0,0,0-.293-.65,2.282,2.282,0,0,1-2.248-.285.356.356,0,1,0-.445.557,2.94,2.94,0,0,0,2.731.471" transform="translate(-9.264 -3.36)" fill="#888"/>
            <path id="Trazado_131700" data-name="Trazado 131700" d="M128.848,34.213c.143,1.067-.224,2-.821,2.076s-1.2-.719-1.34-1.786.224-2,.821-2.076,1.2.719,1.34,1.786" transform="translate(-8.782 -2.248)" fill="#292929"/>
            <path id="Trazado_131701" data-name="Trazado 131701" d="M140.184,32.688c.143,1.067-.224,2-.821,2.076s-1.2-.719-1.34-1.786.224-2,.821-2.075,1.2.718,1.34,1.785" transform="translate(-9.568 -2.142)" fill="#292929"/>
            <path id="Trazado_131702" data-name="Trazado 131702" d="M135.146,38.743a3.783,3.783,0,0,0,3.259-2.366.444.444,0,0,0-.054-.376c-2.277-3.434-4.591-6.967-4.613-7a.443.443,0,0,0-.741.485c.022.035,2.25,3.436,4.486,6.809a3.036,3.036,0,0,1-2.455,1.573.443.443,0,1,0,.118.878" transform="translate(-9.216 -1.997)" fill="#292929"/>
            <path id="Trazado_131703" data-name="Trazado 131703" d="M122.447,20.186a2.6,2.6,0,0,0-2.18,2.436,4.2,4.2,0,0,1-1.765,3.071c-3.121,2.625-2.109,5.522-1,7.887s-3.217,7.6-7.067,1.862-2.8-19.048,6.214-20.888,21.439-.5,23,3.477a20.751,20.751,0,0,1,1.411,7.589,4.9,4.9,0,0,1-1.872-3.658c-.231-2.6-2.159-3.379-5.222-3.379a107,107,0,0,0-11.523,1.6" transform="translate(-7.511 -0.953)" fill="#757575"/>
            <g id="Grupo_158031" data-name="Grupo 158031" transform="translate(130.889 33.008)" opacity="0.8">
              <g id="Grupo_158030" data-name="Grupo 158030">
                <g id="Grupo_158029" data-name="Grupo 158029" clip-path="url(#clip-path-4)">
                  <path id="Trazado_131704" data-name="Trazado 131704" d="M145.26,38.193c-.272.064-.559.117-.855.157-1.97.265-3.655-.15-3.759-.926s1.41-1.622,3.381-1.887q.4-.053.781-.07Z" transform="translate(-140.64 -35.467)" fill="#888"/>
                </g>
              </g>
            </g>
            <path id="Trazado_131705" data-name="Trazado 131705" d="M129.238,38.957c.1.776-1.41,1.621-3.383,1.886s-3.656-.149-3.761-.925,1.41-1.621,3.383-1.886,3.657.149,3.761.925" transform="translate(-8.465 -2.631)" fill="#888"/>
            <path id="Trazado_131706" data-name="Trazado 131706" d="M121.949,29.148h0a2.53,2.53,0,0,0,3.447.833,14.158,14.158,0,0,1,2.4-1.162,2.326,2.326,0,0,0,1.359-3.094s-5.228.221-7.207,3.423" transform="translate(-8.455 -1.784)" fill="#757575"/>
            <path id="Trazado_131707" data-name="Trazado 131707" d="M142.915,26.38h0a2.531,2.531,0,0,1-3.106,1.714,14.113,14.113,0,0,0-2.622-.487,2.325,2.325,0,0,1-2.128-2.624s5.1-1.168,7.855,1.4" transform="translate(-9.363 -1.714)" fill="#757575"/>
            <path id="Trazado_131708" data-name="Trazado 131708" d="M117.942,48.249c-.034.125-1,3.569-2.891,4.794l-.012-.009-.422-2.225a7.723,7.723,0,0,0,3.324-2.559" transform="translate(-7.947 -3.345)" fill="#292929"/>
            <path id="Trazado_131709" data-name="Trazado 131709" d="M114.428,40.4s-5.034-5.154-7.552-.233c-2.075,4.054,4.091,13.065,8.741,9.068Z" transform="translate(-7.381 -2.637)" fill="#b0b0b0"/>
            <path id="Trazado_131710" data-name="Trazado 131710" d="M114.984,47.811l.048-.008a.444.444,0,0,0,.323-.537,8.285,8.285,0,0,0-5.7-5.98.443.443,0,0,0-.216.859,7.392,7.392,0,0,1,5.054,5.335.442.442,0,0,0,.488.332" transform="translate(-7.565 -2.862)" fill="#292929"/>
            <path id="Trazado_131711" data-name="Trazado 131711" d="M110.6,45.867a.438.438,0,0,0,.263-.135c.34-.361,1.394-1.276,2.177-1.184a.443.443,0,0,0,.1-.879c-1.363-.16-2.77,1.291-2.925,1.456a.443.443,0,0,0,.382.742" transform="translate(-7.634 -3.027)" fill="#292929"/>
            <path id="Trazado_131712" data-name="Trazado 131712" d="M83.456,135.966l.009.415c.008.557.037,1.1.07,1.651.07,1.093.187,2.165.338,3.218a49.342,49.342,0,0,0,3.284,11.73,66.315,66.315,0,0,0,5.3,10.143c.995,1.587,2.066,3.112,3.173,4.611q.84,1.118,1.726,2.212c.3.368.6.729.913,1.1l.479.554.552.625a7.044,7.044,0,1,0,11.058-8.729c.009,0-.01-.027-.027-.06l-.059-.1-.129-.221-.268-.465-.546-.973c-.367-.654-.724-1.324-1.072-2-.706-1.346-1.355-2.722-1.973-4.1a58.784,58.784,0,0,1-3.012-8.284,38.443,38.443,0,0,1-.908-4.053q-.159-1-.272-1.967c-.07-.645-.116-1.282-.139-1.9s-.027-1.236,0-1.829c.015-.3.031-.591.058-.879l.081-1.024c.12-1.444.284-2.948.5-4.489s.454-3.1.72-4.673.544-3.161.844-4.75q.466-2.428.963-4.869.3-1.49.62-2.984c.122-.579.246-1.161.372-1.741l1.063-4.817,1.1-4.822,1.13-4.817,1.139-4.748.036-.151a10.291,10.291,0,1,0-20.015-4.8l0,.01-.614,2.568c-.2.844-.384,1.685-.573,2.528C89,94.763,88.65,96.449,88.3,98.137s-.68,3.378-1,5.076-.638,3.394-.923,5.1q-.165.959-.324,1.924-.334,2.013-.641,4.041-.328,2.172-.616,4.362c-.226,1.741-.444,3.489-.631,5.259s-.342,3.557-.467,5.376-.211,3.674-.236,5.6l-.007.726Z" transform="translate(-5.786 -5.552)" fill="#b0b0b0"/>
            <path id="Trazado_131713" data-name="Trazado 131713" d="M85.562,116.527l19.7,2.576q.3-1.49.62-2.984L86.2,112.486q-.334,2.013-.641,4.041" transform="translate(-5.932 -7.799)" fill="#888"/>
            <path id="Trazado_131714" data-name="Trazado 131714" d="M112.1,90.466l-6.211,25.371-22.309-5.151s5.213-26.756,11.99-31.735c3.751-2.756,7.066-3.336,10.918-1.3A11.4,11.4,0,0,1,112.1,90.466" transform="translate(-5.795 -5.3)" fill="#545454"/>
            <path id="Trazado_131715" data-name="Trazado 131715" d="M107.236,115.975a.45.45,0,0,0,.438-.347l4.575-19.264a.451.451,0,1,0-.878-.209L106.8,115.419a.452.452,0,0,0,.335.544.443.443,0,0,0,.1.012" transform="translate(-7.404 -6.643)" fill="#343434"/>
            <path id="Trazado_131716" data-name="Trazado 131716" d="M110.951,101.625a.447.447,0,0,0,.255-.079l2.8-1.915a.451.451,0,0,0-.51-.745l-2.8,1.915a.451.451,0,0,0,.255.824" transform="translate(-7.661 -6.851)" fill="#343434"/>
            <path id="Trazado_131717" data-name="Trazado 131717" d="M105.358,192.592a144.263,144.263,0,0,0,10.945-9.815l-.022-.045.042.024a49.671,49.671,0,0,0,3.608-4.177c-.313-.591-.593-1.1-.819-1.493a20.636,20.636,0,0,0-5.443-5.6c-1.459-.974-2.8-2.853-4.127-2.937-4.2-.262-9.6,3.28-9.593,5.488.012,3.253,1.711,9.761,2.139,12.212.173.99,1.033,4.09,2.083,7.353q.593-.507,1.188-1.012" transform="translate(-6.93 -11.685)" fill="#b0b0b0"/>
            <path id="Trazado_131718" data-name="Trazado 131718" d="M106.124,194.555H103.57l17.06-15.928a.859.859,0,0,1,1.172,0l.013.011a.863.863,0,0,1,0,1.266Z" transform="translate(-7.181 -12.369)" fill="#484848"/>
            <path id="Trazado_131719" data-name="Trazado 131719" d="M165.551,165.249s2.393,15.653,5.4,19.468c0,0,7.2-7.492,3.794-19.417-2.288-8-9.19-.05-9.19-.05" transform="translate(-11.478 -11.213)" fill="#b0b0b0"/>
            <path id="Trazado_131720" data-name="Trazado 131720" d="M118.584,128.812a9.21,9.21,0,0,1-4.775-.853C106.043,124.29,97.358,117.22,88,106.945A177.677,177.677,0,0,1,76.474,92.957a9.261,9.261,0,0,1,15-10.867c4.556,6.276,18.87,23.745,30.249,29.121a9.263,9.263,0,0,1-3.138,17.6" transform="translate(-5.18 -5.426)" fill="#6e6e6e"/>
            <path id="Trazado_131721" data-name="Trazado 131721" d="M91.232,78.658l15.615,18.464-9.282,21.145-10.29-11.752S85.787,83.06,91.232,78.658" transform="translate(-6.038 -5.454)" fill="#6e6e6e"/>
            <path id="Trazado_131722" data-name="Trazado 131722" d="M133.717,77.1a7.194,7.194,0,0,0-8.835,5.048l-.037.137-.81,2.968-.852,3q-.867,3-1.787,5.984c-1.227,3.972-2.521,7.909-3.914,11.749-.7,1.918-1.42,3.811-2.175,5.654s-1.544,3.635-2.369,5.3c-.412.831-.834,1.631-1.255,2.359l-.016.025c.554.9,1.149,1.782,1.764,2.651h15.783c.595-1.555,1.134-3.089,1.641-4.616.713-2.149,1.363-4.282,1.976-6.409,1.221-4.255,2.3-8.489,3.3-12.727q.748-3.177,1.434-6.36l.674-3.19.326-1.6.324-1.64a7.22,7.22,0,0,0-5.166-8.334" transform="translate(-7.742 -5.328)" fill="#6e6e6e"/>
            <path id="Trazado_131723" data-name="Trazado 131723" d="M125.532,83s1.762,8.214,13.173,8.075a7.994,7.994,0,0,1-.8,3.685s-9.32,0-13.349-7.785c0,0-.565-1.615.976-3.975" transform="translate(-8.629 -5.755)" fill="#292929"/>
            <path id="Trazado_131724" data-name="Trazado 131724" d="M117.537,109.511a.52.52,0,0,1-.085.133c-1.413,1.6-2.4,5.088-2.407,5.122a.5.5,0,1,1-.969-.27c.043-.153,1.058-3.747,2.622-5.518a.5.5,0,0,1,.839.532" transform="translate(-7.908 -7.544)" fill="#454545"/>
            <path id="Trazado_131725" data-name="Trazado 131725" d="M116.862,109.751a.5.5,0,0,1-.129.091c-1.913.946-4.143,3.8-4.166,3.831a.5.5,0,1,1-.795-.616c.1-.125,2.4-3.068,4.516-4.115a.5.5,0,0,1,.574.81" transform="translate(-7.742 -7.55)" fill="#454545"/>
            <path id="Trazado_131726" data-name="Trazado 131726" d="M133.989,88.7s7.834-.3,10.8-4.162c3.331-4.33-2.718-14.322-5.434-16.275-3.4-2.445-7.913,2.554-7.913,2.554s-3.394-7.068-5.22-6.113c-2.38,1.244,1.834,6.562-.83,12.648a6.164,6.164,0,0,0,.18,4.37c.9,2.664,3.1,6.536,8.414,6.978" transform="translate(-8.671 -4.48)" fill="#6e6e6e"/>
            <path id="Trazado_131727" data-name="Trazado 131727" d="M137.547,83.571a.464.464,0,0,1,.127-.429c.119-.117,2.947-2.879,5.614-3.568a.462.462,0,1,1,.23.894c-2.427.626-5.168,3.3-5.2,3.332a.461.461,0,0,1-.652,0,.457.457,0,0,1-.122-.224" transform="translate(-9.536 -5.516)" fill="#454545"/>
            <path id="Trazado_131728" data-name="Trazado 131728" d="M134.664,80.05a.459.459,0,0,1,.1-.4,12.832,12.832,0,0,1,6.324-3.657.462.462,0,0,1,.553.347v0a.461.461,0,0,1-.348.549,12.114,12.114,0,0,0-5.833,3.364.461.461,0,0,1-.651.043.456.456,0,0,1-.147-.248" transform="translate(-9.336 -5.268)" fill="#454545"/>
            <path id="Trazado_131729" data-name="Trazado 131729" d="M132.927,75.733a.461.461,0,0,1,.1-.4,11.435,11.435,0,0,1,5.755-3.286.462.462,0,0,1,.555.345.455.455,0,0,1-.345.554,10.7,10.7,0,0,0-5.263,2.987.461.461,0,0,1-.8-.2" transform="translate(-9.216 -4.994)" fill="#454545"/>
            <path id="Trazado_131730" data-name="Trazado 131730" d="M130.1,84.319a.463.463,0,0,1,.218-.5,7.341,7.341,0,0,0,3.191-5.009.462.462,0,0,1,.917.108,8.144,8.144,0,0,1-3.642,5.7.461.461,0,0,1-.684-.3" transform="translate(-9.019 -5.436)" fill="#454545"/>
            <path id="Trazado_131731" data-name="Trazado 131731" d="M133,76.421a12.494,12.494,0,0,1-.256-3.8.462.462,0,1,1,.919.081c-.629,7.212,6.065,12.649,6.133,12.7a.462.462,0,0,1-.576.721c-.241-.193-4.968-4.025-6.221-9.7" transform="translate(-9.2 -5.006)" fill="#454545"/>
            <path id="Trazado_131732" data-name="Trazado 131732" d="M43.445,65.209s-8.276-5.019-14.852-2.351S17.329,75.771,17.329,75.771l17.614,3.764Z" transform="translate(-1.201 -4.304)" fill="#484848"/>
            <path id="Trazado_131733" data-name="Trazado 131733" d="M22.68,91.427S10.747,77.109,3.956,89.365c-7.316,13.206-1.529,23.518-1.529,23.518l11.751-7.131Z" transform="translate(-0.018 -5.852)" fill="#484848"/>
            <path id="Trazado_131734" data-name="Trazado 131734" d="M59.178,66.977s-18.424-16.208-41.627,7.28-20.76,58.772-7.9,70.543,32.267,5.271,32.267,5.271Z" transform="translate(0 -4.266)" fill="#292929"/>
            <path id="Trazado_131735" data-name="Trazado 131735" d="M86.554,194.376l-1.19-18.569-31.5,3.815s.841,6.212,1.919,14.754Z" transform="translate(-3.734 -12.189)" fill="#383838"/>
            <path id="Trazado_131736" data-name="Trazado 131736" d="M61.648,195.312c-.4-3.255-.657-5.324-.668-5.413a.676.676,0,0,0-1.341.166c.011.087.258,2.087.648,5.247Z" transform="translate(-4.135 -13.125)" fill="#646464"/>
            <path id="Trazado_131737" data-name="Trazado 131737" d="M24.362,161.119s-2.89,15.57-.637,25.127c0,0,44.161,3.981,60.089-2.1,0,0-.2-15.537-1.942-23.081Z" transform="translate(-1.585 -11.167)" fill="#383838"/>
            <path id="Trazado_131738" data-name="Trazado 131738" d="M52.506,194.864c.459-5.165.738-8.372.738-8.372l-29.992-3.64-.375,12.012Z" transform="translate(-1.586 -12.678)" fill="#383838"/>
            <path id="Trazado_131739" data-name="Trazado 131739" d="M54.577,159.164c-.007.168-.014.337-.021.51-.192,4.525-.431,10.933-.555,17.472-.008.36-.014.723-.022,1.084-.034,2.086-.058,4.176-.064,6.212a.526.526,0,0,0,.519.526h0a.525.525,0,0,0,.526-.523c.006-1.967.029-3.982.062-6,.006-.354.011-.708.019-1.063.123-6.579.362-13.043.557-17.609.008-.208.018-.412.026-.614Z" transform="translate(-3.738 -11.036)" fill="#646464"/>
            <path id="Trazado_131740" data-name="Trazado 131740" d="M58.719,159.164c-.013.28-.026.566-.039.86-.279,5.921-.708,14.3-.991,16.281a1.173,1.173,0,0,1-.59.946,3.584,3.584,0,0,1-2.212.136,10.681,10.681,0,0,1-1.044-.241,12.209,12.209,0,0,1-1.462-.515.524.524,0,0,0-.421.96,13.328,13.328,0,0,0,1.861.638,10.424,10.424,0,0,0,1.046.22,7.221,7.221,0,0,0,1,.087,3.51,3.51,0,0,0,1.744-.37,2.223,2.223,0,0,0,1.119-1.714c.292-2.041.723-10.436,1-16.371.016-.313.03-.617.044-.917Z" transform="translate(-3.581 -11.036)" fill="#646464"/>
            <path id="Trazado_131741" data-name="Trazado 131741" d="M50.324,195.274c.222-3.507.358-5.692.364-5.786a.676.676,0,0,0-1.349-.084c-.006.095-.143,2.314-.369,5.87Z" transform="translate(-3.395 -13.088)" fill="#646464"/>
            <path id="Trazado_131742" data-name="Trazado 131742" d="M85.79,112.671c-.221,1.052-.447,2.355-.68,3.862q-.12.776-.247,1.618c-.7,4.693-1.493,10.878-2.515,17.274-.092.573-.187,1.151-.285,1.726-2.275,13.765,2.1,14.029,1.195,18.488C79.786,172.8,28.683,167.1,23.714,160.787c-2.331-2.96-.3-31.03,3.047-48.56.112-.592.22-1.176.329-1.747.9-4.772,1.605-8.69,1.82-11,.995-10.726,3.421-22.038,5.465-26.8s20.275-7.054,20.275-7.054l19.036,3.183a45.955,45.955,0,0,1,15.8,12.018c6.436,8.02-1.355,20.692-3.692,31.839" transform="translate(-1.575 -4.55)" fill="#6e6e6e"/>
            <path id="Trazado_131743" data-name="Trazado 131743" d="M80.155,72.836A36.923,36.923,0,0,1,73.662,98.17C65,110.152,39.083,116.586,27.04,112.212a13.1,13.1,0,0,0-1.481,8.844s24.164,8.446,45.535-8.4c21.946-17.3,15.6-34.58,15.6-34.58-1.073-2.058-4.328-5.581-6.537-5.236" transform="translate(-1.756 -5.048)" fill="#292929"/>
            <path id="Trazado_131744" data-name="Trazado 131744" d="M79.434,96.752a21.383,21.383,0,0,1,5.692,3.414,2.479,2.479,0,0,1,.218,3.5,89,89,0,0,1-8.437,8.61,2.146,2.146,0,0,1-2.826-.084l-4.374-4.052a2.148,2.148,0,0,1,.049-3.2,47.19,47.19,0,0,0,7.1-7.453,2.141,2.141,0,0,1,2.574-.735" transform="translate(-4.785 -6.697)" fill="#484848"/>
            <path id="Trazado_131745" data-name="Trazado 131745" d="M50.082,133.142a.683.683,0,0,0,.141.022c10.873.511,22.528-10.375,23.018-10.839a.642.642,0,0,0-.88-.933c-.116.11-11.752,10.975-22.078,10.49a.642.642,0,0,0-.2,1.259" transform="translate(-3.44 -8.405)" fill="#4c4c4c"/>
            <path id="Trazado_131746" data-name="Trazado 131746" d="M68.408,79.666c-7.749-.691-14.208-10.378-14.48-10.79a.619.619,0,0,1,1.033-.681c.063.1,6.407,9.6,13.557,10.239h.008c5.069.448,7.523-4.639,7.625-4.855a.618.618,0,0,1,1.121.524c-.116.248-2.914,6.088-8.854,5.564h-.009" transform="translate(-3.732 -4.709)" fill="#4c4c4c"/>
            <path id="Trazado_131747" data-name="Trazado 131747" d="M88.4,119.526a.491.491,0,0,1-.1-.016.508.508,0,0,1-.359-.622c1.618-6.04,6.085-19.9,6.129-20.038a.507.507,0,0,1,.966.311c-.045.14-4.5,13.975-6.115,19.99a.506.506,0,0,1-.525.375" transform="translate(-6.096 -6.829)" fill="#4c4c4c"/>
            <path id="Trazado_131748" data-name="Trazado 131748" d="M83.688,38.7s7.531,1.993,7.693-4.849a5.822,5.822,0,0,0,3.626-6.527c-.592-3.556-4.3-2.943-4.3-2.943s3.448-6.508-1.89-8.35c0,0,2.428-5.2-1.158-7.226s-7.586,2.1-7.586,2.1.039-4.522-4.111-4.392-5.367,5.067-5.367,5.067-2.842-4.307-6.341-2.69-3.517,6.661-3.517,6.661-5.081-1.493-8.7,2.389a4.62,4.62,0,0,0,.221,7.027s-4.714.893-5.5,3.873,4.656,4.3,4.656,4.3-2.427,4.641,1.3,6.52,7.877.11,7.877.11Z" transform="translate(-3.237 -0.451)" fill="#292929"/>
            <path id="Trazado_131749" data-name="Trazado 131749" d="M76.634,64.1l-.705,5.192a15.318,15.318,0,0,1-1.9,1.054c-9.185,4.267-17.39-3.672-17.39-3.672l1.174-11.644L74.54,62.257Z" transform="translate(-3.927 -3.815)" fill="#6e6e6e"/>
            <path id="Trazado_131750" data-name="Trazado 131750" d="M77.115,64.286l-.705,5.192a15.318,15.318,0,0,1-1.9,1.054c-6.782-4.015-10.925-12.781-10.925-12.781l11.434,4.7Z" transform="translate(-4.409 -4.004)" fill="#292929"/>
            <path id="Trazado_131751" data-name="Trazado 131751" d="M86.983,44.755s3.207-2.89,4.326.587-.98,9.924-5.039,8.271Z" transform="translate(-5.981 -3.025)" fill="#454545"/>
            <path id="Trazado_131752" data-name="Trazado 131752" d="M86.642,52.878s-1.609,10.109-12.071,8.665A27.653,27.653,0,0,1,57.9,52.756l-.01-.011.174-2.13.9-11.054.48-5.91s.106-10.743,10.4-11.306c7.525-.412,14.237,1.739,17.188,6.037.095.139.187.28.272.423a9.113,9.113,0,0,1,1.307,5.188L87.509,44.573l-.271,2.593Z" transform="translate(-4.014 -1.546)" fill="#6e6e6e"/>
            <path id="Trazado_131753" data-name="Trazado 131753" d="M73.427,48.4s.3,4.611,3.639,6.151c3.8,1.752,5.9-3.03,5.9-3.03Z" transform="translate(-5.091 -3.356)" fill="#ededed"/>
            <path id="Trazado_131754" data-name="Trazado 131754" d="M78.319,56.907a2.475,2.475,0,0,0,.257-.02.336.336,0,0,0-.1-.664A2.153,2.153,0,0,1,76.5,55.4a.336.336,0,1,0-.544.395,2.777,2.777,0,0,0,2.367,1.112" transform="translate(-5.262 -3.831)" fill="#454545"/>
            <path id="Trazado_131755" data-name="Trazado 131755" d="M75.19,41.034c-.137,1.006-.7,1.76-1.267,1.683s-.908-.954-.772-1.96.7-1.759,1.267-1.683.908.954.772,1.96" transform="translate(-5.07 -2.709)" fill="#292929"/>
            <path id="Trazado_131756" data-name="Trazado 131756" d="M85.885,42.486c-.137,1.006-.7,1.76-1.267,1.684s-.908-.954-.772-1.96.7-1.76,1.266-1.684.909.954.772,1.96" transform="translate(-5.811 -2.809)" fill="#292929"/>
            <path id="Trazado_131757" data-name="Trazado 131757" d="M79.762,46.724a3.569,3.569,0,0,0,3.557-1.336.419.419,0,0,0,.046-.356c-1.211-3.694-2.432-7.487-2.444-7.525a.417.417,0,1,0-.795.256c.012.037,1.187,3.689,2.376,7.318a2.868,2.868,0,0,1-2.627.816.417.417,0,1,0-.113.827" transform="translate(-5.505 -2.58)" fill="#292929"/>
            <path id="Trazado_131758" data-name="Trazado 131758" d="M72.619,26.862a2.451,2.451,0,0,0-2.593,1.67,3.964,3.964,0,0,1-2.375,2.352c-3.5,1.607-3.3,4.5-2.882,6.927s-4.828,6.1-6.894-.076S60.1,19.7,68.759,20.287,88.389,25.2,88.812,29.211a19.594,19.594,0,0,1-.617,7.257,4.622,4.622,0,0,1-.786-3.8c.441-2.424-1.119-3.615-3.905-4.383a101.089,101.089,0,0,0-10.884-1.427" transform="translate(-3.977 -1.405)" fill="#292929"/>
            <g id="Grupo_158034" data-name="Grupo 158034" transform="translate(79.215 42.819)" opacity="0.8">
              <g id="Grupo_158033" data-name="Grupo 158033">
                <g id="Grupo_158032" data-name="Grupo 158032" clip-path="url(#clip-path-5)">
                  <path id="Trazado_131759" data-name="Trazado 131759" d="M89.127,48.81a8.2,8.2,0,0,1-.817-.072c-1.859-.252-3.287-1.052-3.188-1.784s1.688-1.121,3.548-.869c.252.034.5.079.728.132Z" transform="translate(-85.117 -46.009)" fill="#454545"/>
                </g>
              </g>
            </g>
            <path id="Trazado_131760" data-name="Trazado 131760" d="M74.36,45.494c-.1.732-1.689,1.121-3.55.869s-3.289-1.052-3.19-1.784,1.689-1.121,3.55-.869,3.289,1.052,3.189,1.784" transform="translate(-4.688 -3.025)" fill="#454545"/>
            <path id="Trazado_131761" data-name="Trazado 131761" d="M70.158,34.8h0a2.388,2.388,0,0,0,2.928,1.621,13.305,13.305,0,0,1,2.476-.456,2.195,2.195,0,0,0,2.01-2.475S72.76,32.381,70.158,34.8" transform="translate(-4.864 -2.304)" fill="#292929"/>
            <path id="Trazado_131762" data-name="Trazado 131762" d="M89.973,37.434h0a2.388,2.388,0,0,1-3.255.782,13.278,13.278,0,0,0-2.264-1.1,2.2,2.2,0,0,1-1.277-2.921s4.932.215,6.8,3.239" transform="translate(-5.755 -2.371)" fill="#292929"/>
            <path id="Trazado_131763" data-name="Trazado 131763" d="M61.732,51.117c-.062.105-1.8,3-3.831,3.638l-.008-.012.173-2.13a7.289,7.289,0,0,0,3.666-1.5" transform="translate(-4.014 -3.544)" fill="#292929"/>
            <path id="Trazado_131764" data-name="Trazado 131764" d="M60.47,43.088s-3.289-5.95-6.812-2.1c-2.9,3.169.45,12.91,5.681,10.438Z" transform="translate(-3.646 -2.752)" fill="#6e6e6e"/>
            <path id="Trazado_131765" data-name="Trazado 131765" d="M59.2,49.923l.046,0a.417.417,0,0,0,.428-.407,7.817,7.817,0,0,0-3.685-6.868.418.418,0,1,0-.411.727A6.983,6.983,0,0,1,58.84,49.5a.418.418,0,0,0,.361.424" transform="translate(-3.839 -2.953)" fill="#292929"/>
            <path id="Trazado_131766" data-name="Trazado 131766" d="M55.676,47.1a.419.419,0,0,0,.274-.058,3.276,3.276,0,0,1,2.276-.531.418.418,0,1,0,.315-.774c-1.2-.487-2.843.481-3.027.593a.418.418,0,0,0,.162.771" transform="translate(-3.835 -3.161)" fill="#292929"/>
            <path id="Trazado_131767" data-name="Trazado 131767" d="M11.151,192.585h21.04l27.336-8.821a.951.951,0,0,0,.614-1.2l-10.3-31.931a.952.952,0,0,0-1.2-.613L3.153,164.7a.952.952,0,0,0-.613,1.2Z" transform="translate(-0.173 -10.398)" fill="#a9a9a9"/>
            <path id="Trazado_131768" data-name="Trazado 131768" d="M46.753,178.789,41.545,162.65a.745.745,0,0,1,.479-.937l3.887-1.255a.744.744,0,0,1,.937.48l5.208,16.139a.744.744,0,0,1-.48.937l-3.886,1.255a.744.744,0,0,1-.937-.48" transform="translate(-2.878 -11.123)" fill="#ededed"/>
            <path id="Trazado_131769" data-name="Trazado 131769" d="M33.2,194.729l27.337-8.821a.952.952,0,0,0,.613-1.2L59.923,180.9,17.068,194.729Z" transform="translate(-1.183 -12.543)" fill="#848484"/>
            <path id="Trazado_131770" data-name="Trazado 131770" d="M38.9,101.293l-.045.129L37.435,105.5l-.958,2.785-.465,1.35-.521,1.54-.879,2.6-1.362,4.141c-.9,2.759-1.753,5.52-2.575,8.262-.4,1.371-.8,2.742-1.162,4.1s-.731,2.711-1.051,4.046-.6,2.643-.836,3.9l-.165.89c-.05.251-.088.51-.128.769-.079.519-.129,1.056-.166,1.606s-.05,1.114-.047,1.687.029,1.159.064,1.753a33.161,33.161,0,0,0,.438,3.645,51.6,51.6,0,0,0,1.909,7.551c.423,1.263.871,2.531,1.371,3.777.248.626.5,1.248.765,1.856l.394.9.2.433.092.2.043.094c.014.03.027.061.02.055a6.225,6.225,0,0,1-10.5,6.691l-.429-.6-.372-.529c-.242-.35-.479-.693-.707-1.043-.455-.7-.893-1.393-1.321-2.1-.839-1.417-1.644-2.853-2.379-4.337a58.566,58.566,0,0,1-3.755-9.391,43.528,43.528,0,0,1-1.844-10.606c-.039-.941-.048-1.892-.01-2.86.02-.482.043-.967.083-1.457l.03-.365.034-.323.072-.635c.195-1.692.43-3.32.706-4.9s.566-3.147.888-4.684.668-3.056,1.024-4.569c.708-3.018,1.491-5.992,2.309-8.94.4-1.477.835-2.94,1.265-4.4l.162-.544c.381-1.281.767-2.557,1.169-3.829.025-.079.048-.156.073-.235.433-1.376.866-2.748,1.323-4.115.241-.724.478-1.448.728-2.172l.769-2.2,0-.007a9.095,9.095,0,0,1,17.171,6" transform="translate(-0.768 -6.184)" fill="#6e6e6e"/>
            <path id="Trazado_131771" data-name="Trazado 131771" d="M36.969,109.369l-.465,1.349-.521,1.541c-2.9.4-8.409.193-17.822-3.32.381-1.28.767-2.557,1.169-3.829.025-.079.048-.156.073-.235Z" transform="translate(-1.259 -7.271)" fill="#454545"/>
            <path id="Trazado_131772" data-name="Trazado 131772" d="M28.346,138.726c-.211-.11-3.3-1.707-7.036-3.154a.5.5,0,1,0-.365.94c3.753,1.458,6.888,3.076,6.94,3.1a.5.5,0,1,0,.461-.889" transform="translate(-1.43 -9.397)" fill="#454545"/>
            <path id="Trazado_131773" data-name="Trazado 131773" d="M26.6,138.5a.515.515,0,0,1-.083-.134c-.82-1.96-3.519-4.356-3.546-4.381a.5.5,0,0,1,.663-.751c.118.1,2.9,2.575,3.806,4.745a.5.5,0,0,1-.84.52" transform="translate(-1.581 -9.229)" fill="#454545"/>
            <path id="Trazado_131774" data-name="Trazado 131774" d="M32.207,166.512c.307.509,1.448,3.29,1.583,3.466,2.335,3.052,6.894,2.451,8.393,4.425,0,0,11.423,9.626,8.607,10.751-1.551.619-3.842-.658-5.585-1.927.061.165.123.315.184.457,1.282,2.98,5.959,6.384,4.2,8.383s-4.566-1.081-4.566-1.081-1.149,2.387-4.779.808a3.175,3.175,0,0,1-3.793.838s-2.178,1.96-4.347.358c-1.843-1.363-5.333-7.779-9.561-18.611,2.007-3.556,4.519-6.012,9.668-7.865" transform="translate(-1.563 -11.545)" fill="#6e6e6e"/>
            <path id="Trazado_131775" data-name="Trazado 131775" d="M36.25,70.817S24.825,75.743,18,102.1c0,0,8.921,6.689,20.37,6.372,0,0,7.25-14.974,9.048-23.663s-1.8-17.758-11.169-13.991" transform="translate(-1.248 -4.849)" fill="#6e6e6e"/>
            <path id="Trazado_131776" data-name="Trazado 131776" d="M41.981,108.11a.584.584,0,0,1-.1-.02.508.508,0,0,1-.334-.635c1.85-5.973,6.849-19.65,6.9-19.787a.507.507,0,0,1,.953.348c-.05.138-5.04,13.791-6.882,19.738a.508.508,0,0,1-.54.355" transform="translate(-2.879 -6.055)" fill="#4c4c4c"/>
          </g>
        </g>
      </g>
    </g>
  </g>
</svg>
