<svg xmlns="http://www.w3.org/2000/svg" xmlns:xlink="http://www.w3.org/1999/xlink" width="85" height="85" viewBox="0 0 85 85">
  <defs>
    <clipPath id="clip-path">
      <rect id="Rectángulo_37346" data-name="Rectángulo 37346" width="55" height="54.841" fill="none"/>
    </clipPath>
  </defs>
  <g id="Grupo_157477" data-name="Grupo 157477" transform="translate(-705.5 -1141)">
    <circle id="Elipse_4836" data-name="Elipse 4836" cx="42.5" cy="42.5" r="42.5" transform="translate(705.5 1141)" fill="#3c3fa7"/>
    <g id="Grupo_157459" data-name="Grupo 157459" transform="translate(720.5 1156)">
      <g id="Grupo_157458" data-name="Grupo 157458" clip-path="url(#clip-path)">
        <path id="Trazado_128375" data-name="Trazado 128375" d="M11.912,43.88a.885.885,0,0,1-1.219-.31,15.564,15.564,0,0,0-5.525-4.631,9.471,9.471,0,0,1-5.062-8.1c-.008-.1.031-.221-.106-.27V28.2c.138-.356-.015-.735.09-1.094a12.734,12.734,0,0,1,4.742-9.094,41.077,41.077,0,0,1,5.789-3.861,10.952,10.952,0,0,0,4.862-5.709,22.4,22.4,0,0,1,2.006-4.191A8.89,8.89,0,0,1,23.807.335a21.04,21.04,0,0,1,9.967.587,14.446,14.446,0,0,1,6.541,4.492C41.656,6.951,42.851,8.6,44.12,10.2a.91.91,0,0,1,.029,1.261.642.642,0,0,1-.98.161,2.922,2.922,0,0,1-.759-.75c-1.061-1.35-2.091-2.724-3.189-4.045A13.089,13.089,0,0,0,30.074,1.9c-.823-.077-1.642-.075-2.463-.086a14.159,14.159,0,0,0-4.977.6,6.891,6.891,0,0,0-4.088,3.5c-.615,1.174-1.119,2.4-1.632,3.618a13.54,13.54,0,0,1-1.838,3.2A14.365,14.365,0,0,1,11.3,15.776,45.932,45.932,0,0,0,5.789,19.5a11.136,11.136,0,0,0-3.932,7.391,17,17,0,0,0,.215,5.226,7.139,7.139,0,0,0,3.247,4.846c.991.642,2.023,1.217,3.015,1.857a14.961,14.961,0,0,1,3.816,3.8.785.785,0,0,1-.237,1.262" transform="translate(0 0)"/>
        <path id="Trazado_128376" data-name="Trazado 128376" d="M45.154,73.56A15.117,15.117,0,0,1,36.3,69.693a35.445,35.445,0,0,1-3.9-4.043.927.927,0,0,1-.133-1.253.851.851,0,0,1,1.34-.011c.607.655,1.2,1.323,1.8,1.986a18.621,18.621,0,0,0,5.066,4.079,12.476,12.476,0,0,0,3.96,1.285,10.069,10.069,0,0,0,8.655-2.5c1-.864,2.027-1.7,3.062-2.529a14.507,14.507,0,0,1,5.4-2.651,12.348,12.348,0,0,0,6.5-4.418A19.18,19.18,0,0,0,72.219,49.06a21.206,21.206,0,0,0-.839-8.321,10.55,10.55,0,0,0-3.39-4.865c-.98-.836-2.011-1.61-3-2.44a2.432,2.432,0,0,1-.456-.453.758.758,0,0,1,.176-1.112.827.827,0,0,1,1.085-.026c1.475,1.217,3.034,2.332,4.391,3.693a12.607,12.607,0,0,1,3.428,6.835A23.081,23.081,0,0,1,72.34,55.836a17.244,17.244,0,0,1-7.652,8.873,12.442,12.442,0,0,1-3.04,1.164A12.665,12.665,0,0,0,56.6,68.588a38.425,38.425,0,0,1-4.524,3.522A10.14,10.14,0,0,1,47.8,73.552c-.075.007-.139.017-.16.1H46.353c-.391-.142-.806.021-1.2-.092" transform="translate(-19.072 -18.812)"/>
        <path id="Trazado_128377" data-name="Trazado 128377" d="M64.3,134.92a2.349,2.349,0,0,1,1.2.092H64.317a.174.174,0,0,0-.018-.092" transform="translate(-38.217 -80.172)" fill="#535353"/>
        <path id="Trazado_128378" data-name="Trazado 128378" d="M.09,66.818A1.956,1.956,0,0,1,0,67.912V66.837a.064.064,0,0,1,.09-.02" transform="translate(0 -39.707)" fill="#585858"/>
        <path id="Trazado_128379" data-name="Trazado 128379" d="M82.759,15.486c-.346.608-.3.9.232,1.342q1.534,1.26,3.079,2.506a11.6,11.6,0,0,1,4.2,8,22.56,22.56,0,0,1-.2,7.74,17.811,17.811,0,0,1-6.55,10.861,11.312,11.312,0,0,1-4.183,1.979,14.575,14.575,0,0,0-5.84,3.149,34.657,34.657,0,0,1-4.226,3.3,9.548,9.548,0,0,1-6.818,1.1c2.154-1.043,3.838-2.723,5.673-4.2a13.368,13.368,0,0,1,5.089-2.67A14.255,14.255,0,0,0,81.814,42a20.468,20.468,0,0,0,2.913-7.9,23.339,23.339,0,0,0,.089-5.82,17.185,17.185,0,0,0-1.122-4.949,11.535,11.535,0,0,0-3.38-4.5c-1.326-1.118-2.757-2.115-4-3.326a39.548,39.548,0,0,1-3.606-4.323,35.592,35.592,0,0,0-3.384-3.947A12.829,12.829,0,0,0,65.169,4.52c-.2-.08-.477-.095-.448-.424,4.631-.126,8.6,1.285,11.627,4.948,1.231,1.489,2.385,3.036,3.59,4.544.451.564.7.616,1.33.3a9.946,9.946,0,0,0,1.491,1.6" transform="translate(-37.118 -2.43)" fill="#e1e1e1"/>
        <path id="Trazado_128380" data-name="Trazado 128380" d="M29.953,4.076a.409.409,0,0,0,.276.228,13.8,13.8,0,0,1,5.75,4.227c1.711,1.983,3.2,4.141,4.92,6.113a20.67,20.67,0,0,0,2.582,2.324,22.977,22.977,0,0,1,4.255,3.949,13.1,13.1,0,0,1,2.181,5.234,22.179,22.179,0,0,1,.419,5.042,20.464,20.464,0,0,1-4.361,12.54,14.174,14.174,0,0,1-8,5.13,11.879,11.879,0,0,0-4.515,2.464,41.122,41.122,0,0,1-5.032,3.867,1.507,1.507,0,0,1-.749.239,12.224,12.224,0,0,1-5.9-2.459,29.492,29.492,0,0,1-4.846-4.752c-.479-.56-.765-.6-1.384-.227a5.792,5.792,0,0,0-1.292-1.7c.439-.577.422-.8,0-1.371a15.5,15.5,0,0,0-5.077-4.456,17.826,17.826,0,0,1-2.2-1.423,7.231,7.231,0,0,1-2.756-4.806,15.756,15.756,0,0,1,.27-7.015,11.2,11.2,0,0,1,3.691-5.529,41.206,41.206,0,0,1,5.751-3.825,12.155,12.155,0,0,0,5.319-6.231c.407-1.045.89-2.062,1.367-3.079a7.422,7.422,0,0,1,5.865-4.246,15.115,15.115,0,0,1,3.47-.231" transform="translate(-2.35 -2.41)" fill="#eee"/>
        <path id="Trazado_128381" data-name="Trazado 128381" d="M74.984,54.7A11.129,11.129,0,1,1,63.9,43.558,11.13,11.13,0,0,1,74.984,54.7" transform="translate(-31.338 -25.889)"/>
        <path id="Trazado_128382" data-name="Trazado 128382" d="M58.462,62.466A9.5,9.5,0,0,1,71.49,49.1a1.367,1.367,0,0,1,.156.14,3.947,3.947,0,0,1,.644,2.182,11.065,11.065,0,0,1-.618,5.061,10.408,10.408,0,0,1-6.626,6.193,10.086,10.086,0,0,1-5.554.209,2.251,2.251,0,0,1-1.03-.422" transform="translate(-33.724 -28.252)" fill="#fbce3f"/>
        <path id="Trazado_128383" data-name="Trazado 128383" d="M60.984,64.973a12.564,12.564,0,0,0,3.678.55,10.2,10.2,0,0,0,6.249-2.3,9.775,9.775,0,0,0,3.6-5.838,10.257,10.257,0,0,0-.182-5.072c-.057-.187-.106-.376-.159-.564a9.092,9.092,0,0,1,4.089,7.992,9.425,9.425,0,0,1-10.226,9.281,9.113,9.113,0,0,1-7.048-4.052" transform="translate(-36.246 -30.759)" fill="#eea235"/>
        <path id="Trazado_128384" data-name="Trazado 128384" d="M61.743,61.486a7.311,7.311,0,0,1,2.808-5.315.829.829,0,0,1,1.2-.011.809.809,0,0,1-.151,1.22,6,6,0,0,0-2.268,4.6.81.81,0,0,1-.847.842c-.5-.036-.774-.438-.741-1.334" transform="translate(-36.696 -33.231)"/>
      </g>
    </g>
  </g>
</svg>
