<svg xmlns="http://www.w3.org/2000/svg" xmlns:xlink="http://www.w3.org/1999/xlink" width="250" height="152" viewBox="0 0 250 152">
  <defs>
    <clipPath id="clip-path">
      <rect id="Rectángulo_37320" data-name="Rectángulo 37320" width="245.44" height="123.564" fill="none"/>
    </clipPath>
  </defs>
  <g id="Grupo_157447" data-name="Grupo 157447" transform="translate(8155 9852)">
    <rect id="Rectángulo_37339" data-name="Rectángulo 37339" width="250" height="152" transform="translate(-8155 -9852)" fill="none"/>
    <g id="Grupo_157443" data-name="Grupo 157443" transform="translate(-8152 -9838)">
      <g id="Grupo_157442" data-name="Grupo 157442" transform="translate(0 0)" clip-path="url(#clip-path)">
        <path id="Trazado_128154" data-name="Trazado 128154" d="M124.892,59.741v.01a.077.077,0,0,1-.083.068c-.066-.007-6.61-.663-9.906,2.387a6.11,6.11,0,0,0-1.889,4.885,5.966,5.966,0,0,0,2.144,4.72c3.442,2.77,9.906,1.582,9.97,1.568a.077.077,0,0,1,.088.061.074.074,0,0,1-.059.088c-.066.012-6.6,1.215-10.094-1.6a6.106,6.106,0,0,1-2.2-4.832,6.258,6.258,0,0,1,1.939-5c3.347-3.1,9.957-2.433,10.023-2.426a.075.075,0,0,1,.068.073" transform="translate(78.901 41.669)" fill="#381914"/>
        <path id="Trazado_128155" data-name="Trazado 128155" d="M134.677,55.3c1.373.314,2.64.382,2.965,3.052s.54,19.647.54,19.647-.172,2.936-3.656,3.033c-.342.008-.778.015-1.291.02-4.717.051-15.744-.059-15.744-.059L116.824,56.8s5.634-.622,10.585-1.074a57.211,57.211,0,0,1,7.267-.426" transform="translate(81.673 38.634)" fill="#b7391a"/>
        <path id="Trazado_128156" data-name="Trazado 128156" d="M120.117,68.911l-.071-2.576s4.266-1.128,4.532,1.164-4.46,1.412-4.46,1.412" transform="translate(83.925 46.181)" fill="#381914"/>
        <path id="Trazado_128157" data-name="Trazado 128157" d="M119.9,61.033l-.071-2.576s4.266-1.128,4.532,1.164-4.46,1.412-4.46,1.412" transform="translate(83.774 40.673)" fill="#381914"/>
        <path id="Trazado_128158" data-name="Trazado 128158" d="M124.87,58.963v.01a.077.077,0,0,1-.083.068c-.066-.007-6.61-.661-9.906,2.387a6.112,6.112,0,0,0-1.889,4.885,5.964,5.964,0,0,0,2.144,4.72c3.444,2.771,9.906,1.582,9.97,1.568a.077.077,0,0,1,.088.061.074.074,0,0,1-.059.088c-.066.012-6.6,1.215-10.094-1.6a6.106,6.106,0,0,1-2.2-4.832,6.258,6.258,0,0,1,1.939-5c3.347-3.1,9.957-2.433,10.023-2.426a.075.075,0,0,1,.068.073" transform="translate(78.886 41.125)" fill="#381914"/>
        <path id="Trazado_128159" data-name="Trazado 128159" d="M105.788,60.15l4.591-3.752-2.438-2.984L101.7,57.138s.663.525,1.594,1.225c.732.545,1.631,1.2,2.5,1.787" transform="translate(71.096 37.342)" fill="#3d1c1a"/>
        <path id="Trazado_128160" data-name="Trazado 128160" d="M124.5,67.153a42.277,42.277,0,0,0-4.379-5.361c-2.9-3.069-3.923-2.229-5.293-2.214a5.8,5.8,0,0,0-.739.061c-1.286.167-2.905.539-4.683-.608-.2-.133-.413-.268-.624-.413-.155-.105-.311-.211-.464-.316-1.84-1.278-3.629-2.7-3.629-2.7s-.975,1.113-1.857,2.165c-.076.09-.15.182-.226.272-.924,1.127-5.2,3.888-5.2,3.888,1.74,2.353,3.169,2.749,3.169,2.749l3.15-1.556,1.06,3.556s9.77-1.349,10.856-1.225,5.187,2.025,6.4,2.606a1.352,1.352,0,0,0,.826.11,3.219,3.219,0,0,0,1.638-1.018" transform="translate(68.099 38.874)" fill="#1a571d"/>
        <path id="Trazado_128161" data-name="Trazado 128161" d="M99.273,61.588l.705,3.57,3.505-1.573-1.062-3.555Z" transform="translate(69.403 41.967)" fill="#597239"/>
        <path id="Trazado_128162" data-name="Trazado 128162" d="M144.815,76.26c-.63.63-63.749,0-63.749,0-1.261-1.437-1.145-6.037-.624-9.134.082-.515.184-.982.285-1.388.731-2.88,4.735-3.254,6.89-3.334,2.136-.082,46.187,1.211,51.723,1.15,4.851-.046,5.813.943,6.348,3.524.068.367.136.759.2,1.193.61,3.944-.44,7.359-1.077,7.989" transform="translate(55.979 43.624)" fill="#e5a775"/>
        <path id="Trazado_128163" data-name="Trazado 128163" d="M20.093,2.053c-2.093.348-.17,5.082.846,4.856s.51-5.082-.846-4.856" transform="translate(13.392 1.429)" fill="#d3aa7a"/>
        <path id="Trazado_128164" data-name="Trazado 128164" d="M114.978,49.3a35.837,35.837,0,0,1-4.266-6.681c.2,3.577.746,8.018.8,10.273a3.012,3.012,0,0,1-.143,1.415c-.562.63-7.566,4.137-10.276,5.262s-5.216,4.562-6.212,6.6-1.871,5.381-.564,5.94c2.148.919,3.264-1.468,4.679-2.708s5.034-2.71,9.948-3.957c.014-.007.027-.007.041-.014,4.887-1.232,8.6-2.938,10.009-5.8a53.207,53.207,0,0,0-1.709-7.571s-1.016-1.1-2.311-2.758" transform="translate(65.481 29.796)" fill="#db6b00"/>
        <path id="Trazado_128165" data-name="Trazado 128165" d="M96.8,11.233s3.31,4.916,3.888,8.394h.036a9.875,9.875,0,0,1,3.131-.739A71.491,71.491,0,0,0,96.8,11.233" transform="translate(67.677 7.852)" fill="#ff9e88"/>
        <path id="Trazado_128166" data-name="Trazado 128166" d="M129.581,49.583c-.083.031-.822.323-2.039.7l-.109.036c-.15.046-.326.093-.489.141-.121.036-.233.07-.362.105-.187.053-.392.107-.595.161-.18.048-.348.093-.539.141-.175.044-.367.088-.552.133-.231.054-.454.11-.7.165q-.647.143-1.352.279c.481.941,1.342,2.629,2.352,4.633.7,1.4,1.47,2.962,2.236,4.526a100.391,100.391,0,0,1,4.452,9.982c1.1,3.624.17,11.946-.508,13.477,0,0-3.821-.508-3.91,1.1a1.014,1.014,0,0,0,.054.4c.447,1.451,3.679,2.617,6.484,1.132,3.057-1.612,5.6-12.568,5.949-15.632a14.355,14.355,0,0,0-.229-3.91c-.048-.245-.088-.488-.143-.739a43.523,43.523,0,0,0-2.472-7.8,57.691,57.691,0,0,1-7.522-9.039Z" transform="translate(85.883 34.658)" fill="#db6b00"/>
        <path id="Trazado_128167" data-name="Trazado 128167" d="M103.86,18.887a14.733,14.733,0,0,1,3.176.15h0c-2.454-3.916-10.234-7.8-10.234-7.8,2.792,1.635,7.043,7.634,7.056,7.654" transform="translate(67.677 7.852)" fill="#c65800"/>
        <path id="Trazado_128168" data-name="Trazado 128168" d="M103.858,18.887h0c-.014-.02-4.265-6.02-7.056-7.654a71.492,71.492,0,0,1,7.055,7.654" transform="translate(67.676 7.852)" fill="#c65800"/>
        <path id="Trazado_128169" data-name="Trazado 128169" d="M103.449,25.472c-.172.257-.479.911-1.023,1.733l-.005.007a10.217,10.217,0,0,0,.071,3.886v-.017c.005-.076.01-.141.015-.212.037-.608.105-1.048.105-1.048a16.5,16.5,0,0,0,.992-3.639c.008-.08.022-.165.025-.243a3.276,3.276,0,0,0,0-.365c-.014-.143-.027-.216-.061-.224-.007,0-.02.024-.029.029a.232.232,0,0,0-.085.083l-.007.012" transform="translate(71.495 17.72)" fill="#61302d"/>
        <path id="Trazado_128170" data-name="Trazado 128170" d="M102.826,15.826Z" transform="translate(71.887 11.063)" fill="#ef7400"/>
        <path id="Trazado_128171" data-name="Trazado 128171" d="M90.566,28.792c.158.151.318.3.476.432a6.535,6.535,0,0,0,1.721,1.035,6.488,6.488,0,0,1-1.721-1.036c-.16-.131-.316-.279-.476-.43" transform="translate(63.316 20.128)" fill="#ef7400"/>
        <path id="Trazado_128172" data-name="Trazado 128172" d="M102.865,25.606l.034-.059-.034.059" transform="translate(71.914 17.86)" fill="#ef7400"/>
        <path id="Trazado_128173" data-name="Trazado 128173" d="M102.417,26.387c-.02.031-.036.058-.056.09l-.007.008.007-.007c.022-.034.036-.059.056-.092" transform="translate(71.557 18.447)" fill="#ef7400"/>
        <path id="Trazado_128174" data-name="Trazado 128174" d="M102.619,26.061c.022-.039.041-.07.061-.107-.02.036-.039.07-.061.107" transform="translate(71.742 18.144)" fill="#ef7400"/>
        <path id="Trazado_128175" data-name="Trazado 128175" d="M112.017,52.394l-8.361-10.862c.007.573.036,1.2.071,1.85a35.832,35.832,0,0,0,4.265,6.681c1.295,1.653,2.311,2.758,2.311,2.758a53.207,53.207,0,0,1,1.709,7.571l.005-.008c1.4-2.873,0-7.989,0-7.989" transform="translate(72.467 29.035)" fill="#ef7400"/>
        <path id="Trazado_128176" data-name="Trazado 128176" d="M178.138,94.5a97.14,97.14,0,0,0-6.62-7.474,111.534,111.534,0,0,0-1.363-14.947,28.01,28.01,0,0,0-2.358-7.928l-.007-.014a11.4,11.4,0,0,0-2.188-2.975c-.216-.214-.459-.413-.7-.612a13.15,13.15,0,0,0-1.339-.98c-.415-.258-.841-.508-1.308-.746a25.313,25.313,0,0,0-5.881-1.985c-3.572-.793-7.1-1.043-9.833-1.755-4.243-1.1-12.652-3.646-15.375-5.1-2.209-1.172-6.159-4.594-7.561-5.828-.326-.284-.5-.454-.5-.454s-.685-3.143-2.386-10.516-4.331-10.55-4.331-10.55c-1.531-4.093-6.125-9.318-8.443-11.438.036.039.07.082.1.121.1.114.209.24.316.365.044.054.092.105.136.161a21.563,21.563,0,0,1,4.108,7.85l.046.134h0l0,0-3.216-.773a14.63,14.63,0,0,0-3.174-.146l0,0,0,0a9.876,9.876,0,0,0-3.13.739,7.675,7.675,0,0,0-2.284,1.456c-2.975,2.805-2.209,8.667-2.209,8.667a42.435,42.435,0,0,1-5.264,6.294v6.079a20.819,20.819,0,0,0,7.3-1.5c5.437-2.126,9.179-8.752,9.179-8.752a16.986,16.986,0,0,1-.173,3.448v0a.182.182,0,0,1,.078-.073c.007-.005.022-.031.027-.029h0c.032.008.051.082.059.223.005.116.005.238,0,.365,0,.078-.019.163-.025.245a16.394,16.394,0,0,1-.991,3.639s-.07.438-.109,1.047c0,.073-.01.136-.014.212v.019c.33,1.694.985,3.206,1.779,3.731,1.407.931,2.163,3.058.824,3.886a3.084,3.084,0,0,1-1.371.387c-.445,3.507-1.181,10,.551,14.583.126.333.268.671.423,1.009-.036-.649-.063-1.278-.071-1.85L119.206,73.6s1.4,5.116,0,7.989l-.005.008c.27,1.684.511,3.59.669,5.684.6,7.894.17,22.673.17,22.673-2.46-.082-3.225.853-2.887,1.869a1.394,1.394,0,0,0,.834.705c1.138.5,3.075.617,3.753.061.935-.766,4.588-9.425,6.538-18.174a42.241,42.241,0,0,0,.34-16.31,34.952,34.952,0,0,0,14.832.163q.706-.135,1.352-.279c.245-.054.469-.11.7-.165.184-.044.377-.088.552-.133s.359-.093.537-.141c.2-.054.409-.109.6-.161.127-.036.241-.07.362-.105.206-.059.413-.119.6-.177,1.293-.4,2.044-.7,2.044-.7a33.236,33.236,0,0,0,3.063,4.141c1.308,1.551,2.846,3.232,4.458,4.9,4,4.114,8.429,8.1,10.828,9.642,4.336,2.805,4.159,4.933,3.821,7.819s-3.143,7.813-3.143,7.813-.678.088-1.952.258a1.362,1.362,0,0,0-.833,2.107,1.652,1.652,0,0,0,.663.692c1.274.766,2.934.792,5.055-.9s4.628-5.379,6.329-9.032a9.627,9.627,0,0,0-.345-9.343M102.748,29.69c-.335,0-.6-.7-.6-1.563s.27-1.56.6-1.56.6.7.6,1.56-.272,1.563-.6,1.563m18.174,58.444c-.051-.194.075-.219.075-.219s-.032.083-.075.219" transform="translate(65.277 7.829)" fill="#ef7400"/>
        <path id="Trazado_128177" data-name="Trazado 128177" d="M127.656,49.576s-.751.3-2.046.7c1.217-.374,1.956-.666,2.039-.7Z" transform="translate(87.815 34.658)" fill="#ef7400"/>
        <path id="Trazado_128178" data-name="Trazado 128178" d="M124.378,50.393c.19-.048.359-.1.539-.143-.18.048-.348.1-.539.143" transform="translate(86.954 35.13)" fill="#ef7400"/>
        <path id="Trazado_128179" data-name="Trazado 128179" d="M125.045,50.2c.129-.036.24-.07.362-.105-.121.036-.234.07-.362.105" transform="translate(87.42 35.021)" fill="#ef7400"/>
        <path id="Trazado_128180" data-name="Trazado 128180" d="M126.814,49.576a57.787,57.787,0,0,0,7.522,9.039c-1.612-1.667-3.152-3.347-4.458-4.9a33.232,33.232,0,0,1-3.063-4.141" transform="translate(88.657 34.658)" fill="#ef7400"/>
        <path id="Trazado_128181" data-name="Trazado 128181" d="M123.642,50.577c.245-.054.467-.11.7-.165-.231.054-.454.11-.7.165" transform="translate(86.439 35.243)" fill="#ef7400"/>
        <path id="Trazado_128182" data-name="Trazado 128182" d="M100.957,15.75l0,0,0,0,0,0a14.54,14.54,0,0,1,3.176.146v0h0a14.733,14.733,0,0,0-3.176-.15" transform="translate(70.58 10.99)" fill="#ef7400"/>
        <path id="Trazado_128183" data-name="Trazado 128183" d="M100.957,15.738h0l0,0,0,0Z" transform="translate(70.579 11.002)" fill="#ef7400"/>
        <path id="Trazado_128184" data-name="Trazado 128184" d="M102.4,28.826h0v-.019c.005-.075.01-.139.014-.211,0,.071-.01.136-.014.212v.017" transform="translate(71.588 19.992)" fill="#ef7400"/>
        <path id="Trazado_128185" data-name="Trazado 128185" d="M103.106,25.573a3.276,3.276,0,0,1,0,.365c0,.078-.019.163-.025.243.008-.08.022-.167.025-.245.005-.126.005-.25,0-.365-.008-.141-.027-.214-.059-.223h0c-.007,0-.022.025-.029.029.008-.005.022-.031.029-.029.034.007.048.082.061.224" transform="translate(72.02 17.721)" fill="#ef7400"/>
        <path id="Trazado_128186" data-name="Trazado 128186" d="M102.357,27.161l0-.005c.545-.824.853-1.478,1.025-1.735-.037.054-.08.126-.131.214l-.034.059c-.093.167-.214.386-.355.632-.022.037-.039.068-.063.107q-.168.291-.387.629c-.022.032-.036.058-.056.092l0,.007" transform="translate(71.559 17.771)" fill="#ef7400"/>
        <path id="Trazado_128187" data-name="Trazado 128187" d="M107.14,20.216a28.207,28.207,0,0,0-4.108-7.85c-.048-.058-.09-.105-.138-.16-.1-.124-.207-.248-.314-.367a13.788,13.788,0,0,0-1.385-1.381c.763.953,2.766,9.1,2.773,9.121a20.651,20.651,0,0,1,3.213.771c-.012-.046-.027-.088-.041-.134" transform="translate(70.747 7.311)" fill="#ff9e88"/>
        <path id="Trazado_128188" data-name="Trazado 128188" d="M102.275,11.58a28.23,28.23,0,0,1,4.108,7.85,21.629,21.629,0,0,0-4.108-7.85" transform="translate(71.502 8.095)" fill="#ff9e88"/>
        <path id="Trazado_128189" data-name="Trazado 128189" d="M102.01,11.271c.107.119.212.241.314.367-.107-.127-.214-.253-.314-.367" transform="translate(71.316 7.879)" fill="#ff9e88"/>
        <path id="Trazado_128190" data-name="Trazado 128190" d="M102.828,15.828h0l3.215.773,0,0a20.48,20.48,0,0,0-3.215-.771l0,0" transform="translate(71.887 11.063)" fill="#ff9e88"/>
        <path id="Trazado_128191" data-name="Trazado 128191" d="M102.826,15.826v0h0l0,0" transform="translate(71.887 11.063)" fill="#ff9e88"/>
        <path id="Trazado_128192" data-name="Trazado 128192" d="M102.436,26.445l0,0a9.812,9.812,0,0,0,.071,3.939l0-.048v-.007a10.217,10.217,0,0,1-.071-3.886" transform="translate(71.479 18.487)" fill="#b83719"/>
        <path id="Trazado_128193" data-name="Trazado 128193" d="M102.434,26.448c-.063.1-.131.19-.2.285.065-.1.139-.194.2-.284l0-.008-.005.007" transform="translate(71.476 18.485)" fill="#b83719"/>
        <path id="Trazado_128194" data-name="Trazado 128194" d="M105.62,34.063c-.793-.525-1.449-2.037-1.779-3.731v.005l0,.048a9.812,9.812,0,0,1-.071-3.939c-.059.09-.134.189-.2.284a12.143,12.143,0,0,1-1.123,1.42,11.065,11.065,0,0,0,.612,4.842.127.127,0,0,1-.065.168.13.13,0,0,1-.051.01.126.126,0,0,1-.117-.075,10.735,10.735,0,0,1-.656-4.647,10.153,10.153,0,0,1-.884.778c-.921,1.084-1.419,5.983-.319,7.512a4.856,4.856,0,0,0,4.108,1.6,3.084,3.084,0,0,0,1.371-.387c1.337-.827.583-2.955-.824-3.886" transform="translate(70.146 18.488)" fill="#b83719"/>
        <path id="Trazado_128195" data-name="Trazado 128195" d="M102.358,26.441l0,.008v0l0-.007" transform="translate(71.559 18.484)" fill="#b83719"/>
        <path id="Trazado_128196" data-name="Trazado 128196" d="M102.4,28.739v0" transform="translate(71.588 20.086)" fill="#b83719"/>
        <path id="Trazado_128197" data-name="Trazado 128197" d="M107.307,27.928a10.956,10.956,0,0,1-5.232,2.46,39.672,39.672,0,0,1-7.811.991v0a7.619,7.619,0,0,1-2.171-.369c2.7,1.021,6.516.945,10.835-.618a14.24,14.24,0,0,0,4.119-2.2.964.964,0,0,1,.119-.127c.032-.025.088-.083.141-.134" transform="translate(64.383 19.524)" fill="#c65800"/>
        <path id="Trazado_128198" data-name="Trazado 128198" d="M102.966,25.419h0l.007-.01-.007.01" transform="translate(71.985 17.763)" fill="#c65800"/>
        <path id="Trazado_128199" data-name="Trazado 128199" d="M102.969,25.414h0l-.007.012.007-.012" transform="translate(71.982 17.767)" fill="#c65800"/>
        <path id="Trazado_128200" data-name="Trazado 128200" d="M101.183,33.57a10.972,10.972,0,0,0,5.232-2.46c.155-.151.377-.392.634-.681.008-.105.015-.178.017-.194a.125.125,0,0,1,.141-.112c.034,0,.034.042.054.066.649-.737,1.354-1.577,1.373-1.6l.007-.008.056-.09c.144-.223.277-.437.389-.629.022-.037.041-.071.061-.107.148-.257.262-.462.355-.63.012-.022.024-.041.036-.061.049-.088.1-.173.136-.224l.007-.01,0,0a16.987,16.987,0,0,0,.173-3.447s-3.741,6.627-9.179,8.752a20.819,20.819,0,0,1-7.3,1.5v.928a39.526,39.526,0,0,0,7.811-.989" transform="translate(65.277 16.344)" fill="#c65800"/>
        <path id="Trazado_128201" data-name="Trazado 128201" d="M103.023,25.415c-.036.053-.087.136-.138.226.051-.088.093-.16.131-.214l.007-.012" transform="translate(71.928 17.767)" fill="#c65800"/>
        <path id="Trazado_128202" data-name="Trazado 128202" d="M102.391,26.646c.148-.226.275-.435.389-.629-.112.192-.245.406-.389.629" transform="translate(71.583 18.188)" fill="#c65800"/>
        <path id="Trazado_128203" data-name="Trazado 128203" d="M102.656,26.214c.141-.246.263-.466.355-.632-.093.17-.209.376-.355.632" transform="translate(71.768 17.884)" fill="#c65800"/>
        <path id="Trazado_128204" data-name="Trazado 128204" d="M101.781,27.593c-.194.194-.406.382-.627.571-.053.051-.109.109-.141.134a.868.868,0,0,0-.119.127,10.678,10.678,0,0,0,.884-.778l0-.054" transform="translate(70.536 19.29)" fill="#c65800"/>
        <path id="Trazado_128205" data-name="Trazado 128205" d="M101.581,28l0,.034a12.3,12.3,0,0,0,1.123-1.422A12.177,12.177,0,0,1,101.576,28l.005.005" transform="translate(71.013 18.605)" fill="#c65800"/>
        <path id="Trazado_128206" data-name="Trazado 128206" d="M101.545,28.046c.02.024.056.034.053.066a12.03,12.03,0,0,0,1.125-1.383c.065-.1.134-.19.2-.284-.02.024-.726.863-1.375,1.6" transform="translate(70.991 18.487)" fill="#c65800"/>
        <path id="Trazado_128207" data-name="Trazado 128207" d="M101.047,28.208c.221-.189.433-.377.627-.571,0-.034.005-.082.007-.11-.257.289-.479.53-.634.681" transform="translate(70.643 19.244)" fill="#c65800"/>
        <path id="Trazado_128208" data-name="Trazado 128208" d="M136.172,51.224a6.5,6.5,0,0,1,.549.5h.007c10.232,2.426,13.294-3.272,13.044-4.289-.251-.982-1.511-.156-1.612-.088a7.112,7.112,0,0,0,.962-1.118,14.244,14.244,0,0,0,2.107-9.121,18.214,18.214,0,0,0-.59-3.347c-1.517-5.441-8.089-9.94-9.534-8.924s1.782,3.483,3.572,6.885a8.292,8.292,0,0,1,0,6.965s-.258-2.127-.935-1.957-.34,1.1-.428,3.232c-.075,2.012-.7,4.114-3.238,6.64-.136.136-.27.272-.413.406a14.229,14.229,0,0,1-4.98,3.125,12.83,12.83,0,0,1,1.339.98c.048.039.105.071.151.11" transform="translate(94.158 17.263)" fill="#db6b00"/>
        <path id="Trazado_128209" data-name="Trazado 128209" d="M134.682,39.666a13.173,13.173,0,0,1,1.341.98,13.1,13.1,0,0,0-1.341-.98" transform="translate(94.158 27.73)" fill="#ef7400"/>
        <path id="Trazado_128210" data-name="Trazado 128210" d="M109.591,56.569c.042-.136.075-.219.075-.219s-.126.025-.075.219" transform="translate(76.608 39.394)" fill="#ed7321"/>
        <path id="Trazado_128211" data-name="Trazado 128211" d="M91.859,29.654c.129.053.262.107.4.151h0c-.133-.044-.265-.1-.394-.151" transform="translate(64.22 20.731)" fill="#000721"/>
        <path id="Trazado_128212" data-name="Trazado 128212" d="M95.378,25.836l0,0v0c-2.491,2.62-4.882,4.922-4.882,4.922.039.037.076.068.116.1-.039-.036-.076-.066-.114-.1,0,0,2.391-2.3,4.878-4.919" transform="translate(63.268 18.059)" fill="#000721"/>
        <path id="Trazado_128213" data-name="Trazado 128213" d="M95.379,31.913V25.834l0,0C92.89,28.451,90.5,30.755,90.5,30.755c.037.037.075.068.114.1.158.151.316.3.476.432a12.4,12.4,0,0,0,4.29.624" transform="translate(63.269 18.06)" fill="#000721"/>
        <path id="Trazado_128214" data-name="Trazado 128214" d="M90.847,29.045a6.481,6.481,0,0,0,1.721,1.035c.129.053.26.107.394.151a7.367,7.367,0,0,1-2.115-1.186" transform="translate(63.512 20.305)" fill="#000721"/>
        <path id="Trazado_128215" data-name="Trazado 128215" d="M94.266,30.11h0a7.7,7.7,0,0,1-2.173-.367l0,0a7.62,7.62,0,0,0,2.171.367Z" transform="translate(64.382 20.793)" fill="#000721"/>
        <path id="Trazado_128216" data-name="Trazado 128216" d="M90.847,29.045a7.367,7.367,0,0,0,2.115,1.186,7.693,7.693,0,0,0,2.173.367h0v-.929a12.359,12.359,0,0,1-4.29-.624" transform="translate(63.512 20.305)" fill="#000721"/>
        <path id="Trazado_128217" data-name="Trazado 128217" d="M101.425,27.748a10.735,10.735,0,0,0,.656,4.647.126.126,0,0,0,.117.075.13.13,0,0,0,.051-.01.127.127,0,0,0,.065-.168,11.065,11.065,0,0,1-.612-4.842c-.092.1-.178.2-.277.3" transform="translate(70.889 19.189)" fill="#000721"/>
        <path id="Trazado_128218" data-name="Trazado 128218" d="M101.578,27.347a.127.127,0,0,0-.141.112c0,.015-.008.088-.017.194.071-.078.139-.155.212-.238-.02-.024-.02-.065-.054-.068" transform="translate(70.904 19.118)" fill="#000721"/>
        <path id="Trazado_128219" data-name="Trazado 128219" d="M101.691,27.427c-.088.093-.178.189-.272.282l-.005.056c.1-.1.187-.2.279-.3l0-.034-.005-.005" transform="translate(70.9 19.174)" fill="#000721"/>
        <path id="Trazado_128220" data-name="Trazado 128220" d="M101.635,27.387l-.212.24-.007.109c.1-.093.184-.187.272-.282,0-.032-.032-.042-.053-.066" transform="translate(70.901 19.146)" fill="#000721"/>
        <path id="Trazado_128221" data-name="Trazado 128221" d="M99.139,20.244c-.335,0-.6.7-.6,1.56s.27,1.563.6,1.563.6-.7.6-1.563-.272-1.56-.6-1.56" transform="translate(68.886 14.152)" fill="#000721"/>
        <path id="Trazado_128222" data-name="Trazado 128222" d="M136.864,51.5a27.483,27.483,0,0,0-16.974-4.647c-10.421.443-7.836,4.086-4.6,6.348s18.536.425,21.575-1.7" transform="translate(78.608 32.735)" fill="#fb923e"/>
        <rect id="Rectángulo_37303" data-name="Rectángulo 37303" width="119.414" height="44.804" transform="translate(16.959 57.795)" fill="#b83819"/>
        <path id="Trazado_128223" data-name="Trazado 128223" d="M124.3,66.6H13.432a2.328,2.328,0,0,1-2.321-2.321v-.352a2.328,2.328,0,0,1,2.321-2.321H124.3a2.327,2.327,0,0,1,2.319,2.321v.352A2.327,2.327,0,0,1,124.3,66.6" transform="translate(7.768 43.072)" fill="#b83819"/>
        <path id="Trazado_128224" data-name="Trazado 128224" d="M11.111,63.782V74.85h2.352l4.681-11.068Z" transform="translate(7.768 44.59)" fill="#b83819"/>
        <path id="Trazado_128225" data-name="Trazado 128225" d="M82.022,63.751V74.819H79.671L74.99,63.751Z" transform="translate(52.426 44.568)" fill="#b83819"/>
        <rect id="Rectángulo_37304" data-name="Rectángulo 37304" width="0.313" height="44.804" transform="translate(76.479 57.795)" fill="#96270d"/>
        <rect id="Rectángulo_37305" data-name="Rectángulo 37305" width="2.887" height="20.369" transform="translate(80.74 80.57)" fill="#084111"/>
        <rect id="Rectángulo_37306" data-name="Rectángulo 37306" width="3.12" height="20.369" transform="translate(84.487 80.57)" fill="#f4debf"/>
        <rect id="Rectángulo_37307" data-name="Rectángulo 37307" width="2.912" height="20.831" transform="translate(66.751 59.739)" fill="#96270d"/>
        <rect id="Rectángulo_37308" data-name="Rectángulo 37308" width="18.931" height="4.283" transform="translate(47.196 76.287)" fill="#ef7400"/>
        <rect id="Rectángulo_37309" data-name="Rectángulo 37309" width="22.449" height="16.541" transform="translate(29.903 41.254)" fill="#e4aa72"/>
        <path id="Trazado_128226" data-name="Trazado 128226" d="M24.608,14.766c1.46,1.064,4.5-2.695,4.89-5.142S29,4.884,27.054,5.212s-1.9,4.554-2.445,6.078-.827,2.873,0,3.476" transform="translate(16.84 3.621)" fill="#587137"/>
        <path id="Trazado_128227" data-name="Trazado 128227" d="M26.387,17.29c-.109,1.451,6.462,3.267,9.848,5.232s7.123.984,8.1-.982-4.331-5.045-8.98-5.9-8.776-.963-8.973,1.648" transform="translate(18.446 10.556)" fill="#587137"/>
        <path id="Trazado_128228" data-name="Trazado 128228" d="M31.068,15.371c2.413,4.81-15.1,15.618-18.765,9.2s16.131-14.446,18.765-9.2" transform="translate(8.285 9.559)" fill="#587137"/>
        <path id="Trazado_128229" data-name="Trazado 128229" d="M25.622,13.246c3-1.2-2.722-14.539-6.129-13.144s2.153,14.73,6.129,13.144" transform="translate(12.888 -0.001)" fill="#587137"/>
        <path id="Trazado_128230" data-name="Trazado 128230" d="M30.4,40.758a.182.182,0,0,1-.182-.175c-.012-.246-1.29-24.914-10.847-39.328a.182.182,0,0,1,.3-.2c9.614,14.5,10.895,39.263,10.907,39.511a.183.183,0,0,1-.173.192Z" transform="translate(13.519 0.679)" fill="#553b2a"/>
        <path id="Trazado_128231" data-name="Trazado 128231" d="M12.655,23.558a.183.183,0,0,1-.087-.343C14.441,22.2,30.927,13.3,33.011,14.461a.182.182,0,0,1,.07.248.184.184,0,0,1-.248.071c-1.434-.81-12.8,4.795-20.09,8.756a.173.173,0,0,1-.087.022" transform="translate(8.72 10.036)" fill="#553b2a"/>
        <path id="Trazado_128232" data-name="Trazado 128232" d="M44.254,20.436a.2.2,0,0,1-.092-.024C36.333,15.9,25.081,16.7,24.969,16.707a.179.179,0,0,1-.2-.168.183.183,0,0,1,.168-.2c.116-.007,11.479-.814,19.406,3.752a.183.183,0,0,1,.066.25.181.181,0,0,1-.158.092" transform="translate(17.318 11.384)" fill="#553b2a"/>
        <path id="Trazado_128233" data-name="Trazado 128233" d="M23.931,15.932a.187.187,0,0,1-.105-.032.184.184,0,0,1-.044-.255c.041-.059,4.136-5.967,4.263-9.676a.184.184,0,0,1,.367.012c-.133,3.818-4.159,9.629-4.331,9.874a.182.182,0,0,1-.15.078" transform="translate(16.603 4.049)" fill="#553b2a"/>
        <path id="Trazado_128234" data-name="Trazado 128234" d="M66.9,76.767H11.231a.289.289,0,0,1-.291-.289v-41.2a.289.289,0,0,1,.291-.289H66.9a.29.29,0,0,1,.291.289v41.2a.29.29,0,0,1-.291.289m-55.384-.579H66.611V35.568H11.519Z" transform="translate(7.648 24.461)" fill="#96270d"/>
        <path id="Trazado_128235" data-name="Trazado 128235" d="M102.119,34.989H46.446a.29.29,0,0,0-.291.289v41.2a.29.29,0,0,0,.291.289h55.673a.289.289,0,0,0,.289-.289v-41.2a.289.289,0,0,0-.289-.289m-.291,20.829H46.736V35.568h55.092ZM46.736,56.4h55.092V76.186H46.736Z" transform="translate(32.267 24.461)" fill="#96270d"/>
        <path id="Trazado_128236" data-name="Trazado 128236" d="M66.9,47.829H11.231a.291.291,0,1,1,0-.581H66.9a.291.291,0,1,1,0,.581" transform="translate(7.648 33.031)" fill="#96270d"/>
        <rect id="Rectángulo_37310" data-name="Rectángulo 37310" width="5.35" height="20.921" transform="matrix(0.005, -1, 1, 0.005, 63.444, 57.683)" fill="#f17702"/>
        <rect id="Rectángulo_37311" data-name="Rectángulo 37311" width="5.03" height="28.703" transform="matrix(0.005, -1, 1, 0.005, 55.691, 52.291)" fill="#2a386b"/>
        <rect id="Rectángulo_37312" data-name="Rectángulo 37312" width="5.021" height="24.429" transform="translate(59.991 47.283) rotate(-89.69)" fill="#b73918"/>
        <rect id="Rectángulo_37313" data-name="Rectángulo 37313" width="19.892" height="5.684" transform="matrix(0.646, -0.763, 0.763, 0.646, 82.184, 40.491)" fill="#0b4012"/>
        <rect id="Rectángulo_37314" data-name="Rectángulo 37314" width="21.706" height="5.926" transform="translate(86.522 44.165) rotate(-49.74)" fill="#f17702"/>
        <rect id="Rectángulo_37315" data-name="Rectángulo 37315" width="69.376" height="2.689" transform="matrix(0.646, -0.763, 0.763, 0.646, 84.417, 55.92)" fill="#e1a470"/>
        <path id="Trazado_128237" data-name="Trazado 128237" d="M75.523,5.472a1.213,1.213,0,1,1,1.213,1.213,1.214,1.214,0,0,1-1.213-1.213" transform="translate(52.799 2.977)" fill="#e1a470"/>
        <path id="Trazado_128238" data-name="Trazado 128238" d="M37.092,5.472a1.213,1.213,0,1,1,1.213,1.213,1.214,1.214,0,0,1-1.213-1.213" transform="translate(25.931 2.977)" fill="#e1a470"/>
        <rect id="Rectángulo_37316" data-name="Rectángulo 37316" width="4.844" height="20.309" transform="translate(84.487 60.03)" fill="#22366a"/>
        <rect id="Rectángulo_37317" data-name="Rectángulo 37317" width="4.178" height="19.788" transform="translate(112.595 80.861)" fill="#22366a"/>
        <rect id="Rectángulo_37318" data-name="Rectángulo 37318" width="4.066" height="16.927" transform="translate(116.773 83.722)" fill="#96270d"/>
        <rect id="Rectángulo_37319" data-name="Rectángulo 37319" width="3.831" height="16.927" transform="translate(107.86 83.722)" fill="#96270d"/>
        <path id="Trazado_128239" data-name="Trazado 128239" d="M12.588,71.843l1.779,2.508,15.161-1.862-2.88-4.4a56.691,56.691,0,0,1-7.969,2.878,29.969,29.969,0,0,1-6.091.88" transform="translate(8.8 47.598)" fill="#f4e0c1"/>
        <path id="Trazado_128240" data-name="Trazado 128240" d="M11.622,67.04a16.547,16.547,0,0,1-1.976,3.694,7.843,7.843,0,0,1-5.029,3.3,17.051,17.051,0,0,0,2.87,2.513,9.863,9.863,0,0,0,4.306-1.906,29.521,29.521,0,0,0,4.8-4.353Z" transform="translate(3.228 46.868)" fill="#f4e0c1"/>
        <path id="Trazado_128241" data-name="Trazado 128241" d="M10.715,74.266a16.984,16.984,0,0,1-2.87-2.513,4.014,4.014,0,0,1-.392-.557L0,70.3,1.354,72.8a19.454,19.454,0,0,0,9.486,1.55l-.126-.088" transform="translate(0 49.145)" fill="#f7d5ae"/>
        <path id="Trazado_128242" data-name="Trazado 128242" d="M28.675,60.8,38.4,64.027l-.846,11.18-4.066-.338Z" transform="translate(20.047 42.507)" fill="#f4e0c1"/>
        <path id="Trazado_128243" data-name="Trazado 128243" d="M46.543,58.214,40.478,68.978l3.033,1.6,5.945-10.339Z" transform="translate(28.298 40.697)" fill="#22366a"/>
        <path id="Trazado_128244" data-name="Trazado 128244" d="M42.49,64a6.945,6.945,0,1,0,6.944,6.946A6.946,6.946,0,0,0,42.49,64" transform="translate(24.848 44.74)" fill="#22366a"/>
        <path id="Trazado_128245" data-name="Trazado 128245" d="M51.61,69.536a79.77,79.77,0,0,0,8.667.437c3.162-.131,3.748,1.159,2.579,2.212s-4.336,1.488-6.093,1.036-5.153-3.685-5.153-3.685" transform="translate(36.081 48.613)" fill="#f7d5ae"/>
        <path id="Trazado_128246" data-name="Trazado 128246" d="M46.155,67.3S50.5,70.672,55.422,71.1c0,0,3.639,3.235,7.677,3.47,0,0-6.27,1.874-10.6.936s-6.339-8.2-6.339-8.2" transform="translate(32.267 47.052)" fill="#f4e0c1"/>
        <path id="Trazado_128247" data-name="Trazado 128247" d="M75.957,68.175l-3.074,4.431A42.984,42.984,0,0,0,82.1,75.065c5.359.827,7.575-.958,8.647-2.245l-.5-.644a30.193,30.193,0,0,1-8.076,0c-3.573-.642-6.217-4-6.217-4" transform="translate(50.953 47.661)" fill="#f4e0c1"/>
        <path id="Trazado_128248" data-name="Trazado 128248" d="M76.861,69.117l-.618,2.226c-.073.049-.165.107-.272.165-1.648.839-7.267,1.828-7.845,1.92-.025.007-.041.015-.049.015s-4.944.272-5.43,0A41.737,41.737,0,0,1,59.5,69.126a34.169,34.169,0,0,0,9.328,1.087,58.452,58.452,0,0,0,8.035-1.1" transform="translate(41.596 48.32)" fill="#f4e0c1"/>
        <path id="Trazado_128249" data-name="Trazado 128249" d="M72.421,71.056c-1.648.841-7.269,1.83-7.845,1.92.576-.255,4.285-3.215,4.285-3.215Z" transform="translate(45.146 48.77)" fill="#f7d5ae"/>
        <path id="Trazado_128250" data-name="Trazado 128250" d="M94.008,61.1s.042.122.114.326a1.357,1.357,0,0,0-.114-.326" transform="translate(65.722 42.719)" fill="#48d848"/>
        <path id="Trazado_128251" data-name="Trazado 128251" d="M94.007,61.1Z" transform="translate(65.721 42.719)" fill="#43a843"/>
        <path id="Trazado_128252" data-name="Trazado 128252" d="M33.134,59.1,20.887,62.926l5.536,17.035,12.505-3.906Z" transform="translate(14.602 41.32)" fill="#ef7400"/>
        <path id="Trazado_128253" data-name="Trazado 128253" d="M22.26,63.421l.27.622,9.1-2.88L31.4,60.6Z" transform="translate(15.562 42.363)" fill="#d86100"/>
        <path id="Trazado_128254" data-name="Trazado 128254" d="M95.6,68.446,91.18,64.5l2.566-2.873,6.076,3.991s-.685.5-1.645,1.154c-.756.513-1.682,1.127-2.576,1.677" transform="translate(63.745 43.081)" fill="#3d1c1a"/>
        <path id="Trazado_128255" data-name="Trazado 128255" d="M84.32,74.639a42.139,42.139,0,0,1,4.611-5.162c3.026-2.939,4.015-2.056,5.383-1.981a6.1,6.1,0,0,1,.737.1c1.276.221,2.878.664,4.7-.4.207-.124.425-.251.642-.384.158-.1.319-.2.477-.3,1.895-1.2,3.743-2.533,3.743-2.533s.926,1.154,1.76,2.245c.073.092.141.189.214.282.875,1.166,5.028,4.112,5.028,4.112-1.842,2.273-3.288,2.608-3.288,2.608l-3.079-1.694-1.215,3.505s-9.7-1.777-10.791-1.7-5.271,1.8-6.506,2.324a1.356,1.356,0,0,1-.829.073,3.22,3.22,0,0,1-1.592-1.089" transform="translate(58.949 44.724)" fill="#1a571d"/>
        <path id="Trazado_128256" data-name="Trazado 128256" d="M100.219,70.114l-.861,3.534-3.432-1.725,1.217-3.505Z" transform="translate(67.062 47.831)" fill="#597239"/>
      </g>
    </g>
  </g>
</svg>
