<svg xmlns="http://www.w3.org/2000/svg" xmlns:xlink="http://www.w3.org/1999/xlink" width="505" height="177" viewBox="0 0 505 177">
  <defs>
    <clipPath id="clip-path">
      <rect id="Rect치ngulo_37359" data-name="Rect치ngulo 37359" width="461.903" height="163.581" fill="none"/>
    </clipPath>
  </defs>
  <g id="Grupo_158084" data-name="Grupo 158084" transform="translate(-180 -2198)">
    <rect id="Rect치ngulo_37358" data-name="Rect치ngulo 37358" width="505" height="177" transform="translate(180 2198)" fill="#ffdfe0"/>
    <g id="Grupo_157510" data-name="Grupo 157510" transform="translate(202 2205)">
      <g id="Grupo_157509" data-name="Grupo 157509" clip-path="url(#clip-path)">
        <path id="Trazado_128542" data-name="Trazado 128542" d="M391.142,176.611H268.054a11.1,11.1,0,0,1-11.1-11.1V42.427a11.1,11.1,0,0,1,11.1-11.1H391.142a11.1,11.1,0,0,1,11.1,11.1V165.515a11.1,11.1,0,0,1-11.1,11.1" transform="translate(-106.865 -13.03)" fill="#20b1a9"/>
        <path id="Trazado_128543" data-name="Trazado 128543" d="M664.89,145.28H522.53a10.117,10.117,0,0,1-10.117-10.117V10.117A10.117,10.117,0,0,1,522.53,0H664.89a10.117,10.117,0,0,1,10.117,10.117V135.163A10.117,10.117,0,0,1,664.89,145.28" transform="translate(-213.104)" fill="#feafb7"/>
        <path id="Trazado_128544" data-name="Trazado 128544" d="M136.667,149.773H8.613A8.613,8.613,0,0,1,0,141.16V13.106A8.613,8.613,0,0,1,8.613,4.493H136.667a8.613,8.613,0,0,1,8.613,8.613V141.16a8.613,8.613,0,0,1-8.613,8.613" transform="translate(0 -1.869)" fill="#3085cc"/>
        <path id="Trazado_128545" data-name="Trazado 128545" d="M56.164,93.1a.521.521,0,0,1-.286-.543,3.447,3.447,0,0,0,.014-.678.326.326,0,0,0-.082-.163.324.324,0,0,1-.081-.163V91.31a1.4,1.4,0,0,1,.162-.679,1.34,1.34,0,0,0,.163-.651v-.163a.99.99,0,0,0-.258.054.613.613,0,0,0-.231.109q-.19.137-.611.408t-.909.57q-.49.3-.95.543a2.237,2.237,0,0,1-.706.272l-2.117.869h-.164a1.223,1.223,0,0,0-.19.027c-.091.018-.186.04-.285.068s-.2.05-.3.068a1.689,1.689,0,0,1-.176.027H46.58c-.271,0-.53-.009-.774-.027l-.76-.054q-.394-.027-.883-.109a1.954,1.954,0,0,0-.285-.082q-.23-.053-.488-.108c-.172-.036-.336-.068-.489-.095a2.435,2.435,0,0,0-.286-.041H41.2l-.9-.353q-.191-.081-.584-.3t-.841-.461q-.449-.244-.855-.461t-.6-.3q-.162-.081-.488-.231t-.665-.326c-.227-.117-.439-.221-.638-.312a3.381,3.381,0,0,1-.38-.19c-.019-.018-.064-.059-.136-.122s-.158-.14-.258-.231-.2-.176-.3-.258-.176-.14-.231-.177a14.884,14.884,0,0,1-1.3-1.493q-.626-.814-1.249-1.547a5.548,5.548,0,0,1-.95-1.792,18.091,18.091,0,0,1-.624-2.349,23.273,23.273,0,0,1-.353-2.43q-.109-1.194-.109-2.063,0-1.114.013-2.063T29.869,73q.1-.909.285-1.833a17.411,17.411,0,0,1,.543-1.981,6.117,6.117,0,0,1,.2-.693q.176-.529.367-1.058t.325-.855c.091-.217.127-.227.109-.027a10.41,10.41,0,0,1,1.14-2.322,13.615,13.615,0,0,1,1.6-2,16.776,16.776,0,0,1,1.941-1.71q1.045-.788,2.159-1.467a4.428,4.428,0,0,1,.5-.284q.393-.2.842-.421l.869-.421a5.976,5.976,0,0,1,.584-.258.5.5,0,0,1,.177-.068l.352-.1c.136-.036.272-.068.407-.095l.339-.068a3.9,3.9,0,0,1,.435-.109,2.692,2.692,0,0,1,.325-.054h5.349q.95.272,1.846.5a13.427,13.427,0,0,1,1.724.57,11.159,11.159,0,0,1,1.6.814A7.729,7.729,0,0,1,55.4,60.3h.109c0-.054,0-.131.014-.231s.013-.2.013-.312,0-.213.014-.312.013-.167.013-.2c0-.018.009-.081.027-.19s.04-.226.068-.353.054-.24.081-.339a1.139,1.139,0,0,0,.041-.176.349.349,0,0,1-.027-.394.932.932,0,0,1,.313-.339,1.128,1.128,0,0,1,.448-.176.546.546,0,0,1,.407.068q1.357,0,2.389.014t2.009.054q.978.04,2.023.149t2.4.272a2.541,2.541,0,0,0,.272.15c.126.064.19.14.19.231,0,.163.009.363.027.6s.036.484.055.746.036.516.054.761a3.733,3.733,0,0,1,0,.638c0,.036-.009.145-.027.325s-.036.381-.054.6-.037.417-.054.6-.027.29-.027.327a2.19,2.19,0,0,1-.082.394,2.628,2.628,0,0,0-.081.366q0,.081.013.339c.009.172.014.353.014.543v.543a1.017,1.017,0,0,1-.027.313.842.842,0,0,1-.055.244,1.062,1.062,0,0,1-.109.244L65.8,72.2v1.629q0,1.032.013,2.566t.04,3.407q.027,1.873.054,3.733t.054,3.516q.027,1.656.082,2.769c0,.054-.014.2-.041.421s-.054.475-.081.746-.054.52-.082.747a1.346,1.346,0,0,0-.013.421v.434a.839.839,0,0,1-.366.19,1.308,1.308,0,0,0-.367.164q-.732,0-1.262.054t-1,.122q-.476.069-.977.122a8.667,8.667,0,0,1-1.235.027H59.341c-.127,0-.339,0-.638-.013s-.615-.022-.95-.04-.651-.036-.95-.054-.512-.037-.638-.055M40.118,75.237a7.282,7.282,0,0,0,.475,2.661,13.816,13.816,0,0,0,1.236,2.416q.053.082.163.259c.072.117.126.176.162.176q.652.705,1.344,1.357a10.413,10.413,0,0,0,1.466,1.154,7.423,7.423,0,0,0,1.643.8,5.814,5.814,0,0,0,1.9.3,5.564,5.564,0,0,0,1.765-.3q.9-.3,1.683-.624.108-.053.312-.15l.407-.19q.2-.095.353-.176c.1-.054.167-.091.2-.109a6.686,6.686,0,0,0,1.656-1.806,10.411,10.411,0,0,0,1.046-2.227,12.288,12.288,0,0,0,.543-2.443q.149-1.263.2-2.43c0-.091,0-.245-.013-.462s-.023-.443-.041-.678-.037-.457-.054-.666a3.372,3.372,0,0,0-.054-.421l-.245-.489q-.109-.217-.217-.407a2.583,2.583,0,0,1-.163-.326q-.543-1.031-1.1-2a4.3,4.3,0,0,0-1.48-1.534l-.488-.366q-.272-.2-.584-.407t-.611-.38a1.93,1.93,0,0,0-.543-.231c-.073-.018-.2-.054-.394-.108s-.393-.109-.61-.164-.421-.1-.61-.135-.322-.063-.394-.082a.655.655,0,0,0-.488-.285,3.215,3.215,0,0,0-.72,0,7.168,7.168,0,0,0-.774.123,3.1,3.1,0,0,1-.624.081,2.832,2.832,0,0,0-.869.15,4.521,4.521,0,0,0-.883.393,8.062,8.062,0,0,0-.815.543,5.2,5.2,0,0,0-.692.624c-.037.037-.114.127-.231.272s-.244.294-.38.448l-.394.448a2.037,2.037,0,0,0-.217.272,6.339,6.339,0,0,0-1.439,2.688A16.3,16.3,0,0,0,40.213,73q-.095,1.1-.1,2.24" transform="translate(-12.371 -23.781)" fill="#064c99"/>
        <path id="Trazado_128546" data-name="Trazado 128546" d="M99.578,93.456a1.894,1.894,0,0,1-.571-.217,1.086,1.086,0,0,1-.366-.394,1.58,1.58,0,0,1-.163-.475,2.036,2.036,0,0,1-.027-.461q.014-.217.014-.381,0-2.063-.054-4.113t-.1-4.113q-.04-2.062,0-4.126t.2-4.127l-.109-1.276c.018-.145.036-.28.054-.407a2.126,2.126,0,0,0,.027-.34,1.563,1.563,0,0,1,.027-.312V69.1q0-.678.013-1.289c.009-.408.013-.665.013-.775,0-.09.014-.335.041-.732s.054-.824.081-1.276.046-.878.054-1.276.014-.651.014-.76a10.375,10.375,0,0,0-.041-1.358q-.068-.76-.1-1.384l.054-.95a.506.506,0,0,1,.177-.447.855.855,0,0,1,.38-.15,1.376,1.376,0,0,1,.38,0c.118.018.186.018.2,0,.055,0,.159,0,.312-.014s.317-.022.488-.04.331-.036.475-.054a1.112,1.112,0,0,0,.272-.054h1.914q.449,0,.909.013c.308.01.652.023,1.032.041l.3.027c.018,0,.077.01.176.027s.207.037.325.054.231.04.339.068.19.05.245.068a2.416,2.416,0,0,1,.8.258.677.677,0,0,1,.3.407,3.01,3.01,0,0,1,.082.638,5.87,5.87,0,0,0,.122.923,11.261,11.261,0,0,1,2.443-1.711,12.407,12.407,0,0,1,2.634-.991,14.991,14.991,0,0,1,2.783-.421,26.647,26.647,0,0,1,2.946,0,4.336,4.336,0,0,1,.869.1q.461.1.936.231a8.187,8.187,0,0,1,.923.326q.448.19.8.38.244.162.638.461t.774.611c.253.208.475.39.665.543a1.893,1.893,0,0,0,.313.231,7.12,7.12,0,0,1,1.344,1.317,9.437,9.437,0,0,1,1,1.588,11.628,11.628,0,0,1,.706,1.765q.285.923.475,1.819a1.91,1.91,0,0,1,.19.557q.109.448.2,1c.064.371.117.746.164,1.127a8.112,8.112,0,0,1,.068.9v1q0,.435.013.95t.027.95c.009.29.014.47.014.543l.027,4.507-.054.95a1.832,1.832,0,0,0-.055.326c-.018.162-.04.335-.068.516s-.05.353-.068.515a3.447,3.447,0,0,0-.027.353l-.027.6c-.019.344-.027.783-.027,1.317s-.005,1.1-.014,1.71-.013,1.222-.013,1.846V88.7c0,.526,0,.968.013,1.331s.014.588.014.679v.9c0,.2,0,.385.013.557s.014.276.014.312l-.027.272c0,.2-.114.322-.339.367s-.412.077-.557.095c-.054,0-.132,0-.231.013s-.2.023-.312.041-.2.032-.285.041a.305.305,0,0,0-.15.04h-1.113c-.254,0-.489,0-.706.014a2.125,2.125,0,0,0-.408.04q-1.276.055-2.375.15a19.2,19.2,0,0,1-2.43.041.907.907,0,0,1-.679-.258,1.15,1.15,0,0,1-.244-.556,2.872,2.872,0,0,1-.027-.693c.018-.244.027-.475.027-.692v-.638c0-.335,0-.72.013-1.154s.014-.9.014-1.412,0-.977.013-1.412.013-.814.013-1.14v-.652l.027-6.3a21.814,21.814,0,0,0,0-2.2,24,24,0,0,0-.258-2.579,22.688,22.688,0,0,0-.556-2.606,11.667,11.667,0,0,0-.87-2.268,5.05,5.05,0,0,0-1.194-1.56,1.984,1.984,0,0,0-1.52-.489l-.95-.054a3.949,3.949,0,0,0-1.561.217,11.316,11.316,0,0,0-1.452.733.148.148,0,0,0-.109.068.2.2,0,0,0-.054.122,4.515,4.515,0,0,0-1.29,1.616,12.8,12.8,0,0,0-.9,2.362,26.5,26.5,0,0,0-.611,2.8q-.244,1.48-.407,2.919-.027.136-.081.679t-.122,1.208q-.069.666-.109,1.331T106.663,82c0,.018,0,.108-.013.272s-.023.357-.041.584-.036.447-.054.665-.027.39-.027.516c0,.091,0,.235-.013.434s-.013.412-.013.638,0,.439-.014.638-.013.335-.013.407l.027,4.073a.73.73,0,0,0,.026.325,1.868,1.868,0,0,1,.055.326c0,.018,0,.068.013.15a2.4,2.4,0,0,1,.013.258v.434c0,.145.009.317.027.516a2.111,2.111,0,0,1-.027.584.943.943,0,0,1-.23.475.744.744,0,0,1-.611.163q-.626-.027-1.372-.013t-1.561.04q-.815.027-1.656.041a13,13,0,0,1-1.6-.068" transform="translate(-40.879 -24.081)" fill="#57a4fe"/>
        <path id="Trazado_128547" data-name="Trazado 128547" d="M157.616,73.13a1.014,1.014,0,0,1,.082-.407,1.02,1.02,0,0,0,.081-.407,16.219,16.219,0,0,0-.081-1.643,16.058,16.058,0,0,1-.082-1.643V67.917q.081-1.737.258-3.339a29.422,29.422,0,0,1,.515-3.136,25.75,25.75,0,0,1,.869-3.027,23.877,23.877,0,0,1,1.317-3.014c.018-.036.068-.131.15-.285s.162-.317.244-.489l.231-.488c.072-.154.117-.249.136-.285.036-.054.118-.163.244-.326a1.6,1.6,0,0,1,.272-.3c.072-.091.2-.226.38-.408l.543-.543q.272-.272.5-.488c.153-.145.248-.235.284-.272.018-.018.077-.063.177-.136s.217-.15.353-.231.266-.163.394-.244.226-.14.3-.177.172-.09.3-.162.253-.14.38-.2.249-.117.367-.163a.877.877,0,0,1,.23-.068c.109-.054.317-.14.625-.258s.638-.235.991-.353.683-.221.991-.312.533-.154.679-.19l.326-.082c.144-.036.3-.072.461-.109s.321-.067.475-.095a2.711,2.711,0,0,0,.312-.068h1.439a8.944,8.944,0,0,1,1.792.162q.787.164,1.738.435a12.328,12.328,0,0,1,2.064.557,17.751,17.751,0,0,1,1.941.841q.937.476,1.806.978t1.656.936a.426.426,0,0,0,.054-.176q.027-.149.054-.326c.018-.117.032-.23.041-.339s.013-.18.013-.217V51.3q0-1.276-.082-2.539t-.081-2.539V45.111q.027-.3.027-.814t-.014-1.059q-.013-.543-.027-1.018t-.013-.693a4.64,4.64,0,0,1,.162-.665,2.525,2.525,0,0,0,.109-.394l.162-.163.489-.054c.145-.018.28-.036.407-.054s.235-.036.326-.054q.923-.054,1.615-.081t1.48-.027q.678,0,1.235-.041t1.086-.068c.353-.018.715-.023,1.086-.013a8.719,8.719,0,0,1,1.208.122,1.254,1.254,0,0,1,.706.787c0,.036,0,.122.013.258s.014.276.014.421,0,.285.013.421.013.231.013.286c0,.091,0,.213-.013.366s-.013.3-.013.448,0,.276-.014.394-.013.186-.013.2q-.055,1.439-.068,2.783t-.014,2.661q0,1.318-.027,2.661T193.21,54.5q-.055,1.548-.122,3.3t-.068,3.3c0,.145,0,.471.013.978s.018,1.054.027,1.643.018,1.14.027,1.656.013.846.013.991c0,.018-.005.108-.013.272s-.014.357-.014.584,0,.457-.013.692-.014.416-.014.543q0,.217.014.57t.013.706c0,.236,0,.448.014.638s.013.295.013.313a3.789,3.789,0,0,1-.041.38c-.027.2-.054.407-.082.624s-.054.421-.081.611a3.474,3.474,0,0,0-.041.366,3.2,3.2,0,0,1,.014.571q-.014.435-.041.923t-.041.936c-.009.3-.013.5-.013.611q0,.136-.013.733t-.027,1.276q-.013.68-.027,1.276t-.013.733c0,.036,0,.141.013.313s.014.376.014.611,0,.471.013.706.014.417.014.543c0,.091,0,.276-.014.557s-.013.584-.013.909,0,.634-.014.924-.013.471-.013.543a.946.946,0,0,1-.652.814,4.325,4.325,0,0,1-1.331.3,11.556,11.556,0,0,1-1.371.027,2.468,2.468,0,0,0-.746.027h-.814a2.047,2.047,0,0,0-.815.163h-3.448l-.272-.3-.325-2.661a8.95,8.95,0,0,1-2.362,1.6,15.634,15.634,0,0,1-2.4.883,13.044,13.044,0,0,1-2.131.407l-1.547.15h-.869q-.407-.027-1.072-.055t-1.357-.04q-.692-.014-1.249-.04t-.746-.055q-.19-.026-.6-.122t-.855-.19q-.449-.1-.842-.2c-.262-.072-.439-.127-.529-.163-.054-.018-.172-.068-.353-.149s-.372-.172-.57-.272-.385-.2-.557-.3a4.034,4.034,0,0,1-.367-.23q-.136-.082-.461-.3l-.692-.461q-.367-.244-.665-.461a3.78,3.78,0,0,1-.408-.326c-.108-.126-.208-.244-.3-.353-.091-.091-.182-.19-.272-.3s-.163-.19-.217-.244a10.929,10.929,0,0,1-1.072-1.724q-.421-.855-.909-1.887-.3-.625-.624-1.317a7.345,7.345,0,0,1-.489-1.344,2.339,2.339,0,0,1-.095-.353q-.068-.3-.136-.651t-.136-.651a2.569,2.569,0,0,0-.1-.353,1.336,1.336,0,0,1-.163-.244,1.357,1.357,0,0,0-.163-.245ZM170.132,74.3a.713.713,0,0,0,.135.19c.091.109.2.227.326.353s.262.258.407.394.263.24.353.313a1.225,1.225,0,0,0,.3.162,1.231,1.231,0,0,1,.3.163,1.233,1.233,0,0,0,.258.163,1.294,1.294,0,0,1,.258.163,2.772,2.772,0,0,0,.313.162,1.054,1.054,0,0,0,.285.109,2.155,2.155,0,0,0,.8.19h.882a8.406,8.406,0,0,0,2.648-.435,11.211,11.211,0,0,0,2.728-1.384,4.859,4.859,0,0,1,.53-.408,3.25,3.25,0,0,0,.5-.407.729.729,0,0,1,.136-.19c.09-.109.195-.231.312-.367s.226-.258.326-.366a1.354,1.354,0,0,0,.176-.217c.036-.072.1-.2.2-.38s.2-.371.3-.571.2-.384.3-.557a3.5,3.5,0,0,0,.2-.394q.081-.216.122-.339a1.1,1.1,0,0,0,.041-.339l.109-.353q.081-.244.217-.774t.38-1.48c0-.036.018-.167.054-.394s.072-.411.109-.557a3.226,3.226,0,0,0,.041-.434q.013-.3.013-.652v-.869c0-.054,0-.162-.013-.325s-.023-.335-.041-.516-.036-.353-.054-.516a3.084,3.084,0,0,0-.055-.352.416.416,0,0,0-.054-.164.654.654,0,0,0-.108-.162c-.037-.036-.1-.1-.177-.2s-.172-.208-.272-.326-.2-.231-.3-.339a2.212,2.212,0,0,1-.2-.244,12.239,12.239,0,0,0-1.67-1.439,10.005,10.005,0,0,0-1.941-1.085,1.639,1.639,0,0,1-.272-.055c-.073-.018-.135-.036-.19-.054h-3.719a.679.679,0,0,0-.231-.285.864.864,0,0,0-.312-.041,5.732,5.732,0,0,0-1.059.109,5.485,5.485,0,0,0-1.113.339,7.016,7.016,0,0,0-1.032.543,3.313,3.313,0,0,0-.815.72l-.23.339c-.119.172-.254.366-.408.584s-.3.43-.435.638-.24.357-.312.449a.4.4,0,0,1-.082.176.4.4,0,0,0-.081.177q-.463.814-.855,1.616a5.826,5.826,0,0,0-.529,1.806,4.177,4.177,0,0,0-.054.42c-.018.19-.037.394-.054.611s-.032.417-.041.6-.014.307-.014.38a3.283,3.283,0,0,0,.055.394,1.252,1.252,0,0,0,.109.394q.081.244.244.733c.109.325.217.657.326.991s.208.642.3.923a4.888,4.888,0,0,0,.19.529Z" transform="translate(-65.55 -16.597)" fill="#72d7fe"/>
        <path id="Trazado_128548" data-name="Trazado 128548" d="M109.2,184.448a2.594,2.594,0,0,1-.56-.06l-.084.029-.46-.093q-.122-.025-.484-.084l-.895-.152c-.3-.052-.6-.1-.877-.144-.108-.017-.2-.03-.264-.039-.141.012-.3.018-.488.018h-.366a3.5,3.5,0,0,1-.583-.064c-.128-.021-.265-.038-.414-.051l-.581-.057-.2-.02a3.14,3.14,0,0,1-.87-.17,2.437,2.437,0,0,1-1.376-1.172,3.164,3.164,0,0,1-.352-1.652,5.452,5.452,0,0,1,.49-1.929c.312-.824.64-1.629.974-2.392q.484-1.1.928-2.15c.282-.668.551-1.343.8-2.008.158-.424.3-.857.432-1.292l-.022-.044.5-2.026.081-.167a1.908,1.908,0,0,1,.44-.582l.22-.571c.023-.06.044-.114.064-.161l.071-.289-.473-1.088-.036-.2a3.87,3.87,0,0,0-.454-1.239q-.465-.827-.907-1.607l-.532-.763a1.917,1.917,0,0,1-.324-.609,12.429,12.429,0,0,1-.714-1.224q-.366-.718-.7-1.435-.318-.677-.652-1.358c-.19-.388-.4-.775-.621-1.15-.131-.174-.287-.411-.506-.767s-.445-.713-.7-1.109q-.4-.626-.765-1.209c-.229-.37-.4-.65-.513-.836-.638-.987-1.263-1.994-1.854-3s-1.178-2.006-1.761-3.016c-.567-.982-1.157-1.973-1.753-2.945-.579-.941-1.186-1.88-1.8-2.791a1.813,1.813,0,0,1-.371-1.073,2.37,2.37,0,0,1,1.113-2.23l.339-.232.394-.592h.88l.111-.013c.12-.015.238-.033.359-.055l.69-.144c.082-.018.289-.074.608-.161q.582-.158,1.256-.357l1.286-.378c.369-.109.6-.179.7-.213l.049-.016.2-.1h.255c.036-.006.072-.011.109-.015l.116-.039h.113c.126-.023.306-.049.541-.073l.52-.053A6.385,6.385,0,0,1,100.2,135h.169a2.124,2.124,0,0,1,1.06.192,5.005,5.005,0,0,1,.47.246l.379.227.5.852c.136.234.273.474.414.728.121.218.241.423.362.616.141.226.24.387.3.48l.031.053a32.566,32.566,0,0,0,1.777,2.821c.695.987,1.367,2.025,2,3.085l.073.134.133.281c.046.1.1.2.157.3.1.17.179.329.255.477l.014.027c.044.061.082.119.118.176.067.108.127.209.186.315l.145.261.06.11c.053.078.144.207.272.389q.289.414.62.9c.211.31.414.6.607.872l.061.085c.162-.593.35-1.193.561-1.791a11.684,11.684,0,0,1,.655-1.72,8.244,8.244,0,0,0,.47-1.241l.022-.071q.384-1.15.849-2.492t.877-2.442c.03-.083.081-.217.155-.4s.161-.4.257-.626c.084-.2.163-.4.232-.57.051-.128.087-.219.1-.269.055-.169.106-.331.145-.47.059-.214.126-.416.2-.606a3.831,3.831,0,0,1,.4-.783,5.8,5.8,0,0,1,.5-.64l.523-.586h.656c.062-.012.129-.026.2-.043l.255-.067.144-.072.27-.041a12,12,0,0,1,1.6-.142q.682-.015,1.407-.015c.077,0,.23-.009.459-.024.312-.019.648-.033,1.015-.043s.693-.014,1-.014h.479c.148-.014.387-.029.807-.04q.564-.014,1.185-.014h1.126a8.279,8.279,0,0,1,.959.039l.231.029.216.088a5.935,5.935,0,0,1,.591.29,2.32,2.32,0,0,1,1.146,1.293l.06.179.02.188a4.65,4.65,0,0,1,0,.895,5.536,5.536,0,0,1-.161.922c-.056.217-.114.429-.172.631l-.136.474c-.232.878-.479,1.758-.724,2.584-.252.847-.519,1.687-.795,2.5s-.577,1.635-.893,2.455-.666,1.659-1.037,2.5c-.594,1.327-1.154,2.761-1.668,4.266q-.8,2.355-1.538,4.453c-.208.623-.484,1.326-.814,2.063s-.658,1.4-.987,2a9.314,9.314,0,0,0-.447.927,6.02,6.02,0,0,0-.285.853l-.015.067q-.1.429-.169.749c-.066.286-.145.568-.234.836s-.187.526-.306.8q-.136.321-.3.755c0,.032-.006.069-.009.109a2.778,2.778,0,0,0-.008.341l.013.11,0,.095a2.435,2.435,0,0,1-.276,1.044,3.932,3.932,0,0,1-.265.506,2.209,2.209,0,0,1-.267.371c-.071.082-.165.184-.278.3-.027.1-.055.2-.085.3s-.054.194-.071.28l-.008.041v.36l-.248.415c-.019.038-.06.135-.112.263l-.31.766c-.1.254-.2.5-.28.727-.03.079-.058.153-.085.221a5.586,5.586,0,0,1-.022.85,3.257,3.257,0,0,1-.615,1.489l-2.383,7.147a3.308,3.308,0,0,1-.24.533,4.389,4.389,0,0,1-.388.6,4.925,4.925,0,0,1-.42.481,2.286,2.286,0,0,1-1.055.623,6,6,0,0,1-.908.129,4.008,4.008,0,0,1-.838-.016l-.207.036c-.188.033-.364.06-.536.081a2.87,2.87,0,0,1-.357.022m-.8-.113h0m2.058-.052h0Zm-1.921-3.443a2.645,2.645,0,0,1,.435.037c.1.016.2.035.279.053.074-.012.151-.023.23-.037.165-.029.317-.054.447-.075a2.28,2.28,0,0,1,.863.017c.01,0,.019.007.031,0l.021-.041,2.545-7.636.189-.24c.04-.051.07-.091.09-.121,0-.1,0-.256-.025-.49l-.048-.564.29-.486c0-.015.037-.1.079-.213.093-.253.2-.526.314-.813l.318-.786c.059-.146.113-.272.164-.381l.012-.063c.035-.179.084-.376.146-.586.037-.128.072-.252.1-.369v-.55l.624-.624v-.046l.286-.291c0-.124.007-.258.016-.405a3.392,3.392,0,0,1,.242-1.17q.19-.485.341-.843c.08-.189.151-.373.21-.549s.1-.339.145-.518c.048-.209.1-.449.164-.724l.024-.107a9.726,9.726,0,0,1,.457-1.388,12.982,12.982,0,0,1,.613-1.272c.283-.516.572-1.1.86-1.745s.516-1.225.7-1.766c.5-1.415,1.005-2.89,1.537-4.45.548-1.607,1.148-3.142,1.783-4.561.346-.78.673-1.567.97-2.333s.584-1.557.844-2.323.515-1.562.753-2.364.474-1.646.706-2.516l.144-.5.026-.089h-.675q-.575,0-1.1.013c-.282.007-.479.015-.591.028l-.213.013h-.571q-.413,0-.9.013t-.89.038c-.342.022-.569.03-.676.03q-.688,0-1.335.013a8.587,8.587,0,0,0-.979.079c-.058.018-.113.034-.165.048l-.228.06c-.025.071-.048.147-.07.226-.051.185-.119.4-.2.652-.026.077-.081.224-.171.45-.077.191-.161.4-.253.621s-.168.4-.237.577c-.05.124-.084.211-.1.261l-.02.056q-.4,1.067-.854,2.376t-.823,2.416a11.8,11.8,0,0,1-.659,1.735,8.079,8.079,0,0,0-.469,1.239l-.034.107a21.824,21.824,0,0,0-.666,2.235c-.181.761-.342,1.554-.478,2.357l-.029.136a3.076,3.076,0,0,0-.052.365c-.031.308-.071.586-.119.825l-.633,3.186-2.48-2.444a2.079,2.079,0,0,1-.427-.6c-.075-.128-.171-.3-.307-.567q-.237-.462-.514-.977-.289-.535-.536-1-.161-.3-.245-.466-.11-.151-.314-.439-.3-.429-.64-.919-.32-.466-.6-.869-.307-.437-.364-.525l-.308-.55c-.018-.032-.04-.07-.064-.11a2.85,2.85,0,0,1-.318-.529c-.05-.1-.11-.211-.177-.331q-.157-.279-.278-.54l-.081-.171c-.575-.96-1.185-1.9-1.814-2.791a36.339,36.339,0,0,1-1.953-3.1l-.259-.418c-.151-.242-.3-.5-.453-.771q-.122-.218-.239-.424l-.542.055-.162.018a1.989,1.989,0,0,1-.27.054,2.232,2.232,0,0,1-.236.034l-.011,0-.1.022q-.223.069-.664.2l-1.291.38q-.711.209-1.324.376c-.311.085-.542.145-.693.182a3.619,3.619,0,0,1-.453.109l-.216.039q.563.865,1.1,1.744c.614,1,1.221,2.019,1.8,3.03s1.157,1.994,1.741,2.984c.572.968,1.176,1.943,1.795,2.9l.034.055q.159.265.5.817t.73,1.155q.4.628.739,1.172c.235.382.314.485.322.5l.151.213c.293.488.567.993.816,1.5q.346.7.678,1.41c.21.446.428.89.655,1.336a9.107,9.107,0,0,0,.682,1.127l.322.455v.146l.451.66q.464.817.953,1.689a7.468,7.468,0,0,1,.808,2.128l.546,1.258.037.2a3.183,3.183,0,0,1-.031,1.3l-.2.822-.373.922a1.868,1.868,0,0,1-.533.975l-.081.333V171l-.058.274c-.2.744-.433,1.49-.7,2.215s-.554,1.435-.856,2.147-.616,1.444-.946,2.193c-.314.716-.622,1.473-.915,2.25l-.024.06c-.027.065-.051.125-.072.18l.028,0c.244.022.47.05.673.084l.1.017h.273c.063,0,.115,0,.157,0l.122-.024h.169a5.623,5.623,0,0,1,.843.089c.292.045.605.1.932.153s.606.1.874.148l.341.058Zm-3.8-.421h0Zm-1.7-.19.1,0c-.026,0-.06,0-.1,0M118.2,169.6v0Zm-9.964-.46h0Zm-2.845-1.3h0m2.665-22.6c.065.067.119.128.166.186a1.692,1.692,0,0,0-.166-.186m-9.608-10.051h0Zm18.914-1.355-.04.02Z" transform="translate(-37.374 -55.476)" fill="#064c99"/>
        <path id="Trazado_128549" data-name="Trazado 128549" d="M338.69,119.089q-.19-.054-.57-.122t-.95-.176c-.018,0-.1-.014-.245-.041a4.851,4.851,0,0,1-.529-.136,4.509,4.509,0,0,1-.651-.258,2.546,2.546,0,0,1-.611-.408q-.054-.026-.231-.095t-.393-.163q-.217-.095-.394-.163c-.118-.044-.195-.077-.231-.095a4.179,4.179,0,0,1-.936-.516q-.448-.326-.855-.679t-.787-.72q-.38-.366-.706-.692a20.719,20.719,0,0,1-2.335-2.579,15.25,15.25,0,0,1-1.765-2.987,22.887,22.887,0,0,1-.95-2.375,15.832,15.832,0,0,1-.543-2.118,18.189,18.189,0,0,1-.258-2.158q-.067-1.114-.068-2.552V98.02a30.268,30.268,0,0,1,.815-2.918,17.253,17.253,0,0,1,1.127-2.62,17.5,17.5,0,0,1,1.534-2.39,16.338,16.338,0,0,1,2.036-2.2,12.382,12.382,0,0,1,1.738-1.412,15.3,15.3,0,0,1,1.928-1.086,1.494,1.494,0,0,0,.231-.109,2.6,2.6,0,0,1,.326-.149l.312-.122c.09-.037.153-.064.19-.082q.081,0,.407-.041c.217-.027.343-.041.38-.041q.081-.053.326-.231a3.324,3.324,0,0,0,.3-.231,1.606,1.606,0,0,0,.177-.027c.1-.018.2-.04.312-.068s.207-.05.3-.068a.387.387,0,0,0,.163-.054l.489-.122.814-.2.828-.2a3.015,3.015,0,0,1,.5-.1,3.86,3.86,0,0,1,.787-.149c.381-.045.787-.086,1.222-.123s.846-.072,1.235-.109.674-.063.855-.081h.326c.091,0,.185,0,.285.013s.176.014.231.014q.6.027,1.086.054a5.582,5.582,0,0,1,1.032.164q.76.19,1.547.352t1.547.272q.19.082.638.3t.95.489q.5.271.937.516t.6.353a4.729,4.729,0,0,1,.421.394l.746.746q.407.407.788.815t.57.624a2.468,2.468,0,0,0,.164.245q.135.19.312.448t.353.5c.118.162.213.3.286.407a19.962,19.962,0,0,1,1.615,2.96,19.173,19.173,0,0,1,1.018,2.973,23.19,23.19,0,0,1,.557,3.095,29.958,29.958,0,0,1,.176,3.3v.109c-.036.308-.077.728-.123,1.262s-.09,1.064-.135,1.588-.086,1-.122,1.412-.063.661-.082.734a15.862,15.862,0,0,1-.584,2.633,20.1,20.1,0,0,1-.964,2.471q-.516.652-.828,1.1t-.638.869q-.326.421-.747.923t-1.154,1.262a18.282,18.282,0,0,1-2.023,1.3,16.786,16.786,0,0,1-2.213,1.032,15.042,15.042,0,0,1-2.321.679,9.223,9.223,0,0,1-2.322.19h-.366q-.258,0-.57-.013l-.57-.027c-.172-.009-.294-.014-.367-.014a.607.607,0,0,0-.19-.108.626.626,0,0,0-.19-.054,2.43,2.43,0,0,0-.245.027q-.19.027-.421.068t-.435.068a.553.553,0,0,1-.258,0q-.109,0-.5-.04c-.262-.027-.547-.063-.855-.109l-.855-.122a3.9,3.9,0,0,1-.475-.081h-.272Zm-3.557-18.653a13.289,13.289,0,0,0,.136,1.494,5.848,5.848,0,0,0,.408,1.439,1.048,1.048,0,0,0,.135.3,1.091,1.091,0,0,1,.136.3q.108.353.217.761t.23.814a7.451,7.451,0,0,0,.285.787,2.8,2.8,0,0,0,.408.679q.081.081.272.285c.126.136.253.272.38.408s.245.262.353.38a1.158,1.158,0,0,0,.217.2,2.182,2.182,0,0,0,.176.136q.149.109.353.231c.136.081.272.168.407.258a1.917,1.917,0,0,0,.339.19l.272.19q.081.055.352.244a1.1,1.1,0,0,0,.326.19.745.745,0,0,0,.272.123,1.23,1.23,0,0,0,.352.068,3.407,3.407,0,0,0,.856.312,1.449,1.449,0,0,0,.488,0c.136-.027.281-.054.435-.082a2.361,2.361,0,0,1,.72.041c.017,0,.081,0,.19-.013s.227-.023.353-.041l.38-.054a2.981,2.981,0,0,0,.3-.054,6.35,6.35,0,0,0,2.389-.869,7.7,7.7,0,0,0,1.942-1.683,7.791,7.791,0,0,0,1.29-2.24,7.131,7.131,0,0,0,.461-2.511c0-.054,0-.276.013-.665s.05-1.072.123-2.05a3.55,3.55,0,0,0-.285-1.385q-.285-.678-.5-1.384a4.251,4.251,0,0,0-1.235-1.833A18.258,18.258,0,0,0,347.3,94.03c-.38-.253-.729-.466-1.045-.638a6.1,6.1,0,0,0-.964-.421,6.194,6.194,0,0,0-1.018-.244,11.032,11.032,0,0,0-1.209-.109q-.625-.027-1.086-.013a5.965,5.965,0,0,0-1.086.15,11.743,11.743,0,0,0-1.412.38,8.418,8.418,0,0,0-1.4.611,5.506,5.506,0,0,0-1.195.883,3.133,3.133,0,0,0-.774,1.195l-.461,1.3a2.221,2.221,0,0,0-.3.624,6,6,0,0,0-.217.883,5.616,5.616,0,0,0-.082.95,4.089,4.089,0,0,0,.082.855" transform="translate(-135.029 -34.555)" fill="#135c56"/>
        <path id="Trazado_128550" data-name="Trazado 128550" d="M392.408,121.062l-1.574-.136c-.145.018-.227.013-.245-.014a.543.543,0,0,1-.054-.177,3.95,3.95,0,0,1-.013-.556,2.571,2.571,0,0,0-.041-.557,1.1,1.1,0,0,0-.135-.475,1.006,1.006,0,0,1-.136-.421,1.826,1.826,0,0,1-.027-.3.393.393,0,0,1,.136-.272,15.961,15.961,0,0,0,.055-1.71q0-1.33-.055-3.217t-.122-4.127q-.067-2.239-.149-4.466t-.136-4.209q-.055-1.982-.054-3.367a3.491,3.491,0,0,0-.027-.719c-.037-.3-.078-.615-.123-.95s-.086-.656-.122-.964a2.634,2.634,0,0,1,0-.759c0-.037,0-.123-.013-.259a1.31,1.31,0,0,0-.041-.284.135.135,0,0,1-.15-.136c-.009-.091-.023-.18-.04-.271l-.027-.217.163-.272a9.326,9.326,0,0,0,.027-1.209q-.027-.5-.081-1.181c0-.072-.005-.163-.014-.272s-.023-.227-.041-.353a3.1,3.1,0,0,1-.027-.435.814.814,0,0,0-.1-.244.793.793,0,0,1-.095-.244,1.365,1.365,0,0,1,.04-.231,1.337,1.337,0,0,1,.068-.231v-.2q0-.176.014-.366t.027-.353a.693.693,0,0,1,.041-.217l.054-.054a.16.16,0,0,0,.027-.109,16.178,16.178,0,0,0,1.792-.313A9.006,9.006,0,0,1,393,85.983a14.124,14.124,0,0,1,2.145.054q1.031.109,2.117.244a2.878,2.878,0,0,0,.394.041,5.008,5.008,0,0,1,.516.054,1.275,1.275,0,0,1,.475.176.515.515,0,0,1,.244.407,1.843,1.843,0,0,1-.041.761,1.945,1.945,0,0,0-.04.787v.081a.192.192,0,0,0,.013.082.118.118,0,0,1,.014.054c.126-.054.289-.131.488-.231l.624-.312c.217-.109.43-.212.638-.312s.366-.177.475-.231c.036-.018.14-.072.312-.162s.286-.154.339-.19a1.932,1.932,0,0,0,.313-.068c.171-.045.267-.086.285-.122a4.11,4.11,0,0,1,.611-.326c.244-.109.492-.212.747-.312s.484-.186.693-.258a2.157,2.157,0,0,0,.393-.163,4.694,4.694,0,0,1,1.385-.326q.705-.053,1.466-.081a9.061,9.061,0,0,1,2.5.19,14.954,14.954,0,0,1,2.457.746,13.245,13.245,0,0,1,2.145,1.086,9.11,9.11,0,0,1,1.561,1.208c.126.145.266.322.421.529s.3.426.435.652a6.861,6.861,0,0,1,.353.665,1.928,1.928,0,0,1,.176.6.857.857,0,0,1-.163.42,4.641,4.641,0,0,1-.394.53,6.136,6.136,0,0,1-.461.488,1.7,1.7,0,0,1-.339.271,1.469,1.469,0,0,1-.135.109c-.072.054-.149.108-.231.162l-.245.164a1.293,1.293,0,0,0-.148.108c-.073.054-.177.132-.313.231s-.271.2-.407.312-.262.208-.38.3-.186.145-.2.163a10.061,10.061,0,0,0-.883.761,9.025,9.025,0,0,1-.9.76,5.67,5.67,0,0,1-1,.6,3.1,3.1,0,0,1-1.181.272h-.543a1.015,1.015,0,0,1-.135-.054,1.379,1.379,0,0,1-.19-.082,25.792,25.792,0,0,0-2.362-1.058,6.413,6.413,0,0,0-2.5-.462,2.2,2.2,0,0,0-1.52.679,14.992,14.992,0,0,0-1.113,1.3,2.278,2.278,0,0,1-.3.38,1.69,1.69,0,0,0-.3.407c-.036.072-.108.2-.217.367s-.222.357-.339.557-.235.4-.353.61a2.483,2.483,0,0,0-.23.5,4.186,4.186,0,0,0-.326,1.384q-.054.761-.109,1.439a32.3,32.3,0,0,0-.339,4.982,40.824,40.824,0,0,0,.285,4.222q.136,1.467.326,2.879t.325,2.878c.019.108.037.3.055.584s.04.57.068.869.054.589.081.869.041.475.041.584a1.049,1.049,0,0,0-.1.054.849.849,0,0,1-.095.054l-.109.054h-.162a.525.525,0,0,1-.163-.04.442.442,0,0,1-.162-.1Z" transform="translate(-161.841 -35.605)" fill="#18756e"/>
        <path id="Trazado_128551" data-name="Trazado 128551" d="M366.95,202.733c-.152,0-.3,0-.454-.01h-.327c-.2,0-.411,0-.647-.015l-.586-.028c-.128-.007-.22-.012-.274-.012h-.717l-.085-.084c-.157.027-.308.051-.451.069a2.469,2.469,0,0,1-.725,0c-.114-.008-.261-.02-.44-.039-.289-.03-.6-.069-.934-.119l-.84-.12c-.173-.024-.308-.044-.42-.065h-.325l-.916-.256c-.089-.025-.224-.051-.4-.084-.24-.043-.542-.1-.9-.167-.089-.012-.186-.03-.305-.053a6.541,6.541,0,0,1-.719-.183,6.258,6.258,0,0,1-.9-.355,4.339,4.339,0,0,1-.756-.463c-.128-.05-.27-.109-.424-.177-.115-.05-.224-.1-.321-.133-.117-.044-.211-.084-.281-.115a5.965,5.965,0,0,1-1.281-.711c-.339-.247-.665-.506-.973-.773s-.582-.518-.859-.784c-.259-.249-.5-.488-.725-.711a22.219,22.219,0,0,1-2.493-2.761,17.014,17.014,0,0,1-1.967-3.327,24.8,24.8,0,0,1-1.018-2.547,17.751,17.751,0,0,1-.6-2.352A20.041,20.041,0,0,1,343.6,184c-.047-.777-.071-1.672-.071-2.658v-2.234l.044-.193a32.031,32.031,0,0,1,.862-3.088,19.145,19.145,0,0,1,1.241-2.884,19.407,19.407,0,0,1,1.688-2.627,18.21,18.21,0,0,1,2.252-2.435,13.9,13.9,0,0,1,1.943-1.572,17.184,17.184,0,0,1,2.15-1.212l.129-.056a4.511,4.511,0,0,1,.553-.255l.372-.148.37-.185.351.012.177-.02.081-.06.462-.462h.593c.061-.011.119-.024.178-.038l.012-.011,2.61-.648c.234-.057.411-.093.56-.116a6.568,6.568,0,0,1,.938-.166q.6-.071,1.282-.129c.43-.036.835-.071,1.218-.107s.665-.062.844-.08l.175-.009h.326c.141,0,.289.007.445.021l.151.008q.605.028,1.1.055a7.317,7.317,0,0,1,1.362.213q.724.181,1.477.336c.491.1.975.187,1.439.253l.234.033.216.093c.14.061.377.17.707.331s.659.33,1.018.523.667.363.964.531q.514.291.707.421a4.672,4.672,0,0,1,.689.614l.746.747q.429.429.829.857t.607.665l.157.178.063.13.051.072c.1.138.208.295.332.475.112.164.22.318.329.468.133.184.239.337.321.46a21.867,21.867,0,0,1,1.766,3.235,21.1,21.1,0,0,1,1.11,3.243,25.024,25.024,0,0,1,.6,3.329,31.852,31.852,0,0,1,.188,3.493l-.012.315q-.053.44-.117,1.2l-.258,3c-.044.5-.071.729-.1.883a17.771,17.771,0,0,1-.64,2.86,22.066,22.066,0,0,1-1.048,2.686l-.087.186-.127.161c-.319.4-.577.743-.763,1.012q-.339.487-.692.942c-.228.294-.491.62-.788.975s-.724.823-1.236,1.353l-.216.189a20.1,20.1,0,0,1-2.216,1.428,18.628,18.628,0,0,1-2.442,1.138,16.95,16.95,0,0,1-2.59.758,11.179,11.179,0,0,1-2.262.235m-3.516-.568,0,0Zm1.688-2.985h0l.554.027q.27.011.494.011l.45,0a7.654,7.654,0,0,0,1.882-.155,13.414,13.414,0,0,0,2.052-.6,15.134,15.134,0,0,0,1.985-.925,16.761,16.761,0,0,0,1.716-1.095c.408-.425.734-.784.971-1.065q.4-.473.7-.87t.587-.8c.2-.287.455-.63.761-1.02a18.438,18.438,0,0,0,.8-2.075,14.322,14.322,0,0,0,.519-2.345l.02-.127c.013-.1.03-.275.051-.52l.257-2.994q.064-.751.116-1.216V183.4a28.25,28.25,0,0,0-.166-3.105,21.393,21.393,0,0,0-.515-2.86,17.437,17.437,0,0,0-.925-2.7,18.326,18.326,0,0,0-1.474-2.7c-.054-.079-.136-.2-.24-.34-.127-.176-.253-.356-.38-.542-.108-.157-.207-.3-.292-.419-.056-.078-.1-.146-.146-.21q-.169-.187-.44-.48-.36-.384-.746-.77l-.747-.747c-.1-.1-.169-.168-.224-.219-.091-.055-.23-.136-.415-.239q-.422-.238-.909-.5-.467-.252-.883-.455c-.147-.071-.271-.13-.371-.177-.459-.07-.931-.155-1.4-.254q-.822-.169-1.617-.369a3.8,3.8,0,0,0-.705-.113c-.31-.017-.658-.034-1.04-.052-.087,0-.2-.008-.339-.02-.043,0-.085-.006-.125-.006H364.7l-.781.074q-.591.055-1.253.11-.617.052-1.16.117a3.373,3.373,0,0,0-.43.067l-.3.112-.182-.012c-.048.01-.106.024-.174.04l-1.963.488a2.556,2.556,0,0,1-.407.113c-.058.012-.132.029-.213.048l-.178.043,0,0q-.293.211-.392.275l-.437.288h-.459l-.23.027-.193.023-.3.119a.774.774,0,0,0-.108.048,3.714,3.714,0,0,1-.391.188,13.4,13.4,0,0,0-1.643.931,10.626,10.626,0,0,0-1.49,1.212,14.9,14.9,0,0,0-1.86,2,15.9,15.9,0,0,0-1.383,2.152,15.639,15.639,0,0,0-1.012,2.355c-.269.8-.512,1.658-.723,2.559v1.837c0,.916.022,1.739.064,2.446a16.622,16.622,0,0,0,.232,1.951,14.263,14.263,0,0,0,.484,1.884,21.432,21.432,0,0,0,.878,2.193,13.605,13.605,0,0,0,1.567,2.656,19.012,19.012,0,0,0,2.138,2.362c.249.248.477.471.723.707s.471.444.718.658.483.4.741.588a2.406,2.406,0,0,0,.539.3l.214.088c.154.06.308.123.477.2.121.054.226.1.32.133.187.072.309.126.367.153l.225.109.185.167a.831.831,0,0,0,.193.128,2.765,2.765,0,0,0,.4.161,3.17,3.17,0,0,0,.342.091l.254.043q.557.106.929.172c.331.06.576.114.739.161l.474.124h.287l.187.063c.058.01.138.022.24.035l.867.124c.287.042.547.075.787.1.166.016.285.029.353.031h.1c.084-.012.167-.026.253-.041.177-.031.335-.056.477-.077a4.014,4.014,0,0,1,.495-.044,2.225,2.225,0,0,1,.835.178h0m-4.35-.286.026.008-.026-.008m17.858-10.814,0,.018Zm-.753-19.392.012.024-.012-.024m-23.965-3.674-.015,0Zm1.789-.592-.013.014Zm1.667-.628h0m5.512,29.488a3.615,3.615,0,0,1-.515-.039,4.228,4.228,0,0,1-1.095-.343,3.555,3.555,0,0,1-.387-.1,2.814,2.814,0,0,1-.547-.226,3.551,3.551,0,0,1-.536-.325c-.162-.115-.273-.19-.323-.224l-.171-.12a4.084,4.084,0,0,1-.435-.257c-.112-.075-.224-.146-.336-.213-.184-.109-.346-.217-.484-.317-.078-.056-.143-.1-.2-.151a3.058,3.058,0,0,1-.45-.419l-.727-.779c-.1-.11-.18-.193-.226-.239l-.116-.128a4.565,4.565,0,0,1-.664-1.1,8.977,8.977,0,0,1-.352-.971q-.131-.435-.246-.871c-.06-.223-.121-.438-.181-.639l-.012-.02a3.184,3.184,0,0,1-.269-.592,7.618,7.618,0,0,1-.473-1.738,14.979,14.979,0,0,1-.148-1.546,6,6,0,0,1-.089-1.058,7.419,7.419,0,0,1,.107-1.245,7.7,7.7,0,0,1,.283-1.143,4.3,4.3,0,0,1,.378-.85l.392-1.107a4.9,4.9,0,0,1,1.2-1.865,7.315,7.315,0,0,1,1.573-1.163,10.245,10.245,0,0,1,1.688-.737,13.662,13.662,0,0,1,1.623-.436,7.543,7.543,0,0,1,1.379-.183c.349-.011.756-.005,1.215.015a12.794,12.794,0,0,1,1.4.127,7.981,7.981,0,0,1,1.305.313,7.877,7.877,0,0,1,1.245.543c.369.2.765.443,1.182.721a20.3,20.3,0,0,1,1.959,1.508,6.022,6.022,0,0,1,1.738,2.575l.02.064c.127.412.276.822.443,1.22a5.321,5.321,0,0,1,.422,2.064l-.005.131c-.086,1.165-.112,1.709-.118,1.96q-.012.538-.012.626a8.9,8.9,0,0,1-.572,3.123,9.514,9.514,0,0,1-3.96,4.807,8.127,8.127,0,0,1-2.972,1.095c-.1.023-.233.046-.387.067l-.38.054c-.156.023-.308.04-.45.052-.191.016-.3.02-.336.02l-.29-.025c-.106-.018-.173-.025-.211-.028l-.307.058a2.83,2.83,0,0,1-.569.056m-.824-3.838h.1l.358.169c.187.089.3.133.359.155.115-.023.234-.044.36-.067a3.569,3.569,0,0,1,1.093,0c.071-.006.145-.015.226-.027l.38-.054c.056-.007.1-.013.128-.02l.163-.032a4.573,4.573,0,0,0,1.736-.632,5.97,5.97,0,0,0,1.5-1.3,6.054,6.054,0,0,0,1-1.738,5.4,5.4,0,0,0,.351-1.9c0-.058,0-.293.013-.706s.05-1.1.121-2.063a1.8,1.8,0,0,0-.148-.654c-.206-.492-.392-1-.55-1.511a2.514,2.514,0,0,0-.724-1.065,16.621,16.621,0,0,0-1.607-1.239c-.322-.214-.628-.4-.9-.551a4.4,4.4,0,0,0-.682-.3,4.519,4.519,0,0,0-.728-.174,9.35,9.35,0,0,0-1.013-.089c-.378-.017-.7-.023-.963-.013a4.273,4.273,0,0,0-.765.11,10.189,10.189,0,0,0-1.23.329,6.763,6.763,0,0,0-1.108.484,3.736,3.736,0,0,0-.817.6,1.4,1.4,0,0,0-.349.534l-.547,1.546-.15.2h0s-.019.049-.049.14a4.19,4.19,0,0,0-.154.626,3.906,3.906,0,0,0-.056.655,2.36,2.36,0,0,0,.043.488l.037.306a11.737,11.737,0,0,0,.118,1.3,4.128,4.128,0,0,0,.287,1.012l.061.143a2.9,2.9,0,0,1,.3.71q.1.344.209.734c.068.259.14.513.216.765a5.74,5.74,0,0,0,.217.6,1.143,1.143,0,0,0,.12.217q.089.092.228.242l.877.906c.065.048.138.094.222.144.164.1.324.2.483.306l.053.034.149.059.44.308.171.117h.238Zm-1.225-.692,0,0,0,0m-.69-.432.026.027-.026-.027" transform="translate(-142.866 -67.631)" fill="#18756e"/>
        <path id="Trazado_128552" data-name="Trazado 128552" d="M542.617,78.094a6.579,6.579,0,0,1-.773-.3q-.422-.19-.856-.421t-.828-.448q-.394-.217-.72-.407c-.018-.018-.068-.059-.149-.122s-.176-.136-.285-.217-.217-.167-.325-.258-.191-.164-.245-.218a1.85,1.85,0,0,1-.434-.353c-.092-.109-.177-.217-.259-.326a1.554,1.554,0,0,0-.3-.3,1.71,1.71,0,0,0-.529-.244.626.626,0,0,1-.041.176.662.662,0,0,0-.04.177.584.584,0,0,0-.041.19c-.009.091-.018.195-.027.313s-.018.227-.027.326-.013.176-.013.231a2.163,2.163,0,0,0-.041.367c-.009.172-.019.362-.027.57s-.014.4-.014.571v.366l-.3.353-6.082.3a1,1,0,0,0-.488-.136c-.164,0-.336.009-.516.026l-1.765-.162q-.38.055-.679.068a3.889,3.889,0,0,1-.57-.013,2.789,2.789,0,0,1-.543-.109q-.272-.081-.624-.19a1.08,1.08,0,0,1-.231-.122q-.15-.095-.23-.15a.794.794,0,0,1-.3-.258.869.869,0,0,1-.19-.339,8.621,8.621,0,0,1-.258-1.656q-.041-.788-.1-1.657,0-.163-.013-.407t-.014-.475c0-.153,0-.289-.013-.407s-.014-.185-.014-.2l.435-12.761v-.163q.081-1.765.19-3.625t.162-3.624q0-.189-.013-.9t-.014-1.507q0-.8.014-1.507c.009-.47.013-.769.013-.9q.026-1.467-.013-3.068t-.122-3.15c0-.054,0-.15-.014-.285s-.018-.276-.027-.421-.018-.285-.027-.421-.013-.221-.013-.258V36.08q0-1.1.013-2.077t.068-1.412a.44.44,0,0,1,.245-.327,1.216,1.216,0,0,1,.38-.054,1.805,1.805,0,0,1,.624.054,1.889,1.889,0,0,0,.651.055,10.055,10.055,0,0,0,1.385-.2q.678-.148,1.357-.231,1-.135,1.9-.217t1.819-.136h.434a1.254,1.254,0,0,0,.245-.026q.082,0,.407.04a.883.883,0,0,1,.38.1c.018,0,.085,0,.2.013s.235.014.353.014.23,0,.339.013.181.014.217.014c.162.054.294.23.394.529a5.917,5.917,0,0,1,.23.978c.054.352.091.688.109,1s.027.52.027.61v.271a.591.591,0,0,0,.027.191l-.435,6.9-.9,3.991a9.749,9.749,0,0,0,1.073-1q.556-.6,1.222-1.181a9.15,9.15,0,0,1,1.493-1.058,5.835,5.835,0,0,1,1.887-.665,16.163,16.163,0,0,1,2.267-.557,19.938,19.938,0,0,1,2.375-.231,12.269,12.269,0,0,1,4.263.72,34.466,34.466,0,0,1,4.371,1.914q.217.19.692.6t1,.842l.991.814.625.516q.623.626,1.154,1.209a14.976,14.976,0,0,1,.977,1.195,12.707,12.707,0,0,1,.828,1.29q.38.679.733,1.466.19.489.394,1.127t.353,1.317q.149.679.244,1.357t.122,1.249q.027.651.014,1.167t-.068,1q-.054.489-.122.991t-.149,1.154a25.223,25.223,0,0,1-2.349,7.629,18.4,18.4,0,0,1-5.009,6.164,16.457,16.457,0,0,1-1.521,1.126,11.66,11.66,0,0,1-1.506.828,12.878,12.878,0,0,1-1.629.61,14.429,14.429,0,0,1-1.86.421c-.037,0-.113,0-.231.013s-.2.014-.258.014a1.871,1.871,0,0,1-.353.027h-.272q-.217,0-.787-.013l-1.2-.027q-.625-.013-1.181-.04t-.746-.055m-6.6-16.371a2.249,2.249,0,0,0,.082.394,1.069,1.069,0,0,0,.135.366,8.8,8.8,0,0,0,.6,1.643,6.714,6.714,0,0,0,.841,1.317,8.046,8.046,0,0,0,1.113,1.113,15.817,15.817,0,0,0,1.412,1.032q.625.38,1.3.733a3.65,3.65,0,0,0,1.439.407c.036,0,.177.018.421.054a2.627,2.627,0,0,0,.638.027q0,.054.231,0c.153-.036.335-.086.543-.149l.625-.19c.207-.063.366-.113.475-.149a10.461,10.461,0,0,0,1.819-1.235,9.508,9.508,0,0,0,1.466-1.67c.072-.091.177-.239.312-.448s.272-.43.408-.665.258-.457.366-.665a2.033,2.033,0,0,0,.19-.447q.053-.136.162-.475t.217-.733q.109-.393.2-.719a1.957,1.957,0,0,0,.1-.462.85.85,0,0,0,.027-.312v-.679c0-.262,0-.533.013-.815s.014-.511.014-.692a.11.11,0,0,1-.027-.082v-.353c-.019-.108-.041-.244-.068-.407s-.05-.325-.068-.489-.036-.307-.054-.434a1.04,1.04,0,0,0-.054-.245.294.294,0,0,0-.068-.149,1.292,1.292,0,0,0-.122-.15c-.018-.018-.059-.054-.122-.109s-.131-.113-.2-.176-.14-.127-.2-.19l-.122-.122c0-.037-.005-.14-.013-.312s-.014-.285-.014-.339l-.054-.109a.4.4,0,0,0-.068-.1l-.068-.068c-.054-.054-.177-.18-.367-.38a1.569,1.569,0,0,0-.421-.353.385.385,0,0,0-.163-.488.718.718,0,0,0-.489-.163q-1-.652-1.806-1.086a6.783,6.783,0,0,0-1.643-.637,6.287,6.287,0,0,0-1.887-.136,15.82,15.82,0,0,0-2.539.421,5.256,5.256,0,0,0-2.158,1.711,10.455,10.455,0,0,0-1.426,2.592,13.668,13.668,0,0,0-.76,2.933,14.631,14.631,0,0,0-.163,2.728Z" transform="translate(-217.807 -13.102)" fill="#f05a24"/>
        <path id="Trazado_128553" data-name="Trazado 128553" d="M595.02,73.124q-.054-.272-.19-.841t-.284-1.209q-.15-.637-.272-1.195a7.28,7.28,0,0,1-.15-.855,2.986,2.986,0,0,1-.042-.475c-.009-.244-.023-.506-.04-.787s-.032-.543-.04-.787a2.456,2.456,0,0,0-.041-.448q0-.135-.014-.353c-.009-.144-.023-.29-.04-.435s-.037-.28-.054-.407a1.821,1.821,0,0,0-.054-.272l-.109-.272a.842.842,0,0,1-.027-.285V64q0-.272.013-.489c.009-.145.014-.235.014-.272q-.055-.678-.068-1.547t-.026-1.751q-.015-.882-.014-1.725V56.7q0-.95.014-1.724t.04-1.467q.026-.692.1-1.33t.149-1.317q.054-.3.584-.5a2.83,2.83,0,0,1,1.018-.2h1.276a5.614,5.614,0,0,1,.692.054q.421.054.842.122l.746.122a2.225,2.225,0,0,1,.38.082c.036,0,.164.009.38.027s.448.041.692.068.476.054.693.082a3.063,3.063,0,0,1,.407.068,1.875,1.875,0,0,0,.394.04c.207.01.435.014.679.014s.475,0,.693.013a2.678,2.678,0,0,1,.434.041,1.127,1.127,0,0,1,.231.245.554.554,0,0,1,.082.2,1.222,1.222,0,0,1,0,.244c-.01.1-.014.222-.014.367V53.06a19.282,19.282,0,0,0-.163,1.969q-.027.937-.027,2.022,0,1.738.068,3.435t.013,3.706l.163,1.466v.434a11.7,11.7,0,0,1,.19,1.385q.054.706.122,1.425t.177,1.439a7.945,7.945,0,0,0,.353,1.426c.036.091.086.213.149.367s.131.312.2.475.136.312.19.448a1.114,1.114,0,0,0,.109.231,2.171,2.171,0,0,0,.624.9,5.751,5.751,0,0,0,1.806,1.072,5.15,5.15,0,0,0,.556.177c.037.018.163.068.38.15s.371.14.462.176a.621.621,0,0,0,.366.013c.191-.027.3-.041.34-.041a6.286,6.286,0,0,0,1.29-.176,5.07,5.07,0,0,0,1.669-.746,7.761,7.761,0,0,0,1.48-2.2,9.37,9.37,0,0,0,.652-2.28,14.163,14.163,0,0,0,.149-2.43q-.026-1.263-.027-2.675v-.9c0-.091,0-.325-.013-.706s-.023-.791-.04-1.235-.032-.856-.042-1.235-.013-.615-.013-.706V57.757c-.018-.09-.041-.271-.068-.543s-.068-.593-.123-.964-.109-.764-.163-1.181-.109-.8-.163-1.167-.1-.675-.136-.937a4.653,4.653,0,0,1-.054-.53l.272-2.335a.55.55,0,0,1,.339-.258,2.18,2.18,0,0,1,.5-.082q.271-.013.53,0a2.227,2.227,0,0,0,.448-.014,1.591,1.591,0,0,0,.176-.026l.313-.054c.108-.018.207-.037.3-.055a1.465,1.465,0,0,1,.163-.027l3.313.244a.961.961,0,0,0,.407.068c.217.01.448.014.692.014h.692a1.349,1.349,0,0,1,.38.027c.109-.019.276-.037.5-.055s.461-.032.706-.04l.679-.027c.208-.009.349-.013.421-.013l.325.109a.574.574,0,0,1,.5.258,1.994,1.994,0,0,1,.272.679,5.849,5.849,0,0,1,.121.991q.027.57.027,1.221v.516q0,.544-.054,1.086c-.037.362-.072.724-.109,1.086a6.052,6.052,0,0,0-.027.746c0,.39,0,.8.014,1.236s.013.846.013,1.235a6.039,6.039,0,0,1-.027.746,5.5,5.5,0,0,1-.068.557q-.067.449-.149.964t-.15.963q-.068.449-.1.557,0,.136-.04.651t-.1,1.154q-.055.638-.122,1.249t-.1.936a3.033,3.033,0,0,1-.041.312c-.028.172-.058.353-.1.543s-.072.371-.108.543a1.961,1.961,0,0,1-.082.312v.666q0,.23-.013.434a.551.551,0,0,1-.041.231.949.949,0,0,1-.04.163c-.027.091-.06.19-.1.3s-.068.213-.1.312a1.237,1.237,0,0,0-.041.177q-.244,1.032-.393,1.914t-.3,1.71q-.149.829-.353,1.683a18.713,18.713,0,0,1-.557,1.86,6.255,6.255,0,0,1-.651,1.3q-.462.733-.991,1.452t-1.031,1.331a9.1,9.1,0,0,1-.8.883,3,3,0,0,1-.978.882,9.424,9.424,0,0,1-1.357.651q-.733.287-1.466.516t-1.248.421a5.856,5.856,0,0,1-1.779.421q-.91.068-1.833.068-.815,0-1.643.013t-1.67-.027a11.4,11.4,0,0,1-1.669-.2,7.9,7.9,0,0,1-1.588-.488,19.486,19.486,0,0,1-3-1.643q-1.4-.937-2.783-2.077a4.529,4.529,0,0,1-.421-.421q-.258-.285-.543-.584t-.57-.557a1.915,1.915,0,0,0-.475-.339q.108.081-.082-.407t-.57-1.358a8.555,8.555,0,0,1-.326-.9q-.19-.6-.366-1.29t-.326-1.357q-.149-.665-.2-1.072" transform="translate(-246.861 -20.622)" fill="#e16b7a"/>
        <path id="Trazado_128554" data-name="Trazado 128554" d="M659.192,77.975a.606.606,0,0,0,.108-.217.912.912,0,0,0,.054-.217c0-.09,0-.244.014-.461s.018-.448.028-.693.013-.47.013-.679V75.26q0-.217.013-.584t.027-.734c.009-.244.014-.457.014-.638V72.178q0-.638-.014-1.371t-.027-1.372q-.014-.638-.013-.8c0-.054,0-.19.013-.407s.018-.452.027-.706.014-.488.014-.706a1.757,1.757,0,0,0-.028-.408c0-.054-.009-.2-.027-.447s-.041-.5-.068-.774-.054-.53-.082-.774-.041-.394-.041-.447q-.027-.38-.04-1.141t-.041-1.724q-.027-.963-.054-2.023t-.054-2.009q-.028-.95-.054-1.71t-.028-1.14l-.082-.326q-1.059.054-2.239.013a19.655,19.655,0,0,1-2.266-.2.365.365,0,0,0-.027-.122c-.019-.045-.046-.113-.082-.2,0-.036-.036-.045-.109-.027s-.09.009-.054-.027q0-.244-.041-.787t-.081-1.249q-.04-.706-.081-1.48t-.082-1.48c-.026-.47-.05-.891-.068-1.262s-.036-.638-.054-.8v-.3a1.289,1.289,0,0,1,.258-.8,1.22,1.22,0,0,1,.72-.447,6.451,6.451,0,0,0,1.955-.027,12.025,12.025,0,0,1,1.927-.163h.435a.615.615,0,0,0,.406-.163v-.516a33.956,33.956,0,0,0-.135-4.1,33.984,33.984,0,0,1-.136-4.1v-.38c0-.181,0-.376.013-.584s.018-.408.027-.6.013-.321.013-.394c.018-.145.123-.24.313-.285a2.824,2.824,0,0,1,1.045.095q.19-.026.639-.068t.937-.095q.487-.054.922-.1c.289-.027.49-.05.6-.068.054,0,.2,0,.448.013s.5.014.774.014.525,0,.76.013.37.013.407.013h.327c.108,0,.271.005.488.014s.435.023.652.041c.254.018.516.037.787.054l.3.326a1.911,1.911,0,0,1-.028.258q-.027.177-.054.367c-.018.127-.032.249-.041.366a.705.705,0,0,0,.013.258.658.658,0,0,1,.109.164.415.415,0,0,1,.054.163q.135,1.086.19,2.117t.055,2.226c0,.2,0,.484.013.855s.018.783.027,1.235.018.915.027,1.385,0,.9-.013,1.3a.287.287,0,0,0,.082.231.4.4,0,0,0,.231.081,1.065,1.065,0,0,0,.3-.013,1.469,1.469,0,0,1,.258-.027h.109a5.633,5.633,0,0,1,1.683-.272h1.765c.055,0,.136,0,.244.013s.217.014.325.014a3.114,3.114,0,0,0,.435.027l.162.923q.027,1.412-.014,2.729a15.831,15.831,0,0,0,.177,2.783v2.091a.707.707,0,0,1-.136.462.91.91,0,0,1-.312.244,2.452,2.452,0,0,1-.38.136c-.136.036-.258.072-.367.109l-.787.163H669.7l-.054,2.335c0,.036-.009.122-.026.258s-.033.282-.042.435-.018.294-.026.421,0,.2.04.217q-.055.924-.027,1.711t.095,1.534q.068.747.163,1.52T670,64.128l-.3,14.227a.519.519,0,0,1-.284.448.987.987,0,0,1-.5.177l-5.945-.027a.96.96,0,0,1-.327.1,2.829,2.829,0,0,1-.3.04.969.969,0,0,1-.244-.068,1.059,1.059,0,0,0-.245-.068c-.055,0-.159-.009-.312-.027l-.49-.054c-.172-.018-.335-.036-.488-.054a1.145,1.145,0,0,1-.286-.054,4.936,4.936,0,0,1-.692-.122.5.5,0,0,1-.393-.557Z" transform="translate(-271.855 -13.798)" fill="#db4051"/>
        <path id="Trazado_128555" data-name="Trazado 128555" d="M539.712,183.438c-.139,0-.279,0-.418,0a10.806,10.806,0,0,1-1.494-.15l-.356-.06-.315-.178a3.183,3.183,0,0,1-1.709-2.19l-.035-.186-.009-.3c-.012-.162-.018-.351-.018-.558,0-.105,0-.2-.009-.3-.013-.2-.018-.341-.018-.422,0-.124.006-.285.018-.481.006-.1.009-.21.009-.319,0-.214.008-.4.02-.566l.009-.13q.053-1.424.094-3.047l.081-3.325q.041-1.694.1-3.345t.109-3.091c.036-1.027.076-2.13.122-3.3.044-1.141.067-2.225.067-3.22v-.543c0-.256-.005-.551-.013-.884l-.054-2.3q-.015-.571-.014-1V153c0-.025,0-.154.017-.386.007-.131.01-.288.01-.47,0-.256,0-.51.016-.766.007-.185.012-.343.012-.469s0-.291-.012-.5c-.011-.253-.015-.517-.015-.78,0-.2,0-.37-.011-.522-.012-.237-.016-.381-.016-.429a4.875,4.875,0,0,1,.06-.658l.079-.6c.029-.225.057-.44.085-.641,0-.029.008-.054.012-.078a6.274,6.274,0,0,1,0-.637l.027-.92c.008-.343.023-.679.043-1,.014-.234.023-.4.023-.487s0-.356.015-.779l.054-2.555c.009-.369.013-.6.013-.683l-.01-.2c-.011-.2-.016-.445-.016-.721q0-.311-.012-.61c-.009-.26-.015-.473-.015-.639,0-.081,0-.283.015-.607q.012-.4.012-.859,0-.527.015-.981c.008-.24.012-.4.012-.486l.009-.2a2.966,2.966,0,0,1,1.915-2.511,6.4,6.4,0,0,1,1.95-.445,14.092,14.092,0,0,1,1.609-.032l.109,0,.065-.033h1.3l.387-.166,4.781,0,1.317,1.45.005.051a16.862,16.862,0,0,1,2.6-.955,15.285,15.285,0,0,1,2.466-.468l1.747-.159,1.006,0q.442.03,1.106.1c.436.048.874.107,1.317.174q.6.091,1.1.156l1.01.159c.089.026.233.056.428.095q.447.089.938.208l.838.2a6.056,6.056,0,0,1,.8.236c.1.038.242.1.433.183.212.1.426.2.649.309.241.12.461.239.665.357s.365.218.49.306.283.188.489.337.426.313.651.481c.241.181.463.353.669.52.269.218.45.38.551.48s.184.178.269.251c.135.113.286.25.429.393a.756.756,0,0,0,.06.056l.239.178.15.216c.407.542.8,1.037,1.162,1.47a10.029,10.029,0,0,1,1.357,2.166c.2.415.408.857.626,1.322a9.522,9.522,0,0,1,.6,1.612c.047.144.087.3.133.5q.075.329.15.717c.036.191.074.368.11.532l.02.036.463.455v.938a3.062,3.062,0,0,1-.162.99c.006.431.029.854.07,1.26a18.127,18.127,0,0,1,.093,1.849l0,1.208c-.056,1.194-.141,2.315-.254,3.334a25.927,25.927,0,0,1-.532,3.085,22.794,22.794,0,0,1-.939,3,30.042,30.042,0,0,1-1.414,3.062l-.867,1.728c-.049.075-.158.224-.331.446a3.917,3.917,0,0,1-.522.571q-.155.149-.415.384-.317.287-.665.575c-.2.168-.388.321-.556.463-.115.1-.211.176-.3.245a5.689,5.689,0,0,1-.574.448q-.427.3-.68.457l-.159.091c-.049.024-.116.061-.2.109-.162.093-.323.179-.481.259-.2.1-.378.177-.553.244-.1.038-.2.076-.318.109-.165.067-.362.139-.612.221-.33.11-.685.217-1.059.318l-.975.26c-.257.067-.456.116-.621.15a3.884,3.884,0,0,1-.5.127c-.123.023-.255.05-.394.081-.194.044-.385.082-.571.115l-.086.016-.252.082h-3.624a8.563,8.563,0,0,1-2.263-.321,37.792,37.792,0,0,1-4.179-1c-.326-.1-.645-.2-.957-.313q.014.294.033.587c.056.884.085,1.783.085,2.67l-.009,1.3c-.016.178-.03.514-.047,1.007q-.027.825-.054,1.718t-.039,1.643c-.009.5-.014.818-.014.957l-.029.339a6.929,6.929,0,0,1-.231.949l-.012.035v.585L548,182.95l-1.195.131c-.105.013-.228.03-.342.046-.089.013-.156.023-.213.035l-.286.037q-.946.055-1.654.084c-.489.019-1.008.029-1.561.029-.4,0-.766.012-1.085.035-.388.029-.764.052-1.131.071q-.408.021-.824.02m-.277-4.092c.3,0,.6,0,.893-.012q.5-.025,1.041-.065c.828-.062,1.906-.039,2.784-.071.382-.016.82-.037,1.312-.065,0-.115,0-.245.007-.388.009-.52.023-1.086.042-1.693s.036-1.175.054-1.73c.017-.526.036-.907.053-1.143v-1.03c0-.8-.026-1.61-.078-2.408-.056-.884-.085-1.782-.085-2.669v-.217c0-.067,0-.2.022-.4.01-.136.03-.3.057-.471.022-.145.047-.283.07-.4a2.717,2.717,0,0,1,.231-.7l.96-1.919,1.871,1.051a15.334,15.334,0,0,0,3.065,1.279,34.021,34.021,0,0,0,3.814.908l.2.047a4.6,4.6,0,0,0,1.242.192h3.061l.192-.037c.13-.022.256-.047.385-.077.165-.037.32-.069.468-.1l.154-.077.33-.046c.079-.014.222-.051.416-.1l.95-.255c.293-.079.572-.162.835-.251.171-.056.294-.1.371-.133l.432-.216.128,0,.015-.007c.087-.044.182-.095.276-.148.114-.065.213-.12.294-.163q.169-.109.426-.291l.052-.037.151-.227.327-.158.065-.055c.173-.147.369-.308.582-.485.185-.153.361-.3.53-.457s.272-.249.346-.323l.088-.087a.2.2,0,0,1,.016-.022l.095-.123.511-1.08a3.854,3.854,0,0,1,.27-.5,25.389,25.389,0,0,0,1.154-2.511,18.757,18.757,0,0,0,.771-2.459,21.569,21.569,0,0,0,.446-2.591c.1-.918.18-1.936.232-3.026v-1.064a14.237,14.237,0,0,0-.071-1.434,18.242,18.242,0,0,1-.092-1.852,3.054,3.054,0,0,1,.04-.5,3.519,3.519,0,0,1-.248-.79q-.075-.328-.15-.717c-.04-.21-.081-.405-.122-.584,0-.025-.011-.047-.015-.068l-.017-.034-.051-.205a5.4,5.4,0,0,0-.355-.97q-.323-.687-.62-1.307a5.95,5.95,0,0,0-.79-1.287c-.371-.44-.763-.932-1.165-1.464-.066-.06-.134-.124-.207-.2a2.408,2.408,0,0,0-.178-.164c-.189-.162-.357-.317-.525-.485-.032-.03-.116-.1-.228-.19-.169-.135-.355-.28-.553-.429s-.406-.3-.6-.442c-.124-.09-.22-.159-.285-.2l-.179-.121-.16-.095c-.134-.077-.284-.157-.446-.238s-.339-.165-.5-.237c-.089-.041-.162-.072-.208-.091l-.065-.024c-.015,0-.115-.027-.247-.058l-.844-.2q-.406-.1-.773-.172c-.245-.049-.443-.093-.6-.131l-.576-.078q-.53-.069-1.179-.168c-.39-.06-.774-.11-1.155-.152-.338-.037-.626-.065-.862-.083h-.7l-1.448.14a11.254,11.254,0,0,0-1.8.346,12.879,12.879,0,0,0-2.069.775,7.6,7.6,0,0,0-1.86,1.254l-2.921,2.633-.62-5.067H544.4a4.126,4.126,0,0,1-1.16.163h-.6a5.6,5.6,0,0,1-1.049.025,10.225,10.225,0,0,0-1.134.023l-.11.011c0,.17,0,.346,0,.53q0,.523-.014.988-.013.379-.013.479,0,.184.012.474c.011.254.015.511.015.775,0,.194,0,.366.011.515.012.254.016.385.016.409,0,.1,0,.355-.013.777l-.055,2.555q-.013.559-.013.686c0,.13-.009.373-.031.731-.017.28-.029.569-.037.87l-.029.933c0,.084,0,.154,0,.21l.019.093v.2a4.508,4.508,0,0,1-.062.658c-.024.173-.05.365-.075.57l-.084.647c-.009.063-.016.115-.021.155s.005.1.009.175q.016.317.016.728c0,.208,0,.415.012.622.011.275.015.491.015.654s0,.377-.015.634c-.009.207-.012.4-.012.6q0,.407-.016.7l-.011.7q0,.386.013.9l.054,2.292c.009.373.015.7.015.99v.543c0,1.048-.024,2.185-.07,3.378q-.066,1.746-.122,3.291c-.036.963-.072,1.987-.108,3.078s-.068,2.192-.1,3.308l-.081,3.327q-.04,1.655-.1,3.107h0c0,.053-.007.133-.015.237-.009.12-.011.2-.011.3,0,.2-.006.39-.017.576-.006.093-.011.167-.011.225,0,.022,0,.076.009.148,0,.033,0,.068.006.1m21.49-7.919-.015,0,.015,0m5.507-6.39-.058.029ZM540.168,146.3l0,.026c0-.01,0-.018,0-.026m31.275-.455,0,.01,0-.01m-.691-1.344c.009.022.019.039.025.053Zm-31-8.884h0m16.735,26.217a2.758,2.758,0,0,1-1.11-.2,2.217,2.217,0,0,1-.244-.123H551.9l-.336-.108h-.213l-.381-.161a6.026,6.026,0,0,0-.759-.264c-.366-.1-.721-.2-1.061-.314a7.894,7.894,0,0,1-1.189-.494,5,5,0,0,1-1.358-1.047l-.216-.258c-.119-.129-.236-.262-.353-.4-.083-.1-.164-.19-.241-.275a3.483,3.483,0,0,1-.285-.348,2.739,2.739,0,0,1-.3-.48,2.45,2.45,0,0,1-.241-.732c-.026-.13-.047-.28-.068-.464s-.038-.35-.057-.54c-.021-.212-.036-.415-.047-.606-.012-.221-.016-.367-.016-.44v-.842q0-.369.015-.737a4.941,4.941,0,0,1,.078-.779l.02-.089c.025-.1.049-.232.075-.39.011-.074.021-.134.028-.182v-.117l.051-.224c.151-.664.286-1.2.4-1.579l.268-.886a2.824,2.824,0,0,1,.137-.682c.027-.084.077-.222.144-.4l.082-.192c.044-.087.124-.239.244-.457q.131-.237.26-.5c.122-.242.24-.464.359-.67.037-.065.07-.12.089-.163l.156-.387.339-.337c.092-.11.19-.224.295-.344V144.5l.6-.6a5.356,5.356,0,0,1,.814-.663,2.857,2.857,0,0,0,.306-.235l.217-.167a13.287,13.287,0,0,1,3.23-1.63,10.459,10.459,0,0,1,3.286-.537h.883a4,4,0,0,1,1.421.282,3.643,3.643,0,0,1,.536.211,4.4,4.4,0,0,1,.572.309l.115.076a4,4,0,0,1,.417.256,3.1,3.1,0,0,1,.773.463c.115.094.258.22.43.381s.313.3.454.44c.176.176.326.339.452.491a3.126,3.126,0,0,1,.331.462l1.573,2.343.085.352.116.328c.107.3.217.626.332.979q.159.492.321.973l.2.615a3.6,3.6,0,0,1,.222.805,4.192,4.192,0,0,1,.087.748c0,.192-.012.427-.035.7s-.057.511-.1.745a7.872,7.872,0,0,1-.712,2.373c-.248.5-.52,1.022-.808,1.539v.244l-.448.56c-.055.068-.136.182-.245.339-.138.2-.276.4-.414.606-.161.242-.314.461-.455.654l-.038.119-.234.293a5.392,5.392,0,0,1-1.311,1.165,9.067,9.067,0,0,1-1.334.7,7.563,7.563,0,0,1-1.528.466,7.761,7.761,0,0,1-1.441.144M551.7,161.4h0Zm.8-3.981h4.648l.127.23a3.524,3.524,0,0,0,.582-.189,4.9,4.9,0,0,0,.73-.385,1.534,1.534,0,0,0,.234-.18c.074-.119.158-.24.254-.37s.225-.315.35-.5c.153-.23.305-.453.457-.672l.13-.183.258-.457c.288-.508.557-1.017.8-1.51a3.834,3.834,0,0,0,.338-1.178l.022-.124a3.671,3.671,0,0,0,.05-.364c.008-.1.014-.183.018-.261q-.009-.053-.022-.124l-.28-.84c-.11-.328-.22-.664-.331-1.005q-.154-.475-.295-.873c-.044-.126-.081-.23-.11-.316l-1.3-1.945c-.063-.072-.117-.13-.181-.193q-.167-.167-.36-.347c-.047-.044-.091-.085-.129-.119a3.208,3.208,0,0,1-.646-.371,4.359,4.359,0,0,1-.388-.232l-.275-.113c-.047-.019-.082-.031-.1-.037h-.807a6.414,6.414,0,0,0-2.006.331,9.165,9.165,0,0,0-2.129,1.073,6.851,6.851,0,0,1-.638.48c-.029.019-.055.039-.081.058-.043.055-.083.1-.117.144-.1.121-.213.252-.338.4s-.217.25-.311.361l-.015.018c-.046.087-.1.182-.157.283-.081.141-.161.29-.241.45-.109.221-.222.436-.335.64-.049.088-.088.16-.118.216a3.186,3.186,0,0,1-.205.874l-.214.717c-.057.193-.157.558-.306,1.2-.012.1-.031.223-.057.382-.038.242-.078.446-.116.614,0,.046-.006.1-.009.168-.008.189-.011.377-.011.566v.842c0,.033,0,.108.009.211.009.134.019.276.034.425l.039.369c.072.081.138.157.206.237.084.1.166.193.248.282.1.109.181.2.251.293a.828.828,0,0,0,.183.141,3.768,3.768,0,0,0,.571.237c.28.091.568.176.869.256a10.119,10.119,0,0,1,1.056.352c.055.012.112.025.171.04M545,151.636v0Zm4.738-2.283,0,.013,0-.013m-4.032-.287v0Zm14.671-7.14c.044.037.087.077.13.119-.044-.045-.089-.084-.13-.119" transform="translate(-222.635 -54.516)" fill="#f05a24"/>
        <path id="Trazado_128556" data-name="Trazado 128556" d="M621.626,172.544a28.924,28.924,0,0,1-3.085-.159,23.439,23.439,0,0,1-3.989-.8,14.9,14.9,0,0,1-1.546-.563,12.1,12.1,0,0,1-1.352-.685,12.545,12.545,0,0,1-1.25-.844c-.367-.279-.752-.591-1.141-.922-.612-.524-1.235-1.033-1.857-1.517a14.336,14.336,0,0,1-2.063-1.98,3.382,3.382,0,0,1-.52-.712c-.061-.1-.116-.2-.164-.286l-.091-.112c-.12-.151-.244-.307-.37-.474-.089-.117-.182-.231-.273-.336a3.766,3.766,0,0,1-.406-.535c-.065-.1-.148-.252-.3-.54-.117-.224-.255-.491-.411-.795-.165-.32-.321-.637-.467-.949q-.166-.356-.278-.617a2.886,2.886,0,0,1-.233-.53,3.035,3.035,0,0,1-.139-.574c-.217-1.2-.4-2.383-.557-3.517a26.134,26.134,0,0,1-.222-3.859l.026-.433c.117-.725.267-1.446.444-2.145.171-.676.363-1.362.57-2.037q.207-.673.349-1.19t.345-1.158c.023-.116.054-.238.092-.373.053-.19.118-.4.194-.631.064-.193.127-.377.185-.543.042-.119.08-.219.113-.3a7.7,7.7,0,0,1,1.157-2.243c.4-.539.825-1.074,1.252-1.593l.194-.225c.118-.14.253-.292.405-.454.107-.114.206-.225.3-.332s.19-.218.26-.293c.046-.061.07-.1.1-.143.092-.145.181-.272.261-.38a2.641,2.641,0,0,1,.525-.533,18.545,18.545,0,0,1,2.742-1.916,22.8,22.8,0,0,1,3.134-1.492,20.951,20.951,0,0,1,3.341-.978,18.818,18.818,0,0,1,3.333-.379,21.109,21.109,0,0,1,3.816.063,13.149,13.149,0,0,1,3.9,1.012,14.754,14.754,0,0,1,2.541,1.037,15.49,15.49,0,0,1,3.137,2.175,2.047,2.047,0,0,0,.312.249l.23.116.187.165c.6.522,1.157,1.048,1.652,1.564a16.429,16.429,0,0,1,1.412,1.676,19.32,19.32,0,0,1,1.171,1.808,22.386,22.386,0,0,1,1.049,2.112l.066.173c.048.144.129.411.281,1.062l.314,1.348q.166.725.306,1.378c.083.39.138.676.171.9a3.3,3.3,0,0,1,.072.508c.012.169.019.372.019.609v.95c0,.133-.005.314-.016.546q-.011.237-.012.472v.5a2.865,2.865,0,0,1-.068.676,4.329,4.329,0,0,1-.135.522c-.049.155-.1.321-.148.494s-.095.337-.136.5v.64l-.6.6a5.115,5.115,0,0,1-1.842,1.221,6.883,6.883,0,0,1-1.859.377c-.538.04-1.182.064-1.914.073l-.162,0,.793.554q.525.369,1,.719a7.386,7.386,0,0,1,.808.674l.243.175c.224.164.456.339.7.529.259.206.5.408.7.6a2.768,2.768,0,0,1,.915,1.968,3.771,3.771,0,0,1-.852,2.536c-.315.386-.645.761-.981,1.117-.871.945-1.818,1.893-2.8,2.8a16.2,16.2,0,0,1-3.559,2.5l-.1.047a7.735,7.735,0,0,1-1.477.5,8.055,8.055,0,0,0-.86.248l-.073.024a11.21,11.21,0,0,1-1.661.381c-.509.074-1.006.122-1.484.143-.46.019-.937.026-1.419.015-.4-.009-.845,0-1.312.013q-.468.012-.927.013m-13.268-10.238.02.023a10.277,10.277,0,0,0,1.537,1.494c.673.523,1.347,1.074,2,1.636.327.279.651.541.967.781a8.473,8.473,0,0,0,.846.572,7.97,7.97,0,0,0,.9.453,10.6,10.6,0,0,0,1.094.4,19.3,19.3,0,0,0,3.258.655,25.475,25.475,0,0,0,3.444.124c.529-.019,1.05-.025,1.527-.013.394.007.786,0,1.159-.012.34-.015.7-.05,1.071-.1a7.047,7.047,0,0,0,1.014-.234,11.971,11.971,0,0,1,1.272-.362,3.67,3.67,0,0,0,.648-.216,12.09,12.09,0,0,0,2.608-1.844c.9-.834,1.772-1.7,2.586-2.586q.207-.219.4-.438-.15-.114-.291-.217c-.162-.117-.269-.195-.318-.228l-.211-.144-.175-.194a3.009,3.009,0,0,0-.363-.3c-.294-.215-.6-.438-.926-.665l-.981-.686-.044-.031q-.223.155-.463.332l-1.05.778c-.421.311-.9.633-1.419.951l-1.058.558c-.225.117-.431.222-.622.317a3.153,3.153,0,0,1-.779.305q-1.219.3-1.916.447c-.515.111-.921.187-1.239.23a4.564,4.564,0,0,1-1.005.054c-.18-.014-.354-.036-.52-.064-.041-.006-.105-.011-.182-.015.006,0-.114,0-.471.034l-.568.023c-.258.009-.47.014-.63.015a8.961,8.961,0,0,1-3.866-.753,7.181,7.181,0,0,1-3.187-2.724l-.039-.035c-.1-.09-.208-.19-.3-.283a2.488,2.488,0,0,1-.385-.483c-.049-.067-.09-.122-.124-.162a3.071,3.071,0,0,1-.588-.864,5,5,0,0,1-.312-1c-.061-.269-.171-.721-.329-1.353l-.061-.325c0-.009-.005-.02-.008-.031a3.642,3.642,0,0,1-.128-.9v-.392l.145-.365a2.273,2.273,0,0,1,1.871-1.426c.178-.017.334-.025.489-.025.633-.018,1.265-.018,1.821,0q.8.028,1.537.07c.478.027.973.054,1.485.081a14.658,14.658,0,0,0,1.531-.013l.114,0q.637,0,1.46-.013t1.694-.04l1.721-.054q.469-.015.877-.03l.35-.35.966.325h.439c.125,0,.241,0,.346-.009.221-.014.345-.018.373-.018h1.593l.032.13.2-.007c.3-.009.62-.014.969-.014h1.3c1-.107,1.88-.166,2.62-.177.652-.008,1.213-.029,1.671-.062a2.87,2.87,0,0,0,.734-.133q.033-.122.07-.249c.057-.2.111-.38.166-.555l.027-.64c0-.18.007-.36.016-.54.007-.149.011-.265.011-.35v-.95c0-.044,0-.086,0-.127v0l-.039-.348c0-.016-.02-.166-.131-.684q-.132-.621-.291-1.311L636,145.607c-.084-.356-.133-.542-.158-.632a18,18,0,0,0-.807-1.616,15.371,15.371,0,0,0-.921-1.422,12.471,12.471,0,0,0-1.06-1.257c-.369-.383-.784-.779-1.234-1.176a6.094,6.094,0,0,1-.946-.721c-.237-.213-.552-.466-.937-.749a11.876,11.876,0,0,0-1.384-.85,10.931,10.931,0,0,0-1.928-.77l-.238-.089a9.074,9.074,0,0,0-2.769-.728,16.959,16.959,0,0,0-3.126-.05l-.127.006a14.643,14.643,0,0,0-2.657.3,16.729,16.729,0,0,0-2.686.786,18.618,18.618,0,0,0-2.57,1.223,14.532,14.532,0,0,0-2.1,1.463l-.013.022c-.1.153-.187.282-.269.391a3.513,3.513,0,0,1-.271.326c-.052.053-.1.107-.159.178-.129.151-.265.3-.411.459-.1.109-.193.21-.273.3s-.128.15-.175.2c-.383.467-.76.948-1.123,1.43a3.614,3.614,0,0,0-.554,1.1l-.089.235c-.012.031-.025.07-.042.117-.049.141-.1.3-.163.477-.051.152-.093.287-.127.411v.1l-.1.3q-.2.633-.342,1.139-.157.569-.384,1.308c-.188.61-.361,1.231-.516,1.843-.136.534-.251,1.084-.345,1.638a22.048,22.048,0,0,0,.186,3.247c.141,1.051.314,2.147.515,3.261l.076.19c.061.153.151.352.265.6.126.269.259.539.4.815.152.3.286.554.4.777.054.1.094.18.125.236l.04.048c.147.169.29.346.433.533.111.144.215.277.315.4l.095.117.317.311.109.338c.017.03.038.065.062.105l.016.029m-.047-.036.013.041Zm30.578-1.029a2.4,2.4,0,0,1,.113.265,2.03,2.03,0,0,0-.113-.265m-31.077.241.01.01-.01-.01m14.345-1.409h0m-1.011-.09c.079,0,.154,0,.224.006a5.747,5.747,0,0,1,.623.064l.111.016c.051,0,.113-.013.187-.023.149-.021.428-.067.936-.177.419-.091.981-.221,1.691-.394l.037-.019c.176-.088.36-.182.557-.284l.591-.309.284-.148c.394-.245.752-.485,1.065-.717l.988-.731a3.739,3.739,0,0,1-.707.016,3.265,3.265,0,0,1-.9-.188l-.031-.012h-.675c-.083,0-.169,0-.261-.006-.053,0-.106.006-.161.006h-.093c-.431.018-.921.036-1.472.053l-1.727.054q-.9.028-1.753.042-.824.013-1.469.013a18.234,18.234,0,0,1-1.917.01c-.517-.027-1.019-.054-1.5-.082q-.5-.028-1.033-.049c.092.113.195.248.315.415l.041.037c.125.112.221.2.3.285a2.536,2.536,0,0,1,.446.579,3.126,3.126,0,0,0,1.388,1.2,4.753,4.753,0,0,0,2.126.415h.072c.126,0,.3,0,.519-.012l.115,0,.271-.009c.326-.032.585-.046.8-.046m-6.182-2.534.008.008-.008-.008m-4.685-1.46v0ZM607,144.016l-.009.019.009-.019m5.512,5.465v-2.207a3.95,3.95,0,0,1,.585-2.036,6.989,6.989,0,0,1,1.057-1.35,13.439,13.439,0,0,1,1.091-.978,12.094,12.094,0,0,1,1-.731,9.448,9.448,0,0,1,2.951-1.376,13.147,13.147,0,0,1,3.047-.4,11.465,11.465,0,0,1,4.461.787,9.111,9.111,0,0,1,3.861,2.795,3.647,3.647,0,0,1,.24.325c.064.1.14.216.227.357.1.163.184.31.264.456l.086.163a2.961,2.961,0,0,1,.2.335,2.4,2.4,0,0,1,.276,1.089v.847l-.654.652a2.189,2.189,0,0,1-1.4.647c-.213.02-.57.04-1.07.059s-1.016.033-1.575.042l-1.531.026c-.5.011-.84.015-1.028.015l-.328.012c-.223.009-.476.022-.759.039l-.877.053c-.341.022-.61.032-.8.032h-2.607c-.069,0-.228,0-.48-.016l-1.261-.054c-.132-.006-.268-.015-.407-.033a7.118,7.118,0,0,0-.853.1,14.884,14.884,0,0,1-1.513.19Zm10.039-5-.2,0h-.019a9.079,9.079,0,0,0-2.1.274,4.764,4.764,0,0,0-.778.28h2.381c.131,0,.315-.009.55-.023l.885-.054c.318-.019.6-.033.846-.043.281-.011.443-.015.487-.015l.363,0a7.366,7.366,0,0,0-2.414-.419" transform="translate(-249.909 -54.651)" fill="#f05a24"/>
        <path id="Trazado_128557" data-name="Trazado 128557" d="M670.959,172.827l-1.536-.132a2.134,2.134,0,0,1-1.919-.914,2.51,2.51,0,0,1-.371-.938l-.03-.217a5.893,5.893,0,0,1-.018-.849l-.015-.089a3.062,3.062,0,0,1-.281-.959,3.82,3.82,0,0,1-.047-.582,2.33,2.33,0,0,1,.175-.884c.008-.214.015-.558.015-1.1,0-.863-.018-1.925-.054-3.158l-.122-4.125q-.067-2.233-.15-4.452-.081-2.237-.136-4.227c-.037-1.32-.055-2.472-.055-3.424l.01-.2a2.624,2.624,0,0,0-.022-.276c-.036-.288-.075-.6-.12-.923q-.07-.52-.126-1a5.3,5.3,0,0,1-.039-.817,2.217,2.217,0,0,1-.169-.654c0-.029-.008-.056-.013-.085l-.049-.353-.089-.7.268-.446c.006-.18.005-.34,0-.476q-.025-.481-.077-1.13l-.006-.162c0-.027,0-.065-.008-.11-.005-.062-.014-.14-.026-.223s-.023-.183-.031-.279a2.322,2.322,0,0,1-.207-.935,3.008,3.008,0,0,1,.091-.684c.006-.025.012-.05.018-.075q0-.2.018-.421l.029-.377a2.838,2.838,0,0,1,.115-.627v-1.4l1.805-.212a14.352,14.352,0,0,0,1.564-.273,11.155,11.155,0,0,1,2.2-.283,16.033,16.033,0,0,1,2.418.064q1.052.111,2.158.249l.153.025s.042,0,.1,0q.364.02.729.077a3.318,3.318,0,0,1,1.231.458,2.58,2.58,0,0,1,.805.8c.036-.019.064-.035.087-.048l.518-.349.312.015a6.813,6.813,0,0,1,.647-.327q.406-.18.828-.346c.283-.111.539-.206.771-.287l.062-.022.04-.027.2-.081a6.757,6.757,0,0,1,1.985-.466q.735-.056,1.521-.085a11.263,11.263,0,0,1,3.026.232,17.087,17.087,0,0,1,2.8.849,15.428,15.428,0,0,1,2.477,1.256,11.069,11.069,0,0,1,1.911,1.489l.1.1q.234.269.52.654c.193.261.375.534.544.816a9.091,9.091,0,0,1,.459.865,3.966,3.966,0,0,1,.352,1.245l.01.206a2.789,2.789,0,0,1-.478,1.512,6.713,6.713,0,0,1-.567.764,8.023,8.023,0,0,1-.617.652,4.173,4.173,0,0,1-.548.449l-.1.079c-.1.076-.21.152-.324.228l-.631.45c-.109.081-.224.168-.338.259-.143.114-.28.221-.406.32l-.211.168a8.067,8.067,0,0,0-.7.606,11.1,11.1,0,0,1-1.1.933,7.744,7.744,0,0,1-1.366.812,5.152,5.152,0,0,1-1.954.458l-.952,0-.309-.1c-.1-.034-.2-.07-.28-.106a3.574,3.574,0,0,1-.338-.151,23.834,23.834,0,0,0-2.181-.977,4.364,4.364,0,0,0-1.664-.323c-.093.009-.112.028-.132.048a13.253,13.253,0,0,0-.9,1.043,4.652,4.652,0,0,1-.473.6l-.032.036c-.06.11-.15.265-.276.464-.095.151-.2.32-.3.5s-.224.383-.334.578c-.023.039-.043.077-.059.11l-.077.2a2.184,2.184,0,0,0-.161.713q-.056.772-.111,1.459l-.012.116a30.52,30.52,0,0,0-.321,4.665,38.9,38.9,0,0,0,.27,4.009l.007.061c.088.95.195,1.89.316,2.794.126.942.238,1.918.329,2.9.024.172.044.393.064.7.018.266.039.537.064.815l.08.86c.036.374.05.633.05.779v1.263l-1.076.539c-.062.039-.154.092-.255.141l-.531.264h-.589a2.551,2.551,0,0,1-.791-.121Zm.1-4.1h.009l5.9-.2c0-.074-.01-.148-.015-.222-.011-.172-.02-.3-.032-.383l-.018-.14c-.088-.949-.194-1.888-.316-2.794-.128-.95-.239-1.937-.332-2.932a43.019,43.019,0,0,1-.3-4.4,34.36,34.36,0,0,1,.35-5.241q.051-.645.1-1.364a6.287,6.287,0,0,1,.446-1.948,4.8,4.8,0,0,1,.369-.8c.127-.224.251-.44.376-.65s.25-.415.367-.6c.051-.08.089-.14.115-.186a3.647,3.647,0,0,1,.612-.867l.061-.068.016-.032.113-.149a17.2,17.2,0,0,1,1.265-1.48,4.25,4.25,0,0,1,2.877-1.307l.077,0a8.591,8.591,0,0,1,3.287.6c.828.324,1.626.678,2.373,1.054h.063a1.054,1.054,0,0,0,.374-.084,3.615,3.615,0,0,0,.642-.382,6.964,6.964,0,0,0,.693-.588,12.178,12.178,0,0,1,1.048-.9c.058-.048.129-.105.214-.171.1-.08.221-.172.346-.272.161-.128.318-.249.475-.364l.255-.188c.087-.07.179-.135.281-.2l.251-.167c.044-.029.086-.059.126-.089l.162-.162.137-.067.008-.008c.05-.047.1-.1.148-.148l-.01-.018c-.1-.166-.208-.329-.324-.485-.1-.132-.189-.249-.273-.349a7.408,7.408,0,0,0-1.16-.878,11.286,11.286,0,0,0-1.814-.916,12.946,12.946,0,0,0-2.12-.644,7.094,7.094,0,0,0-1.935-.15l-.062,0q-.717.025-1.384.077a2.56,2.56,0,0,0-.687.15,5.051,5.051,0,0,1-.573.231c-.189.066-.395.143-.62.231s-.446.18-.664.277a2.622,2.622,0,0,0-.237.117,2.739,2.739,0,0,1-.976.44l-.091.024-.119.064c-.2.107-.322.169-.365.189-.107.054-.275.136-.5.241-.2.094-.4.193-.608.3l-.625.312c-.239.12-.439.214-.593.28l-2.852,1.225v-2.877a2.416,2.416,0,0,1-.028-.341c-.01-.114-.016-.225-.019-.333q-.929-.114-1.817-.207a11.97,11.97,0,0,0-1.832-.045,7.143,7.143,0,0,0-1.424.178q-.176.042-.354.079a2.149,2.149,0,0,1,.058.5,1.081,1.081,0,0,0,.006.143c.025.17.043.327.055.474s.017.248.02.344c.035.445.061.835.079,1.168a11.586,11.586,0,0,1-.03,1.475l-.015.192a3.3,3.3,0,0,1,.11.7c.013.208.018.339.018.4v.186l-.031.168h0s0,.06.016.165c.035.3.075.61.118.932.046.345.088.669.126.975a5.689,5.689,0,0,1,.042,1.046c0,.9.019,1.986.054,3.231q.053,1.974.135,4.19.082,2.232.149,4.479l.122,4.129c.037,1.272.056,2.375.056,3.277a14.812,14.812,0,0,1-.076,2l-.017.119a3.17,3.17,0,0,1,.129.446m-.368-.939.013.022-.013-.022m10.055-17.415,0,.008,0-.008m-2.036-4.338-.018.036Zm16.882-1.318-.052.053.052-.053m-2.077-3.488-.054.054Zm-23.8-2.817-.023.045.023-.045m5.756-1.5,0,.027c0-.009,0-.018,0-.027m.041-.094v0m6.75-2.787-.037.026Z" transform="translate(-276.858 -55.432)" fill="#f05a24"/>
        <path id="Trazado_128558" data-name="Trazado 128558" d="M738.885,171.457q-.231,0-.461-.009h-.32c-.2,0-.419,0-.66-.015l-.589-.029c-.12-.006-.206-.01-.259-.01l-.832,0-.063-.06c-.11.018-.218.033-.321.047a2.782,2.782,0,0,1-.785,0q-.176-.011-.447-.039c-.294-.03-.609-.07-.947-.12l-.838-.119c-.162-.022-.294-.042-.406-.063h-.339l-.956-.268c-.084-.023-.21-.047-.375-.077-.239-.043-.54-.1-.9-.167-.094-.013-.193-.031-.312-.053a6.883,6.883,0,0,1-.749-.191,6.577,6.577,0,0,1-.94-.37,4.671,4.671,0,0,1-.774-.469c-.122-.048-.255-.1-.4-.167-.11-.048-.215-.091-.308-.128-.119-.044-.216-.085-.289-.117a6.184,6.184,0,0,1-1.339-.744c-.346-.252-.679-.516-.994-.787q-.449-.39-.869-.8c-.251-.242-.488-.474-.707-.692a22.818,22.818,0,0,1-2.541-2.813,17.355,17.355,0,0,1-2-3.384,25.118,25.118,0,0,1-1.029-2.577,18,18,0,0,1-.612-2.39,20.4,20.4,0,0,1-.287-2.4c-.048-.783-.072-1.683-.072-2.676v-2.266l.051-.224a32.151,32.151,0,0,1,.87-3.117,19.405,19.405,0,0,1,1.259-2.928,19.7,19.7,0,0,1,1.713-2.668,18.468,18.468,0,0,1,2.263-2.452,14.5,14.5,0,0,1,2-1.62,17.257,17.257,0,0,1,2.187-1.233l.139-.063a4.832,4.832,0,0,1,.564-.257l.358-.143.432-.216.4.018.074-.009.533-.533h.689l.057-.012.01-.01,2.69-.667c.233-.057.414-.095.568-.119a6.953,6.953,0,0,1,.964-.169q.6-.072,1.292-.13c.429-.036.833-.071,1.216-.106l.841-.081.205-.011h.325c.15,0,.307.007.471.022l.138.008c.4.018.773.037,1.1.055a7.658,7.658,0,0,1,1.418.221q.718.18,1.464.334c.486.1.963.185,1.421.249l.272.039.253.109c.142.061.382.173.718.336s.668.334,1.03.529c.347.188.67.365.97.534.352.2.593.343.725.432a4.863,4.863,0,0,1,.734.65l.747.746q.432.432.836.864t.613.672l.182.209.106.195c.1.139.209.3.334.48.112.162.218.314.325.463q.2.28.327.468a22.081,22.081,0,0,1,1.792,3.282,21.333,21.333,0,0,1,1.126,3.289,25.386,25.386,0,0,1,.606,3.368,32.3,32.3,0,0,1,.189,3.525l-.015.35q-.051.436-.116,1.193l-.258,3c-.044.5-.072.74-.1.9a18.04,18.04,0,0,1-.65,2.9,22.241,22.241,0,0,1-1.062,2.721l-.1.217-.148.188c-.315.4-.569.734-.752,1q-.343.493-.7.954c-.23.3-.5.626-.8.983-.317.379-.725.826-1.25,1.369l-.251.221a20.475,20.475,0,0,1-2.248,1.449,18.988,18.988,0,0,1-2.48,1.156,17.145,17.145,0,0,1-2.634.77,11.433,11.433,0,0,1-2.321.242m-3.722-.651.022.02Zm1.955-3.483.505.024c.176.008.336.012.481.012l.464,0a7.189,7.189,0,0,0,1.809-.15,13.133,13.133,0,0,0,2.008-.588,14.853,14.853,0,0,0,1.946-.907,16.445,16.445,0,0,0,1.665-1.06c.4-.413.711-.76.94-1.033q.392-.468.7-.861t.578-.787c.2-.289.447-.619.749-1a18.125,18.125,0,0,0,.77-2.011,13.928,13.928,0,0,0,.508-2.3l.023-.141c.013-.1.028-.266.048-.493l.258-2.993c.042-.5.08-.9.115-1.208a28.074,28.074,0,0,0-.164-3.065,21.163,21.163,0,0,0-.508-2.821,17.256,17.256,0,0,0-.91-2.657,18.02,18.02,0,0,0-1.452-2.655c-.05-.075-.131-.19-.231-.329q-.193-.265-.385-.548c-.107-.155-.2-.3-.288-.415-.051-.071-.1-.137-.14-.2q-.163-.182-.423-.46-.355-.381-.738-.764l-.746-.746c-.081-.081-.146-.145-.2-.193-.086-.052-.214-.125-.38-.218q-.421-.237-.9-.5-.462-.249-.872-.449c-.127-.063-.237-.115-.329-.158-.451-.07-.914-.153-1.379-.249q-.826-.171-1.627-.371a3.586,3.586,0,0,0-.651-.106c-.308-.016-.654-.034-1.033-.051-.092,0-.211-.008-.356-.022-.033,0-.067-.005-.1-.005h-.224q-.275.028-.769.073-.591.056-1.255.11c-.408.034-.791.073-1.149.115-.212.025-.323.045-.367.054l-.289.109h-.231l-.164.039-1.946.483a2.623,2.623,0,0,1-.436.12c-.052.011-.122.027-.2.046l-.126.03c-.175.127-.295.21-.357.251l-.511.335h-.53l-.211.025-.157.019-.271.105a.6.6,0,0,0-.071.03,3.944,3.944,0,0,1-.414.2,13.151,13.151,0,0,0-1.6.906,10.347,10.347,0,0,0-1.449,1.179l-.049.046a14.366,14.366,0,0,0-1.783,1.923,15.685,15.685,0,0,0-1.357,2.113,15.31,15.31,0,0,0-.992,2.31c-.263.78-.5,1.619-.708,2.5v1.8c0,.911.022,1.727.064,2.428a16.44,16.44,0,0,0,.229,1.917,13.917,13.917,0,0,0,.474,1.845,21.016,21.016,0,0,0,.866,2.162,13.306,13.306,0,0,0,1.534,2.6,18.866,18.866,0,0,0,2.105,2.326l.046.043q.314.313.68.666c.23.223.464.437.708.648.228.2.47.39.721.572a2.166,2.166,0,0,0,.474.263l.211.086c.16.062.318.127.491.2.117.051.217.093.307.127.2.077.328.134.39.164l.262.127.216.2a.505.505,0,0,0,.124.081,2.587,2.587,0,0,0,.359.144,2.911,2.911,0,0,0,.312.084l.255.043q.555.106.925.172c.344.062.6.119.769.168l.4.113h.326l.208.07c.054.009.124.019.209.03l.87.124c.284.042.54.074.775.1.155.016.269.027.336.03h.063c.074-.011.148-.023.226-.037.182-.031.342-.057.487-.078a4.125,4.125,0,0,1,.536-.048,2.47,2.47,0,0,1,.9.181m-4.327-.276.034.012-.034-.012m17.49-10.605c0,.007,0,.015-.006.023Zm-.21-19.454.015.03-.015-.03m-17.627-1.678h0Zm.719-.13-.009,0Zm-7.409-2.011-.017.006Zm3.49-1.228h0m5.568,30.066a3.883,3.883,0,0,1-.555-.041,4.417,4.417,0,0,1-1.141-.352,3.831,3.831,0,0,1-.385-.1,3.174,3.174,0,0,1-.6-.251,3.735,3.735,0,0,1-.56-.342l-.318-.221-.158-.11a4.551,4.551,0,0,1-.446-.265q-.162-.109-.324-.206c-.192-.114-.362-.227-.506-.331-.076-.055-.141-.1-.2-.151a3.4,3.4,0,0,1-.494-.457l-.725-.779c-.1-.106-.174-.186-.219-.231l-.136-.15a4.847,4.847,0,0,1-.706-1.172,9.567,9.567,0,0,1-.363-1q-.132-.44-.249-.88c-.056-.209-.113-.411-.171-.6a3.442,3.442,0,0,1-.282-.623,7.871,7.871,0,0,1-.489-1.8,15.333,15.333,0,0,1-.15-1.556,6.4,6.4,0,0,1-.089-1.089,7.7,7.7,0,0,1,.11-1.295,8.021,8.021,0,0,1,.294-1.185,4.6,4.6,0,0,1,.389-.882l.383-1.081a5.186,5.186,0,0,1,1.275-1.977,7.6,7.6,0,0,1,1.635-1.209,10.523,10.523,0,0,1,1.736-.759,13.833,13.833,0,0,1,1.658-.445,7.761,7.761,0,0,1,1.427-.189c.355-.011.772-.005,1.236.015a13.076,13.076,0,0,1,1.429.13,8.321,8.321,0,0,1,1.354.325,8.2,8.2,0,0,1,1.291.563c.377.205.781.452,1.206.735a20.377,20.377,0,0,1,1.988,1.531,6.3,6.3,0,0,1,1.822,2.7l.025.075c.124.4.269.8.433,1.193a5.6,5.6,0,0,1,.445,2.177l-.006.152c-.087,1.159-.112,1.7-.117,1.945-.008.353-.013.559-.013.62a9.181,9.181,0,0,1-.591,3.224,9.8,9.8,0,0,1-4.081,4.954,8.421,8.421,0,0,1-3.07,1.133c-.109.023-.242.047-.4.07l-.38.054c-.161.023-.319.041-.466.053-.205.018-.326.021-.36.021l-.339-.029c-.055-.009-.1-.017-.147-.022l-.263.05a3.187,3.187,0,0,1-.629.061m-.7-4.421h.041l.416.2c.117.056.2.092.261.116l.283-.052a3.788,3.788,0,0,1,1.15,0c.057-.006.116-.013.179-.023l.38-.054.108-.018.181-.036a4.3,4.3,0,0,0,1.628-.593,5.616,5.616,0,0,0,1.428-1.238,5.694,5.694,0,0,0,.951-1.655,5.052,5.052,0,0,0,.332-1.795c0-.059,0-.3.014-.714s.05-1.1.121-2.061a1.532,1.532,0,0,0-.125-.535c-.21-.5-.4-1.013-.558-1.53a2.229,2.229,0,0,0-.64-.938,16.323,16.323,0,0,0-1.579-1.217c-.313-.208-.613-.391-.878-.536a4.018,4.018,0,0,0-.634-.277,4.174,4.174,0,0,0-.68-.162,9,9,0,0,0-.981-.086q-.557-.023-.943-.013a4.057,4.057,0,0,0-.711.1,9.911,9.911,0,0,0-1.2.322,6.359,6.359,0,0,0-1.059.462,3.484,3.484,0,0,0-.754.556,1.091,1.091,0,0,0-.278.424L730,147.817l-.147.2c-.012.029-.023.061-.034.1a3.837,3.837,0,0,0-.143.584,3.561,3.561,0,0,0-.053.605,2.1,2.1,0,0,0,.036.427l.038.176.006.18a11.323,11.323,0,0,0,.115,1.265,3.829,3.829,0,0,0,.267.94l.055.13a3.128,3.128,0,0,1,.315.753q.1.348.21.741c.068.258.139.508.214.758a5.471,5.471,0,0,0,.206.568.96.96,0,0,0,.078.147l.215.227.835.87c.06.043.125.085.2.129.169.1.333.206.5.314l.026.017.152.061.468.327c.013.008.046.03.095.065h.269Zm-1.241-.671.009,0-.009,0m-.593-.37.033.034-.033-.034" transform="translate(-297.426 -54.381)" fill="#f05a24"/>
      </g>
    </g>
  </g>
</svg>
