<svg xmlns="http://www.w3.org/2000/svg" xmlns:xlink="http://www.w3.org/1999/xlink" width="85.917" height="85.917" viewBox="0 0 85.917 85.917">
  <defs>
    <clipPath id="clip-path">
      <rect id="Rectángulo_37372" data-name="Rectángulo 37372" width="54.061" height="64.564" fill="none"/>
    </clipPath>
  </defs>
  <g id="Grupo_157555" data-name="Grupo 157555" transform="translate(0 0.074)">
    <circle id="Elipse_4823" data-name="Elipse 4823" cx="42.958" cy="42.958" r="42.958" transform="translate(0 -0.074)" fill="#ff9fa3"/>
    <g id="Grupo_157554" data-name="Grupo 157554" transform="translate(15.928 10.603)">
      <g id="Grupo_157553" data-name="Grupo 157553" clip-path="url(#clip-path)">
        <path id="Trazado_128844" data-name="Trazado 128844" d="M3.869,52.783c-.746-.468-.859-.739-.563-1.565a8.038,8.038,0,0,1,6.153-5.333c3.822-.9,7.636-1.824,11.459-2.718.415-.1.585-.238.61-.693.071-1.286.2-2.57.332-3.851a.8.8,0,0,0-.318-.809,18.22,18.22,0,0,1-5.758-8.053.542.542,0,0,0-.633-.422,4.9,4.9,0,0,1-4.77-6.367,3.049,3.049,0,0,1,1.58-2.022.769.769,0,0,0,.456-.842c-.016-2.285-.026-4.57,0-6.854a7.939,7.939,0,0,1,3.422-6.661c.423-.307.384-.437.053-.771A6.759,6.759,0,0,1,13.874,1.15C13.849.387,14.189.007,14.959.005Q22.8-.007,30.636,0A.97.97,0,0,1,31.709.83c.126.7-.12,1.081-.8,1.208a5.131,5.131,0,0,1-.948.039H17.407c-.181,0-.362,0-.543,0-.671.024-.745.147-.479.788A5.789,5.789,0,0,0,18.213,5.1c.158.128.336.231.494.359a1.139,1.139,0,0,1-.19,2.034,12.814,12.814,0,0,0-1.315.7,5.919,5.919,0,0,0-2.684,4.927c-.063,2.17-.018,4.343-.011,6.514,0,.28-.082.621.273.769.333.139.556-.091.77-.294a16.462,16.462,0,0,0,1.78-1.954,6.8,6.8,0,0,0,1.12-3.441c.089-.718.169-1.438.277-2.153.166-1.1.692-1.484,1.795-1.259a41.344,41.344,0,0,0,8.759.845,39.94,39.94,0,0,0,7.209-.718c.289-.056.576-.124.866-.167a1.231,1.231,0,0,1,1.557,1.106c.166.958.283,1.926.374,2.893a6.337,6.337,0,0,0,1.879,3.891,10.294,10.294,0,0,0,1.167,1.133c.417.314.815.171.81-.321-.03-2.888.275-5.794-.409-8.652a11.86,11.86,0,0,0-2.16-4.638,2.187,2.187,0,0,1-.4-.63c-.152-.46-.178-.894.336-1.167.776-.367,1.048-.313,1.576.336a14.283,14.283,0,0,1,3.032,7.631c.272,2.436.083,4.882.142,7.323.005.222-.128.5.206.64,2.118.9,2.312,3.687,1.7,5.357a4.69,4.69,0,0,1-4.512,3.165.712.712,0,0,0-.813.553,18.16,18.16,0,0,1-5.611,7.839,1,1,0,0,0-.4,1.032q.216,1.852.316,3.717c.023.455.195.593.61.69Q42.682,44.559,48.6,46a8,8,0,0,1,6.18,7.206c.321,3.194.687,6.382,1.031,9.574.027.247.039.5.053.745a.889.889,0,0,1-.781,1.02.877.877,0,0,1-1.043-.653c-.03-.085-.065-.169-.1-.253A8.581,8.581,0,0,1,53.5,60.85c-.325-2.622-.531-5.259-.864-7.881a5.821,5.821,0,0,0-4.328-4.88c-2.014-.517-4.039-.99-6.066-1.457-1.011-.233-1.021-.224-.807.767.625,2.894,1.2,5.8,1.815,8.7.131.616.351,1.279-.258,1.763s-1.239.231-1.867,0c-1.3-.47-2.6-.916-3.9-1.368-.666-.231-.727-.179-.729.545-.006,1.9,0,3.8,0,5.7a1.208,1.208,0,0,1-.192.9c-.15.535-.43.958-1.047.919a.951.951,0,0,1-.9-.909,1.854,1.854,0,0,1-.149-1.058q-.006-6.172,0-12.344a2.639,2.639,0,0,0-.076-.88c-3.509,2.731-7.017,2.747-10.535.012a1.378,1.378,0,0,0-.107.8q-.006,6.206-.005,12.412a1.854,1.854,0,0,1-.149,1.058.954.954,0,0,1-.9.912c-.618.039-.9-.385-1.047-.923a1.2,1.2,0,0,1-.189-.9c-.006-1.9,0-3.8,0-5.694,0-.747-.079-.808-.78-.531-1.157.457-2.359.783-3.512,1.248a5.512,5.512,0,0,1-1.035.321c-1.088.2-1.727-.406-1.522-1.5.3-1.621.658-3.232,1-4.845.326-1.525.608-3.058.95-4.579.154-.682.081-.745-.566-.595-2.068.482-4.135.97-6.2,1.482a5.779,5.779,0,0,0-4.21,3.767,1.872,1.872,0,0,1-.377.714c-.3.292-.615.56-1.064.26" transform="translate(-1.808 0)"/>
        <path id="Trazado_128845" data-name="Trazado 128845" d="M55.443,5.995a1.033,1.033,0,0,0,0,1.416,13.163,13.163,0,0,1,2.831,8.372c.047,1.786.014,3.574,0,5.361,0,.2.138.508-.194.562-.281.045-.57.282-.871-.054-.619-.69-1.3-1.319-1.914-2.016a6.4,6.4,0,0,1-1.344-3.7c-.089-.808-.19-1.616-.3-2.422a.988.988,0,0,0-1.319-.956,40.658,40.658,0,0,1-17.157,0,.988.988,0,0,0-1.32.956c-.14,1.03-.286,2.059-.4,3.092A5.839,5.839,0,0,1,31.829,20.1c-.453.474-.957.905-1.369,1.412a.8.8,0,0,1-1.019.2c-.374-.126-.193-.465-.2-.7-.015-2.217-.045-4.434,0-6.65a6.1,6.1,0,0,1,3.847-5.8c.422-.193.839-.363.905-.9.07-.568-.294-.854-.713-1.122A5.836,5.836,0,0,1,30.98,3.7c-.2-.5-.178-.7.46-.7,4.66.024,9.319.014,13.979.012.889,0,1.144-.231,1.218-1.069a.684.684,0,0,0,.508.253c.768.115,1.531.266,2.3.4a3.209,3.209,0,0,0,3.921,1.632l2.081,1.763" transform="translate(-16.736 -1.113)" fill="#cc906e"/>
        <path id="Trazado_128846" data-name="Trazado 128846" d="M3.977,114.712a1.147,1.147,0,0,0,1.226-.927A5.908,5.908,0,0,1,9.55,109.8c2.364-.591,4.737-1.145,7.177-1.733a14.292,14.292,0,0,1-.444,2.46c-.535,2.678-1.108,5.349-1.665,8.022-.215,1.032.4,1.6,1.392,1.26q2.5-.845,4.981-1.739c.348-.126.529-.184.524.305-.025,2.4-.026,4.793-.036,7.19l-17.645,0a.823.823,0,0,1-.163-.761c.184-1.7.324-3.412.552-5.108.121-.9.129-1.66-.88-2.028.462-.133.384-.56.431-.878.1-.688.139-1.385.2-2.079" transform="translate(-1.916 -61.929)" fill="#fee07d"/>
        <path id="Trazado_128847" data-name="Trazado 128847" d="M80.734,125.573c-.009-2.394-.011-4.789-.035-7.183-.005-.462.146-.462.517-.328,1.61.582,3.232,1.13,4.846,1.7a1.165,1.165,0,0,0,1.274-.076c.393-.347.334-.781.235-1.25-.7-3.287-1.373-6.578-2.053-9.868-.027-.13-.032-.265-.058-.494,1,.234,1.949.453,2.9.68,1.49.356,2.987.691,4.468,1.084a6.1,6.1,0,0,1,4.482,5.29c.335,3.234.7,6.465,1.043,9.7.026.246.021.5.03.742H80.734" transform="translate(-46.245 -61.935)" fill="#fee07d"/>
        <path id="Trazado_128848" data-name="Trazado 128848" d="M50.39,129.259V114.491c3.671,3.127,7.315,3.144,10.97.041.012.013.064.044.064.074q0,7.326-.009,14.654H50.39" transform="translate(-28.876 -65.61)" fill="#e5646e"/>
        <path id="Trazado_128849" data-name="Trazado 128849" d="M1.427,130.556c.957.038,1.248.342,1.152,1.307-.186,1.884-.4,3.765-.6,5.648-.033.313-.04.628-.058.942-.129.362-.256.714-.675.863-.7.248-1.314-.255-1.235-1.1.211-2.261.46-4.518.7-6.776a1,1,0,0,1,.72-.888" transform="translate(0 -74.816)"/>
        <path id="Trazado_128850" data-name="Trazado 128850" d="M80.469,4.309a1.01,1.01,0,0,1-1.5.385c-.553-.248-1.107-.5-1.673-.714a1.02,1.02,0,0,1-.751-1.3A1,1,0,0,1,77.974,2.2c.6.245,1.2.5,1.8.761a1.038,1.038,0,0,1,.7,1.347" transform="translate(-43.844 -1.191)"/>
        <path id="Trazado_128851" data-name="Trazado 128851" d="M59.083,41.064c-.42,6.93-3.357,12.157-9.4,15.469a6.094,6.094,0,0,1-6.21-.023A17.431,17.431,0,0,1,34.19,42.328,3.134,3.134,0,0,1,35.309,39.2a8.5,8.5,0,0,0,3.023-6.358c.07-1.132.113-1.134,1.163-.97a43.821,43.821,0,0,0,14.648-.1c.378-.068.614-.074.646.442A22.338,22.338,0,0,0,55.1,34.5a7.393,7.393,0,0,0,2.041,3.975c.47.489.935.985,1.435,1.444.4.364.655.746.5,1.148" transform="translate(-19.57 -18.19)" fill="#fbcfa2"/>
        <path id="Trazado_128852" data-name="Trazado 128852" d="M50.773,92.144a8.583,8.583,0,0,0,10.291.008,33.012,33.012,0,0,1,.286,5.228,5.5,5.5,0,0,1-10.939-.64c.009-1.487.227-2.972.362-4.6" transform="translate(-28.888 -52.804)" fill="#fdb882"/>
        <path id="Trazado_128853" data-name="Trazado 128853" d="M34.816,116.076c.273-1.339.517-2.545.766-3.749.4-1.919.811-3.834,1.189-5.757a.589.589,0,0,1,.535-.562c.618-.121,1.229-.282,1.838-.445.3-.079.4-.007.4.311-.008,2.731,0,5.462-.005,8.193,0,.179.012.349-.223.43-1.459.5-2.913,1.021-4.5,1.58" transform="translate(-19.952 -60.476)" fill="#fed064"/>
        <path id="Trazado_128854" data-name="Trazado 128854" d="M80.7,109.959c0-1.286.012-2.573-.007-3.859-.006-.446.032-.689.584-.494.674.238,1.591.112,2.019.609.4.467.372,1.31.515,1.992.5,2.4.995,4.808,1.5,7.21.1.456.105.681-.485.454-1.218-.467-2.456-.882-3.694-1.294a.546.546,0,0,1-.442-.623c.022-1.332.009-2.663.009-3.995" transform="translate(-46.243 -60.479)" fill="#fed064"/>
        <path id="Trazado_128855" data-name="Trazado 128855" d="M98.6,54.449A2.97,2.97,0,0,1,96.153,57.5c-.417.051-.527-.066-.433-.462a20.012,20.012,0,0,0,.5-4.027c.011-.373.184-.449.476-.5,1.178-.191,1.894.536,1.9,1.937" transform="translate(-54.835 -30.075)" fill="#fcb882"/>
        <path id="Trazado_128856" data-name="Trazado 128856" d="M24.1,54.42c.012-1.424.793-2.168,1.984-1.907.254.056.375.141.386.432a21.3,21.3,0,0,0,.513,4.094c.1.427-.072.489-.453.441A2.971,2.971,0,0,1,24.1,54.42" transform="translate(-13.812 -30.063)" fill="#fcb882"/>
        <path id="Trazado_128857" data-name="Trazado 128857" d="M57.335,74.749a8.156,8.156,0,0,1-3.737-.73c-.652-.291-.877-.744-.665-1.273.228-.57.725-.745,1.4-.471a7.652,7.652,0,0,0,5.982-.006A.955.955,0,1,1,61.084,74a8.194,8.194,0,0,1-3.749.748" transform="translate(-30.29 -41.343)"/>
        <path id="Trazado_128858" data-name="Trazado 128858" d="M46.719,44.127a4.079,4.079,0,0,1,2.628.795.917.917,0,0,1,.31,1.347.9.9,0,0,1-1.307.257A2.943,2.943,0,0,0,45.1,46.5a.945.945,0,1,1-.959-1.623,4.067,4.067,0,0,1,2.581-.753" transform="translate(-24.987 -25.284)" fill="#010000"/>
        <path id="Trazado_128859" data-name="Trazado 128859" d="M74.656,45.79a.923.923,0,0,1-1.368.792,3.094,3.094,0,0,0-3.447-.023.935.935,0,0,1-.95-1.61,4.747,4.747,0,0,1,5.292-.005.965.965,0,0,1,.473.846" transform="translate(-39.216 -25.295)" fill="#010000"/>
        <path id="Trazado_128860" data-name="Trazado 128860" d="M50.427,53.767a1.314,1.314,0,0,1-2.628.018,1.314,1.314,0,0,1,2.628-.018" transform="translate(-27.391 -30.064)" fill="#010101"/>
        <path id="Trazado_128861" data-name="Trazado 128861" d="M73.972,55.082a1.31,1.31,0,0,1-1.334-1.313,1.314,1.314,0,0,1,2.629.026,1.315,1.315,0,0,1-1.294,1.287" transform="translate(-41.625 -30.067)" fill="#010101"/>
      </g>
    </g>
  </g>
</svg>
