<svg xmlns="http://www.w3.org/2000/svg" width="240.048" height="255.473" viewBox="0 0 240.048 255.473">
  <g id="Grupo_157882" data-name="Grupo 157882" transform="translate(-0.048 -33)">
    <g id="Grupo_87689" data-name="Grupo 87689" transform="translate(0.048 33)">
      <g id="Grupo_87397" data-name="Grupo 87397">
        <path id="Rectángulo_34437" data-name="Rectángulo 34437" d="M0,0H163.048a77,77,0,0,1,77,77V255.472a0,0,0,0,1,0,0H0a0,0,0,0,1,0,0V0A0,0,0,0,1,0,0Z" fill="#ffdfe0"/>
      </g>
    </g>
    <g id="Grupo_157895" data-name="Grupo 157895" transform="translate(28.048 64.451)">
      <g id="Grupo_157896" data-name="Grupo 157896">
        <path id="Trazado_130123" data-name="Trazado 130123" d="M82.407,348.819q0-5.754.008-11.508a3.36,3.36,0,0,1,2.617-.639q41.623-.025,83.246,0a3.36,3.36,0,0,1,2.617.639l.005,11.508Z" transform="translate(-35.669 -145.721)" fill="#eb8208"/>
        <path id="Trazado_130124" data-name="Trazado 130124" d="M62.883,190.894q0-9.369.006-18.739a3.573,3.573,0,0,1,2.634-.6q52.7-.02,105.393,0c2.8,0,3.224.455,3.284,3.208.046,2.111-.032,4.224.072,6.332-.232,3.117.054,6.25-.247,9.364-.719,2.881-.842,5.871-1.594,8.754-4.634,17.76-15.308,30.511-31.982,38.072-10.741,4.87-22.045,5.63-33.576,3.485-2.406-.447-3.09-1.02-2.841-3.236.821-7.3-5.562-15.073-12.9-17.987a30.506,30.506,0,0,0-13.414-1.953c-2.493.159-4.305-.471-5.493-2.876a11.692,11.692,0,0,0-3.57-4.2,6.487,6.487,0,0,1-1.842-2.773,47.287,47.287,0,0,1-3.933-16.854" transform="translate(-27.218 -74.25)" fill="#faa548"/>
        <path id="Trazado_130125" data-name="Trazado 130125" d="M135.226,325.074H46.746q-12.085-2.271-24.17-4.539c-6.124-1.146-12.244-2.311-18.378-3.4C.612,316.5-.993,313.753.638,310.906a3.253,3.253,0,0,1,3.1-1.718q4.461.022,8.923-.01c.643,0,1.331.187,1.911-.282,1.189-.634,2.465-.251,3.7-.276,2.708-.056,5.417.024,8.122-.18a43.844,43.844,0,0,0,7.861.037c9.4.142,18.791.207,28.185-.052a56.348,56.348,0,0,0,10.277-.039c11.691.358,23.384.154,35.077.115.588,0,1.2-.125,1.684.356.691.6,1.522.314,2.283.315q32.9.026,65.8,0c1.794,0,3.286.369,4.073,2.135a3.654,3.654,0,0,1-2.564,5.4c-3.165.831-6.405,1.384-9.625,2q-12.077,2.3-24.165,4.533c-3.349.625-6.7,1.229-10.053,1.843" transform="translate(0 -133.483)" fill="#faa548"/>
        <path id="Trazado_130126" data-name="Trazado 130126" d="M136.671,264.378a17.129,17.129,0,0,1-3.9.337c-8.487-.018-16.973-.005-25.46-.012a41.262,41.262,0,0,1-7.65-.332,8.171,8.171,0,0,1-6.512-2.815c-.013-1.164.871-1.868,1.41-2.75,2.2-3.609,3.22-7.34,1.149-11.38-2.561-4.742-6.984-6.545-11.91-7.547a23.763,23.763,0,0,0-11.508.742,2.877,2.877,0,0,1-1.74.151c-1.276-.895-1.387-2.579-2.455-3.617-.714-1.333-1.67-2.575-1.633-4.2.2-1.687-.827-3.046-1.27-4.555-2.181-7.448-2.492-15.073-2.335-22.753,1.1,3.57,1.075,7.384,2.338,10.914.841,2.353,1.656,4.726,2.688,7,.8,1.754,2.968,2.39,3.812,4.187.082.172.327.277.381.449,1.178,3.733,4.076,3.8,7.272,3.607a25.194,25.194,0,0,1,15.8,4.053c5.749,3.8,9.642,8.792,9.3,16.082-.1,2.046.643,2.8,2.52,3.122,10.312,1.757,20.425,1.343,30.329-2.342a55.316,55.316,0,0,0,21.5-14.368,54.694,54.694,0,0,0,10.972-17.694,56.043,56.043,0,0,0,3.422-14.539c.018-.172.2-.328.3-.491.738.667.559,1.569.6,2.4a68.525,68.525,0,0,1-.5,11.037,2.962,2.962,0,0,0,1.813,3.308c1.283.708,2.771.863,4.017,1.63a1.593,1.593,0,0,1,.409,1.629,42.521,42.521,0,0,1-4.04,10.992,2.976,2.976,0,0,1-.711.667,19.589,19.589,0,0,1-5.191-1.835c-1.013-.565-1.46-.309-1.915.684a52.042,52.042,0,0,1-9.793,14.277,53.907,53.907,0,0,1-19.307,13.1c-.734.29-1.471.572-2.206.858" transform="translate(-27.192 -89.003)" fill="#eb8208"/>
        <path id="Trazado_130127" data-name="Trazado 130127" d="M260.76,217.869a63.735,63.735,0,0,0,4.191-11.464,13.268,13.268,0,0,0,.183-1.552c1.662-.455,3.38-.138,5.081-.447,5.8-1.053,9.79-4.336,11.657-9.8a14.128,14.128,0,0,0-3.478-15.328,14.389,14.389,0,0,0-9.821-4.495c-.838-.052-1.768.063-2.212-.945a88.859,88.859,0,0,1-.155-11.8,1.89,1.89,0,0,1,.531-1.244,27.7,27.7,0,0,1,22.314,9.07,28.255,28.255,0,0,1,7.511,15.794c1.375,9.594-1.644,17.727-8.143,24.56a27.719,27.719,0,0,1-15.721,8.109,28.717,28.717,0,0,1-11.937-.457" transform="translate(-112.868 -69.581)" fill="#faa548"/>
        <path id="Trazado_130128" data-name="Trazado 130128" d="M62.843,155.261c.036-1.907-.278-3.823.2-5.717.614-2.422,1.85-3.439,4.321-3.442q12.9-.015,25.793,0h75.2c3.62,0,5.143,1.53,5.154,5.186,0,1.322-.016,2.645-.026,3.967-1.152.937-2.528.609-3.814.61q-48.037.029-96.073.015c-2.707,0-5.414.016-8.121-.01a3.61,3.61,0,0,1-2.633-.6" transform="translate(-27.172 -63.236)" fill="#faa548"/>
        <path id="Trazado_130129" data-name="Trazado 130129" d="M76.129,264.96c2.378,4.453,1.007,8.469-1.451,12.351-.418.66-.9,1.279-1.355,1.917a5.318,5.318,0,0,1-3.531,2.853c-.915.071-1.829.2-2.743.205q-11.761.025-23.523,0c-.788,0-1.575-.083-2.363-.128a1.057,1.057,0,0,1-.9-.313c-1.38-2.117-2.9-1.611-4.541-.343a2.915,2.915,0,0,1-2.031.607,87.775,87.775,0,0,1-11.948.031,10.666,10.666,0,0,1-5.187-6.435c.268-1.248,1.309-.885,2.062-.9,4.165-.056,8.332-.078,12.5,0a5.364,5.364,0,0,0,4.377-1.853A27.621,27.621,0,0,0,43.026,256.5a1.787,1.787,0,0,0-.15-1.388c-2.578,3.811-5.091,7.6-7.605,11.387a15.416,15.416,0,0,1-2.5,3.068,3.306,3.306,0,0,1-4.334.413,3.586,3.586,0,0,1-1.079-4.111,7.423,7.423,0,0,1,.849-1.567q5.377-8.1,10.79-16.169c.535-.8.991-1.81,2.282-1.493a8.826,8.826,0,0,1,5.151,4.04l1.912,3.985A6.752,6.752,0,0,1,49.3,258.9c.1,5.862-2.259,10.887-5.558,15.779,2.687.188,5.178,0,7.823.129-.693-1.333-1.349-2.639-.538-4.06a5.257,5.257,0,0,1,3.942-2.362q9.145-1.818,18.286-3.654a3.549,3.549,0,0,1,2.874.233" transform="translate(-7.166 -106.731)" fill="#a75000"/>
        <path id="Trazado_130130" data-name="Trazado 130130" d="M62.895,161.573q24.587-.018,49.174-.034,30.734,0,61.467.024c2.547,0,4.965-1.2,7.555-.8q-.008,6.717-.017,13.435a28.245,28.245,0,0,1-7.1,2.437c-.894-2.224-.387-4.548-.346-6.807.036-1.957-.6-2.378-2.468-2.375q-52.646.083-105.292.039c-.991,0-1.982-.023-2.973-.035q0-2.941,0-5.881" transform="translate(-27.223 -69.548)" fill="#eb8208"/>
        <path id="Trazado_130131" data-name="Trazado 130131" d="M40.535,246.117c-.755.067-1.084.616-1.462,1.185-3.831,5.755-7.7,11.48-11.522,17.244-1.452,2.192-.693,4.589,1.506,5.039a2.748,2.748,0,0,0,2.8-1.041c2.988-3.453,5.131-7.49,7.767-11.185.973-1.364,1.882-2.774,3.147-4.644a25.226,25.226,0,0,1-3.92,15.128c-.8,1.283-1.677,2.523-2.6,3.721-1.68,2.185-3.641,3.53-6.7,3.292-3.873-.3-7.787-.085-11.684-.062-.7,0-1.47-.247-2.058.391-1.887-5.591-.906-10.939,1.68-16,3.506-6.867,8.634-11.926,16.489-13.565a12.064,12.064,0,0,1,6.559.5" transform="translate(-6.417 -106.207)" fill="#e1780e"/>
        <path id="Trazado_130132" data-name="Trazado 130132" d="M186.3,17.576c-.239,5.594-1.74,10.339-5.484,14.167-.826.844-.884,1.308-.045,2.227a20.561,20.561,0,0,1-3.225,30.743c-1.361.974-2.78,1.62-4.364.5-1.852-1.314-1.59-3.685.606-5.268A14.3,14.3,0,0,0,180.2,47.459a14.006,14.006,0,0,0-6.091-11.438c-2.762-1.976-2.911-4.157-.165-6.1a14.6,14.6,0,0,0,.021-23.929c-1.334-.915-2.47-2.1-1.834-3.982A2.961,2.961,0,0,1,176.8.623c6.231,4.076,9.092,10.006,9.5,16.952" transform="translate(-74.427 0)" fill="#af6c1e"/>
        <path id="Trazado_130133" data-name="Trazado 130133" d="M145.684,70.841c-.278,7.16-3.165,12.949-9.156,17.041-1.783,1.217-3.348,1.042-4.44-.273-1.252-1.508-.868-3.32,1.07-4.73a14.517,14.517,0,0,0,6.281-9.892c.814-5.579-1.176-10.059-5.353-13.68-.3-.258-.643-.462-.964-.695-1.815-1.312-2.233-2.835-1.2-4.37s2.86-1.8,4.695-.54a20.153,20.153,0,0,1,7.847,10.153,18.415,18.415,0,0,1,1.222,6.986" transform="translate(-56.86 -22.896)" fill="#af6c1e"/>
        <path id="Trazado_130134" data-name="Trazado 130134" d="M223.637,68.04c.074,9.981-3.1,15.6-8.967,19.8-1.679,1.2-3.458,1.083-4.447-.157a3.161,3.161,0,0,1,.808-4.513,15.426,15.426,0,0,0,6.266-9.063,14.614,14.614,0,0,0-5.475-15.1c-.857-.629-1.846-1.181-2.087-2.275-.275-1.253-.278-2.582,1.008-3.366a3.236,3.236,0,0,1,3.716.147c6.086,4.116,9.095,9.869,9.177,14.528" transform="translate(-90.719 -22.875)" fill="#af6c1e"/>
        <path id="Trazado_130135" data-name="Trazado 130135" d="M96.01,272.658c-4.79.385-9.4,1.781-14.117,2.563-2.455.407-4.883.974-7.329,1.438-1.57.3-2.995.9-3.476,2.522-.439,1.477.339,2.662,1.738,3.7H62.488c3.689-4.836,6.143-10.092,6.194-16.235.375-.536.763-1.044,1.539-.7,3.317-.856,6.639-1.8,10.106-1.541,6.4.473,12.244,2.1,15.683,8.249" transform="translate(-27.047 -114.429)" fill="#e1780e"/>
        <path id="Trazado_130136" data-name="Trazado 130136" d="M101.861,290.871c-.974,2.228-2.329,3.691-4.859,3.632-3.913-.092-7.829-.024-11.765-.307l16.625-3.325" transform="translate(-36.894 -125.901)" fill="#e0770e"/>
      </g>
    </g>
  </g>
</svg>
