<svg xmlns="http://www.w3.org/2000/svg" width="50" height="49.405" viewBox="0 0 50 49.405">
  <g id="Grupo_157162" data-name="Grupo 157162" transform="translate(-610 -2831)">
    <path id="Trazado_130370" data-name="Trazado 130370" d="M25,0A24.853,24.853,0,0,1,50,24.7,24.853,24.853,0,0,1,25,49.4,24.853,24.853,0,0,1,0,24.7,24.853,24.853,0,0,1,25,0Z" transform="translate(610 2831)" fill="#fc5f65"/>
    <path id="Trazado_129997" data-name="Trazado 129997" d="M-5.052-17.418A1.969,1.969,0,0,1-4.73-18.5a3.589,3.589,0,0,1,.848-.9,6.237,6.237,0,0,1,1.2-.711,9.969,9.969,0,0,1,1.374-.513,10.713,10.713,0,0,1,1.374-.308,7.962,7.962,0,0,1,1.189-.1,4.841,4.841,0,0,1,1.825.328,4.141,4.141,0,0,1,1.381.889,3.849,3.849,0,0,1,.868,1.3,4.091,4.091,0,0,1,.3,1.559,5.816,5.816,0,0,1-.335,1.873,12.914,12.914,0,0,1-.889,2A23.913,23.913,0,0,1,3.145-11.04q-.7,1.032-1.442,2T.26-7.185Q-.444-6.3-1-5.571t-.889,1.278a1.838,1.838,0,0,0-.335.848.41.41,0,0,0,.178.349,1.376,1.376,0,0,0,.458.205,3.514,3.514,0,0,0,.643.1q.362.027.731.027.451,0,.868-.021T1.333-2.8q.779,0,1.477.007t1.176.007a1.276,1.276,0,0,1,.6.13,1.115,1.115,0,0,1,.4.342,1.533,1.533,0,0,1,.226.485,2.156,2.156,0,0,1,.075.574A.833.833,0,0,1,5.106-.7a1.77,1.77,0,0,1-.492.39,2.112,2.112,0,0,1-.656.185q-.465.075-1.087.116T1.518.041Q.786.055.048.055q-.629,0-1.224-.007t-1.1-.021Q-2.782.014-3.165.007T-3.753,0A1.589,1.589,0,0,1-5.106-.526a2.2,2.2,0,0,1-.4-1.36A6.139,6.139,0,0,1-5.2-3.76,11.183,11.183,0,0,1-4.4-5.646,17.462,17.462,0,0,1-3.233-7.513q.656-.923,1.367-1.825t1.415-1.771q.7-.868,1.313-1.7t1.073-1.6a6.276,6.276,0,0,0,.67-1.483,4.6,4.6,0,0,0,.157-.807,2.173,2.173,0,0,0-.055-.813,1.174,1.174,0,0,0-.41-.622,1.407,1.407,0,0,0-.9-.246A3.116,3.116,0,0,0,.39-18.2a7.7,7.7,0,0,0-1.025.438q-.506.26-.991.547t-.923.52a6.315,6.315,0,0,1-.841.376,2.235,2.235,0,0,1-.745.144.861.861,0,0,1-.663-.273A1.435,1.435,0,0,1-5.052-17.418Z" transform="translate(635 2864)" fill="#fff"/>
  </g>
</svg>
