<svg xmlns="http://www.w3.org/2000/svg" xmlns:xlink="http://www.w3.org/1999/xlink" width="85" height="85" viewBox="0 0 85 85">
  <defs>
    <clipPath id="clip-path">
      <rect id="Rectángulo_37351" data-name="Rectángulo 37351" width="53.551" height="53.597" fill="none"/>
    </clipPath>
  </defs>
  <g id="Grupo_157474" data-name="Grupo 157474" transform="translate(-8594 10597)">
    <circle id="Elipse_4842" data-name="Elipse 4842" cx="42.5" cy="42.5" r="42.5" transform="translate(8594 -10597)" fill="#3c3fa7"/>
    <g id="Grupo_157470" data-name="Grupo 157470" transform="translate(8610 -10581)">
      <g id="Grupo_157469" data-name="Grupo 157469" transform="translate(0 0)" clip-path="url(#clip-path)">
        <path id="Trazado_128440" data-name="Trazado 128440" d="M8.45,45.219c-.588.344-.847.32-1.28-.152A26.189,26.189,0,0,1,.177,29.932,26.534,26.534,0,0,1,15.068,2.721,26.756,26.756,0,0,1,52.822,20.588a24.559,24.559,0,0,1,.632,4.02c.006.082-.013.178.1.214V28.9a26.711,26.711,0,0,1-.474,3.657A26.568,26.568,0,0,1,47.45,44.033,27.17,27.17,0,0,1,40.5,49.979a26.308,26.308,0,0,1-9.941,3.481c-.6.083-1.208.033-1.806.137H24.775a11.233,11.233,0,0,0-2.031-.305A26.873,26.873,0,0,1,9.752,47.5c-.433-.352-.469-.653-.184-1.188a.74.74,0,0,1,1.154-.2c.517.354.994.764,1.507,1.126A24.917,24.917,0,0,0,23.814,51.7a24.533,24.533,0,0,0,14.573-2.661,24.841,24.841,0,0,0,9.625-8.918,18.609,18.609,0,0,0,1.555-2.9,23.339,23.339,0,0,0,2.142-7.938,24.618,24.618,0,0,0-3.624-15.651A24.92,24.92,0,0,0,37.436,4.111a24.557,24.557,0,0,0-8.751-2.287A24.555,24.555,0,0,0,15.237,4.543a24.887,24.887,0,0,0-10.19,9.724,24.4,24.4,0,0,0-3.119,9.04A25.142,25.142,0,0,0,2.7,33.86a27.469,27.469,0,0,0,1.243,3.327,23.149,23.149,0,0,0,3.129,5.16c.441.56.914,1.094,1.392,1.623.429.475.413.867-.013,1.249" transform="translate(0 0)"/>
        <path id="Trazado_128441" data-name="Trazado 128441" d="M52.2,61.673A19.9,19.9,0,0,1,49.483,66.3a24.586,24.586,0,0,1-15.295,9.63A24.822,24.822,0,0,1,13.669,71q-.208-.159-.413-.322a.8.8,0,0,0-1.166.037l-1.117-1.094a.927.927,0,0,0-.191-1.3,24.677,24.677,0,0,1-4.26-6.264c-.059-.123-.1-.256-.147-.384.254-.036.321.172.411.331A26.014,26.014,0,0,0,19.918,73.387a25.782,25.782,0,0,0,6.789,1.631A25.833,25.833,0,0,0,44.8,69.959,26.462,26.462,0,0,0,51.736,62.1c.107-.183.155-.448.461-.423" transform="translate(-2.522 -24.4)" fill="#e5485d"/>
        <path id="Trazado_128442" data-name="Trazado 128442" d="M50.679,38.274a4.925,4.925,0,0,0-.79,1.21A24.8,24.8,0,0,1,45.146,45.2a25.305,25.305,0,0,1-10.555,5.752,29.109,29.109,0,0,1-4.9.839A25.148,25.148,0,0,1,22,51.225,25.833,25.833,0,0,1,7.706,42.36a26.161,26.161,0,0,1-2.666-3.908.872.872,0,0,0-.184-.178A22.794,22.794,0,0,1,2.781,31.2,24.167,24.167,0,0,1,3.914,19.659,24.493,24.493,0,0,1,19.947,3.876,24.164,24.164,0,0,1,41.5,6.693a24.381,24.381,0,0,1,11.078,16.7A24.619,24.619,0,0,1,50.826,38c-.042.094-.1.183-.147.274" transform="translate(-1.005 -1.001)" fill="#fe5876"/>
        <path id="Trazado_128443" data-name="Trazado 128443" d="M45.859,15.3c.306.417.77.7,1,1.186a2.466,2.466,0,0,0,.695,1.77,20.431,20.431,0,0,1,3.879,10.063,20.676,20.676,0,0,1-1.757,10.892,1.753,1.753,0,0,1-.225.411c-.542.595-.913,1.311-1.392,1.951a21.623,21.623,0,0,1-14.208,8.652,23.146,23.146,0,0,1-2.593.251c-.2.011-.519.118-.57-.263a1.831,1.831,0,0,0,.5-1.481c-.019-.383,0-.766,0-1.149a2,2,0,0,0-.053-.519c-.092-.34-.24-.632-.655-.625-.386.007-.53.281-.618.6a2.149,2.149,0,0,0-.06.569c0,.418.009.836,0,1.253a1.719,1.719,0,0,0,.485,1.333c.009.384-.3.285-.485.279a21.882,21.882,0,0,1-2.6-.242,21.805,21.805,0,0,1-14.8-9.4,8.1,8.1,0,0,0-.848-1.19,16.252,16.252,0,0,1-1.54-4.206,19.628,19.628,0,0,1-.583-5.124,21.287,21.287,0,0,1,1.825-8.258A21.067,21.067,0,0,1,27.855,9.7a20.792,20.792,0,0,1,12.4,2.223,19.345,19.345,0,0,1,4.12,2.842,1.6,1.6,0,0,0,1.483.534" transform="translate(-3.73 -3.769)" fill="#e3edf8"/>
        <path id="Trazado_128444" data-name="Trazado 128444" d="M44.9,14.374a.91.91,0,0,1-1.261-.148A20.2,20.2,0,0,0,32.6,8.973,20.388,20.388,0,0,0,16.059,13.7a20.258,20.258,0,0,0-7.19,12.819A20.018,20.018,0,0,0,10.7,38.649a25.986,25.986,0,0,0,4.4,5.935,20.765,20.765,0,0,0,11.7,5.652,20.751,20.751,0,0,0,20.366-9.628c.406-.649.813-1.3,1.2-1.96a19.133,19.133,0,0,0,1.9-6.414,20.6,20.6,0,0,0-2.383-12.614,19.242,19.242,0,0,0-1.9-2.869.9.9,0,0,1-.088-1.191c.588-.378.9-.332,1.331.227a21.815,21.815,0,0,1,4.713,12.234A22.383,22.383,0,0,1,38.351,50.334a21.079,21.079,0,0,1-11.5,1.613C18.051,50.7,11.9,45.905,8.566,37.7a22.238,22.238,0,0,1,5.261-24.125A21.721,21.721,0,0,1,26.348,7.4,22.123,22.123,0,0,1,44.66,13.022c.553.49.588.725.242,1.352" transform="translate(-2.772 -2.84)"/>
        <path id="Trazado_128445" data-name="Trazado 128445" d="M27.474,32.078a.806.806,0,0,1-1.165-.111c-1.442-1.29-2.9-2.567-4.33-3.864a2.36,2.36,0,1,1,3.148-3.509q4.457,3.957,8.9,7.928a1.468,1.468,0,0,0,1.891-.045c1.432-1.452,2.849-2.919,4.3-4.354a2.34,2.34,0,0,1,3.943,1.062,2.3,2.3,0,0,1-.641,2.3c-1.545,1.561-3.072,3.141-4.635,4.684-.469.463-.335,1.108-.623,1.618-.077.138.166.239.28.335q3.9,3.28,7.807,6.555a5.389,5.389,0,0,1,.431.38.778.778,0,0,1-1.023,1.172c-.17-.121-.324-.264-.484-.4q-3.864-3.244-7.722-6.494a.51.51,0,0,0-.708-.073,3.442,3.442,0,0,1-5.089-2.154,1.205,1.205,0,0,0-.39-.649c-.8-.7-1.592-1.409-2.385-2.117-.528-.473-.569-.687-.267-1.314a.752.752,0,0,1,1.123-.167c.529.342.922.847,1.432,1.213.215.152.342.563.632.438s.454-.5.65-.786c.066-.1-.007-.2-.077-.281-.113-.131-.245-.245-.368-.367q-2.21-1.952-4.406-3.92c-1.113-1-2.254-1.97-3.343-3a3.244,3.244,0,0,0-.438-.371.663.663,0,0,0-.905.043.653.653,0,0,0,.042.943c.367.369.764.711,1.159,1.052,1.082.931,2.131,1.9,3.207,2.836.607.529.6,1.02.052,1.41" transform="translate(-8.351 -9.464)"/>
        <path id="Trazado_128446" data-name="Trazado 128446" d="M50.788,59.253A19.3,19.3,0,0,1,46.5,65.246,20.736,20.736,0,0,1,34.12,71.057,21.012,21.012,0,0,1,13.152,59.4a.677.677,0,0,1-.034-.15,16.164,16.164,0,0,1,1.356,1.893,22.119,22.119,0,0,0,4.316,4.4,21.349,21.349,0,0,0,8.609,3.99,25.635,25.635,0,0,0,3.85.488c.166.01.352.056.495-.09a.272.272,0,0,1,.42,0,1.214,1.214,0,0,0,.859.084,23.849,23.849,0,0,0,5.94-1.152,21.909,21.909,0,0,0,7.119-4.106,24.133,24.133,0,0,0,4.439-5.2c.075-.115.121-.254.267-.307" transform="translate(-5.19 -23.444)" fill="#d4dff1"/>
        <path id="Trazado_128447" data-name="Trazado 128447" d="M32.258,35.237c-.418-.36-.847-.709-1.252-1.083a.89.89,0,0,0-1.256-.085c-.436-.29-.716-.781-1.241-.955.412-.544.4-.826-.12-1.294-1.359-1.22-2.729-2.427-4.1-3.635-.29-.257-.6-.5-.564-.94a.784.784,0,0,1,1.336-.485c.736.61,1.437,1.262,2.151,1.9q2.9,2.585,5.8,5.173a2.927,2.927,0,0,1,.209.231,1.8,1.8,0,0,1-.966,1.175" transform="translate(-9.386 -10.5)" fill="#405b6c"/>
        <path id="Trazado_128448" data-name="Trazado 128448" d="M43.975,74.317h-.42a.837.837,0,0,1-.576-.876c-.008-.75-.014-1.5,0-2.249.012-.55.306-.861.771-.868.486-.008.787.311.8.894.015.732,0,1.465.006,2.2a.925.925,0,0,1-.581.9" transform="translate(-17.002 -27.824)" fill="#020202"/>
        <path id="Trazado_128449" data-name="Trazado 128449" d="M44.546,13.828c0,.4.021.8-.005,1.2a.777.777,0,0,1-1.554-.008q-.038-1.222,0-2.446a.726.726,0,0,1,.754-.764.764.764,0,0,1,.8.773,1,1,0,0,1,0,.1q0,.573,0,1.145h-.005" transform="translate(-17.001 -4.671)" fill="#020202"/>
        <path id="Trazado_128450" data-name="Trazado 128450" d="M13.769,43.055c.382,0,.764-.019,1.145,0a.762.762,0,0,1,.8.781.752.752,0,0,1-.795.783q-1.2.038-2.394,0a.754.754,0,0,1-.8-.78.778.778,0,0,1,.8-.788,1,1,0,0,1,.1,0h1.145v0" transform="translate(-4.639 -17.032)" fill="#020202"/>
        <path id="Trazado_128451" data-name="Trazado 128451" d="M72.236,43.055c.4,0,.8-.019,1.2,0a.762.762,0,0,1,.8.779.755.755,0,0,1-.794.784c-.8.026-1.6.025-2.394,0a.752.752,0,0,1-.8-.778.76.76,0,0,1,.793-.785c.4-.025.8-.005,1.2-.005" transform="translate(-27.794 -17.032)" fill="#020202"/>
        <path id="Trazado_128452" data-name="Trazado 128452" d="M48.775,36.152c1.158-1.178,2.313-2.36,3.477-3.532a.809.809,0,0,1,1.125-.065.8.8,0,0,1,0,1.128c-1.207,1.227-2.432,2.436-3.651,3.651a2.393,2.393,0,0,1-.955-1.183" transform="translate(-19.298 -12.802)" fill="#405b6b"/>
        <path id="Trazado_128453" data-name="Trazado 128453" d="M41.19,43.23a1.873,1.873,0,1,1,3.739,0,2.537,2.537,0,0,1-3.739,0" transform="translate(-16.296 -16.315)" fill="#fe5875"/>
        <path id="Trazado_128454" data-name="Trazado 128454" d="M41.191,44.536a4.824,4.824,0,0,0,1.389.644,2.677,2.677,0,0,0,2.078-.494,2.457,2.457,0,0,1,.271-.149,1.872,1.872,0,0,1-3.739,0" transform="translate(-16.298 -17.621)" fill="#e5485d"/>
        <path id="Trazado_128455" data-name="Trazado 128455" d="M37.846,40.162l.966-1.175c.118.1.23.207.355.3.3.218.29.426,0,.645a1.094,1.094,0,0,0-.176.19c-.54.682-.54.683-1.148.044" transform="translate(-14.974 -15.425)" fill="#2d4355"/>
        <path id="Trazado_128456" data-name="Trazado 128456" d="M48.434,38.636a11.005,11.005,0,0,1,.954,1.183c-.511.6-.511.6-1.015.057l-.036-.037c-.581-.616-.581-.616.1-1.2" transform="translate(-18.957 -15.287)" fill="#2d4355"/>
      </g>
    </g>
  </g>
</svg>
