<svg xmlns="http://www.w3.org/2000/svg" xmlns:xlink="http://www.w3.org/1999/xlink" width="240.048" height="255.472" viewBox="0 0 240.048 255.472">
  <defs>
    <clipPath id="clip-path">
      <rect id="Rect치ngulo_37505" data-name="Rect치ngulo 37505" width="115.414" height="224.109" fill="none"/>
    </clipPath>
  </defs>
  <g id="Grupo_157889" data-name="Grupo 157889" transform="translate(-0.048 -33)">
    <g id="Grupo_87689" data-name="Grupo 87689" transform="translate(0.048 33.001)">
      <g id="Grupo_87397" data-name="Grupo 87397">
        <path id="Rect치ngulo_34437" data-name="Rect치ngulo 34437" d="M0,0H163.048a77,77,0,0,1,77,77V255.472a0,0,0,0,1,0,0H0a0,0,0,0,1,0,0V0A0,0,0,0,1,0,0Z" fill="#ffdfe0"/>
      </g>
    </g>
    <g id="Grupo_157900" data-name="Grupo 157900" transform="translate(62.365 45.5)">
      <path id="Trazado_130180" data-name="Trazado 130180" d="M20.758,403.012h0Z" transform="translate(-11.652 -226.226)" fill="#f85c4b"/>
      <g id="Grupo_157901" data-name="Grupo 157901" transform="translate(-0.317 3.5)">
        <g id="Grupo_157900-2" data-name="Grupo 157900" clip-path="url(#clip-path)">
          <path id="Trazado_130181" data-name="Trazado 130181" d="M125.537,403.027,19.58,403.013l.017.033c0,3.481.062,6.964-.021,10.443-.115,4.83,1.562,8.585,6.09,11.019H18.659c3.111.859,6.292.15,9.43.415a14.907,14.907,0,0,1,4.884-.025,7.547,7.547,0,0,1,1.839.644q33.751.212,67.509,0c.106-.05.212-.1.322-.144.531-.205,1.116-.242,1.637-.492a12.94,12.94,0,0,1,4.748-.011c2.039-.028,4.078-.066,6.118-.082,6.826-.054,10.527-3.68,10.642-10.484.063-3.713.07-7.428.1-11.142h0a2.787,2.787,0,0,0-.349-.156" transform="translate(-10.474 -226.226)" fill="#f85c4b"/>
          <path id="Trazado_130182" data-name="Trazado 130182" d="M.711,233.858c0,2.786,0,2.785,2.871,2.789q2.86,0,5.719.014a1.678,1.678,0,0,1,.163-.149q.006-52.528.014-105.056c0-6.9,2.187-13.05,7.066-17.949a21.766,21.766,0,0,1,9.991-5.961A4.552,4.552,0,0,0,28.7,106.7s0-.01,0-.015l-6.089-.078C10.507,107.173.247,118.254.649,129.86c.02,1.966.058,3.931.058,5.9q.005,49.05,0,98.1" transform="translate(-0.358 -59.84)" fill="#b43c3c"/>
          <path id="Trazado_130183" data-name="Trazado 130183" d="M20.549,402.865h0v-.116a1.676,1.676,0,0,0-.163.149h.18Z" transform="translate(-11.443 -226.078)" fill="#b43c3c"/>
          <path id="Trazado_130184" data-name="Trazado 130184" d="M56.829,106.364a26.219,26.219,0,0,0-6.1.007l6.088.078c0-.029.007-.054.009-.085" transform="translate(-28.478 -59.608)" fill="#e2e4e4"/>
          <path id="Trazado_130185" data-name="Trazado 130185" d="M123.978,468.3c0-.015-.006-.032-.01-.047l-.035-.034c-1.335,1.5-3.072,1.6-4.934,1.6q-25.324-.053-50.648-.02c-2.007,0-4.141.356-5.3-1.959-.011-.02-.107.005-.213.037q0,6.129.007,12.257c.974-3.07.974-3.07,4.6-3.07,17.75,0,35.5.025,53.252-.038,1.776-.007,3.1.131,3.259,2.233l.124-7.888q-.052-1.534-.1-3.068" transform="translate(-35.276 -262.612)" fill="#474b62"/>
          <path id="Trazado_130186" data-name="Trazado 130186" d="M43.259,471.3c-.472-3.914-.826-7.827.213-11.713l.191-.058v-.008c.589-.765.232-1.538-.042-2.267a6.491,6.491,0,0,0-3.187-3.675l-1.113-.005c-1.849-.368-3.814.277-5.609-.614h0c-3.777,1.864-5.2,4.982-5.02,9.079.122,2.83,0,5.67.019,8.506.03,4.166,2.908,7.508,6.68,7.8,4.321.332,7.45-2.146,8.281-6.557-.15-.152-.383-.261-.411-.486" transform="translate(-16.097 -254.264)" fill="#474b62"/>
          <path id="Trazado_130187" data-name="Trazado 130187" d="M45.765,453.294l1.113.005a7.558,7.558,0,0,0-1.84-.644,14.919,14.919,0,0,0-4.884.025h0c1.8.891,3.76.246,5.61.614" transform="translate(-22.54 -253.983)" fill="#474b62"/>
          <path id="Trazado_130188" data-name="Trazado 130188" d="M61.544,467.993c-1.039,3.886-.685,7.8-.213,11.713.027.225.26.334.411.486q0-6.129-.007-12.258c-.067.021-.136.043-.191.059" transform="translate(-34.168 -262.669)" fill="#474b62"/>
          <path id="Trazado_130189" data-name="Trazado 130189" d="M14.03,287.42a8.347,8.347,0,0,1-5.058-6.453,45.45,45.45,0,0,1-.058-14.452c-2.508,1.148-5.125.564-7.708.37-.754-.057-1.083-.649-1.054-1.416.017-.436,0-.875,0-1.312q0-51.292,0-102.585a5.366,5.366,0,0,1,.135-1.951A6.968,6.968,0,0,0,.1,162.427Q.084,212.709.088,262.991c0,4.953-.112,9.907-.083,14.86.034,5.718,3.286,9.646,8.18,10.032,2.023-1.26,4.161-.5,5.846-.463" transform="translate(0 -89.601)" fill="#f34b34"/>
          <path id="Trazado_130190" data-name="Trazado 130190" d="M19.576,413.531c.082-3.479.019-6.962.021-10.443-.069.035-.139.062-.208.094a45.45,45.45,0,0,0,.058,14.452,8.347,8.347,0,0,0,5.058,6.453c-1.684-.037-3.823-.8-5.846.463h7.006c-4.527-2.434-6.2-6.19-6.09-11.019" transform="translate(-10.474 -226.268)" fill="#f34b34"/>
          <path id="Trazado_130191" data-name="Trazado 130191" d="M.327,161.571q-.008,51.293,0,102.586c0,.437.018.876,0,1.313-.029.766.3,1.358,1.054,1.415,2.583.194,5.2.779,7.708-.369,0-.026.007-.053.011-.079.005-.006.012-.01.017-.016q-2.859-.007-5.719-.014c-2.868,0-2.871,0-2.871-2.789q0-49.05,0-98.1c0-1.966-.038-3.931-.058-5.9a5.354,5.354,0,0,0-.135,1.95" transform="translate(-0.171 -89.601)" fill="#f34b34"/>
          <path id="Trazado_130192" data-name="Trazado 130192" d="M20.35,403.087c-.005.006-.012.01-.018.016,0,.026-.007.053-.011.079.069-.032.139-.06.208-.094h-.18" transform="translate(-11.407 -226.268)" fill="#f34b34"/>
          <path id="Trazado_130193" data-name="Trazado 130193" d="M206.34,453.529l-1.181.006a5.86,5.86,0,0,0-3.154,6.333c.964.884.694,2.054.707,3.158,0,.114,0,.227.007.341,1.1.893,1.579,2.4,3.062,3.076,3.894,1.766,7.624.954,10.029-2.569.321-.471.493-1.061,1.076-1.317.574-4.391-.871-7.733-5.021-9.669h0c-1.781.728-3.691.33-5.524.642" transform="translate(-113.312 -254.222)" fill="#474b62"/>
          <path id="Trazado_130194" data-name="Trazado 130194" d="M211.336,452.624c-.52.25-1.106.286-1.637.492-.11.042-.215.094-.322.144l1.181-.006c1.833-.312,3.744.086,5.524-.642h0a12.94,12.94,0,0,0-4.748.011" transform="translate(-117.532 -253.948)" fill="#474b62"/>
          <path id="Trazado_130195" data-name="Trazado 130195" d="M202.3,471.915a3.046,3.046,0,0,1,.6.385c0-.114-.005-.227-.007-.341-.013-1.1.257-2.274-.707-3.158,0,.016.006.032.01.047q.052,1.534.1,3.068" transform="translate(-113.496 -263.155)" fill="#474b62"/>
          <path id="Trazado_130196" data-name="Trazado 130196" d="M210.385,480.242a7.419,7.419,0,0,1-7.48-3.705c.032,1.437.077,2.873.018,4.309-.035.858.036,1.77-.756,2.4a7.377,7.377,0,0,0,8.016,7.445c4.024-.239,6.948-3.479,6.945-7.92,0-2.613-.045-5.225-.07-7.838a7.246,7.246,0,0,1-6.673,5.311" transform="translate(-113.484 -266.596)" fill="#3e4356"/>
          <path id="Trazado_130197" data-name="Trazado 130197" d="M202.925,481.389c.058-1.436.014-2.872-.018-4.309a10.883,10.883,0,0,1-.614-1.18l-.124,7.888c.792-.629.721-1.54.756-2.4" transform="translate(-113.485 -267.14)" fill="#3e4356"/>
          <path id="Trazado_130198" data-name="Trazado 130198" d="M216.907,476.248c-2.4,3.523-6.136,4.334-10.029,2.569-1.484-.673-1.96-2.183-3.062-3.076,0,.265.009.531.015.8a7.419,7.419,0,0,0,7.48,3.705,7.246,7.246,0,0,0,6.673-5.311c-.583.256-.755.846-1.076,1.317" transform="translate(-114.409 -266.596)" fill="#3e4356"/>
          <path id="Trazado_130199" data-name="Trazado 130199" d="M203.064,477.08c-.006-.265-.011-.53-.015-.8a3.049,3.049,0,0,0-.6-.385,10.883,10.883,0,0,0,.614,1.18" transform="translate(-113.643 -267.14)" fill="#3e4356"/>
          <path id="Trazado_130200" data-name="Trazado 130200" d="M38.044,108.272C30.226,111.058,25,116.32,22.665,124.324a29.209,29.209,0,0,0-.976,8.219q0,50.056-.012,100.113c0,1.254.272,2.584-.477,3.728a1.756,1.756,0,0,1,.3-.158,10.422,10.422,0,0,1,3.258-.262q49.327-.009,98.653,0a9.039,9.039,0,0,1,3.249.287l.022.015c-.666-1.1-.411-2.382-.411-3.586-.018-33.727-.215-67.457.1-101.181.107-11.689-8-22.182-19.588-23.992a3.043,3.043,0,0,1-2.148-.863.632.632,0,0,1-.241.288,5.132,5.132,0,0,1-2.761.465q-29.241.018-58.483-.005c-1,0-2.062.122-2.884-.687l-.018.015c-.118,1.333-1.355,1.253-2.2,1.553M35.408,223.74a3.443,3.443,0,0,1-3.422,3.1,3.033,3.033,0,0,1-3.174-2.722,16.566,16.566,0,0,1-.323-3.022q.006-40.673,0-81.345a15.472,15.472,0,0,1,.273-2.809c.366-2,1.6-3.018,3.455-2.887a3.446,3.446,0,0,1,3.218,3.316,13.111,13.111,0,0,1,.019,1.748q0,20.664,0,41.328t0,41.329a10.153,10.153,0,0,1-.049,1.963m72.757-89.772c2.2.055,3.423,1.991,3.424,5.421q0,20.552,0,41.106t0,41.106c0,3.373-1.333,5.357-3.542,5.3-2.152-.053-3.427-1.974-3.427-5.2q0-41.215,0-82.43c0-3.372,1.336-5.357,3.547-5.3m-34.64,87.587c0,3.393-1.294,5.361-3.5,5.349s-3.466-1.968-3.467-5.377q0-20.662,0-41.324,0-20.443,0-40.887c0-3.394,1.291-5.36,3.494-5.348s3.472,1.966,3.473,5.375q0,41.106,0,82.211M92.368,168.96q0,5.792,0,11.585,0,21.2-.009,42.407c0,3.127-2,4.663-4.577,3.669a3.1,3.1,0,0,1-1.949-2.429,5.892,5.892,0,0,1-.047-1.308q0-42.406-.008-84.814c0-1.272.037-2.52,1.231-3.3a3.081,3.081,0,0,1,3.448-.425,3.392,3.392,0,0,1,1.919,3.36q-.028,15.629-.006,31.259m-42.5-51.235a6.348,6.348,0,0,1,2.978-.514q17.155.033,34.31.015a10.412,10.412,0,0,1,1.527.044c2.577.384,3.816,1.668,3.661,3.745-.154,2.055-1.583,3.168-4.172,3.174-5.973.015-11.947,0-17.92,0q-8.851,0-17.7,0a6.346,6.346,0,0,1-2.768-.445,3.158,3.158,0,0,1-2.077-3.027c-.031-1.56.992-2.39,2.163-3m-2.161,66.292q0-23.061.007-46.123c0-3.057,2.384-4.777,4.851-3.542,1.43.716,1.744,2,1.74,3.485-.019,6.922-.007,13.844-.006,20.766q0,10.93,0,21.859,0,21.2.009,42.407c0,1.461-.214,2.781-1.594,3.579a3.242,3.242,0,0,1-3.676-.268c-1.287-.858-1.337-2.128-1.336-3.473q.015-19.346.006-38.691" transform="translate(-11.901 -59.864)" fill="#cb4444"/>
          <path id="Trazado_130201" data-name="Trazado 130201" d="M126.409,401.72a9.049,9.049,0,0,0-3.249-.287q-49.327-.011-98.653,0a10.453,10.453,0,0,0-3.258.262,1.754,1.754,0,0,0-.3.158,2.892,2.892,0,0,1-.194.266h0l105.958.014a2.962,2.962,0,0,1-.285-.4c-.008,0-.014-.011-.022-.015" transform="translate(-11.652 -225.331)" fill="#cb4444"/>
          <path id="Trazado_130202" data-name="Trazado 130202" d="M21.43,232.751q.026-50.056.012-100.113a29.2,29.2,0,0,1,.976-8.218c2.333-8,7.561-13.266,15.379-16.051.843-.3,2.08-.22,2.2-1.553a4.555,4.555,0,0,1-2.165.849,21.761,21.761,0,0,0-9.991,5.962c-4.879,4.9-7.065,11.043-7.066,17.948q-.013,52.528-.014,105.056a1.661,1.661,0,0,1,.194-.151c.749-1.144.476-2.474.476-3.729" transform="translate(-11.653 -59.96)" fill="#cb4444"/>
          <path id="Trazado_130203" data-name="Trazado 130203" d="M20.952,402.4a1.685,1.685,0,0,0-.194.151v.116a2.957,2.957,0,0,0,.194-.267" transform="translate(-11.652 -225.885)" fill="#cb4444"/>
          <path id="Trazado_130204" data-name="Trazado 130204" d="M20.758,403.014" transform="translate(-11.652 -226.227)" fill="#cb4444"/>
          <path id="Trazado_130205" data-name="Trazado 130205" d="M67.533,107.367q29.241.03,58.483.005a5.126,5.126,0,0,0,2.76-.464.636.636,0,0,0,.241-.288c-.006-.007-.012-.012-.018-.019q-26.725.014-53.45.032c-3.633,0-7.267.031-10.9.047h0c.822.809,1.884.686,2.884.687" transform="translate(-36.29 -59.839)" fill="#cb4444"/>
          <path id="Trazado_130206" data-name="Trazado 130206" d="M213.534,107.485c11.591,1.81,19.7,12.3,19.588,23.992-.311,33.724-.114,67.454-.1,101.181,0,1.2-.255,2.482.411,3.586a2.028,2.028,0,0,1,.286.2c.008-35.657.118-71.313-.033-106.969-.052-12.335-9.769-21.969-22.3-22.868a.137.137,0,0,1-.006.018,3.039,3.039,0,0,0,2.148.863" transform="translate(-118.659 -59.841)" fill="#cb4444"/>
          <path id="Trazado_130207" data-name="Trazado 130207" d="M261.94,402.536h0v-.2a2,2,0,0,0-.285-.2,2.958,2.958,0,0,0,.285.4" transform="translate(-146.877 -225.735)" fill="#cb4444"/>
          <path id="Trazado_130208" data-name="Trazado 130208" d="M211.363,106.62l.006-.017-.024,0,.018.019" transform="translate(-118.636 -59.839)" fill="#cb4444"/>
          <path id="Trazado_130209" data-name="Trazado 130209" d="M196.741,104.233a2.19,2.19,0,0,1-.333-.076,2.379,2.379,0,0,0,.45.683c0-.2,0-.392,0-.587-.04-.005-.078-.016-.118-.019" transform="translate(-110.251 -58.467)" fill="#e2e4e4"/>
          <path id="Trazado_130210" data-name="Trazado 130210" d="M112.336,45.785q.01-14.546.021-29.091c0-.106,0-.211,0-.318v-.16l.826-.367,1.752-.061c.521-.247,1.045-.489,1.564-.742a7.789,7.789,0,0,0,1.373-13.325A26.609,26.609,0,0,0,114.934,0H51.913c-.622.325-1.251.637-1.866.975A7.846,7.846,0,0,0,46.881,11.84a9.594,9.594,0,0,0,5.032,3.948l1.752.061a2.953,2.953,0,0,1,1.4.531A2.889,2.889,0,0,1,55.9,18.9c-.125,8.439-.1,16.882-.017,25.322.018,1.754-.489,2.44-2.219,2.088h0c-1.88.317-3.844-.409-5.681.453a26.244,26.244,0,0,1,6.1-.007c0,.03-.006.056-.008.085h.017c3.633-.016,7.266-.044,10.9-.047q26.725-.022,53.45-.032c-.347-.437-.85-.351-1.314-.4h0l-3.5,0-1.285.011h0a2.4,2.4,0,0,1-.451-.683,2.151,2.151,0,0,0,.333.076c.041,0,.078.014.118.02m-45.35.631c-1.541.008-1.987-.483-1.977-2q.089-13.114,0-26.231c-.007-.967.163-1.529.709-1.8a2.773,2.773,0,0,1,1.247-.211c12.022.069,24.044.057,36.067.07h0v.129q.01,14.988.018,29.976c-12.022.012-24.045,0-36.067.066" transform="translate(-25.728 0.001)" fill="#474b62"/>
          <path id="Trazado_130211" data-name="Trazado 130211" d="M44.784,215.511q0-20.664,0-41.329a13.109,13.109,0,0,0-.02-1.748,3.446,3.446,0,0,0-3.218-3.316c-1.858-.13-3.089.888-3.455,2.887a15.476,15.476,0,0,0-.273,2.809q0,40.673,0,81.345a16.488,16.488,0,0,0,.323,3.021,3.033,3.033,0,0,0,3.173,2.723,3.443,3.443,0,0,0,3.422-3.1,10.123,10.123,0,0,0,.049-1.963q0-20.664,0-41.328" transform="translate(-21.227 -94.926)" fill="#f87777"/>
          <path id="Trazado_130212" data-name="Trazado 130212" d="M128.093,168.933c-2.2-.012-3.494,1.954-3.494,5.348q0,20.443,0,40.887,0,20.662,0,41.324c0,3.408,1.267,5.364,3.467,5.377s3.5-1.957,3.5-5.349q0-41.106,0-82.211c0-3.409-1.269-5.364-3.472-5.375" transform="translate(-69.941 -94.828)" fill="#f87777"/>
          <path id="Trazado_130213" data-name="Trazado 130213" d="M214.79,261.867c2.209.054,3.541-1.93,3.542-5.3q0-20.552,0-41.106t0-41.106c0-3.431-1.228-5.366-3.424-5.421s-3.547,1.93-3.547,5.3q0,41.215,0,82.43c0,3.231,1.275,5.151,3.427,5.2" transform="translate(-118.644 -94.827)" fill="#f87777"/>
          <path id="Trazado_130214" data-name="Trazado 130214" d="M82.959,261.119a3.242,3.242,0,0,0,3.676.268c1.38-.8,1.6-2.119,1.594-3.579q-.025-21.2-.01-42.407,0-10.93,0-21.859c0-6.922-.013-13.844.006-20.766,0-1.481-.31-2.769-1.739-3.486-2.467-1.235-4.848.486-4.851,3.542q-.022,23.061-.007,46.123,0,19.345-.006,38.691c0,1.344.049,2.615,1.336,3.473" transform="translate(-45.818 -94.802)" fill="#f87878"/>
          <path id="Trazado_130215" data-name="Trazado 130215" d="M173.083,169.32a3.083,3.083,0,0,0-3.448.426c-1.194.784-1.231,2.032-1.231,3.3q.012,42.407.008,84.814a5.887,5.887,0,0,0,.048,1.307,3.1,3.1,0,0,0,1.949,2.429c2.582.994,4.574-.542,4.577-3.669q.024-21.2.009-42.407,0-5.793,0-11.586,0-15.629.006-31.259a3.393,3.393,0,0,0-1.919-3.36" transform="translate(-94.529 -94.843)" fill="#f87878"/>
          <path id="Trazado_130216" data-name="Trazado 130216" d="M83.709,137.273a6.345,6.345,0,0,0,2.768.445q8.85-.009,17.7,0c5.973,0,11.947.01,17.919,0,2.589-.007,4.019-1.119,4.173-3.174.155-2.078-1.084-3.361-3.661-3.745a10.413,10.413,0,0,0-1.527-.044q-17.155,0-34.31-.015a6.35,6.35,0,0,0-2.978.514c-1.17.61-2.193,1.441-2.163,3a3.159,3.159,0,0,0,2.078,3.027" transform="translate(-45.822 -73.385)" fill="#f87777"/>
        </g>
      </g>
    </g>
  </g>
</svg>
