<svg xmlns="http://www.w3.org/2000/svg" xmlns:xlink="http://www.w3.org/1999/xlink" width="240.048" height="255.472" viewBox="0 0 240.048 255.472">
  <defs>
    <clipPath id="clip-path">
      <rect id="Rect치ngulo_37507" data-name="Rect치ngulo 37507" width="189.177" height="182" fill="none"/>
    </clipPath>
  </defs>
  <g id="Grupo_157891" data-name="Grupo 157891" transform="translate(-0.048 -33)">
    <g id="Grupo_87689" data-name="Grupo 87689" transform="translate(0.048 33)">
      <g id="Grupo_87397" data-name="Grupo 87397">
        <path id="Rect치ngulo_34437" data-name="Rect치ngulo 34437" d="M0,0H163.048a77,77,0,0,1,77,77V255.472a0,0,0,0,1,0,0H0a0,0,0,0,1,0,0V0A0,0,0,0,1,0,0Z" fill="#ffdfe0"/>
      </g>
    </g>
    <g id="Grupo_157902" data-name="Grupo 157902" transform="translate(25.048 69.999)">
      <g id="Grupo_157904" data-name="Grupo 157904" clip-path="url(#clip-path)">
        <path id="Trazado_130289" data-name="Trazado 130289" d="M352.53,139.866c-1.219,3.475-2.464,6.942-3.628,10.435-.174.523-.914,1.164-.044,1.762-1.89,4.737-3.256,9.677-5.555,14.254a1.9,1.9,0,0,1-.728.8c-.54.138-.734.624-1.015,1.018-8.187,11.492-21.626,15.612-34.947,10.714q-3.269-1.2-6.541-2.392c-8.757-4.725-13.5-12.248-15.049-21.891a21.942,21.942,0,0,1,.093-8.046c.564-.625,1.334-.5,2.048-.532a3,3,0,0,0,2.916-1.83c.519-1.275-.359-2.174-1.067-3.1-.581-.758-1.776-.908-1.985-2.026.619-1.7,1.188-3.421,1.889-5.092.341-.811.73-1.547,1.768-1.557,1.926.153,2.958,1.591,4.065,2.887,1.4,1.642,2.246,2.019,3.138,1.29s.772-2.123-.257-3.669a11.162,11.162,0,0,0-4.688-3.727c-.638-.31-1.449-.438-1.644-1.318.481-3.066,1.863-5.845,2.85-8.745,1.7-5.007,3.452-10,5.3-14.957.277-.742.464-1.554,1.3-1.925a3.958,3.958,0,0,1,2.5.393c15.1,5.4,30.244,10.654,45.331,16.079,2.676.962,2.857,1.339,1.821,4.056-.811,2.126-1.519,4.285-2.234,6.442-1.443,4.357-.347,7.45,3.519,9.966a2.782,2.782,0,0,1,.84.7" transform="translate(-179.28 -64.319)" fill="#c28859"/>
        <path id="Trazado_130290" data-name="Trazado 130290" d="M95.249,188.223c.229-.078.472-.252.684-.22,3.591.54,6.634-1.042,9.812-2.332,6.659-2.7,13.5-3.371,20.469-1.155,2.241,2.812,4.6,5.469,7.833,7.245.808.443.532,1.7.5,2.61A28.677,28.677,0,0,0,145.7,218.3c.925.725,2.22,1.132,2.51,2.51a139.582,139.582,0,0,1,1.753,13.985,1.443,1.443,0,0,1-.815.923,6.147,6.147,0,0,0-3.166,4.429c-.076.455-.15,1-.816,1.028-1.279-1.569-1.6-3.556-2.309-5.369-1.5-3.84-1.469-3.95-5.509-3.83-5.894.176-10.912-2.066-15.577-5.359a36.156,36.156,0,0,1-5.979-5.193c-.87-.958-1.4-.874-2.014.3-3.645,6.993-9.144,12.438-14.926,17.625a128.135,128.135,0,0,1-12.424,9.55,5.5,5.5,0,0,1-2.6,1.32,1.405,1.405,0,0,1-.554-.137,22.222,22.222,0,0,1-5.388-6.732c-5.392-9.355-7.258-19.326-4.51-29.866,1.9-7.27,6.2-13.058,12.121-17.638a45.031,45.031,0,0,1,13.252-7.349c-.808.07-2.189.746-3.5-.271" transform="translate(-45.416 -115.357)" fill="#f3dc45"/>
        <path id="Trazado_130291" data-name="Trazado 130291" d="M103.807,312.384a119.07,119.07,0,0,0,19.3-15.294c4.194-4.143,8.065-8.616,10.627-14.025.562-1.187.994-1.082,1.793-.219a37.448,37.448,0,0,0,12.862,9.335A23.224,23.224,0,0,0,160.3,293.7c.943-.106,1.283.028,1.592.9,1.038,2.947,2.169,5.862,3.264,8.789a2.129,2.129,0,0,1,1.059,1.209,94.849,94.849,0,0,1,4.483,12.93,2.274,2.274,0,0,1,0,.728c-.692.743-.087,1.517-.051,2.276a29.428,29.428,0,0,1-20.358,30.151c-1.616.567-3.085,1.51-4.79,1.841-1.643.056-3.16.834-4.8.869a29.717,29.717,0,0,1-21.672-8.021c-1.878-1.746-3.784-3.51-4.742-6,0-.733.521-1.209.872-1.771,1.307-2.091.587-3.816-1.818-4.387-.761-.181-1.606-.01-2.286-.539-.941-2.3-2.389-4.441-2.285-7.08,1.243-1.366,2.848-.739,4.33-.765a4.755,4.755,0,0,1,1.252.3,1.719,1.719,0,0,0,2.257-1.06c.435-1.1-.284-1.795-1.175-2.17a9.255,9.255,0,0,0-5.2-.816,10.876,10.876,0,0,1-2.729.382c-.121-.026-.279-.034-.341-.12a16.273,16.273,0,0,1-3.349-8.961" transform="translate(-65.369 -177.699)" fill="#fecabd"/>
        <path id="Trazado_130292" data-name="Trazado 130292" d="M379.71,85.371a7.769,7.769,0,0,1-5.267-9.412c.9-3,1.979-5.943,3.074-8.876.437-1.172.3-1.691-.987-2.137-10.153-3.526-20.28-7.128-30.411-10.716-5.326-1.887-10.641-3.8-15.968-5.682-.689-.243-1.416-.376-2.126-.559a.6.6,0,0,1-.155-.532c2.958-8.745,6.08-17.435,9.251-26.1,1.344-3.673,4.307-5.529,8.238-5.752q22.275,7.9,44.544,15.811c4.621,1.653,6.8,5.957,5.224,10.485C390.111,56.3,384.993,70.677,379.91,85.063a1.564,1.564,0,0,1-.2.308" transform="translate(-206.46 -9.824)" fill="#544f57"/>
        <path id="Trazado_130293" data-name="Trazado 130293" d="M52.75,196.767H56.8l.094.274c-1.272.608-2.53,1.248-3.819,1.817a41.872,41.872,0,0,0-13.707,9.41,31.778,31.778,0,0,0-9.181,22.19,40.608,40.608,0,0,0,8.743,25.755c.628.825,1.361,1.57,2.045,2.352.021,1.015-.857,1.283-1.486,1.7-4.093,2.742-8.336,5.244-12.661,7.593-1.419.771-1.611,1.6-1.04,2.971.8,1.93,1.58,3.876,2.248,5.86.154.458.436,1.01-.071,1.35-.4.265-.846-.077-1.165-.348-1.57-1.338-3.585-.994-5.381-1.469-3.347-5.294-6.979-10.41-9.869-15.989-3.267-6.309-5.893-12.858-6.682-19.955a32.2,32.2,0,0,1,8.542-26.479c8.467-9.2,19.193-14.047,31.291-16.241a37.892,37.892,0,0,1,8.043-.8" transform="translate(-2.916 -123.9)" fill="#e9b04d"/>
        <path id="Trazado_130294" data-name="Trazado 130294" d="M257.557,96.6q.028.155.07.307c-.969.892-1.051,2.2-1.456,3.324-2.651,7.382-5.218,14.8-7.812,22.2-.84.728-1.863.469-2.816.478a9.562,9.562,0,0,0-3.949.679c-.962.437-1.755,1.063-1.364,2.249s1.386,1.316,2.415.99a8.99,8.99,0,0,1,3.982-.41c.45.062,1.03.08,1.012.794-.938-.1-1.145.565-1.5,1.244-.85,1.636-.833,3.644-2.2,5.046-.765.353-1.439-.068-2.123-.278a7.008,7.008,0,0,0-3.993-.151c-2.262.627-2.893,2.543-1.457,4.406a8.631,8.631,0,0,0,3.933,2.618c.612.237,1.354.226,1.777.861,0,4.526-.148,9.042,1.465,13.424a29.208,29.208,0,0,0,11.532,15c.642.418,1.483.659,1.78,1.506-5.667-1.91-11.4-3.633-16.821-6.216-.381-.181-.783-.32-1.174-.478-3.734-2.709-7.232-5.64-9.692-9.645a28.82,28.82,0,0,1-4.419-17.14,2.534,2.534,0,0,0-1.731-2.949c-2.944-1.262-4.82-3.7-6.158-6.554a12.887,12.887,0,0,1,.612-10.342c1.49-2.885,3.551-4.035,6.536-3.681,2.551.3,4.467,2.109,5.259,4.944.078.278.21.54.377.961l4.372-11.818c.557-.446,1.173-.2,1.772-.148a7.854,7.854,0,0,0,8.447-5.426c.841-2.372,1.713-4.733,2.533-7.113.694-2.012,1.382-2.388,3.324-1.649,2.5.952,5.194,1.438,7.465,2.969" transform="translate(-136.062 -58.739)" fill="#b07a4a"/>
        <path id="Trazado_130295" data-name="Trazado 130295" d="M42.365,381.349c2.427-.654,4.517.087,6.712,1.935-1.1-2.86-1.992-5.316-3-7.722-.557-1.327-.314-2.021,1.021-2.735,4.861-2.6,9.573-5.467,14.172-8.512a4.878,4.878,0,0,0,.652-.629l.374.019q1.392,3.854,2.789,7.706a1.694,1.694,0,0,0,.9,1.1c0,.849-.788.841-1.267,1.125a11.943,11.943,0,0,0-4.252,4.271c-.654,1.1-.739,2.131.391,2.921,1.209.845,1.945-.019,2.566-.915.882-1.273,1.717-2.577,3.328-3.045a.866.866,0,0,1,.71.057c.2,1.951,1.247,3.619,1.82,5.446a4.142,4.142,0,0,1,.4,1.554c-.315.847-1.142.845-1.814,1.042a7.635,7.635,0,0,0-4.424,3.357c-.97,1.534-.526,2.843,1.139,3.554,2.1.9,4.062.155,6.03-.551.776-.278,1.407-1.043,2.366-.74a29.326,29.326,0,0,0,19.147,13.071,25.111,25.111,0,0,0,10.7.067c.423-.1.814-.317,1.16.123-5.853,2.18-11.488,5.091-17.6,6.386-11.849,2.508-21.818-.994-29.508-10.449a3.133,3.133,0,0,0-3.724-1.283c-8.077,1.644-14.314-3.593-15.218-10.873-.333-2.683,1.208-4.78,4.435-6.281" transform="translate(-23.857 -229.021)" fill="#e9ab9c"/>
        <path id="Trazado_130296" data-name="Trazado 130296" d="M288.081,37.858a55.631,55.631,0,0,1-7.791-2.65c-1.5-.561-2.081-.106-2.512,1.276-.672,2.155-1.494,4.263-2.224,6.4-1.862,5.448-5.455,7.523-11.015,6.341,1.555-5.514,3.706-10.824,5.574-16.23,3.091-8.948,6.342-17.84,9.517-26.759C281.538.875,285.807-1.2,291.142.68c4.786,1.687,9.562,3.4,14.343,5.1a.73.73,0,0,1-.768.634c-3.936.274-6.127,2.639-7.367,6.155q-4.244,12.038-8.506,24.07a2.17,2.17,0,0,1-.764,1.223" transform="translate(-166.586 0)" fill="#454045"/>
        <path id="Trazado_130297" data-name="Trazado 130297" d="M275.026,343.327c-1.118-3.145-2.209-6.3-3.364-9.432-.675-1.831-1.449-3.624-2.178-5.435.624-2.822,1.83-5.2,4.767-6.26,4.485-.992,7.791,1.65,8.812,7.042a12.42,12.42,0,0,1-8.037,14.084" transform="translate(-169.7 -202.768)" fill="#e9ab9c"/>
        <path id="Trazado_130298" data-name="Trazado 130298" d="M441.008,248.695c1.685-4.337,3.352-8.681,5.071-13a14.9,14.9,0,0,1,1.212-2.053,6,6,0,0,1,7.4-1.174,5.867,5.867,0,0,1,3.039,6.679c-1.495,7.982-9.451,12.526-16.725,9.552" transform="translate(-277.712 -145.893)" fill="#b07a4a"/>
        <path id="Trazado_130299" data-name="Trazado 130299" d="M326.744,444.579a2.745,2.745,0,0,1-4.136,2.308c-3.339-2.057-6.579-4.283-9.776-6.557-1.278-.909-1.294-2.332-.553-3.641a2.578,2.578,0,0,1,3.676-.942c3.3,2.125,6.533,4.353,9.764,6.581a2.432,2.432,0,0,1,1.024,2.251" transform="translate(-196.337 -274.135)" fill="#f3dc45"/>
        <path id="Trazado_130300" data-name="Trazado 130300" d="M199.327,60.04a2.4,2.4,0,0,1-1.345,2.438,2.591,2.591,0,0,1-3.108-.315c-2.731-2.915-5.443-5.854-8.022-8.9a2.567,2.567,0,0,1,.338-3.674,2.914,2.914,0,0,1,3.883.068c2.627,2.844,5.169,5.767,7.742,8.662a2.265,2.265,0,0,1,.512,1.723" transform="translate(-117.27 -30.78)" fill="#80b3fa"/>
        <path id="Trazado_130301" data-name="Trazado 130301" d="M325.876,411.38c2.376.428,5.284.868,8.149,1.5a2.58,2.58,0,0,1,2.061,3.047,2.653,2.653,0,0,1-2.959,2.424c-3.027-.427-6.046-.96-9.035-1.6a2.631,2.631,0,0,1-1.918-3.3c.391-1.663,1.573-2.227,3.7-2.075" transform="translate(-202.827 -259.039)" fill="#f3dc45"/>
        <path id="Trazado_130302" data-name="Trazado 130302" d="M182.983,89.136c.046,2.2-1.774,3.6-3.69,2.81-2.715-1.115-5.392-2.332-8.03-3.618A2.585,2.585,0,0,1,169.89,84.8a2.748,2.748,0,0,1,3.658-1.541c2.657,1.1,5.268,2.308,7.873,3.527a2.375,2.375,0,0,1,1.563,2.353" transform="translate(-106.822 -52.284)" fill="#80b3fa"/>
        <path id="Trazado_130303" data-name="Trazado 130303" d="M296.045,454.2a2.633,2.633,0,0,1,2.415,1.43c1.457,2.277,2.912,4.557,4.294,6.881a2.863,2.863,0,0,1-.748,4.067,2.744,2.744,0,0,1-3.966-1.053c-1.521-2.308-3.008-4.643-4.4-7.032a2.743,2.743,0,0,1,2.4-4.292" transform="translate(-184.627 -286.015)" fill="#f3dc45"/>
        <path id="Trazado_130304" data-name="Trazado 130304" d="M222.469,39.51c-.06-1.917.534-2.937,1.907-3.3s2.728-.019,3.253,1.387c1.094,2.93,2.086,5.907,2.919,8.92a2.523,2.523,0,0,1-1.745,3.087,2.364,2.364,0,0,1-3.21-1.02,74.708,74.708,0,0,1-3.124-9.077" transform="translate(-140.091 -22.721)" fill="#80b3fa"/>
        <path id="Trazado_130305" data-name="Trazado 130305" d="M319.445,242.84a13.012,13.012,0,0,1-12.7-15.792c.289-1.273.626-1.641,2.049-1.119,7.149,2.622,14.34,5.13,21.548,7.586,1.416.482,1.7.977.961,2.31a12.758,12.758,0,0,1-11.861,7.015" transform="translate(-192.964 -142.128)" fill="#454045"/>
        <path id="Trazado_130306" data-name="Trazado 130306" d="M274.272,207.4a8.894,8.894,0,0,1-6.259-3.4c-1.575-2.119-.82-4.157,1.734-4.932,2.257-.685,4.334.024,6.388.872.971.73,2.137,1.251,2.783,2.336.553.929,1.267,1.863.626,3.064a3.424,3.424,0,0,1-3.066,2c-.735.024-1.471.04-2.206.06" transform="translate(-168.257 -125.187)" fill="#e38fb6"/>
        <path id="Trazado_130307" data-name="Trazado 130307" d="M391.15,241.763a8.481,8.481,0,0,1,7.584,3.305c1.593,1.891,1.022,3.932-1.309,4.787-3.167,1.163-8.144-.612-9.876-3.521a2.926,2.926,0,0,1,2.155-4.559,8.279,8.279,0,0,1,1.446-.013" transform="translate(-243.74 -152.225)" fill="#e38fb6"/>
        <path id="Trazado_130308" data-name="Trazado 130308" d="M389.281,208.81c4.7-.261,7.76,2.135,10.072,5.767a2.253,2.253,0,0,1-.6,3.39c-1.358.9-2.368.273-3.219-.984-2.5-3.695-4.676-4.455-8.944-3.2-1.435.422-2.606.172-3.181-1.3s.294-2.286,1.515-2.891a8.044,8.044,0,0,1,4.352-.782" transform="translate(-241.331 -131.468)" fill="#985e33"/>
        <path id="Trazado_130309" data-name="Trazado 130309" d="M287.357,176.735a5.7,5.7,0,0,0-4.412,0c-1.842.665-3.049.367-3.608-.968-.591-1.413.171-2.511,2.031-3.271,2.2-.9,4.469-.446,6.71-.547,2.588,1.226,5.223,2.392,6.719,5.063a4.413,4.413,0,0,1,.623,1.308c.2,1.187.179,2.307-1.2,2.923-1.329.6-2.125-.192-2.808-1.046-1.139-1.427-2.094-3.025-4.061-3.466" transform="translate(-175.781 -108.266)" fill="#975e33"/>
        <path id="Trazado_130310" data-name="Trazado 130310" d="M336.616,205.2c2.747,1.017,5.538,1.935,8.221,3.1a1.91,1.91,0,0,1,.685,2.746,1.971,1.971,0,0,1-2.553,1.21c-2.435-.841-4.863-1.7-7.295-2.548-1.464-.512-1.726-1.658-1.457-2.977.256-1.253,1.266-1.344,2.4-1.531" transform="translate(-210.405 -129.217)" fill="#b07a4a"/>
        <path id="Trazado_130311" data-name="Trazado 130311" d="M175.16,405.206a13.171,13.171,0,0,1-24.671,6.438c-.688-1.218-.726-1.816.789-2.375q10.617-3.911,21.148-8.055c1.544-.609,2.257-.462,2.4,1.259.074.914.223,1.822.338,2.733" transform="translate(-94.479 -252.447)" fill="#454045"/>
        <path id="Trazado_130312" data-name="Trazado 130312" d="M114.6,424.98a15.683,15.683,0,0,1-5.225,2.092,5.561,5.561,0,0,1-4.06-.685,2.344,2.344,0,0,1-1.016-3.294,8.014,8.014,0,0,1,5.257-4.254c.585-.164,1.164-.346,1.746-.52,1.954-.077,3.97.029,4.95,1.991.966,1.933-.6,3.283-1.652,4.671" transform="translate(-65.48 -263.413)" fill="#e390b6"/>
        <path id="Trazado_130313" data-name="Trazado 130313" d="M231.152,373.42c1.452-.166,3.012.034,3.843,1.59a2.875,2.875,0,0,1-.444,3.271,11.139,11.139,0,0,1-2.11,2.033,9.608,9.608,0,0,1-6.822,1.578,3.043,3.043,0,0,1-1.771-5.355,8.85,8.85,0,0,1,7.3-3.117" transform="translate(-140.276 -235.12)" fill="#e390b6"/>
        <path id="Trazado_130314" data-name="Trazado 130314" d="M104.239,390.779a6.888,6.888,0,0,0-3.721,3.33c-.652,1.128-1.545,2-2.977,1.18-1.345-.768-1.592-2.082-.783-3.589a11.964,11.964,0,0,1,6.005-5.335,11.133,11.133,0,0,1,7.9.09c1.271.505,2.338,1.281,1.844,2.9-.446,1.458-1.678,1.834-3.406,1.326a7.282,7.282,0,0,0-4.861.1" transform="translate(-60.639 -242.875)" fill="#de9380"/>
        <path id="Trazado_130315" data-name="Trazado 130315" d="M215.853,349.519c-.017,1.486-1.318,2.371-3.087,1.753a7.409,7.409,0,0,0-5.374.032,6.418,6.418,0,0,0-3.306,3.056c-.755,1.366-1.81,2.055-3.322,1.383-1.353-.6-1.486-1.823-.554-3.651a11.351,11.351,0,0,1,13.739-5.176,2.5,2.5,0,0,1,1.9,2.6" transform="translate(-125.699 -218.018)" fill="#de9380"/>
        <path id="Trazado_130316" data-name="Trazado 130316" d="M160.528,388.417a1.583,1.583,0,0,1-1.924-1.155c-.226-1.006-.369-2.2.8-2.762a48.155,48.155,0,0,1,8.01-3.071,1.99,1.99,0,0,1,2.459,1.427,2.146,2.146,0,0,1-.836,2.6,50.754,50.754,0,0,1-8.514,2.964" transform="translate(-99.779 -240.143)" fill="#e9ab9d"/>
        <path id="Trazado_130317" data-name="Trazado 130317" d="M23.786,82.929c-.411-1.954-1.871-2.9-3.442-2.481a2.948,2.948,0,0,0-2.06,3.754c.551,2.707,1.086,5.417,1.681,8.114.212.962.038,1.434-1.037,1.632-3.379.623-6.747,1.316-10.1,2.056-.947.209-1.3.032-1.472-.964-.433-2.541-.986-5.061-1.5-7.588-.289-1.416-.647-2.793-2.286-3.27C1.9,83.7.951,84.763,0,85.825v2.216a19.5,19.5,0,0,1,1.1,4.613c1.411,6.792,2.763,13.6,4.163,20.391.452,2.193,1.754,3.147,3.605,2.743,1.62-.353,2.351-1.743,1.956-3.742-.57-2.892-1.049-5.806-1.766-8.662-.332-1.323.041-1.748,1.243-1.976,3.2-.606,6.4-1.211,9.562-1.952,1.192-.278,1.6.023,1.818,1.168.592,3.136,1.22,6.268,1.949,9.374a2.636,2.636,0,0,0,3.344,2.093,2.776,2.776,0,0,0,2.116-3.368q-2.611-12.906-5.3-25.8" transform="translate(0 -50.597)" fill="#dc636e"/>
        <path id="Trazado_130318" data-name="Trazado 130318" d="M110.59,95.785q-7.13-11.31-14.247-22.628c-.964-1.537-2.175-2.519-4.1-2.12-1.873.389-2.507,1.815-2.78,3.487q-2.2,13.449-4.38,26.9a2.889,2.889,0,0,0,2.129,3.394,2.7,2.7,0,0,0,3.332-2.122,33.789,33.789,0,0,0,.694-3.987,1.488,1.488,0,0,1,1.38-1.441c3.134-.593,6.275-1.167,9.374-1.915a1.767,1.767,0,0,1,2.327,1.054,24.574,24.574,0,0,0,2.108,3.242,2.6,2.6,0,0,0,3.171.789,2.51,2.51,0,0,0,1.688-2.6,3.451,3.451,0,0,0-.7-2.058M99.171,90.214c-1.8.339-3.6.735-5.395,1.11-.947.2-1.311-.03-1.113-1.117.561-3.07,1.015-6.16,1.588-9.717,1.961,3.1,3.651,5.792,5.362,8.469.417.651.514,1.076-.442,1.255" transform="translate(-53.551 -44.677)" fill="#dc636e"/>
        <path id="Trazado_130319" data-name="Trazado 130319" d="M406.108,337.256c-1.6-.569-2.984.253-3.772,2.3-.795,2.062-1.585,4.127-2.309,6.214-.305.88-.679,1.1-1.587.738-2.5-1.012-5.022-1.994-7.579-2.858-1.162-.393-1.153-.932-.761-1.891q1.254-3.068,2.351-6.2c.671-1.9.074-3.457-1.443-4.024-1.673-.624-3.1.13-3.855,2.123q-3.992,10.5-7.939,21.018c-.75,2-.18,3.5,1.473,4.15,1.611.632,3.006-.13,3.809-2.176q1.38-3.514,2.642-7.073c.313-.886.74-1.084,1.612-.738,2.51,1,5.033,1.965,7.578,2.871.955.34,1.215.715.8,1.727-1,2.441-1.923,4.918-2.779,7.415-.714,2.084.516,3.871,3.039,3.875,1.118-.023,1.876-1.006,2.4-2.391,2.615-6.953,5.275-13.888,7.9-20.836.767-2.029.147-3.628-1.578-4.241" transform="translate(-238.594 -208.639)" fill="#dc636e"/>
        <path id="Trazado_130320" data-name="Trazado 130320" d="M460.8,378.758q0-6.18,0-12.361a3.01,3.01,0,0,0-2.01-3.02,3.2,3.2,0,0,0-3.743.756q-8.283,9.292-16.505,18.638a2.784,2.784,0,0,0,.174,3.98c1.175,1.065,3.039,1.195,3.91-.228,2.024-3.308,4.459-3.1,7.342-1.474a13.249,13.249,0,0,0,1.718.655c3.434,1.344,3.434,1.346,3.521,5.075.05,2.115.949,3.18,2.72,3.221,1.842.043,2.856-1.069,2.869-3.25.023-4,.006-7.995.006-11.992m-5.687,2.021c-1.729-.267-3.22-1.17-4.847-1.652-.47-.139-.694-.561-.255-.8l5.1-5.708Z" transform="translate(-275.688 -228.646)" fill="#dc636e"/>
      </g>
    </g>
  </g>
</svg>
