<svg xmlns="http://www.w3.org/2000/svg" xmlns:xlink="http://www.w3.org/1999/xlink" width="85" height="85" viewBox="0 0 85 85">
  <defs>
    <clipPath id="clip-path">
      <rect id="Rectángulo_37352" data-name="Rectángulo 37352" width="47.267" height="53.684" fill="none"/>
    </clipPath>
  </defs>
  <g id="Grupo_157473" data-name="Grupo 157473" transform="translate(-8594 10486)">
    <circle id="Elipse_4847" data-name="Elipse 4847" cx="42.5" cy="42.5" r="42.5" transform="translate(8594 -10486)" fill="#3c3fa7"/>
    <g id="Grupo_157472" data-name="Grupo 157472" transform="translate(8613 -10470)">
      <g id="Grupo_157471" data-name="Grupo 157471" clip-path="url(#clip-path)">
        <path id="Trazado_128457" data-name="Trazado 128457" d="M27.186,52.879a.911.911,0,0,1-1.051.8q-12.552-.011-25.1-.006c-.665,0-1.029-.288-1.031-.8s.366-.8,1.026-.8c1.065,0,2.13-.012,3.2.005.306.005.407-.082.467-.4a6.593,6.593,0,0,1,3.069-4.527,1.094,1.094,0,0,0,.444-.49,5.266,5.266,0,0,1,4.756-3.256.577.577,0,0,0,.52-.329,4.831,4.831,0,0,1,4.253-2.419.576.576,0,0,0,.526-.236,6.6,6.6,0,0,1,4.216-2.586c.337-.062.369-.194.368-.474-.01-1.826-.018-3.651.005-5.477.005-.4-.133-.461-.486-.459a14.689,14.689,0,0,1-4.8-.439A10.192,10.192,0,0,1,13.1,28.141c-.491-.539-.505-.8-.082-1.4a.944.944,0,0,1,1.257.3,8.48,8.48,0,0,0,2.365,1.85c1.87,1.035,3.906.974,5.942.944.266,0,.249-.167.249-.343,0-.665.019-1.331,0-1.995a8.369,8.369,0,0,0-4.265-7.271c-1.916-1.162-4.045-1.171-6.184-1.127-.238.005-.284.117-.281.318a15.771,15.771,0,0,0,.255,4.024.9.9,0,0,1-.49,1.179.877.877,0,0,1-1.059-.77,16.007,16.007,0,0,1-.3-4.136c0-.456-.007-.912,0-1.368a.732.732,0,0,1,.714-.811c2.406-.041,4.828-.223,7.123.8a10.465,10.465,0,0,1,4.488,3.788c0-1.239,0-2.345,0-3.451,0-.2-.185-.276-.3-.395a24.61,24.61,0,0,1-2.846-3.1,9.8,9.8,0,0,1-1.428-3.2c-.151-.633-.034-.865.582-1.156a.817.817,0,0,1,.927.66c.5,2.276,2,3.87,3.62,5.4.2.19.321.187.506-.007.564-.59,1.18-1.135,1.71-1.754a8.339,8.339,0,0,0,1.938-7.318c-.46-2.429-2.048-4.094-3.745-5.7-.129-.122-.217-.1-.332.016-1.568,1.507-3.116,3.028-3.626,5.262-.123.539-.387.9-1,.88-.642-.33-.744-.539-.569-1.222A9.747,9.747,0,0,1,20.73,2.6Q21.843,1.455,22.986.338c.42-.412.823-.457,1.206-.078a31.909,31.909,0,0,1,3.085,3.2,10.019,10.019,0,0,1-.787,13.051c-.582.6-1.185,1.183-1.773,1.779-.128.129-.29.231-.287.462.01,1.074,0,2.148,0,3.365a10.8,10.8,0,0,1,2.187-2.4,10.073,10.073,0,0,1,6.221-2.2c.97-.019,1.941-.013,2.912,0,.728.007,1.021.288,1.008,1a22.642,22.642,0,0,1-.327,5.45,10.055,10.055,0,0,1-9.347,7.468c-.742.023-1.485.019-2.226.005-.3-.006-.438.04-.435.392.017,1.865.014,3.729,0,5.594,0,.283.081.365.366.417a6.619,6.619,0,0,1,4.219,2.59.578.578,0,0,0,.526.237,4.834,4.834,0,0,1,4.254,2.422.578.578,0,0,0,.523.324,5.273,5.273,0,0,1,4.733,3.213,1.209,1.209,0,0,0,.472.537A6.6,6.6,0,0,1,42.579,51.7c.061.332.189.386.48.382,1.066-.013,2.131-.008,3.2,0,.649,0,1.024.311,1.01.819-.012.484-.377.778-.992.779-3.045,0-6.09,0-9.135,0a.855.855,0,0,1-.985-.8c.08-.607.451-.819,1.033-.811,1.122.017,2.245-.009,3.366.012.4.008.491-.1.378-.491a5.114,5.114,0,0,0-2.483-3.2,1.352,1.352,0,0,1-.732-.75,3.6,3.6,0,0,0-3.089-2.6A3.647,3.647,0,0,0,31.052,46.6c-.36.473-.776.557-1.175.263a.815.815,0,0,1-.109-1.208A5.01,5.01,0,0,1,31.9,43.9c.372-.162.349-.3.1-.561A3.222,3.222,0,0,0,29.118,42.3a1,1,0,0,1-1.1-.489,5.11,5.11,0,0,0-8.78.017.966.966,0,0,1-1.053.476,3.235,3.235,0,0,0-2.893,1.016c-.26.265-.311.421.1.6a4.881,4.881,0,0,1,2.153,1.811A.792.792,0,0,1,17.109,47c-.473.126-.725-.179-.985-.507a3.622,3.622,0,0,0-3.459-1.457,3.579,3.579,0,0,0-3.053,2.419,1.693,1.693,0,0,1-.822.956,4.972,4.972,0,0,0-2.4,2.991c-.211.672-.206.675.516.675q9.586,0,19.173-.006c.6,0,1,.18,1.1.808m-1-23.04A8.413,8.413,0,0,0,34.1,25.5c1.136-1.91,1.113-4.025,1.065-6.143-.006-.264-.175-.247-.35-.247-.685,0-1.37-.02-2.053.009A8.431,8.431,0,0,0,25.718,23.1c-1.311,1.987-1.354,4.222-1.288,6.481.007.252.145.264.331.263.475,0,.951,0,1.426,0" transform="translate(0 0)" fill="#030302"/>
        <path id="Trazado_128458" data-name="Trazado 128458" d="M38.174,121.78c-.106-.629-.508-.809-1.1-.808q-9.586.015-19.173.006c-.722,0-.727,0-.516-.675a4.973,4.973,0,0,1,2.4-2.991,1.691,1.691,0,0,0,.822-.956,3.58,3.58,0,0,1,3.052-2.419,3.623,3.623,0,0,1,3.459,1.457c.26.328.512.633.985.507a.793.793,0,0,0,.432-1.275,4.881,4.881,0,0,0-2.153-1.811c-.407-.177-.356-.332-.1-.6a3.234,3.234,0,0,1,2.894-1.016.967.967,0,0,0,1.053-.476,5.11,5.11,0,0,1,8.78-.017,1,1,0,0,0,1.1.489,3.222,3.222,0,0,1,2.883,1.046c.245.257.269.4-.1.561a5.01,5.01,0,0,0-2.13,1.755.815.815,0,0,0,.109,1.208c.4.294.816.21,1.176-.263a3.647,3.647,0,0,1,3.576-1.559,3.6,3.6,0,0,1,3.089,2.6,1.352,1.352,0,0,0,.732.75,5.112,5.112,0,0,1,2.483,3.2c.112.388.025.5-.378.491-1.122-.022-2.244,0-3.367-.012-.582-.009-.953.2-1.033.81h-2.55a.866.866,0,0,0-1.03-.809c-.588.018-1.178.027-1.764,0a.952.952,0,0,0-1.117.8l-2.508,0m-3.543-8.932c-.672,0-1.029.267-1.036.782s.387.818,1.016.82,1.031-.3,1.036-.8c.005-.517-.354-.8-1.016-.8m-4.817,4.567c-.663,0-1.021.285-1.015.8.006.5.4.8,1.036.8s1.024-.322,1.016-.821-.367-.783-1.038-.781m9.641,0c-.71-.007-1.075.271-1.063.81.01.481.386.783.987.792.646.01,1.041-.277,1.063-.772.024-.519-.338-.823-.987-.83" transform="translate(-10.989 -68.902)" fill="#b26515"/>
        <path id="Trazado_128459" data-name="Trazado 128459" d="M51.665,11.78c.613.024.877-.342,1-.88.51-2.234,2.058-3.755,3.626-5.262.116-.111.2-.138.333-.016,1.7,1.606,3.285,3.271,3.744,5.7a8.338,8.338,0,0,1-1.938,7.318c-.53.619-1.146,1.163-1.71,1.754-.185.194-.305.2-.506.007-1.615-1.527-3.123-3.12-3.62-5.4a.817.817,0,0,0-.927-.66,8.3,8.3,0,0,1,0-2.565" transform="translate(-32.831 -3.528)" fill="#a9e034"/>
        <path id="Trazado_128460" data-name="Trazado 128460" d="M32.658,58.08a.9.9,0,0,0,.49-1.179,15.791,15.791,0,0,1-.256-4.024c0-.2.043-.313.281-.318,2.139-.044,4.267-.035,6.184,1.128a8.368,8.368,0,0,1,4.266,7.27c.023.664,0,1.329,0,1.995,0,.175.016.339-.249.343-2.036.031-4.071.092-5.941-.944A8.477,8.477,0,0,1,35.071,60.5a.943.943,0,0,0-1.256-.3,9.345,9.345,0,0,1-1.156-2.12" transform="translate(-20.792 -33.455)" fill="#aae034"/>
        <path id="Trazado_128461" data-name="Trazado 128461" d="M81.728,144.111a.952.952,0,0,1,1.117-.8c.587.029,1.177.021,1.764,0a.866.866,0,0,1,1.03.809.849.849,0,0,1-.981.8c-.607-.012-1.215-.025-1.821,0a.944.944,0,0,1-1.109-.808" transform="translate(-52.034 -91.237)" fill="#030302"/>
        <path id="Trazado_128462" data-name="Trazado 128462" d="M68.964,63.31c-.475,0-.951,0-1.426,0-.186,0-.324-.011-.331-.263-.067-2.26-.024-4.494,1.288-6.481a8.431,8.431,0,0,1,7.046-3.978c.683-.029,1.369-.007,2.053-.009.174,0,.344-.017.35.247.048,2.118.071,4.234-1.065,6.143a8.413,8.413,0,0,1-7.914,4.34" transform="translate(-42.777 -33.472)" fill="#a9e034"/>
        <path id="Trazado_128463" data-name="Trazado 128463" d="M63.257,120.954c.663,0,1.021.285,1.016.8-.005.5-.4.8-1.036.8s-1.024-.32-1.016-.82.364-.783,1.036-.782" transform="translate(-39.614 -77.008)" fill="#070401"/>
        <path id="Trazado_128464" data-name="Trazado 128464" d="M50.038,133.524c.671,0,1.029.268,1.037.781s-.387.819-1.016.821-1.03-.3-1.036-.8c-.006-.517.352-.8,1.015-.8" transform="translate(-31.211 -85.011)" fill="#070401"/>
        <path id="Trazado_128465" data-name="Trazado 128465" d="M76.486,133.524c.649.007,1.011.311.987.83-.023.5-.417.782-1.063.772-.6-.009-.977-.31-.987-.792-.012-.539.354-.817,1.063-.81" transform="translate(-48.019 -85.01)" fill="#070401"/>
      </g>
    </g>
  </g>
</svg>
