<svg xmlns="http://www.w3.org/2000/svg" width="1363" height="637.01" viewBox="0 0 1363 637.01">
  <g id="Grupo_158114" data-name="Grupo 158114" transform="translate(-118.333 -293.99)">
    <path id="Trazado_131796" data-name="Trazado 131796" d="M-109.268-6.035h-5.391v3.4h6.367V0h-9.795V-14.219h9.814v2.646h-6.387v3h5.391Zm5.244-4.531.107,1.24a3.583,3.583,0,0,1,3.018-1.436,3.015,3.015,0,0,1,2.466.986,4.7,4.7,0,0,1,.845,2.969V0h-3.3V-6.67a1.783,1.783,0,0,0-.322-1.177,1.491,1.491,0,0,0-1.172-.376,1.569,1.569,0,0,0-1.436.762V0h-3.291V-10.566Zm7.871,5.205a7.134,7.134,0,0,1,.527-2.832,4.245,4.245,0,0,1,1.514-1.9,3.99,3.99,0,0,1,2.295-.669,3.173,3.173,0,0,1,2.578,1.113l.117-.918h2.988V-.4a4.455,4.455,0,0,1-.649,2.427,4.167,4.167,0,0,1-1.88,1.582,6.91,6.91,0,0,1-2.852.552,5.961,5.961,0,0,1-2.251-.439A4.063,4.063,0,0,1-95.43,2.578L-94.053.645a3.018,3.018,0,0,0,2.422,1.084A1.96,1.96,0,0,0-89.443-.518V-.85A3.09,3.09,0,0,1-91.836.2a3.819,3.819,0,0,1-3.125-1.479,6.13,6.13,0,0,1-1.191-3.96Zm3.3.205A3.759,3.759,0,0,0-92.363-3.1,1.541,1.541,0,0,0-91-2.344a1.748,1.748,0,0,0,1.553-.713V-7.5a1.7,1.7,0,0,0-1.533-.723,1.551,1.551,0,0,0-1.377.786A4.287,4.287,0,0,0-92.852-5.156ZM-80.791,0h-3.3V-15h3.3Zm5.5,0h-3.3V-10.566h3.3Zm-3.5-13.3a1.482,1.482,0,0,1,.508-1.159,1.909,1.909,0,0,1,1.318-.452,1.909,1.909,0,0,1,1.318.452,1.482,1.482,0,0,1,.508,1.159,1.482,1.482,0,0,1-.508,1.159,1.909,1.909,0,0,1-1.318.452,1.909,1.909,0,0,1-1.318-.452A1.482,1.482,0,0,1-78.789-13.3ZM-67.734-2.969a.76.76,0,0,0-.439-.674,6.685,6.685,0,0,0-1.67-.527,7.615,7.615,0,0,1-2.031-.718A3.4,3.4,0,0,1-73.1-5.967a2.577,2.577,0,0,1-.42-1.455,2.92,2.92,0,0,1,1.2-2.4,4.948,4.948,0,0,1,3.145-.942,5.482,5.482,0,0,1,3.359.947,2.962,2.962,0,0,1,1.27,2.49h-3.3q0-1.27-1.338-1.27a1.326,1.326,0,0,0-.869.288.892.892,0,0,0-.352.718.819.819,0,0,0,.43.713,4.06,4.06,0,0,0,1.372.449,11.857,11.857,0,0,1,1.655.42,3.007,3.007,0,0,1,2.383,2.939A2.767,2.767,0,0,1-65.845-.713,5.631,5.631,0,0,1-69.17.2a5.747,5.747,0,0,1-2.422-.488,4.05,4.05,0,0,1-1.66-1.328,3.007,3.007,0,0,1-.6-1.768h3.076a1.272,1.272,0,0,0,.488,1.069,2.009,2.009,0,0,0,1.2.337,1.58,1.58,0,0,0,1.011-.273A.875.875,0,0,0-67.734-2.969Zm7.93-6.465a3.294,3.294,0,0,1,2.7-1.328,3.284,3.284,0,0,1,2.637,1.035,4.651,4.651,0,0,1,.908,3.057V0h-3.3V-6.592a1.86,1.86,0,0,0-.342-1.235,1.469,1.469,0,0,0-1.162-.4,1.582,1.582,0,0,0-1.436.645V0H-63.1V-15H-59.8ZM-46.6,0V-14.219h4.58a6.737,6.737,0,0,1,3.389.854,6.006,6.006,0,0,1,2.349,2.412,7.283,7.283,0,0,1,.854,3.491v.654a7.325,7.325,0,0,1-.825,3.5A6.032,6.032,0,0,1-38.579-.884,6.589,6.589,0,0,1-41.924,0Zm3.428-11.572v8.936h1.191a2.666,2.666,0,0,0,2.266-1.05,5.145,5.145,0,0,0,.791-3.12v-.615a5.1,5.1,0,0,0-.791-3.105,2.713,2.713,0,0,0-2.3-1.045Zm8.936,6.191A6.236,6.236,0,0,1-33.623-8.2a4.4,4.4,0,0,1,1.768-1.9,5.323,5.323,0,0,1,2.705-.664,4.858,4.858,0,0,1,3.74,1.47,5.64,5.64,0,0,1,1.367,4v.117a5.472,5.472,0,0,1-1.372,3.921A4.871,4.871,0,0,1-29.131.2a4.927,4.927,0,0,1-3.623-1.353,5.29,5.29,0,0,1-1.475-3.667Zm3.291.205a3.932,3.932,0,0,0,.459,2.148,1.529,1.529,0,0,0,1.357.684q1.758,0,1.8-2.705v-.332q0-2.842-1.816-2.842-1.65,0-1.787,2.451ZM-17.48.2a5.432,5.432,0,0,1-3.936-1.45,5.008,5.008,0,0,1-1.5-3.774V-5.3a6.489,6.489,0,0,1,.6-2.861,4.395,4.395,0,0,1,1.753-1.919,5.292,5.292,0,0,1,2.734-.679A4.574,4.574,0,0,1-14.316-9.38a5.43,5.43,0,0,1,1.289,3.853v1.279H-19.57a2.372,2.372,0,0,0,.771,1.4,2.3,2.3,0,0,0,1.543.508,2.958,2.958,0,0,0,2.441-1.094l1.5,1.777A4.2,4.2,0,0,1-15.054-.308,5.891,5.891,0,0,1-17.48.2Zm-.371-8.418q-1.445,0-1.719,1.914h3.32v-.254a1.63,1.63,0,0,0-.4-1.226A1.593,1.593,0,0,0-17.852-8.223Zm11.68,5.254a.76.76,0,0,0-.439-.674,6.685,6.685,0,0,0-1.67-.527,7.615,7.615,0,0,1-2.031-.718,3.4,3.4,0,0,1-1.221-1.079,2.577,2.577,0,0,1-.42-1.455,2.92,2.92,0,0,1,1.2-2.4,4.948,4.948,0,0,1,3.145-.942,5.482,5.482,0,0,1,3.359.947,2.962,2.962,0,0,1,1.27,2.49h-3.3q0-1.27-1.338-1.27a1.326,1.326,0,0,0-.869.288.892.892,0,0,0-.352.718.819.819,0,0,0,.43.713,4.06,4.06,0,0,0,1.372.449,11.857,11.857,0,0,1,1.655.42A3.007,3.007,0,0,1-3-3.066,2.767,2.767,0,0,1-4.282-.713,5.631,5.631,0,0,1-7.607.2a5.747,5.747,0,0,1-2.422-.488,4.05,4.05,0,0,1-1.66-1.328,3.007,3.007,0,0,1-.6-1.768h3.076a1.272,1.272,0,0,0,.488,1.069,2.009,2.009,0,0,0,1.2.337,1.58,1.58,0,0,0,1.011-.273A.875.875,0,0,0-6.172-2.969ZM14.688-5.3l1.631-8.916h3.4L16.7,0H13.145l-1.9-8.105L9.375,0H5.83L2.8-14.219H6.211L7.842-5.3l1.953-8.916h2.91Zm5.5-.078A6.236,6.236,0,0,1,20.8-8.2a4.4,4.4,0,0,1,1.768-1.9,5.323,5.323,0,0,1,2.705-.664,4.858,4.858,0,0,1,3.74,1.47,5.64,5.64,0,0,1,1.367,4v.117a5.472,5.472,0,0,1-1.372,3.921A4.871,4.871,0,0,1,25.293.2,4.927,4.927,0,0,1,21.67-1.157,5.29,5.29,0,0,1,20.2-4.824Zm3.291.205a3.932,3.932,0,0,0,.459,2.148,1.529,1.529,0,0,0,1.357.684q1.758,0,1.8-2.705v-.332q0-2.842-1.816-2.842-1.65,0-1.787,2.451ZM38.223-7.588l-1.084-.078a1.947,1.947,0,0,0-1.992.977V0H31.855V-10.566h3.086l.107,1.357a2.548,2.548,0,0,1,2.314-1.553,3.209,3.209,0,0,1,.918.117Zm5.43,3.652-.928.928V0H39.434V-15.01h3.291v7.969l.332-.439,2.48-3.086h3.945l-3.7,4.346L49.727,0h-3.77Zm15.254,1.3h5.967V0H55.479V-14.219h3.428ZM71.279.2a5.432,5.432,0,0,1-3.936-1.45,5.008,5.008,0,0,1-1.5-3.774V-5.3a6.489,6.489,0,0,1,.6-2.861,4.395,4.395,0,0,1,1.753-1.919,5.292,5.292,0,0,1,2.734-.679A4.574,4.574,0,0,1,74.443-9.38a5.43,5.43,0,0,1,1.289,3.853v1.279H69.189a2.372,2.372,0,0,0,.771,1.4,2.3,2.3,0,0,0,1.543.508,2.958,2.958,0,0,0,2.441-1.094l1.5,1.777A4.2,4.2,0,0,1,73.706-.308,5.891,5.891,0,0,1,71.279.2Zm-.371-8.418q-1.445,0-1.719,1.914h3.32v-.254a1.63,1.63,0,0,0-.4-1.226A1.593,1.593,0,0,0,70.908-8.223ZM81.143-3.916l1.67-6.65h3.467L82.832,0H79.473L76.025-10.566H79.5ZM92.246.2a5.432,5.432,0,0,1-3.936-1.45,5.008,5.008,0,0,1-1.5-3.774V-5.3a6.489,6.489,0,0,1,.6-2.861,4.395,4.395,0,0,1,1.753-1.919,5.292,5.292,0,0,1,2.734-.679A4.574,4.574,0,0,1,95.41-9.38,5.43,5.43,0,0,1,96.7-5.527v1.279H90.156a2.372,2.372,0,0,0,.771,1.4,2.3,2.3,0,0,0,1.543.508,2.958,2.958,0,0,0,2.441-1.094l1.5,1.777A4.2,4.2,0,0,1,94.673-.308,5.891,5.891,0,0,1,92.246.2Zm-.371-8.418q-1.445,0-1.719,1.914h3.32v-.254a1.63,1.63,0,0,0-.4-1.226A1.593,1.593,0,0,0,91.875-8.223ZM101.494,0h-3.3V-15h3.3Zm16.875,0h-9.922V-2.148l4.57-4.8q1.689-1.924,1.689-3.057a2.126,2.126,0,0,0-.4-1.4,1.43,1.43,0,0,0-1.162-.479,1.447,1.447,0,0,0-1.221.64,2.629,2.629,0,0,0-.469,1.6h-3.3a4.67,4.67,0,0,1,.654-2.417,4.588,4.588,0,0,1,1.816-1.733,5.4,5.4,0,0,1,2.6-.625,5.308,5.308,0,0,1,3.55,1.064,3.8,3.8,0,0,1,1.245,3.057,4.439,4.439,0,0,1-.312,1.636A7.173,7.173,0,0,1,116.733-7a24.476,24.476,0,0,1-2.124,2.339l-1.836,2.119h5.6Z" transform="translate(800.333 309)" fill="#fc5f65"/>
    <g id="Grupo_158113" data-name="Grupo 158113" transform="translate(-80)">
      <path id="Trazado_123071" data-name="Trazado 123071" d="M-11591.151-9689h-137.5v90.761h146.7" transform="translate(12768.333 10071)" fill="none" stroke="#fc5f65" stroke-width="3"/>
      <path id="Trazado_123074" data-name="Trazado 123074" d="M-11719.454-9689h137.5v90.761h-146.7" transform="translate(12141.985 10071)" fill="none" stroke="#fc5f65" stroke-width="3"/>
      <path id="Trazado_123072" data-name="Trazado 123072" d="M-11591.151-9689h-137.5v90.761h146.7" transform="translate(12768.333 10469)" fill="none" stroke="#fc5f65" stroke-width="3"/>
      <path id="Trazado_131780" data-name="Trazado 131780" d="M-11591.151-9689h-137.5v82h146.7" transform="translate(13017.984 10527)" fill="none" stroke="#fc5f65" stroke-width="3"/>
      <path id="Trazado_123073" data-name="Trazado 123073" d="M-11719.454-9689h137.5v90.761h-146.7" transform="translate(12174.334 10469)" fill="none" stroke="#fc5f65" stroke-width="3"/>
      <rect id="Rectángulo_34881" data-name="Rectángulo 34881" width="117" height="46" rx="23" transform="translate(1160.333 359)" fill="#c4d1ff"/>
      <rect id="Rectángulo_34882" data-name="Rectángulo 34882" width="117" height="46" rx="23" transform="translate(1160.333 452)" fill="#c4d1ff"/>
      <path id="Trazado_131788" data-name="Trazado 131788" d="M-17.007-2.637h5.967V0h-9.395V-14.219h3.428Zm6.846-2.744A6.236,6.236,0,0,1-9.546-8.2a4.4,4.4,0,0,1,1.768-1.9,5.323,5.323,0,0,1,2.705-.664,4.858,4.858,0,0,1,3.74,1.47,5.64,5.64,0,0,1,1.367,4v.117A5.472,5.472,0,0,1-1.338-1.255,4.871,4.871,0,0,1-5.054.2,4.927,4.927,0,0,1-8.677-1.157a5.29,5.29,0,0,1-1.475-3.667Zm3.291.205a3.932,3.932,0,0,0,.459,2.148,1.529,1.529,0,0,0,1.357.684q1.758,0,1.8-2.705v-.332q0-2.842-1.816-2.842-1.65,0-1.787,2.451ZM5.552-3.916l1.67-6.65h3.467L7.241,0H3.882L.435-10.566H3.911ZM16.655.2a5.432,5.432,0,0,1-3.936-1.45,5.008,5.008,0,0,1-1.5-3.774V-5.3a6.489,6.489,0,0,1,.6-2.861,4.395,4.395,0,0,1,1.753-1.919,5.292,5.292,0,0,1,2.734-.679A4.574,4.574,0,0,1,19.819-9.38a5.43,5.43,0,0,1,1.289,3.853v1.279H14.565a2.372,2.372,0,0,0,.771,1.4,2.3,2.3,0,0,0,1.543.508,2.958,2.958,0,0,0,2.441-1.094l1.5,1.777A4.2,4.2,0,0,1,19.082-.308,5.891,5.891,0,0,1,16.655.2Zm-.371-8.418q-1.445,0-1.719,1.914h3.32v-.254a1.63,1.63,0,0,0-.4-1.226A1.593,1.593,0,0,0,16.284-8.223Z" transform="translate(1219.333 389)" fill="#12263f"/>
      <path id="Trazado_131789" data-name="Trazado 131789" d="M-8.252,0H-11.66V-5.937h-5.049V0h-3.428V-14.219h3.428v5.645h5.049v-5.645h3.408ZM-.283,0A3.716,3.716,0,0,1-.6-.947,3.06,3.06,0,0,1-3.135.2a3.749,3.749,0,0,1-2.539-.9A2.875,2.875,0,0,1-6.719-2.979a2.955,2.955,0,0,1,1.27-2.6,6.468,6.468,0,0,1,3.691-.879H-.742v-.559q0-1.462-1.26-1.462A1.03,1.03,0,0,0-3.174-7.319H-6.465a2.95,2.95,0,0,1,1.3-2.487,5.479,5.479,0,0,1,3.325-.956,4.8,4.8,0,0,1,3.193.986,3.429,3.429,0,0,1,1.2,2.705v4.678A4.79,4.79,0,0,0,3.008-.166V0ZM-2.344-2.148a1.836,1.836,0,0,0,1.021-.264,1.653,1.653,0,0,0,.581-.6V-4.7H-1.7q-1.719,0-1.719,1.543a.942.942,0,0,0,.3.728A1.1,1.1,0,0,0-2.344-2.148ZM8.213-13.193v2.627H9.951v2.285H8.213v4.834a1.234,1.234,0,0,0,.215.83,1.152,1.152,0,0,0,.85.234,4.828,4.828,0,0,0,.82-.059V-.088A6.074,6.074,0,0,1,8.242.2a3.448,3.448,0,0,1-2.51-.8,3.282,3.282,0,0,1-.811-2.432V-8.281H3.574v-2.285H4.922v-2.627ZM16.357.2a5.432,5.432,0,0,1-3.936-1.45,5.008,5.008,0,0,1-1.5-3.774V-5.3a6.489,6.489,0,0,1,.6-2.861,4.395,4.395,0,0,1,1.753-1.919,5.292,5.292,0,0,1,2.734-.679A4.574,4.574,0,0,1,19.521-9.38a5.43,5.43,0,0,1,1.289,3.853v1.279H14.268a2.372,2.372,0,0,0,.771,1.4,2.3,2.3,0,0,0,1.543.508,2.958,2.958,0,0,0,2.441-1.094l1.5,1.777A4.2,4.2,0,0,1,18.784-.308,5.891,5.891,0,0,1,16.357.2Zm-.371-8.418q-1.445,0-1.719,1.914h3.32v-.254a1.63,1.63,0,0,0-.4-1.226A1.593,1.593,0,0,0,15.986-8.223Z" transform="translate(1219.333 482)" fill="#12263f"/>
      <rect id="Rectángulo_34884" data-name="Rectángulo 34884" width="190" height="46" rx="23" transform="translate(1160.333 757)" fill="#c4d1ff"/>
      <rect id="Rectángulo_34883" data-name="Rectángulo 34883" width="190" height="46" rx="23" transform="translate(1160.333 850)" fill="#c4d1ff"/>
      <rect id="Rectángulo_37572" data-name="Rectángulo 37572" width="190" height="46" rx="23" transform="translate(1371.333 816)" fill="#c4d1ff"/>
      <rect id="Rectángulo_37573" data-name="Rectángulo 37573" width="190" height="46" rx="23" transform="translate(1371.333 885)" fill="#c4d1ff"/>
      <path id="Trazado_131791" data-name="Trazado 131791" d="M-11.387-5.3l1.631-8.916h3.4L-9.375,0H-12.93l-1.9-8.105L-16.7,0h-3.545l-3.027-14.219h3.408L-18.232-5.3l1.953-8.916h2.91Zm5.5-.078A6.236,6.236,0,0,1-5.273-8.2a4.4,4.4,0,0,1,1.768-1.9A5.323,5.323,0,0,1-.8-10.762a4.858,4.858,0,0,1,3.74,1.47,5.64,5.64,0,0,1,1.367,4v.117A5.472,5.472,0,0,1,2.935-1.255,4.871,4.871,0,0,1-.781.2,4.927,4.927,0,0,1-4.4-1.157,5.29,5.29,0,0,1-5.879-4.824Zm3.291.205a3.932,3.932,0,0,0,.459,2.148,1.529,1.529,0,0,0,1.357.684q1.758,0,1.8-2.705v-.332q0-2.842-1.816-2.842-1.65,0-1.787,2.451ZM12.148-7.588l-1.084-.078a1.947,1.947,0,0,0-1.992.977V0H5.781V-10.566H8.867l.107,1.357a2.548,2.548,0,0,1,2.314-1.553,3.209,3.209,0,0,1,.918.117Zm.586,2.227a6.455,6.455,0,0,1,1.084-3.955,3.568,3.568,0,0,1,3.027-1.445,3.035,3.035,0,0,1,2.383,1.113V-15h3.3V0H19.57L19.4-1.133A3.116,3.116,0,0,1,16.826.2,3.562,3.562,0,0,1,13.838-1.25,6.659,6.659,0,0,1,12.734-5.361Zm3.291.205q0,2.813,1.641,2.813a1.62,1.62,0,0,0,1.563-.918V-7.285a1.576,1.576,0,0,0-1.543-.937q-1.523,0-1.65,2.461Z" transform="translate(1255.333 787)" fill="#12263f"/>
      <path id="Trazado_131792" data-name="Trazado 131792" d="M-25.493-3.779a1.408,1.408,0,0,0-.532-1.172A6.615,6.615,0,0,0-27.9-5.82a17.941,17.941,0,0,1-2.187-.869q-2.764-1.357-2.764-3.73a3.345,3.345,0,0,1,.688-2.085,4.453,4.453,0,0,1,1.948-1.406,7.582,7.582,0,0,1,2.832-.5,6.632,6.632,0,0,1,2.749.547,4.352,4.352,0,0,1,1.89,1.558A4.068,4.068,0,0,1-22.065-10h-3.418a1.719,1.719,0,0,0-.532-1.348,2.075,2.075,0,0,0-1.44-.479,2.339,2.339,0,0,0-1.45.405,1.243,1.243,0,0,0-.532,1.03,1.252,1.252,0,0,0,.586.991,7.389,7.389,0,0,0,2.061.918A12.623,12.623,0,0,1-24.37-7.461a4.07,4.07,0,0,1,2.3,3.662,3.472,3.472,0,0,1-1.406,2.93A6.255,6.255,0,0,1-27.329.2a7.653,7.653,0,0,1-3.13-.62,4.719,4.719,0,0,1-2.109-1.7,4.428,4.428,0,0,1-.708-2.485h3.438a2.181,2.181,0,0,0,.591,1.685,2.793,2.793,0,0,0,1.919.542,2.206,2.206,0,0,0,1.343-.366A1.209,1.209,0,0,0-25.493-3.779Zm4.619-1.6A6.236,6.236,0,0,1-20.259-8.2a4.4,4.4,0,0,1,1.768-1.9,5.323,5.323,0,0,1,2.705-.664,4.858,4.858,0,0,1,3.74,1.47,5.64,5.64,0,0,1,1.367,4v.117a5.472,5.472,0,0,1-1.372,3.921A4.871,4.871,0,0,1-15.767.2,4.927,4.927,0,0,1-19.39-1.157a5.29,5.29,0,0,1-1.475-3.667Zm3.291.205a3.932,3.932,0,0,0,.459,2.148,1.529,1.529,0,0,0,1.357.684q1.758,0,1.8-2.705v-.332q0-2.842-1.816-2.842-1.65,0-1.787,2.451ZM-2.935-1.143A3.393,3.393,0,0,1-5.757.2,3.328,3.328,0,0,1-8.389-.815a4.251,4.251,0,0,1-.894-2.905v-6.846h3.291V-3.7A1.183,1.183,0,0,0-4.673-2.344a1.72,1.72,0,0,0,1.611-.811v-7.412H.249V0H-2.837Zm8.008-9.424.107,1.24A3.583,3.583,0,0,1,8.2-10.762a3.015,3.015,0,0,1,2.466.986,4.7,4.7,0,0,1,.845,2.969V0h-3.3V-6.67a1.783,1.783,0,0,0-.322-1.177,1.491,1.491,0,0,0-1.172-.376,1.569,1.569,0,0,0-1.436.762V0H1.987V-10.566Zm7.842,5.205A6.455,6.455,0,0,1,14-9.316a3.568,3.568,0,0,1,3.027-1.445,3.035,3.035,0,0,1,2.383,1.113V-15h3.3V0H19.751l-.166-1.133A3.116,3.116,0,0,1,17.007.2,3.562,3.562,0,0,1,14.019-1.25,6.659,6.659,0,0,1,12.915-5.361Zm3.291.205q0,2.813,1.641,2.813a1.62,1.62,0,0,0,1.563-.918V-7.285a1.576,1.576,0,0,0-1.543-.937q-1.523,0-1.65,2.461ZM30.112-2.969a.76.76,0,0,0-.439-.674A6.685,6.685,0,0,0,28-4.17a7.615,7.615,0,0,1-2.031-.718,3.4,3.4,0,0,1-1.221-1.079,2.577,2.577,0,0,1-.42-1.455,2.92,2.92,0,0,1,1.2-2.4,4.948,4.948,0,0,1,3.145-.942,5.482,5.482,0,0,1,3.359.947,2.962,2.962,0,0,1,1.27,2.49H30q0-1.27-1.338-1.27a1.326,1.326,0,0,0-.869.288.892.892,0,0,0-.352.718.819.819,0,0,0,.43.713,4.06,4.06,0,0,0,1.372.449,11.857,11.857,0,0,1,1.655.42,3.007,3.007,0,0,1,2.383,2.939A2.767,2.767,0,0,1,32-.713,5.631,5.631,0,0,1,28.677.2a5.747,5.747,0,0,1-2.422-.488,4.05,4.05,0,0,1-1.66-1.328A3.007,3.007,0,0,1,24-3.389h3.076a1.272,1.272,0,0,0,.488,1.069,2.009,2.009,0,0,0,1.2.337,1.58,1.58,0,0,0,1.011-.273A.875.875,0,0,0,30.112-2.969Z" transform="translate(1255.333 880)" fill="#12263f"/>
      <path id="Trazado_131793" data-name="Trazado 131793" d="M-39.331-4.814a5.193,5.193,0,0,1-.8,2.622A4.833,4.833,0,0,1-42.187-.43,7,7,0,0,1-45.21.2a5.584,5.584,0,0,1-4.414-1.826,7.54,7.54,0,0,1-1.611-5.156v-.7a8.607,8.607,0,0,1,.728-3.657,5.513,5.513,0,0,1,2.095-2.422,5.844,5.844,0,0,1,3.164-.854,6.129,6.129,0,0,1,4.16,1.362A5.383,5.383,0,0,1-39.3-9.307H-42.72a2.547,2.547,0,0,0-.654-1.865,2.691,2.691,0,0,0-1.875-.566,2.048,2.048,0,0,0-1.875.957,6.151,6.151,0,0,0-.625,3.057v1.006a6.806,6.806,0,0,0,.571,3.252,2.091,2.091,0,0,0,1.968.977A2.632,2.632,0,0,0-43.4-3.047a2.363,2.363,0,0,0,.664-1.768Zm1.055-.566A6.236,6.236,0,0,1-37.661-8.2a4.4,4.4,0,0,1,1.768-1.9,5.323,5.323,0,0,1,2.705-.664,4.858,4.858,0,0,1,3.74,1.47,5.64,5.64,0,0,1,1.367,4v.117a5.472,5.472,0,0,1-1.372,3.921A4.871,4.871,0,0,1-33.169.2a4.927,4.927,0,0,1-3.623-1.353,5.29,5.29,0,0,1-1.475-3.667Zm3.291.205a3.932,3.932,0,0,0,.459,2.148,1.529,1.529,0,0,0,1.357.684q1.758,0,1.8-2.705v-.332q0-2.842-1.816-2.842-1.65,0-1.787,2.451Zm11.377-5.391.107,1.24a3.583,3.583,0,0,1,3.018-1.436,3.015,3.015,0,0,1,2.466.986,4.7,4.7,0,0,1,.845,2.969V0h-3.3V-6.67A1.783,1.783,0,0,0-20.8-7.847a1.491,1.491,0,0,0-1.172-.376,1.569,1.569,0,0,0-1.436.762V0h-3.291V-10.566Zm11.279,0,.107,1.24A3.583,3.583,0,0,1-9.2-10.762a3.015,3.015,0,0,1,2.466.986,4.7,4.7,0,0,1,.845,2.969V0h-3.3V-6.67a1.783,1.783,0,0,0-.322-1.177,1.491,1.491,0,0,0-1.172-.376,1.569,1.569,0,0,0-1.436.762V0h-3.291V-10.566ZM1.04.2A5.432,5.432,0,0,1-2.9-1.255,5.008,5.008,0,0,1-4.4-5.029V-5.3a6.489,6.489,0,0,1,.6-2.861,4.395,4.395,0,0,1,1.753-1.919,5.292,5.292,0,0,1,2.734-.679A4.574,4.574,0,0,1,4.2-9.38,5.43,5.43,0,0,1,5.493-5.527v1.279H-1.05a2.372,2.372,0,0,0,.771,1.4,2.3,2.3,0,0,0,1.543.508A2.958,2.958,0,0,0,3.706-3.437L5.21-1.66A4.2,4.2,0,0,1,3.467-.308,5.891,5.891,0,0,1,1.04.2ZM.669-8.223q-1.445,0-1.719,1.914h3.32v-.254a1.63,1.63,0,0,0-.4-1.226A1.593,1.593,0,0,0,.669-8.223ZM11.284-2.344a1.464,1.464,0,0,0,1.074-.376,1.379,1.379,0,0,0,.371-1.05h3.086A3.653,3.653,0,0,1,14.57-.918,4.631,4.631,0,0,1,11.362.2,4.689,4.689,0,0,1,7.729-1.25a5.7,5.7,0,0,1-1.328-4v-.137a6.436,6.436,0,0,1,.591-2.827A4.3,4.3,0,0,1,8.7-10.1a5.081,5.081,0,0,1,2.637-.659A4.573,4.573,0,0,1,14.6-9.619a4.053,4.053,0,0,1,1.211,3.1H12.729a1.807,1.807,0,0,0-.4-1.26,1.382,1.382,0,0,0-1.074-.439q-1.279,0-1.494,1.631a11.508,11.508,0,0,0-.068,1.426,4.52,4.52,0,0,0,.381,2.207A1.319,1.319,0,0,0,11.284-2.344Zm9.756-10.85v2.627h1.738v2.285H21.04v4.834a1.234,1.234,0,0,0,.215.83,1.152,1.152,0,0,0,.85.234,4.828,4.828,0,0,0,.82-.059V-.088A6.074,6.074,0,0,1,21.069.2a3.448,3.448,0,0,1-2.51-.8,3.282,3.282,0,0,1-.811-2.432V-8.281H16.4v-2.285h1.348v-2.627Zm2.324,7.813A6.236,6.236,0,0,1,23.979-8.2a4.4,4.4,0,0,1,1.768-1.9,5.323,5.323,0,0,1,2.705-.664,4.858,4.858,0,0,1,3.74,1.47,5.64,5.64,0,0,1,1.367,4v.117a5.472,5.472,0,0,1-1.372,3.921A4.871,4.871,0,0,1,28.472.2a4.927,4.927,0,0,1-3.623-1.353,5.29,5.29,0,0,1-1.475-3.667Zm3.291.205a3.932,3.932,0,0,0,.459,2.148,1.529,1.529,0,0,0,1.357.684q1.758,0,1.8-2.705v-.332q0-2.842-1.816-2.842-1.65,0-1.787,2.451ZM41.4-7.588l-1.084-.078a1.947,1.947,0,0,0-1.992.977V0H35.034V-10.566H38.12l.107,1.357a2.548,2.548,0,0,1,2.314-1.553,3.209,3.209,0,0,1,.918.117ZM48.12-2.969a.76.76,0,0,0-.439-.674,6.685,6.685,0,0,0-1.67-.527,7.615,7.615,0,0,1-2.031-.718,3.4,3.4,0,0,1-1.221-1.079,2.577,2.577,0,0,1-.42-1.455,2.92,2.92,0,0,1,1.2-2.4,4.948,4.948,0,0,1,3.145-.942,5.482,5.482,0,0,1,3.359.947,2.962,2.962,0,0,1,1.27,2.49h-3.3q0-1.27-1.338-1.27a1.326,1.326,0,0,0-.869.288.892.892,0,0,0-.352.718.819.819,0,0,0,.43.713,4.06,4.06,0,0,0,1.372.449,11.857,11.857,0,0,1,1.655.42,3.007,3.007,0,0,1,2.383,2.939A2.767,2.767,0,0,1,50.01-.713,5.632,5.632,0,0,1,46.685.2a5.747,5.747,0,0,1-2.422-.488A4.05,4.05,0,0,1,42.6-1.621a3.007,3.007,0,0,1-.6-1.768h3.076a1.272,1.272,0,0,0,.488,1.069,2.009,2.009,0,0,0,1.2.337,1.58,1.58,0,0,0,1.011-.273A.875.875,0,0,0,48.12-2.969Z" transform="translate(1466.333 846)" fill="#12263f"/>
      <path id="Trazado_131794" data-name="Trazado 131794" d="M-46.973-4.814a5.193,5.193,0,0,1-.8,2.622A4.833,4.833,0,0,1-49.829-.43,7,7,0,0,1-52.852.2a5.584,5.584,0,0,1-4.414-1.826,7.54,7.54,0,0,1-1.611-5.156v-.7a8.607,8.607,0,0,1,.728-3.657,5.513,5.513,0,0,1,2.095-2.422,5.844,5.844,0,0,1,3.164-.854,6.129,6.129,0,0,1,4.16,1.362,5.383,5.383,0,0,1,1.787,3.755h-3.418a2.547,2.547,0,0,0-.654-1.865,2.691,2.691,0,0,0-1.875-.566,2.048,2.048,0,0,0-1.875.957,6.151,6.151,0,0,0-.625,3.057v1.006a6.806,6.806,0,0,0,.571,3.252,2.091,2.091,0,0,0,1.968.977,2.632,2.632,0,0,0,1.807-.557,2.363,2.363,0,0,0,.664-1.768Zm1.055-.566A6.236,6.236,0,0,1-45.3-8.2a4.4,4.4,0,0,1,1.768-1.9,5.323,5.323,0,0,1,2.705-.664,4.858,4.858,0,0,1,3.74,1.47,5.64,5.64,0,0,1,1.367,4v.117a5.472,5.472,0,0,1-1.372,3.921A4.871,4.871,0,0,1-40.811.2a4.927,4.927,0,0,1-3.623-1.353,5.29,5.29,0,0,1-1.475-3.667Zm3.291.205a3.932,3.932,0,0,0,.459,2.148,1.529,1.529,0,0,0,1.357.684q1.758,0,1.8-2.705v-.332q0-2.842-1.816-2.842-1.65,0-1.787,2.451Zm11.377-5.391.107,1.24a3.583,3.583,0,0,1,3.018-1.436,3.015,3.015,0,0,1,2.466.986,4.7,4.7,0,0,1,.845,2.969V0h-3.3V-6.67a1.783,1.783,0,0,0-.322-1.177,1.491,1.491,0,0,0-1.172-.376,1.569,1.569,0,0,0-1.436.762V0h-3.291V-10.566Zm11.8,0V.361a3.836,3.836,0,0,1-1.074,2.891A4.127,4.127,0,0,1-23.5,4.268,7.009,7.009,0,0,1-25.049,4.1V1.611a6.3,6.3,0,0,0,.928.088A1.2,1.2,0,0,0-22.754.342V-10.566ZM-23-13.3a1.482,1.482,0,0,1,.508-1.159,1.909,1.909,0,0,1,1.318-.452,1.909,1.909,0,0,1,1.318.452,1.482,1.482,0,0,1,.508,1.159,1.482,1.482,0,0,1-.508,1.159,1.909,1.909,0,0,1-1.318.452,1.909,1.909,0,0,1-1.318-.452A1.482,1.482,0,0,1-23-13.3ZM-11.3-1.143A3.393,3.393,0,0,1-14.121.2,3.328,3.328,0,0,1-16.753-.815a4.251,4.251,0,0,1-.894-2.905v-6.846h3.291V-3.7a1.183,1.183,0,0,0,1.318,1.357,1.72,1.72,0,0,0,1.611-.811v-7.412h3.311V0H-11.2Zm8.008-9.424.107,1.24A3.583,3.583,0,0,1-.166-10.762,3.015,3.015,0,0,1,2.3-9.775a4.7,4.7,0,0,1,.845,2.969V0h-3.3V-6.67A1.783,1.783,0,0,0-.479-7.847,1.491,1.491,0,0,0-1.65-8.223a1.569,1.569,0,0,0-1.436.762V0H-6.377V-10.566ZM9.434-2.344a1.464,1.464,0,0,0,1.074-.376,1.379,1.379,0,0,0,.371-1.05h3.086A3.653,3.653,0,0,1,12.72-.918,4.631,4.631,0,0,1,9.512.2,4.689,4.689,0,0,1,5.879-1.25a5.7,5.7,0,0,1-1.328-4v-.137a6.436,6.436,0,0,1,.591-2.827,4.3,4.3,0,0,1,1.7-1.885,5.081,5.081,0,0,1,2.637-.659,4.573,4.573,0,0,1,3.271,1.143,4.053,4.053,0,0,1,1.211,3.1H10.879a1.807,1.807,0,0,0-.4-1.26A1.382,1.382,0,0,0,9.4-8.223q-1.279,0-1.494,1.631a11.508,11.508,0,0,0-.068,1.426,4.52,4.52,0,0,0,.381,2.207A1.319,1.319,0,0,0,9.434-2.344Zm9.756-10.85v2.627h1.738v2.285H19.189v4.834a1.234,1.234,0,0,0,.215.83,1.152,1.152,0,0,0,.85.234,4.828,4.828,0,0,0,.82-.059V-.088A6.074,6.074,0,0,1,19.219.2a3.448,3.448,0,0,1-2.51-.8A3.282,3.282,0,0,1,15.9-3.037V-8.281H14.551v-2.285H15.9v-2.627ZM25.693,0h-3.3V-10.566h3.3ZM22.2-13.3a1.482,1.482,0,0,1,.508-1.159,1.909,1.909,0,0,1,1.318-.452,1.909,1.909,0,0,1,1.318.452A1.482,1.482,0,0,1,25.85-13.3a1.482,1.482,0,0,1-.508,1.159,1.909,1.909,0,0,1-1.318.452,1.909,1.909,0,0,1-1.318-.452A1.482,1.482,0,0,1,22.2-13.3ZM27.3-5.381A6.236,6.236,0,0,1,27.92-8.2a4.4,4.4,0,0,1,1.768-1.9,5.323,5.323,0,0,1,2.705-.664,4.858,4.858,0,0,1,3.74,1.47,5.64,5.64,0,0,1,1.367,4v.117a5.472,5.472,0,0,1-1.372,3.921A4.871,4.871,0,0,1,32.412.2a4.927,4.927,0,0,1-3.623-1.353,5.29,5.29,0,0,1-1.475-3.667Zm3.291.205a3.932,3.932,0,0,0,.459,2.148,1.529,1.529,0,0,0,1.357.684q1.758,0,1.8-2.705v-.332q0-2.842-1.816-2.842-1.65,0-1.787,2.451Zm11.377-5.391.107,1.24A3.583,3.583,0,0,1,45.1-10.762a3.015,3.015,0,0,1,2.466.986,4.7,4.7,0,0,1,.845,2.969V0h-3.3V-6.67a1.783,1.783,0,0,0-.322-1.177,1.491,1.491,0,0,0-1.172-.376,1.569,1.569,0,0,0-1.436.762V0H38.887V-10.566Zm13.789,7.6a.76.76,0,0,0-.439-.674,6.685,6.685,0,0,0-1.67-.527,7.615,7.615,0,0,1-2.031-.718A3.4,3.4,0,0,1,50.4-5.967a2.577,2.577,0,0,1-.42-1.455,2.92,2.92,0,0,1,1.2-2.4,4.948,4.948,0,0,1,3.145-.942,5.482,5.482,0,0,1,3.359.947,2.962,2.962,0,0,1,1.27,2.49h-3.3q0-1.27-1.338-1.27a1.326,1.326,0,0,0-.869.288.892.892,0,0,0-.352.718.819.819,0,0,0,.43.713,4.06,4.06,0,0,0,1.372.449,11.857,11.857,0,0,1,1.655.42,3.007,3.007,0,0,1,2.383,2.939A2.767,2.767,0,0,1,57.651-.713,5.632,5.632,0,0,1,54.326.2,5.747,5.747,0,0,1,51.9-.293a4.05,4.05,0,0,1-1.66-1.328,3.007,3.007,0,0,1-.6-1.768h3.076a1.272,1.272,0,0,0,.488,1.069,2.009,2.009,0,0,0,1.2.337,1.58,1.58,0,0,0,1.011-.273A.875.875,0,0,0,55.762-2.969Z" transform="translate(1466.333 915)" fill="#12263f"/>
      <rect id="Rectángulo_34886" data-name="Rectángulo 34886" width="190" height="46" rx="23" transform="translate(286.333 757)" fill="#c4d1ff"/>
      <rect id="Rectángulo_34885" data-name="Rectángulo 34885" width="239" height="46" rx="23" transform="translate(237.333 850)" fill="#c4d1ff"/>
      <path id="Trazado_131784" data-name="Trazado 131784" d="M-60.015-2.656h-4.7L-65.532,0h-3.662l5.215-14.219h3.223L-55.5,0h-3.682ZM-63.892-5.3h3.057l-1.533-4.932Zm8.857-.059A6.455,6.455,0,0,1-53.95-9.316a3.568,3.568,0,0,1,3.027-1.445A3.035,3.035,0,0,1-48.54-9.648V-15h3.3V0H-48.2l-.166-1.133A3.116,3.116,0,0,1-50.942.2,3.562,3.562,0,0,1-53.931-1.25,6.659,6.659,0,0,1-55.034-5.361Zm3.291.205q0,2.813,1.641,2.813a1.62,1.62,0,0,0,1.563-.918V-7.285a1.576,1.576,0,0,0-1.543-.937q-1.523,0-1.65,2.461Zm11.914-5.41V.361A3.836,3.836,0,0,1-40.9,3.252a4.127,4.127,0,0,1-2.969,1.016A7.009,7.009,0,0,1-45.425,4.1V1.611A6.3,6.3,0,0,0-44.5,1.7,1.2,1.2,0,0,0-43.13.342V-10.566ZM-43.374-13.3a1.482,1.482,0,0,1,.508-1.159,1.909,1.909,0,0,1,1.318-.452,1.909,1.909,0,0,1,1.318.452,1.482,1.482,0,0,1,.508,1.159,1.482,1.482,0,0,1-.508,1.159,1.909,1.909,0,0,1-1.318.452,1.909,1.909,0,0,1-1.318-.452A1.482,1.482,0,0,1-43.374-13.3ZM-32.856.2a5.432,5.432,0,0,1-3.936-1.45,5.008,5.008,0,0,1-1.5-3.774V-5.3a6.489,6.489,0,0,1,.6-2.861,4.395,4.395,0,0,1,1.753-1.919,5.292,5.292,0,0,1,2.734-.679A4.574,4.574,0,0,1-29.692-9.38,5.43,5.43,0,0,1-28.4-5.527v1.279h-6.543a2.372,2.372,0,0,0,.771,1.4,2.3,2.3,0,0,0,1.543.508A2.958,2.958,0,0,0-30.19-3.437l1.5,1.777A4.2,4.2,0,0,1-30.43-.308,5.891,5.891,0,0,1-32.856.2Zm-.371-8.418q-1.445,0-1.719,1.914h3.32v-.254a1.63,1.63,0,0,0-.4-1.226A1.593,1.593,0,0,0-33.228-8.223Zm10.615,5.879a1.464,1.464,0,0,0,1.074-.376,1.379,1.379,0,0,0,.371-1.05h3.086A3.653,3.653,0,0,1-19.326-.918,4.631,4.631,0,0,1-22.534.2,4.689,4.689,0,0,1-26.167-1.25a5.7,5.7,0,0,1-1.328-4v-.137A6.436,6.436,0,0,1-26.9-8.218,4.3,4.3,0,0,1-25.2-10.1a5.081,5.081,0,0,1,2.637-.659,4.573,4.573,0,0,1,3.271,1.143,4.053,4.053,0,0,1,1.211,3.1h-3.086a1.807,1.807,0,0,0-.4-1.26,1.382,1.382,0,0,0-1.074-.439q-1.279,0-1.494,1.631A11.508,11.508,0,0,0-24.2-5.166a4.52,4.52,0,0,0,.381,2.207A1.319,1.319,0,0,0-22.612-2.344Zm9.756-10.85v2.627h1.738v2.285h-1.738v4.834a1.234,1.234,0,0,0,.215.83,1.152,1.152,0,0,0,.85.234,4.828,4.828,0,0,0,.82-.059V-.088A6.074,6.074,0,0,1-12.827.2a3.448,3.448,0,0,1-2.51-.8,3.282,3.282,0,0,1-.811-2.432V-8.281H-17.5v-2.285h1.348v-2.627ZM-6.353,0h-3.3V-10.566h3.3Zm-3.5-13.3a1.482,1.482,0,0,1,.508-1.159,1.909,1.909,0,0,1,1.318-.452A1.909,1.909,0,0,1-6.7-14.46,1.482,1.482,0,0,1-6.2-13.3,1.482,1.482,0,0,1-6.7-12.141a1.909,1.909,0,0,1-1.318.452,1.909,1.909,0,0,1-1.318-.452A1.482,1.482,0,0,1-9.849-13.3ZM-.112-3.916l1.67-6.65H5.024L1.577,0H-1.782L-5.229-10.566h3.477ZM10.991.2a5.432,5.432,0,0,1-3.936-1.45,5.008,5.008,0,0,1-1.5-3.774V-5.3a6.489,6.489,0,0,1,.6-2.861,4.395,4.395,0,0,1,1.753-1.919,5.292,5.292,0,0,1,2.734-.679A4.574,4.574,0,0,1,14.155-9.38a5.43,5.43,0,0,1,1.289,3.853v1.279H8.9a2.372,2.372,0,0,0,.771,1.4,2.3,2.3,0,0,0,1.543.508,2.958,2.958,0,0,0,2.441-1.094l1.5,1.777A4.2,4.2,0,0,1,13.418-.308,5.891,5.891,0,0,1,10.991.2ZM10.62-8.223q-1.445,0-1.719,1.914h3.32v-.254a1.63,1.63,0,0,0-.4-1.226A1.593,1.593,0,0,0,10.62-8.223ZM21.333-5.381A6.236,6.236,0,0,1,21.948-8.2a4.4,4.4,0,0,1,1.768-1.9,5.323,5.323,0,0,1,2.705-.664,4.858,4.858,0,0,1,3.74,1.47,5.64,5.64,0,0,1,1.367,4v.117a5.472,5.472,0,0,1-1.372,3.921A4.871,4.871,0,0,1,26.44.2a4.927,4.927,0,0,1-3.623-1.353,5.29,5.29,0,0,1-1.475-3.667Zm3.291.205a3.932,3.932,0,0,0,.459,2.148,1.529,1.529,0,0,0,1.357.684q1.758,0,1.8-2.705v-.332q0-2.842-1.816-2.842-1.65,0-1.787,2.451ZM39.37-7.588l-1.084-.078a1.947,1.947,0,0,0-1.992.977V0H33V-10.566h3.086L36.2-9.209a2.548,2.548,0,0,1,2.314-1.553,3.209,3.209,0,0,1,.918.117Zm.586,2.227A6.455,6.455,0,0,1,41.04-9.316a3.568,3.568,0,0,1,3.027-1.445A3.035,3.035,0,0,1,46.45-9.648V-15h3.3V0H46.792l-.166-1.133A3.116,3.116,0,0,1,44.048.2,3.562,3.562,0,0,1,41.06-1.25,6.659,6.659,0,0,1,39.956-5.361Zm3.291.205q0,2.813,1.641,2.813a1.62,1.62,0,0,0,1.563-.918V-7.285a1.576,1.576,0,0,0-1.543-.937q-1.523,0-1.65,2.461ZM56.733.2A5.432,5.432,0,0,1,52.8-1.255a5.008,5.008,0,0,1-1.5-3.774V-5.3a6.489,6.489,0,0,1,.6-2.861,4.395,4.395,0,0,1,1.753-1.919,5.292,5.292,0,0,1,2.734-.679A4.574,4.574,0,0,1,59.9-9.38a5.43,5.43,0,0,1,1.289,3.853v1.279H54.644a2.372,2.372,0,0,0,.771,1.4,2.3,2.3,0,0,0,1.543.508A2.958,2.958,0,0,0,59.4-3.437L60.9-1.66A4.2,4.2,0,0,1,59.16-.308,5.891,5.891,0,0,1,56.733.2Zm-.371-8.418q-1.445,0-1.719,1.914h3.32v-.254a1.63,1.63,0,0,0-.4-1.226A1.593,1.593,0,0,0,56.362-8.223ZM68.9-7.588l-1.084-.078a1.947,1.947,0,0,0-1.992.977V0H62.534V-10.566H65.62l.107,1.357a2.548,2.548,0,0,1,2.314-1.553,3.209,3.209,0,0,1,.918.117Z" transform="translate(381.333 787)" fill="#12263f"/>
      <path id="Trazado_131785" data-name="Trazado 131785" d="M-81.772-6.816a8.4,8.4,0,0,1-.654,3.442,5.984,5.984,0,0,1-1.807,2.358L-81.938.8l-2.119,1.8L-87.114.137A6.353,6.353,0,0,1-87.974.2,6.163,6.163,0,0,1-91.2-.645a5.712,5.712,0,0,1-2.192-2.4A8.159,8.159,0,0,1-94.2-6.641v-.752a8.414,8.414,0,0,1,.767-3.691,5.713,5.713,0,0,1,2.188-2.461,6.115,6.115,0,0,1,3.257-.869,6.087,6.087,0,0,1,3.223.859,5.79,5.79,0,0,1,2.2,2.446,8.18,8.18,0,0,1,.8,3.638Zm-3.486-.6a5.979,5.979,0,0,0-.708-3.218,2.271,2.271,0,0,0-2.026-1.1,2.256,2.256,0,0,0-2.041,1.084,6.057,6.057,0,0,0-.693,3.174v.654A6.145,6.145,0,0,0-90.034-3.6,2.27,2.27,0,0,0-87.974-2.48a2.237,2.237,0,0,0,2.007-1.1,6.016,6.016,0,0,0,.708-3.174Zm11.377,6.27A3.393,3.393,0,0,1-76.7.2,3.328,3.328,0,0,1-79.336-.815a4.251,4.251,0,0,1-.894-2.905v-6.846h3.291V-3.7A1.183,1.183,0,0,0-75.62-2.344a1.72,1.72,0,0,0,1.611-.811v-7.412H-70.7V0h-3.086ZM-62.944,0a3.716,3.716,0,0,1-.312-.947A3.06,3.06,0,0,1-65.8.2a3.749,3.749,0,0,1-2.539-.9A2.875,2.875,0,0,1-69.38-2.979a2.955,2.955,0,0,1,1.27-2.6,6.468,6.468,0,0,1,3.691-.879H-63.4v-.559q0-1.462-1.26-1.462a1.03,1.03,0,0,0-1.172,1.158h-3.291a2.95,2.95,0,0,1,1.3-2.487,5.479,5.479,0,0,1,3.325-.956,4.8,4.8,0,0,1,3.193.986A3.429,3.429,0,0,1-60.1-7.07v4.678a4.79,4.79,0,0,0,.449,2.227V0ZM-65-2.148a1.836,1.836,0,0,0,1.021-.264,1.653,1.653,0,0,0,.581-.6V-4.7h-.957q-1.719,0-1.719,1.543a.942.942,0,0,0,.3.728A1.1,1.1,0,0,0-65-2.148ZM-54.81,0h-3.3V-15h3.3Zm5.5,0h-3.3V-10.566h3.3Zm-3.5-13.3A1.482,1.482,0,0,1-52.3-14.46a1.909,1.909,0,0,1,1.318-.452,1.909,1.909,0,0,1,1.318.452,1.482,1.482,0,0,1,.508,1.159,1.482,1.482,0,0,1-.508,1.159,1.909,1.909,0,0,1-1.318.452,1.909,1.909,0,0,1-1.318-.452A1.482,1.482,0,0,1-52.808-13.3ZM-46.558,0V-8.281h-1.533v-2.285h1.533v-.84a3.651,3.651,0,0,1,1.064-2.8,4.206,4.206,0,0,1,2.988-1A6.544,6.544,0,0,1-40.962-15l.01,2.422a3.007,3.007,0,0,0-.811-.088q-1.494,0-1.494,1.289v.811H-41.2v2.285h-2.061V0Zm10.742-4.609,1.758-5.957h3.525L-34.839,1.768l-.186.449a3.272,3.272,0,0,1-3.242,2.051,5.158,5.158,0,0,1-1.357-.195V1.729h.43a2.251,2.251,0,0,0,1.06-.2A1.216,1.216,0,0,0-37.593.81l.264-.7L-41-10.566h3.516ZM-26.206,0h-3.3V-10.566h3.3Zm-3.5-13.3a1.482,1.482,0,0,1,.508-1.159,1.909,1.909,0,0,1,1.318-.452,1.909,1.909,0,0,1,1.318.452A1.482,1.482,0,0,1-26.05-13.3a1.482,1.482,0,0,1-.508,1.159,1.909,1.909,0,0,1-1.318.452,1.909,1.909,0,0,1-1.318-.452A1.482,1.482,0,0,1-29.7-13.3Zm8.545,2.734.107,1.24a3.583,3.583,0,0,1,3.018-1.436,3.015,3.015,0,0,1,2.466.986,4.7,4.7,0,0,1,.845,2.969V0h-3.3V-6.67a1.783,1.783,0,0,0-.322-1.177,1.491,1.491,0,0,0-1.172-.376,1.569,1.569,0,0,0-1.436.762V0h-3.291V-10.566Zm7.871,5.205a7.134,7.134,0,0,1,.527-2.832,4.245,4.245,0,0,1,1.514-1.9,3.99,3.99,0,0,1,2.295-.669A3.173,3.173,0,0,1-6.372-9.648l.117-.918h2.988V-.4a4.455,4.455,0,0,1-.649,2.427A4.167,4.167,0,0,1-5.8,3.608a6.91,6.91,0,0,1-2.852.552A5.961,5.961,0,0,1-10.9,3.721a4.063,4.063,0,0,1-1.665-1.143L-11.187.645A3.018,3.018,0,0,0-8.765,1.729,1.96,1.96,0,0,0-6.577-.518V-.85A3.09,3.09,0,0,1-8.97.2a3.819,3.819,0,0,1-3.125-1.479,6.13,6.13,0,0,1-1.191-3.96Zm3.3.205A3.759,3.759,0,0,0-9.5-3.1a1.541,1.541,0,0,0,1.367.757,1.748,1.748,0,0,0,1.553-.713V-7.5A1.7,1.7,0,0,0-8.11-8.223a1.551,1.551,0,0,0-1.377.786A4.287,4.287,0,0,0-9.985-5.156ZM9.536,0a3.716,3.716,0,0,1-.312-.947A3.06,3.06,0,0,1,6.685.2a3.749,3.749,0,0,1-2.539-.9A2.875,2.875,0,0,1,3.1-2.979a2.955,2.955,0,0,1,1.27-2.6,6.468,6.468,0,0,1,3.691-.879H9.077v-.559q0-1.462-1.26-1.462A1.03,1.03,0,0,0,6.646-7.319H3.354a2.95,2.95,0,0,1,1.3-2.487,5.479,5.479,0,0,1,3.325-.956,4.8,4.8,0,0,1,3.193.986,3.429,3.429,0,0,1,1.2,2.705v4.678a4.79,4.79,0,0,0,.449,2.227V0ZM7.476-2.148A1.836,1.836,0,0,0,8.5-2.412a1.653,1.653,0,0,0,.581-.6V-4.7H8.12Q6.4-4.7,6.4-3.154a.942.942,0,0,0,.3.728A1.1,1.1,0,0,0,7.476-2.148Zm6.309-3.213a6.455,6.455,0,0,1,1.084-3.955A3.568,3.568,0,0,1,17.9-10.762a3.035,3.035,0,0,1,2.383,1.113V-15h3.3V0H20.62l-.166-1.133A3.116,3.116,0,0,1,17.876.2,3.562,3.562,0,0,1,14.888-1.25,6.659,6.659,0,0,1,13.784-5.361Zm3.291.205q0,2.813,1.641,2.813a1.62,1.62,0,0,0,1.563-.918V-7.285a1.576,1.576,0,0,0-1.543-.937q-1.523,0-1.65,2.461Zm11.914-5.41V.361a3.836,3.836,0,0,1-1.074,2.891,4.127,4.127,0,0,1-2.969,1.016A7.009,7.009,0,0,1,23.394,4.1V1.611a6.3,6.3,0,0,0,.928.088A1.2,1.2,0,0,0,25.688.342V-10.566ZM25.444-13.3a1.482,1.482,0,0,1,.508-1.159,1.909,1.909,0,0,1,1.318-.452,1.909,1.909,0,0,1,1.318.452A1.482,1.482,0,0,1,29.1-13.3a1.482,1.482,0,0,1-.508,1.159,1.909,1.909,0,0,1-1.318.452,1.909,1.909,0,0,1-1.318-.452A1.482,1.482,0,0,1,25.444-13.3ZM35.962.2a5.432,5.432,0,0,1-3.936-1.45,5.008,5.008,0,0,1-1.5-3.774V-5.3a6.489,6.489,0,0,1,.6-2.861,4.395,4.395,0,0,1,1.753-1.919,5.292,5.292,0,0,1,2.734-.679A4.574,4.574,0,0,1,39.126-9.38a5.43,5.43,0,0,1,1.289,3.853v1.279H33.872a2.372,2.372,0,0,0,.771,1.4,2.3,2.3,0,0,0,1.543.508,2.958,2.958,0,0,0,2.441-1.094l1.5,1.777A4.2,4.2,0,0,1,38.389-.308,5.891,5.891,0,0,1,35.962.2Zm-.371-8.418q-1.445,0-1.719,1.914h3.32v-.254a1.63,1.63,0,0,0-.4-1.226A1.593,1.593,0,0,0,35.591-8.223ZM46.206-2.344A1.464,1.464,0,0,0,47.28-2.72a1.379,1.379,0,0,0,.371-1.05h3.086A3.653,3.653,0,0,1,49.492-.918,4.631,4.631,0,0,1,46.284.2,4.689,4.689,0,0,1,42.651-1.25a5.7,5.7,0,0,1-1.328-4v-.137a6.436,6.436,0,0,1,.591-2.827,4.3,4.3,0,0,1,1.7-1.885,5.081,5.081,0,0,1,2.637-.659,4.573,4.573,0,0,1,3.271,1.143,4.053,4.053,0,0,1,1.211,3.1H47.651a1.807,1.807,0,0,0-.4-1.26,1.382,1.382,0,0,0-1.074-.439q-1.279,0-1.494,1.631a11.507,11.507,0,0,0-.068,1.426A4.52,4.52,0,0,0,45-2.959,1.319,1.319,0,0,0,46.206-2.344Zm9.756-10.85v2.627H57.7v2.285H55.962v4.834a1.234,1.234,0,0,0,.215.83,1.152,1.152,0,0,0,.85.234,4.828,4.828,0,0,0,.82-.059V-.088A6.074,6.074,0,0,1,55.991.2a3.448,3.448,0,0,1-2.51-.8,3.282,3.282,0,0,1-.811-2.432V-8.281H51.323v-2.285h1.348v-2.627ZM62.466,0h-3.3V-10.566h3.3Zm-3.5-13.3a1.482,1.482,0,0,1,.508-1.159,1.909,1.909,0,0,1,1.318-.452,1.909,1.909,0,0,1,1.318.452,1.482,1.482,0,0,1,.508,1.159,1.482,1.482,0,0,1-.508,1.159,1.909,1.909,0,0,1-1.318.452,1.909,1.909,0,0,1-1.318-.452A1.482,1.482,0,0,1,58.97-13.3Zm9.736,9.385,1.67-6.65h3.467L70.4,0H67.036L63.589-10.566h3.477ZM79.81.2a5.432,5.432,0,0,1-3.936-1.45,5.008,5.008,0,0,1-1.5-3.774V-5.3a6.489,6.489,0,0,1,.6-2.861,4.395,4.395,0,0,1,1.753-1.919,5.292,5.292,0,0,1,2.734-.679A4.574,4.574,0,0,1,82.974-9.38a5.43,5.43,0,0,1,1.289,3.853v1.279H77.72a2.372,2.372,0,0,0,.771,1.4,2.3,2.3,0,0,0,1.543.508,2.958,2.958,0,0,0,2.441-1.094l1.5,1.777A4.2,4.2,0,0,1,82.236-.308,5.891,5.891,0,0,1,79.81.2Zm-.371-8.418q-1.445,0-1.719,1.914h3.32v-.254a1.63,1.63,0,0,0-.4-1.226A1.593,1.593,0,0,0,79.438-8.223Zm11.68,5.254a.76.76,0,0,0-.439-.674,6.685,6.685,0,0,0-1.67-.527,7.615,7.615,0,0,1-2.031-.718,3.4,3.4,0,0,1-1.221-1.079,2.577,2.577,0,0,1-.42-1.455,2.92,2.92,0,0,1,1.2-2.4,4.948,4.948,0,0,1,3.145-.942,5.482,5.482,0,0,1,3.359.947,2.962,2.962,0,0,1,1.27,2.49h-3.3q0-1.27-1.338-1.27a1.326,1.326,0,0,0-.869.288.892.892,0,0,0-.352.718.819.819,0,0,0,.43.713,4.06,4.06,0,0,0,1.372.449,11.857,11.857,0,0,1,1.655.42,3.007,3.007,0,0,1,2.383,2.939A2.767,2.767,0,0,1,93.008-.713,5.631,5.631,0,0,1,89.683.2a5.747,5.747,0,0,1-2.422-.488A4.05,4.05,0,0,1,85.6-1.621,3.007,3.007,0,0,1,85-3.389h3.076a1.272,1.272,0,0,0,.488,1.069,2.009,2.009,0,0,0,1.2.337,1.58,1.58,0,0,0,1.011-.273A.875.875,0,0,0,91.118-2.969Z" transform="translate(357.333 880)" fill="#12263f"/>
      <rect id="Rectángulo_34887" data-name="Rectángulo 34887" width="248" height="46" rx="23" transform="translate(198.333 359)" fill="#c4d1ff"/>
      <rect id="Rectángulo_34888" data-name="Rectángulo 34888" width="165" height="46" rx="23" transform="translate(275.333 452)" fill="#c4d1ff"/>
      <path id="Trazado_131781" data-name="Trazado 131781" d="M-93.7-6.816a8.385,8.385,0,0,1-.771,3.682A5.7,5.7,0,0,1-96.665-.669,6.1,6.1,0,0,1-99.9.2a6.191,6.191,0,0,1-3.223-.835,5.692,5.692,0,0,1-2.192-2.388,8.144,8.144,0,0,1-.825-3.564v-.8a8.422,8.422,0,0,1,.767-3.687,5.688,5.688,0,0,1,2.2-2.466,6.147,6.147,0,0,1,3.257-.869,6.087,6.087,0,0,1,3.223.859,5.79,5.79,0,0,1,2.2,2.446,8.18,8.18,0,0,1,.8,3.638Zm-3.486-.6A5.979,5.979,0,0,0-97.9-10.63a2.271,2.271,0,0,0-2.026-1.1q-2.578,0-2.725,3.867l-.01,1.045a6.149,6.149,0,0,0,.693,3.213A2.268,2.268,0,0,0-99.9-2.48a2.24,2.24,0,0,0,2-1.1,5.982,5.982,0,0,0,.713-3.174Zm8.125-3.154.107,1.24a3.583,3.583,0,0,1,3.018-1.436,3.015,3.015,0,0,1,2.466.986,4.7,4.7,0,0,1,.845,2.969V0h-3.3V-6.67a1.783,1.783,0,0,0-.322-1.177,1.491,1.491,0,0,0-1.172-.376,1.569,1.569,0,0,0-1.436.762V0h-3.291V-10.566Zm9.414,14.395-1.66-.781.332-.664a5.416,5.416,0,0,0,.713-2.422V-2.48h2.637l-.01,2.119a5.3,5.3,0,0,1-.576,2.285A5.806,5.806,0,0,1-79.648,3.828ZM-66.631,0h-3.418V-14.219h3.418Zm9.2-15.391,1.445.781a5.917,5.917,0,0,0-.83,2.705v1.729h-2.4v-1.611a4.355,4.355,0,0,1,.527-1.909A5.8,5.8,0,0,1-57.432-15.391Zm3.428,0,1.445.781a5.917,5.917,0,0,0-.83,2.705v1.729h-2.4v-1.611a4.355,4.355,0,0,1,.527-1.909A5.8,5.8,0,0,1-54-15.391Zm9.521,7.8-1.084-.078a1.947,1.947,0,0,0-1.992.977V0H-50.85V-10.566h3.086l.107,1.357a2.548,2.548,0,0,1,2.314-1.553,3.209,3.209,0,0,1,.918.117ZM-38.369.2A5.432,5.432,0,0,1-42.3-1.255a5.008,5.008,0,0,1-1.5-3.774V-5.3a6.489,6.489,0,0,1,.6-2.861,4.395,4.395,0,0,1,1.753-1.919,5.292,5.292,0,0,1,2.734-.679A4.574,4.574,0,0,1-35.205-9.38a5.43,5.43,0,0,1,1.289,3.853v1.279h-6.543a2.372,2.372,0,0,0,.771,1.4,2.3,2.3,0,0,0,1.543.508A2.958,2.958,0,0,0-35.7-3.437l1.5,1.777A4.2,4.2,0,0,1-35.942-.308,5.891,5.891,0,0,1-38.369.2Zm-.371-8.418q-1.445,0-1.719,1.914h3.32v-.254a1.63,1.63,0,0,0-.4-1.226A1.593,1.593,0,0,0-38.74-8.223ZM-26.641,0a3.716,3.716,0,0,1-.312-.947A3.06,3.06,0,0,1-29.492.2a3.749,3.749,0,0,1-2.539-.9,2.875,2.875,0,0,1-1.045-2.271,2.955,2.955,0,0,1,1.27-2.6,6.468,6.468,0,0,1,3.691-.879H-27.1v-.559q0-1.462-1.26-1.462a1.03,1.03,0,0,0-1.172,1.158h-3.291a2.95,2.95,0,0,1,1.3-2.487,5.479,5.479,0,0,1,3.325-.956A4.8,4.8,0,0,1-25-9.775,3.429,3.429,0,0,1-23.8-7.07v4.678A4.79,4.79,0,0,0-23.35-.166V0ZM-28.7-2.148a1.836,1.836,0,0,0,1.021-.264,1.653,1.653,0,0,0,.581-.6V-4.7h-.957q-1.719,0-1.719,1.543a.942.942,0,0,0,.3.728A1.1,1.1,0,0,0-28.7-2.148ZM-18.506,0h-3.3V-15h3.3Zm5.5,0h-3.3V-15h3.3Zm6.25-4.609L-5-10.566h3.525L-5.781,1.768l-.186.449A3.272,3.272,0,0,1-9.209,4.268a5.158,5.158,0,0,1-1.357-.195V1.729h.43a2.251,2.251,0,0,0,1.06-.2A1.216,1.216,0,0,0-8.535.81l.264-.7-3.672-10.673h3.516ZM.83-9.766l-1.445-.781A5.666,5.666,0,0,0,.215-13.3V-15h2.4v1.592a4.306,4.306,0,0,1-.522,1.938A5.831,5.831,0,0,1,.83-9.766Zm3.535,0L2.92-10.547A5.666,5.666,0,0,0,3.75-13.3V-15h2.4v1.592A4.306,4.306,0,0,1,5.63-11.47,5.831,5.831,0,0,1,4.365-9.766ZM19.063,0a3.716,3.716,0,0,1-.312-.947A3.06,3.06,0,0,1,16.211.2a3.749,3.749,0,0,1-2.539-.9,2.875,2.875,0,0,1-1.045-2.271,2.955,2.955,0,0,1,1.27-2.6,6.468,6.468,0,0,1,3.691-.879H18.6v-.559q0-1.462-1.26-1.462a1.03,1.03,0,0,0-1.172,1.158H12.881a2.95,2.95,0,0,1,1.3-2.487,5.479,5.479,0,0,1,3.325-.956,4.8,4.8,0,0,1,3.193.986A3.429,3.429,0,0,1,21.9-7.07v4.678a4.79,4.79,0,0,0,.449,2.227V0ZM17-2.148a1.836,1.836,0,0,0,1.021-.264,1.653,1.653,0,0,0,.581-.6V-4.7h-.957q-1.719,0-1.719,1.543a.942.942,0,0,0,.3.728A1.1,1.1,0,0,0,17-2.148Zm9.746-8.418.107,1.24a3.583,3.583,0,0,1,3.018-1.436,3.015,3.015,0,0,1,2.466.986,4.7,4.7,0,0,1,.845,2.969V0h-3.3V-6.67a1.783,1.783,0,0,0-.322-1.177,1.491,1.491,0,0,0-1.172-.376,1.569,1.569,0,0,0-1.436.762V0H23.662V-10.566ZM34.59-5.361a6.455,6.455,0,0,1,1.084-3.955A3.568,3.568,0,0,1,38.7-10.762a3.035,3.035,0,0,1,2.383,1.113V-15h3.3V0H41.426L41.26-1.133A3.116,3.116,0,0,1,38.682.2,3.562,3.562,0,0,1,35.693-1.25,6.659,6.659,0,0,1,34.59-5.361Zm3.291.205q0,2.813,1.641,2.813a1.62,1.62,0,0,0,1.563-.918V-7.285a1.576,1.576,0,0,0-1.543-.937q-1.523,0-1.65,2.461ZM53.223-15.391l1.445.781a5.917,5.917,0,0,0-.83,2.705v1.729h-2.4v-1.611a4.355,4.355,0,0,1,.527-1.909A5.8,5.8,0,0,1,53.223-15.391Zm3.428,0,1.445.781a5.917,5.917,0,0,0-.83,2.705v1.729h-2.4v-1.611a4.355,4.355,0,0,1,.527-1.909A5.8,5.8,0,0,1,56.65-15.391ZM63.994-3.916l1.67-6.65h3.467L65.684,0H62.324L58.877-10.566h3.477ZM75.1.2a5.432,5.432,0,0,1-3.936-1.45,5.008,5.008,0,0,1-1.5-3.774V-5.3a6.489,6.489,0,0,1,.6-2.861,4.395,4.395,0,0,1,1.753-1.919,5.292,5.292,0,0,1,2.734-.679A4.574,4.574,0,0,1,78.262-9.38a5.43,5.43,0,0,1,1.289,3.853v1.279H73.008a2.372,2.372,0,0,0,.771,1.4,2.3,2.3,0,0,0,1.543.508,2.958,2.958,0,0,0,2.441-1.094l1.5,1.777A4.2,4.2,0,0,1,77.524-.308,5.891,5.891,0,0,1,75.1.2Zm-.371-8.418q-1.445,0-1.719,1.914h3.32v-.254a1.63,1.63,0,0,0-.4-1.226A1.593,1.593,0,0,0,74.727-8.223Zm12.539.635-1.084-.078a1.947,1.947,0,0,0-1.992.977V0H80.9V-10.566h3.086l.107,1.357a2.548,2.548,0,0,1,2.314-1.553,3.209,3.209,0,0,1,.918.117Zm5.586,2.979,1.758-5.957h3.525L93.828,1.768l-.186.449A3.272,3.272,0,0,1,90.4,4.268a5.158,5.158,0,0,1-1.357-.195V1.729h.43a2.251,2.251,0,0,0,1.06-.2A1.216,1.216,0,0,0,91.074.81l.264-.7L87.666-10.566h3.516Zm7.588-5.156-1.445-.781a5.666,5.666,0,0,0,.83-2.754V-15h2.4v1.592a4.306,4.306,0,0,1-.522,1.938A5.831,5.831,0,0,1,100.439-9.766Zm3.535,0-1.445-.781a5.666,5.666,0,0,0,.83-2.754V-15h2.4v1.592a4.306,4.306,0,0,1-.522,1.938A5.831,5.831,0,0,1,103.975-9.766Z" transform="translate(322.333 389)" fill="#12263f"/>
      <path id="Trazado_131782" data-name="Trazado 131782" d="M-34.932,0H-38.35V-14.219h3.418Zm5.254-10.566.107,1.24a3.583,3.583,0,0,1,3.018-1.436,3.015,3.015,0,0,1,2.466.986,4.7,4.7,0,0,1,.845,2.969V0h-3.3V-6.67a1.783,1.783,0,0,0-.322-1.177,1.491,1.491,0,0,0-1.172-.376,1.569,1.569,0,0,0-1.436.762V0h-3.291V-10.566Zm12.09-2.627v2.627h1.738v2.285h-1.738v4.834a1.234,1.234,0,0,0,.215.83,1.152,1.152,0,0,0,.85.234,4.828,4.828,0,0,0,.82-.059V-.088A6.074,6.074,0,0,1-17.559.2a3.448,3.448,0,0,1-2.51-.8,3.282,3.282,0,0,1-.811-2.432V-8.281h-1.348v-2.285h1.348v-2.627ZM-9.443.2a5.432,5.432,0,0,1-3.936-1.45,5.008,5.008,0,0,1-1.5-3.774V-5.3a6.489,6.489,0,0,1,.6-2.861,4.395,4.395,0,0,1,1.753-1.919,5.292,5.292,0,0,1,2.734-.679A4.574,4.574,0,0,1-6.279-9.38,5.43,5.43,0,0,1-4.99-5.527v1.279h-6.543a2.372,2.372,0,0,0,.771,1.4,2.3,2.3,0,0,0,1.543.508A2.958,2.958,0,0,0-6.777-3.437l1.5,1.777A4.2,4.2,0,0,1-7.017-.308,5.891,5.891,0,0,1-9.443.2Zm-.371-8.418q-1.445,0-1.719,1.914h3.32v-.254a1.63,1.63,0,0,0-.4-1.226A1.593,1.593,0,0,0-9.814-8.223Zm9.17-2.344.107,1.24A3.583,3.583,0,0,1,2.48-10.762a3.015,3.015,0,0,1,2.466.986,4.7,4.7,0,0,1,.845,2.969V0H2.49V-6.67a1.783,1.783,0,0,0-.322-1.177A1.491,1.491,0,0,0,1-8.223a1.569,1.569,0,0,0-1.436.762V0H-3.73V-10.566Zm13.789,7.6a.76.76,0,0,0-.439-.674,6.685,6.685,0,0,0-1.67-.527A7.615,7.615,0,0,1,9-4.888,3.4,3.4,0,0,1,7.783-5.967a2.577,2.577,0,0,1-.42-1.455,2.92,2.92,0,0,1,1.2-2.4,4.948,4.948,0,0,1,3.145-.942,5.482,5.482,0,0,1,3.359.947,2.962,2.962,0,0,1,1.27,2.49h-3.3q0-1.27-1.338-1.27a1.326,1.326,0,0,0-.869.288.892.892,0,0,0-.352.718.819.819,0,0,0,.43.713,4.06,4.06,0,0,0,1.372.449,11.857,11.857,0,0,1,1.655.42,3.007,3.007,0,0,1,2.383,2.939A2.767,2.767,0,0,1,15.034-.713,5.632,5.632,0,0,1,11.709.2,5.747,5.747,0,0,1,9.287-.293a4.05,4.05,0,0,1-1.66-1.328,3.007,3.007,0,0,1-.6-1.768h3.076A1.272,1.272,0,0,0,10.6-2.319a2.009,2.009,0,0,0,1.2.337,1.58,1.58,0,0,0,1.011-.273A.875.875,0,0,0,13.145-2.969ZM21.328,0h-3.3V-10.566h3.3Zm-3.5-13.3a1.482,1.482,0,0,1,.508-1.159,1.909,1.909,0,0,1,1.318-.452,1.909,1.909,0,0,1,1.318.452,1.482,1.482,0,0,1,.508,1.159,1.482,1.482,0,0,1-.508,1.159,1.909,1.909,0,0,1-1.318.452,1.909,1.909,0,0,1-1.318-.452A1.482,1.482,0,0,1,17.832-13.3Zm9.355.107v2.627h1.738v2.285H27.188v4.834a1.234,1.234,0,0,0,.215.83,1.152,1.152,0,0,0,.85.234,4.828,4.828,0,0,0,.82-.059V-.088A6.074,6.074,0,0,1,27.217.2a3.448,3.448,0,0,1-2.51-.8A3.282,3.282,0,0,1,23.9-3.037V-8.281H22.549v-2.285H23.9v-2.627Zm7.256,8.584L36.2-10.566h3.525L35.42,1.768l-.186.449a3.272,3.272,0,0,1-3.242,2.051,5.158,5.158,0,0,1-1.357-.195V1.729h.43a2.251,2.251,0,0,0,1.06-.2A1.216,1.216,0,0,0,32.666.81l.264-.7L29.258-10.566h3.516Z" transform="translate(358.333 482)" fill="#12263f"/>
      <path id="Trazado_123075" data-name="Trazado 123075" d="M-12094-9310.619h74.758v-67.842" transform="translate(12768.333 10136)" fill="none" stroke="#fc5f65" stroke-width="3"/>
      <path id="Trazado_123078" data-name="Trazado 123078" d="M-11978.77-9378.461H-12094v98.531" transform="translate(12953.11 9807.961)" fill="none" stroke="#fc5f65" stroke-width="3"/>
      <path id="Trazado_123076" data-name="Trazado 123076" d="M-11978.77-9310.619H-12094v-67.842" transform="translate(12953.11 10136)" fill="none" stroke="#fc5f65" stroke-width="3"/>
      <path id="Trazado_123077" data-name="Trazado 123077" d="M-12094-9378.46h74.758v91.921" transform="translate(12768.333 9807.96)" fill="none" stroke="#fc5f65" stroke-width="3"/>
      <rect id="Rectángulo_34879" data-name="Rectángulo 34879" width="164" height="47" rx="10" transform="translate(523.333 802)" fill="#3c3fa7"/>
      <path id="Trazado_131786" data-name="Trazado 131786" d="M-38.477-2.656h-4.7L-43.994,0h-3.662l5.215-14.219h3.223L-33.965,0h-3.682ZM-42.354-5.3H-39.3l-1.533-4.932Zm8.857-.059a6.455,6.455,0,0,1,1.084-3.955,3.568,3.568,0,0,1,3.027-1.445A3.035,3.035,0,0,1-27-9.648V-15h3.3V0H-26.66l-.166-1.133A3.116,3.116,0,0,1-29.4.2,3.562,3.562,0,0,1-32.393-1.25,6.659,6.659,0,0,1-33.5-5.361Zm3.291.205q0,2.813,1.641,2.813A1.62,1.62,0,0,0-27-3.262V-7.285a1.576,1.576,0,0,0-1.543-.937q-1.523,0-1.65,2.461Zm11.914-5.41V.361a3.836,3.836,0,0,1-1.074,2.891,4.127,4.127,0,0,1-2.969,1.016A7.009,7.009,0,0,1-23.887,4.1V1.611a6.3,6.3,0,0,0,.928.088A1.2,1.2,0,0,0-21.592.342V-10.566ZM-21.836-13.3a1.482,1.482,0,0,1,.508-1.159,1.909,1.909,0,0,1,1.318-.452,1.909,1.909,0,0,1,1.318.452,1.482,1.482,0,0,1,.508,1.159,1.482,1.482,0,0,1-.508,1.159,1.909,1.909,0,0,1-1.318.452,1.909,1.909,0,0,1-1.318-.452A1.482,1.482,0,0,1-21.836-13.3ZM-11.318.2a5.432,5.432,0,0,1-3.936-1.45,5.008,5.008,0,0,1-1.5-3.774V-5.3a6.489,6.489,0,0,1,.6-2.861A4.395,4.395,0,0,1-14.4-10.083a5.292,5.292,0,0,1,2.734-.679A4.574,4.574,0,0,1-8.154-9.38,5.43,5.43,0,0,1-6.865-5.527v1.279h-6.543a2.372,2.372,0,0,0,.771,1.4,2.3,2.3,0,0,0,1.543.508A2.958,2.958,0,0,0-8.652-3.437l1.5,1.777A4.2,4.2,0,0,1-8.892-.308,5.891,5.891,0,0,1-11.318.2Zm-.371-8.418q-1.445,0-1.719,1.914h3.32v-.254a1.63,1.63,0,0,0-.4-1.226A1.593,1.593,0,0,0-11.689-8.223ZM-1.074-2.344A1.464,1.464,0,0,0,0-2.72,1.379,1.379,0,0,0,.371-3.77H3.457A3.653,3.653,0,0,1,2.212-.918,4.631,4.631,0,0,1-1,.2,4.689,4.689,0,0,1-4.629-1.25a5.7,5.7,0,0,1-1.328-4v-.137a6.436,6.436,0,0,1,.591-2.827,4.3,4.3,0,0,1,1.7-1.885,5.081,5.081,0,0,1,2.637-.659A4.573,4.573,0,0,1,2.246-9.619a4.053,4.053,0,0,1,1.211,3.1H.371a1.807,1.807,0,0,0-.4-1.26A1.382,1.382,0,0,0-1.1-8.223q-1.279,0-1.494,1.631a11.508,11.508,0,0,0-.068,1.426,4.52,4.52,0,0,0,.381,2.207A1.319,1.319,0,0,0-1.074-2.344Zm9.756-10.85v2.627H10.42v2.285H8.682v4.834a1.234,1.234,0,0,0,.215.83,1.152,1.152,0,0,0,.85.234,4.828,4.828,0,0,0,.82-.059V-.088A6.074,6.074,0,0,1,8.711.2a3.448,3.448,0,0,1-2.51-.8,3.282,3.282,0,0,1-.811-2.432V-8.281H4.043v-2.285H5.391v-2.627ZM15.186,0h-3.3V-10.566h3.3Zm-3.5-13.3A1.482,1.482,0,0,1,12.2-14.46a1.909,1.909,0,0,1,1.318-.452,1.909,1.909,0,0,1,1.318.452,1.482,1.482,0,0,1,.508,1.159,1.482,1.482,0,0,1-.508,1.159,1.909,1.909,0,0,1-1.318.452,1.909,1.909,0,0,1-1.318-.452A1.482,1.482,0,0,1,11.689-13.3Zm9.736,9.385,1.67-6.65h3.467L23.115,0H19.756L16.309-10.566h3.477ZM32.529.2a5.432,5.432,0,0,1-3.936-1.45,5.008,5.008,0,0,1-1.5-3.774V-5.3a6.489,6.489,0,0,1,.6-2.861,4.395,4.395,0,0,1,1.753-1.919,5.292,5.292,0,0,1,2.734-.679A4.574,4.574,0,0,1,35.693-9.38a5.43,5.43,0,0,1,1.289,3.853v1.279H30.439a2.372,2.372,0,0,0,.771,1.4,2.3,2.3,0,0,0,1.543.508A2.958,2.958,0,0,0,35.2-3.437L36.7-1.66A4.2,4.2,0,0,1,34.956-.308,5.891,5.891,0,0,1,32.529.2Zm-.371-8.418q-1.445,0-1.719,1.914h3.32v-.254a1.63,1.63,0,0,0-.4-1.226A1.593,1.593,0,0,0,32.158-8.223Zm11.68,5.254a.76.76,0,0,0-.439-.674,6.685,6.685,0,0,0-1.67-.527A7.615,7.615,0,0,1,39.7-4.888a3.4,3.4,0,0,1-1.221-1.079,2.577,2.577,0,0,1-.42-1.455,2.92,2.92,0,0,1,1.2-2.4,4.948,4.948,0,0,1,3.145-.942,5.482,5.482,0,0,1,3.359.947,2.962,2.962,0,0,1,1.27,2.49h-3.3q0-1.27-1.338-1.27a1.326,1.326,0,0,0-.869.288.892.892,0,0,0-.352.718.819.819,0,0,0,.43.713,4.06,4.06,0,0,0,1.372.449,11.857,11.857,0,0,1,1.655.42,3.007,3.007,0,0,1,2.383,2.939A2.767,2.767,0,0,1,45.728-.713,5.632,5.632,0,0,1,42.4.2,5.747,5.747,0,0,1,39.98-.293a4.05,4.05,0,0,1-1.66-1.328,3.007,3.007,0,0,1-.6-1.768H40.8a1.272,1.272,0,0,0,.488,1.069,2.009,2.009,0,0,0,1.2.337A1.58,1.58,0,0,0,43.5-2.256.875.875,0,0,0,43.838-2.969Z" transform="translate(605.333 833)" fill="#fff"/>
      <rect id="Rectángulo_34878" data-name="Rectángulo 34878" width="182" height="47" rx="10" transform="translate(950.333 803)" fill="#3c3fa7"/>
      <path id="Trazado_131790" data-name="Trazado 131790" d="M-28.916-2.637h5.967V0h-9.395V-14.219h3.428ZM-18.184,0h-3.3V-10.566h3.3Zm-3.5-13.3a1.482,1.482,0,0,1,.508-1.159,1.909,1.909,0,0,1,1.318-.452,1.909,1.909,0,0,1,1.318.452,1.482,1.482,0,0,1,.508,1.159,1.482,1.482,0,0,1-.508,1.159,1.909,1.909,0,0,1-1.318.452,1.909,1.909,0,0,1-1.318-.452A1.482,1.482,0,0,1-21.68-13.3Zm8.545,2.734.107,1.24a3.583,3.583,0,0,1,3.018-1.436,3.015,3.015,0,0,1,2.466.986A4.7,4.7,0,0,1-6.7-6.807V0H-10V-6.67a1.783,1.783,0,0,0-.322-1.177,1.491,1.491,0,0,0-1.172-.376,1.569,1.569,0,0,0-1.436.762V0h-3.291V-10.566Zm12.5,6.631-.928.928V0H-4.854V-15.01h3.291v7.969l.332-.439,2.48-3.086H5.2l-3.7,4.346L5.439,0H1.67ZM9.531,0H6.23V-10.566h3.3Zm-3.5-13.3a1.482,1.482,0,0,1,.508-1.159,1.909,1.909,0,0,1,1.318-.452,1.909,1.909,0,0,1,1.318.452A1.482,1.482,0,0,1,9.688-13.3a1.482,1.482,0,0,1-.508,1.159,1.909,1.909,0,0,1-1.318.452,1.909,1.909,0,0,1-1.318-.452A1.482,1.482,0,0,1,6.035-13.3Zm8.545,2.734.107,1.24a3.583,3.583,0,0,1,3.018-1.436,3.015,3.015,0,0,1,2.466.986,4.7,4.7,0,0,1,.845,2.969V0h-3.3V-6.67a1.783,1.783,0,0,0-.322-1.177,1.491,1.491,0,0,0-1.172-.376,1.569,1.569,0,0,0-1.436.762V0H11.494V-10.566Zm7.871,5.205a7.134,7.134,0,0,1,.527-2.832,4.245,4.245,0,0,1,1.514-1.9,3.99,3.99,0,0,1,2.295-.669,3.173,3.173,0,0,1,2.578,1.113l.117-.918h2.988V-.4a4.455,4.455,0,0,1-.649,2.427,4.167,4.167,0,0,1-1.88,1.582,6.91,6.91,0,0,1-2.852.552,5.961,5.961,0,0,1-2.251-.439,4.063,4.063,0,0,1-1.665-1.143L24.551.645a3.018,3.018,0,0,0,2.422,1.084A1.96,1.96,0,0,0,29.16-.518V-.85A3.09,3.09,0,0,1,26.768.2a3.819,3.819,0,0,1-3.125-1.479,6.13,6.13,0,0,1-1.191-3.96Zm3.3.205A3.759,3.759,0,0,0,26.24-3.1a1.541,1.541,0,0,0,1.367.757,1.748,1.748,0,0,0,1.553-.713V-7.5a1.7,1.7,0,0,0-1.533-.723,1.551,1.551,0,0,0-1.377.786A4.287,4.287,0,0,0,25.752-5.156Z" transform="translate(1041.333 834)" fill="#fff"/>
      <rect id="Rectángulo_34877" data-name="Rectángulo 34877" width="190" height="47" rx="10" transform="translate(950.333 405)" fill="#3c3fa7"/>
      <path id="Trazado_131787" data-name="Trazado 131787" d="M-49.028-5.3l1.631-8.916H-44L-47.017,0h-3.555l-1.9-8.105L-54.341,0h-3.545l-3.027-14.219H-57.5L-55.874-5.3l1.953-8.916h2.91Zm9.434-4.131a3.294,3.294,0,0,1,2.7-1.328,3.284,3.284,0,0,1,2.637,1.035,4.651,4.651,0,0,1,.908,3.057V0h-3.3V-6.592A1.86,1.86,0,0,0-37-7.827a1.469,1.469,0,0,0-1.162-.4,1.582,1.582,0,0,0-1.436.645V0h-3.291V-15h3.291ZM-25.571,0a3.716,3.716,0,0,1-.312-.947A3.06,3.06,0,0,1-28.423.2a3.749,3.749,0,0,1-2.539-.9,2.875,2.875,0,0,1-1.045-2.271,2.955,2.955,0,0,1,1.27-2.6,6.468,6.468,0,0,1,3.691-.879h1.016v-.559q0-1.462-1.26-1.462a1.03,1.03,0,0,0-1.172,1.158h-3.291a2.95,2.95,0,0,1,1.3-2.487,5.479,5.479,0,0,1,3.325-.956,4.8,4.8,0,0,1,3.193.986,3.429,3.429,0,0,1,1.2,2.705v4.678A4.79,4.79,0,0,0-22.28-.166V0Zm-2.061-2.148a1.836,1.836,0,0,0,1.021-.264,1.653,1.653,0,0,0,.581-.6V-4.7h-.957q-1.719,0-1.719,1.543a.942.942,0,0,0,.3.728A1.1,1.1,0,0,0-27.632-2.148Zm10.557-11.045v2.627h1.738v2.285h-1.738v4.834a1.234,1.234,0,0,0,.215.83,1.152,1.152,0,0,0,.85.234,4.828,4.828,0,0,0,.82-.059V-.088A6.074,6.074,0,0,1-17.046.2a3.448,3.448,0,0,1-2.51-.8,3.282,3.282,0,0,1-.811-2.432V-8.281h-1.348v-2.285h1.348v-2.627Zm7.6,7.832A6.455,6.455,0,0,1-8.394-9.316a3.568,3.568,0,0,1,3.027-1.445A3.035,3.035,0,0,1-2.983-9.648V-15h3.3V0H-2.642l-.166-1.133A3.116,3.116,0,0,1-5.386.2,3.562,3.562,0,0,1-8.374-1.25,6.659,6.659,0,0,1-9.478-5.361Zm3.291.205q0,2.813,1.641,2.813a1.62,1.62,0,0,0,1.563-.918V-7.285a1.576,1.576,0,0,0-1.543-.937q-1.523,0-1.65,2.461Zm7.959-.225A6.236,6.236,0,0,1,2.388-8.2a4.4,4.4,0,0,1,1.768-1.9,5.323,5.323,0,0,1,2.705-.664,4.858,4.858,0,0,1,3.74,1.47,5.64,5.64,0,0,1,1.367,4v.117A5.472,5.472,0,0,1,10.6-1.255,4.871,4.871,0,0,1,6.88.2,4.927,4.927,0,0,1,3.257-1.157,5.29,5.29,0,0,1,1.782-4.824Zm3.291.205a3.932,3.932,0,0,0,.459,2.148,1.529,1.529,0,0,0,1.357.684q1.758,0,1.8-2.705v-.332q0-2.842-1.816-2.842-1.65,0-1.787,2.451ZM22.2,0H18.784V-14.219H22.2ZM32.886,0h-3.3V-15h3.3Zm5.5,0h-3.3V-10.566h3.3Zm-3.5-13.3A1.482,1.482,0,0,1,35.4-14.46a1.909,1.909,0,0,1,1.318-.452,1.909,1.909,0,0,1,1.318.452A1.482,1.482,0,0,1,38.54-13.3a1.482,1.482,0,0,1-.508,1.159,1.909,1.909,0,0,1-1.318.452,1.909,1.909,0,0,1-1.318-.452A1.482,1.482,0,0,1,34.888-13.3Zm9.766,9.365-.928.928V0H40.435V-15.01h3.291v7.969l.332-.439,2.48-3.086h3.945l-3.7,4.346L50.728,0h-3.77ZM56.265.2a5.432,5.432,0,0,1-3.936-1.45,5.008,5.008,0,0,1-1.5-3.774V-5.3a6.489,6.489,0,0,1,.6-2.861,4.395,4.395,0,0,1,1.753-1.919,5.292,5.292,0,0,1,2.734-.679A4.574,4.574,0,0,1,59.429-9.38a5.43,5.43,0,0,1,1.289,3.853v1.279H54.175a2.372,2.372,0,0,0,.771,1.4,2.3,2.3,0,0,0,1.543.508,2.958,2.958,0,0,0,2.441-1.094l1.5,1.777A4.2,4.2,0,0,1,58.691-.308,5.891,5.891,0,0,1,56.265.2Zm-.371-8.418q-1.445,0-1.719,1.914H57.5v-.254a1.63,1.63,0,0,0-.4-1.226A1.593,1.593,0,0,0,55.894-8.223Z" transform="translate(1045.333 436)" fill="#fff"/>
      <rect id="Rectángulo_34880" data-name="Rectángulo 34880" width="263" height="47" rx="10" transform="translate(441.333 405)" fill="#3c3fa7"/>
      <path id="Trazado_131783" data-name="Trazado 131783" d="M-73.267-5.3l1.631-8.916h3.4L-71.255,0H-74.81l-1.9-8.105L-78.579,0h-3.545l-3.027-14.219h3.408L-80.112-5.3l1.953-8.916h2.91Zm9.434-4.131a3.294,3.294,0,0,1,2.7-1.328A3.284,3.284,0,0,1-58.5-9.727a4.651,4.651,0,0,1,.908,3.057V0h-3.3V-6.592a1.86,1.86,0,0,0-.342-1.235,1.469,1.469,0,0,0-1.162-.4,1.582,1.582,0,0,0-1.436.645V0h-3.291V-15h3.291ZM-49.81,0a3.716,3.716,0,0,1-.312-.947A3.06,3.06,0,0,1-52.661.2a3.749,3.749,0,0,1-2.539-.9,2.875,2.875,0,0,1-1.045-2.271,2.955,2.955,0,0,1,1.27-2.6,6.468,6.468,0,0,1,3.691-.879h1.016v-.559q0-1.462-1.26-1.462A1.03,1.03,0,0,0-52.7-7.319h-3.291a2.95,2.95,0,0,1,1.3-2.487,5.479,5.479,0,0,1,3.325-.956,4.8,4.8,0,0,1,3.193.986,3.429,3.429,0,0,1,1.2,2.705v4.678a4.79,4.79,0,0,0,.449,2.227V0ZM-51.87-2.148a1.836,1.836,0,0,0,1.021-.264,1.653,1.653,0,0,0,.581-.6V-4.7h-.957q-1.719,0-1.719,1.543a.942.942,0,0,0,.3.728A1.1,1.1,0,0,0-51.87-2.148Zm10.557-11.045v2.627h1.738v2.285h-1.738v4.834a1.234,1.234,0,0,0,.215.83,1.152,1.152,0,0,0,.85.234,4.828,4.828,0,0,0,.82-.059V-.088A6.074,6.074,0,0,1-41.284.2a3.448,3.448,0,0,1-2.51-.8A3.282,3.282,0,0,1-44.6-3.037V-8.281h-1.348v-2.285H-44.6v-2.627ZM-29.829,0h-3.3V-10.566h3.3Zm-3.5-13.3a1.482,1.482,0,0,1,.508-1.159,1.909,1.909,0,0,1,1.318-.452,1.909,1.909,0,0,1,1.318.452,1.482,1.482,0,0,1,.508,1.159,1.482,1.482,0,0,1-.508,1.159,1.909,1.909,0,0,1-1.318.452,1.909,1.909,0,0,1-1.318-.452A1.482,1.482,0,0,1-33.325-13.3ZM-22.271-2.969a.76.76,0,0,0-.439-.674,6.685,6.685,0,0,0-1.67-.527,7.615,7.615,0,0,1-2.031-.718,3.4,3.4,0,0,1-1.221-1.079,2.577,2.577,0,0,1-.42-1.455,2.92,2.92,0,0,1,1.2-2.4,4.948,4.948,0,0,1,3.145-.942,5.482,5.482,0,0,1,3.359.947,2.962,2.962,0,0,1,1.27,2.49h-3.3q0-1.27-1.338-1.27a1.326,1.326,0,0,0-.869.288.892.892,0,0,0-.352.718.819.819,0,0,0,.43.713,4.06,4.06,0,0,0,1.372.449,11.857,11.857,0,0,1,1.655.42A3.007,3.007,0,0,1-19.1-3.066,2.767,2.767,0,0,1-20.381-.713,5.631,5.631,0,0,1-23.706.2a5.747,5.747,0,0,1-2.422-.488,4.05,4.05,0,0,1-1.66-1.328,3.007,3.007,0,0,1-.6-1.768h3.076a1.272,1.272,0,0,0,.488,1.069,2.009,2.009,0,0,0,1.2.337,1.58,1.58,0,0,0,1.011-.273A.875.875,0,0,0-22.271-2.969ZM-6.626,0a3.716,3.716,0,0,1-.312-.947A3.06,3.06,0,0,1-9.478.2a3.749,3.749,0,0,1-2.539-.9,2.875,2.875,0,0,1-1.045-2.271,2.955,2.955,0,0,1,1.27-2.6A6.468,6.468,0,0,1-8.1-6.455h1.016v-.559q0-1.462-1.26-1.462A1.03,1.03,0,0,0-9.517-7.319h-3.291a2.95,2.95,0,0,1,1.3-2.487,5.479,5.479,0,0,1,3.325-.956,4.8,4.8,0,0,1,3.193.986,3.429,3.429,0,0,1,1.2,2.705v4.678A4.79,4.79,0,0,0-3.335-.166V0ZM-8.687-2.148a1.836,1.836,0,0,0,1.021-.264,1.653,1.653,0,0,0,.581-.6V-4.7h-.957q-1.719,0-1.719,1.543a.942.942,0,0,0,.3.728A1.1,1.1,0,0,0-8.687-2.148ZM1.06-10.566l.107,1.24a3.583,3.583,0,0,1,3.018-1.436,3.015,3.015,0,0,1,2.466.986A4.7,4.7,0,0,1,7.5-6.807V0h-3.3V-6.67a1.783,1.783,0,0,0-.322-1.177A1.491,1.491,0,0,0,2.7-8.223a1.569,1.569,0,0,0-1.436.762V0H-2.026V-10.566ZM20.249,0a3.716,3.716,0,0,1-.312-.947A3.06,3.06,0,0,1,17.4.2a3.749,3.749,0,0,1-2.539-.9,2.875,2.875,0,0,1-1.045-2.271,2.955,2.955,0,0,1,1.27-2.6,6.468,6.468,0,0,1,3.691-.879H19.79v-.559q0-1.462-1.26-1.462a1.03,1.03,0,0,0-1.172,1.158H14.067a2.95,2.95,0,0,1,1.3-2.487,5.479,5.479,0,0,1,3.325-.956,4.8,4.8,0,0,1,3.193.986,3.429,3.429,0,0,1,1.2,2.705v4.678A4.79,4.79,0,0,0,23.54-.166V0ZM18.188-2.148a1.836,1.836,0,0,0,1.021-.264,1.653,1.653,0,0,0,.581-.6V-4.7h-.957q-1.719,0-1.719,1.543a.942.942,0,0,0,.3.728A1.1,1.1,0,0,0,18.188-2.148ZM24.5-5.361a6.455,6.455,0,0,1,1.084-3.955,3.568,3.568,0,0,1,3.027-1.445,3.035,3.035,0,0,1,2.383,1.113V-15h3.3V0H31.333l-.166-1.133A3.116,3.116,0,0,1,28.589.2,3.562,3.562,0,0,1,25.6-1.25,6.659,6.659,0,0,1,24.5-5.361Zm3.291.205q0,2.813,1.641,2.813a1.62,1.62,0,0,0,1.563-.918V-7.285a1.576,1.576,0,0,0-1.543-.937q-1.523,0-1.65,2.461Zm12.588,1.24,1.67-6.65h3.467L42.065,0H38.706L35.259-10.566h3.477ZM51.479.2a5.432,5.432,0,0,1-3.936-1.45,5.008,5.008,0,0,1-1.5-3.774V-5.3a6.489,6.489,0,0,1,.6-2.861,4.395,4.395,0,0,1,1.753-1.919,5.292,5.292,0,0,1,2.734-.679A4.574,4.574,0,0,1,54.644-9.38a5.43,5.43,0,0,1,1.289,3.853v1.279H49.39a2.372,2.372,0,0,0,.771,1.4,2.3,2.3,0,0,0,1.543.508,2.958,2.958,0,0,0,2.441-1.094l1.5,1.777A4.2,4.2,0,0,1,53.906-.308,5.891,5.891,0,0,1,51.479.2Zm-.371-8.418q-1.445,0-1.719,1.914h3.32v-.254a1.63,1.63,0,0,0-.4-1.226A1.593,1.593,0,0,0,51.108-8.223Zm12.539.635-1.084-.078a1.947,1.947,0,0,0-1.992.977V0H57.28V-10.566h3.086l.107,1.357a2.548,2.548,0,0,1,2.314-1.553,3.209,3.209,0,0,1,.918.117Zm11,2.393A6.44,6.44,0,0,1,73.569-1.2,3.6,3.6,0,0,1,70.542.2a3.122,3.122,0,0,1-2.6-1.279L67.808,0H64.858V-15h3.291v5.283a3.013,3.013,0,0,1,2.373-1.045,3.6,3.6,0,0,1,3.047,1.416,6.473,6.473,0,0,1,1.074,3.984Zm-3.3-.21a4.3,4.3,0,0,0-.405-2.169,1.366,1.366,0,0,0-1.245-.648,1.576,1.576,0,0,0-1.543.848v4.192a1.585,1.585,0,0,0,1.563.838,1.4,1.4,0,0,0,1.475-1.131A8.121,8.121,0,0,0,71.343-5.405Zm7.188.9a6.356,6.356,0,0,1,.322-2.251A3.521,3.521,0,0,1,79.9-8.184,6.947,6.947,0,0,0,81-9.292a1.809,1.809,0,0,0,.376-1.108q0-1.475-1.27-1.475a1.178,1.178,0,0,0-.947.43,1.828,1.828,0,0,0-.381,1.162h-3.3a3.937,3.937,0,0,1,1.23-3.042,4.906,4.906,0,0,1,3.4-1.089,5.1,5.1,0,0,1,3.374,1.006,3.53,3.53,0,0,1,1.2,2.861,3.333,3.333,0,0,1-.322,1.475,4.984,4.984,0,0,1-1.035,1.357L82.192-6.67a2.642,2.642,0,0,0-.664.942A3.735,3.735,0,0,0,81.323-4.5Zm-.4,2.969a1.516,1.516,0,0,1,.522-1.187,1.892,1.892,0,0,1,1.3-.464,1.892,1.892,0,0,1,1.3.464,1.516,1.516,0,0,1,.522,1.187A1.516,1.516,0,0,1,81.26-.347a1.892,1.892,0,0,1-1.3.464,1.892,1.892,0,0,1-1.3-.464A1.516,1.516,0,0,1,78.13-1.533Z" transform="translate(572.333 436)" fill="#fff"/>
      <g id="Grupo_158052" data-name="Grupo 158052" transform="translate(0 -20)">
        <rect id="Rectángulo_34876" data-name="Rectángulo 34876" width="271" height="264" rx="25" transform="translate(670.333 530)" fill="#fc5f65"/>
        <g id="Grupo_84013" data-name="Grupo 84013" transform="translate(27.214 -2492.822)">
          <g id="Grupo_83900" data-name="Grupo 83900" transform="translate(824.356 3122.182)">
            <path id="Trazado_117751" data-name="Trazado 117751" d="M800.4,342.484a1.662,1.662,0,0,1-1.662-1.662V257.354h3.323v83.468A1.661,1.661,0,0,1,800.4,342.484Z" transform="translate(-798.741 -257.354)" fill="#636363"/>
          </g>
          <g id="Grupo_83901" data-name="Grupo 83901" transform="translate(805.329 3111.214)">
            <path id="Rectángulo_34538" data-name="Rectángulo 34538" d="M0,0H32.014a6.041,6.041,0,0,1,6.041,6.041v.88a6.041,6.041,0,0,1-6.041,6.041H0a0,0,0,0,1,0,0V0A0,0,0,0,1,0,0Z" fill="#636363"/>
          </g>
          <g id="Grupo_83902" data-name="Grupo 83902" transform="translate(810.792 3065.902)">
            <path id="Trazado_117752" data-name="Trazado 117752" d="M800.353,183.63s6.357,15.9,0,24.372a20.221,20.221,0,0,1-15.7,8.166l-3.675-9.454Z" transform="translate(-780.973 -183.63)" fill="#ffbf69"/>
          </g>
          <g id="Grupo_83903" data-name="Grupo 83903" transform="translate(777.039 3174.861)">
            <path id="Trazado_117753" data-name="Trazado 117753" d="M736.846,326.363l-.089,10.434,20.823-1.984v-8.45Z" transform="translate(-736.757 -326.363)" fill="#fca397"/>
          </g>
          <g id="Grupo_83904" data-name="Grupo 83904" transform="translate(744.845 3173.5)">
            <path id="Trazado_117754" data-name="Trazado 117754" d="M694.672,324.58l-.089,10.434,20.823-1.984v-8.45Z" transform="translate(-694.583 -324.58)" fill="#f49282"/>
          </g>
          <g id="Grupo_83905" data-name="Grupo 83905" transform="translate(714.854 3180.542)">
            <path id="Trazado_117755" data-name="Trazado 117755" d="M682.716,335.826s-25.925,17.047-27.172,20.629,2.493,5,4.237,5.164,45.176-2.915,45.176-2.915l3.683-13.223s-.614-11.2-1.054-11.535-23.873.024-23.873.024Z" transform="translate(-655.295 -333.804)" fill="#ffab50"/>
          </g>
          <g id="Grupo_83906" data-name="Grupo 83906" transform="translate(756.266 3180.684)">
            <path id="Trazado_117756" data-name="Trazado 117756" d="M729.2,333.99s-18.861,17.087-19.524,20.591,1.331,5.25,2.578,5.749,25.859.249,32.623,0,7.957-4.776,8.606-8.744-1.844-17.572-1.844-17.572Z" transform="translate(-709.545 -333.99)" fill="#ffbf69"/>
          </g>
          <g id="Grupo_83907" data-name="Grupo 83907" transform="translate(774.001 3185.015)">
            <path id="Trazado_117757" data-name="Trazado 117757" d="M745,346.808a.262.262,0,0,1-.059-.006L733,344.249a.281.281,0,0,1-.006-.547l12.749-3.028-9.939-.449a.28.28,0,0,1-.267-.292.268.268,0,0,1,.292-.268l11.939.539a.281.281,0,0,1,.052.553l-13.487,3.2,10.729,2.292a.281.281,0,0,1-.059.555Z" transform="translate(-732.778 -339.664)" fill="#fff"/>
          </g>
          <g id="Grupo_83908" data-name="Grupo 83908" transform="translate(729.812 3184.353)">
            <path id="Trazado_117758" data-name="Trazado 117758" d="M687.851,346.6H675.17a.281.281,0,0,1,0-.561h11.5l-4.76-2.391a.28.28,0,0,1,.115-.531l9.039-.329-6.942-3.462a.281.281,0,1,1,.251-.5l7.926,3.953a.28.28,0,0,1-.115.531l-9.045.33,4.84,2.43a.28.28,0,0,1-.126.531Z" transform="translate(-674.89 -338.797)" fill="#fff"/>
          </g>
          <g id="Grupo_83909" data-name="Grupo 83909" transform="translate(777.577 3196.056)">
            <path id="Trazado_117759" data-name="Trazado 117759" d="M659.166,361.1a.229.229,0,0,1-.013-.458l31.477-1.794a.242.242,0,0,1,.242.216.23.23,0,0,1-.217.242L659.178,361.1Z" transform="translate(-658.935 -358.848)" fill="#fff"/>
          </g>
          <g id="Grupo_83910" data-name="Grupo 83910" transform="translate(758.317 3196.19)">
            <path id="Trazado_117760" data-name="Trazado 117760" d="M738.611,357.819c-10.044,0-23.806-.34-26.106-.4a.281.281,0,0,1,.008-.561c14.053.359,35.374.664,36.549.033a26.028,26.028,0,0,0,3.589-2.522.28.28,0,1,1,.362.427,25.946,25.946,0,0,1-3.686,2.59C748.721,357.712,744.252,357.819,738.611,357.819Z" transform="translate(-712.232 -354.304)" fill="#fff"/>
          </g>
          <g id="Grupo_83911" data-name="Grupo 83911" transform="translate(735.52 3097.92)">
            <path id="Trazado_117761" data-name="Trazado 117761" d="M709.965,225.571s-22.933,12.8-26.423,19.526,1.914,61.571,1.914,61.571l30.178-2.344L716.7,275.01l17.615-46.365Z" transform="translate(-682.368 -225.571)" fill="#e1e8ff"/>
          </g>
          <g id="Grupo_83912" data-name="Grupo 83912" transform="translate(767.411 3091.313)">
            <path id="Trazado_117762" data-name="Trazado 117762" d="M772.7,216.917s2.866,14.541,2.866,19.4-14.574,17.7-14.574,17.7l-.479,48.36H726.705s-2.627-50.1-2.56-55.215,21.38-25.694,21.38-25.694Z" transform="translate(-724.144 -216.917)" fill="#e1e8ff"/>
          </g>
          <g id="Grupo_83913" data-name="Grupo 83913" transform="translate(732.705 3037.011)">
            <path id="Trazado_117763" data-name="Trazado 117763" d="M678.681,157.542a14.668,14.668,0,0,0,5.9,6.605c4.477,2.76,7.185,2.992,7.185,2.992l4.238-3.989-8.663-17.368Z" transform="translate(-678.681 -145.782)" fill="#fca397"/>
          </g>
          <g id="Grupo_83914" data-name="Grupo 83914" transform="translate(715.082 3022.521)">
            <path id="Trazado_117764" data-name="Trazado 117764" d="M668.13,126.8,655.6,152.333l16.772,7.1,11.965-25.68Z" transform="translate(-655.595 -126.8)" fill="#6262c4"/>
          </g>
          <g id="Grupo_83915" data-name="Grupo 83915" transform="translate(718.336 3023.901)">
            <path id="Trazado_117765" data-name="Trazado 117765" d="M672.393,128.609l-12.535,25.533,16.772,7.1,11.965-25.68Z" transform="translate(-659.858 -128.609)" fill="#7772d3"/>
          </g>
          <g id="Grupo_83916" data-name="Grupo 83916" transform="translate(738.607 3034.841)">
            <path id="Trazado_117766" data-name="Trazado 117766" d="M697.835,157.991s-2.119-8.226-2.992-9.97-6.605-5.892-8.1-4.941,2.576,5.239,2.576,5.239-.457,6.805.914,9.672a8.372,8.372,0,0,0,4.736,3.864Z" transform="translate(-686.412 -142.939)" fill="#fca397"/>
          </g>
          <g id="Grupo_83917" data-name="Grupo 83917" transform="translate(741.513 3037.011)">
            <path id="Trazado_117767" data-name="Trazado 117767" d="M700.489,153.656,690.219,169.3s4.6,11.264,16.618,15.954c6.814,2.659,15.455,1.163,15.455,1.163V202.7a93.955,93.955,0,0,0,25.364,2.16c14.52-.665,18.01-3.822,18.01-3.822s2.659-50.354,0-52.347-16.025-4.321-25.878-1.828-11.255,6.149-11.255,6.149-7.4,5.484-14.716,6.315S700.489,153.656,700.489,153.656Z" transform="translate(-690.219 -145.782)" fill="#3c3fa7"/>
          </g>
          <g id="Grupo_83918" data-name="Grupo 83918" transform="translate(789.302 3007.823)">
            <path id="Trazado_117768" data-name="Trazado 117768" d="M756.609,120.035s-5.544-6.856-3.218-9.577,5.923,0,5.923,0a3.174,3.174,0,0,1,3.785-2.887c3.587.333,5.749,4.154,5.749,4.154s3.156-3.157,5.316,0,.665,8.309.665,8.309,2.493-.369,1.828,2.558-4.586,5.943-4.586,5.943Z" transform="translate(-752.821 -107.548)"/>
          </g>
          <g id="Grupo_83920" data-name="Grupo 83920" transform="translate(794.885 3031.106)">
            <g id="Grupo_83919" data-name="Grupo 83919">
              <path id="Trazado_117769" data-name="Trazado 117769" d="M770.474,138.048l.1,7.732s-1.365,2.241-5.883,2.67c-3.366.319-4.56-.427-4.56-.427l.417-3.922.411-3.825,8.144-1.907Z" transform="translate(-760.135 -138.048)" fill="#fca397"/>
            </g>
          </g>
          <g id="Grupo_83922" data-name="Grupo 83922" transform="translate(795.303 3031.428)">
            <g id="Grupo_83921" data-name="Grupo 83921">
              <path id="Trazado_117770" data-name="Trazado 117770" d="M769.237,138.469a2.527,2.527,0,0,1-.214.749c-1.678,3.886-6.4,4.783-8.341,4.983l.411-3.825Z" transform="translate(-760.682 -138.469)"/>
            </g>
          </g>
          <g id="Grupo_83924" data-name="Grupo 83924" transform="translate(791.083 3012.803)">
            <g id="Grupo_83923" data-name="Grupo 83923">
              <path id="Trazado_117771" data-name="Trazado 117771" d="M757.823,117s-3.928,9.75-2.255,15.115,6.576,4.37,9.494,3.239a9.758,9.758,0,0,0,4.234-2.979,4.159,4.159,0,0,0,4.55-1.76c1.768-2.615.548-5.523-1.044-6.151a4.327,4.327,0,0,0-3.429.561l1.385-2.84S764.178,108.145,757.823,117Z" transform="translate(-755.154 -114.07)" fill="#fca397"/>
            </g>
          </g>
          <g id="Grupo_83925" data-name="Grupo 83925" transform="translate(805.359 3024.788)">
            <path id="Trazado_117772" data-name="Trazado 117772" d="M774.136,132.884a.281.281,0,0,1-.167-.506l3.45-2.553a.281.281,0,0,1,.334.451l-3.451,2.553A.282.282,0,0,1,774.136,132.884Z" transform="translate(-773.855 -129.77)"/>
          </g>
          <g id="Grupo_83926" data-name="Grupo 83926" transform="translate(806.231 3026.694)">
            <path id="Trazado_117773" data-name="Trazado 117773" d="M777.581,133.389a.282.282,0,0,1-.066-.008l-2.3-.56a.281.281,0,0,1,.133-.545l2.3.56a.28.28,0,0,1-.066.553Z" transform="translate(-774.998 -132.268)"/>
          </g>
          <g id="Grupo_83927" data-name="Grupo 83927" transform="translate(797.498 3018.029)">
            <path id="Trazado_117774" data-name="Trazado 117774" d="M766.139,122.994a.279.279,0,0,1-.263-.186,1.805,1.805,0,0,0-1.989-1.309.284.284,0,0,1-.324-.227.278.278,0,0,1,.224-.324,2.361,2.361,0,0,1,2.616,1.672.28.28,0,0,1-.17.359A.287.287,0,0,1,766.139,122.994Z" transform="translate(-763.558 -120.918)"/>
          </g>
          <g id="Grupo_83928" data-name="Grupo 83928" transform="translate(792.495 3018.216)">
            <path id="Trazado_117775" data-name="Trazado 117775" d="M757.284,122.38a.281.281,0,0,1-.181-.495c.295-.251,1.2-1.015,1.56-.606a.281.281,0,0,1-.025.4.275.275,0,0,1-.286.051,2.6,2.6,0,0,0-.886.587A.275.275,0,0,1,757.284,122.38Z" transform="translate(-757.004 -121.161)"/>
          </g>
          <g id="Grupo_83929" data-name="Grupo 83929" transform="translate(793.607 3022.314)">
            <path id="Trazado_117776" data-name="Trazado 117776" d="M759.029,130.989a.281.281,0,0,1-.223-.11c-1.217-1.6,1.155-4.152,1.257-4.26a.28.28,0,0,1,.408.384c-.6.64-1.991,2.524-1.219,3.536a.28.28,0,0,1-.223.45Z" transform="translate(-758.46 -126.53)"/>
          </g>
          <g id="Grupo_83930" data-name="Grupo 83930" transform="translate(792.579 3020.808)">
            <path id="Trazado_117777" data-name="Trazado 117777" d="M757.394,126.9a.242.242,0,0,1-.069-.009.28.28,0,0,1-.2-.341l.46-1.78a.28.28,0,1,1,.543.14l-.46,1.78A.28.28,0,0,1,757.394,126.9Z" transform="translate(-757.114 -124.556)"/>
          </g>
          <g id="Grupo_83931" data-name="Grupo 83931" transform="translate(797.474 3020.837)">
            <path id="Trazado_117778" data-name="Trazado 117778" d="M763.807,126.937a.272.272,0,0,1-.07-.009.28.28,0,0,1-.2-.341l.46-1.78a.278.278,0,0,1,.341-.2.282.282,0,0,1,.2.342l-.46,1.779A.28.28,0,0,1,763.807,126.937Z" transform="translate(-763.526 -124.594)"/>
          </g>
          <g id="Grupo_83932" data-name="Grupo 83932" transform="translate(792.209 3010.734)">
            <path id="Trazado_117779" data-name="Trazado 117779" d="M757.388,118.556a3.265,3.265,0,0,1,2.747-1.605,4.171,4.171,0,0,1,3.073,1.3s-.8,3.26,1.844,4.95a6.412,6.412,0,0,0,4.67,1.18l1.893-.7,1.358-2.8-5.583-5.857-7.174-3.663-3.586,3.344Z" transform="translate(-756.63 -111.361)"/>
          </g>
          <g id="Grupo_83933" data-name="Grupo 83933" transform="translate(795.854 3027.795)">
            <path id="Trazado_117780" data-name="Trazado 117780" d="M761.779,135.743c-.073,0-.115,0-.118,0a.281.281,0,0,1-.256-.3.274.274,0,0,1,.3-.258,2.332,2.332,0,0,0,2.248-1.305.281.281,0,0,1,.511.231A2.9,2.9,0,0,1,761.779,135.743Z" transform="translate(-761.405 -133.71)"/>
          </g>
          <g id="Grupo_83934" data-name="Grupo 83934" transform="translate(777.902 3082.63)">
            <path id="Trazado_117781" data-name="Trazado 117781" d="M757.74,205.542s-9.046,1.33-10.873,1.995-3.157,4.819-3.157,4.819-5.65,4.154-5.817,4.819,3.656,4.986,3.656,4.986l11.8.748s8.2-.915,10.5-6.9S757.74,205.542,757.74,205.542Z" transform="translate(-737.887 -205.542)" fill="#fca397"/>
          </g>
          <g id="Grupo_83935" data-name="Grupo 83935" transform="translate(803.777 3037.324)">
            <path id="Trazado_117782" data-name="Trazado 117782" d="M776.82,146.457a57.877,57.877,0,0,0-4.956,20.779c-.711,12.339,3.506,19.194,3.506,19.194l4.611-5.889a53.917,53.917,0,0,1-.208-17.558c1.5-9.473,4.2-14.193,4.2-14.193S780.305,145.207,776.82,146.457Z" transform="translate(-771.783 -146.192)" fill="#ffbf69"/>
          </g>
          <g id="Grupo_83936" data-name="Grupo 83936" transform="translate(780.274 3090.433)">
            <path id="Trazado_117783" data-name="Trazado 117783" d="M741.275,221.476a.28.28,0,0,1-.225-.448,16.361,16.361,0,0,1,7.046-5.25.28.28,0,1,1,.174.532,16.082,16.082,0,0,0-6.77,5.054A.281.281,0,0,1,741.275,221.476Z" transform="translate(-740.994 -215.763)"/>
          </g>
          <g id="Grupo_83937" data-name="Grupo 83937" transform="translate(783.728 3093.008)">
            <path id="Trazado_117784" data-name="Trazado 117784" d="M745.8,224.85a.28.28,0,0,1-.225-.448,16.351,16.351,0,0,1,7.046-5.25.28.28,0,0,1,.175.532,16.041,16.041,0,0,0-6.77,5.054A.283.283,0,0,1,745.8,224.85Z" transform="translate(-745.519 -219.137)"/>
          </g>
          <g id="Grupo_83938" data-name="Grupo 83938" transform="translate(771.891 3059.209)">
            <path id="Trazado_117785" data-name="Trazado 117785" d="M730.337,196.486a.281.281,0,0,1-.28-.264c-.5-8.552,3.339-21.038,3.378-21.163a.28.28,0,1,1,.535.166c-.038.124-3.843,12.515-3.352,20.964a.282.282,0,0,1-.264.3Z" transform="translate(-730.013 -174.861)" fill="#ffbf69"/>
          </g>
          <g id="Grupo_83939" data-name="Grupo 83939" transform="translate(794.65 3039.922)">
            <path id="Trazado_117786" data-name="Trazado 117786" d="M782.137,149.595s16.951,11.632,15.954,29.414-27.585,28.584-27.585,28.584l-10.679-17.026,16.142-12.649Z" transform="translate(-759.827 -149.595)" fill="#3c3fa7"/>
          </g>
          <g id="Grupo_83940" data-name="Grupo 83940" transform="translate(793.663 3038.559)">
            <path id="Trazado_117787" data-name="Trazado 117787" d="M762.815,151.134a13.645,13.645,0,0,1-4.093-.622.28.28,0,0,1,.183-.53,13.3,13.3,0,0,0,5.375.5,19.981,19.981,0,0,0,6.517-2.629.28.28,0,0,1,.3.474,20.16,20.16,0,0,1-6.744,2.712A12.246,12.246,0,0,1,762.815,151.134Z" transform="translate(-758.534 -147.809)" fill="#ffbf69"/>
          </g>
          <g id="Grupo_83941" data-name="Grupo 83941" transform="translate(740.959 3039.939)">
            <path id="Trazado_117788" data-name="Trazado 117788" d="M692.853,161.514a.281.281,0,0,1-.181-.066c-4.416-3.72-2.964-11.283-2.9-11.6a.278.278,0,0,1,.331-.22.281.281,0,0,1,.22.33c-.015.076-1.45,7.559,2.711,11.065a.28.28,0,0,1-.18.495Z" transform="translate(-689.493 -149.618)"/>
          </g>
          <g id="Grupo_83942" data-name="Grupo 83942" transform="translate(733.312 3073.573)">
            <path id="Trazado_117789" data-name="Trazado 117789" d="M727.727,218.024H687.718l-8.174-22.81a1.148,1.148,0,0,1,1.081-1.536h37.569a1.149,1.149,0,0,1,1.081.761Z" transform="translate(-679.476 -193.678)" fill="#46467f"/>
          </g>
          <g id="Grupo_83943" data-name="Grupo 83943" transform="translate(740.35 3097.92)">
            <path id="Trazado_117790" data-name="Trazado 117790" d="M740.918,229.725H690.357a1.662,1.662,0,0,1-1.662-1.662v-.831a1.661,1.661,0,0,1,1.662-1.662h50.561a2.077,2.077,0,0,1,0,4.154Z" transform="translate(-688.695 -225.571)" fill="#7772d3"/>
          </g>
          <g id="Grupo_83944" data-name="Grupo 83944" transform="translate(783.728 3085.466)">
            <path id="Trazado_117791" data-name="Trazado 117791" d="M745.8,213.058a.28.28,0,0,1-.146-.519l5.294-3.241a.281.281,0,0,1,.292.479l-5.294,3.241A.281.281,0,0,1,745.8,213.058Z" transform="translate(-745.519 -209.257)"/>
          </g>
          <g id="Grupo_83945" data-name="Grupo 83945" transform="translate(765.024 3050.198)">
            <path id="Trazado_117792" data-name="Trazado 117792" d="M722.706,170.89a1.241,1.241,0,0,1-.137-.008,1.3,1.3,0,0,1-.925-.557c-1.232-1.668-.273-6.82-.231-7.039a.282.282,0,0,1,.247-.227.278.278,0,0,1,.288.171c.256.608,2.468,5.983,1.473,7.315A.852.852,0,0,1,722.706,170.89Zm-.9-6.506c-.245,1.775-.448,4.608.291,5.608a.75.75,0,0,0,.537.333.329.329,0,0,0,.338-.115C723.5,169.506,722.639,166.574,721.8,164.384Z" transform="translate(-721.018 -163.058)" fill="#ffbf69"/>
          </g>
          <g id="Grupo_83946" data-name="Grupo 83946" transform="translate(795.854 3067.963)">
            <path id="Trazado_117793" data-name="Trazado 117793" d="M761.684,199.2a.28.28,0,0,1-.194-.482c.1-.095,9.816-9.47,14.709-12.35a.28.28,0,0,1,.285.483c-4.837,2.847-14.508,12.176-14.606,12.269A.279.279,0,0,1,761.684,199.2Z" transform="translate(-761.404 -186.329)" fill="#ffbf69"/>
          </g>
          <g id="Grupo_83947" data-name="Grupo 83947" transform="translate(809.904 3062.366)">
            <path id="Trazado_117794" data-name="Trazado 117794" d="M780.09,186.069a.282.282,0,0,1-.182-.067.279.279,0,0,1-.075-.324c.105-.245,2.617-6.011,4.783-6.622a1.285,1.285,0,0,1,1.14.184,1.084,1.084,0,0,1,.494.943c-.049,2.018-5.4,5.458-6.009,5.844A.28.28,0,0,1,780.09,186.069Zm4.921-6.511a.88.88,0,0,0-.243.037c-1.347.38-3.1,3.507-4.016,5.422,1.865-1.271,4.905-3.6,4.936-4.849a.528.528,0,0,0-.256-.47A.714.714,0,0,0,785.011,179.558Z" transform="translate(-779.809 -178.997)" fill="#ffbf69"/>
          </g>
          <g id="Grupo_83948" data-name="Grupo 83948" transform="translate(737.659 3077.281)">
            <path id="Trazado_117795" data-name="Trazado 117795" d="M690.3,212.848a.281.281,0,0,1-.265-.187l-4.844-13.751a.281.281,0,0,1,.53-.186l4.844,13.751a.281.281,0,0,1-.171.358A.3.3,0,0,1,690.3,212.848Z" transform="translate(-685.17 -198.536)" fill="#7772d3"/>
          </g>
          <g id="Grupo_83949" data-name="Grupo 83949" transform="translate(774.186 3037.72)">
            <path id="Trazado_117796" data-name="Trazado 117796" d="M751.609,146.711s-7.531,1.624-8.707,2.753l-1.176,1.129a37.8,37.8,0,0,0-6.4,12.154,53.614,53.614,0,0,0-2.309,10.951S749.081,147.271,751.609,146.711Z" transform="translate(-733.019 -146.711)" fill="#ffbf69"/>
          </g>
          <g id="Grupo_83950" data-name="Grupo 83950" transform="translate(766.018 3100.957)">
            <path id="Trazado_117797" data-name="Trazado 117797" d="M725.265,285.929a.285.285,0,0,1-.285-.26c-.127-1.374-3.1-33.7-2.6-37.672.5-4.033,13.01-17.772,13.542-18.354a.286.286,0,1,1,.423.386c-.129.141-12.915,14.186-13.4,18.04-.49,3.912,2.576,37.211,2.606,37.547a.285.285,0,0,1-.259.311Z" transform="translate(-722.319 -229.55)" fill="#2f2f68"/>
          </g>
          <g id="Grupo_83951" data-name="Grupo 83951" transform="translate(795.096 3127.511)">
            <path id="Trazado_117798" data-name="Trazado 117798" d="M762.175,267.2a2.266,2.266,0,0,1-1.491-.373.885.885,0,0,1-.232-.93c.688-2.7,8.313-1.13,9.18-.942a.286.286,0,0,1,.032.55C768.673,265.847,764.558,267.2,762.175,267.2Zm2.179-2.284c-1.731,0-3.135.292-3.347,1.122-.063.249.027.332.066.367.731.676,4.543-.219,7.361-1.1A25.082,25.082,0,0,0,764.353,264.919Z" transform="translate(-760.412 -264.335)" fill="#2f2f68"/>
          </g>
        </g>
        <path id="Trazado_131795" data-name="Trazado 131795" d="M-93.176-14.215h-5.062L-100.7,0h-3.434l2.461-14.215h-5l.5-2.848h13.5Zm4.406,2.941a4.419,4.419,0,0,1,3.434-1.641,3.214,3.214,0,0,1,2.771,1.354A5.321,5.321,0,0,1-81.9-7.992L-83.238,0h-3.3L-85.2-8.037a3.9,3.9,0,0,0,.023-.845,1.328,1.328,0,0,0-1.477-1.3,2.854,2.854,0,0,0-2.344,1.15L-90.586,0h-3.3l3.117-18h3.316ZM-74.637.234A5.516,5.516,0,0,1-77.584-.58a4.938,4.938,0,0,1-1.916-2.2,6.14,6.14,0,0,1-.492-3.088l.035-.469a8.2,8.2,0,0,1,1.078-3.4,6.512,6.512,0,0,1,2.32-2.385,5.741,5.741,0,0,1,3.141-.791,4.386,4.386,0,0,1,3.709,1.8,6.175,6.175,0,0,1,.955,4.442l-.187,1.444h-7.77a2.721,2.721,0,0,0,.6,1.969,2.281,2.281,0,0,0,1.758.762A4.054,4.054,0,0,0-71.191-3.9l1.512,1.875A4.7,4.7,0,0,1-71.742-.346,6.745,6.745,0,0,1-74.637.234Zm1.055-10.418a2.348,2.348,0,0,0-1.623.574,5.045,5.045,0,0,0-1.271,2.074h4.547l.07-.3a3.106,3.106,0,0,0,.012-.891,1.7,1.7,0,0,0-.574-1.061A1.8,1.8,0,0,0-73.582-10.184Zm12.973,6.609q.188-.937-1.3-1.359l-1.066-.27q-3.785-1.043-3.68-3.68a3.641,3.641,0,0,1,1.588-2.924,5.913,5.913,0,0,1,3.686-1.107,5.3,5.3,0,0,1,3.469,1.137,3.745,3.745,0,0,1,1.348,2.965l-3.281-.012a1.445,1.445,0,0,0-1.617-1.652,2.327,2.327,0,0,0-1.342.387,1.592,1.592,0,0,0-.7,1.043q-.176.938,1.418,1.324l.469.105a9.428,9.428,0,0,1,2.473.885A3.732,3.732,0,0,1-57.826-5.5a3.06,3.06,0,0,1,.428,1.77,3.377,3.377,0,0,1-.779,2.109A4.77,4.77,0,0,1-60.217-.223a7.1,7.1,0,0,1-2.725.457A5.353,5.353,0,0,1-66.457-.979a3.91,3.91,0,0,1-1.43-3.076l3.117.023a1.714,1.714,0,0,0,1.945,1.84,2.768,2.768,0,0,0,1.506-.375A1.481,1.481,0,0,0-60.609-3.574ZM-49.852.234A5.516,5.516,0,0,1-52.8-.58a4.938,4.938,0,0,1-1.916-2.2,6.14,6.14,0,0,1-.492-3.088l.035-.469a8.2,8.2,0,0,1,1.078-3.4,6.512,6.512,0,0,1,2.32-2.385,5.741,5.741,0,0,1,3.141-.791,4.386,4.386,0,0,1,3.709,1.8,6.175,6.175,0,0,1,.955,4.442l-.187,1.444h-7.77a2.721,2.721,0,0,0,.6,1.969A2.281,2.281,0,0,0-49.57-2.5,4.054,4.054,0,0,0-46.406-3.9l1.512,1.875A4.7,4.7,0,0,1-46.957-.346,6.745,6.745,0,0,1-49.852.234ZM-48.8-10.184a2.348,2.348,0,0,0-1.623.574,5.045,5.045,0,0,0-1.271,2.074h4.547l.07-.3a3.106,3.106,0,0,0,.012-.891,1.7,1.7,0,0,0-.574-1.061A1.8,1.8,0,0,0-48.8-10.184ZM-29.918,0a3.421,3.421,0,0,1-.129-1.148A4.294,4.294,0,0,1-33.281.234,3.891,3.891,0,0,1-36.041-.85a3.28,3.28,0,0,1-1.025-2.619,3.791,3.791,0,0,1,1.74-3.182,7.9,7.9,0,0,1,4.447-1.107l1.547.023.164-.762a2.646,2.646,0,0,0,.035-.738,1.269,1.269,0,0,0-.416-.861,1.433,1.433,0,0,0-.943-.322,2.018,2.018,0,0,0-1.312.381A1.846,1.846,0,0,0-32.5-8.871l-3.316.012a3.686,3.686,0,0,1,1.67-2.947,6.467,6.467,0,0,1,3.92-1.107,4.675,4.675,0,0,1,3.375,1.283,3.754,3.754,0,0,1,1.02,3.182l-.973,6.07-.059.75a3.618,3.618,0,0,0,.2,1.406L-26.672,0Zm-2.543-2.332a3.026,3.026,0,0,0,2.5-1.242l.41-2.191L-30.7-5.777A3.208,3.208,0,0,0-33.34-4.664a1.938,1.938,0,0,0-.363.949,1.125,1.125,0,0,0,.264,1A1.336,1.336,0,0,0-32.461-2.332ZM-15.973-9.5a6.823,6.823,0,0,0-1.113-.117,3.2,3.2,0,0,0-2.8,1.324L-21.352,0h-3.3l2.2-12.68,3.105-.012-.3,1.547A3.487,3.487,0,0,1-16.7-12.937a4.82,4.82,0,0,1,1.148.164ZM-10.02.234A5.516,5.516,0,0,1-12.967-.58a4.938,4.938,0,0,1-1.916-2.2,6.14,6.14,0,0,1-.492-3.088l.035-.469a8.2,8.2,0,0,1,1.078-3.4,6.512,6.512,0,0,1,2.32-2.385A5.741,5.741,0,0,1-8.8-12.914a4.386,4.386,0,0,1,3.709,1.8A6.175,6.175,0,0,1-4.137-6.67l-.187,1.444h-7.77a2.721,2.721,0,0,0,.6,1.969A2.281,2.281,0,0,0-9.738-2.5,4.054,4.054,0,0,0-6.574-3.9l1.512,1.875A4.7,4.7,0,0,1-7.125-.346,6.745,6.745,0,0,1-10.02.234Zm1.055-10.418a2.348,2.348,0,0,0-1.623.574,5.045,5.045,0,0,0-1.271,2.074h4.547l.07-.3A3.106,3.106,0,0,0-7.23-8.73,1.7,1.7,0,0,0-7.8-9.791,1.8,1.8,0,0,0-8.965-10.184ZM9.281-15.8,8.73-12.68H10.84L10.406-10.2H8.3L7.219-3.844a1.615,1.615,0,0,0,.094.914q.164.316.8.34.188.012,1.008-.059L8.883-.059a5.558,5.558,0,0,1-1.9.27A2.978,2.978,0,0,1,4.559-.809,3.684,3.684,0,0,1,3.9-3.5L4.992-10.2H3.2l.434-2.484H5.426L5.965-15.8ZM15.6-11.273a4.419,4.419,0,0,1,3.434-1.641A3.214,3.214,0,0,1,21.8-11.561a5.321,5.321,0,0,1,.662,3.568L21.129,0h-3.3l1.348-8.037a3.9,3.9,0,0,0,.023-.845,1.328,1.328,0,0,0-1.477-1.3,2.854,2.854,0,0,0-2.344,1.15L13.781,0h-3.3l3.117-18H16.91ZM29.73.234A5.516,5.516,0,0,1,26.783-.58a4.938,4.938,0,0,1-1.916-2.2,6.14,6.14,0,0,1-.492-3.088l.035-.469a8.2,8.2,0,0,1,1.078-3.4,6.512,6.512,0,0,1,2.32-2.385,5.741,5.741,0,0,1,3.141-.791,4.386,4.386,0,0,1,3.709,1.8,6.175,6.175,0,0,1,.955,4.442l-.187,1.444h-7.77a2.721,2.721,0,0,0,.6,1.969,2.281,2.281,0,0,0,1.758.762A4.054,4.054,0,0,0,33.176-3.9l1.512,1.875A4.7,4.7,0,0,1,32.625-.346,6.745,6.745,0,0,1,29.73.234Zm1.055-10.418a2.348,2.348,0,0,0-1.623.574,5.045,5.045,0,0,0-1.271,2.074h4.547l.07-.3a3.106,3.106,0,0,0,.012-.891,1.7,1.7,0,0,0-.574-1.061A1.8,1.8,0,0,0,30.785-10.184ZM49.031-15.8,48.48-12.68H50.59L50.156-10.2H48.047L46.969-3.844a1.615,1.615,0,0,0,.094.914q.164.316.8.34.188.012,1.008-.059l-.234,2.59a5.558,5.558,0,0,1-1.9.27,2.978,2.978,0,0,1-2.426-1.02,3.684,3.684,0,0,1-.656-2.7l1.09-6.691H42.949l.434-2.484h1.793l.539-3.117Zm6.316,4.523a4.419,4.419,0,0,1,3.434-1.641,3.214,3.214,0,0,1,2.771,1.354,5.321,5.321,0,0,1,.662,3.568L60.879,0h-3.3l1.348-8.037a3.9,3.9,0,0,0,.023-.845,1.328,1.328,0,0,0-1.477-1.3,2.854,2.854,0,0,0-2.344,1.15L53.531,0h-3.3l3.117-18H56.66ZM66.949,0H63.621l2.2-12.68h3.328Zm-.738-15.9a1.651,1.651,0,0,1,.516-1.3,1.814,1.814,0,0,1,1.3-.516,1.823,1.823,0,0,1,1.3.457A1.644,1.644,0,0,1,69.9-16.02a1.7,1.7,0,0,1-.486,1.266,1.823,1.823,0,0,1-1.33.563,1.853,1.853,0,0,1-1.295-.445A1.636,1.636,0,0,1,66.211-15.9Zm8.766,3.211-.281,1.5a4.562,4.562,0,0,1,3.691-1.723A3.042,3.042,0,0,1,81.035-11.6a5.289,5.289,0,0,1,.621,3.539L80.32,0h-3.3l1.359-8.1A3.792,3.792,0,0,0,78.4-8.93a1.342,1.342,0,0,0-1.5-1.23,2.844,2.844,0,0,0-2.332,1.207L72.984,0h-3.3l2.2-12.68Zm8.566,6.34a8.773,8.773,0,0,1,1.916-4.775,4.862,4.862,0,0,1,3.943-1.8,3.555,3.555,0,0,1,3.023,1.465l.434-1.23,3.035.012L93.82-.434a5.975,5.975,0,0,1-2.156,4.008A6.707,6.707,0,0,1,87.164,5a6.252,6.252,0,0,1-2.508-.568,5.363,5.363,0,0,1-1.969-1.494L84.328.926a3.523,3.523,0,0,0,2.766,1.441,3.249,3.249,0,0,0,2.2-.674A3.606,3.606,0,0,0,90.539-.34l.188-.762A4.123,4.123,0,0,1,87.621.234,3.642,3.642,0,0,1,84.68-1.143a5.92,5.92,0,0,1-1.2-3.521A11.835,11.835,0,0,1,83.543-6.352Zm3.246,1.391a3.03,3.03,0,0,0,.463,1.767,1.62,1.62,0,0,0,1.342.7,2.959,2.959,0,0,0,2.391-1.15l.984-5.375a1.944,1.944,0,0,0-1.863-1.15,2.592,2.592,0,0,0-2.145,1.021,5.341,5.341,0,0,0-1.1,2.805A12.321,12.321,0,0,0,86.789-4.961Zm16.875,1.387q.188-.937-1.3-1.359L101.3-5.2q-3.785-1.043-3.68-3.68a3.641,3.641,0,0,1,1.588-2.924,5.913,5.913,0,0,1,3.686-1.107,5.3,5.3,0,0,1,3.469,1.137,3.745,3.745,0,0,1,1.348,2.965l-3.281-.012a1.445,1.445,0,0,0-1.617-1.652,2.327,2.327,0,0,0-1.342.387,1.592,1.592,0,0,0-.7,1.043q-.176.938,1.418,1.324l.469.105a9.428,9.428,0,0,1,2.473.885A3.732,3.732,0,0,1,106.447-5.5a3.06,3.06,0,0,1,.428,1.77,3.377,3.377,0,0,1-.779,2.109,4.77,4.77,0,0,1-2.039,1.395,7.1,7.1,0,0,1-2.725.457A5.353,5.353,0,0,1,97.816-.979a3.91,3.91,0,0,1-1.43-3.076l3.117.023a1.714,1.714,0,0,0,1.945,1.84,2.768,2.768,0,0,0,1.506-.375A1.481,1.481,0,0,0,103.664-3.574ZM-90.281,8.2l-.551,3.117h2.109l-.434,2.484h-2.109l-1.078,6.352a1.615,1.615,0,0,0,.094.914q.164.316.8.34.188.012,1.008-.059l-.234,2.59a5.558,5.558,0,0,1-1.9.27A2.978,2.978,0,0,1-95,23.191a3.684,3.684,0,0,1-.656-2.7l1.09-6.691h-1.793l.434-2.484h1.793L-93.6,8.2Zm6.316,4.523a4.419,4.419,0,0,1,3.434-1.641,3.214,3.214,0,0,1,2.771,1.354,5.321,5.321,0,0,1,.662,3.568L-78.434,24h-3.3l1.348-8.037a3.9,3.9,0,0,0,.023-.845,1.328,1.328,0,0,0-1.477-1.3,2.854,2.854,0,0,0-2.344,1.15L-85.781,24h-3.3l3.117-18h3.316ZM-68.52,24a3.421,3.421,0,0,1-.129-1.148,4.294,4.294,0,0,1-3.234,1.383,3.891,3.891,0,0,1-2.76-1.084,3.28,3.28,0,0,1-1.025-2.619,3.791,3.791,0,0,1,1.74-3.182,7.9,7.9,0,0,1,4.447-1.107l1.547.023.164-.762a2.646,2.646,0,0,0,.035-.738,1.269,1.269,0,0,0-.416-.861,1.433,1.433,0,0,0-.943-.322,2.018,2.018,0,0,0-1.312.381,1.846,1.846,0,0,0-.691,1.166l-3.316.012a3.686,3.686,0,0,1,1.67-2.947,6.467,6.467,0,0,1,3.92-1.107,4.675,4.675,0,0,1,3.375,1.283,3.754,3.754,0,0,1,1.02,3.182l-.973,6.07-.059.75a3.618,3.618,0,0,0,.2,1.406l-.012.223Zm-2.543-2.332a3.026,3.026,0,0,0,2.5-1.242l.41-2.191-1.148-.012a3.208,3.208,0,0,0-2.637,1.113,1.938,1.938,0,0,0-.363.949,1.125,1.125,0,0,0,.264,1A1.336,1.336,0,0,0-71.062,21.668ZM-56.555,8.2l-.551,3.117H-55L-55.43,13.8h-2.109l-1.078,6.352a1.615,1.615,0,0,0,.094.914q.164.316.8.34.188.012,1.008-.059l-.234,2.59a5.558,5.558,0,0,1-1.9.27,2.978,2.978,0,0,1-2.426-1.02,3.684,3.684,0,0,1-.656-2.7l1.09-6.691h-1.793l.434-2.484h1.793l.539-3.117ZM-42.023,24a3.421,3.421,0,0,1-.129-1.148,4.294,4.294,0,0,1-3.234,1.383,3.891,3.891,0,0,1-2.76-1.084,3.28,3.28,0,0,1-1.025-2.619,3.791,3.791,0,0,1,1.74-3.182,7.9,7.9,0,0,1,4.447-1.107l1.547.023.164-.762a2.646,2.646,0,0,0,.035-.738,1.269,1.269,0,0,0-.416-.861,1.433,1.433,0,0,0-.943-.322,2.018,2.018,0,0,0-1.312.381,1.846,1.846,0,0,0-.691,1.166l-3.316.012a3.686,3.686,0,0,1,1.67-2.947,6.467,6.467,0,0,1,3.92-1.107,4.675,4.675,0,0,1,3.375,1.283,3.754,3.754,0,0,1,1.02,3.182l-.973,6.07-.059.75a3.618,3.618,0,0,0,.2,1.406l-.012.223Zm-2.543-2.332a3.026,3.026,0,0,0,2.5-1.242l.41-2.191-1.148-.012a3.208,3.208,0,0,0-2.637,1.113,1.938,1.938,0,0,0-.363.949,1.125,1.125,0,0,0,.264,1A1.336,1.336,0,0,0-44.566,21.668ZM-28.078,14.5a6.823,6.823,0,0,0-1.113-.117,3.2,3.2,0,0,0-2.8,1.324L-33.457,24h-3.3l2.2-12.68,3.105-.012-.3,1.547A3.487,3.487,0,0,1-28.8,11.063a4.82,4.82,0,0,1,1.148.164Zm5.953,9.738a5.516,5.516,0,0,1-2.947-.814,4.938,4.938,0,0,1-1.916-2.2,6.14,6.14,0,0,1-.492-3.088l.035-.469a8.2,8.2,0,0,1,1.078-3.4,6.512,6.512,0,0,1,2.32-2.385,5.741,5.741,0,0,1,3.141-.791,4.386,4.386,0,0,1,3.709,1.8,6.175,6.175,0,0,1,.955,4.442l-.187,1.444H-24.2a2.721,2.721,0,0,0,.6,1.969,2.281,2.281,0,0,0,1.758.762A4.054,4.054,0,0,0-18.68,20.1l1.512,1.875a4.7,4.7,0,0,1-2.062,1.682A6.745,6.745,0,0,1-22.125,24.234Zm1.055-10.418a2.348,2.348,0,0,0-1.623.574,5.045,5.045,0,0,0-1.271,2.074h4.547l.07-.3a3.106,3.106,0,0,0,.012-.891,1.7,1.7,0,0,0-.574-1.061A1.8,1.8,0,0,0-21.07,13.816ZM-2.191,24a3.421,3.421,0,0,1-.129-1.148,4.294,4.294,0,0,1-3.234,1.383,3.891,3.891,0,0,1-2.76-1.084A3.28,3.28,0,0,1-9.34,20.531,3.791,3.791,0,0,1-7.6,17.35a7.9,7.9,0,0,1,4.447-1.107l1.547.023.164-.762a2.646,2.646,0,0,0,.035-.738,1.269,1.269,0,0,0-.416-.861,1.433,1.433,0,0,0-.943-.322,2.018,2.018,0,0,0-1.312.381,1.846,1.846,0,0,0-.691,1.166l-3.316.012a3.686,3.686,0,0,1,1.67-2.947A6.467,6.467,0,0,1-2.5,11.086,4.675,4.675,0,0,1,.879,12.369,3.754,3.754,0,0,1,1.9,15.551l-.973,6.07-.059.75a3.618,3.618,0,0,0,.2,1.406L1.055,24Zm-2.543-2.332a3.026,3.026,0,0,0,2.5-1.242l.41-2.191-1.148-.012a3.208,3.208,0,0,0-2.637,1.113,1.938,1.938,0,0,0-.363.949,1.125,1.125,0,0,0,.264,1A1.336,1.336,0,0,0-4.734,21.668ZM11.754,14.5a6.823,6.823,0,0,0-1.113-.117A3.2,3.2,0,0,0,7.84,15.7L6.375,24H3.07l2.2-12.68,3.105-.012-.3,1.547a3.487,3.487,0,0,1,2.953-1.793,4.82,4.82,0,0,1,1.148.164Zm6.762-3.41a5.086,5.086,0,0,1,2.889.861,4.851,4.851,0,0,1,1.781,2.309,7.142,7.142,0,0,1,.4,3.264,7.715,7.715,0,0,1-2.1,4.893,5.94,5.94,0,0,1-4.529,1.822,5.07,5.07,0,0,1-2.859-.85,4.832,4.832,0,0,1-1.781-2.291,6.985,6.985,0,0,1-.41-3.234,7.943,7.943,0,0,1,2.133-4.992A5.817,5.817,0,0,1,18.516,11.086Zm-3.34,7.972a2.926,2.926,0,0,0,.527,1.773,1.752,1.752,0,0,0,1.418.673,2.569,2.569,0,0,0,2.391-1.4,6.97,6.97,0,0,0,.809-3.8,3.182,3.182,0,0,0-.545-1.8,1.724,1.724,0,0,0-1.424-.7A2.572,2.572,0,0,0,15.99,15.2,6.9,6.9,0,0,0,15.176,19.058Zm17.215,3.629A4.378,4.378,0,0,1,28.9,24.234a3.258,3.258,0,0,1-2.766-1.312,4.8,4.8,0,0,1-.727-3.4l1.371-8.2h3.3l-1.395,8.248a3.262,3.262,0,0,0-.012.727,1.206,1.206,0,0,0,1.3,1.208,3.021,3.021,0,0,0,2.543-1.185l1.582-9H37.43L35.227,24H32.145ZM42.914,11.309l-.281,1.5a4.562,4.562,0,0,1,3.691-1.723A3.042,3.042,0,0,1,48.973,12.4a5.289,5.289,0,0,1,.621,3.539L48.258,24h-3.3l1.359-8.1a3.792,3.792,0,0,0,.023-.832,1.342,1.342,0,0,0-1.5-1.23A2.844,2.844,0,0,0,42.5,15.047L40.922,24h-3.3l2.2-12.68Zm14.227-.234A3.608,3.608,0,0,1,60,12.492L61.242,6h3.316L61.441,24H58.488l.188-1.359a4.1,4.1,0,0,1-3.3,1.605,3.65,3.65,0,0,1-2.074-.621,3.911,3.911,0,0,1-1.377-1.752,7.056,7.056,0,0,1-.533-2.549,9.605,9.605,0,0,1,.035-1.43l.07-.527a10.15,10.15,0,0,1,1.084-3.422,5.649,5.649,0,0,1,1.969-2.191A4.642,4.642,0,0,1,57.141,11.074Zm-2.4,6.82a9.49,9.49,0,0,0-.059,1.5q.117,2.063,1.664,2.1A2.828,2.828,0,0,0,58.77,20.18l.9-5.039a1.872,1.872,0,0,0-1.828-1.312,2.408,2.408,0,0,0-2.01.932A6.265,6.265,0,0,0,54.738,17.895ZM75.27,11.309,75,12.75a4.668,4.668,0,0,1,3.715-1.664,3.568,3.568,0,0,1,1.945.539A2.519,2.519,0,0,1,81.7,13.02a4.882,4.882,0,0,1,3.938-1.934,3.189,3.189,0,0,1,2.631,1.2,4.907,4.907,0,0,1,.744,3.352l-.023.293L87.645,24H84.328l1.348-8.107a5.862,5.862,0,0,0,.035-.81A1.256,1.256,0,0,0,84.3,13.816a2.79,2.79,0,0,0-2.332,1.455l-.035.27L80.461,24h-3.3L78.5,15.926a5.848,5.848,0,0,0,.035-.809,1.254,1.254,0,0,0-1.395-1.277,2.8,2.8,0,0,0-2.262,1.184L73.3,24H70l2.191-12.68ZM96.293,24.234a5.516,5.516,0,0,1-2.947-.814,4.938,4.938,0,0,1-1.916-2.2,6.14,6.14,0,0,1-.492-3.088l.035-.469a8.2,8.2,0,0,1,1.078-3.4,6.512,6.512,0,0,1,2.32-2.385,5.741,5.741,0,0,1,3.141-.791,4.386,4.386,0,0,1,3.709,1.8,6.175,6.175,0,0,1,.955,4.442l-.187,1.444h-7.77a2.721,2.721,0,0,0,.6,1.969,2.281,2.281,0,0,0,1.758.762A4.054,4.054,0,0,0,99.738,20.1l1.512,1.875a4.7,4.7,0,0,1-2.062,1.682A6.745,6.745,0,0,1,96.293,24.234Zm1.055-10.418a2.348,2.348,0,0,0-1.623.574,5.045,5.045,0,0,0-1.271,2.074H99l.07-.3a3.106,3.106,0,0,0,.012-.891,1.7,1.7,0,0,0-.574-1.061A1.8,1.8,0,0,0,97.348,13.816Z" transform="translate(806.333 745.92)" fill="#fff"/>
      </g>
    </g>
  </g>
</svg>
