<svg xmlns="http://www.w3.org/2000/svg" width="165.418" height="205.497" viewBox="0 0 165.418 205.497">
  <g id="Grupo_157040" data-name="Grupo 157040" transform="translate(-1219.816 -133.617)">
    <g id="Grupo_82652" data-name="Grupo 82652" transform="translate(877.327 294.569) rotate(-21)">
      <path id="Trazado_114932" data-name="Trazado 114932" d="M410.376,132.093a14.182,14.182,0,0,0,1.663-.015c.473-.056.8.219,1.2.327a4.529,4.529,0,0,0,1.16.021h1.332c.525.641,1.244.305,1.86.3.477,0,.732.412,1.195.384.409-.025.894-.214,1.224.246a.216.216,0,0,0,.136.067c.475.069.99-.16,1.427.173.4.3.844.125,1.266.152.383.025.582.483,1.03.355a1.015,1.015,0,0,1,.883.284c.22.158.666-.037.966.061.231.076.375.343.7.321a1.927,1.927,0,0,1,1.382.292c.3.217.849-.146,1.216.284.1.117.411.048.622.081.42.064.914-.186,1.25.179.3.328.76-.046,1.041.335.229.31.616.1.93.147s.709-.036.942.123a1.041,1.041,0,0,0,.751.208,1.262,1.262,0,0,1,.878.313c.231.153.6-.02.9.249a1.221,1.221,0,0,0,.937.091c.5-.117.718.436,1.2.372.4-.053.886-.192,1.217.264a.346.346,0,0,0,.305.042c.635-.218,1.069.541,1.695.339.26.549.963.108,1.266.565.028.043.081.1.124.1a8.833,8.833,0,0,1,1.163.017c.351.054.612.465,1.028.317.486-.173.712.45,1.2.351a6,6,0,0,1,1.162-.015c.3.393.771.283,1.16.417.144.049.254.208.4.241.462.108.967-.164,1.414.216.372.315.85.072,1.277.116.331.034.463.444.864.358a4.348,4.348,0,0,1,.987,0c.344.613,1.035.094,1.477.462.468.39,1.055.149,1.586.171.391.017.578.472,1.032.364a3.228,3.228,0,0,1,.961.062c.384.591,1.242-.1,1.589.586a8.085,8.085,0,0,1,1.494.022c.4.076.723.409,1.2.324.377-.066.79.054,1.159-.03.451-.1.648.354,1.032.353s.849-.105,1.125.074a1.288,1.288,0,0,0,.9.25,2.275,2.275,0,0,1,1.206.315c.367.158.889-.139,1.19.342.574.165.919-.185,1.256-.557.029-.032.087-.073.114-.063.047.018.111.07.115.112a3.894,3.894,0,0,1,.024.656,1.131,1.131,0,0,0,.446,1.155c.454.317.146.814.2,1.228.005.038-.164.128-.259.142-.163.024-.333,0-.5.008a.829.829,0,0,0-.875.911c-.017.326.055.67-.3.878.017.438-.476.689-.391,1.18.062.357-.33.6-.362,1.021a1.961,1.961,0,0,1-.658,1.213c-.167.151-.137.162-.01.588a.645.645,0,0,1-.043.443c-.072.141-.23.236-.341.36s-.262.189-.242.4a1.688,1.688,0,0,1-.018.821c-.108.231-.375.385-.312.707.02.1.026.287-.023.312-.885.448-.4,1.518-.972,2.1.136.423-.206.692-.338,1.026-.153.389-.466.724-.332,1.2.067.237-.157.39-.213.573-.135.444-.569.79-.449,1.315a1.513,1.513,0,0,0-.344,1.194c.009.137-.106.285-.173.423a2.475,2.475,0,0,1-.362.677c-.277.277.068.683-.23.906-.275.205-.192.479-.231.742-.054.356-.377.6-.357,1.03.015.325-.322.612-.334,1.026a1.939,1.939,0,0,1-.5.944.426.426,0,0,0,.07.689c.131.1.1.128.026.246a12.785,12.785,0,0,0-.965,1.93c-.071.183-.317.3-.269.554a1.25,1.25,0,0,1-.537,1.28.417.417,0,0,0-.124.276,2.761,2.761,0,0,1-.027.823c-.094.232-.371.376-.322.705a.539.539,0,0,1-.128.434,1.4,1.4,0,0,0-.528,1.453c.049.294-.154.485-.263.725a2.552,2.552,0,0,0-.416,1.5c.057.362-.465.582-.329,1.028.1.338-.155.584-.29.874a2.673,2.673,0,0,0-.03,1.15,2.33,2.33,0,0,1-.616,1.409.607.607,0,0,1-.4.224,6.909,6.909,0,0,1-1,.005.423.423,0,0,1-.277-.123c-.308-.357-.812-.569-.732-1.2.044-.346-.289-.6-.607-.648s-.66,0-.862-.341c-.411.086-.556-.278-.807-.467-.122-.091-.28-.131-.411-.211a5.249,5.249,0,0,1-1.33-.836,1.72,1.72,0,0,0-.953-.471c-.334-.054-.644-.054-.858-.356-.631.073-1.072-.343-1.593-.579a3.867,3.867,0,0,0-.826-.4,1.416,1.416,0,0,1-.887-.306c-.2-.193-.647.1-.886-.252-.159-.232-.513-.068-.7-.341-.085-.12-.394-.1-.6-.113-.275-.02-.6.075-.813-.043a1.871,1.871,0,0,0-.7-.34c-.087-.01-.149-.2-.238-.215a7.015,7.015,0,0,1-1.11-.145,5.089,5.089,0,0,1-.929-.568.429.429,0,0,0-.156-.025c-.361-.06-.759.15-1.083-.207-.258-.284-.628-.1-.944-.117-.334-.022-.463-.443-.864-.36-.238.049-.568.151-.768-.121-.248-.338-.687-.04-.889-.249a1.164,1.164,0,0,0-.894-.284c-.576-.041-1.067-.534-1.694-.327-.313-.416-.767-.327-1.194-.333-.277,0-.655.113-.812-.024a1.9,1.9,0,0,0-1.041-.34c-.218-.045-.378-.332-.7-.313a1.947,1.947,0,0,1-1.382-.293c-.3-.216-.86.153-1.209-.295-.069-.089-.3-.057-.463-.066-.435-.025-.871-.042-1.307-.062-.321-.47-.9-.083-1.2-.3a2.46,2.46,0,0,0-1.549-.3c-.423-.023-.9.136-1.194-.334l-1.331,0c-.3-.471-.774-.3-1.2-.334-.535-.049-1.162.223-1.588-.158-.462-.414-1.141.167-1.5-.445-.034-.058-.2-.049-.3-.059-.737-.07-1.519.2-2.2-.323-.1-.08-.326.007-.49-.014-.572-.074-1.22.253-1.7-.315-.117.1-.336.3-.339.3-.6-.648-1.38-.32-2.039-.272-.557.04-.862-.422-1.365-.386a12.247,12.247,0,0,1-1.312-.035c-.437-.519-1.028-.207-1.546-.287-.395-.061-.642.059-.59.514a10.631,10.631,0,0,1-1.43,1.388,6.039,6.039,0,0,1-1.519.733c-.3.1-.467.5-.852.361-.08.187-.116.487-.248.538a2.549,2.549,0,0,0-1.031.727c-.678.1-1.124.786-1.861.733-.338-.025-.448.277-.645.448-.324.282-.567.695-1.108.561a.319.319,0,0,0-.261.146c-.249.478-.889.414-1.155.826s-.8.3-1.057.7-.9.354-1.161.822c-.058.1-.274.146-.422.159-.275.025-.561-.031-.83.015-.53.091-.876-.313-1.315-.46a.623.623,0,0,1-.416-.645,5.357,5.357,0,0,1,.025-.993c.1-.338.378-.618.511-.951a6.511,6.511,0,0,0,.51-1.3,6.086,6.086,0,0,1,.8-1.658c.513-.952.9-1.969,1.493-2.878-.094-.41.456-.571.362-1.034a1.3,1.3,0,0,1,.317-.846,1.537,1.537,0,0,0,.336-1.037c-.01-.192.281-.272.337-.523a1.93,1.93,0,0,1,.465-.958c.36-.338-.02-.858.434-1.184.245-.175.193-.745.434-.95.406-.346.158-.859.425-1.165.253-.289.189-.74.554-.943-.085-.692.376-1.174.666-1.722.216-.41.271-.9.649-1.229-.11-.463.226-.8.331-1.192.083-.314.511-.457.375-.847.343-.205.282-.544.329-.868.027-.182.248-.335.377-.505.094-.126.286-.3.254-.38-.22-.513.439-.747.35-1.2.39-.246.291-.8.666-1.056-.085-.416.475-.589.379-1.009.513-.231.127-.81.455-1.151a2.012,2.012,0,0,0,.478-.956c.066-.323.492-.47.362-.853.336-.2.328-.525.338-.864a.625.625,0,0,1,.254-.385c.573-.447.527-1.264,1.056-1.731-.141-.586.277-.994.475-1.469a6.269,6.269,0,0,1,.612-1.236,2.4,2.4,0,0,0,.272-.9,4.459,4.459,0,0,1,.526-.946c.161-.265.146-.628.455-.81a2.064,2.064,0,0,1,.291-1.043,2.291,2.291,0,0,1,.552-.771c.212-.241.135-.641.466-.808-.136-.39.369-.513.356-.851s.342-.407.464-.641c.191-.363.365-.736.532-1.111.072-.161.145-.27.349-.259.091.005.254-.062.267-.121a.888.888,0,0,0-.033-.445c-.032-.094-.188-.147-.218-.241-.055-.174-.5-.165-.238-.463a1.859,1.859,0,0,1,.506-.379c.085-.047.218-.008.329-.008Z"/>
      <path id="Trazado_114933" data-name="Trazado 114933" d="M372.947,174.512a6.136,6.136,0,0,1,.006-.665.684.684,0,0,1,.151-.428,1.608,1.608,0,0,0,.538-1.29c.048-.449.372-.851.316-1.364-.054-.493.038-1-.026-1.494-.063-.473.229-.8.325-1.2a5.85,5.85,0,0,0,.022-1.325c0-.444.011-.888-.005-1.331-.007-.2.082-.331.254-.341a10.741,10.741,0,0,1,1.163,0c.087,0,.243.111.242.169,0,.6.616.741.831,1.159a8.9,8.9,0,0,0,.7,1.048,8.909,8.909,0,0,1,.807,1.656c.07.166.117.277.312.293s.355-.073.352-.237c-.007-.383.179-.476.508-.432.478-.647,1.355-.965,1.53-1.861.353-.352.694-.718,1.062-1.054a2.231,2.231,0,0,0,.7-1.043c.635.1.485-.576.8-.814a4.931,4.931,0,0,0,.937-.939,5.945,5.945,0,0,0,.473-.964c.392-.781.78-1.564,1.19-2.335.17-.321.236-.7.576-.933a.53.53,0,0,0,.218-.4,1.526,1.526,0,0,1,.322-.874c.133-.257,0-.6.27-.893.313-.345-.165-.993.371-1.334a2.537,2.537,0,0,1,.363-1.183c.164-.309-.157-.763.223-1.072.321-.261-.084-.786.353-1.018.045-.024.1-.078.1-.119.008-.388,0-.776.006-1.164,0-.327.447-.469.339-.863s.123-.7.305-1.035c.168-.311-.173-.79.191-1.078s-.051-.778.342-1.032a.454.454,0,0,0,.15-.266c.08-.358-.165-.762.2-1.086.29-.256.04-.639.145-.935.14-.392.465-.726.329-1.194.42-.235.195-.735.383-1a2.785,2.785,0,0,0,.3-.883c.115-.333.482-.574.622-.9a3.205,3.205,0,0,0,.1-.956c.467-.219.055-.773.362-1.006.292-.221.2-.582.441-.835.274-.283-.017-.869.447-1.135,0-.428.519-.693.355-1.2-.04-.127.235-.332.3-.523.14-.388.521-.711.341-1.19.388-.247.285-.8.666-1.055-.088-.416.474-.59.376-1.009.338-.282.4-.721.616-1.077s.359-.738.554-1.1a2.1,2.1,0,0,0,.12-.449c.039-.15.031-.371.128-.437.652-.445.842-1.247,1.4-1.761a.37.37,0,0,0,.033-.562,2.491,2.491,0,0,0-.353-.351c-.332-.252-.188-.59-.186-.9.484-.3.3-.788.3-1.2a.864.864,0,0,1,.692-.946c.243-.069.458-.29.7-.31a5,5,0,0,1,1.478.04,2.787,2.787,0,0,1,.923.569c.213.155.34.427.68.394.054-.006.166.235.2.374.042.2-.055.443.166.6.172.12.066.208.011.359-.157.434-.584.767-.5,1.289.031.2-.079.285-.239.36a14.6,14.6,0,0,0-1.723.661c-.084.053-.268.043-.283.1-.22.809-1.121,1.272-1.1,2.214,0,.229-.265.453-.3.695-.049.325-.471.465-.354.86s-.467.588-.367,1.008c-.35.208-.229.57-.315.871a1.574,1.574,0,0,1-.513.613c-.221.2,0,.278.093.351.13.106.153.2-.012.235-.333.069-.643.108-.552.585a2.344,2.344,0,0,1,0,.664c-.016.15-.041.369-.14.43-.628.384-.432,1.176-.854,1.652.117.525-.286.885-.46,1.307-.091.223-.214.325.03.482.117.076.067.126-.035.241a3.112,3.112,0,0,0-.855,1.968c-.032.258-.29.364-.308.536-.049.477-.578.806-.38,1.353a.371.371,0,0,1-.106.45c-.308.232-.31.646-.523.953-.152.222.032.62-.29.881-.147.12.433.289.077.586-.181.152-.217.467-.374.664-.1.124-.128.144.008.248a.432.432,0,0,1,.09.688,2.206,2.206,0,0,0-.521,1.767c.112.464-.4.618-.362,1.032a1.82,1.82,0,0,1-.1,1.107,1.232,1.232,0,0,0-.213.916c.042.5-.592.818-.343,1.36-.47.3-.356.773-.32,1.191a.926.926,0,0,1-.381.849c-.163.139-.341.278-.3.54a1.408,1.408,0,0,1-.332,1.193c.128.42-.25.681-.321,1.029s-.51.586-.354,1.027a.344.344,0,0,1-.11.278,12.232,12.232,0,0,0-1.544,2.691c-.053.084-.038.248-.1.282-.255.134-.705.055-.566.576-.208.182-.253.462-.379.669a8.723,8.723,0,0,1-1.023,1.082c-.21.237-.594.368-.588.749.006.453-.44.224-.563.409-.171.256-.185.6-.476.8-.223.158-.374.418-.6.573-.423.293-.392.866-.809,1.176a10.129,10.129,0,0,0-1.068,1.046c-.353.353-.72.694-1.05,1.067a.632.632,0,0,0-.073.441c.006.058.165.135.259.142.276.018.658-.108.809.031a4.474,4.474,0,0,0,.971.505,2.594,2.594,0,0,0,1.3.5,2.12,2.12,0,0,1,.954.476.722.722,0,0,1,.351.687c-.014.347-.113.473-.471.49-.18.008-.339.254-.531.3-.352.09-.759-.128-1.073.231-.261.3-.775-.092-1.029.348-.051.089-.293.091-.447.094-.554.01-1.11-.018-1.663.01-.576.029-1.209-.194-1.693.327-.61,0-1.22.012-1.829-.005a.8.8,0,0,0-.725.278.311.311,0,0,1-.295.052c-.609-.566-1.354-.23-2.031-.333a.309.309,0,0,1-.207-.207C372.934,175.178,372.947,174.844,372.947,174.512Z"/>
      <path id="Trazado_114934" data-name="Trazado 114934" d="M443.556,112.445v1.665a6.456,6.456,0,0,1-.021,1.328c-.085.4-.353.726-.332,1.2.057,1.274,0,2.553.029,3.829.013.552-.511.944-.385,1.51-.218.146-.3.468-.643.46-.443-.011-.888,0-1.332,0a.931.931,0,0,1-.644-.642c-.007-.778.057-1.561-.023-2.33-.06-.578.517-.923.378-1.535a7.567,7.567,0,0,1-.02-1.657c.652-.591.225-1.343.291-2.02,0-.038-.168-.1-.264-.137a.278.278,0,0,0-.164,0c-.048.015-.124.06-.123.091.008.56-.63.731-.732,1.2-.107.489-.6.629-.8,1a3.738,3.738,0,0,1-.824,1.162.583.583,0,0,0,.133.224.389.389,0,0,1,.054.571c-.033.044-.088.073-.116.119-.406.694-1.077.664-1.74.621-.5-.033-.653-.544-1.006-.784-.091-.679-.735-1.135-.729-1.87,0-.23-.208-.461-.315-.695-.343-.747-.8-1.439-1.08-2.217a.125.125,0,0,0-.111-.059c-.048.018-.115.072-.115.112-.014,1.107-.02,2.214-.027,3.321.5.358.309.889.328,1.361a14.973,14.973,0,0,1,0,1.5c-.022.362-.443.589-.34,1.031a4.658,4.658,0,0,1,.014,1c0,.2-.123.244-.287.316-.855.373-.845.368-1.731,0-.168-.069-.309-.109-.31-.291-.007-1.388,0-2.776-.005-4.163,0-.2.45-.243.225-.478-.3-.309-.324-.548.014-.812.109-.085.09-.147-.042-.239-.2-.141-.3-.382-.141-.556a.98.98,0,0,0,.285-.723c-.015-1.387-.005-2.775-.009-4.163a2.619,2.619,0,0,0-.061-.473c-.1-.533.027-.752.473-.769.221-.009.445.015.665-.006a.8.8,0,0,1,.719.289,11.612,11.612,0,0,0,1.3,1.287c.488.384.565,1.034,1.046,1.41a3.029,3.029,0,0,1,.866,1.47c.142.39.731.517.678,1.056,0,.017.19.094.219.066.4-.382.792-.778,1.184-1.17.079-.079.235-.172.224-.234-.113-.606.715-.675.683-1.223a15.173,15.173,0,0,0,1.561-2.685,3.1,3.1,0,0,1,.466-.811,1.2,1.2,0,0,1,1.718-.209c.135.07.344.037.439.132.221.218.515.369.493.8C443.523,110.556,443.556,111.5,443.556,112.445Z"/>
      <path id="Trazado_114937" data-name="Trazado 114937" d="M390.932,189.836c-.073.07-.141.189-.222.2a1.518,1.518,0,0,1-.661,0c-.5-.172-.781.306-1.2.342-.379.032-.851-.09-1.117.094-.312.215-.626.145-.9.266a2.583,2.583,0,0,0-.809.426c-.219.231-.5.151-.715.323-.2.158-.5.2-.668.372-.237.24-.5.158-.76.193a.493.493,0,0,0-.266.152,4.544,4.544,0,0,1-.9.62,2.2,2.2,0,0,1-.913.234c-.138.031-.228.268-.368.3-.208.054-.526.108-.645,0-.357-.33-.943-.319-1.168-.807-.042-.092-.059-.281-.01-.316.458-.323.274-1.188,1.128-1.225.366-.016.512-.71,1.049-.651.659-.814,1.718-.969,2.523-1.536.355-.25.932.124,1.149-.444.367-.065.8.177,1.1-.143.336-.35.728-.154,1.092-.179a1.359,1.359,0,0,0,.732-.263.706.706,0,0,1,.89.09,1.855,1.855,0,0,0,.782.531c.539.15.594.817.868,1.256C390.954,189.712,390.932,189.781,390.932,189.836Z"/>
      <path id="Trazado_114940" data-name="Trazado 114940" d="M398.6,187.048h3.16c.221,0,.56-.09.644.017.29.375.7.224,1.027.363.227.1.447.24.689.345s.391.383.6.565c.184.161.305.383.159.559-.161.194-.286.492-.622.483-.166,0-.333,0-.5,0-.942,0-1.885.006-2.827,0-.424,0-.885.126-1.2-.324-.037-.052-.225.026-.32-.012-.428-.175-.63.64-1,.286a1.286,1.286,0,0,0-1.058-.278c-1.108-.007-2.217,0-3.326,0a.839.839,0,0,1-.762-.858c-.005-.219,0-.373.283-.49.422-.178.832-.441,1.244-.609a4.161,4.161,0,0,1,1.48-.039Z"/>
      <path id="Trazado_114941" data-name="Trazado 114941" d="M467.4,138.088c-.222,0-.486.075-.655-.019a1.866,1.866,0,0,1-.53-.583.326.326,0,0,1,.064-.293c.3-.326.615-.635.926-.95-.064-.554.464-.7.724-1.028.274-.344.676-.6.917-.958.3-.443.85-.441,1.175-.809a5,5,0,0,1,.95-.925,2.972,2.972,0,0,1,.821-.408,1.866,1.866,0,0,1,1.144.009,2.12,2.12,0,0,1,.9.887,1.45,1.45,0,0,1-.04.957.733.733,0,0,1-.463.439,1.48,1.48,0,0,0-1.12,1.037c-.069.168-.117.327-.291.3a1.041,1.041,0,0,0-.99.437c-.278.325-.793.277-1.052.7a1.053,1.053,0,0,1-.9.6C468.088,138.089,468.088,138.089,467.4,138.088Z"/>
      <path id="Trazado_114942" data-name="Trazado 114942" d="M483.02,156.739c-.221,0-.442.006-.662-.005-.041,0-.091-.066-.116-.113-.234-.427-.758-.02-1.013-.35-.153-.2-.409-.132-.561-.242-.338-.246-.552-.671-1.043-.689-.291-.4-.767-.549-1.143-.829-.35-.262-.618-.631-.949-.922-.445-.392-.751-.945-1.332-1.177s-.878-.794-1.336-1.171a.872.872,0,0,1-.318-.36c-.034-.126.068-.416.118-.418.48-.017.962.012,1.443.028.2.354.717.2.927.579.13.237.395.3.663.387.221.072.4.318.694.323.039,0,.092.066.115.113.237.482.866.421,1.147.822.205.292.551.295.8.472a9.435,9.435,0,0,1,.712.69c.43.384,1.054.4,1.5.8.166.149.461.175.675.359a1.355,1.355,0,0,1,.524,1.284c-.041.334-.076.414-.346.419C483.351,156.742,483.185,156.739,483.02,156.739Z"/>
      <path id="Trazado_114943" data-name="Trazado 114943" d="M419.856,194.042a1.784,1.784,0,0,1-.655-.016,1.1,1.1,0,0,1-.6-.5.7.7,0,0,1,.086-.77c.237-.231.432-.569.714-.671a1.63,1.63,0,0,0,.673-.377c.422-.436.856-.86,1.285-1.289.616-.05.846-.622,1.272-.929.248-.179.61-.16.8-.469a.644.644,0,0,1,.7-.315.893.893,0,0,0,.33,0,1.592,1.592,0,0,1,1.673.746c.081.108.122.4.074.426-.317.193-.273.562-.447.822-.2.305-.588.254-.8.469-.269.276-.744.18-.928.574-.156.335-.627.2-.788.473-.269.463-.866.421-1.157.814s-.915.325-1.166.809c-.056.107-.26.17-.4.191A4.55,4.55,0,0,1,419.856,194.042Z"/>
      <path id="Trazado_114944" data-name="Trazado 114944" d="M480.22,140.1a4.075,4.075,0,0,1,1.473.039c.427.177.731.66,1.072,1.023.178.19.474.317.424.655-.047.311.173.778-.177.895a1.182,1.182,0,0,1-1.1-.088,1.219,1.219,0,0,0-1.352-.066c-.129.057-.21.238-.357.032a.572.572,0,0,0-.739-.155c-.48.409-1.016.283-1.545.315-.417.026-.9-.175-1.2.309-.357-.6-1.064-.065-1.46-.44-.279-.265-.727-.194-.941-.573-.11-.193-.177-.414-.006-.571.156-.144.321-.351.5-.375a1.667,1.667,0,0,0,.886-.307c.273-.207.8.12,1.08-.16a.908.908,0,0,1,.915-.2c.482.087.8-.254,1.2-.332a7.082,7.082,0,0,1,1.328-.018Z"/>
      <path id="Trazado_114947" data-name="Trazado 114947" d="M435.229,183.917c-.007.4-.007.4-.46.464-.109.015-.259-.044-.326.01-.411.335-.74.822-1.386.666-.633.826-1.829.876-2.424,1.757l-1.092.567c-.8.214-1.191-.374-1.632-.846a.323.323,0,0,1,0-.316c.416-.443.838-.884,1.287-1.293.389-.353.649-.891,1.266-.942a2.566,2.566,0,0,1,1.158-.808c.377-.157.693-.465,1.129-.479.249-.42.678-.369,1.028-.293a2.1,2.1,0,0,1,1.235.608,1,1,0,0,1,.205.409A2.341,2.341,0,0,1,435.229,183.917Z"/>
      <path id="Trazado_114949" data-name="Trazado 114949" d="M438.641,182.052c-.33,0-.662-.021-.99.006s-.484-.223-.65-.418c-.084-.1-.137-.351-.075-.428a3.993,3.993,0,0,1,.817-.81c.2-.138.5.046.775-.119a7.2,7.2,0,0,1,1.938-.9,7.279,7.279,0,0,0,1.786-.865c.431-.242.854-.046,1.272-.125.349-.066.471.466.855.337.027-.009.115.061.116.1.014.481.026.961.013,1.442,0,.043-.176.079-.268.122-.23.11-.459.222-.688.333a2.771,2.771,0,0,1-.691.318c-.267.044-.521.016-.73.26-.078.092-.3.1-.45.08a1.59,1.59,0,0,0-1.026.329C439.964,182.081,439.948,182.053,438.641,182.052Z"/>
      <path id="Trazado_114950" data-name="Trazado 114950" d="M407.9,188.047a1.013,1.013,0,0,1,.864.311c.164.158.531-.1.764.132.077.076.148.195.24.215.363.078.8-.162,1.094.143a.9.9,0,0,0,.915.181c.633-.122,1.055.535,1.672.385a7.488,7.488,0,0,1,2.306,1.633,1.036,1.036,0,0,1,.086.9.962.962,0,0,1-.978.422c-.329-.138-.633-.336-.954-.494a2.914,2.914,0,0,0-1.617-.519c-.216.021-.45-.223-.69-.3-.195-.067-.516,0-.6-.121-.189-.275-.494-.163-.71-.327-.491-.373-1.133-.488-1.614-.892-.61.179-.88-.3-1.227-.634-.076-.072-.183-.159-.191-.247a1.477,1.477,0,0,1,.041-.641c.033-.088.273-.1.422-.141A.775.775,0,0,1,407.9,188.047Z"/>
      <path id="Trazado_114963" data-name="Trazado 114963" d="M410,133.425c.37.022.787-.124,1.044.294a14.879,14.879,0,0,0,1.648.025,2.47,2.47,0,0,1,1.2.331c.33.135.772-.146,1.07.232.034.044.078.111.118.112.388.009.779-.02,1.165.013.36.031.588.425,1.031.339a2.424,2.424,0,0,1,1.691.32c.437-.182.629.361,1.028.341.368-.019.753-.1,1.061.273.093.114.418.022.632.056.416.065.892-.184,1.247.2.285.307.784-.08,1.03.346a.383.383,0,0,0,.278.113c.388.013.776.008,1.164.009.235.42.654.309,1.019.353.233.428.764.155,1,.374.446.413.934.2,1.4.266a1.423,1.423,0,0,1,.768.169,2.068,2.068,0,0,0,1.783.484c.468-.133.571.5,1.037.369.281-.078.671-.15.895.22.025.041.1.1.125.087.735-.227,1.318.455,2.028.336.407-.068.576.484,1.033.35a.981.981,0,0,1,.892.259c.211.163.635.049.964.059.371.449.886.352,1.36.321a.867.867,0,0,1,.7.346c.477-.171.794.258,1.2.317a2.659,2.659,0,0,1,1.211.318c.316.206.823-.1,1.215.3.227.226.765-.056,1,.371.016.029.1.025.151.029.419.036.9-.147,1.2.327.387,0,.775.015,1.163,0,.34-.01.463.433.864.353.3-.058.672-.138.895.23a.213.213,0,0,0,.13.083c.364.075.783-.175,1.1.157s.753.219,1.089.153c.462-.091.622.406,1.034.371a7.609,7.609,0,0,1,1.134.062c.381.6,1.227-.087,1.6.579.041.072.316.013.481.013h1.5c.234.592.975.092,1.265.58a.542.542,0,0,0,.226-.071c.092-.048.193-.183.257-.164.294.085.57.238.866.313.257.065.635-.041.777.106a.957.957,0,0,0,.914.224c.461-.054.71.453,1.2.361a5.32,5.32,0,0,1,1.329-.009c.361.025.588.43,1.031.342a5.5,5.5,0,0,1,1.154,0c.36.524.913.21,1.367.323a6.768,6.768,0,0,1,1,.386c.143.061.1.128-.015.238-.32.293-.668.564-.567,1.109.026.136-.232.341-.384.49s-.31.313-.257.561c.067.318-.119.507-.325.7a4.852,4.852,0,0,0-.674,1.384c-.018.106.013.239-.042.315-.245.338-.657.518-.66,1.074a2.118,2.118,0,0,1-.524,1.1c-.239.321.065.748-.323,1.051-.21.165-.205.578-.451.8a2.168,2.168,0,0,1-.528,1.443c-.158.274-.068.53-.148.775-.061.192-.293.35-.3.533a1.216,1.216,0,0,1-.332.878c-.158.16.13.563-.142.758-.292.209-.125.651-.466.812a3.182,3.182,0,0,1-.706,1.705c.146.619-.55,1.052-.37,1.679-.567.216-.137.843-.46,1.137-.358.326-.128.728-.215,1.082-.035.144-.233.261-.238.4-.016.44-.516.682-.426,1.165.072.384-.476.581-.335,1.029.106.339-.45.471-.328.859.1.318-.135.5-.329.694.172.434-.523.576-.339,1.029.15.368-.437.511-.32.857.167.494-.49.7-.354,1.2.1.37-.366.587-.36,1.025a2.393,2.393,0,0,1-.515,1.1c-.054.085-.128.209-.1.284.156.441-.381.66-.331,1.029.07.514-.238.911-.326,1.366-.109.565-.547,1.052-.373,1.7.037.136-.217.338-.308.524-.175.362-.152.347-.332.215-.382-.282-.571-.766-1.142-.875-.378-.071-.519-.709-1.052-.66-.325-.378-.841-.4-1.227-.651-.61-.4-1.286-.652-1.923-.99-.781.074-1.255-.8-2.056-.669a.171.171,0,0,1-.142-.047c-.171-.332-.608-.2-.808-.47-.239-.321-.69.039-.89-.244-.215-.3-.64-.137-.825-.457-.039-.068-.182-.088-.281-.109-.312-.066-.684.154-.938-.138-.224-.257-.495-.159-.754-.2-.3-.052-.484-.443-.863-.329-.326.1-.443-.252-.691-.34a2.3,2.3,0,0,0-1.363-.32c-.572.142-.941-.584-1.528-.337a.88.88,0,0,0-1.025-.321c-.394.081-.508-.386-.865-.352a4.8,4.8,0,0,1-1-.006c-.138-.016-.248-.206-.392-.251-.493-.156-.925-.54-1.5-.4-.355.084-.473-.419-.863-.343a5.345,5.345,0,0,1-1,.012c-.4-.679-1.32.01-1.733-.659-.031-.05-.211-.005-.322-.007a2.188,2.188,0,0,1-1.383-.3c-.3-.216-.849.145-1.214-.289-.1-.117-.412-.045-.624-.076-.465-.068-1,.2-1.381-.289-.025-.033-.1-.04-.147-.04-.5,0-1,0-1.5,0-.373-.443-.887-.363-1.36-.321s-.711-.461-1.2-.361a5.855,5.855,0,0,1-1.163.015c-.469-.594-1.123-.3-1.694-.314-.45-.009-.667-.541-1.2-.376a4.679,4.679,0,0,1-1.325.025c-.779-.588-1.682-.236-2.526-.334-.416-.048-.856.138-1.232-.275-.13-.142-.522-.054-.795-.056-.666,0-1.332,0-2,0-.381,0-.58-.443-1.032-.352a6.833,6.833,0,0,1-1.328.019c-.389,0-.78-.03-1.165.007-.5.048-.8-.522-1.368-.363a5.039,5.039,0,0,1-1.324.019c-.247-.409-.65-.327-1.029-.332-.4,0-.4,0-.894.593-.106.127-.214.3-.355.342-.31.1-.655.109-.571.582.006.031-.077.116-.111.111-.588-.076-.706.616-1.206.722a2.684,2.684,0,0,0-.964.472c-.3.215-.5.574-.929.578-.5.672-1.368.762-1.974,1.265-.611-.047-.732.813-1.36.737-.335.345-.9.36-1.158.823-.073.134-.169.128-.23-.027-.037-.1-.078-.27-.033-.307a7.671,7.671,0,0,0,.992-1.427c-.194-.483.181-.818.346-1.188.335-.75.8-1.436,1.091-2.213.481-.245.019-.835.452-1.163a1.228,1.228,0,0,0,.408-.961c-.056-.455.45-.631.365-1.031-.1-.483.318-.651.534-.948a.862.862,0,0,0,.129-.442c.018-.332-.008-.667.017-1,.005-.066.158-.175.239-.171.4.018.444-.215.417-.524-.009-.109-.039-.278.016-.32a1.533,1.533,0,0,0,.664-1.572c-.017-.109.159-.269.275-.374a.905.905,0,0,0,.39-.848.569.569,0,0,1,.2-.4,1.191,1.191,0,0,0,.474-.984c-.012-.341.372-.6.338-1.029a1.59,1.59,0,0,1,.369-.83c.116-.179.318-.3.269-.557a.7.7,0,0,1,.308-.706c.128-.106.321-.224.337-.354a.81.81,0,0,1,.249-.572c.194-.176.089-.5.342-.7.119-.094.1-.4.09-.613a.779.779,0,0,1,.276-.724.788.788,0,0,0,.4-.832c-.06-.265.15-.408.315-.53a.857.857,0,0,0,.356-.86.382.382,0,0,1,.115-.279c.288-.256.222-.711.544-.943a1.221,1.221,0,0,1,.333-1.028c-.228-.492.226-.808.37-1.18a1.964,1.964,0,0,0,.3-1.042.968.968,0,0,0,.33-1.027c-.029-.244.159-.389.221-.574.262-.78.983-1.412.781-2.343.543-.312.085-1.093.653-1.395-.026-.487.562-.809.353-1.357-.087-.228.155-.388.213-.571.154-.491.62-.893.452-1.484a.447.447,0,0,1,.046-.309,6.983,6.983,0,0,0,.569-.93c.129-.333-.055-.78.368-1.014-.014-.3.028-.545.427-.513C409.554,133.44,409.777,133.425,410,133.425Z" fill="#fff"/>
      <path id="Trazado_114964" data-name="Trazado 114964" d="M429.573,119.072a3.928,3.928,0,0,0-.317-1.7,3.591,3.591,0,0,1-.063-1.139c-.467-.314-.234-.8-.3-1.209a.56.56,0,0,0-.173-.258.407.407,0,0,1,.045-.685c.232-.19-.029-.243-.082-.356a2.8,2.8,0,0,1-.423-.978,7.124,7.124,0,0,0-.338-1.364,9.935,9.935,0,0,0-.891-1.964c-.1-.24-.431-.31-.478-.638a2.356,2.356,0,0,0-.321-.695,2.592,2.592,0,0,0-.255-.393,1.047,1.047,0,0,0-.893-.242c-.239.128-.156.372-.189.579-.023.144-.127.4-.171.4-.534-.06-.494.289-.489.629.005.388,0,.777,0,1.165-.737.518.091,1.542-.664,2.054,0,.332,0,.665,0,1,0,.388-.007.777,0,1.165.009.337-.43.462-.351.863.074.374-.051.788.033,1.158.1.45-.411.663-.338,1.028.148.732-.578,1.295-.349,2.028a.184.184,0,0,1-.052.141,3.088,3.088,0,0,1-.353.352c-.21.168-.226-.124-.351-.164a3.4,3.4,0,0,0-1.664-.422,8.46,8.46,0,0,1-1.494.014.859.859,0,0,1-.743-.711c-.008-.222,0-.444,0-.665a10.529,10.529,0,0,1,.012-1.33,2.794,2.794,0,0,0-.34-1.362.588.588,0,0,1,0-.33c.027-.1.1-.25.163-.252.721-.017,1.442,0,2.163-.018.277-.007.327.282.529.332a.742.742,0,0,0,.491,0,2.286,2.286,0,0,1,1.183-.373c.15,0,.163-.158.019-.221-.311-.135-.118-.642-.353-.658-.366-.026-.525-.372-.843-.4-.421-.036-.895.135-1.192-.336-.5,0-1,.015-1.5-.008-.212-.009-.293.132-.4.245s-.224.106-.227-.04c-.011-.437-.446-.695-.395-1.182.074-.713.006-1.44.026-2.161.007-.262-.147-.584.1-.78.284-.221.458.089.688.2s.543.011.8.074c.244.06.461.293.7.307.719.042,1.442.026,2.162,0,.072,0,.22-.278.185-.37a2.7,2.7,0,0,0-.377-.51c-.292-.413-.792-.514-1.2-.742-.252-.142-.658.017-.981-.039-.3-.051-.567-.242-.864-.313-.56-.134-1.217.252-1.7-.314-.376.426-.883.267-1.348.313-.2.02-.61.66-.5.764.419.4.32.892.322,1.37.005,1.5,0,2.994,0,4.492,0,1.83,0,3.66-.009,5.489,0,.053-.128.114-.2.151-.017.008-.115-.079-.109-.11.065-.328-.165-.493-.356-.689-.146-.149-.377-.265-.318-.531.086-.385-.138-.612-.388-.84-.2-.186-.49-.359-.564-.594a3.969,3.969,0,0,0-.354-.691c-.09-.169-.062-.408-.257-.558a1.09,1.09,0,0,1-.346-.354c-.123-.267.186-.322.3-.46.251-.295.547-.55.813-.833a.384.384,0,0,0,.116-.278.929.929,0,0,1,.478-.969c.284-.222.066-.335-.075-.474.429-.561.141-1.238.3-1.826.141-.533-.418-.75-.366-1.2a.593.593,0,0,0-.1-.448c-.292-.259-.216-.707-.57-.945a6.316,6.316,0,0,1-.834-.8c-.435.151-.585-.5-1.016-.359a.739.739,0,0,0-.705-.314,9.409,9.409,0,0,0-1,.018,16.533,16.533,0,0,0-1.684.749c-.054.017-.071.187-.084.288-.021.16.038.407-.047.471-.452.339-.233.807-.291,1.22-.033.229.518.288.15.621s-.046.568.175.8a.47.47,0,0,1-.1.112c-.352.238-.208.591-.2.9.005.161.456.2.157.468-.366.323.21.383.158.622-.044.208,0,.456-.093.626s-.3.27-.042.49a.649.649,0,0,1,.126.438c.01,1.053.029,2.108-.006,3.16-.015.452.131.6.562.763.841.317.815.374,1.383-.185a.936.936,0,0,0,.408-.836,6.739,6.739,0,0,1,0-1.163c0-.073.117-.142.18-.213.039.04.1.072.114.119.24.793.717,1.477,1.029,2.236.332.805,1.012,1.467,1,2.414.217.226.353.561.752.541.215-.011.434-.036.6.172.042.053.2.1.222.073.327-.379,1.1-.252,1.11-1.012,0-.207.351-.337.5-.2a.931.931,0,0,0,.711.312c.776-.026,1.553-.012,2.329-.007.216,0,.53-.062.631.053a.873.873,0,0,0,.893.268c.381-.07.565.268.863.338.723.168,1.531-.319,2.215.3.078.07.242-.281.5-.307.66-.064.725-.1.653-.577-.087-.579.321-1.021.324-1.529a3.034,3.034,0,0,1,.343-1.2c.065-.157.092-.293.261-.345a.943.943,0,0,1,1.094.7c.07.465-.243,1,.254,1.39.024.545.047,1.089.074,1.634a.332.332,0,0,0,.045.147c.028.046.084.119.114.113.326-.069.47.268.7.321a4.441,4.441,0,0,0,1.159.017.562.562,0,0,0,.276-.128c.089-.064.154-.159.239-.231.134-.113.152-.356.135-1C429.556,120.181,429.544,119.625,429.573,119.072ZM411.9,111.86a5.29,5.29,0,0,1-.507.943c-.166.316-.319.638-.471.96-.022.045.017.119-.007.162-.093.169-.762.27-.877.128a.523.523,0,0,1-.113-.28,2.2,2.2,0,0,1,.009-.819c.2-.555-.4-.855-.355-1.353.037-.437.008-.88.008-1.32-.644-.517-.215-1.229-.325-1.843-.038-.208.378-.607.614-.659.522-.116.848.358,1.307.431.131.711.838,1.207.739,2.006a5.378,5.378,0,0,0,0,.66A3.75,3.75,0,0,1,411.9,111.86Zm14.382,4.578c-.11.008-.223-.009-.332,0a.3.3,0,0,1-.369-.225,2.625,2.625,0,0,1-.008-.538.668.668,0,0,1,.267-.688,1.479,1.479,0,0,0-.109-.226.64.64,0,0,1,.275-.92.135.135,0,0,1,.114-.017c.047.024.114.073.114.113a11.607,11.607,0,0,1,0,1.165,1.026,1.026,0,0,0,.329.871C426.7,116.113,426.489,116.422,426.279,116.438Z"/>
      <path id="Trazado_114965" data-name="Trazado 114965" d="M407.252,114.552a3.37,3.37,0,0,1,.011-.829c.167-.635-.475-1.084-.344-1.7-.222-.3-.45-.588-.663-.891-.089-.125-.12-.3-.223-.4q-.69-.722-1.412-1.412a.608.608,0,0,0-.408-.195c-.37.052-.582-.231-.869-.326a3.518,3.518,0,0,1-.895-.271,1.022,1.022,0,0,0-1.206.111c-.2.188-.243-.007-.362-.063-.138-.065-.4-.164-.429-.119-.279.37-.657.332-1.043.324-.5-.011-1,0-1.5-.006-.272,0-.359.23-.512.37-.327.3.091.922-.472,1.133.409.246.334.646.334,1.027,0,.441.012.882.018,1.323.565.482.235,1.13.308,1.7.042.324.031.655.044.982.47.313.26.793.29,1.21a7.069,7.069,0,0,1,0,1,1.163,1.163,0,0,0,.275.725c.129.212.159.483.362.685a.444.444,0,0,1-.072.424.743.743,0,0,0-.221.747c.007.1.067.27.112.272a1.918,1.918,0,0,1,1.172.4h2.329c.377,0,.589-.5,1.03-.342.075.027.206-.04.283-.1a2.384,2.384,0,0,1,.915-.623c.323-.082.559-.511.833-.785.432-.432.843-.886,1.3-1.286a.858.858,0,0,0,.342-.86c-.038-.214.125-.3.242-.4a1.029,1.029,0,0,0,.434-.992A6.394,6.394,0,0,1,407.252,114.552Zm-2.647-1.584a3.5,3.5,0,0,0-.017.988c0,.276.015.554-.005.828-.015.206.074.415-.108.621-.164.186-.21.474-.368.668a3.9,3.9,0,0,1-.821.813c-.357.236-.278.683-.571.935-.321.275-.569.643-1.038.7-.127.015-.137.336-.351.15a4.47,4.47,0,0,1-.35-.352.234.234,0,0,1-.05-.143,4.54,4.54,0,0,1,.017-1.155c.12-.461-.445-.618-.354-1.027a.457.457,0,0,0,0-.165c-.073-.469.148-.962-.181-1.417-.309-.428-.1-.95-.151-1.426-.679-.393,0-1.3-.652-1.733-.1-.068-.057-.434.005-.635.028-.091.289-.088.4-.179a1.221,1.221,0,0,1,1.729-.02c.065.056.28.062.307.019.42-.676.821-.143,1.225.007.1.036.269.1.265.129-.081.627.866.748.7,1.363C404.115,112.4,404.748,112.5,404.605,112.968Z"/>
      <path id="Trazado_114967" data-name="Trazado 114967" d="M435.2,155.609v.988c-.426.232-.172.733-.372,1a8.067,8.067,0,0,0-.615,1.248,3.116,3.116,0,0,1-.541.609c-.215.233-.476.411-.494.8-.008.163-.3.452-.445.445a.81.81,0,0,0-.784.506c-.321.67-1.133.322-1.509.813L428.331,162a3.283,3.283,0,0,0-1.091-.581c-.521-.245-.8-.725-1.22-1.066-.215-.175-.114-.482-.334-.705-.273-.277-.1-.722-.1-1.1.485-.3.264-.786.313-1.2.042-.363-.153-.788.274-1.051l.117-1.116c.467-.218.144-.711.354-1.016.063-.09.209-.151.221-.239a1.569,1.569,0,0,0-.064-.448c-.079.032-.178.043-.232.1-.335.342-.8.615-.68,1.219.015.076-.08.189-.148.264a3.194,3.194,0,0,0-.957,1.271.721.721,0,0,1-.483.393c-.614.127-.762.51-.742,1.068.012.315-.259.268-.475.282-.457.03-.467.036-.512.411a1.913,1.913,0,0,1-.156.6c-.184.4-.952.125-.847.784a1.4,1.4,0,0,1-.9.612c-.135.026-.249.212-.353.34a.608.608,0,0,1-.566.251c-.275-.024-.554,0-.831-.007-.424-.013-.85.1-1.2-.328a3.05,3.05,0,0,1-.814-1.663c0-.222,0-.444,0-.665,0-.281-.01-.29-.346-.157a3.526,3.526,0,0,1-1.9.068c-.16-.341-.576-.2-.817-.458a7.483,7.483,0,0,1-.823-1.159c-.177-.275-.041-.536-.113-.789-.133-.472.221-.8.318-1.2a5.221,5.221,0,0,0,.03-1.155c.423-.234.18-.74.372-1,.587-.8.714-1.87,1.5-2.547a.355.355,0,0,0,.1-.282c-.1-.537.369-.848.5-1.3a3.524,3.524,0,0,1,.669-1.061c.246-.33.486-.685.7-1.036a4.5,4.5,0,0,1,.731-1.023.748.748,0,0,1,1.01-.1,2.151,2.151,0,0,0,.571.24c.088.03.112.271.148.42.008.034-.054.085-.083.128-.618.954-.971,2.047-1.574,3.009-.025.039.02.128-.007.161a3.294,3.294,0,0,1-.541.6,1.081,1.081,0,0,0-.453,1.148c.041.245-.12.386-.229.574a5.34,5.34,0,0,0-.419.821c-.261.724-.893,1.343-.685,2.212-.535.48-.273,1.118-.328,1.692,0,.037.059.09.1.119a.123.123,0,0,0,.113.005,11.4,11.4,0,0,0,.82-.825c.234-.28.6-.429.659-.9.034-.263.41-.488.641-.722a8.512,8.512,0,0,0,1.492-1.55,9.581,9.581,0,0,1,1.328-1.608.644.644,0,0,0,.164-.263c.115-.525.552-.765.92-1.068a3.6,3.6,0,0,1,1.469.877c.32.365.331.345.1.808a5.1,5.1,0,0,1-1.3,1.957.569.569,0,0,0-.181.589.6.6,0,0,1-.288.548.836.836,0,0,0-.389.842.366.366,0,0,1-.085.289c-.364.346-.714.688-.583,1.259-.562.3-.122,1.074-.651,1.4-.035.022-.009.223.046.3.2.266.254-.049.34-.118a1.257,1.257,0,0,0,.27-.382c.048-.088.036-.216.1-.291.147-.189.608.048.571-.4-.023-.278.209-.367.347-.522a9.251,9.251,0,0,0,1.293-1.466c.307-.553.877-.833,1.156-1.349a3.022,3.022,0,0,1,.849-1.134c.389-.271.295-.8.691-1.059.411-.268.353-.9.822-1.16a.52.52,0,0,0,.164-.417.894.894,0,0,1,.306-.713,2.834,2.834,0,0,0,.691-1.7.768.768,0,0,1,.379-.675c.114-.089.352-.186.425-.132.469.343,1.09.481,1.41,1.023a.686.686,0,0,1,.124.279c.015.332.014.665,0,1a.4.4,0,0,1-.1.283c-.733.52-.677,1.56-1.4,2.091-.251.185-.145.623-.47.807-.05.028-.015.207-.019.316-.006.159.183.167.339.011a10.964,10.964,0,0,0,.932-.948c.221-.281.612-.152.833-.448.088-.118.4-.077.612-.093a2.182,2.182,0,0,1,.5,0c.366.056.755-.152,1.106.143.478.4,1.176.429,1.608.94.321.38.82.656,1.016,1.081a8.775,8.775,0,0,1,.511,1.118c.043.145.179.271.2.414a7.185,7.185,0,0,1,.009.831Z"/>
      <path id="Trazado_114968" data-name="Trazado 114968" d="M452.215,158.885c0,.221.016.444,0,.664-.04.467.192,1-.33,1.355v1.327c-.567.209-.133.845-.471,1.127-.266.223-.144.616-.457.818-.4.259-.6.761-1.122.9-.189.051-.337.249-.506.377-.125.1-.245.238-.385.265-.315.06-.7-.037-.946.112a1.254,1.254,0,0,1-.739.235,6.188,6.188,0,0,1-.993-.016c-.4-.081-.716-.487-1.194-.326-.026.009-.075-.072-.121-.1-.4-.232-.328-.787-.7-1.037l.066-1.114c.5-.236.044-.824.451-1.155.306-.248.161-.738.1-1.092-.077-.485.316-.8.327-1.193.015-.549.458-.93.4-1.525-.05-.483.454-.951.3-1.517.446-.369.175-.951.368-1.338a7.487,7.487,0,0,1,.866-1.63,1.287,1.287,0,0,0,.453-.989c-.011-.159.207-.364.363-.5a.553.553,0,0,1,.435-.116c.14.04.239.29.365.3a.859.859,0,0,1,.569.254c.1.093.3.072.44.13.461.185.385.751.707,1.03a3.379,3.379,0,0,1,1.1,1.7c.541.31.1,1.087.657,1.387,0,.33.007.661.009.992C452.216,158.443,452.215,158.664,452.215,158.885Z"/>
      <path id="Trazado_114969" data-name="Trazado 114969" d="M434.9,162.009c-.179-.677.462-1.179.393-1.832a2.049,2.049,0,0,0,.583-1.246c.008-.454.518-.717.359-1.192-.017-.05-.027-.139,0-.162a8.15,8.15,0,0,0,1.518-2.533c.384-.668.618-1.415,1.061-2.054a.384.384,0,0,0-.073-.567c-.189-.16-.271-.38-.112-.559s.3-.5.636-.449c.422.067.876-.173,1.272.137.493.386,1.188.417,1.61.937a9.965,9.965,0,0,0,.7.709c.235.235.561.432.68.716a2.361,2.361,0,0,1,.025.984c-.013.239.135.389.214.58a1.213,1.213,0,0,1-.226,1.473,7.639,7.639,0,0,1-2.315,1.654,5.788,5.788,0,0,1-.774.143c-.191.062-.362.311-.528.3a2.39,2.39,0,0,1-.7-.306c-.046-.021-.138-.025-.159,0-.05.065-.116.208-.1.223.342.278.286.806.692,1.056.23.141.379.408.6.573.8.6,1.122,1.583,1.86,2.238a2.662,2.662,0,0,1,.42.813c.141.3-.193.48-.391.646-.1.085-.365.139-.428.077a1.579,1.579,0,0,0-.694-.354,4.143,4.143,0,0,1-.8-.458c.1-.555-.522-.652-.668-1.053a4.043,4.043,0,0,0-.411-.989,8.141,8.141,0,0,0-.926-.951c-.474-.473-.518-.5-.579-.393-.127.222-.088.532-.361.681.159.244.357.491-.04.705.056.315-.161.488-.337.7-.055.065.007.217-.012.325-.046.26.154.594-.129.766-.164.1-.423.032-.637.061-.932.124-1.347-.384-1.23-1.228A1.144,1.144,0,0,0,434.9,162.009Z"/>
      <path id="Trazado_114970" data-name="Trazado 114970" d="M432.9,154.918v.165c0,1.224-.091,1.169-.788,2.324a24.575,24.575,0,0,1-2,2.313c-.26.334-.69.262-.936.567-.206.255-.515.073-.775.112-.162.024-.332-.01-.495.008a.264.264,0,0,1-.328-.263c-.015-.325.036-.654-.3-.878a.315.315,0,0,1-.037-.3c.4-.326.268-.779.341-1.191s.485-.714.318-1.187a20.619,20.619,0,0,0,1.154-2.167,1.425,1.425,0,0,1,.231-.235c.039-.039.085-.114.117-.108.63.1.739-.8,1.365-.719.068.008.151-.148.234-.22a.25.25,0,0,1,.138-.063c.165-.008.33,0,.5,0,.22,0,.441-.011.661,0a1.014,1.014,0,0,1,.6.681C432.9,154.146,432.9,154.532,432.9,154.918Z" fill="#fff"/>
      <path id="Trazado_114971" data-name="Trazado 114971" d="M449.884,158.073c0,.22.005.441,0,.662-.014.422.131.89-.332,1.187q0,.66-.008,1.321c-.417.235-.306.651-.348,1.015-.471.356-.733.95-1.346,1.15-.19.063-.34.259-.531.31a.6.6,0,0,1-.407-.142c.089-.673-.316-1.406.288-2.034.138-.144,0-.535.026-.808.04-.358.442-.585.341-1.025a2.739,2.739,0,0,1,0-.989c.053-.351.424-.592.335-1.025a3.528,3.528,0,0,1-.006-.99c.025-.31.422-.471.337-.859a1.865,1.865,0,0,1,.006-.821c.046-.188.251-.333.369-.507.092-.136.125-.1.243.006.515.479.556,1.231,1.025,1.738.083.089.012.321.012.486Z" fill="#fff"/>
      <path id="Trazado_114972" data-name="Trazado 114972" d="M441.557,154.792a3.115,3.115,0,0,0,.005.493c.054.334-.178.515-.389.656-.3.2-.7.236-.9.588-.177.31-.635.125-.8.46-.019.039-.092.087-.126.078a1.212,1.212,0,0,1-.425-.153.323.323,0,0,1-.019-.305c.128-.222.421-.364.324-.688-.14-.467.159-.8.334-1.178s.46-.708.344-1.179c-.032-.13.048-.409.112-.421a1.372,1.372,0,0,1,.764.016,2.309,2.309,0,0,1,.588.562c.072.075.174.162.182.25C441.572,154.243,441.557,154.519,441.557,154.792Z" fill="#fff"/>
      <path id="Trazado_114973" data-name="Trazado 114973" d="M408.751,132.926a3.7,3.7,0,0,1-.181.826c-.094.2-.319.339-.485.506" fill="none" stroke="#000" stroke-linecap="round" stroke-linejoin="round" stroke-width="2"/>
      <path id="Trazado_114978" data-name="Trazado 114978" d="M429.734,121.269a5.685,5.685,0,0,1-.666-.008,1.115,1.115,0,0,1-.333-.159" fill="none" stroke="#000" stroke-linecap="round" stroke-linejoin="round" stroke-width="2"/>
      <path id="Trazado_114979" data-name="Trazado 114979" d="M431.4,110.111c-.168-.274-.439-.133-.666-.166" fill="none" stroke="#000" stroke-linecap="round" stroke-linejoin="round" stroke-width="2"/>
    </g>
    <g id="Grupo_157007" data-name="Grupo 157007" transform="translate(-0.001 7.069)">
      <g id="Grupo_87650" data-name="Grupo 87650" transform="translate(1248.798 176.173) rotate(15)">
        <g id="Grupo_83465" data-name="Grupo 83465" transform="translate(-163.108 -108.741) rotate(-21)">
          <path id="Trazado_117044" data-name="Trazado 117044" d="M103.771,110.492a1.4,1.4,0,0,1,.682,1.043.79.79,0,0,0,.215,0,1.728,1.728,0,0,1,2.07.635c.163.2.249.461.485.621.443-.205.674-.8,1.314-.733l.579.434a3.911,3.911,0,0,0,.659,1.5c.261-.043.411-.28.763-.268a1.259,1.259,0,0,1,.649.339c.208.452-.115.866-.082,1.344.316.232.755.285,1.041.586.3.008.57-.17.859-.046.234.1.336.316.481.491a11.059,11.059,0,0,0,.2,2.582c.5.113.984-.14,1.428.131a1.056,1.056,0,0,1,.16,1.215,24.1,24.1,0,0,1-1.087,2.66,1.459,1.459,0,0,0-.085.294c.17.13.342.242.49.381a.994.994,0,0,1,.329.475c-.086.584-.714.747-1.015,1.151a.718.718,0,0,0,.131.611,6.645,6.645,0,0,1,.724,2.286,1.693,1.693,0,0,1-.2,1.05.638.638,0,0,1-.776.32l-.546-.414a3.953,3.953,0,0,0-.913,1.345c.2.314.667.414.759.891-.18.333-.374.695-.57,1.056a1.56,1.56,0,0,0-.226.733,2.183,2.183,0,0,1-.14.6,1.007,1.007,0,0,1-1.116.757c-.329-.018-.658-.044-1.009-.067a4.491,4.491,0,0,0,.215,1.576c-.222.88-.222.88-1.29.9a9.639,9.639,0,0,1-.119,1.475c-.46.6-1.17.394-1.787.532-.335.667-.1,1.5-.5,2.057-.489.489-1.018.125-1.508.243-.073.836.006,1.641-.051,2.4a.819.819,0,0,1-.8.387c-.239.307-.006.58-.02.856-.161.579-.617.715-1.2.721a7.829,7.829,0,0,1,.276.908,6.652,6.652,0,0,1,.056.852.867.867,0,0,1-.533.448,5.8,5.8,0,0,0-2.045-.144c-.556-.184-.566-.8-.962-1.181a2.693,2.693,0,0,1-1.159,1.246c-.726-.132-.9-.356-.854-1.119.008-.151.08-.307-.126-.442a4.755,4.755,0,0,1-2.275.472.744.744,0,0,1-.462-.538c.142-.594.658-.808,1.178-1.077a4.027,4.027,0,0,0-.494-1.107,6.357,6.357,0,0,1-.394-1.091.939.939,0,0,1,.339-.655c.153-.046.354-.1.548-.167s.4.125.6-.012c-.088-.231-.169-.444-.238-.627a1.47,1.47,0,0,1,.324-.636,5.343,5.343,0,0,1,1.04-.533c.008-.222-.156-.332-.26-.474s-.224-.285-.322-.41a.75.75,0,0,1,.1-.691.927.927,0,0,1,.553-.4,4.472,4.472,0,0,1,.752-.182,1.446,1.446,0,0,0,.672-.176c.149-.286.012-.557-.044-.83a1.534,1.534,0,0,1,.252-1.258,1.193,1.193,0,0,1,.809-.552c.128-.017.254-.036.4-.058-.068-.449-.132-.872-.193-1.281.381-.746.381-.746,1.565-1.124.083-.207-.025-.406-.044-.607a1.278,1.278,0,0,1,.658-1.31c.11-.066.223-.128.371-.212.009-.266-.181-.517-.118-.808a2.319,2.319,0,0,1,.362-.731,4.085,4.085,0,0,1,1.325-.318c.144-.458-.075-.905.074-1.358.169-.325.54-.4.9-.549a6.76,6.76,0,0,1-.418-1.326,1.477,1.477,0,0,1,.354-.675l.522-.192c.12-.355-.082-.748.2-.976a.908.908,0,0,0-.438-.451c-.795-.552-.894-1-.4-1.827-.05-.2-.115-.395-.145-.6a.839.839,0,0,0-.219-.569c-.606-.108-1.2.4-1.677.132-.35-.231-.282-.533-.477-.685a.4.4,0,0,0-.141.019,1.82,1.82,0,0,0-.326.211.848.848,0,0,1-.894.137,2.211,2.211,0,0,1-.509-.835c-.349.028-.536.3-.762.5a2.925,2.925,0,0,1-1.186.752,4.056,4.056,0,0,1-.444,1.724,1.344,1.344,0,0,1-1.275.079,7.463,7.463,0,0,0-.186,1.643,2.028,2.028,0,0,1-.569,1.553,1.366,1.366,0,0,1-.684.114,3.746,3.746,0,0,1-1.231-1c-.361.283-.5.758-.934.956a1.19,1.19,0,0,1-.772-.126l-.407-.5c-.543-.015-1.06-.041-1.576-.037a3.515,3.515,0,0,1-.848-.1.691.691,0,0,1-.457-.344,2.144,2.144,0,0,1,.041-1.113,3.027,3.027,0,0,0-.031-1.533,2.257,2.257,0,0,1-.164-1.274l.414-.544a2.73,2.73,0,0,1-.568-1.06,1.414,1.414,0,0,1,.328-.749c.287-.192.615-.118.97-.17l-.239-1.057c.05-.5.389-.709.821-.823a1.947,1.947,0,0,0,1-.394.313.313,0,0,0-.106-.345A1,1,0,0,1,92,114.267c.019-.048.04-.095.06-.142a1.882,1.882,0,0,1,1.458-.625c.46-.038.923-.048,1.341-.069.187-.15.128-.318.148-.465a9.02,9.02,0,0,1,.159-1.075,1.05,1.05,0,0,1,1.387-.769,4.584,4.584,0,0,1,.581.219c.239.1.474.209.7.312.2-.152.121-.4.258-.565a1.613,1.613,0,0,1,.479-.425c.756-.127,1.255.483,1.9.756l.5-.883a1.8,1.8,0,0,1,1.445-.174A12,12,0,0,0,103.771,110.492Zm8.612,14.57c.1-.26.406-.486.585-.808a1.894,1.894,0,0,1-.084-1.583c.25-.6.52-1.189.779-1.783a.332.332,0,0,0-.008-.374c-.064-.014-.137-.035-.212-.047a1.155,1.155,0,0,1-1.013-.943,5.176,5.176,0,0,1-.247-1.528,2.191,2.191,0,0,0-.046-.378c-.436-.217-.85-.429-1.27-.628a.793.793,0,0,0-.373-.1,1.193,1.193,0,0,1-.822-.373,2.626,2.626,0,0,1-.292-.774c-.739-.45-.818-1.271-1.2-1.919a1.478,1.478,0,0,1-.959.461c-.821-.2-1.031-1.057-1.589-1.472a1.036,1.036,0,0,0-.712.15,3.216,3.216,0,0,1-.577.231,1.061,1.061,0,0,1-1.381-.884c-.035-.171.032-.371-.166-.539a3.729,3.729,0,0,0-.973-.048,1.154,1.154,0,0,0-.1.3,1.637,1.637,0,0,1-.218.662.726.726,0,0,1-.981.372,6.308,6.308,0,0,1-.628-.309c-.206-.108-.408-.225-.629-.347a.8.8,0,0,0-.09.226.724.724,0,0,1-.427.687.858.858,0,0,1-.887-.009c-.31-.186-.639-.342-.951-.526a.473.473,0,0,0-.441-.079c-.221.435-.035.925-.169,1.4l-.435.553c-.323.064-.652.132-.982.2a3.19,3.19,0,0,0-.956.229,2.37,2.37,0,0,1,.225.9.86.86,0,0,1-.789.677,6.749,6.749,0,0,0-1.469.436l.577.957a2.527,2.527,0,0,1-.021.766.917.917,0,0,1-.83.41c-.132.008-.261.03-.3.178.005.267.265.388.322.62a1.308,1.308,0,0,1-.189.584c-.11.215-.425.2-.491.406.109.416.187.8.312,1.168a6.426,6.426,0,0,1,.083,1.226,2.621,2.621,0,0,0,1.1.1,1.622,1.622,0,0,1,1.271.138,3.657,3.657,0,0,1,1.125-.5,3.073,3.073,0,0,1,1.06.458c.011-.471.04-.885.026-1.3a2.742,2.742,0,0,1,.3-1.278c.429-.4.887-.151,1.335-.177a2.119,2.119,0,0,1,.7-1.645l.657-.174a9.023,9.023,0,0,1,2.126-1.406,1,1,0,0,1,1.009-.031l.471.63c.306-.089.576-.182.853-.244a.981.981,0,0,1,.97.191c.175.239.07.517.27.708.485.115,1.033-.08,1.537.234a1.687,1.687,0,0,1,.5,1c.115.713.225,1.427.335,2.129l1.05.8.136.451a1.834,1.834,0,0,1-.478,1.079l.223.592a1.806,1.806,0,0,1-.271.835c-.041.108-.354.079-.506.345a2.418,2.418,0,0,1,.131,1.4.65.65,0,0,1-.429.316c-.29.012-.583-.238-.9-.029.037.556.5,1.062.165,1.67a1.263,1.263,0,0,1-.921.474.364.364,0,0,0-.343.2,1.42,1.42,0,0,1,.024,1.079,1.712,1.712,0,0,1-.859.4c-.148.051-.3.081-.389.276a3.229,3.229,0,0,0,.248.694,1.2,1.2,0,0,1,.058,1.116,1.218,1.218,0,0,1-1.022.488,1.456,1.456,0,0,0-.616.076c.095.3.188.566.261.838a1.081,1.081,0,0,1-.957,1.324,1.043,1.043,0,0,0-.784.209,3.579,3.579,0,0,1-.23,2.289.737.737,0,0,1-.539.5c-.224.069-.471-.015-.679.117-.007.03-.023.057-.018.08a.779.779,0,0,0,.086.287.953.953,0,0,1,.115,1.075,1.891,1.891,0,0,1-1.529.527c.1.429.594.551.666.94a.5.5,0,0,1-.5.442c-.155.012-.312.005-.468,0a2.574,2.574,0,0,0-1.022.2c.327.553.353,1.192.658,1.787.491-.051.991-.243,1.417.12.377-.248.567-.659.947-.834h.462a3.718,3.718,0,0,1,1.1,2.162,1.151,1.151,0,0,0,.815.1c-.147-.357-.306-.684-.418-1.027a3.1,3.1,0,0,1-.213-1.064,1.105,1.105,0,0,1,.2-.391c.442-.2.707,0,1-.006a3.251,3.251,0,0,1,.132-1.6,1.167,1.167,0,0,1,.444-.222c.278-.082.45.229.753.188,0-.3.013-.585,0-.869a5.853,5.853,0,0,0-.1-.611,1.051,1.051,0,0,1,.21-1.006c.485-.239.989-.028,1.462-.1a2.9,2.9,0,0,0,.225-1.23,1.646,1.646,0,0,1,.291-1.011,1.14,1.14,0,0,1,1.182-.167c.141.04.273.167.441,0a2.74,2.74,0,0,0,.042-.827.933.933,0,0,1,.43-.935c.239-.141.582.047.781-.219a5.038,5.038,0,0,1-.265-1.238c.207-.5.345-.694.63-.845a1.4,1.4,0,0,1,.98-.12,1.311,1.311,0,0,0,.74.025c.208-.468.126-1.042.438-1.531a1.364,1.364,0,0,1-.567-1.572,7.358,7.358,0,0,1,1.086-1.543,1.806,1.806,0,0,0,.309-.445,1.689,1.689,0,0,1,.951-.874,4.214,4.214,0,0,0-.645-1.257A1.115,1.115,0,0,1,112.383,125.063Z"/>
          <path id="Trazado_117045" data-name="Trazado 117045" d="M99.281,176.494c.318-.293.768-.1,1.1-.316l.76.152c.717.375.74,1.2,1.132,1.774a.541.541,0,0,0,.468.009c.529-.129,1.057-.266,1.586-.4.548-.136.619-.1,1.03.462a.943.943,0,0,1-.52.7,2.39,2.39,0,0,0-.887.876c.213.209.548.264.621.65a20.407,20.407,0,0,1-.769,2.986l-.45.215c-.577-.082-.943-.523-1.422-.83-.289.251-.558.485-.827.722-.1.085-.184.183-.286.263a.912.912,0,0,1-1.367-.13,7.4,7.4,0,0,1-.411-.655c-.082-.128-.085-.306-.264-.395-.415.231-.837.472-1.265.7s-.422.224-1.041.164a.609.609,0,0,1-.209-.815,4.661,4.661,0,0,1,1.235-1.882,2.652,2.652,0,0,0-.892-.623,1.687,1.687,0,0,1-.869-1.007.72.72,0,0,1,.5-.665,2.044,2.044,0,0,1,1.068-.128,7.307,7.307,0,0,0,.925.02,3.164,3.164,0,0,0,.411-.063A2.868,2.868,0,0,1,99.281,176.494Zm.5,3.014a8.737,8.737,0,0,1-.839.247c-.263.05-.564-.082-.847.141.173.276.478.44.532.761.022.221-.189.38-.213.695a1.275,1.275,0,0,1,1.557-.292c.1.124.251.3.386.489s.157.49.36.65c.578-.231.853-.908,1.674-.9.136-.009.29.281.591.293a1.953,1.953,0,0,0,.247-.733c-.235-.173-.619-.1-.82-.458,0-.129.011-.309,0-.487s.247-.288.072-.494c-.366.1-.73.306-1.14.038-.046-.085-.113-.195-.166-.31-.065-.14-.118-.285-.179-.428a2,2,0,0,0-.159-.352c-.075-.111-.073-.3-.3-.312a6,6,0,0,0-.361,1.013Z" transform="translate(-2.596 -26.927)"/>
        </g>
        <g id="Grupo_83466" data-name="Grupo 83466" transform="matrix(0.602, 0.799, -0.799, 0.602, 168.705, -174.538)">
          <path id="Trazado_117046" data-name="Trazado 117046" d="M89.109,217.494a.567.567,0,0,1-.412-.02c-1.116-.378-2.2-.829-3.286-1.293-.161-.069-.313-.144-.356-.354a2.457,2.457,0,0,1,.233-.682,13.156,13.156,0,0,1,2.284-3.525,12.454,12.454,0,0,1,7.381-4.089,11.322,11.322,0,0,1,3.294-.06,8.474,8.474,0,0,1,2.83.819,6.879,6.879,0,0,1,3.69,4.339,10.7,10.7,0,0,1,.393,3.888,11.855,11.855,0,0,1-3.148,7.109c-.415.47-.844.928-1.274,1.384a17.142,17.142,0,0,0-2.245,2.868,10.748,10.748,0,0,0-1.378,3.718q-.154.871-.22,1.752c-.007.093-.025.186-.033.25a.542.542,0,0,1-.523.226l-2.737-.039c-.247,0-.494-.014-.741-.023a1,1,0,0,1-.446-.062.373.373,0,0,1-.171-.341,31.675,31.675,0,0,1,.484-4.127,18.953,18.953,0,0,1,1.358-3.921,19.877,19.877,0,0,1,3-4.488c.395-.462.783-.931,1.152-1.414a7.206,7.206,0,0,0,1.322-2.63,3.883,3.883,0,0,0-.13-2.406,2.577,2.577,0,0,0-1.168-1.35,4.553,4.553,0,0,0-3.848-.336,8.979,8.979,0,0,0-2.914,1.747,10.459,10.459,0,0,0-2.105,2.674A.953.953,0,0,1,89.109,217.494Zm11.128-1.027a3.346,3.346,0,0,0,1.093-.062c.36-.026.718-.07,1.077-.1s.723-.026,1.08-.072a9.881,9.881,0,0,0,1.047-.109c.3-1.223-.37-4.219-1.086-4.868q-1.614,1.293-3.233,2.59a.549.549,0,0,0-.227.286A5.133,5.133,0,0,1,100.238,216.467Zm-3.03-4.5c.257-1.333.481-2.6.635-3.852-.143-.159-.3-.126-.451-.135a11.2,11.2,0,0,0-4.149.586.293.293,0,0,0-.228.188c.035.083.078.187.124.29q.608,1.351,1.216,2.7c.046.1.07.22.22.28A5.436,5.436,0,0,1,97.208,211.963Zm5.634,9.585c-1.407-.5-2.749-.955-4.107-1.367a1.543,1.543,0,0,0-.263-.035,25.04,25.04,0,0,0-1.8,2.146c-.016.024,0,.07.005.105a28.1,28.1,0,0,0,3.987,1.827A15.689,15.689,0,0,0,102.842,221.548Zm-14.08-4.705a11.193,11.193,0,0,1,1.776-2.322,2.928,2.928,0,0,0-.669-.564c-.241-.184-.49-.359-.736-.536-.231-.166-.459-.338-.7-.494a4.754,4.754,0,0,0-.741-.487,9.52,9.52,0,0,0-1.926,3.206A20.845,20.845,0,0,0,88.762,216.843Zm9.306,10.577c-.528-.074-.954-.153-1.382-.219s-.86-.147-1.291-.218a6.832,6.832,0,0,0-1.268-.181,9.106,9.106,0,0,0-.87,3.173.477.477,0,0,0,.328.06q1.481-.026,2.961-.055a.57.57,0,0,0,.379-.1A12.506,12.506,0,0,1,98.068,227.42Z" transform="translate(0)"/>
          <path id="Trazado_117047" data-name="Trazado 117047" d="M105.765,276.306a.4.4,0,0,1-.3.143,14.378,14.378,0,0,1-2.162.062c-.455-.02-.91-.049-1.365-.078-.268-.017-.268-.02-.529-.268a26.709,26.709,0,0,1-.017-3.175.365.365,0,0,1,.3-.125l3.248-.048a2.466,2.466,0,0,1,.756.1.327.327,0,0,1,.139.271q-.013,1.51-.032,3.019A.305.305,0,0,1,105.765,276.306Z" transform="translate(-9.159 -36.781)"/>
        </g>
        <g id="Grupo_83467" data-name="Grupo 83467" transform="translate(-56.55 -96.262) rotate(19)">
          <path id="Trazado_117048" data-name="Trazado 117048" d="M104.227,76.79a13.827,13.827,0,0,0-.2-3.619,7.424,7.424,0,0,1,.637-4.54c.619-1.27,1.147-2.586,1.677-3.9a8.976,8.976,0,0,0,.462-1.628,4.5,4.5,0,0,1,1.333-2.44,17.237,17.237,0,0,0,2.981-3.759,6.767,6.767,0,0,1,1.9-2.079,19.678,19.678,0,0,0,3.813-3.77,31.269,31.269,0,0,0,2.709-3.625,3.464,3.464,0,0,1,1.1-1.089,13.763,13.763,0,0,0,3.954-4.376,49.367,49.367,0,0,1,2.794-4.259,7.066,7.066,0,0,0,1.241-2.826,4.042,4.042,0,0,0-.225-2.493A26.19,26.19,0,0,0,126.647,29a4,4,0,0,0-3.782-2.036c-.754.02-1.509-.006-2.264-.031a6.171,6.171,0,0,0-2.752.528,20.983,20.983,0,0,0-4.894,3.08c-.871.723-1.72,1.473-2.594,2.193a4.578,4.578,0,0,0-1.089,1.29,9.028,9.028,0,0,0-1.439,3.946,1.279,1.279,0,0,1-1.007,1.221,10.286,10.286,0,0,0-1.068.37,2.682,2.682,0,0,1-1.529.14c-.883-.153-1.76-.332-2.64-.5a4.124,4.124,0,0,1-.413-.1c-1.851-.567-2.439-1.493-2.1-3.387a11.742,11.742,0,0,1,1.387-3.691q1.4-2.464,2.988-4.807a16,16,0,0,1,8.444-6.34c1.88-.624,3.732-1.318,5.593-1.993a21.267,21.267,0,0,1,2.85-.821,7.641,7.641,0,0,1,3.643.085,30.669,30.669,0,0,1,6.364,2.32,13.484,13.484,0,0,1,1.669,1.056,4.3,4.3,0,0,1,1.307,1.651,37.938,37.938,0,0,1,2.667,6.841,4.681,4.681,0,0,1,.034,2.507,37.2,37.2,0,0,0-.665,4.9c-.068.467-.122.936-.169,1.4a5.644,5.644,0,0,1-1.162,2.844c-1.1,1.476-2.169,2.971-3.26,4.452a4.961,4.961,0,0,0-.788,1.334,2.449,2.449,0,0,1-1.4,1.5,3.2,3.2,0,0,0-1.087.886c-1.384,1.61-2.778,3.213-4.16,4.825a17.053,17.053,0,0,0-1.9,2.637,9.378,9.378,0,0,1-1.376,1.793,24.667,24.667,0,0,0-4.22,6.494,20.235,20.235,0,0,0-1.729,6.086c-.159,1.167-.357,2.329-.557,3.491a3.95,3.95,0,0,1-.278.943,1.376,1.376,0,0,1-1.576.927,9.36,9.36,0,0,0-3.78.231c-.7.1-1.381.307-2.08.4A1.323,1.323,0,0,1,104.227,76.79ZM128.12,21.056a1.451,1.451,0,0,0-.346.231,4.535,4.535,0,0,1-2.672,1.467c-.322.072-.639.171-.964.223A8.318,8.318,0,0,0,121,24.2a10.093,10.093,0,0,1-3.525,1.393,10.955,10.955,0,0,0-3.787,1.5,17,17,0,0,1-4.651,2.016,49.445,49.445,0,0,0-6.759,2.575,7.631,7.631,0,0,0-1.067,3.109c.316.165.5-.022.7-.12,1.309-.646,2.608-1.313,3.924-1.945a9.735,9.735,0,0,0,2.049-1.241,5.2,5.2,0,0,1,1.995-1.026,3.68,3.68,0,0,0,.909-.37c1.543-.906,3.082-1.821,4.649-2.684a48.923,48.923,0,0,1,5.036-2.226,3.2,3.2,0,0,1,2.61.052c.3.133.6.251,1,.416,1.752-1.206,3.564-2.363,5.261-3.789A2.607,2.607,0,0,0,128.12,21.056ZM109.705,61.687a12.9,12.9,0,0,0,2.288-1.557,7.994,7.994,0,0,1,3.287-1.86,10.214,10.214,0,0,0,2.8-1.32,5.96,5.96,0,0,1,1.22-.705,5.376,5.376,0,0,0,2.261-1.631c.563-.635,1.141-1.256,1.683-1.908a45.48,45.48,0,0,1,3.491-3.89,5.111,5.111,0,0,0,.548-.643.336.336,0,0,0-.083-.517c-.185.109-.39.218-.581.347-.977.659-1.939,1.339-2.927,1.98a16.961,16.961,0,0,0-2.856,2.3,10.336,10.336,0,0,1-3.611,2.417,9.394,9.394,0,0,0-3.187,2.049,18.58,18.58,0,0,1-1.676,1.512,13.793,13.793,0,0,0-2.421,2.561A.776.776,0,0,0,109.705,61.687Zm8.5-3.38a7.681,7.681,0,0,0-2.1,1.178,9.42,9.42,0,0,1-2.482,1.327,8,8,0,0,0-2.343,1.287,13.238,13.238,0,0,1-2.563,1.626,13.816,13.816,0,0,0-2.143,4.505c-.071.25-.2.523.081.805a4.582,4.582,0,0,0,.533-.436,13.785,13.785,0,0,1,4.11-2.952,7.757,7.757,0,0,0,1.424-.911,11.437,11.437,0,0,1,2.423-1.573A20.816,20.816,0,0,0,118.2,58.307Zm.249-6.867c.3.076.517-.128.772-.2a9,9,0,0,0,4.239-2.669,14.589,14.589,0,0,1,4.244-3.009c.715-.356,1.452-.67,2.194-.967a1.935,1.935,0,0,0,.94-.586,14.405,14.405,0,0,0,1.981-3.243c.044-.115.132-.257-.118-.4-.151.119-.332.259-.511.4a10.905,10.905,0,0,1-2.93,1.675c-1.322.507-2.543,1.222-3.811,1.839a7.457,7.457,0,0,0-3,2.686,8.681,8.681,0,0,1-1.891,2.075,16.728,16.728,0,0,0-1.775,1.814C118.634,51.023,118.427,51.165,118.451,51.44ZM103.906,29.59a.3.3,0,0,0,.428.109c1.011-.5,2.049-.963,3.022-1.534a24.47,24.47,0,0,1,5.822-2.505,10.642,10.642,0,0,0,2.957-1.313,10.794,10.794,0,0,1,4.03-1.628,8.525,8.525,0,0,0,2.641-.97c.784-.433,1.571-.858,2.354-1.291a.3.3,0,0,0,.194-.379,2.567,2.567,0,0,0-2.736,0,3.839,3.839,0,0,1-.911.381,13.569,13.569,0,0,0-2.927,1.392,12.43,12.43,0,0,1-3.067,1.425c-2.86.812-5.55,2.085-8.413,3Zm9.432,36.178a3.732,3.732,0,0,0-1.62,1.218,9.51,9.51,0,0,1-3.29,2.387,6.755,6.755,0,0,0-2.177,1.49c-.761,2.064-.848,2.808-.43,3.977.607-.469,1.317-.77,1.7-1.462a2.824,2.824,0,0,1,1.5-1.229,7.3,7.3,0,0,0,2.013-1.292,11.843,11.843,0,0,1,2.088-1.583C113.374,68.13,113.15,67.049,113.338,65.768Zm17.344-42.529a21.711,21.711,0,0,0-5.231,3.081,12.231,12.231,0,0,1,3.021,1.818c1.327-1.211,3.069-1.7,4.3-3.027A7.9,7.9,0,0,0,130.682,23.239ZM129.24,37.834a6.474,6.474,0,0,1-1.846,3.283c-.292.306-.576.623-.839.954-.086.109-.34.229-.059.476a8.034,8.034,0,0,0,2.277-1.592,11.178,11.178,0,0,1,3.241-2.224c.721-.335,1.415-.728,2.071-1.069.441-1.759.459-2.032.172-2.954a4.762,4.762,0,0,1-2.4,1.453,2.342,2.342,0,0,0-.61.35C130.621,36.92,129.995,37.336,129.24,37.834Zm-21.192-4.5a43.236,43.236,0,0,0-6.882,3.021,1.2,1.2,0,0,0,.028,1.088c1.452.538,2.84-.192,4.311-.2A21.43,21.43,0,0,1,108.048,33.337Zm21.716,2.889a2.815,2.815,0,0,0,1.744-1.133,4.786,4.786,0,0,1,1.628-1.313,2.544,2.544,0,0,0,1.207-.973,8.827,8.827,0,0,0-.476-1.9,8.442,8.442,0,0,0-3.672,1.818A22.009,22.009,0,0,1,129.764,36.226Zm.306-4.655a8.881,8.881,0,0,0,2.09-1.461c.629-.56,1.293-1.079,1.933-1.609a5.763,5.763,0,0,0-.42-1.669c-.092-.219-.179-.437-.514-.433a3.814,3.814,0,0,0-.906.831,7.8,7.8,0,0,1-2.72,2.482Zm-17.7,39.919a5.707,5.707,0,0,0-1.749,1.416,4.058,4.058,0,0,1-2.806,1.707,1.525,1.525,0,0,0-1.268.981,9.526,9.526,0,0,0,4.824-.638c.32-.921.664-1.9.993-2.874A2.5,2.5,0,0,0,112.374,71.49Zm3.858-50.344a8.945,8.945,0,0,0-7.325,3.752,1.362,1.362,0,0,0,.265-.03C111.751,24.072,113.928,22.516,116.232,21.146Z"/>
          <path id="Trazado_117049" data-name="Trazado 117049" d="M110.041,92.964a21.77,21.77,0,0,1-2.511-.334,4.89,4.89,0,0,1-3.842-5.939,7.993,7.993,0,0,1,2.565-4.288,3.918,3.918,0,0,1,4.074-.811,6.318,6.318,0,0,1,3.781,2.976c.134.247.329.46.472.7a3.872,3.872,0,0,1,.5,2.577,7.989,7.989,0,0,1-.836,2.531A4.315,4.315,0,0,1,110.041,92.964Zm-3.489-2.62c2.107-1.577,4.36-2.754,6.38-4.427-.272-.4-.041-.986-.558-1.4-1.04.74-2.06,1.485-3.1,2.2s-2.3,1.052-3.391,1.672A2.473,2.473,0,0,0,106.552,90.344Zm5.222-6.562a.807.807,0,0,0-.724-.439,12,12,0,0,0-2.541.092,2.935,2.935,0,0,0-2.591,2.279.517.517,0,0,0,.123.649,21.587,21.587,0,0,1,2.889-1.1A7.774,7.774,0,0,0,111.774,83.782Zm-4.285,7.06c2.205.836,3.647.448,4.872-1.194.167-.224.307-.468.454-.706.106-.171.134-.338-.132-.508A30.647,30.647,0,0,0,107.489,90.842Z"/>
        </g>
      </g>
      <path id="Trazado_125317" data-name="Trazado 125317" d="M.762,8.215a7.651,7.651,0,0,1,.513-3.164,8.216,8.216,0,0,1,1.567-2.49A10.037,10.037,0,0,1,5.156.7,15.877,15.877,0,0,1,7.866-.574a16.355,16.355,0,0,1,2.769-.732,14.971,14.971,0,0,1,2.49-.234,10.186,10.186,0,0,1,3.911.718A8.712,8.712,0,0,1,20,1.14a8.449,8.449,0,0,1,1.86,2.944A10.24,10.24,0,0,1,22.5,7.746a14.839,14.839,0,0,1-.513,3.75A32.314,32.314,0,0,1,20.64,15.51q-.835,2.051-1.919,4.116t-2.2,4.072q-1.113,2.007-2.2,3.9t-1.919,3.589a30.267,30.267,0,0,0-1.348,3.135,7.643,7.643,0,0,0-.513,2.52,2.627,2.627,0,0,1-.22,1.1,2.762,2.762,0,0,1-.557.82,2.486,2.486,0,0,1-.776.527,2.195,2.195,0,0,1-.879.19,1.905,1.905,0,0,1-1.377-.615,2.781,2.781,0,0,1-.615-2.021A21.143,21.143,0,0,1,6.9,30.993a32.853,32.853,0,0,1,1.948-5.156A49.693,49.693,0,0,1,11.4,21.164q1.377-2.227,2.549-4.38a31.405,31.405,0,0,0,1.948-4.292,12.7,12.7,0,0,0,.776-4.365A10.845,10.845,0,0,0,16.6,6.984a3.28,3.28,0,0,0-.439-1.3,3.014,3.014,0,0,0-1.113-1.069,4.225,4.225,0,0,0-2.124-.439,8.2,8.2,0,0,0-1.875.234A6.388,6.388,0,0,0,9.1,5.241a7.735,7.735,0,0,0-1.787,1.6A8.285,8.285,0,0,0,5.918,9.387a2.777,2.777,0,0,1-.5.879,3.435,3.435,0,0,1-.718.645,3.169,3.169,0,0,1-.82.4,2.639,2.639,0,0,1-.776.132,2.024,2.024,0,0,1-1.582-.864A3.883,3.883,0,0,1,.762,8.215Zm3.9,37.822a5.633,5.633,0,0,1,.22-1.6,3.817,3.817,0,0,1,.659-1.3,2.96,2.96,0,0,1,1.113-.864A3.7,3.7,0,0,1,8.2,41.965a4.308,4.308,0,0,1,1.216.176,2.8,2.8,0,0,1,1.069.586,3.057,3.057,0,0,1,.762,1.055,3.9,3.9,0,0,1,.293,1.611,4.48,4.48,0,0,1-.322,1.758,3.479,3.479,0,0,1-.879,1.26,3.719,3.719,0,0,1-1.274.747,4.482,4.482,0,0,1-1.479.249,2.992,2.992,0,0,1-1.479-.322,2.56,2.56,0,0,1-.894-.806,2.951,2.951,0,0,1-.439-1.084A6.042,6.042,0,0,1,4.658,46.037Z" transform="translate(1245.244 232.095) rotate(15)"/>
    </g>
  </g>
</svg>
