<svg xmlns="http://www.w3.org/2000/svg" width="40.19" height="54.915" viewBox="0 0 40.19 54.915">
  <g id="Grupo_82653" data-name="Grupo 82653" transform="translate(-105.705 -276.33)">
    <g id="Grupo_81077" data-name="Grupo 81077" transform="translate(121.783 276.33)">
      <g id="Grupo_81074" data-name="Grupo 81074" transform="translate(1.405 1.405)" style="mix-blend-mode: overlay;isolation: isolate">
        <path id="Trazado_115029" data-name="Trazado 115029" d="M147.856,307.878a1.236,1.236,0,0,1-.442-.082c-3.682-1.434-7.316-3.005-10.8-4.671l-.363-.174.465-6.922.384-.123c2.409-.77,4.979-1.621,7.445-2.63a15.472,15.472,0,0,0,5.254-3.111,2.408,2.408,0,0,0,.89-1.858,1.82,1.82,0,0,0-1.192-1.237,3.739,3.739,0,0,0-1.4-.254,5.511,5.511,0,0,0-1.539.233,11.329,11.329,0,0,0-2.081.89,1.239,1.239,0,0,1-.573.142,1.226,1.226,0,0,1-1.1-.68l-1.41-2.871a1.206,1.206,0,0,1,.063-1.193,7.764,7.764,0,0,1,3.556-2.938,9.4,9.4,0,0,1,3.637-.7,11.253,11.253,0,0,1,1.8.149,9.609,9.609,0,0,1,4.936,2.289,7.01,7.01,0,0,1,2.356,4.97,7.744,7.744,0,0,1-1.617,4.642,16.464,16.464,0,0,1-3.455,3.295,41.292,41.292,0,0,1-7.226,4.331l-.2.636.2-.559,4.707,1.683a1.229,1.229,0,0,1,.711,1.648l-1.877,4.345A1.226,1.226,0,0,1,147.856,307.878Z" transform="translate(-135.63 -279.108)" fill="#3c384f"/>
        <path id="Trazado_115030" data-name="Trazado 115030" d="M148.222,279.886a10.563,10.563,0,0,1,1.708.141,9.067,9.067,0,0,1,4.632,2.141,6.463,6.463,0,0,1,2.163,4.544,7.143,7.143,0,0,1-1.5,4.281,15.886,15.886,0,0,1-3.333,3.171,40.624,40.624,0,0,1-7.121,4.267.634.634,0,0,0,.054,1.173q2.355.84,4.707,1.684a.636.636,0,0,1,.367.853l-1.878,4.345a.637.637,0,0,1-.815.348q-5.465-2.127-10.762-4.652c.2-2.975.21-3.145.41-6.119,2.526-.807,5.036-1.642,7.489-2.645a15.977,15.977,0,0,0,5.45-3.241,2.907,2.907,0,0,0,1.054-2.375,2.378,2.378,0,0,0-1.558-1.689,4.316,4.316,0,0,0-1.617-.3,6.137,6.137,0,0,0-1.705.257,11.755,11.755,0,0,0-2.19.934.641.641,0,0,1-.869-.28q-.7-1.428-1.407-2.867a.616.616,0,0,1,.027-.607,7.181,7.181,0,0,1,3.288-2.715,8.854,8.854,0,0,1,3.41-.652m0-1.185h0a9.987,9.987,0,0,0-3.866.744,8.373,8.373,0,0,0-3.833,3.173,1.8,1.8,0,0,0-.086,1.776l1.4,2.858a1.825,1.825,0,0,0,2.482.807,10.828,10.828,0,0,1,1.971-.846,4.941,4.941,0,0,1,1.376-.21,3.131,3.131,0,0,1,1.175.21,1.26,1.26,0,0,1,.831.784c.056.335-.209.824-.726,1.346a14.962,14.962,0,0,1-5.053,2.977c-2.449,1-5.005,1.848-7.4,2.614l-.767.245-.055.8-.205,3.062-.205,3.057-.054.8.726.347c3.5,1.672,7.148,3.249,10.843,4.687a1.8,1.8,0,0,0,.657.123,1.819,1.819,0,0,0,1.681-1.117l1-2.316.872-2.018a1.822,1.822,0,0,0-1.05-2.438l-2.361-.844-1.12-.4a41.916,41.916,0,0,0,6.145-3.815,17.015,17.015,0,0,0,3.578-3.418,8.333,8.333,0,0,0,1.733-5,7.605,7.605,0,0,0-2.548-5.4,10.185,10.185,0,0,0-5.237-2.435,11.76,11.76,0,0,0-1.9-.158Z" transform="translate(-135.205 -278.701)" fill="#3c384f"/>
      </g>
      <g id="Grupo_81076" data-name="Grupo 81076" transform="translate(0)">
        <g id="Grupo_81075" data-name="Grupo 81075">
          <path id="Trazado_115031" data-name="Trazado 115031" d="M145.485,305.507a1.219,1.219,0,0,1-.441-.082c-3.682-1.434-7.317-3-10.8-4.671l-.363-.174.465-6.921.383-.123c2.41-.77,4.979-1.622,7.445-2.63a15.477,15.477,0,0,0,5.254-3.111,2.411,2.411,0,0,0,.89-1.859,1.821,1.821,0,0,0-1.192-1.236,3.724,3.724,0,0,0-1.4-.254,5.535,5.535,0,0,0-1.539.232,11.345,11.345,0,0,0-2.08.89,1.23,1.23,0,0,1-1.674-.538l-1.41-2.872a1.2,1.2,0,0,1,.063-1.192,7.761,7.761,0,0,1,3.556-2.938,9.4,9.4,0,0,1,3.636-.7,11.258,11.258,0,0,1,1.805.149,9.612,9.612,0,0,1,4.936,2.288,7.01,7.01,0,0,1,2.356,4.971,7.75,7.75,0,0,1-1.617,4.642,16.47,16.47,0,0,1-3.455,3.294,41.281,41.281,0,0,1-7.226,4.33l-.2.637.2-.559,4.707,1.683a1.23,1.23,0,0,1,.711,1.648l-1.877,4.344A1.226,1.226,0,0,1,145.485,305.507Z" transform="translate(-133.259 -276.737)" fill="#ffd947"/>
          <path id="Trazado_115032" data-name="Trazado 115032" d="M145.851,277.515a10.578,10.578,0,0,1,1.708.141,9.067,9.067,0,0,1,4.632,2.141,6.464,6.464,0,0,1,2.163,4.544,7.143,7.143,0,0,1-1.5,4.281,15.874,15.874,0,0,1-3.334,3.171,40.632,40.632,0,0,1-7.12,4.267.634.634,0,0,0,.054,1.173q2.355.84,4.707,1.683a.636.636,0,0,1,.367.853l-1.878,4.345a.639.639,0,0,1-.589.391.626.626,0,0,1-.228-.043c-3.643-1.418-7.239-2.969-10.762-4.652.2-2.974.21-3.144.411-6.118,2.526-.808,5.036-1.642,7.489-2.645a15.987,15.987,0,0,0,5.449-3.241,2.906,2.906,0,0,0,1.054-2.375,2.381,2.381,0,0,0-1.558-1.69,4.329,4.329,0,0,0-1.618-.3,6.136,6.136,0,0,0-1.7.256,11.8,11.8,0,0,0-2.19.934.64.64,0,0,1-.869-.279l-1.408-2.867a.617.617,0,0,1,.027-.608,7.183,7.183,0,0,1,3.288-2.715,8.852,8.852,0,0,1,3.41-.653m0-1.185h0a9.99,9.99,0,0,0-3.866.744,8.368,8.368,0,0,0-3.832,3.173,1.8,1.8,0,0,0-.086,1.776l1.4,2.858a1.825,1.825,0,0,0,2.482.808,10.765,10.765,0,0,1,1.971-.846,4.915,4.915,0,0,1,1.375-.21,3.136,3.136,0,0,1,1.175.21,1.259,1.259,0,0,1,.831.784c.056.335-.209.824-.726,1.345a14.953,14.953,0,0,1-5.053,2.977c-2.449,1-5.005,1.848-7.4,2.614l-.767.245-.055.8-.205,3.062-.205,3.057-.054.8.725.347c3.5,1.672,7.149,3.249,10.844,4.687a1.822,1.822,0,0,0,2.339-.994l1-2.316.872-2.018a1.823,1.823,0,0,0-1.05-2.438l-2.361-.845-1.12-.4a41.9,41.9,0,0,0,6.145-3.815,17.025,17.025,0,0,0,3.578-3.418,8.334,8.334,0,0,0,1.733-5.005,7.6,7.6,0,0,0-2.549-5.4,10.182,10.182,0,0,0-5.236-2.435,11.759,11.759,0,0,0-1.9-.158Z" transform="translate(-132.834 -276.33)"/>
        </g>
      </g>
    </g>
    <g id="Grupo_81081" data-name="Grupo 81081" transform="translate(105.705 301.187)">
      <g id="Grupo_81078" data-name="Grupo 81078" transform="translate(1.406 1.405)" style="mix-blend-mode: overlay;isolation: isolate">
        <path id="Trazado_115033" data-name="Trazado 115033" d="M122.4,349.112a1.228,1.228,0,0,1-1.091-.668l-1.291-2.524a1.224,1.224,0,0,1,.51-1.639,11.092,11.092,0,0,0,3.3-2.4,4.131,4.131,0,0,0,.912-4.225,2.256,2.256,0,0,0-1.527-1.288,1.74,1.74,0,0,0-.328-.03,2.808,2.808,0,0,0-1.914.91,6.183,6.183,0,0,0-1.016,1.46,1.232,1.232,0,0,1-1.88.356l-1.566-1.331a1.238,1.238,0,0,1-.231-1.607,12.147,12.147,0,0,0,2.369-5.825,3.151,3.151,0,0,0-.186-1.36,1.375,1.375,0,0,0-.775-.792,1.08,1.08,0,0,0-.346-.055,2.073,2.073,0,0,0-.994.308,4.444,4.444,0,0,0-1.693,1.992,8.492,8.492,0,0,0-.526,1.6,1.221,1.221,0,0,1-1.547.9l-2.614-.763a1.239,1.239,0,0,1-.874-1.363c.391-2.51,1-5.083,2.778-6.927a7.266,7.266,0,0,1,5.225-2.2,6.954,6.954,0,0,1,1.032.076,7.182,7.182,0,0,1,5.819,9.142l.034.052a6.667,6.667,0,0,1,1.472-.164,6.966,6.966,0,0,1,3.761,1.111,7.994,7.994,0,0,1,3.44,5.646,9.809,9.809,0,0,1-1.5,6.417,11.393,11.393,0,0,1-8.657,5.183Z" transform="translate(-108.483 -321.052)" fill="#3c384f"/>
        <path id="Trazado_115034" data-name="Trazado 115034" d="M116.683,321.829a6.309,6.309,0,0,1,.945.071,6.59,6.59,0,0,1,5.337,8.393.631.631,0,0,0,.6.807.663.663,0,0,0,.143-.016,5.954,5.954,0,0,1,1.329-.148,6.346,6.346,0,0,1,3.438,1.015,7.4,7.4,0,0,1,3.175,5.227,9.262,9.262,0,0,1-1.419,6.025,10.792,10.792,0,0,1-8.2,4.908h-.043a.641.641,0,0,1-.565-.349l-1.288-2.521a.633.633,0,0,1,.264-.848,11.805,11.805,0,0,0,3.463-2.535,4.688,4.688,0,0,0,1-4.861,2.849,2.849,0,0,0-1.95-1.621,2.384,2.384,0,0,0-.443-.041,3.4,3.4,0,0,0-2.337,1.088,6.9,6.9,0,0,0-1.115,1.6.633.633,0,0,1-.561.334.641.641,0,0,1-.415-.152c-.518-.44-1.042-.882-1.563-1.328a.637.637,0,0,1-.119-.833,12.583,12.583,0,0,0,2.464-6.121,3.739,3.739,0,0,0-.231-1.615,1.958,1.958,0,0,0-1.132-1.124,1.651,1.651,0,0,0-.535-.086,2.65,2.65,0,0,0-1.29.386,5,5,0,0,0-1.934,2.257,9.109,9.109,0,0,0-.565,1.714.628.628,0,0,1-.8.473c-.869-.255-1.743-.508-2.618-.765a.641.641,0,0,1-.455-.706c.376-2.408.946-4.869,2.618-6.6a6.723,6.723,0,0,1,4.8-2.023m0-1.185a7.861,7.861,0,0,0-5.653,2.388c-1.891,1.959-2.528,4.637-2.934,7.239a1.838,1.838,0,0,0,1.29,2.026l1.2.35,1.421.415a1.814,1.814,0,0,0,2.289-1.348,7.844,7.844,0,0,1,.488-1.486,3.856,3.856,0,0,1,1.455-1.726,1.494,1.494,0,0,1,.691-.224.473.473,0,0,1,.152.023.8.8,0,0,1,.421.459,2.6,2.6,0,0,1,.14,1.106,11.67,11.67,0,0,1-2.273,5.528,1.83,1.83,0,0,0,.34,2.377c.309.264.616.524.922.784l.645.548a1.841,1.841,0,0,0,1.184.434,1.819,1.819,0,0,0,1.6-.957,5.674,5.674,0,0,1,.919-1.33,2.244,2.244,0,0,1,1.489-.73,1.194,1.194,0,0,1,.222.02,1.681,1.681,0,0,1,1.1.959,3.541,3.541,0,0,1-.824,3.585,10.593,10.593,0,0,1-3.129,2.266,1.812,1.812,0,0,0-.759,2.429l.631,1.234.658,1.288a1.823,1.823,0,0,0,1.621,1c.041,0,.083,0,.125,0a12,12,0,0,0,9.12-5.459,10.4,10.4,0,0,0,1.592-6.808,8.6,8.6,0,0,0-3.7-6.069,7.566,7.566,0,0,0-4.085-1.206,7.256,7.256,0,0,0-.746.039,7.761,7.761,0,0,0-6.488-9.061,7.541,7.541,0,0,0-1.123-.084Z" transform="translate(-108.077 -320.644)" fill="#3c384f"/>
      </g>
      <g id="Grupo_81080" data-name="Grupo 81080">
        <g id="Grupo_81079" data-name="Grupo 81079">
          <path id="Trazado_115035" data-name="Trazado 115035" d="M120.027,346.74a1.228,1.228,0,0,1-1.09-.668l-1.291-2.525a1.223,1.223,0,0,1,.509-1.639,11.087,11.087,0,0,0,3.3-2.4,4.13,4.13,0,0,0,.911-4.225,2.253,2.253,0,0,0-1.526-1.289,1.788,1.788,0,0,0-.329-.03,2.809,2.809,0,0,0-1.913.91,6.179,6.179,0,0,0-1.016,1.46,1.23,1.23,0,0,1-1.084.648,1.243,1.243,0,0,1-.8-.291l-1.566-1.331a1.238,1.238,0,0,1-.231-1.607,12.15,12.15,0,0,0,2.369-5.825,3.151,3.151,0,0,0-.186-1.36,1.375,1.375,0,0,0-.775-.792,1.069,1.069,0,0,0-.347-.055,2.073,2.073,0,0,0-.993.308,4.441,4.441,0,0,0-1.693,1.992,8.486,8.486,0,0,0-.526,1.6,1.223,1.223,0,0,1-1.547.906l-2.614-.763a1.24,1.24,0,0,1-.875-1.363c.392-2.51,1-5.083,2.778-6.927a7.266,7.266,0,0,1,5.224-2.2,6.956,6.956,0,0,1,1.033.076,7.182,7.182,0,0,1,5.819,9.143l.034.052a6.626,6.626,0,0,1,1.471-.164,6.966,6.966,0,0,1,3.762,1.111,7.993,7.993,0,0,1,3.44,5.646,9.809,9.809,0,0,1-1.5,6.417,11.393,11.393,0,0,1-8.657,5.183Z" transform="translate(-106.112 -318.68)" fill="#ff5f65"/>
          <path id="Trazado_115036" data-name="Trazado 115036" d="M114.312,319.458a6.309,6.309,0,0,1,.945.07,6.589,6.589,0,0,1,5.337,8.393.631.631,0,0,0,.6.807.665.665,0,0,0,.143-.016,5.949,5.949,0,0,1,1.329-.148,6.348,6.348,0,0,1,3.438,1.015,7.4,7.4,0,0,1,3.175,5.226,9.264,9.264,0,0,1-1.419,6.026,10.794,10.794,0,0,1-8.2,4.908h-.043a.643.643,0,0,1-.566-.349l-1.288-2.521a.634.634,0,0,1,.264-.848,11.81,11.81,0,0,0,3.464-2.535,4.687,4.687,0,0,0,1-4.861,2.846,2.846,0,0,0-1.949-1.621,2.391,2.391,0,0,0-.444-.041,3.4,3.4,0,0,0-2.337,1.088,6.9,6.9,0,0,0-1.114,1.6.633.633,0,0,1-.561.334.643.643,0,0,1-.415-.152c-.518-.441-1.042-.883-1.563-1.328a.638.638,0,0,1-.119-.833,12.6,12.6,0,0,0,2.464-6.121,3.744,3.744,0,0,0-.231-1.616,1.961,1.961,0,0,0-1.132-1.123,1.635,1.635,0,0,0-.535-.086,2.641,2.641,0,0,0-1.29.386,4.99,4.99,0,0,0-1.934,2.257,9.1,9.1,0,0,0-.565,1.715.628.628,0,0,1-.8.473c-.869-.255-1.743-.509-2.619-.765a.643.643,0,0,1-.455-.707c.376-2.408.946-4.869,2.619-6.6a6.72,6.72,0,0,1,4.8-2.023m0-1.185a7.859,7.859,0,0,0-5.653,2.387c-1.892,1.96-2.528,4.638-2.935,7.24a1.839,1.839,0,0,0,1.29,2.026l1.2.35q.712.207,1.421.415a1.814,1.814,0,0,0,2.289-1.348,7.887,7.887,0,0,1,.487-1.486,3.857,3.857,0,0,1,1.455-1.726,1.491,1.491,0,0,1,.692-.224.475.475,0,0,1,.152.022.808.808,0,0,1,.421.459,2.605,2.605,0,0,1,.14,1.106A11.665,11.665,0,0,1,113,333.024a1.831,1.831,0,0,0,.341,2.377c.308.264.615.524.922.783l.645.548a1.825,1.825,0,0,0,2.788-.523,5.663,5.663,0,0,1,.919-1.329,2.244,2.244,0,0,1,1.488-.731,1.2,1.2,0,0,1,.223.021,1.679,1.679,0,0,1,1.1.959,3.54,3.54,0,0,1-.824,3.584,10.588,10.588,0,0,1-3.129,2.266,1.813,1.813,0,0,0-.758,2.429l.631,1.234.658,1.288a1.824,1.824,0,0,0,1.621,1c.041,0,.083,0,.125,0a12,12,0,0,0,9.12-5.459,10.4,10.4,0,0,0,1.592-6.808,8.592,8.592,0,0,0-3.705-6.069,7.563,7.563,0,0,0-4.084-1.206,7.423,7.423,0,0,0-.746.038,7.762,7.762,0,0,0-6.488-9.061,7.629,7.629,0,0,0-1.123-.084Z" transform="translate(-105.705 -318.273)"/>
        </g>
      </g>
    </g>
  </g>
</svg>
