<svg xmlns="http://www.w3.org/2000/svg" width="192.203" height="256.063" viewBox="0 0 192.203 256.063">
  <g id="Grupo_157039" data-name="Grupo 157039" transform="translate(-889 -205.604)">
    <g id="Grupo_81069" data-name="Grupo 81069" transform="translate(771.577 205.518)">
      <g id="Grupo_81065" data-name="Grupo 81065" style="mix-blend-mode: overlay;isolation: isolate">
        <path id="Trazado_115015" data-name="Trazado 115015" d="M201.459,222.3c-4.818,4.93-9.8,9.679-14.871,14.344,2.194-4.96,4.559-9.841,6.642-14.853,2.361-5.682,5.106-13.427,2.129-19.387-6.784-13.585-23.933-.255-30.244,6.583-.672.729-1.314,1.49-1.964,2.242,2.255-5.522,4.285-11.2,3.749-17.162-.737-8.2-8.257-10.171-14.731-6.359-6.952,4.092-12.536,11.173-17.2,17.6-3.96,5.462,5.1,10.662,9.03,5.278a71.032,71.032,0,0,1,7.059-8.257q-.562,1.03-1.137,2.057a153.28,153.28,0,0,0-7.1,13.831c-3.952,9.119-9.8,21.744-4.825,31.336,2.506,4.834,8.382,5.325,12.806,3.358,5.947-2.644,10.066-8.481,14.037-13.421,4.145-5.158,7.8-10.635,11.633-16.017a77.947,77.947,0,0,1,5.041-6.6c.042-.048.086-.092.128-.139l-.046.145c-1.019,3.168-2.329,6.208-3.656,9.256-2.468,5.671-5.652,11.64-6.556,17.81-.8,5.456,1.41,11.571,7.972,11.175,6.169-.372,11.113-6.314,15.237-10.282,4.994-4.806,9.9-9.707,14.8-14.6C214.523,225.134,206.52,217.128,201.459,222.3Z" fill="#3c384f"/>
        <path id="Trazado_115016" data-name="Trazado 115016" d="M178.771,256.149a7.839,7.839,0,0,1-5.971-2.478c-2.078-2.263-2.976-5.949-2.4-9.86.747-5.1,2.971-9.983,5.121-14.705.515-1.131,1.025-2.251,1.507-3.359.457-1.051.938-2.155,1.415-3.3q-.438.61-.867,1.214l-.284.4c-1,1.4-1.981,2.8-2.964,4.206-2.761,3.94-5.616,8.015-8.7,11.857-.451.561-.9,1.134-1.362,1.713-3.541,4.478-7.554,9.553-13.048,11.995-4.9,2.175-11.313,1.566-14.1-3.811-5.007-9.659.4-22.088,4.347-31.163l.448-1.032c1.161-2.681,2.463-5.3,3.844-7.9q-.48.625-.942,1.26a6.656,6.656,0,0,1-9.394,1.306,5.277,5.277,0,0,1-1.254-7.761c4.977-6.865,10.542-13.783,17.5-17.879,3.862-2.273,8.089-2.642,11.31-.987,2.836,1.457,4.585,4.34,4.924,8.119A30.627,30.627,0,0,1,165.95,206.7c5.135-5.017,14.632-12.132,22.251-11.054,3.5.5,6.209,2.621,8.052,6.312,3.032,6.07.64,13.627-2.1,20.218-1.3,3.138-2.738,6.268-4.125,9.3l-.491,1.071c4.127-3.87,7.819-7.475,11.207-10.941h0a6.009,6.009,0,0,1,5.986-1.778,7.368,7.368,0,0,1,5.1,5.061,6.063,6.063,0,0,1-1.722,6.064l-.558.556c-4.645,4.636-9.448,9.43-14.26,14.059-.593.571-1.2,1.182-1.83,1.812-3.736,3.745-8.385,8.407-14.04,8.748C179.2,256.143,178.984,256.149,178.771,256.149Zm2.869-40.361a.944.944,0,0,1,.484.129.973.973,0,0,1,.472,1.135l-.047.146c-1.068,3.322-2.461,6.523-3.69,9.347-.487,1.119-1,2.249-1.521,3.389-2.092,4.6-4.256,9.348-4.962,14.167-.479,3.272.248,6.421,1.9,8.217a6,6,0,0,0,5.024,1.815c4.9-.3,9.066-4.476,12.745-8.165.638-.639,1.257-1.26,1.859-1.84,4.8-4.617,9.6-9.4,14.235-14.034l.557-.556a4.067,4.067,0,0,0,1.205-4.124,5.383,5.383,0,0,0-3.671-3.649A4.007,4.007,0,0,0,202.175,223h0c-4.377,4.477-9.254,9.181-14.911,14.38a1,1,0,0,1-1.591-1.141c.829-1.875,1.683-3.738,2.537-5.6,1.379-3.012,2.806-6.126,4.1-9.231,2.567-6.174,4.83-13.207,2.158-18.556-1.553-3.112-3.694-4.821-6.545-5.225-7.1-1.006-17.092,6.646-22.069,12.04-.531.574-1.042,1.17-1.554,1.766l-.387.451a1,1,0,0,1-1.683-1.031c2.147-5.26,4.2-10.882,3.678-16.7-.28-3.115-1.61-5.369-3.846-6.518-2.608-1.34-6.115-.991-9.382.931-6.642,3.911-12.046,10.64-16.9,17.33a3.316,3.316,0,0,0,.811,4.97,4.627,4.627,0,0,0,6.6-.868,72.419,72.419,0,0,1,7.158-8.374,1,1,0,0,1,1.587,1.185q-.565,1.035-1.143,2.066a152.988,152.988,0,0,0-7.053,13.74l-.449,1.034c-3.788,8.707-8.974,20.632-4.406,29.445,2.219,4.281,7.471,4.7,11.512,2.9,5.043-2.241,8.728-6.9,12.291-11.408.461-.582.918-1.16,1.373-1.725,3.046-3.791,5.881-7.838,8.624-11.752q1.479-2.112,2.973-4.219l.284-.4a74.4,74.4,0,0,1,4.824-6.284l.089-.1A1.092,1.092,0,0,1,181.64,215.788Zm19.82,6.517h0Z" fill="#3c384f"/>
        <path id="Trazado_115017" data-name="Trazado 115017" d="M142.792,223.274c-3.684,7.4-5.763,16.084-2.526,24.042.478,1.177,2.413.662,1.928-.532-3.038-7.472-1.14-15.537,2.325-22.5C145.091,223.135,143.366,222.12,142.792,223.274Z" fill="#3c384f"/>
        <path id="Trazado_115018" data-name="Trazado 115018" d="M145.829,244.381c-.017,0-.033-.007-.049-.01-.028-.054-.053-.113-.062-.129l-.005-.006c0-.008,0,0,0-.014-.129-.447-.221-.9-.319-1.354q-.339-1.582-.679-3.165a1.007,1.007,0,0,0-1.23-.7,1.023,1.023,0,0,0-.7,1.23q.384,1.789.769,3.58c.213.993.554,2.3,1.744,2.495a1.024,1.024,0,0,0,1.23-.7A1.011,1.011,0,0,0,145.829,244.381Z" fill="#3c384f"/>
        <path id="Trazado_115019" data-name="Trazado 115019" d="M189.856,201.723c-1.135-.606-2.146,1.12-1.009,1.727,1.57.838,2.049,2.544,2.111,4.22a28.922,28.922,0,0,1-.451,5.733,38.049,38.049,0,0,1-3.471,10.742c-.571,1.149,1.153,2.163,1.727,1.009a40.021,40.021,0,0,0,3.882-12.651C193.116,208.9,193.68,203.764,189.856,201.723Z" fill="#3c384f"/>
      </g>
      <g id="Grupo_81068" data-name="Grupo 81068">
        <g id="Grupo_81067" data-name="Grupo 81067">
          <g id="Grupo_81066" data-name="Grupo 81066">
            <path id="Trazado_115020" data-name="Trazado 115020" d="M199.088,219.934c-4.818,4.93-9.8,9.679-14.872,14.343,2.194-4.959,4.56-9.841,6.643-14.852,2.361-5.682,5.105-13.427,2.129-19.387-6.784-13.585-23.933-.256-30.244,6.583-.673.728-1.314,1.489-1.964,2.242,2.254-5.522,4.284-11.2,3.749-17.162-.737-8.2-8.257-10.171-14.731-6.36-6.953,4.093-12.536,11.174-17.2,17.6-3.96,5.462,5.1,10.662,9.031,5.278a71.117,71.117,0,0,1,7.058-8.258q-.562,1.03-1.136,2.058a153.4,153.4,0,0,0-7.1,13.83c-3.953,9.12-9.8,21.744-4.825,31.337,2.506,4.834,8.381,5.325,12.806,3.358,5.947-2.644,10.066-8.481,14.037-13.421,4.145-5.158,7.8-10.635,11.632-16.017a78.554,78.554,0,0,1,5.041-6.6c.042-.047.087-.091.129-.139l-.046.146c-1.019,3.168-2.33,6.208-3.656,9.256-2.469,5.67-5.652,11.639-6.556,17.81-.8,5.456,1.41,11.571,7.972,11.175,6.168-.372,11.112-6.314,15.236-10.282,4.995-4.806,9.9-9.708,14.806-14.6C212.151,222.763,204.148,214.757,199.088,219.934Z" fill="#ffd947"/>
            <path id="Trazado_115021" data-name="Trazado 115021" d="M176.4,253.777a7.836,7.836,0,0,1-5.97-2.477c-2.078-2.263-2.976-5.949-2.4-9.861.746-5.1,2.97-9.982,5.121-14.705.514-1.131,1.024-2.25,1.507-3.358.457-1.051.938-2.155,1.415-3.3-.292.406-.581.812-.867,1.214l-.284.4c-1,1.4-1.981,2.8-2.965,4.206-2.76,3.941-5.615,8.016-8.7,11.857q-.677.843-1.362,1.714c-3.541,4.477-7.554,9.552-13.048,11.995-4.9,2.175-11.313,1.565-14.1-3.812-5.007-9.658.4-22.087,4.346-31.163l.449-1.031c1.161-2.681,2.463-5.3,3.843-7.9q-.479.625-.942,1.259a6.654,6.654,0,0,1-9.393,1.307,5.277,5.277,0,0,1-1.254-7.761c4.977-6.865,10.542-13.783,17.5-17.88,3.863-2.272,8.089-2.641,11.311-.986,2.836,1.457,4.584,4.339,4.924,8.118a30.609,30.609,0,0,1-1.947,12.721c5.136-5.016,14.632-12.131,22.251-11.053,3.5.5,6.21,2.621,8.053,6.312,3.031,6.07.639,13.626-2.1,20.218-1.3,3.137-2.738,6.268-4.125,9.295l-.491,1.071c4.127-3.869,7.819-7.474,11.207-10.94h0a6.008,6.008,0,0,1,5.986-1.777,7.365,7.365,0,0,1,5.1,5.061,6.058,6.058,0,0,1-1.721,6.063l-.558.557c-4.645,4.636-9.448,9.429-14.26,14.059-.593.571-1.2,1.182-1.831,1.812-3.735,3.745-8.384,8.407-14.039,8.748C176.828,253.771,176.613,253.777,176.4,253.777Zm2.869-40.361a.943.943,0,0,1,.484.13.972.972,0,0,1,.473,1.135l-.047.146c-1.068,3.321-2.461,6.523-3.69,9.347-.487,1.118-1,2.248-1.521,3.389-2.093,4.6-4.257,9.348-4.963,14.166-.479,3.272.248,6.421,1.9,8.218a6.005,6.005,0,0,0,5.024,1.815c4.9-.3,9.066-4.476,12.744-8.165.638-.64,1.258-1.261,1.86-1.84,4.8-4.617,9.6-9.4,14.235-14.034l.557-.557a4.065,4.065,0,0,0,1.2-4.124,5.38,5.38,0,0,0-3.671-3.648,4.005,4.005,0,0,0-4.051,1.239h0c-4.377,4.477-9.254,9.181-14.911,14.381a1,1,0,0,1-1.591-1.141c.829-1.875,1.683-3.738,2.536-5.6,1.38-3.011,2.806-6.125,4.1-9.23,2.566-6.174,4.83-13.207,2.158-18.557-1.554-3.111-3.7-4.82-6.545-5.225-7.1-1.005-17.093,6.647-22.07,12.04-.53.575-1.041,1.171-1.553,1.766l-.388.452a1,1,0,0,1-1.683-1.032c2.148-5.259,4.2-10.882,3.679-16.7-.28-3.116-1.61-5.37-3.846-6.519-2.609-1.339-6.115-.99-9.382.932-6.643,3.91-12.046,10.64-16.9,17.33a3.314,3.314,0,0,0,.811,4.969,4.626,4.626,0,0,0,6.6-.867,72.237,72.237,0,0,1,7.158-8.374,1,1,0,0,1,1.586,1.184q-.565,1.036-1.142,2.067a153,153,0,0,0-7.054,13.74l-.449,1.034c-3.787,8.707-8.973,20.632-4.4,29.444,2.219,4.282,7.471,4.7,11.512,2.9,5.043-2.241,8.728-6.9,12.291-11.408q.691-.875,1.372-1.726c3.047-3.79,5.882-7.837,8.625-11.751.986-1.408,1.973-2.817,2.973-4.22l.284-.4a74.44,74.44,0,0,1,4.823-6.284l.09-.1A1.091,1.091,0,0,1,179.268,213.416Zm19.82,6.518h0Z"/>
          </g>
          <path id="Trazado_115022" data-name="Trazado 115022" d="M140.421,220.9c-3.685,7.4-5.763,16.083-2.527,24.042.479,1.176,2.414.662,1.929-.532-3.039-7.473-1.141-15.537,2.325-22.5C142.719,220.763,140.995,219.749,140.421,220.9Z"/>
          <path id="Trazado_115023" data-name="Trazado 115023" d="M143.458,242.01c-.017,0-.033-.007-.049-.01-.028-.055-.054-.113-.063-.129l0-.006c0-.008,0,0,0-.015-.129-.446-.222-.9-.319-1.353q-.34-1.582-.679-3.165a1.008,1.008,0,0,0-1.231-.7,1.023,1.023,0,0,0-.7,1.23l.768,3.579c.214.994.555,2.3,1.745,2.5a1.025,1.025,0,0,0,1.23-.7A1.012,1.012,0,0,0,143.458,242.01Z"/>
          <path id="Trazado_115024" data-name="Trazado 115024" d="M187.485,199.352c-1.135-.606-2.147,1.12-1.009,1.727,1.57.838,2.048,2.544,2.111,4.219a28.932,28.932,0,0,1-.451,5.734,38.049,38.049,0,0,1-3.471,10.742c-.572,1.149,1.153,2.163,1.727,1.009a40.062,40.062,0,0,0,3.882-12.651C190.745,206.527,191.309,201.392,187.485,199.352Z"/>
        </g>
      </g>
    </g>
    <g id="Grupo_81082" data-name="Grupo 81082" transform="translate(783.295 3.518)">
      <g id="Grupo_81073" data-name="Grupo 81073">
        <g id="Grupo_81070" data-name="Grupo 81070" style="mix-blend-mode: multiply;isolation: isolate">
          <path id="Trazado_115025" data-name="Trazado 115025" d="M128.411,298.814a2.088,2.088,0,0,1-2.028-1.631L120.7,270.665l-.113-.047-.066.114a2.105,2.105,0,0,1-1.872,1.17,2.062,2.062,0,0,1-1.093-.314l-3.977-2.483a2.093,2.093,0,0,1-.933-1.33,2.028,2.028,0,0,1,.3-1.568,21.949,21.949,0,0,0,3.665-11.226,2.077,2.077,0,0,1,1.637-1.952l5.047-1.085a2.029,2.029,0,0,1,.436-.046,2.071,2.071,0,0,1,1.978,1.441c4.3,13.368,8.5,27.165,12.5,41.008a2.081,2.081,0,0,1-1.523,2.6l-7.8,1.814A2.117,2.117,0,0,1,128.411,298.814Z" fill="#e8e8e8"/>
          <path id="Trazado_115026" data-name="Trazado 115026" d="M123.735,252.9a1.083,1.083,0,0,1,1.027.749q6.553,20.385,12.488,40.978a1.081,1.081,0,0,1-.789,1.348l-7.8,1.813a1.112,1.112,0,0,1-.248.029,1.075,1.075,0,0,1-1.051-.845q-2.844-13.256-5.681-26.514a1.054,1.054,0,0,0-1.049-.843,1.068,1.068,0,0,0-.977.621c0,.017-.018.028-.022.045a1.09,1.09,0,0,1-.98.624,1.063,1.063,0,0,1-.565-.163c-1.325-.825-2.652-1.658-3.977-2.483a1.065,1.065,0,0,1-.33-1.49,23.1,23.1,0,0,0,3.835-11.743,1.084,1.084,0,0,1,.85-1.016c1.679-.358,3.364-.726,5.044-1.085a1.039,1.039,0,0,1,.227-.025m0-2a3.052,3.052,0,0,0-.653.071c-.833.178-1.675.359-2.516.541s-1.681.363-2.52.542a3.1,3.1,0,0,0-2.429,2.864,21.271,21.271,0,0,1-3.5,10.741,3.051,3.051,0,0,0-.444,2.327,3.089,3.089,0,0,0,1.381,1.97l1.989,1.242,1.988,1.242a3.055,3.055,0,0,0,3.053.108q1.242,5.79,2.482,11.586,1.419,6.628,2.84,13.258a3.076,3.076,0,0,0,3.708,2.344l7.8-1.813a3.082,3.082,0,0,0,2.259-3.845c-4-13.866-8.209-27.672-12.507-41.041a3.071,3.071,0,0,0-2.931-2.137Z" fill="#e8e8e8"/>
        </g>
        <g id="Grupo_81072" data-name="Grupo 81072">
          <g id="Grupo_81071" data-name="Grupo 81071">
            <path id="Trazado_115027" data-name="Trazado 115027" d="M126.04,296.442a2.087,2.087,0,0,1-2.028-1.631l-5.682-26.517-.112-.047-.067.113a2.1,2.1,0,0,1-1.871,1.171,2.066,2.066,0,0,1-1.094-.314l-3.977-2.484a2.085,2.085,0,0,1-.932-1.33,2.025,2.025,0,0,1,.3-1.567,21.942,21.942,0,0,0,3.666-11.227,2.075,2.075,0,0,1,1.636-1.951l5.048-1.085a2.03,2.03,0,0,1,.436-.047,2.072,2.072,0,0,1,1.978,1.442c4.3,13.368,8.5,27.165,12.5,41.008a2.082,2.082,0,0,1-1.524,2.6l-7.8,1.814A2.122,2.122,0,0,1,126.04,296.442Z" fill="#ff5f65"/>
            <path id="Trazado_115028" data-name="Trazado 115028" d="M121.364,250.526a1.081,1.081,0,0,1,1.026.748q6.555,20.386,12.489,40.979a1.082,1.082,0,0,1-.789,1.348l-7.8,1.813a1.116,1.116,0,0,1-.248.028,1.074,1.074,0,0,1-1.051-.844q-2.844-13.257-5.681-26.514a1.054,1.054,0,0,0-1.049-.843,1.068,1.068,0,0,0-.978.621c0,.017-.017.028-.021.044a1.089,1.089,0,0,1-.98.625,1.063,1.063,0,0,1-.565-.163c-1.325-.826-2.652-1.658-3.977-2.484a1.064,1.064,0,0,1-.33-1.489,23.1,23.1,0,0,0,3.834-11.743,1.084,1.084,0,0,1,.85-1.016c1.68-.359,3.365-.727,5.044-1.085a1.048,1.048,0,0,1,.228-.025m0-2a3.116,3.116,0,0,0-.653.07c-.833.178-1.675.36-2.517.542s-1.68.363-2.52.542a3.1,3.1,0,0,0-2.429,2.863,21.261,21.261,0,0,1-3.5,10.742,3.055,3.055,0,0,0-.445,2.327,3.094,3.094,0,0,0,1.382,1.97l1.988,1.242,1.988,1.241a3.053,3.053,0,0,0,3.054.109q1.242,5.79,2.482,11.586,1.419,6.628,2.84,13.258a3.08,3.08,0,0,0,3.707,2.344l7.8-1.813A3.082,3.082,0,0,0,136.8,291.7c-4-13.865-8.209-27.672-12.508-41.041a3.069,3.069,0,0,0-2.93-2.136Z"/>
          </g>
        </g>
      </g>
      <g id="Grupo_81077" data-name="Grupo 81077">
        <g id="Grupo_81074" data-name="Grupo 81074" style="mix-blend-mode: overlay;isolation: isolate">
          <path id="Trazado_115029" data-name="Trazado 115029" d="M155.835,327.245a2.084,2.084,0,0,1-.745-.138c-6.213-2.419-12.345-5.071-18.23-7.881l-.612-.293.784-11.679.648-.207c4.065-1.3,8.4-2.736,12.562-4.437,3.166-1.283,6.428-2.807,8.865-5.249.791-.794,1.694-1.986,1.5-3.135a3.072,3.072,0,0,0-2.011-2.087,6.309,6.309,0,0,0-2.362-.429,9.3,9.3,0,0,0-2.6.393,19.115,19.115,0,0,0-3.511,1.5,2.09,2.09,0,0,1-.967.239A2.068,2.068,0,0,1,147.3,292.7l-2.379-4.845a2.035,2.035,0,0,1,.106-2.013,13.1,13.1,0,0,1,6-4.958,15.861,15.861,0,0,1,6.137-1.178,18.991,18.991,0,0,1,3.045.251,16.215,16.215,0,0,1,8.329,3.862,11.828,11.828,0,0,1,3.975,8.387,13.067,13.067,0,0,1-2.729,7.833,27.783,27.783,0,0,1-5.829,5.559,69.675,69.675,0,0,1-12.192,7.308l-.333,1.073.336-.943,7.943,2.84a2.074,2.074,0,0,1,1.2,2.781l-3.167,7.331A2.069,2.069,0,0,1,155.835,327.245Z" fill="#3c384f"/>
          <path id="Trazado_115030" data-name="Trazado 115030" d="M157.169,280.7a17.826,17.826,0,0,1,2.882.238,15.3,15.3,0,0,1,7.816,3.613,10.9,10.9,0,0,1,3.65,7.668,12.052,12.052,0,0,1-2.535,7.223,26.805,26.805,0,0,1-5.624,5.351,68.546,68.546,0,0,1-12.015,7.2,1.07,1.07,0,0,0,.091,1.979q3.973,1.418,7.943,2.841a1.073,1.073,0,0,1,.619,1.44l-3.168,7.332a1.076,1.076,0,0,1-1.376.588q-9.222-3.59-18.16-7.85c.338-5.02.354-5.306.692-10.325,4.263-1.362,8.5-2.771,12.636-4.463,3.331-1.35,6.659-2.927,9.2-5.468,1.072-1.08,2.029-2.511,1.778-4.008a4.013,4.013,0,0,0-2.629-2.85,7.283,7.283,0,0,0-2.729-.5,10.357,10.357,0,0,0-2.877.433,19.84,19.84,0,0,0-3.7,1.576,1.082,1.082,0,0,1-1.467-.472q-1.184-2.409-2.374-4.838a1.039,1.039,0,0,1,.045-1.025,12.117,12.117,0,0,1,5.548-4.582,14.94,14.94,0,0,1,5.754-1.1m0-2h0a16.852,16.852,0,0,0-6.523,1.255,14.129,14.129,0,0,0-6.467,5.354,3.029,3.029,0,0,0-.145,3l2.367,4.823a3.08,3.08,0,0,0,4.188,1.362,18.267,18.267,0,0,1,3.326-1.427,8.335,8.335,0,0,1,2.321-.354,5.282,5.282,0,0,1,1.982.355,2.126,2.126,0,0,1,1.4,1.323c.1.565-.352,1.391-1.225,2.271-2.307,2.312-5.462,3.781-8.527,5.024-4.132,1.688-8.446,3.118-12.494,4.411l-1.295.414-.092,1.356-.346,5.167-.346,5.158-.091,1.354,1.225.585c5.906,2.822,12.062,5.483,18.3,7.909a3.035,3.035,0,0,0,1.109.208,3.07,3.07,0,0,0,2.837-1.885l1.689-3.908,1.471-3.4a3.074,3.074,0,0,0-1.771-4.113c-1.336-.476-2.66-.95-3.984-1.424l-1.89-.677a70.725,70.725,0,0,0,10.368-6.437,28.709,28.709,0,0,0,6.038-5.768,14.061,14.061,0,0,0,2.924-8.445,12.833,12.833,0,0,0-4.3-9.107,17.187,17.187,0,0,0-8.836-4.109,19.846,19.846,0,0,0-3.212-.266Z" fill="#3c384f"/>
        </g>
        <g id="Grupo_81076" data-name="Grupo 81076">
          <g id="Grupo_81075" data-name="Grupo 81075">
            <path id="Trazado_115031" data-name="Trazado 115031" d="M153.463,324.874a2.058,2.058,0,0,1-.744-.139c-6.213-2.419-12.346-5.07-18.23-7.881l-.612-.293.784-11.678.647-.207c4.066-1.3,8.4-2.737,12.563-4.437,3.165-1.283,6.428-2.807,8.865-5.249.79-.795,1.694-1.986,1.5-3.136a3.072,3.072,0,0,0-2.012-2.086,6.284,6.284,0,0,0-2.361-.429,9.339,9.339,0,0,0-2.6.392,19.144,19.144,0,0,0-3.51,1.5,2.075,2.075,0,0,1-2.825-.908l-2.379-4.846a2.028,2.028,0,0,1,.106-2.012,13.1,13.1,0,0,1,6-4.958,15.859,15.859,0,0,1,6.136-1.178,18.993,18.993,0,0,1,3.046.251,16.218,16.218,0,0,1,8.328,3.861,11.829,11.829,0,0,1,3.976,8.388,13.076,13.076,0,0,1-2.729,7.833,27.789,27.789,0,0,1-5.83,5.559,69.658,69.658,0,0,1-12.192,7.307l-.332,1.074.336-.943,7.943,2.84a2.076,2.076,0,0,1,1.2,2.781l-3.167,7.33A2.068,2.068,0,0,1,153.463,324.874Z" fill="#3c3fa7"/>
            <path id="Trazado_115032" data-name="Trazado 115032" d="M154.8,278.33a17.845,17.845,0,0,1,2.882.238,15.3,15.3,0,0,1,7.816,3.613,10.907,10.907,0,0,1,3.65,7.668,12.052,12.052,0,0,1-2.535,7.223,26.786,26.786,0,0,1-5.625,5.351,68.56,68.56,0,0,1-12.014,7.2,1.07,1.07,0,0,0,.091,1.979q3.974,1.418,7.943,2.84a1.074,1.074,0,0,1,.619,1.44l-3.168,7.332a1.078,1.078,0,0,1-.993.66,1.057,1.057,0,0,1-.384-.072c-6.147-2.393-12.215-5.01-18.16-7.85.339-5.019.354-5.3.693-10.324,4.263-1.363,8.5-2.771,12.636-4.463,3.331-1.351,6.659-2.928,9.2-5.468,1.073-1.08,2.03-2.511,1.779-4.008a4.018,4.018,0,0,0-2.629-2.851,7.3,7.3,0,0,0-2.73-.5,10.354,10.354,0,0,0-2.876.432,19.907,19.907,0,0,0-3.7,1.576,1.079,1.079,0,0,1-1.467-.471q-1.184-2.409-2.375-4.838a1.041,1.041,0,0,1,.046-1.026,12.121,12.121,0,0,1,5.548-4.581,14.936,14.936,0,0,1,5.754-1.1m0-2h0a16.858,16.858,0,0,0-6.524,1.255,14.12,14.12,0,0,0-6.466,5.354,3.029,3.029,0,0,0-.145,3l2.367,4.822a3.079,3.079,0,0,0,4.188,1.363,18.168,18.168,0,0,1,3.326-1.427,8.291,8.291,0,0,1,2.32-.354,5.291,5.291,0,0,1,1.983.355,2.124,2.124,0,0,1,1.4,1.323c.1.565-.352,1.391-1.225,2.27-2.307,2.312-5.462,3.782-8.527,5.024-4.132,1.689-8.446,3.118-12.494,4.411l-1.295.414-.092,1.357-.346,5.167-.346,5.158-.091,1.354,1.224.585c5.907,2.821,12.063,5.482,18.3,7.909a3.074,3.074,0,0,0,3.946-1.677l1.688-3.908,1.472-3.4a3.076,3.076,0,0,0-1.771-4.113c-1.337-.477-2.66-.951-3.984-1.425l-1.89-.676a70.7,70.7,0,0,0,10.368-6.438,28.726,28.726,0,0,0,6.038-5.767,14.062,14.062,0,0,0,2.924-8.446,12.83,12.83,0,0,0-4.3-9.106,17.18,17.18,0,0,0-8.835-4.109,19.846,19.846,0,0,0-3.212-.266Z"/>
          </g>
        </g>
      </g>
      <g id="Grupo_81081" data-name="Grupo 81081">
        <g id="Grupo_81078" data-name="Grupo 81078" style="mix-blend-mode: overlay;isolation: isolate">
          <path id="Trazado_115033" data-name="Trazado 115033" d="M131.557,367.991a2.072,2.072,0,0,1-1.841-1.127l-2.178-4.259a2.064,2.064,0,0,1,.86-2.766,18.717,18.717,0,0,0,5.563-4.051c1.57-1.819,2.653-4.727,1.539-7.129a3.807,3.807,0,0,0-2.576-2.174,2.935,2.935,0,0,0-.554-.051,4.738,4.738,0,0,0-3.229,1.535,10.435,10.435,0,0,0-1.714,2.464,2.079,2.079,0,0,1-3.173.6l-2.643-2.245a2.088,2.088,0,0,1-.39-2.711c1.851-2.85,3.838-6.2,4-9.828a5.316,5.316,0,0,0-.313-2.294,2.32,2.32,0,0,0-1.307-1.336,1.823,1.823,0,0,0-.584-.093,3.5,3.5,0,0,0-1.677.519,7.5,7.5,0,0,0-2.856,3.361,14.329,14.329,0,0,0-.888,2.7,2.059,2.059,0,0,1-2.61,1.527l-4.411-1.288a2.091,2.091,0,0,1-1.475-2.3c.66-4.235,1.685-8.576,4.687-11.688a12.26,12.26,0,0,1,8.816-3.717,11.734,11.734,0,0,1,1.742.129,12.119,12.119,0,0,1,9.819,15.426l.057.087a11.25,11.25,0,0,1,2.483-.277,11.754,11.754,0,0,1,6.346,1.874,13.489,13.489,0,0,1,5.8,9.527,16.552,16.552,0,0,1-2.539,10.828,19.225,19.225,0,0,1-14.608,8.746Z" fill="#3c384f"/>
          <path id="Trazado_115034" data-name="Trazado 115034" d="M122.6,322.644a10.643,10.643,0,0,1,1.594.119,11.119,11.119,0,0,1,9.006,14.162,1.065,1.065,0,0,0,1.018,1.362,1.119,1.119,0,0,0,.241-.027,10.046,10.046,0,0,1,2.242-.25,10.709,10.709,0,0,1,5.8,1.712,12.487,12.487,0,0,1,5.358,8.819,15.628,15.628,0,0,1-2.394,10.167,18.21,18.21,0,0,1-13.835,8.281c-.025,0-.049,0-.073,0a1.081,1.081,0,0,1-.954-.589c-.724-1.415-1.451-2.837-2.174-4.253a1.069,1.069,0,0,1,.446-1.431,19.919,19.919,0,0,0,5.844-4.277c1.928-2.235,2.932-5.522,1.688-8.2a4.808,4.808,0,0,0-3.29-2.735,4.028,4.028,0,0,0-.748-.069,5.729,5.729,0,0,0-3.943,1.836,11.635,11.635,0,0,0-1.881,2.692,1.068,1.068,0,0,1-.946.563,1.082,1.082,0,0,1-.7-.257c-.874-.743-1.759-1.489-2.637-2.24a1.075,1.075,0,0,1-.2-1.405c2.068-3.185,3.993-6.57,4.157-10.329a6.31,6.31,0,0,0-.39-2.725,3.3,3.3,0,0,0-1.91-1.9,2.785,2.785,0,0,0-.9-.145,4.471,4.471,0,0,0-2.177.652,8.429,8.429,0,0,0-3.264,3.809,15.369,15.369,0,0,0-.954,2.893,1.06,1.06,0,0,1-1.347.8c-1.467-.431-2.941-.858-4.418-1.291a1.082,1.082,0,0,1-.768-1.192c.634-4.063,1.6-8.216,4.418-11.14a11.344,11.344,0,0,1,8.1-3.413m0-2a13.264,13.264,0,0,0-9.538,4.029c-3.191,3.306-4.266,7.825-4.951,12.215a3.1,3.1,0,0,0,2.176,3.419l2.024.591,2.4.7a3.061,3.061,0,0,0,3.862-2.274,13.235,13.235,0,0,1,.823-2.507,6.507,6.507,0,0,1,2.455-2.912,2.521,2.521,0,0,1,1.166-.378.8.8,0,0,1,.257.038,1.355,1.355,0,0,1,.711.774,4.381,4.381,0,0,1,.237,1.867c-.148,3.38-2.058,6.587-3.836,9.327a3.088,3.088,0,0,0,.574,4.011c.521.445,1.039.884,1.555,1.322l1.089.925a3.107,3.107,0,0,0,2,.733,3.07,3.07,0,0,0,2.707-1.615,9.574,9.574,0,0,1,1.551-2.244,3.787,3.787,0,0,1,2.512-1.232,2.014,2.014,0,0,1,.375.034,2.836,2.836,0,0,1,1.851,1.618c.925,1.99-.032,4.473-1.39,6.049a17.874,17.874,0,0,1-5.279,3.823,3.058,3.058,0,0,0-1.28,4.1l1.065,2.083,1.111,2.173a3.075,3.075,0,0,0,2.735,1.679c.07,0,.14,0,.211-.007a20.242,20.242,0,0,0,15.389-9.211,17.548,17.548,0,0,0,2.686-11.487,14.5,14.5,0,0,0-6.251-10.241,12.767,12.767,0,0,0-6.892-2.035,12.257,12.257,0,0,0-1.259.065,13.1,13.1,0,0,0-10.947-15.289,12.724,12.724,0,0,0-1.9-.142Z" fill="#3c384f"/>
        </g>
        <g id="Grupo_81080" data-name="Grupo 81080">
          <g id="Grupo_81079" data-name="Grupo 81079">
            <path id="Trazado_115035" data-name="Trazado 115035" d="M129.185,365.62a2.072,2.072,0,0,1-1.84-1.127l-2.178-4.26a2.064,2.064,0,0,1,.859-2.765,18.709,18.709,0,0,0,5.564-4.051c1.57-1.819,2.653-4.728,1.538-7.129a3.8,3.8,0,0,0-2.575-2.175,3.02,3.02,0,0,0-.555-.051,4.739,4.739,0,0,0-3.228,1.536,10.428,10.428,0,0,0-1.714,2.463,2.075,2.075,0,0,1-1.829,1.093,2.1,2.1,0,0,1-1.344-.491l-2.643-2.245a2.088,2.088,0,0,1-.39-2.711c1.851-2.851,3.838-6.2,4-9.828a5.316,5.316,0,0,0-.313-2.294,2.32,2.32,0,0,0-1.307-1.336,1.8,1.8,0,0,0-.585-.093,3.5,3.5,0,0,0-1.676.519,7.494,7.494,0,0,0-2.856,3.361,14.317,14.317,0,0,0-.888,2.7,2.063,2.063,0,0,1-2.61,1.528l-4.411-1.288a2.093,2.093,0,0,1-1.476-2.3c.661-4.236,1.686-8.576,4.688-11.688a12.261,12.261,0,0,1,8.815-3.718,11.737,11.737,0,0,1,1.743.129,12.119,12.119,0,0,1,9.818,15.427l.058.087a11.181,11.181,0,0,1,2.482-.277,11.755,11.755,0,0,1,6.347,1.874,13.487,13.487,0,0,1,5.8,9.527,16.552,16.552,0,0,1-2.539,10.828,19.225,19.225,0,0,1-14.608,8.746Z" fill="#ffe891"/>
            <path id="Trazado_115036" data-name="Trazado 115036" d="M120.228,320.273a10.643,10.643,0,0,1,1.594.119,11.118,11.118,0,0,1,9.006,14.162,1.065,1.065,0,0,0,1.018,1.362,1.119,1.119,0,0,0,.241-.027,10.039,10.039,0,0,1,2.242-.25,10.711,10.711,0,0,1,5.8,1.712,12.485,12.485,0,0,1,5.358,8.818,15.631,15.631,0,0,1-2.394,10.168,18.213,18.213,0,0,1-13.836,8.281l-.072,0a1.085,1.085,0,0,1-.955-.589c-.723-1.415-1.45-2.838-2.174-4.253a1.07,1.07,0,0,1,.446-1.431,19.929,19.929,0,0,0,5.845-4.277c1.928-2.235,2.932-5.522,1.687-8.2a4.8,4.8,0,0,0-3.289-2.735,4.032,4.032,0,0,0-.749-.07,5.732,5.732,0,0,0-3.943,1.836,11.651,11.651,0,0,0-1.88,2.692,1.068,1.068,0,0,1-.947.564,1.086,1.086,0,0,1-.7-.257c-.874-.744-1.758-1.49-2.637-2.24a1.076,1.076,0,0,1-.2-1.4c2.067-3.185,3.992-6.571,4.157-10.329a6.317,6.317,0,0,0-.39-2.726,3.308,3.308,0,0,0-1.91-1.895,2.758,2.758,0,0,0-.9-.145,4.457,4.457,0,0,0-2.177.652,8.42,8.42,0,0,0-3.264,3.808,15.356,15.356,0,0,0-.954,2.894,1.06,1.06,0,0,1-1.347.8c-1.467-.431-2.941-.858-4.419-1.291a1.084,1.084,0,0,1-.768-1.193c.635-4.063,1.6-8.215,4.419-11.139a11.34,11.34,0,0,1,8.095-3.413m0-2a13.261,13.261,0,0,0-9.538,4.028c-3.192,3.307-4.266,7.826-4.952,12.216a3.1,3.1,0,0,0,2.177,3.419l2.024.591q1.2.35,2.4.7a3.061,3.061,0,0,0,3.862-2.274,13.308,13.308,0,0,1,.822-2.507,6.508,6.508,0,0,1,2.455-2.912,2.516,2.516,0,0,1,1.167-.378.8.8,0,0,1,.257.037,1.364,1.364,0,0,1,.711.775,4.4,4.4,0,0,1,.237,1.867c-.148,3.38-2.058,6.587-3.837,9.327a3.09,3.09,0,0,0,.575,4.011c.52.445,1.038.884,1.555,1.322l1.089.924a3.08,3.08,0,0,0,4.7-.882,9.556,9.556,0,0,1,1.551-2.243A3.786,3.786,0,0,1,130,345.062a2.016,2.016,0,0,1,.376.035,2.833,2.833,0,0,1,1.851,1.618c.924,1.99-.032,4.473-1.39,6.048a17.865,17.865,0,0,1-5.28,3.823,3.058,3.058,0,0,0-1.279,4.1l1.065,2.083,1.11,2.173a3.077,3.077,0,0,0,2.736,1.679c.07,0,.14,0,.211-.007a20.248,20.248,0,0,0,15.389-9.211,17.55,17.55,0,0,0,2.686-11.487,14.5,14.5,0,0,0-6.252-10.241,12.761,12.761,0,0,0-6.891-2.035,12.533,12.533,0,0,0-1.259.064,13.1,13.1,0,0,0-10.947-15.289,12.874,12.874,0,0,0-1.9-.141Z"/>
          </g>
        </g>
      </g>
    </g>
    <g id="Grupo_87649" data-name="Grupo 87649" transform="translate(1081.203 283.62) rotate(166)">
      <g id="Grupo_81049" data-name="Grupo 81049" transform="translate(0 0)">
        <g id="Grupo_81048" data-name="Grupo 81048">
          <g id="Grupo_81047" data-name="Grupo 81047">
            <path id="Trazado_114989" data-name="Trazado 114989" d="M96.755,32.985c-1.048-10.392-5.279-23.1-15.112-29.419-9.883-6.354-25.2-2.817-36.409-.1a130.9,130.9,0,0,0-18.79,5.9A37.1,37.1,0,0,0,12.649,1.373c3.871,4.18,4.109,9.794,3.878,12.893A48.327,48.327,0,0,0,9.19,19.629C-.05,27.943-1.2,39.4.882,49.942A51,51,0,0,0,6.367,65.388a24.678,24.678,0,0,0,1.891,3.35C15.968,80,31.427,79.754,45.085,77.593,58.293,75.51,72.943,71.549,83.649,63.82A33.2,33.2,0,0,0,94.773,50.643C97.249,44.972,97.34,38.824,96.755,32.985Z" transform="translate(0.811 0.816)" fill="#fff"/>
            <path id="Trazado_114990" data-name="Trazado 114990" d="M68.011,0c-7.757,0-15.9,1.971-22.159,3.487A131.616,131.616,0,0,0,27.428,9.226,37.653,37.653,0,0,0,13.681,1.4a.816.816,0,0,0-.818,1.339c3.517,3.8,3.853,8.9,3.69,11.864a48.78,48.78,0,0,0-7.1,5.232C1.3,27.183-1.665,37.929.894,50.917a51.013,51.013,0,0,0,5.58,15.7,24.758,24.758,0,0,0,1.919,3.4c8.39,12.258,25.495,11.122,37.631,9.2C62.694,76.585,75.786,71.9,84.937,65.3A34.151,34.151,0,0,0,96.331,51.786c2.812-6.438,2.513-13.394,2.046-18.066h0c-.651-6.455-3.464-22.3-15.482-30.024C78.635.959,73.416,0,68.011,0ZM27.254,10.991a.807.807,0,0,0,.31-.061A128.7,128.7,0,0,1,46.236,5.072c10.349-2.506,25.992-6.293,35.778,0,11.422,7.336,14.114,22.6,14.741,28.816.45,4.49.74,11.163-1.917,17.25A32.51,32.51,0,0,1,83.983,63.975c-8.942,6.455-21.8,11.04-38.214,13.63-11.7,1.85-28.162,2.983-36.029-8.51A23.847,23.847,0,0,1,7.917,65.86,49.557,49.557,0,0,1,2.493,50.6C.789,41.959.8,29.817,10.546,21.051a47.615,47.615,0,0,1,7.213-5.27.814.814,0,0,0,.392-.637A19.235,19.235,0,0,0,15.757,3.88,36.237,36.237,0,0,1,26.7,10.769.816.816,0,0,0,27.254,10.991ZM97.566,33.8h0Z" transform="translate(0 0)"/>
            <g id="Grupo_81052" data-name="Grupo 81052" transform="translate(3.467 21.57)">
              <path id="Trazado_114991" data-name="Trazado 114991" d="M8.433,1.548A19.807,19.807,0,0,0,1.5,9.765a.821.821,0,0,1-1.115.292A.834.834,0,0,1,.1,8.942,21.36,21.36,0,0,1,7.611.14C8.483-.447,9.3.964,8.433,1.548Z" transform="translate(2.859 0)"/>
              <path id="Trazado_114992" data-name="Trazado 114992" d="M1.342,17.6c-.65.823-1.8-.337-1.152-1.152A22.776,22.776,0,0,0,4.947.784C4.872-.264,6.5-.259,6.577.784A24.435,24.435,0,0,1,1.342,17.6Z" transform="translate(85.038 15.623)"/>
              <path id="Trazado_114993" data-name="Trazado 114993" d="M1.6,5.036A.826.826,0,0,1,.6,5.6a.827.827,0,0,1-.569-1A19.339,19.339,0,0,0,.506,2.658c.029-.151.055-.3.081-.455q.022-.133.042-.266c0-.019.016-.108.022-.153Q.714,1.3.753.816A.831.831,0,0,1,1.567,0a.825.825,0,0,1,.815.815A20.507,20.507,0,0,1,1.6,5.036Z" transform="translate(86.869 15.133)"/>
              <path id="Trazado_114994" data-name="Trazado 114994" d="M3.189,1.226a15.029,15.029,0,0,0-.943,2.14,17.643,17.643,0,0,0-.654,2.376.821.821,0,0,1-1,.569.835.835,0,0,1-.57-1A18.345,18.345,0,0,1,1.781.4.821.821,0,0,1,2.9.111.833.833,0,0,1,3.189,1.226Z" transform="translate(0 12.105)"/>
            </g>
          </g>
        </g>
      </g>
      <path id="Trazado_123081" data-name="Trazado 123081" d="M.659,16.892q0-1.788.082-3.411T.96,10.252q.137-1.605.328-3.22T1.7,3.667a1.488,1.488,0,0,1,.547-1.095,1.653,1.653,0,0,1,.985-.328,1.291,1.291,0,0,1,1.1.73,3.793,3.793,0,0,1,.447,1.988q0,1.66-.046,3.548t-.1,3.785q-.055,1.9-.1,3.721T4.49,19.409q0,1.149.036,2.1t.119,1.633a5.666,5.666,0,0,0,.21,1.067q.128.383.328.383.328,0,.648-.721a13.735,13.735,0,0,0,.638-1.888q.319-1.167.666-2.672t.721-3.065q.374-1.56.8-3.065a24.744,24.744,0,0,1,.912-2.672,8.289,8.289,0,0,1,1.04-1.888A1.543,1.543,0,0,1,11.8,7.9a1.377,1.377,0,0,1,1.158.775,7.962,7.962,0,0,1,.839,2.043,25.372,25.372,0,0,1,.611,2.891q.255,1.624.465,3.311t.4,3.311q.192,1.624.438,2.891a11.624,11.624,0,0,0,.556,2.043q.31.775.748.775.328,0,.538-.429a4.449,4.449,0,0,0,.337-1.177,14.4,14.4,0,0,0,.173-1.742q.046-.994.064-2.125t.009-2.326q-.009-1.195-.009-2.344,0-2.937.046-5.819t.046-5.8a4.181,4.181,0,0,1,.064-.648,3.4,3.4,0,0,1,.21-.748,1.841,1.841,0,0,1,.4-.611.866.866,0,0,1,.638-.255,1.521,1.521,0,0,1,.839.246,2.578,2.578,0,0,1,.666.62,3.825,3.825,0,0,1,.474.83,4.07,4.07,0,0,1,.265.876,18.7,18.7,0,0,1,.228,2.764q.027,1.578-.018,3.265t-.119,3.357q-.073,1.669-.073,3.019t-.064,2.91q-.064,1.56-.246,3.092a27.7,27.7,0,0,1-.511,2.955,11.007,11.007,0,0,1-.885,2.517,5.252,5.252,0,0,1-1.359,1.742,3.147,3.147,0,0,1-3.776.036,5.111,5.111,0,0,1-1.332-1.614,10.143,10.143,0,0,1-.885-2.289,24.956,24.956,0,0,1-.538-2.618q-.2-1.332-.292-2.618t-.155-2.289q-.064-1-.109-1.614t-.155-.611q-.109,0-.265.6t-.365,1.578q-.21.976-.493,2.235t-.666,2.563q-.383,1.3-.866,2.563a12.96,12.96,0,0,1-1.095,2.235A6.367,6.367,0,0,1,6.4,29.844a2.548,2.548,0,0,1-1.651.6,2.248,2.248,0,0,1-1.724-.766A6.035,6.035,0,0,1,1.863,27.7a14.262,14.262,0,0,1-.7-2.727Q.915,23.459.805,21.954T.677,19.1Q.659,17.749.659,16.892Zm23.222,9.449q0-.4.009-1.669t.027-3.065q.018-1.8.055-3.977t.091-4.415q.055-2.235.146-4.36t.2-3.831q.109-1.706.255-2.827A3.469,3.469,0,0,1,24.994.857a1.519,1.519,0,0,1,.474-.283A2.151,2.151,0,0,1,26.362.4a1.4,1.4,0,0,1,1.149.465,2.632,2.632,0,0,1,.529,1.122,6.333,6.333,0,0,1,.146,1.377V4.579q0,.839-.027,2.034t-.064,2.545q-.036,1.35-.082,2.755T27.949,14.6q-.018,1.286-.018,2.344t.055,1.715q.055.73.31.73.237,0,.529-.6.274-.565.666-1.386a10.134,10.134,0,0,1,.949-1.587,5.771,5.771,0,0,1,1.3-1.3,2.89,2.89,0,0,1,1.733-.538A3.052,3.052,0,0,1,35,14.338a3.325,3.325,0,0,1,1.076.958,4.051,4.051,0,0,1,.629,1.35,5.991,5.991,0,0,1,.2,1.541q0,1.5-.064,2.864T36.7,23.769q-.082,1.35-.146,2.727t-.064,2.873q0,.565-.328.7a2.088,2.088,0,0,1-.8.137,2.613,2.613,0,0,1-1.5-.347,1.741,1.741,0,0,1-.675-.958,4.624,4.624,0,0,1-.164-1.423q.018-.812.018-1.742,0-.675.027-1.459t.064-1.569q.036-.784.064-1.514t.018-1.286a7.662,7.662,0,0,0-.055-.885q-.046-.328-.173-.328a1.24,1.24,0,0,0-.739.42,7.986,7.986,0,0,0-.967,1.14A18.385,18.385,0,0,0,30.2,21.963q-.556.985-1.076,2.107T28.15,26.4a23.617,23.617,0,0,0-.766,2.39,2.546,2.546,0,0,1-.493.93,1.164,1.164,0,0,1-.949.42,1.579,1.579,0,0,1-1.122-.383,2.421,2.421,0,0,1-.62-.958,4.732,4.732,0,0,1-.265-1.24Q23.881,26.889,23.881,26.341ZM49.11,18.479a5.9,5.9,0,0,1-.292,1.879,6.763,6.763,0,0,1-.775,1.605,6.9,6.9,0,0,1-1.1,1.3,9.225,9.225,0,0,1-1.25.967,6.748,6.748,0,0,1-1.231.629A3.441,3.441,0,0,1,43.4,25.1a.871.871,0,0,0-.638.21.642.642,0,0,0-.164.429,1.123,1.123,0,0,0,.109.474,3.539,3.539,0,0,0,.2.383,2.143,2.143,0,0,0,.757.693,3.22,3.22,0,0,0,1.523.274,8.679,8.679,0,0,0,1.231-.109,6.951,6.951,0,0,0,1.605-.465A8.815,8.815,0,0,0,51.682,24.1a.726.726,0,0,1,.274-.219A.764.764,0,0,1,53,24.2a3.262,3.262,0,0,1-.055,2.9,4.68,4.68,0,0,1-.994,1.2,8.032,8.032,0,0,1-1.459,1.012,11.046,11.046,0,0,1-1.769.775,12.869,12.869,0,0,1-1.934.493,11.3,11.3,0,0,1-1.943.173,7.655,7.655,0,0,1-2.891-.52,5.786,5.786,0,0,1-2.171-1.5,6.74,6.74,0,0,1-1.359-2.408,10.187,10.187,0,0,1-.474-3.229,14.242,14.242,0,0,1,.182-2.253,13.83,13.83,0,0,1,.547-2.226,11.2,11.2,0,0,1,.912-2.034,7.467,7.467,0,0,1,1.286-1.66A5.715,5.715,0,0,1,42.543,13.8a5.006,5.006,0,0,1,2.043-.41,4.323,4.323,0,0,1,2.162.493,4.156,4.156,0,0,1,1.386,1.24,5.02,5.02,0,0,1,.748,1.651A6.977,6.977,0,0,1,49.11,18.479Zm-7.187,3.083q0,.073.009.2a.606.606,0,0,0,.073.246.547.547,0,0,0,.192.2.676.676,0,0,0,.365.082,2.021,2.021,0,0,0,1.177-.465,5.714,5.714,0,0,0,1.149-1.149,7.284,7.284,0,0,0,.866-1.468,3.535,3.535,0,0,0,.347-1.4,2.4,2.4,0,0,0-.055-.483,2.2,2.2,0,0,0-.173-.511,1.143,1.143,0,0,0-.328-.41.847.847,0,0,0-.538-.164,1.545,1.545,0,0,0-1,.52,5.741,5.741,0,0,0-1,1.313,9.347,9.347,0,0,0-.766,1.733A5.631,5.631,0,0,0,41.922,21.562Zm9.832,7.3a4.955,4.955,0,0,1-.128-.885q-.055-.648-.082-1.532t-.036-1.906q-.009-1.022-.009-1.988t.009-1.8q.009-.83.009-1.323a10.573,10.573,0,0,1,.091-1.3,6.083,6.083,0,0,1,.328-1.368,3.443,3.443,0,0,1,.629-1.085,1.285,1.285,0,0,1,1.012-.447.976.976,0,0,1,.721.246,1.858,1.858,0,0,1,.383.547q.137.3.228.547t.274.246a.749.749,0,0,0,.438-.274q.255-.255.584-.556a5.5,5.5,0,0,1,.739-.565,4.543,4.543,0,0,1,.912-.447,3.208,3.208,0,0,1,1.1-.182,3.356,3.356,0,0,1,1.432.3,3.488,3.488,0,0,1,1.1.794A3.7,3.7,0,0,1,62.207,17a3.279,3.279,0,0,1,.255,1.259,4.1,4.1,0,0,1-.055.675,1.845,1.845,0,0,1-.2.593,1.155,1.155,0,0,1-.41.429,1.319,1.319,0,0,1-.7.164,1.188,1.188,0,0,1-.83-.246,2.554,2.554,0,0,1-.447-.547,4.193,4.193,0,0,0-.392-.547.8.8,0,0,0-.648-.246,1.892,1.892,0,0,0-1.35.684,6.353,6.353,0,0,0-1.158,1.788,12.617,12.617,0,0,0-.812,2.517,13.455,13.455,0,0,0-.31,2.891A8.667,8.667,0,0,1,55,28.129a4.081,4.081,0,0,1-.4,1.167,1.739,1.739,0,0,1-.584.657,1.34,1.34,0,0,1-.711.2,1.288,1.288,0,0,1-.584-.128,1.7,1.7,0,0,1-.447-.319,1.915,1.915,0,0,1-.319-.42A2.948,2.948,0,0,1,51.755,28.859Zm22.4-10.38a5.9,5.9,0,0,1-.292,1.879,6.763,6.763,0,0,1-.775,1.605,6.9,6.9,0,0,1-1.1,1.3,9.225,9.225,0,0,1-1.25.967,6.748,6.748,0,0,1-1.231.629,3.441,3.441,0,0,1-1.058.246.871.871,0,0,0-.638.21.642.642,0,0,0-.164.429,1.123,1.123,0,0,0,.109.474,3.539,3.539,0,0,0,.2.383,2.143,2.143,0,0,0,.757.693,3.22,3.22,0,0,0,1.523.274,8.679,8.679,0,0,0,1.231-.109,6.951,6.951,0,0,0,1.605-.465A8.815,8.815,0,0,0,76.728,24.1.726.726,0,0,1,77,23.879a.764.764,0,0,1,1.04.319,3.262,3.262,0,0,1-.055,2.9,4.68,4.68,0,0,1-.994,1.2,8.032,8.032,0,0,1-1.459,1.012,11.046,11.046,0,0,1-1.769.775,12.869,12.869,0,0,1-1.934.493,11.3,11.3,0,0,1-1.943.173A7.655,7.655,0,0,1,67,30.236a5.786,5.786,0,0,1-2.171-1.5,6.74,6.74,0,0,1-1.359-2.408,10.187,10.187,0,0,1-.474-3.229,14.242,14.242,0,0,1,.182-2.253,13.83,13.83,0,0,1,.547-2.226,11.2,11.2,0,0,1,.912-2.034,7.467,7.467,0,0,1,1.286-1.66A5.715,5.715,0,0,1,67.589,13.8a5.006,5.006,0,0,1,2.043-.41,4.323,4.323,0,0,1,2.162.493,4.156,4.156,0,0,1,1.386,1.24,5.02,5.02,0,0,1,.748,1.651A6.977,6.977,0,0,1,74.156,18.479Zm-7.187,3.083q0,.073.009.2a.606.606,0,0,0,.073.246.547.547,0,0,0,.192.2.676.676,0,0,0,.365.082,2.021,2.021,0,0,0,1.177-.465,5.714,5.714,0,0,0,1.149-1.149,7.284,7.284,0,0,0,.866-1.468,3.535,3.535,0,0,0,.347-1.4,2.4,2.4,0,0,0-.055-.483,2.2,2.2,0,0,0-.173-.511,1.143,1.143,0,0,0-.328-.41.847.847,0,0,0-.538-.164,1.545,1.545,0,0,0-1,.52,5.741,5.741,0,0,0-1,1.313,9.347,9.347,0,0,0-.766,1.733A5.631,5.631,0,0,0,66.968,21.562Z" transform="translate(90.673 49.16) rotate(167)" fill="#fc5f65"/>
    </g>
  </g>
</svg>
