<svg xmlns="http://www.w3.org/2000/svg" xmlns:xlink="http://www.w3.org/1999/xlink" width="190" height="243" viewBox="0 0 190 243">
  <defs>
    <clipPath id="clip-path">
      <rect id="Rectángulo_35940" data-name="Rectángulo 35940" width="102.792" height="220.509" fill="none"/>
    </clipPath>
    <clipPath id="clip-path-3">
      <rect id="Rectángulo_35937" data-name="Rectángulo 35937" width="1.301" height="0.494" fill="none"/>
    </clipPath>
    <clipPath id="clip-path-4">
      <rect id="Rectángulo_35938" data-name="Rectángulo 35938" width="1.967" height="10.588" fill="none"/>
    </clipPath>
  </defs>
  <g id="Grupo_88138" data-name="Grupo 88138" transform="translate(-495 -1250)">
    <g id="Grupo_88062" data-name="Grupo 88062">
      <g id="Grupo_87691" data-name="Grupo 87691" transform="translate(-100 315.639)">
        <path id="Rectángulo_34436" data-name="Rectángulo 34436" d="M0,0H96a77,77,0,0,1,77,77V184.116a0,0,0,0,1,0,0H0a0,0,0,0,1,0,0V0A0,0,0,0,1,0,0Z" transform="translate(612 954.362)" fill="#a6bbff"/>
        <g id="Grupo_87372" data-name="Grupo 87372" transform="translate(618.834 955.577)">
          <path id="Trazado_114646" data-name="Trazado 114646" d="M151.4,72.681c-1.152,17.828-14.827,34.849-33.347,35.905-21.272,1.63-40.8-10.036-61.986-10.159-10.8-.926-20.938,3.211-31.467,4.547C.823,103.846-2.8,75.9,1.635,57.886,20.34-27.038,152.7-15.484,151.4,72.681Z" transform="translate(1.291 13.295)" fill="#e1e8ff"/>
        </g>
      </g>
      <g id="Grupo_88061" data-name="Grupo 88061" transform="translate(547 1251.804)">
        <g id="Grupo_88050" data-name="Grupo 88050" clip-path="url(#clip-path)">
          <rect id="Rectángulo_35911" data-name="Rectángulo 35911" width="102.792" height="220.509" fill="#ffad69"/>
          <path id="Trazado_124501" data-name="Trazado 124501" d="M613.021,1389.34l4.135,2.565v37.556l.8.344v-37.67l7.036,4.632-.361,39.355,1.022.536.42-39.378,2.679,1.631v-1.286L613.021,1388Z" transform="translate(-542.616 -1228.59)" fill="#f7974f"/>
          <path id="Trazado_124502" data-name="Trazado 124502" d="M126.326,1715.5,62.4,1717.628l12.108,16.305h66.336l-.344-7.231Z" transform="translate(-55.232 -1518.477)" fill="#f7974f"/>
          <g id="Grupo_88049" data-name="Grupo 88049">
            <g id="Grupo_88048" data-name="Grupo 88048" clip-path="url(#clip-path)">
              <path id="Trazado_124503" data-name="Trazado 124503" d="M159.089,711.259c.03-1.463-1.646-1.493-2.133.579s2.02,5.025,1.981,6.278c-.066,2.132-3.992,2.489-3.992,2.489s-2.743.406-.061.741,6.186-1.4,4.6-5c-1.072-2.432-.427-3.627-.4-5.089" transform="translate(-136.054 -628.648)" fill="#6b5a5d"/>
              <path id="Trazado_124504" data-name="Trazado 124504" d="M77.163,688.025c-1.15-1.014-1.13-3.454-1.91-3.939-.959-.6-3.525-.038-4,1.16-.394.989-.509,4.016,1.564,3.962s1.272.82,1.381,1.707c.081.656.729,1.111,1.095,1.9s.245,4.93.245,4.93-.69.466-.731.94.405.342.751.342H82s1.26-7.711,0-9.011-4.353-1.562-4.835-1.986" transform="translate(-62.864 -605.306)" fill="#6b5a5d"/>
              <path id="Trazado_124505" data-name="Trazado 124505" d="M572.021,505.34l4.02,2.565v37.556l.919.344v-37.67l7.019,4.632-.37,39.355,1.017.536.436-39.378,2.694,1.631v-1.286L572.021,504Z" transform="translate(-506.325 -446.116)" fill="#f7974f"/>
              <path id="Trazado_124506" data-name="Trazado 124506" d="M182.077,826l-50.985,2.759,11.189,16.305H196.9l-.343-7.231Z" transform="translate(-116.037 -731.135)" fill="#f7974f"/>
              <path id="Trazado_124507" data-name="Trazado 124507" d="M227.005,186.075l39-.04L266.5,103H225.912Z" transform="translate(-199.967 -91.171)" fill="#f7974f"/>
              <path id="Trazado_124508" data-name="Trazado 124508" d="M274.513,185.232l34.513.8.5-83.036-7.733,6.546Z" transform="translate(-242.986 -91.171)" fill="#ffcca6"/>
              <path id="Trazado_124509" data-name="Trazado 124509" d="M252.021,206.394h33.651l.9-80.394H252.021Z" transform="translate(-223.077 -111.529)" fill="#ffe5cc"/>
              <path id="Trazado_124510" data-name="Trazado 124510" d="M289.788,241.117l25.523.224V166.229L290.188,166Z" transform="translate(-256.506 -146.935)" fill="#6b5a5d"/>
              <path id="Trazado_124511" data-name="Trazado 124511" d="M304.429,201.051l22.281,2.627V177.531l-22.487-.364Z" transform="translate(-269.283 -156.82)" fill="#7f6a6e"/>
              <path id="Trazado_124512" data-name="Trazado 124512" d="M307.138,760.971a13.666,13.666,0,0,1,.211,3.407c-.134.23-4.058,2.125-3.465,2.527s7.111-.153,7.111-.153l-.663-6.585Z" transform="translate(-268.93 -672.863)" fill="#ff7346"/>
              <path id="Trazado_124513" data-name="Trazado 124513" d="M335.88,787.45c-.153.134-4.173,1.024-4.192,1.12s7.829.483,7.829.426.115-4,.115-4h-3.369a13.845,13.845,0,0,1-.383,2.45" transform="translate(-293.594 -694.844)" fill="#ff7346"/>
              <path id="Trazado_124514" data-name="Trazado 124514" d="M302.375,800.294c-.859-.084-2.354,1.686-2.354,1.686v.364l5.477.192.194-.92-1.737-.038s-.72-1.2-1.579-1.284" transform="translate(-265.564 -708.379)" fill="#8ed5dd"/>
              <path id="Trazado_124515" data-name="Trazado 124515" d="M278.657,446.285s-4.145,13.38-4.144,19.582c0,1.225,5.509,16.927,5.509,16.927a25.259,25.259,0,0,0,4.28-.785c0-1.6.042-3.875.105-6.44-1.244-3.762-2.848-8.423-2.831-10.85.02-2.848,3.536-10.662,3.536-10.662s-.486,12.545-.706,21.512c.934,2.823,1.665,5.14,1.357,5.625a2.821,2.821,0,0,1-1.462.815,16.189,16.189,0,0,0,.086,2.383c.138.456,5.381.758,5.917,0s5.13-33.776,3.675-37.3-15.323-.8-15.323-.8" transform="translate(-242.986 -394.144)" fill="#8ed5dd"/>
              <path id="Trazado_124516" data-name="Trazado 124516" d="M359.753,715.414a2.821,2.821,0,0,0,1.462-.815c.308-.485-.423-2.8-1.357-5.625-.063,2.565-.1,4.838-.105,6.44" transform="translate(-318.436 -627.549)" fill="#8ed5dd"/>
              <path id="Trazado_124517" data-name="Trazado 124517" d="M337.12,801.564a2.314,2.314,0,0,0-1.952-1.244c-1.283.057-2.814,2.144-2.814,2.144h8.384a4.294,4.294,0,0,0,0-.708,34.615,34.615,0,0,0-3.618-.192" transform="translate(-294.184 -708.402)" fill="#8ed5dd"/>
              <path id="Trazado_124518" data-name="Trazado 124518" d="M263.206,294.981c-11.412.145-10.78,8.039-10.78,8.039l4.034.459s2.225,11.1,1.268,14.355c-.508,1.726,17.092,2.2,17.115,0a95.321,95.321,0,0,0-.439-12.325l.768-3.135c-.172-2.232-.215-7.542-11.965-7.393" transform="translate(-223.43 -261.1)" fill="#ffd187"/>
              <rect id="Rectángulo_35912" data-name="Rectángulo 35912" width="0.464" height="41.32" transform="translate(15.056 53.584)" fill="#544548"/>
              <rect id="Rectángulo_35913" data-name="Rectángulo 35913" width="0.464" height="41.32" transform="translate(21.047 53.584)" fill="#544548"/>
              <rect id="Rectángulo_35914" data-name="Rectángulo 35914" width="0.464" height="41.32" transform="translate(27.039 53.584)" fill="#544548"/>
              <rect id="Rectángulo_35915" data-name="Rectángulo 35915" width="0.464" height="41.32" transform="translate(33.03 53.584)" fill="#544548"/>
              <rect id="Rectángulo_35916" data-name="Rectángulo 35916" width="0.464" height="41.32" transform="translate(39.022 53.584)" fill="#544548"/>
              <rect id="Rectángulo_35917" data-name="Rectángulo 35917" width="0.464" height="41.32" transform="translate(45.013 53.584)" fill="#544548"/>
              <path id="Trazado_124519" data-name="Trazado 124519" d="M332.47,356.607c-.409.036-.693.53-.7.551l.245.161s.222-.381.483-.4a.418.418,0,0,1,.351.2.577.577,0,0,1,.042.663,1.183,1.183,0,0,1-1.2.6l-.05.305a1.207,1.207,0,0,0,.226.021,1.514,1.514,0,0,0,1.274-.769.9.9,0,0,0-.074-1.019.681.681,0,0,0-.591-.308" transform="translate(-293.548 -315.65)" fill="#fdf5f4"/>
              <rect id="Rectángulo_35918" data-name="Rectángulo 35918" width="0.464" height="41.32" transform="translate(51.005 53.584)" fill="#544548"/>
              <rect id="Rectángulo_35919" data-name="Rectángulo 35919" width="0.464" height="41.32" transform="translate(56.996 53.584)" fill="#544548"/>
              <rect id="Rectángulo_35920" data-name="Rectángulo 35920" width="0.464" height="41.32" transform="translate(62.988 53.584)" fill="#544548"/>
              <rect id="Rectángulo_35921" data-name="Rectángulo 35921" width="55.29" height="4.84" transform="translate(11.554 93.481)" fill="#ffeedb"/>
              <rect id="Rectángulo_35922" data-name="Rectángulo 35922" width="55.29" height="1.361" transform="translate(11.554 53.584)" fill="#544548"/>
              <path id="Trazado_124520" data-name="Trazado 124520" d="M250.795,369.741s.544-6.475.646-8.269c.052-.918-3.244-1.091-4.12-.641,0,0-1.9,10.7-.459,12.057s11.31-.01,11.31-.01-.407,2.294-.074,2.4c.78.258,2.814.545,3.388-.038s-.024-3.311-.88-4.345-9.81-1.158-9.81-1.158" transform="translate(-218.032 -319.179)" fill="#ff7346"/>
              <path id="Trazado_124521" data-name="Trazado 124521" d="M321.135,289.992a3.486,3.486,0,0,0-3.441,3.161c.017,1.6,1.585,2.791,3.5,2.65a3.486,3.486,0,0,0,3.441-3.161c-.017-1.6-1.585-2.792-3.5-2.65" transform="translate(-281.207 -256.677)" fill="#ffe2ba"/>
              <path id="Trazado_124522" data-name="Trazado 124522" d="M347.331,354.14c-.172.172-1.034,5.433-1.034,5.433s-2.577-4.365-3.955-5.226a3.558,3.558,0,0,0-.627-.313c-1.112-.421-2.027-.068-2.194.328,0,0,.115,2.4.632,2.914a5.406,5.406,0,0,0,2.354.638s1.737,8.555,4.422,8.959,5.61-11.723,4.877-12.653c-.609-.773-4.3-.253-4.475-.081" transform="translate(-300.527 -313.174)" fill="#ff7346"/>
              <path id="Trazado_124523" data-name="Trazado 124523" d="M326.7,278.333l-4.617,1.11c-.04.153-.732,5.5,2.458,5.206,3.38-.306,3.117-2.718,3.006-3.292s-.848-3.024-.848-3.024" transform="translate(-285.015 -246.367)" fill="#ff7346"/>
              <path id="Trazado_124524" data-name="Trazado 124524" d="M292.768,351.616s-.425,3.511,2.523,3.441,2.326-3.428,2.326-3.428a10.91,10.91,0,0,0-4.848-.013" transform="translate(-259.125 -310.999)" fill="#fdf5f4"/>
              <path id="Trazado_124525" data-name="Trazado 124525" d="M369.922,263.992a1.224,1.224,0,0,0-1.024,1.061c-.107.581.178,1.049.637,1.045a1.225,1.225,0,0,0,1.024-1.061c.107-.581-.178-1.049-.637-1.045" transform="translate(-326.51 -233.673)" fill="#ff7346"/>
              <path id="Trazado_124526" data-name="Trazado 124526" d="M288.429,266.558c-.459.008-.773.484-.7,1.063a1.093,1.093,0,0,0,.96,1.034c.459-.008.773-.484.7-1.063a1.093,1.093,0,0,0-.96-1.034" transform="translate(-254.673 -235.944)" fill="#ff7346"/>
              <path id="Trazado_124527" data-name="Trazado 124527" d="M299.905,226.8c-1.628,1.789-3.8,9.309,2.588,9.319,6.633.01,3.627-8.112,3.627-8.112-1.412-2.607-4.587-3-6.215-1.207" transform="translate(-263.946 -199.778)" fill="#ff7346"/>
              <path id="Trazado_124528" data-name="Trazado 124528" d="M349.147,260.4a.445.445,0,0,0-.43.431.407.407,0,0,0,.164.343c.194-.045.408-.088.612-.152a.442.442,0,0,0,.058-.2.4.4,0,0,0-.4-.42" transform="translate(-308.667 -230.494)" fill="#1e2028"/>
              <path id="Trazado_124529" data-name="Trazado 124529" d="M312.553,260.9a.43.43,0,0,0-.429.4.37.37,0,0,0,.034.166,1.506,1.506,0,0,0,.494.206.423.423,0,0,0,.306-.383.387.387,0,0,0-.4-.393" transform="translate(-276.277 -230.936)" fill="#1e2028"/>
              <path id="Trazado_124530" data-name="Trazado 124530" d="M350.521,251.388a.838.838,0,0,0-.679-.033l.039.157a.69.69,0,0,1,.552.017.41.41,0,0,1,.181.247l.161-.037a.562.562,0,0,0-.253-.351" transform="translate(-309.663 -222.439)" fill="#1e2028"/>
              <path id="Trazado_124531" data-name="Trazado 124531" d="M310.441,251.833a.732.732,0,0,0-.429.361l.146.068a.56.56,0,0,1,.317-.27.548.548,0,0,1,.465.152l.105-.129a.7.7,0,0,0-.6-.181" transform="translate(-274.408 -222.897)" fill="#1e2028"/>
              <path id="Trazado_124532" data-name="Trazado 124532" d="M324.988,263.754a.2.2,0,0,1-.046-.17c.053-.441.917-1.235,1.027-1.312l-.07-.151c-.042.021-1,.849-1.111,1.408a.379.379,0,0,0,.083.349,1.5,1.5,0,0,0,1.07.306,3.247,3.247,0,0,0,.431-.033l-.016-.17c-.01,0-1.009.153-1.368-.228" transform="translate(-287.478 -232.017)" fill="#ff3a1e"/>
              <path id="Trazado_124533" data-name="Trazado 124533" d="M302.911,221.276c-4.882.05-4.244,5.3-4.244,5.3a5.442,5.442,0,0,0,.15,1.125c0-.01.062-.155.07-.2.033-.188.052-.377.072-.566a8.425,8.425,0,0,1,.164-1.349,1.623,1.623,0,0,1,.519-.955.838.838,0,0,0,.328-.331,1.519,1.519,0,0,0,.119-.431,1.914,1.914,0,0,1,.182-.7,1.1,1.1,0,0,1,.626-.46,6.112,6.112,0,0,1,1.6-.181,9.832,9.832,0,0,1,1.566.053,2.993,2.993,0,0,1,.671.129c.986.355.658,1.747,1.363,2.362.116.1.251.181.359.292.213.217.139.482.162.763s.046.531.076.8c.027.243.056.487.1.726.015.074.036.3.125.334.2.07.182-1.41.182-1.41s.688-5.353-4.195-5.3" transform="translate(-264.341 -195.863)" fill="#892412"/>
              <path id="Trazado_124534" data-name="Trazado 124534" d="M304.761,201.331c-.046.179-.192.252-.315.393,0-.308-1.7-1.27-2.034-2.1a3.518,3.518,0,0,0-2.118,1.624,1.8,1.8,0,0,1-.048-.691,5.873,5.873,0,0,0-2.264,1.494,1.063,1.063,0,0,0-.3.751,2.368,2.368,0,0,1-.182-.8,2.664,2.664,0,0,1-.188.245,1.081,1.081,0,0,0-.115.335,1.047,1.047,0,0,0,.1.653,3.223,3.223,0,0,0,.637.913l3.8-1.663,3.707,1.957a6.837,6.837,0,0,0,.415-.62,1.243,1.243,0,0,0,.16-.982,4.148,4.148,0,0,0-1.252-1.505" transform="translate(-263.05 -176.694)" fill="#91473d"/>
              <path id="Trazado_124535" data-name="Trazado 124535" d="M305.666,213.547a1.032,1.032,0,0,1,.066.428,1.182,1.182,0,0,1-.1.369,1.031,1.031,0,0,1-.609.533,2.042,2.042,0,0,0-.57-1.007c-.182-.174-.4-.314-.565-.5a.821.821,0,0,1-.24-.694l-.562.369a1.205,1.205,0,0,0-.309.257.391.391,0,0,0-.076.372,3.147,3.147,0,0,1-.376-.605,1.1,1.1,0,0,1-.076-.707,4.377,4.377,0,0,0-1.825,1.2.818.818,0,0,0-.192.435,4.278,4.278,0,0,1-.168-.89c0,.01-.659.307-.722.342a4.326,4.326,0,0,0-.682.444,1.572,1.572,0,0,0-.476.6q-.015-.226-.03-.452a1.156,1.156,0,0,0-.4.461c-.07.146-.385-.215-.41-.252a.838.838,0,0,1-.164-.42.991.991,0,0,0,.095.683,3.226,3.226,0,0,0,.637.913,6.359,6.359,0,0,0-.56,3.265,5.442,5.442,0,0,0,.15,1.125c0-.009.062-.155.07-.2.033-.188.052-.377.072-.566a8.42,8.42,0,0,1,.164-1.349,1.623,1.623,0,0,1,.519-.955.838.838,0,0,0,.328-.331,1.516,1.516,0,0,0,.119-.431,1.915,1.915,0,0,1,.182-.7,1.1,1.1,0,0,1,.626-.46,6.116,6.116,0,0,1,1.6-.181,9.842,9.842,0,0,1,1.566.053,2.99,2.99,0,0,1,.671.129c.986.355.658,1.747,1.363,2.362.116.1.251.181.359.292.213.217.139.482.162.763s.046.531.076.8c.027.243.056.487.1.726.015.074.036.3.125.334.2.07.182-1.41.182-1.41a6.683,6.683,0,0,0-.378-2.973,6.463,6.463,0,0,0,.416-.619,1.244,1.244,0,0,0,.16-.982,1.839,1.839,0,0,0-.323-.566" transform="translate(-263.026 -187.971)" fill="#843c35"/>
              <path id="Trazado_124536" data-name="Trazado 124536" d="M330.987,294.4l-.05.157a1.773,1.773,0,0,0,.5.075.6.6,0,0,0,.383-.1l-.1-.122s-.191.145-.73-.006" transform="translate(-292.929 -260.589)" fill="#ff3a1e"/>
              <path id="Trazado_124537" data-name="Trazado 124537" d="M373.635,268.132l.162-.024c-.1-.958.4-1.123.425-1.13l-.039-.157c-.027.008-.664.2-.548,1.311" transform="translate(-330.711 -236.177)" fill="#ff3a1e"/>
              <path id="Trazado_124538" data-name="Trazado 124538" d="M377.688,272.7c.036-.006.063-.016.005-.015Z" transform="translate(-334.311 -241.364)" fill="#ff3a1e"/>
              <path id="Trazado_124539" data-name="Trazado 124539" d="M373.917,271.285a.27.27,0,0,0-.112.21l.163.005c0-.053.021-.081.038-.083.136-.016.211-.021.25-.022l.048-.142a.5.5,0,0,0-.387.031" transform="translate(-330.874 -240.078)" fill="#ff3a1e"/>
              <path id="Trazado_124540" data-name="Trazado 124540" d="M293.075,269.4l-.049.158c.021.006.515.158.356,1.119l.161.02c.185-1.111-.441-1.29-.468-1.3" transform="translate(-259.372 -238.462)" fill="#ff3a1e"/>
              <path id="Trazado_124541" data-name="Trazado 124541" d="M293.917,273.809a.5.5,0,0,0-.386-.021l.044.155a.353.353,0,0,1,.245,0,.09.09,0,0,1,.033.082l.163-.01a.243.243,0,0,0-.1-.207" transform="translate(-259.819 -242.317)" fill="#ff3a1e"/>
              <path id="Trazado_124542" data-name="Trazado 124542" d="M321.621,282.133l-.021.085-.022.085a.236.236,0,0,1,.081.04,2.687,2.687,0,0,1-3.444.226l-.1.131a2.625,2.625,0,0,0,1.64.566,3.372,3.372,0,0,0,2-.793.393.393,0,0,1,.021.108l.178-.015a.443.443,0,0,0-.33-.434" transform="translate(-281.58 -249.73)" fill="#ff3a1e"/>
              <path id="Trazado_124543" data-name="Trazado 124543" d="M323.434,307.775q.019.089.042.177a5.724,5.724,0,0,0,2.211.035,4.71,4.71,0,0,0,2.1-.946l-.053-.164a4.918,4.918,0,0,1-4.3.9" transform="translate(-286.288 -271.633)" fill="#ff3a1e"/>
              <path id="Trazado_124544" data-name="Trazado 124544" d="M304.693,380.589a7.627,7.627,0,0,0,1.981-.007,3.69,3.69,0,0,0,.244-.581h-2.4s.057.531.172.589" transform="translate(-269.547 -336.357)" fill="#fdf5f4"/>
              <path id="Trazado_124545" data-name="Trazado 124545" d="M296.71,353a6.134,6.134,0,0,0-2.189.2,12.024,12.024,0,0,0,4.379,0,6.133,6.133,0,0,0-2.189-.2" transform="translate(-260.696 -312.458)" fill="#bcb3b5"/>
              <path id="Trazado_124546" data-name="Trazado 124546" d="M335.192,358.541c.009.572.928.257.928.257a5.07,5.07,0,0,0,.827-.129c-.023-.043-.726-.919-.726-.919-.043,0-1.037.219-1.028.791" transform="translate(-296.696 -316.663)" fill="#ff7346"/>
              <path id="Trazado_124547" data-name="Trazado 124547" d="M335.326,353.677a.3.3,0,0,0-.182.529.577.577,0,0,0,.633.058l1.342-.55a8.159,8.159,0,0,0-1.793-.038" transform="translate(-296.562 -313.019)" fill="#ff7346"/>
              <path id="Trazado_124548" data-name="Trazado 124548" d="M335.58,365.74s-.842.719-.687,1.107a3.15,3.15,0,0,0,1.039,1.182,6.853,6.853,0,0,0,1.737.362l-1.386-2.19Z" transform="translate(-296.414 -323.735)" fill="#ff7346"/>
              <path id="Trazado_124549" data-name="Trazado 124549" d="M365.529,389.277c0,.016.02.1.05.235.1.008.211.014.32.014a1.58,1.58,0,0,0,.545-.076l-.084-.214a2.166,2.166,0,0,1-.831.041" transform="translate(-323.548 -344.533)" fill="#ff3a1e"/>
              <path id="Trazado_124550" data-name="Trazado 124550" d="M362.351,389.189l.173.019c-.069-.009-.128-.018-.172-.026Z" transform="translate(-320.735 -344.485)" fill="#ff3a1e"/>
              <path id="Trazado_124551" data-name="Trazado 124551" d="M398.721,400.545c1.621,1.847,1.968,3.033,1.968,3.814h.23c0-1.142-.743-2.537-2.149-4.105l-.048.291" transform="translate(-352.928 -354.285)" fill="#ff3a1e"/>
              <path id="Trazado_124552" data-name="Trazado 124552" d="M345.425,480.888s-.01-.258-.235-.194.1.883.359,1.041a9.936,9.936,0,0,0,3.245-.234,1.65,1.65,0,0,0,.317-.5l-3.375-.5Z" transform="translate(-305.478 -425.315)" fill="#ff7346"/>
              <path id="Trazado_124553" data-name="Trazado 124553" d="M262.176,438.628a9.012,9.012,0,0,1,2.567-.743c0-.05.011-.13.02-.236a8.978,8.978,0,0,0-2.689.774Z" transform="translate(-231.974 -387.385)" fill="#ff3a1e"/>
              <path id="Trazado_124554" data-name="Trazado 124554" d="M346.787,461.8l.239-.032c.064-.32.132-.7.132-.763h-.23c0,.073-.078.485-.142.8" transform="translate(-306.959 -408.055)" fill="#ff3a1e"/>
              <path id="Trazado_124555" data-name="Trazado 124555" d="M347.855,513.075l2.018.364-.115,1.047c.171-.394.274-.624.274-.624s0,.124-.014.354l.106-.964-2.229-.4Z" transform="translate(-307.904 -453.949)" fill="#57bbc2"/>
              <path id="Trazado_124556" data-name="Trazado 124556" d="M356.96,707.714l.231-.068c.035-2.288.076-5.224.085-6.8l-.225-.679c0,1.252-.056,5.238-.091,7.547" transform="translate(-315.964 -619.754)" fill="#57bbc2"/>
              <path id="Trazado_124557" data-name="Trazado 124557" d="M115.794,464.053s-.306,6.442.077,6.82,1.838-.016,1.838-.016-.137-6.576-.421-6.785-1.493-.019-1.493-.019" transform="translate(-102.393 -410.687)" fill="#6b5a5d"/>
              <path id="Trazado_124558" data-name="Trazado 124558" d="M219.794,464.053s-.306,6.442.077,6.82,1.838-.016,1.838-.016-.137-6.576-.421-6.785-1.493-.019-1.493-.019" transform="translate(-194.448 -410.687)" fill="#6b5a5d"/>
              <path id="Trazado_124559" data-name="Trazado 124559" d="M113.085,449.914c-1.072-.292-2.106,3.316-2.106,3.316s1.34-8.307-.574-8.007-2.22,7.76-2.22,7.76.115-7.448-1.709-6.606-.626,8.46-.626,8.46-1.838-7.17-2.833-5.809,1.187,5.591,1.187,5.591.957.793,1.034.908,6.369-.421,6.369-.421,2.55-4.9,1.479-5.192" transform="translate(-90.955 -394.083)" fill="#55bfa4"/>
              <path id="Trazado_124560" data-name="Trazado 124560" d="M216.921,461.746c-.612-.306-1.868,1.652-1.868,1.652s1.562-3.446.452-3.393-1.34,2.381-1.34,2.381.574-5.956-.6-5.765-1.507,6.086-1.507,6.086.268-5.248-1.11-4.828-.421,6.822-.421,6.822h4.525s2.481-2.647,1.868-2.953" transform="translate(-186.063 -404.174)" fill="#55bfa4"/>
              <path id="Trazado_124561" data-name="Trazado 124561" d="M192.057,498.212c-.23.623-.369,1.124-.369,1.124s.163-.45.369-1.124" transform="translate(-169.673 -440.993)" fill="#60d3b4"/>
              <path id="Trazado_124562" data-name="Trazado 124562" d="M154.629,450.38c-.689-.361-2.024,1.872-2.024,1.872s1.488-3.271.378-3.491c-.7-.139-1.376,1.309-1.775,2.388-.206.674-.369,1.124-.369,1.124s.139-.5.369-1.124c.6-1.945,1.559-5.765.052-6.091-2.029-.439-3.063,8.475-3.063,8.475s-1.314-4.974-2.356-4.658.939,6.843.939,6.843l6.47-.842s2.067-4.135,1.378-4.5" transform="translate(-128.824 -393.93)" fill="#60d3b4"/>
              <path id="Trazado_124563" data-name="Trazado 124563" d="M101.8,527.121c.5.536,14.753.306,15.887,0S119.642,520,119.642,520l-19.036.219s.7,6.365,1.2,6.9" transform="translate(-89.052 -460.279)" fill="#7f6a6e"/>
              <path id="Trazado_124564" data-name="Trazado 124564" d="M100.858,522.3H119.3c.217-1.272.34-2.3.34-2.3l-19.036.219s.1.914.252,2.078" transform="translate(-89.052 -460.279)" fill="#6b5a5d"/>
              <path id="Trazado_124565" data-name="Trazado 124565" d="M95.66,521.715c.153.1,19.642-.093,19.7-.361s.171-1.381.171-1.381l-20.175.137a6.75,6.75,0,0,0,.306,1.6" transform="translate(-84.403 -460.255)" fill="#7f6a6e"/>
              <path id="Trazado_124566" data-name="Trazado 124566" d="M428.794,464.053s-.306,6.442.077,6.82,1.838-.016,1.838-.016-.137-6.576-.421-6.785-1.493-.019-1.493-.019" transform="translate(-379.445 -410.687)" fill="#6b5a5d"/>
              <path id="Trazado_124567" data-name="Trazado 124567" d="M532.794,464.053s-.306,6.442.077,6.82,1.838-.016,1.838-.016-.137-6.576-.421-6.785-1.493-.019-1.493-.019" transform="translate(-471.501 -410.687)" fill="#6b5a5d"/>
              <path id="Trazado_124568" data-name="Trazado 124568" d="M441.928,526.018s-.035-.145-.1-.387c.06.245.1.387.1.387" transform="translate(-391.086 -465.263)" fill="#55bfa4"/>
              <path id="Trazado_124569" data-name="Trazado 124569" d="M427.086,451.43c-1.072-.292-2.106,3.316-2.106,3.316s.44-8.11-1.474-7.81-1.321,7.563-1.321,7.563-.528-6.629-2.352-5.787c-1.561.721-.438,5.8-.082,7.255.063.242.1.387.1.387s-.038-.142-.1-.387c-.375-1.439-1.739-6.348-2.591-5.183-1,1.361,1.043,5.352,1.043,5.352s.957.793,1.034.908,6.369-.421,6.369-.421,2.55-4.9,1.479-5.192" transform="translate(-369.008 -395.6)" fill="#55bfa4"/>
              <path id="Trazado_124570" data-name="Trazado 124570" d="M529.921,461.746c-.612-.306-1.868,1.652-1.868,1.652s1.562-3.446.452-3.393-1.34,2.381-1.34,2.381.574-5.956-.6-5.765-1.507,6.086-1.507,6.086.268-5.248-1.11-4.828-.421,6.822-.421,6.822h4.525s2.481-2.647,1.868-2.953" transform="translate(-463.115 -404.174)" fill="#55bfa4"/>
              <path id="Trazado_124571" data-name="Trazado 124571" d="M505.281,493.268a15.763,15.763,0,0,0-.593,1.692s.279-.711.593-1.692" transform="translate(-446.725 -436.617)" fill="#60d3b4"/>
              <path id="Trazado_124572" data-name="Trazado 124572" d="M472.628,449.111c-.689-.361-2.024,1.872-2.024,1.872s1.488-3.271.378-3.491c-.585-.116-1.149.866-1.551,1.82-.313.981-.593,1.692-.593,1.692a15.788,15.788,0,0,1,.593-1.692c.666-2.084,1.486-5.389.106-5.687-2.029-.439-3.407,8.132-3.407,8.132s-.518-4.543-1.56-4.227.373,6.345.373,6.345l6.307-.268s2.067-4.135,1.378-4.5" transform="translate(-410.876 -392.66)" fill="#60d3b4"/>
              <path id="Trazado_124573" data-name="Trazado 124573" d="M412.636,515.145c.333.471.7.855.763.816s-.314-.44-.763-.816" transform="translate(-365.245 -455.981)" fill="#55bfa4"/>
              <path id="Trazado_124574" data-name="Trazado 124574" d="M402.368,501.879c-.248.24.1.921.5,1.481.449.376.829.776.763.816s-.43-.345-.763-.816c-.517-.433-1.125-.835-1.248-.62-.23.4,1.637,1.806,1.637,1.806l1.637-.37s-2.068-2.738-2.525-2.3" transform="translate(-355.477 -444.197)" fill="#55bfa4"/>
              <path id="Trazado_124575" data-name="Trazado 124575" d="M546.641,494.586s1.091-2.756.391-2.778-1.511,3.353-1.511,3.5l1.493.37s2.929-3.04,2.393-3.532-2.766,2.444-2.766,2.444" transform="translate(-482.869 -435.324)" fill="#60d3b4"/>
              <path id="Trazado_124576" data-name="Trazado 124576" d="M414.8,527.121c.5.536,14.753.306,15.887,0S432.642,520,432.642,520l-19.036.219s.7,6.365,1.2,6.9" transform="translate(-366.104 -460.279)" fill="#7f6a6e"/>
              <path id="Trazado_124577" data-name="Trazado 124577" d="M413.858,522.3H432.3c.217-1.272.34-2.3.34-2.3l-19.036.219s.1.914.252,2.078" transform="translate(-366.104 -460.279)" fill="#6b5a5d"/>
              <path id="Trazado_124578" data-name="Trazado 124578" d="M408.66,521.715c.153.1,19.642-.093,19.7-.361s.171-1.381.171-1.381l-20.175.137a6.747,6.747,0,0,0,.306,1.6" transform="translate(-361.455 -460.255)" fill="#7f6a6e"/>
              <path id="Trazado_124579" data-name="Trazado 124579" d="M200.251,85l-1.4,1.148,3.106,1.838,40.321-.8,3.287-1.222-.411-.96Z" transform="translate(-176.016 -75.238)" fill="#e28647"/>
              <path id="Trazado_124580" data-name="Trazado 124580" d="M196.027,62.569l46.7-.188.421-4.02-47.507.418Z" transform="translate(-173.17 -51.658)" fill="#ffcca6"/>
              <path id="Trazado_124581" data-name="Trazado 124581" d="M508.361,708.546a15.784,15.784,0,0,1-.044-1.861s.257-.144.291-.294a2.411,2.411,0,0,0-.072-1,3.4,3.4,0,0,0-1.773.064,3.683,3.683,0,0,0-.093.931c0,.154.319.246.319.246a16.621,16.621,0,0,1-.043,1.912c-.076.153-1.474,1.071-1.513,1.339s-.082,7.014.1,7.923h4.248c.178-.909.132-7.668.1-7.923s-1.436-1.186-1.513-1.339" transform="translate(-447.356 -624.302)" fill="#60d3b4"/>
              <path id="Trazado_124582" data-name="Trazado 124582" d="M504.41,762.016h4.216v-3.35h-4.22c-.007.951-.008,2.2,0,3.35" transform="translate(-446.471 -671.534)" fill="#a85248"/>
              <path id="Trazado_124583" data-name="Trazado 124583" d="M23.644,228.308c-.041-.005-3.609-.179-6.883-.339v5.324c3.388.122,7.02.166,7.265-.084.46-.467-.306-4.892-.383-4.9" transform="translate(-14.836 -201.787)" fill="#ffb985"/>
              <path id="Trazado_124584" data-name="Trazado 124584" d="M48.809,286.393c-.353-.208-9.254-.411-10.345-.051,0,0-.747,3.864,0,4.467s10.066.2,10.345,0,.353-4.208,0-4.415" transform="translate(-33.753 -253.281)" fill="#ffb985"/>
              <path id="Trazado_124585" data-name="Trazado 124585" d="M25.806,21.238a58.972,58.972,0,0,0-9.045-.327v4.917c3.594-.009,8.854-.111,9.045-.34.287-.345.517-3.962,0-4.249" transform="translate(-14.836 -18.482)" fill="#ffb985"/>
              <path id="Trazado_124586" data-name="Trazado 124586" d="M105.619,114.275c-.459-.23-6.47-.747-7.341.172,0,0-.679,3.1,0,3.445s7.4.4,7.628,0,.172-3.388-.287-3.618" transform="translate(-86.724 -100.837)" fill="#ffa25c"/>
              <path id="Trazado_124587" data-name="Trazado 124587" d="M21.442,343.752c-.242-.031-2.493-.215-4.681-.227v5.59a22.579,22.579,0,0,0,4.681-.32c.23-.276.459-4.984,0-5.042" transform="translate(-14.836 -304.072)" fill="#ffa25c"/>
              <path id="Trazado_124588" data-name="Trazado 124588" d="M134.371,2.4A8.075,8.075,0,0,0,134.6,0H121.259l.374,2.4s12.441.445,12.738,0" transform="translate(-107.333)" fill="#ffa25c"/>
              <path id="Trazado_124589" data-name="Trazado 124589" d="M625.585,122.406c-.439-.085-10.106-.254-10.859,0,0,0-1,3.47,0,3.865s10.482.4,10.859,0,.439-3.78,0-3.865" transform="translate(-543.731 -108.229)" fill="#ffa25c"/>
              <path id="Trazado_124590" data-name="Trazado 124590" d="M772.763,223.8c-.536,0-7.5-.846-8.575.609-.136.185-.459,3.956,0,4.084s8.805.5,9.035.082.077-4.771-.459-4.775" transform="translate(-676.211 -197.883)" fill="#ffb985"/>
              <path id="Trazado_124591" data-name="Trazado 124591" d="M711.285,275.451c-.459-.194-10.336-1.015-11.408-.528-.374.17-.459,4.314.306,4.736s10.643.038,11.1,0,.459-4.013,0-4.208" transform="translate(-619.251 -243.214)" fill="#ffb985"/>
              <path id="Trazado_124592" data-name="Trazado 124592" d="M842.878,603.923c-.373.17-.459,4.314.306,4.736a28.309,28.309,0,0,0,5.436.176V603.92c-2.6-.16-5.219-.234-5.742,0" transform="translate(-745.828 -534.429)" fill="#ffb985"/>
              <path id="Trazado_124593" data-name="Trazado 124593" d="M771.285,661.451c-.459-.194-10.336-1.015-11.408-.528-.374.17-.459,4.314.306,4.736s10.643.038,11.1,0,.459-4.013,0-4.208" transform="translate(-672.36 -584.882)" fill="#ffb985"/>
              <path id="Trazado_124594" data-name="Trazado 124594" d="M833.124,283.9l7.017-.327v-4.341c-2.58.029-6.73.245-7.121.667Z" transform="translate(-737.35 -247.163)" fill="#ffa25c"/>
              <path id="Trazado_124595" data-name="Trazado 124595" d="M50.021,1124.821c-.167.54-.389,4.83,0,4.827s10.515.11,11.127-.308-.779-4.957-.779-4.957-10.181-.1-10.348.438" transform="translate(-44.085 -995.242)" fill="#ffb985"/>
              <path id="Trazado_124596" data-name="Trazado 124596" d="M263.464,1087.035l39,.04L303.558,1004H262.966Z" transform="translate(-232.765 -888.692)" fill="#f7974f"/>
              <path id="Trazado_124597" data-name="Trazado 124597" d="M334.757,1021.325l-15.737,47.7v18.013l33.061.033L353.175,1004Z" transform="translate(-282.382 -888.692)" fill="#ffcca6"/>
              <path id="Trazado_124598" data-name="Trazado 124598" d="M290.352,1108.394h33.734V1028H289.451Z" transform="translate(-256.208 -909.936)" fill="#ffe5cc"/>
              <path id="Trazado_124599" data-name="Trazado 124599" d="M331.021,1067.229v75.111l25.482-.224-.38-75.117Z" transform="translate(-293.004 -944.456)" fill="#6b5a5d"/>
              <path id="Trazado_124600" data-name="Trazado 124600" d="M342.68,1116.956l22.272-2.627.123-36.162-22.469.364Z" transform="translate(-303.258 -954.341)" fill="#7f6a6e"/>
              <rect id="Rectángulo_35923" data-name="Rectángulo 35923" width="0.464" height="41.32" transform="translate(70.194 157.063)" fill="#544548"/>
              <path id="Trazado_124601" data-name="Trazado 124601" d="M371.361,1297.33c-.662-.589-2.586-5.624-2.73-5.888s-1.292-.182-1.407.019a69.691,69.691,0,0,0,1.637,7.093c.2.443,5.082,1.906,5.369,1.821s-.273-2.6-.273-2.6Z" transform="translate(-325.044 -1142.974)" fill="#ff7346"/>
              <path id="Trazado_124602" data-name="Trazado 124602" d="M513.687,1346.827a14.724,14.724,0,0,0-5.925,1.43l2.109,1.288s6.715-.01,7.232-.412-.41-2.267-3.416-2.306" transform="translate(-449.446 -1192.145)" fill="#ff7346"/>
              <path id="Trazado_124603" data-name="Trazado 124603" d="M512.969,1346.663a13.36,13.36,0,0,0-4.324,1.35l2.008,1.273s1.034.07,2.277.122a9.036,9.036,0,0,1,.093-2.637Z" transform="translate(-450.228 -1192)" fill="#55bfa4"/>
              <path id="Trazado_124604" data-name="Trazado 124604" d="M423.946,1346.915a9.046,9.046,0,0,1,.093,2.638c1.243-.052,2.277-.123,2.277-.123l2.109-1.288a14.248,14.248,0,0,0-4.357-1.316Z" transform="translate(-375.256 -1192.146)" fill="#55bfa4"/>
              <rect id="Rectángulo_35924" data-name="Rectángulo 35924" width="0.464" height="41.32" transform="translate(64.202 157.063)" fill="#544548"/>
              <rect id="Rectángulo_35925" data-name="Rectángulo 35925" width="6.962" height="1.533" transform="translate(52.929 144.491)" fill="#1e2028"/>
              <path id="Trazado_124605" data-name="Trazado 124605" d="M437.38,1666.854l2.358.094.5-4.27-2.589-.094Z" transform="translate(-387.148 -1471.639)" fill="#ff7346"/>
              <path id="Trazado_124606" data-name="Trazado 124606" d="M447.189,1251.728s-3.381,10.021,2.808,10.479c6.269.465,5.05-8.466,4.419-10.1s-5.05-2.695-7.226-.378" transform="translate(-395.014 -1106.783)" fill="#ff7346"/>
              <path id="Trazado_124607" data-name="Trazado 124607" d="M522.651,1308.428s0,0,0,0a.007.007,0,0,0,0,0" transform="translate(-462.623 -1158.155)" fill="#ffc36e"/>
              <path id="Trazado_124608" data-name="Trazado 124608" d="M452.147,1238.22a.367.367,0,0,0-.293.187c-.077.005-.133-.076-.15-.152a.684.684,0,0,0-.056-.224.317.317,0,0,0-.1-.091.947.947,0,0,0-.553-.152.8.8,0,0,1-.194,0c-.235-.048-.145-.35-.263-.5a1.178,1.178,0,0,0-.4-.3,1.409,1.409,0,0,0-1.263-.152,1.9,1.9,0,0,0-1.326-.413,2.6,2.6,0,0,1-.753-.005,6.022,6.022,0,0,1-.9-.5,1.557,1.557,0,0,0-1.32.08,3.192,3.192,0,0,0-1.02.895,1.564,1.564,0,0,1-.217.239c-.09.074-.2.124-.294.19a1.41,1.41,0,0,0-.553,1.251,6.572,6.572,0,0,0,.643,1.561.728.728,0,0,1,0,.245c-.033.342-.106,2.151-.176,2.462s-.14.608-.21.912l.041.357s.238.658.359.648c.077-.007.166-.347.186-.4.109-.294.691-3.683,1.526-4.124.656-.346,2-.04,2.744.019a9.84,9.84,0,0,1,2.009.134.764.764,0,0,1,.376.21.717.717,0,0,1,.119.216,5.277,5.277,0,0,1,.108,1.025,3.021,3.021,0,0,0,.01.562.409.409,0,0,0,.075.177c.161.2.559.141.642.385a.445.445,0,0,1,.012.169,6.593,6.593,0,0,0,.018,1.163c.01.088.038.654.188.654.238.015.5-.724.53-.793a.791.791,0,0,1-.011-.17c0-.2.017-.4.028-.6.019-.33.031-.66.06-.989a2.03,2.03,0,0,0-.009-.685.382.382,0,0,1-.009-.085c0-.194.136-.836.143-1.032a.973.973,0,0,1,.01-.332c.058-.143.232-.193.348-.295a.457.457,0,0,0,.1-.536.276.276,0,0,1-.046-.12.18.18,0,0,1,.04-.1c.115-.163.3-.261.421-.422a.262.262,0,0,0,.055-.121.236.236,0,0,0-.052-.162,1,1,0,0,0-.625-.281" transform="translate(-391.667 -1093.871)" fill="#ffcca6"/>
              <path id="Trazado_124609" data-name="Trazado 124609" d="M452.308,1254.026a.129.129,0,0,1,.013-.055,1.587,1.587,0,0,1-.542.039,1.061,1.061,0,0,1-.509.234,1.184,1.184,0,0,1-.772-.108,1.138,1.138,0,0,1-.926-.055,1.9,1.9,0,0,1-2.183-.6,4.351,4.351,0,0,1-2.187-.33,1.015,1.015,0,0,1-.159.107,1.966,1.966,0,0,1-1.1.163,1.43,1.43,0,0,1-1.259-.989,1.549,1.549,0,0,0-.2.857,6.574,6.574,0,0,0,.643,1.561.722.722,0,0,1,0,.244c-.033.342-.106,2.151-.176,2.462s-.14.608-.21.912l.041.357s.238.658.359.647c.077-.007.166-.347.186-.4.109-.294.691-3.683,1.526-4.124.656-.346,2-.04,2.744.019a9.822,9.822,0,0,1,2.009.134.766.766,0,0,1,.376.21.715.715,0,0,1,.119.216,5.28,5.28,0,0,1,.108,1.025,3.029,3.029,0,0,0,.01.563.41.41,0,0,0,.075.177c.161.2.559.141.642.385a.444.444,0,0,1,.012.17,6.589,6.589,0,0,0,.018,1.163c.01.087.038.655.188.655.238.015.5-.724.53-.794a.8.8,0,0,1-.011-.17c0-.2.017-.4.028-.6.019-.33.031-.66.06-.989a2.03,2.03,0,0,0-.009-.685.375.375,0,0,1-.009-.085c0-.194.136-.836.143-1.032a.971.971,0,0,1,.01-.333c.058-.143.232-.193.348-.295a.457.457,0,0,0,.1-.536.276.276,0,0,1-.046-.12" transform="translate(-391.668 -1108.592)" fill="#f4b990"/>
              <path id="Trazado_124610" data-name="Trazado 124610" d="M437.192,1306.14s-.166-1.033-.84-.735-.447,2.306.761,2.028.079-1.292.079-1.292" transform="translate(-385.906 -1155.433)" fill="#ff7346"/>
              <path id="Trazado_124611" data-name="Trazado 124611" d="M515.05,1308.323s-1.33,1.052-.14,1.3a1.244,1.244,0,0,0,1.225-1.91c-.6-.576-1.046.555-1.085.615" transform="translate(-455.336 -1157.375)" fill="#ff7346"/>
              <path id="Trazado_124612" data-name="Trazado 124612" d="M462.1,1298.718a.446.446,0,0,0-.424.436.4.4,0,0,0,.381.436.446.446,0,0,0,.423-.436.4.4,0,0,0-.381-.436" transform="translate(-408.654 -1149.562)" fill="#1e2028"/>
              <path id="Trazado_124613" data-name="Trazado 124613" d="M495.4,1300.963a.426.426,0,0,0-.4.417.379.379,0,0,0,.364.416.425.425,0,0,0,.4-.416.379.379,0,0,0-.364-.417" transform="translate(-438.148 -1151.549)" fill="#1e2028"/>
              <path id="Trazado_124614" data-name="Trazado 124614" d="M470.732,1304.114c-.128-.272.563-.868,1.094-1.2l-.139-.17c-.147.093-1.425.922-1.175,1.455.127.27.481.341.82.341a3.527,3.527,0,0,0,.734-.088l-.061-.2c-.283.066-1.124.185-1.273-.131" transform="translate(-416.446 -1153.121)" fill="#ff451d"/>
              <path id="Trazado_124615" data-name="Trazado 124615" d="M463.173,1288.629l.157.179c.005,0,.532-.458.9-.178l.144-.189c-.522-.4-1.174.165-1.2.189" transform="translate(-409.978 -1140.339)" fill="#f4b990"/>
              <path id="Trazado_124616" data-name="Trazado 124616" d="M494.127,1289.967l.068.228a.686.686,0,0,1,.807.42l.215-.1a.921.921,0,0,0-1.09-.545" transform="translate(-437.377 -1141.788)" fill="#f4b990"/>
              <path id="Trazado_124617" data-name="Trazado 124617" d="M519.017,1312.3l.213.021c.043-.449.683-.863.69-.867l-.115-.18c-.03.019-.735.473-.788,1.026" transform="translate(-459.409 -1160.674)" fill="#ff451d"/>
              <path id="Trazado_124618" data-name="Trazado 124618" d="M520.731,1315.1l.164.136c.1-.125.308.014.316.02l.122-.175a.449.449,0,0,0-.6.02" transform="translate(-460.926 -1163.948)" fill="#ff451d"/>
              <path id="Trazado_124619" data-name="Trazado 124619" d="M438.851,1308.005l.036.21c.256-.045.474.622.54.951l.209-.042c-.025-.124-.258-1.212-.785-1.12" transform="translate(-388.45 -1157.778)" fill="#ff451d"/>
              <path id="Trazado_124620" data-name="Trazado 124620" d="M438.914,1313.18l.128.171c.152-.114.375.09.377.092l.146-.156a.521.521,0,0,0-.651-.107" transform="translate(-388.505 -1162.294)" fill="#ff451d"/>
              <path id="Trazado_124621" data-name="Trazado 124621" d="M475.139,1321.538a.981.981,0,0,0,1.09.787c.957-.054,1.09-1.308,1.09-1.308a2.509,2.509,0,0,1-2.181.52" transform="translate(-420.57 -1169.301)" fill="#ff451d"/>
              <path id="Trazado_124622" data-name="Trazado 124622" d="M476.612,1323.531a2.956,2.956,0,0,1-.06.343.979.979,0,0,0,.928.409,1.084,1.084,0,0,0,.929-.729c-.051-.107-.1-.215-.144-.324a2.585,2.585,0,0,1-1.653.3" transform="translate(-421.821 -1171.258)" fill="#fff"/>
              <path id="Trazado_124623" data-name="Trazado 124623" d="M440.6,1356.206c-5.278.341-5.616.954-5.616.954l.21,8.833s-.311,9.454-.257,9.795,11.07.246,11.07.246l-.387-10.123.387-8.576s-.4-1.453-5.407-1.129" transform="translate(-384.979 -1200.406)" fill="#55bfa4"/>
              <path id="Trazado_124624" data-name="Trazado 124624" d="M507.286,1664.7l.476,3.831,2.117-.059-.066-3.985Z" transform="translate(-449.025 -1473.327)" fill="#ff7346"/>
              <path id="Trazado_124625" data-name="Trazado 124625" d="M437.38,1685.368l2.358.094.167-1.43a13.257,13.257,0,0,1-2.408-.532Z" transform="translate(-387.147 -1490.153)" fill="#ffcca6"/>
              <path id="Trazado_124626" data-name="Trazado 124626" d="M509.593,1683.192l.211,1.7,2.117-.059-.031-1.863c-.766.054-1.53.154-2.3.224" transform="translate(-451.067 -1489.681)" fill="#ffcca6"/>
              <path id="Trazado_124627" data-name="Trazado 124627" d="M428.724,1487l-.55,20.551,5.394.479.938-13.778,1.717,13.88h4.91L440.2,1487Z" transform="translate(-378.999 -1316.22)" fill="#8ed5dd"/>
              <path id="Trazado_124628" data-name="Trazado 124628" d="M446.074,1413h-7.161l-.2,5.108-1.562,3.756,10.71.23-1.77-4.528Z" transform="translate(-386.942 -1250.719)" fill="#8ed5dd"/>
              <path id="Trazado_124629" data-name="Trazado 124629" d="M471.422,1341.1l-.265,2.417c.223.39.755.525,1.689.481.783-.037,1.25-.339,1.37-.678l-.158-2.218Z" transform="translate(-417.045 -1187.077)" fill="#ff7346"/>
              <path id="Trazado_124630" data-name="Trazado 124630" d="M472.891,1351.764l-.023.213a7.408,7.408,0,0,0,1.145.088,5.887,5.887,0,0,0,1.6-.206l-.016-.219a6.645,6.645,0,0,1-2.7.123" transform="translate(-418.56 -1196.407)" fill="#ff451d"/>
              <path id="Trazado_124631" data-name="Trazado 124631" d="M462.021,1517v.23h1.928l.4,5.276.1-1.463-.306-4.042Z" transform="translate(-408.958 -1342.775)" fill="#acf8fc"/>
              <path id="Trazado_124632" data-name="Trazado 124632" d="M434.083,1516.627l-.213-.011-.795,15.349-4.4-.29.008.214,4.626.3h0l.85.057v-.213l-.868-.057Z" transform="translate(-379.438 -1342.435)" fill="#acf8fc"/>
              <path id="Trazado_124633" data-name="Trazado 124633" d="M445.011,1514.659l-.639.009-1.069-17.439h.931l-.01-.23H432.672l-.006.23h10.422l1.07,17.438-4.218.11.026.212,4.2-.053.122,2.047h.214l-.122-2.052.635-.045Z" transform="translate(-382.976 -1325.071)" fill="#acf8fc"/>
              <path id="Trazado_124634" data-name="Trazado 124634" d="M452.168,1418.992l-.008.214,7.206.084v-.214Z" transform="translate(-400.23 -1256.022)" fill="#acf8fc"/>
              <path id="Trazado_124635" data-name="Trazado 124635" d="M439.41,1482.067l-.051.126,0,.089,10.092-.209-.082-.212Z" transform="translate(-388.899 -1311.671)" fill="#acf8fc"/>
              <path id="Trazado_124636" data-name="Trazado 124636" d="M469.282,1432h-3.556l-.021.084c-.023.085-.547,2.095.239,3.093a1.492,1.492,0,0,0,1.241.542l.064,0a1.839,1.839,0,0,0,1.414-.638,4.417,4.417,0,0,0,.632-2.981Zm-.782,2.857a1.678,1.678,0,0,1-1.257.613,1.324,1.324,0,0,1-1.132-.494,2.613,2.613,0,0,1-.377-1.713h3.349a2.916,2.916,0,0,1-.583,1.594m.6-1.824h-3.35a7.012,7.012,0,0,1,.126-.8h3.2a4.558,4.558,0,0,1,.023.8" transform="translate(-412.049 -1267.537)" fill="#acf8fc"/>
              <path id="Trazado_124637" data-name="Trazado 124637" d="M451.771,1402.91l-1.325.146a.282.282,0,0,0-.25.313l.057.5a.282.282,0,0,0,.281.251h.32a.069.069,0,0,1,.067.052l.1.375h.43l.071-.471a.069.069,0,0,1,.068-.059l.218,0a.284.284,0,0,0,.28-.283v-.545a.283.283,0,0,0-.314-.281m.1.826a.069.069,0,0,1-.069.069l-.218,0a.282.282,0,0,0-.277.241l-.044.29h-.081l-.055-.214a.283.283,0,0,0-.274-.213h-.32a.069.069,0,0,1-.069-.062l-.057-.5a.069.069,0,0,1,.061-.077l1.325-.146a.068.068,0,0,1,.054.017.069.069,0,0,1,.023.052Z" transform="translate(-398.489 -1241.786)" fill="#cdd7d8"/>
              <path id="Trazado_124638" data-name="Trazado 124638" d="M499.641,1403.152l-1.328-.118a.282.282,0,0,0-.308.287l.011.545a.284.284,0,0,0,.286.277l.218,0a.069.069,0,0,1,.069.057l.081.47.43-.009.088-.377a.069.069,0,0,1,.066-.054l.32-.007a.283.283,0,0,0,.275-.257l.047-.506a.283.283,0,0,0-.257-.308m0,.794a.069.069,0,0,1-.068.063l-.32.007a.283.283,0,0,0-.269.219l-.05.215-.081,0-.05-.289a.282.282,0,0,0-.282-.235l-.218,0a.069.069,0,0,1-.07-.068l-.012-.545a.069.069,0,0,1,.022-.052.068.068,0,0,1,.053-.018l1.328.118a.069.069,0,0,1,.063.075Z" transform="translate(-440.81 -1241.896)" fill="#cdd7d8"/>
              <path id="Trazado_124639" data-name="Trazado 124639" d="M456.437,1412.8a.342.342,0,1,0,.4.338.371.371,0,0,0-.4-.338" transform="translate(-403.664 -1250.541)" fill="#e4f6f8"/>
              <path id="Trazado_124640" data-name="Trazado 124640" d="M502.012,1413.177a.347.347,0,1,0,.422.339.388.388,0,0,0-.422-.339" transform="translate(-443.983 -1250.875)" fill="#e4f6f8"/>
              <path id="Trazado_124641" data-name="Trazado 124641" d="M451.632,1359.532l1.1-.12v-5.57l-1.335-.483Z" transform="translate(-399.552 -1197.928)" fill="#8ed5dd"/>
              <path id="Trazado_124642" data-name="Trazado 124642" d="M500.8,1360.871l1.216.1.479-5.985a6.438,6.438,0,0,1-1.19.134Z" transform="translate(-443.284 -1199.371)" fill="#8ed5dd"/>
              <path id="Trazado_124643" data-name="Trazado 124643" d="M507.479,1361.214l.213.022.53-5.941q-.1.018-.2.032Z" transform="translate(-449.196 -1199.641)" fill="#acf8fc"/>
              <path id="Trazado_124644" data-name="Trazado 124644" d="M457.688,1355.784l-.194-.069a42.783,42.783,0,0,0,.214,5.823l.212-.024a40.318,40.318,0,0,1-.233-5.731" transform="translate(-404.916 -1200.014)" fill="#acf8fc"/>
              <path id="Trazado_124645" data-name="Trazado 124645" d="M468.363,1356.314a2.641,2.641,0,0,1-.318.852,2.334,2.334,0,0,1-1.7.77,2.175,2.175,0,0,1-1.745-.431,1.923,1.923,0,0,1-.441-.991c-.07.019-.2.008-.269.029a2.358,2.358,0,0,0,.563,1.117,2.148,2.148,0,0,0,1.517.508q.19,0,.4-.019a2.533,2.533,0,0,0,1.848-.851,3.082,3.082,0,0,0,.372-.97c-.068-.019-.153,0-.223-.013" transform="translate(-410.614 -1200.543)" fill="#73e0c1"/>
              <path id="Trazado_124646" data-name="Trazado 124646" d="M475.377,1249.755c-.3,0-.543.155-.543.346s.243.346.543.346.543-.155.543-.346-.243-.346-.543-.346" transform="translate(-420.3 -1106.222)" fill="#f4b990"/>
              <path id="Trazado_124647" data-name="Trazado 124647" d="M484.261,1255.427a.159.159,0,1,0,.2.154.18.18,0,0,0-.2-.154" transform="translate(-428.47 -1111.243)" fill="#f4b990"/>
              <path id="Trazado_124648" data-name="Trazado 124648" d="M411.766,1688.168c-.478.187-1.21.366-1.281.158s-.562-1.169-.954-1.117-2.3,1.747-3.052,1.885c-.613.114-.971,1.083-.307,1.423.486.249,1.168.181,4.052.231a11.519,11.519,0,0,0,2.073.036c.125-.347-.053-2.8-.531-2.616" transform="translate(-359.208 -1493.433)" fill="#8ed5dd"/>
              <path id="Trazado_124649" data-name="Trazado 124649" d="M411.66,1710.843s.054.14-2.988.073-3.532-.527-3.532-.527c-.97,1.407,6.441,1.328,6.641.938s-.121-.484-.121-.484" transform="translate(-358.533 -1513.953)" fill="#fff"/>
              <path id="Trazado_124650" data-name="Trazado 124650" d="M420.393,1693.6s-.915.333-1.009.707c0,0,.546.787.693.587.085-.117-.011-.318-.107-.467.156.192.407.439.547.238a.358.358,0,0,0-.025-.425c.179.171.438.361.546.161.173-.321-.644-.8-.644-.8" transform="translate(-371.218 -1499.097)" fill="#ffe8e1"/>
              <path id="Trazado_124651" data-name="Trazado 124651" d="M508.942,1688.453c-.133-.027-.274.333-.274.333s-.207-1.013-1.087-.866a1.011,1.011,0,0,0-.947.8s-.2-.362-.361-.3a13.451,13.451,0,0,0-.347,2.43c.307.76,3.336.413,3.482.225a7.844,7.844,0,0,0-.467-2.626" transform="translate(-447.822 -1494.052)" fill="#8ed5dd"/>
              <path id="Trazado_124652" data-name="Trazado 124652" d="M514.122,1698.212s.4.106.4-.036-.324-.231-.324-.231.231.018.311-.084-.231-.334-.738-.352a1.906,1.906,0,0,0-.952.258c-.151.249.116.222.116.222s-.285.08-.276.223.32.106.32.106-.2.178-.16.311a3.177,3.177,0,0,0,1.7-.1c.03-.177-.4-.321-.4-.321" transform="translate(-453.785 -1502.551)" fill="#ffe8e1"/>
              <path id="Trazado_124653" data-name="Trazado 124653" d="M506.421,1705.139a2.058,2.058,0,0,0-1.889,1.3c1.2.8,3.843.347,3.776,0a1.727,1.727,0,0,0-1.887-1.3" transform="translate(-446.587 -1509.304)" fill="#8ed5dd"/>
              <path id="Trazado_124654" data-name="Trazado 124654" d="M506.79,1714.378s.272.416-1.729.531-1.867-.567-1.867-.567-1.415.985,1.85.931,1.747-.9,1.747-.9" transform="translate(-445.132 -1517.453)" fill="#fff"/>
              <rect id="Rectángulo_35926" data-name="Rectángulo 35926" width="0.464" height="41.32" transform="translate(58.211 157.063)" fill="#544548"/>
              <rect id="Rectángulo_35927" data-name="Rectángulo 35927" width="0.464" height="41.32" transform="translate(52.219 157.063)" fill="#544548"/>
              <rect id="Rectángulo_35928" data-name="Rectángulo 35928" width="0.464" height="41.32" transform="translate(46.227 157.063)" fill="#544548"/>
              <path id="Trazado_124655" data-name="Trazado 124655" d="M207.173,1607.083a6.4,6.4,0,1,0,6.4,6.4,6.4,6.4,0,0,0-6.4-6.4" transform="translate(-177.712 -1422.512)" fill="#fff1dc"/>
              <path id="Trazado_124656" data-name="Trazado 124656" d="M233.9,1633.915c.036,0,2.792,2.273,2.9,2.487a21.923,21.923,0,0,1-1.038,3.167l-3.4.25-1.217-3.364Z" transform="translate(-204.598 -1446.262)" fill="#847276"/>
              <path id="Trazado_124657" data-name="Trazado 124657" d="M202.792,1654.748l1.673-2.082-1.081-3.1-2.4-1.142a6.4,6.4,0,0,0,1.8,6.32" transform="translate(-177.713 -1459.108)" fill="#847276"/>
              <path id="Trazado_124658" data-name="Trazado 124658" d="M277.021,1663.728l2.226,1.955a6.381,6.381,0,0,0,1.822-4.472c0-.07,0-.14-.005-.21H277.94Z" transform="translate(-245.206 -1470.237)" fill="#847276"/>
              <path id="Trazado_124659" data-name="Trazado 124659" d="M211.72,1610.5c.483.43,1.9,1.708,1.9,1.708l2.442-1.488-.354-2.707a6.4,6.4,0,0,0-3.986,2.486" transform="translate(-187.404 -1423.334)" fill="#847276"/>
              <path id="Trazado_124660" data-name="Trazado 124660" d="M264.258,1611.732c.043.057,1.981,2,2.024,1.981s1.819-1.172,2.64-1.667a6.414,6.414,0,0,0-3.866-2.992c-.2.675-.834,2.63-.8,2.677" transform="translate(-233.907 -1424.257)" fill="#847276"/>
              <path id="Trazado_124661" data-name="Trazado 124661" d="M235,1691.968c-.552-.771-1.885-2.343-1.885-2.343l-3.277.1-1.478,2.35a6.4,6.4,0,0,0,6.641-.105" transform="translate(-202.137 -1495.574)" fill="#847276"/>
              <rect id="Rectángulo_35929" data-name="Rectángulo 35929" width="0.464" height="41.32" transform="translate(40.236 157.063)" fill="#544548"/>
              <rect id="Rectángulo_35930" data-name="Rectángulo 35930" width="0.464" height="41.32" transform="translate(34.244 157.063)" fill="#544548"/>
              <rect id="Rectángulo_35931" data-name="Rectángulo 35931" width="0.464" height="41.32" transform="translate(28.253 157.063)" fill="#544548"/>
              <rect id="Rectángulo_35932" data-name="Rectángulo 35932" width="0.464" height="41.32" transform="translate(22.261 157.063)" fill="#544548"/>
              <rect id="Rectángulo_35933" data-name="Rectángulo 35933" width="0.464" height="41.32" transform="translate(16.436 157.063)" fill="#544548"/>
              <rect id="Rectángulo_35934" data-name="Rectángulo 35934" width="0.464" height="41.32" transform="translate(10.61 157.063)" fill="#544548"/>
              <rect id="Rectángulo_35935" data-name="Rectángulo 35935" width="67.234" height="4.84" transform="translate(6.925 196.96)" fill="#ffeedb"/>
              <rect id="Rectángulo_35936" data-name="Rectángulo 35936" width="67.234" height="1.361" transform="translate(6.925 157.063)" fill="#544548"/>
              <path id="Trazado_124662" data-name="Trazado 124662" d="M191.841,1355.838s1.2-7.618-.626-8.461-1.71,6.606-1.71,6.606-.306-7.459-2.22-7.76-.574,8.007-.574,8.007-1.034-3.608-2.105-3.316,1.479,5.192,1.479,5.192,6.293.536,6.369.421,1.034-.907,1.034-.907,2.182-4.23,1.187-5.591-2.833,5.809-2.833,5.809" transform="translate(-163.171 -1191.605)" fill="#55bfa4"/>
              <path id="Trazado_124663" data-name="Trazado 124663" d="M115.856,1358.876c-1.378-.419-1.11,4.828-1.11,4.828s-.334-5.894-1.507-6.086-.6,5.765-.6,5.765-.23-2.328-1.34-2.381.452,3.393.452,3.393-1.256-1.958-1.868-1.652,1.868,2.953,1.868,2.953h4.525s.957-6.4-.421-6.822" transform="translate(-97.177 -1201.695)" fill="#55bfa4"/>
              <path id="Trazado_124664" data-name="Trazado 124664" d="M184.788,1400.336s-.139-.5-.369-1.124c.207.675.369,1.124.369,1.124" transform="translate(-163.239 -1238.514)" fill="#60d3b4"/>
              <path id="Trazado_124665" data-name="Trazado 124665" d="M162.335,1349.874c-1.042-.316-2.356,4.658-2.356,4.658s-1.034-8.914-3.063-8.475c-1.507.326-.544,4.145.052,6.091.23.623.369,1.124.369,1.124s-.163-.45-.369-1.124c-.4-1.079-1.071-2.528-1.775-2.388-1.11.22.378,3.491.378,3.491s-1.335-2.233-2.024-1.872,1.378,4.5,1.378,4.5l6.47.842s1.982-6.527.939-6.843" transform="translate(-135.789 -1191.45)" fill="#60d3b4"/>
              <path id="Trazado_124666" data-name="Trazado 124666" d="M114.918,1428.12c1.135.306,15.39.536,15.887,0s1.2-6.9,1.2-6.9L112.966,1421s.818,6.814,1.952,7.12" transform="translate(-99.992 -1257.8)" fill="#7f6a6e"/>
              <path id="Trazado_124667" data-name="Trazado 124667" d="M113.3,1423.3h18.444c.152-1.164.252-2.078.252-2.078L112.965,1421s.123,1.025.34,2.3" transform="translate(-99.991 -1257.8)" fill="#6b5a5d"/>
              <path id="Trazado_124668" data-name="Trazado 124668" d="M108.47,1422.354c.056.268,19.545.459,19.7.361a6.747,6.747,0,0,0,.306-1.6l-20.175-.137s.115,1.113.171,1.381" transform="translate(-95.861 -1257.776)" fill="#7f6a6e"/>
              <path id="Trazado_124669" data-name="Trazado 124669" d="M237.13,986l-.411.96,3.287,1.222,40.321.8,3.106-1.838-1.4-1.149Z" transform="translate(-209.532 -872.759)" fill="#e28647"/>
              <path id="Trazado_124670" data-name="Trazado 124670" d="M233.452,963.38l46.7.188.388-3.79-47.507-.418Z" transform="translate(-206.268 -849.18)" fill="#ffcca6"/>
              <path id="Trazado_124671" data-name="Trazado 124671" d="M280.444,960.7l.094-.919-47.507-.418.14,1.337Z" transform="translate(-206.268 -849.18)" fill="#eab18b"/>
              <path id="Trazado_124672" data-name="Trazado 124672" d="M23.748,1068.7l-6.988.34v5.3c3.479-.094,7.313-.309,7.524-.408.383-.179-.536-5.229-.536-5.229" transform="translate(-14.835 -945.96)" fill="#ffb985"/>
              <path id="Trazado_124673" data-name="Trazado 124673" d="M16.882,957.275c-.459.23-.517,3.216-.287,3.618s6.948.345,7.628,0,0-3.445,0-3.445c-.871-.919-6.881-.4-7.341-.172" transform="translate(-14.573 -847.02)" fill="#ffa25c"/>
              <path id="Trazado_124674" data-name="Trazado 124674" d="M844.981,1125.131c-.209.54-.487,4.83,0,4.827.21,0,2.693.019,5.507.009v-5.241c-2.833.052-5.415.165-5.507.405" transform="translate(-747.697 -995.553)" fill="#ffb985"/>
              <path id="Trazado_124675" data-name="Trazado 124675" d="M786.865,1069.409c-.077.009-.842,4.435-.383,4.9.393.4,9.493.047,12.336-.176v-5.311c-1.864.09-11.884.576-11.954.585" transform="translate(-696.026 -946.071)" fill="#ffb985"/>
              <path id="Trazado_124676" data-name="Trazado 124676" d="M746.062,1130.747c-.459.058-.23,4.766,0,5.042s7.695.585,8.5-.067.428-4.573.428-4.573c-.747-1.076-8.468-.459-8.927-.4" transform="translate(-660.143 -1000.681)" fill="#ffb985"/>
              <path id="Trazado_124677" data-name="Trazado 124677" d="M772.062,1370.747c-.459.058-.23,4.766,0,5.042s7.695.585,8.5-.067.428-4.573.428-4.573c-.747-1.076-8.468-.459-8.927-.4" transform="translate(-683.157 -1213.116)" fill="#ffa25c"/>
              <path id="Trazado_124678" data-name="Trazado 124678" d="M827.062,1794.747c-.459.058-.23,4.766,0,5.042a32.233,32.233,0,0,0,7.57.188v-5.317a44.489,44.489,0,0,0-7.57.087" transform="translate(-731.84 -1588.421)" fill="#ffa25c"/>
              <path id="Trazado_124679" data-name="Trazado 124679" d="M394.021,1789.821c-.167.54-.389,4.83,0,4.827s10.515.11,11.127-.308-.779-4.957-.779-4.957-10.181-.1-10.348.438" transform="translate(-348.577 -1583.868)" fill="#ed8a48"/>
              <path id="Trazado_124680" data-name="Trazado 124680" d="M21.588,1832.382s-2.36-.023-4.827.012v5.254a30.554,30.554,0,0,0,5.606-.309c.612-.418-.779-4.957-.779-4.957" transform="translate(-14.836 -1621.928)" fill="#ffb985"/>
              <path id="Trazado_124681" data-name="Trazado 124681" d="M75.705,672.282c-.366.152-.445,1.692-.445,1.692l-1.688.441s-.633-1.574-.853-1.361a7.636,7.636,0,0,0-.1,2.194l1.987-.1,2.235-.853s-.772-2.164-1.138-2.011" transform="translate(-64.25 -595.064)" fill="#6b5a5d"/>
              <path id="Trazado_124682" data-name="Trazado 124682" d="M75.4,686.334c-.345-.517.361-2.4.361-2.4a4.439,4.439,0,0,0-1.743.489,9.813,9.813,0,0,1-.3,2.18c-.138.2-.331.359-.463.564a.856.856,0,0,0-.111.689.587.587,0,0,0,.077.192.572.572,0,0,0,.239.187,1.038,1.038,0,0,0,.679.072.641.641,0,0,0,.774.416c.618-.115.4-.761.4-.761s1.009-.253,1.014-.689c.01-.794-.734-.645-.928-.936" transform="translate(-64.719 -605.383)" fill="#7c6b6f"/>
              <path id="Trazado_124683" data-name="Trazado 124683" d="M79.437,709.854c-1.1.205-.325.607,0,.465s1.1-.671,0-.465" transform="translate(-69.811 -628.287)" fill="#544548"/>
              <path id="Trazado_124684" data-name="Trazado 124684" d="M74.263,701.755a.359.359,0,0,0-.374.281c-.06.188.011.366.158.4a.359.359,0,0,0,.374-.281c.06-.188-.011-.367-.158-.4" transform="translate(-65.384 -621.155)" fill="#544548"/>
              <path id="Trazado_124685" data-name="Trazado 124685" d="M93.418,698.173a.435.435,0,0,0-.455.288.286.286,0,0,0,.192.41.436.436,0,0,0,.455-.288.286.286,0,0,0-.192-.41" transform="translate(-82.264 -617.984)" fill="#544548"/>
              <path id="Trazado_124686" data-name="Trazado 124686" d="M81.083,719.127l.179.2.564-.5.743.244v-.4l-.894-.043Z" transform="translate(-71.771 -636.092)" fill="#6b5a5d"/>
              <path id="Trazado_124687" data-name="Trazado 124687" d="M99.548,678.2a.966.966,0,0,0,.585-.158c.172-.172-.359-.99-.445-1.062s-.14,1.22-.14,1.22" transform="translate(-88.115 -599.225)" fill="#5e4d51"/>
              <path id="Trazado_124688" data-name="Trazado 124688" d="M91.562,722.364a1.434,1.434,0,0,1,.641.171,2.135,2.135,0,0,0,1.685-1.155l-.211-.092a2.3,2.3,0,0,1-2.115,1.076" transform="translate(-81.046 -638.449)" fill="#5e4d51"/>
              <path id="Trazado_124689" data-name="Trazado 124689" d="M167.437,800.622q.115.005.232.006l.145-.89c-.085.016-.166.031-.24.043Z" transform="translate(-148.207 -707.889)" fill="#544548"/>
              <path id="Trazado_124690" data-name="Trazado 124690" d="M110.067,802.323c0,.136-.005.216-.005.216l-.036.026a4.876,4.876,0,0,1,.807-.1c0-.075.009-.15.014-.224a3.728,3.728,0,0,0-.78.082" transform="translate(-97.39 -710.103)" fill="#5e4d51"/>
              <path id="Trazado_124691" data-name="Trazado 124691" d="M111.931,758.153l-.077.217a2.785,2.785,0,0,0,.852.134,1.977,1.977,0,0,0,1.087-.3l-.125-.193a2.222,2.222,0,0,1-1.737.139" transform="translate(-99.008 -670.957)" fill="#5e4d51"/>
              <path id="Trazado_124692" data-name="Trazado 124692" d="M138.688,765.716c-2.124-.755-1.831-3.354-1.607-4.436a.5.5,0,0,0,.016-.1l-.229-.011c0,.009-.006.03-.012.06-.229,1.106-.52,3.714,1.547,4.617-.336.234-.994.743-1.042,1.165a.4.4,0,0,0,.035.216h.2l.043-.042a.167.167,0,0,1-.05-.147c.041-.363.823-.932,1.121-1.12l.2-.126Z" transform="translate(-120.997 -673.754)" fill="#5e4d51"/>
              <path id="Trazado_124693" data-name="Trazado 124693" d="M152.745,800.43a1.973,1.973,0,0,1,.026.227,3.123,3.123,0,0,1,1.173.114l.076-.217a3.434,3.434,0,0,0-1.276-.124" transform="translate(-135.202 -708.492)" fill="#5e4d51"/>
              <path id="Trazado_124694" data-name="Trazado 124694" d="M73.651,682.286a4.241,4.241,0,0,0-.046,1.286c.075.01.287-.335.287-.335a4.706,4.706,0,0,0-.241-.951" transform="translate(-65.121 -603.925)" fill="#5e4d51"/>
              <path id="Trazado_124695" data-name="Trazado 124695" d="M505.982,1349.524c-1.565.287-5.684,1.522-5.684,1.522s-1.793.16-1.968.455-.244,1.569,0,1.742a5.691,5.691,0,0,0,2.643.029.453.453,0,0,0,.216-.354c-.382-.2,0-1.024,0-1.024s7.7.518,7.651-.761c-.029-.761-1.293-1.895-2.858-1.608" transform="translate(-440.958 -1194.493)" fill="#ff7346"/>
              <path id="Trazado_124696" data-name="Trazado 124696" d="M505.982,1349.524c-1.565.287-5.684,1.522-5.684,1.522s-1.793.16-1.968.455-.244,1.569,0,1.742a5.691,5.691,0,0,0,2.643.029.453.453,0,0,0,.216-.354c-.382-.2,0-1.024,0-1.024s7.7.518,7.651-.761c-.029-.761-1.293-1.895-2.858-1.608" transform="translate(-440.958 -1194.493)" fill="#ff7346"/>
              <path id="Trazado_124697" data-name="Trazado 124697" d="M545.8,1348.075c-.008.047,0,.1-.007.145-.007.032-.013.068-.019.1l2.572-.6-.052-.224Z" transform="translate(-483.09 -1192.745)" fill="#ff451d"/>
              <path id="Trazado_124698" data-name="Trazado 124698" d="M524.7,1366.829l.235.014.123-.429-.221-.063Z" transform="translate(-464.435 -1209.427)" fill="#ff451d"/>
              <path id="Trazado_124699" data-name="Trazado 124699" d="M500.59,1377.971a1.931,1.931,0,0,0,.105.551c.078.015.171.03.276.043a1.4,1.4,0,0,1-.152-.6Z" transform="translate(-443.098 -1219.706)" fill="#ff451d"/>
              <path id="Trazado_124700" data-name="Trazado 124700" d="M505.821,1378.023a1.152,1.152,0,0,0,.132.633c.083.007.169.012.256.017a2.1,2.1,0,0,1-.177-.558Z" transform="translate(-447.715 -1219.759)" fill="#ff451d"/>
              <path id="Trazado_124701" data-name="Trazado 124701" d="M512.944,1379.539a1,1,0,0,0,.2.484c.094,0,.186-.007.274-.013a1.18,1.18,0,0,1-.245-.461Z" transform="translate(-454.033 -1221.1)" fill="#ff451d"/>
              <path id="Trazado_124702" data-name="Trazado 124702" d="M111.523,1266.549l.06-.808-2.511-.872-5.3,3.575,7.845.391.345-.67,4-.717-3.344-1.348Z" transform="translate(-91.853 -1119.601)" fill="#fff1dc"/>
              <path id="Trazado_124703" data-name="Trazado 124703" d="M103.771,1293.33l2.227.078,5.871-.18.091-.177.377-.068-8.437.259Z" transform="translate(-91.853 -1144.486)" fill="#ffcca6"/>
              <path id="Trazado_124704" data-name="Trazado 124704" d="M104.471,1274.221l-.7.473.723.026,7.036-2.016.018-.244-7.617,2.183,7.642-2.525.009-.126-.175-.061Z" transform="translate(-91.853 -1125.85)" fill="#ffcca6"/>
              <path id="Trazado_124705" data-name="Trazado 124705" d="M349.971,1266.321a8.026,8.026,0,0,0-2.354-.517c-.086.344,1.336.886,1.336.886s-1.179.484-1.107.843.086,1.673.33,1.6.258-.515.258-.515,1.177.982,1.593.942,1.378,0,1.378,0,.029-1.116,0-1.274a9.489,9.489,0,0,0-1.436-1.967" transform="translate(-307.69 -1120.406)" fill="#ff7346"/>
              <path id="Trazado_124706" data-name="Trazado 124706" d="M372.949,1268c-.244-.014-.2,1.393-.2,1.393l.761,1.608.156-.16a8.666,8.666,0,0,0,.088-1.749c-.1-.316-.56-1.077-.8-1.091" transform="translate(-329.936 -1122.371)" fill="#ff7346"/>
              <path id="Trazado_124707" data-name="Trazado 124707" d="M353.4,1281.007l.157,1.091c0-.008,0-.014,0-.014l.128.1-.172-1.2Z" transform="translate(-312.813 -1133.871)" fill="#ff451d"/>
              <path id="Trazado_124708" data-name="Trazado 124708" d="M358,1277.941a3.848,3.848,0,0,1,.062,1.386.516.516,0,0,1-.382.074l-.064-.012,0,.065a.36.36,0,0,1-.069.168l.092.069a.48.48,0,0,0,.081-.169.574.574,0,0,0,.422-.108c.168-.15.024-1.178-.025-1.489Z" transform="translate(-316.482 -1131.156)" fill="#ff451d"/>
              <path id="Trazado_124709" data-name="Trazado 124709" d="M357.377,1278.578l-.034.013a13.852,13.852,0,0,1,.092,1.4h.115a9.85,9.85,0,0,0-.117-1.464Z" transform="translate(-316.303 -1131.685)" fill="#ff451d"/>
              <path id="Trazado_124710" data-name="Trazado 124710" d="M356.538,1272.57l-.088.038c.214.053.455.109.638.151l.026-.112c-.344-.079-.717-.169-.932-.226.2.09.356.149.356.149" transform="translate(-315.275 -1126.285)" fill="#ff451d"/>
              <path id="Trazado_124711" data-name="Trazado 124711" d="M372.453,1273.957l-.042-.055c.084.258.2.63.288.9l.116-.035c-.178-.554-.287-.862-.352-1.032,0,.075-.008.152-.01.225" transform="translate(-329.64 -1127.445)" fill="#ff451d"/>
              <path id="Trazado_124712" data-name="Trazado 124712" d="M368.065,1298.911c.007.039.015.08.024.122a2.084,2.084,0,0,0,.353.033,1.112,1.112,0,0,0,.279-.032l-.029-.111a1.518,1.518,0,0,1-.626-.012" transform="translate(-325.793 -1149.733)" fill="#ff451d"/>
              <path id="Trazado_124713" data-name="Trazado 124713" d="M402.93,1343.638a.627.627,0,0,1-.047-.047c.133.292.332.739.471,1.055l.21-.092c-.128-.292-.27-.613-.388-.873Z" transform="translate(-356.612 -1189.281)" fill="#ff451d"/>
              <g id="Grupo_88044" data-name="Grupo 88044" transform="translate(59.504 81.248)" opacity="0.56">
                <g id="Grupo_88043" data-name="Grupo 88043">
                  <g id="Grupo_88042" data-name="Grupo 88042" clip-path="url(#clip-path-3)">
                    <path id="Trazado_124714" data-name="Trazado 124714" d="M518.181,707.485s-.172.3,0,.359,1.206.164,1.22,0a.47.47,0,0,0-.072-.359,3.691,3.691,0,0,0-1.148,0" transform="translate(-518.104 -707.439)" fill="#fff5ee"/>
                  </g>
                </g>
              </g>
              <g id="Grupo_88047" data-name="Grupo 88047" transform="translate(58.405 82.399)" opacity="0.56">
                <g id="Grupo_88046" data-name="Grupo 88046">
                  <g id="Grupo_88045" data-name="Grupo 88045" clip-path="url(#clip-path-4)">
                    <path id="Trazado_124715" data-name="Trazado 124715" d="M510,717.477c0,.043.043,1.795,0,1.838a19.965,19.965,0,0,0-1.45,1.464c0,.1-.057,7.135.072,7.221a2.009,2.009,0,0,0,.833,0c.014-.029-.223-7.049-.176-7.121s1.138-1.306,1.152-1.393a7.848,7.848,0,0,0,0-2.01,1.338,1.338,0,0,0-.431,0" transform="translate(-508.535 -717.458)" fill="#fff5ee"/>
                  </g>
                </g>
              </g>
            </g>
          </g>
        </g>
      </g>
    </g>
    <rect id="Rectángulo_35986" data-name="Rectángulo 35986" width="190" height="243" transform="translate(495 1250)" fill="none"/>
  </g>
</svg>
