<svg xmlns="http://www.w3.org/2000/svg" xmlns:xlink="http://www.w3.org/1999/xlink" width="125" height="125.013" viewBox="0 0 125 125.013">
  <defs>
    <clipPath id="clip-path">
      <rect id="Rectángulo_35807" data-name="Rectángulo 35807" width="88.954" height="94.013" fill="none"/>
    </clipPath>
  </defs>
  <g id="Grupo_87717" data-name="Grupo 87717" transform="translate(-1140 -2266)">
    <circle id="Elipse_4823" data-name="Elipse 4823" cx="62.5" cy="62.5" r="62.5" transform="translate(1140 2266)" fill="#fed947"/>
    <g id="Grupo_87716" data-name="Grupo 87716" transform="translate(1158.023 2297)">
      <g id="Grupo_87716-2" data-name="Grupo 87716" clip-path="url(#clip-path)">
        <path id="Trazado_123359" data-name="Trazado 123359" d="M30.726,94.013c-1.237-.477-2.565-.645-3.8-1.16a27.673,27.673,0,0,1-8.612-5.944,1.415,1.415,0,0,1-.041-2.05c.785-.776,1.417-.806,2.266.033a29.523,29.523,0,0,0,3.583,2.987,16.639,16.639,0,0,0,6.721,2.991,11.053,11.053,0,0,0,3.913-.033,13.423,13.423,0,0,0,5.5-1.787,16.332,16.332,0,0,1,2.295-1.125,6.021,6.021,0,0,1,5.2.521A18.189,18.189,0,0,0,57.615,91a14.433,14.433,0,0,0,6.248-1.94A33.235,33.235,0,0,0,74.5,78.867,65.8,65.8,0,0,0,85.384,51.2a1.092,1.092,0,0,0-.023-.741,12,12,0,0,1-3.99,1.7,10.284,10.284,0,0,1-8.826-2.33,9.4,9.4,0,0,1-2.935-4.142,1.146,1.146,0,0,0-1.142-.844,10.5,10.5,0,0,1-9.14-8.4,10.266,10.266,0,0,1,.338-5.068,1.719,1.719,0,0,0-.294-1.832c-1-1.255-.7-2.308.723-2.89,1.171-.025,3.507,2.225,3.506,3.374a2.941,2.941,0,0,1-.392,1.211,7.1,7.1,0,0,0,2.866,9.533,5.7,5.7,0,0,0,2.87.845c.4.012.8-.007,1.192.008a1.938,1.938,0,0,1,2.132,1.728,7.258,7.258,0,0,0,6.1,5.716,6.285,6.285,0,0,0,2.81-.214,6.97,6.97,0,0,0,3.233-1.827c.614-.577.584-.721-.173-1.091a8.483,8.483,0,0,1-4.9-6.644c-.09-.571-.4-.653-.879-.687a7.686,7.686,0,0,1-7.3-6.449,6.633,6.633,0,0,1,.294-3.7,1.044,1.044,0,0,0-.5-1.436,8.428,8.428,0,0,1-3.788-8.285c.082-.8.01-.9-.826-.866a6.107,6.107,0,0,0-1.952.463,5.886,5.886,0,0,0-2.978,2.908,1.648,1.648,0,1,1-3.006-1.294,9.321,9.321,0,0,1,2.507-3.194c-1.647.157-3.085.217-4.5.482A25.7,25.7,0,0,0,46.2,21.558c-1.513,1.07-1.754,1.077-3.253.056a25.561,25.561,0,0,0-11.6-4.645,3.934,3.934,0,0,0-.64-.017,23.912,23.912,0,0,0-9.519.88,23.85,23.85,0,0,0-9.05,4.9A25.329,25.329,0,0,0,3.4,37.924a30.829,30.829,0,0,0-.2,7.951,63.91,63.91,0,0,0,3.488,15.91A65.72,65.72,0,0,0,15.12,78.432a6.523,6.523,0,0,1,.815,1.327,1.23,1.23,0,0,1-.625,1.743c-1.145.432-1.466.332-2.216-.729A71.957,71.957,0,0,1,.787,50.8,39.355,39.355,0,0,1,.239,39.021C1.613,28.707,6.932,21.05,16.288,16.557c8.847-4.249,17.7-3.635,26.248,1.183q.2.111.4.215a1.222,1.222,0,0,0,.208.027,33.754,33.754,0,0,1,.433-4.033C44.529,8.69,46.6,4.035,50.816.542c.9-.744,1.652-.716,2.214.046a1.31,1.31,0,0,1-.3,1.934C48.053,6.438,46.386,11.7,45.963,17.53c-.01.143,0,.286,0,.559a31.6,31.6,0,0,1,4.9-2.427,28.3,28.3,0,0,1,17.822-.769c1.692.465,2.238,1.522,1.706,3.208a5.5,5.5,0,0,0,2.768,6.748c1.748.922,2.176,2.213,1.337,4.033a4.722,4.722,0,0,0,4.375,6.735c2.376-.026,3.252.779,3.431,3.15a5.5,5.5,0,0,0,4.074,4.775,4.127,4.127,0,0,1,1.71.6,2.333,2.333,0,0,1,.861,2.108,66.623,66.623,0,0,1-1.861,11.661A66.015,66.015,0,0,1,75.858,82.069,32.707,32.707,0,0,1,64.219,92.222a15.388,15.388,0,0,1-5.4,1.636c-.067.006-.126.1-.188.155H54.411a18.763,18.763,0,0,1-8.173-2.706,3.334,3.334,0,0,0-3.717.222,18.2,18.2,0,0,1-5.147,2.137c-.86.217-1.752.144-2.609.347Z" transform="translate(0 0)"/>
        <path id="Trazado_123360" data-name="Trazado 123360" d="M58.061,93.23a15.916,15.916,0,0,1-9.239-2.112c-2.669-1.6-5.21-1.706-7.808.025a2.05,2.05,0,0,1-.332.145,8.85,8.85,0,0,1-1.622.23,4.566,4.566,0,0,0-2.386.832,9.794,9.794,0,0,1-1.567.727,12.953,12.953,0,0,1-9.18-1.942,24.385,24.385,0,0,1-5.052-3.914,1.585,1.585,0,0,0-2.258-.348c-1.109-1.012-1.959-2.254-2.965-3.357a1.5,1.5,0,0,0,.129-2.2A69.05,69.05,0,0,1,4.2,54.34a44.67,44.67,0,0,1-.878-13.305c1.041-10.454,9.9-20.081,20.271-21.956a23.83,23.83,0,0,1,7.479-.33,18.319,18.319,0,0,1,5.007,2.386,34.79,34.79,0,0,1,4.336,2.9,1.163,1.163,0,0,0,1.573.059,3.332,3.332,0,0,1,1.4-.65c1.087.956,2.02.715,3.151-.109a25.12,25.12,0,0,1,15.049-4.758c-.1.416-.452.571-.691.805a9.373,9.373,0,0,0-1.843,2.489c-.575,1.143-.43,1.652.654,2.345a7.489,7.489,0,0,1,.065,2.089,4.674,4.674,0,0,0,.659,2.53c-1.312.725-1.5,1.43-.5,2.608a1.79,1.79,0,0,1,.337,2.011A10.1,10.1,0,0,0,69.124,46.66c.407.03.729.039.9.555a10.213,10.213,0,0,0,11.35,6.772,2.168,2.168,0,0,1,.366-.007c.314.368.109.773.039,1.142A72.112,72.112,0,0,1,76.9,71.155,62.6,62.6,0,0,1,70.8,82.013,36.185,36.185,0,0,1,60.709,92.034a8.245,8.245,0,0,1-2.648,1.2" transform="translate(-0.341 -2.016)" fill="#7ce563"/>
        <path id="Trazado_123361" data-name="Trazado 123361" d="M67.29,29.029a.534.534,0,0,1-.585-.432,7.813,7.813,0,0,1-.139-4.186A1.61,1.61,0,0,0,68.478,23.2a5.1,5.1,0,0,1,3.043-2.826c.675.252.31.742.218,1.119a6.492,6.492,0,0,0,2.019,6.739,6.631,6.631,0,0,0,1.277.887c1.363.771,1.564,1.372.928,2.762a5.753,5.753,0,0,0,2.828,7.656,5.832,5.832,0,0,0,2.679.5c1.54-.056,2.121.452,2.234,1.976a6.6,6.6,0,0,0,4.6,5.831c.321.1.653.16.974.258.733.225.9.54.613,1.225a3.778,3.778,0,0,1-1.466,1.933c-3.865,1.282-8.294-1.406-9.18-5.57-.283-1.327-.678-1.638-2-1.57a7.388,7.388,0,0,1-7.012-10.849c.571-1.124.5-1.456-.381-2.315a8.358,8.358,0,0,1-1.026-1.163,1.522,1.522,0,0,0-1.539-.765" transform="translate(-7.2 -2.211)" fill="#b1fba9"/>
        <path id="Trazado_123362" data-name="Trazado 123362" d="M64.746,97.276a30.815,30.815,0,0,0,9.344-7.327,56.2,56.2,0,0,0,8.436-12.985,68.36,68.36,0,0,0,5.722-18.046c.052-.3.118-.595.177-.891a11.6,11.6,0,0,0,4.386-2.169,35.571,35.571,0,0,1-.735,4.635A64.489,64.489,0,0,1,80.769,86.368a31.64,31.64,0,0,1-9.468,8.8,14.681,14.681,0,0,1-6.556,2.107" transform="translate(-7.026 -6.062)" fill="#68d54d"/>
        <path id="Trazado_123363" data-name="Trazado 123363" d="M89.021,51.192a18.371,18.371,0,0,0,1.27-2c.292-.595.1-.867-.48-.954a6.688,6.688,0,0,1-4.958-3.522,6.109,6.109,0,0,1-.8-2.964,1.5,1.5,0,0,0-1.859-1.582,5.457,5.457,0,0,1-5.05-2.145,5.783,5.783,0,0,1-.672-6.594c.481-.955.249-1.553-.771-2.074a6.852,6.852,0,0,1-3.6-4.283,6.622,6.622,0,0,1,.019-3.758c.094-.33.379-.675,0-1.01a5.259,5.259,0,0,1,3.253-.521c-.756,4.144.468,7.386,4.139,9.548.443.261.276.488.148.81A7.526,7.526,0,0,0,85.3,40.429c.06.011.124.046.179.034,1.647-.358,1.819.653,2.124,1.949a8.069,8.069,0,0,0,5.607,5.9,6.808,6.808,0,0,1-4.194,2.879" transform="translate(-7.796 -2.141)" fill="#96f68c"/>
        <path id="Trazado_123364" data-name="Trazado 123364" d="M46.785,23.464a12.871,12.871,0,0,1-1.838,1.146c-.383.258-.693.077-.99-.155a49.908,49.908,0,0,0-9.488-5.685,23.644,23.644,0,0,1,12.316,4.695" transform="translate(-3.741 -2.037)" fill="#68d54d"/>
        <path id="Trazado_123365" data-name="Trazado 123365" d="M39,101.92a6.994,6.994,0,0,1,5.576-1.79A12.718,12.718,0,0,1,39,101.92" transform="translate(-4.232 -10.858)" fill="#67d34c"/>
        <path id="Trazado_123366" data-name="Trazado 123366" d="M9.2,45.617a19.718,19.718,0,0,1,5.836-13.544,1.4,1.4,0,0,1,1.883-.353c.845.516.865,1.487.026,2.333a17.263,17.263,0,0,0-3.7,5.522,17.706,17.706,0,0,0-1.3,6.148c-.053,1.218-.49,1.779-1.378,1.77-.924-.009-1.406-.669-1.372-1.875" transform="translate(-0.999 -3.417)"/>
        <path id="Trazado_123367" data-name="Trazado 123367" d="M29.457,25.628a10.306,10.306,0,0,1,1.186.008,1.316,1.316,0,0,1,1.251,1.418,1.251,1.251,0,0,1-1.28,1.284,20.648,20.648,0,0,0-4.785.693c-.378.116-.753.242-1.13.364-.947.306-1.708.023-1.974-.733-.29-.827.1-1.5,1.111-1.869a19.381,19.381,0,0,1,5.621-1.164" transform="translate(-2.456 -2.78)"/>
      </g>
    </g>
  </g>
</svg>
