<svg xmlns="http://www.w3.org/2000/svg" xmlns:xlink="http://www.w3.org/1999/xlink" width="190.003" height="243" viewBox="0 0 190.003 243">
  <defs>
    <clipPath id="clip-path">
      <rect id="Rectángulo_35965" data-name="Rectángulo 35965" width="181.003" height="172.211" fill="none"/>
    </clipPath>
  </defs>
  <g id="Grupo_88140" data-name="Grupo 88140" transform="translate(-915 -1250)">
    <g id="Grupo_88071" data-name="Grupo 88071">
      <g id="Grupo_87693" data-name="Grupo 87693" transform="translate(-105 274.67)">
        <g id="Grupo_87397" data-name="Grupo 87397" transform="translate(0 45.434)">
          <path id="Rectángulo_34437" data-name="Rectángulo 34437" d="M0,0H96a77,77,0,0,1,77,77V184.116a0,0,0,0,1,0,0H0a0,0,0,0,1,0,0V0A0,0,0,0,1,0,0Z" transform="translate(1033 954.362)" fill="#a6bbff"/>
          <g id="Grupo_87372" data-name="Grupo 87372" transform="translate(1039.834 955.577)">
            <path id="Trazado_114646" data-name="Trazado 114646" d="M151.4,72.681c-1.152,17.828-14.827,34.849-33.347,35.905-21.272,1.63-40.8-10.036-61.986-10.159-10.8-.926-20.938,3.211-31.467,4.547C.823,103.846-2.8,75.9,1.635,57.886,20.34-27.038,152.7-15.484,151.4,72.681Z" transform="translate(1.291 13.295)" fill="#e1e8ff"/>
          </g>
        </g>
      </g>
      <g id="Grupo_88068" data-name="Grupo 88068" transform="translate(924 1295.371)">
        <g id="Grupo_88067" data-name="Grupo 88067" transform="translate(0 0)" clip-path="url(#clip-path)">
          <path id="Trazado_124851" data-name="Trazado 124851" d="M180,144.024c.516,7.221,1.891,25.96,2.063,29.054s-5.076,3.954-5.547,1.375-5.456-27.678-5.456-27.678Z" transform="translate(-25.106 -21.138)" fill="#39473e"/>
          <path id="Trazado_124852" data-name="Trazado 124852" d="M138.958,153.293s7.862,34.929,8.893,38.366-3.112,3.923-4.334,1.69c-1.462-2.677-16.585-39.025-16.585-39.025Z" transform="translate(-18.63 -22.499)" fill="#39473e"/>
          <path id="Trazado_124853" data-name="Trazado 124853" d="M106.2,151.479c.536,3.516,3.189,16.975,3.8,20.5.323,1.871-4.747,2.576-5.342.425-1.071-3.88-6.535-20.926-6.535-20.926Z" transform="translate(-14.401 -22.232)" fill="#39473e"/>
          <path id="Trazado_124854" data-name="Trazado 124854" d="M56.82,151.124s-14.011,30.6-15.73,34.04-6.533,2.751-5.845-1.2,8.768-34.9,8.768-34.9Z" transform="translate(-5.163 -21.877)" fill="#39473e"/>
          <path id="Trazado_124855" data-name="Trazado 124855" d="M.074,70.582C.638,79.8,6.848,98.334,13.34,111.317s10.724,18.63,17.216,18.913,92.869,5.078,97.665,4.232,36.7-10.443,38.388-12.7,7.624-27.945,11.01-48.83,3.843-48.731,3.044-60.236a6.734,6.734,0,0,0-1.95-4.35c-3.41-3.485-10.6-4.289-16.338-4.289H62.451c-14.956,0-17.5.282-18.625,6.774S41.848,35.107,41,41.317a13.5,13.5,0,0,1-11.011,11.57c-5.359.85-11.569,1.7-19.757,2.259-4.4.3-7.173,2.072-8.7,5.083h0C.215,62.816-.184,66.316.074,70.582" transform="translate(0 -0.595)" fill="#e07346"/>
          <path id="Trazado_124856" data-name="Trazado 124856" d="M150.229,35.318a2.945,2.945,0,1,1,2.945,2.945,2.948,2.948,0,0,1-2.945-2.945m.475,0a2.47,2.47,0,1,0,2.47-2.47,2.473,2.473,0,0,0-2.47,2.47" transform="translate(-22.049 -4.751)" fill="#aa5b5b"/>
          <path id="Trazado_124857" data-name="Trazado 124857" d="M120.508,35.318a2.945,2.945,0,1,1,2.945,2.945,2.948,2.948,0,0,1-2.945-2.945m.475,0a2.47,2.47,0,1,0,2.47-2.47,2.473,2.473,0,0,0-2.47,2.47" transform="translate(-17.687 -4.751)" fill="#aa5b5b"/>
          <path id="Trazado_124858" data-name="Trazado 124858" d="M90.787,35.318a2.945,2.945,0,1,1,2.945,2.945,2.948,2.948,0,0,1-2.945-2.945m.475,0a2.47,2.47,0,1,0,2.47-2.47,2.473,2.473,0,0,0-2.47,2.47" transform="translate(-13.325 -4.751)" fill="#aa5b5b"/>
          <path id="Trazado_124859" data-name="Trazado 124859" d="M149.223,62.555a2.945,2.945,0,1,1,2.945,2.945,2.949,2.949,0,0,1-2.945-2.945m.475,0a2.47,2.47,0,1,0,2.47-2.47,2.473,2.473,0,0,0-2.47,2.47" transform="translate(-21.901 -8.749)" fill="#aa5b5b"/>
          <path id="Trazado_124860" data-name="Trazado 124860" d="M119.5,62.555a2.945,2.945,0,1,1,2.945,2.945,2.949,2.949,0,0,1-2.945-2.945m.475,0a2.47,2.47,0,1,0,2.47-2.47,2.473,2.473,0,0,0-2.47,2.47" transform="translate(-17.539 -8.749)" fill="#aa5b5b"/>
          <path id="Trazado_124861" data-name="Trazado 124861" d="M89.781,62.555A2.945,2.945,0,1,1,92.726,65.5a2.949,2.949,0,0,1-2.945-2.945m.475,0a2.47,2.47,0,1,0,2.47-2.47,2.473,2.473,0,0,0-2.47,2.47" transform="translate(-13.177 -8.749)" fill="#aa5b5b"/>
          <path id="Trazado_124862" data-name="Trazado 124862" d="M113.06,107.916c-1.774-.095-4.242-.218-7.2-.368-13.439-.677-35.933-1.808-51.083-3.071-16.942-1.412-25-2.3-25.735-4.323a1.29,1.29,0,0,1,.491-1.367c10.8-10.609,37.937-10.422,61.885-10.257,26.823.185,41.652,6.172,45.1,8.463l.194.129-3.527,5.578-.053.03c-.1.055-9.6,5.219-18.815,5.219-.419,0-.838-.01-1.254-.033m23-10.653c-5.156-3.279-21.07-8.095-44.649-8.258-23.855-.165-50.893-.351-61.549,10.121-.509.5-.41.776-.376.866.657,1.818,10.912,2.81,25.328,4.011,15.142,1.262,37.63,2.393,51.067,3.069,2.963.149,5.432.273,7.206.369,9.1.486,18.949-4.665,19.763-5.1Z" transform="translate(-4.253 -12.987)" fill="#aa5b5b"/>
          <path id="Trazado_124863" data-name="Trazado 124863" d="M.074,80.173c.564,9.221,6.774,27.752,13.266,40.736s10.724,18.63,17.216,18.913c5.439.235,67,3.645,89.609,4.241.056,0,.107.005.164.005,6.77.145,9.687-4.19,16-13.06,6.365-8.939,16.333-32.835,14.956-46.589-1.217-12.181-12.429-13.975-18.188-10.287a24.834,24.834,0,0,0-1.921,1.682l0,0c-5.576,5.407-7.822,12.5-10.283,18.842-3.95,10.16-5.548,27.757-18.25,28.607s-59.921-3.392-65.585-3.772c-5.144-.342-8.249-3.448-9.659-12.763S23.214,82.888,16.731,75.762c-4.613-5.078-9.1-7.351-15.2-5.942h0C.215,72.408-.184,75.908.074,80.173" transform="translate(0 -10.187)" fill="#f27e55"/>
          <path id="Trazado_124864" data-name="Trazado 124864" d="M141.027,135.214a72.464,72.464,0,0,0,7.892-.013c4.8-.846,36.7-10.443,38.388-12.7s7.624-27.945,11.011-48.83,3.842-48.731,3.044-60.235a6.74,6.74,0,0,0-1.95-4.35c-4.764,4.462-1.659,22.53-6.177,32.125S183.92,55.6,166.422,59.553a30.81,30.81,0,0,0-12.632,5.725c5.759-3.686,16.972-1.892,18.189,10.288,1.376,13.753-8.592,37.651-14.957,46.589-6.309,8.869-9.226,13.205-15.995,13.059" transform="translate(-20.698 -1.333)" fill="#bf5f3d"/>
          <path id="Trazado_124865" data-name="Trazado 124865" d="M70.643,84.3l.457-.131A48.439,48.439,0,0,0,59.846,64.411c-4.839-5.068-10.054-8.025-14.31-8.112l-.009.475c4.13.084,9.224,2.988,13.976,7.965A47.948,47.948,0,0,1,70.643,84.3" transform="translate(-6.682 -8.263)" fill="#aa5b5b"/>
          <rect id="Rectángulo_35963" data-name="Rectángulo 35963" width="80.488" height="78.338" transform="translate(35.46 0.549)" fill="#f7f7f7"/>
          <path id="Trazado_124866" data-name="Trazado 124866" d="M122.5,79.436H40.918V0H122.5Zm-80.488-1.1H121.4V1.1H42.015Z" transform="translate(-6.005)" fill="#dfc9ad"/>
          <rect id="Rectángulo_35964" data-name="Rectángulo 35964" width="68.522" height="68.522" transform="translate(41.444 5.456)" fill="#f4f4f4"/>
          <path id="Trazado_124867" data-name="Trazado 124867" d="M91.2,30.431a13.48,13.48,0,1,1-13.48-13.48A13.48,13.48,0,0,1,91.2,30.431" transform="translate(-9.429 -2.488)" fill="#e07346"/>
          <path id="Trazado_124868" data-name="Trazado 124868" d="M117.1,67.965s-4.287-4.775-12.967-5.317-16.553,7.974-26.043,7.6c-8.5-.34-13.2-10.848-20-10.621a11.647,11.647,0,0,0-9.515,6.248V82.729H117.1Z" transform="translate(-7.129 -8.75)" fill="#416076"/>
        </g>
      </g>
    </g>
    <rect id="Rectángulo_35984" data-name="Rectángulo 35984" width="190" height="243" transform="translate(915 1250)" fill="none"/>
  </g>
</svg>
