<svg xmlns="http://www.w3.org/2000/svg" xmlns:xlink="http://www.w3.org/1999/xlink" width="272.174" height="300.5" viewBox="0 0 272.174 300.5">
  <defs>
    <clipPath id="clip-path">
      <rect id="Rectángulo_34919" data-name="Rectángulo 34919" width="48.024" height="27.878" fill="none"/>
    </clipPath>
    <clipPath id="clip-path-2">
      <path id="Trazado_123112" data-name="Trazado 123112" d="M700.354,449.733,697.47,448.1c-5.455-3.087-14.213-3.037-19.56.113l-18.632,10.974c-3.787,2.23-3.724,5.811.139,8l8.65,4.9a15.307,15.307,0,0,0,13.851-.08l18.632-10.974c5.348-3.15,5.26-8.206-.2-11.293m-1.14,3.148h0a2.921,2.921,0,0,1-2.643.015l-4.119-2.331c-.737-.417-.749-1.1-.026-1.526a2.921,2.921,0,0,1,2.643-.015l4.119,2.331c.737.417.749,1.1.026,1.526" transform="translate(-656.479 -445.819)" fill="none"/>
    </clipPath>
    <linearGradient id="linear-gradient" x1="-2.305" y1="6.882" x2="-2.302" y2="6.882" gradientUnits="objectBoundingBox">
      <stop offset="0" stop-color="#3bbfff"/>
      <stop offset="0.297" stop-color="#2f92ef"/>
      <stop offset="0.605" stop-color="#246ae1"/>
      <stop offset="0.85" stop-color="#1e52d9"/>
      <stop offset="1" stop-color="#1c49d6"/>
    </linearGradient>
    <clipPath id="clip-path-3">
      <rect id="Rectángulo_34921" data-name="Rectángulo 34921" width="47.751" height="27.139" fill="none"/>
    </clipPath>
    <clipPath id="clip-path-4">
      <path id="Trazado_123113" data-name="Trazado 123113" d="M546.709,353.6c-4.614-2.731-10.663-3.644-19.006,1.055-3.463,1.95-3.32,4.186-1.185,6.316l-7.269,4.094-.031,1.429-1.532.863-1.114.627-.38,1.118-1.882.2-.394,1.081-1.882.2-.057,1.281h-2.22l-.394,1.081-1.882.2-.057,1.281-2.263-.019-2.512,1.415.57,2.267,3.912.386,2.512-1.415.022-1.307h2.22l.395-1.082,1.882-.2.057-1.282h2.22l.395-1.081,1.882-.2.395-1.081,1.945-.191,1.114-.627,1.532-.863,2.476.018,7.269-4.094c3.634,1.285,7.5,1.423,10.965-.527,8.274-4.659,6.912-8.213,2.3-10.943m-4.96-.148,5.094,3.015c.394.233.386.606-.018.834a1.6,1.6,0,0,1-1.444-.01l-5.094-3.015c-.394-.233-.386-.606.018-.834a1.6,1.6,0,0,1,1.444.01" transform="translate(-502.648 -351.344)" fill="none"/>
    </clipPath>
    <linearGradient id="linear-gradient-2" x1="-1.793" y1="7.67" x2="-1.79" y2="7.67" xlink:href="#linear-gradient"/>
    <clipPath id="clip-path-5">
      <rect id="Rectángulo_34922" data-name="Rectángulo 34922" width="45.759" height="2.542" fill="none"/>
    </clipPath>
    <clipPath id="clip-path-6">
      <rect id="Rectángulo_34923" data-name="Rectángulo 34923" width="39.318" height="1.803" fill="none"/>
    </clipPath>
    <clipPath id="clip-path-7">
      <rect id="Rectángulo_34927" data-name="Rectángulo 34927" width="25.406" height="8.097" fill="none"/>
    </clipPath>
    <clipPath id="clip-path-8">
      <rect id="Rectángulo_34925" data-name="Rectángulo 34925" width="25.406" height="1.751" fill="none"/>
    </clipPath>
    <clipPath id="clip-path-9">
      <rect id="Rectángulo_34926" data-name="Rectángulo 34926" width="21.44" height="2.469" fill="none"/>
    </clipPath>
  </defs>
  <g id="Grupo_87855" data-name="Grupo 87855" transform="translate(9019.587 10710)">
    <g id="Grupo_87386" data-name="Grupo 87386" transform="translate(570 -311)">
      <path id="Rectángulo_34017" data-name="Rectángulo 34017" d="M0,0H140a77,77,0,0,1,77,77V300.5a0,0,0,0,1,0,0H0a0,0,0,0,1,0,0V0A0,0,0,0,1,0,0Z" transform="translate(-9562 -10399)" fill="#6b8dfc"/>
      <g id="Grupo_80932" data-name="Grupo 80932" transform="translate(-9711.563 -10432.907)">
        <path id="Trazado_114646" data-name="Trazado 114646" d="M274.765,153.931c-1.55,23.991-19.953,46.9-44.875,48.318-28.625,2.193-54.9-13.505-83.415-13.671-14.54-1.247-28.176,4.321-42.345,6.118-32,1.175-36.879-36.434-30.911-60.675C98.39,19.738,276.507,35.287,274.765,153.931Z" transform="translate(84.545 -1.289)" fill="#a6bbff"/>
      </g>
    </g>
    <g id="Grupo_87680" data-name="Grupo 87680" transform="translate(598.833 -319.712)">
      <g id="Grupo_87678" data-name="Grupo 87678" transform="translate(-9618.42 -10370.287)">
        <path id="Trazado_123082" data-name="Trazado 123082" d="M1299.194,1220.923l-6.771-3.935-.055-19.329,6.771,3.935Z" transform="translate(-1061.666 -983.863)" fill="#c8a376"/>
        <path id="Trazado_123083" data-name="Trazado 123083" d="M1299.14,1194.787l-6.772-3.935,2.562-1.479,6.77,3.935Z" transform="translate(-1061.666 -977.058)" fill="#f4e0ce"/>
        <path id="Trazado_123084" data-name="Trazado 123084" d="M1313.408,1166.308l-6.77-3.935-.017-5.867,6.771,3.934Z" transform="translate(-1073.374 -950.057)" fill="#c8a376"/>
        <path id="Trazado_123085" data-name="Trazado 123085" d="M1299.048,1161.919l-6.771-3.935,2.561-1.478,6.771,3.935Z" transform="translate(-1061.592 -950.057)" fill="#f4e0ce"/>
        <path id="Trazado_123086" data-name="Trazado 123086" d="M895.914,1427.633l-6.771-3.935,2.546-1.469,6.771,3.935Z" transform="translate(-730.421 -1168.345)" fill="#f4e0ce"/>
        <path id="Trazado_123087" data-name="Trazado 123087" d="M910.08,1208.81l-6.772-3.935,69.435-40.089,6.771,3.935Z" transform="translate(-742.058 -956.86)" fill="#f4e0ce"/>
        <path id="Trazado_123088" data-name="Trazado 123088" d="M895.823,1394.762l-6.771-3.935,2.545-1.47,6.772,3.935Z" transform="translate(-730.347 -1141.342)" fill="#f4e0ce"/>
        <path id="Trazado_123089" data-name="Trazado 123089" d="M1001.522,1178.547l.016,5.868-2.56,1.479-69.435,40.088-2.545,1.47-.017-5.868,2.546-1.469,69.434-40.088Z" transform="translate(-761.504 -968.164)" fill="#846340"/>
        <path id="Trazado_123090" data-name="Trazado 123090" d="M895.84,1407.393l-6.771-3.935-.016-5.868,6.771,3.935Z" transform="translate(-730.346 -1148.105)" fill="#c8a376"/>
        <path id="Trazado_123091" data-name="Trazado 123091" d="M1297.677,685.6l-6.771-3.935-.3-104.983,6.771,3.935Z" transform="translate(-1060.22 -473.738)" fill="#c8a376"/>
        <path id="Trazado_123092" data-name="Trazado 123092" d="M873.329,920.864,880.1,924.8l-.386-136.066-6.771-3.935Z" transform="translate(-717.113 -644.703)" fill="#c8a376"/>
        <path id="Trazado_123093" data-name="Trazado 123093" d="M879.714,577.118l-6.772-3.935L952.59,527.2l6.771,3.935Z" transform="translate(-717.113 -433.087)" fill="#f4e0ce"/>
        <path id="Trazado_123094" data-name="Trazado 123094" d="M910.876,595.226l.386,136.066,5.106-2.948-.055-19.33-2.545,1.47-.017-5.868,2.546-1.469L916,598.162l69.435-40.088.3,104.984,2.561-1.479.016,5.868-2.56,1.478.054,19.33,5.106-2.948-.385-136.066Z" transform="translate(-748.275 -451.195)" fill="#846340"/>
        <path id="Trazado_123095" data-name="Trazado 123095" d="M622.415,836.568l-6.771-3.935-.055-19.33,6.771,3.935Z" transform="translate(-505.7 -668.12)" fill="#c8a376"/>
        <path id="Trazado_123096" data-name="Trazado 123096" d="M622.36,810.435l-6.771-3.935,2.561-1.478,6.771,3.935Z" transform="translate(-505.7 -661.316)" fill="#f4e0ce"/>
        <path id="Trazado_123097" data-name="Trazado 123097" d="M636.629,781.953l-6.772-3.935-.016-5.868,6.771,3.935Z" transform="translate(-517.408 -634.313)" fill="#c8a376"/>
        <path id="Trazado_123098" data-name="Trazado 123098" d="M622.265,777.564l-6.772-3.935,2.561-1.478,6.771,3.935Z" transform="translate(-505.621 -634.313)" fill="#f4e0ce"/>
        <path id="Trazado_123099" data-name="Trazado 123099" d="M219.133,1043.278l-6.771-3.935,2.546-1.469,6.771,3.935Z" transform="translate(-174.453 -852.602)" fill="#f4e0ce"/>
        <path id="Trazado_123100" data-name="Trazado 123100" d="M233.3,824.455l-6.771-3.935,69.435-40.088,6.772,3.935Z" transform="translate(-186.09 -641.116)" fill="#f4e0ce"/>
        <path id="Trazado_123101" data-name="Trazado 123101" d="M219.039,1010.407l-6.771-3.935,2.546-1.47,6.771,3.935Z" transform="translate(-174.376 -825.599)" fill="#f4e0ce"/>
        <path id="Trazado_123102" data-name="Trazado 123102" d="M324.738,794.195l.017,5.867-2.561,1.479-69.434,40.088-2.546,1.469-.017-5.868,2.546-1.469,69.435-40.089Z" transform="translate(-205.534 -652.422)" fill="#846340"/>
        <path id="Trazado_123103" data-name="Trazado 123103" d="M219.055,1023.038l-6.771-3.935-.017-5.868,6.771,3.935Z" transform="translate(-174.375 -832.362)" fill="#c8a376"/>
        <path id="Trazado_123104" data-name="Trazado 123104" d="M620.9,301.246l-6.771-3.935-.3-104.983,6.771,3.935Z" transform="translate(-504.253 -157.995)" fill="#c8a376"/>
        <path id="Trazado_123105" data-name="Trazado 123105" d="M203.319,540.445l-6.771-3.935-.385-136.066,6.771,3.935Z" transform="translate(-161.145 -328.96)" fill="#c8a376"/>
        <path id="Trazado_123106" data-name="Trazado 123106" d="M202.933,192.763l-6.771-3.935,79.647-45.984,6.772,3.935Z" transform="translate(-161.145 -117.345)" fill="#f4e0ce"/>
        <path id="Trazado_123107" data-name="Trazado 123107" d="M313.741,164.886l.385,136.066L309.02,303.9l-.055-19.33,2.561-1.479-.017-5.867-2.56,1.478-.3-104.983-69.435,40.088.3,104.984-2.546,1.469.017,5.868,2.546-1.47.054,19.33-5.106,2.948-.386-136.066Z" transform="translate(-192.304 -135.452)" fill="#846340"/>
        <path id="Trazado_123108" data-name="Trazado 123108" d="M919.532,593.632l-.033,11.747,108-62.762.033-11.747Z" transform="translate(-755.358 -436.103)" fill="#846340"/>
        <path id="Trazado_123109" data-name="Trazado 123109" d="M0,363.334,164.14,458.1l.034-11.747L.033,351.587Z" transform="translate(0 -288.825)" fill="#c8a376"/>
        <path id="Trazado_123110" data-name="Trazado 123110" d="M108.187,0,.186,62.758l164.141,94.767,108-62.763Z" transform="translate(-0.153 0.004)" fill="#f4e0ce"/>
        <path id="Trazado_123111" data-name="Trazado 123111" d="M80.716,101.055,174.352,46.64,324.106,133.1l-93.637,54.415Z" transform="translate(-66.307 -38.314)" fill="#c8a376"/>
      </g>
      <g id="Grupo_87679" data-name="Grupo 87679" transform="translate(371.007 4)">
        <g id="Grupo_87655" data-name="Grupo 87655" transform="translate(-9864.231 -10290.703)" opacity="0.24" style="mix-blend-mode: multiply;isolation: isolate">
          <g id="Grupo_87654" data-name="Grupo 87654">
            <g id="Grupo_87653" data-name="Grupo 87653" clip-path="url(#clip-path)">
              <g id="Grupo_87652" data-name="Grupo 87652" transform="translate(0 0)">
                <g id="Grupo_87651" data-name="Grupo 87651" clip-path="url(#clip-path-2)">
                  <rect id="Rectángulo_34918" data-name="Rectángulo 34918" width="50.405" height="29.252" transform="translate(-0.987 -0.805)" fill="url(#linear-gradient)"/>
                </g>
              </g>
            </g>
          </g>
        </g>
        <g id="Grupo_87660" data-name="Grupo 87660" transform="translate(-9891.691 -10307.569)" opacity="0.24" style="mix-blend-mode: multiply;isolation: isolate">
          <g id="Grupo_87659" data-name="Grupo 87659">
            <g id="Grupo_87658" data-name="Grupo 87658" clip-path="url(#clip-path-3)">
              <g id="Grupo_87657" data-name="Grupo 87657" transform="translate(0 0.001)">
                <g id="Grupo_87656" data-name="Grupo 87656" clip-path="url(#clip-path-4)">
                  <rect id="Rectángulo_34920" data-name="Rectángulo 34920" width="50.036" height="28.523" transform="translate(0 -1.385)" fill="url(#linear-gradient-2)"/>
                </g>
              </g>
            </g>
          </g>
        </g>
        <path id="Trazado_123114" data-name="Trazado 123114" d="M695.109,422.152l0-5.761-8.625-7.129-5.748-.825-2.251,4.232a19.948,19.948,0,0,0-9.969,2.4l-5.073,2.988-16.358,5.854.026,5.682h0c-.2,1.6.774,3.236,2.912,4.446l8.65,4.9a15.306,15.306,0,0,0,13.851-.08l18.632-10.974c2.7-1.589,4.011-3.662,3.951-5.724Zm-5.229-8.272a2.92,2.92,0,0,1-2.643.015l-4.119-2.331c-.737-.417-.749-1.1-.027-1.526a2.921,2.921,0,0,1,2.643-.015l4.119,2.331c.737.417.749,1.1.026,1.526" transform="translate(-10512.995 -10705.814)"/>
        <path id="Trazado_123115" data-name="Trazado 123115" d="M853.072,418.326,848.953,416a2.921,2.921,0,0,0-2.643.015,1.135,1.135,0,0,0-.467.467,2.922,2.922,0,0,1,2.641-.014l4.118,2.331c.5.285.668.693.493,1.059h0c.723-.426.711-1.109-.026-1.526" transform="translate(-10676.271 -10711.77)"/>
        <path id="Trazado_123116" data-name="Trazado 123116" d="M690.962,403.338l-2.883-1.632c-5.455-3.087-14.213-3.037-19.56.113l-18.632,10.974c-3.786,2.23-3.724,5.811.139,8l8.65,4.9a15.306,15.306,0,0,0,13.851-.08l18.632-10.974c5.348-3.15,5.26-8.206-.2-11.293m-1.14,3.148a2.921,2.921,0,0,1-2.643.015l-4.119-2.331c-.737-.417-.749-1.1-.026-1.526a2.921,2.921,0,0,1,2.643-.015l4.119,2.331c.737.417.749,1.1.026,1.526" transform="translate(-10512.995 -10698.409)" fill="#333"/>
        <path id="Trazado_123117" data-name="Trazado 123117" d="M767.924,439.737l-12.728-7.2c-.821-.464-.834-1.225-.03-1.7l3.041-1.791a3.251,3.251,0,0,1,2.941-.017l12.728,7.2c.82.464.833,1.225.029,1.7l-3.041,1.791a3.251,3.251,0,0,1-2.942.017" transform="translate(-10601.293 -10722.446)" fill="#3a3a3a"/>
        <path id="Trazado_123118" data-name="Trazado 123118" d="M788.769,436.23l-12.728-7.2a3.251,3.251,0,0,0-2.941.017l-.4.236a3.251,3.251,0,0,1,2.942-.017l12.728,7.2c.82.464.834,1.225.029,1.7l.4-.235c.8-.474.791-1.234-.029-1.7" transform="translate(-10616.185 -10722.446)" fill="#4d4d4d"/>
        <path id="Trazado_123119" data-name="Trazado 123119" d="M730.395,461.842l-12.728-7.2c-.82-.464-.834-1.225-.029-1.7l3.041-1.791a3.25,3.25,0,0,1,2.941-.017l12.728,7.2c.82.464.833,1.225.029,1.7l-3.041,1.791a3.251,3.251,0,0,1-2.942.017" transform="translate(-10570.463 -10740.605)" fill="#3a3a3a"/>
        <path id="Trazado_123120" data-name="Trazado 123120" d="M695.806,483.93a3.251,3.251,0,0,1-2.942.017l-12.728-7.2c-.82-.464-.834-1.225-.029-1.7l3.041-1.791a3.25,3.25,0,0,1,2.942-.017l12.728,7.2c.82.464.834,1.225.029,1.7Z" transform="translate(-10539.633 -10758.765)" fill="#3a3a3a"/>
        <path id="Trazado_123121" data-name="Trazado 123121" d="M796.211,456.182a.159.159,0,0,1-.079-.021l-2.737-1.549a.159.159,0,0,1,0-.276l2.242-1.32a.159.159,0,0,1,.159,0l2.738,1.549a.16.16,0,0,1,0,.276l-2.242,1.32a.159.159,0,0,1-.081.022m-2.418-1.711,2.417,1.368,1.924-1.133-2.417-1.368Z" transform="translate(-10633.118 -10742.417)" fill="#fff"/>
        <path id="Trazado_123122" data-name="Trazado 123122" d="M805.932,461.155c.1-.061.1-.159,0-.219a.419.419,0,0,0-.38,0,.125.125,0,0,0-.075.124l-.318.107.384.217.179-.186a.4.4,0,0,0,.214-.046" transform="translate(-10642.846 -10748.904)" fill="#fff"/>
        <path id="Trazado_123123" data-name="Trazado 123123" d="M810.259,453.119l-.134-.289c.19-.088.734-.409.746-.715.007-.187-.207-.348-.389-.451a2.209,2.209,0,0,0-2.3.243l-.2-.252a2.528,2.528,0,0,1,2.654-.268c.376.213.562.463.55.742-.022.554-.838.948-.93.991" transform="translate(-10645.171 -10740.865)" fill="#fff"/>
        <path id="Trazado_123124" data-name="Trazado 123124" d="M758.2,478.569a.159.159,0,0,1-.078-.021L755.386,477a.159.159,0,0,1,0-.276l2.242-1.32a.159.159,0,0,1,.159,0l2.738,1.549a.159.159,0,0,1,0,.276l-2.242,1.32a.158.158,0,0,1-.081.022m-2.418-1.711,2.417,1.368,1.924-1.133-2.417-1.368Z" transform="translate(-10601.895 -10760.808)" fill="#fff"/>
        <path id="Trazado_123125" data-name="Trazado 123125" d="M767.924,483.542c.1-.061.1-.159,0-.219a.42.42,0,0,0-.38,0,.125.125,0,0,0-.075.124l-.318.107.384.217.179-.185a.4.4,0,0,0,.214-.046" transform="translate(-10611.623 -10767.295)" fill="#fff"/>
        <path id="Trazado_123126" data-name="Trazado 123126" d="M760.32,468.755l-.134-.289c.19-.088.734-.409.746-.715.007-.187-.208-.348-.389-.451a2.239,2.239,0,0,0-2.3.243l-.2-.252a2.528,2.528,0,0,1,2.654-.268c.377.213.562.463.55.742-.022.554-.838.948-.931.991" transform="translate(-10604.146 -10753.71)" fill="#fff"/>
        <path id="Trazado_123127" data-name="Trazado 123127" d="M719.9,498.495a.616.616,0,0,1-.3-.073l-.251-.142a1.4,1.4,0,0,1-1.18-.036.55.55,0,0,1-.315-.457.456.456,0,0,1,.106-.293l-2.6-1.471a1.394,1.394,0,0,1-1.18-.036.549.549,0,0,1-.315-.457.463.463,0,0,1,.126-.316.351.351,0,0,1-.088-.225.4.4,0,0,1,.219-.339l.325-.192a.933.933,0,0,1,.8-.031l1.343.617,1.026-.089a.9.9,0,0,1,.508.1l2.185,1.236a.371.371,0,0,1,.2.479l-.182.4c0,.009,0,.021.021.038l.454.425a.284.284,0,0,1,.1.241.318.318,0,0,1-.167.236l-.53.312a.612.612,0,0,1-.306.077m-.546-.556a.16.16,0,0,1,.078.021l.326.184a.337.337,0,0,0,.286,0l.519-.305-.428-.4a.346.346,0,0,1-.093-.4l.182-.4c.007-.016-.027-.048-.064-.069l-2.184-1.236a.591.591,0,0,0-.324-.058l-1.069.093a.158.158,0,0,1-.08-.014l-1.382-.635a.619.619,0,0,0-.51.016l-.325.192c-.052.03-.062.056-.062.061s.011.033.067.064l.038.022a.159.159,0,0,1,0,.276c-.092.054-.145.12-.145.179s.058.128.154.182a1.061,1.061,0,0,0,.945-.005.16.16,0,0,1,.159,0l2.872,1.626a.16.16,0,0,1,0,.276c-.093.054-.145.12-.145.179s.058.129.154.183a1.062,1.062,0,0,0,.945-.005.157.157,0,0,1,.081-.022" transform="translate(-10567.851 -10776.391)" fill="#fff"/>
        <path id="Trazado_123128" data-name="Trazado 123128" d="M749.853,509.766h-.016l-1.163-.115a.159.159,0,1,1,.031-.317l1.163.115a.159.159,0,0,1-.015.318" transform="translate(-10596.329 -10788.698)" fill="#fff"/>
        <path id="Trazado_123129" data-name="Trazado 123129" d="M767.01,458.116l-13.121-7.425.746-.439,13.121,7.425Z" transform="translate(-10600.731 -10740.163)" fill="#1a1a1a"/>
        <path id="Trazado_123130" data-name="Trazado 123130" d="M729.48,480.221l-13.12-7.425.746-.439,13.121,7.425Z" transform="translate(-10569.901 -10758.323)" fill="#1a1a1a"/>
        <path id="Trazado_123131" data-name="Trazado 123131" d="M751.239,458.335l-12.728-7.2a3.251,3.251,0,0,0-2.941.017l-.4.236a3.251,3.251,0,0,1,2.941-.017l12.728,7.2c.82.464.834,1.225.029,1.7l.4-.235c.8-.474.791-1.234-.029-1.7" transform="translate(-10585.354 -10740.605)" fill="#4d4d4d"/>
        <path id="Trazado_123132" data-name="Trazado 123132" d="M713.547,480.536l-12.728-7.2a3.251,3.251,0,0,0-2.942.017l-.4.236a3.251,3.251,0,0,1,2.942-.017l12.728,7.2c.82.464.834,1.225.029,1.7l.4-.235c.8-.474.791-1.234-.029-1.7" transform="translate(-10554.391 -10758.843)" fill="#4d4d4d"/>
        <path id="Trazado_123133" data-name="Trazado 123133" d="M695.109,422.152l0-5.761-8.625-7.129-5.748-.825-2.251,4.232a19.948,19.948,0,0,0-9.969,2.4l-5.073,2.988-16.358,5.854.026,5.682h0c-.2,1.6.774,3.236,2.912,4.446l8.65,4.9a15.306,15.306,0,0,0,13.851-.08l18.632-10.974c2.7-1.589,4.011-3.662,3.951-5.724Zm-5.229-8.272a2.92,2.92,0,0,1-2.643.015l-4.119-2.331c-.737-.417-.749-1.1-.027-1.526a2.921,2.921,0,0,1,2.643-.015l4.119,2.331c.737.417.749,1.1.026,1.526" transform="translate(-10512.995 -10705.814)"/>
        <path id="Trazado_123134" data-name="Trazado 123134" d="M853.072,418.326,848.953,416a2.921,2.921,0,0,0-2.643.015,1.135,1.135,0,0,0-.467.467,2.922,2.922,0,0,1,2.641-.014l4.118,2.331c.5.285.668.693.493,1.059h0c.723-.426.711-1.109-.026-1.526" transform="translate(-10676.271 -10711.77)"/>
        <path id="Trazado_123135" data-name="Trazado 123135" d="M690.962,403.338l-2.883-1.632c-5.455-3.087-14.213-3.037-19.56.113l-18.632,10.974c-3.786,2.23-3.724,5.811.139,8l8.65,4.9a15.306,15.306,0,0,0,13.851-.08l18.632-10.974c5.348-3.15,5.26-8.206-.2-11.293m-1.14,3.148a2.921,2.921,0,0,1-2.643.015l-4.119-2.331c-.737-.417-.749-1.1-.026-1.526a2.921,2.921,0,0,1,2.643-.015l4.119,2.331c.737.417.749,1.1.026,1.526" transform="translate(-10512.995 -10698.409)" fill="#333"/>
        <path id="Trazado_123136" data-name="Trazado 123136" d="M767.924,439.737l-12.728-7.2c-.821-.464-.834-1.225-.03-1.7l3.041-1.791a3.251,3.251,0,0,1,2.941-.017l12.728,7.2c.82.464.833,1.225.029,1.7l-3.041,1.791a3.251,3.251,0,0,1-2.942.017" transform="translate(-10601.293 -10722.446)" fill="#3a3a3a"/>
        <path id="Trazado_123137" data-name="Trazado 123137" d="M788.769,436.23l-12.728-7.2a3.251,3.251,0,0,0-2.941.017l-.4.236a3.251,3.251,0,0,1,2.942-.017l12.728,7.2c.82.464.834,1.225.029,1.7l.4-.235c.8-.474.791-1.234-.029-1.7" transform="translate(-10616.185 -10722.446)" fill="#4d4d4d"/>
        <path id="Trazado_123138" data-name="Trazado 123138" d="M730.395,461.842l-12.728-7.2c-.82-.464-.834-1.225-.029-1.7l3.041-1.791a3.25,3.25,0,0,1,2.941-.017l12.728,7.2c.82.464.833,1.225.029,1.7l-3.041,1.791a3.251,3.251,0,0,1-2.942.017" transform="translate(-10570.463 -10740.605)" fill="#3a3a3a"/>
        <path id="Trazado_123139" data-name="Trazado 123139" d="M695.806,483.93a3.251,3.251,0,0,1-2.942.017l-12.728-7.2c-.82-.464-.834-1.225-.029-1.7l3.041-1.791a3.25,3.25,0,0,1,2.942-.017l12.728,7.2c.82.464.834,1.225.029,1.7Z" transform="translate(-10539.633 -10758.765)" fill="#3a3a3a"/>
        <path id="Trazado_123140" data-name="Trazado 123140" d="M796.211,456.182a.159.159,0,0,1-.079-.021l-2.737-1.549a.159.159,0,0,1,0-.276l2.242-1.32a.159.159,0,0,1,.159,0l2.738,1.549a.16.16,0,0,1,0,.276l-2.242,1.32a.159.159,0,0,1-.081.022m-2.418-1.711,2.417,1.368,1.924-1.133-2.417-1.368Z" transform="translate(-10633.118 -10742.417)" fill="#fff"/>
        <path id="Trazado_123141" data-name="Trazado 123141" d="M805.932,461.155c.1-.061.1-.159,0-.219a.419.419,0,0,0-.38,0,.125.125,0,0,0-.075.124l-.318.107.384.217.179-.186a.4.4,0,0,0,.214-.046" transform="translate(-10642.846 -10748.904)" fill="#fff"/>
        <path id="Trazado_123142" data-name="Trazado 123142" d="M810.259,453.119l-.134-.289c.19-.088.734-.409.746-.715.007-.187-.207-.348-.389-.451a2.209,2.209,0,0,0-2.3.243l-.2-.252a2.528,2.528,0,0,1,2.654-.268c.376.213.562.463.55.742-.022.554-.838.948-.93.991" transform="translate(-10645.171 -10740.865)" fill="#fff"/>
        <path id="Trazado_123143" data-name="Trazado 123143" d="M758.2,478.569a.159.159,0,0,1-.078-.021L755.386,477a.159.159,0,0,1,0-.276l2.242-1.32a.159.159,0,0,1,.159,0l2.738,1.549a.159.159,0,0,1,0,.276l-2.242,1.32a.158.158,0,0,1-.081.022m-2.418-1.711,2.417,1.368,1.924-1.133-2.417-1.368Z" transform="translate(-10601.895 -10760.808)" fill="#fff"/>
        <path id="Trazado_123144" data-name="Trazado 123144" d="M767.924,483.542c.1-.061.1-.159,0-.219a.42.42,0,0,0-.38,0,.125.125,0,0,0-.075.124l-.318.107.384.217.179-.185a.4.4,0,0,0,.214-.046" transform="translate(-10611.623 -10767.295)" fill="#fff"/>
        <path id="Trazado_123145" data-name="Trazado 123145" d="M760.32,468.755l-.134-.289c.19-.088.734-.409.746-.715.007-.187-.208-.348-.389-.451a2.239,2.239,0,0,0-2.3.243l-.2-.252a2.528,2.528,0,0,1,2.654-.268c.377.213.562.463.55.742-.022.554-.838.948-.931.991" transform="translate(-10604.146 -10753.71)" fill="#fff"/>
        <path id="Trazado_123146" data-name="Trazado 123146" d="M719.9,498.495a.616.616,0,0,1-.3-.073l-.251-.142a1.4,1.4,0,0,1-1.18-.036.55.55,0,0,1-.315-.457.456.456,0,0,1,.106-.293l-2.6-1.471a1.394,1.394,0,0,1-1.18-.036.549.549,0,0,1-.315-.457.463.463,0,0,1,.126-.316.351.351,0,0,1-.088-.225.4.4,0,0,1,.219-.339l.325-.192a.933.933,0,0,1,.8-.031l1.343.617,1.026-.089a.9.9,0,0,1,.508.1l2.185,1.236a.371.371,0,0,1,.2.479l-.182.4c0,.009,0,.021.021.038l.454.425a.284.284,0,0,1,.1.241.318.318,0,0,1-.167.236l-.53.312a.612.612,0,0,1-.306.077m-.546-.556a.16.16,0,0,1,.078.021l.326.184a.337.337,0,0,0,.286,0l.519-.305-.428-.4a.346.346,0,0,1-.093-.4l.182-.4c.007-.016-.027-.048-.064-.069l-2.184-1.236a.591.591,0,0,0-.324-.058l-1.069.093a.158.158,0,0,1-.08-.014l-1.382-.635a.619.619,0,0,0-.51.016l-.325.192c-.052.03-.062.056-.062.061s.011.033.067.064l.038.022a.159.159,0,0,1,0,.276c-.092.054-.145.12-.145.179s.058.128.154.182a1.061,1.061,0,0,0,.945-.005.16.16,0,0,1,.159,0l2.872,1.626a.16.16,0,0,1,0,.276c-.093.054-.145.12-.145.179s.058.129.154.183a1.062,1.062,0,0,0,.945-.005.157.157,0,0,1,.081-.022" transform="translate(-10567.851 -10776.391)" fill="#fff"/>
        <path id="Trazado_123147" data-name="Trazado 123147" d="M749.853,509.766h-.016l-1.163-.115a.159.159,0,1,1,.031-.317l1.163.115a.159.159,0,0,1-.015.318" transform="translate(-10596.329 -10788.698)" fill="#fff"/>
        <path id="Trazado_123148" data-name="Trazado 123148" d="M767.01,458.116l-13.121-7.425.746-.439,13.121,7.425Z" transform="translate(-10600.731 -10740.163)" fill="#1a1a1a"/>
        <path id="Trazado_123149" data-name="Trazado 123149" d="M729.48,480.221l-13.12-7.425.746-.439,13.121,7.425Z" transform="translate(-10569.901 -10758.323)" fill="#1a1a1a"/>
        <path id="Trazado_123150" data-name="Trazado 123150" d="M751.239,458.335l-12.728-7.2a3.251,3.251,0,0,0-2.941.017l-.4.236a3.251,3.251,0,0,1,2.941-.017l12.728,7.2c.82.464.834,1.225.029,1.7l.4-.235c.8-.474.791-1.234-.029-1.7" transform="translate(-10585.354 -10740.605)" fill="#4d4d4d"/>
        <path id="Trazado_123151" data-name="Trazado 123151" d="M713.547,480.536l-12.728-7.2a3.251,3.251,0,0,0-2.942.017l-.4.236a3.251,3.251,0,0,1,2.942-.017l12.728,7.2c.82.464.834,1.225.029,1.7l.4-.235c.8-.474.791-1.234-.029-1.7" transform="translate(-10554.391 -10758.843)" fill="#4d4d4d"/>
        <path id="Trazado_123152" data-name="Trazado 123152" d="M648.156,341.86l-1.644-.375q-.167-.152-.348-.3l-1.5-2.556-5.986-2.645-1.9,1.47.029.307c-3.235-.073-6.976.847-11.347,3.309a7.936,7.936,0,0,0-1.624,1.168l-1.087-.629v2.873h0c.012,1.75,1.833,3.548,4.589,5.179,4.614,2.73,10.1,3.961,14.828,1.3,4.351-2.451,6.038-4.6,5.987-6.475h0Zm-3.581-.847a1.6,1.6,0,0,1-1.444-.01l-5.094-3.015c-.394-.233-.386-.606.018-.834a1.6,1.6,0,0,1,1.444.01l5.093,3.015c.394.233.386.606-.018.834" transform="translate(-10493.002 -10646.294)" fill="#212121"/>
        <path id="Trazado_123153" data-name="Trazado 123153" d="M644.467,333.059c-4.613-2.731-10.663-3.644-19.006,1.055-4.729,2.664-2.735,5.86,1.879,8.591s10.1,3.961,14.828,1.3c8.274-4.66,6.912-8.213,2.3-10.944m-1.329,3.69-5.094-3.015c-.394-.233-.386-.606.018-.834a1.6,1.6,0,0,1,1.444.01l5.094,3.015c.394.233.386.606-.018.834a1.6,1.6,0,0,1-1.444-.01" transform="translate(-10493.003 -10642.036)" fill="#333"/>
        <path id="Trazado_123154" data-name="Trazado 123154" d="M713.61,344.8l-5.094-3.015a1.6,1.6,0,0,0-1.444-.01c-.245.138-.344.33-.3.512l.035-.021a1.6,1.6,0,0,1,1.444.01l5.094,3.015a.561.561,0,0,1,.278.322.434.434,0,0,0-.018-.813" transform="translate(-10562.019 -10650.914)"/>
        <path id="Trazado_123155" data-name="Trazado 123155" d="M817.373,520.222v5.84L820.88,524v-5.84Z" transform="translate(-10652.883 -10795.946)" fill="#333"/>
        <path id="Trazado_123156" data-name="Trazado 123156" d="M727.922,362.983c-4.27-2.505-5.617-5.384-4.948-8.279l.637-1.428-2-1.184a13.821,13.821,0,0,0-1.065,4.031c-.037,2.616,2,5.762,5.64,7.862a27.685,27.685,0,0,0,13.617,3.257c1.74,0,6.756-.474,8.391-.73l-2.287-1.294c-5.05.409-11.47,1.591-17.987-2.233" transform="translate(-10573.342 -10659.527)" fill="#999"/>
        <path id="Trazado_123157" data-name="Trazado 123157" d="M768.956,317.2a30.1,30.1,0,0,0-27.234,0,11.48,11.48,0,0,0-2.265,1.516,15.618,15.618,0,0,1,1.778,1.065,11.756,11.756,0,0,1,2.221-1.58c6.552-3.783,17.213-3.783,23.766,0s6.552,9.938,0,13.721a5.888,5.888,0,0,1-1.344.68l1.773,1.013a14.476,14.476,0,0,0,1.305-.691c3.637-2.1,5.641-4.892,5.641-7.862s-2-5.762-5.641-7.862" transform="translate(-10588.876 -10628.188)" fill="#999"/>
        <path id="Trazado_123158" data-name="Trazado 123158" d="M729.021,362.3c-4.27-2.505-5.617-5.384-4.948-8.279l.281-.837-1.839-1.088a9.5,9.5,0,0,0-.869,3.345c-.037,2.616,2,5.762,5.64,7.862a27.686,27.686,0,0,0,13.617,3.256c1.74,0,6.754-.472,8.389-.729l-2.284-1.3c-5.05.409-11.47,1.591-17.987-2.233" transform="translate(-10574.244 -10659.526)" fill="#ccc"/>
        <path id="Trazado_123159" data-name="Trazado 123159" d="M766.474,311.8a30.1,30.1,0,0,0-27.234,0,21.209,21.209,0,0,0-3.044,2.189c.613.266,1.883,1.042,1.883,1.042l.034-.026a12.561,12.561,0,0,1,2.861-2.2c6.552-3.783,17.213-3.783,23.766,0s6.552,9.938,0,13.721a18.066,18.066,0,0,1-2.373,1.139l1.781,1.009a20.513,20.513,0,0,0,2.326-1.147c3.637-2.1,5.64-4.892,5.64-7.862s-2-5.762-5.64-7.862" transform="translate(-10586.197 -10623.752)" fill="#ccc"/>
        <path id="Trazado_123160" data-name="Trazado 123160" d="M868.812,429.768l1.506-.221-.922-.521-1.548.2Z" transform="translate(-10694.348 -10722.729)" fill="#999"/>
        <path id="Trazado_123161" data-name="Trazado 123161" d="M887.657,321.634l-1.752,1.011q.559.241,1.09.514l1.738-1q-.524-.273-1.076-.522" transform="translate(-10709.182 -10634.506)" fill="#fff"/>
        <path id="Trazado_123162" data-name="Trazado 123162" d="M909.389,393.022a9.825,9.825,0,0,1-1.319,1.389l1.767,1.02a12.049,12.049,0,0,0,1.4-1.343Z" transform="translate(-10727.39 -10693.15)" fill="#fff"/>
        <g id="Grupo_87663" data-name="Grupo 87663" transform="translate(-9864.004 -10287.549)" opacity="0.1" style="mix-blend-mode: screen;isolation: isolate">
          <g id="Grupo_87662" data-name="Grupo 87662">
            <g id="Grupo_87661" data-name="Grupo 87661" clip-path="url(#clip-path-5)">
              <path id="Trazado_123163" data-name="Trazado 123163" d="M701.631,466.03a6.878,6.878,0,0,0,1.88-2.542h-41.58l-3.283,1.934a8.189,8.189,0,0,0-.9.608Z" transform="translate(-657.752 -463.488)" fill="#fff"/>
            </g>
          </g>
        </g>
        <g id="Grupo_87666" data-name="Grupo 87666" transform="translate(-9865.845 -10281.016)" opacity="0.1" style="mix-blend-mode: screen;isolation: isolate">
          <g id="Grupo_87665" data-name="Grupo 87665">
            <g id="Grupo_87664" data-name="Grupo 87664" clip-path="url(#clip-path-6)">
              <path id="Trazado_123164" data-name="Trazado 123164" d="M686.761,500.086H647.443a4.061,4.061,0,0,0,.9,1.8H683.7Z" transform="translate(-647.443 -500.087)" fill="#fff"/>
            </g>
          </g>
        </g>
        <g id="Grupo_87675" data-name="Grupo 87675" transform="translate(-9870.252 -10310.084)" opacity="0.33">
          <g id="Grupo_87674" data-name="Grupo 87674">
            <g id="Grupo_87673" data-name="Grupo 87673" clip-path="url(#clip-path-7)">
              <g id="Grupo_87669" data-name="Grupo 87669" transform="translate(0 6.346)" opacity="0.1" style="mix-blend-mode: screen;isolation: isolate">
                <g id="Grupo_87668" data-name="Grupo 87668">
                  <g id="Grupo_87667" data-name="Grupo 87667" clip-path="url(#clip-path-8)">
                    <rect id="Rectángulo_34924" data-name="Rectángulo 34924" width="25.406" height="1.751" transform="translate(0 0)" fill="#fff"/>
                  </g>
                </g>
              </g>
              <g id="Grupo_87672" data-name="Grupo 87672" transform="translate(2.199)" opacity="0.1" style="mix-blend-mode: screen;isolation: isolate">
                <g id="Grupo_87671" data-name="Grupo 87671">
                  <g id="Grupo_87670" data-name="Grupo 87670" clip-path="url(#clip-path-9)">
                    <path id="Trazado_123165" data-name="Trazado 123165" d="M635.582,339.416c-.18.1-.35.2-.511.307h14.254l-1.16-.687a.555.555,0,0,1-.279-.328l.03-.018a1.6,1.6,0,0,1,1.444.01l1.727,1.022h5.423a12.863,12.863,0,0,0-1.923-1.362,17.192,17.192,0,0,0-2.209-1.107h-12.1a29.574,29.574,0,0,0-4.7,2.162" transform="translate(-635.071 -337.253)" fill="#fff"/>
                  </g>
                </g>
              </g>
            </g>
          </g>
        </g>
        <path id="Trazado_123166" data-name="Trazado 123166" d="M521.236,395.9l-6.823,3.761-.031,1.429-1.532.863-1.114.628-.38,1.118-1.882.2-.394,1.081-1.882.2-.057,1.281h-2.22l-.394,1.081-1.882.2-.057,1.282-2.263-.02-2.265,1.275-.483-1.52.235,1.659.57,2.267,3.912.386,2.512-1.415.022-1.307h2.22l.4-1.081,1.882-.2.057-1.281h2.22l.395-1.081,1.882-.2.395-1.081,1.945-.191,1.114-.627,1.532-.863,2.476.018,6.587-3.631Z" transform="translate(-10390.174 -10695.514)" fill="#b3b3b3"/>
        <path id="Trazado_123167" data-name="Trazado 123167" d="M506.815,401.059l.395-1.081,1.882-.2.057-1.281h2.22l.395-1.081,1.882-.2.395-1.081,1.945-.191,1.114-.627,1.532-.863,2.476.018,6.823-3.761-6.927-4.1-6.823,3.761-.031,1.429-1.532.863-1.114.627-.38,1.118-1.882.2-.394,1.081-1.882.2-.057,1.281h-2.22l-.394,1.081-1.882.2-.057,1.282-2.264-.02-2.512,1.415.57,2.268,3.912.385,2.512-1.415.022-1.307Z" transform="translate(-10390.174 -10687.88)" fill="#ccc"/>
        <path id="Trazado_123168" data-name="Trazado 123168" d="M499.893,402.672l2.255-1.27,2.487.021.059-1.322,1.829-.2.383-1.05h2.284l.058-1.318,1.828-.2.395-1.081,1.886-.2.407-1.2,2.674-1.506.031-1.429,6.429-3.539,6.281,3.756-6.326,3.563-2.476-.018-2.674,1.506-2.086.205-.4,1.084-1.882.2-.383,1.05h-2.284l-.058,1.318-1.828.195-.383,1.05h-2.29l-.024,1.436L503.833,405l-3.438-.339Z" transform="translate(-10392.077 -10689.342)" fill="#e6e6e6"/>
        <path id="Trazado_123169" data-name="Trazado 123169" d="M500.168,414.256l.108.541.934.076L525.663,401.1l-1.041-.616Z" transform="translate(-10392.303 -10699.28)" fill="#ccc"/>
        <path id="Trazado_123170" data-name="Trazado 123170" d="M652.005,409.575v1.788l-2.91,1.6s-.5-1.515-.479-1.525l3.388-1.868" transform="translate(-10514.251 -10706.749)" fill="#b3b3b3"/>
      </g>
    </g>
  </g>
</svg>
