<svg xmlns="http://www.w3.org/2000/svg" xmlns:xlink="http://www.w3.org/1999/xlink" width="141.38" height="79.8" viewBox="0 0 141.38 79.8">
  <defs>
    <clipPath id="clip-path">
      <rect id="Rectángulo_35854" data-name="Rectángulo 35854" width="141.38" height="79.8" fill="none"/>
    </clipPath>
  </defs>
  <g id="Grupo_161119" data-name="Grupo 161119" transform="translate(8736 9400.952)">
    <g id="Grupo_87850" data-name="Grupo 87850" transform="translate(-8736 -9400.952)">
      <g id="Grupo_87849" data-name="Grupo 87849" transform="translate(0 0)">
        <path id="Trazado_124375" data-name="Trazado 124375" d="M0,78.635,26.871,93.089V48.711L0,37.514Z" transform="translate(0 -26.589)" fill="#d19462"/>
        <path id="Trazado_124376" data-name="Trazado 124376" d="M138.482,81.71,92.272,93.585V49.31l46.21-11.1Z" transform="translate(-65.401 -27.085)" fill="#996042"/>
        <path id="Trazado_124377" data-name="Trazado 124377" d="M46.516,0,0,10.925,26.872,22.054,73.388,11.129Z" transform="translate(0 0)" fill="#e9b375"/>
        <line id="Línea_195" data-name="Línea 195" x1="46.246" y2="11.037" transform="translate(11.668 4.72)" fill="none" stroke="#b26e4b" stroke-miterlimit="10" stroke-width="1"/>
        <g id="Grupo_87848" data-name="Grupo 87848">
          <g id="Grupo_87847" data-name="Grupo 87847" clip-path="url(#clip-path)">
            <path id="Trazado_124378" data-name="Trazado 124378" d="M154.93,94.74c2.152.812,3.062,2.62,3.662,4.641a20.594,20.594,0,0,1,.537,8.21,27.574,27.574,0,0,1-4.27,12.3c-2.744,4.181-6.426,7.138-11.422,8.071a20.936,20.936,0,0,1-22.46-10.211,24.8,24.8,0,0,1-3.251-15.282,15.821,15.821,0,0,1,3.88-9.283,6.763,6.763,0,0,1,5.4-2.343c3.239.1,5.713,1.773,7.962,3.892a11.062,11.062,0,0,0,2.041,1.544,3.475,3.475,0,0,0,.785.372c.129.043.258.086.389.122a10.055,10.055,0,0,0,1.661.383c.207.008.414.013.622.01a20.53,20.53,0,0,0,6.835-1.151c1.015-.3,2.016-.635,3.006-1.006a1.433,1.433,0,0,0,.657-.064,14.84,14.84,0,0,1,2.4-.453,2.428,2.428,0,0,1,1.559.246" transform="translate(-83.339 -64.388)" fill="#e7384c"/>
            <path id="Trazado_124379" data-name="Trazado 124379" d="M188.541,46.419a4.844,4.844,0,0,1-1.656-.41.826.826,0,0,1-.264-.539,13.14,13.14,0,0,1-.02-4.867,1.076,1.076,0,0,1,.26-.546,15.08,15.08,0,0,1,4.245-7.045,40.231,40.231,0,0,1,5.227-3.922,86.608,86.608,0,0,0,9.755-7.666,27.288,27.288,0,0,0,2.2-2.339,11.46,11.46,0,0,1,.617,2.379,25.41,25.41,0,0,1,.223,8.51,18.616,18.616,0,0,1-7.069,12.288c-.146.114-.28.243-.419.365a6.367,6.367,0,0,1-2.57,1.615,26.75,26.75,0,0,1-9.25,2.237c-.2.005-.409-.013-.613-.02.02-.28.27-.283.446-.341a68.71,68.71,0,0,0,8.658-3.5,15.234,15.234,0,0,0,4.19-2.753,2.789,2.789,0,0,0,.689-1.073,1.041,1.041,0,0,0-.624-1.462,5.82,5.82,0,0,0-2.177-.466c-.6-.008-1.194.01-1.791-.01-.158,0-.379.018-.409-.192-.023-.171.17-.234.309-.27a31.684,31.684,0,0,0,3.5-1.165,11.456,11.456,0,0,0,4.18-2.3,1.739,1.739,0,0,0-.156-2.732,5.128,5.128,0,0,0-.987-.634c-.641-.315-.642-.4-.135-.876a12.1,12.1,0,0,0,2.14-2.35,3.594,3.594,0,0,0,.411-3.309c-.215-.582-.359-.593-.715-.1-.84,1.166-1.691,2.324-2.608,3.431a44.158,44.158,0,0,1-6.532,6.572,29.3,29.3,0,0,0-6.549,6.923,14.224,14.224,0,0,0-2.266,5.964.8.8,0,0,1-.247.6" transform="translate(-132.106 -13.526)" fill="#cacc45"/>
            <path id="Trazado_124380" data-name="Trazado 124380" d="M175.864,61.121a3.021,3.021,0,0,1-.782-.338,12.41,12.41,0,0,1-1.214-2.81c-.313-.777-.541-1.586-.8-2.382a.608.608,0,0,1-.022-.538,34.714,34.714,0,0,1-1.673-8.194,9.759,9.759,0,0,1,.336-3.6,6.937,6.937,0,0,1,.358-.877,1.8,1.8,0,0,1,1.511-1.137,32.077,32.077,0,0,0,3.4-.659c.418-.1.418.022.363.364-.441,2.761-.82,5.531-1.087,8.314a49.5,49.5,0,0,0-.389,6.022A5.165,5.165,0,0,1,175.847,57a16.3,16.3,0,0,0,.107,3.269c.04.274.144.591-.09.852" transform="translate(-121.444 -28.744)" fill="#5c4d00"/>
            <path id="Trazado_124381" data-name="Trazado 124381" d="M157.881,90.176c.6,1.938,1.325,3.832,2.039,5.729-1.438-.723-2.428-2-3.68-2.962a13.2,13.2,0,0,0-5.479-2.5c-.269-.054-.565.078-.81-.119a47.945,47.945,0,0,1,6.98-.158c.316.014.633.007.95.01" transform="translate(-106.282 -63.867)" fill="#cb223c"/>
            <path id="Trazado_124382" data-name="Trazado 124382" d="M229.957,101.538l2.57-1.615a7.922,7.922,0,0,1,2.053,1.252,9.168,9.168,0,0,0-3.994.378c-.217.052-.423.157-.629-.016" transform="translate(-162.989 -70.823)" fill="#cc233c"/>
            <path id="Trazado_124383" data-name="Trazado 124383" d="M186.585,96.946c-.142-1.748-.119-3.5-.106-5.249,0-.2-.063-.415.1-.586l.337-.012a13.965,13.965,0,0,0,.024,5.953l-.359-.105" transform="translate(-132.165 -64.569)" fill="#c62a3b"/>
            <path id="Trazado_124384" data-name="Trazado 124384" d="M193.791,54.277a15.235,15.235,0,0,1,1.561-5.2,20.361,20.361,0,0,1,3.317-4.6,48.741,48.741,0,0,1,5.214-4.712,34.157,34.157,0,0,0,4.68-4.786c1.249-1.477,2.421-3.013,3.533-4.594.222-.316.375-.269.561.052a3.815,3.815,0,0,1-.278,3.909,12.1,12.1,0,0,1-2.34,2.454c-.243.2-.2.283.082.4a3.552,3.552,0,0,1,1.785,1.368,1.847,1.847,0,0,1-.248,2.212,8.881,8.881,0,0,1-3.257,1.991,29.364,29.364,0,0,1-4.678,1.614,2.134,2.134,0,0,0-.324.185c.768,0,1.386.013,2,0a6.252,6.252,0,0,1,2.08.339c1.283.41,1.568,1.193.844,2.336a6.672,6.672,0,0,1-2.06,1.855,36.238,36.238,0,0,1-5.921,2.987c-1.926.838-3.922,1.488-5.884,2.23l-.67-.039" transform="translate(-137.355 -21.384)" fill="#bab001"/>
            <path id="Trazado_124385" data-name="Trazado 124385" d="M140.388,121.305a30.3,30.3,0,0,1-.391,4.043,12.741,12.741,0,0,0,1,7.347c.335.727.728,1.428,1.07,2.152.388.82.105,1.253-.809,1.214a3.342,3.342,0,0,1-2.387-1.5,17.439,17.439,0,0,1-3.541-8.374,33.357,33.357,0,0,1-.29-4.056,5,5,0,0,1,.873-3.117,2.985,2.985,0,0,1,2.821-.965,2.012,2.012,0,0,1,1.515,1.808,4.924,4.924,0,0,1,.141,1.444" transform="translate(-95.706 -83.633)" fill="#f18793"/>
            <path id="Trazado_124386" data-name="Trazado 124386" d="M164.93,185.317a1.2,1.2,0,0,1-.545,1.082,3.676,3.676,0,0,1-2.308.692,1.219,1.219,0,0,1-1.273-1.325,2.237,2.237,0,0,1,1.238-1.985,2,2,0,0,1,2.25.219,1.487,1.487,0,0,1,.638,1.317" transform="translate(-113.972 -130.084)" fill="#f18793"/>
            <path id="Trazado_124387" data-name="Trazado 124387" d="M260.346,138.759l-26.871-14.454V83.184l26.871,11.2Z" transform="translate(-165.482 -58.959)" fill="#df9e68"/>
            <path id="Trazado_124388" data-name="Trazado 124388" d="M371.958,127.38l-46.21,11.875V94.98l46.21-11.1Z" transform="translate(-230.883 -59.455)" fill="#b06e4c"/>
            <path id="Trazado_124389" data-name="Trazado 124389" d="M306.862,56.8,260.346,67.723,233.475,56.595,279.991,45.67Z" transform="translate(-165.482 -32.37)" fill="#e9b375"/>
            <line id="Línea_196" data-name="Línea 196" x1="46.246" y2="11.037" transform="translate(79.66 18.02)" fill="none" stroke="#b26e4b" stroke-miterlimit="10" stroke-width="1"/>
          </g>
        </g>
      </g>
    </g>
  </g>
</svg>
