<svg xmlns="http://www.w3.org/2000/svg" width="289.509" height="300.5" viewBox="0 0 289.509 300.5">
  <g id="Grupo_87856" data-name="Grupo 87856" transform="translate(9028.254 11092)">
    <path id="Rectángulo_34017" data-name="Rectángulo 34017" d="M0,0H140a77,77,0,0,1,77,77V300.5a0,0,0,0,1,0,0H0a0,0,0,0,1,0,0V0A0,0,0,0,1,0,0Z" transform="translate(-8992 -11092)" fill="#6b8dfc"/>
    <g id="Grupo_80932" data-name="Grupo 80932" transform="translate(-9141.563 -11125.907)">
      <path id="Trazado_114646" data-name="Trazado 114646" d="M274.765,153.931c-1.55,23.991-19.953,46.9-44.875,48.318-28.625,2.193-54.9-13.505-83.415-13.671-14.54-1.247-28.176,4.321-42.345,6.118-32,1.175-36.879-36.434-30.911-60.675C98.39,19.738,276.507,35.287,274.765,153.931Z" transform="translate(84.545 -1.289)" fill="#a6bbff"/>
    </g>
    <g id="Grupo_87380" data-name="Grupo 87380" transform="translate(-9028.254 -11054)">
      <path id="Trazado_121453" data-name="Trazado 121453" d="M54.041,147.994l195.905,4.237,34.49,25.5H94.69Z" transform="translate(-25.506 -69.85)" fill="#db7f2c"/>
      <g id="Grupo_87379" data-name="Grupo 87379">
        <g id="Grupo_87381" data-name="Grupo 87381">
          <path id="Trazado_121454" data-name="Trazado 121454" d="M486.03,90.538c-6.339-3.018-11.862-.734-15.724,3.477a23.212,23.212,0,0,0-5.569,11.293,90.843,90.843,0,0,0,7.789,55.283l-19.8-12.743c-3.376-9.385-6.027-19.137-6.413-29.1s1.606-20.21,6.936-28.642A35.065,35.065,0,0,1,463.866,79.29c.156-.11.3-.2.45-.294.3-.193.606-.367.908-.541a29.344,29.344,0,0,1,25.66-2.083c4.119,1.6,7.88,4.78,9,9.055.908,3.449.055,11.715-13.853,5.11" transform="translate(-210.629 -35.091)" fill="#666665"/>
          <path id="Trazado_121455" data-name="Trazado 121455" d="M303.532,125.391c-14.665,10.42-19.894,24.173-22.8,40.477,27.8,4.1,59.853,2.406,87.932,1.193-2.107-16.4-14.35-36.383-28.542-37.254-6.212,4.151-8.88-.972-16.343-1.323s-13.762.626-20.242-3.093" transform="translate(-132.497 -59.182)" fill="#666665"/>
          <path id="Trazado_121456" data-name="Trazado 121456" d="M97.858,145.794a57.64,57.64,0,0,0-18.966,28.77c3.333,1.041,6.994,1.8,10.059,3.464a53.741,53.741,0,0,0,8.193,3.866,89.767,89.767,0,0,0,41.911,4.052c1.882-.268,20.437-3.76,20.192-5.443a154.613,154.613,0,0,0-10.141-37.129,57.668,57.668,0,0,1-23.567,6.845c-8.223.574-16.079-4.358-23.595-7.453q-2.112,1.419-4.087,3.028" transform="translate(-37.235 -67.382)" fill="#d0cdd3"/>
          <path id="Trazado_121457" data-name="Trazado 121457" d="M94.69,331.6,54.041,299.189v-151.2L94.69,188.712Z" transform="translate(-25.506 -69.85)" fill="#db7f2c"/>
          <path id="Trazado_121458" data-name="Trazado 121458" d="M130.276,161.478l.748,147.177,185.129.641,3.869-147.818Z" transform="translate(-61.841 -46.903)" fill="#f49f4a"/>
          <path id="Trazado_121459" data-name="Trazado 121459" d="M69.184,177.729l-33.53,24.7L0,167.844l28.535-19.85Z" transform="translate(0 -69.85)" fill="#f49f4a"/>
          <path id="Trazado_121460" data-name="Trazado 121460" d="M368.82,66.641A12.194,12.194,0,0,1,367.4,69.1c-4.972,6.816-18.5,13.743-33.816,13.743a37.087,37.087,0,0,1-32.064-17.4c-.229-.376-.44-.743-.642-1.11-3.22-5.936-.211-14.036,3.487-25.981s18.284-20.073,30.87-20.073S362.4,26.4,366.095,38.348s5.348,22.063,2.725,28.293" transform="translate(-141.362 -8.625)" fill="#666665"/>
          <path id="Trazado_121461" data-name="Trazado 121461" d="M369.192,105.872c-4.972,6.816-18.5,13.743-33.816,13.743a37.088,37.088,0,0,1-32.064-17.4c9.569-3.229,18.312-6.385,29.513-5.991a86.622,86.622,0,0,1,36.366,9.651" transform="translate(-143.157 -45.398)" fill="#ededed"/>
          <path id="Trazado_121462" data-name="Trazado 121462" d="M336.943,90.277c1.846-4.169,4.416-8.475,8.737-10.173,4.045-1.589,8.89-.4,12.2,2.361a18.392,18.392,0,0,1,5.948,11.07Z" transform="translate(-159.029 -37.471)" fill="#ededed"/>
          <path id="Trazado_121463" data-name="Trazado 121463" d="M328.942,12.11a40.7,40.7,0,0,0-10.13-11c-.909-.676-2-1.341-3.078-1.041a3.812,3.812,0,0,0-1.94,1.766c-3.36,5.108-5.75,29.821-5.34,36Z" transform="translate(-145.561 0)" fill="#666665"/>
          <path id="Trazado_121464" data-name="Trazado 121464" d="M358.432,99.339c-.333,1.968-2.744,4.663-4.991,1.3a10.4,10.4,0,0,1-1.058-3.7c-.15-.755-1.895-1.038-1.888-.1a6.014,6.014,0,0,1-1.05,3.574q-1.67,2.337-4.792.925a3.963,3.963,0,0,1-.983-2.662c-.051-.563-1.35-.811-1.51-.215-.814,3.043,2.043,4.92,4.762,4.95a4.907,4.907,0,0,0,4.4-2.9,4.365,4.365,0,0,0,3.341,2.85c2.772.416,5.015-.667,5.582-3.6.155-.8-1.687-1.2-1.818-.42" transform="translate(-161.425 -45.425)" fill="#8b8493"/>
          <path id="Trazado_121465" data-name="Trazado 121465" d="M360.806,87.953a2.551,2.551,0,0,0-1.552-1.692,9.173,9.173,0,0,0-8.255.065,2.413,2.413,0,0,0-1.267,1.226,2.3,2.3,0,0,0,.6,2.077,6.321,6.321,0,0,0,9.784.135,2.4,2.4,0,0,0,.693-1.812" transform="translate(-165.029 -40.265)" fill="#383836"/>
          <path id="Trazado_121466" data-name="Trazado 121466" d="M357.046,88.261a7.224,7.224,0,0,0-2.081-.184,4.709,4.709,0,0,0-.907.138,1.54,1.54,0,0,0-1.15.795c-.227.426.265.729.625.817a5.293,5.293,0,0,0,4.039-.63c.554-.337-.2-.859-.526-.936" transform="translate(-166.538 -41.565)" fill="#666665"/>
          <path id="Trazado_121467" data-name="Trazado 121467" d="M365.472,88.665a.993.993,0,0,0-1.26-.291c-.459.311.141.783.47.837.251.041.767.108.859-.24a.35.35,0,0,0-.069-.306" transform="translate(-171.821 -41.653)" fill="#666665"/>
          <path id="Trazado_121468" data-name="Trazado 121468" d="M361.118,105.021a15.227,15.227,0,0,1-.532,1.541,16.265,16.265,0,0,1-2.605,4.376,5.105,5.105,0,0,1-1.825,1.523,1.759,1.759,0,0,0-.211.064c-.119.027-.239.055-.348.082-.028.01-.055.01-.083.018a.871.871,0,0,1-.156.018,2.852,2.852,0,0,1-2.055-.816,6.164,6.164,0,0,1-1.294-1.835c-.073-.147-.147-.294-.211-.45a14.832,14.832,0,0,1-1.184-3.78.786.786,0,0,1,.027-.523.883.883,0,0,1,.578-.331,6.176,6.176,0,0,0,4.128-3.9,7.105,7.105,0,0,0,5.771,4.009" transform="translate(-165.467 -47.675)" fill="#8b8493"/>
          <path id="Trazado_121469" data-name="Trazado 121469" d="M359.889,123.93c-1.738.582-3.613,1.7-5.369.514-.28-.189-.988,0-.6.363,1.854,1.769,4.711,1.069,6.656-.165.6-.384-.258-.853-.682-.711" transform="translate(-166.987 -58.48)" fill="#8b8493"/>
          <path id="Trazado_121470" data-name="Trazado 121470" d="M361.671,111.517a16.275,16.275,0,0,1-2.605,4.376,5.1,5.1,0,0,1-1.826,1.523,1.781,1.781,0,0,0-.211.064c-.119.027-.239.055-.349.083-.027.009-.055.009-.082.018a.871.871,0,0,1-.156.018,2.852,2.852,0,0,1-2.055-.816,6.164,6.164,0,0,1-1.294-1.835c-.073-.147-.147-.294-.211-.449a13.417,13.417,0,0,1,8.789-2.982" transform="translate(-166.552 -52.631)" fill="#ff9cc2"/>
          <path id="Trazado_121471" data-name="Trazado 121471" d="M397.681,73.758a8.454,8.454,0,0,0,1.418-5.924,7.868,7.868,0,0,0-4.827-6.236,7.017,7.017,0,0,0-5.017-.184,7.638,7.638,0,0,0-5.465,7.352,7.758,7.758,0,0,0,13.89,4.993" transform="translate(-181.139 -28.808)" fill="#fff"/>
          <path id="Trazado_121472" data-name="Trazado 121472" d="M397.9,74.107a8.566,8.566,0,0,0,.943-4.966,6.564,6.564,0,0,0-3.208-5.227,3.773,3.773,0,0,0-3.334-.155c-2.432.965-3.554,3.483-3.631,6.162s1.322,5.352,3.371,6.307a4.619,4.619,0,0,0,5.859-2.122" transform="translate(-183.444 -29.944)" fill="#7ad3cf"/>
          <path id="Trazado_121473" data-name="Trazado 121473" d="M399.565,67.359a1.749,1.749,0,0,1,2.154-.127,2.942,2.942,0,0,1,1.135,1.98c.015.031.035.059.049.09.24.549-.4,1.066-.831,1.224-1.363.5-2.3-.522-2.711-1.714a1.314,1.314,0,0,1,.2-1.453" transform="translate(-188.431 -31.586)" fill="#fff"/>
          <path id="Trazado_121474" data-name="Trazado 121474" d="M314.936,73.758a8.807,8.807,0,0,1-1.346-5.924,7.819,7.819,0,0,1,4.582-6.236,6.346,6.346,0,0,1,4.762-.184,7.607,7.607,0,0,1,5.187,7.352,7.944,7.944,0,0,1-4.815,7.525,7.249,7.249,0,0,1-8.37-2.532" transform="translate(-147.98 -28.808)" fill="#fff"/>
          <path id="Trazado_121475" data-name="Trazado 121475" d="M320.871,74.107a8.954,8.954,0,0,1-.9-4.966,6.613,6.613,0,0,1,3.045-5.227,3.421,3.421,0,0,1,3.165-.155c2.309.965,3.373,3.483,3.447,6.162s-1.256,5.352-3.2,6.307a4.284,4.284,0,0,1-5.562-2.122" transform="translate(-151.003 -29.944)" fill="#7ad3cf"/>
          <path id="Trazado_121476" data-name="Trazado 121476" d="M330.038,67.359a1.6,1.6,0,0,1,2.045-.127,2.979,2.979,0,0,1,1.078,1.98c.015.031.034.059.046.09.228.549-.381,1.066-.788,1.224-1.294.5-2.186-.522-2.574-1.714a1.37,1.37,0,0,1,.193-1.453" transform="translate(-155.624 -31.586)" fill="#fff"/>
          <path id="Trazado_121477" data-name="Trazado 121477" d="M342.653,22.5a8.662,8.662,0,0,0-4.147,1.558c-.331.206.4.722.673.573,1.264-.684,2.643-.969,3.933-1.56.422-.193-.235-.578-.459-.571" transform="translate(-159.728 -10.618)" fill="#383836"/>
          <path id="Trazado_121478" data-name="Trazado 121478" d="M383.821,21.514a6.4,6.4,0,0,0-1.237,1.4c-.278.345.516.817.755.539a6.175,6.175,0,0,0,1.188-1.518c.131-.329-.473-.575-.706-.419" transform="translate(-180.544 -10.132)" fill="#383836"/>
          <path id="Trazado_121479" data-name="Trazado 121479" d="M324,4.711c-.071-.172-.564-.312-.475-.053,1.335,3.84,2.053,7.832,3.286,11.682.073.231.805.532.77.158-.379-4-2.059-8.1-3.581-11.788" transform="translate(-152.692 -2.131)" fill="#383836"/>
          <path id="Trazado_121480" data-name="Trazado 121480" d="M324.238,22.577a14.158,14.158,0,0,0-1.368-1.538c-.228-.228-.858-.192-.523.193a15.019,15.019,0,0,1,1.19,1.6,11.87,11.87,0,0,0,1.019,1.523c.15.166.709.324.646-.061a4.351,4.351,0,0,0-.965-1.715" transform="translate(-152.095 -9.863)" fill="#383836"/>
          <path id="Trazado_121481" data-name="Trazado 121481" d="M322.726,23.085c-.011-.27-.648-.535-.673-.2a6.352,6.352,0,0,0,.6,3.541c.106.2.684.374.623.009a26.6,26.6,0,0,1-.554-3.352" transform="translate(-151.989 -10.727)" fill="#383836"/>
          <path id="Trazado_121482" data-name="Trazado 121482" d="M319.621,32.695a9.692,9.692,0,0,0-2.833,3.922c-.144.364.664.761.843.411a22.91,22.91,0,0,1,2.561-3.925c.211-.265-.356-.585-.571-.408" transform="translate(-149.509 -15.407)" fill="#383836"/>
          <path id="Trazado_121483" data-name="Trazado 121483" d="M389.444,15.869a41.756,41.756,0,0,1,10.765-11,4.171,4.171,0,0,1,3.272-1.041A3.975,3.975,0,0,1,405.542,5.6c3.572,5.109,6.111,29.822,5.675,36Z" transform="translate(-183.809 -1.774)" fill="#666665"/>
          <path id="Trazado_121484" data-name="Trazado 121484" d="M407.026,8.011c-2.493,3.74-5.561,7.9-7.025,12.24-.111.329.5.625.686.355,1.324-1.9,2.274-4.157,3.419-6.192,1.154-2.051,2.391-4.048,3.665-6.017.187-.29-.541-.691-.745-.385" transform="translate(-188.785 -3.729)" fill="#383836"/>
          <path id="Trazado_121485" data-name="Trazado 121485" d="M405.7,29.918c-.988,0-2,.18-2.979.28-.62.063.08.778.457.759.435-.022.876-.03,1.318-.043-.05.052-.105.1-.153.153-.268.3.373.7.626.566a13.384,13.384,0,0,0,1.453-.932c.46-.322-.5-.782-.722-.781" transform="translate(-189.961 -14.121)" fill="#383836"/>
          <path id="Trazado_121486" data-name="Trazado 121486" d="M407.278,34.625a5.371,5.371,0,0,0-3.415-1.263c-.655-.074-.208.691.223.74a20.4,20.4,0,0,1,2.881.944c.287.076.586-.129.31-.421" transform="translate(-190.458 -15.744)" fill="#383836"/>
          <path id="Trazado_121487" data-name="Trazado 121487" d="M412.5,43.27a11.678,11.678,0,0,0-2.5-2.814c-1.08-1.112-2.175-2.207-3.27-3.3-.337-.337-1.276-.272-.761.3,1.021,1.132,2.042,2.263,3.079,3.378a14.806,14.806,0,0,0,2.872,2.8c.292.176.781.079.583-.355" transform="translate(-191.534 -17.438)" fill="#383836"/>
          <path id="Trazado_121488" data-name="Trazado 121488" d="M114.553,41a43.837,43.837,0,0,0-13.109-9.429,4.694,4.694,0,0,0-3.65-.548,4.24,4.24,0,0,0-1.951,2.1c-3.08,5.7-2.219,31-.858,37.165Z" transform="translate(-44.247 -14.551)" fill="#666665"/>
          <path id="Trazado_121489" data-name="Trazado 121489" d="M170.519,31.94A43.823,43.823,0,0,1,180.444,19.2a4.691,4.691,0,0,1,3.349-1.553,4.24,4.24,0,0,1,2.462,1.464c4.56,4.6,10.856,29.125,11.284,35.421Z" transform="translate(-80.481 -8.324)" fill="#666665"/>
          <path id="Trazado_121490" data-name="Trazado 121490" d="M95.016,67.193c2.067-12.586,15.877-22.941,28.806-24.8s29.095,4.193,34.621,15.688,8.07,22.179,6.28,28.846c-2.156,8.03-14.009,17.323-31.653,19.857S101.76,102.721,95.962,95.06c-4.166-5.505-3.013-15.281-.946-27.867" transform="translate(-43.965 -19.853)" fill="#d0cdd3"/>
          <path id="Trazado_121491" data-name="Trazado 121491" d="M162.506,123.338c-.05,2.033-2.09,5.1-4.842,2.033a10.583,10.583,0,0,1-1.6-3.577c-.261-.74-2.06-.772-1.918.168a6.131,6.131,0,0,1-.541,3.756q-1.345,2.6-4.7,1.626a4.044,4.044,0,0,1-1.377-2.542c-.133-.56-1.478-.622-1.552,0-.381,3.186,2.772,4.664,5.517,4.3a5,5,0,0,0,4.021-3.56,4.445,4.445,0,0,0,3.781,2.389c2.855.018,4.959-1.4,5.107-4.435.04-.826-1.874-.964-1.895-.16" transform="translate(-68.882 -57.226)" fill="#8b8493"/>
          <path id="Trazado_121492" data-name="Trazado 121492" d="M164.16,137.728a2.053,2.053,0,0,1-1.975-.27c-.339-.286-1.645-.091-1.157.447a3.192,3.192,0,0,0,1.926,1.015,2.275,2.275,0,0,0,2.08-.532c.429-.533-.511-.73-.874-.66" transform="translate(-75.95 -64.815)" fill="#8b8493"/>
          <path id="Trazado_121493" data-name="Trazado 121493" d="M163.2,111.918a2.6,2.6,0,0,0-1.81-1.481,9.34,9.34,0,0,0-8.313,1.261,2.458,2.458,0,0,0-1.1,1.419,2.346,2.346,0,0,0,.9,2.008,6.437,6.437,0,0,0,9.882-1.28,2.443,2.443,0,0,0,.436-1.927" transform="translate(-71.719 -51.904)" fill="#383836"/>
          <path id="Trazado_121494" data-name="Trazado 121494" d="M159.266,113.181a7.352,7.352,0,0,0-2.124.116,4.8,4.8,0,0,0-.894.27,1.568,1.568,0,0,0-1.044.968c-.166.462.372.7.748.733a5.386,5.386,0,0,0,3.98-1.219c.51-.42-.325-.836-.666-.868" transform="translate(-73.238 -53.404)" fill="#666665"/>
          <path id="Trazado_121495" data-name="Trazado 121495" d="M167.72,112.678a1.012,1.012,0,0,0-1.312-.111c-.418.38.255.768.6.776.259.006.788,0,.831-.366a.359.359,0,0,0-.114-.3" transform="translate(-78.478 -53.037)" fill="#666665"/>
          <path id="Trazado_121496" data-name="Trazado 121496" d="M197.143,92.264a8.609,8.609,0,0,0,.572-6.178,8.015,8.015,0,0,0-5.769-5.588,7.144,7.144,0,0,0-5.084.541,7.78,7.78,0,0,0-4.444,8.2,7.9,7.9,0,0,0,14.725,3.022" transform="translate(-86.071 -37.881)" fill="#fff"/>
          <path id="Trazado_121497" data-name="Trazado 121497" d="M195.364,93.219a8.723,8.723,0,0,0,.231-5.142,6.687,6.687,0,0,0-3.99-4.805,3.844,3.844,0,0,0-3.384.327c-2.312,1.325-3.078,4.026-2.769,6.738s2.108,5.2,4.312,5.871a4.7,4.7,0,0,0,5.6-2.988" transform="translate(-87.499 -39.186)" fill="#93c9ea"/>
          <path id="Trazado_121498" data-name="Trazado 121498" d="M191.868,87.1a1.781,1.781,0,0,0-2.19.184,3,3,0,0,0-.858,2.16c-.011.033-.027.065-.036.1-.162.588.559,1.016,1.014,1.114,1.448.312,2.247-.86,2.486-2.12a1.338,1.338,0,0,0-.416-1.436" transform="translate(-89.09 -40.972)" fill="#fff"/>
          <path id="Trazado_121499" data-name="Trazado 121499" d="M111.35,104.6a8.607,8.607,0,0,1-2.287-5.767,8.013,8.013,0,0,1,3.963-6.985,7.147,7.147,0,0,1,5.031-.912,7.779,7.779,0,0,1,6.573,6.62A7.9,7.9,0,0,1,111.35,104.6" transform="translate(-51.474 -42.865)" fill="#fff"/>
          <path id="Trazado_121500" data-name="Trazado 121500" d="M117.536,104.407a8.72,8.72,0,0,1-1.669-4.869,6.686,6.686,0,0,1,2.477-5.734,3.842,3.842,0,0,1,3.339-.638c2.591.621,4.086,3,4.553,5.686s-.558,5.586-2.485,6.846a4.7,4.7,0,0,1-6.214-1.291" transform="translate(-54.682 -43.909)" fill="#7ad3cf"/>
          <path id="Trazado_121501" data-name="Trazado 121501" d="M122.542,97.061a1.781,1.781,0,0,0-2.19.184,3,3,0,0,0-.858,2.16c-.011.033-.027.065-.036.1-.162.588.559,1.016,1.015,1.114,1.447.312,2.246-.86,2.485-2.12a1.338,1.338,0,0,0-.416-1.436" transform="translate(-56.37 -45.671)" fill="#fff"/>
          <path id="Trazado_121502" data-name="Trazado 121502" d="M111.4,43.156a22.626,22.626,0,0,0-9-8.851c-.287-.158-.869.045-.456.35a42.862,42.862,0,0,1,8.537,8.62c.193.249,1.176.37.923-.119" transform="translate(-48.048 -16.166)" fill="#383836"/>
          <path id="Trazado_121503" data-name="Trazado 121503" d="M112.076,51.325a7.092,7.092,0,0,0-6.053-2.015c-.4.087.046.434.228.47a18.041,18.041,0,0,1,2.735.611,25.61,25.61,0,0,1,2.462,1.274c.249.124.975.083.627-.341" transform="translate(-49.964 -23.228)" fill="#383836"/>
          <path id="Trazado_121504" data-name="Trazado 121504" d="M109.646,56.59a8.108,8.108,0,0,0-2.7,1.405c-.621.484-1.835,1.54-1.625,2.406a.583.583,0,0,0,.769.317c.672-.318,1.043-1.221,1.567-1.762a6.392,6.392,0,0,1,2.654-1.59c.71-.225-.21-.914-.67-.776" transform="translate(-49.7 -26.7)" fill="#383836"/>
          <path id="Trazado_121505" data-name="Trazado 121505" d="M188.7,19.314c-2.614,3.5-5.073,8.139-5.294,12.579-.015.317.729.513.849.2.713-1.88,1.128-3.858,1.853-5.742a39.252,39.252,0,0,1,3.422-6.6c.236-.378-.607-.727-.829-.429" transform="translate(-86.562 -9.063)" fill="#383836"/>
          <path id="Trazado_121506" data-name="Trazado 121506" d="M189.541,34.969a10.009,10.009,0,0,0-2.185,1.882,7.765,7.765,0,0,0-1.914,2.483c-.156.419.693.594.933.388a19.079,19.079,0,0,0,1.8-2.115c.652-.754,1.516-1.379,2.1-2.174.257-.349-.489-.594-.733-.463" transform="translate(-87.515 -16.488)" fill="#383836"/>
          <path id="Trazado_121507" data-name="Trazado 121507" d="M192.554,45.184c-.28-.5-.919-.728-1.408-.979-.73-.375-1.491-.7-2.234-1.053-.247-.116-.665-.22-.882.02s.094.529.3.629l1.973.987a4.44,4.44,0,0,0,2,.691c.149-.006.357-.114.257-.295" transform="translate(-88.712 -20.308)" fill="#383836"/>
          <path id="Trazado_121508" data-name="Trazado 121508" d="M199.35,51.281a5.839,5.839,0,0,0-1.863-1.955,11.649,11.649,0,0,0-2.707-1.645c-.4-.158-.974.19-.483.541.763.546,1.583.991,2.327,1.57a26.305,26.305,0,0,0,2.161,1.7c.164.1.714.117.564-.212" transform="translate(-91.615 -22.486)" fill="#383836"/>
          <path id="Trazado_121509" data-name="Trazado 121509" d="M237.2,106.818c-3.536-12.255-18.47-20.91-31.528-21.231s-28.4,7.592-32.531,19.658-5.4,22.975-2.837,29.386c3.087,7.72,15.953,15.552,33.772,15.99s30.613-7.728,35.468-16.019c3.489-5.958,1.192-15.53-2.344-27.784" transform="translate(-79.754 -40.391)" fill="#ededed"/>
          <path id="Trazado_121510" data-name="Trazado 121510" d="M257.3,80.111A43.8,43.8,0,0,1,269.211,69.2a4.691,4.691,0,0,1,3.56-.974,4.231,4.231,0,0,1,2.183,1.853c3.731,5.3,5.858,30.525,5.233,36.8Z" transform="translate(-121.442 -32.159)" fill="#ededed"/>
          <path id="Trazado_121511" data-name="Trazado 121511" d="M237.775,159.184a13.921,13.921,0,0,0-27.608-.927,10.511,10.511,0,0,0,1.817,8.14,12.4,12.4,0,0,0,7.309,3.985,20.956,20.956,0,0,0,11.324-.619,11.139,11.139,0,0,0,5.864-4.294,10.143,10.143,0,0,0,1.293-6.285" transform="translate(-99.12 -69.176)" fill="#d0cdd3"/>
          <path id="Trazado_121512" data-name="Trazado 121512" d="M197.941,78.547a43.827,43.827,0,0,0-11.357-11.48,4.692,4.692,0,0,0-3.508-1.147,4.236,4.236,0,0,0-2.272,1.744c-3.986,5.107-7.348,30.2-7.031,36.5Z" transform="translate(-82.007 -31.084)" fill="#ededed"/>
          <path id="Trazado_121513" data-name="Trazado 121513" d="M220.631,167.954c.289,2.012,2.677,4.816,5.048,1.448a10.6,10.6,0,0,0,1.17-3.741c.172-.765,1.955-1.01,1.925-.059a6.129,6.129,0,0,0,.98,3.666q1.642,2.421,4.857,1.061a4.044,4.044,0,0,0,1.067-2.686c.066-.572,1.394-.793,1.541-.182.753,3.118-2.2,4.958-4.971,4.921a5,5,0,0,1-4.413-3.061,4.446,4.446,0,0,1-3.473,2.818c-2.832.354-5.089-.8-5.593-3.8-.137-.816,1.748-1.179,1.862-.382" transform="translate(-103.25 -77.868)" fill="#8b8493"/>
          <path id="Trazado_121514" data-name="Trazado 121514" d="M233.171,181.562a2.052,2.052,0,0,0,1.929-.5c.3-.324,1.623-.285,1.2.307a3.19,3.19,0,0,1-1.793,1.236,2.276,2.276,0,0,1-2.128-.284c-.489-.479.421-.785.79-.758" transform="translate(-109.612 -85.361)" fill="#8b8493"/>
          <path id="Trazado_121515" data-name="Trazado 121515" d="M236.277,156.382a2.6,2.6,0,0,0-1.623-1.684,9.343,9.343,0,0,0-8.4.273,2.46,2.46,0,0,0-1.26,1.28,2.345,2.345,0,0,0,.661,2.1,6.437,6.437,0,0,0,9.965-.107,2.445,2.445,0,0,0,.66-1.862" transform="translate(-106.159 -72.605)" fill="#383836"/>
          <path id="Trazado_121516" data-name="Trazado 121516" d="M232.422,156.857a7.333,7.333,0,0,0-2.123-.135,4.78,4.78,0,0,0-.919.163,1.568,1.568,0,0,0-1.152.838c-.22.439.288.735.657.816a5.39,5.39,0,0,0,4.1-.742c.556-.357-.224-.869-.559-.94" transform="translate(-107.693 -73.958)" fill="#666665"/>
          <path id="Trazado_121517" data-name="Trazado 121517" d="M240.994,157.1a1.011,1.011,0,0,0-1.29-.265c-.46.328.163.793.5.841.257.036.783.091.869-.266a.357.357,0,0,0-.078-.31" transform="translate(-113.058 -73.961)" fill="#666665"/>
          <path id="Trazado_121518" data-name="Trazado 121518" d="M185.63,141a8.6,8.6,0,0,1-1.3-6.066,8.015,8.015,0,0,1,5.071-6.229,7.143,7.143,0,0,1,5.112-.062,7.779,7.779,0,0,1,5.38,7.621A7.9,7.9,0,0,1,185.63,141" transform="translate(-86.958 -60.509)" fill="#fff"/>
          <path id="Trazado_121519" data-name="Trazado 121519" d="M192.016,141.459a8.715,8.715,0,0,1-.835-5.079,6.685,6.685,0,0,1,3.4-5.242,3.842,3.842,0,0,1,3.4-.074c2.452,1.043,3.531,3.635,3.543,6.364s-1.48,5.415-3.589,6.338a4.7,4.7,0,0,1-5.913-2.307" transform="translate(-90.201 -61.689)" fill="#7ad3cf"/>
          <path id="Trazado_121520" data-name="Trazado 121520" d="M272.252,143.134a8.606,8.606,0,0,0,1.592-6,8.014,8.014,0,0,0-4.759-6.47,7.144,7.144,0,0,0-5.1-.313,7.779,7.779,0,0,0-5.747,7.348,7.9,7.9,0,0,0,14.017,5.431" transform="translate(-121.875 -61.37)" fill="#fff"/>
          <path id="Trazado_121521" data-name="Trazado 121521" d="M270.6,143.39a8.723,8.723,0,0,0,1.083-5.032,6.685,6.685,0,0,0-3.135-5.4,3.844,3.844,0,0,0-3.391-.24c-2.5.921-3.705,3.458-3.851,6.183s1.212,5.482,3.274,6.506a4.7,4.7,0,0,0,6.019-2.014" transform="translate(-123.326 -62.505)" fill="#7ad3cf"/>
          <path id="Trazado_121522" data-name="Trazado 121522" d="M259.431,90.424a9.091,9.091,0,0,1,3.015,1.395c.352.277-.453.695-.717.581-1-.43-1.941-.947-2.964-1.327-.5-.187.323-.749.666-.648" transform="translate(-122.057 -42.672)" fill="#d0cdd3"/>
          <path id="Trazado_121523" data-name="Trazado 121523" d="M211.287,88.7a14.7,14.7,0,0,1,3.027-.9c.525-.095.592.4.126.587a14.917,14.917,0,0,1-3.146.862c-.463.069-.294-.428-.006-.55" transform="translate(-99.59 -41.434)" fill="#d0cdd3"/>
          <path id="Trazado_121524" data-name="Trazado 121524" d="M270.471,81.4a22.625,22.625,0,0,1,7.9-9.85c.266-.192.868-.058.494.294a42.829,42.829,0,0,0-7.461,9.566c-.163.27-1.124.506-.931-.01" transform="translate(-127.644 -33.728)" fill="#d0cdd3"/>
          <path id="Trazado_121525" data-name="Trazado 121525" d="M273.019,89.642a7.092,7.092,0,0,1,5.773-2.715c.411.039.005.436-.171.495a17.975,17.975,0,0,0-2.644.929,25.552,25.552,0,0,0-2.295,1.555c-.232.152-.959.2-.663-.265" transform="translate(-128.826 -41.02)" fill="#d0cdd3"/>
          <path id="Trazado_121526" data-name="Trazado 121526" d="M276.784,94.966a8.106,8.106,0,0,1,2.842,1.078c.674.407,2,1.314,1.9,2.2a.582.582,0,0,1-.727.406c-.7-.237-1.18-1.09-1.764-1.565a6.372,6.372,0,0,0-2.823-1.266c-.731-.14.1-.932.573-.85" transform="translate(-130.229 -44.819)" fill="#d0cdd3"/>
          <path id="Trazado_121527" data-name="Trazado 121527" d="M193.086,67.379c3.008,3.168,6,7.484,6.739,11.867.053.314-.663.6-.819.3-.93-1.783-1.575-3.7-2.517-5.484a39.242,39.242,0,0,0-4.176-6.155c-.278-.347.517-.794.773-.524" transform="translate(-90.74 -31.762)" fill="#d0cdd3"/>
          <path id="Trazado_121528" data-name="Trazado 121528" d="M195.206,82.89A10.016,10.016,0,0,1,197.6,84.5a7.752,7.752,0,0,1,2.193,2.24c.2.4-.618.672-.881.494a19.062,19.062,0,0,1-2.034-1.888c-.736-.672-1.669-1.191-2.343-1.912-.3-.316.416-.647.674-.546" transform="translate(-91.782 -39.114)" fill="#d0cdd3"/>
          <path id="Trazado_121529" data-name="Trazado 121529" d="M193.868,92.984c.218-.533.826-.831,1.283-1.138.681-.459,1.4-.873,2.094-1.309.231-.144.635-.3.878-.084s-.031.535-.219.659l-1.844,1.213a4.432,4.432,0,0,1-1.9.921c-.148.013-.368-.07-.289-.262" transform="translate(-91.494 -42.642)" fill="#d0cdd3"/>
          <path id="Trazado_121530" data-name="Trazado 121530" d="M187.423,99.84a5.834,5.834,0,0,1,1.619-2.161,11.644,11.644,0,0,1,2.494-1.952c.377-.2.99.073.544.48-.693.632-1.455,1.171-2.126,1.834a26.39,26.39,0,0,1-1.946,1.944c-.15.12-.7.2-.586-.144" transform="translate(-88.452 -45.148)" fill="#d0cdd3"/>
          <path id="Trazado_121531" data-name="Trazado 121531" d="M267.093,135.564a1.781,1.781,0,0,0-2.2-.076,3,3,0,0,0-1.107,2.043c-.015.032-.034.061-.048.093-.23.565.436,1.075.876,1.226,1.4.48,2.332-.589,2.718-1.812a1.339,1.339,0,0,0-.243-1.475" transform="translate(-124.458 -63.786)" fill="#fff"/>
          <path id="Trazado_121532" data-name="Trazado 121532" d="M197.077,135.208a1.782,1.782,0,0,0-2.2-.076,3,3,0,0,0-1.107,2.043c-.015.032-.034.061-.048.093-.23.565.436,1.075.876,1.226,1.4.481,2.332-.589,2.719-1.812a1.34,1.34,0,0,0-.243-1.475" transform="translate(-91.412 -63.618)" fill="#fff"/>
          <path id="Trazado_121533" data-name="Trazado 121533" d="M131.025,204.308l23.517,30.048L337.6,232.216l-16.83-27.909Z" transform="translate(-61.841 -96.429)" fill="#ffb66e"/>
          <path id="Trazado_121534" data-name="Trazado 121534" d="M295.927,186.726q-11.751.082-23.485.156-3.014,4.569-6.431,8.853-2.807,3.55-5.9,6.89a59.248,59.248,0,0,1-4.909,4.807,25.5,25.5,0,0,1-10.642,5.871c-2.862.679-6.3.477-8.156-1.816-1.266-1.569-1.458-3.743-1.385-5.761a30.643,30.643,0,0,1,1.238-7.541,40.1,40.1,0,0,1,5.055-10.752,56.891,56.891,0,0,1,7.559-9.137,44.237,44.237,0,0,1,11.5-8.559,27.881,27.881,0,0,1,13.963-2.55c18.715,1.183,22.174,16.522,21.6,19.541" transform="translate(-110.918 -78.877)" fill="#ededed"/>
          <path id="Trazado_121535" data-name="Trazado 121535" d="M106.858,178.383a15.885,15.885,0,0,1-1.56,6.046,6.989,6.989,0,0,1-4.789,3.743c-3.266.532-6.266-2-8.1-4.761a23.043,23.043,0,0,1-3.679-15.348,1.147,1.147,0,0,1,.018-.174c-4.936-.394-10.082-.844-14.293-3.459s-7.055-8.119-5.037-12.642a11.049,11.049,0,0,1,6.073-5.33c8.293-3.44,18.431-.082,24.32,6.688a28.932,28.932,0,0,1,6.027,11.734,38.254,38.254,0,0,1,1.019,13.5" transform="translate(-32.451 -68.48)" fill="#d0cdd3"/>
          <path id="Trazado_121536" data-name="Trazado 121536" d="M124.574,196.071a15.886,15.886,0,0,1-1.56,6.046,6.989,6.989,0,0,1-4.789,3.743c-3.266.532-6.266-2-8.1-4.761a23.043,23.043,0,0,1-3.679-15.348,52.647,52.647,0,0,1,17.11-3.183,38.254,38.254,0,0,1,1.019,13.5" transform="translate(-50.167 -86.167)" fill="#666665"/>
          <path id="Trazado_121537" data-name="Trazado 121537" d="M250.951,80.637c.552-1.478.923-3.181.214-4.591-1.043-2.076-3.788-2.473-6.109-2.572a26.493,26.493,0,0,0-9.015.708c-2.894.9-5.6,2.931-6.537,5.811-1.152,3.525.764,7.638,3.991,9.465a10.981,10.981,0,0,0,10.631-.322,16.155,16.155,0,0,0,6.825-8.5" transform="translate(-108.162 -34.643)" fill="#666665"/>
          <path id="Trazado_121538" data-name="Trazado 121538" d="M428.33,190.8a13.953,13.953,0,0,0-20.1,5.359c-1.509,2.979-1.819,6.814.134,9.522a8.722,8.722,0,0,0,6.239,3.3,18.039,18.039,0,0,0,7.153-1,17.606,17.606,0,0,0,8.145-4.729c2.1-2.388,3.091-5.956,1.759-8.843a8.972,8.972,0,0,0-3.326-3.609" transform="translate(-192.092 -88.978)" fill="#666665"/>
          <path id="Trazado_121539" data-name="Trazado 121539" d="M239.34,94.936a14.179,14.179,0,0,1-2.441-3.788,10.026,10.026,0,0,1-.22-5.049c.068-.467-.865-.542-1.032-.171-1.415,3.157-.242,7.717,2.718,9.594.354.224,1.385-.048.975-.586" transform="translate(-110.938 -40.445)" fill="#383836"/>
          <path id="Trazado_121540" data-name="Trazado 121540" d="M249.233,93.879c-.227-1.441-.287-2.913-.578-4.34-.089-.432-1.034-.439-1.075.026a23.426,23.426,0,0,0,.138,3.808,7.371,7.371,0,0,0,.7,3.463c.168.261.875.346.987-.021a6.45,6.45,0,0,0-.169-2.935" transform="translate(-116.834 -42.108)" fill="#383836"/>
          <path id="Trazado_121541" data-name="Trazado 121541" d="M258.356,87.589c-.036-.579-1.176-.684-1.244-.087-.125,1.1-.211,2.188-.394,3.278a24.356,24.356,0,0,0-.592,3.233c-.018.6,1.054.677,1.3.215.979-1.861,1.06-4.58.932-6.638" transform="translate(-120.885 -41.11)" fill="#383836"/>
          <path id="Trazado_121542" data-name="Trazado 121542" d="M315.771,148.273c-1.035,3.539-2.236,7.071-3,10.681-.095.446.894.566,1.032.171,1.206-3.45,2-7.061,2.944-10.591.136-.512-.851-.7-.979-.261" transform="translate(-147.619 -69.866)" fill="#383836"/>
          <path id="Trazado_121543" data-name="Trazado 121543" d="M392.925,154.729c-.2-.4-1.229-.371-1.02.124,3.363,7.971,5.213,16.2,7.994,24.321.15.438,1.276.53,1.23-.031-.687-8.366-4.442-17.008-8.2-24.415" transform="translate(-184.957 -72.899)" fill="#383836"/>
          <path id="Trazado_121544" data-name="Trazado 121544" d="M392.361,161.829c-.868-.291-1.749-.489-2.639-.695-.5-.117-.89.415-.3.619.859.295,1.7.588,2.589.8.587.139,1.04-.489.345-.723" transform="translate(-183.658 -76.044)" fill="#383836"/>
          <path id="Trazado_121545" data-name="Trazado 121545" d="M424.272,187.767c-4.919-.488-15.219,2.046-15.493,8.222-.017.4.773.448.844.059,1.051-5.746,10.211-6.813,14.751-7.445.689-.1.5-.777-.1-.837" transform="translate(-192.935 -88.594)" fill="#383836"/>
          <path id="Trazado_121546" data-name="Trazado 121546" d="M414.527,204.7c-2.365,2.057-3.78,7.486-1.335,9.94.224.225.887.192.921-.2.125-1.435-.511-2.877-.454-4.364a11.667,11.667,0,0,1,1.776-5.039c.246-.477-.661-.554-.909-.338" transform="translate(-194.415 -96.562)" fill="#383836"/>
          <path id="Trazado_121547" data-name="Trazado 121547" d="M423.55,213.737c-.015-.544-1.136-.63-1.158-.081-.042,1.063-.13,2.116-.263,3.172a18.594,18.594,0,0,0-.469,3.674c.039.5.879.6,1.1.183,1.044-1.953.85-4.794.789-6.948" transform="translate(-199.007 -100.665)" fill="#383836"/>
          <path id="Trazado_121548" data-name="Trazado 121548" d="M437.335,213.717c-.308,1.011-.412,2.068-.722,3.085-.266.873-.909,1.8-.824,2.727a.526.526,0,0,0,.8.294,4.829,4.829,0,0,0,1.424-2.648,9.156,9.156,0,0,0,.563-3.252c-.039-.512-1.081-.735-1.242-.206" transform="translate(-205.679 -100.726)" fill="#383836"/>
          <path id="Trazado_121549" data-name="Trazado 121549" d="M502.955,90.538c-6.339-3.018-11.862-.734-15.724,3.477a24.223,24.223,0,0,1-5.082-15.559,29.344,29.344,0,0,1,25.66-2.083c4.119,1.6,7.88,4.78,9,9.055.908,3.449.055,11.715-13.853,5.11" transform="translate(-227.554 -35.091)" fill="#ededed"/>
          <path id="Trazado_121550" data-name="Trazado 121550" d="M102.752,145.22c-.434-.1-.773.364-.255.535,9.084,3,14.719,9.383,18.2,18.069.249.62,1.685.614,1.51-.184-2.022-9.161-10.536-16.429-19.453-18.421" transform="translate(-48.253 -68.534)" fill="#8b8493"/>
          <path id="Trazado_121551" data-name="Trazado 121551" d="M148.1,161.6a67.834,67.834,0,0,1-16.743-1.086c-.485-.1-.869.4-.287.6a34.587,34.587,0,0,0,17.332,1.447c.922-.18.44-.993-.3-.962" transform="translate(-61.724 -75.753)" fill="#8b8493"/>
          <path id="Trazado_121552" data-name="Trazado 121552" d="M103.437,176.156c-.044-.367-.946-.373-.919.023a28.413,28.413,0,0,0,1.662,8.906c.144.348.9.348.839-.1-.416-2.962-1.221-5.848-1.582-8.827" transform="translate(-48.386 -83.012)" fill="#8b8493"/>
          <path id="Trazado_121553" data-name="Trazado 121553" d="M119.594,215.166a10.724,10.724,0,0,1-3.185-8.8c.021-.4-.81-.521-.921-.153a9.414,9.414,0,0,0,3.045,9.586c.486.408,1.7-.006,1.061-.637" transform="translate(-54.348 -97.226)" fill="#383836"/>
          <path id="Trazado_121554" data-name="Trazado 121554" d="M125.708,214.855c-.315-1.148-.417-2.392-.83-3.5-.161-.432-1.145-.522-1.188.029a11.683,11.683,0,0,0,.452,3.216,6.9,6.9,0,0,0,1.068,3.1c.256.3,1.034.383,1.107-.131a7.149,7.149,0,0,0-.609-2.712" transform="translate(-58.373 -99.586)" fill="#383836"/>
          <path id="Trazado_121555" data-name="Trazado 121555" d="M134.573,208.5c-.1-.565-1.352-.5-1.258.153.4,2.747-.135,5.244-.183,7.964-.01.535,1,.66,1.2.2,1.07-2.523.728-5.685.241-8.315" transform="translate(-62.835 -98.225)" fill="#383836"/>
          <path id="Trazado_121556" data-name="Trazado 121556" d="M278.112,166.629c-12.1-1.242-26.056,9.171-30.629,19.872-.212.5.722.6.952.254a45.4,45.4,0,0,1,12.686-13.3c5.442-3.651,11.134-4.336,17.243-6.009.636-.174.2-.768-.251-.814" transform="translate(-116.792 -78.597)" fill="#d0cdd3"/>
          <path id="Trazado_121557" data-name="Trazado 121557" d="M255.2,235.2a25.5,25.5,0,0,1-10.642,5.872c-2.862.679-6.3.477-8.156-1.817-1.266-1.569-1.458-3.743-1.386-5.761a30.644,30.644,0,0,1,1.239-7.541,15.53,15.53,0,0,1,1.743.422,55.025,55.025,0,0,1,13.238,5.935,27.847,27.847,0,0,1,3.963,2.89" transform="translate(-110.918 -106.644)" fill="#d0cdd3"/>
          <path id="Trazado_121558" data-name="Trazado 121558" d="M310.185,184.965c-1.133,1.491-2.256,2.99-3.305,4.54-1.223,1.806-2.979,3.865-3.567,5.973-.159.57.749.733,1.075.4a26.945,26.945,0,0,0,3.093-4.685q1.855-2.937,3.792-5.824c.315-.468-.807-.775-1.088-.406" transform="translate(-143.148 -87.222)" fill="#d0cdd3"/>
          <path id="Trazado_121559" data-name="Trazado 121559" d="M315.167,195.023a5.931,5.931,0,0,0-1.134-.424c-.4-.137-.807-.251-1.222-.352a.659.659,0,0,0-.626.132.334.334,0,0,0,.158.534,9.875,9.875,0,0,0,2.512.772c.444.047.758-.4.311-.662" transform="translate(-147.305 -91.668)" fill="#d0cdd3"/>
          <path id="Trazado_121560" data-name="Trazado 121560" d="M238.629,233.362c-1.376,2.576-2.253,6.488-.618,9.143.168.274.967.315.958-.113-.028-1.4-.444-2.762-.456-4.186a12.539,12.539,0,0,1,.973-4.616c.172-.439-.671-.577-.857-.229" transform="translate(-111.918 -110.049)" fill="#8b8493"/>
          <path id="Trazado_121561" data-name="Trazado 121561" d="M246.352,237.254c-.462,1.446-.991,2.861-1.585,4.258a13.9,13.9,0,0,0-1.485,3.753c-.043.441.707.473.934.246a10.129,10.129,0,0,0,1.845-3.654,35.47,35.47,0,0,0,1.3-4.436c.1-.426-.88-.557-1-.166" transform="translate(-114.822 -111.868)" fill="#8b8493"/>
          <path id="Trazado_121562" data-name="Trazado 121562" d="M254.827,242.3c-.888.92-1.6,1.984-2.527,2.882a26.48,26.48,0,0,1-3.2,2.467c-.655.466.371.916.836.677a14.093,14.093,0,0,0,3.171-2.349,10.856,10.856,0,0,0,2.644-3.334c.2-.48-.666-.609-.921-.344" transform="translate(-117.468 -114.298)" fill="#8b8493"/>
        </g>
      </g>
    </g>
  </g>
</svg>
