<svg xmlns="http://www.w3.org/2000/svg" xmlns:xlink="http://www.w3.org/1999/xlink" width="89" height="104" viewBox="0 0 89 104">
  <defs>
    <clipPath id="clip-path">
      <rect id="Rect치ngulo_34444" data-name="Rect치ngulo 34444" width="81.191" height="69.069" fill="none"/>
    </clipPath>
  </defs>
  <g id="Grupo_87851" data-name="Grupo 87851" transform="translate(8743 10905)">
    <g id="Grupo_87722" data-name="Grupo 87722" transform="translate(-8739 -10888)">
      <path id="Trazado_121563" data-name="Trazado 121563" d="M47.3,107.235l7.99-7.637H107.82l7.955,7.637Z" transform="translate(-40.732 -85.759)" fill="#db7f2c"/>
      <path id="Trazado_121564" data-name="Trazado 121564" d="M68.862,24.259,63.061,12.1H127.5l-6.116,12.158Z" transform="translate(-54.299 -10.419)" fill="#f49f4a"/>
      <g id="Grupo_87384" data-name="Grupo 87384">
        <g id="Grupo_87383" data-name="Grupo 87383" clip-path="url(#clip-path)">
          <path id="Trazado_121565" data-name="Trazado 121565" d="M410.957,29.179a17.127,17.127,0,0,1,5.277-3.46,1.833,1.833,0,0,1,1.434-.152,1.655,1.655,0,0,1,.726.852c1.106,2.277.342,12.141-.294,14.524Z" transform="translate(-353.854 -21.933)" fill="#eae6d8"/>
          <path id="Trazado_121566" data-name="Trazado 121566" d="M287.94,60.295c-1.808,2.7-7.364,4.639-14.21,3.353s-11.069-5.453-12.246-9.018a6.693,6.693,0,0,1,.237-4.092,39.9,39.9,0,0,1,2.926-6.332c2.354-4.4,8.767-6.483,13.783-5.54.245.047.491.1.739.165,4.776,1.2,9.521,5.3,10.087,10,.594,4.949.187,9.222-1.317,11.462" transform="translate(-224.957 -33.1)" fill="#eae6d8"/>
          <path id="Trazado_121567" data-name="Trazado 121567" d="M396.032,100.74a4.371,4.371,0,0,0-4.019,1.072c-1.17,1.249-1.2,3.206-.729,4.851a6.005,6.005,0,0,0,2.556,3.649,4.573,4.573,0,0,0,5.31-.734,5.1,5.1,0,0,0,1.123-5.322,5.767,5.767,0,0,0-4.241-3.516" transform="translate(-336.669 -86.655)" fill="#d6812d"/>
          <path id="Trazado_121568" data-name="Trazado 121568" d="M341.941,157.68c-.275.745-1.416,1.622-2.047.141a4.139,4.139,0,0,1-.142-1.525c0-.306-.665-.545-.731-.18a2.4,2.4,0,0,1-.674,1.321,1.391,1.391,0,0,1-1.943.009,1.58,1.58,0,0,1-.189-1.114c.022-.224-.468-.417-.574-.2-.543,1.13.437,2.075,1.5,2.286a1.952,1.952,0,0,0,1.936-.81,1.738,1.738,0,0,0,1.1,1.36,1.759,1.759,0,0,0,2.448-1c.119-.3-.572-.593-.68-.3" transform="translate(-288.871 -134.264)" fill="#c9c1a9"/>
          <path id="Trazado_121569" data-name="Trazado 121569" d="M353.928,178.641c-.3-.041-.531-.073-.7-.349-.089-.149-.6-.241-.485.019a1.248,1.248,0,0,0,.585.619.889.889,0,0,0,.836.065c.226-.143-.1-.334-.24-.354" transform="translate(-303.719 -153.393)" fill="#c9c1a9"/>
          <path id="Trazado_121570" data-name="Trazado 121570" d="M354.637,140.982a1.015,1.015,0,0,0-.483-.776,3.651,3.651,0,0,0-3.234-.582.961.961,0,0,0-.586.386.917.917,0,0,0,.081.856,2.515,2.515,0,0,0,3.817.773.955.955,0,0,0,.4-.658" transform="translate(-301.59 -120.092)" fill="#4c3936"/>
          <path id="Trazado_121571" data-name="Trazado 121571" d="M356.84,143.259a2.867,2.867,0,0,0-.8-.225,1.87,1.87,0,0,0-.365-.013.613.613,0,0,0-.508.226c-.12.15.05.3.184.365a2.106,2.106,0,0,0,1.626.051c.241-.091-.015-.35-.137-.4" transform="translate(-305.78 -123.145)" fill="#a88d87"/>
          <path id="Trazado_121572" data-name="Trazado 121572" d="M372.684,145.893a.4.4,0,0,0-.471-.206c-.2.088,0,.316.122.362.1.035.292.1.354-.031a.139.139,0,0,0,0-.125" transform="translate(-320.419 -125.423)" fill="#a88d87"/>
          <path id="Trazado_121573" data-name="Trazado 121573" d="M407.2,119.215A3.364,3.364,0,0,0,408.19,117a3.132,3.132,0,0,0-1.429-2.794,2.793,2.793,0,0,0-1.949-.441,3.04,3.04,0,0,0-2.678,2.473,3.088,3.088,0,0,0,5.065,2.975" transform="translate(-346.197 -97.937)" fill="#fff"/>
          <path id="Trazado_121574" data-name="Trazado 121574" d="M409.913,121.44a3.408,3.408,0,0,0,.734-1.873,2.613,2.613,0,0,0-.87-2.28,1.5,1.5,0,0,0-1.293-.306,2.556,2.556,0,0,0-1.874,2.143,2.719,2.719,0,0,0,.854,2.715,1.838,1.838,0,0,0,2.448-.4" transform="translate(-350.052 -100.696)" fill="#934d14"/>
          <path id="Trazado_121575" data-name="Trazado 121575" d="M415.187,121.99a.7.7,0,0,0-.833-.208,1.171,1.171,0,0,0-.59.69c-.008.011-.018.021-.026.032-.134.2.079.446.235.54.5.3.939-.035,1.187-.471a.523.523,0,0,0,.027-.583" transform="translate(-356.212 -104.81)" fill="#fff"/>
          <path id="Trazado_121576" data-name="Trazado 121576" d="M433.29,27.445a9.626,9.626,0,0,0-3.544,3.985c-.046.115.2.282.289.18.5-.606.9-1.285,1.41-1.89a15.326,15.326,0,0,1,2.1-2.011c.135-.11-.133-.345-.253-.263" transform="translate(-370.027 -23.617)" fill="#c9c1a9"/>
          <path id="Trazado_121577" data-name="Trazado 121577" d="M434.567,49.352a3.921,3.921,0,0,0-1.045.42,3.032,3.032,0,0,0-1.021.677c-.111.135.181.307.3.261a7.479,7.479,0,0,0,.932-.555c.336-.2.735-.319,1.052-.539.139-.1-.106-.282-.213-.264" transform="translate(-372.382 -42.493)" fill="#c9c1a9"/>
          <path id="Trazado_121578" data-name="Trazado 121578" d="M437.422,59.757c-.04-.221-.248-.385-.4-.54-.223-.231-.463-.448-.693-.671-.077-.074-.218-.165-.329-.1s-.032.207.03.27l.605.614a1.734,1.734,0,0,0,.652.507c.056.017.147,0,.132-.077" transform="translate(-375.372 -50.304)" fill="#c9c1a9"/>
          <path id="Trazado_121579" data-name="Trazado 121579" d="M443.928,69.83a2.28,2.28,0,0,0-.442-.958,4.55,4.55,0,0,0-.794-.95c-.127-.109-.384-.053-.247.139.213.3.46.566.663.874a10.24,10.24,0,0,0,.585.9c.048.058.249.133.236-.007" transform="translate(-380.933 -58.437)" fill="#c9c1a9"/>
          <path id="Trazado_121580" data-name="Trazado 121580" d="M282.031,38.83a18.794,18.794,0,0,1-17.448,11.708,39.874,39.874,0,0,1,2.926-6.332c2.354-4.4,8.767-6.483,13.783-5.54.246.048.491.1.739.165" transform="translate(-227.819 -33.101)" fill="#514341"/>
          <path id="Trazado_121581" data-name="Trazado 121581" d="M294.295,97.922a3.364,3.364,0,0,1-.119-2.421,3.132,3.132,0,0,1,2.347-2.084,2.793,2.793,0,0,1,1.976.3,3.04,3.04,0,0,1,1.6,3.277,3.088,3.088,0,0,1-5.8.931" transform="translate(-253.155 -80.381)" fill="#fff"/>
          <path id="Trazado_121582" data-name="Trazado 121582" d="M304.173,101.513a3.407,3.407,0,0,1,0-2.011,2.612,2.612,0,0,1,1.639-1.808,1.5,1.5,0,0,1,1.315.185,2.556,2.556,0,0,1,.967,2.677,2.719,2.719,0,0,1-1.782,2.219,1.838,1.838,0,0,1-2.136-1.261" transform="translate(-261.775 -84.054)" fill="#934d14"/>
          <path id="Trazado_121583" data-name="Trazado 121583" d="M312.981,102.76a.7.7,0,0,0-.833-.208,1.171,1.171,0,0,0-.59.69c-.008.011-.018.021-.026.032-.134.2.079.446.235.54.5.3.939-.035,1.187-.471a.523.523,0,0,0,.027-.583" transform="translate(-268.207 -88.252)" fill="#fff"/>
          <path id="Trazado_121584" data-name="Trazado 121584" d="M288.128,5.805A17.126,17.126,0,0,0,284.469.664,1.834,1.834,0,0,0,283.187,0a1.656,1.656,0,0,0-.986.53c-1.858,1.719-4.731,11.187-5,13.638Z" transform="translate(-238.68 0)" fill="#514341"/>
          <path id="Trazado_121585" data-name="Trazado 121585" d="M343.681,40.338a3.553,3.553,0,0,0-1.266.287c-.157.077.116.3.227.281.416-.083.819-.2,1.241-.265.207-.03-.062-.313-.2-.3" transform="translate(-294.795 -34.733)" fill="#352927"/>
          <path id="Trazado_121586" data-name="Trazado 121586" d="M321.649,9.2a8.842,8.842,0,0,0-2.214-4.409c-.086-.095-.327-.093-.213.072a16.737,16.737,0,0,1,2.07,4.265c.04.116.388.285.357.072" transform="translate(-274.84 -4.069)" fill="#352927"/>
          <path id="Trazado_121587" data-name="Trazado 121587" d="M319.77,29.369a2.772,2.772,0,0,0-1.984-1.509c-.16-.019-.038.166.025.2a7.038,7.038,0,0,1,.934.571,9.981,9.981,0,0,1,.75.782c.076.077.35.154.275-.047" transform="translate(-273.561 -23.988)" fill="#352927"/>
          <path id="Trazado_121588" data-name="Trazado 121588" d="M312.28,41.518a3.171,3.171,0,0,0-1.174.18c-.291.1-.873.338-.9.685a.228.228,0,0,0,.245.214c.289-.033.54-.32.8-.454a2.5,2.5,0,0,1,1.182-.253c.291.006.038-.364-.15-.371" transform="translate(-267.098 -35.747)" fill="#352927"/>
          <path id="Trazado_121589" data-name="Trazado 121589" d="M47.3,154.557l.932,47.593h66.587l.952-47.593Z" transform="translate(-40.732 -133.081)" fill="#f49f4a"/>
          <path id="Trazado_121590" data-name="Trazado 121590" d="M6.573,154.557,0,164.906H81.191l-6.147-10.348Z" transform="translate(0 -133.081)" fill="#ffb66e"/>
          <path id="Trazado_121591" data-name="Trazado 121591" d="M171.153,122.457a4.507,4.507,0,0,0-2.51,2.721,8.366,8.366,0,0,0-.326,3.772,4.07,4.07,0,0,0,1.182,2.785,2.851,2.851,0,0,0,2.966.254,4.687,4.687,0,0,0,2.11-2.245,13.947,13.947,0,0,0,.937-2.991l2.618-.092a5.321,5.321,0,0,0-2.358-3.886,4.954,4.954,0,0,0-4.62-.318" transform="translate(-144.865 -105.081)" fill="#514341"/>
          <path id="Trazado_121592" data-name="Trazado 121592" d="M177.037,168.747a11.41,11.41,0,0,1-.747-1.674,4.4,4.4,0,0,1,.11-2.539c.059-.179-.286-.244-.347-.093a4.118,4.118,0,0,0,.641,4.418c.082.077.422.057.344-.113" transform="translate(-151.286 -141.52)" fill="#352927"/>
          <path id="Trazado_121593" data-name="Trazado 121593" d="M187.459,171.459c0-.178-.369-.206-.378-.026a11.579,11.579,0,0,0-.043,2.774c.034.166.346.143.383-.009a11.442,11.442,0,0,0,.039-2.738" transform="translate(-160.981 -147.507)" fill="#352927"/>
          <path id="Trazado_121594" data-name="Trazado 121594" d="M197.064,173.61c-.023-.125-.3-.146-.34-.024-.124.4-.144.817-.269,1.219a8.633,8.633,0,0,0-.478,1.18c-.023.152.231.139.3.08a3.167,3.167,0,0,0,.782-2.455" transform="translate(-168.745 -149.396)" fill="#352927"/>
          <path id="Trazado_121595" data-name="Trazado 121595" d="M218.03,143.984a5,5,0,0,0-.206-.986c-.034-.084-.214-.1-.228.006a7.879,7.879,0,0,0,.214,1.873c.032.112.294.127.3-.007a4.461,4.461,0,0,0-.077-.886" transform="translate(-187.349 -123.07)" fill="#352927"/>
        </g>
      </g>
    </g>
    <rect id="Rect치ngulo_35855" data-name="Rect치ngulo 35855" width="89" height="104" transform="translate(-8743 -10905)" fill="none"/>
  </g>
</svg>
