<svg xmlns="http://www.w3.org/2000/svg" xmlns:xlink="http://www.w3.org/1999/xlink" width="190" height="243" viewBox="0 0 190 243">
  <defs>
    <clipPath id="clip-path">
      <rect id="Rectángulo_35979" data-name="Rectángulo 35979" width="190" height="170.454" fill="none"/>
    </clipPath>
  </defs>
  <g id="Grupo_88141" data-name="Grupo 88141" transform="translate(-810 -1501)">
    <g id="Grupo_88129" data-name="Grupo 88129">
      <g id="Grupo_87695" data-name="Grupo 87695" transform="translate(-217 549.113)">
        <g id="Grupo_87397" data-name="Grupo 87397" transform="translate(0 45.434)">
          <path id="Rectángulo_34437" data-name="Rectángulo 34437" d="M0,0H96a77,77,0,0,1,77,77V184.116a0,0,0,0,1,0,0H0a0,0,0,0,1,0,0V0A0,0,0,0,1,0,0Z" transform="translate(1033 954.362)" fill="#a6bbff"/>
          <g id="Grupo_87372" data-name="Grupo 87372" transform="translate(1039.834 955.577)">
            <path id="Trazado_114646" data-name="Trazado 114646" d="M151.4,72.681c-1.152,17.828-14.827,34.849-33.347,35.905-21.272,1.63-40.8-10.036-61.986-10.159-10.8-.926-20.938,3.211-31.467,4.547C.823,103.846-2.8,75.9,1.635,57.886,20.34-27.038,152.7-15.484,151.4,72.681Z" transform="translate(1.291 13.295)" fill="#e1e8ff"/>
          </g>
        </g>
      </g>
      <g id="Grupo_88128" data-name="Grupo 88128" transform="translate(810 1553.128)">
        <g id="Grupo_88122" data-name="Grupo 88122" clip-path="url(#clip-path)">
          <path id="Trazado_124935" data-name="Trazado 124935" d="M36.826,242.334c0-1.526,8.272-2.762,18.476-2.762s18.476,1.236,18.476,2.762a.593.593,0,0,1-.2.406l.226.2c-.609.669-2.943,1.228-6.938,1.661-3.083.334-7.079.577-10.965.668l0-.18-.595,0c-3.734,0-7.207-.166-10.113-.451l-.014.179a37.5,37.5,0,0,1-7.611-1.518l.058-.169c-.516-.254-.8-.524-.8-.8" transform="translate(90.871 -74.82)" fill="#70492a"/>
          <path id="Trazado_124936" data-name="Trazado 124936" d="M64.44,77.787c-.649,4.05-3.064,25.353-3.32,29.4-.228,4.04-.376,8.084-.4,12.138-.012,2.027.018,4.057.123,6.1l.19,3.024.164,3.015c.2,4.024.359,8.054.5,12.085s.268,8.063.369,12.093c.048,2.013.1,4.033.11,6.03l-.047,6.028-.2,24.234,2.7-.009-.2-24.2-.053-6.081c-.048-2.038-.129-4.053-.212-6.073q-.255-6.057-.572-12.106c-.211-4.034-.438-8.067-.706-12.1l-.215-3.027-.24-3.014c-.136-1.987-.2-3.995-.222-6-.044-4.018.036-8.047.2-12.069.185-4.013,2.19-25.525,2.753-29.459Z" transform="translate(83.091 -24.294)" fill="#424e2a"/>
          <path id="Trazado_124937" data-name="Trazado 124937" d="M53.615,140.884l-1.287.972-.644.486-.611.527-1.217,1.059-1.147,1.133-.573.569-.538.6-1.071,1.206c-.658.849-1.363,1.666-1.963,2.558a45.474,45.474,0,0,0-3.379,5.486,51.884,51.884,0,0,0-2.657,5.869,56.6,56.6,0,0,0-1.967,6.138c-.532,2.083-.968,4.175-1.406,6.265s-.86,4.179-1.34,6.246c-.241,1.033-.494,2.062-.8,3.062a15.227,15.227,0,0,1-.509,1.461,4.84,4.84,0,0,1-.314.662,2.032,2.032,0,0,1-.175.288c-.063.07-.122.142-.179.217l.713.81c.115-.129.227-.261.336-.4a2.952,2.952,0,0,0,.237-.394,5.831,5.831,0,0,0,.364-.785,16.223,16.223,0,0,0,.527-1.565c.307-1.044.552-2.09.785-3.137.463-2.094.865-4.191,1.279-6.283s.829-4.182,1.331-6.239a55.774,55.774,0,0,1,1.875-6.065,51.112,51.112,0,0,1,2.558-5.812,44.679,44.679,0,0,1,3.271-5.438c.582-.886,1.267-1.694,1.906-2.539l1.042-1.2.523-.6.557-.565,1.117-1.127,1.186-1.055.6-.525.628-.485,1.256-.97Z" transform="translate(114.177 -43.999)" fill="#424e2a"/>
          <path id="Trazado_124938" data-name="Trazado 124938" d="M82.919,173.678a46.429,46.429,0,0,0-3.306-9.842c-1.384-3.143-2.974-6.179-4.652-9.159s-3.479-5.89-5.42-8.707l-1.492-2.089c-.526-.677-1.035-1.365-1.575-2.031-.566-.648-1.078-1.334-1.7-1.942-.3-.307-.584-.633-.909-.922l-.994-.851-.325.43.925.835c.3.285.571.615.858.92.584.6,1.075,1.3,1.613,1.948.514.67,1,1.366,1.5,2.047l1.422,2.107c1.851,2.842,3.553,5.781,5.146,8.774s3.079,6.044,4.358,9.172a45.141,45.141,0,0,1,2.947,9.564Z" transform="translate(64.066 -43.141)" fill="#424e2a"/>
          <path id="Trazado_124939" data-name="Trazado 124939" d="M57.584,181.112c.019-.075,1.913-7.508,4.362-11.5l-.69-.423c-2.514,4.1-4.379,11.419-4.457,11.729Z" transform="translate(88.994 -52.838)" fill="#424e2a"/>
          <path id="Trazado_124940" data-name="Trazado 124940" d="M55.343,146.3c2.881-4.512,4.513-9.984,4.513-13.44s-1.344-11.616-8.256-12.1-7.968,6.336-8.353,8.448,1.727,8.544,2.881,9.312,2.687.864,3.072,1.536.1,2.112.383,2.784,2.067.384,1.945,1.536.072,2.5.647,2.592a16.131,16.131,0,0,0,3.168-.672" transform="translate(100.436 -37.708)" fill="#424e2a"/>
          <path id="Trazado_124941" data-name="Trazado 124941" d="M53.347,148.015c1.144-7.246-1.129-19.909-1.153-20.036l-.4.073c.023.127,2.284,12.722,1.151,19.9Z" transform="translate(100.711 -39.969)" fill="#353d22"/>
          <path id="Trazado_124942" data-name="Trazado 124942" d="M119.916,140.122c1.265,1.789,1.056,12.768-1.632,15.36s-3.456.96-4.7,1.44a4.365,4.365,0,0,1-4.8-1.632c-1.056-1.728-4.128-2.688-3.072-7.776s8.639-15.264,14.208-7.392" transform="translate(-3.209 -42.86)" fill="#424e2a"/>
          <path id="Trazado_124943" data-name="Trazado 124943" d="M96.285,126.445c3.168-3.264,7.2-8.64,7.872-13.248s-1.728-7.68-3.264-7.968-2.256-3.929-6.72-4.8c-3.936-.768-4.416.672-5.376.768s-3.744-1.44-7.488,2.3-3.36,9.216-2.592,11.52,7.776,11.984,10.176,12.424,7.392-1,7.392-1" transform="translate(31.942 -31.295)" fill="#5b754b"/>
          <path id="Trazado_124944" data-name="Trazado 124944" d="M98.478,130.107l.093-.394c-.012,0-1.47-.44-1.38-4.31.052-2.221-.806-5.213-1.635-8.106A25.892,25.892,0,0,1,94.215,111l-.4-.012a26.02,26.02,0,0,0,1.356,6.416c.821,2.866,1.67,5.827,1.62,7.985-.1,4.243,1.619,4.7,1.692,4.713" transform="translate(26.918 -34.664)" fill="#4c6040"/>
          <path id="Trazado_124945" data-name="Trazado 124945" d="M89.5,118.041c2.991-1.661,5.986-6.093,6.111-6.28l-.336-.226c-.03.045-3.067,4.538-5.972,6.151Z" transform="translate(32.977 -34.833)" fill="#4c6040"/>
          <path id="Trazado_124946" data-name="Trazado 124946" d="M105.892,120.057l.04-.4c-3.071-.3-7.7-4.771-7.741-4.815l-.283.29c.193.188,4.774,4.612,7.984,4.928" transform="translate(16.738 -35.865)" fill="#4c6040"/>
          <path id="Trazado_124947" data-name="Trazado 124947" d="M87.014,126.137c1.877-.494,4.6-3.187,5.314-4.617l-.362-.182c-.666,1.335-3.305,3.947-5.055,4.408Z" transform="translate(37.904 -37.895)" fill="#4c6040"/>
          <path id="Trazado_124948" data-name="Trazado 124948" d="M108.1,126.143l.069-.4c-2.385-.416-7.51-2.451-8.395-4.4l-.369.168c1.014,2.233,6.554,4.256,8.694,4.627" transform="translate(13.465 -37.898)" fill="#4c6040"/>
          <path id="Trazado_124949" data-name="Trazado 124949" d="M37.958,134.737c2.784-3.744,5.088-12.869,4.9-17.282s-2.3-4.318-2.976-4.318-.864-1.344-2.688-1.439a3.867,3.867,0,0,0-3.744,3.108c-.384,1.692.192,2.844-.576,3.612a6.182,6.182,0,0,0-1.824,4.512c.1,2.113,3.264,7.488,4.224,8.833a25.813,25.813,0,0,0,2.688,2.976" transform="translate(125.788 -34.883)" fill="#5b754b"/>
          <path id="Trazado_124950" data-name="Trazado 124950" d="M37.794,135.1c.961-3.846.693-13.543,0-16.571l-.394.091c.684,2.994.951,12.581,0,16.381Z" transform="translate(125.861 -37.016)" fill="#4c6040"/>
          <path id="Trazado_124951" data-name="Trazado 124951" d="M78.613,94.121c-1.247-1.952-5.938-4.31-7.666-5.174s-2.4-4.032-4.608-5.088-4.9-5.088-3.072-8.352,8.064-1.056,10.847,1.92,7.188,9.974,4.5,16.694" transform="translate(67.456 -23.076)" fill="#5b754b"/>
          <path id="Trazado_124952" data-name="Trazado 124952" d="M0,151.1c3.789.052,6.477.34,9.741-.812s8.64,0,11.232,1.344,3.264,4.032,3.552,5.184,1.824,2.208,2.5,3.456a3.068,3.068,0,0,1-1.248,3.744c-1.056.384-.576,2.016-1.728,2.5s-2.784,0-4.032,1.344a4.23,4.23,0,0,1-4.992.576c-1.344-.864-2.4-3.168-4.992-3.36s-8.407-3.456-9-6.144S0,151.1,0,151.1" transform="translate(162.741 -46.79)" fill="#5b754b"/>
          <path id="Trazado_124953" data-name="Trazado 124953" d="M28.392,165.03l.334-.229c-2.369-3.455-8.245-6.9-11.248-7.752a46.2,46.2,0,0,1-8.641-3.44l-.22.34a46.068,46.068,0,0,0,8.75,3.489c2.947.836,8.706,4.209,11.024,7.591" transform="translate(155.348 -47.974)" fill="#4c6040"/>
          <path id="Trazado_124954" data-name="Trazado 124954" d="M35.637,106.029c4.032-3.264,9.126-7.457,17.427-7.424s-4.755-3.424-5.523-3.52-1.248,1.247-2.5,1.056-2.016-1.727-4.513-.576-4.9,6.816-4.9,10.464" transform="translate(109.678 -29.694)" fill="#5b754b"/>
          <path id="Trazado_124955" data-name="Trazado 124955" d="M98.751,71.293c-2.5-2.208-3.072-2.5-6.816-3.359s-8.736-1.92-12,0-3.12,4.128-3.12,4.128a4.821,4.821,0,0,0-3.024,4.993c.288,3.84,2.1,5.389,4.412,4.663a74.851,74.851,0,0,0,7.3-3.224c1.056-.48,1.536-2.3,4.032-3.071s9.216-4.129,9.216-4.129" transform="translate(40.516 -20.879)" fill="#6e8e5b"/>
          <path id="Trazado_124956" data-name="Trazado 124956" d="M76.959,76.745c1.661-1.993,8.391-5.758,17.566-3.962l.078-.4c-9.352-1.829-16.245,2.05-17.954,4.1Z" transform="translate(42.688 -22.458)" fill="#5e7f33"/>
          <path id="Trazado_124957" data-name="Trazado 124957" d="M95.436,71.7l.171-.367a12.634,12.634,0,0,0-8.656-.985l.108.39a12.229,12.229,0,0,1,8.377.961" transform="translate(34.598 -21.858)" fill="#5e7f33"/>
          <path id="Trazado_124958" data-name="Trazado 124958" d="M89.846,78.8c.028-.046,2.893-4.671,4.564-5.391l-.16-.372c-1.787.772-4.627,5.357-4.748,5.552Z" transform="translate(34.042 -22.811)" fill="#5e7f33"/>
          <path id="Trazado_124959" data-name="Trazado 124959" d="M97.335,81.1a9.982,9.982,0,0,1,2.778-3.724l-.263-.309a10.348,10.348,0,0,0-2.881,3.86Z" transform="translate(23.203 -24.068)" fill="#5e7f33"/>
          <path id="Trazado_124960" data-name="Trazado 124960" d="M27.426,62.3c-.768-3.031-3.456-10.231-2.592-14.166s1.853-4.128,3.134-4.7c0,0-.926-3.36.514-4.608s5.088-1.44,6.048-1.152,2.3,1.056,3.264.672.576-2.88,2.207-4.032a6.9,6.9,0,0,1,5.705-.768A42.566,42.566,0,0,1,54.114,36.8c1.056.768.48,1.632-.672,2.208S45.96,42.181,44.373,44.1s-6.195,5.472-8.018,7.776-7.488,10.848-7.488,10.848Z" transform="translate(118.368 -10.39)" fill="#5b754b"/>
          <path id="Trazado_124961" data-name="Trazado 124961" d="M44.284,51.87l.4-.053c-.42-3.2,1.063-6.146,2.569-8.6L46.909,43c-1.543,2.518-3.061,5.541-2.626,8.868" transform="translate(112.345 -13.43)" fill="#4c6040"/>
          <path id="Trazado_124962" data-name="Trazado 124962" d="M57.595,63.422l.4-.03A89.57,89.57,0,0,1,58.573,52.1l-.4-.051a90.34,90.34,0,0,0-.577,11.368" transform="translate(91.839 -16.257)" fill="#4c6040"/>
          <path id="Trazado_124963" data-name="Trazado 124963" d="M42.652,153.077c1.824-1.439,3.648-2.3,5.856-1.056s.576,3.665,1.727,4.041,3.891,2.934,3.84,5.655a6.82,6.82,0,0,1-4.032,6.24c-2.592,1.247-2.507,2.593-9.606,1.727s-11.418-2.208-11.9-7.3.192-6.24,3.84-7.584,5.409-4.984,6.633-4.984c1.5,0,3.639,3.256,3.639,3.256" transform="translate(116.391 -46.79)" fill="#6e8e5b"/>
          <path id="Trazado_124964" data-name="Trazado 124964" d="M43.871,170.269c2.031-2.355,2.817-10.46,1.839-14.389l-.393.1c.958,3.846.213,11.75-1.753,14.027Z" transform="translate(113.913 -48.683)" fill="#5e7f33"/>
          <path id="Trazado_124965" data-name="Trazado 124965" d="M85.69,145.477c1.442.239,3.081-2.112,6.633-1.632s7.584,3.456,5.856,9.888-5.76,8.352-7.872,8.928-3.552-1.632-5.376-1.344-2.02,1.056-5.09.48-7.041-4.608-6.64-10.08,3.856-7.169,6.64-7.937,4.689,1.5,5.85,1.7" transform="translate(41.088 -44.855)" fill="#5b754b"/>
          <path id="Trazado_124966" data-name="Trazado 124966" d="M91.561,161.3l.4-.008c-.015-.765-.039-1.567-.065-2.385-.134-4.331-.285-9.24.982-11.13l-.336-.226c-1.34,2-1.186,6.977-1.05,11.368.025.816.05,1.617.065,2.381" transform="translate(34.256 -46.081)" fill="#4c6040"/>
          <path id="Trazado_124967" data-name="Trazado 124967" d="M87.854,150.761l.261-.31a9.79,9.79,0,0,0-6.294-2.2l.04.4a9.324,9.324,0,0,1,5.994,2.109" transform="translate(45.619 -46.292)" fill="#4c6040"/>
          <path id="Trazado_124968" data-name="Trazado 124968" d="M88.18,159.31l.37-.164c-.8-1.807-4.207-4.341-7.508-4.055l.036.4a8.021,8.021,0,0,1,7.1,3.816" transform="translate(45.718 -48.429)" fill="#4c6040"/>
          <path id="Trazado_124969" data-name="Trazado 124969" d="M93.541,151.158c1.512-1.714,2.783-2.815,6.594-2.547l.029-.4c-3.979-.287-5.383.933-6.926,2.683Z" transform="translate(25.717 -46.274)" fill="#4c6040"/>
          <path id="Trazado_124970" data-name="Trazado 124970" d="M95.1,160.239a5.906,5.906,0,0,1,5.949-4.769l.006-.4h-.124a6.291,6.291,0,0,0-6.222,5.07Z" transform="translate(23.814 -48.428)" fill="#4c6040"/>
          <path id="Trazado_124971" data-name="Trazado 124971" d="M124.071,137.482c-1.44-3.552-7.008-7.245-9.983-6.861s-9.408-.96-11.424-1.056-3.168,1.152-4.128,1.248-1.92-1.153-3.168.287-1.056,1.633-4.224,3.264-2.976,6.24-1.728,8.736,3.938,3.792,5.952,3.168,3.264-1.536,4.9-1.056,3.472,1.6,7.776-1.327c4.222-2.872,1.04-6.871,16.031-6.4" transform="translate(5.019 -40.463)" fill="#6e8e5b"/>
          <path id="Trazado_124972" data-name="Trazado 124972" d="M91.039,141.076c3.843-1.676,17.648-4.927,27.426-2.663l.091-.394c-9.873-2.286-23.8,1-27.678,2.687Z" transform="translate(8.948 -42.86)" fill="#5e7f33"/>
          <path id="Trazado_124973" data-name="Trazado 124973" d="M108.916,136.252l.241-.325a21.333,21.333,0,0,0-5.346-2.715c-.27-.1-.521-.2-.748-.29l-.151.375c.229.092.481.188.754.292a21.015,21.015,0,0,1,5.249,2.662" transform="translate(10.07 -41.513)" fill="#5e7f33"/>
          <path id="Trazado_124974" data-name="Trazado 124974" d="M122.6,136.232l.285-.287a15.22,15.22,0,0,0-5.356-3.026l-.133.383a14.817,14.817,0,0,1,5.2,2.93" transform="translate(-13.623 -41.512)" fill="#5e7f33"/>
          <path id="Trazado_124975" data-name="Trazado 124975" d="M107.677,144.532c.192-.2.415-.466.671-.764,1.2-1.408,3.024-3.536,5.468-4.465l-.143-.378c-2.541.965-4.4,3.14-5.632,4.58-.251.293-.47.549-.658.751Z" transform="translate(2.339 -43.387)" fill="#5e7f33"/>
          <path id="Trazado_124976" data-name="Trazado 124976" d="M53.157,130.772c1.344-3.456,5.339-6.644,6.988-7.508s2.112-3.7,5.664-3.218,5.568,3.171,7.968,3.651,6.21.391,6.209,3.57-1.889,3.424-2.177,4.583S77.424,135.079,75.6,135s-2.4-1.131-5.422.5-7.634-.189-9.554-1.727-7.468-3.006-7.468-3.006" transform="translate(73.459 -37.474)" fill="#6e8e5b"/>
          <path id="Trazado_124977" data-name="Trazado 124977" d="M79.838,130.7l.215-.343c-3.132-1.956-6.676-4.169-10.778-3.826-4.06.345-7.38,3.716-7.519,3.859l.29.283c.033-.034,3.357-3.406,7.265-3.738,3.957-.334,7.3,1.749,10.529,3.766" transform="translate(67.479 -39.504)" fill="#5e7f33"/>
          <path id="Trazado_124978" data-name="Trazado 124978" d="M69.006,125.941a7.376,7.376,0,0,1,4.172-1.988l-.074-.4a7.61,7.61,0,0,0-4.41,2.128Z" transform="translate(69.581 -38.587)" fill="#5e7f33"/>
          <path id="Trazado_124979" data-name="Trazado 124979" d="M73.146,136.011l.153-.375c-2.846-1.156-5.515-4.06-4.853-7.164l-.4-.084c-.708,3.32,2.1,6.405,5.1,7.624" transform="translate(69.98 -40.096)" fill="#5e7f33"/>
          <path id="Trazado_124980" data-name="Trazado 124980" d="M79.719,135l.056-.4a3.537,3.537,0,0,1-2.662-1.736,3.682,3.682,0,0,1-.155-3.264l-.373-.156a4.082,4.082,0,0,0,.177,3.621A3.931,3.931,0,0,0,79.719,135" transform="translate(57.793 -40.427)" fill="#5e7f33"/>
          <path id="Trazado_124981" data-name="Trazado 124981" d="M2.185,133.916c-.807-4.733-1.152-11.281,1.344-14.041a10.835,10.835,0,0,1,7.392-3.623c1.633,0,2.5-2.712,6.72-.444s3.264,4.572,4.512,5.244,2.688,1.571,2.784,4.626-.673,5.646-2.4,7.086-2.784.96-3.648,2.976-7.584,2.112-10.752,1.728-5.6-1.507-5.952-3.552" transform="translate(163.961 -35.885)" fill="#6e8e5b"/>
          <path id="Trazado_124982" data-name="Trazado 124982" d="M13.131,137.252c3.046-1.466,10.453-5.938,13.9-10.4l-.32-.248c-3.4,4.405-10.732,8.83-13.752,10.283Z" transform="translate(154.064 -39.54)" fill="#5e7f33"/>
          <path id="Trazado_124983" data-name="Trazado 124983" d="M17.788,137.841l.024-.4c-2.784-.169-5.884-.5-7.776-1.7l-.216.342c1.97,1.243,5.134,1.587,7.968,1.758" transform="translate(165.435 -42.393)" fill="#5e7f33"/>
          <path id="Trazado_124984" data-name="Trazado 124984" d="M21.6,131.492l.384-.125c-.978-2.995-.336-7.091,1.3-8.271l-.237-.328c-1.786,1.291-2.489,5.53-1.445,8.724" transform="translate(152.198 -38.342)" fill="#5e7f33"/>
          <path id="Trazado_124985" data-name="Trazado 124985" d="M25.8,143.173v-.4c-2.537,0-5.982-1.177-6.871-2.867l-.358.189c.97,1.844,4.521,3.082,7.229,3.082" transform="translate(151.429 -43.693)" fill="#5e7f33"/>
          <path id="Trazado_124986" data-name="Trazado 124986" d="M28.937,135.737l.376-.151a10.086,10.086,0,0,1,.941-7.492l-.338-.225a10.6,10.6,0,0,0-.979,7.868" transform="translate(140.094 -39.935)" fill="#5e7f33"/>
          <path id="Trazado_124987" data-name="Trazado 124987" d="M38.783,98.829c2.232-.213-4.511,3.072-7.871,2.4s-4.8-2.5-6.462-4.533c-.905-1.105-3.81-1.708-3.81-1.708s2.592-.864,7.584.864,8.544,3.168,10.559,2.976" transform="translate(136.579 -29.598)" fill="#6e8e5b"/>
          <path id="Trazado_124988" data-name="Trazado 124988" d="M37.436,96.687s.131-9.309,1.763-11.9,9.478-4.883,11.747-7.05,4.573.138,4.669,2.25-.672,4.9-2.4,5.279-.48,2.4-1.824,3.264-4.155.193-6.109.769-7.383,2.368-7.845,7.389" transform="translate(108.633 -24.006)" fill="#6e8e5b"/>
          <path id="Trazado_124989" data-name="Trazado 124989" d="M59.347,70.146c2.6-.519,3.511-2.028,6.624-2.227s4.931-.934,5.442,2.893-.61,6.9-2.93,7.283-1.072-1.344-3.088-1.056-.818,2.112-4.394,2.4-7.7-2.615-7.99-4.571,1.44-3.743,6.336-4.722" transform="translate(82.032 -21.153)" fill="#6e8e5b"/>
          <path id="Trazado_124990" data-name="Trazado 124990" d="M89.039,62.653c1.556.063,1.666-9.337-.734-14.281s-6.528-7.536-8.64-7.344-.96,2.016-3.264,2.207-4.7-.768-6.336,2.4.679,7.872,3.8,9.12,5.517,1.632,7.053,3.264,5.582,4.529,8.126,4.633" transform="translate(52.022 -12.81)" fill="#6e8e5b"/>
          <path id="Trazado_124991" data-name="Trazado 124991" d="M80.708,62.153l.4-.042c-.332-3.178-5.838-10.83-9.254-14.14l-.281.291c3.3,3.194,8.815,10.849,9.133,13.891" transform="translate(59.668 -14.982)" fill="#5e7f33"/>
          <path id="Trazado_124992" data-name="Trazado 124992" d="M76.379,94.066l.4-.067c-.622-3.659-3.107-6.743-5.082-8.688a25.642,25.642,0,0,0-6.844-4.872l-.164.37c3.2,1.422,10.583,6.734,11.691,13.257" transform="translate(68.736 -25.122)" fill="#4c6040"/>
          <path id="Trazado_124993" data-name="Trazado 124993" d="M209.253,218.091c1.45-.337,6.616-.9,8.343-1.214-.84,2.141-2.025,6.127-2.11,6.457a3.809,3.809,0,0,0,1.064,4.135,17.571,17.571,0,0,0,5.07,3.207c2.808,1.157,5.121,1.652,5.781,3.139.633,1.424.165,1.652-.331,1.817s-18.654.5-20.47-.494c-1.478-.806-1.586-2.342-.384-5.569,1.384-3.714.96-3.43,3.037-11.477" transform="translate(-178.956 -67.733)" fill="#e4906b"/>
          <path id="Trazado_124994" data-name="Trazado 124994" d="M206.509,232.469a3.557,3.557,0,0,0,2.13.232c1.239-.3,1.754-1.465,2.373-2.446a3.167,3.167,0,0,1,1.388-1.3,3.278,3.278,0,0,1,1.935-.156,5,5,0,0,1,1.028.338,3.639,3.639,0,0,0,1.188,2.029,17.573,17.573,0,0,0,5.07,3.207c2.808,1.156,5.121,1.652,5.781,3.138.633,1.424.165,1.652-.331,1.817s-18.654.5-20.47-.494c-1.478-.806-1.586-2.342-.384-5.569.108-.289.2-.554.292-.8" transform="translate(-178.956 -71.433)" fill="#6f97ca"/>
          <path id="Trazado_124995" data-name="Trazado 124995" d="M226.675,236.362c1.118.887,2.312,1.676,3.461,2.521,1.2.884,2.388,1.79,3.581,2.686-3.79-.068-7.145-.253-7.873-.65-1.472-.8-1.584-2.331-.4-5.529.412.319.819.646,1.229.972" transform="translate(-198.2 -73.514)" fill="#507ca9"/>
          <path id="Trazado_124996" data-name="Trazado 124996" d="M227.752,242.4s-7.336-.042-10.02-.042-5.778,0-6.545-.128-1.151-.895-2.237-1.151a27.782,27.782,0,0,0-3.51-.367,7.152,7.152,0,0,0,.034,1.774c.15.381.979.566,4.574.722s14.112.179,15.089.136c1.8-.08,2.58-.112,2.617-.944" transform="translate(-179.001 -75.176)" fill="#fff"/>
          <path id="Trazado_124997" data-name="Trazado 124997" d="M228.035,241.078c1.087.256,1.47,1.023,2.238,1.151a20.084,20.084,0,0,0,2.143.106q.6.456,1.208.91l.089.067c-1.848-.024-3.516-.059-4.58-.105-3.6-.156-4.424-.341-4.574-.722a7.18,7.18,0,0,1-.033-1.774,27.762,27.762,0,0,1,3.509.367" transform="translate(-198.086 -75.176)" fill="#e3e8ea"/>
          <path id="Trazado_124998" data-name="Trazado 124998" d="M231.749,221.716c1.45-.337,1.7-.608,3.162-.913,1.711-.358,3.4-.97,5.125-1.285a31.339,31.339,0,0,0-.124,4.347c.185,1.749,1.564,3.318,2.773,4.429a17.572,17.572,0,0,0,5.07,3.207c2.808,1.156,5.121,1.652,5.781,3.138.633,1.424.166,1.652-.33,1.817s-19.709.521-21.526-.47c-1.478-.806-1.022-2.419-.521-5.826.44-2.987.69-2.036.591-8.444" transform="translate(-222.474 -68.557)" fill="#e4906b"/>
          <path id="Trazado_124999" data-name="Trazado 124999" d="M231.348,232.27c.436.36,2.331,2.421,5.058,2.536a4.283,4.283,0,0,0,2.489-.667,3.25,3.25,0,0,0,.66-1.929,3.207,3.207,0,0,1,.549-1.747,1.425,1.425,0,0,1,1.087-.509,13.069,13.069,0,0,0,1.492,1.6,17.583,17.583,0,0,0,5.07,3.207c2.808,1.157,5.121,1.652,5.781,3.139.633,1.424.165,1.652-.331,1.817s-19.709.521-21.525-.47c-1.479-.806-1.023-2.419-.521-5.825.068-.464.132-.833.19-1.149" transform="translate(-222.474 -71.817)" fill="#6f97ca"/>
          <path id="Trazado_125000" data-name="Trazado 125000" d="M205.894,91s.774,23.84-.111,42.664-1.474,41.986-.589,50.386c0,0,.737.59,4.127,0s8.842-1.307,9.431-3.6,3.74-41.614,5.533-57.287c0,0,7.922,13.337,9.1,17.2s-7.118,37.915-7.118,37.915A35.705,35.705,0,0,0,235.223,183c4.6,1.474,4.751-2.864,6.667-8.7s7.69-26.907,7.985-35S230.543,90.46,230.543,90.46s-18.2-4.352-24.648.543" transform="translate(-200.688 -27.695)" fill="#6c4e4e"/>
          <path id="Trazado_125001" data-name="Trazado 125001" d="M254.709,106.138a26.41,26.41,0,0,0,4.451-6.4c.161-.325.646-.04.486.284a26.9,26.9,0,0,1-4.539,6.519c-.249.265-.647-.135-.4-.4" transform="translate(-244.785 -31.103)" fill="#493333"/>
          <path id="Trazado_125002" data-name="Trazado 125002" d="M220.928,125.487q2.943,4.006,5.669,8.165,2.711,4.14,5.2,8.42,1.409,2.426,2.745,4.894c.115.212-.209.4-.325.19q-2.365-4.371-4.963-8.612-2.585-4.218-5.394-8.295-1.593-2.311-3.254-4.572c-.143-.195.183-.383.325-.19" transform="translate(-196.246 -39.165)" fill="#493333"/>
          <path id="Trazado_125003" data-name="Trazado 125003" d="M219.464,199.6l5.357-16.79q1.339-4.2,2.679-8.395a29.129,29.129,0,0,0,1.127-4.112,8.824,8.824,0,0,0,.1-2.166,4.6,4.6,0,0,1-.076-1.651,1.088,1.088,0,0,1,.474-.622c.275-.175.615-.258.719-.605.186-.613-.305-1.195-.623-1.661a1.691,1.691,0,0,1-.364-1.612.909.909,0,0,1,1.192-.579c.22.1.03.424-.189.325a.478.478,0,0,0-.562.229.843.843,0,0,0-.116.765,12.383,12.383,0,0,0,.873,1.482,1.542,1.542,0,0,1,.063,1.363c-.257.47-.952.486-1.106,1.015a4.843,4.843,0,0,0,.1,1.64,9.105,9.105,0,0,1-.095,2,25.789,25.789,0,0,1-1.069,4.021L222.761,190.5q-1.467,4.6-2.934,9.2c-.074.23-.436.131-.362-.1" transform="translate(-191.171 -50.386)" fill="#493333"/>
          <path id="Trazado_125004" data-name="Trazado 125004" d="M240.612,127.5q.429-5.463.678-10.938.14-3.074.223-6.151a.376.376,0,0,1,.752,0q-.149,5.477-.476,10.948t-.836,10.927q-.285,3.065-.627,6.124a.386.386,0,0,1-.375.375.378.378,0,0,1-.375-.375q.608-5.447,1.038-10.91" transform="translate(-217.017 -34.368)" fill="#d8b69e"/>
          <path id="Trazado_125005" data-name="Trazado 125005" d="M253.842,242.709s-8-.019-10.682-.019a30.266,30.266,0,0,1-4.891-.293c-.767-.128-1.15-.895-2.238-1.151a39.926,39.926,0,0,0-5.3-.128,8.548,8.548,0,0,0,.173,1.7c.15.381.979.566,4.574.722s14.773.153,15.75.113,2.463-.131,2.617-.944" transform="translate(-222.512 -75.293)" fill="#fff"/>
          <path id="Trazado_125006" data-name="Trazado 125006" d="M249.982,30.913a41.834,41.834,0,0,0-6.457-2.448A26.806,26.806,0,0,0,237.233,27l-4.594,2.327s2.543,9.723,3.726,10.841,2.908,4.059,7.415,3.9,4.923,2.3,6.2-1.918,1.023-10.324,0-11.235" transform="translate(-220.832 -8.432)" fill="#e3e8ea"/>
          <path id="Trazado_125007" data-name="Trazado 125007" d="M228.182,35.408s-.158-.908,3.446-2.607c3.553-1.674,5.147-2.418,5.147-2.418s5.936,12.323,11.394,12.46,5.949-10.872,5.949-10.872,4.454,1.819,5.623,3.438,0,13.406,0,13.406-.875,7.083-1.913,12.136a15.117,15.117,0,0,0-.461,3.12,20.162,20.162,0,0,0,.563,2.237,70.268,70.268,0,0,1,.95,7.756c.064,1.327-.968,3.749-1.354,3.914-5.059,2.164-15.173,1.027-20.359-.032-4.712-.961-6.591-.9-6.947-1.123s-2-8.615-1.228-10.806a6.616,6.616,0,0,0,.31-1.551,4.439,4.439,0,0,1-1.655-1.345c-.784-1.344-2.677-3.669-2.679-6.992,0-12.5,3.214-20.721,3.214-20.721" transform="translate(-224.967 -9.489)" fill="#b2a978"/>
          <path id="Trazado_125008" data-name="Trazado 125008" d="M231.365,90.49c1.531-.061,2.844,1.04,4.26,1.55,1.528.551,3.172.26,4.719.687.785.217,1.46.755,2.229,1.012a10.482,10.482,0,0,0,2.461.354,31.091,31.091,0,0,0,5,0,35.533,35.533,0,0,0,5.605-.94c.149-.037.182.256.034.3a30.664,30.664,0,0,1-9.849,1.059c-.844-.045-1.688-.114-2.525-.239a7.346,7.346,0,0,1-2.185-.862c-1.517-.756-3.207-.461-4.8-.793-1.724-.358-3.2-1.736-4.982-1.771-.177,0-.139-.348.034-.355" transform="translate(-224.772 -28.26)" fill="#968a54"/>
          <path id="Trazado_125009" data-name="Trazado 125009" d="M259.144,85.94A83.616,83.616,0,0,1,241.606,84.8c-4-.806-6.5-1.335-7.992-1.663a5.011,5.011,0,0,1,.208-1.637,6.6,6.6,0,0,0,.31-1.551s8.813,3.78,16.578,4.851c5.362.74,8.435,1.144,8.435,1.144" transform="translate(-229.798 -24.968)" fill="#123a35"/>
          <path id="Trazado_125010" data-name="Trazado 125010" d="M259.2,34.97a28.869,28.869,0,0,1,6.724,6.391c.146.193-.179.38-.325.19a28.7,28.7,0,0,0-6.755-6.368c.112-.069.229-.14.356-.212" transform="translate(-253.964 -10.921)" fill="#968a54"/>
          <path id="Trazado_125011" data-name="Trazado 125011" d="M225.955,41.934a26.954,26.954,0,0,1,3.4-4.895q.14.135.256.27a27.182,27.182,0,0,0-3.332,4.815.188.188,0,0,1-.325-.19" transform="translate(-194.98 -11.568)" fill="#968a54"/>
          <path id="Trazado_125012" data-name="Trazado 125012" d="M198.074,62.5a43.607,43.607,0,0,1,.457-8.313c1.3-5.7,4.591-14.531,4.818-12.492s1.02,15.8,1.252,17.214c.11.673.2,1.241.261,1.719,4.98.276,11.412.411,15.1-.391l1.9,8.92s-12.943,2.881-18.672,3.6S198.074,62.5,198.074,62.5" transform="translate(-168.057 -12.929)" fill="#b2a978"/>
          <path id="Trazado_125013" data-name="Trazado 125013" d="M216.3,68.266q3.6.276,7.211.321a.283.283,0,0,1,.239.318.29.29,0,0,1-.319.239q-3.61-.045-7.211-.321c-.362-.028-.281-.585.08-.558" transform="translate(-182.277 -21.32)" fill="#493333"/>
          <path id="Trazado_125014" data-name="Trazado 125014" d="M228.952,63.471a24.037,24.037,0,0,1,.433-4.39c.21-1.5.344-3,.408-4.513a48.255,48.255,0,0,0-.052-5.066c-.023-.362.541-.361.563,0a47.982,47.982,0,0,1-.3,9.2,29.455,29.455,0,0,0-.493,4.523c.035,1.4.309,2.777.459,4.165a8.67,8.67,0,0,1-.467,4.444c-.144.332-.629.045-.486-.284a7.945,7.945,0,0,0,.411-3.953c-.135-1.377-.409-2.739-.472-4.123" transform="translate(-197.84 -15.375)" fill="#968a54"/>
          <path id="Trazado_125015" data-name="Trazado 125015" d="M196.534,75.4s.633,3.827,1.808,3.8,1.206-4.37.814-5.424-2.621,1.627-2.621,1.627" transform="translate(-144.536 -22.962)" fill="#123a35"/>
          <path id="Trazado_125016" data-name="Trazado 125016" d="M183.288,66.674s1.047-1.391.9-2.047c-.19-.86-2.49.682-3.233,1.036s-2.148,1.4-2.9,1.751.091,5.123.091,5.123c4.7.12,6.822-1.562,7.648-1.523s6.643-.624,6.958-1.294,1.3-.324,1.141-1.047-.746-1.041-2.084-1.2c-.715-1.083-8.527-.8-8.527-.8" transform="translate(-126.153 -20.103)" fill="#e4906b"/>
          <path id="Trazado_125017" data-name="Trazado 125017" d="M182.862,71.135c.163-.077.329-.144.5-.206a3.958,3.958,0,0,0,.274-1.56c-.013-.158-.01-.276.139-.27.181.008.175.14.2.308a4.229,4.229,0,0,1,.061,1.32,8.872,8.872,0,0,1,2.661-.21c.657.039,1.31.125,1.96.223a1.127,1.127,0,0,1,.754.3c.192.228-.01.873-.2.855-.167-.016.062-.4-.258-.539a3.839,3.839,0,0,0-1.186-.2c-.51-.059-1.167-.047-1.681-.052a7.206,7.206,0,0,0-2.314.323.288.288,0,0,1-.143.05c-.152.055-.3.114-.45.184-.351.166-.659-.357-.306-.523" transform="translate(-125.126 -21.58)" fill="#d9805c"/>
          <path id="Trazado_125018" data-name="Trazado 125018" d="M192.441,69.588a2.534,2.534,0,0,0,1.474-1.853,1.157,1.157,0,0,1,.7-.871c.184-.061.44-.053.577-.2a3.469,3.469,0,0,0,.425-.492c.2-.331.417-.144.213.19-.22.36-.373.811-.772.988-.182.081-.36.078-.46.268a4.4,4.4,0,0,0-.2.567,2.945,2.945,0,0,1-1.8,1.985.3.3,0,0,1-.161-.584" transform="translate(-138.11 -20.612)" fill="#d9805c"/>
          <path id="Trazado_125019" data-name="Trazado 125019" d="M221.366,8.211c.85-4.763,3.338-6.285,4.331-6.27a3.769,3.769,0,0,1-.049-1.728c.051-.247.429-.142.378.1a3.347,3.347,0,0,0,.014,1.393c.112-.423.52-1.179,1.991-1.576,2.114-.569,3.234.833,4.453,1.276s3.74.687,5.365,2.8-.466,5.4.36,7.139-2.321,3.818-3.7,2.227c-.861-.992-2.983-2.76-4.812-4.429-2.365,2.932-7.511,5.026-7.922,4.661-.545-.485-.94-2.6-.405-5.6" transform="translate(-200.544 0)" fill="#84292c"/>
          <path id="Trazado_125020" data-name="Trazado 125020" d="M244.682,15.484a55.737,55.737,0,0,1-6.256,7.937,46.459,46.459,0,0,0,5.846,6.655l.5-2.8,3.268-5.81Z" transform="translate(-222.007 -4.836)" fill="#e4906b"/>
          <path id="Trazado_125021" data-name="Trazado 125021" d="M239.8,26.322a6.727,6.727,0,0,1-1.173-2.312,6.072,6.072,0,0,1-.082-2.762,17.7,17.7,0,0,1,.968-3.13c.253-.664.542-1.33.765-2.012l3.121,5.557-2.989,5.314a5.4,5.4,0,0,1-.611-.655" transform="translate(-217.365 -5.03)" fill="#1a1a1a"/>
          <path id="Trazado_125022" data-name="Trazado 125022" d="M238.873,16.124c-.445.818-2,5.417-4.9,7.1a6.683,6.683,0,0,1-5.468.421c-3.5-1.635-3.894-5.326-3.08-8.158,0,0-2.244-2.94.38-4.671,1.787-1.179,2.591,1.914,2.591,1.914s.3,2.337,4.327-1.428c4.354.352,6.415-2.029,6.15,1.129a15.045,15.045,0,0,0,0,3.7" transform="translate(-203.305 -3.293)" fill="#e4906b"/>
          <path id="Trazado_125023" data-name="Trazado 125023" d="M227.907,22.318a.652.652,0,0,1,.381-.389.556.556,0,0,1,.142-.032.256.256,0,0,1,.069,0,.215.215,0,0,1,.155.11s.006.011.009.017a.322.322,0,0,1,.128.215.425.425,0,0,1-.063.264.59.59,0,0,1-.267.366.444.444,0,0,1-.228.051H228.2a.343.343,0,0,1-.261-.162.389.389,0,0,1-.054-.173.5.5,0,0,1,.02-.268" transform="translate(-195.503 -6.838)" fill="#1a1a1a"/>
          <path id="Trazado_125024" data-name="Trazado 125024" d="M234.65,17.082a.551.551,0,0,1,.45-.1.417.417,0,0,1,.25.384.789.789,0,0,1-.082.471c-.005.009-.012.017-.019.026a.61.61,0,0,1-.052.114.361.361,0,0,1-.042.063l-.012.015a.344.344,0,0,1-.033.03.517.517,0,0,1-.06.056.387.387,0,0,1-.271.069.442.442,0,0,1-.381-.128.582.582,0,0,1-.155-.364.726.726,0,0,1,.408-.635" transform="translate(-206.441 -5.297)" fill="#1a1a1a"/>
          <path id="Trazado_125025" data-name="Trazado 125025" d="M231.954,13.668a.3.3,0,0,1,.362-.206l1.868.33a.3.3,0,0,1,.206.361.3.3,0,0,1-.362.206l-1.868-.329a.3.3,0,0,1-.206-.362" transform="translate(-203.906 -4.202)" fill="#84292c"/>
          <path id="Trazado_125026" data-name="Trazado 125026" d="M225.836,19.206a.3.3,0,0,1,.4.105l.627,1.171a.294.294,0,0,1-.508.3l-.627-1.171a.3.3,0,0,1,.105-.4" transform="translate(-192.109 -5.987)" fill="#84292c"/>
          <path id="Trazado_125027" data-name="Trazado 125027" d="M232.874,23.854a.254.254,0,0,1,.113-.146.25.25,0,0,1,.189-.025l.53.164a.258.258,0,0,1,.146.113.252.252,0,0,1,.024.189.245.245,0,0,1-.3.171l-.529-.164a.258.258,0,0,1-.146-.112.25.25,0,0,1-.025-.189" transform="translate(-204.024 -7.393)" fill="#ce5c48"/>
          <path id="Trazado_125028" data-name="Trazado 125028" d="M237.967,26.269l-3.039-2.705s-.949,1.45-.422,2.256a1.749,1.749,0,0,0,1.6.743,4.234,4.234,0,0,0,1.86-.294" transform="translate(-209.126 -7.359)" fill="#fff"/>
          <path id="Trazado_125029" data-name="Trazado 125029" d="M242.522,29.386l.5-.254a28.77,28.77,0,0,0,4.186,6.358q.8.924,1.686,1.776a16.948,16.948,0,0,1,2.256-2.886.283.283,0,0,1,.47.124q.678,3.649,1.113,7.335c.043.36-.521.356-.563,0q-.4-3.344-1-6.659a16.3,16.3,0,0,0-1.977,2.674.285.285,0,0,1-.442.057,29.377,29.377,0,0,1-6.024-8.106c-.07-.14-.138-.281-.206-.422" transform="translate(-229.516 -9.098)" fill="#a8b9cb"/>
          <path id="Trazado_125030" data-name="Trazado 125030" d="M237.812,35.093l1.293,1.741a16.958,16.958,0,0,0,1.928-5.885.177.177,0,0,1,0-.028c.19.072.37.141.54.207a19.28,19.28,0,0,1-2.178,6.387.285.285,0,0,1-.486,0l-1.588-2.139c-.217-.291.272-.572.486-.284" transform="translate(-214.748 -9.657)" fill="#a8b9cb"/>
          <path id="Trazado_125031" data-name="Trazado 125031" d="M229.547,83.226s-.366,2.819.507,3.271,2.386-2.849,2.174-4.2-2.682.934-2.682.934" transform="translate(-200.054 -25.566)" fill="#123a35"/>
          <path id="Trazado_125032" data-name="Trazado 125032" d="M210.257,81.126a11.29,11.29,0,0,1,.165-4.456c.541-2.148,3.628-1.47,4.875-1.272a8.818,8.818,0,0,0,3.885.135c1.164-.291,1.247.668.818,1.3,0,0,1.1.1,3.308.358s2.8.641,2.647,1.265.362.218.314.89-5.583,1.736-7.468,1.651a83.354,83.354,0,0,0-8.545.133" transform="translate(-180.764 -23.467)" fill="#e4906b"/>
          <path id="Trazado_125033" data-name="Trazado 125033" d="M219.509,78.247a7.189,7.189,0,0,1,2.482-.29,3.757,3.757,0,0,0,2.184-.54c.3-.211.578.277.285.486-1.426,1.017-3.254.3-4.8.887-.339.13-.486-.415-.15-.543" transform="translate(-185.407 -24.162)" fill="#d9805c"/>
          <path id="Trazado_125034" data-name="Trazado 125034" d="M231.573,60.663q2.218,1,4.491,1.875-.466-5.458-1.333-10.87c-.057-.355.486-.508.543-.15q.9,5.583,1.371,11.222c0,.007,0,.012,0,.019q1.633.614,3.29,1.16a84.444,84.444,0,0,0,8.647,2.348q2.48.534,4.988.918c.358.055.206.6-.149.543a84.67,84.67,0,0,1-8.857-1.847A84.483,84.483,0,0,1,236,63.114q-2.382-.912-4.707-1.965c-.33-.149-.044-.635.284-.486" transform="translate(-222.728 -16.026)" fill="#968a54"/>
          <path id="Trazado_125037" data-name="Trazado 125037" d="M81.827.5H0v-1H81.827Z" transform="translate(51.597 142.499)" fill="#fff"/>
          <path id="Trazado_125035" data-name="Trazado 125035" d="M82.1,210.156l-.569-.822c.491-.34,1.329-.846,2.216-1.383.926-.559,2.319-1.4,3.06-1.933a40.436,40.436,0,0,1-4.277-2.149c-.836-.456-1.558-.85-1.894-1l.4-.916c.377.165,1.081.549,1.973,1.035a27.563,27.563,0,0,0,4.621,2.225.6.6,0,0,1,.594.446c.114.464-.313.835-1.38,1.543-.729.484-1.67,1.052-2.58,1.6C83.392,209.335,82.567,209.834,82.1,210.156Z" transform="translate(46.666 -63.216)" fill="#fff"/>
          <path id="Trazado_125036" data-name="Trazado 125036" d="M198.891,210.2c-.376-.164-1.079-.548-1.97-1.034a27.573,27.573,0,0,0-4.624-2.226.6.6,0,0,1-.594-.446c-.114-.464.313-.835,1.38-1.543.729-.483,1.67-1.052,2.58-1.6.874-.528,1.7-1.027,2.165-1.349l.569.822c-.491.34-1.329.846-2.217,1.383-.926.559-2.319,1.4-3.06,1.933a40.439,40.439,0,0,1,4.279,2.151c.835.455,1.556.848,1.892,1Z" transform="translate(-141.256 -63.216)" fill="#fff"/>
        </g>
      </g>
    </g>
    <rect id="Rectángulo_35988" data-name="Rectángulo 35988" width="190" height="243" transform="translate(810 1501)" fill="none"/>
  </g>
</svg>
