<svg xmlns="http://www.w3.org/2000/svg" width="190" height="243" viewBox="0 0 190 243">
  <g id="Grupo_88139" data-name="Grupo 88139" transform="translate(-705 -1250)">
    <g id="Grupo_88035" data-name="Grupo 88035">
      <g id="Grupo_87692" data-name="Grupo 87692" transform="translate(-319 274.204)">
        <g id="Grupo_87397" data-name="Grupo 87397" transform="translate(0 45.434)">
          <path id="Rectángulo_34437" data-name="Rectángulo 34437" d="M0,0H96a77,77,0,0,1,77,77V184.116a0,0,0,0,1,0,0H0a0,0,0,0,1,0,0V0A0,0,0,0,1,0,0Z" transform="translate(1033 954.362)" fill="#a6bbff"/>
          <g id="Grupo_87372" data-name="Grupo 87372" transform="translate(1039.834 955.577)">
            <path id="Trazado_114646" data-name="Trazado 114646" d="M151.4,72.681c-1.152,17.828-14.827,34.849-33.347,35.905-21.272,1.63-40.8-10.036-61.986-10.159-10.8-.926-20.938,3.211-31.467,4.547C.823,103.846-2.8,75.9,1.635,57.886,20.34-27.038,152.7-15.484,151.4,72.681Z" transform="translate(1.291 13.295)" fill="#e1e8ff"/>
          </g>
        </g>
      </g>
      <g id="Grupo_88025" data-name="Grupo 88025" transform="translate(705 1299.104)">
        <g id="Grupo_88034" data-name="Grupo 88034" transform="translate(7.037 -12)">
          <path id="Trazado_124478" data-name="Trazado 124478" d="M75.984,115.2,45.611,98.865V52.386L75.984,65.041Z" transform="translate(-30.598 -35.142)" fill="#df9e68"/>
          <path id="Trazado_124479" data-name="Trazado 124479" d="M190.115,102.248l-52.231,13.422V65.627l52.231-12.542Z" transform="translate(-92.497 -35.611)" fill="#b06e4c"/>
          <path id="Trazado_124480" data-name="Trazado 124480" d="M128.561,27.684,75.984,40.262,45.612,27.449,98.188,14.871Z" transform="translate(-30.598 -9.976)" fill="#e9b375"/>
          <line id="Línea_197" data-name="Línea 197" x1="52.272" y2="12.475" transform="translate(28.202 10.23)" fill="none" stroke="#b26e4b" stroke-miterlimit="10" stroke-width="1"/>
        </g>
        <g id="Grupo_88033" data-name="Grupo 88033" transform="translate(0 0)">
          <path id="Trazado_124481" data-name="Trazado 124481" d="M355.595,119.087,325.222,102.75V56.271l30.372,12.655Z" transform="translate(-218.171 -37.749)" fill="#df9e68"/>
          <path id="Trazado_124482" data-name="Trazado 124482" d="M469.726,106.134l-52.231,13.422V69.513l52.231-12.542Z" transform="translate(-280.071 -38.218)" fill="#996042"/>
          <path id="Trazado_124483" data-name="Trazado 124483" d="M325.222,31.327l30.372,12.8,52.577-12.57L377.8,18.757Z" transform="translate(-218.171 -12.583)" fill="#e9b375"/>
          <line id="Línea_198" data-name="Línea 198" x1="52.272" y2="12.475" transform="translate(120.239 11.51)" fill="none" stroke="#b26e4b" stroke-miterlimit="10" stroke-width="1"/>
        </g>
        <g id="Grupo_88031" data-name="Grupo 88031" transform="translate(-1.038 19.229)">
          <path id="Trazado_124484" data-name="Trazado 124484" d="M183.984,100.33,153.611,83.993V37.514l30.372,12.655Z" transform="translate(-103.048 -25.166)" fill="#e7384c"/>
          <path id="Trazado_124485" data-name="Trazado 124485" d="M298.115,87.377,245.883,100.8V50.756l52.231-12.542Z" transform="translate(-164.948 -25.635)" fill="#cb223c"/>
          <path id="Trazado_124486" data-name="Trazado 124486" d="M206.188,0,153.612,12.464l30.372,12.7L236.561,12.7Z" transform="translate(-103.048)" fill="#e75162"/>
          <line id="Línea_199" data-name="Línea 199" x1="52.272" y2="12.475" transform="translate(63.751 5.336)" fill="none" stroke="#cb223c" stroke-miterlimit="10" stroke-width="1"/>
        </g>
        <g id="Grupo_88032" data-name="Grupo 88032" transform="translate(0 8.756)">
          <path id="Trazado_124487" data-name="Trazado 124487" d="M0,190.325l30.373,16.337V156.5L0,143.846Z" transform="translate(0 -96.497)" fill="#d19462"/>
          <path id="Trazado_124488" data-name="Trazado 124488" d="M144.5,193.709,92.272,207.131V157.088L144.5,144.546Z" transform="translate(-61.899 -96.967)" fill="#996042"/>
          <path id="Trazado_124489" data-name="Trazado 124489" d="M0,118.681l30.373,12.579,52.576-12.349L52.576,106.332Z" transform="translate(0 -71.332)" fill="#e9b375"/>
          <line id="Línea_200" data-name="Línea 200" x1="52.272" y2="12.475" transform="translate(13.188 40.336)" fill="none" stroke="#b26e4b" stroke-miterlimit="10" stroke-width="1"/>
        </g>
        <g id="Grupo_88030" data-name="Grupo 88030" transform="translate(4 15.893)">
          <path id="Trazado_124491" data-name="Trazado 124491" d="M325.747,202.758V252.8l52.231-13.422V190.215Z" transform="translate(-218.523 -127.604)" fill="#b06e4c"/>
          <g id="Grupo_88029" data-name="Grupo 88029">
            <path id="Trazado_124490" data-name="Trazado 124490" d="M233.475,236l30.372,16.337v-50.16l-30.372-12.655Z" transform="translate(-156.624 -127.135)" fill="#df9e68"/>
            <path id="Trazado_124492" data-name="Trazado 124492" d="M316.424,164.736l-52.576,12.5L233.475,164.5,286.051,152Z" transform="translate(-156.624 -101.968)" fill="#e9b375"/>
            <line id="Línea_201" data-name="Línea 201" x1="52.272" y2="12.475" transform="translate(90.04 55.369)" fill="none" stroke="#b26e4b" stroke-miterlimit="10" stroke-width="1"/>
          </g>
        </g>
      </g>
    </g>
    <rect id="Rectángulo_35985" data-name="Rectángulo 35985" width="190" height="243" transform="translate(705 1250)" fill="none"/>
  </g>
</svg>
