<svg xmlns="http://www.w3.org/2000/svg" xmlns:xlink="http://www.w3.org/1999/xlink" width="190" height="243" viewBox="0 0 190 243">
  <defs>
    <clipPath id="clip-path">
      <rect id="Rectángulo_35966" data-name="Rectángulo 35966" width="172.149" height="26.355" fill="#8284d2"/>
    </clipPath>
    <clipPath id="clip-path-2">
      <rect id="Rectángulo_35967" data-name="Rectángulo 35967" width="27.936" height="194.679" fill="#8284d2"/>
    </clipPath>
    <clipPath id="clip-path-3">
      <rect id="Rectángulo_35968" data-name="Rectángulo 35968" width="23.543" height="153" fill="#acade1"/>
    </clipPath>
    <clipPath id="clip-path-4">
      <rect id="Rectángulo_35969" data-name="Rectángulo 35969" width="82.079" height="18.813" fill="none"/>
    </clipPath>
    <clipPath id="clip-path-5">
      <rect id="Rectángulo_35970" data-name="Rectángulo 35970" width="58.779" height="11.855" fill="none"/>
    </clipPath>
    <clipPath id="clip-path-6">
      <rect id="Rectángulo_35971" data-name="Rectángulo 35971" width="8.516" height="24.905" fill="none"/>
    </clipPath>
    <clipPath id="clip-path-7">
      <rect id="Rectángulo_35972" data-name="Rectángulo 35972" width="18.888" height="21.846" fill="none"/>
    </clipPath>
    <clipPath id="clip-path-8">
      <rect id="Rectángulo_35973" data-name="Rectángulo 35973" width="17.8" height="21.29" fill="none"/>
    </clipPath>
    <clipPath id="clip-path-9">
      <rect id="Rectángulo_35974" data-name="Rectángulo 35974" width="95.757" height="54.245" fill="none"/>
    </clipPath>
    <clipPath id="clip-path-10">
      <rect id="Rectángulo_35975" data-name="Rectángulo 35975" width="33.106" height="16.123" fill="none"/>
    </clipPath>
    <clipPath id="clip-path-11">
      <rect id="Rectángulo_35976" data-name="Rectángulo 35976" width="35.039" height="25.374" fill="none"/>
    </clipPath>
    <clipPath id="clip-path-12">
      <rect id="Rectángulo_35977" data-name="Rectángulo 35977" width="58.903" height="55.144" fill="none"/>
    </clipPath>
    <clipPath id="clip-path-13">
      <rect id="Rectángulo_35978" data-name="Rectángulo 35978" width="2.308" height="8.204" fill="none"/>
    </clipPath>
  </defs>
  <g id="Grupo_88142" data-name="Grupo 88142" transform="translate(-600 -1501)">
    <g id="Grupo_88121" data-name="Grupo 88121">
      <g id="Grupo_87694" data-name="Grupo 87694" transform="translate(1 594.638)">
        <path id="Rectángulo_34436" data-name="Rectángulo 34436" d="M0,0H96a77,77,0,0,1,77,77V184.116a0,0,0,0,1,0,0H0a0,0,0,0,1,0,0V0A0,0,0,0,1,0,0Z" transform="translate(612 954.362)" fill="#a6bbff"/>
        <g id="Grupo_87372" data-name="Grupo 87372" transform="translate(618.834 955.577)">
          <path id="Trazado_114646" data-name="Trazado 114646" d="M151.4,72.681c-1.152,17.828-14.827,34.849-33.347,35.905-21.272,1.63-40.8-10.036-61.986-10.159-10.8-.926-20.938,3.211-31.467,4.547C.823,103.846-2.8,75.9,1.635,57.886,20.34-27.038,152.7-15.484,151.4,72.681Z" transform="translate(1.291 13.295)" fill="#e1e8ff"/>
        </g>
      </g>
      <g id="Grupo_88120" data-name="Grupo 88120" transform="translate(7037.27 10800)">
        <g id="Grupo_88074" data-name="Grupo 88074" transform="translate(-6432.27 -9093.676)">
          <g id="Grupo_88073" data-name="Grupo 88073">
            <g id="Grupo_88072" data-name="Grupo 88072" clip-path="url(#clip-path)">
              <path id="Trazado_124869" data-name="Trazado 124869" d="M0,278.031l22.615-26.355h120.71c11.512,0,22.006,8.152,26.993,20.97l1.83,4.7Z" transform="translate(0 -251.676)" fill="#8284d2"/>
            </g>
          </g>
        </g>
        <g id="Grupo_88077" data-name="Grupo 88077" transform="translate(-6432.27 -9262)">
          <g id="Grupo_88076" data-name="Grupo 88076">
            <g id="Grupo_88075" data-name="Grupo 88075" clip-path="url(#clip-path-2)">
              <path id="Trazado_124870" data-name="Trazado 124870" d="M0,0,17.2,13.343a27.741,27.741,0,0,1,10.738,21.92V168.324L0,194.679Z" fill="#8284d2"/>
            </g>
          </g>
        </g>
        <g id="Grupo_88080" data-name="Grupo 88080" transform="translate(-6427.876 -9228.992)" opacity="0.4">
          <g id="Grupo_88079" data-name="Grupo 88079">
            <g id="Grupo_88078" data-name="Grupo 88078" clip-path="url(#clip-path-3)">
              <path id="Trazado_124871" data-name="Trazado 124871" d="M6.569,111.37,30.112,49.354V184.67L11.366,202.354Z" transform="translate(-6.569 -49.354)" fill="#acade1"/>
            </g>
          </g>
        </g>
        <g id="Grupo_88083" data-name="Grupo 88083" transform="translate(-6408.023 -9090.245)" opacity="0.2" style="mix-blend-mode: multiply;isolation: isolate">
          <g id="Grupo_88082" data-name="Grupo 88082">
            <g id="Grupo_88081" data-name="Grupo 88081" clip-path="url(#clip-path-4)">
              <path id="Trazado_124872" data-name="Trazado 124872" d="M36.253,266.211c0-5.2,18.374-9.406,41.04-9.406s41.04,4.211,41.04,9.406-18.374,9.406-41.04,9.406-41.04-4.212-41.04-9.406" transform="translate(-36.253 -256.805)" fill="#b3b8c7"/>
            </g>
          </g>
        </g>
        <g id="Grupo_88086" data-name="Grupo 88086" transform="translate(-6307.566 -9083.289)" opacity="0.2" style="mix-blend-mode: multiply;isolation: isolate">
          <g id="Grupo_88085" data-name="Grupo 88085">
            <g id="Grupo_88084" data-name="Grupo 88084" clip-path="url(#clip-path-5)">
              <path id="Trazado_124873" data-name="Trazado 124873" d="M186.455,273.135c0-3.274,13.158-5.928,29.389-5.928s29.39,2.654,29.39,5.928-13.158,5.928-29.39,5.928-29.389-2.654-29.389-5.928" transform="translate(-186.455 -267.207)" fill="#b3b8c7"/>
            </g>
          </g>
        </g>
        <path id="Trazado_124874" data-name="Trazado 124874" d="M222.627,255.754a.513.513,0,0,1-.183-.035c-.671-.251-.861-1.487-.961-3.535-.01-.2-.018-.367-.028-.475a18.561,18.561,0,0,1,.07-4.477,9.481,9.481,0,0,1,4.786-7.291,2.494,2.494,0,0,1,1.459-.312c1.207.186,1.713,1.529,1.779,2.622.135,2.245-.635,4.6-2.424,7.422-.076.121-.213.348-.391.646-2.648,4.407-3.527,5.436-4.106,5.436m-.376-8.412a17.856,17.856,0,0,0-.064,4.3c.01.116.02.292.03.507.1,1.966.28,2.641.435,2.834.463-.306,1.623-2,3.45-5.042.183-.305.324-.538.4-.661,1.7-2.683,2.436-4.9,2.311-6.984-.053-.886-.433-1.829-1.158-1.941a1.864,1.864,0,0,0-1.024.246,8.755,8.755,0,0,0-4.383,6.742" transform="translate(-6505.58 -9341.354)" fill="#003c59"/>
        <path id="Trazado_124875" data-name="Trazado 124875" d="M71.979,138.205c2.078,4.877,21.336,37.847,25.6,36.9s4.806,5.9,2.641,10.027-20.178,20.109-24.283,5.537-3.959-52.467-3.959-52.467" transform="translate(-6456.108 -9307.771)" fill="#bc994e"/>
        <path id="Trazado_124876" data-name="Trazado 124876" d="M106.117,185.019c6.415-2.02,19.731-13.537,21.96-16.356s3.818,6.092-1.346,14.087-20.653,21.271-26.462,16.246-.568-11.956,5.847-13.976" transform="translate(-6464.646 -9317.682)" fill="#de7752"/>
        <path id="Trazado_124877" data-name="Trazado 124877" d="M110.275,174.5c1.136-3.073,5.68-7.428,9.61-8.747s1.255,2.483-1.583,6.849-3.783,6.872-6.081,6.295-1.946-4.4-1.946-4.4" transform="translate(-6468.785 -9316.808)" fill="#de7752"/>
        <path id="Trazado_124878" data-name="Trazado 124878" d="M137.64,143.874l-6.351,33.169-13.646-6.43.863-30.388s14.54-.134,19.134,3.649" transform="translate(-6471.231 -9308.441)" fill="#c4a563"/>
        <path id="Trazado_124879" data-name="Trazado 124879" d="M146.019,127.093s-4.463,8.532-1.621,12.432c-1.2,6.275-6.351,33.169-6.351,33.169l5.685-11.684s4.72-29.458,2.287-33.917" transform="translate(-6477.989 -9304.091)" fill="#c4a563"/>
        <path id="Trazado_124880" data-name="Trazado 124880" d="M148.045,127.093c1.892,7.027-4.314,35.689-4.314,35.689l-5.686,9.912,6.351-33.169s-.665-4.189,3.648-12.432" transform="translate(-6477.988 -9304.091)" fill="#002c42"/>
        <path id="Trazado_124881" data-name="Trazado 124881" d="M116.06,142.5v34.157l14.705,1,6.35-33.169s-18.353-3.611-21.056-1.99" transform="translate(-6470.707 -9309.055)" fill="#002c42"/>
        <g id="Grupo_88089" data-name="Grupo 88089" transform="translate(-6339.942 -9156.304)" opacity="0.5" style="mix-blend-mode: multiply;isolation: isolate">
          <g id="Grupo_88088" data-name="Grupo 88088">
            <g id="Grupo_88087" data-name="Grupo 88087" clip-path="url(#clip-path-6)">
              <path id="Trazado_124882" data-name="Trazado 124882" d="M142.7,160.854c-.155.086-.317.16-.475.241l-4.183,21.847,5.686-9.912s1.524-7.038,2.83-14.993a20.016,20.016,0,0,1-3.858,2.817" transform="translate(-138.046 -158.037)" fill="#002c42"/>
            </g>
          </g>
        </g>
        <g id="Grupo_88092" data-name="Grupo 88092" transform="translate(-6354.647 -9153.243)" opacity="0.5" style="mix-blend-mode: multiply;isolation: isolate">
          <g id="Grupo_88091" data-name="Grupo 88091">
            <g id="Grupo_88090" data-name="Grupo 88090" clip-path="url(#clip-path-7)">
              <path id="Trazado_124883" data-name="Trazado 124883" d="M116.06,165.262v18.193l14.705,1,4.183-21.847c-5.575,2.883-12.624,2.883-18.888,2.652" transform="translate(-116.06 -162.611)" fill="#002c42"/>
            </g>
          </g>
        </g>
        <path id="Trazado_124884" data-name="Trazado 124884" d="M149.494,152.692a5.247,5.247,0,0,0-1.882,5.536,2.981,2.981,0,0,0-1.2,2.434c.118.819.548,1.952,1.477,1.4a1.574,1.574,0,0,0,.876,2.573c1.318.08,2.058-1.283,2.125-2.39s.5-3.212-.337-2.858c.158.009,1.187-3.279.2-3.237.07,0,.627-4.7-1.259-3.461" transform="translate(-6480.754 -9312.5)" fill="#fa9d78"/>
        <path id="Trazado_124885" data-name="Trazado 124885" d="M27.127,117.812c1.824-1.2,12.206,0,12.206,0l-6.1,9.275Z" transform="translate(-6441.254 -9300.841)" fill="#bc994e"/>
        <path id="Trazado_124886" data-name="Trazado 124886" d="M219.311,226.294c1.824,1.216-14.406,23.686-16.823,21.08s.811-12.879,4.662-16.473,12.162-4.607,12.162-4.607" transform="translate(-6499.055 -9336.945)" fill="#5c2e27"/>
        <g id="Grupo_88095" data-name="Grupo 88095" transform="translate(-6297.401 -9110.651)" opacity="0.7" style="mix-blend-mode: multiply;isolation: isolate">
          <g id="Grupo_88094" data-name="Grupo 88094">
            <g id="Grupo_88093" data-name="Grupo 88093" clip-path="url(#clip-path-8)">
              <path id="Trazado_124887" data-name="Trazado 124887" d="M219.311,226.294c1.824,1.216-14.406,23.686-16.823,21.08s.811-12.879,4.662-16.473,12.162-4.607,12.162-4.607" transform="translate(-201.653 -226.294)" fill="#5c2e27"/>
            </g>
          </g>
        </g>
        <path id="Trazado_124888" data-name="Trazado 124888" d="M72.889,210.077,90.32,230.346s24.067-2.707,30.58-9.765,11.9-17.193,11.9-17.193,13.317,19.5,21.292,21.186c2.706-5.781,13.043-15.716,13.043-15.716s2.8-4.516.769-7.223-24.961-23.379-30.564-25.2c-12.209-3.977-41.116,29.257-41.116,29.257l-10.367-2.443Z" transform="translate(-6456.41 -9320.322)" fill="#5c2e27"/>
        <g id="Grupo_88098" data-name="Grupo 88098" transform="translate(-6383.52 -9144.222)" opacity="0.7" style="mix-blend-mode: multiply;isolation: isolate">
          <g id="Grupo_88097" data-name="Grupo 88097">
            <g id="Grupo_88096" data-name="Grupo 88096" clip-path="url(#clip-path-9)">
              <path id="Trazado_124889" data-name="Trazado 124889" d="M72.889,210.077,90.32,230.346s24.067-2.707,30.58-9.765,11.9-17.193,11.9-17.193,13.317,19.5,21.292,21.186c2.706-5.781,13.043-15.716,13.043-15.716s2.8-4.516.769-7.223-24.961-23.379-30.564-25.2c-12.209-3.977-41.116,29.257-41.116,29.257l-10.367-2.443Z" transform="translate(-72.889 -176.1)" fill="#5c2e27"/>
            </g>
          </g>
        </g>
        <path id="Trazado_124890" data-name="Trazado 124890" d="M189.251,228.78s12.98,12.162,13.386,17.229-2.23,9.527,2.027,9.527,29.981-1.344,29.981-1.344,1.031-3.318-1.807-4.534-10.547-1.864-15.082-4.894c-6.386-4.267-21.807-34.832-21.807-34.832Z" transform="translate(-6494.947 -9331.526)" fill="#de7752"/>
        <path id="Trazado_124891" data-name="Trazado 124891" d="M239.013,264.256c-2.838-1.216-10.547-1.864-15.082-4.894a23.281,23.281,0,0,1-4.785-5.35c-.118.128-.236.255-.356.377-2.787,2.787-6.15,3.778-9.958,4.125-.219.02-1.082-.035-.914.491.278.869.846,1.007.894,1.6.405,5.067-2.229,9.527,2.027,9.527s29.981-1.344,29.981-1.344,1.031-3.318-1.807-4.534" transform="translate(-6501.123 -9346.126)" fill="#002c42"/>
        <g id="Grupo_88101" data-name="Grupo 88101" transform="translate(-6293.226 -9092.114)" opacity="0.5" style="mix-blend-mode: multiply;isolation: isolate">
          <g id="Grupo_88100" data-name="Grupo 88100">
            <g id="Grupo_88099" data-name="Grupo 88099" clip-path="url(#clip-path-10)">
              <path id="Trazado_124892" data-name="Trazado 124892" d="M239.013,264.256c-2.838-1.216-10.547-1.864-15.082-4.894a23.281,23.281,0,0,1-4.785-5.35c-.118.128-.236.255-.356.377-2.787,2.787-6.15,3.778-9.958,4.125-.219.02-1.082-.035-.914.491.278.869.846,1.007.894,1.6.405,5.067-2.229,9.527,2.027,9.527s29.981-1.344,29.981-1.344,1.031-3.318-1.807-4.534" transform="translate(-207.896 -254.012)" fill="#002c42"/>
            </g>
          </g>
        </g>
        <path id="Trazado_124893" data-name="Trazado 124893" d="M193.515,200.13c4.256,5.338,26.553,37.566,27.971,38.174s9.932,6.284,13.58,7.094A41.442,41.442,0,0,1,245,249.046c1.621,1.013,1.216,3.648,1.216,3.648s-30.4,1.621-32.835,1.216-.811-6.689-2.027-8.918-.116-3.288-10.582-11.077c-20.632-15.355-7.255-33.786-7.255-33.786" transform="translate(-6494.947 -9328.281)" fill="#fa9d78"/>
        <path id="Trazado_124894" data-name="Trazado 124894" d="M255.523,267.068a41.42,41.42,0,0,0-9.932-3.648c-3.648-.811-12.161-6.486-13.58-7.094-.152-.066-.14-.5-.443-1.223a.924.924,0,0,0-1.6-.17,19.324,19.324,0,0,1-8.345,5.924.891.891,0,0,0-.292,1.51,2.27,2.27,0,0,1,.544.647c1.216,2.229-.405,8.513,2.027,8.918s32.835-1.216,32.835-1.216.405-2.635-1.216-3.648" transform="translate(-6505.471 -9346.303)" fill="#002c42"/>
        <path id="Trazado_124895" data-name="Trazado 124895" d="M52.267,77.815c1.081-2.142,1.959-2.5,3.311-2.768s2.613-5.943,2.343-7.835-2.14-4.092-5.653-4.092-9.189-5.229-12.432-6.31S30.4,57.35,29.711,58.7s-5.28,9.188-6.09,11.35,2.162,8.871,1.351,12.651-3.526,7.024-1.493,8.1,7.168,5.675,10.952,3.783S52.267,77.815,52.267,77.815" transform="translate(-6439.801 -9280.697)" fill="#771000"/>
        <g id="Grupo_88104" data-name="Grupo 88104" transform="translate(-6417.051 -9211.03)" opacity="0.4" style="mix-blend-mode: multiply;isolation: isolate">
          <g id="Grupo_88103" data-name="Grupo 88103">
            <g id="Grupo_88102" data-name="Grupo 88102" clip-path="url(#clip-path-11)">
              <path id="Trazado_124896" data-name="Trazado 124896" d="M57.781,76.215c-1.008.3-2,.647-3,.986-1.844.63-3.676,1.271-5.553,1.794a3.439,3.439,0,0,0-2.306,1.512l-.065.072c-.181.278-.364.555-.522.847-.141.239-.259.492-.385.74-.029.112-.128.4-.3.881a9.791,9.791,0,0,1-11.832,6.718,9.257,9.257,0,0,1-3.309-1.71,14.244,14.244,0,0,1-3.139,4.969,15.246,15.246,0,0,1-4.611,3.208,1.289,1.289,0,0,0,.728,1.118c2.034,1.081,7.168,5.675,10.952,3.783S52.272,84.358,52.272,84.358c1.081-2.142,1.96-2.5,3.311-2.768.949-.19,1.851-3.04,2.212-5.379l-.014,0" transform="translate(-22.756 -76.211)" fill="#771000"/>
            </g>
          </g>
        </g>
        <path id="Trazado_124897" data-name="Trazado 124897" d="M31.842,104.717c.275,4.352-.509,11.047-2.409,12.669s6.986,8.648,8.894,13.783,10.826,10.27,10.826,10.27-.811-18.917-2.7-20.269-3.783-5.4-1.351-9.729-13.257-6.723-13.257-6.723" transform="translate(-6441.93 -9296.681)" fill="#fa9d78"/>
        <path id="Trazado_124898" data-name="Trazado 124898" d="M37.114,115.205a30.322,30.322,0,0,0,4.773,8.951,47.509,47.509,0,0,0,7.207,7.976c.615.552,1.262,1.06,1.925,1.547-.428-5.394-1.151-11.749-2.218-12.511-1.891-1.351-3.783-5.4-1.351-9.729,1.956-3.478-7.417-5.9-11.164-6.723-.035,3.5-.122,7.117.829,10.488" transform="translate(-6444.28 -9296.681)" fill="#de7752"/>
        <path id="Trazado_124899" data-name="Trazado 124899" d="M46.8,109.232c3.006-.3,8.919-15.134,8.919-17.837V85.384s-13.783-2.1-17.837,6.552c-1.13,2.41-2.972-1.891-3.783.27s-1.621,7.567,0,10.54,7.3,7.027,12.7,6.486" transform="translate(-6443.252 -9290.204)" fill="#fa9d78"/>
        <path id="Trazado_124900" data-name="Trazado 124900" d="M34.522,98.165c2.062.157,1.641-10.294-2.287-9.753s-.956,9.507,2.287,9.753" transform="translate(-6442.324 -9291.274)" fill="#fa9d78"/>
        <path id="Trazado_124901" data-name="Trazado 124901" d="M60.255,73.681a.368.368,0,0,1-.242-.644c1.065-.932,1.3-3.471.509-5.433a4.244,4.244,0,0,0-4.3-2.841.351.351,0,0,1-.385-.349.367.367,0,0,1,.348-.385,4.953,4.953,0,0,1,5.021,3.3c.93,2.3.613,5.108-.706,6.262a.368.368,0,0,1-.242.091" transform="translate(-6450.761 -9283.202)" fill="#b24e00"/>
        <path id="Trazado_124902" data-name="Trazado 124902" d="M37.664,62.628A.367.367,0,0,1,37.3,62.3c-.229-2.071.425-2.537,1.513-3.125a6.025,6.025,0,0,0,2.039-1.611.368.368,0,0,1,.57.465,6.762,6.762,0,0,1-2.259,1.791c-.906.49-1.319.714-1.132,2.4a.368.368,0,0,1-.325.406l-.041,0" transform="translate(-6444.608 -9281.021)" fill="#b24e00"/>
        <path id="Trazado_124903" data-name="Trazado 124903" d="M25.9,66.473a.367.367,0,0,1-.346-.492c.713-1.989,1.437-3.047,2.348-3.431a3.425,3.425,0,0,1,2.788.39.367.367,0,0,1-.306.668,2.817,2.817,0,0,0-2.2-.381c-.694.293-1.312,1.247-1.941,3a.367.367,0,0,1-.346.243" transform="translate(-6440.725 -9282.66)" fill="#b24e00"/>
        <path id="Trazado_124904" data-name="Trazado 124904" d="M43.17,206.5c-3.428.931-5.811-6.7-11.494-8.352s-11.138-7.863-12.734-16.781S8.968,160.012,8.968,156.5s-4.054-21.08-1.622-23.782,11.6-10.27,11.6-10.27l12.734,5.134s4.539,4.595,4.023,6.216-2.456,3.783,0,5.405,4.888,3.242,4.888,3.242-3.243-4.594-2.7-7.837-1.549-8.107-1.549-8.107,4.552-2.7,6.834-1.352a23.757,23.757,0,0,1,7.147,7.838c1.351,2.7,5.268,17.034,7.363,21.708C58.7,156.968,73.6,185.1,72.016,187.389c-1.194,1.724-9.906,4.512-9.906,4.512S52.151,204.056,43.17,206.5" transform="translate(-6434.445 -9302.552)" fill="#bc994e"/>
        <g id="Grupo_88107" data-name="Grupo 88107" transform="translate(-6421.214 -9151.123)" opacity="0.5" style="mix-blend-mode: multiply;isolation: isolate">
          <g id="Grupo_88106" data-name="Grupo 88106">
            <g id="Grupo_88105" data-name="Grupo 88105" clip-path="url(#clip-path-12)">
              <path id="Trazado_124905" data-name="Trazado 124905" d="M60.978,169.046c-.478-1.067-.853-2.175-1.269-3.265a12.226,12.226,0,0,1-.484,3.949c-.292,1.756.585,3.377.926,5.068.761,3.769-1.126,7.613-.837,11.447a5.775,5.775,0,0,1-.037,2.2A4.528,4.528,0,0,1,57.2,190.6c-1.53.992-.229,3.963-1.463,5.294-.836.9-2.993,2.321-3.611,3.428,2.625,2.82,1.9,4.666-.217,8.28-2.3,3.935-8.131,5.837-12.093,3.171a3.157,3.157,0,0,1-.534-.409l-.217-.085c-.524-.21-1.059-.391-1.583-.6a15.474,15.474,0,0,1-7.292-5.492c-1.326-1.851-.877-4.483-1.953-6.489-.684-1.275-1.89-1.952-2.61-3.232a27.885,27.885,0,0,1-1.942-4.275c-.455-1.271-.577-2.657-.972-3.941-.031-.027-.054-.045-.094-.082-.426-.389-.831-.8-1.268-1.172-1.584-1.368-3.295-2.573-4.816-4,2.328,4.722,4.9,10.173,5.711,14.713,1.6,8.919,7.052,15.135,12.734,16.782s8.067,9.283,11.494,8.352c8.98-2.44,18.94-14.593,18.94-14.593s8.712-2.789,9.906-4.513C76.9,199.452,62,171.32,60.978,169.046" transform="translate(-16.529 -165.781)" fill="#bc994e"/>
            </g>
          </g>
        </g>
        <path id="Trazado_124906" data-name="Trazado 124906" d="M32.46,132.89s-11.747-7.725-12.721-8.93,4.905-5.885,4.905-5.885,8.527,7.586,11.357,8.059S33.79,126,32.46,132.89" transform="translate(-6438.771 -9301.105)" fill="#bc994e"/>
        <path id="Trazado_124907" data-name="Trazado 124907" d="M55.551,131.3s-3.925-5.018-6.959-4.367c-.608-2.524,1.627-4.484,1.627-4.484l3.076,2.7s-.311,2.7,2.257,6.15" transform="translate(-6448.328 -9302.553)" fill="#bc994e"/>
        <path id="Trazado_124908" data-name="Trazado 124908" d="M32.332,135.989a.362.362,0,0,1-.2-.06c-1.208-.795-11.823-7.792-12.805-9.006a.367.367,0,1,1,.571-.461c.736.91,8.655,6.226,12.188,8.557.945-4.058,3.2-5.417,4.078-5.942a2.131,2.131,0,0,0,.266-.17.361.361,0,0,1,.51-.047.374.374,0,0,1,.047.524,1.684,1.684,0,0,1-.445.322c-.911.548-3.046,1.833-3.848,5.986a.371.371,0,0,1-.219.269.364.364,0,0,1-.142.029" transform="translate(-6438.643 -9303.837)" fill="#9c7f41"/>
        <path id="Trazado_124909" data-name="Trazado 124909" d="M55.421,132.82a.364.364,0,0,1-.289-.141c-.038-.048-3.812-4.827-6.593-4.234a.367.367,0,1,1-.154-.718c1.742-.375,3.7.916,5.154,2.21a7.918,7.918,0,0,1-.739-3.676.359.359,0,0,1,.406-.322.368.368,0,0,1,.324.405c0,.025-.251,2.619,2.186,5.89a.367.367,0,0,1-.295.587" transform="translate(-6448.198 -9303.707)" fill="#9c7f41"/>
        <path id="Trazado_124910" data-name="Trazado 124910" d="M75.613,188.542a.368.368,0,0,1-.326-.2,45.8,45.8,0,0,0-6.36-9.2c-.243-.272-.49-.542-.736-.814a13.91,13.91,0,0,1-4.607-9.142c-.086-.5-.173-1-.274-1.491a26.65,26.65,0,0,0-4.755-10.6.367.367,0,1,1,.589-.44,27.4,27.4,0,0,1,4.887,10.9c.1.5.189,1.006.278,1.512a17.921,17.921,0,0,0,1.118,4.289,17.954,17.954,0,0,0,3.309,4.484c.248.274.5.546.741.821A46.5,46.5,0,0,1,75.939,188a.367.367,0,0,1-.326.538" transform="translate(-6451.638 -9313.832)" fill="#9c7f41"/>
        <path id="Trazado_124911" data-name="Trazado 124911" d="M89.737,184.657a.368.368,0,0,1-.321-.188A154.318,154.318,0,0,1,79.331,162.6a.367.367,0,0,1,.689-.253A153.524,153.524,0,0,0,90.058,184.11a.368.368,0,0,1-.321.546" transform="translate(-6458.535 -9315.687)" fill="#9c7f41"/>
        <path id="Trazado_124912" data-name="Trazado 124912" d="M45.514,188.743h-.036a.368.368,0,0,1-.33-.4,87.21,87.21,0,0,0,.322-11.913.369.369,0,0,1,.352-.383.38.38,0,0,1,.383.352,87.921,87.921,0,0,1-.325,12.013.368.368,0,0,1-.365.332" transform="translate(-6447.222 -9320.305)" fill="#9c7f41"/>
        <path id="Trazado_124913" data-name="Trazado 124913" d="M26.789,200.656a.363.363,0,0,1-.223-.076,12.622,12.622,0,0,1-4.785-8.155c-.03-.211-.056-.423-.081-.635a6.62,6.62,0,0,0-.457-2.041,6.625,6.625,0,0,0-1.159-1.566l-.1-.108a45.584,45.584,0,0,1-7.705-11.9.367.367,0,0,1,.671-.3,44.87,44.87,0,0,0,7.58,11.712l.1.107a7.3,7.3,0,0,1,1.278,1.746,7.273,7.273,0,0,1,.52,2.266c.025.207.049.412.079.617A11.878,11.878,0,0,0,27.013,200a.368.368,0,0,1-.223.659" transform="translate(-6436.327 -9320.174)" fill="#9c7f41"/>
        <path id="Trazado_124914" data-name="Trazado 124914" d="M50.931,180.746a.363.363,0,0,1-.24-.09c-1.512-1.311-1.6-3.359-1.685-5.341-.078-1.829-.153-3.555-1.246-4.73-.127-.137-.266-.263-.4-.389a4.248,4.248,0,0,1-1.516-3.739c-.029-.336-.058-.671-.105-1-.354-2.424-1.885-4.559-3.234-6.443L39.406,154.7a.367.367,0,0,1,.6-.427L43.1,158.59c1.4,1.952,2.984,4.163,3.364,6.764.049.34.08.69.11,1.041a4.9,4.9,0,0,0,.75,2.724,4.848,4.848,0,0,0,.529.534c.154.14.306.28.447.432,1.277,1.374,1.361,3.318,1.441,5.2.082,1.909.16,3.715,1.432,4.817a.367.367,0,0,1-.24.645" transform="translate(-6445.297 -9313.043)" fill="#9c7f41"/>
        <path id="Trazado_124915" data-name="Trazado 124915" d="M78.127,176.485a.356.356,0,0,1-.155-.035.367.367,0,0,1-.178-.488,15.539,15.539,0,0,0,1.443-6.523.367.367,0,1,1,.734,0,16.288,16.288,0,0,1-1.512,6.833.367.367,0,0,1-.333.213" transform="translate(-6458.023 -9317.995)" fill="#9c7f41"/>
        <path id="Trazado_124916" data-name="Trazado 124916" d="M137.865,179.035a.349.349,0,0,1-.07-.007.367.367,0,0,1-.292-.429l6.351-33.169a.367.367,0,1,1,.722.138l-6.35,33.168a.369.369,0,0,1-.36.3" transform="translate(-6477.806 -9310.066)" fill="#003c59"/>
        <path id="Trazado_124917" data-name="Trazado 124917" d="M43.192,83.851a.368.368,0,0,1-.367-.36c-.035-1.649-.8-2.176-2.176-3.133l-.386-.269a.367.367,0,1,1,.422-.6l.382.266c1.423.985,2.451,1.7,2.493,3.721a.367.367,0,0,1-.359.375Z" transform="translate(-6445.552 -9288.303)" fill="#b24e00"/>
        <path id="Trazado_124918" data-name="Trazado 124918" d="M61.294,221.213c.863,3.851.221,12.98,5.462,17.634,2.844,2.526,10.331,4.119,19.932,4.119s17.223-2.092,23.709-13.037,17.781-34.255,17.781-34.255,8.974,12.457,12.217,15.552S156,227.7,156,227.7s8.918-19.864,16.823-21.08c-7.094-4.662-22.3-18.445-26.755-24.323s-8.513-12.162-11.35-13.58-10.742-3.648-14.8.811-34.385,41-36.153,41.7a13.149,13.149,0,0,1-11.1-.958Z" transform="translate(-6452.569 -9317.271)" fill="#5c2e27"/>
        <g id="Grupo_88110" data-name="Grupo 88110" transform="translate(-6325.545 -9130.474)" style="mix-blend-mode: multiply;isolation: isolate">
          <g id="Grupo_88109" data-name="Grupo 88109">
            <g id="Grupo_88108" data-name="Grupo 88108" clip-path="url(#clip-path-13)">
              <path id="Trazado_124919" data-name="Trazado 124919" d="M161.513,204.86a.366.366,0,0,1-.288-.139c-1-1.263-1.552-6.605-1.651-7.664a.367.367,0,1,1,.732-.069c.278,2.947.863,6.481,1.495,7.277a.367.367,0,0,1-.288.6" transform="translate(-159.573 -196.656)" fill="#5c2e27"/>
            </g>
          </g>
        </g>
        <path id="Trazado_124920" data-name="Trazado 124920" d="M50.995,210.761s2.216,6.118,5.385,7.251,5.255-1.263,9.256-2.434,10.686-5.946,14.722-9.424,12.707-15.981,15.609-17.5a23.024,23.024,0,0,0,7.2-6.1c1.516-1.868,1.3-6.412-.43-7.628,1.313-1.825,2.7-2.277.43-4.393,1.825-1.622,4.637-4.6,2.484-5.051-.538-.114-4.236,2.766-9.406,4.9-2.112.871-5.372,1.3-6.621,7.19-.912,4.3-1.505,7.3-6.756,11.08-5.1,3.672-10.267,6.135-12.126,6.54s-9.03,3.129-9.03,3.129-10.983,2.729-10.714,12.437" transform="translate(-6449.156 -9316.806)" fill="#fa9d78"/>
        <path id="Trazado_124921" data-name="Trazado 124921" d="M124.472,175.441a.367.367,0,0,1-.247-.639,11.187,11.187,0,0,1,2.549-1.809.367.367,0,1,1,.35.645,10.418,10.418,0,0,0-2.4,1.708.367.367,0,0,1-.247.1" transform="translate(-6473.372 -9319.277)" fill="#de7752"/>
        <path id="Trazado_124922" data-name="Trazado 124922" d="M125.312,182.6a.363.363,0,0,1-.354-.439c.093-.385.533-.779,1.519-1.358a.367.367,0,0,1,.372.633c-1.04.611-1.162.857-1.176.9a.387.387,0,0,1-.36.265" transform="translate(-6473.65 -9321.862)" fill="#de7752"/>
        <path id="Trazado_124923" data-name="Trazado 124923" d="M126.645,189.218a.368.368,0,0,1-.284-.6c.181-.218.447-.583.714-.948s.553-.756.74-.982a.367.367,0,0,1,.566.468c-.181.219-.447.584-.713.949s-.553.755-.74.982a.367.367,0,0,1-.284.134" transform="translate(-6474.091 -9323.784)" fill="#de7752"/>
        <path id="Trazado_124924" data-name="Trazado 124924" d="M240.31,256.383l.133-.562a7.431,7.431,0,0,0,.251-1.812,15.073,15.073,0,0,0-.2-2.322l-.08-.457a8.406,8.406,0,0,1-.192-1.836,2.844,2.844,0,0,1,1.067-2.244,2.894,2.894,0,0,1,.961-.428,2.575,2.575,0,0,1,2.454.4,2.418,2.418,0,0,1,.694,1.827,7.492,7.492,0,0,1-1.473,3.808l-.915,1.462c-.482.775-1.14,1.836-2.138,2.043Zm2.871-9.054a2.868,2.868,0,0,0-.736.1,2.215,2.215,0,0,0-.724.316,2.121,2.121,0,0,0-.76,1.678,7.628,7.628,0,0,0,.18,1.675l.082.468a15.563,15.563,0,0,1,.207,2.437,6.9,6.9,0,0,1-.111,1.228,6.01,6.01,0,0,0,1.071-1.4l.916-1.464a6.837,6.837,0,0,0,1.361-3.42,1.765,1.765,0,0,0-.457-1.284,1.5,1.5,0,0,0-1.029-.338" transform="translate(-6511.828 -9343.668)" fill="#003c59"/>
        <path id="Trazado_124925" data-name="Trazado 124925" d="M243.081,258.366a3.925,3.925,0,0,1-1.1-.132l-.615-.177.464-.442a3.185,3.185,0,0,1,1.132-.591,3.682,3.682,0,0,0,.823-.375,12.473,12.473,0,0,0,1.1-.9c.244-.217.489-.433.743-.638a17.145,17.145,0,0,1,4.989-2.559,3.207,3.207,0,0,1,3.043.041,2.52,2.52,0,0,1,.861,2.014,3.282,3.282,0,0,1-1.631,3.064,4.72,4.72,0,0,1-1.938.369l-7.255.31c-.2.008-.409.017-.615.017m1.128-1.116a3.4,3.4,0,0,1-.749.373l.2-.009.074,0,7.18-.306a4.084,4.084,0,0,0,1.64-.292,2.611,2.611,0,0,0,1.225-2.392,1.839,1.839,0,0,0-.575-1.445c-.607-.468-1.573-.21-2.347.068a16.485,16.485,0,0,0-4.777,2.44c-.245.2-.48.406-.715.615a13.577,13.577,0,0,1-1.16.953" transform="translate(-6512.208 -9345.52)" fill="#003c59"/>
        <path id="Trazado_124926" data-name="Trazado 124926" d="M45.715,220.847a.366.366,0,0,1-.3-.15c-.264-.2-1.722-.951-2.7-1.453-1.065-.548-1.726-.892-1.919-1.027a23.776,23.776,0,0,1-4.366-3.9c-3.082-3.562-.445-6.8,2.2-9.22,1.087-1,2.127-2.168,3.228-3.406,2.227-2.505,4.53-5.1,7.414-6.4a4.481,4.481,0,0,1,1.7-.294l4.443-.167a.379.379,0,0,1,.357.238c.631,1.677,2.152,3.186,3.622,4.646,1.757,1.744,3.274,3.25,3.064,4.833a3.511,3.511,0,0,1-2.053,2.411.367.367,0,1,1-.365-.637c1.051-.6,1.6-1.213,1.69-1.871.161-1.223-1.3-2.677-2.854-4.216a16.329,16.329,0,0,1-3.693-4.662L51,195.73a3.844,3.844,0,0,0-1.421.229c-2.741,1.237-4.991,3.768-7.166,6.216a47.3,47.3,0,0,1-3.282,3.459c-2.546,2.334-4.791,5.132-2.14,8.2a23.135,23.135,0,0,0,4.232,3.782c.162.112,1.012.552,1.835.976,3.006,1.55,3.007,1.58,3.021,1.871a.367.367,0,0,1-.348.385h-.019" transform="translate(-6443.877 -9326.525)" fill="#9c7f41"/>
        <path id="Trazado_124927" data-name="Trazado 124927" d="M47.828,97.139a1.091,1.091,0,1,1,1.079,1.251,1.175,1.175,0,0,1-1.079-1.251" transform="translate(-6448.11 -9293.756)" fill="#5c0c00"/>
        <path id="Trazado_124928" data-name="Trazado 124928" d="M61.261,100.578a.933.933,0,1,1,.512,1.33,1.014,1.014,0,0,1-.512-1.33" transform="translate(-6452.535 -9295.056)" fill="#5c0c00"/>
        <path id="Trazado_124929" data-name="Trazado 124929" d="M64.357,97.392a.727.727,0,0,1-.443-.149,4.146,4.146,0,0,0-2.072-.811.735.735,0,1,1,.143-1.462,5.549,5.549,0,0,1,2.816,1.1.735.735,0,0,1-.444,1.32" transform="translate(-6452.532 -9293.45)" fill="#771000"/>
        <path id="Trazado_124930" data-name="Trazado 124930" d="M48.128,93.883a.735.735,0,0,1-.076-1.465,16.344,16.344,0,0,1,3.225-.014.735.735,0,0,1-.139,1.463,14.825,14.825,0,0,0-2.933.013.752.752,0,0,1-.077,0" transform="translate(-6447.966 -9292.579)" fill="#771000"/>
        <path id="Trazado_124931" data-name="Trazado 124931" d="M55.4,106.434a.367.367,0,0,1-.029-.734l1.942-.156.044,0c0-.009,0-.019,0-.029-.06-.538-.161-1.087-.259-1.617-.09-.484-.179-.967-.242-1.454a5.752,5.752,0,0,1,.86-4.467.367.367,0,1,1,.575.456,5.082,5.082,0,0,0-.706,3.917c.062.474.148.944.235,1.415.1.543.2,1.1.268,1.67a.766.766,0,0,1-.122.583.782.782,0,0,1-.59.263l-1.942.157H55.4" transform="translate(-6450.496 -9294.401)" fill="#de7752"/>
        <path id="Trazado_124932" data-name="Trazado 124932" d="M53.408,107.823a.374.374,0,0,1-.081-.009.367.367,0,0,1-.277-.439l.237-1.059a.368.368,0,0,1,.718.16l-.239,1.06a.366.366,0,0,1-.358.287" transform="translate(-6449.835 -9297.116)" fill="#de7752"/>
        <path id="Trazado_124933" data-name="Trazado 124933" d="M52.854,113.988a.755.755,0,0,1-.078,0,5.073,5.073,0,0,1-3.147-1.312.735.735,0,0,1,1.087-.988,3.753,3.753,0,0,0,2.213.839.735.735,0,0,1-.076,1.465" transform="translate(-6448.643 -9298.908)" fill="#de7752"/>
        <path id="Trazado_124934" data-name="Trazado 124934" d="M34.009,96.691a1.357,1.357,0,0,1-.493-.092.275.275,0,1,1,.2-.513.819.819,0,0,0,.617-.013c.056-.066-.02-.191-.065-.266a.917.917,0,0,1-.181-.764.693.693,0,0,1,.593-.441l.007-1.41a.275.275,0,0,1,.276-.274h0a.275.275,0,0,1,.275.276l-.007,1.657a.276.276,0,0,1-.266.274c-.324.011-.354.092-.355.092-.019.057.071.207.131.306a.719.719,0,0,1,.084.856.665.665,0,0,1-.27.2,1.345,1.345,0,0,1-.547.115" transform="translate(-6443.311 -9292.772)" fill="#de7752"/>
      </g>
    </g>
    <rect id="Rectángulo_35987" data-name="Rectángulo 35987" width="190" height="243" transform="translate(600 1501)" fill="none"/>
  </g>
</svg>
