<svg xmlns="http://www.w3.org/2000/svg" xmlns:xlink="http://www.w3.org/1999/xlink" width="89" height="104" viewBox="0 0 89 104">
  <defs>
    <clipPath id="clip-path">
      <rect id="Rectángulo_35841" data-name="Rectángulo 35841" width="61.006" height="61.175" fill="none"/>
    </clipPath>
    <clipPath id="clip-path-2">
      <rect id="Rectángulo_35842" data-name="Rectángulo 35842" width="60.629" height="61.175" fill="none"/>
    </clipPath>
    <clipPath id="clip-path-3">
      <rect id="Rectángulo_35843" data-name="Rectángulo 35843" width="31.305" height="61.174" fill="none"/>
    </clipPath>
    <clipPath id="clip-path-4">
      <rect id="Rectángulo_35844" data-name="Rectángulo 35844" width="45.169" height="61.174" fill="none"/>
    </clipPath>
  </defs>
  <g id="Grupo_87853" data-name="Grupo 87853" transform="translate(8733 10274)">
    <g id="Grupo_87824" data-name="Grupo 87824" transform="translate(-8719 -10257)">
      <g id="Grupo_87813" data-name="Grupo 87813" transform="translate(0.96 2.2)" opacity="0.76">
        <g id="Grupo_87812" data-name="Grupo 87812" transform="translate(0 0)">
          <g id="Grupo_87811" data-name="Grupo 87811" clip-path="url(#clip-path)">
            <path id="Trazado_124242" data-name="Trazado 124242" d="M61.006,39.15v61.175H4.889L0,39.15Z" transform="translate(0 -39.15)" fill="#f0f4f7"/>
          </g>
        </g>
      </g>
      <path id="Trazado_124243" data-name="Trazado 124243" d="M1.715,138.591h3.57a2.046,2.046,0,0,1,1.119.344v25.782H4.329a2.142,2.142,0,0,1-2.084-1.894L.01,140.485a1.684,1.684,0,0,1,1.7-1.894" transform="translate(55.563 -98.714)" fill="#784e48"/>
      <path id="Trazado_124244" data-name="Trazado 124244" d="M101.078,164.717h3.57a1.684,1.684,0,0,0,1.7-1.894l-2.235-22.337a2.142,2.142,0,0,0-2.084-1.894h-3.57a1.684,1.684,0,0,0-1.7,1.894l2.235,22.337a2.142,2.142,0,0,0,2.084,1.894" transform="translate(-81.053 -98.714)" fill="#784e48"/>
      <path id="Trazado_124245" data-name="Trazado 124245" d="M3.213,46.577H44.7V49H3.406l4.369,54.525c-.818-.068-1.637-.133-2.451-.2L.974,49,.78,46.577,0,38.284l2.432-.023" transform="translate(17.267 -36.398)" fill="#e86f3f"/>
      <path id="Trazado_124257" data-name="Trazado 124257" d="M105.1,109.474a.881.881,0,0,1,.942.113.044.044,0,0,1-.046.076.791.791,0,0,0-.718-.109c-.263.122-.271.335-.263.587a.064.064,0,0,1-.109.042c-.21-.21-.018-.576.194-.709" transform="translate(-83.803 -80.571)" fill="#282738"/>
      <g id="Grupo_87823" data-name="Grupo 87823" transform="translate(18.433 23.438)">
        <path id="Trazado_124246" data-name="Trazado 124246" d="M70.936,133.429c2.814,2.984,8.3,18.961,8.959,22.846a4.911,4.911,0,0,1-.421,2.262c0,.281-.49.228-.439-.058.522-2.9-1.2-5.78-1.846-8.552-.731-3.157-13.173-15.446-13.815-18.633-.091-.453,4.362-1.259,7.561,2.134" transform="translate(-60.402 -118.496)" fill="#f0b665"/>
        <path id="Trazado_124247" data-name="Trazado 124247" d="M79.377,160.067c.146,1.068-2.865,4.33-4.329,3.653-.64-.3-.23-2.522-.42-3.078-.949-2.792-.427-5.756-.94-8.645-.843-4.75-3-9.048-5.237-13.277a4.916,4.916,0,0,0-1.751-1.9c-.08-.052-.163-.1-.246-.146-1.675-.942-3.489-.843-3.647-1.756-.039-.21,2.888-1.175,4.757-.62a4.451,4.451,0,0,1,1.21.863c.067.06,1.3,1.149,1.376,1.213,1.679,1.547,8.759,20.272,9.227,23.7" transform="translate(-59.645 -120.515)" fill="#fff"/>
        <path id="Trazado_124248" data-name="Trazado 124248" d="M90.774,138.9a1.96,1.96,0,0,1-.471.655,3.056,3.056,0,0,1-1.9.673c-.076-.056-.156-.111-.237-.161a4.741,4.741,0,0,0,1.118-.206,1.794,1.794,0,0,0,1.29-1.162c.063.064.128.131.2.2" transform="translate(-80.645 -123.354)" fill="#e3d8c8"/>
        <path id="Trazado_124249" data-name="Trazado 124249" d="M93.091,108.377c.013.055.026.111.036.168a9.125,9.125,0,0,1,.175,2.039,19.078,19.078,0,0,0,.761,1.8c.033.132-.817.551-.817.551s0,.223-.006.543c0,.059-.005.124-.007.191s-.006.128-.013.194c0,.043,0,.086,0,.131a.19.19,0,0,0,0,.034c0,.077-.009.155-.017.233-.008.133-.023.27-.038.4a3.379,3.379,0,0,1-.246,1.07,1.378,1.378,0,0,1-1.148.428q-.229,0-.453-.008l-.266-.025c-.242-.025-.5-.068-.753-.119a.493.493,0,0,1-.061-.013c-.3-.061-.6-.139-.89-.228-.154-.047-.309-.1-.455-.153a5.492,5.492,0,0,1-1.751-.917,4.76,4.76,0,0,0-.618-.4.159.159,0,0,1-.042-.023,5.5,5.5,0,0,1-1.533-1.092c-.8-1.7-2.006-3.529-.946-5.339a4.689,4.689,0,0,1,2.9-2.144c.125-.038.259-.067.39-.1a6.32,6.32,0,0,1,1.57-.1c.106.006.215.014.322.028.145.014.285.036.424.062.077.012.156.029.238.048a5.63,5.63,0,0,1,1.192.4c.052.027.1.05.148.075a3.5,3.5,0,0,1,1.913,2.269" transform="translate(-82.196 -102.724)" fill="#d17a4b"/>
        <path id="Trazado_124250" data-name="Trazado 124250" d="M95.894,126.7a10.058,10.058,0,0,1,.425,2.446c.008.078.014.15.019.223.062.694.094,1.246.094,1.246a6.139,6.139,0,0,1-2.04.391,4.8,4.8,0,0,1-2.79-1.159l-.348-1.959-.006-.034a.967.967,0,0,1,.5-.566c.044-.028.091-.056.142-.084,1.214-.663,3.729-1.036,4-.505" transform="translate(-87.47 -115.747)" fill="#d17a4b"/>
        <path id="Trazado_124251" data-name="Trazado 124251" d="M86.879,120.649a.24.24,0,0,1-.4-.02c-.08-.173-.126-.746.2-.705.282.036.351.538.2.726" transform="translate(-76.163 -111.693)" fill="#473030"/>
        <path id="Trazado_124252" data-name="Trazado 124252" d="M85.432,117.425a1.707,1.707,0,0,1,.678-.235,2.6,2.6,0,0,1,.993-.049.234.234,0,0,1,.091.357c-.155.248-.424.141-.9.223-.21.037-.427.053-.705.1-.208.036-.315-.3-.16-.4" transform="translate(-76.047 -109.945)" fill="#373644"/>
        <path id="Trazado_124253" data-name="Trazado 124253" d="M84.442,106.325c-.265-1.226-.325-2.744.584-3.531.605-.525,1.08-1.281,1.792-1.264a.8.8,0,0,0,.7-.361,1.551,1.551,0,0,1,1.714-.815.808.808,0,0,0,.7-.1,1.72,1.72,0,0,1,2.366.738.8.8,0,0,0,.678.354,1.514,1.514,0,0,1,1.585,1.43.841.841,0,0,0,.31.623.911.911,0,0,1-.031,1.519.347.347,0,0,1-.306.059.635.635,0,0,1-.173-.138,4.006,4.006,0,0,0-.313-.309s-.053-.044-.05-.028a.618.618,0,0,1-.4.757,23.347,23.347,0,0,0-2.229.766,2.7,2.7,0,0,0-.468,1.038,3.267,3.267,0,0,0-.113,1.515c.052.374-.455.45-.726.422-.3-.031-.464-.841-.619-1.375a.372.372,0,0,1-.058-.01,3,3,0,0,0-.82.116c-.372.115-.288.175-.294.585-.007.444.485.745.725,1.1a7.607,7.607,0,0,1-.758,1.191c-.449.515-.8.872-.8.872s-1.115-1.19-1.153-1.247a6.684,6.684,0,0,1-1.841-3.906" transform="translate(-83.655 -99.329)" fill="#373644"/>
        <path id="Trazado_124254" data-name="Trazado 124254" d="M100.374,122.106s-.294-2.223-.33-2.263c0,0-1.1-.611-1.272.563-.095.645.665,1.516,1.6,1.7" transform="translate(-94.261 -111.546)" fill="#d17a4b"/>
        <path id="Trazado_124255" data-name="Trazado 124255" d="M97.551,112.326c.444.692,1.034.542,1.6.125a1.953,1.953,0,0,1,.489-.311.818.818,0,0,1,.641.036,1.21,1.21,0,0,1,.194.14c.312.208.663-.155.725-.527a1.969,1.969,0,0,1,.194-.351.928.928,0,0,1,.809-.4c.054,0,.05.08,0,.083a1.256,1.256,0,0,0-.854.725c-.051.113-.088.249-.149.356a.808.808,0,0,1-.277.34.452.452,0,0,1-.385.016c-.056-.018-.229-.164-.284-.184a.808.808,0,0,0-.84.093c-.393.243-.663.591-1.17.533a1.03,1.03,0,0,1-.827-.6.078.078,0,0,1,.136-.074" transform="translate(-95.614 -106.174)" fill="#282738"/>
        <path id="Trazado_124256" data-name="Trazado 124256" d="M90.8,105.5a1.473,1.473,0,0,1,2.691-.386,1.144,1.144,0,0,1,1.089-.414c.549.138.732.723.862,1.208.014.053-.067.071-.083.019-.134-.442-.238-.773-.668-.979a.857.857,0,0,0-1.135.382.1.1,0,0,1-.168,0,1.266,1.266,0,0,0-1.447-.713,1.867,1.867,0,0,0-1.028.938.062.062,0,0,1-.113-.05" transform="translate(-86.312 -102.051)" fill="#282738"/>
        <path id="Trazado_124258" data-name="Trazado 124258" d="M89.334,111.277c.613.121.635-.506,1.219-.657a3.206,3.206,0,0,1,.612.04.99.99,0,0,0,.914-.579c.037-.077.145-.044.112.035a1.137,1.137,0,0,1-1.109.724c-.327.011-.491-.035-.746.156-.11.082-.258.264-.38.341a.708.708,0,0,1-.644.074c-.073-.024-.056-.149.022-.134" transform="translate(-82.485 -105.555)" fill="#282738"/>
        <path id="Trazado_124259" data-name="Trazado 124259" d="M100.621,121.789a.783.783,0,0,1-.389-.256.8.8,0,0,1-.081-.639c.057-.128-.065-.213-.136-.1a.752.752,0,0,0,.047.807c.142.233.627.445.717.3.041-.064-.088-.086-.158-.113" transform="translate(-95.109 -112.202)" fill="#ab5729"/>
        <path id="Trazado_124260" data-name="Trazado 124260" d="M86.959,127.814a.224.224,0,0,0,0,.034c0,.077-.009.155-.017.233a1.481,1.481,0,0,1-.174,0,1.776,1.776,0,0,1-.913-.216.072.072,0,0,1,.038-.132c.328-.008.648.1.979.09a.347.347,0,0,0,.09-.011" transform="translate(-75.94 -116.546)" fill="#ab5729"/>
        <path id="Trazado_124261" data-name="Trazado 124261" d="M93.679,131.945c0,.074-.013.146-.022.217a3.157,3.157,0,0,1-1.995-1.143,2.009,2.009,0,0,1-.292-.6.051.051,0,0,1,.091-.043,3.49,3.49,0,0,0,1.448,1.275.488.488,0,0,0,.057.025,4.738,4.738,0,0,0,.713.267" transform="translate(-84.763 -118.174)" fill="#ab5729"/>
        <path id="Trazado_124262" data-name="Trazado 124262" d="M99.209,100.476c-.008.033-.018.068-.027.106-.025.1-.058.218-.1.342a4.925,4.925,0,0,1-.346.92,9.36,9.36,0,0,1-.635.953c-.057.072-.116.149-.177.223a8.747,8.747,0,0,1-.671.739c-.2.2-.418.4-.631.6l-.186.174a17.578,17.578,0,0,1-1.9,1.543c-.066.048-.13.09-.2.135-.2.13-.4.253-.6.364-.177.1-.339.222-.51.33-.207.127-.455.284-.721.425-.081.043-.164.083-.246.122a3.043,3.043,0,0,1-.794.289c-.606.111-.814-.319-1.191-.771a2.268,2.268,0,0,1-.585-1.763c.014-.1.2-.358.294-.588a.493.493,0,0,0,.041-.2c0-.271-.83-2.513.1-3.467a8.813,8.813,0,0,1,4.626-2.731c.2-.081.542.073.739.139.182.061.624.275.92.408.1.05.189.091.236.107a.114.114,0,0,0,.03.009,1.475,1.475,0,0,1,1.15.061c.6.277,1.567.766,1.384,1.524" transform="translate(-89.674 -98.205)" fill="#e05d54"/>
        <path id="Trazado_124263" data-name="Trazado 124263" d="M99,101.516c-.025.1-.058.218-.1.342a3.934,3.934,0,0,0-2.723-1.51,11.992,11.992,0,0,1-.749,1.163c-.054.07-.111.142-.165.213a5.815,5.815,0,0,1,2.655,2.007c-.057.072-.116.149-.177.223a7.42,7.42,0,0,0-2.563-2.123A9.672,9.672,0,0,1,94,103.077a22.339,22.339,0,0,1,2.447,2.218l-.186.174a23.241,23.241,0,0,1-2.365-2.3,12.059,12.059,0,0,1-1.707,1.228,32.822,32.822,0,0,1,2.171,2.614c-.066.048-.131.09-.2.135-.753-.838-1.414-1.791-2.078-2.688a15.6,15.6,0,0,1-1.649.836,5.749,5.749,0,0,0,1.9,2.972c-.081.043-.164.083-.246.123a5.432,5.432,0,0,1-1.745-3.053q-.263.115-.531.22a.5.5,0,0,0,.041-.2,13.111,13.111,0,0,0,5.458-4.08,10.106,10.106,0,0,0,.922-1.571c.1.05.189.091.236.107-.069.136-.138.273-.213.4a3.99,3.99,0,0,1,2.75,1.3" transform="translate(-89.49 -99.139)" fill="#c4463d"/>
        <path id="Trazado_124264" data-name="Trazado 124264" d="M78.618,137.127q.471.765.874,1.53A33.669,33.669,0,0,1,82.913,149.7c.67,4.207.984,8.5,2.2,13.107a19.511,19.511,0,0,1-6.344,1.6,16.125,16.125,0,0,1-4.9-.49,16.749,16.749,0,0,1-.577-2.12c-.023.006-.1.032-.216.065-.743.222-3.116-25.545-3.056-25.944a17.254,17.254,0,0,1,.643-2.939c.022-.069.048-.141.076-.209a6.28,6.28,0,0,1,.346-.782,4.391,4.391,0,0,0,2.222,1.007,10.459,10.459,0,0,1,3.745,2.468c.138.127.271.252.4.374a11.832,11.832,0,0,1,1.174,1.29" transform="translate(-68.107 -119.187)" fill="#f0b665"/>
        <path id="Trazado_124265" data-name="Trazado 124265" d="M86,149.386c-.023-.076.1-.11.128-.043.984,2.005,1.94,6.517,2.569,10.526-.079.017-.16.028-.238.041-.34-2.241-.7-4.4-.885-5.241-.4-1.805-1.044-3.517-1.574-5.283" transform="translate(-77.749 -129.945)" fill="#c78428"/>
        <path id="Trazado_124266" data-name="Trazado 124266" d="M81.5,182.13c.031.07-.089.125-.122.057-.428-.878-1.736-3.2-3.024-5.42.068-.04.139-.08.206-.125,1.282,2.182,2.375,4.229,2.94,5.488" transform="translate(-67.653 -146.923)" fill="#c78428"/>
        <path id="Trazado_124267" data-name="Trazado 124267" d="M88.861,176.738a.077.077,0,0,0-.138-.066,3.229,3.229,0,0,0-.288.432,2.94,2.94,0,0,0-1.018.657,9.487,9.487,0,0,0-1.056,1.043c-.088.1.049.257.141.156a9.489,9.489,0,0,1,.954-.922c.251-.209.552-.385.806-.6a13.875,13.875,0,0,0-.6,1.7.11.11,0,0,0,.209.067c.283-.828.767-1.625.986-2.465" transform="translate(-78.04 -146.923)" fill="#c78428"/>
        <path id="Trazado_124268" data-name="Trazado 124268" d="M96.547,137.433c-.552-.108-1.1-.277-1.632-.416a19.736,19.736,0,0,1-2.519-.811,10.99,10.99,0,0,1-2.949-1.877c.022-.069.048-.141.076-.209a15.511,15.511,0,0,0,6.627,2.94c.138.127.271.252.4.374" transform="translate(-86.903 -120.512)" fill="#c78428"/>
      </g>
      <g id="Grupo_87816" data-name="Grupo 87816" transform="translate(0.984 2.497)" opacity="0.28">
        <g id="Grupo_87815" data-name="Grupo 87815" transform="translate(0 0)">
          <g id="Grupo_87814" data-name="Grupo 87814" clip-path="url(#clip-path-2)">
            <path id="Trazado_124269" data-name="Trazado 124269" d="M61.562,39.935V101.11H5.821L.932,39.935Z" transform="translate(-0.932 -39.935)" fill="#d0e6f7"/>
          </g>
        </g>
      </g>
      <g id="Grupo_87819" data-name="Grupo 87819" transform="translate(0.984 2.497)" opacity="0.5">
        <g id="Grupo_87818" data-name="Grupo 87818" transform="translate(0 0)">
          <g id="Grupo_87817" data-name="Grupo 87817" clip-path="url(#clip-path-3)">
            <path id="Trazado_124270" data-name="Trazado 124270" d="M83.271,39.936C87.635,50.519,90.555,61.815,93.6,73.112A49.984,49.984,0,0,0,101.553,89.4q4.229,5.862,8.079,11.707h-5.043C96.952,86.9,87.774,73.344,79.862,59.146l-1.535-19.21Z" transform="translate(-78.327 -39.936)" fill="#e3f3ff"/>
          </g>
        </g>
      </g>
      <g id="Grupo_87822" data-name="Grupo 87822" transform="translate(16.445 2.497)" opacity="0.5">
        <g id="Grupo_87821" data-name="Grupo 87821" transform="translate(0 0)">
          <g id="Grupo_87820" data-name="Grupo 87820" clip-path="url(#clip-path-4)">
            <path id="Trazado_124271" data-name="Trazado 124271" d="M19.695,39.936c7.8,11.911,15.558,23.8,22.724,36.586,1.279,2.132,2.5,4.278,3.682,6.436v18.153H38.932A110.732,110.732,0,0,0,9.455,57.2c-3.031-3.031-6.062-6.82-6.82-10.988-.484-2.179-1.056-4.264-1.7-6.275Z" transform="translate(-0.932 -39.936)" fill="#e3f3ff"/>
          </g>
        </g>
      </g>
      <path id="Trazado_124272" data-name="Trazado 124272" d="M56.966,188.658v10.481H13.721L1.253,196.808l-.321-8.15Z" transform="translate(4.648 -129.812)" fill="#91747d"/>
      <path id="Trazado_124273" data-name="Trazado 124273" d="M62.545,33.344V38.5H1.648L.932,33.344Z" transform="translate(-0.932 -33.344)" fill="#91747d"/>
      <path id="Trazado_124274" data-name="Trazado 124274" d="M116,39.93l4.732,59.231H133.5L128.771,39.93Z" transform="translate(-115.487 -37.435)" fill="#91747d"/>
      <path id="Trazado_124281" data-name="Trazado 124281" d="M1.306,39.93v4.68L.932,39.93Z" transform="translate(60.307 -37.435)" fill="#91747d"/>
    </g>
    <rect id="Rectángulo_35857" data-name="Rectángulo 35857" width="89" height="104" transform="translate(-8733 -10274)" fill="none"/>
  </g>
</svg>
