<svg xmlns="http://www.w3.org/2000/svg" width="194" height="243" viewBox="0 0 194 243">
  <g id="Grupo_88130" data-name="Grupo 88130" transform="translate(-386 -688)">
    <g id="Grupo_87864" data-name="Grupo 87864">
      <g id="Grupo_87688" data-name="Grupo 87688">
        <path id="Rect치ngulo_34017" data-name="Rect치ngulo 34017" d="M0,0H96a77,77,0,0,1,77,77V184.116a0,0,0,0,1,0,0H0a0,0,0,0,1,0,0V0A0,0,0,0,1,0,0Z" transform="translate(395 725)" fill="#a6bbff"/>
        <g id="Grupo_87372" data-name="Grupo 87372" transform="translate(405.586 739.862)">
          <path id="Trazado_114646" data-name="Trazado 114646" d="M151.4,36.061C150.252,18.234,136.578,1.212,118.057.156c-21.272-1.63-40.8,10.036-61.986,10.159C45.267,11.241,35.134,7.1,24.6,5.768.823,4.9-2.8,32.842,1.635,50.856,20.34,135.78,152.7,124.226,151.4,36.061Z" transform="translate(151.414 108.742) rotate(180)" fill="#e1e8ff"/>
        </g>
      </g>
      <g id="Grupo_87684" data-name="Grupo 87684" transform="translate(386 737)">
        <path id="Trazado_121453" data-name="Trazado 121453" d="M54.041,147.994l128.569,2.781,22.635,16.734H80.718Z" transform="translate(-35.314 -96.709)" fill="#db7f2c"/>
        <g id="Grupo_87379" data-name="Grupo 87379" transform="translate(0 0)">
          <g id="Grupo_87381" data-name="Grupo 87381">
            <path id="Trazado_121454" data-name="Trazado 121454" d="M472.364,84.973c-4.16-1.981-7.785-.482-10.32,2.282a15.234,15.234,0,0,0-3.655,7.412,59.618,59.618,0,0,0,5.112,36.281l-12.993-8.363a64.168,64.168,0,0,1-4.209-19.1c-.253-6.545,1.054-13.264,4.552-18.8a23.013,23.013,0,0,1,6.966-7.1c.1-.072.2-.132.3-.193.2-.126.4-.241.6-.355a19.258,19.258,0,0,1,16.84-1.367c2.7,1.048,5.172,3.137,5.906,5.943.6,2.264.036,7.689-9.091,3.353" transform="translate(-291.622 -48.585)" fill="#666665"/>
            <path id="Trazado_121455" data-name="Trazado 121455" d="M295.693,125.391c-9.625,6.838-13.056,15.865-14.966,26.564,18.248,2.694,39.28,1.579,57.708.783-1.383-10.765-9.418-23.878-18.732-24.449-4.077,2.724-5.828-.638-10.726-.868s-9.032.411-13.285-2.03" transform="translate(-183.446 -81.939)" fill="#666665"/>
            <path id="Trazado_121456" data-name="Trazado 121456" d="M91.339,144.753a37.828,37.828,0,0,0-12.447,18.881,36.567,36.567,0,0,1,6.6,2.274,35.268,35.268,0,0,0,5.377,2.537,58.912,58.912,0,0,0,27.506,2.659c1.235-.176,13.413-2.468,13.251-3.572a101.47,101.47,0,0,0-6.655-24.367,37.846,37.846,0,0,1-15.466,4.492c-5.4.377-10.553-2.86-15.485-4.891q-1.386.931-2.682,1.987" transform="translate(-51.553 -93.293)" fill="#d0cdd3"/>
            <path id="Trazado_121457" data-name="Trazado 121457" d="M80.718,268.492,54.041,247.22V147.993l26.677,26.723Z" transform="translate(-35.314 -96.709)" fill="#db7f2c"/>
            <path id="Trazado_121458" data-name="Trazado 121458" d="M130.276,161.478l.491,96.59,121.5.421,2.539-97.011Z" transform="translate(-85.364 -86.284)" fill="#f49f4a"/>
            <path id="Trazado_121459" data-name="Trazado 121459" d="M45.4,167.508,23.4,183.718,0,161.021l18.727-13.028Z" transform="translate(0 -96.709)" fill="#f49f4a"/>
            <path id="Trazado_121460" data-name="Trazado 121460" d="M345,50.017a8,8,0,0,1-.933,1.613c-3.263,4.473-12.138,9.019-22.193,9.019a24.339,24.339,0,0,1-21.043-11.421c-.15-.247-.289-.488-.421-.728-2.113-3.9-.138-9.212,2.288-17.051s12-13.174,20.26-13.174,17.828,5.335,20.254,13.174,3.51,14.48,1.788,18.568" transform="translate(-195.72 -11.942)" fill="#666665"/>
            <path id="Trazado_121461" data-name="Trazado 121461" d="M346.548,102.543c-3.263,4.473-12.138,9.019-22.193,9.019a24.34,24.34,0,0,1-21.043-11.421c6.28-2.119,12.018-4.191,19.369-3.932a56.849,56.849,0,0,1,23.866,6.334" transform="translate(-198.205 -62.856)" fill="#ededed"/>
            <path id="Trazado_121462" data-name="Trazado 121462" d="M336.943,86.535c1.211-2.736,2.9-5.562,5.734-6.676a8.2,8.2,0,0,1,8.009,1.549,12.071,12.071,0,0,1,3.9,7.265Z" transform="translate(-220.181 -51.879)" fill="#ededed"/>
            <path id="Trazado_121463" data-name="Trazado 121463" d="M321.884,7.948A26.71,26.71,0,0,0,315.236.732a2.477,2.477,0,0,0-2.02-.683,2.5,2.5,0,0,0-1.273,1.159c-2.205,3.352-3.774,19.571-3.5,23.626Z" transform="translate(-201.534 0)" fill="#666665"/>
            <path id="Trazado_121464" data-name="Trazado 121464" d="M352.791,98.275c-.218,1.292-1.8,3.06-3.275.853a6.826,6.826,0,0,1-.694-2.429c-.1-.5-1.243-.681-1.239-.068a3.947,3.947,0,0,1-.689,2.346q-1.1,1.533-3.145.607a2.6,2.6,0,0,1-.645-1.747c-.034-.37-.886-.532-.991-.141-.534,2,1.341,3.229,3.125,3.249a3.22,3.22,0,0,0,2.891-1.9,2.865,2.865,0,0,0,2.193,1.87c1.819.273,3.291-.438,3.663-2.361.1-.523-1.107-.787-1.193-.276" transform="translate(-223.498 -62.893)" fill="#8b8493"/>
            <path id="Trazado_121465" data-name="Trazado 121465" d="M356.974,87.045a1.675,1.675,0,0,0-1.019-1.11,6.02,6.02,0,0,0-5.418.043,1.584,1.584,0,0,0-.832.8,1.511,1.511,0,0,0,.393,1.363,4.148,4.148,0,0,0,6.421.089,1.574,1.574,0,0,0,.455-1.189" transform="translate(-228.488 -55.749)" fill="#383836"/>
            <path id="Trazado_121466" data-name="Trazado 121466" d="M355.6,88.194a4.741,4.741,0,0,0-1.366-.121,3.09,3.09,0,0,0-.6.091,1.01,1.01,0,0,0-.755.522c-.149.28.174.478.41.536a3.474,3.474,0,0,0,2.651-.413c.363-.221-.131-.563-.345-.614" transform="translate(-230.577 -57.548)" fill="#666665"/>
            <path id="Trazado_121467" data-name="Trazado 121467" d="M364.981,88.523a.652.652,0,0,0-.827-.191c-.3.2.092.514.308.55.165.027.5.071.564-.158a.23.23,0,0,0-.045-.2" transform="translate(-237.892 -57.67)" fill="#666665"/>
            <path id="Trazado_121468" data-name="Trazado 121468" d="M357.5,103.643a9.985,9.985,0,0,1-.349,1.012,10.673,10.673,0,0,1-1.71,2.872,3.351,3.351,0,0,1-1.2,1,1.156,1.156,0,0,0-.139.042l-.229.054c-.018.006-.036.006-.054.012a.572.572,0,0,1-.1.012,1.872,1.872,0,0,1-1.349-.536,4.045,4.045,0,0,1-.849-1.2c-.048-.1-.1-.193-.138-.3a9.735,9.735,0,0,1-.777-2.48.516.516,0,0,1,.018-.343.58.58,0,0,1,.379-.217,4.053,4.053,0,0,0,2.709-2.559,4.663,4.663,0,0,0,3.787,2.631" transform="translate(-229.094 -66.008)" fill="#8b8493"/>
            <path id="Trazado_121469" data-name="Trazado 121469" d="M357.8,123.921c-1.14.382-2.371,1.113-3.524.337-.184-.124-.649,0-.4.238,1.217,1.161,3.092.7,4.368-.108.4-.252-.169-.56-.447-.467" transform="translate(-231.199 -80.967)" fill="#8b8493"/>
            <path id="Trazado_121470" data-name="Trazado 121470" d="M358.65,111.515a10.681,10.681,0,0,1-1.71,2.872,3.348,3.348,0,0,1-1.2,1,1.172,1.172,0,0,0-.138.042l-.229.054c-.018.006-.036.006-.054.012a.571.571,0,0,1-.1.012,1.872,1.872,0,0,1-1.349-.536,4.046,4.046,0,0,1-.849-1.2c-.048-.1-.1-.193-.139-.295a8.806,8.806,0,0,1,5.768-1.957" transform="translate(-230.597 -72.869)" fill="#ff9cc2"/>
            <path id="Trazado_121471" data-name="Trazado 121471" d="M392.906,69.385a5.548,5.548,0,0,0,.931-3.888,5.164,5.164,0,0,0-3.168-4.093,4.6,4.6,0,0,0-3.292-.121,5.013,5.013,0,0,0-3.586,4.825,5.091,5.091,0,0,0,9.116,3.277" transform="translate(-250.792 -39.886)" fill="#fff"/>
            <path id="Trazado_121472" data-name="Trazado 121472" d="M394.731,70.442a5.622,5.622,0,0,0,.619-3.259,4.308,4.308,0,0,0-2.105-3.43,2.477,2.477,0,0,0-2.188-.1,4.215,4.215,0,0,0-2.383,4.044,4.483,4.483,0,0,0,2.212,4.139,3.031,3.031,0,0,0,3.845-1.393" transform="translate(-253.984 -41.459)" fill="#7ad3cf"/>
            <path id="Trazado_121473" data-name="Trazado 121473" d="M399.452,67.208a1.148,1.148,0,0,1,1.414-.084,1.931,1.931,0,0,1,.745,1.3c.01.02.023.039.032.059.157.36-.263.7-.545.8-.895.331-1.512-.343-1.779-1.125a.862.862,0,0,1,.133-.954" transform="translate(-260.889 -43.731)" fill="#fff"/>
            <path id="Trazado_121474" data-name="Trazado 121474" d="M314.453,69.385a5.78,5.78,0,0,1-.884-3.888,5.131,5.131,0,0,1,3.007-4.093,4.165,4.165,0,0,1,3.125-.121,4.992,4.992,0,0,1,3.4,4.825,5.214,5.214,0,0,1-3.16,4.939,4.758,4.758,0,0,1-5.493-1.662" transform="translate(-204.883 -39.886)" fill="#fff"/>
            <path id="Trazado_121475" data-name="Trazado 121475" d="M320.55,70.442a5.876,5.876,0,0,1-.588-3.259,4.34,4.34,0,0,1,2-3.43,2.245,2.245,0,0,1,2.077-.1A4.25,4.25,0,0,1,326.3,67.7a4.544,4.544,0,0,1-2.1,4.139,2.811,2.811,0,0,1-3.65-1.393" transform="translate(-209.068 -41.459)" fill="#7ad3cf"/>
            <path id="Trazado_121476" data-name="Trazado 121476" d="M329.931,67.208a1.047,1.047,0,0,1,1.342-.084,1.955,1.955,0,0,1,.707,1.3c.01.02.022.039.03.059.149.36-.25.7-.517.8-.849.331-1.435-.343-1.689-1.125a.9.9,0,0,1,.127-.954" transform="translate(-215.466 -43.731)" fill="#fff"/>
            <path id="Trazado_121477" data-name="Trazado 121477" d="M341.2,22.5a5.685,5.685,0,0,0-2.721,1.023c-.217.135.262.474.442.376.829-.449,1.734-.636,2.581-1.024.277-.127-.154-.379-.3-.375" transform="translate(-221.148 -14.701)" fill="#383836"/>
            <path id="Trazado_121478" data-name="Trazado 121478" d="M383.376,21.5a4.2,4.2,0,0,0-.812.918c-.182.227.339.536.5.354a4.053,4.053,0,0,0,.779-1c.086-.216-.31-.377-.463-.275" transform="translate(-249.968 -14.028)" fill="#383836"/>
            <path id="Trazado_121479" data-name="Trazado 121479" d="M323.834,4.644c-.047-.113-.37-.2-.312-.035.876,2.52,1.347,5.14,2.156,7.667.048.151.528.349.505.1a28.158,28.158,0,0,0-2.35-7.736" transform="translate(-211.407 -2.951)" fill="#383836"/>
            <path id="Trazado_121480" data-name="Trazado 121480" d="M323.555,22a9.294,9.294,0,0,0-.9-1.009c-.15-.15-.563-.126-.343.126a9.859,9.859,0,0,1,.781,1.049,7.8,7.8,0,0,0,.669,1c.1.109.465.212.424-.04A2.855,2.855,0,0,0,323.555,22" transform="translate(-210.581 -13.656)" fill="#383836"/>
            <path id="Trazado_121481" data-name="Trazado 121481" d="M322.485,22.962c-.007-.177-.426-.351-.441-.13a4.168,4.168,0,0,0,.4,2.324c.07.129.449.245.409.006a17.456,17.456,0,0,1-.364-2.2" transform="translate(-210.433 -14.852)" fill="#383836"/>
            <path id="Trazado_121482" data-name="Trazado 121482" d="M318.641,32.677a6.361,6.361,0,0,0-1.859,2.574c-.095.239.436.5.553.27a15.035,15.035,0,0,1,1.681-2.576c.139-.174-.234-.384-.375-.268" transform="translate(-206.999 -21.332)" fill="#383836"/>
            <path id="Trazado_121483" data-name="Trazado 121483" d="M389.444,11.706a27.4,27.4,0,0,1,7.065-7.216,2.737,2.737,0,0,1,2.147-.683,2.609,2.609,0,0,1,1.353,1.159c2.344,3.353,4.011,19.571,3.724,23.627Z" transform="translate(-254.489 -2.456)" fill="#666665"/>
            <path id="Trazado_121484" data-name="Trazado 121484" d="M404.607,7.973c-1.636,2.454-3.65,5.186-4.61,8.033-.073.216.327.41.45.233.869-1.249,1.492-2.728,2.244-4.064s1.569-2.657,2.405-3.949c.123-.191-.355-.454-.489-.253" transform="translate(-261.379 -5.163)" fill="#383836"/>
            <path id="Trazado_121485" data-name="Trazado 121485" d="M404.6,29.918c-.648,0-1.31.118-1.955.184-.407.042.053.511.3.5.285-.014.575-.019.865-.028-.033.034-.069.064-.1.1-.176.2.245.458.411.371a8.786,8.786,0,0,0,.954-.612c.3-.211-.331-.513-.474-.513" transform="translate(-263.006 -19.551)" fill="#383836"/>
            <path id="Trazado_121486" data-name="Trazado 121486" d="M405.99,34.19a3.525,3.525,0,0,0-2.241-.829c-.43-.049-.137.453.147.485a13.387,13.387,0,0,1,1.891.62c.189.05.384-.085.2-.276" transform="translate(-263.695 -21.798)" fill="#383836"/>
            <path id="Trazado_121487" data-name="Trazado 121487" d="M410.2,41.1a7.663,7.663,0,0,0-1.643-1.847c-.709-.73-1.427-1.449-2.146-2.168-.221-.221-.837-.179-.5.2.67.743,1.34,1.485,2.021,2.217a9.717,9.717,0,0,0,1.885,1.836c.192.116.513.052.383-.233" transform="translate(-265.186 -24.144)" fill="#383836"/>
            <path id="Trazado_121488" data-name="Trazado 121488" d="M107.4,37.5a28.77,28.77,0,0,0-8.6-6.188,3.081,3.081,0,0,0-2.4-.359,2.783,2.783,0,0,0-1.28,1.376c-2.022,3.74-1.456,20.347-.563,24.391Z" transform="translate(-61.262 -20.146)" fill="#666665"/>
            <path id="Trazado_121489" data-name="Trazado 121489" d="M170.519,27.023a28.76,28.76,0,0,1,6.513-8.36,3.078,3.078,0,0,1,2.2-1.019,2.783,2.783,0,0,1,1.616.961c2.993,3.02,7.124,19.114,7.405,23.246Z" transform="translate(-111.429 -11.525)" fill="#666665"/>
            <path id="Trazado_121490" data-name="Trazado 121490" d="M94.375,58.556c1.357-8.26,10.42-15.056,18.905-16.275s19.094,2.752,22.721,10.3,5.3,14.556,4.122,18.931c-1.415,5.27-9.194,11.369-20.773,13.032S98.8,81.872,95,76.844c-2.734-3.613-1.978-10.029-.621-18.289" transform="translate(-60.871 -27.487)" fill="#d0cdd3"/>
            <path id="Trazado_121491" data-name="Trazado 121491" d="M156.813,122.619c-.033,1.334-1.372,3.346-3.178,1.334a6.946,6.946,0,0,1-1.052-2.347c-.171-.485-1.352-.507-1.259.111a4.024,4.024,0,0,1-.355,2.465q-.883,1.7-3.083,1.067a2.654,2.654,0,0,1-.9-1.668c-.087-.368-.97-.408-1.019,0-.25,2.091,1.819,3.061,3.621,2.822a3.28,3.28,0,0,0,2.639-2.337,2.917,2.917,0,0,0,2.482,1.568c1.873.012,3.254-.918,3.351-2.911.026-.542-1.23-.633-1.243-.105" transform="translate(-95.369 -79.231)" fill="#8b8493"/>
            <path id="Trazado_121492" data-name="Trazado 121492" d="M163.046,137.59a1.347,1.347,0,0,1-1.3-.177c-.222-.188-1.08-.06-.76.293a2.1,2.1,0,0,0,1.264.666,1.493,1.493,0,0,0,1.365-.349c.282-.35-.335-.479-.574-.433" transform="translate(-105.156 -89.738)" fill="#8b8493"/>
            <path id="Trazado_121493" data-name="Trazado 121493" d="M159.336,111.249a1.7,1.7,0,0,0-1.188-.972,6.13,6.13,0,0,0-5.455.828,1.613,1.613,0,0,0-.722.931,1.539,1.539,0,0,0,.593,1.318,4.224,4.224,0,0,0,6.486-.84,1.6,1.6,0,0,0,.286-1.264" transform="translate(-99.298 -71.863)" fill="#383836"/>
            <path id="Trazado_121494" data-name="Trazado 121494" d="M157.859,113.17a4.825,4.825,0,0,0-1.394.076,3.146,3.146,0,0,0-.587.177,1.029,1.029,0,0,0-.685.635c-.109.3.244.457.491.481a3.535,3.535,0,0,0,2.612-.8c.334-.276-.213-.549-.437-.57" transform="translate(-101.4 -73.94)" fill="#666665"/>
            <path id="Trazado_121495" data-name="Trazado 121495" d="M167.224,112.573a.664.664,0,0,0-.861-.073c-.274.249.167.5.391.509.17,0,.517,0,.545-.24a.236.236,0,0,0-.075-.2" transform="translate(-108.656 -73.432)" fill="#666665"/>
            <path id="Trazado_121496" data-name="Trazado 121496" d="M192.063,88.138a5.65,5.65,0,0,0,.375-4.054,5.26,5.26,0,0,0-3.786-3.667,4.688,4.688,0,0,0-3.337.355,5.106,5.106,0,0,0-2.917,5.383,5.186,5.186,0,0,0,9.664,1.984" transform="translate(-119.168 -52.447)" fill="#fff"/>
            <path id="Trazado_121497" data-name="Trazado 121497" d="M191.935,89.715a5.725,5.725,0,0,0,.152-3.375,4.388,4.388,0,0,0-2.619-3.153,2.522,2.522,0,0,0-2.221.215,4.293,4.293,0,0,0-1.817,4.422,4.567,4.567,0,0,0,2.83,3.853,3.087,3.087,0,0,0,3.675-1.961" transform="translate(-121.144 -54.254)" fill="#93c9ea"/>
            <path id="Trazado_121498" data-name="Trazado 121498" d="M190.8,87a1.169,1.169,0,0,0-1.437.121,1.966,1.966,0,0,0-.563,1.417c-.007.022-.018.043-.024.064-.106.386.367.667.666.731.95.2,1.474-.564,1.631-1.391A.878.878,0,0,0,190.8,87" transform="translate(-123.348 -56.727)" fill="#fff"/>
            <path id="Trazado_121499" data-name="Trazado 121499" d="M110.563,99.865a5.648,5.648,0,0,1-1.5-3.785,5.259,5.259,0,0,1,2.6-4.584,4.691,4.691,0,0,1,3.3-.6,5.105,5.105,0,0,1,4.314,4.344,5.185,5.185,0,0,1-8.715,4.623" transform="translate(-71.267 -59.348)" fill="#fff"/>
            <path id="Trazado_121500" data-name="Trazado 121500" d="M116.958,100.5a5.723,5.723,0,0,1-1.1-3.2,4.388,4.388,0,0,1,1.626-3.763,2.522,2.522,0,0,1,2.191-.419,4.293,4.293,0,0,1,2.988,3.732,4.566,4.566,0,0,1-1.631,4.493,3.087,3.087,0,0,1-4.078-.847" transform="translate(-75.708 -60.794)" fill="#7ad3cf"/>
            <path id="Trazado_121501" data-name="Trazado 121501" d="M121.474,96.96a1.169,1.169,0,0,0-1.437.121,1.966,1.966,0,0,0-.563,1.417c-.007.022-.018.043-.024.064-.106.386.367.667.666.731.95.2,1.474-.564,1.631-1.391a.878.878,0,0,0-.273-.942" transform="translate(-78.046 -63.233)" fill="#fff"/>
            <path id="Trazado_121502" data-name="Trazado 121502" d="M108.1,40.1a14.849,14.849,0,0,0-5.909-5.809c-.189-.1-.57.03-.3.23a28.13,28.13,0,0,1,5.6,5.657c.126.164.772.243.606-.078" transform="translate(-66.524 -22.382)" fill="#383836"/>
            <path id="Trazado_121503" data-name="Trazado 121503" d="M109.939,50.6a4.655,4.655,0,0,0-3.972-1.322c-.265.057.03.285.15.309a11.84,11.84,0,0,1,1.8.4,16.807,16.807,0,0,1,1.616.836c.163.081.64.054.412-.224" transform="translate(-69.176 -32.159)" fill="#383836"/>
            <path id="Trazado_121504" data-name="Trazado 121504" d="M108.153,56.583a5.321,5.321,0,0,0-1.769.922c-.408.317-1.2,1.011-1.067,1.579a.382.382,0,0,0,.5.208c.441-.209.684-.8,1.029-1.156a4.2,4.2,0,0,1,1.742-1.043c.466-.148-.138-.6-.439-.509" transform="translate(-68.811 -36.968)" fill="#383836"/>
            <path id="Trazado_121505" data-name="Trazado 121505" d="M186.878,19.275c-1.716,2.3-3.329,5.341-3.474,8.255-.01.208.479.336.557.13.468-1.234.741-2.532,1.216-3.769a25.76,25.76,0,0,1,2.246-4.334c.155-.248-.4-.477-.544-.282" transform="translate(-119.848 -12.548)" fill="#383836"/>
            <path id="Trazado_121506" data-name="Trazado 121506" d="M188.126,34.957a6.569,6.569,0,0,0-1.434,1.235,5.1,5.1,0,0,0-1.256,1.629c-.1.275.455.39.612.254a12.522,12.522,0,0,0,1.18-1.388c.428-.495,1-.905,1.379-1.427.169-.229-.321-.39-.481-.3" transform="translate(-121.168 -22.828)" fill="#383836"/>
            <path id="Trazado_121507" data-name="Trazado 121507" d="M190.974,44.443c-.184-.331-.6-.478-.924-.643-.479-.246-.978-.461-1.466-.691-.162-.076-.437-.144-.579.013s.062.347.194.413l1.295.648a2.914,2.914,0,0,0,1.312.453c.1,0,.235-.075.168-.193" transform="translate(-122.824 -28.117)" fill="#383836"/>
            <path id="Trazado_121508" data-name="Trazado 121508" d="M197.548,50.03a3.832,3.832,0,0,0-1.223-1.283,7.645,7.645,0,0,0-1.776-1.079c-.261-.1-.639.124-.317.355.5.358,1.039.65,1.527,1.031a17.266,17.266,0,0,0,1.418,1.117c.107.067.469.077.37-.139" transform="translate(-126.843 -31.132)" fill="#383836"/>
            <path id="Trazado_121509" data-name="Trazado 121509" d="M213.75,99.518c-2.321-8.043-12.121-13.723-20.691-13.933s-18.637,4.982-21.349,12.9-3.544,15.078-1.862,19.285c2.026,5.066,10.469,10.206,22.164,10.494s20.091-5.071,23.277-10.513c2.29-3.91.782-10.192-1.538-18.234" transform="translate(-110.421 -55.923)" fill="#ededed"/>
            <path id="Trazado_121510" data-name="Trazado 121510" d="M257.3,75.995a28.744,28.744,0,0,1,7.814-7.159,3.079,3.079,0,0,1,2.337-.639,2.777,2.777,0,0,1,1.433,1.216c2.449,3.476,3.845,20.033,3.434,24.154Z" transform="translate(-168.14 -44.525)" fill="#ededed"/>
            <path id="Trazado_121511" data-name="Trazado 121511" d="M228.232,154.848a9.136,9.136,0,0,0-18.119-.609,6.9,6.9,0,0,0,1.193,5.342,8.14,8.14,0,0,0,4.8,2.615,13.753,13.753,0,0,0,7.432-.406,7.311,7.311,0,0,0,3.848-2.818,6.656,6.656,0,0,0,.849-4.125" transform="translate(-137.234 -95.777)" fill="#d0cdd3"/>
            <path id="Trazado_121512" data-name="Trazado 121512" d="M189.627,74.186a28.763,28.763,0,0,0-7.453-7.534,3.079,3.079,0,0,0-2.3-.753,2.78,2.78,0,0,0-1.491,1.144c-2.616,3.352-4.822,19.82-4.614,23.957Z" transform="translate(-113.541 -43.037)" fill="#ededed"/>
            <path id="Trazado_121513" data-name="Trazado 121513" d="M219.988,166.933c.19,1.321,1.757,3.161,3.313.95a6.96,6.96,0,0,0,.768-2.455c.113-.5,1.283-.663,1.263-.038a4.022,4.022,0,0,0,.643,2.406q1.078,1.589,3.188.7a2.654,2.654,0,0,0,.7-1.763c.043-.376.915-.52,1.012-.119.494,2.047-1.446,3.254-3.263,3.229a3.279,3.279,0,0,1-2.9-2.009,2.918,2.918,0,0,1-2.279,1.849c-1.859.233-3.34-.528-3.671-2.5-.09-.535,1.147-.773,1.222-.251" transform="translate(-142.953 -107.811)" fill="#8b8493"/>
            <path id="Trazado_121514" data-name="Trazado 121514" d="M232.851,181.32a1.347,1.347,0,0,0,1.266-.329c.2-.213,1.065-.187.789.2a2.093,2.093,0,0,1-1.177.811,1.493,1.493,0,0,1-1.4-.186c-.321-.314.276-.515.518-.5" transform="translate(-151.761 -118.185)" fill="#8b8493"/>
            <path id="Trazado_121515" data-name="Trazado 121515" d="M232.375,155.505a1.706,1.706,0,0,0-1.065-1.105,6.132,6.132,0,0,0-5.515.179,1.614,1.614,0,0,0-.827.84,1.539,1.539,0,0,0,.434,1.378,4.224,4.224,0,0,0,6.54-.07,1.6,1.6,0,0,0,.433-1.222" transform="translate(-146.981 -100.524)" fill="#383836"/>
            <path id="Trazado_121516" data-name="Trazado 121516" d="M230.962,156.8a4.813,4.813,0,0,0-1.393-.089,3.134,3.134,0,0,0-.6.107,1.029,1.029,0,0,0-.756.55c-.144.288.189.482.431.536a3.537,3.537,0,0,0,2.688-.487c.365-.235-.147-.57-.367-.617" transform="translate(-149.104 -102.397)" fill="#666665"/>
            <path id="Trazado_121517" data-name="Trazado 121517" d="M240.494,156.966a.664.664,0,0,0-.847-.174c-.3.215.107.52.328.552.168.024.514.06.57-.175a.234.234,0,0,0-.051-.2" transform="translate(-156.532 -102.401)" fill="#666665"/>
            <path id="Trazado_121518" data-name="Trazado 121518" d="M185.153,136.6a5.647,5.647,0,0,1-.851-3.981,5.26,5.26,0,0,1,3.328-4.088,4.688,4.688,0,0,1,3.355-.041,5.1,5.1,0,0,1,3.531,5,5.185,5.185,0,0,1-9.363,3.108" transform="translate(-120.396 -83.777)" fill="#fff"/>
            <path id="Trazado_121519" data-name="Trazado 121519" d="M191.705,137.762a5.72,5.72,0,0,1-.548-3.333,4.387,4.387,0,0,1,2.229-3.44,2.521,2.521,0,0,1,2.23-.049,4.293,4.293,0,0,1,2.325,4.177,4.567,4.567,0,0,1-2.356,4.159,3.087,3.087,0,0,1-3.88-1.514" transform="translate(-124.886 -85.411)" fill="#7ad3cf"/>
            <path id="Trazado_121520" data-name="Trazado 121520" d="M267.43,138.629a5.648,5.648,0,0,0,1.045-3.935,5.26,5.26,0,0,0-3.123-4.246,4.689,4.689,0,0,0-3.349-.205,5.105,5.105,0,0,0-3.772,4.823,5.185,5.185,0,0,0,9.2,3.564" transform="translate(-168.74 -84.968)" fill="#fff"/>
            <path id="Trazado_121521" data-name="Trazado 121521" d="M267.4,139.623a5.725,5.725,0,0,0,.711-3.3,4.387,4.387,0,0,0-2.057-3.545,2.523,2.523,0,0,0-2.225-.158,4.292,4.292,0,0,0-2.527,4.058,4.566,4.566,0,0,0,2.149,4.27,3.088,3.088,0,0,0,3.951-1.322" transform="translate(-170.748 -86.54)" fill="#7ad3cf"/>
            <path id="Trazado_121522" data-name="Trazado 121522" d="M259.148,90.42a5.966,5.966,0,0,1,1.979.915c.231.182-.3.456-.471.381-.654-.282-1.274-.622-1.945-.871-.33-.123.212-.492.437-.425" transform="translate(-168.991 -59.081)" fill="#d0cdd3"/>
            <path id="Trazado_121523" data-name="Trazado 121523" d="M211.19,88.386a9.647,9.647,0,0,1,1.986-.59c.345-.062.389.266.082.385a9.79,9.79,0,0,1-2.065.566c-.3.045-.193-.281,0-.361" transform="translate(-137.885 -57.367)" fill="#d0cdd3"/>
            <path id="Trazado_121524" data-name="Trazado 121524" d="M270.462,77.983a14.849,14.849,0,0,1,5.183-6.464c.175-.126.57-.038.324.193a28.107,28.107,0,0,0-4.9,6.278c-.107.177-.738.332-.611-.007" transform="translate(-176.727 -46.698)" fill="#d0cdd3"/>
            <path id="Trazado_121525" data-name="Trazado 121525" d="M272.995,88.7a4.654,4.654,0,0,1,3.789-1.782c.27.025,0,.286-.112.325a11.8,11.8,0,0,0-1.735.61,16.771,16.771,0,0,0-1.506,1.021c-.152.1-.629.13-.435-.174" transform="translate(-178.363 -56.793)" fill="#d0cdd3"/>
            <path id="Trazado_121526" data-name="Trazado 121526" d="M276.488,94.963a5.32,5.32,0,0,1,1.865.707c.443.267,1.315.862,1.245,1.442a.382.382,0,0,1-.477.266c-.462-.155-.774-.715-1.157-1.027a4.182,4.182,0,0,0-1.853-.831c-.48-.092.066-.612.376-.558" transform="translate(-180.306 -62.053)" fill="#d0cdd3"/>
            <path id="Trazado_121527" data-name="Trazado 121527" d="M192.8,67.35c1.974,2.079,3.936,4.912,4.422,7.788.035.206-.435.391-.537.194-.61-1.17-1.034-2.427-1.652-3.6a25.753,25.753,0,0,0-2.74-4.04c-.182-.228.339-.521.507-.344" transform="translate(-125.632 -43.976)" fill="#d0cdd3"/>
            <path id="Trazado_121528" data-name="Trazado 121528" d="M194.95,82.884a6.573,6.573,0,0,1,1.569,1.058,5.087,5.087,0,0,1,1.44,1.47c.134.261-.406.441-.578.324a12.512,12.512,0,0,1-1.335-1.239c-.483-.441-1.1-.782-1.538-1.255-.194-.208.273-.425.442-.358" transform="translate(-127.074 -54.154)" fill="#d0cdd3"/>
            <path id="Trazado_121529" data-name="Trazado 121529" d="M193.863,92.077c.143-.35.542-.545.842-.747.447-.3.917-.573,1.374-.859.152-.095.417-.194.576-.055s-.02.351-.143.432l-1.21.8a2.908,2.908,0,0,1-1.249.6c-.1.008-.242-.046-.19-.172" transform="translate(-126.676 -59.039)" fill="#d0cdd3"/>
            <path id="Trazado_121530" data-name="Trazado 121530" d="M187.418,98.4a3.829,3.829,0,0,1,1.063-1.418,7.641,7.641,0,0,1,1.637-1.281c.247-.134.65.048.357.315-.455.415-.955.768-1.4,1.2A17.322,17.322,0,0,1,187.8,98.5c-.1.079-.457.132-.384-.095" transform="translate(-122.465 -62.509)" fill="#d0cdd3"/>
            <path id="Trazado_121531" data-name="Trazado 121531" d="M265.925,135.421a1.169,1.169,0,0,0-1.442-.05,1.966,1.966,0,0,0-.726,1.341c-.01.021-.023.04-.031.061-.151.371.286.705.575.8.919.315,1.531-.387,1.784-1.189a.879.879,0,0,0-.16-.968" transform="translate(-172.316 -88.314)" fill="#fff"/>
            <path id="Trazado_121532" data-name="Trazado 121532" d="M195.909,135.065a1.169,1.169,0,0,0-1.442-.05,1.966,1.966,0,0,0-.726,1.341c-.01.021-.023.04-.031.061-.151.371.286.705.575.8.919.315,1.531-.387,1.784-1.189a.88.88,0,0,0-.16-.968" transform="translate(-126.563 -88.082)" fill="#fff"/>
            <path id="Trazado_121533" data-name="Trazado 121533" d="M131.025,204.308l15.434,19.72,120.139-1.4-11.045-18.316Z" transform="translate(-85.62 -133.509)" fill="#ffb66e"/>
            <path id="Trazado_121534" data-name="Trazado 121534" d="M274.988,179.987q-7.712.054-15.413.1-1.978,3-4.221,5.81-1.842,2.33-3.871,4.522a38.883,38.883,0,0,1-3.221,3.155,16.734,16.734,0,0,1-6.984,3.853c-1.879.446-4.136.313-5.353-1.192a5.63,5.63,0,0,1-.909-3.781,20.11,20.11,0,0,1,.813-4.949,26.319,26.319,0,0,1,3.318-7.056,37.338,37.338,0,0,1,4.961-6,29.033,29.033,0,0,1,7.544-5.617,18.3,18.3,0,0,1,9.164-1.674c12.283.777,14.552,10.843,14.173,12.824" transform="translate(-153.57 -109.208)" fill="#ededed"/>
            <path id="Trazado_121535" data-name="Trazado 121535" d="M93.762,166.94a10.425,10.425,0,0,1-1.024,3.968,4.587,4.587,0,0,1-3.143,2.456c-2.143.349-4.112-1.312-5.317-3.125a15.122,15.122,0,0,1-2.414-10.073.753.753,0,0,1,.012-.114c-3.239-.259-6.617-.554-9.38-2.27s-4.63-5.329-3.306-8.3a7.251,7.251,0,0,1,3.986-3.5c5.443-2.258,12.1-.054,15.961,4.389a18.987,18.987,0,0,1,3.956,7.7,25.105,25.105,0,0,1,.668,8.863" transform="translate(-44.93 -94.813)" fill="#d0cdd3"/>
            <path id="Trazado_121536" data-name="Trazado 121536" d="M118.29,191.43a10.425,10.425,0,0,1-1.024,3.968,4.587,4.587,0,0,1-3.143,2.456c-2.143.349-4.112-1.312-5.317-3.125a15.122,15.122,0,0,1-2.414-10.073,34.551,34.551,0,0,1,11.229-2.089,25.105,25.105,0,0,1,.668,8.863" transform="translate(-69.458 -119.302)" fill="#666665"/>
            <path id="Trazado_121537" data-name="Trazado 121537" d="M243.463,78.15a3.832,3.832,0,0,0,.141-3.013c-.685-1.363-2.486-1.623-4.009-1.688a17.386,17.386,0,0,0-5.916.465,6.366,6.366,0,0,0-4.29,3.814,5.5,5.5,0,0,0,2.619,6.212,7.207,7.207,0,0,0,6.977-.211,10.6,10.6,0,0,0,4.479-5.578" transform="translate(-149.753 -47.965)" fill="#666665"/>
            <path id="Trazado_121538" data-name="Trazado 121538" d="M421,190.015a9.157,9.157,0,0,0-13.194,3.517,6.151,6.151,0,0,0,.088,6.249,5.724,5.724,0,0,0,4.095,2.164,11.839,11.839,0,0,0,4.694-.655,11.555,11.555,0,0,0,5.345-3.1,5.562,5.562,0,0,0,1.155-5.8A5.888,5.888,0,0,0,421,190.015" transform="translate(-265.957 -123.192)" fill="#666665"/>
            <path id="Trazado_121539" data-name="Trazado 121539" d="M237.866,91.759a9.305,9.305,0,0,1-1.6-2.486,6.58,6.58,0,0,1-.144-3.314c.045-.307-.568-.356-.677-.112a5.334,5.334,0,0,0,1.784,6.3c.233.147.909-.031.64-.385" transform="translate(-153.597 -55.997)" fill="#383836"/>
            <path id="Trazado_121540" data-name="Trazado 121540" d="M248.652,92.276c-.149-.946-.189-1.912-.379-2.849-.058-.283-.679-.288-.705.017a15.374,15.374,0,0,0,.09,2.5,4.837,4.837,0,0,0,.458,2.273c.111.172.574.227.648-.014a4.233,4.233,0,0,0-.111-1.926" transform="translate(-161.761 -58.3)" fill="#383836"/>
            <path id="Trazado_121541" data-name="Trazado 121541" d="M257.589,87.422c-.024-.38-.772-.449-.816-.057-.082.719-.139,1.436-.259,2.151a15.982,15.982,0,0,0-.388,2.121c-.012.4.692.444.852.141a8.88,8.88,0,0,0,.612-4.357" transform="translate(-167.37 -56.918)" fill="#383836"/>
            <path id="Trazado_121542" data-name="Trazado 121542" d="M314.739,148.188c-.68,2.322-1.468,4.641-1.967,7.01-.062.293.587.371.677.112.791-2.264,1.315-4.634,1.932-6.951.089-.336-.559-.459-.643-.172" transform="translate(-204.384 -96.731)" fill="#383836"/>
            <path id="Trazado_121543" data-name="Trazado 121543" d="M392.565,154.635c-.132-.26-.807-.244-.669.081,2.207,5.231,3.421,10.629,5.246,15.962.1.288.838.348.807-.02-.451-5.49-2.915-11.162-5.384-16.023" transform="translate(-256.079 -100.931)" fill="#383836"/>
            <path id="Trazado_121544" data-name="Trazado 121544" d="M391.249,161.585c-.569-.191-1.148-.321-1.732-.456-.331-.077-.584.272-.194.406.563.193,1.119.386,1.7.524.385.092.682-.321.227-.474" transform="translate(-254.281 -105.285)" fill="#383836"/>
            <path id="Trazado_121545" data-name="Trazado 121545" d="M418.947,187.747c-3.228-.321-9.988,1.343-10.168,5.4-.011.265.507.294.554.039.69-3.771,6.7-4.471,9.681-4.886.452-.063.326-.51-.067-.549" transform="translate(-267.124 -122.662)" fill="#383836"/>
            <path id="Trazado_121546" data-name="Trazado 121546" d="M413.63,204.666c-1.552,1.35-2.481,4.913-.876,6.523.147.148.582.126.6-.131.082-.942-.335-1.888-.3-2.864a7.657,7.657,0,0,1,1.166-3.307c.161-.313-.434-.364-.6-.222" transform="translate(-269.174 -133.694)" fill="#383836"/>
            <path id="Trazado_121547" data-name="Trazado 121547" d="M422.9,213.582c-.01-.357-.746-.413-.76-.053-.028.7-.085,1.389-.173,2.082a12.2,12.2,0,0,0-.308,2.412c.025.326.577.394.723.12.685-1.282.558-3.146.518-4.56" transform="translate(-275.531 -139.375)" fill="#383836"/>
            <path id="Trazado_121548" data-name="Trazado 121548" d="M436.8,213.612c-.2.663-.271,1.357-.474,2.024a5.116,5.116,0,0,0-.541,1.79.345.345,0,0,0,.526.193,3.169,3.169,0,0,0,.934-1.738,6.009,6.009,0,0,0,.369-2.134c-.025-.336-.709-.482-.815-.135" transform="translate(-284.769 -139.459)" fill="#383836"/>
            <path id="Trazado_121549" data-name="Trazado 121549" d="M495.8,84.973c-4.16-1.981-7.785-.482-10.32,2.282a15.9,15.9,0,0,1-3.335-10.211,19.258,19.258,0,0,1,16.84-1.367c2.7,1.048,5.172,3.137,5.906,5.943.6,2.264.036,7.689-9.091,3.353" transform="translate(-315.055 -48.585)" fill="#ededed"/>
            <path id="Trazado_121550" data-name="Trazado 121550" d="M102.575,145.216c-.284-.063-.507.239-.167.351,5.962,1.971,9.66,6.158,11.943,11.859.163.407,1.106.4.991-.121-1.327-6.012-6.914-10.782-12.767-12.089" transform="translate(-66.808 -94.888)" fill="#8b8493"/>
            <path id="Trazado_121551" data-name="Trazado 121551" d="M142.147,161.222a44.517,44.517,0,0,1-10.988-.713c-.318-.064-.57.262-.188.394a22.7,22.7,0,0,0,11.375.95c.605-.118.289-.652-.2-.631" transform="translate(-85.459 -104.883)" fill="#8b8493"/>
            <path id="Trazado_121552" data-name="Trazado 121552" d="M103.121,176.062c-.029-.241-.621-.245-.6.015a18.647,18.647,0,0,0,1.091,5.845c.094.228.592.228.55-.067-.273-1.944-.8-3.838-1.038-5.793" transform="translate(-66.992 -114.933)" fill="#8b8493"/>
            <path id="Trazado_121553" data-name="Trazado 121553" d="M118.066,212.015a7.038,7.038,0,0,1-2.09-5.773c.014-.263-.532-.342-.6-.1a6.178,6.178,0,0,0,2,6.291c.319.268,1.116,0,.7-.418" transform="translate(-75.247 -134.612)" fill="#383836"/>
            <path id="Trazado_121554" data-name="Trazado 121554" d="M125.01,213.529c-.207-.754-.273-1.57-.545-2.3-.105-.283-.752-.342-.779.019a7.667,7.667,0,0,0,.3,2.11,4.531,4.531,0,0,0,.7,2.036c.168.195.679.251.726-.086a4.691,4.691,0,0,0-.4-1.78" transform="translate(-80.819 -137.88)" fill="#383836"/>
            <path id="Trazado_121555" data-name="Trazado 121555" d="M134.078,208.367c-.069-.371-.887-.33-.825.1a31.206,31.206,0,0,1-.12,5.226c-.006.351.659.433.787.13a9.9,9.9,0,0,0,.158-5.457" transform="translate(-86.997 -135.996)" fill="#383836"/>
            <path id="Trazado_121556" data-name="Trazado 121556" d="M267.574,166.594c-7.944-.815-17.1,6.019-20.1,13.042-.139.326.474.4.625.167a29.8,29.8,0,0,1,8.325-8.73c3.572-2.4,7.307-2.845,11.316-3.944.417-.114.129-.5-.165-.534" transform="translate(-161.702 -108.821)" fill="#d0cdd3"/>
            <path id="Trazado_121557" data-name="Trazado 121557" d="M248.261,232.02a16.738,16.738,0,0,1-6.984,3.853c-1.879.445-4.136.313-5.353-1.192a5.63,5.63,0,0,1-.909-3.781,20.111,20.111,0,0,1,.813-4.949,10.191,10.191,0,0,1,1.144.277,36.112,36.112,0,0,1,8.688,3.9,18.277,18.277,0,0,1,2.6,1.9" transform="translate(-153.569 -147.652)" fill="#d0cdd3"/>
            <path id="Trazado_121558" data-name="Trazado 121558" d="M307.816,184.909c-.743.978-1.48,1.962-2.169,2.98a15.211,15.211,0,0,0-2.341,3.92c-.1.374.492.481.706.263a17.681,17.681,0,0,0,2.03-3.074q1.217-1.927,2.488-3.822c.207-.307-.53-.509-.714-.266" transform="translate(-198.193 -120.762)" fill="#d0cdd3"/>
            <path id="Trazado_121559" data-name="Trazado 121559" d="M314.113,194.747a3.891,3.891,0,0,0-.744-.278c-.265-.09-.53-.165-.8-.231a.432.432,0,0,0-.411.087.219.219,0,0,0,.1.35,6.481,6.481,0,0,0,1.649.507c.291.031.5-.261.2-.435" transform="translate(-203.948 -126.918)" fill="#d0cdd3"/>
            <path id="Trazado_121560" data-name="Trazado 121560" d="M238.112,233.295c-.9,1.69-1.478,4.258-.405,6,.111.18.635.207.629-.074-.018-.922-.291-1.812-.3-2.747a8.229,8.229,0,0,1,.638-3.029c.113-.288-.44-.378-.562-.15" transform="translate(-154.953 -152.367)" fill="#8b8493"/>
            <path id="Trazado_121561" data-name="Trazado 121561" d="M245.3,237.174c-.3.949-.65,1.878-1.04,2.794a9.119,9.119,0,0,0-.975,2.463c-.028.29.464.31.613.161a6.648,6.648,0,0,0,1.211-2.4,23.277,23.277,0,0,0,.851-2.911c.068-.279-.577-.366-.659-.109" transform="translate(-158.975 -154.886)" fill="#8b8493"/>
            <path id="Trazado_121562" data-name="Trazado 121562" d="M252.785,242.256c-.583.6-1.05,1.3-1.659,1.891a17.381,17.381,0,0,1-2.1,1.619c-.43.306.244.6.549.445a9.249,9.249,0,0,0,2.081-1.541,7.125,7.125,0,0,0,1.735-2.188c.133-.315-.437-.4-.6-.226" transform="translate(-162.638 -158.249)" fill="#8b8493"/>
          </g>
        </g>
      </g>
    </g>
    <rect id="Rect치ngulo_35982" data-name="Rect치ngulo 35982" width="190" height="243" transform="translate(390 688)" fill="none"/>
  </g>
</svg>
