<svg xmlns="http://www.w3.org/2000/svg" xmlns:xlink="http://www.w3.org/1999/xlink" width="232.69" height="276.864" viewBox="0 0 232.69 276.864">
  <defs>
    <clipPath id="clip-path">
      <rect id="Rectángulo_35896" data-name="Rectángulo 35896" width="232.69" height="174.889" fill="none"/>
    </clipPath>
    <clipPath id="clip-path-2">
      <path id="Trazado_124436" data-name="Trazado 124436" d="M134.885,0,0,77.9l88.353,52.586,1.77,1.066,5.113,3.059.608,1.743.428,27.059L231.244,85.478v-.027a3.632,3.632,0,0,0,1.445-3.21l-.033-19.415a9.9,9.9,0,0,0-.7-3.7,7.211,7.211,0,0,0-.608-1.316,12.082,12.082,0,0,0-2.33-2.872,19.109,19.109,0,0,0-2.659-2.017,6.432,6.432,0,0,0-.912-.614c-.274-.154-.521-.337-.825-.491a2.373,2.373,0,0,0-.494-.271l-.608-.37L217.309,47.6Z" fill="none"/>
    </clipPath>
    <linearGradient id="linear-gradient" x1="0.089" y1="0.862" x2="0.1" y2="0.862" gradientUnits="objectBoundingBox">
      <stop offset="0" stop-color="#0e70ac"/>
      <stop offset="0.044" stop-color="#1079b3"/>
      <stop offset="0.156" stop-color="#1280b8"/>
      <stop offset="0.274" stop-color="#0d66b5"/>
      <stop offset="1" stop-color="#0d6eb5"/>
    </linearGradient>
    <clipPath id="clip-path-3">
      <rect id="Rectángulo_35887" data-name="Rectángulo 35887" width="232.689" height="174.888" fill="none"/>
    </clipPath>
    <clipPath id="clip-path-4">
      <path id="Trazado_124439" data-name="Trazado 124439" d="M2.073,44.215.02,45.4,89.28,96.972l.915-.527-.009-25.653L7.921,30.656Z" transform="translate(-0.02 -30.656)" fill="none"/>
    </clipPath>
    <linearGradient id="linear-gradient-2" x1="0.094" y1="0.981" x2="0.121" y2="0.981" gradientUnits="objectBoundingBox">
      <stop offset="0" stop-color="#204e66"/>
      <stop offset="0.995" stop-color="#1e5d81"/>
      <stop offset="1" stop-color="#1e5d81"/>
    </linearGradient>
    <clipPath id="clip-path-6">
      <rect id="Rectángulo_35889" data-name="Rectángulo 35889" width="84.208" height="59.75" fill="none"/>
    </clipPath>
    <clipPath id="clip-path-7">
      <rect id="Rectángulo_35890" data-name="Rectángulo 35890" width="84.242" height="54.495" fill="none"/>
    </clipPath>
    <clipPath id="clip-path-8">
      <path id="Trazado_124445" data-name="Trazado 124445" d="M36.419,42.646a14.194,14.194,0,0,1,5.39,5.7,9.6,9.6,0,0,1,.912,4.239l.009,6.269.012,13.164a3.813,3.813,0,0,1-1.156,3.041l7.058-4.068A3.836,3.836,0,0,0,49.8,67.941l-.012-13.164-.009-6.266a9.583,9.583,0,0,0-.912-4.242,14.088,14.088,0,0,0-5.39-5.694Z" transform="translate(-36.419 -38.575)" fill="none"/>
    </clipPath>
    <linearGradient id="linear-gradient-3" x1="-3.401" y1="1.559" x2="-3.3" y2="1.559" gradientUnits="objectBoundingBox">
      <stop offset="0" stop-color="#d8981e"/>
      <stop offset="0.162" stop-color="#dda11c"/>
      <stop offset="1" stop-color="#f4a718"/>
    </linearGradient>
    <clipPath id="clip-path-9">
      <path id="Trazado_124446" data-name="Trazado 124446" d="M67.112,24.949a14.17,14.17,0,0,1,5.39,5.7,9.614,9.614,0,0,1,.915,4.239l.006,6.269.012,13.164a3.808,3.808,0,0,1-1.159,3.047l7.061-4.074a3.841,3.841,0,0,0,1.153-3.047L80.481,37.08l-.009-6.269a9.623,9.623,0,0,0-.915-4.239,14.146,14.146,0,0,0-5.39-5.694Z" transform="translate(-67.112 -20.878)" fill="none"/>
    </clipPath>
    <linearGradient id="linear-gradient-4" x1="-6.499" y1="2.951" x2="-6.398" y2="2.951" xlink:href="#linear-gradient-3"/>
    <clipPath id="clip-path-11">
      <rect id="Rectángulo_35894" data-name="Rectángulo 35894" width="124.856" height="72.451" fill="none"/>
    </clipPath>
  </defs>
  <g id="Grupo_157041" data-name="Grupo 157041" transform="translate(8904.466 8268)">
    <path id="Rectángulo_34017" data-name="Rectángulo 34017" d="M0,0H140a77,77,0,0,1,77,77V276.864a0,0,0,0,1,0,0H0a0,0,0,0,1,0,0V0A0,0,0,0,1,0,0Z" transform="translate(-8896 -8268)" fill="#6b8dfc"/>
    <g id="Grupo_87997" data-name="Grupo 87997" transform="translate(-8904.466 -8207)">
      <g id="Grupo_87996" data-name="Grupo 87996" clip-path="url(#clip-path)">
        <g id="Grupo_87974" data-name="Grupo 87974">
          <g id="Grupo_87973" data-name="Grupo 87973" clip-path="url(#clip-path-2)">
            <rect id="Rectángulo_35886" data-name="Rectángulo 35886" width="283.222" height="257.866" transform="matrix(0.866, -0.5, 0.5, 0.866, -70.761, 40.856)" fill="url(#linear-gradient)"/>
          </g>
        </g>
        <g id="Grupo_87976" data-name="Grupo 87976" transform="translate(0 0.001)">
          <g id="Grupo_87975" data-name="Grupo 87975" clip-path="url(#clip-path-3)">
            <path id="Trazado_124437" data-name="Trazado 124437" d="M25.548,102.478,173.232,17.211c.313.163.566.334.843.488a8.97,8.97,0,0,1,.909.6l-149.09,86.08Z" transform="translate(51.376 34.61)" fill="#00438b"/>
            <path id="Trazado_124438" data-name="Trazado 124438" d="M16.05,37.513,1.781,35.547l.015.021-.018.009L.011,35.565.02,37.971,92.848,91.487c2.794,1.587,5.031.3,5.061-2.918l-.015-19.439c-.021-4.351-2.231-7.771-8.521-11.285l-6.847-3.893Z" transform="translate(0.022 71.482)" fill="#00438b"/>
          </g>
        </g>
        <g id="Grupo_87978" data-name="Grupo 87978" transform="translate(0.06 92.305)">
          <g id="Grupo_87977" data-name="Grupo 87977" clip-path="url(#clip-path-4)">
            <rect id="Rectángulo_35888" data-name="Rectángulo 35888" width="111.252" height="102.52" transform="matrix(0.866, -0.5, 0.5, 0.866, -28.716, 16.58)" fill="url(#linear-gradient-2)"/>
          </g>
        </g>
        <g id="Grupo_87986" data-name="Grupo 87986" transform="translate(0 0.001)">
          <g id="Grupo_87985" data-name="Grupo 87985" clip-path="url(#clip-path-3)">
            <path id="Trazado_124440" data-name="Trazado 124440" d="M28.506,43.144l4.4,2.538.006,25.653-4.4-2.544Z" transform="translate(57.324 86.759)" fill="#d8d8d8"/>
            <path id="Trazado_124441" data-name="Trazado 124441" d="M84.746,101.258l-.012-.12.024-10.987-.015-5.134.009-1.289v-8.09l.009-.033L2.821,28.279.765,27.111l-.087-.042L.542,26.99l.021.148-.018,3.4.021,5.847-.033,5.1.018.027L.572,52.623l-.012.036,14.23,8.247,5.052,2.884,64.133,37Z" transform="translate(1.072 54.275)" fill="#d8d8d8"/>
            <g id="Grupo_87981" data-name="Grupo 87981" transform="translate(1.622 95.783)" opacity="0.1" style="mix-blend-mode: multiply;isolation: isolate">
              <g id="Grupo_87980" data-name="Grupo 87980">
                <g id="Grupo_87979" data-name="Grupo 87979" clip-path="url(#clip-path-6)">
                  <path id="Trazado_124442" data-name="Trazado 124442" d="M84.737,91.562l.009-11.014L.539,31.812.56,42.926l13.432,7.8,5.07,2.906.768.464Z" transform="translate(-0.538 -31.811)" fill="#dcdbe4"/>
                </g>
              </g>
            </g>
            <g id="Grupo_87984" data-name="Grupo 87984" transform="translate(1.588 84.809)" opacity="0.1" style="mix-blend-mode: multiply;isolation: isolate">
              <g id="Grupo_87983" data-name="Grupo 87983">
                <g id="Grupo_87982" data-name="Grupo 87982" clip-path="url(#clip-path-7)">
                  <path id="Trazado_124443" data-name="Trazado 124443" d="M.527,28.167l.021,5.847.042.012.163.123L84.765,82.662l.006-1.292-.021-4.595L.768,28.309l-.2-.129Z" transform="translate(-0.527 -28.167)" fill="#dcdbe4"/>
                </g>
              </g>
            </g>
            <path id="Trazado_124444" data-name="Trazado 124444" d="M.014,25.855,82.52,73.443l.009,2.565L.032,28.381Z" transform="translate(0.029 51.992)" fill="#00438b"/>
          </g>
        </g>
        <g id="Grupo_87988" data-name="Grupo 87988" transform="translate(109.656 116.147)">
          <g id="Grupo_87987" data-name="Grupo 87987" clip-path="url(#clip-path-8)">
            <rect id="Rectángulo_35892" data-name="Rectángulo 35892" width="29.826" height="38.282" transform="matrix(0.866, -0.5, 0.5, 0.866, -15.797, 9.121)" fill="url(#linear-gradient-3)"/>
          </g>
        </g>
        <g id="Grupo_87990" data-name="Grupo 87990" transform="translate(202.071 62.863)">
          <g id="Grupo_87989" data-name="Grupo 87989" clip-path="url(#clip-path-9)">
            <rect id="Rectángulo_35893" data-name="Rectángulo 35893" width="29.829" height="38.287" transform="translate(-15.799 9.123) rotate(-30.001)" fill="url(#linear-gradient-4)"/>
          </g>
        </g>
        <g id="Grupo_87995" data-name="Grupo 87995" transform="translate(0 0.001)">
          <g id="Grupo_87994" data-name="Grupo 87994" clip-path="url(#clip-path-3)">
            <g id="Grupo_87993" data-name="Grupo 87993" transform="translate(107.096 54.942)" opacity="0.5" style="mix-blend-mode: overlay;isolation: isolate">
              <g id="Grupo_87992" data-name="Grupo 87992">
                <g id="Grupo_87991" data-name="Grupo 87991" clip-path="url(#clip-path-11)">
                  <path id="Trazado_124447" data-name="Trazado 124447" d="M160.424,22.435a5.019,5.019,0,0,0-1.593-.187c-.979.063-3.053.825-6.016,2.481C150,26.256,48.408,83.485,35.569,90.7c12.839-7.365,115.563-66.464,118.309-68.234,1.533-1.039,3.27-2.264,3.607-4.218a12.023,12.023,0,0,1,2.33,2.872,7.213,7.213,0,0,1,.608,1.316" transform="translate(-35.568 -18.249)" fill="#c1c1c1"/>
                </g>
              </g>
            </g>
            <path id="Trazado_124448" data-name="Trazado 124448" d="M77.882,44.9c3.315,1.25,4.715,4.035,5.642,7.148a31.74,31.74,0,0,1,.828,12.649,42.477,42.477,0,0,1-6.579,18.951c-4.227,6.44-9.9,11-17.6,12.435-12.417,2.318-26.7-2.005-34.6-15.732a38.2,38.2,0,0,1-5.007-23.54,24.385,24.385,0,0,1,5.977-14.3,10.429,10.429,0,0,1,8.319-3.61c4.989.154,8.8,2.734,12.267,6a16.975,16.975,0,0,0,3.143,2.376,5.312,5.312,0,0,0,1.21.575c.2.066.4.132.6.187a15.17,15.17,0,0,0,2.559.59c.319.015.638.021.957.015,3.64.19,7.088-.768,10.529-1.773q2.344-.686,4.631-1.548a2.223,2.223,0,0,0,1.012-.1,23.078,23.078,0,0,1,3.7-.7,3.76,3.76,0,0,1,2.4.379" transform="translate(40.915 78.213)" fill="#e93548"/>
            <path id="Trazado_124449" data-name="Trazado 124449" d="M33.92,70.311a7.473,7.473,0,0,1-2.55-.632,1.275,1.275,0,0,1-.406-.831,20.184,20.184,0,0,1-.03-7.5,1.622,1.622,0,0,1,.4-.84,23.229,23.229,0,0,1,6.54-10.854,61.748,61.748,0,0,1,8.051-6.043A133.085,133.085,0,0,0,60.953,31.8a42.071,42.071,0,0,0,3.393-3.6,17.736,17.736,0,0,1,.951,3.664,39.126,39.126,0,0,1,.343,13.11A28.681,28.681,0,0,1,54.75,63.907c-.223.175-.431.373-.644.56a9.872,9.872,0,0,1-3.959,2.49C45.561,68.788,40.894,70.272,35.9,70.4c-.313.009-.629-.018-.942-.03.03-.431.416-.437.686-.524a106.322,106.322,0,0,0,13.339-5.393,23.494,23.494,0,0,0,6.452-4.242,4.325,4.325,0,0,0,1.063-1.653,1.606,1.606,0,0,0-.964-2.252,8.956,8.956,0,0,0-3.351-.717c-.921-.015-1.84.015-2.761-.015-.244-.009-.584.027-.629-.3-.036-.265.262-.361.476-.419a48.82,48.82,0,0,0,5.4-1.792c2.294-.9,4.64-1.74,6.44-3.541a2.68,2.68,0,0,0-.241-4.209,7.736,7.736,0,0,0-1.521-.976c-.988-.488-.991-.623-.208-1.349a18.669,18.669,0,0,0,3.3-3.622,5.538,5.538,0,0,0,.632-5.1c-.331-.894-.554-.912-1.1-.154-1.295,1.8-2.607,3.58-4.02,5.284A67.781,67.781,0,0,1,47.879,49.533,45.156,45.156,0,0,0,37.793,60.2a21.913,21.913,0,0,0-3.49,9.186,1.243,1.243,0,0,1-.382.927" transform="translate(61.53 56.714)" fill="#c9cd36"/>
            <path id="Trazado_124450" data-name="Trazado 124450" d="M35.322,63.085a4.6,4.6,0,0,1-1.2-.521,19.092,19.092,0,0,1-1.87-4.33c-.485-1.2-.834-2.442-1.241-3.667a.941.941,0,0,1-.033-.828A53.5,53.5,0,0,1,28.4,41.114a14.988,14.988,0,0,1,.518-5.543,10.343,10.343,0,0,1,.551-1.352A2.774,2.774,0,0,1,31.8,32.467a49.434,49.434,0,0,0,5.236-1.015c.644-.148.644.033.56.56-.677,4.251-1.262,8.521-1.674,12.809a76.412,76.412,0,0,0-.6,9.277,8.013,8.013,0,0,1-.021,2.641,24.9,24.9,0,0,0,.163,5.034c.063.422.223.912-.139,1.313" transform="translate(57.024 63.148)" fill="#5c4e00"/>
            <path id="Trazado_124451" data-name="Trazado 124451" d="M37.384,38.89c.921,2.987,2.041,5.9,3.14,8.825-2.213-1.114-3.74-3.089-5.667-4.562a20.371,20.371,0,0,0-8.44-3.854c-.416-.081-.87.12-1.25-.184a74.1,74.1,0,0,1,10.752-.241c.488.021.976.012,1.463.015" transform="translate(50.614 77.994)" fill="#cc1e38"/>
            <path id="Trazado_124452" data-name="Trazado 124452" d="M37.09,42.735l3.959-2.487a12.143,12.143,0,0,1,3.162,1.927,14.153,14.153,0,0,0-6.151.584c-.334.078-.653.244-.97-.024" transform="translate(74.586 80.936)" fill="#cd1f38"/>
            <path id="Trazado_124453" data-name="Trazado 124453" d="M30.79,47.942c-.22-2.692-.184-5.39-.163-8.087,0-.3-.1-.638.16-.9.175-.009.346-.015.521-.021a21.508,21.508,0,0,0,.036,9.171l-.554-.163" transform="translate(61.556 78.291)" fill="#c72737"/>
            <path id="Trazado_124454" data-name="Trazado 124454" d="M31.7,66.99a23.449,23.449,0,0,1,2.406-8.009,31.342,31.342,0,0,1,5.11-7.088,75.586,75.586,0,0,1,8.03-7.259,52.488,52.488,0,0,0,7.211-7.371c1.924-2.276,3.728-4.643,5.444-7.079.34-.488.575-.413.861.081a5.874,5.874,0,0,1-.428,6.022,18.654,18.654,0,0,1-3.6,3.779c-.373.3-.313.437.126.62a5.472,5.472,0,0,1,2.749,2.108,2.847,2.847,0,0,1-.379,3.408,13.645,13.645,0,0,1-5.019,3.065A45.2,45.2,0,0,1,47,51.755a3.612,3.612,0,0,0-.5.286c1.183,0,2.138.018,3.086-.006a9.587,9.587,0,0,1,3.207.524c1.975.629,2.415,1.837,1.3,3.6a10.289,10.289,0,0,1-3.171,2.857,55.814,55.814,0,0,1-9.123,4.6c-2.966,1.289-6.043,2.291-9.063,3.435-.346-.021-.69-.039-1.033-.06" transform="translate(63.749 60.035)" fill="#b9b000"/>
            <path id="Trazado_124455" data-name="Trazado 124455" d="M31.2,48.037a46.316,46.316,0,0,1-.6,6.23,19.629,19.629,0,0,0,1.536,11.315c.515,1.123,1.123,2.2,1.65,3.315.6,1.265.163,1.93-1.247,1.87-1.644-.069-2.722-1.153-3.679-2.3-3.113-3.743-4.616-8.178-5.453-12.9a51.1,51.1,0,0,1-.449-6.245,7.722,7.722,0,0,1,1.346-4.8,4.6,4.6,0,0,1,4.345-1.487,3.1,3.1,0,0,1,2.336,2.785,7.636,7.636,0,0,1,.217,2.225" transform="translate(46.142 86.349)" fill="#f28591"/>
            <path id="Trazado_124456" data-name="Trazado 124456" d="M33.146,55.455a1.848,1.848,0,0,1-.84,1.665,5.665,5.665,0,0,1-3.556,1.069,1.877,1.877,0,0,1-1.96-2.041A3.447,3.447,0,0,1,28.7,53.088a3.077,3.077,0,0,1,3.466.337,2.3,2.3,0,0,1,.985,2.029" transform="translate(53.864 105.986)" fill="#f28591"/>
          </g>
        </g>
      </g>
    </g>
  </g>
</svg>
