<svg xmlns="http://www.w3.org/2000/svg" xmlns:xlink="http://www.w3.org/1999/xlink" width="89" height="104" viewBox="0 0 89 104">
  <defs>
    <clipPath id="clip-path">
      <rect id="Rectángulo_35852" data-name="Rectángulo 35852" width="61.595" height="84.518" fill="none"/>
    </clipPath>
    <clipPath id="clip-path-3">
      <rect id="Rectángulo_35847" data-name="Rectángulo 35847" width="7.552" height="15.528" fill="none"/>
    </clipPath>
    <clipPath id="clip-path-4">
      <rect id="Rectángulo_35848" data-name="Rectángulo 35848" width="4.973" height="10.766" fill="none"/>
    </clipPath>
    <clipPath id="clip-path-5">
      <rect id="Rectángulo_35849" data-name="Rectángulo 35849" width="7.257" height="14.399" fill="none"/>
    </clipPath>
    <clipPath id="clip-path-6">
      <rect id="Rectángulo_35850" data-name="Rectángulo 35850" width="4.813" height="9.991" fill="none"/>
    </clipPath>
  </defs>
  <g id="Grupo_87857" data-name="Grupo 87857" transform="translate(8746 9850)">
    <g id="Grupo_87842" data-name="Grupo 87842" transform="translate(-8732 -9840)">
      <g id="Grupo_87839" data-name="Grupo 87839" clip-path="url(#clip-path)">
        <rect id="Rectángulo_35845" data-name="Rectángulo 35845" width="42.648" height="84.056" transform="translate(2.033 0.08)" fill="#d8b7a1"/>
        <rect id="Rectángulo_35846" data-name="Rectángulo 35846" width="36.133" height="80.859" transform="translate(5.258 3.278)" fill="#493333"/>
        <path id="Trazado_124282" data-name="Trazado 124282" d="M509.216,127.59V48.166l1.529-.3h.6v79.976h-.6Z" transform="translate(-469.956 -44.179)" fill="#85664e"/>
        <g id="Grupo_87838" data-name="Grupo 87838" transform="translate(0 0)">
          <g id="Grupo_87837" data-name="Grupo 87837" clip-path="url(#clip-path)">
            <path id="Trazado_124283" data-name="Trazado 124283" d="M306.652,48.848c-1.371,40.1.547,78.589.547,78.589l16.143.463V47.921s-6.908.006-16.691.927" transform="translate(-282.554 -44.226)" fill="#d8b7a1"/>
            <path id="Trazado_124284" data-name="Trazado 124284" d="M526.99,196.156h.421a.247.247,0,0,0,.247-.247v-3.545a.247.247,0,0,0-.247-.247h-.421a.247.247,0,0,0-.247.247v3.545a.247.247,0,0,0,.247.247" transform="translate(-486.132 -177.306)" fill="#d8b7a1"/>
            <path id="Trazado_124285" data-name="Trazado 124285" d="M526.32,207.145c.173.238.455.086.561-.11a1.321,1.321,0,0,0,.107-.547c.014-.245,0-.493-.007-.738-.011-.505-.022-1.011-.029-1.516a.107.107,0,0,1,.214,0c.024.483.045.966.066,1.45a4.14,4.14,0,0,1-.041,1.28c-.126.445-.815.9-1.082.3a.123.123,0,0,1,.212-.124" transform="translate(-485.534 -188.393)" fill="#a18064"/>
            <path id="Trazado_124286" data-name="Trazado 124286" d="M524.248,191.307c.021-.453.034-1.46.735-1.317.156.032.087.259-.065.236-.442-.068-.4,1.066-.4,1.342a1.86,1.86,0,0,0,.027.588c.07.183.373.093.553.095a.133.133,0,0,1,0,.267c-.2.022-.639.131-.781-.064-.076-.1-.051-.305-.059-.427a6.449,6.449,0,0,1-.008-.719" transform="translate(-483.823 -175.329)" fill="#a18064"/>
            <path id="Trazado_124287" data-name="Trazado 124287" d="M526.99,907.766h.421a.247.247,0,0,0,.247-.247v-3.545a.247.247,0,0,0-.247-.247h-.421a.247.247,0,0,0-.247.247v3.545a.247.247,0,0,0,.247.247" transform="translate(-486.132 -834.052)" fill="#d8b7a1"/>
            <path id="Trazado_124288" data-name="Trazado 124288" d="M526.32,918.756c.173.238.455.086.561-.11a1.321,1.321,0,0,0,.107-.547c.014-.245,0-.493-.007-.738-.011-.505-.022-1.011-.029-1.516a.107.107,0,0,1,.214,0c.024.483.045.967.066,1.45a4.141,4.141,0,0,1-.041,1.28c-.126.445-.815.9-1.082.3a.123.123,0,0,1,.212-.124" transform="translate(-485.534 -845.14)" fill="#a18064"/>
            <path id="Trazado_124289" data-name="Trazado 124289" d="M524.248,902.917c.021-.453.034-1.46.735-1.316.156.032.087.259-.065.236-.442-.068-.4,1.065-.4,1.342a1.86,1.86,0,0,0,.027.588c.07.183.373.093.553.095a.134.134,0,0,1,0,.267c-.2.022-.639.131-.781-.064-.076-.1-.051-.305-.059-.427a6.449,6.449,0,0,1-.008-.719" transform="translate(-483.823 -832.076)" fill="#a18064"/>
            <path id="Trazado_124290" data-name="Trazado 124290" d="M539.244,9.77c.812-.747,1.629-1.465,2.37-2.285.14-.155.368.074.229.229a16.891,16.891,0,0,1-2.41,2.3c-.143.106-.319-.127-.189-.246" transform="translate(-497.628 -6.86)" fill="#cea78d"/>
            <path id="Trazado_124291" data-name="Trazado 124291" d="M32.139,5.068c.747.812,1.465,1.629,2.285,2.37.155.14-.074.368-.229.229a16.9,16.9,0,0,1-2.3-2.41c-.106-.143.127-.319.246-.19" transform="translate(-29.409 -4.635)" fill="#cea78d"/>
            <path id="Trazado_124292" data-name="Trazado 124292" d="M368.769,151.286c-.13-.141-7.443.326-9.493.46-.027,2.827-.006,37.037.127,37.25a62.252,62.252,0,0,0,9.414-.274c.126-2.535.091-37.283-.049-37.436" transform="translate(-331.567 -139.598)" fill="#e3f1ff"/>
            <path id="Trazado_124293" data-name="Trazado 124293" d="M353.666,160.722s-.168,17.62-.065,17.634,8.374.021,8.943.176v1.156l-8.876.364s-.21,15.773-.052,16.107,8.72-.4,8.859-.444a14.825,14.825,0,0,1,.035,1.629l-10.153.141.007-37.287Z" transform="translate(-325.191 -147.847)" fill="#85664e"/>
            <path id="Trazado_124294" data-name="Trazado 124294" d="M353.746,151.6s6.648-.277,8.758-.524l-.032-.663s-9.624-.478-10.029.663Z" transform="translate(-325.271 -138.723)" fill="#85664e"/>
            <g id="Grupo_87827" data-name="Grupo 87827" transform="translate(28.624 14.53)" opacity="0.5">
              <g id="Grupo_87826" data-name="Grupo 87826">
                <g id="Grupo_87825" data-name="Grupo 87825" clip-path="url(#clip-path-3)">
                  <path id="Trazado_124295" data-name="Trazado 124295" d="M378.672,203.988s-7.419-11.639-7.4-12.136.106-3.358.313-3.392,7.252,13.989,7.239,14.3-.154,1.228-.154,1.228" transform="translate(-371.273 -188.46)" fill="#fff"/>
                </g>
              </g>
            </g>
            <g id="Grupo_87830" data-name="Grupo 87830" transform="translate(31.437 16.597)" opacity="0.5">
              <g id="Grupo_87829" data-name="Grupo 87829">
                <g id="Grupo_87828" data-name="Grupo 87828" clip-path="url(#clip-path-4)">
                  <path id="Trazado_124296" data-name="Trazado 124296" d="M412.723,226.038s-5.089-9.819-4.971-10.178a2.835,2.835,0,0,1,.265-.588s4.538,7.37,4.583,7.938.123,2.827.123,2.827" transform="translate(-407.75 -215.272)" fill="#fff"/>
                </g>
              </g>
            </g>
            <g id="Grupo_87833" data-name="Grupo 87833" transform="translate(28.722 33.263)" opacity="0.5">
              <g id="Grupo_87832" data-name="Grupo 87832">
                <g id="Grupo_87831" data-name="Grupo 87831" clip-path="url(#clip-path-5)">
                  <path id="Trazado_124297" data-name="Trazado 124297" d="M379.667,445.828s-7.139-10.714-7.125-11.184a15.986,15.986,0,0,1,.257-3.216c.2-.04,7.009,12.94,7,13.234s-.132,1.166-.132,1.166" transform="translate(-372.542 -431.429)" fill="#fff"/>
                </g>
              </g>
            </g>
            <g id="Grupo_87836" data-name="Grupo 87836" transform="translate(31.37 35.111)" opacity="0.5">
              <g id="Grupo_87835" data-name="Grupo 87835">
                <g id="Grupo_87834" data-name="Grupo 87834" clip-path="url(#clip-path-6)">
                  <path id="Trazado_124298" data-name="Trazado 124298" d="M411.7,465.4s-4.918-9.083-4.811-9.426a2.765,2.765,0,0,1,.244-.565s4.37,6.79,4.419,7.325.148,2.666.148,2.666" transform="translate(-406.884 -455.404)" fill="#fff"/>
                </g>
              </g>
            </g>
            <path id="Trazado_124299" data-name="Trazado 124299" d="M316.415,518.409a.6.6,0,0,0-.329.31,1.006,1.006,0,0,0-.063.39q-.065,2.281-.041,4.564.012,1.141.046,2.281.017.57.039,1.14c.009.226-.032.577.174.651a1.732,1.732,0,0,0,.869.082.491.491,0,0,0,.414-.289,1.038,1.038,0,0,0,.052-.3c.045-.646.008-1.322.016-1.977q.012-1.07.017-2.14c.007-1.411.007-2.822.006-4.233,0-.293-.043-.4-.242-.447a1.672,1.672,0,0,0-.959-.027" transform="translate(-291.614 -478.384)" fill="#eeae4e"/>
            <path id="Trazado_124300" data-name="Trazado 124300" d="M332.47,529.96a8.04,8.04,0,0,0,.152-2.191c.015-.74.021-1.48.024-2.22,0-1.439.053-2.9-.053-4.338-.013-.18.213-.224.232-.043a43.571,43.571,0,0,1,.095,4.659c0,.8-.013,1.6-.034,2.4a6.023,6.023,0,0,1-.184,1.916c-.083.213-.3.026-.232-.187" transform="translate(-306.824 -480.88)" fill="#cf9239"/>
            <path id="Trazado_124301" data-name="Trazado 124301" d="M318.037,561.311c.089-.248.413-.261.587-.251.058,0,.531,0,.515.208-.1.07-.576.021-.684.039a.341.341,0,0,0-.277.2.7.7,0,0,0-.037.183,5.523,5.523,0,0,0-.03.56.457.457,0,0,0,.008.1.265.265,0,0,0,.068.122.344.344,0,0,0,.086.069c.681.306.775.073,1.155.095.124.007.17.229.031.257a2.52,2.52,0,0,1-.754.039c-.329.011-.681-.093-.716-.552a3.186,3.186,0,0,1,.048-1.073" transform="translate(-293.453 -517.802)" fill="#cf9239"/>
            <path id="Trazado_124302" data-name="Trazado 124302" d="M322.086,603.41c.057-.119.163-.177.263-.132a.358.358,0,0,1,.17.32.661.661,0,0,1-.089.333c0,.172,0,.343,0,.515-.005.24-.265.24-.27,0,0-.149,0-.3,0-.448a.222.222,0,0,1-.069-.115c0-.009,0-.019-.007-.028a.152.152,0,0,1-.017-.034.582.582,0,0,1,.019-.41" transform="translate(-297.21 -556.752)" fill="#a56f2f"/>
            <path id="Trazado_124303" data-name="Trazado 124303" d="M324.782,563.91a1.387,1.387,0,0,1,.529-.121c.277,0,1.708.2,2.258.241s.354,1,.2,1.123a15.33,15.33,0,0,1-2.663.046c-.5-.019-.908-1.245-.329-1.29" transform="translate(-299.479 -520.322)" fill="#eeae4e"/>
            <path id="Trazado_124304" data-name="Trazado 124304" d="M19.234.2a.21.21,0,0,1,.419,0c.208,5.414.077,10.853.079,16.27s0,10.846,0,16.27V83.746a.292.292,0,0,1-.584,0V51.207q0-16.343,0-32.686c0-6.1-.155-12.226.079-18.322" transform="translate(-17.632 0.003)" fill="#cea78d"/>
            <path id="Trazado_124305" data-name="Trazado 124305" d="M.241,1088.668c12.591-.114,21.972-.03,34.563-.03H45.538a.279.279,0,0,1,0,.558c-12.593,0-22.558,0-35.151-.006-3.578,0-6.569.009-10.146-.023a.25.25,0,0,1,0-.5" transform="translate(0 -1004.679)" fill="#817992"/>
            <path id="Trazado_124306" data-name="Trazado 124306" d="M546.9,992.757c-.6-.138-2.716-.369-3.425-.5.345.879.831,2.516.866,2.651a1.564,1.564,0,0,1-.437,1.7,7.217,7.217,0,0,1-2.081,1.317c-1.153.475-2.1.678-2.373,1.288-.26.585-.068.678.136.746s7.658.2,8.4-.2c.607-.331.651-.961.158-2.286a40.718,40.718,0,0,1-1.247-4.712" transform="translate(-497.746 -915.757)" fill="#e3916f"/>
            <path id="Trazado_124307" data-name="Trazado 124307" d="M548.03,1037.185a1.457,1.457,0,0,1-.874.1c-.509-.123-.72-.6-.974-1a1.3,1.3,0,0,0-.57-.532,1.346,1.346,0,0,0-.794-.064,2.046,2.046,0,0,0-.422.139,1.5,1.5,0,0,1-.488.833,7.212,7.212,0,0,1-2.081,1.317c-1.153.475-2.1.678-2.373,1.288-.26.585-.068.678.136.746s7.658.2,8.4-.2c.607-.331.651-.962.158-2.286-.044-.119-.084-.227-.12-.328" transform="translate(-497.746 -955.802)" fill="#7199c9"/>
            <path id="Trazado_124308" data-name="Trazado 124308" d="M612.688,1060.451c-.459.364-.949.688-1.421,1.035-.493.363-.98.735-1.47,1.1a13.554,13.554,0,0,0,3.232-.267c.6-.329.65-.957.163-2.27-.169.131-.336.266-.5.4" transform="translate(-562.783 -978.324)" fill="#527da8"/>
            <path id="Trazado_124309" data-name="Trazado 124309" d="M539.327,1080.229s3.012-.017,4.114-.017,2.372,0,2.687-.053.472-.367.919-.472a11.419,11.419,0,0,1,1.441-.151,2.939,2.939,0,0,1-.014.728c-.062.156-.4.232-1.878.3s-5.793.074-6.195.056c-.739-.033-1.059-.046-1.074-.388" transform="translate(-497.746 -996.306)" fill="#fff"/>
            <path id="Trazado_124310" data-name="Trazado 124310" d="M611.549,1079.688c-.446.1-.6.42-.919.472a8.271,8.271,0,0,1-.88.043l-.5.374-.037.027c.759-.01,1.444-.024,1.88-.043,1.476-.064,1.816-.14,1.878-.3a2.945,2.945,0,0,0,.014-.728,11.432,11.432,0,0,0-1.441.151" transform="translate(-562.249 -996.307)" fill="#e4e9eb"/>
            <path id="Trazado_124311" data-name="Trazado 124311" d="M640.97,1002.831c-.6-.138-.7-.25-1.3-.375-.7-.147-1.395-.4-2.1-.528a12.84,12.84,0,0,1,.051,1.784,3.188,3.188,0,0,1-1.138,1.818,7.21,7.21,0,0,1-2.081,1.317c-1.153.475-2.1.678-2.373,1.288-.26.585-.068.678.136.746s8.091.214,8.837-.193c.607-.331.42-.993.214-2.392a11.566,11.566,0,0,1-.242-3.467" transform="translate(-583.182 -924.682)" fill="#e3916f"/>
            <path id="Trazado_124312" data-name="Trazado 124312" d="M641.133,1041.1a3.393,3.393,0,0,1-2.077,1.041,1.757,1.757,0,0,1-1.022-.274,1.332,1.332,0,0,1-.271-.792,1.314,1.314,0,0,0-.225-.717.583.583,0,0,0-.446-.209,5.378,5.378,0,0,1-.612.656,7.217,7.217,0,0,1-2.081,1.317c-1.153.475-2.1.678-2.373,1.288-.26.585-.068.678.136.746s8.091.214,8.837-.193c.607-.331.42-.993.214-2.392-.028-.191-.054-.342-.078-.472" transform="translate(-583.181 -959.958)" fill="#7199c9"/>
            <path id="Trazado_124313" data-name="Trazado 124313" d="M555.042,523.76s-.317,9.787.046,17.515.605,17.237.242,20.686c0,0-.3.242-1.694,0s-3.63-.537-3.872-1.479-1.535-17.084-2.272-23.519a66.192,66.192,0,0,0-3.736,7.062c-.484,1.586,2.922,15.566,2.922,15.566A14.659,14.659,0,0,1,543,561.528c-1.89.605-1.951-1.176-2.737-3.57s-3.157-11.046-3.278-14.368,7.937-20.053,7.937-20.053,7.472-1.787,10.119.223" transform="translate(-495.584 -482.498)" fill="#6b4e4e"/>
            <path id="Trazado_124314" data-name="Trazado 124314" d="M721.659,565.454a10.833,10.833,0,0,1-1.827-2.629c-.066-.133-.266-.016-.2.117a11.048,11.048,0,0,0,1.863,2.676c.1.109.266-.055.164-.164" transform="translate(-664.137 -519.378)" fill="#493333"/>
            <path id="Trazado_124315" data-name="Trazado 124315" d="M600.485,657.338q-1.208,1.645-2.327,3.352t-2.134,3.457q-.579,1-1.127,2.009c-.047.087.086.165.133.078q.971-1.795,2.038-3.536t2.215-3.406q.654-.948,1.336-1.877c.059-.08-.075-.157-.133-.078" transform="translate(-549.023 -606.627)" fill="#493333"/>
            <path id="Trazado_124316" data-name="Trazado 124316" d="M595.239,804.573l-2.2-6.893-1.1-3.446a11.968,11.968,0,0,1-.463-1.688,3.61,3.61,0,0,1-.042-.889,1.886,1.886,0,0,0,.031-.678.445.445,0,0,0-.195-.255c-.113-.072-.252-.106-.3-.249-.076-.252.126-.49.256-.682a.7.7,0,0,0,.149-.662.374.374,0,0,0-.49-.238c-.09.041-.012.174.078.133a.2.2,0,0,1,.231.094.346.346,0,0,1,.047.314,5.045,5.045,0,0,1-.359.608.633.633,0,0,0-.026.559c.105.193.391.2.454.417a1.989,1.989,0,0,1-.04.673,3.741,3.741,0,0,0,.039.821,10.569,10.569,0,0,0,.439,1.651l2.129,6.673,1.2,3.776c.03.094.179.054.149-.041" transform="translate(-545.259 -728.043)" fill="#493333"/>
            <path id="Trazado_124317" data-name="Trazado 124317" d="M665.159,608.213q-.176-2.243-.278-4.49-.057-1.262-.091-2.526a.154.154,0,0,0-.308,0q.061,2.249.2,4.495t.343,4.486q.117,1.258.258,2.514a.159.159,0,0,0,.154.154.155.155,0,0,0,.154-.154q-.25-2.236-.426-4.479" transform="translate(-613.251 -554.709)" fill="#d8b7a1"/>
            <path id="Trazado_124318" data-name="Trazado 124318" d="M632.095,1081.576s3.283-.008,4.385-.008a12.436,12.436,0,0,0,2.008-.12c.315-.053.472-.367.919-.472a16.405,16.405,0,0,1,2.177-.053,3.5,3.5,0,0,1-.071.7c-.062.156-.4.232-1.878.3s-6.065.063-6.466.047-1.011-.054-1.074-.388" transform="translate(-583.362 -997.574)" fill="#fff"/>
            <path id="Trazado_124319" data-name="Trazado 124319" d="M639.444,298.554a17.193,17.193,0,0,1,2.651-1,11.008,11.008,0,0,1,2.583-.6l1.886.955s-1.044,3.991-1.53,4.451a3.652,3.652,0,0,1-3.045,1.6c-1.85-.066-2.021.945-2.546-.787s-.42-4.239,0-4.613" transform="translate(-589.816 -274.053)" fill="#e4e9eb"/>
            <path id="Trazado_124320" data-name="Trazado 124320" d="M624.166,311.4s.065-.373-1.415-1.07c-1.459-.687-2.113-.993-2.113-.993s-2.437,5.059-4.677,5.115-2.443-4.464-2.443-4.464a7.427,7.427,0,0,0-2.308,1.411c-.479.665,0,5.5,0,5.5s.359,2.908.785,4.982a6.207,6.207,0,0,1,.19,1.281,8.255,8.255,0,0,1-.231.918,28.84,28.84,0,0,0-.39,3.184,2.9,2.9,0,0,0,.556,1.607c2.077.888,6.229.422,8.358-.013,1.934-.395,2.706-.37,2.852-.461s.821-3.537.5-4.436a2.706,2.706,0,0,1-.127-.637,1.822,1.822,0,0,0,.68-.552,5.316,5.316,0,0,0,1.1-2.87,25.448,25.448,0,0,0-1.32-8.507" transform="translate(-563.89 -285.488)" fill="#b3a97b"/>
            <path id="Trazado_124321" data-name="Trazado 124321" d="M643.9,529.435c-.628-.025-1.168.427-1.749.636-.627.226-1.3.107-1.937.282-.322.089-.6.31-.915.415a4.3,4.3,0,0,1-1.01.145,12.746,12.746,0,0,1-2.051,0,14.553,14.553,0,0,1-2.3-.386c-.061-.015-.075.105-.014.122a12.581,12.581,0,0,0,4.044.435c.346-.018.693-.047,1.036-.1a3.015,3.015,0,0,0,.9-.354,7.546,7.546,0,0,1,1.97-.325c.708-.147,1.313-.713,2.045-.727.073,0,.057-.143-.014-.146" transform="translate(-585.009 -488.616)" fill="#978a57"/>
            <path id="Trazado_124322" data-name="Trazado 124322" d="M642.656,493.288a34.336,34.336,0,0,0,7.2-.47c1.641-.331,2.667-.548,3.281-.683a2.057,2.057,0,0,0-.086-.672,2.714,2.714,0,0,1-.127-.637,31.529,31.529,0,0,1-6.806,1.992c-2.2.3-3.463.47-3.463.47" transform="translate(-593.109 -452.985)" fill="#143a35"/>
            <path id="Trazado_124323" data-name="Trazado 124323" d="M737.824,326.135a11.848,11.848,0,0,0-2.76,2.624c-.06.079.074.156.133.078a11.789,11.789,0,0,1,2.773-2.614c-.046-.028-.094-.057-.146-.087" transform="translate(-678.378 -300.99)" fill="#978a57"/>
            <path id="Trazado_124324" data-name="Trazado 124324" d="M616.015,335.723a11.071,11.071,0,0,0-1.4-2.009q-.058.055-.1.111a11.168,11.168,0,0,1,1.368,1.977.077.077,0,0,0,.133-.078" transform="translate(-567.136 -307.985)" fill="#978a57"/>
            <path id="Trazado_124325" data-name="Trazado 124325" d="M522.178,358.339a17.9,17.9,0,0,0-.188-3.413c-.533-2.339-1.885-5.965-1.978-5.128s-.419,6.488-.514,7.067c-.045.276-.08.509-.107.705a28.1,28.1,0,0,1-6.2-.16l-.779,3.662s5.314,1.183,7.666,1.477,2.1-4.21,2.1-4.21" transform="translate(-472.905 -322.715)" fill="#b3a97b"/>
            <path id="Trazado_124326" data-name="Trazado 124326" d="M581.154,448.058q-1.478.113-2.961.132a.116.116,0,0,0-.1.131.118.118,0,0,0,.131.1q1.482-.018,2.961-.132c.149-.011.115-.24-.033-.229" transform="translate(-533.525 -413.513)" fill="#493333"/>
            <path id="Trazado_124327" data-name="Trazado 124327" d="M626.15,384.2a9.827,9.827,0,0,0-.177-1.8c-.086-.614-.141-1.233-.167-1.853a19.738,19.738,0,0,1,.022-2.08c.009-.149-.222-.148-.231,0a19.694,19.694,0,0,0,.125,3.776,12.085,12.085,0,0,1,.2,1.857c-.014.574-.127,1.14-.188,1.71a3.564,3.564,0,0,0,.192,1.824c.059.136.258.019.2-.117a3.257,3.257,0,0,1-.169-1.623c.055-.565.168-1.124.193-1.692" transform="translate(-577.327 -349.184)" fill="#978a57"/>
            <path id="Trazado_124328" data-name="Trazado 124328" d="M508.047,468.079s-.26,1.571-.742,1.559-.495-1.794-.334-2.227,1.076.668,1.076.668" transform="translate(-467.799 -431.281)" fill="#143a35"/>
            <path id="Trazado_124329" data-name="Trazado 124329" d="M442.459,434.741s-.43-.571-.37-.84c.078-.353,1.022.28,1.327.425s.882.573,1.188.719-.037,2.1-.037,2.1a8.72,8.72,0,0,1-3.14-.625c-.339.016-2.727-.257-2.856-.531s-.533-.133-.468-.43.306-.427.855-.494c.294-.445,3.5-.327,3.5-.327" transform="translate(-404.32 -400.35)" fill="#e3916f"/>
            <path id="Trazado_124330" data-name="Trazado 124330" d="M458.959,451.947c-.067-.032-.135-.059-.2-.085a1.628,1.628,0,0,1-.112-.641c.005-.065,0-.113-.057-.111s-.072.057-.081.127a1.738,1.738,0,0,0-.025.542,3.64,3.64,0,0,0-1.093-.086c-.27.016-.538.051-.8.091a.462.462,0,0,0-.309.123c-.079.094,0,.358.083.351s-.025-.163.106-.221a1.575,1.575,0,0,1,.487-.083c.209-.024.479-.019.69-.021a2.954,2.954,0,0,1,.95.132.12.12,0,0,0,.059.02c.062.023.124.047.185.076.144.068.27-.146.126-.215" transform="translate(-421.067 -416.331)" fill="#d88060"/>
            <path id="Trazado_124331" data-name="Trazado 124331" d="M492.537,441.233a1.04,1.04,0,0,1-.6-.761.475.475,0,0,0-.289-.358c-.076-.025-.181-.022-.237-.081a1.448,1.448,0,0,1-.174-.2c-.083-.136-.171-.059-.087.078s.153.333.317.406c.075.033.148.032.189.11a1.786,1.786,0,0,1,.082.233,1.21,1.21,0,0,0,.739.815.124.124,0,0,0,.066-.24" transform="translate(-453.247 -405.856)" fill="#d88060"/>
            <path id="Trazado_124332" data-name="Trazado 124332" d="M603.909,201.449c-.349-1.955-1.37-2.581-1.778-2.574a1.548,1.548,0,0,0,.02-.71c-.021-.1-.176-.058-.155.043a1.368,1.368,0,0,1-.005.572c-.046-.174-.214-.484-.817-.647-.868-.234-1.327.342-1.828.524a3.9,3.9,0,0,0-2.2,1.15c-.667.868.191,2.215-.148,2.931s.953,1.568,1.52.914c.354-.407,1.224-1.133,1.976-1.818a5.947,5.947,0,0,0,3.252,1.913,3.179,3.179,0,0,0,.166-2.3" transform="translate(-550.862 -182.806)" fill="#842a2e"/>
            <path id="Trazado_124333" data-name="Trazado 124333" d="M661.663,254.779a22.881,22.881,0,0,0,2.568,3.258,19.076,19.076,0,0,1-2.4,2.732l-.207-1.148-1.342-2.385Z" transform="translate(-609.377 -235.136)" fill="#e3916f"/>
            <path id="Trazado_124334" data-name="Trazado 124334" d="M661.76,261.25a2.759,2.759,0,0,0,.481-.949,2.494,2.494,0,0,0,.034-1.134,7.285,7.285,0,0,0-.4-1.285c-.1-.273-.222-.546-.314-.826l-1.281,2.281,1.227,2.182a2.222,2.222,0,0,0,.251-.269" transform="translate(-609.376 -237.237)" fill="#1a1a1a"/>
            <path id="Trazado_124335" data-name="Trazado 124335" d="M609.411,238.978c.183.336.823,2.224,2.012,2.913a2.743,2.743,0,0,0,2.245.173,2.674,2.674,0,0,0,1.265-3.349s.921-1.207-.156-1.918c-.734-.484-1.064.786-1.064.786s-.125.96-1.776-.586c-1.787.145-2.633-.833-2.525.463a6.167,6.167,0,0,1,0,1.518" transform="translate(-562.418 -218.439)" fill="#e3916f"/>
            <path id="Trazado_124336" data-name="Trazado 124336" d="M622.018,278.43a.268.268,0,0,0-.156-.16.229.229,0,0,0-.059-.013.107.107,0,0,0-.028,0,.089.089,0,0,0-.064.045l0,.007a.133.133,0,0,0-.053.088.174.174,0,0,0,.026.109.242.242,0,0,0,.109.15.181.181,0,0,0,.093.021h.013a.14.14,0,0,0,.107-.066.157.157,0,0,0,.022-.071.2.2,0,0,0-.008-.11" transform="translate(-573.726 -256.803)" fill="#1a1a1a"/>
            <path id="Trazado_124337" data-name="Trazado 124337" d="M645.245,260.237a.227.227,0,0,0-.185-.042.171.171,0,0,0-.1.158.321.321,0,0,0,.034.193l.007.011a.257.257,0,0,0,.022.047.142.142,0,0,0,.017.026l.005.006.013.013a.227.227,0,0,0,.025.023.159.159,0,0,0,.111.028.182.182,0,0,0,.156-.053.239.239,0,0,0,.064-.149.3.3,0,0,0-.167-.261" transform="translate(-595.231 -240.127)" fill="#1a1a1a"/>
            <path id="Trazado_124338" data-name="Trazado 124338" d="M637.545,247.441a.124.124,0,0,0-.149-.084l-.767.135a.121.121,0,0,0-.084.148.124.124,0,0,0,.148.084l.767-.135a.121.121,0,0,0,.084-.148" transform="translate(-587.464 -228.283)" fill="#842a2e"/>
            <path id="Trazado_124339" data-name="Trazado 124339" d="M614.094,268.289a.123.123,0,0,0-.165.043l-.258.481a.121.121,0,0,0,.208.122l.258-.481a.123.123,0,0,0-.043-.165" transform="translate(-566.344 -247.59)" fill="#842a2e"/>
            <path id="Trazado_124340" data-name="Trazado 124340" d="M640.332,284.845a.1.1,0,0,0-.124-.07l-.217.067a.105.105,0,0,0-.06.046.1.1,0,0,0-.01.077.1.1,0,0,0,.124.07l.217-.068a.1.1,0,0,0,.06-.046.1.1,0,0,0,.01-.077" transform="translate(-590.581 -262.816)" fill="#cd5d4c"/>
            <path id="Trazado_124341" data-name="Trazado 124341" d="M645.346,285.48l1.248-1.111s.39.595.173.926a.718.718,0,0,1-.657.305,1.739,1.739,0,0,1-.764-.121" transform="translate(-595.591 -262.445)" fill="#fff"/>
            <path id="Trazado_124342" data-name="Trazado 124342" d="M679.471,304.861l-.205-.1a11.819,11.819,0,0,1-1.719,2.61q-.33.38-.692.729a6.948,6.948,0,0,0-.926-1.184.117.117,0,0,0-.193.051q-.278,1.5-.457,3.011c-.017.148.214.146.231,0q.163-1.373.41-2.734a6.687,6.687,0,0,1,.812,1.1.117.117,0,0,0,.182.023,12.067,12.067,0,0,0,2.473-3.328c.029-.057.056-.115.084-.173" transform="translate(-623.215 -281.261)" fill="#aabacb"/>
            <path id="Trazado_124343" data-name="Trazado 124343" d="M657.6,313.026l-.531.715a6.956,6.956,0,0,1-.792-2.416s0-.007,0-.011l-.222.085a7.917,7.917,0,0,0,.894,2.622.117.117,0,0,0,.2,0l.652-.878c.089-.12-.112-.235-.2-.117" transform="translate(-605.473 -287.312)" fill="#aabacb"/>
            <path id="Trazado_124344" data-name="Trazado 124344" d="M628.6,498.409s.15,1.157-.208,1.343-.979-1.17-.892-1.726,1.1.383,1.1.383" transform="translate(-579.11 -459.466)" fill="#143a35"/>
            <path id="Trazado_124345" data-name="Trazado 124345" d="M563.165,475.688a4.635,4.635,0,0,0-.068-1.829c-.222-.882-1.49-.6-2-.522a3.617,3.617,0,0,1-1.6.056c-.478-.119-.512.274-.336.532,0,0-.453.041-1.358.147s-1.15.263-1.087.519-.148.09-.129.365,2.292.713,3.066.678a34.2,34.2,0,0,1,3.508.055" transform="translate(-513.678 -436.745)" fill="#e3916f"/>
            <path id="Trazado_124346" data-name="Trazado 124346" d="M592.4,481.746a2.947,2.947,0,0,0-1.019-.119,1.543,1.543,0,0,1-.9-.222c-.121-.087-.237.114-.117.2.585.417,1.336.121,1.971.364.139.053.2-.17.061-.223" transform="translate(-544.804 -444.27)" fill="#d88060"/>
            <path id="Trazado_124347" data-name="Trazado 124347" d="M642.724,389.825q-.91.412-1.844.77.191-2.241.547-4.462c.023-.146-.2-.208-.223-.062q-.368,2.292-.563,4.607s0,.005,0,.008q-.671.252-1.351.476a34.752,34.752,0,0,1-3.55.964q-1.018.219-2.048.377c-.147.023-.084.245.061.223a34.728,34.728,0,0,0,7.154-1.894q.978-.374,1.932-.807c.135-.061.018-.261-.117-.2" transform="translate(-584.759 -356.228)" fill="#978a57"/>
          </g>
        </g>
      </g>
    </g>
    <rect id="Rectángulo_35858" data-name="Rectángulo 35858" width="89" height="104" transform="translate(-8746 -9850)" fill="none"/>
  </g>
</svg>
