<svg xmlns="http://www.w3.org/2000/svg" xmlns:xlink="http://www.w3.org/1999/xlink" width="267.838" height="243.602" viewBox="0 0 267.838 243.602">
  <defs>
    <clipPath id="clip-path">
      <rect id="Rectángulo_35853" data-name="Rectángulo 35853" width="267.716" height="235.272" fill="none"/>
    </clipPath>
  </defs>
  <g id="Grupo_87846" data-name="Grupo 87846" transform="translate(9009.121 9603)">
    <g id="Grupo_87420" data-name="Grupo 87420" transform="translate(578 796)">
      <path id="Rectángulo_34017" data-name="Rectángulo 34017" d="M0,0H140a77,77,0,0,1,77,77V243.6a0,0,0,0,1,0,0H0a0,0,0,0,1,0,0V0A0,0,0,0,1,0,0Z" transform="translate(-9562 -10399)" fill="#6b8dfc"/>
      <g id="Grupo_80932" data-name="Grupo 80932" transform="translate(-9556 -10378.072)">
        <path id="Trazado_114646" data-name="Trazado 114646" d="M274.765,153.931c-1.55,23.991-19.953,46.9-44.875,48.318-28.625,2.193-54.9-13.505-83.415-13.671-14.54-1.247-28.176,4.321-42.345,6.118-32,1.175-36.879-36.434-30.911-60.675C98.39,19.738,276.507,35.287,274.765,153.931Z" transform="translate(-71.019 -56.124)" fill="#c4d1ff"/>
      </g>
    </g>
    <g id="Grupo_87845" data-name="Grupo 87845" transform="translate(-9009.121 -9595)">
      <path id="Trazado_124348" data-name="Trazado 124348" d="M0,268l50.884,27.369V211.337L0,190.135Z" transform="translate(0 -85.285)" fill="#d19462"/>
      <path id="Trazado_124349" data-name="Trazado 124349" d="M179.776,273.2l-87.5,22.487V211.847l87.5-21.013Z" transform="translate(-41.388 -85.598)" fill="#996042"/>
      <path id="Trazado_124350" data-name="Trazado 124350" d="M0,173.309l50.884,21.073,88.082-20.688L88.082,152.621Z" transform="translate(0 -68.458)" fill="#e9b375"/>
      <line id="Línea_192" data-name="Línea 192" x1="87.572" y2="20.899" transform="translate(22.094 93.102)" fill="none" stroke="#b26e4b" stroke-miterlimit="10" stroke-width="1"/>
      <path id="Trazado_124351" data-name="Trazado 124351" d="M95.027,142.751,44.143,115.381V37.514l50.884,21.2Z" transform="translate(-19.8 -16.827)" fill="#df9e68"/>
      <path id="Trazado_124352" data-name="Trazado 124352" d="M223.919,120.578l-87.5,22.487V59.226l87.5-21.013Z" transform="translate(-61.189 -17.141)" fill="#b06e4c"/>
      <path id="Trazado_124353" data-name="Trazado 124353" d="M132.226,0,44.144,20.688,95.027,41.761,183.11,21.073Z" transform="translate(-19.801 0)" fill="#e9b375"/>
      <line id="Línea_193" data-name="Línea 193" x1="87.572" y2="20.899" transform="translate(46.437 8.939)" fill="none" stroke="#b26e4b" stroke-miterlimit="10" stroke-width="1"/>
      <g id="Grupo_87844" data-name="Grupo 87844" transform="translate(0.121)">
        <g id="Grupo_87843" data-name="Grupo 87843" clip-path="url(#clip-path)">
          <path id="Trazado_124354" data-name="Trazado 124354" d="M270.629,199.512c4.075,1.537,5.8,4.961,6.935,8.788a39,39,0,0,1,1.017,15.547,52.213,52.213,0,0,1-8.085,23.3c-5.2,7.917-12.167,13.516-21.629,15.284-15.265,2.852-32.824-2.464-42.53-19.336a46.961,46.961,0,0,1-6.157-28.938c.688-6.559,2.813-12.568,7.348-17.579a12.807,12.807,0,0,1,10.226-4.438c6.134.189,10.819,3.358,15.077,7.37a20.915,20.915,0,0,0,3.865,2.923,6.557,6.557,0,0,0,1.487.7c.244.082.489.163.737.232a19.037,19.037,0,0,0,3.145.726c.393.016.785.025,1.178.019,4.476.23,8.713-.944,12.943-2.18,1.922-.562,3.817-1.2,5.692-1.9a2.714,2.714,0,0,0,1.245-.12,28.091,28.091,0,0,1,4.554-.859,4.6,4.6,0,0,1,2.952.465" transform="translate(-89.666 -86.181)" fill="#e7384c"/>
          <path id="Trazado_124355" data-name="Trazado 124355" d="M272.792,172.136a9.171,9.171,0,0,1-3.136-.777,1.565,1.565,0,0,1-.5-1.021,24.88,24.88,0,0,1-.038-9.217,2.036,2.036,0,0,1,.492-1.033,28.556,28.556,0,0,1,8.039-13.341c2.986-2.893,6.508-5.07,9.9-7.427A163.988,163.988,0,0,0,306.019,124.8a51.683,51.683,0,0,0,4.173-4.429,21.711,21.711,0,0,1,1.169,4.505,48.117,48.117,0,0,1,.422,16.115A35.251,35.251,0,0,1,298.4,164.262c-.276.216-.53.459-.794.69a12.056,12.056,0,0,1-4.867,3.058c-5.635,2.252-11.374,4.078-17.515,4.236-.387.01-.774-.024-1.161-.038.039-.529.511-.535.845-.645a130.113,130.113,0,0,0,16.394-6.628,28.845,28.845,0,0,0,7.934-5.214,5.284,5.284,0,0,0,1.3-2.032,1.972,1.972,0,0,0-1.182-2.768,11.021,11.021,0,0,0-4.122-.882c-1.13-.016-2.262.018-3.392-.018-.3-.009-.719.034-.774-.363-.044-.323.322-.443.585-.511a59.988,59.988,0,0,0,6.633-2.205c2.821-1.1,5.7-2.139,7.915-4.352a3.294,3.294,0,0,0-.3-5.174,9.708,9.708,0,0,0-1.869-1.2c-1.214-.6-1.216-.764-.255-1.658a22.915,22.915,0,0,0,4.053-4.449,6.807,6.807,0,0,0,.778-6.267c-.407-1.1-.68-1.123-1.353-.189-1.59,2.209-3.2,4.4-4.938,6.5a83.619,83.619,0,0,1-12.369,12.445,55.491,55.491,0,0,0-12.4,13.109A26.934,26.934,0,0,0,273.261,171a1.522,1.522,0,0,1-.469,1.139" transform="translate(-120.528 -53.993)" fill="#cacc45"/>
          <path id="Trazado_124356" data-name="Trazado 124356" d="M262.229,180.79a5.717,5.717,0,0,1-1.481-.641c-1.161-1.6-1.578-3.529-2.3-5.32-.592-1.471-1.025-3-1.521-4.51a1.151,1.151,0,0,1-.041-1.019,65.732,65.732,0,0,1-3.168-15.517,18.479,18.479,0,0,1,.637-6.817,13.125,13.125,0,0,1,.679-1.66,3.411,3.411,0,0,1,2.861-2.153,60.746,60.746,0,0,0,6.438-1.248c.791-.181.791.041.688.689-.834,5.228-1.553,10.474-2.058,15.744a93.7,93.7,0,0,0-.736,11.4,9.793,9.793,0,0,1-.028,3.246,30.811,30.811,0,0,0,.2,6.19c.077.518.272,1.119-.171,1.613" transform="translate(-113.781 -63.624)" fill="#5c4d00"/>
          <path id="Trazado_124357" data-name="Trazado 124357" d="M247.29,191.528c1.134,3.67,2.51,7.255,3.862,10.849-2.723-1.37-4.6-3.8-6.969-5.608a25,25,0,0,0-10.374-4.735c-.51-.1-1.069.148-1.535-.226a90.789,90.789,0,0,1,13.218-.3c.6.027,1.2.014,1.8.019" transform="translate(-104.186 -85.851)" fill="#cb223c"/>
          <path id="Trazado_124358" data-name="Trazado 124358" d="M312.281,204.271l4.867-3.058a15,15,0,0,1,3.888,2.371c-2.594-.527-5.077.126-7.563.716-.41.1-.8.3-1.192-.03" transform="translate(-140.073 -90.254)" fill="#cc233c"/>
          <path id="Trazado_124359" data-name="Trazado 124359" d="M269.014,203.462c-.269-3.309-.226-6.625-.2-9.94,0-.374-.12-.785.2-1.11l.639-.023a26.444,26.444,0,0,0,.045,11.272l-.68-.2" transform="translate(-120.566 -86.296)" fill="#c62a3b"/>
          <path id="Trazado_124360" data-name="Trazado 124360" d="M276.114,177.108a28.845,28.845,0,0,1,2.956-9.846,38.558,38.558,0,0,1,6.281-8.71,92.3,92.3,0,0,1,9.874-8.923,64.687,64.687,0,0,0,8.862-9.063c2.365-2.8,4.584-5.705,6.69-8.7.421-.6.71-.509,1.062.1a7.225,7.225,0,0,1-.526,7.4,22.921,22.921,0,0,1-4.43,4.646c-.46.371-.385.537.155.763a6.727,6.727,0,0,1,3.379,2.591,3.5,3.5,0,0,1-.469,4.188c-1.68,1.89-3.963,2.787-6.168,3.77a55.6,55.6,0,0,1-8.859,3.057,4.034,4.034,0,0,0-.614.35c1.454,0,2.624.025,3.793-.007a11.853,11.853,0,0,1,3.939.643c2.43.776,2.969,2.259,1.6,4.423a12.635,12.635,0,0,1-3.9,3.512,68.62,68.62,0,0,1-11.213,5.656c-3.647,1.587-7.427,2.818-11.142,4.224l-1.268-.074" transform="translate(-123.85 -58.966)" fill="#bab001"/>
          <path id="Trazado_124361" data-name="Trazado 124361" d="M227.5,225.551a57.374,57.374,0,0,1-.74,7.656,24.127,24.127,0,0,0,1.888,13.911c.634,1.378,1.379,2.7,2.027,4.075.734,1.552.2,2.372-1.532,2.3-2.019-.086-3.346-1.421-4.521-2.833-3.827-4.6-5.674-10.052-6.7-15.858a63.15,63.15,0,0,1-.549-7.68,9.476,9.476,0,0,1,1.654-5.9,5.652,5.652,0,0,1,5.342-1.826c1.819.411,2.542,1.789,2.869,3.423a9.323,9.323,0,0,1,.267,2.734" transform="translate(-97.493 -98.36)" fill="#f18793"/>
          <path id="Trazado_124362" data-name="Trazado 124362" d="M250.942,288.2a2.282,2.282,0,0,1-1.032,2.049,6.962,6.962,0,0,1-4.37,1.311,2.308,2.308,0,0,1-2.411-2.509,4.237,4.237,0,0,1,2.344-3.759,3.784,3.784,0,0,1,4.261.414,2.815,2.815,0,0,1,1.209,2.495" transform="translate(-109.053 -127.756)" fill="#f18793"/>
          <path id="Trazado_124363" data-name="Trazado 124363" d="M169.231,260.187c4.075,1.537,5.8,4.961,6.935,8.789a39,39,0,0,1,1.017,15.547,52.213,52.213,0,0,1-8.085,23.3c-5.2,7.917-12.167,13.516-21.629,15.284-15.265,2.852-32.824-2.464-42.53-19.336a46.961,46.961,0,0,1-6.157-28.938c.688-6.559,2.813-12.568,7.348-17.579a12.807,12.807,0,0,1,10.226-4.438c6.134.189,10.819,3.358,15.077,7.37A20.914,20.914,0,0,0,135.3,263.1a6.556,6.556,0,0,0,1.487.7c.244.082.489.163.737.232a19.039,19.039,0,0,0,3.145.726c.393.016.785.025,1.178.019,4.476.23,8.713-.944,12.943-2.18,1.922-.562,3.817-1.2,5.692-1.9a2.714,2.714,0,0,0,1.245-.12,28.1,28.1,0,0,1,4.554-.859,4.6,4.6,0,0,1,2.952.465" transform="translate(-44.184 -113.397)" fill="#e7384c"/>
          <path id="Trazado_124364" data-name="Trazado 124364" d="M171.394,232.811a9.171,9.171,0,0,1-3.136-.777,1.565,1.565,0,0,1-.5-1.021,24.88,24.88,0,0,1-.038-9.217,2.036,2.036,0,0,1,.492-1.033,28.556,28.556,0,0,1,8.039-13.341c2.986-2.893,6.508-5.07,9.9-7.427a163.99,163.99,0,0,0,18.472-14.516,51.685,51.685,0,0,0,4.173-4.429,21.709,21.709,0,0,1,1.169,4.505,48.116,48.116,0,0,1,.422,16.115A35.251,35.251,0,0,1,197,224.937c-.276.216-.53.459-.794.69a12.056,12.056,0,0,1-4.867,3.058c-5.635,2.252-11.374,4.078-17.515,4.236-.387.01-.774-.024-1.161-.038.039-.529.511-.535.845-.645a130.116,130.116,0,0,0,16.394-6.628,28.845,28.845,0,0,0,7.934-5.214,5.283,5.283,0,0,0,1.3-2.032,1.972,1.972,0,0,0-1.182-2.768,11.021,11.021,0,0,0-4.122-.882c-1.13-.016-2.262.018-3.392-.018-.3-.009-.719.034-.774-.363-.044-.323.322-.443.585-.511a59.993,59.993,0,0,0,6.633-2.205c2.821-1.1,5.7-2.139,7.915-4.352a3.294,3.294,0,0,0-.3-5.174,9.708,9.708,0,0,0-1.869-1.2c-1.214-.6-1.216-.764-.255-1.658a22.914,22.914,0,0,0,4.053-4.449,6.807,6.807,0,0,0,.778-6.267c-.407-1.1-.68-1.123-1.353-.189-1.59,2.209-3.2,4.4-4.938,6.5a83.618,83.618,0,0,1-12.369,12.445,55.491,55.491,0,0,0-12.4,13.109,26.934,26.934,0,0,0-4.291,11.294,1.522,1.522,0,0,1-.469,1.139" transform="translate(-75.046 -81.209)" fill="#cacc45"/>
          <path id="Trazado_124365" data-name="Trazado 124365" d="M160.831,241.465a5.716,5.716,0,0,1-1.481-.641c-1.161-1.6-1.578-3.529-2.3-5.32-.592-1.471-1.025-3-1.521-4.51a1.15,1.15,0,0,1-.041-1.019,65.734,65.734,0,0,1-3.168-15.517,18.479,18.479,0,0,1,.637-6.816,13.127,13.127,0,0,1,.679-1.66,3.411,3.411,0,0,1,2.861-2.153,60.743,60.743,0,0,0,6.438-1.248c.791-.181.791.041.688.689-.834,5.228-1.553,10.474-2.058,15.744a93.707,93.707,0,0,0-.736,11.4,9.778,9.778,0,0,1-.029,3.246,30.85,30.85,0,0,0,.2,6.19c.077.518.272,1.119-.171,1.613" transform="translate(-68.299 -90.839)" fill="#5c4d00"/>
          <path id="Trazado_124366" data-name="Trazado 124366" d="M145.893,252.2c1.134,3.67,2.51,7.255,3.862,10.849-2.723-1.37-4.6-3.8-6.969-5.608a25,25,0,0,0-10.374-4.735c-.51-.1-1.069.148-1.535-.226a90.787,90.787,0,0,1,13.218-.3c.6.027,1.2.014,1.8.019" transform="translate(-58.705 -113.067)" fill="#cb223c"/>
          <path id="Trazado_124367" data-name="Trazado 124367" d="M210.883,264.946l4.867-3.058a15,15,0,0,1,3.888,2.371c-2.593-.527-5.077.126-7.563.716-.41.1-.8.3-1.192-.03" transform="translate(-94.591 -117.469)" fill="#cc233c"/>
          <path id="Trazado_124368" data-name="Trazado 124368" d="M167.616,264.137c-.269-3.309-.226-6.625-.2-9.94,0-.374-.12-.785.2-1.11l.639-.023a26.444,26.444,0,0,0,.045,11.272l-.68-.2" transform="translate(-75.084 -113.511)" fill="#c62a3b"/>
          <path id="Trazado_124369" data-name="Trazado 124369" d="M174.716,237.783a28.846,28.846,0,0,1,2.956-9.846,38.557,38.557,0,0,1,6.281-8.71,92.3,92.3,0,0,1,9.874-8.923,64.686,64.686,0,0,0,8.862-9.063c2.365-2.8,4.584-5.705,6.69-8.7.421-.6.71-.509,1.062.1a7.225,7.225,0,0,1-.526,7.4,22.908,22.908,0,0,1-4.431,4.646c-.46.371-.385.537.155.763a6.726,6.726,0,0,1,3.379,2.591,3.5,3.5,0,0,1-.469,4.188c-1.68,1.89-3.963,2.787-6.168,3.77a55.6,55.6,0,0,1-8.859,3.057,4.037,4.037,0,0,0-.614.35c1.454,0,2.624.025,3.793-.007a11.854,11.854,0,0,1,3.939.643c2.43.776,2.968,2.259,1.6,4.423a12.636,12.636,0,0,1-3.9,3.512,68.62,68.62,0,0,1-11.213,5.656c-3.647,1.587-7.427,2.818-11.142,4.224l-1.268-.074" transform="translate(-78.368 -86.182)" fill="#bab001"/>
          <path id="Trazado_124370" data-name="Trazado 124370" d="M126.1,286.227a57.373,57.373,0,0,1-.74,7.656,24.128,24.128,0,0,0,1.888,13.911c.634,1.378,1.379,2.7,2.027,4.075.734,1.552.2,2.372-1.532,2.3-2.019-.086-3.346-1.421-4.521-2.833-3.827-4.6-5.674-10.052-6.7-15.858a63.15,63.15,0,0,1-.549-7.68,9.476,9.476,0,0,1,1.654-5.9,5.652,5.652,0,0,1,5.342-1.826c1.819.411,2.542,1.789,2.869,3.423a9.322,9.322,0,0,1,.267,2.734" transform="translate(-52.011 -125.576)" fill="#f18793"/>
          <path id="Trazado_124371" data-name="Trazado 124371" d="M149.544,348.877a2.281,2.281,0,0,1-1.032,2.049,6.962,6.962,0,0,1-4.37,1.311,2.308,2.308,0,0,1-2.411-2.509,4.237,4.237,0,0,1,2.344-3.759,3.784,3.784,0,0,1,4.261.414,2.815,2.815,0,0,1,1.209,2.495" transform="translate(-63.571 -154.972)" fill="#f18793"/>
          <path id="Trazado_124372" data-name="Trazado 124372" d="M284.359,341.041l-50.884-27.369V235.805l50.884,21.2Z" transform="translate(-104.725 -105.77)" fill="#df9e68"/>
          <path id="Trazado_124373" data-name="Trazado 124373" d="M413.251,318.869l-87.5,22.487V257.517l87.5-21.013Z" transform="translate(-146.113 -106.083)" fill="#b06e4c"/>
          <path id="Trazado_124374" data-name="Trazado 124374" d="M372.441,219.364l-88.082,20.687-50.884-21.073,88.082-20.688Z" transform="translate(-104.725 -88.943)" fill="#e9b375"/>
          <line id="Línea_194" data-name="Línea 194" x1="87.572" y2="20.899" transform="translate(150.845 118.287)" fill="none" stroke="#b26e4b" stroke-miterlimit="10" stroke-width="1"/>
        </g>
      </g>
    </g>
  </g>
</svg>
