<svg xmlns="http://www.w3.org/2000/svg" xmlns:xlink="http://www.w3.org/1999/xlink" width="88.904" height="50.181" viewBox="0 0 88.904 50.181">
  <defs>
    <clipPath id="clip-path">
      <rect id="Rectángulo_35854" data-name="Rectángulo 35854" width="88.904" height="50.181" fill="none"/>
    </clipPath>
  </defs>
  <g id="Grupo_87850" data-name="Grupo 87850" transform="translate(8957 9622)">
    <g id="Grupo_87849" data-name="Grupo 87849" transform="translate(-8957 -9622)">
      <path id="Trazado_124375" data-name="Trazado 124375" d="M0,63.372l16.9,9.089V44.555L0,37.514Z" transform="translate(0 -30.644)" fill="#d19462"/>
      <path id="Trazado_124376" data-name="Trazado 124376" d="M121.331,65.565,92.272,73.033V45.192l29.059-6.978Z" transform="translate(-75.374 -31.216)" fill="#996042"/>
      <path id="Trazado_124377" data-name="Trazado 124377" d="M29.251,0,0,6.87l16.9,7L46.149,7Z" transform="translate(0 0)" fill="#e9b375"/>
      <line id="Línea_195" data-name="Línea 195" x1="29.081" y2="6.94" transform="translate(7.337 2.968)" fill="none" stroke="#b26e4b" stroke-miterlimit="10" stroke-width="1"/>
      <g id="Grupo_87848" data-name="Grupo 87848">
        <g id="Grupo_87847" data-name="Grupo 87847" clip-path="url(#clip-path)">
          <path id="Trazado_124378" data-name="Trazado 124378" d="M141.067,93.294a3.956,3.956,0,0,1,2.3,2.919,12.95,12.95,0,0,1,.338,5.163,17.34,17.34,0,0,1-2.685,7.736,10.84,10.84,0,0,1-7.182,5.075,13.165,13.165,0,0,1-14.123-6.421,15.6,15.6,0,0,1-2.045-9.61,9.949,9.949,0,0,1,2.44-5.838,4.253,4.253,0,0,1,3.4-1.474,7.586,7.586,0,0,1,5.007,2.448,6.955,6.955,0,0,0,1.284.971,2.185,2.185,0,0,0,.494.234c.081.027.162.054.245.077a6.323,6.323,0,0,0,1.044.241c.13.005.261.008.391.006a12.91,12.91,0,0,0,4.3-.724c.638-.187,1.267-.4,1.89-.633a.9.9,0,0,0,.413-.04,9.332,9.332,0,0,1,1.512-.285,1.527,1.527,0,0,1,.98.155" transform="translate(-96.048 -74.207)" fill="#e7384c"/>
          <path id="Trazado_124379" data-name="Trazado 124379" d="M187.741,36.273a3.046,3.046,0,0,1-1.041-.258.52.52,0,0,1-.166-.339,8.263,8.263,0,0,1-.013-3.061.677.677,0,0,1,.164-.343,9.483,9.483,0,0,1,2.669-4.43,25.3,25.3,0,0,1,3.287-2.466,54.463,54.463,0,0,0,6.134-4.821,17.164,17.164,0,0,0,1.386-1.471,7.207,7.207,0,0,1,.388,1.5,15.979,15.979,0,0,1,.14,5.351,11.707,11.707,0,0,1-4.445,7.727c-.092.072-.176.153-.264.229a4,4,0,0,1-1.616,1.015,16.821,16.821,0,0,1-5.817,1.407c-.128,0-.257-.008-.385-.012.013-.176.17-.178.281-.214a43.207,43.207,0,0,0,5.444-2.2,9.579,9.579,0,0,0,2.635-1.731,1.754,1.754,0,0,0,.433-.675.655.655,0,0,0-.392-.919,3.66,3.66,0,0,0-1.369-.293c-.375-.005-.751.006-1.126-.006-.1,0-.239.011-.257-.121-.015-.107.107-.147.194-.17a19.925,19.925,0,0,0,2.2-.732,7.2,7.2,0,0,0,2.628-1.445,1.094,1.094,0,0,0-.1-1.718,3.225,3.225,0,0,0-.621-.4c-.4-.2-.4-.254-.085-.551a7.609,7.609,0,0,0,1.346-1.477,2.26,2.26,0,0,0,.258-2.081c-.135-.366-.226-.373-.449-.063-.528.733-1.063,1.461-1.64,2.157a27.768,27.768,0,0,1-4.108,4.133,18.427,18.427,0,0,0-4.118,4.353,8.944,8.944,0,0,0-1.425,3.75.505.505,0,0,1-.156.378" transform="translate(-152.252 -15.589)" fill="#cacc45"/>
          <path id="Trazado_124380" data-name="Trazado 124380" d="M174.186,53.487a1.9,1.9,0,0,1-.492-.213,7.8,7.8,0,0,1-.764-1.767c-.2-.488-.34-1-.505-1.5a.382.382,0,0,1-.014-.338,21.828,21.828,0,0,1-1.052-5.153,6.136,6.136,0,0,1,.211-2.264,4.361,4.361,0,0,1,.225-.551,1.133,1.133,0,0,1,.95-.715,20.172,20.172,0,0,0,2.138-.415c.263-.06.263.014.228.229-.277,1.736-.516,3.478-.683,5.228a31.127,31.127,0,0,0-.244,3.787,3.248,3.248,0,0,1-.01,1.078,10.246,10.246,0,0,0,.067,2.056c.025.172.09.372-.057.536" transform="translate(-139.964 -33.127)" fill="#5c4d00"/>
          <path id="Trazado_124381" data-name="Trazado 124381" d="M154.938,90.151c.377,1.219.833,2.409,1.282,3.6a15.721,15.721,0,0,1-2.314-1.862,8.3,8.3,0,0,0-3.445-1.573c-.169-.034-.355.049-.51-.075a30.149,30.149,0,0,1,4.389-.1c.2.009.4,0,.6.006" transform="translate(-122.491 -73.607)" fill="#cb223c"/>
          <path id="Trazado_124382" data-name="Trazado 124382" d="M229.957,100.938l1.616-1.015a4.982,4.982,0,0,1,1.291.787,5.765,5.765,0,0,0-2.512.238c-.136.032-.266.1-.4-.01" transform="translate(-187.845 -81.624)" fill="#cc233c"/>
          <path id="Trazado_124383" data-name="Trazado 124383" d="M186.541,94.776c-.089-1.1-.075-2.2-.067-3.3,0-.124-.04-.261.066-.368l.212-.008a8.782,8.782,0,0,0,.015,3.743l-.226-.066" transform="translate(-152.32 -74.416)" fill="#c62a3b"/>
          <path id="Trazado_124384" data-name="Trazado 124384" d="M193.791,45.329a9.581,9.581,0,0,1,.982-3.27,12.8,12.8,0,0,1,2.086-2.893,30.649,30.649,0,0,1,3.279-2.963,21.48,21.48,0,0,0,2.943-3.01c.785-.929,1.522-1.895,2.222-2.889.14-.2.236-.169.353.033a2.4,2.4,0,0,1-.175,2.458,7.608,7.608,0,0,1-1.471,1.543c-.153.123-.128.178.052.253a2.234,2.234,0,0,1,1.122.86,1.161,1.161,0,0,1-.156,1.391,5.585,5.585,0,0,1-2.048,1.252,18.465,18.465,0,0,1-2.942,1.015,1.342,1.342,0,0,0-.2.116c.483,0,.872.008,1.26,0a3.931,3.931,0,0,1,1.308.213c.807.258.986.75.531,1.469a4.2,4.2,0,0,1-1.3,1.166,22.788,22.788,0,0,1-3.724,1.878c-1.211.527-2.466.936-3.7,1.4l-.421-.025" transform="translate(-158.302 -24.645)" fill="#bab001"/>
          <path id="Trazado_124385" data-name="Trazado 124385" d="M138.4,120.077a19.052,19.052,0,0,1-.246,2.543,8.012,8.012,0,0,0,.627,4.62c.211.457.458.9.673,1.353.244.515.066.788-.509.763a2.1,2.1,0,0,1-1.5-.941,10.967,10.967,0,0,1-2.226-5.266,20.977,20.977,0,0,1-.182-2.55,3.147,3.147,0,0,1,.549-1.96,1.877,1.877,0,0,1,1.774-.607,1.265,1.265,0,0,1,.953,1.137,3.1,3.1,0,0,1,.089.908" transform="translate(-110.302 -96.388)" fill="#f18793"/>
          <path id="Trazado_124386" data-name="Trazado 124386" d="M163.4,184.654a.757.757,0,0,1-.343.68,2.312,2.312,0,0,1-1.451.435.767.767,0,0,1-.8-.833,1.407,1.407,0,0,1,.778-1.248,1.257,1.257,0,0,1,1.415.138.935.935,0,0,1,.4.828" transform="translate(-131.354 -149.922)" fill="#f18793"/>
          <path id="Trazado_124387" data-name="Trazado 124387" d="M250.372,118.131l-16.9-9.089V83.184l16.9,7.041Z" transform="translate(-190.719 -67.951)" fill="#df9e68"/>
          <path id="Trazado_124388" data-name="Trazado 124388" d="M354.806,111.235,325.747,118.7V90.861l29.059-6.978Z" transform="translate(-266.094 -68.522)" fill="#b06e4c"/>
          <path id="Trazado_124389" data-name="Trazado 124389" d="M279.623,52.668l-29.251,6.87-16.9-7,29.251-6.87Z" transform="translate(-190.719 -37.306)" fill="#e9b375"/>
          <line id="Línea_196" data-name="Línea 196" x1="29.081" y2="6.94" transform="translate(50.093 11.332)" fill="none" stroke="#b26e4b" stroke-miterlimit="10" stroke-width="1"/>
        </g>
      </g>
    </g>
  </g>
</svg>
