<svg xmlns="http://www.w3.org/2000/svg" xmlns:xlink="http://www.w3.org/1999/xlink" width="217" height="300.613" viewBox="0 0 217 300.613">
  <defs>
    <clipPath id="clip-path">
      <rect id="Rectángulo_35852" data-name="Rectángulo 35852" width="204.559" height="280.685" fill="none"/>
    </clipPath>
    <clipPath id="clip-path-2">
      <rect id="Rectángulo_35851" data-name="Rectángulo 35851" width="204.559" height="280.686" fill="none"/>
    </clipPath>
    <clipPath id="clip-path-3">
      <rect id="Rectángulo_35847" data-name="Rectángulo 35847" width="25.082" height="51.568" fill="none"/>
    </clipPath>
    <clipPath id="clip-path-4">
      <rect id="Rectángulo_35848" data-name="Rectángulo 35848" width="16.516" height="35.754" fill="none"/>
    </clipPath>
    <clipPath id="clip-path-5">
      <rect id="Rectángulo_35849" data-name="Rectángulo 35849" width="24.101" height="47.82" fill="none"/>
    </clipPath>
    <clipPath id="clip-path-6">
      <rect id="Rectángulo_35850" data-name="Rectángulo 35850" width="15.982" height="33.181" fill="none"/>
    </clipPath>
  </defs>
  <g id="Grupo_87417" data-name="Grupo 87417" transform="translate(9562 10398)">
    <path id="Rectángulo_34017" data-name="Rectángulo 34017" d="M0,0H140a77,77,0,0,1,77,77V300.5a0,0,0,0,1,0,0H0a0,0,0,0,1,0,0V0A0,0,0,0,1,0,0Z" transform="translate(-9562 -10398)" fill="#6b8dfc"/>
    <g id="Grupo_80932" data-name="Grupo 80932" transform="translate(-9711.563 -10432.907)">
      <path id="Trazado_114646" data-name="Trazado 114646" d="M274.765,153.931c-1.55,23.991-19.953,46.9-44.875,48.318-28.625,2.193-54.9-13.505-83.415-13.671-14.54-1.247-28.176,4.321-42.345,6.118-32,1.175-36.879-36.434-30.911-60.675C98.39,19.738,276.507,35.287,274.765,153.931Z" transform="translate(84.545 -1.289)" fill="#a6bbff"/>
    </g>
    <g id="Grupo_87840" data-name="Grupo 87840" transform="translate(-9556 -10378.072)">
      <g id="Grupo_87839" data-name="Grupo 87839" clip-path="url(#clip-path)">
        <rect id="Rectángulo_35845" data-name="Rectángulo 35845" width="141.635" height="279.153" transform="translate(6.752 0.267)" fill="#d8b7a1"/>
        <rect id="Rectángulo_35846" data-name="Rectángulo 35846" width="119.998" height="268.535" transform="translate(17.463 10.886)" fill="#493333"/>
        <path id="Trazado_124282" data-name="Trazado 124282" d="M509.216,312.623V48.854l5.078-.985h2v265.6h-2Z" transform="translate(-378.834 -35.613)" fill="#85664e"/>
        <g id="Grupo_87838" data-name="Grupo 87838" transform="translate(0 -0.001)">
          <g id="Grupo_87837" data-name="Grupo 87837" clip-path="url(#clip-path-2)">
            <path id="Trazado_124283" data-name="Trazado 124283" d="M307.8,51c-4.552,133.157,1.817,260.994,1.817,260.994l53.613,1.539V47.921S340.288,47.94,307.8,51" transform="translate(-227.768 -35.65)" fill="#d8b7a1"/>
            <path id="Trazado_124284" data-name="Trazado 124284" d="M527.562,205.528h1.4a.819.819,0,0,0,.819-.819V192.937a.819.819,0,0,0-.819-.819h-1.4a.819.819,0,0,0-.819.819v11.773a.819.819,0,0,0,.819.819" transform="translate(-391.874 -142.927)" fill="#d8b7a1"/>
            <path id="Trazado_124285" data-name="Trazado 124285" d="M526.844,214.14c.574.79,1.51.285,1.862-.366a4.387,4.387,0,0,0,.354-1.816c.046-.814,0-1.637-.022-2.451-.037-1.678-.074-3.356-.1-5.034a.355.355,0,0,1,.709,0c.081,1.6.15,3.21.218,4.815a13.752,13.752,0,0,1-.136,4.252c-.418,1.476-2.706,3-3.593,1.011a.408.408,0,0,1,.7-.412" transform="translate(-391.391 -151.864)" fill="#a18064"/>
            <path id="Trazado_124286" data-name="Trazado 124286" d="M524.263,194.394c.068-1.5.111-4.849,2.44-4.372.519.107.29.861-.216.783-1.468-.226-1.333,3.539-1.334,4.457a6.177,6.177,0,0,0,.09,1.952c.232.609,1.238.308,1.837.314a.443.443,0,0,1,0,.886c-.679.073-2.121.435-2.6-.214-.252-.345-.169-1.014-.2-1.419a21.4,21.4,0,0,1-.025-2.387" transform="translate(-390.013 -141.333)" fill="#a18064"/>
            <path id="Trazado_124287" data-name="Trazado 124287" d="M527.562,917.138h1.4a.819.819,0,0,0,.819-.819V904.547a.819.819,0,0,0-.819-.819h-1.4a.819.819,0,0,0-.819.819V916.32a.819.819,0,0,0,.819.819" transform="translate(-391.874 -672.333)" fill="#d8b7a1"/>
            <path id="Trazado_124288" data-name="Trazado 124288" d="M526.844,925.751c.574.79,1.51.285,1.862-.366a4.388,4.388,0,0,0,.354-1.816c.046-.814,0-1.637-.022-2.451-.037-1.678-.074-3.356-.1-5.034a.355.355,0,0,1,.709,0c.081,1.6.15,3.21.218,4.815a13.752,13.752,0,0,1-.136,4.252c-.418,1.476-2.706,3-3.593,1.011a.408.408,0,0,1,.7-.412" transform="translate(-391.391 -681.271)" fill="#a18064"/>
            <path id="Trazado_124289" data-name="Trazado 124289" d="M524.263,906c.068-1.5.111-4.849,2.44-4.372.519.107.29.861-.216.784-1.468-.226-1.333,3.538-1.334,4.457a6.177,6.177,0,0,0,.09,1.952c.232.609,1.238.308,1.837.314a.443.443,0,0,1,0,.886c-.679.073-2.121.435-2.6-.214-.252-.345-.169-1.014-.2-1.419a21.4,21.4,0,0,1-.025-2.387" transform="translate(-390.013 -670.74)" fill="#a18064"/>
            <path id="Trazado_124290" data-name="Trazado 124290" d="M539.349,15.193c2.7-2.48,5.408-4.864,7.871-7.588.466-.516,1.223.247.761.762a56.1,56.1,0,0,1-8,7.642c-.473.354-1.059-.42-.629-.816" transform="translate(-401.141 -5.53)" fill="#cea78d"/>
            <path id="Trazado_124291" data-name="Trazado 124291" d="M32.772,5.172c2.48,2.7,4.864,5.409,7.588,7.872.516.466-.247,1.223-.762.762a56.112,56.112,0,0,1-7.642-8c-.354-.473.42-1.059.816-.629" transform="translate(-23.707 -3.736)" fill="#cea78d"/>
            <path id="Trazado_124292" data-name="Trazado 124292" d="M390.826,151.347c-.431-.469-24.718,1.083-31.527,1.527-.088,9.389-.022,123,.423,123.708.426.678,24.607.138,31.266-.91.419-8.419.3-123.817-.162-124.324" transform="translate(-267.278 -112.53)" fill="#e3f1ff"/>
            <path id="Trazado_124293" data-name="Trazado 124293" d="M356.7,161.939s-.558,58.516-.217,58.563,27.81.071,29.7.583v3.841l-29.478,1.208s-.7,52.383-.174,53.492,28.96-1.331,29.422-1.475a49.232,49.232,0,0,1,.117,5.409l-33.718.469.022-123.83Z" transform="translate(-262.138 -119.18)" fill="#85664e"/>
            <path id="Trazado_124294" data-name="Trazado 124294" d="M356.769,154.584s22.077-.921,29.087-1.741l-.1-2.2s-31.962-1.588-33.307,2.2Z" transform="translate(-262.203 -111.824)" fill="#85664e"/>
            <g id="Grupo_87827" data-name="Grupo 87827" transform="translate(95.062 48.255)" opacity="0.5">
              <g id="Grupo_87826" data-name="Grupo 87826">
                <g id="Grupo_87825" data-name="Grupo 87825" clip-path="url(#clip-path-3)">
                  <path id="Trazado_124295" data-name="Trazado 124295" d="M395.843,240.028s-24.638-38.653-24.569-40.3.351-11.153,1.04-11.265,24.085,46.459,24.042,47.49-.512,4.078-.512,4.078" transform="translate(-371.273 -188.46)" fill="#fff"/>
                </g>
              </g>
            </g>
            <g id="Grupo_87830" data-name="Grupo 87830" transform="translate(104.402 55.12)" opacity="0.5">
              <g id="Grupo_87829" data-name="Grupo 87829">
                <g id="Grupo_87828" data-name="Grupo 87828" clip-path="url(#clip-path-4)">
                  <path id="Trazado_124296" data-name="Trazado 124296" d="M424.266,251.025s-16.9-32.61-16.509-33.8a9.415,9.415,0,0,1,.88-1.953s15.072,24.476,15.222,26.363.408,9.39.408,9.39" transform="translate(-407.75 -215.272)" fill="#fff"/>
                </g>
              </g>
            </g>
            <g id="Grupo_87833" data-name="Grupo 87833" transform="translate(95.387 110.465)" opacity="0.5">
              <g id="Grupo_87832" data-name="Grupo 87832">
                <g id="Grupo_87831" data-name="Grupo 87831" clip-path="url(#clip-path-5)">
                  <path id="Trazado_124297" data-name="Trazado 124297" d="M396.205,479.249s-23.709-35.581-23.663-37.141.2-10.547.854-10.679,23.276,42.974,23.247,43.949-.437,3.871-.437,3.871" transform="translate(-372.542 -431.429)" fill="#fff"/>
                </g>
              </g>
            </g>
            <g id="Grupo_87836" data-name="Grupo 87836" transform="translate(104.18 116.604)" opacity="0.5">
              <g id="Grupo_87835" data-name="Grupo 87835">
                <g id="Grupo_87834" data-name="Grupo 87834" clip-path="url(#clip-path-6)">
                  <path id="Trazado_124298" data-name="Trazado 124298" d="M422.867,488.585s-16.333-30.164-15.977-31.3a9.184,9.184,0,0,1,.809-1.878s14.513,22.551,14.676,24.327.492,8.853.492,8.853" transform="translate(-406.885 -455.404)" fill="#fff"/>
                </g>
              </g>
            </g>
            <path id="Trazado_124299" data-name="Trazado 124299" d="M317.434,518.553a1.978,1.978,0,0,0-1.093,1.029,3.344,3.344,0,0,0-.209,1.3q-.215,7.574-.136,15.157.04,3.789.152,7.576.056,1.893.131,3.786c.03.752-.107,1.916.578,2.162a5.75,5.75,0,0,0,2.887.273,1.632,1.632,0,0,0,1.375-.959,3.445,3.445,0,0,0,.172-1.011c.15-2.145.027-4.39.052-6.566q.041-3.554.057-7.108c.023-4.686.022-9.373.021-14.059,0-.973-.142-1.316-.8-1.485a5.556,5.556,0,0,0-3.186-.091" transform="translate(-235.072 -385.627)" fill="#eeae4e"/>
            <path id="Trazado_124300" data-name="Trazado 124300" d="M332.5,550.637c.7-2.068.46-5.033.506-7.276.051-2.457.071-4.916.079-7.374.016-4.78.176-9.645-.176-14.407-.044-.6.706-.746.769-.143A144.665,144.665,0,0,1,334,536.909c-.012,2.663-.043,5.326-.112,7.987-.053,2.044.114,4.5-.61,6.362-.275.707-1.012.086-.772-.621" transform="translate(-247.332 -387.639)" fill="#cf9239"/>
            <path id="Trazado_124301" data-name="Trazado 124301" d="M318.2,561.9c.3-.823,1.371-.867,1.95-.833.192.011,1.764-.008,1.71.691-.319.233-1.913.068-2.271.13a1.132,1.132,0,0,0-.921.669,2.3,2.3,0,0,0-.123.607,18.307,18.307,0,0,0-.1,1.86,1.513,1.513,0,0,0,.026.34.88.88,0,0,0,.227.4,1.144,1.144,0,0,0,.287.23c2.262,1.016,2.574.243,3.834.315.413.024.564.76.1.854a8.38,8.38,0,0,1-2.5.131c-1.091.035-2.261-.307-2.376-1.833a10.579,10.579,0,0,1,.158-3.565" transform="translate(-236.554 -417.402)" fill="#cf9239"/>
            <path id="Trazado_124302" data-name="Trazado 124302" d="M322.2,603.752c.19-.4.541-.589.872-.437a1.188,1.188,0,0,1,.565,1.061,2.2,2.2,0,0,1-.294,1.107c.008.57.012,1.141,0,1.709-.017.8-.881.8-.9,0-.01-.5-.01-.992,0-1.488a.739.739,0,0,1-.23-.382c-.008-.03-.015-.063-.022-.094a.5.5,0,0,1-.056-.113,1.934,1.934,0,0,1,.065-1.363" transform="translate(-239.583 -448.8)" fill="#a56f2f"/>
            <path id="Trazado_124303" data-name="Trazado 124303" d="M325.443,564.19a4.606,4.606,0,0,1,1.757-.4c.92,0,5.673.651,7.5.8s1.177,3.308.676,3.731-7.168.216-8.842.152-3.016-4.134-1.092-4.284" transform="translate(-241.412 -419.434)" fill="#eeae4e"/>
            <path id="Trazado_124304" data-name="Trazado 124304" d="M19.534.669a.7.7,0,0,1,1.392,0c.69,17.979.257,36.042.262,54.032q.007,27.016.012,54.032v169.4a.971.971,0,0,1-1.94,0V170.066q0-54.275.01-108.55c.006-20.257-.513-40.6.264-60.846" transform="translate(-14.214 0.003)" fill="#cea78d"/>
            <path id="Trazado_124305" data-name="Trazado 124305" d="M.8,1088.806c41.815-.377,72.969-.1,114.785-.1h35.647a.928.928,0,0,1,0,1.855c-41.82,0-74.916,0-116.736-.021-11.882-.006-21.814.03-33.7-.078a.83.83,0,0,1,0-1.658" transform="translate(0 -809.876)" fill="#817992"/>
            <path id="Trazado_124306" data-name="Trazado 124306" d="M564.488,993.914c-1.978-.46-9.02-1.226-11.375-1.656,1.145,2.92,2.761,8.355,2.876,8.8a5.193,5.193,0,0,1-1.451,5.638,23.964,23.964,0,0,1-6.912,4.373c-3.828,1.576-6.981,2.252-7.882,4.278-.863,1.941-.225,2.252.45,2.477s25.433.678,27.91-.673c2.016-1.1,2.163-3.193.523-7.593-1.886-5.063-1.309-4.677-4.14-15.648" transform="translate(-401.236 -738.196)" fill="#e3916f"/>
            <path id="Trazado_124307" data-name="Trazado 124307" d="M568.23,1040.752a4.841,4.841,0,0,1-2.9.316c-1.69-.409-2.391-2-3.235-3.335a4.316,4.316,0,0,0-1.892-1.768,4.47,4.47,0,0,0-2.638-.212,6.8,6.8,0,0,0-1.4.46,4.964,4.964,0,0,1-1.62,2.766,23.95,23.95,0,0,1-6.912,4.373c-3.828,1.577-6.981,2.252-7.882,4.279-.863,1.941-.225,2.252.45,2.477s25.433.678,27.91-.673c2.016-1.1,2.163-3.193.523-7.593-.147-.394-.279-.755-.4-1.091" transform="translate(-401.236 -770.477)" fill="#7199c9"/>
            <path id="Trazado_124308" data-name="Trazado 124308" d="M619.4,1061.377c-1.524,1.209-3.152,2.285-4.719,3.437-1.639,1.205-3.256,2.441-4.882,3.662,5.167-.093,9.741-.344,10.734-.886,2.007-1.094,2.16-3.177.543-7.538-.561.436-1.116.882-1.675,1.325" transform="translate(-453.662 -788.632)" fill="#527da8"/>
            <path id="Trazado_124309" data-name="Trazado 124309" d="M539.327,1081.837s10-.057,13.662-.057,7.878,0,8.924-.174,1.569-1.22,3.05-1.569a37.927,37.927,0,0,1,4.785-.5,9.772,9.772,0,0,1-.046,2.419c-.2.519-1.334.771-6.236.984s-19.24.244-20.572.185c-2.455-.108-3.518-.153-3.568-1.287" transform="translate(-401.236 -803.127)" fill="#fff"/>
            <path id="Trazado_124310" data-name="Trazado 124310" d="M616.959,1080.038c-1.482.349-2,1.395-3.051,1.569a27.457,27.457,0,0,1-2.922.144q-.823.621-1.647,1.242l-.122.091c2.52-.033,4.795-.08,6.245-.144,4.9-.213,6.031-.465,6.236-.984a9.783,9.783,0,0,0,.045-2.418,37.928,37.928,0,0,0-4.785.5" transform="translate(-453.232 -803.128)" fill="#e4e9eb"/>
            <path id="Trazado_124311" data-name="Trazado 124311" d="M662.021,1004.926c-1.978-.46-2.321-.829-4.311-1.245-2.333-.488-4.633-1.322-6.987-1.752a42.613,42.613,0,0,1,.169,5.926c-.252,2.386-2.132,4.524-3.78,6.039a23.946,23.946,0,0,1-6.912,4.373c-3.828,1.577-6.981,2.252-7.882,4.279-.863,1.941-.225,2.252.45,2.477s26.871.71,29.349-.641c2.015-1.1,1.394-3.3.71-7.943-.6-4.072-.941-2.776-.8-11.513" transform="translate(-470.106 -745.391)" fill="#e3916f"/>
            <path id="Trazado_124312" data-name="Trazado 124312" d="M662.566,1043.308c-.595.49-3.178,3.3-6.9,3.458-.85.036-2.842-.278-3.394-.909a4.425,4.425,0,0,1-.9-2.63,4.365,4.365,0,0,0-.749-2.382,1.939,1.939,0,0,0-1.482-.694,17.863,17.863,0,0,1-2.034,2.178,23.966,23.966,0,0,1-6.912,4.373c-3.829,1.576-6.981,2.252-7.882,4.279-.863,1.942-.225,2.252.451,2.477s26.871.71,29.348-.641c2.016-1.1,1.394-3.3.71-7.943-.093-.633-.18-1.136-.26-1.567" transform="translate(-470.106 -773.827)" fill="#7199c9"/>
            <path id="Trazado_124313" data-name="Trazado 124313" d="M596.953,525.977s-1.054,32.5.152,58.168,2.009,57.245.8,68.7c0,0-1,.8-5.626,0s-12.056-1.783-12.86-4.91-5.1-56.736-7.544-78.105c0,0-10.8,18.183-12.409,23.452s9.7,51.694,9.7,51.694a48.688,48.688,0,0,1-12.208,6.43c-6.278,2.009-6.479-3.905-9.091-11.855s-10.485-36.685-10.887-47.715,26.359-66.6,26.359-66.6,24.814-5.934,33.605.74" transform="translate(-399.493 -388.944)" fill="#6b4e4e"/>
            <path id="Trazado_124314" data-name="Trazado 124314" d="M726.393,571.693a35.986,35.986,0,0,1-6.068-8.732c-.219-.443-.882-.054-.663.388a36.694,36.694,0,0,0,6.188,8.888c.34.36.882-.183.543-.543" transform="translate(-535.365 -418.673)" fill="#493333"/>
            <path id="Trazado_124315" data-name="Trazado 124315" d="M613.478,657.415q-4.012,5.461-7.728,11.132-3.7,5.643-7.088,11.48-1.922,3.307-3.742,6.672c-.157.29.285.549.442.258q3.226-5.96,6.767-11.741,3.525-5.752,7.355-11.31,2.171-3.15,4.436-6.232c.2-.266-.249-.521-.442-.258" transform="translate(-442.57 -489.005)" fill="#493333"/>
            <path id="Trazado_124316" data-name="Trazado 124316" d="M605.521,841.036l-7.3-22.891L594.565,806.7a39.751,39.751,0,0,1-1.537-5.607,12,12,0,0,1-.139-2.953,6.26,6.26,0,0,0,.1-2.251,1.479,1.479,0,0,0-.646-.848c-.375-.239-.838-.352-.981-.826-.253-.835.417-1.629.85-2.264a2.307,2.307,0,0,0,.5-2.2,1.24,1.24,0,0,0-1.626-.789c-.3.136-.04.577.259.442a.652.652,0,0,1,.766.312,1.148,1.148,0,0,1,.158,1.044,16.728,16.728,0,0,1-1.191,2.02,2.1,2.1,0,0,0-.086,1.858c.35.641,1.3.663,1.508,1.384a6.61,6.61,0,0,1-.132,2.236,12.424,12.424,0,0,0,.129,2.727,35.119,35.119,0,0,0,1.459,5.482l7.07,22.161,4,12.542c.1.313.595.179.494-.136" transform="translate(-439.536 -586.879)" fill="#493333"/>
            <path id="Trazado_124317" data-name="Trazado 124317" d="M666.734,624.843q-.585-7.448-.925-14.912-.191-4.192-.3-8.387a.512.512,0,0,0-1.024,0q.2,7.468.649,14.927t1.139,14.9q.389,4.178.855,8.349a.527.527,0,0,0,.512.512.515.515,0,0,0,.512-.512q-.829-7.424-1.415-14.874" transform="translate(-494.345 -447.153)" fill="#d8b7a1"/>
            <path id="Trazado_124318" data-name="Trazado 124318" d="M632.095,1083.123s10.9-.026,14.564-.026a41.274,41.274,0,0,0,6.668-.4c1.046-.174,1.569-1.22,3.051-1.569a54.465,54.465,0,0,1,7.23-.175,11.633,11.633,0,0,1-.235,2.318c-.2.519-1.334.771-6.236.984s-20.142.208-21.474.154-3.359-.179-3.568-1.287" transform="translate(-470.251 -804.149)" fill="#fff"/>
            <path id="Trazado_124319" data-name="Trazado 124319" d="M640.269,302.284a57.093,57.093,0,0,1,8.8-3.338c6.232-1.958,8.579-2,8.579-2l6.263,3.173s-3.467,13.255-5.08,14.781-3.966,5.535-10.111,5.317-6.711,3.138-8.455-2.615-1.395-14.077,0-15.319" transform="translate(-475.454 -220.915)" fill="#e4e9eb"/>
            <path id="Trazado_124320" data-name="Trazado 124320" d="M654.732,316.189s.215-1.238-4.7-3.554c-4.844-2.283-7.018-3.3-7.018-3.3s-8.093,16.8-15.534,16.988S619.37,311.5,619.37,311.5s-6.073,2.48-7.665,4.687,0,18.277,0,18.277,1.193,9.657,2.608,16.547a20.594,20.594,0,0,1,.629,4.254,27.374,27.374,0,0,1-.767,3.05,95.754,95.754,0,0,0-1.3,10.575c-.087,1.808,1.32,5.111,1.846,5.336,6.9,2.95,20.686,1.4,27.758-.043,6.424-1.311,8.986-1.228,9.472-1.531s2.726-11.745,1.673-14.732a9,9,0,0,1-.422-2.114,6.047,6.047,0,0,0,2.256-1.834c1.069-1.833,3.65-5,3.652-9.533.006-17.038-4.382-28.251-4.382-28.251" transform="translate(-454.555 -230.133)" fill="#b3a97b"/>
            <path id="Trazado_124321" data-name="Trazado 124321" d="M667.149,529.438c-2.087-.082-3.878,1.418-5.807,2.114-2.083.751-4.324.354-6.434.936-1.07.3-1.99,1.03-3.04,1.38a14.274,14.274,0,0,1-3.355.482,42.323,42.323,0,0,1-6.813,0,48.322,48.322,0,0,1-7.643-1.282c-.2-.05-.248.349-.046.405a41.781,41.781,0,0,0,13.429,1.444c1.15-.061,2.3-.155,3.441-.326a10.019,10.019,0,0,0,2.979-1.175c2.069-1.03,4.373-.629,6.543-1.081,2.351-.489,4.359-2.368,6.793-2.414.242,0,.19-.475-.046-.484" transform="translate(-471.579 -393.875)" fill="#978a57"/>
            <path id="Trazado_124322" data-name="Trazado 124322" d="M642.656,499s13.015.638,23.912-1.559c5.451-1.1,8.856-1.821,10.9-2.267a6.834,6.834,0,0,0-.284-2.233,9,9,0,0,1-.423-2.114s-12.016,5.153-22.6,6.614c-7.31,1.009-11.5,1.559-11.5,1.559" transform="translate(-478.108 -365.153)" fill="#143a35"/>
            <path id="Trazado_124323" data-name="Trazado 124323" d="M744.265,326.135a39.35,39.35,0,0,0-9.167,8.713c-.2.262.245.518.442.259a39.152,39.152,0,0,1,9.21-8.683c-.152-.094-.312-.19-.486-.289" transform="translate(-546.844 -242.629)" fill="#978a57"/>
            <path id="Trazado_124324" data-name="Trazado 124324" d="M619.5,340.387a36.762,36.762,0,0,0-4.636-6.673q-.191.184-.349.368a37.09,37.09,0,0,1,4.543,6.564.256.256,0,0,0,.442-.258" transform="translate(-457.172 -248.268)" fill="#978a57"/>
            <path id="Trazado_124325" data-name="Trazado 124325" d="M544.846,378.448s.267-7.429-.624-11.334c-1.771-7.767-6.259-19.811-6.569-17.031s-1.39,21.546-1.706,23.47c-.151.917-.267,1.692-.356,2.343-6.79.377-15.559.559-20.591-.533l-2.589,12.162s17.647,3.929,25.459,4.905,6.976-13.982,6.976-13.982" transform="translate(-381.211 -260.142)" fill="#b3a97b"/>
            <path id="Trazado_124326" data-name="Trazado 124326" d="M588.256,448.059q-4.908.376-9.832.438a.386.386,0,0,0-.326.435.393.393,0,0,0,.435.326q4.922-.061,9.832-.438c.493-.038.382-.8-.109-.76" transform="translate(-430.077 -333.335)" fill="#493333"/>
            <path id="Trazado_124327" data-name="Trazado 124327" d="M627.527,397.77a32.634,32.634,0,0,0-.589-5.986c-.286-2.04-.468-4.095-.556-6.152a65.56,65.56,0,0,1,.072-6.908c.031-.494-.737-.492-.768,0a65.422,65.422,0,0,0,.414,12.54,40.143,40.143,0,0,1,.672,6.167c-.048,1.907-.422,3.785-.625,5.678a11.835,11.835,0,0,0,.636,6.059c.2.452.858.062.663-.388a10.817,10.817,0,0,1-.56-5.389c.183-1.877.557-3.734.642-5.621" transform="translate(-465.387 -281.479)" fill="#978a57"/>
            <path id="Trazado_124328" data-name="Trazado 124328" d="M510.76,469.863s-.863,5.218-2.465,5.177-1.644-5.958-1.109-7.4,3.574,2.219,3.574,2.219" transform="translate(-377.095 -347.657)" fill="#143a35"/>
            <path id="Trazado_124329" data-name="Trazado 124329" d="M452.586,436.937s-1.427-1.9-1.229-2.791c.261-1.173,3.4.929,4.408,1.412s2.928,1.9,3.947,2.388-.123,6.985-.123,6.985c-6.409.164-9.3-2.13-10.428-2.077s-9.057-.852-9.486-1.764-1.77-.442-1.556-1.428,1.017-1.419,2.841-1.64c.975-1.477,11.626-1.085,11.626-1.085" transform="translate(-325.924 -322.724)" fill="#e3916f"/>
            <path id="Trazado_124330" data-name="Trazado 124330" d="M465.265,453.887c-.222-.105-.448-.2-.676-.281a5.407,5.407,0,0,1-.373-2.128c.018-.216.015-.377-.189-.367-.247.011-.239.19-.268.42a5.773,5.773,0,0,0-.083,1.8,12.087,12.087,0,0,0-3.629-.286c-.9.053-1.786.17-2.672.3a1.534,1.534,0,0,0-1.027.409c-.262.312.013,1.19.277,1.166.227-.021-.084-.542.352-.735a5.234,5.234,0,0,1,1.617-.276c.695-.08,1.591-.064,2.291-.07a9.807,9.807,0,0,1,3.155.44.4.4,0,0,0,.2.067c.207.075.413.156.615.251.478.226.9-.486.417-.713" transform="translate(-339.424 -335.606)" fill="#d88060"/>
            <path id="Trazado_124331" data-name="Trazado 124331" d="M495.849,444.652a3.454,3.454,0,0,1-2.009-2.527,1.579,1.579,0,0,0-.96-1.188c-.252-.083-.6-.073-.787-.269a4.8,4.8,0,0,1-.579-.671c-.277-.453-.568-.2-.29.259.3.491.508,1.106,1.053,1.348.249.11.49.106.627.365a5.937,5.937,0,0,1,.272.773,4.018,4.018,0,0,0,2.454,2.706.413.413,0,0,0,.22-.8" transform="translate(-365.365 -327.162)" fill="#d88060"/>
            <path id="Trazado_124332" data-name="Trazado 124332" d="M620.223,209.273c-1.159-6.494-4.551-8.57-5.9-8.549a5.143,5.143,0,0,0,.067-2.356c-.069-.336-.585-.194-.515.142a4.545,4.545,0,0,1-.018,1.9c-.153-.577-.709-1.608-2.715-2.148-2.882-.776-4.409,1.135-6.071,1.739s-5.1.937-7.315,3.818.634,7.357-.491,9.733,3.164,5.206,5.049,3.036c1.174-1.352,4.066-3.763,6.561-6.038,3.225,4,10.241,6.851,10.8,6.354.744-.66,1.282-3.542.553-7.631" transform="translate(-444.053 -147.361)" fill="#842a2e"/>
            <path id="Trazado_124333" data-name="Trazado 124333" d="M664.866,254.779A76,76,0,0,0,673.4,265.6a63.363,63.363,0,0,1-7.971,9.073l-.686-3.813-4.456-7.922Z" transform="translate(-491.222 -189.544)" fill="#e3916f"/>
            <path id="Trazado_124334" data-name="Trazado 124334" d="M665.191,270.985a9.161,9.161,0,0,0,1.6-3.152,8.283,8.283,0,0,0,.112-3.766,24.19,24.19,0,0,0-1.321-4.266c-.345-.906-.738-1.814-1.043-2.744l-4.256,7.576,4.075,7.246a7.366,7.366,0,0,0,.833-.893" transform="translate(-491.221 -191.238)" fill="#1a1a1a"/>
            <path id="Trazado_124335" data-name="Trazado 124335" d="M609.432,244.3c.607,1.116,2.732,7.385,6.68,9.674a9.11,9.11,0,0,0,7.455.573c4.774-2.228,5.309-7.261,4.2-11.122,0,0,3.059-4.009-.518-6.368-2.437-1.607-3.533,2.609-3.533,2.609s-.414,3.188-5.9-1.947c-5.936.481-8.745-2.765-8.385,1.539a20.482,20.482,0,0,1,0,5.042" transform="translate(-453.368 -176.084)" fill="#e3916f"/>
            <path id="Trazado_124336" data-name="Trazado 124336" d="M622.863,278.833a.89.89,0,0,0-.519-.53.761.761,0,0,0-.194-.044.349.349,0,0,0-.094,0,.3.3,0,0,0-.211.15c0,.007-.008.015-.012.022a.443.443,0,0,0-.175.293.578.578,0,0,0,.087.361.8.8,0,0,0,.363.5.6.6,0,0,0,.31.069.3.3,0,0,0,.043,0,.466.466,0,0,0,.357-.22.526.526,0,0,0,.072-.236.677.677,0,0,0-.027-.365" transform="translate(-462.484 -207.01)" fill="#1a1a1a"/>
            <path id="Trazado_124337" data-name="Trazado 124337" d="M645.916,260.353a.754.754,0,0,0-.614-.141.567.567,0,0,0-.34.525,1.067,1.067,0,0,0,.112.642c.007.013.017.024.025.036a.83.83,0,0,0,.071.155.463.463,0,0,0,.057.087l.017.02a.468.468,0,0,0,.045.042.728.728,0,0,0,.082.077.529.529,0,0,0,.369.094.6.6,0,0,0,.519-.175.8.8,0,0,0,.212-.5.99.99,0,0,0-.556-.866" transform="translate(-479.819 -193.567)" fill="#1a1a1a"/>
            <path id="Trazado_124338" data-name="Trazado 124338" d="M639.876,247.642a.412.412,0,0,0-.493-.28l-2.548.449a.4.4,0,0,0-.28.493.412.412,0,0,0,.493.28l2.548-.449a.4.4,0,0,0,.28-.493" transform="translate(-473.558 -184.02)" fill="#842a2e"/>
            <path id="Trazado_124339" data-name="Trazado 124339" d="M615.11,268.324a.407.407,0,0,0-.548.144l-.855,1.6a.4.4,0,0,0,.692.4l.855-1.6a.408.408,0,0,0-.144-.548" transform="translate(-456.533 -199.583)" fill="#842a2e"/>
            <path id="Trazado_124340" data-name="Trazado 124340" d="M641.295,285.017a.334.334,0,0,0-.411-.233l-.721.224a.35.35,0,0,0-.2.154.343.343,0,0,0-.034.257.335.335,0,0,0,.411.234l.722-.224a.349.349,0,0,0,.2-.154.341.341,0,0,0,.034-.257" transform="translate(-476.07 -211.857)" fill="#cd5d4c"/>
            <path id="Trazado_124341" data-name="Trazado 124341" d="M645.346,288.058l4.143-3.688s1.294,1.976.576,3.075a2.385,2.385,0,0,1-2.182,1.014,5.774,5.774,0,0,1-2.536-.4" transform="translate(-480.109 -211.558)" fill="#fff"/>
            <path id="Trazado_124342" data-name="Trazado 124342" d="M689.2,305.1l-.682-.346a39.239,39.239,0,0,1-5.708,8.668q-1.1,1.26-2.3,2.422a23.061,23.061,0,0,0-3.076-3.934.387.387,0,0,0-.642.169q-.923,4.974-1.518,10c-.058.49.711.486.768,0q.54-4.56,1.363-9.079a22.213,22.213,0,0,1,2.7,3.646.389.389,0,0,0,.6.078,40.072,40.072,0,0,0,8.213-11.051c.1-.191.187-.383.28-.575" transform="translate(-502.377 -226.725)" fill="#aabacb"/>
            <path id="Trazado_124343" data-name="Trazado 124343" d="M661.188,317l-1.762,2.374a23.1,23.1,0,0,1-2.629-8.023c0-.013,0-.025-.007-.037q-.389.147-.737.283c.3,3.1,1.636,5.936,2.97,8.709a.389.389,0,0,0,.663,0l2.165-2.917c.295-.4-.371-.781-.663-.388" transform="translate(-488.075 -231.603)" fill="#aabacb"/>
            <path id="Trazado_124344" data-name="Trazado 124344" d="M631.171,499.708s.5,3.843-.692,4.459-3.252-3.884-2.964-5.733,3.657,1.273,3.657,1.273" transform="translate(-466.823 -370.377)" fill="#143a35"/>
            <path id="Trazado_124345" data-name="Trazado 124345" d="M578.427,481.392a15.4,15.4,0,0,0-.225-6.074c-.736-2.93-4.947-2.005-6.646-1.735a12.011,12.011,0,0,1-5.3.184c-1.586-.4-1.7.911-1.116,1.767,0,0-1.5.137-4.511.488s-3.819.874-3.609,1.724-.493.3-.428,1.213,7.611,2.368,10.182,2.252a113.571,113.571,0,0,1,11.651.181" transform="translate(-414.079 -352.062)" fill="#e3916f"/>
            <path id="Trazado_124346" data-name="Trazado 124346" d="M597.234,482.587a9.788,9.788,0,0,0-3.383-.4,5.125,5.125,0,0,1-2.978-.736c-.4-.288-.787.378-.388.663,1.943,1.386,4.437.4,6.546,1.209.462.177.662-.565.2-.741" transform="translate(-439.169 -358.128)" fill="#d88060"/>
            <path id="Trazado_124347" data-name="Trazado 124347" d="M663.879,398.733q-3.023,1.368-6.123,2.557.635-7.441,1.818-14.82c.078-.484-.662-.692-.741-.2q-1.222,7.612-1.869,15.3c0,.009,0,.017,0,.026q-2.226.837-4.486,1.582a115.4,115.4,0,0,1-11.789,3.2q-3.381.728-6.8,1.252c-.487.075-.28.815.2.741a115.314,115.314,0,0,0,23.757-6.292q3.248-1.244,6.418-2.68c.45-.2.06-.865-.388-.663" transform="translate(-471.378 -287.157)" fill="#978a57"/>
          </g>
        </g>
      </g>
    </g>
  </g>
</svg>
