<svg xmlns="http://www.w3.org/2000/svg" xmlns:xlink="http://www.w3.org/1999/xlink" width="89" height="104" viewBox="0 0 89 104">
  <defs>
    <clipPath id="clip-path">
      <rect id="Rectángulo_35960" data-name="Rectángulo 35960" width="81.825" height="90.477" fill="none"/>
    </clipPath>
    <clipPath id="clip-path-3">
      <rect id="Rectángulo_35950" data-name="Rectángulo 35950" width="16.725" height="28.687" fill="none"/>
    </clipPath>
  </defs>
  <g id="Grupo_88060" data-name="Grupo 88060" transform="translate(5712 10484)">
    <rect id="Rectángulo_35906" data-name="Rectángulo 35906" width="89" height="104" transform="translate(-5712 -10484)" fill="none"/>
    <g id="Grupo_88059" data-name="Grupo 88059" transform="translate(329 521)">
      <g id="Grupo_88058" data-name="Grupo 88058" transform="translate(-6037 -10998)">
        <g id="Grupo_88057" data-name="Grupo 88057" clip-path="url(#clip-path)">
          <rect id="Rectángulo_35941" data-name="Rectángulo 35941" width="80" height="91" transform="translate(0.324 -0.262)" fill="#ffad69"/>
          <g id="Grupo_88056" data-name="Grupo 88056">
            <g id="Grupo_88055" data-name="Grupo 88055" clip-path="url(#clip-path)">
              <path id="Trazado_124716" data-name="Trazado 124716" d="M599.4,281.381s-1.071,3.5-.6,3.817,8.269.235,8.568.237.129-3.3,0-3.717-7.969-.337-7.969-.337" transform="translate(-545.732 -256.489)" fill="#ffb985"/>
              <path id="Trazado_124717" data-name="Trazado 124717" d="M596.031,601.224a47.448,47.448,0,0,0,.087-5.415,6.925,6.925,0,0,0-1.581,3.927c-.079-2.9-.395-5.844-.395-5.844-.706,1.006-1.034,3.747-1.186,6.2-.243-3.265-.907-6.755-.907-6.755-.763,1.447-.673,5.854-.532,8.586a32.937,32.937,0,0,0-1.826-6.109c-1.091,2.742.943,9.847,1,9.935l4.569.826s-.147.383,1.12-1.622,1.828-9.669,1.828-9.669c-.827.759-1.644,3.663-2.181,5.944" transform="translate(-537.245 -540.857)" fill="#55bfa4"/>
              <path id="Trazado_124718" data-name="Trazado 124718" d="M584.026,632.226a2.451,2.451,0,0,0-1.262.531,29.886,29.886,0,0,0,1.748-4.152,8.262,8.262,0,0,0-2.346,3.13,21.362,21.362,0,0,0,.665-5.791c-.841.891-1.567,4.112-1.866,5.6a29.1,29.1,0,0,0-.08-5.868c-.75,1.162-1.05,3.674-1.167,5.227a51.664,51.664,0,0,0-.558-6.155c-.879,1.271-1.015,5.883-1.035,7.206a41.733,41.733,0,0,0-1.419-7.029c-.584,1.934-.073,5.515.213,7.159A18.066,18.066,0,0,0,575,628.221a10.1,10.1,0,0,0,1.772,5.218s-1.15-1.614-1.371-1.481a11.025,11.025,0,0,0-1.415,2.344c.044.133,1.614-1.393,1.879-1.172a5.861,5.861,0,0,1,.663,1.526l5.881-.31,1.68-1.15a3.781,3.781,0,0,0,1.7,1.26s-.8-2.41-1.769-2.231" transform="translate(-523.222 -569.496)" fill="#5fceae"/>
              <path id="Trazado_124719" data-name="Trazado 124719" d="M639.882,716.128a4.626,4.626,0,0,0-.214.5,4.009,4.009,0,0,0,.214-.5" transform="translate(-583.094 -652.792)" fill="#55bfa4"/>
              <path id="Trazado_124720" data-name="Trazado 124720" d="M616.711,678.029a4.009,4.009,0,0,1-.214.5,4.626,4.626,0,0,1,.214-.5,11.1,11.1,0,0,0,.4-3.7c-1.386,1.046-1.663,4.062-1.7,4.557,0,0,0,.009,0,.013,0,.083-.006.072,0-.013a15.209,15.209,0,0,0-1.15-3.013,13.982,13.982,0,0,0,.486,3.5,2.047,2.047,0,0,0,1.99.147c1.017-.531,1.754-3.272,1.754-3.272a3.242,3.242,0,0,0-1.791,1.78" transform="translate(-559.923 -614.693)" fill="#55bfa4"/>
              <path id="Trazado_124721" data-name="Trazado 124721" d="M627.461,725.871s0-.009,0-.013c-.006.084,0,.1,0,.013" transform="translate(-571.963 -661.661)" fill="#55bfa4"/>
              <path id="Trazado_124722" data-name="Trazado 124722" d="M593.891,730.139a28.183,28.183,0,0,0-3.849.116c-.115.179.013.371.262.333,0,0-.281,6.637.737,7.059a21.3,21.3,0,0,0,5.7,0c1.018-.422.737-7.059.737-7.059.249.038.377-.153.262-.333a28.184,28.184,0,0,0-3.849-.116" transform="translate(-537.819 -665.554)" fill="#6b5a5d"/>
              <path id="Trazado_124723" data-name="Trazado 124723" d="M592.127,734.782l-.316-.006a.351.351,0,0,0,.145.006s0,.1-.009.262l.175,0q2.166.046,3.775.046c1.409,0,2.492-.027,3.24-.08,0-.148-.008-.232-.008-.232a.29.29,0,0,0,.236-.052c-1.246.111-3.68.129-7.238.053" transform="translate(-539.47 -669.748)" fill="#5e4d51"/>
              <path id="Trazado_124724" data-name="Trazado 124724" d="M682,490.032l3.184,1.975v28.921l.619.265V492.184l5.419,3.567-.278,30.306.787.413.324-30.324,2.063,1.256v-.991L682,489Z" transform="translate(-621.682 -445.752)" fill="#f7974f"/>
              <path id="Trazado_124725" data-name="Trazado 124725" d="M180.607,816.5l-49.229,1.639L140.7,830.7h51.084l-.265-5.568Z" transform="translate(-119.759 -744.287)" fill="#f7974f"/>
              <path id="Trazado_124726" data-name="Trazado 124726" d="M160.04,166.974l30.034-.031L190.457,103H159.2Z" transform="translate(-145.118 -93.891)" fill="#f7974f"/>
              <path id="Trazado_124727" data-name="Trazado 124727" d="M207.8,166.325l26.578.619L234.76,103l-5.955,5.041Z" transform="translate(-189.421 -93.89)" fill="#ffcca6"/>
              <path id="Trazado_124728" data-name="Trazado 124728" d="M185,188.91h25.941l.694-61.91H185Z" transform="translate(-168.638 -115.768)" fill="#ffe5cc"/>
              <path id="Trazado_124729" data-name="Trazado 124729" d="M222.92,223.846l19.641.172V166.177L223.222,166Z" transform="translate(-203.205 -151.318)" fill="#6b5a5d"/>
              <path id="Trazado_124730" data-name="Trazado 124730" d="M529.534,616.883c-.029-.118-1.085-8.52-1.085-9.4a19.013,19.013,0,0,1,.348-2.182c.009-.413-.59-5.631-.59-5.631l-4.54,1.12,1.179,6.692a21.714,21.714,0,0,0-.383,4.127c.177.884,2.329,7.37,2.329,7.37s7.1.177,7.134,0-4.363-1.975-4.393-2.093" transform="translate(-477.353 -546.63)" fill="#ff7346"/>
              <path id="Trazado_124731" data-name="Trazado 124731" d="M211.616,748.95c-.893,0-1.616,1.367-1.616,3.054s.724,3.053,1.616,3.053,1.616-1.367,1.616-3.053-.724-3.054-1.616-3.054" transform="translate(-191.427 -682.711)" fill="#d3dfe0"/>
              <rect id="Rectángulo_35942" data-name="Rectángulo 35942" width="1.061" height="6.107" transform="translate(20.189 66.239)" fill="#d3dfe0"/>
              <path id="Trazado_124732" data-name="Trazado 124732" d="M223.616,748.95c-.893,0-1.616,1.367-1.616,3.054s.724,3.053,1.616,3.053,1.616-1.367,1.616-3.053-.724-3.054-1.616-3.054" transform="translate(-202.366 -682.711)" fill="#aad0d1"/>
              <path id="Trazado_124733" data-name="Trazado 124733" d="M238.612,775.617h-3.474a.591.591,0,0,0-.59.59v.211a.591.591,0,0,0,.59.59h3.474a.591.591,0,0,0,.59-.59v-.211a.591.591,0,0,0-.59-.59" transform="translate(-213.804 -707.02)" fill="#544548"/>
              <path id="Trazado_124734" data-name="Trazado 124734" d="M267.616,748.95c-.893,0-1.616,1.367-1.616,3.054s.724,3.053,1.616,3.053,1.616-1.367,1.616-3.053-.724-3.054-1.616-3.054" transform="translate(-242.474 -682.711)" fill="#d3dfe0"/>
              <rect id="Rectángulo_35943" data-name="Rectángulo 35943" width="1.061" height="6.107" transform="translate(25.142 66.239)" fill="#d3dfe0"/>
              <path id="Trazado_124735" data-name="Trazado 124735" d="M279.616,748.95c-.893,0-1.616,1.367-1.616,3.054s.724,3.053,1.616,3.053,1.616-1.367,1.616-3.053-.724-3.054-1.616-3.054" transform="translate(-253.413 -682.711)" fill="#aad0d1"/>
              <path id="Trazado_124736" data-name="Trazado 124736" d="M256.007,775.617c-.136,0-.246.311-.246.7s.11.7.246.7.246-.311.246-.7-.11-.7-.246-.7" transform="translate(-233.141 -707.02)" fill="#544548"/>
              <path id="Trazado_124737" data-name="Trazado 124737" d="M292.934,775.617c-.194,0-.351.311-.351.7s.157.7.351.7.351-.311.351-.7-.157-.7-.351-.7" transform="translate(-266.706 -707.02)" fill="#5b4c4f"/>
              <rect id="Rectángulo_35944" data-name="Rectángulo 35944" width="0.378" height="1.39" transform="translate(26.203 68.597)" fill="#5b4c4f"/>
              <path id="Trazado_124738" data-name="Trazado 124738" d="M296.934,775.617c-.194,0-.351.311-.351.7s.157.7.351.7.351-.311.351-.7-.157-.7-.351-.7" transform="translate(-270.353 -707.02)" fill="#544548"/>
              <path id="Trazado_124739" data-name="Trazado 124739" d="M404.027,603.091a46.266,46.266,0,0,0,.787,5.944,8.315,8.315,0,0,0,.628,1.116s.791,9.9.739,10.08-3.769,1.173-3.584,1.38a44.2,44.2,0,0,0,6.434,0c.236-.252-.1-1.433-.046-3.022.133-3.715.333-9.523.067-9.916-.379-.562.253-5.971.253-5.971Z" transform="translate(-366.985 -549.397)" fill="#ff7346"/>
              <path id="Trazado_124740" data-name="Trazado 124740" d="M421.334,493.058c-.531.019-13.019-2.151-13.473,1.2a58.072,58.072,0,0,0-.078,9.03,11.346,11.346,0,0,0,3.793.5,12.858,12.858,0,0,0,3.577-.5c.063-3.013.117-5.264.137-5.159s.489,2.292,1.117,5.159a10.039,10.039,0,0,0,3.453.5,6.724,6.724,0,0,0,3.519-.926c-.937-5.322-1.793-9.814-2.045-9.8" transform="translate(-371.6 -448.837)" fill="#ffe8dc"/>
              <path id="Trazado_124741" data-name="Trazado 124741" d="M416.129,527.66h-.177c0,.062-.04,5.741.12,7.987l.18.038c-.164-2.2-.124-7.962-.123-8.024" transform="translate(-379.16 -480.992)" fill="#ffcca6"/>
              <path id="Trazado_124742" data-name="Trazado 124742" d="M407.694,541.8l.723-.166v.56l-.734.221c0,.062,0,.123,0,.185l.913-.275v-.914l-.895.206c0,.06,0,.121,0,.183" transform="translate(-371.625 -493.527)" fill="#ffcca6"/>
              <path id="Trazado_124743" data-name="Trazado 124743" d="M495.1,535.9l-1.96.76.055,1.473a1.909,1.909,0,0,1,.021-.337c.007.036.069.329.174.816l-.068-1.832,1.843-.714Z" transform="translate(-449.526 -488.505)" fill="#ffcca6"/>
              <path id="Trazado_124744" data-name="Trazado 124744" d="M557.21,507.281c.045.164,1.089,6,1.714,9.508l.167-.071c-.4-2.257-1.672-9.374-1.712-9.491Z" transform="translate(-507.929 -462.366)" fill="#ffcca6"/>
              <path id="Trazado_124745" data-name="Trazado 124745" d="M560.212,523.005l-.1-.538.637.108-.039-.186-.816-.139.166.918.827.076-.037-.181Z" transform="translate(-510.377 -476.062)" fill="#ffcca6"/>
              <path id="Trazado_124746" data-name="Trazado 124746" d="M408.605,602.721l.008.183a18.678,18.678,0,0,0,3.858.43,10.476,10.476,0,0,0,3.57-.554c0-.064,0-.127,0-.19-2.783,1.058-6.441.356-7.44.131" transform="translate(-372.467 -549.296)" fill="#ffcca6"/>
              <path id="Trazado_124747" data-name="Trazado 124747" d="M503.989,599.642l.041.188a19.8,19.8,0,0,0,3.438.333,7.483,7.483,0,0,0,3.577-.719l-.033-.185c-2.016,1.208-5.893.6-7.024.383" transform="translate(-459.415 -546.259)" fill="#ffcca6"/>
              <path id="Trazado_124748" data-name="Trazado 124748" d="M237.451,205.014l17.151,2.023.057-29.591-17.3-.28Z" transform="translate(-216.363 -161.498)" fill="#7f6a6e"/>
              <rect id="Rectángulo_35945" data-name="Rectángulo 35945" width="0.358" height="31.82" transform="translate(14.184 41.264)" fill="#544548"/>
              <rect id="Rectángulo_35946" data-name="Rectángulo 35946" width="0.358" height="31.82" transform="translate(18.798 41.264)" fill="#544548"/>
              <path id="Trazado_124749" data-name="Trazado 124749" d="M394.728,794.924a3.749,3.749,0,0,0-1.71-1.415c-.914-.221-3.685,2.019-3.685,2.019.074.225,8.815.211,8.815.211s-.147-.609-.177-.742a26.6,26.6,0,0,0-3.243-.074" transform="translate(-354.899 -723.315)" fill="#55bfa4"/>
              <path id="Trazado_124750" data-name="Trazado 124750" d="M553.864,795.223a4.175,4.175,0,0,0-1.843,1.371l-2.845.074a3.923,3.923,0,0,0-.177.518s8.623.219,8.706,0-2.722-2.331-3.842-1.963" transform="translate(-500.445 -724.853)" fill="#55bfa4"/>
              <rect id="Rectángulo_35947" data-name="Rectángulo 35947" width="0.358" height="31.82" transform="translate(23.412 41.264)" fill="#544548"/>
              <rect id="Rectángulo_35948" data-name="Rectángulo 35948" width="0.358" height="31.82" transform="translate(28.026 41.264)" fill="#544548"/>
              <rect id="Rectángulo_35949" data-name="Rectángulo 35949" width="0.358" height="31.82" transform="translate(32.64 41.264)" fill="#544548"/>
              <path id="Trazado_124751" data-name="Trazado 124751" d="M422.8,282.6c-3.227-2.226-11.365-1.271-14.377.816a14.241,14.241,0,0,0-3.629,5.268l2.944,1.378s-3.687,8.133-3.4,13.05c0,0,8.559,2.443,14.416-2a16.56,16.56,0,0,1-.131-5.086c.432-2.2,3.691-8.566,3.691-8.566l.84-.265c.158-2.13.007-4.35-.354-4.6" transform="translate(-368.56 -256.445)" fill="#8ed5dd"/>
              <g id="Grupo_88054" data-name="Grupo 88054" transform="translate(21.044 15.764)" opacity="0.11">
                <g id="Grupo_88053" data-name="Grupo 88053">
                  <g id="Grupo_88052" data-name="Grupo 88052" clip-path="url(#clip-path-3)">
                    <path id="Trazado_124752" data-name="Trazado 124752" d="M237.942,193.355,237.985,206l7.922.934,8.76-28.511-10.883-.176Z" transform="translate(-237.942 -178.245)" fill="#fff"/>
                  </g>
                </g>
              </g>
              <rect id="Rectángulo_35951" data-name="Rectángulo 35951" width="0.358" height="31.82" transform="translate(37.254 41.264)" fill="#544548"/>
              <rect id="Rectángulo_35952" data-name="Rectángulo 35952" width="0.358" height="31.82" transform="translate(41.868 41.264)" fill="#544548"/>
              <rect id="Rectángulo_35953" data-name="Rectángulo 35953" width="0.358" height="31.82" transform="translate(46.482 41.264)" fill="#544548"/>
              <rect id="Rectángulo_35954" data-name="Rectángulo 35954" width="0.358" height="31.82" transform="translate(51.096 41.264)" fill="#544548"/>
              <rect id="Rectángulo_35955" data-name="Rectángulo 35955" width="0.358" height="31.82" transform="translate(55.582 41.264)" fill="#544548"/>
              <rect id="Rectángulo_35956" data-name="Rectángulo 35956" width="0.358" height="31.82" transform="translate(60.069 41.264)" fill="#544548"/>
              <rect id="Rectángulo_35957" data-name="Rectángulo 35957" width="51.775" height="3.727" transform="translate(11.488 71.988)" fill="#ffeedb"/>
              <rect id="Rectángulo_35958" data-name="Rectángulo 35958" width="51.775" height="1.048" transform="translate(11.488 41.264)" fill="#544548"/>
              <path id="Trazado_124753" data-name="Trazado 124753" d="M145.052,464.035s-.236,4.961.059,5.252,1.415-.012,1.415-.012a43.763,43.763,0,0,0-.324-5.225c-.221-.162-1.15-.015-1.15-.015" transform="translate(-132.142 -422.938)" fill="#6b5a5d"/>
              <path id="Trazado_124754" data-name="Trazado 124754" d="M249.052,464.035s-.236,4.961.059,5.252,1.415-.012,1.415-.012a43.767,43.767,0,0,0-.324-5.225c-.221-.162-1.15-.015-1.15-.015" transform="translate(-226.944 -422.938)" fill="#6b5a5d"/>
              <path id="Trazado_124755" data-name="Trazado 124755" d="M140,448.834c-.825-.225-1.621,2.554-1.621,2.554s1.032-6.4-.442-6.166-1.71,5.975-1.71,5.975.088-5.735-1.316-5.087-.482,6.515-.482,6.515-1.415-5.522-2.182-4.473.914,4.305.914,4.305.737.61.8.7,4.9-.324,4.9-.324,1.964-3.774,1.139-4" transform="translate(-120.363 -405.84)" fill="#55bfa4"/>
              <path id="Trazado_124756" data-name="Trazado 124756" d="M244.662,460.566c-.472-.236-1.439,1.272-1.439,1.272s1.2-2.653.348-2.613-1.032,1.833-1.032,1.833.442-4.587-.461-4.439-1.16,4.686-1.16,4.686.206-4.041-.855-3.718-.324,5.253-.324,5.253h3.485s1.91-2.039,1.439-2.274" transform="translate(-218.308 -416.232)" fill="#55bfa4"/>
              <path id="Trazado_124757" data-name="Trazado 124757" d="M221.258,498.212c-.177.48-.284.866-.284.866s.125-.346.284-.866" transform="translate(-201.431 -454.149)" fill="#60d3b4"/>
              <path id="Trazado_124758" data-name="Trazado 124758" d="M181.824,449.153c-.531-.278-1.559,1.441-1.559,1.441s1.146-2.519.291-2.689c-.542-.107-1.06,1.008-1.367,1.839-.159.519-.284.866-.284.866s.107-.386.284-.866c.459-1.5,1.2-4.439.04-4.69-1.562-.338-2.358,6.527-2.358,6.527s-1.012-3.83-1.814-3.587.723,5.27.723,5.27l4.982-.649s1.592-3.184,1.061-3.462" transform="translate(-159.362 -405.682)" fill="#60d3b4"/>
              <path id="Trazado_124759" data-name="Trazado 124759" d="M130.813,525.483c.383.413,11.361.236,12.234,0s1.5-5.483,1.5-5.483l-14.659.169s.538,4.9.921,5.315" transform="translate(-118.404 -474.01)" fill="#7f6a6e"/>
              <path id="Trazado_124760" data-name="Trazado 124760" d="M130.085,521.769h14.2c.167-.98.262-1.769.262-1.769l-14.659.169s.077.7.194,1.6" transform="translate(-118.403 -474.01)" fill="#6b5a5d"/>
              <path id="Trazado_124761" data-name="Trazado 124761" d="M124.876,521.314c.118.076,15.126-.071,15.169-.278s.131-1.064.131-1.064l-15.536.106a5.2,5.2,0,0,0,.236,1.236" transform="translate(-113.617 -473.985)" fill="#7f6a6e"/>
              <path id="Trazado_124762" data-name="Trazado 124762" d="M133.216,85l-1.076.884,2.392,1.415,31.05-.619,2.531-.941L167.8,85Z" transform="translate(-120.453 -77.482)" fill="#e28647"/>
              <path id="Trazado_124763" data-name="Trazado 124763" d="M129.224,61.6l35.961-.145.324-3.1-36.584.322Z" transform="translate(-117.522 -53.199)" fill="#ffcca6"/>
              <path id="Trazado_124764" data-name="Trazado 124764" d="M666.005,225.7s-.708,3.889-.413,4.027,9.788.569,10.141.21-.236-3.768-.295-3.775-9.434-.462-9.434-.462" transform="translate(-606.66 -205.738)" fill="#ffb985"/>
              <path id="Trazado_124765" data-name="Trazado 124765" d="M766.344,461.145s-1.106,3.608-.619,3.94,8.535.243,8.844.245.133-3.408,0-3.837-8.225-.348-8.225-.348" transform="translate(-697.89 -420.355)" fill="#ffb985"/>
              <path id="Trazado_124766" data-name="Trazado 124766" d="M829.124,525.145s-.776,3.608-.435,3.94,5.994.243,6.212.245.093-3.408,0-3.837-5.777-.348-5.777-.348" transform="translate(-755.318 -478.694)" fill="#ffb985"/>
              <path id="Trazado_124767" data-name="Trazado 124767" d="M823.07,21.155c-.4-.221-8.667-.531-9.463.088-.14.109-.31,3.317-.044,3.405s9.286.044,9.508-.221.4-3.051,0-3.272" transform="translate(-741.482 -19.032)" fill="#ffb985"/>
              <path id="Trazado_124768" data-name="Trazado 124768" d="M685.841,114.193c-.354-.177-4.982-.575-5.653.133,0,0-.523,2.388,0,2.653s5.7.31,5.874,0,.133-2.609-.221-2.786" transform="translate(-619.819 -103.846)" fill="#ffa25c"/>
              <path id="Trazado_124769" data-name="Trazado 124769" d="M748.949,287.695c-.354-.045-6.3-.519-6.875.309,0,0-.289,3.02.33,3.522s6.368.265,6.545.052.354-3.838,0-3.883" transform="translate(-676.382 -262.09)" fill="#ffa25c"/>
              <path id="Trazado_124770" data-name="Trazado 124770" d="M559.336,1.847A6.215,6.215,0,0,0,559.511,0H549.238l.288,1.847s9.58.343,9.81,0" transform="translate(-500.662)" fill="#ffa25c"/>
              <path id="Trazado_124771" data-name="Trazado 124771" d="M4.864,285.037s-2.784.073-4.864.071v4.209l4.864.227Z" transform="translate(0 -259.828)" fill="#ffa25c"/>
              <path id="Trazado_124772" data-name="Trazado 124772" d="M485.626,292.437a2.818,2.818,0,0,1-2.39.342,2.325,2.325,0,0,1-1.819-1.222,2.421,2.421,0,0,1,.179-1.837l-.223.063a2.124,2.124,0,0,0,1.826,3.168,4.4,4.4,0,0,0,.958.114,2.552,2.552,0,0,0,1.577-.487,3.273,3.273,0,0,0,1.126-2.231l-.177-.011a3.145,3.145,0,0,1-1.056,2.1" transform="translate(-438.57 -264.096)" fill="#a0f5f9"/>
              <path id="Trazado_124773" data-name="Trazado 124773" d="M442.105,355.538s-8.015.424-8.819.68c-.643.206-2.366,2.087-3.029,2.831a.629.629,0,0,0-.092.5c.155.641,1.556,1.619,2.48,1.058a8.528,8.528,0,0,0,1.968-2.3s9.194.552,10.437-.269,1.293-10.288,1.293-10.288l-3.629.311Z" transform="translate(-392.105 -316.994)" fill="#ff7346"/>
              <path id="Trazado_124774" data-name="Trazado 124774" d="M493.467,265.368c.133,1.039,3,1.608,3.287.76.371-1.1,1.053-3.262,1.053-3.262l-3.327-1.441a25.885,25.885,0,0,0-1.014,3.942" transform="translate(-449.821 -238.305)" fill="#ff7346"/>
              <path id="Trazado_124775" data-name="Trazado 124775" d="M504.492,205.5s-1.623,5.066-.976,6.449,3.363,2.328,4.531.746,1.433-5.166,1.306-5.953-3.171-2.815-4.86-1.242" transform="translate(-458.845 -186.794)" fill="#ff7346"/>
              <path id="Trazado_124776" data-name="Trazado 124776" d="M397.263,323.366s-1.8,5.565-.713,6.114a3.1,3.1,0,0,0,3.381-.611c.238-.36.586-9.305.586-9.305l-1.938.444s-1.212,3.08-1.315,3.358" transform="translate(-361.16 -291.301)" fill="#ff7346"/>
              <path id="Trazado_124777" data-name="Trazado 124777" d="M421.191,356.528c-.069.066,1.042,1.5,1.517,1S424.355,351,424.355,351l-1.616.088s-1.479,5.373-1.548,5.44" transform="translate(-383.937 -319.957)" fill="#ff7346"/>
              <path id="Trazado_124778" data-name="Trazado 124778" d="M445.762,286.97s0-.018-.007-.039c0,.015,0,.028.007.039" transform="translate(-406.331 -261.554)" fill="#ff7346"/>
              <path id="Trazado_124779" data-name="Trazado 124779" d="M415.332,250.037c-.542.11-.506,1.294-.455,1.616,0,.021.007.035.007.039,0-.011,0-.025-.007-.039a9.284,9.284,0,0,0-1.077-2.994c-.192-.184-.321.066-.321.066a1.858,1.858,0,0,0-.382-.412.314.314,0,0,0-.178-.083.229.229,0,0,0-.178.094.665.665,0,0,0-.093.185.194.194,0,0,0-.251.039.482.482,0,0,0-.1.255,3.479,3.479,0,0,0-.039.564.156.156,0,0,0-.2.018.394.394,0,0,0-.1.187,3.3,3.3,0,0,0-.056,1.167c.029.453.071.905.141,1.354a16.443,16.443,0,0,0,.855,3.014,7.729,7.729,0,0,0,1.906-.509c.329-.259,1.091-4.677.524-4.562" transform="translate(-375.453 -226.275)" fill="#ff7346"/>
              <path id="Trazado_124780" data-name="Trazado 124780" d="M445.294,337.867l-1.578.061.007.177,1.716-.066.014-.068c.256-1.236.256-1.265.256-1.276l-.176-.008c-.006.05-.141.709-.239,1.18" transform="translate(-404.473 -306.91)" fill="#a0f5f9"/>
              <path id="Trazado_124781" data-name="Trazado 124781" d="M444.072,338.1l1.8.132.013-.176-1.8-.132c0,.059-.009.118-.017.176" transform="translate(-404.797 -308.036)" fill="#a0f5f9"/>
              <path id="Trazado_124782" data-name="Trazado 124782" d="M511.552,194.905a.734.734,0,0,1,.03-.17.732.732,0,0,0-.259-.682,1.159,1.159,0,0,0-.708-.251c-.377-.016-.8.085-1.1-.152-.12-.1-.2-.24-.319-.335a.9.9,0,0,0-.35-.151,2.354,2.354,0,0,0-.775-.055.436.436,0,0,1-.145,0,.714.714,0,0,1-.146-.071.689.689,0,0,0-.278-.063,2.111,2.111,0,0,0-.853.166,3.62,3.62,0,0,0-.6.294,1.458,1.458,0,0,0-.456.4.706.706,0,0,0-.114.582.239.239,0,0,1,.017.1.27.27,0,0,1-.06.109c-.092.133-.026.227-.04.363a2.053,2.053,0,0,1-.158.4,8.147,8.147,0,0,0-.245.825c-.066.272-.085.562-.159.83,0,0-.208.754.054.942s.365.113.365.113l.331-.73s.432-.166.521-.431a7.623,7.623,0,0,1,.4-.937,7.33,7.33,0,0,0,2.05.827,4.118,4.118,0,0,0,1.832-.133,5.378,5.378,0,0,1-.022.829c-.02.166.083.272.061.462-.1.861-.188,1.626-.162,1.514.076-.327.181-.649.271-.973q.116-.419.227-.84c.055-.21.063-.572.259-.7a.861.861,0,0,0,.255-.175c.116-.154.031-.371.04-.563a.134.134,0,0,1,.032-.094.178.178,0,0,1,.1-.032.517.517,0,0,0,.428-.458.736.736,0,0,0-.168-.482.555.555,0,0,1-.15-.289" transform="translate(-460.113 -175.906)" fill="#544548"/>
              <path id="Trazado_124783" data-name="Trazado 124783" d="M511.007,213.383a1,1,0,0,1-.693.057.756.756,0,0,1-.325-.173.954.954,0,0,1-.316.173,2.021,2.021,0,0,1-.935.058c-.379-.053-.995-.246-1.162-.637a1,1,0,0,1-.215-.013,1.3,1.3,0,0,1-.467-.122l-.045.013a2.08,2.08,0,0,1-.209.069,1.415,1.415,0,0,1-.625-.041,1.057,1.057,0,0,1-.613-.4c-.04.1,0,.187-.008.3a2.054,2.054,0,0,1-.158.4,8.154,8.154,0,0,0-.245.825c-.066.272-.085.562-.159.83,0,0-.208.754.054.942s.365.113.365.113l.331-.73s.432-.166.521-.431a7.609,7.609,0,0,1,.4-.937,7.33,7.33,0,0,0,2.05.827,4.118,4.118,0,0,0,1.832-.133,5.378,5.378,0,0,1-.022.829c-.02.166.083.272.061.462-.1.861-.188,1.626-.162,1.514.076-.327.181-.649.271-.973q.116-.419.227-.84c.055-.21.063-.572.259-.7a.859.859,0,0,0,.255-.175c.116-.154.031-.371.04-.563a.134.134,0,0,1,.032-.093.177.177,0,0,1,.1-.032.517.517,0,0,0,.428-.458.524.524,0,0,0,0-.1.741.741,0,0,1-.86.126" transform="translate(-460.113 -193.588)" fill="#473b3e"/>
              <path id="Trazado_124784" data-name="Trazado 124784" d="M504.584,275.15a2.448,2.448,0,0,1-.6-1.727l-.176-.016a2.584,2.584,0,0,0,.641,1.862,2.933,2.933,0,0,0,2.042.834l.057-.174a2.793,2.793,0,0,1-1.967-.779" transform="translate(-459.249 -249.226)" fill="#ff4848"/>
              <path id="Trazado_124785" data-name="Trazado 124785" d="M496.019,234.536a1.255,1.255,0,0,0,.2,1.77c.508.233.467-.266.467-.266l.152-.675s-.362-1.292-.821-.829" transform="translate(-451.9 -213.702)" fill="#ff7346"/>
              <path id="Trazado_124786" data-name="Trazado 124786" d="M527.98,256.412a.428.428,0,0,0-.39.3.23.23,0,0,0,.26.28.427.427,0,0,0,.39-.3.23.23,0,0,0-.26-.28" transform="translate(-480.922 -233.734)" fill="#473b3e"/>
              <path id="Trazado_124787" data-name="Trazado 124787" d="M554.98,259.412a.428.428,0,0,0-.39.3.23.23,0,0,0,.26.28.427.427,0,0,0,.39-.3.23.23,0,0,0-.26-.28" transform="translate(-505.534 -236.469)" fill="#473b3e"/>
              <path id="Trazado_124788" data-name="Trazado 124788" d="M528.487,248.79l.046.171a1.407,1.407,0,0,1,.9.038l.1-.149a1.549,1.549,0,0,0-1.044-.06" transform="translate(-481.746 -226.726)" fill="#473b3e"/>
              <path id="Trazado_124789" data-name="Trazado 124789" d="M555.991,251l0,.177a.877.877,0,0,1,.707.333l.154-.087a1.045,1.045,0,0,0-.863-.423" transform="translate(-506.818 -228.801)" fill="#473b3e"/>
              <path id="Trazado_124790" data-name="Trazado 124790" d="M519.208,277.724l-.17.049a1.524,1.524,0,0,0,1.557.973h.069l0-.177a1.346,1.346,0,0,1-1.45-.843" transform="translate(-473.133 -253.161)" fill="#ff4848"/>
              <path id="Trazado_124791" data-name="Trazado 124791" d="M537.091,264.058l-.168.056,0,.011c.227.645.3,1.168.168,1.245-.2.121-.658-.123-.8-.219l-.1.147a1.649,1.649,0,0,0,.757.281.452.452,0,0,0,.233-.058c.3-.18.073-.99-.091-1.456Z" transform="translate(-488.773 -240.704)" fill="#ff4848"/>
              <path id="Trazado_124792" data-name="Trazado 124792" d="M520.3,287.009s0-.009,0-.009h-.177c0,.088.011.235.391.313l.036-.173c-.192-.04-.246-.108-.251-.131" transform="translate(-474.124 -261.617)" fill="#ff4848"/>
              <path id="Trazado_124793" data-name="Trazado 124793" d="M499.976,240.851l-.112.137a.716.716,0,0,1,.222.635l.175.025a.894.894,0,0,0-.285-.8" transform="translate(-455.655 -219.55)" fill="#ff4848"/>
              <path id="Trazado_124794" data-name="Trazado 124794" d="M499.828,244.343l.008.177a.519.519,0,0,1,.215.026.037.037,0,0,1-.011-.021l.174-.03c-.025-.146-.253-.158-.387-.152" transform="translate(-455.622 -222.732)" fill="#ff4848"/>
              <path id="Trazado_124795" data-name="Trazado 124795" d="M567.234,336.125l.047.171a8.015,8.015,0,0,1,4.414-.122q0-.093.008-.186a8.147,8.147,0,0,0-4.469.137" transform="translate(-517.066 -306.051)" fill="#a0f5f9"/>
              <path id="Trazado_124796" data-name="Trazado 124796" d="M565.555,327.312l-.176-.016-.206,2.278.6.146.018-.227-.427-.06Z" transform="translate(-515.188 -298.349)" fill="#a0f5f9"/>
              <path id="Trazado_124797" data-name="Trazado 124797" d="M441.256,357.106l.176.019c.115-1.075.131-3.417.133-4.316l-.177,0c0,.9-.019,3.227-.132,4.292" transform="translate(-402.23 -321.606)" fill="#ff4848"/>
              <path id="Trazado_124798" data-name="Trazado 124798" d="M422.288,324.818l.005.013-.062.158a.963.963,0,0,0,.468.125.982.982,0,0,0,.335-.061l-.06-.166a.781.781,0,0,1-.687-.069" transform="translate(-384.888 -296.09)" fill="#ff4848"/>
              <path id="Trazado_124799" data-name="Trazado 124799" d="M414.6,258.84c0,.066,0,.133,0,.2a.142.142,0,0,0-.149-.012,19.612,19.612,0,0,0,.46,2.624l.169-.054a20.336,20.336,0,0,1-.468-2.706l-.007-.052" transform="translate(-377.793 -235.948)" fill="#ff4848"/>
              <path id="Trazado_124800" data-name="Trazado 124800" d="M419.341,250.279a.155.155,0,0,0-.119-.029c.139.92.618,2.857.684,3.122l.172-.043c-.253-1.018-.593-2.49-.691-3.159a1.157,1.157,0,0,0-.045.108" transform="translate(-382.145 -228.045)" fill="#ff4848"/>
              <path id="Trazado_124801" data-name="Trazado 124801" d="M427.486,250.9a1.856,1.856,0,0,0-.24-.285,21.132,21.132,0,0,1,.693,3.024l.177-.009a18.473,18.473,0,0,0-.613-2.757c-.011.016-.017.027-.017.027" transform="translate(-389.459 -228.447)" fill="#ff4848"/>
              <path id="Trazado_124802" data-name="Trazado 124802" d="M445.472,278.112l.158.723.173-.038c-.029-.131-.245-1.122-.322-1.462a3.488,3.488,0,0,0-.009.777" transform="translate(-406.057 -252.807)" fill="#ff4848"/>
              <path id="Trazado_124803" data-name="Trazado 124803" d="M436.013,474.228l-.033-.6-2.609-1.006-.2.026a8.837,8.837,0,0,0-.077,1.931,1.4,1.4,0,0,0,.752.752.787.787,0,0,0,.221-.111,4.069,4.069,0,0,0,.564.431c.111.033.31-.1.31-.1s.531-.188.586-.31a1.5,1.5,0,0,0,.077-.365s.542.111.763-.055.763-.783.509-.983-.862.386-.862.386" transform="translate(-394.754 -430.825)" fill="#ff7346"/>
              <path id="Trazado_124804" data-name="Trazado 124804" d="M412.183,494.017a16.074,16.074,0,0,1-7.8-.507q0,.092-.007.184a16.386,16.386,0,0,0,4.96.765,15.383,15.383,0,0,0,2.88-.268,16.183,16.183,0,0,0,6.439-2.623c-.008-.065-.016-.132-.023-.2a15.83,15.83,0,0,1-6.449,2.652" transform="translate(-368.612 -447.908)" fill="#a0f5f9"/>
              <path id="Trazado_124805" data-name="Trazado 124805" d="M436.013,474.228l-.033-.6-2.609-1.006-.2.026a8.837,8.837,0,0,0-.077,1.931,1.4,1.4,0,0,0,.752.752.787.787,0,0,0,.221-.111,4.069,4.069,0,0,0,.564.431c.111.033.31-.1.31-.1s.531-.188.586-.31a1.5,1.5,0,0,0,.077-.365s.542.111.763-.055.763-.783.509-.983-.862.386-.862.386" transform="translate(-394.754 -430.825)" fill="#ff7346"/>
              <path id="Trazado_124806" data-name="Trazado 124806" d="M481.159,460.3l.186.01.237-.611-.165-.064Z" transform="translate(-438.604 -418.987)" fill="#ff4848"/>
              <path id="Trazado_124807" data-name="Trazado 124807" d="M437.389,491.064a6.308,6.308,0,0,0,.451,1.012.929.929,0,0,0,.156-.083,6.229,6.229,0,0,1-.44-.987Z" transform="translate(-398.705 -447.58)" fill="#ff4848"/>
              <path id="Trazado_124808" data-name="Trazado 124808" d="M446.194,491.141a4.665,4.665,0,0,0,.857,1.2c.051-.021.112-.046.172-.074a4.991,4.991,0,0,1-.857-1.171Z" transform="translate(-406.732 -447.666)" fill="#ff4848"/>
              <path id="Trazado_124809" data-name="Trazado 124809" d="M453.193,489.581l-.173.035c.046.227.482.585.773.8.007-.049.01-.083.01-.083a2.137,2.137,0,0,0,.215.029c-.34-.245-.791-.618-.825-.785" transform="translate(-412.954 -446.281)" fill="#ff4848"/>
              <path id="Trazado_124810" data-name="Trazado 124810" d="M565.417,432.991l-.015.178a2.888,2.888,0,0,1,2.521.993l.134-.116a3.049,3.049,0,0,0-2.641-1.055" transform="translate(-515.396 -394.688)" fill="#ff4848"/>
              <path id="Trazado_124811" data-name="Trazado 124811" d="M435.225,685.518c-.039-.008-.255-.074-1.04-.339l.057.088.01.121c.577.194.878.291.939.3l.018,0a4.64,4.64,0,0,0,1.034-.429l-.079-.158a6.8,6.8,0,0,1-.938.412" transform="translate(-395.785 -624.514)" fill="#ff4848"/>
              <path id="Trazado_124812" data-name="Trazado 124812" d="M558.509,684.168c-.293.038-.961-.465-1.033-.543l-.069.055-.074.049a2.467,2.467,0,0,0,1.147.617.394.394,0,0,0,.051,0,2.426,2.426,0,0,0,.608-.248c0-.032,0-.061,0-.084,0-.039,0-.078,0-.117a2.677,2.677,0,0,1-.631.273" transform="translate(-508.042 -623.164)" fill="#ff4848"/>
              <path id="Trazado_124813" data-name="Trazado 124813" d="M481.033,440.53l-1.017.089s1.093.008,1.038.992a1.648,1.648,0,0,1-.518,1.3l.817.04a2.032,2.032,0,0,0,.6-1.414,1.019,1.019,0,0,0-.916-1" transform="translate(-437.562 -401.568)" fill="#7f6a6e"/>
              <path id="Trazado_124814" data-name="Trazado 124814" d="M6.77,717.2c.471-.322-.6-3.817-.6-3.817s-3.82-.038-6.17.08v3.983c2.416.005,6.436-.018,6.77-.246" transform="translate(0 -650.283)" fill="#ffb985"/>
            </g>
          </g>
        </g>
      </g>
    </g>
  </g>
</svg>
