<svg xmlns="http://www.w3.org/2000/svg" width="279.73" height="239.596" viewBox="0 0 279.73 239.596">
  <g id="Grupo_88027" data-name="Grupo 88027" transform="translate(6001 10256.393)">
    <g id="Grupo_87439" data-name="Grupo 87439" transform="translate(3592 142.607)">
      <path id="Rectángulo_34017" data-name="Rectángulo 34017" d="M0,0H140a77,77,0,0,1,77,77V239.6a0,0,0,0,1,0,0H0a0,0,0,0,1,0,0V0A0,0,0,0,1,0,0Z" transform="translate(-9562 -10399)" fill="#6b8dfc"/>
      <g id="Grupo_80932" data-name="Grupo 80932" transform="translate(-9556 -10378.072)">
        <path id="Trazado_114646" data-name="Trazado 114646" d="M274.765,153.931c-1.55,23.991-19.953,46.9-44.875,48.318-28.625,2.193-54.9-13.505-83.415-13.671-14.54-1.247-28.176,4.321-42.345,6.118-32,1.175-36.879-36.434-30.911-60.675C98.39,19.738,276.507,35.287,274.765,153.931Z" transform="translate(-71.019 -56.124)" fill="#c4d1ff"/>
      </g>
    </g>
    <g id="Grupo_88025" data-name="Grupo 88025" transform="translate(-6001 -10216.393)">
      <path id="Trazado_124478" data-name="Trazado 124478" d="M90.328,144.867,45.611,120.815V52.386L90.328,71.017Z" transform="translate(-23.507 -26.999)" fill="#df9e68"/>
      <path id="Trazado_124479" data-name="Trazado 124479" d="M214.782,125.466l-76.9,19.761V71.551l76.9-18.466Z" transform="translate(-71.063 -27.359)" fill="#b06e4c"/>
      <path id="Trazado_124480" data-name="Trazado 124480" d="M167.734,33.39,90.328,51.57,45.612,33.051l77.406-18.18Z" transform="translate(-23.508 -7.664)" fill="#e9b375"/>
      <line id="Línea_197" data-name="Línea 197" x1="76.958" y2="18.366" transform="translate(41.52 15.062)" fill="none" stroke="#b26e4b" stroke-miterlimit="10" stroke-width="1"/>
      <path id="Trazado_124481" data-name="Trazado 124481" d="M369.939,148.752,325.222,124.7V56.271L369.939,74.9Z" transform="translate(-167.615 -29.001)" fill="#df9e68"/>
      <path id="Trazado_124482" data-name="Trazado 124482" d="M494.393,129.352l-76.9,19.761V75.436l76.9-18.466Z" transform="translate(-215.171 -29.362)" fill="#996042"/>
      <path id="Trazado_124483" data-name="Trazado 124483" d="M325.222,36.937l44.716,18.519,77.406-18.18L402.629,18.757Z" transform="translate(-167.615 -9.667)" fill="#e9b375"/>
      <line id="Línea_198" data-name="Línea 198" x1="76.958" y2="18.366" transform="translate(177.024 16.945)" fill="none" stroke="#b26e4b" stroke-miterlimit="10" stroke-width="1"/>
      <path id="Trazado_124484" data-name="Trazado 124484" d="M198.327,130l-44.716-24.052V37.514l44.716,18.632Z" transform="translate(-79.169 -19.334)" fill="#e7384c"/>
      <path id="Trazado_124485" data-name="Trazado 124485" d="M322.781,110.595l-76.9,19.761V56.679l76.9-18.466Z" transform="translate(-126.725 -19.694)" fill="#cb223c"/>
      <path id="Trazado_124486" data-name="Trazado 124486" d="M231.018,0,153.612,18.18,198.327,36.7l77.407-18.18Z" transform="translate(-79.169)" fill="#e75162"/>
      <line id="Línea_199" data-name="Línea 199" x1="76.958" y2="18.366" transform="translate(93.858 7.855)" fill="none" stroke="#cb223c" stroke-miterlimit="10" stroke-width="1"/>
      <path id="Trazado_124487" data-name="Trazado 124487" d="M0,212.275l44.716,24.052V162.478L0,143.846Z" transform="translate(0 -74.136)" fill="#d19462"/>
      <path id="Trazado_124488" data-name="Trazado 124488" d="M169.17,216.927l-76.9,19.761V163.011l76.9-18.466Z" transform="translate(-47.556 -74.497)" fill="#996042"/>
      <path id="Trazado_124489" data-name="Trazado 124489" d="M0,124.512l44.716,18.519,77.406-18.18L77.406,106.332Z" transform="translate(0 -54.802)" fill="#e9b375"/>
      <line id="Línea_200" data-name="Línea 200" x1="76.958" y2="18.366" transform="translate(19.416 59.385)" fill="none" stroke="#b26e4b" stroke-miterlimit="10" stroke-width="1"/>
      <path id="Trazado_124490" data-name="Trazado 124490" d="M233.475,257.946,278.192,282V208.148l-44.716-18.631Z" transform="translate(-120.33 -97.674)" fill="#df9e68"/>
      <path id="Trazado_124491" data-name="Trazado 124491" d="M325.747,208.681v73.677l76.9-19.761V190.215Z" transform="translate(-167.885 -98.034)" fill="#b06e4c"/>
      <path id="Trazado_124492" data-name="Trazado 124492" d="M355.6,170.521,278.191,188.7l-44.716-18.519L310.881,152Z" transform="translate(-120.33 -78.339)" fill="#e9b375"/>
      <line id="Línea_201" data-name="Línea 201" x1="76.958" y2="18.366" transform="translate(132.562 81.518)" fill="none" stroke="#b26e4b" stroke-miterlimit="10" stroke-width="1"/>
    </g>
  </g>
</svg>
