<svg xmlns="http://www.w3.org/2000/svg" xmlns:xlink="http://www.w3.org/1999/xlink" width="256.897" height="284.426" viewBox="0 0 256.897 284.426">
  <defs>
    <clipPath id="clip-path">
      <rect id="Rectángulo_35966" data-name="Rectángulo 35966" width="240.898" height="36.88" fill="#a6bbff"/>
    </clipPath>
    <clipPath id="clip-path-2">
      <rect id="Rectángulo_35967" data-name="Rectángulo 35967" width="39.093" height="272.425" fill="#a6bbff"/>
    </clipPath>
    <clipPath id="clip-path-3">
      <rect id="Rectángulo_35968" data-name="Rectángulo 35968" width="32.945" height="214.102" fill="#8284d2"/>
    </clipPath>
    <clipPath id="clip-path-4">
      <rect id="Rectángulo_35969" data-name="Rectángulo 35969" width="114.858" height="26.326" fill="none"/>
    </clipPath>
    <clipPath id="clip-path-5">
      <rect id="Rectángulo_35970" data-name="Rectángulo 35970" width="82.252" height="16.59" fill="none"/>
    </clipPath>
    <clipPath id="clip-path-6">
      <rect id="Rectángulo_35971" data-name="Rectángulo 35971" width="11.917" height="34.851" fill="none"/>
    </clipPath>
    <clipPath id="clip-path-7">
      <rect id="Rectángulo_35972" data-name="Rectángulo 35972" width="26.431" height="30.571" fill="none"/>
    </clipPath>
    <clipPath id="clip-path-8">
      <rect id="Rectángulo_35973" data-name="Rectángulo 35973" width="24.909" height="29.792" fill="none"/>
    </clipPath>
    <clipPath id="clip-path-9">
      <rect id="Rectángulo_35974" data-name="Rectángulo 35974" width="133.998" height="75.908" fill="none"/>
    </clipPath>
    <clipPath id="clip-path-10">
      <rect id="Rectángulo_35975" data-name="Rectángulo 35975" width="46.328" height="22.561" fill="none"/>
    </clipPath>
    <clipPath id="clip-path-11">
      <rect id="Rectángulo_35976" data-name="Rectángulo 35976" width="49.033" height="35.507" fill="none"/>
    </clipPath>
    <clipPath id="clip-path-12">
      <rect id="Rectángulo_35977" data-name="Rectángulo 35977" width="82.426" height="77.167" fill="none"/>
    </clipPath>
    <clipPath id="clip-path-13">
      <rect id="Rectángulo_35978" data-name="Rectángulo 35978" width="3.23" height="11.481" fill="none"/>
    </clipPath>
  </defs>
  <g id="Grupo_88117" data-name="Grupo 88117" transform="translate(5965 9477)">
    <path id="Rectángulo_34017" data-name="Rectángulo 34017" d="M0,0H140a77,77,0,0,1,77,77V284a0,0,0,0,1,0,0H0a0,0,0,0,1,0,0V0A0,0,0,0,1,0,0Z" transform="translate(-5945 -9477)" fill="#6b8dfc"/>
    <g id="Grupo_80932" data-name="Grupo 80932" transform="translate(-6114.563 -9510.907)">
      <path id="Trazado_114646" data-name="Trazado 114646" d="M274.765,153.931c-1.55,23.991-19.953,46.9-44.875,48.318-28.625,2.193-54.9-13.505-83.415-13.671-14.54-1.247-28.176,4.321-42.345,6.118-32,1.175-36.879-36.434-30.911-60.675C98.39,19.738,276.507,35.287,274.765,153.931Z" transform="translate(84.545 -1.289)" fill="#c4d1ff"/>
    </g>
    <g id="Grupo_88116" data-name="Grupo 88116" transform="translate(467.27 -203)">
      <g id="Grupo_88074" data-name="Grupo 88074" transform="translate(-6432.27 -9026.454)">
        <g id="Grupo_88073" data-name="Grupo 88073">
          <g id="Grupo_88072" data-name="Grupo 88072" clip-path="url(#clip-path)">
            <path id="Trazado_124869" data-name="Trazado 124869" d="M0,288.556l31.647-36.88H200.564c16.11,0,30.795,11.408,37.774,29.345L240.9,287.6Z" transform="translate(0 -251.676)" fill="#a6bbff"/>
          </g>
        </g>
      </g>
      <g id="Grupo_88077" data-name="Grupo 88077" transform="translate(-6432.27 -9262)">
        <g id="Grupo_88076" data-name="Grupo 88076">
          <g id="Grupo_88075" data-name="Grupo 88075" clip-path="url(#clip-path-2)">
            <path id="Trazado_124870" data-name="Trazado 124870" d="M0,0,24.067,18.671A38.82,38.82,0,0,1,39.093,49.345v186.2L0,272.425Z" fill="#a6bbff"/>
          </g>
        </g>
      </g>
      <g id="Grupo_88080" data-name="Grupo 88080" transform="translate(-6426.122 -9215.81)" opacity="0.4">
        <g id="Grupo_88079" data-name="Grupo 88079">
          <g id="Grupo_88078" data-name="Grupo 88078" clip-path="url(#clip-path-3)">
            <path id="Trazado_124871" data-name="Trazado 124871" d="M6.569,136.137,39.514,49.354V238.709L13.282,263.456Z" transform="translate(-6.569 -49.354)" fill="#8284d2"/>
          </g>
        </g>
      </g>
      <g id="Grupo_88083" data-name="Grupo 88083" transform="translate(-6398.34 -9021.654)" opacity="0.2" style="mix-blend-mode: multiply;isolation: isolate">
        <g id="Grupo_88082" data-name="Grupo 88082">
          <g id="Grupo_88081" data-name="Grupo 88081" clip-path="url(#clip-path-4)">
            <path id="Trazado_124872" data-name="Trazado 124872" d="M36.253,269.968c0-7.27,25.712-13.163,57.429-13.163s57.429,5.893,57.429,13.163S125.4,283.13,93.682,283.13s-57.429-5.893-57.429-13.163" transform="translate(-36.253 -256.805)" fill="#b3b8c7"/>
          </g>
        </g>
      </g>
      <g id="Grupo_88086" data-name="Grupo 88086" transform="translate(-6257.765 -9011.918)" opacity="0.2" style="mix-blend-mode: multiply;isolation: isolate">
        <g id="Grupo_88085" data-name="Grupo 88085">
          <g id="Grupo_88084" data-name="Grupo 88084" clip-path="url(#clip-path-5)">
            <path id="Trazado_124873" data-name="Trazado 124873" d="M186.455,275.5c0-4.581,18.413-8.295,41.126-8.295s41.127,3.714,41.127,8.295-18.413,8.295-41.127,8.295-41.126-3.714-41.126-8.295" transform="translate(-186.455 -267.207)" fill="#b3b8c7"/>
          </g>
        </g>
      </g>
      <path id="Trazado_124874" data-name="Trazado 124874" d="M223.135,262.2a.717.717,0,0,1-.256-.05c-.94-.351-1.2-2.081-1.345-4.946-.014-.282-.025-.514-.039-.665a25.977,25.977,0,0,1,.1-6.265c.711-4.684,3.215-8.5,6.7-10.2a3.49,3.49,0,0,1,2.041-.437c1.688.26,2.4,2.14,2.49,3.67.189,3.142-.888,6.441-3.393,10.386-.106.169-.3.488-.548.9-3.705,6.167-4.935,7.607-5.746,7.607m-.526-11.772a24.988,24.988,0,0,0-.09,6.017c.014.162.028.409.042.709.135,2.751.392,3.7.609,3.965.649-.428,2.271-2.8,4.828-7.056.256-.427.453-.752.562-.925,2.381-3.754,3.409-6.859,3.234-9.774-.075-1.239-.606-2.56-1.62-2.716a2.608,2.608,0,0,0-1.433.344c-3.179,1.556-5.472,5.084-6.133,9.434" transform="translate(-6446.457 -9277.356)" fill="#003c59"/>
      <path id="Trazado_124875" data-name="Trazado 124875" d="M71.979,138.205c2.908,6.825,29.856,52.962,35.824,51.641s6.725,8.261,3.7,14.031-28.236,28.14-33.98,7.748-5.54-73.42-5.54-73.42" transform="translate(-6436.883 -9270.857)" fill="#bc994e"/>
      <path id="Trazado_124876" data-name="Trazado 124876" d="M109.455,191.764c8.977-2.826,27.611-18.944,30.731-22.889s5.343,8.525-1.883,19.712-28.9,29.766-37.029,22.734-.8-16.731,8.182-19.558" transform="translate(-6438.535 -9272.775)" fill="#de7752"/>
      <path id="Trazado_124877" data-name="Trazado 124877" d="M110.283,178.1c1.589-4.3,7.948-10.394,13.448-12.241s1.756,3.474-2.215,9.585-5.294,9.616-8.509,8.809-2.723-6.153-2.723-6.153" transform="translate(-6439.336 -9272.606)" fill="#de7752"/>
      <path id="Trazado_124878" data-name="Trazado 124878" d="M145.626,145.331l-8.887,46.415-19.1-9,1.207-42.524s20.347-.188,26.775,5.106" transform="translate(-6439.81 -9270.987)" fill="#c4a563"/>
      <path id="Trazado_124879" data-name="Trazado 124879" d="M149.2,127.093s-6.245,11.939-2.269,17.4c-1.682,8.782-8.887,46.415-8.887,46.415L146,174.555s6.6-41.222,3.2-47.462" transform="translate(-6441.117 -9270.146)" fill="#c4a563"/>
      <path id="Trazado_124880" data-name="Trazado 124880" d="M152.039,127.093c2.648,9.833-6.037,49.942-6.037,49.942l-7.956,13.87,8.887-46.415s-.931-5.863,5.105-17.4" transform="translate(-6441.117 -9270.146)" fill="#002c42"/>
      <path id="Trazado_124881" data-name="Trazado 124881" d="M116.06,142.666v47.8l20.578,1.4,8.886-46.415s-25.682-5.053-29.464-2.784" transform="translate(-6439.708 -9271.106)" fill="#002c42"/>
      <g id="Grupo_88089" data-name="Grupo 88089" transform="translate(-6303.071 -9114.092)" opacity="0.5" style="mix-blend-mode: multiply;isolation: isolate">
        <g id="Grupo_88088" data-name="Grupo 88088">
          <g id="Grupo_88087" data-name="Grupo 88087" clip-path="url(#clip-path-6)">
            <path id="Trazado_124882" data-name="Trazado 124882" d="M144.564,161.979c-.217.121-.444.224-.664.338l-5.853,30.572L146,179.018s2.132-9.849,3.961-20.981a28.01,28.01,0,0,1-5.4,3.942" transform="translate(-138.046 -158.037)" fill="#002c42"/>
          </g>
        </g>
      </g>
      <g id="Grupo_88092" data-name="Grupo 88092" transform="translate(-6323.648 -9109.811)" opacity="0.5" style="mix-blend-mode: multiply;isolation: isolate">
        <g id="Grupo_88091" data-name="Grupo 88091">
          <g id="Grupo_88090" data-name="Grupo 88090" clip-path="url(#clip-path-7)">
            <path id="Trazado_124883" data-name="Trazado 124883" d="M116.06,166.321v25.459l20.578,1.4,5.853-30.571c-7.8,4.035-17.665,4.035-26.431,3.711" transform="translate(-116.06 -162.611)" fill="#002c42"/>
          </g>
        </g>
      </g>
      <path id="Trazado_124884" data-name="Trazado 124884" d="M150.731,152.775a7.343,7.343,0,0,0-2.634,7.747c-1.181,1.162-1.84,2.258-1.675,3.406s.767,2.731,2.067,1.964c-1.021.693-.617,3.489,1.226,3.6s2.88-1.8,2.973-3.345.694-4.5-.472-4c.221.013,1.661-4.588.275-4.53.1.006.877-6.578-1.761-4.843" transform="translate(-6441.652 -9271.772)" fill="#fa9d78"/>
      <path id="Trazado_124885" data-name="Trazado 124885" d="M27.127,118.024c2.552-1.675,17.081,0,17.081,0L35.668,131Z" transform="translate(-6434.008 -9269.517)" fill="#bc994e"/>
      <path id="Trazado_124886" data-name="Trazado 124886" d="M226.363,226.294c2.552,1.7-20.159,33.145-23.542,29.5s1.134-18.023,6.523-23.051,17.019-6.447,17.019-6.447" transform="translate(-6445.194 -9276.503)" fill="#5c2e27"/>
      <g id="Grupo_88095" data-name="Grupo 88095" transform="translate(-6243.541 -9050.209)" opacity="0.7" style="mix-blend-mode: multiply;isolation: isolate">
        <g id="Grupo_88094" data-name="Grupo 88094">
          <g id="Grupo_88093" data-name="Grupo 88093" clip-path="url(#clip-path-8)">
            <path id="Trazado_124887" data-name="Trazado 124887" d="M226.363,226.294c2.552,1.7-20.159,33.145-23.542,29.5s1.134-18.023,6.523-23.051,17.019-6.447,17.019-6.447" transform="translate(-201.653 -226.294)" fill="#5c2e27"/>
          </g>
        </g>
      </g>
      <path id="Trazado_124888" data-name="Trazado 124888" d="M72.889,223.645l24.393,28.364s33.679-3.788,42.793-13.665,16.658-24.059,16.658-24.059,18.635,27.287,29.795,29.647c3.787-8.09,18.252-21.992,18.252-21.992s3.913-6.319,1.076-10.107-34.93-32.716-42.77-35.27C146,171,105.549,217.5,105.549,217.5l-14.508-3.419Z" transform="translate(-6436.941 -9273.286)" fill="#5c2e27"/>
      <g id="Grupo_88098" data-name="Grupo 88098" transform="translate(-6364.052 -9097.187)" opacity="0.7" style="mix-blend-mode: multiply;isolation: isolate">
        <g id="Grupo_88097" data-name="Grupo 88097">
          <g id="Grupo_88096" data-name="Grupo 88096" clip-path="url(#clip-path-9)">
            <path id="Trazado_124889" data-name="Trazado 124889" d="M72.889,223.645l24.393,28.364s33.679-3.788,42.793-13.665,16.658-24.059,16.658-24.059,18.635,27.287,29.795,29.647c3.787-8.09,18.252-21.992,18.252-21.992s3.913-6.319,1.076-10.107-34.93-32.716-42.77-35.27C146,171,105.549,217.5,105.549,217.5l-14.508-3.419Z" transform="translate(-72.889 -176.1)" fill="#5c2e27"/>
          </g>
        </g>
      </g>
      <path id="Trazado_124890" data-name="Trazado 124890" d="M189.251,236.308s18.164,17.019,18.731,24.109-3.12,13.331,2.836,13.331,41.954-1.881,41.954-1.881,1.442-4.643-2.529-6.345-14.759-2.608-21.1-6.849c-8.937-5.971-30.516-48.743-30.516-48.743Z" transform="translate(-6444.399 -9275.454)" fill="#de7752"/>
      <path id="Trazado_124891" data-name="Trazado 124891" d="M251.439,268.347c-3.971-1.7-14.759-2.608-21.1-6.849-1.809-1.208-4.135-3.924-6.7-7.486-.165.179-.33.358-.5.527-3.9,3.9-8.607,5.287-13.935,5.772-.307.028-1.514-.05-1.278.687.388,1.216,1.184,1.409,1.25,2.244.567,7.091-3.119,13.331,2.837,13.331s41.954-1.881,41.954-1.881,1.442-4.643-2.529-6.345" transform="translate(-6445.594 -9278.279)" fill="#002c42"/>
      <g id="Grupo_88101" data-name="Grupo 88101" transform="translate(-6237.698 -9024.269)" opacity="0.5" style="mix-blend-mode: multiply;isolation: isolate">
        <g id="Grupo_88100" data-name="Grupo 88100">
          <g id="Grupo_88099" data-name="Grupo 88099" clip-path="url(#clip-path-10)">
            <path id="Trazado_124892" data-name="Trazado 124892" d="M251.439,268.347c-3.971-1.7-14.759-2.608-21.1-6.849-1.809-1.208-4.135-3.924-6.7-7.486-.165.179-.33.358-.5.527-3.9,3.9-8.607,5.287-13.935,5.772-.307.028-1.514-.05-1.278.687.388,1.216,1.184,1.409,1.25,2.244.567,7.091-3.119,13.331,2.837,13.331s41.954-1.881,41.954-1.881,1.442-4.643-2.529-6.345" transform="translate(-207.896 -254.011)" fill="#002c42"/>
          </g>
        </g>
      </g>
      <path id="Trazado_124893" data-name="Trazado 124893" d="M195.218,200.13c5.956,7.469,37.157,52.568,39.142,53.419s13.9,8.793,19,9.927,11.629,3.688,13.9,5.105,1.7,5.105,1.7,5.105-42.545,2.269-45.948,1.7-1.134-9.36-2.837-12.479-.162-4.6-14.808-15.5c-28.871-21.488-10.152-47.278-10.152-47.278" transform="translate(-6444.399 -9274.826)" fill="#fa9d78"/>
      <path id="Trazado_124894" data-name="Trazado 124894" d="M269.3,272.068c-2.269-1.418-8.792-3.971-13.9-5.105s-17.018-9.076-19-9.927c-.213-.092-.2-.7-.62-1.711a1.293,1.293,0,0,0-2.238-.238c-2.527,3.468-7.3,6.664-11.677,8.289a1.247,1.247,0,0,0-.408,2.113,3.176,3.176,0,0,1,.761.906c1.7,3.119-.567,11.912,2.836,12.479s45.948-1.7,45.948-1.7.567-3.687-1.7-5.105" transform="translate(-6446.436 -9278.314)" fill="#002c42"/>
      <path id="Trazado_124895" data-name="Trazado 124895" d="M64.059,86.344c1.512-3,2.741-3.495,4.633-3.873s3.657-8.316,3.279-10.964-2.995-5.727-7.911-5.727-12.858-7.318-17.4-8.83-13.208.756-14.168,2.648-7.388,12.858-8.522,15.883S27,87.9,25.863,93.185s-4.934,9.829-2.089,11.341,10.031,7.941,15.326,5.294,24.96-23.476,24.96-23.476" transform="translate(-6433.727 -9265.618)" fill="#771000"/>
      <g id="Grupo_88104" data-name="Grupo 88104" transform="translate(-6410.972 -9190.674)" opacity="0.4" style="mix-blend-mode: multiply;isolation: isolate">
        <g id="Grupo_88103" data-name="Grupo 88103">
          <g id="Grupo_88102" data-name="Grupo 88102" clip-path="url(#clip-path-11)">
            <path id="Trazado_124896" data-name="Trazado 124896" d="M71.769,76.217c-1.41.421-2.8.905-4.195,1.38-2.58.882-5.144,1.779-7.771,2.51a4.812,4.812,0,0,0-3.227,2.115l-.091.1c-.254.388-.509.777-.731,1.186-.2.335-.362.688-.538,1.035-.04.156-.179.556-.427,1.233-2.275,6.931-9.246,11.41-16.557,9.4A12.954,12.954,0,0,1,33.6,92.784a19.933,19.933,0,0,1-4.392,6.954,21.334,21.334,0,0,1-6.453,4.49,1.8,1.8,0,0,0,1.018,1.565c2.846,1.512,10.031,7.941,15.326,5.294S64.06,87.611,64.06,87.611c1.513-3,2.742-3.5,4.633-3.874,1.328-.266,2.591-4.255,3.1-7.527l-.02.006" transform="translate(-22.756 -76.211)" fill="#771000"/>
          </g>
        </g>
      </g>
      <path id="Trazado_124897" data-name="Trazado 124897" d="M32.91,104.717c.385,6.09-.712,15.459-3.371,17.728s9.777,12.1,12.446,19.287S57.134,156.1,57.134,156.1,56,129.631,53.352,127.739s-5.294-7.563-1.891-13.615-18.552-9.408-18.552-9.408" transform="translate(-6434.139 -9268.711)" fill="#fa9d78"/>
      <path id="Trazado_124898" data-name="Trazado 124898" d="M37.453,119.394c1.292,4.582,3.965,8.665,6.68,12.526a66.482,66.482,0,0,0,10.085,11.162c.86.773,1.766,1.483,2.694,2.165-.6-7.548-1.611-16.441-3.1-17.508-2.647-1.891-5.294-7.563-1.891-13.614,2.737-4.867-10.379-8.263-15.623-9.408-.049,4.9-.171,9.96,1.16,14.677" transform="translate(-6434.594 -9268.711)" fill="#de7752"/>
      <path id="Trazado_124899" data-name="Trazado 124899" d="M52.247,118.845c4.207-.42,12.48-21.178,12.48-24.96V85.474S45.44,82.54,39.767,94.642c-1.581,3.373-4.159-2.647-5.294.378s-2.269,10.589,0,14.749,10.211,9.833,17.775,9.076" transform="translate(-6434.395 -9267.458)" fill="#fa9d78"/>
      <path id="Trazado_124900" data-name="Trazado 124900" d="M36.184,102.068c2.885.219,2.3-14.406-3.2-13.648s-1.337,13.3,3.2,13.648" transform="translate(-6434.215 -9267.665)" fill="#fa9d78"/>
      <path id="Trazado_124901" data-name="Trazado 124901" d="M62.02,77.539a.515.515,0,0,1-.339-.9c1.491-1.3,1.824-4.857.712-7.6a5.939,5.939,0,0,0-6.021-3.976.491.491,0,0,1-.539-.489.514.514,0,0,1,.488-.539,6.931,6.931,0,0,1,7.026,4.618c1.3,3.217.858,7.148-.988,8.763a.515.515,0,0,1-.339.127" transform="translate(-6435.848 -9266.104)" fill="#b24e00"/>
      <path id="Trazado_124902" data-name="Trazado 124902" d="M37.828,64.7a.513.513,0,0,1-.51-.458c-.321-2.9.6-3.55,2.117-4.374a8.431,8.431,0,0,0,2.853-2.254.515.515,0,0,1,.8.651,9.463,9.463,0,0,1-3.161,2.506c-1.267.686-1.846,1-1.584,3.356a.515.515,0,0,1-.455.568l-.057,0" transform="translate(-6434.657 -9265.681)" fill="#b24e00"/>
      <path id="Trazado_124903" data-name="Trazado 124903" d="M26.042,68.105a.513.513,0,0,1-.484-.688c1-2.783,2.011-4.264,3.285-4.8,1.169-.493,2.4-.138,3.9.546a.514.514,0,0,1-.428.935c-1.286-.587-2.249-.88-3.074-.533-.971.41-1.835,1.745-2.716,4.2a.513.513,0,0,1-.484.341" transform="translate(-6433.906 -9265.998)" fill="#b24e00"/>
      <path id="Trazado_124904" data-name="Trazado 124904" d="M57.787,240.061c-4.8,1.3-8.132-9.382-16.084-11.688s-15.587-11-17.82-23.483S9.926,175.014,9.926,170.1s-5.673-29.5-2.27-33.279,16.227-14.371,16.227-14.371l17.82,7.185s6.352,6.43,5.629,8.7-3.437,5.294,0,7.564,6.841,4.537,6.841,4.537S49.635,144,50.391,139.465s-2.168-11.345-2.168-11.345,6.37-3.782,9.563-1.891,8.11,7.186,10,10.968,7.372,23.837,10.3,30.377c1.426,3.182,22.278,42.549,20.062,45.752-1.671,2.412-13.863,6.315-13.863,6.315s-13.937,17.007-26.5,20.422" transform="translate(-6432.69 -9269.848)" fill="#bc994e"/>
      <g id="Grupo_88107" data-name="Grupo 88107" transform="translate(-6416.8 -9106.844)" opacity="0.5" style="mix-blend-mode: multiply;isolation: isolate">
        <g id="Grupo_88106" data-name="Grupo 88106">
          <g id="Grupo_88105" data-name="Grupo 88105" clip-path="url(#clip-path-12)">
            <path id="Trazado_124905" data-name="Trazado 124905" d="M78.73,170.35c-.669-1.493-1.194-3.044-1.775-4.569.242,2.289-.333,3.453-.677,5.527-.408,2.458.819,4.725,1.3,7.092,1.065,5.275-1.575,10.653-1.171,16.019a8.081,8.081,0,0,1-.052,3.079c-.437,1.359-1.717,2.24-2.914,3.016-2.141,1.388-.321,5.546-2.047,7.409-1.17,1.263-4.188,3.248-5.053,4.8,3.673,3.947,2.653,6.53-.3,11.587-3.22,5.506-11.379,8.168-16.922,4.437a4.417,4.417,0,0,1-.748-.572c-.1-.038-.185-.071-.3-.119-.733-.294-1.482-.547-2.215-.84a21.654,21.654,0,0,1-10.2-7.685c-1.855-2.59-1.228-6.273-2.733-9.081-.957-1.785-2.645-2.732-3.653-4.522a39.024,39.024,0,0,1-2.718-5.982c-.636-1.779-.808-3.718-1.36-5.515-.044-.038-.075-.064-.132-.115-.6-.544-1.163-1.113-1.774-1.641-2.216-1.914-4.61-3.6-6.739-5.593,3.258,6.607,6.855,14.235,7.992,20.589,2.234,12.48,9.868,21.179,17.82,23.484s11.288,12.99,16.085,11.688c12.566-3.414,26.5-20.422,26.5-20.422s12.191-3.9,13.862-6.316c2.216-3.2-18.635-42.569-20.061-45.751" transform="translate(-16.529 -165.781)" fill="#bc994e"/>
          </g>
        </g>
      </g>
      <path id="Trazado_124906" data-name="Trazado 124906" d="M37.584,138.806S21.145,128,19.783,126.31s6.864-8.235,6.864-8.235,11.932,10.615,15.893,11.277-3.094-.189-4.956,9.455" transform="translate(-6433.528 -9269.567)" fill="#bc994e"/>
      <path id="Trazado_124907" data-name="Trazado 124907" d="M58.372,134.832s-5.493-7.022-9.738-6.111c-.851-3.532,2.276-6.274,2.276-6.274l4.3,3.779s-.435,3.785,3.158,8.607" transform="translate(-6435.377 -9269.848)" fill="#bc994e"/>
      <path id="Trazado_124908" data-name="Trazado 124908" d="M37.559,139.849a.507.507,0,0,1-.282-.084c-1.69-1.112-16.545-10.9-17.919-12.6a.514.514,0,0,1,.8-.646c1.03,1.274,12.112,8.712,17.055,11.975,1.322-5.679,4.485-7.581,5.707-8.316a2.977,2.977,0,0,0,.372-.238.506.506,0,0,1,.714-.065.523.523,0,0,1,.066.733,2.357,2.357,0,0,1-.623.451c-1.275.767-4.263,2.564-5.384,8.376a.519.519,0,0,1-.306.376.509.509,0,0,1-.2.04" transform="translate(-6433.503 -9270.097)" fill="#9c7f41"/>
      <path id="Trazado_124909" data-name="Trazado 124909" d="M58.347,135.569a.51.51,0,0,1-.4-.2c-.053-.067-5.334-6.755-9.226-5.925a.514.514,0,1,1-.215-1.005c2.438-.525,5.179,1.281,7.212,3.093a11.079,11.079,0,0,1-1.034-5.145.5.5,0,0,1,.568-.451.515.515,0,0,1,.454.567c0,.036-.352,3.665,3.059,8.243a.514.514,0,0,1-.413.821" transform="translate(-6435.352 -9270.071)" fill="#9c7f41"/>
      <path id="Trazado_124910" data-name="Trazado 124910" d="M82.454,201.337a.515.515,0,0,1-.456-.276,64.091,64.091,0,0,0-8.9-12.881c-.34-.381-.685-.759-1.03-1.139a25.91,25.91,0,0,1-4.807-6.545,25.855,25.855,0,0,1-1.64-6.248c-.121-.7-.242-1.4-.383-2.087a37.293,37.293,0,0,0-6.654-14.836.514.514,0,1,1,.824-.616,38.34,38.34,0,0,1,6.839,15.247c.142.7.265,1.408.388,2.116a25.077,25.077,0,0,0,1.564,6,25.124,25.124,0,0,0,4.63,6.274c.347.383.694.764,1.037,1.148a65.075,65.075,0,0,1,9.044,13.088.514.514,0,0,1-.456.752" transform="translate(-6436.018 -9272.03)" fill="#9c7f41"/>
      <path id="Trazado_124911" data-name="Trazado 124911" d="M93.9,193.663a.515.515,0,0,1-.449-.263A215.947,215.947,0,0,1,79.34,162.795a.513.513,0,0,1,.964-.354A214.838,214.838,0,0,0,94.351,192.9a.515.515,0,0,1-.449.765" transform="translate(-6437.353 -9272.39)" fill="#9c7f41"/>
      <path id="Trazado_124912" data-name="Trazado 124912" d="M45.661,193.814l-.051,0a.515.515,0,0,1-.462-.562,122.037,122.037,0,0,0,.451-16.67.516.516,0,0,1,.492-.535.532.532,0,0,1,.535.493,123.031,123.031,0,0,1-.455,16.811.515.515,0,0,1-.511.465" transform="translate(-6435.163 -9273.283)" fill="#9c7f41"/>
      <path id="Trazado_124913" data-name="Trazado 124913" d="M32.6,210.64a.508.508,0,0,1-.313-.106,17.663,17.663,0,0,1-6.7-11.412c-.042-.295-.078-.591-.113-.889a9.264,9.264,0,0,0-.64-2.856,9.271,9.271,0,0,0-1.622-2.192l-.134-.151a63.788,63.788,0,0,1-10.783-16.658.514.514,0,0,1,.94-.417,62.79,62.79,0,0,0,10.608,16.39l.135.15a10.211,10.211,0,0,1,1.789,2.444,10.178,10.178,0,0,1,.728,3.171c.036.289.069.577.11.863a16.622,16.622,0,0,0,6.3,10.741.514.514,0,0,1-.313.923" transform="translate(-6433.055 -9273.258)" fill="#9c7f41"/>
      <path id="Trazado_124914" data-name="Trazado 124914" d="M55.561,191.38a.508.508,0,0,1-.336-.125c-2.116-1.834-2.24-4.7-2.358-7.474-.11-2.559-.214-4.974-1.744-6.619-.178-.192-.372-.368-.565-.544a5.945,5.945,0,0,1-2.122-5.232c-.04-.47-.08-.94-.147-1.4-.5-3.393-2.637-6.38-4.526-9.017l-4.33-6.041a.514.514,0,0,1,.836-.6l4.33,6.041c1.957,2.731,4.176,5.826,4.708,9.466.069.476.112.966.154,1.457a6.862,6.862,0,0,0,1.049,3.812,6.782,6.782,0,0,0,.74.747c.215.2.429.392.626.6,1.787,1.922,1.9,4.643,2.017,7.275.115,2.672.224,5.2,2,6.741a.514.514,0,0,1-.336.9" transform="translate(-6434.791 -9271.878)" fill="#9c7f41"/>
      <path id="Trazado_124915" data-name="Trazado 124915" d="M78.274,179.446a.5.5,0,0,1-.217-.049.514.514,0,0,1-.249-.682,21.744,21.744,0,0,0,2.02-9.128.514.514,0,0,1,1.028,0,22.792,22.792,0,0,1-2.115,9.561.513.513,0,0,1-.466.3" transform="translate(-6437.253 -9272.836)" fill="#9c7f41"/>
      <path id="Trazado_124916" data-name="Trazado 124916" d="M138.012,192.575a.489.489,0,0,1-.1-.009.513.513,0,0,1-.409-.6l8.887-46.415a.514.514,0,1,1,1.01.193l-8.886,46.415a.517.517,0,0,1-.5.417" transform="translate(-6441.082 -9271.302)" fill="#003c59"/>
      <path id="Trazado_124917" data-name="Trazado 124917" d="M44.424,85.62a.514.514,0,0,1-.514-.5c-.049-2.308-1.113-3.045-3.045-4.384l-.54-.376a.514.514,0,1,1,.591-.841l.534.372c1.992,1.379,3.429,2.374,3.488,5.207a.514.514,0,0,1-.5.525Z" transform="translate(-6434.84 -9267.09)" fill="#b24e00"/>
      <path id="Trazado_124918" data-name="Trazado 124918" d="M61.294,242.909c1.208,5.389.309,18.163,7.644,24.676,3.98,3.535,14.457,5.764,27.892,5.764s24.1-2.927,33.178-18.244,24.882-47.934,24.882-47.934,12.558,17.431,17.1,21.763,21.84,23.051,21.84,23.051,12.479-27.8,23.542-29.5c-9.927-6.524-31.2-25.811-37.44-34.036s-11.912-17.019-15.883-19-15.033-5.105-20.705,1.134-48.117,57.376-50.591,58.352c-8.278,3.267-15.529-1.341-15.529-1.341Z" transform="translate(-6436.198 -9272.696)" fill="#5c2e27"/>
      <g id="Grupo_88110" data-name="Grupo 88110" transform="translate(-6282.924 -9077.947)" style="mix-blend-mode: multiply;isolation: isolate">
        <g id="Grupo_88109" data-name="Grupo 88109">
          <g id="Grupo_88108" data-name="Grupo 88108" clip-path="url(#clip-path-13)">
            <path id="Trazado_124919" data-name="Trazado 124919" d="M162.288,208.137a.512.512,0,0,1-.4-.195c-1.4-1.768-2.171-9.243-2.311-10.725a.514.514,0,1,1,1.024-.1c.388,4.124,1.208,9.069,2.092,10.183a.514.514,0,0,1-.4.833" transform="translate(-159.573 -196.656)" fill="#5c2e27"/>
          </g>
        </g>
      </g>
      <path id="Trazado_124920" data-name="Trazado 124920" d="M51,228.843s3.1,8.562,7.536,10.146,7.353-1.768,12.953-3.406,14.953-8.321,20.6-13.187,17.781-22.364,21.843-24.488A32.218,32.218,0,0,0,124,189.376c2.121-2.614,1.815-8.973-.6-10.674,1.837-2.553,3.777-3.186.6-6.147,2.553-2.27,6.489-6.433,3.476-7.068-.752-.159-5.928,3.87-13.162,6.856-2.956,1.219-7.517,1.825-9.265,10.061-1.277,6.013-2.107,10.218-9.455,15.5-7.14,5.138-14.367,8.585-16.969,9.152S65.99,211.44,65.99,211.44,50.621,215.258,51,228.843" transform="translate(-6435.538 -9272.605)" fill="#fa9d78"/>
      <path id="Trazado_124921" data-name="Trazado 124921" d="M124.619,176.436a.514.514,0,0,1-.346-.895,15.654,15.654,0,0,1,3.567-2.532.514.514,0,1,1,.489.9,14.58,14.58,0,0,0-3.364,2.389.513.513,0,0,1-.346.134" transform="translate(-6440.224 -9273.084)" fill="#de7752"/>
      <path id="Trazado_124922" data-name="Trazado 124922" d="M125.458,183.335a.509.509,0,0,1-.5-.615c.13-.539.746-1.09,2.125-1.9a.513.513,0,0,1,.52.885c-1.455.855-1.627,1.2-1.646,1.259a.542.542,0,0,1-.5.371" transform="translate(-6440.277 -9273.584)" fill="#de7752"/>
      <path id="Trazado_124923" data-name="Trazado 124923" d="M126.792,190.283a.514.514,0,0,1-.4-.841c.254-.305.626-.816,1-1.327.387-.53.774-1.058,1.035-1.375a.514.514,0,0,1,.793.654c-.253.306-.625.817-1,1.328-.387.529-.774,1.057-1.035,1.374a.513.513,0,0,1-.4.187" transform="translate(-6440.363 -9273.956)" fill="#de7752"/>
      <path id="Trazado_124924" data-name="Trazado 124924" d="M240.346,260.293l.186-.786a10.4,10.4,0,0,0,.352-2.535,21.092,21.092,0,0,0-.275-3.249l-.112-.639a11.762,11.762,0,0,1-.269-2.569,3.98,3.98,0,0,1,1.493-3.14,4.048,4.048,0,0,1,1.345-.6,3.6,3.6,0,0,1,3.434.564,3.384,3.384,0,0,1,.971,2.556c0,2.035-1.145,3.862-2.061,5.328l-1.28,2.046c-.674,1.085-1.6,2.569-2.992,2.859Zm4.017-12.67a4.014,4.014,0,0,0-1.03.144,3.1,3.1,0,0,0-1.013.442,2.969,2.969,0,0,0-1.063,2.348,10.675,10.675,0,0,0,.252,2.344l.114.655a21.776,21.776,0,0,1,.289,3.41,9.656,9.656,0,0,1-.155,1.718,8.412,8.412,0,0,0,1.5-1.956l1.282-2.049c.891-1.427,1.9-3.044,1.9-4.785a2.47,2.47,0,0,0-.639-1.8,2.1,2.1,0,0,0-1.44-.474" transform="translate(-6447.666 -9277.805)" fill="#003c59"/>
      <path id="Trazado_124925" data-name="Trazado 124925" d="M243.765,260.836a5.491,5.491,0,0,1-1.536-.185l-.861-.247.649-.619a4.456,4.456,0,0,1,1.584-.827,5.155,5.155,0,0,0,1.151-.525,17.457,17.457,0,0,0,1.533-1.261c.342-.3.684-.606,1.04-.893a23.993,23.993,0,0,1,6.982-3.581c1.327-.475,3.012-.9,4.258.057a3.527,3.527,0,0,1,1.205,2.818,4.593,4.593,0,0,1-2.282,4.288,6.606,6.606,0,0,1-2.711.517l-10.152.433c-.284.011-.572.024-.86.024m1.579-1.562a4.768,4.768,0,0,1-1.048.522l.285-.012.1,0,10.048-.429a5.716,5.716,0,0,0,2.295-.409,3.654,3.654,0,0,0,1.715-3.348,2.573,2.573,0,0,0-.8-2.022c-.85-.655-2.2-.294-3.284.095a23.068,23.068,0,0,0-6.685,3.414c-.343.275-.671.568-1,.86a19.007,19.007,0,0,1-1.624,1.334" transform="translate(-6447.739 -9278.162)" fill="#003c59"/>
      <path id="Trazado_124926" data-name="Trazado 124926" d="M49.974,231.238a.513.513,0,0,1-.415-.211c-.37-.279-2.409-1.331-3.772-2.034-1.49-.767-2.416-1.249-2.685-1.438a33.272,33.272,0,0,1-6.11-5.461c-4.313-4.985-.622-9.514,3.076-12.9,1.521-1.394,2.977-3.033,4.518-4.767,3.117-3.506,6.339-7.132,10.375-8.953a6.272,6.272,0,0,1,2.373-.411l6.217-.234a.531.531,0,0,1,.5.333c.883,2.347,3.011,4.459,5.068,6.5,2.459,2.44,4.581,4.548,4.288,6.764-.166,1.259-1.105,2.363-2.873,3.374a.513.513,0,1,1-.51-.891c1.47-.841,2.243-1.7,2.365-2.618.226-1.711-1.825-3.745-3.994-5.9-1.944-1.93-4.135-4.1-5.167-6.523l-5.855.221a5.379,5.379,0,0,0-1.989.321c-3.836,1.731-6.984,5.273-10.028,8.7a66.193,66.193,0,0,1-4.593,4.841c-3.563,3.266-6.7,7.182-2.994,11.472a32.373,32.373,0,0,0,5.922,5.293c.226.157,1.416.772,2.567,1.366,4.206,2.168,4.208,2.211,4.227,2.618a.513.513,0,0,1-.487.539h-.026" transform="translate(-6434.516 -9274.486)" fill="#9c7f41"/>
      <path id="Trazado_124927" data-name="Trazado 124927" d="M47.828,97.638a1.527,1.527,0,1,1,1.511,1.75,1.644,1.644,0,0,1-1.511-1.75" transform="translate(-6435.335 -9268.146)" fill="#5c0c00"/>
      <path id="Trazado_124928" data-name="Trazado 124928" d="M61.289,100.884a1.306,1.306,0,1,1,.716,1.861,1.419,1.419,0,0,1-.716-1.861" transform="translate(-6436.191 -9268.396)" fill="#5c0c00"/>
      <path id="Trazado_124929" data-name="Trazado 124929" d="M65.626,98.361a1.017,1.017,0,0,1-.62-.209,5.8,5.8,0,0,0-2.9-1.134,1.028,1.028,0,0,1,.2-2.046,7.765,7.765,0,0,1,3.94,1.541,1.028,1.028,0,0,1-.621,1.847" transform="translate(-6436.19 -9268.086)" fill="#771000"/>
      <path id="Trazado_124930" data-name="Trazado 124930" d="M48.422,94.5a1.028,1.028,0,0,1-.106-2.051,22.87,22.87,0,0,1,4.513-.02,1.028,1.028,0,0,1-.195,2.047,20.746,20.746,0,0,0-4.1.018,1.047,1.047,0,0,1-.108.006" transform="translate(-6435.307 -9267.918)" fill="#771000"/>
      <path id="Trazado_124931" data-name="Trazado 124931" d="M55.548,109.869a.514.514,0,0,1-.04-1.027l2.717-.219.062-.006c0-.012,0-.026,0-.041-.083-.753-.226-1.521-.363-2.263-.125-.677-.25-1.353-.339-2.035-.352-2.739.041-4.784,1.2-6.251a.514.514,0,1,1,.8.638c-.98,1.238-1.3,3.03-.988,5.481.086.664.208,1.322.329,1.979.14.76.286,1.546.374,2.337a1.072,1.072,0,0,1-.171.816,1.094,1.094,0,0,1-.825.369l-2.717.219-.042,0" transform="translate(-6435.797 -9268.271)" fill="#de7752"/>
      <path id="Trazado_124932" data-name="Trazado 124932" d="M53.555,108.539a.523.523,0,0,1-.113-.012.513.513,0,0,1-.387-.615l.331-1.482a.514.514,0,0,1,1,.224l-.334,1.483a.512.512,0,0,1-.5.4" transform="translate(-6435.669 -9268.796)" fill="#de7752"/>
      <path id="Trazado_124933" data-name="Trazado 124933" d="M54.218,115a1.056,1.056,0,0,1-.109-.006,7.1,7.1,0,0,1-4.4-1.836,1.028,1.028,0,0,1,1.522-1.382,5.252,5.252,0,0,0,3.1,1.174A1.028,1.028,0,0,1,54.218,115" transform="translate(-6435.438 -9269.143)" fill="#de7752"/>
      <path id="Trazado_124934" data-name="Trazado 124934" d="M34.276,98.2a1.9,1.9,0,0,1-.69-.129.385.385,0,1,1,.281-.718,1.145,1.145,0,0,0,.864-.019c.078-.092-.028-.268-.091-.372a1.284,1.284,0,0,1-.253-1.07.97.97,0,0,1,.83-.618l.009-1.973a.385.385,0,0,1,.386-.384h0A.385.385,0,0,1,36,93.3l-.01,2.319a.386.386,0,0,1-.372.384c-.454.016-.5.128-.5.129-.026.08.1.29.183.429a1.006,1.006,0,0,1,.117,1.2.931.931,0,0,1-.377.276,1.883,1.883,0,0,1-.766.161" transform="translate(-6434.406 -9267.955)" fill="#de7752"/>
    </g>
  </g>
</svg>
