<svg xmlns="http://www.w3.org/2000/svg" xmlns:xlink="http://www.w3.org/1999/xlink" width="217" height="320.683" viewBox="0 0 217 320.683">
  <defs>
    <clipPath id="clip-path">
      <rect id="Rectángulo_35940" data-name="Rectángulo 35940" width="149.488" height="320.683" fill="none"/>
    </clipPath>
    <clipPath id="clip-path-3">
      <rect id="Rectángulo_35937" data-name="Rectángulo 35937" width="1.891" height="0.718" fill="none"/>
    </clipPath>
    <clipPath id="clip-path-4">
      <rect id="Rectángulo_35938" data-name="Rectángulo 35938" width="2.86" height="15.398" fill="none"/>
    </clipPath>
  </defs>
  <g id="Grupo_157042" data-name="Grupo 157042" transform="translate(5965 10507.183)">
    <path id="Rectángulo_34017" data-name="Rectángulo 34017" d="M0,0H140a77,77,0,0,1,77,77V300.5a0,0,0,0,1,0,0H0a0,0,0,0,1,0,0V0A0,0,0,0,1,0,0Z" transform="translate(-5965 -10495)" fill="#6b8dfc"/>
    <g id="Grupo_80932" data-name="Grupo 80932" transform="translate(-6114.563 -10528.907)">
      <path id="Trazado_114646" data-name="Trazado 114646" d="M274.765,153.931c-1.55,23.991-19.953,46.9-44.875,48.318-28.625,2.193-54.9-13.505-83.415-13.671-14.54-1.247-28.176,4.321-42.345,6.118-32,1.175-36.879-36.434-30.911-60.675C98.39,19.738,276.507,35.287,274.765,153.931Z" transform="translate(84.545 -1.289)" fill="#c4d1ff"/>
    </g>
    <g id="Grupo_88051" data-name="Grupo 88051" transform="translate(-5931 -10507.183)">
      <g id="Grupo_88050" data-name="Grupo 88050" clip-path="url(#clip-path)">
        <rect id="Rectángulo_35911" data-name="Rectángulo 35911" width="149.488" height="320.683" fill="#ffad69"/>
        <path id="Trazado_124501" data-name="Trazado 124501" d="M613.021,1389.948l6.013,3.73v54.616l1.169.5v-54.783l10.233,6.736-.525,57.233,1.486.78.611-57.267,3.9,2.372V1402l-22.882-14Z" transform="translate(-510.633 -1156.173)" fill="#f7974f"/>
        <path id="Trazado_124502" data-name="Trazado 124502" d="M155.367,1715.5,62.4,1718.594l17.608,23.713h96.472l-.5-10.516Z" transform="translate(-51.977 -1428.973)" fill="#f7974f"/>
        <g id="Grupo_88049" data-name="Grupo 88049">
          <g id="Grupo_88048" data-name="Grupo 88048" clip-path="url(#clip-path)">
            <path id="Trazado_124503" data-name="Trazado 124503" d="M161.534,711.733c.044-2.127-2.393-2.172-3.1.842s2.937,7.308,2.881,9.129c-.1,3.1-5.806,3.62-5.806,3.62s-3.989.59-.089,1.078,9-2.039,6.692-7.268c-1.558-3.537-.62-5.274-.576-7.4" transform="translate(-128.035 -591.593)" fill="#6b5a5d"/>
            <path id="Trazado_124504" data-name="Trazado 124504" d="M79.953,689.924c-1.672-1.475-1.644-5.023-2.777-5.729-1.394-.868-5.126-.056-5.82,1.687-.573,1.439-.74,5.84,2.275,5.761s1.85,1.192,2.009,2.482c.118.955,1.06,1.616,1.592,2.76s.356,7.169.356,7.169-1,.677-1.063,1.366.589.5,1.093.5h9.367s1.832-11.214,0-13.105-6.331-2.271-7.032-2.889" transform="translate(-59.159 -569.627)" fill="#6b5a5d"/>
            <path id="Trazado_124505" data-name="Trazado 124505" d="M572.021,505.948l5.846,3.73V564.3l1.336.5V510.013l10.207,6.737-.537,57.233,1.479.779.634-57.267,3.918,2.372V518l-22.882-14Z" transform="translate(-476.481 -419.821)" fill="#f7974f"/>
            <path id="Trazado_124506" data-name="Trazado 124506" d="M205.239,826l-74.146,4.013,16.272,23.713H226.8l-.5-10.516Z" transform="translate(-109.197 -688.04)" fill="#f7974f"/>
            <path id="Trazado_124507" data-name="Trazado 124507" d="M227.5,223.815l56.719-.058L284.945,103H225.912Z" transform="translate(-188.18 -85.797)" fill="#f7974f"/>
            <path id="Trazado_124508" data-name="Trazado 124508" d="M274.513,222.588l50.191,1.169L325.429,103l-11.246,9.52Z" transform="translate(-228.664 -85.797)" fill="#ffcca6"/>
            <path id="Trazado_124509" data-name="Trazado 124509" d="M252.021,242.916h48.938L302.269,126H252.021Z" transform="translate(-209.928 -104.955)" fill="#ffe5cc"/>
            <path id="Trazado_124510" data-name="Trazado 124510" d="M289.788,275.241l37.118.325V166.334L290.37,166Z" transform="translate(-241.387 -138.274)" fill="#6b5a5d"/>
            <path id="Trazado_124511" data-name="Trazado 124511" d="M304.523,211.9l32.4,3.821V177.7l-32.7-.529Z" transform="translate(-253.411 -147.576)" fill="#7f6a6e"/>
            <path id="Trazado_124512" data-name="Trazado 124512" d="M308.644,761.336a19.874,19.874,0,0,1,.306,4.955c-.195.334-5.9,3.09-5.038,3.674s10.341-.223,10.341-.223l-.964-9.576Z" transform="translate(-253.078 -633.202)" fill="#ff7346"/>
            <path id="Trazado_124513" data-name="Trazado 124513" d="M337.784,788.563c-.223.195-6.068,1.489-6.1,1.628s11.385.7,11.385.619.167-5.811.167-5.811h-4.9a20.135,20.135,0,0,1-.557,3.563" transform="translate(-276.288 -653.888)" fill="#ff7346"/>
            <path id="Trazado_124514" data-name="Trazado 124514" d="M303.445,800.3c-1.25-.123-3.424,2.452-3.424,2.452v.529l7.965.28.282-1.338-2.526-.056s-1.047-1.745-2.3-1.868" transform="translate(-249.911 -666.625)" fill="#8ed5dd"/>
            <path id="Trazado_124515" data-name="Trazado 124515" d="M280.54,446.74s-6.028,19.458-6.027,28.477c0,1.782,8.012,24.616,8.012,24.616a36.736,36.736,0,0,0,6.225-1.141c0-2.33.062-5.635.153-9.366-1.81-5.47-4.142-12.249-4.117-15.779.029-4.141,5.143-15.505,5.143-15.505s-.707,18.243-1.026,31.284c1.358,4.106,2.422,7.475,1.974,8.181a4.1,4.1,0,0,1-2.127,1.185,23.545,23.545,0,0,0,.125,3.466c.2.663,7.826,1.1,8.605-.007s7.46-49.119,5.345-54.241-22.284-1.169-22.284-1.169" transform="translate(-228.663 -370.912)" fill="#8ed5dd"/>
            <path id="Trazado_124516" data-name="Trazado 124516" d="M359.753,718.34a4.1,4.1,0,0,0,2.127-1.185c.448-.706-.616-4.075-1.974-8.181-.091,3.731-.151,7.035-.153,9.366" transform="translate(-299.666 -590.56)" fill="#8ed5dd"/>
            <path id="Trazado_124517" data-name="Trazado 124517" d="M339.285,802.13a3.365,3.365,0,0,0-2.839-1.809c-1.865.084-4.092,3.118-4.092,3.118h12.193a6.244,6.244,0,0,0,0-1.03,50.335,50.335,0,0,0-5.261-.279" transform="translate(-276.844 -666.647)" fill="#8ed5dd"/>
            <path id="Trazado_124518" data-name="Trazado 124518" d="M268.106,294.983c-16.6.21-15.677,11.691-15.677,11.691l5.867.668s3.236,16.144,1.844,20.876c-.738,2.51,24.856,3.2,24.89,0,.128-12.352-.639-17.924-.639-17.924l1.117-4.56c-.251-3.246-.312-10.968-17.4-10.752" transform="translate(-210.26 -245.71)" fill="#ffd187"/>
            <rect id="Rectángulo_35912" data-name="Rectángulo 35912" width="0.675" height="60.091" transform="translate(21.895 77.927)" fill="#544548"/>
            <rect id="Rectángulo_35913" data-name="Rectángulo 35913" width="0.675" height="60.091" transform="translate(30.609 77.927)" fill="#544548"/>
            <rect id="Rectángulo_35914" data-name="Rectángulo 35914" width="0.675" height="60.091" transform="translate(39.322 77.927)" fill="#544548"/>
            <rect id="Rectángulo_35915" data-name="Rectángulo 35915" width="0.675" height="60.091" transform="translate(48.035 77.927)" fill="#544548"/>
            <rect id="Rectángulo_35916" data-name="Rectángulo 35916" width="0.675" height="60.091" transform="translate(56.749 77.927)" fill="#544548"/>
            <rect id="Rectángulo_35917" data-name="Rectángulo 35917" width="0.675" height="60.091" transform="translate(65.462 77.927)" fill="#544548"/>
            <path id="Trazado_124519" data-name="Trazado 124519" d="M332.85,356.608c-.595.053-1.008.771-1.025.8l.356.234c0-.005.323-.554.7-.588a.608.608,0,0,1,.51.294.839.839,0,0,1,.061.965,1.721,1.721,0,0,1-1.746.867l-.072.444a1.756,1.756,0,0,0,.329.031,2.2,2.2,0,0,0,1.853-1.119,1.306,1.306,0,0,0-.108-1.481.991.991,0,0,0-.86-.448" transform="translate(-276.245 -297.044)" fill="#fdf5f4"/>
            <rect id="Rectángulo_35918" data-name="Rectángulo 35918" width="0.675" height="60.091" transform="translate(74.176 77.927)" fill="#544548"/>
            <rect id="Rectángulo_35919" data-name="Rectángulo 35919" width="0.675" height="60.091" transform="translate(82.889 77.927)" fill="#544548"/>
            <rect id="Rectángulo_35920" data-name="Rectángulo 35920" width="0.675" height="60.091" transform="translate(91.602 77.927)" fill="#544548"/>
            <rect id="Rectángulo_35921" data-name="Rectángulo 35921" width="80.407" height="7.039" transform="translate(16.803 135.948)" fill="#ffeedb"/>
            <rect id="Rectángulo_35922" data-name="Rectángulo 35922" width="80.407" height="1.98" transform="translate(16.803 77.927)" fill="#544548"/>
            <path id="Trazado_124520" data-name="Trazado 124520" d="M252.827,373.9s.791-9.417.94-12.026c.076-1.335-4.718-1.587-5.992-.932,0,0-2.764,15.555-.668,17.534s16.448-.014,16.448-.014-.592,3.336-.108,3.5c1.134.376,4.092.793,4.927-.056s-.034-4.816-1.28-6.319-14.267-1.684-14.267-1.684" transform="translate(-205.18 -300.366)" fill="#ff7346"/>
            <path id="Trazado_124521" data-name="Trazado 124521" d="M322.7,290c-2.788.205-5.029,2.263-5,4.6s2.3,4.06,5.093,3.855,5.029-2.263,5-4.6-2.3-4.06-5.093-3.855" transform="translate(-264.632 -241.548)" fill="#ffe2ba"/>
            <path id="Trazado_124522" data-name="Trazado 124522" d="M350.879,354.29c-.251.25-1.5,7.9-1.5,7.9s-3.748-6.348-5.752-7.6a5.181,5.181,0,0,0-.912-.456c-1.616-.612-2.947-.1-3.19.477,0,0,.167,3.5.919,4.238s3.424.927,3.424.927,2.527,12.441,6.43,13.029,8.159-17.049,7.093-18.4c-.885-1.123-6.258-.368-6.508-.117" transform="translate(-282.813 -294.715)" fill="#ff7346"/>
            <path id="Trazado_124523" data-name="Trazado 124523" d="M328.841,278.333l-6.714,1.615c-.059.223-1.065,7.992,3.575,7.572,4.916-.445,4.533-3.953,4.372-4.788s-1.233-4.4-1.233-4.4" transform="translate(-268.215 -231.845)" fill="#ff7346"/>
            <path id="Trazado_124524" data-name="Trazado 124524" d="M292.777,351.736s-.619,5.106,3.668,5,3.382-4.985,3.382-4.985a15.866,15.866,0,0,0-7.051-.019" transform="translate(-243.851 -292.668)" fill="#fdf5f4"/>
            <path id="Trazado_124525" data-name="Trazado 124525" d="M370.4,263.992a1.781,1.781,0,0,0-1.49,1.543c-.156.846.259,1.526.926,1.519a1.781,1.781,0,0,0,1.49-1.543c.156-.845-.259-1.526-.926-1.519" transform="translate(-307.265 -219.899)" fill="#ff7346"/>
            <path id="Trazado_124526" data-name="Trazado 124526" d="M288.752,266.558c-.667.012-1.124.7-1.02,1.546a1.589,1.589,0,0,0,1.4,1.5c.667-.012,1.124-.7,1.02-1.546a1.59,1.59,0,0,0-1.4-1.5" transform="translate(-239.662 -222.037)" fill="#ff7346"/>
            <path id="Trazado_124527" data-name="Trazado 124527" d="M300.683,227.3c-2.368,2.6-5.52,13.537,3.763,13.552,9.646.015,5.275-11.8,5.275-11.8-2.054-3.791-6.671-4.357-9.039-1.755" transform="translate(-248.388 -188.003)" fill="#ff7346"/>
            <path id="Trazado_124528" data-name="Trazado 124528" d="M349.343,260.4a.647.647,0,0,0-.625.627.592.592,0,0,0,.238.5c.281-.065.593-.128.89-.22a.643.643,0,0,0,.085-.295.581.581,0,0,0-.587-.611" transform="translate(-290.474 -216.908)" fill="#1e2028"/>
            <path id="Trazado_124529" data-name="Trazado 124529" d="M312.748,260.9a.626.626,0,0,0-.624.588.537.537,0,0,0,.049.241,2.189,2.189,0,0,0,.718.3.615.615,0,0,0,.445-.557.563.563,0,0,0-.589-.571" transform="translate(-259.992 -217.324)" fill="#1e2028"/>
            <path id="Trazado_124530" data-name="Trazado 124530" d="M350.83,251.427a1.219,1.219,0,0,0-.988-.048l.057.228a1,1,0,0,1,.8.025.6.6,0,0,1,.263.359l.234-.053a.818.818,0,0,0-.368-.511" transform="translate(-291.411 -209.328)" fill="#1e2028"/>
            <path id="Trazado_124531" data-name="Trazado 124531" d="M310.637,251.84a1.064,1.064,0,0,0-.625.525l.212.1a.814.814,0,0,1,.461-.393.8.8,0,0,1,.677.221l.153-.188a1.011,1.011,0,0,0-.878-.264" transform="translate(-258.233 -209.758)" fill="#1e2028"/>
            <path id="Trazado_124532" data-name="Trazado 124532" d="M325.084,264.5a.285.285,0,0,1-.067-.247c.078-.642,1.334-1.8,1.494-1.907l-.1-.22c-.06.03-1.461,1.235-1.616,2.048a.551.551,0,0,0,.121.508,2.185,2.185,0,0,0,1.557.445,4.729,4.729,0,0,0,.626-.048l-.024-.248c-.015,0-1.468.222-1.99-.331" transform="translate(-270.533 -218.341)" fill="#ff3a1e"/>
            <path id="Trazado_124533" data-name="Trazado 124533" d="M304.852,221.276c-7.1.073-6.173,7.712-6.173,7.712a7.914,7.914,0,0,0,.219,1.637c0-.014.091-.226.1-.289.047-.273.075-.549.1-.823a12.252,12.252,0,0,1,.239-1.962,2.36,2.36,0,0,1,.755-1.388,1.218,1.218,0,0,0,.477-.482,2.209,2.209,0,0,0,.174-.628,2.784,2.784,0,0,1,.265-1.014,1.605,1.605,0,0,1,.91-.669,8.891,8.891,0,0,1,2.326-.263,14.3,14.3,0,0,1,2.277.077,4.353,4.353,0,0,1,.976.188c1.435.516.956,2.54,1.983,3.435.169.147.365.264.522.424.31.316.2.7.236,1.109.032.387.067.773.11,1.158.04.354.082.709.153,1.056.022.107.053.442.182.486.3.1.265-2.05.265-2.05s1-7.785-6.1-7.712" transform="translate(-248.76 -184.318)" fill="#892412"/>
            <path id="Trazado_124534" data-name="Trazado 124534" d="M308.2,202.108c-.067.26-.28.367-.458.571,0-.448-2.467-1.848-2.957-3.059-1.585.594-2.8,1.52-3.08,2.362a2.615,2.615,0,0,1-.069-1,8.542,8.542,0,0,0-3.293,2.172,1.546,1.546,0,0,0-.439,1.091,3.444,3.444,0,0,1-.265-1.161,3.865,3.865,0,0,1-.273.357,1.573,1.573,0,0,0-.168.487,1.523,1.523,0,0,0,.15.95,4.687,4.687,0,0,0,.926,1.327l5.519-2.419,5.391,2.846a9.94,9.94,0,0,0,.6-.9,1.808,1.808,0,0,0,.233-1.429,6.033,6.033,0,0,0-1.82-2.189" transform="translate(-247.545 -166.279)" fill="#91473d"/>
            <path id="Trazado_124535" data-name="Trazado 124535" d="M309.532,214.087a1.5,1.5,0,0,1,.1.622,1.719,1.719,0,0,1-.144.536,1.5,1.5,0,0,1-.885.774,2.969,2.969,0,0,0-.829-1.464c-.264-.254-.576-.457-.821-.729a1.194,1.194,0,0,1-.349-1.01l-.817.537a1.753,1.753,0,0,0-.449.373.569.569,0,0,0-.11.541,4.576,4.576,0,0,1-.546-.88,1.605,1.605,0,0,1-.111-1.028,6.366,6.366,0,0,0-2.654,1.746,1.189,1.189,0,0,0-.279.632,6.22,6.22,0,0,1-.245-1.294c0,.015-.959.446-1.05.5a6.292,6.292,0,0,0-.992.645,2.287,2.287,0,0,0-.692.87q-.022-.328-.044-.657a1.681,1.681,0,0,0-.584.67c-.1.212-.56-.313-.6-.367a1.218,1.218,0,0,1-.239-.611,1.441,1.441,0,0,0,.138.993,4.691,4.691,0,0,0,.926,1.328,9.248,9.248,0,0,0-.814,4.748,7.915,7.915,0,0,0,.219,1.636c0-.014.091-.226.1-.289.047-.273.075-.549.1-.823a12.25,12.25,0,0,1,.239-1.962,2.36,2.36,0,0,1,.755-1.388,1.219,1.219,0,0,0,.477-.482,2.207,2.207,0,0,0,.174-.628,2.785,2.785,0,0,1,.265-1.014,1.606,1.606,0,0,1,.91-.669,8.9,8.9,0,0,1,2.326-.263,14.316,14.316,0,0,1,2.277.077,4.347,4.347,0,0,1,.976.188c1.434.516.956,2.54,1.983,3.435.169.147.365.264.522.424.31.316.2.7.236,1.109.032.387.067.773.11,1.158.04.354.082.709.153,1.056.022.107.053.442.182.486.3.1.265-2.05.265-2.05a9.719,9.719,0,0,0-.55-4.323,9.4,9.4,0,0,0,.605-.9A1.809,1.809,0,0,0,310,214.91a2.673,2.673,0,0,0-.47-.823" transform="translate(-247.522 -176.891)" fill="#843c35"/>
            <path id="Trazado_124536" data-name="Trazado 124536" d="M331.01,294.4l-.073.229a2.578,2.578,0,0,0,.727.109.867.867,0,0,0,.557-.152l-.15-.178s-.278.211-1.061-.009" transform="translate(-275.663 -245.229)" fill="#ff3a1e"/>
            <path id="Trazado_124537" data-name="Trazado 124537" d="M373.641,268.727l.236-.035c-.146-1.393.587-1.633.618-1.643l-.057-.228c-.039.012-.966.3-.8,1.906" transform="translate(-311.218 -222.256)" fill="#ff3a1e"/>
            <path id="Trazado_124538" data-name="Trazado 124538" d="M377.688,272.7c.053-.009.092-.024.007-.022Z" transform="translate(-314.606 -227.137)" fill="#ff3a1e"/>
            <path id="Trazado_124539" data-name="Trazado 124539" d="M373.967,271.311a.392.392,0,0,0-.163.306l.237.007c.006-.077.031-.118.056-.121.2-.023.307-.031.363-.032l.07-.206a.73.73,0,0,0-.563.046" transform="translate(-311.371 -225.927)" fill="#ff3a1e"/>
            <path id="Trazado_124540" data-name="Trazado 124540" d="M293.1,269.4l-.071.229c.031.009.749.229.517,1.628l.234.029c.269-1.615-.641-1.875-.68-1.886" transform="translate(-244.084 -224.406)" fill="#ff3a1e"/>
            <path id="Trazado_124541" data-name="Trazado 124541" d="M294.092,273.833a.725.725,0,0,0-.561-.03l.063.226a.513.513,0,0,1,.356,0,.131.131,0,0,1,.048.119l.237-.014a.354.354,0,0,0-.144-.3" transform="translate(-244.505 -228.034)" fill="#ff3a1e"/>
            <path id="Trazado_124542" data-name="Trazado 124542" d="M323.213,282.133l-.03.124-.032.124a.343.343,0,0,1,.118.058,3.907,3.907,0,0,1-5.008.329l-.146.191a3.818,3.818,0,0,0,2.385.823,4.9,4.9,0,0,0,2.9-1.153.57.57,0,0,1,.03.157l.258-.021a.645.645,0,0,0-.479-.631" transform="translate(-264.983 -235.011)" fill="#ff3a1e"/>
            <path id="Trazado_124543" data-name="Trazado 124543" d="M323.434,308.183q.028.13.06.257a8.324,8.324,0,0,0,3.215.052,6.851,6.851,0,0,0,3.048-1.375l-.077-.239a7.152,7.152,0,0,1-6.246,1.3" transform="translate(-269.413 -255.623)" fill="#ff3a1e"/>
            <path id="Trazado_124544" data-name="Trazado 124544" d="M304.772,380.856a11.091,11.091,0,0,0,2.881-.01,5.368,5.368,0,0,0,.355-.846h-3.487s.083.772.251.856" transform="translate(-253.659 -316.531)" fill="#fdf5f4"/>
            <path id="Trazado_124545" data-name="Trazado 124545" d="M297.7,353a8.921,8.921,0,0,0-3.184.292,17.485,17.485,0,0,0,6.368,0A8.92,8.92,0,0,0,297.7,353" transform="translate(-245.329 -294.041)" fill="#bcb3b5"/>
            <path id="Trazado_124546" data-name="Trazado 124546" d="M335.193,358.9c.013.833,1.349.373,1.349.373a7.377,7.377,0,0,0,1.2-.188c-.033-.063-1.056-1.336-1.056-1.336-.063,0-1.508.318-1.5,1.151" transform="translate(-279.208 -297.998)" fill="#ff7346"/>
            <path id="Trazado_124547" data-name="Trazado 124547" d="M335.455,353.7a.44.44,0,0,0-.265.77.839.839,0,0,0,.921.084l1.951-.8a11.865,11.865,0,0,0-2.607-.055" transform="translate(-279.082 -294.569)" fill="#ff7346"/>
            <path id="Trazado_124548" data-name="Trazado 124548" d="M335.9,365.74s-1.225,1.046-1,1.609a4.582,4.582,0,0,0,1.511,1.719,9.969,9.969,0,0,0,2.527.527l-2.016-3.185Z" transform="translate(-278.943 -304.653)" fill="#ff7346"/>
            <path id="Trazado_124549" data-name="Trazado 124549" d="M365.529,389.3c0,.023.029.143.073.342.147.012.306.02.466.02a2.3,2.3,0,0,0,.793-.11l-.122-.311a3.15,3.15,0,0,1-1.209.059" transform="translate(-304.478 -324.225)" fill="#ff3a1e"/>
            <path id="Trazado_124550" data-name="Trazado 124550" d="M362.351,389.192l.252.027c-.1-.013-.186-.026-.25-.037Z" transform="translate(-301.83 -324.18)" fill="#ff3a1e"/>
            <path id="Trazado_124551" data-name="Trazado 124551" d="M398.721,400.677c2.358,2.686,2.862,4.411,2.862,5.547h.334c0-1.661-1.081-3.689-3.125-5.97l-.07.423" transform="translate(-332.126 -333.403)" fill="#ff3a1e"/>
            <path id="Trazado_124552" data-name="Trazado 124552" d="M345.566,481.064s-.015-.376-.342-.282.146,1.284.522,1.513a14.449,14.449,0,0,0,4.719-.341,2.4,2.4,0,0,0,.461-.728l-4.909-.726Z" transform="translate(-287.472 -400.246)" fill="#ff7346"/>
            <path id="Trazado_124553" data-name="Trazado 124553" d="M262.223,439.073a13.105,13.105,0,0,1,3.732-1.081c.006-.073.016-.19.029-.344a13.059,13.059,0,0,0-3.911,1.126Z" transform="translate(-218.301 -364.551)" fill="#ff3a1e"/>
            <path id="Trazado_124554" data-name="Trazado 124554" d="M346.787,462.156l.348-.046c.093-.466.192-1.013.192-1.11h-.334c0,.107-.114.7-.206,1.156" transform="translate(-288.866 -384.003)" fill="#ff3a1e"/>
            <path id="Trazado_124555" data-name="Trazado 124555" d="M347.855,513.178l2.935.529-.167,1.522c.249-.573.4-.907.4-.907s-.007.18-.02.514l.154-1.4-3.241-.584Z" transform="translate(-289.756 -427.192)" fill="#57bbc2"/>
            <path id="Trazado_124556" data-name="Trazado 124556" d="M356.96,711.143q.171-.048.336-.1c.05-3.327.111-7.6.124-9.889l-.328-.988c0,1.821-.081,7.618-.132,10.976" transform="translate(-297.34 -583.223)" fill="#57bbc2"/>
            <path id="Trazado_124557" data-name="Trazado 124557" d="M115.847,464.089s-.445,9.369.111,9.918,2.672-.023,2.672-.023-.2-9.563-.612-9.867-2.171-.028-2.171-.028" transform="translate(-96.357 -386.479)" fill="#6b5a5d"/>
            <path id="Trazado_124558" data-name="Trazado 124558" d="M219.847,464.089s-.445,9.369.111,9.918,2.672-.023,2.672-.023-.2-9.563-.612-9.867-2.171-.028-2.171-.028" transform="translate(-182.987 -386.479)" fill="#6b5a5d"/>
            <path id="Trazado_124559" data-name="Trazado 124559" d="M117.777,452.049c-1.559-.424-3.062,4.823-3.062,4.823s1.948-12.081-.835-11.644-3.229,11.285-3.229,11.285.167-10.831-2.486-9.606-.91,12.3-.91,12.3-2.672-10.428-4.12-8.448,1.726,8.131,1.726,8.131,1.392,1.153,1.5,1.32,9.263-.612,9.263-.612,3.709-7.126,2.15-7.551" transform="translate(-85.594 -370.855)" fill="#55bfa4"/>
            <path id="Trazado_124560" data-name="Trazado 124560" d="M219.972,464.076c-.891-.445-2.717,2.4-2.717,2.4s2.272-5.011.657-4.934-1.949,3.462-1.949,3.462.835-8.662-.871-8.384-2.191,8.85-2.191,8.85.39-7.632-1.615-7.022-.612,9.921-.612,9.921h6.581s3.608-3.85,2.717-4.3" transform="translate(-175.096 -380.351)" fill="#55bfa4"/>
            <path id="Trazado_124561" data-name="Trazado 124561" d="M192.225,498.212c-.335.907-.537,1.635-.537,1.635s.236-.654.537-1.635" transform="translate(-159.672 -415)" fill="#60d3b4"/>
            <path id="Trazado_124562" data-name="Trazado 124562" d="M158.758,452.805c-1-.525-2.944,2.722-2.944,2.722s2.164-4.758.55-5.077c-1.023-.2-2,1.9-2.581,3.473-.3.981-.537,1.635-.537,1.635s.2-.728.537-1.635c.866-2.829,2.267-8.384.076-8.858-2.951-.638-4.454,12.325-4.454,12.325s-1.91-7.233-3.426-6.774,1.366,9.951,1.366,9.951l9.409-1.225s3.006-6.013,2-6.538" transform="translate(-121.23 -370.71)" fill="#60d3b4"/>
            <path id="Trazado_124563" data-name="Trazado 124563" d="M102.346,530.355c.724.779,21.455.445,23.1,0S128.29,520,128.29,520l-27.684.319s1.016,9.257,1.74,10.036" transform="translate(-83.803 -433.148)" fill="#7f6a6e"/>
            <path id="Trazado_124564" data-name="Trazado 124564" d="M100.972,523.34H127.8c.315-1.85.494-3.34.494-3.34l-27.684.319s.146,1.329.366,3.021" transform="translate(-83.803 -433.148)" fill="#6b5a5d"/>
            <path id="Trazado_124565" data-name="Trazado 124565" d="M95.8,522.506c.223.144,28.565-.135,28.646-.524s.248-2.009.248-2.009l-29.34.2a9.815,9.815,0,0,0,.445,2.334" transform="translate(-79.428 -433.126)" fill="#7f6a6e"/>
            <path id="Trazado_124566" data-name="Trazado 124566" d="M428.847,464.089s-.445,9.369.111,9.918,2.672-.023,2.672-.023-.2-9.563-.612-9.867-2.171-.028-2.171-.028" transform="translate(-357.079 -386.479)" fill="#6b5a5d"/>
            <path id="Trazado_124567" data-name="Trazado 124567" d="M532.847,464.089s-.445,9.369.111,9.918,2.672-.023,2.672-.023-.2-9.563-.613-9.867-2.171-.028-2.171-.028" transform="translate(-443.709 -386.479)" fill="#6b5a5d"/>
            <path id="Trazado_124568" data-name="Trazado 124568" d="M441.973,526.194s-.051-.21-.143-.563c.087.356.143.563.143.563" transform="translate(-368.035 -437.839)" fill="#55bfa4"/>
            <path id="Trazado_124569" data-name="Trazado 124569" d="M431.719,453.476c-1.559-.424-3.062,4.823-3.062,4.823s.64-11.795-2.144-11.358-1.921,11-1.921,11-.768-9.641-3.421-8.416c-2.27,1.048-.637,8.44-.119,10.551.092.352.143.563.143.563s-.056-.207-.143-.563c-.546-2.093-2.529-9.232-3.768-7.538-1.447,1.98,1.517,7.783,1.517,7.783s1.392,1.153,1.5,1.32,9.263-.612,9.263-.612,3.709-7.126,2.15-7.551" transform="translate(-347.258 -372.282)" fill="#55bfa4"/>
            <path id="Trazado_124570" data-name="Trazado 124570" d="M532.972,464.076c-.891-.445-2.717,2.4-2.717,2.4s2.272-5.011.657-4.934-1.949,3.462-1.949,3.462.835-8.662-.871-8.384-2.191,8.85-2.191,8.85.39-7.632-1.615-7.022-.612,9.921-.612,9.921h6.581s3.608-3.85,2.717-4.3" transform="translate(-435.818 -380.351)" fill="#55bfa4"/>
            <path id="Trazado_124571" data-name="Trazado 124571" d="M505.55,493.268a22.93,22.93,0,0,0-.862,2.461s.406-1.034.862-2.461" transform="translate(-420.394 -410.881)" fill="#60d3b4"/>
            <path id="Trazado_124572" data-name="Trazado 124572" d="M476.463,451.611c-1-.525-2.944,2.722-2.944,2.722s2.164-4.758.55-5.077c-.851-.169-1.671,1.259-2.256,2.647-.456,1.426-.862,2.461-.862,2.461a22.959,22.959,0,0,1,.862-2.461c.968-3.031,2.161-7.837.154-8.271-2.951-.638-4.955,11.827-4.955,11.827s-.753-6.608-2.269-6.148.543,9.228.543,9.228l9.172-.39s3.006-6.013,2-6.538" transform="translate(-386.657 -369.516)" fill="#60d3b4"/>
            <path id="Trazado_124573" data-name="Trazado 124573" d="M412.636,515.145c.485.685,1.015,1.244,1.11,1.187s-.457-.64-1.11-1.187" transform="translate(-343.717 -429.104)" fill="#55bfa4"/>
            <path id="Trazado_124574" data-name="Trazado 124574" d="M402.717,501.9c-.361.348.15,1.34.726,2.154.653.547,1.206,1.128,1.11,1.187s-.625-.5-1.11-1.187c-.752-.63-1.636-1.214-1.815-.9-.334.585,2.38,2.626,2.38,2.626l2.38-.538s-3.007-3.982-3.672-3.34" transform="translate(-334.524 -418.014)" fill="#55bfa4"/>
            <path id="Trazado_124575" data-name="Trazado 124575" d="M547.149,495.848s1.587-4.009.569-4.041-2.2,4.876-2.2,5.084l2.171.538s4.259-4.422,3.48-5.136-4.022,3.554-4.022,3.554" transform="translate(-454.407 -409.664)" fill="#60d3b4"/>
            <path id="Trazado_124576" data-name="Trazado 124576" d="M415.345,530.355c.724.779,21.455.445,23.1,0S441.29,520,441.29,520l-27.684.319s1.016,9.257,1.74,10.036" transform="translate(-344.525 -433.148)" fill="#7f6a6e"/>
            <path id="Trazado_124577" data-name="Trazado 124577" d="M413.972,523.34H440.8c.315-1.85.494-3.34.494-3.34l-27.684.319s.146,1.329.366,3.021" transform="translate(-344.525 -433.148)" fill="#6b5a5d"/>
            <path id="Trazado_124578" data-name="Trazado 124578" d="M408.8,522.506c.223.144,28.565-.135,28.647-.524s.248-2.009.248-2.009l-29.34.2a9.814,9.814,0,0,0,.445,2.334" transform="translate(-340.15 -433.126)" fill="#7f6a6e"/>
            <path id="Trazado_124579" data-name="Trazado 124579" d="M200.886,85l-2.032,1.67,4.517,2.672,58.638-1.169L266.79,86.4l-.6-1.4Z" transform="translate(-165.641 -70.803)" fill="#e28647"/>
            <path id="Trazado_124580" data-name="Trazado 124580" d="M196.2,64.481l67.911-.274.612-5.846-69.089.608Z" transform="translate(-162.963 -48.613)" fill="#ffcca6"/>
            <path id="Trazado_124581" data-name="Trazado 124581" d="M509.705,710.018a22.971,22.971,0,0,1-.063-2.707s.373-.209.423-.428a3.506,3.506,0,0,0-.1-1.45,4.949,4.949,0,0,0-2.578.093,5.356,5.356,0,0,0-.136,1.354c0,.224.464.358.464.358a24.16,24.16,0,0,1-.063,2.78c-.111.223-2.144,1.557-2.2,1.947-.053.371-.119,10.2.139,11.523h6.177c.259-1.322.193-11.151.14-11.523-.056-.39-2.089-1.724-2.2-1.947" transform="translate(-420.987 -587.504)" fill="#60d3b4"/>
            <path id="Trazado_124582" data-name="Trazado 124582" d="M504.414,763.538h6.131v-4.872h-6.137c-.01,1.384-.012,3.2.006,4.872" transform="translate(-420.155 -631.952)" fill="#a85248"/>
            <path id="Trazado_124583" data-name="Trazado 124583" d="M26.77,228.462c-.06-.007-5.248-.261-10.009-.493v7.743c4.928.178,10.209.241,10.566-.122.668-.679-.445-7.115-.557-7.129" transform="translate(-13.962 -189.893)" fill="#ffb985"/>
            <path id="Trazado_124584" data-name="Trazado 124584" d="M53.659,286.506c-.513-.3-13.457-.6-15.044-.075,0,0-1.086,5.62,0,6.5s14.638.293,15.044,0,.513-6.119,0-6.421" transform="translate(-31.763 -238.352)" fill="#ffb985"/>
            <path id="Trazado_124585" data-name="Trazado 124585" d="M29.916,21.4c-.515-.286-8-.65-13.155-.476v7.15c5.227-.013,12.876-.161,13.155-.495.418-.5.752-5.762,0-6.18" transform="translate(-13.962 -17.392)" fill="#ffb985"/>
            <path id="Trazado_124586" data-name="Trazado 124586" d="M109.091,114.435c-.668-.334-9.409-1.086-10.675.251,0,0-.988,4.51,0,5.011s10.759.585,11.093,0,.251-4.927-.418-5.261" transform="translate(-81.612 -94.894)" fill="#ffa25c"/>
            <path id="Trazado_124587" data-name="Trazado 124587" d="M23.569,343.856c-.351-.044-3.626-.313-6.808-.331v8.129c3.208-.006,6.623-.243,6.808-.466.334-.4.668-7.248,0-7.332" transform="translate(-13.962 -286.149)" fill="#ffa25c"/>
            <path id="Trazado_124588" data-name="Trazado 124588" d="M140.328,3.487A11.745,11.745,0,0,0,140.66,0h-19.4l.544,3.487s18.092.648,18.525,0" transform="translate(-101.006)" fill="#ffa25c"/>
            <path id="Trazado_124589" data-name="Trazado 124589" d="M630.721,122.467c-.639-.123-14.7-.369-15.792,0,0,0-1.461,5.047,0,5.621s15.244.575,15.792,0,.639-5.5,0-5.621" transform="translate(-511.682 -101.85)" fill="#ffa25c"/>
            <path id="Trazado_124590" data-name="Trazado 124590" d="M776.766,223.916c-.78-.005-10.912-1.23-12.471.885-.2.269-.668,5.754,0,5.939s12.805.723,13.139.12.111-6.939-.668-6.944" transform="translate(-636.353 -186.219)" fill="#ffb985"/>
            <path id="Trazado_124591" data-name="Trazado 124591" d="M716.594,275.76c-.668-.283-15.032-1.476-16.591-.768-.543.247-.668,6.274.445,6.887s15.477.055,16.146,0,.668-5.836,0-6.119" transform="translate(-582.75 -228.878)" fill="#ffb985"/>
            <path id="Trazado_124592" data-name="Trazado 124592" d="M843,603.992c-.543.247-.668,6.274.445,6.887.54.3,4.2.319,7.906.256v-7.148c-3.78-.233-7.59-.341-8.351,0" transform="translate(-701.867 -502.928)" fill="#ffb985"/>
            <path id="Trazado_124593" data-name="Trazado 124593" d="M776.594,661.76c-.668-.283-15.032-1.476-16.591-.768-.543.247-.668,6.274.445,6.887s15.477.055,16.146,0,.668-5.836,0-6.119" transform="translate(-632.729 -550.408)" fill="#ffb985"/>
            <path id="Trazado_124594" data-name="Trazado 124594" d="M833.171,286.021l10.205-.476v-6.314c-3.753.042-9.787.357-10.355.97Z" transform="translate(-693.888 -232.594)" fill="#ffa25c"/>
            <path id="Trazado_124595" data-name="Trazado 124595" d="M50.119,1125.023c-.243.786-.566,7.024,0,7.02s15.292.159,16.181-.448-1.133-7.208-1.133-7.208-14.806-.149-15.049.637" transform="translate(-41.486 -936.579)" fill="#ffb985"/>
            <path id="Trazado_124596" data-name="Trazado 124596" d="M263.69,1124.757l56.719.058L322,1004H262.966Z" transform="translate(-219.045 -836.31)" fill="#f7974f"/>
            <path id="Trazado_124597" data-name="Trazado 124597" d="M341.906,1029.2l-22.885,69.374v26.2l48.081.049L368.691,1004Z" transform="translate(-265.737 -836.309)" fill="#ffcca6"/>
            <path id="Trazado_124598" data-name="Trazado 124598" d="M290.762,1144.916H339.82V1028H289.451Z" transform="translate(-241.106 -856.301)" fill="#ffe5cc"/>
            <path id="Trazado_124599" data-name="Trazado 124599" d="M331.021,1067.334v109.233l37.057-.325L367.526,1067Z" transform="translate(-275.733 -888.787)" fill="#6b5a5d"/>
            <path id="Trazado_124600" data-name="Trazado 124600" d="M342.714,1134.577l32.389-3.821.179-52.59-32.677.529Z" transform="translate(-285.383 -898.089)" fill="#7f6a6e"/>
            <rect id="Rectángulo_35923" data-name="Rectángulo 35923" width="0.675" height="60.091" transform="translate(102.081 228.414)" fill="#544548"/>
            <path id="Trazado_124601" data-name="Trazado 124601" d="M373.243,1300.081c-.963-.856-3.761-8.179-3.97-8.563s-1.879-.265-2.046.027a101.333,101.333,0,0,0,2.38,10.314c.292.644,7.391,2.773,7.808,2.648s-.4-3.779-.4-3.779Z" transform="translate(-305.884 -1075.604)" fill="#ff7346"/>
            <path id="Trazado_124602" data-name="Trazado 124602" d="M516.379,1346.828a21.412,21.412,0,0,0-8.617,2.08l3.067,1.873s9.765-.015,10.517-.6-.6-3.3-4.967-3.353" transform="translate(-422.954 -1121.876)" fill="#ff7346"/>
            <path id="Trazado_124603" data-name="Trazado 124603" d="M514.933,1346.663a19.432,19.432,0,0,0-6.288,1.963l2.92,1.851s1.5.1,3.311.178a13.14,13.14,0,0,1,.136-3.836Z" transform="translate(-423.69 -1121.74)" fill="#55bfa4"/>
            <path id="Trazado_124604" data-name="Trazado 124604" d="M423.946,1346.956a13.155,13.155,0,0,1,.136,3.836c1.807-.076,3.311-.178,3.311-.178l3.067-1.873a20.715,20.715,0,0,0-6.337-1.914Z" transform="translate(-353.138 -1121.877)" fill="#55bfa4"/>
            <rect id="Rectángulo_35924" data-name="Rectángulo 35924" width="0.675" height="60.091" transform="translate(93.368 228.414)" fill="#544548"/>
            <rect id="Rectángulo_35925" data-name="Rectángulo 35925" width="10.124" height="2.229" transform="translate(76.974 210.131)" fill="#1e2028"/>
            <path id="Trazado_124605" data-name="Trazado 124605" d="M437.38,1668.793l3.429.137.724-6.209-3.765-.137Z" transform="translate(-364.328 -1384.896)" fill="#ff7346"/>
            <path id="Trazado_124606" data-name="Trazado 124606" d="M447.608,1252.337s-4.917,14.573,4.083,15.24c9.118.676,7.345-12.312,6.426-14.69s-7.345-3.919-10.509-.55" transform="translate(-371.731 -1041.546)" fill="#ff7346"/>
            <path id="Trazado_124607" data-name="Trazado 124607" d="M522.652,1308.429c0-.006,0,0,0,.006a.01.01,0,0,0,0-.006" transform="translate(-435.355 -1089.89)" fill="#ffc36e"/>
            <path id="Trazado_124608" data-name="Trazado 124608" d="M456.535,1239.318a.534.534,0,0,0-.426.271c-.112.008-.193-.111-.218-.22a1,1,0,0,0-.081-.325.463.463,0,0,0-.144-.133,1.378,1.378,0,0,0-.8-.221,1.165,1.165,0,0,1-.283,0c-.342-.069-.211-.51-.383-.73a1.713,1.713,0,0,0-.583-.433,2.05,2.05,0,0,0-1.837-.221,2.758,2.758,0,0,0-1.928-.6,3.782,3.782,0,0,1-1.1-.007,8.754,8.754,0,0,1-1.315-.732,2.265,2.265,0,0,0-1.919.116,4.646,4.646,0,0,0-1.483,1.3,2.268,2.268,0,0,1-.315.348c-.131.108-.287.181-.427.276a2.05,2.05,0,0,0-.8,1.82,9.56,9.56,0,0,0,.935,2.27,1.057,1.057,0,0,1,.006.355c-.048.5-.154,3.128-.256,3.58s-.2.885-.306,1.327l.06.519s.346.957.522.942c.111-.01.242-.505.271-.584.158-.428,1-5.356,2.22-6,.955-.5,2.916-.058,3.991.028a14.3,14.3,0,0,1,2.922.2,1.11,1.11,0,0,1,.547.306,1.041,1.041,0,0,1,.173.314,7.68,7.68,0,0,1,.157,1.491,4.392,4.392,0,0,0,.014.818.594.594,0,0,0,.109.258c.234.292.813.2.934.559a.647.647,0,0,1,.017.247,9.588,9.588,0,0,0,.026,1.691c.015.127.055.952.273.952.347.021.731-1.053.771-1.154a1.149,1.149,0,0,1-.016-.248c.007-.29.025-.581.041-.87.027-.479.045-.959.088-1.438a2.951,2.951,0,0,0-.013-1,.557.557,0,0,1-.013-.123c0-.283.2-1.215.208-1.5a1.415,1.415,0,0,1,.014-.483c.084-.208.338-.28.506-.429a.665.665,0,0,0,.146-.779.4.4,0,0,1-.067-.175.262.262,0,0,1,.058-.146c.167-.237.441-.38.613-.614a.38.38,0,0,0,.08-.176.343.343,0,0,0-.076-.236,1.461,1.461,0,0,0-.909-.408" transform="translate(-368.581 -1029.395)" fill="#ffcca6"/>
            <path id="Trazado_124609" data-name="Trazado 124609" d="M456.77,1254.751a.188.188,0,0,1,.019-.08,2.307,2.307,0,0,1-.789.057,1.544,1.544,0,0,1-.74.34,1.722,1.722,0,0,1-1.122-.156,1.655,1.655,0,0,1-1.346-.08,2.767,2.767,0,0,1-3.174-.875,6.327,6.327,0,0,1-3.18-.481,1.479,1.479,0,0,1-.231.155,2.859,2.859,0,0,1-1.6.237,2.08,2.08,0,0,1-1.831-1.438,2.253,2.253,0,0,0-.285,1.246,9.56,9.56,0,0,0,.935,2.27,1.051,1.051,0,0,1,.006.355c-.049.5-.155,3.128-.256,3.58s-.2.885-.306,1.327l.06.519s.346.956.522.941c.111-.01.242-.505.271-.584.158-.428,1-5.356,2.22-6,.954-.5,2.915-.058,3.991.028a14.3,14.3,0,0,1,2.922.2,1.114,1.114,0,0,1,.547.306,1.04,1.04,0,0,1,.173.314,7.681,7.681,0,0,1,.157,1.491,4.4,4.4,0,0,0,.014.818.6.6,0,0,0,.109.257c.234.293.813.2.934.559a.646.646,0,0,1,.017.247,9.576,9.576,0,0,0,.026,1.691c.014.127.055.952.273.952.347.021.731-1.053.77-1.154a1.164,1.164,0,0,1-.016-.248c.006-.29.025-.58.041-.87.027-.479.045-.959.088-1.438a2.952,2.952,0,0,0-.013-1,.546.546,0,0,1-.013-.123c0-.282.2-1.215.208-1.5a1.414,1.414,0,0,1,.014-.484c.084-.208.338-.28.506-.429a.665.665,0,0,0,.146-.779.4.4,0,0,1-.067-.175" transform="translate(-368.581 -1043.248)" fill="#f4b990"/>
            <path id="Trazado_124610" data-name="Trazado 124610" d="M437.743,1306.5s-.241-1.5-1.222-1.069-.651,3.353,1.106,2.949.115-1.879.115-1.879" transform="translate(-363.159 -1087.328)" fill="#ff7346"/>
            <path id="Trazado_124611" data-name="Trazado 124611" d="M515.339,1308.676s-1.934,1.529-.2,1.884,2.647-1.941,1.781-2.778-1.522.808-1.578.894" transform="translate(-428.497 -1089.156)" fill="#ff7346"/>
            <path id="Trazado_124612" data-name="Trazado 124612" d="M462.294,1298.718a.649.649,0,0,0-.616.635.577.577,0,0,0,.555.634.648.648,0,0,0,.616-.634.577.577,0,0,0-.555-.635" transform="translate(-384.567 -1081.803)" fill="#1e2028"/>
            <path id="Trazado_124613" data-name="Trazado 124613" d="M495.586,1300.963a.619.619,0,0,0-.588.606.551.551,0,0,0,.529.605.619.619,0,0,0,.588-.605.551.551,0,0,0-.529-.606" transform="translate(-412.322 -1083.673)" fill="#1e2028"/>
            <path id="Trazado_124614" data-name="Trazado 124614" d="M470.847,1304.739c-.186-.4.818-1.263,1.59-1.752l-.2-.248c-.213.135-2.072,1.34-1.708,2.116.184.393.7.5,1.192.5a5.122,5.122,0,0,0,1.068-.128l-.089-.295c-.411.1-1.635.269-1.851-.19" transform="translate(-391.899 -1085.153)" fill="#ff451d"/>
            <path id="Trazado_124615" data-name="Trazado 124615" d="M463.173,1288.778l.228.26c.008-.007.773-.666,1.31-.259l.209-.276c-.759-.575-1.707.24-1.747.274" transform="translate(-385.813 -1073.124)" fill="#f4b990"/>
            <path id="Trazado_124616" data-name="Trazado 124616" d="M494.127,1289.981l.1.332a1,1,0,0,1,1.174.61l.313-.149a1.34,1.34,0,0,0-1.585-.793" transform="translate(-411.597 -1074.488)" fill="#f4b990"/>
            <path id="Trazado_124617" data-name="Trazado 124617" d="M519.017,1312.765l.309.03c.063-.654.994-1.255,1-1.26l-.167-.262c-.044.028-1.068.688-1.146,1.493" transform="translate(-432.33 -1092.26)" fill="#ff451d"/>
            <path id="Trazado_124618" data-name="Trazado 124618" d="M520.731,1315.157l.239.2c.15-.181.447.02.46.029l.177-.255a.653.653,0,0,0-.876.029" transform="translate(-433.757 -1095.341)" fill="#ff451d"/>
            <path id="Trazado_124619" data-name="Trazado 124619" d="M438.851,1308.008l.052.306c.373-.065.69.9.786,1.384l.3-.061c-.036-.18-.375-1.762-1.142-1.628" transform="translate(-365.553 -1089.535)" fill="#ff451d"/>
            <path id="Trazado_124620" data-name="Trazado 124620" d="M438.914,1313.216l.186.249c.221-.166.545.131.548.134l.212-.227a.758.758,0,0,0-.947-.155" transform="translate(-365.606 -1093.785)" fill="#ff451d"/>
            <path id="Trazado_124621" data-name="Trazado 124621" d="M475.139,1321.775a1.426,1.426,0,0,0,1.586,1.145c1.392-.078,1.586-1.9,1.586-1.9a3.649,3.649,0,0,1-3.171.757" transform="translate(-395.78 -1100.379)" fill="#ff451d"/>
            <path id="Trazado_124622" data-name="Trazado 124622" d="M476.64,1323.668a4.294,4.294,0,0,1-.088.5,1.423,1.423,0,0,0,1.35.594,1.576,1.576,0,0,0,1.351-1.06q-.111-.233-.209-.472a3.758,3.758,0,0,1-2.4.439" transform="translate(-396.957 -1102.22)" fill="#fff"/>
            <path id="Trazado_124623" data-name="Trazado 124623" d="M443.175,1356.228c-7.676.5-8.167,1.387-8.167,1.387l.306,12.845s-.452,13.749-.374,14.245,16.1.358,16.1.358l-.563-14.721.563-12.472s-.58-2.113-7.863-1.642" transform="translate(-362.287 -1129.651)" fill="#55bfa4"/>
            <path id="Trazado_124624" data-name="Trazado 124624" d="M507.286,1664.8l.692,5.571,3.078-.086-.1-5.8Z" transform="translate(-422.558 -1386.484)" fill="#ff7346"/>
            <path id="Trazado_124625" data-name="Trazado 124625" d="M437.38,1686.217l3.429.137.243-2.079a19.248,19.248,0,0,1-3.5-.773Z" transform="translate(-364.328 -1402.319)" fill="#ffcca6"/>
            <path id="Trazado_124626" data-name="Trazado 124626" d="M509.593,1683.293l.307,2.47,3.078-.086-.045-2.709c-1.114.078-2.225.224-3.34.325" transform="translate(-424.48 -1401.875)" fill="#ffcca6"/>
            <path id="Trazado_124627" data-name="Trazado 124627" d="M428.974,1487l-.8,29.888,7.844.7,1.364-20.037,2.5,20.185h7.141L445.662,1487Z" transform="translate(-356.659 -1238.638)" fill="#8ed5dd"/>
            <path id="Trazado_124628" data-name="Trazado 124628" d="M450.13,1413H439.716l-.3,7.429-2.271,5.462,15.576.334-2.575-6.586Z" transform="translate(-364.135 -1176.998)" fill="#8ed5dd"/>
            <path id="Trazado_124629" data-name="Trazado 124629" d="M471.543,1341.1l-.386,3.514c.325.567,1.1.764,2.457.7,1.139-.054,1.818-.493,1.993-.986l-.229-3.226Z" transform="translate(-392.463 -1117.107)" fill="#ff7346"/>
            <path id="Trazado_124630" data-name="Trazado 124630" d="M472.9,1351.82l-.034.31a10.778,10.778,0,0,0,1.665.128,8.562,8.562,0,0,0,2.322-.3l-.023-.318a9.665,9.665,0,0,1-3.931.179" transform="translate(-393.889 -1125.887)" fill="#ff451d"/>
            <path id="Trazado_124631" data-name="Trazado 124631" d="M462.021,1517v.334h2.8l.586,7.672.148-2.127-.446-5.879Z" transform="translate(-384.853 -1263.627)" fill="#acf8fc"/>
            <path id="Trazado_124632" data-name="Trazado 124632" d="M436.542,1516.632l-.31-.016-1.156,22.322-6.4-.422.012.311,6.727.442h0l1.237.083v-.309l-1.262-.083Z" transform="translate(-357.073 -1263.308)" fill="#acf8fc"/>
            <path id="Trazado_124633" data-name="Trazado 124633" d="M450.618,1522.681l-.93.013-1.555-25.361h1.354l-.014-.334h-16.8l-.008.334h15.156l1.556,25.359-6.135.16.038.309,6.115-.077.178,2.976h.311l-.178-2.984.924-.065Z" transform="translate(-360.402 -1246.967)" fill="#acf8fc"/>
            <path id="Trazado_124634" data-name="Trazado 124634" d="M452.172,1418.992l-.012.311,10.479.123v-.311Z" transform="translate(-376.639 -1181.989)" fill="#acf8fc"/>
            <path id="Trazado_124635" data-name="Trazado 124635" d="M439.433,1482.161l-.075.183,0,.129,14.677-.3-.119-.308Z" transform="translate(-365.976 -1234.357)" fill="#acf8fc"/>
            <path id="Trazado_124636" data-name="Trazado 124636" d="M470.995,1432h-5.172l-.031.122c-.033.124-.8,3.047.347,4.5a2.17,2.17,0,0,0,1.8.789l.093,0a2.676,2.676,0,0,0,2.056-.927c1.273-1.488.934-4.221.918-4.336Zm-1.137,4.155a2.44,2.44,0,0,1-1.828.892,1.926,1.926,0,0,1-1.646-.719,3.8,3.8,0,0,1-.548-2.491h4.87a4.241,4.241,0,0,1-.848,2.318m.874-2.652H465.86a10.19,10.19,0,0,1,.183-1.169H470.7a6.63,6.63,0,0,1,.034,1.169" transform="translate(-387.761 -1192.824)" fill="#acf8fc"/>
            <path id="Trazado_124637" data-name="Trazado 124637" d="M452.487,1402.911l-1.928.213a.41.41,0,0,0-.363.455l.083.734a.411.411,0,0,0,.408.365h.465a.1.1,0,0,1,.1.076l.14.545h.625l.1-.686a.1.1,0,0,1,.1-.086l.317,0a.413.413,0,0,0,.408-.411v-.793a.411.411,0,0,0-.456-.409m.146,1.2a.1.1,0,0,1-.1.1l-.317,0a.41.41,0,0,0-.4.35l-.064.422h-.117l-.08-.312a.411.411,0,0,0-.4-.309h-.465a.1.1,0,0,1-.1-.089l-.083-.734a.1.1,0,0,1,.089-.111l1.927-.213a.1.1,0,0,1,.078.025.1.1,0,0,1,.034.075Z" transform="translate(-375.001 -1168.592)" fill="#cdd7d8"/>
            <path id="Trazado_124638" data-name="Trazado 124638" d="M500.384,1403.206l-1.932-.171a.411.411,0,0,0-.447.418l.017.793a.413.413,0,0,0,.416.4l.317,0a.1.1,0,0,1,.1.083l.118.683.625-.013.128-.548a.1.1,0,0,1,.1-.078l.465-.01a.411.411,0,0,0,.4-.373l.068-.735a.411.411,0,0,0-.373-.447m0,1.154a.1.1,0,0,1-.1.092l-.465.01a.411.411,0,0,0-.392.318l-.073.313-.117,0-.073-.42a.41.41,0,0,0-.41-.341l-.317,0a.1.1,0,0,1-.1-.1l-.017-.793a.1.1,0,0,1,.032-.076.1.1,0,0,1,.078-.027l1.932.172a.1.1,0,0,1,.091.109Z" transform="translate(-414.827 -1168.695)" fill="#cdd7d8"/>
            <path id="Trazado_124639" data-name="Trazado 124639" d="M456.617,1412.8a.5.5,0,1,0,.577.491.539.539,0,0,0-.577-.491" transform="translate(-379.871 -1176.83)" fill="#e4f6f8"/>
            <path id="Trazado_124640" data-name="Trazado 124640" d="M502.2,1413.177a.505.505,0,1,0,.614.493.564.564,0,0,0-.614-.493" transform="translate(-417.813 -1177.145)" fill="#e4f6f8"/>
            <path id="Trazado_124641" data-name="Trazado 124641" d="M451.74,1362.337l1.6-.175v-8.1l-1.942-.7Z" transform="translate(-376.001 -1127.319)" fill="#8ed5dd"/>
            <path id="Trazado_124642" data-name="Trazado 124642" d="M500.8,1363.543l1.768.152.7-8.7a9.349,9.349,0,0,1-1.731.2Z" transform="translate(-417.155 -1128.677)" fill="#8ed5dd"/>
            <path id="Trazado_124643" data-name="Trazado 124643" d="M507.479,1363.9l.309.032.77-8.64c-.1.017-.192.032-.289.047Z" transform="translate(-422.719 -1128.931)" fill="#acf8fc"/>
            <path id="Trazado_124644" data-name="Trazado 124644" d="M457.794,1355.816l-.282-.1a62.227,62.227,0,0,0,.312,8.469l.309-.034a58.635,58.635,0,0,1-.339-8.335" transform="translate(-381.049 -1129.281)" fill="#acf8fc"/>
            <path id="Trazado_124645" data-name="Trazado 124645" d="M470.4,1356.314a3.838,3.838,0,0,1-.462,1.239,3.394,3.394,0,0,1-2.471,1.12,3.163,3.163,0,0,1-2.538-.626,2.8,2.8,0,0,1-.641-1.442c-.1.028-.292.012-.392.042a3.429,3.429,0,0,0,.819,1.624,3.124,3.124,0,0,0,2.207.74q.276,0,.575-.028a3.684,3.684,0,0,0,2.687-1.238,4.48,4.48,0,0,0,.541-1.411c-.1-.027-.223.006-.324-.019" transform="translate(-386.411 -1129.779)" fill="#73e0c1"/>
            <path id="Trazado_124646" data-name="Trazado 124646" d="M475.624,1249.755c-.436,0-.79.225-.79.5s.354.5.79.5.79-.225.79-.5-.354-.5-.79-.5" transform="translate(-395.526 -1041.018)" fill="#f4b990"/>
            <path id="Trazado_124647" data-name="Trazado 124647" d="M484.351,1255.427a.231.231,0,1,0,.287.224.261.261,0,0,0-.287-.224" transform="translate(-403.214 -1045.743)" fill="#f4b990"/>
            <path id="Trazado_124648" data-name="Trazado 124648" d="M414.469,1688.605c-.695.272-1.76.533-1.864.229s-.817-1.7-1.387-1.625-3.349,2.54-4.439,2.742c-.891.165-1.412,1.575-.446,2.069.707.362,1.7.263,5.893.336,3.015.053,2.986.134,3.015.053.181-.5-.077-4.076-.772-3.8" transform="translate(-338.035 -1405.406)" fill="#8ed5dd"/>
            <path id="Trazado_124649" data-name="Trazado 124649" d="M414.662,1711.049s.079.2-4.345.106-5.137-.767-5.137-.767c-1.411,2.047,9.367,1.931,9.658,1.365s-.176-.7-.176-.7" transform="translate(-337.4 -1424.716)" fill="#fff"/>
            <path id="Trazado_124650" data-name="Trazado 124650" d="M420.852,1693.6s-1.33.485-1.468,1.028c0,0,.794,1.145,1.007.854.124-.17-.016-.463-.156-.679.227.28.592.638.8.346a.52.52,0,0,0-.037-.618c.261.249.636.524.794.233.252-.467-.936-1.165-.936-1.165" transform="translate(-349.338 -1410.735)" fill="#ffe8e1"/>
            <path id="Trazado_124651" data-name="Trazado 124651" d="M510.312,1688.7c-.194-.039-.4.484-.4.484s-.3-1.474-1.581-1.26a1.47,1.47,0,0,0-1.378,1.165s-.291-.526-.524-.431a19.561,19.561,0,0,0-.5,3.534c.446,1.106,4.851.6,5.064.327a11.406,11.406,0,0,0-.679-3.82" transform="translate(-421.426 -1405.988)" fill="#8ed5dd"/>
            <path id="Trazado_124652" data-name="Trazado 124652" d="M514.785,1698.532s.582.154.587-.053-.471-.336-.471-.336.337.026.453-.122-.336-.486-1.074-.512a2.772,2.772,0,0,0-1.384.375c-.22.362.168.323.168.323s-.414.116-.4.324.466.154.466.154-.3.259-.233.453a4.62,4.62,0,0,0,2.476-.141c.044-.257-.587-.466-.587-.466" transform="translate(-427.037 -1413.986)" fill="#ffe8e1"/>
            <path id="Trazado_124653" data-name="Trazado 124653" d="M507.279,1705.14a2.994,2.994,0,0,0-2.747,1.893c1.746,1.164,5.589.5,5.491,0a2.511,2.511,0,0,0-2.745-1.893" transform="translate(-420.264 -1420.341)" fill="#8ed5dd"/>
            <path id="Trazado_124654" data-name="Trazado 124654" d="M508.562,1714.394s.4.6-2.514.773-2.716-.824-2.716-.824-2.058,1.432,2.69,1.354,2.54-1.3,2.54-1.3" transform="translate(-418.895 -1428.01)" fill="#fff"/>
            <rect id="Rectángulo_35926" data-name="Rectángulo 35926" width="0.675" height="60.091" transform="translate(84.655 228.414)" fill="#544548"/>
            <rect id="Rectángulo_35927" data-name="Rectángulo 35927" width="0.675" height="60.091" transform="translate(75.941 228.414)" fill="#544548"/>
            <rect id="Rectángulo_35928" data-name="Rectángulo 35928" width="0.675" height="60.091" transform="translate(67.228 228.414)" fill="#544548"/>
            <path id="Trazado_124655" data-name="Trazado 124655" d="M210.082,1607.083a9.312,9.312,0,1,0,9.311,9.312,9.312,9.312,0,0,0-9.311-9.312" transform="translate(-167.237 -1338.664)" fill="#fff1dc"/>
            <path id="Trazado_124656" data-name="Trazado 124656" d="M235.153,1633.915c.052,0,4.06,3.305,4.216,3.617s-1.509,4.606-1.509,4.606l-4.945.364-1.77-4.893Z" transform="translate(-192.539 -1361.015)" fill="#847276"/>
            <path id="Trazado_124657" data-name="Trazado 124657" d="M203.71,1657.62l2.433-3.028-1.572-4.5-3.484-1.661a9.31,9.31,0,0,0,2.623,9.192" transform="translate(-167.238 -1373.104)" fill="#847276"/>
            <path id="Trazado_124658" data-name="Trazado 124658" d="M277.021,1664.967l3.237,2.843a9.279,9.279,0,0,0,2.65-6.5c0-.1,0-.2-.008-.306h-4.544Z" transform="translate(-230.752 -1383.576)" fill="#847276"/>
            <path id="Trazado_124659" data-name="Trazado 124659" d="M211.72,1611.627c.7.626,2.759,2.485,2.759,2.485l3.552-2.163-.515-3.936a9.306,9.306,0,0,0-5.8,3.615" transform="translate(-176.358 -1339.438)" fill="#847276"/>
            <path id="Trazado_124660" data-name="Trazado 124660" d="M264.259,1612.949c.063.083,2.881,2.9,2.944,2.882s2.645-1.7,3.839-2.425a9.327,9.327,0,0,0-5.622-4.351c-.3.982-1.213,3.825-1.161,3.894" transform="translate(-220.12 -1340.307)" fill="#847276"/>
            <path id="Trazado_124661" data-name="Trazado 124661" d="M238.021,1693.033c-.8-1.121-2.741-3.408-2.741-3.408l-4.766.143-2.15,3.418a9.3,9.3,0,0,0,9.657-.153" transform="translate(-190.222 -1407.42)" fill="#847276"/>
            <rect id="Rectángulo_35929" data-name="Rectángulo 35929" width="0.675" height="60.091" transform="translate(58.514 228.414)" fill="#544548"/>
            <rect id="Rectángulo_35930" data-name="Rectángulo 35930" width="0.675" height="60.091" transform="translate(49.801 228.414)" fill="#544548"/>
            <rect id="Rectángulo_35931" data-name="Rectángulo 35931" width="0.675" height="60.091" transform="translate(41.088 228.414)" fill="#544548"/>
            <rect id="Rectángulo_35932" data-name="Rectángulo 35932" width="0.675" height="60.091" transform="translate(32.374 228.414)" fill="#544548"/>
            <rect id="Rectángulo_35933" data-name="Rectángulo 35933" width="0.675" height="60.091" transform="translate(23.902 228.414)" fill="#544548"/>
            <rect id="Rectángulo_35934" data-name="Rectángulo 35934" width="0.675" height="60.091" transform="translate(15.429 228.414)" fill="#544548"/>
            <rect id="Rectángulo_35935" data-name="Rectángulo 35935" width="97.777" height="7.039" transform="translate(10.071 286.435)" fill="#ffeedb"/>
            <rect id="Rectángulo_35936" data-name="Rectángulo 35936" width="97.777" height="1.98" transform="translate(10.071 228.414)" fill="#544548"/>
            <path id="Trazado_124662" data-name="Trazado 124662" d="M195.247,1360.21s1.743-11.079-.91-12.3-2.486,9.606-2.486,9.606-.445-10.847-3.229-11.285-.835,11.644-.835,11.644-1.5-5.247-3.062-4.823,2.15,7.551,2.15,7.551,9.151.779,9.263.612,1.5-1.32,1.5-1.32,3.173-6.151,1.726-8.131-4.12,8.448-4.12,8.448" transform="translate(-153.553 -1121.368)" fill="#55bfa4"/>
            <path id="Trazado_124663" data-name="Trazado 124663" d="M118.613,1359.449c-2-.609-1.615,7.022-1.615,7.022s-.485-8.572-2.191-8.85-.871,8.384-.871,8.384-.334-3.385-1.949-3.462.657,4.934.657,4.934-1.826-2.847-2.717-2.4,2.717,4.295,2.717,4.295h6.58s1.392-9.312-.612-9.921" transform="translate(-91.449 -1130.863)" fill="#55bfa4"/>
            <path id="Trazado_124664" data-name="Trazado 124664" d="M184.956,1400.847s-.2-.729-.537-1.635c.3.981.537,1.635.537,1.635" transform="translate(-153.617 -1165.512)" fill="#60d3b4"/>
            <path id="Trazado_124665" data-name="Trazado 124665" d="M166.391,1351.616c-1.516-.459-3.426,6.774-3.426,6.774s-1.5-12.963-4.454-12.325c-2.191.474-.791,6.029.076,8.858.335.906.537,1.635.537,1.635s-.236-.654-.537-1.635c-.58-1.57-1.558-3.676-2.581-3.473-1.614.32.55,5.077.55,5.077s-1.942-3.247-2.944-2.722,2,6.538,2,6.538l9.409,1.225s2.882-9.492,1.366-9.952" transform="translate(-127.785 -1121.223)" fill="#60d3b4"/>
            <path id="Trazado_124666" data-name="Trazado 124666" d="M115.805,1431.355c1.65.446,22.381.78,23.1,0s1.74-10.036,1.74-10.036L112.966,1421s1.189,9.91,2.839,10.355" transform="translate(-94.098 -1183.661)" fill="#7f6a6e"/>
            <path id="Trazado_124667" data-name="Trazado 124667" d="M113.459,1424.34h26.823c.22-1.693.366-3.021.366-3.021L112.965,1421s.179,1.49.494,3.34" transform="translate(-94.097 -1183.661)" fill="#6b5a5d"/>
            <path id="Trazado_124668" data-name="Trazado 124668" d="M108.547,1422.982c.081.39,28.424.668,28.647.524a9.812,9.812,0,0,0,.445-2.334l-29.34-.2s.167,1.619.248,2.009" transform="translate(-90.211 -1183.639)" fill="#7f6a6e"/>
            <path id="Trazado_124669" data-name="Trazado 124669" d="M237.317,986l-.6,1.4,4.781,1.777,58.638,1.169,4.517-2.672L302.623,986Z" transform="translate(-197.182 -821.316)" fill="#e28647"/>
            <path id="Trazado_124670" data-name="Trazado 124670" d="M233.644,965.206l67.911.274.565-5.512-69.089-.608Z" transform="translate(-194.11 -799.126)" fill="#ffcca6"/>
            <path id="Trazado_124671" data-name="Trazado 124671" d="M301.983,961.3l.137-1.336-69.089-.608.2,1.944Z" transform="translate(-194.11 -799.126)" fill="#eab18b"/>
            <path id="Trazado_124672" data-name="Trazado 124672" d="M26.922,1068.7l-10.162.494v7.7c5.06-.137,10.635-.449,10.942-.593.557-.261-.779-7.6-.779-7.6" transform="translate(-13.961 -890.202)" fill="#ffb985"/>
            <path id="Trazado_124673" data-name="Trazado 124673" d="M17.072,957.435c-.668.334-.752,4.677-.418,5.261s10.1.5,11.093,0,0-5.011,0-5.011c-1.267-1.336-10.007-.585-10.675-.25" transform="translate(-13.714 -797.094)" fill="#ffa25c"/>
            <path id="Trazado_124674" data-name="Trazado 124674" d="M845.1,1125.315c-.3.786-.708,7.024,0,7.02.306,0,3.917.028,8.009.013v-7.622c-4.12.075-7.874.24-8.009.59" transform="translate(-703.625 -936.872)" fill="#ffb985"/>
            <path id="Trazado_124675" data-name="Trazado 124675" d="M787.1,1069.675c-.111.014-1.225,6.449-.557,7.129.572.582,13.805.068,17.941-.256v-7.724c-2.711.131-17.283.838-17.384.851" transform="translate(-655 -890.307)" fill="#ffb985"/>
            <path id="Trazado_124676" data-name="Trazado 124676" d="M746.182,1130.851c-.668.084-.334,6.931,0,7.333s11.19.851,12.36-.1.623-6.651.623-6.651c-1.086-1.564-12.314-.668-12.983-.584" transform="translate(-621.232 -941.697)" fill="#ffb985"/>
            <path id="Trazado_124677" data-name="Trazado 124677" d="M772.182,1370.851c-.668.084-.334,6.931,0,7.332s11.191.851,12.36-.1.623-6.651.623-6.651c-1.086-1.564-12.314-.668-12.983-.583" transform="translate(-642.889 -1141.612)" fill="#ffa25c"/>
            <path id="Trazado_124678" data-name="Trazado 124678" d="M827.182,1794.851c-.668.084-.334,6.931,0,7.333.277.333,7.782.7,11.009.274v-7.733c-3.548-.5-10.488.061-11.009.126" transform="translate(-688.703 -1494.795)" fill="#ffa25c"/>
            <path id="Trazado_124679" data-name="Trazado 124679" d="M394.119,1790.023c-.243.786-.566,7.024,0,7.02s15.292.159,16.181-.448-1.133-7.209-1.133-7.209-14.806-.148-15.049.637" transform="translate(-328.031 -1490.51)" fill="#ed8a48"/>
            <path id="Trazado_124680" data-name="Trazado 124680" d="M23.781,1832.385s-3.433-.034-7.02.018v7.641c3.844-.036,7.71-.148,8.152-.45.89-.608-1.133-7.209-1.133-7.209" transform="translate(-13.962 -1526.327)" fill="#ffb985"/>
            <path id="Trazado_124681" data-name="Trazado 124681" d="M77.122,672.285c-.532.222-.647,2.46-.647,2.46l-2.455.642s-.921-2.29-1.241-1.98-.142,3.191-.142,3.191l2.89-.148,3.25-1.241s-1.123-3.147-1.655-2.925" transform="translate(-60.463 -559.989)" fill="#6b5a5d"/>
            <path id="Trazado_124682" data-name="Trazado 124682" d="M76.441,687.425c-.5-.751.525-3.494.525-3.494a6.454,6.454,0,0,0-2.534.711,14.27,14.27,0,0,1-.44,3.17c-.2.292-.482.523-.673.82a1.245,1.245,0,0,0-.161,1,.853.853,0,0,0,.112.279.833.833,0,0,0,.347.272,1.509,1.509,0,0,0,.987.1.932.932,0,0,0,1.126.606c.9-.167.586-1.107.586-1.107s1.467-.368,1.475-1c.015-1.155-1.067-.938-1.35-1.361" transform="translate(-60.905 -569.7)" fill="#7c6b6f"/>
            <path id="Trazado_124683" data-name="Trazado 124683" d="M79.7,709.876c-1.6.3-.473.883,0,.676s1.6-.975,0-.676" transform="translate(-65.696 -591.254)" fill="#544548"/>
            <path id="Trazado_124684" data-name="Trazado 124684" d="M74.443,701.757a.522.522,0,0,0-.544.408c-.087.273.016.533.23.581a.522.522,0,0,0,.544-.408c.087-.273-.016-.533-.23-.581" transform="translate(-61.53 -584.542)" fill="#544548"/>
            <path id="Trazado_124685" data-name="Trazado 124685" d="M93.637,698.175a.633.633,0,0,0-.662.418.416.416,0,0,0,.279.6.634.634,0,0,0,.662-.419.416.416,0,0,0-.28-.6" transform="translate(-77.415 -581.558)" fill="#544548"/>
            <path id="Trazado_124686" data-name="Trazado 124686" d="M81.083,719.356l.261.292.82-.731,1.08.355v-.585l-1.3-.062Z" transform="translate(-67.541 -598.599)" fill="#6b5a5d"/>
            <path id="Trazado_124687" data-name="Trazado 124687" d="M99.548,678.754a1.405,1.405,0,0,0,.851-.23c.251-.25-.522-1.44-.647-1.545s-.2,1.775-.2,1.775" transform="translate(-82.921 -563.905)" fill="#5e4d51"/>
            <path id="Trazado_124688" data-name="Trazado 124688" d="M91.562,722.853a2.087,2.087,0,0,1,.932.249,3.1,3.1,0,0,0,2.45-1.68l-.306-.134c-.6,1.366-2.344,1.55-3.076,1.565" transform="translate(-76.269 -600.817)" fill="#5e4d51"/>
            <path id="Trazado_124689" data-name="Trazado 124689" d="M167.437,801.023q.168.008.337.009l.211-1.294c-.124.024-.242.045-.349.063Z" transform="translate(-139.471 -666.164)" fill="#544548"/>
            <path id="Trazado_124690" data-name="Trazado 124690" d="M110.086,802.36c0,.2-.008.314-.008.314l-.052.037a7.085,7.085,0,0,1,1.174-.144c.006-.109.013-.218.02-.326a5.422,5.422,0,0,0-1.134.119" transform="translate(-91.649 -668.247)" fill="#5e4d51"/>
            <path id="Trazado_124691" data-name="Trazado 124691" d="M111.965,758.216l-.111.315a4.049,4.049,0,0,0,1.239.2,2.875,2.875,0,0,0,1.58-.432l-.182-.28a3.231,3.231,0,0,1-2.526.2" transform="translate(-93.172 -631.409)" fill="#5e4d51"/>
            <path id="Trazado_124692" data-name="Trazado 124692" d="M139.593,767.78c-3.089-1.1-2.663-4.877-2.337-6.451a.729.729,0,0,0,.023-.139l-.333-.016c0,.014-.008.043-.017.087-.333,1.608-.756,5.4,2.25,6.715-.489.341-1.445,1.08-1.515,1.694a.582.582,0,0,0,.051.314h.292l.062-.062a.242.242,0,0,1-.073-.214c.06-.528,1.2-1.355,1.63-1.629l.29-.184Z" transform="translate(-113.865 -634.041)" fill="#5e4d51"/>
            <path id="Trazado_124693" data-name="Trazado 124693" d="M152.745,800.434a2.865,2.865,0,0,1,.038.33,4.541,4.541,0,0,1,1.706.166l.111-.315a5,5,0,0,0-1.855-.181" transform="translate(-127.233 -666.732)" fill="#5e4d51"/>
            <path id="Trazado_124694" data-name="Trazado 124694" d="M73.688,682.287a6.168,6.168,0,0,0-.067,1.87c.109.014.418-.487.418-.487a6.842,6.842,0,0,0-.35-1.383" transform="translate(-61.283 -568.328)" fill="#5e4d51"/>
            <path id="Trazado_124695" data-name="Trazado 124695" d="M509.531,1349.545c-2.276.417-8.266,2.213-8.266,2.213s-2.607.233-2.862.661-.355,2.282,0,2.533a8.278,8.278,0,0,0,3.843.042.66.66,0,0,0,.314-.515c-.556-.291,0-1.49,0-1.49s11.2.753,11.127-1.106c-.042-1.107-1.88-2.756-4.156-2.338" transform="translate(-414.966 -1124.085)" fill="#ff7346"/>
            <path id="Trazado_124696" data-name="Trazado 124696" d="M509.531,1349.545c-2.276.417-8.266,2.213-8.266,2.213s-2.607.233-2.862.661-.355,2.282,0,2.533a8.278,8.278,0,0,0,3.843.042.66.66,0,0,0,.314-.515c-.556-.291,0-1.49,0-1.49s11.2.753,11.127-1.106c-.042-1.107-1.88-2.756-4.156-2.338" transform="translate(-414.966 -1124.085)" fill="#ff7346"/>
            <path id="Trazado_124697" data-name="Trazado 124697" d="M545.809,1348.335c-.012.068.005.139-.01.21-.011.047-.019.1-.028.152l3.74-.867-.076-.326Z" transform="translate(-454.615 -1122.441)" fill="#ff451d"/>
            <path id="Trazado_124698" data-name="Trazado 124698" d="M524.7,1367.047l.342.021.18-.624-.321-.092Z" transform="translate(-437.059 -1138.14)" fill="#ff451d"/>
            <path id="Trazado_124699" data-name="Trazado 124699" d="M500.59,1377.975a2.811,2.811,0,0,0,.153.8c.113.022.249.043.4.063a2.04,2.04,0,0,1-.221-.876Z" transform="translate(-416.98 -1147.813)" fill="#ff451d"/>
            <path id="Trazado_124700" data-name="Trazado 124700" d="M505.827,1378.023a1.675,1.675,0,0,0,.192.92c.121.01.245.018.372.024a3.05,3.05,0,0,1-.257-.812Z" transform="translate(-421.325 -1147.862)" fill="#ff451d"/>
            <path id="Trazado_124701" data-name="Trazado 124701" d="M512.944,1379.539a1.459,1.459,0,0,0,.292.7c.137,0,.271-.01.4-.02a1.716,1.716,0,0,1-.357-.67Z" transform="translate(-427.271 -1149.125)" fill="#ff451d"/>
            <path id="Trazado_124702" data-name="Trazado 124702" d="M115.045,1267.313l.087-1.176-3.652-1.268-7.709,5.2,11.409.569.5-.974,5.823-1.042-4.863-1.96Z" transform="translate(-86.439 -1053.608)" fill="#fff1dc"/>
            <path id="Trazado_124703" data-name="Trazado 124703" d="M103.771,1293.487l3.239.114,8.538-.262.132-.257.548-.1-12.269.376Z" transform="translate(-86.439 -1077.027)" fill="#ffcca6"/>
            <path id="Trazado_124704" data-name="Trazado 124704" d="M104.79,1275.262l-1.019.687,1.052.037,10.232-2.932.026-.355L104,1275.874l11.114-3.672.014-.184-.255-.089Z" transform="translate(-86.439 -1059.489)" fill="#ffcca6"/>
            <path id="Trazado_124705" data-name="Trazado 124705" d="M351.043,1266.567c-.418-.229-3.372-.96-3.424-.751-.125.5,1.944,1.289,1.944,1.289s-1.714.7-1.61,1.226.125,2.432.48,2.328.376-.749.376-.749,1.712,1.427,2.317,1.37,2,0,2,0,.042-1.623,0-1.853a13.792,13.792,0,0,0-2.088-2.86" transform="translate(-289.554 -1054.365)" fill="#ff7346"/>
            <path id="Trazado_124706" data-name="Trazado 124706" d="M373.042,1268c-.355-.021-.292,2.025-.292,2.025l1.107,2.338.227-.233a12.6,12.6,0,0,0,.128-2.543c-.146-.459-.814-1.566-1.169-1.587" transform="translate(-310.489 -1056.215)" fill="#ff7346"/>
            <path id="Trazado_124707" data-name="Trazado 124707" d="M353.4,1281.015l.228,1.587c0-.012,0-.02,0-.02s.072.059.187.151l-.25-1.741Z" transform="translate(-294.375 -1067.037)" fill="#ff451d"/>
            <path id="Trazado_124708" data-name="Trazado 124708" d="M358.211,1277.949a5.6,5.6,0,0,1,.09,2.015.75.75,0,0,1-.555.108l-.093-.018-.006.094a.523.523,0,0,1-.1.244l.134.1a.7.7,0,0,0,.117-.246.835.835,0,0,0,.614-.158c.245-.218.034-1.713-.036-2.165Z" transform="translate(-297.828 -1064.482)" fill="#ff451d"/>
            <path id="Trazado_124709" data-name="Trazado 124709" d="M357.393,1278.6l-.05.02a20.124,20.124,0,0,1,.134,2.03h.167a14.328,14.328,0,0,0-.171-2.13Z" transform="translate(-297.659 -1064.98)" fill="#ff451d"/>
            <path id="Trazado_124710" data-name="Trazado 124710" d="M356.7,1272.638s-.049.02-.128.055c.312.077.662.158.928.219l.037-.163c-.5-.115-1.043-.245-1.355-.329.295.132.518.217.518.217" transform="translate(-296.692 -1059.898)" fill="#ff451d"/>
            <path id="Trazado_124711" data-name="Trazado 124711" d="M372.472,1274.059l-.061-.08c.122.375.294.916.419,1.306l.169-.051c-.259-.806-.417-1.253-.512-1.5-.007.11-.012.22-.015.327" transform="translate(-310.21 -1060.99)" fill="#ff451d"/>
            <path id="Trazado_124712" data-name="Trazado 124712" d="M368.065,1298.911c.011.057.022.117.034.177a3.049,3.049,0,0,0,.513.049,1.613,1.613,0,0,0,.406-.047l-.043-.162a2.206,2.206,0,0,1-.911-.018" transform="translate(-306.59 -1081.964)" fill="#ff451d"/>
            <path id="Trazado_124713" data-name="Trazado 124713" d="M402.951,1343.659a.954.954,0,0,1-.068-.068c.194.424.482,1.075.684,1.534l.306-.134c-.186-.424-.393-.891-.564-1.27Z" transform="translate(-335.593 -1119.181)" fill="#ff451d"/>
            <g id="Grupo_88044" data-name="Grupo 88044" transform="translate(86.535 118.158)" opacity="0.56">
              <g id="Grupo_88043" data-name="Grupo 88043">
                <g id="Grupo_88042" data-name="Grupo 88042" clip-path="url(#clip-path-3)">
                  <path id="Trazado_124714" data-name="Trazado 124714" d="M518.216,707.506s-.251.433,0,.522,1.754.239,1.775,0a.683.683,0,0,0-.1-.522,5.366,5.366,0,0,0-1.67,0" transform="translate(-518.104 -707.44)" fill="#fff5ee"/>
                </g>
              </g>
            </g>
            <g id="Grupo_88047" data-name="Grupo 88047" transform="translate(84.937 119.832)" opacity="0.56">
              <g id="Grupo_88046" data-name="Grupo 88046">
                <g id="Grupo_88045" data-name="Grupo 88045" clip-path="url(#clip-path-4)">
                  <path id="Trazado_124715" data-name="Trazado 124715" d="M510.662,717.486c0,.063.063,2.61,0,2.672a29.015,29.015,0,0,0-2.109,2.13c0,.146-.083,10.376.1,10.5a2.923,2.923,0,0,0,1.211,0c.021-.042-.325-10.251-.256-10.355s1.655-1.9,1.676-2.025.23-2.86,0-2.923a1.944,1.944,0,0,0-.626,0" transform="translate(-508.535 -717.458)" fill="#fff5ee"/>
                </g>
              </g>
            </g>
          </g>
        </g>
      </g>
    </g>
  </g>
</svg>
