<svg xmlns="http://www.w3.org/2000/svg" xmlns:xlink="http://www.w3.org/1999/xlink" width="244.721" height="268.417" viewBox="0 0 244.721 268.417">
  <defs>
    <clipPath id="clip-path">
      <rect id="Rectángulo_35965" data-name="Rectángulo 35965" width="244.721" height="232.834" fill="none"/>
    </clipPath>
  </defs>
  <g id="Grupo_88069" data-name="Grupo 88069" transform="translate(5983.292 9869)">
    <g id="Grupo_88066" data-name="Grupo 88066">
      <path id="Rectángulo_34017" data-name="Rectángulo 34017" d="M0,0H140a77,77,0,0,1,77,77V266a0,0,0,0,1,0,0H0a0,0,0,0,1,0,0V0A0,0,0,0,1,0,0Z" transform="translate(-5965 -9869)" fill="#6b8dfc"/>
      <g id="Grupo_80932" data-name="Grupo 80932" transform="translate(-6114.563 -9902.907)">
        <path id="Trazado_114646" data-name="Trazado 114646" d="M274.765,153.931c-1.55,23.991-19.953,46.9-44.875,48.318-28.625,2.193-54.9-13.505-83.415-13.671-14.54-1.247-28.176,4.321-42.345,6.118-32,1.175-36.879-36.434-30.911-60.675C98.39,19.738,276.507,35.287,274.765,153.931Z" transform="translate(84.545 -1.289)" fill="#c4d1ff"/>
      </g>
    </g>
    <g id="Grupo_88068" data-name="Grupo 88068" transform="translate(-5983.292 -9833.417)">
      <g id="Grupo_88067" data-name="Grupo 88067" clip-path="url(#clip-path)">
        <path id="Trazado_124851" data-name="Trazado 124851" d="M173.855,144.024c-.7,9.763-2.556,35.1-2.789,39.282s6.863,5.346,7.5,1.858,7.376-37.421,7.376-37.421Z" transform="translate(-138.554 22.121)" fill="#39473e"/>
        <path id="Trazado_124852" data-name="Trazado 124852" d="M139.178,153.293s-10.629,47.225-12.024,51.872,4.207,5.3,5.859,2.285c1.977-3.619,22.424-52.763,22.424-52.763Z" transform="translate(-57.145 23.545)" fill="#39473e"/>
        <path id="Trazado_124853" data-name="Trazado 124853" d="M103.274,151.479c-.724,4.754-4.311,22.951-5.133,27.719-.437,2.53,6.419,3.483,7.223.574,1.448-5.245,8.835-28.293,8.835-28.293Z" transform="translate(17.332 23.266)" fill="#39473e"/>
        <path id="Trazado_124854" data-name="Trazado 124854" d="M35.178,151.85s18.943,41.374,21.268,46.023,8.833,3.719,7.9-1.628-11.854-47.184-11.854-47.184Z" transform="translate(139.701 22.895)" fill="#39473e"/>
        <path id="Trazado_124855" data-name="Trazado 124855" d="M244.62,94c-.763,12.467-9.158,37.522-17.936,55.076s-14.5,25.189-23.276,25.571-125.562,6.865-132.046,5.722S21.747,166.25,19.461,163.2,9.154,125.413,4.575,97.176-.621,31.29.459,15.736A9.1,9.1,0,0,1,3.095,9.855c4.611-4.712,14.328-5.8,22.089-5.8h135.1c20.221,0,23.658.382,25.182,9.158s2.674,32.823,3.817,41.219a18.246,18.246,0,0,0,14.887,15.643c7.246,1.149,15.642,2.292,26.713,3.055,5.95.406,9.7,2.8,11.762,6.872h.006c1.779,3.5,2.319,8.231,1.969,14" transform="translate(0 0.623)" fill="#e07346"/>
        <path id="Trazado_124856" data-name="Trazado 124856" d="M158.193,36.355a3.982,3.982,0,1,0-3.982,3.982,3.986,3.986,0,0,0,3.982-3.982m-.643,0a3.339,3.339,0,1,1-3.34-3.34,3.343,3.343,0,0,1,3.34,3.34" transform="translate(-86.776 4.972)" fill="#aa5b5b"/>
        <path id="Trazado_124857" data-name="Trazado 124857" d="M128.472,36.355a3.982,3.982,0,1,0-3.982,3.982,3.986,3.986,0,0,0,3.982-3.982m-.643,0a3.34,3.34,0,1,1-3.34-3.34,3.344,3.344,0,0,1,3.34,3.34" transform="translate(-22.769 4.972)" fill="#aa5b5b"/>
        <path id="Trazado_124858" data-name="Trazado 124858" d="M98.751,36.355a3.982,3.982,0,1,0-3.982,3.982,3.986,3.986,0,0,0,3.982-3.982m-.643,0a3.34,3.34,0,1,1-3.34-3.34,3.344,3.344,0,0,1,3.34,3.34" transform="translate(41.238 4.972)" fill="#aa5b5b"/>
        <path id="Trazado_124859" data-name="Trazado 124859" d="M157.187,63.592a3.982,3.982,0,1,0-3.982,3.982,3.987,3.987,0,0,0,3.982-3.982m-.643,0a3.34,3.34,0,1,1-3.34-3.34,3.344,3.344,0,0,1,3.34,3.34" transform="translate(-84.609 9.156)" fill="#aa5b5b"/>
        <path id="Trazado_124860" data-name="Trazado 124860" d="M127.466,63.592a3.982,3.982,0,1,0-3.982,3.982,3.987,3.987,0,0,0,3.982-3.982m-.643,0a3.34,3.34,0,1,1-3.34-3.34,3.343,3.343,0,0,1,3.34,3.34" transform="translate(-20.602 9.156)" fill="#aa5b5b"/>
        <path id="Trazado_124861" data-name="Trazado 124861" d="M97.745,63.592a3.982,3.982,0,1,0-3.982,3.982,3.987,3.987,0,0,0,3.982-3.982m-.643,0a3.339,3.339,0,1,1-3.34-3.34,3.343,3.343,0,0,1,3.34,3.34" transform="translate(43.405 9.156)" fill="#aa5b5b"/>
        <path id="Trazado_124862" data-name="Trazado 124862" d="M60.955,114.755c2.4-.128,5.736-.3,9.741-.5,18.17-.915,48.582-2.444,69.066-4.152,22.906-1.909,33.806-3.108,34.795-5.845a1.744,1.744,0,0,0-.663-1.848C159.3,88.069,122.6,88.322,90.223,88.546c-36.265.25-56.315,8.345-60.981,11.442l-.262.174,4.769,7.541.072.04c.135.074,12.981,7.057,25.439,7.057.566,0,1.133-.014,1.7-.045m-31.094-14.4c6.971-4.433,28.487-10.944,60.366-11.164,32.252-.223,68.808-.474,83.216,13.684.688.676.554,1.049.509,1.171-.888,2.458-14.753,3.8-34.244,5.423-20.473,1.706-50.877,3.236-69.044,4.149-4.006.2-7.344.369-9.742.5-12.3.658-25.62-6.308-26.719-6.9Z" transform="translate(36.656 13.591)" fill="#aa5b5b"/>
        <path id="Trazado_124863" data-name="Trazado 124863" d="M204.609,83.963c-.763,12.467-9.158,37.522-17.936,55.076s-14.5,25.189-23.276,25.571c-7.354.317-90.592,4.928-121.154,5.734-.076,0-.145.007-.221.007-9.153.2-13.1-5.665-21.626-17.657C11.79,140.607-1.687,108.3.174,89.7,1.819,73.235,16.978,70.809,24.765,75.8a33.573,33.573,0,0,1,2.6,2.274l.006.006c7.539,7.31,10.575,16.907,13.9,25.475,5.341,13.737,7.5,37.529,24.674,38.678s81.014-4.586,88.673-5.1c6.955-.463,11.153-4.662,13.059-17.255S173.324,87.633,182.089,78c6.236-6.865,12.308-9.939,20.545-8.034h.006c1.779,3.5,2.319,8.231,1.969,14" transform="translate(40.011 10.661)" fill="#f27e55"/>
        <path id="Trazado_124864" data-name="Trazado 124864" d="M223.059,179.615a97.976,97.976,0,0,1-10.67-.017c-6.491-1.144-49.615-14.119-51.9-17.175S150.18,124.641,145.6,96.4s-5.195-65.885-4.116-81.439a9.113,9.113,0,0,1,2.636-5.881c6.441,6.033,2.243,30.461,8.352,43.434s12.594,19.461,36.252,24.8A41.655,41.655,0,0,1,205.8,85.06c-7.787-4.984-22.947-2.558-24.592,13.91-1.861,18.595,11.617,50.9,20.222,62.99,8.53,11.992,12.474,17.854,21.625,17.656" transform="translate(-141.026 1.395)" fill="#bf5f3d"/>
        <path id="Trazado_124865" data-name="Trazado 124865" d="M46.144,94.152l-.618-.178A65.491,65.491,0,0,1,60.742,67.266C67.284,60.414,74.336,56.417,80.09,56.3l.013.643c-5.585.114-12.471,4.04-18.9,10.769A64.827,64.827,0,0,0,46.144,94.152" transform="translate(112.1 8.647)" fill="#aa5b5b"/>
        <rect id="Rectángulo_35963" data-name="Rectángulo 35963" width="108.822" height="105.915" transform="translate(87.956 0.742)" fill="#f7f7f7"/>
        <path id="Trazado_124866" data-name="Trazado 124866" d="M40.918,107.4H151.223V0H40.918Zm108.822-1.485H42.4V1.484H149.74Z" transform="translate(46.295)" fill="#dfc9ad"/>
        <rect id="Rectángulo_35964" data-name="Rectángulo 35964" width="92.644" height="92.644" transform="translate(96.043 7.377)" fill="#f4f4f4"/>
        <path id="Trazado_124867" data-name="Trazado 124867" d="M64.241,35.177A18.226,18.226,0,1,0,82.467,16.951,18.226,18.226,0,0,0,64.241,35.177" transform="translate(69.921 2.604)" fill="#e07346"/>
        <path id="Trazado_124868" data-name="Trazado 124868" d="M48.573,70.9s5.8-6.456,17.532-7.189,22.38,10.781,35.211,10.27c11.493-.459,17.841-14.667,27.036-14.36,5.867.195,10.518,4.164,12.865,8.448V90.864H48.573Z" transform="translate(47.47 9.157)" fill="#416076"/>
      </g>
    </g>
  </g>
</svg>
