<svg xmlns="http://www.w3.org/2000/svg" xmlns:xlink="http://www.w3.org/1999/xlink" width="608.98" height="469" viewBox="0 0 608.98 469">
  <defs>
    <clipPath id="clip-path">
      <rect id="Rectángulo_34785" data-name="Rectángulo 34785" width="608.98" height="380.69" fill="none"/>
    </clipPath>
  </defs>
  <g id="Grupo_157040" data-name="Grupo 157040" transform="translate(-466.51 -1003)">
    <g id="Grupo_87474" data-name="Grupo 87474" transform="translate(466.51 1022)">
      <g id="Grupo_87539" data-name="Grupo 87539">
        <g id="Grupo_87538" data-name="Grupo 87538" clip-path="url(#clip-path)">
          <path id="Trazado_122224" data-name="Trazado 122224" d="M589.09,358.653A234.79,234.79,0,0,0,623.513,235.9C623.513,105.614,517.9,0,387.616,0s-235.9,105.615-235.9,235.9a234.79,234.79,0,0,0,34.423,122.756Z" transform="translate(-71.063 0)" fill="#c4d1ff"/>
          <path id="Trazado_122225" data-name="Trazado 122225" d="M848.118,300.8l.327.009-.327-.152v-.066h-.143l-32.466-15.07H798.32v.17L782.6,292.907l-15.91-7.385H733.232V290.3l-23.327,10.73V485.712h-.044v6.336h81.906v-.561c.007,0,.007.561.007.561h56.235v-.561h.11Z" transform="translate(-332.488 -133.734)" fill="#c5d4f9"/>
          <path id="Trazado_122226" data-name="Trazado 122226" d="M374.84,507.013h-4.258l-1.326-74.584v-.81H373.6v-5.344h1.382V422.73H373.6V415.8h1.382v-3.544H373.6V401.547h.975v2h5.345V401.1c0-.017,0-3.4,0-3.4v-1.752l4.708,1.907,3.3-4.521-83.391-35.056L221.58,392.6l3.429,4.646,3.944-1.574v7.865h5.331v-2h1.26v10.723h-1.669V415.8h1.669v6.93h-1.669v3.544h1.669v5.344h4.58v1.373l-1.315,74.021h-18.2v2.849h1.464v16.706H387.935V509.862H389.7v-2.849Z" transform="translate(-103.33 -167.811)" fill="#c5d4f9"/>
          <path id="Trazado_122227" data-name="Trazado 122227" d="M323.056,505.093,419,409.152h-5.274l-90.667,90.667Z" transform="translate(-151.314 -191.64)" fill="#aabfe8"/>
          <path id="Trazado_122228" data-name="Trazado 122228" d="M541.586,377.652l-5.29,5.29v5.274l10.563-10.563Z" transform="translate(-251.193 -176.886)" fill="#aabfe8"/>
          <path id="Trazado_122229" data-name="Trazado 122229" d="M323.056,516.331,430.236,409.152h-5.274L323.056,511.057Z" transform="translate(-151.314 -191.64)" fill="#aabfe8"/>
          <path id="Trazado_122230" data-name="Trazado 122230" d="M329.523,377.652l-6.088,6.088v5.3l11.492-11.387Z" transform="translate(-151.492 -176.886)" fill="#aabfe8"/>
          <path id="Trazado_122231" data-name="Trazado 122231" d="M479.406,377.652,333.457,523.6h5.274l145.95-145.95Z" transform="translate(-156.186 -176.886)" fill="#aabfe8"/>
          <path id="Trazado_122232" data-name="Trazado 122232" d="M323.056,471.389l62.236-62.236h-5.274l-56.963,56.963Z" transform="translate(-151.314 -191.64)" fill="#aabfe8"/>
          <path id="Trazado_122233" data-name="Trazado 122233" d="M363.061,377.652l-40,40v5.274l45.278-45.278Z" transform="translate(-151.315 -176.886)" fill="#aabfe8"/>
          <path id="Trazado_122234" data-name="Trazado 122234" d="M352,377.652l-28.564,28.564v5.274l33.838-33.838Z" transform="translate(-151.492 -176.886)" fill="#aabfe8"/>
          <path id="Trazado_122235" data-name="Trazado 122235" d="M323.056,493.86l84.708-84.708H402.49l-79.434,79.434Z" transform="translate(-151.314 -191.64)" fill="#aabfe8"/>
          <path id="Trazado_122236" data-name="Trazado 122236" d="M452.946,377.652,436.418,394.18v.218H436.2L323.056,507.542v5.274L458.22,377.652Z" transform="translate(-151.314 -176.886)" fill="#aabfe8"/>
          <path id="Trazado_122237" data-name="Trazado 122237" d="M340.762,377.652l-17.326,17.326v5.274l22.6-22.6Z" transform="translate(-151.492 -176.886)" fill="#aabfe8"/>
          <path id="Trazado_122238" data-name="Trazado 122238" d="M500.536,377.652,354.587,523.6h5.274l145.95-145.95Z" transform="translate(-166.083 -176.886)" fill="#aabfe8"/>
          <path id="Trazado_122239" data-name="Trazado 122239" d="M323.056,439.147l45.581-45.581v-5.274l-45.581,45.581Z" transform="translate(-151.314 -181.87)" fill="#aabfe8"/>
          <path id="Trazado_122240" data-name="Trazado 122240" d="M323.056,482.627l73.475-73.475h-5.274l-68.2,68.2Z" transform="translate(-151.314 -191.64)" fill="#aabfe8"/>
          <path id="Trazado_122241" data-name="Trazado 122241" d="M323.056,460.15l51-51h-5.274l-45.724,45.724Z" transform="translate(-151.314 -191.64)" fill="#aabfe8"/>
          <path id="Trazado_122242" data-name="Trazado 122242" d="M464.185,377.652,323.057,518.78V523.6h.452l145.95-145.95Z" transform="translate(-151.315 -176.886)" fill="#aabfe8"/>
          <path id="Trazado_122243" data-name="Trazado 122243" d="M676.88,597.87,733.253,541.5l.032-5.306L671.607,597.87Z" transform="translate(-314.57 -251.144)" fill="#aabfe8"/>
          <path id="Trazado_122244" data-name="Trazado 122244" d="M634.6,577.936l78.993-78.993.037-5.311-84.3,84.3Z" transform="translate(-294.767 -231.21)" fill="#aabfe8"/>
          <path id="Trazado_122245" data-name="Trazado 122245" d="M655.74,587.9l67.685-67.685.032-5.306L650.466,587.9Z" transform="translate(-304.668 -241.177)" fill="#aabfe8"/>
          <path id="Trazado_122246" data-name="Trazado 122246" d="M719.14,617.791,752.9,584.033l.037-5.311-39.068,39.068Z" transform="translate(-334.364 -271.064)" fill="#aabfe8"/>
          <path id="Trazado_122247" data-name="Trazado 122247" d="M698,607.833l45.07-45.07.032-5.3-50.37,50.371Z" transform="translate(-324.467 -261.106)" fill="#aabfe8"/>
          <path id="Trazado_122248" data-name="Trazado 122248" d="M544.806,538.07h5.274L674.3,413.848l.032-5.306Z" transform="translate(-255.179 -191.355)" fill="#aabfe8"/>
          <path id="Trazado_122249" data-name="Trazado 122249" d="M740.28,627.758l22.445-22.445.037-5.311-27.756,27.756Z" transform="translate(-344.265 -281.031)" fill="#aabfe8"/>
          <path id="Trazado_122250" data-name="Trazado 122250" d="M571.22,548.038l112.91-112.91.032-5.306L565.946,548.038Z" transform="translate(-265.08 -201.322)" fill="#aabfe8"/>
          <path id="Trazado_122251" data-name="Trazado 122251" d="M613.48,567.958l90.295-90.3.037-5.311-95.606,95.606Z" transform="translate(-284.874 -221.242)" fill="#aabfe8"/>
          <path id="Trazado_122252" data-name="Trazado 122252" d="M592.35,558l101.6-101.6.037-5.311L587.077,558Z" transform="translate(-274.977 -211.28)" fill="#aabfe8"/>
          <path id="Trazado_122253" data-name="Trazado 122253" d="M627.356,377.652,481.407,523.6h5.274l145.95-145.95Z" transform="translate(-225.483 -176.886)" fill="#aabfe8"/>
          <path id="Trazado_122254" data-name="Trazado 122254" d="M761.42,637.725l11.137-11.137.032-5.305-16.443,16.443Z" transform="translate(-354.167 -290.999)" fill="#aabfe8"/>
          <path id="Trazado_122255" data-name="Trazado 122255" d="M563.946,377.652,418,523.6h5.274l145.945-145.95Z" transform="translate(-195.783 -176.886)" fill="#aabfe8"/>
          <path id="Trazado_122256" data-name="Trazado 122256" d="M606.216,377.652,460.266,523.6h5.274l145.95-145.95Z" transform="translate(-215.581 -176.886)" fill="#aabfe8"/>
          <path id="Trazado_122257" data-name="Trazado 122257" d="M542.817,377.652,396.867,523.6h5.274l145.95-145.95Z" transform="translate(-185.886 -176.886)" fill="#aabfe8"/>
          <path id="Trazado_122258" data-name="Trazado 122258" d="M585.077,377.652,439.127,523.6H444.4l145.95-145.95Z" transform="translate(-205.68 -176.886)" fill="#aabfe8"/>
          <path id="Trazado_122259" data-name="Trazado 122259" d="M660.207,395.352l-136.54,136.54h5.274L662.509,398.324Z" transform="translate(-245.277 -185.177)" fill="#aabfe8"/>
          <path id="Trazado_122260" data-name="Trazado 122260" d="M782.385,647.692l.032-5.13-5.13,5.13Z" transform="translate(-364.069 -300.966)" fill="#aabfe8"/>
          <path id="Trazado_122261" data-name="Trazado 122261" d="M521.676,377.652,375.727,523.6H381l145.95-145.95Z" transform="translate(-175.984 -176.886)" fill="#aabfe8"/>
          <path id="Trazado_122262" data-name="Trazado 122262" d="M645.413,383.452,502.546,526.319h5.268L647.709,386.424Z" transform="translate(-235.385 -179.603)" fill="#aabfe8"/>
          <path id="Trazado_122263" data-name="Trazado 122263" d="M588.912,617.138l65.824-65.824h-5.274l-65.824,65.824Z" transform="translate(-273.367 -258.227)" fill="#aabfe8"/>
          <path id="Trazado_122264" data-name="Trazado 122264" d="M610.052,617.138l65.824-65.824H670.6l-65.824,65.824Z" transform="translate(-283.269 -258.227)" fill="#aabfe8"/>
          <path id="Trazado_122265" data-name="Trazado 122265" d="M567.772,617.138,633.6,551.314h-5.274L562.5,617.138Z" transform="translate(-263.465 -258.227)" fill="#aabfe8"/>
          <path id="Trazado_122266" data-name="Trazado 122266" d="M483.232,617.138l65.824-65.824h-5.274l-65.824,65.824Z" transform="translate(-223.868 -258.227)" fill="#aabfe8"/>
          <path id="Trazado_122267" data-name="Trazado 122267" d="M504.372,617.138,570.2,551.314h-5.274L499.1,617.138Z" transform="translate(-233.77 -258.227)" fill="#aabfe8"/>
          <path id="Trazado_122268" data-name="Trazado 122268" d="M525.512,617.138l65.824-65.824h-5.274l-65.824,65.824Z" transform="translate(-243.672 -258.227)" fill="#aabfe8"/>
          <path id="Trazado_122269" data-name="Trazado 122269" d="M546.644,617.138l65.824-65.824h-5.274l-65.821,65.824Z" transform="translate(-253.57 -258.227)" fill="#aabfe8"/>
          <path id="Trazado_122270" data-name="Trazado 122270" d="M731.457,592.744l-43.8,43.8h5.274l38.525-38.525Z" transform="translate(-322.088 -277.632)" fill="#aabfe8"/>
          <path id="Trazado_122271" data-name="Trazado 122271" d="M631.182,617.138l65.824-65.824h-5.274l-65.824,65.824Z" transform="translate(-293.166 -258.227)" fill="#aabfe8"/>
          <path id="Trazado_122272" data-name="Trazado 122272" d="M751.256,635.015l-21.327,21.327H735.2l16.054-16.054Z" transform="translate(-341.887 -297.431)" fill="#aabfe8"/>
          <path id="Trazado_122273" data-name="Trazado 122273" d="M741.359,613.885,708.8,646.445h5.274l27.287-27.287Z" transform="translate(-331.99 -287.534)" fill="#aabfe8"/>
          <path id="Trazado_122274" data-name="Trazado 122274" d="M650.653,617.138l61-61v-4.822H711.2l-65.824,65.824Z" transform="translate(-302.285 -258.227)" fill="#aabfe8"/>
          <path id="Trazado_122275" data-name="Trazado 122275" d="M721.556,571.6l-55.037,55.037h5.274l49.763-49.764Z" transform="translate(-312.187 -267.73)" fill="#aabfe8"/>
          <path id="Trazado_122276" data-name="Trazado 122276" d="M761.153,656.144l-10.094,10.094h5.274l4.821-4.821Z" transform="translate(-351.784 -307.328)" fill="#aabfe8"/>
          <path id="Trazado_122277" data-name="Trazado 122277" d="M356.432,617.138l65.824-65.824h-5.274l-65.824,65.824Z" transform="translate(-164.477 -258.227)" fill="#aabfe8"/>
          <path id="Trazado_122278" data-name="Trazado 122278" d="M328.368,551.294l-22.445,22.445-.037,5.311,27.756-27.756Z" transform="translate(-143.272 -258.217)" fill="#aabfe8"/>
          <path id="Trazado_122279" data-name="Trazado 122279" d="M306.2,551.294l-.032,5.13,5.13-5.13Z" transform="translate(-143.403 -258.217)" fill="#aabfe8"/>
          <path id="Trazado_122280" data-name="Trazado 122280" d="M339.541,551.294l-33.758,33.758-.037,5.311,39.068-39.069Z" transform="translate(-143.207 -258.217)" fill="#aabfe8"/>
          <path id="Trazado_122281" data-name="Trazado 122281" d="M317.2,551.294l-11.137,11.137-.032,5.306,16.443-16.443Z" transform="translate(-143.338 -258.217)" fill="#aabfe8"/>
          <path id="Trazado_122282" data-name="Trazado 122282" d="M361.881,551.294l-56.373,56.373-.032,5.305,61.678-61.678Z" transform="translate(-143.08 -258.217)" fill="#aabfe8"/>
          <path id="Trazado_122283" data-name="Trazado 122283" d="M350.719,551.294l-45.07,45.07-.032,5.3,50.371-50.371Z" transform="translate(-143.146 -258.217)" fill="#aabfe8"/>
          <path id="Trazado_122284" data-name="Trazado 122284" d="M314.152,617.128l65.834-65.834h-5.274l-65.834,65.834Z" transform="translate(-144.674 -258.217)" fill="#aabfe8"/>
          <path id="Trazado_122285" data-name="Trazado 122285" d="M419.832,617.138l65.824-65.824h-5.274l-65.824,65.824Z" transform="translate(-194.173 -258.227)" fill="#aabfe8"/>
          <path id="Trazado_122286" data-name="Trazado 122286" d="M440.972,617.138,506.8,551.314h-5.274L435.7,617.138Z" transform="translate(-204.074 -258.227)" fill="#aabfe8"/>
          <path id="Trazado_122287" data-name="Trazado 122287" d="M398.692,617.138l65.824-65.824h-5.274l-65.824,65.824Z" transform="translate(-184.271 -258.227)" fill="#aabfe8"/>
          <path id="Trazado_122288" data-name="Trazado 122288" d="M335.292,617.128l65.834-65.834h-5.274l-65.834,65.834Z" transform="translate(-154.575 -258.217)" fill="#aabfe8"/>
          <path id="Trazado_122289" data-name="Trazado 122289" d="M377.562,617.138l65.824-65.824h-5.274l-65.824,65.824Z" transform="translate(-174.374 -258.227)" fill="#aabfe8"/>
          <path id="Trazado_122290" data-name="Trazado 122290" d="M462.1,617.138l65.824-65.824h-5.268l-65.824,65.824Z" transform="translate(-213.971 -258.227)" fill="#aabfe8"/>
          <path id="Trazado_122291" data-name="Trazado 122291" d="M546.153,617.138l65.824-65.824H606.7L540.88,617.138Z" transform="translate(-253.339 -258.227)" fill="#aabfe8"/>
          <path id="Trazado_122292" data-name="Trazado 122292" d="M567.293,617.138l65.824-65.824h-5.274L562.02,617.138Z" transform="translate(-263.241 -258.227)" fill="#aabfe8"/>
          <path id="Trazado_122293" data-name="Trazado 122293" d="M525.013,617.138l65.824-65.824h-5.274L519.74,617.138Z" transform="translate(-243.438 -258.227)" fill="#aabfe8"/>
          <path id="Trazado_122294" data-name="Trazado 122294" d="M440.473,617.138,506.3,551.314h-5.274L435.2,617.138Z" transform="translate(-203.841 -258.227)" fill="#aabfe8"/>
          <path id="Trazado_122295" data-name="Trazado 122295" d="M461.613,617.138l65.824-65.824h-5.274L456.34,617.138Z" transform="translate(-213.742 -258.227)" fill="#aabfe8"/>
          <path id="Trazado_122296" data-name="Trazado 122296" d="M482.753,617.138l65.824-65.824H543.3L477.48,617.138Z" transform="translate(-223.644 -258.227)" fill="#aabfe8"/>
          <path id="Trazado_122297" data-name="Trazado 122297" d="M503.885,617.138l65.824-65.824h-5.274l-65.822,65.824Z" transform="translate(-233.543 -258.227)" fill="#aabfe8"/>
          <path id="Trazado_122298" data-name="Trazado 122298" d="M688.7,592.744l-43.8,43.8h5.274L688.7,598.018Z" transform="translate(-302.061 -277.632)" fill="#aabfe8"/>
          <path id="Trazado_122299" data-name="Trazado 122299" d="M588.423,617.138l65.824-65.824h-5.274L583.15,617.138Z" transform="translate(-273.138 -258.227)" fill="#aabfe8"/>
          <path id="Trazado_122300" data-name="Trazado 122300" d="M708.5,635.015l-21.327,21.327h5.274L708.5,640.288Z" transform="translate(-321.859 -297.431)" fill="#aabfe8"/>
          <path id="Trazado_122301" data-name="Trazado 122301" d="M698.6,613.885l-32.56,32.56h5.274L698.6,619.158Z" transform="translate(-311.962 -287.534)" fill="#aabfe8"/>
          <path id="Trazado_122302" data-name="Trazado 122302" d="M607.893,617.138l61-61v-4.822h-.452L602.62,617.138Z" transform="translate(-282.258 -258.227)" fill="#aabfe8"/>
          <path id="Trazado_122303" data-name="Trazado 122303" d="M678.8,571.6l-55.037,55.037h5.274L678.8,576.878Z" transform="translate(-292.159 -267.73)" fill="#aabfe8"/>
          <path id="Trazado_122304" data-name="Trazado 122304" d="M718.394,656.144,708.3,666.239h5.274l4.821-4.821Z" transform="translate(-331.756 -307.328)" fill="#aabfe8"/>
          <path id="Trazado_122305" data-name="Trazado 122305" d="M313.673,617.138,379.5,551.314h-5.274L308.4,617.138Z" transform="translate(-144.45 -258.227)" fill="#aabfe8"/>
          <path id="Trazado_122306" data-name="Trazado 122306" d="M285.609,551.294l-22.445,22.445-.037,5.311,27.756-27.756Z" transform="translate(-123.245 -258.217)" fill="#aabfe8"/>
          <path id="Trazado_122307" data-name="Trazado 122307" d="M263.439,551.294l-.032,5.13,5.13-5.13Z" transform="translate(-123.376 -258.217)" fill="#aabfe8"/>
          <path id="Trazado_122308" data-name="Trazado 122308" d="M296.782,551.294l-33.758,33.758-.037,5.311,39.068-39.069Z" transform="translate(-123.179 -258.217)" fill="#aabfe8"/>
          <path id="Trazado_122309" data-name="Trazado 122309" d="M274.437,551.294,263.3,562.432l-.032,5.306,16.443-16.443Z" transform="translate(-123.31 -258.217)" fill="#aabfe8"/>
          <path id="Trazado_122310" data-name="Trazado 122310" d="M319.122,551.294l-56.373,56.373-.032,5.305L324.4,551.294Z" transform="translate(-123.053 -258.217)" fill="#aabfe8"/>
          <path id="Trazado_122311" data-name="Trazado 122311" d="M307.96,551.294l-45.07,45.07-.032,5.3,50.371-50.371Z" transform="translate(-123.118 -258.217)" fill="#aabfe8"/>
          <path id="Trazado_122312" data-name="Trazado 122312" d="M271.393,617.128l65.834-65.834h-5.274L266.12,617.128Z" transform="translate(-124.646 -258.217)" fill="#aabfe8"/>
          <path id="Trazado_122313" data-name="Trazado 122313" d="M377.073,617.138,442.9,551.314h-5.274L371.8,617.138Z" transform="translate(-174.145 -258.227)" fill="#aabfe8"/>
          <path id="Trazado_122314" data-name="Trazado 122314" d="M398.213,617.138l65.824-65.824h-5.274L392.94,617.138Z" transform="translate(-184.047 -258.227)" fill="#aabfe8"/>
          <path id="Trazado_122315" data-name="Trazado 122315" d="M355.933,617.138l65.824-65.824h-5.274L350.66,617.138Z" transform="translate(-164.243 -258.227)" fill="#aabfe8"/>
          <path id="Trazado_122316" data-name="Trazado 122316" d="M292.533,617.128l65.834-65.834h-5.274L287.26,617.128Z" transform="translate(-134.548 -258.217)" fill="#aabfe8"/>
          <path id="Trazado_122317" data-name="Trazado 122317" d="M334.8,617.138l65.824-65.824h-5.274L329.53,617.138Z" transform="translate(-154.346 -258.227)" fill="#aabfe8"/>
          <path id="Trazado_122318" data-name="Trazado 122318" d="M419.338,617.138l65.824-65.824h-5.268L414.07,617.138Z" transform="translate(-193.944 -258.227)" fill="#aabfe8"/>
          <path id="Trazado_122319" data-name="Trazado 122319" d="M565.256,140.455l-.82-1.527c-.056-.1-.122-.237-.2-.393a15.487,15.487,0,0,0-9.76-8.337l.565-1.772a17.462,17.462,0,0,1,10.224,8.077l.4-.736a17.457,17.457,0,0,1,9.811-7.341l.565,1.772a15.825,15.825,0,0,0-8.741,6.456Z" transform="translate(-259.707 -60.153)" fill="#fff"/>
          <path id="Trazado_122320" data-name="Trazado 122320" d="M505.494,173.317l-.778-1.231c-.085-.135-.175-.285-.273-.448-.87-1.457-2.327-3.894-6.942-5.155l.491-1.8c4.493,1.228,6.453,3.513,7.527,5.151a12.268,12.268,0,0,1,7.52-5.151l.491,1.8a10.447,10.447,0,0,0-6.974,5.183q-.14.224-.271.427Z" transform="translate(-233.022 -77.137)" fill="#fff"/>
          <path id="Trazado_122321" data-name="Trazado 122321" d="M140.593,190.52v-.027a17.327,17.327,0,0,1,25.458-15.322,24.873,24.873,0,0,1,41.614,1.243,17.3,17.3,0,0,1,2.708-1.6,35.569,35.569,0,0,1,32.422-20.937c19.644,0,35.569,16.6,35.569,36.246Z" transform="translate(-65.851 -72.075)" fill="#fff"/>
          <path id="Trazado_122322" data-name="Trazado 122322" d="M920.114,338.76a9.806,9.806,0,0,1,14.408-8.687,14.077,14.077,0,0,1,23.553.7,9.745,9.745,0,0,1,1.533-.9,20.131,20.131,0,0,1,18.35-11.85c11.118,0,20.131,9.4,20.131,20.514Z" transform="translate(-430.967 -148.957)" fill="#fff"/>
          <path id="Trazado_122323" data-name="Trazado 122323" d="M734.3,114a19.507,19.507,0,0,0-18.582,13.576,13.655,13.655,0,0,0-25.961,5.924H753.8A19.5,19.5,0,0,0,734.3,114" transform="translate(-323.069 -53.396)" fill="#fff"/>
          <path id="Trazado_122324" data-name="Trazado 122324" d="M1002.825,646.669a10.984,10.984,0,0,0-15.8-5.612q-1.934-.728-4-1.4a5.664,5.664,0,0,0-8.753-2.433q-2.932-.692-6.039-1.277a13.521,13.521,0,0,0-25.153-2.67q-.484-.016-.97-.029a10.974,10.974,0,0,0-13.913-5.714,15.542,15.542,0,0,0-26.793,6.8,10.935,10.935,0,0,0-10.262.4A10.975,10.975,0,0,0,874.9,646.669Z" transform="translate(-409.655 -291.467)" fill="#a6bbff"/>
          <rect id="Rectángulo_34711" data-name="Rectángulo 34711" width="101.008" height="6.353" transform="translate(279.109 348.728)" fill="#fff"/>
          <rect id="Rectángulo_34712" data-name="Rectángulo 34712" width="101.008" height="6.353" transform="translate(380.351 348.728)" fill="#fff"/>
          <rect id="Rectángulo_34713" data-name="Rectángulo 34713" width="107.01" height="12.052" transform="translate(368.754 336.834)" fill="#fff"/>
          <rect id="Rectángulo_34714" data-name="Rectángulo 34714" width="181.768" height="158.778" transform="translate(186.763 189.972)" fill="#fff"/>
          <path id="Trazado_122325" data-name="Trazado 122325" d="M460.08,348.317H331.549l3.811,3.812H527.736l-3.812-3.812Z" transform="translate(-155.292 -163.146)" fill="#fff"/>
          <path id="Trazado_122326" data-name="Trazado 122326" d="M579.624,223.487h-1.193l-63.848,0s-128.48,0-128.48,0l-58.982,63.74,7.359,5.209h193.4l51.622-61.23,48.924,61.23h7.209Z" transform="translate(-153.218 -104.678)" fill="#fff"/>
          <path id="Trazado_122327" data-name="Trazado 122327" d="M800.093,354.758l.009-55.508-48.923-61.23-51.622,61.23h-5.909V448.142H800.079l.012-71.971Z" transform="translate(-324.893 -111.485)" fill="#fff"/>
          <path id="Trazado_122328" data-name="Trazado 122328" d="M805.149,238.02l-2.692,3.216,51.616,59.2h4.574Z" transform="translate(-375.858 -111.485)" fill="#fff"/>
          <path id="Trazado_122329" data-name="Trazado 122329" d="M591.474,241.548,539.523,302.1l-186.948.02v3.812l190.489-.032,48.608-56.8,42.645,52.988h6.09Z" transform="translate(-165.141 -113.137)" fill="#6b8dfc"/>
          <rect id="Rectángulo_34715" data-name="Rectángulo 34715" width="119.804" height="18.741" transform="translate(370.986 245.941)" fill="#fff"/>
          <path id="Trazado_122330" data-name="Trazado 122330" d="M799.685,497.941,770.86,526.766h-3.891l-31.8,31.8-11.078,11.255H695.341V498.1Z" transform="translate(-325.687 -233.228)" fill="#6b8dfc"/>
          <rect id="Rectángulo_34716" data-name="Rectángulo 34716" width="58.068" height="78.535" transform="translate(221.657 276.466)" fill="#fff"/>
          <rect id="Rectángulo_34717" data-name="Rectángulo 34717" width="74.041" height="78.615" transform="translate(147.616 276.466)" fill="#fff"/>
          <rect id="Rectángulo_34718" data-name="Rectángulo 34718" width="52.892" height="37.124" transform="translate(209.351 214.089)" fill="#a6bbff"/>
          <rect id="Rectángulo_34719" data-name="Rectángulo 34719" width="52.892" height="37.124" transform="translate(292.757 214.089)" fill="#a6bbff"/>
          <rect id="Rectángulo_34720" data-name="Rectángulo 34720" width="48.221" height="76.868" transform="translate(296.625 271.86)" fill="#a6bbff"/>
          <rect id="Rectángulo_34721" data-name="Rectángulo 34721" width="36.371" height="14.266" transform="translate(231.861 293.407)" fill="#a6bbff"/>
          <rect id="Rectángulo_34722" data-name="Rectángulo 34722" width="50.914" height="43.431" transform="translate(157.365 311.484)" fill="#a6bbff"/>
          <rect id="Rectángulo_34723" data-name="Rectángulo 34723" width="38.249" height="53.77" transform="translate(410.371 282.827)" fill="#fff"/>
          <rect id="Rectángulo_34724" data-name="Rectángulo 34724" width="35.034" height="49.61" transform="translate(410.371 194.555)" fill="#a6bbff"/>
          <rect id="Rectángulo_34725" data-name="Rectángulo 34725" width="32.407" height="47.737" transform="translate(410.372 288.86)" fill="#4069db"/>
          <rect id="Rectángulo_34726" data-name="Rectángulo 34726" width="25.457" height="43.431" transform="translate(158.036 311.484)" fill="#a6bbff"/>
          <rect id="Rectángulo_34727" data-name="Rectángulo 34727" width="12.091" height="5.77" transform="translate(208.95 349.31)" fill="#6b8dfc"/>
          <path id="Trazado_122331" data-name="Trazado 122331" d="M477.021,657.073h21.188v5.77H468.753Z" transform="translate(-219.557 -307.763)" fill="#6b8dfc"/>
          <path id="Trazado_122332" data-name="Trazado 122332" d="M629.44,657.073h41.624v5.77H621.171Z" transform="translate(-290.947 -307.763)" fill="#6b8dfc"/>
          <path id="Trazado_122333" data-name="Trazado 122333" d="M829.068,657.073h41.624v5.77H820.8Z" transform="translate(-384.449 -307.763)" fill="#6b8dfc"/>
          <rect id="Rectángulo_34728" data-name="Rectángulo 34728" width="12.091" height="5.77" transform="translate(146.108 349.31)" fill="#6b8dfc"/>
          <rect id="Rectángulo_34729" data-name="Rectángulo 34729" width="24.307" height="3.799" transform="translate(410.372 295.788)" fill="#6b8dfc"/>
          <rect id="Rectángulo_34730" data-name="Rectángulo 34730" width="3.823" height="40.921" transform="translate(430.855 295.676)" fill="#6b8dfc"/>
          <rect id="Rectángulo_34731" data-name="Rectángulo 34731" width="53.284" height="3.874" transform="translate(292.757 214.089)" fill="#6b8dfc"/>
          <rect id="Rectángulo_34732" data-name="Rectángulo 34732" width="4.375" height="37.124" transform="translate(292.757 214.09)" fill="#6b8dfc"/>
          <rect id="Rectángulo_34733" data-name="Rectángulo 34733" width="53.284" height="3.874" transform="translate(208.954 214.089)" fill="#6b8dfc"/>
          <rect id="Rectángulo_34734" data-name="Rectángulo 34734" width="4.375" height="37.124" transform="translate(208.954 214.09)" fill="#6b8dfc"/>
          <rect id="Rectángulo_34735" data-name="Rectángulo 34735" width="4.864" height="76.668" transform="translate(296.625 271.86)" fill="#6b8dfc"/>
          <rect id="Rectángulo_34736" data-name="Rectángulo 34736" width="48.221" height="4.606" transform="translate(296.625 271.86)" fill="#6b8dfc"/>
          <rect id="Rectángulo_34737" data-name="Rectángulo 34737" width="36.371" height="2.66" transform="translate(231.861 293.408)" fill="#6b8dfc"/>
          <rect id="Rectángulo_34738" data-name="Rectángulo 34738" width="2.587" height="14.266" transform="translate(231.861 293.408)" fill="#6b8dfc"/>
          <rect id="Rectángulo_34739" data-name="Rectángulo 34739" width="16.62" height="20.596" transform="translate(368.754 244.165)" fill="#4069db"/>
          <rect id="Rectángulo_34740" data-name="Rectángulo 34740" width="8.964" height="159.338" transform="translate(359.48 189.972)" fill="#6b8dfc"/>
          <rect id="Rectángulo_34741" data-name="Rectángulo 34741" width="132.168" height="3.679" transform="translate(146.941 276.465)" fill="#6b8dfc"/>
          <rect id="Rectángulo_34742" data-name="Rectángulo 34742" width="57.452" height="3.013" transform="translate(221.965 277.132)" fill="#4069db"/>
          <path id="Trazado_122334" data-name="Trazado 122334" d="M345.639,605.387,365.1,585.921h-6.3l-13.162,13.161Z" transform="translate(-161.892 -274.436)" fill="#4069db"/>
          <path id="Trazado_122335" data-name="Trazado 122335" d="M345.639,585.921v6.031l6.031-6.031Z" transform="translate(-161.892 -274.436)" fill="#4069db"/>
          <path id="Trazado_122336" data-name="Trazado 122336" d="M345.639,614.019v6.3l24.889-24.889v-6.3Z" transform="translate(-161.892 -275.939)" fill="#4069db"/>
          <path id="Trazado_122337" data-name="Trazado 122337" d="M348.309,642.922l22.219-22.22v-6.3l-24.889,24.889v3.634Z" transform="translate(-161.891 -287.775)" fill="#4069db"/>
          <path id="Trazado_122338" data-name="Trazado 122338" d="M370.376,654.758l8.786-8.786v-6.3l-15.09,15.091Z" transform="translate(-170.525 -299.61)" fill="#4069db"/>
          <path id="Trazado_122339" data-name="Trazado 122339" d="M770.833,412.025v6.13l36.2-36.2v-6.13Z" transform="translate(-361.046 -176.029)" fill="#fff"/>
          <path id="Trazado_122340" data-name="Trazado 122340" d="M785.639,431.982,811.1,406.522v-6.13l-31.59,31.59Z" transform="translate(-365.11 -187.537)" fill="#fff"/>
          <path id="Trazado_122341" data-name="Trazado 122341" d="M786.039,366.179l-15.206,15.206v6.13l21.336-21.336Z" transform="translate(-361.046 -171.512)" fill="#fff"/>
          <rect id="Rectángulo_34743" data-name="Rectángulo 34743" width="35.034" height="3.911" transform="translate(410.371 194.555)" fill="#6b8dfc"/>
          <rect id="Rectángulo_34744" data-name="Rectángulo 34744" width="4.469" height="49.722" transform="translate(441.606 194.443)" fill="#6b8dfc"/>
          <rect id="Rectángulo_34745" data-name="Rectángulo 34745" width="5.845" height="11.032" transform="translate(400.469 336.658)" fill="#6b8dfc"/>
          <rect id="Rectángulo_34746" data-name="Rectángulo 34746" width="11.661" height="5.4" transform="translate(400.47 343.328)" fill="#6b8dfc"/>
          <rect id="Rectángulo_34747" data-name="Rectángulo 34747" width="23.241" height="11.931" transform="translate(345.513 336.597)" fill="#6b8dfc"/>
          <rect id="Rectángulo_34748" data-name="Rectángulo 34748" width="17.677" height="11.931" transform="translate(278.948 336.597)" fill="#6b8dfc"/>
          <rect id="Rectángulo_34749" data-name="Rectángulo 34749" width="12.335" height="11.931" transform="translate(208.636 336.597)" fill="#6b8dfc"/>
          <rect id="Rectángulo_34750" data-name="Rectángulo 34750" width="12.335" height="11.931" transform="translate(145.985 336.597)" fill="#6b8dfc"/>
          <rect id="Rectángulo_34751" data-name="Rectángulo 34751" width="79.917" height="4.606" transform="translate(144.4 271.86)" fill="#6b8dfc"/>
          <rect id="Rectángulo_34752" data-name="Rectángulo 34752" width="10.616" height="7.847" transform="translate(160.101 295.664)" fill="#c5d4f9"/>
          <rect id="Rectángulo_34753" data-name="Rectángulo 34753" width="10.616" height="7.847" transform="translate(269.042 317.294)" fill="#c5d4f9"/>
          <rect id="Rectángulo_34754" data-name="Rectángulo 34754" width="15.693" height="7.847" transform="translate(174.976 289.485)" fill="#c5d4f9"/>
          <rect id="Rectángulo_34755" data-name="Rectángulo 34755" width="21.535" height="4.146" transform="translate(548.838 351.056)" fill="#fff"/>
          <path id="Trazado_122342" data-name="Trazado 122342" d="M1053.535,646.64h-12.822l3.07-15.569h6.681Z" transform="translate(-487.454 -295.583)" fill="#fff"/>
          <rect id="Rectángulo_34756" data-name="Rectángulo 34756" width="14.819" height="6.036" transform="translate(555.113 242.068)" fill="#fff"/>
          <rect id="Rectángulo_34757" data-name="Rectángulo 34757" width="15.672" height="3.507" transform="translate(515.868 244.913)" fill="#a6bbff"/>
          <rect id="Rectángulo_34758" data-name="Rectángulo 34758" width="15.672" height="3.507" transform="translate(587.647 244.913)" fill="#a6bbff"/>
          <path id="Trazado_122343" data-name="Trazado 122343" d="M177.625,514.392a21.968,21.968,0,0,0,43.935,0c0-12.133-15.772-60.833-21.968-60.833s-21.967,48.7-21.967,60.833" transform="translate(-83.197 -212.44)" fill="#4069db"/>
          <rect id="Rectángulo_34759" data-name="Rectángulo 34759" width="50.914" height="3.075" transform="translate(158.036 311.485)" fill="#6b8dfc"/>
          <rect id="Rectángulo_34760" data-name="Rectángulo 34760" width="3.336" height="43.431" transform="translate(158.036 311.485)" fill="#6b8dfc"/>
          <path id="Trazado_122344" data-name="Trazado 122344" d="M525.617,287.234h-198.5l58.982-63.74,193.52-.007Z" transform="translate(-153.218 -104.678)" fill="#a6bbff"/>
          <path id="Trazado_122345" data-name="Trazado 122345" d="M609.119,191.488H595.9v5.718h.913v55.983h12.07v-.38l20.17-24.983v-30.62h.635v-5.718Z" transform="translate(-279.109 -89.69)" fill="#fff"/>
          <rect id="Rectángulo_34761" data-name="Rectángulo 34761" width="11.718" height="55.483" transform="translate(317.747 108.015)" fill="#6b8dfc"/>
          <rect id="Rectángulo_34762" data-name="Rectángulo 34762" width="32.348" height="3.627" transform="translate(317.746 107.628)" fill="#6b8dfc"/>
          <path id="Trazado_122346" data-name="Trazado 122346" d="M531.953,508.342h-1.861V360.387H349.956V443.55H348.1V358.527H531.953Z" transform="translate(-163.042 -167.928)" fill="#401737"/>
          <path id="Trazado_122347" data-name="Trazado 122347" d="M798.734,454.86H690.443V304.107h6.408l52.073-61.766,49.835,62.37-.009,55.834h-1.861l.009-55.182-48.013-60.09-51.17,60.694H692.3V453H796.874l.011-71.041h1.861Z" transform="translate(-323.392 -113.509)" fill="#401737"/>
          <path id="Trazado_122348" data-name="Trazado 122348" d="M634.2,299.633h-8.916l-48.495-60.694-51.17,60.694H331.486l-8.475-6,61.186-64.81,84.025,0v1.861l-83.222,0-59.165,62.669,6.243,4.418H524.751l52.073-61.765,49.352,61.765h4.141l-53.839-67.1-76.017,0v-1.861l76.909,0,.28.348Z" transform="translate(-151.293 -107.174)" fill="#401737"/>
          <path id="Trazado_122349" data-name="Trazado 122349" d="M541.191,652.525H521.815V638.588h19.376Zm-17.516-1.861h15.655V640.449H523.676Z" transform="translate(-244.41 -299.104)" fill="#401737"/>
          <path id="Trazado_122350" data-name="Trazado 122350" d="M799.765,652.525H690.442V638.588H799.765ZM692.3,650.665H797.9V640.449H692.3Z" transform="translate(-323.392 -299.104)" fill="#401737"/>
          <path id="Trazado_122351" data-name="Trazado 122351" d="M811.955,647.164H762.417v-8.495h49.538ZM764.278,645.3h45.817v-4.774H764.278Z" transform="translate(-357.104 -299.142)" fill="#401737"/>
          <path id="Trazado_122352" data-name="Trazado 122352" d="M822.336,658.408h-50.3v-7.26h50.3ZM773.9,656.548h46.579v-3.539H773.9Z" transform="translate(-361.609 -304.987)" fill="#401737"/>
          <path id="Trazado_122353" data-name="Trazado 122353" d="M763.656,652.527H750.1V638.592l8.407.043v6.632h5.109Zm-11.693-1.861h9.824l-.019-3.539h-5.118v-6.641l-4.686-.024Z" transform="translate(-351.336 -299.106)" fill="#401737"/>
          <path id="Trazado_122354" data-name="Trazado 122354" d="M810.044,418.732H768.728V362.679h41.316Zm-39.454-1.861h37.594V364.54H770.589Z" transform="translate(-360.06 -169.873)" fill="#401737"/>
          <path id="Trazado_122355" data-name="Trazado 122355" d="M805.623,422.769H768.729V371.3h36.894Zm-35.033-1.861h33.172v-47.75H770.59Z" transform="translate(-360.06 -173.91)" fill="#401737"/>
          <path id="Trazado_122356" data-name="Trazado 122356" d="M808.838,592.973H768.729V537.341h40.109Zm-38.249-1.861h36.388V539.2H770.59Z" transform="translate(-360.06 -251.682)" fill="#401737"/>
          <path id="Trazado_122357" data-name="Trazado 122357" d="M803,598.289H768.728v-49.6H803Zm-32.407-1.861h30.547V550.552H770.589Z" transform="translate(-360.06 -256.998)" fill="#401737"/>
          <path id="Trazado_122358" data-name="Trazado 122358" d="M794.9,604.392H768.728v-42.67H794.9Zm-24.306-1.861h22.446V563.583H770.589Z" transform="translate(-360.06 -263.102)" fill="#401737"/>
          <path id="Trazado_122359" data-name="Trazado 122359" d="M813.664,486.995H690.443V464.618H813.664ZM692.3,485.134H811.8V466.479H692.3Z" transform="translate(-323.393 -217.62)" fill="#401737"/>
          <path id="Trazado_122360" data-name="Trazado 122360" d="M708.923,487.074H690.442V464.618h18.481Zm-16.62-1.861h14.76V466.479H692.3Z" transform="translate(-323.392 -217.62)" fill="#401737"/>
          <path id="Trazado_122361" data-name="Trazado 122361" d="M445.348,447.029H390.6V408.044h54.752Zm-52.892-1.861h51.031V409.9H392.457Z" transform="translate(-182.949 -191.121)" fill="#401737"/>
          <path id="Trazado_122362" data-name="Trazado 122362" d="M602.24,447.029H547.487V408.044H602.24Zm-52.892-1.861H600.38V409.9H549.348Z" transform="translate(-256.434 -191.121)" fill="#401737"/>
          <path id="Trazado_122363" data-name="Trazado 122363" d="M604.846,595.441H554.763V516.712h50.083Zm-48.222-1.861h46.361V518.573H556.624Z" transform="translate(-259.842 -242.02)" fill="#401737"/>
          <path id="Trazado_122364" data-name="Trazado 122364" d="M624.684,669.52H521.815v-8.214H624.684Zm-101.008-1.861h99.147v-4.492H523.676Z" transform="translate(-244.41 -309.745)" fill="#401737"/>
          <path id="Trazado_122365" data-name="Trazado 122365" d="M820.4,669.66H711.817V661.6H820.4ZM713.678,667.8H818.543v-4.333H713.678Z" transform="translate(-333.404 -309.885)" fill="#401737"/>
          <path id="Trazado_122366" data-name="Trazado 122366" d="M472.4,587.369H412.475V525.377H472.4Zm-58.067-1.861h56.207v-58.27H414.336Z" transform="translate(-193.197 -246.078)" fill="#401737"/>
          <path id="Trazado_122367" data-name="Trazado 122367" d="M349.1,605.853H273.2V525.377h75.9Zm-74.041-1.861h72.18V527.238h-72.18Z" transform="translate(-127.963 -246.078)" fill="#401737"/>
          <path id="Trazado_122368" data-name="Trazado 122368" d="M472.462,652.525H412.474V638.588h59.988Zm-58.127-1.861H470.6V640.449H414.335Z" transform="translate(-193.196 -299.104)" fill="#401737"/>
          <path id="Trazado_122369" data-name="Trazado 122369" d="M472.462,669.52H412.474v-8.214h59.988Zm-58.127-1.861H470.6v-4.492H414.335Z" transform="translate(-193.196 -309.745)" fill="#401737"/>
          <path id="Trazado_122370" data-name="Trazado 122370" d="M283.214,652.526H273.2V638.588h11.355v1.861H275.06v10.216h8.153Z" transform="translate(-127.962 -299.105)" fill="#401737"/>
          <path id="Trazado_122371" data-name="Trazado 122371" d="M404.614,652.526H391.592v-1.861h11.161V640.449H391.592v-1.861h13.021Z" transform="translate(-183.416 -299.105)" fill="#401737"/>
          <path id="Trazado_122372" data-name="Trazado 122372" d="M349.161,669.519H273.2v-8.213h11.355v1.861H275.06v4.492H347.3v-5.422h1.861Z" transform="translate(-127.962 -309.745)" fill="#401737"/>
          <path id="Trazado_122373" data-name="Trazado 122373" d="M475.341,523.18H418.748v-6.467h56.593Zm-54.733-1.861h52.872v-2.745H420.609Z" transform="translate(-196.135 -242.02)" fill="#401737"/>
          <path id="Trazado_122374" data-name="Trazado 122374" d="M350.2,523.18H268.419v-6.467H350.2Zm-79.917-1.861h78.057v-2.745H270.28Z" transform="translate(-125.723 -242.02)" fill="#401737"/>
          <path id="Trazado_122375" data-name="Trazado 122375" d="M607.706,265.516h-13.3V207.785h13.3Zm-11.435-1.861h9.574v-54.01h-9.574Z" transform="translate(-278.412 -97.323)" fill="#401737"/>
          <path id="Trazado_122376" data-name="Trazado 122376" d="M617.618,265.411h-1.7V207.686l22.666-.124V239.87Zm.162-55.875v52.745L636.725,239.2V209.433Z" transform="translate(-288.487 -97.219)" fill="#401737"/>
          <path id="Trazado_122377" data-name="Trazado 122377" d="M607.775,204.4H592.692v-7.578h15.083Zm-13.222-1.861h11.361v-3.857H594.553Z" transform="translate(-277.607 -92.186)" fill="#401737"/>
          <path id="Trazado_122378" data-name="Trazado 122378" d="M639.886,204.4H617.339v-7.578h22.547ZM619.2,202.535h18.826v-3.857H619.2Z" transform="translate(-289.152 -92.186)" fill="#401737"/>
          <path id="Trazado_122379" data-name="Trazado 122379" d="M346.845,636.542H294.07V591.25h52.775Zm-50.914-1.861h49.054v-41.57H295.931Z" transform="translate(-137.738 -276.932)" fill="#401737"/>
          <path id="Trazado_122380" data-name="Trazado 122380" d="M471.17,573.373H432.938V557.246H471.17ZM434.8,571.512h34.51V559.107H434.8Z" transform="translate(-202.781 -261.005)" fill="#401737"/>
          <path id="Trazado_122381" data-name="Trazado 122381" d="M524.593,294.714H325.666v-1.861H523.732l53.727-63.418,1.419,1.2Z" transform="translate(-152.537 -107.464)" fill="#401737"/>
          <rect id="Rectángulo_34763" data-name="Rectángulo 34763" width="1.861" height="43.431" transform="translate(181.79 315.248)" fill="#401737"/>
          <rect id="Rectángulo_34764" data-name="Rectángulo 34764" width="25.457" height="1.861" transform="translate(157.263 328.398)" fill="#401737"/>
          <rect id="Rectángulo_34765" data-name="Rectángulo 34765" width="25.457" height="1.861" transform="translate(157.263 344.097)" fill="#401737"/>
          <rect id="Rectángulo_34766" data-name="Rectángulo 34766" width="1.861" height="37.124" transform="translate(234.093 217.853)" fill="#401737"/>
          <rect id="Rectángulo_34767" data-name="Rectángulo 34767" width="53.292" height="1.861" transform="translate(208.177 235.771)" fill="#401737"/>
          <rect id="Rectángulo_34768" data-name="Rectángulo 34768" width="1.861" height="37.124" transform="translate(317.891 217.853)" fill="#401737"/>
          <rect id="Rectángulo_34769" data-name="Rectángulo 34769" width="53.292" height="1.861" transform="translate(291.975 235.771)" fill="#401737"/>
          <rect id="Rectángulo_34770" data-name="Rectángulo 34770" width="1.861" height="76.868" transform="translate(319.031 275.623)" fill="#401737"/>
          <rect id="Rectángulo_34771" data-name="Rectángulo 34771" width="48.222" height="1.861" transform="translate(295.851 297.342)" fill="#401737"/>
          <path id="Trazado_122382" data-name="Trazado 122382" d="M1020.765,665.979H911.685v-1.861h106.277a10.048,10.048,0,0,0-13.878-3.878l-.382.221-.413-.155c-1.287-.484-2.621-.949-3.962-1.384l-.42-.136-.161-.412a4.734,4.734,0,0,0-6.624-2.481,4.883,4.883,0,0,0-.694.448l-1.136-1.473a6.729,6.729,0,0,1,.96-.619,6.594,6.594,0,0,1,9.05,3.034c1.094.359,2.179.738,3.238,1.13a11.915,11.915,0,0,1,16.744,6.3Z" transform="translate(-427.019 -306.083)" fill="#401737"/>
          <path id="Trazado_122383" data-name="Trazado 122383" d="M899.395,642.068l-.466-.27a10.073,10.073,0,0,0-5.042-1.361v-1.861a11.937,11.937,0,0,1,5.509,1.355,11.967,11.967,0,0,1,9.638-.61,16.474,16.474,0,0,1,27.689-6.608,11.84,11.84,0,0,1,3.63-.574,11.98,11.98,0,0,1,10.518,6.3,14.445,14.445,0,0,1,22.967-2.8l-1.345,1.287a12.585,12.585,0,0,0-20.329,3.038l-.268.528-.592-.019c-.321-.01-.642-.02-.964-.028l-.581-.015-.241-.528a10.045,10.045,0,0,0-12.736-5.233l-.6.229-.425-.482a14.612,14.612,0,0,0-25.19,6.395l-.261,1.134-1.049-.5a10,10,0,0,0-9.394.363Z" transform="translate(-418.682 -293.963)" fill="#401737"/>
          <rect id="Rectángulo_34772" data-name="Rectángulo 34772" width="37.597" height="1.861" transform="translate(67.585 332.503)" fill="#401737"/>
          <rect id="Rectángulo_34773" data-name="Rectángulo 34773" width="37.597" height="1.861" transform="translate(67.585 337.082)" fill="#401737"/>
          <rect id="Rectángulo_34774" data-name="Rectángulo 34774" width="37.597" height="1.861" transform="translate(67.585 341.661)" fill="#401737"/>
          <rect id="Rectángulo_34775" data-name="Rectángulo 34775" width="47.795" height="1.861" transform="translate(62.886 347.16)" fill="#401737"/>
          <rect id="Rectángulo_34776" data-name="Rectángulo 34776" width="1.861" height="28.368" transform="translate(73.015 329.88)" fill="#401737"/>
          <rect id="Rectángulo_34777" data-name="Rectángulo 34777" width="1.861" height="28.368" transform="translate(98.338 329.88)" fill="#401737"/>
          <path id="Trazado_122384" data-name="Trazado 122384" d="M1022.745,555.251h-1.861v-65.73A27.017,27.017,0,0,0,993.9,462.535H988.32v-1.861H993.9a28.88,28.88,0,0,1,28.848,28.847Z" transform="translate(-462.914 -215.772)" fill="#401737"/>
          <path id="Trazado_122385" data-name="Trazado 122385" d="M1051.437,555.251h-1.861v-65.73a28.88,28.88,0,0,1,28.848-28.847H1084v1.861h-5.578a27.017,27.017,0,0,0-26.987,26.986Z" transform="translate(-491.605 -215.772)" fill="#401737"/>
          <path id="Trazado_122386" data-name="Trazado 122386" d="M980.957,469.356H970.921a3.751,3.751,0,0,1-3.747-3.747v-2.538a2.4,2.4,0,0,1,2.4-2.4h15.136v4.934a3.752,3.752,0,0,1-3.748,3.747m-11.388-6.821a.536.536,0,0,0-.536.536v2.538a1.889,1.889,0,0,0,1.887,1.887h10.037a1.889,1.889,0,0,0,1.887-1.887v-3.074Z" transform="translate(-453.009 -215.772)" fill="#401737"/>
          <path id="Trazado_122387" data-name="Trazado 122387" d="M980.957,469.356H970.921a3.751,3.751,0,0,1-3.747-3.747v-4.934h15.135a2.4,2.4,0,0,1,2.4,2.4v2.538a3.752,3.752,0,0,1-3.748,3.747m-11.924-6.821v3.074a1.889,1.889,0,0,0,1.887,1.887h10.037a1.889,1.889,0,0,0,1.887-1.887v-2.538a.537.537,0,0,0-.536-.536Z" transform="translate(-453.009 -215.772)" fill="#401737"/>
          <path id="Trazado_122388" data-name="Trazado 122388" d="M1115.978,469.356h-10.037a3.752,3.752,0,0,1-3.748-3.747v-4.934h15.136a2.4,2.4,0,0,1,2.4,2.4v2.538a3.752,3.752,0,0,1-3.747,3.747m-11.924-6.821v3.074a1.889,1.889,0,0,0,1.887,1.887h10.037a1.889,1.889,0,0,0,1.887-1.887v-2.538a.536.536,0,0,0-.536-.536Z" transform="translate(-516.25 -215.772)" fill="#401737"/>
          <rect id="Rectángulo_34778" data-name="Rectángulo 34778" width="4.937" height="1.861" transform="translate(556.433 313.369)" fill="#401737"/>
          <path id="Trazado_122389" data-name="Trazado 122389" d="M1051.884,653.829h-15.52l3.863-17.43h7.794Zm-13.2-1.861h10.883l-3.037-13.709h-4.808Z" transform="translate(-485.416 -298.079)" fill="#401737"/>
          <path id="Trazado_122390" data-name="Trazado 122390" d="M1052.586,671.693h-23.4v-6.007h23.4Zm-21.535-1.861h19.674v-2.285h-19.674Z" transform="translate(-482.056 -311.797)" fill="#401737"/>
          <path id="Trazado_122391" data-name="Trazado 122391" d="M240.543,547.639a4.818,4.818,0,0,1-.263,2.507,6.284,6.284,0,0,1-3.037,3.384,4.907,4.907,0,0,1-2.458.542,7.579,7.579,0,0,1,.838-2.279,9.071,9.071,0,0,1,1.209-1.688,9.439,9.439,0,0,1,1.551-1.374,8.084,8.084,0,0,1,2.16-1.091" transform="translate(-109.97 -256.505)" fill="#fff"/>
          <path id="Trazado_122392" data-name="Trazado 122392" d="M226.747,545.993a4.818,4.818,0,0,1,1.786,1.78,6.278,6.278,0,0,1,.725,4.488,4.913,4.913,0,0,1-1.122,2.253,7.571,7.571,0,0,1-1.247-2.084,9.065,9.065,0,0,1-.555-2,9.407,9.407,0,0,1-.095-2.07,8.047,8.047,0,0,1,.507-2.366" transform="translate(-105.958 -255.734)" fill="#fff"/>
          <rect id="Rectángulo_34779" data-name="Rectángulo 34779" width="1.861" height="57.858" transform="translate(114.692 300.951)" fill="#401737"/>
          <rect id="Rectángulo_34780" data-name="Rectángulo 34780" width="15.393" height="1.861" transform="matrix(0.449, -0.893, 0.893, 0.449, 114.793, 325.324)" fill="#401737"/>
          <path id="Trazado_122393" data-name="Trazado 122393" d="M197.319,543.549a22.924,22.924,0,0,1-22.9-22.9c0-6.556,4.382-22.705,8.711-35.27,4.164-12.086,10.006-26.494,14.187-26.494s10.023,14.408,14.187,26.494c4.329,12.564,8.711,28.714,8.711,35.27a22.924,22.924,0,0,1-22.9,22.9m0-82.8c-1.5,0-6.048,6.722-12.428,25.24-4.989,14.479-8.609,29.057-8.609,34.663a21.037,21.037,0,0,0,42.074,0c0-5.606-3.621-20.184-8.61-34.663-6.38-18.518-10.928-25.24-12.428-25.24" transform="translate(-81.696 -214.936)" fill="#401737"/>
          <path id="Trazado_122394" data-name="Trazado 122394" d="M86.929,642.856H73.741l-.207-2.132h13.6Z" transform="translate(-34.442 -300.105)" fill="#6b8dfc"/>
          <rect id="Rectángulo_34781" data-name="Rectángulo 34781" width="18.226" height="1.861" transform="translate(36.78 339.688)" fill="#401737"/>
          <path id="Trazado_122395" data-name="Trazado 122395" d="M85.244,653.456H73.332l-1.907-14.482H87.151ZM74.963,651.6h8.649l1.417-10.76H73.547Z" transform="translate(-33.454 -299.285)" fill="#401737"/>
          <path id="Trazado_122396" data-name="Trazado 122396" d="M86.96,670.3H74.8v-7.587H86.96Zm-10.3-1.861H85.1v-3.865H76.657Z" transform="translate(-35.033 -310.405)" fill="#401737"/>
          <rect id="Rectángulo_34782" data-name="Rectángulo 34782" width="584.677" height="1.861" transform="translate(24.303 358.035)" fill="#401737"/>
          <path id="Trazado_122397" data-name="Trazado 122397" d="M119.914,695.769H8.055l40.639-19.986H160.553Z" transform="translate(-3.773 -316.526)" fill="#fff"/>
          <path id="Trazado_122398" data-name="Trazado 122398" d="M45.1,675.9,8.565,693.872h107.4L152.5,675.9Zm-.359-2.018h116.32l-44.741,22H0Z" transform="translate(0 -315.637)" fill="#370f31"/>
          <path id="Trazado_122399" data-name="Trazado 122399" d="M271.275,695.769H217.24l40.474-19.986h54.035Z" transform="translate(-101.752 -316.526)" fill="#fff"/>
          <path id="Trazado_122400" data-name="Trazado 122400" d="M254.134,675.9l-36.387,17.968h49.591L303.726,675.9Zm-.358-2.018h58.479l-44.56,22h-58.48Z" transform="translate(-97.993 -315.637)" fill="#370f31"/>
          <path id="Trazado_122401" data-name="Trazado 122401" d="M708.825,695.769H316.194l42.673-19.986H751.5Z" transform="translate(-148.1 -316.526)" fill="#fff"/>
          <path id="Trazado_122402" data-name="Trazado 122402" d="M355.094,675.9l-38.365,17.968H704.674L743.039,675.9Zm-.377-2.018H752.033l-46.981,22H307.735Z" transform="translate(-144.138 -315.637)" fill="#370f31"/>
          <path id="Trazado_122403" data-name="Trazado 122403" d="M521.66,695.769H467.625L508.1,675.783h54.035Z" transform="translate(-219.028 -316.526)" fill="#fff"/>
          <path id="Trazado_122404" data-name="Trazado 122404" d="M504.519,675.9l-36.387,17.968h49.591L554.111,675.9Zm-.358-2.018h58.479l-44.56,22H459.6Z" transform="translate(-215.27 -315.637)" fill="#370f31"/>
          <path id="Trazado_122405" data-name="Trazado 122405" d="M916.6,675.891a7.627,7.627,0,0,0-10.97-3.9q-1.344-.506-2.78-.972a3.933,3.933,0,0,0-6.078-1.689q-2.036-.482-4.194-.887a9.389,9.389,0,0,0-17.467-1.854l-.673-.02a7.622,7.622,0,0,0-9.662-3.969,10.793,10.793,0,0,0-18.607,4.724,18.443,18.443,0,0,1-10.952-.757,7.652,7.652,0,0,0-7.652,7.651,7.515,7.515,0,0,0,.2,1.669Z" transform="translate(-387.62 -308.644)" fill="#a6bbff"/>
          <path id="Trazado_122406" data-name="Trazado 122406" d="M929.063,689.3H853.313v-1.292h73.8a6.978,6.978,0,0,0-9.637-2.693l-.265.154-.287-.108c-.894-.336-1.82-.659-2.752-.961l-.291-.094-.112-.286a3.275,3.275,0,0,0-3.07-2.1,3.236,3.236,0,0,0-1.53.38,3.276,3.276,0,0,0-.482.311l-.79-1.023a4.743,4.743,0,0,1,.667-.43,4.579,4.579,0,0,1,6.285,2.107c.759.249,1.513.513,2.248.785a8.272,8.272,0,0,1,11.628,4.377Z" transform="translate(-399.678 -318.793)" fill="#401737"/>
          <path id="Trazado_122407" data-name="Trazado 122407" d="M844.778,672.7l-.324-.188a7,7,0,0,0-3.5-.945v-1.292a17.563,17.563,0,0,0,10.518.517A11.44,11.44,0,0,1,870.7,666.2a8.213,8.213,0,0,1,2.521-.4,8.32,8.32,0,0,1,7.3,4.374,10.031,10.031,0,0,1,15.949-1.947l-.934.893a8.739,8.739,0,0,0-14.117,2.11l-.186.367-.411-.013q-.333-.011-.669-.02l-.4-.01-.167-.367a6.976,6.976,0,0,0-8.845-3.634l-.417.158-.3-.334a10.147,10.147,0,0,0-17.493,4.441l-.181.787-.728-.349a6.947,6.947,0,0,0-6.523.252Z" transform="translate(-393.889 -310.378)" fill="#401737"/>
          <path id="Trazado_122408" data-name="Trazado 122408" d="M701.474,674.927a7.627,7.627,0,0,1,10.971-3.9q1.343-.506,2.78-.972a3.933,3.933,0,0,1,6.078-1.689q2.036-.482,4.194-.887a9.389,9.389,0,0,1,17.467-1.854l.674-.02a7.622,7.622,0,0,1,9.662-3.969,10.793,10.793,0,0,1,18.607,4.725,18.442,18.442,0,0,0,10.952-.757,7.652,7.652,0,0,1,7.652,7.651,7.516,7.516,0,0,1-.2,1.669Z" transform="translate(-328.559 -308.192)" fill="#a6bbff"/>
          <path id="Trazado_122409" data-name="Trazado 122409" d="M700.721,688.336H776.47v-1.292h-73.8a6.977,6.977,0,0,1,9.637-2.693l.265.154.287-.108c.894-.336,1.82-.659,2.752-.961l.291-.094.112-.286a3.288,3.288,0,0,1,4.6-1.723,3.346,3.346,0,0,1,.481.311l.79-1.023a4.68,4.68,0,0,0-.667-.43,4.579,4.579,0,0,0-6.285,2.107c-.759.249-1.512.513-2.249.785a8.272,8.272,0,0,0-11.628,4.377Z" transform="translate(-328.207 -318.342)" fill="#401737"/>
          <path id="Trazado_122410" data-name="Trazado 122410" d="M802.828,671.732l.324-.188a7,7,0,0,1,3.5-.945v-1.292a17.563,17.563,0,0,1-10.518.517,11.44,11.44,0,0,0-19.228-4.588,8.213,8.213,0,0,0-2.521-.4,8.32,8.32,0,0,0-7.3,4.374,10.031,10.031,0,0,0-15.949-1.947l.934.893a8.739,8.739,0,0,1,14.117,2.109l.186.367.411-.013c.222-.007.445-.014.669-.02l.4-.01.167-.367a6.976,6.976,0,0,1,8.845-3.634l.417.158.3-.334a10.147,10.147,0,0,1,17.493,4.441l.181.787.728-.349a6.947,6.947,0,0,1,6.523.252Z" transform="translate(-351.819 -309.926)" fill="#401737"/>
          <path id="Trazado_122411" data-name="Trazado 122411" d="M40.719,685.762a7.627,7.627,0,0,1,10.97-3.9q1.344-.506,2.78-.972a3.933,3.933,0,0,1,6.078-1.689q2.036-.482,4.194-.887a9.389,9.389,0,0,1,17.467-1.854l.674-.02a7.622,7.622,0,0,1,9.662-3.969A10.793,10.793,0,0,1,111.15,677.2a7.591,7.591,0,0,1,7.126.275,7.641,7.641,0,0,1,11.477,6.619,7.512,7.512,0,0,1-.2,1.669Z" transform="translate(-19.072 -313.267)" fill="#a6bbff"/>
          <path id="Trazado_122412" data-name="Trazado 122412" d="M39.965,699.171h75.749v-1.292h-73.8a6.979,6.979,0,0,1,9.638-2.693l.264.154.287-.108c.894-.336,1.82-.659,2.751-.961l.292-.094.111-.286a3.288,3.288,0,0,1,4.6-1.723,3.336,3.336,0,0,1,.481.311l.79-1.023a4.744,4.744,0,0,0-.667-.43,4.578,4.578,0,0,0-6.285,2.107c-.759.249-1.513.513-2.248.785A8.273,8.273,0,0,0,40.3,698.294Z" transform="translate(-18.719 -323.417)" fill="#401737"/>
          <path id="Trazado_122413" data-name="Trazado 122413" d="M142.073,682.567l.324-.188a7,7,0,0,1,3.5-.945v-1.292a8.283,8.283,0,0,0-3.826.941,8.308,8.308,0,0,0-6.693-.424,11.44,11.44,0,0,0-19.228-4.588,8.215,8.215,0,0,0-2.521-.4,8.32,8.32,0,0,0-7.3,4.374A10.031,10.031,0,0,0,90.378,678.1l.934.893a8.739,8.739,0,0,1,14.117,2.109l.186.367.411-.013c.223-.007.445-.014.669-.02l.4-.01.167-.367a6.976,6.976,0,0,1,8.845-3.633l.417.158.3-.334a10.147,10.147,0,0,1,17.493,4.441l.181.787.728-.349a6.947,6.947,0,0,1,6.523.252Z" transform="translate(-42.332 -315.001)" fill="#401737"/>
          <rect id="Rectángulo_34783" data-name="Rectángulo 34783" width="2.126" height="18.263" transform="translate(245.086 355.81)" fill="#370f31"/>
          <rect id="Rectángulo_34784" data-name="Rectángulo 34784" width="2.126" height="18.263" transform="translate(253.354 349.363)" fill="#370f31"/>
          <path id="Trazado_122414" data-name="Trazado 122414" d="M459.31,665.693h-8.434a1.969,1.969,0,0,1-.463-.056c-.029-.008-.094-.026-.122-.036a2.049,2.049,0,0,1-.268-.1c-.03-.012-.06-.027-.088-.04l-.028-.015-.023-.013c-.027-.016-.054-.034-.08-.052a1.8,1.8,0,0,1-.263-.2c-.022-.018-.045-.038-.063-.056a2.041,2.041,0,0,1-.3-.376c-.017-.026-.053-.09-.066-.118a1.968,1.968,0,0,1-.141-.333c-.016-.049-.029-.09-.039-.133a1.964,1.964,0,0,1-.061-.48v-3.392a6.2,6.2,0,0,1,3.356-5.526,2.918,2.918,0,0,0,.438-.471,1.072,1.072,0,0,1,.282-.259l2.993-1.887,2.521-1.805c.36-.262,3.636-2.583,5.981-2.422a6.509,6.509,0,0,1,5.542,5.093,6.227,6.227,0,0,1,.173,1.436v3.392a1.982,1.982,0,0,1-.052.444c-.008.036-.027.1-.038.134a1.874,1.874,0,0,1-.115.3l-.006.012c-.02.039-.041.078-.063.116a1.961,1.961,0,0,1-.192.274,1.127,1.127,0,0,1-.086.1,1.949,1.949,0,0,1-.347.294l0-.008c-.421.288-2.01,1.331-8.557,5.627a2.006,2.006,0,0,1-1.384.559m-8.671-1.881-.582.334Zm3.6-8.073a3.7,3.7,0,0,1-1.03.917,4.069,4.069,0,0,0-2.209,3.62v3.292l8.258,0a1.07,1.07,0,0,1,.178-.146s7.9-5.183,8.6-5.644l0-3.325a4.108,4.108,0,0,0-.115-.945,4.406,4.406,0,0,0-3.622-3.462c-1.195-.074-3.447,1.2-4.589,2.026L457.15,653.9c-.017.012-.034.024-.052.035Zm-3.442,7.779h0Zm0,0h0m0,0h0Zm18.2-5.261h0Z" transform="translate(-210.243 -303.473)" fill="#370f31"/>
          <path id="Trazado_122415" data-name="Trazado 122415" d="M459.158,671.935h-9.5a1.064,1.064,0,0,1-1.063-1.063v-3.82a5.812,5.812,0,0,1,11.623,0v3.82a1.064,1.064,0,0,1-1.063,1.063m-8.434-2.126h7.37v-2.756a3.685,3.685,0,0,0-7.37,0Z" transform="translate(-210.116 -309.715)" fill="#370f31"/>
        </g>
      </g>
      <g id="Grupo_87543" data-name="Grupo 87543">
        <g id="Grupo_87542" data-name="Grupo 87542" clip-path="url(#clip-path)">
          <path id="Trazado_122419" data-name="Trazado 122419" d="M469.93,659.191a.9.9,0,0,0,.058-.154c0-.016.012-.033.015-.049a.928.928,0,0,0,.025-.208v-3.392a5.136,5.136,0,0,0-.144-1.19,5.464,5.464,0,0,0-4.582-4.277c-2.028-.142-5.288,2.226-5.288,2.226l-2.546,1.823-3.02,1.9a3.4,3.4,0,0,1-.8.775,5.144,5.144,0,0,0-2.783,4.564v3.41a.948.948,0,0,0,.031.228c.005.02.012.039.018.059a.966.966,0,0,0,.068.158c.01.018.018.035.028.052a.976.976,0,0,0,.137.175c.006.006.014.011.021.017a.934.934,0,0,0,.161.12c.009.005.015.013.024.018s.022.008.033.013a.888.888,0,0,0,.149.059c.02.006.038.013.058.018a.921.921,0,0,0,.215.027h8.434a.938.938,0,0,0,.7-.321l8.654-5.679a.922.922,0,0,0,.164-.14c.014-.015.026-.031.039-.047a.971.971,0,0,0,.089-.127c.012-.02.022-.039.033-.06" transform="translate(-211.18 -304.409)" fill="#a6bbff"/>
        </g>
      </g>
      <g id="Grupo_87547" data-name="Grupo 87547">
        <g id="Grupo_87546" data-name="Grupo 87546" clip-path="url(#clip-path)">
          <path id="Trazado_122423" data-name="Trazado 122423" d="M459.158,671.935h-9.5a1.064,1.064,0,0,1-1.063-1.063v-3.82a5.812,5.812,0,0,1,11.623,0v3.82a1.064,1.064,0,0,1-1.063,1.063m-8.434-2.126h7.37v-2.756a3.685,3.685,0,0,0-7.37,0Z" transform="translate(-210.116 -309.715)" fill="#370f31"/>
          <rect id="Rectángulo_34787" data-name="Rectángulo 34787" width="8.24" height="2.126" transform="translate(173.935 361.49) rotate(-29.251)" fill="#370f31"/>
          <rect id="Rectángulo_34788" data-name="Rectángulo 34788" width="11.924" height="2.126" transform="matrix(0.873, -0.489, 0.489, 0.873, 156.837, 371.062)" fill="#370f31"/>
          <rect id="Rectángulo_34789" data-name="Rectángulo 34789" width="8.24" height="2.126" transform="matrix(0.872, -0.489, 0.489, 0.872, 142.953, 378.836)" fill="#370f31"/>
        </g>
      </g>
    </g>
    <circle id="Elipse_4797" data-name="Elipse 4797" cx="15" cy="15" r="15" transform="translate(729 1003)" fill="#fc5f65"/>
    <circle id="Elipse_4798" data-name="Elipse 4798" cx="6" cy="6" r="6" transform="translate(778 1144)" fill="#fc5f65"/>
    <path id="Trazado_121621" data-name="Trazado 121621" d="M-800.269-10575.044l-37.216-124.826" transform="translate(1584.857 11726.028)" fill="none" stroke="#fc5f65" stroke-width="3" stroke-dasharray="7"/>
    <circle id="Elipse_4797-2" data-name="Elipse 4797" cx="15" cy="15" r="15" transform="translate(611 1053)" fill="#fc5f65"/>
    <circle id="Elipse_4798-2" data-name="Elipse 4798" cx="6" cy="6" r="6" transform="translate(693 1137)" fill="#fc5f65"/>
    <path id="Trazado_121621-2" data-name="Trazado 121621" d="M-762.974-10623.078l-74.51-76.792" transform="translate(1463.341 11767)" fill="none" stroke="#fc5f65" stroke-width="3" stroke-dasharray="7"/>
    <circle id="Elipse_4797-3" data-name="Elipse 4797" cx="15" cy="15" r="15" transform="translate(901 1053)" fill="#fc5f65"/>
    <circle id="Elipse_4798-3" data-name="Elipse 4798" cx="6" cy="6" r="6" transform="translate(828 1166)" fill="#fc5f65"/>
    <path id="Trazado_121621-3" data-name="Trazado 121621" d="M-854.88-10596.427l76.023-103.443" transform="translate(1691 11767)" fill="none" stroke="#fc5f65" stroke-width="3" stroke-dasharray="7"/>
    <circle id="Elipse_4797-4" data-name="Elipse 4797" cx="15" cy="15" r="15" transform="translate(993 1178)" fill="#fc5f65"/>
    <circle id="Elipse_4798-4" data-name="Elipse 4798" cx="6" cy="6" r="6" transform="translate(931 1274)" fill="#fc5f65"/>
    <path id="Trazado_121621-4" data-name="Trazado 121621" d="M-841.581-10623.169l64.292-82.878" transform="translate(1779.857 11903.87)" fill="none" stroke="#fc5f65" stroke-width="3" stroke-dasharray="7"/>
    <circle id="Elipse_4797-5" data-name="Elipse 4797" cx="15" cy="15" r="15" transform="translate(518 1211)" fill="#fc5f65"/>
    <circle id="Elipse_4798-5" data-name="Elipse 4798" cx="6" cy="6" r="6" transform="translate(679 1256)" fill="#fc5f65"/>
    <path id="Trazado_121621-5" data-name="Trazado 121621" d="M-759.341-10617.768l-145.148-35.063" transform="translate(1444.341 11880)" fill="none" stroke="#fc5f65" stroke-width="3" stroke-dasharray="7"/>
    <circle id="Elipse_4797-6" data-name="Elipse 4797" cx="15" cy="15" r="15" transform="translate(685 1442)" fill="#fc5f65"/>
    <circle id="Elipse_4798-6" data-name="Elipse 4798" cx="6" cy="6" r="6" transform="translate(752 1386)" fill="#fc5f65"/>
    <circle id="Elipse_4797-7" data-name="Elipse 4797" cx="15" cy="15" r="15" transform="translate(492 1320)" fill="#fc5f65"/>
    <circle id="Elipse_4798-7" data-name="Elipse 4798" cx="6" cy="6" r="6" transform="translate(630 1354)" fill="#fc5f65"/>
    <path id="Trazado_121621-6" data-name="Trazado 121621" d="M-765.8-10652l-116.723-22.769" transform="translate(1401.128 12012.565)" fill="none" stroke="#fc5f65" stroke-width="3" stroke-dasharray="7"/>
    <circle id="Elipse_4797-8" data-name="Elipse 4797" cx="15" cy="15" r="15" transform="translate(514 1442)" fill="#fc5f65"/>
    <circle id="Elipse_4798-8" data-name="Elipse 4798" cx="6" cy="6" r="6" transform="translate(612 1386)" fill="#fc5f65"/>
    <path id="Trazado_121621-7" data-name="Trazado 121621" d="M-763.081-10742.831l-82.964,55.256" transform="translate(1380.341 12135.87)" fill="none" stroke="#fc5f65" stroke-width="3" stroke-dasharray="7"/>
    <circle id="Elipse_4797-9" data-name="Elipse 4797" cx="15" cy="15" r="15" transform="translate(819 1442)" fill="#fc5f65"/>
    <circle id="Elipse_4799" data-name="Elipse 4799" cx="15" cy="15" r="15" transform="translate(760 1442)" fill="#fc5f65"/>
    <circle id="Elipse_4798-9" data-name="Elipse 4798" cx="6" cy="6" r="6" transform="translate(830 1386)" fill="#fc5f65"/>
    <circle id="Elipse_4800" data-name="Elipse 4800" cx="6" cy="6" r="6" transform="translate(782 1358)" fill="#fc5f65"/>
    <path id="Trazado_121621-8" data-name="Trazado 121621" d="M-832.666-10738.619l-5.358,52.218" transform="translate(1668.027 12131.452)" fill="none" stroke="#fc5f65" stroke-width="3" stroke-dasharray="7"/>
    <path id="Trazado_122425" data-name="Trazado 122425" d="M-849.027-10724.7l-9.229,87.481" transform="translate(1637.027 12089.452)" fill="none" stroke="#fc5f65" stroke-width="3" stroke-dasharray="7"/>
    <path id="Trazado_122424" data-name="Trazado 122424" d="M-786.615-10786.979l-58.328,62.43" transform="translate(1544.341 12179.818)" fill="none" stroke="#fc5f65" stroke-width="3" stroke-dasharray="7"/>
    <circle id="Elipse_4797-10" data-name="Elipse 4797" cx="15" cy="15" r="15" transform="translate(636 1442)" fill="#fc5f65"/>
    <circle id="Elipse_4798-10" data-name="Elipse 4798" cx="6" cy="6" r="6" transform="translate(705 1386)" fill="#fc5f65"/>
    <path id="Trazado_121621-9" data-name="Trazado 121621" d="M-797.066-10722.1l-55.677,54.674" transform="translate(1507.475 12115.736)" fill="none" stroke="#fc5f65" stroke-width="3" stroke-dasharray="7"/>
    <circle id="Elipse_4797-11" data-name="Elipse 4797" cx="15" cy="15" r="15" transform="translate(988 1442)" fill="#fc5f65"/>
    <circle id="Elipse_4798-11" data-name="Elipse 4798" cx="6" cy="6" r="6" transform="translate(964 1378)" fill="#fc5f65"/>
    <path id="Trazado_121621-10" data-name="Trazado 121621" d="M-852.743-10699.87l30.633,64.38" transform="translate(1822.259 12083.797)" fill="none" stroke="#fc5f65" stroke-width="3" stroke-dasharray="7"/>
    <path id="Trazado_125321" data-name="Trazado 125321" d="M1.668,0H-.59V-8.715l-2.7.832V-9.7l4.711-1.687h.242Z" transform="translate(626 1074)" fill="#fff"/>
    <path id="Trazado_125319" data-name="Trazado 125319" d="M-1.52-6.687h1.2a1.7,1.7,0,0,0,1.273-.43,1.574,1.574,0,0,0,.414-1.141,1.392,1.392,0,0,0-.41-1.07A1.59,1.59,0,0,0-.168-9.711a1.666,1.666,0,0,0-1.086.355,1.137,1.137,0,0,0-.437.926H-3.949a2.777,2.777,0,0,1,.48-1.6,3.2,3.2,0,0,1,1.344-1.105,4.485,4.485,0,0,1,1.9-.4,4.253,4.253,0,0,1,2.828.863A2.945,2.945,0,0,1,3.629-8.289a2.394,2.394,0,0,1-.477,1.438A3.1,3.1,0,0,1,1.9-5.844,2.826,2.826,0,0,1,3.336-4.812a2.8,2.8,0,0,1,.473,1.625A2.994,2.994,0,0,1,2.7-.758,4.445,4.445,0,0,1-.223.156a4.214,4.214,0,0,1-2.785-.9A2.934,2.934,0,0,1-4.09-3.117h2.258a1.308,1.308,0,0,0,.48,1.047,1.771,1.771,0,0,0,1.184.406A1.779,1.779,0,0,0,1.094-2.09a1.47,1.47,0,0,0,.457-1.129q0-1.7-1.875-1.7h-1.2Z" transform="translate(916 1074)" fill="#fff"/>
    <path id="Trazado_125320" data-name="Trazado 125320" d="M2.863-4.281H4.152v1.82H2.863V0H.605V-2.461H-4.059l-.1-1.422L.582-11.375H2.863Zm-4.773,0H.605V-8.3l-.148.258Z" transform="translate(1008 1199)" fill="#fff"/>
    <path id="Trazado_125322" data-name="Trazado 125322" d="M-2.922,0H-5.18V-8.715l-2.7.832V-9.7l4.711-1.687h.242ZM8.57,0H.773V-1.547l3.68-3.922A9.078,9.078,0,0,0,5.574-6.914a2.322,2.322,0,0,0,.363-1.172,1.738,1.738,0,0,0-.383-1.191,1.382,1.382,0,0,0-1.094-.434,1.49,1.49,0,0,0-1.207.527A2.089,2.089,0,0,0,2.813-7.8H.547a3.729,3.729,0,0,1,.5-1.9,3.5,3.5,0,0,1,1.4-1.348A4.262,4.262,0,0,1,4.5-11.531a4.036,4.036,0,0,1,2.73.844A2.985,2.985,0,0,1,8.2-8.3a3.825,3.825,0,0,1-.437,1.719,9.551,9.551,0,0,1-1.5,2.039L3.68-1.82H8.57Z" transform="translate(533 1232)" fill="#fff"/>
    <path id="Trazado_125326" data-name="Trazado 125326" d="M3.6-8.352a2.646,2.646,0,0,1-.414,1.469A2.98,2.98,0,0,1,2.043-5.859a3.3,3.3,0,0,1,1.313,1.1A2.816,2.816,0,0,1,3.84-3.117,2.981,2.981,0,0,1,2.809-.723,4.183,4.183,0,0,1,0,.156,4.2,4.2,0,0,1-2.809-.727,2.974,2.974,0,0,1-3.848-3.117a2.834,2.834,0,0,1,.484-1.648,3.239,3.239,0,0,1,1.3-1.094A2.95,2.95,0,0,1-3.2-6.883a2.664,2.664,0,0,1-.41-1.469,2.948,2.948,0,0,1,.969-2.316A3.814,3.814,0,0,1,0-11.531a3.839,3.839,0,0,1,2.629.855A2.937,2.937,0,0,1,3.6-8.352ZM1.574-3.281a1.638,1.638,0,0,0-.43-1.187A1.532,1.532,0,0,0-.012-4.914a1.529,1.529,0,0,0-1.148.441,1.635,1.635,0,0,0-.43,1.191,1.634,1.634,0,0,0,.422,1.172A1.537,1.537,0,0,0,0-1.664a1.533,1.533,0,0,0,1.152-.43A1.631,1.631,0,0,0,1.574-3.281ZM1.34-8.242A1.563,1.563,0,0,0,.988-9.309,1.247,1.247,0,0,0,0-9.711a1.256,1.256,0,0,0-.984.391A1.553,1.553,0,0,0-1.34-8.242,1.633,1.633,0,0,0-.988-7.148,1.23,1.23,0,0,0,0-6.734a1.219,1.219,0,0,0,.988-.414A1.645,1.645,0,0,0,1.34-8.242Z" transform="translate(700 1463)" fill="#fff"/>
    <path id="Trazado_125323" data-name="Trazado 125323" d="M-2.922,0H-5.18V-8.715l-2.7.832V-9.7l4.711-1.687h.242Zm9.18,0H4V-8.715l-2.7.832V-9.7l4.711-1.687h.242Z" transform="translate(507 1341)" fill="#fff"/>
    <path id="Trazado_125324" data-name="Trazado 125324" d="M-2.922,0H-5.18V-8.715l-2.7.832V-9.7l4.711-1.687h.242ZM8.43-4.7a5.762,5.762,0,0,1-.977,3.609A3.409,3.409,0,0,1,4.594.156,3.433,3.433,0,0,1,1.75-1.07,5.594,5.594,0,0,1,.742-4.586V-6.68A5.687,5.687,0,0,1,1.73-10.3a3.434,3.434,0,0,1,2.848-1.234,3.437,3.437,0,0,1,2.844,1.223A5.576,5.576,0,0,1,8.43-6.8Zm-2.258-2.3a4.165,4.165,0,0,0-.387-2.061,1.307,1.307,0,0,0-1.207-.645A1.284,1.284,0,0,0,3.4-9.1,3.9,3.9,0,0,0,3-7.177v2.768a4.372,4.372,0,0,0,.379,2.068,1.29,1.29,0,0,0,1.215.676,1.268,1.268,0,0,0,1.2-.649A4.268,4.268,0,0,0,6.172-4.3Z" transform="translate(529 1463)" fill="#fff"/>
    <path id="Trazado_125328" data-name="Trazado 125328" d="M2.309-11.492v1.859H2.09a3.836,3.836,0,0,0-2.465.8A3.238,3.238,0,0,0-1.5-6.687,3.075,3.075,0,0,1,.793-7.609,2.9,2.9,0,0,1,3.152-6.547a4.259,4.259,0,0,1,.875,2.8,4.19,4.19,0,0,1-.48,2.008,3.446,3.446,0,0,1-1.359,1.4A3.949,3.949,0,0,1,.2.156a3.689,3.689,0,0,1-2.9-1.25A4.852,4.852,0,0,1-3.809-4.43v-.812a7.3,7.3,0,0,1,.7-3.27,5.127,5.127,0,0,1,2.008-2.2,5.884,5.884,0,0,1,3.035-.785Zm-2.2,5.7A1.8,1.8,0,0,0-.887-5.5a1.715,1.715,0,0,0-.656.753v.686A3.04,3.04,0,0,0-1.1-2.3a1.439,1.439,0,0,0,1.25.635,1.423,1.423,0,0,0,1.176-.573,2.337,2.337,0,0,0,.449-1.485,2.333,2.333,0,0,0-.453-1.5A1.477,1.477,0,0,0,.105-5.789Z" transform="translate(834 1463)" fill="#fff"/>
    <path id="Trazado_125327" data-name="Trazado 125327" d="M3.918-10.115-.48,0H-2.863L1.543-9.555H-4.113v-1.82H3.918Z" transform="translate(775 1463)" fill="#fff"/>
    <path id="Trazado_125325" data-name="Trazado 125325" d="M1.465-4.547A2.851,2.851,0,0,1-.6-3.68,3.049,3.049,0,0,1-3.012-4.715a4.091,4.091,0,0,1-.906-2.793A4.357,4.357,0,0,1-3.43-9.559a3.582,3.582,0,0,1,1.363-1.453A3.782,3.782,0,0,1-.1-11.531a3.617,3.617,0,0,1,2,.563A3.7,3.7,0,0,1,3.262-9.352a5.806,5.806,0,0,1,.492,2.414V-6.1A6.579,6.579,0,0,1,2.34-1.633,5.346,5.346,0,0,1-1.668.1l-.555.008V-1.773l.5-.008Q1.223-1.914,1.465-4.547ZM-.043-5.406A1.579,1.579,0,0,0,.9-5.687a1.879,1.879,0,0,0,.6-.68V-7.3a3.1,3.1,0,0,0-.437-1.781A1.358,1.358,0,0,0-.113-9.711,1.318,1.318,0,0,0-1.23-9.09a2.641,2.641,0,0,0-.437,1.559A2.57,2.57,0,0,0-1.242-6,1.387,1.387,0,0,0-.043-5.406Z" transform="translate(651 1463)" fill="#fff"/>
    <path id="Trazado_125329" data-name="Trazado 125329" d="M-3.48-5.594l.656-5.781H3.551v1.883H-.973l-.281,2.445a3.58,3.58,0,0,1,1.711-.43A3.279,3.279,0,0,1,3-6.469a4.026,4.026,0,0,1,.922,2.82,4.124,4.124,0,0,1-.465,1.973A3.281,3.281,0,0,1,2.129-.324,4.158,4.158,0,0,1,.082.156,4.416,4.416,0,0,1-1.832-.262,3.4,3.4,0,0,1-3.227-1.437,3.2,3.2,0,0,1-3.77-3.164h2.234a1.669,1.669,0,0,0,.5,1.105,1.573,1.573,0,0,0,1.113.395,1.388,1.388,0,0,0,1.18-.551,2.551,2.551,0,0,0,.414-1.559,2.11,2.11,0,0,0-.477-1.484A1.749,1.749,0,0,0-.16-5.773a1.954,1.954,0,0,0-1.3.422l-.219.2Z" transform="translate(1003 1463)" fill="#fff"/>
    <path id="Trazado_125318" data-name="Trazado 125318" d="M3.98,0h-7.8V-1.547l3.68-3.922A9.078,9.078,0,0,0,.984-6.914a2.322,2.322,0,0,0,.363-1.172A1.738,1.738,0,0,0,.965-9.277,1.382,1.382,0,0,0-.129-9.711a1.49,1.49,0,0,0-1.207.527A2.089,2.089,0,0,0-1.777-7.8H-4.043a3.729,3.729,0,0,1,.5-1.9,3.5,3.5,0,0,1,1.4-1.348A4.262,4.262,0,0,1-.09-11.531a4.036,4.036,0,0,1,2.73.844A2.985,2.985,0,0,1,3.613-8.3a3.825,3.825,0,0,1-.437,1.719,9.551,9.551,0,0,1-1.5,2.039L-.91-1.82H3.98Z" transform="translate(744 1024)" fill="#fff"/>
  </g>
</svg>
