<svg xmlns="http://www.w3.org/2000/svg" xmlns:xlink="http://www.w3.org/1999/xlink" width="192.731" height="243" viewBox="0 0 192.731 243">
  <defs>
    <clipPath id="clip-path">
      <rect id="Rectángulo_34919" data-name="Rectángulo 34919" width="34.007" height="19.741" fill="none"/>
    </clipPath>
    <clipPath id="clip-path-2">
      <path id="Trazado_123112" data-name="Trazado 123112" d="M687.547,448.59l-2.042-1.155a15.307,15.307,0,0,0-13.851.08l-13.194,7.771c-2.681,1.579-2.637,4.115.1,5.663l6.125,3.466a10.839,10.839,0,0,0,9.808-.057l13.193-7.771c3.787-2.23,3.725-5.811-.138-8m-.807,2.229h0a2.069,2.069,0,0,1-1.872.011l-2.917-1.65c-.522-.3-.53-.779-.019-1.081a2.068,2.068,0,0,1,1.872-.011l2.917,1.65c.522.3.53.779.019,1.081" transform="translate(-656.479 -445.819)" fill="none"/>
    </clipPath>
    <linearGradient id="linear-gradient" x1="-2.305" y1="6.882" x2="-2.302" y2="6.882" gradientUnits="objectBoundingBox">
      <stop offset="0" stop-color="#3bbfff"/>
      <stop offset="0.297" stop-color="#2f92ef"/>
      <stop offset="0.605" stop-color="#246ae1"/>
      <stop offset="0.85" stop-color="#1e52d9"/>
      <stop offset="1" stop-color="#1c49d6"/>
    </linearGradient>
    <clipPath id="clip-path-3">
      <rect id="Rectángulo_34921" data-name="Rectángulo 34921" width="33.813" height="19.218" fill="none"/>
    </clipPath>
    <clipPath id="clip-path-4">
      <path id="Trazado_123113" data-name="Trazado 123113" d="M533.848,352.944c-3.267-1.934-7.55-2.58-13.458.747-2.452,1.381-2.351,2.964-.839,4.472l-5.147,2.9-.022,1.012-1.085.611-.789.444-.269.792-1.333.142-.279.766-1.333.142-.04.907h-1.572l-.279.766-1.333.142-.04.907-1.6-.014-1.779,1,.4,1.606,2.77.273,1.779-1,.016-.926h1.572l.28-.766,1.333-.142.04-.907h1.572l.279-.766,1.333-.142.279-.766,1.377-.136.789-.444,1.085-.611,1.753.013,5.147-2.9a9.209,9.209,0,0,0,7.765-.374c5.859-3.3,4.895-5.816,1.628-7.749m-3.513-.1,3.607,2.135c.279.165.273.429-.013.59a1.13,1.13,0,0,1-1.023-.007l-3.607-2.135c-.279-.165-.273-.429.013-.59a1.13,1.13,0,0,1,1.023.007" transform="translate(-502.648 -351.344)" fill="none"/>
    </clipPath>
    <linearGradient id="linear-gradient-2" x1="-1.793" y1="7.67" x2="-1.79" y2="7.67" xlink:href="#linear-gradient"/>
    <clipPath id="clip-path-5">
      <rect id="Rectángulo_34922" data-name="Rectángulo 34922" width="32.403" height="1.8" fill="none"/>
    </clipPath>
    <clipPath id="clip-path-6">
      <rect id="Rectángulo_34923" data-name="Rectángulo 34923" width="27.842" height="1.277" fill="none"/>
    </clipPath>
    <clipPath id="clip-path-7">
      <rect id="Rectángulo_34927" data-name="Rectángulo 34927" width="17.991" height="5.734" fill="none"/>
    </clipPath>
    <clipPath id="clip-path-8">
      <rect id="Rectángulo_34925" data-name="Rectángulo 34925" width="17.991" height="1.24" fill="none"/>
    </clipPath>
    <clipPath id="clip-path-9">
      <rect id="Rectángulo_34926" data-name="Rectángulo 34926" width="15.182" height="1.748" fill="none"/>
    </clipPath>
  </defs>
  <g id="Grupo_88131" data-name="Grupo 88131" transform="translate(-600 -688)">
    <g id="Grupo_87863" data-name="Grupo 87863">
      <path id="Rectángulo_34017" data-name="Rectángulo 34017" d="M0,0H96a77,77,0,0,1,77,77V184.116a0,0,0,0,1,0,0H0a0,0,0,0,1,0,0V0A0,0,0,0,1,0,0Z" transform="translate(610 726)" fill="#a6bbff"/>
      <g id="Grupo_87372" data-name="Grupo 87372" transform="translate(619.708 726.567)">
        <path id="Trazado_114646" data-name="Trazado 114646" d="M151.4,72.681c-1.152,17.828-14.827,34.849-33.347,35.905-21.272,1.63-40.8-10.036-61.986-10.159-10.8-.926-20.938,3.211-31.467,4.547C.823,103.846-2.8,75.9,1.635,57.886,20.34-27.038,152.7-15.484,151.4,72.681Z" transform="translate(1.291 13.295)" fill="#e1e8ff"/>
      </g>
      <g id="Grupo_87683" data-name="Grupo 87683" transform="translate(10218.42 11082.288)">
        <g id="Grupo_87678" data-name="Grupo 87678" transform="translate(-9618.42 -10370.288)">
          <path id="Trazado_123082" data-name="Trazado 123082" d="M1297.2,1214.132l-4.795-2.787-.039-13.687,4.795,2.786Z" transform="translate(-1129.004 -1046.266)" fill="#c8a376"/>
          <path id="Trazado_123083" data-name="Trazado 123083" d="M1297.163,1193.207l-4.8-2.786,1.814-1.047,4.794,2.786Z" transform="translate(-1129.004 -1039.029)" fill="#f4e0ce"/>
          <path id="Trazado_123084" data-name="Trazado 123084" d="M1311.426,1163.447l-4.794-2.786-.012-4.155,4.8,2.786Z" transform="translate(-1141.455 -1010.315)" fill="#c8a376"/>
          <path id="Trazado_123085" data-name="Trazado 123085" d="M1297.071,1160.339l-4.794-2.786,1.813-1.047,4.795,2.786Z" transform="translate(-1128.925 -1010.315)" fill="#f4e0ce"/>
          <path id="Trazado_123086" data-name="Trazado 123086" d="M893.938,1426.055l-4.795-2.786,1.8-1.04,4.794,2.786Z" transform="translate(-776.75 -1242.449)" fill="#f4e0ce"/>
          <path id="Trazado_123087" data-name="Trazado 123087" d="M908.1,1195.96l-4.8-2.786,49.168-28.387,4.794,2.787Z" transform="translate(-789.125 -1017.55)" fill="#f4e0ce"/>
          <path id="Trazado_123088" data-name="Trazado 123088" d="M893.846,1393.185l-4.794-2.786,1.8-1.041,4.8,2.786Z" transform="translate(-776.67 -1213.734)" fill="#f4e0ce"/>
          <path id="Trazado_123089" data-name="Trazado 123089" d="M979.764,1178.547l.012,4.155-1.813,1.047-49.168,28.387-1.8,1.041-.012-4.155,1.8-1.041,49.167-28.387Z" transform="translate(-809.804 -1029.571)" fill="#846340"/>
          <path id="Trazado_123090" data-name="Trazado 123090" d="M893.858,1404.532l-4.795-2.786-.011-4.155,4.794,2.786Z" transform="translate(-776.67 -1220.925)" fill="#c8a376"/>
          <path id="Trazado_123091" data-name="Trazado 123091" d="M1295.614,653.809l-4.795-2.787-.211-74.34,4.795,2.786Z" transform="translate(-1127.467 -503.786)" fill="#c8a376"/>
          <path id="Trazado_123092" data-name="Trazado 123092" d="M873.216,881.149l4.795,2.787-.273-96.35-4.795-2.786Z" transform="translate(-762.598 -685.594)" fill="#c8a376"/>
          <path id="Trazado_123093" data-name="Trazado 123093" d="M877.738,562.547l-4.8-2.787,56.4-32.562,4.795,2.786Z" transform="translate(-762.597 -460.556)" fill="#f4e0ce"/>
          <path id="Trazado_123094" data-name="Trazado 123094" d="M910.876,581.8l.273,96.35,3.616-2.088-.039-13.688-1.8,1.041-.012-4.155,1.8-1.04-.211-74.34L963.672,555.5l.21,74.341,1.814-1.047.011,4.155-1.813,1.047.038,13.688,3.616-2.088-.273-96.35Z" transform="translate(-795.736 -479.813)" fill="#846340"/>
          <path id="Trazado_123095" data-name="Trazado 123095" d="M620.423,829.777l-4.794-2.786-.039-13.688,4.794,2.786Z" transform="translate(-537.775 -710.496)" fill="#c8a376"/>
          <path id="Trazado_123096" data-name="Trazado 123096" d="M620.384,808.855l-4.794-2.786,1.813-1.047,4.795,2.786Z" transform="translate(-537.775 -703.261)" fill="#f4e0ce"/>
          <path id="Trazado_123097" data-name="Trazado 123097" d="M634.648,779.092l-4.8-2.786-.011-4.155,4.794,2.786Z" transform="translate(-550.226 -674.545)" fill="#c8a376"/>
          <path id="Trazado_123098" data-name="Trazado 123098" d="M620.288,775.984l-4.795-2.786,1.814-1.047,4.794,2.787Z" transform="translate(-537.691 -674.545)" fill="#f4e0ce"/>
          <path id="Trazado_123099" data-name="Trazado 123099" d="M217.156,1041.7l-4.795-2.787,1.8-1.04,4.795,2.786Z" transform="translate(-185.518 -906.679)" fill="#f4e0ce"/>
          <path id="Trazado_123100" data-name="Trazado 123100" d="M231.323,811.606l-4.795-2.786L275.7,780.432l4.8,2.786Z" transform="translate(-197.893 -681.78)" fill="#f4e0ce"/>
          <path id="Trazado_123101" data-name="Trazado 123101" d="M217.062,1008.83l-4.794-2.786,1.8-1.041,4.795,2.787Z" transform="translate(-185.436 -877.963)" fill="#f4e0ce"/>
          <path id="Trazado_123102" data-name="Trazado 123102" d="M302.981,794.195l.012,4.155-1.814,1.047-49.168,28.387-1.8,1.041-.012-4.155,1.8-1.04,49.168-28.387Z" transform="translate(-218.57 -693.803)" fill="#846340"/>
          <path id="Trazado_123103" data-name="Trazado 123103" d="M217.074,1020.177l-4.795-2.786-.012-4.155,4.794,2.786Z" transform="translate(-185.436 -885.156)" fill="#c8a376"/>
          <path id="Trazado_123104" data-name="Trazado 123104" d="M618.834,269.454l-4.795-2.787-.21-74.34,4.794,2.786Z" transform="translate(-536.237 -168.015)" fill="#c8a376"/>
          <path id="Trazado_123105" data-name="Trazado 123105" d="M201.23,499.581l-4.795-2.786-.273-96.351,4.795,2.786Z" transform="translate(-171.366 -349.825)" fill="#c8a376"/>
          <path id="Trazado_123106" data-name="Trazado 123106" d="M200.956,178.192l-4.795-2.786,56.4-32.562,4.8,2.786Z" transform="translate(-171.366 -124.787)" fill="#f4e0ce"/>
          <path id="Trazado_123107" data-name="Trazado 123107" d="M290.493,164.886l.273,96.35-3.616,2.088-.039-13.688,1.814-1.047-.012-4.155-1.813,1.047-.211-74.34L237.72,199.528l.211,74.341-1.8,1.04.012,4.155,1.8-1.041.039,13.688-3.616,2.088-.273-96.351Z" transform="translate(-204.502 -144.043)" fill="#846340"/>
          <path id="Trazado_123108" data-name="Trazado 123108" d="M919.522,575.312l-.024,8.318,76.477-44.443.024-8.319Z" transform="translate(-803.268 -463.763)" fill="#846340"/>
          <path id="Trazado_123109" data-name="Trazado 123109" d="M0,359.905l116.23,67.106.024-8.318L.024,351.587Z" transform="translate(0 -307.144)" fill="#c8a376"/>
          <path id="Trazado_123110" data-name="Trazado 123110" d="M76.663,0,.186,44.439l116.23,67.106L192.894,67.1Z" transform="translate(-0.163 0.004)" fill="#f4e0ce"/>
          <path id="Trazado_123111" data-name="Trazado 123111" d="M80.716,85.172,147.021,46.64l106.043,61.225L186.758,146.4Z" transform="translate(-70.513 -40.744)" fill="#c8a376"/>
        </g>
        <g id="Grupo_87679" data-name="Grupo 87679" transform="translate(-9549.854 -10328.453)">
          <g id="Grupo_87655" data-name="Grupo 87655" transform="translate(20.086 17.353)" opacity="0.24" style="mix-blend-mode: multiply;isolation: isolate">
            <g id="Grupo_87654" data-name="Grupo 87654">
              <g id="Grupo_87653" data-name="Grupo 87653" clip-path="url(#clip-path)">
                <g id="Grupo_87652" data-name="Grupo 87652" transform="translate(0 0)">
                  <g id="Grupo_87651" data-name="Grupo 87651" clip-path="url(#clip-path-2)">
                    <rect id="Rectángulo_34918" data-name="Rectángulo 34918" width="35.692" height="20.714" transform="translate(-0.699 -0.57)" fill="url(#linear-gradient)"/>
                  </g>
                </g>
              </g>
            </g>
          </g>
          <g id="Grupo_87660" data-name="Grupo 87660" transform="translate(0.641 5.41)" opacity="0.24" style="mix-blend-mode: multiply;isolation: isolate">
            <g id="Grupo_87659" data-name="Grupo 87659">
              <g id="Grupo_87658" data-name="Grupo 87658" clip-path="url(#clip-path-3)">
                <g id="Grupo_87657" data-name="Grupo 87657" transform="translate(0 0.001)">
                  <g id="Grupo_87656" data-name="Grupo 87656" clip-path="url(#clip-path-4)">
                    <rect id="Rectángulo_34920" data-name="Rectángulo 34920" width="35.431" height="20.198" transform="translate(0 -0.981)" fill="url(#linear-gradient-2)"/>
                  </g>
                </g>
              </g>
            </g>
          </g>
          <path id="Trazado_123114" data-name="Trazado 123114" d="M681.092,418.149V414.07l-6.107-5.048-4.07-.584-1.594,3a14.125,14.125,0,0,0-7.059,1.7l-3.592,2.116-11.584,4.145.018,4.023h0c-.141,1.132.548,2.292,2.062,3.149l6.125,3.466a10.838,10.838,0,0,0,9.808-.056l13.194-7.771c1.91-1.125,2.84-2.593,2.8-4.053Zm-3.7-5.857a2.068,2.068,0,0,1-1.872.011l-2.916-1.65c-.522-.3-.53-.779-.019-1.081a2.068,2.068,0,0,1,1.872-.011l2.916,1.651c.522.3.53.779.019,1.081" transform="translate(-628.188 -395.81)"/>
          <path id="Trazado_123115" data-name="Trazado 123115" d="M850.962,417.556l-2.916-1.651a2.068,2.068,0,0,0-1.872.011.8.8,0,0,0-.33.331,2.069,2.069,0,0,1,1.87-.01l2.916,1.651c.356.2.473.491.349.75h0c.512-.3.5-.785-.019-1.081" transform="translate(-801.821 -402.143)"/>
          <path id="Trazado_123116" data-name="Trazado 123116" d="M678.155,402.2l-2.042-1.155a15.306,15.306,0,0,0-13.851.08l-13.194,7.771c-2.681,1.579-2.637,4.115.1,5.663l6.125,3.466a10.838,10.838,0,0,0,9.808-.057l13.194-7.771c3.787-2.23,3.724-5.811-.138-8m-.807,2.229a2.068,2.068,0,0,1-1.872.011l-2.916-1.65c-.522-.3-.53-.779-.019-1.081a2.068,2.068,0,0,1,1.872-.011l2.916,1.651c.522.3.53.779.019,1.081" transform="translate(-628.188 -387.936)" fill="#333"/>
          <path id="Trazado_123117" data-name="Trazado 123117" d="M764.027,436.511l-9.013-5.1c-.581-.329-.59-.867-.021-1.2l2.154-1.268a2.3,2.3,0,0,1,2.083-.012l9.013,5.1c.581.329.59.867.021,1.2l-2.154,1.268a2.3,2.3,0,0,1-2.083.012" transform="translate(-722.086 -413.497)" fill="#3a3a3a"/>
          <path id="Trazado_123118" data-name="Trazado 123118" d="M784.079,434.028l-9.013-5.1a2.3,2.3,0,0,0-2.083.012l-.283.167a2.3,2.3,0,0,1,2.083-.012l9.013,5.1c.581.329.59.867.021,1.2l.283-.167c.569-.335.56-.874-.021-1.2" transform="translate(-737.922 -413.497)" fill="#4d4d4d"/>
          <path id="Trazado_123119" data-name="Trazado 123119" d="M726.5,458.616l-9.013-5.1c-.581-.329-.59-.867-.021-1.2l2.154-1.268a2.3,2.3,0,0,1,2.083-.012l9.013,5.1c.581.329.59.867.021,1.2l-2.154,1.268a2.3,2.3,0,0,1-2.083.012" transform="translate(-689.301 -432.808)" fill="#3a3a3a"/>
          <path id="Trazado_123120" data-name="Trazado 123120" d="M691.051,480.709a2.3,2.3,0,0,1-2.083.012l-9.013-5.1c-.581-.329-.59-.867-.021-1.2l2.154-1.269a2.3,2.3,0,0,1,2.083-.012l9.013,5.1c.581.329.59.867.021,1.2Z" transform="translate(-656.515 -452.119)" fill="#3a3a3a"/>
          <path id="Trazado_123121" data-name="Trazado 123121" d="M795.365,455.252a.113.113,0,0,1-.056-.015l-1.938-1.1a.113.113,0,0,1,0-.2l1.587-.935a.113.113,0,0,1,.113,0l1.938,1.1a.113.113,0,0,1,0,.2l-1.587.935a.112.112,0,0,1-.057.016m-1.713-1.212,1.711.969,1.363-.8-1.711-.968Z" transform="translate(-755.93 -434.734)" fill="#fff"/>
          <path id="Trazado_123122" data-name="Trazado 123122" d="M805.7,461.078c.073-.043.072-.113,0-.155a.3.3,0,0,0-.269,0,.088.088,0,0,0-.053.088l-.225.076.272.154.127-.131a.28.28,0,0,0,.151-.033" transform="translate(-766.275 -441.633)" fill="#fff"/>
          <path id="Trazado_123123" data-name="Trazado 123123" d="M809.6,452.532l-.1-.2c.134-.063.52-.29.528-.506.005-.132-.147-.247-.275-.319a1.564,1.564,0,0,0-1.63.172l-.138-.179a1.791,1.791,0,0,1,1.88-.19c.267.151.4.328.39.525-.016.392-.593.672-.659.7" transform="translate(-768.747 -433.085)" fill="#fff"/>
          <path id="Trazado_123124" data-name="Trazado 123124" d="M757.356,477.639a.113.113,0,0,1-.056-.015l-1.938-1.1a.113.113,0,0,1,0-.2l1.587-.935a.113.113,0,0,1,.113,0l1.938,1.1a.113.113,0,0,1,0,.2l-1.587.935a.112.112,0,0,1-.057.016m-1.712-1.212,1.711.969,1.363-.8-1.711-.969Z" transform="translate(-722.726 -454.292)" fill="#fff"/>
          <path id="Trazado_123125" data-name="Trazado 123125" d="M767.7,483.465c.074-.043.072-.113,0-.155a.3.3,0,0,0-.269,0,.088.088,0,0,0-.053.088l-.225.076.272.154.127-.131a.281.281,0,0,0,.151-.033" transform="translate(-733.072 -461.19)" fill="#fff"/>
          <path id="Trazado_123126" data-name="Trazado 123126" d="M759.656,468.167l-.1-.2c.134-.063.52-.29.528-.506.005-.132-.147-.247-.275-.319a1.586,1.586,0,0,0-1.63.172l-.138-.178a1.79,1.79,0,0,1,1.88-.19c.267.151.4.328.39.525-.016.392-.593.671-.659.7" transform="translate(-725.121 -446.744)" fill="#fff"/>
          <path id="Trazado_123127" data-name="Trazado 123127" d="M718.135,497.285a.436.436,0,0,1-.212-.052l-.178-.1a.988.988,0,0,1-.836-.026.389.389,0,0,1-.223-.324.323.323,0,0,1,.075-.207l-1.84-1.042a.988.988,0,0,1-.836-.026.389.389,0,0,1-.223-.324.328.328,0,0,1,.089-.224.249.249,0,0,1-.063-.16.282.282,0,0,1,.155-.24l.23-.136a.661.661,0,0,1,.57-.022l.951.437.727-.063a.637.637,0,0,1,.36.069l1.547.875a.263.263,0,0,1,.14.339l-.129.282c0,.006,0,.015.015.027l.322.3a.2.2,0,0,1,.068.171.225.225,0,0,1-.118.167l-.375.221a.433.433,0,0,1-.217.054m-.387-.393a.113.113,0,0,1,.056.015l.231.131a.239.239,0,0,0,.2,0l.367-.216-.3-.284a.245.245,0,0,1-.066-.286l.129-.282c.005-.012-.019-.034-.046-.049l-1.547-.875a.418.418,0,0,0-.229-.041l-.757.066a.112.112,0,0,1-.057-.01l-.978-.449a.438.438,0,0,0-.361.011l-.23.136c-.037.021-.044.04-.044.043s.008.023.047.045l.027.015a.113.113,0,0,1,0,.2c-.065.039-.1.085-.1.127s.041.091.109.129a.752.752,0,0,0,.669,0,.113.113,0,0,1,.113,0l2.034,1.151a.113.113,0,0,1,0,.2c-.066.039-.1.085-.1.127s.041.091.109.129a.752.752,0,0,0,.67,0,.111.111,0,0,1,.057-.016" transform="translate(-686.523 -470.863)" fill="#fff"/>
          <path id="Trazado_123128" data-name="Trazado 123128" d="M749.467,509.639h-.011l-.823-.081a.113.113,0,1,1,.022-.225l.823.081a.113.113,0,0,1-.011.225" transform="translate(-716.808 -483.951)" fill="#fff"/>
          <path id="Trazado_123129" data-name="Trazado 123129" d="M763.18,455.82l-9.291-5.258.528-.311,9.291,5.258Z" transform="translate(-721.489 -432.338)" fill="#1a1a1a"/>
          <path id="Trazado_123130" data-name="Trazado 123130" d="M725.65,477.926l-9.291-5.258.528-.311,9.291,5.258Z" transform="translate(-688.704 -451.65)" fill="#1a1a1a"/>
          <path id="Trazado_123131" data-name="Trazado 123131" d="M746.549,456.133l-9.013-5.1a2.3,2.3,0,0,0-2.083.012l-.283.167a2.3,2.3,0,0,1,2.083-.012l9.013,5.1c.581.329.59.867.021,1.2l.283-.167c.569-.336.56-.874-.021-1.2" transform="translate(-705.136 -432.808)" fill="#4d4d4d"/>
          <path id="Trazado_123132" data-name="Trazado 123132" d="M708.857,478.333l-9.013-5.1a2.3,2.3,0,0,0-2.083.012l-.283.167a2.3,2.3,0,0,1,2.083-.012l9.013,5.1c.581.329.59.867.021,1.2l.283-.167c.569-.336.56-.874-.021-1.2" transform="translate(-672.209 -452.202)" fill="#4d4d4d"/>
          <path id="Trazado_123133" data-name="Trazado 123133" d="M681.092,418.149V414.07l-6.107-5.048-4.07-.584-1.594,3a14.125,14.125,0,0,0-7.059,1.7l-3.592,2.116-11.584,4.145.018,4.023h0c-.141,1.132.548,2.292,2.062,3.149l6.125,3.466a10.838,10.838,0,0,0,9.808-.056l13.194-7.771c1.91-1.125,2.84-2.593,2.8-4.053Zm-3.7-5.857a2.068,2.068,0,0,1-1.872.011l-2.916-1.65c-.522-.3-.53-.779-.019-1.081a2.068,2.068,0,0,1,1.872-.011l2.916,1.651c.522.3.53.779.019,1.081" transform="translate(-628.188 -395.81)"/>
          <path id="Trazado_123134" data-name="Trazado 123134" d="M850.962,417.556l-2.916-1.651a2.068,2.068,0,0,0-1.872.011.8.8,0,0,0-.33.331,2.069,2.069,0,0,1,1.87-.01l2.916,1.651c.356.2.473.491.349.75h0c.512-.3.5-.785-.019-1.081" transform="translate(-801.821 -402.143)"/>
          <path id="Trazado_123135" data-name="Trazado 123135" d="M678.155,402.2l-2.042-1.155a15.306,15.306,0,0,0-13.851.08l-13.194,7.771c-2.681,1.579-2.637,4.115.1,5.663l6.125,3.466a10.838,10.838,0,0,0,9.808-.057l13.194-7.771c3.787-2.23,3.724-5.811-.138-8m-.807,2.229a2.068,2.068,0,0,1-1.872.011l-2.916-1.65c-.522-.3-.53-.779-.019-1.081a2.068,2.068,0,0,1,1.872-.011l2.916,1.651c.522.3.53.779.019,1.081" transform="translate(-628.188 -387.936)" fill="#333"/>
          <path id="Trazado_123136" data-name="Trazado 123136" d="M764.027,436.511l-9.013-5.1c-.581-.329-.59-.867-.021-1.2l2.154-1.268a2.3,2.3,0,0,1,2.083-.012l9.013,5.1c.581.329.59.867.021,1.2l-2.154,1.268a2.3,2.3,0,0,1-2.083.012" transform="translate(-722.086 -413.497)" fill="#3a3a3a"/>
          <path id="Trazado_123137" data-name="Trazado 123137" d="M784.079,434.028l-9.013-5.1a2.3,2.3,0,0,0-2.083.012l-.283.167a2.3,2.3,0,0,1,2.083-.012l9.013,5.1c.581.329.59.867.021,1.2l.283-.167c.569-.335.56-.874-.021-1.2" transform="translate(-737.922 -413.497)" fill="#4d4d4d"/>
          <path id="Trazado_123138" data-name="Trazado 123138" d="M726.5,458.616l-9.013-5.1c-.581-.329-.59-.867-.021-1.2l2.154-1.268a2.3,2.3,0,0,1,2.083-.012l9.013,5.1c.581.329.59.867.021,1.2l-2.154,1.268a2.3,2.3,0,0,1-2.083.012" transform="translate(-689.301 -432.808)" fill="#3a3a3a"/>
          <path id="Trazado_123139" data-name="Trazado 123139" d="M691.051,480.709a2.3,2.3,0,0,1-2.083.012l-9.013-5.1c-.581-.329-.59-.867-.021-1.2l2.154-1.269a2.3,2.3,0,0,1,2.083-.012l9.013,5.1c.581.329.59.867.021,1.2Z" transform="translate(-656.515 -452.119)" fill="#3a3a3a"/>
          <path id="Trazado_123140" data-name="Trazado 123140" d="M795.365,455.252a.113.113,0,0,1-.056-.015l-1.938-1.1a.113.113,0,0,1,0-.2l1.587-.935a.113.113,0,0,1,.113,0l1.938,1.1a.113.113,0,0,1,0,.2l-1.587.935a.112.112,0,0,1-.057.016m-1.713-1.212,1.711.969,1.363-.8-1.711-.968Z" transform="translate(-755.93 -434.734)" fill="#fff"/>
          <path id="Trazado_123141" data-name="Trazado 123141" d="M805.7,461.078c.073-.043.072-.113,0-.155a.3.3,0,0,0-.269,0,.088.088,0,0,0-.053.088l-.225.076.272.154.127-.131a.28.28,0,0,0,.151-.033" transform="translate(-766.275 -441.633)" fill="#fff"/>
          <path id="Trazado_123142" data-name="Trazado 123142" d="M809.6,452.532l-.1-.2c.134-.063.52-.29.528-.506.005-.132-.147-.247-.275-.319a1.564,1.564,0,0,0-1.63.172l-.138-.179a1.791,1.791,0,0,1,1.88-.19c.267.151.4.328.39.525-.016.392-.593.672-.659.7" transform="translate(-768.747 -433.085)" fill="#fff"/>
          <path id="Trazado_123143" data-name="Trazado 123143" d="M757.356,477.639a.113.113,0,0,1-.056-.015l-1.938-1.1a.113.113,0,0,1,0-.2l1.587-.935a.113.113,0,0,1,.113,0l1.938,1.1a.113.113,0,0,1,0,.2l-1.587.935a.112.112,0,0,1-.057.016m-1.712-1.212,1.711.969,1.363-.8-1.711-.969Z" transform="translate(-722.726 -454.292)" fill="#fff"/>
          <path id="Trazado_123144" data-name="Trazado 123144" d="M767.7,483.465c.074-.043.072-.113,0-.155a.3.3,0,0,0-.269,0,.088.088,0,0,0-.053.088l-.225.076.272.154.127-.131a.281.281,0,0,0,.151-.033" transform="translate(-733.072 -461.19)" fill="#fff"/>
          <path id="Trazado_123145" data-name="Trazado 123145" d="M759.656,468.167l-.1-.2c.134-.063.52-.29.528-.506.005-.132-.147-.247-.275-.319a1.586,1.586,0,0,0-1.63.172l-.138-.178a1.79,1.79,0,0,1,1.88-.19c.267.151.4.328.39.525-.016.392-.593.671-.659.7" transform="translate(-725.121 -446.744)" fill="#fff"/>
          <path id="Trazado_123146" data-name="Trazado 123146" d="M718.135,497.285a.436.436,0,0,1-.212-.052l-.178-.1a.988.988,0,0,1-.836-.026.389.389,0,0,1-.223-.324.323.323,0,0,1,.075-.207l-1.84-1.042a.988.988,0,0,1-.836-.026.389.389,0,0,1-.223-.324.328.328,0,0,1,.089-.224.249.249,0,0,1-.063-.16.282.282,0,0,1,.155-.24l.23-.136a.661.661,0,0,1,.57-.022l.951.437.727-.063a.637.637,0,0,1,.36.069l1.547.875a.263.263,0,0,1,.14.339l-.129.282c0,.006,0,.015.015.027l.322.3a.2.2,0,0,1,.068.171.225.225,0,0,1-.118.167l-.375.221a.433.433,0,0,1-.217.054m-.387-.393a.113.113,0,0,1,.056.015l.231.131a.239.239,0,0,0,.2,0l.367-.216-.3-.284a.245.245,0,0,1-.066-.286l.129-.282c.005-.012-.019-.034-.046-.049l-1.547-.875a.418.418,0,0,0-.229-.041l-.757.066a.112.112,0,0,1-.057-.01l-.978-.449a.438.438,0,0,0-.361.011l-.23.136c-.037.021-.044.04-.044.043s.008.023.047.045l.027.015a.113.113,0,0,1,0,.2c-.065.039-.1.085-.1.127s.041.091.109.129a.752.752,0,0,0,.669,0,.113.113,0,0,1,.113,0l2.034,1.151a.113.113,0,0,1,0,.2c-.066.039-.1.085-.1.127s.041.091.109.129a.752.752,0,0,0,.67,0,.111.111,0,0,1,.057-.016" transform="translate(-686.523 -470.863)" fill="#fff"/>
          <path id="Trazado_123147" data-name="Trazado 123147" d="M749.467,509.639h-.011l-.823-.081a.113.113,0,1,1,.022-.225l.823.081a.113.113,0,0,1-.011.225" transform="translate(-716.808 -483.951)" fill="#fff"/>
          <path id="Trazado_123148" data-name="Trazado 123148" d="M763.18,455.82l-9.291-5.258.528-.311,9.291,5.258Z" transform="translate(-721.489 -432.338)" fill="#1a1a1a"/>
          <path id="Trazado_123149" data-name="Trazado 123149" d="M725.65,477.926l-9.291-5.258.528-.311,9.291,5.258Z" transform="translate(-688.704 -451.65)" fill="#1a1a1a"/>
          <path id="Trazado_123150" data-name="Trazado 123150" d="M746.549,456.133l-9.013-5.1a2.3,2.3,0,0,0-2.083.012l-.283.167a2.3,2.3,0,0,1,2.083-.012l9.013,5.1c.581.329.59.867.021,1.2l.283-.167c.569-.336.56-.874-.021-1.2" transform="translate(-705.136 -432.808)" fill="#4d4d4d"/>
          <path id="Trazado_123151" data-name="Trazado 123151" d="M708.857,478.333l-9.013-5.1a2.3,2.3,0,0,0-2.083.012l-.283.167a2.3,2.3,0,0,1,2.083-.012l9.013,5.1c.581.329.59.867.021,1.2l.283-.167c.569-.336.56-.874-.021-1.2" transform="translate(-672.209 -452.202)" fill="#4d4d4d"/>
          <path id="Trazado_123152" data-name="Trazado 123152" d="M640.74,340.145l-1.164-.265q-.118-.107-.247-.213l-1.064-1.81-4.239-1.873-1.344,1.041.021.217a15.672,15.672,0,0,0-8.035,2.343,5.622,5.622,0,0,0-1.15.827l-.77-.445V342h0c.009,1.24,1.3,2.512,3.249,3.667,3.267,1.933,7.151,2.8,10.5.919,3.081-1.735,4.275-3.254,4.24-4.585h0Zm-2.536-.6a1.13,1.13,0,0,1-1.023-.007l-3.607-2.135c-.279-.165-.273-.429.013-.59a1.13,1.13,0,0,1,1.023.007l3.607,2.135c.279.165.273.429-.012.59" transform="translate(-606.927 -332.515)" fill="#212121"/>
          <path id="Trazado_123153" data-name="Trazado 123153" d="M638.128,332.4c-3.267-1.934-7.551-2.58-13.458.747-3.349,1.886-1.937,4.15,1.33,6.083s7.151,2.805,10.5.919c5.859-3.3,4.895-5.816,1.628-7.749m-.941,2.613-3.607-2.135c-.279-.165-.273-.429.013-.591a1.13,1.13,0,0,1,1.023.007l3.607,2.135c.279.165.273.429-.013.591a1.13,1.13,0,0,1-1.023-.007" transform="translate(-606.928 -327.987)" fill="#333"/>
          <path id="Trazado_123154" data-name="Trazado 123154" d="M711.612,343.869,708,341.734a1.13,1.13,0,0,0-1.023-.007c-.174.1-.244.234-.21.363l.025-.015a1.131,1.131,0,0,1,1.023.007l3.607,2.135a.4.4,0,0,1,.2.228.308.308,0,0,0-.012-.576" transform="translate(-680.321 -337.428)"/>
          <path id="Trazado_123155" data-name="Trazado 123155" d="M817.373,519.619v4.136l2.484-1.463v-4.135Z" transform="translate(-776.949 -491.659)" fill="#333"/>
          <path id="Trazado_123156" data-name="Trazado 123156" d="M725.77,359.8c-3.023-1.774-3.978-3.812-3.5-5.863l.451-1.011-1.415-.839a9.789,9.789,0,0,0-.754,2.854c-.026,1.852,1.419,4.08,3.994,5.567a19.6,19.6,0,0,0,9.643,2.306c1.232,0,4.784-.336,5.942-.517l-1.62-.917c-3.576.29-8.122,1.127-12.737-1.581" transform="translate(-692.362 -346.587)" fill="#999"/>
          <path id="Trazado_123157" data-name="Trazado 123157" d="M760.346,316.249a21.313,21.313,0,0,0-19.285,0,8.13,8.13,0,0,0-1.6,1.073,11.061,11.061,0,0,1,1.259.754,8.33,8.33,0,0,1,1.573-1.119c4.64-2.679,12.189-2.679,16.829,0s4.64,7.037,0,9.716a4.168,4.168,0,0,1-.952.481l1.255.717a10.251,10.251,0,0,0,.924-.489c2.576-1.487,3.994-3.464,3.994-5.567s-1.418-4.08-3.994-5.567" transform="translate(-708.882 -313.26)" fill="#999"/>
          <path id="Trazado_123158" data-name="Trazado 123158" d="M726.869,359.317c-3.023-1.774-3.978-3.812-3.5-5.863l.2-.593-1.3-.771a6.724,6.724,0,0,0-.615,2.368c-.026,1.852,1.419,4.08,3.994,5.567a19.6,19.6,0,0,0,9.643,2.306c1.232,0,4.782-.335,5.94-.516l-1.617-.918c-3.576.29-8.122,1.127-12.737-1.581" transform="translate(-693.322 -346.586)" fill="#ccc"/>
          <path id="Trazado_123159" data-name="Trazado 123159" d="M757.636,310.849a21.313,21.313,0,0,0-19.285,0,15.016,15.016,0,0,0-2.155,1.55c.434.189,1.333.738,1.333.738l.024-.019a8.9,8.9,0,0,1,2.026-1.56c4.64-2.679,12.189-2.679,16.829,0s4.64,7.037,0,9.716a12.8,12.8,0,0,1-1.68.807l1.261.715a14.53,14.53,0,0,0,1.647-.812c2.576-1.487,3.994-3.464,3.994-5.567s-1.418-4.08-3.994-5.567" transform="translate(-706.033 -308.543)" fill="#ccc"/>
          <path id="Trazado_123160" data-name="Trazado 123160" d="M868.531,429.552l1.066-.156-.653-.369-1.1.139Z" transform="translate(-821.043 -413.797)" fill="#999"/>
          <path id="Trazado_123161" data-name="Trazado 123161" d="M887.146,321.634l-1.24.716q.4.171.772.364l1.231-.71q-.371-.194-.762-.37" transform="translate(-836.818 -319.979)" fill="#fff"/>
          <path id="Trazado_123162" data-name="Trazado 123162" d="M909,393.022a6.953,6.953,0,0,1-.934.983l1.251.723a8.533,8.533,0,0,0,.99-.951Z" transform="translate(-856.181 -382.343)" fill="#fff"/>
          <g id="Grupo_87663" data-name="Grupo 87663" transform="translate(20.247 19.587)" opacity="0.1" style="mix-blend-mode: screen;isolation: isolate">
            <g id="Grupo_87662" data-name="Grupo 87662">
              <g id="Grupo_87661" data-name="Grupo 87661" clip-path="url(#clip-path-5)">
                <path id="Trazado_123163" data-name="Trazado 123163" d="M688.823,465.288a4.869,4.869,0,0,0,1.331-1.8H660.711l-2.325,1.369a5.8,5.8,0,0,0-.634.43Z" transform="translate(-657.752 -463.488)" fill="#fff"/>
              </g>
            </g>
          </g>
          <g id="Grupo_87666" data-name="Grupo 87666" transform="translate(18.944 24.213)" opacity="0.1" style="mix-blend-mode: screen;isolation: isolate">
            <g id="Grupo_87665" data-name="Grupo 87665">
              <g id="Grupo_87664" data-name="Grupo 87664" clip-path="url(#clip-path-6)">
                <path id="Trazado_123164" data-name="Trazado 123164" d="M675.285,500.086H647.443a2.875,2.875,0,0,0,.634,1.277h25.04Z" transform="translate(-647.443 -500.086)" fill="#fff"/>
              </g>
            </g>
          </g>
          <g id="Grupo_87675" data-name="Grupo 87675" transform="translate(15.823 3.629)" opacity="0.33">
            <g id="Grupo_87674" data-name="Grupo 87674">
              <g id="Grupo_87673" data-name="Grupo 87673" clip-path="url(#clip-path-7)">
                <g id="Grupo_87669" data-name="Grupo 87669" transform="translate(0 4.494)" opacity="0.1" style="mix-blend-mode: screen;isolation: isolate">
                  <g id="Grupo_87668" data-name="Grupo 87668">
                    <g id="Grupo_87667" data-name="Grupo 87667" clip-path="url(#clip-path-8)">
                      <rect id="Rectángulo_34924" data-name="Rectángulo 34924" width="17.99" height="1.24" transform="translate(0 0)" fill="#fff"/>
                    </g>
                  </g>
                </g>
                <g id="Grupo_87672" data-name="Grupo 87672" transform="translate(1.557)" opacity="0.1" style="mix-blend-mode: screen;isolation: isolate">
                  <g id="Grupo_87671" data-name="Grupo 87671">
                    <g id="Grupo_87670" data-name="Grupo 87670" clip-path="url(#clip-path-9)">
                      <path id="Trazado_123165" data-name="Trazado 123165" d="M635.433,338.785c-.128.072-.248.144-.362.217h10.094l-.821-.486a.393.393,0,0,1-.2-.233l.021-.013a1.13,1.13,0,0,1,1.023.007l1.223.724h3.84a9.107,9.107,0,0,0-1.361-.964,12.173,12.173,0,0,0-1.564-.784H638.76a20.945,20.945,0,0,0-3.327,1.531" transform="translate(-635.071 -337.253)" fill="#fff"/>
                    </g>
                  </g>
                </g>
              </g>
            </g>
          </g>
          <path id="Trazado_123166" data-name="Trazado 123166" d="M514.33,395.9l-4.831,2.663-.022,1.012-1.085.611-.789.444-.269.792-1.333.142-.279.766-1.333.142-.04.907h-1.572l-.279.766-1.333.142-.04.907-1.6-.014-1.6.9-.342-1.076.167,1.175.4,1.606,2.77.273,1.779-1,.016-.926h1.572l.28-.766,1.333-.142.04-.907h1.572l.279-.766,1.333-.142.279-.766,1.377-.136.789-.444,1.085-.611,1.753.012,4.665-2.572Z" transform="translate(-497.577 -384.856)" fill="#b3b3b3"/>
          <path id="Trazado_123167" data-name="Trazado 123167" d="M504.118,396.841l.28-.766,1.333-.142.04-.907h1.572l.279-.766,1.333-.142.28-.766,1.377-.136.789-.444,1.084-.611,1.753.013,4.831-2.663-4.905-2.9-4.831,2.663-.022,1.012-1.085.611-.789.444-.269.792-1.333.142-.279.766-1.333.142-.04.907h-1.572l-.279.766-1.333.142-.04.908-1.6-.014-1.779,1,.4,1.606,2.77.273,1.779-1,.016-.925Z" transform="translate(-497.577 -376.738)" fill="#ccc"/>
          <path id="Trazado_123168" data-name="Trazado 123168" d="M499.893,398.5l1.6-.9,1.761.015.042-.936,1.295-.138.271-.744h1.617l.041-.933,1.295-.138.279-.766,1.335-.143.288-.849,1.894-1.066.022-1.012,4.553-2.506,4.447,2.659-4.479,2.523-1.753-.013-1.894,1.066-1.477.145-.28.767-1.333.142-.271.744h-1.617l-.041.933-1.294.138-.272.744H504.3l-.017,1.017-1.6.9-2.435-.24Z" transform="translate(-499.601 -378.293)" fill="#e6e6e6"/>
          <path id="Trazado_123169" data-name="Trazado 123169" d="M500.168,410.236l.076.383.661.054,17.316-9.752-.737-.436Z" transform="translate(-499.84 -388.862)" fill="#ccc"/>
          <path id="Trazado_123170" data-name="Trazado 123170" d="M651.016,409.575v1.266l-2.06,1.136s-.352-1.072-.339-1.08l2.4-1.323" transform="translate(-629.524 -396.804)" fill="#b3b3b3"/>
        </g>
      </g>
    </g>
    <rect id="Rectángulo_35981" data-name="Rectángulo 35981" width="190" height="243" transform="translate(600 688)" fill="none"/>
  </g>
</svg>
