<svg xmlns="http://www.w3.org/2000/svg" width="80.531" height="82.876" viewBox="0 0 80.531 82.876">
  <g id="Grupo_88038" data-name="Grupo 88038" transform="translate(9618.42 10370.288)">
    <g id="Grupo_88037" data-name="Grupo 88037" transform="translate(-9590.213 -10332.314)">
      <path id="Trazado_124493" data-name="Trazado 124493" d="M119.432,254.991a3.525,3.525,0,0,1,2.052,2.6,11.539,11.539,0,0,1,.3,4.6,15.449,15.449,0,0,1-2.392,6.893,9.658,9.658,0,0,1-6.4,4.522,11.73,11.73,0,0,1-12.584-5.721,13.9,13.9,0,0,1-1.822-8.562,8.864,8.864,0,0,1,2.174-5.2,3.789,3.789,0,0,1,3.026-1.313,6.759,6.759,0,0,1,4.461,2.181,6.187,6.187,0,0,0,1.144.865,1.939,1.939,0,0,0,.44.208c.072.024.145.048.218.069a5.635,5.635,0,0,0,.931.215c.116,0,.232.007.349.006a11.5,11.5,0,0,0,3.83-.645c.569-.166,1.129-.356,1.684-.564a.8.8,0,0,0,.368-.036,8.311,8.311,0,0,1,1.347-.254,1.361,1.361,0,0,1,.874.138" transform="translate(-98.505 -241.1)" fill="#e7384c"/>
      <path id="Trazado_124494" data-name="Trazado 124494" d="M168.518,196.364a2.714,2.714,0,0,1-.928-.23.463.463,0,0,1-.148-.3,7.361,7.361,0,0,1-.011-2.727.6.6,0,0,1,.146-.306,8.449,8.449,0,0,1,2.378-3.947,22.543,22.543,0,0,1,2.928-2.2,48.524,48.524,0,0,0,5.465-4.3,15.29,15.29,0,0,0,1.235-1.31,6.422,6.422,0,0,1,.346,1.333,14.236,14.236,0,0,1,.125,4.768,10.43,10.43,0,0,1-3.96,6.885c-.082.064-.157.136-.235.2a3.567,3.567,0,0,1-1.44.9,14.988,14.988,0,0,1-5.182,1.253c-.114,0-.229-.007-.343-.011.011-.157.151-.158.25-.191a38.5,38.5,0,0,0,4.851-1.961,8.535,8.535,0,0,0,2.347-1.543,1.563,1.563,0,0,0,.386-.6.584.584,0,0,0-.35-.819,3.261,3.261,0,0,0-1.219-.261c-.334,0-.669.005-1-.005-.089,0-.213.01-.229-.108-.013-.1.1-.131.173-.151a17.749,17.749,0,0,0,1.963-.652,6.418,6.418,0,0,0,2.342-1.288.975.975,0,0,0-.087-1.531,2.872,2.872,0,0,0-.553-.355c-.359-.177-.36-.226-.076-.491a6.78,6.78,0,0,0,1.2-1.316,2.014,2.014,0,0,0,.23-1.854c-.12-.326-.2-.332-.4-.056-.47.653-.947,1.3-1.461,1.922a24.741,24.741,0,0,1-3.66,3.682,16.419,16.419,0,0,0-3.669,3.879,7.969,7.969,0,0,0-1.27,3.342.45.45,0,0,1-.139.337" transform="translate(-156.083 -181.049)" fill="#cacc45"/>
      <path id="Trazado_124495" data-name="Trazado 124495" d="M154.8,214.042a1.692,1.692,0,0,1-.438-.19,6.952,6.952,0,0,1-.68-1.574c-.175-.435-.3-.888-.45-1.334a.34.34,0,0,1-.012-.3,19.45,19.45,0,0,1-.937-4.591,5.468,5.468,0,0,1,.188-2.017,3.883,3.883,0,0,1,.2-.491,1.009,1.009,0,0,1,.846-.637,17.979,17.979,0,0,0,1.9-.369c.234-.054.234.012.2.2-.247,1.547-.46,3.1-.609,4.658a27.724,27.724,0,0,0-.218,3.374,2.893,2.893,0,0,1-.008.961,9.127,9.127,0,0,0,.06,1.832c.023.153.08.331-.051.477" transform="translate(-143.496 -199.015)" fill="#5c4d00"/>
      <path id="Trazado_124496" data-name="Trazado 124496" d="M135.32,252.111c.336,1.086.743,2.147,1.143,3.21a14,14,0,0,1-2.062-1.659,7.4,7.4,0,0,0-3.07-1.4c-.151-.031-.316.044-.454-.067a26.866,26.866,0,0,1,3.911-.088c.177.008.355,0,.532.006" transform="translate(-125.595 -240.484)" fill="#cb223c"/>
      <path id="Trazado_124497" data-name="Trazado 124497" d="M167.459,256.34c-.079-.979-.067-1.96-.059-2.941,0-.111-.036-.232.059-.328l.189-.007a7.824,7.824,0,0,0,.013,3.335l-.2-.059" transform="translate(-156.154 -241.314)" fill="#c62a3b"/>
      <path id="Trazado_124498" data-name="Trazado 124498" d="M174.716,205.641a8.535,8.535,0,0,1,.875-2.913,11.408,11.408,0,0,1,1.858-2.577,27.309,27.309,0,0,1,2.921-2.64,19.14,19.14,0,0,0,2.622-2.682c.7-.828,1.356-1.688,1.98-2.574.125-.177.21-.151.314.029a2.138,2.138,0,0,1-.156,2.19,6.779,6.779,0,0,1-1.311,1.375c-.136.11-.114.159.046.226a1.99,1.99,0,0,1,1,.767,1.035,1.035,0,0,1-.139,1.239A4.976,4.976,0,0,1,182.9,199.2a16.452,16.452,0,0,1-2.621.9,1.2,1.2,0,0,0-.182.1c.43,0,.777.007,1.122,0a3.507,3.507,0,0,1,1.165.19c.719.23.878.668.473,1.309a3.739,3.739,0,0,1-1.154,1.039,20.3,20.3,0,0,1-3.318,1.674c-1.079.469-2.2.834-3.3,1.25l-.375-.022" transform="translate(-162.281 -190.326)" fill="#bab001"/>
      <path id="Trazado_124499" data-name="Trazado 124499" d="M118.957,281.815a16.974,16.974,0,0,1-.219,2.265,7.139,7.139,0,0,0,.559,4.116c.188.408.408.8.6,1.206.217.459.059.7-.453.68a1.872,1.872,0,0,1-1.338-.838,9.771,9.771,0,0,1-1.984-4.692,18.685,18.685,0,0,1-.163-2.272,2.8,2.8,0,0,1,.489-1.746,1.673,1.673,0,0,1,1.581-.54,1.127,1.127,0,0,1,.849,1.013,2.758,2.758,0,0,1,.079.809" transform="translate(-113.108 -263.822)" fill="#f18793"/>
      <path id="Trazado_124500" data-name="Trazado 124500" d="M144.039,346.5a.675.675,0,0,1-.305.606,2.06,2.06,0,0,1-1.293.388.683.683,0,0,1-.713-.742,1.254,1.254,0,0,1,.693-1.112,1.12,1.12,0,0,1,1.261.123.833.833,0,0,1,.358.738" transform="translate(-134.674 -318.665)" fill="#f18793"/>
    </g>
    <g id="Grupo_87678" data-name="Grupo 87678" transform="translate(-9618.42 -10370.288)">
      <path id="Trazado_123082" data-name="Trazado 123082" d="M1294.387,1204.542l-2-1.164-.016-5.719,2,1.164Z" transform="translate(-1224.108 -1134.4)" fill="#c8a376"/>
      <path id="Trazado_123083" data-name="Trazado 123083" d="M1294.371,1190.976l-2-1.164.758-.437,2,1.164Z" transform="translate(-1224.108 -1126.553)" fill="#f4e0ce"/>
      <path id="Trazado_123084" data-name="Trazado 123084" d="M1308.628,1159.406l-2-1.164-.005-1.736,2,1.164Z" transform="translate(-1237.607 -1095.421)" fill="#c8a376"/>
      <path id="Trazado_123085" data-name="Trazado 123085" d="M1294.28,1158.107l-2-1.164.758-.437,2,1.164Z" transform="translate(-1224.022 -1095.421)" fill="#f4e0ce"/>
      <path id="Trazado_123086" data-name="Trazado 123086" d="M891.147,1423.827l-2-1.164.753-.435,2,1.164Z" transform="translate(-842.18 -1347.109)" fill="#f4e0ce"/>
      <path id="Trazado_123087" data-name="Trazado 123087" d="M905.312,1177.813l-2-1.164,20.545-11.861,2,1.164Z" transform="translate(-855.598 -1103.265)" fill="#f4e0ce"/>
      <path id="Trazado_123088" data-name="Trazado 123088" d="M891.055,1390.957l-2-1.164.753-.435,2,1.164Z" transform="translate(-842.094 -1315.974)" fill="#f4e0ce"/>
      <path id="Trazado_123089" data-name="Trazado 123089" d="M949.036,1178.547l0,1.736-.758.438-20.544,11.861-.753.435-.005-1.736.753-.435,20.544-11.861Z" transform="translate(-878.019 -1116.299)" fill="#846340"/>
      <path id="Trazado_123090" data-name="Trazado 123090" d="M891.06,1400.491l-2-1.164,0-1.736,2,1.164Z" transform="translate(-842.094 -1323.772)" fill="#c8a376"/>
      <path id="Trazado_123091" data-name="Trazado 123091" d="M1292.7,608.909l-2-1.164-.088-31.062,2,1.164Z" transform="translate(-1222.441 -546.223)" fill="#c8a376"/>
      <path id="Trazado_123092" data-name="Trazado 123092" d="M873.057,825.058l2,1.164-.114-40.259-2-1.164Z" transform="translate(-826.836 -743.347)" fill="#c8a376"/>
      <path id="Trazado_123093" data-name="Trazado 123093" d="M874.946,541.968l-2-1.164L896.509,527.2l2,1.164Z" transform="translate(-826.836 -499.352)" fill="#f4e0ce"/>
      <path id="Trazado_123094" data-name="Trazado 123094" d="M910.876,562.847l.114,40.259,1.511-.872-.016-5.719-.753.435-.005-1.736.753-.435-.088-31.063,20.544-11.861.088,31.063.758-.437,0,1.736-.758.437.016,5.719,1.511-.872-.114-40.259Z" transform="translate(-862.766 -520.231)" fill="#846340"/>
      <path id="Trazado_123095" data-name="Trazado 123095" d="M617.609,820.187l-2-1.164-.016-5.719,2,1.164Z" transform="translate(-583.075 -770.346)" fill="#c8a376"/>
      <path id="Trazado_123096" data-name="Trazado 123096" d="M617.592,806.623l-2-1.164.758-.437,2,1.164Z" transform="translate(-583.075 -762.502)" fill="#f4e0ce"/>
      <path id="Trazado_123097" data-name="Trazado 123097" d="M631.85,775.051l-2-1.164,0-1.736,2,1.164Z" transform="translate(-596.574 -731.367)" fill="#c8a376"/>
      <path id="Trazado_123098" data-name="Trazado 123098" d="M617.5,773.752l-2-1.164.758-.437,2,1.164Z" transform="translate(-582.984 -731.367)" fill="#f4e0ce"/>
      <path id="Trazado_123099" data-name="Trazado 123099" d="M214.365,1039.473l-2-1.164.753-.435,2,1.164Z" transform="translate(-201.145 -983.055)" fill="#f4e0ce"/>
      <path id="Trazado_123100" data-name="Trazado 123100" d="M228.531,793.458l-2-1.164,20.544-11.861,2,1.164Z" transform="translate(-214.563 -739.211)" fill="#f4e0ce"/>
      <path id="Trazado_123101" data-name="Trazado 123101" d="M214.271,1006.6l-2-1.164.753-.435,2,1.164Z" transform="translate(-201.056 -951.92)" fill="#f4e0ce"/>
      <path id="Trazado_123102" data-name="Trazado 123102" d="M272.252,794.195l.005,1.736-.758.438L250.955,808.23l-.753.435-.005-1.736.753-.435,20.545-11.861Z" transform="translate(-236.982 -752.247)" fill="#846340"/>
      <path id="Trazado_123103" data-name="Trazado 123103" d="M214.276,1016.136l-2-1.164,0-1.736,2,1.164Z" transform="translate(-201.056 -959.719)" fill="#c8a376"/>
      <path id="Trazado_123104" data-name="Trazado 123104" d="M615.92,224.554l-2-1.164-.088-31.062,2,1.164Z" transform="translate(-581.407 -182.169)" fill="#c8a376"/>
      <path id="Trazado_123105" data-name="Trazado 123105" d="M198.28,441.868l-2-1.164-.114-40.259,2,1.164Z" transform="translate(-185.801 -379.293)" fill="#c8a376"/>
      <path id="Trazado_123106" data-name="Trazado 123106" d="M198.165,157.614l-2-1.164,23.566-13.606,2,1.164Z" transform="translate(-185.801 -135.299)" fill="#f4e0ce"/>
      <path id="Trazado_123107" data-name="Trazado 123107" d="M257.659,164.886l.114,40.259-1.511.872-.016-5.719.758-.438L257,198.125l-.758.437-.088-31.062-20.544,11.861.088,31.063-.753.435.005,1.736.753-.435.016,5.719-1.511.872-.114-40.259Z" transform="translate(-221.728 -156.177)" fill="#846340"/>
      <path id="Trazado_123108" data-name="Trazado 123108" d="M919.508,549.439l-.01,3.476,31.955-18.57.01-3.476Z" transform="translate(-870.932 -502.829)" fill="#846340"/>
      <path id="Trazado_123109" data-name="Trazado 123109" d="M0,355.063,48.566,383.1l.01-3.476L.01,351.587Z" transform="translate(0 -333.017)" fill="#c8a376"/>
      <path id="Trazado_123110" data-name="Trazado 123110" d="M32.142,0,.186,18.566l48.566,28.04,31.955-18.57Z" transform="translate(-0.177 0.004)" fill="#f4e0ce"/>
      <path id="Trazado_123111" data-name="Trazado 123111" d="M80.716,62.74l27.705-16.1L152.73,72.222l-27.705,16.1Z" transform="translate(-76.452 -44.176)" fill="#c8a376"/>
    </g>
  </g>
</svg>
