<svg id="Grupo_87998" data-name="Grupo 87998" xmlns="http://www.w3.org/2000/svg" xmlns:xlink="http://www.w3.org/1999/xlink" width="83.759" height="62.953" viewBox="0 0 83.759 62.953">
  <defs>
    <clipPath id="clip-path">
      <rect id="Rectángulo_35896" data-name="Rectángulo 35896" width="83.758" height="62.952" fill="none"/>
    </clipPath>
    <clipPath id="clip-path-2">
      <path id="Trazado_124436" data-name="Trazado 124436" d="M48.553,0,0,28.04,31.8,46.969l.637.384,1.84,1.1.219.628.154,9.74L83.238,30.768v-.01a1.307,1.307,0,0,0,.52-1.155l-.012-6.988a3.564,3.564,0,0,0-.254-1.331,2.6,2.6,0,0,0-.219-.474,4.349,4.349,0,0,0-.839-1.034,6.879,6.879,0,0,0-.957-.726,2.315,2.315,0,0,0-.328-.221c-.1-.055-.188-.121-.3-.177a.854.854,0,0,0-.178-.1l-.219-.133-2.234-1.288Z" fill="none"/>
    </clipPath>
    <linearGradient id="linear-gradient" x1="0.089" y1="0.862" x2="0.1" y2="0.862" gradientUnits="objectBoundingBox">
      <stop offset="0" stop-color="#0e70ac"/>
      <stop offset="0.044" stop-color="#1079b3"/>
      <stop offset="0.156" stop-color="#1280b8"/>
      <stop offset="0.274" stop-color="#0d66b5"/>
      <stop offset="1" stop-color="#0d6eb5"/>
    </linearGradient>
    <clipPath id="clip-path-4">
      <path id="Trazado_124439" data-name="Trazado 124439" d="M.759,35.537l-.739.428L32.15,54.527l.329-.19,0-9.234L2.864,30.656Z" transform="translate(-0.02 -30.656)" fill="none"/>
    </clipPath>
    <linearGradient id="linear-gradient-2" x1="0.094" y1="0.981" x2="0.121" y2="0.981" gradientUnits="objectBoundingBox">
      <stop offset="0" stop-color="#204e66"/>
      <stop offset="0.995" stop-color="#1e5d81"/>
      <stop offset="1" stop-color="#1e5d81"/>
    </linearGradient>
    <clipPath id="clip-path-6">
      <rect id="Rectángulo_35889" data-name="Rectángulo 35889" width="30.311" height="21.507" fill="none"/>
    </clipPath>
    <clipPath id="clip-path-7">
      <rect id="Rectángulo_35890" data-name="Rectángulo 35890" width="30.324" height="19.616" fill="none"/>
    </clipPath>
    <clipPath id="clip-path-8">
      <path id="Trazado_124445" data-name="Trazado 124445" d="M36.419,40.04a5.109,5.109,0,0,1,1.94,2.051,3.456,3.456,0,0,1,.328,1.526l0,2.256,0,4.738a1.373,1.373,0,0,1-.416,1.095l2.54-1.464a1.381,1.381,0,0,0,.415-1.1l0-4.738,0-2.255a3.449,3.449,0,0,0-.328-1.527,5.071,5.071,0,0,0-1.94-2.049Z" transform="translate(-36.419 -38.575)" fill="none"/>
    </clipPath>
    <linearGradient id="linear-gradient-3" x1="-3.401" y1="1.559" x2="-3.3" y2="1.559" gradientUnits="objectBoundingBox">
      <stop offset="0" stop-color="#d8981e"/>
      <stop offset="0.162" stop-color="#dda11c"/>
      <stop offset="1" stop-color="#f4a718"/>
    </linearGradient>
    <clipPath id="clip-path-9">
      <path id="Trazado_124446" data-name="Trazado 124446" d="M67.112,22.343a5.1,5.1,0,0,1,1.94,2.051,3.46,3.46,0,0,1,.329,1.526l0,2.256,0,4.738a1.371,1.371,0,0,1-.417,1.1l2.542-1.466a1.382,1.382,0,0,0,.415-1.1l0-4.738,0-2.256a3.464,3.464,0,0,0-.329-1.526,5.092,5.092,0,0,0-1.94-2.049Z" transform="translate(-67.112 -20.878)" fill="none"/>
    </clipPath>
    <linearGradient id="linear-gradient-4" x1="-6.499" y1="2.951" x2="-6.398" y2="2.951" xlink:href="#linear-gradient-3"/>
    <clipPath id="clip-path-11">
      <rect id="Rectángulo_35894" data-name="Rectángulo 35894" width="44.943" height="26.079" fill="none"/>
    </clipPath>
  </defs>
  <g id="Grupo_87996" data-name="Grupo 87996" clip-path="url(#clip-path)">
    <g id="Grupo_87974" data-name="Grupo 87974">
      <g id="Grupo_87973" data-name="Grupo 87973" clip-path="url(#clip-path-2)">
        <rect id="Rectángulo_35886" data-name="Rectángulo 35886" width="101.948" height="92.821" transform="matrix(0.866, -0.5, 0.5, 0.866, -25.471, 14.706)" fill="url(#linear-gradient)"/>
      </g>
    </g>
    <g id="Grupo_87976" data-name="Grupo 87976" transform="translate(0 0)">
      <g id="Grupo_87975" data-name="Grupo 87975" clip-path="url(#clip-path)">
        <path id="Trazado_124437" data-name="Trazado 124437" d="M25.548,47.9l53.16-30.692c.113.059.2.12.3.176a3.229,3.229,0,0,1,.327.216L25.673,48.587Z" transform="translate(2.141 1.442)" fill="#00438b"/>
        <path id="Trazado_124438" data-name="Trazado 124438" d="M5.784,36.255.648,35.547l.005.008-.007,0-.636,0,0,.866L33.428,55.683c1.006.571,1.811.106,1.822-1.05l-.005-7c-.008-1.566-.8-2.8-3.067-4.062l-2.465-1.4Z" transform="translate(0.001 2.979)" fill="#00438b"/>
      </g>
    </g>
    <g id="Grupo_87978" data-name="Grupo 87978" transform="translate(0.022 33.226)">
      <g id="Grupo_87977" data-name="Grupo 87977" clip-path="url(#clip-path-4)">
        <rect id="Rectángulo_35888" data-name="Rectángulo 35888" width="40.046" height="36.903" transform="matrix(0.866, -0.5, 0.5, 0.866, -10.337, 5.968)" fill="url(#linear-gradient-2)"/>
      </g>
    </g>
    <g id="Grupo_87986" data-name="Grupo 87986" transform="translate(0 0)">
      <g id="Grupo_87985" data-name="Grupo 87985" clip-path="url(#clip-path)">
        <path id="Trazado_124440" data-name="Trazado 124440" d="M28.506,43.144l1.583.914,0,9.234-1.585-.916Z" transform="translate(2.389 3.616)" fill="#d8d8d8"/>
        <path id="Trazado_124441" data-name="Trazado 124441" d="M30.846,53.724l0-.043.009-3.955-.005-1.848,0-.464V44.5l0-.012L1.357,27.454l-.74-.421-.031-.015L.536,26.99l.008.053L.537,28.266l.008,2.1L.533,32.207l.007.01.008,4,0,.013L5.665,39.2l1.819,1.038,23.085,13.32Z" transform="translate(0.045 2.262)" fill="#d8d8d8"/>
        <g id="Grupo_87981" data-name="Grupo 87981" transform="translate(0.584 34.478)" opacity="0.1" style="mix-blend-mode: multiply;isolation: isolate">
          <g id="Grupo_87980" data-name="Grupo 87980">
            <g id="Grupo_87979" data-name="Grupo 87979" clip-path="url(#clip-path-6)">
              <path id="Trazado_124442" data-name="Trazado 124442" d="M30.847,53.319l0-3.965L.539,31.812l.008,4L5.381,38.62l1.825,1.046.276.167Z" transform="translate(-0.539 -31.812)" fill="#dcdbe4"/>
            </g>
          </g>
        </g>
        <g id="Grupo_87984" data-name="Grupo 87984" transform="translate(0.571 30.527)" opacity="0.1" style="mix-blend-mode: multiply;isolation: isolate">
          <g id="Grupo_87983" data-name="Grupo 87983">
            <g id="Grupo_87982" data-name="Grupo 87982" clip-path="url(#clip-path-7)">
              <path id="Trazado_124443" data-name="Trazado 124443" d="M.527,28.167l.008,2.1.015,0,.059.044L30.849,47.783l0-.465-.008-1.654L.614,28.218.54,28.171Z" transform="translate(-0.527 -28.167)" fill="#dcdbe4"/>
            </g>
          </g>
        </g>
        <path id="Trazado_124444" data-name="Trazado 124444" d="M.014,25.855l29.7,17.13,0,.923L.021,26.764Z" transform="translate(0.001 2.167)" fill="#00438b"/>
      </g>
    </g>
    <g id="Grupo_87988" data-name="Grupo 87988" transform="translate(39.471 41.808)">
      <g id="Grupo_87987" data-name="Grupo 87987" clip-path="url(#clip-path-8)">
        <rect id="Rectángulo_35892" data-name="Rectángulo 35892" width="10.736" height="13.78" transform="matrix(0.866, -0.5, 0.5, 0.866, -5.686, 3.283)" fill="url(#linear-gradient-3)"/>
      </g>
    </g>
    <g id="Grupo_87990" data-name="Grupo 87990" transform="translate(72.737 22.628)">
      <g id="Grupo_87989" data-name="Grupo 87989" clip-path="url(#clip-path-9)">
        <rect id="Rectángulo_35893" data-name="Rectángulo 35893" width="10.737" height="13.782" transform="translate(-5.687 3.284) rotate(-30.001)" fill="url(#linear-gradient-4)"/>
      </g>
    </g>
    <g id="Grupo_87995" data-name="Grupo 87995" transform="translate(0 0)">
      <g id="Grupo_87994" data-name="Grupo 87994" clip-path="url(#clip-path)">
        <g id="Grupo_87993" data-name="Grupo 87993" transform="translate(38.55 19.777)" opacity="0.5" style="mix-blend-mode: overlay;isolation: isolate">
          <g id="Grupo_87992" data-name="Grupo 87992">
            <g id="Grupo_87991" data-name="Grupo 87991" clip-path="url(#clip-path-11)">
              <path id="Trazado_124447" data-name="Trazado 124447" d="M80.511,19.755a1.807,1.807,0,0,0-.573-.067,6.591,6.591,0,0,0-2.165.893c-1.013.549-37.582,21.15-42.2,23.746,4.621-2.651,41.6-23.924,42.586-24.561a2.56,2.56,0,0,0,1.3-1.518,4.328,4.328,0,0,1,.839,1.034,2.6,2.6,0,0,1,.219.474" transform="translate(-35.569 -18.248)" fill="#c1c1c1"/>
            </g>
          </g>
        </g>
        <path id="Trazado_124448" data-name="Trazado 124448" d="M41.057,41.055a3.49,3.49,0,0,1,2.031,2.573,11.425,11.425,0,0,1,.3,4.553A15.29,15.29,0,0,1,41.018,55a9.561,9.561,0,0,1-6.334,4.476A11.61,11.61,0,0,1,22.23,53.816a13.749,13.749,0,0,1-1.8-8.473,8.778,8.778,0,0,1,2.151-5.148,3.754,3.754,0,0,1,2.995-1.3,6.693,6.693,0,0,1,4.415,2.159,6.11,6.11,0,0,0,1.132.855,1.912,1.912,0,0,0,.436.207c.072.024.143.048.216.067a5.461,5.461,0,0,0,.921.212c.115.005.23.008.345.005a11.371,11.371,0,0,0,3.79-.638q.844-.247,1.667-.557a.8.8,0,0,0,.364-.036,8.307,8.307,0,0,1,1.333-.251,1.353,1.353,0,0,1,.865.137" transform="translate(1.705 3.259)" fill="#e93548"/>
        <path id="Trazado_124449" data-name="Trazado 124449" d="M31.793,43.36a2.69,2.69,0,0,1-.918-.228.459.459,0,0,1-.146-.3,7.266,7.266,0,0,1-.011-2.7.584.584,0,0,1,.144-.3,8.361,8.361,0,0,1,2.354-3.907,22.227,22.227,0,0,1,2.9-2.175A47.905,47.905,0,0,0,41.524,29.5a15.144,15.144,0,0,0,1.221-1.3,6.384,6.384,0,0,1,.342,1.319,14.083,14.083,0,0,1,.124,4.719,10.324,10.324,0,0,1-3.92,6.814c-.08.063-.155.134-.232.2a3.553,3.553,0,0,1-1.425.9,14.852,14.852,0,0,1-5.13,1.24c-.113,0-.227-.007-.339-.011.011-.155.15-.157.247-.189a38.271,38.271,0,0,0,4.8-1.941,8.456,8.456,0,0,0,2.323-1.527,1.557,1.557,0,0,0,.383-.6.578.578,0,0,0-.347-.811,3.224,3.224,0,0,0-1.206-.258c-.332-.005-.662.005-.994-.005-.088,0-.21.01-.227-.106-.013-.1.094-.13.171-.151a17.571,17.571,0,0,0,1.942-.645,6.365,6.365,0,0,0,2.318-1.275.965.965,0,0,0-.087-1.515,2.785,2.785,0,0,0-.547-.351c-.355-.176-.357-.224-.075-.486a6.72,6.72,0,0,0,1.187-1.3,1.994,1.994,0,0,0,.228-1.835c-.119-.322-.2-.328-.4-.055-.466.647-.939,1.289-1.447,1.9a24.4,24.4,0,0,1-3.622,3.645,16.254,16.254,0,0,0-3.631,3.839,7.888,7.888,0,0,0-1.256,3.307.447.447,0,0,1-.138.334" transform="translate(2.564 2.363)" fill="#c9cd36"/>
        <path id="Trazado_124450" data-name="Trazado 124450" d="M30.864,42.807a1.657,1.657,0,0,1-.434-.187,6.872,6.872,0,0,1-.673-1.559c-.174-.43-.3-.879-.447-1.32a.339.339,0,0,1-.012-.3,19.259,19.259,0,0,1-.927-4.544,5.4,5.4,0,0,1,.186-2,3.723,3.723,0,0,1,.2-.487,1,1,0,0,1,.838-.631,17.793,17.793,0,0,0,1.885-.365c.232-.053.232.012.2.2-.244,1.53-.454,3.067-.6,4.611a27.5,27.5,0,0,0-.216,3.339,2.884,2.884,0,0,1-.008.951,8.964,8.964,0,0,0,.059,1.812c.023.152.08.328-.05.473" transform="translate(2.377 2.632)" fill="#5c4e00"/>
        <path id="Trazado_124451" data-name="Trazado 124451" d="M29.566,38.823C29.9,39.9,30.3,40.947,30.7,42a13.88,13.88,0,0,1-2.04-1.642,7.333,7.333,0,0,0-3.038-1.387c-.15-.029-.313.043-.45-.066a26.672,26.672,0,0,1,3.87-.087c.176.008.351,0,.527.005" transform="translate(2.109 3.25)" fill="#cc1e38"/>
        <path id="Trazado_124452" data-name="Trazado 124452" d="M37.09,41.143l1.425-.9a4.371,4.371,0,0,1,1.138.694,5.094,5.094,0,0,0-2.214.21c-.12.028-.235.088-.349-.009" transform="translate(3.109 3.373)" fill="#cd1f38"/>
        <path id="Trazado_124453" data-name="Trazado 124453" d="M30.675,42.176c-.079-.969-.066-1.94-.059-2.911,0-.109-.036-.23.057-.324l.187-.008a7.742,7.742,0,0,0,.013,3.3l-.2-.059" transform="translate(2.566 3.263)" fill="#c72737"/>
        <path id="Trazado_124454" data-name="Trazado 124454" d="M31.7,43.222a8.441,8.441,0,0,1,.866-2.883,11.282,11.282,0,0,1,1.839-2.551A27.207,27.207,0,0,1,37.3,35.174a18.893,18.893,0,0,0,2.6-2.653c.693-.819,1.342-1.671,1.96-2.548.122-.176.207-.148.31.029a2.114,2.114,0,0,1-.154,2.168,6.715,6.715,0,0,1-1.3,1.36c-.134.108-.113.157.046.223a1.969,1.969,0,0,1,.99.759,1.025,1.025,0,0,1-.137,1.227,4.912,4.912,0,0,1-1.807,1.1,16.271,16.271,0,0,1-2.595.9,1.3,1.3,0,0,0-.18.1c.426,0,.77.007,1.111,0a3.451,3.451,0,0,1,1.154.189c.711.227.869.661.467,1.3a3.7,3.7,0,0,1-1.141,1.029,20.09,20.09,0,0,1-3.284,1.656c-1.068.464-2.175.825-3.262,1.237l-.372-.022" transform="translate(2.657 2.502)" fill="#b9b000"/>
        <path id="Trazado_124455" data-name="Trazado 124455" d="M25.917,44.775a16.671,16.671,0,0,1-.217,2.242,7.066,7.066,0,0,0,.553,4.073c.185.4.4.792.594,1.193.215.455.059.695-.449.673a1.852,1.852,0,0,1-1.324-.829,9.664,9.664,0,0,1-1.963-4.644,18.4,18.4,0,0,1-.161-2.248,2.78,2.78,0,0,1,.484-1.729A1.656,1.656,0,0,1,25,42.971a1.117,1.117,0,0,1,.841,1,2.749,2.749,0,0,1,.078.8" transform="translate(1.923 3.599)" fill="#f28591"/>
        <path id="Trazado_124456" data-name="Trazado 124456" d="M29.075,53.695a.665.665,0,0,1-.3.6,2.039,2.039,0,0,1-1.28.385.676.676,0,0,1-.706-.735,1.241,1.241,0,0,1,.686-1.1,1.108,1.108,0,0,1,1.247.121.826.826,0,0,1,.354.73" transform="translate(2.245 4.417)" fill="#f28591"/>
      </g>
    </g>
  </g>
</svg>
