<svg xmlns="http://www.w3.org/2000/svg" width="272.174" height="300.5" viewBox="0 0 272.174 300.5">
  <g id="Grupo_88036" data-name="Grupo 88036" transform="translate(9019.587 10710)">
    <g id="Grupo_87386" data-name="Grupo 87386" transform="translate(570 -311)">
      <path id="Rectángulo_34017" data-name="Rectángulo 34017" d="M0,0H140a77,77,0,0,1,77,77V300.5a0,0,0,0,1,0,0H0a0,0,0,0,1,0,0V0A0,0,0,0,1,0,0Z" transform="translate(-9562 -10399)" fill="#6b8dfc"/>
      <g id="Grupo_80932" data-name="Grupo 80932" transform="translate(-9711.563 -10432.907)">
        <path id="Trazado_114646" data-name="Trazado 114646" d="M274.765,153.931c-1.55,23.991-19.953,46.9-44.875,48.318-28.625,2.193-54.9-13.505-83.415-13.671-14.54-1.247-28.176,4.321-42.345,6.118-32,1.175-36.879-36.434-30.911-60.675C98.39,19.738,276.507,35.287,274.765,153.931Z" transform="translate(84.545 -1.289)" fill="#a6bbff"/>
      </g>
    </g>
    <g id="Grupo_87680" data-name="Grupo 87680" transform="translate(598.833 -319.712)">
      <g id="Grupo_88037" data-name="Grupo 88037" transform="translate(-3725.53 743.212)">
        <path id="Trazado_124493" data-name="Trazado 124493" d="M169.231,260.187c4.075,1.537,5.8,4.961,6.935,8.789a39,39,0,0,1,1.017,15.547,52.213,52.213,0,0,1-8.085,23.3c-5.2,7.917-12.167,13.516-21.629,15.284-15.265,2.852-32.824-2.464-42.53-19.336a46.961,46.961,0,0,1-6.157-28.938c.688-6.559,2.813-12.568,7.348-17.579a12.807,12.807,0,0,1,10.226-4.438c6.134.189,10.819,3.358,15.077,7.37A20.914,20.914,0,0,0,135.3,263.1a6.556,6.556,0,0,0,1.487.7c.244.082.489.163.737.232a19.039,19.039,0,0,0,3.145.726c.393.016.785.025,1.178.019,4.476.23,8.713-.944,12.943-2.18,1.922-.562,3.817-1.2,5.692-1.9a2.714,2.714,0,0,0,1.245-.12,28.1,28.1,0,0,1,4.554-.859,4.6,4.6,0,0,1,2.952.465" transform="translate(-5896.063 -11198.396)" fill="#e7384c"/>
        <path id="Trazado_124494" data-name="Trazado 124494" d="M171.394,232.811a9.171,9.171,0,0,1-3.136-.777,1.565,1.565,0,0,1-.5-1.021,24.88,24.88,0,0,1-.038-9.217,2.036,2.036,0,0,1,.492-1.033,28.556,28.556,0,0,1,8.039-13.341c2.986-2.893,6.508-5.07,9.9-7.427a163.99,163.99,0,0,0,18.472-14.516,51.685,51.685,0,0,0,4.173-4.429,21.709,21.709,0,0,1,1.169,4.505,48.116,48.116,0,0,1,.422,16.115A35.251,35.251,0,0,1,197,224.937c-.276.216-.53.459-.794.69a12.056,12.056,0,0,1-4.867,3.058c-5.635,2.252-11.374,4.078-17.515,4.236-.387.01-.774-.024-1.161-.038.039-.529.511-.535.845-.645a130.116,130.116,0,0,0,16.394-6.628,28.845,28.845,0,0,0,7.934-5.214,5.283,5.283,0,0,0,1.3-2.032,1.972,1.972,0,0,0-1.182-2.768,11.021,11.021,0,0,0-4.122-.882c-1.13-.016-2.262.018-3.392-.018-.3-.009-.719.034-.774-.363-.044-.323.322-.443.585-.511a59.993,59.993,0,0,0,6.633-2.205c2.821-1.1,5.7-2.139,7.915-4.352a3.294,3.294,0,0,0-.3-5.174,9.708,9.708,0,0,0-1.869-1.2c-1.214-.6-1.216-.764-.255-1.658a22.914,22.914,0,0,0,4.053-4.449,6.807,6.807,0,0,0,.778-6.267c-.407-1.1-.68-1.123-1.353-.189-1.59,2.209-3.2,4.4-4.938,6.5a83.618,83.618,0,0,1-12.369,12.445,55.491,55.491,0,0,0-12.4,13.109,26.934,26.934,0,0,0-4.291,11.294,1.522,1.522,0,0,1-.469,1.139" transform="translate(-5926.925 -11166.209)" fill="#cacc45"/>
        <path id="Trazado_124495" data-name="Trazado 124495" d="M160.831,241.465a5.716,5.716,0,0,1-1.481-.641c-1.161-1.6-1.578-3.529-2.3-5.32-.592-1.471-1.025-3-1.521-4.51a1.15,1.15,0,0,1-.041-1.019,65.734,65.734,0,0,1-3.168-15.517,18.479,18.479,0,0,1,.637-6.816,13.127,13.127,0,0,1,.679-1.66,3.411,3.411,0,0,1,2.861-2.153,60.743,60.743,0,0,0,6.438-1.248c.791-.181.791.041.688.689-.834,5.228-1.553,10.474-2.058,15.744a93.707,93.707,0,0,0-.736,11.4,9.778,9.778,0,0,1-.029,3.246,30.85,30.85,0,0,0,.2,6.19c.077.518.272,1.119-.171,1.613" transform="translate(-5920.179 -11175.839)" fill="#5c4d00"/>
        <path id="Trazado_124496" data-name="Trazado 124496" d="M145.893,252.2c1.134,3.67,2.51,7.255,3.862,10.849-2.723-1.37-4.6-3.8-6.969-5.608a25,25,0,0,0-10.374-4.735c-.51-.1-1.069.148-1.535-.226a90.787,90.787,0,0,1,13.218-.3c.6.027,1.2.014,1.8.019" transform="translate(-5910.583 -11198.066)" fill="#cb223c"/>
        <path id="Trazado_124497" data-name="Trazado 124497" d="M167.616,264.137c-.269-3.309-.226-6.625-.2-9.94,0-.374-.12-.785.2-1.11l.639-.023a26.444,26.444,0,0,0,.045,11.272l-.68-.2" transform="translate(-5926.963 -11198.511)" fill="#c62a3b"/>
        <path id="Trazado_124498" data-name="Trazado 124498" d="M174.716,237.783a28.846,28.846,0,0,1,2.956-9.846,38.557,38.557,0,0,1,6.281-8.71,92.3,92.3,0,0,1,9.874-8.923,64.686,64.686,0,0,0,8.862-9.063c2.365-2.8,4.584-5.705,6.69-8.7.421-.6.71-.509,1.062.1a7.225,7.225,0,0,1-.526,7.4,22.908,22.908,0,0,1-4.431,4.646c-.46.371-.385.537.155.763a6.726,6.726,0,0,1,3.379,2.591,3.5,3.5,0,0,1-.469,4.188c-1.68,1.89-3.963,2.787-6.168,3.77a55.6,55.6,0,0,1-8.859,3.057,4.037,4.037,0,0,0-.614.35c1.454,0,2.624.025,3.793-.007a11.854,11.854,0,0,1,3.939.643c2.43.776,2.968,2.259,1.6,4.423a12.636,12.636,0,0,1-3.9,3.512,68.62,68.62,0,0,1-11.213,5.656c-3.647,1.587-7.427,2.818-11.142,4.224l-1.268-.074" transform="translate(-5930.247 -11171.182)" fill="#bab001"/>
        <path id="Trazado_124499" data-name="Trazado 124499" d="M126.1,286.227a57.373,57.373,0,0,1-.74,7.656,24.128,24.128,0,0,0,1.888,13.911c.634,1.378,1.379,2.7,2.027,4.075.734,1.552.2,2.372-1.532,2.3-2.019-.086-3.346-1.421-4.521-2.833-3.827-4.6-5.674-10.052-6.7-15.858a63.15,63.15,0,0,1-.549-7.68,9.476,9.476,0,0,1,1.654-5.9,5.652,5.652,0,0,1,5.342-1.826c1.819.411,2.542,1.789,2.869,3.423a9.322,9.322,0,0,1,.267,2.734" transform="translate(-5903.891 -11210.576)" fill="#f18793"/>
        <path id="Trazado_124500" data-name="Trazado 124500" d="M149.544,348.877a2.281,2.281,0,0,1-1.032,2.049,6.962,6.962,0,0,1-4.37,1.311,2.308,2.308,0,0,1-2.411-2.509,4.237,4.237,0,0,1,2.344-3.759,3.784,3.784,0,0,1,4.261.414,2.815,2.815,0,0,1,1.209,2.495" transform="translate(-5915.449 -11239.972)" fill="#f18793"/>
      </g>
      <g id="Grupo_87678" data-name="Grupo 87678" transform="translate(-9618.42 -10370.287)">
        <path id="Trazado_123082" data-name="Trazado 123082" d="M1299.194,1220.923l-6.771-3.935-.055-19.329,6.771,3.935Z" transform="translate(-1061.666 -983.863)" fill="#c8a376"/>
        <path id="Trazado_123083" data-name="Trazado 123083" d="M1299.14,1194.787l-6.772-3.935,2.562-1.479,6.77,3.935Z" transform="translate(-1061.666 -977.058)" fill="#f4e0ce"/>
        <path id="Trazado_123084" data-name="Trazado 123084" d="M1313.408,1166.308l-6.77-3.935-.017-5.867,6.771,3.934Z" transform="translate(-1073.374 -950.057)" fill="#c8a376"/>
        <path id="Trazado_123085" data-name="Trazado 123085" d="M1299.048,1161.919l-6.771-3.935,2.561-1.478,6.771,3.935Z" transform="translate(-1061.592 -950.057)" fill="#f4e0ce"/>
        <path id="Trazado_123086" data-name="Trazado 123086" d="M895.914,1427.633l-6.771-3.935,2.546-1.469,6.771,3.935Z" transform="translate(-730.421 -1168.345)" fill="#f4e0ce"/>
        <path id="Trazado_123087" data-name="Trazado 123087" d="M910.08,1208.81l-6.772-3.935,69.435-40.089,6.771,3.935Z" transform="translate(-742.058 -956.86)" fill="#f4e0ce"/>
        <path id="Trazado_123088" data-name="Trazado 123088" d="M895.823,1394.762l-6.771-3.935,2.545-1.47,6.772,3.935Z" transform="translate(-730.347 -1141.342)" fill="#f4e0ce"/>
        <path id="Trazado_123089" data-name="Trazado 123089" d="M1001.522,1178.547l.016,5.868-2.56,1.479-69.435,40.088-2.545,1.47-.017-5.868,2.546-1.469,69.434-40.088Z" transform="translate(-761.504 -968.164)" fill="#846340"/>
        <path id="Trazado_123090" data-name="Trazado 123090" d="M895.84,1407.393l-6.771-3.935-.016-5.868,6.771,3.935Z" transform="translate(-730.346 -1148.105)" fill="#c8a376"/>
        <path id="Trazado_123091" data-name="Trazado 123091" d="M1297.677,685.6l-6.771-3.935-.3-104.983,6.771,3.935Z" transform="translate(-1060.22 -473.738)" fill="#c8a376"/>
        <path id="Trazado_123092" data-name="Trazado 123092" d="M873.329,920.864,880.1,924.8l-.386-136.066-6.771-3.935Z" transform="translate(-717.113 -644.703)" fill="#c8a376"/>
        <path id="Trazado_123093" data-name="Trazado 123093" d="M879.714,577.118l-6.772-3.935L952.59,527.2l6.771,3.935Z" transform="translate(-717.113 -433.087)" fill="#f4e0ce"/>
        <path id="Trazado_123094" data-name="Trazado 123094" d="M910.876,595.226l.386,136.066,5.106-2.948-.055-19.33-2.545,1.47-.017-5.868,2.546-1.469L916,598.162l69.435-40.088.3,104.984,2.561-1.479.016,5.868-2.56,1.478.054,19.33,5.106-2.948-.385-136.066Z" transform="translate(-748.275 -451.195)" fill="#846340"/>
        <path id="Trazado_123095" data-name="Trazado 123095" d="M622.415,836.568l-6.771-3.935-.055-19.33,6.771,3.935Z" transform="translate(-505.7 -668.12)" fill="#c8a376"/>
        <path id="Trazado_123096" data-name="Trazado 123096" d="M622.36,810.435l-6.771-3.935,2.561-1.478,6.771,3.935Z" transform="translate(-505.7 -661.316)" fill="#f4e0ce"/>
        <path id="Trazado_123097" data-name="Trazado 123097" d="M636.629,781.953l-6.772-3.935-.016-5.868,6.771,3.935Z" transform="translate(-517.408 -634.313)" fill="#c8a376"/>
        <path id="Trazado_123098" data-name="Trazado 123098" d="M622.265,777.564l-6.772-3.935,2.561-1.478,6.771,3.935Z" transform="translate(-505.621 -634.313)" fill="#f4e0ce"/>
        <path id="Trazado_123099" data-name="Trazado 123099" d="M219.133,1043.278l-6.771-3.935,2.546-1.469,6.771,3.935Z" transform="translate(-174.453 -852.602)" fill="#f4e0ce"/>
        <path id="Trazado_123100" data-name="Trazado 123100" d="M233.3,824.455l-6.771-3.935,69.435-40.088,6.772,3.935Z" transform="translate(-186.09 -641.116)" fill="#f4e0ce"/>
        <path id="Trazado_123101" data-name="Trazado 123101" d="M219.039,1010.407l-6.771-3.935,2.546-1.47,6.771,3.935Z" transform="translate(-174.376 -825.599)" fill="#f4e0ce"/>
        <path id="Trazado_123102" data-name="Trazado 123102" d="M324.738,794.195l.017,5.867-2.561,1.479-69.434,40.088-2.546,1.469-.017-5.868,2.546-1.469,69.435-40.089Z" transform="translate(-205.534 -652.422)" fill="#846340"/>
        <path id="Trazado_123103" data-name="Trazado 123103" d="M219.055,1023.038l-6.771-3.935-.017-5.868,6.771,3.935Z" transform="translate(-174.375 -832.362)" fill="#c8a376"/>
        <path id="Trazado_123104" data-name="Trazado 123104" d="M620.9,301.246l-6.771-3.935-.3-104.983,6.771,3.935Z" transform="translate(-504.253 -157.995)" fill="#c8a376"/>
        <path id="Trazado_123105" data-name="Trazado 123105" d="M203.319,540.445l-6.771-3.935-.385-136.066,6.771,3.935Z" transform="translate(-161.145 -328.96)" fill="#c8a376"/>
        <path id="Trazado_123106" data-name="Trazado 123106" d="M202.933,192.763l-6.771-3.935,79.647-45.984,6.772,3.935Z" transform="translate(-161.145 -117.345)" fill="#f4e0ce"/>
        <path id="Trazado_123107" data-name="Trazado 123107" d="M313.741,164.886l.385,136.066L309.02,303.9l-.055-19.33,2.561-1.479-.017-5.867-2.56,1.478-.3-104.983-69.435,40.088.3,104.984-2.546,1.469.017,5.868,2.546-1.47.054,19.33-5.106,2.948-.386-136.066Z" transform="translate(-192.304 -135.452)" fill="#846340"/>
        <path id="Trazado_123108" data-name="Trazado 123108" d="M919.532,593.632l-.033,11.747,108-62.762.033-11.747Z" transform="translate(-755.358 -436.103)" fill="#846340"/>
        <path id="Trazado_123109" data-name="Trazado 123109" d="M0,363.334,164.14,458.1l.034-11.747L.033,351.587Z" transform="translate(0 -288.825)" fill="#c8a376"/>
        <path id="Trazado_123110" data-name="Trazado 123110" d="M108.187,0,.186,62.758l164.141,94.767,108-62.763Z" transform="translate(-0.153 0.004)" fill="#f4e0ce"/>
        <path id="Trazado_123111" data-name="Trazado 123111" d="M80.716,101.055,174.352,46.64,324.106,133.1l-93.637,54.415Z" transform="translate(-66.307 -38.314)" fill="#c8a376"/>
      </g>
    </g>
  </g>
</svg>
