<svg id="Grupo_88026" data-name="Grupo 88026" xmlns="http://www.w3.org/2000/svg" width="81.192" height="53.5" viewBox="0 0 81.192 53.5">
  <path id="Trazado_124478" data-name="Trazado 124478" d="M58.59,79.228,45.611,72.247V52.386L58.59,57.793Z" transform="translate(-39.196 -45.017)" fill="#df9e68"/>
  <path id="Trazado_124479" data-name="Trazado 124479" d="M160.2,74.094l-22.32,5.736V58.445l22.32-5.36Z" transform="translate(-118.489 -45.618)" fill="#b06e4c"/>
  <path id="Trazado_124480" data-name="Trazado 124480" d="M81.058,20.246,58.591,25.523,45.612,20.148l22.467-5.277Z" transform="translate(-39.196 -12.779)" fill="#e9b375"/>
  <line id="Línea_197" data-name="Línea 197" x1="22.337" y2="5.331" transform="translate(12.051 4.372)" fill="none" stroke="#b26e4b" stroke-miterlimit="10" stroke-width="1"/>
  <path id="Trazado_124481" data-name="Trazado 124481" d="M338.2,83.114l-12.979-6.981V56.271L338.2,61.679Z" transform="translate(-279.477 -48.356)" fill="#df9e68"/>
  <path id="Trazado_124482" data-name="Trazado 124482" d="M439.814,77.979l-22.32,5.736V62.33l22.32-5.36Z" transform="translate(-358.77 -48.957)" fill="#996042"/>
  <path id="Trazado_124483" data-name="Trazado 124483" d="M325.222,24.034,338.2,29.409l22.467-5.277-12.979-5.375Z" transform="translate(-279.477 -16.118)" fill="#e9b375"/>
  <line id="Línea_198" data-name="Línea 198" x1="22.337" y2="5.331" transform="translate(51.381 4.918)" fill="none" stroke="#b26e4b" stroke-miterlimit="10" stroke-width="1"/>
  <path id="Trazado_124484" data-name="Trazado 124484" d="M166.59,64.356l-12.979-6.981V37.514l12.979,5.408Z" transform="translate(-132.004 -32.237)" fill="#e7384c"/>
  <path id="Trazado_124485" data-name="Trazado 124485" d="M268.2,59.222l-22.32,5.736V43.573l22.32-5.36Z" transform="translate(-211.298 -32.838)" fill="#cb223c"/>
  <path id="Trazado_124486" data-name="Trazado 124486" d="M176.079,0,153.612,5.277l12.979,5.375,22.467-5.277Z" transform="translate(-132.005 0)" fill="#e75162"/>
  <line id="Línea_199" data-name="Línea 199" x1="22.337" y2="5.331" transform="translate(27.242 2.28)" fill="none" stroke="#cb223c" stroke-miterlimit="10" stroke-width="1"/>
  <path id="Trazado_124487" data-name="Trazado 124487" d="M0,163.708l12.979,6.981V149.254L0,143.846Z" transform="translate(0 -123.613)" fill="#d19462"/>
  <path id="Trazado_124488" data-name="Trazado 124488" d="M114.592,165.554l-22.32,5.736V149.905l22.32-5.36Z" transform="translate(-79.293 -124.214)" fill="#996042"/>
  <path id="Trazado_124489" data-name="Trazado 124489" d="M0,111.609l12.979,5.375,22.467-5.277-12.979-5.375Z" transform="translate(0 -91.376)" fill="#e9b375"/>
  <line id="Línea_200" data-name="Línea 200" x1="22.337" y2="5.331" transform="translate(5.636 17.237)" fill="none" stroke="#b26e4b" stroke-miterlimit="10" stroke-width="1"/>
  <path id="Trazado_124490" data-name="Trazado 124490" d="M233.475,209.378l12.979,6.981V194.924l-12.979-5.408Z" transform="translate(-200.635 -162.859)" fill="#df9e68"/>
  <path id="Trazado_124491" data-name="Trazado 124491" d="M325.747,195.575V216.96l22.32-5.736V190.215Z" transform="translate(-279.928 -163.46)" fill="#b06e4c"/>
  <path id="Trazado_124492" data-name="Trazado 124492" d="M268.921,157.377l-22.467,5.277-12.979-5.375L255.942,152Z" transform="translate(-200.635 -130.621)" fill="#e9b375"/>
  <line id="Línea_201" data-name="Línea 201" x1="22.337" y2="5.331" transform="translate(38.476 23.661)" fill="none" stroke="#b26e4b" stroke-miterlimit="10" stroke-width="1"/>
</svg>
