<svg xmlns="http://www.w3.org/2000/svg" xmlns:xlink="http://www.w3.org/1999/xlink" width="77.648" height="73.877" viewBox="0 0 77.648 73.877">
  <defs>
    <clipPath id="clip-path">
      <rect id="Rectángulo_35965" data-name="Rectángulo 35965" width="77.648" height="73.877" fill="none"/>
    </clipPath>
  </defs>
  <g id="Grupo_88067" data-name="Grupo 88067" clip-path="url(#clip-path)">
    <path id="Trazado_124851" data-name="Trazado 124851" d="M171.947,144.024c-.221,3.1-.811,11.136-.885,12.464s2.178,1.7,2.38.59,2.34-11.874,2.34-11.874Z" transform="translate(-160.746 -91.307)" fill="#39473e"/>
    <path id="Trazado_124852" data-name="Trazado 124852" d="M130.818,153.293s-3.373,14.984-3.815,16.459,1.335,1.683,1.859.725c.627-1.148,7.115-16.741,7.115-16.741Z" transform="translate(-104.79 -97.184)" fill="#39473e"/>
    <path id="Trazado_124853" data-name="Trazado 124853" d="M99.755,151.479c-.23,1.508-1.368,7.282-1.629,8.795-.139.8,2.037,1.105,2.292.182.459-1.664,2.8-8.977,2.8-8.977Z" transform="translate(-61.488 -96.033)" fill="#39473e"/>
    <path id="Trazado_124854" data-name="Trazado 124854" d="M35.178,149.946s6.011,13.128,6.748,14.6,2.8,1.18,2.508-.516-3.761-14.971-3.761-14.971Z" transform="translate(20.31 -94.501)" fill="#39473e"/>
    <path id="Trazado_124855" data-name="Trazado 124855" d="M77.616,32.595C77.375,36.55,74.711,44.5,71.925,50.07s-4.6,7.992-7.385,8.113S24.7,60.362,22.643,60,6.9,55.519,6.175,54.55,2.9,42.562,1.452,33.6A138.638,138.638,0,0,1,.146,7.762,2.889,2.889,0,0,1,.982,5.9c1.463-1.5,4.546-1.84,7.009-1.84H50.857c6.416,0,7.507.121,7.99,2.906S59.7,17.376,60.058,20.04A5.789,5.789,0,0,0,64.782,25c2.3.365,4.963.727,8.476.969a4.112,4.112,0,0,1,3.732,2.18h0a8.774,8.774,0,0,1,.625,4.441" transform="translate(0 -2.571)" fill="#e07346"/>
    <path id="Trazado_124856" data-name="Trazado 124856" d="M152.756,33.637a1.264,1.264,0,1,0-1.264,1.264,1.265,1.265,0,0,0,1.264-1.264m-.2,0a1.059,1.059,0,1,1-1.06-1.06,1.061,1.061,0,0,1,1.06,1.06" transform="translate(-130.096 -20.524)" fill="#aa5b5b"/>
    <path id="Trazado_124857" data-name="Trazado 124857" d="M123.035,33.637a1.264,1.264,0,1,0-1.264,1.264,1.265,1.265,0,0,0,1.264-1.264m-.2,0a1.06,1.06,0,1,1-1.06-1.06,1.061,1.061,0,0,1,1.06,1.06" transform="translate(-89.496 -20.524)" fill="#aa5b5b"/>
    <path id="Trazado_124858" data-name="Trazado 124858" d="M93.314,33.637A1.264,1.264,0,1,0,92.051,34.9a1.265,1.265,0,0,0,1.264-1.264m-.2,0a1.06,1.06,0,1,1-1.06-1.06,1.061,1.061,0,0,1,1.06,1.06" transform="translate(-48.896 -20.524)" fill="#aa5b5b"/>
    <path id="Trazado_124859" data-name="Trazado 124859" d="M151.75,60.874a1.264,1.264,0,1,0-1.264,1.264,1.265,1.265,0,0,0,1.264-1.264m-.2,0a1.06,1.06,0,1,1-1.06-1.06,1.061,1.061,0,0,1,1.06,1.06" transform="translate(-128.721 -37.791)" fill="#aa5b5b"/>
    <path id="Trazado_124860" data-name="Trazado 124860" d="M122.029,60.874a1.264,1.264,0,1,0-1.264,1.264,1.265,1.265,0,0,0,1.264-1.264m-.2,0a1.06,1.06,0,1,1-1.06-1.06,1.061,1.061,0,0,1,1.06,1.06" transform="translate(-88.122 -37.791)" fill="#aa5b5b"/>
    <path id="Trazado_124861" data-name="Trazado 124861" d="M92.308,60.874a1.264,1.264,0,1,0-1.264,1.264,1.265,1.265,0,0,0,1.264-1.264m-.2,0a1.059,1.059,0,1,1-1.06-1.06,1.061,1.061,0,0,1,1.06,1.06" transform="translate(-47.522 -37.791)" fill="#aa5b5b"/>
    <path id="Trazado_124862" data-name="Trazado 124862" d="M39.125,96.823c.761-.041,1.82-.094,3.091-.158,5.765-.29,15.415-.776,21.914-1.317,7.268-.606,10.726-.986,11.04-1.855a.553.553,0,0,0-.21-.586c-4.631-4.551-16.275-4.471-26.548-4.4-11.507.079-17.868,2.648-19.349,3.631l-.083.055,1.513,2.393.023.013a19.672,19.672,0,0,0,8.072,2.239c.18,0,.359,0,.538-.014m-9.866-4.57c2.212-1.407,9.039-3.473,19.154-3.542,10.233-.071,21.832-.15,26.4,4.342.218.214.176.333.161.372-.282.78-4.681,1.205-10.866,1.721-6.5.541-16.143,1.027-21.907,1.317-1.271.064-2.33.117-3.091.158-3.9.209-8.129-2-8.478-2.188Z" transform="translate(-8.154 -56.099)" fill="#aa5b5b"/>
    <path id="Trazado_124863" data-name="Trazado 124863" d="M64.921,74.027c-.242,3.956-2.906,11.905-5.691,17.475s-4.6,7.992-7.385,8.113c-2.333.1-28.744,1.564-38.441,1.82l-.07,0c-2.9.062-4.156-1.8-6.862-5.6C3.741,92-.535,81.749.055,75.849c.522-5.225,5.332-6,7.8-4.413a10.651,10.651,0,0,1,.824.721l0,0c2.392,2.32,3.355,5.365,4.411,8.083,1.695,4.359,2.38,11.908,7.829,12.272S46.63,91.059,49.06,90.9c2.207-.147,3.539-1.479,4.143-5.475s1.791-10.229,4.572-13.286c1.979-2.178,3.905-3.154,6.519-2.549h0a8.774,8.774,0,0,1,.625,4.441" transform="translate(12.695 -44.004)" fill="#f27e55"/>
    <path id="Trazado_124864" data-name="Trazado 124864" d="M167.055,63.192a31.088,31.088,0,0,1-3.385-.005c-2.06-.363-15.742-4.48-16.468-5.449s-3.271-11.988-4.724-20.948a138.7,138.7,0,0,1-1.306-25.84,2.891,2.891,0,0,1,.836-1.866c2.044,1.914.712,9.665,2.65,13.781s4,6.175,11.5,7.87a13.217,13.217,0,0,1,5.419,2.456c-2.471-1.581-7.281-.811-7.8,4.414-.59,5.9,3.686,16.152,6.416,19.986,2.706,3.8,3.958,5.665,6.862,5.6" transform="translate(-141.027 -5.758)" fill="#bf5f3d"/>
    <path id="Trazado_124865" data-name="Trazado 124865" d="M45.722,68.309l-.2-.056a20.78,20.78,0,0,1,4.828-8.474c2.076-2.174,4.313-3.442,6.139-3.48l0,.2c-1.772.036-3.957,1.282-6,3.417a20.569,20.569,0,0,0-4.779,8.39" transform="translate(4.488 -35.692)" fill="#aa5b5b"/>
    <rect id="Rectángulo_35963" data-name="Rectángulo 35963" width="34.529" height="33.606" transform="translate(27.908 0.235)" fill="#f7f7f7"/>
    <path id="Trazado_124866" data-name="Trazado 124866" d="M40.918,34.077h35V0h-35Zm34.529-.471H41.389V.471H75.447Z" transform="translate(-13.246)" fill="#dfc9ad"/>
    <rect id="Rectángulo_35964" data-name="Rectángulo 35964" width="29.395" height="29.395" transform="translate(30.474 2.341)" fill="#f4f4f4"/>
    <path id="Trazado_124867" data-name="Trazado 124867" d="M64.241,22.734a5.783,5.783,0,1,0,5.783-5.783,5.783,5.783,0,0,0-5.783,5.783" transform="translate(-21.672 -10.746)" fill="#e07346"/>
    <path id="Trazado_124868" data-name="Trazado 124868" d="M48.573,63.2a8.436,8.436,0,0,1,5.563-2.281c3.724-.232,7.1,3.421,11.172,3.259,3.647-.146,5.661-4.654,8.578-4.556a5,5,0,0,1,4.082,2.68v7.232h-29.4Z" transform="translate(-18.099 -37.797)" fill="#416076"/>
  </g>
</svg>
