<svg xmlns="http://www.w3.org/2000/svg" xmlns:xlink="http://www.w3.org/1999/xlink" width="85.883" height="91.074" viewBox="0 0 85.883 91.074">
  <defs>
    <clipPath id="clip-path">
      <rect id="Rectángulo_35966" data-name="Rectángulo 35966" width="80.534" height="12.329" fill="#a6bbff"/>
    </clipPath>
    <clipPath id="clip-path-2">
      <rect id="Rectángulo_35967" data-name="Rectángulo 35967" width="13.069" height="91.074" fill="#a6bbff"/>
    </clipPath>
    <clipPath id="clip-path-3">
      <rect id="Rectángulo_35968" data-name="Rectángulo 35968" width="11.014" height="71.576" fill="#8284d2"/>
    </clipPath>
    <clipPath id="clip-path-4">
      <rect id="Rectángulo_35969" data-name="Rectángulo 35969" width="38.398" height="8.801" fill="none"/>
    </clipPath>
    <clipPath id="clip-path-5">
      <rect id="Rectángulo_35970" data-name="Rectángulo 35970" width="27.498" height="5.546" fill="none"/>
    </clipPath>
    <clipPath id="clip-path-6">
      <rect id="Rectángulo_35971" data-name="Rectángulo 35971" width="3.984" height="11.651" fill="none"/>
    </clipPath>
    <clipPath id="clip-path-7">
      <rect id="Rectángulo_35972" data-name="Rectángulo 35972" width="8.836" height="10.22" fill="none"/>
    </clipPath>
    <clipPath id="clip-path-8">
      <rect id="Rectángulo_35973" data-name="Rectángulo 35973" width="8.327" height="9.96" fill="none"/>
    </clipPath>
    <clipPath id="clip-path-9">
      <rect id="Rectángulo_35974" data-name="Rectángulo 35974" width="44.797" height="25.377" fill="none"/>
    </clipPath>
    <clipPath id="clip-path-10">
      <rect id="Rectángulo_35975" data-name="Rectángulo 35975" width="15.488" height="7.542" fill="none"/>
    </clipPath>
    <clipPath id="clip-path-11">
      <rect id="Rectángulo_35976" data-name="Rectángulo 35976" width="16.392" height="11.87" fill="none"/>
    </clipPath>
    <clipPath id="clip-path-12">
      <rect id="Rectángulo_35977" data-name="Rectángulo 35977" width="27.556" height="25.797" fill="none"/>
    </clipPath>
    <clipPath id="clip-path-13">
      <rect id="Rectángulo_35978" data-name="Rectángulo 35978" width="1.08" height="3.838" fill="none"/>
    </clipPath>
  </defs>
  <g id="Grupo_88118" data-name="Grupo 88118" transform="translate(6432.27 9262)">
    <g id="Grupo_88074" data-name="Grupo 88074" transform="translate(-6432.27 -9183.255)">
      <g id="Grupo_88073" data-name="Grupo 88073">
        <g id="Grupo_88072" data-name="Grupo 88072" clip-path="url(#clip-path)">
          <path id="Trazado_124869" data-name="Trazado 124869" d="M0,264.005l10.58-12.329H67.05c5.386,0,10.295,3.814,12.628,9.81l.856,2.2Z" transform="translate(0 -251.676)" fill="#a6bbff"/>
        </g>
      </g>
    </g>
    <g id="Grupo_88077" data-name="Grupo 88077" transform="translate(-6432.27 -9262)">
      <g id="Grupo_88076" data-name="Grupo 88076">
        <g id="Grupo_88075" data-name="Grupo 88075" clip-path="url(#clip-path-2)">
          <path id="Trazado_124870" data-name="Trazado 124870" d="M0,0,8.046,6.242A12.978,12.978,0,0,1,13.069,16.5V78.745L0,91.074Z" fill="#a6bbff"/>
        </g>
      </g>
    </g>
    <g id="Grupo_88080" data-name="Grupo 88080" transform="translate(-6430.214 -9246.558)" opacity="0.4">
      <g id="Grupo_88079" data-name="Grupo 88079">
        <g id="Grupo_88078" data-name="Grupo 88078" clip-path="url(#clip-path-3)">
          <path id="Trazado_124871" data-name="Trazado 124871" d="M6.569,78.366,17.583,49.354v63.3L8.813,120.93Z" transform="translate(-6.569 -49.354)" fill="#8284d2"/>
        </g>
      </g>
    </g>
    <g id="Grupo_88083" data-name="Grupo 88083" transform="translate(-6420.927 -9181.65)" opacity="0.2" style="mix-blend-mode: multiply;isolation: isolate">
      <g id="Grupo_88082" data-name="Grupo 88082">
        <g id="Grupo_88081" data-name="Grupo 88081" clip-path="url(#clip-path-4)">
          <path id="Trazado_124872" data-name="Trazado 124872" d="M36.253,261.205c0-2.43,8.6-4.4,19.2-4.4s19.2,1.97,19.2,4.4-8.6,4.4-19.2,4.4-19.2-1.97-19.2-4.4" transform="translate(-36.253 -256.805)" fill="#b3b8c7"/>
        </g>
      </g>
    </g>
    <g id="Grupo_88086" data-name="Grupo 88086" transform="translate(-6373.931 -9178.396)" opacity="0.2" style="mix-blend-mode: multiply;isolation: isolate">
      <g id="Grupo_88085" data-name="Grupo 88085">
        <g id="Grupo_88084" data-name="Grupo 88084" clip-path="url(#clip-path-5)">
          <path id="Trazado_124873" data-name="Trazado 124873" d="M186.455,269.98c0-1.532,6.156-2.773,13.749-2.773s13.749,1.242,13.749,2.773-6.156,2.773-13.749,2.773-13.749-1.242-13.749-2.773" transform="translate(-186.455 -267.207)" fill="#b3b8c7"/>
        </g>
      </g>
    </g>
    <path id="Trazado_124874" data-name="Trazado 124874" d="M221.95,247.161a.24.24,0,0,1-.085-.017c-.314-.117-.4-.7-.45-1.654,0-.094-.008-.172-.013-.222a8.686,8.686,0,0,1,.033-2.094,4.435,4.435,0,0,1,2.239-3.411,1.167,1.167,0,0,1,.682-.146c.564.087.8.715.832,1.227a5.835,5.835,0,0,1-1.134,3.472c-.035.057-.1.163-.183.3-1.239,2.062-1.65,2.543-1.921,2.543m-.176-3.935a8.354,8.354,0,0,0-.03,2.012c0,.054.009.137.014.237a3.144,3.144,0,0,0,.2,1.326,12.014,12.014,0,0,0,1.614-2.359c.086-.143.151-.252.188-.309a5.525,5.525,0,0,0,1.081-3.267c-.025-.414-.2-.856-.542-.908a.872.872,0,0,0-.479.115,4.1,4.1,0,0,0-2.05,3.154" transform="translate(-6584.366 -9426.639)" fill="#003c59"/>
    <path id="Trazado_124875" data-name="Trazado 124875" d="M71.978,138.205c.972,2.282,9.981,17.706,11.976,17.264s2.248,2.762,1.236,4.691-9.44,9.407-11.36,2.59-1.852-24.545-1.852-24.545" transform="translate(-6481.727 -9356.963)" fill="#bc994e"/>
    <path id="Trazado_124876" data-name="Trazado 124876" d="M101.669,176.031c3-.945,9.231-6.333,10.273-7.652s1.786,2.85-.63,6.59-9.662,9.951-12.379,7.6-.266-5.593,2.735-6.538" transform="translate(-6499.441 -9377.524)" fill="#de7752"/>
    <path id="Trazado_124877" data-name="Trazado 124877" d="M110.265,169.7a8.545,8.545,0,0,1,4.5-4.092c1.839-.617.587,1.161-.741,3.2s-1.77,3.215-2.845,2.945-.91-2.057-.91-2.057" transform="translate(-6508.029 -9375.709)" fill="#de7752"/>
    <path id="Trazado_124878" data-name="Trazado 124878" d="M127,141.931l-2.971,15.517-6.384-3.008.4-14.216s6.8-.063,8.951,1.707" transform="translate(-6513.104 -9358.351)" fill="#c4a563"/>
    <path id="Trazado_124879" data-name="Trazado 124879" d="M141.777,127.093s-2.088,3.991-.758,5.816l-2.971,15.517,2.659-5.466s2.208-13.781,1.07-15.867" transform="translate(-6527.124 -9349.328)" fill="#c4a563"/>
    <path id="Trazado_124880" data-name="Trazado 124880" d="M142.724,127.093c.885,3.287-2.018,16.7-2.018,16.7l-2.66,4.637,2.971-15.517s-.311-1.96,1.707-5.816" transform="translate(-6527.123 -9349.328)" fill="#002c42"/>
    <path id="Trazado_124881" data-name="Trazado 124881" d="M116.06,142.276v15.979l6.879.469,2.971-15.517s-8.586-1.689-9.85-.931" transform="translate(-6512.017 -9359.626)" fill="#002c42"/>
    <g id="Grupo_88089" data-name="Grupo 88089" transform="translate(-6389.077 -9212.553)" opacity="0.5" style="mix-blend-mode: multiply;isolation: isolate">
      <g id="Grupo_88088" data-name="Grupo 88088">
        <g id="Grupo_88087" data-name="Grupo 88087" clip-path="url(#clip-path-6)">
          <path id="Trazado_124882" data-name="Trazado 124882" d="M140.225,159.355c-.073.04-.148.075-.222.113l-1.957,10.22,2.66-4.637s.713-3.292,1.324-7.014a9.364,9.364,0,0,1-1.805,1.318" transform="translate(-138.046 -158.037)" fill="#002c42"/>
        </g>
      </g>
    </g>
    <g id="Grupo_88092" data-name="Grupo 88092" transform="translate(-6395.957 -9211.122)" opacity="0.5" style="mix-blend-mode: multiply;isolation: isolate">
      <g id="Grupo_88091" data-name="Grupo 88091">
        <g id="Grupo_88090" data-name="Grupo 88090" clip-path="url(#clip-path-7)">
          <path id="Trazado_124883" data-name="Trazado 124883" d="M116.06,163.851v8.511l6.879.469,1.957-10.22c-2.608,1.349-5.906,1.349-8.836,1.241" transform="translate(-116.06 -162.61)" fill="#002c42"/>
        </g>
      </g>
    </g>
    <path id="Trazado_124884" data-name="Trazado 124884" d="M147.846,152.581a2.455,2.455,0,0,0-.88,2.59,1.4,1.4,0,0,0-.56,1.139c.055.383.256.913.691.657a.736.736,0,0,0,.41,1.2c.616.038.963-.6.994-1.118s.232-1.5-.158-1.337c.074,0,.555-1.534.092-1.514.033,0,.293-2.2-.589-1.619" transform="translate(-6532.862 -9366.774)" fill="#fa9d78"/>
    <path id="Trazado_124885" data-name="Trazado 124885" d="M27.127,117.528c.853-.56,5.71,0,5.71,0l-2.855,4.339Z" transform="translate(-6450.909 -9342.585)" fill="#bc994e"/>
    <path id="Trazado_124886" data-name="Trazado 124886" d="M209.914,226.294c.853.569-6.739,11.081-7.87,9.861s.379-6.025,2.181-7.706,5.689-2.155,5.689-2.155" transform="translate(-6570.829 -9417.491)" fill="#5c2e27"/>
    <g id="Grupo_88095" data-name="Grupo 88095" transform="translate(-6369.176 -9191.197)" opacity="0.7" style="mix-blend-mode: multiply;isolation: isolate">
      <g id="Grupo_88094" data-name="Grupo 88094">
        <g id="Grupo_88093" data-name="Grupo 88093" clip-path="url(#clip-path-8)">
          <path id="Trazado_124887" data-name="Trazado 124887" d="M209.914,226.294c.853.569-6.739,11.081-7.87,9.861s.379-6.025,2.181-7.706,5.689-2.155,5.689-2.155" transform="translate(-201.653 -226.294)" fill="#5c2e27"/>
        </g>
      </g>
    </g>
    <path id="Trazado_124888" data-name="Trazado 124888" d="M72.889,192l8.155,9.482s11.259-1.266,14.306-4.568a45.244,45.244,0,0,0,5.569-8.043s6.23,9.122,9.961,9.911c1.266-2.7,6.1-7.352,6.1-7.352s1.308-2.113.36-3.379-11.677-10.937-14.3-11.791c-5.711-1.861-19.235,13.687-19.235,13.687l-4.85-1.143Z" transform="translate(-6482.353 -9383.002)" fill="#5c2e27"/>
    <g id="Grupo_88098" data-name="Grupo 88098" transform="translate(-6409.464 -9206.901)" opacity="0.7" style="mix-blend-mode: multiply;isolation: isolate">
      <g id="Grupo_88097" data-name="Grupo 88097">
        <g id="Grupo_88096" data-name="Grupo 88096" clip-path="url(#clip-path-9)">
          <path id="Trazado_124889" data-name="Trazado 124889" d="M72.889,192l8.155,9.482s11.259-1.266,14.306-4.568a45.244,45.244,0,0,0,5.569-8.043s6.23,9.122,9.961,9.911c1.266-2.7,6.1-7.352,6.1-7.352s1.308-2.113.36-3.379-11.677-10.937-14.3-11.791c-5.711-1.861-19.235,13.687-19.235,13.687l-4.85-1.143Z" transform="translate(-72.889 -176.101)" fill="#5c2e27"/>
        </g>
      </g>
    </g>
    <path id="Trazado_124890" data-name="Trazado 124890" d="M189.251,218.748s6.072,5.689,6.262,8.06-1.043,4.457.948,4.457,14.026-.629,14.026-.629a1.743,1.743,0,0,0-.845-2.121c-1.328-.569-4.934-.872-7.055-2.29-2.988-2-10.2-16.3-10.2-16.3Z" transform="translate(-6562.308 -9406.246)" fill="#de7752"/>
    <path id="Trazado_124891" data-name="Trazado 124891" d="M222.453,258.8c-1.328-.569-4.934-.872-7.055-2.29a10.891,10.891,0,0,1-2.238-2.5c-.055.06-.11.12-.167.176a7.08,7.08,0,0,1-4.659,1.93c-.1.009-.506-.017-.427.23.13.406.4.471.418.75.19,2.371-1.043,4.457.948,4.457s14.026-.629,14.026-.629a1.743,1.743,0,0,0-.845-2.121" transform="translate(-6575.119 -9436.536)" fill="#002c42"/>
    <g id="Grupo_88101" data-name="Grupo 88101" transform="translate(-6367.222 -9182.524)" opacity="0.5" style="mix-blend-mode: multiply;isolation: isolate">
      <g id="Grupo_88100" data-name="Grupo 88100">
        <g id="Grupo_88099" data-name="Grupo 88099" clip-path="url(#clip-path-10)">
          <path id="Trazado_124892" data-name="Trazado 124892" d="M222.453,258.8c-1.328-.569-4.934-.872-7.055-2.29a10.891,10.891,0,0,1-2.238-2.5c-.055.06-.11.12-.167.176a7.08,7.08,0,0,1-4.659,1.93c-.1.009-.506-.017-.427.23.13.406.4.471.418.75.19,2.371-1.043,4.457.948,4.457s14.026-.629,14.026-.629a1.743,1.743,0,0,0-.845-2.121" transform="translate(-207.896 -254.012)" fill="#002c42"/>
        </g>
      </g>
    </g>
    <path id="Trazado_124893" data-name="Trazado 124893" d="M191.246,200.13c1.991,2.5,12.422,17.574,13.085,17.858s4.646,2.94,6.353,3.319a19.387,19.387,0,0,1,4.646,1.707c.758.474.569,1.707.569,1.707s-14.223.758-15.361.569-.379-3.129-.948-4.172-.054-1.538-4.95-5.182c-9.652-7.183-3.394-15.806-3.394-15.806" transform="translate(-6562.308 -9399.513)" fill="#fa9d78"/>
    <path id="Trazado_124894" data-name="Trazado 124894" d="M237.165,260.405a19.376,19.376,0,0,0-4.646-1.707c-1.707-.379-5.689-3.034-6.353-3.319-.071-.031-.065-.233-.207-.572a.432.432,0,0,0-.748-.079,9.04,9.04,0,0,1-3.9,2.771.417.417,0,0,0-.136.706,1.062,1.062,0,0,1,.254.3c.569,1.043-.19,3.982.948,4.172s15.361-.569,15.361-.569.19-1.233-.569-1.707" transform="translate(-6584.142 -9436.904)" fill="#002c42"/>
    <path id="Trazado_124895" data-name="Trazado 124895" d="M36.553,66.448c.506-1,.916-1.168,1.549-1.295s1.222-2.78,1.1-3.665a2.469,2.469,0,0,0-2.645-1.915c-1.644,0-4.3-2.446-5.816-2.952s-4.416.253-4.736.885-2.47,4.3-2.849,5.31,1.011,4.15.632,5.918-1.65,3.286-.7,3.792,3.353,2.655,5.123,1.77,8.344-7.848,8.344-7.848" transform="translate(-6447.894 -9300.792)" fill="#771000"/>
    <g id="Grupo_88104" data-name="Grupo 88104" transform="translate(-6425.149 -9238.155)" opacity="0.4" style="mix-blend-mode: multiply;isolation: isolate">
      <g id="Grupo_88103" data-name="Grupo 88103">
        <g id="Grupo_88102" data-name="Grupo 88102" clip-path="url(#clip-path-11)">
          <path id="Trazado_124896" data-name="Trazado 124896" d="M39.141,76.213c-.472.141-.937.3-1.4.461-.863.295-1.72.595-2.6.839a1.609,1.609,0,0,0-1.079.707l-.03.033c-.085.13-.17.26-.244.4-.066.112-.121.23-.18.346-.013.052-.06.186-.143.412a4.58,4.58,0,0,1-5.535,3.143,4.331,4.331,0,0,1-1.548-.8,6.664,6.664,0,0,1-1.468,2.325,7.132,7.132,0,0,1-2.157,1.5.6.6,0,0,0,.34.523c.951.506,3.353,2.655,5.123,1.77s8.344-7.848,8.344-7.848c.506-1,.917-1.169,1.549-1.3.444-.089.866-1.422,1.035-2.516l-.007,0" transform="translate(-22.756 -76.211)" fill="#771000"/>
        </g>
      </g>
    </g>
    <path id="Trazado_124897" data-name="Trazado 124897" d="M30.419,104.717c.129,2.036-.238,5.168-1.127,5.927s3.268,4.046,4.161,6.448,5.065,4.8,5.065,4.8-.379-8.85-1.264-9.482a3.539,3.539,0,0,1-.632-4.552c1.138-2.023-6.2-3.145-6.2-3.145" transform="translate(-6452.312 -9333.953)" fill="#fa9d78"/>
    <path id="Trazado_124898" data-name="Trazado 124898" d="M36.663,109.624a14.185,14.185,0,0,0,2.233,4.188,22.225,22.225,0,0,0,3.372,3.731c.288.258.59.5.9.724-.2-2.523-.538-5.5-1.038-5.853a3.539,3.539,0,0,1-.632-4.551c.915-1.627-3.47-2.762-5.223-3.145a17.468,17.468,0,0,0,.388,4.907" transform="translate(-6457.188 -9333.953)" fill="#de7752"/>
    <path id="Trazado_124899" data-name="Trazado 124899" d="M39.543,96.422c1.406-.14,4.172-7.08,4.172-8.344V85.265s-6.448-.981-8.345,3.065c-.528,1.128-1.39-.885-1.77.126s-.758,3.54,0,4.931a6.916,6.916,0,0,0,5.942,3.034" transform="translate(-6455.056 -9320.516)" fill="#fa9d78"/>
    <path id="Trazado_124900" data-name="Trazado 124900" d="M32.307,92.964c.965.073.768-4.816-1.07-4.563s-.447,4.448,1.07,4.563" transform="translate(-6453.131 -9322.735)" fill="#fa9d78"/>
    <path id="Trazado_124901" data-name="Trazado 124901" d="M57.9,68.54a.172.172,0,0,1-.113-.3,2.527,2.527,0,0,0,.238-2.542,1.985,1.985,0,0,0-2.013-1.329.164.164,0,0,1-.18-.163.172.172,0,0,1,.163-.18,2.317,2.317,0,0,1,2.349,1.544,2.8,2.8,0,0,1-.33,2.93.172.172,0,0,1-.113.043" transform="translate(-6470.634 -9305.99)" fill="#b24e00"/>
    <path id="Trazado_124902" data-name="Trazado 124902" d="M37.446,59.862a.172.172,0,0,1-.171-.153c-.107-.969.2-1.187.708-1.462a2.819,2.819,0,0,0,.954-.753.172.172,0,0,1,.267.218,3.163,3.163,0,0,1-1.057.838c-.424.229-.617.334-.53,1.122a.172.172,0,0,1-.152.19h-.019" transform="translate(-6457.867 -9301.462)" fill="#b24e00"/>
    <path id="Trazado_124903" data-name="Trazado 124903" d="M25.7,64.3a.172.172,0,0,1-.162-.23c.334-.931.672-1.425,1.1-1.605a1.6,1.6,0,0,1,1.3.182.172.172,0,0,1-.143.313,1.318,1.318,0,0,0-1.028-.178c-.325.137-.614.584-.908,1.4a.172.172,0,0,1-.162.114" transform="translate(-6449.81 -9304.866)" fill="#b24e00"/>
    <path id="Trazado_124904" data-name="Trazado 124904" d="M23.692,161.766c-1.6.436-2.719-3.137-5.377-3.907s-5.211-3.679-5.957-7.851-4.666-9.988-4.666-11.632-1.9-9.861-.759-11.125,5.425-4.8,5.425-4.8l5.957,2.4S20.438,127,20.2,127.757s-1.149,1.77,0,2.529,2.287,1.517,2.287,1.517-1.517-2.149-1.264-3.666a8.709,8.709,0,0,0-.725-3.793s2.129-1.264,3.2-.632a11.114,11.114,0,0,1,3.343,3.667c.632,1.264,2.465,7.969,3.445,10.155.477,1.064,7.448,14.225,6.707,15.3-.558.806-4.634,2.111-4.634,2.111s-4.659,5.686-8.861,6.827" transform="translate(-6436.783 -9346.136)" fill="#bc994e"/>
    <g id="Grupo_88107" data-name="Grupo 88107" transform="translate(-6427.098 -9210.13)" opacity="0.5" style="mix-blend-mode: multiply;isolation: isolate">
      <g id="Grupo_88106" data-name="Grupo 88106">
        <g id="Grupo_88105" data-name="Grupo 88105" clip-path="url(#clip-path-12)">
          <path id="Trazado_124905" data-name="Trazado 124905" d="M37.323,167.308c-.224-.5-.4-1.018-.594-1.527a5.72,5.72,0,0,1-.226,1.848A6.584,6.584,0,0,0,36.937,170c.356,1.763-.527,3.562-.391,5.355a2.7,2.7,0,0,1-.018,1.029,2.118,2.118,0,0,1-.974,1.008c-.716.464-.107,1.854-.684,2.477-.391.422-1.4,1.086-1.689,1.6,1.228,1.319.887,2.183-.1,3.873a4.178,4.178,0,0,1-5.657,1.483,1.476,1.476,0,0,1-.25-.191l-.1-.04c-.245-.1-.5-.183-.741-.281a7.239,7.239,0,0,1-3.411-2.569c-.62-.866-.411-2.1-.914-3.036-.32-.6-.884-.913-1.221-1.512a13.046,13.046,0,0,1-.909-2c-.213-.595-.27-1.243-.455-1.844l-.044-.038c-.2-.182-.389-.372-.593-.549-.741-.64-1.541-1.2-2.253-1.87a28.916,28.916,0,0,1,2.672,6.883c.747,4.172,3.3,7.08,5.957,7.851s3.774,4.343,5.377,3.907c4.2-1.141,8.861-6.827,8.861-6.827s4.076-1.3,4.634-2.111c.741-1.07-6.23-14.231-6.707-15.295" transform="translate(-16.529 -165.781)" fill="#bc994e"/>
        </g>
      </g>
    </g>
    <path id="Trazado_124906" data-name="Trazado 124906" d="M25.632,125.006s-5.5-3.614-5.951-4.178,2.295-2.753,2.295-2.753,3.989,3.549,5.313,3.77-1.034-.063-1.657,3.161" transform="translate(-6445.758 -9343.132)" fill="#bc994e"/>
    <path id="Trazado_124907" data-name="Trazado 124907" d="M51.792,126.587s-1.836-2.348-3.256-2.043a2.346,2.346,0,0,1,.761-2.1l1.439,1.263a4.42,4.42,0,0,0,1.056,2.877" transform="translate(-6465.586 -9346.135)" fill="#bc994e"/>
    <path id="Trazado_124908" data-name="Trazado 124908" d="M25.367,130.846a.17.17,0,0,1-.094-.028c-.565-.372-5.531-3.645-5.99-4.213a.172.172,0,0,1,.267-.216c.344.426,4.049,2.913,5.7,4a3.984,3.984,0,0,1,1.908-2.78,1,1,0,0,0,.124-.079.169.169,0,0,1,.239-.022.175.175,0,0,1,.022.245.788.788,0,0,1-.208.151,3.7,3.7,0,0,0-1.8,2.8.174.174,0,0,1-.1.126.17.17,0,0,1-.067.013" transform="translate(-6445.492 -9348.8)" fill="#9c7f41"/>
    <path id="Trazado_124909" data-name="Trazado 124909" d="M51.522,129.156a.17.17,0,0,1-.135-.066c-.018-.023-1.783-2.258-3.084-1.981a.172.172,0,1,1-.072-.336,3.111,3.111,0,0,1,2.411,1.034,3.7,3.7,0,0,1-.346-1.72.168.168,0,0,1,.19-.151.172.172,0,0,1,.152.19,4.323,4.323,0,0,0,1.023,2.756.172.172,0,0,1-.138.274" transform="translate(-6465.316 -9348.532)" fill="#9c7f41"/>
    <path id="Trazado_124910" data-name="Trazado 124910" d="M66.5,171.491a.172.172,0,0,1-.152-.092,21.426,21.426,0,0,0-2.975-4.306c-.114-.127-.229-.254-.344-.381a6.507,6.507,0,0,1-2.155-4.277c-.04-.233-.081-.467-.128-.7a12.467,12.467,0,0,0-2.225-4.96.172.172,0,1,1,.275-.206,12.817,12.817,0,0,1,2.286,5.1c.048.234.089.471.13.707a6.184,6.184,0,0,0,2.071,4.1c.116.128.232.255.347.384a21.756,21.756,0,0,1,3.023,4.375.172.172,0,0,1-.152.252" transform="translate(-6472.454 -9369.535)" fill="#9c7f41"/>
    <path id="Trazado_124911" data-name="Trazado 124911" d="M84.187,172.655a.172.172,0,0,1-.15-.088,72.193,72.193,0,0,1-4.718-10.232.172.172,0,0,1,.322-.118,71.82,71.82,0,0,0,4.7,10.182.172.172,0,0,1-.15.256" transform="translate(-6486.763 -9373.385)" fill="#9c7f41"/>
    <path id="Trazado_124912" data-name="Trazado 124912" d="M45.318,181.985H45.3a.172.172,0,0,1-.155-.188,40.8,40.8,0,0,0,.151-5.573.172.172,0,0,1,.165-.179.178.178,0,0,1,.179.165,41.131,41.131,0,0,1-.152,5.62.172.172,0,0,1-.171.156" transform="translate(-6463.29 -9382.964)" fill="#9c7f41"/>
    <path id="Trazado_124913" data-name="Trazado 124913" d="M19.052,187.35a.17.17,0,0,1-.1-.035,5.905,5.905,0,0,1-2.239-3.815c-.014-.1-.026-.2-.038-.3a3.1,3.1,0,0,0-.214-.955,3.1,3.1,0,0,0-.542-.733l-.045-.05a21.325,21.325,0,0,1-3.6-5.569.172.172,0,0,1,.314-.14,20.991,20.991,0,0,0,3.546,5.479l.045.05a2.6,2.6,0,0,1,.841,1.877c.012.1.023.193.037.288a5.557,5.557,0,0,0,2.108,3.591.172.172,0,0,1-.1.309" transform="translate(-6440.687 -9382.695)" fill="#9c7f41"/>
    <path id="Trazado_124914" data-name="Trazado 124914" d="M44.761,166.575a.17.17,0,0,1-.112-.042,3.265,3.265,0,0,1-.788-2.5,3.342,3.342,0,0,0-.583-2.213c-.059-.064-.124-.123-.189-.182a1.988,1.988,0,0,1-.709-1.749c-.013-.157-.027-.314-.049-.467a7.257,7.257,0,0,0-1.513-3.014l-1.447-2.02a.172.172,0,0,1,.279-.2l1.447,2.02a7.513,7.513,0,0,1,1.574,3.164c.023.159.038.323.052.487a2.294,2.294,0,0,0,.351,1.274,2.266,2.266,0,0,0,.247.25c.072.066.143.131.209.2a3.634,3.634,0,0,1,.674,2.432,2.983,2.983,0,0,0,.67,2.254.172.172,0,0,1-.112.3" transform="translate(-6459.298 -9367.897)" fill="#9c7f41"/>
    <path id="Trazado_124915" data-name="Trazado 124915" d="M77.932,172.541a.167.167,0,0,1-.073-.016.172.172,0,0,1-.083-.228,7.269,7.269,0,0,0,.675-3.052.172.172,0,0,1,.344,0,7.62,7.62,0,0,1-.707,3.2.172.172,0,0,1-.156.1" transform="translate(-6485.7 -9378.173)" fill="#9c7f41"/>
    <path id="Trazado_124916" data-name="Trazado 124916" d="M137.669,160.992a.165.165,0,0,1-.033,0,.172.172,0,0,1-.137-.2l2.971-15.517a.172.172,0,1,1,.338.064l-2.971,15.517a.173.173,0,0,1-.169.14" transform="translate(-6526.746 -9361.723)" fill="#003c59"/>
    <path id="Trazado_124917" data-name="Trazado 124917" d="M41.549,81.494a.172.172,0,0,1-.172-.168c-.016-.772-.372-1.018-1.018-1.466l-.181-.126a.172.172,0,1,1,.2-.281l.179.125c.666.461,1.146.794,1.166,1.741a.172.172,0,0,1-.168.176Z" transform="translate(-6459.827 -9316.572)" fill="#b24e00"/>
    <path id="Trazado_124918" data-name="Trazado 124918" d="M61.294,192.3c.4,1.8.1,6.072,2.555,8.249,1.331,1.182,4.833,1.927,9.325,1.927s8.057-.979,11.092-6.1,8.318-16.025,8.318-16.025,4.2,5.827,5.715,7.275,7.3,7.706,7.3,7.706,4.172-9.293,7.87-9.861c-3.319-2.181-10.431-8.629-12.517-11.379s-3.982-5.689-5.31-6.353-5.026-1.707-6.922.379S72.636,187.3,71.809,187.63a6.151,6.151,0,0,1-5.191-.448Z" transform="translate(-6474.386 -9376.672)" fill="#5c2e27"/>
    <g id="Grupo_88110" data-name="Grupo 88110" transform="translate(-6382.342 -9200.47)" style="mix-blend-mode: multiply;isolation: isolate">
      <g id="Grupo_88109" data-name="Grupo 88109">
        <g id="Grupo_88108" data-name="Grupo 88108" clip-path="url(#clip-path-13)">
          <path id="Trazado_124919" data-name="Trazado 124919" d="M160.48,200.494a.171.171,0,0,1-.135-.065c-.47-.591-.726-3.09-.773-3.585a.172.172,0,1,1,.342-.032,10.65,10.65,0,0,0,.7,3.4.172.172,0,0,1-.135.278" transform="translate(-159.573 -196.656)" fill="#5c2e27"/>
        </g>
      </g>
    </g>
    <path id="Trazado_124920" data-name="Trazado 124920" d="M50.992,186.664s1.037,2.862,2.519,3.392,2.458-.591,4.33-1.139,5-2.782,6.887-4.409,5.944-7.476,7.3-8.187A10.771,10.771,0,0,0,75.4,173.47c.709-.874.607-3-.2-3.568.614-.854,1.263-1.065.2-2.055.854-.759,2.169-2.15,1.162-2.363-.252-.053-1.982,1.294-4.4,2.292-.988.408-2.513.61-3.1,3.363-.427,2.01-.7,3.416-3.161,5.183a21.023,21.023,0,0,1-5.673,3.06c-.87.19-4.224,1.464-4.224,1.464s-5.138,1.277-5.012,5.818" transform="translate(-6467.306 -9375.705)" fill="#fa9d78"/>
    <path id="Trazado_124921" data-name="Trazado 124921" d="M124.277,174.114a.172.172,0,0,1-.116-.3,5.232,5.232,0,0,1,1.192-.846.172.172,0,1,1,.164.3,4.874,4.874,0,0,0-1.124.8.172.172,0,0,1-.116.045" transform="translate(-6517.544 -9380.835)" fill="#de7752"/>
    <path id="Trazado_124922" data-name="Trazado 124922" d="M125.118,181.613a.169.169,0,0,1-.044-.006.167.167,0,0,1-.122-.2c.043-.18.249-.365.711-.635a.172.172,0,0,1,.174.3c-.487.286-.544.4-.55.421a.181.181,0,0,1-.168.124" transform="translate(-6518.123 -9386.195)" fill="#de7752"/>
    <path id="Trazado_124923" data-name="Trazado 124923" d="M126.449,187.8a.172.172,0,0,1-.133-.281c.085-.1.209-.273.334-.444s.259-.354.346-.46a.172.172,0,1,1,.265.219c-.084.1-.209.273-.334.444s-.259.353-.346.459a.172.172,0,0,1-.133.063" transform="translate(-6519.037 -9390.183)" fill="#de7752"/>
    <path id="Trazado_124924" data-name="Trazado 124924" d="M240.264,251.172l.062-.263a3.476,3.476,0,0,0,.118-.848,7.052,7.052,0,0,0-.092-1.086l-.038-.214a3.932,3.932,0,0,1-.09-.859,1.331,1.331,0,0,1,.5-1.05,1.353,1.353,0,0,1,.45-.2,1.2,1.2,0,0,1,1.148.189,1.131,1.131,0,0,1,.324.854,3.505,3.505,0,0,1-.689,1.781l-.428.684c-.225.363-.533.859-1,.956Zm1.343-4.236a1.341,1.341,0,0,0-.344.048,1.036,1.036,0,0,0-.339.148.993.993,0,0,0-.355.785,3.57,3.57,0,0,0,.084.783l.038.219a7.279,7.279,0,0,1,.1,1.14,3.228,3.228,0,0,1-.052.574,2.812,2.812,0,0,0,.5-.654l.429-.685a3.2,3.2,0,0,0,.637-1.6.826.826,0,0,0-.214-.6.7.7,0,0,0-.482-.158" transform="translate(-6597.331 -9431.438)" fill="#003c59"/>
    <path id="Trazado_124925" data-name="Trazado 124925" d="M242.169,255.075a1.835,1.835,0,0,1-.513-.062l-.288-.083.217-.207a1.49,1.49,0,0,1,.529-.277,1.723,1.723,0,0,0,.385-.176,5.834,5.834,0,0,0,.513-.421c.114-.1.229-.2.348-.3a8.022,8.022,0,0,1,2.334-1.2,1.5,1.5,0,0,1,1.424.019,1.179,1.179,0,0,1,.4.942,1.535,1.535,0,0,1-.763,1.434,2.208,2.208,0,0,1-.906.173l-3.394.145c-.095,0-.191.008-.288.008m.528-.522a1.594,1.594,0,0,1-.35.175l.1,0,.035,0,3.359-.143a1.911,1.911,0,0,0,.767-.137,1.222,1.222,0,0,0,.573-1.119.86.86,0,0,0-.269-.676c-.284-.219-.736-.1-1.1.032a7.711,7.711,0,0,0-2.235,1.141c-.115.092-.224.19-.334.288a6.358,6.358,0,0,1-.543.446" transform="translate(-6598.118 -9435.278)" fill="#003c59"/>
    <path id="Trazado_124926" data-name="Trazado 124926" d="M40.039,207a.171.171,0,0,1-.139-.07c-.124-.093-.805-.445-1.261-.68-.5-.257-.808-.417-.9-.481a11.123,11.123,0,0,1-2.042-1.826c-1.442-1.666-.208-3.181,1.028-4.313.508-.466,1-1.014,1.51-1.594a11.268,11.268,0,0,1,3.468-2.993,2.1,2.1,0,0,1,.793-.137l2.078-.078a.177.177,0,0,1,.167.111,6.859,6.859,0,0,0,1.694,2.173c.822.816,1.532,1.52,1.434,2.261a1.642,1.642,0,0,1-.961,1.128.172.172,0,1,1-.171-.3c.492-.281.75-.568.791-.875.075-.572-.61-1.252-1.335-1.972a7.639,7.639,0,0,1-1.727-2.181l-1.957.074a1.8,1.8,0,0,0-.665.107,11.023,11.023,0,0,0-3.353,2.908,22.129,22.129,0,0,1-1.535,1.618c-1.191,1.092-2.241,2.4-1,3.835a10.823,10.823,0,0,0,1.98,1.769c.076.053.473.258.858.456,1.406.725,1.407.739,1.413.875a.172.172,0,0,1-.163.18h-.009" transform="translate(-6456.353 -9395.87)" fill="#9c7f41"/>
    <path id="Trazado_124927" data-name="Trazado 124927" d="M47.828,96.473a.511.511,0,1,1,.5.585.55.55,0,0,1-.5-.585" transform="translate(-6465.133 -9327.887)" fill="#5c0c00"/>
    <path id="Trazado_124928" data-name="Trazado 124928" d="M61.223,100.169a.437.437,0,1,1,.239.622.474.474,0,0,1-.239-.622" transform="translate(-6474.314 -9330.581)" fill="#5c0c00"/>
    <path id="Trazado_124929" data-name="Trazado 124929" d="M62.666,96.1a.34.34,0,0,1-.207-.07,1.94,1.94,0,0,0-.969-.379.344.344,0,0,1,.067-.684,2.6,2.6,0,0,1,1.317.515.344.344,0,0,1-.208.618" transform="translate(-6474.307 -9327.253)" fill="#771000"/>
    <path id="Trazado_124930" data-name="Trazado 124930" d="M47.738,93.057a.344.344,0,0,1-.035-.686,7.645,7.645,0,0,1,1.509-.007.344.344,0,0,1-.065.684,6.935,6.935,0,0,0-1.372.006l-.036,0" transform="translate(-6464.835 -9325.442)" fill="#771000"/>
    <path id="Trazado_124931" data-name="Trazado 124931" d="M55.207,101.856a.172.172,0,0,1-.013-.343l.908-.073.021,0s0-.009,0-.014c-.028-.252-.075-.508-.121-.757-.042-.226-.084-.452-.113-.68a2.691,2.691,0,0,1,.4-2.09.172.172,0,1,1,.269.213,2.377,2.377,0,0,0-.33,1.832c.029.222.069.442.11.662.047.254.1.517.125.781a.358.358,0,0,1-.057.273.366.366,0,0,1-.276.123l-.908.073h-.014" transform="translate(-6470.085 -9329.223)" fill="#de7752"/>
    <path id="Trazado_124932" data-name="Trazado 124932" d="M53.213,106.868a.175.175,0,0,1-.038,0,.171.171,0,0,1-.13-.206l.111-.5a.172.172,0,0,1,.336.075l-.112.5a.171.171,0,0,1-.167.134" transform="translate(-6468.715 -9334.854)" fill="#de7752"/>
    <path id="Trazado_124933" data-name="Trazado 124933" d="M51.036,112.634l-.036,0a2.373,2.373,0,0,1-1.472-.614.344.344,0,0,1,.509-.462,1.756,1.756,0,0,0,1.035.392.344.344,0,0,1-.036.686" transform="translate(-6466.24 -9338.575)" fill="#de7752"/>
    <path id="Trazado_124934" data-name="Trazado 124934" d="M33.654,94.682a.635.635,0,0,1-.231-.043.129.129,0,1,1,.094-.24.383.383,0,0,0,.289-.006c.026-.031-.009-.089-.03-.125a.429.429,0,0,1-.084-.358.324.324,0,0,1,.278-.206l0-.66a.129.129,0,0,1,.129-.128h0a.129.129,0,0,1,.129.129l0,.775a.129.129,0,0,1-.125.128c-.152.005-.166.043-.166.043-.009.027.033.1.061.143a.336.336,0,0,1,.039.4.311.311,0,0,1-.126.092.629.629,0,0,1-.256.054" transform="translate(-6455.179 -9325.844)" fill="#de7752"/>
  </g>
</svg>
