<svg xmlns="http://www.w3.org/2000/svg" xmlns:xlink="http://www.w3.org/1999/xlink" width="190" height="243" viewBox="0 0 190 243">
  <defs>
    <clipPath id="clip-path">
      <rect id="Rectángulo_35852" data-name="Rectángulo 35852" width="152.07" height="208.662" fill="none"/>
    </clipPath>
    <clipPath id="clip-path-2">
      <rect id="Rectángulo_35851" data-name="Rectángulo 35851" width="152.07" height="208.663" fill="none"/>
    </clipPath>
    <clipPath id="clip-path-3">
      <rect id="Rectángulo_35847" data-name="Rectángulo 35847" width="18.646" height="38.336" fill="none"/>
    </clipPath>
    <clipPath id="clip-path-4">
      <rect id="Rectángulo_35848" data-name="Rectángulo 35848" width="12.278" height="26.579" fill="none"/>
    </clipPath>
    <clipPath id="clip-path-5">
      <rect id="Rectángulo_35849" data-name="Rectángulo 35849" width="17.917" height="35.55" fill="none"/>
    </clipPath>
    <clipPath id="clip-path-6">
      <rect id="Rectángulo_35850" data-name="Rectángulo 35850" width="11.881" height="24.667" fill="none"/>
    </clipPath>
  </defs>
  <g id="Grupo_88132" data-name="Grupo 88132" transform="translate(-810 -688)">
    <g id="Grupo_87862" data-name="Grupo 87862" transform="translate(-9)">
      <g id="Grupo_87689" data-name="Grupo 87689" transform="translate(-206 -274.796)">
        <g id="Grupo_87397" data-name="Grupo 87397" transform="translate(0 45.434)">
          <path id="Rectángulo_34437" data-name="Rectángulo 34437" d="M0,0H96a77,77,0,0,1,77,77V184.116a0,0,0,0,1,0,0H0a0,0,0,0,1,0,0V0A0,0,0,0,1,0,0Z" transform="translate(1033 954.362)" fill="#a6bbff"/>
          <g id="Grupo_87372" data-name="Grupo 87372" transform="translate(1039.834 955.577)">
            <path id="Trazado_114646" data-name="Trazado 114646" d="M151.4,72.681c-1.152,17.828-14.827,34.849-33.347,35.905-21.272,1.63-40.8-10.036-61.986-10.159-10.8-.926-20.938,3.211-31.467,4.547C.823,103.846-2.8,75.9,1.635,57.886,20.34-27.038,152.7-15.484,151.4,72.681Z" transform="translate(1.291 13.295)" fill="#e1e8ff"/>
          </g>
        </g>
      </g>
      <g id="Grupo_87841" data-name="Grupo 87841" transform="translate(837 701)">
        <g id="Grupo_87839" data-name="Grupo 87839" clip-path="url(#clip-path)">
          <rect id="Rectángulo_35845" data-name="Rectángulo 35845" width="105.292" height="207.523" transform="translate(5.019 0.198)" fill="#d8b7a1"/>
          <rect id="Rectángulo_35846" data-name="Rectángulo 35846" width="89.207" height="199.63" transform="translate(12.982 8.093)" fill="#493333"/>
          <path id="Trazado_124282" data-name="Trazado 124282" d="M509.216,244.688V48.6l3.775-.732h1.487V245.317h-1.487Z" transform="translate(-412.29 -38.758)" fill="#85664e"/>
          <g id="Grupo_87838" data-name="Grupo 87838" transform="translate(0 -0.001)">
            <g id="Grupo_87837" data-name="Grupo 87837" clip-path="url(#clip-path-2)">
              <path id="Trazado_124283" data-name="Trazado 124283" d="M307.377,50.209c-3.384,98.989,1.351,194.024,1.351,194.024l39.856,1.144V47.921s-17.054.014-41.207,2.288" transform="translate(-247.883 -38.799)" fill="#d8b7a1"/>
              <path id="Trazado_124284" data-name="Trazado 124284" d="M527.352,202.087h1.04a.609.609,0,0,0,.609-.609v-8.752a.609.609,0,0,0-.609-.609h-1.04a.609.609,0,0,0-.609.609v8.752a.609.609,0,0,0,.609.609" transform="translate(-426.481 -155.549)" fill="#d8b7a1"/>
              <path id="Trazado_124285" data-name="Trazado 124285" d="M526.651,211.572c.426.588,1.123.212,1.385-.272a3.262,3.262,0,0,0,.263-1.35c.034-.6,0-1.217-.017-1.822-.028-1.248-.055-2.495-.072-3.742a.264.264,0,0,1,.527,0c.06,1.193.112,2.386.162,3.58a10.224,10.224,0,0,1-.1,3.161c-.311,1.1-2.011,2.232-2.671.752a.3.3,0,0,1,.524-.306" transform="translate(-425.956 -165.276)" fill="#a18064"/>
              <path id="Trazado_124286" data-name="Trazado 124286" d="M524.258,193.261c.051-1.118.083-3.6,1.814-3.25.386.079.215.64-.161.582-1.091-.168-.991,2.631-.992,3.313a4.592,4.592,0,0,0,.067,1.451c.173.453.921.229,1.365.234a.33.33,0,0,1,0,.659c-.505.055-1.577.324-1.929-.159-.187-.256-.126-.754-.146-1.055a15.912,15.912,0,0,1-.019-1.775" transform="translate(-424.455 -153.815)" fill="#a18064"/>
              <path id="Trazado_124287" data-name="Trazado 124287" d="M527.352,913.7h1.04a.609.609,0,0,0,.609-.609v-8.752a.609.609,0,0,0-.609-.609h-1.04a.609.609,0,0,0-.609.609v8.752a.609.609,0,0,0,.609.609" transform="translate(-426.481 -731.709)" fill="#d8b7a1"/>
              <path id="Trazado_124288" data-name="Trazado 124288" d="M526.651,923.183c.426.588,1.123.212,1.385-.272a3.262,3.262,0,0,0,.263-1.35c.034-.6,0-1.217-.017-1.822-.028-1.247-.055-2.495-.072-3.742a.264.264,0,0,1,.527,0c.06,1.193.112,2.386.162,3.58a10.225,10.225,0,0,1-.1,3.161c-.311,1.1-2.011,2.232-2.671.752a.3.3,0,0,1,.524-.306" transform="translate(-425.956 -741.436)" fill="#a18064"/>
              <path id="Trazado_124289" data-name="Trazado 124289" d="M524.258,904.871c.051-1.119.083-3.6,1.814-3.25.386.079.215.64-.161.583-1.091-.168-.991,2.63-.992,3.313a4.592,4.592,0,0,0,.067,1.451c.173.453.921.229,1.365.234a.33.33,0,0,1,0,.659c-.505.055-1.577.324-1.929-.159-.187-.256-.126-.754-.146-1.055a15.912,15.912,0,0,1-.019-1.775" transform="translate(-424.455 -729.975)" fill="#a18064"/>
              <path id="Trazado_124290" data-name="Trazado 124290" d="M539.311,13.2c2-1.844,4.021-3.616,5.852-5.641.347-.383.909.183.566.566a41.706,41.706,0,0,1-5.95,5.681c-.352.263-.787-.313-.468-.606" transform="translate(-436.566 -6.018)" fill="#cea78d"/>
              <path id="Trazado_124291" data-name="Trazado 124291" d="M32.539,5.134c1.844,2,3.616,4.021,5.641,5.852.383.347-.183.909-.566.566A41.714,41.714,0,0,1,31.933,5.6c-.263-.352.313-.787.606-.468" transform="translate(-25.8 -4.066)" fill="#cea78d"/>
              <path id="Trazado_124292" data-name="Trazado 124292" d="M382.728,151.325c-.321-.349-18.376.8-23.437,1.135-.066,6.98-.016,91.44.315,91.965.317.5,18.293.1,23.243-.677.311-6.259.225-92.046-.12-92.423" transform="translate(-290.882 -122.468)" fill="#e3f1ff"/>
              <path id="Trazado_124293" data-name="Trazado 124293" d="M355.588,161.492s-.415,43.5-.162,43.536,20.674.053,22.079.433v2.855l-21.914.9s-.519,38.941-.129,39.766,21.529-.989,21.873-1.1a36.6,36.6,0,0,1,.087,4.021l-25.066.349.017-92.056Z" transform="translate(-285.288 -129.705)" fill="#85664e"/>
              <path id="Trazado_124294" data-name="Trazado 124294" d="M355.659,153.487s16.412-.685,21.623-1.294l-.078-1.636s-23.761-1.181-24.76,1.636Z" transform="translate(-285.359 -121.7)" fill="#85664e"/>
              <g id="Grupo_87827" data-name="Grupo 87827" transform="translate(70.67 35.873)" opacity="0.5">
                <g id="Grupo_87826" data-name="Grupo 87826">
                  <g id="Grupo_87825" data-name="Grupo 87825" clip-path="url(#clip-path-3)">
                    <path id="Trazado_124295" data-name="Trazado 124295" d="M389.538,226.8s-18.316-28.734-18.265-29.961.261-8.291.773-8.375,17.9,34.537,17.873,35.3-.381,3.032-.381,3.032" transform="translate(-371.273 -188.46)" fill="#fff"/>
                  </g>
                </g>
              </g>
              <g id="Grupo_87830" data-name="Grupo 87830" transform="translate(77.612 40.976)" opacity="0.5">
                <g id="Grupo_87829" data-name="Grupo 87829">
                  <g id="Grupo_87828" data-name="Grupo 87828" clip-path="url(#clip-path-4)">
                    <path id="Trazado_124296" data-name="Trazado 124296" d="M420.028,241.851s-12.564-24.242-12.273-25.127a7,7,0,0,1,.654-1.452s11.2,18.2,11.316,19.6.3,6.981.3,6.981" transform="translate(-407.75 -215.272)" fill="#fff"/>
                  </g>
                </g>
              </g>
              <g id="Grupo_87833" data-name="Grupo 87833" transform="translate(70.911 82.12)" opacity="0.5">
                <g id="Grupo_87832" data-name="Grupo 87832">
                  <g id="Grupo_87831" data-name="Grupo 87831" clip-path="url(#clip-path-5)">
                    <path id="Trazado_124297" data-name="Trazado 124297" d="M390.133,466.979s-17.626-26.451-17.591-27.611.152-7.84.635-7.939,17.3,31.947,17.282,32.672-.325,2.878-.325,2.878" transform="translate(-372.542 -431.429)" fill="#fff"/>
                  </g>
                </g>
              </g>
              <g id="Grupo_87836" data-name="Grupo 87836" transform="translate(77.448 86.684)" opacity="0.5">
                <g id="Grupo_87835" data-name="Grupo 87835">
                  <g id="Grupo_87834" data-name="Grupo 87834" clip-path="url(#clip-path-6)">
                    <path id="Trazado_124298" data-name="Trazado 124298" d="M418.766,480.071s-12.142-22.424-11.877-23.271a6.828,6.828,0,0,1,.6-1.4s10.789,16.764,10.91,18.085.366,6.581.366,6.581" transform="translate(-406.885 -455.404)" fill="#fff"/>
                  </g>
                </g>
              </g>
              <path id="Trazado_124299" data-name="Trazado 124299" d="M317.06,518.5a1.47,1.47,0,0,0-.812.765,2.486,2.486,0,0,0-.155.964q-.16,5.631-.1,11.267.029,2.817.113,5.632.042,1.408.1,2.814c.022.559-.08,1.424.43,1.607a4.275,4.275,0,0,0,2.146.2,1.213,1.213,0,0,0,1.022-.713,2.56,2.56,0,0,0,.128-.751c.112-1.595.02-3.264.039-4.881q.03-2.642.043-5.284c.017-3.484.017-6.968.016-10.452,0-.724-.106-.979-.6-1.1a4.13,4.13,0,0,0-2.368-.068" transform="translate(-255.832 -419.683)" fill="#eeae4e"/>
              <path id="Trazado_124300" data-name="Trazado 124300" d="M332.491,543.045c.523-1.538.342-3.742.376-5.409.038-1.827.053-3.654.059-5.482.012-3.554.131-7.17-.131-10.71-.033-.445.525-.554.572-.107a107.544,107.544,0,0,1,.234,11.5c-.009,1.98-.032,3.959-.083,5.938a14.871,14.871,0,0,1-.454,4.73c-.2.526-.753.064-.574-.462" transform="translate(-269.175 -421.872)" fill="#cf9239"/>
              <path id="Trazado_124301" data-name="Trazado 124301" d="M318.139,561.683c.22-.612,1.019-.645,1.45-.619.143.009,1.311-.006,1.271.514-.237.173-1.422.051-1.688.1a.842.842,0,0,0-.685.5,1.711,1.711,0,0,0-.091.451,13.606,13.606,0,0,0-.074,1.383,1.125,1.125,0,0,0,.019.253.654.654,0,0,0,.169.3.85.85,0,0,0,.213.171c1.681.755,1.914.18,2.85.235.307.018.419.565.077.635a6.228,6.228,0,0,1-1.862.1c-.811.026-1.681-.229-1.767-1.363a7.865,7.865,0,0,1,.118-2.65" transform="translate(-257.445 -454.264)" fill="#cf9239"/>
              <path id="Trazado_124302" data-name="Trazado 124302" d="M322.156,603.626c.141-.294.4-.438.649-.325a.883.883,0,0,1,.42.789,1.633,1.633,0,0,1-.219.823c.006.424.009.848,0,1.271-.012.591-.655.592-.667,0-.008-.368-.007-.737,0-1.106a.549.549,0,0,1-.171-.284c-.006-.022-.011-.047-.016-.07a.376.376,0,0,1-.042-.084,1.438,1.438,0,0,1,.048-1.013" transform="translate(-260.741 -488.435)" fill="#a56f2f"/>
              <path id="Trazado_124303" data-name="Trazado 124303" d="M325.2,564.087a3.424,3.424,0,0,1,1.306-.3c.684,0,4.217.484,5.576.6s.875,2.459.5,2.774-5.328.161-6.573.113-2.242-3.073-.811-3.185" transform="translate(-262.731 -456.475)" fill="#eeae4e"/>
              <path id="Trazado_124304" data-name="Trazado 124304" d="M19.424.5a.518.518,0,0,1,1.035,0c.513,13.365.191,26.794.195,40.167q.005,20.084.009,40.167v125.93a.722.722,0,0,1-1.442,0V126.427q0-40.348.008-80.7c0-15.059-.382-30.184.2-45.233" transform="translate(-15.469 0.003)" fill="#cea78d"/>
              <path id="Trazado_124305" data-name="Trazado 124305" d="M.6,1088.755c31.085-.281,54.245-.073,85.332-.073h26.5a.69.69,0,0,1,0,1.379c-31.089,0-55.693,0-86.782-.015-8.833,0-16.217.022-25.05-.058a.617.617,0,0,1,0-1.233" transform="translate(0 -881.398)" fill="#817992"/>
              <path id="Trazado_124306" data-name="Trazado 124306" d="M558.032,993.489c-1.47-.342-6.706-.912-8.456-1.231.851,2.171,2.052,6.211,2.138,6.544a3.861,3.861,0,0,1-1.078,4.191,17.814,17.814,0,0,1-5.139,3.251c-2.846,1.172-5.19,1.674-5.859,3.181-.641,1.443-.167,1.674.335,1.842s18.907.5,20.748-.5c1.5-.817,1.608-2.374.389-5.645-1.4-3.764-.973-3.477-3.078-11.633" transform="translate(-436.67 -803.388)" fill="#e3916f"/>
              <path id="Trazado_124307" data-name="Trazado 124307" d="M560.814,1039.443a3.6,3.6,0,0,1-2.158.235c-1.256-.3-1.777-1.484-2.405-2.479a3.208,3.208,0,0,0-1.407-1.314,3.323,3.323,0,0,0-1.961-.158,5.062,5.062,0,0,0-1.042.342,3.691,3.691,0,0,1-1.2,2.056,17.809,17.809,0,0,1-5.139,3.251c-2.846,1.172-5.19,1.674-5.859,3.181-.641,1.443-.167,1.674.335,1.842s18.907.5,20.748-.5c1.5-.817,1.608-2.374.389-5.644-.109-.293-.207-.561-.3-.811" transform="translate(-436.67 -838.519)" fill="#7199c9"/>
              <path id="Trazado_124308" data-name="Trazado 124308" d="M616.935,1061.037c-1.133.9-2.343,1.7-3.508,2.555-1.218.9-2.42,1.814-3.63,2.722,3.841-.069,7.241-.256,7.98-.659,1.492-.813,1.606-2.362.4-5.6-.417.324-.83.655-1.245.985" transform="translate(-493.726 -858.277)" fill="#527da8"/>
              <path id="Trazado_124309" data-name="Trazado 124309" d="M539.327,1081.247s7.435-.042,10.156-.042,5.856,0,6.634-.13,1.166-.907,2.268-1.166a28.2,28.2,0,0,1,3.557-.373,7.265,7.265,0,0,1-.034,1.8c-.152.386-.992.573-4.636.732s-14.3.181-15.293.138c-1.825-.08-2.615-.114-2.652-.957" transform="translate(-436.67 -874.053)" fill="#fff"/>
              <path id="Trazado_124310" data-name="Trazado 124310" d="M614.973,1079.909c-1.1.259-1.49,1.037-2.268,1.166a20.428,20.428,0,0,1-2.172.107q-.612.462-1.224.923l-.09.068c1.873-.025,3.564-.06,4.642-.107,3.644-.158,4.484-.346,4.636-.732a7.27,7.27,0,0,0,.034-1.8,28.2,28.2,0,0,0-3.557.372" transform="translate(-493.257 -874.054)" fill="#e4e9eb"/>
              <path id="Trazado_124311" data-name="Trazado 124311" d="M654.292,1004.157c-1.47-.342-1.726-.616-3.205-.925-1.734-.362-3.444-.983-5.194-1.3a31.679,31.679,0,0,1,.125,4.406c-.187,1.774-1.585,3.363-2.81,4.489a17.8,17.8,0,0,1-5.139,3.251c-2.846,1.172-5.19,1.674-5.859,3.181-.641,1.443-.167,1.674.335,1.842s19.976.528,21.818-.476c1.5-.817,1.036-2.452.528-5.9-.446-3.027-.7-2.064-.6-8.559" transform="translate(-511.622 -811.218)" fill="#e3916f"/>
              <path id="Trazado_124312" data-name="Trazado 124312" d="M654.7,1042.5c-.442.365-2.363,2.454-5.127,2.57a4.341,4.341,0,0,1-2.523-.676,3.289,3.289,0,0,1-.669-1.955,3.244,3.244,0,0,0-.557-1.771,1.441,1.441,0,0,0-1.1-.516,13.282,13.282,0,0,1-1.512,1.619,17.816,17.816,0,0,1-5.139,3.251c-2.846,1.172-5.19,1.674-5.86,3.181-.641,1.443-.167,1.674.335,1.842s19.976.528,21.818-.476c1.5-.817,1.036-2.452.528-5.9-.069-.47-.134-.844-.193-1.165" transform="translate(-511.622 -842.165)" fill="#7199c9"/>
              <path id="Trazado_124313" data-name="Trazado 124313" d="M581.566,525.163s-.784,24.163.113,43.242,1.494,42.556.6,51.07c0,0-.747.6-4.182,0s-8.963-1.325-9.56-3.65-3.79-42.177-5.608-58.064c0,0-8.03,13.517-9.225,17.434s7.214,38.429,7.214,38.429a36.2,36.2,0,0,1-9.076,4.78c-4.667,1.494-4.816-2.9-6.758-8.813s-7.795-27.272-8.093-35.471,19.6-49.508,19.6-49.508,18.447-4.411,24.982.55" transform="translate(-434.773 -423.292)" fill="#6b4e4e"/>
              <path id="Trazado_124314" data-name="Trazado 124314" d="M724.655,569.4a26.749,26.749,0,0,1-4.511-6.491c-.163-.329-.656-.04-.493.288a27.278,27.278,0,0,0,4.6,6.607c.253.268.656-.136.4-.4" transform="translate(-582.644 -455.647)" fill="#493333"/>
              <path id="Trazado_124315" data-name="Trazado 124315" d="M608.708,657.387q-2.983,4.06-5.745,8.276-2.748,4.2-5.269,8.534-1.428,2.459-2.781,4.96c-.117.215.212.408.329.192q2.4-4.43,5.03-8.729,2.62-4.276,5.468-8.408,1.614-2.342,3.3-4.633c.145-.2-.185-.388-.329-.192" transform="translate(-481.654 -532.19)" fill="#493333"/>
              <path id="Trazado_124316" data-name="Trazado 124316" d="M601.746,827.649l-5.43-17.018-2.715-8.509a29.551,29.551,0,0,1-1.143-4.168,8.92,8.92,0,0,1-.1-2.2,4.654,4.654,0,0,0,.077-1.673,1.1,1.1,0,0,0-.48-.63c-.279-.178-.623-.261-.729-.614-.188-.621.31-1.211.632-1.683a1.715,1.715,0,0,0,.369-1.634.922.922,0,0,0-1.208-.587c-.223.1-.029.429.192.329a.485.485,0,0,1,.569.232.853.853,0,0,1,.117.776,12.434,12.434,0,0,1-.885,1.5,1.564,1.564,0,0,0-.064,1.381c.26.477.965.493,1.121,1.029a4.914,4.914,0,0,1-.1,1.662,9.238,9.238,0,0,0,.1,2.028,26.1,26.1,0,0,0,1.084,4.075l5.256,16.474,2.975,9.323c.074.232.442.133.367-.1" transform="translate(-478.352 -638.708)" fill="#493333"/>
              <path id="Trazado_124317" data-name="Trazado 124317" d="M666.156,618.737q-.435-5.537-.687-11.086-.142-3.116-.226-6.235a.381.381,0,0,0-.761,0q.151,5.552.482,11.1t.847,11.075q.289,3.106.636,6.207a.392.392,0,0,0,.381.381.383.383,0,0,0,.381-.381q-.616-5.519-1.052-11.057" transform="translate(-538.001 -486.643)" fill="#d8b7a1"/>
              <path id="Trazado_124318" data-name="Trazado 124318" d="M632.095,1082.555s8.105-.019,10.827-.019a30.681,30.681,0,0,0,4.957-.3c.777-.13,1.166-.907,2.268-1.166a40.488,40.488,0,0,1,5.375-.13,8.647,8.647,0,0,1-.175,1.723c-.152.386-.992.573-4.636.732s-14.973.154-15.964.115-2.5-.133-2.652-.957" transform="translate(-511.78 -875.165)" fill="#fff"/>
              <path id="Trazado_124319" data-name="Trazado 124319" d="M639.966,300.914a42.443,42.443,0,0,1,6.545-2.481,27.177,27.177,0,0,1,6.378-1.486l4.656,2.359s-2.577,9.854-3.776,10.988-2.948,4.115-7.517,3.953-4.989,2.333-6.285-1.944-1.037-10.465,0-11.388" transform="translate(-517.442 -240.424)" fill="#e4e9eb"/>
              <path id="Trazado_124320" data-name="Trazado 124320" d="M643.509,314.431s.16-.921-3.493-2.642c-3.6-1.7-5.217-2.451-5.217-2.451s-6.016,12.491-11.548,12.629-6.03-11.02-6.03-11.02-4.515,1.844-5.7,3.485,0,13.587,0,13.587.887,7.179,1.939,12.3a15.31,15.31,0,0,1,.468,3.162,20.34,20.34,0,0,1-.57,2.268,71.185,71.185,0,0,0-.963,7.862c-.065,1.344.981,3.8,1.372,3.967,5.128,2.193,15.378,1.041,20.635-.032,4.776-.975,6.68-.913,7.041-1.138s2.027-8.731,1.244-10.952a6.689,6.689,0,0,1-.314-1.572,4.5,4.5,0,0,0,1.677-1.364c.795-1.363,2.714-3.718,2.715-7.086,0-12.666-3.258-21-3.258-21" transform="translate(-494.697 -250.457)" fill="#b3a97b"/>
              <path id="Trazado_124321" data-name="Trazado 124321" d="M658.612,529.437c-1.552-.061-2.883,1.054-4.317,1.571-1.549.558-3.215.263-4.783.7-.8.219-1.48.766-2.26,1.026a10.614,10.614,0,0,1-2.494.359,31.46,31.46,0,0,1-5.065,0,35.927,35.927,0,0,1-5.682-.953c-.151-.037-.184.26-.034.3a31.061,31.061,0,0,0,9.983,1.073c.855-.045,1.711-.115,2.558-.242a7.449,7.449,0,0,0,2.214-.874c1.538-.766,3.251-.468,4.864-.8,1.748-.364,3.24-1.76,5.05-1.795.18,0,.141-.353-.034-.36" transform="translate(-513.225 -428.659)" fill="#978a57"/>
              <path id="Trazado_124322" data-name="Trazado 124322" d="M642.656,496.9a84.771,84.771,0,0,0,17.776-1.159c4.052-.817,6.583-1.354,8.1-1.685a5.08,5.08,0,0,0-.211-1.66,6.689,6.689,0,0,1-.314-1.572s-8.933,3.831-16.8,4.917c-5.435.75-8.549,1.159-8.549,1.159" transform="translate(-520.331 -397.401)" fill="#143a35"/>
              <path id="Trazado_124323" data-name="Trazado 124323" d="M741.9,326.135a29.251,29.251,0,0,0-6.815,6.478c-.149.195.182.385.329.192a29.107,29.107,0,0,1,6.847-6.455c-.113-.07-.232-.141-.361-.215" transform="translate(-595.137 -264.057)" fill="#978a57"/>
              <path id="Trazado_124324" data-name="Trazado 124324" d="M618.22,338.675a27.329,27.329,0,0,0-3.447-4.961q-.142.137-.259.273a27.573,27.573,0,0,1,3.377,4.88.191.191,0,0,0,.329-.192" transform="translate(-497.545 -270.193)" fill="#978a57"/>
              <path id="Trazado_124325" data-name="Trazado 124325" d="M536.523,371.065a44.214,44.214,0,0,0-.464-8.426c-1.317-5.774-4.653-14.728-4.884-12.661s-1.034,16.017-1.269,17.448c-.112.682-.2,1.258-.265,1.742-5.047.28-11.566.416-15.307-.4l-1.924,9.041s13.119,2.921,18.926,3.646,5.186-10.394,5.186-10.394" transform="translate(-414.877 -283.116)" fill="#b3a97b"/>
              <path id="Trazado_124326" data-name="Trazado 124326" d="M585.648,448.059q-3.649.28-7.309.325a.287.287,0,0,0-.242.323.292.292,0,0,0,.323.242q3.659-.045,7.309-.325c.367-.028.284-.593-.081-.565" transform="translate(-468.058 -362.772)" fill="#493333"/>
              <path id="Trazado_124327" data-name="Trazado 124327" d="M627.022,392.788a24.26,24.26,0,0,0-.438-4.45c-.212-1.516-.348-3.044-.413-4.574a48.742,48.742,0,0,1,.054-5.135c.023-.367-.548-.366-.571,0a48.635,48.635,0,0,0,.307,9.322,29.843,29.843,0,0,1,.5,4.585c-.036,1.418-.314,2.814-.465,4.221a8.8,8.8,0,0,0,.473,4.5c.146.336.638.046.493-.288a8.041,8.041,0,0,1-.417-4.007c.136-1.4.414-2.776.477-4.178" transform="translate(-506.486 -306.337)" fill="#978a57"/>
              <path id="Trazado_124328" data-name="Trazado 124328" d="M509.764,469.208s-.641,3.879-1.833,3.849-1.222-4.429-.825-5.5,2.657,1.649,2.657,1.649" transform="translate(-410.397 -378.36)" fill="#143a35"/>
              <path id="Trazado_124329" data-name="Trazado 124329" d="M448.868,436.131s-1.061-1.41-.913-2.075c.194-.872,2.524.691,3.277,1.05s2.176,1.415,2.934,1.775-.092,5.192-.092,5.192c-4.765.122-6.915-1.584-7.752-1.544s-6.733-.633-7.052-1.311-1.316-.328-1.157-1.062.756-1.055,2.112-1.219c.725-1.1,8.643-.807,8.643-.807" transform="translate(-354.707 -351.225)" fill="#e3916f"/>
              <path id="Trazado_124330" data-name="Trazado 124330" d="M462.95,453.175c-.165-.078-.333-.146-.5-.209a4.019,4.019,0,0,1-.277-1.582c.013-.161.011-.28-.141-.273-.184.008-.177.141-.2.312a4.292,4.292,0,0,0-.062,1.338,8.986,8.986,0,0,0-2.7-.212c-.665.04-1.327.126-1.986.225a1.14,1.14,0,0,0-.763.3c-.2.232.01.885.206.866.169-.016-.063-.4.261-.546a3.889,3.889,0,0,1,1.2-.205c.517-.06,1.183-.048,1.7-.052a7.29,7.29,0,0,1,2.345.327.3.3,0,0,0,.145.05c.154.056.307.116.457.187.355.168.667-.361.31-.53" transform="translate(-369.399 -365.244)" fill="#d88060"/>
              <path id="Trazado_124331" data-name="Trazado 124331" d="M494.633,443.4a2.568,2.568,0,0,1-1.493-1.879,1.174,1.174,0,0,0-.714-.883c-.187-.061-.446-.054-.585-.2a3.569,3.569,0,0,1-.431-.5c-.206-.337-.422-.146-.215.193.223.365.378.822.783,1,.185.082.364.079.466.271a4.422,4.422,0,0,1,.2.575,2.987,2.987,0,0,0,1.824,2.012.307.307,0,0,0,.163-.592" transform="translate(-397.631 -356.054)" fill="#d88060"/>
              <path id="Trazado_124332" data-name="Trazado 124332" d="M614.233,206.4c-.861-4.828-3.383-6.371-4.39-6.355a3.824,3.824,0,0,0,.05-1.752c-.052-.25-.435-.144-.383.106a3.38,3.38,0,0,1-.013,1.411c-.114-.429-.527-1.2-2.018-1.6-2.142-.577-3.277.844-4.513,1.293s-3.79.7-5.438,2.839.472,5.469-.365,7.236,2.352,3.87,3.753,2.257c.873-1.005,3.023-2.8,4.878-4.488,2.4,2.971,7.613,5.093,8.029,4.724.553-.491.953-2.633.411-5.673" transform="translate(-483.268 -160.375)" fill="#842a2e"/>
              <path id="Trazado_124333" data-name="Trazado 124333" d="M663.69,254.779a56.5,56.5,0,0,0,6.341,8.044,47.1,47.1,0,0,1-5.925,6.745l-.51-2.835-3.312-5.889Z" transform="translate(-534.602 -206.283)" fill="#e3916f"/>
              <path id="Trazado_124334" data-name="Trazado 124334" d="M663.931,267.41a6.812,6.812,0,0,0,1.188-2.343,6.158,6.158,0,0,0,.083-2.8,17.982,17.982,0,0,0-.982-3.172c-.256-.673-.549-1.349-.775-2.04l-3.164,5.632,3.03,5.387a5.474,5.474,0,0,0,.619-.664" transform="translate(-534.602 -208.126)" fill="#1a1a1a"/>
              <path id="Trazado_124335" data-name="Trazado 124335" d="M609.424,242.343c.451.83,2.031,5.49,4.966,7.192a6.772,6.772,0,0,0,5.542.426c3.549-1.656,3.947-5.4,3.122-8.268,0,0,2.274-2.98-.385-4.734-1.811-1.195-2.626,1.94-2.626,1.94s-.308,2.37-4.386-1.448c-4.413.357-6.5-2.056-6.233,1.144a15.226,15.226,0,0,1,0,3.748" transform="translate(-493.406 -191.635)" fill="#e3916f"/>
              <path id="Trazado_124336" data-name="Trazado 124336" d="M622.553,278.685a.662.662,0,0,0-.386-.394.565.565,0,0,0-.145-.032.261.261,0,0,0-.07,0,.219.219,0,0,0-.157.111c0,.005-.006.011-.009.017a.329.329,0,0,0-.13.218.429.429,0,0,0,.065.268.6.6,0,0,0,.27.371.449.449,0,0,0,.231.051.218.218,0,0,0,.032,0,.347.347,0,0,0,.265-.164.391.391,0,0,0,.054-.175.5.5,0,0,0-.02-.271" transform="translate(-503.326 -225.291)" fill="#1a1a1a"/>
              <path id="Trazado_124337" data-name="Trazado 124337" d="M645.67,260.31a.561.561,0,0,0-.456-.1.422.422,0,0,0-.253.39.794.794,0,0,0,.083.477c.005.009.012.018.018.026a.618.618,0,0,0,.053.116.343.343,0,0,0,.043.065l.013.015a.357.357,0,0,0,.033.031.538.538,0,0,0,.061.057.393.393,0,0,0,.275.07.449.449,0,0,0,.386-.13.591.591,0,0,0,.158-.368.736.736,0,0,0-.413-.644" transform="translate(-522.192 -210.662)" fill="#1a1a1a"/>
              <path id="Trazado_124338" data-name="Trazado 124338" d="M639.02,247.568a.306.306,0,0,0-.367-.208l-1.894.334a.3.3,0,0,0-.208.367.306.306,0,0,0,.366.208l1.894-.334a.3.3,0,0,0,.208-.367" transform="translate(-515.379 -200.271)" fill="#842a2e"/>
              <path id="Trazado_124339" data-name="Trazado 124339" d="M614.737,268.311a.3.3,0,0,0-.408.107l-.636,1.187a.3.3,0,0,0,.515.3l.636-1.187a.3.3,0,0,0-.107-.408" transform="translate(-496.851 -217.209)" fill="#842a2e"/>
              <path id="Trazado_124340" data-name="Trazado 124340" d="M640.941,284.954a.248.248,0,0,0-.306-.173l-.536.167a.261.261,0,0,0-.148.114.254.254,0,0,0-.025.191.249.249,0,0,0,.305.174l.536-.167a.259.259,0,0,0,.148-.114.253.253,0,0,0,.025-.191" transform="translate(-518.113 -230.566)" fill="#cd5d4c"/>
              <path id="Trazado_124341" data-name="Trazado 124341" d="M645.346,287.112l3.08-2.742s.962,1.469.428,2.286a1.773,1.773,0,0,1-1.622.754,4.292,4.292,0,0,1-1.886-.3" transform="translate(-522.509 -230.241)" fill="#fff"/>
              <path id="Trazado_124342" data-name="Trazado 124342" d="M685.631,305.014l-.507-.257a29.168,29.168,0,0,1-4.243,6.444q-.815.937-1.708,1.8a17.142,17.142,0,0,0-2.287-2.924.288.288,0,0,0-.477.126q-.687,3.7-1.128,7.434c-.043.364.528.361.571,0q.4-3.39,1.013-6.749a16.515,16.515,0,0,1,2,2.711.289.289,0,0,0,.448.058,29.789,29.789,0,0,0,6.106-8.215c.071-.142.139-.285.208-.427" transform="translate(-546.743 -246.748)" fill="#aabacb"/>
              <path id="Trazado_124343" data-name="Trazado 124343" d="M659.87,315.541l-1.31,1.765a17.174,17.174,0,0,1-1.954-5.965c0-.01,0-.018,0-.028q-.289.109-.548.21A19.55,19.55,0,0,0,658.261,318a.289.289,0,0,0,.493,0l1.609-2.168c.219-.3-.276-.58-.493-.288" transform="translate(-531.178 -252.057)" fill="#aabacb"/>
              <path id="Trazado_124344" data-name="Trazado 124344" d="M630.226,499.231s.371,2.857-.515,3.315-2.418-2.887-2.2-4.262,2.718.947,2.718.947" transform="translate(-508.049 -403.086)" fill="#143a35"/>
              <path id="Trazado_124345" data-name="Trazado 124345" d="M572.824,479.3a11.446,11.446,0,0,0-.167-4.516c-.547-2.178-3.677-1.491-4.941-1.29a8.929,8.929,0,0,1-3.938.137c-1.179-.295-1.265.677-.829,1.314,0,0-1.118.1-3.353.363s-2.839.65-2.683,1.281-.367.222-.318.9,5.658,1.76,7.569,1.674a84.422,84.422,0,0,1,8.661.135" transform="translate(-450.647 -383.153)" fill="#e3916f"/>
              <path id="Trazado_124346" data-name="Trazado 124346" d="M595.459,482.278a7.276,7.276,0,0,0-2.515-.294,3.809,3.809,0,0,1-2.214-.547c-.3-.214-.585.281-.288.493,1.445,1.031,3.3.3,4.866.9.343.132.492-.42.152-.551" transform="translate(-477.953 -389.755)" fill="#d88060"/>
              <path id="Trazado_124347" data-name="Trazado 124347" d="M656.112,395.462q-2.248,1.017-4.552,1.9.472-5.532,1.351-11.017c.058-.36-.492-.514-.551-.152q-.909,5.659-1.39,11.375c0,.007,0,.013,0,.019q-1.655.622-3.335,1.176a85.8,85.8,0,0,1-8.764,2.38q-2.513.541-5.056.931c-.362.056-.208.606.152.551a85.724,85.724,0,0,0,17.661-4.677q2.415-.924,4.771-1.992c.334-.151.044-.643-.288-.493" transform="translate(-513.006 -312.517)" fill="#978a57"/>
            </g>
          </g>
        </g>
      </g>
    </g>
    <rect id="Rectángulo_35980" data-name="Rectángulo 35980" width="190" height="243" transform="translate(810 688)" fill="none"/>
  </g>
</svg>
