<svg xmlns="http://www.w3.org/2000/svg" xmlns:xlink="http://www.w3.org/1999/xlink" width="276.287" height="284" viewBox="0 0 276.287 284">
  <defs>
    <clipPath id="clip-path">
      <rect id="Rectángulo_35979" data-name="Rectángulo 35979" width="276.287" height="247.864" fill="none"/>
    </clipPath>
  </defs>
  <g id="Grupo_88125" data-name="Grupo 88125" transform="translate(6011 9075)">
    <g id="Grupo_88124" data-name="Grupo 88124" transform="translate(-16)">
      <path id="Rectángulo_34017" data-name="Rectángulo 34017" d="M0,0H140a77,77,0,0,1,77,77V284a0,0,0,0,1,0,0H0a0,0,0,0,1,0,0V0A0,0,0,0,1,0,0Z" transform="translate(-5965 -9075)" fill="#6b8dfc"/>
      <g id="Grupo_80932" data-name="Grupo 80932" transform="translate(-5959 -9054.072)">
        <path id="Trazado_114646" data-name="Trazado 114646" d="M274.765,153.931c-1.55,23.991-19.953,46.9-44.875,48.318-28.625,2.193-54.9-13.505-83.415-13.671-14.54-1.247-28.176,4.321-42.345,6.118-32,1.175-36.879-36.434-30.911-60.675C98.39,19.738,276.507,35.287,274.765,153.931Z" transform="translate(-71.019 -56.124)" fill="#c4d1ff"/>
      </g>
    </g>
    <g id="Grupo_88123" data-name="Grupo 88123" transform="translate(-6011 -9039)">
      <g id="Grupo_88122" data-name="Grupo 88122" clip-path="url(#clip-path)">
        <path id="Trazado_124935" data-name="Trazado 124935" d="M36.826,243.589c0-2.219,12.029-4.017,26.867-4.017s26.867,1.8,26.867,4.017a.862.862,0,0,1-.291.59l.328.3c-.885.973-4.279,1.786-10.089,2.415-4.483.485-10.294.839-15.944.972l-.006-.261c-.288,0-.575,0-.865,0-5.43,0-10.48-.241-14.706-.656l-.021.26A54.521,54.521,0,0,1,37.9,245l.084-.246c-.75-.37-1.157-.762-1.157-1.168" transform="translate(148.864 0)" fill="#70492a"/>
        <path id="Trazado_124936" data-name="Trazado 124936" d="M66.129,77.787c-.943,5.89-4.456,36.867-4.828,42.746-.331,5.875-.547,11.755-.579,17.65-.017,2.948.026,5.9.179,8.868l.277,4.4.238,4.384c.292,5.851.522,11.712.731,17.573s.39,11.725.537,17.585c.07,2.927.142,5.864.16,8.769l-.069,8.765-.294,35.24,3.923-.013-.3-35.188-.077-8.843c-.07-2.963-.188-5.893-.309-8.831q-.371-8.808-.832-17.6c-.307-5.866-.637-11.73-1.027-17.6l-.313-4.4L63.2,146.9c-.2-2.89-.29-5.809-.323-8.73-.064-5.843.052-11.7.284-17.55.269-5.835,3.184-37.117,4-42.837Z" transform="translate(148.402 0)" fill="#424e2a"/>
        <path id="Trazado_124937" data-name="Trazado 124937" d="M63.5,140.884,61.633,142.3l-.936.707-.888.766-1.769,1.54-1.668,1.648-.833.827-.782.873L53.2,150.413c-.957,1.235-1.982,2.422-2.855,3.719a66.127,66.127,0,0,0-4.913,7.977,75.45,75.45,0,0,0-3.863,8.534,82.3,82.3,0,0,0-2.861,8.925c-.774,3.029-1.407,6.071-2.045,9.11s-1.25,6.077-1.948,9.083c-.351,1.5-.719,3-1.164,4.453a22.142,22.142,0,0,1-.74,2.125,7.037,7.037,0,0,1-.457.963,2.956,2.956,0,0,1-.254.419c-.092.1-.178.206-.26.316l1.037,1.178c.167-.187.33-.38.488-.576a4.291,4.291,0,0,0,.345-.573,8.478,8.478,0,0,0,.53-1.141,23.59,23.59,0,0,0,.767-2.275c.447-1.518.8-3.039,1.142-4.562.673-3.045,1.258-6.1,1.86-9.137s1.205-6.081,1.935-9.072a81.1,81.1,0,0,1,2.726-8.82,74.325,74.325,0,0,1,3.719-8.452,64.97,64.97,0,0,1,4.757-7.908c.846-1.288,1.842-2.464,2.771-3.692l1.515-1.741.76-.868.81-.822,1.625-1.639,1.725-1.534.866-.763.913-.705,1.827-1.411Z" transform="translate(180.489 0)" fill="#424e2a"/>
        <path id="Trazado_124938" data-name="Trazado 124938" d="M92.17,189.82a67.512,67.512,0,0,0-4.807-14.312c-2.012-4.571-4.325-8.985-6.764-13.319s-5.059-8.565-7.882-12.661l-2.17-3.037c-.765-.985-1.505-1.985-2.29-2.954-.823-.942-1.567-1.94-2.466-2.824-.443-.446-.849-.92-1.322-1.341l-1.446-1.237-.473.626,1.345,1.214c.44.414.83.895,1.248,1.338.849.876,1.563,1.89,2.345,2.832.748.975,1.455,1.986,2.184,2.976l2.068,3.064c2.691,4.132,5.167,8.406,7.483,12.758s4.478,8.789,6.337,13.337a65.64,65.64,0,0,1,4.285,13.907Z" transform="translate(121.567 0)" fill="#424e2a"/>
        <path id="Trazado_124939" data-name="Trazado 124939" d="M57.94,186.528c.027-.109,2.782-10.917,6.343-16.728l-1-.615c-3.655,5.965-6.367,16.605-6.481,17.055Z" transform="translate(155.205 0)" fill="#424e2a"/>
        <path id="Trazado_124940" data-name="Trazado 124940" d="M60.857,157.906c4.189-6.561,6.562-14.518,6.562-19.544s-1.954-16.891-12.005-17.589-11.587,9.213-12.146,12.285,2.512,12.424,4.189,13.541,3.907,1.256,4.467,2.233.139,3.071.557,4.048,3.005.559,2.829,2.234.1,3.63.941,3.769,4.606-.977,4.606-.977" transform="translate(165.667 0)" fill="#424e2a"/>
        <path id="Trazado_124941" data-name="Trazado 124941" d="M54.051,157.114c1.663-10.537-1.642-28.95-1.676-29.135l-.579.106c.033.184,3.321,18.5,1.674,28.937Z" transform="translate(169.972 0)" fill="#353d22"/>
        <path id="Trazado_124942" data-name="Trazado 124942" d="M126.467,141.433c1.84,2.6,1.536,18.567-2.373,22.336s-5.026,1.4-6.84,2.094-5.445.139-6.98-2.373-6-3.909-4.467-11.308,12.563-22.2,20.66-10.749" transform="translate(43.241 0)" fill="#424e2a"/>
        <path id="Trazado_124943" data-name="Trazado 124943" d="M104.493,138.362c4.607-4.746,10.47-12.564,11.447-19.264s-2.513-11.168-4.746-11.587-3.28-5.713-9.772-6.98c-5.724-1.117-6.422.977-7.818,1.117S88.16,99.554,82.716,105s-4.886,13.4-3.769,16.752,11.307,17.427,14.8,18.066,10.749-1.454,10.749-1.454" transform="translate(81.967 0)" fill="#5b754b"/>
        <path id="Trazado_124944" data-name="Trazado 124944" d="M100.6,138.788l.135-.573c-.017,0-2.138-.64-2.007-6.267.075-3.229-1.172-7.58-2.378-11.788-1.036-3.616-2.014-7.032-1.95-9.15l-.588-.018c-.067,2.21.924,5.669,1.972,9.33,1.194,4.167,2.428,8.474,2.355,11.612-.143,6.17,2.354,6.83,2.461,6.854" transform="translate(81.745 0)" fill="#4c6040"/>
        <path id="Trazado_124945" data-name="Trazado 124945" d="M89.588,121c4.35-2.415,8.7-8.86,8.887-9.132l-.488-.328c-.044.065-4.46,6.6-8.684,8.945Z" transform="translate(88.509 0)" fill="#4c6040"/>
        <path id="Trazado_124946" data-name="Trazado 124946" d="M109.518,122.426l.058-.585c-4.465-.439-11.19-6.937-11.257-7l-.411.421c.281.274,6.942,6.707,11.61,7.166" transform="translate(68.803 0)" fill="#4c6040"/>
        <path id="Trazado_124947" data-name="Trazado 124947" d="M87.061,128.316c2.73-.718,6.687-4.635,7.727-6.714l-.527-.264c-.969,1.942-4.806,5.74-7.35,6.41Z" transform="translate(94.588 0)" fill="#4c6040"/>
        <path id="Trazado_124948" data-name="Trazado 124948" d="M112.051,128.321l.1-.578c-3.468-.6-10.92-3.564-12.207-6.4l-.536.244c1.475,3.247,9.53,6.189,12.642,6.729" transform="translate(64.726 0)" fill="#4c6040"/>
        <path id="Trazado_124949" data-name="Trazado 124949" d="M41.1,145.2c4.048-5.444,7.4-18.713,7.119-25.131s-3.35-6.279-4.327-6.279-1.257-1.954-3.909-2.093-4.886,2.058-5.444,4.519.279,4.136-.838,5.252a8.989,8.989,0,0,0-2.652,6.561c.14,3.072,4.746,10.889,6.142,12.844A37.535,37.535,0,0,0,41.1,145.2" transform="translate(197.011 0)" fill="#5b754b"/>
        <path id="Trazado_124950" data-name="Trazado 124950" d="M37.973,142.621c1.4-5.593,1.007-19.694,0-24.1l-.573.132c.994,4.354,1.383,18.3,0,23.821Z" transform="translate(200.005 0)" fill="#4c6040"/>
        <path id="Trazado_124951" data-name="Trazado 124951" d="M85.856,103.309c-1.814-2.839-8.634-6.268-11.147-7.524s-3.49-5.863-6.7-7.4-7.119-7.4-4.467-12.145,11.726-1.536,15.773,2.792,10.452,14.5,6.542,24.276" transform="translate(126.549 0)" fill="#5b754b"/>
        <path id="Trazado_124952" data-name="Trazado 124952" d="M0,151.688c5.51.076,9.419.495,14.165-1.181s12.564,0,16.333,1.955,4.746,5.863,5.165,7.538,2.653,3.211,3.63,5.025-.279,4.886-1.815,5.445-.838,2.931-2.513,3.629-4.048,0-5.863,1.955a6.15,6.15,0,0,1-7.259.837c-1.954-1.256-3.49-4.606-7.259-4.886S2.359,166.98,1.491,163.071,0,151.688,0,151.688" transform="translate(236.649 0)" fill="#5b754b"/>
        <path id="Trazado_124953" data-name="Trazado 124953" d="M37.372,170.217l.486-.333c-3.445-5.024-11.989-10.031-16.356-11.272a67.175,67.175,0,0,1-12.565-5l-.32.494c1.974,1.284,8.4,3.845,12.724,5.074,4.285,1.216,12.66,6.121,16.031,11.039" transform="translate(229.812 0)" fill="#4c6040"/>
        <path id="Trazado_124954" data-name="Trazado 124954" d="M35.637,111c5.863-4.746,13.27-10.844,25.341-10.8s-6.914-4.979-8.031-5.118-1.815,1.814-3.629,1.535-2.932-2.512-6.562-.837S35.637,105.7,35.637,111" transform="translate(175.671 0)" fill="#5b754b"/>
        <path id="Trazado_124955" data-name="Trazado 124955" d="M110.095,73.309c-3.63-3.211-4.467-3.629-9.911-4.885s-12.7-2.792-17.45,0-4.537,6-4.537,6a7.01,7.01,0,0,0-4.4,7.26c.419,5.584,3.059,7.837,6.415,6.781a108.847,108.847,0,0,0,10.617-4.688c1.535-.7,2.233-3.351,5.863-4.466s13.4-6,13.4-6" transform="translate(92.419 0)" fill="#6e8e5b"/>
        <path id="Trazado_124956" data-name="Trazado 124956" d="M77.1,78.942c2.415-2.9,12.2-8.373,25.543-5.762l.113-.578c-13.6-2.66-23.623,2.981-26.108,5.963Z" transform="translate(96.883 0)" fill="#5e7f33"/>
        <path id="Trazado_124957" data-name="Trazado 124957" d="M99.29,72.479l.248-.533a18.372,18.372,0,0,0-12.587-1.432l.157.567a17.783,17.783,0,0,1,12.182,1.4" transform="translate(89.798 0)" fill="#5e7f33"/>
        <path id="Trazado_124958" data-name="Trazado 124958" d="M90,81.42c.041-.067,4.207-6.792,6.636-7.84l-.233-.541c-2.6,1.122-6.729,7.79-6.9,8.073Z" transform="translate(90.148 0)" fill="#5e7f33"/>
        <path id="Trazado_124959" data-name="Trazado 124959" d="M97.5,82.928a14.516,14.516,0,0,1,4.039-5.415l-.382-.449a15.047,15.047,0,0,0-4.189,5.613Z" transform="translate(77.778 0)" fill="#5e7f33"/>
        <path id="Trazado_124960" data-name="Trazado 124960" d="M28.68,75.483c-1.117-4.407-5.025-14.877-3.769-20.6s2.694-6,4.557-6.84c0,0-1.346-4.886.748-6.7s7.4-2.094,8.794-1.675,3.351,1.535,4.747.977.837-4.188,3.21-5.863,5.284-1.815,8.3-1.117,10.69,3.63,12.225,4.746.7,2.373-.977,3.211-10.88,4.607-13.188,7.4-9.008,7.957-11.66,11.307S30.774,76.1,30.774,76.1Z" transform="translate(183.326 0)" fill="#5b754b"/>
        <path id="Trazado_124961" data-name="Trazado 124961" d="M44.318,55.9l.584-.077c-.611-4.657,1.546-8.937,3.735-12.511l-.5-.308c-2.244,3.662-4.451,8.057-3.818,12.9" transform="translate(183.442 0)" fill="#4c6040"/>
        <path id="Trazado_124962" data-name="Trazado 124962" d="M57.607,68.585l.587-.043a130.248,130.248,0,0,1,.836-16.414l-.584-.074a131.367,131.367,0,0,0-.839,16.531" transform="translate(159.69 0)" fill="#4c6040"/>
        <path id="Trazado_124963" data-name="Trazado 124963" d="M49.123,154.555c2.652-2.093,5.305-3.35,8.516-1.535s.837,5.329,2.512,5.876,5.658,4.266,5.584,8.223a9.917,9.917,0,0,1-5.863,9.074c-3.769,1.814-3.646,3.77-13.968,2.512S29.3,175.5,28.6,168.1s.279-9.074,5.584-11.028,7.866-7.247,9.646-7.247c2.177,0,5.291,4.734,5.291,4.734" transform="translate(182.148 0)" fill="#6e8e5b"/>
        <path id="Trazado_124964" data-name="Trazado 124964" d="M44.01,176.8c2.954-3.424,4.1-15.21,2.674-20.924l-.571.142c1.393,5.592.31,17.086-2.549,20.4Z" transform="translate(185.43 0)" fill="#5e7f33"/>
        <path id="Trazado_124965" data-name="Trazado 124965" d="M91.375,146.319c2.1.347,4.48-3.071,9.645-2.373s11.028,5.025,8.516,14.379-8.376,12.145-11.447,12.982-5.165-2.373-7.818-1.954-2.938,1.535-7.4.7-10.239-6.7-9.655-14.658,5.607-10.425,9.655-11.541,6.818,2.188,8.506,2.467" transform="translate(92.978 0)" fill="#5b754b"/>
        <path id="Trazado_124966" data-name="Trazado 124966" d="M91.629,167.544l.588-.012c-.022-1.112-.057-2.279-.094-3.468-.195-6.3-.415-13.436,1.428-16.185l-.489-.328c-1.948,2.906-1.724,10.145-1.527,16.531.037,1.187.073,2.352.094,3.462" transform="translate(91.326 0)" fill="#4c6040"/>
        <path id="Trazado_124967" data-name="Trazado 124967" d="M90.594,151.913l.379-.451c-2.151-1.808-6.169-3.507-9.153-3.2l.058.586c2.836-.289,6.658,1.336,8.716,3.067" transform="translate(103.494 0)" fill="#4c6040"/>
        <path id="Trazado_124968" data-name="Trazado 124968" d="M91.422,161.236,91.96,161c-1.169-2.628-6.118-6.312-10.918-5.9l.053.587c4.532-.413,9.226,3.073,10.327,5.549" transform="translate(103.285 0)" fill="#4c6040"/>
        <path id="Trazado_124969" data-name="Trazado 124969" d="M93.679,152.517c2.2-2.493,4.047-4.094,9.588-3.7l.042-.587c-5.786-.417-7.827,1.357-10.071,3.9Z" transform="translate(79.74 0)" fill="#4c6040"/>
        <path id="Trazado_124970" data-name="Trazado 124970" d="M95.277,162.589c1.184-4.413,4.417-7.007,8.651-6.935l.009-.588h-.18c-4.432,0-7.807,2.744-9.048,7.372Z" transform="translate(77.641 0)" fill="#4c6040"/>
        <path id="Trazado_124971" data-name="Trazado 124971" d="M140.193,141.08c-2.094-5.165-10.19-10.535-14.517-9.977s-13.681-1.4-16.612-1.535-4.607,1.675-6,1.815-2.792-1.676-4.607.418-1.535,2.374-6.142,4.747-4.328,9.074-2.513,12.7,5.726,5.514,8.655,4.607,4.746-2.234,7.12-1.536,5.049,2.329,11.307-1.93c6.139-4.177,1.513-9.991,23.312-9.312" transform="translate(47.522 0)" fill="#6e8e5b"/>
        <path id="Trazado_124972" data-name="Trazado 124972" d="M91.112,142.82c5.589-2.437,25.662-7.164,39.881-3.873l.133-.573c-14.357-3.324-34.609,1.448-40.248,3.907Z" transform="translate(54.283 0)" fill="#5e7f33"/>
        <path id="Trazado_124973" data-name="Trazado 124973" d="M111.642,137.764l.351-.472a31.022,31.022,0,0,0-7.774-3.948c-.393-.15-.758-.288-1.087-.421l-.219.546c.333.134.7.274,1.1.424a30.557,30.557,0,0,1,7.633,3.871" transform="translate(61.381 0)" fill="#5e7f33"/>
        <path id="Trazado_124974" data-name="Trazado 124974" d="M124.967,137.737l.414-.418a22.132,22.132,0,0,0-7.788-4.4l-.193.557a21.546,21.546,0,0,1,7.567,4.261" transform="translate(33.506 0)" fill="#5e7f33"/>
        <path id="Trazado_124975" data-name="Trazado 124975" d="M107.811,147.078c.279-.3.6-.677.975-1.111,1.751-2.048,4.4-5.142,7.951-6.492l-.208-.55c-3.7,1.4-6.4,4.566-8.19,6.66-.365.426-.684.8-.957,1.092Z" transform="translate(52.168 0)" fill="#5e7f33"/>
        <path id="Trazado_124976" data-name="Trazado 124976" d="M53.157,135.668c1.954-5.025,7.764-9.661,10.161-10.917s3.071-5.381,8.236-4.68,8.1,4.611,11.587,5.309,9.03.568,9.029,5.191S89.423,135.55,89,137.235s-.559,4.7-3.211,4.587-3.484-1.645-7.884.728-11.1-.275-13.893-2.511-10.859-4.371-10.859-4.371" transform="translate(130.96 0)" fill="#6e8e5b"/>
        <path id="Trazado_124977" data-name="Trazado 124977" d="M88.05,132.606l.312-.5c-4.554-2.845-9.708-6.062-15.673-5.564-5.9.5-10.732,5.4-10.934,5.611l.421.411c.048-.05,4.881-4.953,10.564-5.436,5.754-.486,10.616,2.543,15.31,5.477" transform="translate(126.17 0)" fill="#5e7f33"/>
        <path id="Trazado_124978" data-name="Trazado 124978" d="M69.148,127.024c.017-.021,1.775-2.085,6.067-2.891l-.108-.578c-4.52.848-6.337,3-6.413,3.094Z" transform="translate(132.378 0)" fill="#5e7f33"/>
        <path id="Trazado_124979" data-name="Trazado 124979" d="M75.511,139.473l.222-.546c-4.139-1.681-8.019-5.9-7.057-10.418l-.576-.122c-1.029,4.827,3.05,9.314,7.411,11.086" transform="translate(132.615 0)" fill="#5e7f33"/>
        <path id="Trazado_124980" data-name="Trazado 124980" d="M81.3,137.527l.081-.582a5.143,5.143,0,0,1-3.871-2.525,5.354,5.354,0,0,1-.226-4.747l-.542-.227A5.936,5.936,0,0,0,77,134.712a5.716,5.716,0,0,0,4.3,2.815" transform="translate(118.665 0)" fill="#5e7f33"/>
        <path id="Trazado_124981" data-name="Trazado 124981" d="M2.456,142.55c-1.173-6.882-1.675-16.4,1.954-20.417a15.755,15.755,0,0,1,10.749-5.269c2.374,0,3.63-3.944,9.772-.646s4.747,6.649,6.561,7.626,3.909,2.285,4.049,6.727-.978,8.21-3.49,10.3-4.049,1.4-5.305,4.327-11.028,3.071-15.635,2.513-8.148-2.192-8.655-5.165" transform="translate(239.145 0)" fill="#6e8e5b"/>
        <path id="Trazado_124982" data-name="Trazado 124982" d="M13.211,142.087c4.43-2.132,15.2-8.634,20.207-15.123l-.466-.36c-4.942,6.406-15.606,12.84-20,14.953Z" transform="translate(229.914 0)" fill="#5e7f33"/>
        <path id="Trazado_124983" data-name="Trazado 124983" d="M21.407,138.8l.035-.587c-4.048-.246-8.556-.731-11.308-2.468l-.314.5c2.864,1.808,7.465,2.307,11.587,2.557" transform="translate(245.025 0)" fill="#5e7f33"/>
        <path id="Trazado_124984" data-name="Trazado 124984" d="M21.822,135.454l.559-.182c-1.422-4.355-.489-10.311,1.887-12.027l-.345-.477c-2.6,1.877-3.619,8.042-2.1,12.686" transform="translate(230.906 0)" fill="#5e7f33"/>
        <path id="Trazado_124985" data-name="Trazado 124985" d="M29.083,144.659v-.588c-3.689,0-8.7-1.712-9.991-4.169l-.521.275c1.411,2.681,6.574,4.482,10.512,4.482" transform="translate(228.633 0)" fill="#5e7f33"/>
        <path id="Trazado_124986" data-name="Trazado 124986" d="M29.1,139.31l.547-.219c-.78-1.949-.852-7.566,1.368-10.9l-.491-.327c-2.325,3.489-2.244,9.39-1.424,11.441" transform="translate(216.695 0)" fill="#5e7f33"/>
        <path id="Trazado_124987" data-name="Trazado 124987" d="M47.023,100.671c3.245-.309-6.56,4.467-11.446,3.49s-6.974-3.629-9.4-6.591c-1.316-1.607-5.54-2.483-5.54-2.483s3.769-1.256,11.028,1.256,12.424,4.607,15.355,4.328" transform="translate(207.979 0)" fill="#6e8e5b"/>
        <path id="Trazado_124988" data-name="Trazado 124988" d="M37.436,105.689S37.626,92.153,40,88.383s13.783-7.1,17.082-10.251,6.65.2,6.789,3.272-.977,7.119-3.49,7.677-.7,3.49-2.652,4.746-6.042.28-8.884,1.118-10.736,3.444-11.408,10.744" transform="translate(174.969 0)" fill="#6e8e5b"/>
        <path id="Trazado_124989" data-name="Trazado 124989" d="M62.238,71.243c3.774-.755,5.105-2.949,9.632-3.238s7.17-1.358,7.913,4.207S78.9,82.244,75.523,82.8s-1.559-1.954-4.49-1.535-1.19,3.071-6.389,3.489-11.2-3.8-11.619-6.647,2.094-5.443,9.213-6.866" transform="translate(143.347 0)" fill="#6e8e5b"/>
        <path id="Trazado_124990" data-name="Trazado 124990" d="M97.9,72.478c2.263.092,2.422-13.577-1.068-20.766S87.34,40.753,84.269,41.033s-1.4,2.931-4.746,3.21-6.84-1.117-9.214,3.49S71.3,59.18,75.828,61s8.022,2.373,10.256,4.746S94.2,72.327,97.9,72.478" transform="translate(107.223 0)" fill="#6e8e5b"/>
        <path id="Trazado_124991" data-name="Trazado 124991" d="M84.856,68.594l.585-.061c-.483-4.621-8.489-15.748-13.457-20.562l-.409.423c4.794,4.645,12.818,15.776,13.281,20.2" transform="translate(119.271 0)" fill="#5e7f33"/>
        <path id="Trazado_124992" data-name="Trazado 124992" d="M81.688,100.254l.581-.1c-.9-5.32-4.518-9.806-7.39-12.633a37.287,37.287,0,0,0-9.952-7.084l-.239.538c4.651,2.068,15.389,9.792,17,19.277" transform="translate(129.33 0)" fill="#4c6040"/>
        <path id="Trazado_124993" data-name="Trazado 124993" d="M211.006,218.643c2.109-.49,9.62-1.308,12.132-1.766-1.222,3.114-2.945,8.91-3.068,9.389-.639,2.478-.211,4.4,1.547,6.013a25.549,25.549,0,0,0,7.372,4.663c4.083,1.682,7.446,2.4,8.407,4.564.92,2.07.24,2.4-.481,2.642s-27.125.723-29.767-.718c-2.149-1.172-2.306-3.4-.558-8.1,2.012-5.4,1.4-4.988,4.416-16.689" transform="translate(-166.949 0)" fill="#e4906b"/>
        <path id="Trazado_124994" data-name="Trazado 124994" d="M207.015,234.169a5.173,5.173,0,0,0,3.1.338c1.8-.437,2.55-2.13,3.45-3.557a4.605,4.605,0,0,1,2.018-1.885,4.767,4.767,0,0,1,2.814-.227,7.272,7.272,0,0,1,1.495.491,5.291,5.291,0,0,0,1.728,2.95,25.552,25.552,0,0,0,7.372,4.664c4.083,1.681,7.446,2.4,8.407,4.563.92,2.071.24,2.4-.481,2.642s-27.125.724-29.767-.718c-2.149-1.172-2.306-3.4-.558-8.1.157-.42.3-.805.425-1.163" transform="translate(-166.949 0)" fill="#6f97ca"/>
        <path id="Trazado_124995" data-name="Trazado 124995" d="M227.6,236.8c1.626,1.29,3.362,2.437,5.033,3.666,1.749,1.285,3.473,2.6,5.208,3.906-5.511-.1-10.39-.368-11.449-.945-2.141-1.167-2.3-3.389-.579-8.04.6.464,1.191.94,1.787,1.413" transform="translate(-186.193 0)" fill="#507ca9"/>
        <path id="Trazado_124996" data-name="Trazado 124996" d="M237.9,243.165s-10.667-.061-14.571-.061-8.4,0-9.518-.186-1.673-1.3-3.253-1.673a40.4,40.4,0,0,0-5.1-.534,10.4,10.4,0,0,0,.049,2.579c.218.554,1.423.823,6.651,1.05s20.521.26,21.941.2c2.619-.116,3.752-.163,3.805-1.373" transform="translate(-167.014 0)" fill="#fff"/>
        <path id="Trazado_124997" data-name="Trazado 124997" d="M229.648,241.245c1.58.372,2.138,1.487,3.254,1.673a29.184,29.184,0,0,0,3.116.154q.877.663,1.757,1.324l.129.1c-2.687-.035-5.113-.086-6.66-.153-5.228-.227-6.433-.5-6.651-1.05a10.44,10.44,0,0,1-.048-2.579,40.372,40.372,0,0,1,5.1.534" transform="translate(-186.099 0)" fill="#e3e8ea"/>
        <path id="Trazado_124998" data-name="Trazado 124998" d="M232.236,222.714c2.109-.49,2.476-.884,4.6-1.328,2.488-.52,4.941-1.41,7.452-1.868a45.577,45.577,0,0,0-.18,6.321c.269,2.544,2.274,4.825,4.032,6.44a25.552,25.552,0,0,0,7.372,4.664c4.083,1.681,7.446,2.4,8.406,4.563.92,2.071.241,2.4-.48,2.642s-28.66.758-31.3-.683c-2.149-1.172-1.486-3.518-.757-8.472.64-4.343,1-2.961.859-12.279" transform="translate(-218.75 0)" fill="#e4906b"/>
        <path id="Trazado_124999" data-name="Trazado 124999" d="M231.654,233.322c.634.523,3.389,3.521,7.355,3.688.907.038,3.031-.3,3.62-.97a4.725,4.725,0,0,0,.96-2.805,4.663,4.663,0,0,1,.8-2.54,2.072,2.072,0,0,1,1.581-.74,19.01,19.01,0,0,0,2.169,2.324,25.571,25.571,0,0,0,7.372,4.663c4.083,1.682,7.446,2.4,8.407,4.564.92,2.07.24,2.4-.481,2.642s-28.659.757-31.3-.684c-2.15-1.172-1.487-3.517-.757-8.471.1-.675.192-1.211.277-1.671" transform="translate(-218.749 0)" fill="#6f97ca"/>
        <path id="Trazado_125000" data-name="Trazado 125000" d="M206.411,92.059s1.125,34.666-.162,62.039-2.143,61.054-.856,73.269c0,0,1.071.858,6,0s12.857-1.9,13.714-5.236,5.438-60.512,8.046-83.3c0,0,11.52,19.394,13.234,25.013s-10.35,55.134-10.35,55.134a51.922,51.922,0,0,0,13.021,6.858c6.695,2.143,6.909-4.165,9.695-12.644s11.183-39.126,11.612-50.89S242.253,91.27,242.253,91.27s-26.465-6.329-35.842.789" transform="translate(-198.84 0)" fill="#6c4e4e"/>
        <path id="Trazado_125001" data-name="Trazado 125001" d="M254.745,109.111a38.4,38.4,0,0,0,6.472-9.312c.234-.473.94-.058.707.413a39.115,39.115,0,0,1-6.6,9.479c-.362.385-.941-.2-.579-.58" transform="translate(-240.314 0)" fill="#493333"/>
        <path id="Trazado_125002" data-name="Trazado 125002" d="M221.091,125.524q4.28,5.826,8.243,11.873,3.942,6.02,7.559,12.244,2.049,3.528,3.991,7.116c.167.309-.3.585-.472.276q-3.439-6.355-7.217-12.523-3.759-6.133-7.844-12.062-2.316-3.36-4.732-6.648c-.208-.283.266-.557.472-.276" transform="translate(-185.2 0)" fill="#493333"/>
        <path id="Trazado_125003" data-name="Trazado 125003" d="M219.468,216.978q3.9-12.207,7.79-24.415,1.947-6.1,3.895-12.207a42.36,42.36,0,0,0,1.639-5.98,12.828,12.828,0,0,0,.149-3.149,6.684,6.684,0,0,1-.111-2.4,1.582,1.582,0,0,1,.689-.9c.4-.255.894-.375,1.046-.88.27-.891-.444-1.737-.906-2.415a2.459,2.459,0,0,1-.529-2.344,1.322,1.322,0,0,1,1.733-.842c.32.145.043.616-.275.472a.7.7,0,0,0-.817.333,1.225,1.225,0,0,0-.168,1.113,18,18,0,0,0,1.27,2.155,2.243,2.243,0,0,1,.092,1.982c-.373.684-1.384.706-1.608,1.476a7.042,7.042,0,0,0,.14,2.385,13.239,13.239,0,0,1-.138,2.909,37.5,37.5,0,0,1-1.555,5.847l-7.542,23.635q-2.133,6.689-4.267,13.376c-.107.334-.634.191-.527-.145" transform="translate(-178.326 0)" fill="#493333"/>
        <path id="Trazado_125004" data-name="Trazado 125004" d="M241.084,135.421q.624-7.944.986-15.905.2-4.47.324-8.945a.547.547,0,0,1,1.093,0q-.216,7.965-.692,15.92t-1.216,15.889q-.414,4.456-.912,8.905a.561.561,0,0,1-.546.546.549.549,0,0,1-.546-.546q.884-7.92,1.509-15.864" transform="translate(-206.773 0)" fill="#d8b69e"/>
        <path id="Trazado_125005" data-name="Trazado 125005" d="M264.339,243.446s-11.629-.028-15.533-.028a44,44,0,0,1-7.112-.426c-1.115-.186-1.673-1.3-3.254-1.673s-7.711-.186-7.711-.186a12.43,12.43,0,0,0,.251,2.471c.218.554,1.423.823,6.651,1.05s21.482.222,22.9.165,3.582-.191,3.8-1.373" transform="translate(-218.781 0)" fill="#fff"/>
        <path id="Trazado_125006" data-name="Trazado 125006" d="M257.858,32.691a60.833,60.833,0,0,0-9.389-3.56c-6.647-2.088-9.15-2.132-9.15-2.132l-6.68,3.384s3.7,14.138,5.418,15.765,4.229,5.9,10.783,5.67,7.159,3.347,9.018-2.789,1.487-15.013,0-16.338" transform="translate(-215.469 0)" fill="#e3e8ea"/>
        <path id="Trazado_125007" data-name="Trazado 125007" d="M229.641,37.69s-.229-1.321,5.011-3.791c5.167-2.434,7.485-3.516,7.485-3.516S250.769,48.3,258.705,48.5s8.651-15.81,8.651-15.81,6.477,2.645,8.176,5,0,19.494,0,19.494-1.273,10.3-2.782,17.647a21.984,21.984,0,0,0-.671,4.537,29.319,29.319,0,0,0,.818,3.253A102.179,102.179,0,0,1,274.279,93.9c.093,1.929-1.407,5.451-1.969,5.691-7.357,3.147-22.063,1.494-29.605-.046-6.852-1.4-9.584-1.31-10.1-1.633S229.7,85.385,230.818,82.2a9.621,9.621,0,0,0,.451-2.255,6.455,6.455,0,0,1-2.407-1.956c-1.14-1.955-3.893-5.335-3.895-10.167-.006-18.173,4.674-30.131,4.674-30.131" transform="translate(-224.967 0)" fill="#b2a978"/>
        <path id="Trazado_125008" data-name="Trazado 125008" d="M231.433,90.491c2.226-.088,4.136,1.513,6.194,2.254,2.222.8,4.612.378,6.862,1,1.141.315,2.123,1.1,3.242,1.471a15.241,15.241,0,0,0,3.578.515,45.209,45.209,0,0,0,7.267,0,51.67,51.67,0,0,0,8.151-1.367c.217-.054.265.372.05.432a44.589,44.589,0,0,1-14.322,1.54c-1.227-.065-2.455-.166-3.671-.348a10.683,10.683,0,0,1-3.177-1.253c-2.206-1.1-4.664-.671-6.978-1.153-2.507-.521-4.649-2.525-7.245-2.575-.258-.005-.2-.506.049-.516" transform="translate(-221.845 0)" fill="#968a54"/>
        <path id="Trazado_125009" data-name="Trazado 125009" d="M270.739,88.662s-13.881.681-25.5-1.663c-5.814-1.172-9.445-1.942-11.622-2.418a7.287,7.287,0,0,1,.3-2.381,9.591,9.591,0,0,0,.451-2.255s12.816,5.5,24.107,7.054c7.8,1.076,12.265,1.663,12.265,1.663" transform="translate(-228.065 0)" fill="#123a35"/>
        <path id="Trazado_125010" data-name="Trazado 125010" d="M259.361,34.97a41.979,41.979,0,0,1,9.777,9.293c.213.28-.261.552-.472.276a41.738,41.738,0,0,0-9.823-9.26c.163-.1.333-.2.518-.309" transform="translate(-251.748 0)" fill="#968a54"/>
        <path id="Trazado_125011" data-name="Trazado 125011" d="M225.968,44.157a39.194,39.194,0,0,1,4.945-7.118q.2.2.372.393a39.528,39.528,0,0,0-4.845,7,.274.274,0,0,1-.472-.276" transform="translate(-180.926 0)" fill="#968a54"/>
        <path id="Trazado_125012" data-name="Trazado 125012" d="M198.086,72.087s-.285-7.923.665-12.088c1.889-8.285,6.676-21.13,7.006-18.165s1.483,22.98,1.821,25.032c.16.979.284,1.805.38,2.5,7.241.4,16.594.6,21.961-.568l2.76,12.971S213.858,85.958,205.527,87s-7.441-14.912-7.441-14.912" transform="translate(-154.438 0)" fill="#b2a978"/>
        <path id="Trazado_125013" data-name="Trazado 125013" d="M216.439,68.266q5.235.4,10.486.467a.412.412,0,0,1,.348.463.422.422,0,0,1-.464.348q-5.25-.066-10.486-.467c-.526-.04-.408-.851.116-.811" transform="translate(-166.971 0)" fill="#493333"/>
        <path id="Trazado_125014" data-name="Trazado 125014" d="M228.956,69.938a34.955,34.955,0,0,1,.629-6.384c.305-2.175.5-4.367.593-6.562a70.168,70.168,0,0,0-.076-7.367c-.033-.527.786-.525.819,0A69.77,69.77,0,0,1,230.48,63a42.832,42.832,0,0,0-.717,6.577c.051,2.035.45,4.038.667,6.056a12.608,12.608,0,0,1-.679,6.462c-.209.483-.915.066-.707-.413a11.554,11.554,0,0,0,.6-5.748c-.2-2-.6-3.983-.686-6" transform="translate(-183.715 0)" fill="#968a54"/>
        <path id="Trazado_125015" data-name="Trazado 125015" d="M196.534,76.246s.92,5.565,2.629,5.521,1.753-6.354,1.183-7.887-3.812,2.366-3.812,2.366" transform="translate(-120.921 0)" fill="#123a35"/>
        <path id="Trazado_125016" data-name="Trazado 125016" d="M185.8,67.721s1.522-2.023,1.31-2.977c-.277-1.25-3.621.991-4.7,1.506s-3.123,2.03-4.21,2.546.132,7.45.132,7.45c6.836.175,9.92-2.272,11.122-2.215s9.66-.908,10.118-1.881,1.888-.471,1.659-1.523-1.085-1.514-3.03-1.749c-1.04-1.575-12.4-1.157-12.4-1.157" transform="translate(-102.72 0)" fill="#e4906b"/>
        <path id="Trazado_125017" data-name="Trazado 125017" d="M182.933,72.06c.237-.112.478-.21.721-.3a5.756,5.756,0,0,0,.4-2.269c-.019-.23-.015-.4.2-.392.263.012.255.2.285.448a6.149,6.149,0,0,1,.089,1.92,12.9,12.9,0,0,1,3.87-.305c.955.057,1.9.182,2.85.324a1.639,1.639,0,0,1,1.1.436c.279.332-.014,1.269-.295,1.243-.243-.023.09-.578-.375-.784a5.582,5.582,0,0,0-1.724-.294c-.742-.086-1.7-.068-2.444-.075a10.478,10.478,0,0,0-3.365.469.419.419,0,0,1-.208.072c-.221.08-.441.166-.655.268-.51.241-.958-.519-.445-.761" transform="translate(-98.976 0)" fill="#d9805c"/>
        <path id="Trazado_125018" data-name="Trazado 125018" d="M192.537,71.217a3.685,3.685,0,0,0,2.143-2.695,1.682,1.682,0,0,1,1.024-1.267c.268-.088.64-.077.839-.287a5.047,5.047,0,0,0,.618-.716c.3-.482.606-.209.309.277-.32.524-.542,1.18-1.123,1.437-.265.118-.523.113-.669.389a6.4,6.4,0,0,0-.29.825,4.282,4.282,0,0,1-2.617,2.886.441.441,0,0,1-.234-.849" transform="translate(-113.532 0)" fill="#d9805c"/>
        <path id="Trazado_125019" data-name="Trazado 125019" d="M221.482,11.94c1.236-6.926,4.854-9.14,6.3-9.118a5.482,5.482,0,0,1-.072-2.513c.074-.359.624-.207.549.151a4.866,4.866,0,0,0,.02,2.025c.163-.615.756-1.715,2.9-2.291,3.074-.827,4.7,1.211,6.475,1.856s5.438,1,7.8,4.072-.677,7.846.524,10.381-3.375,5.552-5.385,3.238c-1.252-1.443-4.337-4.013-7-6.44-3.439,4.263-10.922,7.308-11.519,6.778-.793-.7-1.367-3.778-.589-8.139" transform="translate(-191.203 0)" fill="#84292c"/>
        <path id="Trazado_125020" data-name="Trazado 125020" d="M247.523,15.484s-4.752,7.332-9.1,11.541c0,0,4.537,6.3,8.5,9.677l.732-4.067,4.752-8.449Z" transform="translate(-214.55 0)" fill="#e4906b"/>
        <path id="Trazado_125021" data-name="Trazado 125021" d="M240.425,30.961A9.782,9.782,0,0,1,238.72,27.6a8.83,8.83,0,0,1-.119-4.016,25.739,25.739,0,0,1,1.408-4.551c.368-.966.788-1.934,1.112-2.926l4.539,8.08-4.346,7.728a7.847,7.847,0,0,1-.889-.953" transform="translate(-207.8 0)" fill="#1a1a1a"/>
        <path id="Trazado_125022" data-name="Trazado 125022" d="M245.386,18.658c-.647,1.19-2.914,7.877-7.125,10.318a9.718,9.718,0,0,1-7.951.612c-5.091-2.377-5.662-7.745-4.479-11.863,0,0-3.263-4.275.553-6.792,2.6-1.714,3.767,2.783,3.767,2.783s.442,3.4,6.292-2.077c6.331.512,9.328-2.95,8.943,1.641a21.876,21.876,0,0,0,0,5.378" transform="translate(-193.664 0)" fill="#e4906b"/>
        <path id="Trazado_125023" data-name="Trazado 125023" d="M227.921,22.51a.949.949,0,0,1,.554-.565.808.808,0,0,1,.207-.047.372.372,0,0,1,.1,0,.313.313,0,0,1,.225.16c0,.007.008.016.013.024a.467.467,0,0,1,.186.313.618.618,0,0,1-.092.384.858.858,0,0,1-.388.532.646.646,0,0,1-.331.074c-.015,0-.03,0-.045,0a.5.5,0,0,1-.38-.235.565.565,0,0,1-.078-.252.725.725,0,0,1,.029-.389" transform="translate(-180.801 0)" fill="#1a1a1a"/>
        <path id="Trazado_125024" data-name="Trazado 125024" d="M234.836,17.137a.8.8,0,0,1,.654-.15.606.606,0,0,1,.363.559,1.148,1.148,0,0,1-.119.685c-.008.013-.018.025-.027.038a.885.885,0,0,1-.076.166.526.526,0,0,1-.061.092l-.018.022a.5.5,0,0,1-.048.044.752.752,0,0,1-.087.082.562.562,0,0,1-.394.1.643.643,0,0,1-.554-.186.846.846,0,0,1-.226-.529,1.055,1.055,0,0,1,.593-.923" transform="translate(-193.815 0)" fill="#1a1a1a"/>
        <path id="Trazado_125025" data-name="Trazado 125025" d="M231.959,13.764a.441.441,0,0,1,.526-.3l2.717.48a.429.429,0,0,1,.3.525.439.439,0,0,1-.526.3l-2.717-.479a.43.43,0,0,1-.3-.526" transform="translate(-191.173 0)" fill="#84292c"/>
        <path id="Trazado_125026" data-name="Trazado 125026" d="M225.9,19.223a.435.435,0,0,1,.585.153l.912,1.7a.428.428,0,0,1-.738.432l-.912-1.7a.434.434,0,0,1,.153-.585" transform="translate(-176.857 0)" fill="#84292c"/>
        <path id="Trazado_125027" data-name="Trazado 125027" d="M232.878,23.936a.369.369,0,0,1,.164-.213.363.363,0,0,1,.275-.036l.77.239a.375.375,0,0,1,.213.164.366.366,0,0,1,.035.275.356.356,0,0,1-.438.248l-.769-.239a.375.375,0,0,1-.213-.163.363.363,0,0,1-.037-.275" transform="translate(-190.926 0)" fill="#ce5c48"/>
        <path id="Trazado_125028" data-name="Trazado 125028" d="M239.612,27.5l-4.419-3.934s-1.38,2.108-.614,3.28a2.543,2.543,0,0,0,2.328,1.081,6.157,6.157,0,0,0,2.705-.427" transform="translate(-197.672 0)" fill="#fff"/>
        <path id="Trazado_125029" data-name="Trazado 125029" d="M242.522,29.5l.728-.369a41.834,41.834,0,0,0,6.087,9.246q1.17,1.344,2.451,2.583a24.646,24.646,0,0,1,3.281-4.2.412.412,0,0,1,.684.181q.985,5.306,1.619,10.666c.062.523-.758.518-.819,0q-.576-4.863-1.454-9.683a23.7,23.7,0,0,0-2.875,3.889.414.414,0,0,1-.643.083,42.72,42.72,0,0,1-8.76-11.787c-.1-.2-.2-.408-.3-.613" transform="translate(-223.61 0)" fill="#a8b9cb"/>
        <path id="Trazado_125030" data-name="Trazado 125030" d="M238.058,36.987l1.88,2.532a24.658,24.658,0,0,0,2.8-8.557.257.257,0,0,1,.007-.04c.276.1.538.205.785.3-.322,3.3-1.744,6.332-3.167,9.288a.414.414,0,0,1-.707,0L237.351,37.4c-.315-.423.4-.832.707-.413" transform="translate(-204.519 0)" fill="#a8b9cb"/>
        <path id="Trazado_125031" data-name="Trazado 125031" d="M229.581,83.845s-.532,4.1.738,4.756,3.469-4.143,3.162-6.114-3.9,1.358-3.9,1.358" transform="translate(-186.694 0)" fill="#123a35"/>
        <path id="Trazado_125032" data-name="Trazado 125032" d="M210.324,83.845a16.416,16.416,0,0,1,.24-6.479c.786-3.124,5.276-2.138,7.089-1.85s3.488.737,5.65.2c1.692-.423,1.814.971,1.19,1.885,0,0,1.6.146,4.811.52s4.072.932,3.849,1.839.526.317.456,1.294-8.118,2.525-10.859,2.4a121.209,121.209,0,0,0-12.426.193" transform="translate(-167.437 0)" fill="#e4906b"/>
        <path id="Trazado_125033" data-name="Trazado 125033" d="M219.6,78.648a10.453,10.453,0,0,1,3.609-.422,5.463,5.463,0,0,0,3.176-.785c.43-.307.84.4.414.707-2.073,1.479-4.732.429-6.981,1.29-.493.189-.706-.6-.218-.79" transform="translate(-170.006 0)" fill="#d9805c"/>
        <path id="Trazado_125034" data-name="Trazado 125034" d="M231.768,64.908q3.225,1.459,6.531,2.727-.678-7.937-1.939-15.806c-.083-.516.707-.738.79-.218q1.3,8.118,1.994,16.319c0,.01,0,.018,0,.027q2.374.893,4.784,1.687A122.792,122.792,0,0,0,256.5,73.058q3.606.777,7.253,1.335c.52.08.3.87-.217.79A123.125,123.125,0,0,1,250.659,72.5a122.851,122.851,0,0,1-12.46-4.024q-3.463-1.326-6.844-2.858c-.48-.217-.064-.923.413-.707" transform="translate(-218.907 0)" fill="#968a54"/>
        <line id="Línea_202" data-name="Línea 202" x1="118.988" transform="translate(75.03 207.214)" fill="none" stroke="#d8b69e" stroke-miterlimit="10" stroke-width="1"/>
        <path id="Trazado_125035" data-name="Trazado 125035" d="M80.838,202.414c1.6.7,8.286,4.706,9.836,4.8s-6.14,4.287-8.412,5.86" transform="translate(104.572 0)" fill="none" stroke="#d8b69e" stroke-miterlimit="10" stroke-width="1"/>
        <path id="Trazado_125036" data-name="Trazado 125036" d="M202.227,213.074c-1.6-.7-8.285-4.706-9.835-4.8s6.14-4.287,8.412-5.86" transform="translate(-118.127 0)" fill="none" stroke="#d8b69e" stroke-miterlimit="10" stroke-width="1"/>
      </g>
    </g>
  </g>
</svg>
