<svg id="Grupo_88126" data-name="Grupo 88126" xmlns="http://www.w3.org/2000/svg" xmlns:xlink="http://www.w3.org/1999/xlink" width="82.5" height="74.013" viewBox="0 0 82.5 74.013">
  <defs>
    <clipPath id="clip-path">
      <rect id="Rectángulo_35979" data-name="Rectángulo 35979" width="82.5" height="74.013" fill="none"/>
    </clipPath>
  </defs>
  <g id="Grupo_88122" data-name="Grupo 88122" clip-path="url(#clip-path)">
    <path id="Trazado_124935" data-name="Trazado 124935" d="M36.826,240.772c0-.663,3.592-1.2,8.023-1.2s8.023.537,8.023,1.2a.257.257,0,0,1-.087.176l.1.089c-.264.291-1.278.533-3.013.721-1.339.145-3.074.251-4.761.29l0-.078h-.258c-1.621,0-3.129-.072-4.391-.2l-.006.078a16.28,16.28,0,0,1-3.3-.659l.025-.073c-.224-.11-.345-.228-.345-.349" transform="translate(18.621 -168.035)" fill="#70492a"/>
    <path id="Trazado_124936" data-name="Trazado 124936" d="M62.335,77.787C62.053,79.546,61,88.8,60.893,90.551s-.163,3.51-.173,5.27c-.005.88.008,1.761.053,2.648l.083,1.313.071,1.309c.087,1.747.156,3.5.218,5.247s.116,3.5.16,5.251c.021.874.042,1.751.048,2.618l-.021,2.617-.088,10.523,1.171,0-.088-10.507-.023-2.641c-.021-.885-.056-1.76-.092-2.637q-.111-2.63-.248-5.257c-.092-1.752-.19-3.5-.307-5.255l-.093-1.314-.1-1.309c-.059-.863-.087-1.735-.1-2.607-.019-1.745.016-3.494.085-5.24s.951-11.083,1.2-12.791Z" transform="translate(1.725 -54.56)" fill="#424e2a"/>
    <path id="Trazado_124937" data-name="Trazado 124937" d="M41.295,140.884l-.559.422-.279.211-.265.229-.528.46-.5.492-.249.247-.234.261-.465.524c-.286.369-.592.723-.853,1.111a19.744,19.744,0,0,0-1.467,2.382,22.529,22.529,0,0,0-1.153,2.548,24.575,24.575,0,0,0-.854,2.665c-.231.9-.42,1.813-.611,2.72s-.373,1.815-.582,2.712c-.1.448-.215.9-.348,1.33a6.612,6.612,0,0,1-.221.635,2.1,2.1,0,0,1-.136.288.882.882,0,0,1-.076.125c-.027.03-.053.062-.078.094l.31.352c.05-.056.1-.113.146-.172a1.281,1.281,0,0,0,.1-.171,2.532,2.532,0,0,0,.158-.341,7.045,7.045,0,0,0,.229-.679c.133-.453.24-.907.341-1.362.2-.909.376-1.82.555-2.728s.36-1.816.578-2.709a24.217,24.217,0,0,1,.814-2.634,22.194,22.194,0,0,1,1.11-2.524,19.4,19.4,0,0,1,1.42-2.361c.253-.385.55-.736.827-1.1l.452-.52.227-.259.242-.245.485-.489.515-.458.259-.228.273-.211.546-.421Z" transform="translate(31.562 -98.816)" fill="#424e2a"/>
    <path id="Trazado_124938" data-name="Trazado 124938" d="M71.395,153.568a20.16,20.16,0,0,0-1.435-4.274c-.6-1.365-1.291-2.683-2.02-3.977s-1.511-2.558-2.354-3.781l-.648-.907c-.228-.294-.449-.593-.684-.882s-.468-.579-.736-.843c-.132-.133-.254-.275-.395-.4l-.432-.369-.141.187.4.362c.131.124.248.267.373.4.254.262.467.564.7.846s.434.593.652.889l.618.915c.8,1.234,1.543,2.51,2.234,3.81s1.337,2.624,1.892,3.982a19.6,19.6,0,0,1,1.28,4.153Z" transform="translate(-7.572 -96.888)" fill="#424e2a"/>
    <path id="Trazado_124939" data-name="Trazado 124939" d="M57.14,174.364a23.025,23.025,0,0,1,1.894-5l-.3-.184a22.906,22.906,0,0,0-1.935,5.093Z" transform="translate(6.506 -118.666)" fill="#424e2a"/>
    <path id="Trazado_124940" data-name="Trazado 124940" d="M48.473,131.836A12.222,12.222,0,0,0,50.432,126c0-1.5-.583-5.044-3.585-5.252s-3.46,2.751-3.627,3.668a7.5,7.5,0,0,0,1.251,4.043c.5.333,1.167.375,1.334.667s.042.917.166,1.209.9.167.845.667.031,1.084.281,1.125a7.005,7.005,0,0,0,1.375-.292" transform="translate(19.167 -84.685)" fill="#424e2a"/>
    <path id="Trazado_124941" data-name="Trazado 124941" d="M52.47,136.679c.5-3.146-.49-8.645-.5-8.7l-.173.032c.01.055.992,5.524.5,8.641Z" transform="translate(14.424 -89.764)" fill="#353d22"/>
    <path id="Trazado_124942" data-name="Trazado 124942" d="M111.754,138.489c.549.777.459,5.544-.709,6.67s-1.5.417-2.042.625a1.9,1.9,0,0,1-2.084-.709c-.459-.75-1.793-1.167-1.334-3.377s3.751-6.628,6.169-3.21" transform="translate(-61.079 -96.256)" fill="#424e2a"/>
    <path id="Trazado_124943" data-name="Trazado 124943" d="M86.059,111.6c1.376-1.417,3.126-3.752,3.418-5.752s-.75-3.335-1.417-3.46-.979-1.706-2.918-2.084a2.975,2.975,0,0,0-2.334.334,3.18,3.18,0,0,0-3.251,1,5.172,5.172,0,0,0-1.125,5c.333,1,3.376,5.2,4.418,5.395a10.117,10.117,0,0,0,3.21-.434" transform="translate(-30.382 -70.283)" fill="#5b754b"/>
    <path id="Trazado_124944" data-name="Trazado 124944" d="M95.836,119.292l.04-.171c-.005,0-.638-.191-.6-1.871a13.535,13.535,0,0,0-.71-3.52A11.243,11.243,0,0,1,93.985,111l-.176-.005a11.3,11.3,0,0,0,.589,2.786,13.444,13.444,0,0,1,.7,3.467c-.043,1.842.7,2.039.735,2.047" transform="translate(-41.388 -77.85)" fill="#4c6040"/>
    <path id="Trazado_124945" data-name="Trazado 124945" d="M89.388,114.36a10.19,10.19,0,0,0,2.654-2.727l-.146-.1a10.24,10.24,0,0,1-2.593,2.671Z" transform="translate(-36.208 -78.23)" fill="#4c6040"/>
    <path id="Trazado_124946" data-name="Trazado 124946" d="M101.375,117.1l.017-.175c-1.333-.131-3.341-2.071-3.361-2.091l-.123.126c.084.082,2.073,2,3.467,2.14" transform="translate(-48.128 -80.548)" fill="#4c6040"/>
    <path id="Trazado_124947" data-name="Trazado 124947" d="M86.956,123.422a5,5,0,0,0,2.307-2l-.157-.079a4.856,4.856,0,0,1-2.195,1.914Z" transform="translate(-32.715 -85.106)" fill="#4c6040"/>
    <path id="Trazado_124948" data-name="Trazado 124948" d="M103.184,123.43l.03-.173c-1.036-.181-3.261-1.064-3.645-1.91l-.16.073c.44.97,2.846,1.848,3.775,2.009" transform="translate(-50.398 -85.113)" fill="#4c6040"/>
    <path id="Trazado_124949" data-name="Trazado 124949" d="M34.044,121.7a15.577,15.577,0,0,0,2.126-7.5c-.083-1.916-1-1.875-1.292-1.875s-.375-.583-1.167-.625a1.679,1.679,0,0,0-1.626,1.349c-.167.735.083,1.235-.25,1.568a2.684,2.684,0,0,0-.792,1.959,12.575,12.575,0,0,0,1.834,3.835,11.208,11.208,0,0,0,1.167,1.292" transform="translate(37.056 -78.341)" fill="#5b754b"/>
    <path id="Trazado_124950" data-name="Trazado 124950" d="M37.572,125.72a24.142,24.142,0,0,0,0-7.2l-.171.039a23.862,23.862,0,0,1,0,7.113Z" transform="translate(33.489 -83.133)" fill="#4c6040"/>
    <path id="Trazado_124951" data-name="Trazado 124951" d="M69.589,82.673c-.542-.848-2.578-1.872-3.329-2.247s-1.042-1.751-2-2.209-2.126-2.209-1.334-3.627,3.5-.459,4.71.834,3.121,4.331,1.953,7.249" transform="translate(-6.165 -51.825)" fill="#5b754b"/>
    <path id="Trazado_124952" data-name="Trazado 124952" d="M0,150.378a11.2,11.2,0,0,0,4.23-.353,7.443,7.443,0,0,1,4.877.584,3.247,3.247,0,0,1,1.542,2.251c.125.5.792.959,1.084,1.5a1.332,1.332,0,0,1-.542,1.626c-.459.167-.25.875-.75,1.084s-1.209,0-1.751.584a1.836,1.836,0,0,1-2.168.25c-.583-.375-1.042-1.375-2.168-1.459s-3.65-1.5-3.91-2.668-.445-3.4-.445-3.4" transform="translate(70.664 -105.083)" fill="#5b754b"/>
    <path id="Trazado_124953" data-name="Trazado 124953" d="M17.2,158.569l.145-.1a10.97,10.97,0,0,0-4.884-3.366,20.059,20.059,0,0,1-3.752-1.494l-.1.148a20,20,0,0,0,3.8,1.515,10.743,10.743,0,0,1,4.787,3.3" transform="translate(62.578 -107.742)" fill="#4c6040"/>
    <path id="Trazado_124954" data-name="Trazado 124954" d="M35.637,99.834C37.388,98.417,39.6,96.6,43.2,96.61s-2.065-1.487-2.4-1.528-.542.542-1.084.458-.876-.75-1.959-.25-2.126,2.959-2.126,4.544" transform="translate(27.46 -66.689)" fill="#5b754b"/>
    <path id="Trazado_124955" data-name="Trazado 124955" d="M84.619,68.782a4.886,4.886,0,0,0-2.959-1.459c-1.626-.375-3.793-.834-5.211,0s-1.355,1.792-1.355,1.792a2.093,2.093,0,0,0-1.313,2.168c.125,1.667.913,2.34,1.916,2.025a32.5,32.5,0,0,0,3.17-1.4c.458-.208.667-1,1.751-1.334s4-1.793,4-1.793" transform="translate(-24.148 -46.892)" fill="#6e8e5b"/>
    <path id="Trazado_124956" data-name="Trazado 124956" d="M76.783,74.009c.721-.865,3.644-2.5,7.627-1.721l.034-.173c-4.061-.794-7.054.89-7.8,1.781Z" transform="translate(-24.831 -50.436)" fill="#5e7f33"/>
    <path id="Trazado_124957" data-name="Trazado 124957" d="M90.635,70.731l.074-.159a5.486,5.486,0,0,0-3.758-.428l.047.169a5.31,5.31,0,0,1,3.638.417" transform="translate(-34.173 -49.089)" fill="#5e7f33"/>
    <path id="Trazado_124958" data-name="Trazado 124958" d="M89.651,75.542c.012-.02,1.256-2.028,1.982-2.341l-.07-.162c-.776.335-2.009,2.326-2.062,2.411Z" transform="translate(-35.857 -51.229)" fill="#5e7f33"/>
    <path id="Trazado_124959" data-name="Trazado 124959" d="M97.128,78.815A4.334,4.334,0,0,1,98.334,77.2l-.114-.134a4.493,4.493,0,0,0-1.251,1.676Z" transform="translate(-44.789 -54.053)" fill="#5e7f33"/>
    <path id="Trazado_124960" data-name="Trazado 124960" d="M25.864,45.874c-.334-1.316-1.5-4.442-1.125-6.151s.8-1.793,1.361-2.042c0,0-.4-1.459.223-2a3.949,3.949,0,0,1,2.626-.5c.417.125,1,.458,1.417.292s.25-1.251.959-1.751a3,3,0,0,1,2.477-.334,18.482,18.482,0,0,1,3.65,1.417c.459.334.208.709-.292.959s-3.249,1.376-3.938,2.209-2.69,2.376-3.482,3.376-3.251,4.71-3.251,4.71Z" transform="translate(37.441 -23.334)" fill="#5b754b"/>
    <path id="Trazado_124961" data-name="Trazado 124961" d="M44.241,46.853l.174-.023a5.836,5.836,0,0,1,1.115-3.736L45.381,43a5.993,5.993,0,0,0-1.14,3.851" transform="translate(23.769 -30.162)" fill="#4c6040"/>
    <path id="Trazado_124962" data-name="Trazado 124962" d="M57.579,56.99l.175-.013a38.893,38.893,0,0,1,.25-4.9l-.174-.022a39.226,39.226,0,0,0-.251,4.936" transform="translate(7.306 -36.511)" fill="#4c6040"/>
    <path id="Trazado_124963" data-name="Trazado 124963" d="M34.59,151.235a2.11,2.11,0,0,1,2.543-.458c.959.542.25,1.591.75,1.755a3.062,3.062,0,0,1,1.667,2.455A2.961,2.961,0,0,1,37.8,157.7c-1.125.542-1.089,1.126-4.171.75s-4.958-.959-5.166-3.168.083-2.71,1.667-3.293,2.349-2.164,2.88-2.164c.65,0,1.58,1.414,1.58,1.414" transform="translate(34.468 -105.084)" fill="#6e8e5b"/>
    <path id="Trazado_124964" data-name="Trazado 124964" d="M43.7,162.128c.882-1.022,1.223-4.542.8-6.248l-.171.042c.416,1.67.093,5.1-.761,6.091Z" transform="translate(24.814 -109.334)" fill="#5e7f33"/>
    <path id="Trazado_124965" data-name="Trazado 124965" d="M78.608,144.428c.626.1,1.338-.917,2.88-.709s3.293,1.5,2.543,4.294a4.977,4.977,0,0,1-3.418,3.876c-.917.25-1.542-.709-2.334-.583a3.848,3.848,0,0,1-2.21.208,4.172,4.172,0,0,1-2.883-4.377,3.537,3.537,0,0,1,2.883-3.446c1.209-.334,2.036.653,2.54.737" transform="translate(-23.56 -100.736)" fill="#5b754b"/>
    <path id="Trazado_124966" data-name="Trazado 124966" d="M91.476,153.521l.176,0c-.007-.332-.017-.681-.028-1.036-.058-1.881-.124-4.012.426-4.833l-.146-.1c-.582.868-.515,3.029-.456,4.936.011.354.022.7.028,1.034" transform="translate(-36.845 -103.492)" fill="#4c6040"/>
    <path id="Trazado_124967" data-name="Trazado 124967" d="M84.44,149.326l.113-.135a4.251,4.251,0,0,0-2.733-.956l.017.175a4.048,4.048,0,0,1,2.6.916" transform="translate(-26.485 -103.964)" fill="#4c6040"/>
    <path id="Trazado_124968" data-name="Trazado 124968" d="M84.141,156.91l.161-.071a3.694,3.694,0,0,0-3.26-1.761l.016.175a3.483,3.483,0,0,1,3.084,1.657" transform="translate(-26.002 -108.764)" fill="#4c6040"/>
    <path id="Trazado_124969" data-name="Trazado 124969" d="M93.37,149.465a2.865,2.865,0,0,1,2.863-1.106l.013-.175a3.041,3.041,0,0,0-3.007,1.165Z" transform="translate(-41.586 -103.923)" fill="#4c6040"/>
    <path id="Trazado_124970" data-name="Trazado 124970" d="M94.879,157.312a2.564,2.564,0,0,1,2.583-2.071l0-.176h-.054a2.732,2.732,0,0,0-2.7,2.2Z" transform="translate(-43.245 -108.762)" fill="#4c6040"/>
    <path id="Trazado_124971" data-name="Trazado 124971" d="M103.986,133c-.625-1.542-3.043-3.146-4.335-2.979a33.559,33.559,0,0,1-4.96-.458c-.876-.042-1.376.5-1.793.542s-.834-.5-1.376.125a3.913,3.913,0,0,1-1.834,1.417c-1.376.709-1.292,2.71-.75,3.793a2.354,2.354,0,0,0,2.584,1.376c.875-.271,1.417-.667,2.126-.459s1.508.7,3.376-.576c1.833-1.247.452-2.983,6.961-2.781" transform="translate(-47.934 -90.873)" fill="#6e8e5b"/>
    <path id="Trazado_124972" data-name="Trazado 124972" d="M90.948,138.9c1.669-.728,7.663-2.139,11.909-1.156l.04-.171c-4.287-.993-10.334.432-12.018,1.167Z" transform="translate(-47.533 -96.257)" fill="#5e7f33"/>
    <path id="Trazado_124973" data-name="Trazado 124973" d="M105.52,134.369l.1-.141a9.263,9.263,0,0,0-2.321-1.179c-.117-.045-.226-.086-.325-.126l-.065.163c.1.04.209.082.327.127a9.125,9.125,0,0,1,2.279,1.156" transform="translate(-53.855 -93.232)" fill="#5e7f33"/>
    <path id="Trazado_124974" data-name="Trazado 124974" d="M119.66,134.358l.124-.125a6.609,6.609,0,0,0-2.326-1.314l-.058.166a6.433,6.433,0,0,1,2.26,1.272" transform="translate(-72.339 -93.229)" fill="#5e7f33"/>
    <path id="Trazado_124975" data-name="Trazado 124975" d="M107.51,141.359c.083-.089.18-.2.291-.332a6.306,6.306,0,0,1,2.374-1.939l-.062-.164a6.445,6.445,0,0,0-2.446,1.989c-.109.127-.2.239-.286.326Z" transform="translate(-59.74 -97.442)" fill="#5e7f33"/>
    <path id="Trazado_124976" data-name="Trazado 124976" d="M53.157,124.672a7.7,7.7,0,0,1,3.034-3.26c.716-.375.917-1.607,2.459-1.4s2.418,1.377,3.46,1.585,2.7.17,2.7,1.55-.82,1.487-.945,1.99-.167,1.4-.959,1.37-1.04-.491-2.354.217-3.315-.082-4.148-.75a12.658,12.658,0,0,0-3.243-1.305" transform="translate(1.821 -84.162)" fill="#6e8e5b"/>
    <path id="Trazado_124977" data-name="Trazado 124977" d="M69.607,128.317l.093-.149c-1.36-.85-2.9-1.81-4.68-1.661a5.929,5.929,0,0,0-3.265,1.675l.126.123a5.865,5.865,0,0,1,3.154-1.623c1.718-.145,3.17.759,4.572,1.635" transform="translate(-5.64 -88.721)" fill="#5e7f33"/>
    <path id="Trazado_124978" data-name="Trazado 124978" d="M68.83,124.591a3.2,3.2,0,0,1,1.812-.863l-.032-.173a3.3,3.3,0,0,0-1.915.924Z" transform="translate(-8.654 -86.661)" fill="#5e7f33"/>
    <path id="Trazado_124979" data-name="Trazado 124979" d="M70.2,131.7l.066-.163c-1.236-.5-2.394-1.763-2.107-3.111l-.172-.036c-.307,1.441.911,2.781,2.213,3.31" transform="translate(-8.053 -90.05)" fill="#5e7f33"/>
    <path id="Trazado_124980" data-name="Trazado 124980" d="M77.753,131.859l.024-.174a1.536,1.536,0,0,1-1.156-.754,1.6,1.6,0,0,1-.067-1.417l-.162-.068a1.773,1.773,0,0,0,.077,1.572,1.707,1.707,0,0,0,1.284.841" transform="translate(-18.045 -90.793)" fill="#5e7f33"/>
    <path id="Trazado_124981" data-name="Trazado 124981" d="M1.848,123.158c-.35-2.055-.5-4.9.583-6.1a4.7,4.7,0,0,1,3.21-1.573c.709,0,1.084-1.178,2.918-.193s1.417,1.985,1.959,2.277a2.022,2.022,0,0,1,1.209,2.009,3.763,3.763,0,0,1-1.042,3.077c-.75.625-1.209.417-1.584,1.292s-3.293.917-4.669.75S2,124.046,1.848,123.158" transform="translate(70.294 -80.593)" fill="#6e8e5b"/>
    <path id="Trazado_124982" data-name="Trazado 124982" d="M13.031,131.227a20.187,20.187,0,0,0,6.034-4.516l-.139-.107a19.979,19.979,0,0,1-5.971,4.465Z" transform="translate(59.566 -88.8)" fill="#5e7f33"/>
    <path id="Trazado_124983" data-name="Trazado 124983" d="M13.28,136.652l.01-.175a7.762,7.762,0,0,1-3.377-.737l-.094.149a7.894,7.894,0,0,0,3.46.764" transform="translate(66.277 -95.208)" fill="#5e7f33"/>
    <path id="Trazado_124984" data-name="Trazado 124984" d="M21.325,126.556l.167-.054c-.425-1.3-.146-3.079.563-3.591l-.1-.142c-.775.56-1.081,2.4-.627,3.788" transform="translate(54.14 -86.109)" fill="#5e7f33"/>
    <path id="Trazado_124985" data-name="Trazado 124985" d="M21.71,141.322v-.176c-1.1,0-2.6-.511-2.983-1.245l-.156.082c.421.8,1.963,1.338,3.139,1.338" transform="translate(55.245 -98.127)" fill="#5e7f33"/>
    <path id="Trazado_124986" data-name="Trazado 124986" d="M28.733,131.285l.163-.065a4.38,4.38,0,0,1,.408-3.253l-.147-.1a4.6,4.6,0,0,0-.425,3.416" transform="translate(44.662 -89.687)" fill="#5e7f33"/>
    <path id="Trazado_124987" data-name="Trazado 124987" d="M28.518,96.534c.969-.092-1.959,1.334-3.418,1.042a4.471,4.471,0,0,1-2.806-1.968,3.8,3.8,0,0,0-1.654-.741,5.6,5.6,0,0,1,3.293.375c2.167.75,3.71,1.376,4.585,1.292" transform="translate(47.626 -66.474)" fill="#6e8e5b"/>
    <path id="Trazado_124988" data-name="Trazado 124988" d="M37.436,85.472s.057-4.042.765-5.168,4.116-2.12,5.1-3.061,1.986.06,2.027.977-.292,2.126-1.042,2.292-.208,1.042-.792,1.417-1.8.084-2.653.334-3.206,1.028-3.406,3.208" transform="translate(25.988 -53.913)" fill="#6e8e5b"/>
    <path id="Trazado_124989" data-name="Trazado 124989" d="M55.745,68.779c1.127-.225,1.524-.881,2.876-.967s2.141-.406,2.363,1.256-.265,3-1.272,3.162-.466-.583-1.341-.458-.355.917-1.908,1.042-3.345-1.136-3.469-1.985.625-1.625,2.751-2.05" transform="translate(5.643 -47.506)" fill="#6e8e5b"/>
    <path id="Trazado_124990" data-name="Trazado 124990" d="M78,50.412c.676.027.723-4.054-.319-6.2s-2.835-3.272-3.752-3.189-.417.875-1.417.959-2.042-.334-2.751,1.042a3.175,3.175,0,0,0,1.648,3.96c1.353.542,2.4.709,3.062,1.417A7.079,7.079,0,0,0,78,50.412" transform="translate(-16.749 -28.77)" fill="#6e8e5b"/>
    <path id="Trazado_124991" data-name="Trazado 124991" d="M75.541,54.129l.175-.018c-.144-1.38-2.535-4.7-4.018-6.14l-.122.126c1.431,1.387,3.827,4.711,3.966,6.032" transform="translate(-14.588 -33.647)" fill="#5e7f33"/>
    <path id="Trazado_124992" data-name="Trazado 124992" d="M69.764,86.356l.173-.029a7.35,7.35,0,0,0-2.207-3.772,11.134,11.134,0,0,0-2.972-2.115l-.071.161c1.389.618,4.6,2.924,5.076,5.756" transform="translate(-6.754 -56.42)" fill="#4c6040"/>
    <path id="Trazado_124993" data-name="Trazado 124993" d="M207.07,217.4c.63-.146,2.873-.391,3.623-.527-.365.93-.879,2.661-.916,2.8a1.654,1.654,0,0,0,.462,1.8,7.629,7.629,0,0,0,2.2,1.392c1.219.5,2.223.717,2.51,1.363.275.618.072.717-.144.789s-8.1.216-8.888-.214c-.642-.35-.689-1.017-.167-2.418a43.046,43.046,0,0,0,1.319-4.983" transform="translate(-193.915 -152.117)" fill="#e4906b"/>
    <path id="Trazado_124994" data-name="Trazado 124994" d="M205.879,230.351a1.544,1.544,0,0,0,.925.1c.538-.13.761-.636,1.03-1.062a1.375,1.375,0,0,1,.6-.563,1.423,1.423,0,0,1,.84-.068,2.168,2.168,0,0,1,.446.147,1.58,1.58,0,0,0,.516.881,7.629,7.629,0,0,0,2.2,1.393c1.219.5,2.223.717,2.51,1.363.275.618.072.717-.144.789s-8.1.216-8.888-.214c-.642-.35-.689-1.017-.167-2.418.047-.125.089-.24.127-.347" transform="translate(-193.915 -160.428)" fill="#6f97ca"/>
    <path id="Trazado_124995" data-name="Trazado 124995" d="M225.523,235.812c.486.385,1,.728,1.5,1.095.522.384,1.037.777,1.555,1.166a14.359,14.359,0,0,1-3.419-.282c-.639-.348-.688-1.012-.173-2.4.179.139.356.281.534.422" transform="translate(-213.159 -165.102)" fill="#507ca9"/>
    <path id="Trazado_124996" data-name="Trazado 124996" d="M215.1,241.444s-3.185-.018-4.351-.018-2.509,0-2.842-.056-.5-.388-.971-.5a12.063,12.063,0,0,0-1.524-.159,3.106,3.106,0,0,0,.015.77c.065.165.425.246,1.986.314s6.128.078,6.552.059c.782-.035,1.12-.049,1.136-.41" transform="translate(-193.935 -168.834)" fill="#fff"/>
    <path id="Trazado_124997" data-name="Trazado 124997" d="M226.025,240.87c.472.111.638.444.972.5a8.717,8.717,0,0,0,.93.046l.525.4.039.029c-.8-.01-1.527-.026-1.989-.046-1.561-.068-1.921-.148-1.986-.314a3.118,3.118,0,0,1-.014-.77,12.054,12.054,0,0,1,1.524.159" transform="translate(-213.021 -168.834)" fill="#e3e8ea"/>
    <path id="Trazado_124998" data-name="Trazado 124998" d="M231.142,220.472c.63-.146.739-.264,1.373-.4.743-.155,1.475-.421,2.225-.558a13.61,13.61,0,0,0-.054,1.887,3.372,3.372,0,0,0,1.2,1.923,7.63,7.63,0,0,0,2.2,1.393c1.219.5,2.223.717,2.51,1.363.275.618.072.717-.143.789s-8.558.226-9.347-.2c-.642-.35-.444-1.05-.226-2.53a12.225,12.225,0,0,0,.257-3.667" transform="translate(-227.115 -153.969)" fill="#e4906b"/>
    <path id="Trazado_124999" data-name="Trazado 124999" d="M230.967,230.96a3.589,3.589,0,0,0,2.2,1.1,1.86,1.86,0,0,0,1.081-.29,1.411,1.411,0,0,0,.287-.838,1.392,1.392,0,0,1,.238-.758.619.619,0,0,1,.472-.221,5.676,5.676,0,0,0,.648.694,7.635,7.635,0,0,0,2.2,1.392c1.219.5,2.223.717,2.51,1.363.275.618.072.717-.144.789s-8.558.226-9.347-.2c-.642-.35-.444-1.05-.226-2.529.03-.2.057-.362.083-.5" transform="translate(-227.114 -161.29)" fill="#6f97ca"/>
    <path id="Trazado_125000" data-name="Trazado 125000" d="M205.25,89.687s.336,10.351-.048,18.525-.64,18.231-.256,21.878c0,0,.32.256,1.792,0s3.839-.568,4.1-1.563,1.624-18.069,2.4-24.875c0,0,3.44,5.791,3.952,7.469s-3.091,16.463-3.091,16.463a15.5,15.5,0,0,0,3.888,2.048c2,.64,2.063-1.244,2.895-3.776s3.339-11.683,3.467-15.2-8.395-21.209-8.395-21.209-7.9-1.89-10.7.236" transform="translate(-202.99 -62.198)" fill="#6c4e4e"/>
    <path id="Trazado_125001" data-name="Trazado 125001" d="M254.665,102.433a11.468,11.468,0,0,0,1.933-2.781c.07-.141.281-.017.211.123a11.68,11.68,0,0,1-1.971,2.83c-.108.115-.281-.059-.173-.173" transform="translate(-250.356 -69.852)" fill="#493333"/>
    <path id="Trazado_125002" data-name="Trazado 125002" d="M220.724,125.441q1.278,1.74,2.461,3.545t2.257,3.656q.612,1.053,1.192,2.125c.05.092-.091.175-.141.082q-1.027-1.9-2.155-3.739t-2.342-3.6q-.692-1-1.413-1.985c-.062-.085.079-.166.141-.082" transform="translate(-210.007 -87.96)" fill="#493333"/>
    <path id="Trazado_125003" data-name="Trazado 125003" d="M219.458,177.949l2.326-7.29,1.163-3.645a12.65,12.65,0,0,0,.489-1.786,3.831,3.831,0,0,0,.044-.94,2,2,0,0,1-.033-.717.472.472,0,0,1,.206-.27c.119-.076.267-.112.312-.263.081-.266-.133-.519-.271-.721a.734.734,0,0,1-.158-.7.4.4,0,0,1,.517-.251c.1.043.013.184-.082.141a.208.208,0,0,0-.244.1.366.366,0,0,0-.05.332,5.373,5.373,0,0,0,.379.643.67.67,0,0,1,.027.592c-.111.2-.413.211-.48.441a2.1,2.1,0,0,0,.042.712,3.952,3.952,0,0,1-.041.869,11.2,11.2,0,0,1-.464,1.746L220.89,174l-1.274,3.994c-.032.1-.189.057-.157-.043" transform="translate(-207.173 -113.158)" fill="#493333"/>
    <path id="Trazado_125004" data-name="Trazado 125004" d="M240.024,117.622q.186-2.372.294-4.749.061-1.335.1-2.671a.163.163,0,0,1,.326,0q-.064,2.378-.207,4.754t-.363,4.744q-.124,1.331-.272,2.659a.168.168,0,0,1-.163.163.164.164,0,0,1-.163-.163q.264-2.365.451-4.737" transform="translate(-229.779 -77.185)" fill="#d8b69e"/>
    <path id="Trazado_125005" data-name="Trazado 125005" d="M240.765,241.791s-3.472-.008-4.638-.008a13.137,13.137,0,0,1-2.124-.127c-.333-.056-.5-.388-.972-.5a17.339,17.339,0,0,0-2.3-.056,3.713,3.713,0,0,0,.075.738c.065.165.425.246,1.986.314s6.415.066,6.839.049,1.07-.057,1.136-.41" transform="translate(-227.161 -169.098)" fill="#fff"/>
    <path id="Trazado_125006" data-name="Trazado 125006" d="M240.17,28.7a18.166,18.166,0,0,0-2.8-1.063A11.639,11.639,0,0,0,234.634,27l-1.995,1.01s1.1,4.222,1.618,4.707a3.862,3.862,0,0,0,3.22,1.693c1.957-.069,2.138,1,2.693-.833s.444-4.483,0-4.879" transform="translate(-227.512 -18.937)" fill="#e3e8ea"/>
    <path id="Trazado_125007" data-name="Trazado 125007" d="M226.363,32.565s-.068-.394,1.5-1.132c1.543-.727,2.235-1.05,2.235-1.05s2.578,5.351,4.947,5.41,2.583-4.721,2.583-4.721a7.857,7.857,0,0,1,2.441,1.493c.507.7,0,5.821,0,5.821s-.38,3.075-.831,5.269a6.566,6.566,0,0,0-.2,1.355,8.762,8.762,0,0,0,.244.971,30.507,30.507,0,0,1,.413,3.368,3.06,3.06,0,0,1-.588,1.7c-2.2.94-6.588.446-8.84-.014-2.046-.417-2.862-.391-3.016-.488s-.868-3.741-.533-4.692a2.873,2.873,0,0,0,.135-.673,1.927,1.927,0,0,1-.719-.584,5.624,5.624,0,0,1-1.163-3.036,26.913,26.913,0,0,1,1.4-9" transform="translate(-224.967 -21.311)" fill="#b2a978"/>
    <path id="Trazado_125008" data-name="Trazado 125008" d="M231.281,90.489c.665-.026,1.235.452,1.85.673.664.239,1.377.113,2.049.3.341.094.634.328.968.439a4.551,4.551,0,0,0,1.068.154,13.5,13.5,0,0,0,2.17,0,15.428,15.428,0,0,0,2.434-.408c.065-.016.079.111.015.129a13.314,13.314,0,0,1-4.277.46c-.366-.019-.733-.05-1.1-.1a3.19,3.19,0,0,1-.949-.374,7.984,7.984,0,0,0-2.084-.344c-.749-.156-1.388-.754-2.163-.769-.077,0-.06-.151.015-.154" transform="translate(-228.418 -63.468)" fill="#968a54"/>
    <path id="Trazado_125009" data-name="Trazado 125009" d="M244.7,82.548a36.306,36.306,0,0,1-7.616-.5c-1.736-.35-2.82-.58-3.47-.722a2.176,2.176,0,0,1,.09-.711,2.864,2.864,0,0,0,.135-.673,33.347,33.347,0,0,0,7.2,2.106c2.328.321,3.662.5,3.662.5" transform="translate(-231.956 -56.073)" fill="#123a35"/>
    <path id="Trazado_125010" data-name="Trazado 125010" d="M259,34.97a12.536,12.536,0,0,1,2.919,2.775c.064.084-.078.165-.141.082a12.464,12.464,0,0,0-2.933-2.765c.049-.03.1-.061.155-.092" transform="translate(-256.725 -24.528)" fill="#968a54"/>
    <path id="Trazado_125011" data-name="Trazado 125011" d="M225.94,39.164a11.7,11.7,0,0,1,1.477-2.125q.061.059.111.117a11.8,11.8,0,0,0-1.447,2.091.082.082,0,0,1-.141-.082" transform="translate(-212.49 -25.979)" fill="#968a54"/>
    <path id="Trazado_125012" data-name="Trazado 125012" d="M198.058,50.562a18.934,18.934,0,0,1,.2-3.61c.564-2.474,1.993-6.309,2.092-5.424s.443,6.862.544,7.475c.048.292.085.539.113.746a29.72,29.72,0,0,0,6.558-.17l.824,3.873s-5.62,1.251-8.108,1.562-2.222-4.453-2.222-4.453" transform="translate(-185.025 -29.037)" fill="#b2a978"/>
    <path id="Trazado_125013" data-name="Trazado 125013" d="M216.118,68.265q1.563.12,3.131.139a.123.123,0,0,1,.1.138.126.126,0,0,1-.139.1q-1.568-.02-3.131-.139c-.157-.012-.122-.254.035-.242" transform="translate(-201.347 -47.881)" fill="#493333"/>
    <path id="Trazado_125014" data-name="Trazado 125014" d="M228.947,55.414a10.436,10.436,0,0,1,.188-1.906c.091-.649.149-1.3.177-1.959a20.953,20.953,0,0,0-.023-2.2c-.01-.157.235-.157.245,0a20.834,20.834,0,0,1-.132,3.994,12.789,12.789,0,0,0-.214,1.964c.015.608.134,1.206.2,1.808a3.765,3.765,0,0,1-.2,1.93c-.062.144-.273.02-.211-.123a3.45,3.45,0,0,0,.179-1.716c-.059-.6-.178-1.189-.2-1.79" transform="translate(-215.438 -34.53)" fill="#968a54"/>
    <path id="Trazado_125015" data-name="Trazado 125015" d="M196.534,74.336s.275,1.662.785,1.649.523-1.9.353-2.355-1.138.706-1.138.706" transform="translate(-173.956 -51.569)" fill="#123a35"/>
    <path id="Trazado_125016" data-name="Trazado 125016" d="M180.155,65.371s.454-.6.391-.889c-.083-.373-1.081.3-1.4.45s-.933.606-1.257.76.039,2.225.039,2.225a9.22,9.22,0,0,0,3.321-.661c.359.017,2.884-.271,3.021-.562s.564-.141.5-.455-.324-.452-.9-.522c-.311-.47-3.7-.345-3.7-.345" transform="translate(-155.346 -45.149)" fill="#e4906b"/>
    <path id="Trazado_125017" data-name="Trazado 125017" d="M182.774,69.983c.071-.033.143-.063.215-.09a1.719,1.719,0,0,0,.119-.678c-.006-.069,0-.12.06-.117s.076.061.085.134a1.836,1.836,0,0,1,.027.573,3.853,3.853,0,0,1,1.156-.091c.285.017.569.054.851.1a.489.489,0,0,1,.327.13c.083.1,0,.379-.088.371s.027-.173-.112-.234a1.667,1.667,0,0,0-.515-.088c-.222-.026-.507-.02-.73-.022a3.129,3.129,0,0,0-1,.14.125.125,0,0,1-.062.022c-.066.024-.132.05-.2.08-.152.072-.286-.155-.133-.227" transform="translate(-157.704 -48.466)" fill="#d9805c"/>
    <path id="Trazado_125018" data-name="Trazado 125018" d="M192.321,67.558a1.1,1.1,0,0,0,.64-.8.5.5,0,0,1,.306-.378c.08-.026.191-.023.251-.086a1.506,1.506,0,0,0,.185-.214c.088-.144.181-.062.092.083s-.162.352-.335.429c-.079.035-.156.034-.2.116a1.911,1.911,0,0,0-.087.246,1.279,1.279,0,0,1-.781.862.132.132,0,0,1-.07-.254" transform="translate(-168.73 -46.292)" fill="#d9805c"/>
    <path id="Trazado_125019" data-name="Trazado 125019" d="M221.223,3.565C221.592,1.5,222.672.836,223.1.842a1.637,1.637,0,0,1-.021-.75c.022-.107.186-.062.164.045a1.453,1.453,0,0,0,.006.6c.049-.184.226-.512.864-.684.918-.247,1.4.362,1.933.554a4.128,4.128,0,0,1,2.33,1.216c.706.918-.2,2.343.156,3.1s-1.008,1.658-1.608.967c-.374-.431-1.3-1.2-2.09-1.923A6.289,6.289,0,0,1,221.4,6a3.364,3.364,0,0,1-.176-2.43" transform="translate(-212.181 0)" fill="#84292c"/>
    <path id="Trazado_125020" data-name="Trazado 125020" d="M241.142,15.484a24.2,24.2,0,0,1-2.716,3.446,20.173,20.173,0,0,0,2.538,2.89l.219-1.214,1.419-2.523Z" transform="translate(-231.297 -10.86)" fill="#e4906b"/>
    <path id="Trazado_125021" data-name="Trazado 125021" d="M239.023,20.542a2.921,2.921,0,0,1-.509-1,2.637,2.637,0,0,1-.036-1.2,7.687,7.687,0,0,1,.42-1.359c.11-.288.235-.577.332-.874l1.355,2.413-1.3,2.308a2.346,2.346,0,0,1-.265-.285" transform="translate(-229.282 -11.297)" fill="#1a1a1a"/>
    <path id="Trazado_125022" data-name="Trazado 125022" d="M230.759,12.966c-.193.355-.87,2.352-2.128,3.081a2.9,2.9,0,0,1-2.374.183,2.829,2.829,0,0,1-1.337-3.542s-.974-1.277.165-2.028c.776-.512,1.125.831,1.125.831s.132,1.015,1.879-.62c1.89.153,2.785-.881,2.67.49a6.534,6.534,0,0,0,0,1.606" transform="translate(-215.315 -7.395)" fill="#e4906b"/>
    <path id="Trazado_125023" data-name="Trazado 125023" d="M227.891,22.078a.283.283,0,0,1,.165-.169.241.241,0,0,1,.062-.014.111.111,0,0,1,.03,0,.093.093,0,0,1,.067.048l0,.007a.139.139,0,0,1,.056.093.185.185,0,0,1-.027.115.256.256,0,0,1-.116.159.193.193,0,0,1-.1.022h-.013a.149.149,0,0,1-.113-.07.169.169,0,0,1-.023-.075.217.217,0,0,1,.009-.116" transform="translate(-213.82 -15.357)" fill="#1a1a1a"/>
    <path id="Trazado_125024" data-name="Trazado 125024" d="M234.419,17.013a.239.239,0,0,1,.2-.045.181.181,0,0,1,.108.167.343.343,0,0,1-.036.2l-.008.011a.265.265,0,0,1-.023.05.156.156,0,0,1-.018.027l-.005.007-.014.013a.226.226,0,0,1-.026.024.168.168,0,0,1-.118.03.192.192,0,0,1-.165-.056.253.253,0,0,1-.067-.158.315.315,0,0,1,.177-.276" transform="translate(-222.17 -11.896)" fill="#1a1a1a"/>
    <path id="Trazado_125025" data-name="Trazado 125025" d="M231.948,13.548a.132.132,0,0,1,.157-.089l.811.143a.128.128,0,0,1,.089.157.131.131,0,0,1-.157.089l-.811-.143a.128.128,0,0,1-.089-.157" transform="translate(-219.769 -9.438)" fill="#84292c"/>
    <path id="Trazado_125026" data-name="Trazado 125026" d="M225.755,19.185a.13.13,0,0,1,.175.046l.272.509a.128.128,0,0,1-.22.129l-.272-.509a.13.13,0,0,1,.046-.175" transform="translate(-211.111 -13.445)" fill="#84292c"/>
    <path id="Trazado_125027" data-name="Trazado 125027" d="M232.869,23.752a.11.11,0,0,1,.049-.064.108.108,0,0,1,.082-.011l.23.071a.112.112,0,0,1,.064.049.109.109,0,0,1,.01.082.106.106,0,0,1-.131.074l-.23-.071a.112.112,0,0,1-.064-.049.108.108,0,0,1-.011-.082" transform="translate(-220.342 -16.605)" fill="#ce5c48"/>
    <path id="Trazado_125028" data-name="Trazado 125028" d="M235.919,24.739l-1.32-1.175s-.412.629-.183.979a.759.759,0,0,0,.7.323,1.839,1.839,0,0,0,.808-.128" transform="translate(-223.396 -16.528)" fill="#fff"/>
    <path id="Trazado_125029" data-name="Trazado 125029" d="M242.522,29.242l.217-.11a12.492,12.492,0,0,0,1.818,2.761q.349.4.732.771a7.36,7.36,0,0,1,.98-1.253.123.123,0,0,1,.2.054q.294,1.584.483,3.185c.019.156-.226.155-.245,0q-.172-1.452-.434-2.891a7.078,7.078,0,0,0-.858,1.161.124.124,0,0,1-.192.025,12.756,12.756,0,0,1-2.616-3.52c-.03-.061-.06-.122-.089-.183" transform="translate(-236.874 -20.433)" fill="#a8b9cb"/>
    <path id="Trazado_125030" data-name="Trazado 125030" d="M237.507,32.733l.561.756a7.363,7.363,0,0,0,.837-2.555.077.077,0,0,1,0-.012l.234.09a8.372,8.372,0,0,1-.946,2.773.124.124,0,0,1-.211,0l-.689-.929c-.094-.126.118-.248.211-.123" transform="translate(-227.492 -21.689)" fill="#a8b9cb"/>
    <path id="Trazado_125031" data-name="Trazado 125031" d="M229.5,82.455s-.159,1.224.22,1.42,1.036-1.237.944-1.826-1.165.405-1.165.405" transform="translate(-216.698 -57.418)" fill="#123a35"/>
    <path id="Trazado_125032" data-name="Trazado 125032" d="M210.174,77.739a4.9,4.9,0,0,1,.072-1.935c.235-.933,1.575-.638,2.117-.552a3.829,3.829,0,0,0,1.687.059c.505-.126.542.29.355.563,0,0,.479.044,1.437.155s1.216.278,1.149.549.157.095.136.386-2.424.754-3.243.717a36.191,36.191,0,0,0-3.71.058" transform="translate(-197.368 -52.703)" fill="#e4906b"/>
    <path id="Trazado_125033" data-name="Trazado 125033" d="M219.4,77.749a3.121,3.121,0,0,1,1.078-.126,1.631,1.631,0,0,0,.948-.234c.128-.092.251.12.124.211-.619.442-1.413.128-2.085.385-.147.056-.211-.18-.065-.236" transform="translate(-204.594 -54.264)" fill="#d9805c"/>
    <path id="Trazado_125034" data-name="Trazado 125034" d="M231.329,55.374q.963.436,1.95.814-.2-2.37-.579-4.72c-.025-.154.211-.22.236-.065q.389,2.424.6,4.873s0,.005,0,.008q.709.267,1.428.5a36.664,36.664,0,0,0,3.755,1.019q1.077.232,2.166.4c.155.024.089.26-.065.236a36.724,36.724,0,0,1-7.566-2q-1.034-.4-2.044-.853c-.143-.065-.019-.276.123-.211" transform="translate(-227.489 -35.992)" fill="#968a54"/>
    <line id="Línea_202" data-name="Línea 202" x1="35.53" transform="translate(22.404 61.875)" fill="none" stroke="#d8b69e" stroke-miterlimit="10" stroke-width="1"/>
    <path id="Trazado_125035" data-name="Trazado 125035" d="M80.838,202.414a22.848,22.848,0,0,0,2.937,1.433c.463.028-1.833,1.28-2.512,1.75" transform="translate(-25.474 -141.973)" fill="none" stroke="#d8b69e" stroke-miterlimit="10" stroke-width="1"/>
    <path id="Trazado_125036" data-name="Trazado 125036" d="M195.185,205.6a22.824,22.824,0,0,0-2.937-1.433c-.463-.028,1.833-1.28,2.512-1.75" transform="translate(-170.072 -141.973)" fill="none" stroke="#d8b69e" stroke-miterlimit="10" stroke-width="1"/>
  </g>
</svg>
