<svg xmlns="http://www.w3.org/2000/svg" xmlns:xlink="http://www.w3.org/1999/xlink" width="190" height="243" viewBox="0 0 190 243">
  <defs>
    <clipPath id="clip-path">
      <rect id="Rectángulo_35853" data-name="Rectángulo 35853" width="189.914" height="166.898" fill="none"/>
    </clipPath>
  </defs>
  <g id="Grupo_88133" data-name="Grupo 88133" transform="translate(-1020 -688)">
    <g id="Grupo_87861" data-name="Grupo 87861">
      <g id="Grupo_87860" data-name="Grupo 87860" transform="translate(0 0.647)">
        <path id="Rectángulo_34433" data-name="Rectángulo 34433" d="M0,0H96a77,77,0,0,1,77,77V184.116a0,0,0,0,1,0,0H0a0,0,0,0,1,0,0V0A0,0,0,0,1,0,0Z" transform="translate(1035 725.353)" fill="#a6bbff"/>
        <g id="Grupo_87372" data-name="Grupo 87372" transform="translate(1044.708 726.567)">
          <path id="Trazado_114646" data-name="Trazado 114646" d="M151.4,72.681c-1.152,17.828-14.827,34.849-33.347,35.905-21.272,1.63-40.8-10.036-61.986-10.159-10.8-.926-20.938,3.211-31.467,4.547C.823,103.846-2.8,75.9,1.635,57.886,20.34-27.038,152.7-15.484,151.4,72.681Z" transform="translate(1.291 13.295)" fill="#e1e8ff"/>
        </g>
      </g>
      <g id="Grupo_87859" data-name="Grupo 87859" transform="translate(1020 743)">
        <path id="Trazado_124348" data-name="Trazado 124348" d="M0,245.373l36.1,19.415V205.175L0,190.135Z" transform="translate(0 -115.756)" fill="#d19462"/>
        <path id="Trazado_124349" data-name="Trazado 124349" d="M154.346,249.263,92.272,265.214V205.741l62.074-14.906Z" transform="translate(-56.176 -116.182)" fill="#996042"/>
        <path id="Trazado_124350" data-name="Trazado 124350" d="M0,167.3l36.1,14.949L98.58,167.57l-36.1-14.949Z" transform="translate(0 -92.917)" fill="#e9b375"/>
        <line id="Línea_192" data-name="Línea 192" x1="62.122" y2="14.825" transform="translate(15.673 66.045)" fill="none" stroke="#b26e4b" stroke-miterlimit="10" stroke-width="1"/>
        <path id="Trazado_124351" data-name="Trazado 124351" d="M80.239,112.167l-36.1-19.415V37.514l36.1,15.04Z" transform="translate(-26.875 -22.839)" fill="#df9e68"/>
        <path id="Trazado_124352" data-name="Trazado 124352" d="M198.49,96.642l-62.074,15.952V53.12L198.49,38.214Z" transform="translate(-83.051 -23.265)" fill="#b06e4c"/>
        <path id="Trazado_124353" data-name="Trazado 124353" d="M106.628,0,44.144,14.676l36.1,14.949,62.485-14.676Z" transform="translate(-26.875 0)" fill="#e9b375"/>
        <line id="Línea_193" data-name="Línea 193" x1="62.122" y2="14.825" transform="translate(32.942 6.341)" fill="none" stroke="#b26e4b" stroke-miterlimit="10" stroke-width="1"/>
        <g id="Grupo_87844" data-name="Grupo 87844" transform="translate(0.086)">
          <g id="Grupo_87843" data-name="Grupo 87843" clip-path="url(#clip-path)">
            <path id="Trazado_124354" data-name="Trazado 124354" d="M250.075,197.367c2.891,1.09,4.113,3.519,4.92,6.234a27.664,27.664,0,0,1,.722,11.029,37.039,37.039,0,0,1-5.736,16.526c-3.686,5.616-8.631,9.588-15.343,10.842-10.829,2.023-23.285-1.748-30.17-13.716a33.313,33.313,0,0,1-4.368-20.528,21.252,21.252,0,0,1,5.213-12.47,9.085,9.085,0,0,1,7.254-3.148c4.351.134,7.675,2.382,10.7,5.228A14.838,14.838,0,0,0,226,199.437a4.652,4.652,0,0,0,1.055.5c.173.058.347.115.523.164a13.506,13.506,0,0,0,2.231.515c.279.011.557.018.836.014a27.578,27.578,0,0,0,9.182-1.547c1.364-.4,2.707-.852,4.037-1.351a1.926,1.926,0,0,0,.883-.085,19.927,19.927,0,0,1,3.23-.609,3.262,3.262,0,0,1,2.094.33" transform="translate(-121.703 -116.972)" fill="#e7384c"/>
            <path id="Trazado_124355" data-name="Trazado 124355" d="M271.6,157.093a6.506,6.506,0,0,1-2.224-.551,1.11,1.11,0,0,1-.354-.724,17.65,17.65,0,0,1-.027-6.538,1.445,1.445,0,0,1,.349-.733,20.257,20.257,0,0,1,5.7-9.464,54.043,54.043,0,0,1,7.021-5.269,116.329,116.329,0,0,0,13.1-10.3,36.653,36.653,0,0,0,2.96-3.142,15.4,15.4,0,0,1,.829,3.2,34.133,34.133,0,0,1,.3,11.431,25.007,25.007,0,0,1-9.5,16.506c-.2.153-.376.326-.563.49a8.552,8.552,0,0,1-3.452,2.169,35.934,35.934,0,0,1-12.425,3.005c-.274.007-.549-.017-.823-.027.027-.376.363-.38.6-.458a92.3,92.3,0,0,0,11.63-4.7,20.463,20.463,0,0,0,5.628-3.7,3.748,3.748,0,0,0,.926-1.442,1.4,1.4,0,0,0-.838-1.964,7.818,7.818,0,0,0-2.924-.626c-.8-.011-1.6.013-2.406-.013-.212-.007-.51.024-.549-.258-.031-.229.228-.314.415-.363a42.553,42.553,0,0,0,4.705-1.564,15.388,15.388,0,0,0,5.615-3.087,2.337,2.337,0,0,0-.21-3.67,6.885,6.885,0,0,0-1.326-.852c-.861-.423-.863-.542-.181-1.176a16.257,16.257,0,0,0,2.875-3.156,4.829,4.829,0,0,0,.552-4.446c-.289-.781-.483-.8-.96-.134-1.128,1.567-2.271,3.122-3.5,4.609a59.317,59.317,0,0,1-8.774,8.828,39.365,39.365,0,0,0-8.8,9.3,19.106,19.106,0,0,0-3.044,8.012,1.08,1.08,0,0,1-.333.808" transform="translate(-163.591 -73.285)" fill="#cacc45"/>
            <path id="Trazado_124356" data-name="Trazado 124356" d="M259.74,169.471a4.055,4.055,0,0,1-1.051-.455,16.666,16.666,0,0,1-1.631-3.774c-.42-1.043-.727-2.13-1.079-3.2a.816.816,0,0,1-.029-.723,46.629,46.629,0,0,1-2.247-11.007,13.109,13.109,0,0,1,.452-4.836,9.307,9.307,0,0,1,.482-1.178,2.42,2.42,0,0,1,2.029-1.528,43.091,43.091,0,0,0,4.567-.886c.561-.129.561.029.488.489-.592,3.709-1.1,7.43-1.46,11.169a66.468,66.468,0,0,0-.522,8.089,6.947,6.947,0,0,1-.02,2.3,21.856,21.856,0,0,0,.143,4.391c.054.368.193.794-.121,1.144" transform="translate(-154.434 -86.355)" fill="#5c4d00"/>
            <path id="Trazado_124357" data-name="Trazado 124357" d="M242.926,191.49c.8,2.6,1.78,5.147,2.74,7.7-1.932-.972-3.261-2.693-4.943-3.978a17.737,17.737,0,0,0-7.359-3.359c-.362-.073-.759.1-1.089-.16a64.4,64.4,0,0,1,9.376-.212c.424.019.85.01,1.276.014" transform="translate(-141.41 -116.525)" fill="#cb223c"/>
            <path id="Trazado_124358" data-name="Trazado 124358" d="M312.281,203.382l3.452-2.169a10.643,10.643,0,0,1,2.758,1.682,12.315,12.315,0,0,0-5.365.508c-.291.069-.568.211-.845-.021" transform="translate(-190.119 -122.5)" fill="#cc233c"/>
            <path id="Trazado_124359" data-name="Trazado 124359" d="M268.949,200.244c-.19-2.348-.16-4.7-.142-7.051,0-.266-.085-.557.14-.787l.453-.016a18.759,18.759,0,0,0,.032,8l-.483-.141" transform="translate(-163.642 -117.128)" fill="#c62a3b"/>
            <path id="Trazado_124360" data-name="Trazado 124360" d="M276.114,163.842a20.463,20.463,0,0,1,2.1-6.985,27.353,27.353,0,0,1,4.456-6.179,65.474,65.474,0,0,1,7-6.33,45.888,45.888,0,0,0,6.287-6.429c1.678-1.985,3.252-4.047,4.746-6.171.3-.425.5-.361.753.07a5.125,5.125,0,0,1-.373,5.251,16.26,16.26,0,0,1-3.143,3.3c-.327.263-.273.381.11.541a4.772,4.772,0,0,1,2.4,1.838,2.48,2.48,0,0,1-.333,2.971,11.93,11.93,0,0,1-4.375,2.674,39.445,39.445,0,0,1-6.285,2.168,2.862,2.862,0,0,0-.435.248c1.032,0,1.862.018,2.691,0a8.408,8.408,0,0,1,2.794.456c1.724.55,2.106,1.6,1.134,3.137a8.964,8.964,0,0,1-2.767,2.491,48.68,48.68,0,0,1-7.954,4.012c-2.587,1.125-5.269,2-7.9,3l-.9-.052" transform="translate(-168.1 -80.034)" fill="#bab001"/>
            <path id="Trazado_124361" data-name="Trazado 124361" d="M224.551,223.73a40.7,40.7,0,0,1-.525,5.431,17.116,17.116,0,0,0,1.339,9.869c.45.977.978,1.918,1.438,2.891.521,1.1.142,1.683-1.087,1.63a4.489,4.489,0,0,1-3.207-2.01,23.426,23.426,0,0,1-4.756-11.249,44.8,44.8,0,0,1-.39-5.448,6.722,6.722,0,0,1,1.173-4.187,4.01,4.01,0,0,1,3.79-1.3,2.7,2.7,0,0,1,2.035,2.429,6.613,6.613,0,0,1,.19,1.94" transform="translate(-132.326 -133.503)" fill="#f18793"/>
            <path id="Trazado_124362" data-name="Trazado 124362" d="M248.67,287.219a1.619,1.619,0,0,1-.732,1.453,4.938,4.938,0,0,1-3.1.93,1.637,1.637,0,0,1-1.71-1.78,3.006,3.006,0,0,1,1.663-2.667,2.685,2.685,0,0,1,3.022.294,2,2,0,0,1,.857,1.77" transform="translate(-148.016 -173.401)" fill="#f18793"/>
            <path id="Trazado_124363" data-name="Trazado 124363" d="M148.677,258.042c2.891,1.09,4.113,3.519,4.92,6.234a27.663,27.663,0,0,1,.722,11.029,37.039,37.039,0,0,1-5.736,16.526c-3.686,5.616-8.631,9.588-15.343,10.842-10.829,2.023-23.285-1.748-30.17-13.716A33.313,33.313,0,0,1,98.7,268.429a21.252,21.252,0,0,1,5.213-12.47,9.085,9.085,0,0,1,7.254-3.148c4.351.134,7.675,2.382,10.7,5.228a14.835,14.835,0,0,0,2.742,2.073,4.651,4.651,0,0,0,1.055.5c.173.058.347.115.523.164a13.509,13.509,0,0,0,2.231.515c.279.011.557.018.836.014a27.577,27.577,0,0,0,9.182-1.547c1.364-.4,2.707-.852,4.038-1.351a1.925,1.925,0,0,0,.883-.085,19.933,19.933,0,0,1,3.23-.609,3.262,3.262,0,0,1,2.094.33" transform="translate(-59.971 -153.912)" fill="#e7384c"/>
            <path id="Trazado_124364" data-name="Trazado 124364" d="M170.207,217.768a6.506,6.506,0,0,1-2.224-.551,1.11,1.11,0,0,1-.354-.724,17.649,17.649,0,0,1-.027-6.538,1.445,1.445,0,0,1,.349-.733,20.257,20.257,0,0,1,5.7-9.464,54.044,54.044,0,0,1,7.021-5.269,116.329,116.329,0,0,0,13.1-10.3,36.662,36.662,0,0,0,2.96-3.142,15.4,15.4,0,0,1,.829,3.2,34.134,34.134,0,0,1,.3,11.431,25.007,25.007,0,0,1-9.5,16.506c-.2.153-.376.326-.563.49a8.552,8.552,0,0,1-3.452,2.169,35.934,35.934,0,0,1-12.425,3.005c-.274.007-.549-.017-.823-.027.027-.376.363-.38.6-.458a92.307,92.307,0,0,0,11.63-4.7,20.463,20.463,0,0,0,5.628-3.7,3.748,3.748,0,0,0,.926-1.442,1.4,1.4,0,0,0-.838-1.964,7.818,7.818,0,0,0-2.924-.626c-.8-.011-1.6.013-2.406-.013-.212-.007-.51.024-.549-.258-.031-.229.228-.314.415-.363a42.56,42.56,0,0,0,4.705-1.564,15.388,15.388,0,0,0,5.615-3.087,2.337,2.337,0,0,0-.21-3.67,6.886,6.886,0,0,0-1.326-.852c-.861-.423-.863-.542-.181-1.176a16.255,16.255,0,0,0,2.875-3.156,4.829,4.829,0,0,0,.552-4.446c-.289-.781-.483-.8-.96-.134-1.128,1.567-2.271,3.122-3.5,4.609a59.317,59.317,0,0,1-8.774,8.828,39.365,39.365,0,0,0-8.8,9.3,19.106,19.106,0,0,0-3.044,8.012,1.08,1.08,0,0,1-.332.808" transform="translate(-101.859 -110.224)" fill="#cacc45"/>
            <path id="Trazado_124365" data-name="Trazado 124365" d="M158.342,230.146a4.055,4.055,0,0,1-1.051-.455,16.667,16.667,0,0,1-1.631-3.774c-.42-1.043-.727-2.13-1.079-3.2a.816.816,0,0,1-.029-.723,46.631,46.631,0,0,1-2.247-11.007,13.109,13.109,0,0,1,.452-4.836,9.312,9.312,0,0,1,.482-1.178,2.42,2.42,0,0,1,2.03-1.528,43.093,43.093,0,0,0,4.567-.886c.561-.129.561.029.488.489-.592,3.709-1.1,7.43-1.46,11.169a66.48,66.48,0,0,0-.522,8.089,6.936,6.936,0,0,1-.02,2.3,21.884,21.884,0,0,0,.144,4.391c.054.368.193.794-.121,1.144" transform="translate(-92.702 -123.295)" fill="#5c4d00"/>
            <path id="Trazado_124366" data-name="Trazado 124366" d="M141.529,252.165c.8,2.6,1.78,5.147,2.74,7.7-1.932-.972-3.261-2.693-4.944-3.978a17.737,17.737,0,0,0-7.359-3.359c-.362-.073-.759.1-1.089-.16a64.407,64.407,0,0,1,9.376-.212c.424.019.85.01,1.276.014" transform="translate(-79.679 -153.464)" fill="#cb223c"/>
            <path id="Trazado_124367" data-name="Trazado 124367" d="M210.883,264.057l3.452-2.169a10.643,10.643,0,0,1,2.758,1.682,12.315,12.315,0,0,0-5.365.508c-.291.069-.568.211-.845-.021" transform="translate(-128.387 -159.439)" fill="#cc233c"/>
            <path id="Trazado_124368" data-name="Trazado 124368" d="M167.551,260.919c-.191-2.348-.16-4.7-.142-7.051,0-.266-.085-.557.14-.787l.453-.016a18.759,18.759,0,0,0,.032,8l-.483-.141" transform="translate(-101.911 -154.067)" fill="#c62a3b"/>
            <path id="Trazado_124369" data-name="Trazado 124369" d="M174.716,224.517a20.463,20.463,0,0,1,2.1-6.985,27.352,27.352,0,0,1,4.456-6.179,65.48,65.48,0,0,1,7-6.33,45.888,45.888,0,0,0,6.287-6.429c1.678-1.985,3.252-4.047,4.746-6.171.3-.425.5-.361.753.07a5.125,5.125,0,0,1-.373,5.251,16.25,16.25,0,0,1-3.143,3.3c-.326.263-.273.381.11.541a4.772,4.772,0,0,1,2.4,1.838,2.48,2.48,0,0,1-.333,2.971,11.93,11.93,0,0,1-4.375,2.674,39.442,39.442,0,0,1-6.285,2.168,2.864,2.864,0,0,0-.435.248c1.032,0,1.862.018,2.691,0a8.409,8.409,0,0,1,2.794.456c1.724.55,2.106,1.6,1.134,3.137a8.964,8.964,0,0,1-2.767,2.492,48.679,48.679,0,0,1-7.954,4.012c-2.587,1.125-5.269,2-7.9,3l-.9-.052" transform="translate(-106.368 -116.973)" fill="#bab001"/>
            <path id="Trazado_124370" data-name="Trazado 124370" d="M123.153,284.406a40.7,40.7,0,0,1-.525,5.431,17.116,17.116,0,0,0,1.339,9.869c.45.977.978,1.918,1.438,2.891.521,1.1.142,1.683-1.087,1.63a4.489,4.489,0,0,1-3.207-2.01,23.426,23.426,0,0,1-4.756-11.249,44.8,44.8,0,0,1-.39-5.448,6.722,6.722,0,0,1,1.173-4.187,4.01,4.01,0,0,1,3.789-1.3,2.7,2.7,0,0,1,2.035,2.429,6.613,6.613,0,0,1,.19,1.94" transform="translate(-70.594 -170.443)" fill="#f18793"/>
            <path id="Trazado_124371" data-name="Trazado 124371" d="M147.272,347.895a1.618,1.618,0,0,1-.732,1.453,4.939,4.939,0,0,1-3.1.93,1.637,1.637,0,0,1-1.71-1.78,3.006,3.006,0,0,1,1.663-2.667,2.684,2.684,0,0,1,3.022.294,2,2,0,0,1,.858,1.77" transform="translate(-86.284 -210.341)" fill="#f18793"/>
            <path id="Trazado_124372" data-name="Trazado 124372" d="M269.571,310.458l-36.1-19.415V235.805l36.1,15.04Z" transform="translate(-142.141 -143.56)" fill="#df9e68"/>
            <path id="Trazado_124373" data-name="Trazado 124373" d="M387.821,294.932l-62.074,15.952V251.41L387.821,236.5Z" transform="translate(-198.317 -143.986)" fill="#b06e4c"/>
            <path id="Trazado_124374" data-name="Trazado 124374" d="M332.055,213.24l-62.484,14.675-36.1-14.949,62.484-14.676Z" transform="translate(-142.141 -120.721)" fill="#e9b375"/>
            <line id="Línea_194" data-name="Línea 194" x1="62.122" y2="14.825" transform="translate(107.007 83.911)" fill="none" stroke="#b26e4b" stroke-miterlimit="10" stroke-width="1"/>
          </g>
        </g>
      </g>
    </g>
    <rect id="Rectángulo_35983" data-name="Rectángulo 35983" width="190" height="243" transform="translate(1020 688)" fill="none"/>
  </g>
</svg>
