<svg xmlns="http://www.w3.org/2000/svg" xmlns:xlink="http://www.w3.org/1999/xlink" width="190.862" height="243" viewBox="0 0 190.862 243">
  <defs>
    <clipPath id="clip-path">
      <rect id="Rectángulo_35905" data-name="Rectángulo 35905" width="190.862" height="214.952" fill="none"/>
    </clipPath>
    <clipPath id="clip-path-2">
      <path id="Trazado_124457" data-name="Trazado 124457" d="M10.258,61.012l-.011,144.259,90.225-52.079c1.725-.961,3.013-1.75,3.013-3.748L103.491,5.23Z" transform="translate(-10.247 -5.23)" fill="none"/>
    </clipPath>
    <linearGradient id="linear-gradient" x1="0.156" y1="1.096" x2="0.169" y2="1.096" gradientUnits="objectBoundingBox">
      <stop offset="0" stop-color="#4d9628"/>
      <stop offset="0.005" stop-color="#4d9628"/>
      <stop offset="0.999" stop-color="#377b2b"/>
      <stop offset="1" stop-color="#377b2b"/>
    </linearGradient>
    <clipPath id="clip-path-3">
      <rect id="Rectángulo_35904" data-name="Rectángulo 35904" width="190.863" height="214.952" fill="none"/>
    </clipPath>
    <clipPath id="clip-path-4">
      <rect id="Rectángulo_35899" data-name="Rectángulo 35899" width="98.107" height="56.643" fill="none"/>
    </clipPath>
    <clipPath id="clip-path-5">
      <rect id="Rectángulo_35900" data-name="Rectángulo 35900" width="91.868" height="195.537" fill="none"/>
    </clipPath>
    <clipPath id="clip-path-6">
      <rect id="Rectángulo_35901" data-name="Rectángulo 35901" width="9.685" height="148.828" fill="none"/>
    </clipPath>
    <clipPath id="clip-path-7">
      <rect id="Rectángulo_35902" data-name="Rectángulo 35902" width="93.951" height="54.241" fill="none"/>
    </clipPath>
    <clipPath id="clip-path-8">
      <rect id="Rectángulo_35903" data-name="Rectángulo 35903" width="89.382" height="51.573" fill="none"/>
    </clipPath>
  </defs>
  <g id="Grupo_88134" data-name="Grupo 88134" transform="translate(-390 -964)">
    <g id="Grupo_88022" data-name="Grupo 88022">
      <g id="Grupo_87687" data-name="Grupo 87687" transform="translate(-213 45.434)">
        <path id="Rectángulo_34436" data-name="Rectángulo 34436" d="M0,0H96a77,77,0,0,1,77,77V184.116a0,0,0,0,1,0,0H0a0,0,0,0,1,0,0V0A0,0,0,0,1,0,0Z" transform="translate(612 954.362)" fill="#a6bbff"/>
        <g id="Grupo_87372" data-name="Grupo 87372" transform="translate(618.834 955.577)">
          <path id="Trazado_114646" data-name="Trazado 114646" d="M151.4,72.681c-1.152,17.828-14.827,34.849-33.347,35.905-21.272,1.63-40.8-10.036-61.986-10.159-10.8-.926-20.938,3.211-31.467,4.547C.823,103.846-2.8,75.9,1.635,57.886,20.34-27.038,152.7-15.484,151.4,72.681Z" transform="translate(1.291 13.295)" fill="#e1e8ff"/>
        </g>
      </g>
      <g id="Grupo_88019" data-name="Grupo 88019" transform="translate(390 978.188)" clip-path="url(#clip-path)">
        <g id="Grupo_88001" data-name="Grupo 88001" transform="translate(29.209 14.908)">
          <g id="Grupo_88000" data-name="Grupo 88000" clip-path="url(#clip-path-2)">
            <rect id="Rectángulo_35898" data-name="Rectángulo 35898" width="220.696" height="167.738" transform="translate(-75.426 165.709) rotate(-65.526)" fill="url(#linear-gradient)"/>
          </g>
        </g>
        <g id="Grupo_88018" data-name="Grupo 88018" transform="translate(0 -0.001)">
          <g id="Grupo_88017" data-name="Grupo 88017" clip-path="url(#clip-path-3)">
            <path id="Trazado_124458" data-name="Trazado 124458" d="M.008,53.828,91.145,1.2a11.147,11.147,0,0,1,10.068,0l19.136,11.049c2.776,1.6,2.776,4.21,0,5.818L29.206,70.689Z" transform="translate(0.015 0.002)" fill="#78a629"/>
            <path id="Trazado_124459" data-name="Trazado 124459" d="M26.108,173.554,2.9,160.154l-.006,4.661L0,163.147.023,18.885l29.2,16.861L29.2,180l-3.09-1.784Z" transform="translate(0 34.947)" fill="#398e2f"/>
            <path id="Trazado_124460" data-name="Trazado 124460" d="M1.025,197.3l15.213-8.785L24.357,66.584,113.98,14.667,90.572,1.352,1.025,53.049Z" transform="translate(1.898 2.503)" fill="#22681a"/>
            <path id="Trazado_124461" data-name="Trazado 124461" d="M1.4,161.338l22.177,12.833L23.666,33.4V30.9L16.14,26.568,11.7,24,6.6,21.05,3.547,19.285,1.437,20.531v.137Z" transform="translate(2.586 35.688)" fill="#d8d8d8"/>
            <g id="Grupo_88004" data-name="Grupo 88004" transform="translate(16.076 12.274)" opacity="0.1" style="mix-blend-mode: multiply;isolation: isolate">
              <g id="Grupo_88003" data-name="Grupo 88003">
                <g id="Grupo_88002" data-name="Grupo 88002" clip-path="url(#clip-path-4)">
                  <path id="Trazado_124462" data-name="Trazado 124462" d="M15.722,60.949,5.64,55.134,93.684,4.306l10.062,5.812Z" transform="translate(-5.639 -4.306)" fill="#d8d8d8"/>
                </g>
              </g>
            </g>
            <g id="Grupo_88007" data-name="Grupo 88007" transform="translate(26.159 19.416)" opacity="0.5" style="mix-blend-mode: overlay;isolation: isolate">
              <g id="Grupo_88006" data-name="Grupo 88006">
                <g id="Grupo_88005" data-name="Grupo 88005" clip-path="url(#clip-path-5)">
                  <path id="Trazado_124463" data-name="Trazado 124463" d="M101.046,6.811,12.44,57.5,9.176,56.313l2.62,2.144.428,143.892.79-143.82Z" transform="translate(-9.178 -6.811)" fill="#c1c1c1"/>
                </g>
              </g>
            </g>
            <path id="Trazado_124464" data-name="Trazado 124464" d="M30.931,4.326l4.407-2.54L57.572,14.619l-4.407,2.543Z" transform="translate(57.238 3.306)" fill="#ffb54d"/>
            <g id="Grupo_88010" data-name="Grupo 88010" transform="translate(16.569 61.031)" opacity="0.2" style="mix-blend-mode: multiply;isolation: isolate">
              <g id="Grupo_88009" data-name="Grupo 88009">
                <g id="Grupo_88008" data-name="Grupo 88008" clip-path="url(#clip-path-6)">
                  <path id="Trazado_124465" data-name="Trazado 124465" d="M15.388,170.239l-9.575-5.567L5.847,21.41,15.5,26.977Z" transform="translate(-5.812 -21.41)" fill="#e9e9e9"/>
                </g>
              </g>
            </g>
            <path id="Trazado_124466" data-name="Trazado 124466" d="M1.362,51.339l.14.066,2.913,1.7,5.094,2.913,4.444,2.563,9.64,5.587.14-.071,84.148-48.59L98.237,9.958,93.8,7.39,88.7,4.442,85.647,2.675,3.611,50.022,1.5,51.268Z" transform="translate(2.521 4.951)" fill="#e9e9e9"/>
            <g id="Grupo_88013" data-name="Grupo 88013" transform="translate(16.449 14.903)" opacity="0.1" style="mix-blend-mode: multiply;isolation: isolate">
              <g id="Grupo_88012" data-name="Grupo 88012">
                <g id="Grupo_88011" data-name="Grupo 88011" clip-path="url(#clip-path-7)">
                  <path id="Trazado_124467" data-name="Trazado 124467" d="M15.425,59.468,5.77,53.9,90.083,5.228l9.638,5.561Z" transform="translate(-5.771 -5.227)" fill="#d8d8d8"/>
                </g>
              </g>
            </g>
            <g id="Grupo_88016" data-name="Grupo 88016" transform="translate(6.929 9.411)" opacity="0.1" style="mix-blend-mode: multiply;isolation: isolate">
              <g id="Grupo_88015" data-name="Grupo 88015">
                <g id="Grupo_88014" data-name="Grupo 88014" clip-path="url(#clip-path-8)">
                  <path id="Trazado_124468" data-name="Trazado 124468" d="M2.431,51.962l5.094,2.91L91.812,6.249,86.709,3.3Z" transform="translate(-2.431 -3.302)" fill="#d8d8d8"/>
                </g>
              </g>
            </g>
            <path id="Trazado_124469" data-name="Trazado 124469" d="M99.4,47.888c3.138,1.183,4.464,3.82,5.342,6.767a30.05,30.05,0,0,1,.784,11.975A40.213,40.213,0,0,1,99.3,84.571c-4,6.1-9.37,10.41-16.658,11.773-11.756,2.195-25.278-1.9-32.755-14.894a36.16,36.16,0,0,1-4.74-22.285,23.086,23.086,0,0,1,5.658-13.54,9.873,9.873,0,0,1,7.876-3.418c4.723.145,8.332,2.588,11.613,5.678a16.07,16.07,0,0,0,2.976,2.249,5.028,5.028,0,0,0,1.146.544c.188.063.376.125.567.177a14.36,14.36,0,0,0,2.423.559c.3.014.6.02.906.014,3.446.18,6.71-.727,9.968-1.679q2.219-.65,4.384-1.465a2.105,2.105,0,0,0,.958-.094,21.849,21.849,0,0,1,3.506-.661,3.559,3.559,0,0,1,2.275.359" transform="translate(83.152 78.101)" fill="#e93548"/>
            <path id="Trazado_124470" data-name="Trazado 124470" d="M58.331,71.378a7.075,7.075,0,0,1-2.414-.6,1.207,1.207,0,0,1-.385-.787,19.109,19.109,0,0,1-.028-7.1,1.536,1.536,0,0,1,.379-.8,21.991,21.991,0,0,1,6.191-10.276A58.455,58.455,0,0,1,69.7,46.1a125.994,125.994,0,0,0,14.227-11.18,39.829,39.829,0,0,0,3.213-3.409,16.61,16.61,0,0,1,.9,3.469,37.041,37.041,0,0,1,.325,12.411,27.153,27.153,0,0,1-10.31,17.921c-.211.165-.408.353-.61.53A9.346,9.346,0,0,1,73.693,68.2,39.061,39.061,0,0,1,60.2,71.463c-.3.009-.6-.017-.892-.028.029-.408.393-.413.65-.5a100.661,100.661,0,0,0,12.628-5.105A22.242,22.242,0,0,0,78.7,61.817,4.094,4.094,0,0,0,79.7,60.252a1.521,1.521,0,0,0-.912-2.132,8.478,8.478,0,0,0-3.173-.678c-.872-.014-1.742.014-2.614-.014-.231-.009-.553.026-.6-.279-.034-.251.248-.342.45-.4a46.217,46.217,0,0,0,5.108-1.7c2.175-.849,4.393-1.648,6.1-3.352a2.537,2.537,0,0,0-.228-3.985,7.323,7.323,0,0,0-1.439-.924c-.935-.462-.938-.59-.2-1.277a17.675,17.675,0,0,0,3.121-3.429,5.243,5.243,0,0,0,.6-4.826c-.314-.847-.525-.864-1.04-.145-1.226,1.7-2.469,3.389-3.805,5a64.286,64.286,0,0,1-9.524,9.586A42.762,42.762,0,0,0,62,61.8a20.745,20.745,0,0,0-3.3,8.7,1.177,1.177,0,0,1-.362.878" transform="translate(102.122 58.316)" fill="#c9cd36"/>
            <path id="Trazado_124471" data-name="Trazado 124471" d="M59.539,64.706a4.358,4.358,0,0,1-1.14-.493,18.076,18.076,0,0,1-1.77-4.1c-.459-1.132-.79-2.312-1.174-3.472a.891.891,0,0,1-.031-.784,50.652,50.652,0,0,1-2.437-11.952,14.189,14.189,0,0,1,.49-5.248A9.793,9.793,0,0,1,54,37.378a2.626,2.626,0,0,1,2.2-1.659,46.8,46.8,0,0,0,4.957-.961c.61-.14.61.031.53.53-.641,4.025-1.194,8.067-1.585,12.126a72.338,72.338,0,0,0-.567,8.782,7.586,7.586,0,0,1-.02,2.5,23.577,23.577,0,0,0,.154,4.766c.06.4.211.864-.131,1.243" transform="translate(97.975 64.235)" fill="#5c4e00"/>
            <path id="Trazado_124472" data-name="Trazado 124472" d="M61.322,42.195c.872,2.828,1.933,5.587,2.973,8.355-2.1-1.055-3.54-2.925-5.365-4.319a19.285,19.285,0,0,0-7.99-3.649c-.393-.077-.824.114-1.183-.174a70.146,70.146,0,0,1,10.179-.228c.462.02.924.011,1.385.014" transform="translate(92.077 77.899)" fill="#cc1e38"/>
            <path id="Trazado_124473" data-name="Trazado 124473" d="M61.678,45.912l3.748-2.355a11.528,11.528,0,0,1,2.99,1.824,13.386,13.386,0,0,0-5.821.553c-.316.074-.619.231-.918-.023" transform="translate(114.137 80.604)" fill="#cd1f38"/>
            <path id="Trazado_124474" data-name="Trazado 124474" d="M55.369,50.771c-.208-2.548-.174-5.1-.154-7.657,0-.288-.094-.6.151-.852.165-.009.328-.014.493-.02a20.362,20.362,0,0,0,.034,8.683l-.525-.154" transform="translate(102.146 78.171)" fill="#c72737"/>
            <path id="Trazado_124475" data-name="Trazado 124475" d="M56.289,68.322a22.2,22.2,0,0,1,2.278-7.582,29.671,29.671,0,0,1,4.837-6.71,71.554,71.554,0,0,1,7.6-6.873,49.691,49.691,0,0,0,6.827-6.978c1.822-2.155,3.529-4.4,5.154-6.7.322-.462.547-.391.815.077a5.561,5.561,0,0,1-.4,5.7,17.662,17.662,0,0,1-3.412,3.577c-.353.285-.3.413.12.587a5.18,5.18,0,0,1,2.6,2,2.7,2.7,0,0,1-.359,3.227,12.918,12.918,0,0,1-4.752,2.9A42.794,42.794,0,0,1,70.773,53.9a3.42,3.42,0,0,0-.473.271c1.12,0,2.024.017,2.922-.006a9.076,9.076,0,0,1,3.036.5c1.87.6,2.286,1.739,1.229,3.406a9.741,9.741,0,0,1-3,2.705,52.841,52.841,0,0,1-8.637,4.356c-2.808,1.22-5.721,2.169-8.58,3.252-.328-.02-.653-.037-.978-.057" transform="translate(104.164 61.373)" fill="#b9b000"/>
            <path id="Trazado_124476" data-name="Trazado 124476" d="M55.349,51.076a43.848,43.848,0,0,1-.57,5.9,18.584,18.584,0,0,0,1.454,10.712c.487,1.063,1.063,2.084,1.562,3.138.564,1.2.154,1.827-1.18,1.77a4.871,4.871,0,0,1-3.483-2.181c-2.947-3.543-4.37-7.742-5.162-12.214a48.381,48.381,0,0,1-.425-5.912,7.311,7.311,0,0,1,1.274-4.547,4.355,4.355,0,0,1,4.113-1.408,2.938,2.938,0,0,1,2.212,2.637,7.23,7.23,0,0,1,.205,2.107" transform="translate(87.961 85.588)" fill="#f28591"/>
            <path id="Trazado_124477" data-name="Trazado 124477" d="M57.4,58.617a1.75,1.75,0,0,1-.8,1.576,5.363,5.363,0,0,1-3.366,1.012,1.777,1.777,0,0,1-1.856-1.933,3.263,3.263,0,0,1,1.8-2.9,2.913,2.913,0,0,1,3.281.319,2.172,2.172,0,0,1,.932,1.921" transform="translate(95.068 103.656)" fill="#f28591"/>
          </g>
        </g>
      </g>
    </g>
    <rect id="Rectángulo_35987" data-name="Rectángulo 35987" width="190" height="243" transform="translate(390 964)" fill="none"/>
  </g>
</svg>
