<svg xmlns="http://www.w3.org/2000/svg" xmlns:xlink="http://www.w3.org/1999/xlink" width="125" height="127.971" viewBox="0 0 125 127.971">
  <defs>
    <clipPath id="clip-path">
      <rect id="Rectángulo_35804" data-name="Rectángulo 35804" width="105" height="104.998" fill="none"/>
    </clipPath>
  </defs>
  <g id="Grupo_87711" data-name="Grupo 87711" transform="translate(-738 -1947)">
    <circle id="Elipse_4824" data-name="Elipse 4824" cx="62.5" cy="62.5" r="62.5" transform="translate(738 1947)" fill="#fed947"/>
    <g id="Grupo_87710" data-name="Grupo 87710" transform="translate(748 1969.974)">
      <g id="Grupo_87710-2" data-name="Grupo 87710" clip-path="url(#clip-path)">
        <path id="Trazado_123268" data-name="Trazado 123268" d="M104.832,109.988c-.442,4.67-4.817,8.7-9.715,8.948-.375.019-.751.02-1.127.02-25.318,0-50.637.074-75.955-.048C11.271,118.876,5.7,116.1,2.3,109.949a19.746,19.746,0,0,1-2.22-11.3c.357-4.565,3.231-7.154,7.355-8.62,2.2-.781,4.5-.734,6.761-1.007a29.449,29.449,0,0,0,5.516-1.042,4.423,4.423,0,0,1,1.216-.518,59.347,59.347,0,0,0,13.436-5.721c.848-.5.843-.511.014-1.088-1.382-.958-1.728-2.045-.979-3.065a1.866,1.866,0,0,1,2.436-.661,22.168,22.168,0,0,1,2.575,1.475,1.1,1.1,0,0,0,1.4-.065c.728-.563,1.511-1.056,2.263-1.586.549-.387.483-.658-.046-.96-.326-.186-.652-.372-.961-.587a1.91,1.91,0,0,1-.756-2.728,2.028,2.028,0,0,1,2.778-.682,24.087,24.087,0,0,1,2.2,1.306,1.206,1.206,0,0,0,1.663-.142,14.316,14.316,0,0,1,1.234-1.077c.382-.286.326-.55-.062-.791-.609-.379-1.24-.721-1.838-1.116a2.08,2.08,0,0,1-.756-2.771A1.925,1.925,0,0,1,48.2,66.5a18.8,18.8,0,0,1,2.652,1.545,1.176,1.176,0,0,0,1.713-.145c.1-.1-.027.021.08-.064,1.747-1.386,1.747-1.389-.171-2.54A5.27,5.27,0,0,1,50.95,64.1a1.749,1.749,0,0,1-.063-2.266,1.87,1.87,0,0,1,2.157-.741,14.118,14.118,0,0,1,3.038,1.683,1.135,1.135,0,0,0,1.754-.271c.5-.649,1.086-1.227,1.61-1.854a5.732,5.732,0,0,1,3.344-2.03c1.877-.435,3.423.382,4.944,1.3.748.476,1.522.911,2.272,1.384a5.554,5.554,0,0,1,2.35,7.091c-.842,2.124-1.772,4.213-2.7,6.3-.336.759-.14,1.049.62,1.173a13.5,13.5,0,0,0,1.9.377,52.678,52.678,0,0,0,10.616.585,2.25,2.25,0,0,0,1.613-.759,22.865,22.865,0,0,0,5.542-9.333c.135-.422.266-.848.373-1.279a5.627,5.627,0,0,1,5.164-4.541,10.059,10.059,0,0,1,3.963.231,5.289,5.289,0,0,1,4,5.289q.011,16.7-.005,33.4a2.927,2.927,0,0,0,.919,2.671c.521.4.422,1.121.637,1.684v4.716c-.24.33,0,.737-.169,1.078" transform="translate(0 -13.98)"/>
        <path id="Trazado_123269" data-name="Trazado 123269" d="M63.651,0a10.319,10.319,0,0,1,4.492,3.143q11.419,11.463,22.88,22.886a1.363,1.363,0,0,0,1.315.511,2.83,2.83,0,0,1,2.368.75,29.959,29.959,0,0,1,3.766,3.895,10.151,10.151,0,0,1-.5,13.012c-4.591,4.864-9.409,9.514-14.143,14.241a1.748,1.748,0,0,1-2.339.17,1.671,1.671,0,0,1-.53-2.454,6.316,6.316,0,0,1,.957-1.064q6.263-6.265,12.527-12.528c3.173-3.177,3.161-7.12-.024-10.313-.386-.387-.769-.775-1.159-1.158-.789-.775-.82-.781-1.626.023q-6.2,6.186-12.387,12.378c-1.074,1.072-1.909,1.133-3.052.27a2.192,2.192,0,0,1,.215-3.049c.978-1.05,2.019-2.04,3.033-3.055q4.021-4.025,8.044-8.046c.875-.877.875-.937.02-1.8-1.615-1.623-3.248-3.228-4.849-4.864a1.855,1.855,0,0,0-1.725-.606,48.978,48.978,0,0,1-5.894.689,4.949,4.949,0,0,1-3.6-1.451,15.03,15.03,0,0,0-1.413-1.337,1.517,1.517,0,0,0-2.213.046,37.265,37.265,0,0,0-4.432,4.67,56.8,56.8,0,0,1-8.828,8.224,1.607,1.607,0,0,0-.629.575,27.5,27.5,0,0,0,8.712-2.174,62.232,62.232,0,0,0,6.475-3.521,4.029,4.029,0,0,1,4.7.318A4.34,4.34,0,0,1,75.37,33.23c-.317,1.048-.75,2.054-1.106,3.087-.435,1.259-.912,2.5-1.4,3.744a2.024,2.024,0,0,1-2.85,1.316c-1.145-.912-1.333-1.441-.866-2.839.584-1.75,1.281-3.46,1.92-5.19.083-.224.164-.45.225-.681.077-.29.272-.636,0-.866-.332-.282-.643.033-.916.209a39.894,39.894,0,0,1-8.823,4.3,23.091,23.091,0,0,1-12.8.968,3.934,3.934,0,0,1-3.1-2.626c-1-2.651-2.025-5.3-3.173-7.892-.643-1.453-1.1-1.662-2.652-1.293-1.03.244-2.066.473-3.076.793a1.6,1.6,0,0,0-1.32,1.811c-.008.754.226,1.486.205,2.243-.013.469.25.581.673.478a7.87,7.87,0,0,1,1.4-.287,2.2,2.2,0,0,1,2.318,1.615,2.105,2.105,0,0,1-1.482,2.294,18.458,18.458,0,0,1-1.982.521,1.071,1.071,0,0,0-.938,1.246c0,.068,0,.137,0,.2-.034,1.887-.034,1.887,1.788,1.572a2.11,2.11,0,0,1,2.568,1.473,1.983,1.983,0,0,1-1.429,2.383,13.869,13.869,0,0,1-2.071.581,1.2,1.2,0,0,0-1.054,1.3.388.388,0,0,1,0,.1c-.108,2.035-.108,2.035,1.855,1.619A2.079,2.079,0,0,1,39.93,46.87,2.019,2.019,0,0,1,38.3,49.307a20.973,20.973,0,0,1-2.479.639,1.168,1.168,0,0,0-1.087,1.145c-.122.913-.291,1.821-.451,2.73-.1.54.106.687.616.549a6.615,6.615,0,0,1,1.711-.3,1.953,1.953,0,0,1,.726,3.813,20.864,20.864,0,0,1-2.876.745A1.707,1.707,0,0,0,33,60.1a67.985,67.985,0,0,1-2.287,7.656A2.648,2.648,0,0,1,29.6,69.417c-.565.288-1.189.619-1.749-.055-1.075-.815-1.258-1.316-.819-2.542A64.879,64.879,0,0,0,29.175,59.7c-.576.138-1.057.266-1.543.368-1.286.269-2.149-.189-2.392-1.259-.231-1.014.331-1.811,1.536-2.138.887-.241,1.779-.47,2.677-.666.364-.079.651-.171.72-.588.239-1.443.486-2.884.742-4.4a7.911,7.911,0,0,0-2.025.4c-1.26.28-2.156-.174-2.427-1.227s.33-1.862,1.591-2.192c.1-.026.2-.031.3-.056,3.427-.859,3.431-.865,3.264-4.629-.925.227-1.833.454-2.744.673a1.767,1.767,0,1,1-.9-3.383c1.054-.278,2.1-.588,3.173-.783.62-.113.765-.39.741-.958-.033-.818-.014-1.64.024-2.458.022-.486-.147-.6-.6-.47-.886.246-1.776.481-2.673.684a1.747,1.747,0,1,1-.843-3.389c1.083-.3,2.171-.594,3.272-.812.618-.123.856-.354.79-1.008-.117-1.154-.182-2.315-.21-3.475a5.175,5.175,0,0,1,4.112-5.371c1.221-.312,2.445-.61,3.67-.907a5.221,5.221,0,0,1,6.334,3.181c.939,2.262,1.84,4.541,2.724,6.826.227.585.378.8,1.035.383A46.835,46.835,0,0,0,59.8,23.328a1.979,1.979,0,0,0,.543-1.463,24.023,24.023,0,0,0-3.227-11.7c-1.79-3.075-1.5-5.136,1.025-7.686A6.451,6.451,0,0,1,61.779.175c.54-.2,1.132.084,1.667-.175Z" transform="translate(-6.019)"/>
        <path id="Trazado_123270" data-name="Trazado 123270" d="M74.935,0c-.527.33-1.11.136-1.667.175A.716.716,0,0,0,73.294,0Z" transform="translate(-17.509)" fill="#717171"/>
        <path id="Trazado_123271" data-name="Trazado 123271" d="M137.733,125.817a1.148,1.148,0,0,1,.169-1.078v1.025l-.169.053" transform="translate(-32.901 -29.809)" fill="#3f3f3f"/>
        <path id="Trazado_123272" data-name="Trazado 123272" d="M28.019,77.2a1.794,1.794,0,0,0,2.456-1.319,63.5,63.5,0,0,0,2.539-8.518,1.183,1.183,0,0,1,1.043-1.035c1.031-.231,2.061-.476,3.081-.75a1.752,1.752,0,0,0,1.489-2.174c-.222-1-1.11-1.47-2.334-1.22a12.581,12.581,0,0,0-1.485.385c-.719.241-.795-.071-.683-.678.208-1.14.409-2.284.546-3.435a.792.792,0,0,1,.726-.805c1-.217,1.989-.479,2.975-.75,1.2-.331,1.747-1.127,1.5-2.152s-1.11-1.456-2.314-1.233c-.756.14-1.669.792-2.2.328-.356-.31.038-1.408-.027-2.142-.105-1.195.419-1.734,1.57-1.85a9.255,9.255,0,0,0,1.587-.391,1.754,1.754,0,1,0-.855-3.387c-.658.149-1.311.31-2.029.48,0-1.15.014-2.205-.006-3.261-.008-.433.195-.586.587-.67.766-.164,1.526-.36,2.281-.57a1.778,1.778,0,0,0,1.476-2.1,1.8,1.8,0,0,0-2.3-1.315c-.686.134-1.521.721-2,.32-.366-.31-.17-1.284-.22-1.963-.036-.476-.1-.954-.091-1.43a1.626,1.626,0,0,1,1.244-1.677c1.346-.375,2.7-.735,4.066-1.018,1.061-.22,1.684.184,2.134,1.288,1.158,2.84,2.336,5.674,3.415,8.545a3.044,3.044,0,0,0,2.322,2.033,22.828,22.828,0,0,0,13.285-.89A38.674,38.674,0,0,0,70.575,39.5c.349-.229.706-.635,1.186-.263s.166.82.024,1.212c-.729,2.019-1.486,4.029-2.221,6.046-.464,1.274-.291,1.785.839,2.612a6.35,6.35,0,0,1-1.4,3.6,6.228,6.228,0,0,0-3.572,2.407c-.677.809-1.33,2.005-2.18,2.2s-1.8-.919-2.719-1.422c-.3-.164-.583-.355-.885-.514a1.742,1.742,0,0,0-2.482.575,1.7,1.7,0,0,0,.666,2.387,24.623,24.623,0,0,0,2.28,1.368c.636.329.591.584.1,1.008-.75.641-1.39,1.748-2.2,1.879-.731.117-1.632-.811-2.454-1.283-.444-.255-.867-.55-1.325-.775a1.674,1.674,0,0,0-2.3.656,1.716,1.716,0,0,0,.562,2.342c.765.511,1.568.966,2.368,1.423.366.209.421.384.075.667-.74.607-1.479,1.214-2.186,1.856-.34.309-.594.181-.9-.008-.873-.536-1.744-1.075-2.635-1.577a1.749,1.749,0,0,0-2.508.524,1.717,1.717,0,0,0,.695,2.457c.621.4,1.264.773,2.027,1.236-1.326.935-2.55,1.791-3.765,2.661-.314.225-.552.108-.83-.064-.871-.537-1.744-1.073-2.635-1.574A1.744,1.744,0,1,0,40.4,74.115c.454.3.928.572,1.374.845.049.253-.128.31-.269.395A60.362,60.362,0,0,1,26.3,81.81a2.287,2.287,0,0,1-.4.033L28.019,77.2" transform="translate(-6.189 -7.841)" fill="#f47c00"/>
        <path id="Trazado_123273" data-name="Trazado 123273" d="M84.647,88.861q3.025,1.269,6.148,2.276a2.236,2.236,0,0,1-.7,3.63c-1.616.862-3.326,1.538-4.989,2.307-2.517,1.164-5.125,2.12-7.622,3.328a132.888,132.888,0,0,1-14.313,5.171c-.655.193-.749-.182-.952-.575A26.789,26.789,0,0,0,49.4,92.667a24.426,24.426,0,0,0-10.791-2.419c-.358.005-.716,0-1.1,0,.128-.385.447-.386.676-.485a66.218,66.218,0,0,0,9.247-4.809,1.148,1.148,0,0,1,1.457.012c.877.59,1.8,1.116,2.715,1.64A1.763,1.763,0,1,0,53.388,83.6c-.626-.4-1.272-.773-1.97-1.194,1.257-.936,2.466-1.82,3.655-2.732.323-.248.547-.113.817.051.875.532,1.75,1.062,2.635,1.577,1.128.657,2.125.482,2.677-.449s.211-1.866-.908-2.562c-.607-.377-1.223-.741-1.952-1.182.914-.793,1.779-1.527,2.622-2.285.309-.278.543-.137.818.031.727.446,1.448.9,2.2,1.312a1.735,1.735,0,0,0,2.482-.6,1.817,1.817,0,0,0-.688-2.4c-.549-.409-1.6-.511-1.572-1.207.021-.505.865-.977,1.343-1.463.24-.244.5-.47.715-.734.272-.336.525-.313.866-.093.687.444,1.387.874,2.1,1.266a1.732,1.732,0,0,0,2.476-.619,1.777,1.777,0,0,0-.7-2.392c-.576-.431-1.673-.534-1.651-1.271.017-.555.829-1.1,1.322-1.623.393-.413.661-.964,1.236-1.188a3.57,3.57,0,0,1,2.766,4.385,36.234,36.234,0,0,1-1.874,4.651c-.616,1.482-1.232,2.965-1.9,4.422a1.84,1.84,0,0,0,.149,1.911c2.142,3.573,5.377,5.854,9.008,7.648a47.9,47.9,0,0,0,4.589,2" transform="translate(-8.963 -15.256)" fill="#fe9701"/>
        <path id="Trazado_123274" data-name="Trazado 123274" d="M17.125,129.239c-5.654-.326-11.11-5.431-12.049-11.275-.049-.3-.09-.6-.164-1.1.445.234.78.407,1.113.584a62.718,62.718,0,0,0,15.011,6.106,19.881,19.881,0,0,0,4.562.577c5.092-.011,10.185.048,15.275-.049,7.8-.149,15.244-2.085,22.513-4.785a5.857,5.857,0,0,1,2.089-.383q16.3.017,32.6.01c.374,0,.749.03,1.123.046a5.452,5.452,0,0,1-.121,4.366c-1.631-.8-3.38-.567-5.1-.572-4.3-.011-8.593,0-12.89,0a5.8,5.8,0,0,0-1.325.074,1.283,1.283,0,0,0-1.149,1.245A1.335,1.335,0,0,0,79.7,125.5a4.289,4.289,0,0,0,1.218.116c5.558-.02,11.116.051,16.673-.036.3,0,.619-.069.866.188a3.705,3.705,0,0,1-3.205,3.545q-38.66,0-77.321,0a1.854,1.854,0,0,1-.808-.072" transform="translate(-1.174 -27.928)" fill="#fedfb1"/>
        <path id="Trazado_123275" data-name="Trazado 123275" d="M48.123,116.516a29.242,29.242,0,0,1-6.68.782q-8.088.11-16.178.03c-3.468-.038-6.679-1.255-9.844-2.533A86.964,86.964,0,0,1,5.35,109.8a.919.919,0,0,1-.49-1.237,6.034,6.034,0,0,1,3.32-3.94,12.788,12.788,0,0,1,4.718-1.234c2.96-.279,5.928-.271,8.9-.258,3.106.014,6.212,0,9.318,0a15.463,15.463,0,0,1,5.321.829,22.473,22.473,0,0,1,9.543,8.056,19.791,19.791,0,0,1,2,3.447c.146.328.422.651.15,1.045" transform="translate(-1.145 -24.645)" fill="#f34335"/>
        <path id="Trazado_123276" data-name="Trazado 123276" d="M77.594,50.977l1.4-3.6a1.82,1.82,0,0,0,2.4-1.295c.815-2.17,1.622-4.343,2.393-6.53a4.1,4.1,0,0,0-1.254-4.8,4.034,4.034,0,0,0-4.954-.117,33.034,33.034,0,0,1-12.359,5.2,13.751,13.751,0,0,1-3.371.255c.712-.537,1.244-.934,1.772-1.336a57.443,57.443,0,0,0,9.149-8.781,40.441,40.441,0,0,1,3.514-3.725,1.766,1.766,0,0,1,2.784.021,8.11,8.11,0,0,1,.652.652,5.776,5.776,0,0,0,5.731,1.913c1.548-.259,3.107-.45,4.654-.711a1.093,1.093,0,0,1,1.083.35c1.919,1.946,3.839,3.892,5.806,5.789.524.505.4.765-.043,1.2q-5.783,5.74-11.53,11.516a1.87,1.87,0,0,0-.312,2.809,5.729,5.729,0,0,1-2.686,2.476,18.444,18.444,0,0,0-2.533-1.2,5.9,5.9,0,0,0-2.3-.087" transform="translate(-14.781 -6.113)" fill="#9d9d9d"/>
        <path id="Trazado_123277" data-name="Trazado 123277" d="M94.91,108.041c2.332-1.013,4.671-2.009,6.994-3.043q3.453-1.537,6.877-3.138a4.16,4.16,0,0,0,2.679-4.479c-.216-1.776-1.506-3.055-3.611-3.525a32.382,32.382,0,0,1-12.62-5.307c-.574-.428-1.1-.913-1.648-1.378-.12-.1-.216-.233-.457-.5,1.4.174,2.607.326,3.81.473,4.777.584,9.546.086,14.319-.088,2.951-.107,3.926-.2,3.764,3.458A5.122,5.122,0,0,0,117.254,95c1.342,1,2.655,2.034,4.018,3a1.522,1.522,0,0,1,.734,1.427c-.041,2.594-.051,5.191,0,7.785.018.82-.228,1.015-1.026,1.012-8.674-.028-17.348-.018-26.023-.018-.018-.056-.034-.113-.051-.169" transform="translate(-22.254 -20.713)" fill="#ced7db"/>
        <path id="Trazado_123278" data-name="Trazado 123278" d="M88.888,55.64l2.686-2.476a1.866,1.866,0,0,0,2.8-.352c4.228-4.221,8.465-8.435,12.658-12.692.594-.6.912-.543,1.408.035.509.594,1.107,1.112,1.655,1.674a6.957,6.957,0,0,1-.03,10.154c-4.375,4.413-8.784,8.793-13.174,13.19-1.061,1.063-1.1,1.767-.174,2.922-1.494.865-2.447,2.312-3.7,3.437-.259.232.132.3.189.461l-3.076-.63c1.025-2.4,2.019-4.728,3.017-7.058,1.384-3.227.609-5.646-2.384-7.466-.633-.385-1.25-.8-1.874-1.2" transform="translate(-21.242 -9.485)" fill="#dec39b"/>
        <path id="Trazado_123279" data-name="Trazado 123279" d="M125.53,66.726a7.17,7.17,0,0,1,2.731-.014,1.526,1.526,0,0,1,1.434,1.593q.011,10.383-.021,20.767c0,.024-.037.046-.135.163-.928-.71-1.886-1.4-2.79-2.153a1.944,1.944,0,0,1-.54-1.6A11.933,11.933,0,0,0,126,82.339c-.291-4.19-.077-8.387-.131-12.58a9.862,9.862,0,0,0-.336-3.033" transform="translate(-29.998 -15.913)" fill="#c71e1e"/>
        <path id="Trazado_123280" data-name="Trazado 123280" d="M94.966,88.773a24.4,24.4,0,0,1-6.733-2.858A19.264,19.264,0,0,1,81,79.035a1.647,1.647,0,0,1-.123-1.7c1.256-2.83,2.47-5.68,3.664-8.538a3.478,3.478,0,0,0-1.616-4.6c-.235-.137-.457-.294-.686-.441a1.629,1.629,0,0,1,1.906.072q1.546.9,3.072,1.836a1.814,1.814,0,0,1,.868,2.668c-1.221,2.886-2.444,5.771-3.705,8.639a2.607,2.607,0,0,0,.119,2.521,22.322,22.322,0,0,0,9.594,8.783c.3.157.586.333.879.5" transform="translate(-19.283 -15.168)" fill="#f47b00"/>
        <path id="Trazado_123281" data-name="Trazado 123281" d="M123.461,66.77c.632.2.639.769.642,1.256.02,4.6.014,9.2.014,13.8a.626.626,0,0,1-.189.555c-1.241-3.179-3.87-3.8-7.054-3.6a40.973,40.973,0,0,0,2.8-4.463,28.088,28.088,0,0,0,2.2-5.8c.217-.858.532-1.637,1.581-1.746" transform="translate(-27.929 -15.956)" fill="#f34335"/>
        <path id="Trazado_123282" data-name="Trazado 123282" d="M20.96,129.84c.819-.007,1.638-.02,2.456-.02,24.835,0,49.67-.027,74.5.053a3.771,3.771,0,0,0,3.669-2.128c.26-.453.73-.85.613-1.471a6.36,6.36,0,0,0,.617-2.4c.46-.965.114-1.988.209-2.979.041-.437.006-.88.006-1.32,1.121-.065,2.525-.463,3.276.126.666.521.2,1.986.195,3.031-.007,4.347-3.032,7.29-7.5,7.292q-24.847.013-49.694,0-13.167,0-26.333-.007a4.658,4.658,0,0,1-2.017-.179" transform="translate(-5.009 -28.529)" fill="#dec39b"/>
        <path id="Trazado_123283" data-name="Trazado 123283" d="M58.058,116.779a23.137,23.137,0,0,0-6.362-8.841,37.159,37.159,0,0,0-5.328-3.707,18.5,18.5,0,0,1,6.247,2.664,23.376,23.376,0,0,1,8.151,8.559c.3.534.476.881-.4.96a21.569,21.569,0,0,1-2.307.365" transform="translate(-11.081 -24.908)" fill="#c71e1e"/>
        <path id="Trazado_123284" data-name="Trazado 123284" d="M90.031,108.973c1.107-.947,2.54-1.228,3.813-1.835,2.756-1.317,5.573-2.507,8.339-3.8,1.6-.751,1.966-2.017,1.162-3.626l3.187.719c.345.078.67.186.706.617.03.376-.224.548-.513.683-5.5,2.572-11.01,5.106-16.695,7.246" transform="translate(-21.515 -23.827)" fill="#f27b00"/>
        <path id="Trazado_123285" data-name="Trazado 123285" d="M89.746,19.881c-.692.125-1.1.164-1.494.276a4.471,4.471,0,0,1-4.962-1.568c-1.944-2.116-4.99-2.028-7.2-.113-.513.444-.986.934-1.6,1.518-.207-1.053-.369-2-.581-2.932a27.457,27.457,0,0,0-3.154-7.848c-.731-1.244-.644-1.861.381-2.9,2.291-2.325,2.58-2.326,4.9-.011q6.377,6.376,12.756,12.749c.238.237.509.443.958.83" transform="translate(-16.794 -1.092)" fill="#c71e1e"/>
        <path id="Trazado_123286" data-name="Trazado 123286" d="M121.99,125.012a1.96,1.96,0,0,1-.617,2.4,4.111,4.111,0,0,1-1.295.25q-8.394-.015-16.787,0a1.928,1.928,0,0,1-1.842-.866,1.715,1.715,0,0,1,1.587-2.623c3.173-.028,6.346-.01,9.52-.011,2.456,0,4.913.025,7.369-.013a2.338,2.338,0,0,1,2.065.864" transform="translate(-24.179 -29.668)"/>
        <path id="Trazado_123287" data-name="Trazado 123287" d="M100.417,60a1.7,1.7,0,0,1-1.569-.962,1.577,1.577,0,0,1,.234-1.9c.5-.562,1.049-1.074,1.58-1.605q4.018-4.021,8.039-8.038a1.726,1.726,0,0,1,2.221-.412A1.65,1.65,0,0,1,111.751,49a2.005,2.005,0,0,1-.635,1.027q-4.637,4.632-9.271,9.268a1.962,1.962,0,0,1-1.428.7" transform="translate(-23.57 -11.192)"/>
      </g>
    </g>
  </g>
</svg>
