<svg xmlns="http://www.w3.org/2000/svg" xmlns:xlink="http://www.w3.org/1999/xlink" width="190" height="243" viewBox="0 0 190 243">
  <defs>
    <clipPath id="clip-path">
      <rect id="Rectángulo_35884" data-name="Rectángulo 35884" width="162.972" height="230.985" fill="none"/>
    </clipPath>
    <clipPath id="clip-path-2">
      <rect id="Rectángulo_35870" data-name="Rectángulo 35870" width="162.97" height="230.985" fill="none"/>
    </clipPath>
    <clipPath id="clip-path-3">
      <path id="Trazado_124420" data-name="Trazado 124420" d="M45.82,56.623l-1.863,1.022-5.295,2.973L36.8,60.253,12.646,46.8v159.2h.03a3.646,3.646,0,0,0,2.1,2.913l17.2,9.9a10.062,10.062,0,0,0,5.1,1.414,15.3,15.3,0,0,0,6.878-1.915,7.592,7.592,0,0,0,1-.5c.277-.166.555-.308.859-.5a4.111,4.111,0,0,0,.494-.28l.639-.359,6.326-3.661,84.176-48.593V5.334Z" transform="translate(-12.646 -5.334)" fill="none"/>
    </clipPath>
    <linearGradient id="linear-gradient" x1="-0.306" y1="1" x2="-0.281" y2="1" gradientUnits="objectBoundingBox">
      <stop offset="0" stop-color="#ac5d0e"/>
      <stop offset="0.156" stop-color="#9e4e10"/>
      <stop offset="0.24" stop-color="#b5670d"/>
      <stop offset="1" stop-color="#b5640d"/>
    </linearGradient>
    <clipPath id="clip-path-5">
      <path id="Trazado_124423" data-name="Trazado 124423" d="M15.23,53.033v1.079l22.693,13.1,77.525-52.275L106.429,2.838V.411Z" transform="translate(-15.23 -0.411)" fill="none"/>
    </clipPath>
    <linearGradient id="linear-gradient-2" x1="-0.458" y1="3.439" x2="-0.428" y2="3.439" gradientUnits="objectBoundingBox">
      <stop offset="0" stop-color="#664220"/>
      <stop offset="0.995" stop-color="#814f1e"/>
      <stop offset="1" stop-color="#814f1e"/>
    </linearGradient>
    <clipPath id="clip-path-7">
      <rect id="Rectángulo_35874" data-name="Rectángulo 35874" width="95.854" height="55.25" fill="none"/>
    </clipPath>
    <clipPath id="clip-path-8">
      <rect id="Rectángulo_35875" data-name="Rectángulo 35875" width="91.226" height="52.644" fill="none"/>
    </clipPath>
    <clipPath id="clip-path-9">
      <path id="Trazado_124429" data-name="Trazado 124429" d="M12.646,44.311v.473h.03A3.666,3.666,0,0,0,14.754,47.7l17.193,9.9c3.362,1.909,6.962,1.993,12.01-.5V37.684a14.451,14.451,0,0,1-7.791,1.854,9.858,9.858,0,0,1-4.218-1.354L26.4,34.994,14.754,28.282A3.914,3.914,0,0,1,12.646,25.7Z" transform="translate(-12.646 -25.701)" fill="none"/>
    </clipPath>
    <linearGradient id="linear-gradient-3" x1="-1.218" y1="4.528" x2="-1.122" y2="4.528" gradientUnits="objectBoundingBox">
      <stop offset="0" stop-color="#d8981e"/>
      <stop offset="0.162" stop-color="#dda11c"/>
      <stop offset="1" stop-color="#f4a718"/>
    </linearGradient>
    <clipPath id="clip-path-10">
      <path id="Trazado_124430" data-name="Trazado 124430" d="M12.646,43.221A3.9,3.9,0,0,0,14.754,45.8L26.4,52.511,31.946,55.7a9.863,9.863,0,0,0,4.218,1.357,14.436,14.436,0,0,0,7.791-1.86V46.885a14.451,14.451,0,0,1-7.791,1.854,9.821,9.821,0,0,1-4.218-1.357L26.4,44.192,14.754,37.48A3.908,3.908,0,0,1,12.646,34.9Z" transform="translate(-12.646 -34.899)" fill="none"/>
    </clipPath>
    <linearGradient id="linear-gradient-4" x1="-1.218" y1="5.618" x2="-1.122" y2="5.618" xlink:href="#linear-gradient-3"/>
    <clipPath id="clip-path-11">
      <path id="Trazado_124431" data-name="Trazado 124431" d="M12.646,70.814A3.9,3.9,0,0,0,14.754,73.4L26.4,80.11,31.946,83.3a9.863,9.863,0,0,0,4.218,1.357A14.429,14.429,0,0,0,43.956,82.8V74.475a14.436,14.436,0,0,1-7.791,1.86,9.867,9.867,0,0,1-4.218-1.36L26.4,71.788,14.754,65.073a3.9,3.9,0,0,1-2.108-2.578Z" transform="translate(-12.646 -62.495)" fill="none"/>
    </clipPath>
    <linearGradient id="linear-gradient-5" x1="-1.218" y1="1.901" x2="-1.122" y2="1.901" xlink:href="#linear-gradient-3"/>
    <clipPath id="clip-path-13">
      <rect id="Rectángulo_35880" data-name="Rectángulo 35880" width="36.05" height="21.148" fill="none"/>
    </clipPath>
    <clipPath id="clip-path-14">
      <rect id="Rectángulo_35881" data-name="Rectángulo 35881" width="47.575" height="27.911" fill="none"/>
    </clipPath>
    <clipPath id="clip-path-15">
      <rect id="Rectángulo_35882" data-name="Rectángulo 35882" width="10.179" height="149.556" fill="none"/>
    </clipPath>
  </defs>
  <g id="Grupo_88135" data-name="Grupo 88135" transform="translate(-600 -964)">
    <g id="Grupo_88023" data-name="Grupo 88023" transform="translate(-2.43)">
      <g id="Grupo_87395" data-name="Grupo 87395" transform="translate(0 45.434)">
        <path id="Rectángulo_34436" data-name="Rectángulo 34436" d="M0,0H96a77,77,0,0,1,77,77V184.116a0,0,0,0,1,0,0H0a0,0,0,0,1,0,0V0A0,0,0,0,1,0,0Z" transform="translate(612 954.362)" fill="#a6bbff"/>
        <g id="Grupo_87372" data-name="Grupo 87372" transform="translate(618.834 955.577)">
          <path id="Trazado_114646" data-name="Trazado 114646" d="M151.4,72.681c-1.152,17.828-14.827,34.849-33.347,35.905-21.272,1.63-40.8-10.036-61.986-10.159-10.8-.926-20.938,3.211-31.467,4.547C.823,103.846-2.8,75.9,1.635,57.886,20.34-27.038,152.7-15.484,151.4,72.681Z" transform="translate(1.291 13.295)" fill="#e1e8ff"/>
        </g>
      </g>
      <g id="Grupo_88020" data-name="Grupo 88020" transform="translate(617 964.154)">
        <g id="Grupo_87968" data-name="Grupo 87968" clip-path="url(#clip-path)">
          <g id="Grupo_87936" data-name="Grupo 87936" transform="translate(0 0)">
            <g id="Grupo_87935" data-name="Grupo 87935" clip-path="url(#clip-path-2)">
              <path id="Trazado_124411" data-name="Trazado 124411" d="M57.618,50.3c3.32,1.251,4.722,4.04,5.651,7.158A31.785,31.785,0,0,1,64.1,70.127,42.537,42.537,0,0,1,57.509,89.1c-4.233,6.45-9.911,11.012-17.621,12.453C27.454,103.88,13.149,99.55,5.24,85.8A38.249,38.249,0,0,1,.226,62.23,24.42,24.42,0,0,1,6.211,47.908a10.444,10.444,0,0,1,8.331-3.615c5,.154,8.814,2.738,12.284,6.006a17,17,0,0,0,3.148,2.379,5.32,5.32,0,0,0,1.212.576c.2.066.4.133.6.187a15.191,15.191,0,0,0,2.563.591q.479.023.959.018c3.645.187,7.1-.769,10.544-1.779q2.347-.687,4.637-1.55a2.226,2.226,0,0,0,1.013-.1,23.111,23.111,0,0,1,3.709-.7,3.765,3.765,0,0,1,2.406.38" transform="translate(0 89.255)" fill="#e93548"/>
              <path id="Trazado_124412" data-name="Trazado 124412" d="M13.579,75.767a7.484,7.484,0,0,1-2.554-.633,1.277,1.277,0,0,1-.407-.832,20.213,20.213,0,0,1-.03-7.508,1.625,1.625,0,0,1,.4-.841,23.262,23.262,0,0,1,6.549-10.87A61.835,61.835,0,0,1,25.6,49.031,133.276,133.276,0,0,0,40.65,37.205a42.129,42.129,0,0,0,3.4-3.606A17.761,17.761,0,0,1,45,37.269,39.179,39.179,0,0,1,45.345,50.4,28.722,28.722,0,0,1,34.439,69.354c-.223.175-.431.374-.645.561a9.886,9.886,0,0,1-3.965,2.494c-4.592,1.833-9.266,3.32-14.271,3.449-.314.009-.63-.018-.944-.03.03-.431.416-.437.687-.525a106.472,106.472,0,0,0,13.357-5.4,23.527,23.527,0,0,0,6.462-4.248A4.331,4.331,0,0,0,36.184,64a1.609,1.609,0,0,0-.965-2.255,8.969,8.969,0,0,0-3.356-.718c-.923-.015-1.842.015-2.765-.015-.244-.009-.585.027-.63-.3-.036-.265.262-.362.476-.419a48.889,48.889,0,0,0,5.4-1.794c2.3-.9,4.646-1.743,6.45-3.546a2.684,2.684,0,0,0-.241-4.215,7.748,7.748,0,0,0-1.523-.977c-.989-.488-.992-.624-.208-1.351a18.7,18.7,0,0,0,3.3-3.627,5.546,5.546,0,0,0,.633-5.1c-.332-.9-.555-.914-1.1-.154-1.3,1.8-2.611,3.585-4.025,5.292a67.877,67.877,0,0,1-10.077,10.14,45.221,45.221,0,0,0-10.1,10.68,21.944,21.944,0,0,0-3.495,9.2,1.245,1.245,0,0,1-.383.929" transform="translate(20.659 67.71)" fill="#c9cd36"/>
              <path id="Trazado_124413" data-name="Trazado 124413" d="M14.986,68.525A4.609,4.609,0,0,1,13.78,68a19.12,19.12,0,0,1-1.872-4.336c-.485-1.2-.835-2.445-1.242-3.673a.943.943,0,0,1-.033-.829A53.579,53.579,0,0,1,8.054,46.523a15.009,15.009,0,0,1,.519-5.551,10.356,10.356,0,0,1,.552-1.354,2.778,2.778,0,0,1,2.331-1.755A49.5,49.5,0,0,0,16.7,36.847c.645-.148.645.033.561.561-.678,4.258-1.263,8.533-1.676,12.827a76.519,76.519,0,0,0-.6,9.29,8.024,8.024,0,0,1-.021,2.644,24.939,24.939,0,0,0,.163,5.041c.063.422.223.914-.139,1.315" transform="translate(16.143 74.156)" fill="#5c4e00"/>
              <path id="Trazado_124414" data-name="Trazado 124414" d="M17.056,44.286c.923,2.991,2.044,5.91,3.145,8.838-2.216-1.116-3.745-3.094-5.675-4.568A20.4,20.4,0,0,0,6.074,44.7c-.416-.081-.871.121-1.251-.184a74.2,74.2,0,0,1,10.767-.241c.488.021.977.012,1.465.015" transform="translate(9.719 89.036)" fill="#cc1e38"/>
              <path id="Trazado_124415" data-name="Trazado 124415" d="M16.744,48.134l3.965-2.491a12.16,12.16,0,0,1,3.166,1.93,14.173,14.173,0,0,0-6.16.585c-.335.078-.654.244-.971-.024" transform="translate(33.743 91.981)" fill="#cd1f38"/>
              <path id="Trazado_124416" data-name="Trazado 124416" d="M10.445,53.35c-.22-2.7-.184-5.4-.163-8.1,0-.3-.1-.639.16-.9.175-.009.347-.015.522-.021A21.538,21.538,0,0,0,11,53.512l-.555-.163" transform="translate(20.685 89.331)" fill="#c72737"/>
              <path id="Trazado_124417" data-name="Trazado 124417" d="M11.355,72.439a23.482,23.482,0,0,1,2.409-8.021,31.386,31.386,0,0,1,5.117-7.1,75.367,75.367,0,0,1,8.042-7.27,52.563,52.563,0,0,0,7.221-7.381c1.927-2.28,3.733-4.649,5.452-7.089.341-.488.576-.413.862.081a5.882,5.882,0,0,1-.428,6.03,18.681,18.681,0,0,1-3.609,3.784c-.374.3-.314.437.127.621A5.479,5.479,0,0,1,39.3,48.208a2.851,2.851,0,0,1-.38,3.413,13.664,13.664,0,0,1-5.026,3.069,45.268,45.268,0,0,1-7.218,2.491,3.616,3.616,0,0,0-.5.286c1.185,0,2.141.018,3.091-.006a9.6,9.6,0,0,1,3.211.525c1.978.63,2.418,1.839,1.3,3.6A10.3,10.3,0,0,1,30.6,64.452a55.894,55.894,0,0,1-9.136,4.607c-2.97,1.291-6.052,2.295-9.076,3.44-.347-.021-.69-.039-1.034-.06" transform="translate(22.883 71.038)" fill="#b9b000"/>
              <path id="Trazado_124418" data-name="Trazado 124418" d="M10.866,53.441a46.38,46.38,0,0,1-.6,6.239A19.657,19.657,0,0,0,11.8,71.01c.516,1.125,1.125,2.2,1.652,3.32.6,1.266.163,1.933-1.248,1.872-1.646-.069-2.726-1.155-3.685-2.307C5.4,70.148,3.9,65.707,3.06,60.976a51.175,51.175,0,0,1-.449-6.254,7.733,7.733,0,0,1,1.348-4.809,4.607,4.607,0,0,1,4.351-1.49,3.108,3.108,0,0,1,2.34,2.789,7.647,7.647,0,0,1,.217,2.228" transform="translate(5.238 97.409)" fill="#f28591"/>
              <path id="Trazado_124419" data-name="Trazado 124419" d="M12.809,60.854a1.851,1.851,0,0,1-.841,1.667,5.673,5.673,0,0,1-3.561,1.07,1.88,1.88,0,0,1-1.963-2.044,3.452,3.452,0,0,1,1.909-3.063,3.082,3.082,0,0,1,3.471.338,2.3,2.3,0,0,1,.986,2.032" transform="translate(12.977 117.087)" fill="#f28591"/>
            </g>
          </g>
          <g id="Grupo_87938" data-name="Grupo 87938" transform="translate(38.131 16.083)">
            <g id="Grupo_87937" data-name="Grupo 87937" clip-path="url(#clip-path-3)">
              <rect id="Rectángulo_35871" data-name="Rectángulo 35871" width="124.81" height="214.902" transform="translate(0 0)" fill="url(#linear-gradient)"/>
            </g>
          </g>
          <g id="Grupo_87940" data-name="Grupo 87940" transform="translate(0 0)">
            <g id="Grupo_87939" data-name="Grupo 87939" clip-path="url(#clip-path-2)">
              <path id="Trazado_124421" data-name="Trazado 124421" d="M24.893,18.318V192.5c-.308.19-.582.332-.859.5a7.956,7.956,0,0,1-1,.5V17.652Z" transform="translate(46.411 35.573)" fill="#8b4d00"/>
              <path id="Trazado_124422" data-name="Trazado 124422" d="M101.737,14.413,110.764,2.8h-.027V2.774l.914-1.553L109.513,0,14.768,54.781c-2.825,1.658-2.825,4.3,0,5.964l17.2,9.917c3.859,2.2,8.014,2,14.34-1.776l6.935-4.065Z" transform="translate(25.491 0)" fill="#c17619"/>
            </g>
          </g>
          <g id="Grupo_87942" data-name="Grupo 87942" transform="translate(45.922 1.239)">
            <g id="Grupo_87941" data-name="Grupo 87941" clip-path="url(#clip-path-5)">
              <rect id="Rectángulo_35873" data-name="Rectángulo 35873" width="100.217" height="66.796" transform="translate(0 0)" fill="url(#linear-gradient-2)"/>
            </g>
          </g>
          <g id="Grupo_87950" data-name="Grupo 87950" transform="translate(0 0)">
            <g id="Grupo_87949" data-name="Grupo 87949" clip-path="url(#clip-path-2)">
              <path id="Trazado_124424" data-name="Trazado 124424" d="M42.418,30.458l-4.5,2.593L15.23,19.956l4.5-2.6Z" transform="translate(30.691 34.984)" fill="#d8d8d8"/>
              <path id="Trazado_124425" data-name="Trazado 124425" d="M16.728,50.541l.115.054,9.709,5.632L31.1,58.836l1.134.663,4.077,2.358,3.082,1.776.03.027,83.706-48.316,2.081-1.221.078-.054.142-.084-.142-.057-2.991-1.746-5.186-2.967-4.5-2.632h-.03L102.735.922l-.024-.03L88.15,9.271l-5.132,3L17.536,50.1Z" transform="translate(33.711 1.798)" fill="#e9e9e9"/>
              <g id="Grupo_87945" data-name="Grupo 87945" transform="translate(50.439 2.721)" opacity="0.1" style="mix-blend-mode: multiply;isolation: isolate">
                <g id="Grupo_87944" data-name="Grupo 87944">
                  <g id="Grupo_87943" data-name="Grupo 87943" clip-path="url(#clip-path-7)">
                    <path id="Trazado_124426" data-name="Trazado 124426" d="M16.728,50.524l9.736,5.629L112.582,6.559,102.735.9l-13.752,7.9L83.826,11.8l-.808.446Z" transform="translate(-16.728 -0.902)" fill="#dcdbe4"/>
                  </g>
                </g>
              </g>
              <g id="Grupo_87948" data-name="Grupo 87948" transform="translate(64.794 10.983)" opacity="0.1" style="mix-blend-mode: multiply;isolation: isolate">
                <g id="Grupo_87947" data-name="Grupo 87947">
                  <g id="Grupo_87946" data-name="Grupo 87946" clip-path="url(#clip-path-8)">
                    <path id="Trazado_124427" data-name="Trazado 124427" d="M112.715,6.612l-5.192-2.97-.024.03-.2.081L21.489,53.291l1.14.666,4.08,2.331,85.753-49.54.223-.109Z" transform="translate(-21.489 -3.643)" fill="#dcdbe4"/>
                  </g>
                </g>
              </g>
              <path id="Trazado_124428" data-name="Trazado 124428" d="M111.871,6.206,27.631,54.884l-2.273-1.306L109.621,4.931Z" transform="translate(51.101 9.937)" fill="#c17619"/>
            </g>
          </g>
          <g id="Grupo_87952" data-name="Grupo 87952" transform="translate(38.131 77.494)">
            <g id="Grupo_87951" data-name="Grupo 87951" clip-path="url(#clip-path-9)">
              <rect id="Rectángulo_35877" data-name="Rectángulo 35877" width="31.31" height="33.891" transform="translate(0 0)" fill="url(#linear-gradient-3)"/>
            </g>
          </g>
          <g id="Grupo_87954" data-name="Grupo 87954" transform="translate(38.131 105.229)">
            <g id="Grupo_87953" data-name="Grupo 87953" clip-path="url(#clip-path-10)">
              <rect id="Rectángulo_35878" data-name="Rectángulo 35878" width="31.31" height="22.382" transform="translate(0 0)" fill="url(#linear-gradient-4)"/>
            </g>
          </g>
          <g id="Grupo_87956" data-name="Grupo 87956" transform="translate(38.131 188.437)">
            <g id="Grupo_87955" data-name="Grupo 87955" clip-path="url(#clip-path-11)">
              <rect id="Rectángulo_35879" data-name="Rectángulo 35879" width="31.31" height="22.382" transform="translate(0 0)" fill="url(#linear-gradient-5)"/>
            </g>
          </g>
          <g id="Grupo_87967" data-name="Grupo 87967" transform="translate(0 0)">
            <g id="Grupo_87966" data-name="Grupo 87966" clip-path="url(#clip-path-2)">
              <g id="Grupo_87959" data-name="Grupo 87959" transform="translate(118.856 20.801)" opacity="0.5" style="mix-blend-mode: overlay;isolation: isolate">
                <g id="Grupo_87958" data-name="Grupo 87958">
                  <g id="Grupo_87957" data-name="Grupo 87957" clip-path="url(#clip-path-13)">
                    <path id="Trazado_124432" data-name="Trazado 124432" d="M39.419,28.047C58.566,16.924,75.469,6.9,75.469,6.9Z" transform="translate(-39.418 -6.899)" fill="#c1c1c1"/>
                  </g>
                </g>
              </g>
              <g id="Grupo_87962" data-name="Grupo 87962" transform="translate(71.281 41.949)" opacity="0.5" style="mix-blend-mode: overlay;isolation: isolate">
                <g id="Grupo_87961" data-name="Grupo 87961">
                  <g id="Grupo_87960" data-name="Grupo 87960" clip-path="url(#clip-path-14)">
                    <path id="Trazado_124433" data-name="Trazado 124433" d="M23.64,41.824,71.214,13.912c-17.9,10.4-37.727,21.74-47.574,26.763Z" transform="translate(-23.641 -13.912)" fill="#c1c1c1"/>
                  </g>
                </g>
              </g>
              <g id="Grupo_87965" data-name="Grupo 87965" transform="translate(59.152 69.689)" opacity="0.5" style="mix-blend-mode: overlay;isolation: isolate">
                <g id="Grupo_87964" data-name="Grupo 87964">
                  <g id="Grupo_87963" data-name="Grupo 87963" clip-path="url(#clip-path-15)">
                    <path id="Trazado_124434" data-name="Trazado 124434" d="M29.8,23.112a27.347,27.347,0,0,1-3.739,1.613,11.3,11.3,0,0,1-6.441.148,14.433,14.433,0,0,1,2.524,1.122c1.882,1.254,2.129,3.588,2.237,5.617.19,3.573-.072,141.056-.072,141.056S25.745,37.193,25.823,33.717s.452-5.711.908-6.579a4.523,4.523,0,0,1,2.491-2.373l.576-.338Z" transform="translate(-19.617 -23.113)" fill="#c1c1c1"/>
                  </g>
                </g>
              </g>
            </g>
          </g>
        </g>
      </g>
    </g>
    <rect id="Rectángulo_35986" data-name="Rectángulo 35986" width="190" height="243" transform="translate(600 964)" fill="none"/>
  </g>
</svg>
