<svg xmlns="http://www.w3.org/2000/svg" xmlns:xlink="http://www.w3.org/1999/xlink" width="125" height="125.474" viewBox="0 0 125 125.474">
  <defs>
    <clipPath id="clip-path">
      <rect id="Rectángulo_35805" data-name="Rectángulo 35805" width="105" height="102.474" fill="none"/>
    </clipPath>
  </defs>
  <g id="Grupo_87713" data-name="Grupo 87713" transform="translate(-1158 -1948)">
    <circle id="Elipse_4825" data-name="Elipse 4825" cx="62.5" cy="62.5" r="62.5" transform="translate(1158 1948)" fill="#fed947"/>
    <g id="Grupo_87712" data-name="Grupo 87712" transform="translate(1168 1971)">
      <g id="Grupo_87712-2" data-name="Grupo 87712" clip-path="url(#clip-path)">
        <path id="Trazado_123288" data-name="Trazado 123288" d="M104.193,112.861c0,4.927-.011,9.855.031,14.782.006.8-.3.913-.99.91-5.212-.025-10.424-.014-15.636-.014q-42.463,0-84.926.028c-1.1,0-1.347-.287-1.325-1.348.072-3.426.029-6.855.024-10.283a2.632,2.632,0,0,0-.1-1.162c.041-.258.255-.324.454-.4A62.984,62.984,0,0,1,18.319,111.9c9.623-.716,18.683,1.4,27.563,4.88a52.7,52.7,0,0,0,18.3,3.534c2.784.057,5.55-.019,8.319-.238a2.178,2.178,0,0,0,1.629-.668,2.276,2.276,0,0,1,2.289-.911,1.45,1.45,0,0,1,.524.349c.754.589,1.079.511,1.551-.365a1.346,1.346,0,0,1,.234-.354,2.361,2.361,0,0,1,2.27-.252,1.788,1.788,0,0,0,1.717.245c5.411-1.4,10.814-2.833,16.221-4.253q2.067-.543,4.142-1.052c.369-.091.76-.251,1.119.051" transform="translate(-0.297 -26.092)" fill="#efbf20"/>
        <path id="Trazado_123289" data-name="Trazado 123289" d="M74.172,98.248c-.289.655-.871.773-1.5.836a59.549,59.549,0,0,1-28.622-3.8,58.817,58.817,0,0,0-23.76-4.456A57.648,57.648,0,0,0,2.409,94.11c-.466.166-.957.267-1.435.4a1.083,1.083,0,0,1-.956-.993c-.067-.77.55-.99,1.072-1.279a2.523,2.523,0,0,1,1.3-.7A59.561,59.561,0,0,1,13.713,88.9c1.628-.212,1.627-.233,1.627-1.828,0-2.174.005-4.347,0-6.521,0-1.341-.032-1.364-1.361-1.74-3.908-1.106-7.844-2.108-11.754-3.2A1.825,1.825,0,0,1,1.1,75.065C.583,74.821.015,74.617.013,73.908S.5,72.93,1.077,72.75c.422-.29.828-.048,1.228.056,3.928,1.025,7.84,2.113,11.762,3.163,1.215.325,1.277.283,1.28-.973.008-2.993-.016-5.985.014-8.977a2.265,2.265,0,0,0-.979-1.995,8.783,8.783,0,0,0-11.329-.059c-.595.44-1.037,1.238-1.975,1.071-1.272-.543-1.412-1.213-.455-2.171.172-.172.33-.357.494-.536,1.059-1.554,2.739-2.139,4.394-2.654A10.951,10.951,0,0,1,14.578,60.8a.922.922,0,0,0,.606.231c.277-.286.13-.659.142-.993a61.467,61.467,0,0,1,.159-6.519c.139-.98-.5-1.018-1.2-1.018q-5.832,0-11.663,0a2.481,2.481,0,0,1-1.554-.259C.389,52.108-.078,51.732.034,51c.12-.783.732-.948,1.446-.947,4.39.011,8.781-.034,13.17.035,1.013.016,1.3-.274,1.4-1.246a43.529,43.529,0,0,1,9.043-22.493,40.246,40.246,0,0,1,4.151-4.61,3.157,3.157,0,0,1,4.748.016,43.812,43.812,0,0,1,12.954,25.2,20.448,20.448,0,0,1,.272,2.228c.032.732.334.9,1.048.9,6.924-.031,13.848-.012,20.772-.027.825,0,1.5.123,1.7,1.066.255.819-.3,1.091-.907,1.279a5,5,0,0,1-1.491.092q-9.581,0-19.164,0c-1.528,0-1.5.05-1.388,1.589.205,2.707.054,5.422.082,8.134.018,1.87.1,2.033,1.88,2.548a9.166,9.166,0,0,0,9.366-2.37,11.532,11.532,0,0,1,14.414-1.251,17.793,17.793,0,0,1,2.247,1.814,8.971,8.971,0,0,0,12.165-.265,11.744,11.744,0,0,1,6.982-3.423,11.865,11.865,0,0,1,8.278,2.245,2.136,2.136,0,0,1,.67.821c.141.153.276.313.425.458,1.044,1.021.947,1.591-.384,2.243-.541.188-.868-.2-1.226-.473a13.9,13.9,0,0,0-2.668-1.773,8.917,8.917,0,0,0-10.1,1.8,11.654,11.654,0,0,1-11.785,2.829,12.772,12.772,0,0,1-4.975-3.056,8.8,8.8,0,0,0-12.294.129,11.761,11.761,0,0,1-12.075,2.863c-.752-.225-.939-.042-.934.7.022,3.6,0,7.21.013,10.815,0,1.159.1,1.23,1.245,1.043a60.824,60.824,0,0,0,12.619-3.67,60.351,60.351,0,0,1,40.778-1.3,2.3,2.3,0,0,1,1.382.748c.581.224,1.134.5,1.072,1.247a1.08,1.08,0,0,1-1.049,1c-.583.343-1.117.023-1.638-.159A54.632,54.632,0,0,0,87.3,74.831,57.446,57.446,0,0,0,68.336,76.9c-3.411.957-6.652,2.379-10,3.5a61.847,61.847,0,0,1-9.021,2.283c-1.367.24-1.424.315-1.435,1.742-.023,3,.073,6-.054,9-.034.8.455.957,1.018,1.112a82.691,82.691,0,0,0,9.119,1.877A57.066,57.066,0,0,0,65.847,97a37.355,37.355,0,0,0,5.229-.241,9.169,9.169,0,0,1,1.815-.083c1.127.084,1.387.413,1.282,1.571" transform="translate(0 -4.827)"/>
        <path id="Trazado_123290" data-name="Trazado 123290" d="M88.624,114.612c-.113-1.193-.346-1.424-1.549-1.306a60.334,60.334,0,0,1-12.388.041,77.413,77.413,0,0,1-12.053-2.306c-.551-.15-.741-.363-.736-.941.031-3.425.021-6.85.025-10.276,0-.425-.075-.823.58-.905,6.279-.785,12.051-3.291,18-5.246a56.779,56.779,0,0,1,36.54.225c.438.146.882.272,1.324.407q-.009,5.68-.019,11.359c-.226.448-.684.481-1.088.587q-9.984,2.639-19.975,5.249c-1.006.262-1.9.552-2.3,1.619-.743-.389-1.377.274-2.086.215-1.307-.582-1.307-.582-2.2.428-.688.287-1.666-.133-2.068.85" transform="translate(-14.451 -21.191)" fill="#e7a51e"/>
        <path id="Trazado_123291" data-name="Trazado 123291" d="M118.346,88.16a62.022,62.022,0,0,0-19.076-3.387,61.317,61.317,0,0,0-24.087,4.621A54.142,54.142,0,0,1,62.748,92.81c-.449.066-.836.229-.832-.5.023-4.319.019-8.639.028-12.959a.911.911,0,0,1,.1-.25,14.541,14.541,0,0,0,3.786.983,11.865,11.865,0,0,0,9.425-3.462,9.1,9.1,0,0,1,11.952-.566c.45.35.861.75,1.288,1.128a11.359,11.359,0,0,0,15.464-.126c4.26-3.91,9.006-3.967,13.406-.147a3.39,3.39,0,0,0,1,.6q-.009,5.327-.018,10.655" transform="translate(-14.456 -17.296)" fill="#efbf20"/>
        <path id="Trazado_123292" data-name="Trazado 123292" d="M118.312,71.607a13.316,13.316,0,0,0-5.964-2.692A10.958,10.958,0,0,0,103,71.834c-3.4,3.1-7.2,3.827-10.9,2.055a11.546,11.546,0,0,1-2.677-1.928,11.307,11.307,0,0,0-15.834.049c-3.206,2.919-7.186,3.585-10.764,1.857a1.471,1.471,0,0,1-.936-1.567c.037-3.282.035-6.566-.025-9.848-.015-.822.214-1,1.006-.995,6.885.032,13.771.011,20.656.028.835,0,1.5-.124,1.65-1.095h2.077c1.105,1,1.105,1,2.208,0h2.077a3.861,3.861,0,0,0,2.7.736q11.154-.026,22.309,0c.618,0,1.3-.166,1.807.387q-.023,5.048-.046,10.1" transform="translate(-14.444 -14.099)" fill="#72c1e8"/>
        <path id="Trazado_123293" data-name="Trazado 123293" d="M1.428,91.631q5.522,1.459,11.043,2.92c.929.246,1.845.549,2.783.751.584.126.839.351.832.99-.031,2.819-.015,5.639-.011,8.459,0,.448.015.806-.626.872a58.68,58.68,0,0,0-13.815,3.166.771.771,0,0,1-.212.015q0-8.586.006-17.171" transform="translate(-0.332 -21.393)" fill="#e7a51e"/>
        <path id="Trazado_123294" data-name="Trazado 123294" d="M1.407,77.509a3.585,3.585,0,0,0,1.314-.888,9.174,9.174,0,0,1,12.7.074,1.583,1.583,0,0,1,.662,1.258q-.041,5.2,0,10.391c.005.711-.2.849-.871.663-4.6-1.278-9.2-2.526-13.808-3.783q0-3.858,0-7.714" transform="translate(-0.328 -17.301)" fill="#efbf20"/>
        <path id="Trazado_123295" data-name="Trazado 123295" d="M118.419,20.2A10.3,10.3,0,1,1,108.18,9.888,10.311,10.311,0,0,1,118.419,20.2" transform="translate(-22.84 -2.308)"/>
        <path id="Trazado_123296" data-name="Trazado 123296" d="M1.4,61.841q7.01-.018,14.02-.038c.386,0,.691,0,.688.538-.017,2.993-.008,5.987-.008,9.19a12.389,12.389,0,0,0-4.965-2.241A11.408,11.408,0,0,0,2.15,71.459c-.23.166-.47.315-.706.473L1.4,61.841" transform="translate(-0.326 -14.429)" fill="#71c1e8"/>
        <path id="Trazado_123297" data-name="Trazado 123297" d="M71.741,49.789a1.066,1.066,0,0,1-1.053-.975A4.993,4.993,0,0,0,67,44.436a1.015,1.015,0,0,1-.745-1.056,1.063,1.063,0,0,1,.849-1.1c2.115-.533,3.048-2.055,3.474-4.036.141-.656.405-1.266,1.2-1.281s1.1.561,1.243,1.23c.433,2.018,1.378,3.57,3.543,4.1a1.125,1.125,0,0,1,0,2.155c-2.207.555-3.126,2.182-3.577,4.214-.145.654-.461,1.117-1.246,1.121" transform="translate(-15.468 -8.631)"/>
        <path id="Trazado_123298" data-name="Trazado 123298" d="M127.4,61.187q-12.583-.018-25.166-.027c-.834,0-1.5-.122-1.65-1.095A1.291,1.291,0,0,1,102.062,59q12.463.017,24.926,0c.714,0,1.325.166,1.444.947.113.729-.356,1.1-1.036,1.237" transform="translate(-23.482 -13.775)" fill="#010101"/>
        <path id="Trazado_123299" data-name="Trazado 123299" d="M105.043,117.656c-.242-1.156.492-1.463,1.406-1.7q10.984-2.861,21.959-5.754c.535.182,1.052.383,1.08,1.072.031.749-.57.947-1.077,1.225q-6.453,1.655-12.905,3.313c-2.925.756-5.851,1.511-8.765,2.306a1.381,1.381,0,0,1-1.7-.461" transform="translate(-24.513 -25.729)"/>
        <path id="Trazado_123300" data-name="Trazado 123300" d="M69.776,23.566c-.57,0-1.144.038-1.71-.011a.93.93,0,0,1-.847-.951.92.92,0,0,1,.636-1.007c.506-.161,1.056-.176.873-.978a1.352,1.352,0,0,0-1.066-1.182,1.3,1.3,0,0,0-1.537.678,2.239,2.239,0,0,0-.205.714c-.11.737-.543,1.1-1.257.97s-.931-.7-.861-1.38a3.537,3.537,0,0,1,5.383-2.638.965.965,0,0,0,1.269.01A3.5,3.5,0,0,1,75.806,20.3c.09.707,0,1.336-.814,1.492s-1.172-.322-1.284-1.072A1.343,1.343,0,0,0,72.2,19.407a1.309,1.309,0,0,0-1.279,1.213c-.084.455-.105.822.551.882a.97.97,0,0,1,.938,1.187c-.092.686-.586.924-1.237.911-.464-.009-.928,0-1.392,0v-.034" transform="translate(-14.893 -4.025)"/>
        <path id="Trazado_123301" data-name="Trazado 123301" d="M14.27,23.564c-.57,0-1.144.038-1.709-.011a.909.909,0,0,1-.845-.947.933.933,0,0,1,.621-1.018c.47-.168,1.119-.1.9-.945-.182-.688-.519-1.176-1.274-1.235a1.3,1.3,0,0,0-1.463.975,5.2,5.2,0,0,0-.109.524,1,1,0,0,1-1.227.9c-.694-.112-.882-.625-.862-1.267a3.5,3.5,0,0,1,5.263-2.813,1.167,1.167,0,0,0,1.455.015,3.533,3.533,0,0,1,5.308,2.653c.075.678-.115,1.258-.836,1.4-.769.15-1.191-.26-1.293-1.046A1.34,1.34,0,0,0,16.7,19.407,1.279,1.279,0,0,0,15.4,20.7c-.041.419-.046.746.539.8a.978.978,0,0,1,.956,1.18c-.089.67-.58.931-1.234.918-.464-.01-.928,0-1.392,0v-.034" transform="translate(-1.937 -4.023)"/>
        <path id="Trazado_123302" data-name="Trazado 123302" d="M54.668,11.278c-.57,0-1.142.03-1.709-.008a.921.921,0,0,1-.905-.888.917.917,0,0,1,.643-1.1c.523-.149,1.046-.185.862-.958a1.379,1.379,0,0,0-1.173-1.211,1.307,1.307,0,0,0-1.491.773,2.658,2.658,0,0,0-.139.617c-.141.688-.524,1.115-1.262.995-.68-.11-.888-.6-.873-1.257A3.5,3.5,0,0,1,53.871,5.42,1.264,1.264,0,0,0,55.432,5.4a3.5,3.5,0,0,1,5.193,2.563c.087.73,0,1.42-.891,1.538-.8.107-1.144-.406-1.234-1.144a1.3,1.3,0,0,0-1.233-1.253,1.22,1.22,0,0,0-1.388.763c-.218.565-.566,1.23.532,1.362a.921.921,0,0,1,.809,1.082.976.976,0,0,1-1.055.974c-.5.023-1,0-1.5,0v-.016" transform="translate(-11.352 -1.153)"/>
        <path id="Trazado_123303" data-name="Trazado 123303" d="M112,2.16c0,.356.015.713,0,1.069A.989.989,0,0,1,110.925,4.3a1.008,1.008,0,0,1-1.059-1.092,21.11,21.11,0,0,1,0-2.136A1.064,1.064,0,1,1,112,1.091c.014.356,0,.712,0,1.069" transform="translate(-25.644 0)" fill="#020202"/>
        <path id="Trazado_123304" data-name="Trazado 123304" d="M112,43.275c0,.356.014.713,0,1.069a1.059,1.059,0,0,1-2.117.028,17.1,17.1,0,0,1,0-2.242,1.064,1.064,0,1,1,2.126.077c.008.356,0,.712,0,1.069" transform="translate(-25.643 -9.592)" fill="#020202"/>
        <path id="Trazado_123305" data-name="Trazado 123305" d="M131.087,24.128c-.39-.018-.785-.008-1.171-.062A.982.982,0,0,1,129,22.959a.94.94,0,0,1,.948-.969c.781-.034,1.566-.034,2.348-.011a1.047,1.047,0,0,1,.074,2.09,11.656,11.656,0,0,1-1.279.008c0,.018,0,.034,0,.052" transform="translate(-30.116 -5.127)" fill="#050505"/>
        <path id="Trazado_123306" data-name="Trazado 123306" d="M90.187,21.968c.285,0,.57,0,.855,0,.716,0,1.193.343,1.2,1.06a1.028,1.028,0,0,1-1.1,1.067c-.71.034-1.424.032-2.135,0a1.018,1.018,0,0,1-1.092-1.071,1,1,0,0,1,1.1-1.052c.392-.011.783,0,1.175,0" transform="translate(-20.526 -5.128)" fill="#050505"/>
        <path id="Trazado_123307" data-name="Trazado 123307" d="M125.966,39.149a.9.9,0,0,1-.691-.29c-.537-.52-1.081-1.036-1.581-1.591a1,1,0,0,1,.041-1.518.98.98,0,0,1,1.441.008,23.25,23.25,0,0,1,1.653,1.668.921.921,0,0,1,.143,1.094,1.088,1.088,0,0,1-1.007.628" transform="translate(-28.802 -8.274)" fill="#020202"/>
        <path id="Trazado_123308" data-name="Trazado 123308" d="M127.089,7.515c-.128.767-.79,1.144-1.272,1.647-.578.6-1.217,1.5-2.106.6s.028-1.518.613-2.116c.348-.356.7-.711,1.08-1.029a.941.941,0,0,1,1.1-.071,1.128,1.128,0,0,1,.584.973" transform="translate(-28.797 -1.494)" fill="#020202"/>
        <path id="Trazado_123309" data-name="Trazado 123309" d="M95.446,6.424a.834.834,0,0,1,.648.254c.583.573,1.185,1.133,1.721,1.748a.932.932,0,0,1-.1,1.35.935.935,0,0,1-1.348.122,20.127,20.127,0,0,1-1.819-1.8.958.958,0,0,1-.086-1.108.99.99,0,0,1,.98-.57" transform="translate(-22.024 -1.499)" fill="#020202"/>
        <path id="Trazado_123310" data-name="Trazado 123310" d="M95.453,39.144a1.054,1.054,0,0,1-.865-1.722c.556-.6,1.13-1.185,1.74-1.728a.93.93,0,0,1,1.272,0,.891.891,0,0,1,.334,1.217,9.219,9.219,0,0,1-2.065,2.131.889.889,0,0,1-.416.106" transform="translate(-22.024 -8.274)" fill="#020202"/>
        <path id="Trazado_123311" data-name="Trazado 123311" d="M97.2,60.074c-.119.616-.409,1.074-1.105,1.074s-.988-.457-1.1-1.075A1.123,1.123,0,0,1,96.04,59.04c.672-.029,1.014.417,1.157,1.035" transform="translate(-22.177 -13.784)" fill="#040405"/>
        <path id="Trazado_123312" data-name="Trazado 123312" d="M18.692,120.666a5.372,5.372,0,0,1-.846-.008.924.924,0,0,1-.826-1.144c.133-1.045.954-.967,1.7-.971s1.474.016,1.568,1a.928.928,0,0,1-.854,1.124,5.073,5.073,0,0,1-.74.006v0" transform="translate(-3.97 -27.676)" fill="#f7e4ae"/>
        <path id="Trazado_123313" data-name="Trazado 123313" d="M123.239,123.29a4.84,4.84,0,0,1,.746.006,1.082,1.082,0,0,1,.95,1.115c.02.7-.839,1.093-2.065,1.013-.795-.052-1.314-.453-1.256-1.263.074-1.046.93-.863,1.625-.871" transform="translate(-28.392 -28.782)" fill="#e8a71e"/>
        <path id="Trazado_123314" data-name="Trazado 123314" d="M99.463,120.4a1.169,1.169,0,0,1,.915-1.167c.634-.13.989.265,1.288.74-.013.6-.144,1.147-.832,1.3-.731.164-1.121-.257-1.371-.873" transform="translate(-23.222 -27.832)" fill="#040301"/>
        <path id="Trazado_123315" data-name="Trazado 123315" d="M46.569,55.927Q35.394,60.608,24.222,65.3c-.6.253-.911.294-.9-.509.1-5.7-.366-11.426.533-17.1A41.577,41.577,0,0,1,36.028,24.067c.829-.819,1.217-.815,2.062.032A41.646,41.646,0,0,1,50.715,53.383c.041,1.5-1.23,1.238-2.069,1.558a1.759,1.759,0,0,1-.42-1.489c-.1-9.93-3.712-18.475-10.162-25.909a2.184,2.184,0,0,0-.556-.5.69.69,0,0,0-.8-.016.7.7,0,0,0-.238.77,2.671,2.671,0,0,0,.71,1.177A37.831,37.831,0,0,1,46.591,50.7a27.374,27.374,0,0,1-.022,5.232" transform="translate(-5.437 -5.477)" fill="#fb5d3d"/>
        <path id="Trazado_123316" data-name="Trazado 123316" d="M37.027,87.469c.387.888,1.024.936,1.83.594,2.149-.911,4.309-1.8,6.467-2.691.356-.146.729-.254,1.094-.379a2.3,2.3,0,0,1,.277,1.544c.012,2.711,0,5.422.008,8.132a3.246,3.246,0,0,0,.277,1.67c.329.573.832.567,1.128-.021a4.092,4.092,0,0,0,.287-1.887q.008-4.493,0-8.988a5.273,5.273,0,0,1,.125-1.379l1.9-.785c.414-.023.33.294.33.517.007,7.208,0,14.415.014,21.623,0,.8-.4.8-.96.625q-1.528-.491-3.045-1.017A58.51,58.51,0,0,0,30.557,101.8a37.928,37.928,0,0,0-6.083-.028c-.776.084-1.187-.153-1.144-1.056.1-2.028-.078-4.062.087-6.09,2.167-1.144,4.484-1.939,6.728-2.9.757-.326,1.186-.747,1.057-1.6.438-.684,1.182-.76,1.871-.946,1.363.659,1.5.607,2.057-.769a3.561,3.561,0,0,1,1.9-.936" transform="translate(-5.446 -19.443)" fill="#fb5d3d"/>
        <path id="Trazado_123317" data-name="Trazado 123317" d="M33.088,85.969,31.2,86.78c-.487-.746-1.111-.732-1.858-.408-1.727.749-3.48,1.438-5.207,2.188-.548.238-.817.309-.809-.462.03-2.959.016-5.918.008-8.876a.729.729,0,0,1,.5-.815q11.373-4.7,22.731-9.43a1.555,1.555,0,0,1,.363,1.284c.018,2.514.013,5.028,0,7.543a1.845,1.845,0,0,1-.343,1.3c-2.838,1.21-5.671,2.434-8.518,3.623-.655.274-1.124.611-1.042,1.4-.463.618-1.26.616-1.85,1-1.38-.417-1.38-.417-2.09.842" transform="translate(-5.446 -16.104)" fill="#eee"/>
        <path id="Trazado_123318" data-name="Trazado 123318" d="M50.439,56.856a2.336,2.336,0,0,1-.145-1.259,37.5,37.5,0,0,0-8.432-24.339c-.464-.587-.977-1.135-1.469-1.7-.52-.6-.82-1.256-.1-1.857.7-.586,1.253-.1,1.734.436a39.833,39.833,0,0,1,7.311,11.493,38.152,38.152,0,0,1,3.093,14.853c0,.462.057.924.089,1.386a6.635,6.635,0,0,1-2.078.986" transform="translate(-9.307 -6.406)" fill="#fecac2"/>
        <path id="Trazado_123319" data-name="Trazado 123319" d="M23.394,94.6c.017,2,.061,4,.037,6-.008.7.2.987.918.878a37.677,37.677,0,0,1,8.824.195A50.141,50.141,0,0,1,43.5,103.638c2.146.642,4.268,1.371,6.382,2.112.581.2.737.133.737-.494q-.022-10.66-.01-21.319c0-.248.025-.507-.212-.683.094-.028.216-.108.274-.075.184.105.132.311.13.481-.056,7.811.116,15.622-.081,23.432-.018.728-.158.936-.921.637a62.564,62.564,0,0,0-15.128-4.006,46.3,46.3,0,0,0-10.233-.361c-.717.07-1.144-.017-1.144-.885a68.434,68.434,0,0,1,.1-7.881" transform="translate(-5.423 -19.418)" fill="#b15035"/>
        <path id="Trazado_123320" data-name="Trazado 123320" d="M55.554,84.3a1.68,1.68,0,0,1,.151.937q0,5.084,0,10.17a8.579,8.579,0,0,1-.111,1.169.93.93,0,0,1-1.013.887.946.946,0,0,1-1.016-.895,8.772,8.772,0,0,1-.1-1.276q-.016-5.032-.013-10.063a9.65,9.65,0,0,1,2.1-.929" transform="translate(-12.479 -19.682)" fill="#fec8c0"/>
        <path id="Trazado_123321" data-name="Trazado 123321" d="M56.076,67.688c2.253-1.207,2.253-1.207,2.253,1.244,0,2.277-.053,4.555.026,6.828.032.944-.256,1.457-1.159,1.67a11.022,11.022,0,0,0-1.1.378,1.572,1.572,0,0,1-.359-1.285c-.017-2.511-.013-5.022,0-7.533a1.854,1.854,0,0,1,.343-1.3" transform="translate(-13.01 -15.619)" fill="#ececec"/>
        <path id="Trazado_123322" data-name="Trazado 123322" d="M55.589,67.929q.01,5.06.02,10.12a7.379,7.379,0,0,1-1.946.813q-.011-5.066-.024-10.13a7.579,7.579,0,0,1,1.95-.8" transform="translate(-12.523 -15.859)" fill="#fefefe"/>
        <path id="Trazado_123323" data-name="Trazado 123323" d="M112.677,102.772c-.718.006-1.42.116-1.686-.694a.936.936,0,0,1,.33-1.152,2.629,2.629,0,0,1,2.451-.1.9.9,0,0,1,.536,1.068c-.232.886-.957.941-1.632.875" transform="translate(-25.897 -23.481)" fill="#f7e3ae"/>
        <path id="Trazado_123324" data-name="Trazado 123324" d="M88.713,110.042a2.556,2.556,0,0,1-.688-.061.971.971,0,0,1-.408-1.732,2.588,2.588,0,0,1,2.5-.107.968.968,0,0,1,.444,1.194.936.936,0,0,1-1.048.708c-.176-.018-.356,0-.8,0" transform="translate(-20.367 -25.185)" fill="#cf941c"/>
        <path id="Trazado_123325" data-name="Trazado 123325" d="M70.865,108.071c-.822.049-1.475.048-1.753-.727a.9.9,0,0,1,.475-1.176,2.586,2.586,0,0,1,2.352,0,.9.9,0,0,1,.5,1.08,1,1,0,0,1-.879.817,4.712,4.712,0,0,1-.694.006" transform="translate(-16.12 -24.721)" fill="#f7e3ae"/>
        <path id="Trazado_123326" data-name="Trazado 123326" d="M85.3,85.71a2.019,2.019,0,0,1-.6-.049,1.262,1.262,0,0,1-.6-.389.857.857,0,0,1-.035-1.161,2.52,2.52,0,0,1,2.448-.458c.434.228.895.57.726,1.157a1.155,1.155,0,0,1-1.164.9H85.3" transform="translate(-19.578 -19.496)" fill="#cf941c"/>
        <path id="Trazado_123327" data-name="Trazado 123327" d="M106.671,72.05a5.83,5.83,0,0,1-1.052-.075.944.944,0,0,1-.818-.957.921.921,0,0,1,.813-1.061,8.1,8.1,0,0,1,2.109-.023,1,1,0,0,1,.9,1.026,1.078,1.078,0,0,1-1,1.054,5.807,5.807,0,0,1-.953.009v.028" transform="translate(-24.468 -16.314)" fill="#c3e4fd"/>
        <path id="Trazado_123328" data-name="Trazado 123328" d="M127.321,67.284c-.648.037-1.558.114-1.75-.987-.132-.753.652-1.161,2.04-1.157,1.446,0,2.025.5,1.725,1.463-.174.561-.5.681-2.015.681" transform="translate(-29.314 -15.208)" fill="#c4e4fd"/>
        <path id="Trazado_123329" data-name="Trazado 123329" d="M71.692,67.56c-.728.048-1.718.047-1.738-1.047s.964-1.112,1.824-1.1c1.287.017,1.991.4,1.964,1.116-.027.685-.675,1.032-2.05,1.032" transform="translate(-16.332 -15.271)" fill="#c4e4fd"/>
        <path id="Trazado_123330" data-name="Trazado 123330" d="M11.189,82.194h.853c.485,0,.662.353.815.722a.85.85,0,0,1-.222.97,2.389,2.389,0,0,1-2.736.094,1.036,1.036,0,0,1-.343-1.151.912.912,0,0,1,.993-.64c.212.009.426,0,.639,0v0" transform="translate(-2.218 -19.188)" fill="#cf941c"/>
        <path id="Trazado_123331" data-name="Trazado 123331" d="M116.926,20.893a8.151,8.151,0,1,1-8.1-8.213,8.165,8.165,0,0,1,8.1,8.213" transform="translate(-23.493 -2.96)" fill="#fb5d3d"/>
        <path id="Trazado_123332" data-name="Trazado 123332" d="M10.172,67.557c-.98.006-1.995.127-1.995-1.037,0-1.1.942-1.118,1.8-1.111s1.931-.08,1.943,1.069-1.031,1.134-1.75,1.079" transform="translate(-1.909 -15.271)" fill="#c4e4fd"/>
        <path id="Trazado_123333" data-name="Trazado 123333" d="M73.07,46.64a9.371,9.371,0,0,0-1.759-1.805,9.377,9.377,0,0,0,1.709-1.98,9.156,9.156,0,0,0,1.656,1.957A6.726,6.726,0,0,0,73.07,46.64" transform="translate(-16.649 -10.005)" fill="#ebbc1f"/>
        <path id="Trazado_123334" data-name="Trazado 123334" d="M55.671,106.061c-.1.631.03,1.325-.707,1.589a.911.911,0,0,1-1.153-.289,2.756,2.756,0,0,1-.08-2.553.873.873,0,0,1,1.093-.448c.928.267.753,1.077.846,1.7" transform="translate(-12.481 -24.355)" fill="#fec9c1"/>
        <path id="Trazado_123335" data-name="Trazado 123335" d="M36.056,90.686c-.061-.6.008-1.151.648-1.417s1.063.126,1.442.576a1.157,1.157,0,0,1-.659,1.39c-.635.284-1.052-.106-1.43-.549" transform="translate(-8.414 -20.821)" fill="#050303"/>
      </g>
    </g>
  </g>
</svg>
