<svg xmlns="http://www.w3.org/2000/svg" xmlns:xlink="http://www.w3.org/1999/xlink" width="190" height="243" viewBox="0 0 190 243">
  <defs>
    <clipPath id="clip-path">
      <rect id="Rectángulo_35896" data-name="Rectángulo 35896" width="187.904" height="141.227" fill="none"/>
    </clipPath>
    <clipPath id="clip-path-2">
      <path id="Trazado_124436" data-name="Trazado 124436" d="M108.923,0,0,62.906l71.348,42.465,1.43.861,4.129,2.47.491,1.408.345,21.851L186.736,69.026V69a2.933,2.933,0,0,0,1.167-2.592l-.027-15.678a8,8,0,0,0-.569-2.986,5.823,5.823,0,0,0-.491-1.063,9.756,9.756,0,0,0-1.882-2.32,15.431,15.431,0,0,0-2.147-1.629,5.2,5.2,0,0,0-.737-.5c-.221-.124-.421-.272-.666-.4a1.917,1.917,0,0,0-.4-.219l-.491-.3-5.011-2.889Z" fill="none"/>
    </clipPath>
    <linearGradient id="linear-gradient" x1="0.089" y1="0.862" x2="0.1" y2="0.862" gradientUnits="objectBoundingBox">
      <stop offset="0" stop-color="#0e70ac"/>
      <stop offset="0.044" stop-color="#1079b3"/>
      <stop offset="0.156" stop-color="#1280b8"/>
      <stop offset="0.274" stop-color="#0d66b5"/>
      <stop offset="1" stop-color="#0d6eb5"/>
    </linearGradient>
    <clipPath id="clip-path-3">
      <rect id="Rectángulo_35887" data-name="Rectángulo 35887" width="187.903" height="141.227" fill="none"/>
    </clipPath>
    <clipPath id="clip-path-4">
      <path id="Trazado_124439" data-name="Trazado 124439" d="M1.678,41.605l-1.658.96L72.1,84.208l.739-.425-.007-20.716L6.4,30.656Z" transform="translate(-0.02 -30.656)" fill="none"/>
    </clipPath>
    <linearGradient id="linear-gradient-2" x1="0.094" y1="0.981" x2="0.121" y2="0.981" gradientUnits="objectBoundingBox">
      <stop offset="0" stop-color="#204e66"/>
      <stop offset="0.995" stop-color="#1e5d81"/>
      <stop offset="1" stop-color="#1e5d81"/>
    </linearGradient>
    <clipPath id="clip-path-6">
      <rect id="Rectángulo_35889" data-name="Rectángulo 35889" width="68" height="48.25" fill="none"/>
    </clipPath>
    <clipPath id="clip-path-7">
      <rect id="Rectángulo_35890" data-name="Rectángulo 35890" width="68.028" height="44.007" fill="none"/>
    </clipPath>
    <clipPath id="clip-path-8">
      <path id="Trazado_124445" data-name="Trazado 124445" d="M36.419,41.862a11.462,11.462,0,0,1,4.352,4.6,7.754,7.754,0,0,1,.737,3.423l.007,5.062.01,10.63a3.079,3.079,0,0,1-.934,2.456l5.7-3.285a3.1,3.1,0,0,0,.931-2.461l-.01-10.63L47.2,46.6a7.739,7.739,0,0,0-.737-3.426,11.377,11.377,0,0,0-4.352-4.6Z" transform="translate(-36.419 -38.575)" fill="none"/>
    </clipPath>
    <linearGradient id="linear-gradient-3" x1="-3.401" y1="1.559" x2="-3.3" y2="1.559" gradientUnits="objectBoundingBox">
      <stop offset="0" stop-color="#d8981e"/>
      <stop offset="0.162" stop-color="#dda11c"/>
      <stop offset="1" stop-color="#f4a718"/>
    </linearGradient>
    <clipPath id="clip-path-9">
      <path id="Trazado_124446" data-name="Trazado 124446" d="M67.112,24.165a11.443,11.443,0,0,1,4.352,4.6,7.763,7.763,0,0,1,.739,3.423l0,5.062.01,10.63a3.075,3.075,0,0,1-.936,2.461l5.7-3.29a3.1,3.1,0,0,0,.931-2.461l-.007-10.63L77.9,28.9a7.771,7.771,0,0,0-.739-3.423,11.424,11.424,0,0,0-4.352-4.6Z" transform="translate(-67.112 -20.878)" fill="none"/>
    </clipPath>
    <linearGradient id="linear-gradient-4" x1="-6.499" y1="2.951" x2="-6.398" y2="2.951" xlink:href="#linear-gradient-3"/>
    <clipPath id="clip-path-11">
      <rect id="Rectángulo_35894" data-name="Rectángulo 35894" width="100.825" height="58.506" fill="none"/>
    </clipPath>
  </defs>
  <g id="Grupo_88136" data-name="Grupo 88136" transform="translate(-810 -964)">
    <g id="Grupo_88024" data-name="Grupo 88024">
      <g id="Grupo_87686" data-name="Grupo 87686" transform="translate(-213)">
        <g id="Grupo_87397" data-name="Grupo 87397" transform="translate(0 45.434)">
          <path id="Rectángulo_34437" data-name="Rectángulo 34437" d="M0,0H96a77,77,0,0,1,77,77V184.116a0,0,0,0,1,0,0H0a0,0,0,0,1,0,0V0A0,0,0,0,1,0,0Z" transform="translate(1033 954.362)" fill="#a6bbff"/>
          <g id="Grupo_87372" data-name="Grupo 87372" transform="translate(1039.834 955.577)">
            <path id="Trazado_114646" data-name="Trazado 114646" d="M151.4,72.681c-1.152,17.828-14.827,34.849-33.347,35.905-21.272,1.63-40.8-10.036-61.986-10.159-10.8-.926-20.938,3.211-31.467,4.547C.823,103.846-2.8,75.9,1.635,57.886,20.34-27.038,152.7-15.484,151.4,72.681Z" transform="translate(1.291 13.295)" fill="#e1e8ff"/>
          </g>
        </g>
      </g>
      <g id="Grupo_88021" data-name="Grupo 88021" transform="translate(812 1028.908)">
        <g id="Grupo_87996" data-name="Grupo 87996" clip-path="url(#clip-path)">
          <g id="Grupo_87974" data-name="Grupo 87974">
            <g id="Grupo_87973" data-name="Grupo 87973" clip-path="url(#clip-path-2)">
              <rect id="Rectángulo_35886" data-name="Rectángulo 35886" width="228.709" height="208.234" transform="matrix(0.866, -0.5, 0.5, 0.866, -57.141, 32.992)" fill="url(#linear-gradient)"/>
            </g>
          </g>
          <g id="Grupo_87976" data-name="Grupo 87976" transform="translate(0 0.001)">
            <g id="Grupo_87975" data-name="Grupo 87975" clip-path="url(#clip-path-3)">
              <path id="Trazado_124437" data-name="Trazado 124437" d="M25.548,86.066,144.807,17.211c.253.131.457.27.681.394a7.244,7.244,0,0,1,.734.484L25.828,87.6Z" transform="translate(36.57 24.635)" fill="#00438b"/>
              <path id="Trazado_124438" data-name="Trazado 124438" d="M12.963,37.135,1.441,35.547l.012.017-.015.007-1.427-.01L.018,37.5,74.979,80.72c2.256,1.281,4.063.238,4.087-2.356l-.012-15.7c-.017-3.513-1.8-6.275-6.881-9.113L66.644,50.41Z" transform="translate(0.016 50.882)" fill="#00438b"/>
            </g>
          </g>
          <g id="Grupo_87978" data-name="Grupo 87978" transform="translate(0.049 74.538)">
            <g id="Grupo_87977" data-name="Grupo 87977" clip-path="url(#clip-path-4)">
              <rect id="Rectángulo_35888" data-name="Rectángulo 35888" width="89.839" height="82.787" transform="matrix(0.866, -0.5, 0.5, 0.866, -23.189, 13.389)" fill="url(#linear-gradient-2)"/>
            </g>
          </g>
          <g id="Grupo_87986" data-name="Grupo 87986" transform="translate(0 0.001)">
            <g id="Grupo_87985" data-name="Grupo 87985" clip-path="url(#clip-path-3)">
              <path id="Trazado_124440" data-name="Trazado 124440" d="M28.506,43.144l3.552,2.05,0,20.716-3.555-2.055Z" transform="translate(40.804 61.756)" fill="#d8d8d8"/>
              <path id="Trazado_124441" data-name="Trazado 124441" d="M68.537,86.964l-.01-.1.019-8.872-.012-4.146.007-1.041V66.275l.007-.027L2.381,28.031.72,27.088.65,27.054.54,26.99l.017.119L.543,29.852.56,34.574.533,38.693l.015.022.017,8.974-.01.029,11.491,6.66,4.08,2.329L67.915,86.589Z" transform="translate(0.763 38.634)" fill="#d8d8d8"/>
              <g id="Grupo_87981" data-name="Grupo 87981" transform="translate(1.31 77.348)" opacity="0.1" style="mix-blend-mode: multiply;isolation: isolate">
                <g id="Grupo_87980" data-name="Grupo 87980">
                  <g id="Grupo_87979" data-name="Grupo 87979" clip-path="url(#clip-path-6)">
                    <path id="Trazado_124442" data-name="Trazado 124442" d="M68.531,80.061l.007-8.894-68-39.355.017,8.974,10.847,6.3L15.5,49.43l.62.374Z" transform="translate(-0.538 -31.812)" fill="#dcdbe4"/>
                  </g>
                </g>
              </g>
              <g id="Grupo_87984" data-name="Grupo 87984" transform="translate(1.282 68.485)" opacity="0.1" style="mix-blend-mode: multiply;isolation: isolate">
                <g id="Grupo_87983" data-name="Grupo 87983">
                  <g id="Grupo_87982" data-name="Grupo 87982" clip-path="url(#clip-path-7)">
                    <path id="Trazado_124443" data-name="Trazado 124443" d="M.527,28.167l.017,4.722.034.01L.71,33,68.551,72.173l0-1.043-.017-3.71L.722,28.281l-.165-.1Z" transform="translate(-0.527 -28.167)" fill="#dcdbe4"/>
                  </g>
                </g>
              </g>
              <path id="Trazado_124444" data-name="Trazado 124444" d="M.014,25.855,66.64,64.284l.007,2.072L.029,27.895Z" transform="translate(0.02 37.009)" fill="#00438b"/>
            </g>
          </g>
          <g id="Grupo_87988" data-name="Grupo 87988" transform="translate(88.55 93.792)">
            <g id="Grupo_87987" data-name="Grupo 87987" clip-path="url(#clip-path-8)">
              <rect id="Rectángulo_35892" data-name="Rectángulo 35892" width="24.085" height="30.914" transform="matrix(0.866, -0.5, 0.5, 0.866, -12.756, 7.366)" fill="url(#linear-gradient-3)"/>
            </g>
          </g>
          <g id="Grupo_87990" data-name="Grupo 87990" transform="translate(163.178 50.763)">
            <g id="Grupo_87989" data-name="Grupo 87989" clip-path="url(#clip-path-9)">
              <rect id="Rectángulo_35893" data-name="Rectángulo 35893" width="24.088" height="30.918" transform="translate(-12.758 7.367) rotate(-30.001)" fill="url(#linear-gradient-4)"/>
            </g>
          </g>
          <g id="Grupo_87995" data-name="Grupo 87995" transform="translate(0 0.001)">
            <g id="Grupo_87994" data-name="Grupo 87994" clip-path="url(#clip-path-3)">
              <g id="Grupo_87993" data-name="Grupo 87993" transform="translate(86.483 44.367)" opacity="0.5" style="mix-blend-mode: overlay;isolation: isolate">
                <g id="Grupo_87992" data-name="Grupo 87992">
                  <g id="Grupo_87991" data-name="Grupo 87991" clip-path="url(#clip-path-11)">
                    <path id="Trazado_124447" data-name="Trazado 124447" d="M136.393,21.629a4.053,4.053,0,0,0-1.286-.151,14.786,14.786,0,0,0-4.858,2c-2.273,1.233-84.312,47.447-94.68,53.272,10.368-5.947,93.32-53.671,95.538-55.1,1.238-.839,2.641-1.828,2.913-3.406a9.709,9.709,0,0,1,1.882,2.32,5.826,5.826,0,0,1,.491,1.063" transform="translate(-35.569 -18.248)" fill="#c1c1c1"/>
                  </g>
                </g>
              </g>
              <path id="Trazado_124448" data-name="Trazado 124448" d="M66.808,43.742c2.677,1.009,3.808,3.258,4.556,5.772a25.631,25.631,0,0,1,.669,10.214,34.3,34.3,0,0,1-5.313,15.3c-3.414,5.2-7.992,8.88-14.209,10.042-10.027,1.872-21.562-1.619-27.939-12.7a30.843,30.843,0,0,1-4.043-19.009,19.692,19.692,0,0,1,4.826-11.549A8.422,8.422,0,0,1,32.073,38.9c4.029.124,7.107,2.208,9.906,4.843a13.707,13.707,0,0,0,2.538,1.918,4.29,4.29,0,0,0,.977.464c.16.053.321.107.484.151a12.251,12.251,0,0,0,2.067.477c.258.012.515.017.773.012a25.51,25.51,0,0,0,8.5-1.432q1.893-.554,3.74-1.25a1.8,1.8,0,0,0,.817-.08,18.636,18.636,0,0,1,2.991-.564,3.036,3.036,0,0,1,1.94.306" transform="translate(29.124 55.673)" fill="#e93548"/>
              <path id="Trazado_124449" data-name="Trazado 124449" d="M33.281,62.206a6.034,6.034,0,0,1-2.059-.511,1.029,1.029,0,0,1-.328-.671,16.3,16.3,0,0,1-.024-6.054,1.31,1.31,0,0,1,.323-.678,18.758,18.758,0,0,1,5.281-8.765,49.863,49.863,0,0,1,6.5-4.88A107.47,107.47,0,0,0,55.11,31.111,33.974,33.974,0,0,0,57.85,28.2a14.322,14.322,0,0,1,.768,2.959A31.6,31.6,0,0,1,58.9,41.748,23.161,23.161,0,0,1,50.1,57.035c-.18.141-.348.3-.52.452a7.972,7.972,0,0,1-3.2,2.011,33.319,33.319,0,0,1-11.508,2.782c-.253.007-.508-.015-.761-.024.024-.348.336-.353.554-.423A85.858,85.858,0,0,0,45.44,57.477a18.972,18.972,0,0,0,5.211-3.426,3.493,3.493,0,0,0,.858-1.335,1.3,1.3,0,0,0-.778-1.819,7.232,7.232,0,0,0-2.706-.579c-.744-.012-1.486.012-2.23-.012-.2-.007-.472.022-.508-.238-.029-.214.212-.292.384-.338a39.423,39.423,0,0,0,4.357-1.447,14.28,14.28,0,0,0,5.2-2.859,2.164,2.164,0,0,0-.195-3.4,6.247,6.247,0,0,0-1.228-.788c-.8-.394-.8-.5-.168-1.089A15.076,15.076,0,0,0,56.3,37.224a4.472,4.472,0,0,0,.511-4.116c-.267-.722-.447-.737-.887-.124-1.046,1.452-2.106,2.891-3.246,4.267a54.734,54.734,0,0,1-8.126,8.177,36.465,36.465,0,0,0-8.145,8.612,17.7,17.7,0,0,0-2.818,7.418,1,1,0,0,1-.309.749" transform="translate(43.798 40.37)" fill="#c9cd36"/>
              <path id="Trazado_124450" data-name="Trazado 124450" d="M33.981,56.987a3.717,3.717,0,0,1-.973-.421,15.418,15.418,0,0,1-1.51-3.5c-.391-.965-.674-1.972-1-2.961a.76.76,0,0,1-.027-.669,43.2,43.2,0,0,1-2.079-10.195,12.1,12.1,0,0,1,.418-4.476,8.352,8.352,0,0,1,.445-1.092,2.24,2.24,0,0,1,1.879-1.415,39.921,39.921,0,0,0,4.228-.819c.52-.119.52.027.452.452-.547,3.433-1.019,6.881-1.352,10.343a61.705,61.705,0,0,0-.484,7.491,6.471,6.471,0,0,1-.017,2.132,20.111,20.111,0,0,0,.131,4.065c.051.34.18.737-.112,1.06" transform="translate(40.59 44.95)" fill="#5c4e00"/>
              <path id="Trazado_124451" data-name="Trazado 124451" d="M35.033,38.87c.744,2.412,1.649,4.766,2.536,7.126-1.787-.9-3.02-2.495-4.576-3.684A16.45,16.45,0,0,0,26.178,39.2c-.336-.066-.7.1-1.009-.148a59.836,59.836,0,0,1,8.683-.195c.394.017.788.01,1.182.012" transform="translate(36.027 55.517)" fill="#cc1e38"/>
              <path id="Trazado_124452" data-name="Trazado 124452" d="M37.09,42.256l3.2-2.008A9.805,9.805,0,0,1,42.84,41.8a11.429,11.429,0,0,0-4.967.472c-.27.063-.528.2-.783-.019" transform="translate(53.091 57.611)" fill="#cd1f38"/>
              <path id="Trazado_124453" data-name="Trazado 124453" d="M30.756,46.208c-.177-2.174-.148-4.352-.131-6.531,0-.246-.08-.515.129-.727.141-.007.28-.012.421-.017a17.368,17.368,0,0,0,.029,7.406l-.447-.131" transform="translate(43.816 55.729)" fill="#c72737"/>
              <path id="Trazado_124454" data-name="Trazado 124454" d="M31.7,59.842a18.935,18.935,0,0,1,1.943-6.468,25.31,25.31,0,0,1,4.126-5.724,61.037,61.037,0,0,1,6.485-5.862,42.385,42.385,0,0,0,5.823-5.952c1.554-1.838,3.01-3.749,4.4-5.716.275-.394.464-.333.7.066a4.743,4.743,0,0,1-.345,4.863,15.064,15.064,0,0,1-2.91,3.051c-.3.243-.253.353.1.5a4.418,4.418,0,0,1,2.22,1.7,2.3,2.3,0,0,1-.306,2.752,11.019,11.019,0,0,1-4.053,2.475,36.5,36.5,0,0,1-5.821,2.008,2.916,2.916,0,0,0-.4.231c.956,0,1.726.015,2.492,0a7.741,7.741,0,0,1,2.589.423c1.6.508,1.95,1.483,1.048,2.906a8.309,8.309,0,0,1-2.56,2.307,45.071,45.071,0,0,1-7.367,3.715c-2.395,1.041-4.88,1.85-7.319,2.774l-.834-.049" transform="translate(45.378 42.734)" fill="#b9b000"/>
              <path id="Trazado_124455" data-name="Trazado 124455" d="M29.612,47.056a37.4,37.4,0,0,1-.486,5.031,15.851,15.851,0,0,0,1.24,9.137c.416.907.907,1.777,1.332,2.677.481,1.021.131,1.559-1.007,1.51a4.155,4.155,0,0,1-2.971-1.86,21.68,21.68,0,0,1-4.4-10.419,41.268,41.268,0,0,1-.362-5.043,6.236,6.236,0,0,1,1.087-3.878,3.715,3.715,0,0,1,3.509-1.2,2.506,2.506,0,0,1,1.887,2.249,6.166,6.166,0,0,1,.175,1.8" transform="translate(32.844 61.465)" fill="#f28591"/>
              <path id="Trazado_124456" data-name="Trazado 124456" d="M31.922,54.925a1.492,1.492,0,0,1-.678,1.345,4.574,4.574,0,0,1-2.872.863,1.516,1.516,0,0,1-1.583-1.648,2.783,2.783,0,0,1,1.539-2.47,2.485,2.485,0,0,1,2.8.272,1.853,1.853,0,0,1,.8,1.639" transform="translate(38.341 75.442)" fill="#f28591"/>
            </g>
          </g>
        </g>
      </g>
    </g>
    <rect id="Rectángulo_35985" data-name="Rectángulo 35985" width="190" height="243" transform="translate(810 964)" fill="none"/>
  </g>
</svg>
