<svg xmlns="http://www.w3.org/2000/svg" xmlns:xlink="http://www.w3.org/1999/xlink" width="125" height="125" viewBox="0 0 125 125">
  <defs>
    <clipPath id="clip-path">
      <rect id="Rectángulo_35806" data-name="Rectángulo 35806" width="105" height="96.895" fill="none"/>
    </clipPath>
  </defs>
  <g id="Grupo_87715" data-name="Grupo 87715" transform="translate(-738 -2269)">
    <circle id="Elipse_4818" data-name="Elipse 4818" cx="62.5" cy="62.5" r="62.5" transform="translate(738 2269)" fill="#fed947"/>
    <g id="Grupo_87714" data-name="Grupo 87714" transform="translate(748 2297)">
      <g id="Grupo_87714-2" data-name="Grupo 87714" clip-path="url(#clip-path)">
        <path id="Trazado_123336" data-name="Trazado 123336" d="M105,65.863v2.049A5.444,5.444,0,0,1,99.22,72.7c-2.4.026-2.388.031-2.991,2.365a16.075,16.075,0,0,0,.315,8.97,1.5,1.5,0,0,0,1.692,1.232,6.745,6.745,0,0,1,5.428,1.883A4.965,4.965,0,0,1,105,90.038v2.048a5.544,5.544,0,0,1-5.695,4.8c-.239.008-.478.006-.717.006H9.785a9.665,9.665,0,0,1-7.167-2.73A8.22,8.22,0,0,1,0,88.144q0-9.166,0-18.333a8.233,8.233,0,0,1,4.008-7.076,1.309,1.309,0,0,0,.644-1.816,5.741,5.741,0,0,1,5.256-7.625c.307-.026.614-.022.921-.024,1.767-.013,1.873-.086,2.358-1.742a15.557,15.557,0,0,0-.073-9.272c-.459-1.446-.5-1.485-2-1.492A7.033,7.033,0,0,1,6.654,39.54a5.45,5.45,0,0,1-2.229-5.585A5.516,5.516,0,0,1,8.506,29.41,9.623,9.623,0,0,0,10.095,29a21.594,21.594,0,0,1-2.119-2.224,16.246,16.246,0,0,1-.2-20.38A15.962,15.962,0,0,1,18.807.192,29.044,29.044,0,0,1,22.381,0q24.531,0,49.062,0a7.925,7.925,0,0,1,3.589.659,5.945,5.945,0,0,1,3.314,5.852,5.82,5.82,0,0,1-5.04,5.166c-2.412.345-2.372.353-2.841,2.769a12.561,12.561,0,0,0,.325,5.368,1.489,1.489,0,0,0,1.629,1.315,5.852,5.852,0,0,1,5.927,5.289,4.291,4.291,0,0,1-.125,1.823c-.175.646.062.862.7.861a28.655,28.655,0,0,1,4.189.173,9.241,9.241,0,0,1,8.05,9.253c.013,5.6-.014,11.2.013,16.8a9.524,9.524,0,0,1-1.314,4.981c-.5.862-.448.947.555.951,3.038.011,6.077.021,9.116,0a5.775,5.775,0,0,1,4.553,2.167A4.763,4.763,0,0,1,105,65.863" transform="translate(0)"/>
        <path id="Trazado_123337" data-name="Trazado 123337" d="M45.429,138.241c.745.687,1.479,1.385,2.235,2.059s1.546,1.278,2.636.81,1.214-1.443,1.217-2.465a3.2,3.2,0,0,1,.052-.4,1.862,1.862,0,0,1,1.357-.333q23.436-.009,46.873,0c1.372,0,1.471.117,1.382,1.219a20.187,20.187,0,0,0,.991,7.053c.182.561.123.83-.533.733a2.793,2.793,0,0,0-.409,0q-40,0-80-.01c-.41,0-.888.2-1.227-.232-.187-2.616-.034-5.236-.081-7.853-.008-.458.289-.663.669-.786a4.222,4.222,0,0,1,1.317-.121q5.926-.006,11.852,0c1.625,0,1.625.011,1.792,1.557.578,1.929,2.005,2.374,3.548,1.073.883-.745,1.714-1.553,2.568-2.333a5.222,5.222,0,0,1,3.765.029" transform="translate(-8.852 -61.318)" fill="#f8f6f7"/>
        <path id="Trazado_123338" data-name="Trazado 123338" d="M10.776,145.03a5.685,5.685,0,0,1-5.055-5.52q-.078-8.8,0-17.6a5.673,5.673,0,0,1,5.538-5.614c5.765-.1,11.532-.039,17.3-.064.546,0,.7.192.687.715-.032,1.022-.056,2.049.007,3.069.048.776-.148,1.04-.99,1.031-4.571-.046-9.144-.024-13.716-.021-2.725,0-4.078,1.355-4.081,4.086q-.008,5.629,0,11.259a3.635,3.635,0,0,0,2.83,3.968,4.015,4.015,0,0,0,1.219.061q32.811.006,65.622,0c.273,0,.547.015.818,0,.655-.042.8.313.6.831a17.3,17.3,0,0,1-1.911,3.492.891.891,0,0,1-.8.385c-.273-.007-.546,0-.818,0q-33.067,0-66.134,0a2.907,2.907,0,0,1-1.113-.072" transform="translate(-2.527 -51.691)" fill="#fedf7c"/>
        <path id="Trazado_123339" data-name="Trazado 123339" d="M49.892,11.222a1.694,1.694,0,0,0-1.1,1.486,6.667,6.667,0,0,1-4.425,0,1.727,1.727,0,0,0-1.945-1.531c-5.217.023-10.435-.033-15.651.029a7.962,7.962,0,0,0-7.953,7.19,8.091,8.091,0,0,0,5.715,8.538,9.982,9.982,0,0,0,2.21.364,3.606,3.606,0,0,0,1.116.059q16.094,0,32.188,0c1.311,0,1.414.091.988,1.308C60.6,29.9,60.4,31.263,59.3,32.18c-.2.019-.405.053-.608.053-10.573,0-21.146.038-31.718-.012a12.91,12.91,0,0,1-12.838-10.1c-1.816-7.574,4.01-15.584,11.489-15.8a2.858,2.858,0,0,1,1.013-.067c10.873,0,21.747.012,32.62-.026A1.542,1.542,0,0,1,61.03,7.493c.23.819.521,1.624.7,2.456.214.977,0,1.214-1.009,1.216-3.238,0-6.477,0-9.714,0a4.087,4.087,0,0,0-1.119.053" transform="translate(-6.14 -2.772)" fill="#fedf7c"/>
        <path id="Trazado_123340" data-name="Trazado 123340" d="M90.449,87.664c-.476.016-.953.044-1.429.045q-15.924,0-31.848.021c-.8,0-1.057-.195-1-1a19.869,19.869,0,0,0,0-3.069c-.076-.9.274-1.052,1.091-1.038,2.968.049,5.939.021,8.909.017a6.3,6.3,0,0,0,1.02-.048,1.4,1.4,0,0,0,1.257-1.5,1.379,1.379,0,0,0-1.194-1.449,6.627,6.627,0,0,0-1.221-.073q-16.949-.006-33.9.015c-1,0-1.733-.048-1.623-1.319a4.945,4.945,0,0,0-.115-1.011c.022-.484.417-.476.735-.528a8.228,8.228,0,0,1,1.329-.041q27.347,0,54.7,0c3.005,0,3.621.608,3.625,3.576,0,1.98.007,3.961,0,5.94a1.991,1.991,0,0,1-.33,1.46" transform="translate(-13.52 -34.103)" fill="#f8f6f7"/>
        <path id="Trazado_123341" data-name="Trazado 123341" d="M50.371,82.876c.3-.346.7-.158,1.049-.158q17.514-.014,35.028,0c2.961,0,4.236-1.278,4.237-4.238q0-5.582,0-11.163c0-2.539-1.389-3.926-3.921-3.926q-34.055,0-68.11,0a2.745,2.745,0,0,1-1.5-.159c.549-.5,1.228-.335,1.858-.336q19.454-.016,38.907-.008H74.3c.341,0,.682,0,1.024-.015.525-.021.756-.254.605-.787-.018-.066-.037-.131-.054-.2-.675-2.687-.878-2.844-3.666-2.844q-26.467,0-52.934-.009c-.66,0-1.379.188-1.951-.353a2.073,2.073,0,0,1,1.1-.117c23.493,0,46.985.033,70.477-.021a6.251,6.251,0,0,1,6.571,6.578q-.219,7.933,0,15.875a6.207,6.207,0,0,1-6.495,6.544c-12.566-.066-25.131-.017-37.7-.021-.293,0-.615.117-.881-.12.484-.453,1.092-.321,1.657-.321,6.653-.011,13.307-.044,19.96.024a2.469,2.469,0,0,0,2.647-1.687c.969-2.226,1.024-2.206-1.342-2.206q-10.645,0-21.29-.006a2.223,2.223,0,0,1-1.661-.326" transform="translate(-7.627 -26.036)" fill="#7edaad"/>
        <path id="Trazado_123342" data-name="Trazado 123342" d="M79.706,27.948a18.438,18.438,0,0,0,.805,5.619c-.268.22-.548.129-.8.129q-22.918.007-45.837,0a4.83,4.83,0,0,1-4.981-3.278,1.281,1.281,0,0,1,.6-1.493,5.75,5.75,0,0,1,3.692-1.3c2.288-.011,4.575,0,6.863,0q18.9,0,37.794.006a2.668,2.668,0,0,1,1.872.323" transform="translate(-12.816 -12.277)" fill="#f8f6f7"/>
        <path id="Trazado_123343" data-name="Trazado 123343" d="M15.845,58.791c.443.012.886.036,1.329.036q27.542,0,55.083-.024c.972,0,1.5.28,1.782,1.172.276.876.569,1.747.9,2.6.212.545.087.774-.5.75-.273-.011-.546,0-.819,0H16.389c-.238,0-.477.009-.716.014a2.308,2.308,0,0,1,.172-4.549" transform="translate(-6.151 -26.146)" fill="#a6e8a5"/>
        <path id="Trazado_123344" data-name="Trazado 123344" d="M126.479,134.26c.078-.927-.525-.894-1.183-.893q-24.215.012-48.429,0c-.018-1.123.014-2.249-.07-3.367-.067-.888.153-1.19,1.129-1.183,6.648.051,13.3.013,19.943.039a1.867,1.867,0,0,0,2.088-1.38c-.006-.438.339-.484.632-.505a21.375,21.375,0,0,1,3.167,0c.3.022.628.091.639.512a1.85,1.85,0,0,0,2.093,1.372c6.657-.024,13.313-.012,19.97-.012h1.233a28.094,28.094,0,0,0-1.212,5.412" transform="translate(-34.149 -56.445)" fill="#dcd9eb"/>
        <path id="Trazado_123345" data-name="Trazado 123345" d="M79.5,23.628q-23.286,0-46.572-.006a5.591,5.591,0,0,0-3.488,1.228c-.4.305-.817.645-.756,1.25a4.88,4.88,0,0,1,3.734-6.572,10.422,10.422,0,0,1,1.531-.081q7.371-.009,14.742-.007c1.4,0,1.73-.252,2.144-1.548h4.425c.322,1.285.683,1.548,2.213,1.548,7.252,0,14.5.021,21.757-.021.971-.006,1.113.2.837,1.107a25.768,25.768,0,0,0-.566,3.1" transform="translate(-12.61 -7.957)" fill="#dedbec"/>
        <path id="Trazado_123346" data-name="Trazado 123346" d="M89.809,85.92q0-4.1,0-8.193c0-1.813-.647-2.45-2.461-2.451q-28.167,0-56.334.008c-.421,0-.9-.175-1.254.229l-.8-2.731h1.065q30.765,0,61.529-.022c1.013,0,1.355.224,1.335,1.293-.068,3.615-.044,7.233-.012,10.85.007.777-.178,1.159-1.027,1.074-.676-.067-1.361-.041-2.042-.057" transform="translate(-12.88 -32.358)" fill="#dcd9eb"/>
        <path id="Trazado_123347" data-name="Trazado 123347" d="M104.4,122.73c-.329-.44-.812-.278-1.212-.242-1.074.1-2.188-.31-3.226.235-.269-1.391-.636-1.7-2.056-1.705-6.686,0-13.373-.02-20.059.021-.875.006-1.112-.237-1.044-1.076a19.239,19.239,0,0,0,0-2.862c-.052-.751.242-.884.927-.882,7.88.023,15.761.008,23.641.017,4.126.006,8.251.04,12.377.061a10.477,10.477,0,0,1,1.349,3.913c.134.625-.249.727-.777.724-2.445-.015-4.892-.009-7.338,0a3.158,3.158,0,0,0-1.011.057,1.651,1.651,0,0,0-1.574,1.744" transform="translate(-34.15 -51.686)" fill="#fedf7c"/>
        <path id="Trazado_123348" data-name="Trazado 123348" d="M60.606,111.57c-2.216-1.8-2.214-1.8-4.318.224-.81.78-1.631,1.548-2.434,2.308-.275-.054-.215-.253-.215-.405q-.006-12.835,0-25.67a2.971,2.971,0,0,1,.083-.5c2.171-.222,4.347-.038,6.519-.1.443-.012.584.278.657.634a6.04,6.04,0,0,1,.066,1.222q0,10.267-.006,20.534c0,.6.14,1.24-.349,1.747" transform="translate(-23.852 -38.878)" fill="#ea5468"/>
        <path id="Trazado_123349" data-name="Trazado 123349" d="M14.856,164.338c.409-.009.818-.027,1.227-.027q32.981,0,65.963.026a1.8,1.8,0,0,0,1.88-1.174c.408-.861.872-1.7,1.354-2.519.419-.718.146-.894-.558-.831-.237.021-.478,0-.716,0q-32.674,0-65.348-.007c-.428,0-.891.148-1.284-.165.955.006,1.91.017,2.865.017q42.389.006,84.778.012a8.837,8.837,0,0,1,1.628.107,2.322,2.322,0,0,1,1.887,2.239,2.4,2.4,0,0,1-1.673,2.32,4.08,4.08,0,0,1-1.315.144q-44.692,0-89.386,0a2.426,2.426,0,0,1-1.3-.146" transform="translate(-6.607 -70.999)" fill="#fecf64"/>
        <path id="Trazado_123350" data-name="Trazado 123350" d="M76.9,102.365l24.456.012c1.227,0,1.219,0,.745,1.172-.448,1.106-.724,2.479-1.62,3.127-.872.63-2.244.183-3.394.187-6.719.023-13.439.019-20.157.024a23.267,23.267,0,0,1-.029-4.523" transform="translate(-34.158 -45.525)" fill="#a6e7a5"/>
        <path id="Trazado_123351" data-name="Trazado 123351" d="M59.362,11.174c.326-.282.719-.159,1.081-.16,3.208-.009,6.415,0,9.622-.007,1.043,0,1.114-.112.806-1.141-.254-.846-.556-1.681-.752-2.541-.187-.821-.622-1.034-1.445-1.032q-16.173.043-32.347.018c-.409,0-.818-.022-1.227-.033a2.7,2.7,0,0,1,1.308-.14q25.606,0,51.211,0c1.965,0,3.193,1.168,2.97,2.8a2.393,2.393,0,0,1-2.043,2.119,9.341,9.341,0,0,1-1.428.08q-13.878.024-27.755.039" transform="translate(-15.61 -2.724)" fill="#fdcf63"/>
        <path id="Trazado_123352" data-name="Trazado 123352" d="M69.663,49.024a38.292,38.292,0,0,0,1.579-3.976c.185-.562.115-.768-.544-.761-2.624.032-5.249.013-7.874.013q-12.271,0-24.542-.007c-.395,0-.821.136-1.184-.154.341-.011.681-.032,1.022-.032q25.1,0,50.192,0a4.236,4.236,0,0,1,1.615.191,2.47,2.47,0,0,1,1.546,2.613,2.4,2.4,0,0,1-2.152,2.124,11.3,11.3,0,0,1-1.227.039q-8.707,0-17.414,0c-.34,0-.679-.035-1.018-.053" transform="translate(-16.499 -19.616)" fill="#fecf64"/>
        <path id="Trazado_123353" data-name="Trazado 123353" d="M129.341,120.995a3.392,3.392,0,0,1,1.792-.149c2.037-.027,4.077-.072,6.11.015,1.044.045,1.069-.324.855-1.153a26.53,26.53,0,0,1-.98-3.4c2.01-.021,4.02-.056,6.03-.06,4.537-.008,9.073-.019,13.61.007,2.019.012,3.222,1.65,2.48,3.313a2.329,2.329,0,0,1-2.27,1.454q-13.813,0-27.626-.024" transform="translate(-57.523 -51.694)" fill="#fecf64"/>
        <path id="Trazado_123354" data-name="Trazado 123354" d="M24.282,102.067c2.594,0,5.188.02,7.782-.015.636-.008.833.18.806.809-.047,1.091-.033,2.184,0,3.276.014.508-.113.735-.674.734-5.291-.016-10.581.009-15.872-.024a2.347,2.347,0,0,1-2.489-2.417,2.4,2.4,0,0,1,2.564-2.354c2.628-.026,5.257-.007,7.885-.008" transform="translate(-6.152 -45.386)" fill="#a6e8a5"/>
        <path id="Trazado_123355" data-name="Trazado 123355" d="M60.675,111.519q.01-11.592.033-23.185c0-.69-.247-.867-.893-.857-2.008.029-4.017.006-6.026,0a7.169,7.169,0,0,1,2.509-.129c2.113-.031,4.227.012,6.34-.012.626-.007.906.125.9.84q-.037,12.731-.024,25.461c0,.125-.017.249-.047.643l-2.795-2.764" transform="translate(-23.921 -38.827)" fill="#e3384e"/>
        <path id="Trazado_123356" data-name="Trazado 123356" d="M35.485,136.129c-.044-1.175-.757-1.26-1.747-1.247-4.124.055-8.25.021-12.375.024-1.344,0-1.389.054-1.395,1.372q-.014,3.527-.033,7.054c-.269-.251-.148-.579-.148-.869,0-3.651.03-7.3-.011-10.954-.01-.909.283-1.157,1.173-1.149q6.807.061,13.616,0c.776-.007.98.2.949.961-.066,1.6-.026,3.206-.029,4.809" transform="translate(-8.788 -57.975)" fill="#dcd9eb"/>
        <path id="Trazado_123357" data-name="Trazado 123357" d="M28.945,92.479a21.29,21.29,0,0,0,1.021-4.558c.033-.407.212-.515.579-.514q4.239.009,8.478,0c.461,0,.567.2.561.62-.019,1.293-.013,2.587,0,3.881,0,.35-.043.58-.482.579-3.362-.01-6.724-.006-10.155-.006" transform="translate(-12.873 -38.872)" fill="#f8f6f7"/>
        <path id="Trazado_123358" data-name="Trazado 123358" d="M62.858,137.253l-3.765-.029a.3.3,0,0,1,.041-.092c1.843-1.99,1.843-1.99,3.724.122" transform="translate(-26.281 -60.33)" fill="#d9d6e8"/>
      </g>
    </g>
  </g>
</svg>
