<svg xmlns="http://www.w3.org/2000/svg" width="190" height="243" viewBox="0 0 190 243">
  <g id="Grupo_88137" data-name="Grupo 88137" transform="translate(-1020 -964)">
    <g id="Grupo_88041" data-name="Grupo 88041">
      <g id="Grupo_87685" data-name="Grupo 87685">
        <g id="Grupo_87397" data-name="Grupo 87397" transform="translate(0 45.434)">
          <path id="Rect치ngulo_34437" data-name="Rect치ngulo 34437" d="M0,0H96a77,77,0,0,1,77,77V184.116a0,0,0,0,1,0,0H0a0,0,0,0,1,0,0V0A0,0,0,0,1,0,0Z" transform="translate(1033 954.362)" fill="#a6bbff"/>
          <g id="Grupo_87372" data-name="Grupo 87372" transform="translate(1039.834 955.577)">
            <path id="Trazado_114646" data-name="Trazado 114646" d="M151.4,72.681c-1.152,17.828-14.827,34.849-33.347,35.905-21.272,1.63-40.8-10.036-61.986-10.159-10.8-.926-20.938,3.211-31.467,4.547C.823,103.846-2.8,75.9,1.635,57.886,20.34-27.038,152.7-15.484,151.4,72.681Z" transform="translate(1.291 13.295)" fill="#e1e8ff"/>
          </g>
        </g>
      </g>
      <g id="Grupo_88040" data-name="Grupo 88040" transform="translate(10639.418 11364.891)">
        <g id="Grupo_88037" data-name="Grupo 88037" transform="translate(-9552.22 -10281.167)">
          <path id="Trazado_124493" data-name="Trazado 124493" d="M147.618,257.932c2.83,1.067,4.026,3.445,4.816,6.1a27.08,27.08,0,0,1,.707,10.8,36.257,36.257,0,0,1-5.615,16.177c-3.608,5.5-8.449,9.386-15.019,10.613-10.6,1.981-22.794-1.711-29.533-13.427A32.61,32.61,0,0,1,98.7,268.1a20.8,20.8,0,0,1,5.1-12.207,8.893,8.893,0,0,1,7.1-3.081c4.259.131,7.513,2.332,10.47,5.118a14.523,14.523,0,0,0,2.684,2.03,4.554,4.554,0,0,0,1.032.489c.17.057.339.113.512.161a13.22,13.22,0,0,0,2.184.5c.273.011.545.017.818.013a27,27,0,0,0,8.988-1.514c1.335-.39,2.65-.834,3.952-1.323a1.885,1.885,0,0,0,.864-.083,19.512,19.512,0,0,1,3.162-.6,3.194,3.194,0,0,1,2.05.323" transform="translate(-98.505 -225.329)" fill="#e7384c"/>
          <path id="Trazado_124494" data-name="Trazado 124494" d="M170.146,216.993a6.369,6.369,0,0,1-2.177-.54,1.087,1.087,0,0,1-.347-.709,17.277,17.277,0,0,1-.026-6.4,1.414,1.414,0,0,1,.342-.718,19.83,19.83,0,0,1,5.582-9.264,52.9,52.9,0,0,1,6.873-5.157,113.877,113.877,0,0,0,12.827-10.08,35.893,35.893,0,0,0,2.9-3.075,15.075,15.075,0,0,1,.811,3.129,33.412,33.412,0,0,1,.293,11.19,24.479,24.479,0,0,1-9.3,16.158c-.192.15-.368.319-.551.479A8.371,8.371,0,0,1,184,214.129a35.175,35.175,0,0,1-12.163,2.942c-.268.007-.537-.017-.806-.026.027-.368.355-.372.587-.448a90.354,90.354,0,0,0,11.384-4.6,20.031,20.031,0,0,0,5.509-3.621,3.669,3.669,0,0,0,.906-1.411,1.37,1.37,0,0,0-.821-1.922,7.653,7.653,0,0,0-2.862-.612c-.785-.011-1.57.013-2.355-.013-.208-.007-.5.024-.537-.252-.031-.224.223-.307.406-.355a41.658,41.658,0,0,0,4.606-1.531,15.063,15.063,0,0,0,5.5-3.022,2.287,2.287,0,0,0-.205-3.593,6.742,6.742,0,0,0-1.3-.834c-.843-.414-.844-.531-.177-1.151a15.912,15.912,0,0,0,2.815-3.09,4.727,4.727,0,0,0,.54-4.352c-.283-.765-.473-.78-.94-.131-1.1,1.534-2.223,3.056-3.429,4.511a58.065,58.065,0,0,1-8.589,8.642,38.534,38.534,0,0,0-8.611,9.1,18.7,18.7,0,0,0-2.98,7.843,1.057,1.057,0,0,1-.326.791" transform="translate(-140.961 -181.049)" fill="#cacc45"/>
          <path id="Trazado_124495" data-name="Trazado 124495" d="M158.214,229.563a3.97,3.97,0,0,1-1.029-.445,16.315,16.315,0,0,1-1.6-3.695c-.411-1.021-.712-2.085-1.057-3.132a.8.8,0,0,1-.028-.707,45.646,45.646,0,0,1-2.2-10.775,12.832,12.832,0,0,1,.442-4.733,9.116,9.116,0,0,1,.471-1.153,2.369,2.369,0,0,1,1.987-1.5,42.183,42.183,0,0,0,4.47-.867c.55-.126.549.029.478.478-.579,3.631-1.079,7.273-1.429,10.933a65.071,65.071,0,0,0-.511,7.918,6.79,6.79,0,0,1-.02,2.254,21.422,21.422,0,0,0,.141,4.3c.053.36.189.777-.119,1.12" transform="translate(-131.68 -194.297)" fill="#5c4d00"/>
          <path id="Trazado_124496" data-name="Trazado 124496" d="M141.3,252.163c.788,2.549,1.743,5.038,2.682,7.534-1.891-.951-3.192-2.636-4.839-3.894a17.363,17.363,0,0,0-7.2-3.288c-.354-.072-.743.1-1.066-.157a63.044,63.044,0,0,1,9.179-.207c.415.019.833.01,1.249.013" transform="translate(-118.48 -224.875)" fill="#cb223c"/>
          <path id="Trazado_124497" data-name="Trazado 124497" d="M167.548,260.753c-.187-2.3-.157-4.6-.139-6.9,0-.26-.083-.545.137-.77l.443-.016a18.363,18.363,0,0,0,.031,7.827l-.473-.138" transform="translate(-141.014 -225.486)" fill="#c62a3b"/>
          <path id="Trazado_124498" data-name="Trazado 124498" d="M174.716,223.834A20.031,20.031,0,0,1,176.769,217a26.775,26.775,0,0,1,4.362-6.049,64.1,64.1,0,0,1,6.857-6.2,44.917,44.917,0,0,0,6.154-6.294c1.642-1.943,3.183-3.962,4.646-6.041.293-.416.493-.353.738.069a5.017,5.017,0,0,1-.365,5.14,15.907,15.907,0,0,1-3.077,3.226c-.319.258-.267.373.108.53a4.671,4.671,0,0,1,2.347,1.8,2.428,2.428,0,0,1-.326,2.908,11.679,11.679,0,0,1-4.283,2.618,38.612,38.612,0,0,1-6.152,2.123,2.8,2.8,0,0,0-.426.243c1.01,0,1.822.017,2.634,0a8.231,8.231,0,0,1,2.735.447c1.688.539,2.061,1.569,1.11,3.071a8.774,8.774,0,0,1-2.708,2.439,47.652,47.652,0,0,1-7.786,3.928c-2.533,1.1-5.157,1.957-7.737,2.933l-.881-.051" transform="translate(-145.532 -187.89)" fill="#bab001"/>
          <path id="Trazado_124499" data-name="Trazado 124499" d="M123,284.312a39.839,39.839,0,0,1-.514,5.317,16.755,16.755,0,0,0,1.311,9.66c.44.957.957,1.878,1.407,2.83.51,1.078.139,1.647-1.064,1.6A4.395,4.395,0,0,1,121,301.748a22.932,22.932,0,0,1-4.656-11.012,43.851,43.851,0,0,1-.381-5.333,6.58,6.58,0,0,1,1.148-4.1,3.925,3.925,0,0,1,3.71-1.268,2.646,2.646,0,0,1,1.992,2.377,6.473,6.473,0,0,1,.186,1.9" transform="translate(-109.273 -242.084)" fill="#f18793"/>
          <path id="Trazado_124500" data-name="Trazado 124500" d="M147.155,347.844a1.584,1.584,0,0,1-.716,1.423,4.835,4.835,0,0,1-3.035.91,1.6,1.6,0,0,1-1.674-1.742,2.942,2.942,0,0,1,1.627-2.61,2.628,2.628,0,0,1,2.959.288,1.955,1.955,0,0,1,.839,1.732" transform="translate(-125.175 -282.524)" fill="#f18793"/>
        </g>
        <g id="Grupo_87678" data-name="Grupo 87678" transform="translate(-9618.42 -10370.288)">
          <path id="Trazado_123082" data-name="Trazado 123082" d="M1297.108,1213.814l-4.7-2.733-.038-13.423,4.7,2.732Z" transform="translate(-1132.165 -1049.195)" fill="#c8a376"/>
          <path id="Trazado_123083" data-name="Trazado 123083" d="M1297.07,1193.133l-4.7-2.732,1.779-1.027,4.7,2.733Z" transform="translate(-1132.165 -1041.937)" fill="#f4e0ce"/>
          <path id="Trazado_123084" data-name="Trazado 123084" d="M1311.333,1163.312l-4.7-2.732-.012-4.074,4.7,2.732Z" transform="translate(-1144.65 -1013.143)" fill="#c8a376"/>
          <path id="Trazado_123085" data-name="Trazado 123085" d="M1296.979,1160.265l-4.7-2.733,1.778-1.027,4.7,2.732Z" transform="translate(-1132.085 -1013.143)" fill="#f4e0ce"/>
          <path id="Trazado_123086" data-name="Trazado 123086" d="M893.845,1425.981l-4.7-2.733,1.768-1.02,4.7,2.732Z" transform="translate(-778.924 -1245.927)" fill="#f4e0ce"/>
          <path id="Trazado_123087" data-name="Trazado 123087" d="M908.011,1195.357l-4.7-2.733,48.217-27.838,4.7,2.733Z" transform="translate(-791.334 -1020.398)" fill="#f4e0ce"/>
          <path id="Trazado_123088" data-name="Trazado 123088" d="M893.754,1393.111l-4.7-2.732,1.767-1.021,4.7,2.733Z" transform="translate(-778.844 -1217.131)" fill="#f4e0ce"/>
          <path id="Trazado_123089" data-name="Trazado 123089" d="M978.743,1178.547l.011,4.075-1.778,1.027-48.217,27.838-1.767,1.021-.012-4.075,1.768-1.02,48.216-27.838Z" transform="translate(-812.071 -1032.453)" fill="#846340"/>
          <path id="Trazado_123090" data-name="Trazado 123090" d="M893.765,1404.4l-4.7-2.733-.011-4.075,4.7,2.733Z" transform="translate(-778.844 -1224.343)" fill="#c8a376"/>
          <path id="Trazado_123091" data-name="Trazado 123091" d="M1295.517,652.317l-4.7-2.733-.207-72.9,4.7,2.732Z" transform="translate(-1130.623 -505.196)" fill="#c8a376"/>
          <path id="Trazado_123092" data-name="Trazado 123092" d="M873.211,879.285l4.7,2.733-.268-94.486-4.7-2.733Z" transform="translate(-764.732 -687.513)" fill="#c8a376"/>
          <path id="Trazado_123093" data-name="Trazado 123093" d="M877.645,561.863l-4.7-2.733L928.251,527.2l4.7,2.732Z" transform="translate(-764.732 -461.846)" fill="#f4e0ce"/>
          <path id="Trazado_123094" data-name="Trazado 123094" d="M910.876,581.173l.268,94.486,3.546-2.047-.038-13.423-1.767,1.021-.012-4.075,1.768-1.02-.207-72.9,48.217-27.838.206,72.9,1.779-1.027.011,4.075-1.778,1.027.038,13.423,3.546-2.047-.268-94.486Z" transform="translate(-797.963 -481.156)" fill="#846340"/>
          <path id="Trazado_123095" data-name="Trazado 123095" d="M620.329,829.459l-4.7-2.732-.038-13.423,4.7,2.733Z" transform="translate(-539.28 -712.485)" fill="#c8a376"/>
          <path id="Trazado_123096" data-name="Trazado 123096" d="M620.291,808.781l-4.7-2.733,1.778-1.027,4.7,2.732Z" transform="translate(-539.28 -705.23)" fill="#f4e0ce"/>
          <path id="Trazado_123097" data-name="Trazado 123097" d="M634.555,778.958l-4.7-2.732-.011-4.075,4.7,2.733Z" transform="translate(-551.766 -676.434)" fill="#c8a376"/>
          <path id="Trazado_123098" data-name="Trazado 123098" d="M620.2,775.909l-4.7-2.733,1.779-1.027,4.7,2.733Z" transform="translate(-539.196 -676.433)" fill="#f4e0ce"/>
          <path id="Trazado_123099" data-name="Trazado 123099" d="M217.064,1041.627l-4.7-2.733,1.768-1.02,4.7,2.733Z" transform="translate(-186.037 -909.218)" fill="#f4e0ce"/>
          <path id="Trazado_123100" data-name="Trazado 123100" d="M231.23,811l-4.7-2.732,48.217-27.838,4.7,2.733Z" transform="translate(-198.447 -683.688)" fill="#f4e0ce"/>
          <path id="Trazado_123101" data-name="Trazado 123101" d="M216.969,1008.756l-4.7-2.732,1.768-1.021,4.7,2.733Z" transform="translate(-185.955 -880.421)" fill="#f4e0ce"/>
          <path id="Trazado_123102" data-name="Trazado 123102" d="M301.96,794.195l.012,4.075-1.779,1.027-48.216,27.838-1.768,1.02-.012-4.075,1.768-1.02,48.217-27.838Z" transform="translate(-219.182 -695.745)" fill="#846340"/>
          <path id="Trazado_123103" data-name="Trazado 123103" d="M216.981,1020.043l-4.7-2.732-.012-4.075,4.7,2.732Z" transform="translate(-185.955 -887.634)" fill="#c8a376"/>
          <path id="Trazado_123104" data-name="Trazado 123104" d="M618.737,267.962l-4.7-2.733-.206-72.9,4.7,2.733Z" transform="translate(-537.738 -168.486)" fill="#c8a376"/>
          <path id="Trazado_123105" data-name="Trazado 123105" d="M201.132,497.663l-4.7-2.732-.268-94.487,4.7,2.732Z" transform="translate(-171.846 -350.804)" fill="#c8a376"/>
          <path id="Trazado_123106" data-name="Trazado 123106" d="M200.864,177.508l-4.7-2.732,55.309-31.932,4.7,2.732Z" transform="translate(-171.845 -125.136)" fill="#f4e0ce"/>
          <path id="Trazado_123107" data-name="Trazado 123107" d="M289.4,164.886l.268,94.486-3.546,2.047L286.085,248l1.779-1.027-.012-4.074-1.778,1.027-.207-72.9L237.65,198.858l.207,72.9-1.768,1.02.012,4.075,1.768-1.021.038,13.423-3.546,2.047-.268-94.487Z" transform="translate(-205.074 -144.446)" fill="#846340"/>
          <path id="Trazado_123108" data-name="Trazado 123108" d="M919.522,574.453l-.023,8.157,75-43.583.023-8.158Z" transform="translate(-805.517 -465.061)" fill="#846340"/>
          <path id="Trazado_123109" data-name="Trazado 123109" d="M0,359.744l113.982,65.807.023-8.157L.023,351.587Z" transform="translate(0 -308.003)" fill="#c8a376"/>
          <path id="Trazado_123110" data-name="Trazado 123110" d="M75.183,0l-75,43.584,113.982,65.808,75-43.584Z" transform="translate(-0.163 0.004)" fill="#f4e0ce"/>
          <path id="Trazado_123111" data-name="Trazado 123111" d="M80.716,84.427,145.738,46.64,249.73,106.68l-65.023,37.787Z" transform="translate(-70.71 -40.858)" fill="#c8a376"/>
        </g>
      </g>
    </g>
    <rect id="Rect치ngulo_35984" data-name="Rect치ngulo 35984" width="190" height="243" transform="translate(1020 964)" fill="none"/>
  </g>
</svg>
