<svg xmlns="http://www.w3.org/2000/svg" width="1100" height="472" viewBox="0 0 1100 472">
  <g id="Grupo_161121" data-name="Grupo 161121" transform="translate(-250.333 -374)">
    <path id="Trazado_123071" data-name="Trazado 123071" d="M-11591.151-9689h-137.5v90.761h146.7" transform="translate(12768.333 10086)" fill="none" stroke="#fc5f65" stroke-width="3"/>
    <path id="Trazado_123074" data-name="Trazado 123074" d="M-11719.454-9689h137.5v90.761h-146.7" transform="translate(12141.985 10086)" fill="none" stroke="#fc5f65" stroke-width="3"/>
    <path id="Trazado_123073" data-name="Trazado 123073" d="M-11719.454-9689h137.5v90.761h-146.7" transform="translate(12234.576 10419)" fill="none" stroke="#fc5f65" stroke-width="3"/>
    <rect id="Rectángulo_34881" data-name="Rectángulo 34881" width="190" height="46" rx="23" transform="translate(1160.333 374)" fill="#c4d1ff"/>
    <rect id="Rectángulo_34882" data-name="Rectángulo 34882" width="190" height="46" rx="23" transform="translate(1160.333 467)" fill="#c4d1ff"/>
    <path id="Trazado_125328" data-name="Trazado 125328" d="M-40.161-5.3l1.631-8.916h3.4L-38.149,0H-41.7l-1.9-8.105L-45.474,0h-3.545l-3.027-14.219h3.408L-47.007-5.3l1.953-8.916h2.91Zm9.434-4.131a3.294,3.294,0,0,1,2.7-1.328A3.284,3.284,0,0,1-25.4-9.727a4.651,4.651,0,0,1,.908,3.057V0h-3.3V-6.592a1.86,1.86,0,0,0-.342-1.235,1.469,1.469,0,0,0-1.162-.4,1.582,1.582,0,0,0-1.436.645V0h-3.291V-15h3.291ZM-16.7,0a3.716,3.716,0,0,1-.312-.947A3.06,3.06,0,0,1-19.556.2a3.749,3.749,0,0,1-2.539-.9A2.875,2.875,0,0,1-23.14-2.979a2.955,2.955,0,0,1,1.27-2.6,6.468,6.468,0,0,1,3.691-.879h1.016v-.559q0-1.462-1.26-1.462a1.03,1.03,0,0,0-1.172,1.158h-3.291a2.95,2.95,0,0,1,1.3-2.487,5.479,5.479,0,0,1,3.325-.956,4.8,4.8,0,0,1,3.193.986,3.429,3.429,0,0,1,1.2,2.705v4.678a4.79,4.79,0,0,0,.449,2.227V0Zm-2.061-2.148a1.836,1.836,0,0,0,1.021-.264,1.653,1.653,0,0,0,.581-.6V-4.7h-.957q-1.719,0-1.719,1.543a.942.942,0,0,0,.3.728A1.1,1.1,0,0,0-18.765-2.148ZM-8.208-13.193v2.627H-6.47v2.285H-8.208v4.834a1.234,1.234,0,0,0,.215.83,1.152,1.152,0,0,0,.85.234,4.828,4.828,0,0,0,.82-.059V-.088A6.074,6.074,0,0,1-8.179.2a3.448,3.448,0,0,1-2.51-.8A3.282,3.282,0,0,1-11.5-3.037V-8.281h-1.348v-2.285H-11.5v-2.627ZM-4.019,3.828l-1.66-.781.332-.664A5.416,5.416,0,0,0-4.634-.039V-2.48H-2l-.01,2.119a5.3,5.3,0,0,1-.576,2.285A5.806,5.806,0,0,1-4.019,3.828Zm18.34-8.164,1.064-6.23H18.54L16.05,0H13.267L11.519-6.27,9.761,0H6.978L4.487-10.566H7.642L8.687-4.189l1.68-6.377h2.295Zm8.613-5.1a3.294,3.294,0,0,1,2.7-1.328,3.284,3.284,0,0,1,2.637,1.035,4.651,4.651,0,0,1,.908,3.057V0h-3.3V-6.592a1.86,1.86,0,0,0-.342-1.235,1.469,1.469,0,0,0-1.162-.4,1.582,1.582,0,0,0-1.436.645V0H19.644V-15h3.291ZM36.118.2a5.432,5.432,0,0,1-3.936-1.45,5.008,5.008,0,0,1-1.5-3.774V-5.3a6.489,6.489,0,0,1,.6-2.861,4.395,4.395,0,0,1,1.753-1.919,5.292,5.292,0,0,1,2.734-.679A4.574,4.574,0,0,1,39.282-9.38a5.43,5.43,0,0,1,1.289,3.853v1.279H34.028a2.372,2.372,0,0,0,.771,1.4,2.3,2.3,0,0,0,1.543.508,2.958,2.958,0,0,0,2.441-1.094l1.5,1.777A4.2,4.2,0,0,1,38.545-.308,5.891,5.891,0,0,1,36.118.2Zm-.371-8.418q-1.445,0-1.719,1.914h3.32v-.254a1.63,1.63,0,0,0-.4-1.226A1.593,1.593,0,0,0,35.747-8.223Zm9.17-2.344.107,1.24a3.583,3.583,0,0,1,3.018-1.436,3.015,3.015,0,0,1,2.466.986,4.7,4.7,0,0,1,.845,2.969V0h-3.3V-6.67a1.783,1.783,0,0,0-.322-1.177,1.491,1.491,0,0,0-1.172-.376,1.569,1.569,0,0,0-1.436.762V0H41.831V-10.566Z" transform="translate(1255.333 404)" fill="#12263f"/>
    <path id="Trazado_125329" data-name="Trazado 125329" d="M-16.831-5.3l1.631-8.916h3.4L-14.819,0h-3.555l-1.9-8.105L-22.144,0h-3.545l-3.027-14.219h3.408L-23.677-5.3l1.953-8.916h2.91ZM-7.4-9.434a3.294,3.294,0,0,1,2.7-1.328A3.284,3.284,0,0,1-2.065-9.727,4.651,4.651,0,0,1-1.157-6.67V0h-3.3V-6.592A1.86,1.86,0,0,0-4.8-7.827a1.469,1.469,0,0,0-1.162-.4A1.582,1.582,0,0,0-7.4-7.578V0h-3.291V-15H-7.4ZM5.786.2a5.432,5.432,0,0,1-3.936-1.45,5.008,5.008,0,0,1-1.5-3.774V-5.3a6.489,6.489,0,0,1,.6-2.861A4.395,4.395,0,0,1,2.7-10.083a5.292,5.292,0,0,1,2.734-.679A4.574,4.574,0,0,1,8.95-9.38a5.43,5.43,0,0,1,1.289,3.853v1.279H3.7a2.372,2.372,0,0,0,.771,1.4,2.3,2.3,0,0,0,1.543.508A2.958,2.958,0,0,0,8.452-3.437l1.5,1.777A4.2,4.2,0,0,1,8.213-.308,5.891,5.891,0,0,1,5.786.2ZM5.415-8.223Q3.97-8.223,3.7-6.309h3.32v-.254a1.63,1.63,0,0,0-.4-1.226A1.593,1.593,0,0,0,5.415-8.223Zm12.539.635L16.87-7.666a1.947,1.947,0,0,0-1.992.977V0H11.587V-10.566h3.086l.107,1.357a2.548,2.548,0,0,1,2.314-1.553,3.209,3.209,0,0,1,.918.117ZM24.067.2a5.432,5.432,0,0,1-3.936-1.45,5.008,5.008,0,0,1-1.5-3.774V-5.3a6.489,6.489,0,0,1,.6-2.861,4.395,4.395,0,0,1,1.753-1.919,5.292,5.292,0,0,1,2.734-.679A4.574,4.574,0,0,1,27.231-9.38a5.43,5.43,0,0,1,1.289,3.853v1.279H21.978a2.372,2.372,0,0,0,.771,1.4,2.3,2.3,0,0,0,1.543.508,2.958,2.958,0,0,0,2.441-1.094l1.5,1.777A4.2,4.2,0,0,1,26.494-.308,5.891,5.891,0,0,1,24.067.2ZM23.7-8.223q-1.445,0-1.719,1.914H25.3v-.254a1.63,1.63,0,0,0-.4-1.226A1.593,1.593,0,0,0,23.7-8.223Z" transform="translate(1255.333 497)" fill="#12263f"/>
    <rect id="Rectángulo_34886" data-name="Rectángulo 34886" width="190" height="46" rx="23" transform="translate(346.575 707)" fill="#c4d1ff"/>
    <rect id="Rectángulo_34885" data-name="Rectángulo 34885" width="190" height="46" rx="23" transform="translate(346.575 800)" fill="#c4d1ff"/>
    <path id="Trazado_125324" data-name="Trazado 125324" d="M-69.331-4.824V0h-3.428V-14.219h5.674a6.608,6.608,0,0,1,2.886.6,4.526,4.526,0,0,1,1.943,1.709,4.667,4.667,0,0,1,.688,2.515,4.114,4.114,0,0,1-1.489,3.325,6.179,6.179,0,0,1-4.087,1.245Zm0-2.646h2.246a2.118,2.118,0,0,0,1.519-.5,1.85,1.85,0,0,0,.522-1.406,2.287,2.287,0,0,0-.537-1.592,1.9,1.9,0,0,0-1.465-.605h-2.285ZM-54.048,0a3.716,3.716,0,0,1-.312-.947A3.06,3.06,0,0,1-56.9.2a3.749,3.749,0,0,1-2.539-.9,2.875,2.875,0,0,1-1.045-2.271,2.955,2.955,0,0,1,1.27-2.6,6.468,6.468,0,0,1,3.691-.879h1.016v-.559q0-1.462-1.26-1.462a1.03,1.03,0,0,0-1.172,1.158h-3.291a2.95,2.95,0,0,1,1.3-2.487,5.479,5.479,0,0,1,3.325-.956,4.8,4.8,0,0,1,3.193.986,3.429,3.429,0,0,1,1.2,2.705v4.678a4.79,4.79,0,0,0,.449,2.227V0Zm-2.061-2.148a1.836,1.836,0,0,0,1.021-.264,1.653,1.653,0,0,0,.581-.6V-4.7h-.957q-1.719,0-1.719,1.543a.942.942,0,0,0,.3.728A1.1,1.1,0,0,0-56.108-2.148Zm13.115-5.439-1.084-.078a1.947,1.947,0,0,0-1.992.977V0H-49.36V-10.566h3.086l.107,1.357a2.548,2.548,0,0,1,2.314-1.553,3.209,3.209,0,0,1,.918.117Zm5.508-5.605v2.627h1.738v2.285h-1.738v4.834a1.234,1.234,0,0,0,.215.83,1.152,1.152,0,0,0,.85.234,4.828,4.828,0,0,0,.82-.059V-.088A6.074,6.074,0,0,1-37.456.2a3.448,3.448,0,0,1-2.51-.8,3.282,3.282,0,0,1-.811-2.432V-8.281h-1.348v-2.285h1.348v-2.627Zm8.564,10.225a.76.76,0,0,0-.439-.674,6.685,6.685,0,0,0-1.67-.527,7.615,7.615,0,0,1-2.031-.718,3.4,3.4,0,0,1-1.221-1.079,2.577,2.577,0,0,1-.42-1.455,2.92,2.92,0,0,1,1.2-2.4,4.948,4.948,0,0,1,3.145-.942A5.482,5.482,0,0,1-27-9.814a2.962,2.962,0,0,1,1.27,2.49h-3.3q0-1.27-1.338-1.27a1.326,1.326,0,0,0-.869.288.892.892,0,0,0-.352.718.819.819,0,0,0,.43.713,4.06,4.06,0,0,0,1.372.449,11.857,11.857,0,0,1,1.655.42,3.007,3.007,0,0,1,2.383,2.939A2.767,2.767,0,0,1-27.031-.713,5.631,5.631,0,0,1-30.356.2a5.747,5.747,0,0,1-2.422-.488,4.05,4.05,0,0,1-1.66-1.328,3.007,3.007,0,0,1-.6-1.768h3.076a1.272,1.272,0,0,0,.488,1.069,2.009,2.009,0,0,0,1.2.337,1.58,1.58,0,0,0,1.011-.273A.875.875,0,0,0-28.921-2.969Zm9.277-2.412A6.236,6.236,0,0,1-19.028-8.2a4.4,4.4,0,0,1,1.768-1.9,5.323,5.323,0,0,1,2.705-.664,4.858,4.858,0,0,1,3.74,1.47,5.64,5.64,0,0,1,1.367,4v.117A5.472,5.472,0,0,1-10.82-1.255,4.871,4.871,0,0,1-14.536.2a4.927,4.927,0,0,1-3.623-1.353,5.29,5.29,0,0,1-1.475-3.667Zm3.291.205a3.932,3.932,0,0,0,.459,2.148,1.529,1.529,0,0,0,1.357.684q1.758,0,1.8-2.705v-.332q0-2.842-1.816-2.842-1.65,0-1.787,2.451ZM-7.271,0V-8.281H-8.8v-2.285h1.533v-.84a3.651,3.651,0,0,1,1.064-2.8,4.206,4.206,0,0,1,2.988-1A6.544,6.544,0,0,1-1.675-15l.01,2.422a3.007,3.007,0,0,0-.811-.088q-1.494,0-1.494,1.289v.811h2.061v2.285H-3.97V0ZM10.181,0a3.716,3.716,0,0,1-.312-.947A3.06,3.06,0,0,1,7.329.2a3.749,3.749,0,0,1-2.539-.9A2.875,2.875,0,0,1,3.745-2.979a2.955,2.955,0,0,1,1.27-2.6,6.468,6.468,0,0,1,3.691-.879H9.722v-.559q0-1.462-1.26-1.462A1.03,1.03,0,0,0,7.29-7.319H4A2.95,2.95,0,0,1,5.3-9.806a5.479,5.479,0,0,1,3.325-.956,4.8,4.8,0,0,1,3.193.986,3.429,3.429,0,0,1,1.2,2.705v4.678a4.79,4.79,0,0,0,.449,2.227V0ZM8.12-2.148a1.836,1.836,0,0,0,1.021-.264,1.653,1.653,0,0,0,.581-.6V-4.7H8.765q-1.719,0-1.719,1.543a.942.942,0,0,0,.3.728A1.1,1.1,0,0,0,8.12-2.148ZM23.042-9.434a3.294,3.294,0,0,1,2.7-1.328,3.284,3.284,0,0,1,2.637,1.035,4.651,4.651,0,0,1,.908,3.057V0h-3.3V-6.592a1.86,1.86,0,0,0-.342-1.235,1.469,1.469,0,0,0-1.162-.4,1.582,1.582,0,0,0-1.436.645V0H19.751V-15h3.291ZM30.7-5.381A6.236,6.236,0,0,1,31.313-8.2a4.4,4.4,0,0,1,1.768-1.9,5.323,5.323,0,0,1,2.705-.664,4.858,4.858,0,0,1,3.74,1.47,5.64,5.64,0,0,1,1.367,4v.117a5.472,5.472,0,0,1-1.372,3.921A4.871,4.871,0,0,1,35.806.2a4.927,4.927,0,0,1-3.623-1.353,5.29,5.29,0,0,1-1.475-3.667Zm3.291.205a3.932,3.932,0,0,0,.459,2.148,1.529,1.529,0,0,0,1.357.684q1.758,0,1.8-2.705v-.332q0-2.842-1.816-2.842-1.65,0-1.787,2.451ZM48.638-1.143A3.393,3.393,0,0,1,45.815.2,3.328,3.328,0,0,1,43.184-.815a4.251,4.251,0,0,1-.894-2.905v-6.846h3.291V-3.7A1.183,1.183,0,0,0,46.9-2.344a1.72,1.72,0,0,0,1.611-.811v-7.412h3.311V0H48.735ZM59.155-2.969a.76.76,0,0,0-.439-.674,6.685,6.685,0,0,0-1.67-.527,7.615,7.615,0,0,1-2.031-.718,3.4,3.4,0,0,1-1.221-1.079,2.577,2.577,0,0,1-.42-1.455,2.92,2.92,0,0,1,1.2-2.4,4.948,4.948,0,0,1,3.145-.942,5.482,5.482,0,0,1,3.359.947,2.962,2.962,0,0,1,1.27,2.49h-3.3q0-1.27-1.338-1.27a1.326,1.326,0,0,0-.869.288.892.892,0,0,0-.352.718.819.819,0,0,0,.43.713,4.06,4.06,0,0,0,1.372.449,11.857,11.857,0,0,1,1.655.42,3.007,3.007,0,0,1,2.383,2.939A2.767,2.767,0,0,1,61.045-.713,5.632,5.632,0,0,1,57.72.2,5.747,5.747,0,0,1,55.3-.293a4.05,4.05,0,0,1-1.66-1.328,3.007,3.007,0,0,1-.6-1.768h3.076a1.272,1.272,0,0,0,.488,1.069,2.009,2.009,0,0,0,1.2.337,1.58,1.58,0,0,0,1.011-.273A.875.875,0,0,0,59.155-2.969ZM68.979.2a5.432,5.432,0,0,1-3.936-1.45,5.008,5.008,0,0,1-1.5-3.774V-5.3a6.489,6.489,0,0,1,.6-2.861,4.395,4.395,0,0,1,1.753-1.919,5.292,5.292,0,0,1,2.734-.679A4.574,4.574,0,0,1,72.144-9.38a5.43,5.43,0,0,1,1.289,3.853v1.279H66.89a2.372,2.372,0,0,0,.771,1.4,2.3,2.3,0,0,0,1.543.508,2.958,2.958,0,0,0,2.441-1.094l1.5,1.777A4.2,4.2,0,0,1,71.406-.308,5.891,5.891,0,0,1,68.979.2Zm-.371-8.418q-1.445,0-1.719,1.914h3.32v-.254a1.63,1.63,0,0,0-.4-1.226A1.593,1.593,0,0,0,68.608-8.223Z" transform="translate(441.575 737)" fill="#12263f"/>
    <path id="Trazado_125325" data-name="Trazado 125325" d="M-63.55-4.824V0h-3.428V-14.219H-61.3a6.608,6.608,0,0,1,2.886.6,4.526,4.526,0,0,1,1.943,1.709,4.667,4.667,0,0,1,.688,2.515,4.114,4.114,0,0,1-1.489,3.325,6.179,6.179,0,0,1-4.087,1.245Zm0-2.646H-61.3a2.118,2.118,0,0,0,1.519-.5,1.85,1.85,0,0,0,.522-1.406,2.287,2.287,0,0,0-.537-1.592,1.9,1.9,0,0,0-1.465-.605H-63.55ZM-50.64,0h-3.3V-15h3.3Zm7.979,0a3.716,3.716,0,0,1-.312-.947A3.06,3.06,0,0,1-45.513.2a3.749,3.749,0,0,1-2.539-.9A2.875,2.875,0,0,1-49.1-2.979a2.955,2.955,0,0,1,1.27-2.6,6.468,6.468,0,0,1,3.691-.879h1.016v-.559q0-1.462-1.26-1.462a1.03,1.03,0,0,0-1.172,1.158h-3.291a2.95,2.95,0,0,1,1.3-2.487,5.479,5.479,0,0,1,3.325-.956,4.8,4.8,0,0,1,3.193.986,3.429,3.429,0,0,1,1.2,2.705v4.678A4.79,4.79,0,0,0-39.37-.166V0Zm-2.061-2.148A1.836,1.836,0,0,0-43.7-2.412a1.653,1.653,0,0,0,.581-.6V-4.7h-.957Q-45.8-4.7-45.8-3.154a.942.942,0,0,0,.3.728A1.1,1.1,0,0,0-44.722-2.148Zm11.191-.2a1.464,1.464,0,0,0,1.074-.376,1.379,1.379,0,0,0,.371-1.05H-29A3.653,3.653,0,0,1-30.244-.918,4.631,4.631,0,0,1-33.452.2,4.689,4.689,0,0,1-37.085-1.25a5.7,5.7,0,0,1-1.328-4v-.137a6.436,6.436,0,0,1,.591-2.827,4.3,4.3,0,0,1,1.7-1.885,5.081,5.081,0,0,1,2.637-.659A4.573,4.573,0,0,1-30.21-9.619,4.053,4.053,0,0,1-29-6.523h-3.086a1.807,1.807,0,0,0-.4-1.26,1.382,1.382,0,0,0-1.074-.439q-1.279,0-1.494,1.631a11.507,11.507,0,0,0-.068,1.426,4.52,4.52,0,0,0,.381,2.207A1.319,1.319,0,0,0-33.53-2.344ZM-22.5.2a5.432,5.432,0,0,1-3.936-1.45,5.008,5.008,0,0,1-1.5-3.774V-5.3a6.489,6.489,0,0,1,.6-2.861,4.395,4.395,0,0,1,1.753-1.919,5.292,5.292,0,0,1,2.734-.679A4.574,4.574,0,0,1-19.331-9.38a5.43,5.43,0,0,1,1.289,3.853v1.279h-6.543a2.372,2.372,0,0,0,.771,1.4,2.3,2.3,0,0,0,1.543.508,2.958,2.958,0,0,0,2.441-1.094l1.5,1.777A4.2,4.2,0,0,1-20.068-.308,5.891,5.891,0,0,1-22.5.2Zm-.371-8.418q-1.445,0-1.719,1.914h3.32v-.254a1.63,1.63,0,0,0-.4-1.226A1.593,1.593,0,0,0-22.866-8.223Zm11.68,5.254a.76.76,0,0,0-.439-.674A6.685,6.685,0,0,0-13.3-4.17a7.615,7.615,0,0,1-2.031-.718,3.4,3.4,0,0,1-1.221-1.079,2.577,2.577,0,0,1-.42-1.455,2.92,2.92,0,0,1,1.2-2.4,4.948,4.948,0,0,1,3.145-.942,5.482,5.482,0,0,1,3.359.947,2.962,2.962,0,0,1,1.27,2.49h-3.3q0-1.27-1.338-1.27a1.326,1.326,0,0,0-.869.288.892.892,0,0,0-.352.718.819.819,0,0,0,.43.713,4.06,4.06,0,0,0,1.372.449,11.857,11.857,0,0,1,1.655.42A3.007,3.007,0,0,1-8.013-3.066,2.767,2.767,0,0,1-9.3-.713,5.632,5.632,0,0,1-12.622.2a5.747,5.747,0,0,1-2.422-.488A4.05,4.05,0,0,1-16.7-1.621a3.007,3.007,0,0,1-.6-1.768h3.076a1.272,1.272,0,0,0,.488,1.069,2.009,2.009,0,0,0,1.2.337,1.58,1.58,0,0,0,1.011-.273A.875.875,0,0,0-11.187-2.969ZM1.978,0h-3.3V-10.566h3.3Zm-3.5-13.3a1.482,1.482,0,0,1,.508-1.159,1.909,1.909,0,0,1,1.318-.452,1.909,1.909,0,0,1,1.318.452A1.482,1.482,0,0,1,2.134-13.3a1.482,1.482,0,0,1-.508,1.159,1.909,1.909,0,0,1-1.318.452,1.909,1.909,0,0,1-1.318-.452A1.482,1.482,0,0,1-1.519-13.3Zm8.545,2.734.107,1.24a3.583,3.583,0,0,1,3.018-1.436,3.015,3.015,0,0,1,2.466.986,4.7,4.7,0,0,1,.845,2.969V0h-3.3V-6.67a1.783,1.783,0,0,0-.322-1.177,1.491,1.491,0,0,0-1.172-.376,1.569,1.569,0,0,0-1.436.762V0H3.94V-10.566ZM26.216,0A3.716,3.716,0,0,1,25.9-.947,3.06,3.06,0,0,1,23.364.2a3.749,3.749,0,0,1-2.539-.9A2.875,2.875,0,0,1,19.78-2.979a2.955,2.955,0,0,1,1.27-2.6,6.468,6.468,0,0,1,3.691-.879h1.016v-.559q0-1.462-1.26-1.462a1.03,1.03,0,0,0-1.172,1.158H20.034a2.95,2.95,0,0,1,1.3-2.487,5.479,5.479,0,0,1,3.325-.956,4.8,4.8,0,0,1,3.193.986,3.429,3.429,0,0,1,1.2,2.705v4.678a4.79,4.79,0,0,0,.449,2.227V0ZM24.155-2.148a1.836,1.836,0,0,0,1.021-.264,1.653,1.653,0,0,0,.581-.6V-4.7H24.8q-1.719,0-1.719,1.543a.942.942,0,0,0,.3.728A1.1,1.1,0,0,0,24.155-2.148Zm16.172-.2A1.464,1.464,0,0,0,41.4-2.72a1.379,1.379,0,0,0,.371-1.05h3.086A3.653,3.653,0,0,1,43.613-.918,4.631,4.631,0,0,1,40.405.2,4.689,4.689,0,0,1,36.772-1.25a5.7,5.7,0,0,1-1.328-4v-.137a6.436,6.436,0,0,1,.591-2.827,4.3,4.3,0,0,1,1.7-1.885,5.081,5.081,0,0,1,2.637-.659,4.573,4.573,0,0,1,3.271,1.143,4.053,4.053,0,0,1,1.211,3.1H41.772a1.807,1.807,0,0,0-.4-1.26A1.382,1.382,0,0,0,40.3-8.223q-1.279,0-1.494,1.631a11.507,11.507,0,0,0-.068,1.426,4.52,4.52,0,0,0,.381,2.207A1.319,1.319,0,0,0,40.327-2.344ZM49.722,0h-3.3V-10.566h3.3Zm-3.5-13.3a1.482,1.482,0,0,1,.508-1.159,1.909,1.909,0,0,1,1.318-.452,1.909,1.909,0,0,1,1.318.452,1.482,1.482,0,0,1,.508,1.159,1.482,1.482,0,0,1-.508,1.159,1.909,1.909,0,0,1-1.318.452,1.909,1.909,0,0,1-1.318-.452A1.482,1.482,0,0,1,46.226-13.3Zm9.355.107v2.627h1.738v2.285H55.581v4.834a1.234,1.234,0,0,0,.215.83,1.152,1.152,0,0,0,.85.234,4.828,4.828,0,0,0,.82-.059V-.088A6.074,6.074,0,0,1,55.61.2a3.448,3.448,0,0,1-2.51-.8,3.282,3.282,0,0,1-.811-2.432V-8.281H50.942v-2.285H52.29v-2.627Zm7.256,8.584,1.758-5.957H68.12L63.813,1.768l-.186.449a3.272,3.272,0,0,1-3.242,2.051,5.158,5.158,0,0,1-1.357-.195V1.729h.43a2.251,2.251,0,0,0,1.06-.2A1.216,1.216,0,0,0,61.06.81l.264-.7L57.651-10.566h3.516Z" transform="translate(441.575 830)" fill="#12263f"/>
    <rect id="Rectángulo_34887" data-name="Rectángulo 34887" width="190" height="46" rx="23" transform="translate(250.333 374)" fill="#c4d1ff"/>
    <rect id="Rectángulo_34888" data-name="Rectángulo 34888" width="190" height="46" rx="23" transform="translate(250.333 467)" fill="#c4d1ff"/>
    <path id="Trazado_125321" data-name="Trazado 125321" d="M-56.484-6.816a8.385,8.385,0,0,1-.771,3.682A5.7,5.7,0,0,1-59.448-.669,6.1,6.1,0,0,1-62.686.2,6.191,6.191,0,0,1-65.908-.64,5.692,5.692,0,0,1-68.1-3.027a8.144,8.144,0,0,1-.825-3.564v-.8a8.422,8.422,0,0,1,.767-3.687,5.688,5.688,0,0,1,2.2-2.466,6.147,6.147,0,0,1,3.257-.869,6.087,6.087,0,0,1,3.223.859,5.79,5.79,0,0,1,2.2,2.446,8.18,8.18,0,0,1,.8,3.638Zm-3.486-.6a5.979,5.979,0,0,0-.708-3.218,2.271,2.271,0,0,0-2.026-1.1q-2.578,0-2.725,3.867l-.01,1.045A6.149,6.149,0,0,0-64.746-3.6,2.268,2.268,0,0,0-62.686-2.48a2.24,2.24,0,0,0,2-1.1,5.982,5.982,0,0,0,.713-3.174Zm8.125-3.154.107,1.24a3.583,3.583,0,0,1,3.018-1.436,3.015,3.015,0,0,1,2.466.986,4.7,4.7,0,0,1,.845,2.969V0h-3.3V-6.67a1.783,1.783,0,0,0-.322-1.177,1.491,1.491,0,0,0-1.172-.376,1.569,1.569,0,0,0-1.436.762V0h-3.291V-10.566Zm9.414,14.395-1.66-.781.332-.664a5.416,5.416,0,0,0,.713-2.422V-2.48h2.637l-.01,2.119A5.3,5.3,0,0,1-41,1.924,5.806,5.806,0,0,1-42.432,3.828ZM-29.746,0h-3.3V-10.566h3.3Zm-3.5-13.3a1.482,1.482,0,0,1,.508-1.159,1.909,1.909,0,0,1,1.318-.452,1.909,1.909,0,0,1,1.318.452A1.482,1.482,0,0,1-29.59-13.3a1.482,1.482,0,0,1-.508,1.159,1.909,1.909,0,0,1-1.318.452,1.909,1.909,0,0,1-1.318-.452A1.482,1.482,0,0,1-33.242-13.3Zm8.545,2.734.107,1.24a3.583,3.583,0,0,1,3.018-1.436,3.015,3.015,0,0,1,2.466.986,4.7,4.7,0,0,1,.845,2.969V0h-3.3V-6.67a1.783,1.783,0,0,0-.322-1.177,1.491,1.491,0,0,0-1.172-.376,1.569,1.569,0,0,0-1.436.762V0h-3.291V-10.566Zm9.414,14.395-1.66-.781.332-.664A5.416,5.416,0,0,0-15.9-.039V-2.48h2.637l-.01,2.119a5.3,5.3,0,0,1-.576,2.285A5.806,5.806,0,0,1-15.283,3.828ZM3.74-5.2A6.44,6.44,0,0,1,2.666-1.2,3.6,3.6,0,0,1-.361.2a3.122,3.122,0,0,1-2.6-1.279L-3.1,0H-6.045V-15h3.291v5.283A3.013,3.013,0,0,1-.381-10.762,3.6,3.6,0,0,1,2.666-9.346,6.473,6.473,0,0,1,3.74-5.361Zm-3.3-.21A4.3,4.3,0,0,0,.034-7.574a1.366,1.366,0,0,0-1.245-.648,1.576,1.576,0,0,0-1.543.848v4.192a1.585,1.585,0,0,0,1.563.838A1.4,1.4,0,0,0,.283-3.475,8.121,8.121,0,0,0,.439-5.405ZM10.3.2a5.432,5.432,0,0,1-3.936-1.45,5.008,5.008,0,0,1-1.5-3.774V-5.3a6.489,6.489,0,0,1,.6-2.861,4.395,4.395,0,0,1,1.753-1.919,5.292,5.292,0,0,1,2.734-.679A4.574,4.574,0,0,1,13.467-9.38a5.43,5.43,0,0,1,1.289,3.853v1.279H8.213a2.372,2.372,0,0,0,.771,1.4,2.3,2.3,0,0,0,1.543.508,2.958,2.958,0,0,0,2.441-1.094l1.5,1.777A4.2,4.2,0,0,1,12.729-.308,5.891,5.891,0,0,1,10.3.2ZM9.932-8.223q-1.445,0-1.719,1.914h3.32v-.254a1.63,1.63,0,0,0-.4-1.226A1.593,1.593,0,0,0,9.932-8.223Zm9.98-4.971v2.627H21.65v2.285H19.912v4.834a1.234,1.234,0,0,0,.215.83,1.152,1.152,0,0,0,.85.234,4.828,4.828,0,0,0,.82-.059V-.088A6.074,6.074,0,0,1,19.941.2a3.448,3.448,0,0,1-2.51-.8,3.282,3.282,0,0,1-.811-2.432V-8.281H15.273v-2.285h1.348v-2.627ZM32.07-4.336l1.064-6.23h3.154L33.8,0H31.016L29.268-6.27,27.51,0H24.727l-2.49-10.566h3.154l1.045,6.377,1.68-6.377H30.41ZM42.578.2a5.432,5.432,0,0,1-3.936-1.45,5.008,5.008,0,0,1-1.5-3.774V-5.3a6.489,6.489,0,0,1,.6-2.861,4.395,4.395,0,0,1,1.753-1.919,5.292,5.292,0,0,1,2.734-.679A4.574,4.574,0,0,1,45.742-9.38a5.43,5.43,0,0,1,1.289,3.853v1.279H40.488a2.372,2.372,0,0,0,.771,1.4,2.3,2.3,0,0,0,1.543.508,2.958,2.958,0,0,0,2.441-1.094l1.5,1.777A4.2,4.2,0,0,1,45-.308,5.891,5.891,0,0,1,42.578.2Zm-.371-8.418q-1.445,0-1.719,1.914h3.32v-.254a1.63,1.63,0,0,0-.4-1.226A1.593,1.593,0,0,0,42.207-8.223ZM53.467.2a5.432,5.432,0,0,1-3.936-1.45,5.008,5.008,0,0,1-1.5-3.774V-5.3a6.489,6.489,0,0,1,.6-2.861,4.395,4.395,0,0,1,1.753-1.919,5.292,5.292,0,0,1,2.734-.679A4.574,4.574,0,0,1,56.631-9.38,5.43,5.43,0,0,1,57.92-5.527v1.279H51.377a2.372,2.372,0,0,0,.771,1.4,2.3,2.3,0,0,0,1.543.508,2.958,2.958,0,0,0,2.441-1.094l1.5,1.777A4.2,4.2,0,0,1,55.894-.308,5.891,5.891,0,0,1,53.467.2ZM53.1-8.223q-1.445,0-1.719,1.914H54.7v-.254a1.63,1.63,0,0,0-.4-1.226A1.593,1.593,0,0,0,53.1-8.223Zm9.17-2.344.107,1.24a3.583,3.583,0,0,1,3.018-1.436,3.015,3.015,0,0,1,2.466.986A4.7,4.7,0,0,1,68.7-6.807V0H65.4V-6.67a1.783,1.783,0,0,0-.322-1.177,1.491,1.491,0,0,0-1.172-.376,1.569,1.569,0,0,0-1.436.762V0H59.18V-10.566Z" transform="translate(345.333 404)" fill="#12263f"/>
    <path id="Trazado_125322" data-name="Trazado 125322" d="M-64.058-14.219v9.307a5.349,5.349,0,0,1-.674,2.739A4.365,4.365,0,0,1-66.665-.41,6.812,6.812,0,0,1-69.644.2a5.885,5.885,0,0,1-4.092-1.348,4.806,4.806,0,0,1-1.523-3.691v-9.375h3.447v9.443q.059,2.334,2.168,2.334a2.1,2.1,0,0,0,1.611-.586,2.739,2.739,0,0,0,.547-1.9v-9.287Zm5.01,3.652.107,1.24a3.583,3.583,0,0,1,3.018-1.436,3.015,3.015,0,0,1,2.466.986,4.7,4.7,0,0,1,.845,2.969V0h-3.3V-6.67a1.783,1.783,0,0,0-.322-1.177,1.491,1.491,0,0,0-1.172-.376,1.569,1.569,0,0,0-1.436.762V0h-3.291V-10.566Zm7.842,5.205a6.455,6.455,0,0,1,1.084-3.955,3.568,3.568,0,0,1,3.027-1.445,3.035,3.035,0,0,1,2.383,1.113V-15h3.3V0H-44.37l-.166-1.133A3.116,3.116,0,0,1-47.114.2,3.562,3.562,0,0,1-50.1-1.25,6.659,6.659,0,0,1-51.206-5.361Zm3.291.205q0,2.813,1.641,2.813a1.62,1.62,0,0,0,1.563-.918V-7.285a1.576,1.576,0,0,0-1.543-.937q-1.523,0-1.65,2.461ZM-34.429.2a5.432,5.432,0,0,1-3.936-1.45,5.008,5.008,0,0,1-1.5-3.774V-5.3a6.489,6.489,0,0,1,.6-2.861,4.395,4.395,0,0,1,1.753-1.919,5.292,5.292,0,0,1,2.734-.679A4.574,4.574,0,0,1-31.265-9.38a5.43,5.43,0,0,1,1.289,3.853v1.279h-6.543a2.372,2.372,0,0,0,.771,1.4,2.3,2.3,0,0,0,1.543.508,2.958,2.958,0,0,0,2.441-1.094l1.5,1.777A4.2,4.2,0,0,1-32-.308,5.891,5.891,0,0,1-34.429.2ZM-34.8-8.223q-1.445,0-1.719,1.914h3.32v-.254a1.63,1.63,0,0,0-.4-1.226A1.593,1.593,0,0,0-34.8-8.223Zm12.539.635-1.084-.078a1.947,1.947,0,0,0-1.992.977V0h-3.291V-10.566h3.086l.107,1.357a2.548,2.548,0,0,1,2.314-1.553,3.209,3.209,0,0,1,.918.117Zm.654,11.416-1.66-.781.332-.664a5.416,5.416,0,0,0,.713-2.422V-2.48h2.637l-.01,2.119a5.3,5.3,0,0,1-.576,2.285A5.806,5.806,0,0,1-21.606,3.828ZM-8.589,0h-3.418V-14.219h3.418Zm5.254-10.566.107,1.24A3.583,3.583,0,0,1-.21-10.762a3.015,3.015,0,0,1,2.466.986A4.7,4.7,0,0,1,3.1-6.807V0H-.2V-6.67A1.783,1.783,0,0,0-.522-7.847a1.491,1.491,0,0,0-1.172-.376,1.569,1.569,0,0,0-1.436.762V0H-6.421V-10.566ZM10.63,0V-8.281H9.1v-2.285H10.63v-.84a3.651,3.651,0,0,1,1.064-2.8,4.206,4.206,0,0,1,2.988-1A6.544,6.544,0,0,1,16.226-15l.01,2.422a3.007,3.007,0,0,0-.811-.088q-1.494,0-1.494,1.289v.811h2.061v2.285H13.931V0ZM23.54-7.588l-1.084-.078a1.947,1.947,0,0,0-1.992.977V0H17.173V-10.566h3.086l.107,1.357a2.548,2.548,0,0,1,2.314-1.553,3.209,3.209,0,0,1,.918.117Zm.42,2.207A6.236,6.236,0,0,1,24.575-8.2a4.4,4.4,0,0,1,1.768-1.9,5.323,5.323,0,0,1,2.705-.664,4.858,4.858,0,0,1,3.74,1.47,5.64,5.64,0,0,1,1.367,4v.117a5.472,5.472,0,0,1-1.372,3.921A4.871,4.871,0,0,1,29.067.2a4.927,4.927,0,0,1-3.623-1.353A5.29,5.29,0,0,1,23.97-4.824Zm3.291.205a3.932,3.932,0,0,0,.459,2.148,1.529,1.529,0,0,0,1.357.684q1.758,0,1.8-2.705v-.332q0-2.842-1.816-2.842-1.65,0-1.787,2.451Zm11.377-5.391.107,1.24a3.583,3.583,0,0,1,3.018-1.436,3.015,3.015,0,0,1,2.466.986,4.7,4.7,0,0,1,.845,2.969V0h-3.3V-6.67a1.783,1.783,0,0,0-.322-1.177,1.491,1.491,0,0,0-1.172-.376,1.569,1.569,0,0,0-1.436.762V0H35.542V-10.566Zm12.09-2.627v2.627h1.738v2.285H50.718v4.834a1.234,1.234,0,0,0,.215.83,1.152,1.152,0,0,0,.85.234,4.828,4.828,0,0,0,.82-.059V-.088A6.074,6.074,0,0,1,50.747.2a3.448,3.448,0,0,1-2.51-.8,3.282,3.282,0,0,1-.811-2.432V-8.281H46.079v-2.285h1.348v-2.627Zm7.6,7.813A6.236,6.236,0,0,1,58.931-8.2,4.4,4.4,0,0,1,60.7-10.1a5.323,5.323,0,0,1,2.705-.664,4.858,4.858,0,0,1,3.74,1.47,5.64,5.64,0,0,1,1.367,4v.117a5.472,5.472,0,0,1-1.372,3.921A4.871,4.871,0,0,1,63.423.2,4.927,4.927,0,0,1,59.8-1.157a5.29,5.29,0,0,1-1.475-3.667Zm3.291.205a3.932,3.932,0,0,0,.459,2.148,1.529,1.529,0,0,0,1.357.684q1.758,0,1.8-2.705v-.332q0-2.842-1.816-2.842-1.65,0-1.787,2.451ZM70.688,0V-8.281H69.155v-2.285h1.533v-.84a3.651,3.651,0,0,1,1.064-2.8,4.206,4.206,0,0,1,2.988-1A6.544,6.544,0,0,1,76.284-15l.01,2.422a3.007,3.007,0,0,0-.811-.088q-1.494,0-1.494,1.289v.811H76.05v2.285H73.989V0Z" transform="translate(345.333 497)" fill="#12263f"/>
    <path id="Trazado_123075" data-name="Trazado 123075" d="M-12094-9310.619h74.758v-67.842" transform="translate(12828.575 10086)" fill="none" stroke="#fc5f65" stroke-width="3"/>
    <path id="Trazado_123078" data-name="Trazado 123078" d="M-11978.77-9378.461H-12094v98.531" transform="translate(12953.11 9822.961)" fill="none" stroke="#fc5f65" stroke-width="3"/>
    <path id="Trazado_123077" data-name="Trazado 123077" d="M-12094-9378.46h74.758v91.921" transform="translate(12768.333 9822.96)" fill="none" stroke="#fc5f65" stroke-width="3"/>
    <rect id="Rectángulo_34879" data-name="Rectángulo 34879" width="164" height="47" rx="10" transform="translate(583.575 752)" fill="#3c3fa7"/>
    <path id="Trazado_125326" data-name="Trazado 125326" d="M-48.271,0h-3.418V-14.219h3.418Zm3.4-9.766-1.445-.781a5.666,5.666,0,0,0,.83-2.754V-15h2.4v1.592a4.306,4.306,0,0,1-.522,1.938A5.831,5.831,0,0,1-44.873-9.766Zm6.6-.8.107,1.24a3.633,3.633,0,0,1,3.018-1.436A2.675,2.675,0,0,1-32.441-9.17a3.517,3.517,0,0,1,3.105-1.592q3.213,0,3.3,3.887V0h-3.3V-6.67a2.014,2.014,0,0,0-.273-1.182,1.164,1.164,0,0,0-1-.371,1.559,1.559,0,0,0-1.455.869l.01.137V0h-3.3V-6.65a2.117,2.117,0,0,0-.264-1.2,1.161,1.161,0,0,0-1.006-.371,1.578,1.578,0,0,0-1.445.869V0h-3.291V-10.566ZM-13.223,0a3.716,3.716,0,0,1-.312-.947A3.06,3.06,0,0,1-16.074.2a3.749,3.749,0,0,1-2.539-.9,2.875,2.875,0,0,1-1.045-2.271,2.955,2.955,0,0,1,1.27-2.6A6.468,6.468,0,0,1-14.7-6.455h1.016v-.559q0-1.462-1.26-1.462a1.03,1.03,0,0,0-1.172,1.158H-19.4a2.95,2.95,0,0,1,1.3-2.487,5.479,5.479,0,0,1,3.325-.956,4.8,4.8,0,0,1,3.193.986,3.429,3.429,0,0,1,1.2,2.705v4.678A4.79,4.79,0,0,0-9.932-.166V0Zm-2.061-2.148a1.836,1.836,0,0,0,1.021-.264,1.653,1.653,0,0,0,.581-.6V-4.7h-.957q-1.719,0-1.719,1.543a.942.942,0,0,0,.3.728A1.1,1.1,0,0,0-15.283-2.148ZM-4.727-13.193v2.627h1.738v2.285H-4.727v4.834a1.234,1.234,0,0,0,.215.83,1.152,1.152,0,0,0,.85.234,4.828,4.828,0,0,0,.82-.059V-.088A6.074,6.074,0,0,1-4.7.2a3.448,3.448,0,0,1-2.51-.8,3.282,3.282,0,0,1-.811-2.432V-8.281H-9.365v-2.285h1.348v-2.627ZM6.5-9.434a3.294,3.294,0,0,1,2.7-1.328,3.284,3.284,0,0,1,2.637,1.035,4.651,4.651,0,0,1,.908,3.057V0h-3.3V-6.592A1.86,1.86,0,0,0,9.1-7.827a1.469,1.469,0,0,0-1.162-.4A1.582,1.582,0,0,0,6.5-7.578V0H3.213V-15H6.5ZM14.16-5.381A6.236,6.236,0,0,1,14.775-8.2a4.4,4.4,0,0,1,1.768-1.9,5.323,5.323,0,0,1,2.705-.664,4.858,4.858,0,0,1,3.74,1.47,5.64,5.64,0,0,1,1.367,4v.117a5.472,5.472,0,0,1-1.372,3.921A4.871,4.871,0,0,1,19.268.2a4.927,4.927,0,0,1-3.623-1.353A5.29,5.29,0,0,1,14.17-4.824Zm3.291.205a3.932,3.932,0,0,0,.459,2.148,1.529,1.529,0,0,0,1.357.684q1.758,0,1.8-2.705v-.332q0-2.842-1.816-2.842-1.65,0-1.787,2.451Zm11.465-5.391.107,1.24a3.633,3.633,0,0,1,3.018-1.436A2.675,2.675,0,0,1,34.746-9.17a3.516,3.516,0,0,1,3.105-1.592q3.213,0,3.3,3.887V0h-3.3V-6.67a2.014,2.014,0,0,0-.273-1.182,1.164,1.164,0,0,0-1-.371,1.559,1.559,0,0,0-1.455.869l.01.137V0h-3.3V-6.65a2.117,2.117,0,0,0-.264-1.2,1.161,1.161,0,0,0-1.006-.371,1.578,1.578,0,0,0-1.445.869V0H25.83V-10.566ZM48.145.2a5.432,5.432,0,0,1-3.936-1.45,5.008,5.008,0,0,1-1.5-3.774V-5.3a6.489,6.489,0,0,1,.6-2.861,4.395,4.395,0,0,1,1.753-1.919,5.292,5.292,0,0,1,2.734-.679A4.574,4.574,0,0,1,51.309-9.38,5.43,5.43,0,0,1,52.6-5.527v1.279H46.055a2.372,2.372,0,0,0,.771,1.4,2.3,2.3,0,0,0,1.543.508,2.958,2.958,0,0,0,2.441-1.094l1.5,1.777A4.2,4.2,0,0,1,50.571-.308,5.891,5.891,0,0,1,48.145.2Zm-.371-8.418q-1.445,0-1.719,1.914h3.32v-.254a1.63,1.63,0,0,0-.4-1.226A1.593,1.593,0,0,0,47.773-8.223Z" transform="translate(665.575 783)" fill="#fff"/>
    <rect id="Rectángulo_34876" data-name="Rectángulo 34876" width="217" height="198" rx="25" transform="translate(700.333 525)" fill="#fc5f65"/>
    <g id="Grupo_87633" data-name="Grupo 87633" transform="translate(11 -213.064)">
      <path id="Trazado_125330" data-name="Trazado 125330" d="M-55.137-14.215H-60.2L-62.66,0h-3.434l2.461-14.215h-5l.5-2.848h13.5Zm4.406,2.941A4.419,4.419,0,0,1-47.3-12.914a3.214,3.214,0,0,1,2.771,1.354,5.321,5.321,0,0,1,.662,3.568L-45.2,0h-3.3l1.348-8.037a3.9,3.9,0,0,0,.023-.845,1.328,1.328,0,0,0-1.477-1.3,2.854,2.854,0,0,0-2.344,1.15L-52.547,0h-3.3l3.117-18h3.316ZM-39.129,0h-3.328l2.2-12.68h3.328Zm-.738-15.9a1.651,1.651,0,0,1,.516-1.3,1.814,1.814,0,0,1,1.3-.516,1.823,1.823,0,0,1,1.3.457,1.644,1.644,0,0,1,.574,1.242,1.7,1.7,0,0,1-.486,1.266,1.823,1.823,0,0,1-1.33.563,1.853,1.853,0,0,1-1.295-.445A1.636,1.636,0,0,1-39.867-15.9ZM-28.98-3.574q.188-.937-1.3-1.359l-1.066-.27q-3.785-1.043-3.68-3.68a3.641,3.641,0,0,1,1.588-2.924,5.913,5.913,0,0,1,3.686-1.107,5.3,5.3,0,0,1,3.469,1.137,3.745,3.745,0,0,1,1.348,2.965l-3.281-.012a1.445,1.445,0,0,0-1.617-1.652,2.327,2.327,0,0,0-1.342.387,1.592,1.592,0,0,0-.7,1.043q-.176.938,1.418,1.324l.469.105a9.428,9.428,0,0,1,2.473.885A3.732,3.732,0,0,1-26.2-5.5a3.06,3.06,0,0,1,.428,1.77,3.377,3.377,0,0,1-.779,2.109A4.77,4.77,0,0,1-28.588-.223a7.1,7.1,0,0,1-2.725.457A5.353,5.353,0,0,1-34.828-.979a3.91,3.91,0,0,1-1.43-3.076l3.117.023A1.714,1.714,0,0,0-31.2-2.191a2.768,2.768,0,0,0,1.506-.375A1.481,1.481,0,0,0-28.98-3.574ZM-14.836,0h-3.328l2.2-12.68h3.328Zm-.738-15.9a1.651,1.651,0,0,1,.516-1.3,1.814,1.814,0,0,1,1.3-.516,1.823,1.823,0,0,1,1.3.457,1.644,1.644,0,0,1,.574,1.242,1.7,1.7,0,0,1-.486,1.266,1.823,1.823,0,0,1-1.33.563,1.853,1.853,0,0,1-1.295-.445A1.636,1.636,0,0,1-15.574-15.9ZM-4.687-3.574q.187-.937-1.3-1.359L-7.055-5.2q-3.785-1.043-3.68-3.68a3.641,3.641,0,0,1,1.588-2.924,5.913,5.913,0,0,1,3.686-1.107,5.3,5.3,0,0,1,3.469,1.137A3.745,3.745,0,0,1-.645-8.812l-3.281-.012a1.445,1.445,0,0,0-1.617-1.652,2.327,2.327,0,0,0-1.342.387,1.592,1.592,0,0,0-.7,1.043q-.176.938,1.418,1.324l.469.105a9.428,9.428,0,0,1,2.473.885A3.732,3.732,0,0,1-1.9-5.5a3.06,3.06,0,0,1,.428,1.77,3.377,3.377,0,0,1-.779,2.109A4.77,4.77,0,0,1-4.295-.223,7.1,7.1,0,0,1-7.02.234,5.353,5.353,0,0,1-10.535-.979a3.91,3.91,0,0,1-1.43-3.076l3.117.023A1.714,1.714,0,0,0-6.9-2.191,2.768,2.768,0,0,0-5.4-2.566,1.481,1.481,0,0,0-4.687-3.574Zm22.1-1.043,3.012-8.062h3.293L18.387,0H15.621l-.937-7.934L10.98,0H8.215L7.277-12.68h3.094l.2,7.98,3.621-7.98h2.391ZM28.23-11.273a4.419,4.419,0,0,1,3.434-1.641,3.214,3.214,0,0,1,2.771,1.354A5.321,5.321,0,0,1,35.1-7.992L33.762,0h-3.3L31.8-8.037a3.9,3.9,0,0,0,.023-.845,1.328,1.328,0,0,0-1.477-1.3,2.854,2.854,0,0,0-2.344,1.15L26.414,0h-3.3l3.117-18h3.316ZM42.363.234A5.516,5.516,0,0,1,39.416-.58a4.938,4.938,0,0,1-1.916-2.2,6.14,6.14,0,0,1-.492-3.088l.035-.469a8.2,8.2,0,0,1,1.078-3.4,6.512,6.512,0,0,1,2.32-2.385,5.741,5.741,0,0,1,3.141-.791,4.386,4.386,0,0,1,3.709,1.8,6.175,6.175,0,0,1,.955,4.442l-.187,1.444h-7.77a2.721,2.721,0,0,0,.6,1.969,2.281,2.281,0,0,0,1.758.762A4.054,4.054,0,0,0,45.809-3.9L47.32-2.027A4.7,4.7,0,0,1,45.258-.346,6.745,6.745,0,0,1,42.363.234Zm1.055-10.418a2.348,2.348,0,0,0-1.623.574,5.045,5.045,0,0,0-1.271,2.074H45.07l.07-.3a3.106,3.106,0,0,0,.012-.891,1.7,1.7,0,0,0-.574-1.061A1.8,1.8,0,0,0,43.418-10.184Zm14.309.68a6.823,6.823,0,0,0-1.113-.117,3.2,3.2,0,0,0-2.8,1.324L52.348,0h-3.3l2.2-12.68,3.105-.012-.3,1.547A3.487,3.487,0,0,1,57-12.937a4.82,4.82,0,0,1,1.148.164ZM63.68.234A5.516,5.516,0,0,1,60.732-.58a4.938,4.938,0,0,1-1.916-2.2,6.14,6.14,0,0,1-.492-3.088l.035-.469a8.2,8.2,0,0,1,1.078-3.4,6.512,6.512,0,0,1,2.32-2.385,5.741,5.741,0,0,1,3.141-.791,4.386,4.386,0,0,1,3.709,1.8,6.175,6.175,0,0,1,.955,4.442l-.187,1.444h-7.77a2.721,2.721,0,0,0,.6,1.969,2.281,2.281,0,0,0,1.758.762A4.054,4.054,0,0,0,67.125-3.9l1.512,1.875A4.7,4.7,0,0,1,66.574-.346,6.745,6.745,0,0,1,63.68.234Zm1.055-10.418a2.348,2.348,0,0,0-1.623.574A5.045,5.045,0,0,0,61.84-7.535h4.547l.07-.3a3.106,3.106,0,0,0,.012-.891,1.7,1.7,0,0,0-.574-1.061A1.8,1.8,0,0,0,64.734-10.184ZM-18.135,24h-3.434l2.953-17.062h3.434Zm12.445,0H-9.018L-5.889,6h3.316ZM.6,24H-2.725l2.2-12.68H2.807ZM-.135,8.1A1.651,1.651,0,0,1,.381,6.8a1.814,1.814,0,0,1,1.3-.516,1.823,1.823,0,0,1,1.3.457A1.644,1.644,0,0,1,3.557,7.98,1.7,1.7,0,0,1,3.07,9.246a1.823,1.823,0,0,1-1.33.563A1.853,1.853,0,0,1,.445,9.363,1.636,1.636,0,0,1-.135,8.1ZM8.736,19.816l3.609-8.5h3.563L9.779,24H6.615L4.447,11.32H7.8Zm12.574,4.418a5.516,5.516,0,0,1-2.947-.814,4.938,4.938,0,0,1-1.916-2.2,6.14,6.14,0,0,1-.492-3.088l.035-.469a8.2,8.2,0,0,1,1.078-3.4,6.512,6.512,0,0,1,2.32-2.385,5.741,5.741,0,0,1,3.141-.791,4.386,4.386,0,0,1,3.709,1.8,6.175,6.175,0,0,1,.955,4.442l-.187,1.444h-7.77a2.721,2.721,0,0,0,.6,1.969,2.281,2.281,0,0,0,1.758.762A4.054,4.054,0,0,0,24.756,20.1l1.512,1.875a4.7,4.7,0,0,1-2.062,1.682A6.745,6.745,0,0,1,21.311,24.234Zm1.055-10.418a2.348,2.348,0,0,0-1.623.574,5.045,5.045,0,0,0-1.271,2.074h4.547l.07-.3a3.106,3.106,0,0,0,.012-.891,1.7,1.7,0,0,0-.574-1.061A1.8,1.8,0,0,0,22.365,13.816Z" transform="translate(798.333 879.5)" fill="#fff"/>
      <g id="Grupo_83572" data-name="Grupo 83572" transform="translate(761.532 766.265)">
        <path id="Trazado_117342" data-name="Trazado 117342" d="M223.3,409.09h10.459v15.256H223.3Z" transform="translate(-194.019 -344.875)" fill="#30579d"/>
        <path id="Trazado_117343" data-name="Trazado 117343" d="M223.3,409.09h10.459v8.784H223.3Z" transform="translate(-194.019 -344.875)" fill="#26457d"/>
        <path id="Trazado_117344" data-name="Trazado 117344" d="M223.3,409.09h3.744v15.256H223.3Z" transform="translate(-194.019 -344.875)" fill="#26457d"/>
        <path id="Trazado_117345" data-name="Trazado 117345" d="M52.988,76.512H96.436A12.782,12.782,0,0,0,109.217,63.73V20.282A12.782,12.782,0,0,0,96.436,7.5H52.988A12.782,12.782,0,0,0,40.206,20.282V63.73A12.782,12.782,0,0,0,52.988,76.512Z" transform="translate(-40.206 -7.5)" fill="#f6f9f9"/>
        <path id="Trazado_117346" data-name="Trazado 117346" d="M78.19,96.918a7.994,7.994,0,0,1-7.985-7.985V45.485A7.994,7.994,0,0,1,78.19,37.5h43.448a7.994,7.994,0,0,1,7.985,7.985V88.933a7.994,7.994,0,0,1-7.985,7.985Z" transform="translate(-65.408 -32.703)" fill="#6bbef6"/>
        <g id="Grupo_83571" data-name="Grupo 83571" transform="translate(25.328 10.397)">
          <path id="Trazado_117347" data-name="Trazado 117347" d="M206.729,101.117c-4.312,0-4.65-.113-5.074-.254a3.334,3.334,0,0,1-2.137-2.169,3.7,3.7,0,0,1,.646-3.235c.23-.335.551-.755,1.037-1.392,1.1-1.443,3.154-4.13,6.594-9.044a11.338,11.338,0,0,0,1.786-3.478l.053-.417a2.373,2.373,0,0,0-4.7-.3,3.2,3.2,0,1,1-6.276-1.233,8.769,8.769,0,0,1,17.373,1.7,3.208,3.208,0,0,1-.026.405l-.108.842a3.177,3.177,0,0,1-.057.317,17.254,17.254,0,0,1-2.81,5.837c-1.782,2.546-3.2,4.51-4.315,6.02,1.589-.008,3.336-.023,5-.044a3.2,3.2,0,1,1,.08,6.4c-3.117.039-5.395.056-7.071.056Z" transform="translate(-198.602 -72.519)" fill="#f6f9f9"/>
        </g>
      </g>
      <g id="Grupo_83573" data-name="Grupo 83573" transform="translate(760.333 765.065)">
        <path id="Trazado_117348" data-name="Trazado 117348" d="M90.134,0H46.686A14,14,0,0,0,32.705,13.981V57.429A14,14,0,0,0,46.686,71.41h15.3v9.26a1.2,1.2,0,0,0,1.2,1.2H73.64a1.2,1.2,0,0,0,1.2-1.2V71.41h15.3a14,14,0,0,0,13.981-13.981V13.981A14,14,0,0,0,90.134,0ZM72.44,79.471H64.38V71.41H72.44Zm29.276-22.042A11.6,11.6,0,0,1,90.134,69.012H46.686A11.6,11.6,0,0,1,35.1,57.429V13.981A11.6,11.6,0,0,1,46.686,2.4H90.134a11.6,11.6,0,0,1,11.583,11.583V57.429Z" transform="translate(-32.705 0)"/>
        <path id="Trazado_117349" data-name="Trazado 117349" d="M115.341,30H71.893a9.194,9.194,0,0,0-9.183,9.185V82.631A9.147,9.147,0,0,0,69.165,91.4a1.2,1.2,0,1,0,.714-2.29,6.759,6.759,0,0,1-4.77-6.481V39.185A6.793,6.793,0,0,1,71.893,32.4h43.448a6.793,6.793,0,0,1,6.785,6.786V82.631a6.793,6.793,0,0,1-6.785,6.786H74.292a1.2,1.2,0,1,0,0,2.4h41.05a9.194,9.194,0,0,0,9.183-9.185V39.185A9.194,9.194,0,0,0,115.341,30Z" transform="translate(-57.912 -25.203)"/>
        <path id="Trazado_117350" data-name="Trazado 117350" d="M118.417,299.611a1.2,1.2,0,0,0-.007-2.4H118.4c-1.049.006-2.178.01-2.99.01V286.439a1.2,1.2,0,0,0-2.4,0v11.973a1.2,1.2,0,0,0,1,1.182,11.756,11.756,0,0,0,1.479.028C116.128,299.622,117.057,299.619,118.417,299.611Z" transform="translate(-100.173 -239.63)"/>
        <path id="Trazado_117351" data-name="Trazado 117351" d="M368.944,285.24a1.2,1.2,0,0,0-1.2,1.2v11.973a1.2,1.2,0,0,0,1,1.182,11.769,11.769,0,0,0,1.48.028c.638,0,1.566,0,2.926-.011a1.2,1.2,0,0,0-.007-2.4h-.007c-1.049.006-2.178.01-2.99.01V286.439A1.2,1.2,0,0,0,368.944,285.24Z" transform="translate(-314.172 -239.63)"/>
        <path id="Trazado_117352" data-name="Trazado 117352" d="M164.945,287.123V299a1.2,1.2,0,0,0,1.2,1.2h5a1.2,1.2,0,1,0,0-2.4h-3.8v-3.538h3.435a1.2,1.2,0,0,0,0-2.4h-3.435v-3.538h3.8a1.2,1.2,0,1,0,0-2.4h-5A1.2,1.2,0,0,0,164.945,287.123Z" transform="translate(-143.8 -240.204)"/>
        <path id="Trazado_117353" data-name="Trazado 117353" d="M310.5,288.323a1.2,1.2,0,0,0,0-2.4h-5a1.2,1.2,0,0,0-1.2,1.2V299a1.2,1.2,0,0,0,1.2,1.2h5a1.2,1.2,0,0,0,0-2.4h-3.8v-3.538h3.435a1.2,1.2,0,1,0,0-2.4H306.7v-3.538Z" transform="translate(-260.871 -240.205)"/>
        <path id="Trazado_117354" data-name="Trazado 117354" d="M230.5,286.082l-3.05,9.181-3.2-9.218a1.2,1.2,0,1,0-2.266.787l4.1,11.811a1.471,1.471,0,0,0,1.385.978h.01a1.473,1.473,0,0,0,1.384-1l3.912-11.777a1.2,1.2,0,0,0-2.276-.756Z" transform="translate(-191.665 -239.629)"/>
        <path id="Trazado_117355" data-name="Trazado 117355" d="M200.966,67.418a7.532,7.532,0,0,1,5.975,2.926,1.2,1.2,0,0,0,1.891-1.475,9.966,9.966,0,0,0-17.647,4.19,4.4,4.4,0,0,0,8.63,1.7,1.174,1.174,0,0,1,2.311.056l-.025.2a10.442,10.442,0,0,1-1.589,3.023c-3.444,4.92-5.473,7.576-6.572,9.015-.493.646-.819,1.072-1.066,1.432a4.793,4.793,0,0,0-.8,4.266,4.54,4.54,0,0,0,2.9,2.955c.621.206,1.145.314,5.453.314,1.8,0,4.185-.019,7.086-.056a4.4,4.4,0,1,0-.11-8.793c-.841.011-1.721.02-2.613.027.933-1.29,1.912-2.667,2.927-4.116a18.487,18.487,0,0,0,3-6.259,4.246,4.246,0,0,0,.076-.429l.11-.855a4.593,4.593,0,0,0,.034-.547,10.243,10.243,0,0,0-.061-1.109,1.2,1.2,0,1,0-2.384.261,7.842,7.842,0,0,1,.047.848,2.219,2.219,0,0,1-.016.253l-.11.852c-.007.059-.019.125-.034.189a16.143,16.143,0,0,1-2.624,5.422c-1.527,2.181-2.974,4.2-4.3,5.995a1.2,1.2,0,0,0,.965,1.911h.006c1.686-.008,3.418-.023,5.006-.043h.02a2.006,2.006,0,0,1,2.007,1.973,2,2,0,0,1-1.974,2.024c-2.891.037-5.265.056-7.055.056-4.121,0-4.44-.106-4.7-.191a2.135,2.135,0,0,1-1.37-1.385,2.483,2.483,0,0,1,.489-2.2c.212-.308.523-.716,1-1.343,1.1-1.441,3.15-4.124,6.622-9.084a12.65,12.65,0,0,0,1.964-3.862,1.2,1.2,0,0,0,.03-.154l.053-.417a1.187,1.187,0,0,0,.007-.231,3.572,3.572,0,0,0-7.068-.453,2,2,0,1,1-3.923-.77,7.58,7.58,0,0,1,7.427-6.1Z" transform="translate(-165.774 -54.622)"/>
      </g>
    </g>
    <rect id="Rectángulo_34877" data-name="Rectángulo 34877" width="190" height="47" rx="10" transform="translate(950.333 420)" fill="#3c3fa7"/>
    <path id="Trazado_125327" data-name="Trazado 125327" d="M-50.5-5.3l1.631-8.916h3.4L-48.491,0h-3.555l-1.9-8.105L-55.815,0H-59.36l-3.027-14.219h3.408L-57.349-5.3l1.953-8.916h2.91ZM-32.251,0h-3.408V-5.937h-5.049V0h-3.428V-14.219h3.428v5.645h5.049v-5.645h3.408Zm6.582-5.391a6.343,6.343,0,0,1,1.094-3.945,3.592,3.592,0,0,1,3.018-1.426,3.068,3.068,0,0,1,2.6,1.328l.234-1.133h2.852V4.063h-3.3V-.879A3.063,3.063,0,0,1-21.577.2a3.561,3.561,0,0,1-2.983-1.45A6.7,6.7,0,0,1-25.669-5.391Zm3.291.205q0,2.842,1.641,2.842A1.589,1.589,0,0,0-19.175-3.2v-4.18a1.555,1.555,0,0,0-1.543-.84q-1.533,0-1.65,2.451ZM-7.72-1.143A3.393,3.393,0,0,1-10.542.2,3.328,3.328,0,0,1-13.174-.815a4.251,4.251,0,0,1-.894-2.905v-6.846h3.291V-3.7A1.183,1.183,0,0,0-9.458-2.344a1.72,1.72,0,0,0,1.611-.811v-7.412h3.311V0H-7.622ZM2.378.2a5.432,5.432,0,0,1-3.936-1.45,5.008,5.008,0,0,1-1.5-3.774V-5.3a6.489,6.489,0,0,1,.6-2.861A4.395,4.395,0,0,1-.708-10.083a5.292,5.292,0,0,1,2.734-.679A4.574,4.574,0,0,1,5.542-9.38,5.43,5.43,0,0,1,6.831-5.527v1.279H.288a2.372,2.372,0,0,0,.771,1.4A2.3,2.3,0,0,0,2.6-2.344,2.958,2.958,0,0,0,5.044-3.437l1.5,1.777A4.2,4.2,0,0,1,4.8-.308,5.891,5.891,0,0,1,2.378.2ZM2.007-8.223Q.562-8.223.288-6.309h3.32v-.254a1.63,1.63,0,0,0-.4-1.226A1.593,1.593,0,0,0,2.007-8.223Zm11.68,5.254a.76.76,0,0,0-.439-.674,6.685,6.685,0,0,0-1.67-.527,7.615,7.615,0,0,1-2.031-.718A3.4,3.4,0,0,1,8.325-5.967a2.577,2.577,0,0,1-.42-1.455,2.92,2.92,0,0,1,1.2-2.4,4.948,4.948,0,0,1,3.145-.942,5.482,5.482,0,0,1,3.359.947,2.962,2.962,0,0,1,1.27,2.49h-3.3q0-1.27-1.338-1.27a1.326,1.326,0,0,0-.869.288.892.892,0,0,0-.352.718.819.819,0,0,0,.43.713,4.06,4.06,0,0,0,1.372.449,11.857,11.857,0,0,1,1.655.42A3.007,3.007,0,0,1,16.86-3.066,2.767,2.767,0,0,1,15.576-.713,5.632,5.632,0,0,1,12.251.2,5.747,5.747,0,0,1,9.829-.293a4.05,4.05,0,0,1-1.66-1.328,3.007,3.007,0,0,1-.6-1.768h3.076a1.272,1.272,0,0,0,.488,1.069,2.009,2.009,0,0,0,1.2.337,1.58,1.58,0,0,0,1.011-.273A.875.875,0,0,0,13.687-2.969Zm8.545-10.225v2.627H23.97v2.285H22.231v4.834a1.234,1.234,0,0,0,.215.83,1.152,1.152,0,0,0,.85.234,4.828,4.828,0,0,0,.82-.059V-.088A6.074,6.074,0,0,1,22.261.2a3.448,3.448,0,0,1-2.51-.8,3.282,3.282,0,0,1-.811-2.432V-8.281H17.593v-2.285H18.94v-2.627ZM28.735,0h-3.3V-10.566h3.3Zm-3.5-13.3a1.482,1.482,0,0,1,.508-1.159,1.909,1.909,0,0,1,1.318-.452,1.909,1.909,0,0,1,1.318.452,1.482,1.482,0,0,1,.508,1.159,1.482,1.482,0,0,1-.508,1.159,1.909,1.909,0,0,1-1.318.452,1.909,1.909,0,0,1-1.318-.452A1.482,1.482,0,0,1,25.239-13.3Zm5.107,7.92A6.236,6.236,0,0,1,30.962-8.2a4.4,4.4,0,0,1,1.768-1.9,5.323,5.323,0,0,1,2.705-.664,4.858,4.858,0,0,1,3.74,1.47,5.64,5.64,0,0,1,1.367,4v.117A5.472,5.472,0,0,1,39.17-1.255,4.871,4.871,0,0,1,35.454.2a4.927,4.927,0,0,1-3.623-1.353,5.29,5.29,0,0,1-1.475-3.667Zm3.291.205A3.932,3.932,0,0,0,34.1-3.027a1.529,1.529,0,0,0,1.357.684q1.758,0,1.8-2.705v-.332q0-2.842-1.816-2.842-1.65,0-1.787,2.451Zm11.377-5.391.107,1.24a3.583,3.583,0,0,1,3.018-1.436,3.015,3.015,0,0,1,2.466.986,4.7,4.7,0,0,1,.845,2.969V0h-3.3V-6.67a1.783,1.783,0,0,0-.322-1.177,1.491,1.491,0,0,0-1.172-.376,1.569,1.569,0,0,0-1.436.762V0H41.929V-10.566ZM58.8-2.969a.76.76,0,0,0-.439-.674,6.685,6.685,0,0,0-1.67-.527,7.615,7.615,0,0,1-2.031-.718,3.4,3.4,0,0,1-1.221-1.079,2.577,2.577,0,0,1-.42-1.455,2.92,2.92,0,0,1,1.2-2.4,4.948,4.948,0,0,1,3.145-.942,5.482,5.482,0,0,1,3.359.947A2.962,2.962,0,0,1,62-7.324H58.7q0-1.27-1.338-1.27a1.326,1.326,0,0,0-.869.288.892.892,0,0,0-.352.718.819.819,0,0,0,.43.713,4.06,4.06,0,0,0,1.372.449,11.857,11.857,0,0,1,1.655.42,3.007,3.007,0,0,1,2.383,2.939A2.767,2.767,0,0,1,60.693-.713,5.632,5.632,0,0,1,57.368.2a5.747,5.747,0,0,1-2.422-.488,4.05,4.05,0,0,1-1.66-1.328,3.007,3.007,0,0,1-.6-1.768h3.076a1.272,1.272,0,0,0,.488,1.069,2.009,2.009,0,0,0,1.2.337,1.58,1.58,0,0,0,1.011-.273A.875.875,0,0,0,58.8-2.969Z" transform="translate(1045.333 451)" fill="#fff"/>
    <rect id="Rectángulo_34880" data-name="Rectángulo 34880" width="263" height="47" rx="10" transform="translate(441.333 420)" fill="#3c3fa7"/>
    <path id="Trazado_125323" data-name="Trazado 125323" d="M-99.316-4.824V0h-3.428V-14.219h5.674a6.608,6.608,0,0,1,2.886.6,4.526,4.526,0,0,1,1.943,1.709,4.667,4.667,0,0,1,.688,2.515,4.114,4.114,0,0,1-1.489,3.325,6.179,6.179,0,0,1-4.087,1.245Zm0-2.646h2.246a2.118,2.118,0,0,0,1.519-.5,1.85,1.85,0,0,0,.522-1.406,2.287,2.287,0,0,0-.537-1.592,1.9,1.9,0,0,0-1.465-.605h-2.285Zm15.83-.117-1.084-.078a1.947,1.947,0,0,0-1.992.977V0h-3.291V-10.566h3.086l.107,1.357a2.548,2.548,0,0,1,2.314-1.553,3.209,3.209,0,0,1,.918.117ZM-77.373.2a5.432,5.432,0,0,1-3.936-1.45,5.008,5.008,0,0,1-1.5-3.774V-5.3a6.489,6.489,0,0,1,.6-2.861,4.395,4.395,0,0,1,1.753-1.919,5.292,5.292,0,0,1,2.734-.679A4.574,4.574,0,0,1-74.209-9.38,5.43,5.43,0,0,1-72.92-5.527v1.279h-6.543a2.372,2.372,0,0,0,.771,1.4,2.3,2.3,0,0,0,1.543.508,2.958,2.958,0,0,0,2.441-1.094l1.5,1.777A4.2,4.2,0,0,1-74.946-.308,5.891,5.891,0,0,1-77.373.2Zm-.371-8.418q-1.445,0-1.719,1.914h3.32v-.254a1.63,1.63,0,0,0-.4-1.226A1.593,1.593,0,0,0-77.744-8.223Zm15.957,3.018A6.372,6.372,0,0,1-62.9-1.274,3.554,3.554,0,0,1-65.889.2,3.046,3.046,0,0,1-68.281-.869V4.063h-3.291V-10.566H-68.5l.1.977a3.046,3.046,0,0,1,2.49-1.172,3.582,3.582,0,0,1,3.037,1.44,6.45,6.45,0,0,1,1.084,3.96Zm-3.291-.205q0-2.812-1.641-2.812a1.549,1.549,0,0,0-1.562.84v4.16a1.6,1.6,0,0,0,1.582.879q1.572,0,1.621-2.715Zm4.326.029A6.236,6.236,0,0,1-60.137-8.2a4.4,4.4,0,0,1,1.768-1.9,5.323,5.323,0,0,1,2.705-.664,4.858,4.858,0,0,1,3.74,1.47,5.64,5.64,0,0,1,1.367,4v.117a5.472,5.472,0,0,1-1.372,3.921A4.871,4.871,0,0,1-55.645.2a4.927,4.927,0,0,1-3.623-1.353,5.29,5.29,0,0,1-1.475-3.667Zm3.291.205A3.932,3.932,0,0,0-57-3.027a1.529,1.529,0,0,0,1.357.684q1.758,0,1.8-2.705v-.332q0-2.842-1.816-2.842-1.65,0-1.787,2.451Zm13.887,2.207a.76.76,0,0,0-.439-.674,6.685,6.685,0,0,0-1.67-.527,7.615,7.615,0,0,1-2.031-.718,3.4,3.4,0,0,1-1.221-1.079,2.577,2.577,0,0,1-.42-1.455,2.92,2.92,0,0,1,1.2-2.4,4.948,4.948,0,0,1,3.145-.942,5.482,5.482,0,0,1,3.359.947,2.962,2.962,0,0,1,1.27,2.49h-3.3q0-1.27-1.338-1.27a1.326,1.326,0,0,0-.869.288.892.892,0,0,0-.352.718.819.819,0,0,0,.43.713,4.06,4.06,0,0,0,1.372.449,11.857,11.857,0,0,1,1.655.42A3.007,3.007,0,0,1-40.4-3.066,2.767,2.767,0,0,1-41.685-.713,5.632,5.632,0,0,1-45.01.2a5.747,5.747,0,0,1-2.422-.488,4.05,4.05,0,0,1-1.66-1.328,3.007,3.007,0,0,1-.6-1.768h3.076a1.272,1.272,0,0,0,.488,1.069,2.009,2.009,0,0,0,1.2.337,1.58,1.58,0,0,0,1.011-.273A.875.875,0,0,0-43.574-2.969ZM-35.391,0h-3.3V-10.566h3.3Zm-3.5-13.3a1.482,1.482,0,0,1,.508-1.159,1.909,1.909,0,0,1,1.318-.452,1.909,1.909,0,0,1,1.318.452,1.482,1.482,0,0,1,.508,1.159,1.482,1.482,0,0,1-.508,1.159,1.909,1.909,0,0,1-1.318.452,1.909,1.909,0,0,1-1.318-.452A1.482,1.482,0,0,1-38.887-13.3ZM-28.9-2.344a1.464,1.464,0,0,0,1.074-.376,1.379,1.379,0,0,0,.371-1.05h3.086A3.653,3.653,0,0,1-25.61-.918,4.631,4.631,0,0,1-28.818.2,4.689,4.689,0,0,1-32.451-1.25a5.7,5.7,0,0,1-1.328-4v-.137a6.436,6.436,0,0,1,.591-2.827,4.3,4.3,0,0,1,1.7-1.885,5.081,5.081,0,0,1,2.637-.659,4.573,4.573,0,0,1,3.271,1.143,4.053,4.053,0,0,1,1.211,3.1h-3.086a1.807,1.807,0,0,0-.4-1.26,1.382,1.382,0,0,0-1.074-.439q-1.279,0-1.494,1.631a11.508,11.508,0,0,0-.068,1.426,4.52,4.52,0,0,0,.381,2.207A1.319,1.319,0,0,0-28.9-2.344ZM-19.5,0h-3.3V-10.566h3.3ZM-23-13.3a1.482,1.482,0,0,1,.508-1.159,1.909,1.909,0,0,1,1.318-.452,1.909,1.909,0,0,1,1.318.452,1.482,1.482,0,0,1,.508,1.159,1.482,1.482,0,0,1-.508,1.159,1.909,1.909,0,0,1-1.318.452,1.909,1.909,0,0,1-1.318-.452A1.482,1.482,0,0,1-23-13.3Zm5.107,7.92A6.236,6.236,0,0,1-17.275-8.2a4.4,4.4,0,0,1,1.768-1.9,5.323,5.323,0,0,1,2.705-.664,4.858,4.858,0,0,1,3.74,1.47,5.64,5.64,0,0,1,1.367,4v.117A5.472,5.472,0,0,1-9.067-1.255,4.871,4.871,0,0,1-12.783.2a4.927,4.927,0,0,1-3.623-1.353,5.29,5.29,0,0,1-1.475-3.667Zm3.291.205a3.932,3.932,0,0,0,.459,2.148,1.529,1.529,0,0,0,1.357.684q1.758,0,1.8-2.705v-.332q0-2.842-1.816-2.842-1.65,0-1.787,2.451Zm11.377-5.391.107,1.24A3.583,3.583,0,0,1-.1-10.762a3.015,3.015,0,0,1,2.466.986,4.7,4.7,0,0,1,.845,2.969V0h-3.3V-6.67A1.783,1.783,0,0,0-.41-7.847a1.491,1.491,0,0,0-1.172-.376,1.569,1.569,0,0,0-1.436.762V0H-6.309V-10.566ZM10.146.2a5.432,5.432,0,0,1-3.936-1.45,5.008,5.008,0,0,1-1.5-3.774V-5.3a6.489,6.489,0,0,1,.6-2.861,4.395,4.395,0,0,1,1.753-1.919,5.292,5.292,0,0,1,2.734-.679A4.574,4.574,0,0,1,13.311-9.38,5.43,5.43,0,0,1,14.6-5.527v1.279H8.057a2.372,2.372,0,0,0,.771,1.4,2.3,2.3,0,0,0,1.543.508,2.958,2.958,0,0,0,2.441-1.094l1.5,1.777A4.2,4.2,0,0,1,12.573-.308,5.891,5.891,0,0,1,10.146.2ZM9.775-8.223q-1.445,0-1.719,1.914h3.32v-.254a1.63,1.63,0,0,0-.4-1.226A1.593,1.593,0,0,0,9.775-8.223Zm11.68,5.254a.76.76,0,0,0-.439-.674,6.685,6.685,0,0,0-1.67-.527,7.615,7.615,0,0,1-2.031-.718,3.4,3.4,0,0,1-1.221-1.079,2.577,2.577,0,0,1-.42-1.455,2.92,2.92,0,0,1,1.2-2.4,4.948,4.948,0,0,1,3.145-.942,5.482,5.482,0,0,1,3.359.947,2.962,2.962,0,0,1,1.27,2.49h-3.3q0-1.27-1.338-1.27a1.326,1.326,0,0,0-.869.288.892.892,0,0,0-.352.718.819.819,0,0,0,.43.713,4.06,4.06,0,0,0,1.372.449,11.857,11.857,0,0,1,1.655.42,3.007,3.007,0,0,1,2.383,2.939A2.767,2.767,0,0,1,23.345-.713,5.631,5.631,0,0,1,20.02.2,5.747,5.747,0,0,1,17.6-.293a4.05,4.05,0,0,1-1.66-1.328,3.007,3.007,0,0,1-.6-1.768h3.076a1.272,1.272,0,0,0,.488,1.069,2.009,2.009,0,0,0,1.2.337,1.58,1.58,0,0,0,1.011-.273A.875.875,0,0,0,21.455-2.969Zm9.277-2.393a6.455,6.455,0,0,1,1.084-3.955,3.568,3.568,0,0,1,3.027-1.445,3.035,3.035,0,0,1,2.383,1.113V-15h3.3V0H37.568L37.4-1.133A3.116,3.116,0,0,1,34.824.2,3.562,3.562,0,0,1,31.836-1.25,6.659,6.659,0,0,1,30.732-5.361Zm3.291.205q0,2.813,1.641,2.813a1.62,1.62,0,0,0,1.563-.918V-7.285a1.576,1.576,0,0,0-1.543-.937q-1.523,0-1.65,2.461ZM47.51.2a5.432,5.432,0,0,1-3.936-1.45,5.008,5.008,0,0,1-1.5-3.774V-5.3a6.489,6.489,0,0,1,.6-2.861,4.395,4.395,0,0,1,1.753-1.919,5.292,5.292,0,0,1,2.734-.679A4.574,4.574,0,0,1,50.674-9.38a5.43,5.43,0,0,1,1.289,3.853v1.279H45.42a2.372,2.372,0,0,0,.771,1.4,2.3,2.3,0,0,0,1.543.508,2.958,2.958,0,0,0,2.441-1.094l1.5,1.777A4.2,4.2,0,0,1,49.937-.308,5.891,5.891,0,0,1,47.51.2Zm-.371-8.418q-1.445,0-1.719,1.914h3.32v-.254a1.63,1.63,0,0,0-.4-1.226A1.593,1.593,0,0,0,47.139-8.223ZM61.738,0h-3.3V-15h3.3Zm8.32-1.143A3.393,3.393,0,0,1,67.236.2,3.328,3.328,0,0,1,64.6-.815a4.251,4.251,0,0,1-.894-2.905v-6.846H67V-3.7A1.183,1.183,0,0,0,68.32-2.344a1.72,1.72,0,0,0,1.611-.811v-7.412h3.311V0H70.156Zm4.6-4.219a7.134,7.134,0,0,1,.527-2.832,4.245,4.245,0,0,1,1.514-1.9,3.99,3.99,0,0,1,2.295-.669,3.173,3.173,0,0,1,2.578,1.113l.117-.918h2.988V-.4a4.455,4.455,0,0,1-.649,2.427,4.167,4.167,0,0,1-1.88,1.582A6.91,6.91,0,0,1,79.3,4.16a5.961,5.961,0,0,1-2.251-.439,4.063,4.063,0,0,1-1.665-1.143L76.758.645A3.018,3.018,0,0,0,79.18,1.729,1.96,1.96,0,0,0,81.367-.518V-.85A3.09,3.09,0,0,1,78.975.2,3.819,3.819,0,0,1,75.85-1.284a6.13,6.13,0,0,1-1.191-3.96Zm3.3.205A3.759,3.759,0,0,0,78.447-3.1a1.541,1.541,0,0,0,1.367.757,1.748,1.748,0,0,0,1.553-.713V-7.5a1.7,1.7,0,0,0-1.533-.723,1.551,1.551,0,0,0-1.377.786A4.287,4.287,0,0,0,77.959-5.156ZM92.5,0a3.716,3.716,0,0,1-.312-.947A3.06,3.06,0,0,1,89.648.2a3.749,3.749,0,0,1-2.539-.9,2.875,2.875,0,0,1-1.045-2.271,2.955,2.955,0,0,1,1.27-2.6,6.468,6.468,0,0,1,3.691-.879h1.016v-.559q0-1.462-1.26-1.462a1.03,1.03,0,0,0-1.172,1.158H86.318a2.95,2.95,0,0,1,1.3-2.487,5.479,5.479,0,0,1,3.325-.956,4.8,4.8,0,0,1,3.193.986,3.429,3.429,0,0,1,1.2,2.705v4.678a4.79,4.79,0,0,0,.449,2.227V0ZM90.439-2.148a1.836,1.836,0,0,0,1.021-.264,1.653,1.653,0,0,0,.581-.6V-4.7h-.957q-1.719,0-1.719,1.543a.942.942,0,0,0,.3.728A1.1,1.1,0,0,0,90.439-2.148Zm13.115-5.439-1.084-.078a1.947,1.947,0,0,0-1.992.977V0H97.188V-10.566h3.086l.107,1.357a2.548,2.548,0,0,1,2.314-1.553,3.209,3.209,0,0,1,.918.117Z" transform="translate(572.333 451)" fill="#fff"/>
  </g>
</svg>
