<svg id="Grupo_158807" data-name="Grupo 158807" xmlns="http://www.w3.org/2000/svg" xmlns:xlink="http://www.w3.org/1999/xlink" width="149.681" height="153.898" viewBox="0 0 149.681 153.898">
  <defs>
    <clipPath id="clip-path">
      <rect id="Rectángulo_38035" data-name="Rectángulo 38035" width="149.681" height="153.898" fill="none"/>
    </clipPath>
  </defs>
  <g id="Grupo_158807-2" data-name="Grupo 158807" clip-path="url(#clip-path)">
    <path id="Trazado_134891" data-name="Trazado 134891" d="M35.511,53.952c-1.338-.927-1.5-2.058-.814-3.518A44.436,44.436,0,0,1,118.742,62.36c2.463,15.154-1.6,28.394-12.054,39.653a47.529,47.529,0,0,0-4.811,5.749,14.847,14.847,0,0,0-2.7,8.726c.077,4.355.012,8.712.049,13.068a11.568,11.568,0,0,1-5,10.038c-.99.71-.714,1.557-.708,2.387a11.226,11.226,0,0,1-6.6,10.87,22.831,22.831,0,0,1-3.06,1.047H66.124c-.181-.483-.674-.371-1.018-.485a11.111,11.111,0,0,1-7.982-10.928,4.012,4.012,0,0,0-1.639-3.625,10.929,10.929,0,0,1-4.119-8.793c-.054-4.255-.193-8.51-.143-12.763a15.769,15.769,0,0,0-3.577-10.1c-2.057-2.661-4.572-4.906-6.7-7.494C31.8,88.622,28.663,75.946,30.975,61.84a2.359,2.359,0,0,1,2.141-2.164c2.046-.155,3.061.92,2.686,3.191a48.086,48.086,0,0,0-.5,8.973,39.186,39.186,0,0,0,9.961,25.293c1.957,2.276,4.195,4.289,6.021,6.687a23.26,23.26,0,0,1,4.126,7.605,1.847,1.847,0,0,0,2.081,1.476c11.858.023,23.716,0,35.575.006a1.807,1.807,0,0,0,1.149-.236,1.723,1.723,0,0,0,.516-.9c1.206-4.775,4.054-8.536,7.382-12.012,4.553-4.755,8.351-10.024,10.286-16.392,4.415-14.53,2.123-27.864-7.713-39.578-6.885-8.2-15.834-12.617-26.515-13.7a41.061,41.061,0,0,0-13.38,1.163,39.636,39.636,0,0,0-15.175,7.876A41.629,41.629,0,0,0,39.1,52.446c-1.056,2.028-2.018,2.42-3.592,1.506"/>
    <path id="Trazado_134892" data-name="Trazado 134892" d="M75.742,0a3.728,3.728,0,0,1,1.4,3.377c-.056,4.357-.016,8.715-.026,13.072a6.977,6.977,0,0,1-.14,1.637,2.063,2.063,0,0,1-2.21,1.654,2.035,2.035,0,0,1-2.059-1.654,7.528,7.528,0,0,1-.139-1.638c-.01-4.357.03-8.715-.026-13.071A3.712,3.712,0,0,1,73.939,0Z" fill="#020201"/>
    <path id="Trazado_134893" data-name="Trazado 134893" d="M94.74,113.062c-.438.369-.961.192-1.441.192-12.113.006-24.226-.021-36.339.024-1.159,0-1.641-.3-1.922-1.435-1.035-4.161-3.542-7.477-6.45-10.481-3.916-4.047-7.537-8.278-9.934-13.446A41.334,41.334,0,0,1,35.36,63.188c.382-2.3-.147-3.168-2.249-3.511.536-.164.687-.606.84-1.077.506-1.554,1.037-3.1,1.559-4.649,1.976.364,2.449.084,3.47-1.921A40.091,40.091,0,0,1,63.757,31.141a7.331,7.331,0,0,1,.87-.16c-.11.921-.947,1.12-1.561,1.455A43.224,43.224,0,0,0,45.234,50.408a40.049,40.049,0,0,0-4.6,15.284,43.147,43.147,0,0,0,7.648,29.445c2.032,2.942,4.627,5.391,6.983,8.047a25.28,25.28,0,0,1,5.293,8.3c.406,1.154,1.235,1.124,2.157,1.124q14.8-.006,29.6.01c.818,0,1.719-.265,2.423.441" fill="#f7a32f"/>
    <path id="Trazado_134894" data-name="Trazado 134894" d="M9.99,77.131c-2.4,0-4.809.019-7.212-.006C1,77.106.01,76.275,0,74.865S.964,72.609,2.752,72.6q7.137-.025,14.272,0c1.7.007,2.773.948,2.729,2.309-.043,1.312-1.069,2.189-2.7,2.211-2.352.032-4.706.008-7.06.008" fill="#010101"/>
    <path id="Trazado_134895" data-name="Trazado 134895" d="M139.751,72.6c2.4,0,4.808-.018,7.211.006,1.768.017,2.751.874,2.718,2.3-.031,1.359-.991,2.212-2.664,2.221q-7.212.039-14.423,0c-1.618-.009-2.649-.932-2.668-2.244-.02-1.36,1.045-2.259,2.765-2.275,2.353-.021,4.707,0,7.061,0" fill="#010101"/>
    <path id="Trazado_134896" data-name="Trazado 134896" d="M36.539,34.363a2.269,2.269,0,0,1-3.962,1.414Q30.238,33.442,27.9,31.1c-1.912-1.912-3.833-3.814-5.729-5.741-1.127-1.146-1.2-2.5-.244-3.439s2.3-.863,3.444.276c3.412,3.385,6.8,6.794,10.208,10.184a2.78,2.78,0,0,1,.956,1.98"/>
    <path id="Trazado_134897" data-name="Trazado 134897" d="M115.355,36.559a2.264,2.264,0,0,1-2.008-1.358,2.139,2.139,0,0,1,.46-2.494c1.506-1.539,3.037-3.053,4.559-4.575,1.947-1.948,3.886-3.9,5.844-5.839,1.231-1.218,2.573-1.338,3.551-.358s.856,2.323-.366,3.553c-3.354,3.372-6.729,6.725-10.083,10.1a2.851,2.851,0,0,1-1.957.974"/>
    <path id="Trazado_134898" data-name="Trazado 134898" d="M36.542,115.371a2.657,2.657,0,0,1-.847,1.827c-3.475,3.463-6.93,6.946-10.416,10.4a2.262,2.262,0,1,1-3.226-3.143c3.487-3.522,7.005-7.012,10.509-10.517a2.275,2.275,0,0,1,3.98,1.436"/>
    <path id="Trazado_134899" data-name="Trazado 134899" d="M128.392,126.038a2.085,2.085,0,0,1-1.215,2.136,2.246,2.246,0,0,1-2.737-.527q-3.127-3.138-6.262-6.269c-1.38-1.381-2.776-2.746-4.14-4.143-1.139-1.168-1.2-2.478-.2-3.441a2.232,2.232,0,0,1,3.334.206c3.488,3.45,6.947,6.929,10.417,10.4a2.207,2.207,0,0,1,.8,1.64"/>
    <path id="Trazado_134900" data-name="Trazado 134900" d="M94.74,113.062c-10.708-.017-21.417-.066-32.125-.016-1.449.006-2.108-.3-2.6-1.79a20.623,20.623,0,0,0-4.809-7.508c-4.193-4.488-8.383-8.973-10.982-14.663a46.877,46.877,0,0,1-4-14.619,41.183,41.183,0,0,1,4.153-23.357A42.994,42.994,0,0,1,62.211,32.456c.824-.458,1.611-.981,2.416-1.475A35.88,35.88,0,0,1,83.6,30.534a40.189,40.189,0,0,1,30.958,34.431,40.171,40.171,0,0,1-10.183,32.882c-.4.45-.8.9-1.215,1.331-3.892,3.97-7.182,8.3-8.416,13.884" fill="#f8d031"/>
    <path id="Trazado_134901" data-name="Trazado 134901" d="M61.017,117.839q16.281-.027,32.562-.069c.855,0,1.129.275,1.109,1.118-.044,1.8-.03,3.6.021,5.4.022.791-.265,1.054-1.042,1.028-1.4-.045-2.8-.036-4.2,0-1.51.037-2.322.8-2.366,2.138a2.215,2.215,0,0,0,2.346,2.359,30.188,30.188,0,0,0,3.9-.011c1.383-.122,1.481.528,1.252,1.6a7.363,7.363,0,0,1-7.026,5.916c-7.653.056-15.306-.005-22.959-.018-2.33-.836-2.922-2.957-3.548-4.978a2.636,2.636,0,0,1-.036-2.434c5.684-.021,11.367-.052,17.05-.05a2.74,2.74,0,0,0,2.594-1.152c.851-1.348.176-2.727-1.637-3.4-4.392-.225-8.787-.039-13.181-.1-1.349-.017-2.7-.014-4.047,0-.561.007-1.083-.13-1.116-.731-.121-2.215-.6-4.457.326-6.622" fill="#51758b"/>
    <path id="Trazado_134902" data-name="Trazado 134902" d="M88.668,144.281a6.48,6.48,0,0,1-6.214,5.079c-4.792.058-9.586.027-14.379.006a5.28,5.28,0,0,1-3.2-1.086,10.746,10.746,0,0,1-1.2-1.713c-.573-1.465-.007-2.478,1.541-2.706a8.289,8.289,0,0,1,1.2-.055q10.059-.006,20.119.006a2.762,2.762,0,0,1,2.135.469" fill="#51748b"/>
    <path id="Trazado_134903" data-name="Trazado 134903" d="M88.668,144.281c-7.5,0-15.006.055-22.508-.026-2.384-.025-2.985.633-1.7,2.947.192.345.512.626.414,1.078a6.239,6.239,0,0,1-3.267-5.217c-.079-.857.127-1.235,1.122-1.23,8.357.04,16.714.021,25.071.026,1.339,0,1.512.5.868,2.422" fill="#2d5a7d"/>
    <path id="Trazado_134904" data-name="Trazado 134904" d="M61.017,117.839c0,1.846.076,3.7-.027,5.537-.073,1.289.279,1.724,1.644,1.7,4.938-.085,9.879-.039,14.819-.025.531,0,1.1-.177,1.582.233q-11.037.016-22.073.042c-.729,0-1.109-.161-1.088-1q.067-2.776,0-5.556c-.019-.833.365-1.015,1.091-.991,1.35.046,2.7.039,4.052.054" fill="#2d5a7d"/>
    <path id="Trazado_134905" data-name="Trazado 134905" d="M61.028,129.887c.272,2.917,1.165,5.534,3.584,7.413-4.523.238-7.664-1.883-8.6-5.783-.264-1.1-.214-1.851,1.27-1.71,1.239.117,2.494.06,3.742.08" fill="#2d597d"/>
    <path id="Trazado_134906" data-name="Trazado 134906" d="M86.261,78.455c1.145,1.589,1.155,2.221-.015,3.733-2.755,3.56-5.505,7.125-8.287,10.664-3.181,4.045-8.173,4.229-11.641.419-4.648-5.108-9.324-10.192-13.876-15.384a7.155,7.155,0,0,1,4.22-11.9,7.025,7.025,0,0,1,6.72,2.483c2.455,2.7,4.93,5.393,7.329,8.148.714.82,1.051.684,1.648-.092q6.816-8.862,13.7-17.669a6.963,6.963,0,0,1,7.728-2.646,7.1,7.1,0,0,1,5.259,6.257,6.989,6.989,0,0,1-1.53,5.188C96.181,69.4,94.8,71.117,93.485,72.88a2.554,2.554,0,0,1-3.508.993,2.218,2.218,0,0,1-.686-3.524c1.039-1.532,2.24-2.949,3.385-4.4a7.278,7.278,0,0,0,1.269-2.027,2.081,2.081,0,0,0-.722-2.546,2.022,2.022,0,0,0-2.748.06,24.385,24.385,0,0,0-3.366,4.024q-6.218,8.005-12.424,16.02a9.619,9.619,0,0,1-.965,1.147,2.6,2.6,0,0,1-3.989.065c-1.737-1.59-3.171-3.469-4.776-5.185-1.777-1.9-3.4-3.941-5.292-5.733-1.27-1.2-2.4-1.3-3.422-.313-.975.945-.928,2.259.13,3.477C60.568,79.767,65,84.389,69.18,89.24c.2.228.415.435.632.643,1.647,1.579,3.027,1.52,4.433-.24C77,86.2,79.669,82.7,82.365,79.217a2.994,2.994,0,0,1,2.65-1.409c.511.03,1.013.08,1.246.647"/>
    <path id="Trazado_134907" data-name="Trazado 134907" d="M86.261,78.455c-1.816-.671-2.426-.514-3.61,1-2.71,3.472-5.4,6.956-8.111,10.429-1.607,2.062-3.244,2.151-4.984.234q-6.711-7.4-13.388-14.824c-1.363-1.514-1.394-3.117-.123-4.225,1.252-1.092,2.732-.916,4.08.56,3.106,3.4,6.177,6.834,9.28,10.238,1.8,1.974,3.005,1.925,4.61-.142q7.458-9.606,14.913-19.214c.276-.356.544-.722.848-1.052A2.689,2.689,0,0,1,93.99,64.8c-1.3,1.778-2.69,3.486-4.03,5.233-1.229,1.6-1.219,2.251.017,3.836l-3.716,4.582" fill="#f7a32f"/>
  </g>
</svg>
