<svg xmlns="http://www.w3.org/2000/svg" xmlns:xlink="http://www.w3.org/1999/xlink" width="64.888" height="64.888" viewBox="0 0 64.888 64.888">
  <defs>
    <clipPath id="clip-path">
      <rect id="Rectángulo_38172" data-name="Rectángulo 38172" width="34.281" height="46.824" fill="none"/>
    </clipPath>
  </defs>
  <g id="_100" data-name="100" transform="translate(0 -0.002)">
    <circle id="Elipse_4823" data-name="Elipse 4823" cx="32.444" cy="32.444" r="32.444" transform="translate(0 0.002)" fill="#ff9fa3"/>
    <g id="Grupo_159172" data-name="Grupo 159172" transform="translate(15.303 9.034)">
      <g id="Grupo_159172-2" data-name="Grupo 159172" clip-path="url(#clip-path)">
        <path id="Trazado_137733" data-name="Trazado 137733" d="M27.468,41.049a.736.736,0,0,1-.154,1.116,15.229,15.229,0,0,1-2.174,1.787.485.485,0,0,0-.258.512c.04.467,0,.941.035,1.409a.934.934,0,0,1-.463.952H9.828a.929.929,0,0,1-.463-.957c.029-.379-.033-.767.022-1.14a.851.851,0,0,0-.438-.922A18.571,18.571,0,0,1,1.878,33.063a20.928,20.928,0,0,1-.625-3.914.8.8,0,0,0-.229-.516,3.844,3.844,0,0,1,.616-5.763,1.032,1.032,0,0,0,.386-.623,17.1,17.1,0,0,1,3.5-6.181,1.094,1.094,0,0,0,.309-.811c-.023-.761-.018-1.523,0-2.284a.45.45,0,0,0-.324-.51c-.718-.283-1.424-.6-2.155-.91a.635.635,0,0,0,.394.889A2.447,2.447,0,0,1,5.06,15.271,2.556,2.556,0,0,1,2.62,17.182,2.519,2.519,0,0,1,1.514,12.4c.166-.083.483-.056.42-.373-.085-.428.238-.918-.28-1.286A2.716,2.716,0,0,1,2.083,6.05c1.156-.534,2.338-1.013,3.51-1.516a.694.694,0,0,1,.956.246.626.626,0,0,1-.12.97,2.8,2.8,0,0,1-.609.31Q4.432,6.65,3.048,7.248a1.686,1.686,0,0,0-.79.521,1.228,1.228,0,0,0,.529,1.9c1.05.487,2.123.922,3.186,1.379q4.846,2.082,9.7,4.149a3.457,3.457,0,0,0,2.533.159c2.2-.889,4.368-1.859,6.552-2.788q3.067-1.3,6.128-2.621c.224-.1.448-.193.666-.3a1.237,1.237,0,0,0,0-2.25c-1.215-.563-2.457-1.064-3.687-1.593q-4.34-1.868-8.685-3.723a9.283,9.283,0,0,0-1.416-.509,3.092,3.092,0,0,0-1.877.189Q12.6,3.154,9.32,4.559a3.328,3.328,0,0,1-.729.255.622.622,0,0,1-.768-.506.755.755,0,0,1,.463-.925c2.361-1,4.714-2.018,7.077-3.015a4.566,4.566,0,0,1,3.681.039q6.513,2.771,13.013,5.569a2.613,2.613,0,0,1,1.707,2.568,2.62,2.62,0,0,1-1.706,2.523c-1.07.468-2.141.935-3.226,1.369a.531.531,0,0,0-.386.606c.021.761.019,1.523,0,2.284a.935.935,0,0,0,.265.69,16.428,16.428,0,0,1,3.595,6.477.562.562,0,0,0,.278.328,3.859,3.859,0,0,1,.691,5.791.935.935,0,0,0-.251.6,20.617,20.617,0,0,1-3.588,10.43c-.351.506-.517.566-1.067.4a.7.7,0,0,1-.211-1.149A18.957,18.957,0,0,0,30.4,34.567a21.864,21.864,0,0,0,1.033-4.3c.017-.118.062-.292-.088-.313a.8.8,0,0,0-.752.221,1.2,1.2,0,0,0-.17.421A14,14,0,0,1,27.1,35.943a13.4,13.4,0,0,1-4.061,2.83.212.212,0,0,0-.15.152,2.5,2.5,0,0,1,.725,1.5,7.616,7.616,0,0,0,.646,1.253c.358.846.376.85,1.084.258.373-.312.73-.644,1.1-.958a.651.651,0,0,1,1.02.072" transform="translate(0 0)"/>
        <path id="Trazado_137734" data-name="Trazado 137734" d="M21.7,18.521a3.2,3.2,0,0,1-2.526-.1Q13.433,15.966,7.7,13.5c-.488-.21-.977-.42-1.466-.628a1.373,1.373,0,0,1,0-2.569c1.1-.472,2.209-.939,3.309-1.417.545-.237.652-.491.47-1.04a4.871,4.871,0,0,0,1.276-.472c.38.473.555.522,1.136.275q3.262-1.389,6.521-2.785c.124-.052.255-.088.382-.131.111.155.019.293-.043.426a10.842,10.842,0,0,0-.348,8.013A14.7,14.7,0,0,0,21.4,17.931c.134.174.329.328.3.59" transform="translate(-3.461 -3.068)" fill="#676fb1"/>
        <path id="Trazado_137735" data-name="Trazado 137735" d="M69.128,95.764a.757.757,0,0,0-1.1.114A13.536,13.536,0,0,1,66.218,97.4a9.881,9.881,0,0,0-1.053-2.125.8.8,0,0,1-.061-.351,2.036,2.036,0,0,0-.8-1.378,14.394,14.394,0,0,0,3.169-1.9,13.623,13.623,0,0,0,4.5-6.4c.148-.444.331-.7.813-.7a2.531,2.531,0,0,0,.456-.089,8.4,8.4,0,0,1-.207,1.654A18.87,18.87,0,0,1,69.96,93.6c-.35.5-.33.727.07,1.159a5.6,5.6,0,0,0-.9,1.007" transform="translate(-41.659 -54.715)" fill="#feb29c"/>
        <path id="Trazado_137736" data-name="Trazado 137736" d="M23.264,63.259a20.305,20.305,0,0,0,3.845-1.631A16.326,16.326,0,0,0,31.877,57.5c.194-.25.286-.3.512-.017a16.438,16.438,0,0,0,10.4,6.135,9.693,9.693,0,0,0,1.5.161c.376.007.406.166.376.471a12.138,12.138,0,0,1-1.375,4.695,12.354,12.354,0,0,1-9.845,6.69,1.2,1.2,0,0,1-.181,0,4.01,4.01,0,0,1-2.347-.352,13.393,13.393,0,0,1-5.8-5.195c-.244-.4-.226-.447.161-.664a5.257,5.257,0,0,0,1.1-.417,1.706,1.706,0,0,0,.619-2.584c-.091-.136-.217-.257-.207-.442a2.918,2.918,0,0,0,.186-1.607.526.526,0,0,0-.541-.562c-.346,0-.506.238-.549.56-.03.227-.007.456-.018.684-.008.164.01.34-.143.462a18.519,18.519,0,0,0-2.209.1.266.266,0,0,1-.143-.169,7.905,7.905,0,0,1-.217-1.892.522.522,0,0,1,.115-.292" transform="translate(-14.998 -37.116)" fill="#fedcce"/>
        <path id="Trazado_137737" data-name="Trazado 137737" d="M45.354,17.988A14.942,14.942,0,0,1,42,10.667,10,10,0,0,1,42.869,4.5a2.747,2.747,0,0,0,.11-.3,3.22,3.22,0,0,1,2.776.056l7.624,3.263q2.639,1.13,5.277,2.262a1.372,1.372,0,0,1-.014,2.551l-.251.108q-4.8,2.053-9.593,4.1c-1.144.488-2.267,1.027-3.442,1.439" transform="translate(-27.116 -2.536)" fill="#8187ca"/>
        <path id="Trazado_137738" data-name="Trazado 137738" d="M64.8,53.29c-1.3.027-1.379.126-1.191,1.372a14.076,14.076,0,0,1,.12,1.5c.01.225-.027.324-.3.3a15.149,15.149,0,0,1-10.784-5.589c-.037-.045-.065-.1-.116-.173.786-.107,1.547-.195,2.3-.317A20.542,20.542,0,0,0,61.278,48.2c.279-.15.442-.161.668.111A16.345,16.345,0,0,1,64.8,53.29" transform="translate(-34.037 -31.157)" fill="#feb29c"/>
        <path id="Trazado_137739" data-name="Trazado 137739" d="M20.282,38.852a7.6,7.6,0,0,0,0-.776c-.043-.418.125-.411.438-.276,1.8.78,3.6,1.55,5.4,2.323.656.282,1.317.555,1.968.848a5.056,5.056,0,0,0,4.282,0c2.438-1.061,4.888-2.1,7.333-3.143.468-.2.47-.2.471.289s-.022.976.008,1.461a.593.593,0,0,1-.383.634,20.448,20.448,0,0,1-18.451.359c-.772-.363-1.373-.735-1.064-1.721" transform="translate(-13.086 -24.428)" fill="#676fb1"/>
        <path id="Trazado_137740" data-name="Trazado 137740" d="M18.762,80.485c-.2.092-.3.185-.15.431a13.466,13.466,0,0,0,6.131,5.369,5.032,5.032,0,0,0,1.994.328,10.346,10.346,0,0,1-3.888-.23,12.517,12.517,0,0,1-9.643-10.244c-.061-.359-.074-.725-.121-1.087-.026-.2.046-.267.242-.276a21.076,21.076,0,0,0,3.414-.534,8.71,8.71,0,0,0,.284,2.306c0,.235-.212.275-.351.371a1.707,1.707,0,0,0,.1,3.064,2.567,2.567,0,0,0,1.338.38c.219,0,.46-.066.646.123" transform="translate(-8.475 -48.099)" fill="#fecabd"/>
        <path id="Trazado_137741" data-name="Trazado 137741" d="M14.615,97.456c-4.3-3.292-6.391-7.707-7.059-12.966.345.056.633.122.924.144.249.019.232.22.276.359a13.887,13.887,0,0,0,4.956,6.945,14.283,14.283,0,0,0,2.821,1.632,2.011,2.011,0,0,0-.811,1.592.488.488,0,0,1-.109.245,8.59,8.59,0,0,0-1,2.049" transform="translate(-4.895 -54.738)" fill="#fe8e71"/>
        <path id="Trazado_137742" data-name="Trazado 137742" d="M14.87,55.7a13.606,13.606,0,0,1-3.52.687c-.234.023-.248-.089-.236-.264a12.471,12.471,0,0,1,.27-1.8c.175-.808-.069-1.1-.895-1.1h-.457a13.4,13.4,0,0,1,1.225-2.687,15.338,15.338,0,0,1,1.692-2.377c.112-.13.2-.251.407-.13a25.2,25.2,0,0,0,3.708,1.617c.074.167-.028.293-.106.42a13.377,13.377,0,0,0-1.917,5.13.961.961,0,0,1-.171.512" transform="translate(-6.5 -31.081)" fill="#fe8e71"/>
        <path id="Trazado_137743" data-name="Trazado 137743" d="M23.77,58.77a11.965,11.965,0,0,1,1.066-3.978,16.671,16.671,0,0,1,1.129-2.084,28.479,28.479,0,0,0,3.643.787c.509.059,1.019.115,1.56.175a1.356,1.356,0,0,1-.339.477,15.164,15.164,0,0,1-6.835,4.585,1.325,1.325,0,0,1-.223.037" transform="translate(-15.4 -34.148)" fill="#feb29c"/>
        <path id="Trazado_137744" data-name="Trazado 137744" d="M35.5,112.883c.264-.035.239.177.292.3a6.129,6.129,0,0,0,3.287,3.263,1.188,1.188,0,0,0,1.008,0,6.136,6.136,0,0,0,3.275-3.216c.058-.128.03-.4.273-.338.311.085.687.1.851.455a.463.463,0,0,1-.17.568c-.752.667-1.5,1.338-2.26,2-.375.324-.747.629-.668,1.208a.426.426,0,0,1-.179.4c-.5.311-1.019.606-1.533.9a.2.2,0,0,1-.168,0c-.515-.294-1.034-.582-1.534-.9a.553.553,0,0,1-.2-.537.967.967,0,0,0-.412-.862c-.772-.667-1.535-1.344-2.3-2.023-.221-.2-.528-.377-.384-.749s.553-.327.814-.473" transform="translate(-22.45 -73.131)" fill="#676eb1"/>
        <path id="Trazado_137745" data-name="Trazado 137745" d="M55.862,122.524a2.213,2.213,0,0,0,.632-1.252.52.52,0,0,1,.171-.355c.733-.638,1.462-1.283,2.223-1.954a6.446,6.446,0,0,1,.843,3.37c0,.173-.094.193-.232.193-1.181,0-2.362,0-3.639,0" transform="translate(-36.191 -77.072)" fill="#8187ca"/>
        <path id="Trazado_137746" data-name="Trazado 137746" d="M3.912,69.457a2.522,2.522,0,0,1,1.7-2.4c.256-.08.343-.073.292.251a13.768,13.768,0,0,0,0,4.271c.052.334-.047.323-.3.242a2.524,2.524,0,0,1-1.7-2.361" transform="translate(-2.534 -43.414)" fill="#fecabd"/>
        <path id="Trazado_137747" data-name="Trazado 137747" d="M87.828,67.159a2.351,2.351,0,0,1,1.9,2.31,2.516,2.516,0,0,1-1.746,2.458c-.1.027-.307.143-.262-.129a21.053,21.053,0,0,0,.1-4.64" transform="translate(-56.83 -43.51)" fill="#fecabd"/>
        <path id="Trazado_137748" data-name="Trazado 137748" d="M32.6,122.632c-.608.005-1.217,0-1.825.02-.22.006-.285-.072-.285-.288a6.693,6.693,0,0,1,.7-3.035c.1-.208.178-.232.353-.067.464.436.945.856,1.419,1.282a12.369,12.369,0,0,0-.242,1.709.546.546,0,0,1-.124.379" transform="translate(-19.757 -77.196)" fill="#676eb1"/>
        <path id="Trazado_137749" data-name="Trazado 137749" d="M41.82,112.888a14.037,14.037,0,0,0,4.831-.011,4.683,4.683,0,0,1-2.312,2.234.306.306,0,0,1-.265-.02,4.747,4.747,0,0,1-2.255-2.2" transform="translate(-27.094 -73.13)" fill="#fecabd"/>
        <path id="Trazado_137750" data-name="Trazado 137750" d="M4.227,39.569a1.111,1.111,0,0,1,1.108-1.142A1.134,1.134,0,0,1,6.5,39.57,1.169,1.169,0,0,1,5.357,40.7a1.142,1.142,0,0,1-1.13-1.134" transform="translate(-2.738 -24.896)" fill="#fecd70"/>
        <path id="Trazado_137751" data-name="Trazado 137751" d="M36.478,125.189a8.707,8.707,0,0,1,.174-1.833c.022-.128.032-.241.191-.255a1.654,1.654,0,0,1,.852,1.207,1.641,1.641,0,0,0,.525.881Z" transform="translate(-23.63 -79.753)" fill="#8187ca"/>
        <path id="Trazado_137752" data-name="Trazado 137752" d="M63.663,80.3a3.033,3.033,0,0,1,3.182.907,1.808,1.808,0,0,1-.493,2.63,3.272,3.272,0,0,1-3.488.03,1.79,1.79,0,0,1-.4-2.875c.039-.046.07-.1.105-.148a1.165,1.165,0,0,0,1.1-.545" transform="translate(-40.11 -51.951)" fill="#fe8d9d"/>
        <path id="Trazado_137753" data-name="Trazado 137753" d="M23.482,84.351a3.485,3.485,0,0,1-2.143-.45,1.82,1.82,0,0,1-.01-3.216c.138-.091.278-.181.417-.271a4.023,4.023,0,0,1,2.178-.1,1.165,1.165,0,0,0,1.1.545c.758.964.849,1.611.352,2.381a2.611,2.611,0,0,1-1.891,1.11" transform="translate(-13.195 -51.965)" fill="#fe8d9d"/>
        <path id="Trazado_137754" data-name="Trazado 137754" d="M44.631,80.284a2.7,2.7,0,0,1-1.91-.831.684.684,0,0,1-.077-1.01.676.676,0,0,1,1.011.012,1.305,1.305,0,0,0,1.973.011.686.686,0,1,1,.955.977,2.676,2.676,0,0,1-1.952.84" transform="translate(-27.506 -50.678)"/>
        <path id="Trazado_137755" data-name="Trazado 137755" d="M31.568,77.7c-.623.2-.87.078-1.1-.545,0-.364,0-.729.017-1.092a.69.69,0,0,1,.7-.728.659.659,0,0,1,.654.722c-.032.554.213,1.165-.279,1.643" transform="translate(-19.741 -48.809)" fill="#010000"/>
        <path id="Trazado_137756" data-name="Trazado 137756" d="M64.291,77.158c-.231.625-.475.746-1.1.545a2.763,2.763,0,0,1-.208-1.992.678.678,0,0,1,1.282.263c.027.393.018.789.024,1.183" transform="translate(-40.739 -48.808)" fill="#010000"/>
      </g>
    </g>
  </g>
</svg>
