<svg xmlns="http://www.w3.org/2000/svg" xmlns:xlink="http://www.w3.org/1999/xlink" width="64.888" height="64.888" viewBox="0 0 64.888 64.888">
  <defs>
    <clipPath id="clip-path">
      <rect id="Rectángulo_38171" data-name="Rectángulo 38171" width="43.444" height="47.132" fill="none"/>
    </clipPath>
  </defs>
  <g id="_101" data-name="101" transform="translate(0 -0.002)">
    <circle id="Elipse_4823" data-name="Elipse 4823" cx="32.444" cy="32.444" r="32.444" transform="translate(0 0.002)" fill="#ff9fa3"/>
    <g id="Grupo_159171" data-name="Grupo 159171" transform="translate(10.722 5.428)">
      <g id="Grupo_159171-2" data-name="Grupo 159171" clip-path="url(#clip-path)">
        <path id="Trazado_137701" data-name="Trazado 137701" d="M72.661,0H72.2a.051.051,0,0,0-.028.071l.5.016L72.661,0" transform="translate(-48.721)" fill="#3b3b3b"/>
        <path id="Trazado_137702" data-name="Trazado 137702" d="M42.186,77.375c-2.132-.008-4.264,0-6.4,0a.732.732,0,0,0-.825.679c.144.561.321.7.95.7,1.763,0,3.527,0,5.291.008.146,0,.394-.139.421.182s-.241.239-.385.266q-4.69.9-9.384,1.784a3.72,3.72,0,0,1-.686.055q-9.662,0-19.324,0a18.775,18.775,0,0,1-3.258-.537c-2.245-.4-4.483-.844-6.723-1.271-.121-.023-.239-.057-.36-.076-.162-.025-.121-.148-.127-.248-.007-.118.061-.16.171-.159s.246,0,.368,0H32.7c.768,0,.913-.094,1.1-.7-.094-.518-.427-.689-.924-.684-1.272.013-2.545.006-3.817,0-.086,0-.214.078-.279-.1a13.2,13.2,0,0,0,4.475-4.886c.112-.214.262-.152.423-.09a6.464,6.464,0,0,0,1.831.405,7.326,7.326,0,1,0-.339-14.564c-.249.036-.342.018-.355-.274a1.594,1.594,0,0,0-1.751-1.69c-.966-.011-1.932-.008-2.9,0-.576,0-.749.15-.9.708a.763.763,0,0,0,.881.675c.92-.013,1.841.014,2.76-.012.429-.012.557.142.545.56-.023.851,0,.851-.832.851q-11.248,0-22.5.009c-.419,0-.59-.06-.562-.533.053-.9-.142-.882.911-.881q8.3,0,16.609,0c.709,0,.839-.088,1.019-.671-.16-.584-.328-.709-.994-.709q-8.537,0-17.074,0c-.077,0-.154,0-.23,0a1.6,1.6,0,0,0-1.607,1.7c-.008.782-.021,1.565,0,2.347.084,2.892-.246,5.8.3,8.675.054.284-.072.261-.265.225a4.321,4.321,0,0,0-3.148.7c-.538.333-.609.558-.376,1.143a.8.8,0,0,0,1.087.045,3.554,3.554,0,0,1,1.538-.564.815.815,0,0,1,.6.1L5.675,73.912c-.419.628-.421,1.006-.007,1.277.381.25.755.087,1.149-.5q1.064-1.583,2.13-3.165c.138-.323.241-.177.34.025A2.973,2.973,0,0,1,9.467,73.4,5.422,5.422,0,0,1,7,77.1c-.7.468-1.488.207-2.234.288a.979.979,0,0,1-.936-.459.932.932,0,0,1-.24-.436A3.741,3.741,0,0,1,3.8,73.316c.071-.169.164-.328.249-.49a.752.752,0,0,0-.174-.955.71.71,0,0,0-1,.249,6.491,6.491,0,0,0-.917,2.9,4.78,4.78,0,0,0,.473,2.348H1.55C0,77.371,0,77.371,0,78.93c0,1.371,0,1.358,1.351,1.609,2.98.555,5.955,1.133,8.936,1.683.342.063.446.191.425.529-.03.474-.015.951-.006,1.426.013.618.262.869.871.87q9.939,0,19.879,0c.586,0,.839-.256.85-.843.01-.506.016-1.013,0-1.518-.01-.27.047-.39.35-.443,1.387-.242,2.768-.521,4.151-.783,1.82-.345,3.641-.685,5.46-1.032.574-.109.74-.318.746-.911,0-.429.005-.859,0-1.288-.008-.6-.232-.85-.823-.852M34.73,67.6a16.09,16.09,0,0,0,.092-2.321c0-.811.007-1.469,0-2.127a.359.359,0,0,1,.271-.4,2.838,2.838,0,0,1,3.252,4.424A2.871,2.871,0,0,1,34.985,68c-.184-.084-.295-.173-.255-.408m-.561,2.659c.015-.043.037-.084.051-.127.275-.865.275-.865,1.134-.55a4.6,4.6,0,0,0,2.92-.557,4.226,4.226,0,0,0-.708-7.6,3.123,3.123,0,0,0-1.024-.235,4.524,4.524,0,0,0-1.4.1c-.224.069-.345.017-.323-.251.018-.212,0-.426,0-.638,0-.948,0-.948,1-.926a5.937,5.937,0,1,1-.082,11.852,2.411,2.411,0,0,1-.938-.171.2.2,0,0,1-.046,0c-.837-.13-.843-.138-.584-.9m-24.2-9.932q11.543.014,23.086,0c.277,0,.4.039.4.369-.025,2.054-.019,4.108-.037,6.162a6.387,6.387,0,0,1-.255,1.715h0a10.487,10.487,0,0,1-1.8,4.275,11.868,11.868,0,0,1-5.525,4.389,1.881,1.881,0,0,1-.712.138q-3.632-.005-7.264,0a1.932,1.932,0,0,1-.366-.019c-.613-.12-.654-.2-.394-.758a3.405,3.405,0,0,0-2.057-4.619,6.449,6.449,0,0,0-3.7-.305.409.409,0,0,1-.551-.288,10.116,10.116,0,0,1-.945-2.9,8.417,8.417,0,0,1-.277-2.455c-.015-1.763,0-3.526-.012-5.288,0-.316.074-.411.4-.41m-.3,16.163a7.377,7.377,0,0,0,1.2-3.088.235.235,0,0,1,.175-.233,4.691,4.691,0,0,1,4.35.641.383.383,0,0,1,.067.063c.066.1.219.165.17.3-.038.1-.182.09-.286.11q-1.888.372-3.776.747a1.042,1.042,0,0,0-.654.3c-.293.351-.163.8.313,1.09h.481l3.947-.767c.2-.1.382-.159.272.179a3.07,3.07,0,0,1-1.184,1.483.54.54,0,0,1-.305.075c-1.807,0-3.615,0-5.542,0l.769-.9M30.927,82.96a.482.482,0,0,0,0,.092c0,.615,0,.615-.593.615H21.453c-2.976,0-5.952-.007-8.928.009-.372,0-.459-.105-.448-.459.024-.786.005-.787.813-.787q8.744,0,17.488-.01c.426,0,.642.076.55.539" transform="translate(0 -37.916)"/>
        <path id="Trazado_137703" data-name="Trazado 137703" d="M36.96,124.3a2.52,2.52,0,0,1-1.044.115q-14.929,0-29.857,0a1.91,1.91,0,0,0-.673.049.69.69,0,0,0,.418.153q4.609.881,9.219,1.752a4.437,4.437,0,0,0,.825.058q9.293,0,18.586,0a17.292,17.292,0,0,0,3.13-.492q3.438-.637,6.869-1.31a1.253,1.253,0,0,0,.475-.149,1.166,1.166,0,0,0-.525-.06c-1.5,0-3.006,0-4.508,0a1.83,1.83,0,0,1-.938-.18c-.265-.152-.481-.345-.333-.7H37.435c.116.425-.149.622-.475.766" transform="translate(-3.636 -83.401)" fill="#fde5cb"/>
        <path id="Trazado_137704" data-name="Trazado 137704" d="M35.575,124.237H4.8c-.122,0-.245,0-.368,0s-.178.04-.171.159c.006.1-.036.223.127.248.121.019.239.053.36.076,2.24.426,4.478.868,6.723,1.27a18.8,18.8,0,0,0,3.257.537q9.662.019,19.324,0a3.72,3.72,0,0,0,.686-.055q4.693-.883,9.384-1.784c.144-.028.41.043.384-.267s-.276-.181-.421-.182c-1.764-.01-3.528,0-5.291-.008-.629,0-.807-.14-.95-.7-.148.356.068.549.333.7a1.832,1.832,0,0,0,.938.18c1.5,0,3.006,0,4.509,0a1.158,1.158,0,0,1,.525.06,1.253,1.253,0,0,1-.475.149q-3.431.672-6.869,1.31a17.321,17.321,0,0,1-3.13.492q-9.293.005-18.586,0a4.434,4.434,0,0,1-.824-.058q-4.612-.866-9.219-1.752a.686.686,0,0,1-.417-.153,1.908,1.908,0,0,1,.673-.049q14.929,0,29.857,0A2.521,2.521,0,0,0,36.2,124.3c.326-.143.591-.34.475-.766-.184.607-.33.7-1.1.7" transform="translate(-2.873 -83.4)" fill="#fde5cb"/>
        <path id="Trazado_137705" data-name="Trazado 137705" d="M47.706,59.114a3.044,3.044,0,0,1-.733.041H30.961c-.138,0-.276,0-.414,0-.613.011-.83.325-.659.929a.3.3,0,0,0,.294.236,4.952,4.952,0,0,0,.506.012H52.543c.092,0,.184,0,.276,0,.544-.012.6-.076.593-.62-.009-.457-.075-.539-.535-.55-.859-.021-1.718,0-2.577-.009a.961.961,0,0,1-.821-.33.373.373,0,0,1-.075-.462H48.236a.626.626,0,0,1-.531.753" transform="translate(-20.14 -39.401)" fill="#fce4ca"/>
        <path id="Trazado_137706" data-name="Trazado 137706" d="M46.933,59.032q-8.3,0-16.609,0c-1.053,0-.858-.016-.911.881-.028.472.143.534.562.533q11.249-.019,22.5-.009c.83,0,.81,0,.832-.852.011-.418-.116-.572-.545-.56-.919.026-1.84,0-2.76.011a.762.762,0,0,1-.881-.674.373.373,0,0,0,.074.462.961.961,0,0,0,.821.33c.859.007,1.718-.011,2.576.009.46.011.526.093.536.55.012.544-.049.608-.593.621-.092,0-.184,0-.276,0H30.4a5.046,5.046,0,0,1-.506-.012.3.3,0,0,1-.294-.237c-.172-.6.045-.917.658-.929.138,0,.276,0,.414,0H46.688a3.044,3.044,0,0,0,.733-.041.626.626,0,0,0,.531-.753c-.18.583-.31.67-1.019.67" transform="translate(-19.856 -39.401)" fill="#fce4ca"/>
        <path id="Trazado_137707" data-name="Trazado 137707" d="M71.147,1.471a3.371,3.371,0,0,1-.032,5.6.7.7,0,0,0,.02,1.249,4.173,4.173,0,0,1,.657.571,3.34,3.34,0,0,1-.561,4.935c-.485.364-.607.76-.344,1.118.251.341.689.336,1.17-.013a4.714,4.714,0,0,0,.965-6.713c-.415-.536-.415-.536,0-1.068A4.688,4.688,0,0,0,71.7.235a.328.328,0,0,1-.5-.016c-.595.335-.644.856-.055,1.252" transform="translate(-47.751 -0.148)"/>
        <path id="Trazado_137708" data-name="Trazado 137708" d="M72.68.235l-.5-.016a.328.328,0,0,0,.5.016" transform="translate(-48.732 -0.148)"/>
        <path id="Trazado_137709" data-name="Trazado 137709" d="M11.3,102.789a7.6,7.6,0,0,0-.6,1.628,3.132,3.132,0,0,0,.149,1.886c.01.022.021.041.031.062.756-.005,1.514-.035,2.268.006a1.563,1.563,0,0,0,1.366-.573,6.1,6.1,0,0,0,1.68-4.054.869.869,0,0,0-.008-.227c-.734,1-1.379,2.061-2.082,3.082a1.892,1.892,0,0,1-.413.489.755.755,0,0,1-.975-.011.765.765,0,0,1-.209-.954,2.97,2.97,0,0,1,.241-.391c.628-.945,1.261-1.887,1.886-2.834.08-.122.256-.252.164-.4-.11-.174-.309-.042-.467-.023a4.71,4.71,0,0,0-1.527.611c-.436.217-.649.146-.933-.247a5.476,5.476,0,0,0-.828.9c.421.27.5.533.259,1.045" transform="translate(-7.167 -67.789)" fill="#e1780e"/>
        <path id="Trazado_137710" data-name="Trazado 137710" d="M10.932,105.47c-.085.162-.178.322-.249.49a3.741,3.741,0,0,0-.212,3.177h.123c-.01-.021-.021-.04-.031-.062a3.126,3.126,0,0,1-.149-1.886,7.578,7.578,0,0,1,.6-1.628c.237-.512.163-.775-.259-1.045a.752.752,0,0,1,.174.955" transform="translate(-6.885 -70.56)" fill="#e1780e"/>
        <path id="Trazado_137711" data-name="Trazado 137711" d="M15.4,100.867a4.713,4.713,0,0,1,1.527-.611c.159-.019.357-.15.467.023.092.146-.084.276-.164.4-.625.947-1.257,1.889-1.885,2.834a2.976,2.976,0,0,0-.241.391.765.765,0,0,0,.209.954.756.756,0,0,0,.975.011,1.9,1.9,0,0,0,.413-.489c.7-1.021,1.348-2.08,2.082-3.082a.218.218,0,0,0-.068-.118q-1.065,1.582-2.13,3.164c-.394.586-.768.749-1.149.5-.413-.271-.411-.649.008-1.277L17.69,100.2a.819.819,0,0,0-.6-.1,3.563,3.563,0,0,0-1.538.564.8.8,0,0,1-1.087-.045c.284.393.5.464.933.247" transform="translate(-9.767 -67.569)" fill="#e1780e"/>
        <path id="Trazado_137712" data-name="Trazado 137712" d="M86.236,27.93c-.487.364-.609.76-.345,1.117s.682.348,1.169-.013a4.7,4.7,0,0,0-.112-7.722.731.731,0,0,0-.932-.055.7.7,0,0,0,.115,1.162,3.419,3.419,0,0,1,1.308,1.673,3.322,3.322,0,0,1-1.2,3.838" transform="translate(-57.895 -14.254)"/>
        <path id="Trazado_137713" data-name="Trazado 137713" d="M55.021,22.45a3.664,3.664,0,0,1,.93.944,3.333,3.333,0,0,1-.832,4.54c-.494.371-.62.751-.371,1.114s.694.365,1.2-.014a4.552,4.552,0,0,0,1.927-3.52,4.822,4.822,0,0,0-2.044-4.173c-.421-.287-.818-.27-1.064.046a.721.721,0,0,0,.253,1.063" transform="translate(-36.877 -14.27)"/>
        <path id="Trazado_137714" data-name="Trazado 137714" d="M29.724,77.125c.384.626,1.079,1,1.382,1.683.193.431.453.426.87.394a6.117,6.117,0,0,1,5.552,2.272,4.054,4.054,0,0,1,.754,2.5c-.01.315.083.463.41.53a12.683,12.683,0,0,0,11.926-3.737,13.054,13.054,0,0,0,1.981-2.8,2.291,2.291,0,0,1,.431-.747,6.387,6.387,0,0,0,.255-1.715c.018-2.054.012-4.108.037-6.162,0-.33-.122-.369-.4-.369q-11.543.009-23.086,0c-.327,0-.4.094-.4.41.015,1.763,0,3.526.012,5.289a8.417,8.417,0,0,0,.277,2.455" transform="translate(-19.872 -46.564)" fill="#fde5cb"/>
        <path id="Trazado_137715" data-name="Trazado 137715" d="M43.717,101.724a11.832,11.832,0,0,1-4.118-.09c-.743-.137-.8-.206-.838-.941a4.234,4.234,0,0,0-2.09-3.485,6.507,6.507,0,0,0-4.227-.922.68.68,0,0,1-.793-.385,3.381,3.381,0,0,0-.822-1.042,1.654,1.654,0,0,1-.507-.791,10.112,10.112,0,0,0,.946,2.9.409.409,0,0,0,.551.289,6.448,6.448,0,0,1,3.7.305,3.406,3.406,0,0,1,2.057,4.619c-.26.555-.219.638.394.757a1.931,1.931,0,0,0,.366.019q3.632,0,7.264,0a1.876,1.876,0,0,0,.712-.138,11.868,11.868,0,0,0,5.525-4.389,10.477,10.477,0,0,0,1.8-4.276,12.4,12.4,0,0,1-9.912,7.561" transform="translate(-20.472 -63.507)" fill="#fbcd98"/>
        <path id="Trazado_137716" data-name="Trazado 137716" d="M51.218,97.708a12.682,12.682,0,0,1-11.926,3.737c-.327-.067-.42-.215-.41-.53a4.055,4.055,0,0,0-.754-2.5,6.116,6.116,0,0,0-5.552-2.271c-.417.032-.677.037-.87-.394-.3-.679-1-1.057-1.382-1.683a1.655,1.655,0,0,0,.507.791,3.382,3.382,0,0,1,.822,1.042.68.68,0,0,0,.792.385,6.505,6.505,0,0,1,4.227.922,4.234,4.234,0,0,1,2.089,3.485c.043.735.095.8.838.941a11.824,11.824,0,0,0,4.118.09,12.4,12.4,0,0,0,9.912-7.561,2.288,2.288,0,0,0-.431.747,13.07,13.07,0,0,1-1.981,2.8" transform="translate(-20.472 -63.507)" fill="#fbcd98"/>
        <path id="Trazado_137717" data-name="Trazado 137717" d="M107.114,77.992a2.412,2.412,0,0,0,.938.171,5.937,5.937,0,1,0,.082-11.852c0,.383.023.768-.009,1.148s.093.542.479.489a.273.273,0,0,1,.254.077,3.106,3.106,0,0,1,1.024.235,4.226,4.226,0,0,1,.708,7.6,4.6,4.6,0,0,1-2.92.557A11.563,11.563,0,0,1,107.114,77.992Z" transform="translate(-72.315 -44.755)" fill="#fde5cb"/>
        <path id="Trazado_137718" data-name="Trazado 137718" d="M55.471,136.989q-8.744.021-17.487.01c-.808,0-.789,0-.813.787-.011.353.076.461.448.459,2.976-.017,5.952-.009,8.928-.009h8.882c.592,0,.592,0,.592-.615a.482.482,0,0,1,0-.092c.092-.463-.124-.54-.55-.539" transform="translate(-25.094 -92.484)" fill="#fbcd98"/>
        <path id="Trazado_137719" data-name="Trazado 137719" d="M31.3,111.213c-.475-.287-.605-.739-.313-1.09a1.042,1.042,0,0,1,.654-.3q1.887-.377,3.776-.747c.1-.02.248-.006.286-.11.049-.132-.1-.2-.17-.3a.381.381,0,0,0-.066-.063,4.691,4.691,0,0,0-4.35-.641.235.235,0,0,0-.175.233,7.381,7.381,0,0,1-1.2,3.088,6.83,6.83,0,0,0,1.562-.074" transform="translate(-20.079 -72.717)" fill="#e1770e"/>
        <path id="Trazado_137720" data-name="Trazado 137720" d="M16.95,104.173a5.484,5.484,0,0,1-.6,2.378,6.248,6.248,0,0,1-1.374,1.874,1.109,1.109,0,0,1-.729.342c-.839.019-1.679.013-2.519,0a.577.577,0,0,1-.172-.029,1.371,1.371,0,0,0,1.324.728,3.276,3.276,0,0,0,2.635-.916,5.042,5.042,0,0,0,1.65-3.385,2.869,2.869,0,0,0-.066-1.05c-.039-.113-.03-.294-.185-.321a.678.678,0,0,1,.037.375" transform="translate(-7.8 -70.076)" fill="#a75000"/>
        <path id="Trazado_137721" data-name="Trazado 137721" d="M16.562,103.171c.155.027.146.208.185.321a2.861,2.861,0,0,1,.066,1.05,5.042,5.042,0,0,1-1.65,3.385,3.277,3.277,0,0,1-2.635.916,1.372,1.372,0,0,1-1.324-.728.552.552,0,0,1-.168-.089.928.928,0,0,0,.24.436.98.98,0,0,0,.936.459c.747-.082,1.531.18,2.234-.288a5.423,5.423,0,0,0,2.471-3.7,2.973,2.973,0,0,0-.181-1.847c-.1-.2-.2-.348-.34-.025a.271.271,0,0,1,.166.112" transform="translate(-7.45 -69.449)" fill="#a75000"/>
        <path id="Trazado_137722" data-name="Trazado 137722" d="M11.632,108.762c.839.01,1.679.016,2.519,0a1.109,1.109,0,0,0,.729-.342,6.259,6.259,0,0,0,1.374-1.874,5.493,5.493,0,0,0,.6-2.378.679.679,0,0,0-.038-.375.289.289,0,0,0-.094,0l0,.006a.883.883,0,0,1,.008.227,6.1,6.1,0,0,1-1.68,4.054,1.564,1.564,0,0,1-1.366.573c-.754-.041-1.512-.011-2.268-.006.014.031.03.061.045.09a.565.565,0,0,0,.172.029" transform="translate(-7.706 -70.068)" fill="#a75000"/>
        <path id="Trazado_137723" data-name="Trazado 137723" d="M11.158,118.738h-.123a.55.55,0,0,0,.169.089c-.016-.029-.031-.059-.045-.09" transform="translate(-7.45 -80.162)" fill="#a75000"/>
        <path id="Trazado_137724" data-name="Trazado 137724" d="M27.609,103.564a.281.281,0,0,1,.094,0,.273.273,0,0,0-.166-.113.22.22,0,0,1,.068.118l0-.006" transform="translate(-18.591 -69.842)" fill="#a75000"/>
        <path id="Trazado_137725" data-name="Trazado 137725" d="M32.916,117.7a.543.543,0,0,0,.305-.075,3.07,3.07,0,0,0,1.184-1.483c.11-.338-.072-.283-.272-.179a1.492,1.492,0,0,1-1.55.856c-.649-.061-1.308-.01-1.962-.015-.147,0-.307.051-.435-.073H29.7a.131.131,0,0,1-.092.142,2.176,2.176,0,0,1-1.47-.068l-.769.9c1.927,0,3.735,0,5.542,0" transform="translate(-18.481 -78.235)" fill="#a64f00"/>
        <path id="Trazado_137726" data-name="Trazado 137726" d="M31.211,118.633a.131.131,0,0,0,.092-.142,6.811,6.811,0,0,1-1.562.074,2.176,2.176,0,0,0,1.47.068" transform="translate(-20.079 -79.995)" fill="#a64f00"/>
        <path id="Trazado_137727" data-name="Trazado 137727" d="M108.022,67.032c0-.238-.044-.491.145-.692-1-.021-1-.021-1,.926,0,.213.014.427,0,.639-.022.267.1.32.323.251a4.536,4.536,0,0,1,1.4-.1h0c-.877-.088-.879-.088-.868-1.023" transform="translate(-72.348 -44.784)" fill="#f8cb97"/>
        <path id="Trazado_137728" data-name="Trazado 137728" d="M110.414,67.988c-.386.053-.511-.109-.479-.489s.008-.765.009-1.148c-.189.2-.142.454-.145.692-.011.935-.008.935.868,1.023h0a.273.273,0,0,0-.254-.077" transform="translate(-74.126 -44.795)" fill="#f8cb97"/>
        <path id="Trazado_137729" data-name="Trazado 137729" d="M105.447,98.636a.2.2,0,0,0,.046,0,3.118,3.118,0,0,1,.555-1.575c-.859-.315-.859-.315-1.135.55-.014.044-.036.084-.05.127-.259.762-.253.771.584.9" transform="translate(-70.694 -65.395)" fill="#facc98"/>
        <path id="Trazado_137730" data-name="Trazado 137730" d="M107.669,97.456a3.122,3.122,0,0,0-.555,1.576,11.563,11.563,0,0,0,.555-1.576" transform="translate(-72.315 -65.794)" fill="#facc98"/>
        <path id="Trazado_137731" data-name="Trazado 137731" d="M39.487,116.528a2.879,2.879,0,0,1,.491-.4l-3.947.767h0c.952-.078,1.907-.043,2.861-.066a.847.847,0,0,0,.6-.3" transform="translate(-24.325 -78.399)" fill="#df760e"/>
        <path id="Trazado_137732" data-name="Trazado 137732" d="M36.466,116.968c.654.005,1.313-.046,1.962.015a1.492,1.492,0,0,0,1.55-.856,2.867,2.867,0,0,0-.491.4.847.847,0,0,1-.6.3c-.953.022-1.908-.013-2.86.065.128.124.288.072.435.073" transform="translate(-24.325 -78.4)" fill="#df760e"/>
      </g>
    </g>
  </g>
</svg>
