<svg xmlns="http://www.w3.org/2000/svg" xmlns:xlink="http://www.w3.org/1999/xlink" width="64.888" height="64.888" viewBox="0 0 64.888 64.888">
  <defs>
    <clipPath id="clip-path">
      <rect id="Rectángulo_38173" data-name="Rectángulo 38173" width="42.807" height="42.81" fill="none"/>
    </clipPath>
  </defs>
  <g id="_102" data-name="102" transform="translate(0 -0.002)">
    <circle id="Elipse_4823" data-name="Elipse 4823" cx="32.444" cy="32.444" r="32.444" transform="translate(0 0.002)" fill="#ff9fa3"/>
    <g id="Grupo_159173" data-name="Grupo 159173" transform="translate(11 11.002)">
      <g id="Grupo_159173-2" data-name="Grupo 159173" clip-path="url(#clip-path)">
        <path id="Trazado_137757" data-name="Trazado 137757" d="M32.186,41.308a.883.883,0,0,1,.429,1.172,14.883,14.883,0,0,1-.832,2.786,8.305,8.305,0,0,1-6.146,4.88c-.18.035-.389-.052-.542.113H23.257c-.675-.193-1.378-.26-2.05-.478a14.69,14.69,0,0,1-6.517-4.413,13.578,13.578,0,0,1-3.166-5.933,8.357,8.357,0,0,1,6.54-10.319,9.69,9.69,0,0,0,6.544-4.753,6.382,6.382,0,0,1,4.351-3.406,7.568,7.568,0,0,1,4.616.758c.189.088.374.183.558.281.62.332.618.333,1.1-.151q2.94-2.94,5.882-5.878c.117-.117.256-.213.392-.324-.17-.18-.3-.3-.416-.444a.832.832,0,0,1,1.188-1.158c.138.109.251.375.4.314a1.863,1.863,0,0,0,.516-.475c.147-.15-.022-.217-.1-.3a1.1,1.1,0,0,1-.371-.587.792.792,0,0,1,.416-.879.757.757,0,0,1,.991.151c.272.316.445.294.7-.012a8.809,8.809,0,0,1,.855-.858.757.757,0,0,1,1.095-.041c1.138,1.106,2.252,2.237,3.373,3.362a2.046,2.046,0,0,1,.19.259v.5a8.731,8.731,0,0,1-1.269,1.367c-.142.145-.148.224,0,.354a2.446,2.446,0,0,1,.4.424.825.825,0,0,1-1.188,1.126,2.68,2.68,0,0,1-.391-.375c-.136-.161-.221-.127-.36.008-.449.436-.456.429-.03.885a.835.835,0,0,1,.05,1.257.849.849,0,0,1-1.228-.07,1.554,1.554,0,0,1-.2-.208c-.157-.218-.273-.179-.452,0q-3.135,3.155-6.291,6.289a.376.376,0,0,0-.057.556,8.431,8.431,0,0,1,1.27,4.262,5.957,5.957,0,0,1-3.028,5.28c-.234.149-.48.28-.717.424a.893.893,0,0,1-1.305-.095.728.728,0,0,1,0-1.1,2.743,2.743,0,0,1,.674-.489,6.533,6.533,0,0,0,1.631-1.284,4.2,4.2,0,0,0,.9-3.485,6.135,6.135,0,0,0-.666-2.058c-.128-.249-.223-.313-.446-.088q-3.065,3.081-6.145,6.149a.939.939,0,0,0-.277.631,5.05,5.05,0,0,1-1.146,2.9,4.75,4.75,0,0,1-6.637.606,4.578,4.578,0,0,1-1.766-3.638,4.678,4.678,0,0,1,4.473-4.769,1.029,1.029,0,0,0,.779-.317q3.021-3.037,6.055-6.062c.348-.349.343-.368-.111-.6a6.623,6.623,0,0,0-2.552-.741,4.012,4.012,0,0,0-3.538,1.7c-.442.559-.75,1.206-1.162,1.785a11.565,11.565,0,0,1-6.238,4.525,18.631,18.631,0,0,0-2.436.727,6.439,6.439,0,0,0-3.866,5.777,9.931,9.931,0,0,0,1.92,5.727,13.64,13.64,0,0,0,5.134,4.553,7.887,7.887,0,0,0,5.7.852,6.538,6.538,0,0,0,4.573-4.324c.225-.589.31-1.214.474-1.818a1.271,1.271,0,0,1,.494-.8c.262-.168.545-.314.827-.02" transform="translate(-7.539 -7.448)"/>
        <path id="Trazado_137758" data-name="Trazado 137758" d="M10.538,24.723V20.528c0-.942,0-.945-.881-.647-1.21.41-2.415.834-3.63,1.227a.451.451,0,0,0-.366.524q.018,3.887,0,7.774a2.835,2.835,0,0,1-5.16,1.742,2.825,2.825,0,0,1,2.961-4.362c.529.129.529.129.529-.414q0-2.759,0-5.517c0-.687.132-.859.8-1.084q3.077-1.041,6.153-2.089a.971.971,0,0,1,.844.016.819.819,0,0,1,.421.763c0,3,.014,5.991-.01,8.986a2.808,2.808,0,0,1-2.717,2.7,2.832,2.832,0,0,1-.654-5.606,3.177,3.177,0,0,1,1.71.177" transform="translate(0 -11.765)"/>
        <path id="Trazado_137759" data-name="Trazado 137759" d="M55.828,0A3.25,3.25,0,0,1,57.99.813c.142.12.23.174.405.028a3.042,3.042,0,0,1,4.284.206,3.445,3.445,0,0,1,.083,4.541,11.239,11.239,0,0,1-2.108,1.828c-.66.486-1.344.94-2.02,1.405a.829.829,0,0,1-1.012.013,29.213,29.213,0,0,1-3.587-2.789,3.53,3.53,0,0,1-.953-4.2A3.118,3.118,0,0,1,55.828,0" transform="translate(-35.263)"/>
        <path id="Trazado_137760" data-name="Trazado 137760" d="M35.526,64.25a.865.865,0,0,0-1.177.718,17.836,17.836,0,0,1-.735,2.517A6.606,6.606,0,0,1,25.051,71.1a12.728,12.728,0,0,1-8.5-8.946,6.6,6.6,0,0,1,5.2-8.451,11.562,11.562,0,0,0,7.724-5.688,4.662,4.662,0,0,1,3.009-2.465,5.7,5.7,0,0,1,3.567.557c.83.369.828.374.2,1q-2.985,2.984-5.966,5.972a.873.873,0,0,1-.652.284,4.652,4.652,0,1,0,4.8,4.739.683.683,0,0,1,.189-.522q3.259-3.242,6.506-6.5c.038-.038.084-.07.149-.123a6.465,6.465,0,0,1,.934,4.119,4.339,4.339,0,0,1-2.136,3.047c-.245.158-.506.293-.753.448a.889.889,0,0,0-.431,1.326A12.825,12.825,0,0,0,37.684,61c-.1.11-.235.2-.238.377-.133.082-.235-.027-.348-.06a.684.684,0,0,0-.76.178.727.727,0,0,0-.133.774c.043.128.15.237.119.388a10.034,10.034,0,0,0-.8,1.593" transform="translate(-10.879 -30.391)" fill="#eb9171"/>
        <path id="Trazado_137761" data-name="Trazado 137761" d="M97.706,92.926V90.61c0-1.281-.005-2.562,0-3.842a.85.85,0,0,1,1.224-.88q1.285.42,2.564.861c.583.2.83.629.66,1.107a.849.849,0,0,1-1.2.474c-.512-.168-1.022-.341-1.58-.528v.48c0,2.436.007,4.873-.006,7.309a2.794,2.794,0,0,1-1.789,2.583,2.828,2.828,0,1,1-.264-5.353c.118.033.237.064.388.1" transform="translate(-62.666 -57.38)"/>
        <path id="Trazado_137762" data-name="Trazado 137762" d="M76.178,94.311c-.093-.166-.247-.3-.283-.5a.8.8,0,0,1,.337-.869.849.849,0,0,1,1.067.086c.307.459.318.789.036,1.13s-.62.372-1.158.15" transform="translate(-50.733 -62.045)" fill="#010101"/>
        <path id="Trazado_137763" data-name="Trazado 137763" d="M63.106,46.107a2.812,2.812,0,0,0,.4-.27q5.853-5.844,11.693-11.7c.252-.253.376-.242.607.008.471.512.967,1,1.476,1.477.235.218.243.341.006.577q-4.474,4.446-8.926,8.914c-.935.935-1.876,1.866-2.8,2.809-.21.213-.313.3-.506-.04a4.527,4.527,0,0,0-1.944-1.775" transform="translate(-42.194 -22.701)" fill="#fefefe"/>
        <path id="Trazado_137764" data-name="Trazado 137764" d="M50.979,80.315a2.982,2.982,0,1,1,3.005-2.994,3,3,0,0,1-3.005,2.994" transform="translate(-32.095 -49.712)" fill="#fec757"/>
        <path id="Trazado_137765" data-name="Trazado 137765" d="M110.37,22.765c.063.057.126.11.184.168.55.549,1.093,1.1,1.651,1.644.173.166.163.264,0,.429-.429.429-.421.438-.862,0-.461-.461-.912-.932-1.388-1.377-.212-.2-.233-.338.006-.51.142-.1.226-.277.413-.35" transform="translate(-73.406 -15.221)" fill="#bb7456"/>
        <path id="Trazado_137766" data-name="Trazado 137766" d="M104.764,27.983c.166.149.229.2.286.259.552.551,1.092,1.115,1.66,1.649.259.243.071.366-.086.485s-.235.486-.543.169c-.553-.569-1.117-1.128-1.685-1.683-.141-.137-.152-.226-.009-.371a4.294,4.294,0,0,0,.376-.508" transform="translate(-69.728 -18.71)" fill="#bc7456"/>
        <path id="Trazado_137767" data-name="Trazado 137767" d="M115.628,17.456a.31.31,0,0,1,.3.127c.56.557,1.113,1.122,1.68,1.673.337.327-.075.4-.181.573-.131.213-.262.207-.446.014-.515-.543-1.057-1.061-1.579-1.6-.082-.084-.29-.144-.18-.313a4.292,4.292,0,0,1,.4-.478" transform="translate(-77.02 -11.671)" fill="#bc7457"/>
        <path id="Trazado_137768" data-name="Trazado 137768" d="M27.129,44.6a1.156,1.156,0,1,1-1.138-1.155A1.169,1.169,0,0,1,27.129,44.6" transform="translate(-16.594 -29.046)" fill="#6db3c6"/>
        <path id="Trazado_137769" data-name="Trazado 137769" d="M6.192,52.473a1.147,1.147,0,1,1,1.179-1.154,1.164,1.164,0,0,1-1.179,1.154" transform="translate(-3.377 -33.551)" fill="#b7ebfe"/>
        <path id="Trazado_137770" data-name="Trazado 137770" d="M59.443,5.06a2,2,0,0,1,1.275.837c.624.749,1.03.763,1.678.045a3.877,3.877,0,0,1,.357-.351,1.387,1.387,0,0,1,1.858-.207,1.65,1.65,0,0,1,.561,1.97,2.321,2.321,0,0,1-.614.881,27.68,27.68,0,0,1-2.853,2.174.267.267,0,0,1-.367,0,23.353,23.353,0,0,1-2.924-2.351,1.826,1.826,0,0,1-.528-1.872A1.594,1.594,0,0,1,59.443,5.06" transform="translate(-38.653 -3.383)" fill="#fe5d5d"/>
        <path id="Trazado_137771" data-name="Trazado 137771" d="M31.911,101.475a.86.86,0,0,1-.627-.292q-2.113-2.112-4.224-4.228a.817.817,0,0,1-.041-1.226.826.826,0,0,1,1.226.057q2.121,2.1,4.228,4.224a.811.811,0,0,1,.207.989.8.8,0,0,1-.769.477" transform="translate(-17.894 -63.842)"/>
        <path id="Trazado_137772" data-name="Trazado 137772" d="M38.849,92.179a.979.979,0,0,1,.629.287c.538.542,1.087,1.074,1.617,1.622a.821.821,0,0,1,.029,1.222.809.809,0,0,1-1.19-.031c-.569-.55-1.124-1.114-1.678-1.679a.8.8,0,0,1-.165-.924.826.826,0,0,1,.758-.5" transform="translate(-25.416 -61.633)"/>
        <path id="Trazado_137773" data-name="Trazado 137773" d="M99.915,113.987a1.147,1.147,0,1,1,.024-2.295,1.147,1.147,0,1,1-.024,2.295" transform="translate(-66.041 -74.68)" fill="#00daa7"/>
      </g>
    </g>
  </g>
</svg>
