<svg xmlns="http://www.w3.org/2000/svg" xmlns:xlink="http://www.w3.org/1999/xlink" width="64.888" height="64.888" viewBox="0 0 64.888 64.888">
  <defs>
    <clipPath id="clip-path">
      <rect id="Rectángulo_38168" data-name="Rectángulo 38168" width="36.947" height="41.963" fill="none"/>
    </clipPath>
  </defs>
  <g id="_103" data-name="103" transform="translate(0 -0.002)">
    <circle id="Elipse_4823" data-name="Elipse 4823" cx="32.444" cy="32.444" r="32.444" transform="translate(0 0.002)" fill="#ff9fa3"/>
    <g id="Grupo_159168" data-name="Grupo 159168" transform="translate(14 11.001)">
      <g id="Grupo_159168-2" data-name="Grupo 159168" clip-path="url(#clip-path)">
        <path id="Trazado_137611" data-name="Trazado 137611" d="M21.25,41.333a.712.712,0,0,1-.821.628q-9.811-.009-19.623,0c-.519,0-.8-.225-.806-.623s.286-.625.8-.626c.832,0,1.665-.009,2.5,0,.239,0,.318-.064.365-.31a5.154,5.154,0,0,1,2.4-3.539.855.855,0,0,0,.347-.383,4.116,4.116,0,0,1,3.718-2.545.451.451,0,0,0,.406-.257,3.777,3.777,0,0,1,3.324-1.891.45.45,0,0,0,.411-.185,5.158,5.158,0,0,1,3.3-2.022c.264-.048.289-.151.287-.37-.008-1.427-.014-2.854,0-4.281,0-.31-.1-.361-.38-.358a11.482,11.482,0,0,1-3.752-.343A7.967,7.967,0,0,1,10.243,22c-.384-.421-.395-.626-.064-1.091a.738.738,0,0,1,.982.235,6.628,6.628,0,0,0,1.848,1.446,8.9,8.9,0,0,0,4.644.738c.208,0,.195-.131.195-.268,0-.52.015-1.04,0-1.559a6.541,6.541,0,0,0-3.334-5.683,8.575,8.575,0,0,0-4.834-.881c-.186,0-.222.091-.22.249a12.328,12.328,0,0,0,.2,3.145.7.7,0,0,1-.383.922.686.686,0,0,1-.828-.6,12.512,12.512,0,0,1-.238-3.233c0-.356-.005-.713,0-1.07a.572.572,0,0,1,.558-.634c1.881-.032,3.774-.175,5.568.623a8.18,8.18,0,0,1,3.508,2.961c0-.969,0-1.833,0-2.7,0-.153-.145-.216-.233-.309a19.237,19.237,0,0,1-2.225-2.426,7.66,7.66,0,0,1-1.116-2.5c-.118-.5-.027-.676.455-.9a.638.638,0,0,1,.725.516,8.367,8.367,0,0,0,2.829,4.218c.157.149.251.146.4-.006.441-.462.922-.887,1.337-1.371a6.519,6.519,0,0,0,1.515-5.72A8.377,8.377,0,0,0,18.6,1.637c-.1-.1-.169-.075-.26.012A8.474,8.474,0,0,0,15.5,5.763c-.1.421-.3.707-.782.688-.5-.258-.582-.421-.444-.955A7.619,7.619,0,0,1,16.2,2.035q.869-.9,1.763-1.77c.328-.322.644-.357.943-.061a24.942,24.942,0,0,1,2.411,2.5,7.831,7.831,0,0,1-.615,10.2c-.455.47-.926.924-1.386,1.39-.1.1-.226.18-.225.361.008.84,0,1.679,0,2.63a8.445,8.445,0,0,1,1.709-1.878,7.873,7.873,0,0,1,4.863-1.722c.759-.014,1.517-.01,2.276,0,.569.006.8.225.788.782a17.7,17.7,0,0,1-.256,4.26,7.86,7.86,0,0,1-7.307,5.837c-.58.018-1.16.015-1.74,0-.231,0-.343.032-.34.307.013,1.458.011,2.915,0,4.373,0,.222.064.285.286.326a5.174,5.174,0,0,1,3.3,2.024.451.451,0,0,0,.412.185,3.778,3.778,0,0,1,3.325,1.893.452.452,0,0,0,.409.253,4.122,4.122,0,0,1,3.7,2.511.945.945,0,0,0,.369.42,5.162,5.162,0,0,1,2.391,3.547c.048.259.148.3.375.3.833-.011,1.666-.007,2.5,0,.507,0,.8.243.79.64-.01.378-.295.608-.775.609-2.38,0-4.76,0-7.14,0a.668.668,0,0,1-.77-.623c.063-.474.352-.64.808-.634.877.013,1.755-.007,2.631.01.316.006.384-.081.3-.384a4,4,0,0,0-1.941-2.5,1.057,1.057,0,0,1-.572-.586,2.81,2.81,0,0,0-2.415-2.034,2.851,2.851,0,0,0-2.8,1.218c-.281.37-.607.435-.919.206a.637.637,0,0,1-.085-.944,3.916,3.916,0,0,1,1.665-1.372c.291-.127.273-.238.081-.438a2.519,2.519,0,0,0-2.254-.817.784.784,0,0,1-.86-.382,4,4,0,0,0-6.863.013.755.755,0,0,1-.823.372,2.529,2.529,0,0,0-2.262.794c-.2.207-.243.329.075.467a3.815,3.815,0,0,1,1.683,1.416.619.619,0,0,1-.338,1c-.37.1-.567-.14-.77-.4A2.831,2.831,0,0,0,9.9,35.2a2.8,2.8,0,0,0-2.386,1.891,1.323,1.323,0,0,1-.642.747A3.886,3.886,0,0,0,5,40.179c-.165.525-.161.527.4.527q7.493,0,14.987,0c.467,0,.78.141.863.632m-.78-18.009a6.576,6.576,0,0,0,6.186-3.393,8.6,8.6,0,0,0,.833-4.8c0-.206-.137-.193-.273-.193-.535,0-1.071-.016-1.6.007a6.59,6.59,0,0,0-5.507,3.11A8.3,8.3,0,0,0,19.1,23.119c.006.2.114.206.259.205.371,0,.743,0,1.115,0" transform="translate(0 0)" fill="#030302"/>
        <path id="Trazado_137612" data-name="Trazado 137612" d="M33.608,118.82c-.083-.491-.4-.633-.864-.632q-7.493.012-14.987,0c-.564,0-.569,0-.4-.528a3.887,3.887,0,0,1,1.875-2.338,1.322,1.322,0,0,0,.642-.747,2.8,2.8,0,0,1,2.386-1.891,2.832,2.832,0,0,1,2.7,1.139c.2.256.4.495.77.4a.62.62,0,0,0,.338-1,3.816,3.816,0,0,0-1.683-1.415c-.318-.138-.278-.26-.075-.467a2.528,2.528,0,0,1,2.262-.794.756.756,0,0,0,.823-.372,4,4,0,0,1,6.863-.013.784.784,0,0,0,.86.382,2.518,2.518,0,0,1,2.254.817c.192.2.21.312-.081.438a3.916,3.916,0,0,0-1.665,1.372.637.637,0,0,0,.085.944c.312.23.638.164.919-.205a2.851,2.851,0,0,1,2.8-1.218,2.81,2.81,0,0,1,2.415,2.034,1.057,1.057,0,0,0,.572.586,4,4,0,0,1,1.941,2.5c.088.3.02.39-.3.384-.877-.017-1.754,0-2.632-.01-.455-.007-.745.159-.807.633H38.626a.677.677,0,0,0-.805-.632c-.459.014-.92.021-1.379,0a.744.744,0,0,0-.873.629l-1.961,0m-2.769-6.982c-.525,0-.8.209-.81.611s.3.64.794.641.806-.234.81-.626-.277-.625-.794-.627m-3.765,3.57c-.518,0-.8.223-.793.627s.31.627.81.625.8-.252.794-.642-.287-.612-.811-.61m7.536,0c-.555-.006-.84.212-.831.633.008.376.3.612.772.619.5.008.813-.216.831-.6.019-.406-.264-.643-.772-.649" transform="translate(-12.358 -77.487)" fill="#b26515"/>
        <path id="Trazado_137613" data-name="Trazado 137613" d="M51.644,10.418c.479.019.686-.267.782-.688A8.474,8.474,0,0,1,55.26,5.616c.091-.087.159-.108.26-.012a8.378,8.378,0,0,1,2.927,4.456,6.518,6.518,0,0,1-1.515,5.72c-.414.484-.9.909-1.337,1.371-.145.152-.239.154-.4.006a8.369,8.369,0,0,1-2.829-4.218.638.638,0,0,0-.725-.516,6.485,6.485,0,0,1,0-2.005" transform="translate(-36.922 -3.967)" fill="#a9e034"/>
        <path id="Trazado_137614" data-name="Trazado 137614" d="M32.658,56.872a.7.7,0,0,0,.383-.921,12.343,12.343,0,0,1-.2-3.146c0-.158.034-.245.22-.249a8.572,8.572,0,0,1,4.833.882,6.541,6.541,0,0,1,3.334,5.683c.018.519,0,1.039,0,1.559,0,.137.013.265-.195.268a8.9,8.9,0,0,1-4.644-.738,6.626,6.626,0,0,1-1.849-1.447.737.737,0,0,0-.982-.234,7.3,7.3,0,0,1-.9-1.657" transform="translate(-23.383 -37.623)" fill="#aae034"/>
        <path id="Trazado_137615" data-name="Trazado 137615" d="M81.728,143.935a.744.744,0,0,1,.873-.629c.459.023.92.016,1.379,0a.677.677,0,0,1,.805.632.664.664,0,0,1-.767.624c-.474-.01-.95-.02-1.423,0a.738.738,0,0,1-.867-.631" transform="translate(-58.517 -102.605)" fill="#030302"/>
        <path id="Trazado_137616" data-name="Trazado 137616" d="M68.576,60.966c-.371,0-.743,0-1.115,0-.145,0-.253-.008-.259-.205a8.3,8.3,0,0,1,1.007-5.066,6.59,6.59,0,0,1,5.507-3.11c.534-.023,1.07-.006,1.6-.007.136,0,.269-.013.273.193a8.6,8.6,0,0,1-.833,4.8,6.576,6.576,0,0,1-6.186,3.393" transform="translate(-48.106 -37.642)" fill="#a9e034"/>
        <path id="Trazado_137617" data-name="Trazado 137617" d="M63.031,120.954c.518,0,.8.223.794.627s-.31.628-.81.626-.8-.25-.794-.641.285-.612.81-.611" transform="translate(-44.55 -86.603)" fill="#070401"/>
        <path id="Trazado_137618" data-name="Trazado 137618" d="M49.816,133.524c.525,0,.8.209.811.61s-.3.64-.794.642-.805-.234-.81-.625.275-.626.793-.627" transform="translate(-35.1 -95.603)" fill="#070401"/>
        <path id="Trazado_137619" data-name="Trazado 137619" d="M76.254,133.524c.508.005.79.243.772.649-.018.387-.326.611-.831.6-.47-.007-.764-.243-.772-.619-.009-.421.277-.639.831-.633" transform="translate(-54.002 -95.603)" fill="#070401"/>
      </g>
    </g>
  </g>
</svg>
