<svg xmlns="http://www.w3.org/2000/svg" xmlns:xlink="http://www.w3.org/1999/xlink" width="64.888" height="64.888" viewBox="0 0 64.888 64.888">
  <defs>
    <clipPath id="clip-path">
      <rect id="Rectángulo_38174" data-name="Rectángulo 38174" width="32.97" height="47.111" fill="none"/>
    </clipPath>
  </defs>
  <g id="_104" data-name="104" transform="translate(0 -0.002)">
    <circle id="Elipse_4823" data-name="Elipse 4823" cx="32.444" cy="32.444" r="32.444" transform="translate(0 0.002)" fill="#ff9fa3"/>
    <g id="Grupo_159174" data-name="Grupo 159174" transform="translate(16 9.001)">
      <g id="Grupo_159174-2" data-name="Grupo 159174" clip-path="url(#clip-path)">
        <path id="Trazado_137774" data-name="Trazado 137774" d="M23.2,0a4.468,4.468,0,0,1,1.108.585,2.345,2.345,0,0,1,.666,2.55A2.326,2.326,0,0,1,22.855,4.7c-.871.036-.871.036-.871.895v7.343a3.2,3.2,0,0,1,1.354-.359,2.89,2.89,0,0,1,2.275,1.011c2.044,2.285,4.1,4.563,6.114,6.872a4.689,4.689,0,0,1,.844,5.1c-1.1,2.819-2.19,5.641-3.323,8.445a5.512,5.512,0,0,1-5.311,3.676c-.335.011-.393.111-.391.416a15.688,15.688,0,0,1-.04,2.343,3.011,3.011,0,0,1-2.012,2.518.4.4,0,0,0-.315.456c.019.92.013,1.84.005,2.76-.005.638-.292.93-.928.931q-3.772.008-7.543,0a.811.811,0,0,1-.933-.926c-.008-.935-.009-1.871,0-2.806a.354.354,0,0,0-.265-.4,3.093,3.093,0,0,1-2.1-3.034c-.021-.612-.019-1.227,0-1.84.011-.3-.04-.416-.385-.421a5.541,5.541,0,0,1-4.264-1.907A6.034,6.034,0,0,1,3.7,33.968Q2.046,29.791.405,25.61a4.8,4.8,0,0,1,.944-5.29C3.235,18.2,5.142,16.1,7,13.958a3.113,3.113,0,0,1,3.915-1.065c.1-.13.06-.271.06-.4,0-2.454-.007-4.907.013-7.36,0-.385-.126-.442-.464-.439A2.359,2.359,0,0,1,9.533.1c.081-.024.192.019.232-.1ZM18.032,43.2c-1.469-.006-2.937-.009-4.406-.023-.229,0-.286.087-.283.3.01.6.012,1.194,0,1.79,0,.222.073.286.29.284,1.469-.012,2.937-.014,4.406-.018.426.005.852,0,1.278.018.2.007.306-.045.3-.276-.012-.609-.008-1.218,0-1.827,0-.19-.063-.279-.263-.273-.44.015-.881.018-1.322.026m4.885-28.924a.458.458,0,0,0-.135.016,1.4,1.4,0,0,0-.348,2.3c1.114,1.2,2.242,2.381,3.367,3.568a5.448,5.448,0,0,1,1.182,1.618.319.319,0,0,0,.353.211c.7-.014,1.405-.014,2.108-.019H30.86a2.762,2.762,0,0,0-.472-.666q-.888-1-1.773-1.993-2.049-2.3-4.1-4.6a1.324,1.324,0,0,0-1.6-.44M26.135,33.79c.181.282.369.559.541.847.123.207.206.248.387.032a4.834,4.834,0,0,0,.766-1.35q1.638-4.136,3.261-8.278a4.68,4.68,0,0,0,.289-1.106c.04-.309-.067-.4-.369-.384-.4.026-.8.015-1.193.019-.613,0-1.229.028-1.837-.026-.483-.043-.6.132-.572.577a2.51,2.51,0,0,1-.11.768c-.3,1.189-.764,2.323-1.127,3.491a6.615,6.615,0,0,1-1.527,2.84.26.26,0,0,0-.031.392c.512.723,1.016,1.452,1.523,2.179m-6.253,7.79a1.643,1.643,0,0,0,2.1-1.586c.022-.657,0-1.316.009-1.974,0-.235-.073-.333-.316-.323-.412.019-.825.018-1.237.026-.183-.009-.366-.026-.549-.026q-4.047,0-8.093,0c-.184,0-.368.007-.552,0s-.271.072-.268.269c.009.705-.026,1.412.017,2.115A1.536,1.536,0,0,0,12.618,41.6c1.088.013,2.177.007,3.265,0,1.333,0,2.666-.016,4-.024M21.8,1.588c-1.347-.007-2.694-.018-4.041-.019q-3.7-.005-7.4,0c-.566,0-.948.328-.949.784s.367.772.944.78c.352.005.7,0,1.057,0,.9,0,1.129.236,1.13,1.149,0,.658,0,1.317,0,1.975,0,.192.015.328.268.3a7.906,7.906,0,0,1,4.254.879,3.051,3.051,0,0,0,1.805.385,2.634,2.634,0,0,0,1.389-.383c.136-.053.159-.169.158-.3q-.014-1.6-.024-3.207c.154-.609.376-.784,1.007-.8.134,0,.269-.014.4-.02.3.006.609.026.913.015a.8.8,0,0,0,.823-.755.8.8,0,0,0-.783-.8c-.318-.023-.639.005-.958.01m3.416,33.745c-.62-.928-1.246-1.851-1.855-2.786-.153-.235-.3-.177-.5-.088a5.728,5.728,0,0,1-2.364.483q-4.02,0-8.04,0a5.588,5.588,0,0,1-2.363-.486c-.237-.108-.368-.1-.523.13Q8.6,34.06,7.587,35.509c-.171.245-.1.307.151.394a5.162,5.162,0,0,0,1.675.218q7.053.007,14.106,0c.32,0,.639-.05.959-.076a1.045,1.045,0,0,0,.578-.091c.533-.159.532-.163.162-.621M18.782,9.475A11.727,11.727,0,0,1,15.25,8.4,4.728,4.728,0,0,0,13.041,8.1c-.364.023-.509.127-.507.545.019,4.964.012,9.929.012,14.893a12.2,12.2,0,0,0,.055,1.238,3.906,3.906,0,0,0,6.823,2.138,4.268,4.268,0,0,0,.988-2.928q0-7.194,0-14.388V9.086a6.715,6.715,0,0,1-1.539.389h-.09m-7.806,8.932c-1.042,1.107-2,2.115-2.95,3.137a3.214,3.214,0,0,0-.736,3.4c.4,1.2.8,2.409,1.215,3.606a3.916,3.916,0,0,0,3.66,2.8c2.881.048,5.764.063,8.644-.007a3.669,3.669,0,0,0,3.5-2.47c.521-1.32.944-2.68,1.386-4.03a3.117,3.117,0,0,0-.734-3.274c-.885-.956-1.783-1.9-2.68-2.845-.074-.078-.12-.216-.294-.2v.456c0,1.747.012,3.5,0,5.243a5.5,5.5,0,0,1-10.265,2.845,5.743,5.743,0,0,1-.74-2.948c0-1.866,0-3.731,0-5.719m-7.42,5.149c-.567,0-1.134.009-1.7,0-.224-.005-.289.066-.275.288a3.943,3.943,0,0,0,.292,1.2Q3.5,29.2,5.151,33.361A4.757,4.757,0,0,0,5.9,34.668c.169.2.242.191.385-.023.662-.994,1.332-1.983,2.018-2.96a.351.351,0,0,0-.047-.539A5.5,5.5,0,0,1,7,28.984c-.349-1.044-.706-2.086-1.056-3.13a5.5,5.5,0,0,1-.4-2.013c.013-.266-.115-.294-.331-.29-.551.011-1.1,0-1.655,0M2.066,21.987c1.249,0,2.4,0,3.544,0a.354.354,0,0,0,.384-.239A5.419,5.419,0,0,1,7.122,20.2c1.126-1.191,2.247-2.387,3.378-3.573a1.452,1.452,0,0,0,.419-1.468,1.375,1.375,0,0,0-2.373-.546c-2.065,2.283-4.1,4.593-6.145,6.9a5.671,5.671,0,0,0-.335.478" transform="translate(0)" fill="#020203"/>
        <path id="Trazado_137775" data-name="Trazado 137775" d="M43.363,25.276a6.717,6.717,0,0,0,1.539-.389V25.4q0,7.194,0,14.388a4.266,4.266,0,0,1-.988,2.928,3.906,3.906,0,0,1-6.823-2.138,12.2,12.2,0,0,1-.055-1.238c0-4.964.007-9.929-.012-14.893,0-.418.144-.523.507-.545a4.73,4.73,0,0,1,2.21.294,11.725,11.725,0,0,0,3.532,1.077c0,1.251,0,2.5,0,3.751,0,.163.048.337-.066.487a.776.776,0,0,0-1.056-.236.726.726,0,0,0-.353.863.7.7,0,0,0,.555.55.829.829,0,0,0,.9-.4q0,3.17,0,6.341a.823.823,0,0,0-.9-.385.709.709,0,0,0-.551.555.745.745,0,0,0,.353.868.772.772,0,0,0,1.051-.253c.12.166.064.356.066.536.006.861,0,1.721,0,2.581h.09Zm-2.4,14.1a.785.785,0,0,0-.775-.793.765.765,0,0,0-.783.781.779.779,0,0,0,1.558.012m-1.522-11.8a.79.79,0,0,0-.821.753.774.774,0,0,0,.757.811.759.759,0,0,0,.791-.724.782.782,0,0,0-.728-.84m1.524,5.5a.779.779,0,0,0-1.558,0,.778.778,0,0,0,.754.77.787.787,0,0,0,.8-.769" transform="translate(-24.49 -15.801)" fill="#fbe438"/>
        <path id="Trazado_137776" data-name="Trazado 137776" d="M39.118,99.315c-.32.026-.639.076-.959.076q-7.053.008-14.105,0a5.151,5.151,0,0,1-1.675-.218c-.256-.087-.322-.148-.151-.394q1.011-1.45,1.988-2.923c.154-.234.286-.239.523-.13a5.587,5.587,0,0,0,2.363.486q4.021,0,8.041,0a5.728,5.728,0,0,0,2.364-.483c.2-.089.344-.147.5.088.609.935,1.235,1.858,1.855,2.786a4.76,4.76,0,0,0-.74.712" transform="translate(-14.64 -63.271)" fill="#2193ee"/>
        <path id="Trazado_137777" data-name="Trazado 137777" d="M37.271,10.881a3.056,3.056,0,0,1-1.805-.385,7.9,7.9,0,0,0-4.254-.879c-.253.029-.27-.107-.268-.3.005-.658,0-1.317,0-1.975,0-.913-.232-1.147-1.13-1.149-.352,0-.7,0-1.056,0-.578-.008-.945-.314-.944-.78s.383-.783.95-.784q3.7-.006,7.4,0c1.347,0,2.694.013,4.041.02a1.841,1.841,0,0,1,.005,1.526c-.134.007-.269.017-.4.02-.631.014-.854.189-1.007.8-.4,0-.8.02-1.195.008-.256-.008-.351.08-.347.342.014,1.18.014,2.36.018,3.54" transform="translate(-18.399 -3.06)" fill="#ccd5da"/>
        <path id="Trazado_137778" data-name="Trazado 137778" d="M6.64,69.572c.552,0,1.1.007,1.655,0,.216,0,.344.024.331.29a5.5,5.5,0,0,0,.4,2.013c.35,1.044.707,2.086,1.055,3.13a5.5,5.5,0,0,0,1.259,2.163.351.351,0,0,1,.047.539q-1.029,1.467-2.018,2.96c-.143.214-.215.227-.385.023a4.756,4.756,0,0,1-.749-1.308q-1.643-4.16-3.279-8.323a3.944,3.944,0,0,1-.292-1.2c-.014-.223.051-.294.275-.288.567.014,1.134,0,1.7,0" transform="translate(-3.084 -46.017)" fill="#2294f0"/>
        <path id="Trazado_137779" data-name="Trazado 137779" d="M41.316,115.234c-1.333.008-2.666.019-4,.024-1.088,0-2.177.01-3.265,0a1.536,1.536,0,0,1-1.627-1.522c-.043-.7-.007-1.41-.017-2.115,0-.2.072-.278.268-.269s.368,0,.552,0q4.047,0,8.093,0c.183,0,.366.017.549.026,0,.2,0,.4,0,.594a5.443,5.443,0,0,1-.552,3.262" transform="translate(-21.434 -73.654)" fill="#2295f1"/>
        <path id="Trazado_137780" data-name="Trazado 137780" d="M6.1,49.608a5.671,5.671,0,0,1,.335-.478c2.044-2.3,4.08-4.612,6.145-6.9a1.375,1.375,0,0,1,2.373.546,1.452,1.452,0,0,1-.419,1.468c-1.131,1.187-2.252,2.383-3.378,3.573a5.419,5.419,0,0,0-1.129,1.551.354.354,0,0,1-.384.239c-1.147-.009-2.295,0-3.544,0" transform="translate(-4.036 -27.62)" fill="#2294f0"/>
        <path id="Trazado_137781" data-name="Trazado 137781" d="M74.08,79.781c-.507-.727-1.011-1.456-1.523-2.179a.26.26,0,0,1,.031-.393,6.616,6.616,0,0,0,1.527-2.84c.363-1.168.829-2.3,1.127-3.491a2.51,2.51,0,0,0,.11-.768c-.031-.444.089-.62.572-.577.608.054,1.224.021,1.837.026a3.472,3.472,0,0,1-.121,1.086c-.246.871-.63,1.688-.955,2.527-.856,2.208-1.736,4.406-2.606,6.608" transform="translate(-47.945 -45.991)" fill="#2294f0"/>
        <path id="Trazado_137782" data-name="Trazado 137782" d="M72.406,49.86c-.7.005-1.406.005-2.108.019a.319.319,0,0,1-.353-.211,5.448,5.448,0,0,0-1.182-1.618c-1.124-1.188-2.252-2.371-3.367-3.568a1.4,1.4,0,0,1,.348-2.3.458.458,0,0,1,.135-.016.747.747,0,0,0,.092.2c1.564,1.756,3.142,3.5,4.693,5.267a9.058,9.058,0,0,1,1.742,2.228" transform="translate(-42.961 -27.888)" fill="#2294f0"/>
        <path id="Trazado_137783" data-name="Trazado 137783" d="M77.2,79.8c.87-2.2,1.751-4.4,2.606-6.608.325-.839.709-1.656.955-2.527a3.472,3.472,0,0,0,.121-1.086c.4,0,.8.007,1.193-.019.3-.02.41.075.369.385a4.678,4.678,0,0,1-.289,1.106Q80.534,75.193,78.9,79.33a4.841,4.841,0,0,1-.766,1.35c-.181.216-.264.175-.387-.032-.171-.288-.36-.565-.541-.847" transform="translate(-51.068 -46.011)" fill="#1565be"/>
        <path id="Trazado_137784" data-name="Trazado 137784" d="M44.113,129.887c-1.469,0-2.938.006-4.406.018-.217,0-.295-.062-.29-.284.013-.6.011-1.194,0-1.79,0-.211.055-.3.283-.3,1.468.014,2.937.017,4.4.023l.007,2.331" transform="translate(-26.073 -84.359)" fill="#2295f1"/>
        <path id="Trazado_137785" data-name="Trazado 137785" d="M74.225,49.646a9.059,9.059,0,0,0-1.742-2.228c-1.551-1.768-3.129-3.512-4.693-5.267a.747.747,0,0,1-.092-.2,1.324,1.324,0,0,1,1.6.44q2.058,2.293,4.1,4.6.887,1,1.773,1.993a2.772,2.772,0,0,1,.472.666Z" transform="translate(-44.78 -27.675)" fill="#1565bd"/>
        <path id="Trazado_137786" data-name="Trazado 137786" d="M58.731,115.24a5.443,5.443,0,0,0,.552-3.262c0-.2,0-.4,0-.594.412-.007.825-.007,1.237-.026.242-.011.319.088.316.323-.011.658.013,1.317-.009,1.974a1.643,1.643,0,0,1-2.1,1.586" transform="translate(-38.849 -73.659)" fill="#1565bd"/>
        <path id="Trazado_137787" data-name="Trazado 137787" d="M55.712,15.5c0-1.18,0-2.36-.018-3.54,0-.262.091-.35.347-.342.4.012.8,0,1.195-.008q.012,1.6.024,3.207c0,.131-.022.247-.158.3a2.639,2.639,0,0,1-1.39.383" transform="translate(-36.84 -7.682)" fill="#5e7a88"/>
        <path id="Trazado_137788" data-name="Trazado 137788" d="M53.274,129.88l-.007-2.331c.441-.008.882-.012,1.323-.026.2-.006.265.083.263.273-.006.609-.01,1.218,0,1.827,0,.231-.1.283-.3.276-.426-.014-.852-.013-1.278-.018" transform="translate(-35.235 -84.352)" fill="#1564b9"/>
        <path id="Trazado_137789" data-name="Trazado 137789" d="M64.406,6.178A1.84,1.84,0,0,0,64.4,4.652c.32-.005.641-.034.958-.01a.777.777,0,1,1-.04,1.552c-.3.011-.609-.009-.913-.015" transform="translate(-42.6 -3.064)" fill="#5e7a88"/>
        <path id="Trazado_137790" data-name="Trazado 137790" d="M55.439,27.988V43.249h-.09c0-.861,0-1.721,0-2.581,0-.179.054-.369-.066-.536a1.1,1.1,0,0,0,.051-.785q0-3.17,0-6.341a1.08,1.08,0,0,0-.048-.781c.114-.15.066-.324.066-.487,0-1.25,0-2.5,0-3.751h.09" transform="translate(-36.567 -18.513)" fill="#e2d455"/>
        <path id="Trazado_137791" data-name="Trazado 137791" d="M72.307,105.084a4.76,4.76,0,0,1,.74-.712c.37.457.371.462-.162.621a1.049,1.049,0,0,1-.578.091" transform="translate(-47.829 -69.039)" fill="#1564b9"/>
        <path id="Trazado_137792" data-name="Trazado 137792" d="M45.626,68.1a.779.779,0,0,1-1.558-.011.765.765,0,0,1,.783-.782.785.785,0,0,1,.775.793" transform="translate(-29.15 -44.524)" fill="#060602"/>
        <path id="Trazado_137793" data-name="Trazado 137793" d="M42.567,34.787a.782.782,0,0,1,.728.84.759.759,0,0,1-.791.724.774.774,0,0,1-.757-.811.79.79,0,0,1,.821-.753" transform="translate(-27.613 -23.01)" fill="#060602"/>
        <path id="Trazado_137794" data-name="Trazado 137794" d="M45.63,49.512a.787.787,0,0,1-.8.769.778.778,0,0,1-.754-.77.779.779,0,0,1,1.558,0" transform="translate(-29.152 -32.238)" fill="#060602"/>
        <path id="Trazado_137795" data-name="Trazado 137795" d="M52.541,60.735a1.1,1.1,0,0,1-.051.785.772.772,0,0,1-1.051.253.745.745,0,0,1-.353-.868.708.708,0,0,1,.551-.555.823.823,0,0,1,.9.385" transform="translate(-33.776 -39.901)" fill="#060602"/>
        <path id="Trazado_137796" data-name="Trazado 137796" d="M52.479,39.818a1.082,1.082,0,0,1,.048.781.83.83,0,0,1-.9.4.7.7,0,0,1-.554-.55.726.726,0,0,1,.353-.863.776.776,0,0,1,1.056.236" transform="translate(-33.765 -26.105)" fill="#060602"/>
      </g>
    </g>
  </g>
</svg>
