<svg xmlns="http://www.w3.org/2000/svg" xmlns:xlink="http://www.w3.org/1999/xlink" width="64.888" height="64.888" viewBox="0 0 64.888 64.888">
  <defs>
    <clipPath id="clip-path">
      <rect id="Rectángulo_38169" data-name="Rectángulo 38169" width="40.181" height="39.214" fill="none"/>
    </clipPath>
  </defs>
  <g id="_105" data-name="105" transform="translate(0.125 0.424)">
    <circle id="Elipse_4823" data-name="Elipse 4823" cx="32.444" cy="32.444" r="32.444" transform="translate(-0.125 -0.424)" fill="#ff9fa3"/>
    <g id="Grupo_159169" data-name="Grupo 159169" transform="translate(11.874 12.576)">
      <g id="Grupo_159169-2" data-name="Grupo 159169" clip-path="url(#clip-path)">
        <path id="Trazado_137620" data-name="Trazado 137620" d="M40.657,112.18c0,1.886,0,3.771.012,5.657,0,.308-.113.349-.379.348-1.995-.01-3.989-.005-5.983-.005q-16.25,0-32.5.011c-.422,0-.515-.11-.507-.516.028-1.311.011-2.623.009-3.935a1.007,1.007,0,0,0-.038-.445c.016-.1.1-.124.174-.151a24.1,24.1,0,0,1,6.35-1.332,23.735,23.735,0,0,1,10.548,1.867,20.167,20.167,0,0,0,7,1.352c1.065.022,2.124-.007,3.184-.091a.834.834,0,0,0,.623-.256.871.871,0,0,1,.876-.349.555.555,0,0,1,.2.133c.289.226.413.2.593-.14a.515.515,0,0,1,.089-.136.9.9,0,0,1,.869-.1.684.684,0,0,0,.657.094c2.071-.537,4.138-1.084,6.207-1.627q.791-.208,1.585-.4c.141-.035.291-.1.428.019" transform="translate(-0.898 -78.976)" fill="#efbf20"/>
        <path id="Trazado_137621" data-name="Trazado 137621" d="M28.384,50.359c-.111.25-.333.3-.572.32a22.788,22.788,0,0,1-10.953-1.455,22.508,22.508,0,0,0-9.092-1.705A22.06,22.06,0,0,0,.922,48.776c-.178.064-.366.1-.549.152a.414.414,0,0,1-.366-.38c-.026-.295.211-.379.41-.49a.965.965,0,0,1,.5-.267,22.792,22.792,0,0,1,4.335-1.008c.623-.081.622-.089.623-.7,0-.832,0-1.663,0-2.5,0-.513-.012-.522-.521-.666-1.5-.423-3-.807-4.5-1.226a.7.7,0,0,1-.432-.208c-.2-.094-.414-.172-.414-.443s.186-.374.407-.443c.162-.111.317-.018.47.021,1.5.392,3,.809,4.5,1.21.465.124.489.108.49-.372,0-1.145-.006-2.29.005-3.435a.867.867,0,0,0-.375-.763,3.361,3.361,0,0,0-4.335-.023c-.228.168-.4.474-.756.41-.487-.208-.54-.464-.174-.831.066-.066.126-.137.189-.205A2.892,2.892,0,0,1,2.109,35.6a4.191,4.191,0,0,1,3.47.431.353.353,0,0,0,.232.088c.106-.109.05-.252.054-.38a23.522,23.522,0,0,1,.061-2.495c.053-.375-.192-.39-.458-.39q-2.232,0-4.463,0a.949.949,0,0,1-.595-.1c-.261-.05-.44-.194-.4-.473.046-.3.28-.363.553-.362,1.68,0,3.36-.013,5.04.013.388.006.5-.1.535-.477A16.657,16.657,0,0,1,9.6,22.846a15.4,15.4,0,0,1,1.588-1.764,1.208,1.208,0,0,1,1.817.006,16.766,16.766,0,0,1,4.957,9.643,7.825,7.825,0,0,1,.1.852c.012.28.128.344.4.343,2.65-.012,5.3,0,7.949-.01.316,0,.574.047.651.408.1.314-.115.417-.347.489a1.913,1.913,0,0,1-.571.035q-3.666,0-7.334,0c-.585,0-.576.019-.531.608.079,1.036.021,2.075.031,3.113.007.715.039.778.72.975a3.508,3.508,0,0,0,3.584-.907,4.413,4.413,0,0,1,5.516-.479,6.809,6.809,0,0,1,.86.694,3.433,3.433,0,0,0,4.655-.1,4.494,4.494,0,0,1,2.672-1.31,4.54,4.54,0,0,1,3.168.859.817.817,0,0,1,.256.314c.054.059.106.12.163.175.4.391.363.609-.147.858-.207.072-.332-.076-.469-.181a5.317,5.317,0,0,0-1.021-.678,3.412,3.412,0,0,0-3.864.688,4.46,4.46,0,0,1-4.51,1.083,4.888,4.888,0,0,1-1.9-1.17,3.369,3.369,0,0,0-4.7.049,4.5,4.5,0,0,1-4.621,1.1c-.288-.086-.359-.016-.357.268.009,1.38,0,2.759,0,4.139,0,.444.037.471.476.4a23.276,23.276,0,0,0,4.829-1.4,23.095,23.095,0,0,1,15.6-.5.878.878,0,0,1,.529.286c.222.086.434.191.41.477a.413.413,0,0,1-.4.384c-.223.131-.427.009-.627-.061A20.907,20.907,0,0,0,33.408,41.4a21.983,21.983,0,0,0-7.257.791c-1.305.366-2.546.91-3.827,1.34a23.667,23.667,0,0,1-3.452.874c-.523.092-.545.121-.549.667-.009,1.148.028,2.3-.021,3.442-.013.307.174.366.39.426a31.644,31.644,0,0,0,3.489.718,21.838,21.838,0,0,0,3.018.226,14.3,14.3,0,0,0,2-.092,3.509,3.509,0,0,1,.695-.032c.431.032.531.158.49.6" transform="translate(0 -14.609)"/>
        <path id="Trazado_137622" data-name="Trazado 137622" d="M72.125,99.89c-.043-.456-.133-.545-.593-.5a23.089,23.089,0,0,1-4.741.016,29.625,29.625,0,0,1-4.612-.882c-.211-.057-.284-.139-.282-.36.012-1.311.008-2.621.009-3.932,0-.163-.029-.315.222-.346a36.921,36.921,0,0,0,6.887-2.008A21.728,21.728,0,0,1,83,91.963c.167.056.338.1.507.156q0,2.174-.007,4.347c-.087.171-.262.184-.416.225q-3.82,1.01-7.644,2.009c-.385.1-.728.211-.881.62-.284-.149-.527.1-.8.082-.5-.223-.5-.223-.843.164-.263.11-.638-.051-.791.325" transform="translate(-43.741 -64.14)" fill="#e7a51e"/>
        <path id="Trazado_137623" data-name="Trazado 137623" d="M83.51,79.47a23.734,23.734,0,0,0-7.3-1.3,23.465,23.465,0,0,0-9.218,1.768,20.718,20.718,0,0,1-4.759,1.307c-.172.025-.32.088-.318-.192.009-1.653.007-3.306.011-4.959a.348.348,0,0,1,.038-.1,5.564,5.564,0,0,0,1.449.376,4.54,4.54,0,0,0,3.607-1.325,3.481,3.481,0,0,1,4.574-.216c.172.134.329.287.493.431A4.347,4.347,0,0,0,78,75.221a3.52,3.52,0,0,1,5.13-.056,1.3,1.3,0,0,0,.383.228q0,2.039-.007,4.077" transform="translate(-43.754 -52.353)" fill="#efbf20"/>
        <path id="Trazado_137624" data-name="Trazado 137624" d="M83.467,64.683a5.1,5.1,0,0,0-2.282-1.03,4.193,4.193,0,0,0-3.577,1.117,3.582,3.582,0,0,1-4.17.786,4.418,4.418,0,0,1-1.025-.738,4.327,4.327,0,0,0-6.059.019,3.608,3.608,0,0,1-4.119.71.563.563,0,0,1-.358-.6c.014-1.256.013-2.513-.009-3.768-.006-.314.082-.382.385-.381,2.635.012,5.27,0,7.9.011.319,0,.574-.048.631-.419h.795c.423.383.423.383.845,0h.795a1.478,1.478,0,0,0,1.033.282q4.268-.01,8.537,0c.236,0,.5-.064.692.148q-.009,1.932-.018,3.863" transform="translate(-43.72 -42.676)" fill="#72c1e8"/>
        <path id="Trazado_137625" data-name="Trazado 137625" d="M1.424,91.631q2.113.558,4.226,1.117c.356.094.706.21,1.065.287.224.048.321.134.318.379-.012,1.079-.006,2.158,0,3.237,0,.172.006.308-.24.334A22.455,22.455,0,0,0,1.5,98.2a.3.3,0,0,1-.081.006q0-3.285,0-6.571" transform="translate(-1.005 -64.753)" fill="#e7a51e"/>
        <path id="Trazado_137626" data-name="Trazado 137626" d="M1.406,75.407a1.372,1.372,0,0,0,.5-.34,3.511,3.511,0,0,1,4.861.028.606.606,0,0,1,.253.481q-.016,1.988,0,3.976c0,.272-.076.325-.333.254-1.76-.489-3.522-.967-5.284-1.448q0-1.476,0-2.952" transform="translate(-0.994 -52.366)" fill="#efbf20"/>
        <path id="Trazado_137627" data-name="Trazado 137627" d="M105.707,13.834a3.94,3.94,0,1,1-3.918-3.946,3.946,3.946,0,0,1,3.918,3.946" transform="translate(-69.132 -6.987)"/>
        <path id="Trazado_137628" data-name="Trazado 137628" d="M1.4,61.818q2.683-.007,5.365-.015c.148,0,.265,0,.263.206-.006,1.145,0,2.291,0,3.517a4.741,4.741,0,0,0-1.9-.858,4.365,4.365,0,0,0-3.438.83c-.088.063-.18.121-.27.181L1.4,61.818" transform="translate(-0.988 -43.674)" fill="#71c1e8"/>
        <path id="Trazado_137629" data-name="Trazado 137629" d="M68.354,41.874a.408.408,0,0,1-.4-.373,1.911,1.911,0,0,0-1.412-1.676.388.388,0,0,1-.285-.4A.407.407,0,0,1,66.579,39a1.786,1.786,0,0,0,1.329-1.544c.054-.251.155-.484.461-.49s.421.215.476.471a1.807,1.807,0,0,0,1.356,1.57.431.431,0,0,1,0,.825,1.864,1.864,0,0,0-1.369,1.613c-.055.25-.176.427-.477.429" transform="translate(-46.82 -26.123)"/>
        <path id="Trazado_137630" data-name="Trazado 137630" d="M110.842,59.838q-4.815-.007-9.63-.01c-.319,0-.575-.047-.632-.419a.494.494,0,0,1,.567-.407q4.769.007,9.539,0c.273,0,.507.063.553.362.043.279-.136.422-.4.473" transform="translate(-71.077 -41.695)" fill="#010101"/>
        <path id="Trazado_137631" data-name="Trazado 137631" d="M105.014,113.054c-.093-.442.188-.56.538-.651q4.2-1.095,8.4-2.2c.2.07.4.146.413.41.012.287-.218.363-.412.469q-2.469.633-4.939,1.268c-1.119.289-2.239.578-3.354.883a.528.528,0,0,1-.649-.176" transform="translate(-74.197 -77.876)"/>
        <path id="Trazado_137632" data-name="Trazado 137632" d="M66.08,19.66c-.218,0-.438.015-.654,0a.392.392,0,0,1-.081-.749c.194-.062.4-.067.334-.374a.518.518,0,0,0-.408-.452.5.5,0,0,0-.588.259.857.857,0,0,0-.079.273c-.042.282-.208.422-.481.371s-.356-.268-.329-.528a1.353,1.353,0,0,1,2.06-1.01.369.369,0,0,0,.486,0,1.339,1.339,0,0,1,2.048.962c.034.27,0,.511-.312.571s-.448-.123-.491-.41a.514.514,0,0,0-.579-.5.5.5,0,0,0-.49.464c-.032.174-.04.314.211.337a.371.371,0,0,1,.359.454c-.035.263-.224.354-.473.349-.177,0-.355,0-.533,0V19.66" transform="translate(-45.078 -12.182)"/>
        <path id="Trazado_137633" data-name="Trazado 137633" d="M10.582,19.656c-.218,0-.438.014-.654,0a.348.348,0,0,1-.323-.363.357.357,0,0,1,.238-.39c.18-.064.428-.038.343-.362-.07-.263-.2-.45-.488-.473a.5.5,0,0,0-.56.373,1.989,1.989,0,0,0-.042.2.382.382,0,0,1-.47.344c-.266-.043-.337-.239-.33-.485a1.34,1.34,0,0,1,2.014-1.077.447.447,0,0,0,.557.006A1.352,1.352,0,0,1,12.9,18.442c.029.26-.044.481-.32.535-.294.057-.456-.1-.495-.4a.513.513,0,0,0-.572-.512.49.49,0,0,0-.5.5c-.016.16-.018.285.206.307a.374.374,0,0,1,.366.451c-.034.256-.222.356-.472.351-.177,0-.355,0-.533,0v-.013" transform="translate(-5.863 -12.178)"/>
        <path id="Trazado_137634" data-name="Trazado 137634" d="M50.935,7.364c-.218,0-.437.011-.654,0a.394.394,0,0,1-.1-.759c.2-.057.4-.071.33-.367a.528.528,0,0,0-.449-.463.5.5,0,0,0-.571.3,1.018,1.018,0,0,0-.053.236c-.054.263-.2.427-.483.381-.26-.042-.34-.231-.334-.481A1.34,1.34,0,0,1,50.63,5.123a.484.484,0,0,0,.6-.006,1.34,1.34,0,0,1,1.987.981c.033.279,0,.543-.341.589-.307.041-.438-.155-.472-.438a.5.5,0,0,0-.472-.48.467.467,0,0,0-.531.292c-.083.216-.216.471.2.521a.352.352,0,0,1,.31.414.374.374,0,0,1-.4.373c-.191.009-.382,0-.573,0V7.364" transform="translate(-34.359 -3.49)"/>
        <path id="Trazado_137635" data-name="Trazado 137635" d="M110.666.826c0,.136.006.273,0,.409a.379.379,0,0,1-.409.409.386.386,0,0,1-.405-.418,8.074,8.074,0,0,1,0-.817.407.407,0,1,1,.814.008c.005.136,0,.273,0,.409" transform="translate(-77.621 0)" fill="#020202"/>
        <path id="Trazado_137636" data-name="Trazado 137636" d="M110.662,41.924c0,.136.005.273,0,.409a.405.405,0,0,1-.81.011,6.544,6.544,0,0,1,0-.858.407.407,0,1,1,.813.029c0,.136,0,.273,0,.409" transform="translate(-77.617 -29.035)" fill="#020202"/>
        <path id="Trazado_137637" data-name="Trazado 137637" d="M129.8,22.791c-.149-.007-.3,0-.448-.024a.376.376,0,0,1-.352-.424.36.36,0,0,1,.363-.371c.3-.013.6-.013.9,0a.4.4,0,0,1,.028.8,4.46,4.46,0,0,1-.489,0c0,.007,0,.013,0,.02" transform="translate(-91.156 -15.52)" fill="#050505"/>
        <path id="Trazado_137638" data-name="Trazado 137638" d="M88.784,21.967h.327c.274,0,.457.131.46.406a.394.394,0,0,1-.422.408c-.272.013-.545.012-.817,0a.39.39,0,0,1-.418-.41.382.382,0,0,1,.42-.4c.15,0,.3,0,.45,0" transform="translate(-62.127 -15.523)" fill="#050505"/>
        <path id="Trazado_137639" data-name="Trazado 137639" d="M124.359,36.859a.345.345,0,0,1-.264-.111c-.205-.2-.414-.4-.6-.609a.381.381,0,0,1,.016-.581.375.375,0,0,1,.551,0,8.894,8.894,0,0,1,.633.638.352.352,0,0,1,.055.419.416.416,0,0,1-.385.24" transform="translate(-87.177 -25.044)" fill="#020202"/>
        <path id="Trazado_137640" data-name="Trazado 137640" d="M124.776,6.826c-.049.293-.3.438-.487.63-.221.231-.466.574-.806.228s.011-.581.235-.81c.133-.136.268-.272.413-.394a.36.36,0,0,1,.422-.027.432.432,0,0,1,.224.372" transform="translate(-87.162 -4.522)" fill="#020202"/>
        <path id="Trazado_137641" data-name="Trazado 137641" d="M94.758,6.423a.319.319,0,0,1,.248.1c.223.219.453.434.659.669a.4.4,0,0,1-.553.563,7.7,7.7,0,0,1-.7-.688.367.367,0,0,1-.033-.424.379.379,0,0,1,.375-.218" transform="translate(-66.661 -4.538)" fill="#020202"/>
        <path id="Trazado_137642" data-name="Trazado 137642" d="M94.763,36.858a.4.4,0,0,1-.331-.659c.213-.229.432-.453.666-.661a.356.356,0,0,1,.487,0,.341.341,0,0,1,.128.466,3.528,3.528,0,0,1-.79.815.34.34,0,0,1-.159.04" transform="translate(-66.664 -25.045)" fill="#020202"/>
        <path id="Trazado_137643" data-name="Trazado 137643" d="M95.834,59.435c-.045.236-.156.411-.423.411s-.378-.175-.422-.411a.43.43,0,0,1,.4-.4c.257-.011.388.16.443.4" transform="translate(-67.126 -41.72)" fill="#040405"/>
        <path id="Trazado_137644" data-name="Trazado 137644" d="M17.651,119.355a2.055,2.055,0,0,1-.324,0,.353.353,0,0,1-.316-.438c.051-.4.365-.37.65-.372s.564.006.6.382a.355.355,0,0,1-.327.43,1.941,1.941,0,0,1-.283,0h0" transform="translate(-12.018 -83.77)" fill="#f7e4ae"/>
        <path id="Trazado_137645" data-name="Trazado 137645" d="M122.233,123.282a1.852,1.852,0,0,1,.285,0,.414.414,0,0,1,.364.427c.008.27-.321.418-.79.387-.3-.02-.5-.173-.481-.483.028-.4.356-.33.622-.333" transform="translate(-85.937 -87.116)" fill="#e8a71e"/>
        <path id="Trazado_137646" data-name="Trazado 137646" d="M99.463,119.668a.447.447,0,0,1,.35-.447c.243-.05.378.1.493.283,0,.231-.055.439-.319.5-.28.063-.429-.1-.524-.334" transform="translate(-70.287 -84.243)" fill="#040301"/>
        <path id="Trazado_137647" data-name="Trazado 137647" d="M32.2,35.883q-4.276,1.791-8.551,3.586c-.23.1-.349.113-.343-.195a46.626,46.626,0,0,1,.2-6.543,15.911,15.911,0,0,1,4.658-9.04c.317-.313.466-.312.789.012A15.937,15.937,0,0,1,33.785,34.91c.016.574-.471.474-.792.6a.673.673,0,0,1-.161-.57,14.961,14.961,0,0,0-3.889-9.915.836.836,0,0,0-.213-.19.264.264,0,0,0-.307-.006.268.268,0,0,0-.091.295,1.022,1.022,0,0,0,.272.451,14.477,14.477,0,0,1,3.6,8.31,10.476,10.476,0,0,1-.009,2" transform="translate(-16.458 -16.577)" fill="#fb5d3d"/>
        <path id="Trazado_137648" data-name="Trazado 137648" d="M28.569,84.882c.148.34.392.358.7.227.823-.349,1.649-.689,2.475-1.03.136-.056.279-.1.419-.145a.878.878,0,0,1,.106.591c0,1.038,0,2.075,0,3.112a1.242,1.242,0,0,0,.106.639c.126.219.318.217.432-.008a1.566,1.566,0,0,0,.11-.722q0-1.72,0-3.439a2.018,2.018,0,0,1,.048-.528l.728-.3c.158-.009.126.112.126.2,0,2.758,0,5.516.005,8.275,0,.3-.155.308-.367.239Q32.876,91.8,32.3,91.6a22.39,22.39,0,0,0-6.2-1.237,14.512,14.512,0,0,0-2.328-.011c-.3.032-.454-.058-.438-.4.037-.776-.03-1.554.033-2.331.829-.438,1.716-.742,2.575-1.111.29-.125.454-.286.4-.612.168-.262.452-.291.716-.362.522.252.575.232.787-.294a1.363,1.363,0,0,1,.726-.358" transform="translate(-16.484 -58.85)" fill="#fb5d3d"/>
        <path id="Trazado_137649" data-name="Trazado 137649" d="M27.063,75.48l-.722.31c-.186-.285-.425-.28-.711-.156-.661.287-1.332.55-1.993.837-.21.091-.313.118-.309-.177.011-1.132.006-2.265,0-3.4a.279.279,0,0,1,.19-.312q4.352-1.8,8.7-3.609a.6.6,0,0,1,.139.491c.007.962,0,1.924,0,2.886a.706.706,0,0,1-.131.5c-1.086.463-2.17.931-3.26,1.387-.251.105-.43.234-.4.535-.177.236-.482.236-.708.382-.528-.16-.528-.16-.8.322" transform="translate(-16.485 -48.744)" fill="#eee"/>
        <path id="Trazado_137650" data-name="Trazado 137650" d="M43.911,38.7a.894.894,0,0,1-.055-.482A14.351,14.351,0,0,0,40.629,28.9c-.177-.225-.374-.434-.562-.65s-.314-.48-.039-.71.48-.037.664.167a15.243,15.243,0,0,1,2.8,4.4,14.6,14.6,0,0,1,1.184,5.684c0,.177.022.353.034.53a2.539,2.539,0,0,1-.8.377" transform="translate(-28.171 -19.389)" fill="#fecac2"/>
        <path id="Trazado_137651" data-name="Trazado 137651" d="M23.292,87.544c.006.765.023,1.53.014,2.294,0,.269.078.378.351.336a14.418,14.418,0,0,1,3.377.075A19.188,19.188,0,0,1,30.988,91c.821.246,1.633.525,2.442.808.222.078.282.051.282-.189q-.008-4.079,0-8.158c0-.095.009-.194-.081-.261.036-.011.083-.041.105-.029.07.04.05.119.05.184-.021,2.989.044,5.978-.031,8.967-.007.279-.06.358-.352.244a23.942,23.942,0,0,0-5.789-1.533,17.719,17.719,0,0,0-3.916-.138c-.275.027-.438-.006-.438-.339a26.188,26.188,0,0,1,.036-3.016" transform="translate(-16.415 -58.775)" fill="#b15035"/>
        <path id="Trazado_137652" data-name="Trazado 137652" d="M54.256,84.3a.643.643,0,0,1,.058.358q0,1.946,0,3.892a3.284,3.284,0,0,1-.043.447.356.356,0,0,1-.388.339A.362.362,0,0,1,53.493,89a3.357,3.357,0,0,1-.037-.488q-.006-1.925,0-3.851a3.692,3.692,0,0,1,.8-.356" transform="translate(-37.772 -59.575)" fill="#fec8c0"/>
        <path id="Trazado_137653" data-name="Trazado 137653" d="M55.86,67.2c.862-.462.862-.462.862.476,0,.871-.02,1.743.01,2.613.012.361-.1.558-.444.639a4.217,4.217,0,0,0-.421.145.6.6,0,0,1-.137-.492c-.006-.961,0-1.922,0-2.883a.709.709,0,0,1,.131-.5" transform="translate(-39.38 -47.275)" fill="#ececec"/>
        <path id="Trazado_137654" data-name="Trazado 137654" d="M54.385,67.929q0,1.936.008,3.873a2.824,2.824,0,0,1-.745.311q0-1.939-.009-3.877a2.9,2.9,0,0,1,.746-.307" transform="translate(-37.905 -48.003)" fill="#fefefe"/>
        <path id="Trazado_137655" data-name="Trazado 137655" d="M111.594,101.415c-.275,0-.543.044-.645-.266a.358.358,0,0,1,.126-.441,1.006,1.006,0,0,1,.938-.037.346.346,0,0,1,.205.409c-.089.339-.366.36-.624.335" transform="translate(-78.386 -71.073)" fill="#f7e3ae"/>
        <path id="Trazado_137656" data-name="Trazado 137656" d="M87.8,108.7a.979.979,0,0,1-.263-.023.372.372,0,0,1-.156-.663.991.991,0,0,1,.956-.041.37.37,0,0,1,.17.457.358.358,0,0,1-.4.271c-.067-.007-.136,0-.306,0" transform="translate(-61.646 -76.229)" fill="#cf941c"/>
        <path id="Trazado_137657" data-name="Trazado 137657" d="M69.741,106.722c-.315.019-.564.018-.671-.278a.344.344,0,0,1,.182-.45.989.989,0,0,1,.9,0,.346.346,0,0,1,.191.413.383.383,0,0,1-.336.313,1.8,1.8,0,0,1-.265,0" transform="translate(-48.791 -74.826)" fill="#f7e3ae"/>
        <path id="Trazado_137658" data-name="Trazado 137658" d="M84.41,84.349a.772.772,0,0,1-.229-.019.483.483,0,0,1-.231-.149.328.328,0,0,1-.013-.444.964.964,0,0,1,.937-.175c.166.087.342.218.278.443a.442.442,0,0,1-.446.344h-.3" transform="translate(-59.258 -59.011)" fill="#cf941c"/>
        <path id="Trazado_137659" data-name="Trazado 137659" d="M105.516,70.707a2.232,2.232,0,0,1-.4-.029.361.361,0,0,1-.313-.366.352.352,0,0,1,.311-.406,3.1,3.1,0,0,1,.807-.009.384.384,0,0,1,.346.392.413.413,0,0,1-.383.4,2.223,2.223,0,0,1-.365,0v.011" transform="translate(-74.059 -49.378)" fill="#c3e4fd"/>
        <path id="Trazado_137660" data-name="Trazado 137660" d="M126.231,65.961c-.248.014-.6.044-.67-.378-.05-.288.249-.444.781-.443.553,0,.775.189.66.56-.067.215-.19.26-.771.26" transform="translate(-88.727 -46.033)" fill="#c4e4fd"/>
        <path id="Trazado_137661" data-name="Trazado 137661" d="M70.619,66.233c-.279.018-.657.018-.665-.4s.369-.426.7-.421c.493.006.762.154.752.427s-.258.395-.784.395" transform="translate(-49.434 -46.224)" fill="#c4e4fd"/>
        <path id="Trazado_137662" data-name="Trazado 137662" d="M10.146,82.19h.326c.186,0,.253.135.312.276a.325.325,0,0,1-.085.371.914.914,0,0,1-1.047.036.4.4,0,0,1-.131-.44.349.349,0,0,1,.38-.245c.081,0,.163,0,.245,0h0" transform="translate(-6.713 -58.079)" fill="#cf941c"/>
        <path id="Trazado_137663" data-name="Trazado 137663" d="M106.862,15.823a3.119,3.119,0,1,1-3.1-3.143,3.125,3.125,0,0,1,3.1,3.143" transform="translate(-71.108 -8.96)" fill="#fb5d3d"/>
        <path id="Trazado_137664" data-name="Trazado 137664" d="M8.94,66.23c-.375,0-.763.049-.763-.4,0-.419.361-.428.689-.425s.739-.031.744.409-.395.434-.67.413" transform="translate(-5.778 -46.222)" fill="#c4e4fd"/>
        <path id="Trazado_137665" data-name="Trazado 137665" d="M71.984,44.3a3.586,3.586,0,0,0-.673-.691,3.588,3.588,0,0,0,.654-.758,3.5,3.5,0,0,0,.634.749,2.574,2.574,0,0,0-.615.7" transform="translate(-50.393 -30.284)" fill="#ebbc1f"/>
        <path id="Trazado_137666" data-name="Trazado 137666" d="M54.3,104.984c-.038.241.011.507-.27.608a.349.349,0,0,1-.441-.111,1.055,1.055,0,0,1-.031-.977.334.334,0,0,1,.418-.171c.355.1.288.412.324.651" transform="translate(-37.777 -73.717)" fill="#fec9c1"/>
        <path id="Trazado_137667" data-name="Trazado 137667" d="M36.045,89.756c-.023-.229,0-.44.248-.542s.407.048.552.22a.443.443,0,0,1-.252.532c-.243.109-.4-.04-.547-.21" transform="translate(-25.467 -63.021)" fill="#050303"/>
      </g>
    </g>
  </g>
</svg>
