<svg id="Grupo_158987" data-name="Grupo 158987" xmlns="http://www.w3.org/2000/svg" width="210.166" height="435" viewBox="0 0 210.166 435">
  <g id="Grupo_157493" data-name="Grupo 157493" transform="translate(0 0)">
    <path id="Trazado_114544" data-name="Trazado 114544" d="M150.938,442.424c-28.067-12.768-57.174-30-68.478-58.808-12.545-31.976.586-67.785.271-102.156C82.48,254.23,73.7,227.935,66.8,201.6S54.825,147.3,61.949,121.028c4.769-17.587,14.9-33.5,27.975-46.125,23.028-22.234,56.206-34.266,87.731-29.18s60.163,28.255,69.379,58.99c13.057,43.545-12.448,90.028-7.028,135.181,2.121,17.668,8.909,34.376,13.512,51.56a212.318,212.318,0,0,1,7.213,56.1c-.172,28.984-7.478,59.908-28.983,79.209C210.057,446.228,177.776,454.633,150.938,442.424Z" transform="translate(-54.816 -44.565)" fill="#ffdfe0"/>
    <g id="Grupo_157496" data-name="Grupo 157496" transform="translate(0 25.921)">
      <g id="Grupo_83653" data-name="Grupo 83653" transform="translate(111.893 37.172)">
        <path id="Trazado_117567" data-name="Trazado 117567" d="M466.675,109.848s20.656,15.579,22.194,34.5c2.326,28.634-30.247,16.107-33.825-2.148S466.675,109.848,466.675,109.848Z" transform="translate(-454.498 -109.848)"/>
      </g>
      <g id="Grupo_83654" data-name="Grupo 83654" transform="translate(28.4 175.591)">
        <path id="Trazado_117568" data-name="Trazado 117568" d="M509.7,179.328l-10.839,33.885,16.238,1.909,6.465-28.4Z" transform="translate(-498.862 -179.328)" fill="#684c41"/>
      </g>
      <g id="Grupo_83662" data-name="Grupo 83662" transform="translate(25.136 154.114)">
        <path id="Trazado_117576" data-name="Trazado 117576" d="M573.412,190.369s18.508,54.981,26.414,101.52-2.141,106.59-15.989,116.529-92.1,47.693-128.169-10.38-12.152-181.667,7.069-213.586C477.782,159.469,573.412,190.369,573.412,190.369Z" transform="translate(-436.984 -174.699)" fill="#ffbf69"/>
      </g>
      <g id="Grupo_83663" data-name="Grupo 83663" transform="translate(41.743 64.005)">
        <path id="Trazado_117577" data-name="Trazado 117577" d="M555.563,240.253v14.383s-36.45,8.352-66.364,6.2-41.1-7.4-41.1-7.4l-12.714-73.02,38.22-53.786,31.255-2.53,76.207,55.242-18.611,50.47Z" transform="translate(-435.387 -124.106)" fill="#7772d3"/>
      </g>
      <g id="Grupo_83664" data-name="Grupo 83664" transform="translate(73.441)">
        <path id="Trazado_117578" data-name="Trazado 117578" d="M513.854,132.229a26.322,26.322,0,0,0,5.307-21c-1.456-8.655-5.307-11.456-5.307-11.456s5.865-11.812-11.6-11.095-27.734,9.289-27.734,9.289-7.981-3.919-11.561,5.386,0,23.036,0,23.036Z" transform="translate(-461.372 -88.647)"/>
      </g>
      <g id="Grupo_83665" data-name="Grupo 83665" transform="translate(74.377 94.088)">
        <path id="Trazado_117579" data-name="Trazado 117579" d="M521.86,204.523l-14.143-65.861H458.543l11.084,69.75Z" transform="translate(-458.543 -138.662)" fill="#ada095"/>
      </g>
      <g id="Grupo_83666" data-name="Grupo 83666" transform="translate(80.826 92.443)">
        <path id="Trazado_117580" data-name="Trazado 117580" d="M462.365,277.55c6.958,4.338,15.227,0,15.227,0a259.686,259.686,0,0,0,31.721-72.2c.172-.644.322-1.289.472-1.933a180.536,180.536,0,0,0,4.6-25.75c.086-.58.129-1.138.193-1.718.966-10.416,1.547-19.093,1.8-26.309h-8.011l-2.363-10.974h-5.734c-.215,3.436-.494,7.109-.88,10.974-.709,7.152-1.74,14.948-3.221,23.087a222.856,222.856,0,0,1-9.02,34.255q-.644,1.868-1.353,3.737c-18.148,47.742-27.039,53.455-27.039,53.455S454.741,272.761,462.365,277.55Z" transform="translate(-457.7 -138.662)" fill="#7c6053"/>
      </g>
      <g id="Grupo_83667" data-name="Grupo 83667" transform="translate(79.972 94.088)">
        <path id="Trazado_117581" data-name="Trazado 117581" d="M455.94,138.662l11.082,69.755,19.221-1.439,22.163-1.632,10.846-.816-.709-3.264-5.068-23.6-6.014-28.027L505.1,138.662Z" transform="translate(-455.94 -138.662)" fill="#c3b8ae"/>
      </g>
      <g id="Grupo_83668" data-name="Grupo 83668" transform="translate(107.9 104.515)">
        <path id="Trazado_117582" data-name="Trazado 117582" d="M501.531,189.589,489.12,143.773H447.046l11.894,55.252Z" transform="translate(-447.046 -143.773)" fill="#f4eab3"/>
      </g>
      <g id="Grupo_83669" data-name="Grupo 83669" transform="translate(114.334 104.515)">
        <path id="Trazado_117583" data-name="Trazado 117583" d="M444.05,143.772l4.961,23.087,6.916,32.172,6.7-1.482,9.664-2.148,26.244-5.82-12.413-45.809Z" transform="translate(-444.05 -143.772)" fill="#fefce5"/>
      </g>
      <g id="Grupo_83670" data-name="Grupo 83670" transform="translate(123.724 139.441)">
        <path id="Trazado_117584" data-name="Trazado 117584" d="M480.689,162.868s-15.783-1.634-19.123-1.634-7.837,7.839-7.837,7.839l-10.01,2.891,11.442,32.187s23.807,3.095,33.647-8.352C492.5,191.5,480.689,162.868,480.689,162.868Z" transform="translate(-443.72 -161.234)" fill="#f27e64"/>
      </g>
      <g id="Grupo_83671" data-name="Grupo 83671" transform="translate(111.218 65.641)">
        <path id="Trazado_117585" data-name="Trazado 117585" d="M424.8,124.773s29.915.715,60.22,26.01,43.43,50.349,37.225,72.3-45.1,22.907-45.1,22.907l-11.453-45.339,29.947-19.567Z" transform="translate(-424.798 -124.773)" fill="#7772d3"/>
      </g>
      <g id="Grupo_83672" data-name="Grupo 83672" transform="translate(91.047 141.445)">
        <path id="Trazado_117586" data-name="Trazado 117586" d="M453.862,169.336s9.308-4.972,13.842-6.157a26.1,26.1,0,0,1,7.529-.911l1.437,6.679s14.9,3.252,25.4,8.5,8.591,10.023,8.591,10.023,6.681,4.3,3.818,7.158-13.841,0-13.841,0,13.841,5.251,8.114,8.352-18.343,2.148-18.343,2.148-27.473,4.774-36.542-4.772S453.862,169.336,453.862,169.336Z" transform="translate(-449.832 -162.253)" fill="#ff9280"/>
      </g>
      <g id="Grupo_83676" data-name="Grupo 83676" transform="translate(87.592 48.947)">
        <g id="Grupo_83675" data-name="Grupo 83675" transform="translate(0)">
          <g id="Grupo_83674" data-name="Grupo 83674">
            <g id="Grupo_83673" data-name="Grupo 83673">
              <path id="Trazado_117587" data-name="Trazado 117587" d="M468.3,115.64l.535,21.313s4,6.031,16.492,6.733c9.308.522,12.13-4.323,12.13-4.323l-2.719-18.594-22.64-4.388Z" transform="translate(-468.296 -115.64)" fill="#f27e64"/>
            </g>
          </g>
        </g>
      </g>
      <g id="Grupo_83677" data-name="Grupo 83677" transform="translate(0 65.388)">
        <path id="Trazado_117588" data-name="Trazado 117588" d="M561.293,124.773s-51.782,1.909-77.792,43.668-5.489,79.463,35.316,87.1,62.043-3.58,62.043-3.58l-9.722-47.487-20.929-3.1-20.461-24.938Z" transform="translate(-471.942 -124.773)" fill="#7772d3"/>
      </g>
      <g id="Grupo_83678" data-name="Grupo 83678" transform="translate(123.397 68.846)">
        <path id="Trazado_117589" data-name="Trazado 117589" d="M457.6,153.593h5.734l2.362,10.974h8.011c1.16-30.54-2.9-35.071-2.9-35.071l-12.886-3.844A248.061,248.061,0,0,1,457.6,153.593Z" transform="translate(-457.603 -125.652)" fill="#7f6754"/>
      </g>
      <g id="Grupo_83682" data-name="Grupo 83682" transform="translate(87.591 56.669)">
        <g id="Grupo_83681" data-name="Grupo 83681" transform="translate(0)">
          <g id="Grupo_83680" data-name="Grupo 83680">
            <g id="Grupo_83679" data-name="Grupo 83679">
              <path id="Trazado_117590" data-name="Trazado 117590" d="M468.844,115.034a7.042,7.042,0,0,0,.67,2.042c5.036,10.526,21.932,14.535,27.309,14.881l-1.542-10.493Z" transform="translate(-468.844 -115.034)"/>
            </g>
          </g>
        </g>
      </g>
      <g id="Grupo_83686" data-name="Grupo 83686" transform="translate(72.169 6.794)">
        <g id="Grupo_83685" data-name="Grupo 83685">
          <g id="Grupo_83684" data-name="Grupo 83684">
            <g id="Grupo_83683" data-name="Grupo 83683">
              <path id="Trazado_117591" data-name="Trazado 117591" d="M509.281,99.412s11.855,26.444,7.819,41.4-17.654,12.74-25.813,9.935-11.984-7.757-11.984-7.757a11.468,11.468,0,0,1-12.721-4.366c-5.148-7.016-2.1-15.158,2.223-17.059s9.508,1.181,9.508,1.181L474.2,115.07S490.83,75.689,509.281,99.412Z" transform="translate(-463.885 -91.811)" fill="#f27e64"/>
            </g>
          </g>
        </g>
      </g>
      <g id="Grupo_83690" data-name="Grupo 83690" transform="translate(79.963 2.925)">
        <g id="Grupo_83689" data-name="Grupo 83689" transform="translate(0)">
          <g id="Grupo_83688" data-name="Grupo 83688">
            <g id="Grupo_83687" data-name="Grupo 83687">
              <path id="Trazado_117592" data-name="Trazado 117592" d="M472.724,124.815s11.419,2.3,19.352-10.4,7.2-17.926,7.2-17.926l7.906,13.12s1.766-9.1-1.873-14.9-7.414-4.6-7.414-4.6L472.719,96.4l-6.63,20.181Z" transform="translate(-466.09 -90.01)"/>
            </g>
          </g>
        </g>
      </g>
      <g id="Grupo_83691" data-name="Grupo 83691" transform="translate(113.522 35.542)">
        <path id="Trazado_117593" data-name="Trazado 117593" d="M470.913,117.76a.808.808,0,0,0,.771-.569c1.733-5.663-2.272-11.413-2.444-11.655a.806.806,0,1,0-1.314.932c.037.054,3.718,5.352,2.219,10.253a.8.8,0,0,0,.769,1.039Z" transform="translate(-467.777 -105.197)"/>
      </g>
      <g id="Grupo_83692" data-name="Grupo 83692" transform="translate(77.461 40.915)">
        <path id="Trazado_117594" data-name="Trazado 117594" d="M490.51,116.932a.806.806,0,0,0,.586-1.359l-7.235-7.624a.807.807,0,0,0-1.171,1.11l7.236,7.622A.8.8,0,0,0,490.51,116.932Z" transform="translate(-482.469 -107.699)"/>
      </g>
      <g id="Grupo_83693" data-name="Grupo 83693" transform="translate(77.056 45.737)">
        <path id="Trazado_117595" data-name="Trazado 117595" d="M484.511,112.329a.809.809,0,0,0,.122-.011l4.989-.771a.8.8,0,0,0,.67-.917.79.79,0,0,0-.919-.674l-4.987.771a.806.806,0,0,0,.125,1.6Z" transform="translate(-483.706 -109.945)"/>
      </g>
      <g id="Grupo_83694" data-name="Grupo 83694" transform="translate(102.464 47.747)">
        <path id="Trazado_117596" data-name="Trazado 117596" d="M474.814,119a14.746,14.746,0,0,0,4.725-.964.8.8,0,0,0,.206-1.385l-7.132-5.6a.805.805,0,0,0-1.211.264c-.086.165-2.068,4.08.116,6.507A4.3,4.3,0,0,0,474.814,119Zm2.736-2.025c-1.647.425-3.95.752-4.836-.23-.943-1.05-.6-2.728-.255-3.767Z" transform="translate(-470.496 -110.881)"/>
      </g>
      <g id="Grupo_83695" data-name="Grupo 83695" transform="translate(116.25 23.931)">
        <path id="Trazado_117597" data-name="Trazado 117597" d="M471.1,102.219a.806.806,0,0,0,.137-1.6l-4.716-.82a.807.807,0,0,0-.277,1.589l4.718.82A1.019,1.019,0,0,0,471.1,102.219Z" transform="translate(-465.582 -99.79)"/>
      </g>
      <g id="Grupo_83696" data-name="Grupo 83696" transform="translate(101.364 23.931)">
        <path id="Trazado_117598" data-name="Trazado 117598" d="M471.914,105.317a.8.8,0,0,0,.365-.088l7.734-3.917a.8.8,0,1,0-.73-1.435l-7.734,3.915a.806.806,0,0,0,.365,1.525Z" transform="translate(-471.108 -99.789)"/>
      </g>
      <g id="Grupo_83697" data-name="Grupo 83697" transform="translate(57.805 37.114)">
        <path id="Trazado_117599" data-name="Trazado 117599" d="M494.482,109.848s-16.468,14.275-14.142,37.541,25.4,20.28,30.243,11.791c7.341-12.864-.685-36.888-.685-36.888S495.751,124.66,494.482,109.848Z" transform="translate(-480.114 -109.848)"/>
      </g>
      <g id="Grupo_83698" data-name="Grupo 83698" transform="translate(119.494 29.053)">
        <path id="Trazado_117600" data-name="Trazado 117600" d="M467.86,110.382a.829.829,0,0,0,.236-.037.8.8,0,0,0,.533-1.005l-1.346-4.383,1.2-1.467a.8.8,0,1,0-1.246-1.018l-1.473,1.8a.8.8,0,0,0-.146.745l1.473,4.794A.8.8,0,0,0,467.86,110.382Z" transform="translate(-465.582 -102.176)"/>
      </g>
      <g id="Grupo_83699" data-name="Grupo 83699" transform="translate(106.079 29.767)">
        <path id="Trazado_117601" data-name="Trazado 117601" d="M473.845,111.287a.826.826,0,0,0,.236-.034.806.806,0,0,0,.533-1.007l-1.342-4.37,1.746-2.038a.805.805,0,1,0-1.224-1.046l-2.034,2.375a.8.8,0,0,0-.157.758l1.473,4.794A.8.8,0,0,0,473.845,111.287Z" transform="translate(-471.567 -102.509)"/>
      </g>
      <g id="Grupo_83700" data-name="Grupo 83700" transform="translate(132.929 144.21)">
        <path id="Trazado_117602" data-name="Trazado 117602" d="M453.817,167.65a.748.748,0,0,0,.152-.015L469,164.773a.8.8,0,0,0,.638-.943.793.793,0,0,0-.941-.638l-15.033,2.863a.8.8,0,0,0,.15,1.6Z" transform="translate(-453.012 -163.175)"/>
      </g>
      <g id="Grupo_83701" data-name="Grupo 83701" transform="translate(108.71 145.551)">
        <path id="Trazado_117603" data-name="Trazado 117603" d="M476.566,167.928a.8.8,0,0,0,.23-1.576l-8.371-2.476a.8.8,0,0,0-.456,1.544l8.37,2.476A.827.827,0,0,0,476.566,167.928Z" transform="translate(-467.392 -163.843)"/>
      </g>
      <g id="Grupo_83702" data-name="Grupo 83702" transform="translate(129.112 158.539)">
        <path id="Trazado_117604" data-name="Trazado 117604" d="M473.987,178.17a.806.806,0,0,0,.224-1.581l-21.32-6.159a.805.805,0,0,0-.449,1.546l21.32,6.162A.831.831,0,0,0,473.987,178.17Z" transform="translate(-451.862 -170.398)"/>
      </g>
      <g id="Grupo_83703" data-name="Grupo 83703" transform="translate(129.112 168.344)">
        <path id="Trazado_117605" data-name="Trazado 117605" d="M469.735,180.809a.805.805,0,0,0,.225-1.579L456.6,175.319a.8.8,0,1,0-.451,1.544l13.36,3.913A.759.759,0,0,0,469.735,180.809Z" transform="translate(-455.567 -175.287)"/>
      </g>
      <g id="Grupo_83704" data-name="Grupo 83704" transform="translate(90.561 70.462)">
        <path id="Trazado_117606" data-name="Trazado 117606" d="M481.784,132.149a19.914,19.914,0,0,0,12.877-4.45.806.806,0,0,0-1.108-1.17c-.38.361-9.546,8.719-24.431.365a.805.805,0,0,0-.788,1.4A27.337,27.337,0,0,0,481.784,132.149Z" transform="translate(-467.922 -126.312)" fill="#fff"/>
      </g>
      <g id="Grupo_83705" data-name="Grupo 83705" transform="translate(32.704 132.742)">
        <path id="Trazado_117607" data-name="Trazado 117607" d="M531.4,164.672a.806.806,0,0,0,.157-1.6c-.284-.058-28.557-5.623-44.914-5.623a.805.805,0,0,0,0,1.611c16.2,0,44.319,5.535,44.6,5.59A.818.818,0,0,0,531.4,164.672Z" transform="translate(-485.839 -157.454)" fill="#fff"/>
      </g>
      <g id="Grupo_83706" data-name="Grupo 83706" transform="translate(35.814 122.633)">
        <path id="Trazado_117608" data-name="Trazado 117608" d="M515.569,166.515a.8.8,0,0,0,.636-1.3c-1.233-1.585-12.22-15.4-18.023-12.312a2.014,2.014,0,0,0-1.254,1.926c.187,3.846,14.08,9.871,18.336,11.625A.8.8,0,0,0,515.569,166.515ZM500.1,154.057c3.269,0,8.745,5.017,12.735,9.6-7.285-3.251-14.215-7.214-14.3-8.908,0-.049-.011-.2.4-.425A2.426,2.426,0,0,1,500.1,154.057Z" transform="translate(-496.924 -152.455)" fill="#fff"/>
      </g>
      <g id="Grupo_83707" data-name="Grupo 83707" transform="translate(162.708 118.983)">
        <path id="Trazado_117609" data-name="Trazado 117609" d="M438.319,164.346a.8.8,0,0,0,.58-.247c.095-.1,9.535-9.823,18.15-11.889a.806.806,0,0,0-.378-1.568c-9.071,2.18-18.534,11.928-18.933,12.34a.8.8,0,0,0,.024,1.138A.789.789,0,0,0,438.319,164.346Z" transform="translate(-437.512 -150.62)" fill="#fff"/>
      </g>
      <g id="Grupo_83708" data-name="Grupo 83708" transform="translate(171.981 112.454)">
        <path id="Trazado_117610" data-name="Trazado 117610" d="M439.971,159.936a.807.807,0,0,0,.567-.234c.631-.625,6.151-6.207,5.953-9.791a2.752,2.752,0,0,0-1.044-2.075,1.945,1.945,0,0,0-2.008-.365c-2.669,1.076-3.941,9.115-4.267,11.552a.805.805,0,0,0,.8.913Zm4.158-10.992a.534.534,0,0,1,.316.153,1.152,1.152,0,0,1,.438.9c.1,1.737-1.942,4.568-3.685,6.61.715-3.737,1.843-7.24,2.843-7.646A.221.221,0,0,1,444.128,148.944Z" transform="translate(-439.165 -147.333)" fill="#fff"/>
      </g>
      <g id="Grupo_83711" data-name="Grupo 83711" transform="translate(77.861 214.73)">
        <path id="Trazado_117613" data-name="Trazado 117613" d="M497.748,207.609s3.548,54.877.863,57.74-16.079,3.818-16.079,3.818l-7.641-28.158,16.262-41.4Z" transform="translate(-474.89 -199.605)" fill="#684c41"/>
      </g>
      <g id="Grupo_83713" data-name="Grupo 83713" transform="translate(8.357 196.005)">
        <path id="Trazado_117615" data-name="Trazado 117615" d="M568.125,210.781s-4.693,38.419-7.079,38.419-83.043-14.8-84.952-16.7,4.772-41.52,8.114-42.476,78.748,12.886,78.748,12.886Z" transform="translate(-475.757 -189.973)" fill="#7c6053"/>
      </g>
      <g id="Grupo_83714" data-name="Grupo 83714" transform="translate(8.083 232.011)">
        <path id="Trazado_117616" data-name="Trazado 117616" d="M484.693,207.995s-7.355,33.409-5.588,34.839,73.774,16.7,77.146,16.7,8.621-41.52,8.621-41.52Z" transform="translate(-478.831 -207.995)" fill="#7c6053"/>
      </g>
      <g id="Grupo_83715" data-name="Grupo 83715" transform="translate(14.094 237.44)">
        <path id="Trazado_117617" data-name="Trazado 117617" d="M547.935,223.663a.806.806,0,0,0,.159-1.6l-59.479-11.984a.787.787,0,0,0-.949.629.8.8,0,0,0,.629.949l59.479,11.984A.7.7,0,0,0,547.935,223.663Z" transform="translate(-487.649 -210.062)" fill="#fff"/>
      </g>
      <g id="Grupo_83716" data-name="Grupo 83716" transform="translate(86.786 212.598)">
        <path id="Trazado_117618" data-name="Trazado 117618" d="M482.561,206.691a4.581,4.581,0,1,0-4.581-4.581A4.587,4.587,0,0,0,482.561,206.691Zm0-7.551a2.97,2.97,0,1,1-2.97,2.97A2.976,2.976,0,0,1,482.561,199.14Z" transform="translate(-477.98 -197.529)" fill="#fff"/>
      </g>
    </g>
  </g>
</svg>
