<svg xmlns="http://www.w3.org/2000/svg" width="250.249" height="403.428" viewBox="0 0 250.249 403.428">
  <g id="Grupo_158534" data-name="Grupo 158534" transform="translate(6.022 -25)">
    <g id="Grupo_157493" data-name="Grupo 157493" transform="translate(31.362 25)">
      <path id="Trazado_114544" data-name="Trazado 114544" d="M151.166,442.293C123.03,429.529,93.851,412.307,82.519,383.5c-12.576-31.965.588-67.763.271-102.123-.251-27.22-9.048-53.507-15.97-79.828S54.815,147.265,61.957,121C66.738,103.422,76.892,87.515,90,74.893c23.085-22.227,56.345-34.254,87.947-29.171s60.311,28.245,69.55,58.97c13.089,43.531-12.479,90-7.045,135.136,2.126,17.662,8.931,34.364,13.546,51.543a211.691,211.691,0,0,1,7.231,56.078c-.172,28.974-7.5,59.888-29.055,79.183C210.431,446.1,178.07,454.5,151.166,442.293Z" transform="translate(-53.181 -44.565)" fill="#e1e8ff"/>
      <g id="Grupo_158989" data-name="Grupo 158989" transform="translate(-376.735 -49.212)">
        <g id="Layer_3" data-name="Layer 3" transform="translate(339.35 103.484)">
          <path id="Trazado_115817" data-name="Trazado 115817" d="M669.216,996.908c-.124-3.914-.252-7.83-.429-11.744-.356-7.916-.909-15.833-2.021-23.683-1.862-13.142-6.758-24.837-10.183-37.526a146.354,146.354,0,0,1-3.237-15.278,175.142,175.142,0,0,1-2.041-28.93c.082-9.5.769-19.086,4.1-28.064,1.811-4.88,3.821-11,7.788-14.581.628-.566,1.743-1.19,2.26-1.72,0,0,0-.009,0-.014.2-.15.387-.3.569-.469.136-.878.3-1.753.432-2.642.011-.067.02-.136.029-.2-2.049-.165-4.312,1.316-6.115,2.1-4.295,1.868-8.7,3.464-12.985,5.374-1.97.879-3.969,1.8-5.893,2.736-1.878.913-3.354,2.451-5.241,3.37-2.109,1.027-4.223,2.043-6.367,3-1.621.726-3.248,1.444-4.864,2.187a45.007,45.007,0,0,0,4.471,8.888c-.057.2-.115.4-.177.6-1.592,5.062-4.7,9.433-6.815,14.263-.52,1.185-.955,2.395-1.386,3.6l0,0c.971.529,1.01,1.712,1.34,2.733,2.735,8.474-1.749,13.369-2.981,21.3-.988,6.349,1.386,12.089,1.123,18.287-.17,4-2.391,7.426-3.419,11.2a41.613,41.613,0,0,0-1.024,5.15c-2.3,16.545-6.019,33-9.259,49.416-.776,3.932-1.448,8.179-2.463,12.332l.009,0c1.044,12.695,1.178,25.68,1.081,38.51h63.615c.279-5.734.489-11.472.506-17.213C669.674,1012.168,669.461,1004.608,669.216,996.908Zm-14.049-22.214c-.918-2.052.29-4.794,2.676-4.96a3.323,3.323,0,0,1,2.7.679c1.964,1.535,1.139,4.044-.234,5.672S655.893,976.314,655.167,974.693Zm7.381,38.324c-1.362,1.614-4.414.23-5.139-1.391-.918-2.054.29-4.794,2.673-4.96a3.321,3.321,0,0,1,2.7.679C664.747,1008.88,663.92,1011.39,662.549,1013.017Z" transform="translate(-552.281 -688.701)" fill="#ff5f65"/>
          <path id="Trazado_115818" data-name="Trazado 115818" d="M639.8,399.408a1.059,1.059,0,0,1,.117,1.7,2.623,2.623,0,0,1-2.124.485c-1.057-.144-2.159-.214-3.219-.266-1.251-.062-2.507-.069-3.761-.112-.91-.032-2.514.139-3.246-.527-.928-.848-.134-1.676.843-1.88a11.152,11.152,0,0,1,2.7.042c.644.025,1.3.057,1.953.08,1.39.047,2.783.025,4.174.037A4.8,4.8,0,0,1,639.8,399.408Z" transform="translate(-570.534 -340.642)" fill="#ffbc3b"/>
          <path id="Trazado_115819" data-name="Trazado 115819" d="M612.409,299.626c1.184.075,1.1,1.375.376,1.962-.1.4-.721.5-1.04.744-.478.356-3.084,2.375-3.49,2.808a7.481,7.481,0,0,1-1.231.893c-.567.406-2.45,1.841-3.054.726a1.129,1.129,0,0,1,.122-1.06,4.483,4.483,0,0,1,1.781-1.47,5.625,5.625,0,0,0,1.741-1.313c.416-.517,3.064-2.355,3.569-2.763A1.841,1.841,0,0,1,612.409,299.626Z" transform="translate(-551.837 -261.034)" fill="#ffbc3b"/>
          <path id="Trazado_115820" data-name="Trazado 115820" d="M608.04,475.484a1.059,1.059,0,0,1-1.114,1.291,2.622,2.622,0,0,1-1.853-1.149c-.649-.846-1.381-1.671-2.1-2.455-.846-.925-1.734-1.813-2.591-2.726-.624-.664-1.885-1.669-1.935-2.659-.065-1.256,1.084-1.286,1.92-.741a11.1,11.1,0,0,1,1.89,1.928c.44.475.885.958,1.331,1.433.955,1.012,1.96,1.975,2.94,2.965A4.834,4.834,0,0,1,608.04,475.484Z" transform="translate(-547.47 -395.245)" fill="#ffbc3b"/>
          <path id="Trazado_115821" data-name="Trazado 115821" d="M567.446,406.583c.288,1.811-1.8,1.749-3.119,1.671a6.614,6.614,0,0,1,1.564-2.089C566.541,405.6,567.287,405.579,567.446,406.583Z" transform="translate(-520.064 -346.302)" fill="#ffbc3b"/>
          <path id="Trazado_115822" data-name="Trazado 115822" d="M527.875,508.968c0,.055-.187-.027-.288-.062-.194-.062-.4-.137-.585-.214a7.851,7.851,0,0,0-1.224-.428c-2.146-.507-4.283-1.276-6.382-1.945h-.06c0-.6.03-1.209-.01-1.8-.025-.381-.167-.811-.182-1.219l.032,0a31.971,31.971,0,0,0,4.223,1.627,24.579,24.579,0,0,1,4.151,1.366c.167.084.388.3.555.246h.072a14.953,14.953,0,0,1-.186,2.452Z" transform="translate(-483.771 -424.635)" fill="#dedede"/>
          <path id="Trazado_115823" data-name="Trazado 115823" d="M528.368,521.244c.1.035.288.117.288.062l.117.02c-.035.211-.077.423-.127.632a6.872,6.872,0,0,1-.575,1.831,4.977,4.977,0,0,1-.3.468l-.022-.015c-.567-.229-1.147-.557-1.746-.754-1.871-.612-3.758-1.433-5.569-2.2l-.2,0a13.26,13.26,0,0,0-.06-1.637,7.8,7.8,0,0,1-.062-.995h.06c2.1.669,4.236,1.438,6.382,1.945a7.848,7.848,0,0,1,1.224.428C527.97,521.107,528.174,521.182,528.368,521.244Z" transform="translate(-484.553 -436.973)" fill="#dedede"/>
          <path id="Trazado_115824" data-name="Trazado 115824" d="M519.141,423.272h-.027c-.149-2.156-.826-4.243-1.154-6.387a42.148,42.148,0,0,0-1.6-8.121,12.011,12.011,0,0,0-.517-1.209l.44-.025a5.742,5.742,0,0,0,1.537-.386,4.383,4.383,0,0,0,1.425-.948,6.5,6.5,0,0,0,1.184-1.137c.032-.05.065-.1.1-.154a5.8,5.8,0,0,0,2.88,2.238,5.7,5.7,0,0,0,1.537.386l.438.025a11.483,11.483,0,0,0-.515,1.209,41.991,41.991,0,0,0-1.6,8.121c-.3,1.94-.992,3.922-1.007,5.892,0,.181.027.366.03.547C521.237,423.331,520.178,423.3,519.141,423.272Z" transform="translate(-481.12 -345.602)" fill="#ffbc3b"/>
          <path id="Trazado_115825" data-name="Trazado 115825" d="M528.249,534.975l.022.015a4.649,4.649,0,0,1-.871.928,4.248,4.248,0,0,1-3.077.617,4.062,4.062,0,0,1-2.858-1.888,4.587,4.587,0,0,1-.657-1.681,6.285,6.285,0,0,1-.072-.943l.2,0c1.811.769,3.7,1.589,5.569,2.2C527.1,534.418,527.682,534.746,528.249,534.975Z" transform="translate(-485.051 -447.707)" fill="#dedede"/>
          <path id="Trazado_115826" data-name="Trazado 115826" d="M535.977,381.194a6.036,6.036,0,0,1-.719,3.189,6.5,6.5,0,0,1-1.01-2.492c-.132-.721-.132-2.047.634-2.47S535.969,380.786,535.977,381.194Z" transform="translate(-495.85 -325.079)" fill="#ffbc3b"/>
          <path id="Trazado_115827" data-name="Trazado 115827" d="M533.264,253.662c.249.321-.047.878-.057,1.276-.013.6-.03,3.892.062,4.477a7.442,7.442,0,0,1-.055,1.522c-.03.7-.06,3.062-1.311,2.853a1.122,1.122,0,0,1-.759-.749,4.456,4.456,0,0,1-.06-2.308,5.687,5.687,0,0,0,.037-2.179c-.152-.647.035-3.868.025-4.514a1.844,1.844,0,0,1,.338-1.293C532.277,251.861,533.244,252.732,533.264,253.662Z" transform="translate(-493.264 -223.084)" fill="#ffbc3b"/>
          <path id="Trazado_115828" data-name="Trazado 115828" d="M532.484,498.253c-.008.027,0,.042-.022.07,0-.022,0-.047,0-.07Z" transform="translate(-494.464 -420.584)" fill="#8cc295"/>
          <path id="Trazado_115829" data-name="Trazado 115829" d="M471.977,358.041l-.231.117-.057-.174a10.761,10.761,0,0,0-1.1-2.241c-1.137-1.744-3.037-2.549-4.586-3.82a17.9,17.9,0,0,1-6.293-12.725c-.4-7.837,5.576-15.244,13.613-15.426,3.51-.08,7.449.674,10.3,2.773a15.927,15.927,0,0,1,5.639,18.418,17.055,17.055,0,0,1-2.512,4.611c-1.149,1.5-2.855,2.415-4.029,3.845-1.067,1.3-2.557,2.6-2.7,4.382l-.02.189-.107.042c-.888.08-1.793.109-2.706.115,0-.182-.03-.366-.03-.547.015-1.97.711-3.952,1.007-5.892a41.976,41.976,0,0,1,1.6-8.121,11.456,11.456,0,0,1,.515-1.209c1.321.077,3.407.139,3.119-1.671-.159-1-.905-.98-1.554-.418a6.613,6.613,0,0,0-1.565,2.089l-.438-.025a5.7,5.7,0,0,1-1.537-.386,5.8,5.8,0,0,1-2.88-2.238,6.037,6.037,0,0,0,.719-3.189c-.008-.408-.319-2.2-1.095-1.773s-.766,1.748-.634,2.47a6.5,6.5,0,0,0,1.01,2.492c-.032.052-.065.1-.1.154a6.5,6.5,0,0,1-1.184,1.137,4.384,4.384,0,0,1-1.425.948,5.741,5.741,0,0,1-1.537.386l-.44.025a6.615,6.615,0,0,0-1.564-2.089c-.649-.562-1.393-.587-1.555.418-.289,1.811,1.8,1.749,3.119,1.671a12.01,12.01,0,0,1,.517,1.209,42.156,42.156,0,0,1,1.6,8.121c.328,2.144,1,4.231,1.154,6.387C473.32,358.076,472.641,358.054,471.977,358.041Z" transform="translate(-436.016 -280.427)" fill="#ffbc3b"/>
          <path id="Trazado_115830" data-name="Trazado 115830" d="M519.17,498.819l-.032,0a1.1,1.1,0,0,1,.356-.933l.231-.117c.664.012,1.343.035,2.032.055,0,.022,0,.047.005.07.027-.027.015-.042.022-.07,1.037.03,2.1.06,3.151.052.913-.005,1.818-.035,2.706-.114l.107-.042c.408.261.428.858.428,1.291,0,.59-.032,1.172-.02,1.766.01.425.017.853.015,1.279H528.1c-.167.057-.388-.162-.555-.246a24.579,24.579,0,0,0-4.151-1.366A31.958,31.958,0,0,1,519.17,498.819Z" transform="translate(-483.763 -420.157)" fill="#dedede"/>
          <path id="Trazado_115831" data-name="Trazado 115831" d="M501.437,406.166A6.614,6.614,0,0,1,503,408.255c-1.321.077-3.407.139-3.119-1.671C500.044,405.579,500.788,405.6,501.437,406.166Z" transform="translate(-468.277 -346.302)" fill="#ffbc3b"/>
          <path id="Trazado_115832" data-name="Trazado 115832" d="M433.849,467.044c.838-.545,1.985-.515,1.923.741-.05.99-1.311,1.995-1.935,2.659-.861.913-1.746,1.8-2.594,2.726-.714.784-1.447,1.609-2.1,2.455a2.623,2.623,0,0,1-1.85,1.149,1.061,1.061,0,0,1-1.117-1.291,4.839,4.839,0,0,1,1.512-2.114c.98-.99,1.985-1.953,2.94-2.965.445-.475.891-.958,1.331-1.433A11.07,11.07,0,0,1,433.849,467.044Z" transform="translate(-409.073 -395.245)" fill="#ffbc3b"/>
          <path id="Trazado_115833" data-name="Trazado 115833" d="M412.2,310.008c.689.724.866,1.858-.378,2.025-.983.129-2.2-.925-2.967-1.418-1.055-.679-2.089-1.388-3.154-2.052-.9-.562-1.846-1.132-2.8-1.614a2.635,2.635,0,0,1-1.47-1.612,1.061,1.061,0,0,1,1.067-1.331,4.822,4.822,0,0,1,2.355,1.1c1.152.784,2.281,1.594,3.452,2.348.547.353,1.1.7,1.649,1.047A11.233,11.233,0,0,1,412.2,310.008Z" transform="translate(-389.185 -264.554)" fill="#ffbc3b"/>
          <path id="Trazado_115834" data-name="Trazado 115834" d="M391.46,398.809c.98.2,1.773,1.032.843,1.88-.731.667-2.333.495-3.243.527-1.254.042-2.51.05-3.763.112-1.06.052-2.159.122-3.216.266a2.629,2.629,0,0,1-2.127-.485,1.061,1.061,0,0,1,.117-1.7,4.808,4.808,0,0,1,2.564-.44c1.39-.012,2.783.01,4.174-.037.652-.022,1.306-.055,1.953-.08A11.134,11.134,0,0,1,391.46,398.809Z" transform="translate(-371.666 -340.642)" fill="#ffbc3b"/>
          <path id="Trazado_115835" data-name="Trazado 115835" d="M934.951,755.612l0-.128c5.745-.19,12.454-3.531,17.392-7.375l.1.13c-.21,1.661-.111,3.485-.234,4.976a56.21,56.21,0,0,0-.175,8.885c-3.412.206-6.713,1.082-10.245.8a43.145,43.145,0,0,1-11.841-2.771,38.148,38.148,0,0,1-8.894-5.442,41.39,41.39,0,0,1-4.982-4.821c-.287-.3-.591-.705-.911-1.114,1.875,1.053,3.786,2.052,5.727,3.069a37.044,37.044,0,0,0,7.527,2.782A28.462,28.462,0,0,0,934.951,755.612Z" transform="translate(-801.879 -621.281)" fill="#e39476"/>
          <path id="Trazado_115836" data-name="Trazado 115836" d="M866.406,1532.448c1.964,1.535,1.139,4.044-.234,5.672s-4.414.23-5.139-1.391c-.918-2.052.29-4.794,2.676-4.96A3.324,3.324,0,0,1,866.406,1532.448Z" transform="translate(-758.147 -1250.737)" fill="#37628f"/>
          <path id="Trazado_115837" data-name="Trazado 115837" d="M1161.776,1037.255h-52.054c.073-7.976.177-16.01-.533-23.918a172.2,172.2,0,0,1-.776-20.006c.148-5.486-.288-11.048-.1-16.574.205-6.181,1.535-12.328,1.789-18.535a79.6,79.6,0,0,1,1.966-13.633c1.123-5.192,1.053-10.541,2.472-15.72,1.435-5.23,2.956-10.429,3.993-15.784.944-4.872,1.526-9.785,2.523-14.632a91.128,91.128,0,0,0,.524-33.176c-.522-3.231-.748-6.444-1.548-9.637-1.568-6.247-4.416-12.339-9.3-16.682-1.8-1.605-4.274-2.382-6.037-3.874-.164-.873-.356-1.742-.515-2.627-.013-.066-.024-.135-.035-.2,2.043-.23,4.352,1.179,6.178,1.9,4.352,1.732,8.81,3.186,13.148,4.96,2,.816,4.025,1.674,5.977,2.548,1.906.853,3.43,2.344,5.345,3.2,2.141.96,4.286,1.908,6.459,2.8a109.983,109.983,0,0,1,13.626,6.24c5.749,3.335,11.154,6.669,15.731,11.614,4.277,4.622,7.68,10.72,10.636,16.242a128.653,128.653,0,0,1,7.965,19.5,37.45,37.45,0,0,1,1.632,4.838c.581,3.1.792,6.336,1.26,9.471q.8,5.317,1.453,10.656c.9,7.235,1.623,14.491,2.251,21.753.8,9.261.7,18.579,1.694,27.825.971,9.058,4.5,17.184,6.03,26.071.989,5.765-.163,11.547-.539,17.31-.2,3.1.94,6.105.9,9.195-.035,2.974-.834,5.882-.916,8.868Z" transform="translate(-953.676 -688.853)" fill="#ff5f65"/>
          <path id="Trazado_115838" data-name="Trazado 115838" d="M525.531,683.263c-.312-1.47-.5-2.952-.778-4.449-.292-1.581-.648-3.151-1-4.719-1.488-6.55-2.609-12.66-.544-19.223,1.855-5.893,5.073-11.3,6.481-17.341.966-4.144.736-8.308.6-12.531-.168-5.177.1-10.371.133-15.548.022-3.624-.4-8.892,3.191-11.092a2.435,2.435,0,0,1,2.727-.144c3.107,1.4,3.691,6,3.826,8.938.376,8.239.066,16.448.033,24.694,0,.447.082.723.1,1.13a10.214,10.214,0,0,1,3.35.409c4.805,1.449,8.071,5.719,11.021,9.575.67-2.817,2.233-6.227,5.179-7.218a3.616,3.616,0,0,1,2.552-.186,5.594,5.594,0,0,1,3.242,2.663c1.393,2.848-.046,6.4-.674,9.261a27.111,27.111,0,0,0-.951,5.977c.009,2.244.383,4.467.438,6.709.044,1.822.035,3.66-.1,5.486a29,29,0,0,1-1.192,6.556c-1.592,5.062-4.7,9.433-6.815,14.263-.52,1.185-.955,2.395-1.386,3.6-1.252,3.481-2.472,6.873-5.652,9.31-4.188,3.213-9.792,2.158-14.046-.338a21.592,21.592,0,0,1-6.043-5.28,6.808,6.808,0,0,1-1.506-3.439c-.347-1.862-1.25-3.644-1.78-5.46C525.774,684.331,525.644,683.8,525.531,683.263Z" transform="translate(-486.125 -500.6)" fill="#f5b49b"/>
          <path id="Trazado_115839" data-name="Trazado 115839" d="M974.622,607.765c.986,2.428-1.157,5.159-2.76,6.808a11.731,11.731,0,0,1-10.01,3.821,12.7,12.7,0,0,1-5.765-1.988,17.26,17.26,0,0,1-4.46-4.045c-.938-1.269-1.678-3.578-.626-5a4.386,4.386,0,0,1,3.945-1.444c1.292.133,2.618.153,3.914.246a31.138,31.138,0,0,0,3.633-.018c1.586-.073,3.182.007,4.759-.2,1.44-.188,2.848-.785,4.314-.467A3.921,3.921,0,0,1,974.622,607.765Z" transform="translate(-830.247 -506.639)" fill="#fff"/>
          <path id="Trazado_115840" data-name="Trazado 115840" d="M733.274,185.6c-.223-1.568-.4-3.14-.586-4.7a27.367,27.367,0,0,0-.876-5.112c-1.064-3.328-3.12-6.227-4.252-9.528a13.11,13.11,0,0,1-.812-4.608c.027-1.789.263-3.567.418-5.349a60.07,60.07,0,0,1,1.577-8.823c.918-3.826,2.3-7.779,1.882-11.753-.049-.46-.108-.918-.166-1.378-.38-3,.632-5.221,2-7.8a23.24,23.24,0,0,1,9.318-9.8c4.447-2.333,9.878-3.12,14.524-5.137a40.24,40.24,0,0,0,5.747-3.087c.75-.484,1.32-1.108,2.109-1.517,1.19-.617,2.45-1.119,3.673-1.643a21.325,21.325,0,0,1,4.6-1.4,33.032,33.032,0,0,1,14.656.78c4.584,1.316,9.345,4.122,10.479,9.111.292,1.283,1.252,1.161,2.417,1.161a14.773,14.773,0,0,1,10.2,1.681c4.458,2.441,5.964,6.68,8.363,10.816,2.13,3.673,5.11,6.742,7.72,10.064,3.319,4.228,5.847,9,5.024,14.539a42.125,42.125,0,0,0-.7,7.591c.08,2.634-1.176,5.617-1.833,8.142a38,38,0,0,1-1.223,4.949,26.377,26.377,0,0,0-1.608,11.494c.011.285.025.571.042.858a25.828,25.828,0,0,1-.088,3.147,8.076,8.076,0,0,1-.387,2.191c-.223.617-.741,1.566-1.493,1.678-2.457.363-1.986-6.773-2.023-8.087-.124-4.336-.891-9.186-3.388-12.857a20.086,20.086,0,0,1-2.623-6.554,30.69,30.69,0,0,1-.743-7.348c0-3.938.29-7.914-1.82-11.494-1.928-3.273-5.889-4.719-9.5-4.989-.867-.066-1.417-.011-2.267-.062-5.847-.352-11.6.051-17.042,2.335a13.407,13.407,0,0,1-5.444.98c-4.765-.086-9.274-1.99-13.889-2.959a23.888,23.888,0,0,0-6.725-.433c-2.379.163-4.765.312-6.742,1.833A11.2,11.2,0,0,0,748.105,148a21.492,21.492,0,0,0-.9,4.527c-.192,1.922.363,3.75.2,5.654a23.311,23.311,0,0,1-2.492,9.444c-.416.767-.7,1.588-1.053,2.384a13.3,13.3,0,0,1-1.227,1.9A26.615,26.615,0,0,0,740,176.327c-1.486,3.642-.549,7.631-.5,11.421.022,1.55.009,3.235-1.011,4.509-1.053,1.313-2.459.951-3.463-.23-1.048-1.227-1.163-2.791-1.428-4.31C733.48,187.012,733.371,186.307,733.274,185.6Z" transform="translate(-650.529 -103.484)" fill="#1e244a"/>
          <path id="Trazado_115841" data-name="Trazado 115841" d="M1103.651,832.359c.011.067.022.135.035.2-.069-.042-.135-.033-.157-.186C1103.569,832.368,1103.611,832.364,1103.651,832.359Z" transform="translate(-953.18 -688.956)" fill="#8cc295"/>
          <path id="Trazado_115842" data-name="Trazado 115842" d="M1080.4,479.079a5.548,5.548,0,0,1-.942,4.007c-.847,1.278-2.716,1.444-4.1,1.061a4.079,4.079,0,0,1-1.844-6.833c1.159-1.232,3.122-2.107,4.743-1.249A4.9,4.9,0,0,1,1080.4,479.079Z" transform="translate(-928.11 -402.485)" fill="#2b1a0f"/>
          <path id="Trazado_115843" data-name="Trazado 115843" d="M877.8,1720.167c1.966,1.535,1.139,4.045-.232,5.672s-4.414.23-5.139-1.391c-.918-2.054.29-4.794,2.673-4.96A3.323,3.323,0,0,1,877.8,1720.167Z" transform="translate(-767.301 -1401.523)" fill="#37628f"/>
          <path id="Trazado_115844" data-name="Trazado 115844" d="M409.527,1041.444c2.735,8.474-1.749,13.37-2.981,21.3-.988,6.349,1.386,12.089,1.123,18.287-.17,4-2.39,7.426-3.419,11.2a41.639,41.639,0,0,0-1.024,5.15c-2.3,16.545-6.019,33-9.259,49.416-.776,3.932-1.448,8.18-2.463,12.332-1.285,5.267-3.118,10.382-6.4,14.508-7.79,9.794-26.522,13.595-36.413,4.571-5.9-5.389-8.175-13.964-8.98-21.642-1.787-17.02,3.337-35.25,9.038-51.092,1.995-5.542,4.686-10.8,6.716-16.33a64.367,64.367,0,0,0,3.744-15.926,29.664,29.664,0,0,1,3.193-11.191c2.194-4.069,5.986-6.994,7.326-11.545,1.822-6.189.65-13.363,6.959-17.356a11.425,11.425,0,0,0,2.07-1.223c.113.535.243,1.068.4,1.6.531,1.816,1.433,3.6,1.78,5.46a6.806,6.806,0,0,0,1.506,3.439,21.587,21.587,0,0,0,6.043,5.281c4.254,2.5,9.858,3.552,14.046.338,3.18-2.437,4.4-5.829,5.652-9.309l0,0C409.158,1039.239,409.2,1040.422,409.527,1041.444Z" transform="translate(-339.35 -849.239)" fill="#ff5f65"/>
          <path id="Trazado_115845" data-name="Trazado 115845" d="M909.866,765.288c0-.139,0-.276.011-.413a80.267,80.267,0,0,0,.011-8.35c-.082-1.391-.217-2.778-.422-4.153-.088-.584-.276-1.165-.38-1.72-.095-.52.049-1.32-.312-1.749l.257-.444q.5.288,1,.573c.321.409.624.812.911,1.114a41.393,41.393,0,0,0,4.982,4.821,38.148,38.148,0,0,0,8.894,5.442,43.144,43.144,0,0,0,11.841,2.771c3.532.283,6.833-.593,10.245-.8q.053.763.146,1.517c.044.36.1.714.161,1.068-.04,0-.082.009-.122.016.022.153.088.144.157.186.159.885.352,1.753.515,2.627a15.388,15.388,0,0,1,.319,3.651,17.008,17.008,0,0,1-1.8,6.654,18.935,18.935,0,0,1-9.9,9.168c-.845.33-1.681.708-2.536,1.006a13.154,13.154,0,0,1-4.909.661,24.832,24.832,0,0,1-4.96-.834,19.569,19.569,0,0,1-7.074-3.065,18.644,18.644,0,0,1-7.05-10.179,8.968,8.968,0,0,1-.128-4.392,11.25,11.25,0,0,0,.186-2.222C909.917,767.256,909.849,766.261,909.866,765.288Z" transform="translate(-796.742 -621.562)" fill="#f5b49b"/>
          <path id="Trazado_115846" data-name="Trazado 115846" d="M1073.33,401.749a1.53,1.53,0,0,1-1.137,2.4,6.885,6.885,0,0,1-3.2-.67c-.464-.164-.964-.356-1.435-.471a8.107,8.107,0,0,0-1.747.022,14.215,14.215,0,0,0-4.779,1.1,1.776,1.776,0,0,1-1.384-.062c-1.451-.836-.316-2.253.557-3.032a5.707,5.707,0,0,1,1.919-1.168,16.515,16.515,0,0,1,3.147-.938,10.461,10.461,0,0,1,2.731-.1C1069.854,399.033,1072.315,400.1,1073.33,401.749Z" transform="translate(-917.371 -340.683)" fill="#1e244a"/>
          <path id="Trazado_115847" data-name="Trazado 115847" d="M882.855,401.749a1.529,1.529,0,0,1-1.137,2.4,6.877,6.877,0,0,1-3.2-.67c-.464-.164-.964-.356-1.435-.471a8.129,8.129,0,0,0-1.749.022,14.228,14.228,0,0,0-4.779,1.1,1.771,1.771,0,0,1-1.382-.062c-1.451-.836-.316-2.253.557-3.032a5.684,5.684,0,0,1,1.919-1.168,16.545,16.545,0,0,1,3.145-.938,10.469,10.469,0,0,1,2.731-.1C879.379,399.033,881.843,400.1,882.855,401.749Z" transform="translate(-764.373 -340.683)" fill="#1e244a"/>
          <path id="Trazado_115848" data-name="Trazado 115848" d="M892.865,479.079a5.55,5.55,0,0,1-.944,4.007c-.847,1.278-2.716,1.444-4.1,1.061a4.081,4.081,0,0,1-1.844-6.833c1.161-1.232,3.122-2.107,4.743-1.249A4.9,4.9,0,0,1,892.865,479.079Z" transform="translate(-777.474 -402.485)" fill="#2b1a0f"/>
          <path id="Trazado_115849" data-name="Trazado 115849" d="M753.152,382.626q-.5-.285-1-.573c-1.919-1.1-3.8-2.273-5.65-3.58-3.638-2.576-7.534-5.521-10.218-9.122-1.59-2.13-3.235-4.168-4.9-6.251-1.479-1.853-2.435-4.06-3.867-5.944-1.524-2.008-3.24-2.326-5.356-3.525a17.652,17.652,0,0,1-5.628-4.916,12.58,12.58,0,0,1-1.557-2.273,19.43,19.43,0,0,1-1.121-2.941,9.829,9.829,0,0,1,.257-6.258,5.158,5.158,0,0,1,4.12-3.043c2.348-.234,3.155,1.466,4.376,3.071.1.708.206,1.413.329,2.118.266,1.519.38,3.083,1.429,4.31,1,1.181,2.41,1.543,3.463.23,1.019-1.274,1.033-2.959,1.011-4.509-.053-3.79-.991-7.779.5-11.421a26.622,26.622,0,0,1,2.636-4.416,13.3,13.3,0,0,0,1.227-1.9c.352-.8.637-1.616,1.053-2.384a23.311,23.311,0,0,0,2.492-9.444c.159-1.9-.4-3.733-.2-5.654a21.484,21.484,0,0,1,.9-4.527,11.2,11.2,0,0,1,3.69-5.466c1.977-1.521,4.363-1.67,6.742-1.833a23.886,23.886,0,0,1,6.724.434c4.615.968,9.124,2.872,13.889,2.959a13.408,13.408,0,0,0,5.444-.98c5.438-2.284,11.2-2.687,17.043-2.335.849.051,1.4,0,2.266.062,3.615.27,7.576,1.716,9.5,4.989,2.109,3.58,1.824,7.556,1.82,11.494a30.694,30.694,0,0,0,.743,7.348,20.092,20.092,0,0,0,2.623,6.554c2.5,3.671,3.264,8.52,3.388,12.857.038,1.313-.433,8.449,2.023,8.087.752-.113,1.269-1.061,1.492-1.678a8.071,8.071,0,0,0,.387-2.191,25.84,25.84,0,0,0,.089-3.147c-.018-.287-.031-.573-.042-.858l.115,0c2.083-3.116,6.572-1.5,7.81,1.475a10.139,10.139,0,0,1,.263,6.459,20.131,20.131,0,0,1-1.156,3.036,13.138,13.138,0,0,1-1.605,2.348,18.229,18.229,0,0,1-5.814,5.073c-1.641.931-3.374,1.681-5.055,2.534l-.119-.053a59.331,59.331,0,0,1-8.02,13.834,112.011,112.011,0,0,1-8.553,8.9,35.622,35.622,0,0,1-2.8,2.413c-4.938,3.843-11.647,7.185-17.392,7.375l0,.128a28.461,28.461,0,0,1-6.528-1.01,37.049,37.049,0,0,1-7.527-2.782C756.938,384.679,755.027,383.679,753.152,382.626Zm41.532-64a1.53,1.53,0,0,0,1.137-2.4c-1.015-1.645-3.476-2.716-5.331-2.919a10.465,10.465,0,0,0-2.731.1,16.52,16.52,0,0,0-3.147.938,5.707,5.707,0,0,0-1.919,1.168c-.873.778-2.008,2.2-.557,3.032a1.776,1.776,0,0,0,1.384.062,14.217,14.217,0,0,1,4.779-1.1,8.112,8.112,0,0,1,1.747-.022c.471.115.971.307,1.435.471A6.885,6.885,0,0,0,794.685,318.623Zm-3.478,17.135a5.547,5.547,0,0,0,.942-4.007A4.9,4.9,0,0,0,790,328.737c-1.621-.858-3.585.018-4.743,1.249a4.079,4.079,0,0,0,1.844,6.833C788.491,337.2,790.36,337.036,791.207,335.758Zm-9.73,27.334c1.6-1.65,3.746-4.381,2.76-6.808A3.921,3.921,0,0,0,781.181,354c-1.466-.318-2.875.279-4.314.467-1.577.206-3.173.126-4.759.2a31.131,31.131,0,0,1-3.633.018c-1.3-.093-2.622-.113-3.914-.246a4.386,4.386,0,0,0-3.945,1.444c-1.053,1.424-.312,3.733.626,5a17.261,17.261,0,0,0,4.46,4.045,12.7,12.7,0,0,0,5.765,1.988A11.73,11.73,0,0,0,781.477,363.092Zm-24.269-44.469a1.529,1.529,0,0,0,1.137-2.4c-1.013-1.645-3.476-2.716-5.331-2.919a10.473,10.473,0,0,0-2.731.1,16.551,16.551,0,0,0-3.145.938,5.683,5.683,0,0,0-1.919,1.168c-.874.778-2.008,2.2-.557,3.032a1.771,1.771,0,0,0,1.382.062,14.229,14.229,0,0,1,4.779-1.1,8.133,8.133,0,0,1,1.749-.022c.471.115.971.307,1.435.471A6.877,6.877,0,0,0,757.208,318.623Zm-2.9,17.135a5.549,5.549,0,0,0,.944-4.007,4.9,4.9,0,0,0-2.149-3.014c-1.621-.858-3.582.018-4.743,1.249a4.081,4.081,0,0,0,1.844,6.833C751.594,337.2,753.462,337.036,754.309,335.758Z" transform="translate(-639.862 -255.157)" fill="#f5b49b"/>
          <path id="Trazado_115850" data-name="Trazado 115850" d="M487.694,356.008a3.817,3.817,0,0,0-2.3,2.128c-.105.48.042.992-.085,1.466-.212.792-1.07,1.187-1.683,1.731a3.515,3.515,0,0,0-.926,3.785c.394,1.031,1.284,1.878,1.4,2.975.1.931-.347,2.026.281,2.719.533.588,1.479.453,2.224.727.957.353,1.529,1.37,2.458,1.792,1.347.611,2.882-.209,4.359-.275a16.337,16.337,0,0,1,2.666.31,3.533,3.533,0,0,0,2.575-.485c.781-.594,1.067-1.626,1.649-2.417a11.837,11.837,0,0,1,2.156-1.915,3.649,3.649,0,0,0,1.509-2.375c.1-1.306-.951-2.4-1.326-3.652a14.049,14.049,0,0,1-.288-2.55c-.086-.8-.349-1.85-1.178-2.163a13.091,13.091,0,0,0-1.414-.3c-1.481-.379-2.471-1.8-3.882-2.39a5.023,5.023,0,0,0-2.9-.195,16.947,16.947,0,0,1-2.745.785A6.223,6.223,0,0,0,487.694,356.008Z" transform="translate(-454.324 -305.357)" fill="#fff"/>
          <path id="Trazado_115851" data-name="Trazado 115851" d="M1129.094,1270.507c-.382,7.137-6.764,12.3-9.928,18.71-2.764,5.6-3,12.061-3.192,18.3" transform="translate(-963.177 -1040.899)" fill="none"/>
          <path id="Trazado_115852" data-name="Trazado 115852" d="M928.944,1544.281c-.7-2.091-.648-4.208-1.018-6.389-.89-5.241-1.476-10.528-1.943-15.822-.223-2.527-.087-5.348-.652-7.817a34.511,34.511,0,0,1-.7-5.849,129.271,129.271,0,0,0-5-28.817c.113.675.219,1.354.316,2.037,1.068,7.54,1.62,15.141,1.977,22.744q.022.47.044.939c.177,3.914.305,7.83.429,11.744.245,7.7.458,15.26.431,22.982-.018,5.74-.228,11.479-.506,17.213H930.7c-.129-1.725-.364-3.453-.6-5.159C929.755,1549.588,929.743,1546.674,928.944,1544.281Z" transform="translate(-805.464 -1208.844)" fill="#ededed"/>
          <path id="Trazado_115853" data-name="Trazado 115853" d="M911.5,876.927c-.522-3.231-.747-6.444-1.548-9.637-1.568-6.247-4.416-12.339-9.3-16.682-1.8-1.606-4.274-2.382-6.037-3.874a15.39,15.39,0,0,1,.318,3.651,17.006,17.006,0,0,1-1.8,6.654,18.934,18.934,0,0,1-9.9,9.168c-.845.33-1.681.708-2.536,1.006a13.154,13.154,0,0,1-4.909.661,24.842,24.842,0,0,1-4.96-.834,19.565,19.565,0,0,1-7.074-3.065,18.643,18.643,0,0,1-7.05-10.179,8.969,8.969,0,0,1-.128-4.392,11.249,11.249,0,0,0,.186-2.222c-.517.531-1.632,1.154-2.26,1.72-3.967,3.582-5.977,9.7-7.788,14.581-3.334,8.978-4.022,18.566-4.1,28.064a175.132,175.132,0,0,0,2.041,28.93,146.357,146.357,0,0,0,3.237,15.278c3.247,12.029,7.814,23.167,9.867,35.489a129.261,129.261,0,0,1,5,28.817,34.511,34.511,0,0,0,.7,5.849c.565,2.469.429,5.29.652,7.817.467,5.294,1.053,10.581,1.943,15.823.37,2.181.321,4.3,1.018,6.388.8,2.393.81,5.306,1.159,7.806.238,1.706.473,3.434.6,5.159h30.8c.073-7.976.177-16.01-.533-23.917a172.266,172.266,0,0,1-.776-20.006c.148-5.486-.287-11.048-.1-16.574.206-6.181,1.535-12.328,1.789-18.535a79.608,79.608,0,0,1,1.966-13.633c1.123-5.192,1.053-10.541,2.472-15.72,1.435-5.23,2.957-10.429,3.994-15.784.944-4.872,1.526-9.785,2.523-14.632A91.128,91.128,0,0,0,911.5,876.927Z" transform="translate(-743.6 -700.502)" fill="#fffbf2"/>
        </g>
        <g id="Layer_2" data-name="Layer 2" transform="translate(370.308 119.954)">
          <g id="Grupo_82948" data-name="Grupo 82948" transform="translate(106.173 3.098)">
            <path id="Trazado_115854" data-name="Trazado 115854" d="M1036.9,218.435a.553.553,0,0,1-.394-.941c4.022-4.076,5.875-9.436,7.156-14.141a.553.553,0,0,1,1.067.29c-2.351,8.631-5.079,12.238-7.436,14.627A.551.551,0,0,1,1036.9,218.435Z" transform="translate(-1036.345 -202.946)"/>
          </g>
          <g id="Grupo_82949" data-name="Grupo 82949" transform="translate(115.055 13.045)">
            <path id="Trazado_115855" data-name="Trazado 115855" d="M1082.039,259.258a.553.553,0,0,1-.183-1.075,23.674,23.674,0,0,0,7.839-4.543.553.553,0,1,1,.729.831,24.777,24.777,0,0,1-8.2,4.756A.552.552,0,0,1,1082.039,259.258Z" transform="translate(-1081.486 -253.503)"/>
          </g>
          <g id="Grupo_82950" data-name="Grupo 82950" transform="translate(80.499)">
            <path id="Trazado_115856" data-name="Trazado 115856" d="M915.583,200.641a.553.553,0,0,1-.54-.436c-1.242-5.755-4.469-10.109-8.854-11.945a.553.553,0,1,1,.427-1.02c4.722,1.978,8.188,6.619,9.508,12.732a.553.553,0,0,1-.541.67Z" transform="translate(-905.849 -187.197)"/>
          </g>
          <g id="Grupo_82951" data-name="Grupo 82951" transform="translate(61.208 9.725)">
            <path id="Trazado_115857" data-name="Trazado 115857" d="M818.212,240.083a.55.55,0,0,1-.268-.07,15.187,15.187,0,0,0-9.515-2.167.553.553,0,0,1-.154-1.1,16.26,16.26,0,0,1,10.206,2.3.553.553,0,0,1-.269,1.036Z" transform="translate(-807.799 -236.626)"/>
          </g>
          <g id="Grupo_82952" data-name="Grupo 82952" transform="translate(97.751 54.12)">
            <path id="Trazado_115858" data-name="Trazado 115858" d="M998.078,483.722a4.6,4.6,0,0,1-1.836-.419A8.325,8.325,0,0,1,993.7,481.7a.553.553,0,0,1,.77-.794,7.276,7.276,0,0,0,2.21,1.387,3.177,3.177,0,0,0,1.765.3,4.586,4.586,0,0,0,1.209-.376c.524-.242,2.115-.977,1.07-4.411-.345-1.134-.753-2.272-1.146-3.372-.36-1.006-.732-2.045-1.059-3.087a7.977,7.977,0,0,1-.289-1.755c-.024-.271-.046-.528-.082-.788a23.633,23.633,0,0,1,.125-6.038.553.553,0,1,1,1.1.131,22.657,22.657,0,0,0-.128,5.754c.041.29.065.573.089.847a7.02,7.02,0,0,0,.242,1.519c.321,1.021.689,2.051,1.045,3.046.4,1.113.81,2.264,1.163,3.423,1.1,3.6-.3,5.106-1.663,5.736a5.71,5.71,0,0,1-1.5.465A3.471,3.471,0,0,1,998.078,483.722Z" transform="translate(-993.537 -462.272)" fill="#ab684d"/>
          </g>
          <g id="Grupo_82953" data-name="Grupo 82953" transform="translate(45.159 67.335)">
            <path id="Trazado_115859" data-name="Trazado 115859" d="M734.527,541.05a.553.553,0,0,1-.495-.305,3.822,3.822,0,0,0-1.4-1.326,4.255,4.255,0,0,1-1.782-1.86,3.473,3.473,0,0,1,.108-2.465,6.018,6.018,0,0,0,.232-.9,1.824,1.824,0,0,0-.176-.9c-.059-.161-.119-.328-.17-.512a2.133,2.133,0,0,0-.65-1.225,3.349,3.349,0,0,0-2.216-1,1.079,1.079,0,0,0-.742.5.553.553,0,1,1-.9-.637,2.152,2.152,0,0,1,1.5-.96,4.213,4.213,0,0,1,3.066,1.245,3.207,3.207,0,0,1,1.015,1.788c.038.14.089.279.142.425a2.8,2.8,0,0,1,.232,1.434,6.981,6.981,0,0,1-.27,1.072,2.465,2.465,0,0,0-.137,1.727,3.273,3.273,0,0,0,1.374,1.353,4.784,4.784,0,0,1,1.774,1.747.553.553,0,0,1-.494.8Z" transform="translate(-726.227 -529.439)" fill="#ab684d"/>
          </g>
          <g id="Grupo_82954" data-name="Grupo 82954" transform="translate(142.239 67.653)">
            <path id="Trazado_115860" data-name="Trazado 115860" d="M1220.206,543.007a.553.553,0,0,1-.494-.8,4.925,4.925,0,0,1,1.825-1.8,3.393,3.393,0,0,0,1.426-1.405,2.6,2.6,0,0,0-.141-1.795,7.172,7.172,0,0,1-.278-1.1,2.875,2.875,0,0,1,.238-1.471c.055-.152.107-.295.147-.441a3.3,3.3,0,0,1,1.042-1.837,4.327,4.327,0,0,1,3.151-1.281,2.2,2.2,0,0,1,1.533.983.553.553,0,1,1-.9.637,1.13,1.13,0,0,0-.779-.525,3.476,3.476,0,0,0-2.3,1.041,2.217,2.217,0,0,0-.676,1.273c-.052.19-.115.362-.175.528a1.9,1.9,0,0,0-.183.933,6.3,6.3,0,0,0,.24.936,3.571,3.571,0,0,1,.113,2.532,4.315,4.315,0,0,1-1.833,1.912,3.96,3.96,0,0,0-1.456,1.376A.553.553,0,0,1,1220.206,543.007Z" transform="translate(-1219.654 -531.055)" fill="#ab684d"/>
          </g>
          <g id="Grupo_82955" data-name="Grupo 82955" transform="translate(34.854 125.515)">
            <path id="Trazado_115861" data-name="Trazado 115861" d="M674.734,843.452a.875.875,0,0,1-.306-.057.191.191,0,0,0-.065-.015.553.553,0,1,1,.087-1.1,1.231,1.231,0,0,1,.3.06.559.559,0,0,1,.161-.012c1.468.11,2.745-1.72,3.207-2.9a13.325,13.325,0,0,0,.638-6.727c-.291-2.123-.672-4.322-1.826-5.813q-.325-.42-.653-.849a.553.553,0,0,1,.878-.672q.327.427.65.845c1.321,1.708,1.735,4.068,2.046,6.34a14.413,14.413,0,0,1-.7,7.282,7.21,7.21,0,0,1-1.564,2.4,3.617,3.617,0,0,1-2.665,1.2A.985.985,0,0,1,674.734,843.452Z" transform="translate(-673.853 -825.151)" fill="#ab684d"/>
          </g>
          <g id="Grupo_82956" data-name="Grupo 82956" transform="translate(16.023 115.388)">
            <path id="Trazado_115862" data-name="Trazado 115862" d="M578.691,777.094a.553.553,0,0,1-.333-.995,12.537,12.537,0,0,1,6.378-2.42.553.553,0,0,1,.1,1.1,11.416,11.416,0,0,0-5.809,2.2A.551.551,0,0,1,578.691,777.094Z" transform="translate(-578.138 -773.677)" fill="#ab684d"/>
          </g>
          <g id="Grupo_82957" data-name="Grupo 82957" transform="translate(18.159 128.434)">
            <path id="Trazado_115863" data-name="Trazado 115863" d="M598.669,863.77a2.574,2.574,0,0,1-1.956-.739,1.4,1.4,0,0,0-.26-.14,1.208,1.208,0,0,1-.849-.949.553.553,0,0,1,1.091-.167,2.284,2.284,0,0,0,.224.113,1.834,1.834,0,0,1,.6.388c.829.888,3.168.082,4.189-.6,2.854-1.9,4.916-6.632,3.115-11.641a7.86,7.86,0,0,0-1.043-1.763c-.159-.224-.324-.456-.475-.686-2.4-3.661-4.776-5.762-7.055-6.247a17.131,17.131,0,0,0-6.591.187.553.553,0,0,1-.225-1.082,18.244,18.244,0,0,1,7.046-.186c2.61.555,5.145,2.754,7.749,6.722.14.214.292.427.452.653a8.642,8.642,0,0,1,1.182,2.029c1.486,4.133.749,10.072-3.542,12.935A7.434,7.434,0,0,1,598.669,863.77Z" transform="translate(-588.996 -839.986)" fill="#ab684d"/>
          </g>
          <g id="Grupo_82958" data-name="Grupo 82958" transform="translate(14.071 139.001)">
            <path id="Trazado_115864" data-name="Trazado 115864" d="M574.55,912.785a3.313,3.313,0,0,1-2.652-1.379,4.862,4.862,0,0,1-1-2.465,6.292,6.292,0,0,1,.037-1.034,2.833,2.833,0,0,0-.086-1.4,6.94,6.94,0,0,0-2.141-2.332l-.289-.234a.553.553,0,1,1,.7-.856l.285.231a7.878,7.878,0,0,1,2.449,2.727,3.727,3.727,0,0,1,.184,1.963,5.449,5.449,0,0,0-.035.852,3.775,3.775,0,0,0,.773,1.875,2.227,2.227,0,0,0,3.215.47c2.029-1.352,2.847-4.182,2.937-6.381a10.837,10.837,0,0,0-.515-3.607,9.333,9.333,0,0,0-2.539-3.484l-.252-.256a11.163,11.163,0,0,0-4.04-2.708.553.553,0,1,1,.387-1.035,12.257,12.257,0,0,1,4.443,2.969l.25.254a10.283,10.283,0,0,1,2.809,3.936,11.936,11.936,0,0,1,.563,3.977c-.131,3.2-1.412,5.912-3.429,7.256A3.7,3.7,0,0,1,574.55,912.785Z" transform="translate(-568.219 -893.698)" fill="#ab684d"/>
          </g>
          <g id="Grupo_82959" data-name="Grupo 82959" transform="translate(26.49 149.627)">
            <path id="Trazado_115865" data-name="Trazado 115865" d="M631.893,957.3a.553.553,0,0,1-.529-.714,20,20,0,0,1,3.119-6.462c.241-.321.458-.618.672-.91.313-.427.609-.83.961-1.291a.553.553,0,1,1,.879.672c-.346.452-.639.851-.948,1.273-.216.295-.436.594-.679.918a18.948,18.948,0,0,0-2.946,6.12A.553.553,0,0,1,631.893,957.3Z" transform="translate(-631.339 -947.703)" fill="#ab684d"/>
          </g>
          <g id="Grupo_82960" data-name="Grupo 82960" transform="translate(20.745 172.447)">
            <path id="Trazado_115866" data-name="Trazado 115866" d="M602.694,1184.8a.567.567,0,0,1-.129-.015.553.553,0,0,1-.41-.666c.648-2.719,1.159-5.483,1.653-8.156.239-1.3.465-2.518.706-3.739.8-4.061,1.646-8.193,2.463-12.19,2.489-12.172,5.062-24.759,6.79-37.194a41.63,41.63,0,0,1,1.038-5.22,37.749,37.749,0,0,1,1.482-4.145,20.954,20.954,0,0,0,1.916-6.934,41.6,41.6,0,0,0-.666-7.889,34.072,34.072,0,0,1-.452-10.46,42.929,42.929,0,0,1,1.973-7.318c1.5-4.441,2.788-8.277,1.029-13.724-.083-.255-.147-.514-.209-.764-.182-.733-.339-1.365-.871-1.655a.553.553,0,0,1,.529-.971,3.251,3.251,0,0,1,1.415,2.36c.06.243.117.472.188.691,1.871,5.794.46,9.983-1.034,14.417a42.04,42.04,0,0,0-1.928,7.135,33.213,33.213,0,0,0,.452,10.126,42.435,42.435,0,0,1,.677,8.1,22.1,22.1,0,0,1-1.995,7.3,36.91,36.91,0,0,0-1.441,4.023,40.55,40.55,0,0,0-1.01,5.082c-1.733,12.471-4.31,25.075-6.8,37.264-.817,3.995-1.661,8.125-2.462,12.183-.24,1.215-.465,2.434-.7,3.726-.5,2.687-1.009,5.466-1.664,8.212A.553.553,0,0,1,602.694,1184.8Z" transform="translate(-602.141 -1063.693)" fill="#2e5378"/>
          </g>
          <g id="Grupo_82961" data-name="Grupo 82961" transform="translate(6.048 192.829)">
            <path id="Trazado_115867" data-name="Trazado 115867" d="M541.694,1184.655a.551.551,0,0,1-.392-.162,158.335,158.335,0,0,1-13.749-16.318.553.553,0,1,1,.88-.669,157.407,157.407,0,0,0,13.652,16.207.552.552,0,0,1-.391.943Z" transform="translate(-527.44 -1167.287)" fill="#2e5378"/>
          </g>
          <g id="Grupo_82962" data-name="Grupo 82962" transform="translate(2.548 220.16)">
            <path id="Trazado_115868" data-name="Trazado 115868" d="M518.457,1308.759a27.372,27.372,0,0,1-8.426-1.479.553.553,0,1,1,.339-1.052c4.676,1.509,8.583,1.81,12.3.947a.553.553,0,0,1,.25,1.077A19.563,19.563,0,0,1,518.457,1308.759Z" transform="translate(-509.648 -1306.201)" fill="#2e5378"/>
          </g>
          <g id="Grupo_82963" data-name="Grupo 82963" transform="translate(169.74 178.803)">
            <path id="Trazado_115869" data-name="Trazado 115869" d="M1366.839,1249.88h-.005a.552.552,0,0,1-.548-.558c.035-3.8-.3-7.719-.622-11.511-.281-3.293-.57-6.7-.617-10.006-.086-6.092-.394-12.287-.692-18.279-.108-2.158-.219-4.389-.318-6.584-.586-12.992-1.474-25.348-2.714-37.776-1.306-13.1-2.413-25.913-1.621-38.67a120.96,120.96,0,0,1,6.216-30.118.553.553,0,0,1,1.051.344,119.884,119.884,0,0,0-6.163,29.843c-.787,12.674.316,25.439,1.618,38.491,1.242,12.448,2.13,24.824,2.718,37.836.1,2.192.21,4.422.317,6.579.3,6,.607,12.206.694,18.318.046,3.268.334,6.654.613,9.928.325,3.817.661,7.765.626,11.615A.553.553,0,0,1,1366.839,1249.88Z" transform="translate(-1359.436 -1095.997)" fill="#2e5378"/>
          </g>
          <g id="Grupo_82964" data-name="Grupo 82964" transform="translate(193.471 295.392)">
            <path id="Trazado_115870" data-name="Trazado 115870" d="M1480.6,1704.52a.553.553,0,0,1-.356-.975c5.857-4.936,9.96-9.862,12.2-14.642a.553.553,0,1,1,1,.468c-2.3,4.926-6.5,9.979-12.485,15.019A.551.551,0,0,1,1480.6,1704.52Z" transform="translate(-1480.051 -1688.584)" fill="#2e5378"/>
          </g>
          <g id="Grupo_82965" data-name="Grupo 82965" transform="translate(4.303 67.221)">
            <path id="Trazado_115871" data-name="Trazado 115871" d="M526.506,533.061a.623.623,0,0,1-.232-.045c-.243-.1-.485-.212-.719-.322a8.929,8.929,0,0,0-.987-.418c-1.729-.567-3.46-1.3-5.135-2.014l-.484-.206a.622.622,0,1,1,.485-1.145l.485.206c1.651.7,3.358,1.426,5.037,1.977a9.947,9.947,0,0,1,1.128.474c.229.107.444.209.655.294a.622.622,0,0,1-.233,1.2Z" transform="translate(-518.57 -528.862)" fill="#a19086"/>
          </g>
          <g id="Grupo_82966" data-name="Grupo 82966" transform="translate(4.045 64.591)">
            <path id="Trazado_115872" data-name="Trazado 115872" d="M526.343,519.4a1.216,1.216,0,0,1-.416-.091l-.051-.019c-.241-.08-.445-.155-.625-.228l-.141-.058a6.1,6.1,0,0,0-.99-.343c-1.643-.387-3.285-.928-4.872-1.451-.521-.171-1.04-.342-1.556-.507a.622.622,0,0,1,.378-1.185c.52.166,1.043.338,1.567.511,1.563.514,3.178,1.047,4.769,1.421a7.249,7.249,0,0,1,1.177.4l.138.057c.154.063.334.128.548.2l.053.018a.625.625,0,0,1,.623.417.639.639,0,0,1-.154.671A.617.617,0,0,1,526.343,519.4Zm-.574-.447h0Z" transform="translate(-517.257 -515.492)" fill="#a19086"/>
          </g>
          <g id="Grupo_82967" data-name="Grupo 82967" transform="translate(4.265 61.821)">
            <path id="Trazado_115873" data-name="Trazado 115873" d="M527.432,505.652a1.256,1.256,0,0,1-.689-.264,1.03,1.03,0,0,0-.089-.058,14.954,14.954,0,0,0-2.893-1c-.378-.1-.769-.209-1.156-.326-.271-.082-2.786-.935-3.854-1.4a.622.622,0,0,1,.5-1.14c1.005.439,3.464,1.274,3.717,1.35.371.112.753.216,1.123.316a16.13,16.13,0,0,1,3.13,1.091,2.079,2.079,0,0,1,.222.135l.063.042a.622.622,0,0,1,.189,1.21A.8.8,0,0,1,527.432,505.652Z" transform="translate(-518.376 -501.412)" fill="#a19086"/>
          </g>
          <g id="Grupo_82968" data-name="Grupo 82968" transform="translate(0 37.819)">
            <path id="Trazado_115874" data-name="Trazado 115874" d="M506.884,403.561h0a.622.622,0,0,1-.617-.626,18.348,18.348,0,0,1,.59-3.885c.164-.724.318-1.409.423-2.1.084-.548.161-1.1.238-1.661a31.757,31.757,0,0,1,1.391-6.58q.085-.233.174-.453a8.4,8.4,0,0,1-1.257-.366,6.372,6.372,0,0,1-2.684-1.813c-.179.176-.368.333-.545.48-.106.088-.211.174-.31.263a4.99,4.99,0,0,1-1.635,1.07,8.391,8.391,0,0,1-1.257.366q.089.22.174.453a31.748,31.748,0,0,1,1.391,6.58c.077.558.154,1.113.238,1.661.128.837.316,1.69.5,2.514a31.089,31.089,0,0,1,.616,3.4.622.622,0,1,1-1.237.131,30.081,30.081,0,0,0-.594-3.259c-.186-.844-.378-1.716-.512-2.593-.085-.554-.163-1.115-.24-1.679a30.836,30.836,0,0,0-1.327-6.323q-.151-.415-.315-.78a3.779,3.779,0,0,1-2.937-.761,1.9,1.9,0,0,1-.413-1.65,1.451,1.451,0,0,1,.89-1.256,1.715,1.715,0,0,1,1.685.463,6.893,6.893,0,0,1,1.522,1.918l.043,0a5.312,5.312,0,0,0,1.362-.352,3.878,3.878,0,0,0,1.219-.824c.11-.1.226-.2.344-.293a5.352,5.352,0,0,0,.6-.548,7.209,7.209,0,0,1-.87-2.367c-.2-1.091-.073-2.565.948-3.127a1.033,1.033,0,0,1,1.036,0c.889.514.979,2.293.979,2.311a7,7,0,0,1-.61,3.155,5.148,5.148,0,0,0,2.355,1.7,5.313,5.313,0,0,0,1.362.352l.043,0a6.9,6.9,0,0,1,1.522-1.917,1.715,1.715,0,0,1,1.686-.463,1.452,1.452,0,0,1,.89,1.256,1.9,1.9,0,0,1-.413,1.65,3.776,3.776,0,0,1-2.937.761q-.163.366-.315.78a30.825,30.825,0,0,0-1.327,6.323c-.078.564-.156,1.125-.241,1.679-.111.73-.278,1.468-.44,2.181a17.448,17.448,0,0,0-.56,3.62A.621.621,0,0,1,506.884,403.561Zm5.524-17.706a.946.946,0,0,0-.434.244,5.281,5.281,0,0,0-.9,1.023,2.031,2.031,0,0,0,1.334-.358c.043-.047.174-.192.106-.618a.544.544,0,0,0-.1-.291Zm-14.36.008a.822.822,0,0,0-.087.283c-.068.426.063.571.106.618a2.031,2.031,0,0,0,1.334.358,5.282,5.282,0,0,0-.9-1.023A.8.8,0,0,0,498.048,385.863Zm6.913-5.116a2.441,2.441,0,0,0-.211,1.718,6.142,6.142,0,0,0,.323,1.141,6.677,6.677,0,0,0,.173-1.712A3.437,3.437,0,0,0,504.961,380.747Z" transform="translate(-496.699 -379.422)" fill="#a84216"/>
          </g>
          <g id="Grupo_82969" data-name="Grupo 82969" transform="translate(65.871 224.828)">
            <path id="Trazado_115875" data-name="Trazado 115875" d="M841.188,1362.663a.553.553,0,0,1-.546-.472,96.579,96.579,0,0,0-4.085-16.036c-.533-1.618-1.177-3.281-1.8-4.891a49.986,49.986,0,0,1-3.252-10.7.553.553,0,0,1,1.095-.157,49.189,49.189,0,0,0,3.189,10.46c.628,1.622,1.277,3.3,1.819,4.944a97.619,97.619,0,0,1,4.128,16.221.553.553,0,0,1-.467.628A.61.61,0,0,1,841.188,1362.663Z" transform="translate(-831.499 -1329.93)" fill="#2e5378"/>
          </g>
          <g id="Grupo_82970" data-name="Grupo 82970" transform="translate(178.797 164.249)">
            <path id="Trazado_115876" data-name="Trazado 115876" d="M1406.021,1033.28a.553.553,0,0,1-.511-.762,39.364,39.364,0,0,1,3.405-6.144c.834-1.313,1.7-2.67,2.417-4.053a.553.553,0,1,1,.981.51c-.741,1.425-1.617,2.8-2.464,4.135a38.553,38.553,0,0,0-3.314,5.969A.553.553,0,0,1,1406.021,1033.28Z" transform="translate(-1405.468 -1022.024)" fill="#2e5378"/>
          </g>
        </g>
      </g>
    </g>
  </g>
</svg>
