<svg xmlns="http://www.w3.org/2000/svg" xmlns:xlink="http://www.w3.org/1999/xlink" width="190" height="162" viewBox="0 0 190 162">
  <defs>
    <clipPath id="clip-path">
      <rect id="Rect치ngulo_38089" data-name="Rect치ngulo 38089" width="97.132" height="130.848" fill="none"/>
    </clipPath>
  </defs>
  <g id="Grupo_159155" data-name="Grupo 159155" transform="translate(-599.231 -2307)">
    <rect id="Rect치ngulo_37950" data-name="Rect치ngulo 37950" width="190" height="162" transform="translate(599.231 2307)" fill="#ffbfc1"/>
    <g id="Grupo_159154" data-name="Grupo 159154" transform="translate(646.231 2323)">
      <g id="Grupo_158985" data-name="Grupo 158985" transform="translate(0 0)" clip-path="url(#clip-path)">
        <path id="Trazado_136078" data-name="Trazado 136078" d="M68.249,130.848c-2.467-.816-3.7-2.692-4.335-5.068-.516-1.925-.923-3.887-1.555-5.772-.824-2.462-2.089-3.077-4.61-2.54-2.7.575-5.375,1.307-8.187.9a6.886,6.886,0,0,1-5.877-4.445,1.528,1.528,0,0,0-.979-1.031,5.027,5.027,0,0,1-3.358-4c-.088-.44-.1-.867-.688-1.092a4.689,4.689,0,0,1-2.9-3.618,2.315,2.315,0,0,0-1.149-1.568,46.522,46.522,0,0,0-10.693-4.677,1.363,1.363,0,0,0-1.5.306,4.511,4.511,0,0,1-5.1.763,13.193,13.193,0,0,1-3.42-2.185c-1.284-1.049-2.556-2.113-3.865-3.132a6.146,6.146,0,0,0-3.366-1.379A5.573,5.573,0,0,1,3.388,90.5a10.444,10.444,0,0,1-3.2-4.668A3.336,3.336,0,0,1,.6,82.78a3.264,3.264,0,0,0,.669-2.437,4.029,4.029,0,0,1,2.606-4.124,9.113,9.113,0,0,1,3.589-.787,3.188,3.188,0,0,0,2.755-1.551,11.14,11.14,0,0,0,1.866-7.506c-.19-2.046.127-2.594,1.971-3.512a3.445,3.445,0,0,1,2.228-.328q34.614-.012,69.227.032c1.669,0,2.732-.406,3.387-1.979.389-.935.983-1.791,1.366-2.74.8-1.986.217-3.211-1.86-3.78a25.007,25.007,0,0,0-5.066-.51c-1.235-.08-2.456-.222-3.678-.382a5.946,5.946,0,0,1-4.387-2.768,23.133,23.133,0,0,0-1.555-2.026,7.5,7.5,0,0,0-5.143-2.771,40.2,40.2,0,0,1-9.976-2.07c-3.367-1.291-5.9-3.371-6.65-7.116a13.23,13.23,0,0,1-.15-2.545,2.821,2.821,0,0,0-1.331-2.456c-3.56-2.5-4.588-5.632-3.2-9.785,1.275-3.8,3.828-6.7,6.815-9.235a19.884,19.884,0,0,1,8.866-4.595c.934-.191.771-.639.269-1.106a4.486,4.486,0,0,0-4.52-1,12.993,12.993,0,0,0-5.562,3.031,23.6,23.6,0,0,1-8.983,4.947c-2.414.838-4.875,1.524-7.323,2.25a2.875,2.875,0,0,0-2.12,2.124,20.374,20.374,0,0,1-5.014,8.639,2.941,2.941,0,0,1-1.19.943c-1.555.384-2.324,1.56-3.128,2.786a8.867,8.867,0,0,1-6.437,4.166,4.146,4.146,0,0,0-2.784,1.653,7.65,7.65,0,0,0-1.815,5.68,2.46,2.46,0,0,1-2.08,2.958c-2.078.276-3.093-.513-3.361-2.615-.7-5.509,3.369-12.015,8.365-12.882a5.836,5.836,0,0,0,4.5-3.458,17.237,17.237,0,0,1,.9-1.541c.478-.725,1.116-1.539,1.944-1.527,1.72.029,2.293-1.183,3.012-2.3a14.226,14.226,0,0,0,1.911-4.287A7.246,7.246,0,0,1,35.2,10.706a90.63,90.63,0,0,0,9.326-3,15.953,15.953,0,0,0,4.771-2.869A18.628,18.628,0,0,1,58.742.116,9.358,9.358,0,0,1,69.394,6.945c.682,2.972-.878,5.624-3.785,5.983-5.454.671-9.042,3.963-12.047,8.169a8.45,8.45,0,0,0-1.334,3.012A2.147,2.147,0,0,0,53.351,26.8c2.775,1.371,3.75,3.761,3.871,6.676.143,3.425.588,4,3.812,5.133a28.037,28.037,0,0,0,7.36,1.452,13.661,13.661,0,0,1,10.76,6.416,2.985,2.985,0,0,0,2.451,1.477c2.459.183,4.932.209,7.374.61,4.679.767,7.492,4.091,7.09,8.43a10.913,10.913,0,0,1-2,5.446,3.889,3.889,0,0,0-.258,4.473,16.335,16.335,0,0,1,1.324,3.571,4.865,4.865,0,0,1-.571,3.917,1.713,1.713,0,0,0-.053,1.678c.743,2.166,1.817,4.2,2.381,6.44,1.485,5.9-4.234,8.6-8.027,7.246A23.359,23.359,0,0,1,84.2,87.184a5.8,5.8,0,0,0-2.175-1.018c-.719-.112-1.144-.011-.8.948a9.255,9.255,0,0,1,.644,5.24,5.586,5.586,0,0,1-4.01,4.51c-.325.1-.65.194-.975.295-1.028.319-1.348.918-.829,1.928a17.234,17.234,0,0,1,1.758,4.9,9.518,9.518,0,0,1-.349,5.524,20.005,20.005,0,0,0-1.183,9.9,21.71,21.71,0,0,1-.037,5.095c-.478,3.234-2.147,5.383-5.42,6.136-.105.024-.188.142-.28.215Z" transform="translate(0 0)"/>
        <path id="Trazado_136079" data-name="Trazado 136079" d="M7.693,42.974c1.466-.775,1.788-1.5,1.7-3.183A7.938,7.938,0,0,1,12.6,32.913a2.3,2.3,0,0,1,1.278-.535c3.457-.237,5.661-2.3,7.317-5.095a2.759,2.759,0,0,1,1.826-1.528A5.5,5.5,0,0,0,25.874,23.5a21.251,21.251,0,0,0,4.008-7.763,2.583,2.583,0,0,1,2.026-1.994A82.715,82.715,0,0,0,43.6,9.787a16.145,16.145,0,0,0,4.035-2.644,15.1,15.1,0,0,1,6.7-3.787c2.531-.563,4.634.467,5.352,2.558C52.456,7.5,47.256,11.728,43.74,18.151a10.275,10.275,0,0,0-1.216,3.871A6.85,6.85,0,0,0,46.2,29.273,2.3,2.3,0,0,1,47.522,31.4a25.806,25.806,0,0,0,.145,2.676c.528,3.892,3.089,5.97,6.534,7.256a34.922,34.922,0,0,0,9.336,1.939,7.967,7.967,0,0,1,6.62,3.971c1.748,3.069,4.437,3.846,7.586,4a39.155,39.155,0,0,1,5.97.518c2.545.52,3.208,1.8,2.354,4.269-.575,1.664-1.769,3-2.4,4.631-.121.314-.349.317-.607.317-.3,0-.6,0-.894,0q-35.958,0-71.914,0c-.255,0-.51-.011-.765-.019q.143-3.165.29-6.332c.207-.365.6-.449.939-.61a2.025,2.025,0,0,0,1.281-2,2.071,2.071,0,0,0-1.417-2.046c-.308-.124-.658-.194-.838-.528A17.469,17.469,0,0,0,8.6,44.3a2.7,2.7,0,0,0-.9-1.331" transform="translate(4.567 1.902)" fill="#fec044"/>
        <path id="Trazado_136080" data-name="Trazado 136080" d="M9.892,32.215c1.74.29,2.593,1.1,2.626,2.51.038,1.476-.784,2.324-2.593,2.679-1.659-.44-2.472-1.285-2.483-2.582s.811-2.174,2.449-2.607" transform="translate(4.418 19.125)" fill="#010101"/>
        <path id="Trazado_136081" data-name="Trazado 136081" d="M51.131,42.673c11.407,0,22.815.013,34.222-.024.991,0,1.611.185,1.85,1.219a7.333,7.333,0,0,0,.591,1.406,1.755,1.755,0,0,1-.1,1.879c-1.015,1.619-.706,3.367-.123,5.046.669,1.924,1.453,3.806,2.153,5.718.18.489.54,1.081-.033,1.517a1.5,1.5,0,0,1-1.7.006c-1.288-.741-2.529-1.563-3.807-2.324-2.389-1.42-4.864-1.983-7.516-.7-2.524,1.218-3.395,3.017-2.709,5.736.239.947.578,1.866.824,2.811s.04,1.651-1.061,1.916A6.319,6.319,0,0,0,70.4,68.658a1.373,1.373,0,0,1-1.173.333q-20.752,0-41.5.011a6.76,6.76,0,0,1-2.2-.582,26.911,26.911,0,0,0-4.053-1.1c-1.539-.263-3-.18-4.027,1.214-.4.551-.717.258-1.039,0-1.366-1.085-2.709-2.2-4.075-3.28-1.943-1.544-3.943-2.936-6.515-3.281-1.076-.145-1.629-1.159-2.268-1.941-.26-.319.112-.526.258-.757a4.009,4.009,0,0,0,.658-3.039c-.15-.7.113-.977.728-.985a8.134,8.134,0,0,0,6.434-2.846,14.526,14.526,0,0,0,3.43-8.354c.1-1.206.515-1.406,1.6-1.4,11.492.037,22.984.022,34.477.022" transform="translate(2.053 25.319)" fill="#60a3fe"/>
        <path id="Trazado_136082" data-name="Trazado 136082" d="M24.418,62.392h1.3c9.791,0,19.581.011,29.373-.019.837,0,1.307.147,1.525,1.045a12.716,12.716,0,0,0,.932,2.089,7.584,7.584,0,0,1,.25,6.41c-1.466,3.388-1.364,6.969-1.122,10.553a17.353,17.353,0,0,1-.048,4.58,2.133,2.133,0,0,1-.418,1.05c-.706.806-1.423.7-1.713-.324-.534-1.877-.959-3.788-1.5-5.662-1.626-5.591-5.678-7.924-11.344-6.569a27.466,27.466,0,0,1-4.642.8c-2.124.135-2.851-.363-3.347-2.408a3.382,3.382,0,0,0-2.826-2.6,1.231,1.231,0,0,1-1.108-1.4c-.043-2.309-.693-3.136-2.861-3.724-.486-.132-.728-.322-.782-.824a4.825,4.825,0,0,0-1.669-3" transform="translate(14.496 37.029)" fill="#fe5a58"/>
      </g>
    </g>
  </g>
</svg>
