<svg xmlns="http://www.w3.org/2000/svg" xmlns:xlink="http://www.w3.org/1999/xlink" width="173" height="116" viewBox="0 0 173 116">
  <defs>
    <clipPath id="clip-path">
      <rect id="Rect치ngulo_38066" data-name="Rect치ngulo 38066" width="123.65" height="99.952" fill="none"/>
    </clipPath>
  </defs>
  <g id="Grupo_158903" data-name="Grupo 158903" transform="translate(-294.275 -2942)">
    <rect id="Rect치ngulo_36141" data-name="Rect치ngulo 36141" width="173" height="116" transform="translate(294.275 2942)" fill="none"/>
    <g id="Grupo_158902" data-name="Grupo 158902" transform="translate(319.275 2950)">
      <g id="Grupo_158901" data-name="Grupo 158901" clip-path="url(#clip-path)">
        <path id="Trazado_135504" data-name="Trazado 135504" d="M112.879,51.749c.808.682,1.845.5,2.767.665a26.9,26.9,0,0,1,21.833,22.708,7.864,7.864,0,0,0,.193.942c.18.716-.352,1.658.328,2.135a6.39,6.39,0,0,0,2.075.519,18.924,18.924,0,0,1,14.56,15.807,1.535,1.535,0,0,0,.21.416v4.826a47.576,47.576,0,0,1-1.423,4.916,18.963,18.963,0,0,1-10.644,10.527c-.163-.453-.183-.476.094-.727.6-.54,1.168-1.1,1.736-1.673a18.792,18.792,0,0,0,1.506-24.676,18.6,18.6,0,0,0-11.082-6.99c-1.816-.373-2.038-.746-2.237-2.577A26.689,26.689,0,0,0,110.2,54.85a26.646,26.646,0,0,0-11.08.725c-.489.132-.982.425-1.5.063-.05-.746.58-.9,1.051-1.13a27.871,27.871,0,0,1,7.851-2.549,21.888,21.888,0,0,1,6.351-.21" transform="translate(-31.196 -16.491)" fill="#fedb78"/>
        <path id="Trazado_135505" data-name="Trazado 135505" d="M66.406,56.8c1.48-.312,2.952-.664,4.441-.929A25.834,25.834,0,0,1,85.4,57.511,26.642,26.642,0,0,1,99.1,70.09a24.19,24.19,0,0,1,2.835,10.094,1.641,1.641,0,0,0,1.512,1.794,19.092,19.092,0,0,1,15.543,16.264,18.884,18.884,0,0,1-7.129,17.7c-.154.128-.528.145-.275.5a12.262,12.262,0,0,1-5.086,1.2c-30.908.027-61.816.088-92.724-.048-5.076-.022-8.968-2.935-11.495-7.276-3.268-5.612-2.994-11.286.672-16.638A14.47,14.47,0,0,1,12.77,87.52c.7-.121,1.028-.361,1.046-1.023a20.659,20.659,0,0,1,4.468-11.959,5.775,5.775,0,0,0,.435-.841,23.561,23.561,0,0,1,4.263-3.855,2.655,2.655,0,0,1,1.073-.511,26.827,26.827,0,0,1,6.536-.981A21.725,21.725,0,0,1,50.51,81.592a3.128,3.128,0,0,0,2.621,2.1A18.5,18.5,0,0,1,68.2,103.118c-.314,4.845-3.034,10.111-6.538,12.747a19.628,19.628,0,0,0,7.665-6.812,17.82,17.82,0,0,0-2.134-21.721,17.166,17.166,0,0,0-10.273-5.357,2.454,2.454,0,0,1-2.257-1.781A19.9,19.9,0,0,0,50.8,73.837c-.376-.428-.993-.892-.115-1.445a2.925,2.925,0,0,1,1.273-.32c1.507.093,2.028-.821,2.51-2.052a26.452,26.452,0,0,1,9.815-12.309c.623-.43,1.207-1.093,2.12-.908" transform="translate(0 -17.726)" fill="#fee8a0"/>
        <path id="Trazado_135506" data-name="Trazado 135506" d="M32.475,59.6a18.5,18.5,0,0,0-4.207,3.34c-.3.3-.5.759-1.027.744a32.327,32.327,0,0,1,1.349-17.2c4.827-12.7,14.023-20.081,27.477-22.117a5.775,5.775,0,0,1,2.028-.174,29.9,29.9,0,0,1,9.089,2.561,31.712,31.712,0,0,1,8.7,5.716,32.653,32.653,0,0,1,7.442,9.654c.2.416.554.812.341,1.342a33.046,33.046,0,0,0-7.644,2.624,2.791,2.791,0,0,0-1.1.706A25.977,25.977,0,0,0,62.968,60.9a1.753,1.753,0,0,1-1.777,1.383,17.129,17.129,0,0,0-1.9.278,1.475,1.475,0,0,1-1.724-.459A18.955,18.955,0,0,0,47.6,57.125a20.721,20.721,0,0,0-11.692,1.051c-1.145.471-2.284.958-3.43,1.426" transform="translate(-8.523 -7.715)" fill="#fe8422"/>
        <path id="Trazado_135507" data-name="Trazado 135507" d="M98.425,43.43A33.464,33.464,0,0,0,85.517,28.958a30.986,30.986,0,0,0-11.584-4.35,1.823,1.823,0,0,1-1.079-.45c12.647-1.1,25.484,6.094,31.579,17.709.186.354.354.717.53,1.076-.183.286-.478.244-.747.236a43.541,43.541,0,0,0-5.791.252" transform="translate(-23.28 -7.684)" fill="#f37414"/>
        <path id="Trazado_135508" data-name="Trazado 135508" d="M151.718,29.639a1.822,1.822,0,0,1-1.747,1.933,5.71,5.71,0,0,0-4.671,2.957,1.989,1.989,0,0,1-3.642.025,5.946,5.946,0,0,0-4.746-2.985,1.892,1.892,0,0,1-1.709-2.214,1.976,1.976,0,0,1,2.3-1.635,8.809,8.809,0,0,1,5.372,2.381c.376.4.642.452,1.073.032a8.915,8.915,0,0,1,5.149-2.388c1.5-.214,2.609.569,2.62,1.894" transform="translate(-43.197 -8.849)" fill="#b1acb0"/>
        <path id="Trazado_135509" data-name="Trazado 135509" d="M20.651,26.764c-.121.888-.531,1.677-1.58,1.756a6.224,6.224,0,0,0-5.046,3.229,1.858,1.858,0,0,1-3.274-.029,6.119,6.119,0,0,0-4.94-3.183,1.721,1.721,0,0,1-1.648-1.881,1.8,1.8,0,0,1,1.9-1.779,8.219,8.219,0,0,1,5.685,2.239c.559.507.811.446,1.334-.024a8.275,8.275,0,0,1,5.574-2.216,1.885,1.885,0,0,1,2,1.888" transform="translate(-1.33 -7.949)" fill="#756c74"/>
        <path id="Trazado_135510" data-name="Trazado 135510" d="M101.57.007a8.134,8.134,0,0,1,4.886,2.167c.583.534.9.466,1.46-.03A8.094,8.094,0,0,1,113.4,0a1.859,1.859,0,0,1,2.015,1.786,1.839,1.839,0,0,1-1.806,1.877A5.832,5.832,0,0,0,109,6.553c-1.126,1.724-2.548,1.717-3.681-.024a5.8,5.8,0,0,0-4.381-2.849c-1.4-.153-2.076-.871-1.965-2.051.1-1.105.873-1.662,2.6-1.622" transform="translate(-31.623)" fill="#756c74"/>
        <path id="Trazado_135511" data-name="Trazado 135511" d="M35.2,74.757a18.486,18.486,0,0,1,9.2-3.108A20.963,20.963,0,0,1,58.411,75.3a21.174,21.174,0,0,1,2.228,1.826,1.74,1.74,0,0,0,1.377.59c-.259.219-.435.382-.084.738a20.554,20.554,0,0,1,4.579,7.532.881.881,0,0,0,.859.644,18.158,18.158,0,0,1,16.147,16.3,17.64,17.64,0,0,1-3.639,12.81,16.061,16.061,0,0,1-7.784,5.731,19.569,19.569,0,0,0,4.351-5.008,17.566,17.566,0,0,0,1.039-17A17.806,17.806,0,0,0,66.172,89.55a7.781,7.781,0,0,0-2.214-.5,2.368,2.368,0,0,1-2.313-1.747A21.053,21.053,0,0,0,46.8,74.424a20.4,20.4,0,0,0-10.781.2,7.146,7.146,0,0,1-.821.133" transform="translate(-11.248 -22.871)" fill="#fedb78"/>
      </g>
    </g>
  </g>
</svg>
