<svg xmlns="http://www.w3.org/2000/svg" xmlns:xlink="http://www.w3.org/1999/xlink" width="173" height="116" viewBox="0 0 173 116">
  <defs>
    <clipPath id="clip-path">
      <rect id="Rect치ngulo_38067" data-name="Rect치ngulo 38067" width="110.234" height="98.552" fill="none"/>
    </clipPath>
  </defs>
  <g id="_113" data-name="113" transform="translate(-713.275 -2942)">
    <rect id="Rect치ngulo_36141" data-name="Rect치ngulo 36141" width="173" height="116" transform="translate(713.275 2942)" fill="none"/>
    <g id="Grupo_158905" data-name="Grupo 158905" transform="translate(744.275 2951)">
      <g id="Grupo_158904" data-name="Grupo 158904" clip-path="url(#clip-path)">
        <path id="Trazado_135512" data-name="Trazado 135512" d="M0,151.368a2.717,2.717,0,0,1,2.767-1.32c1.663.1,3.338.025,5.008.025a2.571,2.571,0,0,1,1.857-.342c10.074.067,20.147.034,30.221.04,6.631,0,13.262-.1,19.894-.012.772-.042,1.544-.034,2.317,0q19.306.034,38.611.02a2.545,2.545,0,0,1,1.762.3c1.929,0,3.858,0,5.787.005A1.935,1.935,0,0,1,110.2,151.9a23.8,23.8,0,0,1,0,2.571,1.936,1.936,0,0,1-1.946,1.85c-.929.011-1.857,0-2.786,0a3.178,3.178,0,0,1-1.974.351q-13.118,0-26.237,0-35.161,0-70.322,0a3.545,3.545,0,0,1-2.19-.349,15.678,15.678,0,0,0-2.006.017A2.576,2.576,0,0,1,0,155.027Z" transform="translate(0 -73.506)" fill="#fee9ce"/>
        <path id="Trazado_135513" data-name="Trazado 135513" d="M119.081,169.532c-2.632,3.192-4.972,6.626-7.822,9.634a7.1,7.1,0,0,1-5.184,2.221c-22.734.47-45.472.058-68.207.207-.348,0-.725.1-1.023-.194a.839.839,0,0,1,.662-.309c2.108-.078,4.216-.059,6.051-.021a8,8,0,0,1-3.5-2.659c-2.048-2.5-4.024-5.047-6.031-7.575-.089-.112.013.035-.065-.086-.229-.353-.675-.692-.49-1.127.212-.5.789-.369,1.237-.409.214-.019.43-.007.645-.007q40.936,0,81.871.007c.628,0,1.3-.159,1.856.318" transform="translate(-16.412 -83.068)" fill="#fee9ce"/>
        <path id="Trazado_135514" data-name="Trazado 135514" d="M86.751,89.083a49.206,49.206,0,0,1,10.2,1.333c.286.505-.007.979-.1,1.455a6.679,6.679,0,0,0,3.633,7.636,6.361,6.361,0,0,0,6.991-.606,6.515,6.515,0,0,0,1.813-1.943c.178-.29.319-.671.788-.584a6.751,6.751,0,0,1,2.548,4.543,2.446,2.446,0,0,1-.228,1.356,2.334,2.334,0,0,1-1.131,1.622,13.413,13.413,0,0,1-3.636,1.832c-.537.171-1.133.267-1.466.816-.2,1.877-.062,3.758-.117,5.634a3.945,3.945,0,0,1-.3,1.392,4.486,4.486,0,0,1-3.577,2.566c-2.858-.22-4.18-1.459-4.6-4.3a24.912,24.912,0,0,1-.093-2.578c-.02-.437.112-1.011-.643-.978-.652.029-1.1.26-1.1,1.018,0,1.112.006,2.223-.007,3.336a9.16,9.16,0,0,1-.291,3.2,3.1,3.1,0,0,1-.73.956,4.265,4.265,0,0,1-2.914,1.491c-2.739-.182-4.074-1.419-4.5-4.09a32.712,32.712,0,0,1-.149-4.06c-.036-1.046-.189-1.175-1.228-1.049a12.286,12.286,0,0,1-3.936-.017c-.389-.226-.428-.645-.522-1.015A6.776,6.776,0,0,0,71.3,103.735a6.173,6.173,0,0,0-2.8,3.2c-.184.41-.289.888-.789,1.07a27.788,27.788,0,0,1-9.336-2.234c-.242-.366-.039-.686.12-1a6.979,6.979,0,0,0-1.808-8.538.989.989,0,0,1-.457-.7,25.251,25.251,0,0,1,8.613-4.124c.509-.059.748.348,1.059.622a16.887,16.887,0,0,0,5.488,3.234,4.687,4.687,0,0,0,3.928-.061,1.424,1.424,0,0,1,.629.117,3.147,3.147,0,0,0,2.5.124,13.154,13.154,0,0,0,7.543-4.892c.378-.426.405-1.034.763-1.47" transform="translate(-27.61 -43.738)" fill="#fe624b"/>
        <path id="Trazado_135515" data-name="Trazado 135515" d="M107.244,166.342H21.584c1.892,2.384,3.651,4.612,5.422,6.829a15.837,15.837,0,0,0,3.5,3.728c.715.465,1.506.771,2.255,1.31H25.009a8.149,8.149,0,0,1-6.265-3.452c-3.034-3.747-6-7.547-8.992-11.329a6.052,6.052,0,0,1-.433-.737H110.043a35.675,35.675,0,0,1-2.8,3.651" transform="translate(-4.575 -79.878)" fill="#fed499"/>
        <path id="Trazado_135516" data-name="Trazado 135516" d="M75.271,36.791c-.321.018-.641.05-.962.051-2.2.006-3.085-.889-3.095-3.129-.012-2.5-.012-5.006-.018-7.509v-.844c-.472.511-.753.983-1.277,1.13A1.727,1.727,0,0,1,67.974,25.1a5.179,5.179,0,0,1-.13-1.492q0-10.039,0-20.078a3.545,3.545,0,0,1,.344-1.983c.395-.627.861-1.165,1.732-.9A2,2,0,0,1,71.2,2.36a11.351,11.351,0,0,1,.524,4.207c.048,5.41.019,10.821.019,16.232,0,.322,0,.645,0,.968.026,2.087.776,2.743,2.979,2.5-1-1.694-.605-3.534-.618-5.318-.041-5.733-.016-11.466-.014-17.2a6.6,6.6,0,0,1,.1-1.6A1.744,1.744,0,0,1,76.165.637a1.877,1.877,0,0,1,1.292,1.69,12.1,12.1,0,0,1,.5,4.2c.047,5.54.018,11.081.02,16.622a8.762,8.762,0,0,0,.049,1.392,2.011,2.011,0,0,0,1.948,1.8c1.149.073,2.3.126,3.209-.809a.487.487,0,0,1,.672-.121l0,1.284c-.255,1.885-.617,2.262-2.58,2.457-.684.068-.938.359-.938,1.014,0,4.046-.009,8.092.008,12.139a2.226,2.226,0,0,0,.628,1.553c.234.253.569.461.532.884a5.626,5.626,0,0,1-2.338-.116,2.086,2.086,0,0,1-1.527-1.987c-.208-1.6-.039-3.215-.094-4.823-.114-3.29-.352-6.578-.165-9.917a2.474,2.474,0,0,1-2.363,1.261c-.831-.023-1.155.377-1.141,1.18.018,1.039,0,2.08.007,3.12a3.247,3.247,0,0,0,1.184,2.862.463.463,0,0,1,.2.467" transform="translate(-33.309 -0.281)" fill="#fed451"/>
        <path id="Trazado_135517" data-name="Trazado 135517" d="M67.332,135.471l-42.487.016-9.573,0a23.475,23.475,0,0,1,9.538-14.365c.446-.321,1.03-.5,1.246-1.094.035,0,.092-.025.1-.012a15.583,15.583,0,0,0,4,3.5c-.437.737-1.264.9-1.936,1.26a18.554,18.554,0,0,0-8.514,9.628.819.819,0,0,0-.108.532,8.4,8.4,0,0,0,1.7.062,1.147,1.147,0,0,0,1.151-.785,16.2,16.2,0,0,1,7-7.354,16.618,16.618,0,0,1,18.3,1.653,16.849,16.849,0,0,1,4.459,5.582,2.2,2.2,0,0,0,2.567.859c.333-.154.259-.381.175-.625-.177-.508-.413-.992-.635-1.483-.158-.349-.4-.71-.08-1.1a16.647,16.647,0,0,0,4.783-1.458,20.344,20.344,0,0,1,3.723-.482,2.442,2.442,0,0,1,1.542.351,1.253,1.253,0,0,1,.324.984,3.924,3.924,0,0,0,2.289,3.8c.214.1.476.2.443.526" transform="translate(-7.499 -58.925)" fill="#fede74"/>
        <path id="Trazado_135518" data-name="Trazado 135518" d="M125.219,19.375l31.3-.022c3.98,0,7.961-.009,11.941,0,2.152.007,3.113,1.06,3,3.235a2,2,0,0,1-1.78,1.856,7.958,7.958,0,0,1-1.919.185q-19.61,0-39.22,0a8.05,8.05,0,0,1-1.286-.067,2.411,2.411,0,0,1-2.345-2.584,3.919,3.919,0,0,1,.3-2.606" transform="translate(-61.295 -9.5)" fill="#da9b2e"/>
        <path id="Trazado_135519" data-name="Trazado 135519" d="M93.085,25.2a4.285,4.285,0,0,1-3.825,1.3,2.326,2.326,0,0,1-2.381-2.43q-.011-8.9,0-17.8a31.308,31.308,0,0,1-.2-4.155C87.569.116,89.269,0,91.1.235a2.541,2.541,0,0,1,1.991,2.588c.047.643.022,1.29.03,1.936a1.916,1.916,0,0,1,.344,1.422q.014,7.187,0,14.374a2.047,2.047,0,0,1-.341,1.427L93.085,25.2" transform="translate(-42.534 -0.071)" fill="#fede74"/>
        <path id="Trazado_135520" data-name="Trazado 135520" d="M99.387,26.43q0-8.612,0-17.223c1.567,0,3.134,0,4.7,0,3.112.007,4.76,1.47,5.113,4.529.024.211.055.42.084.631a14.216,14.216,0,0,1,0,6.893q-.094.688-.187,1.376a4.34,4.34,0,0,1-4.145,3.769c-1.854.049-3.71.02-5.565.026" transform="translate(-48.795 -4.52)" fill="#da9b2e"/>
        <path id="Trazado_135521" data-name="Trazado 135521" d="M118.831,26.238q0-3.447,0-6.893l3.439.029c0,.824.006,1.649.015,2.473a2.1,2.1,0,0,0,2.228,2.431c.213.019.43.006.645.006q20.052,0,40.1-.006c1.355,0,2.667-.17,3.255-1.688a10.727,10.727,0,0,1,0,1.822A2.185,2.185,0,0,1,166.6,26.2a4.647,4.647,0,0,1-.965.048q-23.4,0-46.8-.006" transform="translate(-58.342 -9.498)" fill="#bf6c0e"/>
        <path id="Trazado_135522" data-name="Trazado 135522" d="M153.814,118.841c1.241-.515,2.5-.987,3.716-1.556a6.017,6.017,0,0,0,2.716-2.29c1.567.677,3.254,1.007,4.8,1.757a23.264,23.264,0,0,1,11.827,12.843,9.562,9.562,0,0,1,.863,2.965c.006.1.051.262-.071.267-1.272.05-2.561.376-3.8-.217a12.4,12.4,0,0,1-1.2-2.383c-3.6-6.643-9.255-9.908-16.708-10.256-.464-.021-.93.006-1.4-.017-.747-.037-1.053-.369-.751-1.112" transform="translate(-75.463 -56.461)" fill="#fede74"/>
        <path id="Trazado_135523" data-name="Trazado 135523" d="M151.742,93.756c-.82.852-1.221,2.079-2.369,2.635-2.519.821-4.512-.245-6.212-1.915a7.287,7.287,0,0,1-.9-9.023,4.864,4.864,0,0,1,1.713-1.586,7.029,7.029,0,0,1,8.008,8.747,2.44,2.44,0,0,0-.238,1.142" transform="translate(-69.279 -41.12)" fill="#be6c0d"/>
        <path id="Trazado_135524" data-name="Trazado 135524" d="M49.178,100.959a7.15,7.15,0,0,1,2.81,8.691c-.18.5-.439.962-.661,1.442-.621,1.453-1.914,2.116-3.229,2.756a2,2,0,0,1-1.112.176,7.325,7.325,0,0,1-5.092-6.434c-.3-2.937,1.62-6.748,5.136-7.454a6.758,6.758,0,0,1,2.148.823" transform="translate(-20.554 -49.165)" fill="#be6c0d"/>
        <path id="Trazado_135525" data-name="Trazado 135525" d="M66.757.413a1.964,1.964,0,0,0-1.731,1.973q-.021,10.953,0,21.906a1.963,1.963,0,0,0,1.731,1.972,5.348,5.348,0,0,1-3.242.119,2.4,2.4,0,0,1-1.705-2.246c-.046-.3.138-.658-.224-.874a1.075,1.075,0,0,1-.181-.812q.1-9.1,0-18.207a1.121,1.121,0,0,1,.171-.816c.408-.422.253-1,.39-1.5A2.108,2.108,0,0,1,63.509.3a5.509,5.509,0,0,1,3.248.113" transform="translate(-30.147 -0.054)" fill="#fede74"/>
        <path id="Trazado_135526" data-name="Trazado 135526" d="M79.389.356a1.968,1.968,0,0,0-1.733,1.975c-.014,7.308,0,14.615-.017,21.923,0,.911.7,1.354,1.264,2.133a19.7,19.7,0,0,1-2.72-.026,2.124,2.124,0,0,1-1.548-2.171c0-5.3-.046-10.6.021-15.9.026-2.078-.318-4.132-.232-6.2C75.527.086,77.051-.442,79.389.356" transform="translate(-36.534 0)" fill="#fede74"/>
        <path id="Trazado_135527" data-name="Trazado 135527" d="M53.533,26.512c-2.808.078-3.66-.751-3.66-3.562,0-5.327.054-10.654-.028-15.98C49.814,5,50.954,3.3,54.016,3.912A4.741,4.741,0,0,0,53.655,6c.01,6.449,0,12.9.007,19.346a2.388,2.388,0,0,1-.129,1.161" transform="translate(-24.472 -1.858)" fill="#fede74"/>
        <path id="Trazado_135528" data-name="Trazado 135528" d="M56.876,26.634a1.557,1.557,0,0,1-.219-.923q.006-10.375,0-20.749c0-.526.049-.938.706-.928a2.059,2.059,0,0,1,1.888,1.32,6.11,6.11,0,0,1,.215,1.9q-.012,8.012,0,16.023a7.079,7.079,0,0,1-.21,1.907,2.37,2.37,0,0,1-2.378,1.446" transform="translate(-27.816 -1.98)" fill="#fed451"/>
        <path id="Trazado_135529" data-name="Trazado 135529" d="M93.223,69.945A3.187,3.187,0,0,1,91.7,66.878c.084-3.943.043-7.889.017-11.834,0-.712.158-1.015.948-1.013,1.958.006,2.24-.242,2.9-2.132.006,5.079.029,10.158.008,15.238a2.562,2.562,0,0,1-2.357,2.808" transform="translate(-45.024 -25.481)" fill="#fede74"/>
        <path id="Trazado_135530" data-name="Trazado 135530" d="M43.662,99.855c-1.263.833-2.664,1.41-3.6,2.761a7.092,7.092,0,0,0,2.774,10.488,7.921,7.921,0,0,1,.818.489,3.2,3.2,0,0,1-3.9-.152,7.294,7.294,0,0,1-4.018-3.453c-1.994-4.531.169-9.1,4.882-10.228a4.851,4.851,0,0,1,3.037.094" transform="translate(-17.185 -48.884)" fill="#a46021"/>
        <path id="Trazado_135531" data-name="Trazado 135531" d="M141.029,83.976a9.42,9.42,0,0,0-2.45,4.176c-.914,3.928,2.443,8.437,6.562,8.339.429-.01.859.006,1.289.009-2.056,1.917-5.55,2.039-8.206.291a7.181,7.181,0,0,1-2.711-8.377c.054-.168.106-.339.159-.508a7.687,7.687,0,0,1,4.317-3.745,2.891,2.891,0,0,1,1.04-.185" transform="translate(-66.337 -41.229)" fill="#a46021"/>
        <path id="Trazado_135532" data-name="Trazado 135532" d="M80.776,62.429c-1.414-.65-1.723-1.872-1.71-3.272.011-1.183.039-2.368-.01-3.549-.035-.832.26-1.232,1.112-1.12a2.714,2.714,0,0,0,2.979-1.7v15.49a4.136,4.136,0,0,1-.178-2.094c-.036-1.668-.012-3.337-.012-5.255-.658.865-1.241,1.484-2.182,1.5" transform="translate(-38.814 -25.918)" fill="#fede74"/>
        <path id="Trazado_135533" data-name="Trazado 135533" d="M71.988,88.067c.715-.811,1.632-.679,2.552-.554a18.558,18.558,0,0,1,4.274,1.6,8.518,8.518,0,0,1,3.815,3.064.681.681,0,0,1,.109.7,1.511,1.511,0,0,1-1.521.591,13.336,13.336,0,0,1-9.23-5.408" transform="translate(-35.345 -42.921)" fill="#cbbf33"/>
        <path id="Trazado_135534" data-name="Trazado 135534" d="M94.013,94.686l-.442-.264a1.473,1.473,0,0,1-.276-1.2,10.891,10.891,0,0,1,6.529-5.12,13.616,13.616,0,0,1,3.292-.715,2.066,2.066,0,0,1,1.822.865,1.888,1.888,0,0,1-.556,1.558c-2.532-.661-4.587.565-6.655,1.7a14.963,14.963,0,0,0-3.713,3.18" transform="translate(-45.797 -42.903)" fill="#ccbf33"/>
        <path id="Trazado_135535" data-name="Trazado 135535" d="M82.751,93.868a1.894,1.894,0,0,1,.19,1.2,2.81,2.81,0,0,1-2.78.6A16.155,16.155,0,0,1,72.4,91.216c-.249-.83-1.163-1.5-.594-2.525.93.589,1.538,1.523,2.416,2.194a15.736,15.736,0,0,0,6.359,2.931,2.6,2.6,0,0,0,1.951-.393c.351.013.344.2.215.445" transform="translate(-35.167 -43.546)" fill="#ad9b18"/>
        <path id="Trazado_135536" data-name="Trazado 135536" d="M89.513,93.876c-.019-.174-.033-.35-.215-.445a8.89,8.89,0,0,0-2.968-2.986c-.319-.22-.621-.463-.931-.7a34.139,34.139,0,0,1,5.836-.8,30.145,30.145,0,0,1,4.721-.2c-1.055.646-2.2,1.132-3.208,1.87a8.364,8.364,0,0,0-2.763,2.893.538.538,0,0,1-.47.365" transform="translate(-41.929 -43.554)" fill="#fe624b"/>
        <path id="Trazado_135537" data-name="Trazado 135537" d="M158.158,145.648a4.9,4.9,0,0,0,3.889.175l.161.467q-19.539,0-39.077,0c-.464,0-.929-.028-1.393-.042.033-.288.258-.348.482-.41a3.071,3.071,0,0,0,3.774-2.152,4.2,4.2,0,0,1,.735-1.038,1.372,1.372,0,0,1,.615-.64,9.028,9.028,0,0,1,2.07,1.975c-.118.661-.818.984-.994,1.79,1.207-.043,2.4.367,3.452-.561.261-.231.6-.476.877.03.318.614.9.5,1.422.5q6.335.012,12.669,0c.536,0,1.074,0,1.607.026.892,0,1.786.012,2.679.018.412,0,.8.014.909-.511.37-.291.572.067.813.223a1.163,1.163,0,0,0,1.818-.31,4.172,4.172,0,0,0,3.49.456" transform="translate(-59.771 -69.724)" fill="#fedd74"/>
        <path id="Trazado_135538" data-name="Trazado 135538" d="M114.438,138.961l-.475.17-2.133.021c-2.433-.877-3.136-2.767-3.015-5.141-.562-.909-.243-1.91-.3-2.871.051-.642-.268-.9-.889-.916-.521-.016-1.09.1-1.512-.363a2.078,2.078,0,0,1,.151-2.1,23.066,23.066,0,0,0,4.376-.2c.9-.207,1.257.146,1.229,1.136a26.029,26.029,0,0,0,.154,4.591,3.819,3.819,0,0,0,3.655,3.511c.248.018.508-.023.684.214,0,1.281-.984,1.588-1.922,1.94" transform="translate(-51.996 -62.606)" fill="#fe4b34"/>
        <path id="Trazado_135539" data-name="Trazado 135539" d="M95.46,121.781q-.013,1.09-.026,2.179c.134.265,0,.5-.071.749-.234.459-.2,1.088-.822,1.306a7.805,7.805,0,0,1-7.11-.377c-3.339-1.909-4.423-6.764-2.757-9.223a7.071,7.071,0,0,1,10.787,5.366" transform="translate(-41.194 -56.623)" fill="#be6c0d"/>
        <path id="Trazado_135540" data-name="Trazado 135540" d="M173.768,136.094c.013.1.07.277.033.3a3.478,3.478,0,0,1-3.489-.737,24.819,24.819,0,0,0-4.064-5.064,15.983,15.983,0,0,0-11.465-3.9c-.538.022-.728.287-.778.8-.043.442.235,1.039-.45,1.264q-.011-2.767-.021-5.535c0-.243-.045-.5.2-.679-.11.773.327.884.963.85a18.765,18.765,0,0,1,8.945,1.7,18.163,18.163,0,0,1,10.128,10.994" transform="translate(-75.381 -60.17)" fill="#fec24c"/>
        <path id="Trazado_135541" data-name="Trazado 135541" d="M158.092,142.382l.3.845h-3.707c-1.122-.567-1.946-1.555-3.1-2.1a12.127,12.127,0,0,0-11.641.4c-.453.25-.811.738-1.423.648-1.238,1.552-2.949.983-4.585,1.05.137-.959.919-1.443,1.358-2.139.282-.252.608-.125.913-.087a3.813,3.813,0,0,0,3.749-1.485.849.849,0,0,1,.5-.363,5.907,5.907,0,0,0,3.2-2.375,5.057,5.057,0,0,1,3.433-.462,15.65,15.65,0,0,1,9.324,3.9,4.787,4.787,0,0,1,1.678,2.17" transform="translate(-65.757 -66.888)" fill="#fec24c"/>
        <path id="Trazado_135542" data-name="Trazado 135542" d="M81.849,117.466a8.464,8.464,0,0,0-.04,5.336,6.762,6.762,0,0,0,5.774,4.576,6.522,6.522,0,0,0,3.61-.5c.2-.09.388-.2.563.035a2.845,2.845,0,0,1-1.951,2.374,8.393,8.393,0,0,1-4.716,1.32,1.063,1.063,0,0,1-.919.13,7.426,7.426,0,0,1-5.864-6.223,3.387,3.387,0,0,1,.3-2.759,7.342,7.342,0,0,1,3.238-4.292" transform="translate(-38.37 -57.674)" fill="#a46021"/>
        <path id="Trazado_135543" data-name="Trazado 135543" d="M167.475,139.384a17.134,17.134,0,0,0-4.358-3.718,14.345,14.345,0,0,0-9.648-1.893,2.677,2.677,0,0,1-.429.006l.273-1.3a.78.78,0,0,0,.18-.6c.087-1.76.088-1.772,1.891-1.758,6.525.05,11.283,3.092,14.552,8.631a2.038,2.038,0,0,1,.134.617c-.046.323.127.807-.394.834-.5.026-1.073.244-1.512-.188-.224-.22-.38-.51-.689-.639" transform="translate(-75.14 -63.89)" fill="#fede74"/>
        <path id="Trazado_135544" data-name="Trazado 135544" d="M113.75,104.932a3.949,3.949,0,1,1,7.9.213,3.873,3.873,0,0,1-4.029,3.847,3.774,3.774,0,0,1-3.866-4.06" transform="translate(-55.849 -49.622)" fill="#fe8f79"/>
        <path id="Trazado_135545" data-name="Trazado 135545" d="M139.876,134.052c-1.06,1.957-2.682,2.564-5.167,1.935a5.508,5.508,0,0,1-1.958-1.915,43.624,43.624,0,0,0,.234-6.845,1.741,1.741,0,0,1,2.119-1.293c.337.171.233.489.246.758a29.047,29.047,0,0,0,.185,3.736,3.827,3.827,0,0,0,3.657,3.407c.248.018.508-.022.684.217" transform="translate(-65.178 -61.788)" fill="#fe4b34"/>
        <path id="Trazado_135546" data-name="Trazado 135546" d="M66.828,123.818c.021.945-.37,1.885-.031,2.834a1.434,1.434,0,0,1-1.22.231,52.6,52.6,0,0,1-10.435-2.154c-.359-.125-.783-.151-.991-.554a10.559,10.559,0,0,0,3.209-2.513,49.953,49.953,0,0,0,9.467,2.157" transform="translate(-26.588 -59.733)" fill="#fe4b34"/>
        <path id="Trazado_135547" data-name="Trazado 135547" d="M94.723,96.565c.7-1.649,2.144-2.543,3.571-3.4a10.518,10.518,0,0,1,5.7-1.953c.439.012.876-.02,1.1.473-.864,1.759-2.495,2.7-4.075,3.617a11.027,11.027,0,0,1-4.367,1.6,2.952,2.952,0,0,1-1.927-.332" transform="translate(-46.507 -44.782)" fill="#e9ce32"/>
        <path id="Trazado_135548" data-name="Trazado 135548" d="M122.671,146.7c.752-.536,1.585-.993,1.922-1.94a8.347,8.347,0,0,0,2.594-1.49c-.308,1.148-1.2,2.008-1.549,3.14-.111.36-.451.285-.725.287-.747.008-1.494,0-2.242,0" transform="translate(-60.229 -70.341)" fill="#fec24c"/>
        <path id="Trazado_135549" data-name="Trazado 135549" d="M38.936,126.6a61.432,61.432,0,0,0,6.62,1.674,51.074,51.074,0,0,0,6.025.8,7.189,7.189,0,0,0,6.509,6.019c.357.854.683,1.723,1.08,2.558.34.715.07.91-.609.862a.976.976,0,0,0-.215,0,2.389,2.389,0,0,1-2.852-1.582,15.287,15.287,0,0,0-12.476-8.47A15.536,15.536,0,0,0,29.981,132.9a14.739,14.739,0,0,0-3.508,4.932c-.319.773-.885.686-1.491.686-2.2,0-2.15.024-1.21-2.008a18.86,18.86,0,0,1,9.925-9.6,1.282,1.282,0,0,0,.249-.195,5.946,5.946,0,0,0,3.9.153l1.091-.27" transform="translate(-11.371 -62.157)" fill="#fec24c"/>
        <path id="Trazado_135550" data-name="Trazado 135550" d="M38.113,143.584H34.27a14.078,14.078,0,0,1,11.7-6.608c5.4-.243,9.806,1.886,13.163,6.613H55.374c-1.472-.862-2.735-2.059-4.4-2.612-4.357-1.445-8.37-.955-11.957,2.04a5.523,5.523,0,0,1-.9.567" transform="translate(-16.826 -67.244)" fill="#fec24c"/>
        <path id="Trazado_135551" data-name="Trazado 135551" d="M41.819,146.439c4.1-4.931,13.005-4.848,17.261.005l-17.261-.005" transform="translate(-20.532 -70.099)" fill="#fede74"/>
        <path id="Trazado_135552" data-name="Trazado 135552" d="M101.049,137.069A7.54,7.54,0,0,0,103,134.7c.379-.354.3-.92.609-1.308.971-.064,1.964-.276,2.81.444l.014,3.024c-1.489-.491-2.961-.084-4.437.085-.317.036-.631.085-.947.128" transform="translate(-49.613 -65.452)" fill="#fec24c"/>
        <path id="Trazado_135553" data-name="Trazado 135553" d="M109.432,18.49c0,.071,0,.143,0,.214,0,1.324-.414,1.967-1.276,1.99-.9.023-1.458-.67-1.53-1.895-.114-1.938-.925-2.791-2.892-3.041-1.078-.137-1.471-.585-1.417-1.577s.654-1.19,1.517-1.245a5.37,5.37,0,0,1,5.6,5.554" transform="translate(-50.234 -6.347)" fill="#feb64b"/>
        <path id="Trazado_135554" data-name="Trazado 135554" d="M142.838,145.38a12.365,12.365,0,0,1,14.726-.374,12.77,12.77,0,0,1,1.441,1.425c-5.07,0-10.14-.015-15.209.036-.9.009-1.251-.182-.958-1.087" transform="translate(-70.081 -70.091)" fill="#fede74"/>
        <path id="Trazado_135555" data-name="Trazado 135555" d="M108.888,133.277c-.9-.358-1.929.053-2.81-.445l.244-.6a14.112,14.112,0,0,0,1.6-.036c.894-.117,1.161.257.97,1.079" transform="translate(-52.082 -64.896)" fill="#fbe072"/>
      </g>
    </g>
  </g>
</svg>
