<svg xmlns="http://www.w3.org/2000/svg" xmlns:xlink="http://www.w3.org/1999/xlink" width="173" height="116" viewBox="0 0 173 116">
  <defs>
    <clipPath id="clip-path">
      <rect id="Rect치ngulo_38068" data-name="Rect치ngulo 38068" width="99.919" height="103.558" fill="none"/>
    </clipPath>
  </defs>
  <g id="_114" data-name="114" transform="translate(-1144.275 -2942)">
    <rect id="Rect치ngulo_36141" data-name="Rect치ngulo 36141" width="173" height="116" transform="translate(1144.275 2942)" fill="none"/>
    <g id="Grupo_158908" data-name="Grupo 158908" transform="translate(1181.275 2948)">
      <g id="Grupo_158907" data-name="Grupo 158907" clip-path="url(#clip-path)">
        <path id="Trazado_135556" data-name="Trazado 135556" d="M103.037,173.171H58.143c-.237-.188-.551-.058-.8-.193a4.409,4.409,0,0,1-2.922-4.253c-.033-2.475-.014-4.951-.01-7.428q-.073-5.77,0-11.539c0-2.092-.09-4.185.047-6.275a30.757,30.757,0,0,1,2.6-9.477,37.56,37.56,0,0,1,4.184-6.049A26.71,26.71,0,0,1,65.9,123.97c.3-.2.6-.595,1.052-.263a2.8,2.8,0,0,1-.313,1.945c-.73.745-1.415,1.531-2.08,2.335a2.041,2.041,0,0,0,.261,3.25,17.313,17.313,0,0,1,2.836,2.568,25.453,25.453,0,0,1,.978,4.831,40.339,40.339,0,0,1-2.241,3.8,7.89,7.89,0,0,0-.764,1.411,1.9,1.9,0,0,0,.393,2.144c.7.676,1.274,1.466,1.937,2.175a4.948,4.948,0,0,0,2.8,3.023c3,3.362,6.08,6.652,9.086,10.009a.5.5,0,0,0,.44.187.747.747,0,0,0,1.049,0,.354.354,0,0,0,.43-.145c2.8-3.271,5.8-6.359,8.656-9.581.259-.293.535-.669,1-.282a6.945,6.945,0,0,0,.525,1.086,1.825,1.825,0,0,0,2.243.637,1.743,1.743,0,0,0,1.089-2.138c-.616-1.463-.123-2.768.246-4.124a9.4,9.4,0,0,0,.505-4.859,5.974,5.974,0,0,0-2.013-3.3c-1.457-1.192-1.483-1.221-.864-3.062,1.154-1.449,2.562-2.662,3.764-4.072s1.307-1.951.159-3.4c-.855-1.081-1.88-2.018-2.686-3.143a1.582,1.582,0,0,1-.147-1.318c.507-.3.814.13,1.143.35a24.69,24.69,0,0,1,6.623,6.587,24.374,24.374,0,0,1,2.768,5,25.6,25.6,0,0,1,1.989,10.766c.04,1.125.031,2.249.008,3.373q.064,5.857,0,11.714c-.008,2.411.022,4.824-.013,7.236a4.416,4.416,0,0,1-2.92,4.263c-.25.135-.565,0-.8.193" transform="translate(-30.629 -69.614)" fill="#3cd8ce"/>
        <path id="Trazado_135557" data-name="Trazado 135557" d="M165.812,236.441c.14-.239.379-.2.6-.211a6.048,6.048,0,0,1,2.074-.327q11.435.01,22.87.01a2.409,2.409,0,0,1,1.738.319c.007.069.014.139.021.208Z" transform="translate(-93.403 -132.884)" fill="#90a6ec"/>
        <path id="Trazado_135558" data-name="Trazado 135558" d="M27.191,236.242c.219.014.457-.027.6.211H.488l.021-.208a1.78,1.78,0,0,1,1.335-.319q11.788-.013,23.576-.007a5.494,5.494,0,0,1,1.771.324" transform="translate(-0.275 -132.895)" fill="#90a6ec"/>
        <path id="Trazado_135559" data-name="Trazado 135559" d="M67.7,5.564a26.571,26.571,0,0,1,8.187-4.472A21.774,21.774,0,0,1,92.377,2.228a17.36,17.36,0,0,1,5.25,4.643c1.979,2.287,2.544,5.08,2.7,7.96.231,4.167-.239,8.332-.19,12.5a1.128,1.128,0,0,1-.335,1.011c-.58-.186-.417-.694-.426-1.085-.032-1.412-.03-2.826-.006-4.239a2.554,2.554,0,0,0-.74-1.9c-1.168-1.253-2.318-2.526-3.435-3.827-.564-.657-1.082-.648-1.839-.242a28.165,28.165,0,0,1-13.017,3.5,28.936,28.936,0,0,1-11.261-1.877,3,3,0,0,0-.887-.169c-1.294-.98-2.909-1.432-4.146-2.508a12.119,12.119,0,0,0-2.462-1.545c-1.734-1.049-1.866-2.778-.273-4.009q2.275-1.757,4.56-3.5A3.114,3.114,0,0,1,67.7,5.564" transform="translate(-33.91 0)" fill="#804f67"/>
        <path id="Trazado_135560" data-name="Trazado 135560" d="M30.81,94.581a44.276,44.276,0,0,0-4.092,5.844,3.559,3.559,0,0,1-1.906-.8c-5.718-3.21-11.476-6.349-17.193-9.56A4.815,4.815,0,0,0,.6,92.154c-.131.242-.148.623-.575.588q0-10.2,0-20.4c0-3.744,3.562-7.6,7.257-8.153a10.568,10.568,0,0,1,6.983,1.559c2.718,1.524,5.508,2.92,8.271,4.365,2.137,1.118,4.285,2.214,6.409,3.356a2.077,2.077,0,0,0,1.048.259q2.423-.014,4.846-.018a4.963,4.963,0,0,1,1.417,3.093,1.42,1.42,0,0,1-.965.215,8.236,8.236,0,0,0-6.918,3.709,2.677,2.677,0,0,1-.645.769,5.466,5.466,0,0,1-2.6-.562,1.574,1.574,0,0,1-.466-.752,4.763,4.763,0,0,0-3.348-3.156.961.961,0,0,1-.588-.35A1.691,1.691,0,0,0,18.941,75.4a5.564,5.564,0,0,1-1.681-.334c-2.382-.819-5.308.424-6.808,2.921a6.392,6.392,0,0,0,.667,7.358,6.007,6.007,0,0,0,3.106,1.972,2.612,2.612,0,0,1,1.208.48,3.748,3.748,0,0,0,4.138,2.648,1.3,1.3,0,0,0,.5-.079,2.092,2.092,0,0,1,2.575.262c.52.431,1.387.093,1.851-.524a1.89,1.89,0,0,0-.137-2.329,2.867,2.867,0,0,0-.74-.52c-.806-.592-.756-.816.3-1.361a5.251,5.251,0,0,1,2.428.691,4.136,4.136,0,0,1,.415,1.539,9,9,0,0,0,3.409,5.625c.276.212.664.37.638.828" transform="translate(-0.012 -36.101)" fill="#f0f0f0"/>
        <path id="Trazado_135561" data-name="Trazado 135561" d="M154.922,113.949a33.6,33.6,0,0,0-2.708-4.866c.186-.565.691-.488,1.1-.477,2.521.072,5.042.183,7.563.273,2.924.1,5.846.3,8.773.293,1.436,0,2.076-.662,2.1-2.021.065-4.24.328-8.477.211-12.72-.009-.336.008-.674-.03-1.009a2.022,2.022,0,0,0-2.02-1.988c-2.376-.285-4.771-.3-7.153-.383-5.614-.189-11.219-.6-16.838-.664a6.107,6.107,0,0,1-1.688-.277.444.444,0,0,1-.242-.722c.705-1.174,1.245-2.432,1.888-3.638a.308.308,0,0,1,.261-.12q6.713.007,13.425.017a1.722,1.722,0,0,0,.969-.21c1.547-.208,3.113.028,4.66-.2.1.562.546.4.883.4,1.718.013,3.436.018,5.153,0a9.358,9.358,0,0,1,8.008,3.666,7.66,7.66,0,0,1,1.728,4.644q.008,12.025,0,24.05c-.516-.041-.574-.509-.756-.84a5.1,5.1,0,0,0-4.8-2.908c-6.28.028-12.56.012-18.84.007a2.383,2.383,0,0,1-1.644-.312" transform="translate(-81.05 -48.015)" fill="#f1f1f1"/>
        <path id="Trazado_135562" data-name="Trazado 135562" d="M109.339,74.265a25.812,25.812,0,0,1-2.2,4.264c-.6,1.488-1.931,2.334-3.023,3.381a16,16,0,0,1-2.673,1.749A15.82,15.82,0,0,1,87,83.654a17.43,17.43,0,0,1-5.924-5.123,1.956,1.956,0,0,1-.607-1.227l-1.388-3.041-.48-2.039c-.144-.431.179-.585.461-.739.457-.251.917-.5,1.362-.768a9.859,9.859,0,0,0,1.479-.686c2.68-1.409,5.449-2.635,8.167-3.966a9.066,9.066,0,0,1,8.181-.054c2.86,1.345,5.724,2.685,8.526,4.149.477.259.96.508,1.455.733.5.428,1.391.312,1.615,1.136l-.511,2.237" transform="translate(-44.258 -36.65)" fill="#00a89d"/>
        <path id="Trazado_135563" data-name="Trazado 135563" d="M173.741,194.911q0-5.956,0-11.911a1.743,1.743,0,0,1,1.331-.33q10.576-.012,21.152,0a1.8,1.8,0,0,1,1.337.314q0,5.975.006,11.951a1.811,1.811,0,0,1-1.337.317q-10.579.011-21.158,0a1.71,1.71,0,0,1-1.327-.34" transform="translate(-97.868 -102.896)" fill="#a3b5f6"/>
        <path id="Trazado_135564" data-name="Trazado 135564" d="M24.354,183l0,11.731a1.791,1.791,0,0,1-1.34.318q-10.566.012-21.132,0a1.794,1.794,0,0,1-1.342-.31q0-5.878-.007-11.755a1.8,1.8,0,0,1,1.337-.314q10.576-.012,21.152,0a1.742,1.742,0,0,1,1.331.33" transform="translate(-0.301 -102.896)" fill="#a3b5f6"/>
        <path id="Trazado_135565" data-name="Trazado 135565" d="M.543,210.3l23.814-.008c.007,2.081.107,4.167,0,6.242a5.067,5.067,0,0,0,2.865,5.271l-26.682,0L.543,210.3" transform="translate(-0.302 -118.461)" fill="#748fe7"/>
        <path id="Trazado_135566" data-name="Trazado 135566" d="M170.047,210.709l23.822.023q0,5.656-.007,11.311l-26.682,0a5.065,5.065,0,0,0,2.865-5.282c-.109-2.011-.007-4.033,0-6.05" transform="translate(-94.174 -118.694)" fill="#748fe7"/>
        <path id="Trazado_135567" data-name="Trazado 135567" d="M.013,125a15.892,15.892,0,0,1,1.195-1.952c1.721-2.107,4.645-2.1,6.866-.8,3.332,1.951,6.733,3.783,10.1,5.667q4.265,2.384,8.528,4.77a36.857,36.857,0,0,0-2.107,6.446q-.25,1.472-.5,2.943c-.783.153-1.341-.372-1.941-.7-2.666-1.442-5.367-2.82-8.027-4.273-3.695-1.931-7.347-3.941-11.05-5.857C1.747,130.555.535,129.7.233,128.066A9.606,9.606,0,0,1,.013,125" transform="translate(0 -68.358)" fill="#dfdfdf"/>
        <path id="Trazado_135568" data-name="Trazado 135568" d="M169.162,150.974c6.822,0,13.644.036,20.465-.009a5.354,5.354,0,0,1,5.267,3.447c.1.208.2.41.307.615a12.8,12.8,0,0,1-.2,3.225A5.264,5.264,0,0,1,189.549,162c-4.809.027-9.619.007-14.428.008-.908,0-1.816.007-2.724,0a1.631,1.631,0,0,1-1.234-.317,27.866,27.866,0,0,0-2-10.715" transform="translate(-95.29 -85.04)" fill="#dfdfdf"/>
        <path id="Trazado_135569" data-name="Trazado 135569" d="M14.475,156.584q4.415,2.316,8.831,4.629c.356.187.725.35,1.089.525q-.021,3.2-.041,6.392L.534,168.115q0-5.753,0-11.506a1.739,1.739,0,0,1,1.325-.335c3.616-.01,7.232,0,10.847-.006a5.735,5.735,0,0,1,1.769.315" transform="translate(-0.3 -88.028)" fill="#748fe7"/>
        <path id="Trazado_135570" data-name="Trazado 135570" d="M34.13,21.645c.222.2.436.405.667.591a5.711,5.711,0,0,1,1.759,6.714c-.435,1.051-.728,2.518-1.538,2.952-.751.4-1.942-.7-2.934-1.153-2.413-1.1-4.8-2.251-7.215-3.34-.556-.251-.716-.485-.38-1.027a7.429,7.429,0,0,0,.559-1.182c1.105-2.788,2.942-4.757,7.071-4.339a2.536,2.536,0,0,1,2.011.784" transform="translate(-13.696 -11.719)" fill="#feb200"/>
        <path id="Trazado_135571" data-name="Trazado 135571" d="M173.739,171.09c6.227,0,12.454.027,18.68,0a5.178,5.178,0,0,0,4.559-2.52c.2-.307.4-.609.6-.913l-.022,6.874-23.819.016q0-1.727,0-3.455" transform="translate(-97.868 -94.441)" fill="#748fe7"/>
        <path id="Trazado_135572" data-name="Trazado 135572" d="M175.113,69.2c.045-.6-.346-.617-.788-.614-1.448.01-2.9-.017-4.344.013-.7.015-.972-.261-.947-.955.033-.942.021-1.886,0-2.828-.011-.573.184-.882.809-.881q7.88.012,15.76,0c.531,0,.83.188.826.759-.008,1.044-.01,2.088,0,3.132.007.65-.376.772-.921.768-1.549-.013-3.1.029-4.646-.022a1.047,1.047,0,0,0-1.1.628,7.429,7.429,0,0,0-4.652,0" transform="translate(-95.217 -36.013)" fill="#f0f0f0"/>
        <path id="Trazado_135573" data-name="Trazado 135573" d="M144.4,43.24l-1.435-.669c-.011-.032-.04-.072-.03-.094A20.027,20.027,0,0,1,146.3,37.2a.771.771,0,0,0,.175-.658c-.079-4.307.35-8.608.17-12.914a15.133,15.133,0,0,0-2.135-7.262,1.154,1.154,0,0,1-.274-.634c4.453,3.1,6.4,7.446,6.365,12.785a21.85,21.85,0,0,1-1.088,6.024,10.014,10.014,0,0,1-1.653,3.7c-.406.73-.92,1.4-1.38,2.1-.5.755-.956,1.539-1.46,2.293-.164.245-.262.558-.617.609" transform="translate(-80.515 -8.863)" fill="#5a2c42"/>
        <path id="Trazado_135574" data-name="Trazado 135574" d="M14.475,145.576.533,145.6q0-4.437,0-8.874A6.875,6.875,0,0,0,3.689,139.8c3.615,1.887,7.193,3.843,10.786,5.771" transform="translate(-0.3 -77.019)" fill="#a3b5f6"/>
        <path id="Trazado_135575" data-name="Trazado 135575" d="M76.165,54.211a3.7,3.7,0,0,1-1.382.673c-.58-.155-.774-.69-1.056-1.119-.381-.58-.844-1.1-1.24-1.663a26.353,26.353,0,0,1-2.8-4.737,1.557,1.557,0,0,1-.216-.861,24.843,24.843,0,0,1-1.1-5.592,17.351,17.351,0,0,1,.273-4.3c1.332.466,2.46,1.337,3.752,1.885.244.1.279.359.334.588a1.375,1.375,0,0,1,.209,1.151,75.449,75.449,0,0,0-.158,7.736,2.711,2.711,0,0,0,.588,1.677c.761,1.063,1.5,2.145,2.251,3.213.283.4.67.775.548,1.347" transform="translate(-38.503 -20.625)" fill="#5a2c42"/>
        <path id="Trazado_135576" data-name="Trazado 135576" d="M44.2,14.027l-2.011-.784A9.747,9.747,0,0,1,57.558,9.665a10.388,10.388,0,0,1-1.83,1.369A7.586,7.586,0,0,0,44.2,14.027" transform="translate(-23.764 -4.101)" fill="#fe8f00"/>
        <path id="Trazado_135577" data-name="Trazado 135577" d="M150.235,64.507a39.831,39.831,0,0,0,3.215-5.7,4.5,4.5,0,0,1,2.172,4.862,4.674,4.674,0,0,1-4.025,3.649c-.466.028-.936,0-1.4-.008-.613-.944.031-1.868.043-2.8" transform="translate(-84.456 -33.125)" fill="#ed9f9f"/>
        <path id="Trazado_135578" data-name="Trazado 135578" d="M68.285,59.26a47.3,47.3,0,0,0,3.185,5.5c-.005.94.65,1.872.031,2.818a4.633,4.633,0,0,1-5.242-4.853,3.955,3.955,0,0,1,2.026-3.467" transform="translate(-37.314 -33.382)" fill="#ed9f9f"/>
        <path id="Trazado_135579" data-name="Trazado 135579" d="M182.415,75.174a1.011,1.011,0,0,1,1.086-.627c.961.061,1.929.031,2.894.011.451-.009.705.131.673.617q-.206,2.019-.412,4.039c-.12.114-.236.321-.359.325a13.175,13.175,0,0,1-4.3-.126l.419-4.239" transform="translate(-102.52 -41.991)" fill="#dfdfdf"/>
        <path id="Trazado_135580" data-name="Trazado 135580" d="M78.035,74.675c.177-.942-.486-1.874-.031-2.818a26.311,26.311,0,0,1,2.125,2.879c-.539.6-1.575.459-1.935,1.316-.3-.431-.095-.919-.159-1.376" transform="translate(-43.849 -40.478)" fill="#fad7c8"/>
        <path id="Trazado_135581" data-name="Trazado 135581" d="M148.186,71.862c.428.941-.214,1.865-.043,2.8-.052.4.114.822-.144,1.2l-1.709-1,1.9-3" transform="translate(-82.406 -40.48)" fill="#fbd7c7"/>
        <path id="Trazado_135582" data-name="Trazado 135582" d="M130.634,100.753a19.549,19.549,0,0,0,5.631-4.851c4.932.275,9.869.45,14.805.643,2.953.116,5.9.326,8.861.385.9.018,1.811.095,2.711.2a2.188,2.188,0,0,1,1.938,2.229c.1,4.781-.1,9.56-.19,14.339a1.948,1.948,0,0,1-1.955,1.81c-3.128.043-6.247-.176-9.368-.348-.134-.007-.269-.032-.4-.028-2.358.086-4.7-.2-7.059-.214-.357,0-.748-.123-1.061.175a25.574,25.574,0,0,0-7.465-7.03c-1.073-.117-1.83-.918-2.788-1.285a22.727,22.727,0,0,0-2.894-1.143c-.375-.12-.793-.2-.97-.638-.1-1.423-.387-2.854.206-4.242" transform="translate(-73.382 -54.022)" fill="#a3b5f6"/>
        <path id="Trazado_135583" data-name="Trazado 135583" d="M98.319,157.589c-.074.337-.21.372-.445.11q-4.56-5.085-9.125-10.166c.3-.363.735-.271,1.122-.331a3.207,3.207,0,0,0,2.72-2.612,2.912,2.912,0,0,0-1.592-3.2A2.955,2.955,0,0,1,89.289,139c-.8-4.2-1.56-8.4-2.463-12.574a12.757,12.757,0,0,1,.373-7.152,4.506,4.506,0,0,0,.232-.877c.1-.366.436-.465.721-.62a13.418,13.418,0,0,1,2.243-.848c.377-.113.773-.276,1.119.091.706,2.362.9,4.821,1.362,7.227.275,1.419.509,2.846.757,4.27,1.521,8.976,3.09,17.945,4.635,26.916.121.7.484,1.427.05,2.152" transform="translate(-48.719 -65.792)" fill="#00a89d"/>
        <path id="Trazado_135584" data-name="Trazado 135584" d="M73.387,104.655l-.543.315a4.84,4.84,0,0,1-2.676,1.488,27.106,27.106,0,0,0-5.426,4.442,9.721,9.721,0,0,1-4.483-7.888c.068-.079.167-.157.256-.131,1.56.463,2.664-.617,3.924-1.157.455-.2.459-.539.182-.9-.512-.666-.977-1.364-1.434-2.066-.377-.58-1.223-.4-1.543-1.032a8.357,8.357,0,0,1,7.208-4.656c.433-.032.871,0,1.307,0a18.729,18.729,0,0,0,6.456,6.071,1.514,1.514,0,0,1,.148,1.522c-.239.349-.59.223-.913.21a2.014,2.014,0,0,0-2.369,2.081,11.9,11.9,0,0,1-.093,1.7" transform="translate(-33.945 -52.42)" fill="#a3b5f6"/>
        <path id="Trazado_135585" data-name="Trazado 135585" d="M107.193,172.094q-1.18-6.906-2.359-13.813-1.3-7.657-2.593-15.314c.325-.459.595-.057.817.1a7.261,7.261,0,0,0,9.206-.186c.241-.18.489-.524.862-.19A4.521,4.521,0,0,1,113,144.97c-.21,1.533-.49,3.056-.75,4.58a27.687,27.687,0,0,0-2.436,6.915,2.109,2.109,0,0,1-.731,1.059c-1.571,1.351-1.349,2.777.554,3.632a.88.88,0,0,1,.483.343,1.811,1.811,0,0,1,.029,1.087c-.475,2.738-.856,5.492-1.336,8.23-.079.45-.075.948-.487,1.278-.248.173-.043.681-.568.682s-.315-.511-.564-.683" transform="translate(-57.593 -80.298)" fill="#fefefe"/>
        <path id="Trazado_135586" data-name="Trazado 135586" d="M116.173,181.194q.77-4.818,1.538-9.636c.052-.331.091-.664.137-1a.712.712,0,0,1,.379-.312c1.494-.764,1.786-1.465,1.21-3a2.221,2.221,0,0,1-.076-1.479c.372-1.225.625-2.483,1-3.707a4.586,4.586,0,0,1,8.979.646,3,3,0,0,1-.028,1c-.274,1.563-.808,3.061-1.166,4.6a1.2,1.2,0,0,1-.38.7,7.806,7.806,0,0,0-1.706,2.075,16.3,16.3,0,0,0-2.517,2.551c-2.028,2.135-3.979,4.341-5.956,6.523-.337.371-.65.763-.974,1.146-.228.269-.372.218-.442-.116" transform="translate(-65.441 -89.397)" fill="#00a89d"/>
        <path id="Trazado_135587" data-name="Trazado 135587" d="M125.327,149.453a1.957,1.957,0,0,1,.916-1.7,2.079,2.079,0,0,0,1.029-1.606c.309-1.3.715-2.585.98-3.9a4.249,4.249,0,0,0-3.1-4.861,4.343,4.343,0,0,0-5.2,2.884c-.413,1.38-.743,2.785-1.136,4.171a1.355,1.355,0,0,0,.107,1.053c.852,1.725.121,3.091-1.809,3.432a2.24,2.24,0,0,1-2.178-1.764,2.158,2.158,0,0,1,1.2-2.419,1.264,1.264,0,0,0,.563-.883c.327-1.23.683-2.453.983-3.69a8.946,8.946,0,0,1,1.44-2.962c.92-1.651,2.511-2.142,4.215-2.347,1.32-.159,1.329-.1,1.589-1.405.347-1.747.669-3.5,1.058-5.238a12.174,12.174,0,0,0-.336-6.756c-.128-.374-.429-.813.073-1.171l2.69,1.507.26,1.394a5.1,5.1,0,0,1,.381,3.418c-.2,2-.7,3.95-1.074,5.922a6.334,6.334,0,0,1-.513,1.189,3.565,3.565,0,0,1-.12.489,1.719,1.719,0,0,0,.745,2.311,6.152,6.152,0,0,1,2.249,6.732c-.224.979-.485,1.951-.773,2.913a3.335,3.335,0,0,0,.03,2.68,2.1,2.1,0,0,1-1.631,2.828c-1.33.264-2.412-.648-2.631-2.219" transform="translate(-64.706 -67.761)" fill="#5a2c42"/>
        <path id="Trazado_135588" data-name="Trazado 135588" d="M82.064,121.824l2.675-1.487c.085,1.09-.517,2.022-.711,3.056a17.042,17.042,0,0,0,.5,6.48c.769,3.983,1.583,7.956,2.354,11.938a1.1,1.1,0,0,0,.7.977c1.892.788,2.746,2.213,2.405,3.895q-.571,2.818-3.808,2.827c-.1,0-.2.011-.3.017a3.955,3.955,0,0,1-2.79-3.051,2.533,2.533,0,0,1,.771-2.826,1.982,1.982,0,0,0,.484-1.923,19.334,19.334,0,0,1-.706-4.772l-.994-5.066a17.749,17.749,0,0,1-1.253-7.364,1.4,1.4,0,0,1,.275-.747l.407-1.955" transform="translate(-45.84 -67.787)" fill="#5a2c42"/>
        <path id="Trazado_135589" data-name="Trazado 135589" d="M148.49,201.813a20.884,20.884,0,0,1-1.189,5.571,1.261,1.261,0,0,1-1.285.936c-.686-.022-.988-.507-1.1-1.119-.151-.825-.273-1.656-.413-2.482-.08-.475-.3-.834-.839-.836s-.751.346-.855.821c-.179.82-.39,1.632-.568,2.452-.132.608-.406,1.088-1.076,1.164a1.233,1.233,0,0,1-1.317-.885,12.424,12.424,0,0,1-1.05-7.072,2.449,2.449,0,0,1,3.392-1.975,3.476,3.476,0,0,0,2.359.11c2.185-.736,3.4,0,3.821,2.286.066.362.086.731.119,1.028" transform="translate(-78.105 -111.655)" fill="#fefefe"/>
        <path id="Trazado_135590" data-name="Trazado 135590" d="M82.32,158.394c.387,1.9.767,3.794,1.17,5.686a.576.576,0,0,1-.266.673,3.821,3.821,0,0,0-1.453,3.162c-.778-.822-1.618-1.595-2.314-2.481a2.011,2.011,0,0,1-.041-2.364c.944-1.573,1.933-3.119,2.9-4.676" transform="translate(-44.531 -89.225)" fill="#00a89d"/>
        <path id="Trazado_135591" data-name="Trazado 135591" d="M143.7,137.463c.407-2.241.806-4.483,1.226-6.722a13.07,13.07,0,0,0-.02-3.807,36.21,36.21,0,0,1,3.205,3.592,1.914,1.914,0,0,1-.241,2.58,56.778,56.778,0,0,1-4.17,4.358" transform="translate(-80.947 -71.503)" fill="#00a89d"/>
        <path id="Trazado_135592" data-name="Trazado 135592" d="M78.344,128.22c-.214,2.769.545,5.421.977,8.112-.927-.762-1.867-1.508-2.778-2.288-1.339-1.147-1.391-2.407-.179-3.714a12.427,12.427,0,0,1,1.979-2.11" transform="translate(-42.527 -72.227)" fill="#00a89d"/>
        <path id="Trazado_135593" data-name="Trazado 135593" d="M81.589,54.614c-1.046-1.521-2.088-3.044-3.143-4.559a1.975,1.975,0,0,1-.457-1.194c.063-3.123-.14-6.251.162-9.37.217-.441.515-.256.832-.129a28.345,28.345,0,0,0,13.164,1.878,27.17,27.17,0,0,0,11.533-3.664c.614-.359.956-.35,1.427.194,1.364,1.579,2.773,3.12,4.191,4.651a1.585,1.585,0,0,1,.417,1.187c-.011,1.919,0,3.839,0,5.758l-3.333,5.371c-2.663-1.286-5.345-2.534-7.984-3.866a9.439,9.439,0,0,0-9.083.047c-2.538,1.3-5.144,2.469-7.72,3.7" transform="translate(-43.927 -21.028)" fill="#fdd8c8"/>
        <path id="Trazado_135594" data-name="Trazado 135594" d="M41.552,101.39c-.188.3-1.244.4-.219.976-1.315.621-2.6,1.377-4.154.989-.058-.035-.141-.074-.147-.128-.206-1.677-1.361-2.241-2.823-2.677-1.044-.312-2.173-.8-2.433-2.128.32-.362.683-.1,1.028-.065s.693.259,1.124.029a15.624,15.624,0,0,1-2.561-2.658c.045-.4.387-.528.679-.661a8.957,8.957,0,0,0,3.945-3.419.814.814,0,0,1,.384-.31,2.835,2.835,0,0,1,2.114.535c1.383.5,2.752,1.015,3.524,2.419a6.376,6.376,0,0,1,.744,1.85,1.436,1.436,0,0,1,.357.471,5.786,5.786,0,0,1-1.562,4.777" transform="translate(-17.669 -51.434)" fill="#fdd8c8"/>
        <path id="Trazado_135595" data-name="Trazado 135595" d="M26.131,96.477a4.728,4.728,0,0,0,3.258,2.284c1.6.44,2.043.99,2.046,2.611-.444.432-1.007.274-1.531.314a10.319,10.319,0,0,0-1.844.028,1.074,1.074,0,0,1-.745-.315A8.062,8.062,0,0,1,23.2,99.408,6.481,6.481,0,0,1,21.692,92.5a6.276,6.276,0,0,1,5.4-4.4c1.342-.194,2.574.413,3.865.6.38.478-.05.706-.305.986a8.464,8.464,0,0,1-3.924,3.645c-.321.16-.722.2-.928.56-.485.481-.349,1-.111,1.538.153.35.528.61.443,1.058" transform="translate(-11.985 -49.603)" fill="#804f67"/>
        <path id="Trazado_135596" data-name="Trazado 135596" d="M54.689,107.627a6.575,6.575,0,0,0,1.205-5.248l2.613.6c2.043.26,2.42,2.226,3.514,3.453.267.3-.028.479-.276.6-.959.486-1.913.981-2.882,1.445-.612.293-1.152-.207-1.741-.22l-2.433-.635" transform="translate(-30.807 -57.671)" fill="#fec4b6"/>
        <path id="Trazado_135597" data-name="Trazado 135597" d="M35.107,117.492l.655.191c.589-.078,1.211.147,1.772-.194l1.692-.024a4.427,4.427,0,0,0,2.782-.532,2.7,2.7,0,0,1,1.431-.307,2.06,2.06,0,0,1,1.427,2.452,1.889,1.889,0,0,1-3.2,1.014c-.407-.4-.629-.362-1.08-.132a3.815,3.815,0,0,1-5.483-2.469" transform="translate(-19.776 -65.696)" fill="#5a2c42"/>
        <path id="Trazado_135598" data-name="Trazado 135598" d="M42.741,90.464l.306-.986A1.519,1.519,0,0,1,44.9,90.83c-.744.028-1.4-.442-2.155-.366" transform="translate(-24.076 -50.391)" fill="#eba0a1"/>
        <path id="Trazado_135599" data-name="Trazado 135599" d="M110.031,122.55a7.95,7.95,0,0,1-5.893,2.278,8.036,8.036,0,0,1-4.32-1.654c-.171-.121-.276-.425-.576-.23q-1.111-5.717-1.975-11.474a3.125,3.125,0,0,1,0-2.867l0-1.6a16.225,16.225,0,0,0,14.581,0q.012,2.228.024,4.456a1.342,1.342,0,0,1,.135,1.155c-.51,2.935-.906,5.888-1.439,8.819-.075.414-.048.893-.535,1.117" transform="translate(-54.594 -60.273)" fill="#fec4b6"/>
        <path id="Trazado_135600" data-name="Trazado 135600" d="M125.624,128.3q.7-4.105,1.4-8.211c.161-.957.293-1.92.439-2.88a13.92,13.92,0,0,1,3.734,1.345c-.226.572.18,1.02.332,1.5a12.027,12.027,0,0,1,.3,6.055c-.435,2.2-.9,4.393-1.325,6.594-.079.413-.152.687-.664.648a6.687,6.687,0,0,0-5.237,2.116q.457-3.035.912-6.071c.054-.364.077-.733.114-1.1" transform="translate(-70.187 -66.028)" fill="#00a89d"/>
        <path id="Trazado_135601" data-name="Trazado 135601" d="M93.238,110.407l.005,2.867a14.216,14.216,0,0,0-3.231,1.038,3.669,3.669,0,0,1,.268-3.177c.7-1.2,1.843-1,2.958-.728" transform="translate(-50.569 -62.077)" fill="#fdd8c8"/>
        <path id="Trazado_135602" data-name="Trazado 135602" d="M91.147,178.784a1.569,1.569,0,0,1-1.719-1.563,1.633,1.633,0,0,1,1.733-1.673,1.751,1.751,0,0,1,1.681,1.649,1.565,1.565,0,0,1-1.695,1.587" transform="translate(-50.375 -98.887)" fill="#693b51"/>
        <path id="Trazado_135603" data-name="Trazado 135603" d="M129.2,50.526a5.393,5.393,0,0,1,2.9.844c.444.28.741.661.441,1.173a.8.8,0,0,1-1.225.237,3.479,3.479,0,0,0-4.066-.013A.824.824,0,0,1,126,52.584c-.327-.492-.067-.881.385-1.176a5.3,5.3,0,0,1,2.814-.882" transform="translate(-70.893 -28.462)" fill="#5b2d43"/>
        <path id="Trazado_135604" data-name="Trazado 135604" d="M90.706,50.526a5.386,5.386,0,0,1,2.892.846c.441.278.745.651.436,1.168a.8.8,0,0,1-1.225.239,3.483,3.483,0,0,0-4.068-.013.82.82,0,0,1-1.242-.181c-.324-.5-.063-.886.386-1.18a5.293,5.293,0,0,1,2.821-.879" transform="translate(-49.208 -28.462)" fill="#5b2d43"/>
        <path id="Trazado_135605" data-name="Trazado 135605" d="M133.254,65.59a1.343,1.343,0,1,1-2.634.044,1.532,1.532,0,0,1,1.352-1.69,1.513,1.513,0,0,1,1.282,1.646" transform="translate(-73.579 -36.02)" fill="#5b2d43"/>
        <path id="Trazado_135606" data-name="Trazado 135606" d="M94.8,65.773a1.5,1.5,0,0,1-1.307,1.542,1.474,1.474,0,0,1-1.327-1.607A1.365,1.365,0,0,1,93.5,64.249,1.424,1.424,0,0,1,94.8,65.773" transform="translate(-51.916 -36.192)" fill="#5b2e43"/>
        <path id="Trazado_135607" data-name="Trazado 135607" d="M31.109,103.989a3.617,3.617,0,0,1-.954-1.743c-.118-.512-.007-.876.622-.853l3.044,2.88c-1.066.4-1.874-.078-2.712-.283" transform="translate(-16.963 -57.115)" fill="#6b3c53"/>
        <path id="Trazado_135608" data-name="Trazado 135608" d="M38.379,118.559c-.531.606-1.145.457-1.772.194.551-.425,1.183-.114,1.772-.194" transform="translate(-20.621 -66.765)" fill="#e49899"/>
      </g>
    </g>
  </g>
</svg>
