<svg xmlns="http://www.w3.org/2000/svg" xmlns:xlink="http://www.w3.org/1999/xlink" width="173" height="116" viewBox="0 0 173 116">
  <defs>
    <clipPath id="clip-path">
      <rect id="Rect치ngulo_38069" data-name="Rect치ngulo 38069" width="98.859" height="95.109" fill="none"/>
    </clipPath>
  </defs>
  <g id="_115" data-name="115" transform="translate(-294.275 -3297)">
    <rect id="Rect치ngulo_36141" data-name="Rect치ngulo 36141" width="173" height="116" transform="translate(294.275 3297)" fill="none"/>
    <g id="Grupo_158911" data-name="Grupo 158911" transform="translate(331.275 3307)">
      <g id="Grupo_158910" data-name="Grupo 158910" clip-path="url(#clip-path)">
        <path id="Trazado_135609" data-name="Trazado 135609" d="M152.917,61.86c-.637,1.816-1.288,3.627-1.9,5.453-.091.273-.477.609-.023.921-.988,2.475-1.7,5.057-2.9,7.449a1,1,0,0,1-.38.42c-.282.072-.384.326-.53.532a15.234,15.234,0,0,1-18.263,5.6q-1.708-.628-3.418-1.25a14.942,14.942,0,0,1-7.864-11.44,11.465,11.465,0,0,1,.048-4.2c.295-.326.7-.261,1.07-.278a1.568,1.568,0,0,0,1.524-.957c.272-.666-.187-1.136-.557-1.618-.3-.4-.928-.475-1.038-1.059.324-.889.621-1.788.988-2.66.178-.424.381-.809.924-.814,1.006.08,1.546.831,2.124,1.509.732.858,1.174,1.055,1.64.674s.4-1.11-.134-1.918a5.835,5.835,0,0,0-2.45-1.948c-.333-.162-.757-.229-.859-.688a27.7,27.7,0,0,1,1.489-4.57c.89-2.616,1.8-5.227,2.772-7.816.145-.388.242-.812.678-1.006a2.07,2.07,0,0,1,1.307.205c7.89,2.82,15.8,5.568,23.689,8.4,1.4.5,1.493.7.951,2.12-.424,1.111-.793,2.239-1.167,3.367a4.014,4.014,0,0,0,1.839,5.208,1.453,1.453,0,0,1,.439.367" transform="translate(-62.381 -22.38)" fill="#c28859"/>
        <path id="Trazado_135610" data-name="Trazado 135610" d="M41.844,78.218c.12-.041.247-.132.357-.115,1.877.282,3.467-.544,5.128-1.218a15.333,15.333,0,0,1,10.7-.6,13.943,13.943,0,0,0,4.093,3.786c.422.231.278.89.262,1.364a14.985,14.985,0,0,0,5.83,12.5c.483.379,1.16.591,1.312,1.311a72.937,72.937,0,0,1,.916,7.308.752.752,0,0,1-.426.483,3.213,3.213,0,0,0-1.654,2.314c-.039.238-.078.522-.426.537a9.644,9.644,0,0,1-1.207-2.805c-.785-2.007-.768-2.064-2.879-2a13.207,13.207,0,0,1-8.14-2.8,18.922,18.922,0,0,1-3.124-2.714c-.455-.5-.733-.457-1.053.158-1.9,3.654-4.779,6.5-7.8,9.21a66.89,66.89,0,0,1-6.493,4.991,2.865,2.865,0,0,1-1.359.69.745.745,0,0,1-.289-.071,11.609,11.609,0,0,1-2.816-3.518,20.125,20.125,0,0,1-2.357-15.607A16.956,16.956,0,0,1,36.749,82.2a23.545,23.545,0,0,1,6.925-3.84c-.423.037-1.144.39-1.83-.142" transform="translate(-15.802 -40.139)" fill="#f3dc45"/>
        <path id="Trazado_135611" data-name="Trazado 135611" d="M42.832,132.215a62.212,62.212,0,0,0,10.087-7.992,26.308,26.308,0,0,0,5.553-7.329c.294-.62.52-.566.937-.115a19.56,19.56,0,0,0,6.722,4.878,12.132,12.132,0,0,0,6.221.793c.492-.055.671.015.832.473.543,1.54,1.133,3.063,1.706,4.593a1.112,1.112,0,0,1,.553.632,49.59,49.59,0,0,1,2.343,6.757,1.19,1.19,0,0,1,0,.38c-.362.388-.045.793-.026,1.189A15.379,15.379,0,0,1,67.121,152.23a18.269,18.269,0,0,1-2.5.962c-.859.029-1.651.436-2.509.454a15.529,15.529,0,0,1-11.325-4.192,8.718,8.718,0,0,1-2.478-3.136c0-.383.272-.632.456-.925a1.372,1.372,0,0,0-.95-2.292c-.4-.094-.839-.005-1.194-.282-.491-1.2-1.248-2.321-1.194-3.7.65-.714,1.488-.386,2.263-.4a2.49,2.49,0,0,1,.654.156.9.9,0,0,0,1.179-.554c.227-.577-.148-.938-.614-1.134a4.838,4.838,0,0,0-2.719-.426,5.671,5.671,0,0,1-1.426.2c-.063-.014-.146-.018-.178-.062a8.5,8.5,0,0,1-1.75-4.683" transform="translate(-22.746 -61.831)" fill="#fecabd"/>
        <path id="Trazado_135612" data-name="Trazado 135612" d="M162.375,42.9a4.06,4.06,0,0,1-2.752-4.919c.471-1.565,1.034-3.106,1.606-4.638.228-.612.154-.884-.516-1.117-5.305-1.843-10.6-3.724-15.892-5.6-2.783-.986-5.561-1.986-8.345-2.969-.36-.127-.74-.2-1.111-.292a.315.315,0,0,1-.081-.279c1.545-4.57,3.177-9.111,4.835-13.641a4.5,4.5,0,0,1,4.3-3.006q11.64,4.128,23.278,8.263a4.169,4.169,0,0,1,2.73,5.479c-2.622,7.529-5.3,15.04-7.953,22.557a.822.822,0,0,1-.1.161" transform="translate(-71.839 -3.418)" fill="#544f57"/>
        <path id="Trazado_135613" data-name="Trazado 135613" d="M27.056,81.19h2.119l.049.144c-.665.317-1.322.652-2,.949A21.887,21.887,0,0,0,20.066,87.2a16.606,16.606,0,0,0-4.8,11.6,21.221,21.221,0,0,0,4.569,13.459c.329.431.711.821,1.069,1.229.011.531-.448.671-.777.891-2.139,1.433-4.357,2.74-6.617,3.968a1.035,1.035,0,0,0-.544,1.553c.421,1.008.826,2.025,1.175,3.062.08.239.228.528-.037.706-.206.139-.443-.04-.609-.182-.82-.7-1.873-.52-2.812-.768-1.749-2.766-3.647-5.44-5.157-8.355a29.929,29.929,0,0,1-3.491-10.428A16.828,16.828,0,0,1,6.5,90.094c4.425-4.81,10.03-7.341,16.352-8.487a19.8,19.8,0,0,1,4.2-.417" transform="translate(-1.015 -43.112)" fill="#e9b04d"/>
        <path id="Trazado_135614" data-name="Trazado 135614" d="M110.833,40.222q.015.081.037.16a3.815,3.815,0,0,0-.761,1.737c-1.385,3.858-2.727,7.732-4.082,11.6-.439.38-.974.245-1.472.25a4.994,4.994,0,0,0-2.063.355c-.5.228-.917.555-.713,1.175s.724.688,1.262.518a4.69,4.69,0,0,1,2.081-.214c.235.032.538.042.529.415-.49-.054-.6.295-.783.65-.444.855-.435,1.9-1.149,2.636-.4.185-.752-.035-1.109-.145a3.661,3.661,0,0,0-2.087-.079,1.344,1.344,0,0,0-.762,2.3,4.513,4.513,0,0,0,2.055,1.368c.32.124.708.118.929.45a19.823,19.823,0,0,0,.766,7.015,15.262,15.262,0,0,0,6.027,7.838c.335.219.775.344.93.787a78.107,78.107,0,0,1-8.79-3.248c-.2-.1-.409-.167-.614-.25A18.1,18.1,0,0,1,96,70.5a15.062,15.062,0,0,1-2.309-8.957,1.324,1.324,0,0,0-.9-1.541,6.448,6.448,0,0,1-3.218-3.425,6.734,6.734,0,0,1,.32-5.4A3.1,3.1,0,0,1,93.3,49.252a3.27,3.27,0,0,1,2.748,2.583c.041.145.11.282.2.5l2.285-6.176c.291-.233.613-.105.926-.077a4.1,4.1,0,0,0,4.414-2.835c.439-1.239.9-2.473,1.324-3.717.363-1.051.722-1.248,1.737-.861a18.112,18.112,0,0,1,3.9,1.551" transform="translate(-47.343 -20.438)" fill="#b07a4a"/>
        <path id="Trazado_135615" data-name="Trazado 135615" d="M17.973,159.292a3.678,3.678,0,0,1,3.508,1.012c-.577-1.5-1.041-2.779-1.569-4.035-.291-.693-.164-1.056.533-1.429,2.54-1.36,5-2.856,7.406-4.448a2.592,2.592,0,0,0,.341-.329l.2.01c.485,1.343.968,2.686,1.457,4.027a.887.887,0,0,0,.469.575c0,.444-.411.439-.662.588a6.24,6.24,0,0,0-2.222,2.232c-.341.576-.386,1.114.2,1.526.632.442,1.017-.01,1.341-.478a3.374,3.374,0,0,1,1.739-1.591.453.453,0,0,1,.371.03,14.536,14.536,0,0,0,.951,2.846,2.162,2.162,0,0,1,.211.812c-.165.443-.6.441-.948.544a3.988,3.988,0,0,0-2.312,1.754,1.149,1.149,0,0,0,.595,1.858,4.123,4.123,0,0,0,3.151-.288c.406-.145.736-.545,1.237-.386a15.323,15.323,0,0,0,10,6.83,13.12,13.12,0,0,0,5.592.035c.221-.05.425-.166.606.064-3.058,1.14-6,2.661-9.2,3.337a14.718,14.718,0,0,1-15.42-5.46,1.637,1.637,0,0,0-1.946-.671,6.448,6.448,0,0,1-7.952-5.682c-.174-1.4.631-2.5,2.318-3.282" transform="translate(-8.301 -79.689)" fill="#e9ab9c"/>
        <path id="Trazado_135616" data-name="Trazado 135616" d="M121.454,19.783a29.048,29.048,0,0,1-4.072-1.385c-.786-.293-1.087-.055-1.313.667-.351,1.126-.78,2.228-1.162,3.345-.973,2.847-2.85,3.931-5.756,3.314.813-2.881,1.937-5.657,2.913-8.482,1.615-4.676,3.314-9.323,4.973-13.984,1-2.8,3.228-3.886,6.016-2.9,2.5.882,5,1.775,7.5,2.664a.382.382,0,0,1-.4.332,4.22,4.22,0,0,0-3.85,3.216q-2.218,6.291-4.445,12.578a1.135,1.135,0,0,1-.4.639" transform="translate(-57.964 0)" fill="#454045"/>
        <path id="Trazado_135617" data-name="Trazado 135617" d="M114.088,144.007c-.584-1.644-1.155-3.292-1.758-4.929-.353-.957-.757-1.894-1.138-2.84a3.994,3.994,0,0,1,2.491-3.271c2.344-.519,4.072.862,4.6,3.68a6.49,6.49,0,0,1-4.2,7.36" transform="translate(-59.047 -70.554)" fill="#e9ab9c"/>
        <path id="Trazado_135618" data-name="Trazado 135618" d="M181.965,104.487c.88-2.266,1.752-4.536,2.65-6.8a7.764,7.764,0,0,1,.633-1.073A3.133,3.133,0,0,1,189.117,96a3.066,3.066,0,0,1,1.588,3.49,6.432,6.432,0,0,1-8.74,4.992" transform="translate(-96.631 -50.764)" fill="#b07a4a"/>
        <path id="Trazado_135619" data-name="Trazado 135619" d="M136.463,184.456a1.435,1.435,0,0,1-2.161,1.206c-1.745-1.075-3.438-2.238-5.108-3.427a1.456,1.456,0,0,1,1.632-2.395c1.724,1.11,3.414,2.274,5.1,3.439a1.272,1.272,0,0,1,.535,1.176" transform="translate(-68.316 -95.386)" fill="#f3dc45"/>
        <path id="Trazado_135620" data-name="Trazado 135620" d="M83.686,26a1.256,1.256,0,0,1-.7,1.274,1.354,1.354,0,0,1-1.624-.165c-1.427-1.523-2.844-3.059-4.192-4.652a1.341,1.341,0,0,1,.176-1.92,1.523,1.523,0,0,1,2.03.036c1.373,1.487,2.7,3.014,4.046,4.526a1.186,1.186,0,0,1,.267.9" transform="translate(-40.805 -10.71)" fill="#80b3fa"/>
        <path id="Trazado_135621" data-name="Trazado 135621" d="M134.876,169.743c1.241.224,2.761.454,4.259.786a1.348,1.348,0,0,1,1.077,1.592,1.386,1.386,0,0,1-1.546,1.266c-1.582-.223-3.159-.5-4.721-.836a1.376,1.376,0,0,1-1-1.724c.2-.868.822-1.163,1.934-1.084" transform="translate(-70.574 -90.134)" fill="#f3dc45"/>
        <path id="Trazado_135622" data-name="Trazado 135622" d="M76.969,37.451a1.4,1.4,0,0,1-1.928,1.468c-1.419-.582-2.818-1.218-4.2-1.89a1.351,1.351,0,0,1-.718-1.846,1.436,1.436,0,0,1,1.911-.805c1.389.573,2.753,1.206,4.114,1.843a1.242,1.242,0,0,1,.816,1.23" transform="translate(-37.169 -18.192)" fill="#80b3fa"/>
        <path id="Trazado_135623" data-name="Trazado 135623" d="M122.466,187.408a1.376,1.376,0,0,1,1.262.747c.762,1.19,1.522,2.382,2.244,3.6a1.5,1.5,0,0,1-.391,2.125,1.434,1.434,0,0,1-2.073-.55c-.795-1.206-1.572-2.426-2.3-3.675a1.433,1.433,0,0,1,1.255-2.243" transform="translate(-64.242 -99.52)" fill="#f3dc45"/>
        <path id="Trazado_135624" data-name="Trazado 135624" d="M91.794,16.68c-.031-1,.279-1.535,1-1.722a1.3,1.3,0,0,1,1.7.725c.572,1.531,1.09,3.086,1.525,4.661a1.318,1.318,0,0,1-.912,1.613,1.236,1.236,0,0,1-1.677-.533,39.061,39.061,0,0,1-1.632-4.744" transform="translate(-48.745 -7.906)" fill="#80b3fa"/>
        <path id="Trazado_135625" data-name="Trazado 135625" d="M133.239,102.084a6.8,6.8,0,0,1-6.635-8.253c.151-.665.327-.857,1.071-.584,3.736,1.37,7.494,2.681,11.26,3.964.74.252.891.511.5,1.207a6.667,6.667,0,0,1-6.2,3.666" transform="translate(-67.143 -49.454)" fill="#454045"/>
        <path id="Trazado_135626" data-name="Trazado 135626" d="M113.946,86.523a4.647,4.647,0,0,1-3.271-1.775,1.522,1.522,0,0,1,.906-2.578,4.761,4.761,0,0,1,4.793,1.677c.289.486.662.974.327,1.6a1.79,1.79,0,0,1-1.6,1.043c-.385.012-.769.021-1.153.031" transform="translate(-58.546 -43.559)" fill="#e38fb6"/>
        <path id="Trazado_135627" data-name="Trazado 135627" d="M161.843,99.758a4.432,4.432,0,0,1,3.963,1.727,1.455,1.455,0,0,1-.684,2.5,4.86,4.86,0,0,1-5.161-1.84,1.529,1.529,0,0,1,1.126-2.382,4.327,4.327,0,0,1,.756-.007" transform="translate(-84.81 -52.968)" fill="#e38fb6"/>
        <path id="Trazado_135628" data-name="Trazado 135628" d="M161.287,86.162c2.456-.136,4.055,1.116,5.264,3.014a1.177,1.177,0,0,1-.311,1.771c-.71.468-1.237.143-1.682-.514-1.308-1.931-2.444-2.328-4.674-1.673-.75.22-1.362.09-1.662-.679s.153-1.195.792-1.511a4.2,4.2,0,0,1,2.274-.408" transform="translate(-83.972 -45.745)" fill="#985e33"/>
        <path id="Trazado_135629" data-name="Trazado 135629" d="M119.47,73.452a2.976,2.976,0,0,0-2.305,0c-.963.347-1.594.192-1.885-.506-.309-.739.089-1.313,1.061-1.709a9.977,9.977,0,0,1,3.506-.286c1.352.641,2.729,1.25,3.512,2.645a2.305,2.305,0,0,1,.325.684c.105.62.094,1.206-.625,1.527-.695.311-1.111-.1-1.467-.547-.6-.746-1.095-1.581-2.123-1.811" transform="translate(-61.164 -37.672)" fill="#975e33"/>
        <path id="Trazado_135630" data-name="Trazado 135630" d="M139.165,84.667c1.435.531,2.894,1.012,4.3,1.62a1,1,0,0,1,.358,1.435,1.03,1.03,0,0,1-1.334.633c-1.272-.44-2.541-.888-3.812-1.332a1.188,1.188,0,0,1-.762-1.556c.134-.654.662-.7,1.254-.8" transform="translate(-73.211 -44.962)" fill="#b07a4a"/>
        <path id="Trazado_135631" data-name="Trazado 135631" d="M75.036,167.668a6.883,6.883,0,0,1-12.893,3.365c-.359-.637-.379-.95.413-1.241q5.548-2.044,11.052-4.209c.807-.318,1.179-.242,1.252.658.038.477.117.952.177,1.428" transform="translate(-32.874 -87.84)" fill="#454045"/>
        <path id="Trazado_135632" data-name="Trazado 135632" d="M48.453,176.087a8.187,8.187,0,0,1-2.73,1.093,2.908,2.908,0,0,1-2.122-.358,1.226,1.226,0,0,1-.531-1.722,4.189,4.189,0,0,1,2.747-2.223c.306-.086.609-.181.913-.272,1.021-.04,2.075.015,2.587,1.04s-.312,1.716-.863,2.441" transform="translate(-22.784 -91.656)" fill="#e390b6"/>
        <path id="Trazado_135633" data-name="Trazado 135633" d="M96.3,154.084a1.827,1.827,0,0,1,2.008.831,1.5,1.5,0,0,1-.232,1.709,5.823,5.823,0,0,1-1.1,1.063,5.024,5.024,0,0,1-3.565.824,1.59,1.59,0,0,1-.925-2.8,4.624,4.624,0,0,1,3.817-1.629" transform="translate(-48.81 -81.811)" fill="#e390b6"/>
        <path id="Trazado_135634" data-name="Trazado 135634" d="M43.883,161.8a3.6,3.6,0,0,0-1.945,1.74c-.34.589-.807,1.044-1.556.617a1.259,1.259,0,0,1-.409-1.876,6.252,6.252,0,0,1,3.138-2.788,5.817,5.817,0,0,1,4.127.047c.665.264,1.222.67.964,1.514-.233.762-.876.958-1.78.693a3.8,3.8,0,0,0-2.54.053" transform="translate(-21.1 -84.509)" fill="#de9380"/>
        <path id="Trazado_135635" data-name="Trazado 135635" d="M90.85,144.58c-.009.777-.689,1.239-1.613.916a3.867,3.867,0,0,0-2.809.017,3.355,3.355,0,0,0-1.728,1.6c-.394.714-.946,1.074-1.736.723-.707-.315-.777-.953-.289-1.908a5.932,5.932,0,0,1,7.18-2.7,1.308,1.308,0,0,1,.995,1.36" transform="translate(-43.738 -75.861)" fill="#de9380"/>
        <path id="Trazado_135636" data-name="Trazado 135636" d="M66.464,161.043a.828.828,0,0,1-1.005-.6c-.118-.525-.193-1.148.421-1.443a25.189,25.189,0,0,1,4.185-1.6,1.04,1.04,0,0,1,1.285.746,1.122,1.122,0,0,1-.437,1.357,26.545,26.545,0,0,1-4.449,1.549" transform="translate(-34.719 -83.559)" fill="#e9ab9d"/>
        <path id="Trazado_135637" data-name="Trazado 135637" d="M12.43,34.5a1.454,1.454,0,0,0-1.8-1.3,1.54,1.54,0,0,0-1.077,1.962c.288,1.414.568,2.831.878,4.24.111.5.02.749-.542.853-1.766.325-3.526.687-5.28,1.074-.495.109-.68.016-.769-.5-.226-1.328-.515-2.645-.785-3.965-.151-.74-.338-1.459-1.195-1.708S.5,35.46,0,36.015v1.158a10.182,10.182,0,0,1,.573,2.411c.738,3.549,1.444,7.1,2.176,10.656.236,1.146.916,1.645,1.884,1.434.846-.184,1.229-.911,1.022-1.956-.3-1.511-.548-3.034-.922-4.526-.174-.692.021-.914.65-1.033,1.67-.317,3.342-.633,5-1.02.623-.145.837.012.95.611.31,1.639.638,3.275,1.019,4.9a1.377,1.377,0,0,0,1.747,1.094,1.45,1.45,0,0,0,1.106-1.76Q13.836,41.238,12.43,34.5" transform="translate(0 -17.606)" fill="#dc636e"/>
        <path id="Trazado_135638" data-name="Trazado 135638" d="M48.44,42.254q-3.726-5.91-7.445-11.825a1.928,1.928,0,0,0-2.141-1.108c-.979.2-1.31.949-1.453,1.822q-1.15,7.028-2.289,14.058a1.509,1.509,0,0,0,1.113,1.774,1.409,1.409,0,0,0,1.741-1.109,17.575,17.575,0,0,0,.363-2.084.778.778,0,0,1,.721-.753c1.638-.31,3.279-.61,4.9-1a.923.923,0,0,1,1.216.551,12.843,12.843,0,0,0,1.1,1.694,1.358,1.358,0,0,0,1.657.412,1.312,1.312,0,0,0,.883-1.356,1.8,1.8,0,0,0-.365-1.075m-5.968-2.911c-.943.177-1.88.384-2.819.58-.495.1-.685-.016-.582-.584.294-1.6.531-3.218.83-5.078,1.024,1.621,1.907,3.027,2.8,4.426.218.34.269.562-.231.656" transform="translate(-18.633 -15.546)" fill="#dc636e"/>
        <path id="Trazado_135639" data-name="Trazado 135639" d="M170.559,139.809c-.838-.3-1.56.132-1.972,1.2s-.828,2.156-1.207,3.247c-.159.46-.355.577-.829.385-1.308-.529-2.625-1.041-3.961-1.493-.607-.2-.6-.487-.4-.989q.656-1.6,1.229-3.239a1.506,1.506,0,0,0-.754-2.1c-.874-.326-1.619.068-2.015,1.11q-2.086,5.487-4.148,10.983a1.5,1.5,0,0,0,.77,2.169c.842.33,1.571-.068,1.991-1.137q.721-1.837,1.38-3.7c.164-.463.387-.567.843-.385,1.312.52,2.63,1.027,3.96,1.5.5.178.635.374.418.9-.524,1.276-1,2.57-1.452,3.875A1.477,1.477,0,0,0,166,154.163c.584-.012.981-.525,1.253-1.249,1.367-3.633,2.757-7.257,4.129-10.888a1.533,1.533,0,0,0-.824-2.217" transform="translate(-83.02 -72.597)" fill="#dc636e"/>
        <path id="Trazado_135640" data-name="Trazado 135640" d="M192.664,158q0-3.229,0-6.459a1.573,1.573,0,0,0-1.05-1.578,1.675,1.675,0,0,0-1.956.395q-4.328,4.856-8.625,9.74a1.455,1.455,0,0,0,.091,2.08,1.312,1.312,0,0,0,2.043-.119c1.058-1.729,2.33-1.62,3.837-.771a6.936,6.936,0,0,0,.9.342c1.795.7,1.794.7,1.84,2.652.026,1.1.5,1.662,1.421,1.683.962.023,1.493-.559,1.5-1.7.012-2.089,0-4.178,0-6.267m-2.972,1.056a19.334,19.334,0,0,1-2.533-.863c-.245-.073-.363-.293-.133-.419l2.667-2.983Z" transform="translate(-95.926 -79.559)" fill="#dc636e"/>
      </g>
    </g>
  </g>
</svg>
