<svg xmlns="http://www.w3.org/2000/svg" width="173" height="116" viewBox="0 0 173 116">
  <g id="_116" data-name="116" transform="translate(-713.275 -3297)">
    <rect id="Rectángulo_36141" data-name="Rectángulo 36141" width="173" height="116" transform="translate(713.275 3297)" fill="none"/>
    <g id="Grupo_158914" data-name="Grupo 158914" transform="translate(756.275 3305)">
      <g id="Grupo_158915" data-name="Grupo 158915">
        <path id="Trazado_135641" data-name="Trazado 135641" d="M53.424,3.88a26.672,26.672,0,0,1,9.2-3.521A6.482,6.482,0,0,0,64.863,0h2.908c.626.275,1.313-.07,1.94.192a24.241,24.241,0,0,1,7.9,2.009,25.985,25.985,0,0,1,9.554,7.063,24.53,24.53,0,0,1,5.6,11.3,1.89,1.89,0,0,0,1.769,1.821,16.621,16.621,0,0,1-.228,32.622,12.15,12.15,0,0,1-2.586.254q-15.845-.027-31.69-.006a.932.932,0,0,1-.368-.551,2.787,2.787,0,0,0-3.012-1.928c-.623.014-1.494.3-1.812-.283-.365-.67.531-1.136.814-1.723a5.734,5.734,0,0,1,.447-.631,2.585,2.585,0,0,0-.5-3.629,2.65,2.65,0,0,0-3.657.457A39.7,39.7,0,0,0,48.918,51.1a3.325,3.325,0,0,1-3.344,1.721c-2.657-.127-2.481.169-2.484-2.476a5.842,5.842,0,0,0,0-.677,2.3,2.3,0,0,1,1.15-2.364c1.129-.748,2.168-1.628,3.282-2.4a9.092,9.092,0,0,0,1.565-1.293,2.547,2.547,0,0,0,.2-3.435,2.591,2.591,0,0,0-3.409-.559c-.642.374-1.2.877-1.834,1.263-.652.4-.837.307-.931-.432a3.1,3.1,0,0,1-.016-.677,3.17,3.17,0,0,0-2.49-3.8c-.526-.442-.442-1.047-.388-1.616a51,51,0,0,1,3.991-15.473,63.588,63.588,0,0,1,7.63-13.191A12.521,12.521,0,0,1,53.424,3.88" transform="translate(-21.054)" fill="#fff"/>
        <path id="Trazado_135642" data-name="Trazado 135642" d="M100.1.192c-.645-.084-1.326.2-1.94-.192H100.1c0,.064,0,.128,0,.192" transform="translate(-51.44)" fill="#f2f2f2"/>
        <path id="Trazado_135643" data-name="Trazado 135643" d="M106.192,160.411c0,.823.012,1.489,0,2.154a2.908,2.908,0,1,1-5.807-.007c-.014-.644,0-1.29,0-2.133-.853.586-1.577,1.129-2.344,1.6a2.7,2.7,0,0,1-3.012.1,2.744,2.744,0,0,1-1.419-2.662,2.8,2.8,0,0,1,1.135-2.149q2.522-1.867,5.067-3.7a1.066,1.066,0,0,0,.577-.929q-.027-1.453,0-2.907c.008-.457-.177-.633-.63-.625q-1.453.026-2.907,0a1.08,1.08,0,0,0-.928.58c-1.305,1.756-2.593,3.527-3.956,5.238-.962,1.207-2.38,1.3-3.808.385a2.724,2.724,0,0,1-.826-3.52c.488-.889,1.114-1.7,1.764-2.678-.761,0-1.394.007-2.026,0A3.01,3.01,0,0,1,83.9,146.2a2.938,2.938,0,0,1,3.132-2.856c.639,0,1.278,0,2.017,0a9.808,9.808,0,0,0-1.293-1.883c-1.125-1.538-.973-3.331.366-4.3,1.47-1.065,3.081-.764,4.276.811.662.872,1.305,1.757,1.957,2.636a2.478,2.478,0,0,1,.343.465c.938,2.263,2.783,2.518,4.9,2.292.558-.059.863-.166.781-.774a.6.6,0,0,1,0-.1c.077-3.4.076-3.4-3.408-5.885q-1.1-.785-2.188-1.589A2.843,2.843,0,0,1,94.141,131a2.787,2.787,0,0,1,3.852-.753c.761.475,1.476,1.022,2.387,1.66,0-.8-.009-1.453,0-2.106a2.911,2.911,0,1,1,5.808-.017c.011.644,0,1.288,0,2.1.782-.534,1.474-.976,2.133-1.463a2.878,2.878,0,1,1,3.314,4.7q-2.472,1.854-4.953,3.7c-.238.177-.491.313-.49.66q0,1.7,0,3.391c0,.4.235.482.568.48,1.066,0,2.132-.01,3.2,0,.38,0,.558-.215.761-.492,1.238-1.687,2.5-3.359,3.748-5.036a2.874,2.874,0,1,1,4.695,3.314c-.46.692-.953,1.361-1.552,2.211.829,0,1.486,0,2.144,0a2.909,2.909,0,1,1,.059,5.809c-.669.016-1.339,0-2.168,0,.552.8,1.027,1.478,1.483,2.164a2.935,2.935,0,0,1-.451,3.991,2.87,2.87,0,0,1-4.237-.673c-1.235-1.649-2.486-3.286-3.688-4.959a1.1,1.1,0,0,0-1.038-.53c-.936.023-1.874.03-2.809,0-.551-.019-.779.194-.716.733a.365.365,0,0,1,0,.1c-.331,2.146.149,3.837,2.285,4.915a23.738,23.738,0,0,1,3.277,2.378,2.814,2.814,0,0,1,1.183,2.875,2.773,2.773,0,0,1-2.1,2.288,2.832,2.832,0,0,1-2.465-.518c-.684-.464-1.361-.938-2.179-1.5" transform="translate(-43.97 -66.384)" fill="#fff"/>
        <path id="Trazado_135644" data-name="Trazado 135644" d="M19.575,75.081a2.893,2.893,0,0,1,2.715,3.257c0,.6,0,1.209,0,1.968.843-.6,1.556-1.125,2.3-1.613a2.869,2.869,0,0,1,4.482,2.677,3.36,3.36,0,0,1-1.643,2.392q-2.276,1.712-4.592,3.369a1.132,1.132,0,0,0-.55,1.042c.027.935.032,1.871,0,2.806-.02.565.142.782.754.8,3.339.11,3.337.126,5.305-2.591.717-.99,1.437-1.979,2.17-2.958a2.956,2.956,0,0,1,4.191-.724,2.858,2.858,0,0,1,.439,4.195c-.455.614-.885,1.248-1.448,2.045,2.34.024,4.813-.384,5.292,2.749A2.975,2.975,0,0,1,37.2,97.27c-1.043.461-2.2.231-3.429.352.475.66.878,1.23,1.292,1.794,1.179,1.608,1.018,3.255-.433,4.352-1.328,1.005-2.955.717-4.146-.817-1.206-1.553-2.366-3.144-3.5-4.752a1.335,1.335,0,0,0-1.287-.643,20.959,20.959,0,0,1-2.518,0c-.757-.058-.827.273-.924.94a4.235,4.235,0,0,0,2.419,4.865,24.6,24.6,0,0,1,3.142,2.251,2.88,2.88,0,0,1,.81,3.941,2.8,2.8,0,0,1-3.977.855c-.763-.454-1.474-1-2.363-1.606,0,.838.011,1.5,0,2.166a3.024,3.024,0,0,1-2.859,3.076,3.028,3.028,0,0,1-2.944-3.088c-.013-.644,0-1.289,0-2.01a5.217,5.217,0,0,0-1.783,1.139c-1.819,1.266-3.712.981-4.655-.716a2.87,2.87,0,0,1,.927-3.769c1.629-1.214,3.264-2.421,4.919-3.6a1.163,1.163,0,0,0,.6-1.1c-.04-.87-.036-1.744,0-2.615.021-.552-.188-.743-.73-.722a24.153,24.153,0,0,1-2.518-.005,1.425,1.425,0,0,0-1.358.723c-1.105,1.549-2.215,3.095-3.36,4.614a2.889,2.889,0,0,1-2.975,1.37,2.851,2.851,0,0,1-2.373-2.255,2.813,2.813,0,0,1,.608-2.447c.445-.619.9-1.234,1.394-1.919-1-.176-1.9,0-2.786-.2A2.928,2.928,0,0,1,.01,94.383a2.816,2.816,0,0,1,2.754-2.611c.765-.03,1.533-.005,2.529-.005-1.312-1.916-3.288-3.57-1.43-6a2.883,2.883,0,0,1,4.259-.254,7.636,7.636,0,0,1,1.159,1.425c.92,1.329,1.949,2.577,2.868,3.905a1.435,1.435,0,0,0,1.305.676c.613-.014,1.228-.022,1.841,0,.649.026.96-.22.93-.9s-.028-1.357,0-2.035a1.643,1.643,0,0,0-.756-1.47c-1.316-.991-2.668-1.933-3.983-2.927a8.244,8.244,0,0,1-1.16-1.024,3.051,3.051,0,0,1-.255-3.992,3.141,3.141,0,0,1,4.006-.841c.713.376,1.322.914,2.1,1.415.079-.664.013-1.238.052-1.8A3.212,3.212,0,0,1,18.1,75.092a1.448,1.448,0,0,1,1.48-.011" transform="translate(0 -39.243)" fill="#8cccd6"/>
        <path id="Trazado_135645" data-name="Trazado 135645" d="M19.725,40.11c-2.063.075-3.092,1.154-3.1,3.249,0,.605,0,1.211,0,1.96-.782-.555-1.442-1.048-2.126-1.5a2.911,2.911,0,0,0-4.066.485,2.773,2.773,0,0,0,.483,3.963c1.626,1.359,3.36,2.593,5.077,3.84a1.278,1.278,0,0,1,.64,1.188c-.034.9-.033,1.808,0,2.71.02.562-.134.876-.752.792a.6.6,0,0,0-.1,0c-3.106.075-3.105.074-4.915-2.411-.682-.936-1.365-1.87-2.058-2.8-1.42-1.9-2.815-2.127-4.8-.789A15.42,15.42,0,0,1,1.7,46.6,18.811,18.811,0,0,1,.376,37.443a20.038,20.038,0,0,1,4.36-10.93,20.189,20.189,0,0,1,6.313-5.272,18.37,18.37,0,0,1,7.7-2.247,1.281,1.281,0,0,1,.984,0l.369,0c.362-.179.749-.049,1.121-.089.467-.055.953.125,1.407-.109a21.1,21.1,0,0,1,3.121-4.929A26.011,26.011,0,0,1,32,8.364a.876.876,0,0,1,.522-.212,27.679,27.679,0,0,1-2.437,3.435,62.213,62.213,0,0,0-7.449,13.929,47.763,47.763,0,0,0-2.851,11.27c-.136,1.076-.594,2.211-.058,3.323" transform="translate(-0.15 -4.272)" fill="#f6f6f6"/>
        <path id="Trazado_135646" data-name="Trazado 135646" d="M45.669,30.526c-.4.392-.9.123-1.352.2-.064-.04-.086-.08-.066-.122s.041-.062.062-.062l1.355-.018" transform="translate(-23.186 -15.997)" fill="#e5e5e5"/>
        <path id="Trazado_135647" data-name="Trazado 135647" d="M43.1,30.542c0,.061,0,.123,0,.185l-1.176,0c.348-.338.779-.134,1.172-.181" transform="translate(-21.972 -15.996)" fill="#e0e0e0"/>
        <path id="Trazado_135648" data-name="Trazado 135648" d="M40.068,30.71h-.984a.7.7,0,0,1,.984,0" transform="translate(-20.482 -15.987)" fill="#e9eaea"/>
        <path id="Trazado_135649" data-name="Trazado 135649" d="M86.265,51.4a5.785,5.785,0,0,1-4.208-1.778,1.446,1.446,0,0,1-.089-2.15,1.487,1.487,0,0,1,2.085-.032c1.671,1.293,2.653,1.3,4.293.037A1.487,1.487,0,0,1,90.5,47.5a1.524,1.524,0,0,1-.221,2.222A5.706,5.706,0,0,1,86.265,51.4" transform="translate(-42.727 -24.645)" fill="#464d57"/>
        <path id="Trazado_135650" data-name="Trazado 135650" d="M63.947,45.133a9.642,9.642,0,0,1-.011,1.353,1.342,1.342,0,0,1-1.394,1.228,1.318,1.318,0,0,1-1.474-1.236,15.487,15.487,0,0,1,0-2.8,1.323,1.323,0,0,1,1.479-1.236,1.35,1.35,0,0,1,1.385,1.244,10.674,10.674,0,0,1,.012,1.45" transform="translate(-31.971 -22.24)" fill="#464d57"/>
        <path id="Trazado_135651" data-name="Trazado 135651" d="M118.477,45.042a9.368,9.368,0,0,1-.012,1.354,1.432,1.432,0,0,1-1.441,1.313,1.389,1.389,0,0,1-1.46-1.371,20.33,20.33,0,0,1-.005-2.514,1.45,1.45,0,0,1,1.428-1.418,1.5,1.5,0,0,1,1.489,1.379,11.426,11.426,0,0,1,.008,1.258h-.007" transform="translate(-60.541 -22.223)" fill="#464d57"/>
      </g>
    </g>
  </g>
</svg>
