<svg xmlns="http://www.w3.org/2000/svg" xmlns:xlink="http://www.w3.org/1999/xlink" width="173" height="116" viewBox="0 0 173 116">
  <defs>
    <clipPath id="clip-path">
      <rect id="Rect치ngulo_38070" data-name="Rect치ngulo 38070" width="113.868" height="84.521" fill="none"/>
    </clipPath>
  </defs>
  <g id="_117" data-name="117" transform="translate(-1144.275 -3297)">
    <rect id="Rect치ngulo_36141" data-name="Rect치ngulo 36141" width="173" height="116" transform="translate(1144.275 3297)" fill="none"/>
    <g id="Grupo_158918" data-name="Grupo 158918" transform="translate(1174.275 3313)">
      <g id="Grupo_158917" data-name="Grupo 158917" clip-path="url(#clip-path)">
        <path id="Trazado_135652" data-name="Trazado 135652" d="M99.314,13.825q.021,2.283.042,4.566c-1.033.658-2.182.236-3.272.353a4.863,4.863,0,0,0-4.48,2.044C90,22.792,90.8,24.9,93.347,25.357a7.256,7.256,0,0,0,1.259.063c1.837,0,3.673-.017,5.509.006a4.84,4.84,0,0,1,4.92,3.69,4.755,4.755,0,0,1-2.469,5.314,18.156,18.156,0,0,0-4.062,3.15,4.742,4.742,0,0,1-3.656,1.343c-6.044-.018-12.088-.008-18.132-.008-3.29,0-6.58-.006-9.869,0-2.844.007-4.087,1.381-3.94,4.217a16.16,16.16,0,0,0,1.933,7.015,9.045,9.045,0,0,0,3.973,4.009A2.412,2.412,0,0,1,70.3,56.7c-.056,2.485-.019,4.972-.016,7.459A16.213,16.213,0,0,0,82.514,80.015a16.945,16.945,0,0,0,3.4.492,3.618,3.618,0,0,0,3.495-1.766c.173-.274.285-.653.724-.643.011,1.872.006,3.745.043,5.617.012.577-.142.8-.765.8q-12.1-.026-24.2,0c-1,0-.753-.628-.753-1.147-.007-7.759-.032-15.519.014-23.278a4.933,4.933,0,0,0-2.188-4.358A20.746,20.746,0,0,1,53.434,38.16c.006-1.682-.008-3.363-.012-5.045.41-.453.966-.372,1.486-.388,1.552-.047,3.1.041,4.655.02.8-.037,1.609-.027,2.413,0,2.87-.022,5.738-.036,8.607,0,.8-.037,1.607-.027,2.411,0,2.8-.019,5.591-.037,8.386,0,.944-.036,1.888-.023,2.832,0,2.713.007,5.427-.057,8.137.024a3.655,3.655,0,0,0,3.535-1.283,6.135,6.135,0,0,1,2.943-1.644,9.544,9.544,0,0,1,2.09-.306c.256,0,.513,0,.77,0-.288,0-.576,0-.865,0-.6.029-1.191.14-1.788.192-1.95.036-3.9.02-5.849-.062a5.193,5.193,0,0,1-4.117-2.389c-.241-.343-.421-.725-.742-1.259a5.938,5.938,0,0,1-10.98.061,6.047,6.047,0,0,1-11.091.031c-1.407,2.78-3.643,4.07-6.671,3.5A5.506,5.506,0,0,1,55.1,25.2a4.814,4.814,0,0,1,.158-3.14c.006-4.165.136-8.335-.019-12.494a5.57,5.57,0,0,1,6.214-5.819c0,.557-.486.74-.821,1.024a3.526,3.526,0,0,0-1.337,2.8c-.012,4.129-.033,8.258.009,12.386a3.349,3.349,0,0,0,3.355,3.583,3.385,3.385,0,0,0,3.291-3.659c.036-3.479,0-6.958.017-10.436,0-.559-.12-1.158.31-1.644a5.478,5.478,0,0,1,6.2-5.889c0,.555-.483.742-.818,1.026a3.527,3.527,0,0,0-1.337,2.8c-.014,4.739-.033,9.478.009,14.217a3.347,3.347,0,0,0,3.353,3.583,3.383,3.383,0,0,0,3.285-3.662c.038-4.089,0-8.179.019-12.268,0-.559-.119-1.158.312-1.642a5.479,5.479,0,0,1,6.2-5.889c0,.555-.484.742-.819,1.025a3.522,3.522,0,0,0-1.337,2.8c-.012,5.385-.04,10.769.014,16.154a3.319,3.319,0,1,0,6.628-.03c.058-3.436.006-6.874.025-10.31,0-.677-.079-1.4.54-1.908a5.346,5.346,0,0,1,5.969-4.053c.015.523-.442.674-.753.922a3.518,3.518,0,0,0-1.439,2.859c-.006,1.756-.036,3.513.01,5.268a3.362,3.362,0,0,0,6.248,1.8c.2-.291.241-.76.743-.769" transform="translate(-20.377 0)" fill="#d08664"/>
        <path id="Trazado_135653" data-name="Trazado 135653" d="M95.711,89.294c-1.229,2.437-2.775,3.051-5.527,2.638a16.776,16.776,0,0,1-8.151-3.325,15.914,15.914,0,0,1-6.278-10.774c-.444-3.5-.112-7.02-.194-10.529a1.378,1.378,0,0,0-.862-1.422c-3.849-1.84-5.459-5.245-6.257-9.166a15.624,15.624,0,0,1-.393-3.5A3.686,3.686,0,0,1,71.8,49.795q14.342-.008,28.684.007a4.74,4.74,0,0,0,3.8-1.694,12.524,12.524,0,0,1,3.449-2.6c3.124-1.667,3.663-5.236,1.147-7.483a4.25,4.25,0,0,0-2.936-1.087c-2.1.009-4.207,0-6.311.007a3.043,3.043,0,0,1-1.455-.236c-2.291-1.194-3.038-2.456-1.455-4.681a5.131,5.131,0,0,1,4.764-2.42c0,.526-.5.621-.793.887a2.244,2.244,0,0,0-.826,2.443,2.278,2.278,0,0,0,2.023,1.777,65.29,65.29,0,0,0,7.873,0,2.29,2.29,0,0,0,2.051-1.747,2.243,2.243,0,0,0-.789-2.454c-.287-.27-.785-.368-.8-.889a1.288,1.288,0,0,1,.215-.056c.612-.424,1.183-.144,1.72.143a3.694,3.694,0,0,1,2.221,3.251c.015,4.388.364,8.79-.2,13.161a19.156,19.156,0,0,1-3.96,9.13c-1.3,1.885-2.14,4.041-3.556,5.862A19.207,19.207,0,0,1,99,67.125C96.3,68.287,95.748,69.11,95.744,72.1q-.013,8.6-.033,17.2" transform="translate(-25.955 -11.197)" fill="#f4a57f"/>
        <path id="Trazado_135654" data-name="Trazado 135654" d="M14.918,5.536a3.452,3.452,0,0,1,3.366-2.511c1.554-.009,3.107.02,4.66.032-.047.52-.533.606-.854.842a3.5,3.5,0,0,0-1.53,2.814c-.015.421-.015.841-.015,1.261q0,17.548,0,35.094a10.994,10.994,0,0,0,.092,1.945,4.124,4.124,0,0,0,3.487,3.479A4.259,4.259,0,0,0,28.5,46.4c.239-.4.241-1,.843-1.132.013,1.91.058,3.82.028,5.73a3.574,3.574,0,0,1-3.46,3.432c-2.331.032-4.665-.057-6.994.029a3.917,3.917,0,0,1-4.12-2.594c-.459-.009-.387.425-.521.646a3.609,3.609,0,0,1-3.271,1.93c-2.446-.008-4.892.009-7.339-.006A3.576,3.576,0,0,1,0,50.743Q-.005,28.73,0,6.716A3.568,3.568,0,0,1,3.669,3.024c1.528-.008,3.056.021,4.584.033-.013.429-.387.539-.662.716A3.629,3.629,0,0,0,5.854,7.057c.007,2.56,0,5.121,0,7.682q0,14.16,0,28.32A11.231,11.231,0,0,0,5.949,45,4.205,4.205,0,0,0,14.258,45a10.634,10.634,0,0,0,.074-2.631c-.009-6.676-.027-13.349,0-20.024.008-2.449-.029-4.9.016-7.345-.038-1.826-.015-3.653-.014-5.479a12.622,12.622,0,0,0,0-1.94,3.055,3.055,0,0,1,.578-2.041" transform="translate(0 -1.153)" fill="#2e3442"/>
        <path id="Trazado_135655" data-name="Trazado 135655" d="M136.227,45.212a14.761,14.761,0,0,1,1.454-2.837,19.348,19.348,0,0,0,2.441-9.647c-.024-3.02,0-6.041-.006-9.061a3.765,3.765,0,0,0-3.665-4.139c0-4.274-.013-8.548,0-12.822a3.586,3.586,0,0,1,3.671-3.681c1.526-.007,3.052.021,4.577.033-.013.429-.387.538-.661.716A3.628,3.628,0,0,0,142.3,7.057c.006,2.56,0,5.121,0,7.682q0,14.16,0,28.32A11.229,11.229,0,0,0,142.391,45,4.206,4.206,0,0,0,150.7,45a10.664,10.664,0,0,0,.073-2.631c-.009-6.676-.027-13.349,0-20.024.009-2.449-.029-4.9.016-7.345-.038-1.827-.015-3.653-.014-5.479a12.631,12.631,0,0,0,0-1.941,3.077,3.077,0,0,1,.577-2.042,3.434,3.434,0,0,1,3.367-2.508c1.553-.009,3.107.02,4.661.032-.046.52-.533.606-.854.842A3.5,3.5,0,0,0,157,6.713c-.015.421-.015.841-.015,1.261q0,17.548,0,35.094a11,11,0,0,0,.092,1.945,4.125,4.125,0,0,0,3.488,3.479,4.259,4.259,0,0,0,4.376-2.093c.239-.4.241-1,.843-1.132.013,1.91.058,3.821.029,5.73a3.56,3.56,0,0,1-3.458,3.431c-2.56.031-5.122.023-7.683,0-1.775-.014-2.8-1.118-3.557-2.776-.9,2.287-2.544,2.914-4.7,2.805-2.1-.106-4.2-.012-6.306-.027a3.59,3.59,0,0,1-3.666-3.7c-.011-1.49.012-2.981-.012-4.472-.006-.351.2-.77-.206-1.053" transform="translate(-51.961 -1.153)" fill="#2e3442"/>
        <path id="Trazado_135656" data-name="Trazado 135656" d="M42.787,44.245q-.029,4.13-.058,8.26a3.5,3.5,0,0,1-3.438,3.051,4,4,0,0,1-4.009-2.814,5.7,5.7,0,0,1-.2-1.7c0-5.767.006-11.534-.006-17.3a4.3,4.3,0,0,1,1.376-3.5,3.791,3.791,0,0,1,3.846-.818,3.166,3.166,0,0,1,2.428,2.859q.029.456.058.912a2.075,2.075,0,0,1,.347,1.412q.015,4.114,0,8.229a2.072,2.072,0,0,1-.347,1.412" transform="translate(-13.381 -11.143)" fill="#545c70"/>
        <path id="Trazado_135657" data-name="Trazado 135657" d="M179.3,32.28V52.5a3.5,3.5,0,0,1-3.438,3.051,4,4,0,0,1-4.009-2.814,5.68,5.68,0,0,1-.2-1.7c0-5.768,0-11.535-.006-17.3a4.306,4.306,0,0,1,1.376-3.5,3.791,3.791,0,0,1,3.846-.818A3.166,3.166,0,0,1,179.3,32.28" transform="translate(-65.475 -11.142)" fill="#545c70"/>
        <path id="Trazado_135658" data-name="Trazado 135658" d="M105.507,7.845a8.833,8.833,0,0,0-.213,2.261q.019,4.982,0,9.963a3.677,3.677,0,1,1-7.342-.02c-.006-4.962.086-9.927-.041-14.886-.058-2.245.526-3.95,2.542-5.043a5.565,5.565,0,0,1,4.856,5.847c.008.624-.225,1.291.194,1.879" transform="translate(-37.346 -0.045)" fill="#f4a580"/>
        <path id="Trazado_135659" data-name="Trazado 135659" d="M18.065,14.947V22.3c-.54-.022-.6-.529-.829-.848a3.35,3.35,0,0,0-3.692-1.444,3.257,3.257,0,0,0-2.462,3.218q-.088,9.17,0,18.341a3.258,3.258,0,0,0,2.461,3.218,3.352,3.352,0,0,0,3.692-1.444c.231-.319.289-.826.829-.849.014,1.368.18,2.767-.527,4.027a4.524,4.524,0,0,1-5.467,2.174A4.5,4.5,0,0,1,8.9,44.186q-.012-8.937,0-17.874c0-6.3.045-12.6-.025-18.9a4.124,4.124,0,0,1,2.767-4.354c.8-.012,1.6-.014,2.394-.04a3.7,3.7,0,0,1,3.753,2.253c.121.254.155.543.518.265a18.132,18.132,0,0,0-.236,3.916c-.511.006-.54-.471-.737-.762a3.378,3.378,0,0,0-3.844-1.55,3.338,3.338,0,0,0-2.44,3.233q-.068,1.828,0,3.659a3.338,3.338,0,0,0,2.44,3.233,3.378,3.378,0,0,0,3.844-1.55c.2-.291.226-.767.737-.762" transform="translate(-3.382 -1.148)" fill="#434959"/>
        <path id="Trazado_135660" data-name="Trazado 135660" d="M154.641,14.948V22.3c-.54-.022-.6-.529-.829-.848a3.351,3.351,0,0,0-3.692-1.444,3.257,3.257,0,0,0-2.462,3.218q-.088,9.17,0,18.341a3.258,3.258,0,0,0,2.461,3.218,3.352,3.352,0,0,0,3.692-1.444c.231-.319.289-.826.829-.849.014,1.368.18,2.767-.527,4.027a4.6,4.6,0,0,1-8.642-2.334q-.012-8.822,0-17.645c0-6.378.045-12.757-.025-19.134a4.124,4.124,0,0,1,2.767-4.354c.8-.012,1.6-.015,2.393-.039a3.738,3.738,0,0,1,3.754,2.257c.124.256.161.536.518.258a18.233,18.233,0,0,0-.235,3.919c-.511.006-.54-.471-.737-.762a3.378,3.378,0,0,0-3.844-1.55,3.338,3.338,0,0,0-2.44,3.233q-.068,1.828,0,3.659a3.338,3.338,0,0,0,2.44,3.233,3.378,3.378,0,0,0,3.844-1.55c.2-.291.226-.767.737-.762" transform="translate(-55.477 -1.149)" fill="#434959"/>
        <path id="Trazado_135661" data-name="Trazado 135661" d="M178.366,22.288c-1.063-2.313-2.743-3.209-4.78-2.546a3.492,3.492,0,0,0-2.519,3.32q-.033,9.337,0,18.674a3.622,3.622,0,0,0,2.948,3.473,3.784,3.784,0,0,0,4.07-2.086l.28-.61q0,1.377,0,2.753c-1.042,2.969-3.132,4.172-5.962,3.431a4.492,4.492,0,0,1-3.179-4.505q-.013-8.537,0-17.074c0-6.57.044-13.14-.025-19.709a4.123,4.123,0,0,1,2.767-4.354c.987-.011,1.976-.066,2.96-.022a3.614,3.614,0,0,1,3.462,3.437c.05.984-.009,1.974-.019,2.96-.5-.019-.532-.489-.734-.781a3.369,3.369,0,0,0-6.264,1.774q-.058,1.774,0,3.551a3.368,3.368,0,0,0,6.264,1.772c.2-.293.236-.761.734-.782Z" transform="translate(-64.537 -1.151)" fill="#434959"/>
        <path id="Trazado_135662" data-name="Trazado 135662" d="M41.791,22.29c-1.063-2.313-2.743-3.209-4.78-2.546a3.492,3.492,0,0,0-2.519,3.32q-.033,9.337,0,18.674a3.622,3.622,0,0,0,2.948,3.473,3.784,3.784,0,0,0,4.07-2.086l.28-.61,0,2.753c-1.042,2.97-3.132,4.173-5.962,3.431a4.492,4.492,0,0,1-3.179-4.505q-.013-8.537,0-17.074c0-6.57.044-13.14-.025-19.709a4.123,4.123,0,0,1,2.767-4.354c.948-.012,1.9-.058,2.844-.027a3.656,3.656,0,0,1,3.584,3.559c.036.946-.014,1.9-.025,2.844-.5-.019-.532-.489-.734-.781a3.369,3.369,0,0,0-6.264,1.774q-.058,1.774,0,3.551a3.368,3.368,0,0,0,6.264,1.772c.2-.293.236-.761.734-.782V22.29" transform="translate(-12.442 -1.152)" fill="#434959"/>
        <path id="Trazado_135663" data-name="Trazado 135663" d="M87.487,7.14c.007,4.78.033,9.561.011,14.341a3.665,3.665,0,0,1-7.329-.032c-.023-4.933-.011-9.867,0-14.8,0-1.764,1.2-2.7,2.5-3.562A5.5,5.5,0,0,1,87.18,6.7a2.427,2.427,0,0,0,.307.441" transform="translate(-30.574 -1.177)" fill="#f4a57f"/>
        <path id="Trazado_135664" data-name="Trazado 135664" d="M69.673,10.109c.007,4.169.035,8.337.011,12.506a3.665,3.665,0,0,1-7.329-.032c-.025-4.322-.011-8.643,0-12.965,0-1.764,1.2-2.7,2.5-3.562a5.5,5.5,0,0,1,4.516,3.612,2.428,2.428,0,0,0,.307.441" transform="translate(-23.779 -2.31)" fill="#f4a57f"/>
        <path id="Trazado_135665" data-name="Trazado 135665" d="M123.1,16.135c-1.089,2.315-2.763,3.2-4.791,2.534a3.528,3.528,0,0,1-2.511-3.33c-.033-1.908-.014-3.818-.006-5.727.007-1.76,1.2-2.7,2.5-3.555a5.524,5.524,0,0,1,4.841,5.84c0,1.413-.021,2.826-.033,4.238" transform="translate(-44.161 -2.31)" fill="#f4a580"/>
        <path id="Trazado_135666" data-name="Trazado 135666" d="M42.933,17.212c-1.064,2.311-2.742,3.207-4.773,2.547a3.54,3.54,0,0,1-2.531-3.424c-.02-1.22-.014-2.441,0-3.662A3.661,3.661,0,0,1,42.753,11.4a1.715,1.715,0,0,0,.181.282v5.534" transform="translate(-13.585 -3.397)" fill="#545c70"/>
        <path id="Trazado_135667" data-name="Trazado 135667" d="M179.508,17.212c-1.064,2.311-2.742,3.207-4.773,2.547a3.54,3.54,0,0,1-2.531-3.424c-.02-1.22-.014-2.441,0-3.662a3.661,3.661,0,0,1,7.126-1.277,1.713,1.713,0,0,0,.181.282v5.534" transform="translate(-65.679 -3.397)" fill="#545c70"/>
        <path id="Trazado_135668" data-name="Trazado 135668" d="M47.54,46.7V35.648l5.469.009a14.918,14.918,0,0,0,.195,3.261,19.891,19.891,0,0,0,.222,3.148,5.3,5.3,0,0,0,3.05,3.869c.346.177.854.167.918.714l-6.216.061L47.54,46.7" transform="translate(-18.133 -13.597)" fill="#8e387e"/>
        <path id="Trazado_135669" data-name="Trazado 135669" d="M129.572,29.77c1.6.81,2.3,2,1.962,3.317-.379,1.462-1.446,2.155-3.325,2.156q-2.979,0-5.957,0c-1.963,0-3.05-.7-3.42-2.186-.322-1.3.377-2.459,2-3.309l3.449-.018,5.295.04" transform="translate(-45.297 -11.34)" fill="#feb895"/>
        <path id="Trazado_135670" data-name="Trazado 135670" d="M60.75,48.557A5.888,5.888,0,0,1,56.545,44.3a7.133,7.133,0,0,1,.015-3.478,5.476,5.476,0,0,0,4.7,4.091c2.936.171,4.773-1.057,6.133-4.232,1.032,2.57,2.664,4.239,5.5,4.232,2.816-.006,4.491-1.564,5.511-4.268,1.025,2.673,2.689,4.3,5.544,4.292,2.817-.012,4.49-1.573,5.464-4.261a8.944,8.944,0,0,0,2.069,3.088c1.485,1.253,3.236,1.1,4.96,1.146,1.185.034,2.372.02,3.557.027a.394.394,0,0,1-.031.623,9.789,9.789,0,0,0-3.8,2.62c-.647.772-1.567.294-2.365.374a5.1,5.1,0,0,1-4.336-3.794c0,.017-.034-.055-.034-.055a.725.725,0,0,0-.036.09,4.829,4.829,0,0,1-4.1,3.76H82.559a4.878,4.878,0,0,1-4.126-3.789c0,.018-.023-.046-.023-.046a.676.676,0,0,0-.028.082,5.1,5.1,0,0,1-4.324,3.752H71.768c-2.218-.219-3.406-1.72-4.365-3.558-.959,1.838-2.148,3.339-4.366,3.558H60.75" transform="translate(-21.489 -15.505)" fill="#632359"/>
        <path id="Trazado_135671" data-name="Trazado 135671" d="M67.17,50.6A6.365,6.365,0,0,0,71.535,46,6.368,6.368,0,0,0,75.9,50.6H67.17" transform="translate(-25.621 -17.544)" fill="#8e387e"/>
        <path id="Trazado_135672" data-name="Trazado 135672" d="M103.169,50.846c1.927-.768,3.465-1.91,3.913-4.092a.288.288,0,0,1,.447,0c.542,2.212,2.145,3.352,4.141,4.092h-8.5" transform="translate(-39.352 -17.793)" fill="#8e387e"/>
        <path id="Trazado_135673" data-name="Trazado 135673" d="M84.984,50.845c2-.74,3.6-1.881,4.141-4.094a.288.288,0,0,1,.447,0c.421,2.209,2.007,3.3,3.914,4.092h-8.5" transform="translate(-32.416 -17.793)" fill="#8e387e"/>
        <path id="Trazado_135674" data-name="Trazado 135674" d="M126.876,48.2c.01-.208.02-.416.03-.624l2.073-.023c.072.051.1.1.071.154s-.048.076-.072.076l-2.1.416" transform="translate(-48.395 -18.137)" fill="#90397f"/>
        <path id="Trazado_135675" data-name="Trazado 135675" d="M130.274,47.78l0-.23h.886c0,.061.008.123.012.185l-.9.045" transform="translate(-49.691 -18.137)" fill="#ce887e"/>
        <path id="Trazado_135676" data-name="Trazado 135676" d="M94.046,86.271a8.148,8.148,0,0,0-3.257,4.318,11.724,11.724,0,0,0-.158,2.615c-.041,1.387-.656,2.151-1.811,2.169a1.758,1.758,0,0,1-1.851-2.1,7.407,7.407,0,0,0-3.46-7Z" transform="translate(-31.853 -32.907)" fill="#e49a78"/>
        <path id="Trazado_135677" data-name="Trazado 135677" d="M19.208,52.671q-1.786,3.6-4.9,2.537a3.5,3.5,0,0,1-2.427-3.283q-.033-9.35,0-18.7a3.638,3.638,0,0,1,2.969-3.466,3.785,3.785,0,0,1,4.061,2.119c.093.2.2.4.3.6q0,10.1,0,20.191" transform="translate(-4.526 -11.325)" fill="#545c70"/>
        <path id="Trazado_135678" data-name="Trazado 135678" d="M19.207,17.195q-1.756,3.54-4.786,2.568a3.535,3.535,0,0,1-2.544-3.425c-.021-1.223-.015-2.447,0-3.671a3.667,3.667,0,0,1,7.109-1.356,3.205,3.205,0,0,0,.225.384q0,2.75,0,5.5" transform="translate(-4.525 -3.396)" fill="#545c70"/>
        <path id="Trazado_135679" data-name="Trazado 135679" d="M155.784,52.671q-1.786,3.6-4.9,2.537a3.5,3.5,0,0,1-2.427-3.283q-.033-9.35,0-18.7a3.638,3.638,0,0,1,2.969-3.466,3.785,3.785,0,0,1,4.061,2.119c.093.2.2.4.3.6q0,10.1,0,20.191" transform="translate(-56.62 -11.325)" fill="#545c70"/>
        <path id="Trazado_135680" data-name="Trazado 135680" d="M155.783,17.195q-1.756,3.54-4.786,2.568a3.535,3.535,0,0,1-2.544-3.425c-.021-1.223-.015-2.447,0-3.671a3.667,3.667,0,0,1,7.109-1.356,3.29,3.29,0,0,0,.225.384q0,2.75,0,5.5" transform="translate(-56.619 -3.396)" fill="#545c70"/>
        <path id="Trazado_135681" data-name="Trazado 135681" d="M109.942,46.472h-.447c.046-.216-.122-.6.275-.559.234.022.16.351.172.558" transform="translate(-41.765 -17.512)" fill="#752c69"/>
        <path id="Trazado_135682" data-name="Trazado 135682" d="M92.124,46.473l-.447,0c.013-.206-.061-.536.174-.557.4-.035.228.344.273.56" transform="translate(-34.968 -17.512)" fill="#762c69"/>
      </g>
    </g>
  </g>
</svg>
