<svg xmlns="http://www.w3.org/2000/svg" xmlns:xlink="http://www.w3.org/1999/xlink" width="173" height="116" viewBox="0 0 173 116">
  <defs>
    <clipPath id="clip-path">
      <rect id="Rect치ngulo_38071" data-name="Rect치ngulo 38071" width="99.022" height="99.053" fill="none"/>
    </clipPath>
  </defs>
  <g id="_118" data-name="118" transform="translate(-294.275 -3700)">
    <rect id="Rect치ngulo_36141" data-name="Rect치ngulo 36141" width="173" height="116" transform="translate(294.275 3700)" fill="none"/>
    <g id="Grupo_158921" data-name="Grupo 158921" transform="translate(331.275 3708)">
      <g id="Grupo_158920" data-name="Grupo 158920" clip-path="url(#clip-path)">
        <path id="Trazado_135683" data-name="Trazado 135683" d="M49.562,99.071H45.505c-1.49-.213-3-.153-4.491-.327a38.894,38.894,0,0,1-9.841-2.663A50.426,50.426,0,0,1,1.341,62.711,37.724,37.724,0,0,1,.083,53.867,99.1,99.1,0,0,1,.308,41.734,36.876,36.876,0,0,1,2.632,32.4a48.916,48.916,0,0,1,8.876-15.159,49.716,49.716,0,0,1,20-14.227A38.352,38.352,0,0,1,42.129.309,63.66,63.66,0,0,1,49.06.056c.291.007.59-.027.762.29a2.944,2.944,0,0,1,.2,1.417q.018,5.057,0,10.113a2.986,2.986,0,0,1-.263,1.594c-.428.514-1.034.451-1.6.466a13.548,13.548,0,0,1-1.628.125,38.536,38.536,0,0,0-11.07,2.849,38.769,38.769,0,0,0-8.629,5.251,55.191,55.191,0,0,0-4.716,4.717,36.378,36.378,0,0,0-7.522,16.04c-.226,1.193-.443,2.391-.572,3.6a24.165,24.165,0,0,1-.134,3.324,12.092,12.092,0,0,1,.134,2.844,38.737,38.737,0,0,0,2.851,11.047,38.888,38.888,0,0,0,5.245,8.611,55.015,55.015,0,0,0,4.716,4.716A36.369,36.369,0,0,0,42.9,84.592c1.195.226,2.394.446,3.608.573,1.079.2,2.256-.17,3.24.566a2.586,2.586,0,0,1,.271,1.4q.023,5.215,0,10.429c0,.538.058,1.113-.451,1.509" transform="translate(0 -0.018)" fill="#fe6969"/>
        <path id="Trazado_135684" data-name="Trazado 135684" d="M88.2,99.053q-.008-6.649-.016-13.3l.071-.153a5.532,5.532,0,0,1,3.07-.46,39.137,39.137,0,0,0,11.942-3.295,41.974,41.974,0,0,0,7.67-4.805,46.382,46.382,0,0,0,4.714-4.714,36.375,36.375,0,0,0,7.523-16.041c.226-1.192.443-2.391.572-3.6a27.974,27.974,0,0,1,.142-3.324,13.431,13.431,0,0,1-.142-2.844,38.737,38.737,0,0,0-2.852-11.048,38.9,38.9,0,0,0-5.245-8.611,46.259,46.259,0,0,0-4.714-4.713,37.272,37.272,0,0,0-19.559-8.1,6.8,6.8,0,0,1-3.006-.347.5.5,0,0,1-.185-.263L88.2.167A6.622,6.622,0,0,1,90.569.049,42.273,42.273,0,0,1,107.36,3.475a49.645,49.645,0,0,1,13.018,7.993A50.3,50.3,0,0,1,133,27.5a47.426,47.426,0,0,1,4.1,12.026,46.5,46.5,0,0,1,.466,5.559c.016.218-.07.452.1.649v1.738a2.031,2.031,0,0,0,0,1.352v1.546a2.031,2.031,0,0,0,0,1.352v1.932c-.249,1.357-.185,2.738-.32,4.1a38.638,38.638,0,0,1-2.9,10.663,48.967,48.967,0,0,1-10.069,15.514A50.5,50.5,0,0,1,110.2,94.439a47.172,47.172,0,0,1-11.932,4.053,45.546,45.546,0,0,1-5.556.466c-.217.016-.452-.071-.648.095H90.127a1.523,1.523,0,0,0-1.159,0Z" transform="translate(-38.633 0)" fill="#ea4343"/>
        <path id="Trazado_135685" data-name="Trazado 135685" d="M176.071,85.834a1.214,1.214,0,0,1,0-1.352Z" transform="translate(-77.049 -37.013)" fill="#ee6565"/>
        <path id="Trazado_135686" data-name="Trazado 135686" d="M176.071,90.992a1.214,1.214,0,0,1,0-1.352Z" transform="translate(-77.049 -39.273)" fill="#ee6565"/>
        <path id="Trazado_135687" data-name="Trazado 135687" d="M89.584,176.135a.957.957,0,0,1,1.159,0Z" transform="translate(-39.248 -77.082)" fill="#ee6565"/>
        <path id="Trazado_135688" data-name="Trazado 135688" d="M37.136,32.564A35.642,35.642,0,0,1,55.3,24.533c.538-.075,1.081-.12,1.622-.179a1.2,1.2,0,0,1,.448,1.1q.033,1.439.01,2.877A2.958,2.958,0,0,0,59.3,31.35a2.537,2.537,0,0,1,1.17.786,1.291,1.291,0,0,1,.149.557c.075,2.832.084,5.665-.005,8.5a.929.929,0,0,1-.126.46,2.708,2.708,0,0,1-1.168.809,2.535,2.535,0,0,0-1.541,2.374q-.043,7.63,0,15.261a2.823,2.823,0,0,0,.855,2.09,26.456,26.456,0,0,1,1.841,2.1.852.852,0,0,1,.055.359c.3,7.555.071,15.111.125,22.666a2.246,2.246,0,0,1-.166,1.037,1.944,1.944,0,0,1-1.147.81,3.018,3.018,0,0,0-1.968,3.114c.022.932.013,1.865-.008,2.8a1.209,1.209,0,0,1-.448,1.109A34.485,34.485,0,0,1,46.4,93.6a34.942,34.942,0,0,1-9.264-5.631c-.075-.488.271-.757.551-1.062a22.342,22.342,0,0,0,2.354-2.536,2.8,2.8,0,0,0-3.932-3.932,22.291,22.291,0,0,0-2.536,2.354c-.305.28-.574.626-1.062.551a35.644,35.644,0,0,1-8.032-18.165c-.075-.538-.118-1.082-.175-1.623.294-.442.753-.437,1.206-.447,1-.021,2,.031,2.993-.029a2.808,2.808,0,1,0,.1-5.615c-1.027-.082-2.059-.012-3.089-.036-.453-.01-.912-.006-1.206-.447a34.3,34.3,0,0,1,2.576-10.522A34.909,34.909,0,0,1,32.51,37.19c.488-.075.757.271,1.062.551a22.243,22.243,0,0,0,2.536,2.354,2.8,2.8,0,0,0,3.932-3.932,22.291,22.291,0,0,0-2.354-2.536c-.28-.305-.627-.574-.551-1.062" transform="translate(-10.648 -10.67)" fill="#eff7f9"/>
        <path id="Trazado_135689" data-name="Trazado 135689" d="M43.535,38.966c.982.976,1.983,1.933,2.94,2.933a3.28,3.28,0,1,1-4.632,4.633c-1-.957-1.957-1.959-2.934-2.941a35.479,35.479,0,0,1,4.625-4.625" transform="translate(-17.047 -17.072)" fill="#48555e"/>
        <path id="Trazado_135690" data-name="Trazado 135690" d="M38.91,126.2c.976-.982,1.933-1.983,2.933-2.94a3.28,3.28,0,1,1,4.633,4.632c-.957,1-1.959,1.957-2.941,2.934A35.479,35.479,0,0,1,38.91,126.2" transform="translate(-17.047 -53.534)" fill="#48555e"/>
        <path id="Trazado_135691" data-name="Trazado 135691" d="M24.163,82.411c1.379,0,2.758-.011,4.137.006a3.286,3.286,0,1,1,0,6.562c-1.378.017-2.757.005-4.136.006a30.467,30.467,0,0,1,0-6.574" transform="translate(-10.508 -36.104)" fill="#48555e"/>
        <path id="Trazado_135692" data-name="Trazado 135692" d="M85.638,31.875c-2.477-.517-3.28-1.509-3.281-4.048q0-1.834-.007-3.669a21.7,21.7,0,0,1,3.277-.251l.051.075c.469.373.4.908.412,1.409.046,2.069-.052,4.14.068,6.209-.074.28-.22.426-.521.274" transform="translate(-36.079 -10.474)" fill="#48555e"/>
        <path id="Trazado_135693" data-name="Trazado 135693" d="M82.351,146.111q0-1.834.007-3.669c0-2.539.8-3.53,3.281-4.048.3-.151.447-.006.52.275-.119,2.068-.021,4.139-.067,6.208-.011.5.056,1.037-.412,1.409l-.053.075a21.676,21.676,0,0,1-3.276-.251" transform="translate(-36.079 -60.606)" fill="#48555e"/>
        <path id="Trazado_135694" data-name="Trazado 135694" d="M88.625,88.637,88.2,88.46q0-11.271.005-22.542c0-.482.02-.963.03-1.444.6-.219.886.251,1.214.574,2.519,2.482,5,5,7.512,7.492a6.17,6.17,0,0,0,1.017.883,2.415,2.415,0,0,0,3.368-3.407A6.255,6.255,0,0,0,100.459,69c-2.861-2.867-5.7-5.759-8.609-8.576a3.724,3.724,0,0,1-1.213-2.972c.051-3.825-.047-7.653.047-11.476.046-1.86-.46-3.207-2.305-3.846a.5.5,0,0,1-.174-.407q0-4.827,0-9.653l.424-.176c.071-.426.461-.5.755-.657a3.024,3.024,0,0,0,1.645-2.722c.033-.987,0-1.976.02-2.963.009-.45.01-.9.446-1.195a34.46,34.46,0,0,1,10.7,2.65,35.318,35.318,0,0,1,9.093,5.553c.071.488-.271.757-.553,1.063a22.079,22.079,0,0,0-2.355,2.538,2.8,2.8,0,0,0,3.933,3.932,22.168,22.168,0,0,0,2.538-2.355c.306-.282.575-.624,1.063-.553a35.739,35.739,0,0,1,8.028,18.17c.075.539.118,1.082.176,1.623a1.2,1.2,0,0,1-1.105.444c-.993.021-1.987-.01-2.98.019a2.829,2.829,0,1,0,0,5.646c.993.029,1.986,0,2.98.019a1.2,1.2,0,0,1,1.105.444,34.476,34.476,0,0,1-2.651,10.7,35.305,35.305,0,0,1-5.553,9.092c-.487.071-.757-.271-1.063-.552a22.124,22.124,0,0,0-2.538-2.355,2.8,2.8,0,0,0-3.933,3.932,22.124,22.124,0,0,0,2.355,2.538c.281.306.624.575.553,1.063A35.747,35.747,0,0,1,93.114,96c-.539.075-1.082.117-1.623.175a1.2,1.2,0,0,1-.444-1.1c-.02-.924-.018-1.848-.01-2.772a3.135,3.135,0,0,0-1.827-3.1c-.256-.125-.537-.23-.585-.57" transform="translate(-38.642 -10.672)" fill="#afc1d3"/>
        <path id="Trazado_135695" data-name="Trazado 135695" d="M130.777,43.584c-.971.977-1.926,1.973-2.92,2.928a3.282,3.282,0,1,1-4.634-4.633c.955-.994,1.95-1.948,2.928-2.92a35.651,35.651,0,0,1,4.625,4.625" transform="translate(-53.51 -17.069)" fill="#282828"/>
        <path id="Trazado_135696" data-name="Trazado 135696" d="M126.152,130.834c-.977-.971-1.973-1.926-2.928-2.92a3.282,3.282,0,1,1,4.633-4.634c.994.955,1.948,1.95,2.92,2.928a35.647,35.647,0,0,1-4.625,4.625" transform="translate(-53.51 -53.535)" fill="#282828"/>
        <path id="Trazado_135697" data-name="Trazado 135697" d="M146.187,88.986c-1.379,0-2.758.012-4.136-.006a3.286,3.286,0,1,1,0-6.562c1.378-.017,2.757-.005,4.136-.006a28.962,28.962,0,0,1,0,6.573" transform="translate(-60.716 -36.105)" fill="#282828"/>
        <path id="Trazado_135698" data-name="Trazado 135698" d="M91.5,24.22c0,1.444.023,2.889-.012,4.332a3.175,3.175,0,0,1-2.854,3.2c-.38-.129-.421-.437-.419-.776q.02-3.47.036-6.94l3.249.179" transform="translate(-38.646 -10.533)" fill="#282828"/>
        <path id="Trazado_135699" data-name="Trazado 135699" d="M88.629,138.756a3.175,3.175,0,0,1,2.854,3.2c.035,1.443.011,2.888.012,4.332l-3.249.179q-.018-3.47-.036-6.94c0-.339.039-.647.419-.776" transform="translate(-38.646 -60.791)" fill="#282828"/>
        <path id="Trazado_135700" data-name="Trazado 135700" d="M88.069,55.565a2.786,2.786,0,0,1,2.671,3.047c.013,4.375.019,8.751-.01,13.126a2.12,2.12,0,0,0,.68,1.686c3.141,3.092,6.244,6.222,9.363,9.336a3.549,3.549,0,0,1,1.181,1.94,2.872,2.872,0,0,1-1.424,3.025,2.83,2.83,0,0,1-3.466-.487c-1.8-1.745-3.554-3.543-5.335-5.311-1.277-1.267-2.567-2.52-3.852-3.779-.01-.049-.021-.1-.034-.146a3.3,3.3,0,0,1-.455-1.751c-.006-6.437-.02-12.873.02-19.31,0-.51-.214-1.234.659-1.375" transform="translate(-38.284 -24.344)" fill="#282828"/>
        <path id="Trazado_135701" data-name="Trazado 135701" d="M86.146,55.434a1.886,1.886,0,0,0-.219,1.3Q85.919,67.3,85.921,77.87c-.733-.714-1.491-1.4-2.191-2.149a2.81,2.81,0,0,1-.713-2.028c.018-4.916.078-9.834-.022-14.747-.046-2.228,1.092-3.456,2.93-3.68l.221.168" transform="translate(-36.361 -24.213)" fill="#3a3a3a"/>
      </g>
    </g>
  </g>
</svg>
