<svg xmlns="http://www.w3.org/2000/svg" xmlns:xlink="http://www.w3.org/1999/xlink" width="173" height="116" viewBox="0 0 173 116">
  <defs>
    <clipPath id="clip-path">
      <rect id="Rect치ngulo_38072" data-name="Rect치ngulo 38072" width="71.732" height="88.239" fill="none"/>
    </clipPath>
  </defs>
  <g id="_119" data-name="119" transform="translate(-713.275 -3700)">
    <rect id="Rect치ngulo_36141" data-name="Rect치ngulo 36141" width="173" height="116" transform="translate(713.275 3700)" fill="none"/>
    <g id="Grupo_158924" data-name="Grupo 158924" transform="translate(764.275 3714)">
      <g id="Grupo_158923" data-name="Grupo 158923" clip-path="url(#clip-path)">
        <path id="Trazado_135702" data-name="Trazado 135702" d="M66.553,0c1.193.7,1.322,1.259.643,2.767a8.919,8.919,0,0,1-1.087,2.6c-.417.879-.877,1.738-1.3,2.616-.307.643-.256.729.471.736,1.546.016,3.092,0,4.638.007a1.887,1.887,0,0,1,1.161.209c.343.01.686.011,1.029.033a1.539,1.539,0,0,1,1.509,1.548,1.4,1.4,0,0,1-1.516,1.4c-.343.012-.687,0-1.03,0a2.746,2.746,0,0,1-1.257.221c-1.979,0-3.959.01-5.937-.01a1.055,1.055,0,0,0-1.187.85c-1.632,5.378-3.378,10.72-5.019,16.1a3.666,3.666,0,0,1-1.432,2.163.878.878,0,0,1-1.093-.007,3.612,3.612,0,0,1-1.4-2.086c-.445-1.657-1-3.279-1.518-4.915q-1.788-5.564-3.5-11.152a1.136,1.136,0,0,0-1.285-.949c-1.747.032-3.5-.005-5.242.016-1.031.012-2.041-.176-3.063-.237q-1.443-.285-1.363-1.522a1.551,1.551,0,0,1,1.537-1.416c.34-.019.681-.019,1.021-.027a1.625,1.625,0,0,1,1.074-.216c1.492,0,2.984,0,4.476-.006a1.375,1.375,0,0,0,.912-.143c-.7-1.4-1.39-2.8-2.105-4.2a4.074,4.074,0,0,1-.509-1.62C43.512,1.45,43.607.913,44.671,0h1.034c.8.17,1.08.827,1.393,1.458.788,1.616,1.607,3.218,2.41,4.827.392.785.42.785.893.077q1.644-2.455,3.275-4.919c.447-.533.632-1.371,1.557-1.354.3,0,.6,0,.905,0,.767.021,1.09.6,1.444,1.144C58.708,2.955,59.86,4.66,61,6.371c.445.667.5.665.863-.044.837-1.658,1.674-3.316,2.488-4.986.3-.591.591-1.2,1.34-1.342Z" transform="translate(-19.831)" fill="#7fbfe5"/>
        <path id="Trazado_135703" data-name="Trazado 135703" d="M75.443,0a.6.6,0,0,0,.01.162H74.4A.621.621,0,0,0,74.409,0Z" transform="translate(-39.059)" fill="#b6dbf0"/>
        <path id="Trazado_135704" data-name="Trazado 135704" d="M40.7,53.877c.257,1,.851,2.072,1.775,2.054.844-.017,1.461-1.075,1.694-2.053,1.425-2.307,3.269-4.3,4.9-6.448a.581.581,0,0,1,.564-.312C51.4,47.2,51.4,47.2,51.4,48.958c0,1.631.018,3.263-.01,4.894a.754.754,0,0,0,.6.865,29.992,29.992,0,0,1,11.332,6.9,12.062,12.062,0,0,1,.835.973.889.889,0,0,1,.048.743,68.034,68.034,0,0,1-2.916,6.847.65.65,0,0,1-.231.248c-.462.021-.622-.368-.837-.651a21.586,21.586,0,0,0-14.893-8.73,21.52,21.52,0,0,0-18.246,6,22.091,22.091,0,0,0-5.019,24.805,22.978,22.978,0,0,0,4.471,6.7c.221.229.562.444.357.865a48.634,48.634,0,0,1-7.459,1.949.821.821,0,0,1-.656-.116,27.334,27.334,0,0,1-4.347-7.755,27.851,27.851,0,0,1-1.914-10.24A29.943,29.943,0,0,1,32.888,54.721a.762.762,0,0,0,.6-.872c-.023-1.893.034-3.788-.029-5.679-.028-.826.19-1.17,1.035-1.036a5.137,5.137,0,0,0,.859,0c.545.1.713.615,1.015.969.607.71,1.187,1.443,1.731,2.2a29.189,29.189,0,0,1,2.61,3.574" transform="translate(-6.571 -24.73)" fill="#fccc74"/>
        <path id="Trazado_135705" data-name="Trazado 135705" d="M67.938,87.546c.906-2.371,2.133-4.609,2.928-7.027a2.284,2.284,0,0,0,.215-.82,25.959,25.959,0,0,1,5.533,8.119,28.608,28.608,0,0,1,2.677,12.922A29.478,29.478,0,0,1,71.5,120.256a29,29,0,0,1-18.255,9.56,29.225,29.225,0,0,1-22.737-6.46,23.829,23.829,0,0,1-4.812-5,68.665,68.665,0,0,0,7.2-1.733c.326-.093.666-.138,1-.205.429-.063.686.229.968.469a21.7,21.7,0,0,0,14.258,5.378,22.035,22.035,0,0,0,22.243-19.682,21.887,21.887,0,0,0-2.978-13.8c-.219-.379-.607-.717-.456-1.24" transform="translate(-13.492 -41.841)" fill="#fcbf5e"/>
        <path id="Trazado_135706" data-name="Trazado 135706" d="M84.625,35.506q-2.132,2.663-4.265,5.324c-.39.486-.8.958-1.2,1.436.816-2.676,1.623-5.355,2.449-8.028.861-2.784,1.757-5.557,2.6-8.345a1.04,1.04,0,0,1,1.193-.9c2.465.057,4.932.034,7.4.041q-3.72,4.715-7.432,9.437c-.26.333-.632.6-.745,1.037" transform="translate(-41.559 -13.119)" fill="#8cd2e6"/>
        <path id="Trazado_135707" data-name="Trazado 135707" d="M52.737,38.8,50.12,35.538c-2.569-3.288-5.162-6.559-7.689-9.88-.515-.677-1.237-.28-1.778-.617,2.957,0,5.914,0,8.871-.017.352,0,.631.065.739.434,1.169,4.008,2.585,7.94,3.672,11.973a2.387,2.387,0,0,1-1.2,1.364" transform="translate(-21.342 -13.138)" fill="#a1d9e6"/>
        <path id="Trazado_135708" data-name="Trazado 135708" d="M4.523,21.8c-1.235,0-2.47-.022-3.7.01-.565.014-.81-.115-.815-.752-.019-2.2-.044-2.2,2.192-2.2,1.981,0,3.963.02,5.944-.012.6-.009.862.1.859.791C8.991,21.8,9.022,21.8,6.848,21.8H4.523" transform="translate(0 -9.891)" fill="#a1d9e6"/>
        <path id="Trazado_135709" data-name="Trazado 135709" d="M136.5,21.8c-1.264,0-2.527-.015-3.79.008-.475.008-.641-.147-.663-.638-.1-2.314-.119-2.314,2.161-2.314,2.01,0,4.02.019,6.03-.011.584-.009.795.145.8.765.01,2.191.034,2.19-2.123,2.19H136.5" transform="translate(-69.306 -9.892)" fill="#a1d9e6"/>
        <path id="Trazado_135710" data-name="Trazado 135710" d="M10.645,34.514c.052.252-.2.286-.367.353-2.179.875-4.366,1.73-6.539,2.618-.416.17-.541,0-.707-.326C1.927,35,1.919,35,4.119,34.095c1.537-.631,3.095-1.212,4.616-1.877.711-.311,1.034-.105,1.249.573.182.572.428,1.123.661,1.723" transform="translate(-1.209 -16.839)" fill="#a1d9e6"/>
        <path id="Trazado_135711" data-name="Trazado 135711" d="M139.521,35.381c-.285.7-.585,1.47-.918,2.226-.114.257-.342.112-.522.04q-3.3-1.312-6.6-2.626c-.288-.114-.433-.272-.24-.578a.415.415,0,0,0,.032-.079c.818-2.327.817-2.326,3.153-1.4q2.269.9,4.537,1.8c.255.1.577.147.563.615" transform="translate(-68.852 -17.002)" fill="#a1d9e6"/>
        <path id="Trazado_135712" data-name="Trazado 135712" d="M139.594,2.783c.112.4-.086.458-.232.516-2.255.9-4.514,1.794-6.769,2.7-.248.1-.376.03-.466-.193-.032-.08-.073-.156-.1-.238-.224-.732-.957-1.513-.686-2.128s1.311-.665,2.018-.954c1.56-.64,3.137-1.24,4.688-1.9.468-.2.672-.093.83.352.24.672.514,1.332.714,1.846" transform="translate(-68.923 -0.257)" fill="#a1d9e6"/>
        <path id="Trazado_135713" data-name="Trazado 135713" d="M3.435.423c.2.084.429.19.668.285,1.989.8,3.969,1.621,5.974,2.376.494.186.519.39.371.81-.793,2.265-.786,2.262-3.013,1.349-1.56-.639-3.117-1.29-4.7-1.873-.532-.2-.674-.4-.43-.911S2.725,1.4,2.95.871c.083-.2.123-.466.485-.447" transform="translate(-1.15 -0.222)" fill="#a1d9e6"/>
        <path id="Trazado_135714" data-name="Trazado 135714" d="M100.32,11.993c-2.093.009-4.187.012-6.28.029-.461,0-.748-.036-.452-.608.961-1.857,1.9-3.725,2.847-5.588A4.069,4.069,0,0,0,97.3,7.367c.99,1.552,2.011,3.085,3.02,4.626" transform="translate(-49.07 -3.059)" fill="#8cd2e6"/>
        <path id="Trazado_135715" data-name="Trazado 135715" d="M47.017,5.8l3.045,6.184H43.169c1.117-1.709,2.238-3.414,3.347-5.128.211-.327.522-.616.5-1.056" transform="translate(-22.663 -3.047)" fill="#a1d9e6"/>
        <path id="Trazado_135716" data-name="Trazado 135716" d="M69.857,34.5c-.563-2.5-1.383-4.936-2.052-7.411-.089-.33-.172-.662-.267-.99-.308-1.067-.309-1.068.76-1.068,2.061,0,4.123.011,6.184-.008.564-.005.775.092.569.73-.456,1.409-.832,2.844-1.24,4.268a49.7,49.7,0,0,1-3.134,4.122c-.2.251-.391.6-.819.357" transform="translate(-35.363 -13.135)" fill="#a1d9e6"/>
        <path id="Trazado_135717" data-name="Trazado 135717" d="M79.131,2.929l7.072.026C85.3,4.8,84.39,6.642,83.5,8.492c-.265.55-.413.35-.659-.024-1.223-1.855-2.469-3.695-3.706-5.54" transform="translate(-41.543 -1.538)" fill="#8dd2e6"/>
        <path id="Trazado_135718" data-name="Trazado 135718" d="M57.049,3.194l6.872.029q-1.8,2.754-3.61,5.508c-.359.548-.474.1-.6-.158q-1.338-2.686-2.661-5.379" transform="translate(-29.95 -1.677)" fill="#a1d9e6"/>
        <path id="Trazado_135719" data-name="Trazado 135719" d="M75.188,14.014H68.936c.758-1.14,1.445-2.18,2.138-3.215.982-1.469.985-1.469,1.973.005.682,1.019,1.361,2.04,2.141,3.21" transform="translate(-36.191 -5.091)" fill="#a1d9e6"/>
        <path id="Trazado_135720" data-name="Trazado 135720" d="M72.617,40.02c.985-.453,1.35-1.482,2.034-2.214a19.858,19.858,0,0,1,1.919-2.264L74.017,44.5l-1.4-4.477" transform="translate(-38.123 -18.659)" fill="#8cd2e6"/>
        <path id="Trazado_135721" data-name="Trazado 135721" d="M66.093,52.508c.427-.43.673-1.019,1.2-1.364A42.39,42.39,0,0,1,68.832,56a37.013,37.013,0,0,1-2.739-3.488" transform="translate(-34.698 -26.85)" fill="#8dd2e6"/>
      </g>
    </g>
  </g>
</svg>
