<svg xmlns="http://www.w3.org/2000/svg" xmlns:xlink="http://www.w3.org/1999/xlink" width="218" height="214" viewBox="0 0 218 214">
  <defs>
    <clipPath id="clip-path">
      <rect id="Rect치ngulo_38036" data-name="Rect치ngulo 38036" width="182.321" height="187.326" fill="none"/>
    </clipPath>
  </defs>
  <g id="_12" data-name="12" transform="translate(-352 -4319)">
    <g id="Grupo_158812" data-name="Grupo 158812">
      <g id="Grupo_158146" data-name="Grupo 158146" transform="translate(39.229 1680)">
        <rect id="Rect치ngulo_36141" data-name="Rect치ngulo 36141" width="218" height="214" transform="translate(312.771 2639)" fill="#e1e8ff"/>
      </g>
      <g id="Grupo_158811" data-name="Grupo 158811" transform="translate(370 4332)">
        <g id="Grupo_158810" data-name="Grupo 158810" clip-path="url(#clip-path)">
          <path id="Trazado_134908" data-name="Trazado 134908" d="M39.454,147.3q-1.974,9.565-3.944,19.133c-.3,1.486-.6,2.976-.835,4.475-.19,1.217-.779,1.566-2.035,1.559q-15.445-.092-30.891-.009c-1.258.006-1.8-.21-1.745-1.635.314-7.484.848-14.952,1.452-22.416.415-5.12.788-10.244,1.26-15.358.542-5.869,1.121-11.735,1.778-17.591C5.243,108.783,6,102.111,6.922,95.462c2.529-18.3,5.412-36.545,11.124-54.181,3.549-10.959,11.167-18.029,22-21.742q11.662-4,23.311-8.029c.66-.144.725.409.84.79,1.923,6.386,6.632,10.207,12.213,13.175,3.7,1.97,7.647,3.427,11.462,5.161,1.469.852,3.091,1.545,3.569,3.429a14.578,14.578,0,0,0-.918,8c.528,4.149.647,8.349,1.169,12.506.187,1.487-.3,2.9-.338,4.351-.016,5.469-.786,10.882-1.262,16.313q-.84,9.573-1.707,19.144-1.034,11.466-2.062,22.935c-.725,8.024-1.427,16.051-2.213,24.069-.217,1.949-.3,3.914-.509,5.862-.288,2.649-.874,3.032-3.478,2.538-5.729-1.085-11.453-2.195-17.18-3.29-6.91-1.321-13.812-2.688-20.726-3.989a5.2,5.2,0,0,1-2.661-.915,11.365,11.365,0,0,1-.717-4.664c.008-4.259-.333-8.5-.506-12.743-.32-7.858-.5-15.722-1.041-23.57-.222-3.227-.243-6.469-.348-9.7-.242-7.419-.7-14.829-.894-22.25A32.785,32.785,0,0,0,33.208,56.3c-1.657-3.781-3.291-7.572-4.866-11.389a5.891,5.891,0,0,0-.8-1.509,1.671,1.671,0,0,0-2.046-.546c-.721.276-.777.946-.752,1.6A7.228,7.228,0,0,0,25.485,47c1.572,3.68,3.172,7.347,4.7,11.045a36.522,36.522,0,0,1,2.52,12.614c.319,7.538.448,15.087,1.014,22.615.248,3.288.2,6.594.33,9.889.171,4.372.366,8.751.558,13.121.347,7.856.434,15.724,1.038,23.57.127,1.644.758,2.618,2.367,2.937a4.789,4.789,0,0,1,1.442,4.509" fill="#4483df"/>
          <path id="Trazado_134909" data-name="Trazado 134909" d="M90.869,58.846c.562-6.271-.617-12.433-1.184-18.632a10.771,10.771,0,0,1,1.5-6.522c.538-1.706,2.155-2.206,3.435-3.084a133,133,0,0,0,12.254-5.566c5.085-2.761,9.313-6.3,11.129-12.084.195-.621.354-1.439,1.364-1.22,8.808,3.053,17.783,5.651,26.385,9.262A31.544,31.544,0,0,1,164.01,40.6c3.942,11.487,6.3,23.37,8.391,35.3,2.6,14.874,4.514,29.848,6.048,44.864,1.34,13.131,2.526,26.279,3.227,39.466.215,4.055.7,8.1.64,12.167a3.2,3.2,0,0,1-2.494.663q-14.625.021-29.252,0a3.345,3.345,0,0,1-2.494-.692c-1.636-8.37-3.161-16.763-5.078-25.076-.532-1.793.225-3.2,1.354-4.491,1.725-.332,2.28-1.415,2.39-3.118.36-5.64.421-11.293.756-16.929.445-7.477.456-14.972,1.037-22.442.244-3.163.236-6.347.332-9.513.141-4.631.5-9.254.545-13.893.032-3.355.258-6.721.515-10.074.386-5.049,2.565-9.537,4.509-14.1.946-2.222,1.964-4.415,2.817-6.673.413-1.094.985-2.392-.4-3.231-1-.6-2,.133-2.74,1.923-1.633,3.933-3.335,7.836-5.015,11.749a38.894,38.894,0,0,0-2.832,13.915c-.329,7.671-.478,15.352-1.029,23.014-.232,3.229-.24,6.474-.341,9.705-.146,4.631-.345,9.268-.562,13.892-.353,7.542-.382,15.1-1.062,22.628a4.05,4.05,0,0,1-.392,1.844,4.531,4.531,0,0,1-2.622.974c-12.612,2.515-25.266,4.82-37.877,7.347-.984.2-2,.486-2.925-.22-.969-2.6-.621-5.4-1.139-8.064-.785-9.665-1.739-19.316-2.611-28.973-.828-9.155-1.606-18.315-2.438-27.469-.574-6.313-1.1-12.63-1.749-18.937-.187-1.829-.163-3.67-.323-5.5-.053-.615.17-1.281-.326-1.817" fill="#5b9de7"/>
          <path id="Trazado_134910" data-name="Trazado 134910" d="M98.811,141.541a61.218,61.218,0,0,1,.785,8.039c.817,1.2,1.268,2.443.37,3.813-5.142-.005-10.285.027-15.426-.041-1.4-.018-2.22.1-2.246,1.856-.033,2.259-.558,4.509-.634,6.77-.13,3.824-1.505,5.074-5.284,4.268-6.965-1.486-13.909-3.068-20.86-4.617-3.2-.713-6.381-1.489-9.591-2.143a3.983,3.983,0,0,1-3.163-2.907c-1.076-3.1-2.2-6.189-3.307-9.283q-.624-2.11-1.246-4.222c.243-.746.562-1.423,1.445-1.587Q51.3,143.7,62.94,145.915q9.125,1.748,18.242,3.543c.994.2,1.624.241,1.7-1.132.12-2.268.482-4.522.742-6.782.889-.793,2.031-.587,3.067-.724a40.373,40.373,0,0,1,10.929.2,2.178,2.178,0,0,1,1.194.519" fill="#fec4b7"/>
          <path id="Trazado_134911" data-name="Trazado 134911" d="M99.966,153.393c.221-1.305-.422-2.525-.37-3.813,4.739-.444,9.339-1.67,14-2.526,9.712-1.781,19.4-3.683,29.1-5.536.965.1,1.264.822,1.5,1.6q-.6,2.085-1.2,4.172c-1.528,3.07-2.3,6.418-3.549,9.6a3.814,3.814,0,0,1-2.95,2.609c-10.293,2.248-20.575,4.545-30.871,6.775-2.948.638-4.667-.435-4.818-3.262-.173-3.221-.622-6.408-.845-9.619" fill="#fedfd6"/>
          <path id="Trazado_134912" data-name="Trazado 134912" d="M148.076,172.371l34.241.026c-.769,4.213-1.484,8.436-2.335,12.632a2.754,2.754,0,0,1-2.9,2.284q-10,.025-20,0a3.463,3.463,0,0,1-3.173-2.353c-1.955-4.19-3.887-8.39-5.828-12.587" fill="#fedfd6"/>
          <path id="Trazado_134913" data-name="Trazado 134913" d="M67.188,3.875A76.952,76.952,0,0,1,83.423.386,73.724,73.724,0,0,1,94.614.081a71.993,71.993,0,0,1,20.578,3.8c.073.8-.639.854-1.1,1.062a56.33,56.33,0,0,0-12.129,7.24,3.528,3.528,0,0,1-2.059.862,70.112,70.112,0,0,0-17.376.006,3.239,3.239,0,0,1-1.915-.728A53.831,53.831,0,0,0,68.12,4.864c-.421-.171-1.033-.276-.932-.989" fill="#fec4b7"/>
          <path id="Trazado_134914" data-name="Trazado 134914" d="M100.351,12.629c3.237-2.15,6.259-4.633,9.82-6.282,1.692-.784,3.35-1.643,5.023-2.467A4.14,4.14,0,0,1,119.04,8.2c.061,1.182-.3,2.409.33,3.538a.945.945,0,0,0-.733.762c-1.68,6.132-6.04,9.932-11.333,12.873A114.929,114.929,0,0,1,94.69,31.058c-1.125-1.737-.6-3.673-.516-5.5a20.024,20.024,0,0,1,2.654-9.368,8.358,8.358,0,0,1,3.523-3.564" fill="#fedfd6"/>
          <path id="Trazado_134915" data-name="Trazado 134915" d="M67.188,3.875c5.407,2.144,10.163,5.39,14.851,8.754,3.177,1.624,4.305,4.707,5.3,7.769a25.138,25.138,0,0,1,.93,9.016,1.871,1.871,0,0,1-.544,1.553c-5.308-2.16-10.67-4.208-15.477-7.414A21.2,21.2,0,0,1,63.357,11.51c0-1.188-.05-2.379.014-3.563a4.072,4.072,0,0,1,3.817-4.072" fill="#fedfd6"/>
          <path id="Trazado_134916" data-name="Trazado 134916" d="M98.811,141.541a78.268,78.268,0,0,0-15.19,0c.281-3.6.536-7.2.85-10.789.437-4.984.918-9.964,1.38-14.945q.893-9.645,1.783-19.29c.435-4.795.835-9.592,1.269-14.386.588-6.5,1.2-12.989,1.782-19.485.113-1.263.126-2.535.185-3.8.252-.15.575-1.021.667.114q.563,6.918,1.188,13.831c.7,7.764,1.438,15.525,2.143,23.288.567,6.25,1.1,12.5,1.667,18.753.714,7.89,1.452,15.778,2.163,23.668.091,1.009.078,2.027.113,3.041" fill="#fea698"/>
          <path id="Trazado_134917" data-name="Trazado 134917" d="M39.654,141.487c-.389.614-.7,1.3-1.445,1.588-2.746.029-2.923-.235-3.112-3.024-.428-6.323-.538-12.657-.8-18.984q-.371-8.922-.756-17.842c-.269-6.265-.5-12.53-.767-18.795-.234-5.565-.51-11.13-.751-16.7-.188-4.349-1.779-8.384-3.543-12.333-1.344-3.008-2.632-6.042-3.922-9.074a5.892,5.892,0,0,1-.473-1.636c-.123-1.1-.151-2.293,1.235-2.623A2.368,2.368,0,0,1,28.43,43.5c1.4,3.4,2.769,6.812,4.312,10.145A45.21,45.21,0,0,1,36.756,72.6c.056,6.195.452,12.4.721,18.6.259,5.947.495,11.895.755,17.841.274,6.265.441,12.537.8,18.793.26,4.549.143,9.113.623,13.649" fill="#345aac"/>
          <path id="Trazado_134918" data-name="Trazado 134918" d="M87.726,30.968c.158-4.959.01-9.837-2.495-14.369-.854-1.546-2.258-2.546-3.191-3.969a56.648,56.648,0,0,1,18.311,0c-5.378,5.07-6.037,11.59-5.662,18.428a20.619,20.619,0,0,0-3.5,2.635,17.369,17.369,0,0,0-3.461-2.725" fill="#fea698"/>
          <path id="Trazado_134919" data-name="Trazado 134919" d="M52.277,104.456c-.664,4.723-1.351,9.615-2.041,14.507q-.69,4.892-1.387,9.782c-.072.5-.151,1-.253,1.5a2.147,2.147,0,0,1-2.547,1.983,2.195,2.195,0,0,1-1.913-2.777c.584-4.2,1.137-8.412,1.729-12.614.6-4.265,1.245-8.523,1.844-12.788.205-1.464.978-2.446,2.454-2.376s2.212,1.093,2.114,2.785" fill="#fedfd6"/>
          <path id="Trazado_134920" data-name="Trazado 134920" d="M144.2,143.122c-.758-.293-1.07-1-1.5-1.6.388-9.946.7-19.9,1.195-29.837.289-5.762.549-11.522.74-17.288.3-8.995.667-17.99,1.154-26.978.277-5.129,2.105-9.87,4.205-14.512,1.307-2.888,2.511-5.823,3.732-8.749.824-1.974,1.867-2.639,3.419-2.1,1.242.435,1.623,1.843.825,3.792-1.85,4.519-3.81,8.992-5.668,13.507a28.739,28.739,0,0,0-1.993,10c-.378,10.392-.7,20.787-1.208,31.173q-.405,8.262-.718,16.525c-.313,7.978-.741,15.952-1.113,23.928-.1,2.059-1.473,2.251-3.071,2.14" fill="#345aac"/>
          <path id="Trazado_134921" data-name="Trazado 134921" d="M138.209,129.153c.146,1.967-.541,2.847-1.81,3.067a2.085,2.085,0,0,1-2.577-1.916c-.524-3.186-.97-6.385-1.427-9.581q-1.076-7.522-2.122-15.049a15.038,15.038,0,0,1-.167-1.509,2.148,2.148,0,0,1,2.034-2.513,2.277,2.277,0,0,1,2.5,2.13c.682,4.572,1.3,9.153,1.944,13.732.571,4.077,1.14,8.154,1.627,11.639" fill="#fedfd6"/>
          <path id="Trazado_134922" data-name="Trazado 134922" d="M97.906,45.422a3.355,3.355,0,0,1-3.279-3.267,3.243,3.243,0,0,1,6.485-.058,3.355,3.355,0,0,1-3.206,3.325" fill="#fdf3ef"/>
          <path id="Trazado_134923" data-name="Trazado 134923" d="M108.231,118.7a3.31,3.31,0,0,1-6.618.121,3.311,3.311,0,0,1,6.618-.121" fill="#fdf2ef"/>
          <path id="Trazado_134924" data-name="Trazado 134924" d="M101.059,83.634a3.035,3.035,0,0,1-3.084-3.311,3.213,3.213,0,0,1,3.3-3.18,3.428,3.428,0,0,1,3.192,3.386,3.354,3.354,0,0,1-3.406,3.105" fill="#fdf2ef"/>
          <path id="Trazado_134925" data-name="Trazado 134925" d="M110,160.241a3.242,3.242,0,0,1-.036-6.481,3.242,3.242,0,1,1,.036,6.481" fill="#fefefe"/>
        </g>
      </g>
    </g>
  </g>
</svg>
