<svg xmlns="http://www.w3.org/2000/svg" xmlns:xlink="http://www.w3.org/1999/xlink" width="173" height="116" viewBox="0 0 173 116">
  <defs>
    <clipPath id="clip-path">
      <rect id="Rect치ngulo_38073" data-name="Rect치ngulo 38073" width="100.768" height="109.823" fill="none"/>
    </clipPath>
  </defs>
  <g id="_120" data-name="120" transform="translate(-1144.275 -3700)">
    <rect id="Rect치ngulo_36141" data-name="Rect치ngulo 36141" width="173" height="116" transform="translate(1144.275 3700)" fill="none"/>
    <g id="Grupo_158927" data-name="Grupo 158927" transform="translate(1180.275 3703)">
      <g id="Grupo_158926" data-name="Grupo 158926" clip-path="url(#clip-path)">
        <path id="Trazado_135722" data-name="Trazado 135722" d="M84.261,0A9.585,9.585,0,0,0,86.91.586a28.338,28.338,0,0,1,22.48,24.959c.1,1.064.166,2.137.167,3.206q.021,10.823.006,21.647a1.5,1.5,0,0,1-.982.362,4.936,4.936,0,0,0-3.921,2.959,1.27,1.27,0,0,1-.446.59.312.312,0,0,1-.3-.079,2.359,2.359,0,0,1-.2-1.356c-.008-2.607-.012-5.214,0-7.82,0-.669-.125-1.14-.868-1.378-4.3-1.378-7.585-4.181-10.478-7.518a41.256,41.256,0,0,1-4.935-7.118c-.294-.532-.538-.668-1.045-.225-4.546,3.97-9.954,6.4-15.523,8.472A108.25,108.25,0,0,1,54.5,41.943a4.343,4.343,0,0,1-.953.14,1.037,1.037,0,0,1-.656-.221,2.186,2.186,0,0,1-.235-1.348c-.006-3.787-.05-7.576.007-11.363.1-6.837,1.908-13.13,6.268-18.522A28.394,28.394,0,0,1,75.644.325,12.8,12.8,0,0,1,78.411.11c.447-.056.913.123,1.345-.11h1.716a2.192,2.192,0,0,0,1.5,0Z" transform="translate(-20.346)" fill="#b06e3d"/>
        <path id="Trazado_135723" data-name="Trazado 135723" d="M65.421.212A24.16,24.16,0,0,0,57.012,2.4,28.122,28.122,0,0,0,42.661,16.4a28.457,28.457,0,0,0-2.593,10.689c-.275,4.919-.05,9.832-.157,14.746-.123.555-.626.529-1.011.6a91.367,91.367,0,0,1-12.572,1.637,2.537,2.537,0,0,0-1.523.385c-.351.35-.254.8-.256,1.215-.007,2.24,0,4.479-.007,6.719a2.336,2.336,0,0,1-.2,1.348c-.36.3-.529-.028-.645-.253a5.226,5.226,0,0,0-4.149-2.79.968.968,0,0,1-.661-.3q0-11.09,0-22.179A28.4,28.4,0,0,1,41.107.636,16.453,16.453,0,0,0,44.191,0H65.423c.071.048.093.1.069.142s-.048.07-.072.07" transform="translate(-7.299)" fill="#975e33"/>
        <path id="Trazado_135724" data-name="Trazado 135724" d="M101.145,0a1.237,1.237,0,0,1-1.5,0Z" transform="translate(-38.518)" fill="#b97e52"/>
        <path id="Trazado_135725" data-name="Trazado 135725" d="M94.746.212c0-.071,0-.141,0-.212h1.286c-.377.387-.858.147-1.289.212" transform="translate(-36.624)" fill="#a36538"/>
        <path id="Trazado_135726" data-name="Trazado 135726" d="M15.793,76.763c2.362.155,4.319.928,5.159,3.4a.963.963,0,0,1,.212.364c.025.09.124.179.064.24.072-3.092.015-6.228.04-9.363a1.77,1.77,0,0,1,.109-1.035c2.813-.37,5.66-.415,8.463-.891a65.334,65.334,0,0,0,6.979-1.27l.638.009a32.409,32.409,0,0,1,.086,4.46,4.8,4.8,0,0,0,.39,2.067c-.269.463-.737.367-1.148.381-.928.03-1.858-.014-2.786.02-1.155.042-1.869.605-1.91,1.471-.037.783.5,1.374,1.59,1.55a1.118,1.118,0,0,1,1.068,1.313,11.432,11.432,0,0,0,.021,1.5c.234,2.054.918,3.757,3.3,4.081a12.3,12.3,0,0,0-.753,2.011c-.352.294-.747.138-1.13.107a8.362,8.362,0,0,0-4.108.47c-1.082.472-2.105,1.134-2.169,2.418-.066,1.325.943,2.021,2.039,2.479a7.106,7.106,0,0,0,4.079.542,3.9,3.9,0,0,1,1.588-.125c.478.3.5.836.637,1.307,2.6,9.158,8.521,14.951,17.691,17.45a14.574,14.574,0,0,1,1.547.428c.218.086.521.173.262.521a2.5,2.5,0,0,1-1.451.213c-3.121.038-6.243-.061-9.361.058a21.812,21.812,0,0,1-9.961-1.505A24.21,24.21,0,0,1,21.847,94.814a1.236,1.236,0,0,0-1.341-1.062A9.31,9.31,0,0,1,16.8,92.8a1.818,1.818,0,0,1-.982-.786,10.8,10.8,0,0,1-4.589-6.33,9.6,9.6,0,0,1,.144-5.565c.7-2.09,2.353-3.025,4.425-3.358" transform="translate(-4.206 -26.364)" fill="#e9ab9c"/>
        <path id="Trazado_135727" data-name="Trazado 135727" d="M91.417,150.611a22.515,22.515,0,0,1,4.041,3.309,17.1,17.1,0,0,1,3.655,8.541c.245,1.331.49,2.664.81,3.979.172.709-.044.916-.713.845a7.106,7.106,0,0,0-.75,0q-21.477,0-42.954,0c-.464,0-.927-.021-1.391-.033a7.708,7.708,0,0,1,.147-3.257,32.618,32.618,0,0,1,1.639-8.474,11.586,11.586,0,0,1,3.793-5.447,6.668,6.668,0,0,1,2.589-1.218,1.42,1.42,0,0,1,1.032.1,1.06,1.06,0,0,1,.288.775,7.693,7.693,0,0,0,15.326.051c.046-.349.05-.723.44-.91,3.368-.175,6.748-.5,10.024.646a3.826,3.826,0,0,1,2.023,1.1" transform="translate(-20.864 -57.475)" fill="#f3dc45"/>
        <path id="Trazado_135728" data-name="Trazado 135728" d="M107.094,134.455a25.678,25.678,0,0,0-4.367-1.367c-2.6-.374-5.2-.085-7.8-.2-.387-.282-.336-.7-.358-1.1a16.271,16.271,0,0,1,.155-3.93c.386-.542,1.026-.294,1.523-.49a25.793,25.793,0,0,0,7.54-1.332,23.773,23.773,0,0,0,15.286-16.221c.163-.532.16-1.15.712-1.5a15.51,15.51,0,0,0,5.533-1.377.507.507,0,0,1,.413.024c.009,2.892.052,5.785,0,8.677-.013.83.239,1.03,1.02.982a10.02,10.02,0,0,1,6.994,1.781,8.976,8.976,0,0,1,3.141,9.85,8.724,8.724,0,0,1-8.158,6.171c-7.213.069-14.427.034-21.641.043" transform="translate(-36.541 -41.32)" fill="#b06e3d"/>
        <path id="Trazado_135729" data-name="Trazado 135729" d="M42.406,132.922l-1.011.053a19.475,19.475,0,0,1-4.886.3,10.733,10.733,0,0,0-4.081.726,8.311,8.311,0,0,1-3.4.581c-3.668-.1-7.341-.026-11.013-.04-3.135-.012-6.271.061-9.406-.04a8.828,8.828,0,0,1-8.572-8.142,8.928,8.928,0,0,1,7.332-9.606,12.107,12.107,0,0,1,3.2-.087c.887.05,1.043-.277,1.032-1.078-.039-2.857,0-5.715,0-8.572a10.631,10.631,0,0,0,5.3,1.483c.615-.017.781.325.9.824a24.211,24.211,0,0,0,21.517,18.262c1.031.072,2.061.159,3.091.239l.16.13c.27,1.666.556,3.332-.167,4.964" transform="translate(0 -41.369)" fill="#975e33"/>
        <path id="Trazado_135730" data-name="Trazado 135730" d="M14.033,150.773q5.185-.027,10.37-.053c1.747-.007,3.494.009,5.241,0,3.074-.023,6.122.186,9.126-1.022,2.547-1.024,5.355-.4,8.049-.453-3.157,1-4.835,3.405-6.005,6.3-1.131,2.8-1.349,5.772-1.716,8.719-.131,1.05-.281,2.1-.423,3.148-3.639.011-7.279.011-10.918.046-.609.006-.755-.232-.641-.759.535-2.464.961-4.959,1.634-7.384a13.411,13.411,0,0,1,5.557-7.612c.285-.2.562-.4,1.037-.741-.581-.026-.948-.056-1.316-.057q-9.422,0-18.843-.007a2.067,2.067,0,0,1-1.151-.118" transform="translate(-5.424 -57.636)" fill="#e9b04d"/>
        <path id="Trazado_135731" data-name="Trazado 135731" d="M141.48,97.39a10.719,10.719,0,0,1-5.965,1.515.923.923,0,0,1-.225-.893c.536-3.149.219-6.324.307-9.486a6.557,6.557,0,0,1,.081-1.063c.174-.482.113-1.039.453-1.47.934-2.571,2.5-3.692,5.372-3.837,4.232.525,5.221,4.221,4.811,7.555a10.4,10.4,0,0,1-4.835,7.679" transform="translate(-52.287 -31.758)" fill="#e9ab9c"/>
        <path id="Trazado_135732" data-name="Trazado 135732" d="M104.465,73.18c-.136,3.875.267,7.769-.436,11.623a25.86,25.86,0,0,1-3.525,8.221c-4.795,6.911-11.342,10.672-19.83,10.868a27.916,27.916,0,0,1-4.451.279,2.859,2.859,0,0,1-1.809-.509,23.213,23.213,0,0,1-10.88-4.59,24.132,24.132,0,0,1-9.27-14.715c.108-.394.465-.51.77-.677a2.646,2.646,0,0,0,1.7-2.373c-.036-1.109-.964-1.658-1.789-2.217-.368-.249-.913-.234-1.108-.743.028-.748-.3-1.659.861-1.891a.851.851,0,0,1,.339-.521,6.32,6.32,0,0,0-.3-9.522.757.757,0,0,1-.249-.337c-.227-.223-.667-.191-.658-.7.033-1.794.013-3.591.031-5.385a1.468,1.468,0,0,1,.2-.484C62.613,57.679,71,55.32,78.866,51.365a33,33,0,0,0,8.071-5.386c.639-.607.757-.2,1.021.282a39.886,39.886,0,0,0,7.7,10.08,19.569,19.569,0,0,0,8.1,4.832c.645.178.732.517.73,1.075-.014,3.213,0,6.425,0,9.639a2.322,2.322,0,0,1-.013,1.294" transform="translate(-20.801 -17.656)" fill="#fecabd"/>
        <path id="Trazado_135733" data-name="Trazado 135733" d="M136.384,89.7,136.4,88.4a.473.473,0,0,0,.169.006c-.038.432.175.9-.182,1.288" transform="translate(-52.719 -34.172)" fill="#dc9f85"/>
        <path id="Trazado_135734" data-name="Trazado 135734" d="M27.723,71.727v11.31l-.134.01q-.144-.763-.29-1.527c.39-.3.212-.728.215-1.094.017-2.568,0-5.136.017-7.7,0-.334-.155-.721.193-1" transform="translate(-10.552 -27.726)" fill="#da9f89"/>
        <path id="Trazado_135735" data-name="Trazado 135735" d="M51.025,78.93a4.76,4.76,0,0,1,.861.4c2.872,2.1,2.472,8.858-.648,9.98a2.842,2.842,0,0,1-3.115-2.048,7.536,7.536,0,0,1-.561-3.764c.057-.609-.031-.884-.756-.892a1.834,1.834,0,0,1-1.937-1.843,1.9,1.9,0,0,1,2.1-1.8c1.353-.019,2.707-.02,4.06-.029" transform="translate(-17.344 -30.51)" fill="#454045"/>
        <path id="Trazado_135736" data-name="Trazado 135736" d="M49,98.779a6.469,6.469,0,0,1,2.2,1.214c1.47,1.478,1.28,3.1-.547,4.167-.4.231-.817.42-1.226.629a8.462,8.462,0,0,1-6.21-.418,2.933,2.933,0,0,1-1.908-2.5,2.89,2.89,0,0,1,1.87-2.526A8.548,8.548,0,0,1,49,98.779" transform="translate(-15.971 -38.088)" fill="#e38fb6"/>
        <path id="Trazado_135737" data-name="Trazado 135737" d="M23.193,92.949c-.142.575.384,1.592-.247,1.876-.674.3-1.091-.714-1.586-1.175a2.961,2.961,0,0,0-3.092-.884,1.6,1.6,0,0,1-2.08-1.321,1.72,1.72,0,0,1,1.232-1.87,5.6,5.6,0,0,1,5.329.881.932.932,0,0,1,.447.894c-.01.5,0,1,0,1.6" transform="translate(-6.245 -34.493)" fill="#de9280"/>
        <path id="Trazado_135738" data-name="Trazado 135738" d="M80.34,140.2a48.7,48.7,0,0,0,6.26.231c-.467.3-1.007.074-1.5.209a2.33,2.33,0,0,1-1.54.331q-6.431.008-12.863,0a2.391,2.391,0,0,1-1.544-.319l-.017,0c.343-.379.8-.239,1.21-.24,2.96-.01,5.919,0,8.879-.012.374,0,.793.144,1.112-.2" transform="translate(-26.726 -54.195)" fill="#eeb3a4"/>
        <path id="Trazado_135739" data-name="Trazado 135739" d="M69.152,140.929l15.947-.012q-.026,2.032-.051,4.063a1.981,1.981,0,0,1-1.432.294c-2.57.009-5.141-.006-7.711.008-1.2.006-1.372.209-1.211,1.411a7.675,7.675,0,0,0,4.009,6.1c.364.2.824.293.986.761-4.625,1.871-10.34-1.824-10.5-6.79-.008-.248-.038-.5-.059-.744q.012-2.548.025-5.1" transform="translate(-26.721 -54.472)" fill="#e9ab9c"/>
        <path id="Trazado_135740" data-name="Trazado 135740" d="M82.961,156.106a8.089,8.089,0,0,1-5.369-7.565c0-.786.207-1.046,1.018-1.036,3.236.044,6.473.02,9.71.021q.031.528.063,1.056c-.218,3.653-1.913,6.242-5.422,7.523" transform="translate(-29.993 -57.018)" fill="#fecabd"/>
        <path id="Trazado_135741" data-name="Trazado 135741" d="M136.66,92.512a2.141,2.141,0,0,1,1.4-2.657c1.656-.652,3.288-.969,4.9-.012A1.426,1.426,0,0,1,143.6,91.6c-.28.834-.866,1.456-1.75,1.191-1.675-.5-2.805.194-3.845,1.363-.291.327-.581.917-1.075.736-.534-.2-.193-.82-.258-1.251a9.258,9.258,0,0,1-.008-1.129" transform="translate(-52.804 -34.496)" fill="#de9380"/>
        <path id="Trazado_135742" data-name="Trazado 135742" d="M70.789,111.5c-1.3-1.27-2.587-2.547-3.9-3.8-.355-.341-.4-.593-.024-.963,1.5-1.471,2.993-2.953,4.455-4.462.41-.424.624-.232.937.079,1.287,1.28,2.591,2.542,3.889,3.81a1.835,1.835,0,0,1,.861.59q1.987,1.985,3.968,3.973a1.39,1.39,0,0,1,.524.772c1.242,1.278,2.459,2.582,3.741,3.819.491.474.448.73-.017,1.177q-2.127,2.038-4.167,4.164c-.448.466-.744.505-1.2.013-1.141-1.227-2.329-2.41-3.5-3.611a2.488,2.488,0,0,1-1.016-.535q-1.994-2.017-4.01-4.014a1.947,1.947,0,0,1-.546-1.01" transform="translate(-25.747 -39.44)" fill="#fefefe"/>
        <path id="Trazado_135743" data-name="Trazado 135743" d="M110.032,78.955c.713,0,1.426-.021,2.138,0a1.864,1.864,0,0,1,1.886,1.795,1.781,1.781,0,0,1-1.823,1.837c-1.116-.072-1.156.423-1.093,1.291a6.32,6.32,0,0,1-1.15,4.349,2.26,2.26,0,0,1-3.86.082,7.573,7.573,0,0,1-.02-8.333,2.45,2.45,0,0,1,2.213-1.046c.566.048,1.139.009,1.71.009v.01" transform="translate(-40.538 -30.509)" fill="#454045"/>
        <path id="Trazado_135744" data-name="Trazado 135744" d="M110.484,105.212a9.442,9.442,0,0,1-3.378-.875c-2.2-1.175-2.441-2.956-.589-4.567,2-1.739,6.76-1.6,8.662.245,1.475,1.434,1.274,3.057-.511,4.136a9.307,9.307,0,0,1-4.184,1.062" transform="translate(-40.695 -38.092)" fill="#e38fb6"/>
        <path id="Trazado_135745" data-name="Trazado 135745" d="M87.518,111.571c-1.87-1.692-3.635-3.49-5.353-5.336,1.223-1.194,2.472-2.362,3.655-3.593.557-.578.932-.563,1.478.009,1.329,1.391,2.708,2.734,4.073,4.09.3.3.559.547.126.961-1.338,1.278-2.654,2.578-3.979,3.87" transform="translate(-31.761 -39.511)" fill="#e6ebf0"/>
        <path id="Trazado_135746" data-name="Trazado 135746" d="M70.839,117.472c1.778,1.932,3.621,3.8,5.572,5.559-1.061.379-1.573,1.391-2.376,2.067-.73.615-1.274,1.822-2.1,1.847-.907.028-1.458-1.2-2.176-1.874-.936-.872-1.8-1.823-2.732-2.7-.419-.393-.374-.631.013-1.015,1.285-1.275,2.533-2.588,3.8-3.886" transform="translate(-25.796 -45.409)" fill="#e6ebf0"/>
        <path id="Trazado_135747" data-name="Trazado 135747" d="M79.012,95.506c-1.072,0-2.145.012-3.217,0a1.639,1.639,0,0,1-1.662-1.585A1.593,1.593,0,0,1,75.676,92.3q3.376-.064,6.755,0a1.593,1.593,0,0,1,1.555,1.6,1.636,1.636,0,0,1-1.651,1.6c-1.107.017-2.216,0-3.324,0" transform="translate(-28.656 -35.667)" fill="#e9ab9c"/>
      </g>
    </g>
  </g>
</svg>
