<svg xmlns="http://www.w3.org/2000/svg" xmlns:xlink="http://www.w3.org/1999/xlink" width="173" height="116" viewBox="0 0 173 116">
  <defs>
    <clipPath id="clip-path">
      <rect id="Rect치ngulo_38074" data-name="Rect치ngulo 38074" width="103.77" height="98.119" fill="none"/>
    </clipPath>
  </defs>
  <g id="_121" data-name="121" transform="translate(-294.275 -4079)">
    <rect id="Rect치ngulo_36141" data-name="Rect치ngulo 36141" width="173" height="116" transform="translate(294.275 4079)" fill="none"/>
    <g id="Grupo_158930" data-name="Grupo 158930" transform="translate(329.275 4088)">
      <g id="Grupo_158929" data-name="Grupo 158929" clip-path="url(#clip-path)">
        <path id="Trazado_135748" data-name="Trazado 135748" d="M0,30.1a22.773,22.773,0,0,1,1.83-4.325,11.741,11.741,0,0,1,11.41-5.461c3.457.314,6.916.6,10.375.9.512.318.391.824.33,1.274a18.794,18.794,0,0,0-.113,2.423c-.03,5.965-.338,11.923-.449,17.887-.084,4.58-.259,9.159-.389,13.739-.139,4.883-.266,9.767-.429,14.649-.072,2.156-.1,4.311-.159,6.466a4.051,4.051,0,0,1-.52,2.424c-3.118.282-6.232.664-9.357.826A11.889,11.889,0,0,1,.411,72.129c-.1-.376-.086-.8-.411-1.094Z" transform="translate(0 -7.196)" fill="#fed944"/>
        <path id="Trazado_135749" data-name="Trazado 135749" d="M33.864,72.876c.311-2.991.231-6,.328-9,.349-10.857.612-21.716.919-32.574.155-5.5.337-10.991.5-16.487.008-.268-.015-.538-.024-.806.088-2.462.188-4.923.261-7.386C35.967,2.758,38.269.351,42.134.088c.235-.015.472-.013.709-.013Q63.916.044,84.988.023a2.61,2.61,0,0,1,1.387.145c-.493.505-1.134.354-1.721.355q-9.2.019-18.4.007c-.337,0-.676.019-1.011,0-.788-.043-1.069.336-1.062,1.1.018,1.785.007,3.572.005,5.358,0,1.585.006,3.169-.005,4.752a2.152,2.152,0,0,1-.226,1.175c-.525.512-1.2.363-1.818.36-.735,0-1.019.3-1.011,1.029.018,1.612.01,3.225,0,4.838a3.236,3.236,0,0,1-.117,1.1c-.483.643-.85.055-1.151-.179a12.4,12.4,0,0,0-3.115-1.864,10.8,10.8,0,0,0-9.29,19.438,10.7,10.7,0,0,0,12.3-1.173c.327-.279.634-1.033,1.261-.326a7.759,7.759,0,0,1,.117,2.107q.014,4.083,0,8.166a3.771,3.771,0,0,1-.157,1.492c-.375.545-.958.414-1.476.418-2.8.017-5.6.083-8.394-.012a7.2,7.2,0,0,0-7.092,4.27A14.226,14.226,0,0,0,42.6,60.217a13.594,13.594,0,0,0,1.78,6.15,6.936,6.936,0,0,0,6.414,3.67c2.9-.024,5.8-.014,8.7,0,.519,0,1.1-.126,1.487.407a2.77,2.77,0,0,1,.168,1.191q.009,7.216,0,14.431c0,.492.082,1.025-.356,1.415-6.787,0-13.574.019-20.361,0-4.166-.01-6.833-2.759-6.723-6.918.068-2.563.229-5.125.165-7.692" transform="translate(-11.976 0)" fill="#2189db"/>
        <path id="Trazado_135750" data-name="Trazado 135750" d="M80.479,13.048l.006-11.426c0-1.329,0-1.33,1.287-1.33q10.162,0,20.324,0c.3,0,.605-.019.908-.03a6.16,6.16,0,0,1,5.469,5.579c.174,2.156.147,4.316.2,6.475a5.557,5.557,0,0,0,.157,1.8,1.6,1.6,0,0,1,.344,1.327c-.105,3.777.18,7.546.252,11.319.092,4.78.251,9.562.4,14.343q.21,6.868.4,13.736c.141,4.882.351,9.762.388,14.647.006.708.215,1.4.187,2.114a1.919,1.919,0,0,1-.3,1.347c-.146,2.632.169,5.255.176,7.884a6.379,6.379,0,0,1-6.755,6.781q-10.169.011-20.336,0a1.176,1.176,0,0,1-.377-1.1q-.028-7.576,0-15.153a2.032,2.032,0,0,1,.139-.79c.356-.569.944-.441,1.462-.444,2.835-.017,5.672-.081,8.5.011a6.947,6.947,0,0,0,6.891-4.08,14.216,14.216,0,0,0-.269-14.048A6.726,6.726,0,0,0,93.59,48.4c-2.9.058-5.8.021-8.707.006-.521,0-1.1.124-1.5-.384a2.6,2.6,0,0,1-.177-1.189q-.009-4.651,0-9.3a2.4,2.4,0,0,1,.217-1.277c.546-.452.866.046,1.2.322a10.784,10.784,0,1,0,8.717-18.89,10.684,10.684,0,0,0-8.483,2.168c-.4.315-.758,1.047-1.5.534a25.4,25.4,0,0,1-.139-4.212c-.019-.435,0-.872,0-1.308-.008-1.458-.016-1.466-1.435-1.5A2.394,2.394,0,0,1,80.6,13.18c-.042-.043-.083-.088-.124-.131" transform="translate(-28.604 -0.093)" fill="#1865a0"/>
        <path id="Trazado_135751" data-name="Trazado 135751" d="M126.134,80.035c-.142-3.975-.3-7.949-.423-11.925q-.4-13.344-.764-26.688c-.18-6.739-.323-13.479-.483-20.219,3.594-.329,7.185-.715,10.783-.977a11.855,11.855,0,0,1,12.739,11.751c.037,12.391.013,24.782,0,37.173a11.7,11.7,0,0,1-.174,1.809A11.889,11.889,0,0,1,134.8,80.815c-2.883-.316-5.778-.523-8.668-.78" transform="translate(-44.237 -7.178)" fill="#fe9e22"/>
        <path id="Trazado_135752" data-name="Trazado 135752" d="M75.571,27.628c.006-2.213.037-4.428,0-6.64-.011-.665.182-.881.843-.843.732.042,1.471-.026,2.206-.045l.014.084a2.214,2.214,0,0,1,.317,1.644q.015,9.674.006,19.348v61.183c0,.27,0,.54,0,.81.014,1.459.026,1.472,1.446,1.533a1.687,1.687,0,0,1,1.236.333c-.511.385-1.1.16-1.642.174-1.18.028-2.364-.066-3.543-.018-.747.03-.886-.267-.882-.939.019-3.208-.01-6.416-.021-9.624q.009-8.594.017-17.186a1.521,1.521,0,0,1-.3-1.136c0-1.642-.035-3.284.015-4.926q-.062-5.052,0-10.1c-.051-1.648-.019-3.3-.017-4.943a1.56,1.56,0,0,1,.3-1.142q-.007-6.054-.013-12.108a1.86,1.86,0,0,1-.294-1.35q-.015-6.38,0-12.76a1.794,1.794,0,0,1,.308-1.345" transform="translate(-26.747 -7.144)" fill="#fed944"/>
        <path id="Trazado_135753" data-name="Trazado 135753" d="M83.494,105.017c-.743,0-1.487-.037-2.226.006-.641.037-.859-.236-.788-.831a1.766,1.766,0,0,0,0-.2q0-41.912.007-83.824c3.057-.284,3.057-.284,3.058,2.681q0,2.375.008,4.749a1.724,1.724,0,0,1,.285,1.251c.011,4.422,0,8.844,0,13.267a1.759,1.759,0,0,1-.172.983,1.007,1.007,0,0,0-.125.677q.006,5.686.015,11.373a2.062,2.062,0,0,1,.28,1.354c0,1.646.021,3.292-.014,4.938.025,3.237.043,6.474-.006,9.711.053,1.717.017,3.434.019,5.15a1.736,1.736,0,0,1-.278,1.154q.01,8.6.02,17.195-.018,4.632-.039,9.265c0,.368-.032.735-.048,1.1" transform="translate(-28.6 -7.125)" fill="#fe9e22"/>
        <path id="Trazado_135754" data-name="Trazado 135754" d="M65.223,29.954q-.007,7.727-.014,15.455a11.391,11.391,0,0,1-8.5,3.367,11.072,11.072,0,0,1-.015-22.121,11.7,11.7,0,0,1,8.528,3.3" transform="translate(-16.399 -9.47)" fill="#fe7c48"/>
        <path id="Trazado_135755" data-name="Trazado 135755" d="M65.5,90.684q.008,3.054.015,6.107c-3.405-.007-6.811-.05-10.215-.01a6.979,6.979,0,0,1-6.2-3.336c-2.806-4.162-2.854-11.174-.114-15.387A7.1,7.1,0,0,1,55.4,74.545c3.371.048,6.744,0,10.115-.005q-.006,3.053-.011,6.106a1.986,1.986,0,0,1-1.36.257c-2.665.01-5.331,0-8,.006-1.4,0-1.666.172-2.179,1.49a8.786,8.786,0,0,0-.013,6.515c.487,1.28.83,1.506,2.186,1.514,2.665.014,5.331,0,8,.009a2.048,2.048,0,0,1,1.364.246" transform="translate(-16.691 -26.493)" fill="#fe7c48"/>
        <path id="Trazado_135756" data-name="Trazado 135756" d="M85.362,45.418a3.4,3.4,0,0,1-.138-.68q0-7.411.02-14.821a12.9,12.9,0,0,1,6.113-3.157,11.08,11.08,0,0,1,3.993,21.8,10.869,10.869,0,0,1-9.988-3.139" transform="translate(-30.29 -9.447)" fill="#fe4c04"/>
        <path id="Trazado_135757" data-name="Trazado 135757" d="M85.261,96.807q0-3.13-.008-6.259c.405-.418.936-.327,1.431-.329,2.665-.012,5.33,0,7.995-.008,1.372-.006,1.817-.291,2.211-1.6a9.921,9.921,0,0,0-.05-6.072c-.442-1.346-.9-1.639-2.308-1.644-2.7-.009-5.4,0-8.1,0a2.139,2.139,0,0,1-1.186-.146q.006-3.124.012-6.248c3.405.008,6.811.052,10.215.01a6.927,6.927,0,0,1,6.183,3.342,14.071,14.071,0,0,1,2.116,9.063,13.1,13.1,0,0,1-1.941,6.294A7.114,7.114,0,0,1,95.375,96.8c-3.371-.059-6.742,0-10.113.006" transform="translate(-30.299 -26.478)" fill="#fe4c04"/>
        <path id="Trazado_135758" data-name="Trazado 135758" d="M68.842,94.037c-3.34,0-6.681-.013-10.021.022a1.417,1.417,0,0,1-1.452-.857,9.206,9.206,0,0,1,.006-8.372,1.412,1.412,0,0,1,1.448-.855c3.34.038,6.681.021,10.021.024q0,5.019,0,10.037" transform="translate(-20.033 -29.846)" fill="#09607c"/>
        <path id="Trazado_135759" data-name="Trazado 135759" d="M85.249,84.137c2.659-.2,5.322-.033,7.982-.086.168,0,.337,0,.506,0,2.83,0,3.178.217,3.719,3.024a9.148,9.148,0,0,1-.637,5.917A1.6,1.6,0,0,1,95.163,94c-3.3-.058-6.607-.049-9.91-.064q0-4.9,0-9.8" transform="translate(-30.299 -29.868)" fill="#07485e"/>
        <path id="Trazado_135760" data-name="Trazado 135760" d="M55.573,41.078a4.911,4.911,0,0,1,4.986-4.99,4.987,4.987,0,1,1-4.986,4.99" transform="translate(-19.752 -12.826)" fill="#09607c"/>
        <path id="Trazado_135761" data-name="Trazado 135761" d="M94.916,36.087A4.913,4.913,0,0,1,99.9,41.081a4.988,4.988,0,1,1-4.985-4.994" transform="translate(-31.961 -12.826)" fill="#07485e"/>
      </g>
    </g>
  </g>
</svg>
