<svg xmlns="http://www.w3.org/2000/svg" xmlns:xlink="http://www.w3.org/1999/xlink" width="173" height="116" viewBox="0 0 173 116">
  <defs>
    <clipPath id="clip-path">
      <rect id="Rect치ngulo_38075" data-name="Rect치ngulo 38075" width="87.94" height="103.769" fill="none"/>
    </clipPath>
  </defs>
  <g id="_122" data-name="122" transform="translate(-713.275 -4061)">
    <rect id="Rect치ngulo_36141" data-name="Rect치ngulo 36141" width="173" height="116" transform="translate(713.275 4061)" fill="none"/>
    <g id="Grupo_158933" data-name="Grupo 158933" transform="translate(756.275 4067)">
      <g id="Grupo_158932" data-name="Grupo 158932" clip-path="url(#clip-path)">
        <path id="Trazado_135762" data-name="Trazado 135762" d="M84.768,122.76c-.068,1-.714,1.833-.818,2.823h-.608c-.3-.25-.712.034-1.02-.2-2.569-.26-5.138-.525-7.708-.778-2.271-.223-4.545-.421-6.816-.649-2.469-.248-4.935-.532-7.4-.773-2.406-.234-4.816-.417-7.221-.653-2.37-.233-4.734-.517-7.1-.759-2.237-.229-4.477-.428-6.715-.652-2.5-.251-5-.525-7.506-.772-2.305-.228-4.613-.421-6.917-.65-2.4-.239-4.8-.5-7.2-.76a7.313,7.313,0,0,1-2.547-.351l4.323-5.775c.98-.523,1.991-.105,2.962-.021q7.509.647,15.012,1.361,8.36.79,16.723,1.542c5.507.5,11.012,1.036,16.523,1.51,1.208.1,2.421.17,3.628.327,1.237.161,1.446.03,1.972-1.078a87.2,87.2,0,0,0,6.36-19.392,112.1,112.1,0,0,0,2.123-14.823A114.056,114.056,0,0,0,85.243,68.9,149.056,149.056,0,0,0,83.7,50.666a3.322,3.322,0,0,1-.067-1.6.732.732,0,0,1,.89-.251c1.222.32,2.408.757,3.6,1.171a.483.483,0,0,1,.358.434c.116,1.924.5,3.814.74,5.722.521,4.154.82,8.325,1.148,12.5a174.716,174.716,0,0,1,.344,17.709,132.122,132.122,0,0,1-4.975,34.475c-.2.691-.259,1.488-.969,1.94" transform="translate(-6.792 -21.815)" fill="#ded0d6"/>
        <path id="Trazado_135763" data-name="Trazado 135763" d="M136.672,187.4c.346.034.732-.14,1.02.2h-1.013c0-.065,0-.13-.007-.2" transform="translate(-61.141 -83.829)" fill="#ede5e8"/>
        <path id="Trazado_135764" data-name="Trazado 135764" d="M12.717,104.382c-.923-.755-2.07-.377-3.1-.565-2.1-.384-4.245-.557-6.373-.8-1.031-.117-2.066-.2-3.243-.307,1.025-.841,1.966-1.612,2.905-2.385a40.4,40.4,0,0,0,6.779-7.3,65.7,65.7,0,0,0,9.808-20.357A109.545,109.545,0,0,0,22.417,59.73c.114-.659.166-1.33.246-2,.233-.4.653-.446,1.045-.529q14.159-3.014,28.318-6.027,10.2-2.182,20.4-4.33a2.032,2.032,0,0,1,1.288-.083.794.794,0,0,1,.208.286,38.887,38.887,0,0,1,.867,6.917c.073,1.413.242,2.818.251,4.239a112.058,112.058,0,0,1-1.956,20.927,152.238,152.238,0,0,1-8.35,28.736c-.905,2.284-.922,2.326-3.366,2.068-5.7-.6-11.4-1.269-17.1-1.915-6.9-.783-13.812-1.546-20.714-2.354-3.614-.423-7.244-.716-10.84-1.289" transform="translate(0 -20.884)" fill="#faf4f6"/>
        <path id="Trazado_135765" data-name="Trazado 135765" d="M17.282,104.59a2.389,2.389,0,0,1,.773-.181c3.193.374,6.38.788,9.573,1.158,2.1.244,4.2.418,6.3.653,2.063.23,4.121.508,6.183.748,2,.233,4,.435,6,.666,2.761.319,5.519.666,8.282.976,2.1.235,4.2.417,6.3.649q3.195.353,6.383.766c.666.086,1.075.02,1.393-.736a153.078,153.078,0,0,0,6.36-18.827,132.162,132.162,0,0,0,3.185-15.055c.408-2.646.721-5.311.91-7.993a88.575,88.575,0,0,0,.357-8.969A70.065,70.065,0,0,0,78.3,47.733a3.078,3.078,0,0,1-.013-.506,3.773,3.773,0,0,1,3.254.987c.393,3.022.823,6.039,1.167,9.067a53.091,53.091,0,0,1,.412,5.622c.023,3.4.446,6.806.207,10.207-.267,3.817-.322,7.641-.739,11.456a119.651,119.651,0,0,1-3.041,16.914,84.625,84.625,0,0,1-5.505,15.163.837.837,0,0,1-.967.513c-1.975-.14-3.951-.271-5.924-.443-1.9-.166-3.8-.38-5.7-.568-2.634-.261-5.268-.526-7.9-.774-1.7-.161-3.41-.285-5.114-.444-2.7-.253-5.4-.532-8.107-.778-1.8-.164-3.614-.274-5.418-.44-2.636-.243-5.267-.543-7.9-.761-1.6-.133-3.209-.251-4.811-.437-1.631-.188-3.273-.284-4.911-.419L10.2,111.43c2.275-2.484,4.757-4.581,7.077-6.841" transform="translate(-4.565 -21.091)" fill="#ece2e6"/>
        <path id="Trazado_135766" data-name="Trazado 135766" d="M92.035,34.561q-16.892,3.6-33.784,7.207-8.619,1.836-17.24,3.659.114-5.055.23-10.11c.773.055,1.1.723,1.568,1.174a11.492,11.492,0,0,0,5.867,2.995c1.132.227,1.328.069,1.642-1.057a3.614,3.614,0,0,0,.122-1.3c-.1-1.125-.311-1.351-1.406-1.652a8.118,8.118,0,0,1-5.834-5.4,1.189,1.189,0,0,1,0-1.164,2.087,2.087,0,0,1,1.2-.453c4.4-.92,8.793-1.887,13.2-2.8a8.064,8.064,0,0,0,1.158-.34,28.071,28.071,0,0,0,3.378-.633,2.516,2.516,0,0,1,1.2-.078,30.851,30.851,0,0,0,3.831-.683c.265-.034.37-.261.421-.5.521.085.4.557.491.871a12.094,12.094,0,0,0,9.7,8.985c1.025.218,1.217.07,1.489-.959a3.42,3.42,0,0,0,.124-1.3c-.156-1.293-.26-1.4-1.524-1.772A8.341,8.341,0,0,1,72.1,23.869c-.144-.392-.372-.815-.014-1.229,2.994-.788,6.041-1.342,9.062-2.011,2.168-.48,4.352-.889,6.508-1.421.377-.012.775-.153,1.1.176a21.657,21.657,0,0,1,.96,3.8c.8,3.4,1.58,6.8,2.309,10.217.081.381.271.775.01,1.164" transform="translate(-18.347 -8.575)" fill="#f69eb1"/>
        <path id="Trazado_135767" data-name="Trazado 135767" d="M141.1,123.944a88.768,88.768,0,0,0,3.44-13.969c.413-2.443.84-4.886,1.162-7.342.236-1.794.264-3.615.467-5.415a161.4,161.4,0,0,0,.56-20.694c-.062-3.921-.392-7.841-.724-11.757-.32-3.778-.83-7.529-1.261-11.29-.072-.629-.574-1.275,0-1.908.429-.337.833-.049,1.24.055a6.275,6.275,0,0,0,2.432.555c.258,1.612.554,3.219.767,4.836q.545,4.133,1,8.277c.183,1.666.305,3.34.423,5.012.546,7.738.494,15.49.372,23.236-.054,3.481-.391,6.961-.717,10.436-.288,3.072-.657,6.13-1.079,9.182q-.749,5.427-1.98,10.772c-.07.305-.1.657-.521.592-1.854-.283-3.746-.191-5.588-.579" transform="translate(-63.121 -22.999)" fill="#ece2e6"/>
        <path id="Trazado_135768" data-name="Trazado 135768" d="M93.456,14.2a7.882,7.882,0,0,0,6.425,6.318,1.09,1.09,0,0,1,1.009,1.038c.036.334.137.661.16.995.148,2.166-.591,2.823-2.645,2.265-5.163-1.4-8.247-4.8-9.434-9.972a12.674,12.674,0,0,1,2.576-10.09,12.567,12.567,0,0,1,22.343,6.624c.01.1.028.2.043.3-.011.376.125,1-.526.759a9.488,9.488,0,0,1-3.4-1.631l-.763-.048c-.408-.219-.433-.662-.582-1.024A7.75,7.75,0,0,0,97.229,6a7.173,7.173,0,0,0-3.591,6.306,3.749,3.749,0,0,1-.182,1.889" transform="translate(-39.728 0)" fill="#52528b"/>
        <path id="Trazado_135769" data-name="Trazado 135769" d="M41.2,25.529a7.733,7.733,0,0,0,6.111,6.24A1.336,1.336,0,0,1,48.6,33.124c.027.267.074.534.077.8.027,2.206-.571,2.68-2.661,2.185a13.132,13.132,0,0,1-6.8-4.3,12.641,12.641,0,0,1-2.305-11.088,12.562,12.562,0,0,1,24.4.374,33.621,33.621,0,0,1-4.08.968c-.095.024-.228-.108-.343-.167-.425-.149-.431-.571-.563-.9a7.809,7.809,0,0,0-15.071,2.92,5.3,5.3,0,0,1-.052,1.607" transform="translate(-16.32 -5.071)" fill="#52528b"/>
        <path id="Trazado_135770" data-name="Trazado 135770" d="M127.172,19.545c1.051.445,2.116.86,3.146,1.348.592.28.771.09.778-.478a1.308,1.308,0,0,0,.932,1.235c2.233.934,4.435,1.938,6.657,2.9a1.326,1.326,0,0,1,.894,1.07c.839,4.108,1.733,8.205,2.61,12.306-.072.561-.407.363-.728.265-.979-.3-1.962-.584-2.943-.875a33.284,33.284,0,0,0-4.653-1.446,11.77,11.77,0,0,0-3.254-.987c-.012-.05-.022-.1-.031-.15q-1.7-7.592-3.408-15.184" transform="translate(-56.891 -8.744)" fill="#f98291"/>
        <path id="Trazado_135771" data-name="Trazado 135771" d="M100.863,91.722c-.223,4.04-.559,8.621-2.408,12.906a13.39,13.39,0,0,1-7.724,7.718c-7.1,2.613-13.911-2.038-14.114-9.7a34.323,34.323,0,0,1,3.489-15.851A12.4,12.4,0,0,1,93.62,79.747c3.537.6,6.095,3.284,6.849,7.2a24.018,24.018,0,0,1,.393,4.773" transform="translate(-34.27 -35.59)" fill="#52528b"/>
        <path id="Trazado_135772" data-name="Trazado 135772" d="M47.014,97.006c-.135.006-.27.015-.4.018-.669.015-1.429.177-1.784-.6a2.058,2.058,0,0,1,.437-2.167,2.937,2.937,0,0,1,2.537-.977,4.838,4.838,0,0,0,4.9-4c.409-1.9-.572-3.009-2.51-2.872a3.583,3.583,0,0,0-2.644,1.3c-.553.678-1.048,1.4-1.553,2.12-.684.969-1.718,1.4-2.387.985-.607-.379-.7-1.3-.109-2.4a10.045,10.045,0,0,1,6.569-4.993A9.44,9.44,0,0,1,53.48,83.2a4.245,4.245,0,0,1,3.907,5.119,9.122,9.122,0,0,1-3.64,5.872c-.573.449-.781.67-.074,1.269,1.845,1.561,2.262,3.667,1.956,5.974a11.6,11.6,0,0,1-8.765,9.436,6.793,6.793,0,0,1-8.248-8.391,3.037,3.037,0,0,1,1.722-2.241c1.064-.478,1.825-.027,1.882,1.141a13.9,13.9,0,0,0,.414,3.4,2.763,2.763,0,0,0,3.518,2.021c3.719-.878,5.163-5.351,4.5-7.818-.407-1.5-1.476-2.055-3.634-1.976" transform="translate(-17.183 -37.192)" fill="#52528b"/>
        <path id="Trazado_135773" data-name="Trazado 135773" d="M86.818,104.75a43.261,43.261,0,0,1,2.392-12.972A10.613,10.613,0,0,1,90.677,88.9a5.038,5.038,0,0,1,5.095-1.994c1.533.225,2.545,1.622,2.793,3.665a32.566,32.566,0,0,1-.486,8.667,36.491,36.491,0,0,1-1.521,6.592,11.574,11.574,0,0,1-1.528,3.067,4.6,4.6,0,0,1-5.2,2.014c-1.741-.474-2.8-1.954-3-4.243-.054-.637-.008-1.282-.008-1.923" transform="translate(-38.831 -38.847)" fill="#faf4f6"/>
      </g>
    </g>
  </g>
</svg>
