<svg xmlns="http://www.w3.org/2000/svg" width="255.906" height="272.349" viewBox="0 0 255.906 272.349">
  <g id="Grupo_158937" data-name="Grupo 158937" transform="translate(-1931 5745)">
    <g id="Grupo_158621" data-name="Grupo 158621" transform="translate(1931 -5745)">
      <g id="Grupo_87689" data-name="Grupo 87689" transform="translate(0 0)">
        <g id="Grupo_87397" data-name="Grupo 87397">
          <path id="Rectángulo_34437" data-name="Rectángulo 34437" d="M77,0H255.906a0,0,0,0,1,0,0V272.349a0,0,0,0,1,0,0H0a0,0,0,0,1,0,0V77A77,77,0,0,1,77,0Z" fill="#c4d1ff"/>
        </g>
      </g>
    </g>
    <g id="Grupo_158936" data-name="Grupo 158936" transform="translate(1949 -5719)">
      <g id="Grupo_158938" data-name="Grupo 158938">
        <path id="Trazado_135774" data-name="Trazado 135774" d="M219.359,108.122v3.425c-.478,1.374-.092,2.792-.215,4.184V117.8c.12,13.553-3.686,26.167-9.25,38.344a107.694,107.694,0,0,1-21.729,31.3,110.154,110.154,0,0,1-48.68,28.671,74.423,74.423,0,0,1-21.713,3.094h-2.077c-1.4.123-2.832-.263-4.216.215h-3.425c-1.378-.478-2.8-.092-4.194-.215h-2.082c-13.406.139-25.89-3.613-37.952-9.071a107.469,107.469,0,0,1-31.687-21.907A110.99,110.99,0,0,1,3.348,139.145C-.095,127.1-.226,114.847.139,102.486.83,79.1,9.427,58.666,23.857,40.705,41.3,18.991,64.021,5.745,91.53,1.048c8.3-1.417,16.739-1.035,25.148-.889a87.732,87.732,0,0,1,21.107,2.953,110.691,110.691,0,0,1,77.3,73.7,76.483,76.483,0,0,1,4.062,24.992V103.9c.121,1.406-.256,2.838.215,4.226" fill="#fff"/>
        <path id="Trazado_135775" data-name="Trazado 135775" d="M219.359,108.122c-.855-1.356-.249-2.859-.427-4.283q.216-.395.427,0Z" fill="#e0e0e0"/>
        <path id="Trazado_135776" data-name="Trazado 135776" d="M218.932,115.829c.178-1.424-.428-2.926.427-4.283v4.281q-.213.4-.427,0" fill="#e0e0e0"/>
        <path id="Trazado_135777" data-name="Trazado 135777" d="M103.771,219c1.424.178,2.926-.428,4.283.427h-4.281q-.4-.213,0-.427" fill="#e0e0e0"/>
        <path id="Trazado_135778" data-name="Trazado 135778" d="M111.478,219.425c1.357-.855,2.859-.249,4.283-.427q.395.216,0,.427Z" fill="#e0e0e0"/>
        <path id="Trazado_135779" data-name="Trazado 135779" d="M219.359,103.841c-.142,0-.285,0-.427,0q0-1.071,0-2.143c.141,0,.281,0,.422,0Z" fill="#ededed"/>
        <path id="Trazado_135780" data-name="Trazado 135780" d="M218.932,115.829c.142,0,.284,0,.427,0v2.141c-.141,0-.282,0-.422,0q0-1.071,0-2.143" fill="#ededed"/>
        <path id="Trazado_135781" data-name="Trazado 135781" d="M103.771,219c0,.142,0,.284,0,.427h-2.141c0-.141,0-.282,0-.422l2.143-.005" fill="#ededed"/>
        <path id="Trazado_135782" data-name="Trazado 135782" d="M115.759,219.425c0-.142,0-.285,0-.427L117.9,219c0,.141,0,.281,0,.422Z" fill="#ededed"/>
        <path id="Trazado_135783" data-name="Trazado 135783" d="M57.106,55.836A66.254,66.254,0,0,1,72.481,44.152a73.3,73.3,0,0,1,27.088-9.134,74.528,74.528,0,0,1,41.356,6.067,17.372,17.372,0,0,1,1.8,1.1c-.761.936-1.792.719-2.771.615a37.09,37.09,0,1,0,33.176,34.3,45.655,45.655,0,0,0-1.4-7.777c-.177-.756-.915-1.806.513-2.268a92.544,92.544,0,0,1,8.981,18.3,71.7,71.7,0,0,1,3.86,19.528c.166,3.53.06,7.074.076,10.612.666,1.822.336,2.553-1.381,2.488-7.05-.265-11.512,3.256-14.347,9.425-4.094,8.912-8.9,17.4-15.383,24.839a123.313,123.313,0,0,1-15.869,14.623c-2.1,1.7-4.4,3.177-6.138,5.3a12.966,12.966,0,0,0-2.966,9.965c.291,2.715-.235,3.408-2.989,3.332-3.649-.1-7.25.628-10.891.461-.973-.045-2.028.172-2.795-.71a67.54,67.54,0,0,1-17.191-1.339c.044-1.6,1.512-1.954,2.468-2.672a36.513,36.513,0,0,0,14.4-23.024,36.914,36.914,0,0,0-36.18-43.744,39.647,39.647,0,0,0-7.645.751c-.961.187-1.95.547-2.913-.036-.472-1.467.863-1.941,1.572-2.679a14.425,14.425,0,0,0,2.446-17.128,14.218,14.218,0,0,0-7.244-6.345A7.6,7.6,0,0,1,59.448,87.7a1.874,1.874,0,0,1-.293-1.927,4.118,4.118,0,0,1,2.372-.805,14.3,14.3,0,0,0,4.028-26.892,11.74,11.74,0,0,0-5.515-1.43c-1.025,0-2.175.236-2.934-.813" fill="#f6e3b9"/>
        <path id="Trazado_135784" data-name="Trazado 135784" d="M65.228,114.95a57.832,57.832,0,0,1,11.421-1.3,37.778,37.778,0,0,1,36.211,30.844,37.783,37.783,0,0,1-16.985,38.872,7.2,7.2,0,0,0-.665.523,38.258,38.258,0,0,1-20.839,5.18c-14.415-.776-25.029-7.606-32.047-20.133-3.063-5.468-4.091-11.473-4.486-17.629-1.057-2-.4-4.09-.052-6.052,2.223-12.487,8.842-21.869,20.1-27.872a7.5,7.5,0,0,0,1.707-.821c1.89-.492,3.512-1.928,5.633-1.611" fill="#f6b961"/>
        <path id="Trazado_135785" data-name="Trazado 135785" d="M172.242,67.06c-.047,2.7,1.037,5.2,1.417,7.836a35.413,35.413,0,0,1-2.67,19.409c-5.82,13.475-16.261,21.279-30.708,23.077a35.96,35.96,0,0,1-27.927-8.166C102.18,100.928,97.585,90.062,98.279,77.1a36.2,36.2,0,0,1,9.278-22.243,38.092,38.092,0,0,1,22.01-12.5c4.394-.871,8.768-.551,13.16-.17,3.1,1.022,6.366,1.58,9.289,3.14.995.53,1.6-.013,2.141-.776a14.36,14.36,0,0,1,11.483-6.514,14.842,14.842,0,0,1,15.614,12.6c1.341,8.248-3.375,13.888-9.012,16.423" fill="#eaeaea"/>
        <path id="Trazado_135786" data-name="Trazado 135786" d="M112.4,185.227c4.908-.188,9.815-.4,14.725-.546,1.21-.036,1.629-.412,1.391-1.673-1.069-5.679,1-10.129,5.4-13.695,4.534-3.676,9.161-7.244,13.427-11.241a86.946,86.946,0,0,0,18.623-25.321c1.445-2.936,2.806-5.93,4.481-8.731a13.216,13.216,0,0,1,12.9-6.727c1.719.106,1.994-.4,1.809-1.794.544-4.232,1.11-8.462,1.626-12.7.5-4.1,3.527-5.486,6.8-3.028,5.36,4.027,10.672,8.116,16.016,12.163,1.465,1.109,2.44,2.44,2.035,4.372-.386,1.839-1.779,2.6-3.442,3.118-4.081,1.265-8.131,2.636-12.221,3.871-1.256.38-1.556.77-.926,2.047a12.922,12.922,0,0,1,.22,11.385c-4.5,9.932-9.1,19.816-15.93,28.474a100.893,100.893,0,0,1-19.48,18.817q-4.822,3.552-9.663,7.082a13.415,13.415,0,0,1-12.736,2.124,1.571,1.571,0,0,0-2.214.828c-2.61,4.253-5.275,8.473-7.952,12.684-2.127,3.347-5.082,3.407-7.28.129q-4.944-7.373-9.806-14.8c-2.122-3.241-1.43-5.318,2.2-6.84" fill="#8e563b"/>
        <path id="Trazado_135787" data-name="Trazado 135787" d="M58.321,117.891c-12.012,6.742-18.933,16.827-20.142,30.666-.081.919-.225,1.833-.34,2.749-6.176-1.965-10.311-5.913-11.755-12.343a13.215,13.215,0,0,1,.6-8.382c.519-1.176.446-1.8-.781-2.544C19.06,123.872,15.219,117.752,15.4,109.7c.211-9.637,5.032-16.372,14.038-19.971.94-.376,1.445-.728,1.134-1.824-2.17-7.656,3.87-17.574,13.6-18.74.909.519.869,1.442.853,2.269C44.9,77.994,50.377,83.757,56.86,84.955c.875.161,1.9.034,2.451,1.016q.184.717.368,1.433c-.5.933-1.371.546-2.1.542A14.448,14.448,0,0,0,42.8,99.912a14.194,14.194,0,0,0,11.512,16.359,16.8,16.8,0,0,1,2.94.545c.466.247,1.168.267,1.067,1.075" fill="#6b9677"/>
        <path id="Trazado_135788" data-name="Trazado 135788" d="M59.311,85.971A15.21,15.21,0,0,1,44.168,69.162C45.243,62.018,49.6,57.524,57.1,55.836c5.181-.386,9.759.949,13.252,4.958,4.054,4.653,5.045,10.017,2.731,15.71-2.28,5.607-6.681,8.674-12.719,9.338-.353.039-.7.086-1.058.129" fill="#db4d41"/>
        <path id="Trazado_135789" data-name="Trazado 135789" d="M57.072,117.476c-4.484-.347-8.45-1.771-11.531-5.259A15.059,15.059,0,0,1,58.832,87.354c.279.039.565.035.847.05,7.128,1.908,11.468,6.349,12.149,13.833a14.313,14.313,0,0,1-5.012,12.338c-.518.47-1.058.918-1.588,1.376a24.513,24.513,0,0,1-5.567,2.2c-.813.509-1.761-.07-2.589.321" fill="#db4d41"/>
        <path id="Trazado_135790" data-name="Trazado 135790" d="M68.233,136.46c-.055,4.232.538,3.7-3.757,3.724-4.312.019-3.926.345-3.908-3.886.019-4.307-.533-3.773,3.7-3.763,4.577.011,3.9-.641,3.966,3.925" fill="#f16b32"/>
        <path id="Trazado_135791" data-name="Trazado 135791" d="M90.918,136.266c-.067,4.518.609,3.859-3.991,3.923a11.362,11.362,0,0,0-1.279.008c-1.877.243-2.459-.565-2.441-2.426.049-5.254-.023-5.26,4.83-5.248,3.4.009,2.828-.2,2.881,3.743" fill="#f16b32"/>
        <path id="Trazado_135792" data-name="Trazado 135792" d="M72.031,155.206c-4.376-.065-3.783.578-3.787-3.891,0-4.276-.568-3.758,3.691-3.774,4.356-.016,3.974-.419,3.959,4.048-.014,4.185.481,3.557-3.863,3.617" fill="#f16b32"/>
        <path id="Trazado_135793" data-name="Trazado 135793" d="M72.049,177.893c-4.4-.065-3.8.58-3.805-3.874,0-4.358-.592-3.757,3.886-3.792,3.77-.03,3.793-.006,3.764,3.817-.033,4.433.558,3.785-3.845,3.849" fill="#f16b32"/>
        <path id="Trazado_135794" data-name="Trazado 135794" d="M102.1,147.645c-.051,4.25.5,3.707-3.78,3.713-4.056.006-3.562.473-3.555-3.711.008-4.437-.6-3.932,3.766-3.939,4.142,0,3.511-.422,3.569,3.937" fill="#f16b32"/>
        <path id="Trazado_135795" data-name="Trazado 135795" d="M87.079,159.038c4.408.063,3.811-.568,3.827,3.881.015,3.925.419,3.468-3.606,3.456-4.564-.014-4.042.6-4.043-3.662,0-4.22-.51-3.618,3.822-3.675" fill="#f16b32"/>
        <path id="Trazado_135796" data-name="Trazado 135796" d="M60.561,162.584c-.051,4.279.519,3.758-3.706,3.8-.783.008-1.566-.017-2.348-.006a1.114,1.114,0,0,1-1.285-1.3c.007-.356-.006-.712-.009-1.067-.04-5-.038-4.9,4.886-5.015,1.984-.046,2.764.574,2.469,2.525a7.287,7.287,0,0,0-.007,1.066" fill="#f16b32"/>
        <path id="Trazado_135797" data-name="Trazado 135797" d="M57.072,117.476a4.279,4.279,0,0,1,2.589-.321,2.345,2.345,0,0,1-1.34.736c-.328-.406-.82-.316-1.249-.415" fill="#99976c"/>
        <path id="Trazado_135798" data-name="Trazado 135798" d="M132.471,62.681a16.943,16.943,0,1,1-17.055,16.945,17.009,17.009,0,0,1,17.055-16.945" fill="#fab440"/>
      </g>
    </g>
  </g>
</svg>
