<svg xmlns="http://www.w3.org/2000/svg" xmlns:xlink="http://www.w3.org/1999/xlink" width="173" height="116" viewBox="0 0 173 116">
  <defs>
    <clipPath id="clip-path">
      <rect id="Rect치ngulo_38076" data-name="Rect치ngulo 38076" width="102.552" height="102.535" fill="none"/>
    </clipPath>
  </defs>
  <g id="Grupo_159181" data-name="Grupo 159181" transform="translate(-1393 3569)">
    <rect id="Rect치ngulo_38076-2" data-name="Rect치ngulo 38076" width="173" height="116" transform="translate(1393 -3569)" fill="#e1e8ff"/>
    <g id="Grupo_158939" data-name="Grupo 158939" transform="translate(1428 -3562)">
      <g id="Grupo_158939-2" data-name="Grupo 158939" clip-path="url(#clip-path)">
        <path id="Trazado_135799" data-name="Trazado 135799" d="M0,47.071a13.378,13.378,0,0,0,.56-3.385A50.34,50.34,0,0,1,12.249,18.129,49.948,49.948,0,0,1,41.7.94,50.45,50.45,0,0,1,79.2,8.3a3.267,3.267,0,0,1,.374.323,1.766,1.766,0,0,1-1.332,1.129,9.971,9.971,0,0,0-2.647-.854,5,5,0,0,0-4.505,1.887,1.443,1.443,0,0,1-.592.522,1.616,1.616,0,0,1-1.007-.348,4.741,4.741,0,0,0-5.914.86c-.253.246-.449.6-.895.513a1.748,1.748,0,0,1-.658-.594c-2.6-2.986-7.519-2.261-8.648,1.506-.581,1.939-1.759,2.511-3.309,3.027A42.634,42.634,0,0,0,38.1,17.651a37.147,37.147,0,0,0-15.391,8.541c-1.422,1.313-2.63,2.814-4.017,4.149a2.591,2.591,0,0,1-2.622-1.684,6.513,6.513,0,0,1-.342-1.25.7.7,0,0,0-.857-.633c-.449.071-.586.42-.581.811a4.734,4.734,0,0,0,1.266,2.964c.508.622,1.366.843,1.734,1.6a4.271,4.271,0,0,1-.76,1.394,37.543,37.543,0,0,0,.669,41.3c.277.408.9.839.237,1.439a2.551,2.551,0,0,1-.978.136q-4.466.012-8.933,0a3.334,3.334,0,0,1-.885-.091c-.93-.445-1.2-1.407-1.595-2.213A49.882,49.882,0,0,1,.272,58.633,26.523,26.523,0,0,0,0,55.681v-1.4c.217-.385.051-.8.1-1.2-.053-.4.114-.817-.1-1.2v-3.2c.124-.11.1-.259.1-.4s.02-.289-.1-.4Z" transform="translate(0 0)" fill="#137fe1"/>
        <path id="Trazado_135800" data-name="Trazado 135800" d="M68.288,215.79a16.893,16.893,0,0,0-3.476-.568c-1.8-.287-3.559-.709-5.325-1.129-.13-.306-.466-.211-.683-.349a4.114,4.114,0,0,1-.649-.242,33.037,33.037,0,0,1-8.6-4.822,48.528,48.528,0,0,1-10.651-11.024c-.74-1.03-1.366-2.132-2.054-3.195a1.191,1.191,0,0,1-.27-1.029c.317-.41.779-.329,1.2-.329,3.9-.01,7.8.01,11.706-.017a1.912,1.912,0,0,1,1.865,1.053,46.163,46.163,0,0,0,8.484,10.7A40.153,40.153,0,0,0,75.779,214.3c.834.251,1.7.34,2.544.533.348.079.836-.014.953.52-.773.251-1.629.05-2.378.433H70.491a1.531,1.531,0,0,0-1.2,0Z" transform="translate(-21.436 -113.255)" fill="#fecc71"/>
        <path id="Trazado_135801" data-name="Trazado 135801" d="M.191,128.3c-.073.394.2.843-.191,1.187v-1.2c.072-.095.135-.085.191.015" transform="translate(0 -75.208)" fill="#56a4ea"/>
        <path id="Trazado_135802" data-name="Trazado 135802" d="M.191,126.69c-.064-.007-.127-.012-.191-.015v-1.2c.361.358.143.808.191,1.216" transform="translate(0 -73.597)" fill="#2187e3"/>
        <path id="Trazado_135803" data-name="Trazado 135803" d="M115.741,247.676a.905.905,0,0,1,1.2,0Z" transform="translate(-67.888 -145.142)" fill="#e7cb8c"/>
        <path id="Trazado_135804" data-name="Trazado 135804" d="M.173,116.652a.341.341,0,0,1-.173.409v-.4c.053-.085.111-.092.173-.009" transform="translate(0 -68.388)" fill="#6db0ec"/>
        <path id="Trazado_135805" data-name="Trazado 135805" d="M.173,116.179,0,116.188v-.4c.2.069.193.227.173.392" transform="translate(0 -67.915)" fill="#89bff0"/>
        <path id="Trazado_135806" data-name="Trazado 135806" d="M185.8,60.112a48.548,48.548,0,0,1,5.822,14.1,49.723,49.723,0,0,1,1.382,14.636,43.02,43.02,0,0,1-2.344,12.764,28.456,28.456,0,0,1-10.878,1.818,28.022,28.022,0,0,1-18.508-7.7,28.523,28.523,0,0,1-6.936-10.041c-.1-.65.429-.941.789-1.3q9.507-9.531,19.032-19.044,2.442-2.442,4.884-4.882c.355-.353.7-.736,1.285-.644,1.383,0,2.764,0,4.146,0a2.231,2.231,0,0,1,1.326.289" transform="translate(-90.521 -35.081)" fill="#fa5858"/>
        <path id="Trazado_135807" data-name="Trazado 135807" d="M63.525,209.607c-1.8-.517-3.68-.721-5.457-1.4a42.346,42.346,0,0,1-12.662-7.593A47.4,47.4,0,0,1,35.248,188.3a1.147,1.147,0,0,0-1.088-.7c-4.2.029-8.4.015-12.6.016a.792.792,0,0,0-.654.168,18.227,18.227,0,0,1-6.239-.148c-.827-.007-1.654-.016-2.481-.02-1.577-.008-2.451-.689-2.49-1.946s.795-1.981,2.373-2.081l11.238-.007a1.928,1.928,0,0,1,1.334-.294q7.386-.009,14.772,0a2.036,2.036,0,0,1,1.251.244c.233.485-.246.621-.449.874a1.7,1.7,0,0,0-.39,1.758,1.667,1.667,0,0,0,1.441,1.079,10.614,10.614,0,0,0,1.6.052q23.988,0,47.976,0a8.915,8.915,0,0,1,1.791.076c.8.293.386.779.155,1.189a44.863,44.863,0,0,1-3.933,5.774,45.408,45.408,0,0,1-14.595,12.22,19.255,19.255,0,0,1-3.7,1.465l-.078.023-.081,0a2.89,2.89,0,0,1-1.019.371,28.06,28.06,0,0,1-5.858,1.194" transform="translate(-5.686 -107.505)" fill="#fed892"/>
        <path id="Trazado_135808" data-name="Trazado 135808" d="M128.749,122.078a.8.8,0,0,1,.381.437,28.094,28.094,0,0,0,35.081,15.61c.241-.079.541-.374.8.013a44.567,44.567,0,0,1-3.515,8.6q-.247.484-.5.967c-.4.4-.917.318-1.4.325-1.88.025-3.761-.008-5.641-.007-10.657.035-21.313.008-31.97.017q-4.746,0-9.491,0a2.84,2.84,0,0,1-1.559-.232,1.443,1.443,0,0,1-.322-1.117c0-2.659-.058-5.318.028-7.975.045-.572.447-.843.9-1.1a23.356,23.356,0,0,0,5.623-4.28c3.31-3.517,6.807-6.843,10.189-10.286.39-.4.663-1.04,1.4-.965" transform="translate(-64.868 -71.602)" fill="#f34545"/>
        <path id="Trazado_135809" data-name="Trazado 135809" d="M101.762,63.233c-3.053,3.031-6.16,6.009-9.142,9.108a36.149,36.149,0,0,1-8.716,7.1,5.229,5.229,0,0,1-2.725,1.249,6.981,6.981,0,0,1-3.1-1.008,27.939,27.939,0,0,1-10.233-9,31.736,31.736,0,0,1-2.958-4.968c-.167-.356-.413-.7-.248-1.131.587-.475.794-1.333,1.6-1.595a3.855,3.855,0,0,1,.9-.078c8.807,0,17.614-.027,26.419.012A3.756,3.756,0,0,0,97.5,61.466a39.084,39.084,0,0,1,2.87-2.914c6.984-6.925,13.915-13.9,20.871-20.856,1.357-1.325,2.688-2.675,4.024-4.022.712-.688,1.4-1.4,2.107-2.092.255-.249.471-.566.877-.6q4.291-4.267,8.586-8.53a2,2,0,0,1,3.443.719,1.964,1.964,0,0,1-.685,2.142q-4.039,4.026-8.065,8.065c-.258.258-.49.541-.734.812a14.6,14.6,0,0,1-3.434,3.432c-1.87,1.852-3.747,3.7-5.609,5.558q-9.7,9.689-19.387,19.387c-.21.21-.4.442-.6.664" transform="translate(-37.881 -12.757)" fill="#a6cffb"/>
        <path id="Trazado_135810" data-name="Trazado 135810" d="M163.848,34.921l-2.871,2.838a2.945,2.945,0,0,1-1.546.3q-16.227,0-32.454,0a3.87,3.87,0,0,1-1.186-.112c-.725-.38-.5-1.016-.379-1.582A7.247,7.247,0,0,1,135.5,31.1c.06.026.12.055.177.087,2.312,1.284,2.312,1.285,4.882,1.287a4.718,4.718,0,0,1,2.39.589c.545.314.831.171,1.068-.376a6.792,6.792,0,0,1,1.229-1.921,7.5,7.5,0,0,1,5.257-2.307,7.153,7.153,0,0,1,6.275,3.59c.374.638.627.533,1.132.152.715-.54,1.391-1.255,2.436-1.1a39.423,39.423,0,0,1,3.5,3.815" transform="translate(-73.485 -16.695)" fill="#fec04f"/>
        <path id="Trazado_135811" data-name="Trazado 135811" d="M156.912,213.712c2.041-1.023,4.143-1.915,6.1-3.116a47.148,47.148,0,0,0,15.789-16.22c.205-.341.385-.7.577-1.045.535-.492,1.193-.288,1.809-.322,1.1.012,2.195-.062,3.291,0,.4.021.9-.086,1.082.474a51.388,51.388,0,0,1-22.587,18.327,48.56,48.56,0,0,1-4.981,1.775,2.591,2.591,0,0,1-1.079.131" transform="translate(-92.037 -113.195)" fill="#f34545"/>
        <path id="Trazado_135812" data-name="Trazado 135812" d="M196.276,25.8a6.51,6.51,0,0,0-2.678,1.646c-.369.386-.567.437-.841-.109a6.951,6.951,0,0,0-6.206-3.942,2.335,2.335,0,0,1,1.149-2.361l1.281-1.026a5.267,5.267,0,0,1,4.691-.069c2.138,1.059,3.074,3.156,2.6,5.862" transform="translate(-109.411 -11.391)" fill="#bb4e11"/>
        <path id="Trazado_135813" data-name="Trazado 135813" d="M219.919,188.226c-1.024-.4-2.088-.082-3.129-.172-.429-.037-.862-.027-1.293-.038-.038-.291.21-.381.373-.532a1.735,1.735,0,0,0,0-2.875c-.163-.15-.411-.241-.372-.532l7.029-.04a2.032,2.032,0,0,1,2.034,3.11,2.142,2.142,0,0,1-1.781.907,9.026,9.026,0,0,0-2.859.171" transform="translate(-126.398 -107.941)" fill="#fed892"/>
        <path id="Trazado_135814" data-name="Trazado 135814" d="M216.409,55.277l3.434-3.432a25.755,25.755,0,0,1,2.372,3.6c-1.654,0-3.308.013-4.963.012-.29,0-.6.073-.844-.176" transform="translate(-126.936 -30.41)" fill="#c32e2e"/>
        <path id="Trazado_135815" data-name="Trazado 135815" d="M154.063,243.539a1.7,1.7,0,0,1,1.018-.371c-.224.441-.607.444-1.018.371" transform="translate(-90.366 -142.631)" fill="#f78174"/>
        <path id="Trazado_135816" data-name="Trazado 135816" d="M57.978,90.443a21.3,21.3,0,0,0,2.76-1.024q.011,4.692.022,9.384c-.356.406-.845.348-1.3.35q-4.241.02-8.482,0a1.694,1.694,0,0,1-1.232-.286q-7.7-.017-15.41-.034c-.666,0-1.333-.017-2-.026a29.336,29.336,0,0,0-1.855-2.935,37.135,37.135,0,0,1-4.964-13.794,37.542,37.542,0,0,1,2.211-19.571,34.931,34.931,0,0,1,4.187-7.693c2.743-.182,4.625.51,5.054,2.917.09.5.2,1.091.875.972.707-.125.645-.743.565-1.286a4.7,4.7,0,0,0-4.235-3.986c-.321-.034-.774.1-.84-.447a31.171,31.171,0,0,1,6.093-6.131,37.983,37.983,0,0,1,25.4-8.041c0,.033.012.076,0,.1a8.022,8.022,0,0,0-1.955,4.817c0,.054-.077.1-.127.146a13.339,13.339,0,0,1-3.353.185c-1.087.083-1.7.494-1.881,1.3-.253,1.127.395,1.939,1.646,2.112.6.084,1.283-.17,1.767.416a17.425,17.425,0,0,1-.02,5.417c-.341.427-.832.358-1.287.365-1.229.02-2.458,0-3.688.009a4.923,4.923,0,0,0-1.091.082,1.812,1.812,0,0,0-1.5,1.74,1.648,1.648,0,0,0,1.658,1.55c1.491.11,2.989.016,4.484.047.487.011,1.01-.083,1.407.335a1.445,1.445,0,0,1,.188.763c0,2.316.083,4.632-.044,6.946a2.644,2.644,0,0,1-2.259,1.536,7.311,7.311,0,0,1-.98-.992A5.794,5.794,0,0,0,50.556,64.6c-.99.521-1.132.524-1.82-.4a5.976,5.976,0,0,0-8.837-.442A3.652,3.652,0,0,1,36.892,65.1c-3.5.017-6,3.107-5.67,6.813a1.946,1.946,0,0,1,0,1.081,1.105,1.105,0,0,1-.572.378c-1.108.42-1.251.664-.743,1.753a34.554,34.554,0,0,0,4.316,6.831A25.385,25.385,0,0,0,43.75,89.54a18.677,18.677,0,0,0,11.695,1.418c.844-.173,1.686-.356,2.533-.516" transform="translate(-14.715 -22.731)" fill="#5595fa"/>
        <path id="Trazado_135817" data-name="Trazado 135817" d="M116.109,34.63A5.627,5.627,0,0,1,118.2,29.7a6.655,6.655,0,0,1,2.1-.9c.535-.072.432-.482.485-.83a5.457,5.457,0,0,1,4.45-4.665,5.357,5.357,0,0,1,5.585,2.64,2.957,2.957,0,0,1-.663,2.3,7.193,7.193,0,0,0-6.256.221,6.871,6.871,0,0,0-3.745,6.152,5.048,5.048,0,0,1-4.041,0" transform="translate(-68.089 -13.62)" fill="#feb42d"/>
        <path id="Trazado_135818" data-name="Trazado 135818" d="M150.107,28.857a14.486,14.486,0,0,1,.663-2.306,6.256,6.256,0,0,1,3.432-2.223,5.551,5.551,0,0,1,4.294,1.137,2.841,2.841,0,0,1,1.5,2.979,7.829,7.829,0,0,0-1.43,2.386c-.157.444-.332.5-.717.25a4.816,4.816,0,0,0-4.758-.382c-.323.136-.559.145-.786-.139a10.005,10.005,0,0,0-2.2-1.7" transform="translate(-88.046 -14.221)" fill="#bb4e11"/>
        <path id="Trazado_135819" data-name="Trazado 135819" d="M38.512,67.74c.175.206.417.17.647.184a4.949,4.949,0,0,1,4.737,4.32c.13.893-.247,1.634-.9,1.615-.756-.022-1.028-.509-1.1-1.263a2.862,2.862,0,0,0-2.842-2.68c-.657-.07-1.3-.229-1.956-.346a5.346,5.346,0,0,1-3.052-3.611,5.063,5.063,0,0,1-.123-.886c-.036-.654.206-1.125.927-1.162.7-.035.99.356,1.076,1.031a2.831,2.831,0,0,0,2.592,2.8" transform="translate(-19.892 -37.486)" fill="#a6cffb"/>
        <path id="Trazado_135820" data-name="Trazado 135820" d="M171.9,26.413a5.215,5.215,0,0,0-1.5-2.979,5.37,5.37,0,0,1,7.837-1.6,6.759,6.759,0,0,0-1.149,2.362,7.478,7.478,0,0,0-5.19,2.217" transform="translate(-99.948 -12.19)" fill="#feb42d"/>
        <path id="Trazado_135821" data-name="Trazado 135821" d="M21.72,193.778q2.74-.011,5.48-.021a1.11,1.11,0,0,1,.759.17,47.391,47.391,0,0,0,12.373,14.441,43.767,43.767,0,0,0,9.242,5.45c.014.163,0,.293-.214.172a41.491,41.491,0,0,1-9.589-3.894,51.249,51.249,0,0,1-17.828-15.88,3.4,3.4,0,0,1-.223-.438" transform="translate(-12.74 -113.648)" fill="#1380e1"/>
        <path id="Trazado_135822" data-name="Trazado 135822" d="M88.573,242.45l.214-.172.592.2c.028.167.005.276-.2.176a.827.827,0,0,1-.6-.208" transform="translate(-51.953 -142.109)" fill="#1580e0"/>
        <path id="Trazado_135823" data-name="Trazado 135823" d="M90.036,242.948l.2-.176c.235.119.628.026.625.465-.267-.12-.6-.044-.826-.289" transform="translate(-52.811 -142.399)" fill="#569edb"/>
        <path id="Trazado_135824" data-name="Trazado 135824" d="M82.742,184.06,93.756,184c.632.011,1.264.03,1.9.031l39.861,0c.432,0,.865.02,1.3.031a2.083,2.083,0,0,1,0,3.938l-1.759.062c-.466-.009-.933-.027-1.4-.027q-24.906,0-49.812,0a2.175,2.175,0,0,1-2.156-.941c-.684-1.179-.346-2.142,1.057-3.035" transform="translate(-47.712 -107.924)" fill="#fbf1b5"/>
        <path id="Trazado_135825" data-name="Trazado 135825" d="M110.867,77.739q-.019-3.985-.038-7.97a5.991,5.991,0,0,1,.01-4.054q0-2.792-.007-5.584a1.6,1.6,0,0,1,1.309-.336q8.832-.016,17.664,0a2.9,2.9,0,0,1,1.081.137c.648.489.169.958-.069,1.381a28.317,28.317,0,0,0-2.849,7.211,26.8,26.8,0,0,0-.449,10.977,1.933,1.933,0,0,1-.038,1.457c-1.391,1.414-2.75,2.862-4.187,4.228-.7.662-1.636.239-2.47.27a1.842,1.842,0,0,1-.224-1.25,6.737,6.737,0,0,0-8.589-6.531c-.37.1-.747.346-1.144.066" transform="translate(-64.803 -35.069)" fill="#f34545"/>
        <path id="Trazado_135826" data-name="Trazado 135826" d="M63.969,138.576A17.017,17.017,0,0,1,55.9,139.6a21.439,21.439,0,0,1-10.75-4.337,30.859,30.859,0,0,1-8.3-9.689,22.2,22.2,0,0,1-1.262-2.376c-.545-1.268-.332-1.613,1-1.911.194-.043.385-.1.576-.155.486-.4,1.065-.268,1.619-.281,1.9.01,3.8-.119,5.689.071.123.042.282.079.331.193a2.893,2.893,0,0,0,2.731,1.688,30.427,30.427,0,0,0,5.047,8.052,25.777,25.777,0,0,0,8.58,6.8,6.818,6.818,0,0,0,2.811.928" transform="translate(-20.706 -70.864)" fill="#85bdfa"/>
        <path id="Trazado_135827" data-name="Trazado 135827" d="M150.7,80.954a28.833,28.833,0,0,1-.6-6.9,28.4,28.4,0,0,1,3.8-13.027,2.434,2.434,0,0,0,.411-.895,1.6,1.6,0,0,1,1.311-.339q7.3-.016,14.6,0a1.608,1.608,0,0,1,1.311.338c-.245.269-.48.548-.737.8q-9.639,9.644-19.282,19.283c-.257.257-.537.492-.806.736" transform="translate(-88.025 -35.066)" fill="#fa5858"/>
        <path id="Trazado_135828" data-name="Trazado 135828" d="M49.527,110.014l-5.985-.049A3.256,3.256,0,0,1,44.6,107.28a4.955,4.955,0,0,1,5.243-1.6,1.878,1.878,0,0,0,1.978-.428,7.179,7.179,0,0,1,9.514.026,1.668,1.668,0,0,0,1.884.412,4.566,4.566,0,0,1,3.678.354c.59.285.892.168,1.162-.418a5.1,5.1,0,0,1,1.555-2.158c.8-.138,1.289-.81,1.977-1.138a7.085,7.085,0,0,1,6.787.53c2.582,1.7,3.44,4.2,3.172,7.184-.3.018-.6.051-.9.051q-13.545,0-27.09,0c-.283-.229-.261-.59-.377-.89a1.68,1.68,0,0,0-1.649-1.18,1.633,1.633,0,0,0-1.586,1.118c-.124.3-.123.656-.423.867" transform="translate(-25.525 -59.663)" fill="#fec04f"/>
        <path id="Trazado_135829" data-name="Trazado 135829" d="M143.674,54.869H106.2c-.53-.007-1.062,0-1.592-.023a2,2,0,1,1,0-3.992c1.193-.036,2.388-.027,3.583-.038h4.041q5.5.015,11.009.03,12.211.016,24.422.024c-1.261,1.4-2.6,2.724-3.988,4" transform="translate(-60.17 -29.806)" fill="#c32d2d"/>
        <path id="Trazado_135830" data-name="Trazado 135830" d="M79.068,135.186a2,2,0,1,1-1.993-1.949,2.017,2.017,0,0,1,1.993,1.949" transform="translate(-44.036 -78.151)" fill="#bb4e12"/>
        <path id="Trazado_135831" data-name="Trazado 135831" d="M58.054,118.556c.138-1.5.867-2.3,2.069-2.274s1.9.853,1.967,2.359a2.525,2.525,0,0,1-1.213,1.5c-1.534.33-2.185-.036-2.823-1.584" transform="translate(-34.052 -68.205)" fill="#bb4e12"/>
        <path id="Trazado_135832" data-name="Trazado 135832" d="M67.158,99.09a23.973,23.973,0,0,0-1.686,3.028c-.124.377-.414.181-.652.04a4.736,4.736,0,0,0-4.567-.411.892.892,0,0,1-1.131-.264,6.97,6.97,0,0,0-10.083.03.793.793,0,0,1-.85.315c-4.053-.931-5.628-.084-7.1,3.757a4.63,4.63,0,0,1-1.562-.036c-.633-3.342.289-5.8,2.733-7.318a6.176,6.176,0,0,1,4.025-.871,1.024,1.024,0,0,0,1.072-.475,6.212,6.212,0,0,1,10.107-.071c.4.527.62.542,1.162.215a6.138,6.138,0,0,1,8.532,2.062" transform="translate(-23.071 -55.282)" fill="#feb42d"/>
        <path id="Trazado_135833" data-name="Trazado 135833" d="M100.32,74.124q0,2.027-.01,4.054c-1.832-.007-3.665,0-5.5-.024a2.034,2.034,0,0,1-2.266-1.993,2.081,2.081,0,0,1,2.276-2c1.832-.023,3.664-.023,5.5-.033" transform="translate(-54.284 -43.478)" fill="#c32d2d"/>
        <path id="Trazado_135834" data-name="Trazado 135834" d="M58.133,65.336c-.035-.888.179-1.357.913-1.393.691-.034,1.006.3,1.09,1a3.169,3.169,0,0,0,3.242,3,4.966,4.966,0,0,1,4.745,4.416c.086.752-.1,1.429-.912,1.5-.74.066-1.031-.482-1.105-1.235a2.835,2.835,0,0,0-2.828-2.682,5.214,5.214,0,0,1-5.03-3.96,5.082,5.082,0,0,1-.115-.647" transform="translate(-34.096 -37.504)" fill="#a6cffb"/>
        <path id="Trazado_135835" data-name="Trazado 135835" d="M55.32,164.714a2,2,0,1,1-2.036,1.9,2.014,2.014,0,0,1,2.036-1.9" transform="translate(-31.253 -96.614)" fill="#bb4e12"/>
      </g>
    </g>
  </g>
</svg>
