<svg xmlns="http://www.w3.org/2000/svg" xmlns:xlink="http://www.w3.org/1999/xlink" width="315" height="255.27" viewBox="0 0 315 255.27">
  <defs>
    <clipPath id="clip-path">
      <rect id="Rectángulo_38099" data-name="Rectángulo 38099" width="116.118" height="255.27" fill="none"/>
    </clipPath>
    <clipPath id="clip-path-3">
      <rect id="Rectángulo_38091" data-name="Rectángulo 38091" width="16.39" height="21.218" fill="none"/>
    </clipPath>
    <clipPath id="clip-path-5">
      <rect id="Rectángulo_38093" data-name="Rectángulo 38093" width="4.454" height="2.085" fill="none"/>
    </clipPath>
    <clipPath id="clip-path-6">
      <rect id="Rectángulo_38094" data-name="Rectángulo 38094" width="9.06" height="2.263" fill="none"/>
    </clipPath>
    <clipPath id="clip-path-7">
      <rect id="Rectángulo_38095" data-name="Rectángulo 38095" width="28.759" height="44.182" fill="none"/>
    </clipPath>
    <clipPath id="clip-path-8">
      <rect id="Rectángulo_38096" data-name="Rectángulo 38096" width="54.915" height="37.864" fill="none"/>
    </clipPath>
    <clipPath id="clip-path-9">
      <rect id="Rectángulo_38097" data-name="Rectángulo 38097" width="52.551" height="36.421" fill="none"/>
    </clipPath>
  </defs>
  <g id="_128" data-name="128" transform="translate(-216 -1531.73)">
    <rect id="Rectángulo_34651" data-name="Rectángulo 34651" width="315" height="170" transform="translate(216 1617)" fill="#6b8dff"/>
    <g id="Grupo_159015" data-name="Grupo 159015">
      <g id="Grupo_84000" data-name="Grupo 84000" transform="translate(233 1533.49)">
        <path id="Trazado_118280" data-name="Trazado 118280" d="M153.844,260.461q1.2-.2,2.42-.329c9.524-1,19.039,1.6,28.608,1.95,17.246.633,34.142-6.148,48.252-16.087s25.773-22.914,36.935-36.076c12-14.151,24.265-30.864,22.133-49.294-1.554-13.433-10.581-24.753-20.16-34.3-12.117-12.078-25.638-22.591-38.6-33.715-12.9-11.063-23.176-25.694-36.23-36.083-25.318-20.152-64.385-22.921-93.363-9.99C85.243,54.833,69.94,68.9,53,80.184c-12.12,8.075-25.648,15.244-33.431,27.553-9.43,14.915-8.31,34.063-5.164,51.426,5.324,29.378,16.037,58.687,36.5,80.429s52.013,34.594,80.929,27.161C139.227,264.852,146.341,261.7,153.844,260.461Z" transform="translate(-12.141 -38.664)" fill="#c4d1ff"/>
      </g>
      <g id="Grupo_159014" data-name="Grupo 159014" transform="translate(320.236 1531.73)">
        <g id="Grupo_159013" data-name="Grupo 159013" transform="translate(0)" clip-path="url(#clip-path)">
          <g id="Grupo_159012" data-name="Grupo 159012">
            <g id="Grupo_159011" data-name="Grupo 159011" clip-path="url(#clip-path)">
              <path id="Trazado_136110" data-name="Trazado 136110" d="M65.363,3.759s16.018-3.5,23.923-.826S103.623,14.244,102.4,29.7s-1.913,30.764,5.407,42.505c7.419,11.9-.789,17.618-8.179,23.35S69.083,76.715,69.083,76.715Z" transform="translate(-25.476 -1.017)" fill="#6b1536"/>
              <path id="Trazado_136111" data-name="Trazado 136111" d="M62.312,3.615a46.678,46.678,0,0,1,5.2-1.043,44.973,44.973,0,0,1,6.051-.515,30.645,30.645,0,0,1,3.716.175,20.153,20.153,0,0,1,4.01.818,17.06,17.06,0,0,1,7.553,5.006A22.58,22.58,0,0,1,93.5,17.08a36.562,36.562,0,0,1,1.081,10.927c-.222,3.767-.514,7.652-.619,11.52a106.489,106.489,0,0,0,.269,11.579A56.838,56.838,0,0,0,96.194,62.18a36.225,36.225,0,0,0,4.308,9.606,24.218,24.218,0,0,1,2.25,4.194,12.908,12.908,0,0,1,.963,4.284,10.326,10.326,0,0,1-.627,3.973,13.469,13.469,0,0,1-1.757,3.229,28.348,28.348,0,0,1-4.148,4.406c-1.268,1.113-2.291,1.962-2.988,2.54l-1.069.887,1.1-.842c.717-.553,1.785-1.345,3.087-2.429a28.632,28.632,0,0,0,4.329-4.327,13.923,13.923,0,0,0,1.917-3.283,10.6,10.6,0,0,0,.748-4.172,13.544,13.544,0,0,0-.922-4.512,25.044,25.044,0,0,0-2.232-4.361,37.576,37.576,0,0,1-4.075-9.45,55.852,55.852,0,0,1-1.858-10.9,105.368,105.368,0,0,1-.195-11.468q.079-2.888.232-5.77c.091-1.924.239-3.815.32-5.743A37.475,37.475,0,0,0,94.4,16.835a25.333,25.333,0,0,0-1.984-5.046,20.8,20.8,0,0,0-2.987-4.256,17.754,17.754,0,0,0-7.956-5.06,24.145,24.145,0,0,0-7.917-.816,45.244,45.244,0,0,0-6.074.709c-1.667.3-2.957.633-3.833.865s-1.335.384-1.335.384" transform="translate(-17.632 -0.859)" fill="#6b1536"/>
              <path id="Trazado_136112" data-name="Trazado 136112" d="M117.711,113.189s-2.851,13.182,3.207,16.033,19.239,3.207,22.09,12.47-29.215,16.033-37.767,14.251-29.928-7.126-26.009-14.608,21.734-6.413,21.377-16.389.713-23.515.713-23.515Z" transform="translate(-64.268 -53.522)" fill="#ffb99a"/>
              <path id="Trazado_136113" data-name="Trazado 136113" d="M149.371,125.849c-6.952-2.7-12.543-7.979-17.278-13.741.231-5.937.606-10.676.606-10.676l16.39,11.757s-1.674,7.76.282,12.66" transform="translate(-95.645 -53.522)" fill="#e09577"/>
              <path id="Trazado_136114" data-name="Trazado 136114" d="M112.051,20.231s16.306.206,19.807,19.611-5.043,34.2-15.808,34.421S93.8,66.13,92.493,50.323s3.746-29.751,19.558-30.092" transform="translate(-60.131 -10.675)" fill="#ffb99a"/>
              <path id="Trazado_136115" data-name="Trazado 136115" d="M114.408,70.8a2.876,2.876,0,0,1,1.57-.838,3.252,3.252,0,0,1,2.168.48,3.365,3.365,0,0,0-.152,1.04l0-.335a2.48,2.48,0,0,0-1.772-.555,2.389,2.389,0,0,0-1.562,1.3l-.316.285a3.387,3.387,0,0,0,.06-1.381" transform="translate(-56.04 -36.899)" fill="#1b262c"/>
              <g id="Grupo_158992" data-name="Grupo 158992" transform="translate(61.782 22.482)" opacity="0.4">
                <g id="Grupo_158991" data-name="Grupo 158991" transform="translate(0)">
                  <g id="Grupo_158990" data-name="Grupo 158990" clip-path="url(#clip-path-3)">
                    <path id="Trazado_136116" data-name="Trazado 136116" d="M96.726,58.292c-.061,5.859-3.78,10.57-8.305,10.523S80.277,63.98,80.338,58.12s3.78-10.57,8.305-10.523,8.144,4.836,8.083,10.695" transform="translate(-80.337 -47.597)" fill="#fff"/>
                  </g>
                </g>
              </g>
              <g id="Grupo_158995" data-name="Grupo 158995" transform="translate(42.287 22.815)" opacity="0.4">
                <g id="Grupo_158994" data-name="Grupo 158994" transform="translate(0)">
                  <g id="Grupo_158993" data-name="Grupo 158993" clip-path="url(#clip-path-3)">
                    <path id="Trazado_136117" data-name="Trazado 136117" d="M138,59c-.061,5.859-3.78,10.57-8.305,10.523s-8.145-4.835-8.083-10.694,3.78-10.57,8.305-10.523S138.059,53.137,138,59" transform="translate(-121.608 -48.302)" fill="#fff"/>
                  </g>
                </g>
              </g>
              <path id="Trazado_136118" data-name="Trazado 136118" d="M96.7,58.165c-.068,4.007-1.943,8.572-5.917,10.141-3.605,1.424-7.406-.463-9.381-3.587a13.17,13.17,0,0,1-.487-12.689c1.714-3.33,5.214-5.675,9.03-4.61,4.6,1.284,6.772,6.326,6.754,10.745,0,.225-.775.084-.774-.207.015-3.712-1.518-8.033-5.052-9.775-3.385-1.667-6.955.392-8.779,3.335a13.024,13.024,0,0,0-.732,11.764c1.424,3.257,4.689,5.994,8.408,4.8,4.158-1.334,6.087-6.095,6.155-10.125,0-.228.779-.083.774.207" transform="translate(-18.142 -24.885)" fill="#1b262c"/>
              <path id="Trazado_136119" data-name="Trazado 136119" d="M137.886,58.961c-.068,4.007-1.944,8.573-5.917,10.142-3.607,1.424-7.405-.462-9.381-3.587a13.172,13.172,0,0,1-.487-12.69c1.714-3.33,5.214-5.677,9.031-4.612,4.6,1.284,6.771,6.329,6.754,10.748,0,.229-.776.086-.774-.207.014-3.711-1.519-8.033-5.053-9.772-3.386-1.666-6.953.39-8.778,3.333a13.021,13.021,0,0,0-.731,11.763c1.424,3.257,4.688,5.99,8.407,4.8,4.159-1.331,6.087-6.1,6.155-10.124,0-.231.779-.085.774.207" transform="translate(-78.782 -25.304)" fill="#1b262c"/>
              <path id="Trazado_136120" data-name="Trazado 136120" d="M108.749,82.528a3.236,3.236,0,0,0,.842-.186c.134-.041.252-.1.379-.152a3.91,3.91,0,0,0,.359-.18,5.342,5.342,0,0,0,1.257-.968l.261-.273-.105-.249c-1.038-2.449-2.1-4.887-3.294-7.277.73,2.569,1.584,5.088,2.466,7.6l.156-.521a5.331,5.331,0,0,0-1.322.878,3.823,3.823,0,0,0-.286.282c-.088.1-.184.2-.266.31a3.236,3.236,0,0,0-.447.737" transform="translate(-46.955 -38.648)" fill="#af593c"/>
              <g id="Grupo_158998" data-name="Grupo 158998" transform="translate(59.749 41.817)" opacity="0.5">
                <g id="Grupo_158997" data-name="Grupo 158997" transform="translate(0)">
                  <g id="Grupo_158996" data-name="Grupo 158996" clip-path="url(#clip-path-5)">
                    <path id="Trazado_136121" data-name="Trazado 136121" d="M114.365,88.532l-4.454,1.758,2.173.328Z" transform="translate(-109.911 -88.532)" fill="#af593c"/>
                  </g>
                </g>
              </g>
              <path id="Trazado_136122" data-name="Trazado 136122" d="M122.839,105.309s-.232.068-.637.171-.981.244-1.667.4c-.347.064-.717.153-1.112.218l-.606.107c-.209.022-.419.058-.634.088-.427.08-.877.081-1.326.143-.451.029-.91.051-1.366.05l-.684-.012-.341-.006-.334-.038a10.965,10.965,0,0,1-1.3-.171c-.21-.038-.415-.084-.62-.114s-.392-.108-.582-.158a8.175,8.175,0,0,1-1.06-.34c-.319-.134-.621-.245-.889-.348-.247-.137-.472-.249-.657-.344-.372-.188-.6-.29-.6-.29s.164.171.472.463c.154.145.342.324.568.521.242.169.521.355.835.551a5.7,5.7,0,0,0,1.061.54c.2.08.393.184.6.252s.434.123.657.187a8.087,8.087,0,0,0,1.4.278l.364.05.367.017.739.031c.492-.012.983-.048,1.464-.092a13.613,13.613,0,0,0,1.392-.245c.222-.052.443-.1.655-.155l.614-.193c.4-.113.764-.275,1.1-.406a10.35,10.35,0,0,0,2.119-1.153" transform="translate(-57.934 -55.227)" fill="#af593c"/>
              <g id="Grupo_159001" data-name="Grupo 159001" transform="translate(52.15 52.185)" opacity="0.5">
                <g id="Grupo_159000" data-name="Grupo 159000" transform="translate(0)">
                  <g id="Grupo_158999" data-name="Grupo 158999" clip-path="url(#clip-path-6)">
                    <path id="Trazado_136123" data-name="Trazado 136123" d="M125.306,111.246l-.415.082c-.261.051-.631.116-1.067.181-.218.034-.454.061-.7.091s-.509.035-.774.068c-.268,0-.542.031-.82.024s-.56,0-.838-.03a6.911,6.911,0,0,1-.832-.086c-.277-.025-.538-.1-.8-.146a7.634,7.634,0,0,1-.744-.189,6.213,6.213,0,0,1-.665-.217c-.2-.082-.406-.128-.569-.2s-.313-.135-.435-.186c-.248-.1-.4-.151-.4-.151s.093.123.276.324c.092.1.2.224.34.358a4.13,4.13,0,0,0,.5.4,3.366,3.366,0,0,0,.645.411,4.8,4.8,0,0,0,.781.361,5.229,5.229,0,0,0,.887.258l.468.089c.158.023.318.029.477.043a6.155,6.155,0,0,0,.952,0,7.662,7.662,0,0,0,.908-.122,7.327,7.327,0,0,0,.821-.23,5.015,5.015,0,0,0,.7-.282,5.467,5.467,0,0,0,.565-.3c.162-.1.3-.191.409-.275a2.573,2.573,0,0,0,.329-.275" transform="translate(-116.246 -110.483)" fill="#af593c"/>
                  </g>
                </g>
              </g>
              <path id="Trazado_136124" data-name="Trazado 136124" d="M101.61,71.814l-.129.514c-.049.159-.1.346-.175.559a7.179,7.179,0,0,1-.28.691,5.812,5.812,0,0,1-.42.744,4.252,4.252,0,0,1-.586.7,2.714,2.714,0,0,1-.751.52,1.724,1.724,0,0,1-.418.148c-.073.01-.143.034-.216.037l-.109,0-.055,0-.027,0h-.024c.016,0-.04,0,.034,0l-.283-.016c-.092-.006-.129-.028-.2-.036a1.765,1.765,0,0,1-.409-.145,2.769,2.769,0,0,1-.75-.521,4.309,4.309,0,0,1-.585-.7,6.862,6.862,0,0,1-.421-.744,7.3,7.3,0,0,1-.28-.69c-.077-.212-.127-.4-.175-.563-.083-.324-.129-.51-.129-.51l-.024.136a3.941,3.941,0,0,0-.059.392,4.3,4.3,0,0,0-.015.619,4.13,4.13,0,0,0,.1.809,4.057,4.057,0,0,0,.3.934,3.73,3.73,0,0,0,.6.959,3.133,3.133,0,0,0,.974.8,2.733,2.733,0,0,0,.64.248c.116.025.261.06.357.069l.282.024h.081l.043,0,.087-.007.173-.015a3.319,3.319,0,0,0,.339-.069,2.768,2.768,0,0,0,.63-.246,3.163,3.163,0,0,0,.974-.8,3.747,3.747,0,0,0,.6-.958,4.083,4.083,0,0,0,.3-.934,4.163,4.163,0,0,0,.1-.808,4.362,4.362,0,0,0-.014-.622c-.011-.169-.046-.3-.058-.388l-.024-.137" transform="translate(-30.525 -37.894)" fill="#1b262c"/>
              <path id="Trazado_136125" data-name="Trazado 136125" d="M140.13,74.62l-.129.513c-.049.159-.1.347-.175.56a7.121,7.121,0,0,1-.28.69,5.785,5.785,0,0,1-.42.744,4.252,4.252,0,0,1-.586.7,2.707,2.707,0,0,1-.751.52,1.724,1.724,0,0,1-.418.148c-.073.01-.143.034-.216.037l-.109,0-.055,0-.027,0h-.024c.016,0-.04,0,.034,0l-.283-.016c-.092-.007-.129-.028-.2-.036a1.746,1.746,0,0,1-.409-.145,2.756,2.756,0,0,1-.75-.52,4.292,4.292,0,0,1-.585-.7,3.745,3.745,0,0,1-.227-.374,3.8,3.8,0,0,1-.194-.37,7.194,7.194,0,0,1-.28-.69c-.077-.212-.127-.4-.175-.563-.083-.324-.129-.51-.129-.51l-.024.137a3.948,3.948,0,0,0-.059.392,4.3,4.3,0,0,0-.015.619,4.123,4.123,0,0,0,.1.808,4.052,4.052,0,0,0,.3.935,3.73,3.73,0,0,0,.6.959,3.133,3.133,0,0,0,.974.8,2.742,2.742,0,0,0,.64.248c.117.025.261.06.357.069l.282.024h.081l.043,0,.087-.007.173-.015a3.317,3.317,0,0,0,.339-.069,2.79,2.79,0,0,0,.63-.246,3.163,3.163,0,0,0,.974-.8,3.762,3.762,0,0,0,.6-.958,4.1,4.1,0,0,0,.3-.934,4.163,4.163,0,0,0,.1-.808,4.362,4.362,0,0,0-.014-.622c-.011-.169-.046-.3-.058-.388l-.024-.137" transform="translate(-87.239 -39.374)" fill="#1b262c"/>
              <path id="Trazado_136126" data-name="Trazado 136126" d="M175.964,10.056s-12.619-.922-14.214,10.776,11.128,46.149-1.914,54.659S143.974,81.044,131.9,87.815c0,0-5.535-9.544-.855-14.5s8.795-9.236,7.283-19.289S131.4,13.587,144.608,5.441s30.119-7.567,31.356,4.615" transform="translate(-120.857 0)" fill="#851d41"/>
              <path id="Trazado_136127" data-name="Trazado 136127" d="M153.764,140.578c3.584-3.8,6.832-7.2,7.481-13.093a19.65,19.65,0,0,0,9.679,7.232,22.808,22.808,0,0,0,17.027-1.362c-.761,4.112-2.4,7.446-5.4,9.4-13.042,8.511-15.862,5.554-27.935,12.324,0,0-5.535-9.543-.855-14.5" transform="translate(-143.575 -67.269)" fill="#6b1536"/>
              <path id="Trazado_136128" data-name="Trazado 136128" d="M171.156,21.06a11.343,11.343,0,0,0-1.188-.158,15.435,15.435,0,0,0-3.409.111,11.99,11.99,0,0,0-5.047,1.906,10.459,10.459,0,0,0-4.09,5.8,9.387,9.387,0,0,0-.248.964,9.278,9.278,0,0,0-.186.994,13.19,13.19,0,0,0-.178,2.066,33.442,33.442,0,0,0,.224,4.24c.312,2.87.86,5.834,1.451,8.886s1.243,6.186,1.84,9.381,1.127,6.448,1.485,9.718a51.094,51.094,0,0,1,.236,9.767,22.915,22.915,0,0,1-.858,4.67,12.974,12.974,0,0,1-2.015,4.1,9.938,9.938,0,0,1-1.547,1.6c-.281.233-.581.449-.894.67s-.611.442-.918.644a37.428,37.428,0,0,1-3.71,2.252,31.2,31.2,0,0,1-7.447,2.755c-2.406.572-4.657.969-6.6,1.523a31.041,31.041,0,0,0-4.907,1.807c-1.314.615-2.3,1.2-2.968,1.582l-1.013.624,1.025-.6c.68-.373,1.672-.932,2.994-1.518a30.9,30.9,0,0,1,4.92-1.7c1.947-.511,4.193-.859,6.627-1.385a31.614,31.614,0,0,0,7.6-2.637,38.066,38.066,0,0,0,3.814-2.209c.321-.2.627-.416.939-.63s.628-.428.939-.676a10.623,10.623,0,0,0,1.686-1.677,13.7,13.7,0,0,0,2.214-4.291,23.722,23.722,0,0,0,.981-4.818,53.21,53.21,0,0,0-.04-9.953c-.273-3.32-.737-6.613-1.233-9.842s-1.042-6.393-1.576-9.444c-.262-1.526-.512-3.026-.734-4.493s-.441-2.9-.591-4.292a34.25,34.25,0,0,1-.256-4.028,13.915,13.915,0,0,1,.127-1.863,8.1,8.1,0,0,1,.138-.9,8.015,8.015,0,0,1,.193-.863,10.836,10.836,0,0,1,1.3-3.034,9.494,9.494,0,0,1,1.991-2.219,12.255,12.255,0,0,1,4.471-2.2,18.333,18.333,0,0,1,3.267-.576,11.335,11.335,0,0,1,1.187-.06" transform="translate(-116.048 -11.005)" fill="#851d41"/>
              <path id="Trazado_136129" data-name="Trazado 136129" d="M68.859,262.132s-9.651,29.693-21.7,29.693-5.02-44.181-5.02-44.181Z" transform="translate(28.318 -130.673)" fill="#ff6464"/>
              <g id="Grupo_159004" data-name="Grupo 159004" transform="translate(68.418 116.971)" opacity="0.8">
                <g id="Grupo_159003" data-name="Grupo 159003">
                  <g id="Grupo_159002" data-name="Grupo 159002" clip-path="url(#clip-path-7)">
                    <path id="Trazado_136130" data-name="Trazado 136130" d="M68.859,262.132s-9.651,29.693-21.7,29.693-5.02-44.181-5.02-44.181Z" transform="translate(-40.1 -247.644)" fill="#ba3a3a"/>
                  </g>
                </g>
              </g>
              <path id="Trazado_136131" data-name="Trazado 136131" d="M40.107,273.466a179.145,179.145,0,0,1,2.03-25.823l26.721,14.488s-1.18,3.629-3.228,8.347q-12.733,1.746-25.523,2.987" transform="translate(28.319 -130.672)" fill="#ba3a3a"/>
              <path id="Trazado_136132" data-name="Trazado 136132" d="M122.3,297.94s20.665,19.418,18.527,48.811-15.677,55.225-15.677,55.225L62.8,404.114s-35.272-56.472,0-100.829,59.5-5.345,59.5-5.345" transform="translate(-47.126 -148.845)" fill="#1b262c"/>
              <path id="Trazado_136133" data-name="Trazado 136133" d="M142.083,303.485c-3.47,2.38-7.693,3.554-11.8,4.282-8.717,1.546-17.825,1.489-26.658,1.5a93.7,93.7,0,0,1-25.421-3.616c.575-.791,1.169-1.579,1.792-2.363,35.272-44.358,59.5-5.344,59.5-5.344a47.348,47.348,0,0,1,4,4.479c-.457.371-.926.729-1.416,1.065" transform="translate(-64.321 -148.844)" fill="#151f23"/>
              <path id="Trazado_136134" data-name="Trazado 136134" d="M50.148,442.052c.292-6.228.542-12.467,1.214-18.669.384-3.544.788-2.288.7-5.824,11.775-1.733,23.808-10.252,31.5-19.132a58.446,58.446,0,0,1,.1,9.715c-2.137,29.394-15.677,55.225-15.677,55.225l-20.863.979a131.783,131.783,0,0,0,3.019-22.294" transform="translate(10.035 -210.236)" fill="#151f23"/>
              <path id="Trazado_136135" data-name="Trazado 136135" d="M85.676,405.685a17.11,17.11,0,0,1-1.363,1.543c-.479.49-.971.967-1.481,1.425s-1.031.9-1.568,1.327-1.08.841-1.636,1.238a51.116,51.116,0,0,1-7.015,4.224c-.608.311-1.226.6-1.846.887s-1.248.553-1.875.822-1.259.528-1.9.764-1.277.483-1.922.705-1.294.435-1.943.648-1.306.4-1.959.6l-1.974.547-1.989.494-.342.085-.036.349c-.271,2.6-.5,5.2-.751,7.8l-.688,7.8q-.327,3.9-.615,7.812l-.265,3.91q-.137,1.955-.241,3.912.278-1.941.522-3.885l.5-3.887q.477-3.89.912-7.783l.839-7.79c.258-2.6.537-5.2.775-7.8l-.379.434,2.011-.511,2-.565c.659-.209,1.326-.4,1.98-.623s1.313-.439,1.959-.688,1.3-.483,1.937-.746,1.278-.533,1.914-.805,1.259-.576,1.88-.879,1.239-.617,1.847-.948,1.212-.67,1.812-1.013,1.184-.716,1.764-1.094,1.154-.762,1.715-1.168,1.118-.815,1.657-1.248,1.071-.873,1.587-1.333,1.02-.931,1.511-1.417a21.512,21.512,0,0,0,2.672-3.149" transform="translate(4.809 -214.065)" fill="#2e4149"/>
              <path id="Trazado_136136" data-name="Trazado 136136" d="M189.514,334.57s-.529.913-1.329,2.7" transform="translate(-162.283 -176.54)" fill="none" stroke="#2e4149" stroke-miterlimit="10" stroke-width="1.063"/>
              <path id="Trazado_136137" data-name="Trazado 136137" d="M200.87,351.618c-3.855,11.135-8.771,33.527-2.218,65.371" transform="translate(-177.07 -185.536)" fill="none" stroke="#2e4149" stroke-miterlimit="10" stroke-width="1.063" stroke-dasharray="12.181 12.181"/>
              <path id="Trazado_136138" data-name="Trazado 136138" d="M197.42,495.985q.325,1.455.682,2.935" transform="translate(-175.233 -261.713)" fill="none" stroke="#2e4149" stroke-miterlimit="10" stroke-width="1.063"/>
              <path id="Trazado_136139" data-name="Trazado 136139" d="M103.231,332.313l.393,1.946.442,2.233c.161.863.341,1.838.539,2.9l.618,3.434c.225,1.217.42,2.508.653,3.837l.648,4.109c.2,1.4.422,2.824.6,4.252s.394,2.851.532,4.26.333,2.79.437,4.134.262,2.64.332,3.874q.066.925.128,1.8c.051.58.085,1.141.1,1.68.043,1.078.1,2.067.148,2.945.034.878.032,1.643.047,2.274.024,1.262.052,1.985.052,1.985s.061-.719.143-1.981c.035-.631.1-1.4.132-2.278s.045-1.875.054-2.96c.034-1.086-.03-2.26-.058-3.5s-.105-2.553-.2-3.906c-.079-1.355-.207-2.75-.354-4.167-.128-1.419-.33-2.852-.5-4.288-.187-1.435-.427-2.861-.634-4.269-.236-1.4-.483-2.783-.737-4.114s-.515-2.615-.789-3.827c-.257-1.215-.531-2.357-.789-3.41s-.515-2.013-.738-2.864l-.615-2.2c-.171-.608-.324-1.081-.425-1.4l-.157-.495" transform="translate(-41.88 -175.349)" fill="#2e4149"/>
              <path id="Trazado_136140" data-name="Trazado 136140" d="M82.392,327.2l.875,2.75q.434,1.375.842,2.758l.817,2.764.793,2.77c.266.923.51,1.851.767,2.776s.491,1.856.739,2.783.484,1.857.707,2.79.479,1.858.683,2.8l.647,2.8.6,2.813c.21.936.386,1.878.56,2.82s.369,1.882.523,2.827l.467,2.837c.161.945.262,1.9.4,2.846s.27,1.9.348,2.854l.3,2.861.173-.273c-1.22.512-2.428,1.053-3.642,1.579s-2.426,1.057-3.631,1.606c1.253-.428,2.5-.873,3.744-1.322s2.494-.886,3.733-1.349l.185-.069-.011-.2-.163-2.89c-.046-.965-.151-1.924-.25-2.884s-.176-1.924-.323-2.877l-.41-2.866c-.129-.957-.323-1.9-.488-2.853s-.339-1.9-.544-2.843-.386-1.89-.6-2.831l-.67-2.814c-.216-.94-.47-1.87-.716-2.8s-.5-1.862-.768-2.787-.518-1.857-.814-2.774-.566-1.842-.865-2.758-.6-1.83-.917-2.741-.626-1.822-.972-2.722c-.671-1.805-1.353-3.607-2.118-5.374" transform="translate(-15.82 -172.651)" fill="#2e4149"/>
              <path id="Trazado_136141" data-name="Trazado 136141" d="M125.366,169.32s-17.458,12.114-42.4,0c0,0-17.458,1.782-19.952,11.045s4.276,42.4,13.182,56.293c0,0,23.159,11.045,52.374,1.782v-13.9s10.745-9.126,11.4-24.228c.356-8.195-3.563-25.653-14.608-31" transform="translate(-53.396 -89.344)" fill="#ff6464"/>
              <path id="Trazado_136142" data-name="Trazado 136142" d="M88.18,229.243a51.7,51.7,0,0,0,52.042-5.4,36.426,36.426,0,0,1-11.17,21.517v13.9c-29.215,9.263-52.374-1.781-52.374-1.781-7.212-11.251-13.022-35.114-13.648-48.707a60.329,60.329,0,0,0,25.15,20.477" transform="translate(-53.876 -110.158)" fill="#e04c4c"/>
              <g id="Grupo_159007" data-name="Grupo 159007" transform="translate(11.401 114.93)" opacity="0.5">
                <g id="Grupo_159006" data-name="Grupo 159006">
                  <g id="Grupo_159005" data-name="Grupo 159005" clip-path="url(#clip-path-8)">
                    <path id="Trazado_136143" data-name="Trazado 136143" d="M110.454,248.444c7.969,7.689,15.86,15.732,25.219,21.762a64.334,64.334,0,0,0,24.679,9.54c-24.9,4.835-43.514-4.038-43.514-4.038-4.788-7.469-8.955-20.493-11.4-32.384,1.592,1.806,3.33,3.493,5.017,5.121" transform="translate(-105.437 -243.323)" fill="#ba3a3a"/>
                  </g>
                </g>
              </g>
              <path id="Trazado_136144" data-name="Trazado 136144" d="M11.923,164.393s-2.364-.657-3.673.443-6.335,15.033-5.279,18.647,8.952-19.09,8.952-19.09" transform="translate(102.86 -86.641)" fill="#c4cace"/>
              <path id="Trazado_136145" data-name="Trazado 136145" d="M17.009,161.514s-2.738.972-3.3,2.442S7.621,182.5,7.621,182.5l3.06-.384s2.736-15.659,6.328-20.607" transform="translate(95.509 -85.225)" fill="#d9dbdd"/>
              <path id="Trazado_136146" data-name="Trazado 136146" d="M19.746,160.776s-5.3,11.128-4.462,20.692l-3.659-1.239s4.039-14.988,8.121-19.452" transform="translate(90.881 -84.836)" fill="#e8ebed"/>
              <path id="Trazado_136147" data-name="Trazado 136147" d="M72.579,199.721s-7.322-6.195-35.758-3.8l-15.75,38.5,11.147-.014Z" transform="translate(33.585 -103.089)" fill="#fff"/>
              <path id="Trazado_136148" data-name="Trazado 136148" d="M72.185,201.123s-7.4-4.8-35.1-2.453L21.072,236.92l10.854-.06Z" transform="translate(33.979 -104.491)" fill="#e8ebed"/>
              <path id="Trazado_136149" data-name="Trazado 136149" d="M70.78,202.435S63.7,199.011,36.714,201.3L21.072,238.133l10.572-.069Z" transform="translate(35.385 -105.802)" fill="#d9dbdd"/>
              <path id="Trazado_136150" data-name="Trazado 136150" d="M69.724,203.632s-6.816-2.046-33.258.2L21.072,239.265l10.359-.086Z" transform="translate(36.441 -106.999)" fill="#c4cace"/>
              <path id="Trazado_136151" data-name="Trazado 136151" d="M70.414,204.584l-32.705.325L21.072,241.551l35.787.44Z" transform="translate(35.751 -107.951)" fill="#1b262c"/>
              <path id="Trazado_136152" data-name="Trazado 136152" d="M22.389,161.569l-8.834,20.318L0,219.293l2.16-1.447,21.347-55.677Z" transform="translate(92.61 -85.254)" fill="#151f23"/>
              <path id="Trazado_136153" data-name="Trazado 136153" d="M44.448,253.3l-.7,1.472s-9.275-1.3-9.94-1.079c-4.349,1.455,7.751,3.32,7.751,3.32s-9.883-.757-10.427-.005c-1.082,1.5,9.546,3.178,9.546,3.178s-9.872-.705-9.485.305c.415,1.081,7.369,2.163,7.369,2.163s1.919,3.126,3.217,2.418c0,0,3.113.518,2.147-2.744,0,0,2.445-1.667,1.936-4.131,0,0,.912-3.369-1.415-4.9" transform="translate(55.411 -133.658)" fill="#ffb99a"/>
              <path id="Trazado_136154" data-name="Trazado 136154" d="M47.216,273.018s-6.821-.5-7.081.134c-.721,1.749,9.887,2.271,9.887,2.271Z" transform="translate(47.155 -143.964)" fill="#ffb99a"/>
              <path id="Trazado_136155" data-name="Trazado 136155" d="M91.8,259.135s-11.223,3.741-12.986,5.446c-1.219,1.178.249,7.976,1.958,8.35s4.484,3.614,5.4,3.414,2.27,2.343,3.633,1.967,6.075-8.834,2.106-8.326c0,0,2.726-4.394-1.939-2.468,0,0,3.713-4.329-2.086-3.575,0,0,13.817-6.539,3.919-4.81" transform="translate(-16.265 -136.582)" fill="#ffb99a"/>
              <path id="Trazado_136156" data-name="Trazado 136156" d="M131.719,270.991l-1.86,7.62-24.524,10.983s-30.106,22.981-5.523,16.745,36.7-19.6,36.7-19.6l6.2-2.021Z" transform="translate(-69.173 -142.992)" fill="#ffb99a"/>
              <g id="Grupo_159010" data-name="Grupo 159010" transform="translate(20.983 127.999)" opacity="0.5">
                <g id="Grupo_159009" data-name="Grupo 159009">
                  <g id="Grupo_159008" data-name="Grupo 159008" clip-path="url(#clip-path-9)">
                    <path id="Trazado_136157" data-name="Trazado 136157" d="M131.719,270.991l-1.86,7.62-24.524,10.983s-30.106,22.981-5.523,16.745,36.7-19.6,36.7-19.6l6.2-2.021Z" transform="translate(-90.156 -270.991)" fill="#e09577"/>
                  </g>
                </g>
              </g>
              <path id="Trazado_136158" data-name="Trazado 136158" d="M136.511,301.419l17.9-8.018c1.466,4.119,2.927,8.242,4.743,12.214a87.435,87.435,0,0,1-28.168,12.549c-24.584,6.235,5.523-16.746,5.523-16.746" transform="translate(-100.348 -154.817)" fill="#e09577"/>
              <path id="Trazado_136159" data-name="Trazado 136159" d="M147.59,206.628s-9.469-25.027-18.149-23.938-7.891,22.487-4.734,46.789c2.745,21.139,1.578,31.555,14.2,32.281s27.988-7.2,34.935-13.076c0,0-4.873-7.455-6.77-13.717,0,0-11.6,4.669-14.752,4.669,0,0,1.579-2.539-1.578-2.539s1.578-16.684-3.156-30.467" transform="translate(-115.593 -96.38)" fill="#ff6464"/>
            </g>
          </g>
        </g>
      </g>
    </g>
  </g>
</svg>
