<svg xmlns="http://www.w3.org/2000/svg" xmlns:xlink="http://www.w3.org/1999/xlink" width="315" height="255.27" viewBox="0 0 315 255.27">
  <defs>
    <clipPath id="clip-path">
      <rect id="Rect치ngulo_38106" data-name="Rect치ngulo 38106" width="177.481" height="255.269" fill="none"/>
    </clipPath>
  </defs>
  <g id="_129" data-name="129" transform="translate(-643 -1531.73)">
    <rect id="Rect치ngulo_34651" data-name="Rect치ngulo 34651" width="315" height="170" transform="translate(643 1617)" fill="#6b8dff"/>
    <g id="Grupo_84000" data-name="Grupo 84000" transform="translate(660 1533.49)">
      <path id="Trazado_118280" data-name="Trazado 118280" d="M150.733,260.461q-1.2-.2-2.42-.329c-9.524-1-19.038,1.6-28.608,1.95-17.246.633-34.142-6.148-48.252-16.087S45.68,223.081,34.517,209.919c-12-14.151-24.265-30.864-22.133-49.294,1.554-13.433,10.581-24.753,20.16-34.3,12.117-12.078,25.638-22.591,38.6-33.715,12.9-11.062,23.176-25.694,36.23-36.083,25.318-20.152,64.385-22.921,93.363-9.99,18.593,8.3,33.9,22.359,50.84,33.646,12.12,8.075,25.648,15.244,33.431,27.553,9.43,14.915,8.31,34.063,5.164,51.426-5.324,29.378-16.037,58.687-36.5,80.429s-52.013,34.594-80.929,27.161C165.35,264.852,158.235,261.7,150.733,260.461Z" transform="translate(-12.141 -38.664)" fill="#c4d1ff"/>
    </g>
    <g id="Grupo_159035" data-name="Grupo 159035" transform="translate(11.779 -8.662)">
      <g id="Grupo_159034" data-name="Grupo 159034" transform="translate(699.221 1540.393)">
        <g id="Grupo_159033" data-name="Grupo 159033" clip-path="url(#clip-path)">
          <path id="Trazado_136252" data-name="Trazado 136252" d="M135.215,105.826c-2.442,14.467-11.8,26.105-11.8,26.105-2.034-1.662-7.189-8.589-7.189-8.589,1.536-3.276,3.977-13.992,3.618-23.121s-4.7-23.781-4.7-23.781v.049c.027.733.353,9.3.369,15.207.007.82.007,1.6-.005,2.284-.093,5.875,0,22.694,0,22.694s-7.595,6.24-24.868,6.646-29.2-5.019-29.2-5.019.18-5.875-.18-12.928c-.168-3.27-.433-8.69-.678-13.6-.282-5.679-.542-10.665-.591-10.811-.007-.016-.016-.007-.032.026-.3.51-2.209,6.955-3.311,17.155-1.176,10.85,1.808,23.986,1.808,23.986-5.7,2.82-8.408,8.811-8.408,8.811-4.792-5.175-9.836-22.537-9.947-35.51-.123-14.333,3.066-32.974,14.286-43.4,8.57-7.969,15.124-10.573,19.444-11.8.135-.037.266-.076.4-.107.722-.2,1.368-.359,1.953-.5.167.737.348,1.42.543,2.007,1.805,5.517,9.2,5.084,12.657,4.676,3.266-.382,6.819-1.745,8.327-7.176a.561.561,0,0,0,.092.011c.569.082,1.139.169,1.693.271.135.022.265.049.4.077,11.9,2.3,20.73,10.052,27.29,21.582,7.5,13.2,10.486,30.295,8.045,44.759" transform="translate(-4.789 -4.674)" fill="#e9632e"/>
          <path id="Trazado_136253" data-name="Trazado 136253" d="M78.358,24.236s-.609-1.559-2.237,0,1.153,7.121,3.932,6.715c0,0-.812-5.018-1.7-6.715" transform="translate(-9.036 -2.812)" fill="#ed875f"/>
          <path id="Trazado_136254" data-name="Trazado 136254" d="M106.239,22.428c.624-.792,1.426-1.492,2.035-.407s.536,7.12-2.41,7.053c0,0-.295-5.791.375-6.646" transform="translate(-12.639 -2.564)" fill="#ed875f"/>
          <path id="Trazado_136255" data-name="Trazado 136255" d="M70.761,278.182c-3.888,1.086-8.5.993-8.769,0a1.8,1.8,0,0,1-.037-.193c-3.225,1.184-12.2,7.558-12.623,8.149-.453.632,13.021.908,23.058-.27,0,0-.085-6.107-1.06-8.2a2.6,2.6,0,0,1-.568.519" transform="translate(-5.892 -33.17)" fill="#c54325"/>
          <path id="Trazado_136256" data-name="Trazado 136256" d="M121.879,276.082a2.888,2.888,0,0,1-1.633,1.369c-2.1.678-6.985,1.323-9.064-1.289,0,0-.905,7.618-.362,8.795s20.887,1.6,22.605,1.512c1.563-.081-9.543-8.82-11.547-10.387" transform="translate(-13.218 -32.981)" fill="#e9632e"/>
          <path id="Trazado_136257" data-name="Trazado 136257" d="M121.694,206.4c-.092,10.124-4.07,44.3-4.7,47.744-.146.78-.288,1.48-.439,2.1-.038.158-.082.314-.12.461a8.06,8.06,0,0,1-.77,1.948,2.9,2.9,0,0,1-1.629,1.367c-2.1.678-6.987,1.323-9.065-1.292a6.239,6.239,0,0,1-.4-2.012l-.048-.436c-.971-9.467-1.539-43.047-1.539-48.886,0-6.689-4.072-27.847-6.419-36.8s-4.525-17.545-6.337-17.432-2.616,2.512-3.43,7.3-7.145,28.033-7.779,36.891-2.35,28.935-2.8,40.51a100.341,100.341,0,0,1-2.855,19.743c-.038.152-.074.309-.114.451-.113.406-.216.763-.313,1.08a2.509,2.509,0,0,1-.493.9,2.716,2.716,0,0,1-.564.52c-3.891,1.087-8.5.992-8.774,0a1.465,1.465,0,0,1-.039-.2c-.043-.27-.114-.8-.2-1.542-.021-.145-.037-.3-.06-.464-.937-7.917-3.705-34.642-3.863-42.737-.178-9.406-.629-30.564,0-44.035.348-7.385,1.183-18.43,2.08-27.166.015-.135.026-.269.042-.405.721-7.011,1.481-12.434,2.04-13.119a31.216,31.216,0,0,0,8.377,7.022c.124.07.249.14.379.209a27.085,27.085,0,0,0,3,1.449,41.711,41.711,0,0,0,13.8,2.464c.142,0,.276,0,.417.01q1.621.042,3.249,0c.142,0,.284-.005.423-.01a48.369,48.369,0,0,0,12.674-1.92,22.2,22.2,0,0,0,7.048-4.171c.114-.1.228-.191.342-.287,3.162-2.7,5.376-5.487,5.54-5.487,0,0,.775,9,1.507,17.387.017.158.033.321.044.478.378,4.362.748,8.508.982,11.068.689,7.557.905,37.162.813,47.291" transform="translate(-7.002 -15.551)" fill="#4c5346"/>
          <path id="Trazado_136258" data-name="Trazado 136258" d="M103.046,14.438c-.067-4-2.307-9.765-4.07-11.6s-1.763-1.559-2.3-1.289-.137,1.356-.137,1.356C94.908,1.758,90.093-1.361,85.075.672a10.507,10.507,0,0,0-7.024,6.646c-1.724,5.357.241,12.749.719,15.8.4,2.56.972,7.987,1.854,11.826.168.737.349,1.42.54,2.009,1.809,5.516,9.2,5.083,12.66,4.677,3.265-.383,6.819-1.75,8.33-7.178.088-.322.174-.652.248-1,1.389-6.533.711-15.009.645-19.011m-.882,8.681c-.949,2.237-5.492,5.019-9.969,5.357s-8.679.475-10.24-1.492-3.323-8.545-2.781-11.462,2.374-4.065,5.561-4.136c3.052-.069,7.189-1.9,9.766-2.849s4.95.95,6.035,3.188,2.576,9.156,1.627,11.393" transform="translate(-9.241 0)" fill="#7a625d"/>
          <path id="Trazado_136259" data-name="Trazado 136259" d="M92.428,29.6c4.477-.338,9.019-3.12,9.969-5.357s-.541-9.156-1.626-11.393-3.46-4.136-6.036-3.187-6.714,2.779-9.765,2.848c-3.188.07-5.018,1.22-5.561,4.136s1.22,9.494,2.78,11.462,5.764,1.83,10.24,1.492" transform="translate(-9.474 -1.125)" fill="#ed875f"/>
          <path id="Trazado_136260" data-name="Trazado 136260" d="M127.2,148.788c-3.847-1.768-6.532-9.254-7.434-12.092.114-.1.228-.191.343-.287.824,2.6,3.446,10.014,7.048,11.9.016.159.032.321.043.478" transform="translate(-14.308 -16.296)" fill="#1f1f1e"/>
          <path id="Trazado_136261" data-name="Trazado 136261" d="M133,143.357a25.881,25.881,0,0,1-1.829,5.79c-1.226,2.442-3.254,5.088-3.867,4.48-.289-.287-.126-.819.13-1.3l0-.005a6.872,6.872,0,0,1,.662-.992,11.377,11.377,0,0,1-1.5,1.123.224.224,0,0,1-.033.016c-.456.262-.885.407-1.09.2-.235-.233-.093-.813.135-1.416.114-.288.249-.576.375-.829,0-.012,0-.012.01-.012.206-.423.39-.737.419-.785-.1.123-1.916,2.479-2.774,1.686-.532-.494.049-1.579.6-2.361a10.782,10.782,0,0,1,.678-.878c-.109.092-.211.18-.314.254a3.217,3.217,0,0,1-.864.49c-.991.346-1.4-.391-.661-1.5,1-1.492,2.6-6.373,2.258-6.851s-4.406,2.646-4.949,1.9,4.449-6.923,5.425-7.6c0,0,5.155,6.928,7.189,8.589" transform="translate(-14.377 -16.1)" fill="#ed875f"/>
          <path id="Trazado_136262" data-name="Trazado 136262" d="M86.776,19.963c.4-.279-.271-1.717-2.985-1.717s-3.617,1.717-3.39,1.989,1.854-.5,3.483-.406,2.44.452,2.893.134" transform="translate(-9.601 -2.18)" fill="#7a625d"/>
          <path id="Trazado_136263" data-name="Trazado 136263" d="M95.823,19.7c-.7-.207.361-2.035,2.848-2.125s3.391.994,3.254,1.4-1.22.058-2.666.211-2.666.741-3.436.513" transform="translate(-11.422 -2.099)" fill="#7a625d"/>
          <path id="Trazado_136264" data-name="Trazado 136264" d="M104.456,39.524a15.448,15.448,0,0,1-3.31,6.845A12.152,12.152,0,0,1,91.527,50.5h-.205c-6.065-.07-9.3-3.077-10.948-5.588a14.441,14.441,0,0,1-1.975-4.65c.135-.037.266-.076.4-.108A12.4,12.4,0,0,0,91.326,50.1a11.809,11.809,0,0,0,9.4-3.873,15.139,15.139,0,0,0,3.332-6.777c.135.022.265.049.4.077" transform="translate(-9.366 -4.712)" fill="#1f1f1e"/>
          <path id="Trazado_136265" data-name="Trazado 136265" d="M91.434,30.77a4.751,4.751,0,0,1-2.289-.37c-.218-.257.07-3.281.859-8.992a.2.2,0,0,1,.4.056c-.422,3.064-1.039,8.049-.934,8.676a8.506,8.506,0,0,0,3.45.092,1.555,1.555,0,0,0,1.041-.52.2.2,0,1,1,.35.2c-.258.444-.94.718-2.029.817-.263.025-.555.036-.85.036m-1.955-.6h0Z" transform="translate(-10.641 -2.537)" fill="#1f1f1e"/>
          <path id="Trazado_136266" data-name="Trazado 136266" d="M91.778,36.186a11.313,11.313,0,0,1-1.948-.16.2.2,0,0,1,.075-.4,9.841,9.841,0,0,0,4.913-.392.2.2,0,1,1,.164.371,8.1,8.1,0,0,1-3.2.581" transform="translate(-10.712 -4.207)" fill="#1f1f1e"/>
          <path id="Trazado_136267" data-name="Trazado 136267" d="M78.669,28.184a.2.2,0,0,1-.2-.184,3.383,3.383,0,0,0-1.2-1.716.2.2,0,1,1,.254-.316,3.811,3.811,0,0,1,1.353,1.991.207.207,0,0,1-.184.225h-.019" transform="translate(-9.221 -3.097)" fill="#1f1f1e"/>
          <path id="Trazado_136268" data-name="Trazado 136268" d="M106.554,26.481h-.016a.2.2,0,0,1-.187-.219,6.075,6.075,0,0,1,1.268-2.655.2.2,0,1,1,.315.257,5.8,5.8,0,0,0-1.177,2.429.206.206,0,0,1-.2.188" transform="translate(-12.705 -2.811)" fill="#1f1f1e"/>
          <path id="Trazado_136269" data-name="Trazado 136269" d="M85.024,27.785a2.6,2.6,0,1,1,2.6-2.6,2.6,2.6,0,0,1-2.6,2.6m0-4.794a2.193,2.193,0,1,0,2.193,2.193,2.2,2.2,0,0,0-2.193-2.193" transform="translate(-9.847 -2.698)" fill="#1f1f1e"/>
          <path id="Trazado_136270" data-name="Trazado 136270" d="M96.847,27.209a2.886,2.886,0,1,1,2.884-2.886,2.889,2.889,0,0,1-2.884,2.886m0-5.362a2.478,2.478,0,1,0,2.477,2.477,2.482,2.482,0,0,0-2.477-2.477" transform="translate(-11.225 -2.561)" fill="#1f1f1e"/>
          <path id="Trazado_136271" data-name="Trazado 136271" d="M88.07,25.313A.2.2,0,0,1,88,24.919a9.883,9.883,0,0,1,5.488-.258.2.2,0,1,1-.1.394,9.636,9.636,0,0,0-5.244.244.229.229,0,0,1-.072.014" transform="translate(-10.497 -2.913)" fill="#1f1f1e"/>
          <path id="Trazado_136272" data-name="Trazado 136272" d="M100.256,23.978a.2.2,0,0,1-.188-.127.2.2,0,0,1,.108-.265l6.158-2.577a.2.2,0,1,1,.157.374l-6.158,2.579a.2.2,0,0,1-.077.016" transform="translate(-11.952 -2.508)" fill="#1f1f1e"/>
          <path id="Trazado_136273" data-name="Trazado 136273" d="M82.082,25.185a.282.282,0,0,1-.07-.012l-4.028-1.464a.2.2,0,0,1,.139-.385l4.028,1.466a.2.2,0,0,1-.07.4" transform="translate(-9.3 -2.785)" fill="#1f1f1e"/>
          <path id="Trazado_136274" data-name="Trazado 136274" d="M125.147,80.951a.205.205,0,0,1-.2-.195c-.079-2.335-1.3-11.283-1.314-11.372a.205.205,0,0,1,.174-.23.2.2,0,0,1,.229.174c.051.369,1.236,9.058,1.318,11.413a.2.2,0,0,1-.2.21Z" transform="translate(-14.769 -8.261)" fill="#1f1f1e"/>
          <path id="Trazado_136275" data-name="Trazado 136275" d="M72.183,139.167c0,.011,0,.027-.009.04-.316,1.05-3.391,6.027-10.829,6.254.015-.135.026-.269.042-.406,7.341-.249,10.236-5.235,10.394-5.967a.214.214,0,0,1,.023-.129.2.2,0,0,1,.276-.077.24.24,0,0,1,.1.287" transform="translate(-7.328 -16.588)" fill="#1f1f1e"/>
          <path id="Trazado_136276" data-name="Trazado 136276" d="M66.784,141.728c-.542.743-4.753-1.156-5.224-.543s.27,5.291,1.015,7.124c.537,1.314.445,2.241-.006,2.387a.756.756,0,0,1-.657-.206,5.611,5.611,0,0,1,.549.614c.243.325.45.7.32.933-.205.357-1.606-.054-2.284-.283h-.005c-.173-.059-.3-.1-.342-.12.1.077.782.537.906.906.077.2-.01.374-.445.445-1.291.206-4.276-2.711-5.633-4.677s-3.589-6.108-3.589-6.108,2.71-5.99,8.408-8.811c.814.813,7.53,7.595,6.987,8.339" transform="translate(-6.139 -15.935)" fill="#ed875f"/>
          <path id="Trazado_136277" data-name="Trazado 136277" d="M63.476,152.4c-2.588-1.335-3.8-6.684-3.559-7.95a.2.2,0,1,1,.4.077c-.206,1.112.983,6.167,3.271,7.464a.753.753,0,0,1-.657-.205,5.523,5.523,0,0,1,.549.614" transform="translate(-7.154 -17.237)" fill="#1f1f1e"/>
          <path id="Trazado_136278" data-name="Trazado 136278" d="M61.791,154.315c-2.464-1.156-3.831-4.177-4.237-5.811a.2.2,0,0,1,.146-.249.209.209,0,0,1,.25.147,9.438,9.438,0,0,0,3.276,5.126c-.174-.06-.3-.1-.343-.121.1.077.782.538.907.907" transform="translate(-6.875 -17.71)" fill="#1f1f1e"/>
          <path id="Trazado_136279" data-name="Trazado 136279" d="M128.433,144.552a12.55,12.55,0,0,1-3.732,5.54,10.358,10.358,0,0,1,.694-.9,3.659,3.659,0,0,1-1.193.76,12.408,12.408,0,0,0,3.847-5.523.2.2,0,0,1,.254-.137.207.207,0,0,1,.129.255" transform="translate(-14.837 -17.237)" fill="#1f1f1e"/>
          <path id="Trazado_136280" data-name="Trazado 136280" d="M130.635,147.863a19.4,19.4,0,0,1-4.308,4.921c.114-.288.249-.576.375-.829,0-.013,0-.013.011-.013a20.731,20.731,0,0,0,3.576-4.285.2.2,0,1,1,.346.206" transform="translate(-15.091 -17.627)" fill="#1f1f1e"/>
          <path id="Trazado_136281" data-name="Trazado 136281" d="M131.328,149.679a11.712,11.712,0,0,1-3.039,4.393,6.927,6.927,0,0,1,.662-.992,11.233,11.233,0,0,1-1.5,1.123,11.172,11.172,0,0,0,3.5-4.664.2.2,0,1,1,.38.141" transform="translate(-15.225 -17.848)" fill="#1f1f1e"/>
          <path id="Trazado_136282" data-name="Trazado 136282" d="M96.82,143.653l-1.357,5.192a.194.194,0,0,1-.188.153c-.027,0-.44.016-.8.016-.189,0-.369,0-.472-.016-.169-.017-.391-.034-1.269-5.345.142,0,.276,0,.417.009.368,2.172.792,4.49.977,4.939.255.006.737,0,.987-.005l1.286-4.934c.142,0,.284,0,.423-.009" transform="translate(-11.078 -17.161)" fill="#1f1f1e"/>
          <path id="Trazado_136283" data-name="Trazado 136283" d="M118.168,96a60.766,60.766,0,0,0-9.684-1.421c-7.139-.542-18.173.358-29.475,1.357a88.635,88.635,0,0,1-15.777.14c-.282-5.679-.543-10.665-.591-10.811-.007-.017-.016-.007-.032.026.01-2.712-.261-5.36-.261-5.36,5.039-2.258,20.458-4.161,33.115-4.7a65.152,65.152,0,0,1,22.042,2.724c.045.363.153,1.416.293,2.842.027.733.353,9.3.369,15.207" transform="translate(-7.448 -8.98)" fill="#c54325"/>
          <path id="Trazado_136284" data-name="Trazado 136284" d="M62.512,85H62.5a.2.2,0,0,1-.188-.217,73.021,73.021,0,0,0-.633-8.54c-.231-2.134-.43-3.978-.43-4.806a.2.2,0,0,1,.406,0c0,.806.2,2.641.427,4.761a70.659,70.659,0,0,1,.635,8.612.206.206,0,0,1-.2.191" transform="translate(-7.317 -8.51)" fill="#1f1f1e"/>
          <path id="Trazado_136285" data-name="Trazado 136285" d="M86.094,23.228c0,.859-.238,1.555-.53,1.555s-.529-.7-.529-1.555.236-1.557.529-1.557.53.7.53,1.557" transform="translate(-10.158 -2.589)" fill="#1f1f1e"/>
          <path id="Trazado_136286" data-name="Trazado 136286" d="M97.955,22.781c0,.859-.239,1.557-.532,1.557s-.529-.7-.529-1.557.238-1.557.529-1.557.532.7.532,1.557" transform="translate(-11.575 -2.535)" fill="#1f1f1e"/>
          <path id="Trazado_136287" data-name="Trazado 136287" d="M118.326,127.2a22.356,22.356,0,0,1-4.817,2.694c-3.991,1.743-10.554,3.729-20.048,3.952A77.661,77.661,0,0,1,68.8,130.476a43.4,43.4,0,0,1-4.549-1.651l-.542,1.718a31.228,31.228,0,0,0,11.753,8.68c7.868,3.227,22.153,3.227,30.563.543,6.625-2.115,12.66-9.946,12.932-9.946s-.633-2.624-.633-2.624" transform="translate(-7.611 -15.195)" fill="#c9dedc"/>
          <path id="Trazado_136288" data-name="Trazado 136288" d="M68.386,212.628a.207.207,0,0,1-.144-.059l-3.624-3.617a.2.2,0,0,1,.286-.288l3.627,3.616a.205.205,0,0,1,0,.289.2.2,0,0,1-.144.059" transform="translate(-7.712 -24.92)" fill="#1f1f1e"/>
          <path id="Trazado_136289" data-name="Trazado 136289" d="M120.244,215.532c-.437,0-.675-.053-.786-.185a.289.289,0,0,1-.057-.268.2.2,0,0,1,.394.011,10.479,10.479,0,0,0,2.109-.072,12.089,12.089,0,0,1,2.129-.086.2.2,0,1,1-.059.4,12.582,12.582,0,0,0-2.036.089c-.755.068-1.3.11-1.694.11" transform="translate(-14.262 -25.673)" fill="#1f1f1e"/>
          <path id="Trazado_136290" data-name="Trazado 136290" d="M73.929,274.907c-.038.152-.075.3-.114.445a29.187,29.187,0,0,1-7.328,1.123,11.556,11.556,0,0,1-3.055-.359c-.021-.145-.037-.3-.06-.464,1.8.543,4.99.742,10.558-.744" transform="translate(-7.57 -32.841)" fill="#1f1f1e"/>
          <path id="Trazado_136291" data-name="Trazado 136291" d="M122.779,273.349c-.038.158-.082.314-.12.461a20.021,20.021,0,0,1-11.867.011c-.014-.137-.031-.283-.047-.435a19.591,19.591,0,0,0,12.033-.037" transform="translate(-13.23 -32.655)" fill="#1f1f1e"/>
          <path id="Trazado_136292" data-name="Trazado 136292" d="M102.686,39.137c-.4,2.534-1.915,8.534-10.937,8.458C80.975,47.5,81.431,41.367,81.067,39.62c.166.738.347,1.421.542,2.008,1.806,5.517,9.2,5.083,12.657,4.676,3.266-.383,6.819-1.746,8.327-7.177a.48.48,0,0,0,.092.011" transform="translate(-9.684 -4.674)" fill="#1f1f1e"/>
          <path id="Trazado_136293" data-name="Trazado 136293" d="M83.616,225.425c-.249,4.119-2.172,39.323-2.172,39.323-2.656,2.737-5.492-.125-5.492-.125-1.333-3.371-5.867-22.22-6.817-32.084s.624-16.852,1.023-21.97S66.138,196.337,60.9,184.1s-9.987-19.352-10.861-18.726-2.622,16.978-2.746,21.347-2.122,34.83-2.622,40.322-2.746,37.576-2.746,37.576a5.42,5.42,0,0,1-2.621,1,3.565,3.565,0,0,1-2.871-.873c-3.371-7.866-5.789-23.6-6.241-30.461-.665-10.072,1.872-23.344,1.872-23.344s-4.868-19.6-5.867-31.834,1.663-30.295,2.246-32.583c0,0,3.35-.837,7.831-1.707.136-.026.275-.055.414-.079,3.376-.649,7.341-1.3,10.971-1.623.126-.015.256-.025.38-.034,1.1-.1,2.177-.156,3.187-.171.064,0,.124,0,.189,0s.124-.005.185,0a49.334,49.334,0,0,1,10.226,1.058c.141.03.28.054.421.085a50.748,50.748,0,0,1,6.272,1.728l.208,4.7,1.688.122c2.063,5.252,5.219,13.313,6.383,16.4,1.793,4.743,5.827,25.716,6.825,32.583s.25,21.722,0,25.842" transform="translate(-3.102 -17.071)" fill="#ffb859"/>
          <path id="Trazado_136294" data-name="Trazado 136294" d="M28.608,145.41s-.464,28.668-2.293,30.667c-.778.853-2.681,1.187-5.023,1.2H20.9a54.026,54.026,0,0,1-9.9-1.2c-5.492-1.169-11-3.831-11-7.327,0-3,7.166-28.957,7.166-28.957s12.214,3.691,16.623,4.935c.129.04.254.075.37.1.654.185,1.078.295,1.173.3.045.651.065,1.019.065,1.019s1.242-.309,3.211-.744" transform="translate(0 -16.7)" fill="#5b2d24"/>
          <path id="Trazado_136295" data-name="Trazado 136295" d="M96.669,285.255c-.25-1.373-7.378-3.495-8.5-3.994-2.654,2.737-5.492-.125-5.492-.125s-.624,3.62-.375,4.245,1.665,1.109,5.867,1.373c5.327.333,8.753-.125,8.5-1.5" transform="translate(-9.824 -33.585)" fill="#5b2d24"/>
          <path id="Trazado_136296" data-name="Trazado 136296" d="M36.692,281.261c-1.124.5-8.252,2.621-8.5,3.994s3.175,1.832,8.5,1.5c4.2-.262,5.618-.749,5.868-1.373s-.375-4.245-.375-4.245a5.42,5.42,0,0,1-2.621,1,3.564,3.564,0,0,1-2.871-.873" transform="translate(-3.366 -33.585)" fill="#5b2d24"/>
          <path id="Trazado_136297" data-name="Trazado 136297" d="M40.31,31.725c-.5-.664-5.077-2.58-7.741,0s-5.409,13.234-6.99,16.9a50.58,50.58,0,0,1-4.744,8.237,14.122,14.122,0,0,0-.915,13.067c2.413,5.909,5.493,6.907,8.322,8.821s9.987,2.747,16.644,2.665S61.2,79.08,63.779,77.083s2.913-5.492,1.082-7.158-4.91-2.363-5.41-3.469-.166-.775,1.5-3.77,2.582-6.576-.665-9.405-5.826-3.911-5.826-8.989-4.326-11.485-7.573-13.481-6.575.914-6.575.914" transform="translate(-2.24 -3.597)" fill="#85402b"/>
          <path id="Trazado_136298" data-name="Trazado 136298" d="M50.209,80.656c-.913,2.208-4.245,5.078-8.155,3.33s-4.66-5.907-4.494-6.326,2.662-.829,3-1.163c.216-.217-.09-2.193-.495-4.04-.15-.7-.314-1.389-.469-1.948a9.609,9.609,0,0,0,4.459.659A10.535,10.535,0,0,0,48.5,69.785c-.07.544-.15,1.175-.225,1.818a20.671,20.671,0,0,0-.24,3.895c.24.915,2.428.833,2.761,1s-.185,3.2-.584,4.159" transform="translate(-4.484 -8.337)" fill="#f0875e"/>
          <path id="Trazado_136299" data-name="Trazado 136299" d="M53.562,47.885a14.178,14.178,0,0,1-10.991-7.906S40,44.973,36.416,46.47s-4.909,1.415-4.909,1.415c-.334,1.582.832,11.485,3.329,15.4a9.119,9.119,0,0,0,4.028,3.665,9.611,9.611,0,0,0,4.46.662,10.48,10.48,0,0,0,4.443-1.386,8.05,8.05,0,0,0,3.63-3.94c1.249-3.247,2.746-10.9,2.164-14.4" transform="translate(-3.757 -4.776)" fill="#f0875e"/>
          <path id="Trazado_136300" data-name="Trazado 136300" d="M16.282,164.319a.119.119,0,0,1-.036-.005l-8.989-1.746a.191.191,0,0,1-.12-.08.2.2,0,0,1-.029-.142l2.913-14.4a.193.193,0,0,1,.089-.123.187.187,0,0,1,.149-.018c.08.024,8.076,2.412,9.217,2.617a.18.18,0,0,1,.124.081.186.186,0,0,1,.026.146l-3.164,13.523a.186.186,0,0,1-.181.145m-8.768-2.083,8.627,1.677,3.077-13.162c-1.516-.339-7.66-2.166-8.869-2.527Z" transform="translate(-0.849 -17.656)" fill="#1f1f1e"/>
          <path id="Trazado_136301" data-name="Trazado 136301" d="M34.1,51.3c-.537.058,1.383-1,2.664-1.165,2-.255,3.411.476,3.2,1.165-.137.455-3.533-.253-5.867,0" transform="translate(-4.063 -5.983)" fill="#85402b"/>
          <path id="Trazado_136302" data-name="Trazado 136302" d="M52.6,50.74c.011-.123-1.061-.981-3.064-.883s-3.225.812-2.726,1.457c.44.567,1.764-.442,2.948-.589a15.982,15.982,0,0,1,2.842.015" transform="translate(-5.579 -5.955)" fill="#85402b"/>
          <path id="Trazado_136303" data-name="Trazado 136303" d="M26.994,145.5c-.065,8.009-.51,24.608-2.867,32.448h-.389c2.382-7.756,2.817-24.553,2.886-32.553.13.041.255.075.371.1" transform="translate(-2.836 -17.369)" fill="#1f1f1e"/>
          <path id="Trazado_136304" data-name="Trazado 136304" d="M28.695,145.859c.045.652.069,1.02.069,1.02s1.239-.309,3.207-.745c0,0-1.313-.1-3.276-.275" transform="translate(-3.428 -17.424)" fill="#589457"/>
          <path id="Trazado_136305" data-name="Trazado 136305" d="M78.871,116.979C78.5,111.487,70.257,86.395,68.634,83.4s-5.5-3.624-11.859-4.743c-7.366-1.294-9.862-1.249-9.862-1.249.334.165-.185,3.2-.584,4.159-.914,2.208-4.245,5.078-8.155,3.33s-4.66-5.907-4.494-6.325A25.869,25.869,0,0,0,29.966,79.7c-1.619.579-3.5,1.308-5.234,2.017a43.3,43.3,0,0,0-5.284,2.432c-3.37,2.247-9.363,20.473-10.86,25.467s-3.872,15.729-3.5,18.1c.165,1.053,2.218,4.26,4.943,7.821,3.4,4.444,7.851,9.453,11,11.53l4.324-6.077s-.729-1.474-1.743-3.521c-2.153-4.354-5.573-11.314-5.911-12.248-.5-1.373,5.272-15.23,5.771-15.6.26-.2.929,7.87,1.508,15.559.394,5.289.75,10.393.889,12.509,1.962.176,3.275.275,3.275.275,4.664-1.034,13.443-2.786,19.765-2.875a53.5,53.5,0,0,1,17.1,2.871l.208,4.7,1.689.121,6.383.46s4.952-20.762,4.578-26.257M66.263,129.09l-6.991-20.974c1.124-.374,1.374-4.12,1.758-3.62s5.608,13.607,5.858,15.1-.624,8.364-.624,9.489" transform="translate(-0.604 -9.247)" fill="#4c5346"/>
          <path id="Trazado_136306" data-name="Trazado 136306" d="M31.767,138.268l-4.772,1.044c-.011-.129.372-6.471.608-13.828.465-14.331.949-36.477-.249-43.458,1.732-.709,3.615-1.438,5.234-2.017.524,7.775,2.515,41.367-.821,58.259" transform="translate(-3.225 -9.558)" fill="#5b2d24"/>
          <path id="Trazado_136307" data-name="Trazado 136307" d="M40.776,61.9a.2.2,0,0,1-.135-.057.181.181,0,0,1-.05-.158l1.081-7.366a.188.188,0,1,1,.372.055L41,61.478a3.845,3.845,0,0,0,1.434-.6.187.187,0,1,1,.225.3A4.4,4.4,0,0,1,40.8,61.9h-.023" transform="translate(-4.849 -6.469)" fill="#1f1f1e"/>
          <path id="Trazado_136308" data-name="Trazado 136308" d="M42.751,66.191a3.1,3.1,0,0,1-2.111-.8.187.187,0,0,1,.005-.264.188.188,0,0,1,.265.005c.062.064,1.542,1.548,3.98-.027a.187.187,0,1,1,.2.314,4.31,4.31,0,0,1-2.342.774" transform="translate(-4.849 -7.774)" fill="#1f1f1e"/>
          <path id="Trazado_136309" data-name="Trazado 136309" d="M48.776,69.785c-.07.544-.151,1.174-.225,1.817A8.334,8.334,0,0,1,44.5,73.252a7.087,7.087,0,0,1-4.161-.8c-.149-.7-.313-1.388-.469-1.947a9.634,9.634,0,0,0,4.46.659,10.535,10.535,0,0,0,4.445-1.383" transform="translate(-4.763 -8.337)" fill="#bb4a36"/>
          <path id="Trazado_136310" data-name="Trazado 136310" d="M37.97,55.1c0,.759-.267,1.375-.593,1.375s-.593-.615-.593-1.375.266-1.372.593-1.372.593.614.593,1.372" transform="translate(-4.394 -6.419)" fill="#1f1f1e"/>
          <path id="Trazado_136311" data-name="Trazado 136311" d="M49.257,55.1c0,.759-.331,1.375-.743,1.375s-.741-.615-.741-1.375.331-1.372.741-1.372.743.614.743,1.372" transform="translate(-5.707 -6.419)" fill="#1f1f1e"/>
          <path id="Trazado_136312" data-name="Trazado 136312" d="M62.964,113.595a.187.187,0,0,1-.087-.353c7.031-3.638,4.88-13.508,4.857-13.608a.187.187,0,0,1,.365-.084c.024.1,2.237,10.257-5.049,14.024a.2.2,0,0,1-.085.02" transform="translate(-7.499 -11.875)" fill="#1f1f1e"/>
          <path id="Trazado_136313" data-name="Trazado 136313" d="M54.45,142.882v.03l-2.333,14.73a.186.186,0,0,1-.115.145.146.146,0,0,1-.069.015.205.205,0,0,1-.116-.04,5.858,5.858,0,0,1-1.727-2.871c-.38-1.274-.24-5.24.419-11.8.126-.015.256-.025.38-.034-.663,6.55-.813,10.5-.439,11.729a6.1,6.1,0,0,0,1.353,2.447l2.273-14.347.005-.034a.186.186,0,0,1,.369.03" transform="translate(-5.959 -17.046)" fill="#1f1f1e"/>
          <path id="Trazado_136314" data-name="Trazado 136314" d="M37.206,144.988c-.775,2.706-2.677,8.869-6.673,9.007h0a.183.183,0,0,1-.186-.178.188.188,0,0,1,.181-.2c3.625-.126,5.521-5.982,6.267-8.554.134-.026.274-.055.414-.079" transform="translate(-3.625 -17.32)" fill="#1f1f1e"/>
          <path id="Trazado_136315" data-name="Trazado 136315" d="M75.683,155.8a.19.19,0,0,1-.185.169s-.016-.005-.021-.005c-2.721-.279-5.148-2.606-7.014-6.726a32.218,32.218,0,0,1-1.779-5.134c.141.03.28.054.421.085.793,3.035,3.33,10.886,8.413,11.4a.189.189,0,0,1,.166.206" transform="translate(-7.966 -17.215)" fill="#1f1f1e"/>
          <path id="Trazado_136316" data-name="Trazado 136316" d="M11.459,163.889l-.832,5.077,2,.582.75-5.243Z" transform="translate(-1.269 -19.578)" fill="#1f1f1e"/>
          <path id="Trazado_136317" data-name="Trazado 136317" d="M40.34,221.618c-1.08,0-2.5-2.019-2.673-2.261a.188.188,0,0,1,.309-.213c.615.891,1.823,2.25,2.465,2.09a.187.187,0,1,1,.091.362.827.827,0,0,1-.191.023" transform="translate(-4.496 -26.17)" fill="#1f1f1e"/>
          <path id="Trazado_136318" data-name="Trazado 136318" d="M84.9,220.112a1.253,1.253,0,0,1-.759-.242,2.38,2.38,0,0,1-.756-1.55.186.186,0,0,1,.17-.2.181.181,0,0,1,.2.169,2.034,2.034,0,0,0,.6,1.28.973.973,0,0,0,.831.135.188.188,0,0,1,.082.366,1.774,1.774,0,0,1-.377.043" transform="translate(-9.961 -26.057)" fill="#1f1f1e"/>
          <path id="Trazado_136319" data-name="Trazado 136319" d="M74.46,149.229a.186.186,0,0,1-.188-.178l-.208-4.7a102.342,102.342,0,0,1,.614-13.052l.026-.261a.183.183,0,0,1,.2-.167.186.186,0,0,1,.168.2l-.024.261a101.612,101.612,0,0,0-.615,13l.21,4.7a.188.188,0,0,1-.181.2Z" transform="translate(-8.843 -15.633)" fill="#1f1f1e"/>
          <path id="Trazado_136320" data-name="Trazado 136320" d="M36.347,158.353a.177.177,0,0,1-.16,0,3.566,3.566,0,0,1-1.008-1.383s-.005-.009-.011-.019c-.2-.38-.343-.714-.393-.815.129.375,1.378,3.981.822,4.3a.254.254,0,0,1-.258-.015.912.912,0,0,1-.226-.17,1.582,1.582,0,0,1-.119-.129,10.14,10.14,0,0,1-1.168-1.972c0-.006,0-.011-.009-.016.063.166.2.5.353.91a.036.036,0,0,1,.01.026c.405,1.048.9,2.516.585,2.635-.24.09-.685-.384-1.088-.909-.385-.5-.734-1.05-.809-1.168a6.082,6.082,0,0,1,.529,1.443c.046.279.025.514-.13.614-.5.335-4.824-3.91-4.824-3.91a2.671,2.671,0,0,1-2.082.5c-1.163-.249-3.161-2.581-3.161-2.581l4.325-6.077c1,0,1.831,2.417,1.831,2.417,2.413-1.747,5.329-2.5,6.077-1.248s1.413,7.32.915,7.569" transform="translate(-2.771 -17.873)" fill="#f0875e"/>
          <path id="Trazado_136321" data-name="Trazado 136321" d="M37.613,158.882c-.3-.12-.7-.8-1-1.383,0,0-.005-.009-.011-.019-.458-1.048-.983-2.222-1.407-3.181a.184.184,0,0,1,.1-.245.187.187,0,0,1,.249.1c.74,1.641,1.558,3.5,2.078,4.733" transform="translate(-4.202 -18.401)" fill="#1f1f1e"/>
          <path id="Trazado_136322" data-name="Trazado 136322" d="M34.976,158.772c.026.059.2.48.4,1.014-.968-1.787-1.9-3.481-2.036-3.635a.192.192,0,0,1,.009-.264.186.186,0,0,1,.26,0c.21.214,2.027,3.573,2.937,5.277-.615-.314-1.508-2.257-1.568-2.392" transform="translate(-3.977 -18.616)" fill="#1f1f1e"/>
          <path id="Trazado_136323" data-name="Trazado 136323" d="M33.95,160.564a6.028,6.028,0,0,1,.529,1.443l-2.187-4.285a.185.185,0,0,1,.085-.249.188.188,0,0,1,.25.079l2.127,4.176c-.384-.5-.728-1.045-.8-1.164" transform="translate(-3.855 -18.81)" fill="#1f1f1e"/>
          <path id="Trazado_136324" data-name="Trazado 136324" d="M73.315,156.668s-4.243-1.8-4.659-.775S72.4,159,72.4,159s-3,6.074-2.5,6.658,3.411-3.716,3.411-3.716-2.858,5.38-2.343,5.963,3.509-3.579,3.509-3.579-2.163,3.5-1.748,4,2.913-2.663,2.913-2.663-1.5,2.022-1.082,2.716,3.413-2.633,4.079-3.963a15.624,15.624,0,0,0,.915-4.161s1.749-5.411,2.33-8.157l-8.071-.581Z" transform="translate(-8.198 -18.099)" fill="#f0875e"/>
          <path id="Trazado_136325" data-name="Trazado 136325" d="M180.181,29.85c-.261-5.362-3.3-8.6-5.812-9.558s-1.561-2.775-2.333-5.638S168,10.17,165.522,11.619c-4.646,2.711-6.943,1.88-9.281,1.214-2.516-.716-4.4.262-5.119,2.689-.451,1.534-.464,1.964-2.458,3.787s-4.454.04-6.015,4.2c-.736,1.963,1.643,3.7.148,7.135a7.343,7.343,0,0,0,.259,6.819c.868,1.128,1.3,2.689,1.042,5.29a6.588,6.588,0,0,0,3.643,6.419c2.237,1.234,5.838-.48,7.832-2.523-1.669-1.379-4.877-4.44-5.576-8.059-.954-4.946.782-12.145,1.648-13.185a15.951,15.951,0,0,0,4.943-.173,24.786,24.786,0,0,0,7.721-3.123c2-1.213,3.556.174,5.638,3.3s2.429,6.072,1.821,11.276-4.684,9.107-4.684,9.107-.533,1.078-1.124,2.347c.778-.27,1.575-.517,2.338-.7,3.3-.78,5.2,0,7.374-1.042s1.908-3.382,1.648-5.117-.867-2.342.433-3.556,2.689-2.517,2.429-7.878" transform="translate(-16.975 -1.324)" fill="#85402b"/>
          <path id="Trazado_136326" data-name="Trazado 136326" d="M166.452,281.641a3.907,3.907,0,0,1-2.517.262s.347,1.561-.416,2-.97.173-2.966-.26-3.123-1.13-3.3-1.736a1.425,1.425,0,0,1,.033-.471,6.99,6.99,0,0,0,1.1,5.112c1.086,1.648,2,2.168,2.864,2.038s2.272-2.817,2.272-2.817.483,1.282,1.3,1.18c1.3-.163,2.406-2.96,2.8-3.959a9.376,9.376,0,0,0,.592-3.972,3.115,3.115,0,0,1-1.762,2.628" transform="translate(-18.773 -33.331)" fill="#542b22"/>
          <path id="Trazado_136327" data-name="Trazado 136327" d="M169.718,278.748s0,.088,0,.233a2.293,2.293,0,0,0,0-.233" transform="translate(-20.274 -33.299)" fill="#ec875f"/>
          <path id="Trazado_136328" data-name="Trazado 136328" d="M167.9,276.689v.234a3.094,3.094,0,0,1-1.767,2.622,4.1,4.1,0,0,1-2.259.328c-.164-.035-.258-.058-.258-.058a3.772,3.772,0,0,1,.07,1.03,1.17,1.17,0,0,1-.491.96c-.762.433-.961.175-2.962-.258s-3.114-1.124-3.3-1.732a2.061,2.061,0,0,1,.035-.48c.281-1.545,1.767-6.064,1.616-6.9-.141-.8-2.635-6.708-3.711-9.775-.152-.468-.292-.866-.374-1.17,2.528.1,4.964.21,7.094.3h.4c.41.024.82.035,1.206.059,1.334.047,2.868.082,4.518.082-.1.234-.234.562-.4.96-.714,1.756-1.791,4.741-1.615,6.158a30.32,30.32,0,0,0,1.99,6.684,2.606,2.606,0,0,1,.21.948" transform="translate(-18.457 -31.238)" fill="#ec875f"/>
          <path id="Trazado_136329" data-name="Trazado 136329" d="M192.965,203.826c-.13-9.758-1.951-29.8-4.164-40.984s-9.663-30.274-12.182-35.3c0,0-4.341,2.169-16.382,2.776s-17.017-1.909-17.017-1.909c-1.041,2.254-7.773,20.583-9.454,34.263-7.287,59.242-2.6,81.883-2.6,81.883s10.787.515,20.377.937c3.175.138,6.22.267,8.7.365,1.327.053,2.859.076,4.515.078,10.758.019,26.781-.86,26.781-.86s1.562-31.486,1.432-41.244" transform="translate(-15.492 -15.236)" fill="#5b2d24"/>
          <path id="Trazado_136330" data-name="Trazado 136330" d="M169.4,59.292a5.963,5.963,0,0,1-1.155-.526c.317.145.7.317,1.155.526" transform="translate(-20.099 -7.02)" fill="#005692"/>
          <path id="Trazado_136331" data-name="Trazado 136331" d="M186.586,109.881c-2.94,1.484-7.826,1.883-9.758,1.984-.516.026-.822.036-.822.036s-.187.457-.388,1.072a6.469,6.469,0,0,0-.479,2.748c.062.254.171.6.3.978.042.119.088.244.13.374.276.766.593,1.577.761,2,.071.183.114.294.114.294s-.285.139-.917.369c-.015.005-.036.01-.05.015a39.233,39.233,0,0,1-7,1.588s-.005,0-.005,0c-2.242.338-5.023.63-8.41.8-12.039.608-17.013-1.911-17.013-1.911l.067-.177.547-1.405.145-.37.3-.779.321-.823c-6.849,1.3-11.1-.349-12.49-2.69s-3.727-9.192-3.727-15.89.781-18.46,4.6-25.918,9.456-9.455,13.1-10.237a45.987,45.987,0,0,0,8.827-2.846S158.8,75.2,159.361,76.12c0,0,1.463-3.686,2.421-6.719s2.867-10.061,2.867-10.061c2.534,1.136,6.969,3.044,11.095,4.419,6.247,2.082,8.849,3.991,10.321,6.162s4.685,11.1,5.2,19.257-.952,18.819-4.684,20.7" transform="translate(-15.316 -7.059)" fill="#92bab4"/>
          <path id="Trazado_136332" data-name="Trazado 136332" d="M172.8,38.124c-.608,5.2-4.684,9.107-4.684,9.107s-.063.129-.177.348c-.192.4-.536,1.113-.91,1.915a.448.448,0,0,1-.038.085,22.993,22.993,0,0,0-1.575,3.9c-.036.417.321.764.739,1.03a5.918,5.918,0,0,0,1.187.535s-1.915,7.021-2.868,10.061-2.421,6.719-2.421,6.719c-.563-.917-4.627-17.029-4.627-17.029a.049.049,0,0,0,.016-.011,3.543,3.543,0,0,0,1.24-1.181c.4-.615.031-1.984-.369-3.092-.335-.9-.695-1.629-.695-1.629s-.4-.275-1-.78a.018.018,0,0,0-.011-.006c-1.671-1.383-4.877-4.44-5.58-8.06-.951-4.946.782-12.143,1.651-13.183a16.039,16.039,0,0,0,4.942-.178,24.7,24.7,0,0,0,7.72-3.123c2-1.212,3.56.178,5.642,3.3s2.426,6.067,1.821,11.273" transform="translate(-18.008 -2.761)" fill="#ec875f"/>
          <path id="Trazado_136333" data-name="Trazado 136333" d="M155.758,59.611c-1.392,2.414-9.027,14.211-9.027,14.211s4.684-3.035,8.241-2.775,6.6,5.075,6.6,5.075l-4.627-17.031Z" transform="translate(-17.529 -7.059)" fill="#5b2d24"/>
          <path id="Trazado_136334" data-name="Trazado 136334" d="M168.876,59.375,163.59,76.156s2.763-5.421,7.36-6.116,7.025,1.474,7.025,1.474l-7.588-11.407Z" transform="translate(-19.543 -7.093)" fill="#5b2d24"/>
          <path id="Trazado_136335" data-name="Trazado 136335" d="M153,30.184a7.328,7.328,0,0,1,3.513-1.3c1.756-.066,2.665.844,2.342,1.3s-3.384-1.107-5.856,0" transform="translate(-18.264 -3.45)" fill="#85402b"/>
          <path id="Trazado_136336" data-name="Trazado 136336" d="M172.212,29.568a5.512,5.512,0,0,0-3.513-.695c-2.082.263-2.311,1.019-1.692,1.389.475.284,2.6-.655,5.2-.695" transform="translate(-19.915 -3.444)" fill="#85402b"/>
          <path id="Trazado_136337" data-name="Trazado 136337" d="M159.8,42.059c-.2,0-.235-.077-.266-.14-.2-.4,1.179-8.34,1.419-9.058a.2.2,0,0,1,.248-.124.192.192,0,0,1,.121.248c-.328.985-1.377,7.669-1.426,8.686a15.251,15.251,0,0,0,2.464-.928.2.2,0,0,1,.161.357,9.028,9.028,0,0,1-2.721.959m.1-.279h0Z" transform="translate(-19.056 -3.91)" fill="#1f1f1e"/>
          <path id="Trazado_136338" data-name="Trazado 136338" d="M161.777,48.618a4.36,4.36,0,0,1-2.559-.77.194.194,0,0,1-.034-.273.2.2,0,0,1,.275-.034,4.56,4.56,0,0,0,4.927-.018.194.194,0,1,1,.184.343,5.905,5.905,0,0,1-2.793.752" transform="translate(-19.011 -5.674)" fill="#1f1f1e"/>
          <path id="Trazado_136339" data-name="Trazado 136339" d="M157.7,34.769c0,1.006-.311,1.82-.693,1.82s-.694-.814-.694-1.82.31-1.82.694-1.82.693.815.693,1.82" transform="translate(-18.673 -3.936)" fill="#1f1f1e"/>
          <path id="Trazado_136340" data-name="Trazado 136340" d="M169.318,34.769c0,1.006-.276,1.82-.617,1.82s-.618-.814-.618-1.82.276-1.82.618-1.82.617.815.617,1.82" transform="translate(-20.079 -3.936)" fill="#1f1f1e"/>
          <path id="Trazado_136341" data-name="Trazado 136341" d="M168.736,50.9c-.192.4-.536,1.113-.91,1.915a10.8,10.8,0,0,1-5.122,2.05,6.231,6.231,0,0,1-3.6-1.036c-.334-.9-.694-1.629-.694-1.629s-.4-.275-1-.78a17.169,17.169,0,0,0,6.136,1.884c1.629.1,3.654-1.181,5.188-2.4" transform="translate(-18.805 -6.08)" fill="#bb4a36"/>
          <path id="Trazado_136342" data-name="Trazado 136342" d="M146.353,99.434a.187.187,0,0,1-.085-.02c-7.6-3.733-5.011-15.005-4.984-15.119a.195.195,0,1,1,.379.092c-.026.11-2.542,11.082,4.777,14.677a.2.2,0,0,1-.086.371" transform="translate(-16.824 -10.052)" fill="#1f1f1e"/>
          <path id="Trazado_136343" data-name="Trazado 136343" d="M145.025,105.185a.2.2,0,0,1-.192-.173l-.661-5.675a.2.2,0,0,1,.172-.217.2.2,0,0,1,.217.173l.66,5.675a.2.2,0,0,1-.173.216.1.1,0,0,1-.023,0" transform="translate(-17.223 -11.841)" fill="#1f1f1e"/>
          <path id="Trazado_136344" data-name="Trazado 136344" d="M185.344,94.04a.132.132,0,0,1-.04-.005.192.192,0,0,1-.149-.232c.01-.047,1.04-4.757,1.232-6.674a.19.19,0,0,1,.214-.176.194.194,0,0,1,.174.214c-.194,1.94-1.2,6.526-1.24,6.72a.194.194,0,0,1-.191.152" transform="translate(-22.118 -10.387)" fill="#1f1f1e"/>
          <path id="Trazado_136345" data-name="Trazado 136345" d="M178.444,118.745a82.214,82.214,0,0,1-22.935-3.658.195.195,0,0,1,.122-.37,81.446,81.446,0,0,0,23.617,3.633h0a.2.2,0,0,1,0,.39c-.269,0-.54,0-.808,0" transform="translate(-18.561 -13.703)" fill="#1f1f1e"/>
          <path id="Trazado_136346" data-name="Trazado 136346" d="M142.773,124.184a.2.2,0,0,1-.014-.39c9.829-.733,18.023-6.913,18.1-6.975a.2.2,0,0,1,.274.037.2.2,0,0,1-.036.274c-.083.063-8.363,6.311-18.313,7.053h-.015" transform="translate(-17.032 -13.951)" fill="#1f1f1e"/>
          <path id="Trazado_136347" data-name="Trazado 136347" d="M177.664,124.888a47.133,47.133,0,0,1-15.769,3q-.987.024-1.926.025a66.461,66.461,0,0,1-14.214-1.456l.145-.371a66.8,66.8,0,0,0,15.982,1.411,46.218,46.218,0,0,0,15.651-2.987c.042.119.088.244.13.374" transform="translate(-17.412 -14.875)" fill="#1f1f1e"/>
          <path id="Trazado_136348" data-name="Trazado 136348" d="M178.428,127.5s-.286.139-.917.369c-.015.005-.037.01-.05.016a57.75,57.75,0,0,1-7,1.588s-.006,0-.006,0c-2.356.4-5.156.76-8.394.995-1.665.119-3.189.17-4.586.17-8.722,0-12.365-2-12.542-2.1a.2.2,0,0,1-.073-.265.189.189,0,0,1,.24-.082c.011,0,.015,0,.026.009.053.026,5,2.732,16.909,1.885a68.736,68.736,0,0,0,16.279-2.874c.072.182.114.293.114.293" transform="translate(-17.302 -15.196)" fill="#1f1f1e"/>
          <path id="Trazado_136349" data-name="Trazado 136349" d="M161.776,130.637a.2.2,0,0,1-.2-.194v-2.311a.2.2,0,1,1,.39,0v2.311a.194.194,0,0,1-.195.194" transform="translate(-19.303 -15.283)" fill="#1f1f1e"/>
          <path id="Trazado_136350" data-name="Trazado 136350" d="M166.225,130.469a.194.194,0,0,1-.188-.141l-.606-2.142a.2.2,0,0,1,.375-.107l.608,2.143a.2.2,0,0,1-.135.24.231.231,0,0,1-.054.007" transform="translate(-19.762 -15.283)" fill="#1f1f1e"/>
          <path id="Trazado_136351" data-name="Trazado 136351" d="M164.57,279.856a3.772,3.772,0,0,1,.07,1.03c-.188-.866-.422-1.92-.679-3.009-.527-2.295-1.077-4.659-1.229-6.052a75.39,75.39,0,0,1-.188-9.985h.4a76.8,76.8,0,0,0,.176,9.939c.152,1.369.714,3.839,1.217,6.005.176.749.34,1.463.491,2.13-.163-.034-.257-.058-.257-.058" transform="translate(-19.408 -31.28)" fill="#1f1f1e"/>
          <path id="Trazado_136352" data-name="Trazado 136352" d="M167.717,261.933c-.1.238-.239.572-.4.962-4.616,1.28-10.111.3-12.443-.236-.156-.462-.286-.862-.369-1.17,3.173.136,6.218.268,8.7.365,1.332.053,2.862.079,4.517.079" transform="translate(-18.457 -31.238)" fill="#bb4a36"/>
          <path id="Trazado_136353" data-name="Trazado 136353" d="M172,102.248s6.342-4.37,9.239-5.872c2.971-1.54,5.423-1.583,5.595-.975s-5.508,3.013-5.508,3.013,5.465-2.364,6.419-1.323-4.51,2.8-4.51,2.8,4.6-.759,4.771-.066-.556,2.021-5.031,2.407c-3.943.342-10.975.018-10.975.018" transform="translate(-20.547 -11.353)" fill="#ec875f"/>
          <path id="Trazado_136354" data-name="Trazado 136354" d="M152.024,105.445a.2.2,0,0,1-.024-.389c.109-.014,11.053-1.389,16.007-1.928a54.016,54.016,0,0,1,9.983-.023.2.2,0,0,1,.173.217.2.2,0,0,1-.215.173,53.284,53.284,0,0,0-9.9.022c-4.95.538-15.889,1.913-16,1.926a.1.1,0,0,1-.024,0" transform="translate(-18.138 -12.29)" fill="#1f1f1e"/>
          <path id="Trazado_136355" data-name="Trazado 136355" d="M161.423,116.974a16.627,16.627,0,0,1-6.94,5.721,18.35,18.35,0,0,1-8.217,1.692l.321-.823c10.587-1.821,13.917-6.792,13.917-6.792Z" transform="translate(-17.473 -13.95)" fill="#1f1f1e"/>
          <path id="Trazado_136356" data-name="Trazado 136356" d="M180.964,118.782c-.516.026-.822.036-.822.036s-.186.457-.388,1.072a51.458,51.458,0,0,1-7.33-.292,35.19,35.19,0,0,1-9.586-2.295l.567-.3s5.157,1.037,7.891,1.343,9.668.439,9.668.439" transform="translate(-19.453 -13.977)" fill="#1f1f1e"/>
          <path id="Trazado_136357" data-name="Trazado 136357" d="M150.22,105.536a14.451,14.451,0,0,0-7.458.608c-2.517.954-6.507,3.99-5.986,4.857s3.99-1.128,3.99-1.128-3.557,2.255-3.123,2.949,4.684-1.213,4.684-1.213-3.122,1.561-2.6,2.254,5.03,0,5.03,0-3.644.261-3.209,1.042,4.423.521,7.113,0,4.684-1.127,4.684-1.127Z" transform="translate(-16.334 -12.578)" fill="#ec875f"/>
        </g>
      </g>
    </g>
  </g>
</svg>
