<svg xmlns="http://www.w3.org/2000/svg" xmlns:xlink="http://www.w3.org/1999/xlink" width="218" height="214" viewBox="0 0 218 214">
  <defs>
    <clipPath id="clip-path">
      <rect id="Rect치ngulo_38037" data-name="Rect치ngulo 38037" width="182.296" height="182.404" fill="none"/>
    </clipPath>
  </defs>
  <g id="_13" data-name="13" transform="translate(-352 -4592)">
    <g id="Grupo_158809" data-name="Grupo 158809" transform="translate(39.229 1953)">
      <rect id="Rect치ngulo_36141" data-name="Rect치ngulo 36141" width="218" height="214" transform="translate(312.771 2639)" fill="#e1e8ff"/>
    </g>
    <g id="Grupo_158814" data-name="Grupo 158814" transform="translate(370 4608)">
      <g id="Grupo_158813" data-name="Grupo 158813" clip-path="url(#clip-path)">
        <path id="Trazado_134926" data-name="Trazado 134926" d="M182.056,5.171V177.188c-.3.343-.184.789-.269,1.182-.543,2.527-1,2.982-3.524,3.525-.393.084-.84-.036-1.183.269H101.733c-.246-.881.492-1.091,1-1.417,2.547-1.625,3.557-3.6,3.012-5.965-.6-2.6-2.457-4.056-5.5-4.308-3.5-.753-7.048-.568-10.583-.567-1.334,0-2.173-.45-2.205-1.9q-.174-7.877,0-15.753a3.269,3.269,0,0,1,.383-1.352c.741-1.08,1.9-.817,2.919-.824,7.45-.049,14.9-.017,22.349-.025,3.962,0,7.924.072,11.884-.027,6.289-.158,10.966-3.911,12-9.566.319-1.751.092-3.542.274-5.308-.127-1.358-.116-2.719-.116-4.08q0-37.2-.011-74.391a11.274,11.274,0,0,0-9.41-11.446,37.849,37.849,0,0,0-5.142-.136,48.779,48.779,0,0,1-7.088-.233c-8.125-.266-16.25-.031-24.374-.134-1.151-.014-2.372.237-3.417-.534a4.13,4.13,0,0,1-.655-2.7q-.041-17.306,0-34.612a7.754,7.754,0,0,1,.539-2.947c.865-2.126,2.25-3.569,4.688-3.765C93.038.112,93.8.015,94.568.015q40.38,0,80.762,0a6.991,6.991,0,0,1,1.064.008c3.294.511,4.779.129,5.662,5.145" fill="#28567f"/>
        <path id="Trazado_134927" data-name="Trazado 134927" d="M36.338,182.164c-.677-.349-1.386-.649-2.026-1.056a6.173,6.173,0,0,1-2.615-6.792,5.966,5.966,0,0,1,5.618-4.61c4.253-.091,8.508-.024,12.763-.025q.291-.2.6-.378a5.509,5.509,0,0,1,2.6-.41c10.688-.015,21.394-.368,32.057.149,5.215.253,10.441.263,15.652.6,3.238.553,5.4,2.616,5.713,5.446.334,3.041-1.248,5.507-4.332,6.762-.217.088-.42.21-.63.317Z" fill="#83b4ca"/>
        <path id="Trazado_134928" data-name="Trazado 134928" d="M177.08,182.164a7.6,7.6,0,0,0,4.976-4.976c0,1.659.647,3.965-.182,4.794s-3.135.182-4.794.182" fill="#f9fafb"/>
        <path id="Trazado_134929" data-name="Trazado 134929" d="M.15,119.271c-.021-4.2-.059-8.405-.061-12.608C.082,90.2.248,73.74,0,57.283A13.03,13.03,0,0,1,13.293,43.99q27.977.036,55.955,0c6.215,0,12.431-.046,18.646-.07q12.732.03,25.464.065a4.5,4.5,0,0,1,2.256.247c.968.805.835,1.924.752,2.966a80.855,80.855,0,0,1-3.672,19.654A62.143,62.143,0,0,1,96.615,92.245a80.666,80.666,0,0,1-22.963,15.223c-13.144,5.887-26.977,9.092-41.2,10.868-5.632.7-11.284,1.1-16.948,1.472-4.323.282-8.632.173-12.946.25-.875.015-1.81.093-2.411-.787" fill="#3b96d2"/>
        <path id="Trazado_134930" data-name="Trazado 134930" d="M.15,119.271c6.152-.039,12.306.084,18.45-.373,14.421-1.072,28.681-3.1,42.5-7.5,11.37-3.624,21.98-8.755,31.223-16.437A62.82,62.82,0,0,0,109.388,72.8a71.555,71.555,0,0,0,5.77-21.319c.306-2.4.313-4.832.456-7.25,3.608,0,7.216-.034,10.823.025,6.065.1,11.531,5.441,11.541,11.48q.067,39.744.013,79.487c-.772,1.007-1.9.84-2.944.847-6.336.038-12.673.015-19.01.017-7.225,0-14.453.143-21.674-.024-30.254-.7-60.511-.139-90.766-.35-1.195-.008-2.534.333-3.471-.842l.024-15.6" fill="#297fb9"/>
        <path id="Trazado_134931" data-name="Trazado 134931" d="M.127,134.874c.888.019,1.776.054,2.663.054,27.366,0,54.735-.24,82.1.09,17.7.213,35.4.066,53.1.209.185,2.664.3,5.341-.836,7.842-2.342,5.163-6.471,7.71-12.066,7.741-11.462.065-22.925.021-34.388.027-.826,0-1.652.047-2.477.073-.853,1.012-2.042.8-3.135.8-9.625.031-19.25.013-28.875.016-4.818,0-4.816,0-4.82,4.9,0,3.484.025,6.968-.017,10.451-.012.933.076,1.918-.768,2.617l-.531-.02c.029-5.852.031-11.705.107-17.556.016-1.229-.625-1.3-1.553-1.3-4.258.02-8.515.008-12.772.008-7.214,0-14.434-.193-21.64.049-8.652.292-14.787-6.053-14.138-14.236.047-.587.031-1.18.045-1.771" fill="#83b4ca"/>
        <path id="Trazado_134932" data-name="Trazado 134932" d="M134.941,28.3q-15.27,0-30.539,0c-2.8,0-3.4-.528-3.845-3.255a20.346,20.346,0,0,1,.046-6.351c.278-1.875,1.442-2.6,3.117-2.823a12.48,12.48,0,0,1,1.6-.027q29.652,0,59.3,0c4.054,0,4.987.947,4.991,5.05,0,1.183.028,2.368-.01,3.55-.086,2.694-1.267,3.853-3.942,3.856q-15.358.012-30.716,0" fill="#2c3e50"/>
        <path id="Trazado_134933" data-name="Trazado 134933" d="M50.609,169.7c-.3-5.842-.053-11.688-.134-17.532-.02-1.492,1.021-1.317,1.958-1.317q13.025-.008,26.047,0c3.249,0,6.5.038,9.744.059,0,5.488.046,10.977-.03,16.464-.02,1.551.48,2.086,2.034,2.032,2.888-.1,5.781-.034,8.673-.023a4.085,4.085,0,0,1,2.081.256c-4.255.017-8.512.046-12.767.049q-18.8.015-37.606.013" fill="#547580"/>
        <path id="Trazado_134934" data-name="Trazado 134934" d="M153.921,75.413a6.282,6.282,0,0,1,6.35-6.224,6.463,6.463,0,0,1,6.122,6.362,6.262,6.262,0,0,1-6.457,6.1,5.907,5.907,0,0,1-6.015-6.241" fill="#4fb96f"/>
        <path id="Trazado_134935" data-name="Trazado 134935" d="M153.867,50.469a6.118,6.118,0,0,1,6.071-6.3,6.249,6.249,0,0,1,6.437,6.155,6.342,6.342,0,0,1-6.3,6.347,6.238,6.238,0,0,1-6.212-6.2" fill="#fa7a76"/>
        <path id="Trazado_134936" data-name="Trazado 134936" d="M147.566,166.613c0,.943.053,1.89-.011,2.829-.14,2.051-1.221,3.115-3.1,3.135a3.131,3.131,0,0,1-3.228-3.058,55.984,55.984,0,0,1,.019-6.186,3.136,3.136,0,0,1,3.188-3.143,3.2,3.2,0,0,1,3.1,3.241c.083,1.055.015,2.121.015,3.182h.01" fill="#2c3e50"/>
        <path id="Trazado_134937" data-name="Trazado 134937" d="M128.759,166.454c0-1.066-.055-2.134.01-3.2a3.088,3.088,0,0,1,2.923-3.03,2.863,2.863,0,0,1,3.118,2.352,18.078,18.078,0,0,1-.058,7.914c-.375,1.585-1.714,2.295-3.44,2.055a2.691,2.691,0,0,1-2.537-2.722c-.072-1.12-.014-2.248-.016-3.373" fill="#2c3e50"/>
        <path id="Trazado_134938" data-name="Trazado 134938" d="M166.425,166.353c0-1-.043-2.011.01-3.013a3.031,3.031,0,0,1,6.042-.458,18.4,18.4,0,0,1-.02,7.387,2.774,2.774,0,0,1-3.241,2.3,2.725,2.725,0,0,1-2.764-2.674c-.083-1.175-.016-2.361-.016-3.543h-.011" fill="#2c3e50"/>
        <path id="Trazado_134939" data-name="Trazado 134939" d="M122.33,166.543c0,1.121.07,2.248-.016,3.362-.139,1.789-1.374,2.745-3.3,2.67a2.643,2.643,0,0,1-2.709-2.847c-.046-2.123-.041-4.249,0-6.372a3.258,3.258,0,0,1,3.1-3.188,3.309,3.309,0,0,1,2.932,3.189c.031,1.061.006,2.124.006,3.186h-.018" fill="#2c3e50"/>
        <path id="Trazado_134940" data-name="Trazado 134940" d="M153.965,166.59c0-1.061-.025-2.123.006-3.184a3.292,3.292,0,0,1,3.054-3.241A3.253,3.253,0,0,1,160,163.332c.064,2.12.071,4.246,0,6.366-.066,1.928-1.283,2.938-3.272,2.878-1.722-.052-2.7-1.093-2.756-2.979-.029-1-.005-2.005-.005-3.007" fill="#2c3e50"/>
        <path id="Trazado_134941" data-name="Trazado 134941" d="M12.4,91.171a3.142,3.142,0,0,1-2.323-4.9,8.178,8.178,0,0,1,1.073-1.18Q26.1,70.138,41.063,55.193a6.749,6.749,0,0,1,1.493-1.238,3.085,3.085,0,0,1,4.087,4.279,7.344,7.344,0,0,1-1.254,1.483Q30.507,74.612,15.613,89.5A4.256,4.256,0,0,1,12.4,91.171" fill="#fefefe"/>
        <path id="Trazado_134942" data-name="Trazado 134942" d="M28.227,56.948A2.8,2.8,0,0,1,27.27,59c-4.089,4.1-8.167,8.217-12.294,12.28a3.059,3.059,0,0,1-4.57.106,3.139,3.139,0,0,1,.238-4.581Q16.692,60.691,22.8,54.638a2.976,2.976,0,0,1,3.553-.787,3.013,3.013,0,0,1,1.873,3.1" fill="#fefefe"/>
      </g>
    </g>
  </g>
</svg>
