<svg xmlns="http://www.w3.org/2000/svg" xmlns:xlink="http://www.w3.org/1999/xlink" width="315" height="255.27" viewBox="0 0 315 255.27">
  <defs>
    <clipPath id="clip-path">
      <rect id="Rectángulo_38105" data-name="Rectángulo 38105" width="237.588" height="255.27" fill="none"/>
    </clipPath>
    <clipPath id="clip-path-3">
      <rect id="Rectángulo_38100" data-name="Rectángulo 38100" width="2.533" height="1.869" fill="none"/>
    </clipPath>
    <clipPath id="clip-path-4">
      <rect id="Rectángulo_38101" data-name="Rectángulo 38101" width="6.058" height="2.079" fill="none"/>
    </clipPath>
    <clipPath id="clip-path-5">
      <rect id="Rectángulo_38102" data-name="Rectángulo 38102" width="8.5" height="6.099" fill="none"/>
    </clipPath>
    <clipPath id="clip-path-6">
      <rect id="Rectángulo_38103" data-name="Rectángulo 38103" width="9.215" height="6.613" fill="none"/>
    </clipPath>
  </defs>
  <g id="_130" data-name="130" transform="translate(-1070 -1532)">
    <rect id="Rectángulo_34651" data-name="Rectángulo 34651" width="315" height="170" transform="translate(1070 1617)" fill="#6b8dff"/>
    <g id="Grupo_84000" data-name="Grupo 84000" transform="translate(1087 1533.49)">
      <path id="Trazado_118280" data-name="Trazado 118280" d="M150.733,260.461q-1.2-.2-2.42-.329c-9.524-1-19.038,1.6-28.608,1.95-17.246.633-34.142-6.148-48.252-16.087S45.68,223.081,34.517,209.919c-12-14.151-24.265-30.864-22.133-49.294,1.554-13.433,10.581-24.753,20.16-34.3,12.117-12.078,25.638-22.591,38.6-33.715,12.9-11.062,23.176-25.694,36.23-36.083,25.318-20.152,64.385-22.921,93.363-9.99,18.593,8.3,33.9,22.359,50.84,33.646,12.12,8.075,25.648,15.244,33.431,27.553,9.43,14.915,8.31,34.063,5.164,51.426-5.324,29.378-16.037,58.687-36.5,80.429s-52.013,34.594-80.929,27.161C165.35,264.852,158.235,261.7,150.733,260.461Z" transform="translate(-12.141 -38.664)" fill="#c4d1ff"/>
    </g>
    <g id="Grupo_159031" data-name="Grupo 159031" transform="translate(1109 1532)">
      <g id="Grupo_159030" data-name="Grupo 159030" clip-path="url(#clip-path)">
        <g id="Grupo_159029" data-name="Grupo 159029">
          <g id="Grupo_159028" data-name="Grupo 159028" clip-path="url(#clip-path)">
            <path id="Trazado_136160" data-name="Trazado 136160" d="M171.448,60.584c-.179.88-.363,1.71-.551,2.559s-.38,1.685-.576,2.525q-.593,2.52-1.236,5.024-1.288,5.01-2.743,9.989c-.483,1.662-.993,3.317-1.5,4.977s-1.057,3.312-1.607,4.969-1.133,3.31-1.729,4.97-1.232,3.316-1.895,4.989-1.381,3.347-2.169,5.064c-.4.861-.816,1.731-1.283,2.623s-.976,1.815-1.614,2.824c-.322.507-.678,1.039-1.126,1.631-.229.3-.474.609-.78.956a13.274,13.274,0,0,1-1.128,1.144l-.179.159-.072.062-.059.048-.241.193-.24.19-.232.172c-.315.235-.611.431-.913.632-.588.378-1.155.7-1.7.993a27.426,27.426,0,0,1-3.126,1.388c-1,.378-1.969.7-2.926.969a54.992,54.992,0,0,1-5.586,1.284c-1.83.324-3.637.571-5.437.749s-3.594.293-5.384.349q-1.342.039-2.69.028c-.448,0-.9-.011-1.351-.03l-.683-.026-.715-.036a5.5,5.5,0,0,1-1.716-10.628l.476-.181c.152-.059.363-.132.551-.192l.584-.192c.391-.131.784-.256,1.178-.381l2.361-.743,4.67-1.469c1.539-.5,3.057-.988,4.529-1.5s2.9-1.046,4.214-1.6c.654-.281,1.28-.561,1.853-.841s1.075-.574,1.478-.822c.193-.126.354-.243.474-.338a1.418,1.418,0,0,0,.122-.116l.023-.022.006-.013.007-.011,0,0s0,0-.012.009l-.061.051c-.16.142-.221.21-.243.225s-.009,0,.015-.042c.058-.093.17-.273.3-.492.25-.443.549-1.031.841-1.654s.595-1.3.893-2c.595-1.394,1.167-2.876,1.733-4.378s1.12-3.039,1.66-4.59,1.085-3.113,1.612-4.687,1.061-3.152,1.581-4.739l1.567-4.77,3.12-9.589,1.579-4.8.8-2.394c.269-.792.536-1.6.805-2.368l.023-.069a7.515,7.515,0,0,1,14.459,3.969" transform="translate(-6.941 -3.121)" fill="#314fa5"/>
            <path id="Trazado_136161" data-name="Trazado 136161" d="M142.873,106.6a13.511,13.511,0,0,1,6.4,1.843.353.353,0,0,0,.356-.609,14.321,14.321,0,0,0-6.754-1.939c-.454-.016-.453.689,0,.7" transform="translate(-8.623 -6.406)" fill="#1c2b74"/>
            <path id="Trazado_136162" data-name="Trazado 136162" d="M248.879,263.029a1.66,1.66,0,0,0,1.544-2.267l-33.175-84.287a1.659,1.659,0,1,0-3.087,1.215l33.175,84.287a1.658,1.658,0,0,0,1.544,1.051" transform="translate(-12.949 -10.613)" fill="#5a554d"/>
            <path id="Trazado_136163" data-name="Trazado 136163" d="M157.454,263.029A1.658,1.658,0,0,0,159,261.978l33.175-84.288a1.659,1.659,0,1,0-3.087-1.215l-33.175,84.287a1.66,1.66,0,0,0,1.544,2.267" transform="translate(-9.425 -10.613)" fill="#5a554d"/>
            <path id="Trazado_136164" data-name="Trazado 136164" d="M173.792,225.813a1.648,1.648,0,0,0,.549-.094L224.608,208.1a1.659,1.659,0,1,0-1.1-3.13l-50.267,17.618a1.659,1.659,0,0,0,.549,3.224" transform="translate(-10.414 -12.394)" fill="#5a554d"/>
            <path id="Trazado_136165" data-name="Trazado 136165" d="M231.443,225.813a1.659,1.659,0,0,0,.549-3.224l-50.267-17.618a1.659,1.659,0,0,0-1.1,3.13l50.267,17.618a1.648,1.648,0,0,0,.549.094" transform="translate(-10.86 -12.394)" fill="#5a554d"/>
            <path id="Trazado_136166" data-name="Trazado 136166" d="M182.886,263.029a1.66,1.66,0,0,0,1.544-2.267l-33.175-84.287a1.659,1.659,0,1,0-3.087,1.215l33.175,84.287a1.658,1.658,0,0,0,1.544,1.051" transform="translate(-8.957 -10.613)" fill="#5a554d"/>
            <path id="Trazado_136167" data-name="Trazado 136167" d="M91.461,263.029A1.658,1.658,0,0,0,93,261.978L126.18,177.69a1.659,1.659,0,1,0-3.087-1.215L89.918,260.762a1.66,1.66,0,0,0,1.544,2.267" transform="translate(-5.433 -10.613)" fill="#5a554d"/>
            <path id="Trazado_136168" data-name="Trazado 136168" d="M107.8,225.813a1.648,1.648,0,0,0,.549-.094L158.615,208.1a1.659,1.659,0,1,0-1.1-3.13L107.25,222.589a1.659,1.659,0,0,0,.549,3.224" transform="translate(-6.421 -12.394)" fill="#5a554d"/>
            <path id="Trazado_136169" data-name="Trazado 136169" d="M165.45,225.813a1.659,1.659,0,0,0,.549-3.224l-50.267-17.618a1.659,1.659,0,1,0-1.1,3.13L164.9,225.719a1.648,1.648,0,0,0,.549.094" transform="translate(-6.868 -12.394)" fill="#5a554d"/>
            <path id="Trazado_136170" data-name="Trazado 136170" d="M105.656,161.047a12.476,12.476,0,0,0,5.016,18.89c22.518,9.8,68.474,24.684,100.842,1.076a61.315,61.315,0,0,0,5.174-4.217q.867-.784,1.716-1.615c32.532-31.795,1.44-80.1-7.931-93.031a5.1,5.1,0,0,0-6.193-1.679l-.037.016q-.66.289-1.317.585c-49.814,22.463-82.757,60.491-97.27,79.976" transform="translate(-6.242 -4.842)" fill="#171612"/>
            <path id="Trazado_136171" data-name="Trazado 136171" d="M222.818,102.731c5.772,11.565,12.111,28.87,9.527,45.619-2.25,14.592-7.514,25.135-14.408,32.691a61.5,61.5,0,0,0,5.173-4.217c5.381-7.669,8.953-17.112,10.67-28.255a63.427,63.427,0,0,0-1.474-24.677,104.939,104.939,0,0,0-8.2-21.837,133.041,133.041,0,0,0-13.436-21.541q-.66.289-1.316.584a.7.7,0,0,0,.134.259,131.014,131.014,0,0,1,13.334,21.373" transform="translate(-12.665 -4.871)" fill="#5a554d"/>
            <path id="Trazado_136172" data-name="Trazado 136172" d="M194.121,106.729s14.862,46.218,2.011,62.8c-11.653,15.04-34.335,16.065-71.079-1.32-5.3-2.508-7.744-4.375-4.727-9.069,24.16-28.3,48.589-51.413,73.794-52.416" transform="translate(-7.2 -6.457)" fill="#171612"/>
            <path id="Trazado_136173" data-name="Trazado 136173" d="M113.628,148.13S99.12,166.8,80.3,170.583L42.133,193.371l-1.1-11.116S91.417,130.05,100.775,128.9s24.371,5.923,24.371,5.923Z" transform="translate(-2.482 -7.79)" fill="#eaad8f"/>
            <path id="Trazado_136174" data-name="Trazado 136174" d="M12.989,195.752c3.473-.46,26.247,2.272,26.247,2.272s.095,4.3-2.268,6.024c-2.249,1.642-13.494,11.015-14.713,11.962l-1.274-1.553,4.447-5.11s-8.563,1.1-12.68.037S1.617,199.053.138,196.663s9.377-.451,12.851-.911" transform="translate(0 -11.824)" fill="#171612"/>
            <path id="Trazado_136175" data-name="Trazado 136175" d="M46.013,192.409,40.3,196.747a8.3,8.3,0,0,1-4.092,3.356c-3.03,1.283-9.133,1.743-14.136,1.505-4.316-.2-10.724-2.974-11.256-4.94s7.838-1.864,11.423-2.763a57.4,57.4,0,0,0,9.445-3.322c3.015-1.353,8.891-6.017,8.891-6.017Z" transform="translate(-0.653 -11.166)" fill="#eaad8f"/>
            <path id="Trazado_136176" data-name="Trazado 136176" d="M118.529,158.675s-2.144,23.551-15.953,36.884L84.466,236.805,76.7,233.7c8.328-20.935,12.578-83.95,18.442-86.952,8.393-4.3,25.906-5.494,25.906-5.494Z" transform="translate(-4.64 -8.546)" fill="#eaad8f"/>
            <path id="Trazado_136177" data-name="Trazado 136177" d="M117.507,141.933c-3.716.493-7.467.878-11.158,1.545-3.447.622-6.971,1.726-9.579,4.176-2.717,2.554-3.508,6.2-4.275,9.7q-1.3,5.939-2.6,11.878c-.1.44-.795.344-.7-.1.928-4.242,1.846-8.486,2.786-12.726.73-3.291,1.625-6.623,4.1-9.064a17.951,17.951,0,0,1,9.131-4.365c4.013-.837,8.144-1.208,12.2-1.747a.353.353,0,0,1,.089.7" transform="translate(-5.396 -8.544)" fill="#c6695d"/>
            <path id="Trazado_136178" data-name="Trazado 136178" d="M65.255,259.055C67.227,256.159,84.44,241,84.44,241s3.268,2.794,2.98,5.706c-.274,2.772-.781,17.4-.887,18.941l-2.007-.085-.846-6.721s-4.884,7.12-8.424,9.479-15.119,1.415-17.886.925,5.913-7.292,7.884-10.189" transform="translate(-3.438 -14.58)" fill="#171612"/>
            <path id="Trazado_136179" data-name="Trazado 136179" d="M88.281,231.766l-3.552,7.786a8.3,8.3,0,0,1-.225,5.287c-1.063,3.115-4.788,7.972-8.3,11.544-3.029,3.081-9.364,6.014-11.184,5.1s3.833-7.086,5.552-10.358a57.339,57.339,0,0,0,3.817-9.256c1-3.149,4.62-12.871,4.62-12.871Z" transform="translate(-3.912 -13.854)" fill="#eaad8f"/>
            <path id="Trazado_136180" data-name="Trazado 136180" d="M109.239,128.56c6.624,2.792,9.5,9.406,10.534,16.441.073.488.136.975.192,1.467,1.191,10.6-1.438,21.625-1.438,21.625,1.871.86,3.888,1.7,6.021,2.512l.672.252c3.009,1.122,6.239,2.182,9.6,3.153.239.07.476.136.718.2a154.727,154.727,0,0,0,19.059,4.129c.336.053.674.1,1.008.148h0a93.91,93.91,0,0,0,21.256.893c.236-.021.472-.044.706-.07a38.122,38.122,0,0,0,7.273-1.423c.243-.075.482-.155.719-.235,3.573-1.23,6.286-3.066,7.786-5.628a44.278,44.278,0,0,0,4.871-12.473c.062-.269.122-.538.177-.805a54.418,54.418,0,0,0,1.056-7.691c.017-.238.032-.473.044-.708a64.5,64.5,0,0,0-.183-9.381c-.022-.25-.046-.492-.071-.734a56.52,56.52,0,0,0-1.668-9.334,63.113,63.113,0,0,1-26.426-2.524c-.236-.073-.47-.149-.7-.228A68.61,68.61,0,0,1,160.1,123.7a10.5,10.5,0,0,1-2.663,2.27c-.2.127-.4.256-.628.385a21.427,21.427,0,0,1-3.056,1.474c-.217.085-.44.17-.672.251a38.971,38.971,0,0,1-13.044,2.027c-1.776.01-3.649-.012-5.562-.057h0l-.886-.023c-2.075-.059-4.177-.14-6.239-.238h0l-1.277-.064h0c-9.005-.458-16.826-1.16-16.826-1.16" transform="translate(-6.609 -7.483)" fill="#c04d3a"/>
            <path id="Trazado_136181" data-name="Trazado 136181" d="M189.706,180.148c.243-.074.482-.154.719-.235a21.451,21.451,0,0,1,4.279-12.075,18.49,18.49,0,0,1,8.378-6.025c.062-.269.122-.537.177-.805A19.334,19.334,0,0,0,191.7,171.522a23.777,23.777,0,0,0-1.994,8.627" transform="translate(-11.477 -9.741)" fill="#7e231a"/>
            <path id="Trazado_136182" data-name="Trazado 136182" d="M127.151,130.109a24.187,24.187,0,0,1,7.594,9.925c2.423,5.65,3.527,11.856,6.772,17.146,2.853,4.651,7.322,7.981,12.912,8.054,3.3.043,6.619-.681,9.9-.055a15.522,15.522,0,0,1,7.524,3.957,22.2,22.2,0,0,1,6.093,10.636c.235-.021.471-.044.7-.07a22.921,22.921,0,0,0-6.633-11.366,16.349,16.349,0,0,0-6.872-3.7c-3.15-.774-6.356-.221-9.543-.117a13.6,13.6,0,0,1-9.164-2.771,20.8,20.8,0,0,1-5.839-7.788c-2.654-5.709-3.7-12.068-6.863-17.557a22.561,22.561,0,0,0-5.3-6.232h0c-.428-.022-.852-.044-1.277-.064" transform="translate(-7.692 -7.871)" fill="#7e231a"/>
            <path id="Trazado_136183" data-name="Trazado 136183" d="M120.451,146.373c.073.489.136.975.192,1.468a30.042,30.042,0,0,1,4.583,24.137q.334.124.671.252a30.863,30.863,0,0,0-5.445-25.857" transform="translate(-7.287 -8.855)" fill="#7e231a"/>
            <path id="Trazado_136184" data-name="Trazado 136184" d="M136.464,176.9c.24.07.476.136.718.2a5.115,5.115,0,0,1,1.462-4.011c1.4-1.207,3.482-1.107,5.176-.761,5.31,1.079,9.227,4.7,12.421,8.9.336.053.674.1,1.008.148a34.807,34.807,0,0,0-3.183-3.8,21.1,21.1,0,0,0-8.359-5.473c-2.408-.786-5.719-1.339-7.728.643a5.784,5.784,0,0,0-1.514,4.147" transform="translate(-8.256 -10.369)" fill="#7e231a"/>
            <path id="Trazado_136185" data-name="Trazado 136185" d="M135.154,130.288c1.465,2.038,2.959,4.052,4.51,6.026a69.773,69.773,0,0,0,9.983,10.952c2.407,1.987,7.618,5.323,10.511,2.393a5.785,5.785,0,0,0,1.207-4.528,31.544,31.544,0,0,0-1.243-6.4,40,40,0,0,0-4.8-10.634c-.217.085-.44.169-.672.25a39.371,39.371,0,0,1,5.011,11.36c.779,2.974,2.781,10.432-2.46,10.314-4.34-.1-8.045-3.913-10.794-6.86a131.686,131.686,0,0,1-10.364-12.845h0c-.295-.008-.591-.015-.886-.024" transform="translate(-8.176 -7.749)" fill="#7e231a"/>
            <path id="Trazado_136186" data-name="Trazado 136186" d="M159.872,126.5a25.784,25.784,0,0,1,6.923,11.464c1.4,4.494,1.247,9.611,3.6,13.771a11.154,11.154,0,0,0,10.6,5.537c4.648-.4,8.57-3.305,12.82-4.934a18.631,18.631,0,0,1,8.692-1.131c.018-.237.032-.472.044-.707a19.117,19.117,0,0,0-8.49,1c-4.4,1.575-8.393,4.666-13.156,5.078-5.431.469-9.7-3.249-11.153-8.275-.7-2.413-.935-4.929-1.461-7.378a34.283,34.283,0,0,0-2.034-6.435,24.9,24.9,0,0,0-5.76-8.371c-.2.126-.4.256-.627.385" transform="translate(-9.672 -7.63)" fill="#7e231a"/>
            <path id="Trazado_136187" data-name="Trazado 136187" d="M174.378,128.438a11.587,11.587,0,0,0,1.77,6.234c3.507,5.639,10.743,8.274,17.12,8.391a25.889,25.889,0,0,0,9.979-1.8c-.022-.25-.046-.492-.07-.734a24.966,24.966,0,0,1-14.1,1.392,20,20,0,0,1-10.791-5.617,11.614,11.614,0,0,1-3.2-7.633c-.237-.073-.47-.149-.7-.228" transform="translate(-10.549 -7.77)" fill="#7e231a"/>
            <path id="Trazado_136188" data-name="Trazado 136188" d="M173.378,40.126c4.682,1.561,22.4,5.336,35.845,0,.651-3.132,1.247-5.816,1.557-6.9,2.088-7.285,5.422-28.144-9.643-32.222S173.1,5.658,174.827,19.889c.464,3.831-.3,12.666-1.449,20.237" transform="translate(-10.489 0)" fill="#e59f3f"/>
            <path id="Trazado_136189" data-name="Trazado 136189" d="M216.793,68.3c-.223,1.128-1.841,3.354-3.719,6.4-.26.42-.53.856-.805,1.3-.125.2-.25.4-.378.606-4.921,7.97-12.072,19.692-14.963,28.44a26.7,26.7,0,0,0-1.165,4.806,187.506,187.506,0,0,0-1.025,24.282c-35.112.554-43.659-9-43.659-9s5.234-6.917,5.911-11.15c.531-3.316.875-2.757,1.879-6.644v0c.077-.3.153-.6.225-.9.339-1.363.641-2.712.891-4a29.686,29.686,0,0,0,.7-7.464,14.225,14.225,0,0,0-.229-1.618c-.045-.232-.093-.461-.148-.694a69.058,69.058,0,0,0-2.42-7.181c-.1-.273-.194-.55-.287-.823-.245-.722-.473-1.441-.666-2.165-.06-.23-.119-.456-.17-.686a15.56,15.56,0,0,1-.458-3.486,10.7,10.7,0,0,1,.06-1.243c.023-.227.055-.451.091-.666a11.124,11.124,0,0,1,1.573-4.033l.113-.175c.092-.144.187-.287.286-.426.057-.085.117-.167.177-.247,1.448-1.985,3.216-3.432,4.2-4.636.824-1.015.913-2.587.87-4.388a34.473,34.473,0,0,1,.05-5.579c.033-.241.074-.479.123-.717.057-.287.127-.57.212-.852a6.222,6.222,0,0,1,1.2-2.335,4.051,4.051,0,0,1,.541-.524c1.515-1.219,3.657-1.152,6.173-1.218a11.657,11.657,0,0,0,2.461-.371c.292-.071.582-.152.869-.241a28.813,28.813,0,0,0,5.252-2.274l17.289-1.365s.62,1.851,4.092,4.232q.289.2.605.4a35.637,35.637,0,0,0,6.118,3.055c.707.28,1.358.569,1.958.866.265.132.519.264.762.4a10.875,10.875,0,0,1,5.177,5.137,7.127,7.127,0,0,1,.269.726,8.347,8.347,0,0,1,.318,1.445c.034.241.054.478.068.719a17.282,17.282,0,0,1-.413,4.285" transform="translate(-9.14 -2.845)" fill="#fff"/>
            <path id="Trazado_136190" data-name="Trazado 136190" d="M171.831,67.7c-.563,3.072-3.217,5.09-6.129,5.778a13.71,13.71,0,0,1-7.225-.513c.038-.059.075-.117.113-.174.092-.145.186-.287.286-.427a13.233,13.233,0,0,0,6.011.559c3.089-.519,6.005-2.574,6.33-5.888.32-3.246-1.767-6.344-4.364-8.089a15.716,15.716,0,0,0-2.685-1.432c.032-.241.074-.479.123-.717a14.9,14.9,0,0,1,4.059,2.394c2.386,2.029,4.067,5.328,3.482,8.508" transform="translate(-9.587 -3.436)" fill="#dbccc1"/>
            <path id="Trazado_136191" data-name="Trazado 136191" d="M217.241,62.749q-2.1-.173-4.211-.143a35.579,35.579,0,0,0-17.84,5.465c-5.5,3.3-10.35,7.514-15.48,11.326-4.541,3.371-9.614,7.018-15.4,7.67a13.38,13.38,0,0,1-6.006-.689c-.1-.273-.194-.55-.287-.823,3.618,1.442,8.172.814,11.726-.765,5.667-2.516,10.534-6.686,15.393-10.455,4.581-3.558,9.285-7.071,14.6-9.459a35.077,35.077,0,0,1,17.044-2.868l.188.014a7.211,7.211,0,0,1,.269.726" transform="translate(-9.56 -3.745)" fill="#dbccc1"/>
            <path id="Trazado_136192" data-name="Trazado 136192" d="M173.609,100.356a51.767,51.767,0,0,1-14.237,9.82c.077-.3.153-.6.225-.9a54.293,54.293,0,0,0,11-7.166c1.451-1.219,3.782-2.784,4.04-4.782.555-4.332-9.03-2.321-11.267-1.8-.815.189-1.622.41-2.415.664-.046-.232-.094-.461-.148-.693q1.095-.344,2.21-.609a32.628,32.628,0,0,1,5.209-.8,14.56,14.56,0,0,1,4.908.173,2.843,2.843,0,0,1,2.233,2.406,4.726,4.726,0,0,1-1.758,3.688" transform="translate(-9.642 -5.685)" fill="#dbccc1"/>
            <path id="Trazado_136193" data-name="Trazado 136193" d="M195.715,109.2c-2.818-1.505-5.97-.239-8.446,1.377a31.987,31.987,0,0,0-7.058,6.332,33.45,33.45,0,0,0-7.444,16.959c-.06.449.645.472.7.026a32.7,32.7,0,0,1,6.6-15.69,31.972,31.972,0,0,1,6.125-6.017c2.489-1.857,6.03-4.059,9.146-2.394.4.212.778-.381.378-.595" transform="translate(-10.452 -6.566)" fill="#dbccc1"/>
            <path id="Trazado_136194" data-name="Trazado 136194" d="M165.834,120.266c1.493-4.429,3.254-8.869,6.2-12.55A18.053,18.053,0,0,1,183.4,100.8c3.533-.807,7.852-1.923,9.139-5.8.7-2.108.271-4.358.423-6.529a9.839,9.839,0,0,1,2.215-5.644A6.351,6.351,0,0,1,200.9,80.46a5.354,5.354,0,0,1,4.6,3.766.353.353,0,0,0,.686-.162c-.817-3.146-4.279-4.824-7.359-4.26-3.719.68-6.039,4.46-6.5,7.969-.349,2.677.508,5.67-.96,8.114-1.27,2.114-3.744,3.126-6.019,3.726a38.209,38.209,0,0,0-7.07,2.084,19.023,19.023,0,0,0-5.292,3.886c-3.9,4-6.067,9.255-7.824,14.469a.352.352,0,0,0,.672.212" transform="translate(-9.991 -4.821)" fill="#dbccc1"/>
            <path id="Trazado_136195" data-name="Trazado 136195" d="M212.461,72.5a6,6,0,0,0,3.474,4.538l-.377.606a6.706,6.706,0,0,1-3.865-5.792,7.511,7.511,0,0,1,9.111-7.521c.034.241.055.479.068.719a6.826,6.826,0,0,0-8.411,7.45" transform="translate(-12.806 -3.883)" fill="#dbccc1"/>
            <path id="Trazado_136196" data-name="Trazado 136196" d="M214.549,56.258a28.19,28.19,0,0,1-5.529,2.26c-1.906.54-5.22,1.227-5.456-1.666a9.2,9.2,0,0,1,1.542-5.317c.193.133.394.268.605.4a11.878,11.878,0,0,0-.592,1.189c-.489,1.149-1.334,3.18-.682,4.39.719,1.333,2.715.756,3.851.465a24.663,24.663,0,0,0,3.788-1.311c.581-.253,1.15-.525,1.71-.813.265.132.519.264.763.4" transform="translate(-12.314 -3.118)" fill="#dbccc1"/>
            <path id="Trazado_136197" data-name="Trazado 136197" d="M176.213,50.9c-1.012,2.121-2.19,4.055-4.607,4.583-2.174.474-3.992-.6-5.437-2.229a4.119,4.119,0,0,1,.541-.525c1.667,1.916,3.786,3.035,6.123,1.464a7.8,7.8,0,0,0,2.512-3.052c.291-.071.581-.152.868-.241" transform="translate(-10.053 -3.08)" fill="#dbccc1"/>
            <path id="Trazado_136198" data-name="Trazado 136198" d="M177.74,57.81a2.943,2.943,0,0,0,1.3,3.4c1.607,1.043,3.857.889,5.681.831a35.839,35.839,0,0,0,12.629-2.772c.416-.174.083-.791-.332-.619a35.143,35.143,0,0,1-9.808,2.524,31.388,31.388,0,0,1-4.99.154c-1.739-.1-4.626-.95-3.809-3.308.147-.427-.521-.637-.669-.211" transform="translate(-10.744 -3.483)" fill="#dbccc1"/>
            <path id="Trazado_136199" data-name="Trazado 136199" d="M209.713,80.448A123.889,123.889,0,0,0,192.119,121.9c-.1.438.57.652.668.211a123.357,123.357,0,0,1,17.518-41.287c.25-.377-.343-.752-.592-.376" transform="translate(-11.622 -4.857)" fill="#dbccc1"/>
            <path id="Trazado_136200" data-name="Trazado 136200" d="M179.215,21.41a2.614,2.614,0,0,0-2.514,2.1c-.7,2.229-.148,6.217,2.234,6.111s.28-8.216.28-8.216" transform="translate(-10.673 -1.295)" fill="#c6695d"/>
            <path id="Trazado_136201" data-name="Trazado 136201" d="M177.536,33.76a3.186,3.186,0,1,1,3.512-2.823,3.19,3.19,0,0,1-3.512,2.823m.588-5.409a2.254,2.254,0,1,0,2,2.485,2.257,2.257,0,0,0-2-2.485" transform="translate(-10.568 -1.658)" fill="#fff"/>
            <line id="Línea_285" data-name="Línea 285" y2="0.002" transform="translate(172.088 38.826)" fill="#eaad8f"/>
            <path id="Trazado_136202" data-name="Trazado 136202" d="M200.964,50.166s-4.035,5.394-10.868,5.32c-8.679-.094-9.08-3.9-9.08-3.9a16.3,16.3,0,0,0,1.222-3.412q.165-.686.288-1.422a39.437,39.437,0,0,0,.454-4.551c.021-.4.039-.824.055-1.257l0-.052c6.1-.48,11.313-2.341,15.278-6.169l.964-.389.649-.264.056.36L199.7,35.5c-1.341,5.054-.843,9.489,1.261,14.665" transform="translate(-10.951 -2.061)" fill="#eaad8f"/>
            <path id="Trazado_136203" data-name="Trazado 136203" d="M193.639,38.9c-1.678,2.614-5.33,7.13-11.014,8.141a39.225,39.225,0,0,0,.453-4.55q.032-.606.055-1.258c.114.032.231.06.349.086,3.171.708,6.908-.4,10.157-2.419" transform="translate(-11.048 -2.353)" fill="#171612"/>
            <path id="Trazado_136204" data-name="Trazado 136204" d="M208.2,24.946c-.294,3.218-3.377,6.91-7.6,6.642h-.024l-.089,0c-.085.179-.179.353-.279.531-.042.077-.086.155-.131.231a.17.17,0,0,1-.014.022c-3.12,5.227-11.2,7.733-15.425,7.463a9.628,9.628,0,0,1-2.806-.628c-4.377-1.376-4.663-7.486-3.542-12.034a17.674,17.674,0,0,1,.57-1.861c.015-.039.03-.079.044-.118,0,0-.909-6.587-1-9.434-.179-5.516,3.455-10.772,15.517-10.772s14.252,7.686,14.733,11.7c.082.669-.407,4.567-1.118,5.138a3.207,3.207,0,0,1,1.162,3.124" transform="translate(-10.752 -0.301)" fill="#eaad8f"/>
            <path id="Trazado_136205" data-name="Trazado 136205" d="M180.469,24.746c.057.9.485,1.612.955,1.583s.8-.787.746-1.691-.485-1.612-.954-1.582-.8.786-.747,1.69" transform="translate(-10.917 -1.395)" fill="#171612"/>
            <path id="Trazado_136206" data-name="Trazado 136206" d="M183.444,23.887a.244.244,0,0,0,.119-.088.24.24,0,0,0-.056-.334c-.089-.064-2.229-1.561-4.165-.245a.24.24,0,0,0,.27.4c1.662-1.13,3.6.225,3.617.24a.24.24,0,0,0,.215.032" transform="translate(-10.843 -1.372)" fill="#171612"/>
            <path id="Trazado_136207" data-name="Trazado 136207" d="M188.863,24.356c.057.9.485,1.612.954,1.583s.8-.787.747-1.691-.485-1.612-.955-1.582-.8.786-.746,1.69" transform="translate(-11.425 -1.371)" fill="#171612"/>
            <path id="Trazado_136208" data-name="Trazado 136208" d="M192.248,23.807a.239.239,0,0,0,.116-.411c-.082-.076-2.013-1.832-4.1-.771a.24.24,0,0,0,.218.428c1.793-.912,3.54.678,3.557.694a.241.241,0,0,0,.21.059" transform="translate(-11.382 -1.348)" fill="#171612"/>
            <path id="Trazado_136209" data-name="Trazado 136209" d="M183.73,34.079a3.356,3.356,0,0,0,.429-.012,4.144,4.144,0,0,0,2.552-1.548.454.454,0,1,0-.722-.551,3.272,3.272,0,0,1-1.912,1.194,1.607,1.607,0,0,1-1.544-.579.456.456,0,0,0-.624-.143.451.451,0,0,0-.15.617,2.409,2.409,0,0,0,1.971,1.021" transform="translate(-10.992 -1.923)" fill="#c6695d"/>
            <path id="Trazado_136210" data-name="Trazado 136210" d="M201.861,30.261a.437.437,0,0,0,.388-.315c.855-2.974,4.587-3.956,4.624-3.966a.436.436,0,0,0-.214-.846c-.173.044-4.253,1.11-5.248,4.571a.436.436,0,0,0,.45.555" transform="translate(-12.184 -1.52)" fill="#c6695d"/>
            <path id="Trazado_136211" data-name="Trazado 136211" d="M205.907,29.02a.42.42,0,0,0,.162-.044.436.436,0,0,0,.2-.584,3,3,0,0,0-2.5-1.535.436.436,0,0,0-.044.872,2.125,2.125,0,0,1,1.766,1.049.435.435,0,0,0,.422.242" transform="translate(-12.299 -1.625)" fill="#c6695d"/>
            <g id="Grupo_159018" data-name="Grupo 159018" transform="translate(167.537 25.006)" opacity="0.5">
              <g id="Grupo_159017" data-name="Grupo 159017">
                <g id="Grupo_159016" data-name="Grupo 159016" clip-path="url(#clip-path-3)">
                  <path id="Trazado_136212" data-name="Trazado 136212" d="M180.856,27.776c-.053.477-1.137.761-2.532.7a17.651,17.651,0,0,1,.57-1.86c1.185.262,2.011.725,1.962,1.16" transform="translate(-178.325 -26.616)" fill="#c6695d"/>
                </g>
              </g>
            </g>
            <g id="Grupo_159021" data-name="Grupo 159021" transform="translate(177.494 26.197)" opacity="0.5">
              <g id="Grupo_159020" data-name="Grupo 159020">
                <g id="Grupo_159019" data-name="Grupo 159019" clip-path="url(#clip-path-4)">
                  <path id="Trazado_136213" data-name="Trazado 136213" d="M188.925,28.593c-.059.544,1.248,1.133,2.919,1.316s3.076-.111,3.135-.655-1.248-1.134-2.919-1.316-3.076.111-3.135.655" transform="translate(-188.923 -27.884)" fill="#c6695d"/>
                </g>
              </g>
            </g>
            <path id="Trazado_136214" data-name="Trazado 136214" d="M201.883,33.2h-.023l-.09,0c-.084.179-.179.353-.278.531-.043.077-.087.155-.132.231a.14.14,0,0,1-.014.022,3.888,3.888,0,0,1-1.567-.791,3.108,3.108,0,0,1-.773-1.008.437.437,0,0,1,.786-.381,2.352,2.352,0,0,0,.953,1,3.147,3.147,0,0,0,.738.305,3.576,3.576,0,0,0,.4.095" transform="translate(-12.037 -1.909)" fill="#c6695d"/>
            <path id="Trazado_136215" data-name="Trazado 136215" d="M200.946,32.926a3.958,3.958,0,0,0,.908.232c0,.016-.006.031-.008.046a2.254,2.254,0,1,0,2.837-1.928.633.633,0,0,1,.1-.935A3.185,3.185,0,1,1,200.92,33.1c.007-.06.017-.118.026-.178" transform="translate(-12.154 -1.836)" fill="#fff"/>
            <path id="Trazado_136216" data-name="Trazado 136216" d="M184.77,36.4a1.7,1.7,0,0,0,1.023-.479.286.286,0,0,0-.418-.39,1.16,1.16,0,0,1-1.281.2.286.286,0,0,0-.216.529,1.872,1.872,0,0,0,.892.144" transform="translate(-11.113 -2.144)" fill="#c6695d"/>
            <path id="Trazado_136217" data-name="Trazado 136217" d="M205.349,9.586A13.566,13.566,0,0,0,195.312,4.1C189.247,3.9,183.479,5.507,180.1,8.492a8.542,8.542,0,0,0-3,5.214c-.9,6.24.565,5.139.565,5.139a7.921,7.921,0,0,1,.286-1.463h0c.184-.793.489-2.01.994-3.872,1.2-4.441,15.622-3.657,14.427-.83a5.151,5.151,0,0,0-.088.924,6.215,6.215,0,0,0,.387,2.313c.113.028.222.057.324.085a13.049,13.049,0,0,1,3.5,1.5l0,0c.116.1,2.147,1.886,1.628,4.145-.531,2.326-1.676,5.321-.023,4.885a4.018,4.018,0,0,0,2.361-2.3l0,0a7.52,7.52,0,0,1,3.7-2.306c.909-4.085,1.441-8.287.177-12.344" transform="translate(-10.697 -0.247)" fill="#e59f3f"/>
            <path id="Trazado_136218" data-name="Trazado 136218" d="M207.006,12.829c-4.169-1.868-11.378.687-12.659,1.265a6.236,6.236,0,0,0,.386,2.314c.114.027.223.057.325.085a13.032,13.032,0,0,1,3.5,1.5l0,0c.116.1,2.147,1.886,1.628,4.144-.531,2.326-3.888,14.685-1.639,16.866,4.563,4.424,4.624-14.241,4.624-14.241.945-.974,1.45-1.975,3.061-2.35,1.927-3.181,1.637-6.41.772-9.59" transform="translate(-11.757 -0.735)" fill="#e59f3f"/>
            <path id="Trazado_136219" data-name="Trazado 136219" d="M206.793,12.234s2.26,3.984.169,9.926a7.329,7.329,0,0,1,3.082.115c.954.449,2.312-3.067,1.621-6.485s-5.027-7.9-5.027-7.9-.633,3.176.156,4.35" transform="translate(-12.486 -0.477)" fill="#e59f3f"/>
            <path id="Trazado_136220" data-name="Trazado 136220" d="M183.746,29.377a.362.362,0,0,1-.193-.068L182,28.2a.366.366,0,0,1,.056-.629,5.266,5.266,0,0,0,2.791-3.471.366.366,0,0,1,.7.22,6.089,6.089,0,0,1-2.641,3.626l1.074.767a.366.366,0,0,1-.233.663" transform="translate(-11.001 -1.443)" fill="#c6695d"/>
            <path id="Trazado_136221" data-name="Trazado 136221" d="M188.851,19.952a.889.889,0,0,1-1.163-1.3,2.576,2.576,0,0,1,1.561-.913,6.448,6.448,0,0,1,5.531,1.527,16.5,16.5,0,0,0-5.026.266,5.038,5.038,0,0,0-.9.422" transform="translate(-11.343 -1.065)" fill="#171612"/>
            <path id="Trazado_136222" data-name="Trazado 136222" d="M182.894,20.221a.888.888,0,0,0,1.1-1.358,2.581,2.581,0,0,0-1.6-.835c-3.313-.522-4.341,1.594-4.341,1.594a11.788,11.788,0,0,1,3.926.222,5,5,0,0,1,.924.377" transform="translate(-10.771 -1.086)" fill="#171612"/>
            <g id="Grupo_159024" data-name="Grupo 159024" transform="translate(164.566 21.255)" opacity="0.6">
              <g id="Grupo_159023" data-name="Grupo 159023">
                <g id="Grupo_159022" data-name="Grupo 159022" clip-path="url(#clip-path-5)">
                  <path id="Trazado_136223" data-name="Trazado 136223" d="M175.165,25.516c-.062,1.682,1.789,3.116,4.135,3.2s4.3-1.205,4.361-2.888-1.788-3.116-4.135-3.2-4.3,1.206-4.361,2.888" transform="translate(-175.163 -22.624)" fill="#fff"/>
                </g>
              </g>
            </g>
            <g id="Grupo_159027" data-name="Grupo 159027" transform="translate(174.337 21.187)" opacity="0.6">
              <g id="Grupo_159026" data-name="Grupo 159026">
                <g id="Grupo_159025" data-name="Grupo 159025" clip-path="url(#clip-path-6)">
                  <path id="Trazado_136224" data-name="Trazado 136224" d="M185.565,25.686c-.068,1.824,1.939,3.378,4.482,3.473s4.661-1.307,4.729-3.13-1.939-3.379-4.482-3.473-4.661,1.307-4.729,3.13" transform="translate(-185.563 -22.551)" fill="#fff"/>
                </g>
              </g>
            </g>
            <path id="Trazado_136225" data-name="Trazado 136225" d="M183.782,26.046a.259.259,0,0,0,.177-.058,1.109,1.109,0,0,1,1.613.04.266.266,0,0,0,.4-.347,1.629,1.629,0,0,0-2.351-.107.266.266,0,0,0-.039.374.263.263,0,0,0,.2.1" transform="translate(-11.103 -1.52)" fill="#fff"/>
            <path id="Trazado_136226" data-name="Trazado 136226" d="M194.781,25.663a.262.262,0,0,0,.141-.035,13.672,13.672,0,0,1,6.366-1.51.266.266,0,0,0,.02-.532,13.948,13.948,0,0,0-6.649,1.579.266.266,0,0,0-.1.363.263.263,0,0,0,.222.134" transform="translate(-11.768 -1.427)" fill="#fff"/>
            <path id="Trazado_136227" data-name="Trazado 136227" d="M175.138,25.884a.267.267,0,0,0,.214-.095c.556-.663,2.3-.9,2.918-.934a.266.266,0,0,0-.03-.532c-.1.006-2.479.149-3.3,1.124a.266.266,0,0,0,.033.375.262.262,0,0,0,.161.062" transform="translate(-10.58 -1.472)" fill="#fff"/>
            <path id="Trazado_136228" data-name="Trazado 136228" d="M198.879,43.343s4.7,1.343,5.788,8.4c0,0,8.43,2.853,10.657,4.762s4.9,3.951,4.605,6.945c-.952,9.743-16.33,30.836-18.041,36.61s6.735,28.782,6.735,28.782c-7.363,7.406-19.564,8.658-30.3,5.953,0,0,4.449-58.058,8.994-67.079s8.748-15.75,11.565-24.373" transform="translate(-10.788 -2.622)" fill="#314fa5"/>
            <path id="Trazado_136229" data-name="Trazado 136229" d="M205.875,52.9A20.985,20.985,0,0,1,192.54,68.2c-.554.2-.759-.694-.211-.893A20.074,20.074,0,0,0,205,52.629c.12-.576.993-.3.874.276" transform="translate(-11.616 -3.165)" fill="#1c2b74"/>
            <path id="Trazado_136230" data-name="Trazado 136230" d="M193.533,68.918a151.651,151.651,0,0,0-7.423,48.612q.066,7.152.785,14.276c.058.58-.832.8-.892.21a156.258,156.258,0,0,1,2.836-49.478q1.564-7.039,3.819-13.9a.458.458,0,0,1,.874.276" transform="translate(-11.204 -4.134)" fill="#1c2b74"/>
            <path id="Trazado_136231" data-name="Trazado 136231" d="M207.275,130.582a37.769,37.769,0,0,1-28.153,5.561c-.593-.117-.307-1.016.284-.9a36.834,36.834,0,0,0,27.423-5.493c.506-.337.946.5.446.831" transform="translate(-10.817 -7.845)" fill="#1c2b74"/>
            <path id="Trazado_136232" data-name="Trazado 136232" d="M180.813,44.371s-1.569,9.8-2.7,16.154c-1.212,6.812-9.848,26.048-11.251,38.863s-5.184,30.7-5.184,30.7-10.513-1.139-17.142-8.318c0,0,9.861-19.2,11.989-26.966s-3.16-18.016-1.586-22.281,6.038-5.731,6.546-9.59-1.079-10.059,1.89-11.814,10.839-.971,11.879-1.766c0,0,2.531-4.743,5.558-4.978" transform="translate(-8.744 -2.684)" fill="#314fa5"/>
            <path id="Trazado_136233" data-name="Trazado 136233" d="M161.855,58.217a34.243,34.243,0,0,1-1.074,5.669,20.756,20.756,0,0,1-2.791,5.3c-2.1,3.219-3.492,6.377-2.634,10.274.443,2.013,1.219,3.935,1.653,5.953a25.457,25.457,0,0,1,.544,6.173,26.052,26.052,0,0,1-3.4,12.029.353.353,0,0,0,.609.356,26.846,26.846,0,0,0,3.418-11.008c.358-4.234-.538-8.053-1.719-12.08a11.178,11.178,0,0,1-.28-6.7,22.424,22.424,0,0,1,2.954-5.452,17.758,17.758,0,0,0,2.436-5.03,37.483,37.483,0,0,0,.992-5.491c.057-.448-.647-.444-.7,0" transform="translate(-9.323 -3.502)" fill="#1c2b74"/>
            <path id="Trazado_136234" data-name="Trazado 136234" d="M177.131,51.587c-.53,4.046-.5,8.549,1.469,12.231a.459.459,0,0,1-.808.433c-2.041-3.823-2.128-8.494-1.576-12.7.076-.58.992-.551.915.034" transform="translate(-10.643 -3.093)" fill="#1c2b74"/>
            <path id="Trazado_136235" data-name="Trazado 136235" d="M176.793,62.7a266.134,266.134,0,0,0-13.725,53.478c-.611,4.1-1.154,8.207-1.691,12.315-.076.58-.992.551-.915-.034,2.155-16.464,4.88-32.746,9.634-48.688,1.744-5.847,3.7-11.627,5.824-17.348.2-.551,1.079-.279.874.276" transform="translate(-9.707 -3.758)" fill="#1c2b74"/>
            <path id="Trazado_136236" data-name="Trazado 136236" d="M161.685,133.282a37.124,37.124,0,0,1-15.367-8.38c-.438-.4.237-1.017.671-.623a36.169,36.169,0,0,0,14.973,8.13c.569.153.293,1.027-.276.874" transform="translate(-8.843 -7.511)" fill="#1c2b74"/>
            <path id="Trazado_136237" data-name="Trazado 136237" d="M163.172,136.557l-60.431-5.871a.211.211,0,0,1-.19-.23l.729-7.509a.213.213,0,0,1,.231-.191l60.431,5.871a.211.211,0,0,1,.19.231l-.729,7.509a.211.211,0,0,1-.231.19" transform="translate(-6.204 -7.426)" fill="#5a554d"/>
            <path id="Trazado_136238" data-name="Trazado 136238" d="M95.009,127.123a5.081,5.081,0,0,1-4.522-4.227l-7.24-43.723A4.122,4.122,0,0,1,87.712,74.4l27.246,2.647a4.121,4.121,0,0,1,3.658,3.377l8.919,49.861Z" transform="translate(-5.033 -4.5)" fill="#171612"/>
            <path id="Trazado_136239" data-name="Trazado 136239" d="M98.761,102.912c.629,2.855,3.212,5.357,5.77,5.588s4.123-1.9,3.494-4.753-3.212-5.357-5.77-5.588-4.123,1.9-3.494,4.753" transform="translate(-5.966 -5.937)" fill="#e59f3f"/>
            <path id="Trazado_136240" data-name="Trazado 136240" d="M104.28,102.621c.126.571.408,1.05.63,1.07s.3-.427.175-1-.408-1.05-.63-1.07-.3.427-.175,1" transform="translate(-6.305 -6.148)" fill="#171612"/>
            <path id="Trazado_136241" data-name="Trazado 136241" d="M101.707,102.389c.126.571.408,1.05.63,1.07s.3-.427.175-1-.408-1.05-.63-1.07-.3.427-.175,1" transform="translate(-6.149 -6.134)" fill="#171612"/>
            <path id="Trazado_136242" data-name="Trazado 136242" d="M104.057,106.165c1.993.179,1.959-2,1.958-2.024a.325.325,0,0,0-.212-.282.145.145,0,0,0-.2.15c0,.079.02,1.856-1.642,1.705a3.4,3.4,0,0,1-2.476-2.077.29.29,0,0,0-.278-.193c-.1.017-.145.13-.095.254.009.023.955,2.287,2.947,2.466" transform="translate(-6.116 -6.258)" fill="#171612"/>
            <path id="Trazado_136243" data-name="Trazado 136243" d="M120.663,80.593l8.844,49.451,3.113.3L123.777,80.9a4.128,4.128,0,0,0-3.66-3.379l-3.114-.3a4.127,4.127,0,0,1,3.66,3.378" transform="translate(-7.078 -4.671)" fill="#171612"/>
            <path id="Trazado_136244" data-name="Trazado 136244" d="M129.42,129.864a.4.4,0,0,0,.082-.008.458.458,0,0,0,.372-.532l-8.746-49.343a.459.459,0,0,0-.9.161l8.747,49.342a.459.459,0,0,0,.45.38" transform="translate(-7.273 -4.816)" fill="#5a554d"/>
            <path id="Trazado_136245" data-name="Trazado 136245" d="M216.676,67.638l-.235.8-.234.762-.471,1.51c-.319,1-.655,1.994-.987,2.987-.664,1.987-1.374,3.955-2.105,5.92-1.468,3.926-3.047,7.823-4.773,11.7s-3.595,7.733-5.749,11.589c-1.079,1.93-2.228,3.861-3.537,5.81-.655.975-1.346,1.957-2.105,2.952A38.609,38.609,0,0,1,193.9,114.7a24.083,24.083,0,0,1-3.7,3.23c-.2.143-.388.263-.579.381s-.385.241-.574.353l-.555.31-.278.153-.27.135-.537.267c-.179.088-.349.161-.523.241s-.35.157-.52.228l-.505.206a38.41,38.41,0,0,1-7.419,2.035c-2.326.427-4.573.672-6.781.861-2.212.169-4.381.273-6.536.3-4.3.071-8.535-.085-12.736-.395-2.1-.157-4.191-.351-6.278-.6q-1.564-.187-3.128-.4l-1.566-.231-.787-.122-.814-.135a5.447,5.447,0,0,1,.4-10.8l.145-.011,5.926-.532c1.989-.183,3.974-.368,5.949-.57,3.95-.4,7.869-.856,11.691-1.417,1.908-.293,3.8-.589,5.624-.958,1.832-.346,3.61-.769,5.261-1.226.824-.232,1.614-.482,2.337-.749a17.029,17.029,0,0,0,1.911-.813l.194-.1c.062-.033.114-.067.171-.1s.117-.064.163-.095l.138-.091.069-.043.051-.04c.035-.026.069-.053.1-.076l.066-.064c.023-.02.047-.038.051-.051.062-.085.413-.427.788-.9s.817-1.072,1.252-1.726.885-1.362,1.326-2.105.874-1.524,1.307-2.321.862-1.613,1.281-2.447c1.681-3.338,3.284-6.866,4.825-10.453s3.046-7.241,4.519-10.916l2.2-5.524,2.156-5.466.045-.114a8.95,8.95,0,0,1,16.911,5.81" transform="translate(-8.183 -3.397)" fill="#314fa5"/>
            <path id="Trazado_136246" data-name="Trazado 136246" d="M155.236,113.163a28.02,28.02,0,0,1,1.54,14.293c-.069.444.611.635.679.188a28.7,28.7,0,0,0-1.54-14.668c-.16-.42-.842-.238-.679.187" transform="translate(-9.39 -6.82)" fill="#1c2b74"/>
            <path id="Trazado_136247" data-name="Trazado 136247" d="M187.807,110.994a11.464,11.464,0,0,0-4.194-4.889c-.383-.244-.738.365-.356.609a10.8,10.8,0,0,1,3.941,4.636c.2.408.805.051.609-.356" transform="translate(-11.077 -6.416)" fill="#1c2b74"/>
            <path id="Trazado_136248" data-name="Trazado 136248" d="M183.342,106.61a5.665,5.665,0,0,1,4.063.365c.4.207.759-.4.355-.608a6.445,6.445,0,0,0-4.605-.436c-.443.1-.256.781.187.679" transform="translate(-11.065 -6.395)" fill="#1c2b74"/>
            <path id="Trazado_136249" data-name="Trazado 136249" d="M147.806,115.548s-7.066-2.492-11.612-1.957-5.63,2.365-5.63,2.365l1.46,8.844,16.753,1.859a13.521,13.521,0,0,0-.971-11.111" transform="translate(-7.899 -6.867)" fill="#eaad8f"/>
            <path id="Trazado_136250" data-name="Trazado 136250" d="M198.729,73.58q-3.506,8.348-7.648,16.413a131.133,131.133,0,0,1-8.14,14.141c-.256.376.355.729.609.356A132.735,132.735,0,0,0,191.868,90q4.063-7.975,7.54-16.233c.176-.417-.506-.6-.679-.187" transform="translate(-11.064 -4.437)" fill="#1c2b74"/>
            <path id="Trazado_136251" data-name="Trazado 136251" d="M179.673,125.862a27.775,27.775,0,0,0,22.9-14.682c.2-.4-.4-.761-.609-.356a27.063,27.063,0,0,1-22.292,14.333c-.452.021-.454.725,0,.7" transform="translate(-10.849 -6.694)" fill="#1c2b74"/>
          </g>
        </g>
      </g>
    </g>
  </g>
</svg>
