<svg xmlns="http://www.w3.org/2000/svg" width="118.076" height="118.076" viewBox="0 0 118.076 118.076">
  <g id="Grupo_159162" data-name="Grupo 159162" transform="translate(-321 -2231)">
    <circle id="Elipse_4823" data-name="Elipse 4823" cx="59.038" cy="59.038" r="59.038" transform="translate(321 2231)" fill="#ff9fa3"/>
    <g id="Grupo_159037" data-name="Grupo 159037" transform="translate(347 2257)">
      <g id="Grupo_82674" data-name="Grupo 82674" transform="translate(0 0)">
        <g id="Grupo_82662" data-name="Grupo 82662">
          <path id="Trazado_115698" data-name="Trazado 115698" d="M62.726,6.308a30.235,30.235,0,0,1-2.718,5.134H3.31A30.236,30.236,0,0,1,.592,6.308Z" transform="translate(1.975 40.349)" fill="#fff"/>
          <path id="Trazado_115699" data-name="Trazado 115699" d="M66.026,6.239a29.935,29.935,0,0,1-1.661,5.209H2.231A29.935,29.935,0,0,1,.57,6.239Z" transform="translate(0.336 35.209)" fill="#b12233"/>
          <path id="Trazado_115700" data-name="Trazado 115700" d="M67.676,6.17a28.86,28.86,0,0,1-.83,5.209H1.389A37.521,37.521,0,0,1,.559,6.17Z" transform="translate(-0.484 30.069)" fill="#fff"/>
          <path id="Trazado_115701" data-name="Trazado 115701" d="M57.327,6.376a34.485,34.485,0,0,1-4.077,5.209H4.7A34.485,34.485,0,0,1,.628,6.376Z" transform="translate(4.657 45.415)" fill="#b12233"/>
          <path id="Trazado_115702" data-name="Trazado 115702" d="M36.627,6.513a33.1,33.1,0,0,1-17.893,5.209A33.161,33.161,0,0,1,.766,6.513Z" transform="translate(14.937 55.621)" fill="#b12233"/>
          <path id="Trazado_115703" data-name="Trazado 115703" d="M49.227,6.445a32.025,32.025,0,0,1-6.342,5.134H7.024A34.352,34.352,0,0,1,.682,6.445Z" transform="translate(8.68 50.556)" fill="#fff"/>
          <path id="Trazado_115704" data-name="Trazado 115704" d="M49.227,10.968H.682A34.77,34.77,0,0,1,7.024,5.759H42.885A32.393,32.393,0,0,1,49.227,10.968Z" transform="translate(8.68 -0.55)" fill="#fff"/>
          <path id="Trazado_115705" data-name="Trazado 115705" d="M36.627,10.9H.766A28.323,28.323,0,0,1,4.088,9.087l.377-.151L5.6,8.408l.528-.226A33.424,33.424,0,0,1,18.659,5.69h.075A33.753,33.753,0,0,1,36.627,10.9Z" transform="translate(14.937 -5.69)" fill="#b12233"/>
          <path id="Trazado_115706" data-name="Trazado 115706" d="M57.327,10.962H.628L1.534,9.6l.151-.075a29.259,29.259,0,0,1,3.02-3.7H53.25A38.035,38.035,0,0,1,57.327,10.962Z" transform="translate(4.657 4.591)" fill="#b12233"/>
          <path id="Trazado_115707" data-name="Trazado 115707" d="M66.026,11.1H.57A31.308,31.308,0,0,1,2.231,5.965H64.365A31.307,31.307,0,0,1,66.026,11.1Z" transform="translate(0.336 14.797)" fill="#b12233"/>
          <path id="Trazado_115708" data-name="Trazado 115708" d="M62.726,11.105H.592l.453-.981,1.208-2.34L3.31,5.9h56.7A34.155,34.155,0,0,1,62.726,11.105Z" transform="translate(1.975 9.656)" fill="#fff"/>
          <path id="Trazado_115709" data-name="Trazado 115709" d="M67.676,11.242H.559l.075-.68L.861,8.675l.528-2.642H66.846A31.157,31.157,0,0,1,67.676,11.242Z" transform="translate(-0.484 19.863)" fill="#fff"/>
          <path id="Trazado_115710" data-name="Trazado 115710" d="M67.826,8.669l-.076,2.567H.633L.558,8.669.633,6.1H67.751Z" transform="translate(-0.558 25.003)" fill="#b12233"/>
        </g>
        <g id="Grupo_82673" data-name="Grupo 82673">
          <path id="Trazado_115711" data-name="Trazado 115711" d="M34.154,5.69V41.929H.633L.558,39.362l.075-2.567.075-.68.226-1.887.528-2.642a31.308,31.308,0,0,1,1.661-5.134l.453-.981,1.208-2.34,1.057-1.887.906-1.359.151-.075a29.259,29.259,0,0,1,3.02-3.7A34.77,34.77,0,0,1,16.261,10.9a28.323,28.323,0,0,1,3.322-1.812l.377-.151,1.132-.528.528-.226A33.424,33.424,0,0,1,34.154,5.69Z" transform="translate(-0.558 -5.69)" fill="#3c3b6d"/>
          <g id="Grupo_82672" data-name="Grupo 82672" transform="translate(0.151 1.759)">
            <g id="Grupo_82663" data-name="Grupo 82663" transform="translate(18.904)">
              <path id="Trazado_115712" data-name="Trazado 115712" d="M2.921,5.713,3.4,7.163H4.93l-1.238.906.476,1.457L2.921,8.62l-1.238.906.476-1.457L.921,7.163H2.453Z" transform="translate(7.399 -5.713)" fill="#fff"/>
              <path id="Trazado_115713" data-name="Trazado 115713" d="M3.74,8.463l.113.362-.491-.362L2.615,7.92l-.747.544-.491.362.113-.362.355-1.095L.81,6.614l.325-.151h1l.173-.528.528-.211.249.74H4.615l-1.231.906Z" transform="translate(-0.81 -5.013)" fill="#fff"/>
            </g>
            <g id="Grupo_82664" data-name="Grupo 82664" transform="translate(10.184 7.24)">
              <path id="Trazado_115714" data-name="Trazado 115714" d="M2.921,5.809,3.4,7.266H4.93l-1.238.9.476,1.457-1.246-.9-1.238.9.476-1.457-1.239-.9H2.453Z" transform="translate(16.119 -5.809)" fill="#fff"/>
              <path id="Trazado_115715" data-name="Trazado 115715" d="M2.816,5.809l.476,1.457H4.817l-1.238.9.476,1.457-1.238-.9-1.238.9.476-1.457-1.246-.9H2.341Z" transform="translate(7.708 -5.809)" fill="#fff"/>
              <path id="Trazado_115716" data-name="Trazado 115716" d="M2.7,5.809l.468,1.457H4.7l-1.239.9.476,1.457L2.7,8.723l-1.245.9.475-1.457-1.238-.9H2.227Z" transform="translate(-0.695 -5.809)" fill="#fff"/>
            </g>
            <g id="Grupo_82665" data-name="Grupo 82665" transform="translate(2.869 14.488)">
              <path id="Trazado_115717" data-name="Trazado 115717" d="M2.921,5.905,3.4,7.362H4.93l-1.238.9.476,1.457-1.246-.9-1.238.9.476-1.457-1.239-.9H2.453Z" transform="translate(23.434 -5.905)" fill="#fff"/>
              <path id="Trazado_115718" data-name="Trazado 115718" d="M2.816,5.905l.476,1.457H4.817l-1.238.9.476,1.457-1.238-.9-1.238.9.476-1.457-1.246-.9H2.341Z" transform="translate(15.023 -5.905)" fill="#fff"/>
              <path id="Trazado_115719" data-name="Trazado 115719" d="M2.7,5.905l.468,1.457H4.7l-1.239.9.476,1.457L2.7,8.819l-1.245.9.475-1.457-1.238-.9H2.227Z" transform="translate(6.62 -5.905)" fill="#fff"/>
              <path id="Trazado_115720" data-name="Trazado 115720" d="M2.183,7.053l.453,1.51L1.428,7.657l-.83.6,1.208-2.34.075.3h1.51Z" transform="translate(-0.598 -4.728)" fill="#fff"/>
            </g>
            <g id="Grupo_82666" data-name="Grupo 82666" transform="translate(1.668 21.728)">
              <path id="Trazado_115721" data-name="Trazado 115721" d="M2.921,6,3.4,7.458H4.93l-1.238.906.476,1.45-1.246-.9-1.238.9.476-1.45L.921,7.458H2.453Z" transform="translate(24.635 -6.001)" fill="#fff"/>
              <path id="Trazado_115722" data-name="Trazado 115722" d="M2.816,6l.476,1.457H4.817l-1.238.906.476,1.45-1.238-.9-1.238.9.476-1.45L.808,7.458H2.341Z" transform="translate(16.225 -6.001)" fill="#fff"/>
              <path id="Trazado_115723" data-name="Trazado 115723" d="M2.7,6l.468,1.457H4.7l-1.239.906.476,1.45L2.7,8.915l-1.245.9.475-1.45L.695,7.458H2.227Z" transform="translate(7.821 -6.001)" fill="#fff"/>
              <path id="Trazado_115724" data-name="Trazado 115724" d="M2.583,6l.476,1.457H4.591l-1.246.906.476,1.45-1.239-.9-1.238.9.476-1.45L.582,7.458H2.107Z" transform="translate(-0.582 -6.001)" fill="#fff"/>
            </g>
            <g id="Grupo_82667" data-name="Grupo 82667" transform="translate(1.668 28.976)">
              <path id="Trazado_115725" data-name="Trazado 115725" d="M2.921,6.1,3.4,7.554H4.93l-1.238.9L4.167,9.91l-1.246-.9-1.238.9.476-1.457-1.239-.9H2.453Z" transform="translate(24.635 -6.097)" fill="#fff"/>
              <path id="Trazado_115726" data-name="Trazado 115726" d="M2.816,6.1l.476,1.457H4.817l-1.238.9L4.054,9.91l-1.238-.9-1.238.9.476-1.457-1.246-.9H2.341Z" transform="translate(16.225 -6.097)" fill="#fff"/>
              <path id="Trazado_115727" data-name="Trazado 115727" d="M2.7,6.1l.468,1.457H4.7l-1.239.9L3.941,9.91,2.7,9.011l-1.245.9.475-1.457-1.238-.9H2.227Z" transform="translate(7.821 -6.097)" fill="#fff"/>
              <path id="Trazado_115728" data-name="Trazado 115728" d="M2.583,6.1l.476,1.457H4.591l-1.246.9L3.822,9.91l-1.239-.9-1.238.9L1.82,8.453l-1.238-.9H2.107Z" transform="translate(-0.582 -6.097)" fill="#fff"/>
            </g>
            <g id="Grupo_82668" data-name="Grupo 82668" transform="translate(0 25.352)">
              <path id="Trazado_115729" data-name="Trazado 115729" d="M2.865,6.049l.476,1.457H4.873l-1.238.9L4.1,9.862l-1.238-.9-1.238.9L2.1,8.4l-1.238-.9H2.4Z" transform="translate(22.101 -6.049)" fill="#fff"/>
              <path id="Trazado_115730" data-name="Trazado 115730" d="M2.76,6.049l.468,1.457H4.76l-1.237.9L4,9.862l-1.238-.9-1.238.9L1.989,8.4l-1.238-.9H2.284Z" transform="translate(13.691 -6.049)" fill="#fff"/>
              <path id="Trazado_115731" data-name="Trazado 115731" d="M2.64,6.049l.475,1.457H4.647l-1.238.9.468,1.457-1.237-.9-1.239.9L1.877,8.4l-1.238-.9H2.171Z" transform="translate(5.287 -6.049)" fill="#fff"/>
              <path id="Trazado_115732" data-name="Trazado 115732" d="M.711,6.974l.528,1.51L.56,7.955.786,6.068H1.994Z" transform="translate(-0.56 -4.641)" fill="#fff"/>
            </g>
            <g id="Grupo_82669" data-name="Grupo 82669" transform="translate(5.926 18.112)">
              <path id="Trazado_115733" data-name="Trazado 115733" d="M2.865,5.953,3.341,7.41H4.873l-1.238.9L4.1,9.766,2.865,8.86l-1.238.906L2.1,8.309.864,7.41H2.4Z" transform="translate(16.176 -5.953)" fill="#fff"/>
              <path id="Trazado_115734" data-name="Trazado 115734" d="M2.76,5.953,3.228,7.41H4.76l-1.237.9L4,9.766,2.76,8.86l-1.238.906.468-1.457L.751,7.41H2.284Z" transform="translate(7.765 -5.953)" fill="#fff"/>
              <path id="Trazado_115735" data-name="Trazado 115735" d="M2.64,5.953,3.115,7.41H4.647l-1.238.9.468,1.457L2.64,8.86,1.4,9.766l.476-1.457L.638,7.41H2.171Z" transform="translate(-0.638 -5.953)" fill="#fff"/>
            </g>
            <g id="Grupo_82670" data-name="Grupo 82670" transform="translate(6.077 10.864)">
              <path id="Trazado_115736" data-name="Trazado 115736" d="M2.865,5.857l.476,1.457H4.873l-1.238.9L4.1,9.67l-1.238-.9-1.238.9L2.1,8.213l-1.238-.9H2.4Z" transform="translate(16.025 -5.857)" fill="#fff"/>
              <path id="Trazado_115737" data-name="Trazado 115737" d="M2.76,5.857l.468,1.457H4.76l-1.237.9L4,9.67l-1.238-.9-1.238.9.468-1.457-1.238-.9H2.284Z" transform="translate(7.614 -5.857)" fill="#fff"/>
              <path id="Trazado_115738" data-name="Trazado 115738" d="M3.449,8.794l.287.876L2.528,8.794l-.037-.023-.038.023-1.2.876.287-.876.189-.581L.64,7.428l.083-.113H2.015l.476-1.457.475,1.457H4.5l-1.238.9Z" transform="translate(-0.64 -5.857)" fill="#fff"/>
            </g>
            <g id="Grupo_82671" data-name="Grupo 82671" transform="translate(14.442 3.616)">
              <path id="Trazado_115739" data-name="Trazado 115739" d="M2.865,5.761l.476,1.457H4.873l-1.238.906L4.1,9.574l-1.238-.9-1.238.9L2.1,8.124.864,7.218H2.4Z" transform="translate(7.659 -5.761)" fill="#fff"/>
              <path id="Trazado_115740" data-name="Trazado 115740" d="M2.76,5.761l.468,1.457H4.76l-1.237.906L4,9.574l-1.238-.9-1.238.9.468-1.45L.751,7.218H2.284Z" transform="translate(-0.751 -5.761)" fill="#fff"/>
            </g>
          </g>
        </g>
      </g>
    </g>
  </g>
</svg>
