<svg xmlns="http://www.w3.org/2000/svg" xmlns:xlink="http://www.w3.org/1999/xlink" width="118.076" height="118.076" viewBox="0 0 118.076 118.076">
  <defs>
    <clipPath id="clip-path">
      <rect id="Rectángulo_38084" data-name="Rectángulo 38084" width="67.272" height="67.259" fill="none"/>
    </clipPath>
  </defs>
  <g id="Grupo_159039" data-name="Grupo 159039" transform="translate(-839 -2231)">
    <circle id="Elipse_4823" data-name="Elipse 4823" cx="59.038" cy="59.038" r="59.038" transform="translate(839 2231)" fill="#ff9fa3"/>
    <g id="Grupo_159038" data-name="Grupo 159038" transform="translate(865 2257)">
      <g id="Grupo_158978" data-name="Grupo 158978" clip-path="url(#clip-path)">
        <path id="Trazado_136002" data-name="Trazado 136002" d="M91.63,66.966a21.357,21.357,0,0,1-4.033.294l.01-.039a3.388,3.388,0,0,1-.439-2.447Q87.152,35.98,87.16,7.185c0-1.79-.011-3.58.006-5.369A2.384,2.384,0,0,1,87.607.04L87.6,0A21.3,21.3,0,0,1,91.63.295a3.035,3.035,0,0,1,.424,2.184q.015,10.67.006,21.341a13.665,13.665,0,0,0,.064,1.876,3.713,3.713,0,0,0,3.409,3.411,13.6,13.6,0,0,0,1.876.063q10.67,0,21.341.007a3.035,3.035,0,0,1,2.184.423,26.777,26.777,0,0,1,0,8.061,3.036,3.036,0,0,1-2.184.423q-10.67.016-21.34.007a13.6,13.6,0,0,0-1.876.063,3.714,3.714,0,0,0-3.409,3.411,13.725,13.725,0,0,0-.063,1.876q0,10.67-.006,21.34a3.037,3.037,0,0,1-.424,2.184" transform="translate(-53.967 -0.001)" fill="#fe1f3d"/>
        <path id="Trazado_136003" data-name="Trazado 136003" d="M128.234,30.078q-12.225,0-24.449,0c-3.278,0-4.849-1.573-4.851-4.852Q98.929,13,98.93.773a27.916,27.916,0,0,1,8.115,1.957,3.8,3.8,0,0,1,.384,2.21c0,4.917,0,9.834,0,14.751,0,1.818.065,1.881,1.884,1.884,4.917.007,9.834,0,14.751,0a3.8,3.8,0,0,1,2.21.385,28.521,28.521,0,0,1,1.955,8.114" transform="translate(-61.267 -0.479)" fill="#e1def3"/>
        <path id="Trazado_136004" data-name="Trazado 136004" d="M98.929,128.229q0-12.225,0-24.449c0-3.284,1.568-4.851,4.849-4.852q12.225-.005,24.45,0a28.6,28.6,0,0,1-1.956,8.114,3.8,3.8,0,0,1-2.21.384c-4.917,0-9.834,0-14.751,0-1.817,0-1.88.066-1.883,1.884-.007,4.917,0,9.834,0,14.751a3.8,3.8,0,0,1-.384,2.21,28.058,28.058,0,0,1-8.115,1.957" transform="translate(-61.266 -61.263)" fill="#e1def3"/>
        <path id="Trazado_136005" data-name="Trazado 136005" d="M139.386,25.147c-6.127.014-12.254.019-18.381.057-.7,0-.915-.207-.911-.911.038-6.127.043-12.254.058-18.381a33.608,33.608,0,0,1,19.234,19.234" transform="translate(-74.374 -3.662)" fill="#3340d7"/>
        <path id="Trazado_136006" data-name="Trazado 136006" d="M120.152,139.377c-.015-6.127-.019-12.254-.058-18.381,0-.7.205-.916.91-.911,6.127.038,12.254.043,18.381.058a33.633,33.633,0,0,1-19.233,19.233" transform="translate(-74.374 -74.368)" fill="#3340d7"/>
        <path id="Trazado_136007" data-name="Trazado 136007" d="M33.639.051V67.231a21.272,21.272,0,0,1-4.038-.264,3.021,3.021,0,0,1-.421-2.185q-.017-10.611-.007-21.223c0-.493.011-.986-.01-1.478-.1-2.488-1.482-3.917-3.971-3.961-3.76-.066-7.522-.017-11.283-.02-3.85,0-7.7.006-11.552-.006a2.815,2.815,0,0,1-2.05-.421,26.6,26.6,0,0,1,0-8.065,3.025,3.025,0,0,1,2.185-.42q10.611-.017,21.223-.006c.493,0,.985.011,1.478-.01,2.487-.1,3.916-1.483,3.96-3.972.066-3.76.017-7.522.02-11.283,0-3.85-.006-7.7.006-11.552A2.815,2.815,0,0,1,29.6.315,21.179,21.179,0,0,1,33.639.051" transform="translate(0 -0.011)" fill="#fe6378"/>
        <path id="Trazado_136008" data-name="Trazado 136008" d="M30.1.8q0,12.3,0,24.591c0,3.121-1.58,4.7-4.7,4.7q-12.3.005-24.591,0a27.178,27.178,0,0,1,2.05-8.078,3.371,3.371,0,0,1,2.2-.42c4.883-.007,9.767,0,14.65-.006,1.822,0,1.887-.068,1.89-1.888.008-4.883,0-9.767.006-14.65a3.361,3.361,0,0,1,.421-2.2A27.167,27.167,0,0,1,30.1.8" transform="translate(-0.5 -0.494)" fill="#f3f3f5"/>
        <path id="Trazado_136009" data-name="Trazado 136009" d="M.808,98.927q12.3,0,24.591,0c3.122,0,4.7,1.577,4.7,4.7q.006,12.3,0,24.592a27.846,27.846,0,0,1-8.078-2.053,3.359,3.359,0,0,1-.421-2.2c-.007-4.883,0-9.766-.006-14.649,0-1.821-.068-1.886-1.889-1.889-4.883-.008-9.766,0-14.649-.006a3.366,3.366,0,0,1-2.2-.421A27.142,27.142,0,0,1,.808,98.927" transform="translate(-0.5 -61.265)" fill="#f3f3f5"/>
        <path id="Trazado_136010" data-name="Trazado 136010" d="M25.358,6.188c0,6-.014,12,.032,18.007.007.945-.249,1.2-1.191,1.189-6-.046-12-.029-18.007-.032A32.886,32.886,0,0,1,21,8.189a19.327,19.327,0,0,1,4.36-2" transform="translate(-3.835 -3.832)" fill="#2681fe"/>
        <path id="Trazado_136011" data-name="Trazado 136011" d="M6.2,120.094c6,0,12,.014,18.006-.032.943-.008,1.2.244,1.19,1.189-.046,6-.029,12-.032,18.006A32.693,32.693,0,0,1,6.2,120.094" transform="translate(-3.837 -74.354)" fill="#2681fe"/>
      </g>
    </g>
  </g>
</svg>
