<svg id="Grupo_159058" data-name="Grupo 159058" xmlns="http://www.w3.org/2000/svg" xmlns:xlink="http://www.w3.org/1999/xlink" width="172.548" height="148.896" viewBox="0 0 172.548 148.896">
  <defs>
    <clipPath id="clip-path">
      <rect id="Rectángulo_38124" data-name="Rectángulo 38124" width="172.548" height="148.896" fill="none"/>
    </clipPath>
  </defs>
  <g id="Grupo_159058-2" data-name="Grupo 159058" clip-path="url(#clip-path)">
    <path id="Trazado_136417" data-name="Trazado 136417" d="M164.332,36.873c1.745.3,2.2,1.547,2.076,3.057a4.7,4.7,0,0,0,1.852,4.394,11.732,11.732,0,0,1,3.809,12.525,12.216,12.216,0,0,1-9.375,9.193c-1.245.315-1.569.528-.652,1.709a19.315,19.315,0,0,1,.767,23.616c-.527.773-.688,1.053.33,1.576a14.692,14.692,0,0,1,8.517,13.936q.028,11.429,0,22.859c0,2.6-.811,3.4-3.436,3.4-12.814.009-25.627.04-38.439-.044-1.593-.01-2.02.57-2.259,1.951-.645,3.746-1.434,7.467-2.111,11.209a4.62,4.62,0,0,1-1.7,2.637H48.5a4.07,4.07,0,0,1-2-3.217c-.676-3.683-1.5-7.34-2.088-11.035-.209-1.307-.737-1.589-1.917-1.52-1.552.09-3.116.068-4.672,0a2.663,2.663,0,0,1-2.86-2.59,2.427,2.427,0,0,1,2.389-2.868,30.971,30.971,0,0,1,3.634-.056c1.058,0,1.468-.424,1.248-1.494-.442-2.149-.831-4.308-1.319-6.447a5.935,5.935,0,0,0-1.689-2.771c-5.958-6.206-12.368-11.94-18.583-17.878A2.552,2.552,0,0,0,19,98.141a28.225,28.225,0,0,0-6.56.151,8.493,8.493,0,0,0-6.72,8.214c-.177,6.462-.038,12.93-.06,19.4-.005,1.588.973,1.717,2.179,1.715q8.138-.013,16.277,0a8.89,8.89,0,0,1,2.24.149,2.164,2.164,0,0,1,1.782,2.778c-.52,2.051-1.139,2.59-3.237,2.6q-10.829.028-21.655,0c-2.321-.008-3.215-.945-3.219-3.305-.012-7.682-.055-15.363.011-23.044a14.182,14.182,0,0,1,14.539-14.4,1.138,1.138,0,0,1,.173,0c4.289.7,7.986-.921,11.584-2.945,1.247-.7,1.408-3.478.161-4.188a31.412,31.412,0,0,1-15.355-19.8c-.292-1.082-1.112-.889-1.729-1.064a12.485,12.485,0,0,1-7.7-17.99A11.567,11.567,0,0,1,5.489,42.2a1.674,1.674,0,0,0,.818-1.849c-.49-4.882-.867-9.775-1.381-14.654a14.672,14.672,0,0,1,8.4-15.131,5.3,5.3,0,0,0,2.188-1.82A19.38,19.38,0,0,1,31.954.051q11.692-.1,23.387,0A17.67,17.67,0,0,1,71.385,9.444a2.9,2.9,0,0,0,1.187,1.177c6.156,3.342,8.773,8.544,8.092,15.481-.514,5.228-.959,10.462-1.507,15.686a1.956,1.956,0,0,0,.735,1.782A11.631,11.631,0,0,1,83.1,49.207c.194.805.432,1.228,1.328,1.183a3.908,3.908,0,0,1,1.516.275c.929.347,1.419.008,1.689-.875a11.55,11.55,0,0,1,3.633-5.572c.719-.606.611-1.306.6-2.03-.1-5.329.14-10.6,1.966-15.7A34.026,34.026,0,0,1,125.86,3.781c5.185,0,10.411-.419,15.514.894,11.4,2.931,19.114,9.98,23.24,20.976.847,2.255.565,2.984-1.426,4.334-1.751.567-2.973-.075-3.721-2.187A27.8,27.8,0,0,0,155,19.674a25.71,25.71,0,0,0-16.688-9.789,64.219,64.219,0,0,0-15.348-.2c-6.208.815-10.324,5.7-10.6,11.932-.368,8.292,5.539,16.07,13.873,18.208a15.034,15.034,0,0,0,3.767.433q12.459-.007,24.918,0c1.2-.036,2.407-.059,3.605,0a2.007,2.007,0,0,0,2.394-1.591c.585-1.853,1.637-2.287,3.407-1.792" transform="translate(0 0)"/>
    <path id="Trazado_136418" data-name="Trazado 136418" d="M27.692,122.181c-.541-2.088-1.086-2.552-3.254-2.558-5.948-.02-11.9-.049-17.845.023-1.41.016-1.875-.335-1.856-1.814.082-6.353.019-12.708.04-19.062.02-5.748,3.84-9.307,9.573-9.617a10.36,10.36,0,0,1,8.627,3.37C28.4,97.949,34.2,103,39.448,108.613a6,6,0,0,1,1.7,3.288,49.042,49.042,0,0,0,1.168,5.936c.471,1.642-.147,1.911-1.548,1.793-.918-.078-1.85.033-2.771-.024-1.9-.119-3.11.645-3.48,2.572l-6.823,0" transform="translate(0.444 8.36)" fill="#0ab59e"/>
    <path id="Trazado_136419" data-name="Trazado 136419" d="M152.446,36.055c-2.178.083-2.911.66-3.128,2.787-.1.931-.456,1.163-1.29,1.14-1.668-.044-3.337-.03-5.006-.039-.832-1.206-.4-2.572-.448-3.863A31.7,31.7,0,0,0,137.1,18.523a29.972,29.972,0,0,0-8.919-8.294c-.586-.363-1.439-.557-1.456-1.506a24.511,24.511,0,0,1,13.246,6.167,26.278,26.278,0,0,1,7.954,11.923,3.076,3.076,0,0,0,3.377,2.353,22.708,22.708,0,0,1,.72,5.177c.014.592-.214,1.267.424,1.712" transform="translate(11.887 0.818)" fill="#444"/>
    <path id="Trazado_136420" data-name="Trazado 136420" d="M65.4,39.287c-10.729.174-21.468.591-32.183-.088C22.2,38.5,13.667,26.692,16.184,16.028A14.273,14.273,0,0,1,29.546,4.9c7.9-.168,15.806-.01,23.71.008a12.7,12.7,0,0,1,4.687,4.958A5.192,5.192,0,0,0,60.1,12.017c5.425,3.02,7.768,7.524,6.916,13.792-.534,3.928-.674,7.91-1.131,11.857a2.657,2.657,0,0,1-.485,1.621" transform="translate(1.476 0.452)" fill="#d67e4a"/>
    <path id="Trazado_136421" data-name="Trazado 136421" d="M48.258,79.676A26.371,26.371,0,0,1,16.027,64.591a21.3,21.3,0,0,1-1.886-8.039c-.074-6.9-.933-13.857,1.166-20.636.288-.929.666-1.83,1.1-3a25.576,25.576,0,0,0,17.3,8.96,48.449,48.449,0,0,0,6.043.106c7.041.025,14.083.008,21.123.011,1.867,0,2.084.172,2.118,2.061.06,3.29.02,6.58.02,9.87a4.92,4.92,0,0,1-.529,2.165L59.6,59.852a3.619,3.619,0,0,1-2.153.445c-1.124.092-2.26.264-2.575,1.584-.3,1.251.53,1.891,1.521,2.389.3.15.632.316.553.76a40.732,40.732,0,0,0-1.8,9.014c-1.634,2.686-4.235,4.19-6.887,5.632" transform="translate(1.304 3.088)" fill="#fecdbe"/>
    <path id="Trazado_136422" data-name="Trazado 136422" d="M129.022,8.78c2.358,1.613,4.882,3.02,6.922,5.048a30.2,30.2,0,0,1,9.093,18.786c.26,2.474.144,4.926.283,7.386-8.777,0-17.559.18-26.328-.067-8.41-.236-16.256-8.631-16.738-17.091-.42-7.383,3.421-11.792,7.756-13.6a13.45,13.45,0,0,1,4.37-.948,85.158,85.158,0,0,1,13.993.253,2.778,2.778,0,0,1,.65.234" transform="translate(9.588 0.761)" fill="#5a5a5a"/>
    <path id="Trazado_136423" data-name="Trazado 136423" d="M129.154,81.2c-7.1,2.4-13.946,1.6-20.622-1.595-.9-.432-.849-1.117-.818-1.867A35.385,35.385,0,0,0,105.9,64.118a.92.92,0,0,1,.074-.651c.924-2.389.725-2.775-1.809-3.518a1.237,1.237,0,0,1-.573-.34,29,29,0,0,0-9.1-8.862,1.4,1.4,0,0,1-.835-1.363c.051-1.962.061-3.926.043-5.888-.007-.8.271-1.113,1.1-1.123a30.043,30.043,0,0,0,13.287-3.348,1.588,1.588,0,0,1,1.745.172,24.7,24.7,0,0,0,9.613,3.16c2.995.279,6,.088,8.993.112q7.017.056,14.035-.012c1.077-.011,1.689.328,1.7,1.416.067,4.793.191,9.586-.073,14.376a3.534,3.534,0,0,1-.373,1.325c-.359.75-1.042.574-1.659.557-1.556-.046-3.114-.037-4.671-.016-1.014.013-2.027.132-2.377,1.3a1.924,1.924,0,0,0,1.085,2.3c1.5.635,3.064.214,4.6.318,1.764.119,2.063.473,1.384,2.135-2.633,6.449-6.654,11.72-12.939,15.032" transform="translate(8.785 3.643)" fill="#fecdbe"/>
    <path id="Trazado_136424" data-name="Trazado 136424" d="M100.742,76.488A47.944,47.944,0,0,1,92.8,76.3c-5.337-.885-8.452-4.211-8.989-9.612-.191-1.929-1.153-3-2.662-2.959s-2.421,1.132-2.561,3.117A10.147,10.147,0,0,1,68.5,76.5c-3.579.071-7.159,0-10.738.031-.887.009-1.32-.145-1.378-1.208C55.719,63.22,63.6,53.1,75.448,51c1.467-.26,2.984-.613,4.031,1.238a2.281,2.281,0,0,0,3.614-.028c1.033-1.91,2.516-1.328,3.992-1.17a10.359,10.359,0,0,1,1.18.264c7.94,4.163,12.012,10.878,12.941,19.653a19.584,19.584,0,0,1,.334,3.775c-.059.681.015,1.419-.8,1.754" transform="translate(5.285 4.764)" fill="#5a5a5a"/>
    <path id="Trazado_136425" data-name="Trazado 136425" d="M99.277,133.24q-18.443.028-36.887.078c-.885,0-1.175-.366-1.415-1.115-1.133-3.509-2.527-6.948-3.437-10.511-1.664-6.512,2.749-10.828,7.669-10.72,1.269.027,2.669-.316,3.775.115,1.279.5.8,2.207,1.258,3.34a11.858,11.858,0,0,0,11.925,7.447,11.338,11.338,0,0,0,10.3-8.825c.4-1.94,1.205-2.313,2.836-2.074.283.042.57.069.855.1,2.562,1.594,3.439,4.177,3.578,6.916.228,4.479.07,8.976.06,13.465a2.539,2.539,0,0,1-.514,1.782" transform="translate(5.363 10.399)" fill="#ef7280"/>
    <path id="Trazado_136426" data-name="Trazado 136426" d="M86.077,106.731c-10.346,3.536-22.458-3.864-24.283-14.841-.63-3.786-.185-7.6-.34-11.4-.043-1.048.634-.862,1.249-.883a61.875,61.875,0,0,0,7.6-.222,14.938,14.938,0,0,0,9.53-5.432c.634-.772.932-1.181,1.8-.1a15.107,15.107,0,0,0,12.059,5.751c.69.014,1.381.04,2.072.061a3.108,3.108,0,0,1,.533,2.3q.03,3.81,0,7.619c-.02,2.716-.246,2.936-2.958,3.019-.231.007-.46.016-.684.045-.924.259-1.824.611-1.826,1.76,0,.966.755,1.35,1.573,1.595.223.059.446.112.672.159,1.561.33,1.7.517,1.023,1.915a17.661,17.661,0,0,1-8.024,8.651" transform="translate(5.763 6.866)" fill="#fecdbe"/>
    <path id="Trazado_136427" data-name="Trazado 136427" d="M142.784,104.037c0,4.733-.034,9.466.025,14.2.014,1.116-.271,1.482-1.43,1.474q-10.991-.074-21.984.005c-1.371.013-1.485-.462-1.233-1.6q.784-3.542,1.385-7.125a3.438,3.438,0,0,1,1.152-1.861q6.072-6.29,12.142-12.581c2.066-2.153,2.208-3.562.7-6.173-.693-1.2-.213-2.061,1.192-2.073,2.25-.018,4.5.06,6.75-.032,1.131-.045,1.326.389,1.316,1.4-.045,4.79-.02,9.581-.02,14.37" transform="translate(11.073 8.279)" fill="#528ed7"/>
    <path id="Trazado_136428" data-name="Trazado 136428" d="M42.943,94.039c3.476,4.2,4.953,9.237,6.575,14.223,2.829,8.7,5.756,17.363,8.639,26.043a3.9,3.9,0,0,1,.063.567c-3.037,0-6.052,0-9.068,0-.789,0-.68-.613-.776-1.1-1.6-8.194-3.233-16.384-4.8-24.586a5.974,5.974,0,0,0-1.839-3.6C38,102.263,34.283,98.906,30.555,95.56q.359-.448.721-.895a16.357,16.357,0,0,1,3.67.766c1.183.224,2.339.6,3.511.895,2.682.662,3.488.246,4.487-2.287" transform="translate(2.866 8.821)" fill="#fecdbe"/>
    <path id="Trazado_136429" data-name="Trazado 136429" d="M62.179,39.283q.43-7.3,1.319-14.553a12.1,12.1,0,0,0-6.838-12.3,4.5,4.5,0,0,1-2.339-2.375c-.909-2.134-2.988-3.324-4.282-5.155a12.449,12.449,0,0,1,12.377,7.151A4.936,4.936,0,0,0,65.049,14.6a8.971,8.971,0,0,1,5.776,9.165c-.306,4.833-.877,9.651-1.3,14.479-.067.769-.277,1.136-1.123,1.111-2.075-.063-4.152-.053-6.228-.072" transform="translate(4.694 0.456)" fill="#c76d36"/>
    <path id="Trazado_136430" data-name="Trazado 136430" d="M99.062,14.689a23.879,23.879,0,0,0,.326,13.272,21.973,21.973,0,0,0,4.64,8.228c.816.887.648,1.208-.422,1.642-4.529,1.833-9.27,1.63-14,1.6-.551,0-.855-.237-.87-.82-.229-9.506,2.685-17.683,10.113-23.953.025-.022.1.011.212.027" transform="translate(8.322 1.375)" fill="#5a5a5a"/>
    <path id="Trazado_136431" data-name="Trazado 136431" d="M107.944,134.865h-6.423c-.3-.6.139-1.1.3-1.59,3.442-10.432,6.932-20.847,10.37-31.279.972-2.951,2.925-5.324,4.623-8.5.1,1.5.506,2.356,1.42,2.883,1.018.587,2.019.194,3.021-.025,1.344-.294,2.684-.616,4.026-.925.162.757-.417,1.144-.82,1.606-2.918,3.339-6.039,6.487-9.229,9.562a7.488,7.488,0,0,0-2.244,4.146c-1.423,7.23-2.752,14.48-4.249,21.7a4.677,4.677,0,0,1-.8,2.424" transform="translate(9.513 8.77)" fill="#fecdbe"/>
    <path id="Trazado_136432" data-name="Trazado 136432" d="M141.13,59.671c.7-5.22.162-10.467.372-15.7.052-1.343-.439-1.635-1.69-1.626-6.86.051-13.72.028-20.58.007-.667,0-1.395.215-1.994-.3q13.665.044,27.329.1c.617,0,1.447-.315,1.447.877,0,5.648.457,11.321-.417,16.929-1.5,9.627-9.936,18.992-18.655,20.942,1.549-1.262,3.138-2.477,4.638-3.8a28.1,28.1,0,0,0,8.2-12.3,1.674,1.674,0,0,0,0-.5c-1.974-.468-4.025.36-5.952-.451.942-.8,2.077-.418,3.134-.5.684-.05,1.376.016,2.061-.023,1.885-.105,2.406-.762,2.127-2.659a1.647,1.647,0,0,1-.027-1.006" transform="translate(10.997 3.945)" fill="#feaf9d"/>
    <path id="Trazado_136433" data-name="Trazado 136433" d="M145.472,91.7V88.77c4.232.748,7.278,4.653,7.33,9.553.059,5.6.032,11.2,0,16.793-.008,1.432.61,3.266-.253,4.191-.879.944-2.733.268-4.158.29a5.722,5.722,0,0,1-2.864-.178,3.165,3.165,0,0,0,1.1-2.753q-.044-9.61-.007-19.219c.008-2-.76-3.833-1.156-5.745" transform="translate(13.645 8.327)" fill="#b1c9eb"/>
    <path id="Trazado_136434" data-name="Trazado 136434" d="M60.219,99.77a10.779,10.779,0,0,1-5.275,9.15c-1.006.619-1.36.544-1.779-.631-1.388-3.893-2.237-7.986-4.249-11.649a1.463,1.463,0,0,1,.2-1.616,9.919,9.919,0,0,1,2.5-2.827c.749-.527,1.526-1.466,2.365-1.228a18.559,18.559,0,0,1,4.145,1.964c.533.31,2.085,6,2.092,6.837" transform="translate(4.573 8.529)" fill="#5a5a5a"/>
    <path id="Trazado_136435" data-name="Trazado 136435" d="M107.385,134.77c.429-4,1.492-7.882,2.2-11.832.8-4.456,1.807-8.874,2.61-13.329a4.751,4.751,0,0,1,1.42-2.663c3.789-3.788,7.638-7.519,11.112-11.608l2.843-.826c-.013.78-.541,1.008-.866,1.349-2.584,2.709-5.08,5.516-7.826,8.051a12.336,12.336,0,0,0-3.853,7.419c-1.271,7.365-2.833,14.679-4.184,22.03-.456,2.483-2.215,1.167-3.452,1.409" transform="translate(10.073 8.865)" fill="#feaf9d"/>
    <path id="Trazado_136436" data-name="Trazado 136436" d="M98,76.444c.908-2.515.2-5.051-.2-7.48-1.251-7.581-5.4-13.3-11.934-17.316a1.76,1.76,0,0,1-.338-.386,22.552,22.552,0,0,1,17.728,24.076c-.068.941-.431,1.181-1.271,1.151-1.326-.046-2.654-.032-3.98-.044" transform="translate(8.022 4.808)" fill="#444"/>
    <path id="Trazado_136437" data-name="Trazado 136437" d="M89.815,91.884a1.983,1.983,0,0,1,1.8-.293c1.714.229,2.129-.5,2.073-2.125-.118-3.444-.037-6.9-.038-10.344,4.364-.246,4.38-.246,4.356,4.112-.019,3.5.278,7.045-.911,10.433-2.242,6.4-6.516,10.7-13.132,12.517,3.208-2.481,6.1-5.236,7.764-9.04.114-.258.222-.52.335-.785-.543-.616-1.428.032-1.894-.615.65-.665,1.5-.446,2.278-.494a7.685,7.685,0,0,0,1.881-.153,1.334,1.334,0,0,0,1.078-1.2,1.291,1.291,0,0,0-1.095-1.351,12.1,12.1,0,0,0-2.742-.16c-.619-.036-1.282.054-1.756-.5" transform="translate(7.876 7.413)" fill="#fdaf9d"/>
    <path id="Trazado_136438" data-name="Trazado 136438" d="M141.692,73.716a36.279,36.279,0,0,0,4.562-7.192,13.6,13.6,0,0,1,1.8,9.862,9.3,9.3,0,0,1-.886,2.963c-2.719,5.18-3.3,6.286-9.348,5.721a1.279,1.279,0,0,1,.3-1.28,19.956,19.956,0,0,0,3.579-10.074" transform="translate(12.92 6.24)" fill="#444"/>
    <path id="Trazado_136439" data-name="Trazado 136439" d="M106.479,103.225c-.5,1.646-1.012,3.29-1.5,4.941-.242.812-.652.76-1.249.346-3.437-2.381-6.062-7.512-3.885-12.29a7.782,7.782,0,0,0,.7-1.94,2.4,2.4,0,0,1,2.4-2.219c1.119-.4,1.544.445,1.973,1.165a12.343,12.343,0,0,1,1.56,10" transform="translate(9.291 8.626)" fill="#5a5a5a"/>
    <path id="Trazado_136440" data-name="Trazado 136440" d="M95.935,133.225c0-4.208-.141-8.421.049-12.62a13.046,13.046,0,0,0-3.173-9.542c4.261-.384,7.56,1.659,8.736,5.387a2.749,2.749,0,0,1,.045,1.831c-1.584,4.677-3.111,9.373-4.676,14.055-.148.443-.193,1.107-.981.889" transform="translate(8.706 10.413)" fill="#ea5569"/>
    <path id="Trazado_136441" data-name="Trazado 136441" d="M118.976,87.745l-2.441-.329a15.575,15.575,0,0,1-5.018-.567c-.767-.235-1.131.357-1.617.713-.491-1.7-.135-3.426-.241-5.292a40.909,40.909,0,0,0,7.193,1.339,31.953,31.953,0,0,0,11.3-1.092c1.075-.319,1.3-.054,1.212.949-.137,1.479.237,2.992-.28,4.447-.63-1.042-1.472-1.143-2.616-.838a18.037,18.037,0,0,1-7.489.668" transform="translate(10.283 7.717)" fill="#fea68e"/>
    <path id="Trazado_136442" data-name="Trazado 136442" d="M60.777,55.323c-.01-4.1-.072-8.194,0-12.289.023-1.327-.419-1.643-1.683-1.636-8.364.045-16.729.022-25.094,0-.667,0-1.392.22-2-.285,10.673.016,21.347.049,32.021.025,1.1,0,1.385.387,1.371,1.4-.036,2.655-.009,5.309.02,7.965a1.657,1.657,0,0,1-.711,1.455c-1.346,1.075-2.622,2.24-3.926,3.369" transform="translate(3.002 3.856)" fill="#feaf9d"/>
    <path id="Trazado_136443" data-name="Trazado 136443" d="M86.023,110.981a6.362,6.362,0,0,1-12.575.724c-.156-1.774.018-2.043,1.648-1.771a28.224,28.224,0,0,0,9.425-.016c.71-.119,1.753-.345,1.5,1.063" transform="translate(6.885 10.302)" fill="#feaf9d"/>
    <path id="Trazado_136444" data-name="Trazado 136444" d="M142.2,73.1c.7,1.5-.07,2.913-.353,4.321-.529,2.642-2.029,4.847-3.522,7.033-1.55.02-3.1,0-4.649.075-1,.051-1.211-.353-1.287-1.292a3.089,3.089,0,0,1,1.794-3.426A29.822,29.822,0,0,0,142.2,73.1" transform="translate(12.415 6.857)" fill="#5a5a5a"/>
    <path id="Trazado_136445" data-name="Trazado 136445" d="M148.322,56.654V42.749a7.069,7.069,0,0,1,5.082,6.657,7.422,7.422,0,0,1-5.082,7.249" transform="translate(13.912 4.01)" fill="#fca58d"/>
    <path id="Trazado_136446" data-name="Trazado 136446" d="M9.555,55.11a6.992,6.992,0,0,1-4.583-6.788,6.9,6.9,0,0,1,4.583-6.549Z" transform="translate(0.466 3.918)" fill="#feaf9d"/>
    <path id="Trazado_136447" data-name="Trazado 136447" d="M145.477,91.451a10.015,10.015,0,0,1,1.69,5.676c-.037,6.8-.049,13.6.018,20.394.012,1.3-.375,1.819-1.647,1.647-.04-2.866-.115-5.73-.115-8.6,0-6.374.034-12.747.055-19.121" transform="translate(13.64 8.578)" fill="#bfd5f1"/>
    <path id="Trazado_136448" data-name="Trazado 136448" d="M10.268,34.968c-.331-3.677-.632-7.359-1.006-11.032a9.691,9.691,0,0,1,1.819-7.281c.225,2.2-.039,4.2.46,6.122a11.446,11.446,0,0,0,.6,2.512,7.236,7.236,0,0,1-.443,8.136,9.442,9.442,0,0,0-.82,2.264c-.713.193-.38-.505-.613-.721" transform="translate(0.861 1.562)" fill="#d57e49"/>
    <path id="Trazado_136449" data-name="Trazado 136449" d="M31.855,83.108c-.872-.626-2.631-.868-2.061-2.255.447-1.087,1.758,0,2.647.166a35.264,35.264,0,0,0,14.74-.351c.431-.1,1.014-.718,1.34-.013a1.154,1.154,0,0,1-.653,1.576c-.508.255-.978.583-1.465.878a29.03,29.03,0,0,1-14.549,0" transform="translate(2.784 7.534)" fill="#fda68e"/>
    <path id="Trazado_136450" data-name="Trazado 136450" d="M31.669,82.9c.873-.828,1.766-.031,2.59.073a30.41,30.41,0,0,0,10.866-.333.954.954,0,0,1,1.093.26c-2.171,1.493-4.353,2.973-6.507,4.491a1.15,1.15,0,0,1-1.534,0c-2.154-1.518-4.336-3-6.508-4.49" transform="translate(2.971 7.741)" fill="#fdaf9d"/>
    <path id="Trazado_136451" data-name="Trazado 136451" d="M106.145,103.319c.1-3.4-.026-6.756-1.937-9.771-.406-.639-.72-1.32-1.6-1.392.937-.447,1.742-1.574,2.885-1.076a9.121,9.121,0,0,1,4.125,3.783.665.665,0,0,1-.089.8c-1.793,2.262-2.224,5.123-3.389,7.659" transform="translate(9.625 8.531)" fill="#434343"/>
    <path id="Trazado_136452" data-name="Trazado 136452" d="M118.175,87.411c2.255-.552,4.625-.3,6.864-.979.435-.131.9-.182,1.319-.352,1.541-.63,2.056.009,1.923,1.5a2.115,2.115,0,0,1-2.118,2.539,12.106,12.106,0,0,0-1.675.412c-1.7.447-3.452,1.288-4.222-1.391-.244-.848-1.294-1.261-2.091-1.729" transform="translate(11.085 8.052)" fill="#fdaf9d"/>
    <path id="Trazado_136453" data-name="Trazado 136453" d="M23.372,87.789c2.558-2.38,4.976-2.317,7.424-.005a29.935,29.935,0,0,0,3.4,2.381,14.8,14.8,0,0,1-4.369-.782c-.805-.167-1.723-.489-2.366-.1-2.229,1.343-2.929-.615-4.093-1.492" transform="translate(2.192 8.069)" fill="#bed3ef"/>
    <path id="Trazado_136454" data-name="Trazado 136454" d="M86.053,111.078c-.123-.816-.564-.754-1.247-.607a22.546,22.546,0,0,1-9.745.052c-1.407-.315-1.612.161-1.584,1.279a1,1,0,0,1-.174-.291c-.481-2.762-.371-2.843,2.309-2.409a24.028,24.028,0,0,0,8.556-.089c2.287-.453,2.311-.427,1.885,2.064" transform="translate(6.855 10.204)" fill="#f9a38c"/>
    <path id="Trazado_136455" data-name="Trazado 136455" d="M67.286,41.665a7.02,7.02,0,0,1,4.259,4.229c.159.4.581,1.031-.187,1.3-1.13.4-2.277.765-3.44,1.058-.767.194-.62-.47-.625-.882-.017-1.827-.008-3.653-.008-5.71" transform="translate(6.311 3.908)" fill="#f8a28b"/>
    <path id="Trazado_136456" data-name="Trazado 136456" d="M53.484,62.72c-1.39-.648-3.043-1.148-2.579-3.21.478-2.124,2.251-1.933,3.857-1.962.458-.009.917,0,1.375-.005q-1.327,2.589-2.652,5.178" transform="translate(4.767 5.397)" fill="#fc8f83"/>
    <path id="Trazado_136457" data-name="Trazado 136457" d="M109.88,87.227c-.017-1.1.2-1.664,1.571-1.228a49.285,49.285,0,0,0,5.064,1.082,5.265,5.265,0,0,0-3.786,2.674c-.541,1.042-.914.755-1.564.1-.744-.755-1.471-1.443-1.285-2.623" transform="translate(10.304 8.053)" fill="#fbad9b"/>
    <path id="Trazado_136458" data-name="Trazado 136458" d="M84.973,46.572a7.3,7.3,0,0,1,4.319-4.04c0,1.563,0,2.949,0,4.335,0,.722-.435.666-.929.543-1.093-.275-2.189-.54-3.392-.837" transform="translate(7.97 3.989)" fill="#f6aa98"/>
    <path id="Trazado_136459" data-name="Trazado 136459" d="M56.778,87.712c-2.87-2.17-2.871-5.558,0-7.846Z" transform="translate(5.124 7.491)" fill="#fcae9c"/>
    <path id="Trazado_136460" data-name="Trazado 136460" d="M101.685,79.9c2.806,2.439,2.77,5.556,0,7.75Z" transform="translate(9.538 7.494)" fill="#fba58d"/>
    <path id="Trazado_136461" data-name="Trazado 136461" d="M45.312,76.149A83.669,83.669,0,0,0,52.2,70.517c.464,1.915-.291,3.1-2.1,3.822-1.585.633-3.054,1.563-4.785,1.81" transform="translate(4.25 6.614)" fill="#faad9b"/>
    <path id="Trazado_136462" data-name="Trazado 136462" d="M102.739,57.829c2.658.03,3.653.879,3.382,2.806-.108.763-.74,1.122-1.074,1.7l-2.308-4.509" transform="translate(9.637 5.424)" fill="#fa8d81"/>
    <path id="Trazado_136463" data-name="Trazado 136463" d="M48.119,88.767c-.448.43-.9.853-1.343,1.292-.351.349-.643,1.016-1.18.762-.387-.183-.623-.781-.824-1.239-.318-.732.443-.827.8-1.078.923-.656,1.909-1.225,2.869-1.83,1,.8.975.938-.318,2.094" transform="translate(4.192 8.13)" fill="#bcd2ed"/>
    <path id="Trazado_136464" data-name="Trazado 136464" d="M93.986,104.17c.815-1.287,1.337-1.049,1.742.294a21.155,21.155,0,0,0,.877,2.1H91.374c-.055,0-.152-.018-.156-.039a.715.715,0,0,1,.022-.212c1.037-.556,2.547-.5,2.747-2.137" transform="translate(8.556 9.691)" fill="#4d87cb"/>
    <path id="Trazado_136465" data-name="Trazado 136465" d="M62.778,106.585c-.337.04-.8.14-.563-.439.4-.994.881-1.957,1.389-3.068l1.954,1.8c.5,1.017.317,1.608-.952,1.594a4.793,4.793,0,0,0-1.828.113" transform="translate(5.83 9.669)" fill="#09ac97"/>
    <path id="Trazado_136466" data-name="Trazado 136466" d="M47.825,88.857c.322-.665,1.228-1.24.318-2.094.355-.275.7-.559,1.068-.824a.765.765,0,0,1,1.276.258c.233.436.305.918-.237,1.169-.87.4-1.438,1.286-2.425,1.49" transform="translate(4.486 8.039)" fill="#adc4e4"/>
    <path id="Trazado_136467" data-name="Trazado 136467" d="M62.724,106.43a1.628,1.628,0,0,1,1.458-.287c1.113.112,1.418-.448,1.321-1.42a7.113,7.113,0,0,1,2.217,1.706Z" transform="translate(5.883 9.823)" fill="#019287"/>
    <path id="Trazado_136468" data-name="Trazado 136468" d="M93.984,104.1c.083,2.121.083,2.121-2.747,2.137a12.25,12.25,0,0,1,2.747-2.137" transform="translate(8.558 9.764)" fill="#a7bbd4"/>
    <path id="Trazado_136469" data-name="Trazado 136469" d="M10.186,33.4c.267.187.195.662.613.721.025.342-.1.867-.392.723-.58-.29-.264-.933-.221-1.444" transform="translate(0.944 3.133)" fill="#52311c"/>
    <path id="Trazado_136470" data-name="Trazado 136470" d="M39.346,57.746c2.826,0,5.654-.028,8.48.011a2.6,2.6,0,0,1,2.883,2.89,11.445,11.445,0,0,1-22.851.52c-.115-2.456.746-3.4,3.179-3.416,2.768-.02,5.538-.005,8.308,0" transform="translate(2.612 5.416)"/>
    <path id="Trazado_136471" data-name="Trazado 136471" d="M53.885,50.363a24.293,24.293,0,0,1-.02,2.766,2.629,2.629,0,0,1-2.7,2.405A2.568,2.568,0,0,1,48.736,52.9c-.053-1.787-.056-3.578.005-5.364a2.556,2.556,0,0,1,5.1-.277,22.827,22.827,0,0,1,.027,3.109h.017" transform="translate(4.568 4.218)" fill="#010101"/>
    <path id="Trazado_136472" data-name="Trazado 136472" d="M22.705,50.234c0-.98-.069-1.966.018-2.938a2.358,2.358,0,0,1,2.538-2.309,2.319,2.319,0,0,1,2.5,2.164,27.542,27.542,0,0,1-.007,6.209A2.322,2.322,0,0,1,25.24,55.5a2.372,2.372,0,0,1-2.519-2.333c-.089-.972-.016-1.958-.015-2.938" transform="translate(2.127 4.22)" fill="#010101"/>
    <path id="Trazado_136473" data-name="Trazado 136473" d="M21.771,62.392c-.808,0-1.617-.005-2.425,0a2.323,2.323,0,0,1-2.5-2.336,2.234,2.234,0,0,1,2.2-2.444,32.722,32.722,0,0,1,5.36.024,2.2,2.2,0,0,1,2.239,2.537,2.359,2.359,0,0,1-2.621,2.217c-.75.008-1.5,0-2.252,0" transform="translate(1.579 5.395)" fill="#fd8f83"/>
    <path id="Trazado_136474" data-name="Trazado 136474" d="M119.453,59.763c2.827,0,5.655-.018,8.481,0,2.214.018,3.151,1.027,3.059,3.217a11.424,11.424,0,0,1-22.828-.223,2.63,2.63,0,0,1,2.806-2.985c2.826-.046,5.654-.012,8.481-.013" transform="translate(10.146 5.605)"/>
    <path id="Trazado_136475" data-name="Trazado 136475" d="M133.372,46.151a11.67,11.67,0,0,1,1.384.009,2.526,2.526,0,0,1,2.388,2.144,2.275,2.275,0,0,1-1.38,2.7,1.4,1.4,0,0,0-.966,1.7,9.045,9.045,0,0,1-.012,1.729,2.417,2.417,0,0,1-2.469,2.4,2.33,2.33,0,0,1-2.624-2.22,39.162,39.162,0,0,1,0-6.225c.129-1.636,1.326-2.255,3.682-2.24" transform="translate(12.153 4.327)" fill="#010100"/>
    <path id="Trazado_136476" data-name="Trazado 136476" d="M108.287,51.547c0,.923.068,1.853-.015,2.768a2.579,2.579,0,1,1-5.156-.1,11.133,11.133,0,0,1,0-1.729,1.192,1.192,0,0,0-.861-1.418,2.358,2.358,0,0,1-1.441-2.98,2.514,2.514,0,0,1,2.55-1.946c.633-.03,1.269-.028,1.9-.009,1.99.061,2.948,1,3.03,2.986.034.806.005,1.614.005,2.423h-.014" transform="translate(9.446 4.326)" fill="#010101"/>
    <path id="Trazado_136477" data-name="Trazado 136477" d="M139.852,58.195a2.742,2.742,0,0,1,.5,3.033c-.545,1.177-1.679,1.175-2.812,1.146-1.658-.044-3.32,0-4.982,0a2.187,2.187,0,0,1-1.623-2.8,2.118,2.118,0,0,1,2.429-1.729c2.162.128,4.359-.389,6.488.345" transform="translate(12.275 5.421)" fill="#fd8f83"/>
    <path id="Trazado_136478" data-name="Trazado 136478" d="M79.894,101.887a8.037,8.037,0,0,1-7.972-7.727,2.684,2.684,0,0,1,2.432-3.009A2.635,2.635,0,0,1,77.1,93.668c.322,2.007,1.2,2.988,2.7,3.013,1.553.026,2.459-.969,2.819-3.1a2.612,2.612,0,0,1,2.814-2.426,2.7,2.7,0,0,1,2.359,2.92,8.05,8.05,0,0,1-7.9,7.81" transform="translate(6.746 8.549)"/>
    <path id="Trazado_136479" data-name="Trazado 136479" d="M72.845,85.822a13.311,13.311,0,0,1-.233,2.214,2.37,2.37,0,0,1-2.557,1.877,2.329,2.329,0,0,1-2.39-2.073A2.46,2.46,0,0,0,66.693,86a2.262,2.262,0,0,1-.7-2.66A2.514,2.514,0,0,1,68.3,81.572c3.5-.33,4.48.579,4.543,4.249" transform="translate(6.175 7.645)" fill="#010101"/>
    <path id="Trazado_136480" data-name="Trazado 136480" d="M89.789,81.561a2.7,2.7,0,0,1,3.09,1.619,2.474,2.474,0,0,1-1.163,3.245c-.515.335-.272.821-.362,1.241a2.591,2.591,0,0,1-5.159-.29c-.06-.8-.022-1.611-.017-2.416.014-2.552.863-3.393,3.612-3.4" transform="translate(8.082 7.648)" fill="#010100"/>
    <path id="Trazado_136481" data-name="Trazado 136481" d="M89.45,90.782q2.069.011,4.138.023a1.85,1.85,0,0,1,2.08,1.82c.062,1.307-.789,1.963-2.072,2-1.263.032-2.528.016-3.792.021a1.813,1.813,0,0,1-1.94-1.765,1.857,1.857,0,0,1,1.586-2.094" transform="translate(8.24 8.515)" fill="#fd8f83"/>
    <path id="Trazado_136482" data-name="Trazado 136482" d="M67.231,90.791c.688,0,1.376-.016,2.063,0a1.6,1.6,0,0,1,1.713,1.722c.085,1.179-.41,1.963-1.55,2.06a25.862,25.862,0,0,1-4.462,0A1.9,1.9,0,0,1,65.17,90.8c.684-.046,1.374-.008,2.062-.01" transform="translate(5.944 8.515)" fill="#fd8f83"/>
    <path id="Trazado_136483" data-name="Trazado 136483" d="M44.366,62.58a6.12,6.12,0,0,1-5.919,3.482A5.924,5.924,0,0,1,33.2,62.58Z" transform="translate(3.114 5.87)" fill="#fdaf9d"/>
    <path id="Trazado_136484" data-name="Trazado 136484" d="M113.551,64.561H124.42c-.446,1.881-2.253,3.251-4.673,3.541a6.028,6.028,0,0,1-6.2-3.542" transform="translate(10.651 6.056)" fill="#fcae9c"/>
  </g>
</svg>
