<svg xmlns="http://www.w3.org/2000/svg" xmlns:xlink="http://www.w3.org/1999/xlink" width="173" height="212" viewBox="0 0 173 212">
  <defs>
    <clipPath id="clip-path">
      <rect id="Rect치ngulo_38030" data-name="Rect치ngulo 38030" width="156.117" height="156.037" fill="none"/>
    </clipPath>
  </defs>
  <g id="_14" data-name="14" transform="translate(-313 -2639)">
    <rect id="Rect치ngulo_36141" data-name="Rect치ngulo 36141" width="173" height="212" transform="translate(313 2639)" fill="#e1e8ff"/>
    <g id="Grupo_158824" data-name="Grupo 158824" transform="translate(321 2667)">
      <g id="Grupo_158802" data-name="Grupo 158802" clip-path="url(#clip-path)">
        <path id="Trazado_134789" data-name="Trazado 134789" d="M76.175,0h3.352a6.8,6.8,0,0,0,1.918.3A5.966,5.966,0,0,1,85.2,2.079q15.05,15.054,30.1,30.1c.67.669,1.127,1.555,2.038,1.978,4.93,5.049,9.97,9.989,14.949,14.99.276.277.551.744.983.595.556-.193.353-.783.354-1.206q.02-11.118,0-22.235c-.006-1.782-.336-2.078-2.182-2.1-4.974-.068-9.949.115-14.923-.106a46.064,46.064,0,0,1-5.33.062,1.7,1.7,0,0,1-1.888-1.881c-.078-4.874-.1-9.749.014-14.622.035-1.476.47-1.868,1.979-1.932,2.994-.128,5.991-.047,8.986-.05,6.3-.005,12.593-.028,18.89.012,2.608.016,2.9.309,2.92,2.9q.056,6.4,0,12.8c-.025,2.49-.321,2.75-2.859,2.808-.2,0-.406,0-.609.007-3.068.033-3.215.171-3.217,3.171,0,7.515.023,15.031-.021,22.546a5.278,5.278,0,0,0,1.689,4.052c5.092,5.034,9.976,10.291,15.258,15.112,3.468,3.166,3.867,6.84,3.762,11.121-.149,6.133-7.891,11.193-14.757,7.92-1.979-.586-3.374-2.02-4.767-3.411Q108.4,56.555,80.246,28.388c-.394-.4-.8-.778-1.186-1.183a1.26,1.26,0,0,0-2.086-.024c-.387.4-.794.786-1.188,1.181Q47.848,56.317,19.9,84.262a42.232,42.232,0,0,1-3.182,2.826,10.958,10.958,0,0,1-3.736,1.621A10.855,10.855,0,0,1,1.1,84.338C.19,82.942.435,81.316,0,79.832V76.48a2.622,2.622,0,0,0,.242-1.466A6.99,6.99,0,0,1,2.5,70.353C22.463,49.912,42.8,29.843,62.976,9.617c2.258-2.263,4.568-4.479,6.748-6.815A7.576,7.576,0,0,1,75.155.16c.339-.014.715.111,1.021-.16" fill="#f2705a"/>
        <path id="Trazado_134790" data-name="Trazado 134790" d="M19.823,110.4c-.029-3.037-.05-6.074-.1-9.11-.009-.586.19-1.231-.333-1.725,2.293-.512,3.94-2.025,5.523-3.607q28.758-28.74,57.5-57.493c1.678-1.678,1.678-1.678,3.368.012q28.587,28.588,57.17,57.178a23.665,23.665,0,0,0,4.235,3.444q-.037,5.645-.075,11.291c-.625.385-1.051-.011-1.475-.384-.5-.436-.951-.916-1.417-1.382q-29.4-29.4-58.794-58.793c-.359-.359-.716-.719-1.087-1.066a1.12,1.12,0,0,0-1.739.03c-.4.385-.8.78-1.195,1.174Q52.163,79.194,22.933,108.435c-.539.538-1.066,1.087-1.634,1.6-.425.382-.857.756-1.477.37" transform="translate(-6.093 -11.69)" fill="#f6b54c"/>
        <path id="Trazado_134791" data-name="Trazado 134791" d="M170.074,45.088q.023-5.44.045-10.881c5.323,0,10.645.012,15.967-.017,1.068-.005,1.706.176,1.7,1.478-.04,8.718-.022,17.437-.028,26.155a3.507,3.507,0,0,1-.084.555c-.439.19-.61-.14-.806-.335q-8.073-8.056-16.129-16.128a9.377,9.377,0,0,1-.665-.827" transform="translate(-53.432 -10.741)" fill="#ef5540"/>
        <path id="Trazado_134792" data-name="Trazado 134792" d="M19.987,115.012c.524-.477,1.069-.934,1.569-1.435q30.254-30.245,60.5-60.5c1.59-1.59,1.592-1.59,3.16-.021q30.25,30.25,60.5,60.5c.5.5,1.04.966,1.561,1.447.017,5.682.045,11.364.048,17.046q.01,19.33.017,38.661c0,1.058-.095,1.63-1.433,1.628q-36.531-.064-73.062-.036c-.2,0-.4-.029-.606-.045-.761-.792-.589-1.8-.59-2.745-.019-10.809.039-21.619-.036-32.428-.027-3.916-.442-7.784-2.463-11.318a17.8,17.8,0,0,0-14.245-9.416,18.378,18.378,0,0,0-20.054,15.7,22.565,22.565,0,0,0-.136,2.885c-.007,11.521.009,23.04-.019,34.56,0,.971.283,2.081-.795,2.767-4.265.016-8.53-.01-12.793.071-1.459.028-1.173-.906-1.174-1.719q-.01-19.88,0-39.758c0-5.28.032-10.56.049-15.84" transform="translate(-6.258 -16.301)" fill="#fed05c"/>
        <path id="Trazado_134793" data-name="Trazado 134793" d="M40.3,201.367c.016-12.894-.121-25.79.1-38.68.17-10.032,8.9-18.131,19.055-18.148A19.059,19.059,0,0,1,78.5,162.384c.244,5.167.125,10.352.136,15.529.016,7.818,0,15.636,0,23.453q-14,.026-27.995.049c-3.448,0-6.9-.03-10.344-.047" transform="translate(-12.653 -45.41)" fill="#415a6b"/>
        <path id="Trazado_134794" data-name="Trazado 134794" d="M137.8,144.491c7.814,0,15.629.029,23.443-.029,1.276-.01,1.6.357,1.6,1.608q-.065,20.4,0,40.8c0,1.183-.295,1.532-1.507,1.529q-23.519-.061-47.038,0c-1.19,0-1.524-.312-1.52-1.516q.064-20.4,0-40.8c0-1.237.292-1.631,1.584-1.621,7.814.06,15.629.03,23.443.03" transform="translate(-35.431 -45.385)" fill="#344a5e"/>
        <path id="Trazado_134795" data-name="Trazado 134795" d="M120.384,168.706c0-5.028.03-10.056-.023-15.082-.012-1.135.218-1.595,1.482-1.575,4.721.074,9.445.058,14.167.009,1.133-.012,1.6.234,1.6,1.5q-.073,15.311-.008,30.622c0,1.042-.288,1.4-1.368,1.393-4.823-.05-9.649-.063-14.472.008-1.205.017-1.408-.414-1.4-1.49.051-5.129.023-10.258.023-15.387" transform="translate(-37.813 -47.769)" fill="#89d6f7"/>
        <path id="Trazado_134796" data-name="Trazado 134796" d="M170.273,168.955c0,5.079-.027,10.157.022,15.235.01,1.038-.242,1.4-1.339,1.389q-7.236-.084-14.473,0c-1.188.016-1.43-.4-1.427-1.494q.052-15.235,0-30.469c0-1.178.317-1.58,1.536-1.564q7.083.095,14.168,0c1.171-.015,1.562.28,1.544,1.513-.07,5.128-.029,10.257-.029,15.387" transform="translate(-48.085 -47.771)" fill="#89d6f7"/>
      </g>
    </g>
  </g>
</svg>
