<svg xmlns="http://www.w3.org/2000/svg" xmlns:xlink="http://www.w3.org/1999/xlink" width="173" height="198" viewBox="0 0 173 198">
  <defs>
    <clipPath id="clip-path">
      <rect id="Rect치ngulo_38039" data-name="Rect치ngulo 38039" width="152.354" height="117.79" fill="none"/>
    </clipPath>
  </defs>
  <g id="_15" data-name="15" transform="translate(-313 -2639)">
    <rect id="Rect치ngulo_36141" data-name="Rect치ngulo 36141" width="173" height="198" transform="translate(313 2639)" fill="#e1e8ff"/>
    <g id="Grupo_158825" data-name="Grupo 158825" transform="translate(323 2679)">
      <g id="Grupo_158825-2" data-name="Grupo 158825" clip-path="url(#clip-path)">
        <path id="Trazado_134951" data-name="Trazado 134951" d="M14.279,49.425c-2.126-.087-4.255-.152-6.38-.268a15,15,0,0,1-5.005-1.3A5.919,5.919,0,0,1,0,44.66V42.576A5.449,5.449,0,0,1,5.841,39c.888.041,1.781-.009,2.671.011a4.668,4.668,0,0,1,4.841,4.736c.009.2,0,.4,0,.594.016,2.089.016,2.089,2.121,2.111a2.554,2.554,0,0,1-1.2,2.975" transform="translate(0 -11.102)" fill="#ec6262"/>
        <path id="Trazado_134952" data-name="Trazado 134952" d="M15.09,38.322a9.133,9.133,0,0,0,1.2-2.975A181.494,181.494,0,0,1,26.76,12.9c4.1-7.33,10.3-11.169,18.682-11.83C62.32-.257,79.212-.143,96.108.311a123.245,123.245,0,0,1,14.964,1.061,21.129,21.129,0,0,1,15.869,11.021,172.7,172.7,0,0,1,10.775,22.958,4.5,4.5,0,0,1,1.191,2.966,40.061,40.061,0,0,0,6.409,13.121,30.632,30.632,0,0,1,4.631,8.241c1.63,4.955,1.305,9.955.437,14.969-.261,1.506-.643,2.993-1.006,4.48a24.563,24.563,0,0,0-.738,6.015c.051,8.519.023,17.039.017,25.559,0,.441-.061.882-.094,1.323-.6-.313-.559-.906-.559-1.428.006-7.79-.131-15.581.139-23.369a62.967,62.967,0,0,1-1.179,9.357,1.807,1.807,0,0,1-2,1.4c-4.015.014-8.032,0-12.047.008a2.715,2.715,0,0,1-2.523-1.515,33.1,33.1,0,0,0-6.235-7.536A18.233,18.233,0,0,0,111.3,83.675q-34.357.1-68.713,0a17.1,17.1,0,0,0-10.655,3.541,30.148,30.148,0,0,0-8.042,8.866,3.532,3.532,0,0,1-3.511,1.929c-3.667-.083-7.337-.026-11.006-.026-1.059,0-2-.154-2.317-1.381a67.562,67.562,0,0,1-1.245-9.42c-.026-.2-.271.007-.082-.052.043-.014.069.024.078.114.34,3.56.21,7.13.222,10.7.014,4.016.019,8.033-.011,12.05-.005.706.2,1.518-.568,2.028-.034-.539-.094-1.079-.1-1.619-.007-6.388-.133-12.779.034-19.162A66.86,66.86,0,0,0,3.712,74.926a28.572,28.572,0,0,1,.352-15.245,30.169,30.169,0,0,1,4.626-8.239,40.158,40.158,0,0,0,6.4-13.12" transform="translate(-0.812 0)" fill="#e85353"/>
        <path id="Trazado_134953" data-name="Trazado 134953" d="M9.048,129.747a1.388,1.388,0,0,0,1.542.991q6.1-.086,12.2,0a2,2,0,0,0,2-1.119,29.917,29.917,0,0,1,10.772-11.04,15.274,15.274,0,0,1,7.617-2.166q35.483.009,70.966.007c4.449,0,8.125,1.974,11.393,4.762a32.116,32.116,0,0,1,7.095,8.534,1.753,1.753,0,0,0,1.76,1.019q6.173-.063,12.348,0a1.378,1.378,0,0,0,1.561-.957,4.917,4.917,0,0,1-3.03,6.406,8.157,8.157,0,0,1-2.046.308c-4.344.036-8.69.021-13.034.008a2.211,2.211,0,0,1-1.529-.444,2.477,2.477,0,0,0-1.585-.236q-48.4-.006-96.794,0a2.476,2.476,0,0,0-1.585.236,2.823,2.823,0,0,1-1.982.449q-6.021.011-12.042,0a8.063,8.063,0,0,1-2.777-.426,5.031,5.031,0,0,1-2.854-6.333" transform="translate(-2.491 -33.147)" fill="#777"/>
        <path id="Trazado_134954" data-name="Trazado 134954" d="M8.4,130.691c.2,1.259.311,2.543.635,3.769.4,1.5,2.263,2.5,4.462,2.511,4.852.021,9.705.02,14.558.028.009,2.915.056,5.831.016,8.746a5.764,5.764,0,0,1-5.791,6.042c-3.306.129-6.624.116-9.931.008-3.4-.11-5.477-2.214-5.87-5.679l.064-24.694a3.27,3.27,0,0,1,.32-1.7q.768,5.483,1.537,10.967" transform="translate(-1.845 -34.091)" fill="#454545"/>
        <path id="Trazado_134955" data-name="Trazado 134955" d="M176.393,137.016c4.835-.006,9.67,0,14.505-.023,2.744-.013,4.221-.944,4.719-3.06a29.975,29.975,0,0,0,.415-3.194l1.532-10.955.4.014v26.336c-.409,3.566-2.585,5.62-6.17,5.688-3.112.059-6.227.069-9.338,0a5.841,5.841,0,0,1-6.089-6.208c-.029-2.865.012-5.73.022-8.6" transform="translate(-50.219 -34.109)" fill="#454545"/>
        <path id="Trazado_134956" data-name="Trazado 134956" d="M192.6,49.415a9.549,9.549,0,0,1-1.191-2.966c2.1-.028,2.1-.028,2.116-2.12.022-3.5,1.822-5.33,5.309-5.319a19.624,19.624,0,0,1,4.148.14,4.548,4.548,0,0,1,3.853,3.956,4.643,4.643,0,0,1-2.857,4.756,18.845,18.845,0,0,1-7.52,1.465c-1.286.032-2.571.058-3.857.087" transform="translate(-54.503 -11.097)" fill="#ec6262"/>
        <path id="Trazado_134957" data-name="Trazado 134957" d="M135.607,26.314c2.076,3.765,3.617,7.774,5.314,11.712.407.945.772,1.909,1.23,3.047a759.3,759.3,0,0,1-118.508,0c2.1-5.068,4.075-10.049,6.593-14.793.545.183.649.708.884,1.134A3.587,3.587,0,0,0,35.2,29.4a3.63,3.63,0,0,0,2.906-3.51c.124-2.129.026-4.265.044-6.4a12.9,12.9,0,0,1,.062-1.783A4.082,4.082,0,0,1,42.59,14.3a3.787,3.787,0,0,1,3.832,3.762c.069,2.38.022,4.761.018,7.142a8.148,8.148,0,0,0,.451,2.924A3.586,3.586,0,0,0,51,30.535a3.424,3.424,0,0,0,2.9-3.454c.077-3.074.024-6.15.023-9.226a13.2,13.2,0,0,1,.31-3.1,4.535,4.535,0,0,1,4.382-3.744,4.8,4.8,0,0,1,4.432,3.57,10.571,10.571,0,0,1,.363,2.944q-.013,4.166,0,8.333a8.137,8.137,0,0,0,.092,1.631,3.874,3.874,0,0,0,3.284,3.026,3.634,3.634,0,0,0,3.638-2.3,6.8,6.8,0,0,0,.471-2.765c0-2.579-.038-5.159.018-7.738a4.446,4.446,0,0,1,1.98-3.947,4.607,4.607,0,0,1,7.153,3.9c.115,2.824.021,5.654.031,8.481a13.493,13.493,0,0,0,.061,1.783,3.7,3.7,0,0,0,7.4-.322c.081-3.024.012-6.051.029-9.077a14.2,14.2,0,0,1,.214-3.554,4.013,4.013,0,0,1,3.571-3.093c2.7-.207,4.416,1.331,4.481,4.14.075,3.272.015,6.547.023,9.82a12.793,12.793,0,0,0,.062,1.783,3.9,3.9,0,0,0,3.773,3.537,3.857,3.857,0,0,0,3.623-3.822c.086-2.577,0-5.158.038-7.737a4.8,4.8,0,0,1,1.26-3.546,3.822,3.822,0,0,1,4.379-.926,3.753,3.753,0,0,1,2.631,3.61c.016,1.636.012,3.274.006,4.91a10.971,10.971,0,0,0,.335,2.8,3.683,3.683,0,0,0,3.669,3.081,4.056,4.056,0,0,0,3.646-3.2,7.831,7.831,0,0,0,.132-1.777c.008-2.083-.047-4.168.02-6.249a3.856,3.856,0,0,1,4.038-4.033,4.044,4.044,0,0,1,4.21,4.083c.077,2.578.017,5.158.024,7.737a4.733,4.733,0,0,0,.785,2.817,3.539,3.539,0,0,0,3.734,1.61,3.385,3.385,0,0,0,2.839-2.7c.129-.519.1-1.1.554-1.5" transform="translate(-6.732 -3.135)" fill="#3aa1ea"/>
        <path id="Trazado_134958" data-name="Trazado 134958" d="M138.232,24.132a4.1,4.1,0,0,1-2.347,4.395,3.846,3.846,0,0,1-3.957-.312,4.483,4.483,0,0,1-2.034-3.905c.01-2.727.014-5.455,0-8.183a3.579,3.579,0,0,0-3.818-3.639,3.39,3.39,0,0,0-3.615,3.628c-.018,2.331.009,4.662-.009,6.993A4.662,4.662,0,0,1,118.3,27.9c-2.031.165-3.691-1.453-4.22-3.969-.518-2.462-.137-4.938-.247-7.4a3.78,3.78,0,0,0-3.07-3.44c-2.047-.222-3.714.751-4.093,2.555-.657,3.134-.175,6.319-.268,9.479a4.35,4.35,0,0,1-.97,2.732,4.091,4.091,0,0,1-4.374,1.455,4.5,4.5,0,0,1-3-4.194c-.029-3.67-.007-7.34-.01-11.01,0-2.528-1.212-3.971-3.342-4a3.668,3.668,0,0,0-4.083,3.99c-.05,3.719-.009,7.439-.015,11.159a4.176,4.176,0,1,1-8.327,0c-.022-3.174,0-6.348-.008-9.522a4.63,4.63,0,0,0-4.113-4.636c-2.433-.06-4.2,1.855-4.216,4.58-.011,2.777.036,5.555-.018,8.332a4.642,4.642,0,0,1-2.088,4.176,3.668,3.668,0,0,1-4.058.1,3.913,3.913,0,0,1-2.167-3.484c-.021-3.372.015-6.745-.019-10.117a5.742,5.742,0,0,0-1.612-4.3,3.6,3.6,0,0,0-3.651-1.034,3.8,3.8,0,0,0-3.009,2.948,13.548,13.548,0,0,0-.36,3.081c.051,3.124.025,6.248.014,9.373a3.9,3.9,0,0,1-3.309,4.1,4.047,4.047,0,0,1-4.675-2.987,8.677,8.677,0,0,1-.365-2.483c.048-2.479.025-4.96.014-7.439a3.385,3.385,0,0,0-3.623-3.455,3.581,3.581,0,0,0-3.809,3.5c-.028,2.38,0,4.761-.008,7.142-.006,2.717-1.267,4.291-3.789,4.645a4.008,4.008,0,0,1-4.427-3.4,1.367,1.367,0,0,0-.126-.269,81.259,81.259,0,0,1,5.7-10.742,19.035,19.035,0,0,1,15.2-8.883,418.678,418.678,0,0,1,43.26-.986A208.539,208.539,0,0,1,118.84,4.681a18.4,18.4,0,0,1,13.788,8.825,80.87,80.87,0,0,1,5.6,10.626" transform="translate(-9.357 -0.953)" fill="#168ce1"/>
        <path id="Trazado_134959" data-name="Trazado 134959" d="M93.344,85.241q15.913,0,31.825,0c1.678,0,1.686.016.848,1.487-1.714,3.012-3.452,6.01-5.144,9.034A1.875,1.875,0,0,1,119,96.845q-25.728-.045-51.455,0a1.876,1.876,0,0,1-1.875-1.079c-1.692-3.025-3.43-6.022-5.144-9.034-.838-1.472-.829-1.488.845-1.489q15.987,0,31.974,0" transform="translate(-17.078 -24.272)" fill="#6f6f6f"/>
        <path id="Trazado_134960" data-name="Trazado 134960" d="M164.955,86.633a6,6,0,0,1-5.973-3.763,6.693,6.693,0,0,1,1.874-7.332,6.518,6.518,0,0,1,1.644-1.262c3.92-1.892,7.791-3.915,11.82-5.541,5.158-2.081,10.27.878,11.4,6.315a6.254,6.254,0,0,1-4.1,7.346,69.866,69.866,0,0,1-13.849,3.859,11.137,11.137,0,0,1-2.817.378" transform="translate(-45.144 -19.382)" fill="#fefefe"/>
        <path id="Trazado_134961" data-name="Trazado 134961" d="M37.246,86.666a62.674,62.674,0,0,1-17.8-4.818,6.039,6.039,0,0,1-3.164-6.227,8.32,8.32,0,0,1,11.091-7.048,96.8,96.8,0,0,1,12.454,5.859c3.478,1.943,5.37,6.755,2.193,10.233a5.85,5.85,0,0,1-4.773,2" transform="translate(-4.623 -19.374)" fill="#fefefe"/>
        <path id="Trazado_134962" data-name="Trazado 134962" d="M18.69,121.845c0-1.24.026-2.48-.007-3.719a1.459,1.459,0,0,1,1.6-1.694c2.528-.035,5.057-.025,7.585-.005a1.63,1.63,0,0,1,1.585.906,1.418,1.418,0,0,1-.486,1.724q-3.822,3.855-7.678,7.677a1.5,1.5,0,0,1-1.722.536c-.775-.322-.9-.961-.888-1.707.024-1.24.006-2.479.007-3.719" transform="translate(-5.32 -33.147)" fill="#fee11f"/>
        <path id="Trazado_134963" data-name="Trazado 134963" d="M190.009,121.992c0,1.289-.013,2.578.005,3.867a1.4,1.4,0,0,1-.883,1.409,1.284,1.284,0,0,1-1.5-.343c-2.717-2.682-5.442-5.356-8.082-8.112a1.342,1.342,0,0,1,.987-2.342c2.722-.117,5.452-.074,8.177-.006a1.315,1.315,0,0,1,1.3,1.51c-.021,1.338-.006,2.677-.006,4.016" transform="translate(-50.999 -33.144)" fill="#fee11f"/>
        <path id="Trazado_134964" data-name="Trazado 134964" d="M182.784,82.384a5.706,5.706,0,1,1,.018-11.412,5.706,5.706,0,1,1-.018,11.412" transform="translate(-50.407 -20.209)" fill="#febc49"/>
        <path id="Trazado_134965" data-name="Trazado 134965" d="M167.114,87.767a3.937,3.937,0,0,1-4.066-4.269,4.225,4.225,0,0,1,4.172-4.116,4.29,4.29,0,0,1,4.207,4.292,4.1,4.1,0,0,1-4.313,4.093" transform="translate(-46.428 -22.604)" fill="#feda6f"/>
        <path id="Trazado_134966" data-name="Trazado 134966" d="M25.8,70.974a5.707,5.707,0,1,1-.251,11.41,5.707,5.707,0,1,1,.251-11.41" transform="translate(-5.68 -20.21)" fill="#febc49"/>
        <path id="Trazado_134967" data-name="Trazado 134967" d="M42.575,87.767a4.092,4.092,0,0,1-4.288-4.122,4.3,4.3,0,0,1,4.243-4.264,4.112,4.112,0,0,1,4.136,4.138,3.942,3.942,0,0,1-4.091,4.248" transform="translate(-10.902 -22.604)" fill="#feda6f"/>
      </g>
    </g>
  </g>
</svg>
