<svg xmlns="http://www.w3.org/2000/svg" xmlns:xlink="http://www.w3.org/1999/xlink" width="493.907" height="643" viewBox="0 0 493.907 643">
  <defs>
    <clipPath id="clip-path">
      <rect id="Rect치ngulo_38003" data-name="Rect치ngulo 38003" width="493.907" height="610.131" fill="#ff9fa3"/>
    </clipPath>
    <clipPath id="clip-path-2">
      <rect id="Rect치ngulo_38026" data-name="Rect치ngulo 38026" width="428.014" height="643" fill="none"/>
    </clipPath>
  </defs>
  <g id="Grupo_158781" data-name="Grupo 158781" transform="translate(-180.5 -2195)">
    <g id="Grupo_158780" data-name="Grupo 158780" transform="translate(157.778 2190.932)">
      <g id="Grupo_158735" data-name="Grupo 158735" transform="translate(22.722 12.603)">
        <g id="Grupo_158690" data-name="Grupo 158690" opacity="0.31">
          <g id="Grupo_158689" data-name="Grupo 158689">
            <g id="Grupo_158688" data-name="Grupo 158688" clip-path="url(#clip-path)">
              <path id="Trazado_131891" data-name="Trazado 131891" d="M124.863,500.423c28.48,30.349,57.222,60.926,90.819,84.382s72.843,39.566,112.809,37.8c32.194-1.425,63.01-14.248,92.122-29.171,21.986-11.268,43.75-24.1,60.912-42.746,43.267-47,47.1-129.893,8.376-181.31-27.762-36.867-71.516-55.784-101.24-90.817C337.78,218.591,336.893,123.173,286.315,62.907,252.662,22.809,198.46,4.273,149.583,16.15c-20.035,4.869-39.874,15.209-51.69,33.357C78.737,78.936,85.564,118.97,93.7,153.86s16.244,74.218-1.13,104.912c-16.81,29.7-53.595,42.955-65.762,75.187-10.411,27.576,1.037,58.6,12.559,85.654,9.2,21.6,20.529,45.164,41.288,53.051,22.753,8.644,48.164-5.065,71.786.2" transform="translate(-22.722 -12.604)" fill="#ff9fa3"/>
              <path id="Trazado_131892" data-name="Trazado 131892" d="M247.566,182.891c-11.022-10.229-21.269-22.389-25.481-37.412s-.934-33.372,10.882-42.5c15.453-11.945,37.968-3.425,51.221,11.287,11.233,12.467,18.684,30.39,14.99,47.323s-21.371,30.243-36.4,24.006" transform="translate(169.22 83.136)" fill="#ff9fa3"/>
            </g>
          </g>
        </g>
      </g>
    </g>
    <g id="Grupo_158779" data-name="Grupo 158779" transform="translate(218.5 2195)">
      <g id="Grupo_158778" data-name="Grupo 158778" clip-path="url(#clip-path-2)">
        <path id="Trazado_134319" data-name="Trazado 134319" d="M279.638,207.136c-6.151,36.442-29.723,65.757-29.723,65.757-5.124-4.185-18.108-21.634-18.108-21.634,3.868-8.251,10.019-35.244,9.114-58.24s-11.849-59.9-11.849-59.9v.124c.069,1.848.889,23.438.929,38.3.018,2.065.018,4.021-.013,5.753-.235,14.8,0,57.164,0,57.164s-19.13,15.717-62.641,16.741-73.564-12.643-73.564-12.643.452-14.8-.452-32.565c-.424-8.238-1.091-21.889-1.708-34.261-.71-14.306-1.366-26.864-1.488-27.233-.018-.04-.04-.018-.08.067-.752,1.284-5.565,17.52-8.34,43.211-2.963,27.33,4.554,60.418,4.554,60.418-14.353,7.1-21.182,22.193-21.182,22.193-12.068-13.035-24.775-56.77-25.052-89.445-.311-36.1,7.723-83.057,35.985-109.325C97.607,51.55,114.116,44.991,125,41.9c.339-.093.67-.191,1-.271,1.819-.495,3.447-.9,4.92-1.258.421,1.856.876,3.578,1.369,5.055,4.547,13.9,23.165,12.807,31.882,11.778,8.227-.963,17.176-4.4,20.976-18.077a1.387,1.387,0,0,0,.233.027c1.433.206,2.868.426,4.263.683.342.055.67.124,1,.193,29.967,5.8,52.216,25.321,68.74,54.363,18.9,33.259,26.414,76.31,20.266,112.743" transform="translate(48.752 47.657)" fill="#857fcc"/>
        <path id="Trazado_134320" data-name="Trazado 134320" d="M82.426,25.289s-1.535-3.928-5.634,0S79.7,43.226,86.7,42.2c0,0-2.045-12.64-4.27-16.914" transform="translate(92.051 28.675)" fill="#ed875f"/>
        <path id="Trazado_134321" data-name="Trazado 134321" d="M106.844,23.892c1.573-2,3.591-3.757,5.126-1.025S113.321,40.8,105.9,40.634c0,0-.743-14.588.945-16.741" transform="translate(128.787 26.143)" fill="#ed875f"/>
        <path id="Trazado_134322" data-name="Trazado 134322" d="M103.265,278.969c-9.792,2.735-21.41,2.5-22.089,0a4.517,4.517,0,0,1-.093-.486c-8.122,2.983-30.728,19.037-31.8,20.528-1.14,1.593,32.8,2.287,58.08-.681,0,0-.213-15.384-2.67-20.667a6.49,6.49,0,0,1-1.431,1.306" transform="translate(59.995 338.193)" fill="#c54325"/>
        <path id="Trazado_134323" data-name="Trazado 134323" d="M138.877,276.082a7.274,7.274,0,0,1-4.112,3.449c-5.3,1.708-17.593,3.334-22.832-3.247,0,0-2.28,19.19-.912,22.153s52.613,4.039,56.94,3.808c3.937-.2-24.039-22.218-29.085-26.164" transform="translate(134.691 336.267)" fill="#857fcc"/>
        <path id="Trazado_134324" data-name="Trazado 134324" d="M217.44,322.181c-.233,25.5-10.252,111.594-11.846,120.262-.368,1.965-.725,3.728-1.107,5.288-.1.4-.206.792-.3,1.16a20.3,20.3,0,0,1-1.939,4.906,7.292,7.292,0,0,1-4.1,3.445c-5.3,1.708-17.6,3.331-22.834-3.254-.357-.453-.694-2.227-1.014-5.068l-.12-1.1c-2.446-23.846-3.877-108.431-3.877-123.139,0-16.85-10.256-70.144-16.169-92.695-5.933-22.548-11.4-44.194-15.963-43.91-4.582.275-6.59,6.328-8.639,18.4s-18,70.612-19.594,92.925-5.92,72.883-7.051,102.041a252.748,252.748,0,0,1-7.191,49.73c-.1.384-.186.779-.288,1.136-.284,1.023-.543,1.923-.79,2.722a6.32,6.32,0,0,1-1.242,2.269,6.841,6.841,0,0,1-1.42,1.309c-9.8,2.737-21.419,2.5-22.1,0a3.684,3.684,0,0,1-.1-.492c-.109-.681-.288-2.021-.506-3.884-.053-.366-.093-.763-.151-1.169-2.36-19.942-9.333-87.26-9.73-107.651-.448-23.693-1.584-76.989,0-110.92.876-18.6,2.979-46.423,5.239-68.43.038-.339.067-.679.106-1.02,1.817-17.66,3.731-31.32,5.139-33.046a78.63,78.63,0,0,0,21.1,17.689c.313.175.628.353.954.526a68.224,68.224,0,0,0,7.559,3.651c9.143,3.76,21.743,5.782,34.754,6.206.357.011.694.011,1.051.024q4.082.106,8.184,0c.357,0,.714-.013,1.065-.024,11.727-.37,23.109-2.021,31.924-4.837,6.37-2.036,12.532-6.177,17.753-10.507.286-.248.574-.481.861-.723,7.965-6.794,13.541-13.82,13.956-13.82,0,0,1.952,22.672,3.8,43.8.042.4.082.807.111,1.2.952,10.988,1.885,21.43,2.473,27.88,1.734,19.035,2.28,93.608,2.047,119.122" transform="translate(71.318 158.556)" fill="#4c5346"/>
        <path id="Trazado_134325" data-name="Trazado 134325" d="M142,36.369c-.169-10.076-5.811-24.6-10.252-29.209s-4.44-3.928-5.8-3.247-.346,3.416-.346,3.416c-4.1-2.9-16.225-10.757-28.865-5.636,0,0-13.346,3.247-17.693,16.741s.608,32.114,1.81,39.8c1,6.448,2.449,20.119,4.669,29.788.424,1.856.878,3.578,1.36,5.059,4.556,13.894,23.178,12.8,31.89,11.78,8.224-.965,17.176-4.407,20.982-18.081.222-.812.439-1.644.625-2.526,3.5-16.455,1.79-37.806,1.624-47.887m-2.222,21.867c-2.391,5.636-13.834,12.643-25.11,13.494s-21.863,1.2-25.793-3.757-8.371-21.523-7-28.872,5.98-10.24,14.009-10.418c7.685-.173,18.105-4.782,24.6-7.175s12.467,2.393,15.2,8.029,6.488,23.063,4.1,28.7" transform="translate(94.142 -0.001)" fill="#7a625d"/>
        <path id="Trazado_134326" data-name="Trazado 134326" d="M112.293,60.264c11.276-.852,22.719-7.858,25.11-13.494s-1.362-23.063-4.1-28.7-8.715-10.418-15.2-8.027-16.912,7-24.6,7.173c-8.027.177-12.638,3.074-14,10.418s3.074,23.914,7,28.872,14.519,4.609,25.793,3.757" transform="translate(96.52 11.466)" fill="#ed875f"/>
        <path id="Trazado_134327" data-name="Trazado 134327" d="M138.432,167.59c-9.69-4.454-16.453-23.311-18.724-30.458.286-.248.574-.481.863-.723,2.076,6.545,8.679,25.223,17.753,29.976.04.4.08.807.109,1.2" transform="translate(145.804 166.146)" fill="#1f1f1e"/>
        <path id="Trazado_134328" data-name="Trazado 134328" d="M152.161,156.4s-1.544,8.431-4.607,14.583c-3.087,6.15-8.2,12.816-9.741,11.285-.728-.723-.317-2.063.328-3.267l.011-.013a17.308,17.308,0,0,1,1.668-2.5,28.651,28.651,0,0,1-3.784,2.828.554.554,0,0,1-.082.04c-1.149.659-2.229,1.025-2.746.508-.592-.588-.235-2.047.339-3.567.288-.725.628-1.451.945-2.089.011-.031.011-.031.024-.031.519-1.065.983-1.856,1.056-1.976-.248.311-4.826,6.244-6.987,4.247-1.34-1.244.124-3.977,1.506-5.946a27.151,27.151,0,0,1,1.708-2.211c-.275.231-.532.452-.792.639a8.106,8.106,0,0,1-2.176,1.233c-2.5.872-3.538-.985-1.666-3.788,2.513-3.757,6.548-16.054,5.687-17.256s-11.1,6.665-12.465,4.782,11.208-17.438,13.665-19.135c0,0,12.984,17.451,18.108,21.634" transform="translate(146.506 164.147)" fill="#ed875f"/>
        <path id="Trazado_134329" data-name="Trazado 134329" d="M96.448,22.571c1.011-.7-.683-4.325-7.519-4.325s-9.112,4.325-8.541,5.01,4.671-1.249,8.774-1.022,6.146,1.138,7.286.337" transform="translate(97.809 22.224)" fill="#7a625d"/>
        <path id="Trazado_134330" data-name="Trazado 134330" d="M96.082,22.938c-1.766-.521.909-5.126,7.173-5.352s8.542,2.5,8.2,3.527-3.072.146-6.718.532-6.714,1.865-8.652,1.293" transform="translate(116.378 21.404)" fill="#7a625d"/>
        <path id="Trazado_134331" data-name="Trazado 134331" d="M143.971,39.64a38.913,38.913,0,0,1-8.337,17.243C129.621,63.8,121.48,67.3,111.4,67.3h-.517c-15.278-.177-23.438-7.75-27.576-14.075A36.376,36.376,0,0,1,78.336,41.51c.339-.093.67-.191,1-.273C80.782,47.4,87.121,66,110.9,66.274c9.855.124,17.808-3.17,23.684-9.757a38.134,38.134,0,0,0,8.393-17.07c.339.055.668.124,1,.193" transform="translate(95.413 48.046)" fill="#1f1f1e"/>
        <path id="Trazado_134332" data-name="Trazado 134332" d="M94.955,45.255c-2.56,0-5.254-.344-5.767-.932-.55-.648.177-8.264,2.163-22.65a.512.512,0,0,1,1.014.142C91.3,29.534,89.748,42.09,90.012,43.669a21.428,21.428,0,0,0,8.69.231,3.916,3.916,0,0,0,2.622-1.309.511.511,0,1,1,.883.515c-.65,1.118-2.369,1.808-5.11,2.058-.663.062-1.4.091-2.14.091m-4.924-1.5h0Z" transform="translate(108.415 25.863)" fill="#1f1f1e"/>
        <path id="Trazado_134333" data-name="Trazado 134333" d="M94.925,37.658a28.5,28.5,0,0,1-4.906-.4.512.512,0,0,1,.189-1.007c.067.013,7.166,1.309,12.376-.987a.51.51,0,1,1,.413.934,20.415,20.415,0,0,1-8.071,1.464" transform="translate(109.136 42.893)" fill="#1f1f1e"/>
        <path id="Trazado_134334" data-name="Trazado 134334" d="M80.854,31.62a.516.516,0,0,1-.508-.464c-.171-1.695-2.245-3.691-3.028-4.323a.511.511,0,1,1,.641-.8c.131.1,3.156,2.551,3.407,5.015a.522.522,0,0,1-.464.566l-.049,0" transform="translate(93.94 31.573)" fill="#1f1f1e"/>
        <path id="Trazado_134335" data-name="Trazado 134335" d="M106.8,30.961h-.042a.515.515,0,0,1-.47-.552c.237-3.016,3.076-6.541,3.194-6.687a.512.512,0,1,1,.794.648c-.024.035-2.757,3.431-2.965,6.119a.517.517,0,0,1-.51.472" transform="translate(129.459 28.661)" fill="#1f1f1e"/>
        <path id="Trazado_134336" data-name="Trazado 134336" d="M88.91,35.684a6.55,6.55,0,1,1,6.548-6.552,6.559,6.559,0,0,1-6.548,6.552m0-12.075a5.523,5.523,0,1,0,5.523,5.523A5.53,5.53,0,0,0,88.91,23.61" transform="translate(100.317 27.508)" fill="#1f1f1e"/>
        <path id="Trazado_134337" data-name="Trazado 134337" d="M101.167,35.976a7.269,7.269,0,1,1,7.266-7.268,7.278,7.278,0,0,1-7.266,7.268m0-13.508a6.243,6.243,0,1,0,6.239,6.239,6.252,6.252,0,0,0-6.239-6.239" transform="translate(114.369 26.11)" fill="#1f1f1e"/>
        <path id="Trazado_134338" data-name="Trazado 134338" d="M88.317,26.723a.513.513,0,0,1-.182-.994,24.894,24.894,0,0,1,13.825-.65.513.513,0,0,1-.253.994,24.272,24.272,0,0,0-13.208.614.576.576,0,0,1-.182.035" transform="translate(106.944 29.7)" fill="#1f1f1e"/>
        <path id="Trazado_134339" data-name="Trazado 134339" d="M100.5,28.512a.514.514,0,0,1-.472-.319.508.508,0,0,1,.273-.668l15.513-6.492a.511.511,0,1,1,.395.943l-15.513,6.5a.5.5,0,0,1-.2.04" transform="translate(121.787 25.57)" fill="#1f1f1e"/>
        <path id="Trazado_134340" data-name="Trazado 134340" d="M88.447,28.03A.711.711,0,0,1,88.272,28L78.124,24.31a.515.515,0,0,1,.35-.969l10.147,3.693a.514.514,0,0,1-.175,1" transform="translate(94.744 28.394)" fill="#1f1f1e"/>
        <path id="Trazado_134341" data-name="Trazado 134341" d="M127.391,98.872a.517.517,0,0,1-.512-.49c-.2-5.882-3.276-28.421-3.309-28.645a.519.519,0,0,1,.439-.579.508.508,0,0,1,.579.439c.126.929,3.112,22.817,3.318,28.747a.512.512,0,0,1-.495.528Z" transform="translate(150.502 84.228)" fill="#1f1f1e"/>
        <path id="Trazado_134342" data-name="Trazado 134342" d="M88.581,139.642c-.011.029-.011.069-.022.1-.8,2.646-8.542,15.182-27.277,15.752.038-.339.069-.679.106-1.022,18.491-.628,25.784-13.186,26.181-15.031a.538.538,0,0,1,.058-.326.51.51,0,0,1,.7-.2.605.605,0,0,1,.257.723" transform="translate(74.641 169.123)" fill="#1f1f1e"/>
        <path id="Trazado_134343" data-name="Trazado 134343" d="M90.105,154.393c-1.364,1.872-11.973-2.912-13.159-1.368s.681,13.328,2.557,17.944c1.353,3.309,1.12,5.645-.016,6.013a1.905,1.905,0,0,1-1.655-.519,14.126,14.126,0,0,1,1.382,1.546c.612.818,1.133,1.761.805,2.351-.517.9-4.046-.135-5.753-.712h-.013c-.437-.149-.75-.259-.861-.3.262.193,1.97,1.353,2.282,2.282.193.506-.024.943-1.12,1.12-3.252.519-10.771-6.829-14.189-11.78s-9.041-15.386-9.041-15.386,6.827-15.089,21.18-22.193c2.049,2.047,18.968,19.13,17.6,21" transform="translate(62.515 162.467)" fill="#ed875f"/>
        <path id="Trazado_134344" data-name="Trazado 134344" d="M68.864,164.733C62.345,161.371,59.3,147.9,59.9,144.709a.508.508,0,1,1,1,.193c-.519,2.8,2.475,15.535,8.24,18.8a1.9,1.9,0,0,1-1.655-.517,13.9,13.9,0,0,1,1.382,1.546" transform="translate(72.866 175.743)" fill="#1f1f1e"/>
        <path id="Trazado_134345" data-name="Trazado 134345" d="M68.174,163.527C61.968,160.615,58.523,153,57.5,148.89a.511.511,0,0,1,.37-.628.524.524,0,0,1,.628.37c.874,3.511,3.567,9.67,8.253,12.913-.439-.151-.75-.259-.861-.3.262.193,1.967,1.355,2.282,2.285" transform="translate(70.017 180.569)" fill="#1f1f1e"/>
        <path id="Trazado_134346" data-name="Trazado 134346" d="M134.8,144.953a31.611,31.611,0,0,1-9.4,13.956,26.085,26.085,0,0,1,1.748-2.256,9.218,9.218,0,0,1-3.005,1.914c6.953-5.25,9.646-13.818,9.69-13.911a.509.509,0,0,1,.641-.346.521.521,0,0,1,.326.643" transform="translate(151.201 175.743)" fill="#1f1f1e"/>
        <path id="Trazado_134347" data-name="Trazado 134347" d="M137.114,148.327a48.87,48.87,0,0,1-10.85,12.4c.288-.725.628-1.451.945-2.089.011-.033.011-.033.027-.033a52.218,52.218,0,0,0,9.007-10.793.507.507,0,1,1,.872.519" transform="translate(153.789 179.724)" fill="#1f1f1e"/>
        <path id="Trazado_134348" data-name="Trazado 134348" d="M137.156,150.093a29.5,29.5,0,0,1-7.654,11.066,17.443,17.443,0,0,1,1.668-2.5,28.3,28.3,0,0,1-3.784,2.828c5.915-4.086,8.774-11.671,8.812-11.749a.511.511,0,1,1,.958.355" transform="translate(155.156 181.976)" fill="#1f1f1e"/>
        <path id="Trazado_134349" data-name="Trazado 134349" d="M102.968,143.653,99.55,156.73a.488.488,0,0,1-.475.386c-.069.011-1.109.04-2.023.04-.477,0-.929-.011-1.189-.04-.426-.042-.985-.087-3.2-13.463.357.011.694.011,1.051.022.927,5.472,2,11.31,2.46,12.441.643.016,1.856,0,2.486-.013l3.238-12.427c.357,0,.714-.011,1.065-.022" transform="translate(112.869 174.969)" fill="#1f1f1e"/>
        <path id="Trazado_134350" data-name="Trazado 134350" d="M202.889,127.647a153.061,153.061,0,0,0-24.394-3.58c-17.984-1.366-45.777.9-74.245,3.418-19.075,1.679-32.578,1.023-39.74.353-.71-14.306-1.366-26.864-1.488-27.233-.018-.042-.04-.018-.08.067.024-6.831-.657-13.5-.657-13.5C74.98,81.484,113.819,76.689,145.7,75.322s55.521,6.86,55.521,6.86c.113.914.386,3.567.739,7.16.069,1.845.889,23.438.929,38.3" transform="translate(75.864 91.555)" fill="#a6bbff"/>
        <path id="Trazado_134351" data-name="Trazado 134351" d="M64.371,105.91l-.035,0a.506.506,0,0,1-.475-.546c.264-4.25-.77-13.818-1.595-21.512-.581-5.376-1.082-10.021-1.082-12.106a.511.511,0,0,1,1.022,0c0,2.029.5,6.652,1.076,11.993.878,8.136,1.874,17.354,1.6,21.692a.518.518,0,0,1-.51.481" transform="translate(74.522 86.763)" fill="#1f1f1e"/>
        <path id="Trazado_134352" data-name="Trazado 134352" d="M87.64,25.592c0,2.165-.6,3.917-1.335,3.917s-1.333-1.752-1.333-3.917.594-3.921,1.333-3.921,1.335,1.752,1.335,3.921" transform="translate(103.496 26.395)" fill="#1f1f1e"/>
        <path id="Trazado_134353" data-name="Trazado 134353" d="M99.5,25.145c0,2.163-.6,3.921-1.34,3.921s-1.333-1.759-1.333-3.921.6-3.921,1.333-3.921,1.34,1.757,1.34,3.921" transform="translate(117.94 25.851)" fill="#1f1f1e"/>
        <path id="Trazado_134354" data-name="Trazado 134354" d="M201.217,127.2s-3.9,3.192-12.135,6.787c-10.052,4.389-26.585,9.393-50.5,9.954a195.622,195.622,0,0,1-62.113-8.482A109.119,109.119,0,0,1,65.014,131.3l-1.366,4.327A78.659,78.659,0,0,0,93.254,157.49c19.818,8.129,55.8,8.129,76.984,1.368,16.688-5.328,31.888-25.052,32.574-25.052s-1.595-6.61-1.595-6.61" transform="translate(77.523 154.926)" fill="#c9dedc"/>
        <path id="Trazado_134355" data-name="Trazado 134355" d="M74.137,218.739a.512.512,0,0,1-.362-.149l-9.132-9.112a.511.511,0,0,1,.721-.725l9.136,9.109a.513.513,0,0,1,0,.727.506.506,0,0,1-.364.149" transform="translate(78.554 254.081)" fill="#1f1f1e"/>
        <path id="Trazado_134356" data-name="Trazado 134356" d="M121.479,216.481c-1.1,0-1.7-.133-1.981-.466a.727.727,0,0,1-.144-.674.51.51,0,0,1,.994.027,26.391,26.391,0,0,0,5.312-.182,30.45,30.45,0,0,1,5.363-.217.511.511,0,1,1-.149,1.011,31.7,31.7,0,0,0-5.128.224c-1.9.171-3.283.277-4.267.277" transform="translate(145.339 261.757)" fill="#1f1f1e"/>
        <path id="Trazado_134357" data-name="Trazado 134357" d="M89.9,274.907c-.1.384-.189.763-.288,1.12a73.519,73.519,0,0,1-18.458,2.828,29.11,29.11,0,0,1-7.7-.9c-.053-.366-.093-.763-.151-1.169,4.525,1.368,12.569,1.87,26.594-1.874" transform="translate(77.109 334.836)" fill="#1f1f1e"/>
        <path id="Trazado_134358" data-name="Trazado 134358" d="M140.994,273.349c-.1.4-.206.792-.3,1.16a50.43,50.43,0,0,1-29.892.029c-.038-.346-.078-.712-.118-1.1a49.349,49.349,0,0,0,30.311-.093" transform="translate(134.812 332.938)" fill="#1f1f1e"/>
        <path id="Trazado_134359" data-name="Trazado 134359" d="M135.46,39.153c-1,6.383-4.824,21.5-27.55,21.306C80.771,60.226,81.92,44.771,81,40.37c.419,1.859.874,3.58,1.366,5.057,4.549,13.9,23.165,12.8,31.882,11.778,8.227-.965,17.176-4.4,20.976-18.079a1.209,1.209,0,0,0,.233.027" transform="translate(98.663 47.655)" fill="#1f1f1e"/>
        <path id="Trazado_134360" data-name="Trazado 134360" d="M120.564,58.362c-.657-13.505-8.3-21.672-14.641-24.076s-3.933-6.991-5.878-14.2S89.891,8.789,83.639,12.438c-11.7,6.829-17.489,4.735-23.378,3.059-6.337-1.8-11.09.659-12.9,6.774-1.136,3.864-1.169,4.948-6.193,9.54s-11.219.1-15.151,10.591c-1.854,4.944,4.139,9.309.373,17.972-3.13,7.193-1.53,14.335.652,17.176s3.28,6.774,2.624,13.326,2.841,12.674,9.176,16.169c5.634,3.107,14.705-1.209,19.727-6.355-4.208-3.473-12.285-11.183-14.047-20.3-2.4-12.458,1.97-30.593,4.152-33.212a40.18,40.18,0,0,0,12.452-.437c7-1.309,14.424-4.806,19.45-7.867s8.958.439,14.2,8.3,6.117,15.3,4.587,28.4-11.8,22.941-11.8,22.941-1.342,2.715-2.832,5.911c1.958-.681,3.968-1.3,5.889-1.759,8.3-1.965,13.111,0,18.574-2.624s4.806-8.519,4.152-12.889-2.185-5.9,1.091-8.956,6.774-6.339,6.119-19.844" transform="translate(30.016 13.495)" fill="#85402b"/>
        <path id="Trazado_134361" data-name="Trazado 134361" d="M63.129,285.634a9.84,9.84,0,0,1-6.339.659s.874,3.932-1.049,5.026-2.444.437-7.47-.654-7.867-2.846-8.306-4.372a3.591,3.591,0,0,1,.082-1.187c-.954,3.041.029,8.721,2.759,12.875s5.026,5.461,7.213,5.132,5.722-7.1,5.722-7.1,1.218,3.229,3.287,2.972c3.28-.41,6.06-7.457,7.049-9.972a23.617,23.617,0,0,0,1.49-10.005,7.847,7.847,0,0,1-4.438,6.621" transform="translate(48.343 339.837)" fill="#542b22"/>
        <path id="Trazado_134362" data-name="Trazado 134362" d="M52.265,278.748s0,.222-.007.588a5.763,5.763,0,0,0,.007-.588" transform="translate(63.65 339.514)" fill="#ec875f"/>
        <path id="Trazado_134363" data-name="Trazado 134363" d="M70.805,299.768v.59a7.793,7.793,0,0,1-4.452,6.605,10.314,10.314,0,0,1-5.691.825c-.413-.089-.65-.146-.65-.146a9.5,9.5,0,0,1,.177,2.6,2.948,2.948,0,0,1-1.238,2.418c-1.919,1.091-2.42.441-7.461-.65-5.013-1.089-7.843-2.83-8.315-4.363a5.189,5.189,0,0,1,.089-1.209c.708-3.893,4.452-15.275,4.07-17.369-.355-2.005-6.636-16.9-9.349-24.622-.384-1.18-.736-2.182-.943-2.948,6.368.264,12.5.53,17.868.765h1c1.034.06,2.065.089,3.039.149,3.36.118,7.224.206,11.381.206-.264.59-.59,1.415-1,2.418-1.8,4.423-4.511,11.942-4.068,15.51.648,5.248,3.478,13.328,5.013,16.837a6.564,6.564,0,0,1,.53,2.389" transform="translate(45.118 318.499)" fill="#ec875f"/>
        <path id="Trazado_134364" data-name="Trazado 134364" d="M171.632,319.7c-.328-24.58-4.915-75.053-10.489-103.234s-24.34-76.257-30.686-88.928c0,0-10.935,5.463-41.264,6.993s-42.867-4.809-42.867-4.809c-2.619,5.678-19.578,51.848-23.812,86.3C4.158,365.252,15.955,422.283,15.955,422.283s27.173,1.3,51.327,2.36c8,.348,15.668.672,21.912.918,3.343.133,7.2.191,11.374.2,27.1.049,67.458-2.167,67.458-2.167s3.935-79.311,3.606-103.891" transform="translate(14.888 155.341)" fill="#5b2d24"/>
        <path id="Trazado_134365" data-name="Trazado 134365" d="M53.7,60.09a15.022,15.022,0,0,1-2.91-1.324c.8.366,1.77.8,2.91,1.324" transform="translate(61.861 71.577)" fill="#005692"/>
        <path id="Trazado_134366" data-name="Trazado 134366" d="M157.792,187.025c-7.408,3.737-19.716,4.744-24.582,5-1.3.067-2.072.091-2.072.091s-.47,1.151-.978,2.7c-.752,2.267-1.6,5.361-1.207,6.922.157.641.43,1.506.756,2.464.106.3.222.614.328.943.7,1.93,1.495,3.972,1.916,5.03.18.461.286.741.286.741s-.719.35-2.309.929c-.038.013-.091.024-.126.038a98.723,98.723,0,0,1-17.635,4c0,.011-.013,0-.013,0-5.647.852-12.649,1.586-21.182,2.021-30.327,1.53-42.854-4.813-42.854-4.813l.169-.446,1.375-3.54.368-.932.761-1.963.812-2.074c-17.252,3.278-27.962-.878-31.46-6.776s-9.389-23.154-9.389-40.026,1.967-46.5,11.578-65.285S46.152,68.229,55.33,66.26a115.761,115.761,0,0,0,22.231-7.169S87.8,99.676,89.216,101.985c0,0,3.684-9.285,6.1-16.926,2.4-7.657,7.22-25.343,7.22-25.343,6.383,2.861,17.553,7.668,27.947,11.132,15.734,5.243,22.289,10.054,26,15.522s11.8,27.962,13.111,48.505c1.311,20.528-2.4,47.4-11.8,52.15" transform="translate(13.102 71.973)" fill="#c4d1ff"/>
        <path id="Trazado_134367" data-name="Trazado 134367" d="M88.84,60.921c-1.533,13.106-11.8,22.941-11.8,22.941s-.16.326-.448.876c-.481,1.014-1.349,2.8-2.291,4.824a1.122,1.122,0,0,1-.1.213c-1.819,3.888-3.85,8.49-3.968,9.817-.091,1.051.81,1.925,1.861,2.6a14.916,14.916,0,0,0,2.988,1.349s-4.822,17.686-7.222,25.343c-2.413,7.641-6.1,16.926-6.1,16.926-1.415-2.309-11.653-42.894-11.653-42.894a.124.124,0,0,0,.04-.029,8.923,8.923,0,0,0,3.123-2.974c1-1.548.078-5-.932-7.787-.841-2.267-1.748-4.1-1.748-4.1s-1.007-.692-2.524-1.965a.045.045,0,0,0-.029-.016c-4.21-3.484-12.285-11.183-14.055-20.3-2.4-12.458,1.97-30.586,4.159-33.206a40.4,40.4,0,0,0,12.45-.448c6.991-1.311,14.426-4.8,19.445-7.867,5.035-3.052,8.967.448,14.211,8.315s6.111,15.282,4.587,28.395" transform="translate(40.549 28.154)" fill="#ec875f"/>
        <path id="Trazado_134368" data-name="Trazado 134368" d="M52.013,60.4c-3.507,6.082-22.739,35.8-22.739,35.8s11.8-7.645,20.758-6.989,16.635,12.782,16.635,12.782l-11.656-42.9Z" transform="translate(35.656 71.973)" fill="#5b2d24"/>
        <path id="Trazado_134369" data-name="Trazado 134369" d="M59.448,59.375,46.133,101.646s6.96-13.656,18.542-15.406,17.7,3.713,17.7,3.713L63.254,61.22Z" transform="translate(56.19 72.319)" fill="#5b2d24"/>
        <path id="Trazado_134370" data-name="Trazado 134370" d="M35.7,32.166c-1.615.719,4.423-3.116,8.848-3.278s6.714,2.127,5.9,3.278-8.524-2.788-14.747,0" transform="translate(43.159 35.175)" fill="#85402b"/>
        <path id="Trazado_134371" data-name="Trazado 134371" d="M63.12,30.692a13.881,13.881,0,0,0-8.848-1.75c-5.248.663-5.822,2.566-4.263,3.5,1.2.714,6.556-1.65,13.111-1.75" transform="translate(59.986 35.111)" fill="#85402b"/>
        <path id="Trazado_134372" data-name="Trazado 134372" d="M42.777,56.234c-.5,0-.592-.2-.67-.353-.506-1.009,2.97-21.007,3.575-22.817a.491.491,0,0,1,.625-.313.484.484,0,0,1,.3.625c-.825,2.482-3.469,19.319-3.593,21.878a38.414,38.414,0,0,0,6.206-2.338.494.494,0,0,1,.406.9c-4.283,1.923-6.068,2.415-6.854,2.415m.242-.7h0Z" transform="translate(51.226 39.861)" fill="#1f1f1e"/>
        <path id="Trazado_134373" data-name="Trazado 134373" d="M48.322,50.317a10.983,10.983,0,0,1-6.446-1.939.488.488,0,0,1-.087-.688.494.494,0,0,1,.692-.086c.2.157,5.108,3.842,12.412-.044a.49.49,0,1,1,.464.863,14.881,14.881,0,0,1-7.035,1.894" transform="translate(50.774 57.855)" fill="#1f1f1e"/>
        <path id="Trazado_134374" data-name="Trazado 134374" d="M42.349,37.534c0,2.533-.783,4.585-1.746,4.585s-1.748-2.052-1.748-4.585.781-4.585,1.748-4.585S42.349,35,42.349,37.534" transform="translate(47.326 40.132)" fill="#1f1f1e"/>
        <path id="Trazado_134375" data-name="Trazado 134375" d="M53.739,37.534c0,2.533-.694,4.585-1.555,4.585s-1.557-2.052-1.557-4.585.694-4.585,1.557-4.585S53.739,35,53.739,37.534" transform="translate(61.664 40.132)" fill="#1f1f1e"/>
        <path id="Trazado_134376" data-name="Trazado 134376" d="M68.478,50.9c-.484,1.011-1.351,2.8-2.291,4.824-3.356,2.245-8.455,5.075-12.9,5.163a15.7,15.7,0,0,1-9.056-2.608c-.841-2.265-1.748-4.1-1.748-4.1s-1.007-.692-2.526-1.965c.457.246,8.007,4.272,15.455,4.747,4.1.264,9.2-2.974,13.068-6.057" transform="translate(48.665 61.995)" fill="#bb4a36"/>
        <path id="Trazado_134377" data-name="Trazado 134377" d="M37.275,122.655a.459.459,0,0,1-.215-.051c-19.144-9.4-12.623-37.8-12.552-38.083a.488.488,0,1,1,.949.231c-.064.277-6.4,27.913,12.035,36.97a.493.493,0,0,1-.217.934" transform="translate(28.478 102.49)" fill="#1f1f1e"/>
        <path id="Trazado_134378" data-name="Trazado 134378" d="M28.866,114.4a.492.492,0,0,1-.484-.437L26.717,99.667a.493.493,0,0,1,.433-.546.5.5,0,0,1,.548.435l1.661,14.295a.491.491,0,0,1-.435.543.242.242,0,0,1-.058,0" transform="translate(32.537 120.727)" fill="#1f1f1e"/>
        <path id="Trazado_134379" data-name="Trazado 134379" d="M68.182,104.807a.332.332,0,0,1-.1-.013.484.484,0,0,1-.375-.583c.024-.118,2.619-11.982,3.1-16.81a.478.478,0,0,1,.539-.444.49.49,0,0,1,.439.539c-.488,4.886-3.014,16.438-3.123,16.928a.489.489,0,0,1-.481.384" transform="translate(82.449 105.908)" fill="#1f1f1e"/>
        <path id="Trazado_134380" data-name="Trazado 134380" d="M96.027,124.878c-29.925,0-57.493-9.12-57.772-9.214a.491.491,0,0,1,.308-.932c.288.093,28.945,9.568,59.489,9.151h0a.491.491,0,0,1,.007.983c-.679.009-1.36.011-2.036.011" transform="translate(46.184 139.713)" fill="#1f1f1e"/>
        <path id="Trazado_134381" data-name="Trazado 134381" d="M25.614,135.429a.492.492,0,0,1-.035-.983c24.76-1.848,45.4-17.414,45.6-17.569a.493.493,0,0,1,.6.783c-.208.16-21.067,15.9-46.128,17.766l-.038,0" transform="translate(30.597 142.237)" fill="#1f1f1e"/>
        <path id="Trazado_134382" data-name="Trazado 134382" d="M108.674,125.457c-4.3,1.73-19.024,7.013-39.72,7.566q-2.485.06-4.851.062a167.41,167.41,0,0,1-35.8-3.666l.366-.934a168.256,168.256,0,0,0,40.257,3.553c20.65-.537,35.255-5.82,39.423-7.523.106.3.222.614.328.943" transform="translate(34.469 151.658)" fill="#1f1f1e"/>
        <path id="Trazado_134383" data-name="Trazado 134383" d="M112,127.947s-.721.35-2.309.929c-.038.013-.093.024-.126.04a145.468,145.468,0,0,1-17.635,4c0,.011-.016,0-.016,0-5.933,1.007-12.989,1.914-21.144,2.506-4.194.3-8.034.428-11.551.428-21.967,0-31.145-5.044-31.591-5.3a.487.487,0,0,1-.184-.668.472.472,0,0,1,.6-.206c.027,0,.038.011.067.022.133.067,12.585,6.882,42.592,4.749,21.16-1.522,34.752-5.181,41.006-7.24.182.459.288.739.288.739" transform="translate(33.347 154.939)" fill="#1f1f1e"/>
        <path id="Trazado_134384" data-name="Trazado 134384" d="M44.617,134.737a.49.49,0,0,1-.492-.488v-5.82a.491.491,0,1,1,.983,0v5.82a.49.49,0,0,1-.49.488" transform="translate(53.744 155.827)" fill="#1f1f1e"/>
        <path id="Trazado_134385" data-name="Trazado 134385" d="M49.987,134.316a.488.488,0,0,1-.475-.355l-1.526-5.4a.491.491,0,0,1,.945-.271l1.53,5.4a.492.492,0,0,1-.339.605.581.581,0,0,1-.135.018" transform="translate(58.424 155.827)" fill="#1f1f1e"/>
        <path id="Trazado_134386" data-name="Trazado 134386" d="M50.317,307.22a9.5,9.5,0,0,1,.177,2.6c-.472-2.183-1.062-4.835-1.71-7.579-1.326-5.78-2.713-11.735-3.1-15.244a189.911,189.911,0,0,1-.472-25.152h1a193.438,193.438,0,0,0,.444,25.035c.382,3.449,1.8,9.67,3.065,15.127.444,1.888.856,3.686,1.238,5.365-.413-.087-.648-.146-.648-.146" transform="translate(54.814 318.92)" fill="#1f1f1e"/>
        <path id="Trazado_134387" data-name="Trazado 134387" d="M70.33,262.607c-.26.6-.6,1.439-1.011,2.424-11.627,3.225-25.469.756-31.34-.594-.395-1.164-.723-2.171-.932-2.948,7.994.344,15.663.674,21.9.918,3.356.133,7.208.2,11.378.2" transform="translate(45.123 318.493)" fill="#bb4a36"/>
        <path id="Trazado_134388" data-name="Trazado 134388" d="M54.54,113.2S70.514,102.194,77.813,98.41c7.484-3.879,13.661-3.988,14.093-2.455s-13.874,7.59-13.874,7.59S91.8,97.59,94.2,100.211s-11.361,7.049-11.361,7.049,11.578-1.912,12.017-.166-1.4,5.09-12.674,6.064c-9.932.861-27.645.044-27.645.044" transform="translate(66.43 115.753)" fill="#ec875f"/>
        <path id="Trazado_134389" data-name="Trazado 134389" d="M34.863,109.34a.492.492,0,0,1-.06-.98c.275-.035,27.84-3.5,40.321-4.857a136.061,136.061,0,0,1,25.145-.058.5.5,0,0,1,.437.546.506.506,0,0,1-.541.437,134.221,134.221,0,0,0-24.939.055c-12.467,1.355-40.024,4.818-40.3,4.851a.247.247,0,0,1-.06.007" transform="translate(41.866 125.309)" fill="#1f1f1e"/>
        <path id="Trazado_134390" data-name="Trazado 134390" d="M66.99,117.281a41.883,41.883,0,0,1-17.482,14.41,46.221,46.221,0,0,1-20.7,4.261l.807-2.074c26.667-4.587,35.055-17.107,35.055-17.107Z" transform="translate(35.089 142.227)" fill="#1f1f1e"/>
        <path id="Trazado_134391" data-name="Trazado 134391" d="M91.038,121.488c-1.3.067-2.072.091-2.072.091s-.468,1.151-.978,2.7a129.616,129.616,0,0,1-18.463-.736,88.64,88.64,0,0,1-24.145-5.78L46.809,117s12.991,2.613,19.875,3.382,24.354,1.1,24.354,1.1" transform="translate(55.274 142.507)" fill="#1f1f1e"/>
        <path id="Trazado_134392" data-name="Trazado 134392" d="M53.255,105.914c-3.715-1.089-12.454-.869-18.786,1.533S18.077,117.5,19.39,119.681s10.05-2.841,10.05-2.841-8.958,5.68-7.867,7.428,11.8-3.056,11.8-3.056-7.865,3.932-6.554,5.678,12.671,0,12.671,0-9.178.657-8.082,2.624,11.141,1.313,17.917,0,11.8-2.839,11.8-2.839Z" transform="translate(23.475 128.24)" fill="#ec875f"/>
        <path id="Trazado_134393" data-name="Trazado 134393" d="M299.685,238.681c-1.3,29.3-11.194,63.617-13.9,64.644-1.526.581-6.346-2.4-10.6-5.6-3.325-2.531-6.292-5.195-7.031-6.426a11.538,11.538,0,0,1-1.309-6.348c-7.648,2.431-32.644.557-46.822,1.5-3.773.246-9.387.284-15.8.246-.279-.011-.568-.011-.861-.011-17.582-.155-40.667-.883-48.077.324-10.265,1.681-19.592,4.29-19.592,4.29s-.055-.741-.1-2.016c2.484.484,4.669.594,4.946-1.067a3.975,3.975,0,0,0-.031-1.193c-.406-2.351-2.584-5.687-4.835-8.364.355-7.24,1.876-34.936.949-35.124s-4.476,31.533-4.476,31.533c-6.312-5.048-14.051.02-17.5,2.852-.013-.033-5.734-12.11-8.016-32.236a264.9,264.9,0,0,1,.69-63.9c3.3-23.2,17.733-56.353,35.266-75.19,14.765-15.852,31.64-17.161,40.385-17.744.224-.024.435-.035.641-.047a31.675,31.675,0,0,0,2.464,3.482,24.443,24.443,0,0,0,18.456,9.637c12.751.652,20.576-5.361,25.243-12.254.406.075.816.144,1.218.226.215.04.424.073.628.118,7.357,1.446,13.645,3.4,17.779,5.669,11.751,6.434,21.266,12.873,35.818,39.454s15.761,74.254,14.459,103.547" transform="translate(127.934 108.161)" fill="#5b2d24"/>
        <path id="Trazado_134394" data-name="Trazado 134394" d="M186.075,85.289a12.657,12.657,0,1,1-12.658-12.658,12.656,12.656,0,0,1,12.658,12.658" transform="translate(195.806 88.464)" fill="#636363"/>
        <path id="Trazado_134395" data-name="Trazado 134395" d="M211.454,90.478a3.523,3.523,0,0,0-3.966-.572,13.586,13.586,0,0,1-4.429,3.369s-3.731-4.338-3.875-12.734-2.8-13.432-6.292-16.092-11.3,1.679-19.856.142-18.361-2.644-23.943,4.2c-4.07,4.99-8.351,21.69-8.351,21.69a20.306,20.306,0,0,0-2-2.8c-1.076-1.087-2.475-1.907-3.964-1.12-3.174,1.679-.375,19.776,8.581,18.658a44.617,44.617,0,0,0,5.574,14.488c3.928,6.392,10.416,12.6,20.918,13.124,12.754.641,20.579-5.368,25.25-12.257a40.1,40.1,0,0,0,5.909-14.421s2.424,1.493,5.594-.934,8.207-11.567,4.853-14.736" transform="translate(162.62 77.261)" fill="#f0875e"/>
        <path id="Trazado_134396" data-name="Trazado 134396" d="M151.078,239.963c-.279-.011-.568-.011-.861-.011-3.493-22.8-.248-96.882,1.71-112.419a.42.42,0,1,1,.832.113c-1.972,15.546-5.206,89.773-1.681,112.317" transform="translate(181.081 154.889)" fill="#1f1f1e"/>
        <path id="Trazado_134397" data-name="Trazado 134397" d="M186.494,89.417c-2.191,9.491-8,34.541-9.577,41.19-1.961,8.249-14.834,48.829-16.511,48.55-1.393-.237-15.1-62.463-18.829-87.349a24.451,24.451,0,0,0,18.456,9.639c12.751.652,20.579-5.363,25.243-12.254.406.073.818.142,1.218.224" transform="translate(172.44 108.637)" fill="#cc952d"/>
        <path id="Trazado_134398" data-name="Trazado 134398" d="M135.871,74.364a20.411,20.411,0,0,1,2,2.8,12.648,12.648,0,0,0-2-2.8" transform="translate(165.491 90.575)" fill="#b3a990"/>
        <path id="Trazado_134399" data-name="Trazado 134399" d="M204.212,63.021a27.539,27.539,0,0,0-22.533-12.45c-10.074-.282-23.367-1.107-31.342,4.476s-13.709,15.391-15.391,25.185,1.406,22.373,1.406,22.373a3.406,3.406,0,0,1,1.253,1,12.576,12.576,0,0,1,2,2.8s4.283-16.7,8.353-21.69c5.583-6.84,15.391-5.738,23.943-4.2s16.353-2.8,19.856-.14,6.15,7.7,6.292,16.092,3.875,12.734,3.875,12.734a13.622,13.622,0,0,0,4.429-3.369c1.448-1.967,2.611-10.207,3.728-17.76a38.176,38.176,0,0,0-5.871-25.05" transform="translate(163.754 61.337)" fill="#636363"/>
        <path id="Trazado_134400" data-name="Trazado 134400" d="M140.8,75.874c-.79-1.282,4.385-3.174,7.832-3.174s7.934,2.522,7.282,4.012-4.105-1.116-8.4-.652-5.973,1.027-6.718-.186" transform="translate(171.391 88.548)" fill="#bcccc6"/>
        <path id="Trazado_134401" data-name="Trazado 134401" d="M152.861,76.5c-1.324-1.049,2.065-3.15,7.173-3.913s8.475.858,8.262,1.959-5.195.235-7.869.81-6.474,2-7.566,1.144" transform="translate(185.834 88.169)" fill="#bcccc6"/>
        <path id="Trazado_134402" data-name="Trazado 134402" d="M123.76,179.362a3.7,3.7,0,0,0-.031-1.193c-2.866,1.282-4.915,2.262-4.915,2.262,2.482.472,4.669.592,4.946-1.069" transform="translate(144.715 217.009)" fill="#e4bf70"/>
        <path id="Trazado_134403" data-name="Trazado 134403" d="M143.774,283.835a13.192,13.192,0,0,1-.357-1.577c-2.819.645-20.319,10.431-20.505,11.924s34.437,1.863,36.859-.271c.592-.526,1.349-8.956.044-11.567-5.226,3.728-16.041,1.49-16.041,1.49" transform="translate(149.705 343.789)" fill="#5b2d24"/>
        <path id="Trazado_134404" data-name="Trazado 134404" d="M180.551,282.344l-.044.639-3.731,1.413c-3.728,1.411-13.057,0-13.057,0-.747,1.759.747,8.475,1.677,9.036s32.84,1.118,36.568,0c3.529-1.062-9.287-9.6-21.413-11.088" transform="translate(199.162 343.894)" fill="#5b2d24"/>
        <path id="Trazado_134405" data-name="Trazado 134405" d="M162.412,244.34l-.728,7.925-7.175,78.75c-5.23,3.726-16.052,1.486-16.052,1.486a12.562,12.562,0,0,1-.346-1.566c-2.043-10.755-9.185-67.467-10.6-85.062-.122-1.488-.2-2.7-.235-3.573,8.116.8,20.922,1.7,35.14,2.041" transform="translate(155.017 295.12)" fill="#f0875e"/>
        <path id="Trazado_134406" data-name="Trazado 134406" d="M194.23,239.9l-.222,3.584-5.765,90.568-.047.639-3.728,1.411c-3.731,1.411-13.06,0-13.06,0S162,277.913,158.3,253.847c-.47-3.036-.841-5.518-1.1-7.288A220.579,220.579,0,0,0,194.23,239.9" transform="translate(191.47 292.193)" fill="#f0875e"/>
        <path id="Trazado_134407" data-name="Trazado 134407" d="M258.728,190c-3.327-2.522-6.295-5.19-7.035-6.419a11.555,11.555,0,0,1-1.306-6.35c-7.65,2.433-32.644.559-46.824,1.5s-54.483-1.12-64.737.559-19.589,4.29-19.589,4.29-.049-.736-.1-2.014c0,0-1.768,42.872.845,77.2s7.461,60.822,8.956,61.567c.475.237,3.757.705,8.961,1.211,8.113.8,20.92,1.71,35.142,2.045,5.31.124,10.813.173,16.342.1,5.01-.064,10.025-.359,14.9-.812a221.139,221.139,0,0,0,37.032-6.667c5.259-1.471,8.535-2.748,8.892-3.343,1.118-1.865,6.712-58.943,8.768-89.545A209.863,209.863,0,0,0,258.728,190" transform="translate(144.393 215.871)" fill="#c4d1ff"/>
        <path id="Trazado_134408" data-name="Trazado 134408" d="M110.276,184.855c.151-2.28.191-4.128.191-4.128a13.011,13.011,0,0,0-.191,4.128" transform="translate(134.22 220.125)" fill="#ffb9ad"/>
        <path id="Trazado_134409" data-name="Trazado 134409" d="M113.486,187.925c-.251-3.081-.889-6.315-.889-6.315a17.005,17.005,0,0,0,.889,6.315" transform="translate(137.13 221.2)" fill="#ffb9ad"/>
        <path id="Trazado_134410" data-name="Trazado 134410" d="M179.57,184.573c-.843,2.251-5.037,17.072-2.236,17.91s7.836-8.952,7.836-8.952,2.238,8.113,0,15.95-2.52,10.074-1.12,10.356,7-11.2,7-11.2-3.919,10.644-2.517,11.2,8.954-8.683,10.356-15.118a32.6,32.6,0,0,0,0-12.6L181.251,180.1s-.3.83-1.681,4.476" transform="translate(214.834 219.358)" fill="#f0875e"/>
        <path id="Trazado_134411" data-name="Trazado 134411" d="M107.976,418.429a2.327,2.327,0,0,1-.326-.022,2.8,2.8,0,0,1-2.458-3.1c.142-1.246,14.461-125.066,25.649-175.772,6.96-31.56,7.936-47.447,3.247-53.117-1.956-2.364-5.206-3.3-10.89-3.154-11.46.313-12.425,20.618-12.432,20.823a2.769,2.769,0,0,1-2.908,2.682,2.8,2.8,0,0,1-2.688-2.9,48.385,48.385,0,0,1,2.387-12.405c3.837-11.154,10.542-13.656,15.49-13.789,5.046-.129,11.343.326,15.355,5.183,6.142,7.428,5.574,23.12-2.1,57.885-11.13,50.428-25.416,173.966-25.554,175.208a2.806,2.806,0,0,1-2.777,2.482" transform="translate(128.095 216.38)" fill="#5b2d24"/>
        <path id="Trazado_134412" data-name="Trazado 134412" d="M107.607,185.633a37.017,37.017,0,0,0,.481-4.78,12.576,12.576,0,0,0-.481,4.78" transform="translate(131.003 220.278)" fill="#ffb9ad"/>
        <path id="Trazado_134413" data-name="Trazado 134413" d="M139.662,187.107c-.277,1.661-2.462,1.55-4.946,1.067-2.542-.481-5.383-1.344-6.809-1.067-2.8.561-1.4,12.6-1.4,15.4v2.8a7.957,7.957,0,0,1-3.828-3.569,9.846,9.846,0,0,1-.883-1.872,59.173,59.173,0,0,0-.841-6.013v-.02c-.024-.18-.047-.282-.047-.282a19.737,19.737,0,0,0,.182,3.414.038.038,0,0,1,0,.024,14.073,14.073,0,0,0,.705,2.877c.053.763.1,1.51.1,2.191-.011,1.721-.268,3.054-1,3.249-1.668.415-4.445-4.055-5.13-8.9-.031-.224-.062-.459-.089-.683.071-1.14.126-2.171.151-2.919.007-.093.007-.182.007-.268.013-.184.024-.337.024-.472.009-.293.009-.47.009-.47-.033.177-.078.362-.1.537s-.062.368-.078.55c-.031.246-.053.506-.067.747s-.02.495-.02.741a14.6,14.6,0,0,0,.075,1.555c-.191,2.89-.548,6.457-1.207,7.861-.166.357-.357.57-.561.6-1.253.213-3.737-3.145-4.119-7.535a37.017,37.017,0,0,0,.481-4.78,12.472,12.472,0,0,0-.481,4.78,14.174,14.174,0,0,1-.448,1.881,4.443,4.443,0,0,1-.781,1.546.991.991,0,0,1-1.369.189c-2.8-1.677-1.681-13.432,4.758-21.827a23.3,23.3,0,0,1,1.817-1.626c3.445-2.83,11.183-7.9,17.493-2.852a27.132,27.132,0,0,1,3.529,3.593c2.662,3.17,5.25,7.277,4.866,9.557" transform="translate(128.813 209.265)" fill="#f0875e"/>
        <path id="Trazado_134414" data-name="Trazado 134414" d="M138.177,81.978a.436.436,0,0,1-.242-.075c-1.455-1.04-3.039-4.778-3.107-4.937a.424.424,0,0,1,.224-.55.416.416,0,0,1,.55.224c.43,1.022,1.774,3.835,2.824,4.578a.421.421,0,0,1,.091.586.407.407,0,0,1-.339.175" transform="translate(164.182 93.033)" fill="#1f1f1e"/>
        <path id="Trazado_134415" data-name="Trazado 134415" d="M165.749,83.467a.4.4,0,0,1-.087-.009.416.416,0,0,1-.319-.5c.446-2.1,4.21-4.631,4.372-4.738a.416.416,0,0,1,.581.115.421.421,0,0,1-.115.581c-1.007.672-3.706,2.746-4.023,4.216a.415.415,0,0,1-.408.333" transform="translate(201.374 95.186)" fill="#1f1f1e"/>
        <path id="Trazado_134416" data-name="Trazado 134416" d="M154.469,91.383a15.331,15.331,0,0,1-7.355-1.992.415.415,0,0,1-.144-.574.422.422,0,0,1,.579-.142c.055.038,5.906,3.513,11.638.841a.419.419,0,0,1,.35.761,11.839,11.839,0,0,1-5.068,1.107" transform="translate(178.936 107.931)" fill="#1f1f1e"/>
        <path id="Trazado_134417" data-name="Trazado 134417" d="M147.665,97.15a.916.916,0,0,1-.484-.122c-1.575-.985,2.954-19.691,3-19.875.135-.466.222-.77.577-.77a.421.421,0,0,1,.424.419.4.4,0,0,1-.093.26c-.683,1.573-4.012,18.092-3.391,19.325.386.2,3.021-1.59,5.439-3.8a.419.419,0,0,1,.594.027.425.425,0,0,1-.027.594c-1.38,1.258-4.5,3.944-6.042,3.944" transform="translate(178.862 93.034)" fill="#1f1f1e"/>
        <path id="Trazado_134418" data-name="Trazado 134418" d="M148.12,90.856a7.836,7.836,0,1,1,7.836-7.834,7.843,7.843,0,0,1-7.836,7.834m0-14.832a7,7,0,1,0,7,7,7,7,0,0,0-7-7" transform="translate(170.87 91.574)" fill="#1f1f1e"/>
        <path id="Trazado_134419" data-name="Trazado 134419" d="M159.212,90.64a7.7,7.7,0,1,1,7.694-7.7,7.711,7.711,0,0,1-7.694,7.7m0-14.552a6.856,6.856,0,1,0,6.851,6.856,6.867,6.867,0,0,0-6.851-6.856" transform="translate(184.54 91.651)" fill="#1f1f1e"/>
        <path id="Trazado_134420" data-name="Trazado 134420" d="M147.105,81.35a.387.387,0,0,1-.208-.055l-11.006-6.339a.419.419,0,1,1,.419-.725l11,6.339a.421.421,0,0,1,.155.572.43.43,0,0,1-.364.208" transform="translate(165.258 90.343)" fill="#1f1f1e"/>
        <path id="Trazado_134421" data-name="Trazado 134421" d="M157.231,78.969a.374.374,0,0,1-.109-.013c-3.68-.98-9.662,0-9.721.009a.422.422,0,0,1-.14-.832c.251-.04,6.224-1.016,10.079.013a.417.417,0,0,1,.3.51.425.425,0,0,1-.408.313" transform="translate(178.936 94.609)" fill="#1f1f1e"/>
        <path id="Trazado_134422" data-name="Trazado 134422" d="M158.405,81.272a.421.421,0,0,1-.118-.825l16.289-4.824a.41.41,0,0,1,.521.279.418.418,0,0,1-.279.523l-16.3,4.826a.451.451,0,0,1-.118.02" transform="translate(192.424 92.084)" fill="#1f1f1e"/>
        <path id="Trazado_134423" data-name="Trazado 134423" d="M130.274,117.389c-3.36,5.317-10.356,29.661,5.037,41.7,0,0-12.594-5.039-13.712-15.393s8.675-26.305,8.675-26.305" transform="translate(147.998 142.979)" fill="#1f1f1e"/>
        <path id="Trazado_134424" data-name="Trazado 134424" d="M169.154,160.2s11.11-3.917,18.108-13.991,1.113-28.823,1.113-28.823.566,31.879-19.221,42.814" transform="translate(206.029 142.981)" fill="#1f1f1e"/>
        <path id="Trazado_134425" data-name="Trazado 134425" d="M117.536,222.22a.421.421,0,0,1-.415-.359c-.031-.22-.812-5.589,2.848-23.145,1.836-8.836,3.921-24.757,5.76-38.8,2.182-16.659,3.456-26.137,4.3-27.219a.419.419,0,0,1,.661.515c-.743.956-2.462,14.1-4.13,26.816-1.837,14.058-3.928,29.994-5.773,38.859-3.624,17.4-2.846,22.8-2.837,22.845a.428.428,0,0,1-.35.484.332.332,0,0,1-.064.007" transform="translate(142.544 161.425)" fill="#1f1f1e"/>
        <path id="Trazado_134426" data-name="Trazado 134426" d="M119.082,179.025a.42.42,0,0,1-.153-.812c5.875-2.251,55.035-5.884,82.8-6.973a365.78,365.78,0,0,1,49.317,1.218.419.419,0,0,1-.1.832,363.089,363.089,0,0,0-49.193-1.209c-27.707,1.085-76.725,4.693-82.532,6.918a.448.448,0,0,1-.149.027" transform="translate(144.527 208.205)" fill="#1f1f1e"/>
        <path id="Trazado_134427" data-name="Trazado 134427" d="M182.514,239.618a.417.417,0,0,1-.417-.419c0-.386.009-38.857,1.113-58.236,1.109-19.285-7.754-48.554-7.843-48.849a.42.42,0,0,1,.8-.244c.091.293,9,29.7,7.883,49.142-1.1,19.352-1.12,57.8-1.12,58.187a.417.417,0,0,1-.419.419" transform="translate(213.574 160.256)" fill="#1f1f1e"/>
        <path id="Trazado_134428" data-name="Trazado 134428" d="M150.336,142.237c0,2.792-1.189,5.057-2.662,5.057s-2.657-2.265-2.657-5.057,1.191-5.059,2.657-5.059,2.662,2.267,2.662,5.059" transform="translate(176.63 167.082)" fill="#1f1f1e"/>
        <path id="Trazado_134429" data-name="Trazado 134429" d="M150.336,154.951c0,2.628-1.189,4.758-2.662,4.758s-2.657-2.129-2.657-4.758,1.191-4.758,2.657-4.758,2.662,2.132,2.662,4.758" transform="translate(176.63 182.935)" fill="#1f1f1e"/>
        <path id="Trazado_134430" data-name="Trazado 134430" d="M149.567,168.4c0,2.318-.876,4.2-1.961,4.2s-1.958-1.879-1.958-4.2.878-4.2,1.958-4.2,1.961,1.879,1.961,4.2" transform="translate(177.399 199.993)" fill="#1f1f1e"/>
        <path id="Trazado_134431" data-name="Trazado 134431" d="M113.453,191.639c.055.761.1,1.51.1,2.191a34.029,34.029,0,0,1-.8-5.068.038.038,0,0,0,0-.024c-.084-1.085-.126-2.125-.135-3.112V185.6a47.375,47.375,0,0,1,.424-6.683.418.418,0,0,1,.83.111,42.214,42.214,0,0,0,.472,14.477,9.962,9.962,0,0,1-.885-1.87" transform="translate(137.16 217.486)" fill="#1f1f1e"/>
        <path id="Trazado_134432" data-name="Trazado 134432" d="M113.694,179.224c-.705.94-1.97,4.722-2.679,8.956-.031-.226-.062-.459-.089-.685-.189,2.89-.546,6.459-1.207,7.861a36.931,36.931,0,0,1,1.218-10.9,6.379,6.379,0,0,1,.171-.625,18.533,18.533,0,0,1,1.914-5.095.417.417,0,1,1,.672.492" transform="translate(133.571 217.487)" fill="#1f1f1e"/>
        <path id="Trazado_134433" data-name="Trazado 134433" d="M111.307,178.691c-1.533,1.586-3.487,6.882-3.467,12.323a4.443,4.443,0,0,1-.781,1.546c-.472-6.226,1.834-12.572,3.646-14.45a.418.418,0,1,1,.6.581" transform="translate(130.322 216.778)" fill="#1f1f1e"/>
        <path id="Trazado_134434" data-name="Trazado 134434" d="M180.069,209.565a.415.415,0,0,1-.3-.129.421.421,0,0,1,.011-.59c9.265-8.992,8.282-19.405,8.266-19.512a.418.418,0,1,1,.832-.086c.018.106,1.036,10.932-8.51,20.2a.432.432,0,0,1-.3.118" transform="translate(218.816 230.047)" fill="#1f1f1e"/>
        <path id="Trazado_134435" data-name="Trazado 134435" d="M127.272,242.3c8.116.8,20.925,1.7,35.14,2.041l-.728,7.925a172,172,0,0,1-34.175-6.392c-.124-1.488-.2-2.7-.237-3.573" transform="translate(155.017 295.118)" fill="#bb4a36"/>
        <path id="Trazado_134436" data-name="Trazado 134436" d="M194.23,239.9l-.222,3.584a170.489,170.489,0,0,1-35.71,10.367c-.47-3.036-.841-5.518-1.1-7.288A220.579,220.579,0,0,0,194.23,239.9" transform="translate(191.47 292.193)" fill="#bb4a36"/>
        <path id="Trazado_134437" data-name="Trazado 134437" d="M146.683,79.908c0,1.841-.732,3.336-1.632,3.336s-1.63-1.495-1.63-3.336.728-3.336,1.63-3.336,1.632,1.493,1.632,3.336" transform="translate(174.685 93.264)" fill="#1f1f1e"/>
        <path id="Trazado_134438" data-name="Trazado 134438" d="M157.911,79.7c0,1.843-.73,3.338-1.63,3.338s-1.632-1.495-1.632-3.338.732-3.334,1.632-3.334,1.63,1.495,1.63,3.334" transform="translate(188.361 93.01)" fill="#1f1f1e"/>
        <path id="Trazado_134439" data-name="Trazado 134439" d="M163.226,106.031C147.5,104.876,141.9,93.808,140.177,88.849c.226-.024.435-.035.641-.047a31.675,31.675,0,0,0,2.464,3.482,24.45,24.45,0,0,0,18.456,9.637c12.751.652,20.576-5.361,25.243-12.254.406.075.816.144,1.218.226.215.04-8.932,17.314-24.972,16.138" transform="translate(170.735 108.161)" fill="#1f1f1e"/>
        <path id="Trazado_134440" data-name="Trazado 134440" d="M126.632,200.519c-1.029,14.512-5.674,32.409-7.861,40.206-3.538-6.84-7.122-12.964-9.992-16.5-.362-.439-.712-.845-1.056-1.207,0,0,5.1-19.929,2.1-48.37-.016-.228-.044-.461-.069-.694l12.152-9.679s6.08,17.105,4.729,36.24" transform="translate(131.208 200.091)" fill="#f0875e"/>
        <path id="Trazado_134441" data-name="Trazado 134441" d="M109.808,219.87c-.362-.441-1.741-2.182-2.083-2.544,0,0,5.095-19.931,2.1-48.37,2.145,5.86,6.523,22.284-.013,50.914" transform="translate(131.209 205.788)" fill="#b94734"/>
        <path id="Trazado_134442" data-name="Trazado 134442" d="M139.989,147.467s2.919-8.28,1.852-14.965a4.485,4.485,0,0,1-1.415,1.974c-3.826,2.848-11.467,1.437-11.467,1.437-2.928,4.727-10.8,5.177-12.341,4.276s-5.665-19.58-12.212-18.751-16.185,18.3-16.591,22.577-3.347,4.05-3.347,4.05-1.8-5.554-5.25-2.4.149,16.5,8.251,14.406c0,0,2.291,16.963,16.937,21.543a26.5,26.5,0,0,0,8.874,1.111,25.841,25.841,0,0,0,8.761-1.757c13.8-5.492,15.854-21.847,15.854-21.847s5.694-1.6,7.344-7.153-.151-10.655-5.25-4.5" transform="translate(94.895 147.879)" fill="#f0875e"/>
        <path id="Trazado_134443" data-name="Trazado 134443" d="M139.629,142.709c.621-4.778-1.451-12.427-5.989-19.88-6.3-10.356-26.106-18.791-43.666-2.078-6.255,5.951-9,12.878-9.677,21.883a65.814,65.814,0,0,0,1.426,17.779s2.946.226,3.347-4.05,10.043-21.747,16.591-22.577,10.68,17.85,12.212,18.751,9.413.45,12.341-4.276c0,0,5.246.965,9.22-.328,1.116,2.351,2.118,8.978,1.81,11.882,0,0,4.132-4.651,2.384-17.105" transform="translate(97.639 135.533)" fill="#85402b"/>
        <path id="Trazado_134444" data-name="Trazado 134444" d="M93.758,123.833c-1.34-5.634-7.2-9.36-14.182-8.009s-12.6,10.8-11.028,12.829,5.853-1.125,5.853-1.125-7.96,6.528-6.119,8.779,7.244-2.475,7.244-2.475-4.5,6.528-2.7,7.652,17.15-4.951,17.15-4.951,5.583-5.137,3.784-12.7" transform="translate(82.83 140.735)" fill="#85402b"/>
        <path id="Trazado_134445" data-name="Trazado 134445" d="M107.458,125.6a40.717,40.717,0,0,1,10.8-10.806c5.175-3.6,7.978-1.269,7.876,0-.224,2.852-8.326,7.43-8.326,7.43s12.381-2.253,12.827.9-5.851,3.955-5.851,3.955,7.881-.805,7.881,2.123-7.881,1.573-7.881,1.573,6.3.676,4.279,4.279-21.608,0-21.608,0-3.063-4.866,0-9.453" transform="translate(129.225 137.484)" fill="#85402b"/>
        <path id="Trazado_134446" data-name="Trazado 134446" d="M93.021,220.843c-.426.224-.83.441-1.227.685-3.1,1.87-5.753,5.015-11.875,20.692a156.856,156.856,0,0,1-4.285-29c-.1-2.429-.142-5.048-.142-7.779,0-16.014,1.573-35.688,3.365-40.685.009,0,9.633,11.578,12.938,13.94a3.09,3.09,0,0,0,.495.311s-.342,35.286.732,41.838" transform="translate(91.949 200.67)" fill="#f0875e"/>
        <path id="Trazado_134447" data-name="Trazado 134447" d="M92.31,281.993C88.258,284.916,73.628,294.5,73.628,294.5s34.21-.135,35.337-.135-2.475-10.125-2.475-10.125h-7.2c-4.727,0-6.976-2.251-6.976-2.251" transform="translate(89.679 343.467)" fill="#4c5346"/>
        <path id="Trazado_134448" data-name="Trazado 134448" d="M122.927,281.384c-4.052,3.6-13.508,2.025-13.508,2.025s-1.125,10.13,0,12.157h34.215Z" transform="translate(132.664 342.725)" fill="#346949"/>
        <path id="Trazado_134449" data-name="Trazado 134449" d="M108.054,241.456c-.051,1.229-.2,3.249-.415,5.851-1.845,22.173-8.821,87.529-8.821,87.529h-7.2c-4.727,0-6.976-2.251-6.976-2.251-.377-1.73-3.538-67.5-4.469-87.061-.124-2.575-.2-4.349-.242-5.068,9.679.783,18.915,1.051,28.126,1" transform="translate(97.352 292.875)" fill="#f0875e"/>
        <path id="Trazado_134450" data-name="Trazado 134450" d="M131.314,332.039c-4.052,3.6-13.508,2.025-13.508,2.025-.989-5.141-12.915-68.458-15.34-87.895-.251-2-.406-3.531-.433-4.5,4.789-.224,9.642-.492,14.641-.79,4.241-.253,8.074-.632,11.56-1.089l.122,3.862Z" transform="translate(124.277 292.07)" fill="#f0875e"/>
        <path id="Trazado_134451" data-name="Trazado 134451" d="M200.018,292.255s-7.889,5.474-28.288,8.138c-3.484.459-7.317.836-11.56,1.089-4.995.3-9.852.568-14.637.792-7.073.326-13.984.55-20.909.588-9.209.051-18.445-.217-28.126-1q-2.133-.18-4.29-.379c-23.633-2.249-25.886-6.3-25.886-6.3,4.349-26.858,15.978-60.771,23.7-81.028.37-.954.723-1.865,1.065-2.735,6.9-17.686,9.4-19.423,13.1-21.377,0,0,.413.18,1.178.461.736.266,1.819.639,3.2,1.042.215.062.433.126.665.18-.011.009,0,.009,0,.009a69.847,69.847,0,0,0,20.39,2.426c.228,0,.452-.011.676-.031.14,0,.291,0,.43-.009,15.721-.674,25.174-.674,27.426-2.475,3.016,3.2,7.058,9.992,11.046,17.7a275.764,275.764,0,0,1,13.485,30.24c4.281,12.157,17.334,52.671,17.334,52.671" transform="translate(80.78 231.469)" fill="#a183d9"/>
        <path id="Trazado_134452" data-name="Trazado 134452" d="M159.312,181.932s-4.05-14.628-11.478-24.307-15.08-10.354-27.009-2.251c0,0-8.027,4.877-12.9,2.548-5.321-2.535-8.479-7.683-14.781-5.565S79,174.107,77.011,182.983c0,0,10.728,12.9,13.428,14.253,0,0-.335,35.286.734,41.838,0,0,.408.177,1.176.461a67.526,67.526,0,0,0,25.365,3.618c15.715-.674,25.168-.674,27.421-2.477,0,0,5.177-20.257,2.025-49.064Z" transform="translate(93.799 182.439)" fill="#857fcc"/>
        <path id="Trazado_134453" data-name="Trazado 134453" d="M107.492,148.265c-.421,1.513-.971,3.5-1.431,5.252-.439,1.644-.783,3.068-.883,3.708-.295,1.954-2.546,4.2-5.248,5.1s-6.607-.6-7.652-2.557c-.827-1.53-1.38-5.124-1.954-8.373-.153-.874-.306-1.721-.468-2.491a26.464,26.464,0,0,0,8.868,1.111,25.784,25.784,0,0,0,8.768-1.754" transform="translate(109.446 180.586)" fill="#f0875e"/>
        <path id="Trazado_134454" data-name="Trazado 134454" d="M85.9,127.02a4.663,4.663,0,0,1,.1.581c2.125-3.378,5.248-8.823,4.5-10.6-1.116-2.637-11.141-2.588-12.492-1.24-1.009,1.009,1.752,8.133,3.216,11.673.1-.262.157-.417.157-.417Z" transform="translate(94.752 139.893)" fill="#ffb859"/>
        <path id="Trazado_134455" data-name="Trazado 134455" d="M82.532,123.726c-.02-.075-.027-.153-.04-.233-2.32,2.943-7.018,8.728-6.672,9.773.45,1.351,8.974,2.588,10.846,1.238,1.388-1,.716-7.488.279-10.777a5.836,5.836,0,0,1-4.414,0" transform="translate(92.326 150.414)" fill="#ffb859"/>
        <path id="Trazado_134456" data-name="Trazado 134456" d="M84.795,120.921a4.736,4.736,0,0,0-.1-.581H80.177s-.062.158-.16.419c-.426,1.149-1.53,4.432-1.158,6.576.011.078.02.157.038.233a5.848,5.848,0,0,0,4.414,0s1.8-3.873,1.484-6.647" transform="translate(95.959 146.574)" fill="#ffb859"/>
        <path id="Trazado_134457" data-name="Trazado 134457" d="M112.324,123.694s.217.213.528.572c1.255-4.613,2.917-11.232,2.227-11.662-.969-.61-13.317,4.454-13.341,6.59-.007.6,3.2,3.6,5.953,6.075a.508.508,0,0,1,.007-.058s2.58-1.6,4.627-1.517" transform="translate(123.915 137.089)" fill="#ffb859"/>
        <path id="Trazado_134458" data-name="Trazado 134458" d="M110.348,120.34s-2.795,2.739-4.764,1.59a61.046,61.046,0,0,0,2.047,9.737s12.368-2.941,12.374-4.212c.007-.945-6.421-5.09-9.657-7.115" transform="translate(128.601 146.574)" fill="#ffb859"/>
        <path id="Trazado_134459" data-name="Trazado 134459" d="M109.6,118.151c-.311-.362-.528-.572-.528-.572-2.047-.082-4.629,1.515-4.629,1.515l0,.058c-.366,2.371,2.546,6.131,2.546,6.131a.2.2,0,0,0,.031.016c1.972,1.149,4.764-1.59,4.764-1.59.348-2.276-1.3-4.536-2.18-5.556" transform="translate(127.167 143.207)" fill="#ffb859"/>
        <path id="Trazado_134460" data-name="Trazado 134460" d="M84.182,135.119a8.963,8.963,0,0,1,7.315-6.277c4.5-.807,6.865.765,6.417,2.114s-3.828.228-7.543,1.466a35.665,35.665,0,0,0-6.188,2.7" transform="translate(102.533 156.661)" fill="#85402b"/>
        <path id="Trazado_134461" data-name="Trazado 134461" d="M111.8,132.443c-.9-1.471-2.027-3.048-6.3-4.063s-6.55,1.581-6.481,2.761,3.036.169,6.39.506,6.394.8,6.394.8" transform="translate(120.603 156.087)" fill="#85402b"/>
        <path id="Trazado_134462" data-name="Trazado 134462" d="M99.063,150.776a2.558,2.558,0,0,1-.286-.016,6.449,6.449,0,0,1-4.148-2.342.34.34,0,0,1,.122-.464.343.343,0,0,1,.464.122,5.836,5.836,0,0,0,3.624,2.016.975.975,0,0,0,.781-.153c.477-.845-.208-11.409-.759-17.866a.337.337,0,1,1,.672-.058c.346,4.07,1.411,17.433.594,18.367a1.346,1.346,0,0,1-1.065.393" transform="translate(115.202 160.416)" fill="#11100e"/>
        <path id="Trazado_134463" data-name="Trazado 134463" d="M98.02,146.573a5.931,5.931,0,0,1-.883-.064c-3.58-.523-5.811-4.041-5.9-4.19a.337.337,0,1,1,.572-.357c.022.033,2.163,3.4,5.432,3.879a6.848,6.848,0,0,0,5.538-2.041.337.337,0,1,1,.446.506,7.915,7.915,0,0,1-5.2,2.267" transform="translate(111.061 172.714)" fill="#11100e"/>
        <path id="Trazado_134464" data-name="Trazado 134464" d="M107.492,148.265c-.421,1.513-.971,3.5-1.431,5.252a19.477,19.477,0,0,1-7.39,1.916c-3.045.073-6.33-2.287-8.346-4.035-.153-.874-.306-1.721-.468-2.491a26.464,26.464,0,0,0,8.868,1.111,25.784,25.784,0,0,0,8.768-1.754" transform="translate(109.446 180.586)" fill="#b94734"/>
        <path id="Trazado_134465" data-name="Trazado 134465" d="M83.241,181.426h-.007a.336.336,0,0,1-.33-.344,151.926,151.926,0,0,1,1.451-15.446.336.336,0,1,1,.665.091,152.705,152.705,0,0,0-1.442,15.366.336.336,0,0,1-.337.333" transform="translate(100.977 201.389)" fill="#11100e"/>
        <path id="Trazado_134466" data-name="Trazado 134466" d="M110.911,178.014a.341.341,0,0,1-.337-.3,50.858,50.858,0,0,0-3.451-12.649.337.337,0,1,1,.628-.246,51.464,51.464,0,0,1,3.5,12.831.332.332,0,0,1-.3.366l-.031,0" transform="translate(130.447 200.483)" fill="#11100e"/>
        <path id="Trazado_134467" data-name="Trazado 134467" d="M81.864,224.825l-.033,0a.333.333,0,0,1-.3-.368c1.648-16.344,7.295-31.635,8.561-33.68a.336.336,0,1,1,.572.35c-1.2,1.952-6.851,17.431-8.462,33.4a.338.338,0,0,1-.337.3" transform="translate(99.3 232.163)" fill="#11100e"/>
        <path id="Trazado_134468" data-name="Trazado 134468" d="M87.68,210.832l-.031,0a.329.329,0,0,1-.3-.364,48.544,48.544,0,0,1,5.141-16.941.337.337,0,0,1,.588.331,47.8,47.8,0,0,0-5.061,16.675.332.332,0,0,1-.335.3" transform="translate(106.386 235.502)" fill="#11100e"/>
        <path id="Trazado_134469" data-name="Trazado 134469" d="M95.182,212.358a.334.334,0,0,1-.333.259.22.22,0,0,1-.071-.009.335.335,0,0,1-.253-.4c1.475-6.266,1.244-14.37.756-20.29.226,0,.452-.013.676-.031.495,5.971.71,14.126-.776,20.474" transform="translate(115.119 233.714)" fill="#11100e"/>
        <path id="Trazado_134470" data-name="Trazado 134470" d="M109.412,224.934H109.4a.337.337,0,0,1-.333-.344c.295-15.353-6.21-30.617-6.275-30.768a.335.335,0,0,1,.175-.441.341.341,0,0,1,.446.173c.067.155,6.627,15.555,6.328,31.05a.332.332,0,0,1-.335.33" transform="translate(125.173 235.504)" fill="#11100e"/>
        <path id="Trazado_134471" data-name="Trazado 134471" d="M108.054,241.456c-.051,1.229-.2,3.249-.415,5.851-8.444,2.449-21-.126-27.47-1.783-.124-2.575-.2-4.349-.242-5.068,9.679.783,18.915,1.051,28.126,1" transform="translate(97.352 292.875)" fill="#b94734"/>
        <path id="Trazado_134472" data-name="Trazado 134472" d="M128.357,243.654c-9.409,3.89-20.139,3.272-25.891,2.515-.253-2-.406-3.533-.433-4.494,4.786-.226,9.642-.495,14.641-.794,4.239-.251,8.074-.632,11.558-1.087Z" transform="translate(124.277 292.07)" fill="#b94734"/>
        <path id="Trazado_134473" data-name="Trazado 134473" d="M91.178,135.287c0,1.894-.679,3.433-1.517,3.433s-1.522-1.539-1.522-3.433.681-3.429,1.522-3.429,1.517,1.533,1.517,3.429" transform="translate(107.353 160.603)" fill="#11100e"/>
        <path id="Trazado_134474" data-name="Trazado 134474" d="M102.392,135.314c0,1.9-.681,3.436-1.522,3.436s-1.517-1.539-1.517-3.436.681-3.431,1.517-3.431,1.522,1.537,1.522,3.431" transform="translate(121.012 160.633)" fill="#11100e"/>
        <path id="Trazado_134475" data-name="Trazado 134475" d="M85.413,213.188c-.426.224-2.063,1.3-2.46,1.539-3-16.067.4-34.732,1.233-43.688a3.09,3.09,0,0,0,.495.311s-.342,35.286.732,41.838" transform="translate(99.557 208.325)" fill="#b94734"/>
        <path id="Trazado_134476" data-name="Trazado 134476" d="M4.1,232.407c-.967.832-5.124,7.581-3.866,10.331s3.092,5.663,8.7,5.079,7.925-2.253,7.634-3.169-2.8-.743-2.8-.743,3.429-1.584,2.826-2.415-3.795-.084-3.795-.084,2.513-4.58,1.936-8.331c0,0-3.1,0-5.9-.166a46.248,46.248,0,0,1-4.735-.5" transform="translate(0 283.071)" fill="#ed875f"/>
        <path id="Trazado_134477" data-name="Trazado 134477" d="M4.072,243.8a1,1,0,0,1-.794-.362c-1.158-1.413.621-6.871,1.264-8.073a.312.312,0,0,1,.386-.12.232.232,0,0,1,.14.331c-.83,1.553-2.187,6.512-1.317,7.57a.38.38,0,0,0,.373.155c1.723-.135,3.456-2.056,4.877-5.419a.308.308,0,0,1,.37-.153.246.246,0,0,1,.175.324c-1.062,2.513-2.859,5.545-5.37,5.74a.566.566,0,0,1-.1.007" transform="translate(3.527 286.505)" fill="#1f1f1e"/>
        <path id="Trazado_134478" data-name="Trazado 134478" d="M7.53,238.1H7.514a12.717,12.717,0,0,1-2.178-.22.246.246,0,0,1-.2-.3.3.3,0,0,1,.355-.18,11.775,11.775,0,0,0,2.052.2.269.269,0,0,1,.277.262.275.275,0,0,1-.288.24" transform="translate(6.24 289.135)" fill="#1f1f1e"/>
        <path id="Trazado_134479" data-name="Trazado 134479" d="M97.7,252.613c-4.762,3-7.985,4.112-12.241,3.329,0,0,1.408,15.7,1.757,22.408.009.184.016.355.022.521a20.18,20.18,0,0,1,.024,2.282c-.255,2.225-11.855,4.775-31.828,4.554S25.011,280.6,24.5,279.488a13.641,13.641,0,0,1-.038-2.764c.009-.184.018-.377.022-.586.208-4.56.852-12.736,1.315-18.341v-.011c.264-3.26.472-5.64.5-5.929-.024.067-.08.24-.171.5-.767,2.147-3.773,10.553-6.783,17.473a98.9,98.9,0,0,1-5.76,11.259c-.1.164-.193.319-.286.466-.517.845-.821,1.3-.821,1.3a15.652,15.652,0,0,1-6.394.3c-3.4-.523-4.143-.916-4.223-.963l-.009-.009c-.007-.37.055-1.635.177-3.518.009-.184.024-.373.04-.557.526-7.843,2-24.919,4.015-35.912C9.935,221.126,19.86,205.478,25.4,199.751c5.738-5.944,10.826-9.16,22.169-7.523l.519.069a.191.191,0,0,0-.038.118c0,.752,1.646,6.31,9.719,6.226s8.939-6.5,8.939-6.5,5.352-2.285,15.528,2.049,19.332,22.55,21.395,32.88-1.158,22.546-5.931,25.54" transform="translate(2.253 233.297)" fill="#857fcc"/>
        <path id="Trazado_134480" data-name="Trazado 134480" d="M41.337,194.1s-.874,6.412-8.939,6.5-9.719-5.474-9.719-6.226a.2.2,0,0,1,.038-.118c.339-.488,2.983.477,3.349.4.24-.049.109-1.668-.078-3.189-.062-.548-.14-1.082-.2-1.533a23.733,23.733,0,0,0,12.024.009l-.124,1.586-.215,2.828Z" transform="translate(27.623 231.338)" fill="#ed875f"/>
        <path id="Trazado_134481" data-name="Trazado 134481" d="M20.042,282.718c-5.212,1.865-16.489,8.9-16.839,10.105-.388,1.333,30.349.373,30.349.373s-.153-7.022-1.016-9.941c-3.815,2.38-9.5,2.433-12.494-.537" transform="translate(3.897 344.35)" fill="#857fcc"/>
        <path id="Trazado_134482" data-name="Trazado 134482" d="M52.784,282.615A16.787,16.787,0,0,1,41.8,284.369c-.4,2.18-.113,8.712.22,9.287.384.663,28.752,0,28.752,0S65,286.541,52.784,282.615" transform="translate(50.677 344.224)" fill="#857fcc"/>
        <path id="Trazado_134483" data-name="Trazado 134483" d="M97.752,340.142a14.475,14.475,0,0,1-5.135,5.106A16.763,16.763,0,0,1,81.638,347c-.348-.058-.659-.129-.9-.193-2.575-.663-10.052-22.211-13.146-33.986S53.676,269.738,50.582,269.51s-7.732,23.1-11.6,36.211c-3.868,13.1-7.479,32.423-10.571,37.535a8.551,8.551,0,0,1-2.817,2.759c-3.819,2.378-9.511,2.429-12.5-.541a5.4,5.4,0,0,1-.6-.665C8.959,340.142,8.571,320.38,9.081,293.5c.231-12.328,1.453-25.913,2.806-37.256.024-.2.047-.408.08-.61,1.575-13.1,3.331-23.078,3.95-24.44.306.665,4.185,2.69,11.545,4.247l.572.124a99.809,99.809,0,0,0,18.813,1.848,162.5,162.5,0,0,0,18.676-.745c.2-.018.395-.04.588-.06,8-.9,12.414-2.391,12.565-3.751,0,0,3,9.648,6.419,22.054.053.193.109.39.162.588,2.384,8.672,4.944,18.633,6.827,27.563,4.64,21.991,10.826,48.65,5.669,57.08" transform="translate(10.839 281.594)" fill="#c4d1ff"/>
        <path id="Trazado_134484" data-name="Trazado 134484" d="M16.492,207.81c-.007.138-.974,13.971-1.739,18.185-.4,2.176-.98,5.669-1.455,8.475-.3,1.781-.51,3.012-.65,3.822.264-3.26.472-5.643.5-5.931-.024.067-.078.24-.171.5.419-2.46.874-5.144,1.2-6.949.763-4.181,1.732-17.988,1.741-18.13a.292.292,0,0,1,.577.029" transform="translate(15.405 252.795)" fill="#1f1f1e"/>
        <path id="Trazado_134485" data-name="Trazado 134485" d="M36.619,222.644a20.048,20.048,0,0,1-4.975-.566.245.245,0,0,1-.193-.313.3.3,0,0,1,.364-.16c3.252.874,9.726.807,12.884-1.291,1.129-.752,1.828-2.768,1.916-5.527.126-4.046-1.065-8.437-2.606-9.584a.218.218,0,0,1-.031-.344.314.314,0,0,1,.41-.029c1.881,1.4,2.921,6.261,2.8,9.974-.053,1.7-.4,4.751-2.14,5.907-2.1,1.393-5.421,1.932-8.433,1.932" transform="translate(38.293 249.408)" fill="#1f1f1e"/>
        <path id="Trazado_134486" data-name="Trazado 134486" d="M51.315,225.139c-10.141,0-20.818-5.117-20.947-5.183a.226.226,0,0,1-.109-.337.314.314,0,0,1,.395-.1c.149.078,15.24,7.317,26.372,4.46a14.268,14.268,0,0,0,9.027-6.543.317.317,0,0,1,.39-.106.234.234,0,0,1,.124.339,14.832,14.832,0,0,1-9.378,6.792,23.749,23.749,0,0,1-5.875.679" transform="translate(36.808 264.674)" fill="#1f1f1e"/>
        <path id="Trazado_134487" data-name="Trazado 134487" d="M13.485,233.552c-.1.164-.193.319-.284.466-3.243-.512-8.479-1.626-11.27-2.89.009-.184.022-.373.04-.557,2.666,1.291,8.249,2.471,11.514,2.981" transform="translate(2.352 280.835)" fill="#1f1f1e"/>
        <path id="Trazado_134488" data-name="Trazado 134488" d="M32.091,227.128a.367.367,0,0,1-.16-.044.23.23,0,0,1-.08-.348c3.143-4.041,2.367-13.037,2.1-13.689a.224.224,0,0,1,.029-.311.343.343,0,0,1,.413-.009c.466.382,1.315,9.952-2.054,14.293a.315.315,0,0,1-.244.109" transform="translate(38.734 259.022)" fill="#1f1f1e"/>
        <path id="Trazado_134489" data-name="Trazado 134489" d="M63.648,245.123a63.948,63.948,0,0,1-6.528-1.506s-3.558-.5-3.744.33,4.549,1.659,4.549,1.659a27.687,27.687,0,0,1-14.885,5.669l.1-25.9s12.179-1,12.277-2.085-12.856-2.331-12.856-2.331l-.1-7c1.839-.246,6-2.415,6.188-6.574s-4.64-7.164-10.15-7.082-7.637,3.995-7.151,8.16,6.572,5.5,6.572,5.5l-.1,7.5s-10.538,1.422-13.051,1.664c-2.513.257-3.285,3.081.484,3.252s11.824-.495,11.824-.495v25.4s-9.214,1.167-15.3-3c0,0,3.094-.41,3.38-1.49s-8.506-3.338-9.471-3.174.193,11.165,1.546,11.332,1.839-4.5,1.839-4.5a27.353,27.353,0,0,0,22.453,10.74c14.952-.333,20.268-10.992,20.268-10.992s.388,3.245,2.322,3.167-.466-8.238-.466-8.238M40.1,210.9c-2.686,0-4.864-1.881-4.864-4.192s2.178-4.194,4.864-4.194,4.864,1.879,4.864,4.194S42.783,210.9,40.1,210.9" transform="translate(18.671 243.965)" fill="#4c5346"/>
        <path id="Trazado_134490" data-name="Trazado 134490" d="M39.409,215.031s-1.062-4.585-2.513-4.667-1.546,3.167-1.546,3.167-5.412-3.422-6.281-1.919,5.168,5.915,5.168,5.915-8.167-3-9.036-1.666,7.106,3.915,7.106,3.915-5.656-.251-6.332.916,7.346,2.5,7.346,2.5-4.928.082-5.317,1.162,8.7,3.835,8.7,3.835a28.543,28.543,0,0,0,2.7-13.159" transform="translate(30.613 256.222)" fill="#f79172"/>
        <path id="Trazado_134491" data-name="Trazado 134491" d="M74.819,232.417a109.94,109.94,0,0,1-12.257,2.974,134.735,134.735,0,0,1-20.592,1.331,109.736,109.736,0,0,1-14.02-.743,47.892,47.892,0,0,1-15.905-5.711c.007-.184.016-.377.022-.583a47.525,47.525,0,0,0,15.978,5.793c9.163,1.3,27.151.77,34.4-.581a109.044,109.044,0,0,0,12.35-3c.007.184.016.355.022.521" transform="translate(14.671 279.754)" fill="#1f1f1e"/>
        <path id="Trazado_134492" data-name="Trazado 134492" d="M26.393,233.232a37.493,37.493,0,0,1-3.194,7.927,29.032,29.032,0,0,1-12.953,12.751c.024-.2.047-.408.08-.61,10.771-5.221,14.614-16.93,15.495-20.193.184.04.379.084.572.124" transform="translate(12.48 283.925)" fill="#1f1f1e"/>
        <path id="Trazado_134493" data-name="Trazado 134493" d="M54.162,252.525A38,38,0,0,1,41.8,245.336a25.735,25.735,0,0,1-7.37-11.642c.2-.016.395-.04.588-.06a25.129,25.129,0,0,0,7.206,11.352A37.637,37.637,0,0,0,54,251.937c.053.193.109.393.162.588" transform="translate(41.933 284.566)" fill="#1f1f1e"/>
        <path id="Trazado_134494" data-name="Trazado 134494" d="M36.1,189.942l-.124,1.586c-2.056,1.173-6.037,2.469-11.7-.062-.062-.548-.14-1.082-.2-1.533a23.733,23.733,0,0,0,12.024.009" transform="translate(29.329 231.338)" fill="#b94734"/>
        <path id="Trazado_134495" data-name="Trazado 134495" d="M17.936,264.218a8.375,8.375,0,0,1-4.343-1.4.218.218,0,0,1-.042-.344.32.32,0,0,1,.406-.049c.029.029,2.779,1.9,5.421,1.076a.3.3,0,0,1,.373.153.238.238,0,0,1-.175.313,5.287,5.287,0,0,1-1.639.248" transform="translate(16.425 319.574)" fill="#1f1f1e"/>
        <path id="Trazado_134496" data-name="Trazado 134496" d="M43.013,264.111a9.6,9.6,0,0,1-3.438-.654.233.233,0,0,1-.131-.33.318.318,0,0,1,.39-.113c.18.082,4.478,1.876,7.381-1.051a.324.324,0,0,1,.408-.024.224.224,0,0,1,.035.35,6.374,6.374,0,0,1-4.647,1.823" transform="translate(48.007 318.965)" fill="#1f1f1e"/>
        <path id="Trazado_134497" data-name="Trazado 134497" d="M73.921,189.575a2.291,2.291,0,0,0-.936-.1c-.022.013-5.414,2.631-5.9,4.023,0,0,.062-.388.153-1.045l-.016.011s.268-2.012.466-4.594a27.246,27.246,0,0,0-.395-7.521c-1.187-4.778-2.863-8.091-5.234-6.7s-9.005,3.52-16.959,1.985c-7.956-1.519-11.514-6.63-12.423-7.362s-2.025-1-4.815,2.125-6.909,10.682-7.255,14.537c-.255,2.79-.543,5.809-.685,7.268.051.255.093.406.093.406s-.053-.051-.118-.115c-.042.379-.062.6-.062.6s-2.6-2.449-4.354-3.021a2.467,2.467,0,0,0-2.271,1c-2.3,2.988,2.3,11.554,8.162,11.15,0,0,1.255,11.352,15.391,15.031l.013.009a23.528,23.528,0,0,0,13.02.011c7.06-2.183,12.163-8.054,15.439-15.448a7.653,7.653,0,0,0,7.222-2.285c3.141-3.387,3.664-9.16,1.464-9.963" transform="translate(15.353 204.374)" fill="#ed875f"/>
        <path id="Trazado_134498" data-name="Trazado 134498" d="M37.168,181.592c.486-1.393,5.88-4.012,5.9-4.023-2.291.182-5.614,2.872-5.747,2.979-.091.656-.153,1.045-.153,1.045" transform="translate(45.271 216.279)" fill="#8c4a1e"/>
        <path id="Trazado_134499" data-name="Trazado 134499" d="M73.111,178.54c-1.885-8.178-8.373-18.239-16.466-17.394a42.343,42.343,0,0,1-13.523-.4,26.986,26.986,0,0,0-17.394,2.591c-6.423,3.318-11.165,12.079-12.141,19.782s.59,15.932,1.054,16.08l.031.011c1.9.153,3.933,1.961,4.416,2.42.007-.089.016-.182.024-.291.142-1.462.43-4.478.685-7.268.346-3.857,4.465-11.412,7.255-14.537s3.908-2.863,4.815-2.125,4.467,5.842,12.423,7.359c7.954,1.535,14.586-.588,16.959-1.983s4.048,1.923,5.234,6.7a27.241,27.241,0,0,1,.395,7.521c-.109,1.883-.313,3.56-.45,4.582.131-.106,3.456-2.8,5.747-2.979,0,0,2.821-11.915.936-20.071" transform="translate(16.163 195.237)" fill="#673325"/>
        <path id="Trazado_134500" data-name="Trazado 134500" d="M18.318,180.259c-.481-.457-2.513-2.267-4.416-2.42,1.75.572,4.356,3.021,4.356,3.021s.02-.222.06-.6" transform="translate(16.933 216.607)" fill="#8c4a1e"/>
        <path id="Trazado_134501" data-name="Trazado 134501" d="M23.186,173.749c4.86-1.894,6.652-.7,6.658.22.013.892-1.612,1.526-6.213,2.482-1.406.3-4.99.832-5.226.253-.5-1.209,2.12-1.93,4.78-2.954" transform="translate(22.345 210.401)" fill="#673325"/>
        <path id="Trazado_134502" data-name="Trazado 134502" d="M29.439,173.97c-.1-.936,2.118-1.794,5.385-.823,3.263.952,6.6,3.2,6.006,3.846s-3.779.027-6.758-.925c-1.95-.619-4.525-.94-4.633-2.1" transform="translate(35.853 210.371)" fill="#673325"/>
        <path id="Trazado_134503" data-name="Trazado 134503" d="M26.142,190.309a1.26,1.26,0,0,1-.725-.2c-.732-.5.038-7.947.814-14.115a.3.3,0,0,1,.348-.257.3.3,0,0,1,.275.326c-.77,6.124-1.391,12.966-1.027,13.607a1.1,1.1,0,0,0,.841-.058,2.087,2.087,0,0,0,1.291-1.491.311.311,0,0,1,.364-.237.3.3,0,0,1,.255.335,2.682,2.682,0,0,1-1.675,1.939,1.94,1.94,0,0,1-.761.153" transform="translate(30.599 214.041)" fill="#1f1f1e"/>
        <path id="Trazado_134504" data-name="Trazado 134504" d="M23.982,178.545c0,1.495-.679,2.693-1.515,2.693s-1.519-1.2-1.519-2.693c0-1.477.681-2.677,1.519-2.677s1.515,1.2,1.515,2.677" transform="translate(25.515 214.207)" fill="#1f1f1e"/>
        <path id="Trazado_134505" data-name="Trazado 134505" d="M33.761,178.545c0,1.495-.676,2.693-1.517,2.693s-1.517-1.2-1.517-2.693c0-1.477.679-2.677,1.517-2.677s1.517,1.2,1.517,2.677" transform="translate(37.425 214.207)" fill="#1f1f1e"/>
        <path id="Trazado_134506" data-name="Trazado 134506" d="M33.325,191c-8.364,0-12.461-7.59-12.5-7.665a.369.369,0,0,1,.153-.5.374.374,0,0,1,.5.153c.038.075,3.937,7.275,11.851,7.275S45,183.069,45.034,183a.376.376,0,0,1,.495-.162.367.367,0,0,1,.162.495C45.653,183.41,41.7,191,33.325,191" transform="translate(25.312 222.647)" fill="#1f1f1e"/>
      </g>
    </g>
  </g>
</svg>
