<svg xmlns="http://www.w3.org/2000/svg" xmlns:xlink="http://www.w3.org/1999/xlink" width="315" height="253.51" viewBox="0 0 315 253.51">
  <defs>
    <clipPath id="clip-path">
      <rect id="Rectángulo_38141" data-name="Rectángulo 38141" width="287.165" height="252.123" fill="none"/>
    </clipPath>
    <clipPath id="clip-path-3">
      <rect id="Rectángulo_38125" data-name="Rectángulo 38125" width="12.53" height="13.669" transform="translate(216.051 49.818)" fill="none"/>
    </clipPath>
    <clipPath id="clip-path-4">
      <path id="Trazado_136518" data-name="Trazado 136518" d="M216.264,45.123a6.143,6.143,0,1,0,5.91-4.457,6.15,6.15,0,0,0-5.91,4.457" fill="none"/>
    </clipPath>
    <radialGradient id="radial-gradient" cx="0.521" cy="0.494" r="0.367" gradientTransform="matrix(0, -1, 1.029, 0, -26.264, -0.417)" gradientUnits="objectBoundingBox">
      <stop offset="0" stop-color="#e89575"/>
      <stop offset="1" stop-color="#f2b27e"/>
    </radialGradient>
    <clipPath id="clip-path-5">
      <path id="Trazado_136519" data-name="Trazado 136519" d="M200.907,51.444a6.151,6.151,0,0,0-1.871-10.924,6.252,6.252,0,0,0-1.391-.232,30.782,30.782,0,0,0,3.262,11.156" fill="none"/>
    </clipPath>
    <radialGradient id="radial-gradient-2" cx="0.378" cy="0.15" r="0.657" gradientTransform="matrix(0, -1, 0.748, 0, -32.376, 6.986)" xlink:href="#radial-gradient"/>
    <clipPath id="clip-path-7">
      <path id="Trazado_136527" data-name="Trazado 136527" d="M206.493,37.791a3.579,3.579,0,0,1-.863,3.594c-.539.532-1.265.908-1.611,1.582a2.2,2.2,0,0,0,.078,1.986,3.863,3.863,0,0,0,1.442,1.443,3.155,3.155,0,0,0,3.087-1.5c1.237-1.86.8-4.792.079-6.648-.287-.739-.7-.962-1.085-.962a1.946,1.946,0,0,0-1.127.507" fill="none"/>
    </clipPath>
    <linearGradient id="linear-gradient" x1="-17.823" y1="21.262" x2="-17.735" y2="21.262" gradientUnits="objectBoundingBox">
      <stop offset="0" stop-color="#db8965"/>
      <stop offset="1" stop-color="#f2b27e"/>
    </linearGradient>
    <clipPath id="clip-path-9">
      <rect id="Rectángulo_38131" data-name="Rectángulo 38131" width="53.547" height="24.175" transform="translate(195.915 5.627)" fill="none"/>
    </clipPath>
    <clipPath id="clip-path-10">
      <rect id="Rectángulo_38132" data-name="Rectángulo 38132" width="12.446" height="15.101" transform="translate(80.025 87.1)" fill="none"/>
    </clipPath>
    <clipPath id="clip-path-11">
      <path id="Trazado_136588" data-name="Trazado 136588" d="M85.9,81.547a6.144,6.144,0,1,0,1.7-.24,6.151,6.151,0,0,0-1.7.24" fill="none"/>
    </clipPath>
    <radialGradient id="radial-gradient-3" cx="0.506" cy="0.479" r="0.378" gradientTransform="matrix(0.972, 0, 0, -1, -0.135, 21.196)" xlink:href="#radial-gradient"/>
    <clipPath id="clip-path-12">
      <path id="Trazado_136589" data-name="Trazado 136589" d="M110.739,81.162a6.15,6.15,0,0,0-1.872,10.923,30.777,30.777,0,0,0,3.262-11.155,6.139,6.139,0,0,0-1.39.232" fill="none"/>
    </clipPath>
    <radialGradient id="radial-gradient-4" cx="0.85" cy="0.622" r="0.491" gradientTransform="matrix(1.338, 0, 0, -1, 3.756, 27.442)" xlink:href="#radial-gradient"/>
    <clipPath id="clip-path-14">
      <path id="Trazado_136594" data-name="Trazado 136594" d="M101.07,78.887c-.72,1.856-1.158,4.788.078,6.648a3.16,3.16,0,0,0,3.087,1.5,3.885,3.885,0,0,0,1.443-1.445,2.195,2.195,0,0,0,.077-1.985c-.345-.674-1.071-1.05-1.611-1.582a3.585,3.585,0,0,1-.863-3.6,1.943,1.943,0,0,0-1.126-.506c-.389,0-.8.222-1.085.961" fill="none"/>
    </clipPath>
    <linearGradient id="linear-gradient-2" x1="-9.681" y1="15.513" x2="-9.582" y2="15.513" xlink:href="#linear-gradient"/>
    <clipPath id="clip-path-16">
      <path id="Trazado_136599" data-name="Trazado 136599" d="M93.761,92.362s2.687.576,10.725.357c-.335-.761.245-4.361-4.254-4.363-4.233,0-6.471,4.006-6.471,4.006" fill="none"/>
    </clipPath>
    <clipPath id="clip-path-18">
      <rect id="Rectángulo_38139" data-name="Rectángulo 38139" width="53.378" height="14.808" transform="translate(61.752 51.261)" fill="none"/>
    </clipPath>
  </defs>
  <g id="_153" data-name="153" transform="translate(-223.5 -3503.001)">
    <g id="Grupo_85029" data-name="Grupo 85029" transform="translate(-41.5 258.322)">
      <g id="Grupo_85023" data-name="Grupo 85023">
        <rect id="Rectángulo_34651" data-name="Rectángulo 34651" width="315" height="170" transform="translate(265 3328.188)" fill="#6b8dff"/>
        <g id="Grupo_84254" data-name="Grupo 84254" transform="translate(267.564 3206.015)">
          <g id="Grupo_84000" data-name="Grupo 84000" transform="translate(14.436 38.664)">
            <path id="Trazado_118280" data-name="Trazado 118280" d="M150.733,260.461q-1.2-.2-2.42-.329c-9.524-1-19.038,1.6-28.608,1.95-17.246.633-34.142-6.148-48.252-16.087S45.68,223.081,34.517,209.919c-12-14.151-24.265-30.864-22.133-49.294,1.554-13.433,10.581-24.753,20.16-34.3,12.117-12.078,25.638-22.591,38.6-33.715,12.9-11.062,23.176-25.694,36.23-36.083,25.318-20.152,64.385-22.921,93.363-9.99,18.593,8.3,33.9,22.359,50.84,33.646,12.12,8.075,25.648,15.244,33.431,27.553,9.43,14.915,8.31,34.063,5.164,51.426-5.324,29.378-16.037,58.687-36.5,80.429s-52.013,34.594-80.929,27.161C165.35,264.852,158.235,261.7,150.733,260.461Z" transform="translate(-12.141 -38.664)" fill="#c4d1ff"/>
          </g>
        </g>
      </g>
    </g>
    <g id="Grupo_159098" data-name="Grupo 159098" transform="translate(237.5 3504)">
      <g id="Grupo_159097" data-name="Grupo 159097" clip-path="url(#clip-path)">
        <line id="Línea_286" data-name="Línea 286" x2="9.57" y2="55.474" transform="translate(239.893 178.384)" fill="none" stroke="#000" stroke-linecap="round" stroke-linejoin="round" stroke-width="0.5"/>
        <line id="Línea_287" data-name="Línea 287" x2="20.14" y2="52.567" transform="translate(251.713 157.938)" fill="none" stroke="#000" stroke-linecap="round" stroke-linejoin="round" stroke-width="0.5"/>
        <line id="Línea_288" data-name="Línea 288" x1="15.709" y2="54.057" transform="translate(185.004 163.092)" fill="none" stroke="#000" stroke-linecap="round" stroke-linejoin="round" stroke-width="0.5"/>
        <line id="Línea_289" data-name="Línea 289" x1="12.072" y2="54.984" transform="translate(213.016 145.813)" fill="none" stroke="#000" stroke-linecap="round" stroke-linejoin="round" stroke-width="0.5"/>
        <g id="Grupo_159063" data-name="Grupo 159063">
          <g id="Grupo_159062" data-name="Grupo 159062" clip-path="url(#clip-path)">
            <path id="Trazado_136485" data-name="Trazado 136485" d="M269.738,79.676c7.51,7.35,11.892,17.361,14.566,27.523,4.163,15.822,4.379,33.4-3.385,47.8-5.394,10-14.354,17.848-24.541,22.886s-21.562,7.384-32.914,7.929c-13.122.631-26.887-1.3-37.707-8.75s-17.849-21.385-14.312-34.037c3.7-13.246,16.845-21.051,27.011-30.316A84.549,84.549,0,0,0,213.647,94.3c5.442-8.916,11.72-17.027,21.831-20.907,11.874-4.557,25.1-2.686,34.26,6.281" fill="#ffb3cc"/>
            <path id="Trazado_136486" data-name="Trazado 136486" d="M174.46,122.452c-.955.57-1.887,1.182-2.8,1.817-1.059.739-2.134,1.458-3.139,2.271a13.279,13.279,0,0,0-2.7,2.614c-.413.6-.958,1.62-.555,2.339.063.113.28.246.272.384-.009.162-.4.505-.48.711a1.653,1.653,0,0,0,.288,1.68,1.284,1.284,0,0,0-.462,1.01,1,1,0,0,0,.821.756c.4.082.86-.128,1.237.045.485.222.615.7,1.254.682a3.207,3.207,0,0,0,1.449-.531,51.7,51.7,0,0,1,9.758-4.427c2.38-.752,5.01-1.261,6.875-2.984a31.648,31.648,0,0,0,3.838-5.154,4.751,4.751,0,0,0-.488-3.471,6.1,6.1,0,0,0-2.881-2.511,40.525,40.525,0,0,1-6.1,2.332,16.946,16.946,0,0,0-6.192,2.437" fill="#f2b27e"/>
            <path id="Trazado_136487" data-name="Trazado 136487" d="M173.989,132.159a20.665,20.665,0,0,1-.864-2" fill="none" stroke="#333" stroke-linecap="round" stroke-linejoin="round" stroke-width="0.5"/>
            <path id="Trazado_136488" data-name="Trazado 136488" d="M173.563,131.521a27.582,27.582,0,0,0-6.978,4.168" fill="none" stroke="#333" stroke-linecap="round" stroke-linejoin="round" stroke-width="0.5"/>
            <path id="Trazado_136489" data-name="Trazado 136489" d="M171.475,130.443a29.756,29.756,0,0,0-5.881,3.674" fill="none" stroke="#333" stroke-linecap="round" stroke-linejoin="round" stroke-width="0.5"/>
            <path id="Trazado_136490" data-name="Trazado 136490" d="M170.367,128.919a33.578,33.578,0,0,0-4.555,2.876" fill="none" stroke="#333" stroke-linecap="round" stroke-linejoin="round" stroke-width="0.5"/>
            <path id="Trazado_136491" data-name="Trazado 136491" d="M176.013,122.887a24.7,24.7,0,0,0-2.153,2.417c-.962,1.2-2.353,1.974-3.257,3.21-.333.455-.563,1.121-.2,1.555a1.274,1.274,0,0,0,.9.365,6.4,6.4,0,0,0,4.311-1.79,6.155,6.155,0,0,1,2.713-1.319c1.814-.386,3.363-.813,4.57-2.331" fill="none" stroke="#333" stroke-linecap="round" stroke-linejoin="round" stroke-width="0.5"/>
            <path id="Trazado_136492" data-name="Trazado 136492" d="M143.374,210.79a4.834,4.834,0,0,1,1.351,5.143,24.514,24.514,0,0,0,9.685-1.271c-.023-.256-.043-.516-.066-.789s-.043-.522-.063-.791c-.315-3.942-.655-9.007-.332-11.182.455-3.053.9-5.826,1.328-8.4l-13.117-.319c-.017,1.815-.049,3.236-.1,4.093a22.332,22.332,0,0,1-1.324,7.293,9.417,9.417,0,0,1-3.04,3.8c-.2.156-.4.306-.6.458a8.114,8.114,0,0,1,1.113-.013,8.215,8.215,0,0,1,5.171,1.984" fill="#f2b27e"/>
            <path id="Trazado_136493" data-name="Trazado 136493" d="M154.409,214.662a24.507,24.507,0,0,1-9.685,1.271,4.828,4.828,0,0,0-1.351-5.143,8.2,8.2,0,0,0-5.17-1.984,8.1,8.1,0,0,0-1.112.012c-.392.293-.792.582-1.206.871-.237.166-.476.333-.718.5a52.694,52.694,0,0,1-7.018,3.522c-2.817,1.276-5.5,2.512-6.347,3.4-1.35,1.41-1.982,3.653-.053,4.768,3.06,1.768,7.717,1.87,11.129,1.5,4.016-.429,7.92-1.579,11.946-1.942,2.436-.22,9.578.529,9.842-3.144.01-.141-.011-.523-.051-1.07-.047-.647-.121-1.537-.206-2.566" fill="#cc4c66"/>
            <path id="Trazado_136494" data-name="Trazado 136494" d="M120.728,218.812a2.244,2.244,0,0,0,1.2,1.732c3.06,1.769,7.718,1.87,11.129,1.5,4.016-.43,7.92-1.58,11.946-1.943,2.252-.2,8.52.421,9.668-2.381" fill="none" stroke="#000" stroke-linecap="round" stroke-linejoin="round" stroke-width="0.5"/>
            <path id="Trazado_136495" data-name="Trazado 136495" d="M151.451,209.138a4.916,4.916,0,0,1-2.737,3.1" fill="none" stroke="#000" stroke-linecap="round" stroke-linejoin="round" stroke-width="0.5"/>
            <path id="Trazado_136496" data-name="Trazado 136496" d="M126.2,214.753a1.517,1.517,0,0,0,.47,2.128,4.159,4.159,0,0,0,2.375.506,104.824,104.824,0,0,0,15.556-1.5" fill="none" stroke="#000" stroke-linecap="round" stroke-linejoin="round" stroke-width="0.5"/>
            <path id="Trazado_136497" data-name="Trazado 136497" d="M141.037,216.2a9.76,9.76,0,0,0-7.237-5.175" fill="none" stroke="#000" stroke-linecap="round" stroke-linejoin="round" stroke-width="0.5"/>
            <path id="Trazado_136498" data-name="Trazado 136498" d="M209.4,66.342s-7.387,2.48-9.989,7.333-3.036,32.254-3.036,32.254l-17.6,11.582s-1.734,4.847,1.916,8.134c2.844,2.666,8.027,1.144,8.027,1.144s20.6-6.807,24.389-13.447,2.941-36.216,2.941-36.216Z" fill="#ff8099"/>
            <path id="Trazado_136499" data-name="Trazado 136499" d="M197.495,105.809a2.064,2.064,0,0,0,1.243.887,5.436,5.436,0,0,0,1.554.143,30.255,30.255,0,0,0,3.931-.311" fill="none" stroke="#000" stroke-linecap="round" stroke-linejoin="round" stroke-width="0.5"/>
            <path id="Trazado_136500" data-name="Trazado 136500" d="M230.709,137.293s-4.982,15.956-25.342,17.858-31.691,2.532-31.691,2.532-.7,6.613-4.51,19.363c-3.828,12.812-14.326,29.771-14.326,29.771s-3.374,2.37-9.064,1.248-7.21-4.6-7.21-4.6S149.1,151.4,154.025,143.39s33.77-15.457,44.575-17.482,32.341-3.555,32.341-3.555Z" fill="#cc9864"/>
            <path id="Trazado_136501" data-name="Trazado 136501" d="M166.485,219.093a4.83,4.83,0,0,1,1.351,5.143,24.509,24.509,0,0,0,9.685-1.271c-.022-.256-.043-.516-.065-.789-.021-.258-.043-.522-.064-.791-.314-3.942-.655-9.007-.331-11.182.455-3.053.9-5.826,1.328-8.4l-13.117-.319c-.017,1.815-.05,3.236-.1,4.093a22.309,22.309,0,0,1-1.323,7.293,9.417,9.417,0,0,1-3.04,3.8c-.2.156-.4.306-.6.457a8.112,8.112,0,0,1,1.113-.012,8.21,8.21,0,0,1,5.17,1.984" fill="#f2b27e"/>
            <path id="Trazado_136502" data-name="Trazado 136502" d="M177.521,222.965a24.507,24.507,0,0,1-9.685,1.271,4.828,4.828,0,0,0-1.351-5.143,8.2,8.2,0,0,0-5.17-1.984,8.1,8.1,0,0,0-1.112.012c-.392.293-.792.582-1.206.871l-.718.5a52.561,52.561,0,0,1-7.018,3.523c-2.817,1.275-5.5,2.512-6.347,3.4-1.351,1.41-1.982,3.653-.054,4.768,3.061,1.768,7.718,1.869,11.13,1.5,4.016-.429,7.92-1.579,11.946-1.942,2.436-.22,9.578.529,9.842-3.144.01-.141-.011-.523-.051-1.07-.047-.647-.121-1.537-.206-2.566" fill="#cc4c66"/>
            <path id="Trazado_136503" data-name="Trazado 136503" d="M143.84,227.115a2.244,2.244,0,0,0,1.2,1.732c3.06,1.769,7.718,1.87,11.129,1.505,4.016-.43,7.92-1.58,11.946-1.943,2.252-.2,8.52.421,9.668-2.381" fill="none" stroke="#000" stroke-linecap="round" stroke-linejoin="round" stroke-width="0.5"/>
            <path id="Trazado_136504" data-name="Trazado 136504" d="M174.563,217.441a4.913,4.913,0,0,1-2.737,3.1" fill="none" stroke="#000" stroke-linecap="round" stroke-linejoin="round" stroke-width="0.5"/>
            <path id="Trazado_136505" data-name="Trazado 136505" d="M149.314,223.055a1.517,1.517,0,0,0,.47,2.128,4.167,4.167,0,0,0,2.375.506,104.826,104.826,0,0,0,15.556-1.5" fill="none" stroke="#000" stroke-linecap="round" stroke-linejoin="round" stroke-width="0.5"/>
            <path id="Trazado_136506" data-name="Trazado 136506" d="M164.149,224.5a9.76,9.76,0,0,0-7.237-5.175" fill="none" stroke="#000" stroke-linecap="round" stroke-linejoin="round" stroke-width="0.5"/>
            <path id="Trazado_136507" data-name="Trazado 136507" d="M246.5,143.615s-7.511,13.428-27.871,15.33-31.691,2.531-31.691,2.531.829,4.584-1.048,17.757c-1.887,13.238-8.13,33.879-8.13,33.879s-1.734,2.657-7.528,2.39-7.813-3.483-7.813-3.483.571-59.359,5.5-67.364,44.575-18.739,44.575-18.739l34.237,2.759Z" fill="#cc9864"/>
            <path id="Trazado_136508" data-name="Trazado 136508" d="M186.221,160.317q-1.926-2.39-4.052-4.607" fill="none" stroke="#000" stroke-linecap="round" stroke-linejoin="round" stroke-width="0.5"/>
            <path id="Trazado_136509" data-name="Trazado 136509" d="M232.725,147.784c-1.492-1.974-3.037-4.07-3.352-6.524-.471-3.675,1.912-7.122,2.213-10.815" fill="none" stroke="#000" stroke-linecap="round" stroke-linejoin="round" stroke-width="0.5"/>
            <path id="Trazado_136510" data-name="Trazado 136510" d="M162.876,192.246c.611-18.046,1.992-42.64,5.041-47.591,3.164-5.138,20.627-11.4,32.732-15.226" fill="none" stroke="#000" stroke-linecap="round" stroke-linejoin="round" stroke-width="0.5"/>
            <path id="Trazado_136511" data-name="Trazado 136511" d="M213.428,68.439a5.65,5.65,0,0,0,3.463,2.4c2.538.567,5.113-.676,7.3-2.083a41.971,41.971,0,0,0,7.672-6.35l-.147-.065a5.234,5.234,0,0,1-1.823-1.262c-2.541-3.1-1.311-11.265-1.311-11.265l-12.53,3.441s1.554,7.43.63,9.683a2.142,2.142,0,0,1-1.193,1.037c-.683.307-1.746.687-2.947,1.13a5.654,5.654,0,0,0,.887,3.329" fill="#f2b27e"/>
            <path id="Trazado_136512" data-name="Trazado 136512" d="M248.661,71.024c-2.7-5.4-12.278-6.553-16.8-8.613a41.958,41.958,0,0,1-7.672,6.349c-2.186,1.407-4.761,2.651-7.3,2.084a5.564,5.564,0,0,1-4.35-5.734c-2.9,1.072-6.632,2.524-7.888,4.284-2.219,3.109,3.964,42.408,3.964,42.408s-7.135,14.544-7.192,14.6c0,0,7.032,6.542,20.792,13.53s24.28,3.686,24.28,3.686,5.093-7.027,6.07-21.5-.682-44.653-3.906-51.1" fill="#ff8099"/>
            <g id="Grupo_159061" data-name="Grupo 159061" opacity="0.7" style="mix-blend-mode: multiply;isolation: isolate">
              <g id="Grupo_159060" data-name="Grupo 159060">
                <g id="Grupo_159059" data-name="Grupo 159059" clip-path="url(#clip-path-3)">
                  <path id="Trazado_136513" data-name="Trazado 136513" d="M216.051,53.26l12.53-3.442a32.272,32.272,0,0,0-.268,5.59c-2.561,3.826-7.307,9.565-11.743,7.725a1.357,1.357,0,0,0,.111-.191c.924-2.252-.63-9.682-.63-9.682" fill="#f2b27e"/>
                </g>
              </g>
            </g>
            <path id="Trazado_136514" data-name="Trazado 136514" d="M211.632,112.183a15.9,15.9,0,0,0,5.266,1.153,63.655,63.655,0,0,0,14.369-.369" fill="none" stroke="#000" stroke-linecap="round" stroke-linejoin="round" stroke-width="0.5"/>
            <path id="Trazado_136515" data-name="Trazado 136515" d="M205.016,84.979c1.289,12.129,3.6,26.823,3.6,26.823s-2.11,4.3-4.044,8.234" fill="none" stroke="#000" stroke-linecap="round" stroke-linejoin="round" stroke-width="0.5"/>
            <path id="Trazado_136516" data-name="Trazado 136516" d="M249.35,22.526a8.925,8.925,0,0,0-4.6-6.347c1.512-2.605.353-6.259-2.181-7.887a7.5,7.5,0,0,0-5.406-.949A7.523,7.523,0,0,0,224.839,4.9c-2.112-2.9-5.519-5.058-9.107-4.9s-7.063,3.125-7.091,6.716a20.822,20.822,0,0,0-6.315-1.095c-1.974-.034-4.157.322-5.413,1.846-1.686,2.046-.918,5.083-.068,7.594a7.162,7.162,0,0,0-1.631,12.722c-1.741,2.775-2.12,6.624-.144,9.236a8.926,8.926,0,0,0,2.791,2.305c5.424,3.058,12.071,2.475,18.278,1.995,2.248-.174,4.664-.284,6.584.9,1.511.93,2.547,2.573,4.192,3.236a8.156,8.156,0,0,0,3.222.372c1.92-.037,3.947-.107,5.578-1.122a9.3,9.3,0,0,1,1.361-.834,6.76,6.76,0,0,1,1.944-.309,9.735,9.735,0,0,0,8.026-13.547,8.928,8.928,0,0,0,2.3-7.494" fill="#5e4028"/>
            <path id="Trazado_136517" data-name="Trazado 136517" d="M198.625,28.1C195,40.754,200.317,55.854,207.75,57.986c10.422,2.988,24.932-5.21,28.56-17.863s-.767-26.271-11.189-29.259-22.868,4.584-26.5,17.237" fill="#f2b27e"/>
          </g>
        </g>
        <g id="Grupo_159065" data-name="Grupo 159065">
          <g id="Grupo_159064" data-name="Grupo 159064" clip-path="url(#clip-path-4)">
            <rect id="Rectángulo_38127" data-name="Rectángulo 38127" width="16.272" height="16.75" transform="translate(211.884 52.68) rotate(-74.003)" fill="url(#radial-gradient)"/>
          </g>
        </g>
        <g id="Grupo_159067" data-name="Grupo 159067">
          <g id="Grupo_159066" data-name="Grupo 159066" clip-path="url(#clip-path-5)">
            <rect id="Rectángulo_38128" data-name="Rectángulo 38128" width="12.527" height="9.365" transform="translate(194.69 50.597) rotate(-74.003)" fill="url(#radial-gradient-2)"/>
          </g>
        </g>
        <g id="Grupo_159069" data-name="Grupo 159069">
          <g id="Grupo_159068" data-name="Grupo 159068" clip-path="url(#clip-path)">
            <path id="Trazado_136520" data-name="Trazado 136520" d="M213.722,48.355a5.125,5.125,0,0,1-3.979,2.317,4.3,4.3,0,0,1-3.652-1.972" fill="none" stroke="#000" stroke-linecap="round" stroke-linejoin="round" stroke-width="0.5"/>
            <path id="Trazado_136521" data-name="Trazado 136521" d="M212.611,37.727a2.186,2.186,0,1,0,2.7-1.5,2.186,2.186,0,0,0-2.7,1.5"/>
            <path id="Trazado_136522" data-name="Trazado 136522" d="M200.406,37.5a2.186,2.186,0,1,0,2.7-1.5,2.186,2.186,0,0,0-2.7,1.5"/>
            <path id="Trazado_136523" data-name="Trazado 136523" d="M211.182,33.34a10.289,10.289,0,0,1,2.41-1.77,5.618,5.618,0,0,1,2.719-.649,6.742,6.742,0,0,1,2.746.7,20.2,20.2,0,0,1,2.606,1.539,7.994,7.994,0,0,0-2.25-2.18,6.812,6.812,0,0,0-1.453-.714,6.162,6.162,0,0,0-1.629-.288,5.268,5.268,0,0,0-3.115.96,5.976,5.976,0,0,0-2.034,2.4" fill="#5e4028"/>
            <path id="Trazado_136524" data-name="Trazado 136524" d="M204.967,32.659a5.518,5.518,0,0,0-1.386-1.882,5.134,5.134,0,0,0-2.113-1.178,3.181,3.181,0,0,0-1.286-.1,2.674,2.674,0,0,0-1.214.5,3.047,3.047,0,0,0-1.185,2.07,4.743,4.743,0,0,1,1.586-1.43,2.556,2.556,0,0,1,1.868-.132,6.892,6.892,0,0,1,1.916.84,17.492,17.492,0,0,1,1.814,1.314" fill="#5e4028"/>
            <path id="Trazado_136525" data-name="Trazado 136525" d="M217.367,36.786a3.89,3.89,0,0,0-4.968.563" fill="none" stroke="#000" stroke-linecap="round" stroke-linejoin="round" stroke-width="0.5"/>
            <path id="Trazado_136526" data-name="Trazado 136526" d="M204.862,36.582a3.18,3.18,0,0,0-4.4.318" fill="none" stroke="#000" stroke-linecap="round" stroke-linejoin="round" stroke-width="0.5"/>
          </g>
        </g>
        <g id="Grupo_159071" data-name="Grupo 159071">
          <g id="Grupo_159070" data-name="Grupo 159070" clip-path="url(#clip-path-7)">
            <rect id="Rectángulo_38130" data-name="Rectángulo 38130" width="11.285" height="10.117" transform="translate(199.559 44.306) rotate(-59.449)" fill="url(#linear-gradient)"/>
          </g>
        </g>
        <g id="Grupo_159079" data-name="Grupo 159079">
          <g id="Grupo_159078" data-name="Grupo 159078" clip-path="url(#clip-path)">
            <path id="Trazado_136528" data-name="Trazado 136528" d="M206.493,37.79a3.582,3.582,0,0,1-.863,3.595c-.54.533-1.265.908-1.612,1.582a2.2,2.2,0,0,0,.078,1.985,3.861,3.861,0,0,0,1.443,1.444" fill="none" stroke="#000" stroke-linecap="round" stroke-linejoin="round" stroke-width="0.5"/>
            <path id="Trazado_136529" data-name="Trazado 136529" d="M233.178,33.72a7.174,7.174,0,0,1-5.092-3.846,12.746,12.746,0,0,1-1.258-6.425,7.352,7.352,0,0,1-7.308-5.565,11.982,11.982,0,0,1-12.247,3.977,12.952,12.952,0,0,1-11.257,6.771,15.6,15.6,0,0,1,2.77-7.436,29.866,29.866,0,0,1,10.658-10.282A22.235,22.235,0,0,1,223.9,8.343a17.756,17.756,0,0,1,12.054,8.088,23.493,23.493,0,0,1,2.564,6.94c.967,4.318,1.262,9-.159,13.254-.638,1.909-1.411,4.5-3.509,2.472a5.823,5.823,0,0,1-1.671-5.377" fill="#5e4028"/>
            <path id="Trazado_136530" data-name="Trazado 136530" d="M233.062,38.736c-2.2,3.424-2.761,6.839-.332,8.4s6.927.679,9.128-2.745,2.017-7.466-.412-9.027-6.183-.052-8.384,3.372" fill="#f2b27e"/>
            <path id="Trazado_136531" data-name="Trazado 136531" d="M243.015,37.342s-4.814-.31-9.936,7.088" fill="none" stroke="#000" stroke-linecap="round" stroke-linejoin="round" stroke-width="0.5"/>
            <g id="Grupo_159074" data-name="Grupo 159074" style="mix-blend-mode: screen;isolation: isolate">
              <g id="Grupo_159073" data-name="Grupo 159073">
                <g id="Grupo_159072" data-name="Grupo 159072" clip-path="url(#clip-path-9)">
                  <path id="Trazado_136532" data-name="Trazado 136532" d="M249.35,22.526a8.766,8.766,0,0,0-1.327-3.332c-7.611-5.044-16.958-7.273-26.134-7.4-3.44-.046-6.955.174-10.252-.811a10.064,10.064,0,0,1-6.33-5.085,20.546,20.546,0,0,0-2.981-.274c-1.974-.034-4.157.322-5.413,1.846a4.832,4.832,0,0,0-1,3.314c2.933,2.664,7.239,3.724,11.288,3.814,4.82.107,9.624-.87,14.44-.623a28.556,28.556,0,0,1,13.028,3.932c4.992,2.957,8.916,7.328,12.558,11.889a8.929,8.929,0,0,0,2.119-7.275" fill="#5e4028"/>
                </g>
              </g>
            </g>
            <path id="Trazado_136533" data-name="Trazado 136533" d="M217.081,123.026c-1.915.035-3.816-.2-5.787-.308-3.573-.2-7.506-.356-10.989.611a9.953,9.953,0,0,0-.96.328l1.916,4.06c.119,0,.237,0,.356.008.549.043,1.215.272,1.281.819.057.475-.4.765-.73.984-.014.009-.026.02-.039.029-.529.358-1,.8-1.508,1.2a10.568,10.568,0,0,1-3.688,2.043,13.8,13.8,0,0,1-2.179.354q-1.408.151-2.816.3a5.972,5.972,0,0,0-1.427.265,2,2,0,0,0-1.112.887.858.858,0,0,0,.057,1,2.784,2.784,0,0,0-.688,1.072,1.268,1.268,0,0,0-.018.565.91.91,0,0,0,.348.6,1.573,1.573,0,0,1,.29.2,1.04,1.04,0,0,1,.17.375,2.172,2.172,0,0,0,1.414,1.251,6.4,6.4,0,0,0,1.934.219,1.881,1.881,0,0,0,1.377.995,5.57,5.57,0,0,0,1.757-.017l5.581-.645a19.942,19.942,0,0,0,4.484-1.146,26.03,26.03,0,0,0,4.661-2.412c2.751-1.667,5.232-3.719,8.286-4.807Z" fill="#f2b27e"/>
            <path id="Trazado_136534" data-name="Trazado 136534" d="M189.689,135.6a31.91,31.91,0,0,0,8.641-.277" fill="none" stroke="#333" stroke-linecap="round" stroke-linejoin="round" stroke-width="0.5"/>
            <path id="Trazado_136535" data-name="Trazado 136535" d="M189.71,138.05a38.881,38.881,0,0,0,9.546-.815" fill="none" stroke="#333" stroke-linecap="round" stroke-linejoin="round" stroke-width="0.5"/>
            <path id="Trazado_136536" data-name="Trazado 136536" d="M193.254,139.685a44.132,44.132,0,0,0,7.394-.785" fill="none" stroke="#333" stroke-linecap="round" stroke-linejoin="round" stroke-width="0.5"/>
            <path id="Trazado_136537" data-name="Trazado 136537" d="M240.055,65.147s9.914,1.437,12.844,11.066c3.012,9.085,6.3,29.4,2.122,37.933s-34.073,20.23-34.073,20.23-3.437-1.882-4.86-7.173c-.854-3.177.442-4.931.442-4.931.3-.24,23.945-15.177,23.945-15.177s-2.483-15.051-4.053-26.551,3.633-15.4,3.633-15.4" fill="#ff8099"/>
            <path id="Trazado_136538" data-name="Trazado 136538" d="M252.746,117.092c-8.19,8.043-31.8,17.283-31.8,17.283a9.16,9.16,0,0,1-2.488-2.3" fill="none" stroke="#000" stroke-linecap="round" stroke-linejoin="round" stroke-width="0.5"/>
            <path id="Trazado_136539" data-name="Trazado 136539" d="M216.155,123.023a3.331,3.331,0,0,1,.376-.751c.3-.241,23.944-15.177,23.944-15.177s-1.839-11.148-3.352-21.587" fill="none" stroke="#000" stroke-linecap="round" stroke-linejoin="round" stroke-width="0.5"/>
            <path id="Trazado_136540" data-name="Trazado 136540" d="M241.747,107.184a13.747,13.747,0,0,0,6.711-.569" fill="none" stroke="#000" stroke-linecap="round" stroke-linejoin="round" stroke-width="0.5"/>
            <path id="Trazado_136541" data-name="Trazado 136541" d="M239.893,65.571a12.522,12.522,0,0,0-2.97,6.009" fill="none" stroke="#000" stroke-linecap="round" stroke-linejoin="round" stroke-width="0.5"/>
            <path id="Trazado_136542" data-name="Trazado 136542" d="M12.621,118.706C5.167,128.674,1.859,141.188.577,153.568c-2,19.275.947,39.892,12.653,55.335,8.132,10.728,20.045,18.28,32.885,22.324s26.579,4.722,39.965,3.3c15.473-1.648,31.234-6.41,42.544-17.1s17-28.276,10.562-42.441c-6.742-14.83-23.544-21.576-37.126-30.571a100.159,100.159,0,0,1-21.129-18.788c-7.991-9.446-16.813-17.8-29.353-20.5-14.726-3.175-29.862,1.42-38.957,13.581" fill="#ffb3cc"/>
            <path id="Trazado_136543" data-name="Trazado 136543" d="M71.638,186.4A107.244,107.244,0,0,0,28.4,161.909" fill="none" stroke="#000" stroke-linecap="round" stroke-linejoin="round" stroke-width="0.5"/>
            <path id="Trazado_136544" data-name="Trazado 136544" d="M56.935,167.422A92.353,92.353,0,0,0,25.5,132.015" fill="none" stroke="#000" stroke-linecap="round" stroke-linejoin="round" stroke-width="0.5"/>
            <path id="Trazado_136545" data-name="Trazado 136545" d="M54.7,139.3a86.305,86.305,0,0,0-9.576-24.212" fill="none" stroke="#000" stroke-linecap="round" stroke-linejoin="round" stroke-width="0.5"/>
            <path id="Trazado_136546" data-name="Trazado 136546" d="M116.626,71.252c-.091-1.041-.21-2.073-.366-3.085-2-13.045-12.936-24.025-26.545-23.769a24.908,24.908,0,0,0-12.876,3.943c-4.767-.546-9.733.884-12.371,4.892-2.3,3.49-2.81,7.86-2.7,12.036s.771,8.339.571,12.511c-.428,8.924-4.776,17.85-2.451,26.476,1.725,6.4,7,11.421,13.044,14.15s12.8,3.432,19.428,3.519A18.448,18.448,0,0,0,99.479,121c3.126-1.251,5.408-3.978,7.277-6.779a53.714,53.714,0,0,0,3.165-5.421,64.144,64.144,0,0,0,6.118-19.941,81.866,81.866,0,0,0,.81-10.526c.031-2.318-.02-4.724-.223-7.085" fill="#5e4028"/>
            <path id="Trazado_136547" data-name="Trazado 136547" d="M157.538,121.038a1.858,1.858,0,0,0,.34-1.638,6.272,6.272,0,0,0,1.259-1.445,2.137,2.137,0,0,0,.2-1.848,1.037,1.037,0,0,1-.126-.386,1.476,1.476,0,0,1,.075-.342,1.059,1.059,0,0,0-.532-1.062,2.743,2.743,0,0,0-1.212-.323c.067-1.261-2.255-.9-2.881-.579a15.765,15.765,0,0,0-2.112,1.544c-2.351,1.738-5.389,2.172-8.289,2.551a1.923,1.923,0,0,1-.752,0c-.73-.2-.4-.768-.037-1.153,1.5-1.6,3.7-2.423,5.162-4.066a1.107,1.107,0,0,0,.371-.908c-.124-.57-.905-.631-1.485-.559a18.032,18.032,0,0,0-6.016,1.466c-3.173,1.612-5.927,4.341-8.393,6.859-1.532,1.565-4.747,4.531-4.747,4.531l5.346,7.349a9.817,9.817,0,0,1,3.6-1.68c1.512-.151,3.013-.4,4.529-.5a18.44,18.44,0,0,0,5.915-1.262,19.689,19.689,0,0,0,4.019-2.148l4.486-3.24a5.473,5.473,0,0,0,1.288-1.156" fill="#f2b27e"/>
            <path id="Trazado_136548" data-name="Trazado 136548" d="M138.11,124.9a15.08,15.08,0,0,1,8.28-1.205" fill="none" stroke="#333" stroke-linecap="round" stroke-linejoin="round" stroke-width="0.5"/>
            <path id="Trazado_136549" data-name="Trazado 136549" d="M157.78,119.345a3.726,3.726,0,0,0-2.482,1.035,26.971,26.971,0,0,1-5.012,3.1" fill="none" stroke="#333" stroke-linecap="round" stroke-linejoin="round" stroke-width="0.5"/>
            <path id="Trazado_136550" data-name="Trazado 136550" d="M158.986,115.576a7.43,7.43,0,0,0-3.788,1.944,47.271,47.271,0,0,1-5.518,3.649" fill="none" stroke="#333" stroke-linecap="round" stroke-linejoin="round" stroke-width="0.5"/>
            <path id="Trazado_136551" data-name="Trazado 136551" d="M157.214,114.052a8.232,8.232,0,0,0-2.818,1.7,26.354,26.354,0,0,1-5.276,3.16" fill="none" stroke="#333" stroke-linecap="round" stroke-linejoin="round" stroke-width="0.5"/>
            <path id="Trazado_136552" data-name="Trazado 136552" d="M96.227,105.126c3.709.981,7.154,2.9,8.79,6.41s5.529,20.8,5.529,20.8l18.43-11.112s1.728.478,5.016,3.181a6.938,6.938,0,0,1,2.432,6.54s-16.683,20.472-28.056,23.216-19.062-34.881-19.062-34.881,3.212-15.131,6.921-14.15" fill="#cc4c66"/>
            <path id="Trazado_136553" data-name="Trazado 136553" d="M108.865,125.174c-1.259-5.192-2.919-11.639-3.849-13.637-1.636-3.514-5.081-5.429-8.79-6.41s-6.921,14.15-6.921,14.15,1.23,6.014,3.432,13.058c.532,0,1.063-.018,1.594-.056a22.241,22.241,0,0,0,14.534-7.105" fill="#ff8099"/>
            <path id="Trazado_136554" data-name="Trazado 136554" d="M110.623,132.678a17.709,17.709,0,0,0-1.8,10.942" fill="none" stroke="#000" stroke-linecap="round" stroke-linejoin="round" stroke-width="0.5"/>
            <path id="Trazado_136555" data-name="Trazado 136555" d="M148.53,214.79a1.738,1.738,0,0,0,.869-.125,1.89,1.89,0,0,0,.6-.6,14.593,14.593,0,0,1,5.505-4.607,9.3,9.3,0,0,1-2.586-4.046,22.049,22.049,0,0,1-.534-7.3c.037-.846.154-2.244.328-4.028L139.8,193.02c.15,2.575.3,5.344.423,8.388.09,2.169-.776,7.1-1.5,10.941a24.531,24.531,0,0,0,9.8,2.441" fill="#f2b27e"/>
            <path id="Trazado_136556" data-name="Trazado 136556" d="M144.144,218.872c4,.935,8,1.87,12.027,2.634a14.822,14.822,0,0,0,4.149.366c.837-2.34,1.99-4.75,3.987-6.162a51.986,51.986,0,0,1-6.52-4.194q-.329-.288-.652-.569c-.57-.5-1.12-.985-1.635-1.494a14.607,14.607,0,0,0-5.506,4.608,1.887,1.887,0,0,1-.6.6,1.738,1.738,0,0,1-.869.125,24.52,24.52,0,0,1-9.806-2.442c-.049.262-.1.519-.145.77-.253,1.333-.476,2.478-.618,3.265a11.333,11.333,0,0,0,2.236,1.309,22.615,22.615,0,0,0,3.947,1.18" fill="#cc4c66"/>
            <path id="Trazado_136557" data-name="Trazado 136557" d="M170.18,219.71c-.74-.958-3.242-2.453-5.873-4-2,1.413-3.15,3.822-3.987,6.163a14.824,14.824,0,0,1-4.149-.367c-4.032-.764-8.03-1.7-12.027-2.634a22.615,22.615,0,0,1-3.947-1.18,11.285,11.285,0,0,1-2.236-1.309c-.1.533-.157.906-.161,1.045-.127,3.633,6.961,3.647,9.33,4.118,3.913.778,7.625,2.316,11.521,3.159,3.311.716,7.893,1.1,11.082-.31,2.01-.892,1.625-3.16.447-4.685" fill="#e56680"/>
            <path id="Trazado_136558" data-name="Trazado 136558" d="M142.819,209.629a4.853,4.853,0,0,0,2.362,3.326" fill="none" stroke="#000" stroke-linecap="round" stroke-linejoin="round" stroke-width="0.5"/>
            <path id="Trazado_136559" data-name="Trazado 136559" d="M68.612,173.992s4.432,14.452,26.255,13.478,40.171-18.494,40.171-18.494l3.379,37.224s2.166,2.333,7.735,2.7,8.036-2.137,8.036-2.137,8.634-63.566-4.515-66.962-45.791,16.492-45.791,16.492l-35.5,2.759Z" fill="#e56680"/>
            <path id="Trazado_136560" data-name="Trazado 136560" d="M151.806,241.7a1.734,1.734,0,0,0,.868-.132,1.9,1.9,0,0,0,.591-.609,14.592,14.592,0,0,1,5.465-4.655,9.306,9.306,0,0,1-2.621-4.024,22.045,22.045,0,0,1-.6-7.292c.03-.847.134-2.246.293-4.031l-12.918-.951c.172,2.574.343,5.341.495,8.384.109,2.168-.715,7.111-1.4,10.953a24.532,24.532,0,0,0,9.826,2.357" fill="#f2b27e"/>
            <path id="Trazado_136561" data-name="Trazado 136561" d="M147.456,245.819c4,.9,8.01,1.8,12.049,2.53a14.8,14.8,0,0,0,4.152.331c.817-2.347,1.949-4.767,3.934-6.2a51.937,51.937,0,0,1-6.556-4.138c-.22-.191-.439-.378-.656-.564-.575-.491-1.129-.975-1.648-1.479a14.6,14.6,0,0,0-5.466,4.655,1.9,1.9,0,0,1-.591.609,1.734,1.734,0,0,1-.868.132,24.536,24.536,0,0,1-9.826-2.357q-.07.395-.139.771c-.241,1.335-.454,2.482-.589,3.27a11.313,11.313,0,0,0,2.247,1.29,22.674,22.674,0,0,0,3.957,1.146" fill="#cc4c66"/>
            <path id="Trazado_136562" data-name="Trazado 136562" d="M173.5,246.433c-.748-.951-3.263-2.425-5.908-3.949-1.984,1.429-3.116,3.849-3.933,6.2a14.789,14.789,0,0,1-4.152-.33c-4.039-.73-8.045-1.63-12.049-2.531a22.67,22.67,0,0,1-3.957-1.145,11.362,11.362,0,0,1-2.247-1.29c-.092.533-.149.906-.153,1.046-.1,3.634,6.993,3.587,9.366,4.037,3.92.745,7.644,2.251,11.548,3.06,3.316.687,7.9,1.037,11.078-.406,2-.909,1.6-3.173.407-4.688" fill="#e56680"/>
            <path id="Trazado_136563" data-name="Trazado 136563" d="M146.051,236.588a4.853,4.853,0,0,0,2.391,3.306" fill="none" stroke="#000" stroke-linecap="round" stroke-linejoin="round" stroke-width="0.5"/>
            <path id="Trazado_136564" data-name="Trazado 136564" d="M56.281,181.1s7.511,13.428,27.871,15.33,48.128-12.642,48.128-12.642-1.821,4.524.52,17.689,8.546,30.152,8.546,30.152,1.6,2.74,7.4,2.761,7.976-3.09,7.976-3.09,2.033-56.96-2.9-64.965S91.551,163.4,91.551,163.4l-35.5,2.759Z" fill="#e56680"/>
            <path id="Trazado_136565" data-name="Trazado 136565" d="M64.108,181.017s8.122,11.422,23.231,11.817,46.093-13.316,46.093-13.316-1.13,27.9,11.439,54.35" fill="none" stroke="#000" stroke-linecap="round" stroke-linejoin="round" stroke-width="0.5"/>
            <path id="Trazado_136566" data-name="Trazado 136566" d="M132.02,181.376q1.986-2.415,3.973-4.831" fill="none" stroke="#000" stroke-linecap="round" stroke-linejoin="round" stroke-width="0.5"/>
            <path id="Trazado_136567" data-name="Trazado 136567" d="M74.609,189.494a21,21,0,0,0,.756-13.867" fill="none" stroke="#000" stroke-linecap="round" stroke-linejoin="round" stroke-width="0.5"/>
            <path id="Trazado_136568" data-name="Trazado 136568" d="M106.555,159.171l-2.674,2.99c15.408-1.369,46.588-1.281,49.945,4.17,1.149,1.866,2.123,7.241,2.743,13.76" fill="none" stroke="#000" stroke-linecap="round" stroke-linejoin="round" stroke-width="0.5"/>
            <path id="Trazado_136569" data-name="Trazado 136569" d="M104.088,161.944s-1.64-.479-8.987-.565" fill="none" stroke="#000" stroke-linecap="round" stroke-linejoin="round" stroke-width="0.5"/>
            <path id="Trazado_136570" data-name="Trazado 136570" d="M105.642,160.24s-1.64-.479-8.987-.564" fill="none" stroke="#000" stroke-linecap="round" stroke-linejoin="round" stroke-width="0.5"/>
            <path id="Trazado_136571" data-name="Trazado 136571" d="M86.307,111.289s4.5-3.127,5.116-8.226a2.135,2.135,0,0,1-1.025-1.2c-.576-2.366,2.073-9.479,2.073-9.479L80.6,87.1s-.006,8.256-2.984,10.943a5.223,5.223,0,0,1-1.991.973,23.609,23.609,0,0,0,10.684,12.273" fill="#f2b27e"/>
            <g id="Grupo_159077" data-name="Grupo 159077" opacity="0.7" style="mix-blend-mode: multiply;isolation: isolate">
              <g id="Grupo_159076" data-name="Grupo 159076">
                <g id="Grupo_159075" data-name="Grupo 159075" clip-path="url(#clip-path-10)">
                  <path id="Trazado_136572" data-name="Trazado 136572" d="M92.471,92.38,80.6,87.1a32.281,32.281,0,0,1-.573,5.567c1.96,4.166,5.792,10.552,10.454,9.4a1.431,1.431,0,0,1-.081-.205c-.576-2.366,2.073-9.479,2.073-9.479" fill="#f2b27e"/>
                </g>
              </g>
            </g>
            <path id="Trazado_136573" data-name="Trazado 136573" d="M103.711,156.134q-2.824-2.639-5.648-5.278l-3.781-3.532c-.532-.5-1.053-1.01-1.6-1.494-.589-.521-1.625-.759-.831-1.67a2.081,2.081,0,0,0,.411-.567c.129-.325-.155-.6-.1-.842.046-.186.205-.256.3-.414a8.894,8.894,0,0,1,.71-.851,24.869,24.869,0,0,0,1.533-2.169,30.568,30.568,0,0,0,3.082-6.566c2.681-7.968,3.666-21.465,1.938-24.871-1.383-2.726-6.162-3.431-8.31-4.817-.619,5.1-5.116,8.226-5.116,8.226A23.618,23.618,0,0,1,75.622,99.016c-4.724,1.41-14.535,1.054-18.055,6.042-4.153,5.887-8.334,40.073-7.357,54.541s6.07,21.5,6.07,21.5,10.521,3.3,24.281-3.685,23.32-21.117,23.32-21.117l-.17-.159" fill="#cc4c66"/>
            <path id="Trazado_136574" data-name="Trazado 136574" d="M72.033,132.886c2.005-.383,3.977-.953,6-1.2,5.4-.664,10.863.984,16.295.6a20.85,20.85,0,0,0,3.815-.646c2.411-8.054,3.235-20.5,1.586-23.753-1.383-2.726-6.163-3.431-8.31-4.818-.62,5.1-5.116,8.227-5.116,8.227A23.618,23.618,0,0,1,75.623,99.016c-4.724,1.41-14.535,1.054-18.055,6.042-2.2,3.115-4.4,14.151-5.847,26a39.86,39.86,0,0,0,20.312,1.831" fill="#ff8099"/>
            <path id="Trazado_136575" data-name="Trazado 136575" d="M83.41,139.632a22.3,22.3,0,0,1-16.783,3.612" fill="none" stroke="#000" stroke-linecap="round" stroke-linejoin="round" stroke-width="0.5"/>
            <path id="Trazado_136576" data-name="Trazado 136576" d="M90.339,144.939a75.708,75.708,0,0,1-20.393,5.117" fill="none" stroke="#000" stroke-linecap="round" stroke-linejoin="round" stroke-width="0.5"/>
            <path id="Trazado_136577" data-name="Trazado 136577" d="M103.881,156.293l-.17-.159-5.648-5.277-3.781-3.533c-.532-.5-1.053-1.01-1.6-1.494-.589-.521-1.625-.759-.831-1.669a2.085,2.085,0,0,0,.411-.568c.129-.325-.154-.6-.094-.842.045-.186.205-.256.3-.413a8.654,8.654,0,0,1,.71-.851,24.886,24.886,0,0,0,1.533-2.17,30.524,30.524,0,0,0,3.082-6.566,63,63,0,0,0,2.656-14.6" fill="none" stroke="#000" stroke-linecap="round" stroke-linejoin="round" stroke-width="0.5"/>
            <path id="Trazado_136578" data-name="Trazado 136578" d="M112.411,179.168,118,179.7a5.565,5.565,0,0,0,1.757-.019,1.885,1.885,0,0,0,1.357-1.022,6.377,6.377,0,0,0,1.929-.259,2.166,2.166,0,0,0,1.388-1.279,1.042,1.042,0,0,1,.163-.378,1.59,1.59,0,0,1,.286-.211,1.076,1.076,0,0,0,.306-1.166,2.775,2.775,0,0,0-.709-1.059.857.857,0,0,0,.037-1,2,2,0,0,0-1.13-.865,6,6,0,0,0-1.432-.236q-1.41-.117-2.821-.239a13.718,13.718,0,0,1-2.186-.311,10.555,10.555,0,0,1-3.729-1.967c-.526-.4-1.018-.846-1.571-1.2-.333-.212-.8-.493-.75-.969.055-.548.716-.79,1.264-.844,2.219-.218,4.45.632,6.662.355a1.124,1.124,0,0,0,.892-.444c.287-.518-.268-1.088-.758-1.421a18.331,18.331,0,0,0-5.573-2.912c-3.5-.9-7.431-.659-11-.39-1.969.149-3.864.422-5.779.426l-1.793,8.859c3.075,1.026,5.6,3.027,8.382,4.639a26.137,26.137,0,0,0,4.708,2.317,20,20,0,0,0,4.506,1.055" fill="#f2b27e"/>
            <path id="Trazado_136579" data-name="Trazado 136579" d="M124.248,174.321a31.884,31.884,0,0,1-8.645-.1" fill="none" stroke="#333" stroke-linecap="round" stroke-linejoin="round" stroke-width="0.5"/>
            <path id="Trazado_136580" data-name="Trazado 136580" d="M124.276,176.766a38.9,38.9,0,0,1-9.561-.622" fill="none" stroke="#333" stroke-linecap="round" stroke-linejoin="round" stroke-width="0.5"/>
            <path id="Trazado_136581" data-name="Trazado 136581" d="M120.766,178.472a44.232,44.232,0,0,1-7.409-.635" fill="none" stroke="#333" stroke-linecap="round" stroke-linejoin="round" stroke-width="0.5"/>
            <path id="Trazado_136582" data-name="Trazado 136582" d="M69.692,101.96c-7.019-2.115-13.625.845-15.637,10.644s-3.425,30.936.925,39.379,39.169,19.75,39.169,19.75a10.147,10.147,0,0,0,3.535-5.28c.723-3.209-1.16-4.276-1.16-4.276l-.923-.7-6.178-4.7-8.441-6.421c-.45-.342-6.832-5.106-6.774-5.189a3.874,3.874,0,0,0,.357-.626.19.19,0,0,0,.024-.1.194.194,0,0,0-.048-.093c-.241-.307-.755-.753-.74-1.131a1.68,1.68,0,0,1,.169-.429c.137-.349-.168-12.981.076-16.291q.348-4.731.695-9.463.156-2.109.311-4.218s1.659-8.741-5.36-10.856" fill="#cc4c66"/>
            <path id="Trazado_136583" data-name="Trazado 136583" d="M74.046,126.5l.7-9.464q.155-2.107.31-4.217s1.659-8.742-5.36-10.856-13.625.845-15.637,10.643a112.732,112.732,0,0,0-1.9,18.6,39.681,39.681,0,0,0,19.876,1.679c.641-.122,1.279-.264,1.917-.409-.007-2.517.011-4.821.1-5.98" fill="#ff8099"/>
            <path id="Trazado_136584" data-name="Trazado 136584" d="M73.057,144.631a12.2,12.2,0,0,0-4.634,1.317" fill="none" stroke="#000" stroke-linecap="round" stroke-linejoin="round" stroke-width="0.5"/>
            <path id="Trazado_136585" data-name="Trazado 136585" d="M52.971,118.16c-1.466,11.079-1.876,26.281,2.01,33.823,1.205,2.34,4.8,4.847,9.36,7.249l3.634,2.075a233.3,233.3,0,0,0,26.174,10.426,8.009,8.009,0,0,0,.67-.573" fill="none" stroke="#000" stroke-linecap="round" stroke-linejoin="round" stroke-width="0.5"/>
            <path id="Trazado_136586" data-name="Trazado 136586" d="M96.524,162.177l-.923-.7-6.178-4.7-8.441-6.421c-.449-.342-6.832-5.106-6.774-5.189a3.874,3.874,0,0,0,.357-.626.19.19,0,0,0,.024-.1.194.194,0,0,0-.048-.093c-.241-.307-.755-.753-.74-1.131a1.717,1.717,0,0,1,.169-.429c.137-.349-.168-12.981.076-16.291q.348-4.731.695-9.463" fill="none" stroke="#000" stroke-linecap="round" stroke-linejoin="round" stroke-width="0.5"/>
            <path id="Trazado_136587" data-name="Trazado 136587" d="M111.149,68.742c3.628,12.653-1.692,27.753-9.125,29.884-10.422,2.989-24.932-5.209-28.56-17.862s.767-26.271,11.189-29.259,22.868,4.584,26.5,17.237" fill="#f2b27e"/>
          </g>
        </g>
        <g id="Grupo_159081" data-name="Grupo 159081">
          <g id="Grupo_159080" data-name="Grupo 159080" clip-path="url(#clip-path-11)">
            <rect id="Rectángulo_38134" data-name="Rectángulo 38134" width="16.75" height="16.272" transform="translate(77.306 82.294) rotate(-15.997)" fill="url(#radial-gradient-3)"/>
          </g>
        </g>
        <g id="Grupo_159083" data-name="Grupo 159083">
          <g id="Grupo_159082" data-name="Grupo 159082" clip-path="url(#clip-path-12)">
            <rect id="Rectángulo_38135" data-name="Rectángulo 38135" width="9.365" height="12.526" transform="translate(102.63 81.777) rotate(-15.997)" fill="url(#radial-gradient-4)"/>
          </g>
        </g>
        <g id="Grupo_159085" data-name="Grupo 159085">
          <g id="Grupo_159084" data-name="Grupo 159084" clip-path="url(#clip-path)">
            <path id="Trazado_136590" data-name="Trazado 136590" d="M97.373,78.423a2.186,2.186,0,1,1-2.7-1.5,2.186,2.186,0,0,1,2.7,1.5"/>
            <path id="Trazado_136591" data-name="Trazado 136591" d="M109.436,78.158a2.186,2.186,0,1,1-2.7-1.5,2.186,2.186,0,0,1,2.7,1.5"/>
            <path id="Trazado_136592" data-name="Trazado 136592" d="M92.407,77.427a3.89,3.89,0,0,1,4.968.563" fill="none" stroke="#000" stroke-linecap="round" stroke-linejoin="round" stroke-width="0.5"/>
            <path id="Trazado_136593" data-name="Trazado 136593" d="M104.912,77.223a3.18,3.18,0,0,1,4.4.318" fill="none" stroke="#000" stroke-linecap="round" stroke-linejoin="round" stroke-width="0.5"/>
          </g>
        </g>
        <g id="Grupo_159087" data-name="Grupo 159087">
          <g id="Grupo_159086" data-name="Grupo 159086" clip-path="url(#clip-path-14)">
            <rect id="Rectángulo_38137" data-name="Rectángulo 38137" width="10.116" height="11.284" transform="matrix(0.861, -0.508, 0.508, 0.861, 95.767, 80.372)" fill="url(#linear-gradient-2)"/>
          </g>
        </g>
        <g id="Grupo_159089" data-name="Grupo 159089">
          <g id="Grupo_159088" data-name="Grupo 159088" clip-path="url(#clip-path)">
            <path id="Trazado_136595" data-name="Trazado 136595" d="M103.281,78.432a3.581,3.581,0,0,0,.863,3.594c.54.533,1.265.908,1.612,1.582a2.2,2.2,0,0,1-.078,1.986,3.876,3.876,0,0,1-1.443,1.444" fill="none" stroke="#000" stroke-linecap="round" stroke-linejoin="round" stroke-width="0.5"/>
            <path id="Trazado_136596" data-name="Trazado 136596" d="M104.485,92.719c-.335-.761.246-4.36-4.253-4.363-4.234,0-6.472,4.006-6.472,4.006s2.687.576,10.725.357"/>
          </g>
        </g>
        <g id="Grupo_159091" data-name="Grupo 159091">
          <g id="Grupo_159090" data-name="Grupo 159090" clip-path="url(#clip-path-16)">
            <path id="Trazado_136597" data-name="Trazado 136597" d="M103.852,95.105c-.482,1.939-4.453,2.621-8.87,1.523s-7.606-3.559-7.124-5.5,4.453-2.621,8.87-1.523,7.606,3.56,7.124,5.5" fill="#d8714c"/>
            <path id="Trazado_136598" data-name="Trazado 136598" d="M93.351,89.89s7.681.755,10.2.609,3.827-3.2,3.827-3.2l-13.358-.805Z" fill="#fff"/>
          </g>
        </g>
        <g id="Grupo_159096" data-name="Grupo 159096">
          <g id="Grupo_159095" data-name="Grupo 159095" clip-path="url(#clip-path)">
            <path id="Trazado_136600" data-name="Trazado 136600" d="M98.592,73.981a10.289,10.289,0,0,0-2.41-1.77,5.618,5.618,0,0,0-2.719-.649,6.751,6.751,0,0,0-2.747.705,20.256,20.256,0,0,0-2.605,1.539,8.02,8.02,0,0,1,2.25-2.18,6.812,6.812,0,0,1,1.453-.714,6.162,6.162,0,0,1,1.629-.288,5.275,5.275,0,0,1,3.115.96,5.976,5.976,0,0,1,2.034,2.4" fill="#5e4028"/>
            <path id="Trazado_136601" data-name="Trazado 136601" d="M104.807,73.3a5.522,5.522,0,0,1,1.386-1.882,5.134,5.134,0,0,1,2.113-1.178,3.163,3.163,0,0,1,1.286-.1,2.664,2.664,0,0,1,1.214.5,3.045,3.045,0,0,1,1.185,2.07,4.743,4.743,0,0,0-1.586-1.43,2.556,2.556,0,0,0-1.868-.132,6.892,6.892,0,0,0-1.916.84,17.491,17.491,0,0,0-1.814,1.314" fill="#5e4028"/>
            <path id="Trazado_136602" data-name="Trazado 136602" d="M83.849,73.743c4.049-2.277,8.627-3.824,11.93-7.09A24.436,24.436,0,0,0,100.6,59.1c-1.18,5.229-2.632,10.9-6.9,14.146a19.773,19.773,0,0,1-6.868,3.014,15.874,15.874,0,0,0,16.7-12.393,16.7,16.7,0,0,0,9.516,9.922,29.445,29.445,0,0,0-5.2-16.1c-6.812-9.474-20.578-12.973-30.6-6.425-7.69,5.027-9.623,14.235-7.212,22.686.534,1.873,3.339,11.087,6.069,8.26,1.213-1.257,1.668-3.5,3.012-4.9a20.42,20.42,0,0,1,4.735-3.571" fill="#5e4028"/>
            <path id="Trazado_136603" data-name="Trazado 136603" d="M76.713,79.377c2.2,3.424,2.761,6.839.332,8.4s-6.927.679-9.128-2.745S65.9,77.566,68.329,76s6.183-.052,8.384,3.372" fill="#f2b27e"/>
            <path id="Trazado_136604" data-name="Trazado 136604" d="M66.759,77.984s4.814-.311,9.936,7.087" fill="none" stroke="#000" stroke-linecap="round" stroke-linejoin="round" stroke-width="0.5"/>
            <path id="Trazado_136605" data-name="Trazado 136605" d="M86.316,106.039c-1.273-2.664-3.509-4.715-5.5-6.9s-3.846-4.742-4.043-7.688L65.213,93.432c-.674,4.1,1.248,8.184,3.592,11.615s5.191,6.585,6.776,10.426a18.112,18.112,0,0,1,.988,10.5,10.052,10.052,0,0,0,2.854-5.212,7.344,7.344,0,0,1-.518,4.659,8.709,8.709,0,0,0,6.84-4.393,15.634,15.634,0,0,0,1.925-8.142,15.972,15.972,0,0,0-1.354-6.848" fill="#5e4028"/>
            <g id="Grupo_159094" data-name="Grupo 159094" style="mix-blend-mode: screen;isolation: isolate">
              <g id="Grupo_159093" data-name="Grupo 159093">
                <g id="Grupo_159092" data-name="Grupo 159092" clip-path="url(#clip-path-18)">
                  <path id="Trazado_136606" data-name="Trazado 136606" d="M89.646,53.617c-2.829,1.287-5.424,3.059-8.3,4.248a22.981,22.981,0,0,1-18.672-.726,25.942,25.942,0,0,0-.914,8.088,19.847,19.847,0,0,0,11.1.1c4.6-1.165,8.853-3.395,13.242-5.208s9.12-3.234,13.833-2.65a33.843,33.843,0,0,1,8.895,2.836,37.438,37.438,0,0,1,6.3,3.174,29.231,29.231,0,0,0-6.73-11.141,27.422,27.422,0,0,0-18.754,1.28" fill="#5e4028"/>
                </g>
              </g>
            </g>
          </g>
        </g>
      </g>
    </g>
  </g>
</svg>
