<svg xmlns="http://www.w3.org/2000/svg" xmlns:xlink="http://www.w3.org/1999/xlink" width="315" height="253.51" viewBox="0 0 315 253.51">
  <defs>
    <clipPath id="clip-path">
      <rect id="Rectángulo_38145" data-name="Rectángulo 38145" width="288.012" height="220.205" fill="none"/>
    </clipPath>
  </defs>
  <g id="_154" data-name="154" transform="translate(-642.5 -3503)">
    <g id="Grupo_158787" data-name="Grupo 158787" transform="translate(377.5 258.321)">
      <g id="Grupo_85023" data-name="Grupo 85023">
        <rect id="Rectángulo_34651" data-name="Rectángulo 34651" width="315" height="170" transform="translate(265 3328.188)" fill="#6b8dff"/>
        <g id="Grupo_84254" data-name="Grupo 84254" transform="translate(267.564 3206.015)">
          <g id="Grupo_84000" data-name="Grupo 84000" transform="translate(12.141 38.664)">
            <path id="Trazado_118280" data-name="Trazado 118280" d="M150.733,260.461q-1.2-.2-2.42-.329c-9.524-1-19.038,1.6-28.608,1.95-17.246.633-34.142-6.148-48.252-16.087S45.68,223.081,34.517,209.919c-12-14.151-24.265-30.864-22.133-49.294,1.554-13.433,10.581-24.753,20.16-34.3,12.117-12.078,25.638-22.591,38.6-33.715,12.9-11.062,23.176-25.694,36.23-36.083,25.318-20.152,64.385-22.921,93.363-9.99,18.593,8.3,33.9,22.359,50.84,33.646,12.12,8.075,25.648,15.244,33.431,27.553,9.43,14.915,8.31,34.063,5.164,51.426-5.324,29.378-16.037,58.687-36.5,80.429s-52.013,34.594-80.929,27.161C165.35,264.852,158.235,261.7,150.733,260.461Z" transform="translate(-12.141 -38.664)" fill="#c4d1ff"/>
          </g>
        </g>
      </g>
    </g>
    <g id="Grupo_159101" data-name="Grupo 159101" transform="translate(655.5 3519)">
      <g id="Grupo_159100" data-name="Grupo 159100" clip-path="url(#clip-path)">
        <path id="Trazado_136607" data-name="Trazado 136607" d="M563.983,464.462a39.36,39.36,0,0,0,.746,8.895,13.222,13.222,0,0,0,4.5,7.529c3.448,2.633,8.145,2.7,12.482,2.654,4.308-.046,9-.227,12.286-3.012a12.569,12.569,0,0,0,3.938-7.68,71.086,71.086,0,0,0,.342-8.853Z" transform="translate(-328.576 -270.323)" fill="#a85454"/>
        <path id="Trazado_136608" data-name="Trazado 136608" d="M596.06,392.874a.647.647,0,0,1-.625-.482A51.965,51.965,0,0,1,609,343a.646.646,0,0,1,.907.92,50.652,50.652,0,0,0-13.22,48.148.646.646,0,0,1-.46.789.662.662,0,0,1-.165.021" transform="translate(-345.963 -199.72)" fill="#c1e3d4"/>
        <path id="Trazado_136609" data-name="Trazado 136609" d="M594.739,393.837l-.047,0a.646.646,0,0,1-.6-.691c.621-8.61,1.265-17.512-.6-26.073-2.062-9.453-7.176-17-14.031-20.7a.646.646,0,0,1,.615-1.137c7.186,3.884,12.536,11.744,14.678,21.566,1.906,8.742,1.256,17.74.628,26.441a.646.646,0,0,1-.644.6" transform="translate(-337.396 -201.085)" fill="#c1e3d4"/>
        <path id="Trazado_136610" data-name="Trazado 136610" d="M595.778,305.672c-.021,0-.043,0-.064,0a.646.646,0,0,1-.58-.706c1.127-11.5,2.292-23.4.852-35.051-1.123-9.078-4.435-21.876-13.842-31.291a.646.646,0,1,1,.914-.914c9.666,9.674,13.063,22.766,14.21,32.045,1.458,11.8.286,23.763-.848,35.336a.646.646,0,0,1-.642.583" transform="translate(-339.046 -138.378)" fill="#c1e3d4"/>
        <path id="Trazado_136611" data-name="Trazado 136611" d="M589.56,344.643a.647.647,0,0,1-.609-.43c-10.019-28.138-4.524-61.458,14-84.889a.646.646,0,0,1,1.014.8c-18.253,23.089-23.668,55.926-13.794,83.654a.646.646,0,0,1-.609.863" transform="translate(-340.244 -150.939)" fill="#c1e3d4"/>
        <path id="Trazado_136612" data-name="Trazado 136612" d="M618.03,314.754a29.188,29.188,0,0,1,15.879-29.12c3.246-1.561,7.265-2.44,10.336-.558a8.5,8.5,0,0,1,3.7,6.845,16.7,16.7,0,0,1-1.846,7.8c-5.013,10.766-16.26,18.344-28.069,15.035" transform="translate(-359.947 -165.464)" fill="#8fbfab"/>
        <path id="Trazado_136613" data-name="Trazado 136613" d="M603.782,428.134c-.937-5.47-1.3-11.259.743-16.419s7.037-9.484,12.58-9.211a7.137,7.137,0,0,1,5.394,2.529c2.2,2.918.862,7.145-1.112,10.221-3.21,5-7.924,9.024-17.605,12.881" transform="translate(-351.326 -234.491)" fill="#8fbfab"/>
        <path id="Trazado_136614" data-name="Trazado 136614" d="M558.809,320.572c-.36-4.985-.736-10.048-2.461-14.739s-5.01-9.046-9.655-10.891-10.678-.53-13.28,3.737c-2.583,4.237-1.2,9.852,1.457,14.043,4.48,7.067,12.441,11.806,23.939,7.85" transform="translate(-309.965 -171.359)" fill="#8fbfab"/>
        <path id="Trazado_136615" data-name="Trazado 136615" d="M570.092,219.821a32.619,32.619,0,0,0-7.33-26.877c-1.88-2.166-4.326-4.192-7.194-4.225a7.531,7.531,0,0,0-6.289,3.866,13.213,13.213,0,0,0-1.525,7.465c.56,10.226,9.412,19.347,22.338,19.771" transform="translate(-319.104 -109.947)" fill="#8fbfab"/>
        <path id="Trazado_136616" data-name="Trazado 136616" d="M608.264,235.651c.1-6.989.2-14.031,1.655-20.868s4.362-13.538,9.353-18.431c2.964-2.906,7.406-5.18,11.176-3.442s4.927,6.6,4.63,10.741c-.562,7.841-4.619,15.118-9.989,20.859s-12.01,10.122-16.825,11.142" transform="translate(-354.374 -112.037)" fill="#8fbfab"/>
        <path id="Trazado_136617" data-name="Trazado 136617" d="M575.556,400.559c-.184-4.34-.408-8.758-1.905-12.836s-4.487-7.835-8.62-9.174c-3.63-1.177-8.375.209-9.567,3.833a7.228,7.228,0,0,0,.8,5.706,17.244,17.244,0,0,0,3.924,4.408c4.384,3.78,9.332,6.9,15.368,8.063" transform="translate(-323.446 -220.303)" fill="#8fbfab"/>
        <path id="Trazado_136618" data-name="Trazado 136618" d="M619.206,335.261a.323.323,0,0,1-.234-.546c5.5-5.782,11.323-11.393,17.3-16.676a.323.323,0,0,1,.428.483c-5.958,5.273-11.764,10.87-17.255,16.639a.323.323,0,0,1-.234.1" transform="translate(-360.56 -185.241)" fill="#608a78"/>
        <path id="Trazado_136619" data-name="Trazado 136619" d="M574.2,337.684a.32.32,0,0,1-.215-.082l-14.753-13.2a.323.323,0,1,1,.43-.482l14.753,13.2a.323.323,0,0,1-.215.564" transform="translate(-325.743 -188.665)" fill="#608a78"/>
        <path id="Trazado_136620" data-name="Trazado 136620" d="M585.874,245.079a.322.322,0,0,1-.265-.138l-8.722-12.492a.323.323,0,1,1,.53-.37l8.722,12.492a.323.323,0,0,1-.265.508" transform="translate(-336.059 -135.128)" fill="#608a78"/>
        <path id="Trazado_136621" data-name="Trazado 136621" d="M606.388,440.062a.323.323,0,0,1-.3-.44,44.81,44.81,0,0,1,10.543-15.909.323.323,0,0,1,.449.464,44.166,44.166,0,0,0-10.39,15.678.323.323,0,0,1-.3.206" transform="translate(-353.093 -246.802)" fill="#608a78"/>
        <path id="Trazado_136622" data-name="Trazado 136622" d="M589.811,414.661a.323.323,0,0,1-.285-.17,29.432,29.432,0,0,0-9.819-10.687.323.323,0,1,1,.354-.541A30.089,30.089,0,0,1,590.1,414.185a.323.323,0,0,1-.285.476" transform="translate(-337.651 -234.91)" fill="#608a78"/>
        <path id="Trazado_136623" data-name="Trazado 136623" d="M609.055,249.007a.323.323,0,0,1-.275-.493,148.246,148.246,0,0,0,15.038-32.31.323.323,0,0,1,.615.2,148.926,148.926,0,0,1-15.1,32.45.323.323,0,0,1-.275.153" transform="translate(-354.646 -125.83)" fill="#608a78"/>
        <path id="Trazado_136624" data-name="Trazado 136624" d="M403.852,182.148a55.7,55.7,0,0,0-11.619,1.446,18.462,18.462,0,0,0-9.939,5.7c-2.632,3.15-3.712,7.276-4.718,11.256q-1.96,7.749-3.92,15.5a3.8,3.8,0,0,0,1.92,5.195,60.166,60.166,0,0,1,8.6,6.7,140.179,140.179,0,0,0,4.565,15.645c.889,11.442-2.235,22.765-5.061,33.888s-6.985,25.358-4.989,36.66c0,0,84.215-.546,83.688-1.044.482-9.836-7.911-30.934-12.884-39.434s-8.424-9.021-9.157-19.258a91.266,91.266,0,0,1-.431-26.227,134.174,134.174,0,0,0,17.892-6.2c-.7-8.391-1.453-16.985-5.018-24.613S442.2,183.138,433.8,182.533c-3.533-.255-7.55.4-10.219-1.926Z" transform="translate(-217.502 -105.221)" fill="#d5bee6"/>
        <path id="Trazado_136625" data-name="Trazado 136625" d="M403.364,221.607a1.555,1.555,0,0,0,0,3.11,1.555,1.555,0,0,0,0-3.11" transform="translate(-234.105 -129.108)" fill="#fceee8"/>
        <path id="Trazado_136626" data-name="Trazado 136626" d="M447.071,238.8a1.555,1.555,0,0,0,0,3.11,1.555,1.555,0,0,0,0-3.11" transform="translate(-259.568 -139.126)" fill="#fceee8"/>
        <path id="Trazado_136627" data-name="Trazado 136627" d="M505.107,220.174a1.555,1.555,0,0,0,0,3.11,1.555,1.555,0,0,0,0-3.11" transform="translate(-293.38 -128.273)" fill="#fceee8"/>
        <path id="Trazado_136628" data-name="Trazado 136628" d="M546.664,230.921a1.555,1.555,0,0,0,0,3.11,1.555,1.555,0,0,0,0-3.11" transform="translate(-317.591 -134.534)" fill="#fceee8"/>
        <path id="Trazado_136629" data-name="Trazado 136629" d="M483.612,261.731a1.555,1.555,0,0,0,0,3.11,1.555,1.555,0,0,0,0-3.11" transform="translate(-280.857 -152.484)" fill="#fceee8"/>
        <path id="Trazado_136630" data-name="Trazado 136630" d="M530.185,267.463a1.555,1.555,0,0,0,0,3.11,1.555,1.555,0,0,0,0-3.11" transform="translate(-307.99 -155.824)" fill="#fceee8"/>
        <path id="Trazado_136631" data-name="Trazado 136631" d="M448.5,283.226a1.555,1.555,0,0,0,0,3.11,1.555,1.555,0,0,0,0-3.11" transform="translate(-260.403 -165.007)" fill="#fceee8"/>
        <path id="Trazado_136632" data-name="Trazado 136632" d="M409.1,261.014a1.555,1.555,0,0,0,0,3.11,1.555,1.555,0,0,0,0-3.11" transform="translate(-237.444 -152.066)" fill="#fceee8"/>
        <path id="Trazado_136633" data-name="Trazado 136633" d="M507.257,302.571a1.555,1.555,0,0,0,0,3.11,1.555,1.555,0,0,0,0-3.11" transform="translate(-294.633 -176.277)" fill="#fceee8"/>
        <path id="Trazado_136634" data-name="Trazado 136634" d="M472.865,324.783a1.555,1.555,0,0,0,0,3.11,1.555,1.555,0,0,0,0-3.11" transform="translate(-274.596 -189.218)" fill="#fceee8"/>
        <path id="Trazado_136635" data-name="Trazado 136635" d="M419.844,309.02a1.555,1.555,0,0,0,0,3.11,1.555,1.555,0,0,0,0-3.11" transform="translate(-243.706 -180.035)" fill="#fceee8"/>
        <path id="Trazado_136636" data-name="Trazado 136636" d="M512.023,340.887a1.555,1.555,0,0,0,0,3.11,1.555,1.555,0,0,0,0-3.11" transform="translate(-297.409 -198.6)" fill="#fceee8"/>
        <path id="Trazado_136637" data-name="Trazado 136637" d="M433.689,379.316a1.555,1.555,0,0,0,0,3.11,1.555,1.555,0,0,0,0-3.11" transform="translate(-251.772 -220.989)" fill="#fceee8"/>
        <path id="Trazado_136638" data-name="Trazado 136638" d="M489.114,393.356a1.555,1.555,0,0,0,0,3.111,1.555,1.555,0,0,0,0-3.111" transform="translate(-284.063 -229.169)" fill="#fceee8"/>
        <path id="Trazado_136639" data-name="Trazado 136639" d="M458.815,416.266a1.555,1.555,0,0,0,0,3.11,1.555,1.555,0,0,0,0-3.11" transform="translate(-266.41 -242.516)" fill="#fceee8"/>
        <path id="Trazado_136640" data-name="Trazado 136640" d="M534.193,402.225a1.555,1.555,0,0,0,0,3.11,1.555,1.555,0,0,0,0-3.11" transform="translate(-310.326 -234.336)" fill="#fceee8"/>
        <path id="Trazado_136641" data-name="Trazado 136641" d="M500.2,437.7a1.555,1.555,0,0,0,0,3.11,1.555,1.555,0,0,0,0-3.11" transform="translate(-290.521 -255.002)" fill="#fceee8"/>
        <path id="Trazado_136642" data-name="Trazado 136642" d="M557.1,432.524a1.555,1.555,0,0,0,0,3.11,1.555,1.555,0,0,0,0-3.11" transform="translate(-323.672 -251.988)" fill="#fceee8"/>
        <path id="Trazado_136643" data-name="Trazado 136643" d="M421.865,427.351a1.555,1.555,0,0,0,0,3.11,1.555,1.555,0,0,0,0-3.11" transform="translate(-244.883 -248.974)" fill="#fceee8"/>
        <path id="Trazado_136644" data-name="Trazado 136644" d="M457.337,461.345a1.555,1.555,0,0,0,0,3.11,1.555,1.555,0,0,0,0-3.11" transform="translate(-265.549 -268.779)" fill="#fceee8"/>
        <path id="Trazado_136645" data-name="Trazado 136645" d="M403.39,461.345a1.555,1.555,0,0,0,0,3.11,1.555,1.555,0,0,0,0-3.11" transform="translate(-234.119 -268.779)" fill="#fceee8"/>
        <path id="Trazado_136646" data-name="Trazado 136646" d="M537.888,465.04a1.555,1.555,0,0,0,0,3.11,1.555,1.555,0,0,0,0-3.11" transform="translate(-312.478 -270.932)" fill="#fceee8"/>
        <path id="Trazado_136647" data-name="Trazado 136647" d="M442.14,216.99l.11-.948a4.685,4.685,0,0,0-2.067-4.032,3.918,3.918,0,0,1-1.5-2.819A3.65,3.65,0,0,0,436.343,206c-2.324-1.14-2.426-2.94-2.514-4.527a4.159,4.159,0,0,0-.714-2.634c-.908-1.026-.659-2.549-.439-3.892.2-1.222.388-2.376-.316-2.9-1.8-1.332.632-5.03.736-5.187l.373.249c-.646.97-2.055,3.681-.843,4.577.925.684.714,1.969.492,3.33-.213,1.306-.434,2.656.333,3.523a4.545,4.545,0,0,1,.826,2.906c.086,1.536.174,3.125,2.264,4.149a4.063,4.063,0,0,1,2.585,3.512,3.5,3.5,0,0,0,1.329,2.542,5.388,5.388,0,0,1,2.229,3.727c.705-.944,2.252-2.782,3.956-3.331,2.151-.694,3.389-2.15,4.015-4.722.319-1.312,1.512-1.546,2.775-1.8,1.6-.315,3.414-.672,4.49-3.054a6.747,6.747,0,0,1,3.428-3.58,3.441,3.441,0,0,0,2.229-2.76,6.182,6.182,0,0,1,2.763-4.463,6.9,6.9,0,0,0,2.821-3.947l.427.136a7.367,7.367,0,0,1-2.976,4.167,5.809,5.809,0,0,0-2.6,4.193,3.888,3.888,0,0,1-2.457,3.069,6.28,6.28,0,0,0-3.231,3.37c-1.171,2.592-3.19,2.99-4.812,3.309-1.263.249-2.175.428-2.426,1.462-.667,2.74-2,4.295-4.313,5.042-2.123.685-4.1,3.684-4.117,3.714Z" transform="translate(-251.506 -108.868)" fill="#ac8dc6"/>
        <rect id="Rectángulo_38142" data-name="Rectángulo 38142" width="0.448" height="14.354" transform="translate(219.432 108.821) rotate(-5.713)" fill="#ac8dc6"/>
        <path id="Trazado_136648" data-name="Trazado 136648" d="M427.642,360c-8.042,0-12.478-1.67-12.529-1.69l.161-.418c.059.023,6.056,2.277,16.788,1.5l.032.447c-1.587.115-3.073.164-4.452.164" transform="translate(-241.844 -208.509)" fill="#ac8dc6"/>
        <path id="Trazado_136649" data-name="Trazado 136649" d="M467.07,307.538c-4.758-3.249-14.2-13.916-14.294-14.023l.336-.3c.094.107,9.5,10.732,14.21,13.95Z" transform="translate(-263.787 -170.828)" fill="#ac8dc6"/>
        <path id="Trazado_136650" data-name="Trazado 136650" d="M458.185,321.774c-1.621-5.1-13.066-11.459-13.181-11.523l.216-.392c.477.264,11.717,6.514,13.392,11.78Z" transform="translate(-259.259 -180.523)" fill="#ac8dc6"/>
        <path id="Trazado_136651" data-name="Trazado 136651" d="M524.748,407.15c-.733-6.6-9.142-25.539-9.227-25.729l.41-.182c.348.781,8.522,19.194,9.263,25.861Z" transform="translate(-300.342 -222.109)" fill="#ac8dc6"/>
        <path id="Trazado_136652" data-name="Trazado 136652" d="M452.635,399.728c-.132-8.563,2.346-30.967,2.371-31.192l.446.05c-.025.225-2.5,22.6-2.369,31.135Z" transform="translate(-263.701 -214.709)" fill="#ac8dc6"/>
        <rect id="Rectángulo_38143" data-name="Rectángulo 38143" width="0.448" height="8.25" transform="matrix(0.994, -0.109, 0.109, 0.994, 198.014, 155.219)" fill="#ac8dc6"/>
        <rect id="Rectángulo_38144" data-name="Rectángulo 38144" width="2.786" height="0.448" transform="translate(178.936 155.135) rotate(-74.488)" fill="#ac8dc6"/>
        <path id="Trazado_136653" data-name="Trazado 136653" d="M398.534,270c-.051-.156-1.208-3.974.614-17.007l.444.062c-1.808,12.931-.644,16.77-.632,16.807Z" transform="translate(-231.947 -147.393)" fill="#ac8dc6"/>
        <path id="Trazado_136654" data-name="Trazado 136654" d="M394.734,267.4c-.017-3.232-2.413-6.755-2.437-6.79l.369-.254c.1.149,2.5,3.672,2.516,7.042Z" transform="translate(-228.552 -151.681)" fill="#ac8dc6"/>
        <path id="Trazado_136655" data-name="Trazado 136655" d="M34.4,488.433l260.036-.453V504.5H34.5Z" transform="translate(-20.041 -284.297)" fill="#a85454"/>
        <path id="Trazado_136656" data-name="Trazado 136656" d="M62.239,117.5c-1.145,1.147-2.291,2.293-3.378,3.37A227.871,227.871,0,0,0,29.63,131.944a52.19,52.19,0,0,0-16.108,27.34c-1.063,4.73-1.533,9.792-4.262,13.8-2.5,3.673-6.965,6.884-6.4,11.469a3.339,3.339,0,0,0-.762,6.006,24.05,24.05,0,0,0-2.085,7.812,8.567,8.567,0,0,0,2.977,7.223c7.164,2.365,3.137-10.071,8.015-11.269a10.92,10.92,0,0,1,12.33,6.349,7.313,7.313,0,0,0,2.211-5.882c-.094-1.016-.4-2.007-.44-3.027-.071-1.914.809-3.719,1.572-5.466,2.2-2.788,4.392-5.576,6.812-8.308A121.827,121.827,0,0,1,38.669,199.8s71.466,3.482,73,2.374c.874-7.851,2.316-15.64,3.9-23.041l6.795,8.186a2.545,2.545,0,0,0-2.783,1.324,7.443,7.443,0,0,0-.748,3.215l-.556,7.042c3.715-2.494,8.729-3.388,12.734-1.393s4.5,6.741,2.484,10.736c1.834.16,3.936.55,8.252-2.758a8.851,8.851,0,0,0,3.653-6c.272-3.088-1.544-6.577.277-9.086a21.379,21.379,0,0,0-2.429-2.145c1.99-6.476-5.765-15.723-7.73-22.207-3.988-13.159-3.209-20.259-15.384-32.434-2.657-2.657-20.206-10.375-28.925-13.138a9.913,9.913,0,0,0-6.321-2.927Z" transform="translate(0 -68.457)" fill="#72568f"/>
        <path id="Trazado_136657" data-name="Trazado 136657" d="M275.516,234.811a.239.239,0,0,1-.038,0,.225.225,0,0,1-.183-.259l3.473-20.144a.224.224,0,1,1,.442.076l-3.473,20.144a.225.225,0,0,1-.221.186" transform="translate(-160.384 -124.804)" fill="#4f3070"/>
        <path id="Trazado_136658" data-name="Trazado 136658" d="M281.96,236.8a.222.222,0,0,1-.083-.016.224.224,0,0,1-.126-.291,29.282,29.282,0,0,1,4.659-7.883.224.224,0,0,1,.346.286,28.853,28.853,0,0,0-4.589,7.763.224.224,0,0,1-.208.142" transform="translate(-164.139 -133.141)" fill="#4f3070"/>
        <path id="Trazado_136659" data-name="Trazado 136659" d="M73.874,237.468a.224.224,0,0,1-.22-.186,99.678,99.678,0,0,0-5.171-18.7.224.224,0,0,1,.418-.161,100.129,100.129,0,0,1,5.195,18.78.224.224,0,0,1-.182.259.2.2,0,0,1-.039,0" transform="translate(-39.889 -127.171)" fill="#4f3070"/>
        <path id="Trazado_136660" data-name="Trazado 136660" d="M70.05,237.666a.224.224,0,0,1-.187-.1L66.746,232.8a.224.224,0,0,1,.375-.245l3.117,4.765a.224.224,0,0,1-.065.31.221.221,0,0,1-.123.037" transform="translate(-38.865 -135.426)" fill="#4f3070"/>
        <path id="Trazado_136661" data-name="Trazado 136661" d="M28.418,279.329a.226.226,0,0,1-.192-.108c-1.757-2.894-5.232-4.819-9.294-5.149-3.827-.309-7.671.738-10.931,1.806a.224.224,0,0,1-.139-.426c3.3-1.081,7.2-2.145,11.107-1.826,4.2.341,7.809,2.346,9.641,5.363a.224.224,0,0,1-.192.341" transform="translate(-4.49 -159.38)" fill="#4f3070"/>
        <path id="Trazado_136662" data-name="Trazado 136662" d="M5.683,287.074a.224.224,0,0,1-.167-.374,10.82,10.82,0,0,1,5.218-3.025,32.3,32.3,0,0,1,5.951-.9.226.226,0,0,1,.243.2.224.224,0,0,1-.2.243,31.921,31.921,0,0,0-5.868.887A10.376,10.376,0,0,0,5.849,287a.224.224,0,0,1-.167.074" transform="translate(-3.18 -164.742)" fill="#4f3070"/>
        <path id="Trazado_136663" data-name="Trazado 136663" d="M5.564,283.338a.224.224,0,0,1-.124-.412,10.6,10.6,0,0,1,6.751-1.7.225.225,0,0,1,.2.244.233.233,0,0,1-.243.2A10.155,10.155,0,0,0,5.687,283.3a.225.225,0,0,1-.124.037" transform="translate(-3.111 -163.819)" fill="#4f3070"/>
        <path id="Trazado_136664" data-name="Trazado 136664" d="M9.455,298.784a.224.224,0,0,1-.182-.356,40.863,40.863,0,0,1,4.3-5.012.224.224,0,0,1,.315.319,40.307,40.307,0,0,0-4.248,4.957.225.225,0,0,1-.182.092" transform="translate(-5.378 -170.906)" fill="#4f3070"/>
        <path id="Trazado_136665" data-name="Trazado 136665" d="M45.954,300.977a.225.225,0,0,1-.188-.1,12.485,12.485,0,0,0-7.538-5.287.224.224,0,0,1,.1-.436,12.938,12.938,0,0,1,7.812,5.478.224.224,0,0,1-.188.347" transform="translate(-22.171 -171.951)" fill="#4f3070"/>
        <path id="Trazado_136666" data-name="Trazado 136666" d="M50.117,270.552a.223.223,0,0,1-.15-.058l-4.876-4.4a4.141,4.141,0,0,1-1.022-1.2,1.544,1.544,0,0,1,.1-1.658,1.58,1.58,0,0,1,1.81-.316,4.143,4.143,0,0,1,1.361,1.124c.984,1.091,2,2.219,2.99,6.228a.224.224,0,0,1-.218.278m-4.864-7.332a.93.93,0,0,0-.735.3,1.126,1.126,0,0,0-.047,1.174,3.754,3.754,0,0,0,.919,1.063l4.322,3.9c-.9-3.315-1.775-4.288-2.7-5.315a3.815,3.815,0,0,0-1.207-1.013,1.419,1.419,0,0,0-.553-.114" transform="translate(-25.564 -153.092)" fill="#4f3070"/>
        <path id="Trazado_136667" data-name="Trazado 136667" d="M56.4,260.276a.224.224,0,0,1-.215-.16,34.044,34.044,0,0,0-3.975-8.626.224.224,0,1,1,.377-.243,34.484,34.484,0,0,1,4.027,8.74.223.223,0,0,1-.15.279.214.214,0,0,1-.064.01" transform="translate(-30.394 -146.316)" fill="#4f3070"/>
        <path id="Trazado_136668" data-name="Trazado 136668" d="M294.961,277.522a.224.224,0,0,1-.143-.4,21.072,21.072,0,0,1,4.163-2.915,7.237,7.237,0,0,1,5.049-.643,1.486,1.486,0,0,1,.9.637.684.684,0,0,1,.047.548c-.142.42-.6.546-.978.608a64.611,64.611,0,0,0-8.97,2.151.217.217,0,0,1-.063.009m7.494-3.717a7.615,7.615,0,0,0-3.279.809,16.98,16.98,0,0,0-3.232,2.166,60.374,60.374,0,0,1,7.978-1.862c.237-.039.559-.113.626-.309a.238.238,0,0,0-.019-.2,1.064,1.064,0,0,0-.621-.414,5.329,5.329,0,0,0-1.453-.194" transform="translate(-171.713 -159.258)" fill="#4f3070"/>
        <path id="Trazado_136669" data-name="Trazado 136669" d="M294.666,271.616a.224.224,0,0,1-.184-.353,13.2,13.2,0,0,1,8.672-5.353.224.224,0,0,1,.066.443,12.741,12.741,0,0,0-8.371,5.168.224.224,0,0,1-.183.1" transform="translate(-171.541 -154.917)" fill="#4f3070"/>
        <path id="Trazado_136670" data-name="Trazado 136670" d="M314.773,291.09a.223.223,0,0,1-.19-.106,15.386,15.386,0,0,0-5.869-5.449,14.276,14.276,0,0,0-3.756-1.362c-3.633-.75-7.489.055-10.891.766a.224.224,0,0,1-.092-.439c3.446-.72,7.349-1.537,11.074-.766a14.735,14.735,0,0,1,3.874,1.4,15.836,15.836,0,0,1,6.039,5.609.223.223,0,0,1-.071.308.219.219,0,0,1-.119.034" transform="translate(-171.166 -165.122)" fill="#4f3070"/>
        <path id="Trazado_136671" data-name="Trazado 136671" d="M335.928,287.964a.227.227,0,0,1-.1-.025l-4.373-2.286a.224.224,0,0,1,.207-.4l4.374,2.286a.224.224,0,0,1-.1.423" transform="translate(-193.032 -166.175)" fill="#4f3070"/>
        <path id="Trazado_136672" data-name="Trazado 136672" d="M327.81,317.467a.224.224,0,0,1-.223-.207,20.215,20.215,0,0,0-2.169-7.655.224.224,0,1,1,.4-.206,20.675,20.675,0,0,1,2.218,7.826.225.225,0,0,1-.207.241h-.018" transform="translate(-189.573 -180.185)" fill="#4f3070"/>
        <path id="Trazado_136673" data-name="Trazado 136673" d="M337.364,318.228a.224.224,0,0,1-.177-.086l-1.868-2.393a.224.224,0,0,1,.354-.276l1.868,2.394a.224.224,0,0,1-.177.362" transform="translate(-195.329 -183.743)" fill="#4f3070"/>
        <path id="Trazado_136674" data-name="Trazado 136674" d="M287.48,300.625a.224.224,0,0,1-.069-.437A40.932,40.932,0,0,1,298.7,298.2a.224.224,0,1,1,.015.448,40.459,40.459,0,0,0-11.17,1.964.224.224,0,0,1-.069.011" transform="translate(-167.355 -173.732)" fill="#4f3070"/>
        <path id="Trazado_136675" data-name="Trazado 136675" d="M288.236,296.272a.224.224,0,0,1-.043-.444,17.266,17.266,0,0,1,6.631-.017.225.225,0,0,1,.177.263.228.228,0,0,1-.263.177,16.8,16.8,0,0,0-6.458.016.225.225,0,0,1-.044,0" transform="translate(-167.795 -172.157)" fill="#4f3070"/>
        <path id="Trazado_136676" data-name="Trazado 136676" d="M149.208,151.726a.221.221,0,0,1-.129-.041c-1.587-1.126-1.956-3.08-2.314-4.969a13.324,13.324,0,0,0-.925-3.317,11.885,11.885,0,0,0-1.222-1.867c-.278-.371-.565-.755-.821-1.153a13.549,13.549,0,0,1-1.8-8.169A39.619,39.619,0,0,1,143.749,124a.224.224,0,0,1,.431.124,39.261,39.261,0,0,0-1.731,8.118,13.106,13.106,0,0,0,1.726,7.895c.247.386.53.763.8,1.128a12.255,12.255,0,0,1,1.266,1.94,13.667,13.667,0,0,1,.962,3.43,8.813,8.813,0,0,0,1.426,4.029,4.441,4.441,0,0,1,5.232-5.554.224.224,0,1,1-.1.438,4,4,0,0,0-4.362,5.848.224.224,0,0,1-.2.333" transform="translate(-82.706 -72.147)" fill="#4f3070"/>
        <path id="Trazado_136677" data-name="Trazado 136677" d="M190.148,152.908a.224.224,0,0,1-.209-.144,14.04,14.04,0,0,0-2.573-4.752,4.571,4.571,0,0,0-4.754-1.415.224.224,0,0,1-.164-.418,5.023,5.023,0,0,1,5.243,1.524,10.833,10.833,0,0,1,1.985,3.2,13.194,13.194,0,0,1,1.305-5.642c.462-1.039,1-2.056,1.529-3.04a38.5,38.5,0,0,0,1.814-3.718,19.23,19.23,0,0,0,.218-13.575.224.224,0,0,1,.421-.153,19.684,19.684,0,0,1-.223,13.9,38.763,38.763,0,0,1-1.835,3.762c-.521.977-1.059,1.987-1.515,3.011a10.958,10.958,0,0,0-1.026,7.185.224.224,0,0,1-.148.27.219.219,0,0,1-.069.011" transform="translate(-106.211 -72.607)" fill="#4f3070"/>
        <path id="Trazado_136678" data-name="Trazado 136678" d="M105.882,122.271a226.076,226.076,0,0,0-6.745,40.947c5.086,1.056,10.051,1.387,15.13,2.642,4.411,1.091,8.926,2.441,13.5,1.594,5.377-1,10.743-3.716,15.977-4.321a164.615,164.615,0,0,0-7.957-41.962,5.994,5.994,0,0,1,2.327.921,188.991,188.991,0,0,1,9.24,43c1.9,6.5,1.436,13.417,2.127,20.15s2.939,13.9,9.077,17.484c1.658,24.711,3.156,47.027,4.813,71.738,0,0-83.568,1.4-83.2.274,1.337-23.528,2.673-47.056,4.869-70.862-.5-3.262,1.915-6.14,3.656-8.944,3.637-5.859,4.649-12.921,5.582-19.755.525-3.851,1.051-7.7,2.877-11.445a90.766,90.766,0,0,1,6.369-40.75,3.158,3.158,0,0,0,2.358-.709" transform="translate(-46.707 -70.593)" fill="#ffb987"/>
        <path id="Trazado_136679" data-name="Trazado 136679" d="M148.372,281.349c-6.522,0-13.042-.192-19.522-.579a.224.224,0,0,1-.211-.225l.273-36.631a.225.225,0,0,1,.21-.222c.96-.063,1.926-.139,2.9-.216,4.394-.346,8.939-.7,13.245.116a50.049,50.049,0,0,1,6.347,1.8,46.239,46.239,0,0,0,6.754,1.869c3.93.667,9.432.048,12-3.891a.224.224,0,0,1,.4.057c1.891,6.162,1.2,12.741.525,19.1-.622,5.9-1.266,12,.152,17.745a.224.224,0,0,1-.2.277c-7.583.53-15.226.794-22.866.794m-19.283-1.013a329.244,329.244,0,0,0,41.853-.209c-1.356-5.748-.718-11.793-.1-17.641.651-6.163,1.323-12.531-.376-18.478-2.781,3.772-8.244,4.365-12.179,3.7a46.553,46.553,0,0,1-6.819-1.885,49.7,49.7,0,0,0-6.29-1.786c-4.248-.809-8.761-.453-13.126-.11-.9.071-1.8.142-2.693.2Z" transform="translate(-74.945 -141.626)" fill="#db7239"/>
        <path id="Trazado_136680" data-name="Trazado 136680" d="M94.138,304.166a.224.224,0,0,1-.136-.4,27.451,27.451,0,0,0,8.656-11.2.224.224,0,1,1,.413.173,27.9,27.9,0,0,1-8.8,11.385.224.224,0,0,1-.136.046" transform="translate(-54.714 -170.365)" fill="#db7239"/>
        <path id="Trazado_136681" data-name="Trazado 136681" d="M98.044,323.239a.224.224,0,0,1-.1-.425l6.945-3.417a.224.224,0,0,1,.2.4l-6.945,3.417a.221.221,0,0,1-.1.023" transform="translate(-56.99 -186.067)" fill="#db7239"/>
        <path id="Trazado_136682" data-name="Trazado 136682" d="M255.075,314.854a.226.226,0,0,1-.127-.039,32.306,32.306,0,0,1-8.9-9.218.224.224,0,1,1,.378-.241,31.844,31.844,0,0,0,8.775,9.089.224.224,0,0,1-.127.409" transform="translate(-143.327 -177.839)" fill="#db7239"/>
        <path id="Trazado_136683" data-name="Trazado 136683" d="M255.994,327.317a.222.222,0,0,1-.069-.011l-4.224-1.362a.224.224,0,1,1,.137-.427l4.225,1.362a.224.224,0,0,1-.069.437" transform="translate(-146.55 -189.64)" fill="#db7239"/>
        <path id="Trazado_136684" data-name="Trazado 136684" d="M162.219,381.024a.224.224,0,0,1-.172-.081l-8.64-10.369a.224.224,0,0,1,.344-.287l8.64,10.369a.224.224,0,0,1-.172.368" transform="translate(-89.344 -215.682)" fill="#db7239"/>
        <path id="Trazado_136685" data-name="Trazado 136685" d="M148.015,393.341a.224.224,0,0,1-.212-.152l-2.715-7.9a.224.224,0,1,1,.424-.145l2.716,7.9a.224.224,0,0,1-.139.285.219.219,0,0,1-.073.012" transform="translate(-84.521 -224.296)" fill="#db7239"/>
        <path id="Trazado_136686" data-name="Trazado 136686" d="M259.325,437.132a.224.224,0,0,1-.224-.222l-.165-22.712a.224.224,0,0,1,.222-.226h0a.224.224,0,0,1,.224.222l.165,22.712a.224.224,0,0,1-.222.226Z" transform="translate(-150.856 -241.179)" fill="#db7239"/>
        <path id="Trazado_136687" data-name="Trazado 136687" d="M303.359,473.785s-.2,9.874-.024,14.7l17.551-.171.067-14.567Z" transform="translate(-176.681 -276.004)" fill="#fff"/>
        <path id="Trazado_136688" data-name="Trazado 136688" d="M307.46,469.407a2.648,2.648,0,0,1,1.68-2.523,7.763,7.763,0,0,1,3.183-.465l4.593-.024a6.728,6.728,0,0,1,3.048.46,2.3,2.3,0,0,1,1.354,2.524Z" transform="translate(-179.118 -271.72)" fill="#473e57"/>
        <path id="Trazado_136689" data-name="Trazado 136689" d="M487.863,480.5c-2.418-1.642-5.692-1.128-8.433-.111s-5.407,2.487-8.328,2.594c-.9.033-1.812-.067-2.712.028A3.456,3.456,0,0,0,466,484.136a1.85,1.85,0,0,0,.07,2.457,4.113,4.113,0,0,0,2.181.584c1.7.258,3.118,1.357,4.591,2.234a19.465,19.465,0,0,0,12.463,2.534,10.136,10.136,0,0,0,5.57-2.294,5.27,5.27,0,0,0,1.6-5.537c-.834-2.187-3.469-2.84-4.613-3.617" transform="translate(-271.241 -279.32)" fill="#8fbfab"/>
        <path id="Trazado_136690" data-name="Trazado 136690" d="M466.133,485.655c-.584-.977.233-2.286,1.289-2.711a9.387,9.387,0,0,1,3.378-.292c3.567-.06,6.842-1.842,10.243-2.918s7.577-1.271,10.077,1.274c1.2,1.219,1.8,3.225.879,4.662a5.084,5.084,0,0,1-2.986,1.822,24.827,24.827,0,0,1-8.523.967,49.508,49.508,0,0,1-6.632-1.011c-2.605-.518-5.21-1.037-7.727-1.793" transform="translate(-271.455 -279.054)" fill="#c5ebcc"/>
        <path id="Trazado_136691" data-name="Trazado 136691" d="M504.656,486.263a9.221,9.221,0,0,0-7.193.4,1.023,1.023,0,0,0-.563.507.723.723,0,0,0,.288.772,1.921,1.921,0,0,0,.817.306,14.155,14.155,0,0,0,6.976-.386c.211-.067.458-.182.478-.4.018-.2-.162-.354-.328-.463-.56-.368-1.177-.647-.475-.731" transform="translate(-289.476 -282.978)" fill="#a85454"/>
        <path id="Trazado_136692" data-name="Trazado 136692" d="M296.058,164.644a7.069,7.069,0,0,1,4.281,2.037,12.962,12.962,0,0,0,4.017,2.635c1.8,2.971,3.6,5.943,5.464,9.085a29.083,29.083,0,0,1,.814,8.159c3.707,11.208,10.555,19.531,18.522,27.579.291-1.7.588-2.582.615-3.027,3.191,2.259,9.513,7.346,9.513,7.346a42.325,42.325,0,0,0,1.359,5.117,32.756,32.756,0,0,1-6.636,14.579,3.858,3.858,0,0,1-5.088.791c-5.584-3.6-9.155-7.1-11.369-13.621,0-3.14-.66-1.7-.657-4.839,0-1.1.662-2.229.219-3.236-.239-.544-1.152-.806-1.419-1.337-.616-1.228-.161-2.87-.4-4.223-1.488-8.38-8.591-15.329-8.768-23.812a43.929,43.929,0,0,1-2.039-7.886l-4.122-6.334a3.362,3.362,0,0,1-.57-1.2,1.145,1.145,0,0,1,.436-1.18.7.7,0,0,1,1.046.415c-1.665-2.3-3.33-4.609-5.216-7.049" transform="translate(-172.483 -95.921)" fill="#ff9b85"/>
        <path id="Trazado_136693" data-name="Trazado 136693" d="M315.484,187.932a.226.226,0,0,1-.139-.048,15.1,15.1,0,0,1-3.531-3.961,39.237,39.237,0,0,1-4.177-3.565.224.224,0,1,1,.318-.316,39.112,39.112,0,0,0,4.164,3.55.215.215,0,0,1,.055.061,14.649,14.649,0,0,0,3.448,3.878.224.224,0,0,1-.139.4" transform="translate(-179.191 -104.854)" fill="#fa453e"/>
        <path id="Trazado_136694" data-name="Trazado 136694" d="M380.729,295.068a.224.224,0,0,1-.215-.159,30.831,30.831,0,0,0-6.763-11.844.224.224,0,1,1,.33-.3,31.274,31.274,0,0,1,6.862,12.016.225.225,0,0,1-.149.28.221.221,0,0,1-.065.01" transform="translate(-217.712 -164.695)" fill="#fa453e"/>
        <path id="Trazado_136695" data-name="Trazado 136695" d="M437.333,62.22a22.071,22.071,0,0,0-23.341-2.137c-7.313,3.841-11.414,9.519-10.9,17.763.226,3.61,1.331,7.4-.09,10.724-.834,1.954-2.44,3.457-3.67,5.189s-2.1,4.025-1.218,5.959c.828,1.815,3.012,2.868,3.451,4.814.5,2.2-1.458,4.1-3.026,5.731s-4.494,4.239-1.915,6.019c4.9-3.839,12.262-5.477,19.021-5.6,2.019-.036,3.88.473,5.736.585,8.071.485,16.274,1.849,23.786.066l16.81,6.411c1.457-2.791-.579-6.134-2.873-8.29s-5.119-4.217-5.68-7.315c-.362-2,.308-4.143-.415-6.037-.808-2.116-3.06-3.234-4.7-4.793-5.868-5.566-4.328-15.419-5.119-20.3-.64-3.953-3.254-6.743-5.857-8.788" transform="translate(-230.479 -33.617)" fill="#473e57"/>
        <path id="Trazado_136696" data-name="Trazado 136696" d="M379.538,315.211c2.346,7.188,4.692,14.377,7.306,21.907a34.446,34.446,0,0,1,8.342,4.579,11.614,11.614,0,0,1,4.554,8.077,10.192,10.192,0,0,1-3.4,7.784,15.3,15.3,0,0,1-7.85,3.633c-2.778.475-5.907.271-8.008-1.608a9.635,9.635,0,0,1-2.7-5.982,21.888,21.888,0,0,1,3.178-14.617c-2.1-6.219-4.205-12.438-6.2-18.69a10.774,10.774,0,0,0-4.106-2.182c2.852-.875,5.7-1.751,8.886-2.9" transform="translate(-215.941 -183.641)" fill="#ffb87a"/>
        <path id="Trazado_136697" data-name="Trazado 136697" d="M385.724,361.316a8.443,8.443,0,0,1-5.708-1.879,9.738,9.738,0,0,1-2.768-6.119,22.151,22.151,0,0,1,3.153-14.678c-2.05-6.064-4.169-12.332-6.151-18.531a10.578,10.578,0,0,0-3.972-2.1.224.224,0,0,1-.006-.43c2.8-.86,5.7-1.749,8.876-2.9a.221.221,0,0,1,.174.009.226.226,0,0,1,.115.132l.02.061c2.291,7.018,4.659,14.276,7.252,21.75a34.217,34.217,0,0,1,8.3,4.572,11.8,11.8,0,0,1,4.636,8.239,10.408,10.408,0,0,1-3.474,7.96,15.465,15.465,0,0,1-7.965,3.689,14.9,14.9,0,0,1-2.486.217M371.094,317.8a11.044,11.044,0,0,1,3.5,2.009.226.226,0,0,1,.068.1c1.992,6.234,4.124,12.541,6.186,18.639l.016.046a.225.225,0,0,1-.024.193,21.693,21.693,0,0,0-3.144,14.465,9.314,9.314,0,0,0,2.623,5.846c2.362,2.112,5.914,1.881,7.821,1.554a15.011,15.011,0,0,0,7.736-3.576,9.952,9.952,0,0,0,3.332-7.609,11.353,11.353,0,0,0-4.473-7.914,34.216,34.216,0,0,0-8.289-4.547.226.226,0,0,1-.122-.132c-2.587-7.456-4.95-14.692-7.236-21.692-2.844,1.022-5.461,1.838-7.989,2.615" transform="translate(-215.628 -183.328)" fill="#fff1eb"/>
        <path id="Trazado_136698" data-name="Trazado 136698" d="M376.349,308.78c.39,1,.669,2.157,1.059,3.153.046.117.161.5.161.5s.414-.141.591-.191c1.285-.365,2.569-.9,3.853-1.261l-1.022-2.692a.786.786,0,0,0-.276-.417.961.961,0,0,0-.689-.038,23.366,23.366,0,0,0-3.679.948" transform="translate(-219.26 -179.316)" fill="#d68976"/>
        <path id="Trazado_136699" data-name="Trazado 136699" d="M379.7,317.853c1.123-.349,2.935-.963,4.4-1.46.419,1.081,1.016,2.557,1.337,3.735a1.222,1.222,0,0,1,.028.794,1.273,1.273,0,0,1-.79.574l-1.648.624c-1.238.469-1.67-.25-1.807-.549a38.933,38.933,0,0,1-1.52-3.719" transform="translate(-221.211 -184.33)" fill="#d68976"/>
        <path id="Trazado_136700" data-name="Trazado 136700" d="M394.46,397.066a4.681,4.681,0,0,0-.8,3.99,5.5,5.5,0,0,0,2.118,3.3,4.389,4.389,0,0,0,3.813.644,3.661,3.661,0,0,0,2.489-2.875,1.547,1.547,0,0,0-.361-1.366,2.787,2.787,0,0,0-1.566-.413,3.079,3.079,0,0,1-1.889-.978,8.1,8.1,0,0,1-.9-1.486,2.732,2.732,0,0,0-1.171-1.244,1.5,1.5,0,0,0-1.736.431" transform="translate(-229.268 -231.01)" fill="#eb9963"/>
        <path id="Trazado_136701" data-name="Trazado 136701" d="M401.378,379.019c-.7.311-1.483.708-1.691,1.446a1.573,1.573,0,0,0,1.458,1.841,2.2,2.2,0,0,0,2.046-1.473,1.641,1.641,0,0,0-.136-1.592,1.486,1.486,0,0,0-1.677-.222" transform="translate(-232.832 -220.726)" fill="#eb9963"/>
        <path id="Trazado_136702" data-name="Trazado 136702" d="M420.262,383.57a2.327,2.327,0,0,0-2,.8,1.579,1.579,0,0,0,.08,2.048c.513.48,1.3.473,1.944.758a2.288,2.288,0,0,1,1.322,2.152c-.059,1.163-1.01,2.306-.56,3.381a1.8,1.8,0,0,0,2.125.887,3.237,3.237,0,0,0,1.844-1.613,5.576,5.576,0,0,0,.156-5.09,5.709,5.709,0,0,0-4.906-3.325" transform="translate(-243.48 -223.464)" fill="#eb9963"/>
        <path id="Trazado_136703" data-name="Trazado 136703" d="M412.182,395.144a2.314,2.314,0,0,0-.679.636.79.79,0,0,0-.006.879.768.768,0,0,0,.545.26.988.988,0,0,0,.885-.4.8.8,0,0,0-.034-.946c-.222-.257-.655-.31-.71-.428" transform="translate(-239.661 -230.21)" fill="#eb9963"/>
        <path id="Trazado_136704" data-name="Trazado 136704" d="M421.02,412.961a.564.564,0,0,0-.255.645.54.54,0,0,0,.591.353.519.519,0,0,0,.407-.548c-.03-.249-.279-.452-.743-.45" transform="translate(-245.123 -240.59)" fill="#eb9963"/>
        <path id="Trazado_136705" data-name="Trazado 136705" d="M418.679,379.74a3.719,3.719,0,0,0-1.169-1.538,3.55,3.55,0,0,0-1.046-.756,5.052,5.052,0,0,0-1.048-.327,2.038,2.038,0,0,0-1.38-.106c-1.012.429-.64,1.836.047,2.409a9.514,9.514,0,0,0,1.322,1.048,3.676,3.676,0,0,0,1.015.671,3.152,3.152,0,0,0,1.451.11,1.223,1.223,0,0,0,.809-1.511" transform="translate(-240.854 -219.598)" fill="#fff"/>
        <path id="Trazado_136706" data-name="Trazado 136706" d="M429.947,388.961a.889.889,0,0,0,0,1.777.889.889,0,0,0,0-1.777" transform="translate(-249.977 -226.608)" fill="#fff"/>
        <path id="Trazado_136707" data-name="Trazado 136707" d="M403.6,414.387a1.294,1.294,0,0,0-.576-.13c-.054-.008-.109-.013-.163-.019l-.018,0-.06-.019c-.426-.212-.826-.592-1.325-.447a.9.9,0,0,0-.212,1.625,3.56,3.56,0,0,0,1.458.6h.015c1.077.331,1.854-.931.881-1.61" transform="translate(-233.518 -241.042)" fill="#fff"/>
        <path id="Trazado_136708" data-name="Trazado 136708" d="M396.5,326.567a20.963,20.963,0,0,1,5.479-1.285,5.033,5.033,0,0,1,2.814.336,3.507,3.507,0,0,1,1.566,3.876,5.746,5.746,0,0,1-2.733,3.427,17.064,17.064,0,0,1-4.186,1.618l.328,1.929c15.036-2.946,9.614-18.978-4.008-12.091Z" transform="translate(-230.566 -187.989)" fill="#fff1eb"/>
        <path id="Trazado_136709" data-name="Trazado 136709" d="M8.135,307.163c4.545,9.373,11.729,13.547,23.3,22.778a13.286,13.286,0,0,0,2.331,8.122c.531,2.2,1.042,6.966,4.338,5.794a1.585,1.585,0,0,0,2.724.809c.761,1.958,3.471,1.141,3.663-.736l.524,1.565c3.8,1.546,2.829-4.059,3.462-6.136.66.854,2.03,1.838,2.971.866.839-2.589-2.58-4.994-3.861-7.142-1.291-6.7-12.366-10.627-15.019-17.572-1.947-3.247-3.423-6.75-5.059-9.773-3.407-8.948-18.234-8.157-19.371,1.425" transform="translate(-4.739 -174.475)" fill="#ff9b85"/>
        <path id="Trazado_136710" data-name="Trazado 136710" d="M261.1,314.052c-5.19,9.032-13.536,12.693-25.723,21.091a13.286,13.286,0,0,1-2.893,7.939c-.683,2.154-1.527,6.876-4.733,5.475a1.586,1.586,0,0,1-2.774.616c-.9,1.9-3.541.9-3.6-.991l-.632,1.525c-3.9,1.276-2.538-4.247-3.024-6.363-.718.806-2.154,1.692-3.024.656-.656-2.641,2.923-4.8,4.352-6.854,1.756-6.588,13.079-9.735,16.212-16.477,2.169-3.1,6.206-9.3,8.05-12.2,1.543-4.821,17.33-4.059,17.793,5.579" transform="translate(-125.035 -178.028)" fill="#ff9b85"/>
        <path id="Trazado_136711" data-name="Trazado 136711" d="M146.235,422.123c-14.161-3.379-46.114-6.31-69.553,1.457a2.594,2.594,0,0,0-1.61,3.326c7.933,22.669,22.591,27.8,36.911,27.792,18.687-.009,34.568-10.139,36.24-29.818a2.6,2.6,0,0,0-1.988-2.757" transform="translate(-43.651 -243.907)" fill="#fff"/>
        <path id="Trazado_136712" data-name="Trazado 136712" d="M103.713,396.854c4.521,4.112,9.23,8.017,14.25,11.834a7.589,7.589,0,0,0,5.722,5.306,2.047,2.047,0,0,1-.412-.947.7.7,0,0,1,.546-.769,1.371,1.371,0,0,0-.418-1.578c-.165-.126-.379-.24-.41-.446-.041-.276.318-.472.585-.387a1.262,1.262,0,0,1,.6.565,11.416,11.416,0,0,0-5.561-3.347,163.9,163.9,0,0,0-14.592-12.648,13.922,13.922,0,0,1-.306,2.417" transform="translate(-60.423 -229.798)" fill="#d67272"/>
        <path id="Trazado_136713" data-name="Trazado 136713" d="M194.961,396.854c-4.521,4.112-9.23,8.017-14.25,11.834a7.589,7.589,0,0,1-5.722,5.306,2.047,2.047,0,0,0,.412-.947.7.7,0,0,0-.546-.769,1.371,1.371,0,0,1,.418-1.578c.165-.126.379-.24.41-.446.041-.276-.318-.472-.584-.387a1.261,1.261,0,0,0-.6.565,11.416,11.416,0,0,1,5.561-3.347,163.961,163.961,0,0,1,14.592-12.648,13.921,13.921,0,0,0,.306,2.417" transform="translate(-101.665 -229.798)" fill="#d67272"/>
        <path id="Trazado_136714" data-name="Trazado 136714" d="M117.583,432.412a1.528,1.528,0,0,0-1.7-.736,4.467,4.467,0,0,0-1.752.944l-1.991,1.5a3.162,3.162,0,0,0-4.4-.084l.882.388a9.187,9.187,0,0,0-2.457-1.723,3.111,3.111,0,0,0-2.891.133,1.909,1.909,0,0,0-.559,2.627,3.1,3.1,0,0,0,2,.872l4.76.813c1.648.281,3.3.562,4.952.788a72.083,72.083,0,0,0,9.81.665c1.325,0,2.983-.283,3.343-1.558a2.151,2.151,0,0,0-.962-2.214,6.306,6.306,0,0,0-2.407-.859c-2.459-.514-4.918-1.028-6.622-1.553" transform="translate(-59.654 -251.475)" fill="#8fbfab"/>
        <path id="Trazado_136715" data-name="Trazado 136715" d="M167.461,430.193c.272-.942-.325-2.158.388-2.831a.985.985,0,0,1,1.571,1.126,5.448,5.448,0,0,1,2.58-3.016c.533-.254,1.281-.334,1.615.152a1.307,1.307,0,0,1-.262,1.46,3.076,3.076,0,0,0-.807,1.344,2.283,2.283,0,0,0,2.14-.087,5.145,5.145,0,0,1,2.1-.7c.745.014,1.534.71,1.3,1.416a1.635,1.635,0,0,1-.767.784,12.915,12.915,0,0,1-8.614,1.748,1.478,1.478,0,0,1-.8-.3,2.544,2.544,0,0,1-.445-1.1" transform="translate(-97.563 -247.761)" fill="#8fbfab"/>
        <path id="Trazado_136716" data-name="Trazado 136716" d="M186.076,434.882a36.561,36.561,0,0,0,21.259-4.225l-1.7-1.067a6.867,6.867,0,0,1,2.97-2.1,3.518,3.518,0,0,0-3.954-.743,10.3,10.3,0,0,0-3.4,2.59q-.223-.9-.445-1.809a2.894,2.894,0,0,0-1.453,1.193,3.536,3.536,0,0,0-5.709,3.932l-2.41.58a1.519,1.519,0,0,0-1.137-1.853,2.474,2.474,0,0,0-2.227.756,13.965,13.965,0,0,0-1.8,2.749" transform="translate(-108.408 -248.454)" fill="#8fbfab"/>
        <path id="Trazado_136717" data-name="Trazado 136717" d="M89.068,434.753a6.178,6.178,0,0,0-1.744-.245,3.2,3.2,0,0,1-1.679-.472,1.3,1.3,0,0,1-.512-1.543.831.831,0,0,1,1.415-.1,1.291,1.291,0,0,1,.512-1.76,1.739,1.739,0,0,1,1.915.3,2.712,2.712,0,0,1,.826,1.836,2.321,2.321,0,0,1-.732,1.989" transform="translate(-49.542 -250.785)" fill="#8fbfab"/>
        <path id="Trazado_136718" data-name="Trazado 136718" d="M117.49,430.751a2.236,2.236,0,0,1,.27-2.175,3.683,3.683,0,0,1,1.852-1.291,2.683,2.683,0,0,1,2.479.189,2.494,2.494,0,0,1,.8,1.256,2.769,2.769,0,0,1-.024,1.939,2.719,2.719,0,0,1-2.465,1.424,2.827,2.827,0,0,1-2.911-1.341" transform="translate(-68.349 -248.813)" fill="#f04f5f"/>
        <path id="Trazado_136719" data-name="Trazado 136719" d="M98.882,434.79a31.832,31.832,0,0,1-3.812-.4,2.3,2.3,0,0,1-1.029-.354,1.417,1.417,0,0,1-.165-1.94,1.992,1.992,0,0,1,1.965-.614,1.145,1.145,0,0,1,.013-1.584,1.523,1.523,0,0,1,1.644-.271,2.311,2.311,0,0,1,1.178,1.26c.229.543.3,1.14.206,3.909" transform="translate(-54.514 -250.223)" fill="#f04f5f"/>
        <path id="Trazado_136720" data-name="Trazado 136720" d="M136.485,442.559a2.772,2.772,0,1,1,5.341.713,36.927,36.927,0,0,1-5.341-.713" transform="translate(-79.508 -256.056)" fill="#f04f5f"/>
        <path id="Trazado_136721" data-name="Trazado 136721" d="M104.5,437.4a3.68,3.68,0,0,1,4.763,2.83L104.6,439.3a5.945,5.945,0,0,1-.1-1.9" transform="translate(-60.853 -254.727)" fill="#f04f5f"/>
        <path id="Trazado_136722" data-name="Trazado 136722" d="M160.923,433.36a2.945,2.945,0,0,0-4.756.718,14.392,14.392,0,0,0-.667,2.991c-.254.993-1.055,2.025-2.072,1.9a79.635,79.635,0,0,0,17.873-.55,3.751,3.751,0,0,0-2.332-3.307,11.277,11.277,0,0,0-4.194-.765c-1.428-.079-2.989-.086-3.852-.985" transform="translate(-89.388 -251.948)" fill="#f04f5f"/>
        <path id="Trazado_136723" data-name="Trazado 136723" d="M215.984,436.557a2.927,2.927,0,0,0-3.794,3.651,28.991,28.991,0,0,0,4.477-.9c.5-.142,1.066-.369,1.2-.869a1.069,1.069,0,0,0-.554-1.125,6.455,6.455,0,0,0-1.332-.756" transform="translate(-123.542 -254.238)" fill="#f04f5f"/>
        <path id="Trazado_136724" data-name="Trazado 136724" d="M203.277,428.5a2.41,2.41,0,0,0-4.7.435,1.309,1.309,0,0,0-1.478.409,2.862,2.862,0,0,0-.579,1.516,2.673,2.673,0,0,0,.432,2.14,2,2,0,0,0,1.469.621,3.692,3.692,0,0,0,1.582-.387c1.589-.731,4.048-2.216,3.272-4.733" transform="translate(-114.467 -248.655)" fill="#f04f5f"/>
        <path id="Trazado_136725" data-name="Trazado 136725" d="M127.983,439.319a2.173,2.173,0,0,1,2.563-2.561,3.974,3.974,0,0,0,.14,1.16,1.316,1.316,0,0,1-.209,1.114,1.355,1.355,0,0,1-.517.315,2.236,2.236,0,0,1-1.978-.028" transform="translate(-74.539 -254.43)" fill="#ffb987"/>
        <path id="Trazado_136726" data-name="Trazado 136726" d="M153.15,429.455a5.543,5.543,0,0,0-1.094,1.552,2.309,2.309,0,0,0-.042,1.852,1.478,1.478,0,0,0,1.545.864,2.124,2.124,0,0,0,1.349-1.389,2.918,2.918,0,0,0,.238-2.025,1.5,1.5,0,0,0-2-.854" transform="translate(-88.461 -250.142)" fill="#ffb987"/>
        <path id="Trazado_136727" data-name="Trazado 136727" d="M104.611,431.366a.98.98,0,0,1,.858-.909,1.46,1.46,0,0,1,1.22.489,2.97,2.97,0,0,1,.629,1.2,1,1,0,0,1-.078.97.891.891,0,0,1-.855.151,2.113,2.113,0,0,1-1.774-1.9" transform="translate(-60.946 -250.777)" fill="#ffb987"/>
        <path id="Trazado_136728" data-name="Trazado 136728" d="M204.183,442.392a2.73,2.73,0,0,0-3.04.032c-.322.23-.608.665-.391,1a.854.854,0,0,0,.629.3,5.654,5.654,0,0,0,2.4-.2,1.253,1.253,0,0,0,.713-.438c.157-.237.043-.448-.312-.69" transform="translate(-116.914 -257.477)" fill="#ffb987"/>
        <path id="Trazado_136729" data-name="Trazado 136729" d="M192.686,430.747a3.3,3.3,0,0,0-2.7-.636,4.341,4.341,0,0,0-2.409,1.451,1.823,1.823,0,0,0-.551,1.362,1.642,1.642,0,0,0,1,1.166,3.162,3.162,0,0,0,2.9-.115c.87-.5,1.465-1.453,1.762-3.229" transform="translate(-108.956 -250.545)" fill="#ffb987"/>
        <path id="Trazado_136730" data-name="Trazado 136730" d="M104.316,387.813a.225.225,0,0,1-.217-.168,31.939,31.939,0,0,1-.894-5.168.224.224,0,0,1,.2-.243.231.231,0,0,1,.243.2,31.522,31.522,0,0,0,.881,5.1.224.224,0,0,1-.161.273.217.217,0,0,1-.056.007" transform="translate(-60.127 -222.688)" fill="#fa453e"/>
        <path id="Trazado_136731" data-name="Trazado 136731" d="M95.86,398.617h-.014a.224.224,0,0,1-.21-.237l.351-5.716a.224.224,0,0,1,.447.027l-.351,5.716a.224.224,0,0,1-.224.211" transform="translate(-55.717 -228.642)" fill="#fa453e"/>
        <path id="Trazado_136732" data-name="Trazado 136732" d="M87.4,399h-.01a.225.225,0,0,1-.215-.234l.247-5.619a.231.231,0,0,1,.234-.215.225.225,0,0,1,.215.234l-.247,5.619A.225.225,0,0,1,87.4,399" transform="translate(-50.789 -228.921)" fill="#fa453e"/>
        <path id="Trazado_136733" data-name="Trazado 136733" d="M79.135,398.561a.225.225,0,0,1-.224-.215L78.7,393.53a.225.225,0,0,1,.215-.234.227.227,0,0,1,.234.215l.206,4.816a.225.225,0,0,1-.215.234Z" transform="translate(-45.853 -229.134)" fill="#fa453e"/>
        <path id="Trazado_136734" data-name="Trazado 136734" d="M221.954,387.721a.194.194,0,0,1-.044,0,.223.223,0,0,1-.176-.263l.968-4.924a.22.22,0,0,1,.263-.177.224.224,0,0,1,.177.263l-.968,4.924a.224.224,0,0,1-.22.181" transform="translate(-129.179 -222.755)" fill="#fa453e"/>
        <path id="Trazado_136735" data-name="Trazado 136735" d="M230.636,400.586h-.006a.225.225,0,0,1-.218-.23l.124-4.722a.232.232,0,0,1,.23-.218.224.224,0,0,1,.218.23l-.124,4.723a.224.224,0,0,1-.224.218" transform="translate(-134.238 -230.369)" fill="#fa453e"/>
        <path id="Trazado_136736" data-name="Trazado 136736" d="M238.963,401.886h-.005a.224.224,0,0,1-.219-.229l.126-5.706a.233.233,0,0,1,.229-.219.224.224,0,0,1,.22.229l-.126,5.707a.224.224,0,0,1-.224.219" transform="translate(-139.089 -230.552)" fill="#fa453e"/>
        <path id="Trazado_136737" data-name="Trazado 136737" d="M246.8,401.506l-.032,0a.224.224,0,0,1-.19-.254l.691-4.849a.227.227,0,0,1,.254-.19.224.224,0,0,1,.19.253l-.691,4.85a.225.225,0,0,1-.222.192" transform="translate(-143.654 -230.83)" fill="#fa453e"/>
        <path id="Trazado_136738" data-name="Trazado 136738" d="M126.33,32.048a4.388,4.388,0,0,0-.5-3.457,13.312,13.312,0,0,1-1.473-3.269c-.573-2.9,1.819-5.827,1.5-8.28-.49-3.783,1.505-7.566,4.371-10.082S136.735,3,140.365,1.825C144.223.576,148.3-.429,152.307.186s7.948,3.195,8.5,7.414a5.742,5.742,0,0,1,4.458,1.76,11.5,11.5,0,0,1,2.532,4.208,23.9,23.9,0,0,1-2.34,21.246l-35.2,3.433Z" transform="translate(-72.399 0)" fill="#a85454"/>
        <path id="Trazado_136739" data-name="Trazado 136739" d="M161.151,40.474a16.023,16.023,0,0,1-5.071,8.558,15.557,15.557,0,0,1-9.891,3.763,16.265,16.265,0,0,1-5.667,5.2c-2.33,1.129-5.3,1.233-7.069-.424a2.57,2.57,0,0,1-3.363-1.721,17.053,17.053,0,0,0,.745,5.531,5.961,5.961,0,0,0,3.859,3.833c.607,3.336,1.657,7.019,3.813,9.553,1.074,5.9,2.2,11.933,5.206,17.118a26.822,26.822,0,0,0,6.4,7.415,64.663,64.663,0,0,1,9.39-10.753,66.291,66.291,0,0,0,3.331-14.457c2.126-2.87,2.885-5.589,3.932-9.063,3.6-2.793,3.7-6.824,3.512-10.2a1.693,1.693,0,0,0-.632-1.465,1.21,1.21,0,0,0-1.472.448,3.53,3.53,0,0,0-.521,1.58c-.862-.282-.674-1.53-.9-2.409a5.028,5.028,0,0,0-1.649-2.131c-2.506-2.423-3.832-6.014-3.949-10.372" transform="translate(-75.79 -23.58)" fill="#ff9b85"/>
        <path id="Trazado_136740" data-name="Trazado 136740" d="M161.778,131.991a6.708,6.708,0,0,1-1.97-.286A11.005,11.005,0,0,1,155.7,129a33.336,33.336,0,0,1-5.541-6.792.224.224,0,1,1,.37-.253v0A32.984,32.984,0,0,0,156,128.674a10.612,10.612,0,0,0,3.936,2.6,7.38,7.38,0,0,0,4.991-.4,14.531,14.531,0,0,0,4.244-2.936,22.874,22.874,0,0,0,5.027-6.614.224.224,0,0,1,.395.213,23.574,23.574,0,0,1-5.116,6.729,14.984,14.984,0,0,1-4.376,3.022,8.6,8.6,0,0,1-3.327.705" transform="translate(-87.458 -70.614)" fill="#fa453e"/>
        <path id="Trazado_136741" data-name="Trazado 136741" d="M170.726,102.949a.225.225,0,0,1-.165-.073,7.232,7.232,0,0,0-1.923-1.49.225.225,0,0,1-.113-.25l.02-.085a22.114,22.114,0,0,0,.927-6.681,6.964,6.964,0,0,0-2.949-5.526.224.224,0,0,1,.235-.382,7.409,7.409,0,0,1,3.161,5.875,22.159,22.159,0,0,1-.919,6.737,7.648,7.648,0,0,1,1.89,1.5.224.224,0,0,1-.165.376" transform="translate(-96.954 -51.519)" fill="#fa453e"/>
        <path id="Trazado_136742" data-name="Trazado 136742" d="M172.107,127.691h-.04a6.309,6.309,0,0,1-4.241-1.7.224.224,0,0,1,.307-.326,5.858,5.858,0,0,0,3.937,1.578h.038a5.859,5.859,0,0,0,3.921-1.525.224.224,0,1,1,.3.33,6.31,6.31,0,0,1-4.224,1.644" transform="translate(-97.734 -73.176)" fill="#fa453e"/>
        <path id="Trazado_136743" data-name="Trazado 136743" d="M189.171,95.559a2.925,2.925,0,0,1-1.242-.263,5.085,5.085,0,0,1-.755-.466,5.075,5.075,0,0,0-.621-.395,1.128,1.128,0,0,0-1.254.025.224.224,0,0,1-.314-.321,1.563,1.563,0,0,1,1.771-.1,5.571,5.571,0,0,1,.676.428,4.575,4.575,0,0,0,.687.427,3.033,3.033,0,0,0,2.345-.038,9.457,9.457,0,0,0,2.149-1.323.224.224,0,0,1,.268.36,9.806,9.806,0,0,1-2.254,1.381,4.044,4.044,0,0,1-1.456.289" transform="translate(-107.733 -54.464)" fill="#a85454"/>
        <path id="Trazado_136744" data-name="Trazado 136744" d="M193.187,84.1a.442.442,0,0,1-.167-.032,12.3,12.3,0,0,0-9.03-.007.448.448,0,1,1-.332-.833,13.2,13.2,0,0,1,9.7.007.448.448,0,0,1-.167.865" transform="translate(-106.834 -47.952)" fill="#a85454"/>
        <path id="Trazado_136745" data-name="Trazado 136745" d="M155.672,84.471a.447.447,0,0,1-.18-.038,16.376,16.376,0,0,0-6.012-1.367.448.448,0,0,1-.433-.462.456.456,0,0,1,.462-.433,17.279,17.279,0,0,1,6.345,1.443.448.448,0,0,1-.181.859" transform="translate(-86.834 -47.872)" fill="#a85454"/>
        <path id="Trazado_136746" data-name="Trazado 136746" d="M152.257,95.821a3.887,3.887,0,0,1-1.2-.195,8.941,8.941,0,0,1-2.613-1.6.224.224,0,1,1,.277-.353A8.484,8.484,0,0,0,151.2,95.2a2.731,2.731,0,0,0,2.62-.361,4.039,4.039,0,0,0,.29-.29,2.6,2.6,0,0,1,.629-.54,1.106,1.106,0,0,1,.9-.069.716.716,0,0,1,.433.438.224.224,0,1,1-.425.143.27.27,0,0,0-.171-.163.664.664,0,0,0-.524.043,2.239,2.239,0,0,0-.518.454c-.1.111-.208.221-.321.321a2.765,2.765,0,0,1-1.855.644" transform="translate(-86.433 -54.548)" fill="#a85454"/>
        <path id="Trazado_136747" data-name="Trazado 136747" d="M218.367,84.609l-.036,0a.225.225,0,0,1-.186-.257l1.483-9.294a.224.224,0,1,1,.443.071l-1.482,9.294a.225.225,0,0,1-.221.189" transform="translate(-127.089 -43.617)" fill="#fa453e"/>
        <path id="Trazado_136748" data-name="Trazado 136748" d="M138.012,86.523a.224.224,0,0,1-.219-.179l-1.06-5.108a.224.224,0,0,1,.439-.091l1.061,5.108a.223.223,0,0,1-.174.265.189.189,0,0,1-.046.005" transform="translate(-79.657 -47.171)" fill="#fa453e"/>
        <path id="Trazado_136749" data-name="Trazado 136749" d="M436.056,80.365C422.421,87.809,417,89.651,417,89.651s.1.477.221,1.251a29.386,29.386,0,0,1-.044,8.883,17.813,17.813,0,0,0,.528,7.067,48.491,48.491,0,0,0,3.6,8.773,8.375,8.375,0,0,0,2.618,3.558c2.165,1.409,5.024.548,7.719-.213a6.648,6.648,0,0,1,.41,2.751,2.267,2.267,0,0,1-1.682,2,20.933,20.933,0,0,1-2.261.164c.274,4.847,1.009,11.1,4.237,14.723a7.4,7.4,0,0,1,1.919,2.639c.389,1.365-.2,3.141,1.6,3.808,2.2-3.968,7.631-4.776,10.8-8.018,1.889-1.929,2.827-4.563,4.127-6.93a11.121,11.121,0,0,1,6.27-5.605,11.035,11.035,0,0,1-9.317-9.069,68.662,68.662,0,0,1-.688-10.985,26.492,26.492,0,0,0,1.327-2.512,9.229,9.229,0,0,1-2.792-7.741l-1.534,1.6a9.147,9.147,0,0,1-1.259-7.436c-4.818,0-8.4-4.4-6.756-7.994" transform="translate(-242.943 -46.821)" fill="#ff9b85"/>
        <path id="Trazado_136750" data-name="Trazado 136750" d="M431.561,150.093c.705-.991,1.561-1.035,2.722-.49a3.986,3.986,0,0,1,4.474-.26c-.545,3.106-6.738,4.723-7.2.75" transform="translate(-251.427 -86.673)" fill="#ff836e"/>
        <path id="Trazado_136751" data-name="Trazado 136751" d="M452.057,157.489a.224.224,0,0,1-.1-.427c2.794-1.324,5.96-2.825,8.2-5.248a12.766,12.766,0,0,0,2.886-5.143.224.224,0,1,1,.431.122,13.2,13.2,0,0,1-2.987,5.325c-2.3,2.487-5.506,4.008-8.336,5.35a.231.231,0,0,1-.1.021" transform="translate(-263.237 -85.355)" fill="#fa453e"/>
        <path id="Trazado_136752" data-name="Trazado 136752" d="M483.313,122.9a.206.206,0,0,1-.057-.008.223.223,0,0,1-.16-.273l.8-3.048a.224.224,0,1,1,.433.114l-.8,3.048a.224.224,0,0,1-.217.167" transform="translate(-281.447 -69.567)" fill="#fa453e"/>
        <path id="Trazado_136753" data-name="Trazado 136753" d="M485.323,127.651a.219.219,0,0,1-.1-.025.223.223,0,0,1-.1-.3,4.649,4.649,0,0,0,.518-2.215.224.224,0,0,1,.22-.228.227.227,0,0,1,.228.22,5.1,5.1,0,0,1-.567,2.429.224.224,0,0,1-.2.121" transform="translate(-282.618 -72.755)" fill="#fa453e"/>
        <path id="Trazado_136754" data-name="Trazado 136754" d="M483.188,138.813a2.177,2.177,0,0,1-.955-.217.224.224,0,0,1,.2-.4,1.754,1.754,0,0,0,1.563-.023.224.224,0,1,1,.208.4,2.189,2.189,0,0,1-1.013.245" transform="translate(-280.875 -80.483)" fill="#fa453e"/>
        <path id="Trazado_136755" data-name="Trazado 136755" d="M449.93,197.726l-.028,0a7.016,7.016,0,0,1-4.143-2.074.224.224,0,0,1,.322-.312,6.566,6.566,0,0,0,3.876,1.94.224.224,0,0,1-.028.447" transform="translate(-259.662 -113.764)" fill="#fa453e"/>
        <path id="Trazado_136756" data-name="Trazado 136756" d="M453.733,183.6a.225.225,0,0,1-.214-.156,15.424,15.424,0,0,1-.7-3.83.224.224,0,0,1,.212-.236.213.213,0,0,1,.236.212,14.976,14.976,0,0,0,.68,3.719.224.224,0,0,1-.146.282.229.229,0,0,1-.068.01" transform="translate(-263.812 -104.506)" fill="#fa453e"/>
        <path id="Trazado_136757" data-name="Trazado 136757" d="M431.042,126.277a.226.226,0,0,1-.114-.031l-2.615-1.54a.225.225,0,0,1-.1-.263,25.96,25.96,0,0,1,1.074-2.613,22.146,22.146,0,0,0,1.171-2.942c.638-2.2.327-4.235-.831-5.443a.224.224,0,0,1,.324-.31c1.271,1.325,1.621,3.523.938,5.879a22.5,22.5,0,0,1-1.194,3c-.354.778-.718,1.58-1,2.4l2.458,1.448a.224.224,0,0,1-.114.417" transform="translate(-249.47 -65.872)" fill="#fa453e"/>
        <path id="Trazado_136758" data-name="Trazado 136758" d="M436.754,142.032a.224.224,0,0,1-.1-.026l-1.513-.793a.225.225,0,0,1,.209-.4l1.513.794a.224.224,0,0,1-.1.422" transform="translate(-253.44 -82.025)" fill="#fa453e"/>
        <path id="Trazado_136759" data-name="Trazado 136759" d="M433.282,151.028a4.86,4.86,0,0,1-2.916-.881.224.224,0,0,1,.268-.36,4.854,4.854,0,0,0,3.813.679,14.954,14.954,0,0,0,3.812-1.5.224.224,0,0,1,.2.4,15.27,15.27,0,0,1-3.928,1.543,6.613,6.613,0,0,1-1.25.122" transform="translate(-250.678 -86.772)" fill="#fa453e"/>
        <path id="Trazado_136760" data-name="Trazado 136760" d="M446.538,118.506a2.43,2.43,0,0,0,1.46,2.335,3.448,3.448,0,0,0,2.847-.119,6.066,6.066,0,0,0,2.193-1.915c-.748-.426-1.417-.978-2.161-1.411a3.961,3.961,0,0,0-2.453-.639,2.094,2.094,0,0,0-1.885,1.748" transform="translate(-260.147 -68.01)" fill="#fff"/>
        <path id="Trazado_136761" data-name="Trazado 136761" d="M447.721,117.68a2.951,2.951,0,0,0,.033,2.128,2.639,2.639,0,0,0,1.325,1.64,1.288,1.288,0,0,0,1.6-1.314c.257-2.581-1.846-3.907-2.956-2.453" transform="translate(-260.734 -68.21)" fill="#473e57"/>
        <path id="Trazado_136762" data-name="Trazado 136762" d="M445.29,119.083a.225.225,0,0,1-.208-.307,3.767,3.767,0,0,1,2.1-2.346c1.875-.48,4.167,1.167,5.367,2.192a.224.224,0,0,1-.29.341c-.913-.779-3.222-2.542-4.966-2.1a3.394,3.394,0,0,0-1.8,2.078.224.224,0,0,1-.208.141" transform="translate(-259.295 -67.782)" fill="#b04a46"/>
        <path id="Trazado_136763" data-name="Trazado 136763" d="M419.784,118.787a2.389,2.389,0,0,0,1.282,2.266,2.768,2.768,0,0,0,2.5-.115,5.523,5.523,0,0,0,1.926-1.857c-.657-.413-1.245-.948-1.9-1.369a3.234,3.234,0,0,0-2.154-.62,1.924,1.924,0,0,0-1.656,1.7" transform="translate(-244.561 -68.205)" fill="#fff"/>
        <path id="Trazado_136764" data-name="Trazado 136764" d="M420.823,117.987a3.142,3.142,0,0,0,.029,2.064,2.514,2.514,0,0,0,1.163,1.59c.452.162,1.3-.07,1.4-1.275.225-2.5-1.621-3.791-2.6-2.38" transform="translate(-245.077 -68.399)" fill="#473e57"/>
        <path id="Trazado_136765" data-name="Trazado 136765" d="M418.651,119.346a.208.208,0,0,1-.076-.014.223.223,0,0,1-.135-.287,3.547,3.547,0,0,1,1.863-2.285c1.667-.47,3.692,1.135,4.752,2.135a.224.224,0,1,1-.307.326c-.8-.752-2.811-2.455-4.323-2.029a3.185,3.185,0,0,0-1.563,2.006.224.224,0,0,1-.211.148" transform="translate(-243.775 -67.975)" fill="#b04a46"/>
        <path id="Trazado_136766" data-name="Trazado 136766" d="M450.191,108.637a.225.225,0,0,1-.128-.04,8.238,8.238,0,0,0-8.369-.511.224.224,0,1,1-.209-.4,8.7,8.7,0,0,1,8.834.54.224.224,0,0,1-.128.408" transform="translate(-257.139 -62.184)" fill="#473e57"/>
        <path id="Trazado_136767" data-name="Trazado 136767" d="M416.855,109.138a.224.224,0,0,1-.133-.4,4.95,4.95,0,0,1,5.7-.01.224.224,0,1,1-.263.362,4.491,4.491,0,0,0-5.175.01.226.226,0,0,1-.133.043" transform="translate(-242.729 -62.818)" fill="#473e57"/>
        <path id="Trazado_136768" data-name="Trazado 136768" d="M476.348,200.136a.224.224,0,0,1-.01-.448,38.905,38.905,0,0,0,7.85-1.183.224.224,0,1,1,.112.434,39.334,39.334,0,0,1-7.941,1.2h-.01" transform="translate(-277.389 -115.644)" fill="#fa453e"/>
        <path id="Trazado_136769" data-name="Trazado 136769" d="M455.593,287.029a148.056,148.056,0,0,1,0,19.954c-9.349.624-22.046,1.465-28.927-1.423-6.526-2.739-10.405-7.812-15.317-12.622a54.578,54.578,0,0,0-7.58,3.106,2.907,2.907,0,0,0-1.229.892c-.128.192.526,1.794.526,2.794,0,1.2.624,1.23.8,3.226a2.4,2.4,0,0,0,.511,1.547,3.351,3.351,0,0,1,.653.568,2.825,2.825,0,0,1,.263.724c.374,1.135,1.6,1.718,2.423,2.315,2.706,1.957,2.937.7,2.588-1.43,4.6,1.681,7.513,6.158,12.591,5.967,12.217,7.238,28.521,12.648,42.99,10.981a5.261,5.261,0,0,0,4.647-4.614,222.659,222.659,0,0,0,.865-37.6c-5.963,1.882-11.927,3.765-15.8,5.621" transform="translate(-234.51 -163.948)" fill="#ff9b85"/>
        <path id="Trazado_136770" data-name="Trazado 136770" d="M417.459,339.911a.225.225,0,0,1-.185-.1,9.162,9.162,0,0,0-1.662-1.1c-.167-.1-.3-.175-.388-.227a.224.224,0,0,1,.227-.386c.6.335,1.47.8,2.343,1.274l.143.077a.224.224,0,0,1-.212.395l-.077-.041a.241.241,0,0,1-.061.063.227.227,0,0,1-.128.04" transform="translate(-241.847 -196.963)" fill="#fa453e"/>
        <path id="Trazado_136771" data-name="Trazado 136771" d="M407.823,332.271a.224.224,0,0,1-.216-.285,1.711,1.711,0,0,1,.937-.922l3.4-1.831a.224.224,0,0,1,.213.4l-3.4,1.831c-.319.172-.637.364-.718.649a.225.225,0,0,1-.216.163" transform="translate(-237.467 -191.795)" fill="#fa453e"/>
        <path id="Trazado_136772" data-name="Trazado 136772" d="M404.811,320.8a.225.225,0,0,1-.108-.028.994.994,0,0,1-.49-.739,1.379,1.379,0,0,1,.149-.867,3.051,3.051,0,0,1,1.176-1.042l5.186-3.135a.224.224,0,1,1,.232.384l-5.185,3.135a2.662,2.662,0,0,0-1.015.874.933.933,0,0,0-.1.579.565.565,0,0,0,.263.417.224.224,0,0,1-.108.421" transform="translate(-235.484 -183.492)" fill="#fa453e"/>
        <path id="Trazado_136773" data-name="Trazado 136773" d="M406.337,326.932a.225.225,0,0,1-.212-.153,2.392,2.392,0,0,1,.892-2.483,6.981,6.981,0,0,1,1.959-1.028l.355-.142a4.2,4.2,0,0,0,1.953-1.342.224.224,0,1,1,.371.252,4.587,4.587,0,0,1-2.155,1.5l-.36.144a6.649,6.649,0,0,0-1.837.956,1.948,1.948,0,0,0-.755,2,.224.224,0,0,1-.141.284.213.213,0,0,1-.071.012" transform="translate(-236.553 -187.414)" fill="#fa453e"/>
        <path id="Trazado_136774" data-name="Trazado 136774" d="M536.152,342.547l-.035,0a20.128,20.128,0,0,0-6.263,0,.227.227,0,0,1-.257-.187.224.224,0,0,1,.187-.257,20.619,20.619,0,0,1,6.4,0,.224.224,0,0,1-.035.446" transform="translate(-308.54 -199.162)" fill="#fa453e"/>
        <path id="Trazado_136775" data-name="Trazado 136775" d="M407.133,483.419a4.5,4.5,0,0,0-5.78,1.155,5.365,5.365,0,0,0-.044,6.071,6.671,6.671,0,0,0,5.562,2.779,8.878,8.878,0,0,0,5.833-2.466,6.5,6.5,0,0,0,8.986-.351,2.971,2.971,0,0,0,2.317-1.621,4.266,4.266,0,0,0,.3-2.877,5.45,5.45,0,0,0-8.639-3.144,6.351,6.351,0,0,0-4.84-1.917c-1.787.092-3.517.993-3.7,2.37" transform="translate(-233.267 -280.254)" fill="#f04f5f"/>
        <path id="Trazado_136776" data-name="Trazado 136776" d="M421.988,493.621a.224.224,0,0,1-.192-.34,4.682,4.682,0,0,0-3.4-7.057,1.5,1.5,0,0,0-1.354.346.22.22,0,0,1-.231.078l-.9-.225a.224.224,0,0,1,.109-.435l.765.193a1.95,1.95,0,0,1,1.665-.4,5.131,5.131,0,0,1,3.723,7.733.223.223,0,0,1-.192.109" transform="translate(-242.214 -282.997)" fill="#cc1b23"/>
        <path id="Trazado_136777" data-name="Trazado 136777" d="M438.138,492.737a.224.224,0,0,1-.2-.325,4.914,4.914,0,0,0-8.229-5.281.224.224,0,0,1-.351-.279,5.363,5.363,0,0,1,8.98,5.762.224.224,0,0,1-.2.123" transform="translate(-250.115 -282.461)" fill="#cc1b23"/>
      </g>
    </g>
  </g>
</svg>
