<svg xmlns="http://www.w3.org/2000/svg" xmlns:xlink="http://www.w3.org/1999/xlink" width="325.456" height="253.51" viewBox="0 0 325.456 253.51">
  <defs>
    <clipPath id="clip-path">
      <rect id="Rectángulo_38147" data-name="Rectángulo 38147" width="325.456" height="201.415" fill="none"/>
    </clipPath>
  </defs>
  <g id="_155" data-name="155" transform="translate(-1053.5 -3502.999)">
    <g id="Grupo_157610" data-name="Grupo 157610" transform="translate(793.5 258.32)">
      <g id="Grupo_85023" data-name="Grupo 85023">
        <rect id="Rectángulo_34651" data-name="Rectángulo 34651" width="315" height="170" transform="translate(265 3328.188)" fill="#6b8dff"/>
        <g id="Grupo_84254" data-name="Grupo 84254" transform="translate(267.564 3206.015)">
          <g id="Grupo_84000" data-name="Grupo 84000" transform="translate(12.141 38.664)">
            <path id="Trazado_118280" data-name="Trazado 118280" d="M150.733,260.461q-1.2-.2-2.42-.329c-9.524-1-19.038,1.6-28.608,1.95-17.246.633-34.142-6.148-48.252-16.087S45.68,223.081,34.517,209.919c-12-14.151-24.265-30.864-22.133-49.294,1.554-13.433,10.581-24.753,20.16-34.3,12.117-12.078,25.638-22.591,38.6-33.715,12.9-11.062,23.176-25.694,36.23-36.083,25.318-20.152,64.385-22.921,93.363-9.99,18.593,8.3,33.9,22.359,50.84,33.646,12.12,8.075,25.648,15.244,33.431,27.553,9.43,14.915,8.31,34.063,5.164,51.426-5.324,29.378-16.037,58.687-36.5,80.429s-52.013,34.594-80.929,27.161C165.35,264.852,158.235,261.7,150.733,260.461Z" transform="translate(-12.141 -38.664)" fill="#c4d1ff"/>
          </g>
        </g>
      </g>
    </g>
    <g id="Grupo_159104" data-name="Grupo 159104" transform="translate(1053.5 3529)">
      <g id="Grupo_159103" data-name="Grupo 159103" clip-path="url(#clip-path)">
        <path id="Trazado_136778" data-name="Trazado 136778" d="M424.161,328.017H410.282a.327.327,0,0,1-.327-.327v-17.4a.327.327,0,0,1,.327-.327h13.879a.327.327,0,0,1,.327.327v17.4a.327.327,0,0,1-.327.327m-13.552-.653h13.226V310.619H410.608Z" transform="translate(-256.732 -194.115)" fill="#2f3f4f"/>
        <path id="Trazado_136779" data-name="Trazado 136779" d="M416.824,412.655H379.6V365.4a18.61,18.61,0,0,1,18.61-18.61h0a18.61,18.61,0,0,1,18.61,18.61Z" transform="translate(-237.725 -217.178)" fill="#4663ab"/>
        <path id="Trazado_136780" data-name="Trazado 136780" d="M387.789,525.978a2.969,2.969,0,1,0-2.968,2.968,2.969,2.969,0,0,0,2.968-2.968" transform="translate(-239.133 -327.532)" fill="#2f3f4f"/>
        <path id="Trazado_136781" data-name="Trazado 136781" d="M461.054,525.978a2.969,2.969,0,1,1,2.968,2.968,2.968,2.968,0,0,1-2.968-2.968" transform="translate(-288.733 -327.532)" fill="#2f3f4f"/>
        <path id="Trazado_136782" data-name="Trazado 136782" d="M423.387,309.806h-10.2a1.531,1.531,0,1,1,0-3.061h10.2a1.531,1.531,0,1,1,0,3.061" transform="translate(-257.8 -192.097)" fill="#2f3f4f"/>
        <path id="Trazado_136783" data-name="Trazado 136783" d="M419.834,389.014H401.471a2.007,2.007,0,0,1-2-2V379.48a2.007,2.007,0,0,1,2-2h18.363a2.007,2.007,0,0,1,2,2v7.529a2.007,2.007,0,0,1-2,2m-18.363-10.885a1.354,1.354,0,0,0-1.352,1.352v7.529a1.354,1.354,0,0,0,1.352,1.352h18.363a1.353,1.353,0,0,0,1.352-1.352V379.48a1.353,1.353,0,0,0-1.352-1.352Z" transform="translate(-250.163 -236.392)" fill="#2f3f4f"/>
        <path id="Trazado_136784" data-name="Trazado 136784" d="M47.052,135.291,29.5,167.5H11.41A11.5,11.5,0,0,1,0,155.872c-.013-8.04,2.371-15.238,4.709-22.808q2.077-6.711,4.148-13.422a11.392,11.392,0,0,1,2.253-4.082,10.62,10.62,0,0,1,1.274-1.267,11.413,11.413,0,0,1,7.446-2.75h.895l.81.731,1.515,1.365Z" transform="translate(0 -69.853)" fill="#2f3f4f"/>
        <path id="Trazado_136785" data-name="Trazado 136785" d="M19.582,243.963a1.061,1.061,0,1,0-1.061,1.061,1.061,1.061,0,0,0,1.061-1.061" transform="translate(-10.934 -152.116)" fill="#fff"/>
        <path id="Trazado_136786" data-name="Trazado 136786" d="M45.577,243.963a1.061,1.061,0,1,0-1.061,1.061,1.061,1.061,0,0,0,1.061-1.061" transform="translate(-27.213 -152.116)" fill="#fff"/>
        <path id="Trazado_136787" data-name="Trazado 136787" d="M59.387,230.2a1.061,1.061,0,1,0-1.061,1.061,1.061,1.061,0,0,0,1.061-1.061" transform="translate(-35.861 -143.498)" fill="#fff"/>
        <path id="Trazado_136788" data-name="Trazado 136788" d="M33.125,230.2a1.061,1.061,0,1,0-1.061,1.061,1.061,1.061,0,0,0,1.061-1.061" transform="translate(-19.415 -143.498)" fill="#fff"/>
        <path id="Trazado_136789" data-name="Trazado 136789" d="M8.515,230.2a1.061,1.061,0,1,0-1.061,1.061A1.061,1.061,0,0,0,8.515,230.2" transform="translate(-4.003 -143.498)" fill="#fff"/>
        <path id="Trazado_136790" data-name="Trazado 136790" d="M19.582,214.669a1.061,1.061,0,1,0-1.061,1.061,1.061,1.061,0,0,0,1.061-1.061" transform="translate(-10.934 -133.771)" fill="#fff"/>
        <path id="Trazado_136791" data-name="Trazado 136791" d="M45.577,214.669a1.061,1.061,0,1,0-1.061,1.061,1.061,1.061,0,0,0,1.061-1.061" transform="translate(-27.213 -133.771)" fill="#fff"/>
        <path id="Trazado_136792" data-name="Trazado 136792" d="M59.387,200.907a1.061,1.061,0,1,0-1.061,1.061,1.061,1.061,0,0,0,1.061-1.061" transform="translate(-35.861 -125.153)" fill="#fff"/>
        <path id="Trazado_136793" data-name="Trazado 136793" d="M73.56,214.669a1.061,1.061,0,1,0-1.061,1.061,1.061,1.061,0,0,0,1.061-1.061" transform="translate(-44.737 -133.771)" fill="#fff"/>
        <path id="Trazado_136794" data-name="Trazado 136794" d="M33.125,200.907a1.061,1.061,0,1,0-1.061,1.061,1.061,1.061,0,0,0,1.061-1.061" transform="translate(-19.415 -125.153)" fill="#fff"/>
        <path id="Trazado_136795" data-name="Trazado 136795" d="M8.515,200.907a1.061,1.061,0,1,0-1.061,1.061,1.061,1.061,0,0,0,1.061-1.061" transform="translate(-4.003 -125.153)" fill="#fff"/>
        <path id="Trazado_136796" data-name="Trazado 136796" d="M19.582,185.375a1.061,1.061,0,1,0-1.061,1.061,1.061,1.061,0,0,0,1.061-1.061" transform="translate(-10.934 -115.426)" fill="#fff"/>
        <path id="Trazado_136797" data-name="Trazado 136797" d="M45.577,185.375a1.061,1.061,0,1,0-1.061,1.061,1.061,1.061,0,0,0,1.061-1.061" transform="translate(-27.213 -115.426)" fill="#fff"/>
        <path id="Trazado_136798" data-name="Trazado 136798" d="M59.387,171.613a1.061,1.061,0,1,0-1.061,1.061,1.061,1.061,0,0,0,1.061-1.061" transform="translate(-35.861 -106.807)" fill="#fff"/>
        <path id="Trazado_136799" data-name="Trazado 136799" d="M33.125,171.613a1.061,1.061,0,1,0-1.061,1.061,1.061,1.061,0,0,0,1.061-1.061" transform="translate(-19.415 -106.807)" fill="#fff"/>
        <path id="Trazado_136800" data-name="Trazado 136800" d="M19.582,159.59a1.061,1.061,0,1,0-1.061,1.061,1.061,1.061,0,0,0,1.061-1.061" transform="translate(-10.934 -99.278)" fill="#fff"/>
        <path id="Trazado_136801" data-name="Trazado 136801" d="M45.577,156.08a1.061,1.061,0,1,0-1.061,1.061,1.061,1.061,0,0,0,1.061-1.061" transform="translate(-27.213 -97.08)" fill="#fff"/>
        <path id="Trazado_136802" data-name="Trazado 136802" d="M59.387,142.319a1.061,1.061,0,1,0-1.061,1.061,1.061,1.061,0,0,0,1.061-1.061" transform="translate(-35.861 -88.462)" fill="#fff"/>
        <path id="Trazado_136803" data-name="Trazado 136803" d="M31.778,143.629a1.061,1.061,0,1,0-1.061,1.061,1.061,1.061,0,0,0,1.061-1.061" transform="translate(-18.571 -89.282)" fill="#fff"/>
        <path id="Trazado_136804" data-name="Trazado 136804" d="M45.577,126.786a1.061,1.061,0,1,0-1.061,1.061,1.061,1.061,0,0,0,1.061-1.061" transform="translate(-27.213 -78.735)" fill="#fff"/>
        <path id="Trazado_136805" data-name="Trazado 136805" d="M59.387,113.025a1.061,1.061,0,1,0-1.061,1.061,1.061,1.061,0,0,0,1.061-1.061" transform="translate(-35.861 -70.117)" fill="#fff"/>
        <path id="Trazado_136806" data-name="Trazado 136806" d="M31.821,119.932a1.061,1.061,0,0,1-2.1.235A10.617,10.617,0,0,1,31,118.9a1.058,1.058,0,0,1,.823,1.032" transform="translate(-18.615 -74.461)" fill="#fff"/>
        <path id="Trazado_136807" data-name="Trazado 136807" d="M148.067,322.6v3.3h-24.65a2.157,2.157,0,0,1-2.155-2.012c-.124-1.744-.483-6.27-.967-12.442-.176-2.188-.366-4.585-.568-7.132-.268-3.39-.562-7.06-.869-10.881-1.372-17.171-3.011-37.5-4.03-50.148-.594-7.394-.98-12.175-.98-12.175l7.23-32.33.529.118,15.087,3.3s3.161,7.341,3.161,20.09c0,11.776-2.828,47.535-4.807,71.14-.339,4.043-.653,7.733-.921,10.881-.248,2.867-.457,5.3-.62,7.132-.222,2.495-.346,3.912-.346,3.912Z" transform="translate(-71.297 -124.484)" fill="#ffe7cf"/>
        <path id="Trazado_136808" data-name="Trazado 136808" d="M78.477,194.042l-.287,1.887-5.473,44.387-8.961,50.148-1.665,10.882L61,308.478l-.725,4.762,6.309,5.754a2.463,2.463,0,0,1,.464,1.437v.059a2.448,2.448,0,0,1-2.443,2.443H46.512a1.991,1.991,0,0,1-1.947-2.43,107.28,107.28,0,0,0,1.1-12.024c.124-2.175.248-4.565.372-7.132.163-3.364.327-7.028.483-10.882,1.2-28.764,2.384-68.3,4.239-75.764a33.017,33.017,0,0,1,10.79-17.308Z" transform="translate(-27.878 -121.518)" fill="#ffe7cf"/>
        <path id="Trazado_136809" data-name="Trazado 136809" d="M117.566,300.979a.3.3,0,0,1-.044,0,.326.326,0,0,1-.28-.367l2.2-16.123a.32.32,0,0,1,.368-.28.326.326,0,0,1,.28.367l-2.2,16.124a.327.327,0,0,1-.323.283" transform="translate(-73.42 -177.979)" fill="#0f0a1c"/>
        <path id="Trazado_136810" data-name="Trazado 136810" d="M67.05,500.224v.078a2.448,2.448,0,0,1-2.443,2.423H46.515a1.989,1.989,0,0,1-1.946-2.423V500.3a107.221,107.221,0,0,0,1.1-12.024c.124-2.175.249-4.565.373-7.132H62.092L61,488.271l-.725,4.761.36.327,2.391,2.181,3.559,3.246a2.464,2.464,0,0,1,.464,1.437" transform="translate(-27.881 -301.311)" fill="#f9b3a2"/>
        <path id="Trazado_136811" data-name="Trazado 136811" d="M70.6,516.016c-4.115.7-9.451,2.632-11.711,6.616l-2.273-1.286c2.312-4.089,7.145-6.427,11.593-7.511Z" transform="translate(-35.457 -321.786)" fill="#a66353"/>
        <path id="Trazado_136812" data-name="Trazado 136812" d="M157.917,499.427v3.3h-24.65a2.157,2.157,0,0,1-2.155-2.012c-.007-.124-.02-.261-.026-.411-.092-1.228-.261-3.37-.484-6.185-.13-1.711-.287-3.677-.457-5.845-.065-.791-.13-1.6-.2-2.443-.118-1.489-.242-3.057-.372-4.69h14.4c-.065.745-.124,1.463-.183,2.149-.17,1.947-.32,3.625-.438,4.984-.144,1.639-.248,2.815-.3,3.429-.033.32-.046.483-.046.483l.764.372,2.436,1.182Z" transform="translate(-81.147 -301.311)" fill="#f9b3a2"/>
        <path id="Trazado_136813" data-name="Trazado 136813" d="M160.669,512.867a28.639,28.639,0,0,0-2.658,3.449,30.57,30.57,0,0,0-2.835,4.716l-.751-.268-1.763-.431c.085-.333.555-1.535,3.174-5.467a31.958,31.958,0,0,1,2.4-3.181Z" transform="translate(-95.604 -320.44)" fill="#a66353"/>
        <path id="Trazado_136814" data-name="Trazado 136814" d="M44.569,532.411H67.05a2.448,2.448,0,0,1-2.443,2.423H46.515a1.989,1.989,0,0,1-1.947-2.423" transform="translate(-27.881 -333.42)" fill="#2f3f4f"/>
        <path id="Trazado_136815" data-name="Trazado 136815" d="M160.445,532.411v2.423H135.8a2.157,2.157,0,0,1-2.155-2.012c-.007-.124-.02-.261-.026-.411Z" transform="translate(-83.675 -333.42)" fill="#2f3f4f"/>
        <path id="Trazado_136816" data-name="Trazado 136816" d="M128.051,71.138l-4.866,47.189L84.043,116.78a7.586,7.586,0,0,1-2.229-4.864c-.338-4.04.916-10.169-.135-14.978-1.881-8.569-1.065-27.092-1.065-27.092s.731-.379,2.071-.921c1.019-.4,2.4-.915,4.062-1.417a51.127,51.127,0,0,1,14.33-2.188,108.069,108.069,0,0,1,14.232.725c1.372.176,2.6.385,3.684.614a19.938,19.938,0,0,1,4.4,1.378,15.793,15.793,0,0,1,4.657,3.1" transform="translate(-50.374 -40.905)" fill="#f57c64"/>
        <path id="Trazado_136817" data-name="Trazado 136817" d="M180.013,85.64l-2.488-.79a23.8,23.8,0,0,0,.333-8.654,18.226,18.226,0,0,0-4.121-8.935c1.372.176,2.6.385,3.684.614a19.014,19.014,0,0,1,3.037,8.034c.673,6.114-.4,9.588-.444,9.732" transform="translate(-108.801 -42.122)" fill="#2f3f4f"/>
        <path id="Trazado_136818" data-name="Trazado 136818" d="M97.689,102.814,95.207,102c.046-.13,4.219-13.148,1.313-21.109-2.175-5.957-7.714-7.779-10.072-8.3,1.019-.4,2.4-.914,4.063-1.417A15.2,15.2,0,0,1,98.976,80c3.22,8.811-1.1,22.246-1.287,22.814" transform="translate(-54.138 -44.574)" fill="#2f3f4f"/>
        <path id="Trazado_136819" data-name="Trazado 136819" d="M365.574,140.968s4.26,8.835,4.883,13.114-4.666,7.024-5.645,6.7-10.559-12.3-10.559-12.3l6.967-6.749Z" transform="translate(-221.849 -88.28)" fill="#f9b3a2"/>
        <path id="Trazado_136820" data-name="Trazado 136820" d="M325.21,70.749a12.7,12.7,0,0,0,1.811.7q2.323.953,4.553,2.114a37.067,37.067,0,0,1,9.172,6.423,31.1,31.1,0,0,1,5.712,7.761,64.143,64.143,0,0,1,4.141,9.4c0,.009.061.189.062.189L330.4,102.871,326.05,84.692Z" transform="translate(-203.661 -44.306)" fill="#a66353"/>
        <path id="Trazado_136821" data-name="Trazado 136821" d="M321.517,406.793h-23.65a3.143,3.143,0,0,1-3.063-2.482l-4.585-35.485-5.062-39.175,20.816-1.7s.418,22.024.784,40.874c.261,14.088.5,26.413.522,26.452.033.072,15.42,8.523,15.734,9.471.006.013.006.026.013.039a1.56,1.56,0,0,1-1.509,2.005" transform="translate(-178.578 -205.379)" fill="#f9b3a2"/>
        <path id="Trazado_136822" data-name="Trazado 136822" d="M330,475.279h-23.65a3.143,3.143,0,0,1-3.063-2.482l-2.044-15.806L299.5,443.464l-.085-.653-.229-1.744-.085-.653-.4-3.1h16.538c.019,1.045.039,2.083.059,3.1,0,.222.006.438.013.653.006.588.019,1.169.033,1.744,0,.222.007.438.013.653.1,5.238.183,9.961.261,13.527.085,4.16.137,6.753.144,6.773.033.072,15.42,8.523,15.734,9.471.006.013.006.026.013.039A1.56,1.56,0,0,1,330,475.279" transform="translate(-187.059 -273.864)" fill="#ffeae6"/>
        <path id="Trazado_136823" data-name="Trazado 136823" d="M334.255,508.252h-23.65a3.128,3.128,0,0,1-2.972-2.155,2.662,2.662,0,0,1-.092-.327L305.5,489.964h14.375c.026,1.2.046,2.266.065,3.181.006.229.006.444.013.653.026,1.391.046,2.338.059,2.737a.993.993,0,0,0,.007.2c.006.007.17.1.463.268.549.314,1.535.869,2.75,1.554.209.118.431.242.653.372,1.45.816,3.141,1.776,4.787,2.73,3.579,2.07,6.936,4.108,7.08,4.546.006.013.006.026.013.039a1.56,1.56,0,0,1-1.509,2.005" transform="translate(-191.316 -306.837)" fill="#f57c64"/>
        <path id="Trazado_136824" data-name="Trazado 136824" d="M315.977,446.266H299.851l-.085-.653h16.2c0,.222.006.437.013.653" transform="translate(-187.727 -279.063)" fill="#f57c64"/>
        <path id="Trazado_136825" data-name="Trazado 136825" d="M316.548,452.679H300.69l-.085-.653h15.93c0,.222.006.437.013.653" transform="translate(-188.252 -283.079)" fill="#f57c64"/>
        <path id="Trazado_136826" data-name="Trazado 136826" d="M337.834,527.852h-23.65a3.128,3.128,0,0,1-2.972-2.155H332.25v-4.435c3.579,2.07,6.936,4.108,7.08,4.546.006.013.006.026.013.039a1.56,1.56,0,0,1-1.509,2.005" transform="translate(-194.895 -326.438)" fill="#ffe7cf"/>
        <path id="Trazado_136827" data-name="Trazado 136827" d="M353.6,513.333v2.73a.326.326,0,0,1-.653,0v-3.1c.209.117.431.241.653.372" transform="translate(-221.029 -321.239)" fill="#ffe7cf"/>
        <path id="Trazado_136828" data-name="Trazado 136828" d="M337.987,499.127h-3.364a.327.327,0,0,1,0-.653h3.351c.007.229.007.444.013.653" transform="translate(-209.352 -312.167)" fill="#ffe7cf"/>
        <path id="Trazado_136829" data-name="Trazado 136829" d="M340.016,508.014l-2.822,1.829a.326.326,0,0,1-.353-.549l2.7-1.75a1.055,1.055,0,0,0,.006.2c.007.007.17.1.464.268" transform="translate(-210.852 -317.847)" fill="#ffe7cf"/>
        <path id="Trazado_136830" data-name="Trazado 136830" d="M155.785,406.793h23.65a3.143,3.143,0,0,0,3.063-2.482l4.585-35.485,5.062-39.175-20.816-1.7s-.418,22.024-.784,40.874c-.261,14.088-.5,26.413-.523,26.452-.033.072-15.42,8.523-15.734,9.471-.006.013-.006.026-.013.039a1.56,1.56,0,0,0,1.509,2.005" transform="translate(-96.569 -205.379)" fill="#f9b3a2"/>
        <path id="Trazado_136831" data-name="Trazado 136831" d="M155.785,475.279h23.65A3.143,3.143,0,0,0,182.5,472.8l2.044-15.806,1.744-13.527.085-.653.229-1.744.085-.653.4-3.1H170.545c-.019,1.045-.039,2.083-.059,3.1,0,.222-.006.438-.013.653-.006.588-.019,1.169-.033,1.744,0,.222-.007.438-.013.653-.1,5.238-.183,9.961-.261,13.527-.085,4.16-.137,6.753-.144,6.773-.033.072-15.42,8.523-15.734,9.471-.006.013-.006.026-.013.039a1.56,1.56,0,0,0,1.509,2.005" transform="translate(-96.569 -273.864)" fill="#ffeae6"/>
        <path id="Trazado_136832" data-name="Trazado 136832" d="M155.785,508.252h23.65a3.128,3.128,0,0,0,2.972-2.155,2.667,2.667,0,0,0,.092-.327l2.044-15.806H170.167c-.026,1.2-.046,2.266-.065,3.181-.006.229-.006.444-.013.653-.026,1.391-.046,2.338-.059,2.737a1,1,0,0,1-.007.2c-.006.007-.17.1-.463.268-.549.314-1.535.869-2.75,1.554-.209.118-.431.242-.653.372-1.45.816-3.141,1.776-4.787,2.73-3.579,2.07-6.936,4.108-7.08,4.546-.006.013-.006.026-.013.039a1.56,1.56,0,0,0,1.509,2.005" transform="translate(-96.569 -306.837)" fill="#f57c64"/>
        <path id="Trazado_136833" data-name="Trazado 136833" d="M197.735,446.266h16.126l.085-.653h-16.2c0,.222-.007.437-.013.653" transform="translate(-123.83 -279.063)" fill="#f57c64"/>
        <path id="Trazado_136834" data-name="Trazado 136834" d="M197.613,452.679h15.858l.085-.653h-15.93c0,.222-.007.437-.013.653" transform="translate(-123.754 -283.079)" fill="#f57c64"/>
        <path id="Trazado_136835" data-name="Trazado 136835" d="M155.785,527.852h23.65a3.128,3.128,0,0,0,2.972-2.155H161.369v-4.435c-3.579,2.07-6.936,4.108-7.08,4.546-.006.013-.006.026-.013.039a1.56,1.56,0,0,0,1.509,2.005" transform="translate(-96.569 -326.438)" fill="#ffe7cf"/>
        <path id="Trazado_136836" data-name="Trazado 136836" d="M186.184,513.333v2.73a.326.326,0,0,0,.653,0v-3.1c-.209.117-.431.241-.653.372" transform="translate(-116.597 -321.239)" fill="#ffe7cf"/>
        <path id="Trazado_136837" data-name="Trazado 136837" d="M196.7,499.127h3.363a.327.327,0,1,0,0-.653h-3.35c-.007.229-.007.444-.013.653" transform="translate(-123.185 -312.167)" fill="#ffe7cf"/>
        <path id="Trazado_136838" data-name="Trazado 136838" d="M195.289,508.014l2.821,1.829a.326.326,0,0,0,.353-.549l-2.7-1.75a1,1,0,0,1-.007.2c-.006.007-.17.1-.463.268" transform="translate(-122.299 -317.847)" fill="#ffe7cf"/>
        <path id="Trazado_136839" data-name="Trazado 136839" d="M250.965,271.355H226.473l-3.1-32-3.1,32-24.95-.379s.15-4.389.392-10.639c.006-.216.019-.431.026-.653.039-1.071.085-2.195.131-3.351.013-.215.019-.437.033-.653.536-13.134,1.372-30.763,2.162-36.086,1.306-8.818,3.265-13.389,3.265-13.389h42.78s2.515,1.136,4.082,13.638c1.045,8.308,1.8,23.957,2.26,35.838.007.222.013.438.026.653q.059,1.744.118,3.351c.006.222.019.438.026.653.229,6.5.346,11.018.346,11.018" transform="translate(-122.317 -129.135)" fill="#2f3f4f"/>
        <path id="Trazado_136840" data-name="Trazado 136840" d="M274.033,10.127a8.107,8.107,0,0,1-8.244,6.37,7.934,7.934,0,0,1-1.4-.179,8.122,8.122,0,0,1-2.888-1.255c-.109-.074-.21-.146-.309-.226s-.193-.15-.284-.229a9.037,9.037,0,0,1-2.7-7.928A8.1,8.1,0,0,1,273.5,5.048l0,.008a8.052,8.052,0,0,1,.718,2.984.208.208,0,0,1,0,.059,8.233,8.233,0,0,1-.184,2.028" transform="translate(-161.61 -0.189)" fill="#f9b3a2"/>
        <path id="Trazado_136841" data-name="Trazado 136841" d="M278.513,26.072c-.007.222-.013.438-.026.647-.026.385-.065.751-.111,1.1-.614,4.265-4.971,4.65-8.752,2.632a12.91,12.91,0,0,1-5.349-6.081s6.773-3.827,7.674-3.893a60.265,60.265,0,0,0,6.022-1.985,49.8,49.8,0,0,1,.542,7.583" transform="translate(-165.5 -11.579)" fill="#f9b3a2"/>
        <path id="Trazado_136842" data-name="Trazado 136842" d="M270.148,48.048l-5.223,3.284-5.946-3.3,2.58-10.888.033-.163.072-.274.078-.326,1.326.431,2.926.928,3.181,1.019.157,1.5.15,1.437.111,1.065.111,1.025.091.9Z" transform="translate(-162.185 -22.785)" fill="#f9b3a2"/>
        <path id="Trazado_136843" data-name="Trazado 136843" d="M273.288,4.741c-.1-.183-.189-.353-.287-.516a2.156,2.156,0,0,1-.124-.2c-.019-.033-.046-.065-.065-.1-.033-.052-.065-.1-.1-.157a2.267,2.267,0,0,0-.183-.235,4.3,4.3,0,0,0-.313-.385A7.928,7.928,0,0,0,267.782.49a8.1,8.1,0,0,0-9.634,6.192,8.325,8.325,0,0,0-.163,2.3,1.582,1.582,0,0,0,.033.3,1.612,1.612,0,0,0,.033.3c.013.072.026.15.046.229a7.863,7.863,0,0,0,.189.882c.026.1.059.209.1.32.033.092.072.189.111.287a5.693,5.693,0,0,0,.294.607,21.216,21.216,0,0,0,2.038,3.031,13.007,13.007,0,0,0,1.757-.183,5.886,5.886,0,0,0,3.593-2.214,8.246,8.246,0,0,0,1.182-2.345c.078-.222.176-.595.274-1.006.059-.261.124-.536.183-.81a2.36,2.36,0,0,1,1.894-1.763h.006a11.829,11.829,0,0,0,2.678-.888,4.529,4.529,0,0,0,1.039-.673l.006-.007c-.052-.1-.1-.215-.15-.307" transform="translate(-161.55 -0.189)" fill="#ffe7cf"/>
        <path id="Trazado_136844" data-name="Trazado 136844" d="M298.2,11.4a1.728,1.728,0,1,1-1.728-1.728A1.728,1.728,0,0,1,298.2,11.4" transform="translate(-184.58 -6.056)" fill="#ffe7cf"/>
        <path id="Trazado_136845" data-name="Trazado 136845" d="M293.084,15.015a.98.98,0,1,1-.98-.98.979.979,0,0,1,.98.98" transform="translate(-182.315 -8.789)" fill="#ffe7cf"/>
        <path id="Trazado_136846" data-name="Trazado 136846" d="M272.525,3.533,258.5,11.3c-.039-.1-.078-.2-.111-.287-.039-.111-.072-.216-.1-.32a7.778,7.778,0,0,1-.19-.882c-.019-.078-.033-.157-.046-.228a1.61,1.61,0,0,1-.033-.3,1.579,1.579,0,0,1-.033-.3,8.324,8.324,0,0,1,.163-2.3A8.1,8.1,0,0,1,267.783.49a7.927,7.927,0,0,1,4.428,2.658,4.194,4.194,0,0,1,.314.385" transform="translate(-161.55 -0.189)" fill="#f57c64"/>
        <path id="Trazado_136847" data-name="Trazado 136847" d="M300.257,22.89s2.357,2.738,2.407,2.992-2.227,1.287-2.227,1.287Z" transform="translate(-188.034 -14.335)" fill="#f9b3a2"/>
        <path id="Trazado_136848" data-name="Trazado 136848" d="M277.782,25.5a2.646,2.646,0,1,1-1.963-3.372,2.764,2.764,0,0,1,1.963,3.372" transform="translate(-170.688 -13.822)" fill="#f9b3a2"/>
        <path id="Trazado_136849" data-name="Trazado 136849" d="M281.844,53.286a3.8,3.8,0,0,1-.379-.131,7.784,7.784,0,0,1-3.246-3.037l3.422,1.248.111,1.026Z" transform="translate(-174.233 -31.386)" fill="#2f3f4f"/>
        <path id="Trazado_136850" data-name="Trazado 136850" d="M256.688,8.694a.2.2,0,0,1-.046.033l-13.977,7.949L232.953,22.2a.482.482,0,0,1-.242.065.5.5,0,0,1-.431-.248.492.492,0,0,1,.189-.666l9.791-5.572,13.827-7.863a4.2,4.2,0,0,1,.314.385,2.178,2.178,0,0,1,.183.235c.039.052.072.1.1.157" transform="translate(-145.426 -4.958)" fill="#f57c64"/>
        <path id="Trazado_136851" data-name="Trazado 136851" d="M224.6,62.648s3.175,2.865,5.278,3.246,5.275-3.127,5.275-3.127,9.8.887,16.15,3.889c6.145,2.907,7.853,4.458,7.853,4.458l-6.328,50.079-48.986-1.96s-1.088-48.223.109-50.074,5.831-3.583,10.566-4.971A46.118,46.118,0,0,1,224.6,62.648" transform="translate(-127.373 -39.233)" fill="#a66353"/>
        <path id="Trazado_136852" data-name="Trazado 136852" d="M181.758,75.775s-7.945,4.009-12.572,11.085c-4.213,6.444-4.245,6.422-4.245,6.422l14.913,4.243s3.81-4.9,4.028-6.311,3.483-8.164,3.157-9.906-5.28-5.533-5.28-5.533" transform="translate(-103.293 -47.454)" fill="#a66353"/>
        <path id="Trazado_136853" data-name="Trazado 136853" d="M331.614,104.357a.327.327,0,0,1-.288-.481l7.379-13.794a.327.327,0,1,1,.576.308L331.9,104.184a.327.327,0,0,1-.288.172" transform="translate(-207.467 -56.305)" fill="#0f0a1c"/>
        <path id="Trazado_136854" data-name="Trazado 136854" d="M201.495,110.65a.326.326,0,0,1-.286-.167L191.194,92.52a.327.327,0,0,1,.57-.318l10.015,17.962a.327.327,0,0,1-.285.486" transform="translate(-119.708 -57.636)" fill="#0f0a1c"/>
        <path id="Trazado_136855" data-name="Trazado 136855" d="M154.456,101.749s19.787,8.056,41.3,8.056A79.408,79.408,0,0,0,233.485,99.9l-3.374,43.76s-11.2,11.43-34.609,11.43-38.723-9.881-38.723-9.881Z" transform="translate(-96.727 -62.561)" fill="#ffeae6"/>
        <path id="Trazado_136856" data-name="Trazado 136856" d="M335.394,207.029a.327.327,0,0,1-.152-.616c.025-.013,2.46-1.3,4.244-2.524a39.714,39.714,0,0,0,3.417-2.7l.684-8.873a.327.327,0,1,1,.651.05l-.694,9a.326.326,0,0,1-.107.218,40.826,40.826,0,0,1-3.581,2.838c-1.815,1.248-4.285,2.551-4.309,2.563a.321.321,0,0,1-.152.038" transform="translate(-209.834 -120.249)" fill="#0f0a1c"/>
        <path id="Trazado_136857" data-name="Trazado 136857" d="M293.982,169.181h-.01a.327.327,0,0,1-.317-.337l1.306-43a.331.331,0,0,1,.337-.317.327.327,0,0,1,.317.336l-1.306,43a.327.327,0,0,1-.326.316" transform="translate(-183.9 -78.612)" fill="#ffccc2"/>
        <path id="Trazado_136858" data-name="Trazado 136858" d="M328.465,160.374h-.014a.327.327,0,0,1-.313-.34l1.7-41.475a.323.323,0,0,1,.339-.313.327.327,0,0,1,.313.34l-1.7,41.475a.327.327,0,0,1-.326.313" transform="translate(-205.495 -74.051)" fill="#ffccc2"/>
        <path id="Trazado_136859" data-name="Trazado 136859" d="M261.98,173.549a.327.327,0,0,1-.327-.327v-43a.327.327,0,1,1,.653,0v43a.327.327,0,0,1-.327.327" transform="translate(-163.859 -81.347)" fill="#ffccc2"/>
        <path id="Trazado_136860" data-name="Trazado 136860" d="M224.531,169.181a.327.327,0,0,1-.326-.316l-1.306-43a.327.327,0,0,1,.317-.336.324.324,0,0,1,.336.317l1.306,43a.327.327,0,0,1-.317.337Z" transform="translate(-139.589 -78.612)" fill="#ffccc2"/>
        <path id="Trazado_136861" data-name="Trazado 136861" d="M189.393,160.374a.327.327,0,0,1-.326-.313l-1.7-41.475a.326.326,0,1,1,.652-.027l1.7,41.475a.327.327,0,0,1-.313.34Z" transform="translate(-117.338 -74.051)" fill="#ffccc2"/>
        <path id="Trazado_136862" data-name="Trazado 136862" d="M348.557,150.154s-8.353,1.561-11.894-.451a8.816,8.816,0,0,1-3.226-3.22c-.118-.189-.222-.379-.32-.575a9.135,9.135,0,0,1-.751-2.149c-.052-.222-.092-.438-.124-.66a8.158,8.158,0,0,1,.033-2.488,5.56,5.56,0,0,1,.17-.79c.039-.157.085-.307.137-.457,1.659-4.84,5.225-5.284,8.707-5.388s6.1,3.371,6.1,3.371Z" transform="translate(-208.015 -83.9)" fill="#f9b3a2"/>
        <path id="Trazado_136863" data-name="Trazado 136863" d="M359.749,143s6.912,6.477,9.409,12.763c1.905,4.8-1.571,11.512-7.776,10.314s-9.477-10.008-9.477-10.008,1.531-7.953,2.837-8.824S359.749,143,359.749,143" transform="translate(-220.379 -89.555)" fill="#f9b3a2"/>
        <path id="Trazado_136864" data-name="Trazado 136864" d="M320.735,343.235H307.28v-4.657h13.285c.006.222.013.438.026.653H307.933v3.35h12.775c.007.222.02.438.026.653" transform="translate(-192.432 -212.033)" fill="#0f0a1c"/>
        <path id="Trazado_136865" data-name="Trazado 136865" d="M207.294,338.578v4.657H196.367c.006-.216.019-.431.026-.653h10.248v-3.351H196.524c.013-.215.019-.437.033-.653Z" transform="translate(-122.974 -212.033)" fill="#0f0a1c"/>
        <path id="Trazado_136866" data-name="Trazado 136866" d="M340.117,141.736l-7.655,3.344a5.446,5.446,0,0,1,.17-.79l7.224-3.155a.329.329,0,0,1,.431.17.325.325,0,0,1-.17.431" transform="translate(-208.203 -88.369)" fill="#0f0a1c"/>
        <path id="Trazado_136867" data-name="Trazado 136867" d="M339.638,150.781,332.5,153.9c-.052-.222-.092-.438-.124-.66l7-3.05a.325.325,0,0,1,.261.594" transform="translate(-208.148 -94.036)" fill="#0f0a1c"/>
        <path id="Trazado_136868" data-name="Trazado 136868" d="M340.673,159.828l-5.637,2.456c-.118-.189-.222-.379-.32-.575l5.7-2.482a.337.337,0,0,1,.431.17.328.328,0,0,1-.17.431" transform="translate(-209.614 -99.7)" fill="#0f0a1c"/>
        <path id="Trazado_136869" data-name="Trazado 136869" d="M382.133,153.833a.326.326,0,0,1-.254-.121l-5.162-6.379a.326.326,0,1,1,.508-.411l5.162,6.379a.326.326,0,0,1-.253.532" transform="translate(-235.871 -91.933)" fill="#0f0a1c"/>
        <path id="Trazado_136870" data-name="Trazado 136870" d="M354.2,178.236h-2.149a.326.326,0,1,1,0-.653H354.2a.326.326,0,1,1,0,.653" transform="translate(-220.265 -111.21)" fill="#0f0a1c"/>
        <path id="Trazado_136871" data-name="Trazado 136871" d="M299.38,37.921c-.007.222-.013.438-.026.647a2.716,2.716,0,0,1-1.646-.588.323.323,0,0,1-.033-.457.329.329,0,0,1,.463-.033,2.061,2.061,0,0,0,1.241.431" transform="translate(-186.367 -23.428)" fill="#2f3f4f"/>
        <path id="Trazado_136872" data-name="Trazado 136872" d="M154.553,20.386v.007a4.274,4.274,0,0,1-.026.5,7.263,7.263,0,0,1-.536,2.266.223.223,0,0,1-.019.052,7.571,7.571,0,0,1-.947,1.62,7.45,7.45,0,0,1-9.353,2.116,7.176,7.176,0,0,1-1.1-.692,7.486,7.486,0,0,1-1.927-2.169c-.059-.1-.118-.2-.17-.307a3.267,3.267,0,0,1-.15-.3,8.334,8.334,0,0,1,.83-7.674,7.456,7.456,0,0,1,10.45-1.424,7.259,7.259,0,0,1,2.064,2.436,7.413,7.413,0,0,1,.882,3.566" transform="translate(-87.521 -8.054)" fill="#f9b3a2"/>
        <path id="Trazado_136873" data-name="Trazado 136873" d="M176.205,27.018v.007a4.274,4.274,0,0,1-.026.5c-.039-.085-.078-.17-.117-.261a4.618,4.618,0,0,0-1.731-2.129,5.734,5.734,0,0,1,.49-1.522,1.441,1.441,0,0,1,.5-.163,7.413,7.413,0,0,1,.882,3.566" transform="translate(-109.174 -14.687)" fill="#2f3f4f"/>
        <path id="Trazado_136874" data-name="Trazado 136874" d="M155.516,36.9a38.5,38.5,0,0,1-3.289,7.948c-2.17,3.318-5.962,1.95-8.334-1.21a11.863,11.863,0,0,1-2.1-7.15s7.145-.566,7.922-.27a55.412,55.412,0,0,0,5.8.682" transform="translate(-88.79 -22.626)" fill="#f9b3a2"/>
        <path id="Trazado_136875" data-name="Trazado 136875" d="M139.511,47.547l-.627,3.553-.392,2.215c-.533,3.009-6.652,2.823-8.992,1.3a2.187,2.187,0,0,1-1.006-2.906l3.245-6.878,2.077-1.247Z" transform="translate(-80.317 -27.294)" fill="#f9b3a2"/>
        <path id="Trazado_136876" data-name="Trazado 136876" d="M162.564,52.008,158.9,50.991s-.3,1.028,1.338,1.631a1.82,1.82,0,0,0,2.329-.614" transform="translate(-99.495 -31.933)" fill="#fff"/>
        <path id="Trazado_136877" data-name="Trazado 136877" d="M151.846,17.04a6.385,6.385,0,0,1-3.532,1.534,24.623,24.623,0,0,0-3.311.106c-.983.182-4.842,2.138-5.044,2.658a6.459,6.459,0,0,1-1.837,2.834,9,9,0,0,1-1.421.717s-1.461-4.746.482-8.922a7.337,7.337,0,0,1,8.495-4,9.417,9.417,0,0,1,4.569,2.473,9.08,9.08,0,0,1,1.6,2.6" transform="translate(-85.278 -7.354)" fill="#2f3f4f"/>
        <path id="Trazado_136878" data-name="Trazado 136878" d="M143.884,32.132a2.538,2.538,0,1,0,3.295-1.6,2.59,2.59,0,0,0-3.295,1.6" transform="translate(-90 -19.028)" fill="#f9b3a2"/>
        <path id="Trazado_136879" data-name="Trazado 136879" d="M151.587,59.34l-.392,2.214a4.684,4.684,0,0,1-1.476-1.058,6.5,6.5,0,0,1-1.182-3.755,6.409,6.409,0,0,0,1.084,1.286,9.579,9.579,0,0,0,1.966,1.313" transform="translate(-93.021 -35.534)" fill="#2f3f4f"/>
        <path id="Trazado_136880" data-name="Trazado 136880" d="M100.718,37.9s-1.232-.773-5.151.37-4.286,2.959-7.225,2.847-4.327-.887-6.491-.765a5.367,5.367,0,0,0-2.939.765l2.572,7.44a18.26,18.26,0,0,1,5.47,0,8.474,8.474,0,0,0,4.935-.592c3.26-1.426,3.336-5.728,6.209-7.613a13.918,13.918,0,0,1,3.021-1.388Z" transform="translate(-49.418 -23.575)" fill="#2f3f4f"/>
        <path id="Trazado_136881" data-name="Trazado 136881" d="M33.465,132.81s-8,15.185-7.185,20.737c.761,5.175,5.986,7.9,10.877,7.243,4.955-.67,8.186-8.02,10.258-11.9,1.79-3.35,3.44-6.786,4.937-10.278l.027-.064Z" transform="translate(-16.421 -83.172)" fill="#f9b3a2"/>
        <path id="Trazado_136882" data-name="Trazado 136882" d="M52.37,77.426a27.39,27.39,0,0,0-9.28,8.4c-3.429,5.361-7.756,12.733-7.756,12.733l25.8,9.487V86.451c0-.326-8.763-9.025-8.763-9.025" transform="translate(-22.128 -48.488)" fill="#f57c64"/>
        <path id="Trazado_136883" data-name="Trazado 136883" d="M82.645,147.858v7.7s-1.581.536-4.049,1.346c-.059.019-.124.039-.189.065-.882.281-1.868.6-2.926.94-.412.13-.842.268-1.28.4-7.8,2.482-18.8,5.787-23.049,6.12-6.878.542,2.142-17.093,2.142-17.093l17.229-5.356,1.006-.314,3.122-.973,6.662-2.07Z" transform="translate(-30.414 -86.816)" fill="#f9b3a2"/>
        <path id="Trazado_136884" data-name="Trazado 136884" d="M54.909,157.816a.327.327,0,0,1-.105-.636l11.571-3.935a.327.327,0,0,1,.21.618L55.014,157.8a.316.316,0,0,1-.105.018" transform="translate(-34.182 -95.958)" fill="#0f0a1c"/>
        <path id="Trazado_136885" data-name="Trazado 136885" d="M139.048,144.6a7.766,7.766,0,0,1-.007.875,8.911,8.911,0,0,1-.555,2.56q-.117.333-.255.647a12.188,12.188,0,0,1-1.535,2.58c-.144.183-.281.346-.425.5a4,4,0,0,1-1.1.921c-1.358.653-4.644,0-4.644,0a13.357,13.357,0,0,1-7.283,2.371c-3.8-.137-9.614-3.148-9.392-4.128s8.341-13.7,8.341-13.7a17.892,17.892,0,0,1,7.472-.653c3.331.653,8.608,3.866,9.262,7.132a7.145,7.145,0,0,1,.117.9" transform="translate(-71.298 -85.411)" fill="#f9b3a2"/>
        <path id="Trazado_136886" data-name="Trazado 136886" d="M168.151,152.35a7.762,7.762,0,0,1-.007.875,12.029,12.029,0,0,0-2.782-1.933,26.033,26.033,0,0,0-4.794-1.9.316.316,0,0,1-.235-.392.325.325,0,0,1,.4-.235,25.425,25.425,0,0,1,4.931,1.947,13.2,13.2,0,0,1,2.488,1.639" transform="translate(-100.401 -93.156)" fill="#0f0a1c"/>
        <path id="Trazado_136887" data-name="Trazado 136887" d="M165.531,161.322q-.118.333-.255.647a11.951,11.951,0,0,0-2.2-1.47,33.075,33.075,0,0,0-5.8-2.26.337.337,0,0,1-.228-.405.331.331,0,0,1,.4-.228,34.276,34.276,0,0,1,5.931,2.318,13.5,13.5,0,0,1,2.149,1.4" transform="translate(-98.343 -98.693)" fill="#0f0a1c"/>
        <path id="Trazado_136888" data-name="Trazado 136888" d="M162.352,170.229c-.144.183-.281.346-.425.5-.261-.229-.562-.47-.895-.718a20.588,20.588,0,0,0-5.97-2.7.327.327,0,0,1,.163-.634,21.041,21.041,0,0,1,6.2,2.8,11.869,11.869,0,0,1,.927.751" transform="translate(-96.954 -104.373)" fill="#0f0a1c"/>
        <path id="Trazado_136889" data-name="Trazado 136889" d="M115.387,160.373c-.059.02-.124.039-.189.065-.882.281-1.868.6-2.926.94-.411.131-.842.268-1.28.405l-3.677-16.329,1.006-.314,3.122-.973Z" transform="translate(-67.205 -90.285)" fill="#2f3f4f"/>
        <path id="Trazado_136890" data-name="Trazado 136890" d="M115.159,159.809a3.2,3.2,0,1,0-3.2,3.2,3.2,3.2,0,0,0,3.2-3.2" transform="translate(-68.11 -98.076)" fill="#fff"/>
        <path id="Trazado_136891" data-name="Trazado 136891" d="M101.848,130.757a.357.357,0,0,1-.049,0,.327.327,0,0,1-.275-.372l1.388-9.307a.327.327,0,0,1,.646.1l-1.388,9.307a.326.326,0,0,1-.323.278" transform="translate(-63.577 -75.649)" fill="#0f0a1c"/>
        <path id="Trazado_136892" data-name="Trazado 136892" d="M48.051,475.757c-.155,3.328-.311,6.412-.467,9.144H62.92l1.4-9.144Z" transform="translate(-29.799 -297.94)" fill="#f9b3a2"/>
        <path id="Trazado_136893" data-name="Trazado 136893" d="M129.149,475.757c.264,3.3.509,6.391.728,9.144H143.09c.2-2.252.471-5.387.792-9.144Z" transform="translate(-80.879 -297.94)" fill="#f9b3a2"/>
        <path id="Trazado_136894" data-name="Trazado 136894" d="M500.062,157.542l-1.8,15.088a6.951,6.951,0,0,0,6.9,7.772h14.053l4.34-33.3Z" transform="translate(-312.005 -92.119)" fill="#4663ab"/>
        <path id="Trazado_136895" data-name="Trazado 136895" d="M548.391,492.1a1.527,1.527,0,0,1-1.528,1.535H526.831a2.316,2.316,0,0,1-2.26-2.848l.6-5.728,1.94-18.438,13.768,4.174s-.947,12.579-1.058,13.121l8.086,7.06a1.521,1.521,0,0,1,.483,1.123" transform="translate(-328.47 -292.216)" fill="#a66353"/>
        <path id="Trazado_136896" data-name="Trazado 136896" d="M663.605,496.345H641.261a3.143,3.143,0,0,1-3.063-2.482l-.908-7.237-1.75-13.977,14.284-1.7s.81,13.781.849,13.879a1.131,1.131,0,0,0,.111.078h.007c.346.216,1.4.862,2.782,1.718,1.417.869,3.168,1.953,4.885,3.037.222.143.438.287.66.425.189.118.372.235.555.353,2.848,1.816,5.3,3.474,5.428,3.86.006.013.006.026.013.039a1.56,1.56,0,0,1-1.508,2.005" transform="translate(-398.004 -294.931)" fill="#a66353"/>
        <path id="Trazado_136897" data-name="Trazado 136897" d="M612.163,258.63l4.572,86.323H597.467s-6.967-47.243-7.511-52.577a134.255,134.255,0,0,0-5.66-23.622,39.87,39.87,0,0,1-2.5-10.124Z" transform="translate(-364.344 -161.966)" fill="#2f3f4f"/>
        <path id="Trazado_136898" data-name="Trazado 136898" d="M553.212,249.689c-.1.438-1.738,17.419-1.738,17.419l-11.868,68.906H519.471l4.676-62.545.294-3.886,1.888-25.231s12.952,5.12,13.931,5.336,13.063-.438,12.952,0" transform="translate(-325.316 -153.025)" fill="#2f3f4f"/>
        <path id="Trazado_136899" data-name="Trazado 136899" d="M600.917,283.031H600.9a.327.327,0,0,1-.314-.339l1-25.714a.341.341,0,0,1,.339-.314.327.327,0,0,1,.314.339l-1,25.713a.326.326,0,0,1-.326.314" transform="translate(-376.116 -160.734)" fill="#0f0a1c"/>
        <path id="Trazado_136900" data-name="Trazado 136900" d="M601.522,276.282a.327.327,0,0,1-.008-.653c.031,0,3.115-.1,3.917-1.852.714-1.557,1.164-13.755,1.277-18.323a.336.336,0,0,1,.334-.318.327.327,0,0,1,.319.335c-.017.676-.421,16.582-1.336,18.579-.972,2.121-4.351,2.229-4.494,2.233Z" transform="translate(-376.496 -159.777)" fill="#0f0a1c"/>
        <path id="Trazado_136901" data-name="Trazado 136901" d="M546.8,261.209c-2.815,6.766-7.583,15.767-14.813,22.187l.294-3.886c5.748-5.9,9.68-13.468,12.109-19.307Z" transform="translate(-333.151 -162.951)" fill="#f57c64"/>
        <path id="Trazado_136902" data-name="Trazado 136902" d="M676.834,59.778l17.161-1.932s12.593-.815,19.778-.815.7,14.847.7,14.847l-30.99,4.747s-7.631-10.346-7.695-10.749,1.045-6.1,1.045-6.1" transform="translate(-423.207 -35.715)" fill="#a66353"/>
        <path id="Trazado_136903" data-name="Trazado 136903" d="M570.227,10.745a8.107,8.107,0,0,0,8.244,6.37,7.938,7.938,0,0,0,1.4-.179,8.122,8.122,0,0,0,2.888-1.255c.109-.074.21-.146.309-.226a3.594,3.594,0,0,0,.284-.229,9.037,9.037,0,0,0,2.7-7.928,8.1,8.1,0,0,0-15.286-1.633l0,.008a8.056,8.056,0,0,0-.718,2.984.216.216,0,0,0,0,.059,8.236,8.236,0,0,0,.184,2.029" transform="translate(-356.984 -0.576)" fill="#a66353"/>
        <path id="Trazado_136904" data-name="Trazado 136904" d="M583.185,24.978a12.91,12.91,0,0,1-5.349,6.081c-3.782,2.018-8.138,1.633-8.752-2.632-.033-.255-.065-.523-.085-.8-.013-.1-.019-.2-.026-.3-.013-.209-.019-.425-.026-.647-.006-.17-.006-.34-.006-.516a51.663,51.663,0,0,1,.549-7.067,60.253,60.253,0,0,0,6.022,1.986c.9.065,7.674,3.893,7.674,3.893" transform="translate(-356.295 -11.961)" fill="#a66353"/>
        <path id="Trazado_136905" data-name="Trazado 136905" d="M582.474,48.666,587.7,51.95l5.946-3.3-2.58-10.888-.033-.163-.072-.274L590.88,37l-1.326.431-2.926.927-3.181,1.019-.157,1.5-.15,1.437-.111,1.065-.111,1.025-.091.895Z" transform="translate(-364.771 -23.172)" fill="#a66353"/>
        <path id="Trazado_136906" data-name="Trazado 136906" d="M571.971,5.666l.007.007a4.5,4.5,0,0,0,1.038.672,11.828,11.828,0,0,0,2.678.888h.006A2.361,2.361,0,0,1,577.595,9c.059.274.124.549.183.81.1.412.2.784.274,1.006a8.25,8.25,0,0,0,1.182,2.345,5.887,5.887,0,0,0,3.593,2.214,12.935,12.935,0,0,0,1.757.183,21.226,21.226,0,0,0,2.038-3.03,5.784,5.784,0,0,0,.294-.607c.039-.1.078-.2.111-.287.039-.111.072-.216.1-.32a7.821,7.821,0,0,0,.19-.882c.019-.078.033-.157.046-.228a1.612,1.612,0,0,0,.033-.3,1.582,1.582,0,0,0,.032-.3,8.324,8.324,0,0,0-.163-2.3,8.1,8.1,0,0,0-9.634-6.192A7.927,7.927,0,0,0,573.2,3.765a4.193,4.193,0,0,0-.314.385,2.28,2.28,0,0,0-.183.235c-.039.052-.072.1-.1.157-.02.033-.046.065-.065.1a2.121,2.121,0,0,1-.124.2c-.1.163-.189.333-.287.516-.052.091-.1.2-.15.307" transform="translate(-358.194 -0.576)" fill="#2f3f4f"/>
        <path id="Trazado_136907" data-name="Trazado 136907" d="M567.044,23.508s-2.358,2.738-2.407,2.992,2.227,1.287,2.227,1.287Z" transform="translate(-353.601 -14.722)" fill="#a66353"/>
        <path id="Trazado_136908" data-name="Trazado 136908" d="M584.68,26.118a2.646,2.646,0,1,0,1.964-3.372,2.764,2.764,0,0,0-1.964,3.372" transform="translate(-366.107 -14.21)" fill="#a66353"/>
        <path id="Trazado_136909" data-name="Trazado 136909" d="M583.417,53.9a3.794,3.794,0,0,0,.379-.13,7.787,7.787,0,0,0,3.246-3.037l-3.423,1.247-.111,1.026Z" transform="translate(-365.362 -31.773)" fill="#2f3f4f"/>
        <path id="Trazado_136910" data-name="Trazado 136910" d="M571.319,38.008A3.277,3.277,0,0,1,569,39.471c-.013-.1-.02-.2-.026-.3-.013-.209-.02-.425-.026-.647-.007-.17-.007-.34-.007-.516Z" transform="translate(-356.297 -23.802)" fill="#fff"/>
        <path id="Trazado_136911" data-name="Trazado 136911" d="M610.536,2.695a2.694,2.694,0,1,0-2.694,2.694,2.694,2.694,0,0,0,2.694-2.694" transform="translate(-378.971 -0.001)" fill="#2f3f4f"/>
        <path id="Trazado_136912" data-name="Trazado 136912" d="M578.728,138.751H522.669l1.568-16.342.594-6.185,1.5-15.662L529.69,65.6s.274-.033.764-.1c.62-.072,1.6-.2,2.821-.34,1.96-.235,4.539-.542,7.276-.849,3.155-.346,6.63-.392,9.49-.64,2.978-.261,7.419-.771,11.978-.934,7.844-.274,15.728-.4,15.728-.4Z" transform="translate(-327.319 -39.036)" fill="#ffe7cf"/>
        <rect id="Rectángulo_38146" data-name="Rectángulo 38146" width="24.811" height="14.81" transform="translate(213.772 39.17)" fill="#fff"/>
        <path id="Trazado_136913" data-name="Trazado 136913" d="M591.984,63.417c-2.332,2.129-6.936,5.63-11.809,5.362a16.377,16.377,0,0,1-9.66-3.788c.692-.078,1.391-.15,2.1-.229,2.508-.268,5.055-.523,7.289-.718,2.391-.209,5.794-.379,9.406-.523.881-.039,1.783-.072,2.678-.1" transform="translate(-357.282 -39.715)" fill="#a66353"/>
        <path id="Trazado_136914" data-name="Trazado 136914" d="M591.984,63.417c-2.332,2.129-6.936,5.63-11.809,5.362a16.377,16.377,0,0,1-9.66-3.788c.692-.078,1.391-.15,2.1-.229,1.7.914,5.088,2.528,7.779,2.528,2.763,0,6.917-2.469,8.916-3.769.881-.039,1.783-.072,2.678-.1" transform="translate(-357.282 -39.715)" fill="#fff"/>
        <path id="Trazado_136915" data-name="Trazado 136915" d="M627.955,60.783l36.086-1.572L660.776,84,635.3,97.387Z" transform="translate(-393.254 -37.08)" fill="#ffe7cf"/>
        <path id="Trazado_136916" data-name="Trazado 136916" d="M772.905,55.246l3.944,8.544-1.976,3.835s-17.789,3.816-22.13,3.921-6.388-5.72-6.149-7.44,4.43-7.983,5.721-7.951,20.59-.91,20.59-.91" transform="translate(-467.539 -34.598)" fill="#a66353"/>
        <path id="Trazado_136917" data-name="Trazado 136917" d="M803.579,45.042s1.837-3.32,3.8-4.409,9.267-3.7,10.682-3.647a1.438,1.438,0,0,1,1.334,2.068c-.354.68-4.563,2.713-5,4.156s.946,5.315-1.845,6.512-3.553,1.85-4.451,1.388-4.518-6.069-4.518-6.069" transform="translate(-503.237 -23.162)" fill="#a66353"/>
        <path id="Trazado_136918" data-name="Trazado 136918" d="M822.046,51.342s11.307-1.429,12.981-1.429,2,2.123,1.143,2.98-5.878,1.96-5.878,1.96.948,4.939-2.4,7.062-9.558,2.408-9.558,2.408l-2.08-4.966Z" transform="translate(-511.172 -31.258)" fill="#a66353"/>
        <path id="Trazado_136919" data-name="Trazado 136919" d="M831.706,71.318a.326.326,0,0,1-.316-.247c-.057-.226-1.361-5.55.735-7.271,1.6-1.311,6.608-1.326,6.82-1.326a.327.327,0,0,1,0,.653c-1.383,0-5.23.212-6.406,1.177-1.477,1.214-.874,5.181-.516,6.608a.326.326,0,0,1-.237.4.341.341,0,0,1-.08.01" transform="translate(-520.37 -39.123)" fill="#2f3f4f"/>
        <path id="Trazado_136920" data-name="Trazado 136920" d="M831.719,71.551a.326.326,0,0,1-.043-.65l6.94-.925a.327.327,0,0,1,.086.648l-6.94.925a.282.282,0,0,1-.043,0" transform="translate(-520.656 -43.82)" fill="#2f3f4f"/>
        <path id="Trazado_136921" data-name="Trazado 136921" d="M832.229,79.061a.327.327,0,0,1-.033-.651l5.552-.571a.327.327,0,0,1,.067.65l-5.551.571h-.034" transform="translate(-520.974 -48.744)" fill="#2f3f4f"/>
        <path id="Trazado_136922" data-name="Trazado 136922" d="M813.08,60.366a.326.326,0,0,1-.138-.622,24.491,24.491,0,0,0,2.392-1.68,30.134,30.134,0,0,0,4.286-4.351.327.327,0,0,1,.51.408,30.169,30.169,0,0,1-4.405,4.466,22.134,22.134,0,0,1-2.507,1.749.322.322,0,0,1-.138.031" transform="translate(-508.982 -33.561)" fill="#2f3f4f"/>
        <path id="Trazado_136923" data-name="Trazado 136923" d="M472.341,128.733q-2.3,3.056-4.44,6.232c-2.2,3.256-5.055,6.875-4.491,11.042.93,6.879,8.206,8.472,13.091,5.893,5.03-2.656,13.91-16.418,13.91-16.418Z" transform="translate(-290.163 -80.618)" fill="#a66353"/>
        <path id="Trazado_136924" data-name="Trazado 136924" d="M499.047,71.071A18.2,18.2,0,0,0,488.76,75.75c-5.062,4.463-15.022,16.383-15.022,16.383l23.731,15.022s8.654-20.16,8.817-21.429-7.239-14.655-7.239-14.655" transform="translate(-296.676 -44.508)" fill="#ffe7cf"/>
        <path id="Trazado_136925" data-name="Trazado 136925" d="M534.05,88.377c.013,14.82-9.934,32.252-14,38.77-.941,1.5-1.568,2.423-1.685,2.6a1.306,1.306,0,0,1-2.156-1.476c.052-.078,1.973-2.913,4.435-7.308,4.48-8.008,10.757-21.214,10.8-32.448v-.131a33.834,33.834,0,0,0-1.476-9.673V78.7a39.018,39.018,0,0,0-3.7-8.464c.62-.072,1.6-.2,2.821-.34a38.756,38.756,0,0,1,4.964,18.477" transform="translate(-323.129 -43.775)" fill="#2f3f4f"/>
        <path id="Trazado_136926" data-name="Trazado 136926" d="M499.233,116.791l7.754,5.992,5.512.9s-21,18.515-24.846,20.529c-4.912,2.57-6.191-4.619-6.831-6.233s-.083-9.129,1.056-9.738,17.354-11.45,17.354-11.45" transform="translate(-300.944 -73.14)" fill="#a66353"/>
        <path id="Trazado_136927" data-name="Trazado 136927" d="M544.006,105.259a7.218,7.218,0,0,1-1.8,4.572c-2.123,2.338-8.941,6.407-8.941,6.407s-5.323-2.22-5.486-2.384-5.114-6.2-5.114-6.2a71.9,71.9,0,0,1,10.96-7.518,8.432,8.432,0,0,1,6.655-.653,6.468,6.468,0,0,1,.777.359,5.616,5.616,0,0,1,1.581,1.274,3.353,3.353,0,0,1,.235.3,4.806,4.806,0,0,1,.359.542,6.172,6.172,0,0,1,.758,2.548,5.732,5.732,0,0,1,.013.751" transform="translate(-327.318 -62.041)" fill="#a66353"/>
        <path id="Trazado_136928" data-name="Trazado 136928" d="M666.538,522.61H644.194a3.132,3.132,0,0,1-2.913-1.992,3.071,3.071,0,0,1-.15-.49l-.908-7.237h16.283c1.417.869,3.168,1.953,4.885,3.037a.007.007,0,0,1,.007.007c.222.137.431.281.653.418.189.118.372.235.555.353,2.848,1.816,5.3,3.474,5.428,3.86.006.013.006.026.013.039s0,.007.007.013a1.565,1.565,0,0,1-1.515,1.992" transform="translate(-400.936 -321.195)" fill="#2f3f4f"/>
        <path id="Trazado_136929" data-name="Trazado 136929" d="M677.379,513.05c.019.065-.013.1-.078.1-.288.046-11.548-2.613-11.548-2.613.249-.183.5-.36.751-.529.314-.222.627-.431.947-.64A6.621,6.621,0,0,1,669.7,508.3h.006c.346.216,1.4.862,2.783,1.718,1.417.869,3.168,1.953,4.885,3.037" transform="translate(-416.924 -318.317)" fill="#2f3f4f"/>
        <path id="Trazado_136930" data-name="Trazado 136930" d="M668.311,535.556H645.967a3.132,3.132,0,0,1-2.913-1.992h26.772a1.564,1.564,0,0,1-1.515,1.992" transform="translate(-402.709 -334.142)" fill="#ffe7cf"/>
        <path id="Trazado_136931" data-name="Trazado 136931" d="M679.417,520.785a.32.32,0,0,1-.145-.034l-4.681-2.327a.326.326,0,1,1,.291-.584l4.681,2.327a.326.326,0,0,1-.146.619" transform="translate(-422.345 -324.273)" fill="#ffe7cf"/>
        <path id="Trazado_136932" data-name="Trazado 136932" d="M548.392,518.145a1.528,1.528,0,0,1-1.528,1.535H526.832a2.321,2.321,0,0,1-2.3-1.992,2.245,2.245,0,0,1,.039-.856l.6-5.728h6.6s1.685-2.56,4.187-2.861a4.253,4.253,0,0,1,3.866,1.718l8.086,7.06a1.453,1.453,0,0,1,.411.666,1.524,1.524,0,0,1,.072.457" transform="translate(-328.471 -318.266)" fill="#2f3f4f"/>
        <path id="Trazado_136933" data-name="Trazado 136933" d="M548.432,534.021a1.528,1.528,0,0,1-1.528,1.535H526.872a2.321,2.321,0,0,1-2.3-1.992H548.36a1.524,1.524,0,0,1,.072.457" transform="translate(-328.511 -334.142)" fill="#ffe7cf"/>
        <path id="Trazado_136934" data-name="Trazado 136934" d="M548.553,521.535a.326.326,0,0,1-.2-.068l-3.715-2.857a.327.327,0,1,1,.4-.518l3.715,2.857a.327.327,0,0,1-.2.586" transform="translate(-340.998 -324.41)" fill="#ffe7cf"/>
        <path id="Trazado_136935" data-name="Trazado 136935" d="M476.905,145.578a.327.327,0,0,1-.184-.6l5.68-3.852a.327.327,0,0,1,.367.541l-5.68,3.852a.325.325,0,0,1-.183.056" transform="translate(-298.455 -88.346)" fill="#2f3f4f"/>
        <path id="Trazado_136936" data-name="Trazado 136936" d="M560.737,100.543a51.9,51.9,0,0,0-6.14,3.684.3.3,0,0,1-.183.059.321.321,0,0,1-.268-.144.325.325,0,0,1,.078-.451,56.781,56.781,0,0,1,5.734-3.507,6.411,6.411,0,0,1,.777.359" transform="translate(-346.995 -62.74)" fill="#2f3f4f"/>
        <path id="Trazado_136937" data-name="Trazado 136937" d="M565.945,105.9c-2.776,1.581-6.46,3.971-6.512,4a.293.293,0,0,1-.176.052.34.34,0,0,1-.274-.144.333.333,0,0,1,.1-.457c.2-.124,3.749-2.436,6.505-4a4.773,4.773,0,0,1,.359.542" transform="translate(-350.027 -65.979)" fill="#2f3f4f"/>
        <path id="Trazado_136938" data-name="Trazado 136938" d="M570,114.374c-2.6,1.548-5.277,3.279-5.323,3.3a.293.293,0,0,1-.177.052.331.331,0,0,1-.274-.15.327.327,0,0,1,.1-.451c.183-.117,3.011-1.94,5.663-3.507a5.722,5.722,0,0,1,.013.751" transform="translate(-353.31 -71.156)" fill="#2f3f4f"/>
        <path id="Trazado_136939" data-name="Trazado 136939" d="M670.575,120.009h-.012a.326.326,0,0,1-.314-.338l.574-16.036a.319.319,0,0,1,.338-.315.326.326,0,0,1,.314.338l-.574,16.036a.326.326,0,0,1-.326.315" transform="translate(-419.74 -64.704)" fill="#0f0a1c"/>
      </g>
    </g>
  </g>
</svg>
