<svg xmlns="http://www.w3.org/2000/svg" xmlns:xlink="http://www.w3.org/1999/xlink" width="218" height="214" viewBox="0 0 218 214">
  <defs>
    <clipPath id="clip-path">
      <rect id="Rect치ngulo_38038" data-name="Rect치ngulo 38038" width="152.49" height="180.598" fill="none"/>
    </clipPath>
  </defs>
  <g id="Grupo_158817" data-name="Grupo 158817" transform="translate(-352 -4325)">
    <g id="Grupo_158812" data-name="Grupo 158812" transform="translate(0 6)">
      <g id="Grupo_158146" data-name="Grupo 158146" transform="translate(39.229 1680)">
        <rect id="Rect치ngulo_36141" data-name="Rect치ngulo 36141" width="218" height="214" transform="translate(312.771 2639)" fill="#e1e8ff"/>
      </g>
      <g id="Grupo_158823" data-name="Grupo 158823" transform="translate(387 4339)">
        <g id="Grupo_158823-2" data-name="Grupo 158823" transform="translate(-2.739 -3.244)" clip-path="url(#clip-path)">
          <path id="Trazado_134943" data-name="Trazado 134943" d="M22.2,66.322c-.409-16,3.287-30.838,12.646-44,7.5-10.541,17.337-17.877,30.019-21.061C67.173.686,69.554.414,71.9,0h7.054c1.9.607,3.9.564,5.836.985a48.518,48.518,0,0,1,22.8,11.906c11.331,10.359,17.563,23.385,20.073,38.363a75.262,75.262,0,0,1,.984,15.067c-2.411,1.026-4.891.486-7.352.334-.89-.388-.78-1.226-.847-1.964a84.594,84.594,0,0,0-4.6-22.179c-3.82-10.194-9.437-19.151-18.064-25.995a34.811,34.811,0,0,0-44.672-.035c-8.621,6.843-14.292,15.764-18.089,25.975A83.5,83.5,0,0,0,30.4,64.807c-.057.687.006,1.449-.795,1.828-2.48.194-4.972.709-7.4-.313" transform="translate(0.826)" fill="#fedf7d"/>
          <path id="Trazado_134944" data-name="Trazado 134944" d="M133.384,75.815q6.95,19.637,13.89,39.279c1.785,5.081,3.868,10.075,4.506,15.5,1.607,13.666-2.533,25.347-12.056,35.188-.566.586-1.195,1.112-1.794,1.665a35.627,35.627,0,0,1-16.014,3.431q-35.081-.054-70.162,0A40.225,40.225,0,0,1,26,161.842a40.9,40.9,0,0,1-15.72-28.368,39.183,39.183,0,0,1,1.615-17.07c2.982-8.854,6.241-17.612,9.217-26.467.206-.613.452-1.212.713-1.8,1.067-2.424,3.178-2.97,5.258-1.281A73.644,73.644,0,0,0,36.1,93.311a70.359,70.359,0,0,0,15.586,6.475,11.489,11.489,0,0,1,2.656.916c.507.5.457,1.171.558,1.8.948,5.878,4.786,9.173,10.716,9.181,1.459,0,2.92.043,4.379-.021q7.722.009,15.441,0c6.572,0,10.2-3.024,11.416-9.494a5.2,5.2,0,0,1,.245-1.02c.519-.882,1.5-.861,2.307-1.09a66.677,66.677,0,0,0,18.043-7.74c6.27-4.007,11.657-8.871,15.178-15.558a1.939,1.939,0,0,1,.76-.94" transform="translate(0.372 2.825)" fill="#c94646"/>
          <path id="Trazado_134945" data-name="Trazado 134945" d="M22.215,63.961l7.713-.064c1.853-.94,3.829-.352,5.747-.468a26.091,26.091,0,0,1,2.819-.052q37.2,0,74.4,0a19.379,19.379,0,0,1,2.289.051c1.926.116,3.91-.476,5.769.469l7.713.064c.145.345.453.637.349,1.063a21.5,21.5,0,0,1-4.027,11.8c-3.21,4.777-7.593,8.261-12.454,11.2A60.89,60.89,0,0,1,99,93.9c-.761.238-1.557.657-2.317-.043a4.41,4.41,0,0,1-.673-1.8,9.84,9.84,0,0,0-9.507-7.478c-5.629-.065-11.261-.007-16.89-.016-1.695-.083-3.391-.031-5.087-.026a9.974,9.974,0,0,0-9.778,7.339,7.657,7.657,0,0,1-.651,1.993c-.578.547-1.236.281-1.828.1-8.828-2.679-16.988-6.6-23.411-13.411A24.575,24.575,0,0,1,21.98,66.942c-.088-.644-.063-1.28-.112-1.919-.107-.426.2-.718.347-1.062" transform="translate(0.814 2.361)" fill="#c94646"/>
          <path id="Trazado_134946" data-name="Trazado 134946" d="M22.683,64.963c.913,1.974.822,4.194,1.632,6.223,2.431,6.1,6.62,10.654,11.927,14.352a59.467,59.467,0,0,0,18.441,8.346,9.577,9.577,0,0,1,0,7.387,48.051,48.051,0,0,1-9.867-3.021A57.412,57.412,0,0,1,26.9,87.393a2.526,2.526,0,0,0-4.208,1.184q-3.244,9.1-6.414,18.224c-1.718,4.914-3.824,9.722-4.7,14.882a41.706,41.706,0,0,0,2.5,23.563,41.686,41.686,0,0,0,32.287,25.207,39.926,39.926,0,0,0,5.952.311q35.337.012,70.671.025a40.984,40.984,0,0,0,14.2-2.8c.355-.131.684-.542,1.109-.137a40.146,40.146,0,0,1-21.851,10,53.312,53.312,0,0,1-7.383.317q-34.029.014-68.057,0c-18.594-.007-35.528-13.437-39.872-31.517-2.273-9.46-.957-18.489,2.334-27.541,6.483-17.842,12.616-35.811,18.9-53.726a1.783,1.783,0,0,1,.311-.424" transform="translate(0 2.421)" fill="#b93434"/>
          <path id="Trazado_134947" data-name="Trazado 134947" d="M94.289,93.875a54.47,54.47,0,0,0,12.626-4.761A43.227,43.227,0,0,0,117.533,81.7c4.257-4.182,7.564-8.932,8.272-15.1a2.35,2.35,0,0,1,.533-1.632c1.425,3.711,2.806,7.439,3.93,11.255a24.351,24.351,0,0,1-5.623,8.587c-7.528,8.05-16.941,12.9-27.452,15.8a7.56,7.56,0,0,1-2.883.663,10.211,10.211,0,0,1-.022-7.4" transform="translate(3.488 2.421)" fill="#b93434"/>
          <path id="Trazado_134948" data-name="Trazado 134948" d="M120.659,65.97l-5.631.013c-.695-.736-.5-1.664-.479-2.52a56.024,56.024,0,0,0-6.794-28.133C102.6,25.735,95.3,18.381,84.675,15c-9.538-3.036-18.617-1.606-27.03,3.684C49.51,23.8,44.021,31.166,40.317,39.934A56.649,56.649,0,0,0,35.745,63.11c.016.968.283,2.016-.475,2.873l-5.631-.013c.665-13.765,4.169-26.661,11.917-38.2,4.782-7.122,10.8-12.951,18.626-16.668a34.346,34.346,0,0,1,12.98-3.326c11.15-.619,20.238,3.669,28.1,11.174C111.268,28.5,116.537,40.5,119.228,53.818a82.275,82.275,0,0,1,1.43,12.152" transform="translate(1.104 0.287)" fill="#fecf64"/>
          <path id="Trazado_134949" data-name="Trazado 134949" d="M95.562,93.192q.011,3.7.021,7.4c-.421,6.212-3.414,9.975-8.879,11.113a10.355,10.355,0,0,1-2.1.172q-8.285-.009-16.571-.051c-5.608-1.391-8.57-5.2-8.583-11.039-.006-2.289.022-4.58-.006-6.868-.05-4.127,1.912-7.126,5.146-9.484,1.057-.771,2.322-.7,3.452-1.132,5.857,0,11.717-.068,17.573.02a10.415,10.415,0,0,1,9.577,8.153c.116.573.246,1.143.369,1.715" transform="translate(2.215 3.103)" fill="#fedf7d"/>
          <path id="Trazado_134950" data-name="Trazado 134950" d="M68.293,83.306c-1.834.871-3.718,1.6-5.155,3.18a10.247,10.247,0,0,0-2.967,7.265c.039,2.585,0,5.169.009,7.755a10.5,10.5,0,0,0,6.542,9.573,3.859,3.859,0,0,1,1.562.749c-2.338.046-4.714.373-7-.131-5.339-1.176-8.243-5.048-8.565-11.108l0-7.387A10.748,10.748,0,0,1,64.1,83.25c1.394.088,2.8.04,4.2.056" transform="translate(1.964 3.101)" fill="#fecf64"/>
        </g>
      </g>
    </g>
  </g>
</svg>
