<svg xmlns="http://www.w3.org/2000/svg" xmlns:xlink="http://www.w3.org/1999/xlink" width="285.67" height="609.129" viewBox="0 0 285.67 609.129">
  <defs>
    <clipPath id="clip-path">
      <rect id="Rect치ngulo_37370" data-name="Rect치ngulo 37370" width="213.354" height="609.129" fill="none"/>
    </clipPath>
    <clipPath id="clip-path-3">
      <rect id="Rect치ngulo_37368" data-name="Rect치ngulo 37368" width="8.257" height="5.297" fill="none"/>
    </clipPath>
  </defs>
  <g id="Grupo_157551" data-name="Grupo 157551" transform="translate(0)">
    <path id="Trazado_114544" data-name="Trazado 114544" d="M189.075,605.011c-39.647-17.986-80.763-42.254-96.731-82.841-17.721-45.043.828-95.486.383-143.9-.354-38.356-12.75-75.4-22.5-112.487s-16.917-76.5-6.854-113.505C70.107,127.5,84.415,105.086,102.888,87.3c32.529-31.32,79.4-48.269,123.927-41.105s84.986,39.8,98,83.1c18.444,61.34-17.585,126.818-9.927,190.423,3,24.888,12.585,48.424,19.088,72.63a298.3,298.3,0,0,1,10.19,79.02c-.243,40.828-10.563,84.39-40.941,111.579C272.586,610.37,226.986,622.211,189.075,605.011Z" transform="translate(-58.504 -11.376)" fill="#e1e8ff"/>
    <g id="Grupo_157545" data-name="Grupo 157545" transform="translate(36 0)">
      <g id="Grupo_157544" data-name="Grupo 157544" transform="translate(0 0)" clip-path="url(#clip-path)">
        <g id="Grupo_157543" data-name="Grupo 157543">
          <g id="Grupo_157542" data-name="Grupo 157542" clip-path="url(#clip-path)">
            <path id="Trazado_128754" data-name="Trazado 128754" d="M132.986,66.159s-16.447-5.367-26.808,1.955S91.83,95.172,91.83,95.172l32.189-.619Z" transform="translate(-72.393 42.64)" fill="#5b413c"/>
            <path id="Trazado_128755" data-name="Trazado 128755" d="M141.816,99.129s-26.6-20.064-33.429,4.034c-7.358,25.963,6.914,41.555,6.914,41.555l17.547-17.194Z" transform="translate(-105.262 60.578)" fill="#5b413c"/>
            <path id="Trazado_128756" data-name="Trazado 128756" d="M156.861,64.833S118.2,44.122,87.372,94.449s-12.209,110.744,14.97,125.992,58.307-3.959,58.307-3.959Z" transform="translate(-66.057 40.217)" fill="#36251f"/>
            <path id="Trazado_128757" data-name="Trazado 128757" d="M35.941,334.588l1.02,14.463h-24.1l-1.02-14.463Z" transform="translate(156.704 222.008)" fill="#ff9568"/>
            <path id="Trazado_128758" data-name="Trazado 128758" d="M77.335,163.312s17.613,130.625-.883,149.393c-7.394,7.5-30.479,9.82-38.492-3.733-12.6-21.3-17.034-74.98-18.48-103.531Z" transform="translate(96.04 108.362)" fill="#36251f"/>
            <path id="Trazado_128759" data-name="Trazado 128759" d="M11.987,259.413S5.09,273.034,16.677,314c8.847,31.273,27.688,98.461,27.688,98.461s18.239,2.186,30.424-2.846L59.131,221.164Z" transform="translate(122.013 146.748)" fill="#36251f"/>
            <path id="Trazado_128760" data-name="Trazado 128760" d="M70.76,403.357a1.125,1.125,0,0,0,.286-.037,1.161,1.161,0,0,0,.842-1.412c-.171-.685-17.372-68.634-22.2-84.259-4.779-15.467-6.849-45.384-6.87-45.685a1.142,1.142,0,0,0-.095-.389c-9.643-21.987-14.409-66.065-14.456-66.508a1.175,1.175,0,0,0-1.279-1.035,1.162,1.162,0,0,0-1.035,1.279c.047.446,4.823,44.636,14.558,67.014.2,2.888,2.249,30.787,6.955,46.011,4.811,15.569,22,83.459,22.168,84.143a1.164,1.164,0,0,0,1.128.878" transform="translate(98.271 135.377)" fill="#5b413c"/>
            <path id="Trazado_128761" data-name="Trazado 128761" d="M15.23,332.481c12.658,0,26.41-3.319,27.046-3.473a1.164,1.164,0,0,0-.552-2.262c-.168.042-16.923,4.076-30.088,3.309a1.163,1.163,0,1,0-.138,2.322c1.224.072,2.474.1,3.733.1" transform="translate(152.888 216.783)" fill="#5b413c"/>
            <path id="Trazado_128762" data-name="Trazado 128762" d="M.007,378.481c0,.2,0,.4.01.594.018.9.058,1.71.1,2.4.091,1.529.2,2.469.2,2.469H51.034a27.851,27.851,0,0,0,.058-4.872c-.333-5.184-2.053-13.37-9.058-18.778-9.589-7.414-5.886-5.867-7.854-9.246-.221-.376-1.946-6.118-2.131-6.513-1.649-3.51-3.166-5.169-12.254-5.169-12.052,0-13.112,5.847-14.4,8.928a57.368,57.368,0,0,0-2.006,7.16c-.3,1.281-.607,2.65-.9,4.044-.744,3.5-1.437,7.145-1.91,10.056a52.807,52.807,0,0,0-.569,8.923" transform="translate(162.188 225.181)" fill="#ff9918"/>
            <path id="Trazado_128763" data-name="Trazado 128763" d="M26.886,372.084c0,.2,0,.4.01.594.018.9.058,1.71.1,2.4a14.155,14.155,0,0,0,5.268-6.83c3.139-8.547-1.687-18.806-1.89-19.24l-.1.05c-.3,1.281-.607,2.65-.9,4.044,1.141,3.49,2.457,9.357.63,14.323a11.8,11.8,0,0,1-3.109,4.656" transform="translate(135.309 231.578)" fill="#dd6a18"/>
            <path id="Trazado_128764" data-name="Trazado 128764" d="M0,363.237c.068,2.888.3,4.874.3,4.874H51.019a28,28,0,0,0,.057-4.874Z" transform="translate(162.205 241.018)" fill="#dd6a18"/>
            <path id="Trazado_128765" data-name="Trazado 128765" d="M12.921,350.372a1.438,1.438,0,0,0,.363-.047,25.073,25.073,0,0,1,11.759-.241,1.446,1.446,0,0,0,.77-2.788,27.762,27.762,0,0,0-13.253.23,1.446,1.446,0,0,0,.361,2.846" transform="translate(167.39 229.989)" fill="#f4ece1"/>
            <path id="Trazado_128766" data-name="Trazado 128766" d="M13.283,347.139a1.46,1.46,0,0,0,.364-.047,25.066,25.066,0,0,1,11.758-.241,1.446,1.446,0,0,0,.77-2.788,27.762,27.762,0,0,0-13.253.23,1.446,1.446,0,0,0,.361,2.846" transform="translate(166.426 227.844)" fill="#f4ece1"/>
            <path id="Trazado_128767" data-name="Trazado 128767" d="M11.618,353.126a1.453,1.453,0,0,0,.364-.047,25.305,25.305,0,0,1,11.759-.241,1.447,1.447,0,0,0,.77-2.79,27.809,27.809,0,0,0-13.255.231,1.446,1.446,0,0,0,.361,2.846" transform="translate(170.863 231.817)" fill="#f4ece1"/>
            <path id="Trazado_128768" data-name="Trazado 128768" d="M10.085,356.258a1.441,1.441,0,0,0,.364-.047,25.3,25.3,0,0,1,11.759-.241,1.446,1.446,0,0,0,.769-2.788,27.772,27.772,0,0,0-13.253.228,1.447,1.447,0,0,0,.361,2.848" transform="translate(174.944 233.895)" fill="#f4ece1"/>
            <path id="Trazado_128769" data-name="Trazado 128769" d="M105.971,334.862l-2.346,17.6H81.793l2.346-17.6Z" transform="translate(-28.682 222.19)" fill="#ff9568"/>
            <path id="Trazado_128770" data-name="Trazado 128770" d="M80.11,381.737H159.6a11.188,11.188,0,0,0,1.046-4.415c.494-6.722-1.647-17.454-2.7-24.219-.125-.79-.235-1.529-.321-2.2a23.627,23.627,0,0,1-.235-2.763c0-5.521-4.889-4.576-4.889-4.576-8.045,7.888-17.151-3.941-22.469-.06,0,0-2.289,1.64-8.6,7.32s-17.043,9.424-26.181,13.247C83.457,369,80.11,373.93,79.458,377.322a6.212,6.212,0,0,0,.652,4.415" transform="translate(-79.326 227.392)" fill="#ff9918"/>
            <path id="Trazado_128771" data-name="Trazado 128771" d="M80.154,367.928h79.49a11.188,11.188,0,0,0,1.046-4.415H79.5a6.211,6.211,0,0,0,.652,4.415" transform="translate(-79.37 241.201)" fill="#dd6a18"/>
            <path id="Trazado_128772" data-name="Trazado 128772" d="M84.824,378.464h2.361a17.452,17.452,0,0,1-4.272-12.728c.383-7.853,5.1-13.148,8.369-15.907-.126-.79-.236-1.529-.321-2.2-3.53,2.7-9.477,8.6-9.941,18.008a19.287,19.287,0,0,0,3.8,12.822" transform="translate(-12.66 230.665)" fill="#dd6a18"/>
            <path id="Trazado_128773" data-name="Trazado 128773" d="M107.624,351.942a1.31,1.31,0,0,0,.314-2.582l-4.966-1.233a1.31,1.31,0,0,0-.63,2.544l4.966,1.233a1.368,1.368,0,0,0,.316.038" transform="translate(-64.173 230.966)" fill="#f4ece1"/>
            <path id="Trazado_128774" data-name="Trazado 128774" d="M104.988,349.312a1.31,1.31,0,0,0,.314-2.582l-4.966-1.233a1.31,1.31,0,1,0-.63,2.542l4.966,1.234a1.368,1.368,0,0,0,.316.038" transform="translate(-57.151 229.221)" fill="#f4ece1"/>
            <path id="Trazado_128775" data-name="Trazado 128775" d="M110.609,353.677a1.31,1.31,0,0,0,.314-2.582l-4.966-1.233a1.309,1.309,0,1,0-.63,2.542l4.966,1.233a1.286,1.286,0,0,0,.316.04" transform="translate(-72.122 232.118)" fill="#f4ece1"/>
            <path id="Trazado_128776" data-name="Trazado 128776" d="M113.593,355.345a1.31,1.31,0,0,0,.314-2.582l-4.966-1.233a1.309,1.309,0,1,0-.63,2.542l4.966,1.234a1.371,1.371,0,0,0,.316.038" transform="translate(-80.071 233.224)" fill="#f4ece1"/>
            <path id="Trazado_128777" data-name="Trazado 128777" d="M116.848,356.887a1.31,1.31,0,0,0,.314-2.582l-4.966-1.233a1.31,1.31,0,1,0-.63,2.544l4.966,1.233a1.371,1.371,0,0,0,.316.038" transform="translate(-88.741 234.248)" fill="#f4ece1"/>
            <path id="Trazado_128778" data-name="Trazado 128778" d="M120.377,358.2a1.31,1.31,0,0,0,.314-2.582l-4.966-1.233a1.309,1.309,0,1,0-.63,2.542l4.966,1.233a1.289,1.289,0,0,0,.316.04" transform="translate(-98.141 235.121)" fill="#f4ece1"/>
            <path id="Trazado_128779" data-name="Trazado 128779" d="M54.82,172.485S50.146,279.511,56.948,304.97c1.582,5.924,33.46,5.42,41.107-5.436,15.077-21.4,19.333-69.236,20.558-100.246Z" transform="translate(6.151 114.449)" fill="#36251f"/>
            <path id="Trazado_128780" data-name="Trazado 128780" d="M116.927,262.325a254.81,254.81,0,0,1-2,49.826c-4.714,32.158-23.777,100.725-23.777,100.725s-15.334.156-26.512-2.452L71.21,225.862Z" transform="translate(-11.526 149.866)" fill="#36251f"/>
            <path id="Trazado_128781" data-name="Trazado 128781" d="M106.938,333.351a1.164,1.164,0,0,0,.063-2.326l-27.566-1.537a1.165,1.165,0,1,0-.13,2.326l27.566,1.535c.023,0,.045,0,.067,0" transform="translate(-24.845 218.624)" fill="#5b413c"/>
            <path id="Trazado_128782" data-name="Trazado 128782" d="M61.682,404.859a1.164,1.164,0,0,0,1.128-.882c.17-.677,16.931-67.978,20.047-85.559,2.969-16.75-2.563-40.435-3.448-44.043,13.924-27.061,15.336-68.511,15.349-68.928a1.166,1.166,0,0,0-1.128-1.2h-.037a1.165,1.165,0,0,0-1.163,1.13c-.012.414-1.424,41.741-15.289,68.316a1.164,1.164,0,0,0-.1.825c.067.259,6.584,26.206,3.522,43.494-3.1,17.5-19.846,84.724-20.016,85.4a1.163,1.163,0,0,0,.848,1.409,1.106,1.106,0,0,0,.283.035" transform="translate(17.924 135.524)" fill="#5b413c"/>
            <path id="Trazado_128783" data-name="Trazado 128783" d="M12.732,94.246c.028.09.052.176.08.263l.068.22,1.4,4.408,1.4,4.465,2.743,8.963q2.717,8.973,5.288,17.964.978,3.443,1.935,6.885,1.088,3.925,2.138,7.845.429,1.614.852,3.231c1.56,5.974,3.038,11.941,4.325,17.815.63,2.928,1.243,5.854,1.732,8.67.138.715.235,1.394.353,2.091l.165,1.026.131.945.135.942c.042.318.07.645.108.967.065.645.151,1.281.193,1.946a104.14,104.14,0,0,1-.045,16.5,161.434,161.434,0,0,1-2.264,17.2c-.529,2.878-1.13,5.754-1.785,8.61-.334,1.426-.677,2.848-1.038,4.249l-.552,2.078-.526,1.86-.155.556a14.927,14.927,0,0,0,28.579,8.612l.452-1.409.394-1.269.739-2.492c.476-1.65.922-3.292,1.352-4.939q1.29-4.933,2.354-9.92a193.618,193.618,0,0,0,3.254-20.345c.356-3.468.612-6.978.732-10.547s.108-7.186-.1-10.883c-.038-.918-.125-1.853-.2-2.781-.038-.469-.07-.932-.118-1.4l-.155-1.412-.16-1.411c-.055-.459-.12-.877-.183-1.319-.123-.867-.238-1.757-.379-2.6-.521-3.432-1.135-6.717-1.773-9.988-1.284-6.524-2.717-12.877-4.22-19.184q-.539-2.251-1.088-4.49c-.356-1.439-.71-2.878-1.076-4.314q-1.253-5-2.559-9.961-2.448-9.322-5.039-18.575L47.6,94.07l-1.339-4.625-1.374-4.67a16.761,16.761,0,0,0-32.156,9.47" transform="translate(125.971 48.27)" fill="#ff9568"/>
            <path id="Trazado_128784" data-name="Trazado 128784" d="M17.125,113.839q1.088,3.925,2.136,7.845l31.111-9.091c-.358-1.439-.712-2.878-1.08-4.314Z" transform="translate(134.494 71.846)" fill="#e0693e"/>
            <path id="Trazado_128785" data-name="Trazado 128785" d="M15.484,96.894l10.761,45.431,39.946-8.908s-8.96-47.893-21.005-56.883c-6.669-4.977-12.586-6.059-19.5-2.469a20.389,20.389,0,0,0-10.2,22.829" transform="translate(122.339 47.741)" fill="#236676"/>
            <path id="Trazado_128786" data-name="Trazado 128786" d="M134.818,159.713s5.822,35.232,1.87,49.337S36.912,235.463,30.709,222.425c-11.966-25.153-7.132-53.542-7.132-53.542,43.636,10.054,79.693,4.769,111.24-9.169" transform="translate(37.675 105.974)" fill="#36251f"/>
            <path id="Trazado_128787" data-name="Trazado 128787" d="M56.979,165.088q.025.586.052,1.189c.447,10.567,1,25.53,1.294,40.8.018.842.032,1.69.05,2.532.08,4.871.136,9.752.151,14.506a1.227,1.227,0,0,1-1.213,1.228H57.3a1.224,1.224,0,0,1-1.226-1.221c-.013-4.593-.067-9.3-.145-14-.013-.827-.027-1.654-.045-2.482-.288-15.363-.845-30.458-1.3-41.117-.022-.487-.042-.965-.062-1.436Z" transform="translate(64.121 109.54)" fill="#5b413c"/>
            <path id="Trazado_128788" data-name="Trazado 128788" d="M54.021,165.088c.03.654.062,1.321.091,2.008.654,13.826,1.654,33.4,2.314,38.018a2.736,2.736,0,0,0,1.379,2.209c1.266.7,3.214.662,5.165.318a24.574,24.574,0,0,0,2.437-.564,28.732,28.732,0,0,0,3.415-1.2,1.223,1.223,0,1,1,.983,2.241,31.269,31.269,0,0,1-4.348,1.49,24.41,24.41,0,0,1-2.442.514,16.937,16.937,0,0,1-2.329.2,8.214,8.214,0,0,1-4.074-.863,5.2,5.2,0,0,1-2.612-4c-.68-4.768-1.687-24.367-2.336-38.228-.037-.732-.07-1.441-.1-2.141Z" transform="translate(57.038 109.54)" fill="#5b413c"/>
            <path id="Trazado_128789" data-name="Trazado 128789" d="M27.425,148.948c.25,2.1.462,4.7.659,7.7q.1,1.545.2,3.216c.549,9.329,1.025,21.6,1.908,34.327.078,1.14.165,2.291.256,3.437,2.053,27.4-6.037,36.94,5.551,39.575,70.387,16.015,99.134-.043,107.7-6.747,9.459-7.4,3.081-37.063-.4-72.034-.115-1.183-.225-2.346-.341-3.485-.932-9.517-1.627-17.329-1.645-21.892-.073-21.215-2.851-43.831-6.025-53.524S96.748,62.128,96.748,62.128l-39.2,1.662S45.2,71.043,31.17,85.647s-6.376,41.026-3.745,63.3" transform="translate(26.496 41.224)" fill="#236676"/>
            <path id="Trazado_128790" data-name="Trazado 128790" d="M65.375,95.846l16.562,29.142-15.2,1.065,12.877,21.212-38.74-29.726,19.112-3.147L41.57,97.7Z" transform="translate(63.415 63.597)" fill="#104151"/>
            <path id="Trazado_128791" data-name="Trazado 128791" d="M23.569,63.725s6.847,43.451,10.951,62.334a127.11,127.11,0,0,0,18.344,43.233,134.2,134.2,0,0,0,11.545,14.433c1,.1,3.715-11.487-3.131-27.495C48.663,126.733,38.9,73.941,34.966,67.3s-11.4-3.57-11.4-3.57" transform="translate(108.359 41.812)" fill="#36251f"/>
            <path id="Trazado_128792" data-name="Trazado 128792" d="M48.42,85.135a37.757,37.757,0,0,0-12.628-.2,3.868,3.868,0,0,0-3.124,4.393c.805,5.278,2.515,15.457,4.586,21.835a3.868,3.868,0,0,0,4.375,2.605l10.562-1.928a3.867,3.867,0,0,0,3.016-4.9c-1.346-4.533-3.287-12-3.587-18.192a3.857,3.857,0,0,0-3.2-3.6" transform="translate(103.714 56.057)" fill="#5b413c"/>
            <path id="Trazado_128793" data-name="Trazado 128793" d="M61.362,88.32a49.6,49.6,0,0,0,26.853-7.957,51.339,51.339,0,0,0,13.205-11.918,1.164,1.164,0,0,0-1.891-1.357c-.173.243-17.786,24.184-48.424,17.828A1.164,1.164,0,0,0,50.63,87.2,52.752,52.752,0,0,0,61.362,88.32" transform="translate(29.032 44.193)" fill="#104151"/>
            <path id="Trazado_128794" data-name="Trazado 128794" d="M76.185,72.854a56.839,56.839,0,0,1,23.233,36.23C104,133.8,86.9,167.813,67.4,177.5a25.055,25.055,0,0,0,.858,17.993s42.11-12.826,45.962-66.257S88.067,67.259,88.067,67.259c-3.79-1.093-9.717,2.47-11.883,5.594" transform="translate(-11.237 44.495)" fill="#36251f"/>
            <path id="Trazado_128795" data-name="Trazado 128795" d="M67.5,88.839a35.623,35.623,0,0,1,11.525-3.048,3.65,3.65,0,0,1,3.858,3.317c.457,5.019,1.2,14.734.744,21.047a3.649,3.649,0,0,1-3.417,3.379l-10.116.627a3.653,3.653,0,0,1-3.874-3.811c.206-4.458.293-11.741-.835-17.482A3.64,3.64,0,0,1,67.5,88.839" transform="translate(20.937 56.92)" fill="#5b413c"/>
            <path id="Trazado_128796" data-name="Trazado 128796" d="M31.912,130.512h.037a.808.808,0,0,0,.77-.842c-.013-.286-1.3-28.686-4.6-45.489a.806.806,0,0,0-1.582.311c3.282,16.685,4.558,44.965,4.571,45.248a.806.806,0,0,0,.805.772" transform="translate(136.519 55.424)" fill="#104151"/>
            <path id="Trazado_128797" data-name="Trazado 128797" d="M27.767,93.619a.806.806,0,0,0,.767-.556l2.031-6.185a.807.807,0,0,0-1.534-.5L27,92.561a.808.808,0,0,0,.516,1.018.826.826,0,0,0,.251.04" transform="translate(137.9 56.943)" fill="#104151"/>
            <path id="Trazado_128798" data-name="Trazado 128798" d="M43.213,181.293c15.288.96,31.181-4.979,46.61-17.534a130.981,130.981,0,0,0,23.995-25.966,1.116,1.116,0,1,0-1.863-1.228,128.827,128.827,0,0,1-23.584,25.5c-13.2,10.73-33.733,22.015-56.6,14.847a1.116,1.116,0,1,0-.667,2.131,51.1,51.1,0,0,0,12.107,2.252" transform="translate(48.91 90.282)" fill="#104151"/>
            <path id="Trazado_128799" data-name="Trazado 128799" d="M43.619,165.4a1.023,1.023,0,0,0,.246-.01c18.71-2.984,34.711-25.665,35.383-26.631a1.116,1.116,0,0,0-1.832-1.274c-.16.228-16.135,22.867-33.9,25.7a1.115,1.115,0,0,0,.1,2.214" transform="translate(63.083 90.91)" fill="#104151"/>
            <path id="Trazado_128800" data-name="Trazado 128800" d="M122.348,41.681s-2.1-10.672.639-19.526c2.692-8.714,2.692-13.92,1.013-15.466-5.283-4.867-10.252,6.974-10.252,6.974s1.394-11.008-3.177-11.317S102.8,12.7,102.8,12.7,103.654-2.922,97.668.487s-8.191,13.832-8.191,13.832S68.923,17.743,61.362,31.532c0,0-6.187-6.591-10.214-2.7s4.338,10.321,4.338,10.321-6.428,4.229-5.436,10.3,8.629,1.911,8.629,1.911S57.393,83.863,85,92.794s37.349-51.114,37.349-51.114" transform="translate(5.112 0)" fill="#d65900"/>
            <path id="Trazado_128801" data-name="Trazado 128801" d="M95.28,64.968,96.6,74.806a29.212,29.212,0,0,1-2.936,2.878C79.039,90.1,60.06,79.72,60.06,79.72L55.472,45.613l35.06,17.048Z" transform="translate(24.47 30.265)" fill="#ff9568"/>
            <path id="Trazado_128802" data-name="Trazado 128802" d="M83.464,59.3l1.324,9.838a29.215,29.215,0,0,1-2.936,2.878c-14.406-3.924-26.38-17.85-26.38-17.85l23.244,2.826Z" transform="translate(36.286 35.938)" fill="#36251f"/>
            <path id="Trazado_128803" data-name="Trazado 128803" d="M46.493,35.736s4.4-6.89,8.2-1.1,3.2,18.615-5.045,17.638Z" transform="translate(79.078 21.445)" fill="#e0693e"/>
            <path id="Trazado_128804" data-name="Trazado 128804" d="M108.055,64.483s2.144,19.272-17.688,21.9C70.659,88.991,56.3,79.335,55.5,78.711l-.023-.015-.754-3.978L50.808,54.076,48.714,43.043S43.505,23.37,62.032,17.162c13.536-4.536,26.876-3.981,34.427,2.384.245.2.482.418.709.637a17.248,17.248,0,0,1,5,8.817l3.3,19.879.808,4.872Z" transform="translate(25.316 9.416)" fill="#ff9568"/>
            <path id="Trazado_128805" data-name="Trazado 128805" d="M54.252,41.839s2.86,8.273,9.738,9.4c7.832,1.288,9.261-8.5,9.261-8.5Z" transform="translate(49.853 27.761)" fill="#f4ece1"/>
            <path id="Trazado_128806" data-name="Trazado 128806" d="M62.681,50.019a4.164,4.164,0,0,0,.457-.166.637.637,0,0,0-.524-1.161,4.08,4.08,0,0,1-4.019-.509.637.637,0,0,0-.8.995,5.256,5.256,0,0,0,4.881.842" transform="translate(54.086 31.878)" fill="#e0693e"/>
            <path id="Trazado_128807" data-name="Trazado 128807" d="M69.629,35.2c.256,1.906-.4,3.568-1.467,3.711s-2.138-1.286-2.4-3.192.4-3.567,1.467-3.711,2.139,1.286,2.4,3.192" transform="translate(34.358 21.232)" fill="#36251f"/>
            <path id="Trazado_128808" data-name="Trazado 128808" d="M58.293,33.675c.256,1.906-.4,3.568-1.467,3.711s-2.138-1.286-2.4-3.192.4-3.567,1.467-3.71,2.139,1.284,2.4,3.191" transform="translate(64.552 20.22)" fill="#36251f"/>
            <path id="Trazado_128809" data-name="Trazado 128809" d="M59.891,46.151c4.648-.625,5.779-4.081,5.826-4.229a.793.793,0,0,0-.1-.672c-4.071-6.138-8.206-12.453-8.246-12.516a.791.791,0,0,0-1.324.867c.04.063,4.022,6.142,8.018,12.17a5.427,5.427,0,0,1-4.388,2.811.791.791,0,1,0,.211,1.569" transform="translate(54.578 18.828)" fill="#36251f"/>
            <path id="Trazado_128810" data-name="Trazado 128810" d="M76.484,24.837a4.645,4.645,0,0,0-3.9,4.353c-.043,1.549-.764,3.478-3.154,5.49-5.578,4.693-3.77,9.87-1.782,14.1S61.9,62.357,55.021,52.108,50.014,18.06,66.129,14.771s38.323-.9,41.109,6.215a37.092,37.092,0,0,1,2.522,13.564,8.755,8.755,0,0,1-3.344-6.539c-.414-4.65-3.861-6.04-9.336-6.04-3.733,0-14.271,1.752-20.6,2.866" transform="translate(18.333 8.837)" fill="#d65900"/>
            <g id="Grupo_157541" data-name="Grupo 157541" transform="translate(123.333 58.295)" opacity="0.8">
              <g id="Grupo_157540" data-name="Grupo 157540" transform="translate(0)">
                <g id="Grupo_157539" data-name="Grupo 157539" clip-path="url(#clip-path-3)">
                  <path id="Trazado_128811" data-name="Trazado 128811" d="M57.408,39.915c-.486.115-1,.21-1.529.281-3.522.474-6.533-.268-6.719-1.655s2.52-2.9,6.044-3.374q.716-.095,1.4-.125Z" transform="translate(-49.151 -35.043)" fill="#e0693e"/>
                </g>
              </g>
            </g>
            <path id="Trazado_128812" data-name="Trazado 128812" d="M77.757,39.326c.186,1.387-2.52,2.9-6.047,3.372s-6.534-.266-6.722-1.654,2.52-2.9,6.047-3.372,6.536.266,6.722,1.654" transform="translate(27.494 24.901)" fill="#e0693e"/>
            <path id="Trazado_128813" data-name="Trazado 128813" d="M64.863,31.42h0a4.523,4.523,0,0,0,6.162,1.489,25.182,25.182,0,0,1,4.292-2.078,4.156,4.156,0,0,0,2.429-5.53s-9.346.4-12.882,6.118" transform="translate(27.376 16.789)" fill="#d65900"/>
            <path id="Trazado_128814" data-name="Trazado 128814" d="M65.331,27.266h0A4.523,4.523,0,0,1,59.78,30.33a25.226,25.226,0,0,0-4.686-.87,4.155,4.155,0,0,1-3.8-4.691s9.116-2.088,14.04,2.5" transform="translate(62.762 16.12)" fill="#d65900"/>
            <path id="Trazado_128815" data-name="Trazado 128815" d="M82.507,47.826c-.062.223-1.788,6.38-5.167,8.569l-.022-.017L76.565,52.4a13.8,13.8,0,0,0,5.942-4.575" transform="translate(3.479 31.734)" fill="#36251f"/>
            <path id="Trazado_128816" data-name="Trazado 128816" d="M92.7,41.833s-9-9.213-13.5-.416c-3.71,7.248,7.313,23.353,15.624,16.209Z" transform="translate(-11.982 24.957)" fill="#ff9568"/>
            <path id="Trazado_128817" data-name="Trazado 128817" d="M89.424,52.537c.028,0,.057-.01.087-.015a.793.793,0,0,0,.577-.96A14.809,14.809,0,0,0,79.9,40.873a.791.791,0,0,0-.386,1.534,13.221,13.221,0,0,1,9.035,9.537.792.792,0,0,0,.872.594" transform="translate(-8.043 27.104)" fill="#36251f"/>
            <path id="Trazado_128818" data-name="Trazado 128818" d="M81.86,47.185a.783.783,0,0,0,.471-.241c.607-.645,2.492-2.281,3.891-2.116a.791.791,0,0,0,.185-1.572c-2.435-.286-4.951,2.307-5.228,2.6a.791.791,0,0,0,.682,1.326" transform="translate(-8.435 28.687)" fill="#36251f"/>
            <path id="Trazado_128819" data-name="Trazado 128819" d="M80.764,179.55l.017.742c.015.995.067,1.975.125,2.951.125,1.953.334,3.869.6,5.753a88.2,88.2,0,0,0,5.871,20.967,118.389,118.389,0,0,0,9.47,18.131c1.778,2.836,3.693,5.563,5.671,8.241,1,1.332,2.026,2.647,3.086,3.956.527.655,1.076,1.3,1.632,1.956l.855.99.988,1.12a12.591,12.591,0,0,0,19.766-15.6c.017.007-.018-.048-.048-.106l-.1-.18-.231-.394-.479-.832-.976-1.738c-.655-1.171-1.294-2.369-1.916-3.577-1.263-2.405-2.422-4.866-3.527-7.323A105.3,105.3,0,0,1,116.18,199.8a69.125,69.125,0,0,1-1.622-7.245q-.284-1.784-.486-3.517c-.125-1.153-.208-2.291-.25-3.4s-.048-2.209,0-3.269c.027-.532.055-1.056.1-1.57l.145-1.83c.215-2.582.507-5.27.89-8.023s.812-5.536,1.288-8.353c.459-2.81.973-5.649,1.509-8.491q.833-4.337,1.722-8.7.539-2.662,1.108-5.333c.218-1.035.438-2.074.665-3.112l1.9-8.61,1.975-8.619,2.02-8.61,2.036-8.487.065-.269a18.4,18.4,0,1,0-35.776-8.584l0,.018-1.1,4.59c-.354,1.509-.687,3.013-1.025,4.518-.674,3.009-1.3,6.022-1.923,9.04s-1.214,6.039-1.783,9.073-1.14,6.067-1.65,9.121q-.294,1.714-.579,3.439-.6,3.6-1.146,7.223-.586,3.883-1.1,7.8c-.4,3.112-.794,6.237-1.128,9.4s-.612,6.358-.837,9.609-.376,6.568-.421,10.006l-.013,1.3Z" transform="translate(-52.557 52.855)" fill="#ff9568"/>
            <path id="Trazado_128820" data-name="Trazado 128820" d="M87.357,119.286l35.217,4.6q.539-2.662,1.108-5.333L88.5,112.063q-.6,3.6-1.146,7.223" transform="translate(-55.649 74.357)" fill="#e0693e"/>
            <path id="Trazado_128821" data-name="Trazado 128821" d="M131.154,101.091l-11.1,45.349-39.876-9.208s9.317-47.825,21.431-56.725c6.7-4.926,12.629-5.962,19.515-2.321a20.384,20.384,0,0,1,10.033,22.9" transform="translate(-51.772 50.436)" fill="#236676"/>
            <path id="Trazado_128822" data-name="Trazado 128822" d="M82.892,131.433a.8.8,0,0,0,.784-.62l8.178-34.433A.806.806,0,0,0,90.285,96L82.107,130.44a.806.806,0,0,0,.6.972.793.793,0,0,0,.186.022" transform="translate(-15.072 63.29)" fill="#104151"/>
            <path id="Trazado_128823" data-name="Trazado 128823" d="M81.087,103.421a.8.8,0,0,0,.456-.141l5-3.422a.807.807,0,0,0-.912-1.332l-5,3.424a.807.807,0,0,0,.456,1.472" transform="translate(-7.087 65.281)" fill="#104151"/>
            <path id="Trazado_128824" data-name="Trazado 128824" d="M83.006,211.11c6.641-5.628,13.5-11.232,19.563-17.542-.025-.053-.04-.08-.04-.08l.075.043a88.247,88.247,0,0,0,6.449-7.468c-.557-1.055-1.06-1.968-1.464-2.667a36.886,36.886,0,0,0-9.73-10.009c-2.608-1.743-5-5.1-7.376-5.25-7.511-.469-17.161,5.862-17.148,9.81.022,5.814,3.058,17.445,3.823,21.827.309,1.77,1.847,7.313,3.723,13.145q1.061-.906,2.124-1.81" transform="translate(-17.696 111.548)" fill="#ff9568"/>
            <path id="Trazado_128825" data-name="Trazado 128825" d="M71.282,208.5a1.561,1.561,0,0,1,.494-1.138l31.031-28.974a1.536,1.536,0,0,1,2.094-.008l.023.02a1.545,1.545,0,0,1,.01,2.262L73.9,209.637a1.557,1.557,0,0,1-2.62-1.138" transform="translate(-10.648 118.088)" fill="#5b413c"/>
            <path id="Trazado_128826" data-name="Trazado 128826" d="M18.344,167.6s4.277,27.979,9.645,34.8c0,0,12.877-13.391,6.784-34.708-4.091-14.3-16.429-.09-16.429-.09" transform="translate(146.428 107.031)" fill="#ff9568"/>
          </g>
        </g>
      </g>
    </g>
  </g>
</svg>
