<svg xmlns="http://www.w3.org/2000/svg" xmlns:xlink="http://www.w3.org/1999/xlink" width="499.609" height="329.494" viewBox="0 0 499.609 329.494">
  <defs>
    <clipPath id="clip-path">
      <rect id="Rect치ngulo_38027" data-name="Rect치ngulo 38027" width="249.418" height="318.812" fill="none"/>
    </clipPath>
  </defs>
  <g id="_164" data-name="164" transform="translate(-252 -3225.06)">
    <g id="Grupo_85023" data-name="Grupo 85023" transform="translate(252 3244.678)">
      <rect id="Rect치ngulo_34651" data-name="Rect치ngulo 34651" width="499.609" height="201.281" transform="translate(0 108.594)" fill="#6b8dff"/>
      <g id="Grupo_84254" data-name="Grupo 84254" transform="translate(22.106 0)">
        <g id="Grupo_84000" data-name="Grupo 84000" transform="translate(0)">
          <path id="Trazado_118280" data-name="Trazado 118280" d="M236.858,308.023q-1.951-.241-3.924-.4c-15.443-1.217-30.87,1.941-46.386,2.368-27.964.768-55.359-7.466-78.237-19.536s-41.789-27.828-59.888-43.812c-19.458-17.186-39.345-37.482-35.888-59.865,2.52-16.313,17.156-30.061,32.688-41.653,19.647-14.668,41.57-27.435,62.593-40.945,20.909-13.435,37.578-31.2,58.744-43.821,41.051-24.473,104.4-27.836,151.382-12.132C348.09,58.3,372.9,75.379,400.377,89.087c19.651,9.807,41.586,18.513,54.205,33.462,15.29,18.114,13.474,41.368,8.372,62.454-8.633,35.677-26,71.272-59.183,97.676s-84.335,42.012-131.221,32.986C260.559,313.356,249.024,309.533,236.858,308.023Z" transform="translate(-12.141 -38.664)" fill="#c4d1ff"/>
        </g>
        <g id="Grupo_158789" data-name="Grupo 158789" transform="translate(102.531 -19.618)">
          <g id="Grupo_158788" data-name="Grupo 158788" clip-path="url(#clip-path)">
            <path id="Trazado_134507" data-name="Trazado 134507" d="M65.659,73.723s1.747-9.482,0-13.037-4.725-3.724-8.569-1.692-5.419,1.354-8.042,1.864c-3.258.63-9.267-2.37-12.588-3.556s-12.413-.508-11.539,16.928c0,0-4.372-2.2-5.595,0s2.8,9.82,7.693,8.467a21.8,21.8,0,0,0,.827,2.086c1.5,3.332,5.154,9.718,11.87,12a16.026,16.026,0,0,0,6.008.811,17.046,17.046,0,0,0,6.784-1.713,18.515,18.515,0,0,0,6.778-5.94,25.222,25.222,0,0,0,3.749-7.917s5.593-1.028,7.169-4.748-.7-6.766-4.546-3.548" transform="translate(15.099 44.994)" fill="#f0875e"/>
            <path id="Trazado_134508" data-name="Trazado 134508" d="M65.558,181.229l-11.892-8.9-.124.016a4.049,4.049,0,0,1-2.671,2.283c-2.41.924-6.119.306-6.644-1.072.525,1.688,0,7.67,0,7.67Z" transform="translate(34.956 136.204)" fill="#c54325"/>
            <path id="Trazado_134509" data-name="Trazado 134509" d="M25.891,173.786c-1.574.15-11.714,5.213-13.988,8.28,0,0,20.981-.612,21.681-1.074s.525-7.974.525-7.974c-1.4,2.607-7.169,2.761-8.218.768" transform="translate(9.408 136.745)" fill="#c54325"/>
            <path id="Trazado_134510" data-name="Trazado 134510" d="M57.067,186.374a19.272,19.272,0,0,1-.594,2.168,4.051,4.051,0,0,1-2.671,2.279c-2.408.927-6.119.306-6.644-1.072-.444-1.16-4.839-24.471-6.435-35.216-.077-.487-.141-.954-.2-1.391,8.712-.245,15.035-.761,19.925-1.275.061-.007.125-.011.193-.018a18.788,18.788,0,0,1,.338,1.907c1.468,11.068-3.45,30.848-3.91,32.618" transform="translate(32.026 120.014)" fill="#f0875e"/>
            <path id="Trazado_134511" data-name="Trazado 134511" d="M38.234,152.954c-.154.73-.337,1.6-.548,2.6C35.575,165.6,30.9,187.5,29.82,189.5c-1.4,2.607-7.169,2.761-8.216.768s-2.8-6.751-3.847-14.88c-.931-7.213-.209-17.452.944-21.7a8.318,8.318,0,0,1,.455-1.305s.07-.086.19-.222c3.844.288,8.463.534,13.972.684,1.694.039,3.33.077,4.918.107" transform="translate(13.697 120.262)" fill="#f0875e"/>
            <path id="Trazado_134512" data-name="Trazado 134512" d="M56.969,83.8c-.725,1.62-3.817,6.268-15.349,6.649-13.988.46-16.435-5.982-16.435-5.982,4.019-.306,5.9-.381,8.434-.385,1.314,0,1.663-1.43,1.533-3a9.172,9.172,0,0,0-.247-1.49,17.74,17.74,0,0,0,6.016.734A18.343,18.343,0,0,0,47.7,78.772a12.456,12.456,0,0,0-.614,2.175,2.713,2.713,0,0,0,.243,2.141,1.538,1.538,0,0,0,1.14.492L49,83.563a36.609,36.609,0,0,1,7.972.24" transform="translate(19.905 62.258)" fill="#f0875e"/>
            <path id="Trazado_134513" data-name="Trazado 134513" d="M76.949,69.05c-2.623-1.864-3.67-2.539-3.167-5.754s-2.6-7.62-7.267-11.007-11.129-4.231-16.142-4.231-7.6,3.554-12.939,2.82-10.488,2.089-13.907,5.645a8.72,8.72,0,0,0-1.346,9.988c1,2.032-1.529,4.062-3.1,5.584s-3.5,3.9-3.846,9.992S19.427,92.412,23.8,93.6a6.8,6.8,0,0,0,7.12-1.806,21.8,21.8,0,0,1-.827-2.086c-4.9,1.353-8.918-6.264-7.693-8.467s5.595,0,5.595,0C27.122,63.8,36.212,63.124,39.535,64.311s9.33,4.188,12.588,3.556c2.623-.51,4.2.166,8.042-1.862s6.819-1.862,8.569,1.69,0,13.037,0,13.037c3.846-3.215,6.119-.172,4.546,3.548s-7.169,4.748-7.169,4.748a25.222,25.222,0,0,1-3.749,7.917,13.319,13.319,0,0,0,8.993.209c5.07-1.524,2.625-8.3,2.428-10.158s3.867-2.372,5.964-6.436-.174-9.646-2.8-11.51" transform="translate(12.024 37.983)" fill="#673325"/>
            <path id="Trazado_134514" data-name="Trazado 134514" d="M7.151,121.1s-8.391,8.9-6.993,9.2,5.593-3.375,5.593-3.375-4.368,6.6-3.495,6.9,6.993-4.906,6.993-4.906-3.846,6.594-2.8,7.052,8.218-6.44,8.218-6.44.351,6.44,1.4,6.44,2.8-6.592,2.8-9.967a4.9,4.9,0,0,0-.163-1.269c-.605.059-1.248.109-1.935.2-3.672.46-8.742-2.147-9.616-3.835" transform="translate(0 95.715)" fill="#f0875e"/>
            <path id="Trazado_134515" data-name="Trazado 134515" d="M73.831,119.22s-1.576.306-5.944.766a11.856,11.856,0,0,0-6.47,2.379s-.175,9.278,1.225,9.124,2.449-5.521,2.449-5.521,3.495,8.436,5.068,7.822c1.409-.55-.546-6.631-.97-7.894-.05-.15-.079-.235-.079-.235s.03.084.079.235c.41,1.192,2.367,6.617,3.769,6.2,1.574-.457,0-7.664,0-7.664s2.689,6.363,3.5,5.493c.9-.97,1.225-8.1-2.623-10.708" transform="translate(48.536 94.226)" fill="#f0875e"/>
            <path id="Trazado_134516" data-name="Trazado 134516" d="M65.792,123.052c-.048-.15-.081-.233-.081-.233l.081.233" transform="translate(51.935 97.07)" fill="#f0875e"/>
            <path id="Trazado_134517" data-name="Trazado 134517" d="M109.078,131.943c-8.218-11.809-10.665-16.1-12.062-21.01S91.42,91.454,84.6,85.778c-3.06-2.546-7.135-3.7-10.7-4.2-.73,1.624-3.824,6.273-15.354,6.651-13.988.46-16.435-5.98-16.435-5.98s-7.867-.306-12.762,9.663-22.03,48.465-23.779,52.3-2.272,6.443-1.4,8.128,5.946,4.3,9.618,3.837c.686-.088,1.328-.136,1.934-.2,1.678-.17,3.063-.44,4.252-1.867a11.223,11.223,0,0,0,1.857-3.763c1.923-5.983,8.391-27.455,8.391-27.455a117.982,117.982,0,0,1,26.75-1.993c15.909.458,28.323,1.993,28.323,1.993s2.326,4.8,4.881,9.56a84.033,84.033,0,0,0,4.386,7.466c3.323,4.753,12.413,12.192,12.413,12.192a11.845,11.845,0,0,1,6.469-2.378c4.37-.46,5.946-.766,5.946-.766s-2.1-5.215-10.316-17.026" transform="translate(2.973 64.477)" fill="#5e4fd1"/>
            <path id="Trazado_134518" data-name="Trazado 134518" d="M38.445,52.188a2.186,2.186,0,0,1,.127-.969l-.362-.385c-1.049-.566-8.624-6.1-10.839-6.773s-2.215,2.709-1.516,5.871,1.866,6.773,3.382,6.433a80.276,80.276,0,0,0,10-3.14,1.518,1.518,0,0,1-.8-1.037" transform="translate(20.109 34.755)" fill="#857fcc"/>
            <path id="Trazado_134519" data-name="Trazado 134519" d="M45.371,44.616c-1.26,1.246-5.908,4.777-7.9,6.578a1.559,1.559,0,0,1,.328.736,1.607,1.607,0,0,1-.143.7c2.421,1.366,8.4,4.651,9.7,4.4,1.633-.317,1.282-1.6.815-4.311s.233-5.756.7-8.1-1.984-1.49-3.5,0" transform="translate(29.615 34.113)" fill="#857fcc"/>
            <path id="Trazado_134520" data-name="Trazado 134520" d="M41.243,48.571a6.135,6.135,0,0,0-4.685-2.089,4.048,4.048,0,0,0-3.719,2.757,2.163,2.163,0,0,0-.129.969,1.529,1.529,0,0,0,.8,1.037,9.039,9.039,0,0,0,4.333.881A3.835,3.835,0,0,0,41.425,50a1.6,1.6,0,0,0,.145-.7,1.582,1.582,0,0,0-.328-.734" transform="translate(25.842 36.736)" fill="#857fcc"/>
            <path id="Trazado_134521" data-name="Trazado 134521" d="M25.733,66.045c.156-.763,1.3-2.218,5.378-3.013,3.557-.693,5.835-.668,4.94,1.16-.7,1.425-3.275,1.117-6.032,1.434-3.733.431-4.286.419-4.286.419" transform="translate(20.338 49.486)" fill="#673325"/>
            <path id="Trazado_134522" data-name="Trazado 134522" d="M52.781,103.568a117.982,117.982,0,0,0-26.75,1.993s-6.47,21.472-8.391,27.455a11.2,11.2,0,0,1-1.857,3.763c-.528,2.211-1.026,4.358-1.466,6.359C11.17,157.4,9.073,188.231,9.073,188.231s4.3,1.432,16.8,2.383c3.847.29,8.461.539,13.974.686,1.692.043,3.328.077,4.918.107,8.1.145,14.878.1,20.616-.063,8.715-.245,15.032-.759,19.923-1.273.063-.009.129-.014.192-.021,8.708-.924,19.4-2.528,20.439-4.163,0,0-7.693-25.418-9.79-33.7-1.61-6.352-7.229-26.689-10.157-37.066-2.555-4.759-4.881-9.56-4.881-9.56s-12.414-1.533-28.323-1.993" transform="translate(7.171 81.81)" fill="#ffbfc1"/>
            <path id="Trazado_134523" data-name="Trazado 134523" d="M47.857,65.387c-.22-.65-3.226-1.244-5.974-2.2-3.194-1.112-5-.016-4.145,1.106s2.848,1.626,5.466,1.8a11.191,11.191,0,0,0,4.653-.7" transform="translate(29.66 49.572)" fill="#673325"/>
            <path id="Trazado_134524" data-name="Trazado 134524" d="M23.149,71.7a.227.227,0,0,1-.091-.014c-1.379-.483-2.073-3.457-2.147-3.8a.255.255,0,0,1,.2-.3.265.265,0,0,1,.31.2c.19.84.877,3.1,1.817,3.429a.247.247,0,0,1,.156.326.257.257,0,0,1-.245.163" transform="translate(16.522 53.416)" fill="#1f1f1e"/>
            <path id="Trazado_134525" data-name="Trazado 134525" d="M44.472,70.712a.264.264,0,0,1-.243-.159.254.254,0,0,1,.145-.329A11.389,11.389,0,0,0,46.341,67.4a.267.267,0,0,1,.354-.1.254.254,0,0,1,.106.346c-.367.653-1.608,2.807-2.231,3.049a.28.28,0,0,1-.1.018" transform="translate(34.942 53.166)" fill="#1f1f1e"/>
            <path id="Trazado_134526" data-name="Trazado 134526" d="M36.463,73.565c-3.062,0-3.454-2.354-3.457-2.374a.252.252,0,0,1,.218-.288.257.257,0,0,1,.3.211c.016.088.376,2.139,3.35,1.928a3.168,3.168,0,0,0,3.258-2.705.264.264,0,0,1,.283-.229.257.257,0,0,1,.24.274,3.716,3.716,0,0,1-3.745,3.169c-.156.007-.3.014-.446.014" transform="translate(26.084 55.409)" fill="#1f1f1e"/>
            <path id="Trazado_134527" data-name="Trazado 134527" d="M31.013,68.026c0,1.244-.5,2.254-1.108,2.254S28.8,69.27,28.8,68.026s.5-2.254,1.106-2.254,1.108,1.01,1.108,2.254" transform="translate(22.761 51.983)" fill="#1f1f1e"/>
            <path id="Trazado_134528" data-name="Trazado 134528" d="M41.416,67.941c0,1.371-.521,2.481-1.167,2.481s-1.164-1.11-1.164-2.481.521-2.483,1.164-2.483,1.167,1.112,1.167,2.483" transform="translate(30.891 51.735)" fill="#1f1f1e"/>
            <path id="Trazado_134529" data-name="Trazado 134529" d="M43.413,78.772a3.529,3.529,0,0,0-.374,1.14c-1.294.632-3.437,2.308-5.9,2.363a13.384,13.384,0,0,1-6.316-1.688,4.1,4.1,0,0,0-.209-1,17.651,17.651,0,0,0,6.016.734,18.344,18.344,0,0,0,6.784-1.554" transform="translate(24.196 62.258)" fill="#bb4a36"/>
            <path id="Trazado_134530" data-name="Trazado 134530" d="M18.661,117.536a.361.361,0,0,1-.064-.005.231.231,0,0,1-.192-.279c.111-.392.335-1.284.648-2.532,1.477-5.906,4.94-19.746,7.931-25.926a.281.281,0,0,1,.344-.125.223.223,0,0,1,.14.3c-2.972,6.141-6.429,19.952-7.9,25.849-.313,1.253-.539,2.148-.65,2.542a.254.254,0,0,1-.252.174" transform="translate(14.541 70.066)" fill="#1f1f1e"/>
            <path id="Trazado_134531" data-name="Trazado 134531" d="M52.56,117.853a.265.265,0,0,1-.251-.158c-2.335-6.452-6.517-25.593-7.12-29.177a.24.24,0,0,1,.224-.263.255.255,0,0,1,.3.193c.6,3.579,4.773,22.675,7.1,29.106a.229.229,0,0,1-.168.29.462.462,0,0,1-.082.009" transform="translate(35.713 69.75)" fill="#1f1f1e"/>
            <path id="Trazado_134532" data-name="Trazado 134532" d="M39.869,109.71s8.511-5.931,10.61-8.948,2.089-7.534-1.167-9.047c-4.949-2.3-9.442,3.169-9.442,3.169s-3.146-4.411-6.991-3.33-6.409,5.785-2.216,11a24.655,24.655,0,0,0,9.208,7.158" transform="translate(22.528 72.04)" fill="#fc5f65"/>
            <path id="Trazado_134533" data-name="Trazado 134533" d="M20.286,157.594a.253.253,0,0,1-.26-.2c-2.773-16.718,5.167-52.328,5.248-52.685a.263.263,0,0,1,.308-.181.231.231,0,0,1,.206.269c-.081.358-8,35.889-5.24,52.529a.24.24,0,0,1-.224.261l-.038,0" transform="translate(15.364 82.615)" fill="#1f1f1e"/>
            <path id="Trazado_134534" data-name="Trazado 134534" d="M28.259,168.19a.259.259,0,0,1-.251-.161c-6.932-19.055-.079-60.829-.009-61.248a.253.253,0,0,1,.3-.193.234.234,0,0,1,.22.261c-.07.419-6.9,42.086-.009,61.04a.225.225,0,0,1-.17.288.3.3,0,0,1-.079.013" transform="translate(19.687 84.239)" fill="#1f1f1e"/>
            <path id="Trazado_134535" data-name="Trazado 134535" d="M33.653,163.483h-.013a.242.242,0,0,1-.251-.24c.175-3.373-1.251-33.467-1.939-47.928-.238-4.963-.39-8.245-.39-8.5a.265.265,0,0,1,.525,0c0,.249.163,3.7.39,8.483.686,14.468,2.114,44.576,1.941,47.967a.25.25,0,0,1-.263.22" transform="translate(24.549 84.239)" fill="#1f1f1e"/>
            <path id="Trazado_134536" data-name="Trazado 134536" d="M39.793,148.522l-.041,0a.237.237,0,0,1-.218-.261c3.219-17.773-3.482-42.174-3.55-42.417a.23.23,0,0,1,.193-.279.264.264,0,0,1,.315.168c.07.245,6.794,24.736,3.559,42.6a.252.252,0,0,1-.258.193" transform="translate(28.433 83.426)" fill="#1f1f1e"/>
            <path id="Trazado_134537" data-name="Trazado 134537" d="M50.9,152.033a.25.25,0,0,1-.26-.211c-1.212-11.714-7.774-44.637-7.84-44.97a.232.232,0,0,1,.213-.263.259.259,0,0,1,.3.184c.066.329,6.633,33.274,7.844,45.009a.24.24,0,0,1-.236.251Z" transform="translate(33.822 84.24)" fill="#1f1f1e"/>
            <path id="Trazado_134538" data-name="Trazado 134538" d="M15.144,161.692a.253.253,0,0,1-.26-.2c-.938-6.58,1.346-32.139,1.907-32.876a.288.288,0,0,1,.363-.063.212.212,0,0,1,.082.306c-.548,1.185-2.73,26.263-1.833,32.577a.233.233,0,0,1-.227.254l-.032,0" transform="translate(11.588 101.572)" fill="#1f1f1e"/>
            <path id="Trazado_134539" data-name="Trazado 134539" d="M59.445,159.231a.266.266,0,0,1-.235-.127c-3.244-5.7-9.772-47.181-10.049-48.948a.24.24,0,0,1,.224-.258.259.259,0,0,1,.3.2c.066.428,6.791,43.174,10,48.8a.219.219,0,0,1-.116.31.309.309,0,0,1-.118.023" transform="translate(38.853 86.856)" fill="#1f1f1e"/>
            <path id="Trazado_134540" data-name="Trazado 134540" d="M43.056,154.109a.264.264,0,0,1-.1-.018.218.218,0,0,1-.136-.3c2.526-5.19.011-15.3-.016-15.4a.229.229,0,0,1,.2-.274.259.259,0,0,1,.312.174c.106.423,2.58,10.355-.016,15.68a.258.258,0,0,1-.24.14" transform="translate(33.822 109.155)" fill="#1f1f1e"/>
            <path id="Trazado_134541" data-name="Trazado 134541" d="M37.63,152.954c-.154.73-.127.607-.337,1.6-7.344.743-15.393.1-19.2-.865a8.318,8.318,0,0,1,.455-1.305s.07-.086.19-.222c3.844.288,8.463.534,13.972.684,1.694.039,3.33.077,4.918.107" transform="translate(14.301 120.262)" fill="#bb4a36"/>
            <path id="Trazado_134542" data-name="Trazado 134542" d="M60.978,153.756c-7.17,1.14-16.681.922-20.254.777-.077-.487-.141-.954-.2-1.391,8.712-.245,15.035-.761,19.925-1.275.061-.007.125-.011.2-.018a18.8,18.8,0,0,1,.337,1.907" transform="translate(32.026 120.014)" fill="#bb4a36"/>
            <path id="Trazado_134543" data-name="Trazado 134543" d="M39.3,78.232c-5.3,0-9.766-4.539-9.965-4.743a.3.3,0,0,1,.428-.414c.048.05,5.02,5.115,10.441,4.513,2.913-.313,5.461-2.19,7.568-5.577a.293.293,0,0,1,.408-.095.3.3,0,0,1,.095.41c-2.209,3.55-4.9,5.521-8.012,5.853a8.727,8.727,0,0,1-.963.052" transform="translate(23.118 56.804)" fill="#1f1f1e"/>
            <path id="Trazado_134544" data-name="Trazado 134544" d="M135.7,82.256c-.829,11.714-4.58,26.161-6.345,32.454a86.216,86.216,0,0,0-8.066-13.315c-.292-.354-.575-.682-.852-.974,0,0,4.114-16.086,1.692-39.044-.013-.184-.036-.372-.056-.56L131.883,53A80.957,80.957,0,0,1,135.7,82.256" transform="translate(95.188 41.891)" fill="#f0875e"/>
            <path id="Trazado_134545" data-name="Trazado 134545" d="M122.118,98.779c-.292-.356-1.405-1.762-1.681-2.054,0,0,4.112-16.088,1.692-39.044,1.729,4.73,5.265,17.988-.011,41.1" transform="translate(95.188 45.588)" fill="#b94734"/>
            <path id="Trazado_134546" data-name="Trazado 134546" d="M140.732,31.168s2.356-6.683,1.5-12.08a3.637,3.637,0,0,1-1.144,1.593c-3.087,2.3-9.254,1.16-9.254,1.16-2.365,3.815-8.721,4.179-9.963,3.452s-4.573-15.805-9.858-15.136S98.945,24.929,98.617,28.383s-2.7,3.269-2.7,3.269-1.452-4.483-4.238-1.937.12,13.322,6.66,11.628c0,0,1.849,13.693,13.671,17.39a21.388,21.388,0,0,0,7.163.9,20.858,20.858,0,0,0,7.072-1.418c11.145-4.433,12.8-17.635,12.8-17.635s4.6-1.293,5.93-5.774-.124-8.6-4.24-3.634" transform="translate(71.624 8.012)" fill="#f0875e"/>
            <path id="Trazado_134547" data-name="Trazado 134547" d="M140.875,25.373c.5-3.856-1.171-10.031-4.834-16.047C130.957.967,114.969-5.842,100.795,7.648c-5.049,4.8-7.265,10.395-7.811,17.664a53.125,53.125,0,0,0,1.151,14.351s2.378.183,2.7-3.269,8.107-17.554,13.392-18.224,8.621,14.409,9.858,15.136,7.6.363,9.962-3.452a17.993,17.993,0,0,0,7.442-.265,26.284,26.284,0,0,1,1.461,9.591s3.335-3.754,1.925-13.807" transform="translate(73.405 0)" fill="#85402b"/>
            <path id="Trazado_134548" data-name="Trazado 134548" d="M101.5,10.959C100.423,6.411,95.689,3.4,90.059,4.494s-10.175,8.719-8.9,10.355,4.725-.908,4.725-.908-6.426,5.269-4.94,7.086,5.847-2,5.847-2-3.633,5.271-2.181,6.177,13.843-4,13.843-4A11.17,11.17,0,0,0,101.5,10.959" transform="translate(63.795 3.375)" fill="#85402b"/>
            <path id="Trazado_134549" data-name="Trazado 134549" d="M119.907,11.874a32.877,32.877,0,0,1,8.723-8.723c4.177-2.906,6.44-1.024,6.356,0-.181,2.3-6.721,6-6.721,6s9.994-1.819,10.355.727-4.723,3.192-4.723,3.192,6.359-.65,6.359,1.712-6.359,1.271-6.359,1.271,5.086.546,3.454,3.454-17.443,0-17.443,0-2.471-3.928,0-7.63" transform="translate(93.901 1.265)" fill="#85402b"/>
            <path id="Trazado_134550" data-name="Trazado 134550" d="M102.353,98.752c-.342.181-.67.356-.988.553-2.5,1.509-4.644,4.048-9.586,16.7A126.617,126.617,0,0,1,88.32,92.6c-.079-1.96-.116-4.075-.116-6.279,0-12.926,1.271-28.807,2.718-32.84.007,0,7.776,9.346,10.443,11.252a2.5,2.5,0,0,0,.4.251s-.276,28.483.589,33.771" transform="translate(69.712 42.266)" fill="#f0875e"/>
            <path id="Trazado_134551" data-name="Trazado 134551" d="M101.421,170.718c-3.271,2.36-15.08,10.1-15.08,10.1s27.614-.109,28.524-.109-2-8.173-2-8.173h-5.815a8.182,8.182,0,0,1-5.631-1.817" transform="translate(68.24 134.928)" fill="#4c5346"/>
            <path id="Trazado_134552" data-name="Trazado 134552" d="M132.938,170.108c-3.271,2.908-10.9,1.635-10.9,1.635s-.908,8.175,0,9.811h27.616Z" transform="translate(96.132 134.445)" fill="#346949"/>
            <path id="Trazado_134553" data-name="Trazado 134553" d="M115.343,129.988c-.041.992-.161,2.623-.335,4.723-1.49,17.9-7.12,70.653-7.12,70.653h-5.815a8.182,8.182,0,0,1-5.631-1.817c-.3-1.4-2.856-54.489-3.608-70.275-.1-2.079-.165-3.511-.2-4.091,7.813.632,15.268.849,22.7.807" transform="translate(73.218 102.099)" fill="#f0875e"/>
            <path id="Trazado_134554" data-name="Trazado 134554" d="M138.38,202.978c-3.271,2.908-10.9,1.635-10.9,1.635-.8-4.15-10.425-55.259-12.382-70.948-.2-1.615-.328-2.85-.349-3.629,3.865-.181,7.783-.4,11.818-.637,3.423-.2,6.517-.51,9.33-.879l.1,3.117Z" transform="translate(90.69 101.575)" fill="#f0875e"/>
            <path id="Trazado_134555" data-name="Trazado 134555" d="M186.953,161.273s-6.367,4.419-22.832,6.569c-2.813.371-5.908.675-9.331.879-4.034.24-7.953.457-11.816.639-5.708.263-11.286.444-16.876.474-7.434.041-14.89-.175-22.7-.807q-1.721-.145-3.464-.306c-19.076-1.815-20.9-5.086-20.9-5.086,3.511-21.679,12.9-49.054,19.135-65.405.3-.77.582-1.506.858-2.207,5.573-14.276,7.588-15.678,10.574-17.255,0,0,.335.145.952.372.594.215,1.468.516,2.58.841.174.05.349.1.537.145-.007.007,0,.007,0,.007a56.394,56.394,0,0,0,16.461,1.959c.183,0,.365-.011.546-.025.113,0,.233,0,.347-.007,12.688-.544,20.319-.544,22.136-2,2.435,2.587,5.7,8.067,8.918,14.289a222.6,222.6,0,0,1,10.885,24.41c3.454,9.811,13.99,42.516,13.99,42.516" transform="translate(62.465 62.253)" fill="#ffdfe0"/>
            <path id="Trazado_134556" data-name="Trazado 134556" d="M156.156,64.458s-3.269-11.809-9.265-19.62-12.173-8.357-21.8-1.817c0,0-6.479,3.937-10.416,2.057-4.3-2.046-6.845-6.2-11.931-4.492S91.325,58.141,89.723,65.306c0,0,8.66,10.414,10.839,11.5,0,0-.27,28.483.593,33.771,0,0,.329.143.949.371a54.457,54.457,0,0,0,20.474,2.922c12.685-.544,20.315-.544,22.134-2,0,0,4.179-16.351,1.635-39.6Z" transform="translate(70.913 30.436)" fill="#ffbfc1"/>
            <path id="Trazado_134557" data-name="Trazado 134557" d="M116.8,36.99c-.34,1.221-.784,2.827-1.155,4.24-.354,1.327-.632,2.478-.713,2.993-.238,1.577-2.055,3.393-4.236,4.12s-5.333-.487-6.177-2.064c-.668-1.235-1.114-4.134-1.577-6.759-.124-.705-.247-1.389-.378-2.011a21.362,21.362,0,0,0,7.158.9A20.812,20.812,0,0,0,116.8,36.99" transform="translate(81.066 29.235)" fill="#f0875e"/>
            <path id="Trazado_134558" data-name="Trazado 134558" d="M97.052,13.4a3.853,3.853,0,0,1,.081.471c1.715-2.727,4.236-7.124,3.631-8.554-.9-2.131-8.993-2.091-10.083-1-.815.815,1.414,6.565,2.6,9.423.079-.211.127-.338.127-.338Z" transform="translate(71.531 2.829)" fill="#ffb859"/>
            <path id="Trazado_134559" data-name="Trazado 134559" d="M93.946,12.405c-.014-.061-.021-.124-.032-.186-1.871,2.374-5.665,7.043-5.385,7.887.365,1.09,7.246,2.089,8.755,1,1.121-.806.58-6.044.226-8.7a4.711,4.711,0,0,1-3.563,0" transform="translate(69.957 9.657)" fill="#ffb859"/>
            <path id="Trazado_134560" data-name="Trazado 134560" d="M96.349,9.533a3.827,3.827,0,0,0-.081-.469H92.621s-.05.127-.129.338c-.344.927-1.235,3.577-.935,5.308.009.063.016.127.03.186a4.711,4.711,0,0,0,3.563,0s1.456-3.124,1.2-5.364" transform="translate(72.315 7.164)" fill="#ffb859"/>
            <path id="Trazado_134561" data-name="Trazado 134561" d="M123,10.271s.175.17.426.462c1.012-3.724,2.353-9.066,1.8-9.414-.784-.492-10.749,3.593-10.769,5.319-.005.487,2.58,2.909,4.8,4.9a.408.408,0,0,1,.005-.047A8.285,8.285,0,0,1,123,10.271" transform="translate(90.456 1.01)" fill="#ffb859"/>
            <path id="Trazado_134562" data-name="Trazado 134562" d="M122.142,9.064s-2.256,2.211-3.846,1.285a49.275,49.275,0,0,0,1.653,7.86s9.983-2.374,9.988-3.4c.005-.764-5.183-4.109-7.8-5.745" transform="translate(93.496 7.164)" fill="#ffb859"/>
            <path id="Trazado_134563" data-name="Trazado 134563" d="M121.311,6.764c-.251-.292-.426-.462-.426-.462a8.278,8.278,0,0,0-3.736,1.223l0,.047c-.3,1.914,2.055,4.949,2.055,4.949l.025.013c1.592.927,3.846-1.284,3.846-1.284.281-1.837-1.049-3.661-1.76-4.485" transform="translate(92.566 4.979)" fill="#ffb859"/>
            <path id="Trazado_134564" data-name="Trazado 134564" d="M96.894,22.592a7.233,7.233,0,0,1,5.9-5.068c3.633-.652,5.541.618,5.179,1.708s-3.09.183-6.089,1.182a28.783,28.783,0,0,0-5,2.179" transform="translate(76.58 13.709)" fill="#85402b"/>
            <path id="Trazado_134565" data-name="Trazado 134565" d="M122.05,20.34c-.727-1.187-1.635-2.46-5.086-3.28s-5.287,1.277-5.233,2.229,2.453.136,5.16.408,5.16.643,5.16.643" transform="translate(88.306 13.337)" fill="#85402b"/>
            <path id="Trazado_134566" data-name="Trazado 134566" d="M110.911,35.823a2.063,2.063,0,0,1-.231-.013,5.205,5.205,0,0,1-3.348-1.891.274.274,0,0,1,.1-.374.277.277,0,0,1,.374.1,4.71,4.71,0,0,0,2.925,1.627.788.788,0,0,0,.63-.124c.385-.682-.168-9.21-.612-14.421a.272.272,0,1,1,.542-.047c.279,3.285,1.139,14.072.48,14.826a1.087,1.087,0,0,1-.859.317" transform="translate(84.801 16.146)" fill="#11100e"/>
            <path id="Trazado_134567" data-name="Trazado 134567" d="M109.414,34.377a4.788,4.788,0,0,1-.713-.052c-2.89-.424-4.691-3.262-4.764-3.382a.272.272,0,1,1,.462-.288c.018.027,1.746,2.745,4.385,3.131a5.527,5.527,0,0,0,4.471-1.647.272.272,0,1,1,.36.408,6.389,6.389,0,0,1-4.2,1.83" transform="translate(82.114 24.126)" fill="#11100e"/>
            <path id="Trazado_134568" data-name="Trazado 134568" d="M116.8,36.99c-.34,1.221-.784,2.827-1.155,4.24a15.722,15.722,0,0,1-5.965,1.547c-2.458.059-5.11-1.846-6.737-3.257-.124-.705-.247-1.389-.378-2.011a21.362,21.362,0,0,0,7.158.9A20.812,20.812,0,0,0,116.8,36.99" transform="translate(81.066 29.235)" fill="#b94734"/>
            <path id="Trazado_134569" data-name="Trazado 134569" d="M95.889,67.049h-.005a.271.271,0,0,1-.267-.278A122.638,122.638,0,0,1,96.788,54.3a.271.271,0,1,1,.537.073,123.269,123.269,0,0,0-1.164,12.4.271.271,0,0,1-.272.269" transform="translate(75.571 42.733)" fill="#11100e"/>
            <path id="Trazado_134570" data-name="Trazado 134570" d="M122.888,64.153a.275.275,0,0,1-.272-.245A41.053,41.053,0,0,0,119.83,53.7a.272.272,0,1,1,.507-.2,41.542,41.542,0,0,1,2.822,10.357.268.268,0,0,1-.245.3l-.025,0" transform="translate(94.694 42.146)" fill="#11100e"/>
            <path id="Trazado_134571" data-name="Trazado 134571" d="M94.511,106.953l-.027,0a.27.27,0,0,1-.243-.3c1.33-13.195,5.888-25.536,6.911-27.188a.271.271,0,0,1,.462.285c-.97,1.574-5.53,14.07-6.83,26.959a.275.275,0,0,1-.272.243" transform="translate(74.482 62.703)" fill="#11100e"/>
            <path id="Trazado_134572" data-name="Trazado 134572" d="M100.328,96.186l-.025,0a.266.266,0,0,1-.243-.294,39.184,39.184,0,0,1,4.15-13.675.272.272,0,1,1,.474.267,38.587,38.587,0,0,0-4.086,13.46.268.268,0,0,1-.27.243" transform="translate(79.081 64.869)" fill="#11100e"/>
            <path id="Trazado_134573" data-name="Trazado 134573" d="M107.767,97.136a.27.27,0,0,1-.269.209.234.234,0,0,1-.057-.005.273.273,0,0,1-.2-.328c1.191-5.058,1-11.6.611-16.378.183,0,.365-.011.546-.025.4,4.82.573,11.4-.627,16.527" transform="translate(84.748 63.71)" fill="#11100e"/>
            <path id="Trazado_134574" data-name="Trazado 134574" d="M120.843,107.571h-.005a.273.273,0,0,1-.269-.279c.238-12.393-5.013-24.712-5.065-24.834a.272.272,0,0,1,.141-.358.276.276,0,0,1,.36.14c.054.125,5.35,12.556,5.108,25.063a.269.269,0,0,1-.27.269" transform="translate(91.271 64.87)" fill="#11100e"/>
            <path id="Trazado_134575" data-name="Trazado 134575" d="M115.343,129.988c-.041.992-.161,2.623-.335,4.723-6.816,1.977-16.953-.1-22.174-1.439-.1-2.079-.165-3.511-.2-4.091,7.813.632,15.268.849,22.7.807" transform="translate(73.218 102.099)" fill="#b94734"/>
            <path id="Trazado_134576" data-name="Trazado 134576" d="M136,131.636c-7.6,3.138-16.256,2.639-20.9,2.028-.2-1.613-.328-2.85-.349-3.627,3.864-.183,7.783-.4,11.818-.639,3.421-.2,6.517-.51,9.33-.879Z" transform="translate(90.69 101.575)" fill="#b94734"/>
            <path id="Trazado_134577" data-name="Trazado 134577" d="M103.3,23.351c0,1.529-.548,2.771-1.225,2.771s-1.228-1.243-1.228-2.771.55-2.768,1.228-2.768,1.225,1.237,1.225,2.768" transform="translate(79.708 16.268)" fill="#11100e"/>
            <path id="Trazado_134578" data-name="Trazado 134578" d="M114.518,23.378c0,1.531-.548,2.773-1.228,2.773s-1.225-1.243-1.225-2.773.55-2.77,1.225-2.77,1.228,1.241,1.228,2.77" transform="translate(88.571 16.288)" fill="#11100e"/>
            <path id="Trazado_134579" data-name="Trazado 134579" d="M97.415,93.785c-.342.181-1.663,1.047-1.984,1.243-2.421-12.969.32-28.035,1-35.265a2.5,2.5,0,0,0,.4.251s-.276,28.483.589,33.771" transform="translate(74.65 47.234)" fill="#b94734"/>
            <path id="Trazado_134580" data-name="Trazado 134580" d="M53.329,121.747c-.781.671-4.136,6.119-3.121,8.339s2.5,4.571,7.024,4.1,6.4-1.819,6.162-2.558-2.261-.6-2.261-.6,2.768-1.278,2.281-1.95-3.063-.068-3.063-.068,2.028-3.7,1.561-6.725c0,0-2.5,0-4.761-.134a37.337,37.337,0,0,1-3.822-.4" transform="translate(39.533 96.223)" fill="#ed875f"/>
            <path id="Trazado_134581" data-name="Trazado 134581" d="M53.864,131.49a.8.8,0,0,1-.641-.294c-.935-1.139.5-5.545,1.021-6.515a.252.252,0,0,1,.312-.1.187.187,0,0,1,.113.267c-.67,1.253-1.765,5.257-1.063,6.11a.306.306,0,0,0,.3.125c1.391-.109,2.789-1.66,3.937-4.374a.249.249,0,0,1,.3-.124.2.2,0,0,1,.141.261c-.858,2.028-2.308,4.476-4.334,4.633a.461.461,0,0,1-.084.005" transform="translate(41.821 98.451)" fill="#1f1f1e"/>
            <path id="Trazado_134582" data-name="Trazado 134582" d="M57.085,127.3h-.013a10.272,10.272,0,0,1-1.758-.177.2.2,0,0,1-.163-.245.24.24,0,0,1,.286-.145,9.5,9.5,0,0,0,1.656.163.217.217,0,0,1,.224.211.222.222,0,0,1-.233.193" transform="translate(43.582 100.157)" fill="#1f1f1e"/>
            <path id="Trazado_134583" data-name="Trazado 134583" d="M129.237,130.178c-3.844,2.421-6.445,3.319-9.881,2.687,0,0,1.137,12.676,1.418,18.088.007.149.013.286.018.421a16.284,16.284,0,0,1,.02,1.842c-.206,1.8-9.569,3.855-25.692,3.676s-24.556-4.123-24.968-5.02a11.011,11.011,0,0,1-.03-2.231c.007-.149.014-.3.018-.473.168-3.681.687-10.28,1.062-14.8v-.009c.213-2.632.381-4.553.4-4.786-.02.054-.064.193-.138.4-.619,1.733-3.045,8.518-5.475,14.1a79.83,79.83,0,0,1-4.65,9.088c-.082.132-.156.258-.231.376-.419.682-.662,1.049-.662,1.049a12.635,12.635,0,0,1-5.162.242,12.438,12.438,0,0,1-3.409-.777l-.007-.007c-.005-.3.043-1.32.143-2.84.007-.149.02-.3.032-.449.424-6.331,1.617-20.115,3.241-28.988,3.11-17.008,11.12-29.639,15.592-34.262,4.632-4.8,8.739-7.394,17.895-6.073l.419.056a.154.154,0,0,0-.03.095c0,.607,1.328,5.094,7.845,5.026s7.215-5.244,7.215-5.244,4.32-1.844,12.534,1.654,15.6,18.2,17.27,26.54-.935,18.2-4.787,20.616" transform="translate(40.995 63.925)" fill="#fff0b5"/>
            <path id="Trazado_134584" data-name="Trazado 134584" d="M87.758,82.639s-.705,5.176-7.215,5.244S72.7,83.464,72.7,82.857a.154.154,0,0,1,.03-.095c.274-.394,2.408.385,2.7.322.2-.039.09-1.346-.061-2.575-.05-.442-.113-.874-.163-1.237a19.157,19.157,0,0,0,9.705.007l-.1,1.28-.174,2.283Z" transform="translate(57.457 62.654)" fill="#ed875f"/>
            <path id="Trazado_134585" data-name="Trazado 134585" d="M66.814,172.057c-4.207,1.506-13.309,7.183-13.592,8.157-.313,1.076,24.5.3,24.5.3s-.124-5.668-.82-8.024c-3.079,1.921-7.672,1.964-10.085-.433" transform="translate(42.061 135.986)" fill="#857fcc"/>
            <path id="Trazado_134586" data-name="Trazado 134586" d="M100.646,171.955a13.544,13.544,0,0,1-8.862,1.416,29.621,29.621,0,0,0,.177,7.5c.31.535,23.207,0,23.207,0s-4.662-5.743-14.522-8.912" transform="translate(72.416 135.905)" fill="#857fcc"/>
            <path id="Trazado_134587" data-name="Trazado 134587" d="M130.64,208.475A11.684,11.684,0,0,1,126.5,212.6a13.531,13.531,0,0,1-8.862,1.416c-.281-.047-.532-.1-.725-.156-2.079-.535-8.114-17.929-10.611-27.434s-11.234-34.778-13.732-34.962-6.241,18.645-9.362,29.229-6.037,26.171-8.533,30.3a6.907,6.907,0,0,1-2.274,2.229c-3.083,1.919-7.677,1.96-10.087-.437a4.368,4.368,0,0,1-.487-.537c-2.856-3.767-3.169-19.719-2.757-41.416.186-9.951,1.173-20.917,2.265-30.073.02-.163.038-.331.064-.492,1.271-10.574,2.689-18.629,3.189-19.728.247.537,3.378,2.172,9.319,3.429l.462.1a80.567,80.567,0,0,0,15.186,1.491,131.163,131.163,0,0,0,15.075-.6c.161-.014.319-.032.474-.048,6.454-.73,10.021-1.93,10.142-3.027,0,0,2.424,7.788,5.181,17.8.043.156.088.315.131.474,1.925,7,3.991,15.041,5.511,22.249,3.745,17.751,8.739,39.27,4.576,46.075" transform="translate(46.566 95.264)" fill="#8284d2"/>
            <path id="Trazado_134588" data-name="Trazado 134588" d="M65.77,97.1c-.005.111-.786,11.277-1.4,14.679-.324,1.756-.791,4.576-1.174,6.841-.243,1.438-.412,2.431-.525,3.085.213-2.632.381-4.555.4-4.787-.02.054-.064.193-.138.4.338-1.986.705-4.152.969-5.609.616-3.375,1.4-14.52,1.405-14.634a.236.236,0,0,1,.465.023" transform="translate(49.529 76.576)" fill="#1f1f1e"/>
            <path id="Trazado_134589" data-name="Trazado 134589" d="M85.64,108.537a16.184,16.184,0,0,1-4.016-.457.2.2,0,0,1-.156-.252.243.243,0,0,1,.294-.127c2.625.7,7.851.65,10.4-1.044.911-.607,1.475-2.234,1.547-4.462.1-3.266-.859-6.811-2.1-7.736a.176.176,0,0,1-.025-.278.254.254,0,0,1,.331-.023c1.518,1.126,2.358,5.056,2.263,8.051-.043,1.377-.324,3.835-1.728,4.768a13.112,13.112,0,0,1-6.807,1.559" transform="translate(64.381 74.378)" fill="#1f1f1e"/>
            <path id="Trazado_134590" data-name="Trazado 134590" d="M97.267,112.967c-8.185,0-16.8-4.13-16.908-4.184a.182.182,0,0,1-.088-.272.253.253,0,0,1,.319-.081c.12.063,12.3,5.906,21.287,3.6a11.517,11.517,0,0,0,7.287-5.282.256.256,0,0,1,.315-.086.189.189,0,0,1,.1.274,11.972,11.972,0,0,1-7.57,5.482,19.17,19.17,0,0,1-4.743.548" transform="translate(63.417 84.285)" fill="#1f1f1e"/>
            <path id="Trazado_134591" data-name="Trazado 134591" d="M61.277,122.317c-.082.132-.156.258-.229.376a43.48,43.48,0,0,1-9.1-2.333c.009-.149.02-.3.034-.449a42.124,42.124,0,0,0,9.294,2.406" transform="translate(41.058 94.772)" fill="#1f1f1e"/>
            <path id="Trazado_134592" data-name="Trazado 134592" d="M82.054,113.679a.3.3,0,0,1-.129-.036.186.186,0,0,1-.064-.281c2.537-3.262,1.91-10.524,1.692-11.05a.181.181,0,0,1,.023-.251.277.277,0,0,1,.333-.007c.376.308,1.062,8.033-1.658,11.537a.254.254,0,0,1-.2.088" transform="translate(64.667 80.617)" fill="#1f1f1e"/>
            <path id="Trazado_134593" data-name="Trazado 134593" d="M104.349,125.82a51.621,51.621,0,0,1-5.267-1.216s-2.872-.4-3.022.267,3.672,1.339,3.672,1.339a22.348,22.348,0,0,1-12.015,4.576l.077-20.908s9.831-.811,9.91-1.683-10.377-1.88-10.377-1.88l-.079-5.652c1.484-.2,4.839-1.95,5-5.307S88.5,89.574,84.05,89.641s-6.164,3.226-5.772,6.587,5.3,4.436,5.3,4.436l-.079,6.051S75,107.863,72.969,108.058s-2.652,2.489.39,2.625,9.544-.4,9.544-.4v20.5s-7.437.942-12.352-2.422c0,0,2.5-.331,2.729-1.2s-6.866-2.694-7.645-2.562.156,9.013,1.248,9.147,1.484-3.629,1.484-3.629a22.079,22.079,0,0,0,18.124,8.669c12.069-.269,16.36-8.873,16.36-8.873s.313,2.619,1.875,2.557-.378-6.649-.378-6.649M85.341,98.191a3.422,3.422,0,1,1,3.926-3.384,3.688,3.688,0,0,1-3.926,3.384" transform="translate(51.648 70.847)" fill="#4c5346"/>
            <path id="Trazado_134594" data-name="Trazado 134594" d="M86.676,103.47s-.858-3.7-2.028-3.767S83.4,102.26,83.4,102.26s-4.368-2.763-5.07-1.549,4.172,4.775,4.172,4.775-6.592-2.421-7.294-1.345,5.736,3.16,5.736,3.16-4.565-.2-5.111.739,5.93,2.018,5.93,2.018-3.978.066-4.291.938,7.024,3.1,7.024,3.1a23.065,23.065,0,0,0,2.182-10.622" transform="translate(59.397 78.8)" fill="#f79172"/>
            <path id="Trazado_134595" data-name="Trazado 134595" d="M112.735,121.229a88.738,88.738,0,0,1-9.893,2.4A108.761,108.761,0,0,1,86.219,124.7a88.583,88.583,0,0,1-11.317-.6,38.658,38.658,0,0,1-12.839-4.61c.005-.149.013-.3.018-.471a38.362,38.362,0,0,0,12.9,4.676c7.4,1.046,21.916.621,27.768-.469a88.03,88.03,0,0,0,9.969-2.422c.005.149.013.286.018.421" transform="translate(49.052 94.07)" fill="#1f1f1e"/>
            <path id="Trazado_134596" data-name="Trazado 134596" d="M73.3,122.548a30.263,30.263,0,0,1-2.578,6.4A23.434,23.434,0,0,1,60.265,139.24c.02-.163.038-.329.064-.492,8.694-4.215,11.8-13.666,12.507-16.3.149.032.306.068.462.1" transform="translate(47.631 96.777)" fill="#1f1f1e"/>
            <path id="Trazado_134597" data-name="Trazado 134597" d="M100.376,138.222a30.673,30.673,0,0,1-9.979-5.8,20.773,20.773,0,0,1-5.949-9.4c.161-.013.319-.032.474-.048a20.284,20.284,0,0,0,5.817,9.163,30.416,30.416,0,0,0,9.507,5.611c.043.156.088.317.131.474" transform="translate(66.743 97.193)" fill="#1f1f1e"/>
            <path id="Trazado_134598" data-name="Trazado 134598" d="M83.8,79.28l-.1,1.28c-1.66.947-4.873,1.993-9.442-.05-.05-.442-.113-.874-.163-1.237a19.157,19.157,0,0,0,9.705.007" transform="translate(58.564 62.654)" fill="#b94734"/>
            <path id="Trazado_134599" data-name="Trazado 134599" d="M67.1,153.2a6.76,6.76,0,0,1-3.506-1.128.177.177,0,0,1-.034-.279.26.26,0,0,1,.328-.038,5.7,5.7,0,0,0,4.376.868.242.242,0,0,1,.3.124.192.192,0,0,1-.141.252,4.267,4.267,0,0,1-1.323.2" transform="translate(50.191 119.909)" fill="#1f1f1e"/>
            <path id="Trazado_134600" data-name="Trazado 134600" d="M92.338,153.019a7.748,7.748,0,0,1-2.775-.528.188.188,0,0,1-.106-.267.256.256,0,0,1,.315-.091c.145.066,3.615,1.515,5.958-.849a.262.262,0,0,1,.329-.02.181.181,0,0,1,.029.283,5.145,5.145,0,0,1-3.751,1.472" transform="translate(70.684 119.514)" fill="#1f1f1e"/>
            <path id="Trazado_134601" data-name="Trazado 134601" d="M112.118,74.715a1.85,1.85,0,0,0-.756-.081c-.018.009-4.37,2.122-4.762,3.246,0,0,.05-.313.124-.843l-.013.009s.217-1.624.376-3.708a21.993,21.993,0,0,0-.319-6.071c-.958-3.856-2.311-6.531-4.225-5.409s-7.269,2.841-13.689,1.6a17.629,17.629,0,0,1-10.028-5.942c-.732-.594-1.635-.809-3.889,1.715s-5.575,8.622-5.854,11.734c-.206,2.252-.439,4.689-.553,5.867.041.206.075.328.075.328l-.095-.093c-.034.306-.05.485-.05.485a13.473,13.473,0,0,0-3.516-2.437,1.985,1.985,0,0,0-1.832.8c-1.858,2.412,1.857,9.326,6.589,9,0,0,1.013,9.163,12.423,12.133l.011.007a18.992,18.992,0,0,0,10.509.009c5.7-1.762,9.818-6.5,12.463-12.47a6.177,6.177,0,0,0,5.829-1.844c2.535-2.734,2.958-7.394,1.182-8.042" transform="translate(49.495 45.156)" fill="#ed875f"/>
            <path id="Trazado_134602" data-name="Trazado 134602" d="M87.187,70.157c.392-1.126,4.744-3.239,4.762-3.248-1.849.147-4.531,2.319-4.639,2.4-.073.53-.124.843-.124.843" transform="translate(68.909 52.882)" fill="#8c4a1e"/>
            <path id="Trazado_134603" data-name="Trazado 134603" d="M111.592,64.362c-1.522-6.6-6.759-14.722-13.292-14.04A34.283,34.283,0,0,1,87.385,50a21.782,21.782,0,0,0-14.04,2.091c-5.185,2.678-9.013,9.75-9.8,15.968s.476,12.86.85,12.98l.023.009A7.136,7.136,0,0,1,67.985,83c.005-.072.013-.147.02-.235.115-1.18.347-3.615.553-5.867.279-3.113,3.6-9.211,5.854-11.734s3.156-2.311,3.889-1.715a17.62,17.62,0,0,0,10.028,5.94c6.42,1.239,11.773-.474,13.689-1.6s3.267,1.552,4.225,5.409a21.99,21.99,0,0,1,.319,6.071c-.088,1.52-.252,2.874-.363,3.7.106-.086,2.789-2.258,4.639-2.4,0,0,2.277-9.618.756-16.2" transform="translate(50.021 39.228)" fill="#673325"/>
            <path id="Trazado_134604" data-name="Trazado 134604" d="M67.486,69.132a7.142,7.142,0,0,0-3.565-1.953,13.543,13.543,0,0,1,3.516,2.438s.016-.179.048-.485" transform="translate(50.52 53.095)" fill="#8c4a1e"/>
            <path id="Trazado_134605" data-name="Trazado 134605" d="M72.272,62.894c3.923-1.529,5.367-.562,5.375.177.011.72-1.3,1.232-5.015,2-1.135.242-4.028.671-4.218.2-.4-.976,1.712-1.558,3.858-2.385" transform="translate(54.032 49.067)" fill="#673325"/>
            <path id="Trazado_134606" data-name="Trazado 134606" d="M79.456,63.068c-.075-.756,1.71-1.448,4.347-.664,2.635.768,5.328,2.583,4.85,3.1s-3.051.021-5.455-.747c-1.574-.5-3.654-.759-3.742-1.694" transform="translate(62.796 49.048)" fill="#673325"/>
            <path id="Trazado_134607" data-name="Trazado 134607" d="M75.964,76.838a1.017,1.017,0,0,1-.585-.163c-.591-.4.03-6.415.657-11.394a.245.245,0,0,1,.281-.208.239.239,0,0,1,.222.263c-.621,4.943-1.123,10.466-.829,10.984a.879.879,0,0,0,.679-.048,1.678,1.678,0,0,0,1.042-1.2.251.251,0,0,1,.294-.192.239.239,0,0,1,.206.27,2.165,2.165,0,0,1-1.352,1.565,1.566,1.566,0,0,1-.614.124" transform="translate(59.388 51.43)" fill="#1f1f1e"/>
            <path id="Trazado_134608" data-name="Trazado 134608" d="M73.416,67.368c0,1.207-.548,2.173-1.223,2.173s-1.226-.967-1.226-2.173.55-2.161,1.226-2.161,1.223.969,1.223,2.161" transform="translate(56.089 51.537)" fill="#1f1f1e"/>
            <path id="Trazado_134609" data-name="Trazado 134609" d="M83.2,67.368c0,1.207-.546,2.173-1.225,2.173s-1.225-.967-1.225-2.173.548-2.161,1.225-2.161,1.225.969,1.225,2.161" transform="translate(63.818 51.537)" fill="#1f1f1e"/>
            <path id="Trazado_134610" data-name="Trazado 134610" d="M80.926,78.76c-6.751,0-10.058-6.127-10.092-6.187a.3.3,0,0,1,.526-.279c.03.061,3.178,5.872,9.566,5.872s9.421-5.81,9.451-5.867a.3.3,0,0,1,.4-.131.3.3,0,0,1,.131.4c-.032.063-3.224,6.193-9.981,6.193" transform="translate(55.957 57.014)" fill="#1f1f1e"/>
          </g>
        </g>
      </g>
    </g>
  </g>
</svg>
