<svg xmlns="http://www.w3.org/2000/svg" xmlns:xlink="http://www.w3.org/1999/xlink" width="499.609" height="309.875" viewBox="0 0 499.609 309.875">
  <defs>
    <clipPath id="clip-path">
      <rect id="Rect치ngulo_38153" data-name="Rect치ngulo 38153" width="386.886" height="308.616" fill="none"/>
    </clipPath>
    <clipPath id="clip-path-2">
      <path id="Trazado_137067" data-name="Trazado 137067" d="M150.045,168.88l-21.592,30.568c2.3,18.2-.915,36.925-7.013,54.226a6.763,6.763,0,0,0,0,4.753c1.676,4.188,6.616,3.453,10.481,2.686a66.315,66.315,0,0,1,23.521-.4c5.513.9,10.936,2.5,16.517,2.717s11.574-1.195,15.707-5.247l6.28-21.929c1.48-5.166,3.3-10.784,7.175-14.583a8.505,8.505,0,0,0,2.337-3.724,9.819,9.819,0,0,0,.325-1.786l14.656-5.758-20.762-48.676-11.689-5.583Z" transform="translate(-121.008 -156.144)" fill="none"/>
    </clipPath>
  </defs>
  <g id="_165" data-name="165" transform="translate(-10282 6429)">
    <g id="Grupo_158782" data-name="Grupo 158782" transform="translate(10030 -9673.678)">
      <g id="Grupo_85023" data-name="Grupo 85023" transform="translate(252 3244.678)">
        <rect id="Rect치ngulo_34651" data-name="Rect치ngulo 34651" width="499.609" height="201.281" transform="translate(0 108.594)" fill="#6b8dff"/>
        <g id="Grupo_84254" data-name="Grupo 84254" transform="translate(22.106 0)">
          <g id="Grupo_84000" data-name="Grupo 84000" transform="translate(0)">
            <path id="Trazado_118280" data-name="Trazado 118280" d="M236.858,308.023q-1.951-.241-3.924-.4c-15.443-1.217-30.87,1.941-46.386,2.368-27.964.768-55.359-7.466-78.237-19.536s-41.789-27.828-59.888-43.812c-19.458-17.186-39.345-37.482-35.888-59.865,2.52-16.313,17.156-30.061,32.688-41.653,19.647-14.668,41.57-27.435,62.593-40.945,20.909-13.435,37.578-31.2,58.744-43.821,41.051-24.473,104.4-27.836,151.382-12.132C348.09,58.3,372.9,75.379,400.377,89.087c19.651,9.807,41.586,18.513,54.205,33.462,15.29,18.114,13.474,41.368,8.372,62.454-8.633,35.677-26,71.272-59.183,97.676s-84.335,42.012-131.221,32.986C260.559,313.356,249.024,309.533,236.858,308.023Z" transform="translate(-12.141 -38.664)" fill="#c4d1ff"/>
          </g>
        </g>
      </g>
    </g>
    <g id="Grupo_159115" data-name="Grupo 159115" transform="translate(10338 -6428)">
      <g id="Grupo_159110" data-name="Grupo 159110">
        <g id="Grupo_159109" data-name="Grupo 159109" clip-path="url(#clip-path)">
          <path id="Trazado_137015" data-name="Trazado 137015" d="M445.13,118.462a193.272,193.272,0,0,0-23.631,6.67c-7.356,2.45-14.418,6.23-19.695,11.911-11.3,12.167-12.552,30.5-20.726,44.907,8.052,6.546,17.657,11.169,27.747,14.56l2.328,11.787s75.937,5.533,77.223,6.273a61.553,61.553,0,0,1,5.262-20.529q-.1,2-.2,4.007a44.615,44.615,0,0,0,26.622-19.35c-6.773-8.965-6.483-21.475-11.756-31.4-3.39-6.38-8.956-11.393-15.1-15.188a153.829,153.829,0,0,0-21.748-10.651Z" transform="translate(-165.51 -51.45)" fill="#d3e2f0"/>
          <path id="Trazado_137016" data-name="Trazado 137016" d="M578.407,236.06a.3.3,0,0,1-.085-.012.3.3,0,0,1-.207-.376l7.582-26.09a.3.3,0,0,1,.584.17l-7.582,26.09a.3.3,0,0,1-.292.219" transform="translate(-251.081 -90.93)" fill="#8fa2bd"/>
          <path id="Trazado_137017" data-name="Trazado 137017" d="M581.6,240.143a.3.3,0,0,1-.25-.476l6.46-9.352a.3.3,0,1,1,.5.345l-6.46,9.352a.3.3,0,0,1-.25.131" transform="translate(-252.469 -99.973)" fill="#8fa2bd"/>
          <path id="Trazado_137018" data-name="Trazado 137018" d="M598.193,172.522a.3.3,0,0,1-.272-.438,15.052,15.052,0,0,0,.891-10.962.3.3,0,0,1,.582-.177,15.669,15.669,0,0,1-.928,11.409.3.3,0,0,1-.273.169" transform="translate(-259.675 -69.808)" fill="#8fa2bd"/>
          <path id="Trazado_137019" data-name="Trazado 137019" d="M434.763,156.935h-.012a.3.3,0,0,1-.291-.316,24.337,24.337,0,0,0-3.541-13.588.3.3,0,1,1,.518-.318,24.953,24.953,0,0,1,3.631,13.931.3.3,0,0,1-.3.291" transform="translate(-187.137 -61.92)" fill="#8fa2bd"/>
          <path id="Trazado_137020" data-name="Trazado 137020" d="M433.955,236.931a.3.3,0,0,1-.3-.367l5.059-23.739a.3.3,0,1,1,.595.126l-5.059,23.739a.3.3,0,0,1-.3.24" transform="translate(-188.343 -92.33)" fill="#8fa2bd"/>
          <path id="Trazado_137021" data-name="Trazado 137021" d="M438.695,230.126a.3.3,0,0,1-.281-.419,107.946,107.946,0,0,0,4.467-13.39.3.3,0,1,1,.587.154,108.475,108.475,0,0,1-4.492,13.465.3.3,0,0,1-.281.189" transform="translate(-190.402 -93.853)" fill="#8fa2bd"/>
          <path id="Trazado_137022" data-name="Trazado 137022" d="M482.534,49.627a6.164,6.164,0,0,1-3.615-8.019c.54-1.223,1.517-2.367,1.394-3.7-.122-1.314-1.279-2.279-1.763-3.506a5.44,5.44,0,0,1,1.07-5.011c1.048-1.442,2.449-2.6,3.523-4.02,2.164-2.867,2.828-6.548,3.749-10.02s2.355-7.113,5.4-9.025c2.587-1.626,5.856-1.687,8.667-2.885,2.312-.985,4.308-2.737,6.764-3.269,5.224-1.132,9.9,3.529,15.177,4.372,1.656.265,3.362.145,5.006.48A4.895,4.895,0,0,1,531.751,7.9c.4,1.2.08,2.573.62,3.713.821,1.733,3.077,2.056,4.838,2.815a8.387,8.387,0,0,1,4.713,9.234c-.521,2.331-2.073,4.562-1.583,6.9.458,2.186,2.617,3.783,2.841,6.005.338,3.34-3.713,5.549-4.385,8.838-.483,2.361.844,5.03-.354,7.122-1.006,1.756-3.318,2.228-4.825,3.579-2.042,1.829-2.763,5.35-5.451,5.888-2.812.563-5.368-2.817-8.144-2.094-1.29.336-2.18,1.472-3.213,2.315s-2.646,1.381-3.63.481Z" transform="translate(-207.732 0)" fill="#f2c9b8"/>
          <path id="Trazado_137023" data-name="Trazado 137023" d="M515.177,26.107a7.015,7.015,0,0,1-10.622.141,8.513,8.513,0,0,1-10.247-2.277c-4.512,4.577-6.667,8.8-6.84,15.558A28.587,28.587,0,0,0,482.9,52.866a56.964,56.964,0,0,0,.859,12.568,13.134,13.134,0,0,0,1.6,5.411,5.262,5.262,0,0,0,4.684,2.474c-.4.972-.8,1.944-1.126,2.983-3.24,1.59-9.968,3.126-9.968,3.126s3.464,6.6,5.784,8.325a23.845,23.845,0,0,0,7.841,3.585c4.734,1.333,9.853,1.847,14.539.354s8.831-5.291,9.74-10.124c-1.718-1.139-3.436-2.279-5.137-3.345,2.517-5.963,5.034-11.925,7.658-17.842A5.8,5.8,0,0,0,524,59.027a12.839,12.839,0,0,0,3.021-3.928c.914-1.669,1.7-3.566,1.316-5.429s-2.456-3.451-4.2-2.682c-1.075.477-1.9,1.731-3.067,1.574a1.982,1.982,0,0,1-1.441-2.178,7.487,7.487,0,0,1,1.006-2.676,3.967,3.967,0,0,0,.522-2.763c-.609-2.161-4.665-.669-4.628-2.914.016-.97.765-1.776.965-2.725.318-1.514-.789-2.913-1.73-4.141a4.241,4.241,0,0,1-.595-5.058" transform="translate(-208.014 -10.411)" fill="#f67f6c"/>
          <path id="Trazado_137024" data-name="Trazado 137024" d="M554.2,73.427a.3.3,0,0,1-.287-.4,6.608,6.608,0,0,1,4.835-4.249.3.3,0,0,1,.122.6,5.99,5.99,0,0,0-4.383,3.852.3.3,0,0,1-.287.2" transform="translate(-240.569 -29.868)" fill="#e03d2b"/>
          <path id="Trazado_137025" data-name="Trazado 137025" d="M555.191,78.946a.3.3,0,0,1-.133-.577,5.5,5.5,0,0,0,2.9-3.654.3.3,0,1,1,.592.133,6.035,6.035,0,0,1-3.223,4.067.3.3,0,0,1-.133.031" transform="translate(-240.999 -32.347)" fill="#e03d2b"/>
          <path id="Trazado_137026" data-name="Trazado 137026" d="M499.981,103.012q-.811,0-1.62-.045a.3.3,0,0,1,.035-.606,30.833,30.833,0,0,0,24.858-10.745.3.3,0,0,1,.465.392,31.505,31.505,0,0,1-23.737,11" transform="translate(-216.324 -39.744)" fill="#e03d2b"/>
          <path id="Trazado_137027" data-name="Trazado 137027" d="M532.42,126.29a.3.3,0,0,1-.126-.027.3.3,0,0,1-.151-.4L534.4,120.9a.3.3,0,1,1,.553.251l-2.256,4.963a.3.3,0,0,1-.277.178" transform="translate(-231.108 -52.431)" fill="#e03d2b"/>
          <path id="Trazado_137028" data-name="Trazado 137028" d="M499.609,65.412a.3.3,0,0,1-.25-.131,13.177,13.177,0,0,1-1.853-3.931.305.305,0,0,1,.071-.29c.533-.569,1.052-1.111,1.555-1.637,1.31-1.369,2.548-2.662,3.645-4.029a9.029,9.029,0,0,0,1.784-3.091,10.635,10.635,0,0,0-.312-5.113.3.3,0,0,1,.592-.134,11.09,11.09,0,0,1,.3,5.41,9.574,9.574,0,0,1-1.9,3.309c-1.114,1.386-2.36,2.689-3.68,4.068-.464.485-.942.984-1.432,1.506a12.556,12.556,0,0,0,1.72,3.586.3.3,0,0,1-.25.477" transform="translate(-216.072 -20.334)" fill="#e03d2b"/>
          <path id="Trazado_137029" data-name="Trazado 137029" d="M495.38,52.31c.584,3.655,3.42,4.554,7.009,2.727-1.106-2.66-4.285-6.3-7.009-2.727" transform="translate(-215.153 -22.073)" fill="#fff"/>
          <path id="Trazado_137030" data-name="Trazado 137030" d="M505.786,79.344a.3.3,0,0,1-.214-.088l-1.518-1.5a.3.3,0,0,1,.427-.433l1.519,1.5a.3.3,0,0,1-.214.52" transform="translate(-218.881 -33.546)" fill="#e03d2b"/>
          <path id="Trazado_137031" data-name="Trazado 137031" d="M496.781,52.531c-.113,1.44.286,3.429,1.873,3.689a1.521,1.521,0,0,0,.979-.182c2.319-1.331-.246-6.041-2.31-4.468a1.358,1.358,0,0,0-.541.961" transform="translate(-215.754 -22.26)" fill="#473e57"/>
          <path id="Trazado_137032" data-name="Trazado 137032" d="M502.044,55.422a.3.3,0,0,1-.257-.142c-1.755-2.787-3.495-4.287-4.967-4.27-.993.023-1.91.765-2.724,2.2a.3.3,0,0,1-.529-.3c.928-1.638,2.018-2.483,3.24-2.511h.063c2.118,0,4.12,2.47,5.431,4.554a.3.3,0,0,1-.257.466" transform="translate(-214.349 -21.891)" fill="#ad4a3e"/>
          <path id="Trazado_137033" data-name="Trazado 137033" d="M520.05,59.709c.648,3.827,3.8,4.769,7.778,2.856-1.228-2.786-4.755-6.591-7.778-2.856" transform="translate(-225.868 -25.257)" fill="#fff"/>
          <path id="Trazado_137034" data-name="Trazado 137034" d="M521.606,59.941c-.125,1.507.318,3.589,2.078,3.862a1.767,1.767,0,0,0,1.086-.19c2.573-1.393-.273-6.324-2.563-4.678a1.405,1.405,0,0,0-.6,1.006" transform="translate(-226.535 -25.452)" fill="#473e57"/>
          <path id="Trazado_137035" data-name="Trazado 137035" d="M527.471,62.964a.3.3,0,0,1-.253-.135c-1.931-2.9-3.878-4.484-5.491-4.484h-.058c-1.115.027-2.142.807-3.05,2.321a.3.3,0,1,1-.521-.313c1.022-1.7,2.219-2.583,3.556-2.615h.075c2.331,0,4.542,2.578,5.995,4.755a.3.3,0,0,1-.253.472" transform="translate(-225.001 -25.076)" fill="#ad4a3e"/>
          <path id="Trazado_137036" data-name="Trazado 137036" d="M502.354,45.378a.3.3,0,0,1-.236-.114,5.9,5.9,0,0,0-6.486-1.746.3.3,0,1,1-.218-.566,6.438,6.438,0,0,1,7.178,1.932.3.3,0,0,1-.237.494" transform="translate(-215.083 -18.481)" fill="#f2c9b8"/>
          <path id="Trazado_137037" data-name="Trazado 137037" d="M501.566,88.649a9.947,9.947,0,0,1-1.7-.137,6.049,6.049,0,0,1-4.92-3.843.3.3,0,0,1,.582-.178,5.441,5.441,0,0,0,4.441,3.422,16.716,16.716,0,0,0,6.073-.463.3.3,0,0,1,.119.6,23.588,23.588,0,0,1-4.6.6" transform="translate(-214.961 -36.603)" fill="#e03d2b"/>
          <path id="Trazado_137038" data-name="Trazado 137038" d="M530.724,55.7a.3.3,0,0,1-.266-.157,10.781,10.781,0,0,0-10.85-5.263.3.3,0,0,1-.1-.6,11.4,11.4,0,0,1,11.48,5.569.3.3,0,0,1-.119.413.308.308,0,0,1-.147.038" transform="translate(-225.523 -21.519)" fill="#f2c9b8"/>
          <path id="Trazado_137039" data-name="Trazado 137039" d="M425.426,208.968c11.255-11.069,15.3-27.429,17.575-43.051s3.538-32.146,10.954-46.277c.532-.162,1.926-.523,2.923-.91a113.915,113.915,0,0,0-7.365,46.027c12.663-6.736,29.459,4.119,41.952-2.914a75.321,75.321,0,0,0-7.924-41.9c1.465.675,2.929,1.351,4.561,1.96,5.725,14.12,8.895,29.272,8.075,44.715,7.374,42.564,8.827,89.239,3.655,132.126,0,0-85.4,1.112-86.462,1.2-1.464-20.637,2.716-41.769,6.9-62.031,1.99-9.64,3.98-19.279,5.158-28.949" transform="translate(-179.405 -51.567)" fill="#473e57"/>
          <path id="Trazado_137040" data-name="Trazado 137040" d="M475.714,255.6a.305.305,0,0,1-.3-.347c1.613-11.364,3.281-23.114,4.01-35.389a.3.3,0,0,1,.1-.21.3.3,0,0,1,.222-.075,207.23,207.23,0,0,0,37.455-.712.307.307,0,0,1,.274.117.3.3,0,0,1,.043.294c-1.88,4.9-1.208,10.366-.559,15.648q.119.957.231,1.908c.637,5.477.9,12.427-2.761,17.6a.3.3,0,0,1-.289.126,118.524,118.524,0,0,0-38.37,1.037.282.282,0,0,1-.057.006m4.3-35.393c-.73,12.038-2.354,23.561-3.937,34.711a119.136,119.136,0,0,1,37.964-.988c3.43-4.988,3.166-11.711,2.548-17.026-.073-.632-.151-1.267-.229-1.9-.639-5.192-1.3-10.556.425-15.475a207.994,207.994,0,0,1-36.771.683" transform="translate(-206.48 -95.056)" fill="#7c7c91"/>
          <path id="Trazado_137041" data-name="Trazado 137041" d="M564.272,284.218a.3.3,0,0,1-.278-.18l-5.86-13.208a.3.3,0,0,1,.555-.246l5.86,13.208a.3.3,0,0,1-.155.4.307.307,0,0,1-.123.026" transform="translate(-242.397 -117.441)" fill="#7c7c91"/>
          <path id="Trazado_137042" data-name="Trazado 137042" d="M563.687,293.143a.3.3,0,0,1-.219-.093l-4.4-4.585a.3.3,0,1,1,.438-.421l4.4,4.585a.3.3,0,0,1-.219.514" transform="translate(-242.777 -125.063)" fill="#7c7c91"/>
          <path id="Trazado_137043" data-name="Trazado 137043" d="M438.95,274.74a.3.3,0,0,1-.158-.563,47.253,47.253,0,0,0,13.256-12.143.3.3,0,0,1,.489.361,47.89,47.89,0,0,1-13.428,12.3.3.3,0,0,1-.158.044" transform="translate(-190.513 -113.753)" fill="#7c7c91"/>
          <path id="Trazado_137044" data-name="Trazado 137044" d="M448.4,283.972a.3.3,0,0,1-.1-.592l7.7-2.561a.3.3,0,0,1,.192.577l-7.7,2.561a.319.319,0,0,1-.1.015" transform="translate(-194.619 -121.958)" fill="#7c7c91"/>
          <path id="Trazado_137045" data-name="Trazado 137045" d="M532.443,358.43a.3.3,0,0,1-.263-.457A323.593,323.593,0,0,0,547.3,328.616a.3.3,0,1,1,.554.251,324.677,324.677,0,0,1-15.15,29.413.305.305,0,0,1-.263.151" transform="translate(-231.118 -142.647)" fill="#7c7c91"/>
          <path id="Trazado_137046" data-name="Trazado 137046" d="M438.618,353.1a.3.3,0,0,1-.3-.255,118.693,118.693,0,0,1-1.5-22.446.3.3,0,0,1,.608.017,118.054,118.054,0,0,0,1.493,22.331.3.3,0,0,1-.251.349.3.3,0,0,1-.049,0" transform="translate(-189.698 -143.369)" fill="#7c7c91"/>
          <path id="Trazado_137047" data-name="Trazado 137047" d="M456.9,470.245a.31.31,0,0,1-.11-.02L422.071,456.87a.3.3,0,0,1,.218-.567l34.723,13.355a.3.3,0,0,1-.109.587" transform="translate(-183.229 -198.173)" fill="#c76161"/>
          <path id="Trazado_137048" data-name="Trazado 137048" d="M111,338.141a75.288,75.288,0,0,0-20.831,63.5s97.428-4.172,99.278-6.386c-6.947-8.245-9.894-19.109-11.65-29.747s-2.54-21.525-6-31.734Z" transform="translate(-38.812 -144.963)" fill="#f2c9b8"/>
          <path id="Trazado_137049" data-name="Trazado 137049" d="M204.523,362.294a.3.3,0,0,1-.3-.363,48.058,48.058,0,0,0,.634-14.66.3.3,0,1,1,.6-.066,48.638,48.638,0,0,1-.641,14.845.3.3,0,0,1-.3.244" transform="translate(-88.696 -150.681)" fill="#a85454"/>
          <path id="Trazado_137050" data-name="Trazado 137050" d="M131.5,356.789a14.221,14.221,0,0,1-5.093-.932.3.3,0,0,1,.218-.567,13.659,13.659,0,0,0,18.2-9.623.3.3,0,1,1,.591.139A14.212,14.212,0,0,1,131.5,356.789" transform="translate(-54.816 -150.028)" fill="#a85454"/>
          <path id="Trazado_137051" data-name="Trazado 137051" d="M235.951,360.4a.3.3,0,0,1-.172-.053,9.617,9.617,0,0,1-3.712-6.189,28.121,28.121,0,0,1-.181-7.22.3.3,0,0,1,.606.038,27.656,27.656,0,0,0,.17,7.064,9.018,9.018,0,0,0,3.46,5.806.3.3,0,0,1-.172.554" transform="translate(-100.651 -150.558)" fill="#a85454"/>
          <path id="Trazado_137052" data-name="Trazado 137052" d="M184.338,434.9a.3.3,0,0,1-.116-.023.3.3,0,0,1-.165-.4,15.944,15.944,0,0,1,7.506-8.041.3.3,0,0,1,.272.543,15.333,15.333,0,0,0-7.216,7.731.3.3,0,0,1-.281.187" transform="translate(-79.93 -185.196)" fill="#a85454"/>
          <path id="Trazado_137053" data-name="Trazado 137053" d="M128.454,199.448c2.3,18.2-.915,36.925-7.013,54.226a6.766,6.766,0,0,0,0,4.753c1.676,4.188,6.616,3.453,10.481,2.686a66.315,66.315,0,0,1,23.521-.4c5.513.9,10.936,2.5,16.517,2.716s11.574-1.195,15.707-5.247l6.28-21.929c1.479-5.166,3.3-10.784,7.175-14.583a8.5,8.5,0,0,0,2.336-3.724,9.82,9.82,0,0,0,.326-1.786l14.655-5.757-20.762-48.677-11.689-5.583-35.94,12.736Z" transform="translate(-52.557 -67.816)" fill="#ff722b"/>
        </g>
      </g>
      <g id="Grupo_159112" data-name="Grupo 159112" transform="translate(68.452 88.328)">
        <g id="Grupo_159111" data-name="Grupo 159111" clip-path="url(#clip-path-2)">
          <path id="Trazado_137054" data-name="Trazado 137054" d="M189.733,242.758a4.564,4.564,0,0,0-3.744-7.416,6.362,6.362,0,0,0-3.711,1.354,10.33,10.33,0,0,0-3.143,2.981,3.991,3.991,0,0,0-.156,4.609,9.441,9.441,0,0,0,1.393,2.594,3.442,3.442,0,0,0-.086.434c-.018.026-.037.051-.055.077l-.015.018c-.725.82-.812.385-2.314,1.616a2.879,2.879,0,0,0,.1,4.71c2.413,1.489,5.384-.416,6.651-2.579a3.487,3.487,0,0,0,.006-3.349l-.019-.045.1-.14c.087-.1.2-.225.323-.339l.129-.12c.1-.067.193-.137.294-.2,1.195-.823.361.127,2.62-1.522a2.058,2.058,0,0,0,.627-1.287,9.78,9.78,0,0,0,.673-.817c.121-.192.227-.385.324-.578" transform="translate(-145.209 -190.539)" fill="#72568f"/>
          <path id="Trazado_137055" data-name="Trazado 137055" d="M256.206,218.536c-.021,0-.042,0-.064-.007a3.062,3.062,0,0,0-1.719-1.227,7.477,7.477,0,0,0-5.373.835,30.051,30.051,0,0,0-4.564,3.043c-2.453,1.694-4.451,3.744-4.7,5.793a2.958,2.958,0,0,0,2.226,2.932,6.189,6.189,0,0,0,3.1.216,3.237,3.237,0,0,0,.989.593c-2.66,1.541-5.353,3.161-7.177,5.7-2.41,3.384.876,6.3,4.39,4.974.191-.071.378-.147.564-.228a2.083,2.083,0,0,0,2.271-1.01c.541-.8,2.086-1.3,3.831-2.629,2.214-1.831,6.079-4.854,4.619-8.1a2.931,2.931,0,0,0-1.14-1.246,3.186,3.186,0,0,0-.5-.605c.245-.208.492-.412.735-.619.651-.529.974-.833,1.225-1.063a18.116,18.116,0,0,1,1.935-1.22,2.492,2.492,0,0,0,.9-.538,2.072,2.072,0,0,0,.539-2,2.374,2.374,0,0,0,.223-.5,2.486,2.486,0,0,0-2.3-3.09" transform="translate(-171.861 -182.618)" fill="#72568f"/>
          <path id="Trazado_137056" data-name="Trazado 137056" d="M206.476,282.9a4.085,4.085,0,0,0-3.989-.664,2.329,2.329,0,0,0-.381.115c-3.34,1.092-6.771,4.632-6.186,7.334.751,2.076,2.721,2.34,4.737,1.7a9.6,9.6,0,0,0,3.948-2.217c1.607-1.478,3.753-4.241,1.87-6.272" transform="translate(-153.515 -210.811)" fill="#72568f"/>
          <path id="Trazado_137057" data-name="Trazado 137057" d="M251.121,270.274a2.971,2.971,0,0,0-3.6-2.4c-1.775.508-4.2,2.473-4.6,4.49a5.642,5.642,0,0,0-.921-.381,6.711,6.711,0,0,0-4.8.77,6.338,6.338,0,0,0-2.929,2.338c-1.392,1.474-2.522,3.386-1.595,5.322a4.84,4.84,0,0,0,5.8,1.889,22.287,22.287,0,0,0,3.121-1.665,5.14,5.14,0,0,0,2.418-1.88,3.024,3.024,0,0,0,.39-1.292l.13-.114c2.306.216,5.172-2.275,6.239-4.045a3.484,3.484,0,0,0,.35-.83c.008-.013.02-.024.028-.037a2.129,2.129,0,0,0-.023-2.163" transform="translate(-169.358 -204.629)" fill="#72568f"/>
          <path id="Trazado_137058" data-name="Trazado 137058" d="M218.256,235.482l-.147-.073c-.477-2.194-2.741-3.124-4.932-2.5-1.381.447-3.077,1.1-3.572,2.595a2.153,2.153,0,0,0-.092.787,2.221,2.221,0,0,0,1.362,3.207,5.624,5.624,0,0,0,3.907-1,1.017,1.017,0,0,0,.367.281,2.419,2.419,0,0,0-.55.1,9.7,9.7,0,0,0-4.671,3.614,2.5,2.5,0,0,0,.677,3.271,2.676,2.676,0,0,0,.476.438,2.356,2.356,0,0,0,1.846.622,7.4,7.4,0,0,0,3.745-1.9,8.685,8.685,0,0,0,1.106-.929,3.241,3.241,0,0,0,.892-2.057l.042-.052c2.656-3.4,1.846-5.7-.455-6.406" transform="translate(-159.34 -189.403)" fill="#72568f"/>
          <path id="Trazado_137059" data-name="Trazado 137059" d="M156.194,214.567c-1.531-1.309-3.927-.853-5.485.2a12.31,12.31,0,0,0-1.378,1.067,10.459,10.459,0,0,0-2.128,1.03,11.451,11.451,0,0,0-3.162,2.461c-1.018.945-2.068,2.215-2.033,3.648a5.358,5.358,0,0,0-.771.261c-3.822,1.069-16.749,13.289-9.12,15.766,2.061.42,4-.737,5.72-1.738.579-.349,1.139-.724,1.689-1.113a2.438,2.438,0,0,0,.457.718c1.675,1.552,3.946,1.04,5.855-.006a8.495,8.495,0,0,0,1.66-1.028c2.061-1.6,6.648-4.941,3.312-7.474a3.393,3.393,0,0,0-.692-.285,3.336,3.336,0,0,0-2.213-.156,6.313,6.313,0,0,0-.828.36c.613-1.392.75-2.875-.23-3.862a2.351,2.351,0,0,0-.059-.763,2.467,2.467,0,0,0-.345-.712c.169-.176.473-.5.659-.658.342-.3.645-.642.98-.95a2.724,2.724,0,0,0,.43.316c2.52,1.267,5.084-.824,6.927-2.4,1.384-1.148,2.136-3.227.756-4.68" transform="translate(-124.805 -181.17)" fill="#72568f"/>
          <path id="Trazado_137060" data-name="Trazado 137060" d="M144.892,274.467c-2.546.2-4.6,2.124-6.069,4.073-1.5,1.684-1.577,3.461-.683,4.5a2.666,2.666,0,0,0,1.982,1.848c3.177.524,6.837-2.477,7.406-5.563.487-2.311.155-4.619-2.636-4.857" transform="translate(-128.197 -207.534)" fill="#72568f"/>
          <path id="Trazado_137061" data-name="Trazado 137061" d="M174.511,284.208a2.1,2.1,0,0,0,.624-1.511,2.138,2.138,0,0,0-2.126-2.126c-1.435.064-2.38,1.411-3.4,2.27a2.139,2.139,0,0,0,1.5,3.63c1.086.014,1.729-.867,2.472-1.529q.105-.07.205-.151a2.23,2.23,0,0,0,.722-.582" transform="translate(-141.847 -210.184)" fill="#72568f"/>
          <path id="Trazado_137062" data-name="Trazado 137062" d="M157.033,300.967a5.342,5.342,0,0,0-1.462.654,9.474,9.474,0,0,0-3.209,2.144,6.811,6.811,0,0,0-2.164,5.086c.019.238.046.474.079.71-.212.217-.434.422-.661.623a6.155,6.155,0,0,0-1.541.127,12.634,12.634,0,0,0-8.669,7.63,4.112,4.112,0,0,0,1.859,4.284c.029.04.056.079.088.118a3.191,3.191,0,0,0,1.763.777,4.278,4.278,0,0,0,1.8.048,10.61,10.61,0,0,0,1.917-.512,13.829,13.829,0,0,0,4.929-3.214,10.186,10.186,0,0,0,.935-.91,11.143,11.143,0,0,0,2.263-4.992,5.591,5.591,0,0,0-.057-2.086c-.011-.173-.082-.8-.173-1.273a2.859,2.859,0,0,0,.717-.126,9.935,9.935,0,0,0,4.507-3.483c1.828-2.409.471-6.363-2.92-5.606" transform="translate(-128.949 -219.002)" fill="#72568f"/>
          <path id="Trazado_137063" data-name="Trazado 137063" d="M199.177,333.262a3.13,3.13,0,0,0-1.573.446c1.786-2.4,1.763-5.46-1.525-6.725-1.749-.51-3.525.291-4.984,1.22a7.667,7.667,0,0,0-3.786,5.045,6.528,6.528,0,0,0-.133,3.487,1.924,1.924,0,0,0,1.089,1.13,2.562,2.562,0,0,0,.252.581c1.092,1.977,3.446,2.625,5.569,2.343a10.455,10.455,0,0,0,5.191-1.333c1.127-.808,2.539-1.751,2.746-3.225a2.815,2.815,0,0,0-2.847-2.969m-3.787,3.175c-.187.026-.393.045-.613.061q.423-.309.819-.658a3.246,3.246,0,0,0-.205.6" transform="translate(-149.66 -230.274)" fill="#72568f"/>
          <path id="Trazado_137064" data-name="Trazado 137064" d="M238.779,306.777a4.528,4.528,0,0,0-.967-.726,2.1,2.1,0,0,0-2.1-2.2c-1.914.187-3.969.248-5.628,1.332a5.2,5.2,0,0,0-2.284,5.276l-.05.043c-.262.173-.837.552-1.238.761l-.012.005c-2.6.749-4.81,3.336-3.627,6.09,1.061,2.656,4.307,2.063,6.044.432a7.6,7.6,0,0,0,1.448-2.133,4.013,4.013,0,0,0,.495-.958c.149-.229.286-.466.414-.706a10.234,10.234,0,0,0,.868-2.055c.088-.144.184-.283.271-.427l.016-.024.058-.059.035-.013c.058.041.116.084.176.122a4.914,4.914,0,0,0,6.393-1.55,2.679,2.679,0,0,0-.313-3.213" transform="translate(-165.108 -220.298)" fill="#72568f"/>
          <path id="Trazado_137065" data-name="Trazado 137065" d="M211.628,307.193q-.563.508-1.126,1.017a2.268,2.268,0,0,0-1.06,1.868,2.143,2.143,0,0,0,3.688,1.442c.064-.049,0,0-.087.064a6.781,6.781,0,0,0,2.032-2.069,2.122,2.122,0,0,0-3.447-2.323" transform="translate(-159.416 -221.478)" fill="#72568f"/>
          <path id="Trazado_137066" data-name="Trazado 137066" d="M125.54,310.569c-1.229-2.271-5.166-1.9-6.533,1.663a2.905,2.905,0,0,0-.2,1.289c-1.191,1.439-1.855,3.093-1.175,4.449a2.219,2.219,0,0,0,3.156.763,1.9,1.9,0,0,0,.819-.281,9.3,9.3,0,0,0,3.461-3.116,6.535,6.535,0,0,0,1.321-2.469,2.1,2.1,0,0,0-.85-2.3" transform="translate(-119.424 -222.595)" fill="#72568f"/>
        </g>
      </g>
      <g id="Grupo_159114" data-name="Grupo 159114">
        <g id="Grupo_159113" data-name="Grupo 159113" clip-path="url(#clip-path)">
          <path id="Trazado_137068" data-name="Trazado 137068" d="M182.613,292.55a.3.3,0,0,1-.154-.042.3.3,0,0,1-.107-.416,68.41,68.41,0,0,1,17.82-19.9.3.3,0,0,1,.364.487,67.781,67.781,0,0,0-17.66,19.722.3.3,0,0,1-.262.15" transform="translate(-79.18 -118.192)" fill="#cc3c23"/>
          <path id="Trazado_137069" data-name="Trazado 137069" d="M205.073,284.6a.3.3,0,0,1-.19-.541,37.281,37.281,0,0,1,14.668-7.093.3.3,0,0,1,.365.227.3.3,0,0,1-.227.365,36.653,36.653,0,0,0-14.427,6.976.3.3,0,0,1-.19.066" transform="translate(-88.935 -120.287)" fill="#cc3c23"/>
          <path id="Trazado_137070" data-name="Trazado 137070" d="M225.729,297.508A.3.3,0,0,1,225.5,297a196.452,196.452,0,0,1,14.314-14.121.3.3,0,0,1,.4.454,195.906,195.906,0,0,0-14.269,14.076.3.3,0,0,1-.224.1" transform="translate(-97.906 -122.826)" fill="#cc3c23"/>
          <path id="Trazado_137071" data-name="Trazado 137071" d="M138.511,283.867a.3.3,0,0,1-.3-.285,50.77,50.77,0,0,0-2.268-12.091.3.3,0,1,1,.579-.183,51.4,51.4,0,0,1,2.295,12.236.3.3,0,0,1-.283.322h-.02" transform="translate(-59.035 -117.742)" fill="#cc3c23"/>
          <path id="Trazado_137072" data-name="Trazado 137072" d="M124.581,317.315a.311.311,0,0,1-.154-.041.3.3,0,0,1-.109-.416l5.961-10.176a.3.3,0,1,1,.524.307l-5.961,10.176a.3.3,0,0,1-.262.15" transform="translate(-53.976 -133.133)" fill="#cc3c23"/>
          <path id="Trazado_137073" data-name="Trazado 137073" d="M176.216,337.723a.3.3,0,0,1-.066-.6A84.607,84.607,0,0,1,190.1,335.2a.3.3,0,1,1,.032.607,83.991,83.991,0,0,0-13.847,1.906.3.3,0,0,1-.067.007" transform="translate(-76.402 -145.585)" fill="#cc3c23"/>
          <path id="Trazado_137074" data-name="Trazado 137074" d="M186.27,91.886c-5.052-.021-8.136-.379-12.776-2.374s-8.608-6.458-8.4-11.506c.141-3.5,2.186-6.608,3.285-9.938,1.578-4.785,1.181-10,2.3-14.913,2.6-11.449,14.322-20.074,26.549-19.238a22.577,22.577,0,0,1,23.943,9.359c3.555,5.506,4.461,12.24,5.947,18.624s3.973,13.078,9.434,16.7a27.309,27.309,0,0,1-14.609,9.06l-33.168,10.97Z" transform="translate(-71.698 -14.451)" fill="#a85454"/>
          <path id="Trazado_137075" data-name="Trazado 137075" d="M223.452,58.519A12.874,12.874,0,0,1,215.8,62.4a3.387,3.387,0,0,0,.33-3.638,5.785,5.785,0,0,1-5.7,4.789,2.047,2.047,0,0,0,.535-2.5c.052,2.058-2.217,3.431-4.265,3.641s-4.16-.264-6.152.255c-1.767.459-3.236,1.647-4.8,2.6s-1.48,8.544-1.1,15.659c.425,8.039,1.995,17.276,10.5,17.416A14.349,14.349,0,0,1,190.845,103a11.158,11.158,0,0,1-3.311,3.834,33.78,33.78,0,0,1-11.4,5.074,154.423,154.423,0,0,1,.809,34.449,75.744,75.744,0,0,1,23.15,17.734,145.483,145.483,0,0,1,23.648-19.974,198.543,198.543,0,0,0-5.561-26.331l-8.23-4.486,3.6-5.4c8.689,2.309,10.437-.419,12.525-5.543,3.679-9.024,4.363-14.829,3.139-22.046-1.354-7.989-3.33-13.923-5.762-21.789" transform="translate(-76.497 -25.416)" fill="#ff9b85"/>
          <path id="Trazado_137076" data-name="Trazado 137076" d="M247.006,119.844a5.194,5.194,0,0,0-6.885,1.993c1.781,3.282,6.11,5.165,9.409,2.9,3.705-2.541,2.29-9.368-2.524-4.9" transform="translate(-104.289 -51.407)" fill="#ff8370"/>
          <path id="Trazado_137077" data-name="Trazado 137077" d="M233.755,141.661a.3.3,0,0,1-.094-.015,39.838,39.838,0,0,1-9.1-4.3.3.3,0,1,1,.326-.512,39.225,39.225,0,0,0,8.966,4.235.3.3,0,0,1-.094.593" transform="translate(-97.468 -59.409)" fill="#fa453e"/>
          <path id="Trazado_137078" data-name="Trazado 137078" d="M250.2,100.895a.3.3,0,0,1-.234-.5,4.765,4.765,0,0,0,1.084-2.936,26.272,26.272,0,0,1-5.245-7.035.3.3,0,0,1-.028-.088,9.432,9.432,0,0,1,1.047-6.061.3.3,0,0,1,.531.3,8.821,8.821,0,0,0-.984,5.624,25.777,25.777,0,0,0,5.2,6.917.306.306,0,0,1,.092.214,5.376,5.376,0,0,1-1.225,3.456.3.3,0,0,1-.234.11" transform="translate(-106.694 -36.536)" fill="#fa453e"/>
          <path id="Trazado_137079" data-name="Trazado 137079" d="M247.233,113.414a.3.3,0,0,1-.124-.027.3.3,0,0,1-.153-.4,4.16,4.16,0,0,1,1.355-1.669.3.3,0,1,1,.357.492,3.562,3.562,0,0,0-1.157,1.426.3.3,0,0,1-.277.18" transform="translate(-107.246 -48.322)" fill="#fa453e"/>
          <path id="Trazado_137080" data-name="Trazado 137080" d="M245.205,121.914c-8.266-.8-5.339,2.692,1.676,2.53a5.558,5.558,0,0,0,1.772-.466c3.768-1.468,3.53-4.761-.125-2.564a5.283,5.283,0,0,1-3.323.5" transform="translate(-104.317 -52.414)" fill="#fff"/>
          <path id="Trazado_137081" data-name="Trazado 137081" d="M251.876,89.771c3.291,2.643,6.932,2.786,7.1-1.987-1.17-3.98-5.941-.7-7.1,1.987" transform="translate(-109.395 -37.323)" fill="#fff"/>
          <path id="Trazado_137082" data-name="Trazado 137082" d="M221.046,95.678c2.83,2.618,8.227,3.446,8.4-1.719-1.861-4.39-6.508-1.165-8.4,1.719" transform="translate(-96.005 -39.874)" fill="#fff"/>
          <path id="Trazado_137083" data-name="Trazado 137083" d="M257.869,85.5c-1.488.9-1.153,3.038-.521,4.382,1.017,2.163,3.1,1.093,3.278-.523.213-1.917-.521-5.218-2.757-3.86" transform="translate(-111.539 -36.995)" fill="#473e57"/>
          <path id="Trazado_137084" data-name="Trazado 137084" d="M251.047,90.118a.3.3,0,0,1-.278-.427c.971-2.2,3.051-4.447,5.146-4.5.893-.032,2.168.367,3.147,2.329a.3.3,0,0,1-.544.272c-.671-1.346-1.53-2.026-2.589-1.993-1.823.042-3.732,2.161-4.6,4.133a.3.3,0,0,1-.277.181" transform="translate(-108.903 -37.001)" fill="#a85552"/>
          <path id="Trazado_137085" data-name="Trazado 137085" d="M251.047,80.266a.3.3,0,0,1-.2-.074.3.3,0,0,1-.033-.428,7.52,7.52,0,0,1,6.457-2.544.3.3,0,0,1-.068.6,6.9,6.9,0,0,0-5.928,2.336.3.3,0,0,1-.23.106" transform="translate(-108.903 -33.519)" fill="#a85454"/>
          <path id="Trazado_137086" data-name="Trazado 137086" d="M217.146,88.069a.3.3,0,0,1-.184-.062.3.3,0,0,1-.057-.425,9.748,9.748,0,0,1,11.96-2.866.3.3,0,1,1-.264.548,9.139,9.139,0,0,0-11.213,2.687.3.3,0,0,1-.242.119" transform="translate(-94.179 -36.377)" fill="#a85454"/>
          <path id="Trazado_137087" data-name="Trazado 137087" d="M227.382,93.03c-.37,1.58-.1,3.941,1.513,4.537a1.945,1.945,0,0,0,2.148-.728c1.393-2.131-.131-6.209-2.91-4.735a1.452,1.452,0,0,0-.751.927" transform="translate(-98.693 -39.866)" fill="#473e57"/>
          <path id="Trazado_137088" data-name="Trazado 137088" d="M220,96.563a.3.3,0,0,1-.163-.048.3.3,0,0,1-.093-.42,15.341,15.341,0,0,1,2.489-3.229,5.325,5.325,0,0,1,3.843-1.537,3.4,3.4,0,0,1,3.171,2.59.3.3,0,1,1-.6.108,2.784,2.784,0,0,0-2.61-2.092,4.8,4.8,0,0,0-3.4,1.381,14.893,14.893,0,0,0-2.385,3.106.3.3,0,0,1-.256.141" transform="translate(-95.416 -39.663)" fill="#a85552"/>
          <path id="Trazado_137089" data-name="Trazado 137089" d="M240.485,122.84c-2.205-.624-2.194,1.126-.2,1.5-.688-.524-.769-1.217.2-1.5" transform="translate(-103.719 -53.294)" fill="#fa453e"/>
          <path id="Trazado_137090" data-name="Trazado 137090" d="M257.832,120.241c1.833-1.511,2.359.229,1.04,1.317a.864.864,0,0,0-1.04-1.317" transform="translate(-111.982 -51.967)" fill="#fa453e"/>
          <path id="Trazado_137091" data-name="Trazado 137091" d="M228.938,165.179a.3.3,0,0,1-.255-.47l2.94-4.523a.3.3,0,0,1,.509.331l-2.94,4.523a.3.3,0,0,1-.255.138" transform="translate(-99.301 -69.512)" fill="#fa453e"/>
          <path id="Trazado_137092" data-name="Trazado 137092" d="M200.736,171.928a.293.293,0,0,1-.1-.016,48.381,48.381,0,0,0-10.22-2.29.3.3,0,1,1,.067-.6,48.952,48.952,0,0,1,10.349,2.319.3.3,0,0,1-.1.591" transform="translate(-82.585 -73.407)" fill="#fa453e"/>
          <path id="Trazado_137093" data-name="Trazado 137093" d="M225.624,172.469a.3.3,0,0,1-.087-.6l11.77-3.5a.3.3,0,1,1,.173.582l-11.77,3.5a.308.308,0,0,1-.087.012" transform="translate(-97.861 -73.122)" fill="#fa453e"/>
          <path id="Trazado_137094" data-name="Trazado 137094" d="M165.6,94.259a.309.309,0,0,1-.111-.021c-2.647-1.044-4.575-3.981-4.8-7.31s1.112-6.555,2.135-8.682c.441-.916.921-1.831,1.387-2.714a43.952,43.952,0,0,0,2.472-5.251,44,44,0,0,0,1.669-6.631c.247-1.252.5-2.548.816-3.809,1.1-4.4,2.814-7.471,5.256-9.4a.3.3,0,0,1,.378.477c-2.333,1.846-3.983,4.814-5.044,9.074-.311,1.246-.565,2.534-.81,3.78a44.5,44.5,0,0,1-1.695,6.722,44.446,44.446,0,0,1-2.505,5.325c-.462.879-.94,1.788-1.377,2.695-.993,2.065-2.29,5.181-2.076,8.377.173,2.58,1.605,5.678,4.415,6.786a.3.3,0,0,1-.111.587" transform="translate(-69.781 -21.877)" fill="#a85454"/>
          <path id="Trazado_137095" data-name="Trazado 137095" d="M164.773,97.636a.306.306,0,0,1-.18-.059c-2.925-2.143-5.617-4.331-6.422-7.526a10.808,10.808,0,0,1,1.277-7.447,37.221,37.221,0,0,1,2.619-4.084c.507-.719,1.031-1.462,1.514-2.211,2.051-3.177,2.834-6.071,3.826-9.735.412-1.525.88-3.252,1.49-5.177a.3.3,0,0,1,.579.184c-.606,1.912-1.072,3.633-1.483,5.151-1.005,3.715-1.8,6.649-3.9,9.906-.489.759-1.017,1.508-1.528,2.232a36.53,36.53,0,0,0-2.576,4.015A10.22,10.22,0,0,0,158.76,89.9c.756,3,3.361,5.109,6.193,7.184a.3.3,0,0,1-.18.549" transform="translate(-68.595 -26.575)" fill="#a85454"/>
          <path id="Trazado_137096" data-name="Trazado 137096" d="M286.018,96.384c-3.629,0-7.218-2.59-9.622-6.953a48.162,48.162,0,0,1-2.311-5.088,39.482,39.482,0,0,0-2.851-6,.3.3,0,1,1,.515-.322,39.8,39.8,0,0,1,2.9,6.089,47.763,47.763,0,0,0,2.28,5.025c2.32,4.21,5.768,6.7,9.2,6.637a.3.3,0,0,1,.308.3.3.3,0,0,1-.3.309h-.12" transform="translate(-117.783 -33.826)" fill="#a85454"/>
          <path id="Trazado_137097" data-name="Trazado 137097" d="M226.668,102.538a10.565,10.565,0,0,1-4.514-1.056.608.608,0,0,1,.51-1.1,9.123,9.123,0,0,0,5.418.833.607.607,0,0,1,.184,1.2,10.514,10.514,0,0,1-1.6.125" transform="translate(-96.333 -43.572)" fill="#ff9b85"/>
          <path id="Trazado_137098" data-name="Trazado 137098" d="M256.426,96.361a7.708,7.708,0,0,1-2.99-.629.608.608,0,0,1,.467-1.122,6.222,6.222,0,0,0,4.619.166.608.608,0,0,1,.4,1.148,7.567,7.567,0,0,1-2.495.437" transform="translate(-109.91 -41.071)" fill="#ff9b85"/>
          <path id="Trazado_137099" data-name="Trazado 137099" d="M210.418,61.861a.3.3,0,0,1-.3-.245,15.288,15.288,0,0,1,4.409-13.768.3.3,0,1,1,.417.442,14.666,14.666,0,0,0-4.23,13.208.3.3,0,0,1-.3.363" transform="translate(-91.144 -20.746)" fill="#612929"/>
          <path id="Trazado_137100" data-name="Trazado 137100" d="M221.986,60.6l-.038,0a.3.3,0,0,1-.264-.339l.355-2.843a.3.3,0,1,1,.6.075l-.355,2.843a.3.3,0,0,1-.3.266" transform="translate(-96.281 -24.82)" fill="#612929"/>
          <path id="Trazado_137101" data-name="Trazado 137101" d="M223.379,39.491a.3.3,0,0,1-.236-.113l-1.866-2.31a.3.3,0,1,1,.472-.381L223.615,39a.3.3,0,0,1-.236.494" transform="translate(-96.076 -15.884)" fill="#612929"/>
          <path id="Trazado_137102" data-name="Trazado 137102" d="M232.449,53.664a.331.331,0,0,1-.062-.006.3.3,0,0,1-.235-.359,6.259,6.259,0,0,0-1.97-5.889.3.3,0,0,1,.4-.457,6.874,6.874,0,0,1,2.163,6.47.3.3,0,0,1-.3.242" transform="translate(-99.928 -20.36)" fill="#612929"/>
          <path id="Trazado_137103" data-name="Trazado 137103" d="M240.289,54.7a.3.3,0,0,1-.287-.2,8.362,8.362,0,0,0-3-3.979.3.3,0,1,1,.354-.494,8.977,8.977,0,0,1,3.215,4.27.3.3,0,0,1-.186.387.3.3,0,0,1-.1.018" transform="translate(-102.882 -21.704)" fill="#612929"/>
          <path id="Trazado_137104" data-name="Trazado 137104" d="M248.974,51.922a.3.3,0,0,1-.283-.193,7.841,7.841,0,0,0-7.959-4.8.3.3,0,0,1-.069-.6,8.458,8.458,0,0,1,8.594,5.187.3.3,0,0,1-.283.414" transform="translate(-104.408 -20.098)" fill="#612929"/>
          <path id="Trazado_137105" data-name="Trazado 137105" d="M250.81,48.9a.3.3,0,0,1-.29-.212,10.713,10.713,0,0,0-12.3-7.271.3.3,0,1,1-.119-.6,11.321,11.321,0,0,1,13,7.682.3.3,0,0,1-.2.382.312.312,0,0,1-.092.014" transform="translate(-103.307 -17.637)" fill="#612929"/>
          <path id="Trazado_137106" data-name="Trazado 137106" d="M198.877,42.776a.3.3,0,0,1-.222-.511,19.575,19.575,0,0,1,9.852-5.663.3.3,0,1,1,.135.592,18.97,18.97,0,0,0-9.544,5.486.3.3,0,0,1-.222.1" transform="translate(-86.244 -15.893)" fill="#612929"/>
          <path id="Trazado_137107" data-name="Trazado 137107" d="M199.969,54.83a.331.331,0,0,1-.053,0,.3.3,0,0,1-.247-.352,17.761,17.761,0,0,1,9.475-12.651.3.3,0,1,1,.269.545,17.143,17.143,0,0,0-9.145,12.212.3.3,0,0,1-.3.251" transform="translate(-86.718 -18.151)" fill="#612929"/>
          <path id="Trazado_137108" data-name="Trazado 137108" d="M175.4,100.1a.3.3,0,0,1-.233-.109c-2.745-3.285-1.438-8.006-.748-9.883.462-1.258,1.045-2.486,1.609-3.675a28.31,28.31,0,0,0,2.184-5.6,29.68,29.68,0,0,0,.558-5.454c.118-2.93.24-5.96,1.754-8.53a.3.3,0,1,1,.523.308c-1.436,2.439-1.549,5.26-1.67,8.247a30.144,30.144,0,0,1-.573,5.567,28.728,28.728,0,0,1-2.226,5.722c-.558,1.176-1.135,2.392-1.587,3.624-.653,1.778-1.9,6.242.644,9.285a.3.3,0,0,1-.233.5" transform="translate(-75.352 -28.968)" fill="#612929"/>
          <path id="Trazado_137109" data-name="Trazado 137109" d="M184.951,123.751a.3.3,0,0,1-.253-.136,12.071,12.071,0,0,1-1.554-9.68.3.3,0,1,1,.586.159,11.457,11.457,0,0,0,1.475,9.187.3.3,0,0,1-.253.471" transform="translate(-79.367 -49.386)" fill="#612929"/>
          <path id="Trazado_137110" data-name="Trazado 137110" d="M207.174,115.737a.3.3,0,0,1-.169-.051,15.484,15.484,0,0,1-5.884-8.848A45.479,45.479,0,0,1,199.9,96.225a.3.3,0,0,1,.292-.315.282.282,0,0,1,.315.293,45.048,45.048,0,0,0,1.2,10.471,14.879,14.879,0,0,0,5.637,8.507.3.3,0,0,1-.169.556" transform="translate(-86.819 -41.655)" fill="#612929"/>
          <path id="Trazado_137111" data-name="Trazado 137111" d="M205.7,130.82a.3.3,0,0,1-.083-.011,7.312,7.312,0,0,1-5.143-5.979.3.3,0,0,1,.264-.339.309.309,0,0,1,.339.264,6.689,6.689,0,0,0,4.7,5.47.3.3,0,0,1-.083.6" transform="translate(-87.069 -54.068)" fill="#612929"/>
          <path id="Trazado_137112" data-name="Trazado 137112" d="M279.527,108.186a.3.3,0,0,1-.13-.029,10.576,10.576,0,0,1-4.82-5.237,30.759,30.759,0,0,1-1.965-6.829.3.3,0,0,1,.6-.122,30.285,30.285,0,0,0,1.92,6.7,9.955,9.955,0,0,0,4.529,4.943.3.3,0,0,1-.13.579" transform="translate(-118.398 -41.576)" fill="#612929"/>
          <path id="Trazado_137113" data-name="Trazado 137113" d="M275.743,120.023a.3.3,0,0,1-.228-.1,13.046,13.046,0,0,1-2.456-4.093.3.3,0,0,1,.57-.212,12.436,12.436,0,0,0,2.342,3.9.3.3,0,0,1-.228.505" transform="translate(-118.587 -50.128)" fill="#612929"/>
          <path id="Trazado_137114" data-name="Trazado 137114" d="M325.929,321.2l6.2,2.1a1.3,1.3,0,0,1,.916,1.122c.047,1.018-1.272,1.247-2.229,1.182l-12.983-.889c-2.706-.186-5.514-.4-7.88-1.725a10.212,10.212,0,0,1-4.973-8.895c-7.311-10.561-13.576-20.478-19.841-30.394-4.119-6.52-8.263-13.089-11.095-20.262-5.06-12.818-5.992-27.934-13.12-39.728,3.523-10.443,3.654-20.676-.053-30.122a135.114,135.114,0,0,0-5.721-28.25c6.316,3.406,11.056,5.814,15.083,11.753,4.409,6.5,4.507,14.839,6.223,24.128,7.514,40.672,12,40.606,16.444,53.361,5.152,14.773,8.072,25.391,12.569,38.286,1.369,3.926,6.612,14.1,9.882,16.673,4.473,3.515,10.75,3.207,16.529,2.885a50.373,50.373,0,0,1,12.3,7.586.673.673,0,0,1-.455,1.188c-5.928-.208-11.856-.365-17.8.006" transform="translate(-110.818 -71.807)" fill="#ff9b85"/>
          <path id="Trazado_137115" data-name="Trazado 137115" d="M269.2,221.99a.275.275,0,0,1-.076-.01.3.3,0,0,1-.218-.371,16.03,16.03,0,0,1,3.417-6.47.3.3,0,1,1,.458.4,15.419,15.419,0,0,0-3.287,6.224.3.3,0,0,1-.294.227" transform="translate(-116.786 -93.394)" fill="#fa453e"/>
          <path id="Trazado_137116" data-name="Trazado 137116" d="M374.034,438.544a.283.283,0,0,1-.049,0l-3.048-.5a.3.3,0,0,1-.132-.055,19.893,19.893,0,0,0-4.52-2.468.3.3,0,1,1,.225-.565,20.525,20.525,0,0,1,4.6,2.5l2.976.484a.3.3,0,0,1-.048.6" transform="translate(-159.001 -188.901)" fill="#fa453e"/>
          <path id="Trazado_137117" data-name="Trazado 137117" d="M399.376,435.608a.292.292,0,0,1-.087-.013l-5.194-1.548c-2.625-.359-5.365-.48-8.016-.6a.3.3,0,0,1-.29-.317.3.3,0,0,1,.317-.29c2.664.117,5.419.239,8.117.612l5.239,1.558a.3.3,0,0,1-.087.595" transform="translate(-167.556 -187.992)" fill="#fa453e"/>
          <path id="Trazado_137118" data-name="Trazado 137118" d="M393.888,429.526h-.027l-7.189-.623a.3.3,0,0,1,.053-.6l7.188.623a.3.3,0,0,1-.025.606" transform="translate(-167.819 -186.017)" fill="#fa453e"/>
          <path id="Trazado_137119" data-name="Trazado 137119" d="M178.694,156.917c12.96-3.142,29.8-7.211,29.8-7.211s6.015-1.48,9.071-1.979a14.47,14.47,0,0,1,6.207-.032c1.207.338,2.466,1.165,2.577,2.414.107,1.223-.924,2.234-1.949,2.911a15.156,15.156,0,0,1-15.754.367l-30.826,7.181Z" transform="translate(-77.233 -64.004)" fill="#473e57"/>
          <path id="Trazado_137120" data-name="Trazado 137120" d="M129.505,152.215a46.433,46.433,0,0,0-12.741-1.909,80.322,80.322,0,0,0-6.809,7.231c-5.642.978-10.186,5.3-13.229,10.148s-4.921,10.329-7.528,15.428c-3.977,7.776-9.6,14.576-14.14,22.04S67.012,221.2,67.99,229.884a8.194,8.194,0,0,0,1.113,3.662c1.915,2.884,6.222,2.892,9.454,1.651,7.636-2.932,12.442-10.476,15.79-17.939s5.52-15.064,10.922-21.206c.427,3.568.541,6.672.779,10.388A79.192,79.192,0,0,0,121.624,190c4.592-6.5,7.386-14.691,6.088-23.36l6.358-.421a2.668,2.668,0,0,0,1.749-.545c.74-.73.39-1.971-.026-2.923a44.071,44.071,0,0,0-6.288-10.54" transform="translate(-29.458 -65.281)" fill="#ff9b85"/>
          <path id="Trazado_137121" data-name="Trazado 137121" d="M79.072,213.169a.3.3,0,0,1-.167-.05.3.3,0,0,1-.087-.421c3.3-5.023,7.807-9.479,12.578-14.2,5.845-5.78,11.889-11.757,15.913-19.117,2.63-6.361,4.78-11.3,6.955-16a.3.3,0,0,1,.552.255c-2.172,4.689-4.319,9.626-6.96,16.008-4.08,7.468-10.157,13.476-16.032,19.287-4.748,4.695-9.231,9.129-12.5,14.1a.3.3,0,0,1-.254.137" transform="translate(-34.211 -70.884)" fill="#fa453e"/>
          <path id="Trazado_137122" data-name="Trazado 137122" d="M122.392,217.317a.3.3,0,0,1-.125-.027.3.3,0,0,1-.153-.4,145.284,145.284,0,0,1,13.579-23.729.31.31,0,0,1,.072-.072,32.337,32.337,0,0,0,10.08-12,.3.3,0,0,1,.1-.118,15.671,15.671,0,0,1,5.508-2.332.3.3,0,1,1,.124.595,15.069,15.069,0,0,0-5.225,2.2,32.927,32.927,0,0,1-10.192,12.122,144.477,144.477,0,0,0-13.491,23.587.306.306,0,0,1-.277.179" transform="translate(-53.025 -77.584)" fill="#fa453e"/>
          <path id="Trazado_137123" data-name="Trazado 137123" d="M171.137,176.026a.3.3,0,0,1-.046-.6,16.365,16.365,0,0,0,3.232-.847,1.144,1.144,0,0,0,.639-.5.141.141,0,0,0-.011-.132c-.059-.1-.252-.156-.452-.2l-5.933-1.206a7.545,7.545,0,0,0-6.926,1.445.3.3,0,1,1-.3-.526,10.7,10.7,0,0,1,4.815-1.82,10.585,10.585,0,0,1,2.538.3l5.933,1.205a1.2,1.2,0,0,1,.858.489.742.742,0,0,1,.055.64,1.7,1.7,0,0,1-1,.864,16.972,16.972,0,0,1-3.352.879.333.333,0,0,1-.047,0" transform="translate(-70.006 -74.545)" fill="#fa453e"/>
          <path id="Trazado_137124" data-name="Trazado 137124" d="M173.532,171.1a.3.3,0,0,1-.065-.6.358.358,0,0,0,.229-.193.714.714,0,0,0,.035-.567,2.183,2.183,0,0,0-.867-.88,48.925,48.925,0,0,0-6.179-3.627,60.507,60.507,0,0,0-10,1.218.307.307,0,0,1-.356-.239.3.3,0,0,1,.239-.357,60.862,60.862,0,0,1,10.178-1.231.384.384,0,0,1,.14.031,49.477,49.477,0,0,1,6.324,3.706,2.693,2.693,0,0,1,1.088,1.16,1.32,1.32,0,0,1-.065,1.074.953.953,0,0,1-.635.5.282.282,0,0,1-.065.007" transform="translate(-67.894 -71.499)" fill="#fa453e"/>
          <path id="Trazado_137125" data-name="Trazado 137125" d="M173.321,166.067a.3.3,0,0,1-.221-.1,73.63,73.63,0,0,0-7.31-6.756c-3.841-.193-7.354-.277-10.751-.359l-.021-.3.036-.3c3.431.082,6.979.167,10.866.364a.305.305,0,0,1,.175.067,74.271,74.271,0,0,1,7.448,6.874.3.3,0,0,1-.221.512m-18.3-7.514.007-.3Z" transform="translate(-67.327 -68.731)" fill="#fa453e"/>
          <path id="Trazado_137126" data-name="Trazado 137126" d="M180.555,158.936a.3.3,0,0,1-.231-.107l-4.085-4.8a.3.3,0,0,1,.463-.394l4.085,4.8a.3.3,0,0,1-.035.428.3.3,0,0,1-.2.073" transform="translate(-76.513 -66.682)" fill="#fa453e"/>
          <path id="Trazado_137127" data-name="Trazado 137127" d="M133.785,228.567a.3.3,0,0,1-.234-.5c.184-.221,4.531-5.376,7.5-2.948a.3.3,0,0,1-.385.471c-2.509-2.051-6.607,2.816-6.648,2.866a.3.3,0,0,1-.234.11" transform="translate(-57.973 -97.493)" fill="#fa453e"/>
          <path id="Trazado_137128" data-name="Trazado 137128" d="M.314,452.135,57.367,496.6l329.519-2.187V432.83L0,441.8Z" transform="translate(0 -187.986)" fill="#d67272"/>
          <path id="Trazado_137129" data-name="Trazado 137129" d="M476.532,450.661s-37.957.7-55.374,1.412l-.053,2.4c11.347,5.4,35.12,14.412,35.12,14.412L557.959,464.7l-.392-1.948c-17.719-5.538-32.181-8.32-49.943-14.092-10.956,2.712-31.092,2-31.092,2" transform="translate(-182.894 -194.864)" fill="#fa9e8c"/>
          <path id="Trazado_137130" data-name="Trazado 137130" d="M513.111,425.728a21.875,21.875,0,0,0-3.267,10.552c0,3.723,1.677,7.6,4.408,9.277,4.544-2.027,9.692-2.186,14.659-1.891s9.94,1.009,14.9.6,10.047-2.094,13.357-5.808,4.271-9.757,1.248-13.709a11.693,11.693,0,0,0-7.2-4.065,30.5,30.5,0,0,0-8.43-.081,201.082,201.082,0,0,0-29.671,5.125" transform="translate(-221.435 -182.566)" fill="#72568f"/>
          <path id="Trazado_137131" data-name="Trazado 137131" d="M518.938,432.321a3.22,3.22,0,0,0-5.456.764,18.235,18.235,0,0,0-1.3,11.915c.635,3.687,4.567,4.5,6.125.845,1.749-3.091,3.094-10.39.635-13.524" transform="translate(-222.232 -187.248)" fill="#ffdbcc"/>
          <path id="Trazado_137132" data-name="Trazado 137132" d="M487.98,457.508,471.254,452.4a4.036,4.036,0,0,1-5,1.636l-.633,2.239-4.478-.382q-.153.852-.306,1.7L456,457.1q.023.765.046,1.53a1.613,1.613,0,0,0-1.729,2.405,1.88,1.88,0,0,0-1.489,1.13,7.528,7.528,0,0,0,7.091-.488l5.475.054c.142-.382.283-.764.472-1.178l6.519.633.5-1.017,5.415.585c.217-.527.434-1.054.652-1.587l5.046.6.563-1.425a28.156,28.156,0,0,1,5.921.824q.117-.7.234-1.4a6.751,6.751,0,0,1-2.737-.258" transform="translate(-196.672 -196.485)" fill="#72568f"/>
          <path id="Trazado_137133" data-name="Trazado 137133" d="M582.918,429.51a6.426,6.426,0,0,0-6.133.237c-.394.24-.8.6-.775,1.062.029.543.619.853,1.132,1.03a7.892,7.892,0,0,0,5.855.112,1.462,1.462,0,0,0,.923-.966,1.135,1.135,0,0,0-.428-.993c-.285-.247-.643-.389-.574-.482" transform="translate(-250.172 -186.255)" fill="#aa93c2"/>
          <path id="Trazado_137134" data-name="Trazado 137134" d="M590.92,437.25a.888.888,0,0,0-.616,1,.907.907,0,0,0,.964.687.926.926,0,0,0,.784-.893.844.844,0,0,0-1.132-.8" transform="translate(-256.374 -189.889)" fill="#aa93c2"/>
          <path id="Trazado_137135" data-name="Trazado 137135" d="M566.376,442.835c-2.87-1.615-6.454-.94-9.593.054s-6.369,2.281-9.619,1.747a10.2,10.2,0,0,0-3.113-.371c-1.039.156-2.074,1.091-1.842,2.116.224.992,1.411,1.4,2.423,1.5,1.432.137,2.877,0,4.314.074a57.843,57.843,0,0,1,7.249,1.28,12.308,12.308,0,0,0,7.241-.458c2.237-1.017,3.976-3.45,2.94-5.94" transform="translate(-235.478 -191.911)" fill="#5d3d80"/>
          <path id="Trazado_137136" data-name="Trazado 137136" d="M497.568,459.765a.312.312,0,0,1-.084-.012c-4.878-1.4-9.778-2.978-14.566-4.681a.3.3,0,0,1,.2-.573c4.776,1.7,9.665,3.27,14.531,4.67a.3.3,0,0,1-.084.6" transform="translate(-209.653 -197.39)" fill="#553675"/>
          <path id="Trazado_137137" data-name="Trazado 137137" d="M488.769,462.09a.305.305,0,0,1-.084-.012,95.738,95.738,0,0,0-12.576-2.707.3.3,0,1,1,.088-.6,96.361,96.361,0,0,1,12.655,2.724.3.3,0,0,1-.084.6" transform="translate(-206.671 -199.251)" fill="#553675"/>
          <path id="Trazado_137138" data-name="Trazado 137138" d="M478.167,464.134a.319.319,0,0,1-.057-.005l-11.091-2.066a.3.3,0,0,1,.111-.6l11.092,2.066a.3.3,0,0,1-.055.6" transform="translate(-202.728 -200.421)" fill="#553675"/>
          <path id="Trazado_137139" data-name="Trazado 137139" d="M467.513,465.538a.317.317,0,0,1-.057-.005l-8.906-1.664a.3.3,0,0,1,.112-.6l8.906,1.664a.3.3,0,0,1-.055.6" transform="translate(-199.05 -201.206)" fill="#553675"/>
          <path id="Trazado_137140" data-name="Trazado 137140" d="M460.872,468.517h-.024l-4.892-.38a.3.3,0,0,1-.279-.326.307.307,0,0,1,.326-.279l4.892.381a.3.3,0,0,1-.023.606" transform="translate(-197.909 -203.057)" fill="#553675"/>
          <path id="Trazado_137141" data-name="Trazado 137141" d="M483.695,477.045a.3.3,0,0,1-.019-.607c32.33-1.94,65.139-3.327,97.516-4.124h.008a.3.3,0,0,1,.007.608c-32.37.8-65.173,2.183-97.495,4.123h-.018" transform="translate(-209.946 -205.135)" fill="#c76161"/>
          <path id="Trazado_137142" data-name="Trazado 137142" d="M22.629,459.864l47.956,36.872a14.879,14.879,0,0,0,9.386,3.08l183.749-3.924a2.266,2.266,0,0,0,.913-4.318l-83.18-38.943a2.262,2.262,0,0,0-1.013-.213L23.89,456.011a2.15,2.15,0,0,0-1.261,3.853" transform="translate(-9.462 -196.494)" fill="#473e57"/>
          <path id="Trazado_137143" data-name="Trazado 137143" d="M47.775,444.372c-11.213-5.331-22.556-10.707-34.7-13.282a8.484,8.484,0,0,0-4.1-.15,3.125,3.125,0,0,0-2.4,2.98c.144,1.743,2.07,2.675,3.717,3.264l34.7,12.41c.91-1.7,1.82-3.411,2.784-5.222" transform="translate(-2.851 -187.08)" fill="#fa9e8c"/>
          <path id="Trazado_137144" data-name="Trazado 137144" d="M116.388,440c-11.516,0-40.835,1.234-42.587,10.134-1.772,9,17.691,19.141,43.1,19.141,23.8,0,49.55-11.589,41.047-22.185C153.13,441.079,129.415,440,116.388,440" transform="translate(-32.005 -191.1)" fill="#fceee8"/>
          <path id="Trazado_137145" data-name="Trazado 137145" d="M117.74,467.5a118.569,118.569,0,0,1-25.152-2.689c-5.674-1.232-12.021-3.136-16.069-7.912a.3.3,0,0,1,.464-.393c3.931,4.637,10.16,6.5,15.735,7.711a118.521,118.521,0,0,0,55.84-1.4c4.006-1.083,8.359-2.683,10.265-6.343a.3.3,0,1,1,.539.281c-2.016,3.868-6.513,5.532-10.645,6.649A118.873,118.873,0,0,1,117.74,467.5" transform="translate(-33.202 -198.185)" fill="#f2c9b8"/>
          <path id="Trazado_137146" data-name="Trazado 137146" d="M141.056,515.469c-6.431,0-13.336-.457-18.535-2.994a2.492,2.492,0,0,1-1.416-2.16,2.438,2.438,0,0,1,1.19-2.228c7.877-4.747,27.549-4.656,33.821-4.086,10,.909,15.235,2.671,15.129,5.094-.14,3.175-10.02,6.2-20.332,6.228-1.346,0-2.788.034-4.315.067-1.767.038-3.634.078-5.541.078m7.545-11.134c-8.439,0-20.34.867-25.993,4.273a1.838,1.838,0,0,0-.9,1.681,1.893,1.893,0,0,0,1.076,1.641c6.609,3.224,16.139,3.018,23.8,2.854,1.53-.033,2.974-.064,4.327-.067,10.491-.027,19.615-3.128,19.726-5.647.128-2.9-11.125-4.149-14.576-4.462-1.682-.153-4.334-.272-7.46-.272" transform="translate(-52.597 -218.78)" fill="#a3b4c4"/>
          <path id="Trazado_137147" data-name="Trazado 137147" d="M243.923,426.734c-.207,14.124-.879,27.9.657,43,13.206,11.837,49.267,10.3,65.175.25,0,0,.633-43.639,0-43.035-19.793-6.86-47.331-7.559-65.832-.219" transform="translate(-105.8 -183.071)" fill="#a3b4c4"/>
          <path id="Trazado_137148" data-name="Trazado 137148" d="M359.7,458.5a1.519,1.519,0,0,1-.036-3.038,123.74,123.74,0,0,0,14.485-1.246,3.139,3.139,0,0,0,1.173-.334.573.573,0,0,0-.12-.119,3.588,3.588,0,0,0-1.221-.421A37.932,37.932,0,0,0,359.639,453a1.519,1.519,0,0,1-.508-3,41.015,41.015,0,0,1,15.5.369,6.088,6.088,0,0,1,2.355.931,3.226,3.226,0,0,1,1.366,3.177c-.206,1.037-1.029,2.353-3.778,2.742a126.791,126.791,0,0,1-14.838,1.275H359.7" transform="translate(-155.428 -195.199)" fill="#a3b4c4"/>
          <path id="Trazado_137149" data-name="Trazado 137149" d="M225.467,460.287a57.1,57.1,0,0,1-12.827-1.459,3.773,3.773,0,0,1-2.668-1.726,3.081,3.081,0,0,1,.483-3.364,5.45,5.45,0,0,1,2.042-1.394c5.011-2.232,10.656-2.627,15.635-2.975a1.519,1.519,0,0,1,.212,3.03c-4.96.347-10.089.707-14.611,2.72a2.911,2.911,0,0,0-.959.581l-.007.009a4.057,4.057,0,0,0,.555.16,54.139,54.139,0,0,0,15.085,1.3,1.519,1.519,0,0,1,.165,3.033q-1.552.085-3.105.085" transform="translate(-91.064 -195.168)" fill="#a3b4c4"/>
          <path id="Trazado_137150" data-name="Trazado 137150" d="M339.435,437.109l-13.159,3.272a11.045,11.045,0,0,0-3.645,1.381,3.748,3.748,0,0,0-1.781,3.282c.2,2.1,2.535,3.169,4.086,4.6,2.608,2.409,3.163,6.257,3.563,9.785.51,4.5.9,9.485-1.816,13.107-1.045,1.4-2.6,2.831-2.214,4.533a3.078,3.078,0,0,0,2.588,2.131,8.658,8.658,0,0,0,3.511-.385q3.069-.788,6.1-1.719c1.584-.487,3.386-1.229,3.819-2.83a5.386,5.386,0,0,0-.373-2.959,44.241,44.241,0,0,1,.3-27.09,13.142,13.142,0,0,0,.931-3.812,3.276,3.276,0,0,0-1.911-3.3" transform="translate(-139.346 -189.845)" fill="#d3e2f0"/>
          <path id="Trazado_137151" data-name="Trazado 137151" d="M255.537,440.5a10.361,10.361,0,0,0-3.007-1.859,3.518,3.518,0,0,0-3.368.45,3.6,3.6,0,0,0-1.018,3.18,13.012,13.012,0,0,0,1.079,3.3,38.014,38.014,0,0,1,2.207,21.216c-.458,2.48-1.162,5.051-.47,7.477.839,2.94,3.6,4.987,6.515,5.924,1.3.42,3.078.475,3.679-.755.51-1.043-.211-2.231-.8-3.231-2.437-4.137-2.9-9.1-3.315-13.887-.394-4.59-.772-9.334.691-13.7a15.558,15.558,0,0,0,1.251-4.56,3.434,3.434,0,0,0-3.444-3.547" transform="translate(-107.759 -190.413)" fill="#d3e2f0"/>
          <path id="Trazado_137152" data-name="Trazado 137152" d="M294.1,447.063c-3.692.056-7.845.314-10.284,3.086-1.831,2.081-2.18,5.049-2.311,7.818a86.657,86.657,0,0,0,.427,13.631c.414,3.744,1.156,7.651,3.562,10.549s6.961,4.326,10.05,2.17c3.123-2.179,3.36-6.63,3.287-10.437q-.185-9.725-.369-19.451a9.586,9.586,0,0,0-.871-4.639,7.851,7.851,0,0,0-3.49-2.727" transform="translate(-122.222 -194.168)" fill="#8ba1b5"/>
          <path id="Trazado_137153" data-name="Trazado 137153" d="M278.864,438.14a94.075,94.075,0,0,1-31.041-5.252.3.3,0,0,1,.2-.574,93.749,93.749,0,0,0,61.7-.005.3.3,0,0,1,.2.574,94.081,94.081,0,0,1-31.056,5.257" transform="translate(-107.546 -187.753)" fill="#7c7c91"/>
          <path id="Trazado_137154" data-name="Trazado 137154" d="M294.792,414.766a6.744,6.744,0,0,1,6.845-6.044,9.638,9.638,0,0,1-2.061-7.806,20.553,20.553,0,0,1,3.106-7.676,21.384,21.384,0,0,1,6.131-6.9,10.187,10.187,0,0,1,8.86-1.446c2.921,1.048,5.126,4.2,4.525,7.248A28.262,28.262,0,0,1,336.17,382.5a6.374,6.374,0,0,1,2.938-.359,2.554,2.554,0,0,1,2.126,1.838c.239,1.2-.683,2.3-1.553,3.161a83.343,83.343,0,0,1-10.306,8.682l1.779-.394c-.511,4.546-5.166,7.314-9.395,9.06a10.7,10.7,0,0,1-4.1,1.052,3.914,3.914,0,0,1-3.538-1.953,2.442,2.442,0,0,1,1.445-3.4,11.785,11.785,0,0,1-8.212,6.547,9.059,9.059,0,0,1-5.1,8.934c-2.914-.024-5.828-.049-7.466-.908" transform="translate(-128.034 -165.947)" fill="#dfe6ed"/>
          <path id="Trazado_137155" data-name="Trazado 137155" d="M362.911,313.471a24.871,24.871,0,0,0-7.592,3.213c-2.242,1.612-3.979,4.2-3.828,6.956s2.7,5.379,5.433,4.955c1.383-.215,2.729-1.127,4.075-.743,1.505.43,2.13,2.4,1.6,3.868a6.657,6.657,0,0,1-3.236,3.26c-2.024,1.133-4.65,2.53-4.376,4.833.249,2.093,3.116,3.011,4.977,2.021s2.794-3.132,3.254-5.188a6.33,6.33,0,0,0,4.362-11c-1.084-.991-2.682-2-2.368-3.437.309-1.41,2.135-1.686,3.516-2.107a6.422,6.422,0,0,0,4.537-5.467,5.37,5.37,0,0,0-4.117-5.543c-2.477-.456-5.2,1.516-6.235,4.379" transform="translate(-152.655 -134.216)" fill="#dfe6ed"/>
          <path id="Trazado_137156" data-name="Trazado 137156" d="M341.559,351.689a14.472,14.472,0,0,0-3.7,1.711,4.884,4.884,0,0,0-2.146,3.335,2.986,2.986,0,0,0,1.994,3.181c1.594.415,3.1-.83,4.273-1.987a6.407,6.407,0,0,0,1.858-2.582c.3-1.028-.07-2.341-2.281-3.659" transform="translate(-145.802 -152.746)" fill="#dfe6ed"/>
          <path id="Trazado_137157" data-name="Trazado 137157" d="M306.661,375.373a1.711,1.711,0,0,0-1.736,1.886,2.079,2.079,0,0,0,2.089,1.693,2.666,2.666,0,0,0,2.277-1.616,2.12,2.12,0,0,0-.489-2.547c-.762-.544-2.109.007-2.141.583" transform="translate(-132.43 -162.682)" fill="#dfe6ed"/>
          <path id="Trazado_137158" data-name="Trazado 137158" d="M604.573,473.643c-10.362,0-17.344-3.959-19.156-10.862-2.209-8.417,3.891-19.153,14.2-25.039q-.163-9.9-.33-19.819l-.058-3.448a4.251,4.251,0,0,0-4.526-2.693.3.3,0,0,1-.359-.208.3.3,0,0,1,.181-.372,28.352,28.352,0,0,1,12.952-1.54.3.3,0,0,1,.28.3c.06,4.458.12,9.3.18,14.135.059,4.774.118,9.549.177,13.959,11.495,6.522,17.513,16.066,15.343,24.35-1.817,6.932-9.053,11.238-18.886,11.238m-8.23-62.427a5.361,5.361,0,0,1,3.467,3.065.305.305,0,0,1,.027.12l.059,3.512q.168,10,.334,20a.3.3,0,0,1-.154.269c-10.174,5.735-16.223,16.245-14.07,24.446,1.736,6.615,8.5,10.408,18.568,10.408,9.544,0,16.555-4.132,18.3-10.785,2.108-8.045-3.86-17.368-15.205-23.752a.3.3,0,0,1-.155-.26c-.06-4.459-.119-9.3-.179-14.135-.059-4.738-.118-9.475-.177-13.856a28.907,28.907,0,0,0-10.812.968" transform="translate(-254.063 -177.865)" fill="#f2c9b8"/>
          <path id="Trazado_137159" data-name="Trazado 137159" d="M624.612,439.311a.3.3,0,0,1-.016-.607c.716-.04,1.519-.063,2.378-.088,5.816-.166,13.782-.394,14.111-6.058a4.3,4.3,0,0,0-1.461-3.571c-3.25-2.975-10.9-3.1-15.254-2.453a.3.3,0,0,1-.089-.6c4.468-.659,12.346-.51,15.753,2.606a4.888,4.888,0,0,1,1.657,4.055c-.361,6.221-8.99,6.467-14.7,6.631-.853.024-1.652.047-2.363.087h-.016" transform="translate(-271.026 -184.853)" fill="#f2c9b7"/>
          <path id="Trazado_137160" data-name="Trazado 137160" d="M629.508,438.181a32.7,32.7,0,0,1-4.456-.305.3.3,0,0,1-.26-.342.307.307,0,0,1,.342-.26,32.084,32.084,0,0,0,9.755-.156,3.667,3.667,0,0,0,2.633-1.294,2.469,2.469,0,0,0-.608-2.9,6.382,6.382,0,0,0-3.108-1.379,24.328,24.328,0,0,0-8.81-.283.308.308,0,0,1-.346-.255.3.3,0,0,1,.255-.346,24.935,24.935,0,0,1,9.03.29,6.917,6.917,0,0,1,3.4,1.534,3.052,3.052,0,0,1,.705,3.652,4.169,4.169,0,0,1-3.048,1.576,32.634,32.634,0,0,1-5.483.464" transform="translate(-271.296 -186.925)" fill="#f2c9b7"/>
          <path id="Trazado_137161" data-name="Trazado 137161" d="M604.214,430.238c.067,6.142.133,12.285.227,18.55-8.5,3.679-17.432,14.98-12.693,24.022,2.368,4.52,10.4,5.6,15.052,5.666,22.694.317,20.041-19.937,1.941-29.332-.168-6.3-.336-12.605-.545-18.861-1.207,0-2.414.006-3.982-.046" transform="translate(-256.435 -186.861)" fill="#ffb87a"/>
          <path id="Trazado_137162" data-name="Trazado 137162" d="M625.27,486.808a4.536,4.536,0,0,0-5.729.98c-1.031,1.285-1.3,3.093-2.469,4.253-1.568,1.555-4.1,1.385-6.194,2.075-.964.317-1.964.976-2.091,1.983-.166,1.325,1.23,2.289,2.491,2.728a14.153,14.153,0,0,0,11.522-1.062,9.129,9.129,0,0,0,4.415-5.095,5.272,5.272,0,0,0-1.945-5.863" transform="translate(-264.403 -211.163)" fill="#eb9963"/>
          <path id="Trazado_137163" data-name="Trazado 137163" d="M608.745,472.089a4.871,4.871,0,0,0-4.251,4.717,2.783,2.783,0,0,0,.483,1.661,1.549,1.549,0,0,0,1.539.628c.7-.172,1.105-.9,1.392-1.564a2.938,2.938,0,0,1,1.268-1.7c.777-.339,1.7.09,2.517-.13a1.864,1.864,0,0,0,1.3-1.724,2.372,2.372,0,0,0-1.044-1.959c-.634-.441-1.328-.112-3.205.068" transform="translate(-262.544 -204.912)" fill="#eb9963"/>
          <path id="Trazado_137164" data-name="Trazado 137164" d="M598.442,492.152a1.776,1.776,0,0,0-.755,2.276,1.8,1.8,0,0,0,2.262.816,1.819,1.819,0,0,0,.923-2.227,1.625,1.625,0,0,0-2.43-.865" transform="translate(-259.519 -213.641)" fill="#eb9963"/>
          <path id="Trazado_137165" data-name="Trazado 137165" d="M615.708,485.84A1.142,1.142,0,1,0,617,487.557c.4-.612.016-1.569-1.288-1.717" transform="translate(-267.075 -211.01)" fill="#eb9963"/>
          <path id="Trazado_137166" data-name="Trazado 137166" d="M627.56,472.483a1.346,1.346,0,0,0-1.329.566,3.026,3.026,0,0,0-.494,1.431,2.952,2.952,0,0,0,.134,1.6,1.306,1.306,0,0,0,1.281.819c.719-.1,1.259-.959,1.967-.807.586.126.926.91,1.523.872a.815.815,0,0,0,.683-.756,1.915,1.915,0,0,0-.277-1.057,4.814,4.814,0,0,0-3.489-2.673" transform="translate(-271.749 -205.196)" fill="#eb9963"/>
          <path id="Trazado_137167" data-name="Trazado 137167" d="M635.362,483.1a1.907,1.907,0,0,0-2.81-1.08,1.348,1.348,0,0,0-.2.153.817.817,0,0,0-.386.51,6.242,6.242,0,0,0-.4,3.637c.395,1.418,1.983,2.471,3.236,1.323,1.082-1.2.946-3.082.565-4.544" transform="translate(-274.233 -209.228)" fill="#fff"/>
          <path id="Trazado_137168" data-name="Trazado 137168" d="M634.392,499.276c-1.129-1.012-2.9.525-2.614,1.831a.984.984,0,0,0,.039.093.966.966,0,0,0,.855.821,1.135,1.135,0,0,0,1.4-.385.808.808,0,0,0,.113-.3,1.466,1.466,0,0,0,.206-2.057" transform="translate(-274.38 -216.703)" fill="#fff"/>
          <path id="Trazado_137169" data-name="Trazado 137169" d="M594.2,500.591a5.35,5.35,0,0,1-.885-1.136,11.93,11.93,0,0,1-1.411-2.969c-.222-.505-.1-1.208-.634-1.523a8.758,8.758,0,0,0,.046-2.169.912.912,0,0,0-1.745.351,14.855,14.855,0,0,0,.467,5.909,10.32,10.32,0,0,0,1.347,2.407,6.354,6.354,0,0,0,.817.961c.074.066.292.233.428.336a1.682,1.682,0,0,0,1.945.414c1.065-.677.36-1.946-.377-2.581" transform="translate(-256.015 -213.793)" fill="#fff"/>
          <path id="Trazado_137170" data-name="Trazado 137170" d="M606.729,513.086a1.694,1.694,0,0,0-.9-.344,1.161,1.161,0,0,0-.976.024.919.919,0,0,0,.218,1.665,3.735,3.735,0,0,0,1.134.195.911.911,0,0,0,.523-1.54" transform="translate(-262.508 -222.652)" fill="#fff"/>
          <path id="Trazado_137171" data-name="Trazado 137171" d="M513.343,509.729a42.909,42.909,0,0,1-9.785,0,2.026,2.026,0,0,1-1.755-2.15c.079-1.5-.065-3.017-.02-4.52.065-2.133.639-4.452,2.367-5.7a7.088,7.088,0,0,1,3.843-1.1,7.2,7.2,0,0,1,3.53.533c2.1,1.024,3.06,3.513,3.324,5.836.187,1.644.126,3.322.276,4.911a2.019,2.019,0,0,1-1.78,2.2" transform="translate(-217.93 -215.524)" fill="#ffdbcc"/>
          <path id="Trazado_137172" data-name="Trazado 137172" d="M507.475,495.1a2.276,2.276,0,0,1,.925-2.258,4.487,4.487,0,0,1,2.425-.778,3.9,3.9,0,0,1,2,.29,2.684,2.684,0,0,1,1.392,2.733,8.6,8.6,0,0,0-6.74.013" transform="translate(-220.384 -213.708)" fill="#473e57"/>
          <path id="Trazado_137173" data-name="Trazado 137173" d="M.378,461.484.83,509.047h58Z" transform="translate(-0.164 -200.432)" fill="#f2c9b8"/>
          <path id="Trazado_137174" data-name="Trazado 137174" d="M556.31,248.605c1.1,7.54,2.956,14.783,4.2,23.355-8.316,17.279-8.241,27.958-15.517,39.624-3.838,6.153-8.269,8.134-15.353,10.576a46.937,46.937,0,0,0-4.768,12.388c-.213,3.024-.354,6.052-.494,9.079a2.951,2.951,0,0,0,.509,2.237c.548.566,1.806.3,1.75-.481-.221.725.715,1.372,1.448,1.178a2.934,2.934,0,0,0,1.595-1.533c1.5-2.6,2.378-5.507,3.628-8.236s3-5.394,5.647-6.81a67.158,67.158,0,0,0-5.439,16.9c-.125.69-.137,1.586.5,1.879.692.319,1.394-.409,1.786-1.063a41.64,41.64,0,0,0,3.294-7.391,27.921,27.921,0,0,1,3.024-4.737c.371-.47.927-.978,1.487-.765.659.249.612,1.187.444,1.872-.452,1.834-.9,3.668-1.3,5.682l-2.168,5.195c-.175.42-.338.942-.05,1.294.433.527,1.281.072,1.748-.425a18.277,18.277,0,0,0,3.805-6.72c.721-2.682,1.441-5.364,2.328-8.116a34.652,34.652,0,0,0,3.312-11.464,142.014,142.014,0,0,0,28.858-48.3,258.574,258.574,0,0,0-2.909-39.186,83.668,83.668,0,0,1-21.359,13.971" transform="translate(-227.743 -101.906)" fill="#f67f6c"/>
          <path id="Trazado_137175" data-name="Trazado 137175" d="M528.221,416.931a.31.31,0,0,1-.06-.006.3.3,0,0,1-.239-.357l1.886-9.554a67.864,67.864,0,0,1,3.672-8.986.3.3,0,1,1,.544.269,67.5,67.5,0,0,0-3.63,8.872l-1.876,9.518a.3.3,0,0,1-.3.245" transform="translate(-229.285 -172.798)" fill="#e03d2b"/>
          <path id="Trazado_137176" data-name="Trazado 137176" d="M482.482,356.8a377.537,377.537,0,0,0,20.658,43.756,13.555,13.555,0,0,1-8.571-4.452,37.853,37.853,0,0,1-5.5-8.172Q481.7,374.5,475.331,360.56c1.825-2.181,3.65-4.362,7.151-3.759" transform="translate(-206.446 -154.922)" fill="#a3b4c4"/>
          <path id="Trazado_137177" data-name="Trazado 137177" d="M385.366,235.777a149,149,0,0,0-4.808,31.444,33.869,33.869,0,0,0,18.088,13.258c8.032,2.413,16.937,1.818,24.759,5.679q.2,4.15.405,8.3c-.277-.777-1.512-.74-2.035-.1a3.315,3.315,0,0,0-.468,2.367,23.977,23.977,0,0,0,1.3,6.5,2.714,2.714,0,0,0,3.949,2.06A2.531,2.531,0,0,0,428.2,307.5a3.236,3.236,0,0,0,2.63-.352,8.6,8.6,0,0,0,1.873,3,2.935,2.935,0,0,0,3.284.6c1.166-.66,1.444-2.186,1.6-3.517q.773,5.291,1.545,10.583c.087.595.252,1.293.812,1.512a1.164,1.164,0,0,0,1.278-.455,3.162,3.162,0,0,0,.5-1.351,26.063,26.063,0,0,0,.321-8.361,33.621,33.621,0,0,1-.582-10.316,70.973,70.973,0,0,0-2.515-11.6,23.741,23.741,0,0,0-6.135-10.031c-2.431-2.229-5.422-3.73-8.317-5.309a135.382,135.382,0,0,1-19.38-12.85A2.853,2.853,0,0,1,403.775,255l3.208-8.244Z" transform="translate(-165.284 -102.403)" fill="#f67f6c"/>
          <path id="Trazado_137178" data-name="Trazado 137178" d="M481.469,359.245h-.01a.3.3,0,0,1-.294-.313l.136-4.033a.309.309,0,0,1,.314-.294.3.3,0,0,1,.294.313l-.136,4.033a.3.3,0,0,1-.3.294" transform="translate(-208.979 -154.011)" fill="#e03d2b"/>
          <path id="Trazado_137179" data-name="Trazado 137179" d="M469.529,356.322a.3.3,0,0,1-.283-.412,21.986,21.986,0,0,0,1.432-7.026.31.31,0,0,1,.315-.292.3.3,0,0,1,.292.314,22.577,22.577,0,0,1-1.472,7.22.3.3,0,0,1-.283.2" transform="translate(-203.794 -151.4)" fill="#e03d2b"/>
          <path id="Trazado_137180" data-name="Trazado 137180" d="M461.831,353.256a.3.3,0,0,1-.114-.022.3.3,0,0,1-.167-.4,20.416,20.416,0,0,0,1.5-7.292.3.3,0,0,1,.608.012,21.021,21.021,0,0,1-1.544,7.508.3.3,0,0,1-.281.19" transform="translate(-200.451 -149.949)" fill="#e03d2b"/>
          <path id="Trazado_137181" data-name="Trazado 137181" d="M456.963,347.056l-.038,0a.3.3,0,0,1-.265-.338l.415-3.406c-.171-1.332-.24-2.18-.307-3a.3.3,0,0,1,.278-.328.312.312,0,0,1,.328.278c.067.822.137,1.673.309,3.011a.245.245,0,0,1,0,.076l-.42,3.444a.3.3,0,0,1-.3.267" transform="translate(-198.336 -147.66)" fill="#e03d2b"/>
          <path id="Trazado_137182" data-name="Trazado 137182" d="M473.155,359.615a.3.3,0,0,1-.24-.117,7.4,7.4,0,0,1-1.406-3.047.3.3,0,0,1,.6-.122,6.779,6.779,0,0,0,1.29,2.8.3.3,0,0,1-.24.49" transform="translate(-204.783 -154.655)" fill="#e03d2b"/>
          <path id="Trazado_137183" data-name="Trazado 137183" d="M411.112,270.6a.3.3,0,0,1-.183-.061,18.8,18.8,0,0,0-12.172-3.692.3.3,0,0,1-.321-.286.3.3,0,0,1,.286-.321,19.374,19.374,0,0,1,12.572,3.813.3.3,0,0,1-.183.546" transform="translate(-173.049 -115.62)" fill="#e03d2b"/>
        </g>
      </g>
    </g>
  </g>
</svg>
