<svg xmlns="http://www.w3.org/2000/svg" xmlns:xlink="http://www.w3.org/1999/xlink" width="499.609" height="309.875" viewBox="0 0 499.609 309.875">
  <defs>
    <clipPath id="clip-path">
      <rect id="Rect치ngulo_38028" data-name="Rect치ngulo 38028" width="268.652" height="284.928" fill="none"/>
    </clipPath>
  </defs>
  <g id="_166" data-name="166" transform="translate(-252 -3244.678)">
    <g id="Grupo_85023" data-name="Grupo 85023" transform="translate(252 3244.678)">
      <rect id="Rect치ngulo_34651" data-name="Rect치ngulo 34651" width="499.609" height="201.281" transform="translate(0 108.594)" fill="#6b8dff"/>
      <g id="Grupo_84254" data-name="Grupo 84254" transform="translate(22.106 0)">
        <g id="Grupo_84000" data-name="Grupo 84000" transform="translate(0.894)">
          <path id="Trazado_118280" data-name="Trazado 118280" d="M236.858,308.023q-1.951-.241-3.924-.4c-15.443-1.217-30.87,1.941-46.386,2.368-27.964.768-55.359-7.466-78.237-19.536s-41.789-27.828-59.888-43.812c-19.458-17.186-39.345-37.482-35.888-59.865,2.52-16.313,17.156-30.061,32.688-41.653,19.647-14.668,41.57-27.435,62.593-40.945,20.909-13.435,37.578-31.2,58.744-43.821,41.051-24.473,104.4-27.836,151.382-12.132C348.09,58.3,372.9,75.379,400.377,89.087c19.651,9.807,41.586,18.513,54.205,33.462,15.29,18.114,13.474,41.368,8.372,62.454-8.633,35.677-26,71.272-59.183,97.676s-84.335,42.012-131.221,32.986C260.559,313.356,249.024,309.533,236.858,308.023Z" transform="translate(-12.141 -38.664)" fill="#c4d1ff"/>
        </g>
        <g id="Grupo_158790" data-name="Grupo 158790" transform="translate(92.894 12.474)">
          <g id="Grupo_158790-2" data-name="Grupo 158790" clip-path="url(#clip-path)">
            <path id="Trazado_134611" data-name="Trazado 134611" d="M22.505,61.642c1.5,6.361,6.8,12.605,15.384,12.154C62.9,72.487,55.222,77.238,61.8,80.447c7.887,3.849,16.251.7,19.194-.944a8.3,8.3,0,0,0-2.971-4.8C74.1,71.487,74.9,70.031,78.305,62.9s-1.827-16.875.728-21.416,1.048-15.154-11.14-17.933a108.209,108.209,0,0,0-11.92-2.09,21.227,21.227,0,0,0-15.545,4.315,15.619,15.619,0,0,0-4.56,5.514c-3.541,7.517.126,16.055-3.94,23.8-1.886,3.591-5.689,4.393-9.475,5.581,1.023.833-.247-.289.051.979" transform="translate(5.728 5.438)" fill="#32251d"/>
            <path id="Trazado_134612" data-name="Trazado 134612" d="M60.425,56.336a2.811,2.811,0,1,0,2.81-2.81,2.81,2.81,0,0,0-2.81,2.81" transform="translate(15.415 13.655)" fill="#fff"/>
            <path id="Trazado_134613" data-name="Trazado 134613" d="M76.746,89.361s2.213,46.121,8.669,53.671c0,0,17.658-7.447,32.32-10.549l3.39,9.241S90.053,163.257,74.178,163.8s-13.344-39.262-13.344-39.262Z" transform="translate(15.482 22.797)" fill="#32251d"/>
            <path id="Trazado_134614" data-name="Trazado 134614" d="M81.291,132.158a55.208,55.208,0,0,0-6.44,4.122c-.412.3-.01,1,.407.7a55.046,55.046,0,0,1,6.44-4.122c.454-.249.049-.944-.407-.7" transform="translate(19.051 33.701)" fill="#817868"/>
            <path id="Trazado_134615" data-name="Trazado 134615" d="M89.526,99.537a72.538,72.538,0,0,1-2.818,7.655c-.054.128-.108.26-.164.392-.153.373-.311.752-.469,1.132-.021.056-.045.113-.07.169-.965,2.327-2,4.836-3.016,7.573-.867,2.35-1.716,4.864-2.48,7.572a85.387,85.387,0,0,0-2.042,9.122q-.4,2.447-.679,5.073-.113,1.107-.2,2.247c-.177,2.348-.265,4.806-.243,7.38,0,.316.008.636.014.955,0,.169.005.341.01.511q.053,2.242.223,4.6a.086.086,0,0,1,0,.024c.075,1.053-1.216,1.983-3.433,2.754q-.371.13-.773.25a32.63,32.63,0,0,1-3.175.781c-1.035.207-2.155.4-3.339.559-.279.04-.566.078-.853.115-1.868.236-3.881.422-5.972.547a.086.086,0,0,1-.024,0c-.019,0-.035,0-.054,0q-.463.028-.934.053a102.355,102.355,0,0,1-18.67-.66c-.3-.04-.6-.083-.9-.128-4.082-.631-7.571-1.591-9.845-2.934a8.96,8.96,0,0,1-.818-.538,4.586,4.586,0,0,1-1.905-2.564c-.2-.842-.531-2.026-.964-3.485-.392-1.32-.866-2.869-1.406-4.6-.561-1.8-1.189-3.8-1.863-5.943-.921-2.936-1.924-6.149-2.95-9.506-1-3.285-2.027-6.707-3.012-10.148-.571-1.994-1.13-3.994-1.663-5.977-1.084-4.024-2.072-7.971-2.867-11.649-1.694-7.88-2.506-14.5-1.506-17.92a.213.213,0,0,1,.014-.043A3.513,3.513,0,0,1,12.1,80.787c1.21-.724,2.791-1.57,4.611-2.483h0c.2-.1.4-.2.6-.3,3.228-1.6,7.115-3.393,10.933-5.094,4.193-1.87,8.3-3.636,11.38-4.944h.005c3.128-1.325,5.194-2.179,5.194-2.179l14.931,3.848h.008l4.51,1.165s.934.507,2.445,1.383c1.771,1.024,4.34,2.56,7.132,4.379h.005A90.08,90.08,0,0,1,84.6,84.585c2.452,2.217,4.374,4.428,5.169,6.409a5.873,5.873,0,0,1,.282.874,15.251,15.251,0,0,1-.521,7.67" transform="translate(2.611 16.783)" fill="#fff"/>
            <path id="Trazado_134616" data-name="Trazado 134616" d="M62.823,97.837c-.108-.163-.216-.328-.32-.493-1.775-2.805-3.187-5.866-5.392-8.379a12.443,12.443,0,0,0-8-4.241,12.809,12.809,0,0,0-9.987,3.119c-.387.346.184.915.569.57a12.057,12.057,0,0,1,10.419-2.72c3.76.776,6.37,3.347,8.38,6.479,1.436,2.237,2.968,4.966,4.5,7.1.023-.375-.19-1.061-.162-1.435" transform="translate(9.947 21.592)" fill="#d6b59f"/>
            <path id="Trazado_134617" data-name="Trazado 134617" d="M44.994,80.836c2.373,1.593,4.982,3.286,7.965,3.163a5.434,5.434,0,0,0,5.123-3.7c.149-.482-.6-.688-.753-.208-.8,2.592-3.587,3.463-6.047,2.991a16.549,16.549,0,0,1-5.894-2.924c-.418-.281-.81.4-.394.675" transform="translate(11.433 20.363)" fill="#32251d"/>
            <path id="Trazado_134618" data-name="Trazado 134618" d="M53.343,72.953S60.018,96.21,59.7,114.192s-.643,33.011-.643,33.011l14.287-1.565s-4.649-3.676,1.03-9.912,10.1-12.139,5.743-22.607.333-15.4-1.074-21.789-25.7-23.445-25.7-23.445Z" transform="translate(13.608 17.318)" fill="#32251d"/>
            <path id="Trazado_134619" data-name="Trazado 134619" d="M58.705,71.925a11.337,11.337,0,0,1-2.553,5.907c-.319.384.231.94.552.552a12.275,12.275,0,0,0,2.783-6.459c.06-.5-.722-.493-.782,0" transform="translate(14.3 18.254)" fill="#817868"/>
            <path id="Trazado_134620" data-name="Trazado 134620" d="M56.115,77.112A183.735,183.735,0,0,1,61.389,127.4q-.245,7.224-1.063,14.409c-.056.5.725.495.782,0A184.553,184.553,0,0,0,59.835,91.3Q58.641,84.044,56.868,76.9a.391.391,0,0,0-.753.208" transform="translate(14.312 19.548)" fill="#817868"/>
            <path id="Trazado_134621" data-name="Trazado 134621" d="M60.687,129.1A72.062,72.062,0,0,1,70,128.251a.391.391,0,0,0,0-.782,73.724,73.724,0,0,0-9.516.88c-.5.078-.286.831.207.753" transform="translate(15.357 32.518)" fill="#817868"/>
            <path id="Trazado_134622" data-name="Trazado 134622" d="M76.989,114.078a25.294,25.294,0,0,1-3.812,5.656,44.271,44.271,0,0,0-3.847,4.589c-1.714,2.642-2.35,6.69.009,9.189.345.366.9-.186.552-.552-2.9-3.072-.641-7.583,1.62-10.2,2.281-2.634,4.643-5.1,6.153-8.29.213-.452-.459-.848-.675-.394" transform="translate(17.296 29.051)" fill="#817868"/>
            <path id="Trazado_134623" data-name="Trazado 134623" d="M67.767,85.761a42.916,42.916,0,0,0,7.552,21.43c.284.41.961.02.674-.394a42.2,42.2,0,0,1-7.445-21.036c-.036-.5-.818-.5-.781,0" transform="translate(17.288 21.783)" fill="#817868"/>
            <path id="Trazado_134624" data-name="Trazado 134624" d="M18.586,158.845s23.538,20.324,62.624-2.13l-.423-1.409-2.037-6.768L76.3,140.384l-.707-2.352-.131-.025-13.406-2.48L22.4,128.186l-.08-.015a32.692,32.692,0,0,1,.346,4.117,63.626,63.626,0,0,1-.213,7.558,80.436,80.436,0,0,1-1.2,8.589c-.427,2.205-.973,4.557-1.664,7.045q-.454,1.645-1,3.365" transform="translate(4.741 32.697)" fill="#fff"/>
            <path id="Trazado_134625" data-name="Trazado 134625" d="M65.455,156.052a27.4,27.4,0,0,1-11.883-17.377,26.511,26.511,0,0,1,4.3-20.345,25.319,25.319,0,0,1,1.863-2.407c.054-.444-.02-.894.026-1.342a27.69,27.69,0,0,0-6.532,11.733,27.313,27.313,0,0,0,3.11,21.5,27.8,27.8,0,0,0,8.712,8.931c.438.282.842-.414.407-.7" transform="translate(13.331 29.23)" fill="#d6b59f"/>
            <path id="Trazado_134626" data-name="Trazado 134626" d="M26.316,121.325A95.582,95.582,0,0,0,27.653,159.7c.122.5.9.29.776-.215a94.532,94.532,0,0,1-1.337-37.948c.085-.507-.69-.725-.777-.215" transform="translate(6.372 30.877)" fill="#d6b59f"/>
            <path id="Trazado_134627" data-name="Trazado 134627" d="M37.325,89.823c7.421,3.16,14.985,7.8,17.976,15.709a15.257,15.257,0,0,1,.146,11.111,12.225,12.225,0,0,1-8.105,7.421.4.4,0,0,0,.215.776c7.9-2.035,11.143-10.992,8.941-18.289-2.653-8.795-10.759-14.015-18.765-17.423-.472-.2-.882.493-.407.7" transform="translate(9.468 22.728)" fill="#d6b59f"/>
            <path id="Trazado_134628" data-name="Trazado 134628" d="M67.271,149.785c-3.28-2.282-6.078-5.521-6.693-9.517a10.316,10.316,0,0,1-.127-1.393,8.72,8.72,0,0,1,4.083-7.7q0,.476.014.956a8.025,8.025,0,0,0-3.27,7.2c.016.233.04.462.073.689.537,3.838,3.221,6.912,6.326,9.072.424.295.021.993-.405.7" transform="translate(15.421 33.463)" fill="#d6b59f"/>
            <path id="Trazado_134629" data-name="Trazado 134629" d="M33.192,153.8a12.545,12.545,0,0,1,.533-11.5,11.744,11.744,0,0,1,9.682-5.774,12.285,12.285,0,0,1,10.248,4.615c2.593,3.189,3.834,7.263,4.964,11.147a.4.4,0,0,0,.777-.213c-1.851-6.362-4.478-13.735-11.512-15.821a12.877,12.877,0,0,0-15.708,7.425,13.3,13.3,0,0,0,.32,10.524c.221.468.916.06.7-.407" transform="translate(7.971 34.621)" fill="#d6b59f"/>
            <path id="Trazado_134630" data-name="Trazado 134630" d="M19.382,151.36a46.376,46.376,0,0,0,11.763,3.6,77.681,77.681,0,0,0,13.481,1.081,121.991,121.991,0,0,0,13.745-.83,182.843,182.843,0,0,0,22.213-4.026l-2.037-6.769a174.7,174.7,0,0,1-21.078,3.808c-11.778,1.333-26.479,1.446-36.422-3.911-.427,2.206-.973,4.557-1.664,7.045" transform="translate(4.944 36.816)" fill="#32251d"/>
            <path id="Trazado_134631" data-name="Trazado 134631" d="M50.942,83.893C47.02,82.811,38.218,76.93,36.065,73.587l4.6-24.22,15.424,9.972.659,5.28.944,7.542.865,6.912c.051.193.092.379.126.559.806,4.5-3.576,5.411-7.743,4.261" transform="translate(9.2 12.594)" fill="#b75441"/>
            <path id="Trazado_134632" data-name="Trazado 134632" d="M42.142,56.343c6.061,13.278,12.349,18.2,14.5,18.013L55.2,62.839Z" transform="translate(10.751 14.374)" fill="#32251d"/>
            <path id="Trazado_134633" data-name="Trazado 134633" d="M37.709,48.248c.314,5.407,1.371,7.408,3.99,13.191a19.5,19.5,0,0,0,10.44,9.6c10.453,3.281,16.388.1,18.371-14.642,1.229-9.152,4.85-13.59,3.361-17.573h0c-.117-.195-.236-.385-.355-.572a20.726,20.726,0,0,0-12.672-8.862c-25.813-6.16-23.582,11.1-23.132,18.861" transform="translate(9.557 7.165)" fill="#b75441"/>
            <path id="Trazado_134634" data-name="Trazado 134634" d="M52.675,45.282A2.163,2.163,0,0,1,54.726,46.8a.548.548,0,0,0,1.033-.363A3.279,3.279,0,0,0,52.6,44.189c-.707,0-.626,1.1.075,1.093" transform="translate(13.293 11.273)" fill="#32251d"/>
            <path id="Trazado_134635" data-name="Trazado 134635" d="M59.6,48.1a2.309,2.309,0,0,1,2.568-.5c.654.255,1.132-.732.473-.988a3.464,3.464,0,0,0-3.876.776c-.51.487.329,1.192.835.709" transform="translate(14.952 11.819)" fill="#32251d"/>
            <path id="Trazado_134636" data-name="Trazado 134636" d="M76.66,36.109a32.022,32.022,0,0,1-.833,9.674c-2.267-.143-4.761.122-7.272-1.672l.07-6.409L67.276,43.7A24.693,24.693,0,0,0,60.1,41.724a66.347,66.347,0,0,0-8.175-.043l-.688-7.4s-1.058,7.15-2.35,8.478-12.362-2.2-12.761-5.723,2.274-12.1,10.22-14.218A15.487,15.487,0,0,1,59.72,25.283a10.935,10.935,0,0,1,11.57.836,13.125,13.125,0,0,1,5.371,9.991" transform="translate(9.206 5.678)" fill="#32251d"/>
            <path id="Trazado_134637" data-name="Trazado 134637" d="M49.911,35.855s1.445,7.954-2.045,11.838-11.679-4.341-11.679-4.341-2.168-8.606,1.755-11,11.969,3.508,11.969,3.508" transform="translate(9.079 8.106)" fill="#32251d"/>
            <path id="Trazado_134638" data-name="Trazado 134638" d="M56.835,46.024A7.333,7.333,0,0,0,58.9,50.285a.381.381,0,0,1-.075.592q-1.066.6-2.13,1.2a.378.378,0,0,1-.38-.653l2.129-1.195c-.025.2-.05.394-.077.592a8.185,8.185,0,0,1-2.284-4.795c-.06-.481.694-.476.754,0" transform="translate(14.306 11.65)" fill="#32251d"/>
            <path id="Trazado_134639" data-name="Trazado 134639" d="M56.4,58.722a2.982,2.982,0,0,1-2.971-1.062c-.354-.5.433-1.019.786-.525a2.087,2.087,0,0,0,2.117.644c.6-.075.669.867.068.943" transform="translate(13.608 14.525)" fill="#86231d"/>
            <path id="Trazado_134640" data-name="Trazado 134640" d="M47.979,47.855c-.154.774.926,1.643,2.412,1.939s2.816-.092,2.971-.866-.925-1.643-2.412-1.939-2.816.092-2.971.866" transform="translate(12.236 11.962)" fill="#86231d"/>
            <path id="Trazado_134641" data-name="Trazado 134641" d="M60.122,50.933c-.154.777.926,1.644,2.41,1.94a4.4,4.4,0,0,0,1.888-.005q.169-.99.314-2.052c.006-.03.008-.06.013-.085a4.544,4.544,0,0,0-1.654-.661c-1.485-.3-2.815.09-2.97.864" transform="translate(15.334 12.748)" fill="#86231d"/>
            <path id="Trazado_134642" data-name="Trazado 134642" d="M56.062,42.4a2.212,2.212,0,0,0-3.1.378c-.646,1.014-2.343.179-1.689-.85a4.054,4.054,0,0,1,5.638-1.216c1.019.641.183,2.338-.848,1.688" transform="translate(13.043 10.22)" fill="#32251d"/>
            <path id="Trazado_134643" data-name="Trazado 134643" d="M63.909,45.737c-.537-1.022-1.177-2.469-2.532-2.409a.946.946,0,0,1-.137-1.885c2.158-.1,3.334,1.521,4.24,3.244.561,1.067-1.005,2.126-1.571,1.049" transform="translate(15.407 10.571)" fill="#32251d"/>
            <path id="Trazado_134644" data-name="Trazado 134644" d="M61.66,54.083S58.005,54,52.061,51.1c0,0-.651,5.934,4.089,6.85,4.021.778,5.51-3.867,5.51-3.867" transform="translate(13.273 13.036)" fill="#fff"/>
            <path id="Trazado_134645" data-name="Trazado 134645" d="M47.217,51.52a6.6,6.6,0,0,0,.324-5.757c-.975-2.43-2.909-6.254-5.47-6.411-3.763-.231-4.855,2.937-5.164,6.324s.994,8.169,5.7,8.392a4.785,4.785,0,0,0,4.6-2.548" transform="translate(9.404 10.036)" fill="#b75441"/>
            <path id="Trazado_134646" data-name="Trazado 134646" d="M43.226,51.291a3.822,3.822,0,0,1-3.554-.648c-.469-.374-1.14.287-.665.666a4.8,4.8,0,0,0,4.469.889c.579-.176.331-1.086-.25-.907" transform="translate(9.909 12.891)" fill="#86231d"/>
            <path id="Trazado_134647" data-name="Trazado 134647" d="M36.73,50.693a2.811,2.811,0,1,0,2.81-2.81,2.81,2.81,0,0,0-2.81,2.81" transform="translate(9.37 12.215)" fill="#fff"/>
            <path id="Trazado_134648" data-name="Trazado 134648" d="M41.72,49.514A8.423,8.423,0,0,0,42.4,45.4c-.187-1.259-1.1-3.229-2.695-3.079-.533.05-.705-.773-.167-.825a3.415,3.415,0,0,1,3.29,2.347c.842,1.937.385,4.043-.313,5.944a.421.421,0,0,1-.793-.279" transform="translate(10.002 10.584)" fill="#32251d"/>
            <path id="Trazado_134649" data-name="Trazado 134649" d="M65.84,240.461c6.726.761,13.469,1.305,20.22,1.716q7.333.03,14.663-.023c-3.6-39.059-10.14-74.621-10.14-74.621-22.233,7.217-42.68,13.3-50.935,32.786,0,0,3.472,16.353,7.426,36.414q9.295,2.225,18.765,3.728" transform="translate(10.115 42.739)" fill="#ffa106"/>
            <path id="Trazado_134650" data-name="Trazado 134650" d="M54.872,229.769c-2.459-14.411-4.582-25.545-4.633-25.8A.629.629,0,0,0,49,204.2c.049.254,2.126,11.145,4.55,25.313.438.088.879.168,1.318.254" transform="translate(12.498 51.903)" fill="#bd6806"/>
            <path id="Trazado_134651" data-name="Trazado 134651" d="M29.653,227.37a207.175,207.175,0,0,0,29.629,8.619c1.652-21.387,2.081-39.877,2.168-50.724.053-6.494-.015-10.248-.015-10.248l-46.6,3.974s-.385,5.465-1.032,14.06c-.03.394-.06.8-.09,1.2-.488,6.474-1.115,14.555-1.83,23.337a158.319,158.319,0,0,0,17.775,9.779" transform="translate(3.03 44.648)" fill="#ffa106"/>
            <path id="Trazado_134652" data-name="Trazado 134652" d="M19.462,218.108c1.522-13.378,2.437-22.981,2.463-23.246a.629.629,0,1,0-1.253-.118c-.024.26-.916,9.618-2.4,22.711.4.22.793.436,1.191.653" transform="translate(4.661 49.535)" fill="#bd6806"/>
            <path id="Trazado_134653" data-name="Trazado 134653" d="M78.027,139.048s-25.327,15.819-55.419,6.43c0,0-9.817,26.289-8.348,42.689s73.257,6.22,82.269-7.981c5.3-8.346-18.5-41.137-18.5-41.137" transform="translate(3.6 35.472)" fill="#ffa106"/>
            <path id="Trazado_134654" data-name="Trazado 134654" d="M50.579,153.667a34.181,34.181,0,0,1-23.273,31.371,34.207,34.207,0,0,1-12,1.689c-.717-.026-.72-1.143,0-1.117a33.224,33.224,0,0,0,23.941-8.923,33.229,33.229,0,0,0,10.214-23.021.559.559,0,0,1,1.117,0" transform="translate(3.767 39.064)" fill="#bd6806"/>
            <path id="Trazado_134655" data-name="Trazado 134655" d="M59.016,149.2A31.285,31.285,0,0,0,85.73,178.981c.708.109.408,1.186-.3,1.076A32.385,32.385,0,0,1,57.9,149.2c-.031-.718,1.084-.717,1.116,0" transform="translate(14.771 37.926)" fill="#bd6806"/>
            <path id="Trazado_134656" data-name="Trazado 134656" d="M56.2,171.862c.063,5.1.077,10.2-.09,15.292-.1,3.049.441,11.179-4.69,10.215-.705-.133-.407-1.209.3-1.077,2.928.551,3.01-3.764,3.119-5.628.124-2.092.187-4.19.228-6.286.083-4.172.07-8.345.02-12.517a.558.558,0,0,1,1.116,0" transform="translate(13.015 43.706)" fill="#bd6806"/>
            <path id="Trazado_134657" data-name="Trazado 134657" d="M79.272,144.006a71,71,0,0,1-59.64,8.8c-.545-.167-.874.66-.325.828a72.072,72.072,0,0,0,48.155-2.319A69.974,69.974,0,0,0,79.834,144.7c.476-.319-.089-1.008-.562-.69" transform="translate(4.853 36.716)" fill="#bd6806"/>
            <path id="Trazado_134658" data-name="Trazado 134658" d="M61.272,141.859a15.542,15.542,0,0,1,2.475,5.708c.119.559,1,.425.88-.137a16.724,16.724,0,0,0-2.665-6.134c-.328-.469-1.017.094-.69.562" transform="translate(15.609 36.001)" fill="#bd6806"/>
            <path id="Trazado_134659" data-name="Trazado 134659" d="M27.616,146.245a26.08,26.08,0,0,0-1,8.146c.02.571.9.429.88-.137a24.674,24.674,0,0,1,.946-7.683c.157-.547-.67-.877-.828-.326" transform="translate(6.786 37.236)" fill="#bd6806"/>
            <path id="Trazado_134660" data-name="Trazado 134660" d="M40.519,147.051a19.835,19.835,0,0,0,.054,7.519c.11.56.99.427.88-.137a19.226,19.226,0,0,1-.049-7.281c.1-.565-.782-.663-.885-.1" transform="translate(10.252 37.418)" fill="#bd6806"/>
            <path id="Trazado_134661" data-name="Trazado 134661" d="M47.815,149.087a2.2,2.2,0,1,0,1.836-2.514,2.2,2.2,0,0,0-1.836,2.514" transform="translate(12.191 37.385)" fill="#bd6806"/>
            <path id="Trazado_134662" data-name="Trazado 134662" d="M50.275,236.816c.034-.358.072-.717.1-1.074,1.874-20.943,1.78-41.992,2.131-63a.558.558,0,0,0-1.116,0c-.1,5.8-.162,11.6-.242,17.4-.216,15.479-.542,31.006-1.971,46.43l1.093.236" transform="translate(12.547 43.931)" fill="#bd6806"/>
            <path id="Trazado_134663" data-name="Trazado 134663" d="M19.417,145.6a43.283,43.283,0,0,0,5.95,2.474c9.918,3.288,20.872,3.681,31.3,1.925,1.025-9.994,1.864-22.561,1.191-33.348a248.375,248.375,0,0,0-5.5-38.955s-8.515-5-8.094-14.4c0,0-17.622,10.017-25.009,13.816C10.57,81.584,6.989,84.692,9.969,93.8s9.221,33.317,9.884,43.1a47.316,47.316,0,0,1-.436,8.707" transform="translate(2.28 16.149)" fill="#32251d"/>
            <path id="Trazado_134664" data-name="Trazado 134664" d="M15.52,77.183a17.439,17.439,0,0,1,11.17,5.423c2.794,3.175,3.873,6.95,4.305,11.075.053.495.835.5.782,0-.456-4.343-1.593-8.286-4.533-11.627A18.262,18.262,0,0,0,15.52,76.4c-.5-.055-.495.727,0,.782" transform="translate(3.864 19.49)" fill="#817868"/>
            <path id="Trazado_134665" data-name="Trazado 134665" d="M33.977,64.98a17.341,17.341,0,0,0,8.247,18.406.391.391,0,0,0,.394-.675A16.538,16.538,0,0,1,34.73,65.187c.1-.491-.655-.7-.753-.207" transform="translate(8.582 16.505)" fill="#817868"/>
            <path id="Trazado_134666" data-name="Trazado 134666" d="M40.336,79.5a440.751,440.751,0,0,1,4.4,62.629.391.391,0,0,0,.782,0,442.189,442.189,0,0,0-4.429-62.836c-.073-.5-.826-.286-.753.207" transform="translate(10.289 20.156)" fill="#817868"/>
            <path id="Trazado_134667" data-name="Trazado 134667" d="M18.494,127.293A75.946,75.946,0,0,0,50.768,130.4c.495-.055.5-.838,0-.782a75.381,75.381,0,0,1-32.067-3.08c-.478-.159-.683.595-.207.753" transform="translate(4.649 32.276)" fill="#817868"/>
            <path id="Trazado_134668" data-name="Trazado 134668" d="M13.293,79.434S5.366,93.619,2.721,110c-.333,2.063-.737,4.247-1.072,6.519-1.733,11.7-2.7,25.6.2,34.994,6.309,20.431,64.8,33.275,64.8,33.275L70.5,174.633S33.612,154.85,22.8,142.565c-2.269-2.579,1.741-14.607,5.115-23.371.053-.132.1-.262.152-.392,2-5.18,5.327-15.188,5.327-15.188Z" transform="translate(0 20.264)" fill="#32251d"/>
            <path id="Trazado_134669" data-name="Trazado 134669" d="M47.491,158.5a1.074,1.074,0,1,1-1.073-1.073,1.073,1.073,0,0,1,1.073,1.073" transform="translate(11.568 40.161)" fill="#817868"/>
            <path id="Trazado_134670" data-name="Trazado 134670" d="M54.851,156.626a36.859,36.859,0,0,0-9.551-4.51.391.391,0,0,0-.208.753,36.13,36.13,0,0,1,9.366,4.432c.425.269.818-.407.394-.675" transform="translate(11.433 38.802)" fill="#817868"/>
            <path id="Trazado_134671" data-name="Trazado 134671" d="M47.784,149.964A16.718,16.718,0,0,0,42.227,163.2c.024.5.806.5.782,0a15.971,15.971,0,0,1,5.328-12.682c.377-.335-.178-.886-.552-.552" transform="translate(10.768 38.231)" fill="#817868"/>
            <path id="Trazado_134672" data-name="Trazado 134672" d="M1.488,133.952a14.92,14.92,0,0,1,9.148,14.692c-.029.5.753.5.781,0a15.664,15.664,0,0,0-9.535-15.368c-.458-.193-.856.479-.394.675" transform="translate(0.327 33.991)" fill="#817868"/>
            <path id="Trazado_134673" data-name="Trazado 134673" d="M29.062,102.488a108.384,108.384,0,0,0-11.128,33.046c-.08.492.673.7.753.208a107.73,107.73,0,0,1,11.05-32.86c.235-.444-.441-.84-.675-.394" transform="translate(4.574 26.096)" fill="#817868"/>
            <path id="Trazado_134674" data-name="Trazado 134674" d="M29.152,106.012a40.829,40.829,0,0,0-4.314,1.461c-.461.186-.259.941.208.753a40.712,40.712,0,0,1,4.313-1.461.391.391,0,0,0-.207-.753" transform="translate(6.27 27.04)" fill="#817868"/>
            <path id="Trazado_134675" data-name="Trazado 134675" d="M32.835,103.37,11.4,80.39a111.727,111.727,0,0,0-9.228,29.364" transform="translate(0.553 20.508)" fill="#32251d"/>
            <path id="Trazado_134676" data-name="Trazado 134676" d="M51,156.048a6.835,6.835,0,0,0,1.286,9.382,16.745,16.745,0,0,1,3.834,4.2c2,3.559,3.383,8.321,4.9,9.833,2.244,2.23,2.36-1.18,2.316-1.605a47.4,47.4,0,0,0-1.319-6.4s3.452,6.021,3.768,8.737,2.4,4.034,3.549,1.33-1.269-10.129-2.5-12c0,0,3.088,3.164,3.637,6.828s1.238,4.9,2.169,6.078,3.1-.923,2.2-6.018a16.362,16.362,0,0,0-4.069-8.813,27.264,27.264,0,0,1,4.233,3.315c2.468,2.282,2.765,6.567,4.689,7.148,1.968.592,1.408-4.329-.114-6.9s-2.411-4.579-5.462-6.884a48.242,48.242,0,0,0-8.207-5.347c-2.158-.941-9.393-5.3-12.7-4.518A4.189,4.189,0,0,0,51,156.048" transform="translate(12.672 39.366)" fill="#b75441"/>
            <path id="Trazado_134677" data-name="Trazado 134677" d="M57.9,155.8s7.175.481,9.192,1.834,5.779,2.321,4.985,3.75-5.389.112-5.389.112Z" transform="translate(14.77 39.744)" fill="#b75441"/>
            <path id="Trazado_134678" data-name="Trazado 134678" d="M18.312,129.336a12.012,12.012,0,0,0-5.062-.424.384.384,0,0,1-.075-.764,12.9,12.9,0,0,1,5.45.487c.472.146.154.845-.313.7" transform="translate(3.276 32.666)" fill="#817868"/>
            <path id="Trazado_134679" data-name="Trazado 134679" d="M186.055,142.383s5.077.265,6.564-2.08,1.757-8.382-5.859-8.562-.705,10.642-.705,10.642" transform="translate(46.731 33.607)" fill="#32251d"/>
            <path id="Trazado_134680" data-name="Trazado 134680" d="M153.186,64.572a39.566,39.566,0,0,1-15.142,3.492c-8.473.181-6.85,5.142-6.85,5.142s10.006,45.419,10.933,57.409-4.264,20.842-3.723,21.147,62.011-1.859,66.337,1.566.049,7.162-4.867,7.522c0,0,7.931,1.118,8.653-4.1s-5.387-9.12-9.177-18.2-13.9-53.9-13.9-53.9-5.589-24.516-10.636-25.6-14.781,7.257-21.632,5.521" transform="translate(33.437 15.039)" fill="#cb4a00"/>
            <path id="Trazado_134681" data-name="Trazado 134681" d="M141.519,69.646a5.452,5.452,0,0,0,6.412,6.381c2.489-.434,4.907-1.858,7.114-3.026a76.117,76.117,0,0,0,7.286-4.417c.425-.291.023-.989-.407-.7a74.893,74.893,0,0,1-10.776,6.15c-1.958.907-4.427,1.955-6.506.8A4.735,4.735,0,0,1,142.3,69.86c.1-.507-.679-.724-.777-.215" transform="translate(36.076 17.301)" fill="#861900"/>
            <path id="Trazado_134682" data-name="Trazado 134682" d="M136.947,129.208c12.227-7.679,27.228-.024,40.443-2.154.511-.082.294-.857-.215-.776-13.346,2.15-28.252-5.543-40.635,2.234-.438.275-.034.971.407.7" transform="translate(34.784 31.875)" fill="#861900"/>
            <path id="Trazado_134683" data-name="Trazado 134683" d="M170.974,83.76c6.942,15.951,4.639,34.254,11.887,50.121a36.313,36.313,0,0,0,7.226,10.618.4.4,0,0,0,.57-.569c-12.144-12.2-11.838-30.706-14.834-46.5a65.831,65.831,0,0,0-4.153-14.076c-.206-.473-.9-.065-.7.405" transform="translate(43.607 21.211)" fill="#861900"/>
            <path id="Trazado_134684" data-name="Trazado 134684" d="M143.07,28.208s-4.105,4.26-4.762,7.826a14.532,14.532,0,0,0,.675,7s8.2-9.644,4.087-14.827" transform="translate(35.237 7.196)" fill="#32251d"/>
            <path id="Trazado_134685" data-name="Trazado 134685" d="M142.042,33.421a9.909,9.909,0,0,1-3.9-8.792c.339-6.052,12.038.179,12.038.179s-1.617-5.19,4.576-5.023,17.51,6.627,18.834,9.819c0,0,3.532-.035,4.912,1.089s-2.929,2.356-2.929,2.356,3.362.57,3.644,2.46-3.2.324-3.2.324a11.968,11.968,0,0,1,1.219,8.945c-1.189,5.482-4.9,11.314-4.9,11.314s2.333,4.04-2.1,5.638-7.8-2.065-7.8-2.065,3.548-21.21-1.127-25.176-19.27-1.068-19.27-1.068" transform="translate(35.237 5.047)" fill="#32251d"/>
            <path id="Trazado_134686" data-name="Trazado 134686" d="M164.178,66.7c-22.454,18.387-20.126,4.326-20.126,4.326a32.23,32.23,0,0,0,1.093-7.912c.134-3.263.035-6.505-.06-8.479-.056-1.184-.11-1.912-.11-1.912l16.849-5.392.633,5.214.068.543Z" transform="translate(36.731 12.075)" fill="#ff8763"/>
            <path id="Trazado_134687" data-name="Trazado 134687" d="M159.718,50.432a7.54,7.54,0,0,1,.856,1.578c.5,1.849-6.924,8.281-12.944,10a11.981,11.981,0,0,1-2.709.471c.134-3.265.035-6.506-.06-8.479l14.394-4.2Z" transform="translate(36.955 12.706)" fill="#32251d"/>
            <path id="Trazado_134688" data-name="Trazado 134688" d="M168.463,55.262c-2.867,3.887-11.468,8.584-17.579,9.226s-10.176.571-12.818-6.332a18.184,18.184,0,0,1-.611-8.807c.187-.9.392-1.826.612-2.75.835-3.522,1.858-7.1,2.755-10.04,4.031-13.19,20.66-17.737,30.564-8.136a17.071,17.071,0,0,1,2.311,2.754c6.154,9.2-2.367,20.2-5.234,24.084" transform="translate(34.993 5.943)" fill="#ff8763"/>
            <path id="Trazado_134689" data-name="Trazado 134689" d="M144.311,40.412l-1.268,1.3a5.827,5.827,0,0,0-1.068,1.152c-.482.924,1.133,1.707,1.694,2.137.4.306.788-.373.394-.675-.318-.243-.676-.471-.969-.744a.926.926,0,0,1-.356-.441l.207-.212a2.638,2.638,0,0,1,.43-.439l1.487-1.522c.353-.359-.2-.912-.552-.552" transform="translate(36.196 10.279)" fill="#32251d"/>
            <path id="Trazado_134690" data-name="Trazado 134690" d="M148.934,41.692a.979.979,0,1,1-.477-1.492,1.132,1.132,0,0,1,.477,1.492" transform="translate(37.518 10.245)" fill="#32251d"/>
            <path id="Trazado_134691" data-name="Trazado 134691" d="M142.491,39.778a.98.98,0,1,1-.478-1.492,1.132,1.132,0,0,1,.478,1.492" transform="translate(35.874 9.757)" fill="#32251d"/>
            <path id="Trazado_134692" data-name="Trazado 134692" d="M139.818,45.355s2.978,1.655,9.125,2.131c0,0-2.277,5.078-6.522,3.578-3.6-1.273-2.6-5.709-2.6-5.709" transform="translate(35.636 11.57)" fill="#fff"/>
            <path id="Trazado_134693" data-name="Trazado 134693" d="M140.411,51.608a2.932,2.932,0,0,0,3.06.51c.541-.257.115-1.083-.424-.827a2.049,2.049,0,0,1-2.126-.459c-.483-.354-.99.424-.51.777" transform="translate(35.771 12.944)" fill="#ca582f"/>
            <path id="Trazado_134694" data-name="Trazado 134694" d="M152.915,46.082c-.238.739-1.58.969-3,.512s-2.375-1.426-2.137-2.165,1.581-.969,3-.512,2.375,1.426,2.137,2.165" transform="translate(37.69 11.144)" fill="#ca582f"/>
            <path id="Trazado_134695" data-name="Trazado 134695" d="M140.568,43.249c-.236.739-1.578.966-3,.512.187-.906.392-1.826.612-2.751.084.023.166.046.249.073,1.421.458,2.376,1.427,2.137,2.166" transform="translate(35.095 10.462)" fill="#ca582f"/>
            <path id="Trazado_134696" data-name="Trazado 134696" d="M149.13,38.356a2.175,2.175,0,0,1,2.483,1.807c.069,1.18,1.927,1.274,1.856.078a3.986,3.986,0,0,0-4.26-3.741c-1.182.064-1.276,1.922-.079,1.856" transform="translate(37.826 9.31)" fill="#32251d"/>
            <path id="Trazado_134697" data-name="Trazado 134697" d="M140.851,36.831c.94-.444,2.185-1.141,3.129-.364.846.7,1.965-.586,1.12-1.284-1.5-1.236-3.226-.71-4.812.041-.981.464-.428,2.076.564,1.607" transform="translate(35.657 8.787)" fill="#32251d"/>
            <path id="Trazado_134698" data-name="Trazado 134698" d="M141.753,32.2a6.18,6.18,0,0,0,7.573,2.87c5.323-1.657,5.712-.687,9.216.861s-2.09.925,1.6,4.672-1.145,1.361-2.131,5.177,1.372,3.135,4.682,3.5,3.893,4.415,1.9,8.049-.846,1.491-.846,1.491a20.977,20.977,0,0,0,11.339-14.056c1.432-6.075,1.261-13.422-5.27-18.31-12.934-9.674-26.6.28-28.058,5.746" transform="translate(36.162 5.714)" fill="#32251d"/>
            <path id="Trazado_134699" data-name="Trazado 134699" d="M156.389,47.335a6.268,6.268,0,0,1,1.738-5.186c1.713-1.8,4.761-4.486,7.073-3.725,3.4,1.12,3.243,4.294,2.326,7.388s-3.748,6.847-7.975,5.387a4.537,4.537,0,0,1-3.162-3.863" transform="translate(39.881 9.768)" fill="#ff8763"/>
            <path id="Trazado_134700" data-name="Trazado 134700" d="M160.286,47.026a7.981,7.981,0,0,1,.847-3.858c.607-1.044,2.106-2.459,3.455-1.765.453.232.894-.434.437-.668a3.237,3.237,0,0,0-3.721.911,7.548,7.548,0,0,0-1.815,5.347.4.4,0,0,0,.8.033" transform="translate(40.687 10.32)" fill="#32251d"/>
            <path id="Trazado_134701" data-name="Trazado 134701" d="M176.177,66.7s2.23,10.883,5.746,11.154,4.259-7.165,3.65-11.154Z" transform="translate(44.944 17.015)" fill="#32251d"/>
            <path id="Trazado_134702" data-name="Trazado 134702" d="M170.9,68.919s15.221-8.109,20.854-14.646L207.56,16.087l6.49.9s-3.244,40.071-14.242,52.9c-7.764,9.059-24.393,15.247-24.393,15.247Z" transform="translate(43.597 4.104)" fill="#ff8763"/>
            <path id="Trazado_134703" data-name="Trazado 134703" d="M187.552,47.316a24.074,24.074,0,0,1,4.08,3.137c.281.269.709-.158.428-.427a24.919,24.919,0,0,0-4.2-3.231c-.333-.2-.636.319-.305.521" transform="translate(47.809 11.926)" fill="#ca582f"/>
            <path id="Trazado_134704" data-name="Trazado 134704" d="M217.443,14.989c.223,2.629-2.057,3.065-5.3,5.633-2.129,1.686-4.961,5.731-7.622,4.244a22.315,22.315,0,0,1-4.356-3.162,6.44,6.44,0,0,1-1.426-5.712s1.013-4.866,2.217-5.573,2.911.684,2.911.684c1.16-.473,6.447-10.632,8.112-11.076,0,0,1.9-.42,1.179,2.092a45.9,45.9,0,0,1-3.549,7.3s5.856-7.647,7.65-7.59c.513.016.869.52.707,1.28-.233,1.1-1.378,2.19-2.055,3.086a54.041,54.041,0,0,0-3.28,4.8,3.556,3.556,0,0,1,2.593.2c1.074.674.146,2.142.146,2.142s1.938.034,2.076,1.655" transform="translate(50.65 0)" fill="#ff8763"/>
            <path id="Trazado_134705" data-name="Trazado 134705" d="M199.705,17.591a8.334,8.334,0,0,0,4.271,3.311c.368.128.526-.456.161-.582a7.657,7.657,0,0,1-3.911-3.034c-.213-.323-.737-.02-.521.3" transform="translate(50.933 4.375)" fill="#ca582f"/>
            <path id="Trazado_134706" data-name="Trazado 134706" d="M204.553,14.635a4.265,4.265,0,0,0,.536.093,1.613,1.613,0,0,0,1.22-.289,1.229,1.229,0,0,0,.42-.89,2.767,2.767,0,0,0-.236-1.269,3.888,3.888,0,0,0-.259-.531,9.788,9.788,0,0,0-2.3-2.552.253.253,0,1,0-.3.4,9.407,9.407,0,0,1,2.164,2.4,3.235,3.235,0,0,1,.23.467,2.291,2.291,0,0,1,.2,1.047.75.75,0,0,1-.241.538,1.129,1.129,0,0,1-.846.173,3.575,3.575,0,0,1-.467-.08,9.173,9.173,0,0,1-4.319-3.159.252.252,0,1,0-.4.314,9.551,9.551,0,0,0,4.594,3.336h0" transform="translate(50.997 2.334)" fill="#ca582f"/>
            <path id="Trazado_134707" data-name="Trazado 134707" d="M209.694,17.266a4.139,4.139,0,0,0,2.4-.53.253.253,0,1,0-.238-.446c-.483.26-1.858.82-2.4.3-.767-.73.87-2.852,1.5-3.538a.252.252,0,0,0-.329-.379c-.618.428-2.382,1.4-3.128.761a.5.5,0,0,1-.18-.41c0-1.083,2.07-3.1,2.869-3.792a.253.253,0,0,0-.33-.383c-.313.269-3.047,2.666-3.045,4.174a1.017,1.017,0,0,0,.356.794c.678.577,1.756.289,2.583-.083-.709.989-1.477,2.434-.65,3.222a1.24,1.24,0,0,0,.58.3" transform="translate(52.763 2.243)" fill="#ca582f"/>
            <path id="Trazado_134708" data-name="Trazado 134708" d="M208.31,9.141a.253.253,0,0,0,.284-.359,4.343,4.343,0,0,0-2.36-1.9.252.252,0,1,0-.174.473,3.911,3.911,0,0,1,2.082,1.653.253.253,0,0,0,.168.132" transform="translate(52.525 1.752)" fill="#ca582f"/>
            <path id="Trazado_134709" data-name="Trazado 134709" d="M207.34,9.139a11.867,11.867,0,0,0-2.568,2.75,3.447,3.447,0,0,1,.245.5,12.033,12.033,0,0,1,2.617-2.833.257.257,0,1,0-.294-.422" transform="translate(52.239 2.32)" fill="#ca582f"/>
            <path id="Trazado_134710" data-name="Trazado 134710" d="M202.8,18.532a.248.248,0,0,0,.192.242l.059.014a.258.258,0,0,0,.246-.254,12.844,12.844,0,0,1,1.079-5.123,3.931,3.931,0,0,1-.5-.087,13.425,13.425,0,0,0-1.078,5.207" transform="translate(51.735 3.399)" fill="#ca582f"/>
            <path id="Trazado_134711" data-name="Trazado 134711" d="M161.428,61.147l17.5-6.1s1.313,22.121,6.18,24.825,4.462-9.309,4.462-9.309,1.638,7.544-2.628,10.793-9.4,7.44-9.4,7.44-19.516,5.672-16.112-27.651" transform="translate(41.08 14.044)" fill="#cb4a00"/>
            <path id="Trazado_134712" data-name="Trazado 134712" d="M177.046,81.324a53.245,53.245,0,0,1-12.443,5.7c-.5.154-.285.938.215.782a54.1,54.1,0,0,0,12.638-5.784c.442-.276.035-.978-.409-.7" transform="translate(41.919 20.73)" fill="#861900"/>
            <path id="Trazado_134713" data-name="Trazado 134713" d="M78.066,203.568s-7.561-4.11-10.727-8.463c-3.244-4.462-1.171-8.079-1.171-8.079s10.815-.212,15.143,4.474,5.768,8.747,4.069,10.731-4.083,2.578-7.314,1.337" transform="translate(16.713 47.711)" fill="#32251d"/>
            <path id="Trazado_134714" data-name="Trazado 134714" d="M74.35,185.036l-9.6,14.375s1.663,6.547,7.036,7.826L86.76,192.91S81,183.688,74.35,185.036" transform="translate(16.519 47.17)" fill="#ff8763"/>
            <path id="Trazado_134715" data-name="Trazado 134715" d="M38.262,189.46a8.1,8.1,0,0,1,7.561-1.806c4.515,1.241,9.254,7.223,13.2,8.464s7.562,3.724,9.48,1.467,2.709-4.063,4.741-3.047,0,5.1,2.37,7.232,5.981.781,6.771,3.6-4.515,5.191-5.643,8.239-6.094,2.483-6.094,2.483Z" transform="translate(9.761 47.796)" fill="#cb4a00"/>
            <path id="Trazado_134716" data-name="Trazado 134716" d="M38.465,189.122s-5.153,4.041,7.937,15.213S63,219.049,68.672,219.1c4.741.046,7.644-2.465,6.47-4.287s-10.608-7.009-15.573-9.861-6.545-5-9.141-8.722-9.028-9.141-11.962-7.11" transform="translate(9.558 48.134)" fill="#fff"/>
            <path id="Trazado_134717" data-name="Trazado 134717" d="M53.638,201.78s4.289-2.106,8.351,0,2.274,4.562,6.619,6.319,2.785,4.014,2.582,4.594S53.638,201.78,53.638,201.78" transform="translate(13.683 51.237)" fill="#fff"/>
            <path id="Trazado_134718" data-name="Trazado 134718" d="M111.766,136.87,66.035,199.821s13.467.255,17.756,9.64c4.146,9.074-5.859,6.9-5.859,6.9s1.893,1.491,6.49.479,21.942-32.109,21.942-32.109Z" transform="translate(16.846 34.917)" fill="#606c38"/>
            <path id="Trazado_134719" data-name="Trazado 134719" d="M102.776,166.6q-9.931,14.4-20.54,28.323c-.3.4.373.789.674.394q10.605-13.915,20.541-28.323c.286-.414-.392-.806-.675-.394" transform="translate(20.959 42.456)" fill="#283618"/>
            <path id="Trazado_134720" data-name="Trazado 134720" d="M69.083,183.985c4.837-.63,9.328,1.666,12.946,4.7a15.75,15.75,0,0,1,5.984,10.656c.045.5.827.5.782,0a16.514,16.514,0,0,0-6.214-11.208c-3.763-3.155-8.462-5.584-13.5-4.929-.492.064-.5.847,0,.782" transform="translate(17.529 46.709)" fill="#283618"/>
            <path id="Trazado_134721" data-name="Trazado 134721" d="M107.615,31.483s4.5-3.11,12.188-2.3a16.1,16.1,0,0,1,14.39,14.06c.73,7.165-.486,15.427,3.434,22.247s20.822,21.288,14.466,32.78-28.037-8.924-28.037-8.924Z" transform="translate(27.453 7.411)" fill="#32251d"/>
            <path id="Trazado_134722" data-name="Trazado 134722" d="M132.061,226.7c.516-.083,1.03-.177,1.545-.262-.392-2.227-.643-3.489-.643-3.489L90.478,219.3s.243,3.6.734,9.614c13.642-.176,27.267-.73,40.849-2.213" transform="translate(23.082 55.944)" fill="#ff8763"/>
            <path id="Trazado_134723" data-name="Trazado 134723" d="M124.847,229a183.843,183.843,0,0,0,34.3-8.654c1.78-.857,3.527-1.771,5.258-2.712-.033-.3-.065-.616-.1-.9-2.461-19.873-45.549,12.574-45.549,12.574s.008.107.02.292c2.024-.182,4.046-.377,6.068-.6" transform="translate(30.296 53.645)" fill="#ff8763"/>
            <path id="Trazado_134724" data-name="Trazado 134724" d="M133.228,245.658a183.843,183.843,0,0,0,34.3-8.654,116.981,116.981,0,0,0,10.549-5.762c-5.01-32.411-11.115-68.425-27.186-86.267l-46.159,2.434s-3.945,11.714-8.247,29.6c-.063.262-.124.525-.19.787-2.476,10.386-5.057,22.783-7.051,36.141-.044.279-.084.56-.126.838-.565,3.839-1.081,7.758-1.532,11.729-.038.333-.075.665-.11,1q-.459,4.114-.815,8.287c-.024.295-.049.587-.073.885-.305,3.731-.53,7.49-.687,11.256a456.634,456.634,0,0,0,47.323-2.272" transform="translate(21.915 36.984)" fill="#32251d"/>
            <path id="Trazado_134725" data-name="Trazado 134725" d="M104.59,196.761c-3.334,6.17-9.447,10-16.121,11.5.04-.279.08-.56.124-.838a25.872,25.872,0,0,0,6.741-2.577c7.639-4.251,12.572-13.133,10.621-21.915a16.485,16.485,0,0,0-10.311-11.649q.1-.393.19-.787a17.184,17.184,0,0,1,4.665,2.544c7.376,5.638,8.344,15.842,4.09,23.719" transform="translate(22.569 43.495)" fill="#817868"/>
            <path id="Trazado_134726" data-name="Trazado 134726" d="M128.859,156.042a25.846,25.846,0,0,0,23.152,26.969c.516.059.513-.753,0-.812a25.359,25.359,0,0,1-22.341-26.156c.021-.522-.789-.521-.811,0" transform="translate(32.867 39.708)" fill="#817868"/>
            <path id="Trazado_134727" data-name="Trazado 134727" d="M113.111,210.541c6.165,2.347,10.714,6.652,15.521,10.988,3.331,3,6.933,5.747,11.2,6.947.68-.131,1.362-.256,2.041-.393a15.51,15.51,0,0,1-3.657-.926,28.356,28.356,0,0,1-7.955-5.265c-4.959-4.326-9.412-8.941-15.572-11.583a34.158,34.158,0,0,0-19.276-2.293,33.62,33.62,0,0,0-8.142,2.533c-.038.333-.075.665-.11,1a33.352,33.352,0,0,1,25.952-1.005" transform="translate(22.235 52.94)" fill="#817868"/>
            <path id="Trazado_134728" data-name="Trazado 134728" d="M101.87,219.04a22.134,22.134,0,0,1,10.619,9.969c.3-.015.592-.034.89-.049a23.429,23.429,0,0,0-6.417-7.817,22.507,22.507,0,0,0-18.823-4.036c-.543.122-1.084.265-1.614.429-.024.295-.049.587-.073.885a22.026,22.026,0,0,1,15.418.619" transform="translate(22.055 55.238)" fill="#817868"/>
            <path id="Trazado_134729" data-name="Trazado 134729" d="M153.534,180.075c-10.985.847-23.183,5.666-26.6,17.209-3.32,11.211,5.589,22.557,15.55,26.7a24.31,24.31,0,0,0,19.09-.128c.476-.211.064-.91-.409-.7-10.427,4.6-22.419.444-29.268-8.265-3.479-4.424-5.684-10.151-4.569-15.814a20.634,20.634,0,0,1,8.305-12.4c5.19-3.755,11.607-5.308,17.9-5.794.517-.039.521-.851,0-.811" transform="translate(32.201 45.938)" fill="#817868"/>
            <path id="Trazado_134730" data-name="Trazado 134730" d="M152.217,188.492c-6.785-.853-11.886,5.652-10.965,12.055,1.077,7.484,8.169,11.792,15.275,12.024.522.016.522-.794,0-.811-6.48-.212-12.95-3.921-14.353-10.635-1.286-6.151,3.431-12.654,10.043-11.823.517.065.512-.747,0-.811" transform="translate(36.007 48.066)" fill="#817868"/>
            <path id="Trazado_134731" data-name="Trazado 134731" d="M100.856,154.754c4.788,2.11,3.942,8.532,4.334,12.754a14.3,14.3,0,0,0,5.166,9.89c2.813,2.293,6.746,3.631,10.341,2.616,3.794-1.072,5.623-4.708,6.276-8.334.881-4.9.2-12.161,5.794-14.493.474-.2.266-.983-.216-.782-8.714,3.634-3.33,15.635-9.246,21.234-3.522,3.332-9.169,1.849-12.525-.94a13.6,13.6,0,0,1-3.606-4.665,18.246,18.246,0,0,1-1.313-7.349c-.122-3.832-.556-8.852-4.595-10.632-.473-.208-.886.491-.409.7" transform="translate(25.675 39.29)" fill="#817868"/>
            <path id="Trazado_134732" data-name="Trazado 134732" d="M116.877,184.942a10.036,10.036,0,0,0-9.57,6.094,9.808,9.808,0,0,0,2.9,10.945,9.542,9.542,0,0,0,10.948.753,9.343,9.343,0,0,0,4.469-9.907,9.667,9.667,0,0,0-10.638-7.847c-.513.053-.52.864,0,.811a8.856,8.856,0,0,1,9.489,5.84,8.671,8.671,0,0,1-2.47,9.53,8.983,8.983,0,0,1-10.092,1.047,8.809,8.809,0,0,1,4.964-16.454c.522.024.521-.787,0-.811" transform="translate(27.209 47.176)" fill="#817868"/>
            <path id="Trazado_134733" data-name="Trazado 134733" d="M99.143,154.4a66.2,66.2,0,0,0,49.6-1.511c.459-.2.063-.876-.394-.675a65.42,65.42,0,0,1-49,1.433c-.471-.179-.674.576-.207.753" transform="translate(25.225 38.821)" fill="#817868"/>
            <path id="Trazado_134734" data-name="Trazado 134734" d="M89.246,227.592c.52-.005,1.038-.008,1.558-.014a30.933,30.933,0,0,1-4.441-2.88.391.391,0,1,0-.507.595,27.316,27.316,0,0,0,3.39,2.3" transform="translate(21.868 57.298)" fill="#817868"/>
            <path id="Trazado_134735" data-name="Trazado 134735" d="M149.438,180.712a262.684,262.684,0,0,1,8.51,41.67q.772,6.105,1.285,12.24c.262-.139.52-.287.781-.428a294.349,294.349,0,0,0-4.23-30.583c-2.607-13.568-6.12-27.09-11.444-39.865a94.89,94.89,0,0,0-9.166-17.331c-.294-.428-1-.023-.7.409,7.014,10.205,11.469,22.082,14.965,33.888" transform="translate(34.287 37.305)" fill="#817868"/>
            <path id="Trazado_134736" data-name="Trazado 134736" d="M100.908,138.913v11.024s3.993,4.442,18.421,4.476c17.305.04,27.739-6.909,27.739-6.909l-1.185-12.437-44.976,2.367" transform="translate(25.742 34.456)" fill="#ff8763"/>
            <path id="Trazado_134737" data-name="Trazado 134737" d="M126.758,70.841s17.844,9.785,26.19,12.375,10.361,12.664,6.908,27.63-9.5,42.6-9.5,42.6-25.432,10.377-48.17,4.909l-.469-16.709a22.073,22.073,0,0,1-10.553-10.648c-3.549-7.772,7.962-16.982,4.8-26.766s1.727-14.678,5.469-19.571,25.327-13.815,25.327-13.815" transform="translate(23.082 18.072)" fill="#3642a8"/>
            <path id="Trazado_134738" data-name="Trazado 134738" d="M97.91,103.563s-2.828,4.1-1.527,10.819a148.142,148.142,0,0,1,28.118-2.3s2.065-6.893,1.334-11.224a176.916,176.916,0,0,0-27.925,2.7" transform="translate(24.501 25.73)" fill="#5170bb"/>
            <path id="Trazado_134739" data-name="Trazado 134739" d="M137.8,112.25a108.879,108.879,0,0,1-5.736,32.121c-.162.477.592.682.754.207a109.641,109.641,0,0,0,5.763-32.328.391.391,0,0,0-.782,0" transform="translate(33.684 28.539)" fill="#13136a"/>
            <path id="Trazado_134740" data-name="Trazado 134740" d="M101.867,92.745a4.373,4.373,0,0,0,2.4,4.768c2.317,1.246,5.176.528,7.544-.157a71.479,71.479,0,0,0,16.562-7.577.391.391,0,0,0-.394-.674,76.793,76.793,0,0,1-13.24,6.479A24.533,24.533,0,0,1,107.6,97.39c-2.451.089-5.674-1.48-4.983-4.437.115-.489-.639-.7-.753-.208" transform="translate(25.961 22.717)" fill="#13136a"/>
            <path id="Trazado_134741" data-name="Trazado 134741" d="M100.238,128.67c12.865-2.847,26.735,1.029,39.066-4.537.458-.207.061-.881-.394-.675-12.222,5.517-26.11,1.633-38.879,4.459-.492.108-.284.862.207.753" transform="translate(25.447 31.485)" fill="#13136a"/>
            <path id="Trazado_134742" data-name="Trazado 134742" d="M106.785,82.015s5.224,17.887,22.42-.235l-2.242-6.371-2.445-6.951-1.712-4.867-16.665-6.276Z" transform="translate(27.077 14.622)" fill="#ff8763"/>
            <path id="Trazado_134743" data-name="Trazado 134743" d="M109.86,63.43c8.474,11.334,14.155,11.034,16.156,10.42L123.57,66.9Z" transform="translate(28.026 16.181)" fill="#32251d"/>
            <path id="Trazado_134744" data-name="Trazado 134744" d="M102.64,60.377c2.244,4.769,3.925,6.191,8.388,10.464a18.971,18.971,0,0,0,12.908,4.882c10.628-.828,14.833-5.855,11.278-19.885-2.209-8.71-.55-14.031-3.337-17.087h-.005q-.264-.2-.527-.387a20.165,20.165,0,0,0-14.657-3.408c-25.541,3.8-17.268,18.576-14.047,25.42" transform="translate(25.195 8.86)" fill="#ff8763"/>
            <path id="Trazado_134745" data-name="Trazado 134745" d="M120.318,50.357l1.886,2.493c.28.369.729.683.345,1.058a6.748,6.748,0,0,1-1.253.732.391.391,0,0,0,.394.675c.584-.341,2.134-.853,1.915-1.78a5.261,5.261,0,0,0-1.059-1.52q-.778-1.026-1.554-2.052c-.3-.4-.979-.008-.675.394" transform="translate(30.674 12.704)" fill="#32251d"/>
            <path id="Trazado_134746" data-name="Trazado 134746" d="M124,36.109s1.058,7.336-4.974,11.356S105.6,50.72,105.6,50.72s4.394-17.314,18.4-14.611" transform="translate(26.938 9.139)" fill="#32251d"/>
            <path id="Trazado_134747" data-name="Trazado 134747" d="M116.545,51.23c.142.67.664,1.128,1.167,1.022a1.119,1.119,0,0,0,.654-1.406c-.142-.67-.664-1.128-1.167-1.022a1.119,1.119,0,0,0-.654,1.406" transform="translate(29.722 12.707)" fill="#32251d"/>
            <path id="Trazado_134748" data-name="Trazado 134748" d="M123.111,50.152c.142.671.664,1.128,1.166,1.023a1.12,1.12,0,0,0,.655-1.407c-.142-.67-.664-1.127-1.167-1.022a1.119,1.119,0,0,0-.654,1.406" transform="translate(31.397 12.432)" fill="#32251d"/>
            <path id="Trazado_134749" data-name="Trazado 134749" d="M126.522,55.935s-3.132,1.255-9.225.956c0,0,1.6,5.27,5.957,4.325,3.694-.8,3.268-5.281,3.268-5.281" transform="translate(29.923 14.269)" fill="#fff"/>
            <path id="Trazado_134750" data-name="Trazado 134750" d="M127.765,33.318s7.007,5.712,7.662,10.7c0,0-14.813-13.889-24.419,3.814,0,0,1.015,6.063-1.013,7.506s-5.65,2.282-8.684,4.448-4.483-7.512-2.991-13.693S110.737,29.5,127.765,33.318" transform="translate(24.931 8.29)" fill="#32251d"/>
            <path id="Trazado_134751" data-name="Trazado 134751" d="M120.388,31.517S101.6,23.541,94.43,43.82c-5.656,16.006,6.49,28.392,1.623,40.019S82.465,96.1,78.68,112.861s3.582,29.026,15.75,26.5-1.825-27.942,14.365-28.753,15.572-14.331,12.5-22.714-13.845-28.074-5-37.991,4.094-18.386,4.094-18.386" transform="translate(19.817 7.646)" fill="#32251d"/>
            <path id="Trazado_134752" data-name="Trazado 134752" d="M113.254,32.3s-2.44-11.838-12.075-12.56-9.154,6.57-9.154,6.57-5.349.328-6.431,6.95,8.835,9.915,8.835,9.915,15.657-.119,18.825-10.876" transform="translate(21.815 5.024)" fill="#32251d"/>
            <path id="Trazado_134753" data-name="Trazado 134753" d="M110.941,29.679c-7.664-.792-14.858,3.514-18.522,10.168-.242.441.432.835.675.394a18.429,18.429,0,0,1,17.846-9.78c.5.051.5-.73,0-.782" transform="translate(23.564 7.547)" fill="#ffa106"/>
            <path id="Trazado_134754" data-name="Trazado 134754" d="M123.986,62.009a2.9,2.9,0,0,1-3.067.119c-.5-.32.021-1.078.518-.759a2.032,2.032,0,0,0,2.145-.186c.52-.287.92.54.4.826" transform="translate(30.795 15.593)" fill="#ca582f"/>
            <path id="Trazado_134755" data-name="Trazado 134755" d="M112.444,54.987c.142.756,1.432,1.147,2.882.876s2.51-1.1,2.368-1.86-1.432-1.147-2.882-.876-2.51,1.1-2.368,1.86" transform="translate(28.682 13.531)" fill="#ca582f"/>
            <path id="Trazado_134756" data-name="Trazado 134756" d="M124.525,53.361c.142.758,1.432,1.148,2.88.877a4.269,4.269,0,0,0,1.7-.689c-.138-.636-.29-1.292-.461-1.967-.006-.029-.015-.056-.019-.082a4.453,4.453,0,0,0-1.736,0c-1.447.271-2.509,1.1-2.367,1.856" transform="translate(31.764 13.117)" fill="#ca582f"/>
            <path id="Trazado_134757" data-name="Trazado 134757" d="M117.485,47.934a2.152,2.152,0,0,0-2.662,1.465c-.216,1.151-2.051,1.013-1.834-.153a3.946,3.946,0,0,1,4.65-3.144c1.152.21,1.013,2.045-.154,1.832" transform="translate(28.82 11.743)" fill="#32251d"/>
            <path id="Trazado_134758" data-name="Trazado 134758" d="M125.973,47.713c-.855-.728-1.958-1.8-3.16-1.258-1.077.488-1.885-1.163-.806-1.653,1.913-.867,3.562.164,5,1.393.894.761-.137,2.284-1.038,1.517" transform="translate(30.995 11.347)" fill="#32251d"/>
            <path id="Trazado_134759" data-name="Trazado 134759" d="M112.8,58.762a6.427,6.427,0,0,0-1.8-5.317c-1.761-1.84-4.895-4.591-7.263-3.8-3.483,1.156-3.32,4.412-2.37,7.583s3.861,7.016,8.195,5.507a4.654,4.654,0,0,0,3.234-3.97" transform="translate(25.711 12.629)" fill="#ff8763"/>
            <path id="Trazado_134760" data-name="Trazado 134760" d="M107.545,58.455a8.208,8.208,0,0,0-.879-3.957c-.625-1.068-2.165-2.516-3.549-1.8-.463.24-.917-.442-.449-.684a3.322,3.322,0,0,1,3.821.928,7.739,7.739,0,0,1,1.874,5.48.409.409,0,0,1-.817.036" transform="translate(26.141 13.194)" fill="#32251d"/>
            <path id="Trazado_134761" data-name="Trazado 134761" d="M159.881,181.863l5.02,17.56s-3.785,6.052-9.607,5.607l-10.441-19.246s8.767-7.423,15.027-3.921" transform="translate(36.953 46.155)" fill="#ff8763"/>
            <path id="Trazado_134762" data-name="Trazado 134762" d="M141.9,228.185l34.548-22.83a18.766,18.766,0,0,0-1-1.667c-.159-.242-.334-.467-.489-.712-3.04-4.795-7.183-13.447-8.208-12.229-1.2,4.586-8.919,7.735-8.919,7.735s-6.454-2.254-7.893.673,2.972,3.767,1.5,8.1c-1.133,3.317-4.71,4.2-7.7,7.119a12.635,12.635,0,0,0-2.481,3.362,9.913,9.913,0,0,0-.671,7.954,9,9,0,0,0,1.31,2.494" transform="translate(35.729 48.631)" fill="#cb4a00"/>
            <path id="Trazado_134763" data-name="Trazado 134763" d="M163.468,202.855a6.8,6.8,0,0,1,.444-8.95c.427-.405,1.038.274.612.676a5.865,5.865,0,0,0-.38,7.661c.361.461-.314,1.074-.677.612" transform="translate(41.328 49.435)" fill="#861900"/>
            <path id="Trazado_134764" data-name="Trazado 134764" d="M141.892,226.137s-2.307-2.6-1.692-3.954,6.166-2.114,7.295-2.665-.734-1.727,1.728-4c1.256-1.157,9.688-2.975,11.091-4.137s2.673-7.823,6.8-11.172,7.223-.256,7.223-.256l2.1,3.347Z" transform="translate(35.74 50.679)" fill="#fff"/>
            <path id="Trazado_134765" data-name="Trazado 134765" d="M148.886,203a.524.524,0,0,0,.105-.131,6.323,6.323,0,0,1,3.139-.309c.517.077.353.871-.162.794a5.459,5.459,0,0,0-2.7.265.371.371,0,0,1-.4-.61l.01-.01" transform="translate(37.949 51.656)" fill="#fff"/>
            <path id="Trazado_134766" data-name="Trazado 134766" d="M148.265,204.178a.554.554,0,0,0,.105-.131,6.323,6.323,0,0,1,3.139-.309c.517.077.353.871-.162.794a5.46,5.46,0,0,0-2.7.265.371.371,0,0,1-.4-.61l.01-.01" transform="translate(37.791 51.957)" fill="#fff"/>
            <path id="Trazado_134767" data-name="Trazado 134767" d="M147.349,205.579a.554.554,0,0,0,.105-.131,6.324,6.324,0,0,1,3.139-.309c.517.077.353.871-.162.794a5.459,5.459,0,0,0-2.7.265.371.371,0,0,1-.4-.61l.01-.01" transform="translate(37.557 52.314)" fill="#fff"/>
            <path id="Trazado_134768" data-name="Trazado 134768" d="M145.969,206.857a.553.553,0,0,0,.105-.131,6.324,6.324,0,0,1,3.139-.309c.517.077.353.871-.162.794a5.459,5.459,0,0,0-2.7.265.371.371,0,0,1-.4-.61l.011-.01" transform="translate(37.205 52.64)" fill="#fff"/>
            <path id="Trazado_134769" data-name="Trazado 134769" d="M191.5,166.7c-13.085,3.282-32.556,1.578-32.556,1.578l9.864,26.886c-4.058,10.136-17.982,12.074-17.982,12.074-22.266-37.564-29.008-56.944-29.164-66.837-.083-5.086,1.573-7.662,3.758-8.913a18.73,18.73,0,0,1,6.665-1.565c19.595-2.03,69.169,3.779,69.169,3.779s7.455,28.679-9.753,33" transform="translate(31.037 33.034)" fill="#606c38"/>
            <path id="Trazado_134770" data-name="Trazado 134770" d="M121.667,140.312c-.083-5.086,1.573-7.662,3.758-8.914a18.754,18.754,0,0,1,6.663-1.564c1.909.585,5.507,2.678,5.564,5.593.1,5.362-10.255,5.164-15.985,4.885" transform="translate(31.037 33.122)" fill="#283618"/>
            <path id="Trazado_134771" data-name="Trazado 134771" d="M186.386,153.312c-3.143.025-6.52.058-9.334,1.65a7.526,7.526,0,0,0-4.026,5.948c-.033.5.748.5.782,0,.41-6.173,7.9-6.78,12.579-6.816a.391.391,0,0,0,0-.782" transform="translate(44.14 39.111)" fill="#283618"/>
            <path id="Trazado_134772" data-name="Trazado 134772" d="M167.676,133.075a20.5,20.5,0,0,0,22.446,12.382c.5-.084.285-.837-.207-.753a19.7,19.7,0,0,1-21.486-11.836c-.19-.458-.945-.257-.753.207" transform="translate(42.768 33.829)" fill="#283618"/>
            <path id="Trazado_134773" data-name="Trazado 134773" d="M159.972,189.069a.391.391,0,0,1-.366-.255c-.117-.315-11.8-31.654-15.534-39.553-2.007-4.245-1.768-5.245-1.27-5.664.735-.618,2.04.216,3.8,1.46l.358.251c.636.446,1.092.763,1.3.733s.559-.5,1.043-1.137c.279-.367.625-.822,1.066-1.366.353-.436.89-1,1.519-.911.766.112,1.172,1.094,1.735,2.455a13.546,13.546,0,0,0,3.226,5.179c3.14,2.79,10.365,4.27,19.324,3.955,8.228-.286,16.028-2.068,19.408-4.433a.391.391,0,1,1,.448.64C192.475,152.9,184.692,154.7,176.2,155c-9.156.321-16.584-1.233-19.871-4.151a14.194,14.194,0,0,1-3.428-5.465c-.375-.9-.8-1.933-1.126-1.981-.063-.01-.3.011-.8.63-.432.533-.774.984-1.049,1.345-1.371,1.806-1.594,1.845-3.41.572l-.359-.254c-.624-.439-2.523-1.776-2.849-1.5-.023.019-.523.508,1.473,4.732,3.749,7.929,15.443,39.3,15.561,39.615a.39.39,0,0,1-.23.5.376.376,0,0,1-.137.025" transform="translate(36.341 36.382)" fill="#283618"/>
            <path id="Trazado_134774" data-name="Trazado 134774" d="M160.816,178.393a34.814,34.814,0,0,1-17.566,11.532.391.391,0,0,0,.207.753,35.515,35.515,0,0,0,17.912-11.733c.315-.387-.235-.943-.552-.552" transform="translate(36.474 45.475)" fill="#283618"/>
            <path id="Trazado_134775" data-name="Trazado 134775" d="M137.169,108.531l26.111,38.612-10.5,22.184,4.677,12.827s23.349-14.72,28.673-30.011c3.485-10.014-26.076-50.734-26.076-50.734Z" transform="translate(34.993 25.87)" fill="#ff8763"/>
            <path id="Trazado_134776" data-name="Trazado 134776" d="M130.082,102.84l10.938,20.544s19.277-7.39,24.5-13.88c0,0-9.56-21.787-17.192-25.961-6.361-3.474-18.143.847-19.788,10.624a13.5,13.5,0,0,0,1.537,8.673" transform="translate(32.748 21.009)" fill="#3642a8"/>
            <path id="Trazado_134777" data-name="Trazado 134777" d="M140.816,80.117a16.019,16.019,0,0,0-13.2,8.428c-.236.443.439.838.675.394a15.22,15.22,0,0,1,12.523-8.04c.5-.029.5-.81,0-.782" transform="translate(32.543 20.438)" fill="#13136a"/>
            <path id="Trazado_134778" data-name="Trazado 134778" d="M161.088,100.668a66.042,66.042,0,0,1-24.451,13.273.391.391,0,0,0,.208.753,67,67,0,0,0,24.795-13.472c.383-.329-.172-.879-.552-.553" transform="translate(34.787 25.656)" fill="#13136a"/>
            <path id="Trazado_134779" data-name="Trazado 134779" d="M125.688,97.848q7.726,10.629,16.119,20.748c.321.387.871-.168.552-.553q-8.325-10.036-16-20.589c-.294-.4-.971-.014-.675.394" transform="translate(32.045 24.818)" fill="#13136a"/>
            <path id="Trazado_134780" data-name="Trazado 134780" d="M126.883,102.667c1.058.079,2.116-.067,3.175-.029.5.016.5-.764,0-.782-1.059-.036-2.117.108-3.175.029-.5-.036-.5.744,0,.782" transform="translate(32.273 25.983)" fill="#13136a"/>
          </g>
        </g>
      </g>
    </g>
  </g>
</svg>
