<svg xmlns="http://www.w3.org/2000/svg" xmlns:xlink="http://www.w3.org/1999/xlink" width="499.609" height="319.876" viewBox="0 0 499.609 319.876">
  <defs>
    <clipPath id="clip-path">
      <rect id="Rect치ngulo_38155" data-name="Rect치ngulo 38155" width="241.307" height="302.498" fill="none"/>
    </clipPath>
  </defs>
  <g id="_167" data-name="167" transform="translate(-11557 6439)">
    <g id="Grupo_158785" data-name="Grupo 158785" transform="translate(11305 -9673.678)">
      <g id="Grupo_85023" data-name="Grupo 85023" transform="translate(252 3244.678)">
        <rect id="Rect치ngulo_34651" data-name="Rect치ngulo 34651" width="499.609" height="201.281" transform="translate(0 108.594)" fill="#6b8dff"/>
        <g id="Grupo_84254" data-name="Grupo 84254" transform="translate(22.106 0)">
          <g id="Grupo_84000" data-name="Grupo 84000" transform="translate(0)">
            <path id="Trazado_118280" data-name="Trazado 118280" d="M236.858,308.023q-1.951-.241-3.924-.4c-15.443-1.217-30.87,1.941-46.386,2.368-27.964.768-55.359-7.466-78.237-19.536s-41.789-27.828-59.888-43.812c-19.458-17.186-39.345-37.482-35.888-59.865,2.52-16.313,17.156-30.061,32.688-41.653,19.647-14.668,41.57-27.435,62.593-40.945,20.909-13.435,37.578-31.2,58.744-43.821,41.051-24.473,104.4-27.836,151.382-12.132C348.09,58.3,372.9,75.379,400.377,89.087c19.651,9.807,41.586,18.513,54.205,33.462,15.29,18.114,13.474,41.368,8.372,62.454-8.633,35.677-26,71.272-59.183,97.676s-84.335,42.012-131.221,32.986C260.559,313.356,249.024,309.533,236.858,308.023Z" transform="translate(-12.141 -38.664)" fill="#c4d1ff"/>
          </g>
        </g>
      </g>
    </g>
    <g id="Grupo_159118" data-name="Grupo 159118" transform="translate(11686 -6439)">
      <g id="Grupo_159117" data-name="Grupo 159117" clip-path="url(#clip-path)">
        <path id="Trazado_137184" data-name="Trazado 137184" d="M58.593,196.088c15.286-.211,30.572-.408,45.857-.688,1.284-13.9,3.681-33.143,5.064-34.131,1.713-1.229,10.346,11.4,20.4,33.563q22.139-.6,44.258-1.755c-2.608-12.5-5.248-23.8-6.952-28.309-2.509-6.655-9.318-24.044-13.766-35.371l-3.643-.262-.448-10.144a109.334,109.334,0,0,0-13.529-3.726c-.3-.066-.6-.118-.906-.182a106.446,106.446,0,0,0-22.059-2.283c-.131-.011-.268,0-.4,0s-.27,0-.406.01c-2.18.032-4.494.161-6.876.368-.266.021-.547.042-.819.074-7.829.689-16.382,2.1-23.664,3.5-.3.053-.6.116-.891.171-9.666,1.877-16.893,3.685-16.893,3.685-1.257,4.933-7,43.892-4.845,70.279.137,1.673.311,3.417.511,5.2" transform="translate(51.804 101.438)" fill="#ffb859"/>
        <path id="Trazado_137185" data-name="Trazado 137185" d="M93.34,121.8s-1,61.838-4.946,66.148c-1.677,1.84-5.783,2.56-10.836,2.594h-.84a116.372,116.372,0,0,1-21.36-2.594c-11.846-2.522-23.726-8.264-23.726-15.8,0-6.463,15.457-62.461,15.457-62.461s26.346,7.962,35.854,10.644c.281.087.551.161.8.226,1.411.4,2.325.636,2.53.655.1,1.4.141,2.2.141,2.2s2.68-.665,6.927-1.6" transform="translate(28.448 98.64)" fill="#5b2d24"/>
        <path id="Trazado_137186" data-name="Trazado 137186" d="M96.889,3.484c-1.077-1.434-10.952-5.565-16.7,0S68.524,32.028,65.115,39.924s-7,12.746-10.234,17.772S47.7,73.136,52.906,85.882s11.85,14.9,17.952,19.027,21.542,5.926,35.9,5.747,35.187-5.028,40.752-9.335,6.283-11.846,2.334-15.44-10.591-5.1-11.669-7.483-.359-1.673,3.229-8.133,5.569-14.184-1.434-20.287S127.4,41.542,127.4,30.591,118.074,5.816,111.069,1.51s-14.18,1.973-14.18,1.973" transform="translate(45.31 0)" fill="#85402b"/>
        <path id="Trazado_137187" data-name="Trazado 137187" d="M96.5,63.123c-1.971,4.762-9.159,10.953-17.592,7.183S68.86,57.566,69.217,56.662s5.742-1.789,6.463-2.509c.465-.467-.194-4.729-1.067-8.714-.321-1.519-.678-3-1.012-4.2a20.726,20.726,0,0,0,9.618,1.421,22.723,22.723,0,0,0,9.588-2.984c-.15,1.174-.323,2.534-.486,3.922-.418,3.63-.764,7.432-.517,8.4.517,1.973,5.236,1.8,5.956,2.156s-.4,6.895-1.257,8.971" transform="translate(62.208 35.68)" fill="#f0875e"/>
        <path id="Trazado_137188" data-name="Trazado 137188" d="M110.778,26.922A30.579,30.579,0,0,1,87.07,9.868s-5.556,10.771-13.276,14-10.589,3.052-10.589,3.052c-.72,3.413,1.795,24.773,7.181,33.212a19.67,19.67,0,0,0,8.689,7.9,20.73,20.73,0,0,0,9.62,1.428,22.605,22.605,0,0,0,9.584-2.99,17.363,17.363,0,0,0,7.829-8.5c2.693-7,5.924-23.517,4.669-31.058" transform="translate(56.733 8.875)" fill="#f0875e"/>
        <path id="Trazado_137189" data-name="Trazado 137189" d="M58.532,153.32a.277.277,0,0,1-.08-.01l-19.386-3.768a.4.4,0,0,1-.258-.171.42.42,0,0,1-.063-.306l6.283-31.056a.42.42,0,0,1,.19-.266.409.409,0,0,1,.323-.04c.173.051,17.421,5.2,19.88,5.645a.393.393,0,0,1,.268.175.4.4,0,0,1,.057.315l-6.824,29.17a.4.4,0,0,1-.389.311m-18.913-4.492,18.608,3.618,6.638-28.391c-3.271-.731-16.522-4.672-19.13-5.451Z" transform="translate(34.839 105.839)" fill="#1f1f1e"/>
        <path id="Trazado_137190" data-name="Trazado 137190" d="M65.842,22.594c-1.159.125,2.984-2.16,5.745-2.513,4.306-.551,7.358,1.028,6.91,2.513-.3.982-7.62-.545-12.655,0" transform="translate(59.033 17.959)" fill="#85402b"/>
        <path id="Trazado_137191" data-name="Trazado 137191" d="M91.063,21.66c.025-.266-2.289-2.116-6.61-1.905S77.5,21.506,78.573,22.9c.95,1.223,3.8-.953,6.361-1.271a34.456,34.456,0,0,1,6.129.032" transform="translate(70.446 17.751)" fill="#85402b"/>
        <path id="Trazado_137192" data-name="Trazado 137192" d="M62.394,115.511c-.141,17.276-1.1,53.079-6.184,69.99h-.838c5.136-16.729,6.074-52.961,6.222-70.216.281.087.551.161.8.226" transform="translate(49.797 103.679)" fill="#1f1f1e"/>
        <path id="Trazado_137193" data-name="Trazado 137193" d="M60.328,115.749c.1,1.406.148,2.2.148,2.2s2.672-.667,6.917-1.607c0,0-2.832-.213-7.065-.593" transform="translate(54.255 104.096)" fill="#589457"/>
        <path id="Trazado_137194" data-name="Trazado 137194" d="M195.913,132.655c-.805-11.846-18.581-65.971-22.082-72.435s-11.856-7.82-25.58-10.23C132.364,47.2,126.979,47.3,126.979,47.3c.72.355-.4,6.895-1.261,8.971-1.97,4.762-9.155,10.953-17.588,7.183S98.079,50.71,98.436,49.808a55.8,55.8,0,0,0-8.011,2.431c-3.493,1.25-7.554,2.822-11.29,4.351a93.4,93.4,0,0,0-11.4,5.246c-7.269,4.847-20.2,44.161-23.424,54.932S35.961,150.7,36.77,155.813c.355,2.272,4.784,9.189,10.663,16.87,7.337,9.586,16.934,20.389,23.719,24.87l9.329-13.109s-1.573-3.179-3.761-7.6c-4.644-9.392-12.021-24.4-12.75-26.42-1.081-2.961,11.371-32.851,12.446-33.66.562-.429,2.006,16.976,3.255,33.561.851,11.407,1.618,22.418,1.918,26.982,4.232.38,7.064.593,7.064.593,10.061-2.23,29-6.009,42.632-6.2,19.39-.272,36.893,6.192,36.893,6.192l.448,10.144,3.643.26,13.766.991s10.684-44.784,9.876-56.636m-27.2,26.123-15.081-45.24c2.425-.809,2.963-8.887,3.791-7.808s12.1,29.35,12.636,32.581-1.347,18.042-1.347,20.467" transform="translate(32.992 42.535)" fill="#4c5346"/>
        <path id="Trazado_137195" data-name="Trazado 137195" d="M68.921,175.564l-10.292,2.255c-.025-.279.8-13.96,1.311-29.829,1-30.912,2.047-78.681-.538-93.737,3.736-1.529,7.8-3.1,11.29-4.353,1.13,16.771,5.424,89.228-1.77,125.665" transform="translate(52.725 44.875)" fill="#5b2d24"/>
        <path id="Trazado_137196" data-name="Trazado 137196" d="M72.625,40.743a.421.421,0,0,1-.291-.123.391.391,0,0,1-.108-.34l2.332-15.888a.405.405,0,1,1,.8.118L73.106,39.84a8.293,8.293,0,0,0,3.092-1.3.4.4,0,0,1,.566.08.405.405,0,0,1-.08.564,9.481,9.481,0,0,1-4.009,1.561l-.049,0" transform="translate(64.95 21.624)" fill="#1f1f1e"/>
        <path id="Trazado_137197" data-name="Trazado 137197" d="M76.886,37.375a6.683,6.683,0,0,1-4.553-1.73.4.4,0,0,1,.01-.57.409.409,0,0,1,.574.011c.133.139,3.326,3.339,8.585-.059a.4.4,0,1,1,.437.678,9.3,9.3,0,0,1-5.052,1.67" transform="translate(64.95 31.443)" fill="#1f1f1e"/>
        <path id="Trazado_137198" data-name="Trazado 137198" d="M90.711,39.674c-.15,1.174-.323,2.532-.486,3.92a17.968,17.968,0,0,1-8.733,3.557,15.28,15.28,0,0,1-8.974-1.715c-.323-1.519-.678-2.993-1.012-4.2a20.768,20.768,0,0,0,9.618,1.421,22.723,22.723,0,0,0,9.588-2.984" transform="translate(64.306 35.68)" fill="#bb4a36"/>
        <path id="Trazado_137199" data-name="Trazado 137199" d="M70.976,26.58c0,1.637-.574,2.965-1.28,2.965s-1.28-1.328-1.28-2.965.574-2.959,1.28-2.959,1.28,1.324,1.28,2.959" transform="translate(61.528 21.243)" fill="#1f1f1e"/>
        <path id="Trazado_137200" data-name="Trazado 137200" d="M82.606,26.58c0,1.637-.714,2.965-1.6,2.965s-1.6-1.328-1.6-2.965.714-2.959,1.6-2.959,1.6,1.324,1.6,2.959" transform="translate(71.412 21.243)" fill="#1f1f1e"/>
        <path id="Trazado_137201" data-name="Trazado 137201" d="M94.814,99.9a.4.4,0,0,1-.188-.762C109.792,91.294,105.152,70,105.1,69.788a.4.4,0,0,1,.786-.18c.051.222,4.826,22.121-10.891,30.251a.423.423,0,0,1-.184.044" transform="translate(84.904 62.319)" fill="#1f1f1e"/>
        <path id="Trazado_137202" data-name="Trazado 137202" d="M91.368,112.987v.065l-5.031,31.772a.4.4,0,0,1-.249.313.315.315,0,0,1-.148.032.443.443,0,0,1-.251-.085,12.635,12.635,0,0,1-3.725-6.192c-.819-2.748-.517-11.3.9-25.453.272-.032.551-.053.819-.074-1.43,14.129-1.753,22.642-.948,25.3a13.155,13.155,0,0,0,2.919,5.278L90.561,113l.011-.074a.4.4,0,0,1,.8.065" transform="translate(73.309 101.249)" fill="#1f1f1e"/>
        <path id="Trazado_137203" data-name="Trazado 137203" d="M76.778,114.877c-1.671,5.837-5.772,19.13-14.391,19.428h-.009a.393.393,0,0,1-.4-.384.4.4,0,0,1,.389-.422c7.82-.272,11.911-12.9,13.518-18.452.291-.055.593-.12.893-.171" transform="translate(55.738 103.312)" fill="#1f1f1e"/>
        <path id="Trazado_137204" data-name="Trazado 137204" d="M117.728,139.225a.409.409,0,0,1-.4.365c-.01,0-.034-.011-.046-.011-5.869-.6-11.1-5.622-15.13-14.507A69.5,69.5,0,0,1,98.317,114c.3.065.6.116.908.182,1.711,6.547,7.183,23.481,18.146,24.6a.408.408,0,0,1,.357.444" transform="translate(88.419 102.521)" fill="#1f1f1e"/>
        <path id="Trazado_137205" data-name="Trazado 137205" d="M44.055,133.778,42.26,144.73l4.308,1.255,1.618-11.309Z" transform="translate(38.005 120.31)" fill="#1f1f1e"/>
        <path id="Trazado_137206" data-name="Trazado 137206" d="M106.6,140.364a.4.4,0,0,1-.4-.384l-.448-10.146c-.437-9.837.754-22.207,1.324-28.154l.055-.562a.4.4,0,0,1,.441-.361.4.4,0,0,1,.363.439l-.053.562c-.572,5.928-1.757,18.262-1.324,28.042l.452,10.142a.406.406,0,0,1-.389.422Z" transform="translate(95.018 90.611)" fill="#1f1f1e"/>
        <path id="Trazado_137207" data-name="Trazado 137207" d="M83.193,138.354a.382.382,0,0,1-.346,0c-.646-.258-1.529-1.734-2.175-2.984,0-.01-.011-.019-.025-.042-.429-.821-.739-1.54-.847-1.759.277.809,2.972,8.587,1.774,9.274a.543.543,0,0,1-.557-.032,1.968,1.968,0,0,1-.488-.367,3.421,3.421,0,0,1-.256-.279,21.871,21.871,0,0,1-2.52-4.253c0-.013-.01-.023-.019-.034.137.357.439,1.088.762,1.962a.077.077,0,0,1,.021.055c.874,2.26,1.951,5.426,1.261,5.685-.517.194-1.478-.828-2.348-1.96-.83-1.086-1.584-2.264-1.745-2.52a13.119,13.119,0,0,1,1.142,3.113c.1.6.053,1.109-.281,1.324-1.075.722-10.4-8.433-10.4-8.433a5.761,5.761,0,0,1-4.49,1.077c-2.509-.538-6.819-5.567-6.819-5.567L64.161,119.5c2.152,0,3.951,5.214,3.951,5.214,5.2-3.768,11.493-5.386,13.107-2.691s3.048,15.789,1.973,16.327" transform="translate(49.312 107.474)" fill="#f0875e"/>
        <path id="Trazado_137208" data-name="Trazado 137208" d="M72.067,134.379c-.646-.258-1.519-1.734-2.165-2.984,0-.009-.011-.019-.025-.042-.988-2.26-2.12-4.794-3.035-6.862a.4.4,0,0,1,.205-.528.4.4,0,0,1,.538.207c1.6,3.54,3.36,7.557,4.482,10.209" transform="translate(60.082 111.449)" fill="#1f1f1e"/>
        <path id="Trazado_137209" data-name="Trazado 137209" d="M68.56,132.061c.055.127.429,1.035.86,2.186-2.087-3.856-4.091-7.508-4.391-7.84a.41.41,0,0,1,.019-.57.4.4,0,0,1,.56,0c.452.462,4.372,7.707,6.334,11.383-1.326-.678-3.254-4.868-3.383-5.159" transform="translate(58.387 113.066)" fill="#1f1f1e"/>
        <path id="Trazado_137210" data-name="Trazado 137210" d="M67.523,134.052a13,13,0,0,1,1.142,3.113l-4.716-9.242a.4.4,0,0,1,.182-.538.406.406,0,0,1,.539.171l4.587,9.007c-.828-1.088-1.571-2.255-1.734-2.511" transform="translate(57.473 114.523)" fill="#1f1f1e"/>
        <path id="Trazado_137211" data-name="Trazado 137211" d="M110.374,132.526s-9.153-3.884-10.051-1.671,8.078,6.7,8.078,6.7-6.462,13.1-5.385,14.361,7.358-8.015,7.358-8.015-6.165,11.6-5.054,12.862,7.569-7.721,7.569-7.721-4.665,7.54-3.77,8.617,6.283-5.744,6.283-5.744-3.233,4.361-2.334,5.858,7.362-5.679,8.8-8.549,1.973-8.976,1.973-8.976,3.772-11.671,5.026-17.6L111.455,121.4Z" transform="translate(90.166 109.176)" fill="#f0875e"/>
        <path id="Trazado_137212" data-name="Trazado 137212" d="M82.535,149c-.828.712-4.387,6.492-3.311,8.847s2.648,4.849,7.451,4.349,6.786-1.93,6.537-2.714-2.4-.636-2.4-.636,2.936-1.356,2.42-2.068-3.25-.072-3.25-.072,2.152-3.922,1.656-7.134c0,0-2.65,0-5.05-.142A39.607,39.607,0,0,1,82.535,149" transform="translate(71.068 134.001)" fill="#ed875f"/>
        <path id="Trazado_137213" data-name="Trazado 137213" d="M82.927,159.166a.856.856,0,0,1-.68-.31c-.991-1.21.532-5.884,1.083-6.914a.267.267,0,0,1,.33-.1.2.2,0,0,1,.12.283c-.71,1.329-1.873,5.576-1.128,6.482a.325.325,0,0,0,.319.133c1.476-.116,2.959-1.761,4.177-4.64a.265.265,0,0,1,.319-.131.211.211,0,0,1,.148.277c-.91,2.152-2.446,4.748-4.6,4.915a.48.48,0,0,1-.089.006" transform="translate(73.672 136.536)" fill="#1f1f1e"/>
        <path id="Trazado_137214" data-name="Trazado 137214" d="M86.207,154.588h-.013a10.9,10.9,0,0,1-1.865-.188.21.21,0,0,1-.173-.26.255.255,0,0,1,.3-.154,10.084,10.084,0,0,0,1.757.173.23.23,0,0,1,.237.224.234.234,0,0,1-.247.205" transform="translate(75.675 138.478)" fill="#1f1f1e"/>
        <path id="Trazado_137215" data-name="Trazado 137215" d="M162.952,160.433c-4.078,2.568-6.838,3.521-10.482,2.851,0,0,1.206,13.445,1.5,19.189.008.158.013.3.019.446a17.245,17.245,0,0,1,.021,1.952c-.218,1.907-10.152,4.091-27.255,3.9s-26.051-4.374-26.488-5.326a11.68,11.68,0,0,1-.032-2.367c.008-.158.015-.323.019-.5.179-3.905.729-10.906,1.126-15.706v-.009c.226-2.792.4-4.83.425-5.077-.021.057-.068.205-.146.425-.657,1.84-3.231,9.039-5.808,14.965a84.691,84.691,0,0,1-4.933,9.641c-.087.141-.165.274-.245.4-.443.724-.7,1.113-.7,1.113a13.4,13.4,0,0,1-5.476.256,13.2,13.2,0,0,1-3.616-.824l-.008-.008c-.006-.317.047-1.4.152-3.012.008-.158.021-.319.036-.477.448-6.716,1.715-21.339,3.436-30.752,3.3-18.044,11.8-31.443,16.541-36.347,4.914-5.09,9.271-7.844,18.984-6.443l.444.059a.163.163,0,0,0-.032.1c0,.644,1.409,5.4,8.323,5.331s7.654-5.563,7.654-5.563,4.583-1.956,13.3,1.755,16.555,19.31,18.321,28.156-.991,19.307-5.079,21.871" transform="translate(72.732 97.25)" fill="#21a5a5"/>
        <path id="Trazado_137216" data-name="Trazado 137216" d="M117.681,110.1s-.75,5.491-7.656,5.563-8.323-4.688-8.323-5.331a.168.168,0,0,1,.032-.1c.291-.418,2.555.408,2.868.342.207-.042.093-1.428-.066-2.731-.053-.469-.118-.927-.171-1.312a20.316,20.316,0,0,0,10.294.008l-.106,1.358-.184,2.422Z" transform="translate(91.463 95.803)" fill="#ed875f"/>
        <path id="Trazado_137217" data-name="Trazado 137217" d="M149.732,161.376c-2.057-7.183-3.607-12.161-3.607-12.161-.131,1.164-3.915,2.437-10.762,3.21-.163.017-.332.038-.5.051a139.5,139.5,0,0,1-15.99.64,85.636,85.636,0,0,1-16.112-1.584c-.163-.034-.332-.07-.492-.106-6.3-1.333-9.62-3.067-9.884-3.637-.444.984-1.582,7.212-2.737,15.852,20.042-.452,40.072-1.124,60.087-2.264" transform="translate(80.62 132.91)" fill="#92bab4"/>
        <path id="Trazado_137218" data-name="Trazado 137218" d="M94.963,124.367c-.006.118-.834,11.964-1.489,15.573-.344,1.863-.839,4.855-1.246,7.257-.258,1.525-.437,2.579-.557,3.273.226-2.792.4-4.832.425-5.079-.021.057-.066.205-.146.427.359-2.106.748-4.4,1.028-5.951.653-3.58,1.483-15.4,1.491-15.525a.25.25,0,0,1,.494.025" transform="translate(82.442 111.645)" fill="#1f1f1e"/>
        <path id="Trazado_137219" data-name="Trazado 137219" d="M114.9,136.67a17.17,17.17,0,0,1-4.26-.484.21.21,0,0,1-.165-.268.258.258,0,0,1,.311-.135c2.784.746,8.329.689,11.033-1.107.967-.644,1.565-2.37,1.641-4.733.108-3.464-.912-7.225-2.232-8.207a.186.186,0,0,1-.027-.294.269.269,0,0,1,.351-.025c1.611,1.195,2.5,5.362,2.4,8.541-.046,1.459-.344,4.068-1.833,5.058-1.8,1.193-4.642,1.654-7.221,1.654" transform="translate(99.343 109.145)" fill="#1f1f1e"/>
        <path id="Trazado_137220" data-name="Trazado 137220" d="M127.307,140.607c-8.684,0-17.827-4.382-17.937-4.439a.194.194,0,0,1-.093-.289.269.269,0,0,1,.338-.085c.127.066,13.05,6.266,22.583,3.82a12.218,12.218,0,0,0,7.73-5.6.271.271,0,0,1,.334-.091.2.2,0,0,1,.106.291,12.7,12.7,0,0,1-8.03,5.816,20.427,20.427,0,0,1-5.031.581" transform="translate(98.245 120.417)" fill="#1f1f1e"/>
        <path id="Trazado_137221" data-name="Trazado 137221" d="M90.848,149.719c-.087.141-.165.274-.243.4a46.127,46.127,0,0,1-9.652-2.475c.008-.158.021-.319.036-.477,2.283,1.105,7.064,2.116,9.859,2.553" transform="translate(72.803 132.35)" fill="#1f1f1e"/>
        <path id="Trazado_137222" data-name="Trazado 137222" d="M111.073,141.645a.314.314,0,0,1-.137-.038.2.2,0,0,1-.068-.3c2.691-3.461,2.027-11.164,1.795-11.723a.192.192,0,0,1,.025-.266.293.293,0,0,1,.353-.008c.4.327,1.126,8.522-1.759,12.239a.27.27,0,0,1-.209.093" transform="translate(99.668 116.244)" fill="#1f1f1e"/>
        <path id="Trazado_137223" data-name="Trazado 137223" d="M135.727,155.277a54.76,54.76,0,0,1-5.588-1.29s-3.047-.429-3.206.283,3.9,1.421,3.9,1.421a23.708,23.708,0,0,1-12.746,4.855l.082-22.18s10.429-.86,10.513-1.785-11.008-2-11.008-2l-.084-5.994c1.575-.211,5.134-2.068,5.3-5.63s-3.973-6.135-8.691-6.065-6.539,3.421-6.125,6.988,5.63,4.707,5.63,4.707l-.084,6.42s-9.024,1.217-11.176,1.424-2.813,2.638.414,2.784,10.125-.424,10.125-.424v21.751s-7.89,1-13.1-2.57c0,0,2.648-.351,2.895-1.276s-7.284-2.858-8.11-2.718.165,9.561,1.324,9.7,1.575-3.85,1.575-3.85a23.423,23.423,0,0,0,19.227,9.2c12.8-.285,17.356-9.413,17.356-9.413s.332,2.779,1.989,2.712-.4-7.054-.4-7.054m-20.165-29.31a3.63,3.63,0,1,1,4.165-3.59,3.912,3.912,0,0,1-4.165,3.59" transform="translate(84.853 105.126)" fill="#4c5346"/>
        <path id="Trazado_137224" data-name="Trazado 137224" d="M116.382,130.955s-.91-3.926-2.152-4-1.324,2.712-1.324,2.712-4.634-2.931-5.379-1.643,4.425,5.066,4.425,5.066-6.993-2.568-7.738-1.426,6.085,3.352,6.085,3.352-4.843-.215-5.423.784,6.291,2.141,6.291,2.141-4.22.07-4.553,1,7.451,3.284,7.451,3.284a24.469,24.469,0,0,0,2.315-11.269" transform="translate(93.672 114.176)" fill="#f79172"/>
        <path id="Trazado_137225" data-name="Trazado 137225" d="M144.824,148.618a94.143,94.143,0,0,1-10.5,2.547,115.385,115.385,0,0,1-17.633,1.14,93.975,93.975,0,0,1-12.006-.636,41.01,41.01,0,0,1-13.62-4.891c.006-.158.013-.323.019-.5a40.7,40.7,0,0,0,13.683,4.961c7.846,1.109,23.25.659,29.459-.5a93.381,93.381,0,0,0,10.575-2.57c.006.158.013.3.019.446" transform="translate(81.901 131.552)" fill="#1f1f1e"/>
        <path id="Trazado_137226" data-name="Trazado 137226" d="M93.524,161.762A28.58,28.58,0,0,0,97.1,156.6a32.185,32.185,0,0,0,2.735-6.788l-.49-.106a31.166,31.166,0,0,1-6.454,12.074l.631-.015" transform="translate(83.541 134.632)" fill="#1f1f1e"/>
        <path id="Trazado_137227" data-name="Trazado 137227" d="M119.17,159.664c.211-.009.422-.023.632-.034a21.629,21.629,0,0,1-5.848-9.4c-.165.019-.33.038-.5.053a22.189,22.189,0,0,0,5.719,9.383" transform="translate(102.029 135.104)" fill="#1f1f1e"/>
        <path id="Trazado_137228" data-name="Trazado 137228" d="M113.4,106.536l-.106,1.358c-1.761,1-5.17,2.114-10.017-.053-.053-.469-.12-.927-.173-1.312a20.323,20.323,0,0,0,10.3.008" transform="translate(92.724 95.803)" fill="#b94734"/>
        <path id="Trazado_137229" data-name="Trazado 137229" d="M144.135,103.041a1.962,1.962,0,0,0-.8-.087c-.019.011-4.636,2.253-5.052,3.445,0,0,.053-.332.131-.895l-.013.009s.23-1.723.4-3.934a23.258,23.258,0,0,0-.338-6.441c-1.016-4.091-2.452-6.929-4.482-5.738s-7.711,3.014-14.522,1.7a18.7,18.7,0,0,1-10.638-6.3c-.777-.631-1.734-.859-4.123,1.82s-5.916,9.147-6.213,12.448c-.218,2.389-.465,4.974-.587,6.224.044.218.08.348.08.348s-.046-.044-.1-.1c-.036.325-.053.515-.053.515a14.347,14.347,0,0,0-3.728-2.587,2.113,2.113,0,0,0-1.945.855c-1.971,2.558,1.97,9.894,6.99,9.548,0,0,1.077,9.721,13.179,12.872l.011.008a20.148,20.148,0,0,0,11.149.009c6.046-1.869,10.416-6.9,13.221-13.229a6.553,6.553,0,0,0,6.184-1.956c2.689-2.9,3.138-7.844,1.254-8.532" transform="translate(82.404 75.894)" fill="#ed875f"/>
        <path id="Trazado_137230" data-name="Trazado 137230" d="M116.191,97.609c.416-1.193,5.035-3.436,5.052-3.445-1.962.156-4.807,2.46-4.921,2.551-.078.562-.131.895-.131.895" transform="translate(104.494 84.684)" fill="#8c4a1e"/>
        <path id="Trazado_137231" data-name="Trazado 137231" d="M143.536,92.513c-1.614-7-7.17-15.618-14.1-14.895a36.37,36.37,0,0,1-11.58-.344,23.108,23.108,0,0,0-14.895,2.218c-5.5,2.841-9.561,10.344-10.4,16.94s.505,13.643.9,13.77a.148.148,0,0,0,.027.009c1.63.131,3.367,1.679,3.782,2.072.006-.076.013-.156.021-.249.122-1.252.368-3.835.587-6.224.3-3.3,3.823-9.772,6.213-12.448s3.347-2.452,4.123-1.82a18.693,18.693,0,0,0,10.638,6.3c6.811,1.314,12.49-.5,14.522-1.7s3.466,1.647,4.482,5.738a23.254,23.254,0,0,1,.338,6.441c-.093,1.613-.268,3.048-.386,3.924.112-.091,2.959-2.4,4.921-2.551,0,0,2.416-10.2.8-17.187" transform="translate(83.002 69.148)" fill="#673325"/>
        <path id="Trazado_137232" data-name="Trazado 137232" d="M96.707,96.506c-.412-.391-2.152-1.941-3.782-2.072a14.368,14.368,0,0,1,3.73,2.587s.017-.19.051-.515" transform="translate(83.57 84.927)" fill="#8c4a1e"/>
        <path id="Trazado_137233" data-name="Trazado 137233" d="M101.514,90.2c4.161-1.622,5.7-.6,5.7.188.011.764-1.381,1.307-5.32,2.125-1.2.256-4.273.712-4.475.217-.425-1.035,1.816-1.652,4.093-2.53" transform="translate(87.566 80.344)" fill="#673325"/>
        <path id="Trazado_137234" data-name="Trazado 137234" d="M108.461,90.384c-.08-.8,1.814-1.537,4.612-.7,2.8.815,5.652,2.741,5.145,3.293s-3.236.023-5.787-.792c-1.67-.53-3.877-.805-3.97-1.8" transform="translate(97.54 80.321)" fill="#673325"/>
        <path id="Trazado_137235" data-name="Trazado 137235" d="M105.019,104.809a1.078,1.078,0,0,1-.621-.173c-.627-.425.032-6.805.7-12.087a.263.263,0,0,1,.3-.22.254.254,0,0,1,.236.279c-.659,5.244-1.191,11.1-.879,11.652a.93.93,0,0,0,.72-.049,1.787,1.787,0,0,0,1.105-1.276.266.266,0,0,1,.311-.2.254.254,0,0,1,.218.287,2.3,2.3,0,0,1-1.434,1.66,1.661,1.661,0,0,1-.651.131" transform="translate(93.66 83.032)" fill="#1f1f1e"/>
        <path id="Trazado_137236" data-name="Trazado 137236" d="M102.569,94.754c0,1.28-.581,2.306-1.3,2.306s-1.3-1.026-1.3-2.306c0-1.265.583-2.292,1.3-2.292s1.3,1.028,1.3,2.292" transform="translate(89.907 83.153)" fill="#1f1f1e"/>
        <path id="Trazado_137237" data-name="Trazado 137237" d="M112.349,94.754c0,1.28-.579,2.306-1.3,2.306s-1.3-1.026-1.3-2.306c0-1.265.581-2.292,1.3-2.292s1.3,1.028,1.3,2.292" transform="translate(98.702 83.153)" fill="#1f1f1e"/>
        <path id="Trazado_137238" data-name="Trazado 137238" d="M110.547,106.418c-7.162,0-10.67-6.5-10.706-6.564a.316.316,0,0,1,.558-.3c.032.065,3.371,6.23,10.148,6.23s9.994-6.163,10.027-6.224a.322.322,0,0,1,.424-.139.314.314,0,0,1,.139.424c-.034.068-3.421,6.57-10.589,6.57" transform="translate(89.757 89.386)" fill="#1f1f1e"/>
        <path id="Trazado_137239" data-name="Trazado 137239" d="M55.911,139.358c-.879,12.427-4.858,27.753-6.731,34.429-3.029-5.858-6.1-11.1-8.556-14.125-.31-.376-.61-.724-.9-1.033,0,0,4.365-17.065,1.795-41.421-.013-.2-.038-.4-.059-.594l10.406-8.289a85.884,85.884,0,0,1,4.049,31.033" transform="translate(35.72 97.419)" fill="#f0875e"/>
        <path id="Trazado_137240" data-name="Trazado 137240" d="M41.5,156.6c-.31-.378-1.491-1.869-1.783-2.179,0,0,4.363-17.067,1.795-41.421,1.837,5.018,5.586,19.083-.011,43.6" transform="translate(35.721 101.626)" fill="#b94734"/>
        <path id="Trazado_137241" data-name="Trazado 137241" d="M63.065,87.77s2.5-7.09,1.586-12.815a3.84,3.84,0,0,1-1.212,1.69c-3.274,2.439-9.82,1.231-9.82,1.231-2.507,4.047-9.25,4.433-10.568,3.662S38.2,64.772,32.594,65.482,18.734,81.151,18.387,84.815s-2.866,3.468-2.866,3.468-1.54-4.756-4.5-2.055.127,14.133,7.065,12.336c0,0,1.962,14.526,14.5,18.448a22.69,22.69,0,0,0,7.6.952,22.127,22.127,0,0,0,7.5-1.5c11.823-4.7,13.576-18.708,13.576-18.708s4.877-1.371,6.289-6.125-.129-9.124-4.5-3.856" transform="translate(8.908 58.869)" fill="#f0875e"/>
        <path id="Trazado_137242" data-name="Trazado 137242" d="M63.08,82.239c.532-4.091-1.242-10.642-5.128-17.024C52.558,56.348,35.6,49.125,20.56,63.436c-5.356,5.1-7.707,11.027-8.287,18.739A56.358,56.358,0,0,0,13.494,97.4s2.522.194,2.866-3.468,8.6-18.623,14.207-19.333,9.145,15.286,10.458,16.057,8.061.386,10.568-3.662c0,0,4.492.826,7.9-.281a27.884,27.884,0,0,1,1.55,10.175S64.577,92.9,63.08,82.239" transform="translate(10.935 49.752)" fill="#85402b"/>
        <path id="Trazado_137243" data-name="Trazado 137243" d="M22.053,66.688c-1.147-4.824-6.169-8.015-12.144-6.858S-.884,69.079.465,70.815s5.012-.963,5.012-.963-6.817,5.59-5.24,7.518,6.2-2.12,6.2-2.12S2.587,80.842,4.127,81.8s14.686-4.239,14.686-4.239,4.781-4.4,3.24-10.876" transform="translate(0 53.593)" fill="#85402b"/>
        <path id="Trazado_137244" data-name="Trazado 137244" d="M39.256,67.821a34.878,34.878,0,0,1,9.254-9.254c4.431-3.083,6.832-1.086,6.743,0-.192,2.443-7.13,6.363-7.13,6.363s10.6-1.93,10.986.771-5.01,3.386-5.01,3.386,6.746-.689,6.746,1.818S54.1,72.252,54.1,72.252s5.4.579,3.664,3.664-18.505,0-18.505,0-2.621-4.167,0-8.095" transform="translate(34.256 51.192)" fill="#85402b"/>
        <path id="Trazado_137245" data-name="Trazado 137245" d="M22.5,156.83c-.363.192-.71.378-1.048.587-2.651,1.6-4.927,4.294-10.169,17.719A134.32,134.32,0,0,1,7.609,150.3c-.084-2.08-.123-4.323-.123-6.661,0-13.713,1.349-30.56,2.883-34.839.008,0,8.249,9.914,11.079,11.937a2.819,2.819,0,0,0,.424.268s-.292,30.214.625,35.825" transform="translate(6.732 97.847)" fill="#f0875e"/>
        <path id="Trazado_137246" data-name="Trazado 137246" d="M28.636,177.839c21.31-.42,42.634-.5,63.948-.735-.066-.194-.142-.41-.205-.591a235.779,235.779,0,0,0-11.548-25.9c-3.415-6.6-6.877-12.412-9.461-15.157C69.443,137,61.346,137,47.888,137.581c-.123.008-.249.008-.368.008-.194.017-.386.027-.579.027a59.838,59.838,0,0,1-17.462-2.076s-.008,0,0-.01c-.2-.046-.386-.1-.57-.154-1.181-.346-2.106-.663-2.737-.893-.655-.241-1.01-.4-1.01-.4-3.168,1.673-5.3,3.162-11.217,18.306-.291.745-.591,1.525-.908,2.344-2.528,6.627-5.54,14.98-8.511,24.032,7.951-.61,16.04-.771,24.112-.931" transform="translate(4.069 120.589)" fill="#3d85f9"/>
        <path id="Trazado_137247" data-name="Trazado 137247" d="M79.482,121.359s-3.468-12.528-9.829-20.815S56.74,91.678,46.525,98.617c0,0-6.874,4.177-11.05,2.182-4.556-2.171-7.261-6.579-12.657-4.765S10.706,114.658,9.006,122.259c0,0,9.187,11.05,11.5,12.205,0,0-.287,30.216.629,35.827,0,0,.349.152,1.007.4a57.826,57.826,0,0,0,21.721,3.1c13.457-.577,21.552-.577,23.481-2.122,0,0,4.433-17.347,1.734-42.015Z" transform="translate(8.099 84.385)" fill="#21a5a5"/>
        <path id="Trazado_137248" data-name="Trazado 137248" d="M36.954,92.311c-.361,1.3-.832,3-1.225,4.5-.376,1.407-.67,2.627-.756,3.176-.253,1.673-2.18,3.6-4.494,4.37s-5.658-.517-6.553-2.19c-.708-1.311-1.181-4.387-1.673-7.17-.131-.748-.262-1.474-.4-2.133a22.662,22.662,0,0,0,7.594.952,22.079,22.079,0,0,0,7.508-1.5" transform="translate(19.652 83.018)" fill="#f0875e"/>
        <path id="Trazado_137249" data-name="Trazado 137249" d="M16.734,69.319a4.023,4.023,0,0,1,.085.5c1.82-2.891,4.494-7.556,3.852-9.073-.955-2.26-9.54-2.218-10.7-1.062-.864.864,1.5,6.965,2.754,10,.084-.224.135-.357.135-.357Z" transform="translate(8.803 52.971)" fill="#ffb859"/>
        <path id="Trazado_137250" data-name="Trazado 137250" d="M13.559,67.738c-.015-.065-.023-.131-.032-.2-1.987,2.52-6.009,7.474-5.715,8.368.387,1.157,7.687,2.217,9.288,1.06,1.189-.857.615-6.412.239-9.229a5,5,0,0,1-3.78,0" transform="translate(7.011 60.74)" fill="#ffb859"/>
        <path id="Trazado_137251" data-name="Trazado 137251" d="M15.926,64.883a3.963,3.963,0,0,0-.085-.5H11.972s-.053.133-.137.357c-.365.984-1.311,3.795-.991,5.632.009.066.017.135.032.2a5.007,5.007,0,0,0,3.78,0s1.544-3.316,1.271-5.692" transform="translate(9.694 57.905)" fill="#ffb859"/>
        <path id="Trazado_137252" data-name="Trazado 137252" d="M42.8,66.14s.186.182.452.49c1.075-3.951,2.5-9.618,1.909-9.987-.832-.522-11.4,3.814-11.426,5.643-.006.517,2.737,3.086,5.1,5.2a.437.437,0,0,1,.006-.049,8.788,8.788,0,0,1,3.962-1.3" transform="translate(30.336 50.902)" fill="#ffb859"/>
        <path id="Trazado_137253" data-name="Trazado 137253" d="M41.659,64.386s-2.393,2.346-4.08,1.362a52.274,52.274,0,0,0,1.753,8.338s10.591-2.518,10.6-3.607c0-.811-5.5-4.359-8.27-6.093" transform="translate(33.796 57.904)" fill="#ffb859"/>
        <path id="Trazado_137254" data-name="Trazado 137254" d="M40.849,62.114c-.266-.31-.452-.49-.452-.49a8.782,8.782,0,0,0-3.964,1.3l0,.049c-.313,2.03,2.179,5.25,2.179,5.25l.028.013c1.687.984,4.08-1.362,4.08-1.362.3-1.949-1.115-3.884-1.867-4.758" transform="translate(32.737 55.418)" fill="#ffb859"/>
        <path id="Trazado_137255" data-name="Trazado 137255" d="M16.177,78.233a7.674,7.674,0,0,1,6.264-5.377c3.854-.691,5.878.655,5.495,1.812s-3.278.194-6.46,1.254a30.45,30.45,0,0,0-5.3,2.311" transform="translate(14.548 65.352)" fill="#85402b"/>
        <path id="Trazado_137256" data-name="Trazado 137256" d="M41.96,75.873c-.771-1.259-1.734-2.61-5.4-3.48s-5.609,1.354-5.552,2.365,2.6.144,5.474.433,5.474.682,5.474.682" transform="translate(27.889 64.928)" fill="#85402b"/>
        <path id="Trazado_137257" data-name="Trazado 137257" d="M30.414,92.082a2.19,2.19,0,0,1-.245-.013,5.522,5.522,0,0,1-3.552-2.006.291.291,0,0,1,.1-.4.294.294,0,0,1,.4.1,5,5,0,0,0,3.1,1.726.836.836,0,0,0,.669-.131c.408-.724-.179-9.77-.65-15.3a.289.289,0,1,1,.575-.049c.3,3.485,1.208,14.929.509,15.728a1.15,1.15,0,0,1-.912.336" transform="translate(23.903 68.124)" fill="#11100e"/>
        <path id="Trazado_137258" data-name="Trazado 137258" d="M29.033,89.934a5.081,5.081,0,0,1-.756-.055c-3.066-.45-4.976-3.461-5.054-3.588a.289.289,0,1,1,.49-.306c.019.028,1.852,2.912,4.651,3.322a5.864,5.864,0,0,0,4.743-1.747.289.289,0,1,1,.382.433,6.774,6.774,0,0,1-4.456,1.941" transform="translate(20.845 77.205)" fill="#11100e"/>
        <path id="Trazado_137259" data-name="Trazado 137259" d="M36.954,92.311c-.361,1.3-.832,3-1.225,4.5A16.679,16.679,0,0,1,29.4,98.45c-2.608.063-5.421-1.958-7.147-3.455-.131-.748-.262-1.474-.4-2.133a22.662,22.662,0,0,0,7.594.952,22.079,22.079,0,0,0,7.508-1.5" transform="translate(19.652 83.018)" fill="#b94734"/>
        <path id="Trazado_137260" data-name="Trazado 137260" d="M15.188,123.162h-.006a.287.287,0,0,1-.283-.294,130.1,130.1,0,0,1,1.242-13.227.288.288,0,1,1,.57.078,130.779,130.779,0,0,0-1.233,13.159.291.291,0,0,1-.291.285" transform="translate(13.399 98.378)" fill="#11100e"/>
        <path id="Trazado_137261" data-name="Trazado 137261" d="M42.359,120.133a.292.292,0,0,1-.289-.26,43.474,43.474,0,0,0-2.957-10.832.29.29,0,1,1,.539-.211,44.071,44.071,0,0,1,2.993,10.988.285.285,0,0,1-.26.313l-.027,0" transform="translate(35.159 97.709)" fill="#11100e"/>
        <path id="Trazado_137262" data-name="Trazado 137262" d="M13.811,163.956l-.028,0a.287.287,0,0,1-.258-.315c1.411-14,6.247-27.09,7.331-28.843a.288.288,0,0,1,.49.3c-1.029,1.669-5.867,14.927-7.246,28.6a.29.29,0,0,1-.289.258" transform="translate(12.161 121.1)" fill="#11100e"/>
        <path id="Trazado_137263" data-name="Trazado 137263" d="M19.627,152.366l-.027,0a.281.281,0,0,1-.258-.311,41.569,41.569,0,0,1,4.4-14.507.289.289,0,1,1,.5.283,40.936,40.936,0,0,0-4.334,14.279.284.284,0,0,1-.287.258" transform="translate(17.393 123.566)" fill="#11100e"/>
        <path id="Trazado_137264" data-name="Trazado 137264" d="M27.081,153.464a.286.286,0,0,1-.285.222.189.189,0,0,1-.061-.008.288.288,0,0,1-.217-.346c1.263-5.366,1.066-12.306.648-17.375.194,0,.387-.011.579-.027.424,5.113.608,12.1-.665,17.533" transform="translate(23.842 122.246)" fill="#11100e"/>
        <path id="Trazado_137265" data-name="Trazado 137265" d="M40.452,164.445h-.006a.288.288,0,0,1-.285-.3c.253-13.147-5.318-26.216-5.373-26.346a.29.29,0,0,1,.532-.232c.057.133,5.675,13.32,5.419,26.589a.287.287,0,0,1-.287.285" transform="translate(31.264 123.567)" fill="#11100e"/>
        <path id="Trazado_137266" data-name="Trazado 137266" d="M22.736,78.84c0,1.622-.581,2.94-1.3,2.94s-1.3-1.318-1.3-2.94.583-2.936,1.3-2.936,1.3,1.312,1.3,2.936" transform="translate(18.107 68.262)" fill="#11100e"/>
        <path id="Trazado_137267" data-name="Trazado 137267" d="M33.95,78.867c0,1.624-.583,2.942-1.3,2.942s-1.3-1.318-1.3-2.942.583-2.938,1.3-2.938,1.3,1.316,1.3,2.938" transform="translate(28.192 68.285)" fill="#11100e"/>
        <path id="Trazado_137268" data-name="Trazado 137268" d="M16.878,151.178c-.363.192-1.764,1.111-2.1,1.318-2.568-13.759.34-29.742,1.056-37.411a2.819,2.819,0,0,0,.424.268s-.292,30.214.625,35.825" transform="translate(12.351 103.499)" fill="#b94734"/>
        <path id="Trazado_137269" data-name="Trazado 137269" d="M34.436,150.127s-2.659,14.722,3.181,16.606c0,0,2.078-2.653.682-8.767s-3.863-7.839-3.863-7.839" transform="translate(30.426 135.013)" fill="#2c2c2b"/>
        <path id="Trazado_137270" data-name="Trazado 137270" d="M102.292,148.956s1.024,12.175-5.6,15.688c0,0-1.837-1.3.811-7.846s4.788-7.842,4.788-7.842" transform="translate(86.4 133.96)" fill="#2c2c2b"/>
        <path id="Trazado_137271" data-name="Trazado 137271" d="M37.368,171.81c3.21,0,7.9-4.7,6.047-9.075s-6.218-9.557-6.047-11.763c.294-3.829-2.059-7.14-5.252-4.959s-8.57,25.8,5.252,25.8" transform="translate(25.507 130.688)" fill="#f0875f"/>
        <path id="Trazado_137272" data-name="Trazado 137272" d="M42.293,152.6c-.129-.915-.275-1.6-.275-1.6s.089.712.275,1.6" transform="translate(37.788 135.791)" fill="#ffb9ad"/>
        <path id="Trazado_137273" data-name="Trazado 137273" d="M87.476,149.937c-.2-.435-.338-.716-.338-.716s.123.293.338.716" transform="translate(78.365 134.198)" fill="#ffb9ad"/>
        <path id="Trazado_137274" data-name="Trazado 137274" d="M42.293,152.6c-.129-.915-.275-1.6-.275-1.6s.089.712.275,1.6" transform="translate(37.788 135.791)" fill="#52b7cb"/>
        <path id="Trazado_137275" data-name="Trazado 137275" d="M87.476,149.937c-.2-.435-.338-.716-.338-.716s.123.293.338.716" transform="translate(78.365 134.198)" fill="#52b7cb"/>
        <path id="Trazado_137276" data-name="Trazado 137276" d="M111.862,144.069c-3.36.841-5.377,5.041-6.889,8.57-1.417,3.311-3.576,5.73-5.778,5.88-.591,1.267-1.2,2.737-1.785,4.37-1.835,5.178-.908,6.262-.895,6.277,2.3,2.222,7.217,5.345,10.642,3.141,4.33-2.792,8.906-11.1,8.906-18.661s-.841-10.42-4.2-9.578" transform="translate(86.578 129.437)" fill="#f0875f"/>
        <path id="Trazado_137277" data-name="Trazado 137277" d="M147.228,149.644c-3.293-1.649-8.509-4.321-12.786-6.524.433,3.388.817,6.023,1.694,7.7,1.85,3.529,4.2,7.9,2.353,8.572-1.373.5-2.743-1.778-3.358-2.984.644,1.4,1.905,4.406,1,4.663-1.176.336-2.688-4.2-2.688-4.2s1.176,5.041,0,5.546-3.36-6.049-3.36-6.049,1.174,5.544,0,5.882-3.362-5.546-4.034-6.386-5.377,4.37-6.891,2.857,4.874-7.732,3.867-10.082a41.889,41.889,0,0,0-3.531-5.88,67.548,67.548,0,0,1-7.394,3.022c-5.88,2.182-16.129,4.034-25.614,2.015-8.291-1.759-9.99-3.01-11.618-5.764-3.527,1.3-10.036,3.9-17.715,6.272-1.764.543-3.592,1.157-5.409,1.8a11.211,11.211,0,0,0-.976,2.566c.169.67,4.368,3.861,3.7,5.039s-2.858.839-3.865.672-5.546,1.176-5.546,1.176,2.184,5.882.336,6.216c-1.466.266-3.461-4.019-4.141-11.593-3.236,1.366-6.044,2.623-7.105,3.233a23.67,23.67,0,0,1,3.516,6.684c1.679,4.536-.334,9.922-.334,9.922s4.2-.849,9.073-2.029,21.341-2.013,35.96-2.855,18.148,1.347,40.161,1.74,29.857,0,29.857,0-.942-1.1.893-6.277c.581-1.632,1.195-3.1,1.785-4.37a23.109,23.109,0,0,1,2.919-5.039c.672-.67-4.367-2.351-10.752-5.544" transform="translate(30.712 127.729)" fill="#3d85f9"/>
        <path id="Trazado_137278" data-name="Trazado 137278" d="M132.885,174.379c-.877-1.675-1.265-4.311-1.7-7.7a115.466,115.466,0,0,0-2.334-13.814c-2.52-10.241-9.578-27.31-18.15-32.471-4.042-2.435-9.381-3.84-15.656-4.469-.306-.04-.615-.068-.929-.093a14.591,14.591,0,0,1-3.578,2.085c-5.882,2.355-11.933,4.541-18.989-1.009-.228-.175-.439-.349-.651-.528-.262.025-.534.068-.815.116-5.725,1-15.453,6.575-21.219,15.7-6.049,9.578-10.925,27.394-11.09,38.991a63.25,63.25,0,0,0,.232,6.545c.676,7.58,2.672,11.871,4.137,11.6.661-.123.807-.959.716-1.979a19.713,19.713,0,0,0-1.016-4.148c.044.1.114.258.211.473l.006.008c.665,1.5,2.526,5.379,3.614,4.971.857-.323-.253-1.875-.494-3.542a3.122,3.122,0,0,0,.458,1.073,3.83,3.83,0,0,0,.929.988,1.976,1.976,0,0,0,1.29.477c1.347-.169-1.512-5.882-.5-5.713s3.191.5,3.867-.669-3.529-4.372-3.7-5.043a11.313,11.313,0,0,1,.976-2.568c1.755-3.962,5.451-11.618,7.426-16.929,2.686-7.225,4.2-11.759,6.553-9.073S68.906,160.6,70.9,164.3c.253.462.484.9.722,1.288,1.628,2.762,3.328,4.008,11.622,5.768,9.481,2.019,19.73.167,25.611-2.015a67.577,67.577,0,0,0,7.4-3.024,42.014,42.014,0,0,1,3.529,5.882c1.007,2.349-5.379,8.572-3.869,10.082s6.216-3.7,6.893-2.857,2.855,6.72,4.032,6.384c.57-.163.583-1.563.448-2.957-.089-.959-.256-1.918-.357-2.463-.03-.173-.055-.3-.07-.384.256.735,2.239,6.443,3.339,5.971.684-.291.566-2.122.353-3.6v0c-.129-.9-.3-1.668-.34-1.877.074.2.34.971.71,1.791l.006.011c.543,1.2,1.3,2.532,1.96,2.34.9-.256-.363-3.263-1.009-4.663a12.694,12.694,0,0,0,.792,1.348,7.2,7.2,0,0,0,.68.86c.575.613,1.231,1.01,1.886.775,1.852-.672-.505-5.043-2.349-8.572m-88.043,8.672c.065.334.22,1.33.327,2.028-.141-.682-.281-1.7-.327-2.028m86.778-3.628c.046.082.095.19.152.313-.066-.123-.116-.232-.152-.313" transform="translate(33.965 104.169)" fill="#f0875f"/>
        <path id="Trazado_137279" data-name="Trazado 137279" d="M79.744,115.923c-.67.862-6.3,7.738-14.8,6.908-6.482-.631-9.166-4.294-10.163-6.336.283-.049.555-.091.817-.116.213.179.422.353.65.528,7.058,5.548,13.107,3.364,18.989,1.009a14.7,14.7,0,0,0,3.58-2.085c.313.025.621.053.927.093" transform="translate(49.266 104.169)" fill="#bb4a36"/>
        <path id="Trazado_137280" data-name="Trazado 137280" d="M86.231,161.094a.075.075,0,0,1-.04-.008.184.184,0,0,1-.144-.222c.141-.633-.682-1.8-1.635-3.143-.463-.653-.988-1.4-1.47-2.175-.942-1.518-1.176-3.265-1.531-5.911-.218-1.641-.49-3.675-1.016-6.167a51.86,51.86,0,0,0-5.187-14.063.186.186,0,0,1,.074-.254.191.191,0,0,1,.256.074,52.329,52.329,0,0,1,5.231,14.165c.526,2.509.8,4.551,1.018,6.192.348,2.6.577,4.317,1.478,5.764.475.769,1,1.506,1.455,2.154,1.047,1.48,1.871,2.65,1.7,3.443a.189.189,0,0,1-.184.15" transform="translate(67.614 116.128)" fill="#2c2c2b"/>
        <path id="Trazado_137281" data-name="Trazado 137281" d="M43.548,156.134a3.809,3.809,0,0,1-.929-.99c-.161-.351-.311-.714-.458-1.071l0-.023a14.99,14.99,0,0,1-1.033-3.493.183.183,0,0,1,.165-.207.191.191,0,0,1,.207.169,8.149,8.149,0,0,0,.311,1.392,23.32,23.32,0,0,0,1.74,4.222" transform="translate(36.983 135.213)" fill="#2c2c2b"/>
        <path id="Trazado_137282" data-name="Trazado 137282" d="M41.235,156.305a30.538,30.538,0,0,1-1.658-5.73.19.19,0,0,1,.372-.072c.006.025.173.934.481,2.135-.1-.215-.167-.374-.213-.473a19.586,19.586,0,0,1,1.018,4.141" transform="translate(35.589 135.213)" fill="#2c2c2b"/>
        <path id="Trazado_137283" data-name="Trazado 137283" d="M86.51,154.777c-1.185-4.589-3.056-7.172-3.331-7.392a.192.192,0,0,1-.04-.26.188.188,0,0,1,.258-.051,16.356,16.356,0,0,1,2.756,5.24c.1.545.268,1.5.357,2.463" transform="translate(74.739 132.239)" fill="#2c2c2b"/>
        <path id="Trazado_137284" data-name="Trazado 137284" d="M87.488,151.74c.044.209.211.976.342,1.875a15.733,15.733,0,0,0-2.518-5.51.19.19,0,0,1,.3-.239,16.3,16.3,0,0,1,2.591,5.668c-.368-.82-.634-1.588-.71-1.793" transform="translate(76.686 132.916)" fill="#2c2c2b"/>
        <path id="Trazado_137285" data-name="Trazado 137285" d="M89.394,153.426a7.2,7.2,0,0,1-.68-.86,24.55,24.55,0,0,0-1.926-4.4.182.182,0,0,1-.141-.137.189.189,0,0,1,.137-.232h.028c.541,0,1.835,3.481,2.581,5.628" transform="translate(77.919 132.919)" fill="#2c2c2b"/>
        <path id="Trazado_137286" data-name="Trazado 137286" d="M55.956,133.666a.81.81,0,1,1-.8-.944.88.88,0,0,1,.8.944" transform="translate(48.886 119.36)" fill="#2c2c2b"/>
        <path id="Trazado_137287" data-name="Trazado 137287" d="M72.971,133.167c0,.549-.236.991-.526.991s-.524-.443-.524-.991.234-.99.524-.99.526.444.526.99" transform="translate(64.68 118.87)" fill="#2c2c2b"/>
        <path id="Trazado_137288" data-name="Trazado 137288" d="M95.79,116.22s1.064-11.069-4.036-17.59-11.495-7.9-15.5-7.506c-6.758.669-21.873,3.956-23.571,25.1,0,0-2.764-2.967-5.523,0s2.76,10.08,4.885,10.672c0,0-1.4,6.108,6.612,12.414.264.215.536.418.821.623,8.919,6.522,16.568,3.956,24,1.187A18.982,18.982,0,0,0,88,138.666c4.828-3.514,7.837-9.029,8.006-13.951,0,0,4.245-2.965,5.73-5.926s-1.915-7.115-5.947-2.57" transform="translate(41.727 81.895)" fill="#f0875f"/>
        <path id="Trazado_137289" data-name="Trazado 137289" d="M72.8,108.351h-.036a.218.218,0,0,1-.2-.249c.12-.779,2.076-2.893,2.549-3.179a.249.249,0,0,1,.33.07.21.21,0,0,1-.072.3,9.981,9.981,0,0,0-2.338,2.868.225.225,0,0,1-.232.188" transform="translate(65.252 94.328)" fill="#2c2c2b"/>
        <path id="Trazado_137290" data-name="Trazado 137290" d="M49.448,108.13a.23.23,0,0,1-.237-.2c-.076-.651-1.187-1.552-1.6-1.848a.21.21,0,0,1-.047-.31.247.247,0,0,1,.336-.042c.169.118,1.677,1.2,1.791,2.16a.222.222,0,0,1-.211.239Z" transform="translate(42.727 95.044)" fill="#2c2c2b"/>
        <path id="Trazado_137291" data-name="Trazado 137291" d="M62.213,111.5c-.118,0-.234-.008-.357-.011-2.317-.131-3.155-.872-3.451-1.474a1.886,1.886,0,0,1,.408-2.044.254.254,0,0,1,.336-.04.208.208,0,0,1,.044.311,1.469,1.469,0,0,0-.348,1.588c.338.693,1.421,1.126,3.043,1.216,2.065.114,3.159-.891,3.468-1.789.165-.484.07-.862-.108-.965a.213.213,0,0,1-.074-.3.249.249,0,0,1,.329-.068,1.2,1.2,0,0,1,.308,1.472,3.545,3.545,0,0,1-3.6,2.108" transform="translate(52.388 97.023)" fill="#2c2c2b"/>
        <path id="Trazado_137292" data-name="Trazado 137292" d="M60.146,97.823a.244.244,0,0,1-.226-.15c-.1-.258-2.46-6.549-.826-8.984a.239.239,0,0,1,.327-.066.2.2,0,0,1,.08.3c-1.516,2.26.847,8.543.872,8.606a.221.221,0,0,1-.146.285.191.191,0,0,1-.08.013" transform="translate(52.628 79.666)" fill="#2c2c2b"/>
        <path id="Trazado_137293" data-name="Trazado 137293" d="M60.722,96.325h0a.23.23,0,0,1-.234-.234c.013-.494.144-4.942.912-5.766a.255.255,0,0,1,.336-.025.218.218,0,0,1,.023.319c-.49.53-.746,3.647-.792,5.489a.232.232,0,0,1-.241.217" transform="translate(54.396 81.163)" fill="#2c2c2b"/>
        <path id="Trazado_137294" data-name="Trazado 137294" d="M57.569,106.483c0,1.2-.6,2.173-1.333,2.173s-1.331-.972-1.331-2.173.593-2.175,1.331-2.175,1.333.974,1.333,2.175" transform="translate(49.377 93.807)" fill="#2c2c2b"/>
        <path id="Trazado_137295" data-name="Trazado 137295" d="M67.407,106.483c0,1.2-.6,2.173-1.333,2.173s-1.333-.972-1.333-2.173.6-2.175,1.333-2.175,1.333.974,1.333,2.175" transform="translate(58.222 93.807)" fill="#2c2c2b"/>
        <path id="Trazado_137296" data-name="Trazado 137296" d="M71.563,105.065a.371.371,0,0,1-.3-.16c-2.7-3.827-6.053-2.359-6.19-2.294a.371.371,0,0,1-.311-.672c.04-.015,4.047-1.8,7.105,2.539a.375.375,0,0,1-.087.52.391.391,0,0,1-.215.066" transform="translate(58.047 91.337)" fill="#2c2c2b"/>
        <path id="Trazado_137297" data-name="Trazado 137297" d="M52.47,106.374h-.015a.369.369,0,0,1-.355-.387c.158-3.523,4.211-4.433,6.49-4.433l.177,0a.371.371,0,0,1-.009.743h-.046c-.505,0-5.707.089-5.871,3.726a.368.368,0,0,1-.37.349" transform="translate(46.855 91.33)" fill="#2c2c2b"/>
        <path id="Trazado_137298" data-name="Trazado 137298" d="M66.011,117.073c-6.6,0-12.135-6.579-12.378-6.87a.372.372,0,0,1,.572-.477c.057.074,5.975,7.159,12.549,6.577,6.558-.543,10.367-6.481,10.406-6.536a.367.367,0,0,1,.507-.118.371.371,0,0,1,.122.511c-.165.258-4.042,6.306-10.974,6.881-.27.019-.538.03-.8.03" transform="translate(48.157 98.561)" fill="#2c2c2b"/>
      </g>
    </g>
  </g>
</svg>
