<svg xmlns="http://www.w3.org/2000/svg" xmlns:xlink="http://www.w3.org/1999/xlink" width="499.609" height="309.875" viewBox="0 0 499.609 309.875">
  <defs>
    <clipPath id="clip-path">
      <rect id="Rectángulo_38152" data-name="Rectángulo 38152" width="394.542" height="287.394" fill="none"/>
    </clipPath>
  </defs>
  <g id="_168" data-name="168" transform="translate(-12184 6429)">
    <g id="Grupo_158786" data-name="Grupo 158786" transform="translate(11932 -9673.678)">
      <g id="Grupo_85023" data-name="Grupo 85023" transform="translate(252 3244.678)">
        <rect id="Rectángulo_34651" data-name="Rectángulo 34651" width="499.609" height="201.281" transform="translate(0 108.594)" fill="#6b8dff"/>
        <g id="Grupo_84254" data-name="Grupo 84254" transform="translate(22.106 0)">
          <g id="Grupo_84000" data-name="Grupo 84000" transform="translate(0)">
            <path id="Trazado_118280" data-name="Trazado 118280" d="M236.858,308.023q-1.951-.241-3.924-.4c-15.443-1.217-30.87,1.941-46.386,2.368-27.964.768-55.359-7.466-78.237-19.536s-41.789-27.828-59.888-43.812c-19.458-17.186-39.345-37.482-35.888-59.865,2.52-16.313,17.156-30.061,32.688-41.653,19.647-14.668,41.57-27.435,62.593-40.945,20.909-13.435,37.578-31.2,58.744-43.821,41.051-24.473,104.4-27.836,151.382-12.132C348.09,58.3,372.9,75.379,400.377,89.087c19.651,9.807,41.586,18.513,54.205,33.462,15.29,18.114,13.474,41.368,8.372,62.454-8.633,35.677-26,71.272-59.183,97.676s-84.335,42.012-131.221,32.986C260.559,313.356,249.024,309.533,236.858,308.023Z" transform="translate(-12.141 -38.664)" fill="#c4d1ff"/>
          </g>
        </g>
      </g>
    </g>
    <g id="Grupo_159107" data-name="Grupo 159107" transform="translate(12236 -6418)">
      <g id="Grupo_159106" data-name="Grupo 159106" clip-path="url(#clip-path)">
        <path id="Trazado_136940" data-name="Trazado 136940" d="M262.378,184.927s8.422,11.25,16.443,13.655,22.293-34.207,22.293-36.871-18.349-15.625-23.591-18.61-8.155-4.587-9.611,0-5.534,41.826-5.534,41.826" fill="#f9b3a2"/>
        <rect id="Rectángulo_38148" data-name="Rectángulo 38148" width="87.101" height="1.748" transform="translate(257.57 215.189) rotate(-64.93)" fill="#2f3f4f"/>
        <path id="Trazado_136941" data-name="Trazado 136941" d="M172.806,79.588l-3.471-.4c.077-.708,1.7-17.45-16.52-19.526-18.609-2.132-23.135,12.465-23.321,13.086l-3.348-1c.051-.181,5.624-18.015,27.065-15.563,11.322,1.291,16.064,7.616,18.049,12.7a24.565,24.565,0,0,1,1.546,10.7" fill="#f57c64"/>
        <path id="Trazado_136942" data-name="Trazado 136942" d="M47.251,282.492,74,287.394h9.94c1.248-9.1,6.854-50.15,6.6-51.725-.291-1.771-8.592-43.42-8.592-43.42l-24.022,6.49a11.037,11.037,0,0,0-7.973,8.639L38.389,269.62a11.036,11.036,0,0,0,8.862,12.872" fill="#ffcfa6"/>
        <path id="Trazado_136943" data-name="Trazado 136943" d="M69.419,286.684c.174.035.332.07.507.105l1.206.209,2.288.4H154.8l36.052-208.75-53.439-9.227a41.5,41.5,0,0,0-26.038,3.95c-.664.332-1.31.681-1.957,1.048a41.637,41.637,0,0,0-20.184,28.991L59.982,272.7a12.2,12.2,0,0,0,9.437,13.98" fill="#f57c64"/>
        <path id="Trazado_136944" data-name="Trazado 136944" d="M111.377,73.367,71.132,287l-1.206-.21c-.174-.035-.332-.07-.506-.105l40-212.268c.646-.367,1.293-.717,1.957-1.049" fill="#2f3f4f"/>
        <path id="Trazado_136945" data-name="Trazado 136945" d="M144.014,75.978s17.117,38.655,17.054,40.1-27.552,19.571-27.552,19.571S95.158,168.3,77.855,176.611c-19.367,9.3-32.307-17.6-32.307-17.6s37.465-45.494,56.258-61.332a106.475,106.475,0,0,1,22.907-14.434c.539-.266,1.087-.518,1.607-.749a114.735,114.735,0,0,1,17.694-6.518" fill="#f9b3a2"/>
        <path id="Trazado_136946" data-name="Trazado 136946" d="M21.068,105.621s3.743,8.785,8.643,19.792c.235.525.469,1.05.722,1.591.726,1.643,1.471,3.32,2.255,5.028.234.525.485,1.049.721,1.591,6.365,14.012,13.485,28.946,16.9,33.533,10.116,13.576,23.925,11.312,28.072,9.214,8.852-4.45,3.992-29.834,3.992-29.834l-15.683-28.58-.856-1.528-2.644-4.84-.858-1.545L52.115,91.427,27.341,95.59Z" fill="#f9b3a2"/>
        <path id="Trazado_136947" data-name="Trazado 136947" d="M45.321,80.2s-1.817,25.129-2.254,25.164-22,.262-22,.262-10.1-15.9-12.181-20.655C5.216,76.618,5.023,71.882,5.9,66.622c.123-.8.3-1.608.472-2.464.07-.42.158-.821.245-1.258.07-.332.157-.647.245-.944a11.237,11.237,0,0,1,.821-2.062,12.693,12.693,0,0,1,1.887-2.8,12.513,12.513,0,0,1,1.258-1.276,5.954,5.954,0,0,1,.525-.437,11.633,11.633,0,0,1,1.4-1.048,25.834,25.834,0,0,1,3.407-1.975,2.349,2.349,0,0,1,.42-.157,6.19,6.19,0,0,1,1-.384,4.771,4.771,0,0,1,.716-.193,10.8,10.8,0,0,1,1.083-.209,12.581,12.581,0,0,1,4.212.07c4.456.856,6.536,4.456,8.668,7.723,2.009,3.111,3.967,6.222,5.924,9.367,2.394,3.862,4.788,7.724,7.147,11.621" fill="#f9b3a2"/>
        <path id="Trazado_136948" data-name="Trazado 136948" d="M28.475,68.736a.948.948,0,0,1-.437.105.852.852,0,0,1-.752-.419L17.57,51.82a4.814,4.814,0,0,1,.717-.192,10.743,10.743,0,0,1,1.083-.21L28.789,67.53a.883.883,0,0,1-.314,1.206" fill="#2f3f4f"/>
        <path id="Trazado_136949" data-name="Trazado 136949" d="M21.66,71.305a.833.833,0,0,1-.437.122.864.864,0,0,1-.751-.437l-9.122-15.6a11.606,11.606,0,0,1,1.4-1.048l9.226,15.78a.862.862,0,0,1-.314,1.188" fill="#2f3f4f"/>
        <path id="Trazado_136950" data-name="Trazado 136950" d="M14.845,73.891a1,1,0,0,1-.437.105.848.848,0,0,1-.751-.42l-6.8-11.62a11.28,11.28,0,0,1,.821-2.062l7.48,12.791a.883.883,0,0,1-.315,1.206" fill="#2f3f4f"/>
        <path id="Trazado_136951" data-name="Trazado 136951" d="M11.542,98.536.77,83.413a4.15,4.15,0,0,1,.972-5.788L37.088,52.448a4.15,4.15,0,0,1,5.788.972L53.648,68.543a4.149,4.149,0,0,1-.972,5.788L17.33,99.509a4.151,4.151,0,0,1-5.788-.973" fill="#2f3f4f"/>
        <path id="Trazado_136952" data-name="Trazado 136952" d="M59.128,95.534A25.228,25.228,0,0,0,59.1,92c-.62-7.711-7.465-16.3-8.757-23.911-.325-1.914-.475-3.949-1.507-5.564s-3.361-2.544-4.819-1.306a4.207,4.207,0,0,0-1.04,1.544c-1.991,4.5-.9,9.695-.914,14.627-.017,4.989-1.211,9.894-1.822,14.848s-.582,10.22,1.661,14.611a5.084,5.084,0,0,0,1.257,1.7,5.355,5.355,0,0,0,2.29.908c3.309.7,6.926,2.008,8.2-2.038,1.4-4.457,5.2-7.26,5.48-11.892" fill="#f9b3a2"/>
        <path id="Trazado_136953" data-name="Trazado 136953" d="M178.494,287.394l-3.142-72.427L175,206.806s-.769-1.1-1.975-2.761c-3.582-4.858-10.991-14.417-14.05-14.417-4.071,0-33.814,13.91-33.814,13.91s-.838,2.394-2.149,6.378c-3.408,10.4-10.013,31.578-12.966,48.441-.939,5.371-2.437,16.308-4.1,29.037Z" fill="#ffe7cf"/>
        <path id="Trazado_136954" data-name="Trazado 136954" d="M154.959,256.872c2.884,7.952,6.089,19.277,8.829,30.522h68.478L228.581,220.1l-.472-8.7-55.081-7.357-26.177-3.495s.244,4.788.821,11.743c1.066,12.984,3.3,33.57,7.287,44.579" fill="#ffe7cf"/>
        <path id="Trazado_136955" data-name="Trazado 136955" d="M179.42,258.09a23.1,23.1,0,0,1-3.777-.323.874.874,0,0,1-.706-1.013.864.864,0,0,1,1.012-.707c2.043.359,8.053.8,8.927-1.82,1.01-3.031,3.273-27.6,4.328-40.161a.886.886,0,0,1,.943-.8.87.87,0,0,1,.8.943c-.124,1.492-3.082,36.582-4.409,40.567-.908,2.722-4.33,3.31-7.115,3.31" fill="#2f3f4f"/>
        <path id="Trazado_136956" data-name="Trazado 136956" d="M173.859,287.394l6.6-74.535a.873.873,0,0,0-1.74-.154L172.1,287.394Z" fill="#2f3f4f"/>
        <path id="Trazado_136957" data-name="Trazado 136957" d="M228.581,220.1l-53.229-5.138-27.68-2.673-24.657-2.377c1.31-3.984,2.475-7.91,2.475-7.91s29.417-12.378,33.488-12.378c3.058,0,10.468,9.558,14.05,14.417l55.081,7.356Z" fill="#a66353"/>
        <rect id="Rectángulo_38149" data-name="Rectángulo 38149" width="18.659" height="1.747" transform="translate(214.618 223.318) rotate(-83.725)" fill="#ffe7cf"/>
        <rect id="Rectángulo_38150" data-name="Rectángulo 38150" width="18.659" height="1.748" transform="translate(138.939 217.466) rotate(-83.725)" fill="#ffe7cf"/>
        <path id="Trazado_136958" data-name="Trazado 136958" d="M238.35,190.921c-1.276,7.934-2.219,13.3-2.516,14.365a8.485,8.485,0,0,1-5.383,5.469,11.509,11.509,0,0,1-2.341.647l-90.521-8.3-7.444-.681L125.5,202s-7.024-1.677-7.024-16.234c0-3.6,1.922-12.67,4.822-24.255,6.729-27.069,18.751-67.943,23.994-85.541,1.59-5.347,2.551-8.545,2.551-8.545a.056.056,0,0,0,.035-.017c.07-.018.245-.053.524-.123.158-.035.315-.069.455-.1l1.17-.263c.455-.087.962-.192,1.538-.314q2.044-.393,3.827-.682a159.282,159.282,0,0,1,40.3-1.31,105.885,105.885,0,0,1,29.271,6.972c2.726,1.066,5.243,2.22,7.514,3.373,6.851,3.478,11.656,7.112,14.19,9.751,4.631,4.876-5.33,75.16-10.31,106.213" fill="#2f3f4f"/>
        <path id="Trazado_136959" data-name="Trazado 136959" d="M231,12.093a7.809,7.809,0,1,1-7.809-7.809A7.809,7.809,0,0,1,231,12.093" fill="#a66353"/>
        <path id="Trazado_136960" data-name="Trazado 136960" d="M220.01,12.093A7.809,7.809,0,1,1,212.2,4.284a7.809,7.809,0,0,1,7.809,7.809" fill="#a66353"/>
        <path id="Trazado_136961" data-name="Trazado 136961" d="M191.582,42.512a7.221,7.221,0,0,0,.664.611,2.676,2.676,0,0,0,.332.3,3.373,3.373,0,0,0,.384.332,20.252,20.252,0,0,0,6.833,3.653,19.512,19.512,0,0,0,3.39.716,19.982,19.982,0,0,0,21.529-14,20.707,20.707,0,0,0,.857-4.945v-.14a19.941,19.941,0,0,0-1.171-7.48l.017-.017a21.059,21.059,0,0,0-1.066-2.412s-.052-.1-.157-.279A19.946,19.946,0,0,0,186.531,22.5c-2.236,7.34,1.189,16.025,5.051,20.009" fill="#f9b3a2"/>
        <path id="Trazado_136962" data-name="Trazado 136962" d="M225.439,26.692s1.037,14.645-.871,23c-2.362,10.34-13.148,10.429-22.033,4.7S190.62,38.4,190.62,38.4s17.4-8.057,19.626-8.036,15.193-3.676,15.193-3.676" fill="#f9b3a2"/>
        <path id="Trazado_136963" data-name="Trazado 136963" d="M215.9,47.993a14.1,14.1,0,0,1-6.183-1.927.874.874,0,0,1,.9-1.5,12.519,12.519,0,0,0,5.285,1.679,11.627,11.627,0,0,0,4.335-.823.874.874,0,0,1,.725,1.59,13.172,13.172,0,0,1-5.06.98" fill="#2f3f4f"/>
        <path id="Trazado_136964" data-name="Trazado 136964" d="M211.438,51.9l-.14,6.029-.017.629v.017l-.1,5.47-.018.612-.244,10.817L197.93,77.819l-14.487-4.211L192.652,36.6l11.132,12.285Z" fill="#f9b3a2"/>
        <path id="Trazado_136965" data-name="Trazado 136965" d="M211.3,57.884l-.018.629v.017l-.1,5.47a18.976,18.976,0,0,1-2.744-1.345c-3.478-2.15-6.955-8.86-7.165-9.28a34.517,34.517,0,0,0,3.775,2.045c1.887.839,5.505,2.184,6.256,2.464" fill="#2f3f4f"/>
        <path id="Trazado_136966" data-name="Trazado 136966" d="M190.122,41.992a7.373,7.373,0,0,0,.664.612,2.85,2.85,0,0,0,.332.3c.289-.95.881-6.182,3.1-8.023,2.071-1.717,6.95-.833,7.136-1.811.838-4.631-.585-11.008,2.038-13.553s12.635-3.267,15.937-2.69a5.7,5.7,0,0,1,3.862,2.027c-2.411-4.474-5.978-8.395-11.22-9.986A20.748,20.748,0,0,0,186.532,22.5c-2.237,7.34-.272,15.5,3.59,19.489" fill="#a66353"/>
        <path id="Trazado_136967" data-name="Trazado 136967" d="M187.912,33.067c0,3.9,2.456,7.063,5.484,7.063s5.485-3.162,5.485-7.063S196.425,26,193.4,26s-5.484,3.163-5.484,7.064" fill="#f9b3a2"/>
        <path id="Trazado_136968" data-name="Trazado 136968" d="M185.82,64.006s3.517,7.01,13.06,8.649S211.3,66.767,211.3,66.767s2.259,13.1,2.259,13.751-4.91,6.226-13.869,5.789-17.259-1.966-19.552-3.823-3.714-10.7-3.168-11.14,8.852-7.338,8.852-7.338" fill="#2f3f4f"/>
        <path id="Trazado_136969" data-name="Trazado 136969" d="M244.5,81.1s12.057,7.9,26.619,30.912c12.462,19.69,15.728,28.98,15.728,28.98l-22.718,51.26-30.581-36.261Z" fill="#2f3f4f"/>
        <path id="Trazado_136970" data-name="Trazado 136970" d="M167.594,64.857s-5.26,29.533-5.26,36.732c0,2.2-1.451,7.253-3.46,13.212-2.534,7.444-5.924,16.3-8.476,22.735-2.062,5.225-3.547,8.842-3.547,8.842l-23.556,15.133-18.628,11.953L81.949,116.671s13.473-17.86,30.284-31.455a92.452,92.452,0,0,1,32.958-16.6c1.625-.454,3.2-.856,4.683-1.206.175-.035.35-.087.524-.122.158-.035.315-.07.455-.105.4-.087.8-.175,1.188-.244.524-.123,1.031-.228,1.52-.332q2.046-.393,3.827-.682a80.8,80.8,0,0,1,10.206-1.066" fill="#2f3f4f"/>
        <path id="Trazado_136971" data-name="Trazado 136971" d="M83.04,148.125a.872.872,0,0,1-.761-.445L71.838,129.16a.874.874,0,0,1,1.522-.858L83.8,146.822a.872.872,0,0,1-.333,1.19.857.857,0,0,1-.428.113" fill="#2f3f4f"/>
        <path id="Trazado_136972" data-name="Trazado 136972" d="M41.9,107.727a.871.871,0,0,1-.783-.487C41,107,38.26,101.38,38.26,96.283a38.385,38.385,0,0,1,2.2-11.138.874.874,0,0,1,1.642.6,37.32,37.32,0,0,0-2.092,10.54c0,4.694,2.652,10.13,2.677,10.184a.873.873,0,0,1-.783,1.26" fill="#2f3f4f"/>
        <path id="Trazado_136973" data-name="Trazado 136973" d="M188.781,217.66a.642.642,0,0,1-.075,0l-21.331-1.82a.874.874,0,0,1-.795-.945l.809-9.462a.884.884,0,0,1,.946-.8l21.328,1.821a.874.874,0,0,1,.795.944l-.807,9.462a.868.868,0,0,1-.307.594.88.88,0,0,1-.563.206M168.4,214.169l19.588,1.673.658-7.722-19.586-1.672Z" fill="#fff"/>
        <path id="Trazado_136974" data-name="Trazado 136974" d="M124.772,161.428a.874.874,0,0,1-.579-1.528l9.6-8.5a.874.874,0,1,1,1.157,1.309l-9.6,8.5a.866.866,0,0,1-.578.219" fill="#0f0a1c"/>
        <path id="Trazado_136975" data-name="Trazado 136975" d="M242.936,164.508a.843.843,0,0,1-.282-.047.874.874,0,0,1-.546-1.108l13.98-41.067a.875.875,0,0,1,1.656.564l-13.98,41.066a.877.877,0,0,1-.828.592" fill="#0f0a1c"/>
        <path id="Trazado_136976" data-name="Trazado 136976" d="M158.874,114.8a193.472,193.472,0,0,1-2.255,28.834,208.174,208.174,0,0,1-19.03,59.467c-23.119,47.427-57,77.31-57.475,77.711a3.493,3.493,0,1,1-4.578-5.277c.437-.384,32.241-28.467,54.609-73.115A202.312,202.312,0,0,0,149.7,142.568c.262-1.695.489-3.39.7-5.033,3.461-27.453,0-49.122-3.11-61.564-.751-3.006-1.485-5.47-2.1-7.357,1.625-.455,3.2-.857,4.683-1.206.175-.035.35-.087.524-.123.158-.034.315-.069.455-.1.314-.07.7-.158,1.171-.263l.017.018c2.6,8.126,6.868,24.919,6.833,47.864" fill="#ffcfa6"/>
        <path id="Trazado_136977" data-name="Trazado 136977" d="M238.35,190.921c-1.276,7.934-2.219,13.3-2.516,14.365a8.485,8.485,0,0,1-5.383,5.469c.926-17.055,3.058-63.7.437-96.567-2.167-27.3-3.355-38.235-3.932-42.6,2.726,1.066,5.243,2.22,7.514,3.373.822,7.008,1.8,18.768,3.39,38.672,1.923,24.063,1.329,55.326.49,77.292" fill="#ffcfa6"/>
        <path id="Trazado_136978" data-name="Trazado 136978" d="M368.019,78.635a42.023,42.023,0,0,1,17.1,23.734c4.369,16.164,11.8,70.337,8.676,82.806-3.219,12.868-27.835,19.7-35.538-2.792s-14.042-43.754-13.577-45.938,23.336-57.81,23.336-57.81" fill="#f9b3a2"/>
        <path id="Trazado_136979" data-name="Trazado 136979" d="M359.689,180.965H286.738s-6.123-36.907-6.123-56.794c0-19.869-1.945-35.01,9.414-44.884,5.627-4.893,17.829-8.991,25.413-11.945.559-.209,1.119-.419,1.66-.629,6.991-2.621,12.443-4.141,12.443-4.141s8.126,0,22.944,5.539A46.786,46.786,0,0,1,364.984,75.9c.577.489,1.171,1,1.747,1.521,6.291,5.7,11.691,13.053,12.181,20.1.873,12.459-19.223,83.443-19.223,83.443" fill="#f9b3a2"/>
        <path id="Trazado_136980" data-name="Trazado 136980" d="M329.914,46.751a7.044,7.044,0,0,0,.649.6,2.5,2.5,0,0,0,.325.29,3.336,3.336,0,0,0,.375.325,19.777,19.777,0,0,0,6.681,3.571,19.064,19.064,0,0,0,3.314.7,19.537,19.537,0,0,0,21.048-13.684,20.19,20.19,0,0,0,.836-4.835v-.137A19.488,19.488,0,0,0,362,26.267l.015-.017a20.626,20.626,0,0,0-1.04-2.358s-.052-.1-.155-.274a19.5,19.5,0,0,0-35.842,3.571c-2.188,7.176,1.161,15.667,4.937,19.562" fill="#f9b3a2"/>
        <path id="Trazado_136981" data-name="Trazado 136981" d="M363.014,31.285s1.014,14.318-.851,22.483c-2.31,10.109-12.855,10.195-21.541,4.6s-11.649-15.632-11.649-15.632,17.013-7.877,19.188-7.856,14.853-3.594,14.853-3.594" fill="#f9b3a2"/>
        <path id="Trazado_136982" data-name="Trazado 136982" d="M349.327,55.933l-.137,5.894-.017.615v.017l-.1,5.348-.017.6-.239,10.575L336.12,81.269l-14.163-4.117,9-36.185,10.883,12.011Z" fill="#f9b3a2"/>
        <path id="Trazado_136983" data-name="Trazado 136983" d="M349.19,61.78l-.017.615v.017l-.1,5.348a18.54,18.54,0,0,1-2.682-1.316c-3.4-2.1-6.8-8.662-7-9.072a33.559,33.559,0,0,0,3.69,2c1.845.82,5.382,2.136,6.116,2.409" fill="#2f3f4f"/>
        <path id="Trazado_136984" data-name="Trazado 136984" d="M357.56,48.965l-10.842-.227s.384,2.817,4.889,3.5a5.365,5.365,0,0,0,5.953-3.269" fill="#fff"/>
        <path id="Trazado_136985" data-name="Trazado 136985" d="M328.486,46.243a7.31,7.31,0,0,0,.649.6,2.731,2.731,0,0,0,.325.291c.283-.929.861-6.044,3.034-7.844,2.025-1.678,6.372-9.387,6.553-10.343.82-4.528-.149-2.19,2.416-4.677s12.352-3.195,15.581-2.631a5.566,5.566,0,0,1,3.775,1.982c-2.357-4.374-5.844-8.208-10.969-9.762A20.286,20.286,0,0,0,324.976,27.19c-2.187,7.175-.266,15.158,3.51,19.053" fill="#2f3f4f"/>
        <path id="Trazado_136986" data-name="Trazado 136986" d="M326.326,37.517c0,3.814,2.4,6.906,5.362,6.906s5.362-3.092,5.362-6.906-2.4-6.906-5.362-6.906-5.362,3.092-5.362,6.906" fill="#f9b3a2"/>
        <path id="Trazado_136987" data-name="Trazado 136987" d="M353.64,20.438a37.712,37.712,0,0,1-.32,6.727,7.193,7.193,0,0,1-1.887,4.12H336.84l1.282-9.032s4.706-2.562,7.514-2.918,8,1.1,8,1.1" fill="#2f3f4f"/>
        <path id="Trazado_136988" data-name="Trazado 136988" d="M352.928,20.4a12.659,12.659,0,0,1,2.776,5.552,13.549,13.549,0,0,1,0,5.331h8.258s.925-4.975-1.709-8.747-9.325-2.136-9.325-2.136" fill="#2f3f4f"/>
        <path id="Trazado_136989" data-name="Trazado 136989" d="M337.2,15.846S336.058,5,328.228,1.58s-17.3-1.29-20.609,6.364c-2.416,5.587-4.876,11.532-9.859,13.953s-6.833,4.615-7.4,8.714l-.569,4.1,22.067,1.281a17.745,17.745,0,0,0,5.641-8.88c1.544-6.359-1.939-8.786,3.471-13.769s13.525,3.572,13.525,3.572Z" fill="#2f3f4f"/>
        <path id="Trazado_136990" data-name="Trazado 136990" d="M332.9,42.1a1.589,1.589,0,1,1-1.589-1.588A1.588,1.588,0,0,1,332.9,42.1" fill="#fff"/>
        <path id="Trazado_136991" data-name="Trazado 136991" d="M280.62,128.679s14.027,4.683,26.041-4.273c8.814-6.57,18.9-19.441,18.9-19.441l21.007,18.349,19.507-18.349s7.95,12.652,9.218,22.054-15.6,53.954-15.6,53.954L320.2,195.617,283.46,180.973Z" fill="#ffeae6"/>
        <path id="Trazado_136992" data-name="Trazado 136992" d="M382.294,287.394c-.769-20.246-1.392-36.007-1.7-42.409-1.065-22.473-9.261-42.307-15.08-53.735a111.078,111.078,0,0,0-5.819-10.276H283.452s-1.957,3.9-4.631,10.276c-4.281,10.135-10.4,26.544-13.351,43.425-1.3,7.462-2.426,27.5-3.368,52.719Z" fill="#4663ab"/>
        <path id="Trazado_136993" data-name="Trazado 136993" d="M316.435,218.527c-.189-.421-.539-1.2,39.037-104.474l1.632.625C346.417,142.564,318.577,215.527,318.1,218.24l-.732-.129Z" fill="#2f3f4f"/>
        <path id="Trazado_136994" data-name="Trazado 136994" d="M365.515,191.25H278.821c2.674-6.378,4.631-10.275,4.631-10.275H359.7a110.954,110.954,0,0,1,5.819,10.275" fill="#2f3f4f"/>
        <path id="Trazado_136995" data-name="Trazado 136995" d="M299.931,180.974l-.472,10.275-.21,4.4-1.747-.07.21-4.334.472-10.275Z" fill="#4663ab"/>
        <path id="Trazado_136996" data-name="Trazado 136996" d="M359.678,195.583l-1.747.07-.21-4.4-.472-10.275H359l.472,10.275Z" fill="#4663ab"/>
        <path id="Trazado_136997" data-name="Trazado 136997" d="M327.168,107.814l-1.713.419L315.442,67.342c.559-.21,1.119-.419,1.66-.629Z" fill="#ffeae6"/>
        <path id="Trazado_136998" data-name="Trazado 136998" d="M366.731,77.425V106.94h-1.747V75.9c.576.489,1.17,1,1.747,1.52" fill="#ffe7cf"/>
        <path id="Trazado_136999" data-name="Trazado 136999" d="M315.442,93.763s28.287,82.844,28.336,82.966c.528,1.324-5.647,6.839-6.555,7.761-5.628,5.711-14.45,12.869-23.086,10.745-7.23-1.778-11.062-9.838-14.261-15.819-8.614-16.109-12.411-29.027-17.913-46.4-.456-1.441-.91-2.883-1.343-4.331l12.54-20.446Z" fill="#f9b3a2"/>
        <path id="Trazado_137000" data-name="Trazado 137000" d="M369.465,103.756s-1.7,6.868-4.439,16.863c-.856,3.111-1.8,6.5-2.848,10.1-7.217,25.059-18.4,59.275-27.016,64.553-15.693,9.611-28.345-4.806-28.345-4.806l15.832-52.2,6.868-17.912,3.775-9.8,6.29-16.409Z" fill="#f9b3a2"/>
        <path id="Trazado_137001" data-name="Trazado 137001" d="M351.046,129.892l8.643,51.073,20.846,1.134s-1.226-30.582-1.6-32.766,2.688-26.868,2.688-26.868-4.514-23.664-4.806-29.2a33.732,33.732,0,0,0-2.663-10.154,53.333,53.333,0,0,0-3.283-7.748c-1.534-2.631-3.683-3.906-6.49-4.95a41.716,41.716,0,0,0-12.644-2.58c-3.7-.144-10.161,13.637-10.743,15.821s10.048,46.236,10.048,46.236" fill="#f9b3a2"/>
        <path id="Trazado_137002" data-name="Trazado 137002" d="M367.42,121.371l-3.128,10.013-2.114-.664-32.661-10.363,3.774-9.8,31.735,10.066Z" fill="#a66353"/>
        <path id="Trazado_137003" data-name="Trazado 137003" d="M351.128,119.291a7.317,7.317,0,1,0-7.318,7.318,7.318,7.318,0,0,0,7.318-7.318" fill="#fff"/>
        <path id="Trazado_137004" data-name="Trazado 137004" d="M334.431,110.016l-1.632-.626,3.67-9.561c.326-.852,1.31-4.919,2.353-9.226,1.5-6.194,3.2-13.216,4.164-15.94,1.785-5.032,7.317-7.027,7.551-7.108a.874.874,0,0,1,.58,1.648c-.049.017-4.983,1.81-6.483,6.044-.936,2.639-2.7,9.918-4.114,15.766-1.273,5.261-2.07,8.531-2.42,9.442Z" fill="#2f3f4f"/>
        <path id="Trazado_137005" data-name="Trazado 137005" d="M389.052,166.371a.874.874,0,0,1-.859-.724L374.275,85.9a.873.873,0,1,1,1.72-.3l13.919,79.751a.873.873,0,0,1-.862,1.024" fill="#2f3f4f"/>
        <path id="Trazado_137006" data-name="Trazado 137006" d="M313.62,162.584a.9.9,0,0,1-.315-.058.877.877,0,0,1-.5-1.13l12.224-31.749a.874.874,0,1,1,1.632.628l-12.224,31.749a.874.874,0,0,1-.815.56" fill="#2f3f4f"/>
        <path id="Trazado_137007" data-name="Trazado 137007" d="M356.288,153.7a.853.853,0,0,1-.3-.052.874.874,0,0,1-.524-1.12c.121-.337,12.224-33.781,13.149-37.763.567-2.438.212-7.4-.164-12.647-.225-3.161-.459-6.431-.513-9.419-.146-7.89-.828-16.64-.835-16.728a.873.873,0,0,1,.8-.939.9.9,0,0,1,.939.8c.007.088.7,8.888.841,16.831.053,2.942.285,6.188.51,9.328.384,5.385.748,10.471.123,13.166-.949,4.082-12.708,36.583-13.21,37.964a.873.873,0,0,1-.821.576" fill="#2f3f4f"/>
        <path id="Trazado_137008" data-name="Trazado 137008" d="M361.2,97.5l-1.745-.087s.764-15.408.971-18.828a8.6,8.6,0,0,1,3.562-6.1.874.874,0,0,1,.981,1.447,6.931,6.931,0,0,0-2.8,4.758c-.207,3.417-.97,18.808-.97,18.809" fill="#2f3f4f"/>
        <path id="Trazado_137009" data-name="Trazado 137009" d="M352.686,96.908c-.027,0-.053,0-.08,0a.874.874,0,0,1-.792-.948c.056-.628,1.384-15.414,2.485-19.482a12.056,12.056,0,0,1,4.8-6.63.874.874,0,0,1,.926,1.482,10.467,10.467,0,0,0-4.044,5.6c-1.06,3.922-2.417,19.03-2.43,19.182a.874.874,0,0,1-.869.8" fill="#2f3f4f"/>
        <path id="Trazado_137010" data-name="Trazado 137010" d="M345.7,96.034c-.029,0-.058,0-.087,0a.876.876,0,0,1-.785-.955c.012-.112,1.108-11.239,2.085-16.6a18.805,18.805,0,0,1,5.182-9.516.874.874,0,0,1,1.189,1.281,17.316,17.316,0,0,0-4.65,8.549c-.966,5.288-2.055,16.343-2.065,16.454a.875.875,0,0,1-.869.788" fill="#2f3f4f"/>
        <path id="Trazado_137011" data-name="Trazado 137011" d="M320.886,110.577a.878.878,0,0,1-.828-.591l-3.653-10.7a.874.874,0,0,1,1.655-.565l3.654,10.7a.875.875,0,0,1-.546,1.109.86.86,0,0,1-.282.047" fill="#2f3f4f"/>
        <path id="Trazado_137012" data-name="Trazado 137012" d="M332.835,287.394l-.225-22.758a.823.823,0,0,0-.882-.865.873.873,0,0,0-.865.882l.224,22.741Z" fill="#2f3f4f"/>
        <path id="Trazado_137013" data-name="Trazado 137013" d="M323.47,219.982v22.91a8.569,8.569,0,0,1-8.563,8.58H261.1a8.584,8.584,0,0,1-8.581-8.58v-22.91a8.584,8.584,0,0,1,8.581-8.58h53.805a8.569,8.569,0,0,1,8.563,8.58" fill="#2f3f4f"/>
        <rect id="Rectángulo_38151" data-name="Rectángulo 38151" width="1.747" height="40.07" transform="translate(312.741 211.402)" fill="#0f0a1c"/>
        <path id="Trazado_137014" data-name="Trazado 137014" d="M314.488,223.407a.866.866,0,0,1-.874.874H252.522v-1.748h61.092a.877.877,0,0,1,.874.874" fill="#0f0a1c"/>
      </g>
    </g>
  </g>
</svg>
