<svg xmlns="http://www.w3.org/2000/svg" xmlns:xlink="http://www.w3.org/1999/xlink" width="316.654" height="337" viewBox="0 0 316.654 337">
  <defs>
    <clipPath id="clip-path">
      <rect id="Rectángulo_37993" data-name="Rectángulo 37993" width="123.01" height="138.095" fill="none"/>
    </clipPath>
    <clipPath id="clip-path-2">
      <rect id="Rectángulo_37994" data-name="Rectángulo 37994" width="4.672" height="13.196" fill="none"/>
    </clipPath>
    <clipPath id="clip-path-3">
      <rect id="Rectángulo_37995" data-name="Rectángulo 37995" width="8.243" height="19.898" fill="none"/>
    </clipPath>
    <clipPath id="clip-path-4">
      <rect id="Rectángulo_37996" data-name="Rectángulo 37996" width="91.091" height="101.585" fill="none"/>
    </clipPath>
    <clipPath id="clip-path-5">
      <rect id="Rectángulo_37997" data-name="Rectángulo 37997" width="274.507" height="192.368" fill="#3c3fa7"/>
    </clipPath>
    <clipPath id="clip-path-6">
      <rect id="Rectángulo_37998" data-name="Rectángulo 37998" width="10.146" height="10.146" fill="none"/>
    </clipPath>
    <clipPath id="clip-path-7">
      <rect id="Rectángulo_37999" data-name="Rectángulo 37999" width="3.807" height="9.474" fill="none"/>
    </clipPath>
    <clipPath id="clip-path-8">
      <rect id="Rectángulo_38000" data-name="Rectángulo 38000" width="44.548" height="80.189" fill="none"/>
    </clipPath>
    <clipPath id="clip-path-9">
      <rect id="Rectángulo_38001" data-name="Rectángulo 38001" width="105.846" height="68.591" fill="none"/>
    </clipPath>
    <clipPath id="clip-path-10">
      <rect id="Rectángulo_38002" data-name="Rectángulo 38002" width="107.519" height="46.892" fill="none"/>
    </clipPath>
  </defs>
  <g id="Grupo_158687" data-name="Grupo 158687" transform="translate(-221.5 -1400)">
    <g id="Grupo_158319" data-name="Grupo 158319" transform="translate(221.452 1367)">
      <g id="Grupo_87689" data-name="Grupo 87689" transform="translate(0.048 33)">
        <g id="Grupo_87397" data-name="Grupo 87397">
          <path id="Rectángulo_34437" data-name="Rectángulo 34437" d="M0,0H239.654a77,77,0,0,1,77,77V337a0,0,0,0,1,0,0H0a0,0,0,0,1,0,0V0A0,0,0,0,1,0,0Z" fill="#c4d1ff"/>
        </g>
      </g>
    </g>
    <g id="Grupo_158684" data-name="Grupo 158684" transform="translate(240.5 1404)">
      <g id="Grupo_158685" data-name="Grupo 158685" transform="translate(0)">
        <g id="Grupo_158682" data-name="Grupo 158682">
          <g id="Grupo_158686" data-name="Grupo 158686">
            <path id="Trazado_131813" data-name="Trazado 131813" d="M72.264,266.559c14.627-7.795,22.561-17.443,27.756-33.182,1.232-3.732,1.9-8.411-.972-11.091-3.081-2.871-8.082-1.483-11.791.509a53.212,53.212,0,0,0-17.426,15.021C63.885,245.788,58.9,256.358,49.113,258.1a4.034,4.034,0,0,1-2.66-.219c-2.4-1.328-.84-4.936.676-7.219a33.2,33.2,0,0,0,5.24-13.983A5.1,5.1,0,0,0,52.2,234a4.243,4.243,0,0,0-3.133-2.163c-4.687-1.011-9.258,1.916-12.988,4.931-9.5,7.679-22.7,20.422-29.243,30.738" transform="translate(168.818 26.61)" fill="#3c3fa7"/>
            <path id="Trazado_131814" data-name="Trazado 131814" d="M82.549,189.582a68.6,68.6,0,0,0,34.193-23.731c4.089-5.341,7.456-11.541,7.878-18.255.236-3.764-1.218-8.385-4.927-9.073-2.682-.5-5.191,1.345-7.233,3.152a106.273,106.273,0,0,0-30.972,48.142" transform="translate(61.598 16.696)" fill="#b2cdc1"/>
            <path id="Trazado_131815" data-name="Trazado 131815" d="M20.806,203.44c6.933-1.42,13.959-2.892,20.263-6.111s11.9-8.448,13.992-15.211c.828-2.68,1.015-5.807-.605-8.1-2.038-2.883-6.135-3.394-9.633-2.9-7.407,1.039-14.131,5.407-18.788,11.261a44.111,44.111,0,0,0-8.551,20.482" transform="translate(202.282 20.617)" fill="#3c3fa7"/>
            <path id="Trazado_131816" data-name="Trazado 131816" d="M65.434,207.088a45.126,45.126,0,0,0,4.157-12.139c1.2-5.692,1.6-12.123-1.814-16.831a5.834,5.834,0,0,0-4.259-2.72,5.874,5.874,0,0,0-2.97.876,13.256,13.256,0,0,0-6.666,10.313c-.325,3.909,1.131,7.766,3.087,11.165s4.425,6.479,6.412,9.86" transform="translate(146.773 21.152)" fill="#3c3fa7"/>
            <path id="Trazado_131817" data-name="Trazado 131817" d="M42.865,213.334a62.478,62.478,0,0,1,13.393-2.1c4.528-.048,9.2.968,12.825,3.685a3.365,3.365,0,0,1,1.478,1.94,3.009,3.009,0,0,1-.735,2.239,9.505,9.505,0,0,1-7.415,3.413,21.59,21.59,0,0,1-8.2-1.8c-3.556-1.378-7.176-3.263-9.107-6.552" transform="translate(158.931 25.474)" fill="#b2cdc1"/>
            <path id="Trazado_131818" data-name="Trazado 131818" d="M86.994,226.353c1.4-4.076,2.817-8.2,3.213-12.491s-.323-8.837-2.854-12.327a2.64,2.64,0,0,0-1.242-1.068,2.453,2.453,0,0,0-1.9.392c-2.386,1.374-3.826,3.974-4.591,6.618a20.094,20.094,0,0,0,4.851,19.246" transform="translate(98.857 24.168)" fill="#b2cdc1"/>
            <path id="Trazado_131819" data-name="Trazado 131819" d="M131.009,178.559c-2.115,8.679-10.726,14.029-17.435,19.03-7.434,5.542-15.018,10.877-22.568,16.259-15.038,10.721-30.06,21.665-43.169,34.741a141.8,141.8,0,0,0-19.474,23.888c-.554.867-1.943.064-1.385-.809,9.74-15.236,22.7-28,36.678-39.343,14.213-11.532,29.43-21.732,44.208-32.509,4.227-3.083,8.487-6.159,12.54-9.47,3.98-3.253,7.8-7.062,9.059-12.212.244-1,1.791-.578,1.546.426" transform="translate(116.435 21.414)" fill="#6b8dfc"/>
            <g id="Grupo_158653" data-name="Grupo 158653" transform="translate(146.884 155.137)" style="mix-blend-mode: overlay;isolation: isolate">
              <g id="Grupo_158652" data-name="Grupo 158652" transform="translate(0)">
                <g id="Grupo_158651" data-name="Grupo 158651" clip-path="url(#clip-path)">
                  <path id="Trazado_131820" data-name="Trazado 131820" d="M61.789,247.318a18.7,18.7,0,0,0-11.572-12.349c3.578-2.78,7.841-5.254,12.207-4.313a4.236,4.236,0,0,1,3.133,2.163,5.093,5.093,0,0,1,.167,2.68,33.205,33.205,0,0,1-3.934,11.819" transform="translate(8.58 -127.345)" fill="#b2cdc1"/>
                  <path id="Trazado_131821" data-name="Trazado 131821" d="M11.808,261.038c5.371-6.116,10.649-12.618,14.648-19.734,2.636-4.691,5.545-10.742,3.748-16.222a9.443,9.443,0,0,0-1.86-3.319c3.317-1.33,7.089-1.811,9.592.523,2.873,2.679,2.2,7.358.972,11.089-5.2,15.739-13.129,25.387-27.756,33.182l-4.314.063c1.728-1.85,3.374-3.766,4.97-5.583" transform="translate(83.046 -128.527)" fill="#b2cdc1"/>
                  <path id="Trazado_131822" data-name="Trazado 131822" d="M110.715,170.022c-1.727,2.535-3.585,4.963-5.474,7.368a106.637,106.637,0,0,1,12.684-22c.716,3.816-5.819,12.588-7.21,14.629" transform="translate(-105.24 -136.397)" fill="#b2cdc1"/>
                  <path id="Trazado_131823" data-name="Trazado 131823" d="M87.918,158.194a13.99,13.99,0,0,0-6-14.543c.71-.666,1.424-1.329,2.154-1.976,2.043-1.808,4.551-3.65,7.233-3.152,3.708.688,5.164,5.309,4.927,9.073-.422,6.714-3.789,12.914-7.878,18.253a67.045,67.045,0,0,1-6.867,7.659,40.931,40.931,0,0,0,6.431-15.315" transform="translate(-56.898 -138.441)" fill="#b2cdc1"/>
                  <path id="Trazado_131824" data-name="Trazado 131824" d="M25.332,202.113c10.122-2.882,20.427-14.606,22.724-24.783a20.725,20.725,0,0,0,.426-6.309,7.954,7.954,0,0,1,5.976,2.991c1.619,2.29,1.432,5.417.6,8.1-2.088,6.763-7.688,11.994-13.992,15.212s-13.328,4.691-20.263,6.109l-3.323-.579c.055-.341.13-.679.193-1.019a11.378,11.378,0,0,0,7.655.28" transform="translate(55.396 -134.512)" fill="#b2cdc1"/>
                  <path id="Trazado_131825" data-name="Trazado 131825" d="M56.261,186.547a13.259,13.259,0,0,1,6.666-10.313,8.793,8.793,0,0,1,1.118-.517c-2.725,7.721-4.179,16.289.292,23.458a5.092,5.092,0,0,0,5.832,2.36,36.632,36.632,0,0,1-2.357,5.513l-2.052.523c-1.987-3.381-4.456-6.462-6.413-9.86s-3.412-7.256-3.087-11.165" transform="translate(-2.491 -133.945)" fill="#b2cdc1"/>
                  <path id="Trazado_131826" data-name="Trazado 131826" d="M50.733,217.471a11.829,11.829,0,0,0,3.558-4.187,16.088,16.088,0,0,1,2.241,1.382,3.363,3.363,0,0,1,1.477,1.94,3,3,0,0,1-.735,2.239,9.505,9.505,0,0,1-7.415,3.413,19.635,19.635,0,0,1-6.993-1.353,18.29,18.29,0,0,0,7.867-3.435" transform="translate(24.599 -129.415)" fill="#b2cdc1"/>
                  <path id="Trazado_131827" data-name="Trazado 131827" d="M85.6,206.346a12.87,12.87,0,0,0-6.436.118,10.293,10.293,0,0,1,4.261-5.6,2.461,2.461,0,0,1,1.905-.392,2.637,2.637,0,0,1,1.242,1.069,15.532,15.532,0,0,1,2.629,6.418,10.905,10.905,0,0,0-3.6-1.608" transform="translate(-47.249 -130.969)" fill="#b2cdc1"/>
                </g>
              </g>
            </g>
            <path id="Trazado_131828" data-name="Trazado 131828" d="M186.881,266.559c-14.626-7.795-22.561-17.443-27.756-33.182-1.232-3.732-1.9-8.411.973-11.091,3.079-2.871,8.081-1.483,11.79.509a53.228,53.228,0,0,1,17.428,15.021c5.945,7.973,10.927,18.543,20.719,20.287a4.032,4.032,0,0,0,2.659-.219c2.4-1.328.84-4.936-.676-7.219a33.2,33.2,0,0,1-5.24-13.983,5.1,5.1,0,0,1,.166-2.682,4.243,4.243,0,0,1,3.133-2.163c4.687-1.011,9.258,1.916,12.988,4.931,9.5,7.679,22.7,20.422,29.243,30.738" transform="translate(-151.882 26.61)" fill="#3c3fa7"/>
            <path id="Trazado_131829" data-name="Trazado 131829" d="M162.154,160.2a37.682,37.682,0,0,1-15.939-16.4c-1.643-3.31-2.806-7.008-2.326-10.671.269-2.055,1.54-4.394,3.612-4.375,1.5.015,2.658,1.272,3.569,2.462a58.381,58.381,0,0,1,11.633,29.22" transform="translate(-46.264 15.528)" fill="#b2cdc1"/>
            <path id="Trazado_131830" data-name="Trazado 131830" d="M232.307,203.44c-6.933-1.42-13.959-2.892-20.263-6.111s-11.9-8.448-13.992-15.211c-.828-2.68-1.015-5.807.605-8.1,2.038-2.883,6.135-3.394,9.633-2.9,7.407,1.039,14.131,5.407,18.788,11.261a44.111,44.111,0,0,1,8.551,20.482" transform="translate(-179.313 20.617)" fill="#3c3fa7"/>
            <path id="Trazado_131831" data-name="Trazado 131831" d="M185.356,207.088a45.127,45.127,0,0,1-4.157-12.139c-1.2-5.692-1.6-12.123,1.814-16.831a4.943,4.943,0,0,1,7.229-1.843,13.253,13.253,0,0,1,6.666,10.313c.325,3.909-1.131,7.766-3.087,11.165s-4.425,6.479-6.412,9.86" transform="translate(-121.481 21.152)" fill="#3c3fa7"/>
            <path id="Trazado_131832" data-name="Trazado 131832" d="M209.121,213.334a62.478,62.478,0,0,0-13.393-2.1c-4.528-.048-9.2.968-12.825,3.685a3.365,3.365,0,0,0-1.478,1.94,3.009,3.009,0,0,0,.735,2.239,9.506,9.506,0,0,0,7.416,3.413,21.589,21.589,0,0,0,8.2-1.8c3.556-1.378,7.177-3.263,9.107-6.552" transform="translate(-134.835 25.474)" fill="#b2cdc1"/>
            <path id="Trazado_131833" data-name="Trazado 131833" d="M163.239,226.353c-1.4-4.076-2.817-8.2-3.213-12.491s.323-8.837,2.854-12.327a2.64,2.64,0,0,1,1.242-1.068,2.453,2.453,0,0,1,1.9.392c2.386,1.374,3.826,3.974,4.591,6.618a20.094,20.094,0,0,1-4.851,19.246" transform="translate(-73.01 24.168)" fill="#b2cdc1"/>
            <path id="Trazado_131834" data-name="Trazado 131834" d="M130.753,178.133c1.109,4.553,4.237,8.068,7.7,11.068,3.491,3.026,7.276,5.737,10.991,8.48,7.4,5.465,14.936,10.749,22.422,16.1,14.762,10.549,29.463,21.393,42.276,34.3a142.865,142.865,0,0,1,19.1,23.585c.558.872-.829,1.678-1.385.809-9.909-15.5-23.2-28.391-37.473-39.864-14.512-11.667-30.033-21.984-45.02-33.013-4.011-2.951-8.1-5.871-11.874-9.119-3.729-3.208-7.087-7.034-8.278-11.922-.244-1,1.3-1.43,1.546-.426" transform="translate(-100.568 21.414)" fill="#6b8dfc"/>
            <g id="Grupo_158656" data-name="Grupo 158656" transform="translate(110.81 156.774)" style="mix-blend-mode: overlay;isolation: isolate">
              <g id="Grupo_158655" data-name="Grupo 158655" transform="translate(0)">
                <g id="Grupo_158654" data-name="Grupo 158654" clip-path="url(#clip-path-2)">
                  <path id="Trazado_131835" data-name="Trazado 131835" d="M147.127,148.55c.665,1.549,1.411,3.054,2.176,4.55a58.606,58.606,0,0,0-4.524-13.2c-.788,1.982,1.812,7.4,2.348,8.648" transform="translate(-144.632 -139.902)" fill="#b2cdc1"/>
                </g>
              </g>
            </g>
            <g id="Grupo_158659" data-name="Grupo 158659" transform="translate(97.516 144.288)" style="mix-blend-mode: overlay;isolation: isolate">
              <g id="Grupo_158658" data-name="Grupo 158658" transform="translate(0)">
                <g id="Grupo_158657" data-name="Grupo 158657" clip-path="url(#clip-path-3)">
                  <path id="Trazado_131836" data-name="Trazado 131836" d="M156.785,139.724a7.686,7.686,0,0,1,4.767-7.21c-.314-.435-.629-.867-.954-1.292-.911-1.19-2.07-2.447-3.569-2.462-2.072-.019-3.343,2.32-3.612,4.375-.479,3.663.684,7.361,2.326,10.671a36.846,36.846,0,0,0,2.9,4.853,22.5,22.5,0,0,1-1.856-8.936" transform="translate(-153.309 -128.76)" fill="#b2cdc1"/>
                </g>
              </g>
            </g>
            <g id="Grupo_158662" data-name="Grupo 158662" transform="translate(6.187 191.647)" style="mix-blend-mode: overlay;isolation: isolate">
              <g id="Grupo_158661" data-name="Grupo 158661">
                <g id="Grupo_158660" data-name="Grupo 158660" clip-path="url(#clip-path-4)">
                  <path id="Trazado_131837" data-name="Trazado 131837" d="M188.893,247.318a18.706,18.706,0,0,1,11.572-12.349c-3.578-2.78-7.841-5.254-12.207-4.313a4.236,4.236,0,0,0-3.133,2.163,5.093,5.093,0,0,0-.167,2.68,33.206,33.206,0,0,0,3.934,11.819" transform="translate(-136.25 -163.855)" fill="#b2cdc1"/>
                  <path id="Trazado_131838" data-name="Trazado 131838" d="M240.759,261.038c-5.371-6.116-10.649-12.618-14.648-19.734-2.636-4.691-5.545-10.742-3.748-16.222a9.425,9.425,0,0,1,1.86-3.319c-3.317-1.33-7.089-1.811-9.592.523-2.873,2.679-2.2,7.358-.972,11.089,5.2,15.739,13.129,25.387,27.756,33.182l4.314.063c-1.728-1.85-3.374-3.766-4.97-5.583" transform="translate(-212.602 -165.037)" fill="#b2cdc1"/>
                  <path id="Trazado_131839" data-name="Trazado 131839" d="M227.782,202.113c-10.122-2.882-20.427-14.606-22.724-24.783a20.726,20.726,0,0,1-.426-6.309,7.954,7.954,0,0,0-5.976,2.991c-1.619,2.29-1.432,5.417-.6,8.1,2.088,6.763,7.688,11.994,13.992,15.212s13.328,4.691,20.263,6.109l3.323-.579c-.055-.341-.13-.679-.193-1.019a11.378,11.378,0,0,1-7.655.28" transform="translate(-185.5 -171.022)" fill="#b2cdc1"/>
                  <path id="Trazado_131840" data-name="Trazado 131840" d="M194.244,186.547a13.259,13.259,0,0,0-6.666-10.313,8.793,8.793,0,0,0-1.118-.517c2.725,7.721,4.179,16.289-.292,23.458a5.092,5.092,0,0,1-5.832,2.36,36.632,36.632,0,0,0,2.357,5.513l2.052.523c1.987-3.381,4.455-6.462,6.413-9.86s3.412-7.256,3.087-11.165" transform="translate(-125.004 -170.456)" fill="#b2cdc1"/>
                  <path id="Trazado_131841" data-name="Trazado 131841" d="M199.9,217.471a11.817,11.817,0,0,1-3.558-4.187,16.088,16.088,0,0,0-2.241,1.382,3.363,3.363,0,0,0-1.477,1.94,3,3,0,0,0,.735,2.239,9.5,9.5,0,0,0,7.415,3.413,19.635,19.635,0,0,0,6.993-1.353,18.284,18.284,0,0,1-7.867-3.435" transform="translate(-152.225 -165.925)" fill="#b2cdc1"/>
                  <path id="Trazado_131842" data-name="Trazado 131842" d="M164.477,206.346a12.87,12.87,0,0,1,6.436.118,10.293,10.293,0,0,0-4.261-5.6,2.461,2.461,0,0,0-1.905-.392,2.637,2.637,0,0,0-1.242,1.069,15.532,15.532,0,0,0-2.629,6.418,10.9,10.9,0,0,1,3.6-1.608" transform="translate(-79.822 -167.479)" fill="#b2cdc1"/>
                </g>
              </g>
            </g>
            <g id="Grupo_158665" data-name="Grupo 158665" transform="translate(0 46.635)" opacity="0.51">
              <g id="Grupo_158664" data-name="Grupo 158664">
                <g id="Grupo_158663" data-name="Grupo 158663" clip-path="url(#clip-path-5)">
                  <path id="Trazado_131843" data-name="Trazado 131843" d="M52.222,160.558a2.489,2.489,0,1,1,2.489,2.489,2.489,2.489,0,0,1-2.489-2.489" transform="translate(161.836 -27.572)" fill="#3c3fa7"/>
                  <path id="Trazado_131844" data-name="Trazado 131844" d="M2.722,210.491a3.556,3.556,0,1,1,3.556,3.556,3.556,3.556,0,0,1-3.556-3.556" transform="translate(264.673 -21.679)" fill="#3c3fa7"/>
                  <path id="Trazado_131845" data-name="Trazado 131845" d="M35.088,88a6.4,6.4,0,1,1,6.4,6.4,6.4,6.4,0,0,1-6.4-6.4" transform="translate(190.348 -36.794)" fill="#3c3fa7"/>
                  <path id="Trazado_131846" data-name="Trazado 131846" d="M155.666,101.894a2.845,2.845,0,1,1,2.844,2.844,2.844,2.844,0,0,1-2.844-2.844" transform="translate(-58.238 -34.69)" fill="#3c3fa7"/>
                  <path id="Trazado_131847" data-name="Trazado 131847" d="M239.436,205.845a4.622,4.622,0,1,1,4.622,4.622,4.623,4.623,0,0,1-4.622-4.622" transform="translate(-239.436 -22.368)" fill="#3c3fa7"/>
                  <path id="Trazado_131848" data-name="Trazado 131848" d="M196.6,154.452a1.778,1.778,0,1,1,1.778,1.778,1.778,1.778,0,0,1-1.778-1.778" transform="translate(-142.907 -28.223)" fill="#3c3fa7"/>
                  <path id="Trazado_131849" data-name="Trazado 131849" d="M120.761,46.594a4.978,4.978,0,1,1,4.978,4.978,4.978,4.978,0,0,1-4.978-4.978" transform="translate(11.514 -41.616)" fill="#3c3fa7"/>
                </g>
              </g>
            </g>
            <path id="Trazado_131850" data-name="Trazado 131850" d="M.539,109.052a18.085,18.085,0,1,1,18.084,18.084A18.084,18.084,0,0,1,.539,109.052Z" transform="translate(240.244 10.971)" fill="none" stroke="#6b8dfc" stroke-miterlimit="10" stroke-width="1.078"/>
            <path id="Trazado_131851" data-name="Trazado 131851" d="M30.1,123.58c3.215,7.233-.71,6.757-2.726,6.414A5.6,5.6,0,0,1,25,128.752C14.995,121.073,8.885,109.408,4.19,97.7c-1.14-2.842-2.209-6.089-.933-8.872a3,3,0,0,1,1.2-1.432c1.611-.882,3.43.687,4.6,2.106" transform="translate(243.236 10.509)" fill="none" stroke="#6b8dfc" stroke-miterlimit="10" stroke-width="1.078"/>
            <path id="Trazado_131852" data-name="Trazado 131852" d="M217.955,76.9a13.588,13.588,0,1,1,13.3-13.865A13.588,13.588,0,0,1,217.955,76.9Z" transform="translate(-182.406 5.997)" fill="none" stroke="#6b8dfc" stroke-miterlimit="10" stroke-width="0.81"/>
            <path id="Trazado_131853" data-name="Trazado 131853" d="M229.549,52.065c5.384-2.527,5.088.429,4.86,1.949a4.207,4.207,0,0,1-.9,1.8c-5.613,7.637-14.281,12.407-23,16.115-2.117.9-4.54,1.754-6.65.839a2.257,2.257,0,0,1-1.094-.879c-.687-1.2.463-2.587,1.511-3.485" transform="translate(-183.938 6.16)" fill="none" stroke="#6b8dfc" stroke-miterlimit="10" stroke-width="0.81"/>
            <path id="Trazado_131854" data-name="Trazado 131854" d="M53.975,139.728a3.215,3.215,0,1,1,3.215,3.215,3.215,3.215,0,0,1-3.215-3.215" transform="translate(156.667 16.463)" fill="#6b8dfc"/>
            <path id="Trazado_131855" data-name="Trazado 131855" d="M61.147,36.029a6.028,6.028,0,1,1,6.029,6.029,6.028,6.028,0,0,1-6.029-6.029" transform="translate(135.832 3.618)" fill="#6b8dfc"/>
            <path id="Trazado_131856" data-name="Trazado 131856" d="M192.406,124.264a2.813,2.813,0,1,1,2.813,2.813,2.813,2.813,0,0,1-2.813-2.813" transform="translate(-136.086 14.647)" fill="#6b8dfc"/>
            <path id="Trazado_131857" data-name="Trazado 131857" d="M173.4,31.336a2.412,2.412,0,1,1,2.412,2.412,2.412,2.412,0,0,1-2.412-2.412" transform="translate(-94.974 3.488)" fill="#6b8dfc"/>
            <line id="Línea_280" data-name="Línea 280" x1="245.291" transform="translate(13.709 293.784)" fill="none" stroke="#3c3fa7" stroke-linecap="round" stroke-miterlimit="10" stroke-width="2.053"/>
            <path id="Trazado_131858" data-name="Trazado 131858" d="M49.313,286.024c0,5.327,34.186,9.645,76.358,9.645s76.356-4.318,76.356-9.645-34.186-9.645-76.356-9.645-76.358,4.318-76.358,9.645" transform="translate(20.269 33.331)" fill="#a6bbff"/>
            <path id="Trazado_131859" data-name="Trazado 131859" d="M198.041,40.976a40.785,40.785,0,0,0-31.732-17.637,15.7,15.7,0,0,0-7.448,1.172c-2.828,1.365-4.805,3.985-6.7,6.488q-7.492,9.894-15.6,19.293c-1.08,1.253-2.289,2.57-3.912,2.892-1.546.307-3.1-.366-4.547-.994-7.952-3.451-17.735-5.818-24.836-.846-1.492,5.182,3.362,11.1,8.735,10.643,4.013-.338,8.515-3.38,11.586-.773a25.126,25.126,0,0,0-12.492,7c9.336,2.481,6.053,19.766,15.1,23.166,3.838,1.443,8.279-.505,12.188.738,3.607,1.147,5.814,4.65,8.224,7.569a36.178,36.178,0,0,0,35.034,11.99,307.747,307.747,0,0,1,9.226-61.633" transform="translate(-35.891 2.812)" fill="#863c3e"/>
            <path id="Trazado_131860" data-name="Trazado 131860" d="M120.471,29.932c2.484-.026,4.3-2.285,5.633-4.382,2.968-4.664,5.571-9.977,5.009-15.477S125.636-.772,120.176.092a11.563,11.563,0,0,0-4.562,1.973c-5.039,3.388-8.562,9.218-8.452,15.288s4.249,12.061,10.112,13.64" transform="translate(26.283 0)" fill="#863c3e"/>
            <path id="Trazado_131861" data-name="Trazado 131861" d="M117.437,30.836a15.27,15.27,0,0,1-4.951-18.286,15.511,15.511,0,0,1,6.767-7.282c2.422-1.291,7.134-2.387,7.872,1.451.11.569-.764.814-.874.241-.811-4.217-6.755-1.038-8.668.478a14.7,14.7,0,0,0-4.816,6.877,14.4,14.4,0,0,0,5.127,15.738c.462.345.01,1.132-.457.782" transform="translate(25.785 0.491)" fill="#3e1c1a"/>
            <path id="Trazado_131862" data-name="Trazado 131862" d="M177.872,35.022a22.159,22.159,0,0,0-26.159,10.708c-2.614,4.936-3.854,10.491-6.686,15.324a22.666,22.666,0,0,1-11.267,9.657c-5.424,2.122-12.263,1.405-16.7,5.672-.421.4-1.062-.235-.641-.641,3.835-3.688,9.337-3.788,14.222-5A21.853,21.853,0,0,0,144.36,60.4c2.908-5.047,4.123-10.866,7.009-15.926a22.421,22.421,0,0,1,10.9-9.588,22.84,22.84,0,0,1,15.848-.738c.551.18.316,1.057-.241.874" transform="translate(-31.176 3.988)" fill="#3e1c1a"/>
            <path id="Trazado_131863" data-name="Trazado 131863" d="M195.479,33.869a28.389,28.389,0,0,0-30.812,5.641c-3.9,3.843-5.987,9.115-9.943,12.895-4.442,4.246-10.264,4.245-15.923,2.88-6.652-1.6-14.587-5.215-20.927-.777-.479.335-.932-.449-.457-.782,11.407-7.987,25.954,8.248,36.666-1.961,4.15-3.955,6.282-9.524,10.51-13.438a29.187,29.187,0,0,1,14.077-7.086,28.529,28.529,0,0,1,17.266,1.846c.531.238.071,1.02-.457.782" transform="translate(-49.967 3.698)" fill="#3e1c1a"/>
            <path id="Trazado_131864" data-name="Trazado 131864" d="M126.154,39.054a18.989,18.989,0,0,1-3.588,9.648c-1.711,2.228-4.463,3.863-7.255,2.6a3.876,3.876,0,0,1-2.375-3.151c-.055-.58.852-.577.907,0a3.248,3.248,0,0,0,2.784,2.632,4.938,4.938,0,0,0,4.3-1.585c2.637-2.554,3.971-6.569,4.322-10.143.057-.575.964-.582.907,0" transform="translate(24.847 4.658)" fill="#3e1c1a"/>
            <path id="Trazado_131865" data-name="Trazado 131865" d="M106.764,29.277a4.785,4.785,0,0,0,5.633-.191c2.693-1.792,4.114-5.063,4.822-8.1a17.081,17.081,0,0,0-.834-9.706c-1.122-3.235-2.833-6.538-5.564-8.7-.914-.724.375-2,1.282-1.282a18.781,18.781,0,0,1,5.252,7.495,24.132,24.132,0,0,1,2.117,8.624c.152,5.131-2.524,11.883-7.569,13.977a6.175,6.175,0,0,1-6.055-.552c-.932-.682-.029-2.256.914-1.565" transform="translate(39.902 0.131)" fill="#863c3e"/>
            <path id="Trazado_131866" data-name="Trazado 131866" d="M110.331,61.366a.908.908,0,0,1-1.114.688c-2.091-.541-6.808-2.213-8.88,3.088-2.1,5.36,2.388,9.814,5.518,10.792.9.282,2.97,1.006,3.419,1.84,1.382,2.559,1.126,7.324,1.159,13.352a71.066,71.066,0,0,1-2.035,16.6c-7.955,4.44-13.18,5.646-13.18,5.646s28.936,75.554,57.871.4c0,0-15.674-4.421-16.878-5.613-.294-9.007-.708-22.386-.582-22.461,3.2-1.906,14.576-.772,13.707-23.5-.8-21.054-15.529-23.308-19.346-23.587-3.221-.236-14.093-2.283-19.659,22.753" transform="translate(17.768 4.64)" fill="#ffa288"/>
            <path id="Trazado_131867" data-name="Trazado 131867" d="M134.4,64.42s5.051-6.1,6.865,4.254" transform="translate(-14.321 7.554)" fill="#d66956"/>
            <g id="Grupo_158668" data-name="Grupo 158668" transform="translate(140.069 70.518)" opacity="0.63">
              <g id="Grupo_158667" data-name="Grupo 158667" transform="translate(0)">
                <g id="Grupo_158666" data-name="Grupo 158666" clip-path="url(#clip-path-6)">
                  <path id="Trazado_131868" data-name="Trazado 131868" d="M119.847,63.059a5.071,5.071,0,1,1-6.079,3.806,5.071,5.071,0,0,1,6.079-3.806" transform="translate(-113.636 -62.929)" fill="#e7786b"/>
                </g>
              </g>
            </g>
            <g id="Grupo_158671" data-name="Grupo 158671" transform="translate(163.331 68.21)" opacity="0.63">
              <g id="Grupo_158670" data-name="Grupo 158670" transform="translate(0)">
                <g id="Grupo_158669" data-name="Grupo 158669" clip-path="url(#clip-path-7)">
                  <path id="Trazado_131869" data-name="Trazado 131869" d="M101.5,70.341a5.072,5.072,0,0,1,.656-9.471s.719,5.972-.656,9.471" transform="translate(-98.536 -60.869)" fill="#e7786b"/>
                </g>
              </g>
            </g>
            <path id="Trazado_131870" data-name="Trazado 131870" d="M102.266,67.44a5,5,0,0,0,5.136,1.953,5.334,5.334,0,0,0,3.459-2.807" transform="translate(52.096 8.03)" fill="none" stroke="#000" stroke-linecap="round" stroke-miterlimit="10" stroke-width="0.539"/>
            <path id="Trazado_131871" data-name="Trazado 131871" d="M105.22,62.733l-.713,3.868,2.044-.031a.5.5,0,0,0,.424-.741Z" transform="translate(53.405 7.566)" fill="#d66956"/>
            <path id="Trazado_131872" data-name="Trazado 131872" d="M110.1,57.388c-.881.743.3-2.331,1.554-2.789a2.269,2.269,0,0,1,2.984,1.132,7.093,7.093,0,0,0-4.538,1.657" transform="translate(39.884 6.564)"/>
            <path id="Trazado_131873" data-name="Trazado 131873" d="M105.238,55.893c1,.575-.71-2.241-2.025-2.469a2.27,2.27,0,0,0-2.736,1.644,7.091,7.091,0,0,1,4.761.825" transform="translate(59.425 6.438)"/>
            <path id="Trazado_131874" data-name="Trazado 131874" d="M120.518,80.467a32.978,32.978,0,0,1-10.67-1.049c2.575,6.963,8.177,6.52,10.67,1.049" transform="translate(33.943 9.578)" fill="#d66956"/>
            <path id="Trazado_131875" data-name="Trazado 131875" d="M131.714,33.911c15.272-6.43,10.545,22.907,10.545,22.907-4.658.568-6.668-3.25-8.149-7.669a7.432,7.432,0,0,0-4.305-4.508,2.29,2.29,0,0,1-1.41-2.5,14.817,14.817,0,0,1-10.11,15.008,6.494,6.494,0,0,1-8.325-7.83l.41-1.543-4.778,14.263c-1.526,2.776-5.837.048-8.745-1.206,0,0,7.052-41.227,34.867-26.926" transform="translate(26.081 3.726)" fill="#863c3e"/>
            <path id="Trazado_131876" data-name="Trazado 131876" d="M108.283,63.264c1.161.4,2.543.816,3.544-.391" transform="translate(44.387 7.582)" fill="none" stroke="#000" stroke-linecap="round" stroke-miterlimit="10" stroke-width="0.539"/>
            <path id="Trazado_131877" data-name="Trazado 131877" d="M101.349,62.667c1.161.4,2.542.816,3.544-.391" transform="translate(59.092 7.51)" fill="none" stroke="#000" stroke-linecap="round" stroke-miterlimit="10" stroke-width="0.539"/>
            <path id="Trazado_131878" data-name="Trazado 131878" d="M148.053,102.085c3.618,1.782,12.659,2.545,17.481,4.421-2.813,13.463-.6,31.347-1.522,42.031-1.249,14.532-.793,37.942-.793,37.942s-48.761,1.059-63.1,2.009c-7.877-24-16.424-61.845-11.549-80.376l16.075-5.625c4.111,8.026,42.746,4.559,43.4-.4" transform="translate(14.364 12.311)" fill="#ffe8d8"/>
            <g id="Grupo_158674" data-name="Grupo 158674" transform="translate(107.512 120.611)" opacity="0.38" style="mix-blend-mode: multiply;isolation: isolate">
              <g id="Grupo_158673" data-name="Grupo 158673">
                <g id="Grupo_158672" data-name="Grupo 158672" clip-path="url(#clip-path-8)">
                  <path id="Trazado_131879" data-name="Trazado 131879" d="M114.283,107.631c-4.091,19.578-2.812,57.356,4.683,80.189,7.278-.483,23.433-.994,37.573-1.379-20.37-22.471-37.6-48.779-42.256-78.809" transform="translate(-111.99 -107.631)" fill="#d8c7bc"/>
                </g>
              </g>
            </g>
            <path id="Trazado_131880" data-name="Trazado 131880" d="M96.93,178.6c-15.4,18.487-26.006,67.385-26.006,67.385L176.77,243.44s-6.1-48.024-25.519-65.842c-.067.134-29.94-1-54.321,1.005" transform="translate(21.309 21.394)" fill="#6e7dd6"/>
            <g id="Grupo_158677" data-name="Grupo 158677" transform="translate(92.233 198.79)" opacity="0.44" style="mix-blend-mode: multiply;isolation: isolate">
              <g id="Grupo_158676" data-name="Grupo 158676">
                <g id="Grupo_158675" data-name="Grupo 158675" clip-path="url(#clip-path-9)">
                  <path id="Trazado_131881" data-name="Trazado 131881" d="M96.93,178.6c-15.4,18.487-26.006,67.385-26.006,67.385L176.77,243.44s-6.1-48.024-25.519-65.842c-.067.134-29.94-1-54.321,1.005" transform="translate(-70.924 -177.396)" fill="#6e7dd6"/>
                </g>
              </g>
            </g>
            <path id="Trazado_131882" data-name="Trazado 131882" d="M102,249.53c1.93-.335-.047-3.918-4.532-5.263-7.174-2.154-18.717-6.209-22.1-10.326-3.908-4.754-7.533-6.612-10.132-7.3a6.2,6.2,0,0,0-5.567,1.29,7.408,7.408,0,0,1-3.85,1.932,15.306,15.306,0,0,1-3.57-.3l.827,21.858s40.218-.379,48.926-1.892" transform="translate(116.273 27.309)" fill="#ffa288"/>
            <path id="Trazado_131883" data-name="Trazado 131883" d="M228.7,255.209S94.226,253.24,93.29,218.457c-.864-32.139,52.586-24.5,58.213-23.7,21.076,3.011,77.829,29.3,77.829,29.3Z" transform="translate(-56.305 23.324)" fill="#6e7dd6"/>
            <g id="Grupo_158680" data-name="Grupo 158680" transform="translate(64.438 231.745)" opacity="0.28" style="mix-blend-mode: multiply;isolation: isolate">
              <g id="Grupo_158679" data-name="Grupo 158679">
                <g id="Grupo_158678" data-name="Grupo 158678" clip-path="url(#clip-path-10)">
                  <path id="Trazado_131884" data-name="Trazado 131884" d="M166.387,206.8l35.366,14.869L201,253.7s-86.465-4.668-106.762-14.818Z" transform="translate(-94.234 -206.805)" fill="#d8c7bc"/>
                </g>
              </g>
            </g>
            <line id="Línea_281" data-name="Línea 281" y1="35.722" x2="3.856" transform="translate(160.037 242.509)" fill="none" stroke="#fff" stroke-miterlimit="10" stroke-width="1.078"/>
            <path id="Trazado_131885" data-name="Trazado 131885" d="M21.175,253.248s128.768-4.393,124.985-38.982c-2.814-25.72-45.011-20.7-65.1-13.663s-61.488,25.72-61.488,25.72Z" transform="translate(109.388 23.508)" fill="#6e7dd6"/>
            <path id="Trazado_131886" data-name="Trazado 131886" d="M131.635,249.905c-1.953-.147-.333-3.9,4-5.678,6.932-2.84,18.027-8,21-12.422,3.428-5.11,6.856-7.311,9.377-8.243a6.193,6.193,0,0,1,5.666.743,7.412,7.412,0,0,0,4.021,1.55,15.386,15.386,0,0,0,3.523-.649l1.3,21.836s-40.065,3.524-48.879,2.863" transform="translate(-49.55 26.916)" fill="#ffa288"/>
            <line id="Línea_282" data-name="Línea 282" x2="2.679" y2="27.997" transform="translate(135.922 247.151)" fill="none" stroke="#fff" stroke-miterlimit="10" stroke-width="1.078"/>
            <path id="Trazado_131887" data-name="Trazado 131887" d="M118.825,149.813s-.8-4.621-1.608-3.416-2.813,14.266-2.813,14.266Z" transform="translate(30.531 17.631)" fill="#d66956"/>
            <path id="Trazado_131888" data-name="Trazado 131888" d="M178.787,190.271c-22.1,2.845-59.741,3.259-61.287-.2-11.054-4.227.8-48.427,8.038-67.516,3.927-10.361,9.1-15.775,14.669-16.878,10.248-1.608.244,57.246-3.215,62.693,0,0,6.831-1.608,38.781,6.631,0,0,5.928-18.907,7.435-20.3,0,0,2.21-1.607,1.406,1.406s-1.9,30.861-2.612,31.749c-2.412,3.014-3.215,2.412-3.215,2.412" transform="translate(-33.852 12.74)" fill="#ffa288"/>
            <path id="Trazado_131889" data-name="Trazado 131889" d="M109.3,149.813s.8-4.621,1.607-3.416,2.814,14.266,2.814,14.266Z" transform="translate(41.346 17.631)" fill="#d66956"/>
            <path id="Trazado_131890" data-name="Trazado 131890" d="M66.844,190.442c22.1,2.845,49-7.191,50.548-10.65,11.054-4.227-4.87-39.748-14.266-57.87-5.627-10.851-10.912-16.579-16.477-17.683-15.272-1.206,6.832,53.45,7.233,59.88,0,0-3.215,4.018-24.023,11.051,0,0-5.928-18.907-7.435-20.3,0,0-2.21-1.607-1.406,1.406s1.9,30.861,2.612,31.749c2.412,3.014,3.215,2.412,3.215,2.412" transform="translate(88.227 12.569)" fill="#ffa288"/>
          </g>
        </g>
      </g>
    </g>
  </g>
</svg>
