<svg xmlns="http://www.w3.org/2000/svg" xmlns:xlink="http://www.w3.org/1999/xlink" width="316.653" height="337" viewBox="0 0 316.653 337">
  <defs>
    <clipPath id="clip-path">
      <rect id="Rectángulo_38003" data-name="Rectángulo 38003" width="250.545" height="286.439" transform="translate(22.722 12.603)" fill="none"/>
    </clipPath>
    <clipPath id="clip-path-2">
      <rect id="Rectángulo_38005" data-name="Rectángulo 38005" width="106.952" height="120.067" transform="translate(7.301 119.79)" fill="none"/>
    </clipPath>
    <clipPath id="clip-path-3">
      <rect id="Rectángulo_38006" data-name="Rectángulo 38006" width="4.062" height="11.474" transform="translate(141.555 121.213)" fill="none"/>
    </clipPath>
    <clipPath id="clip-path-4">
      <rect id="Rectángulo_38007" data-name="Rectángulo 38007" width="7.167" height="17.301" transform="translate(150.01 110.358)" fill="none"/>
    </clipPath>
    <clipPath id="clip-path-5">
      <rect id="Rectángulo_38008" data-name="Rectángulo 38008" width="79.199" height="88.323" transform="translate(157.383 151.534)" fill="none"/>
    </clipPath>
    <clipPath id="clip-path-6">
      <rect id="Rectángulo_38009" data-name="Rectángulo 38009" width="238.671" height="167.255" transform="translate(3.291 25.453)" fill="#3c3fa7"/>
    </clipPath>
    <clipPath id="clip-path-7">
      <rect id="Rectángulo_38010" data-name="Rectángulo 38010" width="8.821" height="8.821" transform="translate(116.94 102.627)" fill="none"/>
    </clipPath>
    <clipPath id="clip-path-8">
      <rect id="Rectángulo_38011" data-name="Rectángulo 38011" width="3.309" height="8.236" transform="translate(137.165 100.62)" fill="none"/>
    </clipPath>
    <clipPath id="clip-path-9">
      <rect id="Rectángulo_38012" data-name="Rectángulo 38012" width="27.149" height="33.348" transform="translate(129.745 137.13)" fill="none"/>
    </clipPath>
    <clipPath id="clip-path-10">
      <rect id="Rectángulo_38013" data-name="Rectángulo 38013" width="38.733" height="69.721" transform="translate(88.633 146.181)" fill="none"/>
    </clipPath>
    <clipPath id="clip-path-11">
      <rect id="Rectángulo_38014" data-name="Rectángulo 38014" width="92.028" height="59.637" transform="translate(75.348 214.154)" fill="none"/>
    </clipPath>
    <clipPath id="clip-path-12">
      <rect id="Rectángulo_38015" data-name="Rectángulo 38015" width="79.236" height="75.969" transform="translate(73.838 136.826)" fill="none"/>
    </clipPath>
    <clipPath id="clip-path-13">
      <rect id="Rectángulo_38016" data-name="Rectángulo 38016" width="93.482" height="40.77" transform="translate(51.182 242.807)" fill="none"/>
    </clipPath>
  </defs>
  <g id="Grupo_159172" data-name="Grupo 159172" transform="translate(-12625.939 10308.667)">
    <g id="Grupo_158325" data-name="Grupo 158325" transform="translate(12625.892 -10341.667)">
      <g id="Grupo_87689" data-name="Grupo 87689" transform="translate(0.048 33)">
        <g id="Grupo_87397" data-name="Grupo 87397">
          <path id="Rectángulo_34437" data-name="Rectángulo 34437" d="M0,0H239.654a77,77,0,0,1,77,77V337a0,0,0,0,1,0,0H0a0,0,0,0,1,0,0V0A0,0,0,0,1,0,0Z" fill="#c4d1ff"/>
        </g>
      </g>
    </g>
    <g id="Grupo_158732" data-name="Grupo 158732" transform="translate(12646.94 -10280.667)">
      <g id="Grupo_158733" data-name="Grupo 158733">
        <g id="Grupo_158692" data-name="Grupo 158692">
          <g id="Grupo_158735" data-name="Grupo 158735">
            <g id="Grupo_158690" data-name="Grupo 158690" opacity="0.31">
              <g id="Grupo_158689" data-name="Grupo 158689">
                <g id="Grupo_158688" data-name="Grupo 158688" clip-path="url(#clip-path)">
                  <path id="Trazado_131891" data-name="Trazado 131891" d="M74.535,241.62c14.447,14.248,29.027,28.6,46.07,39.615s36.951,18.575,57.225,17.745c16.331-.669,31.963-6.689,46.731-13.7,11.153-5.29,22.193-11.316,30.9-20.068,21.948-22.064,23.891-60.981,4.249-85.12-14.083-17.308-36.278-26.189-51.356-42.636-25.811-28.153-26.261-72.949-51.918-101.242-17.071-18.825-44.566-27.527-69.36-21.951-10.163,2.286-20.227,7.14-26.221,15.66C51.137,43.744,54.6,62.539,58.725,78.919s8.24,34.843-.573,49.253c-8.527,13.941-27.187,20.166-33.359,35.3-5.281,12.946.526,27.51,6.371,40.212,4.665,10.14,10.414,21.2,20.944,24.906,11.542,4.058,24.432-2.378,36.415.093" fill="#6b8dfc"/>
                  <path id="Trazado_131892" data-name="Trazado 131892" d="M234.146,137.495c-5.591-4.8-10.789-10.511-12.926-17.564s-.474-15.667,5.52-19.954c7.839-5.608,19.26-1.608,25.983,5.3,5.7,5.853,9.478,14.267,7.6,22.217s-10.841,14.2-18.467,11.27" fill="#6b8dfc"/>
                </g>
              </g>
            </g>
          </g>
        </g>
        <path id="Trazado_131893" data-name="Trazado 131893" d="M36.855,260.017,4.709,308.936h237.6l-32.146-48.919Z" fill="#8284d2"/>
        <g id="Grupo_158730" data-name="Grupo 158730">
          <g id="Grupo_158734" data-name="Grupo 158734">
            <path id="Trazado_131894" data-name="Trazado 131894" d="M32.352,239.8c-12.717-6.777-19.616-15.166-24.133-28.851-1.07-3.244-1.653-7.312.845-9.642,2.678-2.5,7.027-1.289,10.252.442a46.283,46.283,0,0,1,15.152,13.06c5.168,6.933,9.5,16.122,18.014,17.639a3.506,3.506,0,0,0,2.312-.19c2.083-1.155.731-4.292-.587-6.277a28.854,28.854,0,0,1-4.556-12.158,4.43,4.43,0,0,1,.144-2.331,3.687,3.687,0,0,1,2.724-1.879c4.076-.88,8.05,1.665,11.292,4.286,8.261,6.677,19.737,17.755,25.426,26.725" fill="#3c3fa7"/>
            <path id="Trazado_131895" data-name="Trazado 131895" d="M116.632,164.255A59.641,59.641,0,0,1,86.9,143.621c-3.555-4.643-6.483-10.034-6.849-15.87-.206-3.273,1.059-7.291,4.284-7.889,2.331-.433,4.513,1.168,6.288,2.741a92.383,92.383,0,0,1,26.93,41.857" fill="#3c3fa7"/>
            <path id="Trazado_131896" data-name="Trazado 131896" d="M48,179.713c-6.029-1.234-12.137-2.514-17.617-5.313s-10.35-7.346-12.166-13.225c-.72-2.331-.882-5.049.526-7.041,1.773-2.508,5.334-2.951,8.375-2.525A25.987,25.987,0,0,1,43.452,161.4a38.357,38.357,0,0,1,7.435,17.808" fill="#3c3fa7"/>
            <path id="Trazado_131897" data-name="Trazado 131897" d="M57.458,183.35a39.219,39.219,0,0,1-3.615-10.555c-1.039-4.948-1.391-10.54,1.578-14.634a5.076,5.076,0,0,1,3.7-2.365,5.114,5.114,0,0,1,2.582.762,11.53,11.53,0,0,1,5.8,8.967c.282,3.4-.984,6.752-2.685,9.707s-3.848,5.633-5.575,8.573" fill="#3c3fa7"/>
            <path id="Trazado_131898" data-name="Trazado 131898" d="M66.51,192.538a54.3,54.3,0,0,0-11.645-1.83,18.238,18.238,0,0,0-11.151,3.2,2.929,2.929,0,0,0-1.285,1.687,2.615,2.615,0,0,0,.639,1.947,8.27,8.27,0,0,0,6.448,2.968,18.782,18.782,0,0,0,7.128-1.565c3.091-1.2,6.239-2.838,7.918-5.7" fill="#3c3fa7"/>
            <path id="Trazado_131899" data-name="Trazado 131899" d="M80.372,202.723a46.944,46.944,0,0,1-2.793-10.861,15.8,15.8,0,0,1,2.481-10.717,2.3,2.3,0,0,1,1.079-.928,2.132,2.132,0,0,1,1.656.34,9.477,9.477,0,0,1,3.991,5.754,17.469,17.469,0,0,1-4.217,16.734" fill="#b2cdc1"/>
            <path id="Trazado_131900" data-name="Trazado 131900" d="M26.821,158.773c1.839,7.534,9.3,12.178,15.127,16.522,6.473,4.826,13.076,9.471,19.65,14.157,13.044,9.3,26.072,18.79,37.451,30.122a123.364,123.364,0,0,1,17.017,20.856c.482.754,1.69.056,1.205-.7-8.479-13.261-19.759-24.368-31.929-34.239C72.969,195.452,59.723,186.578,46.863,177.2c-3.611-2.635-7.246-5.266-10.714-8.087-3.5-2.849-6.879-6.181-7.983-10.706-.213-.871-1.558-.5-1.345.371" fill="#6b8dfc"/>
            <g id="Grupo_158695" data-name="Grupo 158695" style="mix-blend-mode: overlay;isolation: isolate">
              <g id="Grupo_158694" data-name="Grupo 158694">
                <g id="Grupo_158693" data-name="Grupo 158693" clip-path="url(#clip-path-2)">
                  <path id="Trazado_131901" data-name="Trazado 131901" d="M53.071,224.1a16.265,16.265,0,0,1,10.062-10.737c-3.111-2.417-6.818-4.569-10.614-3.75a3.687,3.687,0,0,0-2.724,1.88,4.441,4.441,0,0,0-.145,2.331A28.884,28.884,0,0,0,53.071,224.1" fill="#b2cdc1"/>
                  <path id="Trazado_131902" data-name="Trazado 131902" d="M31.782,235a103.4,103.4,0,0,1-12.736-17.158c-2.292-4.078-4.821-9.339-3.259-14.1a8.193,8.193,0,0,1,1.617-2.886c-2.883-1.157-6.164-1.575-8.34.454-2.5,2.33-1.916,6.4-.845,9.642,4.517,13.685,11.416,22.074,24.133,28.851l3.751.054c-1.5-1.609-2.934-3.274-4.321-4.854" fill="#b2cdc1"/>
                  <path id="Trazado_131903" data-name="Trazado 131903" d="M109.493,149.026c1.5,2.2,3.117,4.315,4.76,6.406a92.778,92.778,0,0,0-11.028-19.126c-.624,3.318,5.059,10.945,6.268,12.72" fill="#b2cdc1"/>
                  <path id="Trazado_131904" data-name="Trazado 131904" d="M87.282,136.965A12.161,12.161,0,0,1,92.5,124.321c-.618-.58-1.239-1.157-1.873-1.718-1.776-1.572-3.957-3.174-6.289-2.741-3.225.6-4.49,4.616-4.284,7.889.367,5.836,3.294,11.228,6.849,15.871a58.551,58.551,0,0,0,5.97,6.659,35.589,35.589,0,0,1-5.591-13.316" fill="#b2cdc1"/>
                  <path id="Trazado_131905" data-name="Trazado 131905" d="M44.064,178.566c-8.8-2.5-17.761-12.7-19.757-21.547a18.05,18.05,0,0,1-.371-5.485,6.915,6.915,0,0,0-5.2,2.6c-1.408,1.993-1.246,4.711-.526,7.041C20.031,167.055,24.9,171.6,30.381,174.4S41.969,178.479,48,179.713l2.889-.5c-.048-.3-.113-.591-.167-.886a9.893,9.893,0,0,1-6.656.243" fill="#b2cdc1"/>
                  <path id="Trazado_131906" data-name="Trazado 131906" d="M67.5,165.525a11.53,11.53,0,0,0-5.8-8.967,7.769,7.769,0,0,0-.971-.449c2.369,6.713,3.633,14.163-.255,20.4a4.427,4.427,0,0,1-5.07,2.053,31.894,31.894,0,0,0,2.048,4.793l1.785.455c1.727-2.94,3.874-5.619,5.575-8.573s2.967-6.309,2.685-9.707" fill="#b2cdc1"/>
                  <path id="Trazado_131907" data-name="Trazado 131907" d="M48.755,196.351a10.276,10.276,0,0,1-3.093-3.64,13.964,13.964,0,0,0-1.949,1.2,2.924,2.924,0,0,0-1.284,1.687,2.607,2.607,0,0,0,.639,1.946,8.26,8.26,0,0,0,6.447,2.968,17.058,17.058,0,0,0,6.08-1.176,15.891,15.891,0,0,1-6.84-2.986" fill="#b2cdc1"/>
                  <path id="Trazado_131908" data-name="Trazado 131908" d="M80.9,185.327a11.188,11.188,0,0,1,5.6.1,8.949,8.949,0,0,0-3.7-4.872,2.138,2.138,0,0,0-1.656-.341,2.3,2.3,0,0,0-1.08.929,13.5,13.5,0,0,0-2.285,5.58,9.48,9.48,0,0,1,3.13-1.4" fill="#b2cdc1"/>
                </g>
              </g>
            </g>
            <path id="Trazado_131909" data-name="Trazado 131909" d="M211.532,239.8c12.717-6.777,19.616-15.166,24.133-28.851,1.071-3.244,1.653-7.312-.845-9.642-2.678-2.5-7.027-1.289-10.252.442a46.283,46.283,0,0,0-15.152,13.06c-5.168,6.933-9.5,16.122-18.014,17.639a3.506,3.506,0,0,1-2.312-.19c-2.083-1.155-.731-4.292.587-6.277a28.855,28.855,0,0,0,4.557-12.158,4.441,4.441,0,0,0-.145-2.331,3.685,3.685,0,0,0-2.724-1.879c-4.076-.88-8.049,1.665-11.292,4.286-8.261,6.677-19.736,17.755-25.426,26.725" fill="#3c3fa7"/>
            <path id="Trazado_131910" data-name="Trazado 131910" d="M141.2,137.7A32.776,32.776,0,0,0,155.06,123.44a16.441,16.441,0,0,0,2.022-9.279c-.233-1.786-1.338-3.82-3.14-3.8-1.3.012-2.311,1.106-3.1,2.14A50.762,50.762,0,0,0,140.725,137.9" fill="#3c3fa7"/>
            <path id="Trazado_131911" data-name="Trazado 131911" d="M195.886,179.713c6.028-1.234,12.137-2.514,17.617-5.313s10.35-7.346,12.166-13.225c.72-2.331.882-5.049-.526-7.041-1.773-2.508-5.335-2.951-8.375-2.525a25.987,25.987,0,0,0-16.336,9.791A38.357,38.357,0,0,0,193,179.208" fill="#3c3fa7"/>
            <path id="Trazado_131912" data-name="Trazado 131912" d="M186.425,183.35a39.219,39.219,0,0,0,3.615-10.555c1.039-4.948,1.391-10.54-1.578-14.634a4.3,4.3,0,0,0-6.285-1.6,11.53,11.53,0,0,0-5.8,8.967c-.282,3.4.983,6.752,2.685,9.707s3.848,5.633,5.575,8.573" fill="#3c3fa7"/>
            <path id="Trazado_131913" data-name="Trazado 131913" d="M177.374,192.538a54.3,54.3,0,0,1,11.645-1.83,18.236,18.236,0,0,1,11.151,3.2,2.929,2.929,0,0,1,1.285,1.687,2.615,2.615,0,0,1-.639,1.947,8.268,8.268,0,0,1-6.447,2.968,18.783,18.783,0,0,1-7.129-1.565c-3.091-1.2-6.239-2.838-7.918-5.7" fill="#3c3fa7"/>
            <path id="Trazado_131914" data-name="Trazado 131914" d="M163.511,202.723a46.945,46.945,0,0,0,2.793-10.861,15.8,15.8,0,0,0-2.481-10.717,2.3,2.3,0,0,0-1.079-.928,2.132,2.132,0,0,0-1.656.34,9.477,9.477,0,0,0-3.991,5.754,17.466,17.466,0,0,0,4.217,16.734" fill="#3c3fa7"/>
            <path id="Trazado_131915" data-name="Trazado 131915" d="M215.718,158.4c-.974,3.992-3.73,7.067-6.769,9.689-3.019,2.607-6.286,4.949-9.494,7.317-6.444,4.757-13,9.357-19.519,14.014-12.847,9.183-25.643,18.622-36.786,29.866a124.329,124.329,0,0,0-16.537,20.438c-.485.758.722,1.459,1.2.7,8.632-13.5,20.214-24.723,32.646-34.711,12.588-10.115,26.049-19.065,39.048-28.629,3.521-2.591,7.114-5.154,10.425-8.012,3.215-2.776,6.1-6.088,7.127-10.305.212-.872-1.132-1.244-1.345-.371" fill="#6b8dfc"/>
            <g id="Grupo_158698" data-name="Grupo 158698" style="mix-blend-mode: overlay;isolation: isolate">
              <g id="Grupo_158697" data-name="Grupo 158697">
                <g id="Grupo_158696" data-name="Grupo 158696" clip-path="url(#clip-path-3)">
                  <path id="Trazado_131916" data-name="Trazado 131916" d="M143.447,128.732c-.578,1.346-1.226,2.655-1.892,3.955a50.959,50.959,0,0,1,3.933-11.474c.685,1.723-1.576,6.435-2.041,7.519" fill="#b2cdc1"/>
                </g>
              </g>
            </g>
            <g id="Grupo_158701" data-name="Grupo 158701" style="mix-blend-mode: overlay;isolation: isolate">
              <g id="Grupo_158700" data-name="Grupo 158700">
                <g id="Grupo_158699" data-name="Grupo 158699" clip-path="url(#clip-path-4)">
                  <path id="Trazado_131917" data-name="Trazado 131917" d="M154.155,119.89a6.682,6.682,0,0,0-4.145-6.269c.273-.377.547-.754.829-1.123.793-1.035,1.8-2.128,3.1-2.14,1.8-.017,2.907,2.016,3.141,3.8a16.451,16.451,0,0,1-2.023,9.279,32.142,32.142,0,0,1-2.518,4.219,19.555,19.555,0,0,0,1.613-7.769" fill="#b2cdc1"/>
                </g>
              </g>
            </g>
            <g id="Grupo_158704" data-name="Grupo 158704" style="mix-blend-mode: overlay;isolation: isolate">
              <g id="Grupo_158703" data-name="Grupo 158703">
                <g id="Grupo_158702" data-name="Grupo 158702" clip-path="url(#clip-path-5)">
                  <path id="Trazado_131918" data-name="Trazado 131918" d="M190.813,224.1a16.265,16.265,0,0,0-10.062-10.737c3.111-2.417,6.818-4.569,10.614-3.75a3.687,3.687,0,0,1,2.724,1.88,4.441,4.441,0,0,1,.145,2.331,28.884,28.884,0,0,1-3.421,10.276" fill="#b2cdc1"/>
                  <path id="Trazado_131919" data-name="Trazado 131919" d="M212.1,235a103.4,103.4,0,0,0,12.736-17.158c2.292-4.078,4.821-9.339,3.259-14.1a8.193,8.193,0,0,0-1.617-2.886c2.883-1.157,6.163-1.575,8.34.454,2.5,2.33,1.916,6.4.845,9.642-4.517,13.685-11.416,22.074-24.133,28.851l-3.751.054c1.5-1.609,2.934-3.274,4.321-4.854" fill="#b2cdc1"/>
                  <path id="Trazado_131920" data-name="Trazado 131920" d="M199.82,178.566c8.8-2.5,17.761-12.7,19.757-21.547a18.049,18.049,0,0,0,.371-5.485,6.915,6.915,0,0,1,5.2,2.6c1.408,1.993,1.246,4.711.526,7.041-1.816,5.881-6.685,10.428-12.166,13.227s-11.588,4.078-17.617,5.312l-2.889-.5c.048-.3.114-.591.167-.886a9.893,9.893,0,0,0,6.656.243" fill="#b2cdc1"/>
                  <path id="Trazado_131921" data-name="Trazado 131921" d="M176.381,165.525a11.53,11.53,0,0,1,5.8-8.967,7.769,7.769,0,0,1,.971-.449c-2.369,6.713-3.633,14.163.255,20.4a4.427,4.427,0,0,0,5.07,2.053,31.894,31.894,0,0,1-2.048,4.793l-1.785.455c-1.727-2.94-3.874-5.619-5.575-8.573s-2.967-6.309-2.685-9.707" fill="#b2cdc1"/>
                  <path id="Trazado_131922" data-name="Trazado 131922" d="M195.129,196.351a10.276,10.276,0,0,0,3.093-3.64,13.964,13.964,0,0,1,1.949,1.2,2.924,2.924,0,0,1,1.284,1.687,2.607,2.607,0,0,1-.639,1.946,8.26,8.26,0,0,1-6.447,2.968,17.062,17.062,0,0,1-6.08-1.176,15.891,15.891,0,0,0,6.84-2.986" fill="#b2cdc1"/>
                  <path id="Trazado_131923" data-name="Trazado 131923" d="M162.979,185.327a11.188,11.188,0,0,0-5.6.1,8.949,8.949,0,0,1,3.7-4.872,2.138,2.138,0,0,1,1.656-.341,2.3,2.3,0,0,1,1.08.929,13.5,13.5,0,0,1,2.285,5.58,9.48,9.48,0,0,0-3.13-1.4" fill="#b2cdc1"/>
                </g>
              </g>
            </g>
            <g id="Grupo_158707" data-name="Grupo 158707" opacity="0.51">
              <g id="Grupo_158706" data-name="Grupo 158706">
                <g id="Grupo_158705" data-name="Grupo 158705" clip-path="url(#clip-path-6)">
                  <path id="Trazado_131924" data-name="Trazado 131924" d="M55.848,141.078a2.164,2.164,0,1,0-2.164,2.164,2.164,2.164,0,0,0,2.164-2.164" fill="#3c3fa7"/>
                  <path id="Trazado_131925" data-name="Trazado 131925" d="M9.474,189.616a3.092,3.092,0,1,0-3.092,3.092,3.092,3.092,0,0,0,3.092-3.092" fill="#3c3fa7"/>
                  <path id="Trazado_131926" data-name="Trazado 131926" d="M45.955,69.972a5.565,5.565,0,1,0-5.565,5.565,5.566,5.566,0,0,0,5.565-5.565" fill="#3c3fa7"/>
                  <path id="Trazado_131927" data-name="Trazado 131927" d="M157.252,83.884a2.474,2.474,0,1,0-2.473,2.473,2.473,2.473,0,0,0,2.473-2.473" fill="#3c3fa7"/>
                  <path id="Trazado_131928" data-name="Trazado 131928" d="M241.962,184.979A4.019,4.019,0,1,0,237.943,189a4.019,4.019,0,0,0,4.019-4.019" fill="#3c3fa7"/>
                  <path id="Trazado_131929" data-name="Trazado 131929" d="M195.279,135.2a1.546,1.546,0,1,0-1.546,1.546,1.546,1.546,0,0,0,1.546-1.546" fill="#3c3fa7"/>
                  <path id="Trazado_131930" data-name="Trazado 131930" d="M126.954,29.781a4.328,4.328,0,1,0-4.328,4.328,4.328,4.328,0,0,0,4.328-4.328" fill="#3c3fa7"/>
                </g>
              </g>
            </g>
            <path id="Trazado_131931" data-name="Trazado 131931" d="M192.03,71.188a11.814,11.814,0,1,0-11.568-12.055A11.813,11.813,0,0,0,192.03,71.188Z" fill="none" stroke="#3c3fa7" stroke-miterlimit="10" stroke-width="0.789"/>
            <path id="Trazado_131932" data-name="Trazado 131932" d="M183.282,49.738c-4.681-2.2-4.423.373-4.226,1.694A3.662,3.662,0,0,0,179.835,53c4.88,6.64,12.416,10.788,20,14.012,1.841.782,3.947,1.525,5.782.729a1.959,1.959,0,0,0,.951-.764c.6-1.04-.4-2.249-1.313-3.03" fill="none" stroke="#3c3fa7" stroke-miterlimit="10" stroke-width="0.789"/>
            <path id="Trazado_131933" data-name="Trazado 131933" d="M39.453,113.132a9.321,9.321,0,1,0-9.511,9.126A9.32,9.32,0,0,0,39.453,113.132Z" fill="none" stroke="#3c3fa7" stroke-miterlimit="10" stroke-width="0.623"/>
            <path id="Trazado_131934" data-name="Trazado 131934" d="M22.53,120.034c-1.734,3.693.294,3.49,1.337,3.334a2.879,2.879,0,0,0,1.234-.614c5.239-3.851,8.512-9.8,11.055-15.78.617-1.452,1.2-3.114.576-4.561a1.546,1.546,0,0,0-.6-.751c-.821-.471-1.775.317-2.391,1.036" fill="none" stroke="#3c3fa7" stroke-miterlimit="10" stroke-width="0.623"/>
            <path id="Trazado_131935" data-name="Trazado 131935" d="M145.069,219.211l-.944,5.866-43.4,5.4-3.609-8.368Z" fill="#ffa288"/>
            <path id="Trazado_131936" data-name="Trazado 131936" d="M212.856,196.7c-.259,1.021.865,1.469,3.006,2.08,1.747,2.446-3.844,3.494-3.844,3.494l-4.717.175s-1.747,0-.7-2.446,1.15-1.912,2.621-2.1c1.4-.175,4.994-.5,3.669-2.272-.525-.7-3.813-1.921-5.766-1.921-.757,0-3.145,2.62-4.542,4.018-1.26,1.26-2.737,5.416-2.737,5.416-21.431,4.659-33.661-1.456-33.661-1.456-3.061-9.349-7.068-56.862-23.424-54.569-3.065.43-9.461,10.444-8.487,19.771.311,14.807,8.7,29.374,12.228,49.357,2.445,13.86,38.377,2.038,57.478-1.223,0,0,29.875-4.542,29.351-7.163s-13.452-.349-13.452-.349,14.326.174,13.976-2.272-16.6-.174-16.6-.174l2.126-1.641a2.1,2.1,0,0,0,.7-2.347l-1.153-3.327a2.079,2.079,0,0,0-1.55-1.36c-.818-.166-1.819-.486-2.606-.705a1.537,1.537,0,0,0-1.92,1.01" fill="#ffa288"/>
            <path id="Trazado_131937" data-name="Trazado 131937" d="M137.051,83.726c4.3-12.162-2-23.478-13.5-26.336-18.569-4.615-17.22-3.814-24.914-23.235A47.211,47.211,0,0,0,76.173,9.613c-5.108-2.566-11.16-4.175-16.516-2.182-18.1,6.734.791,16.535,6.5,21.344A5,5,0,0,1,68.165,31.6a3.957,3.957,0,0,1-.783,2.723c-2.873,4.286-8.948,4.554-14.108,4.53s-11.33.7-13.67,5.3c-2.2,4.325.442,9.614,3.914,13S51.384,63.1,53.957,67.216c2.554,4.084,2.941,9.1,3.51,13.886,2.879,24.2,12.547,43.531,38.883,48.079,18.479,3.192,41.841-5.024,41.194-27.177" fill="#3e1c1a"/>
            <path id="Trazado_131938" data-name="Trazado 131938" d="M136.847,79.582c3.455,2.171,5.123-4.632,5.587-6.614,1.048-4.477,1.3-9.326-.238-13.724a16.392,16.392,0,0,0-6.715-8.638c-3.367-2.042-7.293-2.182-11.1-1.677-4.311.573-8.593,1.918-12.978,1.7a12.582,12.582,0,0,1-10.381-6.378c-4.984-8.318-2.419-18.471-5.39-27.367A26.168,26.168,0,0,0,77.153.013c-.493-.118-.7.642-.209.76A25.462,25.462,0,0,1,94.051,14.987c3.66,8.172,1.539,17.494,4.511,25.837a17.1,17.1,0,0,0,5.571,8.128,14.459,14.459,0,0,0,10.056,2.407c7.633-.634,16.239-4.521,22.82,1.358a17.529,17.529,0,0,1,5.476,12.657,29.165,29.165,0,0,1-.976,8.055c-.367,1.446-1.722,7.07-4.264,5.473-.431-.271-.827.411-.4.68" fill="#3e1c1a"/>
            <path id="Trazado_131939" data-name="Trazado 131939" d="M114.309,124.912a29.6,29.6,0,0,1-46.9-5.439c-3.251-5.558-4.552-11.969-4.767-18.348-.247-7.323.807-14.617,1.948-21.83.078-.5-.681-.71-.76-.21-2.036,12.876-4.131,27.25,2.106,39.345a30.625,30.625,0,0,0,30.38,16.241,31.008,31.008,0,0,0,18.553-9.2c.352-.365-.2-.923-.557-.557" fill="#3e1c1a"/>
            <path id="Trazado_131940" data-name="Trazado 131940" d="M106.532,98.705a.789.789,0,0,1-.968.6c-1.818-.47-5.919-1.924-7.721,2.686-1.822,4.66,2.076,8.532,4.8,9.383.786.246,2.582.875,2.973,1.6,1.2,2.227.979,6.369,1.008,11.61a65.3,65.3,0,0,1-3.971,21.748s22.518,14.888,25.812.8c0,0-.1-27.171.065-27.269,2.784-1.657,12.673-.671,11.918-20.432-.7-18.3-13.5-20.264-16.821-20.508-2.8-.2-12.253-1.984-17.092,19.783" fill="#ffa288"/>
            <path id="Trazado_131941" data-name="Trazado 131941" d="M99.56,103.893s4.391-5.307,5.968,3.7" fill="#d66956"/>
            <g id="Grupo_158710" data-name="Grupo 158710" opacity="0.63">
              <g id="Grupo_158709" data-name="Grupo 158709">
                <g id="Grupo_158708" data-name="Grupo 158708" clip-path="url(#clip-path-7)">
                  <path id="Trazado_131942" data-name="Trazado 131942" d="M122.339,102.741a4.41,4.41,0,1,1-5.286,3.309,4.41,4.41,0,0,1,5.286-3.309" fill="#e7786b"/>
                </g>
              </g>
            </g>
            <g id="Grupo_158713" data-name="Grupo 158713" opacity="0.63">
              <g id="Grupo_158712" data-name="Grupo 158712">
                <g id="Grupo_158711" data-name="Grupo 158711" clip-path="url(#clip-path-8)">
                  <path id="Trazado_131943" data-name="Trazado 131943" d="M139.741,108.856a4.411,4.411,0,0,1,.57-8.236s.625,5.192-.57,8.236" fill="#e7786b"/>
                </g>
              </g>
            </g>
            <path id="Trazado_131944" data-name="Trazado 131944" d="M129.367,106.933a4.35,4.35,0,0,0,4.465,1.7,4.636,4.636,0,0,0,3.008-2.441" fill="none" stroke="#000" stroke-linecap="round" stroke-miterlimit="10" stroke-width="0.525"/>
            <path id="Trazado_131945" data-name="Trazado 131945" d="M133.074,102.436l-.621,3.364,1.777-.028a.431.431,0,0,0,.369-.644Z" fill="#d66956"/>
            <path id="Trazado_131946" data-name="Trazado 131946" d="M125.56,96.919c-.766.646.261-2.027,1.351-2.425a1.973,1.973,0,0,1,2.595.984,6.162,6.162,0,0,0-3.946,1.441"/>
            <path id="Trazado_131947" data-name="Trazado 131947" d="M138.322,95.509c.868.5-.617-1.948-1.76-2.146a1.974,1.974,0,0,0-2.38,1.429,6.168,6.168,0,0,1,4.14.717"/>
            <path id="Trazado_131948" data-name="Trazado 131948" d="M129.452,119.6a28.657,28.657,0,0,1-9.277-.912c2.238,6.055,7.11,5.669,9.277.912" fill="#d66956"/>
            <path id="Trazado_131949" data-name="Trazado 131949" d="M136.041,75.695c10.37,5.332,5.479,18.26,5.479,18.26-5.007.611-10.132-6.362-11.584-11.192l-.471-1.567a12.882,12.882,0,0,1-8.79,13.049l-9.923,3.3L113.794,86.1l-4.77,13.45-6.988-2.1s9.82-34.188,34-21.754" fill="#3e1c1a"/>
            <path id="Trazado_131950" data-name="Trazado 131950" d="M127.9,102.913c1.01.347,2.209.71,3.082-.34" fill="none" stroke="#000" stroke-linecap="round" stroke-miterlimit="10" stroke-width="0.525"/>
            <path id="Trazado_131951" data-name="Trazado 131951" d="M134.652,102.331c1.009.347,2.209.71,3.081-.34" fill="none" stroke="#000" stroke-linecap="round" stroke-miterlimit="10" stroke-width="0.525"/>
            <path id="Trazado_131952" data-name="Trazado 131952" d="M129.639,135.361s21.664-4.018,27.254,30.923l-25.158,4.193Z" fill="#6e7dd6"/>
            <g id="Grupo_158716" data-name="Grupo 158716" opacity="0.58" style="mix-blend-mode: multiply;isolation: isolate">
              <g id="Grupo_158715" data-name="Grupo 158715">
                <g id="Grupo_158714" data-name="Grupo 158714" clip-path="url(#clip-path-9)">
                  <path id="Trazado_131953" data-name="Trazado 131953" d="M145.2,150.055c-4.672-5.012-10.134-8.8-15.454-12.924l1.99,33.347,25.158-4.193c-.066-.417-.146-.8-.217-1.207A111.978,111.978,0,0,0,145.2,150.055" fill="#6e7dd6"/>
                </g>
              </g>
            </g>
            <path id="Trazado_131954" data-name="Trazado 131954" d="M129.115,135.187c11.356,5.591,20.685,33.4,21.131,45.979.449,12.674-.69,32.989-.69,32.989s-42.395.92-54.858,1.747c-6.85-20.865-7.733-56.1-3.495-72.212A82.283,82.283,0,0,1,104.015,136s18.134,23.784,25.1-.815" fill="#6e7dd6"/>
            <g id="Grupo_158719" data-name="Grupo 158719" opacity="0.58" style="mix-blend-mode: multiply;isolation: isolate">
              <g id="Grupo_158718" data-name="Grupo 158718">
                <g id="Grupo_158717" data-name="Grupo 158717" clip-path="url(#clip-path-10)">
                  <path id="Trazado_131955" data-name="Trazado 131955" d="M90.626,146.181C87.069,163.2,88.181,196.05,94.7,215.9c6.328-.419,20.373-.863,32.668-1.2-17.711-19.538-32.69-42.41-36.74-68.521" fill="#6e7dd6"/>
                </g>
              </g>
            </g>
            <path id="Trazado_131956" data-name="Trazado 131956" d="M21.007,196.7c.259,1.021-.865,1.469-3.006,2.08-1.747,2.446,3.844,3.494,3.844,3.494l4.717.175s1.747,0,.7-2.446-1.15-1.912-2.621-2.1c-1.4-.175-4.994-.5-3.669-2.272.525-.7,3.813-1.921,5.766-1.921.757,0,3.145,2.62,4.542,4.018,1.26,1.26,2.737,5.416,2.737,5.416,21.431,4.659,33.661-1.456,33.661-1.456,3.061-9.349,7.068-56.862,23.424-54.569,3.065.43,9.461,10.444,8.487,19.771-.312,14.807-8.7,29.374-12.227,49.357-2.446,13.86-38.378,2.038-57.479-1.223,0,0-29.875-4.542-29.351-7.163s13.452-.349,13.452-.349S-.343,207.69.007,205.244s16.6-.174,16.6-.174l-2.126-1.641a2.1,2.1,0,0,1-.7-2.347l1.153-3.327a2.079,2.079,0,0,1,1.55-1.36c.818-.166,1.819-.486,2.606-.705a1.537,1.537,0,0,1,1.92,1.01" fill="#ffa288"/>
            <path id="Trazado_131957" data-name="Trazado 131957" d="M96.1,139.729c8.826,1.847,18.519,11.531,4.892,40.882l-30.4-10.483s10.482-33.544,25.507-30.4" fill="#6e7dd6"/>
            <path id="Trazado_131958" data-name="Trazado 131958" d="M97.959,215.2c-13.394,16.073-22.611,58.588-22.611,58.588l92.028-2.216s-5.3-41.755-22.188-57.245c-.058.116-26.031-.874-47.229.873" fill="#ffe8d8"/>
            <g id="Grupo_158722" data-name="Grupo 158722" opacity="0.38" style="mix-blend-mode: multiply;isolation: isolate">
              <g id="Grupo_158721" data-name="Grupo 158721">
                <g id="Grupo_158720" data-name="Grupo 158720" clip-path="url(#clip-path-11)">
                  <path id="Trazado_131959" data-name="Trazado 131959" d="M97.959,215.2c-13.394,16.073-22.611,58.588-22.611,58.588l92.028-2.216s-5.3-41.755-22.188-57.245c-.058.116-26.031-.874-47.229.873" fill="#d8c7bc"/>
                </g>
              </g>
            </g>
            <g id="Grupo_158725" data-name="Grupo 158725" opacity="0.31">
              <g id="Grupo_158724" data-name="Grupo 158724">
                <g id="Grupo_158723" data-name="Grupo 158723" clip-path="url(#clip-path-12)">
                  <path id="Trazado_131960" data-name="Trazado 131960" d="M79.77,150.329a29.2,29.2,0,0,0,4.4,6.323c1.687,1.947,3.446,3.857,5.009,5.963a18.509,18.509,0,0,1,3.174,7.184,11.6,11.6,0,0,1,.058,3.946,8.075,8.075,0,0,1-1.568,3.566,9.819,9.819,0,0,0,.916-7.391,18.889,18.889,0,0,0-3.219-6.844c-1.471-2.094-3.233-3.993-4.836-6.041a22.936,22.936,0,0,1-3.936-6.706" fill="#fff"/>
                  <path id="Trazado_131961" data-name="Trazado 131961" d="M73.838,158.259a20.816,20.816,0,0,1,2.933,3,24.632,24.632,0,0,1,4.091,7.329,20.805,20.805,0,0,1,1.012,4.074c-.5-1.305-1-2.593-1.575-3.848s-1.179-2.487-1.856-3.682c-.66-1.205-1.4-2.365-2.157-3.514s-1.6-2.249-2.448-3.361" fill="#fff"/>
                  <path id="Trazado_131962" data-name="Trazado 131962" d="M91.515,141.469c.5,2.312.92,4.636,1.49,6.914A33.539,33.539,0,0,0,95.269,155a19.8,19.8,0,0,0,3.93,5.692,14.6,14.6,0,0,0,5.877,3.683,12.738,12.738,0,0,1-6.295-3.245,19.047,19.047,0,0,1-4.224-5.794,30.347,30.347,0,0,1-2.141-6.819,61.408,61.408,0,0,1-.9-7.044" fill="#fff"/>
                  <path id="Trazado_131963" data-name="Trazado 131963" d="M104.181,212.795a57.367,57.367,0,0,1,2.057-7.874,52.231,52.231,0,0,1,3.281-7.472,43.256,43.256,0,0,1,10.24-12.676,36.56,36.56,0,0,1,14.561-7.284,33.214,33.214,0,0,1,8.12-.908,29.363,29.363,0,0,1,8.028,1.3,29.16,29.16,0,0,0-8.029-.911,32.985,32.985,0,0,0-7.972,1.11,36.81,36.81,0,0,0-14.206,7.3,43.929,43.929,0,0,0-10.215,12.361,52.735,52.735,0,0,0-3.448,7.311,57.125,57.125,0,0,0-2.417,7.743" fill="#fff"/>
                  <path id="Trazado_131964" data-name="Trazado 131964" d="M151.269,193.933a16.69,16.69,0,0,0-3.956-1.6,5.09,5.09,0,0,0-3.955.584,3.318,3.318,0,0,0-1.221,1.5,21.183,21.183,0,0,0-.621,2.026,11.526,11.526,0,0,1-5.456,6.764c-1.282.724-2.614,1.284-3.9,1.888a10.43,10.43,0,0,0-3.436,2.4,5.224,5.224,0,0,0-1.539,3.828,5.227,5.227,0,0,1,1.244-4.078,10.855,10.855,0,0,1,3.455-2.691c1.275-.7,2.61-1.243,3.816-1.968a11.779,11.779,0,0,0,5.134-6.359,21.414,21.414,0,0,1,.68-2.083,3.7,3.7,0,0,1,1.52-1.74,5.55,5.55,0,0,1,4.373-.447,14.966,14.966,0,0,1,3.863,1.976" fill="#fff"/>
                  <path id="Trazado_131965" data-name="Trazado 131965" d="M137.184,136.826a37.336,37.336,0,0,0,2.776,5.4,35.116,35.116,0,0,0,8.036,8.92,37.38,37.38,0,0,0,5.078,3.324,23.59,23.59,0,0,1-5.438-2.836,26.688,26.688,0,0,1-8.2-9.1,23.628,23.628,0,0,1-2.255-5.7" fill="#fff"/>
                  <path id="Trazado_131966" data-name="Trazado 131966" d="M131.066,136.826q.84,4.152,1.313,8.375.437,4.221.485,8.475a20.1,20.1,0,0,1-1.215,8.46,7.2,7.2,0,0,1-2.844,3.338,9.049,9.049,0,0,1-4.235,1.1c-1.436.061-2.845-.01-4.219.1a10.69,10.69,0,0,0-2.007.347,7.242,7.242,0,0,0-1.816.847c-2.276,1.52-3.584,4.119-5.1,6.484A29.312,29.312,0,0,1,98.863,185.5a31.032,31.032,0,0,0,12.049-11.469c.717-1.208,1.4-2.451,2.22-3.629a11.686,11.686,0,0,1,3-3.136,7.958,7.958,0,0,1,2-.953,11.409,11.409,0,0,1,2.155-.393c1.442-.121,2.861-.063,4.245-.131a8.3,8.3,0,0,0,3.89-.958A6.454,6.454,0,0,0,131,161.84c1.126-2.506,1.226-5.369,1.263-8.165.04-2.814-.054-5.631-.263-8.44q-.279-4.218-.931-8.409" fill="#fff"/>
                </g>
              </g>
            </g>
            <path id="Trazado_131967" data-name="Trazado 131967" d="M184.933,282.014c1.678-.292-.041-3.406-3.94-4.577-6.238-1.872-16.274-5.4-19.217-8.978-3.4-4.133-6.549-5.748-8.809-6.342a5.388,5.388,0,0,0-4.841,1.121,6.436,6.436,0,0,1-3.348,1.68,13.327,13.327,0,0,1-3.1-.264l.718,19.005s34.968-.33,42.54-1.645" fill="#ffa288"/>
            <path id="Trazado_131968" data-name="Trazado 131968" d="M145.047,283.486S28.126,281.774,27.313,251.531c-.752-27.943,45.721-21.3,50.613-20.605,18.325,2.618,67.668,25.474,67.668,25.474Z" fill="#ffe8d8"/>
            <g id="Grupo_158728" data-name="Grupo 158728" opacity="0.28" style="mix-blend-mode: multiply;isolation: isolate">
              <g id="Grupo_158727" data-name="Grupo 158727">
                <g id="Grupo_158726" data-name="Grupo 158726" clip-path="url(#clip-path-13)">
                  <path id="Trazado_131969" data-name="Trazado 131969" d="M113.916,242.807l30.749,12.928-.658,27.842S68.829,279.519,51.182,270.7Z" fill="#d8c7bc"/>
                </g>
              </g>
            </g>
            <line id="Línea_283" data-name="Línea 283" y1="31.059" x2="3.353" transform="translate(134.301 252.165)" fill="none" stroke="#fff" stroke-miterlimit="10" stroke-width="1.051"/>
            <path id="Trazado_131970" data-name="Trazado 131970" d="M108.674,281.941s111.958-3.819,108.668-33.893c-2.446-22.363-39.135-18-56.6-11.88s-53.461,22.362-53.461,22.362Z" fill="#ffe8d8"/>
            <path id="Trazado_131971" data-name="Trazado 131971" d="M66.525,282c-1.7-.127-.29-3.394,3.477-4.937,6.027-2.469,15.674-6.952,18.255-10.8,2.981-4.443,5.961-6.357,8.153-7.167a5.383,5.383,0,0,1,4.926.646,6.444,6.444,0,0,0,3.5,1.347,13.333,13.333,0,0,0,3.063-.564l1.129,18.985s-34.836,3.065-42.5,2.49" fill="#ffa288"/>
            <line id="Línea_284" data-name="Línea 284" x2="2.329" y2="24.343" transform="translate(113.333 256.201)" fill="none" stroke="#fff" stroke-miterlimit="10" stroke-width="1.051"/>
          </g>
        </g>
      </g>
    </g>
  </g>
</svg>
