<svg xmlns="http://www.w3.org/2000/svg" xmlns:xlink="http://www.w3.org/1999/xlink" width="316.653" height="337" viewBox="0 0 316.653 337">
  <defs>
    <linearGradient id="linear-gradient" x1="0.511" y1="0.892" x2="0.463" y2="0.149" gradientUnits="objectBoundingBox">
      <stop offset="0" stop-color="#f7c9bc"/>
      <stop offset="1" stop-color="#f7c1a8"/>
    </linearGradient>
    <linearGradient id="linear-gradient-2" x1="0.511" y1="-0.354" x2="0.476" y2="0.783" gradientUnits="objectBoundingBox">
      <stop offset="0" stop-color="#00f4c4"/>
      <stop offset="1" stop-color="#00f5f5" stop-opacity="0"/>
    </linearGradient>
    <clipPath id="clip-path">
      <path id="Trazado_134222" data-name="Trazado 134222" d="M278.106,180c-1.159-4.326-2.306-8.351-3.318-11.9-1.837-6.444-3.287-11.533-3.864-15.054l-.006-.036a15.488,15.488,0,0,1-.252-3.359,25.481,25.481,0,0,0-.268-7.033c-.9-.088-2.66-.144-4.116-.144a1.686,1.686,0,0,1-1.575-1.084l-2.764-7.229-1.587.8a1.686,1.686,0,0,1-2.313-.853c-3.794-9.038-7.148-16.312-8.089-17.551-1.324-.752-6.966-3.65-10.748-5.385a1.686,1.686,0,0,1-.938-1.92c.177-.749,4.22-18.485-5.165-31.064a1.686,1.686,0,0,1,.1-2.141,21.827,21.827,0,0,0,5.154-11.979c.781-6.4-.953-12.748-4.636-16.985-4.1-4.72-10.991-7.346-18.438-7.031a23.092,23.092,0,0,0-12.463,3.921,18.7,18.7,0,0,0-6.84,19.93,1.686,1.686,0,0,1-1.45,2.147c-11.5,1.161-19.963,5.4-25.158,12.6-9.122,12.639-5.3,30.369-5.128,31.117a1.686,1.686,0,0,1-.926,1.893c-3.793,1.789-8.563,4.257-9.7,4.9-.941,1.242-4.294,8.514-8.088,17.551a1.685,1.685,0,0,1-2.312.853l-1.587-.8-2.764,7.229a1.687,1.687,0,0,1-1.575,1.084c-1.45,0-3.2.055-4.1.142a11.187,11.187,0,0,0-.312,2.228c-.009.144-.018.286-.025.434a41.042,41.042,0,0,0,.058,4.372,15.547,15.547,0,0,1-.252,3.359l-.006.036c-.1.637-.237,1.327-.406,2.107l-.128.578c-.366,1.623-.871,3.592-1.59,6.2l-.149.541c-.485,1.745-1.022,3.628-1.594,5.639L127.958,171l-.005.017c-.679,2.393-1.575,5.577-2.488,8.983-.751,2.806-1.393,5.618-1.909,8.358l0,.023-.1.526a78.933,78.933,0,0,0-1.227,10.192l-.01.2c-.319,6.956.652,12.264,2.885,15.772.106.166.217.325.329.484a10.134,10.134,0,0,0,5.726,4.058c9.06,2.566,17.3-3.17,21.4-6.817.184-.163.357-.32.523-.472a29.257,29.257,0,0,0,2.182-2.207,1.687,1.687,0,0,1,2.877,1.644c-.2.592-4.76,14.694,9.928,24.37l.034.023.037.023.388.253a1.691,1.691,0,0,1,.665.8l10.129,25.577h44.662l10.056-25.39h0l.009-.021.066-.167a1.684,1.684,0,0,1,.662-.8c15.245-9.68,10.593-24.067,10.387-24.675a1.7,1.7,0,0,1-.08-.731l.022-.2a1.687,1.687,0,0,1,2.779-1.089c.108.094.177.149.189.159a1.671,1.671,0,0,1,.233.225,29.354,29.354,0,0,0,2.165,2.19,1.676,1.676,0,0,1,.143.149c.07.065.143.13.217.2a1.7,1.7,0,0,1,.161.127c4.108,3.654,12.357,9.4,21.422,6.833C286.093,215.749,280.951,190.622,278.106,180Zm-90.856-12.57A1.687,1.687,0,0,1,186.187,169l-2.331.928a1.72,1.72,0,0,1-.72.117l-4.8,1.8a1.69,1.69,0,0,1-.741.578l-23.681,9.434-.028.011-.026.011-.115.046a1.686,1.686,0,0,1-2.238-2.059s.27-.883.712-2.343l.025-.083c.542-1.787,1.331-4.407,2.2-7.344,4.353-14.685,5.248-18.724,5.415-19.83a9.739,9.739,0,0,0-2.459-1.4,2.005,2.005,0,0,1-1.222-2.664,10.45,10.45,0,0,0,1.3-3.936,1.686,1.686,0,0,1,.421-2.717c1.327-.664-.23-5.719-.816-7.623l-.041-.133a81.793,81.793,0,0,1-1.911-11.131,1.69,1.69,0,0,1,.313-1.172l2.111-2.9a1.675,1.675,0,0,1,.527-.472c.471-.27.958-.581,1.447-.927a1.686,1.686,0,0,1,2.659,1.377v4.706a15.491,15.491,0,0,0,11.364,14.907,1.686,1.686,0,0,1,.939.664,51.968,51.968,0,0,0,12.066,12.245,1.686,1.686,0,0,1,.69,1.361Zm64.67,13.76-.063.111-.013.022-.023.044-.221.4a1.687,1.687,0,0,1-3.063-.253l-24.7-9.84-4.252-1.739a1.674,1.674,0,0,1-.363-.1l-2.1-.836a1.687,1.687,0,0,1-1.062-1.566v-17.01a1.686,1.686,0,0,1,.665-1.341,53.56,53.56,0,0,0,11.925-12.587,1.684,1.684,0,0,1,.835-.644,15.484,15.484,0,0,0,10.316-14.58v-5.932a1.686,1.686,0,0,1,2.772-1.29,19.969,19.969,0,0,0,2.916,2.066,1.674,1.674,0,0,1,.527.472l2.111,2.9a1.69,1.69,0,0,1,.313,1.172,81.934,81.934,0,0,1-1.912,11.131l-.042.136c-.585,1.9-2.141,6.957-.816,7.62a1.686,1.686,0,0,1,.422,2.716,10.45,10.45,0,0,0,1.3,3.938,2.4,2.4,0,0,1-1.222,2.663,9.8,9.8,0,0,0-2.457,1.4c.079.506.319,1.709,1.047,4.486a1.668,1.668,0,0,1,.045.245l.016.059a1.722,1.722,0,0,1,.081.234c.639,2.408,1.521,5.554,2.621,9.348a1.7,1.7,0,0,1,.053.244l.018.062a1.67,1.67,0,0,1,.087.232c.432,1.486.867,2.963,1.285,4.377a1.682,1.682,0,0,1,.054.248l.017.058a1.624,1.624,0,0,1,.089.234c.8,2.694,1.529,5.123,2.062,6.885a1.637,1.637,0,0,1,.054.243l.02.067a1.558,1.558,0,0,1,.09.232c.443,1.462.713,2.345.714,2.346A1.689,1.689,0,0,1,251.92,181.189Z" transform="translate(-122.156 -40.023)" fill="none"/>
    </clipPath>
    <linearGradient id="linear-gradient-3" x1="0.5" y1="0.768" x2="0.5" y2="-0.932" gradientUnits="objectBoundingBox">
      <stop offset="0" stop-color="#300068"/>
      <stop offset="1" stop-color="#10002f"/>
    </linearGradient>
    <clipPath id="clip-path-2">
      <path id="Trazado_134226" data-name="Trazado 134226" d="M263.367,290.139a52.553,52.553,0,0,1,1.706-20.57c.018-.078.035-.157.054-.235a44.222,44.222,0,0,1,1.687-8.21c-1.267-1.327-2.516-2.672-3.721-4.059a4.063,4.063,0,0,1-.529-.785L237.23,246.035s-7.384,10.224-23,9.372-23.2-7.407-24.359-9.136l-22.357,9.136.232-.961c-.17.129-.337.264-.509.39a46.117,46.117,0,0,1-8.676,6.807,3.287,3.287,0,0,1-.986.419v32.249a71.639,71.639,0,0,0,11.36-6.53s-3.124,16.755,11.359,25.843l11.075,26.695,46.007.284,11.075-26.411s15.9-10.223,11.928-26.695C260.375,287.5,261.5,288.619,263.367,290.139Z" transform="translate(-157.571 -246.035)" fill="none"/>
    </clipPath>
    <linearGradient id="linear-gradient-4" x1="0" y1="0.5" x2="1" y2="0.5" xlink:href="#linear-gradient-3"/>
    <linearGradient id="linear-gradient-5" x1="-2.078" y1="0.5" x2="-1.078" y2="0.5" xlink:href="#linear-gradient-3"/>
    <linearGradient id="linear-gradient-6" x1="0.153" y1="1.317" x2="0.783" y2="-0.14" xlink:href="#linear-gradient-3"/>
    <linearGradient id="linear-gradient-7" x1="0.5" y1="0" x2="0.5" y2="1" xlink:href="#linear-gradient-3"/>
    <linearGradient id="linear-gradient-10" x1="0.456" y1="5.065" x2="0.491" y2="1.609" xlink:href="#linear-gradient-2"/>
    <linearGradient id="linear-gradient-11" x1="0.471" y1="5.907" x2="0.506" y2="-1.293" xlink:href="#linear-gradient-2"/>
    <linearGradient id="linear-gradient-12" x1="0.477" y1="7.21" x2="0.515" y2="-4.788" xlink:href="#linear-gradient-2"/>
    <linearGradient id="linear-gradient-13" x1="0.48" y1="2.447" x2="0.52" y2="-2.535" xlink:href="#linear-gradient-2"/>
    <linearGradient id="linear-gradient-14" x1="0.5" y1="1.02" x2="0.5" y2="-0.344" xlink:href="#linear-gradient-3"/>
    <linearGradient id="linear-gradient-15" x1="0.5" y1="1.115" x2="0.5" y2="-0.2" xlink:href="#linear-gradient"/>
    <linearGradient id="linear-gradient-16" x1="0.5" y1="1.089" x2="0.5" y2="-0.165" xlink:href="#linear-gradient"/>
    <linearGradient id="linear-gradient-17" x1="0.5" y1="-0.15" x2="0.5" y2="1.142" xlink:href="#linear-gradient-3"/>
    <linearGradient id="linear-gradient-18" x1="0.5" y1="-32.068" x2="0.5" y2="16.861" xlink:href="#linear-gradient-3"/>
    <radialGradient id="radial-gradient" cx="0.5" cy="0.5" r="1.848" gradientTransform="translate(0.207 -0.036) scale(0.271 0.271)" gradientUnits="objectBoundingBox">
      <stop offset="0" stop-color="#5ff7f7"/>
      <stop offset="0.085" stop-color="#56d7e3" stop-opacity="0.871"/>
      <stop offset="0.274" stop-color="#4597bc" stop-opacity="0.612"/>
      <stop offset="0.454" stop-color="#36629c" stop-opacity="0.392"/>
      <stop offset="0.62" stop-color="#2b3883" stop-opacity="0.224"/>
      <stop offset="0.77" stop-color="#231a71" stop-opacity="0.102"/>
      <stop offset="0.898" stop-color="#1e0865" stop-opacity="0.027"/>
      <stop offset="0.989" stop-color="#1d0262" stop-opacity="0"/>
    </radialGradient>
    <radialGradient id="radial-gradient-2" cx="0.486" cy="1.009" r="0.584" gradientTransform="matrix(0.002, -1, 1.677, 0.005, -1.206, 1.49)" gradientUnits="objectBoundingBox">
      <stop offset="0.117" stop-color="#5ff7f7"/>
      <stop offset="0.173" stop-color="#54cfdf" stop-opacity="0.839"/>
      <stop offset="0.253" stop-color="#47a0c2" stop-opacity="0.647"/>
      <stop offset="0.337" stop-color="#3c75a8" stop-opacity="0.471"/>
      <stop offset="0.424" stop-color="#325192" stop-opacity="0.325"/>
      <stop offset="0.515" stop-color="#2a3480" stop-opacity="0.208"/>
      <stop offset="0.611" stop-color="#241e73" stop-opacity="0.114"/>
      <stop offset="0.715" stop-color="#200e69" stop-opacity="0.051"/>
      <stop offset="0.832" stop-color="#1d0463" stop-opacity="0.012"/>
      <stop offset="0.989" stop-color="#1d0262" stop-opacity="0"/>
    </radialGradient>
    <radialGradient id="radial-gradient-3" cx="0.5" cy="0.5" r="2.015" gradientTransform="translate(0.2 0.812) scale(0.248 0.248)" gradientUnits="objectBoundingBox">
      <stop offset="0" stop-color="#3c3fa7"/>
      <stop offset="0.128" stop-color="#3c3fa7"/>
      <stop offset="0.232" stop-color="#3c3fa7"/>
      <stop offset="0.273" stop-color="#3c3fa7"/>
      <stop offset="0.377" stop-color="#3c3fa7" stop-opacity="0.867"/>
      <stop offset="0.547" stop-color="#3c3fa7" stop-opacity="0.525"/>
      <stop offset="0.751" stop-color="#3c3fa7" stop-opacity="0"/>
      <stop offset="0.911" stop-color="#3c3fa7" stop-opacity="0"/>
      <stop offset="0.989" stop-color="#3c3fa7" stop-opacity="0"/>
      <stop offset="1" stop-color="#1d0262" stop-opacity="0"/>
    </radialGradient>
    <linearGradient id="linear-gradient-19" x1="-0.059" y1="1.373" x2="0.942" y2="0.211" gradientUnits="objectBoundingBox">
      <stop offset="0" stop-color="#3c3fa7"/>
      <stop offset="1" stop-color="#3c3fa7" stop-opacity="0"/>
    </linearGradient>
    <linearGradient id="linear-gradient-20" x1="-1.729" y1="1.373" x2="-0.728" y2="0.211" xlink:href="#linear-gradient-2"/>
    <radialGradient id="radial-gradient-5" cx="0.5" cy="0.5" r="2.015" gradientTransform="translate(-0.101 1.307) scale(0.248 0.248)" gradientUnits="objectBoundingBox">
      <stop offset="0" stop-color="#fff"/>
      <stop offset="0.141" stop-color="#cec8dd" stop-opacity="0.784"/>
      <stop offset="0.312" stop-color="#988cb8" stop-opacity="0.549"/>
      <stop offset="0.477" stop-color="#6c5b99" stop-opacity="0.353"/>
      <stop offset="0.632" stop-color="#4a3481" stop-opacity="0.2"/>
      <stop offset="0.773" stop-color="#311870" stop-opacity="0.09"/>
      <stop offset="0.896" stop-color="#220765" stop-opacity="0.024"/>
      <stop offset="0.989" stop-color="#1d0262" stop-opacity="0"/>
    </radialGradient>
    <radialGradient id="radial-gradient-6" cx="0.5" cy="0.5" r="2.015" gradientTransform="matrix(0.248, 0, 0, 0.248, -0.711, 1.286)" gradientUnits="objectBoundingBox">
      <stop offset="0" stop-color="#fff"/>
      <stop offset="0.052" stop-color="#e4e1ec" stop-opacity="0.882"/>
      <stop offset="0.153" stop-color="#b6adcc" stop-opacity="0.678"/>
      <stop offset="0.258" stop-color="#8d7faf" stop-opacity="0.494"/>
      <stop offset="0.366" stop-color="#6a5897" stop-opacity="0.345"/>
      <stop offset="0.476" stop-color="#4e3984" stop-opacity="0.22"/>
      <stop offset="0.59" stop-color="#382075" stop-opacity="0.122"/>
      <stop offset="0.709" stop-color="#290f6a" stop-opacity="0.055"/>
      <stop offset="0.837" stop-color="#1f0564" stop-opacity="0.012"/>
      <stop offset="0.989" stop-color="#1d0262" stop-opacity="0"/>
    </radialGradient>
    <radialGradient id="radial-gradient-7" cx="0.5" cy="0.5" r="0.5" gradientTransform="matrix(0, -1, -1, 0, 0.653, 0.653)" xlink:href="#radial-gradient-6"/>
    <linearGradient id="linear-gradient-21" x1="0.5" y1="-0.2" x2="0.5" y2="0.839" xlink:href="#linear-gradient-19"/>
    <linearGradient id="linear-gradient-22" x1="-0.387" y1="-0.345" x2="0.557" y2="0.585" xlink:href="#linear-gradient-19"/>
    <radialGradient id="radial-gradient-11" cx="0.5" cy="0.5" r="2.015" gradientTransform="translate(-0.154 0.839) scale(0.248 0.248)" xlink:href="#radial-gradient-5"/>
    <radialGradient id="radial-gradient-12" cx="0.5" cy="0.5" r="2.015" gradientTransform="matrix(0.248, 0, 0, 0.248, -0.746, 0.708)" xlink:href="#radial-gradient-6"/>
    <radialGradient id="radial-gradient-13" cx="0.5" cy="0.5" r="0.5" gradientTransform="matrix(0, -1, -1, 0, -0.213, -0.213)" xlink:href="#radial-gradient-6"/>
  </defs>
  <g id="Grupo_158737" data-name="Grupo 158737" transform="translate(-11168 9680)">
    <g id="Grupo_158332" data-name="Grupo 158332" transform="translate(11167.952 -9713)">
      <g id="Grupo_87689" data-name="Grupo 87689" transform="translate(0.048 33)">
        <g id="Grupo_87397" data-name="Grupo 87397">
          <path id="Rectángulo_34437" data-name="Rectángulo 34437" d="M0,0H239.654a77,77,0,0,1,77,77V337a0,0,0,0,1,0,0H0a0,0,0,0,1,0,0V0A0,0,0,0,1,0,0Z" fill="#c4d1ff"/>
        </g>
      </g>
    </g>
    <g id="Grupo_158736" data-name="Grupo 158736" transform="translate(11184.051 -9640)">
      <g id="OBJECTS" transform="translate(0 0)">
        <g id="Grupo_79399" data-name="Grupo 79399" transform="translate(23.85)">
          <ellipse id="Elipse_4876" data-name="Elipse 4876" cx="60.277" cy="8.094" rx="60.277" ry="8.094" transform="translate(69.009 216.368)" fill="#c9d5f5"/>
          <g id="Grupo_79398" data-name="Grupo 79398" transform="translate(26.48)">
            <g id="Grupo_79394" data-name="Grupo 79394" transform="translate(18.86)">
              <path id="Trazado_134212" data-name="Trazado 134212" d="M278.106,180c-1.159-4.326-2.306-8.351-3.318-11.9-1.837-6.444-3.287-11.533-3.864-15.054l-.006-.036a15.488,15.488,0,0,1-.252-3.359,25.481,25.481,0,0,0-.268-7.033c-.9-.088-2.66-.144-4.116-.144a1.686,1.686,0,0,1-1.575-1.084l-2.764-7.229-1.587.8a1.686,1.686,0,0,1-2.313-.853c-3.794-9.038-7.148-16.312-8.089-17.551-1.324-.752-6.966-3.65-10.748-5.385a1.686,1.686,0,0,1-.938-1.92c.177-.749,4.22-18.485-5.165-31.064a1.686,1.686,0,0,1,.1-2.141,21.827,21.827,0,0,0,5.154-11.979c.781-6.4-.953-12.748-4.636-16.985-4.1-4.72-10.991-7.346-18.438-7.031a23.092,23.092,0,0,0-12.463,3.921,18.7,18.7,0,0,0-6.84,19.93,1.686,1.686,0,0,1-1.45,2.147c-11.5,1.161-19.963,5.4-25.158,12.6-9.122,12.639-5.3,30.369-5.128,31.117a1.686,1.686,0,0,1-.926,1.893c-3.793,1.789-8.563,4.257-9.7,4.9-.941,1.242-4.294,8.514-8.088,17.551a1.685,1.685,0,0,1-2.312.853l-1.587-.8-2.764,7.229a1.687,1.687,0,0,1-1.575,1.084c-1.45,0-3.2.055-4.1.142a11.187,11.187,0,0,0-.312,2.228c-.009.144-.018.286-.025.434a41.042,41.042,0,0,0,.058,4.372,15.547,15.547,0,0,1-.252,3.359l-.006.036c-.1.637-.237,1.327-.406,2.107l-.128.578c-.366,1.623-.871,3.592-1.59,6.2l-.149.541c-.485,1.745-1.022,3.628-1.594,5.639L127.958,171l-.005.017c-.679,2.393-1.575,5.577-2.488,8.983-.751,2.806-1.393,5.618-1.909,8.358l0,.023-.1.526a78.933,78.933,0,0,0-1.227,10.192l-.01.2c-.319,6.956.652,12.264,2.885,15.772.106.166.217.325.329.484a10.134,10.134,0,0,0,5.726,4.058c9.06,2.566,17.3-3.17,21.4-6.817.184-.163.357-.32.523-.472a29.257,29.257,0,0,0,2.182-2.207,1.687,1.687,0,0,1,2.877,1.644c-.2.592-4.76,14.694,9.928,24.37l.034.023.037.023.388.253a1.691,1.691,0,0,1,.665.8l10.129,25.577h44.662l10.056-25.39h0l.009-.021.066-.167a1.684,1.684,0,0,1,.662-.8c15.245-9.68,10.593-24.067,10.387-24.675a1.7,1.7,0,0,1-.08-.731l.022-.2a1.687,1.687,0,0,1,2.779-1.089c.108.094.177.149.189.159a1.671,1.671,0,0,1,.233.225,29.354,29.354,0,0,0,2.165,2.19,1.676,1.676,0,0,1,.143.149c.07.065.143.13.217.2a1.7,1.7,0,0,1,.161.127c4.108,3.654,12.357,9.4,21.422,6.833C286.093,215.749,280.951,190.622,278.106,180Zm-90.856-12.57A1.687,1.687,0,0,1,186.187,169l-2.331.928a1.72,1.72,0,0,1-.72.117l-4.8,1.8a1.69,1.69,0,0,1-.741.578l-23.681,9.434-.028.011-.026.011-.115.046a1.686,1.686,0,0,1-2.238-2.059s.27-.883.712-2.343l.025-.083c.542-1.787,1.331-4.407,2.2-7.344,4.353-14.685,5.248-18.724,5.415-19.83a9.739,9.739,0,0,0-2.459-1.4,2.005,2.005,0,0,1-1.222-2.664,10.45,10.45,0,0,0,1.3-3.936,1.686,1.686,0,0,1,.421-2.717c1.327-.664-.23-5.719-.816-7.623l-.041-.133a81.793,81.793,0,0,1-1.911-11.131,1.69,1.69,0,0,1,.313-1.172l2.111-2.9a1.675,1.675,0,0,1,.527-.472c.471-.27.958-.581,1.447-.927a1.686,1.686,0,0,1,2.659,1.377v4.706a15.491,15.491,0,0,0,11.364,14.907,1.686,1.686,0,0,1,.939.664,51.968,51.968,0,0,0,12.066,12.245,1.686,1.686,0,0,1,.69,1.361Zm64.67,13.76-.063.111-.013.022-.023.044-.221.4a1.687,1.687,0,0,1-3.063-.253l-24.7-9.84-4.252-1.739a1.674,1.674,0,0,1-.363-.1l-2.1-.836a1.687,1.687,0,0,1-1.062-1.566v-17.01a1.686,1.686,0,0,1,.665-1.341,53.56,53.56,0,0,0,11.925-12.587,1.684,1.684,0,0,1,.835-.644,15.484,15.484,0,0,0,10.316-14.58v-5.932a1.686,1.686,0,0,1,2.772-1.29,19.969,19.969,0,0,0,2.916,2.066,1.674,1.674,0,0,1,.527.472l2.111,2.9a1.69,1.69,0,0,1,.313,1.172,81.934,81.934,0,0,1-1.912,11.131l-.042.136c-.585,1.9-2.141,6.957-.816,7.62a1.686,1.686,0,0,1,.422,2.716,10.45,10.45,0,0,0,1.3,3.938,2.4,2.4,0,0,1-1.222,2.663,9.8,9.8,0,0,0-2.457,1.4c.079.506.319,1.709,1.047,4.486a1.668,1.668,0,0,1,.045.245l.016.059a1.722,1.722,0,0,1,.081.234c.639,2.408,1.521,5.554,2.621,9.348a1.7,1.7,0,0,1,.053.244l.018.062a1.67,1.67,0,0,1,.087.232c.432,1.486.867,2.963,1.285,4.377a1.682,1.682,0,0,1,.054.248l.017.058a1.624,1.624,0,0,1,.089.234c.8,2.694,1.529,5.123,2.062,6.885a1.637,1.637,0,0,1,.054.243l.02.067a1.558,1.558,0,0,1,.09.232c.443,1.462.713,2.345.714,2.346A1.689,1.689,0,0,1,251.92,181.189Z" transform="translate(-120.466 -38.337)" fill="url(#linear-gradient)"/>
              <path id="Trazado_134213" data-name="Trazado 134213" d="M244.584,220.205c-2.4.783-4.763.281-7.747-1.29-1.189-.626-2.412-1.254-3.626-1.911,6.574,5.123,16.666,12.358,23.534,14.328l.049-18.354C253.735,216.337,248.993,219.923,244.584,220.205Z" transform="translate(-161.261 -101.87)" fill="#5036ae" opacity="0.58" style="mix-blend-mode: multiply;isolation: isolate"/>
              <path id="Trazado_134214" data-name="Trazado 134214" d="M204.88,192.849S215.9,208.717,232.6,213.307c0,0,14.12-3.685,26.437-20.805" transform="translate(-150.854 -94.348)" fill="url(#linear-gradient-2)"/>
              <path id="Trazado_134215" data-name="Trazado 134215" d="M204.88,192.849S215.9,208.717,232.6,213.307c0,0,14.12-3.685,26.437-20.805" transform="translate(-150.854 -94.348)" fill="none" stroke="#fff" stroke-linecap="round" stroke-linejoin="round" stroke-width="2"/>
              <path id="Trazado_134216" data-name="Trazado 134216" d="M188.482,150.092c.6-3.762,4.033-6.56,7.694-7.615s7.557-.72,11.358-.446a306.613,306.613,0,0,0,39.961.267c3.365-.2,6.87-.427,9.977.878s5.633,4.685,4.761,7.941a573.775,573.775,0,0,1-66.5.88,38.088,38.088,0,0,1-5.114-.469" transform="translate(-144.83 -75.706)" fill="#5036ae" opacity="0.58" style="mix-blend-mode: multiply;isolation: isolate"/>
              <g id="Grupo_79383" data-name="Grupo 79383" transform="translate(58.718 107.331)">
                <path id="Trazado_134217" data-name="Trazado 134217" d="M214.181,239.048a29.267,29.267,0,0,0,8.688,5.378,14.67,14.67,0,0,0,10.054.251,127.021,127.021,0,0,0-10.776-24.425c-.6-1.041-1.212-2.087-1.787-3.149v15.375a1.687,1.687,0,0,1-1.062,1.566l-2.331.928a1.721,1.721,0,0,1-.72.117L212.3,236.57c.013.051.021.1.037.154A5.327,5.327,0,0,0,214.181,239.048Z" transform="translate(-212.296 -210.715)" fill="#fff" opacity="0.32" style="mix-blend-mode: overlay;isolation: isolate"/>
                <path id="Trazado_134218" data-name="Trazado 134218" d="M220.674,209.628a15.288,15.288,0,0,1-.7-2.62l-2.114.316Q219.219,208.514,220.674,209.628Z" transform="translate(-214.341 -207.007)" fill="#fff" opacity="0.32" style="mix-blend-mode: overlay;isolation: isolate"/>
              </g>
              <path id="Trazado_134219" data-name="Trazado 134219" d="M209.162,104.865a56.037,56.037,0,0,0-3.237,37.621l-7.446-1.022a5.225,5.225,0,0,1-2.167-.629,4.933,4.933,0,0,1-1.274-1.379c-5.031-7.19-7.881-16.717-4.493-24.812a13.168,13.168,0,0,1,2.125-3.549c3.8-4.394,10.359-4.763,16.165-4.8" transform="translate(-145.046 -62.155)" fill="#fff" opacity="0.32" style="mix-blend-mode: overlay;isolation: isolate"/>
              <g id="Grupo_79385" data-name="Grupo 79385" transform="translate(1.69 1.686)">
                <g id="Grupo_79384" data-name="Grupo 79384" clip-path="url(#clip-path)">
                  <path id="Trazado_134220" data-name="Trazado 134220" d="M259.4,159.205l-33.174-.244v-.009l-.6,0-.6,0v.009l-33.174.244h0a2.95,2.95,0,0,0-2.864,3.029v7.573c0,9.062,6.945,16.408,15.513,16.408h42.244c8.568,0,15.513-7.346,15.513-16.408v-7.573a2.95,2.95,0,0,0-2.864-3.029Z" transform="translate(-146.707 -83.71)" fill="#5036ae" opacity="0.58" style="mix-blend-mode: multiply;isolation: isolate"/>
                  <path id="Trazado_134221" data-name="Trazado 134221" d="M203.4,190.249s11.334,16.578,28.658,21.122c0,0-11.36-3.976-17.324-24.139Z" transform="translate(-151.999 -94.098)" fill="#fff" opacity="0.32" style="mix-blend-mode: overlay;isolation: isolate"/>
                </g>
              </g>
              <path id="Trazado_134223" data-name="Trazado 134223" d="M263.367,290.139a52.553,52.553,0,0,1,1.706-20.57c.018-.078.035-.157.054-.235a44.222,44.222,0,0,1,1.687-8.21c-1.267-1.327-2.516-2.672-3.721-4.059a4.063,4.063,0,0,1-.529-.785L237.23,246.035s-7.384,10.224-23,9.372-23.2-7.407-24.359-9.136l-22.357,9.136.232-.961c-.17.129-.337.264-.509.39a46.117,46.117,0,0,1-8.676,6.807,3.287,3.287,0,0,1-.986.419v32.249a71.639,71.639,0,0,0,11.36-6.53s-3.124,16.755,11.359,25.843l11.075,26.695,46.007.284,11.075-26.411s15.9-10.223,11.928-26.695C260.375,287.5,261.5,288.619,263.367,290.139Z" transform="translate(-133.475 -114.012)" fill="url(#linear-gradient-3)"/>
              <g id="Grupo_79387" data-name="Grupo 79387" transform="translate(24.096 132.023)">
                <g id="Grupo_79386" data-name="Grupo 79386" clip-path="url(#clip-path-2)">
                  <path id="Trazado_134224" data-name="Trazado 134224" d="M171.579,290.178c-2.013,4.823.21,10.691,4.269,13.985s9.53,4.37,14.756,4.234,10.35-1.365,15.512-2.187a100.516,100.516,0,0,1,32.476.154l-23.709,5.807a92.189,92.189,0,0,0,30.906-.652c3.924-.754,8.754-3.046,8.263-7.012l-35.09-7.093a189.686,189.686,0,0,1,43.118,2.1c1.636.269,3.407.635,4.48,1.9a7.264,7.264,0,0,1,1.291,3.738q.769,5.18,1.539,10.36c.439,2.96.865,6.069-.175,8.874a17.958,17.958,0,0,1-3.94,5.607c-13.4,14.646-27.512,29.785-46.079,36.81a31.834,31.834,0,0,1-10.64,2.358,36.391,36.391,0,0,1-11.14-2c-11.546-3.527-23.19-9.2-29.7-19.366-7.753-12.11-6.555-27.828-3.351-41.846,1.2-5.237,2.634-10.418,3.792-15.664" transform="translate(-159.158 -262.25)" fill="#fff" opacity="0.32" style="mix-blend-mode: overlay;isolation: isolate"/>
                  <path id="Trazado_134225" data-name="Trazado 134225" d="M171.579,290.178c-2.013,4.823.21,10.691,4.269,13.985s9.53,4.37,14.756,4.234,10.35-1.365,15.512-2.187a100.516,100.516,0,0,1,32.476.154l-23.709,5.807a92.189,92.189,0,0,0,30.906-.652c3.924-.754,8.754-3.046,8.263-7.012l-35.09-7.093a189.686,189.686,0,0,1,43.118,2.1c1.636.269,3.407.635,4.48,1.9a7.264,7.264,0,0,1,1.291,3.738q.769,5.18,1.539,10.36c.439,2.96.865,6.069-.175,8.874a17.958,17.958,0,0,1-3.94,5.607c-13.4,14.646-27.512,29.785-46.079,36.81a31.834,31.834,0,0,1-10.64,2.358,36.391,36.391,0,0,1-11.14-2c-11.546-3.527-23.19-9.2-29.7-19.366-7.753-12.11-6.555-27.828-3.351-41.846,1.2-5.237,2.634-10.418,3.792-15.664" transform="translate(-159.158 -262.25)" fill="#fff" opacity="0.32" style="mix-blend-mode: overlay;isolation: isolate"/>
                </g>
              </g>
              <path id="Trazado_134227" data-name="Trazado 134227" d="M169.476,263.533a252.953,252.953,0,0,1-4.687,27.254,19.673,19.673,0,0,0-.752,5.737,11.009,11.009,0,0,0,.345,1.991,71.105,71.105,0,0,0,6.915-4.305s-2.083,11.2,5.072,20.253a77.4,77.4,0,0,1,1.238-13.125c.737-4.063,1.8-8.092,1.957-12.219.341-9.108-3.835-17.9-9.568-24.988Z" transform="translate(-135.841 -120.44)" opacity="0.32" fill="url(#linear-gradient-4)" style="mix-blend-mode: multiply;isolation: isolate"/>
              <path id="Trazado_134228" data-name="Trazado 134228" d="M317.537,263.533a252.959,252.959,0,0,0,4.688,27.254,19.651,19.651,0,0,1,.751,5.737,10.9,10.9,0,0,1-.345,1.991,71.042,71.042,0,0,1-6.914-4.305s2.083,11.2-5.073,20.253a77.4,77.4,0,0,0-1.238-13.125c-.737-4.063-1.8-8.092-1.957-12.219-.341-9.108,3.835-17.9,9.568-24.988Z" transform="translate(-188.523 -120.44)" opacity="0.32" fill="url(#linear-gradient-5)" style="mix-blend-mode: multiply;isolation: isolate"/>
              <path id="Trazado_134229" data-name="Trazado 134229" d="M236.3,64.724a20.375,20.375,0,0,1,7.04-23.107,24.872,24.872,0,0,1,13.369-4.232c7.3-.312,14.986,2.093,19.782,7.61,4.274,4.916,5.827,11.828,5.038,18.295a23.117,23.117,0,0,1-6.207,13.569,13.32,13.32,0,0,1-5.22,3.366c-4.287,1.386-8.935-.171-13.056-1.994a99.579,99.579,0,0,1-19.685-11.568" transform="translate(-161.958 -37.358)" fill="url(#linear-gradient-6)"/>
              <path id="Trazado_134230" data-name="Trazado 134230" d="M269.281,37.761a30.5,30.5,0,0,0-13.718,4.668,22.574,22.574,0,0,1,9.582-.27,10.893,10.893,0,0,1,7.506,5.554,15.085,15.085,0,0,0-12.326-2,14.49,14.49,0,0,1,13.7,9.717A17.535,17.535,0,0,0,260.9,52a11.557,11.557,0,0,1,10.71,10.071,11.3,11.3,0,0,0-8.365-2c2.937-.28,5.658,1.982,6.794,4.705s1.009,5.794.68,8.726a3.472,3.472,0,0,0,.258,2.3,3.261,3.261,0,0,0,1.456,1.046,24.94,24.94,0,0,0,7.75,2.293,15.406,15.406,0,0,0,2.652-2.141,23.117,23.117,0,0,0,6.207-13.569c.789-6.466-.764-13.379-5.038-18.295A23.34,23.34,0,0,0,269.281,37.761Z" transform="translate(-169.471 -37.506)" opacity="0.32" fill="url(#linear-gradient-7)" style="mix-blend-mode: multiply;isolation: isolate"/>
              <g id="Grupo_79388" data-name="Grupo 79388" transform="translate(75.121 19.886)">
                <ellipse id="Elipse_4877" data-name="Elipse 4877" cx="9.101" cy="7.122" rx="9.101" ry="7.122" fill="#ebe033"/>
              </g>
              <path id="Trazado_134231" data-name="Trazado 134231" d="M255.177,79.694a5.974,5.974,0,0,0,1.286-3.637c0-3.292-2.859-6.055-6.737-6.871a7.31,7.31,0,0,1,1.421.719c.054.389-.517.493-.907.451A11.033,11.033,0,0,0,243.8,71.65c2.3.134,4.918.431,6.274,2.3-4.041.041-8.277.268-11.741,2.348a29.149,29.149,0,0,1,14.63,2.437C253.7,79.061,254.423,79.423,255.177,79.694Z" transform="translate(-163.142 -49.05)" fill="#dc622b" opacity="0.58"/>
              <path id="Trazado_134232" data-name="Trazado 134232" d="M214.949,242.654s2.111,8.178,18.465,8.178,18.2-8.178,18.2-8.178l5.8,2.374S253.2,256.9,233.151,256.9s-24.532-11.87-24.532-11.87Z" transform="translate(-152.227 -112.77)" fill="#cf1472"/>
              <g id="Grupo_79389" data-name="Grupo 79389" transform="translate(27.004 132.023)">
                <path id="Trazado_134233" data-name="Trazado 134233" d="M200.986,252.479c-5.7-2.242-8.735-5.03-9.43-6.072L169.2,255.543l.232-.961c-.17.129-.337.264-.509.39a42.167,42.167,0,0,1-6.754,5.547q.563,4.665,1.124,9.33l.885,4.134A43.02,43.02,0,0,1,197.6,252.611C198.729,252.52,199.858,252.485,200.986,252.479Z" transform="translate(-162.168 -246.172)" opacity="0.32" fill="url(#linear-gradient-4)" style="mix-blend-mode: multiply;isolation: isolate"/>
                <path id="Trazado_134234" data-name="Trazado 134234" d="M273.482,246.035s-5.558,7.686-17.222,9.171c2.944.626,5.888,1.255,8.835,1.771,5.86,1.026,11.973,1.6,17.693-.042a20.1,20.1,0,0,0,7.577-4.074Z" transform="translate(-196.731 -246.035)" opacity="0.32" fill="url(#linear-gradient-4)" style="mix-blend-mode: multiply;isolation: isolate"/>
              </g>
              <path id="Trazado_134235" data-name="Trazado 134235" d="M259.4,151.125l-33.174-.244v-.009l-.6,0-.6,0v.009l-33.174.244h0a2.95,2.95,0,0,0-2.864,3.029v7.573c0,9.062,6.945,16.408,15.513,16.408h42.244c8.568,0,15.513-7.346,15.513-16.408v-7.573a2.95,2.95,0,0,0-2.864-3.029Z" transform="translate(-145.017 -79.056)" fill="#003"/>
              <path id="Trazado_134236" data-name="Trazado 134236" d="M262.262,157.533v-3.378a2.95,2.95,0,0,0-2.864-3.029l-33.174-.244v-.009l-.6,0-.6,0v.009l-33.174.244a2.95,2.95,0,0,0-2.864,3.029v3.378Z" transform="translate(-145.017 -79.056)" fill="url(#linear-gradient-10)"/>
              <path id="Trazado_134237" data-name="Trazado 134237" d="M260.91,177.734a16.852,16.852,0,0,0,1.144-3.2H189.771a16.856,16.856,0,0,0,1.145,3.2Z" transform="translate(-145.303 -87.748)" fill="url(#linear-gradient-11)"/>
              <path id="Trazado_134238" data-name="Trazado 134238" d="M259.676,184.539a16.4,16.4,0,0,0,1.454-1.918H193.254a16.4,16.4,0,0,0,1.454,1.918Z" transform="translate(-146.583 -90.718)" fill="url(#linear-gradient-12)"/>
              <path id="Trazado_134239" data-name="Trazado 134239" d="M196.488,186.663a15.011,15.011,0,0,0,10.771,4.62H249.5a15.01,15.01,0,0,0,10.77-4.62Z" transform="translate(-147.771 -92.203)" fill="url(#linear-gradient-13)"/>
              <path id="Trazado_134240" data-name="Trazado 134240" d="M257.847,155.561l-29.06-.192v-.007l-.523,0-.523,0v.007l-29.059.192h0a2.456,2.456,0,0,0-2.509,2.4v6c0,7.174,6.084,12.99,13.589,12.99h37c7.5,0,13.589-5.815,13.589-12.99v-6a2.456,2.456,0,0,0-2.509-2.4Z" transform="translate(-147.656 -80.705)" fill="#00004a"/>
              <path id="Trazado_134241" data-name="Trazado 134241" d="M193.966,124.388s-4.976-13.213-.791-18.729c5.8-7.65,18.993-2.111,29.28-2.374,6.465-.166,30.071-5.54,33.237,2.638s-.528,17.674-.528,17.674h7.65S273.893,77.962,224.3,77.962s-38.776,46.162-38.776,46.162Z" transform="translate(-143.377 -52.273)" fill="url(#linear-gradient-14)"/>
              <g id="Grupo_79390" data-name="Grupo 79390" transform="translate(0 93.482)">
                <path id="Trazado_134242" data-name="Trazado 134242" d="M136.309,194.085l3.43-8.969s16.354,8.178,17.937,9.232-1.055,6.067-1.055,6.067,3.429,1.319,3.957,2.638-8.441,30.6-8.441,30.6,5.54,9.76,8.177,17.41-4.748,13.453-4.748,13.453S143.7,278.5,129.715,274.539s-10.815-26.906-6.859-41.678,7.65-25.587,7.386-29.808,0-8.441,1.055-8.7A39.383,39.383,0,0,1,136.309,194.085Z" transform="translate(-119.485 -185.116)" fill="#cf1472"/>
              </g>
              <g id="Grupo_79391" data-name="Grupo 79391" transform="translate(121.241 93.482)">
                <path id="Trazado_134243" data-name="Trazado 134243" d="M335.694,194.085l-3.429-8.969s-16.354,8.178-17.937,9.232,1.055,6.067,1.055,6.067-3.43,1.319-3.957,2.638,8.441,30.6,8.441,30.6-5.54,9.76-8.177,17.41,4.747,13.453,4.747,13.453,11.871,13.981,25.851,10.024,10.815-26.906,6.858-41.678-7.65-25.587-7.386-29.808,0-8.441-1.055-8.7A39.384,39.384,0,0,0,335.694,194.085Z" transform="translate(-311.121 -185.116)" fill="#cf1472"/>
              </g>
              <g id="Grupo_79392" data-name="Grupo 79392" transform="translate(0.065 106.25)">
                <path id="Trazado_134244" data-name="Trazado 134244" d="M136.429,205.3q-.021.3-.035.612a117.558,117.558,0,0,0,29.133,10.521q.073-.276.143-.543A117.038,117.038,0,0,1,136.429,205.3Z" transform="translate(-125.761 -205.298)" fill="#fff"/>
                <path id="Trazado_134245" data-name="Trazado 134245" d="M135.421,221.436c-.04.183-.082.373-.125.563a163.091,163.091,0,0,0,27.038,10.287l.157-.54A162.5,162.5,0,0,1,135.421,221.436Z" transform="translate(-125.358 -211.226)" fill="#fff"/>
                <path id="Trazado_134246" data-name="Trazado 134246" d="M132.73,231.986c-.05.182-.1.366-.152.55,8.672,4.136,18.125,6.616,27.311,8.549l.16-.54C150.852,238.611,141.39,236.131,132.73,231.986Z" transform="translate(-124.36 -215.101)" fill="#fff"/>
                <path id="Trazado_134247" data-name="Trazado 134247" d="M128.914,245.472c-.052.182-.1.363-.155.546,8.761,3.84,18.273,5.922,27.5,7.459l.165-.543C147.186,251.4,137.664,249.318,128.914,245.472Z" transform="translate(-122.957 -220.055)" fill="#fff"/>
                <path id="Trazado_134248" data-name="Trazado 134248" d="M124.87,260.058a115.912,115.912,0,0,0,32.069,6.218l-.3-.578a115.365,115.365,0,0,1-31.626-6.182C124.967,259.7,124.919,259.876,124.87,260.058Z" transform="translate(-121.528 -225.214)" fill="#fff"/>
                <path id="Trazado_134249" data-name="Trazado 134249" d="M121.69,273.992c-.035.186-.071.371-.106.558a188.909,188.909,0,0,0,25.793,1.773c1.052,0,2.1-.015,3.157-.032-.166-.185-.342-.371-.513-.557A188.271,188.271,0,0,1,121.69,273.992Z" transform="translate(-120.321 -230.532)" fill="#fff"/>
                <path id="Trazado_134250" data-name="Trazado 134250" d="M148.064,285.733a140.155,140.155,0,0,1-28.448,3.183c-.01.189-.019.377-.028.566a140.675,140.675,0,0,0,28.25-3.113C147.914,286.157,147.987,285.944,148.064,285.733Z" transform="translate(-119.588 -234.845)" fill="#fff"/>
                <path id="Trazado_134251" data-name="Trazado 134251" d="M147.053,304.441a36.031,36.031,0,0,1-22.492,8.671c.12.188.245.369.373.55a36.583,36.583,0,0,0,22.491-8.8Z" transform="translate(-121.415 -241.717)" fill="#fff"/>
                <path id="Trazado_134252" data-name="Trazado 134252" d="M161.807,295.257c-.015.078-.03.156-.048.235-.022.094-.048.184-.072.275l-.013.077a14.514,14.514,0,0,1,6.522,11.975c.19-.169.371-.333.545-.492A15.091,15.091,0,0,0,161.807,295.257Z" transform="translate(-135.048 -238.343)" fill="#fff"/>
                <path id="Trazado_134253" data-name="Trazado 134253" d="M171.47,281.45c-.12-.161-.251-.325-.373-.487q-1.424-1.883-3.139-3.812c-.165-.185-.325-.369-.493-.555-.072-.08-.151-.16-.223-.24a3.545,3.545,0,0,1-.244.566c.074.079.149.159.22.238,1.207,1.337,2.3,2.655,3.29,3.956.124.163.254.326.375.488a33.94,33.94,0,0,1,5.974,11.759c.132-.242.259-.492.38-.75A34.965,34.965,0,0,0,171.47,281.45Z" transform="translate(-137.003 -231.4)" fill="#fff"/>
              </g>
              <g id="Grupo_79393" data-name="Grupo 79393" transform="translate(122.323 106.25)">
                <path id="Trazado_134254" data-name="Trazado 134254" d="M342.581,205.3q.021.3.036.612a117.566,117.566,0,0,1-29.133,10.521q-.073-.276-.144-.543A117.02,117.02,0,0,0,342.581,205.3Z" transform="translate(-313.017 -205.298)" fill="#fff"/>
                <path id="Trazado_134255" data-name="Trazado 134255" d="M344.8,221.436c.039.183.082.373.125.563a163.087,163.087,0,0,1-27.038,10.287c-.053-.18-.105-.36-.157-.54A162.5,162.5,0,0,0,344.8,221.436Z" transform="translate(-314.629 -211.226)" fill="#fff"/>
                <path id="Trazado_134256" data-name="Trazado 134256" d="M347.328,231.986c.05.182.1.366.152.55-8.672,4.136-18.125,6.616-27.311,8.549l-.161-.54C329.206,238.611,338.669,236.131,347.328,231.986Z" transform="translate(-315.467 -215.101)" fill="#fff"/>
                <path id="Trazado_134257" data-name="Trazado 134257" d="M351.034,245.472c.051.182.1.363.155.546-8.761,3.84-18.273,5.922-27.5,7.459l-.164-.543C332.762,251.4,342.284,249.318,351.034,245.472Z" transform="translate(-316.759 -220.055)" fill="#fff"/>
                <path id="Trazado_134258" data-name="Trazado 134258" d="M352.52,260.058a115.916,115.916,0,0,1-32.069,6.218c.1-.2.2-.388.3-.578a115.369,115.369,0,0,0,31.626-6.182C352.422,259.7,352.471,259.876,352.52,260.058Z" transform="translate(-315.629 -225.214)" fill="#fff"/>
                <path id="Trazado_134259" data-name="Trazado 134259" d="M357.51,273.992c.035.186.071.371.106.558a188.915,188.915,0,0,1-25.793,1.773c-1.052,0-2.1-.015-3.158-.032.167-.185.343-.371.514-.557A188.271,188.271,0,0,0,357.51,273.992Z" transform="translate(-318.647 -230.532)" fill="#fff"/>
                <path id="Trazado_134260" data-name="Trazado 134260" d="M331.41,285.733a140.16,140.16,0,0,0,28.448,3.183c.011.189.02.377.028.566a140.664,140.664,0,0,1-28.25-3.113C331.561,286.157,331.487,285.944,331.41,285.733Z" transform="translate(-319.655 -234.845)" fill="#fff"/>
                <path id="Trazado_134261" data-name="Trazado 134261" d="M335.681,304.441a36.032,36.032,0,0,0,22.492,8.671c-.119.188-.245.369-.373.55a36.581,36.581,0,0,1-22.49-8.8Z" transform="translate(-321.088 -241.717)" fill="#fff"/>
                <path id="Trazado_134262" data-name="Trazado 134262" d="M330.1,295.257c.015.078.03.156.048.235.022.094.048.184.072.275l.013.077a14.515,14.515,0,0,0-6.521,11.975q-.286-.253-.545-.492A15.091,15.091,0,0,1,330.1,295.257Z" transform="translate(-316.627 -238.343)" fill="#fff"/>
                <path id="Trazado_134263" data-name="Trazado 134263" d="M318.595,281.45c.12-.161.251-.325.373-.487q1.424-1.883,3.139-3.812c.165-.185.325-.369.493-.555.072-.08.15-.16.223-.24a3.54,3.54,0,0,0,.243.566c-.073.079-.148.159-.219.238-1.207,1.337-2.3,2.655-3.29,3.956-.124.163-.254.326-.375.488a33.939,33.939,0,0,0-5.974,11.759q-.2-.363-.38-.75A34.967,34.967,0,0,1,318.595,281.45Z" transform="translate(-312.83 -231.4)" fill="#fff"/>
              </g>
            </g>
            <path id="Trazado_134264" data-name="Trazado 134264" d="M255.938,164.894h-54.1a3.2,3.2,0,0,1-3.195-3.195h0a3.2,3.2,0,0,1,3.195-3.195h54.1a3.2,3.2,0,0,1,3.195,3.195h0A3.2,3.2,0,0,1,255.938,164.894Z" transform="translate(-129.702 -81.859)" fill="#00c1e2"/>
            <g id="Grupo_79395" data-name="Grupo 79395" transform="translate(42.279 69.975)">
              <path id="Trazado_134265" data-name="Trazado 134265" d="M156.5,173.314s7.386-17.673,8.7-18.465,12.134-6.331,14.244-6.859-2.374,6.067-7.913,9.232l-2.111,2.9a81.646,81.646,0,0,0,1.847,10.815c1.055,3.429,2.638,8.441,0,9.759Z" transform="translate(-156.501 -147.961)" fill="url(#linear-gradient-15)"/>
            </g>
            <path id="Trazado_134266" data-name="Trazado 134266" d="M325.905,173.314s-7.386-17.673-8.7-18.465-12.135-6.331-14.244-6.859,2.374,6.067,7.913,9.232l2.111,2.9a81.643,81.643,0,0,1-1.847,10.815c-1.055,3.429-2.638,8.441,0,9.759Z" transform="translate(-167.825 -77.986)" fill="url(#linear-gradient-16)"/>
            <g id="Grupo_79396" data-name="Grupo 79396" transform="translate(61.413 25.689)" style="mix-blend-mode: multiply;isolation: isolate">
              <path id="Trazado_134267" data-name="Trazado 134267" d="M263.866,104.435c-2.439-12.487-11.295-26.473-38.75-26.473-25.784,0-35.235,12.478-38.371,24.459a33.629,33.629,0,0,1,6.99-8.7,47.813,47.813,0,0,0-4.935,8.754,21.116,21.116,0,0,1,8.113-9.24,30.641,30.641,0,0,0-8.082,19.909,35.465,35.465,0,0,1,25.3-26.523,9.822,9.822,0,0,0-5.675,9.972l9.27-11.243a43.06,43.06,0,0,0-.294,8,64.782,64.782,0,0,0,2.82-8.385,70.472,70.472,0,0,1,.347,15.793,62.7,62.7,0,0,0,5.965-16.919,72.936,72.936,0,0,1,.479,13.236,43.982,43.982,0,0,0,3.522-10.051l1.5,7.2a12.559,12.559,0,0,0,1.978-7.95,28.385,28.385,0,0,1,6.932,11.316A19.17,19.17,0,0,0,239.8,85.019,64.627,64.627,0,0,1,251.9,96.8a32.26,32.26,0,0,0-3.9-9.351,96.3,96.3,0,0,1,13.333,19.473A30.121,30.121,0,0,0,253.27,88.1C259.253,91.13,262.233,97.849,263.866,104.435Z" transform="translate(-186.745 -77.962)" opacity="0.32" fill="url(#linear-gradient-17)" style="mix-blend-mode: overlay;isolation: isolate"/>
              <path id="Trazado_134268" data-name="Trazado 134268" d="M189.764,116.7c-.139.307-.271.616-.395.929C189.5,117.318,189.63,117.009,189.764,116.7Z" transform="translate(-187.709 -92.192)" opacity="0.32" fill="url(#linear-gradient-18)" style="mix-blend-mode: overlay;isolation: isolate"/>
            </g>
            <g id="Grupo_79397" data-name="Grupo 79397" transform="translate(54.9 153.179)">
              <path id="Trazado_134269" data-name="Trazado 134269" d="M176.45,279.476l2,.841A2.748,2.748,0,0,0,176.45,279.476Z" transform="translate(-176.45 -279.475)" fill="#fff" opacity="0.32" style="mix-blend-mode: overlay;isolation: isolate"/>
              <path id="Trazado_134270" data-name="Trazado 134270" d="M179.61,280.807c.067.065.132.133.2.2.011-.035.023-.071.034-.106Z" transform="translate(-177.611 -279.964)" fill="#fff" opacity="0.32" style="mix-blend-mode: overlay;isolation: isolate"/>
            </g>
            <path id="Trazado_134271" data-name="Trazado 134271" d="M168.3,253.118c-2.638-7.65-8.177-17.41-8.177-17.41s8.969-29.28,8.441-30.6-3.957-2.638-3.957-2.638,2.638-5.012,1.055-6.067c-.875-.583-6.261-3.341-10.9-5.692a22.723,22.723,0,0,0-.268,5.631l-6.673-.638,9.212,3.842a124.842,124.842,0,0,1-9.4,34.144c-2.242,5.14-4.854,10.2-5.9,15.712a29.279,29.279,0,0,0,4.8,22.1,17.4,17.4,0,0,0,4.128,4.233,36.352,36.352,0,0,0,12.894-9.162S170.942,260.768,168.3,253.118Z" transform="translate(-108.616 -93.69)" fill="#6a212a" opacity="0.58" style="mix-blend-mode: multiply;isolation: isolate"/>
            <path id="Trazado_134272" data-name="Trazado 134272" d="M311.486,253.118c2.638-7.65,8.178-17.41,8.178-17.41s-8.969-29.28-8.442-30.6,3.957-2.638,3.957-2.638-2.638-5.012-1.055-6.067c.874-.583,6.26-3.341,10.9-5.692a22.781,22.781,0,0,1,.268,5.631l6.673-.638-9.212,3.842a124.841,124.841,0,0,0,9.4,34.144c2.242,5.14,4.854,10.2,5.9,15.712a29.276,29.276,0,0,1-4.8,22.1,17.406,17.406,0,0,1-4.127,4.233,36.35,36.35,0,0,1-12.894-9.162S308.848,260.768,311.486,253.118Z" transform="translate(-170.944 -93.69)" fill="#6a212a" opacity="0.58" style="mix-blend-mode: multiply;isolation: isolate"/>
            <ellipse id="Elipse_4878" data-name="Elipse 4878" cx="98.581" cy="26.667" rx="98.581" ry="26.667" transform="translate(0 53.345)" fill="url(#radial-gradient)"/>
            <path id="Trazado_134273" data-name="Trazado 134273" d="M276.817,177.219H258.5a1.282,1.282,0,0,1-1.278-1.278h0a1.282,1.282,0,0,1,1.278-1.278h18.317a1.282,1.282,0,0,1,1.278,1.278h0A1.282,1.282,0,0,1,276.817,177.219Z" transform="translate(-151.22 -87.795)" fill="#f7e81a"/>
            <path id="Trazado_134274" data-name="Trazado 134274" d="M215.48,175.041H203.517a.837.837,0,0,1-.834-.834h0a.837.837,0,0,1,.834-.834H215.48a.836.836,0,0,1,.834.834h0A.836.836,0,0,1,215.48,175.041Z" transform="translate(-131.186 -87.32)" fill="#cf1472"/>
            <path id="Trazado_134275" data-name="Trazado 134275" d="M255.938,164.894h-54.1a3.2,3.2,0,0,1-3.195-3.195h0a3.2,3.2,0,0,1,3.195-3.195h54.1a3.2,3.2,0,0,1,3.195,3.195h0A3.2,3.2,0,0,1,255.938,164.894Z" transform="translate(-129.702 -81.859)" fill="#fff"/>
          </g>
          <path id="Trazado_134276" data-name="Trazado 134276" d="M47.82,90.5,116.829,281.34c0,4.47,26.987,8.094,60.277,8.094s60.277-3.624,60.277-8.094L306.393,90.5Z" transform="translate(-47.82 -56.878)" fill="url(#radial-gradient-2)"/>
        </g>
        <ellipse id="Elipse_4880" data-name="Elipse 4880" cx="124.158" cy="30.811" rx="124.158" ry="30.811" transform="translate(47.949 193.05)" fill="url(#radial-gradient-3)"/>
        <ellipse id="Elipse_4890" data-name="Elipse 4890" cx="124.158" cy="30.811" rx="124.158" ry="30.811" transform="translate(-12.051 193.05)" opacity="0.434" fill="url(#radial-gradient-3)"/>
        <path id="Trazado_134277" data-name="Trazado 134277" d="M137.834,216.517c1.069-1.547,2.127-3.3,1.913-5.172a8.3,8.3,0,0,0-1.389-3.257l-3.64-5.976a30.115,30.115,0,0,0-.239,7.185c.171,2.733-1.318,8.232-3.462,15.777A80.96,80.96,0,0,0,137.834,216.517Z" transform="translate(-54.531 -97.878)" fill="#6a212a" opacity="0.58" style="mix-blend-mode: multiply;isolation: isolate"/>
        <path id="Trazado_134278" data-name="Trazado 134278" d="M360.814,232.306c-3.053-10.814-5.48-18.667-5.264-22.115a38.508,38.508,0,0,0-.016-5.645q-2.955,5.093-5.861,10.214a5.785,5.785,0,0,0-1.013,2.949,5.653,5.653,0,0,0,1.14,2.758A111.517,111.517,0,0,0,359.961,233.8C360.261,233.313,360.542,232.812,360.814,232.306Z" transform="translate(-134.478 -98.772)" fill="#6a212a" opacity="0.58" style="mix-blend-mode: multiply;isolation: isolate"/>
        <path id="Trazado_134279" data-name="Trazado 134279" d="M140.536,291.733a4.576,4.576,0,0,0-.97-1.382c-2.445-2.6-5.461-4.654-7.64-7.479a28.671,28.671,0,0,1-4.4-9.746c-3.826-13.287-4.647-28.059,1.279-40.551l-.936-.276c-1.359,4.914-3.156,10.969-5.011,17.894-3.957,14.772-7.122,37.721,6.859,41.678A19.441,19.441,0,0,0,140.536,291.733Z" transform="translate(-50.295 -108.967)" fill="url(#linear-gradient-19)"/>
        <path id="Trazado_134280" data-name="Trazado 134280" d="M343.316,291.733a4.589,4.589,0,0,1,.971-1.382c2.444-2.6,5.461-4.654,7.639-7.479a28.659,28.659,0,0,0,4.4-9.746c3.826-13.287,4.647-28.059-1.278-40.551l.936-.276c1.358,4.914,3.155,10.969,5.01,17.894,3.957,14.772,7.123,37.721-6.858,41.678A19.443,19.443,0,0,1,343.316,291.733Z" transform="translate(-132.516 -108.967)" fill="url(#linear-gradient-20)"/>
        <g id="Grupo_79400" data-name="Grupo 79400" transform="translate(41.685 167.774)">
          <path id="Trazado_134281" data-name="Trazado 134281" d="M271.628,303.62c12.066,2.911,19.139,6.447,19.139,10.26,0,9.941-48.074,18-107.378,18s-107.378-8.058-107.378-18c0-4.3,8.98-8.241,23.965-11.335" transform="translate(-76.01 -302.544)" fill="none" stroke="#fff" stroke-miterlimit="10" stroke-width="3"/>
          <ellipse id="Elipse_4881" data-name="Elipse 4881" cx="38.359" cy="9.519" rx="38.359" ry="9.519" transform="translate(77.199 19.715)" fill="url(#radial-gradient-5)" style="mix-blend-mode: screen;isolation: isolate"/>
          <ellipse id="Elipse_4882" data-name="Elipse 4882" cx="35.003" cy="8.686" rx="35.003" ry="8.686" transform="translate(161.542 19.084) rotate(-10.758)" fill="url(#radial-gradient-6)" style="mix-blend-mode: screen;isolation: isolate"/>
          <ellipse id="Elipse_4883" data-name="Elipse 4883" cx="8.686" cy="35.003" rx="8.686" ry="35.003" transform="translate(1.752 29.901) rotate(-84.773)" fill="url(#radial-gradient-7)" style="mix-blend-mode: screen;isolation: isolate"/>
        </g>
        <g id="Grupo_79403" data-name="Grupo 79403" transform="translate(41.685 16.319)">
          <path id="Trazado_134282" data-name="Trazado 134282" d="M102.378,364.185H85.616V235.871A8.381,8.381,0,0,1,94,227.489h0a8.381,8.381,0,0,1,8.382,8.382Z" transform="translate(-79.539 -123.519)" fill="url(#linear-gradient-21)"/>
          <path id="Rectángulo_34259" data-name="Rectángulo 34259" d="M8.381,0h0a8.381,8.381,0,0,1,8.381,8.381V136.7a0,0,0,0,1,0,0H0a0,0,0,0,1,0,0V8.381A8.381,8.381,0,0,1,8.381,0Z" transform="translate(216.815 37.8)" fill="url(#linear-gradient-22)"/>
          <path id="Rectángulo_34260" data-name="Rectángulo 34260" d="M8.381,0h0a8.381,8.381,0,0,1,8.381,8.381V136.7a0,0,0,0,1,0,0H0a0,0,0,0,1,0,0V8.381A8.381,8.381,0,0,1,8.381,0Z" transform="translate(169.116 37.8)" fill="url(#linear-gradient-22)"/>
          <g id="Grupo_79401" data-name="Grupo 79401" transform="translate(0 151.455)">
            <path id="Trazado_134283" data-name="Trazado 134283" d="M271.628,303.62c12.066,2.911,19.139,6.447,19.139,10.26,0,9.941-48.074,18-107.378,18s-107.378-8.058-107.378-18c0-4.3,8.98-8.241,23.965-11.335" transform="translate(-76.01 -302.544)" fill="none" stroke="#fff" stroke-miterlimit="10" stroke-width="3"/>
            <ellipse id="Elipse_4884" data-name="Elipse 4884" cx="38.359" cy="9.519" rx="38.359" ry="9.519" transform="translate(77.199 19.715)" fill="url(#radial-gradient-5)" style="mix-blend-mode: screen;isolation: isolate"/>
            <ellipse id="Elipse_4885" data-name="Elipse 4885" cx="35.003" cy="8.686" rx="35.003" ry="8.686" transform="translate(161.542 19.084) rotate(-10.758)" fill="url(#radial-gradient-6)" style="mix-blend-mode: screen;isolation: isolate"/>
            <ellipse id="Elipse_4886" data-name="Elipse 4886" cx="8.686" cy="35.003" rx="8.686" ry="35.003" transform="translate(1.752 29.901) rotate(-84.773)" fill="url(#radial-gradient-7)" style="mix-blend-mode: screen;isolation: isolate"/>
          </g>
          <g id="Grupo_79402" data-name="Grupo 79402" transform="translate(11.411 125.55)">
            <path id="Trazado_134284" data-name="Trazado 134284" d="M270.419,262.569c10.879,2.624,17.257,5.812,17.257,9.25,0,8.963-43.345,16.229-96.814,16.229s-96.814-7.266-96.814-16.229c0-3.873,8.1-7.43,21.607-10.22" transform="translate(-94.047 -261.599)" fill="none" stroke="#fff" stroke-miterlimit="10" stroke-width="2.705"/>
            <ellipse id="Elipse_4887" data-name="Elipse 4887" cx="34.586" cy="8.583" rx="34.586" ry="8.583" transform="translate(69.604 17.776)" fill="url(#radial-gradient-11)" style="mix-blend-mode: screen;isolation: isolate"/>
            <ellipse id="Elipse_4888" data-name="Elipse 4888" cx="31.559" cy="7.832" rx="31.559" ry="7.832" transform="translate(145.65 17.206) rotate(-10.758)" fill="url(#radial-gradient-12)" style="mix-blend-mode: screen;isolation: isolate"/>
            <ellipse id="Elipse_4889" data-name="Elipse 4889" cx="7.832" cy="31.559" rx="7.832" ry="31.559" transform="translate(1.579 26.959) rotate(-84.773)" fill="url(#radial-gradient-13)" style="mix-blend-mode: screen;isolation: isolate"/>
          </g>
        </g>
      </g>
    </g>
  </g>
</svg>
