<svg xmlns="http://www.w3.org/2000/svg" xmlns:xlink="http://www.w3.org/1999/xlink" width="74" height="74" viewBox="0 0 74 74">
  <defs>
    <clipPath id="clip-path">
      <rect id="Rectángulo_38017" data-name="Rectángulo 38017" width="61.78" height="55.142" fill="none"/>
    </clipPath>
  </defs>
  <g id="Grupo_158746" data-name="Grupo 158746" transform="translate(-343.5 -1229)">
    <g id="Grupo_158738" data-name="Grupo 158738" transform="translate(350.075 1238.836)">
      <g id="Grupo_158738-2" data-name="Grupo 158738" transform="translate(0 0)" clip-path="url(#clip-path)">
        <path id="Trazado_134285" data-name="Trazado 134285" d="M60.163,39.047l1.345,1.173c-.173.836.3,1.351.83,1.92a48.51,48.51,0,0,1,5.843,7.794.852.852,0,0,1,.154.483,18.935,18.935,0,0,1-2.6,4.418A26.621,26.621,0,0,1,47.872,65.68a23.856,23.856,0,0,1-10.718-.942A25.659,25.659,0,0,1,27.3,59.228a27.758,27.758,0,0,1-5.761-7.2,4.378,4.378,0,0,1-.785-1.673,1.9,1.9,0,0,1,.4-.867,59.347,59.347,0,0,1,3.486-4.939,1.511,1.511,0,0,1,1.377-.661,10.873,10.873,0,0,0,2.112-.173,1.774,1.774,0,0,1,1.217.268,19.912,19.912,0,0,0,7.067,2.643A1.789,1.789,0,0,0,38.305,46a1.811,1.811,0,0,0,.214-1.939q-.671-1.6-1.367-3.193a.881.881,0,0,1,.264-1.181,11.773,11.773,0,0,0,1.492-1.508.794.794,0,0,1,1.012-.283,12.238,12.238,0,0,1,3.587,1.978c.132.109.258.226.4.324.565.395.778.409,1.309-.046a11.646,11.646,0,0,1,4.435-2.4,12.419,12.419,0,0,1,5.661-.369,8.242,8.242,0,0,1,3.005,1.268,1.93,1.93,0,0,0,1.847.4" transform="translate(-8.859 -15.883)" fill="#fe3d43"/>
        <path id="Trazado_134286" data-name="Trazado 134286" d="M3.826,9.49A6.253,6.253,0,0,1,4.758,8,2.67,2.67,0,0,0,6.819,6.953a15.231,15.231,0,0,1,7.917-3.817,17.379,17.379,0,0,1,6.245-.025,3.147,3.147,0,0,1,.926.244,19.486,19.486,0,0,1,4.274,2.711,12.263,12.263,0,0,1,4.353,8.121c.408,4.232-1.307,7.573-4.361,10.349-.41.373-1,.621-.787,1.381.063.224-.264.294-.445.4a16.812,16.812,0,0,1-7.583,1.436c-4.912-.244-9.192-1.934-12.239-5.967A10.19,10.19,0,0,1,3.758,11.156,2.207,2.207,0,0,0,3.826,9.49" transform="translate(-1.217 -1.212)" fill="#fef4ce"/>
        <path id="Trazado_134287" data-name="Trazado 134287" d="M20.65,2.3a16.4,16.4,0,0,0-7.816-.058A14.885,14.885,0,0,0,4.977,6.567a1.058,1.058,0,0,1-1.436.226c-.414-.7-.392-.948.162-1.522A16.986,16.986,0,0,1,14.1.184,18.16,18.16,0,0,1,27.818,3.608,12.793,12.793,0,0,1,33.38,14.671a11.178,11.178,0,0,1-1.468,5.2c-.3.535-.187.668.332.853a10.2,10.2,0,0,1,3.015,1.672c.342.277.547.205.869-.022a13.624,13.624,0,0,1,11.764-2.181A9.369,9.369,0,0,1,50.847,21.7c.658.459.729.691.457,1.461a.959.959,0,0,1-1.386.093c-3.826-3.075-10.329-1.723-13.39,1.093-.708.651-.979.64-1.7.009a11.859,11.859,0,0,0-3.822-2.187.61.61,0,0,0-.817.209,9.532,9.532,0,0,1-1.637,1.629.525.525,0,0,0-.181.751c.493,1.091.945,2.2,1.428,3.3a2.008,2.008,0,0,1-.218,2.179,1.945,1.945,0,0,1-2.067.672,19.9,19.9,0,0,1-7.273-2.753.939.939,0,0,0-.711-.193,14.953,14.953,0,0,1-2.686.214.671.671,0,0,0-.625.223A50.007,50.007,0,0,0,12,34.451a2.186,2.186,0,0,0,.042,1.951,28.978,28.978,0,0,0,6.662,9.876c.457.449.98.828,1.448,1.267a.915.915,0,0,1,.058,1.437.976.976,0,0,1-1.432-.025A29.7,29.7,0,0,1,9.7,35.745a1.453,1.453,0,0,1,.163-1.332,64.849,64.849,0,0,1,3.9-5.8c.127-.167.246-.338.418-.574a23.7,23.7,0,0,1-3.306-.75A15.616,15.616,0,0,1,1.536,19.92,11.821,11.821,0,0,1,1.155,8.991c.351-.793.611-.908,1.454-.713A1.029,1.029,0,0,1,2.873,9.6C.618,14.321,2.09,19.579,6.324,22.839c5.1,3.93,10.778,4.438,16.769,2.343.222-.077.437-.173.655-.261a.906.906,0,0,1,1.089.381.931.931,0,0,1-.056,1.112,4.24,4.24,0,0,1-2.023.939,21.92,21.92,0,0,0,2.924,1.1c.6.169,1.2.322,1.81.448.414.087.5-.046.331-.435-.493-1.141-.975-2.288-1.467-3.43-.509-1.181-.456-1.42.557-2.239a11.444,11.444,0,0,0,4.2-6.3,10.271,10.271,0,0,0-2.67-9.681A16.868,16.868,0,0,0,20.65,2.3" transform="translate(0 0)"/>
        <path id="Trazado_134288" data-name="Trazado 134288" d="M28.84,74.643a1.013,1.013,0,0,0-.3-1.451,28.473,28.473,0,0,1-8.162-11.409,1.381,1.381,0,0,1,.253-1.671A22.894,22.894,0,0,0,23.36,64.66a26.032,26.032,0,0,0,9.651,8.15,27.994,27.994,0,0,0,8.618,2.545,24.04,24.04,0,0,0,12.317-1.821,24.852,24.852,0,0,0,7.614-4.779,29.08,29.08,0,0,0,6.457-8.61.961.961,0,0,1,.506,1.363A29.351,29.351,0,0,1,66.772,65.3,27.76,27.76,0,0,1,62.2,71.488a25.369,25.369,0,0,1-13.018,7.1,22.1,22.1,0,0,1-4.967.607,24.305,24.305,0,0,1-5.151-.7,25.281,25.281,0,0,1-6.828-2.594,1.9,1.9,0,0,0-1.919-.289l-1.477-.979" transform="translate(-8.627 -25.661)" fill="#d62e2e"/>
        <path id="Trazado_134289" data-name="Trazado 134289" d="M37.77,67.9a1.077,1.077,0,0,1,1.5-.139,25.451,25.451,0,0,0,12.218,3.522,22.74,22.74,0,0,0,8.489-1.532A26.031,26.031,0,0,0,74.687,56.319c.375-.744.652-1.538,1.023-2.284a1.244,1.244,0,0,0-.242-1.61,47.2,47.2,0,0,0-6.5-8.62,1.078,1.078,0,0,1-.241-1.527.993.993,0,0,1,1.472.172,54.4,54.4,0,0,1,7.489,10.086,1.279,1.279,0,0,1,.058,1.165,29.392,29.392,0,0,1-10.018,13.92,26.3,26.3,0,0,1-15.75,5.458,26.019,26.019,0,0,1-13.8-3.848A.974.974,0,0,1,37.77,67.9" transform="translate(-16.079 -17.94)"/>
        <path id="Trazado_134290" data-name="Trazado 134290" d="M31.162,59.391a8.955,8.955,0,0,0,4.924-1.642A22.278,22.278,0,0,1,49.57,54.13a22.642,22.642,0,0,1,10.808,3.553,8.316,8.316,0,0,0,5.673,1.661.824.824,0,0,1,.995.777.834.834,0,0,1-.728.978,6.887,6.887,0,0,1-3.365-.224,5.865,5.865,0,0,1-1.437-.543,1.93,1.93,0,0,0-1.91-.028,31.074,31.074,0,0,1-11.4,1.912,30.755,30.755,0,0,1-11.928-2.178.862.862,0,0,0-.779.1,9.056,9.056,0,0,1-4.709,1.042,2.6,2.6,0,0,1-.751-.151.822.822,0,0,1-.516-.994.8.8,0,0,1,.806-.695c.277-.008.555.03.833.048" transform="translate(-12.593 -23.086)"/>
        <path id="Trazado_134291" data-name="Trazado 134291" d="M40.053,28.086c.351-.913.054-1.381-.923-1.452.175-.115.48-.151.244-.487-.2-.287-.084-.463.19-.678a12.648,12.648,0,0,0,4.889-7.783,10.633,10.633,0,0,0-.763-6.308,13.958,13.958,0,0,0-7.518-7.242.616.616,0,0,1-.14-.124c5.16.964,11.165,5.458,10.922,12.167a11.163,11.163,0,0,1-4.418,8.362,5.437,5.437,0,0,1-.456.356,1,1,0,0,0-.374,1.389c.576,1.31,1.134,2.628,1.7,3.944.073.171.248.358.137.53-.15.232-.4.053-.59.018a8.439,8.439,0,0,1-1.914-.485,23.449,23.449,0,0,1-.981-2.205" transform="translate(-15.381 -1.712)" fill="#feeba0"/>
        <path id="Trazado_134292" data-name="Trazado 134292" d="M23.42,19.918H15.965a1.817,1.817,0,0,1-.76-.091.841.841,0,0,1-.545-.92.8.8,0,0,1,.723-.777,3.579,3.579,0,0,1,.577-.024q7.456,0,14.912,0a3.871,3.871,0,0,1,.577.023.809.809,0,0,1,.731.773.842.842,0,0,1-.543.923,1.8,1.8,0,0,1-.759.094H23.42" transform="translate(-6.255 -7.728)" fill="#010100"/>
        <path id="Trazado_134293" data-name="Trazado 134293" d="M20.082,29.866c-1.436,0-2.872,0-4.309,0-.753,0-1.134-.326-1.118-.93.015-.57.388-.873,1.108-.874q4.309-.005,8.617,0c.747,0,1.136.331,1.12.929-.015.569-.391.872-1.11.874-1.436.005-2.872,0-4.309,0" transform="translate(-6.256 -11.978)"/>
        <path id="Trazado_134294" data-name="Trazado 134294" d="M41.423,46.018c.421.146.373.585.518.888a2.675,2.675,0,0,1,.463,1.317A13.12,13.12,0,0,1,39.239,47a9.568,9.568,0,0,0,2.184-.977" transform="translate(-16.751 -19.644)" fill="#fcf2cd"/>
        <path id="Trazado_134295" data-name="Trazado 134295" d="M61.494,59.526a13.693,13.693,0,0,1,3.27,1.533,32.968,32.968,0,0,1-20.624.048A14.832,14.832,0,0,1,47.6,59.517a36.792,36.792,0,0,0,7.4.689,35.487,35.487,0,0,0,5.047-.442c.483-.077.969-.13,1.446-.238" transform="translate(-18.843 -25.407)" fill="#545456"/>
        <path id="Trazado_134296" data-name="Trazado 134296" d="M64.072,58.55c-.166.428-.595.295-.88.341a34.506,34.506,0,0,1-6.937.527,36.347,36.347,0,0,1-5.768-.626c-.163-.033-.293-.06-.308-.252a19.022,19.022,0,0,1,13.892.009" transform="translate(-21.421 -24.431)" fill="#67676b"/>
      </g>
    </g>
    <path id="Trazado_134317" data-name="Trazado 134317" d="M0,0H74V74H0Z" transform="translate(343.5 1229)" fill="none"/>
  </g>
</svg>
