<svg xmlns="http://www.w3.org/2000/svg" xmlns:xlink="http://www.w3.org/1999/xlink" width="74" height="74" viewBox="0 0 74 74">
  <defs>
    <clipPath id="clip-path">
      <rect id="Rect치ngulo_38018" data-name="Rect치ngulo 38018" width="65.73" height="65.732" fill="none"/>
    </clipPath>
  </defs>
  <g id="Grupo_158747" data-name="Grupo 158747" transform="translate(-763.5 -1229)">
    <g id="Grupo_158739" data-name="Grupo 158739" transform="translate(767.5 1233)">
      <g id="Grupo_158740" data-name="Grupo 158740" clip-path="url(#clip-path)">
        <path id="Trazado_134297" data-name="Trazado 134297" d="M0,30.683a.941.941,0,0,0,.126-.2,4.133,4.133,0,0,1,4.259-3.1q9.755-.007,19.51.012c.592,0,.774-.1.772-.741-.027-7.4-.018-14.8-.017-22.206A4.121,4.121,0,0,1,29.083,0H61.3A4.122,4.122,0,0,1,65.73,4.448q0,12,0,24a4.123,4.123,0,0,1-4.4,4.413c-.663,0-1.327.023-1.989-.008-.379-.018-.46.116-.448.47.03.9.029,1.8.021,2.7a7.389,7.389,0,0,1-.093,1.147,1.227,1.227,0,0,1-1.935.959C56.1,37.7,55.351,37.2,54.6,36.7q-2.668-1.773-5.316-3.577a1.476,1.476,0,0,0-.89-.266c-2.246.012-4.493.022-6.739-.007-.479-.006-.592.111-.591.591.017,7.445-.029,14.89.035,22.334a4.329,4.329,0,0,1-4.494,4.488c-6.4-.072-12.793-.02-19.189-.03a1.7,1.7,0,0,0-1.009.3q-3.319,2.24-6.655,4.453c-.38.253-.77.493-1.155.74h-.77c-.876-.3-1.148-.66-1.2-1.718-.043-.939-.007-1.88-.015-2.819-.006-.758-.04-.793-.8-.8-.6-.005-1.2,0-1.794,0A4.184,4.184,0,0,1,.413,58.328,4.715,4.715,0,0,1,0,56.873V30.683" transform="translate(0 0)"/>
        <path id="Trazado_134298" data-name="Trazado 134298" d="M85.256,4.958a1.246,1.246,0,0,1,1.077,1.177,3.676,3.676,0,0,1,.021.64q0,11.811,0,23.621c0,1.429-.455,1.885-1.876,1.887-1.113,0-2.225.013-3.338-.005a1.815,1.815,0,0,0-1.3.422A.705.705,0,0,1,79,32.592a10.265,10.265,0,0,0-6.06-1.5c-5.454.049-10.91.012-16.365.021a3.164,3.164,0,0,1-2.3-.782,3.044,3.044,0,0,1-.962-2.359c.009-3.338,0-6.675,0-10.012q0-5.84,0-11.68c0-.235,0-.471.006-.706,0-.461.166-.678.689-.677q15.435.02,30.869.011a.72.72,0,0,1,.377.05" transform="translate(-23.352 -2.145)" fill="#81bbf3"/>
        <path id="Trazado_134299" data-name="Trazado 134299" d="M42.413,79.893A1.269,1.269,0,0,1,41.077,81c-2.085.008-4.172-.008-6.257-.015a6.78,6.78,0,0,1-1.076-.41,8.71,8.71,0,0,0-3.928-.775q-8.591-.016-17.183,0a3.062,3.062,0,0,1-1.946-.5,2.951,2.951,0,0,1-1.239-2.536c.016-5.642.008-11.285.007-16.927,0-1.753,0-3.506,0-5.258a1.279,1.279,0,0,1,.2-.917c.489-.01.979-.03,1.468-.03q7.774,0,15.548,0c.234,0,.467.02.7.03a1.237,1.237,0,0,1,.2.852c.077,2.046,1.092,3.042,3.153,3.049,3.44.012,6.881,0,10.321,0q.352,0,.7.007c.478.008.714.16.713.724-.02,7.052-.013,14.1-.014,21.155a1.035,1.035,0,0,1-.044.442" transform="translate(-4.139 -23.491)" fill="#eceaf1"/>
        <path id="Trazado_134300" data-name="Trazado 134300" d="M83.242,4.923c-1,.006-2.009.017-3.014.017q-13.95,0-27.9,0c-.82,0-.82,0-.82.84q0,11.129,0,22.257a2.673,2.673,0,0,0,2.86,2.829c5.815,0,11.631.018,17.446-.01a9.263,9.263,0,0,1,5.3,1.553,1.13,1.13,0,0,0,.707.255A2.167,2.167,0,0,0,77.466,34c.016.786,0,1.572,0,2.361-.321.048-.474-.169-.657-.29q-2.569-1.692-5.122-3.408a2.455,2.455,0,0,0-1.441-.42q-9.817.019-19.635.008c-1.459,0-1.9-.448-1.9-1.925q0-11.806,0-23.613c0-1.419.458-1.872,1.888-1.873q15.913,0,31.826,0a1.406,1.406,0,0,1,.814.089" transform="translate(-21.338 -2.11)" fill="#6faae5"/>
        <path id="Trazado_134301" data-name="Trazado 134301" d="M7.646,53.663c0,7.737.031,15.474-.029,23.211a2.931,2.931,0,0,0,2.741,2.751c5.962-.066,11.926-.048,17.889-.016a7.347,7.347,0,0,1,4.56,1.379c-4.554.007-9.109.028-13.663.006a3.113,3.113,0,0,0-1.849.565c-1.643,1.115-3.3,2.21-4.951,3.313-.173.116-.346.23-.622.413,0-.921,0-1.742,0-2.562-.007-1.21-.509-1.712-1.712-1.714s-2.395,0-3.592,0a1.4,1.4,0,0,1-1.559-1.541q-.012-12.157,0-24.314a1.365,1.365,0,0,1,1.507-1.516c.427-.007.853.017,1.28.028" transform="translate(-2.126 -23.493)" fill="#d9d6e4"/>
        <path id="Trazado_134302" data-name="Trazado 134302" d="M56.386,79.867c-.009-.277-.025-.555-.025-.832q0-10.292.011-20.584c0-.555-.128-.727-.706-.722-3.7.027-7.4.014-11.093.013a2.949,2.949,0,0,1-3.223-3.211v-.9c.148-.01.3-.01.445-.033a1.459,1.459,0,0,1,1.7.879,3.73,3.73,0,0,0,3.448,1.849c2.974.007,5.947.012,8.921-.008.463,0,.612.085.611.587q-.024,11.168-.008,22.336a1.028,1.028,0,0,1-.084.624" transform="translate(-18.112 -23.465)" fill="#d9d6e4"/>
        <path id="Trazado_134303" data-name="Trazado 134303" d="M68.258,29.641a1.772,1.772,0,0,1,.2-.768q2.611-6.53,5.222-13.061c.265-.665.627-1.182,1.411-1.181s1.144.523,1.411,1.185q2.615,6.5,5.25,12.984a2.006,2.006,0,0,1,.235.985,1.406,1.406,0,0,1-1.2,1.239,1.368,1.368,0,0,1-1.431-.862q-.566-1.357-1.066-2.742a.664.664,0,0,0-.753-.5c-1.6.025-3.207.022-4.809,0a.593.593,0,0,0-.661.437c-.383.971-.785,1.937-1.216,2.887a1.344,1.344,0,0,1-1.53.779,1.378,1.378,0,0,1-1.057-1.387" transform="translate(-29.898 -6.409)"/>
        <path id="Trazado_134304" data-name="Trazado 134304" d="M33.8,68.833c-2.666,0-5.274,0-7.881,0a1.411,1.411,0,0,1-1.488-.974A1.337,1.337,0,0,1,25.7,66.118c1.046-.034,2.1-.012,3.143-.013.987,0,.983,0,.994-.962a3.373,3.373,0,0,1,.072-.761,1.341,1.341,0,0,1,1.306-1.03,1.381,1.381,0,0,1,1.311,1.031,3.013,3.013,0,0,1,.059,1.083c-.04.481.084.674.619.651,1.067-.046,2.138-.018,3.207-.012A1.418,1.418,0,0,1,38,67.269,1.36,1.36,0,0,1,36.865,68.8c-.286.078-.319.239-.359.438a11.956,11.956,0,0,1-3,5.848c-.238.258-.284.393.046.62.723.5,1.454.97,2.219,1.4a1.39,1.39,0,1,1-1.351,2.385,18.723,18.723,0,0,1-2.771-1.84.559.559,0,0,0-.863-.007,16.883,16.883,0,0,1-2.878,1.9,1.365,1.365,0,1,1-1.334-2.373c.737-.432,1.455-.891,2.16-1.373.35-.24.475-.393.11-.74a7.433,7.433,0,0,1-.841-1.048A1.381,1.381,0,1,1,30.2,72.373c.243.3.5.582.733.89s.368.23.588-.018A10.053,10.053,0,0,0,33.8,68.833" transform="translate(-10.676 -27.75)"/>
        <path id="Trazado_134305" data-name="Trazado 134305" d="M77.223,28.124c.582-1.463,1.153-2.894,1.791-4.495.633,1.585,1.2,3.012,1.8,4.495Z" transform="translate(-33.826 -10.35)" fill="#81baf2"/>
      </g>
    </g>
    <rect id="Rect치ngulo_38020" data-name="Rect치ngulo 38020" width="74" height="74" transform="translate(763.5 1229)" fill="none"/>
  </g>
</svg>
