<svg xmlns="http://www.w3.org/2000/svg" xmlns:xlink="http://www.w3.org/1999/xlink" width="74" height="74" viewBox="0 0 74 74">
  <defs>
    <clipPath id="clip-path">
      <rect id="Rect치ngulo_38022" data-name="Rect치ngulo 38022" width="60.479" height="61.44" transform="translate(0 0)" fill="none"/>
    </clipPath>
  </defs>
  <g id="Grupo_158748" data-name="Grupo 158748" transform="translate(-1196.5 -1229)">
    <rect id="Rect치ngulo_38021" data-name="Rect치ngulo 38021" width="74" height="74" transform="translate(1196.5 1229)" fill="none"/>
    <g id="Grupo_158744" data-name="Grupo 158744" transform="translate(1203.459 1234.91)">
      <g id="Grupo_158743" data-name="Grupo 158743" transform="translate(0 0)" clip-path="url(#clip-path)">
        <path id="Trazado_134306" data-name="Trazado 134306" d="M25.314,61.44a12.024,12.024,0,0,0-2.484-.447A27.216,27.216,0,0,1,9.477,54.537,27.142,27.142,0,0,1,.4,38.359,27.763,27.763,0,0,1,21.492,6.593a1.439,1.439,0,0,1,.231-.061c.45-.026.494-.162.263-.568a3.977,3.977,0,0,1,6.162-4.888,27.682,27.682,0,0,1,4.55,5,.734.734,0,0,0,.528.328A27.067,27.067,0,0,1,40,8.7a.608.608,0,0,0,.7-.086c1.328-.887,2.65-1.782,4-2.643a4.415,4.415,0,0,1,6.83,2.8,4.065,4.065,0,0,1-.25,2.524c-.14.316-.087.4.248.516a4.4,4.4,0,0,1,2.717,5.855c-.077.209-.246.361.158.51a4.374,4.374,0,0,1,2.709,6.08,1.549,1.549,0,0,0-.045.187,4.4,4.4,0,0,1,3.282,3.314,4.327,4.327,0,0,1-1.809,4.668c-.834.583-1.685,1.143-2.546,1.686a.861.861,0,0,0-.463.808,25.594,25.594,0,0,1-.375,3.573c-.081.506-.272.923-.846,1.021-.73.279-1.2-.323-1.19-.981a16.284,16.284,0,0,1,.2-1.724c.022-.191.13-.434-.061-.559-.171-.113-.328.086-.469.181-2.527,1.72-5.122,3.338-7.644,5.066-.732.45-1.419.969-2.163,1.4a6.073,6.073,0,0,1-3.9.841,4.968,4.968,0,0,0-3.889,1.016c-.285.228-.414.41-.27.8a2.715,2.715,0,0,1-1.156,3.476c-4.391,2.888-8.748,5.828-13.152,8.694a1.757,1.757,0,0,0-.566.452,24.467,24.467,0,0,0,5.746,1.12,18.359,18.359,0,0,0,3.466.043,25.72,25.72,0,0,0,7.077-1.433,25.456,25.456,0,0,0,9.673-6.137,26.619,26.619,0,0,0,5.033-7.1c.318-.646.549-1.328.83-1.989a1.6,1.6,0,0,1,.69-.876.615.615,0,0,1,.821.06c.624.464.738.75.469,1.419Q47.961,57.974,32.435,61.061c-.848.169-1.725.139-2.561.379h-.36c-.072-.079-.168-.057-.257-.062H29.05c-.09,0-.185-.016-.256.062h-1.2a.92.92,0,0,0-.72,0h-.6a.273.273,0,0,0-.359,0Z" transform="translate(0 0)"/>
        <path id="Trazado_134307" data-name="Trazado 134307" d="M74.5,71.291c-.813-.109-1.051.067-1.421,1A25.92,25.92,0,0,1,47.413,88.924a4.567,4.567,0,0,1-.527-.084.344.344,0,0,1,.311-.15,10.713,10.713,0,0,0,4.6-1.416,26.738,26.738,0,0,0,14.13-15.9,1.805,1.805,0,0,1,.3-.581l7.3-4.876a2.283,2.283,0,0,1,.35-.228c.246-.106.463-.492.7-.314.188.14.049.528.017.8-.059.494-.157.984-.213,1.478-.1.9.146,1.194,1.046,1.277-.148.107-.367.1-.424.348-.151.672-.333,1.337-.5,2" transform="translate(-21.116 -29.425)" fill="#7570d5"/>
        <path id="Trazado_134308" data-name="Trazado 134308" d="M72.7,21.6a2.232,2.232,0,0,1,1.664,1.835,2.374,2.374,0,0,1-1,2.567c-.874.623-1.787,1.192-2.679,1.79s-.9,1.247-.029,1.868a2.633,2.633,0,0,0,1.944-.245c.778-.394,1.524-.846,2.308-1.227a1.582,1.582,0,0,1,.667-.231,2.242,2.242,0,0,1,1.76,1.9,2.394,2.394,0,0,1-1.105,2.591c-1.942,1.3-3.892,2.584-5.839,3.874-3.029,2.007-6.065,4-9.084,6.025a4.782,4.782,0,0,1-3.5.877,6.466,6.466,0,0,0-5.033,1.464c-.394.3-.568.262-.846-.161q-4.936-7.506-9.916-14.984a1.078,1.078,0,0,1-.18-.935c.912-3.884,1.849-7.763,2.673-11.666a13.223,13.223,0,0,0-1.764-9.894,2.783,2.783,0,0,1-.54-1.312,1.984,1.984,0,0,1,1.117-2.018,1.929,1.929,0,0,1,2.29.263,21.3,21.3,0,0,1,6.569,9.129c.229.68.489,1.349.743,2.02.34.9.922,1.094,1.726.563q4.9-3.236,9.788-6.482a2.577,2.577,0,0,1,2.148-.469,2.4,2.4,0,0,1,1.879,1.886,2.348,2.348,0,0,1-.927,2.551c-.886.647-1.807,1.249-2.739,1.829a1.15,1.15,0,0,0-.6,1.407c-.176.748.056,1,.88.954a2.424,2.424,0,0,0,1.012-.331c1-.534,1.992-1.094,3.011-1.6a1.108,1.108,0,0,1,.728-.2,2.282,2.282,0,0,1,1.633,2,2.354,2.354,0,0,1-1.049,2.382c-.877.618-1.786,1.189-2.678,1.785-.68.455-.771.729-.516,1.5-.3.362-.114.557.237.7a1.763,1.763,0,0,0,1.6-.193c1.05-.567,2.1-1.14,3.161-1.681.153-.077.3-.2.5-.14" transform="translate(-18.821 -1.556)" fill="#fcd6bc"/>
        <path id="Trazado_134309" data-name="Trazado 134309" d="M17.121,60.847c-.534.623-.546.907-.053,1.643q4.985,7.435,9.981,14.861c.3.436.268.613-.178.9-2.412,1.563-4.8,3.157-7.19,4.756a.712.712,0,0,1-.807.06A25.837,25.837,0,0,1,4.168,64.084a.567.567,0,0,1,.3-.682q4.386-2.864,8.745-5.768c.312-.207.49-.259.69.12.185.351.458.655.657,1a1.141,1.141,0,0,0,1.354.615.166.166,0,0,1,.214-.032,2.473,2.473,0,0,1,1,1.51" transform="translate(-1.868 -25.885)" fill="#86dafe"/>
        <path id="Trazado_134310" data-name="Trazado 134310" d="M23.008,32.135c-1.521-1.02-2.3-1.017-3.8-.027L4.122,42.1c-.162.107-.331.205-.575.356a22.638,22.638,0,0,1-.052-3.287A25.939,25.939,0,0,1,23.051,15.346c1.826-.45,1.824-.45,2.251,1.426a13.489,13.489,0,0,1-.2,6.343c-.739,2.981-1.393,5.984-2.092,9.02" transform="translate(-1.558 -6.8)" fill="#927de1"/>
        <path id="Trazado_134311" data-name="Trazado 134311" d="M26.271,56.662c-.386-.507-.6-1.153-1.21-1.478.675-.561.734-.911.263-1.633-.251-.385-.494-.775-.766-1.144-.161-.219-.113-.333.1-.471,1.819-1.192,3.629-2.4,5.452-3.586.481-.313.8-.193,1.178.378q3.244,4.89,6.483,9.782,3.007,4.543,6.012,9.088c.524.794.48,1-.33,1.534-1.613,1.07-3.239,2.122-4.834,3.217-.4.276-.564.2-.815-.176q-5-7.5-10.026-14.975c-.462-.69-.73-.781-1.5-.536" transform="translate(-11.017 -21.7)" fill="#6fc6fe"/>
        <path id="Trazado_134312" data-name="Trazado 134312" d="M61.284,75.275a24.125,24.125,0,0,1-3.576,7.5,26.712,26.712,0,0,1-8.852,8.117,29.839,29.839,0,0,1-5.246,2.292,8.867,8.867,0,0,1-1.66.131,21.242,21.242,0,0,1-6.023-1.209c.065-.185.245-.242.381-.333q6.585-4.365,13.173-8.723c1.74-1.15,2.018-1.947,1.312-3.9-.08-.224.021-.275.149-.375a5.441,5.441,0,0,1,4.391-1.291,5.48,5.48,0,0,0,3.728-.8c.753-.447,1.482-.936,2.222-1.406" transform="translate(-16.181 -33.902)" fill="#927de1"/>
        <path id="Trazado_134313" data-name="Trazado 134313" d="M62.182,15.63a23.761,23.761,0,0,1,4.29,1.494l-2.9,1.923c-.451-1.131-.821-2.241-1.394-3.417" transform="translate(-28.005 -7.039)" fill="#746fd5"/>
        <path id="Trazado_134314" data-name="Trazado 134314" d="M87.831,24.725c-1.28.68-2.554,1.37-3.842,2.034a1.888,1.888,0,0,1-1.825.066c-.4-.209-.579-.413-.1-.73.06-.04.088-.129.132-.2.6.637.913.678,1.643.2.6-.389,1.181-.8,1.788-1.173a2.227,2.227,0,0,1,2.2-.2" transform="translate(-36.83 -11.044)" fill="#f8c3a9"/>
        <path id="Trazado_134315" data-name="Trazado 134315" d="M93.2,36.324c-1.293.705-2.576,1.428-3.883,2.106a1.572,1.572,0,0,1-1.6-.035c-.549-.328-.556-.4-.007-.76.61.506.9.53,1.543.112.6-.391,1.187-.8,1.793-1.181a2.276,2.276,0,0,1,2.154-.242" transform="translate(-39.318 -16.283)" fill="#f8c4a9"/>
        <path id="Trazado_134316" data-name="Trazado 134316" d="M99.227,47.9a29.959,29.959,0,0,1-3.5,1.854,1.474,1.474,0,0,1-1.416-.15,1.459,1.459,0,0,0,1.121-.295q.855-.605,1.748-1.157a2.219,2.219,0,0,1,2.051-.252" transform="translate(-42.474 -21.509)" fill="#f8c3a9"/>
      </g>
    </g>
  </g>
</svg>
