<svg xmlns="http://www.w3.org/2000/svg" xmlns:xlink="http://www.w3.org/1999/xlink" width="240.048" height="255.472" viewBox="0 0 240.048 255.472">
  <defs>
    <clipPath id="clip-path">
      <rect id="Rect치ngulo_38029" data-name="Rect치ngulo 38029" width="151.868" height="196" fill="none"/>
    </clipPath>
  </defs>
  <g id="Grupo_158095" data-name="Grupo 158095" transform="translate(-0.048 -33)">
    <g id="Grupo_87689" data-name="Grupo 87689" transform="translate(0.048 33)">
      <g id="Grupo_87397" data-name="Grupo 87397">
        <path id="Rect치ngulo_34437" data-name="Rect치ngulo 34437" d="M0,0H163.048a77,77,0,0,1,77,77V255.472a0,0,0,0,1,0,0H0a0,0,0,0,1,0,0V0A0,0,0,0,1,0,0Z" fill="#ffdfe0"/>
      </g>
    </g>
    <g id="Grupo_158801" data-name="Grupo 158801" transform="translate(44.048 63)" clip-path="url(#clip-path)">
      <path id="Trazado_134781" data-name="Trazado 134781" d="M130.507,59.683c-.355-4.622-.72-9.244-1.063-13.867-.157-2.118-1.07-4.041-1.506-6.084A51.506,51.506,0,0,1,126.71,28.4c.079-7.5-.44-15-.1-22.51A6.422,6.422,0,0,1,130.594,0h3.446c3.034,1.015,4.258,2.636,4.363,5.892.068,2.1.083,4.2,0,6.3a24.822,24.822,0,0,0,.74,5.847c.2,6.367-.282,12.761.8,19.091a24.493,24.493,0,0,0,.51,2.628,56.943,56.943,0,0,1,1.832,14.185c.068,2.354.439,4.694.406,7.06a2.346,2.346,0,0,0,2.441,2.6c3.938.314,7.881.837,11.832.459A86.606,86.606,0,0,0,169.1,62.509a14.536,14.536,0,0,0,5.1-2.074c.919-.644,1.921-1.339,3.173-.742C182.92,60,184.8,64,181.891,69.3c-.348,1.33-1.511,1.845-2.547,2.415a36.36,36.36,0,0,1-12.737,3.75,93.251,93.251,0,0,1-24.7.1,2.625,2.625,0,0,1-1.257-.39c-.457-.747-.89-1.509-1.381-2.245a5.958,5.958,0,0,1,.46-7.518c1.057-1.252,1.039-1.438-.555-1.732a21.469,21.469,0,0,1-8.671-4" transform="translate(-77.951 0.001)" fill="#6aa96a"/>
      <path id="Trazado_134782" data-name="Trazado 134782" d="M238.829,17.175c.829-3.33.449-6.723.379-10.076-.07-3.381,1.091-5.779,4.259-7.1h3.063c3.058,1.448,4.148,3.912,3.95,7.206-.209,3.465.361,6.946-.086,10.416a2.938,2.938,0,0,1-1.971.591c-2.549.029-5.1.069-7.644-.025-.747-.027-1.755.188-1.949-1.013" transform="translate(-147.177)" fill="#609f60"/>
      <path id="Trazado_134783" data-name="Trazado 134783" d="M78.995,185.946c1.313.786,2.849.556,4.231.673,10.149.861,20.255.652,30.123-2.27a18.463,18.463,0,0,0,6.991-3.765c3.757,7.377,7.533,14.744,11.266,22.132q17.669,34.976,35.31,69.965c2.447,4.85,1.625,7.862-2.873,10.9-5.643,3.807-11.931,5.56-18.646,6.183-5.389.5-10.838.351-16.171,1.445-.928.19-1.835.48-2.752.724-3.216-17.632-6.826-35.189-10.234-52.784-1.771-9.145-3.654-18.269-5.343-27.43a19.347,19.347,0,0,0-.543-2.427c-.543-1.687-1.568-2.47-2.867-2.21-1.316.264-1.966,1.4-1.789,3.135.045.445.145.881.231,1.319q6.418,32.682,12.827,65.366c.975,4.945,1.917,9.9,2.9,14.841.17.857.52,1.75-.152,2.567-8.512,8.738-18.711,13.532-31.065,12.924A37.832,37.832,0,0,1,66.851,297.6c-1.43-1.25-2.924-2.428-4.389-3.639,2.693-13.832,5.455-27.652,8.13-41.487,2.639-13.65,5.424-27.272,7.979-40.938a8.817,8.817,0,0,0,.214-2.28,2.158,2.158,0,0,0-1.626-2.118,2.091,2.091,0,0,0-2.418,1.106,8.558,8.558,0,0,0-1.019,3.264c-3.212,16.073-6.32,32.166-9.486,48.248Q61.353,274.4,58.5,289.047a4.241,4.241,0,0,1-.97,2.634c-6.094-1.59-12.391-1.273-18.578-1.988-2.756-.319-5.564-.422-8.178-1.53a.6.6,0,0,0-.179-.33c-4.338-3.07-5.109-6.967-2.409-12.191,6.736-13.035,13.043-26.293,19.778-39.33,7.438-14.4,14.507-28.98,21.866-43.417,1.129-2.215,2.418-4.348,3.5-6.592a2.28,2.28,0,0,1,1.261-1.369,8.256,8.256,0,0,1,4.413,1.013" transform="translate(-16.4 -111.284)" fill="#77b677"/>
      <path id="Trazado_134784" data-name="Trazado 134784" d="M189.034,44.754c.526.669,1.272.423,1.933.429,3.21.025,6.421.015,9.631.018.012,7.509.66,15.112-1.419,22.422-1.841,6.472-1.742,13.085-2.373,19.651a10.694,10.694,0,0,0-3.888,1.89c-2.532,1.589-5.533,1.917-8.387,2.264a75.452,75.452,0,0,1-14.037.84c-2.268-.149-4.52-.591-6.787-.661-1.691-.052-2.119-1.117-2.138-2.331-.038-2.606-.317-5.193-.414-7.788a60.108,60.108,0,0,0-1.8-13.9,43.79,43.79,0,0,1-1.263-10.15c-.139-3.945-.035-7.9-.036-11.85a6.458,6.458,0,0,0,2.769,2.253,18.142,18.142,0,0,1,8.436,6.913c.4.577.806,1.147,1.245,1.693,1.832,2.28,3.879,2.322,5.7.045,1.9-2.382,3.513-5.008,6.155-6.724a16.657,16.657,0,0,1,3.009-1.637,6.241,6.241,0,0,0,3.665-3.372" transform="translate(-97.382 -27.579)" fill="#76b676"/>
      <path id="Trazado_134785" data-name="Trazado 134785" d="M58.005,184.972C49.8,200.67,42.172,216.661,34.053,232.4c-7.565,14.667-14.789,29.5-22.256,44.217-2.247,4.427-1.57,7.252,2.341,10.306.255.2,1.327.438.233,1.031a25.488,25.488,0,0,1-12.592-6.672C-.584,278.96-.357,276,1.085,273.135q5.748-11.414,11.5-22.828,17.329-34.324,34.67-68.642c.226-.448.493-.875.741-1.312.116-.064.27-.143.353-.084,2.835,2,6.1,3.053,9.286,4.283a.878.878,0,0,1,.375.419" transform="translate(0 -111.077)" fill="#6aa96a"/>
      <path id="Trazado_134786" data-name="Trazado 134786" d="M247.452,335.652c-.791-4.231-1.557-8.467-2.376-12.693q-3.991-20.6-8.019-41.2-2.908-14.819-5.9-29.621c-.492-2.446.168-3.884,2.131-4.364,1.82-.445,3.193.633,3.713,3.144.975,4.712,1.854,9.444,2.772,14.168,1.945,10.008,3.87,20.019,5.838,30.022q3.538,17.983,7.129,35.956a2.779,2.779,0,0,1-.314,2.211l-4.975,2.378" transform="translate(-142.352 -152.628)" fill="#609f60"/>
      <path id="Trazado_134787" data-name="Trazado 134787" d="M107.169,333.124q1.684-8.759,3.37-17.517,3.3-17.051,6.624-34.1,3.017-15.366,6.123-30.715c.485-2.392,2.226-3.471,4.054-2.722a2.463,2.463,0,0,1,1.692,2.669,76.073,76.073,0,0,1-1.67,9.722c-2.2,11.495-4.5,22.972-6.761,34.456q-3.157,16.017-6.32,32.031c-.452,2.3-.918,4.591-1.307,6.9-.112.663-.174,1.261-.868,1.558l-4.937-2.281" transform="translate(-66.042 -152.727)" fill="#609f60"/>
      <path id="Trazado_134788" data-name="Trazado 134788" d="M132.666,169.725c-3.577-1.021-7.13-2.1-10.014-4.619q-2.979-4.607-.037-7.781a5.6,5.6,0,0,1,4.6-1.811c2.636.373,4.357,2.821,7.053,3.094.871.089,1.717.4,2.581.576,1.492.3,1.722.951.457,1.856-2.382,1.7-2.311,4.772-1.336,6.874a6.578,6.578,0,0,0,1.29,1.633c.29.316.428.632-.005.945a19.779,19.779,0,0,1-4.589-.767" transform="translate(-74.661 -95.83)" fill="#609f60"/>
    </g>
  </g>
</svg>
