<svg xmlns="http://www.w3.org/2000/svg" xmlns:xlink="http://www.w3.org/1999/xlink" width="240.048" height="255.473" viewBox="0 0 240.048 255.473">
  <defs>
    <clipPath id="clip-path">
      <rect id="Rect치ngulo_38030" data-name="Rect치ngulo 38030" width="195.514" height="195.413" fill="none"/>
    </clipPath>
  </defs>
  <g id="_3" data-name="3" transform="translate(7571 10524)">
    <g id="Grupo_87689" data-name="Grupo 87689" transform="translate(-7571 -10524)">
      <g id="Grupo_87397" data-name="Grupo 87397">
        <path id="Rect치ngulo_34437" data-name="Rect치ngulo 34437" d="M0,0H163.048a77,77,0,0,1,77,77V255.472a0,0,0,0,1,0,0H0a0,0,0,0,1,0,0V0A0,0,0,0,1,0,0Z" fill="#ffdfe0"/>
      </g>
    </g>
    <g id="Grupo_158802" data-name="Grupo 158802" transform="translate(-7549 -10494)">
      <g id="Grupo_158802-2" data-name="Grupo 158802" clip-path="url(#clip-path)">
        <path id="Trazado_134789" data-name="Trazado 134789" d="M95.4,0h4.2a8.515,8.515,0,0,0,2.4.37A7.472,7.472,0,0,1,106.706,2.6q18.847,18.852,37.7,37.7c.839.837,1.412,1.947,2.553,2.477,6.175,6.323,12.486,12.51,18.721,18.772.346.347.69.932,1.231.745.7-.241.442-.98.443-1.51q.024-13.923,0-27.846c-.007-2.232-.421-2.6-2.732-2.634-6.229-.085-12.459.144-18.689-.133a57.689,57.689,0,0,1-6.675.078,2.125,2.125,0,0,1-2.365-2.355c-.1-6.1-.126-12.209.017-18.312.044-1.848.589-2.339,2.479-2.42,3.749-.16,7.5-.059,11.254-.063,7.886-.007,15.771-.035,23.657.015,3.266.021,3.629.387,3.657,3.634q.07,8.012,0,16.025c-.032,3.119-.4,3.444-3.58,3.517-.254.006-.508.006-.763.009-3.842.041-4.027.215-4.028,3.971-.005,9.412.028,18.824-.027,28.236a6.609,6.609,0,0,0,2.115,5.074c6.376,6.3,12.494,12.888,19.109,18.926,4.343,3.965,4.842,8.567,4.712,13.928-.186,7.68-9.883,14.018-18.481,9.919-2.479-.733-4.226-2.529-5.97-4.272Q135.76,70.826,100.5,35.552c-.494-.495-1-.974-1.485-1.482a1.577,1.577,0,0,0-2.613-.03c-.485.5-.994.984-1.488,1.479q-34.989,35.01-69.99,70.007a52.889,52.889,0,0,1-3.985,3.54,13.723,13.723,0,0,1-4.678,2.03,13.6,13.6,0,0,1-14.88-5.475C.238,103.873.545,101.836,0,99.978v-4.2a3.283,3.283,0,0,0,.3-1.835,8.755,8.755,0,0,1,2.829-5.838c25-25.6,50.466-50.732,75.735-76.062C81.7,9.21,84.589,6.435,87.319,3.509A9.488,9.488,0,0,1,94.12.2c.425-.018.9.139,1.278-.2" fill="#f2705a"/>
        <path id="Trazado_134790" data-name="Trazado 134790" d="M19.931,128.871c-.037-3.8-.063-7.606-.119-11.409-.011-.734.238-1.542-.417-2.16,2.872-.642,4.934-2.535,6.917-4.517q36.015-35.993,72.012-72c2.1-2.1,2.1-2.1,4.218.015q35.8,35.8,71.6,71.607a29.637,29.637,0,0,0,5.3,4.313q-.046,7.069-.094,14.14c-.782.482-1.317-.014-1.848-.481-.621-.546-1.19-1.147-1.774-1.731Q138.912,89.832,102.1,53.019c-.449-.449-.9-.9-1.361-1.336a1.4,1.4,0,0,0-2.178.038c-.507.482-1,.977-1.5,1.47q-36.628,36.6-73.233,73.217c-.675.673-1.336,1.361-2.046,2-.533.478-1.073.947-1.849.463" transform="translate(-2.737 -5.25)" fill="#f6b54c"/>
        <path id="Trazado_134791" data-name="Trazado 134791" d="M170.074,47.838q.028-6.813.056-13.626c6.666,0,13.331.015,20-.021,1.337-.007,2.137.22,2.13,1.851-.05,10.918-.027,21.837-.035,32.755a4.393,4.393,0,0,1-.106.695c-.55.238-.764-.175-1.009-.419q-10.11-10.089-20.2-20.2a11.745,11.745,0,0,1-.833-1.036" transform="translate(-23.997 -4.824)" fill="#ef5540"/>
        <path id="Trazado_134792" data-name="Trazado 134792" d="M20,130.942c.656-.6,1.338-1.17,1.965-1.8Q59.859,91.267,97.739,53.381c1.991-1.991,1.994-1.991,3.958-.027q37.884,37.884,75.771,75.764c.628.628,1.3,1.209,1.955,1.812.021,7.116.056,14.231.06,21.347q.013,24.208.021,48.417c0,1.324-.119,2.042-1.8,2.039q-45.749-.08-91.5-.045c-.253,0-.506-.037-.759-.057-.953-.992-.738-2.253-.74-3.437-.023-13.537.049-27.074-.046-40.611-.034-4.9-.554-9.749-3.084-14.174-3.978-6.958-9.879-10.932-17.839-11.792a23.015,23.015,0,0,0-25.114,19.657,28.261,28.261,0,0,0-.17,3.613c-.009,14.428.011,28.855-.024,43.282,0,1.216.354,2.606-1,3.465-5.341.021-10.682-.012-16.021.089-1.827.035-1.47-1.135-1.47-2.153q-.013-24.9,0-49.791c0-6.613.04-13.225.062-19.837" transform="translate(-2.811 -7.321)" fill="#fed05c"/>
        <path id="Trazado_134793" data-name="Trazado 134793" d="M40.309,215.708c.021-16.147-.151-32.3.123-48.44C40.645,154.7,51.574,144.561,64.3,144.54c12.531-.021,23.264,9.9,23.853,22.347.306,6.471.156,12.964.17,19.447.021,9.791,0,19.581,0,29.371q-17.531.032-35.06.061c-4.318,0-8.636-.038-12.954-.058" transform="translate(-5.683 -20.394)" fill="#415a6b"/>
        <path id="Trazado_134794" data-name="Trazado 134794" d="M144.12,144.5c9.786,0,19.574.037,29.359-.037,1.6-.012,2,.447,2,2.014q-.081,25.547,0,51.093c0,1.482-.369,1.919-1.887,1.914q-29.454-.076-58.909,0c-1.49,0-1.908-.391-1.9-1.9q.08-25.545,0-51.093c-.005-1.549.366-2.042,1.983-2.03,9.785.076,19.573.038,29.359.038" transform="translate(-15.913 -20.383)" fill="#344a5e"/>
        <path id="Trazado_134795" data-name="Trazado 134795" d="M120.39,172.909c0-6.3.038-12.593-.029-18.888-.015-1.421.273-2,1.856-1.972,5.913.093,11.829.073,17.742.011,1.419-.015,2.008.293,2,1.881q-.091,19.175-.01,38.349c0,1.306-.361,1.759-1.713,1.744-6.041-.063-12.084-.079-18.125.01-1.509.021-1.763-.519-1.75-1.866.064-6.423.028-12.847.028-19.27" transform="translate(-16.983 -21.454)" fill="#89d6f7"/>
        <path id="Trazado_134796" data-name="Trazado 134796" d="M174.618,173.22c0,6.36-.034,12.72.027,19.08.013,1.3-.3,1.756-1.677,1.739q-9.062-.106-18.125,0c-1.488.021-1.791-.505-1.786-1.871q.066-19.079,0-38.158c-.005-1.476.4-1.979,1.924-1.958q8.87.119,17.743,0c1.467-.019,1.956.35,1.934,1.895-.088,6.422-.037,12.846-.037,19.269" transform="translate(-21.596 -21.455)" fill="#89d6f7"/>
      </g>
    </g>
  </g>
</svg>
