<svg xmlns="http://www.w3.org/2000/svg" xmlns:xlink="http://www.w3.org/1999/xlink" width="190" height="181" viewBox="0 0 190 181">
  <defs>
    <clipPath id="clip-path">
      <rect id="Rect치ngulo_38041" data-name="Rect치ngulo 38041" width="158" height="158.494" fill="none"/>
    </clipPath>
  </defs>
  <g id="Grupo_158829" data-name="Grupo 158829" transform="translate(-705 -6250)">
    <g id="Grupo_158201" data-name="Grupo 158201" transform="translate(392 3611)">
      <rect id="Rect치ngulo_36141" data-name="Rect치ngulo 36141" width="190" height="181" transform="translate(313 2639)" fill="#ffdfe0"/>
    </g>
    <g id="Grupo_158828" data-name="Grupo 158828" transform="translate(721 6261)">
      <g id="Grupo_158827" data-name="Grupo 158827" clip-path="url(#clip-path)">
        <path id="Trazado_134994" data-name="Trazado 134994" d="M153.077,84.335c.019.567.054,1.135.054,1.7q0,50.071.045,100.142c0,1.691-.454,2.087-2.065,2.008-2.95-.145-5.912-.057-8.869-.067a2.463,2.463,0,0,1-.566-1.891c-.006-2.086-.057-4.173.025-6.259q-.09-4.118,0-8.236c-.1-7.1-.031-14.208-.041-21.312-.014-10.06,0-20.12-.007-30.18,0-2.427-.128-2.562-2.452-2.565q-13.471-.017-26.943,0c-2.077,0-2.111.066-2.328,2.2.11,9.653.041,19.3.041,28.957,0,7.607.077,15.215-.043,22.822.054,2.759.066,5.52,0,8.28.081,2.094.033,4.188.026,6.282a2.475,2.475,0,0,1-.568,1.9l-16.361-.026c-.978-1.73-.359-3.606-.495-5.413-.056-1.848-.051-3.7,0-5.543-.1-5.761-.036-11.523-.034-17.284a2.966,2.966,0,0,1,.414-1.787c1.005-.752,2.184-.5,3.3-.5,1.217-.007,1.793-.5,1.738-1.724-.02-.453.007-.909.007-1.363V98.94c0-.284,0-.568,0-.852-.04-2.068-.074-2.1-2.215-2.312-.91.083-1.82.046-2.73.046H30.705c-2.679.012-2.685.012-2.688,2.62q-.008,5.546,0,11.092,0,21.673,0,43.345a19.035,19.035,0,0,1-.047,2.213c.055,2.463.055,2.448,2.6,2.505.884.02,1.839-.177,2.56.594a3.2,3.2,0,0,1,.332,1.644c0,5.758.072,11.517-.033,17.275.045,1.848.057,3.7,0,5.546-.135,1.814.488,3.7-.5,5.436-5.119.018-10.239.021-15.358.07-.836.008-1.135-.3-1.043-1.089a6.01,6.01,0,0,0,0-.682q0-50.348,0-100.7c0-.454.035-.908.054-1.362.871-.766,1.94-.541,2.941-.543q16.133-.026,32.268-.011,49,0,98,.013c1.109,0,2.3-.283,3.282.541" transform="translate(-5.856 -29.703)" fill="#e99c2d"/>
        <path id="Trazado_134995" data-name="Trazado 134995" d="M137.109,20.86q.014,2.727.026,5.454c-1.168.88-2.523.47-3.79.486-4.442.057-3.794-.239-3.092,3.778,1.369,7.836,2.85,15.652,4.249,23.483.152.851.618,1.775-.242,2.551a3.88,3.88,0,0,1-1.82.3q-7.617.02-15.234,0a3.551,3.551,0,0,1-1.808-.339,4.1,4.1,0,0,1-.9-2.852c-.655-8.092-1.509-16.166-2.156-24.259-.2-2.487-.363-2.615-2.914-2.618q-5.2,0-10.4,0c-2.2.005-2.394.114-2.569,2.212C96,34.6,95.439,40.14,94.976,45.684c-.237,2.828-.536,5.651-.767,8.481a3.609,3.609,0,0,1-.791,2.379,3.269,3.269,0,0,1-1.8.371q-7.7.029-15.408,0a3.916,3.916,0,0,1-1.657-.268c-.932-.725-.468-1.659-.318-2.5,1.481-8.372,3.061-16.726,4.542-25.1.383-2.164.338-2.13-1.846-2.248-1.772-.1-3.621.516-5.312-.483q.013-2.727.026-5.454a2.929,2.929,0,0,1,2.257-.548q30.474-.02,60.949,0a2.929,2.929,0,0,1,2.257.548" transform="translate(-25.402 -7.201)" fill="#c6463b"/>
        <path id="Trazado_134996" data-name="Trazado 134996" d="M137.1,13.66H71.635c-.017-3.751-.062-7.5-.041-11.252C71.6.6,72.378,0,74.518,0q21.405,0,42.81,0,8.442,0,16.885,0c2.3,0,2.938.626,2.934,2.916,0,3.58-.032,7.16-.05,10.741" transform="translate(-25.391 0)" fill="#db4d41"/>
        <path id="Trazado_134997" data-name="Trazado 134997" d="M54.792,75.856l19.166,0a3.093,3.093,0,0,1,2.254-.521q8.649-.021,17.3,0a3.093,3.093,0,0,1,2.254.521h19.168a2.632,2.632,0,0,1,1.919-.515c4.81,0,9.62-.068,14.429.032,5.445-.066,10.89-.079,16.336,0,1.841.134,3.756-.518,5.513.514l-.023,5.447H16.616l-.023-5.447c1.751-1.025,3.658-.372,5.492-.514q8.164-.112,16.328,0c4.819-.1,9.638-.031,14.457-.033a2.645,2.645,0,0,1,1.923.517" transform="translate(-5.885 -26.705)" fill="#c28225"/>
        <path id="Trazado_134998" data-name="Trazado 134998" d="M41.27,59.668l-16.443,0a2.051,2.051,0,0,1-.152-1.8c1.56-8.64,3.155-17.275,4.7-25.917a3.477,3.477,0,0,1,.965-2.3l16.307.006c.581.59.308,1.28.191,1.929-1.537,8.525-3.106,17.044-4.635,25.571a4.176,4.176,0,0,1-.936,2.5" transform="translate(-8.705 -10.521)" fill="#c6463b"/>
        <path id="Trazado_134999" data-name="Trazado 134999" d="M50.464,59.652l5.38-30,8.272-.035c2.272.005,4.545.039,6.817,0,.944-.015,1.382.005,1.143,1.264-1.815,9.58-3.527,19.179-5.271,28.772l-16.341,0" transform="translate(-17.898 -10.505)" fill="#eaeaea"/>
        <path id="Trazado_135000" data-name="Trazado 135000" d="M182.378,59.653l-16.342,0c-1.758-9.648-3.5-19.3-5.305-28.939-.2-1.075.2-1.1,1-1.093,2.328.023,4.658,0,6.988-.006l8.271.035a3.75,3.75,0,0,1,.862,2.185q2.344,13.019,4.724,26.034c.109.6.312,1.238-.2,1.78" transform="translate(-56.989 -10.505)" fill="#eaeaea"/>
        <path id="Trazado_135001" data-name="Trazado 135001" d="M191.345,59.669l-5.384-30,16.308-.006a3.477,3.477,0,0,1,.965,2.3c1.549,8.642,3.144,17.277,4.7,25.917a2.055,2.055,0,0,1-.15,1.8l-16.443,0" transform="translate(-65.956 -10.521)" fill="#c6463b"/>
        <path id="Trazado_135002" data-name="Trazado 135002" d="M216.751,59.66q-2.76-15-5.519-30.008c3.067-.006,6.133-.032,9.2-.012a5.241,5.241,0,0,1,5.543,4.1c1.762,6.075,3.4,12.187,5.085,18.283.558,2.014,1.1,4.032,1.693,6.037.335,1.137.278,1.72-1.221,1.663-3.119-.118-6.245-.03-9.368-.026l-5.412-.034" transform="translate(-74.919 -10.51)" fill="#eaeaea"/>
        <path id="Trazado_135003" data-name="Trazado 135003" d="M21.639,29.654q-2.581,14.089-5.163,28.177c-.112.612-.236,1.222-.354,1.831l-5.414.034c-3.123,0-6.249-.076-9.369.02-1.461.045-1.509-.389-1.158-1.643C2.372,50.241,4.49,42.39,6.6,34.536c.925-3.447,2.75-4.9,6.353-4.9,2.9,0,5.792.011,8.688.017" transform="translate(0 -10.512)" fill="#eaeaea"/>
        <path id="Trazado_135004" data-name="Trazado 135004" d="M193.193,232.517l.093,8.173H160.428l.093-8.173a2.937,2.937,0,0,1,2.257-.54q14.078-.022,28.157,0a2.937,2.937,0,0,1,2.257.54" transform="translate(-56.9 -82.273)" fill="#dadada"/>
        <path id="Trazado_135005" data-name="Trazado 135005" d="M90.645,239.174H79.7c-.106-.131-.272-.24-.288-.412a35.561,35.561,0,0,1,.139-10.427c.849-.743,1.877-.521,2.861-.532,1.826-.045,3.653-.05,5.479,0,.985.007,2.006-.2,2.877.485a3.639,3.639,0,0,1,.407,2.143c.015,2.217.021,4.435,0,6.653a2.736,2.736,0,0,1-.529,2.089" transform="translate(-28.054 -80.784)" fill="#bc8f6f"/>
        <path id="Trazado_135006" data-name="Trazado 135006" d="M96.99,239.156q0-5.415,0-10.83c.811-.794,1.831-.49,2.786-.538,1.829.092,3.7-.412,5.478.407.86,1.782.332,3.672.43,5.514-.136,1.818.489,3.706-.5,5.447H96.99" transform="translate(-34.398 -80.767)" fill="#e99c2d"/>
        <path id="Trazado_135007" data-name="Trazado 135007" d="M75.224,228.324q0,5.415,0,10.83H67.026c-.978-1.732-.359-3.61-.495-5.419.092-1.837-.4-3.717.395-5.5,1.771-.887,3.658-.346,5.493-.447.961.044,1.99-.26,2.806.539" transform="translate(-23.572 -80.764)" fill="#e99c2d"/>
        <path id="Trazado_135008" data-name="Trazado 135008" d="M55.566,239.138H50.091c-.98-1.734-.359-3.613-.5-5.424.1-1.846-.426-3.74.421-5.529a8.012,8.012,0,0,1,5.576-.04c.934,1.78.364,3.689.47,5.54-.136,1.82.489,3.71-.5,5.453" transform="translate(-17.565 -80.747)" fill="#e99c2d"/>
        <path id="Trazado_135009" data-name="Trazado 135009" d="M123.3,239.138h-5.475c-.98-1.734-.359-3.613-.5-5.424.1-1.846-.426-3.74.422-5.529a8.01,8.01,0,0,1,5.575-.04c.934,1.78.364,3.689.47,5.54-.136,1.82.489,3.71-.5,5.453" transform="translate(-41.59 -80.747)" fill="#e99c2d"/>
        <path id="Trazado_135010" data-name="Trazado 135010" d="M47.357,236.716l.048,5.419H41.952q.024-2.71.048-5.419a6.281,6.281,0,0,1,5.357,0" transform="translate(-14.879 -83.745)" fill="#744630"/>
        <path id="Trazado_135011" data-name="Trazado 135011" d="M58.886,242.136l.048-5.419a6.28,6.28,0,0,1,5.356,0l.048,5.419H58.886" transform="translate(-20.886 -83.745)" fill="#744630"/>
        <path id="Trazado_135012" data-name="Trazado 135012" d="M115.095,236.716q.024,2.709.048,5.419H109.69q.023-2.71.048-5.419a6.281,6.281,0,0,1,5.357,0" transform="translate(-38.905 -83.745)" fill="#744630"/>
        <path id="Trazado_135013" data-name="Trazado 135013" d="M126.624,242.136l.048-5.419a6.28,6.28,0,0,1,5.356,0l.048,5.419h-5.453" transform="translate(-44.911 -83.745)" fill="#744630"/>
        <path id="Trazado_135014" data-name="Trazado 135014" d="M33.521,161.675q-.027-11.855-.052-23.71c-.009-11.6.009-23.2-.021-34.8,0-1.08.125-1.609,1.433-1.607q33.184.063,66.369.037c.17,0,.339.03.509.046a2.671,2.671,0,0,1,.555,2.082q.027,27.909,0,55.818c0,2.363-.543,2.778-2.888,2.491-.632-.235-.752-.785-.818-1.363-.045-.394-.028-.792-.056-1.187-.117-1.738-.882-2.677-2.2-2.707-1.373-.03-2.177.941-2.3,2.782-.022.338-.008.68-.045,1.017-.063.568-.127,1.14-.746,1.425a7.232,7.232,0,0,1-2.532.237q-21.713.008-43.426,0a8.164,8.164,0,0,1-2.532-.2c-.7-.28-.768-.911-.825-1.542-.041-.452-.012-.909-.061-1.36-.163-1.477-.967-2.336-2.2-2.359-1.279-.024-2.094.882-2.274,2.46-.105.922.245,1.965-.66,2.7-1.768.344-3.533.645-5.239-.254" transform="translate(-11.863 -36.02)" fill="#d8d8d8"/>
        <path id="Trazado_135015" data-name="Trazado 135015" d="M160.532,191.307q0-25.961.009-51.923a2.989,2.989,0,0,1,2.26-.546q12.72-.022,25.439,0c2.477.006,2.86.39,2.863,2.9q.03,23.644,0,47.289a3.789,3.789,0,0,1-.438,2.308,3.607,3.607,0,0,1-2.45.507q-12.626.021-25.252,0a3.3,3.3,0,0,1-2.434-.535" transform="translate(-56.937 -49.238)" fill="#c6463b"/>
        <path id="Trazado_135016" data-name="Trazado 135016" d="M160.49,109.481c-.006-5,.013-10.01-.037-15.013-.01-1.006.217-1.377,1.311-1.373q15.1.063,30.2,0c1.094,0,1.322.367,1.311,1.373-.049,5-.031,10.009-.037,15.013a2.97,2.97,0,0,1-2.245.579q-14.13.018-28.261,0a2.97,2.97,0,0,1-2.245-.579" transform="translate(-56.909 -33.019)" fill="#eaeaea"/>
        <path id="Trazado_135017" data-name="Trazado 135017" d="M160.532,219.876l30.024-.071a2.186,2.186,0,0,1,2.7.068q-.012,4.089-.023,8.178H160.558q-.014-4.088-.026-8.175" transform="translate(-56.937 -77.807)" fill="#eaeaea"/>
        <path id="Trazado_135018" data-name="Trazado 135018" d="M193.212,190.1l-2.7-.068c0-16.6-.025-33.2.034-49.8.006-1.638-.43-2.1-2.076-2.082-9.324.076-18.649.035-27.973.033a9.944,9.944,0,0,0-.044-1.021c-.188-1.307.282-1.747,1.67-1.738,9.837.061,19.675.045,29.513.015,1.073,0,1.636.135,1.632,1.444q-.076,26.61-.059,53.22" transform="translate(-56.896 -48.029)" fill="#b84137"/>
        <path id="Trazado_135019" data-name="Trazado 135019" d="M41.616,191.72c.022-.954,0-1.913.076-2.863a2.715,2.715,0,0,1,5.424,0c.079.95.054,1.909.076,2.863.632.861.427,1.852.441,2.809.085,3.675,0,7.352.043,11.027.021,1.871.163,1.934,2.053,2.044s3.845-.428,5.682.443a7.985,7.985,0,0,1,.041,5.566,2.381,2.381,0,0,1-2.883-.017h-5.4a6.445,6.445,0,0,1-5.44,0l-.106-19.141a2.347,2.347,0,0,1,0-2.736" transform="translate(-14.605 -66.066)" fill="#744630"/>
        <path id="Trazado_135020" data-name="Trazado 135020" d="M121.725,191.72c.022-.954,0-1.913.076-2.863a2.715,2.715,0,0,1,5.424,0c.079.95.054,1.909.076,2.863a2.346,2.346,0,0,1,0,2.736q-.052,9.57-.106,19.141a6.445,6.445,0,0,1-5.44,0h-5.4a2.421,2.421,0,0,1-2.864.048,8.147,8.147,0,0,1-.021-5.554c1.53-.907,3.212-.434,4.824-.478,2.955-.081,2.947-.025,2.961-3.026.015-3.345-.054-6.691.035-10.037.01-.963-.194-1.96.443-2.825" transform="translate(-40.073 -66.066)" fill="#744630"/>
        <path id="Trazado_135021" data-name="Trazado 135021" d="M135.164,164.387q0-1.368,0-2.736a7,7,0,0,1,1.022.018c1.418.225,1.68-.465,1.678-1.745q-.056-29.154-.033-58.307c.227-.017.456-.017.679-.055,1.567-.266,2.112.232,2.106,1.962q-.1,29.506-.01,59.013c0,1.48-.324,2.062-1.867,1.883a31.807,31.807,0,0,0-3.579-.034" transform="translate(-47.94 -35.998)" fill="#c2c2c2"/>
        <path id="Trazado_135022" data-name="Trazado 135022" d="M160.5,118.487h32.751c0,.057.006.114.006.17.024,3.036.181,2.579-2.492,2.585q-13.8.025-27.609,0c-2.878-.007-2.692.539-2.656-2.752" transform="translate(-56.921 -42.025)" fill="#c28225"/>
        <path id="Trazado_135023" data-name="Trazado 135023" d="M126.569,228.609l5.44,0v5.441h-5.357l-.083-5.445" transform="translate(-44.891 -81.083)" fill="#5b3726"/>
        <path id="Trazado_135024" data-name="Trazado 135024" d="M42.026,228.612l5.44,0-.083,5.445H42.026v-5.441" transform="translate(-14.906 -81.082)" fill="#5b3726"/>
        <path id="Trazado_135025" data-name="Trazado 135025" d="M38.852,194.714l0,2.736a31.842,31.842,0,0,0-3.52.033c-1.565.177-2.148-.412-1.895-1.931a8.363,8.363,0,0,0,.057-.835l5.354,0" transform="translate(-11.84 -69.061)" fill="#c2c2c2"/>
        <path id="Trazado_135026" data-name="Trazado 135026" d="M127.292,59.652H105.487q1.092-12.145,2.187-24.291c.138-1.528.347-3.052.431-4.584.046-.842.288-1.174,1.2-1.165q7.086.066,14.172,0c.911-.008,1.124.33,1.2,1.165.629,7.135,1.305,14.267,1.961,21.4.229,2.491.439,4.983.659,7.474" transform="translate(-37.414 -10.503)" fill="#eaeaea"/>
        <path id="Trazado_135027" data-name="Trazado 135027" d="M95.561,212.326q-.027,2.718-.054,5.436a2.082,2.082,0,0,1-2.686.043l-5.481-.056c-.7-.829-.467-1.833-.507-2.78-.032-.738-.005-1.478-.007-2.216-.007-2.537-.993-3.247-3.5-2.6-.811.21-.891.776-.911,1.418-.043,1.364,0,2.728-.023,4.091a2.875,2.875,0,0,1-.519,2.095H76.423c-.709-.825-.48-1.829-.518-2.777-.03-.738,0-1.477-.007-2.216-.006-2.554-.963-3.249-3.487-2.614-.811.2-.9.762-.923,1.409-.041,1.364,0,2.728-.024,4.091a2.89,2.89,0,0,1-.507,2.1l-5.481.056a2.081,2.081,0,0,1-2.685-.043l-.054-5.436a27.165,27.165,0,0,1,.019-11.683c.288-1.334,1.572-2,2.892-2.366a12.1,12.1,0,0,1,2.705-.164q10.781-.007,21.562,0a11.273,11.273,0,0,1,2.7.172,4.72,4.72,0,0,1,3.438,5.017c-.012,2.312.006,4.622-.005,6.934a2.986,2.986,0,0,1-.492,2.09" transform="translate(-22.029 -70.265)" fill="#db4d41"/>
        <path id="Trazado_135028" data-name="Trazado 135028" d="M92.73,224.039c0-2.273.046-4.546-.012-6.817-.026-1.047.356-1.349,1.382-1.376,4.1-.108,4.1-.141,4.1,3.923q0,2.131-.005,4.261l-2.724.075-2.741-.066" transform="translate(-32.885 -76.545)" fill="#c6463b"/>
        <path id="Trazado_135029" data-name="Trazado 135029" d="M75.806,224.03c0-2.273.039-4.546-.023-6.817-.029-1.059.377-1.34,1.391-1.366,4.092-.105,4.091-.137,4.092,3.931q0,2.131.006,4.261l-2.741.065-2.724-.075" transform="translate(-26.878 -76.546)" fill="#c6463b"/>
        <path id="Trazado_135030" data-name="Trazado 135030" d="M109.7,228.607l2.686-.043,2.8.028q-.042,2.723-.084,5.445h-5.357q-.02-2.715-.041-5.431" transform="translate(-38.908 -81.067)" fill="#5b3726"/>
        <path id="Trazado_135031" data-name="Trazado 135031" d="M61.627,228.564l2.686.043q-.021,2.715-.042,5.431H58.914l-.083-5.445,2.8-.028" transform="translate(-20.866 -81.067)" fill="#5b3726"/>
        <path id="Trazado_135032" data-name="Trazado 135032" d="M63.223,126.716a8.767,8.767,0,0,1,8.822-8.185q7.5-.052,14.993,0a8.772,8.772,0,0,1,8.824,8.185,2.862,2.862,0,0,1-2.25.547q-14.069.024-28.138,0a2.867,2.867,0,0,1-2.251-.547" transform="translate(-22.424 -42.031)" fill="#70400e"/>
        <path id="Trazado_135033" data-name="Trazado 135033" d="M95.862,169.027a8.774,8.774,0,0,1-8.825,8.184q-7.5.055-14.991,0a8.774,8.774,0,0,1-8.822-8.185,2.863,2.863,0,0,1,2.25-.547q14.07-.024,28.138,0a2.86,2.86,0,0,1,2.25.547" transform="translate(-22.424 -59.752)" fill="#70400e"/>
        <path id="Trazado_135034" data-name="Trazado 135034" d="M58.892,149.226a2.669,2.669,0,0,1,1.535-2.287c1.824-.922,3.662-1.816,5.487-2.736a2.836,2.836,0,0,1,3.057.364c2.38,1.674,4.686,1.847,7.086.034a3.275,3.275,0,0,1,3.982,0c.144.09.319.136.452.237a4.527,4.527,0,0,0,6,0,4.04,4.04,0,0,1,4.911-.039c1.305.794,2.745,1.364,4.091,2.1a2.668,2.668,0,0,1,1.32,3.714,2.522,2.522,0,0,1-3.754,1.1c-2.808-1.868-5.407-2.1-8.178,0a2.748,2.748,0,0,1-3.355-.256c-2.321-1.633-4.566-1.869-6.932-.056a3.417,3.417,0,0,1-4.142.025c-.723-.443-1.547-.724-2.269-1.169a1.932,1.932,0,0,0-2.2-.014,26.187,26.187,0,0,1-3.361,1.649,2.732,2.732,0,0,1-3.731-2.66" transform="translate(-20.888 -51.04)" fill="#e99c2d"/>
        <path id="Trazado_135035" data-name="Trazado 135035" d="M88.716,197.51H61.341c-3.116.862-6.3.395-9.452.453a1.794,1.794,0,0,1-1.4-.512q0-1.368,0-2.736H99.56q0,1.368,0,2.736a1.438,1.438,0,0,1-1.059.474c-3.267-.015-6.558.486-9.788-.415" transform="translate(-17.908 -69.061)" fill="#c2c2c2"/>
        <path id="Trazado_135036" data-name="Trazado 135036" d="M95.818,167.832H63.179a4.8,4.8,0,0,1-.065-.5c-.062-2.228-.061-2.229,2.238-2.229H93.3c2.7,0,2.7,0,2.513,2.734" transform="translate(-22.379 -58.557)" fill="#5b3726"/>
        <path id="Trazado_135037" data-name="Trazado 135037" d="M63.186,131.229H95.825a4.633,4.633,0,0,1,.066.5c.062,2.229.061,2.229-2.237,2.229H65.7c-2.7,0-2.7,0-2.515-2.734" transform="translate(-22.387 -46.544)" fill="#5b3726"/>
        <path id="Trazado_135038" data-name="Trazado 135038" d="M173.18,174.715c0-5.231.163-5.393,5.468-5.392.965,0,1.935-.05,2.9.017A2.639,2.639,0,0,1,184.1,172a2.686,2.686,0,0,1-2.619,2.784c-.056,0-.114,0-.17,0-2.5.136-2.5.136-2.673,2.748a2.728,2.728,0,1,1-5.455-.092c-.035-.907-.006-1.817-.007-2.726" transform="translate(-61.419 -60.049)" fill="#bc8f6f"/>
        <path id="Trazado_135039" data-name="Trazado 135039" d="M50.451,198.953l10.849.06a4.237,4.237,0,0,0-2.726,4.414c.076,3.064.008,6.132,0,9.2-2.264,0-4.529-.04-6.791.01-.966.021-1.427-.179-1.407-1.291.074-4.129.057-8.26.075-12.391" transform="translate(-17.867 -70.564)" fill="#e99c2d"/>
        <path id="Trazado_135040" data-name="Trazado 135040" d="M109.725,199.013l10.847-.06c.017,4.131,0,8.262.075,12.391.02,1.112-.442,1.313-1.407,1.291-2.263-.05-4.528-.012-6.791-.01-.006-2.887-.1-5.777.008-8.659.086-2.272-.614-3.967-2.732-4.954" transform="translate(-38.917 -70.564)" fill="#e99c2d"/>
      </g>
    </g>
  </g>
</svg>
