<svg xmlns="http://www.w3.org/2000/svg" xmlns:xlink="http://www.w3.org/1999/xlink" width="190" height="122" viewBox="0 0 190 122">
  <defs>
    <clipPath id="clip-path">
      <rect id="Rect치ngulo_38042" data-name="Rect치ngulo 38042" width="96.061" height="120.063" fill="none"/>
    </clipPath>
  </defs>
  <g id="Grupo_158832" data-name="Grupo 158832" transform="translate(-705 -6507)">
    <g id="Grupo_158202" data-name="Grupo 158202" transform="translate(392 3904)">
      <rect id="Rect치ngulo_36141" data-name="Rect치ngulo 36141" width="190" height="122" transform="translate(313 2603)" fill="#ffdfe0"/>
    </g>
    <g id="Grupo_158831" data-name="Grupo 158831" transform="translate(752 6508)">
      <g id="Grupo_158830" data-name="Grupo 158830" clip-path="url(#clip-path)">
        <path id="Trazado_135041" data-name="Trazado 135041" d="M18.434,36.513c.7-1.7.7-1.7-.778-2.792-4.378-3.224-6-8.369-4.168-14.174C15.718,12.461,20.205,7.392,27.34,4.862a18.7,18.7,0,0,0,3.246-1.435C36.161.145,42.014.1,48.011,1.889a3.867,3.867,0,0,0,2.9-.121C55.162-.078,59.656-.18,64.183.143c6.967.5,13.7,2.283,20.512,3.677a17.214,17.214,0,0,0,4.629.435,2.975,2.975,0,0,1,3.354,2.418c1.008,3.556-.888,8.91-4.263,10.361-.871-.057-1.467-.683-2.183-1.058-1.483-.778-2.9-1.7-4.693-1.622a2.716,2.716,0,0,0-2.476,1.509,24.165,24.165,0,0,0-1.851,5.455,21.353,21.353,0,0,1-1.761,4.706,8.391,8.391,0,0,1-5.33,4.4c-1.4.373-1.334.425-1.2,1.885A50.884,50.884,0,0,0,75.59,52.58,5.261,5.261,0,0,1,76.6,55.048c3.537,6.24,7.718,12.064,11.646,18.051,2.738,4.174,5.491,8.342,7.285,13.045a17.909,17.909,0,0,1,1.157,4.5,9.076,9.076,0,0,1-2.451,7.448,7.878,7.878,0,0,0-2.727,3.052,1.48,1.48,0,0,1-1.423.782,16.012,16.012,0,0,1-3.9-.386,49.859,49.859,0,0,1-9.313-2.651,5.871,5.871,0,0,1-2.707-2.031c-3.2-4.558-6.333-9.154-9.113-13.983-.494-.9-.988-1.792-1.532-2.661A50.313,50.313,0,0,1,58.407,67.66a28.835,28.835,0,0,0-5.073-10,3.772,3.772,0,0,1-.811-1.215,10.19,10.19,0,0,0-4.084-3.935,20.424,20.424,0,0,0-3.2-1.557,19.886,19.886,0,0,1-5.805-3.644c-2.808-2.5-3.457-5.736-2.909-9.3.51-3.324,1.7-6.5,2.167-9.838a11.817,11.817,0,0,0-2.87-10.157,2.567,2.567,0,0,0-.949-.759,1.133,1.133,0,0,0-1.44.314.989.989,0,0,0,.148,1.342,11.56,11.56,0,0,1,2.351,3.572c.164.456.44.974.024,1.387s-.927.117-1.368-.086a32.541,32.541,0,0,1-5.425-3.122c-.233-.167-.459-.344-.7-.5a1.125,1.125,0,0,0-1.65.124c-.533.655-.239,1.259.323,1.706a25.175,25.175,0,0,0,2.706,1.918,29.044,29.044,0,0,0,5.282,2.606c.757.265,1.285.642,1.182,1.6-.093.853-.467,1.242-1.326,1.252-6.116.075-11.343-1.848-15.254-6.75a11.438,11.438,0,0,0-.771-.957,1.072,1.072,0,0,0-1.538-.193,1.048,1.048,0,0,0-.271,1.517c.257.46.683.831.747,1.395-.494,2.828.639,5.383,1.336,8.013.137.518.33.548.757.243,1.475-1.053,2.233-1.11,2.968-.289.768.86.553,1.845-.663,3.089a4.6,4.6,0,0,1-2.109,1.414c-.608.152-1.283.392-1.746-.333" transform="translate(-4.332 0)" fill="#594472"/>
        <path id="Trazado_135042" data-name="Trazado 135042" d="M51.161,83.123a29.96,29.96,0,0,1,6.361,12.245,52.36,52.36,0,0,0,4.768,11.57c.106.622-.4.843-.767,1.137a79.635,79.635,0,0,1-11.7,7.408c-.716.394-1.457.742-2.167,1.151-1.136.654-1.568.564-2.389-.507-2.885-3.768-5.664-7.617-8.487-11.432-.949-1.282-1.922-2.547-2.839-3.854-.448-.637-1-1.234-1.819-.683-.869.586-.522,1.365-.052,2.043,1.351,1.95,2.789,3.839,4.192,5.752,1.21,1.649,2.462,3.268,3.64,4.941a2.14,2.14,0,0,1,.644,1.541,33.3,33.3,0,0,1-4.177,5.586,49.683,49.683,0,0,1-8.149,8.3c-.621.471-1.261.908-1.9,1.349a4.612,4.612,0,0,1-4.063.687c-2.97-.793-6.06-.928-9.086-1.431a16.862,16.862,0,0,1-3.554-.933c-.607-.245-1.238-.5-1.262-1.314.9-2.313,1.292-4.768,2-7.136A125.907,125.907,0,0,1,16.6,102.3a64,64,0,0,1,7.524-12.565c1.361-1.743,3-3.22,4.431-4.894a13.632,13.632,0,0,1,3.93-3.065,18.033,18.033,0,0,1,8.371-2.948A11.469,11.469,0,0,1,50.812,82.5a.985.985,0,0,1,.35.627" transform="translate(-2.838 -26.757)" fill="#fedace"/>
        <path id="Trazado_135043" data-name="Trazado 135043" d="M83.343,125.244c2.728,4.413,5.587,8.74,8.5,13.034a7.777,7.777,0,0,0,4.021,3.191,50.63,50.63,0,0,0,11.518,2.733,2.06,2.06,0,0,0,2.413-1.321,3.26,3.26,0,0,1,2.556-2.231,3.914,3.914,0,0,1,2.483.909c5.166,3.854,4.835,10.522-.663,14.02a26.486,26.486,0,0,1-5.734,2.362,3.457,3.457,0,0,1-2.169.732,65.172,65.172,0,0,1-14.8.659c-2.884-.207-5.6-.627-8.033-2.271a23.174,23.174,0,0,1-4.567-4.611c-2.686-3.2-5.17-6.568-7.836-9.785-1.481-2.337-3.311-4.416-4.963-6.628.376-.832,1.233-1.019,1.935-1.368A116.1,116.1,0,0,0,80.3,127.481a32.764,32.764,0,0,1,3.048-2.237" transform="translate(-22.45 -42.559)" fill="#fe8b82"/>
        <path id="Trazado_135044" data-name="Trazado 135044" d="M43.67,138.565c.183.075.434.1.538.231q2.075,2.677,4.1,5.389a2.922,2.922,0,0,1,.287.788c.139.6-.358.861-.675,1.188-1.38,1.424-2.812,2.8-4.184,4.23a51.106,51.106,0,0,1-15.394,9.952c-4.2,1.672-8.4,2.171-12.768.358A73.292,73.292,0,0,1,5.317,156a4.027,4.027,0,0,1-1.74-1.674,2.933,2.933,0,0,0-1.28-1.077A3.808,3.808,0,0,1,0,149.413a6.713,6.713,0,0,1,1.6-4.26c1.26-1.511,2.4-1.548,3.913-.155,1.179,1.522,3,1.575,4.637,1.88,3.486.651,7.056.8,10.5,1.75a2.206,2.206,0,0,0,1.643-.343,28.385,28.385,0,0,0,7.227-5.843,93.055,93.055,0,0,0,8.035-9.745c.623-.142.863.359,1.15.724.759.963,1.517,1.93,2.2,2.943a4.6,4.6,0,0,0,2.765,2.2" transform="translate(0 -45.084)" fill="#fe7171"/>
        <path id="Trazado_135045" data-name="Trazado 135045" d="M105.251,62.206c-3.236-5.629-6.01-11.452-7.287-17.873-.382-1.922-.575-3.881-.872-5.82-.091-.6.106-.923.72-1.026,3.708-.625,5.723-3.107,6.9-6.426.56-1.577.959-3.211,1.443-4.817.235-.782.446-1.577.753-2.332,1.1-2.716,2.736-3.432,5.48-2.385a19.417,19.417,0,0,1,4.682,2.667,13.675,13.675,0,0,1,.632,5.866c-.437.325-.87.081-1.282-.042a24.309,24.309,0,0,0-3.133-.549,2.1,2.1,0,0,0-1.538.244,1.08,1.08,0,0,0-.487,1.168.933.933,0,0,0,.963.779,19.5,19.5,0,0,1,3.5.578c.438.12,1.007.139,1.07.8-.29,1.32-1.1,2.5-1.072,3.9-.7.475-1.331,0-1.967-.18-.764-.219-1.525-.36-1.852.558-.3.843.353,1.274,1,1.573a5.539,5.539,0,0,0,3.442.55,32.268,32.268,0,0,0,2.34,5.225,2.03,2.03,0,0,1-.322,2.678,14.644,14.644,0,0,0-2.551,3.413,4.071,4.071,0,0,1-2.683-.6,3.315,3.315,0,0,0-.992-.457,1.046,1.046,0,0,0-1.239.539,1.09,1.09,0,0,0,.244,1.342,5.2,5.2,0,0,0,2.2,1.253c.489.173,1.052.184,1.444.595-.555,2.046-1.058,4.108-1.676,6.134-.885,2.9-1.553,3.627-5.454,3.092-.807-.111-1.6-.3-2.405-.447" transform="translate(-32.986 -7.158)" fill="#fe8b82"/>
        <path id="Trazado_135046" data-name="Trazado 135046" d="M44.241,64.894c-4.286.415-7.862,2.418-11.186,4.99-.351.271-.739.493-1.11.737-.851.078-1.7.191-2.552.227a4.863,4.863,0,0,1-4.755-2.838,29.168,29.168,0,0,1-2.088-5.472c.559-.563,1.384-.419,2.031-.769a7.916,7.916,0,0,0,1.829-1.227,1.166,1.166,0,0,0,.283-1.643c-.465-.643-1.054-.494-1.627-.131a6.066,6.066,0,0,1-3.5,1.312A22.394,22.394,0,0,0,19.416,56.7a4.615,4.615,0,0,1-.3-5.563c.4-.7.809-1.395,1.214-2.091,1.743.47,4.375-1.105,4.671-2.816a1.471,1.471,0,0,0-2.475-1.274c-1.379,1.244-1.374,1.237-1.847-.476-.585-2.117-1.555-4.157-1.289-6.442.045-.388-.137-.834.259-1.144a2.654,2.654,0,0,1,1.338,1.027c3.912,4.3,8.971,5.939,14.581,6.284,1.515.093,1.751.377,1.426,1.918a33.982,33.982,0,0,0-1.032,6.281c-.117,5.272,2.448,8.9,6.92,11.39.508.282,1.212.355,1.357,1.1" transform="translate(-6.228 -12.538)" fill="#fe8b82"/>
        <path id="Trazado_135047" data-name="Trazado 135047" d="M65.95,156.457l4.923-5.153c1.421.9,2.14,2.41,3.149,3.657,2.487,3.075,4.825,6.276,7.573,9.126a11.993,11.993,0,0,0,8.9,3.7c.974.005,1.946.2,2.921.225a63.409,63.409,0,0,0,14.841-1.219,9,9,0,0,1,.5,2.751,1.816,1.816,0,0,1-1.689,1.909,2.412,2.412,0,0,1-.489.015l-40.617-.018a1.99,1.99,0,0,1-.407-1.493c-.014-3.955-.007-7.91-.007-11.865a2.955,2.955,0,0,1,.4-1.639" transform="translate(-22.274 -51.414)" fill="#feab98"/>
        <path id="Trazado_135048" data-name="Trazado 135048" d="M44.776,159.109q.007,7.5.015,15-19.735.007-39.472.008c-1.578,0-2.306-1.046-2.02-2.628.491-2.72.922-5.451,1.379-8.176a40.582,40.582,0,0,0,16.731,7.219c2.692.52,5.411-.51,7.976-1.516a50.843,50.843,0,0,0,14.81-9.461c.183-.16.386-.3.58-.442" transform="translate(-1.1 -54.067)" fill="#fedace"/>
        <path id="Trazado_135049" data-name="Trazado 135049" d="M123.853,37.181a8.949,8.949,0,0,0-4.244-.939c-.974-.039-1.709-.265-1.753-1.4-.038-.982.574-1.551,1.763-1.565a16.557,16.557,0,0,1,5.146.93c.762.428,1.3.994,1.029,1.947-.283.99-1.091,1.066-1.94,1.027" transform="translate(-40.048 -11.308)" fill="#543c66"/>
        <path id="Trazado_135050" data-name="Trazado 135050" d="M23.227,70.953a18.49,18.49,0,0,0,3.78-1.839c.62-.475,1.27-.126,1.68.46a1.326,1.326,0,0,1-.151,1.87,6.411,6.411,0,0,1-4.322,1.967l-.988-2.457" transform="translate(-7.893 -23.41)" fill="#ec4559"/>
        <path id="Trazado_135051" data-name="Trazado 135051" d="M121.626,67.924A6.51,6.51,0,0,1,117.91,66.5a1.394,1.394,0,0,1-.424-2.047,1.31,1.31,0,0,1,2.02-.4c.947.727,2.109.777,3.146,1.2l-1.027,2.671" transform="translate(-39.825 -21.657)" fill="#ec4559"/>
        <path id="Trazado_135052" data-name="Trazado 135052" d="M123.733,47.22c-.117.4-.434.451-.778.425a7.729,7.729,0,0,1-3.28-.9,1.449,1.449,0,0,1,1.2-2.637,9.382,9.382,0,0,0,2.233.614l.626,2.5" transform="translate(-40.374 -14.94)" fill="#553d66"/>
        <path id="Trazado_135053" data-name="Trazado 135053" d="M44.281,60.959a17.088,17.088,0,0,1-6.121-4.6c-2.615-3.321-2.9-7.092-2.132-11.059.225-1.162.471-2.325.8-3.459.274-.944-.013-1.192-.959-1.229a22.255,22.255,0,0,1-12.12-3.763,18.315,18.315,0,0,1-4.06-3.889c-.265-.36-.514-.735-.8-1.078A1.327,1.327,0,0,1,19.2,29.7c.833-.59,1.475-.3,2.062.474a17.4,17.4,0,0,0,6.3,5.521,20.38,20.38,0,0,0,9.369,1.967c.529-.012.963-.009.981-.745.015-.621.174-1.187-.669-1.428a22.625,22.625,0,0,1-5.511-2.649,33.506,33.506,0,0,1-2.932-2A1.482,1.482,0,1,1,30.6,28.516a34.227,34.227,0,0,0,6.211,3.676c.281.131.586.427.9.17.344-.279.034-.609-.055-.9a8.643,8.643,0,0,0-2.2-3.49c-.679-.69-1.045-1.386-.276-2.229a1.672,1.672,0,0,1,2.415.2,12.217,12.217,0,0,1,3.389,10.679c-.432,3.321-1.579,6.48-2.153,9.772-.763,4.376.454,7.831,4.161,10.452a45.319,45.319,0,0,0,6.816,3.591,17.6,17.6,0,0,1,4.734,3.838c.209.21.423.438.046.694A12.7,12.7,0,0,0,46.477,60.9a13.686,13.686,0,0,0-2.2.055" transform="translate(-6.268 -8.603)" fill="#4c375b"/>
        <path id="Trazado_135054" data-name="Trazado 135054" d="M58.285,130.964a2.268,2.268,0,0,1-2.342-1.12c-1.229-1.6-2.217-3.407-3.777-4.746a37.416,37.416,0,0,0-3.608-5.2c-1.665-2.317-3.382-4.6-5.042-6.917-.74-1.033-.664-1.94.2-2.435,1-.577,1.633-.019,2.231.794,3.818,5.186,7.681,10.339,11.484,15.536a1.072,1.072,0,0,0,1.635.389,108.435,108.435,0,0,0,12.876-7.79,9.6,9.6,0,0,0,2.128-1.808,13.522,13.522,0,0,1,1.441,2.5c-1.444,1.847-3.515,2.892-5.41,4.139-3.78,2.492-7.826,4.525-11.813,6.657" transform="translate(-14.615 -37.483)" fill="#feab98"/>
      </g>
    </g>
  </g>
</svg>
