<svg xmlns="http://www.w3.org/2000/svg" xmlns:xlink="http://www.w3.org/1999/xlink" width="400" height="96" viewBox="0 0 400 96">
  <defs>
    <clipPath id="clip-path">
      <rect id="Rect치ngulo_38040" data-name="Rect치ngulo 38040" width="87.138" height="96" fill="none"/>
    </clipPath>
  </defs>
  <g id="Grupo_159176" data-name="Grupo 159176" transform="translate(-338 -7083)">
    <rect id="Rect치ngulo_36141" data-name="Rect치ngulo 36141" width="400" height="76" transform="translate(338 7093)" fill="#e1e8ff"/>
    <path id="Trazado_137798" data-name="Trazado 137798" d="M2.781,15.117H7.609L7.281,17H.164L2.141,5.625H4.43ZM13.4,17a2.281,2.281,0,0,1-.086-.766,2.863,2.863,0,0,1-2.156.922,2.594,2.594,0,0,1-1.84-.723,2.186,2.186,0,0,1-.684-1.746,2.527,2.527,0,0,1,1.16-2.121,5.266,5.266,0,0,1,2.965-.738l1.031.016.109-.508a1.764,1.764,0,0,0,.023-.492.846.846,0,0,0-.277-.574.955.955,0,0,0-.629-.215,1.345,1.345,0,0,0-.875.254,1.231,1.231,0,0,0-.461.777l-2.211.008a2.457,2.457,0,0,1,1.113-1.965A4.312,4.312,0,0,1,13.2,8.391a3.117,3.117,0,0,1,2.25.855,2.5,2.5,0,0,1,.68,2.121l-.648,4.047-.039.5a2.412,2.412,0,0,0,.133.938L15.563,17Zm-1.7-1.555a2.017,2.017,0,0,0,1.664-.828l.273-1.461-.766-.008a2.139,2.139,0,0,0-1.758.742,1.292,1.292,0,0,0-.242.633.75.75,0,0,0,.176.668A.891.891,0,0,0,11.7,15.445Zm10.1-.828q.125-.625-.867-.906l-.711-.18q-2.523-.7-2.453-2.453a2.428,2.428,0,0,1,1.059-1.949,3.942,3.942,0,0,1,2.457-.738,3.536,3.536,0,0,1,2.313.758,2.5,2.5,0,0,1,.9,1.977l-2.187-.008a.963.963,0,0,0-1.078-1.1,1.552,1.552,0,0,0-.895.258,1.061,1.061,0,0,0-.465.7q-.117.625.945.883l.313.07a6.285,6.285,0,0,1,1.648.59,2.488,2.488,0,0,1,.879.824,2.04,2.04,0,0,1,.285,1.18,2.251,2.251,0,0,1-.52,1.406,3.18,3.18,0,0,1-1.359.93,4.736,4.736,0,0,1-1.816.3,3.568,3.568,0,0,1-2.344-.809,2.607,2.607,0,0,1-.953-2.051l2.078.016a1.142,1.142,0,0,0,1.3,1.227,1.845,1.845,0,0,0,1-.25A.987.987,0,0,0,21.8,14.617ZM29.43,6.469l-.367,2.078h1.406L30.18,10.2H28.773l-.719,4.234a1.077,1.077,0,0,0,.063.609q.109.211.531.227.125.008.672-.039l-.156,1.727a3.706,3.706,0,0,1-1.266.18,1.985,1.985,0,0,1-1.617-.68,2.456,2.456,0,0,1-.437-1.8L26.57,10.2h-1.2l.289-1.656h1.2l.359-2.078Zm8.281,2.07-.187,1a3.042,3.042,0,0,1,2.461-1.148,2.028,2.028,0,0,1,1.766.875,3.526,3.526,0,0,1,.414,2.359L41.273,17h-2.2l.906-5.4a2.528,2.528,0,0,0,.016-.555.9.9,0,0,0-1-.82,1.9,1.9,0,0,0-1.555.8L36.383,17h-2.2l1.469-8.453ZM45.328,17H43.109l1.469-8.453H46.8ZM44.836,6.4a1.1,1.1,0,0,1,.344-.867,1.323,1.323,0,0,1,1.734-.039,1.1,1.1,0,0,1,.383.828,1.132,1.132,0,0,1-.324.844,1.215,1.215,0,0,1-.887.375,1.235,1.235,0,0,1-.863-.3A1.091,1.091,0,0,1,44.836,6.4Zm2.781,6.367a5.849,5.849,0,0,1,1.277-3.184,3.242,3.242,0,0,1,2.629-1.2,2.37,2.37,0,0,1,2.016.977l.289-.82,2.023.008-1.383,8.164a3.983,3.983,0,0,1-1.437,2.672,4.471,4.471,0,0,1-3,.953,4.168,4.168,0,0,1-1.672-.379,3.575,3.575,0,0,1-1.312-1l1.094-1.344a2.349,2.349,0,0,0,1.844.961,2.166,2.166,0,0,0,1.469-.449,2.4,2.4,0,0,0,.828-1.355l.125-.508a2.749,2.749,0,0,1-2.07.891,2.428,2.428,0,0,1-1.961-.918,3.947,3.947,0,0,1-.8-2.348A7.89,7.89,0,0,1,47.617,12.766Zm2.164.927a2.02,2.02,0,0,0,.309,1.178,1.08,1.08,0,0,0,.895.466,1.972,1.972,0,0,0,1.594-.767l.656-3.583a1.3,1.3,0,0,0-1.242-.767,1.728,1.728,0,0,0-1.43.681,3.561,3.561,0,0,0-.734,1.87A8.214,8.214,0,0,0,49.781,13.693Zm9.711-4.208a2.946,2.946,0,0,1,2.289-1.094,2.143,2.143,0,0,1,1.848.9,3.548,3.548,0,0,1,.441,2.379L63.18,17h-2.2l.9-5.358a2.6,2.6,0,0,0,.016-.563.885.885,0,0,0-.984-.868,1.9,1.9,0,0,0-1.562.766L58.281,17h-2.2L58.156,5h2.211Zm9.875-3.016L69,8.547h1.406L70.117,10.2H68.711l-.719,4.234a1.077,1.077,0,0,0,.063.609q.109.211.531.227.125.008.672-.039L69.1,16.961a3.706,3.706,0,0,1-1.266.18,1.985,1.985,0,0,1-1.617-.68,2.456,2.456,0,0,1-.437-1.8l.727-4.461h-1.2L65.6,8.547h1.2l.359-2.078ZM81.8,13.922,83.8,8.547H86L82.445,17H80.6l-.625-5.289L77.508,17H75.664l-.625-8.453H77.1l.133,5.32,2.414-5.32h1.594Zm7.867,3.234a3.677,3.677,0,0,1-1.965-.543,3.292,3.292,0,0,1-1.277-1.469,4.093,4.093,0,0,1-.328-2.059l.023-.312a5.465,5.465,0,0,1,.719-2.266,4.341,4.341,0,0,1,1.547-1.59,3.827,3.827,0,0,1,2.094-.527,2.924,2.924,0,0,1,2.473,1.2,4.117,4.117,0,0,1,.637,2.962l-.125.962h-5.18a1.814,1.814,0,0,0,.4,1.313,1.521,1.521,0,0,0,1.172.508,2.7,2.7,0,0,0,2.109-.937l1.008,1.25a3.135,3.135,0,0,1-1.375,1.121A4.5,4.5,0,0,1,89.664,17.156Zm.7-6.945a1.565,1.565,0,0,0-1.082.383,3.363,3.363,0,0,0-.848,1.383h3.031l.047-.2a2.071,2.071,0,0,0,.008-.594,1.134,1.134,0,0,0-.383-.707A1.2,1.2,0,0,0,90.367,10.211ZM105.7,13.922,107.7,8.547h2.2L106.344,17H104.5l-.625-5.289L101.406,17H99.563l-.625-8.453H101l.133,5.32,2.414-5.32h1.594Zm7.867,3.234a3.677,3.677,0,0,1-1.965-.543,3.292,3.292,0,0,1-1.277-1.469,4.093,4.093,0,0,1-.328-2.059l.023-.312a5.465,5.465,0,0,1,.719-2.266,4.341,4.341,0,0,1,1.547-1.59,3.827,3.827,0,0,1,2.094-.527,2.924,2.924,0,0,1,2.473,1.2,4.117,4.117,0,0,1,.637,2.962l-.125.962h-5.18a1.814,1.814,0,0,0,.4,1.313,1.521,1.521,0,0,0,1.172.508,2.7,2.7,0,0,0,2.109-.937l1.008,1.25a3.135,3.135,0,0,1-1.375,1.121A4.5,4.5,0,0,1,113.563,17.156Zm.7-6.945a1.565,1.565,0,0,0-1.082.383,3.363,3.363,0,0,0-.848,1.383h3.031l.047-.2a2.071,2.071,0,0,0,.008-.594,1.134,1.134,0,0,0-.383-.707A1.2,1.2,0,0,0,114.266,10.211ZM121.5,8.539l-.187,1a3.042,3.042,0,0,1,2.461-1.148,2.028,2.028,0,0,1,1.766.875,3.526,3.526,0,0,1,.414,2.359L125.063,17h-2.2l.906-5.4a2.528,2.528,0,0,0,.016-.555.9.9,0,0,0-1-.82,1.9,1.9,0,0,0-1.555.8L120.172,17h-2.2l1.469-8.453Zm9.758-2.07-.367,2.078H132.3l-.289,1.656H130.6l-.719,4.234a1.077,1.077,0,0,0,.063.609q.109.211.531.227.125.008.672-.039l-.156,1.727a3.706,3.706,0,0,1-1.266.18,1.985,1.985,0,0,1-1.617-.68,2.456,2.456,0,0,1-.437-1.8L128.4,10.2h-1.2l.289-1.656h1.2l.359-2.078Zm9.266,0-.367,2.078h1.406l-.289,1.656h-1.406l-.719,4.234a1.077,1.077,0,0,0,.063.609q.109.211.531.227.125.008.672-.039l-.156,1.727a3.706,3.706,0,0,1-1.266.18,1.985,1.985,0,0,1-1.617-.68,2.456,2.456,0,0,1-.437-1.8l.727-4.461h-1.2l.289-1.656h1.2l.359-2.078Zm5.453,1.922a3.39,3.39,0,0,1,1.926.574A3.234,3.234,0,0,1,149.09,10.5a4.761,4.761,0,0,1,.27,2.176,5.143,5.143,0,0,1-1.4,3.262,3.96,3.96,0,0,1-3.02,1.215,3.38,3.38,0,0,1-1.906-.566,3.222,3.222,0,0,1-1.187-1.527,4.657,4.657,0,0,1-.273-2.156,5.3,5.3,0,0,1,1.422-3.328A3.878,3.878,0,0,1,145.977,8.391Zm-2.227,5.315a1.951,1.951,0,0,0,.352,1.182,1.168,1.168,0,0,0,.945.449,1.712,1.712,0,0,0,1.594-.932,4.646,4.646,0,0,0,.539-2.531,2.122,2.122,0,0,0-.363-1.2,1.149,1.149,0,0,0-.949-.464,1.715,1.715,0,0,0-1.574.924A4.6,4.6,0,0,0,143.75,13.706Zm17.016.951H156.8L155.625,17H153.1L159.18,5.625H161.3L163.461,17h-2.336Zm-3.031-1.9h2.742l-.641-4.234Zm9.836-4.219-.187,1a3.042,3.042,0,0,1,2.461-1.148,2.028,2.028,0,0,1,1.766.875,3.526,3.526,0,0,1,.414,2.359L171.133,17h-2.2l.906-5.4a2.527,2.527,0,0,0,.016-.555.9.9,0,0,0-1-.82,1.9,1.9,0,0,0-1.555.8L166.242,17h-2.2l1.469-8.453ZM177.75,17a2.281,2.281,0,0,1-.086-.766,2.863,2.863,0,0,1-2.156.922,2.594,2.594,0,0,1-1.84-.723,2.186,2.186,0,0,1-.684-1.746,2.527,2.527,0,0,1,1.16-2.121,5.266,5.266,0,0,1,2.965-.738l1.031.016.109-.508a1.764,1.764,0,0,0,.023-.492A.846.846,0,0,0,178,10.27a.955.955,0,0,0-.629-.215,1.345,1.345,0,0,0-.875.254,1.231,1.231,0,0,0-.461.777l-2.211.008a2.457,2.457,0,0,1,1.113-1.965,4.312,4.312,0,0,1,2.613-.738,3.117,3.117,0,0,1,2.25.855,2.5,2.5,0,0,1,.68,2.121l-.648,4.047-.039.5a2.412,2.412,0,0,0,.133.938l-.008.148Zm-1.7-1.555a2.017,2.017,0,0,0,1.664-.828l.273-1.461-.766-.008a2.139,2.139,0,0,0-1.758.742,1.292,1.292,0,0,0-.242.633.75.75,0,0,0,.176.668A.891.891,0,0,0,176.055,15.445Zm7.273-6.312-1.117-.656a6.183,6.183,0,0,0,1.008-2.031L183.477,5h1.758l-.18,1.156A4.806,4.806,0,0,1,183.328,9.133Zm4.523,5.484q.125-.625-.867-.906l-.711-.18q-2.523-.7-2.453-2.453a2.428,2.428,0,0,1,1.059-1.949,3.942,3.942,0,0,1,2.457-.738,3.536,3.536,0,0,1,2.313.758,2.5,2.5,0,0,1,.9,1.977l-2.187-.008a.963.963,0,0,0-1.078-1.1,1.552,1.552,0,0,0-.895.258,1.061,1.061,0,0,0-.465.7q-.117.625.945.883l.313.07a6.285,6.285,0,0,1,1.648.59,2.488,2.488,0,0,1,.879.824,2.04,2.04,0,0,1,.285,1.18,2.251,2.251,0,0,1-.52,1.406,3.18,3.18,0,0,1-1.359.93,4.736,4.736,0,0,1-1.816.3,3.568,3.568,0,0,1-2.344-.809A2.607,2.607,0,0,1,183,14.3l2.078.016a1.142,1.142,0,0,0,1.3,1.227,1.845,1.845,0,0,0,1-.25A.987.987,0,0,0,187.852,14.617Zm10.461-5.133A2.946,2.946,0,0,1,200.6,8.391a2.143,2.143,0,0,1,1.848.9,3.548,3.548,0,0,1,.441,2.379L202,17h-2.2l.9-5.358a2.6,2.6,0,0,0,.016-.563.885.885,0,0,0-.984-.868,1.9,1.9,0,0,0-1.562.766L197.1,17h-2.2l2.078-12h2.211Zm10.242-1.094a3.39,3.39,0,0,1,1.926.574,3.234,3.234,0,0,1,1.188,1.539,4.761,4.761,0,0,1,.27,2.176,5.143,5.143,0,0,1-1.4,3.262,3.96,3.96,0,0,1-3.02,1.215,3.38,3.38,0,0,1-1.906-.566,3.222,3.222,0,0,1-1.187-1.527,4.657,4.657,0,0,1-.273-2.156,5.3,5.3,0,0,1,1.422-3.328A3.878,3.878,0,0,1,208.555,8.391Zm-2.227,5.315a1.951,1.951,0,0,0,.352,1.182,1.168,1.168,0,0,0,.945.449,1.712,1.712,0,0,0,1.594-.932,4.646,4.646,0,0,0,.539-2.531,2.122,2.122,0,0,0-.363-1.2,1.149,1.149,0,0,0-.949-.464,1.715,1.715,0,0,0-1.574.924A4.6,4.6,0,0,0,206.328,13.706ZM217.8,16.125a2.919,2.919,0,0,1-2.328,1.031,2.172,2.172,0,0,1-1.844-.875,3.2,3.2,0,0,1-.484-2.266l.914-5.469h2.2l-.93,5.5a2.175,2.175,0,0,0-.008.485.8.8,0,0,0,.867.806,2.014,2.014,0,0,0,1.7-.79l1.055-6h2.219L219.7,17h-2.055Zm8.43-1.508q.125-.625-.867-.906l-.711-.18q-2.523-.7-2.453-2.453a2.428,2.428,0,0,1,1.059-1.949,3.942,3.942,0,0,1,2.457-.738,3.536,3.536,0,0,1,2.313.758,2.5,2.5,0,0,1,.9,1.977l-2.187-.008a.963.963,0,0,0-1.078-1.1,1.552,1.552,0,0,0-.895.258,1.061,1.061,0,0,0-.465.7q-.117.625.945.883l.313.07a6.285,6.285,0,0,1,1.648.59,2.488,2.488,0,0,1,.879.824,2.04,2.04,0,0,1,.285,1.18,2.251,2.251,0,0,1-.52,1.406,3.18,3.18,0,0,1-1.359.93,4.736,4.736,0,0,1-1.816.3,3.568,3.568,0,0,1-2.344-.809,2.607,2.607,0,0,1-.953-2.051l2.078.016a1.142,1.142,0,0,0,1.3,1.227,1.845,1.845,0,0,0,1-.25A.987.987,0,0,0,226.234,14.617Zm7.172,2.539a3.677,3.677,0,0,1-1.965-.543,3.292,3.292,0,0,1-1.277-1.469,4.093,4.093,0,0,1-.328-2.059l.023-.312a5.465,5.465,0,0,1,.719-2.266,4.341,4.341,0,0,1,1.547-1.59,3.827,3.827,0,0,1,2.094-.527,2.924,2.924,0,0,1,2.473,1.2,4.117,4.117,0,0,1,.637,2.962l-.125.962h-5.18a1.814,1.814,0,0,0,.4,1.313,1.521,1.521,0,0,0,1.172.508A2.7,2.7,0,0,0,235.7,14.4l1.008,1.25a3.135,3.135,0,0,1-1.375,1.121A4.5,4.5,0,0,1,233.406,17.156Zm.7-6.945a1.565,1.565,0,0,0-1.082.383,3.363,3.363,0,0,0-.848,1.383h3.031l.047-.2a2.071,2.071,0,0,0,.008-.594,1.134,1.134,0,0,0-.383-.707A1.2,1.2,0,0,0,234.109,10.211Zm5.289,4.461a1.22,1.22,0,0,1,.895.324,1.111,1.111,0,0,1,.371.855,1.151,1.151,0,0,1-.344.879,1.323,1.323,0,0,1-1.766.051,1.149,1.149,0,0,1-.375-.852,1.161,1.161,0,0,1,.336-.883A1.238,1.238,0,0,1,239.4,14.672Z" transform="translate(463 7110)" fill="#fc5f65"/>
    <path id="Trazado_137799" data-name="Trazado 137799" d="M6.852,14.656H2.883L1.711,17H-.812L5.266,5.625H7.383L9.547,17H7.211Zm-3.031-1.9H6.563L5.922,8.523Zm9.836-4.219-.187,1A3.042,3.042,0,0,1,15.93,8.391a2.028,2.028,0,0,1,1.766.875,3.526,3.526,0,0,1,.414,2.359L17.219,17h-2.2l.906-5.4a2.528,2.528,0,0,0,.016-.555.9.9,0,0,0-1-.82,1.9,1.9,0,0,0-1.555.8L12.328,17h-2.2l1.469-8.453Zm10.125-.148a3.39,3.39,0,0,1,1.926.574A3.234,3.234,0,0,1,26.895,10.5a4.762,4.762,0,0,1,.27,2.176,5.143,5.143,0,0,1-1.4,3.262,3.96,3.96,0,0,1-3.02,1.215,3.38,3.38,0,0,1-1.906-.566,3.222,3.222,0,0,1-1.187-1.527,4.657,4.657,0,0,1-.273-2.156A5.3,5.3,0,0,1,20.8,9.578,3.878,3.878,0,0,1,23.781,8.391Zm-2.227,5.315a1.95,1.95,0,0,0,.352,1.182,1.168,1.168,0,0,0,.945.449,1.712,1.712,0,0,0,1.594-.932,4.647,4.647,0,0,0,.539-2.531,2.122,2.122,0,0,0-.363-1.2,1.149,1.149,0,0,0-.949-.464,1.715,1.715,0,0,0-1.574.924A4.6,4.6,0,0,0,21.555,13.706ZM31.5,15.344a1.447,1.447,0,0,0,1.016-.332,1.632,1.632,0,0,0,.531-.926l2.07-.008a3.037,3.037,0,0,1-.559,1.6,3.394,3.394,0,0,1-1.344,1.109,3.847,3.847,0,0,1-1.77.375A3.123,3.123,0,0,1,29.008,16.1a3.965,3.965,0,0,1-.867-2.766l.023-.43.008-.086a5.284,5.284,0,0,1,1.391-3.27,3.761,3.761,0,0,1,2.914-1.16,3.047,3.047,0,0,1,2.27.934A3.3,3.3,0,0,1,35.57,11.7H33.516a1.73,1.73,0,0,0-.3-1.07,1.128,1.128,0,0,0-.891-.422q-1.578-.047-1.914,2.3a7.782,7.782,0,0,0-.086,1.438Q30.406,15.32,31.5,15.344Zm7.828-5.859a2.946,2.946,0,0,1,2.289-1.094,2.143,2.143,0,0,1,1.848.9,3.548,3.548,0,0,1,.441,2.379L43.016,17h-2.2l.9-5.358a2.6,2.6,0,0,0,.016-.563.885.885,0,0,0-.984-.868,1.9,1.9,0,0,0-1.562.766L38.117,17h-2.2L37.992,5H40.2Zm9.422,7.672a3.677,3.677,0,0,1-1.965-.543,3.292,3.292,0,0,1-1.277-1.469,4.093,4.093,0,0,1-.328-2.059l.023-.312a5.465,5.465,0,0,1,.719-2.266,4.341,4.341,0,0,1,1.547-1.59,3.827,3.827,0,0,1,2.094-.527,2.924,2.924,0,0,1,2.473,1.2,4.117,4.117,0,0,1,.637,2.962l-.125.962h-5.18a1.814,1.814,0,0,0,.4,1.313,1.521,1.521,0,0,0,1.172.508,2.7,2.7,0,0,0,2.109-.937l1.008,1.25A3.135,3.135,0,0,1,50.68,16.77,4.5,4.5,0,0,1,48.75,17.156Zm.7-6.945a1.565,1.565,0,0,0-1.082.383,3.363,3.363,0,0,0-.848,1.383h3.031l.047-.2a2.071,2.071,0,0,0,.008-.594,1.134,1.134,0,0,0-.383-.707A1.2,1.2,0,0,0,49.453,10.211ZM57.742,17l1.18-6.8H57.7l.289-1.648,1.219-.008L59.32,7.7a3.332,3.332,0,0,1,1.1-2.121,3.334,3.334,0,0,1,2.289-.754,7.33,7.33,0,0,1,1.2.163l-.2,1.751a2.732,2.732,0,0,0-.648-.094,1.615,1.615,0,0,0-1,.3,1.355,1.355,0,0,0-.52.918l-.117.69h1.633L62.766,10.2H61.141L59.961,17Zm10.281-.875A2.919,2.919,0,0,1,65.7,17.156a2.172,2.172,0,0,1-1.844-.875,3.2,3.2,0,0,1-.484-2.266l.914-5.469h2.2l-.93,5.5a2.174,2.174,0,0,0-.008.485.8.8,0,0,0,.867.806,2.014,2.014,0,0,0,1.7-.79l1.055-6h2.219L69.914,17H67.859ZM73.883,17H71.664l1.469-8.453h2.219ZM73.391,6.4a1.1,1.1,0,0,1,.344-.867,1.323,1.323,0,0,1,1.734-.039,1.1,1.1,0,0,1,.383.828,1.132,1.132,0,0,1-.324.844,1.215,1.215,0,0,1-.887.375,1.235,1.235,0,0,1-.863-.3A1.091,1.091,0,0,1,73.391,6.4Zm5.875,2.141-.18.961a3.112,3.112,0,0,1,2.477-1.109,2.379,2.379,0,0,1,1.3.359,1.679,1.679,0,0,1,.7.93A3.255,3.255,0,0,1,86.18,8.391a2.126,2.126,0,0,1,1.754.8,3.271,3.271,0,0,1,.5,2.234l-.016.2L87.516,17H85.3l.9-5.4a3.907,3.907,0,0,0,.023-.54.837.837,0,0,0-.937-.845,1.86,1.86,0,0,0-1.555.97l-.023.18L82.727,17h-2.2l.9-5.383a3.9,3.9,0,0,0,.023-.539.836.836,0,0,0-.93-.852,1.867,1.867,0,0,0-1.508.789L77.953,17h-2.2l1.461-8.453ZM94.1,8.391a3.39,3.39,0,0,1,1.926.574A3.234,3.234,0,0,1,97.215,10.5a4.762,4.762,0,0,1,.27,2.176,5.143,5.143,0,0,1-1.4,3.262,3.96,3.96,0,0,1-3.02,1.215,3.38,3.38,0,0,1-1.906-.566,3.222,3.222,0,0,1-1.187-1.527,4.657,4.657,0,0,1-.273-2.156,5.3,5.3,0,0,1,1.422-3.328A3.878,3.878,0,0,1,94.1,8.391Zm-2.227,5.315a1.95,1.95,0,0,0,.352,1.182,1.168,1.168,0,0,0,.945.449,1.712,1.712,0,0,0,1.594-.932,4.647,4.647,0,0,0,.539-2.531,2.122,2.122,0,0,0-.363-1.2,1.149,1.149,0,0,0-.949-.464,1.715,1.715,0,0,0-1.574.924A4.6,4.6,0,0,0,91.875,13.706Zm11.141.912q.125-.625-.867-.906l-.711-.18q-2.523-.7-2.453-2.453a2.428,2.428,0,0,1,1.059-1.949,3.942,3.942,0,0,1,2.457-.738,3.536,3.536,0,0,1,2.313.758,2.5,2.5,0,0,1,.9,1.977l-2.187-.008a.963.963,0,0,0-1.078-1.1,1.552,1.552,0,0,0-.895.258,1.061,1.061,0,0,0-.465.7q-.117.625.945.883l.313.07a6.285,6.285,0,0,1,1.648.59,2.488,2.488,0,0,1,.879.824,2.04,2.04,0,0,1,.285,1.18,2.251,2.251,0,0,1-.52,1.406,3.18,3.18,0,0,1-1.359.93,4.736,4.736,0,0,1-1.816.3,3.568,3.568,0,0,1-2.344-.809,2.607,2.607,0,0,1-.953-2.051l2.078.016a1.142,1.142,0,0,0,1.3,1.227,1.845,1.845,0,0,0,1-.25A.987.987,0,0,0,103.016,14.617ZM115.008,17a2.281,2.281,0,0,1-.086-.766,2.863,2.863,0,0,1-2.156.922,2.594,2.594,0,0,1-1.84-.723,2.186,2.186,0,0,1-.684-1.746,2.527,2.527,0,0,1,1.16-2.121,5.266,5.266,0,0,1,2.965-.738l1.031.016.109-.508a1.764,1.764,0,0,0,.023-.492.846.846,0,0,0-.277-.574.955.955,0,0,0-.629-.215,1.345,1.345,0,0,0-.875.254,1.231,1.231,0,0,0-.461.777l-2.211.008a2.457,2.457,0,0,1,1.113-1.965,4.312,4.312,0,0,1,2.613-.738,3.117,3.117,0,0,1,2.25.855,2.5,2.5,0,0,1,.68,2.121l-.648,4.047-.039.5a2.412,2.412,0,0,0,.133.938l-.008.148Zm-1.7-1.555a2.017,2.017,0,0,0,1.664-.828l.273-1.461-.766-.008a2.139,2.139,0,0,0-1.758.742,1.292,1.292,0,0,0-.242.633.75.75,0,0,0,.176.668A.891.891,0,0,0,113.313,15.445ZM124.789,17H122.57l2.086-12h2.211Zm6.758,0a2.281,2.281,0,0,1-.086-.766,2.863,2.863,0,0,1-2.156.922,2.594,2.594,0,0,1-1.84-.723,2.186,2.186,0,0,1-.684-1.746,2.527,2.527,0,0,1,1.16-2.121,5.266,5.266,0,0,1,2.965-.738l1.031.016.109-.508a1.764,1.764,0,0,0,.023-.492.846.846,0,0,0-.277-.574.955.955,0,0,0-.629-.215,1.345,1.345,0,0,0-.875.254,1.231,1.231,0,0,0-.461.777l-2.211.008a2.457,2.457,0,0,1,1.113-1.965,4.312,4.312,0,0,1,2.613-.738,3.117,3.117,0,0,1,2.25.855,2.5,2.5,0,0,1,.68,2.121l-.648,4.047-.039.5a2.412,2.412,0,0,0,.133.938l-.008.148Zm-1.7-1.555a2.017,2.017,0,0,0,1.664-.828l.273-1.461-.766-.008a2.139,2.139,0,0,0-1.758.742,1.292,1.292,0,0,0-.242.633.75.75,0,0,0,.176.668A.891.891,0,0,0,129.852,15.445Zm12.852-.1a1.447,1.447,0,0,0,1.016-.332,1.632,1.632,0,0,0,.531-.926l2.07-.008a3.036,3.036,0,0,1-.559,1.6,3.394,3.394,0,0,1-1.344,1.109,3.847,3.847,0,0,1-1.77.375,3.123,3.123,0,0,1-2.437-1.062,3.965,3.965,0,0,1-.867-2.766l.023-.43.008-.086a5.284,5.284,0,0,1,1.391-3.27,3.761,3.761,0,0,1,2.914-1.16,3.047,3.047,0,0,1,2.27.934,3.3,3.3,0,0,1,.824,2.379h-2.055a1.73,1.73,0,0,0-.3-1.07,1.128,1.128,0,0,0-.891-.422q-1.578-.047-1.914,2.3a7.783,7.783,0,0,0-.086,1.438Q141.609,15.32,142.7,15.344ZM152.063,17a2.281,2.281,0,0,1-.086-.766,2.863,2.863,0,0,1-2.156.922,2.594,2.594,0,0,1-1.84-.723,2.186,2.186,0,0,1-.684-1.746,2.527,2.527,0,0,1,1.16-2.121,5.266,5.266,0,0,1,2.965-.738l1.031.016.109-.508a1.764,1.764,0,0,0,.023-.492.846.846,0,0,0-.277-.574.955.955,0,0,0-.629-.215,1.345,1.345,0,0,0-.875.254,1.231,1.231,0,0,0-.461.777l-2.211.008a2.457,2.457,0,0,1,1.113-1.965,4.312,4.312,0,0,1,2.613-.738,3.117,3.117,0,0,1,2.25.855,2.5,2.5,0,0,1,.68,2.121l-.648,4.047-.039.5a2.412,2.412,0,0,0,.133.938l-.008.148Zm-1.7-1.555a2.017,2.017,0,0,0,1.664-.828l.273-1.461-.766-.008a2.139,2.139,0,0,0-1.758.742,1.292,1.292,0,0,0-.242.633.75.75,0,0,0,.176.668A.891.891,0,0,0,150.367,15.445Zm10.1-.828q.125-.625-.867-.906l-.711-.18q-2.523-.7-2.453-2.453A2.428,2.428,0,0,1,157.5,9.129a3.942,3.942,0,0,1,2.457-.738,3.536,3.536,0,0,1,2.313.758,2.5,2.5,0,0,1,.9,1.977l-2.187-.008a.963.963,0,0,0-1.078-1.1,1.552,1.552,0,0,0-.895.258,1.061,1.061,0,0,0-.465.7q-.117.625.945.883l.313.07a6.285,6.285,0,0,1,1.648.59,2.488,2.488,0,0,1,.879.824,2.04,2.04,0,0,1,.285,1.18,2.251,2.251,0,0,1-.52,1.406,3.18,3.18,0,0,1-1.359.93,4.736,4.736,0,0,1-1.816.3,3.568,3.568,0,0,1-2.344-.809,2.607,2.607,0,0,1-.953-2.051l2.078.016a1.142,1.142,0,0,0,1.3,1.227,1.845,1.845,0,0,0,1-.25A.987.987,0,0,0,160.469,14.617ZM168.516,17a2.281,2.281,0,0,1-.086-.766,2.863,2.863,0,0,1-2.156.922,2.594,2.594,0,0,1-1.84-.723,2.186,2.186,0,0,1-.684-1.746,2.527,2.527,0,0,1,1.16-2.121,5.266,5.266,0,0,1,2.965-.738l1.031.016.109-.508a1.764,1.764,0,0,0,.023-.492.846.846,0,0,0-.277-.574.955.955,0,0,0-.629-.215,1.345,1.345,0,0,0-.875.254,1.231,1.231,0,0,0-.461.777l-2.211.008A2.457,2.457,0,0,1,165.7,9.129a4.312,4.312,0,0,1,2.613-.738,3.117,3.117,0,0,1,2.25.855,2.5,2.5,0,0,1,.68,2.121l-.648,4.047-.039.5a2.412,2.412,0,0,0,.133.938L170.68,17Zm-1.7-1.555a2.017,2.017,0,0,0,1.664-.828l.273-1.461-.766-.008a2.139,2.139,0,0,0-1.758.742,1.292,1.292,0,0,0-.242.633.75.75,0,0,0,.176.668A.891.891,0,0,0,166.82,15.445Zm13.344-7.062a2.4,2.4,0,0,1,1.906.945L182.9,5h2.211l-2.078,12h-1.969l.125-.906a2.736,2.736,0,0,1-2.2,1.07,2.433,2.433,0,0,1-1.383-.414,2.607,2.607,0,0,1-.918-1.168,4.7,4.7,0,0,1-.355-1.7,6.4,6.4,0,0,1,.023-.953l.047-.352a6.767,6.767,0,0,1,.723-2.281,3.766,3.766,0,0,1,1.313-1.461A3.094,3.094,0,0,1,180.164,8.383Zm-1.6,4.547a6.326,6.326,0,0,0-.039,1q.078,1.375,1.109,1.4a1.885,1.885,0,0,0,1.617-.875l.6-3.359a1.248,1.248,0,0,0-1.219-.875,1.606,1.606,0,0,0-1.34.621A4.176,4.176,0,0,0,178.563,12.93ZM188.8,17.156a3.677,3.677,0,0,1-1.965-.543,3.292,3.292,0,0,1-1.277-1.469,4.093,4.093,0,0,1-.328-2.059l.023-.312a5.465,5.465,0,0,1,.719-2.266,4.341,4.341,0,0,1,1.547-1.59,3.827,3.827,0,0,1,2.094-.527,2.924,2.924,0,0,1,2.473,1.2,4.117,4.117,0,0,1,.637,2.962l-.125.962h-5.18a1.814,1.814,0,0,0,.4,1.313,1.521,1.521,0,0,0,1.172.508A2.7,2.7,0,0,0,191.1,14.4l1.008,1.25a3.135,3.135,0,0,1-1.375,1.121A4.5,4.5,0,0,1,188.8,17.156Zm.7-6.945a1.565,1.565,0,0,0-1.082.383,3.363,3.363,0,0,0-.848,1.383h3.031l.047-.2a2.071,2.071,0,0,0,.008-.594,1.134,1.134,0,0,0-.383-.707A1.2,1.2,0,0,0,189.508,10.211Zm14.523,4.445h-3.969L198.891,17h-2.523l6.078-11.375h2.117L206.727,17h-2.336ZM201,12.758h2.742L203.1,8.523Zm9.836-4.219-.187,1a3.042,3.042,0,0,1,2.461-1.148,2.028,2.028,0,0,1,1.766.875,3.526,3.526,0,0,1,.414,2.359L214.4,17h-2.2l.906-5.4a2.527,2.527,0,0,0,.016-.555.9.9,0,0,0-1-.82,1.9,1.9,0,0,0-1.555.8L209.508,17h-2.2l1.469-8.453ZM221.016,17a2.281,2.281,0,0,1-.086-.766,2.863,2.863,0,0,1-2.156.922,2.594,2.594,0,0,1-1.84-.723,2.186,2.186,0,0,1-.684-1.746,2.527,2.527,0,0,1,1.16-2.121,5.266,5.266,0,0,1,2.965-.738l1.031.016.109-.508a1.764,1.764,0,0,0,.023-.492.846.846,0,0,0-.277-.574.955.955,0,0,0-.629-.215,1.345,1.345,0,0,0-.875.254,1.231,1.231,0,0,0-.461.777l-2.211.008A2.457,2.457,0,0,1,218.2,9.129a4.312,4.312,0,0,1,2.613-.738,3.117,3.117,0,0,1,2.25.855,2.5,2.5,0,0,1,.68,2.121l-.648,4.047-.039.5a2.412,2.412,0,0,0,.133.938L223.18,17Zm-1.7-1.555a2.017,2.017,0,0,0,1.664-.828l.273-1.461-.766-.008a2.139,2.139,0,0,0-1.758.742,1.292,1.292,0,0,0-.242.633.75.75,0,0,0,.176.668A.891.891,0,0,0,219.32,15.445Zm6.742-.773a1.22,1.22,0,0,1,.895.324,1.111,1.111,0,0,1,.371.855,1.151,1.151,0,0,1-.344.879,1.323,1.323,0,0,1-1.766.051,1.149,1.149,0,0,1-.375-.852,1.161,1.161,0,0,1,.336-.883A1.238,1.238,0,0,1,226.063,14.672Z" transform="translate(463 7129)" fill="#12263f"/>
    <g id="Grupo_158826" data-name="Grupo 158826" transform="translate(363.086 7083)">
      <g id="Grupo_158826-2" data-name="Grupo 158826" clip-path="url(#clip-path)">
        <path id="Trazado_134968" data-name="Trazado 134968" d="M9.093,96a3.367,3.367,0,0,1-2.067-3.669c.084-1.15-.005-2.311.022-3.467a2.67,2.67,0,0,1,2.121-2.727c.608-.13.627-.406.625-.874-.012-3.124-.007-6.249-.007-9.373V45.822c-.411-.031-.526.274-.711.447a5.286,5.286,0,1,1-7.385-7.56q11.73-11.459,23.5-22.878Q32.381,8.839,39.566,1.846c2.528-2.459,5.486-2.464,8.019,0q7.124,6.921,14.243,13.847c.286-.056.187-.287.188-.447.009-1.531,0-3.062.011-4.593,0-.427-.055-.639-.576-.721a2.619,2.619,0,0,1-2.429-2.735c-.054-1.467-.055-2.938,0-4.4A2.753,2.753,0,0,1,61.946.028Q68.6.01,75.252.027a2.792,2.792,0,0,1,2.978,2.9q.032,2.062,0,4.124a2.675,2.675,0,0,1-2.485,2.878c-.479.076-.53.268-.522.656.018.843.014,1.687,0,2.53a1.4,1.4,0,0,1-1.083,1.538c-1.171.287-1.557.06-1.936-1.128-.044-.841-.028-1.683-.016-2.524.007-.537-.167-.8-.751-.8-1.839.011-3.679.022-5.519.018-.632,0-.9.3-.9.915,0,2.183,0,4.366,0,6.549a2.01,2.01,0,0,0,.753,1.446c2.074,2.069,4.108,4.181,6.383,6.122.051-1.862-.007-3.71.043-5.556.38-1.2.756-1.417,1.943-1.144a1.447,1.447,0,0,1,1.08,1.635c0,2.56.017,5.121-.013,7.681a1.8,1.8,0,0,0,.606,1.461c3.2,3.071,6.361,6.177,9.547,9.26a5.256,5.256,0,0,1,1.757,4.264,5.016,5.016,0,0,1-3.2,4.564,5.067,5.067,0,0,1-5.441-.8c-.335-.267-.638-.574-.961-.868-.268.274-.145.568-.147.828q-.011,19.252-.018,38.5c0,.629.074.962.81,1.131a2.54,2.54,0,0,1,1.938,2.561c.032,1.5.026,3,0,4.5A3.084,3.084,0,0,1,78.064,96Z" transform="translate(0 0)"/>
        <path id="Trazado_134969" data-name="Trazado 134969" d="M101.45,22.555c-.883-.075-1.539.194-1.737,1.151a28.5,28.5,0,0,0-.072,2.892c-.011.229.131.547-.173.657-.252.09-.478-.106-.66-.277a32.266,32.266,0,0,1-2.432-2.462A2.741,2.741,0,0,1,95.72,22.7c-.016-2.527-.021-5.055,0-7.583.009-.986.115-1.064,1.072-1.069.655,0,1.314.043,1.965-.013.68-.059.944.131.906.864a11.812,11.812,0,0,0,.049,2.61c.2.951.854,1.217,1.73,1.144a.676.676,0,0,0-.375.663c.028.858.031,1.719,0,2.577a.7.7,0,0,0,.382.658" transform="translate(-27.3 -4.002)" fill="#695d67"/>
        <path id="Trazado_134970" data-name="Trazado 134970" d="M55.155,23.262c2.541,2.445,5.093,4.88,7.621,7.337q9.376,9.109,18.744,18.225a1.946,1.946,0,0,1,.661,1.538q-.028,20.665.009,41.33c0,.858-.244,1.006-1.039,1q-15.366-.042-30.732.005c-.866,0-1-.257-1-1.044q.038-18.322.017-36.644c0-2.547-.8-3.344-3.363-3.344-1.749,0-3.5-.005-5.247,0-1.156.005-1.5.277-1.845,1.436a4.32,4.32,0,0,1-3.7-.117,1.511,1.511,0,0,0-1.73-1.324c-2.241.016-4.481.016-6.721.023-.407-.62.091-1.029.417-1.377a55.669,55.669,0,0,1,4.116-4.078c.235-.2.485-.392.7-.616,3.925-4.055,8.044-7.912,12.085-11.848C47.6,30.4,51,26.967,54.548,23.687a1.642,1.642,0,0,1,.606-.425" transform="translate(-7.609 -6.636)" fill="#deeaf9"/>
        <path id="Trazado_134971" data-name="Trazado 134971" d="M52.568,21.763a17.364,17.364,0,0,1-2.725,2.81c-.793.7-1.552,1.438-2.306,2.178-3.717,3.643-7.368,7.357-11.161,10.921-2.341,2.2-4.516,4.564-6.894,6.719-1.5,1.362-2.918,2.807-4.362,4.223a2.147,2.147,0,0,0-.88,1.575,2.78,2.78,0,0,0-1.95,3.019c.028,12.309.006,24.618.037,36.927,0,.879-.244,1.121-1.086,1.059a27.758,27.758,0,0,0-3-.007c-.5.018-.683-.162-.626-.643a3.933,3.933,0,0,0,0-.468q0-20.573-.015-41.145a2.043,2.043,0,0,1,.68-1.625q14.9-14.455,29.754-28.949c.4-.394.64-.522,1.094-.038,1.109,1.181,2.284,2.3,3.433,3.443" transform="translate(-5.022 -5.137)" fill="#b0dafb"/>
        <path id="Trazado_134972" data-name="Trazado 134972" d="M35.93,76.574c4.373-.039,8.746-.1,13.118.031a1.654,1.654,0,0,1,.09.916q.008,14.608,0,29.215c0,1.059,0,1.059-1.057,1.06q-5.665,0-11.328,0c-.967,0-1.066-.1-1.124-1.044-.015-.249-.009-.5-.009-.748q0-13.858,0-27.717a2.486,2.486,0,0,1,.3-1.713" transform="translate(-10.159 -21.829)" fill="#aa6b51"/>
        <path id="Trazado_134973" data-name="Trazado 134973" d="M46,11.091c-1.178-.9-1.64-.86-2.727.2Q25.916,28.181,8.557,45.073a3.222,3.222,0,0,1-1.725,1.053,2.46,2.46,0,0,1-2.111-4.208c1.972-1.958,3.97-3.892,5.962-5.83Q26.566,20.635,42.45,5.184c1.7-1.656,2.826-1.655,4.543.029.89.873,1.764,1.764,2.645,2.646a31.347,31.347,0,0,0-2.519,2.132A4.9,4.9,0,0,1,46,11.091" transform="translate(-1.128 -1.126)" fill="#fe4756"/>
        <path id="Trazado_134974" data-name="Trazado 134974" d="M23.6,124.348c.311-.013.623-.038.933-.038q29.169,0,58.338-.02c.838,0,1.157.185,1.076,1.064a22.189,22.189,0,0,0-.01,2.715c.014.457-.157.626-.6.575a3.1,3.1,0,0,0-.374,0H24.447c-.28,0-.561-.02-.841-.031a6.358,6.358,0,0,1,0-4.262" transform="translate(-6.628 -35.454)" fill="#43ca8d"/>
        <path id="Trazado_134975" data-name="Trazado 134975" d="M62.785,12.653A8.073,8.073,0,0,1,66.42,9.421c2.92,2.814,5.851,5.616,8.759,8.443Q88.1,30.429,101.015,43.007a3.053,3.053,0,0,1,1.209,2.129,2.456,2.456,0,0,1-4.238,1.822c-1.515-1.442-3-2.911-4.5-4.369Q78.317,27.831,63.15,13.071c-.132-.129-.244-.278-.365-.418" transform="translate(-17.91 -2.687)" fill="#fe656f"/>
        <path id="Trazado_134976" data-name="Trazado 134976" d="M33.791,76.574c0,10,.012,20-.019,29.994,0,.884.206,1.17,1.127,1.157q5.434-.08,10.87,0c.884.012,1.16-.2,1.156-1.124-.031-10-.019-20-.016-29.994.288.25.154.585.154.879.007,9.808,0,19.617.022,29.425,0,.772-.2,1-.983.995q-8.526-.057-17.051-.013c-.752,0-.935-.224-.933-.949q.033-14.713,0-29.425c0-.782.213-1.023.993-.99,1.558.066,3.121.036,4.682.046" transform="translate(-8.02 -21.829)" fill="#955a44"/>
        <path id="Trazado_134977" data-name="Trazado 134977" d="M37.834,64.853a25.57,25.57,0,0,0,3.7.117,1.618,1.618,0,0,0,1.893,1.383c1.685-.042,3.371-.014,5.057-.009.3,0,.7-.084.689.395a16.565,16.565,0,0,1-.112,3.52,1.265,1.265,0,0,1-.729.086q-5.786.005-11.572,0c-.953,0-1.066-.105-1.114-1.049-.029-.59,0-1.182-.009-1.773-.009-.721.207-1.222,1.047-1.177a1.5,1.5,0,0,0,1.151-1.5" transform="translate(-10.164 -18.499)" fill="#bb7b62"/>
        <path id="Trazado_134978" data-name="Trazado 134978" d="M98.265,17.48a6.713,6.713,0,0,1-.142-2.573c-.014-.6-.182-.846-.8-.806a13.7,13.7,0,0,1-1.961,0c-.685-.053-.835.247-.828.87.027,2.585.022,5.17,0,7.756a2.287,2.287,0,0,0,.61,1.617c.886.959,1.82,1.873,2.833,2.908.334-1.278-.125-2.468.285-3.576v6.2C97.322,29,96.494,28.267,95.7,27.5c-1.5-1.455-2.968-2.939-4.472-4.387a1.743,1.743,0,0,1-.6-1.387c.031-2.275.036-4.552,0-6.827-.011-.723.193-.988.951-.971,1.962.045,3.926.034,5.889-.01.67-.015.87.215.833.857-.051.9-.029,1.806-.037,2.71" transform="translate(-25.852 -3.969)" fill="#544e55"/>
        <path id="Trazado_134979" data-name="Trazado 134979" d="M91.7,3.987c3.028-.01,6.055-.007,9.082-.041.57-.006.674.229.66.723-.029.967-.027,1.936,0,2.9.013.487-.084.738-.657.732-3.089-.035-6.179-.036-9.269-.049a7.544,7.544,0,0,1-.139-3.961c.021-.157.187-.234.324-.307" transform="translate(-26.01 -1.126)" fill="#7a6b78"/>
        <path id="Trazado_134980" data-name="Trazado 134980" d="M20.9,124.354l0,4.262c-2.178.011-4.356.013-6.534.039-.433.005-.611-.124-.6-.58q.038-1.587,0-3.176c-.01-.451.162-.593.6-.587,2.178.026,4.356.03,6.534.042" transform="translate(-3.928 -35.46)" fill="#00b966"/>
        <path id="Trazado_134981" data-name="Trazado 134981" d="M34.535,66.937a.9.9,0,0,0-.76,1.126c.126.883-.377,2.023.217,2.606.55.54,1.666.156,2.531.162,3.462.023,6.925.015,10.387.019-.259.265-.59.143-.885.143C40.384,71,34.743,70.975,29.1,71c-.767,0-1.064-.184-.994-.981a18.074,18.074,0,0,0,.006-2.337c-.024-.541.116-.781.719-.769,1.9.036,3.8.018,5.7.02" transform="translate(-8.015 -19.088)" fill="#aa6a51"/>
        <path id="Trazado_134982" data-name="Trazado 134982" d="M90.352,3.989c-.4,1.408-.088,2.847-.184,4.268-1.022.011-2.045.009-3.066.041-.475.014-.667-.152-.655-.641q.036-1.534,0-3.069c-.013-.492.178-.65.653-.636,1.084.033,2.169.028,3.253.038" transform="translate(-24.659 -1.127)" fill="#685c66"/>
        <path id="Trazado_134983" data-name="Trazado 134983" d="M87.963,81.435q0,7.636,0,15.272c0,2.221-.826,3.04-3.056,3.041q-9.227,0-18.453,0c-2.136,0-3.028-.876-3.03-3q-.006-15.366,0-30.731c0-2.109.919-3.015,3.031-3.016q9.273,0,18.547,0c2.054,0,2.958.9,2.96,2.97q.008,7.73,0,15.459" transform="translate(-18.091 -17.972)"/>
        <path id="Trazado_134984" data-name="Trazado 134984" d="M48.447,93.963a4.149,4.149,0,0,1-4.2,4.22,4.227,4.227,0,0,1-4.222-4.227,4.281,4.281,0,0,1,4.181-4.2,4.207,4.207,0,0,1,4.241,4.2" transform="translate(-11.417 -25.604)"/>
        <path id="Trazado_134985" data-name="Trazado 134985" d="M90.605,81.931c0,1.528-.018,3.057.01,4.585.009.527-.071.773-.7.763-2.244-.041-4.49-.029-6.736-.006-.485,0-.643-.139-.64-.633q.028-4.725,0-9.451c0-.552.2-.68.71-.676q3.368.032,6.736,0c.5-.005.637.164.629.646-.025,1.59-.009,3.181-.009,4.772" transform="translate(-23.545 -21.825)" fill="#60b7fd"/>
        <path id="Trazado_134986" data-name="Trazado 134986" d="M90.6,100.825c0,1.527-.021,3.055.011,4.581.012.57-.09.821-.748.808-2.211-.044-4.424-.031-6.636-.006-.524.006-.7-.145-.693-.683q.034-4.674,0-9.35c0-.506.108-.712.665-.7q3.364.044,6.73,0c.526-.006.692.146.68.678-.032,1.557-.011,3.116-.011,4.674" transform="translate(-23.544 -27.233)" fill="#60b7fd"/>
        <path id="Trazado_134987" data-name="Trazado 134987" d="M72.92,87.23c-1.651.011-3.3.006-4.952.044-.5.011-.63-.172-.628-.648q.025-4.723,0-9.445c0-.465.117-.677.626-.665,1.65.039,3.3.042,4.95.059a1.639,1.639,0,0,1,.29,1.145q.013,4.186,0,8.37a1.489,1.489,0,0,1-.285,1.14" transform="translate(-19.209 -21.826)" fill="#23a7fd"/>
        <path id="Trazado_134988" data-name="Trazado 134988" d="M72.919,106.158c-1.65.014-3.3.011-4.949.049-.5.011-.633-.171-.631-.648q.025-4.719,0-9.44c0-.482.137-.654.632-.643,1.65.036,3.3.032,4.95.043a1.523,1.523,0,0,1,.286,1.15q.015,4.169,0,8.338a1.559,1.559,0,0,1-.287,1.151" transform="translate(-19.208 -27.234)" fill="#23a7fd"/>
        <path id="Trazado_134989" data-name="Trazado 134989" d="M88.279,67.115a17.622,17.622,0,0,1-.029,3.769,1.379,1.379,0,0,1-.734.08q-5.851.005-11.7,0c-.961,0-1.068-.105-1.126-1.044-.181-2.886-.181-2.886,2.653-2.886q4.962,0,9.923,0a2.316,2.316,0,0,1,1.016.076" transform="translate(-21.286 -19.118)" fill="#23a6fc"/>
        <path id="Trazado_134990" data-name="Trazado 134990" d="M86.2,67.07c-4.118,0-8.235.021-12.352-.006-.725-.005-1.033.181-.953.941a7.692,7.692,0,0,1,0,1.682c-.1.881.184,1.176,1.111,1.163,3.711-.053,7.423-.022,11.135-.021.343,0,.686.006,1.029.01-.234.239-.532.122-.8.122-5.705.006-11.41-.013-17.115.017-.755,0-.986-.22-.928-.951a14.165,14.165,0,0,0,0-2.244c-.056-.71.2-.886.892-.883,5.268.028,10.538,0,15.806.024a4.47,4.47,0,0,1,2.171.146" transform="translate(-19.203 -19.072)" fill="#0192f9"/>
        <path id="Trazado_134991" data-name="Trazado 134991" d="M75.145,87.218q0-5.327,0-10.655c2.487-.217,2.487-.217,2.487,2.181,0,2.592-.014,5.186.011,7.778,0,.553-.114.8-.718.74-.588-.059-1.184-.033-1.776-.044" transform="translate(-21.434 -21.814)" fill="#5fb7fd"/>
        <path id="Trazado_134992" data-name="Trazado 134992" d="M75.146,106.155q0-5.32,0-10.64c2.484-.144,2.484-.144,2.484,2.28,0,2.558-.016,5.116.012,7.674.006.562-.129.794-.723.735s-1.181-.036-1.773-.05" transform="translate(-21.436 -27.232)" fill="#5fb7fd"/>
        <path id="Trazado_134993" data-name="Trazado 134993" d="M46.762,95.143A1.371,1.371,0,0,1,45.314,96.5a1.411,1.411,0,0,1-1.352-1.379A1.451,1.451,0,0,1,45.384,93.7a1.409,1.409,0,0,1,1.378,1.445" transform="translate(-12.54 -26.727)" fill="#dce8f7"/>
      </g>
    </g>
  </g>
</svg>
