<svg xmlns="http://www.w3.org/2000/svg" xmlns:xlink="http://www.w3.org/1999/xlink" width="165" height="116" viewBox="0 0 165 116">
  <defs>
    <clipPath id="clip-path">
      <rect id="Rect치ngulo_38043" data-name="Rect치ngulo 38043" width="97.302" height="91" fill="none"/>
    </clipPath>
  </defs>
  <g id="Grupo_158835" data-name="Grupo 158835" transform="translate(-722 -7519)">
    <rect id="Rect치ngulo_36141" data-name="Rect치ngulo 36141" width="165" height="116" transform="translate(722 7519)" fill="#c4d1ff"/>
    <g id="Grupo_158834" data-name="Grupo 158834" transform="translate(756 7532)">
      <g id="Grupo_158833" data-name="Grupo 158833" clip-path="url(#clip-path)">
        <path id="Trazado_135055" data-name="Trazado 135055" d="M0,141.646V98.55c.386-.337.77-.156,1.149.01,5.375,2.361,10.736,4.755,16.122,7.092,5.734,2.488,11.42,5.08,17.151,7.573q3.3,1.435,6.584,2.907a1.875,1.875,0,0,1,1.03.928,21.045,21.045,0,0,1,.2,3.176,15.972,15.972,0,0,1,.126,3.393,6.225,6.225,0,0,0,11.147,3.817,6.693,6.693,0,0,0,1.363-3.676,20.464,20.464,0,0,0,.246-5.758,1.944,1.944,0,0,1,1.378-2.062c8.146-3.526,16.256-7.136,24.387-10.7,4.977-2.18,9.945-4.381,14.923-6.56.471-.207,1.058-.769,1.491.108q0,20.784.006,41.565a6.5,6.5,0,0,1-2.246,5.481,7.731,7.731,0,0,1-4.521,1.718c-.442.031-.885.017-1.328.017l-80.846,0a11.012,11.012,0,0,1-4.2-.581c-2.181-.883-3.748-2.318-4.038-4.809A1.027,1.027,0,0,0,0,141.646" transform="translate(0 -56.584)" fill="#6e3f28"/>
        <path id="Trazado_135056" data-name="Trazado 135056" d="M41.782,78.63Q35.59,75.883,29.4,73.137q-6.238-2.762-12.479-5.514-6.675-2.945-13.355-5.879C2.379,61.223,1.188,60.719,0,60.207V40.463c.165-2.711,1.737-4.355,4.105-5.374a8.361,8.361,0,0,1,3.338-.551c7.231-.015,14.462,0,21.694-.007.284,0,.568,0,.852,0,1.106-.03,1.208-.167,1.3-1.268.048-.563-.28-1.324.623-1.563.557.415.368,1.032.4,1.576.067,1.1.181,1.233,1.3,1.253,1.672.031,3.346-.042,5.018.058,2.748-.124,5.5-.054,8.245-.05,3.917.006,7.834-.076,11.749.048,2.214-.082,4.428-.093,6.642,0,3.222-.117,6.446-.042,9.669-.05,5.088-.011,10.176-.04,15.264.013a7.1,7.1,0,0,1,6.54,3.792,5.753,5.753,0,0,1,.536,2.852c.034,6.162.018,12.325.016,18.488,0,.184.045.384-.125.53q-7.935,3.5-15.871,7c-5.438,2.387-10.886,4.753-16.326,7.138-2.864,1.256-5.709,2.559-8.588,3.781a1.4,1.4,0,0,0-.969,1.578c.065,1.579.021,3.163.017,4.745a1.7,1.7,0,0,1-.158,1.014c-.411-.2-.422-.585-.439-.959a21.121,21.121,0,0,1,.034-2.612,23.479,23.479,0,0,1,0-3.256,24.076,24.076,0,0,1,0-3.384c-.052-.693-.058-1.389-.069-2.084-.009-.558-.249-.92-.842-.925-3.667-.032-7.334-.054-11,.012a.845.845,0,0,0-.439.159c-.765.835-.351,1.788-.27,2.709.012.105.026.209.045.313a6.128,6.128,0,0,1-.2,3.142.269.269,0,0,1-.314.057" transform="translate(0 -18.241)" fill="#7c4a30"/>
        <path id="Trazado_135057" data-name="Trazado 135057" d="M112.046,149.268q.029,1.794.058,3.588c-.43,4.245-3.395,6.777-7.552,6.448a6.651,6.651,0,0,1-5.756-5.785c-.083-1.353-.035-2.714-.046-4.072.072-.56.512-.6.922-.6q5.735-.078,11.47,0a1.031,1.031,0,0,1,.9.427" transform="translate(-56.827 -85.636)" fill="#fea12e"/>
        <path id="Trazado_135058" data-name="Trazado 135058" d="M111.859,144.9l-12.39-.014a1.364,1.364,0,0,0-.905.193,24.828,24.828,0,0,1-.142-3.421.584.584,0,0,1,.146-.017,1.47,1.47,0,0,1,1.209-.412q5.438-.027,10.876,0a1.33,1.33,0,0,1,1.2.406q0,1.632,0,3.263" transform="translate(-56.64 -81.266)" fill="#ef870a"/>
        <path id="Trazado_135059" data-name="Trazado 135059" d="M75.007,13.436C75,11.223,74.932,9.008,75,6.8A6.618,6.618,0,0,1,81.824.049q9.914-.091,19.829,0a6.654,6.654,0,0,1,6.8,6.979c.022,3.226.014,6.452.019,9.678l-6.713-.008c-.436-.388-.374-.915-.378-1.413-.018-2.212.007-4.425-.014-6.637-.011-1.192-.184-1.368-1.392-1.371q-8.249-.018-16.5,0c-1.187,0-1.351.182-1.361,1.4-.019,2.212.006,4.425-.014,6.637,0,.5.051,1.028-.415,1.395-1.882,0-3.764-.029-5.645.019-.8.02-1.049-.279-1.007-1.041s-.017-1.5-.031-2.255" transform="translate(-43.143 0)" fill="#683f28"/>
        <path id="Trazado_135060" data-name="Trazado 135060" d="M98.672,126.343c.245-.2.54-.139.817-.14,3.846,0,7.693.012,11.538-.016.712-.005,1.053.155.985.94-.07.814-.042,1.637-.057,2.455a1.332,1.332,0,0,1-1.2.42q-5.446.031-10.891,0a1.532,1.532,0,0,1-1.218-.4l.017,0a13.086,13.086,0,0,1,.009-3.259" transform="translate(-56.723 -72.619)" fill="#fcb42e"/>
        <path id="Trazado_135061" data-name="Trazado 135061" d="M98.755,134.207l13.309-.022q-.009,1.7-.017,3.405l-13.288,0q0-1.694,0-3.387" transform="translate(-56.832 -77.221)" fill="#fea02e"/>
        <path id="Trazado_135062" data-name="Trazado 135062" d="M98.569,126.554q0,1.63-.009,3.259a7.57,7.57,0,0,1,.009-3.259" transform="translate(-56.62 -72.83)" fill="#fea02e"/>
      </g>
    </g>
  </g>
</svg>
