<svg id="Grupo_158296" data-name="Grupo 158296" xmlns="http://www.w3.org/2000/svg" xmlns:xlink="http://www.w3.org/1999/xlink" width="25.893" height="21.371" viewBox="0 0 25.893 21.371">
  <defs>
    <clipPath id="clip-path">
      <rect id="Rectángulo_36213" data-name="Rectángulo 36213" width="25.893" height="21.37" fill="none"/>
    </clipPath>
  </defs>
  <g id="Grupo_157212" data-name="Grupo 157212" clip-path="url(#clip-path)">
    <path id="Trazado_125325" data-name="Trazado 125325" d="M2.63,21.371c-.153-.216-.421-.2-.629-.3A3.308,3.308,0,0,1,.018,17.978q-.037-6.722,0-13.445A3.309,3.309,0,0,1,3.372,1.115C7.9,1.07,12.423,1.1,16.948,1.107a2.924,2.924,0,0,1,1.843.607c.289.229.459.186.7-.073A4.628,4.628,0,0,1,21.53.142a3.382,3.382,0,0,1,3.842,1.444,3.336,3.336,0,0,1-.433,4.128Q22.9,7.821,20.788,9.858a1.553,1.553,0,0,0-.509,1.261c.028,2.021.012,4.042.012,6.063,0,2.443-.544,3.27-2.754,4.188Z" transform="translate(0 0)"/>
    <path id="Trazado_125326" data-name="Trazado 125326" d="M25.117,30.751c-.444-.423-.876-.861-1.335-1.267a3.352,3.352,0,0,0-4.645.144,3.315,3.315,0,0,0-.109,4.592c1.569,1.659,3.183,3.279,4.845,4.844a3.3,3.3,0,0,0,4.544-.093c.7-.66,1.382-1.344,2.072-2.018.277.01.308.237.317.421a14.692,14.692,0,0,1-.041,2.892.739.739,0,0,1-.835.724c-3.93-.016-7.861-.008-11.791-.008a.616.616,0,0,1-.32-.056,1.011,1.011,0,0,1-.747-1.1q-.016-6.661,0-13.323a1.029,1.029,0,0,1,.991-1.166,1.369,1.369,0,0,1,.584-.047q5.558,0,11.117,0c.222,0,.518-.129.652.154s-.07.506-.254.692q-2.191,2.227-4.421,4.416c-.163.159-.345.365-.626.2" transform="translate(-14.808 -21.921)" fill="#fedd00"/>
    <path id="Trazado_125327" data-name="Trazado 125327" d="M48.33,30.377a1.233,1.233,0,0,1-.958-.439c-1.413-1.416-2.832-2.826-4.242-4.245a1.163,1.163,0,0,1-.148-1.7,1.134,1.134,0,0,1,1.738.11c.815.8,1.617,1.616,2.426,2.423.945.943,1.382.947,2.313.017l8.954-8.953a4.962,4.962,0,0,1,.478-.453,1.1,1.1,0,0,1,1.446.07,1.141,1.141,0,0,1,.146,1.448,2.738,2.738,0,0,1-.35.392q-5.384,5.388-10.77,10.774a1.334,1.334,0,0,1-1.034.552" transform="translate(-37.035 -14.667)" fill="#a2c500"/>
    <path id="Trazado_125328" data-name="Trazado 125328" d="M22.779,103.285c3.93,0,7.86-.016,11.79.005.572,0,.956-.1.972-.734a11.188,11.188,0,0,0-.092-3.244l2.337-2.188c0,1.727.035,3.513-.018,5.3-.02.672-.554.983-1.393.983q-5.365.005-10.731,0c-.746,0-1.492,0-2.238,0-.213,0-.443.053-.626-.12" transform="translate(-19.767 -84.281)" fill="#fdc100"/>
    <path id="Trazado_125329" data-name="Trazado 125329" d="M31.68,30.715c.255,0,.378-.2.53-.354q2.168-2.161,4.327-4.331c.159-.16.467-.3.337-.575s-.436-.129-.661-.129Q30.421,25.3,24.628,25.3a1.435,1.435,0,0,1,.711-.066q6.223,0,12.446,0a1.591,1.591,0,0,1,1.12.253c-1.035,1.028-2.044,2.029-3.051,3.033-.933.93-1.875,1.851-2.787,2.8-.3.313-.515.423-.811.019a7.272,7.272,0,0,0-.576-.626" transform="translate(-21.371 -21.884)" fill="#fdc100"/>
  </g>
</svg>
