<svg xmlns="http://www.w3.org/2000/svg" xmlns:xlink="http://www.w3.org/1999/xlink" width="165" height="116" viewBox="0 0 165 116">
  <defs>
    <clipPath id="clip-path">
      <rect id="Rect치ngulo_38044" data-name="Rect치ngulo 38044" width="108.056" height="108" fill="none"/>
    </clipPath>
  </defs>
  <g id="_36" data-name="36" transform="translate(-722 -7659)">
    <rect id="Rect치ngulo_37642" data-name="Rect치ngulo 37642" width="165" height="116" transform="translate(722 7659)" fill="#c4d1ff"/>
    <g id="Grupo_158837" data-name="Grupo 158837" transform="translate(750 7663)">
      <g id="Grupo_158836" data-name="Grupo 158836" clip-path="url(#clip-path)">
        <path id="Trazado_135063" data-name="Trazado 135063" d="M0,71.94a18.237,18.237,0,0,1,2.159-5.648c4.682-7.377,15.714-8.282,21.25-1.716.3.431-.042.736-.242,1.029A13.561,13.561,0,0,0,20.5,73.011a1.314,1.314,0,0,1-.825,1.121c-1.663.973-3.322,1.953-4.994,2.91A22.952,22.952,0,0,0,7.1,84.03c-.254.368-.454.807-.965.909a6.24,6.24,0,0,1-3.1-2.406A11.965,11.965,0,0,1,0,75.316Z" transform="translate(0 -26.583)" fill="#676fb1"/>
        <path id="Trazado_135064" data-name="Trazado 135064" d="M0,128.614A4.749,4.749,0,0,1,2.715,126.3c1.878-1.055,5.151-.031,6,1.908a3.262,3.262,0,0,1-.623,3.252c-.813,1.249-3.249,2.43-4.491,1.605A5.473,5.473,0,0,1,0,129.88Z" transform="translate(0 -55.62)" fill="#feb4bf"/>
        <path id="Trazado_135065" data-name="Trazado 135065" d="M78.3,50.664A40.9,40.9,0,0,1,88.656,48.38a34.028,34.028,0,0,1,14.8,2.544c11.027,4.811,17.873,13.1,20.375,24.907.087.411.164.824.245,1.237a4.682,4.682,0,0,1,.632,2.73,27.508,27.508,0,0,1-.133,5.995,1.444,1.444,0,0,1-.348.966,46.886,46.886,0,0,1-1.658,6.591c-4.128,11-11.784,18.207-23.087,21.488a34.137,34.137,0,0,1-9.55,1.233c-2.633,0-5.266-.008-7.9-.013a46.548,46.548,0,0,1-9.975-7.536A41.5,41.5,0,0,1,61.546,90.505a45.921,45.921,0,0,1-1.422-7.552c-.1-.848.174-1.264,1.021-1.346A13.927,13.927,0,0,0,67.812,79.2a13.122,13.122,0,0,0,1.862-19.922,15.88,15.88,0,0,0-2.223-1.936c-.25-.171-.579-.294-.6-.678A13.327,13.327,0,0,0,70.266,54.9,81.934,81.934,0,0,1,78.3,50.664" transform="translate(-26.559 -21.369)" fill="#9da1e2"/>
        <path id="Trazado_135066" data-name="Trazado 135066" d="M42.444,61.838c4.012,2.56,6.44,6.034,6.78,10.94A13.558,13.558,0,0,1,38.468,86.829a12.316,12.316,0,0,1-1.971.253c-.558.03-.622.327-.574.768a45.361,45.361,0,0,0,2.593,11.193,41.092,41.092,0,0,0,6.977,11.9A45.074,45.074,0,0,0,54.441,119c.776.535,1.616.978,2.426,1.465.319.192.757.269.755.774-10.074,0-20.155.257-30.218-.061A23.479,23.479,0,0,1,5.75,103.988a4.517,4.517,0,0,0,3.773-1.218c.89-.9,1.616-1.959,1.193-3.284a3.713,3.713,0,0,0-2.84-2.259,6.979,6.979,0,0,0-3.013,0A22.915,22.915,0,0,1,7.919,85.65c.148-.266.388-.507.317-.857.976-1.219,1.907-2.477,2.937-3.648,2.3-2.618,5.3-4.289,8.283-5.976a2.747,2.747,0,0,1,.371-.2,4.107,4.107,0,0,0,2.856-4.121,10.583,10.583,0,0,1,2.154-5.058,3.263,3.263,0,0,0,.719-1.255c.881-.276,1.322-1.106,2.028-1.613a13.308,13.308,0,0,1,14.859-1.088" transform="translate(-2.148 -26.546)" fill="#8187ca"/>
        <path id="Trazado_135067" data-name="Trazado 135067" d="M148.439,109.487c.075-1.741.273-3.473.238-5.222-.031-1.5-.22-2.983-.389-4.469,2.5,2.558,5.363,4.781,7.292,7.856,4.176,6.657,4.281,13.466.568,20.335a44.7,44.7,0,0,1-7.843,10.376,47.7,47.7,0,0,1-10.368,7.851,49.158,49.158,0,0,1-16.74,5.634,20.525,20.525,0,0,1-2.929.249A3.285,3.285,0,0,1,114.9,148.9a3.381,3.381,0,0,1,3.248-3.55,39.3,39.3,0,0,0,16.734-5.163,40.91,40.91,0,0,0,14.858-14.579c2.433-4,3.115-8.139,1.2-12.528a10.416,10.416,0,0,0-2.5-3.6" transform="translate(-50.772 -44.097)" fill="#feb4bf"/>
        <path id="Trazado_135068" data-name="Trazado 135068" d="M98.732.4c-.46-.131-.981-.078-1.384-.4H94.395A8.981,8.981,0,0,0,88.01,3.533c-.494.59-.726.094-.964-.185A8.733,8.733,0,0,0,80.682,0H77.94c-.143.2-.365.17-.569.209a9.909,9.909,0,0,0-1.884,18.855,13.871,13.871,0,0,0,5.989.753c.745-.023.953.228.945.955-.029,2.84,0,5.682.009,8.523.458.333.868.026,1.28-.111A32.141,32.141,0,0,1,91.563,27.5a1.481,1.481,0,0,0,1.218-.484c-.01-2.106,0-4.212-.043-6.316-.016-.71.243-.878.915-.881a21.413,21.413,0,0,0,3.985-.143,10.074,10.074,0,0,0,8.163-8.607A9.975,9.975,0,0,0,98.732.4M79.339,13.117A3.2,3.2,0,1,1,82.58,9.959a3.177,3.177,0,0,1-3.241,3.158m16.489,0A3.116,3.116,0,0,1,92.7,9.86,3.13,3.13,0,0,1,96.052,6.72a3.2,3.2,0,1,1-.224,6.4" transform="translate(-30.683)" fill="#fecd71"/>
        <path id="Trazado_135069" data-name="Trazado 135069" d="M48.359,78.933A6.711,6.711,0,1,1,55,85.679a6.656,6.656,0,0,1-6.637-6.746" transform="translate(-21.368 -31.904)" fill="#fe8d9d"/>
        <path id="Trazado_135070" data-name="Trazado 135070" d="M31.713,128.833a8.582,8.582,0,0,1,4.744.323c2.061.847,3.514,2.21,3.641,4.55.1,1.926-1.389,3.824-3.7,4.6a7.3,7.3,0,0,1-7.338-1.119,4.282,4.282,0,0,1-.383-6.554c.116-.128.211-.276.315-.415a2.675,2.675,0,0,0,2.723-1.385" transform="translate(-12.078 -56.848)" fill="#feb4bf"/>
        <path id="Trazado_135071" data-name="Trazado 135071" d="M32.448,125.629c-.611,1.618-1.129,1.881-2.724,1.385-1.067-1.411-.715-3-.47-4.528a1.377,1.377,0,0,1,1.7-1.063,1.629,1.629,0,0,1,1.426,1.588c.073.868.052,1.745.072,2.618" transform="translate(-12.813 -53.643)" fill="#323d41"/>
      </g>
    </g>
  </g>
</svg>
