<svg xmlns="http://www.w3.org/2000/svg" xmlns:xlink="http://www.w3.org/1999/xlink" width="165" height="116" viewBox="0 0 165 116">
  <defs>
    <clipPath id="clip-path">
      <rect id="Rect치ngulo_38036" data-name="Rect치ngulo 38036" width="95.605" height="98.23" fill="none"/>
    </clipPath>
  </defs>
  <g id="_37" data-name="37" transform="translate(-722 -7799)">
    <rect id="Rect치ngulo_37643" data-name="Rect치ngulo 37643" width="165" height="116" transform="translate(722 7799)" fill="#c4d1ff"/>
    <g id="Grupo_158839" data-name="Grupo 158839" transform="translate(757.197 7807.983)">
      <g id="Grupo_158810" data-name="Grupo 158810" clip-path="url(#clip-path)">
        <path id="Trazado_134908" data-name="Trazado 134908" d="M20.689,82.7q-1.035,5.016-2.068,10.033c-.16.779-.316,1.561-.438,2.347-.1.638-.408.821-1.067.817q-8.1-.048-16.2,0c-.66,0-.947-.11-.915-.857C.167,91.113.447,87.2.763,83.283c.218-2.685.413-5.372.661-8.053.284-3.078.588-6.154.932-9.224.393-3.5.791-7,1.273-10.483,1.326-9.6,2.838-19.163,5.833-28.411,1.861-5.747,5.856-9.454,11.536-11.4q6.116-2.1,12.224-4.21c.346-.076.38.214.44.414,1.008,3.349,3.478,5.352,6.4,6.909,1.942,1.033,4.01,1.8,6.01,2.706.77.447,1.621.81,1.872,1.8a7.644,7.644,0,0,0-.481,4.195c.277,2.176.339,4.378.613,6.558A14.705,14.705,0,0,1,47.9,36.36c-.008,2.868-.412,5.706-.662,8.554q-.44,5.02-.9,10.039-.542,6.013-1.081,12.027c-.38,4.208-.748,8.417-1.16,12.621-.114,1.022-.156,2.052-.267,3.074-.151,1.389-.458,1.59-1.824,1.331-3-.569-6.006-1.151-9.009-1.725-3.623-.693-7.243-1.41-10.868-2.092a2.726,2.726,0,0,1-1.4-.48,5.96,5.96,0,0,1-.376-2.446c0-2.233-.175-4.456-.265-6.682-.168-4.121-.262-8.244-.546-12.36-.116-1.692-.127-3.392-.182-5.085-.127-3.89-.367-7.776-.469-11.667a17.192,17.192,0,0,0-1.49-6.485c-.869-1.983-1.726-3.971-2.552-5.972a3.089,3.089,0,0,0-.42-.791.876.876,0,0,0-1.073-.286c-.378.145-.407.5-.394.838a3.79,3.79,0,0,0,.389,1.335c.824,1.93,1.663,3.853,2.465,5.792a19.151,19.151,0,0,1,1.321,6.615c.167,3.953.235,7.911.532,11.859.13,1.724.106,3.458.173,5.186.09,2.293.192,4.589.293,6.88.182,4.12.228,8.245.544,12.36a1.448,1.448,0,0,0,1.241,1.54,2.511,2.511,0,0,1,.756,2.364" transform="translate(0 -5.463)" fill="#4483df"/>
        <path id="Trazado_134909" data-name="Trazado 134909" d="M90.284,36.423c.295-3.288-.324-6.52-.621-9.77a5.648,5.648,0,0,1,.787-3.42c.282-.895,1.13-1.157,1.8-1.617A69.745,69.745,0,0,0,98.677,18.7c2.666-1.448,4.884-3.305,5.836-6.337.1-.326.186-.755.715-.64,4.619,1.6,9.325,2.963,13.836,4.857a16.541,16.541,0,0,1,9.574,10.276,120.875,120.875,0,0,1,4.4,18.513c1.366,7.8,2.367,15.652,3.171,23.526.7,6.886,1.325,13.78,1.692,20.7.113,2.126.365,4.246.336,6.38a1.676,1.676,0,0,1-1.308.348q-7.669.011-15.339,0a1.754,1.754,0,0,1-1.308-.363c-.858-4.389-1.658-8.79-2.663-13.149a2.388,2.388,0,0,1,.71-2.355c.9-.174,1.2-.742,1.253-1.635.189-2.957.221-5.922.4-8.877.233-3.921.239-7.851.544-11.768.128-1.659.124-3.328.174-4.988.074-2.428.263-4.853.286-7.285.017-1.759.135-3.524.27-5.283.2-2.648,1.345-5,2.364-7.391.5-1.165,1.03-2.315,1.477-3.5.217-.574.517-1.254-.21-1.694-.522-.315-1.047.07-1.437,1.008-.856,2.062-1.749,4.109-2.63,6.161a20.4,20.4,0,0,0-1.485,7.3c-.173,4.023-.251,8.05-.54,12.068-.122,1.693-.126,3.395-.179,5.089-.077,2.428-.181,4.86-.295,7.285-.185,3.955-.2,7.919-.557,11.866a2.124,2.124,0,0,1-.206.967,2.376,2.376,0,0,1-1.375.511c-6.613,1.319-13.249,2.528-19.862,3.853a1.751,1.751,0,0,1-1.534-.115c-.508-1.366-.326-2.829-.6-4.229-.412-5.068-.912-10.129-1.369-15.193-.434-4.8-.842-9.6-1.278-14.4-.3-3.31-.578-6.623-.917-9.93-.1-.959-.085-1.924-.169-2.884-.028-.322.089-.672-.171-.953" transform="translate(-42.634 -5.566)" fill="#5b9de7"/>
        <path id="Trazado_134910" data-name="Trazado 134910" d="M69.987,141.063a32.1,32.1,0,0,1,.412,4.215,1.658,1.658,0,0,1,.194,2c-2.7,0-5.393.014-8.089-.021-.732-.009-1.164.055-1.178.973-.017,1.185-.293,2.364-.332,3.55-.068,2.005-.789,2.661-2.771,2.238-3.652-.779-7.294-1.609-10.939-2.421-1.676-.374-3.346-.781-5.029-1.124a2.089,2.089,0,0,1-1.659-1.524c-.564-1.628-1.155-3.245-1.734-4.868q-.327-1.107-.653-2.214c.127-.391.295-.746.758-.832q6.105,1.16,12.211,2.322,4.785.916,9.566,1.858c.521.1.852.126.89-.594.063-1.189.253-2.371.389-3.556.466-.416,1.065-.308,1.608-.38a21.171,21.171,0,0,1,5.731.106,1.142,1.142,0,0,1,.626.272" transform="translate(-18.173 -66.842)" fill="#fec4b7"/>
        <path id="Trazado_134911" data-name="Trazado 134911" d="M99.789,147.745a15.119,15.119,0,0,0-.194-2c2.485-.233,4.9-.876,7.343-1.325,5.093-.934,10.174-1.931,15.26-2.9.506.052.663.431.787.841q-.315,1.093-.63,2.188c-.8,1.61-1.209,3.365-1.861,5.032a2,2,0,0,1-1.547,1.368c-5.4,1.179-10.789,2.383-16.188,3.553-1.546.335-2.447-.228-2.526-1.711-.091-1.689-.326-3.36-.443-5.044" transform="translate(-47.368 -67.309)" fill="#fedfd6"/>
        <path id="Trazado_134912" data-name="Trazado 134912" d="M148.076,172.371l17.955.014c-.4,2.209-.778,4.424-1.224,6.624a1.444,1.444,0,0,1-1.521,1.2q-5.245.013-10.49,0a1.816,1.816,0,0,1-1.664-1.234c-1.025-2.2-2.038-4.4-3.056-6.6" transform="translate(-70.428 -81.983)" fill="#fedfd6"/>
        <path id="Trazado_134913" data-name="Trazado 134913" d="M67.183,2.032A40.352,40.352,0,0,1,75.7.2a38.659,38.659,0,0,1,5.868-.16A37.752,37.752,0,0,1,92.355,2.034c.038.422-.335.448-.577.557a29.538,29.538,0,0,0-6.36,3.8,1.85,1.85,0,0,1-1.08.452,36.765,36.765,0,0,0-9.112,0,1.7,1.7,0,0,1-1-.382A28.228,28.228,0,0,0,67.671,2.55c-.221-.09-.542-.145-.489-.519" transform="translate(-31.951 0)" fill="#fec4b7"/>
        <path id="Trazado_134914" data-name="Trazado 134914" d="M97.321,8.468a39.871,39.871,0,0,1,5.149-3.294c.887-.411,1.757-.862,2.634-1.294a2.171,2.171,0,0,1,2.017,2.265A3.932,3.932,0,0,0,107.294,8a.5.5,0,0,0-.384.4c-.881,3.215-3.167,5.208-5.943,6.75a60.266,60.266,0,0,1-6.615,2.981c-.59-.911-.314-1.926-.271-2.883a10.5,10.5,0,0,1,1.392-4.912,4.383,4.383,0,0,1,1.847-1.869" transform="translate(-44.698 -1.845)" fill="#fedfd6"/>
        <path id="Trazado_134915" data-name="Trazado 134915" d="M65.357,3.875a36.821,36.821,0,0,1,7.788,4.59c1.666.852,2.257,2.468,2.78,4.074a13.182,13.182,0,0,1,.488,4.728.981.981,0,0,1-.285.814,44.5,44.5,0,0,1-8.116-3.888,11.116,11.116,0,0,1-4.663-6.315c0-.623-.026-1.248.007-1.868a2.136,2.136,0,0,1,2-2.135" transform="translate(-30.125 -1.843)" fill="#fedfd6"/>
        <path id="Trazado_134916" data-name="Trazado 134916" d="M91.586,101.991a41.042,41.042,0,0,0-7.965,0c.147-1.886.281-3.773.446-5.658.229-2.614.481-5.225.724-7.837q.468-5.058.935-10.115c.228-2.514.438-5.03.665-7.544.308-3.406.63-6.811.934-10.218.059-.662.066-1.329.1-1.994.132-.079.3-.535.35.06q.295,3.628.623,7.253c.369,4.071.754,8.141,1.124,12.212.3,3.277.577,6.556.874,9.834.374,4.137.761,8.274,1.134,12.411.048.529.041,1.063.059,1.595" transform="translate(-39.772 -27.769)" fill="#fea698"/>
        <path id="Trazado_134917" data-name="Trazado 134917" d="M32.223,94.143c-.2.322-.365.683-.758.833-1.44.015-1.533-.123-1.632-1.586-.224-3.316-.282-6.637-.42-9.955q-.194-4.679-.4-9.356c-.141-3.285-.264-6.57-.4-9.856-.123-2.918-.267-5.836-.394-8.756A17.869,17.869,0,0,0,26.363,49c-.7-1.577-1.38-3.168-2.057-4.758a3.09,3.09,0,0,1-.248-.858c-.064-.578-.079-1.2.648-1.375a1.242,1.242,0,0,1,1.631.751c.732,1.782,1.452,3.572,2.261,5.32a23.707,23.707,0,0,1,2.1,9.941c.029,3.249.237,6.5.378,9.755.136,3.118.26,6.237.4,9.355.144,3.285.231,6.574.419,9.855.136,2.385.075,4.779.327,7.157" transform="translate(-11.429 -19.95)" fill="#345aac"/>
        <path id="Trazado_134918" data-name="Trazado 134918" d="M85.022,21.892c.083-2.6.005-5.158-1.308-7.535-.448-.811-1.184-1.335-1.673-2.081a29.705,29.705,0,0,1,9.6,0c-2.82,2.659-3.166,6.078-2.969,9.663a10.812,10.812,0,0,0-1.836,1.382,9.108,9.108,0,0,0-1.815-1.429" transform="translate(-39.02 -5.653)" fill="#fea698"/>
        <path id="Trazado_134919" data-name="Trazado 134919" d="M48.387,103.13c-.348,2.477-.708,5.042-1.07,7.607q-.362,2.565-.727,5.129c-.038.263-.079.525-.133.786a1.126,1.126,0,0,1-1.336,1.04,1.151,1.151,0,0,1-1-1.456c.306-2.2.6-4.411.907-6.615.315-2.236.653-4.469.967-6.706.108-.768.513-1.283,1.287-1.246s1.16.573,1.109,1.46" transform="translate(-20.974 -48.355)" fill="#fedfd6"/>
        <path id="Trazado_134920" data-name="Trazado 134920" d="M143.487,94.967c-.4-.154-.561-.526-.786-.841.2-5.215.365-10.433.627-15.646.152-3.021.288-6.042.388-9.065.156-4.717.35-9.434.605-14.147a21.336,21.336,0,0,1,2.205-7.61c.685-1.514,1.317-3.053,1.957-4.588.432-1.035.979-1.384,1.793-1.1.651.228.851.966.433,1.988-.97,2.37-2,4.715-2.972,7.083a15.07,15.07,0,0,0-1.045,5.243c-.2,5.449-.367,10.9-.633,16.346q-.212,4.332-.377,8.665c-.164,4.183-.389,8.365-.584,12.547-.05,1.08-.772,1.18-1.61,1.122" transform="translate(-67.871 -19.917)" fill="#345aac"/>
        <path id="Trazado_134921" data-name="Trazado 134921" d="M134.354,116.069c.077,1.031-.284,1.493-.949,1.608a1.093,1.093,0,0,1-1.351-1c-.275-1.671-.509-3.348-.748-5.024q-.564-3.945-1.113-7.891a7.884,7.884,0,0,1-.088-.791,1.127,1.127,0,0,1,1.067-1.318,1.194,1.194,0,0,1,1.31,1.117c.358,2.4.683,4.8,1.019,7.2.3,2.138.6,4.276.853,6.1" transform="translate(-61.88 -48.344)" fill="#fedfd6"/>
        <path id="Trazado_134922" data-name="Trazado 134922" d="M96.346,42.329a1.759,1.759,0,0,1-1.719-1.713,1.7,1.7,0,0,1,3.4-.03,1.759,1.759,0,0,1-1.681,1.744" transform="translate(-45.006 -18.511)" fill="#fdf3ef"/>
        <path id="Trazado_134923" data-name="Trazado 134923" d="M105.083,117.2a1.736,1.736,0,0,1-3.47.063,1.736,1.736,0,0,1,3.47-.063" transform="translate(-48.329 -54.956)" fill="#fdf2ef"/>
        <path id="Trazado_134924" data-name="Trazado 134924" d="M99.591,80.545a1.592,1.592,0,0,1-1.617-1.736A1.685,1.685,0,0,1,99.7,77.141a1.8,1.8,0,0,1,1.674,1.776,1.759,1.759,0,0,1-1.786,1.628" transform="translate(-46.598 -36.689)" fill="#fdf2ef"/>
        <path id="Trazado_134925" data-name="Trazado 134925" d="M108.494,157.158a1.7,1.7,0,0,1-.019-3.4,1.7,1.7,0,1,1,.019,3.4" transform="translate(-50.812 -73.131)" fill="#fefefe"/>
      </g>
    </g>
  </g>
</svg>
