<svg xmlns="http://www.w3.org/2000/svg" xmlns:xlink="http://www.w3.org/1999/xlink" width="165" height="116" viewBox="0 0 165 116">
  <defs>
    <clipPath id="clip-path">
      <rect id="Rect치ngulo_38039" data-name="Rect치ngulo 38039" width="106.573" height="82.395" fill="none"/>
    </clipPath>
  </defs>
  <g id="_38" data-name="38" transform="translate(8239 4156)">
    <rect id="Rect치ngulo_36141" data-name="Rect치ngulo 36141" width="165" height="116" transform="translate(-8239 -4156)" fill="#c4d1ff"/>
    <g id="Grupo_158841" data-name="Grupo 158841" transform="translate(-8210 -4139)">
      <g id="Grupo_158825" data-name="Grupo 158825" clip-path="url(#clip-path)">
        <path id="Trazado_134951" data-name="Trazado 134951" d="M9.988,46.289c-1.487-.061-2.976-.106-4.463-.188a10.492,10.492,0,0,1-3.5-.91A4.14,4.14,0,0,1,0,42.956V41.5A3.812,3.812,0,0,1,4.086,39c.621.029,1.246-.007,1.868.008a3.265,3.265,0,0,1,3.386,3.313c.007.138,0,.277,0,.415.011,1.461.011,1.461,1.483,1.476a1.787,1.787,0,0,1-.839,2.081" transform="translate(0 -19.482)" fill="#ec6262"/>
        <path id="Trazado_134952" data-name="Trazado 134952" d="M11.412,26.807a6.389,6.389,0,0,0,.839-2.081,126.957,126.957,0,0,1,7.324-15.7A15.419,15.419,0,0,1,32.644.75,335.966,335.966,0,0,1,68.085.218,86.211,86.211,0,0,1,78.552.96a14.78,14.78,0,0,1,11.1,7.71A120.808,120.808,0,0,1,97.19,24.729a3.151,3.151,0,0,1,.833,2.075,28.023,28.023,0,0,0,4.483,9.178,21.428,21.428,0,0,1,3.239,5.765,21.252,21.252,0,0,1,.306,10.471c-.183,1.054-.45,2.094-.7,3.134a17.182,17.182,0,0,0-.516,4.208c.036,5.959.016,11.919.012,17.879,0,.308-.043.617-.066.925-.418-.219-.391-.633-.391-1,0-5.449-.092-10.9.1-16.347a44.046,44.046,0,0,1-.825,6.545,1.264,1.264,0,0,1-1.4.976c-2.809.01-5.618,0-8.427.005a1.9,1.9,0,0,1-1.765-1.06A23.151,23.151,0,0,0,87.7,62.213a12.754,12.754,0,0,0-8.995-3.681q-24.033.069-48.066,0a11.962,11.962,0,0,0-7.453,2.477,21.089,21.089,0,0,0-5.626,6.2,2.471,2.471,0,0,1-2.456,1.349c-2.565-.058-5.132-.018-7.7-.019-.741,0-1.4-.108-1.621-.966a47.26,47.26,0,0,1-.871-6.589c-.018-.138-.19,0-.057-.037.03-.01.049.017.055.08.238,2.49.147,4.987.155,7.482.01,2.809.014,5.619-.008,8.429,0,.494.143,1.062-.4,1.419-.024-.377-.066-.755-.067-1.132-.005-4.468-.093-8.939.024-13.4A46.769,46.769,0,0,0,3.453,52.412,19.987,19.987,0,0,1,3.7,41.748a21.1,21.1,0,0,1,3.236-5.763,28.091,28.091,0,0,0,4.477-9.177" transform="translate(-1.424 0)" fill="#e85353"/>
        <path id="Trazado_134953" data-name="Trazado 134953" d="M8.959,125.739a.971.971,0,0,0,1.079.693q4.267-.06,8.534,0a1.4,1.4,0,0,0,1.4-.783,20.927,20.927,0,0,1,7.535-7.723,10.684,10.684,0,0,1,5.328-1.515q24.821.006,49.642.005a12.144,12.144,0,0,1,7.969,3.331,22.465,22.465,0,0,1,4.963,5.97,1.227,1.227,0,0,0,1.231.712q4.318-.044,8.638,0a.964.964,0,0,0,1.092-.669,3.439,3.439,0,0,1-2.119,4.481,5.706,5.706,0,0,1-1.431.215c-3.039.025-6.078.015-9.117.006a1.547,1.547,0,0,1-1.07-.311,1.733,1.733,0,0,0-1.109-.165q-33.854,0-67.708,0a1.732,1.732,0,0,0-1.109.165,1.975,1.975,0,0,1-1.386.314q-4.212.007-8.423,0a5.64,5.64,0,0,1-1.943-.3,3.519,3.519,0,0,1-2-4.43" transform="translate(-4.372 -58.167)" fill="#777"/>
        <path id="Trazado_134954" data-name="Trazado 134954" d="M7.825,127.4c.143.881.218,1.779.444,2.637.277,1.051,1.583,1.75,3.122,1.757,3.394.015,6.789.014,10.183.02.006,2.039.039,4.079.011,6.118a4.032,4.032,0,0,1-4.051,4.227c-2.313.091-4.634.081-6.947.005a4.046,4.046,0,0,1-4.106-3.973l.045-17.274a2.287,2.287,0,0,1,.224-1.188q.537,3.836,1.075,7.671" transform="translate(-3.238 -59.823)" fill="#454545"/>
        <path id="Trazado_134955" data-name="Trazado 134955" d="M176.384,131.838c3.382,0,6.764,0,10.147-.016,1.92-.009,2.953-.66,3.3-2.14a20.964,20.964,0,0,0,.29-2.234l1.072-7.663.282.01v18.422a4.1,4.1,0,0,1-4.316,3.979c-2.177.042-4.356.049-6.532,0a4.086,4.086,0,0,1-4.259-4.343c-.02-2,.009-4.008.016-6.012" transform="translate(-88.123 -59.854)" fill="#454545"/>
        <path id="Trazado_134956" data-name="Trazado 134956" d="M192.24,46.276a6.68,6.68,0,0,1-.833-2.075c1.471-.02,1.471-.02,1.48-1.483.016-2.451,1.275-3.728,3.713-3.72a13.727,13.727,0,0,1,2.9.1,3.181,3.181,0,0,1,2.7,2.767,3.248,3.248,0,0,1-2,3.327,13.182,13.182,0,0,1-5.26,1.025c-.9.023-1.8.041-2.7.061" transform="translate(-95.641 -19.472)" fill="#ec6262"/>
        <path id="Trazado_134957" data-name="Trazado 134957" d="M101.962,21.715c1.452,2.634,2.53,5.438,3.717,8.193.285.661.54,1.335.86,2.131a531.14,531.14,0,0,1-82.9,0c1.468-3.545,2.85-7.029,4.612-10.348.381.128.454.5.618.793a2.509,2.509,0,0,0,2.857,1.386,2.539,2.539,0,0,0,2.033-2.455c.087-1.489.019-2.983.031-4.475a9.024,9.024,0,0,1,.044-1.247,2.855,2.855,0,0,1,3.06-2.386,2.649,2.649,0,0,1,2.68,2.631c.049,1.665.016,3.331.013,5a5.7,5.7,0,0,0,.315,2.045,2.508,2.508,0,0,0,2.877,1.687,2.4,2.4,0,0,0,2.027-2.416c.054-2.15.017-4.3.016-6.454a9.236,9.236,0,0,1,.217-2.168,3.172,3.172,0,0,1,3.065-2.619,3.357,3.357,0,0,1,3.1,2.5,7.4,7.4,0,0,1,.254,2.059q-.009,2.914,0,5.829a5.692,5.692,0,0,0,.064,1.141,2.71,2.71,0,0,0,2.3,2.116,2.542,2.542,0,0,0,2.545-1.607,4.759,4.759,0,0,0,.329-1.934c0-1.8-.027-3.609.013-5.413a3.11,3.11,0,0,1,1.385-2.761,3.223,3.223,0,0,1,5,2.728c.081,1.975.015,3.955.022,5.933a9.438,9.438,0,0,0,.043,1.247,2.59,2.59,0,0,0,5.174-.225c.057-2.115.008-4.233.02-6.349a9.933,9.933,0,0,1,.15-2.486A2.807,2.807,0,0,1,71,11.623a2.693,2.693,0,0,1,3.135,2.9c.053,2.289.011,4.579.016,6.869a8.949,8.949,0,0,0,.043,1.247,2.727,2.727,0,0,0,2.639,2.474,2.7,2.7,0,0,0,2.534-2.673c.06-1.8,0-3.608.027-5.412a3.358,3.358,0,0,1,.882-2.48,2.673,2.673,0,0,1,3.063-.647,2.625,2.625,0,0,1,1.84,2.525c.011,1.145.009,2.29,0,3.435a7.674,7.674,0,0,0,.235,1.958,2.576,2.576,0,0,0,2.567,2.155,2.837,2.837,0,0,0,2.551-2.241,5.478,5.478,0,0,0,.093-1.243c.006-1.457-.033-2.915.014-4.371a2.7,2.7,0,0,1,2.825-2.821,2.829,2.829,0,0,1,2.945,2.856c.054,1.8.012,3.608.016,5.412a3.311,3.311,0,0,0,.549,1.971,2.475,2.475,0,0,0,2.612,1.126,2.368,2.368,0,0,0,1.986-1.891c.091-.363.072-.771.387-1.052" transform="translate(-11.813 -5.502)" fill="#3aa1ea"/>
        <path id="Trazado_134958" data-name="Trazado 134958" d="M106.568,17.886a2.868,2.868,0,0,1-1.642,3.074,2.69,2.69,0,0,1-2.768-.218,3.136,3.136,0,0,1-1.423-2.732c.007-1.908.01-3.816,0-5.724a2.5,2.5,0,0,0-2.671-2.546,2.371,2.371,0,0,0-2.529,2.538c-.013,1.631.006,3.261-.006,4.892a3.261,3.261,0,0,1-2.9,3.353c-1.421.115-2.582-1.016-2.952-2.776a31.454,31.454,0,0,1-.173-5.18,2.644,2.644,0,0,0-2.147-2.407,2.423,2.423,0,0,0-2.863,1.787c-.46,2.192-.122,4.42-.188,6.631a3.043,3.043,0,0,1-.678,1.911,2.861,2.861,0,0,1-3.059,1.018,3.145,3.145,0,0,1-2.1-2.933c-.021-2.567-.005-5.134-.007-7.7,0-1.768-.848-2.778-2.338-2.8a2.566,2.566,0,0,0-2.856,2.791c-.035,2.6-.007,5.2-.011,7.806a2.921,2.921,0,1,1-5.825,0c-.016-2.22,0-4.44-.006-6.661a3.239,3.239,0,0,0-2.877-3.243,2.94,2.94,0,0,0-2.949,3.2c-.008,1.943.026,3.886-.013,5.828a3.247,3.247,0,0,1-1.46,2.921,2.566,2.566,0,0,1-2.839.068,2.737,2.737,0,0,1-1.515-2.437c-.015-2.359.011-4.718-.013-7.077A4.016,4.016,0,0,0,54.63,8.266a2.515,2.515,0,0,0-2.554-.723,2.658,2.658,0,0,0-2.1,2.062,9.477,9.477,0,0,0-.252,2.155c.036,2.185.018,4.371.01,6.556a2.726,2.726,0,0,1-2.315,2.87,2.831,2.831,0,0,1-3.27-2.089,6.069,6.069,0,0,1-.256-1.737c.034-1.734.018-3.469.01-5.2a2.368,2.368,0,0,0-2.535-2.417A2.505,2.505,0,0,0,38.7,12.187c-.02,1.665,0,3.33-.006,5,0,1.9-.887,3-2.65,3.249a2.8,2.8,0,0,1-3.1-2.38.957.957,0,0,0-.088-.188,56.842,56.842,0,0,1,3.989-7.514,13.315,13.315,0,0,1,10.63-6.214,292.869,292.869,0,0,1,30.261-.69A145.875,145.875,0,0,1,93,4.28a12.869,12.869,0,0,1,9.645,6.173,56.569,56.569,0,0,1,3.92,7.433" transform="translate(-16.419 -1.673)" fill="#168ce1"/>
        <path id="Trazado_134959" data-name="Trazado 134959" d="M83.317,85.241q11.131,0,22.262,0c1.174,0,1.179.011.593,1.04-1.2,2.107-2.415,4.2-3.6,6.32a1.312,1.312,0,0,1-1.311.756q-18-.032-35.993,0a1.312,1.312,0,0,1-1.312-.755c-1.183-2.116-2.4-4.213-3.6-6.32-.586-1.03-.58-1.041.591-1.042q11.183,0,22.366,0" transform="translate(-29.969 -42.593)" fill="#6f6f6f"/>
        <path id="Trazado_134960" data-name="Trazado 134960" d="M163.027,81.054a4.2,4.2,0,0,1-4.178-2.632,4.682,4.682,0,0,1,1.311-5.129,4.56,4.56,0,0,1,1.15-.883c2.742-1.323,5.45-2.739,8.268-3.876a5.764,5.764,0,0,1,7.976,4.417,4.375,4.375,0,0,1-2.869,5.138A48.873,48.873,0,0,1,165,80.79a7.791,7.791,0,0,1-1.971.265" transform="translate(-79.218 -34.011)" fill="#fefefe"/>
        <path id="Trazado_134961" data-name="Trazado 134961" d="M30.932,81.068A43.841,43.841,0,0,1,18.479,77.7a4.224,4.224,0,0,1-2.213-4.356,5.82,5.82,0,0,1,7.759-4.93,67.712,67.712,0,0,1,8.712,4.1c2.433,1.359,3.756,4.725,1.534,7.158a4.092,4.092,0,0,1-3.339,1.4" transform="translate(-8.112 -33.996)" fill="#fefefe"/>
        <path id="Trazado_134962" data-name="Trazado 134962" d="M18.687,120.212c0-.867.019-1.735-.005-2.6a1.02,1.02,0,0,1,1.122-1.185c1.769-.025,3.537-.018,5.306,0a1.14,1.14,0,0,1,1.109.633.992.992,0,0,1-.34,1.206q-2.673,2.7-5.371,5.37a1.05,1.05,0,0,1-1.2.375c-.542-.225-.631-.672-.621-1.194.017-.867,0-1.734.005-2.6" transform="translate(-9.335 -58.167)" fill="#fee11f"/>
        <path id="Trazado_134963" data-name="Trazado 134963" d="M186.731,120.311c0,.9-.009,1.8,0,2.705a.977.977,0,0,1-.618.986.9.9,0,0,1-1.049-.24c-1.9-1.876-3.807-3.746-5.654-5.675a.939.939,0,0,1,.69-1.638c1.9-.082,3.814-.052,5.72,0a.92.92,0,0,1,.911,1.056c-.014.936,0,1.873,0,2.809" transform="translate(-89.493 -58.161)" fill="#fee11f"/>
        <path id="Trazado_134964" data-name="Trazado 134964" d="M181.053,78.955a3.992,3.992,0,1,1,.012-7.983,3.991,3.991,0,1,1-.012,7.983" transform="translate(-88.454 -35.463)" fill="#febc49"/>
        <path id="Trazado_134965" data-name="Trazado 134965" d="M165.892,85.247a2.754,2.754,0,0,1-2.844-2.986,2.955,2.955,0,0,1,2.918-2.879,3,3,0,0,1,2.943,3,2.868,2.868,0,0,1-3.017,2.863" transform="translate(-81.471 -39.665)" fill="#feda6f"/>
        <path id="Trazado_134966" data-name="Trazado 134966" d="M24.041,70.974a3.992,3.992,0,1,1-.176,7.982,3.992,3.992,0,1,1,.176-7.982" transform="translate(-9.968 -35.464)" fill="#febc49"/>
        <path id="Trazado_134967" data-name="Trazado 134967" d="M41.286,85.247a2.862,2.862,0,0,1-3-2.883,3.006,3.006,0,0,1,2.968-2.982,2.877,2.877,0,0,1,2.893,2.894,2.757,2.757,0,0,1-2.861,2.971" transform="translate(-19.131 -39.665)" fill="#feda6f"/>
      </g>
    </g>
  </g>
</svg>
