<svg xmlns="http://www.w3.org/2000/svg" xmlns:xlink="http://www.w3.org/1999/xlink" width="165" height="116" viewBox="0 0 165 116">
  <defs>
    <clipPath id="clip-path">
      <rect id="Rect치ngulo_38045" data-name="Rect치ngulo 38045" width="85.052" height="105.2" fill="none"/>
    </clipPath>
  </defs>
  <g id="_39" data-name="39" transform="translate(8239 4016)">
    <rect id="Rect치ngulo_37642" data-name="Rect치ngulo 37642" width="165" height="116" transform="translate(-8239 -4016)" fill="#c4d1ff"/>
    <g id="Grupo_158843" data-name="Grupo 158843" transform="translate(-8199 -4011)">
      <g id="Grupo_158842" data-name="Grupo 158842" clip-path="url(#clip-path)">
        <path id="Trazado_135072" data-name="Trazado 135072" d="M49.325,0a27.345,27.345,0,0,0,4.105.6c5.595.946,10.79,2.754,14.979,6.784A17.65,17.65,0,0,1,72,12.09c-.918.642-1.951.263-2.933.334-2.393.052-4.786.005-7.18.024-1.272.011-1.341.071-1.343,1.329-.009,3.761,0,7.523,0,11.285a6.274,6.274,0,0,1-.091,1.529c-.355.8-.847.341-1.241.084A21.875,21.875,0,0,1,54.245,22.1c-1.482-1.811-1.449-1.857-3.426-.648a51.531,51.531,0,0,1-14.867,5.781,1.483,1.483,0,0,1-.91.019.521.521,0,0,1-.24-.228,3.447,3.447,0,0,1-.148-1.415c0-3.447-.09-6.9.022-10.342A26.134,26.134,0,0,1,36.6,5.171,8.066,8.066,0,0,1,41.433.415a.766.766,0,0,1-.772-.234A.367.367,0,0,0,40.7,0Z" transform="translate(-11.365)" fill="#e17d47"/>
        <path id="Trazado_135073" data-name="Trazado 135073" d="M34.528,118c-1.941-.005-3.882,0-5.823-.026-.307,0-.687.189-.924-.2a1.873,1.873,0,0,1,1.364-.309q2.051-.017,4.1,0c.711,0,.954-.273.879-1a99.011,99.011,0,0,1-.478-13.918c.2-5.2.664-10.373,2.626-15.278a5.2,5.2,0,0,1,.75-1.45c.433-.369.844-.061,1.243.068a13.615,13.615,0,0,0,10.624-.651,8.076,8.076,0,0,0,4.455-5.3,8.387,8.387,0,0,1,3.259-.91c.542.288.725.877,1.075,1.323a7.416,7.416,0,0,0,3.349,2.565,10.332,10.332,0,0,0,7.106-.243c.84-.289,1.619-.724,2.454-1.026,1.039-.134,1.767.633,2.661.92A9.418,9.418,0,0,1,76.026,84.1a2.124,2.124,0,0,1-.719,1.022,15.012,15.012,0,0,1-6.988,3.655,21.668,21.668,0,0,1-9.052.153,8.486,8.486,0,0,0-1.519-.226c-.989,0-1.378.445-1.244,1.407.046.331.227.656.037,1,.375,2.253.822,4.5,1.113,6.761a85.61,85.61,0,0,1,.583,16.677c-.057.852-.212,1.7-.214,2.551,0,.77-.364.866-1.014.858-1.949-.027-3.9.007-5.849.017a2.079,2.079,0,0,1-1.36.342q-7,0-14.007,0a1.934,1.934,0,0,1-1.265-.31" transform="translate(-9.121 -25.944)" fill="#6ec07d"/>
        <path id="Trazado_135074" data-name="Trazado 135074" d="M85.719,18.044,88.661,18q7.077.021,14.154.042c3.077.006,6.155.029,9.232-.017.8-.012,1.036.2,1.031,1.018-.036,5.984.009,11.968-.03,17.952A20.586,20.586,0,0,1,99.274,56.331c-.482.173-.962.349-1.443.525-.544-.214-.607-.79-.889-1.2a5.063,5.063,0,0,0-1.114-1.319c-1.6-.94-2.17-.89-3.566.318-.257.223-.494.484-.879.467A4.608,4.608,0,0,1,89.355,52.9a22.592,22.592,0,0,1-2.883-7.3A1.108,1.108,0,0,1,86.5,44.7c.03-.016.067-.053.089-.046,1.4.463,2.319-.371,3.356-1.114a8.662,8.662,0,0,1,10.571.325,9.288,9.288,0,0,0,.909.668,1.226,1.226,0,0,0,1.75-.183,1.191,1.191,0,0,0-.112-1.672,8.628,8.628,0,0,0-2.461-1.988,11.678,11.678,0,0,0-13.068,1.292,7.222,7.222,0,0,0-.965,1.06c-.165.214-.363.478-.617.068a25.459,25.459,0,0,1-.422-7.248c.278-.5.74-.4,1.179-.349a6.045,6.045,0,0,0,6.619-4.725,4.3,4.3,0,0,0,.114-.811c.029-.977-.382-1.577-1.143-1.67-.71-.086-1.211.336-1.4,1.312a3.957,3.957,0,0,1-1.488,2.6,3.17,3.17,0,0,1-2.618.593c-.62-.124-1.19-.363-1.34-1.094-.152-4.244-.047-8.488-.056-12.731a1.279,1.279,0,0,1,.326-.946" transform="translate(-28.026 -5.91)" fill="#f0d233"/>
        <path id="Trazado_135075" data-name="Trazado 135075" d="M29.3.271H30.69c.107.163.05.241-.044.271-3.563,1.15-5.132,3.972-6.018,7.3a32.923,32.923,0,0,0-1.047,8.471q-.005,5.435-.009,10.869c-.273.484-.781.529-1.238.622a75.208,75.208,0,0,1-9.028,1.325c-.579.046-1.069.064-1.145.841a62.813,62.813,0,0,0,.232,13.709c.532,4.345,3.151,7.316,7.09,9.142a3.922,3.922,0,0,1,.9.473c.236.212.173.425-.025.609a25.054,25.054,0,0,0-2.89,3.159.449.449,0,0,1-.453.173A29.593,29.593,0,0,1,4.908,55.129,16.567,16.567,0,0,1,.438,52.466c-.256-.221-.676-.4-.265-.885,1.947-2.318,2.37-5.161,2.663-8.025.546-5.32.389-10.663.412-16,.021-5.249.774-10.347,3.309-15.036,3-5.549,7.78-8.846,13.7-10.661A35.544,35.544,0,0,1,29.3.271" transform="translate(0 -0.089)" fill="#dc542e"/>
        <path id="Trazado_135076" data-name="Trazado 135076" d="M22.638,83.238a22.419,22.419,0,0,1,3.455-3.707c1.743-.242,2.522.165,3.149,1.712a7.672,7.672,0,0,0,3.506,3.845c.369.21.855.306.965.828a34.811,34.811,0,0,0-2.826,10.7,82.655,82.655,0,0,0-.4,13.9,41.4,41.4,0,0,0,.541,6.6c.131.633-.185.829-.8.819-1.982-.03-3.966-.013-5.949-.015a33.139,33.139,0,0,1-.482-5.4,6.766,6.766,0,0,1-.338-4c.3-2.356.256-2.411-2.112-2.413-1.022,0-2.045.015-3.067-.01-.442-.011-.9-.012-1.168-.471.071-7.22,1.008-14.249,4.556-20.7.312-.568.645-1.123.968-1.684" transform="translate(-5.619 -26.089)" fill="#528d61"/>
        <path id="Trazado_135077" data-name="Trazado 135077" d="M37.826,137.031,54.458,137a36.214,36.214,0,0,1-.992,3.506,2.449,2.449,0,0,1-1.673.3c-2.886.042-2.507-.337-2.545,2.593a5.529,5.529,0,0,1-.115,1.628.729.729,0,0,1-.217.3,5.053,5.053,0,0,1-2.737.06.588.588,0,0,1-.258-.242,11.433,11.433,0,0,1-.152-3.031c-.041-1.3-.17-1.408-1.75-1.305-.895.058-.907.189-.84,1.407.055,1.023.566,2.054.03,3.086a3.089,3.089,0,0,1-1.666.235c-.549-.111-1.188.179-1.641-.364l-2.076-8.139" transform="translate(-12.419 -44.978)" fill="#e9ab9c"/>
        <path id="Trazado_135078" data-name="Trazado 135078" d="M16.776,118.412a28.728,28.728,0,0,0,5.49.112c1.042-.016,1.364.259,1.267,1.3a26.167,26.167,0,0,0-.072,5.484c-.229-.418-.562-.371-.959-.269a12.115,12.115,0,0,1-3.638.322,2.659,2.659,0,0,1-2.772-2.855,13.249,13.249,0,0,1,.683-4.093" transform="translate(-5.281 -38.876)" fill="#e9ab9c"/>
        <path id="Trazado_135079" data-name="Trazado 135079" d="M70.388,94.08a8.988,8.988,0,0,1-.38-1.055,1.229,1.229,0,0,1,1.348-1.644c1.078.066,2.147.281,3.221.418,5.091.654,9.815-.182,13.93-3.457a.885.885,0,0,1,.646-.246c-3.127,3.965-7.014,6.652-12.18,7.09a13.844,13.844,0,0,1-6.585-1.107" transform="translate(-22.967 -28.922)" fill="#528e61"/>
        <path id="Trazado_135080" data-name="Trazado 135080" d="M99.075,71.829a5.763,5.763,0,0,1,1.879,2.669,8.712,8.712,0,0,1-2.9,7.207L95.2,80.4a3.584,3.584,0,0,1-.167-2.578,12.263,12.263,0,0,1,3.081-5.658c.23-.271.521-.57.961-.33" transform="translate(-31.149 -23.553)" fill="#fecabd"/>
        <path id="Trazado_135081" data-name="Trazado 135081" d="M57.665,149.035a5.032,5.032,0,0,1,5.237,4.2c.1.654-.061.772-.635.767-2.693-.021-5.386-.02-8.078-.028-.626-1.139-.2-2.372-.306-3.557a1.613,1.613,0,0,1,.318-1.333l.008-.07a4.85,4.85,0,0,1,3.457.016" transform="translate(-17.675 -48.822)" fill="#9cc5fa"/>
        <path id="Trazado_135082" data-name="Trazado 135082" d="M41.425,149.082l1.638-.042a3.433,3.433,0,0,1,2.889-.013l.02.073a8.577,8.577,0,0,1-.007,4.863H37.7a1.645,1.645,0,0,1-.054-1.646,4.554,4.554,0,0,1,3.778-3.236" transform="translate(-12.296 -48.824)" fill="#9cc5fa"/>
        <path id="Trazado_135083" data-name="Trazado 135083" d="M57.831,146.9l-3.457-.016c0-1.227.048-2.457-.028-3.68-.054-.862.3-1.04,1.066-1.006,1.157.052,2.317.015,3.476.017L57.831,146.9" transform="translate(-17.841 -46.682)" fill="#fecabd"/>
        <path id="Trazado_135084" data-name="Trazado 135084" d="M39.962,149.229a6.185,6.185,0,0,0-3.156,2.436,4.615,4.615,0,0,0-.568,2.446c-.786.013-1.576-.013-2.357.051-.823.069-1.008-.23-.815-1a4.988,4.988,0,0,1,4.843-3.951c.136-.007.271-.03.408-.044l1.646.065" transform="translate(-10.833 -48.972)" fill="#7398d2"/>
        <path id="Trazado_135085" data-name="Trazado 135085" d="M50.127,154.147q0-2.432.007-4.864l2.849-.009q-.007,2.445-.013,4.891l-2.844-.018" transform="translate(-16.457 -49.008)" fill="#7398d2"/>
        <path id="Trazado_135086" data-name="Trazado 135086" d="M58.623,62.993l-3.209.8a1.652,1.652,0,0,1-1.166.3c-4.137-.042-8.267.317-12.407.222-3.222-.073-4.824-1.122-6-4.139a31.636,31.636,0,0,1-1.664-6.97c-.308-2.1.029-4.23-.43-6.315a1.826,1.826,0,0,1,.105-1.01.722.722,0,0,1,.661-.41c1.063-.109,1.5-.814,1.744-1.748a3.069,3.069,0,0,0-1.417-3.61,2.178,2.178,0,0,1,.018-3.207c6.083-1.424,11.956-3.367,17.134-7,.559-.392.753-.077,1.034.32a23.4,23.4,0,0,0,6.329,6.2,4.956,4.956,0,0,0,.545.269,1.069,1.069,0,0,1,.306.936,30.982,30.982,0,0,0,1.072,9.9c-.345.67-.774.166-1.115.032a4.456,4.456,0,0,0-3.58.026,1.493,1.493,0,0,0-1.075,1.36c0,.676.485,1.025,1,1.318a3.786,3.786,0,0,0,4.457-.551c.22-.208.384-.487.7-.573.355.045.5.328.631.6a20.147,20.147,0,0,0,3.116,4.6,2.347,2.347,0,0,1,.625,1.03,9.81,9.81,0,0,1-3.285,5.392A11.507,11.507,0,0,1,59.4,62.883c-.247.107-.492.255-.776.111" transform="translate(-11.069 -9.758)" fill="#fecabd"/>
        <path id="Trazado_135087" data-name="Trazado 135087" d="M29.486,40.385a5.873,5.873,0,0,0-.432,1.946.969.969,0,0,0,.634,1.089,2.78,2.78,0,0,0-2.069,2.112,3.876,3.876,0,0,0,.547,2.818c.17.287.472.5.5.867a6.186,6.186,0,0,0,.32,2.72,1.178,1.178,0,0,1,.071.6,24.408,24.408,0,0,0,1.2,9.515,9.549,9.549,0,0,0,2.124,4.139,4.181,4.181,0,0,0,3.127,1.262c2.562.056,5.137.165,7.686-.027,2.288-.172,4.568-.087,6.849-.152-.292,2.477-1.876,4.052-3.88,5.187a13.715,13.715,0,0,1-12.371.608c-1.923-.954-3.8-2.086-4.494-4.205a2.566,2.566,0,0,0-2.641-2.035,2.157,2.157,0,0,1-.484-.145,12.185,12.185,0,0,1-8.26-9,11.591,11.591,0,0,1-.35-2.626c-.035-2.836-.3-5.666-.183-8.5.05-1.262.154-2.523.174-3.785.011-.708.443-.727.95-.754a72.316,72.316,0,0,0,10.183-1.478,4.632,4.632,0,0,0,.582-.2l.22.047" transform="translate(-5.696 -13.243)" fill="#e9ab9c"/>
        <path id="Trazado_135088" data-name="Trazado 135088" d="M73.922,43.914c-1.367-3.582-1.245-7.329-1.227-11.065.005-4.576.03-9.153,0-13.73-.006-.834.2-1.124,1.075-1.1,2.595.059,5.192.029,7.787.034q-.01,6.991-.02,13.983c-.862-.087-1.153-.75-1.4-1.429a10.141,10.141,0,0,1-.268-1.2A1.194,1.194,0,0,0,78.5,28.317a1.416,1.416,0,0,0-1.2,1.54,6.012,6.012,0,0,0,2.692,4.715c.517.367,1.227.476,1.546,1.116a67.328,67.328,0,0,0,.447,7.647,1.546,1.546,0,0,1,.422,1.324,21.706,21.706,0,0,0,3.953,9.472,7.5,7.5,0,0,0,.954.906,1.385,1.385,0,0,1-.789,1.495,16.472,16.472,0,0,1-6.288-3.4c-.578-.45-1.28-.8-1.508-1.594a24.906,24.906,0,0,1-4.2-6.178,1.3,1.3,0,0,1-.608-1.443" transform="translate(-23.863 -5.914)" fill="#e6a52e"/>
        <path id="Trazado_135089" data-name="Trazado 135089" d="M78.112,67.92a24.375,24.375,0,0,0,7.746,4.91.408.408,0,0,1,.124.372c-.548,1.5-.658,3.107-1.1,4.633a18.64,18.64,0,0,1-6.561,1.657,7.929,7.929,0,0,1-3.321-.05,7.55,7.55,0,0,1-4.2-3.908,12.238,12.238,0,0,0,7.314-7.614" transform="translate(-23.244 -22.299)" fill="#e17d47"/>
        <path id="Trazado_135090" data-name="Trazado 135090" d="M91.657,78.648a14.728,14.728,0,0,1,1.049-4.9,5.187,5.187,0,0,0,.839-1.41c.247-.226.5-.448.738-.681,1.235-1.2,2.308-1.248,3.735-.165-1.4.687-1.953,2.1-2.734,3.293a8.235,8.235,0,0,0-1.141,5.274,19.886,19.886,0,0,0-2.416-1.034c-.095-.113-.066-.249-.07-.379" transform="translate(-30.091 -23.217)" fill="#e9ab9c"/>
        <path id="Trazado_135091" data-name="Trazado 135091" d="M86.861,82.524c.238.088.118.24.069.38a13.127,13.127,0,0,1-7.764,1.936,4.815,4.815,0,0,1-2.12-.6,32.1,32.1,0,0,0,9.815-1.713" transform="translate(-25.295 -27.093)" fill="#fcfcfb"/>
        <path id="Trazado_135092" data-name="Trazado 135092" d="M86.957,54.926a2.949,2.949,0,0,1-.422-1.324,4.3,4.3,0,0,1,.71-1.1,11.864,11.864,0,0,1,16.241.015,1.646,1.646,0,0,1,.581,1.826,1.569,1.569,0,0,1-2.665.535,9.115,9.115,0,0,0-4-2.18A8.465,8.465,0,0,0,89.666,54.6c-1.135.981-1.454,1.034-2.71.322" transform="translate(-28.41 -16.182)" fill="#fefefe"/>
        <path id="Trazado_135093" data-name="Trazado 135093" d="M114.057,34.711a6.247,6.247,0,0,1-12.338,1.134,5.379,5.379,0,0,1-.161-1.517,1.487,1.487,0,0,1,1.458-1.457,1.47,1.47,0,0,1,1.642,1.231,12.929,12.929,0,0,0,.277,1.394,3.041,3.041,0,0,0,3.325,1.99,3.128,3.128,0,0,0,2.671-2.941c.164-1.355,1.161-2.052,2.233-1.546a1.555,1.555,0,0,1,.891,1.711" transform="translate(-33.339 -10.78)" fill="#fefefe"/>
        <path id="Trazado_135094" data-name="Trazado 135094" d="M83.667,40.557a8.765,8.765,0,0,1-2.949-1.987,6.225,6.225,0,0,1-1.556-4.021,1.59,1.59,0,0,1,1.454-1.682A1.527,1.527,0,0,1,82.283,34.3a3.156,3.156,0,0,0,1.378,2.6c1.462,1.362,4.4.458,4.8-1.944a2,2,0,0,0,.077-.4,1.6,1.6,0,0,1,1.747-1.7c.94.105,1.439.848,1.392,2.041a6.29,6.29,0,0,1-7.1,5.744c-.3-.049-.61-.056-.915-.082" transform="translate(-25.989 -10.784)" fill="#fefefe"/>
        <path id="Trazado_135095" data-name="Trazado 135095" d="M48.476,146.893l-2.89.013c-.112-1.046-.173-2.1-.349-3.136-.236-1.386-.136-1.554,1.244-1.555,1.988,0,1.988,0,1.989,2.009,0,.89,0,1.779.006,2.669" transform="translate(-14.819 -46.69)" fill="#fdcabd"/>
        <path id="Trazado_135096" data-name="Trazado 135096" d="M47.285,64.034a6.7,6.7,0,0,1-5.719-3.417,1.58,1.58,0,0,1,.455-2.4,1.652,1.652,0,0,1,2.256.743c1.637,2.486,4.39,2.49,5.973.009a1.659,1.659,0,0,1,2.255-.76,1.6,1.6,0,0,1,.52,2.305,6.7,6.7,0,0,1-5.74,3.517" transform="translate(-13.534 -19.046)" fill="#d94a54"/>
        <path id="Trazado_135097" data-name="Trazado 135097" d="M71.623,56.159q.3.722.608,1.444a4.018,4.018,0,0,1-5.493,1.231c-.555-.33-1.094-.718-1.055-1.5a1.731,1.731,0,0,1,1.157-1.546,4.808,4.808,0,0,1,4.782.375" transform="translate(-21.564 -18.159)" fill="#e3989c"/>
        <path id="Trazado_135098" data-name="Trazado 135098" d="M33.513,50.724A3.556,3.556,0,0,1,32.285,46.7a2.031,2.031,0,0,1,2.25-1.769,3.63,3.63,0,0,1,.774,5.277c-.517.58-1.163.472-1.8.519" transform="translate(-10.542 -14.75)" fill="#544f57"/>
        <path id="Trazado_135099" data-name="Trazado 135099" d="M66.35,47.9a4.605,4.605,0,0,1-.377,1.652,1.813,1.813,0,0,1-1.632,1.2,1.724,1.724,0,0,1-1.556-1.147,3.831,3.831,0,0,1,.04-3.633,1.7,1.7,0,0,1,1.5-1.067A1.729,1.729,0,0,1,65.915,46a4.193,4.193,0,0,1,.435,1.9" transform="translate(-20.469 -14.743)" fill="#544f57"/>
      </g>
    </g>
  </g>
</svg>
