<svg xmlns="http://www.w3.org/2000/svg" xmlns:xlink="http://www.w3.org/1999/xlink" width="240.048" height="255.473" viewBox="0 0 240.048 255.473">
  <defs>
    <clipPath id="clip-path">
      <rect id="Rect치ngulo_38031" data-name="Rect치ngulo 38031" width="145.416" height="203.001" fill="none"/>
    </clipPath>
  </defs>
  <g id="_4" data-name="4" transform="translate(-0.048 -33)">
    <g id="Grupo_87689" data-name="Grupo 87689" transform="translate(0.048 33)">
      <g id="Grupo_87397" data-name="Grupo 87397">
        <path id="Rect치ngulo_34437" data-name="Rect치ngulo 34437" d="M0,0H163.048a77,77,0,0,1,77,77V255.472a0,0,0,0,1,0,0H0a0,0,0,0,1,0,0V0A0,0,0,0,1,0,0Z" fill="#ffdfe0"/>
      </g>
    </g>
    <g id="Grupo_158803" data-name="Grupo 158803" transform="translate(47.048 59)">
      <g id="Grupo_158803-2" data-name="Grupo 158803" clip-path="url(#clip-path)">
        <path id="Trazado_134797" data-name="Trazado 134797" d="M97.343,154.636a101.2,101.2,0,0,1,29.889,14.035c4.722,3.287,9.1,6.979,12.089,12.015a11.06,11.06,0,0,1,1.987,6.5H.173c-.15-4.633,2.595-7.933,5.391-11.064,4.655-5.215,10.429-9.02,16.51-12.4a106.315,106.315,0,0,1,22.039-9.1c1.973,1.795,3.064,4.22,4.514,6.383,1.939,2.9,3.761,5.88,5.682,8.793,1.07,1.626,1.187,1.624,2.62.2,3.873-3.857,7.726-7.736,11.6-11.587.594-.59,1.078-1.359,2.023-1.5a.724.724,0,0,1,.483.385,2.241,2.241,0,0,1,.2.642c.205,7.666.183,15.328-.289,22.8a3.2,3.2,0,0,1,0-.52c.308-6.174.664-12.344,1.273-18.494.8-2.384,1.12-2.47,2.922-.73,3.168,3.059,6.158,6.3,9.5,9.18,1.231,1.061,1.674.863,2.477-.4,2.858-4.5,5.715-8.991,8.648-13.439.422-.639.715-1.434,1.565-1.693" transform="translate(0.017 15.814)" fill="#b3ddf5"/>
        <path id="Trazado_134798" data-name="Trazado 134798" d="M69.4,168.037a.92.92,0,0,0-.31-.043,2.419,2.419,0,0,1-1.649-.548c-3.87-2.39-7.775-4.72-11.626-7.139-.44-.277-.919-.541-1.039-1.125a31.968,31.968,0,0,1,.042-4.54c.287-1.976-.655-2.638-2.354-3.025a44.039,44.039,0,0,1-15.109-6.561c-8.5-5.786-14.166-13.766-17.916-23.24-1.092-2.759-1.78-5.637-2.758-8.427a3.028,3.028,0,0,1-1.019-1.865,118.207,118.207,0,0,1-2.633-16.163A2.863,2.863,0,0,1,13.221,94c6.768-6.508,7.769-15.064,7.99-23.7.13-5.091,1.1-9.7,4.258-13.7,3.408-4.311,8.025-7,12.95-9.205,1.11-.5,2.214-.044,3.295.227C51.9,50.188,62.108,52.645,72.5,54.236A170.4,170.4,0,0,0,96.316,56.52c5.441.063,10.819.888,15.434,4.2,5.532,3.972,8.1,9.755,9.73,16.092,1.007,3.912,1.367,7.936,2.018,11.91a10.7,10.7,0,0,0,1.771,4.987c.7,1.735.172,3.491.03,5.225a83.18,83.18,0,0,1-1.955,11.42c-.247,1.1-.224,2.209-.4,3.3-1.39-.1-1.315,1.079-1.539,1.882a57.548,57.548,0,0,1-9.012,18.965,44.586,44.586,0,0,1-24.834,16.833c-.19.052-.392.056-.583.1-2.878.742-2.873.743-2.879,3.775,0,1.318-.028,2.637-.042,3.955a1.494,1.494,0,0,1-.859,1.025c-4.2,2.488-8.275,5.165-12.511,7.585-.385.22-.783.53-1.28.255" transform="translate(1.331 4.825)" fill="#fccb9a"/>
        <path id="Trazado_134799" data-name="Trazado 134799" d="M125.479,98.74c-2.158-2.168-1.933-5.093-2.346-7.766-.874-5.677-1.679-11.35-4.238-16.591-3.729-7.635-9.9-11.873-18.3-12.133-20.021-.622-39.52-4.294-58.808-9.383a5.063,5.063,0,0,0-3.925.411c-4.908,2.546-9.548,5.376-12.614,10.195a16.438,16.438,0,0,0-2.82,9.126,48.7,48.7,0,0,1-3.543,20.1c-1.043,2.429-2.17,4.85-4.794,6.054-1.619.874-2.621-.229-3.236-1.339a17.5,17.5,0,0,1-2.35-9.83A233.327,233.327,0,0,1,7.841,56.7a49.433,49.433,0,0,1,4.988-21.206A49.671,49.671,0,0,1,34.634,13.77C47.414,7.006,61.141,5.108,75.35,6.481s28.213.261,42.176-2.3c7.136-1.31,14.2-2.988,21.393-4a15.2,15.2,0,0,1,2.959-.16c2.555.144,3.263,1.208,2.417,3.654-1.206,3.49-3.752,6.031-6.3,8.526a91.061,91.061,0,0,1-10.477,8.451c.279,1.124,1.017.384,1.572.387,3.566-.29,6.963-1.412,10.443-2.121a18.508,18.508,0,0,1,3.114-.494c1.83-.055,2.39.786,1.658,2.5a18.1,18.1,0,0,1-4.319,5.846,42.458,42.458,0,0,1-7.628,5.624c-.9.546-1.279.951-1.011,2.125,3.593,15.808,2.96,31.686.689,47.584-.205,1.434-.463,2.86-.7,4.291.177,3.913-1.231,7.4-2.985,10.768-.551,1.055-1.246,2.287-2.875,1.581" transform="translate(0.781 0)" fill="#d86e27"/>
        <path id="Trazado_134800" data-name="Trazado 134800" d="M114.781,90.724c1.555.042,2.128-1.138,2.71-2.245,1.668-3.172,2.354-6.657,3.149-10.1-.141,1.109.762,1.421,1.454,1.866a17.26,17.26,0,0,1,2.53,26.956,12.473,12.473,0,0,1-11.831,3.269,1.326,1.326,0,0,1-.514-1.477,128.216,128.216,0,0,0,2.339-13.266,19.98,19.98,0,0,0,.162-5" transform="translate(11.479 8.016)" fill="#fbbb84"/>
        <path id="Trazado_134801" data-name="Trazado 134801" d="M9.282,79.46c.758,2.688.926,5.525,2.005,8.133.671,1.621,1.462,3.117,3.581,3.037a114.464,114.464,0,0,0,3.147,19.456c-6.889,1.96-13.13-1.221-16.468-8.392C-2.3,93.423,1.314,83.025,9.282,79.46" transform="translate(0 8.127)" fill="#fbbb84"/>
        <path id="Trazado_134802" data-name="Trazado 134802" d="M64.172,157.646l14.649-8.865c5.091.109,8.536,3.276,11.976,6.453-3.491,5.5-6.994,11-10.464,16.511-.753,1.2-1.246.56-1.953-.06-3.726-3.262-7.17-6.812-10.631-10.342-.845-.862-1.183-.582-1.549.3a29.938,29.938,0,0,0-2-3.589c-.011-.136-.021-.271-.032-.407" transform="translate(6.563 15.217)" fill="#80cdf2"/>
        <path id="Trazado_134803" data-name="Trazado 134803" d="M52.016,148.788,66.33,157.6c-4.724,4.788-9.461,9.566-14.161,14.379-.784.8-1.2.461-1.66-.262q-5.235-8.254-10.475-16.5c3.434-3.188,6.894-6.325,11.982-6.427" transform="translate(4.095 15.218)" fill="#80cdf2"/>
        <path id="Trazado_134804" data-name="Trazado 134804" d="M118.023,19.121a1.883,1.883,0,0,1-1.8.311c-.922-.4.01-.5.233-.7.413.576,1.073.157,1.572.388" transform="translate(11.846 1.916)" fill="#efc6aa"/>
        <path id="Trazado_134805" data-name="Trazado 134805" d="M64.2,157.192c1.335.823,2.232,1.89,2,3.589-.267,7.008-1.082,13.97-2,20.943Z" transform="translate(6.566 16.077)" fill="#65c7f1"/>
        <path id="Trazado_134806" data-name="Trazado 134806" d="M61.538,183.152c-1.52-.071-2.38-.754-2.364-2.187a2.017,2.017,0,0,1,2.077-2.158A2.038,2.038,0,0,1,63.492,181a2.005,2.005,0,0,1-1.953,2.155" transform="translate(6.052 18.288)" fill="#66c7f1"/>
        <path id="Trazado_134807" data-name="Trazado 134807" d="M61.192,162.531c1.383.209,2.273.86,2.291,2.168a2.154,2.154,0,1,1-4.307.036c0-1.348.939-1.916,2.016-2.2" transform="translate(6.052 16.623)" fill="#65c7f1"/>
        <path id="Trazado_134808" data-name="Trazado 134808" d="M64.371,182.547a1.323,1.323,0,0,1,.006-1.357,1.138,1.138,0,0,1-.006,1.357" transform="translate(6.565 18.532)" fill="#8dd2f3"/>
        <path id="Trazado_134809" data-name="Trazado 134809" d="M45.889,90.329a6.4,6.4,0,0,1-6.229,6.583c-3.285-.062-5.982-3.046-5.994-6.63-.012-3.638,2.834-6.754,6.143-6.728,3.342.026,6.122,3.124,6.08,6.776" transform="translate(3.443 8.546)" fill="#3b2519"/>
        <path id="Trazado_134810" data-name="Trazado 134810" d="M49.809,73.829c-.03,1.768-.789,2.37-2.219,1.685a16.4,16.4,0,0,0-13.753-.562c-1.142.453-2.708,1.306-3.628-.09-.972-1.478,0-3.018,1.028-4.108,3.147-3.338,7.228-3.812,11.476-3.18,4.208.626,6.325,2.469,6.967,5.648.052.256.108.511.128.607" transform="translate(3.049 6.887)" fill="#d86e27"/>
        <path id="Trazado_134811" data-name="Trazado 134811" d="M100.258,73.559c.014,1.823-.951,2.171-2.233,1.86-1.6-.387-3.146-.97-4.74-1.377-3.55-.9-6.9-.171-10.18,1.274-.659.291-1.421,1.05-2.162.346a2.6,2.6,0,0,1-.428-2.615,5.974,5.974,0,0,1,3.226-4.282,13.777,13.777,0,0,1,14.079.924,5.112,5.112,0,0,1,2.436,3.87" transform="translate(8.219 6.879)" fill="#d86e27"/>
        <path id="Trazado_134812" data-name="Trazado 134812" d="M96.456,90.174a6.417,6.417,0,0,1-6.07,6.738,6.322,6.322,0,0,1-6.086-6.48c-.064-3.754,2.52-6.749,5.926-6.868,3.3-.116,6.185,2.94,6.23,6.61" transform="translate(8.622 8.546)" fill="#3b2519"/>
        <path id="Trazado_134813" data-name="Trazado 134813" d="M51.882,142.675c3.9.708,7.4.659,10.816,1.1,3.733.483,7.326-.4,10.99-.39a22.39,22.39,0,0,0,2.544-.2c1.124-.128,2.9-1.074,3.22-.278.571,1.421.3,3.232.172,4.862-.067.843-.985.959-1.727.978A51.587,51.587,0,0,1,55.213,144.6c-.983-.44-2.183-.526-3.331-1.927" transform="translate(5.306 14.584)" fill="#fbbb85"/>
        <path id="Trazado_134814" data-name="Trazado 134814" d="M64.922,115.393c-2.53-.511-5.09-.5-7.2-2.1a5.455,5.455,0,0,1-2.133-3.435,1.753,1.753,0,0,1,.2-1.306c.365-.422.847.046,1.231.237a20.592,20.592,0,0,0,6.072,2.248c3.4.514,6.459-.463,9.449-1.937.571-.281,1.271-1.166,1.874-.432.486.591.145,1.487-.158,2.253a6.259,6.259,0,0,1-3.3,3.237c-1.933.982-4.127.664-6.039,1.236" transform="translate(5.682 11.085)" fill="#fbbb85"/>
        <path id="Trazado_134815" data-name="Trazado 134815" d="M50.091,121.409c2.574.69,4.7,1.246,6.818,1.831a34.385,34.385,0,0,0,21.32-1.133c.692-.25,1.777-1.138,2.223-.116.319.729-.843,1.383-1.539,1.819a13.861,13.861,0,0,1-5.185,1.852c-6.5,1.053-12.961,1.211-19.322-.876a7.8,7.8,0,0,1-4.315-3.376" transform="translate(5.123 12.417)" fill="#f6945e"/>
        <path id="Trazado_134816" data-name="Trazado 134816" d="M64.41,130.788a12.426,12.426,0,0,1-1.489-.462c-.675-.3-1.832-.484-1.457-1.454.356-.919,1.061.109,1.621.2a5.327,5.327,0,0,0,3.609-.38c.291-.164.639-.288.837.094a.7.7,0,0,1-.234.876,7.012,7.012,0,0,1-2.887,1.131" transform="translate(6.279 13.142)" fill="#fbbc86"/>
        <path id="Trazado_134817" data-name="Trazado 134817" d="M38.723,87.219a1.636,1.636,0,0,1-1.787,1.646,1.617,1.617,0,0,1-1.761-1.726,1.776,1.776,0,1,1,3.548.08" transform="translate(3.598 8.726)" fill="#f8f7f6"/>
        <path id="Trazado_134818" data-name="Trazado 134818" d="M89.346,87.195a1.7,1.7,0,0,1-1.818,1.67,1.6,1.6,0,0,1-1.754-1.724,1.646,1.646,0,0,1,1.872-1.813,1.749,1.749,0,0,1,1.7,1.867" transform="translate(8.773 8.727)" fill="#faf9f9"/>
      </g>
    </g>
  </g>
</svg>
