<svg xmlns="http://www.w3.org/2000/svg" xmlns:xlink="http://www.w3.org/1999/xlink" width="165" height="116" viewBox="0 0 165 116">
  <defs>
    <clipPath id="clip-path">
      <rect id="Rect치ngulo_38046" data-name="Rect치ngulo 38046" width="81.343" height="100.004" fill="none"/>
    </clipPath>
  </defs>
  <g id="_40" data-name="40" transform="translate(8239 3876)">
    <rect id="Rect치ngulo_37643" data-name="Rect치ngulo 37643" width="165" height="116" transform="translate(-8239 -3876)" fill="#c4d1ff"/>
    <g id="Grupo_158846" data-name="Grupo 158846" transform="translate(-8197 -3868)">
      <g id="Grupo_158845" data-name="Grupo 158845" clip-path="url(#clip-path)">
        <path id="Trazado_135100" data-name="Trazado 135100" d="M88.58,84.627l3.481.047a1.8,1.8,0,0,1,.367,1.391q.012,7.988,0,15.976a2.224,2.224,0,0,1-.233,1.23,2.079,2.079,0,0,1-1.594.353c-2.35.016-4.7-.006-7.049.012-1.167.009-1.267.123-1.295,1.254-.015.6.018,1.192-.024,1.788.04.564.014,1.129.023,1.693.019,1.269.1,1.361,1.41,1.367,2.753.012,5.506-.013,8.258.013a9.554,9.554,0,0,1,3.047.172,1.784,1.784,0,0,1,.6,1.71,13.707,13.707,0,0,1-2.41,7.741,4,4,0,0,0-.766,2.454c.03,2.391.015,4.783.006,7.175a1.763,1.763,0,0,1-.334,1.392q-14.916.008-29.831.033c-.77,0-.835-.313-.83-.931.024-2.821,0-5.642.02-8.463a2.181,2.181,0,0,0-.483-1.446,13.641,13.641,0,0,1-2.768-6.755,10.387,10.387,0,0,1,2.472-8.908,2.547,2.547,0,0,0,.625-1.738q0-8.022,0-16.044A2.407,2.407,0,0,1,61.55,84.6c1.206-.525,2.47-.166,3.705-.243a3.666,3.666,0,0,1,1.289.116,2.017,2.017,0,0,1,.949,1.313c.309.815.787,1.551,1.076,2.373.2,1.682.053,3.371.094,5.057.027,1.1.018,1.1,1.049.755a2.423,2.423,0,0,1,1.026-.2c.56.085.663.578.856.98,1.677,3.5,3.261,7.035,4.9,10.55a.826.826,0,0,0,.309.447c.414-.075.451-.483.58-.773,1.567-3.508,3.34-6.92,4.91-10.427.14-.312.2-.688.566-.858a2.935,2.935,0,0,1,1.214.323c.887.311.92.286.949-.687a44.9,44.9,0,0,1,.092-4.543c.484-1.153.969-2.307,1.554-3.414.176-.334.307-.709.691-.885a1.251,1.251,0,0,1,1.225.143" transform="translate(-20.927 -30.422)" fill="#354766"/>
        <path id="Trazado_135101" data-name="Trazado 135101" d="M88.68,54.205l-1.363.054a3.1,3.1,0,0,1-1.893.28c-.134,0-.267,0-.4,0-1.462-.064-1.629-.213-1.638-1.658-.01-1.855-.042-3.71.022-5.565a15.131,15.131,0,0,1,.087-2.961c.3-.729,1.023-.948,1.616-1.283a3.094,3.094,0,0,0,1.714-3.087c-.089-4.188-.031-8.379-.031-12.569a4.411,4.411,0,0,1,.187-1.643c.037-.134-.242-.062-.1-.055-.585,1.686-1.827,1.882-3.336,1.471A2.882,2.882,0,0,1,81.73,24.5a2.542,2.542,0,0,1,1.6-2.47c1.878-.44,2.979-.023,3.639,1.3a10.8,10.8,0,0,1-.1-3.229,4.536,4.536,0,0,0-2.485-4.5c-4.31-2.623-8.657-5.186-12.963-7.815-1.156-.706-1.17-.706-1.988.431-2.287,3.179-4.549,6.376-6.832,9.559a3.528,3.528,0,0,1-.815.966,1.174,1.174,0,0,1-.316.132c-1.05-.005-2.1.336-3.15-.019C58.018,13.7,59.341,9.07,62.982,5.28A16.542,16.542,0,0,1,75.254.017C78.2,0,81.152-.14,84.033.839A16.974,16.974,0,0,1,95.581,16.87q0,14.4,0,28.793a8.391,8.391,0,0,1-6.64,8.389,1.067,1.067,0,0,0-.261.154" transform="translate(-21.027 0)" fill="#79432a"/>
        <path id="Trazado_135102" data-name="Trazado 135102" d="M111.3,130.577c.01-3.033.032-6.066.017-9.1a2.779,2.779,0,0,1,.562-1.741,12.6,12.6,0,0,0,2.436-9.443c.122-1.152.075-2.308.094-3.462-.036-.666-.037-1.334-.008-2,.035-.784-.32-1.042-1.069-1.049-.676-.006-1.414.212-2.005-.34q-.014-9.294-.029-18.588a9.633,9.633,0,0,1,6.718,1.634,7.9,7.9,0,0,1,3.445,6.468c.066,12.206.023,24.413.045,36.62,0,.771-.186,1.044-1,1.03-3.068-.049-6.138-.027-9.207-.032" transform="translate(-40.161 -30.605)" fill="#d5d5d3"/>
        <path id="Trazado_135103" data-name="Trazado 135103" d="M56.6,87.191q0,8.194.006,16.389a1.534,1.534,0,0,1-.343,1.168,11.173,11.173,0,0,0-3.05,8.7,3.217,3.217,0,0,1-.026.421c-.272-.3-.174-.667-.192-1.01a3.507,3.507,0,0,0-.15-1.1c-.529,1.441-1.048,2.886-1.59,4.323-1.188,3.151-2.211,6.363-3.542,9.461-.633-1.1-.392-2.343-.492-3.506-.385-4.494-.678-9-1.077-13.489a7.941,7.941,0,0,1-.018-.846c-.038-2.206-.046-4.411,0-6.615a25.5,25.5,0,0,0-.238-5.1c-.284-1.074-1.328-1.665-1.71-2.679a1.3,1.3,0,0,1,.349-.924,1.176,1.176,0,0,1,.484-.171c1.622-.058,3.244,0,4.865-.033A6.318,6.318,0,0,0,55.842,88.2c.177-.382.153-.938.757-1.011" transform="translate(-15.942 -31.463)" fill="#d5d5d3"/>
        <path id="Trazado_135104" data-name="Trazado 135104" d="M41.969,119.123c.275,3.278.637,6.551.8,9.835.132,2.663.546,5.308.479,7.982a5.6,5.6,0,0,1-4.733,4.209,5.877,5.877,0,0,1-6.578-4.367,3.52,3.52,0,0,1-.132-1.038q0-8.307.007-16.614a1.747,1.747,0,0,1,1.288-.342q3.789-.016,7.577,0a1.784,1.784,0,0,1,1.292.335" transform="translate(-11.477 -42.862)" fill="#dfdfdd"/>
        <path id="Trazado_135105" data-name="Trazado 135105" d="M29.022,91.4l-.444.068c-.676.5-1.468.146-2.191.3-4.9.017-9.8.009-14.707.006a2.259,2.259,0,0,1-1.522-.306c-1.678-.155-3.375.158-5.045-.249a6.905,6.905,0,0,1-5.1-5.824c-.069-.652.18-.752.747-.75,3.131.01,6.263-.013,9.394-.024,1.106-.561,2.287-.212,3.434-.279q6.724-.067,13.446,0c1.134-.025,2.27-.037,3.4,0a16.792,16.792,0,0,1,3.235.108c.58.295.465.811.375,1.288A6.9,6.9,0,0,1,29.022,91.4" transform="translate(0 -30.417)" fill="#49648d"/>
        <path id="Trazado_135106" data-name="Trazado 135106" d="M66.645,70.324l-1.332-.052a8.819,8.819,0,0,1-3.372-2.95,17.384,17.384,0,0,1-4.084-11.376,55.949,55.949,0,0,1,.07-5.69,1.6,1.6,0,0,1,.176-.3q.022-2.64.045-5.281a7.544,7.544,0,0,1,3.25.042c.621.516.385,1.23.4,1.867a15.091,15.091,0,0,0,7.167,12.755c.5.3,1.1.515,1.28,1.179a19.345,19.345,0,0,1,.062,2.861c.061,1.868.035,3.736.021,5.6-.01,1.393-.182,1.545-1.591,1.613-.131,0-.263,0-.394,0a2.859,2.859,0,0,1-1.694-.272" transform="translate(-20.864 -16.058)" fill="#743b20"/>
        <path id="Trazado_135107" data-name="Trazado 135107" d="M36.268,100.348c.7,1.321.327,2.751.414,4.133.024.386,0,.775,0,1.163a1.621,1.621,0,0,1-1.184.341q-3.9.022-7.791,0a1.742,1.742,0,0,1-1.2-.315,9.935,9.935,0,0,1-6.771-1.724,7.153,7.153,0,0,1-2.585-3.361,1.687,1.687,0,0,1,1.384-.356c5.561-.013,11.123,0,16.684-.012a6.417,6.417,0,0,1,1.044.129" transform="translate(-6.19 -36.164)" fill="#fdc8a2"/>
        <path id="Trazado_135108" data-name="Trazado 135108" d="M31.793,108.735l10.17-.027q0,3.39,0,6.781l-10.156.006-.015-6.76" transform="translate(-11.472 -39.227)" fill="#eaeae8"/>
        <path id="Trazado_135109" data-name="Trazado 135109" d="M35.812,98.65c-.344.371-.794.21-1.2.212q-8.957.025-17.916.027a6.067,6.067,0,0,1-.808-3.374H32.217c.678.165,1.417.188,1.89.823a8.085,8.085,0,0,1,1.7,2.314" transform="translate(-5.734 -34.466)" fill="#fdbf93"/>
        <path id="Trazado_135110" data-name="Trazado 135110" d="M59.783,39.368a16.991,16.991,0,0,1-3.364-.231c-1.965-1-3.347-2.436-3.39-4.772-.045-2.433,1.345-3.942,3.389-4.982a15.694,15.694,0,0,1,3.369-.22,1.591,1.591,0,0,1,.345,1.274q.023,3.828,0,7.657a1.578,1.578,0,0,1-.35,1.273" transform="translate(-19.135 -10.524)" fill="#fdb683"/>
        <path id="Trazado_135111" data-name="Trazado 135111" d="M31.76,53.067l11.443,0a.562.562,0,0,1-.061.594,44.6,44.6,0,0,1-3.187,4.626,1.216,1.216,0,0,1-.322.107c-1.274.1-2.552.019-3.827.065-.41.056-.642-.206-.849-.494-1.094-1.525-2.236-3.016-3.247-4.6a.328.328,0,0,1,.05-.293" transform="translate(-11.437 -19.148)" fill="#dfdfdd"/>
        <path id="Trazado_135112" data-name="Trazado 135112" d="M9.052,58.351,5.316,53.063H16.74a.487.487,0,0,1-.02.5A38.114,38.114,0,0,1,13.463,58.3a1.267,1.267,0,0,1-.337.1,23.7,23.7,0,0,1-4.075-.049" transform="translate(-1.918 -19.148)" fill="#dfdfdd"/>
        <path id="Trazado_135113" data-name="Trazado 135113" d="M19.291,78.509H15.884q.008-5.392.015-10.784a4.342,4.342,0,0,1,3.449-.017,1.619,1.619,0,0,1,.265,1q.035,4.362,0,8.725a1.406,1.406,0,0,1-.323,1.077" transform="translate(-5.732 -24.306)" fill="#dfdfdd"/>
        <path id="Trazado_135114" data-name="Trazado 135114" d="M44.725,58.088c.885-1.789,2.232-3.287,3.18-5.037l5.473-.021v.235a27.757,27.757,0,0,1-3.113,4.622,1.266,1.266,0,0,1-.8.488,31.894,31.894,0,0,1-3.789.058,1.09,1.09,0,0,1-.953-.345" transform="translate(-16.139 -19.136)" fill="#d5d5d3"/>
        <path id="Trazado_135115" data-name="Trazado 135115" d="M18.215,58.1c.885-1.789,2.232-3.287,3.18-5.037l5.5,0c0,.06,0,.12,0,.18-1.089,1.881-2.08,3.837-3.931,5.139a31.6,31.6,0,0,1-3.8.059,1.092,1.092,0,0,1-.955-.344" transform="translate(-6.573 -19.148)" fill="#d5d5d3"/>
        <path id="Trazado_135116" data-name="Trazado 135116" d="M16.9,60.943l5.045.074c.139.313-.056.546-.211.766-.726,1.031-1.474,2.047-2.2,3.081a1.06,1.06,0,0,1-.735.546H15.429a4.99,4.99,0,0,1-.847-1.266,7.424,7.424,0,0,1,2.11-3.132l.212-.069" transform="translate(-5.262 -21.991)" fill="#dd4132"/>
        <path id="Trazado_135117" data-name="Trazado 135117" d="M15.457,61.013l-2.11,3.132L11.16,61.2c1.416-.46,2.864-.133,4.3-.182" transform="translate(-4.027 -21.992)" fill="#f25244"/>
        <path id="Trazado_135118" data-name="Trazado 135118" d="M74.044,84.915l.25-.016a50.129,50.129,0,0,1,6.982,2.609,3.061,3.061,0,0,0,2.417.006A49.764,49.764,0,0,1,90.675,84.9l.262.018a5.414,5.414,0,0,1,.052,3.911v6.076a9.451,9.451,0,0,1-2.567-.928c-.394.3-.745.024-1.088-.107-1.282-.491-2.56-1-3.822-1.533a2.518,2.518,0,0,0-2.033-.008,39.661,39.661,0,0,1-4.923,1.859,4.27,4.27,0,0,0-1.7.529c-.573.265-.874.238-.856-.547.044-1.974.012-3.951.01-5.926-.311-1.113-.635-2.227.033-3.331" transform="translate(-26.577 -30.636)" fill="#2e3e51"/>
        <path id="Trazado_135119" data-name="Trazado 135119" d="M78.195,98.021a48.508,48.508,0,0,1,5.777-2.467c.323-.141.609.113.894.222,1.736.668,3.465,1.354,5.2,2.033a1.069,1.069,0,0,1-.182.8q-2.719,5.725-5.438,11.449c-.07.146-.09.35-.4.4L78.195,98.021" transform="translate(-28.216 -34.465)" fill="#d5d5d3"/>
        <path id="Trazado_135120" data-name="Trazado 135120" d="M50.271,84.912h6.78q0,.729-.009,1.457c-.327.18-.268.55-.373.826a6.694,6.694,0,0,1-6.4,4.458c-1.62,0-3.24-.021-4.86-.033.559-.727,1.5-.849,2.194-1.385a6.843,6.843,0,0,0,2.67-5.323" transform="translate(-16.385 -30.64)" fill="#425b82"/>
        <path id="Trazado_135121" data-name="Trazado 135121" d="M108.937,119.136c.011.906.024,1.813.031,2.72,0,.3.075.657-.4.7-4.056-.012-8.112-.045-12.168-.019-.766,0-1.089-.151-1-.977.082-.8.039-1.62.05-2.431a1.815,1.815,0,0,1,1.4-.336q5.346-.016,10.692,0a1.8,1.8,0,0,1,1.4.348" transform="translate(-34.42 -42.861)" fill="#f88400"/>
        <path id="Trazado_135122" data-name="Trazado 135122" d="M108.873,117.338l-13.487-.011c-.031-1.085-.456-2.463.139-3.17.568-.674,1.985-.19,3.026-.208,2.323-.042,4.647-.033,6.97-.044.875.012,1.752.058,2.625.023.605-.024.8.2.77.786-.047.874-.031,1.75-.042,2.626" transform="translate(-34.356 -41.063)" fill="#feb431"/>
        <path id="Trazado_135123" data-name="Trazado 135123" d="M100.748,88.829q-.026-1.956-.052-3.912l1.93-.026a26.937,26.937,0,0,1-1.878,3.937" transform="translate(-36.336 -30.633)" fill="#d5d3cf"/>
        <path id="Trazado_135124" data-name="Trazado 135124" d="M73.313,84.916q-.016,1.665-.033,3.331A20.619,20.619,0,0,1,71.628,84.9l1.685.014" transform="translate(-25.847 -30.637)" fill="#d6d1cc"/>
        <path id="Trazado_135125" data-name="Trazado 135125" d="M63.586,34.954q0-5.1,0-10.2v.008a2.024,2.024,0,0,1,.782-.309,7.144,7.144,0,0,0,4.975-3.43c.782-1.13,1.552-2.27,2.382-3.365.644-.849.963-.915,1.876-.378,3.494,2.054,6.923,4.222,10.448,6.219a3.576,3.576,0,0,1,1.827,4.074.873.873,0,0,1-.461.775c-2.057.938-2.057,3.189,0,4.7a.906.906,0,0,1,.476.876,22.509,22.509,0,0,1-1.261,9.546,19,19,0,0,1-6.626,8.551A9.3,9.3,0,0,1,72.1,50.388a17.428,17.428,0,0,1-6.043-5.463,16.518,16.518,0,0,1-2.466-9.971" transform="translate(-22.938 -6.109)" fill="#fdc8a2"/>
        <path id="Trazado_135126" data-name="Trazado 135126" d="M91.037,80.886c-2.541,1.2-5.2,2.122-7.791,3.193a.835.835,0,0,1-.7.042c-2.621-1.1-5.315-2.021-7.887-3.238,1.417-.06,1.413-.06,1.418-1.468.007-1.848.021-3.7.033-5.545.428-.273.724.067,1.049.235a11.657,11.657,0,0,0,11.387,0c.324-.171.621-.509,1.049-.236.01,1.848.024,3.7.03,5.544.005,1.416,0,1.416,1.415,1.471" transform="translate(-26.939 -26.619)" fill="#fdc8a2"/>
        <path id="Trazado_135127" data-name="Trazado 135127" d="M85.432,26.132a6.991,6.991,0,0,0,.151-3.122c-.04-.614-.742-.843-1.187-1.119-3.727-2.3-7.489-4.551-11.238-6.819-.485-.293-.763-.065-1.04.329-.989,1.4-1.985,2.8-3,4.181A6.622,6.622,0,0,1,63.6,22.548c2.691-3.783,5.39-7.56,8.062-11.355.315-.448.538-.492,1-.21Q80,15.456,87.363,19.89a3.169,3.169,0,0,1,1.621,2.581c.1,1.7.026,3.413.026,5.226-1.119-1.673-1.87-1.985-3.577-1.565" transform="translate(-22.951 -3.899)" fill="#fdbf93"/>
        <path id="Trazado_135128" data-name="Trazado 135128" d="M86.147,60.079c.6-.945,1.629-1.425,2.367-2.233A18.972,18.972,0,0,0,93.6,47.212c.213-1.692.088-3.369.175-5.05a1.6,1.6,0,0,0-.21-.912c1.685.419,2.474.093,3.591-1.572V46.83c0,2.855-.019,5.71.015,8.565a1.5,1.5,0,0,1-.689,1.421q-1.366.892-2.73,1.786c-.069.122-.128.268-.251.332A11.861,11.861,0,0,1,86.5,60.3a.583.583,0,0,1-.35-.218" transform="translate(-31.086 -14.318)" fill="#fdbf92"/>
        <path id="Trazado_135129" data-name="Trazado 135129" d="M82.814,70.76a15.177,15.177,0,0,0,7.606-1.476L90.4,72.25A12.19,12.19,0,0,1,86.175,74c-3.127.35-6.172.376-8.863-1.615a1.333,1.333,0,0,0-.392-.132q0-1.486-.009-2.972a18.485,18.485,0,0,0,5.9,1.483" transform="translate(-27.753 -24.998)" fill="#fdb684"/>
        <path id="Trazado_135130" data-name="Trazado 135130" d="M43.324,96.336l-1.89-.823h2.095a1.27,1.27,0,0,1-.2.823" transform="translate(-14.951 -34.466)" fill="#fdfdfc"/>
        <path id="Trazado_135131" data-name="Trazado 135131" d="M42.4,78.51q.007-5.392.014-10.784a4.1,4.1,0,0,1,3.379,0q.008,5.393.014,10.784H42.4" transform="translate(-15.298 -24.307)" fill="#dfdfdd"/>
        <path id="Trazado_135132" data-name="Trazado 135132" d="M45.317,65.409H41.939a5.018,5.018,0,0,1-.847-1.266,7.426,7.426,0,0,1,2.11-3.132l.212-.068,5.049.079-3.145,4.388" transform="translate(-14.828 -21.991)" fill="#dd4132"/>
        <path id="Trazado_135133" data-name="Trazado 135133" d="M41.968,61.013l-2.11,3.132L37.671,61.2c1.416-.46,2.864-.133,4.3-.182" transform="translate(-13.593 -21.992)" fill="#f25244"/>
        <path id="Trazado_135134" data-name="Trazado 135134" d="M81.45,50.385A1.549,1.549,0,0,1,83.307,51.4a1.561,1.561,0,0,0,2.75-.2,1.194,1.194,0,0,1,1.455-.812c.1.009.211,0,.317,0,2.162,0,2.279.189,1.324,2.141a5.026,5.026,0,0,1-5.141,2.936,5.451,5.451,0,0,1-4.425-4.14c-.157-.694.043-1.01.779-.94.279.027.564,0,1.084,0" transform="translate(-28.701 -18.175)" fill="#f6a368"/>
        <path id="Trazado_135135" data-name="Trazado 135135" d="M74.052,34.49a2.662,2.662,0,0,1,2.607,2.5,2.6,2.6,0,0,1-2.52,2.58,2.523,2.523,0,0,1-2.544-2.537,2.366,2.366,0,0,1,2.457-2.541" transform="translate(-25.834 -12.446)" fill="#7a432a"/>
      </g>
    </g>
  </g>
</svg>
