<svg xmlns="http://www.w3.org/2000/svg" xmlns:xlink="http://www.w3.org/1999/xlink" width="165" height="116" viewBox="0 0 165 116">
  <defs>
    <clipPath id="clip-path">
      <rect id="Rect치ngulo_38047" data-name="Rect치ngulo 38047" width="89.924" height="100.921" fill="none"/>
    </clipPath>
  </defs>
  <g id="_41" data-name="41" transform="translate(8239 3500)">
    <rect id="Rect치ngulo_37653" data-name="Rect치ngulo 37653" width="165" height="116" transform="translate(-8239 -3500)" fill="#c4d1ff"/>
    <g id="Grupo_158852" data-name="Grupo 158852" transform="translate(-8200.975 -3492.46)">
      <g id="Grupo_158851" data-name="Grupo 158851" clip-path="url(#clip-path)">
        <path id="Trazado_135136" data-name="Trazado 135136" d="M53.821,1.771a11.574,11.574,0,0,1,6.1-.1,24,24,0,0,1,6.93,2.722c.36.2.673.544,1.147.494.129.219-.018.376-.133.526-1.693,2.208-3.28,4.52-5.743,5.991-.547.327-.374.607.073.843a2.166,2.166,0,0,0,1.131.3c2.254-.139,4.329-.67,5.824-2.571a23.784,23.784,0,0,0,2.953-5.2c.476-1.081.988-2.146,1.566-3.174C74.061.908,74.544.262,75.5.355c1.193,1.122,1.272,2.589,1.209,4.072A16.671,16.671,0,0,1,76.5,6.174a3.23,3.23,0,0,0-.149.885c-.184.765.179,1.08.9,1.155a2.255,2.255,0,0,0,2.484-1.64A24.052,24.052,0,0,1,82.12,1.969,4.279,4.279,0,0,1,84.572,0h.789c2.389.941,2.149,2.579,1.882,4.6a23.915,23.915,0,0,1-.895,3.279.6.6,0,0,1-.226.809c2.346-.326,4-1.96,5.813-3.312.653-.488,1.283-1.007,1.982-1.431A2.091,2.091,0,0,1,95.4,3.587a2.977,2.977,0,0,1,.7,3.083,19.5,19.5,0,0,1-3.53,6.941c-1.225,1.743-2.716,3.263-4.055,4.91a1.666,1.666,0,0,1-.459.744c-3.285,3.161-6.772,6.042-11.249,7.341a30.153,30.153,0,0,1-21.3-1.432A10.2,10.2,0,0,1,53.626,24.1c-1.19-.687-2.187-1.637-3.3-2.432a12.042,12.042,0,0,1-1.944-8.135A19.741,19.741,0,0,1,50.749,4.98a7.617,7.617,0,0,1,3.072-3.209" transform="translate(-20.894 0)" fill="#f3dc45"/>
        <path id="Trazado_135137" data-name="Trazado 135137" d="M85.187.459a2.826,2.826,0,0,0-1.579,1.51C82.356,4.307,81.436,6.8,80.027,9.076a7.942,7.942,0,0,1-6.032,3.72,3.268,3.268,0,0,1-2.359-.483c-.36-.245-.737-.612-.069-.955,2.3-1.179,3.749-3.221,5.3-5.16.345-.432.68-.873,1.019-1.309A14.339,14.339,0,0,1,82.829,0H84.6c.172.182.585.055.584.458" transform="translate(-30.779 0)" fill="#ebc22e"/>
        <path id="Trazado_135138" data-name="Trazado 135138" d="M105.652,0c-2.313,1.374-3.282,3.718-4.333,6a5.868,5.868,0,0,1-.962,1.788,2.5,2.5,0,0,1-2.44.63c-.783-.125-.956-.633-.738-1.335.161-.224.139-.523.3-.746A12.368,12.368,0,0,1,102.6.468,13.707,13.707,0,0,1,104.272,0Z" transform="translate(-41.973)" fill="#ebc22e"/>
        <path id="Trazado_135139" data-name="Trazado 135139" d="M11.805,98.176c0-1.21.048-2.423-.009-3.631a4.917,4.917,0,0,1,2.976-5.054c1.074-.782,2.275-.531,3.407-.3,3.272.67,6.535,1.39,9.8,2.1,5.344,1.166,10.693,2.307,16.035,3.482a3.744,3.744,0,0,1,1.914.694,2.223,2.223,0,0,1,.3,1.418q.011,20.47,0,40.941c0,1.237-.107,1.361-.927,1.365q-8.976-1.93-17.952-3.862c-3.808-.82-7.612-1.655-11.423-2.463a4.732,4.732,0,0,1-4.118-5.051q-.007-8.708,0-17.416c.21-.37.614-.471.944-.673a3.928,3.928,0,0,0,2.16-3.687c-.046-1.176-.036-2.357,0-3.535a3.929,3.929,0,0,0-2.391-3.836c-.259-.133-.555-.211-.708-.5" transform="translate(-5.096 -38.458)" fill="#c22430"/>
        <path id="Trazado_135140" data-name="Trazado 135140" d="M120.337,110.4q0,8.668,0,17.336c0,2.862-1.334,4.515-4.15,5.129Q101.825,136,87.462,139.11c-.255.055-.52.066-.78.1-.447.169-.6-.123-.689-.463a4,4,0,0,1-.082-1.076q0-20.329,0-40.657a2.5,2.5,0,0,1,.286-1.52,2.09,2.09,0,0,1,1.235-.54q13.3-2.935,26.622-5.772a3.9,3.9,0,0,1,3.313.309,4.929,4.929,0,0,1,2.977,5.056c-.055,1.207,0,2.419,0,3.629a1.592,1.592,0,0,1-.733.466,4.143,4.143,0,0,0-2.476,3.4,18.176,18.176,0,0,0-.008,4.394,4.035,4.035,0,0,0,2.591,3.52,1.055,1.055,0,0,1,.619.45" transform="translate(-37.139 -38.457)" fill="#d94a54"/>
        <path id="Trazado_135141" data-name="Trazado 135141" d="M57.086,37.955a25.271,25.271,0,0,0,10.242,3.476c7.621.89,14.75-.249,20.828-5.427,1.3-1.1,2.531-2.271,3.82-3.381a21.776,21.776,0,0,1,.555,4.236c.291,2.975.434,5.965.638,8.949a1.419,1.419,0,0,1,.3.913c.026,3.034.015,6.067.006,9.1a2.313,2.313,0,0,1-.1.479,1.822,1.822,0,0,0-.209,1.235,25.818,25.818,0,0,1-.59,6.041c-.206.464-.659.509-1.066.6-5.96,1.288-11.894,2.714-17.889,3.816a26.257,26.257,0,0,1-8.714-.009c-2.426-.373-4.817-.984-7.215-1.524-.337-.076-.745-.061-.864-.515a23.593,23.593,0,0,0-.331-3.712,42.654,42.654,0,0,1,.033-6.77c.194-.383.544-.3.862-.271a1.661,1.661,0,0,0,1.738-1.03,4.039,4.039,0,0,0,.069-3.7A1.719,1.719,0,0,0,57.345,49.3c-.326.036-.671.074-.835-.329a42.514,42.514,0,0,1-.04-6.854c.062-1.045.074-2.089.132-3.133.021-.387-.106-.891.484-1.031" transform="translate(-24.361 -14.103)" fill="#f0cfa4"/>
        <path id="Trazado_135142" data-name="Trazado 135142" d="M79.913,100.13a1.712,1.712,0,0,0-.2,1.138q0,20.742.009,41.484c0,.405-.253.97.442,1.128a1.02,1.02,0,0,1-.746.165q-3.926.005-7.852.007a1.044,1.044,0,0,1-.741-.185c.343-.028.667-.07.622-.549-.019-.2,0-.394,0-.591q0-20.689,0-41.378a1.752,1.752,0,0,0-.213-1.231A1.408,1.408,0,0,1,72.4,99.78q3.17-.024,6.341,0a1.352,1.352,0,0,1,1.169.35" transform="translate(-30.616 -43.13)" fill="#dc636e"/>
        <path id="Trazado_135143" data-name="Trazado 135143" d="M44.034,3.118c-.387.8-1.271,1.073-1.8,1.766a16.391,16.391,0,0,0-3.056,7.224,15.845,15.845,0,0,0,.339,8.468c.317.848.781,1.641,1.178,2.459a.78.78,0,0,1,.154.74C40.005,27,38.756,29.985,35.888,32a6.422,6.422,0,0,1-2.7,1.126,21.1,21.1,0,0,0-3.993,1c-.363.133-.755.272-1.11-.05a79.825,79.825,0,0,1-1.981-9.687,44.535,44.535,0,0,1-.4-7.347,16.682,16.682,0,0,1,.731-4.634c1.349-4.343,4.716-6.277,9.129-5.234.916.216,1.919.912,2.68.69.694-.2,1.071-1.383,1.661-2.071a7.694,7.694,0,0,1,4.13-2.669" transform="translate(-11.106 -1.348)" fill="#ebc22e"/>
        <path id="Trazado_135144" data-name="Trazado 135144" d="M28.383,49.237c2.231-.567,4.5-1.032,6.681-1.739a6.41,6.41,0,0,0,3.08-2.5A15.1,15.1,0,0,0,40.991,38.2c.689.042,1.02.623,1.5.987.535.408,1.091.786,1.638,1.177a.619.619,0,0,0-.187.533c-.053,3.6-.334,7.186-.179,10.785a.714.714,0,0,1-.139.461,4.18,4.18,0,0,0,.016,5.047.6.6,0,0,1,.115.464c.014,3.36-.225,6.732.532,10.053.073.321.06.6-.356.653-.311.295-.673.191-1.021.114-3.256-.732-6.526-1.4-9.781-2.139-.438-.1-.942-.139-.98-.763a38.957,38.957,0,0,1-.427-6.17c.009-.41-.06-.657-.567-.708a4.962,4.962,0,0,1-4.476-3.587,5.048,5.048,0,0,1,1.4-5.491,4.636,4.636,0,0,0,.307-.381" transform="translate(-11.401 -16.515)" fill="#f0b885"/>
        <path id="Trazado_135145" data-name="Trazado 135145" d="M28.115,85.544c.478.618,1.225.523,1.864.664,3.3.729,6.611,1.42,9.918,2.124,3.768.727,7.433,1.9,11.34,2.007a47.489,47.489,0,0,0,11.82-1.6c3.985-.893,7.983-1.727,11.974-2.592a4.858,4.858,0,0,0,.555-.191c2.318-.464,4.634-.942,6.956-1.388A4.1,4.1,0,0,1,87.288,86.9l.31.61c-1.931-.628-3.766.071-5.6.464-8.449,1.809-16.888,3.666-25.33,5.507l-8.688-.013q-14.009-3.043-28.019-6.085a5.81,5.81,0,0,0-2.913.13,4.569,4.569,0,0,1,3.65-3.072,8.414,8.414,0,0,1,2.983.422c1.221.205,2.423.522,3.63.807.3.07.576.154.807-.13" transform="translate(-7.369 -36.486)" fill="#dee9ee"/>
        <path id="Trazado_135146" data-name="Trazado 135146" d="M146.342,105.023c3.533-.9,6.837,1.249,6.532,4.693-.127,1.431.178,2.884-.153,4.3a3.979,3.979,0,0,1-3.609,3.228,4.17,4.17,0,0,1-3.408-4.167c-.044-1.306-.07-2.617.008-3.921a4.425,4.425,0,0,1,2.431-3.916,2.37,2.37,0,0,1-1.8-.222" transform="translate(-62.97 -45.314)" fill="#f0cfa4"/>
        <path id="Trazado_135147" data-name="Trazado 135147" d="M8.871,105.182a4.2,4.2,0,0,1,3.4,4.43c.01,1.049.005,2.1,0,3.148-.009,2.515-.987,3.85-3.4,4.648H8.484a3.829,3.829,0,0,1-3.25-3.441,15.576,15.576,0,0,1,.049-5.653c.292-1.521,1.922-3.253,3.217-3.139l.37.009" transform="translate(-2.161 -45.465)" fill="#f0cfa4"/>
        <path id="Trazado_135148" data-name="Trazado 135148" d="M121.4,66.335c-.306-.249-.207-.6-.207-.911q-.008-4.79,0-9.581a5.229,5.229,0,0,1,5.3,4.561,5.282,5.282,0,0,1-3.834,5.784,4.817,4.817,0,0,1-1.261.148" transform="translate(-52.387 -24.138)" fill="#f0b886"/>
        <path id="Trazado_135149" data-name="Trazado 135149" d="M143.995,105.178h2.565c-.6.506-1.2.679-1.622,1.13a4.575,4.575,0,0,0-1.318,3.175c-.012,1.246-.04,2.494.006,3.739a4.478,4.478,0,0,0,3.14,4.183l-2.944.011a4.206,4.206,0,0,1-3.487-4.069,18.112,18.112,0,0,1,.116-4.793,4.154,4.154,0,0,1,3.379-3.37,1.152,1.152,0,0,1,.166,0" transform="translate(-60.623 -45.468)" fill="#f0b885"/>
        <path id="Trazado_135150" data-name="Trazado 135150" d="M6.34,105.1c-2.414.992-3.3,2.877-3.175,5.376.047.947-.049,1.905.042,2.846a4.653,4.653,0,0,0,3.116,4.011c-.722.011-1.444.045-2.165.028a4.132,4.132,0,0,1-4.146-4.216c-.014-1.346-.019-2.693,0-4.039a4.139,4.139,0,0,1,3.72-4.014,8.655,8.655,0,0,1,2.594.008Z" transform="translate(0 -45.393)" fill="#f0b886"/>
        <path id="Trazado_135151" data-name="Trazado 135151" d="M124.147,5.788c-1.989.554-3.315,2.119-4.93,3.242a10.544,10.544,0,0,1-3.387,1.893c-.317.079-.7.3-.919.058s.064-.6.187-.9c.409.023.526-.338.741-.567a16.252,16.252,0,0,1,5.032-4.009,2.705,2.705,0,0,1,3.277.279" transform="translate(-49.643 -2.201)" fill="#ebc22e"/>
        <path id="Trazado_135152" data-name="Trazado 135152" d="M9.176,105.014l-2.594-.008a4,4,0,0,1,2.594.008" transform="translate(-2.845 -45.303)" fill="#f0cfa4"/>
        <path id="Trazado_135153" data-name="Trazado 135153" d="M97.409,11.052c.068.074.136.148.2.221-.067.233-.112.48-.372.592a1.09,1.09,0,0,1,.168-.813" transform="translate(-42.036 -4.778)" fill="#fcf7dc"/>
        <path id="Trazado_135154" data-name="Trazado 135154" d="M121.7,120.611c.006,1.109-.775,1.418-1.655,1.611q-4.076.895-8.155,1.776c-2.623.565-5.249,1.118-7.874,1.679-1.176.251-1.888-.112-2.152-1.1-.223-.837.361-1.629,1.442-1.865q8.2-1.794,16.408-3.559a1.535,1.535,0,0,1,1.986,1.462" transform="translate(-44.015 -51.488)" fill="#454045"/>
        <path id="Trazado_135155" data-name="Trazado 135155" d="M103.629,115.817c-1.056,0-1.724-.534-1.819-1.292a1.537,1.537,0,0,1,1.323-1.682q4.936-1.1,9.879-2.162c2.207-.478,4.415-.953,6.626-1.411,1.115-.231,1.868.2,2.035,1.113s-.346,1.61-1.453,1.852q-6.857,1.5-13.721,2.974c-1.023.221-2.048.433-2.869.607" transform="translate(-44.007 -47.212)" fill="#454045"/>
        <path id="Trazado_135156" data-name="Trazado 135156" d="M73.626,86.347a6.949,6.949,0,0,1-6.11-3.57,1.575,1.575,0,0,1,.417-2.392c.814-.456,1.565-.175,2.2.823a3.93,3.93,0,0,0,6.983-.03c.613-.976,1.4-1.253,2.211-.774a1.548,1.548,0,0,1,.4,2.314,6.886,6.886,0,0,1-6.1,3.628" transform="translate(-29.034 -34.659)" fill="#c22430"/>
        <path id="Trazado_135157" data-name="Trazado 135157" d="M56.042,67.743a4.2,4.2,0,0,1,.007-5.972,1.838,1.838,0,0,1,2.677.952,4.337,4.337,0,0,1,.042,3.974,1.875,1.875,0,0,1-2.726,1.046" transform="translate(-23.69 -26.602)" fill="#454045"/>
        <path id="Trazado_135158" data-name="Trazado 135158" d="M98.838,64.9a3.508,3.508,0,0,1-.823,2.382,1.65,1.65,0,0,1-2.7.006,4.335,4.335,0,0,1,0-5.129,1.655,1.655,0,0,1,2.705,0,4.112,4.112,0,0,1,.821,2.746" transform="translate(-40.84 -26.566)" fill="#454045"/>
      </g>
    </g>
  </g>
</svg>
