<svg xmlns="http://www.w3.org/2000/svg" xmlns:xlink="http://www.w3.org/1999/xlink" width="165" height="116" viewBox="0 0 165 116">
  <defs>
    <clipPath id="clip-path">
      <rect id="Rect치ngulo_38048" data-name="Rect치ngulo 38048" width="104.801" height="104.865" fill="none"/>
    </clipPath>
  </defs>
  <g id="_42" data-name="42" transform="translate(8239 3360)">
    <rect id="Rect치ngulo_37658" data-name="Rect치ngulo 37658" width="165" height="116" transform="translate(-8239 -3360)" fill="#c4d1ff"/>
    <g id="Grupo_158855" data-name="Grupo 158855" transform="translate(-8209 -3354)">
      <g id="Grupo_158854" data-name="Grupo 158854" clip-path="url(#clip-path)">
        <path id="Trazado_135159" data-name="Trazado 135159" d="M52.286,96.073a21.039,21.039,0,0,0-6.506-5.7,3.885,3.885,0,0,1-.721-1.765A31.782,31.782,0,0,0,42.4,80.266a2.269,2.269,0,0,0-.6-.926,14.5,14.5,0,0,1-1.593,2.166c-1.082.93-1.7.808-2.094-.588a13.024,13.024,0,0,0-4.763-7.065,1.176,1.176,0,0,0-1.775.09,8.561,8.561,0,0,1-5.557,2.5c-1.133.047-1.52-.221-1.528-1.358a9.516,9.516,0,0,0-2.424-6.24,4.982,4.982,0,0,0-.405-.459c-1.237-1.145-1.386-1.124-2.424.23a10.515,10.515,0,0,1-5.216,3.6c-1.068.351-1.49.122-1.878-.933A24.245,24.245,0,0,0,10.9,68.153a.955.955,0,0,0-1.4-.522c-1.581.633-3.216,1.117-4.834,1.648-1.169.383-1.506.213-1.891-.969a16.779,16.779,0,0,1-.26-9.367c.016-.066.035-.132.051-.2.368-1.507.332-1.543-1.227-1.548-.458,0-.968.182-1.336-.278V56.51c.425-5.738,6.707-9.944,11.706-9.7,1.872.09,2.084-.27,1.572-2.081-.121-.428-.327-.823-.482-1.237-.33-.881-.044-1.408.872-1.529a41.755,41.755,0,0,1,8.763-.108,23.068,23.068,0,0,1,5.026.813,15.349,15.349,0,0,1,7.822,5.4,15.541,15.541,0,0,0-.3-3.812c-.2-1.206.278-1.572,1.448-1.237,1.121.321,2.037,1.078,3.142,1.423a27.312,27.312,0,0,1,9.433,9.122,25.14,25.14,0,0,1,3.215,7.784,20.676,20.676,0,0,1,.248,2.628c-.029.488.281.886.352,1.348.048,9.543.017,19.084.017,28.626a3.147,3.147,0,0,1-.552,2.122" transform="translate(0 -18.678)" fill="#884b9c"/>
        <path id="Trazado_135160" data-name="Trazado 135160" d="M68.819,26.268c-.784-2.062-1.584-4.117-2.346-6.186a15.089,15.089,0,0,1-.9-6.415c.057-.76.216-1.091,1.091-.725a22.176,22.176,0,0,0,5.477,1.435c-.27-1.2-.583-2.3-.75-3.422a7.591,7.591,0,0,1,.488-4.592c.365-.744.738-1.036,1.527-.422a7.484,7.484,0,0,0,2.713,1.123c.714.194,1.1.108,1.306-.717A13.273,13.273,0,0,1,79.4,2.007,11.1,11.1,0,0,1,81.517,0h.409c2.308,1.506,3.4,3.817,4.108,6.345.221.789.583.947,1.313.753a8.409,8.409,0,0,0,2.9-1.22c.639-.472.943-.239,1.253.33a7.816,7.816,0,0,1,.541,4.984,11.123,11.123,0,0,1-.572,2.374c-.321.858.082.85.69.73A24.467,24.467,0,0,0,96.77,13.01c.93-.384,1.052-.065,1.12.773a17.014,17.014,0,0,1-1.381,7.664c-.621,1.581-1.221,3.171-1.831,4.757.152.687-.418.864-.825,1.124a25.779,25.779,0,0,0-8.437,8.826,22.859,22.859,0,0,0-2.82,7.6c-.1.55-.076,1.172-.641,1.538a.354.354,0,0,1-.413-.148,25.4,25.4,0,0,0-11.872-18.32c-.285-.185-.567-.374-.85-.561" transform="translate(-29.372)" fill="#efc319"/>
        <path id="Trazado_135161" data-name="Trazado 135161" d="M95,64.276c1.052-7.993,5.2-13.989,11.848-18.376.31-.2.616-.417.925-.625,1.087-.484,2.177-.964,3.261-1.455.679-.308.92-.181.734.609a24.771,24.771,0,0,0-.582,4.129,1.639,1.639,0,0,0,.325,1.212,20.371,20.371,0,0,1,2.745-3.15,16.124,16.124,0,0,1,9.393-3.823,49.838,49.838,0,0,1,9.691-.021c.706.068,1.026.164.568.941a6.631,6.631,0,0,0-.79,3.242c-.019.636.174.868.9.8A11.844,11.844,0,0,1,146.8,56.035c.329,1.029.281,1.092-.807,1.082-.442,0-.886-.015-1.328,0-1.228.03-1.249.055-.859,1.183a16.3,16.3,0,0,1,.147,10.238c-.241.811-.46,1.1-1.377.689-1.792-.811-3.8-1.08-5.542-2.042-.421-.232-.591.018-.78.345a15.53,15.53,0,0,0-1.7,4.018c-.205.835-.519.9-1.268.653a10.262,10.262,0,0,1-5.7-4.515c-.355-.583-.6-.742-1.247-.264a10.667,10.667,0,0,0-4.3,8.167c-.068.864-.29.967-1.12.83A8.9,8.9,0,0,1,115.4,73.44a.753.753,0,0,0-1.194-.132,14.229,14.229,0,0,0-4.267,4.563,13.1,13.1,0,0,0-1.487,3.782c-.13.675-.368.659-.849.243a6.418,6.418,0,0,1-2.07-3.754A31.2,31.2,0,0,0,101.4,90.765,21.2,21.2,0,0,0,94.94,96.45c-.024.033-.121.012-.185.017.03-.3.087-.606.088-.909q.007-14.51,0-29.019c0-.34-.023-.68-.036-1.021.055-.415-.1-.863.192-1.241" transform="translate(-42.469 -19.071)" fill="#e88592"/>
        <path id="Trazado_135162" data-name="Trazado 135162" d="M104.747,109.658c-.2-1.419-.732-1.647-2.1-1.605a1.967,1.967,0,0,0-1.354.636c-.674.677-1.4,1.293-2.132,1.905A21.456,21.456,0,0,1,87.7,115.565a158.843,158.843,0,0,1-16.2.853,25.856,25.856,0,0,0-12.622,3.262,19.111,19.111,0,0,0-5.7,4.4c-.267.285-.28.806-.793.865-.29.025-.358-.206-.513-.388a16.285,16.285,0,0,0-6.094-4.9,21.942,21.942,0,0,0-6.445-2.485,46.72,46.72,0,0,0-9.835-.962c-3.639-.092-7.276-.047-10.911-.393a23.91,23.91,0,0,1-14.979-6.939C2.054,107.345.627,107.7,0,109.722v4.294c.206.35.08.732.1,1.1.117,2.257.118,4.525.4,6.767a53.088,53.088,0,0,0,2.8,11.495c2.005,5.52,4.808,10.523,9.4,14.354a21.76,21.76,0,0,0,11.349,5.2c1.073.136,2.16.136,3.242.183a50.262,50.262,0,0,0,10.94-.507,56.914,56.914,0,0,0,12.459-3.9,3.827,3.827,0,0,1,3.317,0,49.856,49.856,0,0,0,24.823,4.365,20.867,20.867,0,0,0,3.82-.46,25.043,25.043,0,0,0,15.208-11.755,49.885,49.885,0,0,0,6.485-19.869,93.681,93.681,0,0,0,.461-10.718,4.022,4.022,0,0,0-.054-.608M44.838,139.479a29.293,29.293,0,0,1-9.482,1.657,23.158,23.158,0,0,1-17.735-8.1c-.868-.968-.888-2.062.079-2.765,4.262-3.1,8.84-5.378,14.313-5.045,4.408.269,7.735,2.532,10.469,5.823a27.368,27.368,0,0,1,3.523,5.6,1.841,1.841,0,0,1-1.167,2.826m42.2-6.384a22.938,22.938,0,0,1-17.456,8.038,30.359,30.359,0,0,1-9.5-1.573c-1.688-.561-2.071-1.542-1.272-3.143a25.711,25.711,0,0,1,4.675-6.772A13.741,13.741,0,0,1,76.5,125.493a23.981,23.981,0,0,1,10.243,4.559,1.836,1.836,0,0,1,.293,3.044" transform="translate(0 -48.373)" fill="#24ad5f"/>
        <path id="Trazado_135163" data-name="Trazado 135163" d="M18.849,132.947a1.8,1.8,0,0,1-2.475,1.7,17.665,17.665,0,0,1-6.06-4.056,1.761,1.761,0,0,1-.024-2.412A1.709,1.709,0,0,1,12.763,128a20.466,20.466,0,0,0,5.157,3.431,1.666,1.666,0,0,1,.929,1.519" transform="translate(-4.403 -57.167)" fill="#efc319"/>
        <path id="Trazado_135164" data-name="Trazado 135164" d="M170.765,127.6a1.764,1.764,0,0,1,1.623,1.058,1.666,1.666,0,0,1-.271,1.913,17.665,17.665,0,0,1-6.153,4.114,1.738,1.738,0,0,1-2.231-.926,1.716,1.716,0,0,1,.835-2.337,19.556,19.556,0,0,0,5.066-3.4,1.755,1.755,0,0,1,1.131-.419" transform="translate(-73.306 -57.189)" fill="#efc319"/>
        <path id="Trazado_135165" data-name="Trazado 135165" d="M18.191,143.971a1.79,1.79,0,1,1-1.833,1.789,1.816,1.816,0,0,1,1.833-1.789" transform="translate(-7.332 -64.527)" fill="#eec319"/>
        <path id="Trazado_135166" data-name="Trazado 135166" d="M170.448,145.809a1.806,1.806,0,1,1-1.783-1.837,1.82,1.82,0,0,1,1.783,1.837" transform="translate(-74.776 -64.528)" fill="#eec319"/>
        <path id="Trazado_135167" data-name="Trazado 135167" d="M29.492,168.661a1.78,1.78,0,1,1,1.815,1.793,1.8,1.8,0,0,1-1.815-1.793" transform="translate(-13.218 -74.78)" fill="#eec319"/>
        <path id="Trazado_135168" data-name="Trazado 135168" d="M155.579,170.454a1.8,1.8,0,1,1,1.776-1.833,1.8,1.8,0,0,1-1.776,1.833" transform="translate(-68.93 -74.781)" fill="#eec319"/>
        <path id="Trazado_135169" data-name="Trazado 135169" d="M23.233,158.834a1.794,1.794,0,1,1-1.845-1.746,1.763,1.763,0,0,1,1.845,1.746" transform="translate(-8.805 -70.406)" fill="#eec319"/>
        <path id="Trazado_135170" data-name="Trazado 135170" d="M165.416,157.089a1.772,1.772,0,1,1-1.827,1.766,1.771,1.771,0,0,1,1.827-1.766" transform="translate(-73.32 -70.407)" fill="#eec319"/>
        <path id="Trazado_135171" data-name="Trazado 135171" d="M30.226,62.195A32.9,32.9,0,0,1,55.487,75.023a37.163,37.163,0,0,1,2.688,3.845c.73,1.183.6,2.288-.341,2.873-.972.606-1.945.263-2.692-.973A29.929,29.929,0,0,0,34.3,66.235a31.409,31.409,0,0,0-5.888-.5c-1.42,0-2.13-.594-2.137-1.748s.681-1.743,2.115-1.792c.612-.02,1.225,0,1.838,0" transform="translate(-11.775 -27.872)" fill="#3d324c"/>
        <path id="Trazado_135172" data-name="Trazado 135172" d="M94.881,81.877a1.746,1.746,0,0,1-.192,1.241,2.1,2.1,0,0,1-.171-1.3l.363.056" transform="translate(-42.349 -36.672)" fill="#dda469"/>
        <path id="Trazado_135173" data-name="Trazado 135173" d="M95.2,37.233c0,.848.031,1.7-.009,2.544a1.827,1.827,0,0,1-1.867,1.866A1.805,1.805,0,0,1,91.544,39.8c-.041-1.729-.046-3.461.009-5.19a1.881,1.881,0,0,1,1.854-1.915,1.935,1.935,0,0,1,1.782,1.9c.007.067.01.136.01.2q0,1.221,0,2.443" transform="translate(-41.016 -14.651)" fill="#f19b1f"/>
        <path id="Trazado_135174" data-name="Trazado 135174" d="M95.215,19.094c0,1.775-.616,2.665-1.842,2.661s-1.837-.889-1.836-2.668.581-2.67,1.792-2.709c1.242-.041,1.887.887,1.887,2.716" transform="translate(-41.026 -7.34)" fill="#f19c1f"/>
        <path id="Trazado_135175" data-name="Trazado 135175" d="M133.855,61.818c.427.023.941.013,1.445.084a1.934,1.934,0,0,1,1.882,2.106,2.015,2.015,0,0,1-2.284,1.714,26.143,26.143,0,0,0-9.93,1.395A30.372,30.372,0,0,0,108.72,79.971c-.242.37-.459.76-.734,1.1a1.837,1.837,0,0,1-2.606.526,1.879,1.879,0,0,1-.478-2.618,38.083,38.083,0,0,1,3.74-5.226A33.245,33.245,0,0,1,128.6,62.326a35.932,35.932,0,0,1,5.257-.508" transform="translate(-46.87 -27.707)" fill="#802d40"/>
      </g>
    </g>
  </g>
</svg>
