<svg xmlns="http://www.w3.org/2000/svg" xmlns:xlink="http://www.w3.org/1999/xlink" width="165" height="116" viewBox="0 0 165 116">
  <defs>
    <clipPath id="clip-path">
      <rect id="Rect치ngulo_38049" data-name="Rect치ngulo 38049" width="95.2" height="95.223" fill="none"/>
    </clipPath>
  </defs>
  <g id="_43" data-name="43" transform="translate(8239 3220)">
    <rect id="Rect치ngulo_37659" data-name="Rect치ngulo 37659" width="165" height="116" transform="translate(-8239 -3220)" fill="#c4d1ff"/>
    <g id="Grupo_158858" data-name="Grupo 158858" transform="translate(-8204 -3210)">
      <g id="Grupo_158857" data-name="Grupo 158857" clip-path="url(#clip-path)">
        <path id="Trazado_135176" data-name="Trazado 135176" d="M16.191,111.611c-2.506.009-5.013.054-7.518.015a2.789,2.789,0,0,1-2.7-3.042q-.014-7.8,0-15.6c0-3.436-.025-6.871.019-10.306.01-.79-.233-1.041-.99-.948-.458.055-.932-.03-1.39.017a3.192,3.192,0,0,1-3.6-2.1V56.034c.219-.3-.006-.664.154-.97a10.143,10.143,0,0,1,9.16-8.69c2.287-.1,4.583-.021,6.876-.023.429.507.288,1.121.288,1.694q.015,14.446.007,28.892,0,16.489-.006,32.978c0,.574.137,1.187-.288,1.7" transform="translate(0 -16.419)" fill="#00d7df"/>
        <path id="Trazado_135177" data-name="Trazado 135177" d="M74.319,0c1.565.666,2.072,1.852,2.07,3.534q-.049,44.291-.025,88.582c0,1.922-1.043,3.071-2.785,3.076a1.278,1.278,0,0,1-.3-.947c-.016-.31-.01-.62-.01-.93q0-45.716.006-91.433A2.745,2.745,0,0,1,73.575,0Z" transform="translate(-25.965)" fill="#1d4659"/>
        <path id="Trazado_135178" data-name="Trazado 135178" d="M72.208,0l0,95.192a2.753,2.753,0,0,1-2.792-2.839c-.006-.279,0-.558,0-.837q0-43.889-.025-87.778c0-1.726.461-3,2.071-3.738Z" transform="translate(-24.597)" fill="#265c76"/>
        <path id="Trazado_135179" data-name="Trazado 135179" d="M26.57,0a17.12,17.12,0,0,1,4.14,1.476,11.844,11.844,0,0,1,5.858,12.345A11.9,11.9,0,0,1,26.9,23.373a4.151,4.151,0,0,1-2.009.085,1.781,1.781,0,0,1-.3-1.235q-.008-10.5,0-20.991A1.7,1.7,0,0,1,24.9,0Z" transform="translate(-8.717)" fill="#00abb2"/>
        <path id="Trazado_135180" data-name="Trazado 135180" d="M112.094,23.459a10.936,10.936,0,0,1-7.571-2.117c-3.9-2.882-5.652-6.8-4.8-11.582.885-4.956,3.966-8.1,8.845-9.443.246-.068.575-.008.724-.318h2.046a2.267,2.267,0,0,1,.3,1.6q.011,10.011,0,20.023a2.6,2.6,0,0,0,.459,1.835" transform="translate(-35.273 0)" fill="#fe5b5b"/>
        <path id="Trazado_135181" data-name="Trazado 135181" d="M118.574,23.459c-.577.028-.784-.209-.782-.819q.037-11.32.026-22.641h1.488a13.972,13.972,0,0,1,5.62,2.418,11.849,11.849,0,0,1,4.22,12.333,11.947,11.947,0,0,1-9.553,8.649c-.335.05-.679.042-1.019.061" transform="translate(-41.753 0)" fill="#fe0059"/>
        <path id="Trazado_135182" data-name="Trazado 135182" d="M18.652,0q0,11.729,0,23.457A11.685,11.685,0,0,1,7.309,14.611,11.817,11.817,0,0,1,13.358,1.286C14.521.7,15.786.471,16.978,0Z" transform="translate(-2.471)" fill="#00d7df"/>
        <path id="Trazado_135183" data-name="Trazado 135183" d="M.154,59.864c.027.336.129.684-.154.97V59.9a.238.238,0,0,1,.154-.04" transform="translate(0 -21.219)" fill="#4fe3e9"/>
        <path id="Trazado_135184" data-name="Trazado 135184" d="M25.08,111.534q0-32.63,0-65.26c2.873-.144,5.772-.4,8.594.267a10.137,10.137,0,0,1,7.715,9.748c.079,7.5.035,15,.019,22.5a2.757,2.757,0,0,1-2.586,2.882,12.914,12.914,0,0,1-2.411.048c-.771-.056-.983.187-.981.967.028,8.461.017,16.923.021,25.384a5.3,5.3,0,0,1-.155,1.471,2.728,2.728,0,0,1-2.5,2.013c-2.572.017-5.144-.012-7.715-.022" transform="translate(-8.89 -16.342)" fill="#00abb2"/>
        <path id="Trazado_135185" data-name="Trazado 135185" d="M107.252,111.628c-2.51.008-5.019.037-7.528.015a2.711,2.711,0,0,1-2.745-2.406,7.632,7.632,0,0,1-.073-1.2c0-6.446-.015-12.892.014-19.338,0-.768-.2-1.017-.981-.99-1.64.058-3.284.032-4.927.014C88.6,87.7,87.383,85.86,88.289,83.6q4.116-10.25,8.253-20.489a4.938,4.938,0,0,0,.369-1.891,36.662,36.662,0,0,1,.193-6.5,10.163,10.163,0,0,1,10.134-8.377,2.089,2.089,0,0,1,.316,1.507q.01,6.552,0,13.1,0,24.441-.006,48.882c0,.6.15,1.25-.3,1.786" transform="translate(-31.189 -16.429)" fill="#fe5b5b"/>
        <path id="Trazado_135186" data-name="Trazado 135186" d="M117.822,111.628q-.006-23.666-.011-47.332,0-8.973,0-17.947c5.354-.1,10.34,4.345,10.129,9.7-.189,4.787,1.12,9.017,2.958,13.273,2.03,4.7,3.852,9.487,5.755,14.241.931,2.325-.318,4.206-2.813,4.235-1.579.019-3.16.045-4.737-.014-.809-.03-1.087.147-1.081,1.036.044,6.5.025,13.007.023,19.511,0,2.28-1.054,3.327-3.348,3.323s-4.583-.016-6.874-.024" transform="translate(-41.759 -16.429)" fill="#fe0059"/>
      </g>
    </g>
  </g>
</svg>
