<svg xmlns="http://www.w3.org/2000/svg" xmlns:xlink="http://www.w3.org/1999/xlink" width="165" height="116" viewBox="0 0 165 116">
  <defs>
    <clipPath id="clip-path">
      <rect id="Rect치ngulo_38050" data-name="Rect치ngulo 38050" width="99.5" height="99.501" fill="none"/>
    </clipPath>
  </defs>
  <g id="_44" data-name="44" transform="translate(8373 2832)">
    <rect id="Rect치ngulo_37671" data-name="Rect치ngulo 37671" width="165" height="116" transform="translate(-8373 -2832)" fill="#c4d1ff"/>
    <g id="Grupo_158861" data-name="Grupo 158861" transform="translate(-8340 -2824)">
      <g id="Grupo_158860" data-name="Grupo 158860" clip-path="url(#clip-path)">
        <path id="Trazado_135187" data-name="Trazado 135187" d="M.169,154.857c.791-1.787,2.249-2.319,4.072-2.161a1.462,1.462,0,0,1,1-.279c3.731,0,7.462-.041,11.193.017,1.948-.034,3.9-.039,5.843,0,2.065-.034,4.129-.04,6.193,0,.994.061,2.023-.257,2.975.271a1.37,1.37,0,0,1,.263.9q.039,2.011,0,4.022a1.16,1.16,0,0,1-.3.884q-8.339.016-16.679.031c-3.556,0-7.114-.067-10.667.029a3.682,3.682,0,0,1-3.9-2.163Z" transform="translate(-0.066 -59.075)" fill="#00da7e"/>
        <path id="Trazado_135188" data-name="Trazado 135188" d="M4.29,6.005a10.918,10.918,0,0,1-2.172-.179C1.1,5.491.677,4.65.169,3.856V2.3A2.526,2.526,0,0,1,2.3.168H31.415a.855.855,0,0,1,.248.515,26.767,26.767,0,0,1-.1,5.2.619.619,0,0,1-.271.265,3.618,3.618,0,0,1-1.433.152q-12,.006-24,0a2.152,2.152,0,0,1-1.574-.3" transform="translate(-0.066 -0.065)" fill="#d8edfe"/>
        <path id="Trazado_135189" data-name="Trazado 135189" d="M51.177,5.968l.01-5.8H80.3a4.145,4.145,0,0,1,1.972,2.006,2.96,2.96,0,0,1-2.566,3.812c-.449.024-.9.01-1.353.013a1.778,1.778,0,0,1-1.288.3q-12.31.009-24.62,0a1.523,1.523,0,0,1-1.268-.334" transform="translate(-19.838 -0.066)" fill="#afe2fb"/>
        <path id="Trazado_135190" data-name="Trazado 135190" d="M2.238.1A4.79,4.79,0,0,0,.1,2.239C.1,1.527-.174.538.181.182S1.527.1,2.238.1" transform="translate(0 0)" fill="#fdfefe"/>
        <path id="Trazado_135191" data-name="Trazado 135191" d="M50.966,9.639l24.178.023q1.5,0,3,.009.007,13.076.016,26.153c0,.386.025.773.038,1.16a1.869,1.869,0,0,1,.259,1.1c0,1.6.034,3.19-.019,4.785.054.581.028,1.163.028,1.744q0,25.447,0,50.894a3.393,3.393,0,0,1-.242,1.894,1.853,1.853,0,0,1-1.293.293q-4.9.015-9.792,0A2.338,2.338,0,0,1,66,97.511c-.464-.392-.363-.939-.365-1.441-.013-3.456-.006-6.911-.007-10.366a5.139,5.139,0,0,0-.25-1.909,2.7,2.7,0,0,0-2.652-1.727,2.756,2.756,0,0,0-2.293,2.309,8.447,8.447,0,0,0-.038,1.161c0,3.488,0,6.975-.006,10.463a1.966,1.966,0,0,1-.3,1.476,2.546,2.546,0,0,1-1.493.21c-1.55-.077-3.117.227-4.653-.192-.433-.409-.337-.951-.339-1.454-.012-3.383-.061-6.768.016-10.15.043-1.916-.457-3.365-2.429-3.991a.73.73,0,0,1-.3-.236A18.1,18.1,0,0,1,50.8,76.2c.187-.4.607-.442.954-.586A2.808,2.808,0,0,0,53.6,72.928c.046-1.543.027-3.087.006-4.631a2.939,2.939,0,0,0-2.253-2.8,1.23,1.23,0,0,1-.67-1.271q-.019-1.869,0-3.739a1.227,1.227,0,0,1,.666-1.272,3.163,3.163,0,0,0,2.281-3.568c-.07-1.186-.045-2.38-.006-3.568a2.808,2.808,0,0,0-2.092-3.073,1.061,1.061,0,0,1-.713-.454A21.685,21.685,0,0,1,50.8,43.2c.178-.4.571-.486.929-.631a2.751,2.751,0,0,0,1.892-2.757c0-1.423-.019-2.845,0-4.267a2.823,2.823,0,0,0-2.013-2.97,1.24,1.24,0,0,1-.79-.519,21.579,21.579,0,0,1,0-5.546c.233-.417.688-.444,1.07-.6a2.473,2.473,0,0,0,1.723-2.442c.012-1.488-.038-2.977.015-4.463A2.827,2.827,0,0,0,51.6,15.957a2.185,2.185,0,0,1-.437-.212,1.088,1.088,0,0,1-.462-.915c-.057-1.482-.05-2.964,0-4.446a.991.991,0,0,1,.288-.7Z" transform="translate(-19.627 -3.736)" fill="#173755"/>
        <path id="Trazado_135192" data-name="Trazado 135192" d="M95.584,118.177q0-26.968,0-53.937c0-.193.023-.386.035-.58a1.671,1.671,0,0,1,1.283-.3q17.253-.012,34.505,0a1.544,1.544,0,0,1,1.27.331q-.006,27.241-.012,54.483a1.237,1.237,0,0,1-1.067.337q-5.181.027-10.361,0a1.927,1.927,0,0,1-.941-.182c-.462-.393-.361-.941-.363-1.444-.013-3.459-.006-6.918-.007-10.377a5.043,5.043,0,0,0-.242-1.815,2.6,2.6,0,0,0-2.785-1.781,2.513,2.513,0,0,0-2.192,2.558c-.036,3.782,0,7.564-.019,11.346a1.977,1.977,0,0,1-.3,1.479,2.166,2.166,0,0,1-1.3.212c-1.614-.083-3.244.225-4.845-.192-.434-.41-.337-.953-.339-1.457-.012-3.426,0-6.85-.007-10.275a5.693,5.693,0,0,0-.157-1.634,2.647,2.647,0,0,0-2.794-2.05,2.552,2.552,0,0,0-2.272,2.687c-.026,3.748,0,7.5-.015,11.244,0,.506.092,1.046-.315,1.472a2.477,2.477,0,0,1-1.322.211c-1.389.007-2.778.013-4.166,0-.443-.006-.918.056-1.265-.334" transform="translate(-37.051 -24.558)" fill="#ed5454"/>
        <path id="Trazado_135193" data-name="Trazado 135193" d="M78.379,152.7l6.735,0a1.563,1.563,0,0,1,.9-.269q2.011-.029,4.021,0a1.235,1.235,0,0,1,.9.266l6.212,0a1.561,1.561,0,0,1,.9-.269q2.011-.029,4.021,0a1.236,1.236,0,0,1,.9.266h12.488a7.127,7.127,0,0,1,2.1.239,3,3,0,0,1,1.743,3.25,2.9,2.9,0,0,1-2.8,2.361q-32.554.008-65.109,0a1.387,1.387,0,0,1-.192-.027q0-2.88,0-5.759l.12-.134a3.873,3.873,0,0,1,2.784.079l6.2,0a1.3,1.3,0,0,1,.8-.271q2.1-.049,4.209,0a1.1,1.1,0,0,1,.8.266l12.274,0" transform="translate(-19.845 -59.077)" fill="#00a763"/>
        <path id="Trazado_135194" data-name="Trazado 135194" d="M132.7,60.178q-11.108-.012-22.215-.023-7.422-.006-14.843-.006,0-2.928,0-5.856,18.749,0,37.5,0c2.094,0,3.379,1.089,3.4,2.852a2.911,2.911,0,0,1-2.879,3.007c-.323.013-.645.017-.968.025" transform="translate(-37.073 -21.046)" fill="#fe9c20"/>
        <path id="Trazado_135195" data-name="Trazado 135195" d="M34,9.709c-.006,1.678,0,3.356-.024,5.034a.926.926,0,0,0,.372.92.6.6,0,0,1-.38.261c-1.955.4-2.616,1.2-2.628,3.186-.007,1.223.04,2.449-.012,3.67a3.045,3.045,0,0,0,2.222,3.32,1.267,1.267,0,0,1,.339.182l.088.128q0,2.883.006,5.766a1.227,1.227,0,0,1-.628.411,2.925,2.925,0,0,0-2.025,3.065c.039,1.223,0,2.449.009,3.675.006,2.024.465,2.681,2.356,3.379a.514.514,0,0,1,.282.356q0,2.8.009,5.6c-.184.284-.528.285-.783.444a2.9,2.9,0,0,0-1.87,3.053c.036,1.347-.01,2.7.013,4.044A2.611,2.611,0,0,0,34,59.121a.681.681,0,0,1,.551.288.856.856,0,0,0-.575.948c.044,1.345.044,2.694,0,4.04a.862.862,0,0,0,.575.949.7.7,0,0,1-.552.285,2.609,2.609,0,0,0-2.645,2.917c-.011,1.384.018,2.768-.008,4.152a2.758,2.758,0,0,0,1.866,2.942c.257.157.6.162.784.446q0,2.8.009,5.595a.981.981,0,0,1-.539.424A2.826,2.826,0,0,0,31.376,85.2c-.01,3.572,0,7.143-.008,10.715,0,.5.1,1.042-.306,1.467l-6.223,0a2,2,0,0,1-.257-1.394c-.009-3.421,0-6.842,0-10.263A5.553,5.553,0,0,0,24.39,84a2.7,2.7,0,0,0-2.616-1.919,2.745,2.745,0,0,0-2.4,2.409,9.348,9.348,0,0,0-.028,1.064c0,3.453,0,6.906-.006,10.359,0,.506.1,1.045-.307,1.472l-12.21,0q.017-43.211.033-86.421c0-.42.01-.84.015-1.261L34,9.709" transform="translate(-2.643 -3.76)" fill="#1b6aa5"/>
        <path id="Trazado_135196" data-name="Trazado 135196" d="M26.756,143c0-4.171-.012-8.342,0-12.514a2.935,2.935,0,0,1,2.89-3.11,2.965,2.965,0,0,1,2.92,3.106c.018,4.171,0,8.342,0,12.513l-5.809,0" transform="translate(-10.369 -49.376)" fill="#fef39b"/>
        <path id="Trazado_135197" data-name="Trazado 135197" d="M46.4,143.034c0-4.215-.014-8.43,0-12.645a2.75,2.75,0,0,1,2.52-2.881c.461-.166.566.168.65.487a4.549,4.549,0,0,1,.074,1.157q0,6.152,0,12.305a2.083,2.083,0,0,1-.315,1.569l0,.062-2.93-.055" transform="translate(-17.986 -49.41)" fill="#fef39b"/>
        <path id="Trazado_135198" data-name="Trazado 135198" d="M71.864,143l-5.808,0c0-4.172-.013-8.343,0-12.515a2.911,2.911,0,1,1,5.81,0c.018,4.172,0,8.343,0,12.515" transform="translate(-25.603 -49.378)" fill="#fde176"/>
        <path id="Trazado_135199" data-name="Trazado 135199" d="M71.9,24.8c0,.838.021,1.678,0,2.516a2.9,2.9,0,0,1-5.795.113c-.067-1.739-.064-3.484,0-5.224a2.9,2.9,0,0,1,5.8.08c.028.838,0,1.677,0,2.516" transform="translate(-25.602 -7.546)" fill="#d8edfe"/>
        <path id="Trazado_135200" data-name="Trazado 135200" d="M66.045,105.8c0-.774-.015-1.548,0-2.321a2.9,2.9,0,0,1,5.789-.2c.084,1.737.08,3.484,0,5.221a2.9,2.9,0,0,1-5.791-.18c-.018-.838,0-1.677,0-2.515" transform="translate(-25.599 -38.978)" fill="#d8edfe"/>
        <path id="Trazado_135201" data-name="Trazado 135201" d="M66.077,78.728c0-.806-.018-1.613,0-2.418a2.9,2.9,0,0,1,5.787-.2c.081,1.77.08,3.549,0,5.319a2.83,2.83,0,0,1-2.987,2.677,2.864,2.864,0,0,1-2.8-2.868c-.023-.838,0-1.677,0-2.515" transform="translate(-25.611 -28.457)" fill="#d8edfe"/>
        <path id="Trazado_135202" data-name="Trazado 135202" d="M66.077,51.862c0-.806-.017-1.612,0-2.418a2.9,2.9,0,0,1,5.794-.169c.065,1.739.069,3.484,0,5.222a2.9,2.9,0,0,1-5.79-.12c-.025-.838,0-1.677,0-2.515" transform="translate(-25.611 -18.028)" fill="#d8edfe"/>
        <path id="Trazado_135203" data-name="Trazado 135203" d="M50.93,142.944q0-7.292,0-14.584c0-.35.174-.816-.4-.935l.417-.175c2.1.451,2.9,1.424,2.9,3.524q0,6.089,0,12.177l-2.909-.007" transform="translate(-19.585 -49.327)" fill="#fde176"/>
        <path id="Trazado_135204" data-name="Trazado 135204" d="M50.793,57.291l-.222-.156c-.159-2.789-.03-5.581-.067-8.372a4.719,4.719,0,0,0-.318-2.164l.612-.194c2.021.329,2.915,1.362,2.916,3.369q0,1.832,0,3.664c0,2.51-.478,3.141-2.922,3.853" transform="translate(-19.454 -17.988)" fill="#d8edfe"/>
        <path id="Trazado_135205" data-name="Trazado 135205" d="M51,19.495l.359-.057a2.856,2.856,0,0,1,2.558,3.08c.009,1.514.012,3.029,0,4.542a2.882,2.882,0,0,1-2.929,3.125l.02-.077a1.482,1.482,0,0,1-.316-1.181q-.019-4.123,0-8.246A1.577,1.577,0,0,1,51,19.495" transform="translate(-19.645 -7.535)" fill="#d8edfe"/>
        <path id="Trazado_135206" data-name="Trazado 135206" d="M51.253,84.076l-.545-.028a1.9,1.9,0,0,1-.311-1.374q-.011-3.756,0-7.512a2.284,2.284,0,0,0-.483-1.612c.219-.223.521-.148.782-.218a2.975,2.975,0,0,1,2.912,3.289q0,2.182,0,4.362a2.917,2.917,0,0,1-2.356,3.092" transform="translate(-19.349 -28.426)" fill="#d8edfe"/>
        <path id="Trazado_135207" data-name="Trazado 135207" d="M50.7,111.313c-.262-.069-.565.007-.785-.216a2.279,2.279,0,0,0,.486-1.612q-.017-3.757,0-7.515a1.9,1.9,0,0,1,.312-1.374l.544-.025a2.982,2.982,0,0,1,2.356,3.192q0,2.126,0,4.252a3.034,3.034,0,0,1-2.911,3.3" transform="translate(-19.347 -38.985)" fill="#d8edfe"/>
        <path id="Trazado_135208" data-name="Trazado 135208" d="M132.049,142.978l-5.82,0c0-4.139.065-8.28-.012-12.417a2.934,2.934,0,1,1,5.84,0c.013,4.14,0,8.279-.008,12.418" transform="translate(-48.926 -49.363)" fill="#fde176"/>
        <path id="Trazado_135209" data-name="Trazado 135209" d="M112.4,142.978l-5.82,0c0-4.139.065-8.28-.012-12.417a2.934,2.934,0,1,1,5.84,0c.013,4.14,0,8.279-.008,12.418" transform="translate(-41.309 -49.363)" fill="#fde176"/>
        <path id="Trazado_135210" data-name="Trazado 135210" d="M126.245,78.743c0-.776-.012-1.552,0-2.328a2.894,2.894,0,0,1,5.78-.278,44.007,44.007,0,0,1-.007,5.332,2.82,2.82,0,0,1-3.135,2.631,2.851,2.851,0,0,1-2.638-2.931c-.016-.808,0-1.617,0-2.426" transform="translate(-48.936 -28.457)" fill="#d8edfe"/>
        <path id="Trazado_135211" data-name="Trazado 135211" d="M106.595,78.711c0-.776-.013-1.552,0-2.328a2.894,2.894,0,0,1,5.783-.219,47.713,47.713,0,0,1,0,5.236,2.9,2.9,0,0,1-5.783-.263c-.015-.808,0-1.617,0-2.426" transform="translate(-41.318 -28.455)" fill="#d8edfe"/>
        <path id="Trazado_135212" data-name="Trazado 135212" d="M106.559,105.814c0-.841-.031-1.682.007-2.521a2.834,2.834,0,0,1,2.547-2.717,2.746,2.746,0,0,1,3.128,2.264,22.45,22.45,0,0,1,0,6.085,2.8,2.8,0,0,1-3,2.331,2.908,2.908,0,0,1-2.672-2.824c-.031-.872-.006-1.746-.006-2.618" transform="translate(-41.302 -38.981)" fill="#d8edfe"/>
        <path id="Trazado_135213" data-name="Trazado 135213" d="M126.209,105.893c0-.873-.032-1.747.009-2.618a2.825,2.825,0,0,1,2.564-2.7,2.744,2.744,0,0,1,3.114,2.282,23.1,23.1,0,0,1,.011,5.99,2.808,2.808,0,0,1-3.038,2.407,2.909,2.909,0,0,1-2.656-2.841c-.029-.84,0-1.68,0-2.521" transform="translate(-48.919 -38.982)" fill="#d8edfe"/>
        <path id="Trazado_135214" data-name="Trazado 135214" d="M32.6,24.822c0,.806.015,1.613,0,2.419a2.9,2.9,0,0,1-5.8.165c-.061-1.739-.066-3.484,0-5.223a2.9,2.9,0,0,1,5.794.123c.026.838,0,1.677,0,2.516" transform="translate(-10.369 -7.546)" fill="#fefefe"/>
        <path id="Trazado_135215" data-name="Trazado 135215" d="M32.559,105.909c0,.838.039,1.678-.009,2.514a2.959,2.959,0,0,1-2.975,2.834,2.9,2.9,0,0,1-2.827-2.961c-.021-1.611-.024-3.223,0-4.835a2.832,2.832,0,0,1,2.855-2.9,2.887,2.887,0,0,1,2.948,2.836c.043.836.007,1.675.007,2.514" transform="translate(-10.362 -38.981)" fill="#fefefe"/>
        <path id="Trazado_135216" data-name="Trazado 135216" d="M26.779,78.748c0-.806-.017-1.612,0-2.418a2.9,2.9,0,0,1,5.794-.137c.062,1.739.07,3.484,0,5.222a2.9,2.9,0,0,1-5.79-.152c-.023-.838,0-1.677,0-2.515" transform="translate(-10.378 -28.458)" fill="#fefefe"/>
        <path id="Trazado_135217" data-name="Trazado 135217" d="M26.779,51.814c0-.806-.019-1.612,0-2.418a2.9,2.9,0,0,1,5.787-.173c.077,1.769.08,3.548,0,5.317a2.9,2.9,0,0,1-5.787-.212c-.021-.838,0-1.676,0-2.514" transform="translate(-10.378 -18.027)" fill="#fefefe"/>
        <path id="Trazado_135218" data-name="Trazado 135218" d="M49.335,100.613c0,3.217-.019,6.435,0,9.652,0,.6-.141.931-.8.849a2.71,2.71,0,0,1-2.137-2.62c-.036-1.7-.04-3.408,0-5.11a2.77,2.77,0,0,1,2.934-2.771" transform="translate(-17.976 -39.002)" fill="#fefefe"/>
        <path id="Trazado_135219" data-name="Trazado 135219" d="M49.34,19.531q0,5.307.007,10.614a2.81,2.81,0,0,1-2.9-2.748c-.061-1.707-.06-3.419,0-5.125a2.783,2.783,0,0,1,2.89-2.741" transform="translate(-17.989 -7.571)" fill="#fefefe"/>
        <path id="Trazado_135220" data-name="Trazado 135220" d="M48.557,73.68c.661-.086.8.252.793.849-.02,3.216,0,6.432,0,9.648a2.788,2.788,0,0,1-2.918-2.813c-.031-1.645-.024-3.292,0-4.938a2.745,2.745,0,0,1,2.127-2.746" transform="translate(-17.99 -28.556)" fill="#fefefe"/>
        <path id="Trazado_135221" data-name="Trazado 135221" d="M48.723,46.722c.342.03.622.089.62.549-.013,3.193-.007,6.386-.021,9.579,0,.137-.14.272-.214.409a2.8,2.8,0,0,1-2.679-2.871q-.035-2.423,0-4.848a2.777,2.777,0,0,1,2.295-2.817" transform="translate(-17.991 -18.111)" fill="#fefefe"/>
      </g>
    </g>
  </g>
</svg>
