<svg xmlns="http://www.w3.org/2000/svg" xmlns:xlink="http://www.w3.org/1999/xlink" width="165" height="135" viewBox="0 0 165 135">
  <defs>
    <clipPath id="clip-path">
      <rect id="Rect치ngulo_38051" data-name="Rect치ngulo 38051" width="108.317" height="108.329" fill="none"/>
    </clipPath>
  </defs>
  <g id="_45" data-name="45" transform="translate(8373 2692)">
    <rect id="Rect치ngulo_37682" data-name="Rect치ngulo 37682" width="165" height="135" transform="translate(-8373 -2692)" fill="#c4d1ff"/>
    <g id="Grupo_158864" data-name="Grupo 158864" transform="translate(-8345 -2679)">
      <g id="Grupo_158863" data-name="Grupo 158863" clip-path="url(#clip-path)">
        <path id="Trazado_135222" data-name="Trazado 135222" d="M133.832,108.309H112.7a1.324,1.324,0,0,1-.478-1.115c-.047-3.292-.055-6.584.006-9.876a1.423,1.423,0,0,1,.235-.9,2.49,2.49,0,0,1,1.8-.443c2.6-.022,5.208.006,7.811-.014,1.462-.011,1.72-.276,1.739-1.729.012-.915.023-1.83-.006-2.745-.038-1.165-.334-1.456-1.566-1.47-2.639-.03-5.278,0-7.917-.017a2.751,2.751,0,0,1-1.816-.409,1.528,1.528,0,0,1-.284-1.093q-.069-3.778,0-7.556a1.617,1.617,0,0,1,.239-1,2.472,2.472,0,0,1,1.794-.446c2.6-.022,5.208.005,7.813-.015,1.464-.011,1.722-.276,1.742-1.727.012-.88.018-1.76,0-2.64-.029-1.267-.306-1.562-1.567-1.577-2.639-.031-5.279,0-7.918-.017a2.756,2.756,0,0,1-1.817-.409,1.368,1.368,0,0,1-.278-.988c-.054-2.519-.059-5.037,0-7.556a1.446,1.446,0,0,1,.233-.9,2.476,2.476,0,0,1,1.794-.445c2.6-.021,5.208.006,7.812-.015,1.464-.011,1.722-.275,1.741-1.727.013-.95.019-1.9,0-2.851-.028-1.268-.305-1.563-1.567-1.578-2.639-.031-5.278,0-7.917-.017a2.752,2.752,0,0,1-1.817-.409,1.366,1.366,0,0,1-.279-.987c-.054-2.519-.059-5.038,0-7.556a1.444,1.444,0,0,1,.233-.9,2.477,2.477,0,0,1,1.794-.446c2.6-.021,5.208.006,7.813-.015,1.464-.011,1.722-.275,1.741-1.727.013-.95.019-1.9,0-2.851-.028-1.267-.306-1.562-1.569-1.577-2.639-.031-5.278,0-7.917-.017a2.749,2.749,0,0,1-1.817-.41,1.707,1.707,0,0,1-.288-1.2c-.041-2.313-.033-4.626-.006-6.938a2.653,2.653,0,0,1,.292-1.32c.417-.52,1.02-.413,1.564-.421,2.6-.039,5.2-.005,7.807-.021,1.706-.01,1.927-.238,1.937-1.973.006-.95.012-1.9-.01-2.849a1.2,1.2,0,0,0-1.3-1.329c-.352-.013-.7-.015-1.055-.015q-20.573,0-41.147,0c-2.267,0-2.366.1-2.372,2.389,0,.985.011,1.97-.012,2.955a2.473,2.473,0,0,1-.386,1.507c-.055.045-.106.12-.165.128a24.881,24.881,0,0,1-7.082-.013c-.059-.009-.109-.085-.163-.128a2.78,2.78,0,0,1-.383-1.72q-.022-13.735,0-27.469c0-1.634.122-1.72,1.74-1.72q30.577,0,61.156,0c1.437,0,1.3-.154,1.3,1.3q0,52.931,0,105.862a2.251,2.251,0,0,1-.1,1.142" transform="translate(-25.64 0)" fill="#808184"/>
        <path id="Trazado_135223" data-name="Trazado 135223" d="M40.917,48.541c.357-.438.851-.244,1.28-.246q8.753-.037,17.506-.042l7.14.014c.646-.6,1.456-.433,2.21-.434q15.332-.02,30.664-.008c.457,0,.914,0,1.369.035.389.033.783.058.986.477l.051,9.324a1.3,1.3,0,0,1,.467,1.121q.064,2.425,0,4.849a1.207,1.207,0,0,1-.467,1.115q0,4.691,0,9.382a1.337,1.337,0,0,1,.466,1.122q.064,2.421,0,4.841a1.178,1.178,0,0,1-.464,1.111q0,4.7,0,9.4a1.374,1.374,0,0,1,.465,1.113c.046,1.564.04,3.127,0,4.691a1.731,1.731,0,0,1-.469,1.232q0,4.722,0,9.445a1.31,1.31,0,0,1,.458,1.023c.052,1.653.058,3.306,0,4.958a1.508,1.508,0,0,1-.455,1.035q-.008,5.894-.015,11.789h-18.8a1.408,1.408,0,0,1-.484-1.221q-.059-7.146,0-14.293a1.984,1.984,0,0,1,.168-.921,1.894,1.894,0,0,1,1.628-.541c1.683-.032,3.366.008,5.048-.02,1.758-.029,2.384-.668,2.422-2.437.011-.526.007-1.052.005-1.578-.008-1.817-.107-1.916-1.984-2.007-1.884.124-3.767.062-5.65.047a2.328,2.328,0,0,1-1.3-.345,2.03,2.03,0,0,1-.35-1.571A11.462,11.462,0,0,1,83,97.61a1.93,1.93,0,0,1,1.637-.53c1.684-.031,3.37,0,5.055-.018,1.8-.023,2.363-.594,2.4-2.425.011-.527.007-1.054,0-1.581-.008-1.824-.108-1.925-1.98-2.019-1.884.123-3.768.061-5.651.047a2.337,2.337,0,0,1-1.3-.344A8.8,8.8,0,0,1,83,85.992a1.92,1.92,0,0,1,1.638-.535c1.652-.032,3.306.013,4.958-.022,1.815-.039,2.47-.708,2.5-2.508.009-.563.006-1.125,0-1.688-.008-1.847-.094-1.937-1.966-2.036-2.291.116-4.58.095-6.87.007-.6.04-1.2.063-1.794.063q-19.059,0-38.118,0c-2.4,0-2.4-.009-2.4-2.425q0-13.572,0-27.144a7.981,7.981,0,0,0-.029-1.16" transform="translate(-15.046 -17.581)" fill="#d53434"/>
        <path id="Trazado_135224" data-name="Trazado 135224" d="M75.095,86.351q0,2.339,0,4.677a1.494,1.494,0,0,1,.486,1.309c.03,1.108.034,2.217-.044,3.325-.021.815.271,1.69-.45,2.372q.006,2.393.011,4.786a1.656,1.656,0,0,1,.484,1.322c.025,1.109.036,2.219-.048,3.326-.043.8.308,1.682-.438,2.355q0,8.244,0,16.488H53.961a1.446,1.446,0,0,1-.314-1.184c-.005-1.585-.01-3.168,0-4.753.009-1.278.187-1.493,1.458-1.518,3.2-.065,6.406-.015,9.608-.027h.528c1.961-.01,2.8-1.312,2.031-3.129-.271-.639-.829-.7-1.407-.706-2.393-.021-4.786,0-7.18-.011-1.267,0-2.534.013-3.8-.026-.873-.027-1.3-.424-1.24-1.315a19.862,19.862,0,0,1,.159-3.88,2.381,2.381,0,0,1,1.792-.432c3.3-.02,6.6,0,9.907-.013a1.935,1.935,0,0,0,1.733-3.032c-.324-.6-.91-.589-1.473-.592-3.092-.015-6.183,0-9.274-.007-.492,0-.984.006-1.475-.023a1.814,1.814,0,0,1-1.176-.388,19.709,19.709,0,0,1-.168-4.525.854.854,0,0,1,.189-.357,2.92,2.92,0,0,1,1.826-.364c3.271-.015,6.542,0,9.812-.013.653,0,1.462.142,1.735-.656a3.631,3.631,0,0,0-.073-2.676.932.932,0,0,0-.788-.462,7.79,7.79,0,0,0-1.158-.044q-18.463,0-36.926,0c-.211,0-.422.011-.633.005A1.336,1.336,0,0,0,26.1,97.4a1.673,1.673,0,0,1-.336.768.979.979,0,0,1-.671.266,55.615,55.615,0,0,1-5.586.011.86.86,0,0,1-.938-1c.034-5.978-.035-11.955.041-17.933.356-.427.848-.264,1.284-.266,3.869-.013,7.738-.037,11.606.014.938.012,1.179-.267,1.175-1.191-.033-9.322-.021-18.644-.018-27.967,0-.385.029-.77.045-1.151.028.421.082.838.082,1.256q.008,13.731,0,27.463c0,1.562,0,1.564,1.526,1.564q19.589,0,39.178,0c.525,0,1.05.059,1.575.09.513.237.487.723.505,1.164a31.265,31.265,0,0,1-.036,3.536c-.038.791.306,1.655-.436,2.313" transform="translate(-6.827 -18.003)" fill="#fecc50"/>
        <path id="Trazado_135225" data-name="Trazado 135225" d="M11.779,97.293q.025,8.429.048,16.857c0,1.673,0,1.68,1.633,1.672,1.79-.008,3.579-.031,5.369-.048.458-.6,1.131-.5,1.75-.5,3.134-.027,6.267-.011,9.4-.012q7.129,0,14.258,0c.563,0,1.127,0,1.689.024.607.03,1.294.037,1.509.721a1.915,1.915,0,0,1-.319,2.244c-.025.12-.05.24-.075.36a45.69,45.69,0,0,0,.156,5.03,32.418,32.418,0,0,1-.157,5.444c-.049,1.424.254,2.857.286,4.25.083,3.58-.391,7.161-.4,10.753q-23.029,0-46.058.02c-.723,0-.868-.142-.866-.866.032-9.157.021-18.315.021-27.473,3.555.011,7.11,0,10.665.044.928.011,1-.491,1-1.208q-.019-8.028,0-16.056c0-.418.063-.836.1-1.254" transform="translate(0 -35.776)" fill="#cbcbcb"/>
        <path id="Trazado_135226" data-name="Trazado 135226" d="M74.212,156.48q.011-12.06.026-24.121c0-.453.062-.905.094-1.357q.047,2.179.1,4.354c.2.2.429.391.42.7-.039,1.32.5,2.7-.422,3.929-.012,1.23.007,2.462-.046,3.691-.035.8.314,1.022,1.065,1.018,3.9-.024,7.806.015,11.707-.028.948-.01,1.357.255,1.269,1.248a15.287,15.287,0,0,0,0,2.424c.063.881-.287,1.157-1.152,1.149-3.8-.035-7.594-.016-11.392-.014-1.483,0-1.488,0-1.485,1.527.005,1.829.021,3.657.032,5.485Z" transform="translate(-27.289 -48.171)" fill="#feeab8"/>
        <path id="Trazado_135227" data-name="Trazado 135227" d="M117.127,44.477q-12.6-.016-25.209-.033c-3.34-.006-6.679-.024-10.019-.037-.009-2.042.008-4.083-.039-6.123-.017-.734.225-.983.964-.971,2.251.037,4.5.013,6.755.013h37.789c1.492,0,1.493,0,1.495,1.5,0,1.513-.037,3.028.014,4.54.028.831-.266,1.09-1.091,1.085-3.553-.022-7.106.014-10.658.029" transform="translate(-30.101 -13.721)" fill="#fecc50"/>
        <path id="Trazado_135228" data-name="Trazado 135228" d="M105.336,22.131H83.274c-1.4,0-1.4,0-1.4-1.444,0-1.548.032-3.1-.013-4.645-.021-.744.254-1.039.977-.96a5.057,5.057,0,0,0,.527,0h43.912c1.584,0,1.585,0,1.586,1.629q0,1.954,0,3.907c0,1.51,0,1.511-1.464,1.512H105.336" transform="translate(-30.101 -5.541)" fill="#fecc50"/>
        <path id="Trazado_135229" data-name="Trazado 135229" d="M137.719,70.461q0-3.542,0-7.084c3.519,0,7.038.02,10.556-.024.874-.011,1.175.259,1.144,1.137-.056,1.652-.047,3.309,0,4.962.022.786-.26,1.041-1.036,1.034-3.553-.033-7.108-.021-10.661-.025" transform="translate(-50.641 -23.296)" fill="#fecc50"/>
        <path id="Trazado_135230" data-name="Trazado 135230" d="M137.722,96.5q0-3.538,0-7.075c3.519,0,7.037.022,10.555-.023.874-.011,1.175.252,1.144,1.133-.058,1.652-.049,3.309,0,4.962.022.787-.261,1.043-1.034,1.035-3.553-.034-7.108-.025-10.661-.032" transform="translate(-50.642 -32.873)" fill="#fecc50"/>
        <path id="Trazado_135231" data-name="Trazado 135231" d="M137.722,148.555q0-3.508,0-7.016c3.511,0,7.022.032,10.531-.026.958-.016,1.2.31,1.168,1.207-.061,1.543-.073,3.092,0,4.633.051,1.008-.346,1.235-1.276,1.223-3.475-.046-6.951-.02-10.426-.021" transform="translate(-50.642 -52.036)" fill="#fecc50"/>
        <path id="Trazado_135232" data-name="Trazado 135232" d="M137.721,122.513v-7.036c3.511,0,7.023.02,10.534-.02.838-.009,1.2.187,1.166,1.1-.063,1.614-.059,3.232,0,4.846.032.895-.315,1.134-1.163,1.125-3.511-.036-7.023-.015-10.535-.015" transform="translate(-50.642 -42.455)" fill="#fecc50"/>
        <path id="Trazado_135233" data-name="Trazado 135233" d="M67.556,64.26a21,21,0,0,0,.071-3.681c-.019-.886.443-.949,1.12-.939s1.266-.034,1.215.95c-.062,1.192.012,2.391-.025,3.586a2.33,2.33,0,0,1-2.524,2.486q-4.535.034-9.071,0a2.3,2.3,0,0,1-2.522-2.575c-.011-1.09.054-2.184-.02-3.269-.064-.941.274-1.3,1.2-1.175a10.877,10.877,0,0,0,1.159.033,1.406,1.406,0,0,1,.477,1.225c.021.492,0,.985.027,1.477.054,1.071.335,1.374,1.416,1.4,1.933.044,3.867.008,5.8.018a2.5,2.5,0,0,1,1.681.465" transform="translate(-20.516 -21.923)" fill="#6b1a1a"/>
        <path id="Trazado_135234" data-name="Trazado 135234" d="M67.54,82.949a18.639,18.639,0,0,0,.087-3.679c-.012-.871.427-.966,1.116-.954s1.269-.02,1.218.959c-.059,1.158.015,2.323-.025,3.483a2.39,2.39,0,0,1-2.681,2.567q-4.381.019-8.76,0a2.361,2.361,0,0,1-2.674-2.656c-.011-1.055.054-2.115-.02-3.166-.065-.938.275-1.3,1.2-1.184a10.891,10.891,0,0,0,1.16.028,1.434,1.434,0,0,1,.47,1.129c.017.457.013.914.025,1.371.034,1.343.29,1.619,1.61,1.638,1.863.027,3.725,0,5.589.012a2.449,2.449,0,0,1,1.687.452" transform="translate(-20.516 -28.791)" fill="#6b1a1a"/>
        <path id="Trazado_135235" data-name="Trazado 135235" d="M112.205,59.685c2.84-.058,2.279-.24,2.336,2.208.02.879.028,1.761-.022,2.638a2.118,2.118,0,0,1-2.171,2.128q-4.8.053-9.6,0a2.079,2.079,0,0,1-2.207-2.186c-.045-1.3.018-2.6-.031-3.9-.034-.9.493-.9,1.149-.924.729-.022,1.1.158,1.091.988a20.189,20.189,0,0,0,.077,3.577,2.531,2.531,0,0,1,1.595-.407c1.68-.008,3.36,0,5.041,0,2.1-.006,2.184-.1,2.234-2.176.016-.675-.175-1.43.51-1.939" transform="translate(-36.958 -21.932)" fill="#6b1a1a"/>
        <path id="Trazado_135236" data-name="Trazado 135236" d="M112.2,78.36c2.828-.053,2.285-.224,2.34,2.219.018.809.021,1.62-.011,2.429a2.238,2.238,0,0,1-2.341,2.322q-4.644.036-9.29,0a2.211,2.211,0,0,1-2.364-2.286c-.038-1.266.019-2.535-.025-3.8-.032-.9.515-.908,1.164-.915s1.071.1,1.072.9a22.125,22.125,0,0,0,.084,3.684,2.626,2.626,0,0,1,1.7-.409c1.823-.008,3.645.012,5.468-.009,1.4-.016,1.62-.273,1.7-1.661.046-.843-.276-1.779.508-2.477" transform="translate(-36.959 -28.802)" fill="#6b1a1a"/>
        <path id="Trazado_135237" data-name="Trazado 135237" d="M68.926,64.275c-2.946.21-5.9.038-8.843.093-.593.011-.565-.374-.563-.775.005-1.3,0-2.6.006-3.9,2.817-.006,5.634,0,8.45-.03.691-.008.936.236.923.917-.024,1.232.015,2.464.028,3.7" transform="translate(-21.886 -21.938)" fill="#e1a2a2"/>
        <path id="Trazado_135238" data-name="Trazado 135238" d="M113.554,59.689q0,1.951.009,3.9c0,.4.031.782-.563.776-2.881-.023-5.761-.03-8.641-.047-.061,0-.121-.066-.183-.1.016-1.191.066-2.382.037-3.572-.016-.7.164-1,.932-.988,2.8.044,5.606.027,8.409.033" transform="translate(-38.307 -21.936)" fill="#e1a2a2"/>
        <path id="Trazado_135239" data-name="Trazado 135239" d="M68.906,82.958c-2.909.016-5.818.02-8.726.061-.606.008-.679-.279-.67-.769.022-1.3.012-2.594.015-3.892,2.8-.007,5.6,0,8.394-.034.723-.009,1,.23.978.963-.036,1.223,0,2.448.009,3.672" transform="translate(-21.883 -28.8)" fill="#e1a2a2"/>
        <path id="Trazado_135240" data-name="Trazado 135240" d="M113.552,78.359q.006,1.946.012,3.892c0,.394.042.775-.561.762-2.94-.066-5.882.111-8.822-.1.015-1.229.063-2.458.034-3.685-.016-.689.229-.915.912-.907,2.808.035,5.617.027,8.425.034" transform="translate(-38.309 -28.801)" fill="#e1a2a2"/>
        <path id="Trazado_135241" data-name="Trazado 135241" d="M107.929,101.567q-.006-2.313-.011-4.626c2.323-.233,4.653-.011,6.979-.1a1.062,1.062,0,0,1,.477.885,23.487,23.487,0,0,1-.006,3.247,1.082,1.082,0,0,1-1.131,1.124c-1.781.094-3.562.086-5.344.009a1.145,1.145,0,0,1-.964-.541" transform="translate(-39.683 -35.606)" fill="#e1a2a2"/>
        <path id="Trazado_135242" data-name="Trazado 135242" d="M107.945,120.148q.007-2.327.013-4.655l6.988.02a1.238,1.238,0,0,1,.445.916,22.092,22.092,0,0,1-.015,3.048c-.047.593-.319,1.028-.943,1.076a40.894,40.894,0,0,1-5.778.011,1.2,1.2,0,0,1-.709-.417" transform="translate(-39.693 -42.468)" fill="#e1a2a2"/>
        <path id="Trazado_135243" data-name="Trazado 135243" d="M107.938,138.806q.01-2.33.021-4.661l6.971.024a1.423,1.423,0,0,1,.473,1.118,23.22,23.22,0,0,1-.009,2.62c-.076,1.065-.333,1.335-1.426,1.389-1.606.079-3.214.054-4.821.013a1.419,1.419,0,0,1-1.209-.5" transform="translate(-39.69 -49.327)" fill="#e1a2a2"/>
        <path id="Trazado_135244" data-name="Trazado 135244" d="M107.935,101.567c2.069.009,4.139.005,6.208.036.564.008.833-.137.811-.762-.047-1.332-.039-2.665-.052-4,2.833-.011,2.319-.279,2.371,2.31.015.739.013,1.479,0,2.217a2.352,2.352,0,0,1-2.555,2.574c-2.252.034-4.505.008-6.757.008q-.011-1.193-.022-2.387" transform="translate(-39.689 -35.606)" fill="#6b1a1a"/>
        <path id="Trazado_135245" data-name="Trazado 135245" d="M107.945,120.143c2.073.01,4.147.006,6.22.041.582.009.812-.164.794-.774-.038-1.3-.013-2.6-.013-3.9,2.837-.059,2.272-.231,2.331,2.2.02.841.025,1.685-.015,2.525a2.155,2.155,0,0,1-2.264,2.25c-2.349.039-4.7.011-7.048.011q0-1.175-.005-2.351" transform="translate(-39.693 -42.463)" fill="#6b1a1a"/>
        <path id="Trazado_135246" data-name="Trazado 135246" d="M107.938,138.806c2.04.007,4.08-.01,6.119.034.67.015.935-.159.9-.872-.057-1.264-.025-2.532-.03-3.8,2.836-.056,2.288-.209,2.345,2.219.017.738.013,1.478,0,2.217a2.315,2.315,0,0,1-2.559,2.544c-2.252.011-4.5,0-6.755,0q-.009-1.171-.018-2.343" transform="translate(-39.69 -49.327)" fill="#6b1a1a"/>
        <path id="Trazado_135247" data-name="Trazado 135247" d="M50.988,112.756c-6.652,0-13.3-.021-19.955.022-1.021.006-1.4-.286-1.294-1.307a10.009,10.009,0,0,0,0-2.109c-.112-1.042.316-1.3,1.313-1.293q16.893.046,33.787.02c2.041,0,4.083.031,6.124-.015.83-.018,1.148.267,1.1,1.1a16.362,16.362,0,0,0,0,2.427c.084.964-.329,1.18-1.224,1.177-6.616-.032-13.233-.017-19.849-.017" transform="translate(-10.929 -39.738)" fill="#feeab8"/>
        <path id="Trazado_135248" data-name="Trazado 135248" d="M58.066,127.656c-.011-2.76.274-2.458-2.5-2.462q-12.9-.016-25.792-.013c-.02-2.3-.02-2.3,2.267-2.3H70.577c1.488,0,1.528,0,1.477,1.521-.035,1.037.474,2.34-.258,3.04-.679.65-1.953.209-2.962.216-3.589.023-7.178,0-10.768,0" transform="translate(-10.949 -45.184)" fill="#feeab8"/>
        <path id="Trazado_135249" data-name="Trazado 135249" d="M74.551,142.5l0-4.625c4.329-.006,8.659,0,12.989-.027.715,0,1.031.224,1,.969-.04.914-.041,1.832,0,2.746.034.749-.288.969-1,.964-4.33-.027-8.659-.022-12.989-.028" transform="translate(-27.413 -50.687)" fill="#feeab8"/>
        <path id="Trazado_135250" data-name="Trazado 135250" d="M23.374,155.009c0,2.415,0,2.427-2.372,2.413-2.639-.016-2.279.3-2.3-2.286-.018-2.52,0-2.533,2.486-2.517,2.561.016,2.14-.31,2.183,2.389" transform="translate(-6.875 -56.118)" fill="#999"/>
        <path id="Trazado_135251" data-name="Trazado 135251" d="M33.453,154.994c.042-2.726-.377-2.373,2.3-2.373,2.743,0,2.366-.355,2.367,2.418,0,2.685.371,2.363-2.307,2.379-2.361.015-2.361,0-2.361-2.424" transform="translate(-12.301 -56.115)" fill="#999"/>
        <path id="Trazado_135252" data-name="Trazado 135252" d="M53.117,155.02c0,2.4,0,2.416-2.381,2.4-2.631-.017-2.263.307-2.283-2.3-.018-2.509,0-2.522,2.493-2.505,2.553.016,2.126-.308,2.171,2.4" transform="translate(-17.814 -56.119)" fill="#999"/>
        <path id="Trazado_135253" data-name="Trazado 135253" d="M21.093,142.52c-2.763-.044-2.378.384-2.385-2.407-.006-2.577-.309-2.227,2.229-2.245,2.435-.017,2.45,0,2.431,2.458-.019,2.527.341,2.157-2.275,2.195" transform="translate(-6.874 -50.693)" fill="#989898"/>
        <path id="Trazado_135254" data-name="Trazado 135254" d="M33.454,140.134c.04-2.62-.354-2.265,2.309-2.264,2.7,0,2.36-.371,2.359,2.323s.352,2.3-2.365,2.32c-2.3.02-2.3,0-2.3-2.379" transform="translate(-12.301 -50.69)" fill="#989898"/>
        <path id="Trazado_135255" data-name="Trazado 135255" d="M53.118,140.265c-.039,2.591.341,2.234-2.214,2.253-2.453.018-2.464,0-2.449-2.446.016-2.509-.3-2.175,2.167-2.206h.106c2.391,0,2.391,0,2.391,2.4" transform="translate(-17.815 -50.695)" fill="#989898"/>
      </g>
    </g>
  </g>
</svg>
