<svg xmlns="http://www.w3.org/2000/svg" xmlns:xlink="http://www.w3.org/1999/xlink" width="165" height="116" viewBox="0 0 165 116">
  <defs>
    <clipPath id="clip-path">
      <rect id="Rect치ngulo_38052" data-name="Rect치ngulo 38052" width="95.907" height="107.736" fill="none"/>
    </clipPath>
  </defs>
  <g id="_46" data-name="46" transform="translate(7408 2854)">
    <rect id="Rect치ngulo_37677" data-name="Rect치ngulo 37677" width="165" height="116" transform="translate(-7408 -2854)" fill="#c4d1ff"/>
    <g id="Grupo_158867" data-name="Grupo 158867" transform="translate(-7373 -2850)">
      <g id="Grupo_158866" data-name="Grupo 158866" clip-path="url(#clip-path)">
        <path id="Trazado_135256" data-name="Trazado 135256" d="M72.991,123.117a21.33,21.33,0,0,1,6.061,12.394c.595,4.28.137,8.6.269,12.9-.424.444-.978.281-1.482.292a3.849,3.849,0,0,0-1.894,7.328c.251.14.639.172.6.609H52.982c-.066-.351.222-.406.436-.462A6.413,6.413,0,0,0,58,151.386a1.761,1.761,0,0,1,.127-.285,64.754,64.754,0,0,1,5.253-4.805,15.614,15.614,0,0,0,4-4.52,9.571,9.571,0,0,0,.409-7.439c-.109-.332-.257-.65-.371-.981a.859.859,0,0,1,.674-1.266,6.428,6.428,0,0,0,2.187-.986A6.309,6.309,0,0,0,73,124.623c-.074-.495-.39-1-.013-1.506" transform="translate(-21.042 -48.906)" fill="#665e66"/>
        <path id="Trazado_135257" data-name="Trazado 135257" d="M9.5,156.253c-1.976-.793-3.474-2.026-3.878-4.249a5.911,5.911,0,0,1-.1-1.04c0-4.38-.121-8.764.031-13.138a22.009,22.009,0,0,1,6.888-15.689c.309.406.064.8-.039,1.189a6.587,6.587,0,0,0,1.459,6.5,1.627,1.627,0,0,1,.494,1.009,4.314,4.314,0,0,1-.242,1.233,24.494,24.494,0,0,0-.926,6.946c.051,3.045.012,6.091.013,9.136,0,1.88,0,1.882,1.933,1.882q7.665,0,15.331,0c.385,0,.77-.007,1.155.007,1.3.049,1.51.253,1.526,1.561.014,1.155.008,2.31,0,3.465a1.613,1.613,0,0,1-.294,1.191Z" transform="translate(-2.174 -48.517)" fill="#544f57"/>
        <path id="Trazado_135258" data-name="Trazado 135258" d="M37.705,161.817c0-1.612-.045-3.227.011-4.837.03-.823-.214-1.078-1.057-1.073-5.89.035-11.779,0-17.668.041-.993.008-1.316-.232-1.3-1.266.063-3.61.05-7.222.016-10.832a23.541,23.541,0,0,1,1.042-6.69c.095-.334.158-.676.236-1.015a17.766,17.766,0,0,1,3.574,1.35c.559.2.2.82.036,1.2a10.552,10.552,0,0,0-.8,5.124,9.644,9.644,0,0,0,1.439,4.117,1.723,1.723,0,0,0,1.724.749c2.9-.007,5.8,0,8.7-.009,1.084-.049,2.167-.028,3.249-.014A1.538,1.538,0,0,1,38,148.97a2.4,2.4,0,0,1,.257,1.418q.011,4.968,0,9.937a2.072,2.072,0,0,1-.338,1.492Z" transform="translate(-7.028 -54.081)" fill="#665e66"/>
        <path id="Trazado_135259" data-name="Trazado 135259" d="M113.327,164.892q3.614.019,7.228.037c2.377.01,4.114,1.279,4.487,3.285.4,2.13-.674,3.838-2.979,4.762-.059.023-.1.09-.151.137H110.763a4.049,4.049,0,0,1-3.41-3.683,4.4,4.4,0,0,1,2.825-4.445,5.123,5.123,0,0,1,.779-.306,3.536,3.536,0,0,1,2.371.213" transform="translate(-42.637 -65.377)" fill="#c5855c"/>
        <path id="Trazado_135260" data-name="Trazado 135260" d="M102.658,164.915c-.737.5-1.651.72-2.222,1.489a4.074,4.074,0,0,0,1.778,6.452,4.942,4.942,0,0,1,.445.24H90.035a4.586,4.586,0,0,1-2.97-3.084,4.141,4.141,0,0,1,3.659-5.117c.695-.031,1.392-.02,2.089-.028l5.859.008c1.125-.568,2.313-.242,3.479-.248a.752.752,0,0,1,.508.289" transform="translate(-34.533 -65.36)" fill="#bd694f"/>
        <path id="Trazado_135261" data-name="Trazado 135261" d="M51.227,170.088,51.2,157.259a1.7,1.7,0,0,1,1.757-.094,8.514,8.514,0,0,1,2.386,1.193,6.389,6.389,0,0,1,2.479,5.049,2.587,2.587,0,0,1-.253,1.208,6.807,6.807,0,0,1-5.293,5.472Z" transform="translate(-20.34 -62.352)" fill="#fedccd"/>
        <path id="Trazado_135262" data-name="Trazado 135262" d="M95.683,3.536c7.776,0,15.554-.119,23.328.027a11.4,11.4,0,0,1,11.17,11.582q.043,7.935,0,15.87a11.463,11.463,0,0,1-9.692,11.36,12.311,12.311,0,0,1-1.992.073c-4.344.005-8.688.02-13.032-.013a2.984,2.984,0,0,0-1.922.652c-2.4,1.806-4.816,3.59-7.227,5.383a2.468,2.468,0,0,1-.7-1.911c-.025-.84-.006-1.682-.009-2.523,0-1.4-.007-1.4-1.3-1.868a11.674,11.674,0,0,1-6.268-5.026,11.186,11.186,0,0,1-1.688-5.782c-.01-5.537-.02-11.074,0-16.611A11.863,11.863,0,0,1,93.774,4.072c.625-.241,1.3-.254,1.91-.535" transform="translate(-34.297 -1.386)" fill="#b2e49e"/>
        <path id="Trazado_135263" data-name="Trazado 135263" d="M69.841,71.952a6.289,6.289,0,0,1-2.474.171c-.469.027-.664.156-.709.661a21.344,21.344,0,0,1-6.442,13.7c-.174.171-.322.366-.483.551-.169.709-.851.965-1.277,1.449a27.765,27.765,0,0,1-6.13,3.309c-.453.159-.9.413-1.4.137A31.874,31.874,0,0,1,45.3,88.9a21.63,21.63,0,0,1-9.036-15.921c-.374-3.881-.134-7.766-.181-11.648-.048-4.026-.02-8.054,0-12.08,0-.64-.134-1.38.705-1.691a2.948,2.948,0,0,1,1.5.4,39.657,39.657,0,0,0,16.285,3.026,41.6,41.6,0,0,0,5.424-.533,7.367,7.367,0,0,1,1.869-.218c.507.1.633.51.728.923a11.234,11.234,0,0,0,3.685,5.972,1.822,1.822,0,0,1,.674.915A4.631,4.631,0,0,1,67.2,59.7c-.05,3.675.129,7.353-.106,11.024-.044.683.26.843.847.875.643.035,1.345-.183,1.9.353" transform="translate(-14.32 -18.889)" fill="#fedccd"/>
        <path id="Trazado_135264" data-name="Trazado 135264" d="M62.069,31.855a48.618,48.618,0,0,1-8.513.881A40.1,40.1,0,0,1,37.7,29.466c-.287-.122-.585-.216-.878-.324-.266-.074-.546-.129-.629-.456-.991-12.1,4.778-22.366,16.034-27,.874-.36,1.824-.464,2.676-.878A24.834,24.834,0,0,1,65.414,5.79c.116.405-.152.662-.374.925a11.32,11.32,0,0,0-2.684,7.654c.04,5.292.016,10.584.005,15.876a2.219,2.219,0,0,1-.293,1.611" transform="translate(-14.333 -0.32)" fill="#c5855c"/>
        <path id="Trazado_135265" data-name="Trazado 135265" d="M26.04,41.2l.439.4c-.489.222-.436.661-.436,1.081,0,7.489-.105,14.98.037,22.466A21.725,21.725,0,0,0,40.024,85.161c.321.125.7.171.74.624-.351.537-.948.557-1.482.665a21.564,21.564,0,0,1-17.408-3.737c-.594-.583-1.453-.91-1.741-1.791a24.561,24.561,0,0,1-4.411-5.688,21.8,21.8,0,0,1-2.493-8.466c-.053-.6-.255-.751-.819-.773a4.979,4.979,0,0,1-2.363-.181c.391-.4.9-.317,1.383-.334,1.409-.051,1.442-.071,1.445-1.52.007-3.567,0-7.134,0-10.7,0-.385-.015-.769.02-1.152.03-6.063,0-12.126.023-18.19,0-.6-.289-1.443.381-1.712.586-.236,1,.512,1.4.917a41.6,41.6,0,0,0,10.048,7.2,3.44,3.44,0,0,1,1.286.882" transform="translate(-3.991 -12.775)" fill="#fecabd"/>
        <path id="Trazado_135266" data-name="Trazado 135266" d="M22.92,28.425a39.613,39.613,0,0,1-9.137-5.676c-1.262-.992-2.35-2.171-3.7-3.407V39.134c-.842.576-1.837.36-2.754.475a6.5,6.5,0,0,0-3.952,1.754,2.23,2.23,0,0,1-.41.328c-.44.267-.773.364-.767-.37.046-6.133-.072-12.266.064-18.4A24.655,24.655,0,0,1,26.871.006c2.943.02,5.888.029,8.832,0A25.432,25.432,0,0,1,41.44.485c.177.634-.436.465-.644.524a24.333,24.333,0,0,0-14.272,11,23.644,23.644,0,0,0-3.435,10.762c-.156,1.891-.086,3.772-.169,5.656" transform="translate(-0.872 0)" fill="#bd694f"/>
        <path id="Trazado_135267" data-name="Trazado 135267" d="M67.08,114.348c.262-.612.863-.882,1.316-1.3,2.272-.012,3.738,1.309,4.966,3.013a17.04,17.04,0,0,1,1.57,3.057c.617,2.313.629,4.546-.858,6.588a6.722,6.722,0,0,1-3.512,2.514c-1.257.391-1.253.345-.752,1.6a9.49,9.49,0,0,1-1.1,9.5c-1.3,1.834-3.2,3.08-4.813,4.606-1.187,1.124-2.45,2.167-3.679,3.246a6.89,6.89,0,0,0-2.349-6.068,5.337,5.337,0,0,1,.595-2.289c.4-1.071.759-2.153,1.112-3.239,1.142-3.134,2.145-6.317,3.3-9.448a4.671,4.671,0,0,1,.486-1.147c.726-.6,1.612-.958,2.3-1.64a6.924,6.924,0,0,0,1.695-7.9c-.138-.351-.394-.677-.271-1.094" transform="translate(-22.984 -44.906)" fill="#756e78"/>
        <path id="Trazado_135268" data-name="Trazado 135268" d="M22.5,113.057l1.673,1.482a1.91,1.91,0,0,1-.237,1.006,6.932,6.932,0,0,0,3.169,8.829,2.761,2.761,0,0,1,.855.6,13.665,13.665,0,0,1,1.006,2.52c.912,2.821,1.979,5.588,2.885,8.41.307.908.587,1.824.949,2.714.151.371.344.765.064,1.171-3.045.008-6.09,0-9.136.037a1.457,1.457,0,0,1-1.375-.778,9.977,9.977,0,0,1-.849-9.213c.165-.417.313-.841.487-1.308a10.359,10.359,0,0,1-3.676-1.552c-2.486-2.429-2.819-5.29-1.694-8.444a12.167,12.167,0,0,1,2.561-3.891,5.331,5.331,0,0,1,3.316-1.582" transform="translate(-6.359 -44.91)" fill="#756e78"/>
        <path id="Trazado_135269" data-name="Trazado 135269" d="M79.175,32.911c-.005-6.268-.074-12.537.015-18.8a10.213,10.213,0,0,1,2.574-6.394c.245-.3.5-.579.755-.868a12.62,12.62,0,0,1,10.305-3.32c-.028.322-.271.329-.515.4a11.494,11.494,0,0,0-8.5,9.765,5.671,5.671,0,0,0-.024.945c0,5.364.072,10.73-.022,16.093a11.444,11.444,0,0,0,8.3,11.29,1.15,1.15,0,0,1,1,1.362c-.03,1.7-.252,3.424.388,5.075l-.479.476a2.145,2.145,0,0,1-2.632.687,3.15,3.15,0,0,1-2.19-2.814,25.163,25.163,0,0,1-.019-3.148,1.3,1.3,0,0,0-1.047-1.442c-1.2-.425-2.5-.74-3.3-1.889a12.869,12.869,0,0,1-4.615-7.418" transform="translate(-31.439 -1.375)" fill="#94d5a3"/>
        <path id="Trazado_135270" data-name="Trazado 135270" d="M1.39,38.028l.016,17.61c0,.38,0,.759,0,1.145.127,0,.226.028.253,0,2-2.379,4.759-2.511,7.55-2.539,0,4.294-.02,8.587.028,12.88.01.876-.3,1.087-1.089,1.028-.694-.052-1.4-.005-2.093,0A6.894,6.894,0,0,1,.679,58.336a5.188,5.188,0,0,0,.534-2.4q-.027-8.29,0-16.58a2.089,2.089,0,0,1,.176-1.324" transform="translate(0 -15.106)" fill="#e9ab9c"/>
        <path id="Trazado_135271" data-name="Trazado 135271" d="M106.734,146.529l-3.561,0c0-4.546,0-9.092.02-13.638a2.942,2.942,0,0,0-.382-1.382c-1.4-2.765-2.805-5.529-4.165-8.314a3.251,3.251,0,0,1,2.134-4.711,2.537,2.537,0,0,1,2.447.471c-.063.125.066,0-.025.1-1.61,1.793-1.2,3.564-.125,5.473,1.219,2.16,2.231,4.436,3.364,6.647a5.32,5.32,0,0,1,.6,2.516c-.019,3.813,0,7.626-.011,11.439a1.854,1.854,0,0,1-.3,1.4" transform="translate(-39.036 -47.019)" fill="#665e66"/>
        <path id="Trazado_135272" data-name="Trazado 135272" d="M109,146.92c0-4.409,0-8.818.013-13.227a3.4,3.4,0,0,0-.378-1.6q-2.136-4.211-4.225-8.445a3.1,3.1,0,0,1,1.085-4.295,2.805,2.805,0,0,1,1.358,1.526c1.558,3.081,3.1,6.172,4.66,9.251a4.74,4.74,0,0,1,.484,2.222c-.013,4.859-.006,9.717-.006,14.576l-2.565.039L109,146.92" transform="translate(-41.297 -47.41)" fill="#756e78"/>
        <path id="Trazado_135273" data-name="Trazado 135273" d="M86.851,64.625a13.222,13.222,0,0,0,3.983,1.824c.547.132.658.373.649.855-.021,1.015-.007,2.031-.006,3.046,0,2.93,1.936,4.151,4.562,2.881-.925,3.278-2.973,5.15-6.018,5.5-.8-.009-1.608-.048-2.41-.017-.62.024-.807-.249-.747-.817.408-3.938.08-7.887.171-11.83a9.418,9.418,0,0,0-.183-1.444" transform="translate(-34.5 -25.671)" fill="#e9ab9c"/>
        <path id="Trazado_135274" data-name="Trazado 135274" d="M43.1,150.579l-1.266-3.824a10.171,10.171,0,0,1,.051-2.46,5.764,5.764,0,0,1,4.911-4.067,6.433,6.433,0,0,1,1.292.074,1.073,1.073,0,0,1,.279.124c.425.647,1.049.257,1.592.3a5.084,5.084,0,0,1,3.422,5.154c-.015.209-.012.417-.011.626a41.423,41.423,0,0,1-1.894,5.394,6.51,6.51,0,0,0-4.019-1.289l-4.356-.031" transform="translate(-16.592 -55.703)" fill="#c04097"/>
        <path id="Trazado_135275" data-name="Trazado 135275" d="M108.677,45.041h13.563a4.808,4.808,0,0,1,.84.017,1.563,1.563,0,0,1,1.445,1.541,1.412,1.412,0,0,1-1.181,1.611,5.5,5.5,0,0,1-1.24.162q-13.458.014-26.917,0a4.5,4.5,0,0,1-.937-.081c-1.151-.243-1.622-.854-1.5-1.9a1.634,1.634,0,0,1,1.834-1.354q7.044-.014,14.089,0" transform="translate(-36.837 -17.888)" fill="#f8f5f8"/>
        <path id="Trazado_135276" data-name="Trazado 135276" d="M108.636,37.049q-7.092,0-14.184,0a1.48,1.48,0,0,1-1.64-1.019,1.626,1.626,0,0,1,.664-1.935,1.578,1.578,0,0,1,1-.225q14.078,0,28.157,0c1.231,0,1.9.587,1.891,1.6s-.674,1.567-1.915,1.568q-6.986.007-13.973,0" transform="translate(-36.831 -13.456)" fill="#f8f5f8"/>
        <path id="Trazado_135277" data-name="Trazado 135277" d="M108.652,22.675q6.934,0,13.868,0c1.337,0,2.009.53,2.018,1.569s-.67,1.605-2,1.605q-13.974,0-27.947,0c-1.153,0-1.813-.565-1.837-1.539-.027-1.112.528-1.629,1.816-1.631q7.04-.012,14.079,0" transform="translate(-36.846 -9.007)" fill="#f8f5f8"/>
        <path id="Trazado_135278" data-name="Trazado 135278" d="M32.529,125.928c-3.066-1.461-4.771-3.8-4.665-7.284a5.863,5.863,0,0,1,1.018-3.251,33.593,33.593,0,0,0,5.344,2.831,21.345,21.345,0,0,0,13.614.549,21.585,21.585,0,0,0,6.228-3,2.589,2.589,0,0,1,1.1-.565,7.269,7.269,0,0,1-3.015,10.435c-.186.093-.371.192-.556.288a4.2,4.2,0,0,1-3.24.684,6.616,6.616,0,0,1-2.3-.544,10.4,10.4,0,0,1-3.033-2.388c-.82-.834-.811-.8-1.669-.057a14.341,14.341,0,0,1-3.274,2.438,7.667,7.667,0,0,1-4.362.448,2.2,2.2,0,0,1-1.183-.582" transform="translate(-11.067 -45.763)" fill="#f8f5f8"/>
        <path id="Trazado_135279" data-name="Trazado 135279" d="M52.31,88.636c0,.629.027,1.26,0,1.888a3.661,3.661,0,0,1-3.362,3.427,3.579,3.579,0,0,1-3.79-2.8,13.212,13.212,0,0,1,0-4.9,3.584,3.584,0,0,1,3.881-2.807,3.667,3.667,0,0,1,3.272,3.4c.032.593.005,1.189.005,1.783" transform="translate(-17.845 -33.142)" fill="#544f57"/>
        <path id="Trazado_135280" data-name="Trazado 135280" d="M62.173,65.128c0,.8.051,1.611-.013,2.41a1.618,1.618,0,1,1-3.235-.08q-.051-2.358,0-4.718a1.624,1.624,0,1,1,3.246-.127,2.377,2.377,0,0,1,.022.314q0,1.1,0,2.2h-.02" transform="translate(-23.397 -24.252)" fill="#544f57"/>
        <path id="Trazado_135281" data-name="Trazado 135281" d="M37.973,64.979c0-.768-.025-1.538.006-2.3a1.551,1.551,0,0,1,1.559-1.62,1.506,1.506,0,0,1,1.638,1.63q.053,2.409,0,4.819a1.5,1.5,0,0,1-1.542,1.62,1.569,1.569,0,0,1-1.66-1.631c0-.035,0-.07,0-.1q0-1.2,0-2.409" transform="translate(-15.08 -24.253)" fill="#544f57"/>
        <path id="Trazado_135282" data-name="Trazado 135282" d="M55.765,132.687a8.1,8.1,0,0,0,5.676.186L57.692,143.51c-.237-.379-.124-.812-.187-1.218a5.181,5.181,0,0,0-3.348-4.377c-.471-.251-1.142.216-1.505-.419l.012,0c-.078-.423.277-.538.532-.65a3.844,3.844,0,0,0,2.341-3.5.941.941,0,0,1,.228-.667" transform="translate(-20.915 -52.708)" fill="#dcd9eb"/>
        <path id="Trazado_135283" data-name="Trazado 135283" d="M35.607,132.874a8.125,8.125,0,0,0,5.677-.183c.244.251.2.583.248.888a3.842,3.842,0,0,0,2.212,3.219c.283.125.706.218.628.7a5.447,5.447,0,0,0-4.841,4.827,3.284,3.284,0,0,1-.145,1.432q-1.889-5.444-3.779-10.888" transform="translate(-14.144 -52.709)" fill="#dcd9eb"/>
        <path id="Trazado_135284" data-name="Trazado 135284" d="M48.108,135.5c-.1-.087-.193-.213-.312-.257-2.114-.8-2.869-2.416-2.776-4.555a12.02,12.02,0,0,0,3.139-2.562c.529-.591.893-.682,1.457-.028a11.028,11.028,0,0,0,3.114,2.588c.213,2.408-1.025,3.881-3.1,4.814H48.108" transform="translate(-17.88 -50.703)" fill="#c04098"/>
        <path id="Trazado_135285" data-name="Trazado 135285" d="M52.651,140.666a2.489,2.489,0,0,1,1.505.419c-.547.022-1.283.725-1.505-.419" transform="translate(-20.915 -55.877)" fill="#c04098"/>
      </g>
    </g>
  </g>
</svg>
