<svg xmlns="http://www.w3.org/2000/svg" xmlns:xlink="http://www.w3.org/1999/xlink" width="165" height="116" viewBox="0 0 165 116">
  <defs>
    <clipPath id="clip-path">
      <rect id="Rect치ngulo_38053" data-name="Rect치ngulo 38053" width="83.889" height="89.884" fill="none"/>
    </clipPath>
  </defs>
  <g id="_47" data-name="47" transform="translate(7408 2716)">
    <rect id="Rect치ngulo_37678" data-name="Rect치ngulo 37678" width="165" height="116" transform="translate(-7408 -2716)" fill="#c4d1ff"/>
    <g id="Grupo_158870" data-name="Grupo 158870" transform="translate(-7367 -2703)">
      <g id="Grupo_158869" data-name="Grupo 158869" clip-path="url(#clip-path)">
        <path id="Trazado_135286" data-name="Trazado 135286" d="M95.893,132.252c-.82-.16-1.645-.3-2.459-.485a22.231,22.231,0,0,1-16.487-14.135,2.946,2.946,0,0,0-.165-.3,8.283,8.283,0,0,1-1.1-3.285c-.2-.853-.233-1.734-.367-2.6a23.212,23.212,0,0,1,1.468-9.712,21.121,21.121,0,0,1,4.261-6.983,13.5,13.5,0,0,1,1.349-1.491c.751-.514,1.367-1.2,2.116-1.716A23.018,23.018,0,0,1,94.318,87.4a10.435,10.435,0,0,1,2.251-.22,39.776,39.776,0,0,1,5.326,1.409,22.576,22.576,0,0,1,11.573,9.856,22.632,22.632,0,0,1-2.408,26.088,23.077,23.077,0,0,1-10.875,7.045c-1.179.375-2.4.409-3.59.676Z" transform="translate(-36.59 -42.368)" fill="#4faaf6"/>
        <path id="Trazado_135287" data-name="Trazado 135287" d="M116.748,132.172a2.822,2.822,0,0,1,1.4-.385,22.849,22.849,0,0,0,10.551-5.139,21.5,21.5,0,0,0,7.084-11.572,22.434,22.434,0,0,0-17.866-27.469,3.54,3.54,0,0,1-1.157-.325c.231-.3.57-.258.884-.267a22.316,22.316,0,0,1,12.715,3.528,43.932,43.932,0,0,1,3.679,2.931,1.619,1.619,0,0,1,.569.855,25.072,25.072,0,0,1,4.564,7.411,22.544,22.544,0,0,1-16.614,30.038,11.544,11.544,0,0,0-2.123.394Z" transform="translate(-56.744 -42.288)" fill="#1885e9"/>
        <path id="Trazado_135288" data-name="Trazado 135288" d="M73.684,73.845a24.691,24.691,0,0,0-7.606-3.1,23.986,23.986,0,0,0-6.059-.44,22.549,22.549,0,0,0-11.251,3.876,2.121,2.121,0,0,1-.822.479c-.477-.485-.286-1.1-.291-1.659-.025-2.353-.123-2.463-2.482-2.464-.612,0-1.224.005-1.835,0a1.437,1.437,0,0,0-1.151,1.519c-.026.808-.024,1.619,0,2.428a1.392,1.392,0,0,0,1.063,1.494c.629,0,1.257-.017,1.884.008.309.012.637,0,.854.293a39.649,39.649,0,0,0-3.511,4.356,22.459,22.459,0,0,0-3.52,12.363c.006.438-.006.876-.009,1.314a1.567,1.567,0,0,1-1.162.273q-15.371.006-30.743,0a9.674,9.674,0,0,1-2.516-.3A5.654,5.654,0,0,1,.016,89.406q0-18.2,0-36.392c0-.233.018-.467.028-.7a2.89,2.89,0,0,1,1.707-.221q27.685-.011,55.372-.006,7.535,0,15.069,0a2.581,2.581,0,0,1,1.534.23,1.891,1.891,0,0,1,.255,1.261q.009,9.511,0,19.023a1.558,1.558,0,0,1-.293,1.24" transform="translate(-0.006 -25.308)" fill="#eaf4fb"/>
        <path id="Trazado_135289" data-name="Trazado 135289" d="M60.011,11.706l8.78.025c3.309.194,5.322,3.616,5.2,6.229-.1,2.1-.007,4.208-.026,6.313-.011,1.166-.219,1.355-1.4,1.388-.233.006-.468,0-.7,0q-35.071,0-70.142-.007c-.569,0-1.179.148-1.687-.271-.006-2.657-.073-5.314,0-7.968a5.94,5.94,0,0,1,5.955-5.7c3.97-.033,7.94-.016,11.91-.021a.626.626,0,0,1,.227.456,19.1,19.1,0,0,1-.085,4.162c-.237.391-.639.345-1.008.36-.609.024-1.219-.013-1.828.018-.842.043-1.237.389-1.224,1.04.012.617.458,1.031,1.243,1.065,1.015.045,2.031.032,3.045-.01.725.019.887.826,1.469,1.046a3.553,3.553,0,0,0,4.529-.378c.231-.214.41-.493.743-.576,1.018-.13,2.041-.028,3.062-.066a1.621,1.621,0,0,0,1.07-.311.933.933,0,0,0,.333-1.019.913.913,0,0,0-.864-.755c-1.017.019-2.1-.4-3.024.4-.1.088-.211-.014-.277-.121a23.572,23.572,0,0,1-.088-4.824.564.564,0,0,1,.243-.441c2.6-.011,5.2-.029,7.793-.031q9.065-.007,18.129,0c.349,0,.7.025,1.048.038a.57.57,0,0,1,.244.447,27.3,27.3,0,0,1-.074,4.961c-.109.184-.285.26-.392.051-.286-.553-.775-.536-1.277-.528-.436.007-.873-.014-1.308.009-.792.043-1.266.444-1.256,1.042s.482,1.023,1.257,1.07c.871.053,1.744.009,2.616.021a3.54,3.54,0,0,1,.608.042c.564.133.816.688,1.284.951a3.464,3.464,0,0,0,4.408-.23,2.9,2.9,0,0,1,.889-.687,18.829,18.829,0,0,1,2.692-.082,3.638,3.638,0,0,0,.95-.081,1.006,1.006,0,0,0,.815-1.084.968.968,0,0,0-.9-.916,17.506,17.506,0,0,0-2-.054c-.4-.019-.828.06-1.116-.334a10.319,10.319,0,0,1,.132-4.64" transform="translate(0 -5.686)" fill="#fe4155"/>
        <path id="Trazado_135290" data-name="Trazado 135290" d="M73.715,47.917c-.378-.02-.755-.058-1.133-.058q-35.513,0-71.025,0c-.5,0-.994-.007-1.491-.01q0-2.341,0-4.682a1.917,1.917,0,0,1,1.423-.277q7.8-.012,15.6-.005h54.7c2.2,0,2.2.019,2.218,2.174.019,2.74-.293,2.343,2.376,2.392.513.01,1.063-.118,1.506.285a.235.235,0,0,1,.026.136.707.707,0,0,1-.528.27c-1.227-.025-2.477.31-3.673-.223" transform="translate(-0.032 -20.839)" fill="#fe4155"/>
        <path id="Trazado_135291" data-name="Trazado 135291" d="M77.89,32.558c-1.139,0-2.28-.022-3.419.012-.562.017-.785-.153-.762-.741.04-.992-.036-1.99.026-2.98.046-.728-.24-.942-.905-.86a6.5,6.5,0,0,1-.788.005L.066,27.989q0-1.312,0-2.624,36.177,0,72.353-.009c1.468,0,1.294.172,1.3-1.317.009-1.988-.1-3.982.026-5.963a6.1,6.1,0,0,0-4.368-6.131,3.726,3.726,0,0,1-.555-.236,19.687,19.687,0,0,1,4.535.15,5.86,5.86,0,0,1,4.536,5.364c.07,5.11.006,10.223,0,15.335" transform="translate(-0.032 -5.664)" fill="#e70054"/>
        <path id="Trazado_135292" data-name="Trazado 135292" d="M.015,124.713a13.773,13.773,0,0,0,1.239,2.479,5.644,5.644,0,0,0,4.074,2.252c5.3.386,10.614.114,15.922.161,5.9.051,11.8.011,17.7.01a32.554,32.554,0,0,0,1.25,5.961q-16.952,0-33.9,0a6.108,6.108,0,0,1-6.281-6.307q0-2.278,0-4.556" transform="translate(-0.006 -60.615)" fill="#d2dbfa"/>
        <path id="Trazado_135293" data-name="Trazado 135293" d="M143.358,52.639l4.2-.047q-.012,12.5-.024,25.01a37.931,37.931,0,0,0-4.183-3.5q0-10.73.006-21.46" transform="translate(-69.674 -25.562)" fill="#d2dbfa"/>
        <path id="Trazado_135294" data-name="Trazado 135294" d="M44,6.056l.015,5.373a1.517,1.517,0,0,1-.565,1.947c-1.5,1.659-3.2,2.108-4.844,1.273a3.408,3.408,0,0,1-.477-.355,5.119,5.119,0,0,0,1.4-4.309c-.078-1.89-.054-3.786-.005-5.678a3.805,3.805,0,0,0-1.059-3.028A.844.844,0,0,1,38.19.746,3.314,3.314,0,0,1,42.036.5a3.5,3.5,0,0,1,1.94,3.193c.006.788.015,1.577.023,2.365" transform="translate(-18.531 0)" fill="#d2dbfa"/>
        <path id="Trazado_135295" data-name="Trazado 135295" d="M111.079,6.042q-.006,2.361-.013,4.722a2.377,2.377,0,0,1-.666,2.626,3.7,3.7,0,0,1-5.328.91,5.633,5.633,0,0,0,1.556-4.706c-.069-1.655-.04-3.316-.007-4.973A4.748,4.748,0,0,0,105.6,1.37c-.179-.219-.4-.44-.31-.774a3.74,3.74,0,0,1,5.527,2.19,13.277,13.277,0,0,1,.092,2.26c.016.336-.125.706.17,1" transform="translate(-51.069 -0.021)" fill="#d2dbfa"/>
        <path id="Trazado_135296" data-name="Trazado 135296" d="M103.681,1.118a5.751,5.751,0,0,1,1.594,4.614c-.095,1.948.04,3.908-.043,5.857-.056,1.32-.353,2.609-1.769,3.233-.45-.173-.651-.623-1-.9-.469-.5-.916-1-.581-1.767l.019-5.545c.008-.67.051-1.342.016-2.011a3.756,3.756,0,0,1,1.768-3.477" transform="translate(-49.46 -0.543)" fill="#eaf4fb"/>
        <path id="Trazado_135297" data-name="Trazado 135297" d="M36.454,1.452a3.605,3.605,0,0,1,1.593,3.2c-.058,2.535.01,5.073-.029,7.608A2.776,2.776,0,0,1,36.391,15c-.53-.214-.769-.727-1.132-1.112a2.209,2.209,0,0,1-.538-2.449,46.04,46.04,0,0,0-.027-4.72c.05-.857.032-1.713.126-2.575a3.6,3.6,0,0,1,1.633-2.692" transform="translate(-16.796 -0.706)" fill="#eaf4fb"/>
        <path id="Trazado_135298" data-name="Trazado 135298" d="M101.936,132.032a15.905,15.905,0,0,1-11.368-6.642A16.436,16.436,0,0,1,100.813,99.54c.371-.07.748-.109,1.121-.162a6.407,6.407,0,0,1,3.15.51c6.045,2.288,9.878,6.566,11.037,12.95a15.878,15.878,0,0,1-4.536,14.53,15.181,15.181,0,0,1-8.883,4.692,1.168,1.168,0,0,1-.766-.028" transform="translate(-42.471 -48.281)" fill="#eaf4fb"/>
        <path id="Trazado_135299" data-name="Trazado 135299" d="M115.7,131.851a16.116,16.116,0,0,0,8.665-4.006A16.507,16.507,0,0,0,115.7,99.2a11.021,11.021,0,0,1,4.754.06c6.857,1.458,11.391,5.531,13.179,12.348a16.4,16.4,0,0,1-12.754,20.083,13.127,13.127,0,0,1-5.177.163" transform="translate(-56.232 -48.1)" fill="#d2dbfa"/>
        <path id="Trazado_135300" data-name="Trazado 135300" d="M83.833,87.516c1.1-.009,2.206-.037,3.309-.022a1.351,1.351,0,0,1,1.431,1.413c.039.986.024,1.975.033,2.962a11.123,11.123,0,0,1-1.959,1.619l-2.978-.081c.641-1.333.354-2.762.461-4.153.048-.632-.493-1.114-.3-1.739" transform="translate(-40.666 -42.523)" fill="#2a428b"/>
        <path id="Trazado_135301" data-name="Trazado 135301" d="M106.873,64.223a16.917,16.917,0,0,1,3.747-.053c.886.057,1.224.727,1.259,1.52.043.96.047,1.926,0,2.886a1.485,1.485,0,0,1-1.692,1.569c-1.048,0-2.1-.019-3.146-.029a.33.33,0,0,1-.041-.4c.792-1.226.407-2.594.488-3.907.039-.632-.641-.966-.615-1.582" transform="translate(-51.944 -31.151)" fill="#2a428c"/>
        <path id="Trazado_135302" data-name="Trazado 135302" d="M37.14,87.518c1.107-.01,2.213-.032,3.32-.026A1.437,1.437,0,0,1,42.017,89c.036.989.034,1.982,0,2.972a1.38,1.38,0,0,1-1.382,1.488c-1.163.029-2.328-.015-3.491-.028a9.167,9.167,0,0,0,.461-3.506,3.132,3.132,0,0,0-.428-1.839.43.43,0,0,1-.037-.564" transform="translate(-18.007 -42.524)" fill="#2a428c"/>
        <path id="Trazado_135303" data-name="Trazado 135303" d="M83.633,64.215a18.22,18.22,0,0,1,3.659-.049,1.236,1.236,0,0,1,1.249,1.309c.03,1.107.036,2.215,0,3.321a1.333,1.333,0,0,1-1.414,1.348c-1.106.021-2.213-.012-3.321-.022-.133-.157-.069-.32-.027-.49a7.94,7.94,0,0,0-.159-5.247.3.3,0,0,1,.015-.17" transform="translate(-40.637 -31.154)" fill="#2a428c"/>
        <path id="Trazado_135304" data-name="Trazado 135304" d="M60.448,87.526c1.164-.012,2.329-.044,3.493-.03a1.35,1.35,0,0,1,1.4,1.369c.034,1.077.044,2.158,0,3.234a1.28,1.28,0,0,1-1.31,1.353c-1.191.035-2.385-.014-3.578-.027a7.915,7.915,0,0,0,.472-2.776,8.215,8.215,0,0,0-.471-3.123" transform="translate(-29.379 -42.525)" fill="#2a428b"/>
        <path id="Trazado_135305" data-name="Trazado 135305" d="M13.687,64.222a17.252,17.252,0,0,1,3.742-.05,1.324,1.324,0,0,1,1.243,1.436,29.4,29.4,0,0,1-.006,3.055,1.422,1.422,0,0,1-1.58,1.483c-1.076.01-2.153-.016-3.23-.026a.331.331,0,0,1-.041-.4c.775-1.2.427-2.528.481-3.813.028-.651-.605-1.049-.609-1.681" transform="translate(-6.652 -31.152)" fill="#2a428c"/>
        <path id="Trazado_135306" data-name="Trazado 135306" d="M64.329,110.929a1.3,1.3,0,0,1,.99,1.367q.028,1.534,0,3.069a1.3,1.3,0,0,1-1.17,1.414,11.635,11.635,0,0,1-3.733-.043,8.75,8.75,0,0,0,.442-3.669,2.986,2.986,0,0,0-.326-1.6c-.2-.324-.241-.616.308-.6,1.163.041,2.327-.067,3.488.06" transform="translate(-29.355 -53.884)" fill="#2a428c"/>
        <path id="Trazado_135307" data-name="Trazado 135307" d="M13.858,87.517c1.134-.009,2.268-.034,3.4-.023a1.274,1.274,0,0,1,1.363,1.2,14.912,14.912,0,0,1,0,3.566,1.24,1.24,0,0,1-1.273,1.194,25.709,25.709,0,0,1-3.658-.047,6.284,6.284,0,0,0,.635-3.331,3.819,3.819,0,0,0-.439-2,.431.431,0,0,1-.032-.559" transform="translate(-6.656 -42.524)" fill="#2a428c"/>
        <path id="Trazado_135308" data-name="Trazado 135308" d="M37.144,64.2a19.38,19.38,0,0,1,3.488-.048,1.386,1.386,0,0,1,1.39,1.491c.034.99.035,1.984,0,2.974a1.463,1.463,0,0,1-1.555,1.526c-1.107.012-2.214-.02-3.32-.032a.3.3,0,0,1-.065-.32,6.711,6.711,0,0,0,.042-5.422.286.286,0,0,1,.022-.168" transform="translate(-18.011 -31.156)" fill="#2a428c"/>
        <path id="Trazado_135309" data-name="Trazado 135309" d="M60.413,64.212a19.734,19.734,0,0,1,3.575-.048A1.3,1.3,0,0,1,65.3,65.521c.047,1.077.039,2.158,0,3.236a1.406,1.406,0,0,1-1.487,1.392c-1.078.016-2.156-.012-3.234-.022a.4.4,0,0,1-.056-.408,7.912,7.912,0,0,0-.138-5.339.294.294,0,0,1,.02-.17" transform="translate(-29.35 -31.158)" fill="#2a428b"/>
        <path id="Trazado_135310" data-name="Trazado 135310" d="M130.38,64.206a19.162,19.162,0,0,1,3.493-.049,1.379,1.379,0,0,1,1.39,1.491q.047,1.489,0,2.979a1.467,1.467,0,0,1-1.561,1.521c-1.051.013-2.1-.012-3.152-.022-.252-.111-.229-.294-.145-.507a6.665,6.665,0,0,0-.028-5.157.4.4,0,0,1,0-.256" transform="translate(-63.353 -31.156)" fill="#2a428c"/>
        <path id="Trazado_135311" data-name="Trazado 135311" d="M17.721,110.945a1.31,1.31,0,0,1,.95,1.391c.041.985.042,1.975,0,2.96a1.359,1.359,0,0,1-1.2,1.483,11.747,11.747,0,0,1-3.8-.057,6.547,6.547,0,0,0,.623-3.451,4.428,4.428,0,0,0-.383-1.861c-.161-.322-.133-.564.327-.545a33.056,33.056,0,0,1,3.474.079" transform="translate(-6.649 -53.881)" fill="#2a428c"/>
        <path id="Trazado_135312" data-name="Trazado 135312" d="M41.091,110.937a1.313,1.313,0,0,1,.986,1.367c.041,1.016.045,2.035,0,3.05a1.359,1.359,0,0,1-1.25,1.44,12.557,12.557,0,0,1-3.629-.047,7.9,7.9,0,0,0,.454-3.139,4.631,4.631,0,0,0-.373-2.207c-.191-.323-.116-.552.332-.534,1.16.047,2.323-.081,3.481.07" transform="translate(-18.071 -53.882)" fill="#2a428c"/>
        <path id="Trazado_135313" data-name="Trazado 135313" d="M40.019,110.812H36.393c.5,2.009.982,3.935-.267,5.81a1.22,1.22,0,0,1-1.119-1.245c-.052-1.132-.034-2.269,0-3.4a1.226,1.226,0,0,1,1.048-1.242,11.687,11.687,0,0,1,3.962.08" transform="translate(-16.999 -53.757)" fill="#3d59a0"/>
        <path id="Trazado_135314" data-name="Trazado 135314" d="M16.731,110.814H12.946c.967,1.326.548,2.769.588,4.147a1.809,1.809,0,0,1-.844,1.63,1.346,1.346,0,0,1-1.032-1.428c-.026-.989-.012-1.98,0-2.969a1.348,1.348,0,0,1,1.117-1.473,11.023,11.023,0,0,1,3.96.092" transform="translate(-5.659 -53.75)" fill="#3d58a0"/>
        <path id="Trazado_135315" data-name="Trazado 135315" d="M36.112,64.3a2.39,2.39,0,0,1,.706,2.041,6.256,6.256,0,0,0,0,1.556,3.325,3.325,0,0,1-.709,2.313,1.457,1.457,0,0,1-1.162-1.53c-.02-.961-.027-1.922,0-2.882a1.345,1.345,0,0,1,1.157-1.5" transform="translate(-16.979 -31.253)" fill="#3d59a0"/>
        <path id="Trazado_135316" data-name="Trazado 135316" d="M63.321,110.8H59.69c.485,2.01.978,3.934-.282,5.807a1.26,1.26,0,0,1-1.08-1.367c-.01-1.049,0-2.1,0-3.147a1.274,1.274,0,0,1,1.108-1.374,12.069,12.069,0,0,1,3.885.081" transform="translate(-28.347 -53.758)" fill="#3c589f"/>
        <path id="Trazado_135317" data-name="Trazado 135317" d="M12.862,87.541c1.027,1.318.647,2.863.685,4.336a2.3,2.3,0,0,1-.849,1.556,1.431,1.431,0,0,1-1.044-1.528c-.01-.933-.014-1.867,0-2.8a1.421,1.421,0,0,1,1.207-1.564" transform="translate(-5.66 -42.548)" fill="#3c58a0"/>
        <path id="Trazado_135318" data-name="Trazado 135318" d="M105.89,64.347a2.726,2.726,0,0,1,.88,2.42c-.065,1.2.139,2.439-.712,3.473a1.519,1.519,0,0,1-1.206-1.67c0-.9-.01-1.8,0-2.7a1.392,1.392,0,0,1,1.034-1.518" transform="translate(-50.961 -31.275)" fill="#3d58a0"/>
        <path id="Trazado_135319" data-name="Trazado 135319" d="M36.112,87.543c1.106,1.372.611,2.992.677,4.518a2.449,2.449,0,0,1-.673,1.391,1.38,1.38,0,0,1-1.162-1.5c-.028-.96-.024-1.922,0-2.882a1.427,1.427,0,0,1,1.16-1.522" transform="translate(-16.979 -42.549)" fill="#3d59a0"/>
        <path id="Trazado_135320" data-name="Trazado 135320" d="M12.7,64.342a5.307,5.307,0,0,1,.231,5.647.765.765,0,0,0-.062.25,1.515,1.515,0,0,1-1.213-1.668c0-.9-.007-1.808,0-2.712a1.39,1.39,0,0,1,1.04-1.517" transform="translate(-5.664 -31.273)" fill="#3c58a0"/>
        <path id="Trazado_135321" data-name="Trazado 135321" d="M59.41,64.311a2.381,2.381,0,0,1,.705,2.049,8.513,8.513,0,0,0,0,1.65,3.527,3.527,0,0,1-.533,2.217,1.371,1.371,0,0,1-1.258-1.5c-.008-.989,0-1.978,0-2.966a1.316,1.316,0,0,1,1.087-1.453" transform="translate(-28.347 -31.257)" fill="#3c589f"/>
        <path id="Trazado_135322" data-name="Trazado 135322" d="M59.414,87.558a2.278,2.278,0,0,1,.7,1.954,12.875,12.875,0,0,0,0,1.991,2.3,2.3,0,0,1-.7,1.954,1.379,1.379,0,0,1-1.093-1.549c.01-.931.012-1.862,0-2.793a1.409,1.409,0,0,1,1.095-1.558" transform="translate(-28.345 -42.556)" fill="#3c589f"/>
        <path id="Trazado_135323" data-name="Trazado 135323" d="M129.346,64.3a2.423,2.423,0,0,1,.708,2.044,8.086,8.086,0,0,0,.014,2.076c.136.744-.633,1.127-.553,1.8a1.358,1.358,0,0,1-1.285-1.459q-.024-1.521,0-3.042a1.287,1.287,0,0,1,1.117-1.419" transform="translate(-62.319 -31.255)" fill="#3c589f"/>
        <path id="Trazado_135324" data-name="Trazado 135324" d="M82.651,64.325a2.1,2.1,0,0,1,.705,1.941,8.811,8.811,0,0,0,0,1.742,3.553,3.553,0,0,1-.535,2.224,1.457,1.457,0,0,1-1.234-1.627c.007-.931,0-1.862,0-2.792a1.364,1.364,0,0,1,1.061-1.488" transform="translate(-39.655 -31.264)" fill="#3c589f"/>
        <path id="Trazado_135325" data-name="Trazado 135325" d="M82.818,87.541c.995,1.581.37,3.328.491,5,.028.388-.477.562-.655.9a1.585,1.585,0,0,1-1.072-1.7c.017-.845,0-1.69,0-2.535a1.518,1.518,0,0,1,1.231-1.653" transform="translate(-39.652 -42.548)" fill="#3c589f"/>
        <path id="Trazado_135326" data-name="Trazado 135326" d="M97.882,21.73a5.7,5.7,0,0,0,.581,1.768c-1.1,0-2.207.011-3.31,0-1.037-.007-1.626-.526-1.614-1.4.01-.758.6-1.227,1.561-1.235a11.956,11.956,0,0,0,1.566-.015c.732-.1,1.124.154,1.216.881" transform="translate(-45.463 -10.122)" fill="#e70054"/>
        <path id="Trazado_135327" data-name="Trazado 135327" d="M30.85,20.883a6.082,6.082,0,0,0,.538,2.449,8.585,8.585,0,0,1-3.936.057c-.715-.133-.963-.8-.824-1.52a1.131,1.131,0,0,1,1.248-.977l2.974-.009" transform="translate(-12.924 -10.15)" fill="#e70054"/>
        <path id="Trazado_135328" data-name="Trazado 135328" d="M48.481,23.508a4.681,4.681,0,0,0,.565-1.946A.778.778,0,0,1,50,20.856c.664.07,1.34.007,2.011.02a1.351,1.351,0,0,1,1.373,1.277A1.321,1.321,0,0,1,52.067,23.5c-1.194.034-2.391.007-3.586.006" transform="translate(-23.564 -10.132)" fill="#e70054"/>
        <path id="Trazado_135329" data-name="Trazado 135329" d="M115.438,23.523A5.7,5.7,0,0,0,116.1,20.9c.959,0,1.918-.013,2.876,0a1.291,1.291,0,0,1,1.34,1.189,1.32,1.32,0,0,1-1.31,1.435c-1.19.034-2.382,0-3.573,0" transform="translate(-56.107 -10.154)" fill="#e70054"/>
        <path id="Trazado_135330" data-name="Trazado 135330" d="M117.886,125.381a3.5,3.5,0,0,1,1.458,1.479,1.753,1.753,0,0,1,0,2.515,2.942,2.942,0,0,1-3.082,1.7,2.851,2.851,0,0,1-2.493-2.041c-.466-1.353.04-2.582,1.5-3.652a1.929,1.929,0,0,1,2.612,0" transform="translate(-55.215 -60.693)" fill="#fedc40"/>
        <path id="Trazado_135331" data-name="Trazado 135331" d="M119.443,117.284a3.574,3.574,0,0,0-2.612,0c-.01-2.543-.034-5.087-.024-7.63a1.311,1.311,0,0,1,1.235-1.437,1.246,1.246,0,0,1,1.456,1.188,78.477,78.477,0,0,1-.054,7.876" transform="translate(-56.771 -52.596)" fill="#3d58a0"/>
        <path id="Trazado_135332" data-name="Trazado 135332" d="M124.774,131.109a3.18,3.18,0,0,0,0-2.514,25.382,25.382,0,0,1,4.943-.06,1.332,1.332,0,0,1,0,2.634,25.177,25.177,0,0,1-4.943-.06" transform="translate(-60.645 -62.428)" fill="#3d59a0"/>
      </g>
    </g>
  </g>
</svg>
