<svg xmlns="http://www.w3.org/2000/svg" xmlns:xlink="http://www.w3.org/1999/xlink" width="165" height="116" viewBox="0 0 165 116">
  <defs>
    <clipPath id="clip-path">
      <rect id="Rect치ngulo_38054" data-name="Rect치ngulo 38054" width="89" height="94.721" fill="none"/>
    </clipPath>
  </defs>
  <g id="_48" data-name="48" transform="translate(8407 2308)">
    <rect id="Rect치ngulo_37688" data-name="Rect치ngulo 37688" width="165" height="116" transform="translate(-8407 -2308)" fill="#c4d1ff"/>
    <g id="Grupo_158873" data-name="Grupo 158873" transform="translate(-8369 -2297)">
      <g id="Grupo_158872" data-name="Grupo 158872" clip-path="url(#clip-path)">
        <path id="Trazado_135333" data-name="Trazado 135333" d="M68.992,125.661c0,1.726.05,3.454-.014,5.177-.031.826.293.939,1.012.936,5.792-.027,11.585-.016,17.377-.016q13.957,0,27.915-.01a2.693,2.693,0,0,1,2.682,1.58,2.781,2.781,0,0,1-.366,3.03c-2.668,3.535-5.29,7.1-8,10.6a13.16,13.16,0,0,1-8.549,4.975,1.918,1.918,0,0,0-.411.173h-34.6a2.111,2.111,0,0,1-.293-1.5q-.01-8.409,0-16.819c0-.338,0-.677-.018-1.015a.643.643,0,0,0-.681-.7c-.246-.011-.492-.026-.738-.029-.667-.008-.987-.254-.961-1,.055-1.57,0-3.142.025-4.713.013-.729-.387-1.446-.056-2.178.088-.127.257-.284.356-.159a7.644,7.644,0,0,0,2.644,1.623,1.019,1.019,0,0,1,.125.29c.144,1.505.056,3.013.057,4.52,0,.706.17,1.1.979,1.067.925-.042,1.045-.112,1.058-1.078.014-1.168,0-2.338.007-3.508a2.289,2.289,0,0,1,.175-1.172.2.2,0,0,1,.281-.069" transform="translate(-29.255 -57.392)" fill="#fe9b9b"/>
        <path id="Trazado_135334" data-name="Trazado 135334" d="M34.355,123.382c-.232.227-.155.519-.155.787-.005,2.033.023,4.066-.017,6.1-.013.677.17.911.876.9,1.723-.023,1.723.012,1.723,1.764v18.573H13.656c-1.108-.332-2.273-.421-3.359-.856a13.721,13.721,0,0,1-8.7-9.9c-.489-1.965-.989-3.927-1.473-5.894a2.784,2.784,0,0,1,2.948-3.7q14.886,0,29.772,0c1.18,0,1.182,0,1.18-1.209q0-2.451-.014-4.9a2.408,2.408,0,0,1,.025-2.409c.477.09.411.414.324.748" transform="translate(0 -56.786)" fill="#feb4b4"/>
        <path id="Trazado_135335" data-name="Trazado 135335" d="M71.362,71.831l-.188.006a2.783,2.783,0,0,1-2.58-.014l0-.079a1.364,1.364,0,0,1-.282-.942c.006-1.493-.05-2.988.031-4.48a1.239,1.239,0,0,1,.085-.3c.444-.6,1.182-.732,1.782-1.084a13.3,13.3,0,0,0,1.178-.717c3.627-2.475,4.838-6.169,5.073-10.29.388-6.805-1.128-13.346-2.93-19.835-.7-2.522-1.452-5.03-2.326-7.5-.82-2.581-1.788-5.11-2.7-7.659a2.715,2.715,0,0,1-.168-.952c-.066-2.918-.026-5.837-.034-8.756a4.269,4.269,0,0,1,.089-1.189.79.79,0,0,1,.161-.279,2.318,2.318,0,0,1,2.76,1.862c2,3.07,3.98,6.148,5.993,9.207q13.227,20.1,26.466,40.194c1.812,2.751,3.6,5.517,5.415,8.267a2.846,2.846,0,0,1,.188,3.055,2.791,2.791,0,0,1-2.7,1.453c-5.794.014-11.587,0-17.381.008q-8.968.008-17.934.028" transform="translate(-31.625 -3.562)" fill="#6ad8ea"/>
        <path id="Trazado_135336" data-name="Trazado 135336" d="M38.686,78.778a9.64,9.64,0,0,0-.157,2.38q-12.665,0-25.33,0c-2,0-3.151-.847-3.406-2.52a3.679,3.679,0,0,1,.7-2.416q4.357-7.537,8.723-15.072,3.972-6.857,7.947-13.711c2.656-4.6,5.277-9.226,7.952-13.817a64.593,64.593,0,0,1,3.442-5.761c.445.11.4.5.439.816a10.82,10.82,0,0,1,.024,1.294q0,22.841.005,45.684a7.875,7.875,0,0,0,.012,1.476c-.028.568.084,1.166-.346,1.65" transform="translate(-4.522 -12.9)" fill="#d0f6fe"/>
        <path id="Trazado_135337" data-name="Trazado 135337" d="M63.71,71.147c-.378-.318-.2-.75-.2-1.124Q63.5,46.464,63.5,22.905a2.062,2.062,0,0,0-.119-1.173A49.7,49.7,0,0,0,63.5,16.2c.018-.523.018-1.047.026-1.571a.442.442,0,0,1,.4.323c.825,2.135,1.942,4.165,2.336,6.455l.193.714c.354,11.554.065,23.111.151,34.666.027,3.607.008,7.215,0,10.823a2.117,2.117,0,0,1-.3,1.5c-.016.047-.031.093-.045.14a10.114,10.114,0,0,0-2.559,1.9" transform="translate(-29.347 -6.773)" fill="#fe9c9c"/>
        <path id="Trazado_135338" data-name="Trazado 135338" d="M66.4,18.128l-2.74-6.777q0-.866,0-1.729A2.089,2.089,0,0,1,64.347,8.3c.631-.414,1.193-1.094,2.076-.542q-.012,5.185-.024,10.372" transform="translate(-29.477 -3.495)" fill="#a2eefe"/>
        <path id="Trazado_135339" data-name="Trazado 135339" d="M71.284,6.058A3.43,3.43,0,0,0,68.734,4.2c-.133-.079-.294-.164-.312-.32A7.451,7.451,0,0,1,68.574,0,2.8,2.8,0,0,1,71.3,2.947c.024,1.036-.009,2.074-.016,3.111" transform="translate(-31.598)" fill="#fe627b"/>
        <path id="Trazado_135340" data-name="Trazado 135340" d="M66.433,0a18.674,18.674,0,0,0,.16,4.2L66.4,4.26a2.736,2.736,0,0,0-2.031.71.551.551,0,0,1-.74.006c0-.73-.023-1.46-.012-2.189A2.655,2.655,0,0,1,66.433,0" transform="translate(-29.457)" fill="#fe9b9b"/>
        <path id="Trazado_135341" data-name="Trazado 135341" d="M63.645,9.263l.74-.006-.73,1.155q-.006-.574-.01-1.149" transform="translate(-29.471 -4.286)" fill="#fe9c9c"/>
        <path id="Trazado_135342" data-name="Trazado 135342" d="M68.834,127.128l2.58.013c0,1.748-.014,3.5.021,5.245.012.612-.134.881-.811.859-2.18-.068-1.764.263-1.8-1.792-.022-1.442,0-2.883.006-4.325" transform="translate(-31.865 -58.867)" fill="#fe617b"/>
        <path id="Trazado_135343" data-name="Trazado 135343" d="M63.826,118.253a3.217,3.217,0,0,1,2.559-1.9q.026,2.852.051,5.7a2.842,2.842,0,0,1-2.616-1.586l-.191-.718c.073-.5-.071-1.029.2-1.5" transform="translate(-29.463 -53.88)" fill="#a2eefe"/>
        <path id="Trazado_135344" data-name="Trazado 135344" d="M71.606,36.129c-.011.307-.033.614-.033.921q0,18.092,0,36.185c0,.307.019.614.03.922a9,9,0,0,1-2.774,1.416q0-23.1-.005-46.207c0-.268-.081-.561.154-.787.914,2.5,1.914,4.976,2.629,7.55" transform="translate(-31.862 -13.234)" fill="#fe617b"/>
      </g>
    </g>
  </g>
</svg>
