<svg xmlns="http://www.w3.org/2000/svg" xmlns:xlink="http://www.w3.org/1999/xlink" width="96" height="116" viewBox="0 0 96 116">
  <defs>
    <clipPath id="clip-path">
      <rect id="Rect치ngulo_38055" data-name="Rect치ngulo 38055" width="57" height="110.273" fill="none"/>
    </clipPath>
  </defs>
  <g id="_49" data-name="49" transform="translate(8407 2171)">
    <rect id="Rect치ngulo_37689" data-name="Rect치ngulo 37689" width="96" height="116" transform="translate(-8407 -2171)" fill="#c4d1ff"/>
    <g id="Grupo_158876" data-name="Grupo 158876" transform="translate(-8387 -2168)">
      <g id="Grupo_158875" data-name="Grupo 158875" clip-path="url(#clip-path)">
        <path id="Trazado_135345" data-name="Trazado 135345" d="M52.406,0a17.035,17.035,0,0,1,1.829.847,5.362,5.362,0,0,1,2.713,4.384c.031.429.039.86.04,1.29q0,48.615.013,97.229a6.334,6.334,0,0,1-1.587,4.749,5.612,5.612,0,0,1-4.141,1.764q-22.77.014-45.541-.006a5.606,5.606,0,0,1-5.7-5.538c-.016-.322-.016-.646-.016-.968Q.016,55.136,0,6.522a6.261,6.261,0,0,1,2.31-5.4A16.423,16.423,0,0,1,4.6,0Z" transform="translate(0)" fill="#707383"/>
        <path id="Trazado_135346" data-name="Trazado 135346" d="M39.876,8.964c1.827,0,3.655-.005,5.482,0a1.876,1.876,0,0,1,2.008,1.664,1.868,1.868,0,0,1-1.557,1.9,3.973,3.973,0,0,1-.954.09q-5,.01-10,0a4.657,4.657,0,0,1-.75-.022,1.97,1.97,0,0,1-1.8-1.932,1.877,1.877,0,0,1,2.083-1.7c1.827-.005,3.655,0,5.482,0" transform="translate(-11.336 -3.145)" fill="#464655"/>
        <path id="Trazado_135347" data-name="Trazado 135347" d="M38.272,156.136a3.534,3.534,0,0,1,3.638-3.678,3.6,3.6,0,0,1,3.695,3.85,3.72,3.72,0,0,1-3.652,3.575,3.648,3.648,0,0,1-3.68-3.747" transform="translate(-13.428 -53.498)" fill="#464655"/>
        <path id="Trazado_135348" data-name="Trazado 135348" d="M5.786,24.082c-.1-.567.044-.918.709-.849a5.3,5.3,0,0,0,.537,0q23.451,0,46.9-.023c1.057,0,1.383.216,1.38,1.343q-.059,27.38-.029,54.761c0,.394-.017.788-.025,1.183a1.155,1.155,0,0,1-.352.233,3.838,3.838,0,0,1-1.275.119q-6.007.007-12.015,0a2.652,2.652,0,0,1-1.562-.256.251.251,0,0,1-.016-.371,2.726,2.726,0,0,1,1.669-.273c3.84-.009,7.68,0,11.52-.008,1.4,0,1.488-.085,1.489-1.446q.01-26.65,0-53.3c0-1.306-.1-1.406-1.418-1.407q-22.825-.011-45.65,0a2.756,2.756,0,0,0-1.46.284.459.459,0,0,1-.4.01" transform="translate(-2.02 -8.145)" fill="#80b9db"/>
        <path id="Trazado_135349" data-name="Trazado 135349" d="M5.786,24.553h.183c.529.618.345,1.368.345,2.065q.017,24.908.009,49.816c0,.9-.016,1.794.006,2.69.029,1.158.141,1.28,1.329,1.285,3.873.016,7.746,0,11.619.01a3.151,3.151,0,0,1,1.682.237.269.269,0,0,1,.081.371,1.464,1.464,0,0,1-1.007.286c-4.457.017-8.915.035-13.372-.008a1.689,1.689,0,0,1-.524-.1,1.111,1.111,0,0,1-.352-.236c-.009-2.62-.025-5.24-.025-7.859q0-23.579,0-47.159c0-.466.018-.932.027-1.4" transform="translate(-2.02 -8.616)" fill="#80b9db"/>
        <path id="Trazado_135350" data-name="Trazado 135350" d="M55.28,146.128c-.308.377-.734.212-1.1.212q-23.642.013-47.284,0c-.371,0-.8.165-1.1-.212a1.279,1.279,0,0,1,.364-.228,5.3,5.3,0,0,1,1.6-.116q22.782,0,45.565,0a5.378,5.378,0,0,1,1.6.113,1.23,1.23,0,0,1,.363.23" transform="translate(-2.03 -51.154)" fill="#809cb5"/>
        <path id="Trazado_135351" data-name="Trazado 135351" d="M20.695,10.751A1.67,1.67,0,0,1,22.418,8.97a1.9,1.9,0,0,1,1.867,1.722,2.092,2.092,0,0,1-1.851,1.9,1.952,1.952,0,0,1-1.74-1.84" transform="translate(-7.262 -3.148)" fill="#464655"/>
        <path id="Trazado_135352" data-name="Trazado 135352" d="M5.989,134.086l-.1,0h-.1q0-11.31.008-22.62c.065.006.129.012.194.016a1.961,1.961,0,0,1,.341,1.425q.012,9.876,0,19.752a1.957,1.957,0,0,1-.341,1.425" transform="translate(-2.03 -39.114)" fill="#6b9fc6"/>
        <path id="Trazado_135353" data-name="Trazado 135353" d="M81.739,134.088h-.1l-.1,0a1.957,1.957,0,0,1-.341-1.425q-.012-9.876,0-19.752a1.96,1.96,0,0,1,.341-1.425c.065,0,.13-.01.194-.016q0,11.31.008,22.62" transform="translate(-28.489 -39.114)" fill="#6b9fc6"/>
        <path id="Trazado_135354" data-name="Trazado 135354" d="M21.121,80.408l-13.561,0c-1.47,0-1.471,0-1.471-1.427q0-26.695,0-53.388c0-.467,0-.933,0-1.4,0-.353.062-.652.517-.642.251.006.5,0,.753,0q23.238,0,46.476-.023c1.061,0,1.386.224,1.384,1.348q-.058,27.114-.006,54.228c0,1.011-.23,1.346-1.29,1.331-4.59-.061-9.18-.032-13.771-.035-1.592-2.1-2.173-2.078-3.728.123a.854.854,0,0,1-.425.315,9.945,9.945,0,0,1-3.241-.022c-.369-.157-.468-.518-.609-.838a1.629,1.629,0,0,0-3-.034c-.143.319-.236.682-.6.857a7.032,7.032,0,0,1-3.631-.131,2.278,2.278,0,0,1-.5-.8,1.525,1.525,0,0,0-2.7-.168c-.188.251-.275.587-.608.715" transform="translate(-2.135 -8.254)" fill="#63aeda"/>
        <path id="Trazado_135355" data-name="Trazado 135355" d="M32.613,111.377l3.63-.01c.271.075.367.318.511.522.937,1.333,2.193,1.29,3.057-.1a.909.909,0,0,1,.339-.4l15.036-.009q0,11.3,0,22.6H6.1q0-11.3,0-22.6l15.033-.019c.291.114.388.4.564.622.975,1.211,2.158,1.079,2.837-.317.092-.188.123-.416.358-.5,1.238.458,2.523.091,3.78.215.258.1.353.339.5.542a1.637,1.637,0,0,0,2.95,0c.143-.2.237-.447.5-.543" transform="translate(-2.14 -39.007)" fill="#468bbd"/>
        <path id="Trazado_135356" data-name="Trazado 135356" d="M56.447,110.39a1.78,1.78,0,0,1-1.715,1.725c-1.12.1-1.594-.288-2.192-1.743a2.313,2.313,0,0,1,1.261-1.882c1.2-.51,2.325.214,2.649,1.664,0,.079,0,.158,0,.237" transform="translate(-18.436 -38.012)" fill="#fdfefe"/>
        <path id="Trazado_135357" data-name="Trazado 135357" d="M33.014,110.218a1.833,1.833,0,0,1-1.646,1.918c-.955.148-1.634-.441-2.113-1.723a.3.3,0,0,0-.006-.2c.5-1.361,1.033-1.826,2.068-1.732a1.779,1.779,0,0,1,1.7,1.733" transform="translate(-10.263 -38.063)" fill="#464655"/>
        <path id="Trazado_135358" data-name="Trazado 135358" d="M40.754,93.388c-1.147,0-2.293.011-3.44,0-1.475-.018-2.235-.651-2.276-2.119q-.1-3.6,0-7.2c.045-1.434.848-2.088,2.323-2.1q3.441-.022,6.88,0a2,2,0,0,1,2.28,2.145q.1,3.546,0,7.1c-.039,1.518-.8,2.161-2.332,2.177-1.147.012-2.293,0-3.44,0" transform="translate(-12.276 -28.758)" fill="#fedb69"/>
        <path id="Trazado_135359" data-name="Trazado 135359" d="M69.935,64.286c0,1.146.011,2.292,0,3.438-.018,1.453-.679,2.218-2.141,2.256q-3.543.093-7.089,0c-1.487-.037-2.173-.833-2.182-2.354q-.021-3.384,0-6.768c.009-1.541.636-2.3,2.172-2.35q3.595-.116,7.2,0c1.414.045,2.018.808,2.048,2.228,0,.072,0,.143,0,.215v3.331" transform="translate(-20.531 -20.511)" fill="#fe9f55"/>
        <path id="Trazado_135360" data-name="Trazado 135360" d="M40.869,35.163c1.112,0,2.224-.007,3.336,0,1.5.012,2.272.621,2.315,2.077.071,2.4.073,4.809-.01,7.21-.052,1.494-.8,2.111-2.288,2.122q-3.444.024-6.888,0c-1.4-.011-2.161-.579-2.218-1.946-.1-2.506-.107-5.021-.022-7.528.046-1.344.832-1.918,2.223-1.932,1.184-.012,2.368,0,3.552,0" transform="translate(-12.293 -12.338)" fill="#fe6469"/>
        <path id="Trazado_135361" data-name="Trazado 135361" d="M11.709,40.852c0-1.218-.018-2.437.006-3.654a1.842,1.842,0,0,1,1.975-2.03q3.707-.034,7.415,0A1.891,1.891,0,0,1,23.119,37.2q.045,3.654,0,7.308a1.938,1.938,0,0,1-2.112,2.062q-3.6.034-7.2,0a1.911,1.911,0,0,1-2.091-2.063c-.027-1.218-.006-2.436-.005-3.654" transform="translate(-4.106 -12.334)" fill="#fedb69"/>
        <path id="Trazado_135362" data-name="Trazado 135362" d="M69.922,87.71c0,1.253.021,2.507-.006,3.761a1.778,1.778,0,0,1-1.868,1.895q-3.814.04-7.628,0a1.808,1.808,0,0,1-1.9-1.886c-.036-2.507-.032-5.015,0-7.522a1.9,1.9,0,0,1,1.955-1.993q3.76-.056,7.521,0a1.878,1.878,0,0,1,1.931,1.988c.024,1.253.006,2.507.006,3.761h0" transform="translate(-20.524 -28.75)" fill="#fefefe"/>
        <path id="Trazado_135363" data-name="Trazado 135363" d="M17.412,82.263c1.11,0,2.226.069,3.329-.016,1.689-.13,2.286.778,2.354,2.222.106,2.252.079,4.513.011,6.767a2.1,2.1,0,0,1-2.346,2.221q-3.436.056-6.875,0a1.964,1.964,0,0,1-2.153-2.141q-.059-3.437,0-6.875c.03-1.638.622-2.169,2.243-2.176,1.146,0,2.292,0,3.438,0" transform="translate(-4.106 -28.856)" fill="#468bbd"/>
        <path id="Trazado_135364" data-name="Trazado 135364" d="M35.235,64.214c0-1.218-.023-2.435.008-3.652a1.718,1.718,0,0,1,1.879-1.871q3.758-.041,7.519,0a1.71,1.71,0,0,1,1.843,1.9q.039,3.706,0,7.412a1.739,1.739,0,0,1-1.934,1.927q-3.7.039-7.411,0a1.745,1.745,0,0,1-1.9-1.961c-.025-1.253-.005-2.506,0-3.76" transform="translate(-12.361 -20.587)" fill="#464655"/>
        <path id="Trazado_135365" data-name="Trazado 135365" d="M11.72,64.2c0-1.112,0-2.223,0-3.335.008-1.61.633-2.376,2.2-2.422,2.328-.069,4.662-.063,6.991,0a2.073,2.073,0,0,1,2.216,2.338q.022,3.443,0,6.885a2.075,2.075,0,0,1-2.237,2.32q-3.44.085-6.884,0c-1.633-.036-2.284-.79-2.291-2.452,0-1.112,0-2.223,0-3.335" transform="translate(-4.112 -20.491)" fill="#9fd678"/>
        <path id="Trazado_135366" data-name="Trazado 135366" d="M69.918,40.957c0,1.076.01,2.153,0,3.229-.018,1.575-.7,2.334-2.28,2.372-2.259.055-4.521.047-6.78,0a2.106,2.106,0,0,1-2.328-2.354q-.058-3.336,0-6.673a2.13,2.13,0,0,1,2.418-2.365q3.283-.017,6.566,0c1.686.01,2.391.737,2.4,2.45.009,1.113,0,2.224,0,3.337" transform="translate(-20.527 -12.338)" fill="#00dbcc"/>
        <path id="Trazado_135367" data-name="Trazado 135367" d="M44.816,110.416c-.278,1.01-.8,1.754-1.971,1.754s-1.692-.744-1.971-1.754c.3-1.466.86-2.015,2.024-1.991,1.106.023,1.625.561,1.917,1.991" transform="translate(-14.343 -38.046)" fill="#fdfefe"/>
        <path id="Trazado_135368" data-name="Trazado 135368" d="M64.316,120.1c1.218,0,2.435-.021,3.652.007a1.818,1.818,0,0,1,1.947,1.947q.044,3.707,0,7.413a1.877,1.877,0,0,1-2,2.036c-2.435.031-4.87.028-7.3,0a1.932,1.932,0,0,1-2.091-2.084q-.053-3.652,0-7.306a1.9,1.9,0,0,1,2.035-2.012c1.253-.027,2.506-.006,3.76-.005" transform="translate(-20.526 -42.141)" fill="#fe6469"/>
        <path id="Trazado_135369" data-name="Trazado 135369" d="M11.724,125.83c0-1.183-.013-2.365,0-3.548a1.967,1.967,0,0,1,2.213-2.171q3.493-.02,6.988,0a1.953,1.953,0,0,1,2.189,2.1c.045,2.365.056,4.731,0,7.1a2.078,2.078,0,0,1-2.346,2.209q-3.333.024-6.666,0c-1.649-.012-2.366-.734-2.376-2.35-.008-1.111,0-2.222,0-3.333" transform="translate(-4.112 -42.143)" fill="#00dbcc"/>
        <path id="Trazado_135370" data-name="Trazado 135370" d="M40.763,120.109h3.545c1.379,0,2.208.652,2.244,1.995q.1,3.7,0,7.411c-.035,1.349-.863,2.009-2.262,2.011q-3.545.006-7.089,0a1.983,1.983,0,0,1-2.254-2.135c-.044-2.362-.039-4.726,0-7.089a1.993,1.993,0,0,1,2.274-2.193h3.545" transform="translate(-12.252 -42.146)" fill="#63aeda"/>
        <path id="Trazado_135371" data-name="Trazado 135371" d="M65.371,91.611c-.717,0-1.436.046-2.149-.011A1.834,1.834,0,0,1,61.5,89.744a1.853,1.853,0,0,1,1.67-1.813,40.723,40.723,0,0,1,4.3.01,1.762,1.762,0,0,1,1.579,1.86,1.727,1.727,0,0,1-1.64,1.789c-.674.065-1.36.012-2.04.012v.01" transform="translate(-21.582 -30.837)" fill="#fe6469"/>
        <path id="Trazado_135372" data-name="Trazado 135372" d="M18.491,87.9c.679,0,1.362-.047,2.036.011a1.746,1.746,0,0,1,1.695,1.624,1.694,1.694,0,0,1-1.335,2.024,11.308,11.308,0,0,1-4.984-.022,1.872,1.872,0,0,1,.339-3.609,19.831,19.831,0,0,1,2.249-.018V87.9" transform="translate(-5.146 -30.837)" fill="#fefefe"/>
        <path id="Trazado_135373" data-name="Trazado 135373" d="M41.771,68.233c-.643,0-1.287.027-1.928-.006a1.991,1.991,0,0,1-1.893-1.953,1.965,1.965,0,0,1,1.829-1.908c1.354-.055,2.714-.053,4.069,0a1.965,1.965,0,0,1,1.84,1.9,1.988,1.988,0,0,1-1.881,1.964c-.676.035-1.357.006-2.035.006" transform="translate(-13.317 -22.572)" fill="#468cbd"/>
        <path id="Trazado_135374" data-name="Trazado 135374" d="M22.246,65.277A3.776,3.776,0,1,1,18.469,61.4a3.835,3.835,0,0,1,3.777,3.873" transform="translate(-5.157 -21.547)" fill="#fedb69"/>
        <path id="Trazado_135375" data-name="Trazado 135375" d="M65.265,45.674a3.788,3.788,0,1,1,3.818-3.791,3.737,3.737,0,0,1-3.818,3.791" transform="translate(-21.579 -13.368)" fill="#fe6469"/>
        <path id="Trazado_135376" data-name="Trazado 135376" d="M41.789,130.619a3.785,3.785,0,1,1,3.887-3.767,3.824,3.824,0,0,1-3.887,3.767" transform="translate(-13.332 -43.179)" fill="#fedb69"/>
      </g>
    </g>
  </g>
</svg>
