<svg xmlns="http://www.w3.org/2000/svg" xmlns:xlink="http://www.w3.org/1999/xlink" width="240.048" height="255.473" viewBox="0 0 240.048 255.473">
  <defs>
    <clipPath id="clip-path">
      <rect id="Rect치ngulo_38032" data-name="Rect치ngulo 38032" width="143.22" height="202.999" fill="none"/>
    </clipPath>
  </defs>
  <g id="_5" data-name="5" transform="translate(-0.048 -33)">
    <g id="Grupo_87689" data-name="Grupo 87689" transform="translate(0.048 33)">
      <g id="Grupo_87397" data-name="Grupo 87397">
        <path id="Rect치ngulo_34437" data-name="Rect치ngulo 34437" d="M0,0H163.048a77,77,0,0,1,77,77V255.472a0,0,0,0,1,0,0H0a0,0,0,0,1,0,0V0A0,0,0,0,1,0,0Z" fill="#ffdfe0"/>
      </g>
    </g>
    <g id="Grupo_158804" data-name="Grupo 158804" transform="translate(48.048 59)">
      <g id="Grupo_158804-2" data-name="Grupo 158804" clip-path="url(#clip-path)">
        <path id="Trazado_134819" data-name="Trazado 134819" d="M.626,107.033C-.011,93.122-.488,79.213.891,65.31c.993-10.01,2.761-19.839,6.581-29.2,7.295-17.884,20.6-28.724,39.2-33.328A96.443,96.443,0,0,1,61.491.41c.366-.032.818.1.993-.41h2.379a4.057,4.057,0,0,0,2.776,0h.793A3.032,3.032,0,0,0,70.81,0H72.4a3.029,3.029,0,0,0,2.378,0h.794a4.054,4.054,0,0,0,2.774,0h1.983c2.623.856,5.389.734,8.076,1.156,9.735,1.532,19,4.333,27.3,9.823,10.132,6.7,16.715,16.11,20.9,27.34,3.361,9.023,4.958,18.432,5.832,27.974,1.241,13.572.8,27.157.148,40.739a98.6,98.6,0,0,1-1.748,12.448A101.823,101.823,0,0,1,128.788,148.6a114.69,114.69,0,0,1-21.273,25.628A113.972,113.972,0,0,1,96.5,182.847c-.891.581-1.985,1.9-2.881,1.068-.809-.754.553-1.81,1.052-2.647,1.984-3.335,3.982-6.66,5.651-10.171a137.038,137.038,0,0,0,8.226-18.147,64.737,64.737,0,0,0,3.711-11.436c2.607-7.1,3.971-14.493,5.17-21.932A114.382,114.382,0,0,0,118.537,95.1a101.424,101.424,0,0,0-8.576-35.826c-1.366-3.079-3.06-6-4.319-9.117-.217-.517-.594-.964-.69-1.271.031.432.572.916.768,1.549a48.247,48.247,0,0,1,4.291,13.96c.029.2.069.39.1.588.6,4.482.176,4.955-4.137,4.156a155.791,155.791,0,0,0-25-2.436c-3.887-.087-7.782-.422-11.672-.3-11.281.359-22.572.638-33.673,3.039-2.165.468-2.676.095-2.622-2.125a41.239,41.239,0,0,1,3.636-15.055,100.058,100.058,0,0,0-8.53,21.65,106.807,106.807,0,0,0-3.54,24.844A134.93,134.93,0,0,0,29.654,137.9a37.045,37.045,0,0,0,1.276,3.534c1.225,5.986,3.68,11.554,6,17.153a91.676,91.676,0,0,0,5.949,12.5,97.83,97.83,0,0,0,5.388,9.664c.245.391.518.765.735,1.173.32.6.637,1.3.094,1.834-.655.639-1.2-.1-1.7-.43a117.152,117.152,0,0,1-11.691-9.09c-10.239-9.495-18.887-20.181-25.187-32.741a96.753,96.753,0,0,1-9.326-28.235c-.33-2.066-.12-4.179-.563-6.233" transform="translate(0)" fill="#684b37"/>
        <path id="Trazado_134820" data-name="Trazado 134820" d="M61.621,0a2.279,2.279,0,0,1-2.776,0Z" transform="translate(6.018)" fill="#968274"/>
        <path id="Trazado_134821" data-name="Trazado 134821" d="M71.331,0a2.279,2.279,0,0,1-2.776,0Z" transform="translate(7.011)" fill="#968274"/>
        <path id="Trazado_134822" data-name="Trazado 134822" d="M64.461,0a1.789,1.789,0,0,1-2.379,0Z" transform="translate(6.349)" fill="#775d4b"/>
        <path id="Trazado_134823" data-name="Trazado 134823" d="M68.058,0a1.79,1.79,0,0,1-2.38,0Z" transform="translate(6.717)" fill="#775d4b"/>
        <path id="Trazado_134824" data-name="Trazado 134824" d="M99.826,155.531c.13,1.174-.747,1.938-1.215,2.849-1.709,3.327-3.633,6.532-5.465,9.985,2.319-1.656,4.631-3.322,6.96-4.962,2.256-1.589,4.073-3.733,6.481-5.128a2.313,2.313,0,0,1,1.866.439c7.287,3.686,14.128,8.007,19.765,14.014a13.555,13.555,0,0,1,3.3,4.626c1.386,2.753,3.05,5.372,3.351,8.584.11,1.171-.209,1.394-1.2,1.3-.327-.03-.659,0-.99,0H9.113c-2.434,0-2.467-.008-2.025-2.475.486-2.709,1.963-5.008,3.188-7.407,1.511-3.435,4.283-5.852,7-8.2A73.171,73.171,0,0,1,33.168,158.8c.639-.312,1.251-.786,2.044-.528,1.4.434,2.158,1.686,3.224,2.545,3.129,2.525,6.362,4.905,9.691,7.2.509-.843-.152-1.349-.488-1.934q-2.664-4.63-5.335-9.255a1.737,1.737,0,0,1-.33-1.3c1.122-1.217,2.66-1.373,4.158-1.63,1.323.087,1.851,1.177,2.5,2.06q10.4,14.237,20.831,28.463c1.414,1.922,1.468,1.926,2.861.032q10.451-14.2,20.83-28.464c.645-.882,1.165-1.977,2.487-2.088,1.513.24,3.06.4,4.19,1.627" transform="translate(0.703 15.739)" fill="#f4a760"/>
        <path id="Trazado_134825" data-name="Trazado 134825" d="M35.859,164.083A87.431,87.431,0,0,0,19.2,174.508a62.753,62.753,0,0,0-8.276,8.655c-1.6-7.676-2.761-15.427-3.977-23.17-2-12.761-3.753-25.56-4.919-38.425C1.288,113.433.36,105.3.571,97.1c.82,2.155.772,4.466,1.136,6.7a93.538,93.538,0,0,0,6.952,22.917,111.082,111.082,0,0,0,16.07,25.624c2.812,3.408,6.029,6.434,9.132,9.568.691.7,1.333,1.448,2,2.175" transform="translate(0.055 9.93)" fill="#543c2a"/>
        <path id="Trazado_134826" data-name="Trazado 134826" d="M122.271,183.164C115.72,174.5,106.9,168.8,97.336,164.085c2.343-2.405,4.723-4.775,7.021-7.222A108.359,108.359,0,0,0,121.122,133.6a97.953,97.953,0,0,0,8.848-22.5,80.022,80.022,0,0,0,2.242-12.748c.037-.459-.029-.935.412-1.253.241,6.346-.462,12.646-.969,18.95-1.388,17.221-3.817,34.312-6.585,51.358-.855,5.264-1.862,10.5-2.8,15.754" transform="translate(9.954 9.93)" fill="#543c2a"/>
        <path id="Trazado_134827" data-name="Trazado 134827" d="M103.387,45.017A99.372,99.372,0,0,1,115.759,80.2c2.841,18.365.873,36.374-4.1,54.15a10.224,10.224,0,0,1-1.34,3.052c-.614,1.938-2.239,3.05-3.637,4.3-6.549,5.875-14.32,9.257-22.858,11.041a70.233,70.233,0,0,1-23.678.88c-1.332-.179-2.67-.664-4.035-.206a19.349,19.349,0,0,0-.064,8.451c.139.766.475,1.491.095,2.267-1.315.589-1.4-.565-1.8-1.269a49.309,49.309,0,0,1-.108-7.7c.064-1.83-.5-2.682-2.353-3.155a45.822,45.822,0,0,1-21.813-12.2,5.064,5.064,0,0,1-1.613-2.422c-1.725-2.818-2.153-6.07-2.922-9.179a126.025,126.025,0,0,1-3.64-37.866A102.884,102.884,0,0,1,35.077,45.407a3.633,3.633,0,0,1,.453-.64c.072-.079.233-.077.623-.191-2.626,6.541-5.035,12.988-4.794,20.158,14.257-3.2,28.615-3.552,43-3.344,10.688.154,21.365.7,31.835,3.127,1.27.294,1.27-.155,1.258-1.1-.074-5.636-1.753-10.9-3.722-16.09-.233-.613-.459-1.228-.688-1.842-.193-.387-.017-.5.351-.472" transform="translate(2.217 4.559)" fill="#fccb9a"/>
        <path id="Trazado_134828" data-name="Trazado 134828" d="M27.826,128.789A45.742,45.742,0,0,0,52.307,143.1c1.4.319,1.9.877,1.83,2.345-.138,2.893-.061,5.8-.073,8.7a1.254,1.254,0,0,1-1.022.815c-3.011.5-5.888,1.634-8.953,1.872L39.831,158.1c-1.872-1.951-2.712-4.5-3.77-6.874-2.222-4.987-4.228-10.073-6.228-15.155a26.58,26.58,0,0,1-2.007-7.282" transform="translate(2.846 13.171)" fill="#543c2a"/>
        <path id="Trazado_134829" data-name="Trazado 134829" d="M78.436,143.462a46.018,46.018,0,0,0,26.155-14.673,33.6,33.6,0,0,1-2.445,8.384,182.652,182.652,0,0,1-8.308,19.213c-.324.634-.495,1.391-1.251,1.714l-4.26-1.267c-3.068-.234-5.952-1.349-8.961-1.871A1.772,1.772,0,0,1,78,153.945a14.779,14.779,0,0,1-.251-4.289c.173-2.071-.654-4.253.683-6.194" transform="translate(7.942 13.171)" fill="#543c2a"/>
        <path id="Trazado_134830" data-name="Trazado 134830" d="M95.918,45.082l-.351.472-.848-1.618c.877.157,1.005.679,1.2,1.146" transform="translate(9.687 4.493)" fill="#fbca9a"/>
        <path id="Trazado_134831" data-name="Trazado 134831" d="M81.939,151.789c3.317.929,6.8,1.25,9.977,2.692-1.225.429-1.682,1.585-2.364,2.516-7.027,9.585-14.067,19.161-21.037,28.787-1.017,1.405-1.517,1.408-2.532,0Q55.2,170.852,44.275,156.023c-.435-.594-.762-1.44-1.7-1.542,3.179-1.437,6.657-1.768,9.976-2.687.387.55.557,1.258,1.188,1.629,1.653,1.567,2.55,3.655,3.72,5.542,2.917,4.7,5.713,9.482,8.566,14.226a4.089,4.089,0,0,0,1.175,1.576c.693-.266.883-.95,1.207-1.492,3.926-6.559,7.853-13.118,11.86-19.627.439-.711.74-1.574,1.667-1.858" transform="translate(4.355 15.523)" fill="#f08a45"/>
        <path id="Trazado_134832" data-name="Trazado 134832" d="M80.977,152.719c-4.836,8-9.671,16.009-14.693,24.32-1.6-2.663-3.059-5.121-4.544-7.566-2.8-4.622-5.627-9.231-8.427-13.855a9.174,9.174,0,0,1-.531-1.265c-.974-3.179-.766-6.453-.758-9.709,0-.632-.219-1.338.391-1.852,1.2-.362,2.166.379,3.136.788A52.084,52.084,0,0,0,77.467,147.8c1.149-.031,2.389-.313,3.414.552l.1,4.372" transform="translate(5.316 14.593)" fill="#fccb9a"/>
        <path id="Trazado_134833" data-name="Trazado 134833" d="M41.686,109.327a8.281,8.281,0,0,1-8.389,8.385c-4.157-.031-8.362-4.107-8.219-8.28.169-4.976,3.852-8.471,8.409-8.383a8.246,8.246,0,0,1,8.2,8.278" transform="translate(2.564 10.334)" fill="#f8a98c"/>
        <path id="Trazado_134834" data-name="Trazado 134834" d="M107.136,109.37a8.118,8.118,0,0,1-8.417,8.295c-4.94-.289-8.11-3.643-8.1-8.28a8.258,8.258,0,1,1,16.516-.014" transform="translate(9.267 10.335)" fill="#f8a98c"/>
        <path id="Trazado_134835" data-name="Trazado 134835" d="M34.327,89.574c.028-3.766,2.709-6.633,6.168-6.595a6.694,6.694,0,0,1-.148,13.346c-3.426-.039-6.048-2.979-6.021-6.751" transform="translate(3.511 8.486)" fill="#3b2519"/>
        <path id="Trazado_134836" data-name="Trazado 134836" d="M86.978,85.053a5.7,5.7,0,0,1,7.611-1.09,7.176,7.176,0,0,1,2.233,8.651,5.993,5.993,0,0,1-7.134,3.506A6.776,6.776,0,0,1,85.215,89a5.873,5.873,0,0,1,1.11-3.117c.335-.1.518.1.687.335.484.806.763,1.934,2.089,1.53a.994.994,0,0,0,.714-1.229c-.33-1.3-1.479-1-2.393-1.149a.922.922,0,0,1-.444-.321" transform="translate(8.71 8.484)" fill="#3b2519"/>
        <path id="Trazado_134837" data-name="Trazado 134837" d="M80.841,148.408c-6.922.184-13.77-.152-20.438-2.338-2.756-.9-5.325-2.214-8.028-3.219.483-.585,1.041-.285,1.628-.2,7.246,1.052,14.493,1.528,21.785.309a44.62,44.62,0,0,0,5.235-.86l-.182,6.307" transform="translate(5.356 14.532)" fill="#fbbb85"/>
        <path id="Trazado_134838" data-name="Trazado 134838" d="M32.327,76.51c-.643-.047-1.391.118-1.752-.622a1.922,1.922,0,0,1,.411-2.029c1.548-2.155,3.889-2.918,6.326-3.279a18.775,18.775,0,0,1,9.552.707c2.17.821,3.567,2.444,3.514,4.083-.032,1-.389,1.83-1.551,1.376a23.3,23.3,0,0,0-15.712-.306,3.866,3.866,0,0,1-.789.072" transform="translate(3.111 7.188)" fill="#684b37"/>
        <path id="Trazado_134839" data-name="Trazado 134839" d="M99.171,76.528c-.623-.13-1.476-.249-2.295-.487a20.734,20.734,0,0,0-12.841.364c-.731.251-1.7,1.01-2.341.032a2.56,2.56,0,0,1,.29-2.97,6.847,6.847,0,0,1,4.488-2.655,18.774,18.774,0,0,1,11.616.871,6.138,6.138,0,0,1,2.73,2.216,1.878,1.878,0,0,1,.357,2.03c-.391.716-1.134.528-2,.6" transform="translate(8.318 7.189)" fill="#684b37"/>
        <path id="Trazado_134840" data-name="Trazado 134840" d="M65.84,114.584a10.475,10.475,0,0,1-7.663-2.008,4.662,4.662,0,0,1-1.841-3.343c-.128-1.119.249-1.4,1.344-.9,2.612,1.2,5.17,2.41,8.217,2.4,2.9-.012,5.327-1.206,7.867-2.237.446-.181.912-.77,1.4-.279.39.389.256,1.022.138,1.517-.61,2.554-2.621,3.658-4.841,4.445a10.554,10.554,0,0,1-4.625.409" transform="translate(5.759 11.047)" fill="#fbbb85"/>
        <path id="Trazado_134841" data-name="Trazado 134841" d="M51.254,121.285c5.02,1.325,9.955,2.777,15.212,2.779,5.2,0,10.05-1.542,15.357-3.177a6.348,6.348,0,0,1-3.94,3.451c-5.388,1.9-10.937,1.925-16.546,1.4A25.322,25.322,0,0,1,55,124.4a6.03,6.03,0,0,1-3.746-3.114" transform="translate(5.242 12.363)" fill="#f6945e"/>
        <path id="Trazado_134842" data-name="Trazado 134842" d="M65.21,130.419a14.028,14.028,0,0,1-1.463-.445c-.686-.29-1.866-.486-1.521-1.408.378-1.01,1.143.117,1.756.174a5.494,5.494,0,0,0,3.426-.394c.279-.16.638-.343.861.017a.739.739,0,0,1-.3,1.017,7.948,7.948,0,0,1-2.76,1.038" transform="translate(6.357 13.105)" fill="#fbbc86"/>
        <path id="Trazado_134843" data-name="Trazado 134843" d="M86.643,86.188c-.141-.165-.283-.331-.424-.5a1.1,1.1,0,0,1,.651-.833l.572.064a.976.976,0,0,1-.8,1.267" transform="translate(8.817 8.678)" fill="#533b2d"/>
        <path id="Trazado_134844" data-name="Trazado 134844" d="M39.406,86.568a1.748,1.748,0,0,1-1.952,1.709,1.779,1.779,0,0,1,.271-3.547,1.72,1.72,0,0,1,1.681,1.839" transform="translate(3.662 8.665)" fill="#f9f9f9"/>
        <path id="Trazado_134845" data-name="Trazado 134845" d="M86.6,86.2q.4-.633.8-1.267c1.08-.322,2.16-.453,2.694.816a1.607,1.607,0,0,1-1,2.394c-1.656.511-2.259-.528-2.494-1.943" transform="translate(8.857 8.664)" fill="#fbfbfb"/>
      </g>
    </g>
  </g>
</svg>
