<svg xmlns="http://www.w3.org/2000/svg" xmlns:xlink="http://www.w3.org/1999/xlink" width="189" height="122" viewBox="0 0 189 122">
  <defs>
    <clipPath id="clip-path">
      <rect id="Rect치ngulo_38056" data-name="Rect치ngulo 38056" width="110.947" height="111" fill="none"/>
    </clipPath>
  </defs>
  <g id="Grupo_159177" data-name="Grupo 159177" transform="translate(-600 -8276)">
    <g id="Grupo_158880" data-name="Grupo 158880">
      <rect id="Rect치ngulo_37701" data-name="Rect치ngulo 37701" width="189" height="122" transform="translate(600 8276)" fill="#ff9fa3"/>
      <g id="Grupo_158879" data-name="Grupo 158879" transform="translate(639.329 8281.323)">
        <g id="Grupo_158878" data-name="Grupo 158878" transform="translate(0 0)" clip-path="url(#clip-path)">
          <path id="Trazado_135377" data-name="Trazado 135377" d="M109.669,0c.819.557,1.52,1.181,1.2,2.321-.284,1-.979,1.391-2.441,1.394-1.431,0-2.862.014-4.293-.006-.434-.006-.634.068-.684.575C102.361,15.212,96.109,22.569,87,27.9c-.762.447-.882.722-.559,1.544a9.013,9.013,0,0,1-.621,8.137,2.322,2.322,0,0,0-.069,2.475c6.539,12.269,6.694,24.933,1.558,37.566-6.131,15.079-16.96,25.59-32.513,30.784-11.912,3.978-23.65,3.563-34.895-2.534a2.266,2.266,0,0,0-2.461.071,9.318,9.318,0,0,1-11.19-1.173A9.316,9.316,0,0,1,5.026,93.5a2.335,2.335,0,0,0,.006-2.561A40.227,40.227,0,0,1,.069,68.833,49.955,49.955,0,0,1,12.693,38.351a51.114,51.114,0,0,1,27.545-16.86,49.545,49.545,0,0,1,9.007-1.27c.183-.352-.08-.588-.2-.826A44.353,44.353,0,0,1,44.76,6.765c-.509-2.77.456-4.3,3.186-5.083A42.73,42.73,0,0,1,55.482.214c.178-.018.373.009.452-.214h6.387a32.677,32.677,0,0,1,4.847.728A20.976,20.976,0,0,1,79.129,9.693a38.911,38.911,0,0,1,5.51,13.568c.26,1.232.311,1.263,1.386.61A29.353,29.353,0,0,0,96.931,12.665a22.3,22.3,0,0,0,2.351-7.4c.128-.88-.031-1.242-1.011-1.276-1.5-.054-2.3-.876-2.3-2.127A1.725,1.725,0,0,1,97.336,0Z" transform="translate(0 0)"/>
          <path id="Trazado_135378" data-name="Trazado 135378" d="M54.365,107.608A40.972,40.972,0,0,1,37.5,109.946a37.368,37.368,0,0,1-15.77-4.686,5.157,5.157,0,0,0-5.438.134,5.886,5.886,0,0,1-2.444.925c-2.065.2-3.913-.26-5.118-2.075a5.335,5.335,0,0,1-.147-6.025,5.715,5.715,0,0,0,.156-6.128,36.952,36.952,0,0,1-3.36-28.233c5.048-18.518,16.935-30.549,35.5-35.8a19.78,19.78,0,0,1,4.419-.821c.242-.1.521-.2.689.062.132.205-.047.418-.187.582a16.183,16.183,0,0,1-1.235,1.084A41.671,41.671,0,0,0,36.772,39.5c-.7,1.311-.535,1.995.752,2.886a49.71,49.71,0,0,0,8.414,4.47,10.938,10.938,0,0,0,1.622.643,44.528,44.528,0,0,0,8.617,2.886c7.834,1.547,14.469-.741,20.136-6.2.606-.583,1.2-1.177,1.8-1.765.593-.1.735.392.933.757a39.746,39.746,0,0,1,4.921,17.741c.475,12.692-3.869,23.627-11.891,33.247a49.708,49.708,0,0,1-14.241,11.787c-1.124.62-2.352,1.021-3.47,1.651" transform="translate(-0.412 -2.807)" fill="#fedb00"/>
          <path id="Trazado_135379" data-name="Trazado 135379" d="M69.3,46.379a18.2,18.2,0,0,1-9.631-.354A38.022,38.022,0,0,1,48.762,40.97c-.493-.322-.743-.573-.393-1.2a36.8,36.8,0,0,1,9.412-11.6c5.589-4.343,11.68-4.718,18.133-2.349a38.048,38.048,0,0,1,5.673,3.29c1.307.923,1.346,1.158.629,2.6a39.77,39.77,0,0,1-8.309,11.386A16.388,16.388,0,0,1,69.3,46.379" transform="translate(-4.988 -2.521)" fill="#60a817"/>
          <path id="Trazado_135380" data-name="Trazado 135380" d="M86.19,23.839a80.759,80.759,0,0,0-7.746-3.46c-6.1-2.134-12.187-2.7-18.221.223-.526.256-.739.121-1.027-.337A39.031,39.031,0,0,1,54.034,6.931c-.167-.844.082-1.206.923-1.419A39.57,39.57,0,0,1,66.908,4.187c7.207.4,12.41,3.924,15.79,10.243a32.685,32.685,0,0,1,2.32,5.449c.419,1.311.784,2.639,1.173,3.96" transform="translate(-5.586 -0.428)" fill="#008900"/>
          <path id="Trazado_135381" data-name="Trazado 135381" d="M60.18,108.493a21.936,21.936,0,0,1,3.984-2.266A52.865,52.865,0,0,0,85.438,82.666a48.715,48.715,0,0,0,3.6-11.92,36,36,0,0,0,.594-7.071,41.062,41.062,0,0,0-2.541-14.147,63.083,63.083,0,0,0-2.7-5.768c-.091-.18-.3-.3-.458-.448a60.852,60.852,0,0,0,5.52-7.627,4.818,4.818,0,0,1-.6,3.673,5.9,5.9,0,0,0-.074,6.243c5.312,9.873,5.971,20.264,2.589,30.772C86.345,91.96,75.9,102.567,60.6,108.4a2.877,2.877,0,0,1-.422.091" transform="translate(-6.227 -3.692)" fill="#fdc008"/>
          <path id="Trazado_135382" data-name="Trazado 135382" d="M51.261,47.464a7.1,7.1,0,0,1-3.094-1.014,43.477,43.477,0,0,1-7.028-3.808c-1.538-1.046-1.744-1.772-.866-3.4A41.628,41.628,0,0,1,48.237,28.57c.344-.325.774-.562,1.1-.9.568-.6-.139-.371-.335-.474a17.4,17.4,0,0,1,3.808-.442c.057.442-.315.565-.524.768a42.5,42.5,0,0,0-8.192,11.07c-1.169,2.271-.7,4.019,1.42,5.48,1.841,1.263,3.815,2.294,5.749,3.4" transform="translate(-4.113 -2.768)" fill="#fdc008"/>
          <path id="Trazado_135383" data-name="Trazado 135383" d="M71.735,46.547a50.5,50.5,0,0,0,5.394-4.423,41.307,41.307,0,0,0,6.806-9.46,10.593,10.593,0,0,1,.72-1.354c.5-.689.261-1.122-.361-1.53a42.382,42.382,0,0,0-5.142-3.122c-.318-.149-.71-.246-.8-.677a35.714,35.714,0,0,1,9.491,4.689c.419.268.381.525.174.9-3.06,5.555-6.755,10.531-12.482,13.636a10.271,10.271,0,0,1-3.8,1.339" transform="translate(-7.422 -2.688)" fill="#549314"/>
          <path id="Trazado_135384" data-name="Trazado 135384" d="M24.361,76.083a1.851,1.851,0,1,1-1.783-1.862,1.9,1.9,0,0,1,1.783,1.862" transform="translate(-2.137 -7.679)" fill="#020100"/>
          <path id="Trazado_135385" data-name="Trazado 135385" d="M38.8,57.511a1.83,1.83,0,0,1-1.815,1.824,1.816,1.816,0,1,1-.017-3.632A1.835,1.835,0,0,1,38.8,57.511" transform="translate(-3.634 -5.764)" fill="#020200"/>
          <path id="Trazado_135386" data-name="Trazado 135386" d="M30.523,63.688a1.832,1.832,0,0,1-1.785,1.856,1.883,1.883,0,0,1-1.894-1.882,1.851,1.851,0,0,1,1.865-1.781,1.8,1.8,0,0,1,1.815,1.807" transform="translate(-2.777 -6.403)" fill="#020100"/>
          <path id="Trazado_135387" data-name="Trazado 135387" d="M16.332,63.907a1.852,1.852,0,1,1-.013,3.7A1.861,1.861,0,0,1,14.491,65.7a1.885,1.885,0,0,1,1.841-1.795" transform="translate(-1.499 -6.612)" fill="#020200"/>
          <path id="Trazado_135388" data-name="Trazado 135388" d="M14.048,80.141a1.85,1.85,0,1,1-3.7.108,1.85,1.85,0,0,1,3.7-.108" transform="translate(-1.071 -8.107)" fill="#020200"/>
          <path id="Trazado_135389" data-name="Trazado 135389" d="M24.62,55.239a1.826,1.826,0,0,1-1.861-1.774,1.818,1.818,0,1,1,3.634-.086,1.827,1.827,0,0,1-1.772,1.86" transform="translate(-2.355 -5.336)" fill="#010100"/>
          <path id="Trazado_135390" data-name="Trazado 135390" d="M36.7,71.962a1.819,1.819,0,1,1-3.636-.082,1.819,1.819,0,0,1,3.636.082" transform="translate(-3.421 -7.254)" fill="#020100"/>
          <path id="Trazado_135391" data-name="Trazado 135391" d="M20.344,90.261a1.82,1.82,0,1,1,1.925-1.683,1.776,1.776,0,0,1-1.925,1.683" transform="translate(-1.928 -8.963)" fill="#010100"/>
        </g>
      </g>
    </g>
  </g>
</svg>
