<svg xmlns="http://www.w3.org/2000/svg" xmlns:xlink="http://www.w3.org/1999/xlink" width="190" height="118.473" viewBox="0 0 190 118.473">
  <defs>
    <clipPath id="clip-path">
      <rect id="Rectángulo_38057" data-name="Rectángulo 38057" width="119.132" height="96.252" transform="translate(0 0)" fill="none"/>
    </clipPath>
  </defs>
  <g id="Grupo_159178" data-name="Grupo 159178" transform="translate(9526 2804.652)">
    <path id="Trazado_131784" data-name="Trazado 131784" d="M0,0H190V118.473H0Z" transform="translate(-9526 -2804.652)" fill="#ff9fa3"/>
    <g id="Grupo_158882" data-name="Grupo 158882" transform="translate(-9491 -2793.652)">
      <g id="Grupo_158881" data-name="Grupo 158881" clip-path="url(#clip-path)">
        <path id="Trazado_135392" data-name="Trazado 135392" d="M1.184,43.958A1.754,1.754,0,0,1,0,42.162c.061-1.012.843-1.381,1.627-1.734.09-.09.181-.18.269-.272a46.859,46.859,0,0,1,7.7-2.127,71.114,71.114,0,0,1,7.313-1.313c1.03-.125,1.33-.6,1.387-1.585.119-2.045.35-4.084.595-6.119.195-1.608.01-1.783-1.573-1.407A121.522,121.522,0,0,0,3.495,32.732c-.584.25-1.166.685-1.86.286a1.775,1.775,0,0,1-1.626-1.7c-.048-1,.6-1.488,1.455-1.855,5.763-2.458,11.541-4.871,17.7-6.167.583-.123.619-.4.662-.847Q20.6,14.467,21.4,6.485c.145-1.466.3-2.931.439-4.4C21.992.494,22.514.008,24.152.007Q32.18,0,40.208,0c1.318,0,2.637-.012,3.955,0,1.463.017,2.019.552,2.153,2,.38,4.13.778,8.257,1.13,12.389.056.655.218.772.837.563a103.708,103.708,0,0,1,15.078-3.733,1.147,1.147,0,0,0,1.059-.98c.363-1.423.8-2.827,1.157-4.252a1.874,1.874,0,0,1,1.991-1.584c3.141-.011,6.282-.006,9.423,0a1.968,1.968,0,0,1,2.065,1.8c.384,1.777.865,3.537,1.162,5.328.159.958.493,1.186,1.4.945a41.927,41.927,0,0,1,13.955-1.118,90.742,90.742,0,0,1,22.017,4.461,4.356,4.356,0,0,1,1.543,1.1v1.4a1.661,1.661,0,0,1-1.312,1.2,4.749,4.749,0,0,1-2.279-.31,87.58,87.58,0,0,0-19.668-4.022A48.142,48.142,0,0,0,78.2,17.22a187.976,187.976,0,0,0-20.981,7.6,4.9,4.9,0,0,0-1.169.516c.073.4.451.359.7.473,3.552,1.627,6.973,3.5,10.415,5.347,4.4,2.357,8.816,4.686,13.871,5.38,2.142.295,2.455.042,2.385-2.245.123-2.007.226-4.014.5-6A1.942,1.942,0,0,1,86,26.381q6.957-.108,13.915,0c1.224.018,1.668.487,2.063,1.8a30.237,30.237,0,0,1,.008,3.485,2.059,2.059,0,0,1-4.112.172,1.652,1.652,0,0,0-2.457-1.18c-.464.265-.347.736-.407,1.14a2,2,0,0,1-2.385,1.938,1.92,1.92,0,0,1-1.694-1.67c-.321-1.5-.317-1.5-1.892-1.532-.893-.033-1.187.428-1.223,1.282-.055,1.311-.2,2.617-.285,3.929-.047.768.254,1.06.978,1.069,1.2.015,2.4.008,3.594.008q9.395,0,18.787,0c1.412,0,1.453-.067,1.4-1.413.041-1.277-.242-2.534-.253-3.806-.006-.822-.417-1.041-1.157-1.062-1.572-.044-1.628-.025-1.944,1.5a1.97,1.97,0,0,1-2.125,1.714,1.907,1.907,0,0,1-1.932-1.793,23.81,23.81,0,0,1-.028-3.7c.369-1.4.853-1.853,2.233-1.887,2.206-.055,4.414-.059,6.62,0a2.033,2.033,0,0,1,2.262,2.122c.411,4,.647,8.018.965,12.028.281,3.538.458,7.085.818,10.616.372,5.715,1.027,11.411,1.167,17.144a14.5,14.5,0,0,0,.207,3.1v2.792a2.86,2.86,0,0,1-2.585,1.141c-5.268.044-10.539-.2-15.805.225a54.44,54.44,0,0,0-19.55,5.414c-5.212,2.528-10.205,5.493-15.587,7.68A53.557,53.557,0,0,1,46.866,92.6c-1.125.033-1.772.152-1.547,1.569.2,1.27-.6,2.024-1.916,2.06-1.511.041-3.023.011-4.534.011H2.825c-2.5,0-2.967-.571-2.762-3.065C.675,85.686,1.247,78.192,1.832,70.7c.023-.307-.006-.618-.011-.927A1.792,1.792,0,0,1,1.8,68.747c.186-5.437.645-10.856,1.093-16.275a17.364,17.364,0,0,1,.3-3.346,1.952,1.952,0,0,1,1.939-1.811,3.349,3.349,0,0,1,.347-.022q10.207-.03,20.415.007c1.428.007,1.879.405,2.333,1.78a32.355,32.355,0,0,1,.009,3.482,1.988,1.988,0,0,1-1.984,2.132,1.91,1.91,0,0,1-2.108-1.978c-.061-1.077-.6-1.251-1.5-1.253-.879,0-1.342.224-1.41,1.219a1.924,1.924,0,0,1-2.079,2.012,1.906,1.906,0,0,1-1.992-1.983c-.067-1.072-.6-1.229-1.5-1.254-.992-.028-1.36.327-1.42,1.324A1.877,1.877,0,0,1,12.3,54.7a1.968,1.968,0,0,1-2.122-1.731C9.9,51.5,9.9,51.5,8.268,51.478c-.817-.005-1.152.392-1.183,1.215-.048,1.274-.179,2.548-.312,3.817-.1.957.286,1.276,1.158,1.248.27-.009.542,0,.813,0H36.507c.233,0,.465,0,.7,0,1.324-.038,1.361-.078,1.329-1.391.043-1.316-.233-2.612-.264-3.924a.852.852,0,0,0-.9-.955c-1.594-.161-1.828-.014-2.212,1.591a1.961,1.961,0,0,1-2.094,1.615,1.9,1.9,0,0,1-1.942-1.782,23.591,23.591,0,0,1-.031-3.7c.364-1.4.852-1.861,2.226-1.9q3.308-.083,6.618,0a2.032,2.032,0,0,1,2.27,2.114c.417,4,.635,8.018.971,12.025.136,1.618.181,3.245.407,4.854.068,1.7.065,1.6,1.81,1.551a54.476,54.476,0,0,0,13.719-2.171c1.639-.473,3.217-1.115,4.816-1.7,1.5-.551,2.389-.153,3.054,1.337a21.721,21.721,0,0,1,.051,4.63,2.028,2.028,0,0,1-1.98,1.915,2.139,2.139,0,0,1-2.038-1.739c-.111-.419.17-1.114-.666-1.11-.942,0-2.087.707-2.192,1.374-.086.536-.014,1.083-.058,1.623a2.146,2.146,0,0,1-2.039,2.125A2.181,2.181,0,0,1,56,72.155c-.084-.508.176-1.25-.812-1.2-1.49.07-1.994.4-2.047,1.443a7.989,7.989,0,0,1-.07,1.157,2.028,2.028,0,0,1-4.022-.035,7.611,7.611,0,0,1,0-1.872c-.556.422-1.195.261-1.8.306-3.34-.091-3.331-.023-3.034,3.238.3,3.312.526,6.633.762,9.951.064.89.252,1.767.245,2.658-.007.827.372,1,1.158.992A50.309,50.309,0,0,0,65.75,84.452c4.841-2.1,9.373-4.808,14.129-7.073a57.617,57.617,0,0,1,20.847-5.652c1.391-.1,2.776-.216,4.172-.207,1.511.009,1.673-.182,1.568-1.676a4.491,4.491,0,0,0-.129-.565c-.447-4.428-.749-8.871-1.23-13.3-.048-.441.062-1.038-.534-1.164a3.118,3.118,0,0,0-2.268.109c-.519.311-.264,1-.3,1.521-.1,1.315-.71,2.073-1.808,2.186a2.022,2.022,0,0,1-2.317-2.027c-.068-.555.2-1.325-.874-1.249-1.491.106-1.91.36-1.973,1.393-.021.348,0,.7-.045,1.045a2.131,2.131,0,0,1-2,1.918,2.213,2.213,0,0,1-2.05-1.743c-.107-.418.2-1.12-.634-1.134-1.046-.018-2.153.691-2.234,1.438-.059.539.009,1.086-.065,1.625a2.125,2.125,0,0,1-1.952,1.97,1.962,1.962,0,0,1-2.038-1.7c-.166-1.026-.592-.939-1.33-.622-1.518.651-1.6.723-1.618,2.4a8.227,8.227,0,0,1-.035.929A2.06,2.06,0,0,1,79.2,64.831a1.945,1.945,0,0,1-2.156-1.536c-.192-.68-.4-.739-1.04-.495-1.393.536-2.216,1.347-1.936,2.957a3.627,3.627,0,0,1-.05,1.274,2.133,2.133,0,0,1-2.03,1.751A2.083,2.083,0,0,1,70,66.991a26.259,26.259,0,0,1-.055-3.367c-.221-1.766.639-2.8,2.188-3.532,2.978-1.406,5.876-2.979,8.894-4.306.354-.155.738-.32.732-.8-.005-.411-.306-.491-.644-.5a38.312,38.312,0,0,1-12.3-3.261c-2.431-1.027-4.758-2.264-7.114-3.442-1.413-.707-1.668-1.313-1.372-2.921,1.028-1.288,1.637-1.457,3.078-.74,2.974,1.482,5.944,2.972,9.05,4.164a32.55,32.55,0,0,0,8.184,2.049c1.412.152,1.575.008,1.638-1.315.235-2.348.346-4.707.569-7.055.081-.853-.089-1.263-1-1.21a12.2,12.2,0,0,1-2.649-.32c-.577-.093-.9.082-.949.684a2.892,2.892,0,0,1-.136.683,1.985,1.985,0,0,1-3.872-.129,6.688,6.688,0,0,1-.113-1.5,2.688,2.688,0,0,0-2.478-2.082c-.366.057-.345.362-.432.606-.5,1.406-1.216,1.948-2.329,1.779-1.031-.157-1.668-1.047-1.731-2.422-.012-.271,0-.542-.008-.813a2.682,2.682,0,0,0-2.292-2.614c-.436-.067-.507.2-.648.49-.587,1.185-1.392,1.706-2.308,1.524-1.113-.222-1.682-1.015-1.728-2.411-.009-.272,0-.543-.006-.814a2.724,2.724,0,0,0-2.365-2.527c-.617-.034-.477.5-.6.818a2.086,2.086,0,0,1-2.195,1.526,1.892,1.892,0,0,1-1.748-1.99c.286-2.246-.9-3.052-2.8-3.369-.258-.08-.508-.185-.771-.252-.534-.134-.7.087-.647.607.29,3.036.557,6.075.832,9.113a1.276,1.276,0,0,0,.972,1.148c1.515.585,3.06,1.1,4.535,1.777,1.433.659,1.832,1.585,1.348,2.965-1.038,1.229-1.612,1.4-3.143.762a52.088,52.088,0,0,0-13.163-3.718,79.714,79.714,0,0,0-15.306-.217A99.578,99.578,0,0,0,6.9,42.954c-1.165.291-2.323.615-3.461,1a2.947,2.947,0,0,1-2.257,0"/>
        <path id="Trazado_135393" data-name="Trazado 135393" d="M1.184,43.958c1.6.149,3-.639,4.477-1.035a100.525,100.525,0,0,1,31.007-3.387A48.976,48.976,0,0,1,53.7,43.676c1.515.65,1.94.529,2.907-.661A8.114,8.114,0,0,1,60.521,44.9c-.232,1.582-.045,1.974,1.348,2.671,4.86,2.432,9.711,4.9,15.1,5.991,1.4.283,2.818.438,4.228.652.26.565-.236.671-.545.819-6.252,2.994-12.263,6.507-18.836,8.807A51.957,51.957,0,0,1,48.542,66.6a33.255,33.255,0,0,1-3.94.215,1.834,1.834,0,0,1-1.319-.318q-.469-5.607-.938-11.213c-.164-2.005-.3-4.012-.473-6.016a1.677,1.677,0,0,0-1.818-1.7c-2.245-.022-4.49-.005-6.735-.008a1.806,1.806,0,0,0-1.952,1.729,3.847,3.847,0,0,1-3.415,0,1.9,1.9,0,0,0-2.18-1.739c-6.723.02-13.446,0-20.169.014-1.485,0-2.021.531-2.134,1.981-.079,1-.171,2-.257,3A2.989,2.989,0,0,0,2.2,55.315c.081,4.523-.076,9.042-.324,13.558l-.06.9c-.369-.4-.193-.885-.193-1.327q0-11.531.028-23.059c0-.525.135-1.1-.472-1.429" fill="#93cbd3"/>
        <path id="Trazado_135394" data-name="Trazado 135394" d="M1.634,33.018A54.93,54.93,0,0,0,7.45,30.733a84.727,84.727,0,0,1,9.75-3.344c.683-.195.693.289.663.711-.156,2.194-.384,4.382-.6,6.571-.087.892-.786,1.072-1.492,1.181-2.023.314-4.037.665-6.032,1.132-1.8.422-3.6.892-5.394,1.344-1.19.3-2.2.716-2.489,2.056l-.226.044,0-7.41" fill="#f3d9a6"/>
        <path id="Trazado_135395" data-name="Trazado 135395" d="M7.435,61.583c.385-.024.77-.069,1.155-.069,9.85,0,19.7.012,29.55-.029.95,0,1.218.241,1.286,1.181.552,7.616,1.165,15.227,1.75,22.84.113,1.467.183,2.937.272,4.406.357,1.1-.227,1.333-1.094,1.374-.348.017-.7.016-1.045.016H8.28c-.233,0-.465,0-.7-.006-1.775-.058-2.7-.964-2.556-2.7.435-5.284.791-10.575,1.251-15.857.286-3.277.463-6.562.78-9.837a2.2,2.2,0,0,1,.378-1.314" fill="#f7e6c6"/>
        <path id="Trazado_135396" data-name="Trazado 135396" d="M47.215,71.658a.908.908,0,0,1,.114-.02c1.814-.136,1.814-.136,2,1.689a1.784,1.784,0,0,0,1.738,1.692,1.806,1.806,0,0,0,1.749-1.687c.1-.777-.4-1.78.281-2.28.559-.412,1.5-.258,2.231-.5.92-.3,1.064.083.986.859a3.151,3.151,0,0,0,.037,1.04A1.657,1.657,0,0,0,58,73.833a1.683,1.683,0,0,0,1.732-1.273,1.632,1.632,0,0,0,.059-.342c.1-.911-.419-2.151.209-2.664.833-.682,2.111-.821,3.29-1.224,0,.555-.02,1.016,0,1.475a1.748,1.748,0,0,0,1.717,1.811,1.7,1.7,0,0,0,1.753-1.767c.028-1.545-.027-3.092-.047-4.638-.023-.076-.052-.184-.007-.219a5.853,5.853,0,0,1,3.524-1.536c.012,1.046.01,2.092.04,3.137a1.779,1.779,0,0,0,1.753,1.913,1.651,1.651,0,0,0,1.69-1.93c-.489-2.585.777-3.823,3-4.511a4.731,4.731,0,0,0,.537-.261c0,.455-.028.788.005,1.116a1.775,1.775,0,0,0,1.761,1.669c.906-.016,1.87-.788,1.669-1.712-.636-2.924,1.339-3.564,3.548-4.261,0,.474-.034.917.007,1.353a1.736,1.736,0,0,0,3.464.041,2.871,2.871,0,0,0,.012-.348c.1-2.542.1-2.542,2.639-3.207.254-.066.509-.126.859-.213a15.654,15.654,0,0,0,.009,1.57A1.69,1.69,0,0,0,92.9,59.433a1.764,1.764,0,0,0,1.8-1.627c.127-.811-.438-1.866.293-2.381.6-.421,1.574-.27,2.36-.465.67-.165.926-.016.846.69a5.563,5.563,0,0,0,0,1.161,1.74,1.74,0,0,0,3.469.041c.018-.114-.007-.235.012-.348.11-.663-.373-1.705.252-1.924a9.973,9.973,0,0,1,3.106-.178c.388,0,.329.359.351.616q.6,7.117,1.2,14.237c.314.988-.392.975-1.023,1.053-2.037.253-4.092.234-6.134.452a56.135,56.135,0,0,0-17.2,4.658c-3.96,1.782-7.738,3.918-11.6,5.893A56.8,56.8,0,0,1,50.418,87.5a15.581,15.581,0,0,1-1.859.031c-1.668-.029-2.242-.456-2.454-2.146-.313-2.494-.4-5.011-.6-7.517-.114-1.466-.193-2.936-.342-4.4-.183-1.777.032-1.85,1.479-1.736a1.058,1.058,0,0,0,.568-.077" fill="#f3d9a6"/>
        <path id="Trazado_135397" data-name="Trazado 135397" d="M117.94,19.291c-.609.329-.474.908-.473,1.434q.031,14.988.066,29.975a3.108,3.108,0,0,1-.064.456c-.22-2.582-.453-5.163-.658-7.745-.4-5.022-.776-10.044-1.171-15.065a1.677,1.677,0,0,0-1.805-1.725c-2.286-.025-4.574-.019-6.861,0a1.77,1.77,0,0,0-1.841,1.721,3.84,3.84,0,0,1-3.415,0A1.9,1.9,0,0,0,99.537,26.6c-4.4.024-8.808,0-13.213.015-1.465,0-1.995.543-2.111,2.007-.157,2-.326,4-.489,6-.034,1.015-.742,1.049-1.469.963a31.966,31.966,0,0,1-7.9-1.843A118.2,118.2,0,0,1,61.5,27.263c-1.229-.661-2.482-1.27-3.716-1.919-.314-.165-.791-.192-.781-.722a159.836,159.836,0,0,1,17.975-6.763,61.575,61.575,0,0,1,13.67-3.012,63.831,63.831,0,0,1,17.291,1.491,81.821,81.821,0,0,1,10.4,2.785,4.5,4.5,0,0,0,1.594.168" fill="#93cbd3"/>
        <path id="Trazado_135398" data-name="Trazado 135398" d="M37.912,13.959a1.952,1.952,0,0,0,1.441-1.678,5.716,5.716,0,0,1,4.356,0c.475,4.991.961,9.98,1.421,14.973.254,2.763.465,5.531.7,8.3a1.522,1.522,0,0,1-1.437.176,62.472,62.472,0,0,0-15.007-1.209c-.892.023-1.764.228-2.659.232-2.447.01-3.17-.661-3.112-3.078.043-1.779.285-3.546.46-5.317.344-3.465.644-6.934,1.012-10.4.206-1.934.245-1.915,2.152-1.933,3.559-.034,7.119.093,10.677-.066" fill="#f7e6c6"/>
        <path id="Trazado_135399" data-name="Trazado 135399" d="M88.181,40.64c.346-.024.692-.069,1.039-.069,7.6,0,15.2.012,22.8-.025.851,0,1.091.212,1.153,1.064.56,7.694,1.176,15.383,1.767,23.074.11,1.429.181,2.86.27,4.29.3.976-.162,1.4-1.081,1.363-1.281-.058-2.61.359-3.832-.349q-.586-6.123-1.172-12.247c-.165-1.734-.3-3.471-.473-5.2-.119-1.155-.777-1.666-2.081-1.67A62.389,62.389,0,0,0,87.7,53.589a3.9,3.9,0,0,1-.448.086,1.568,1.568,0,0,1-.3-1.42c.374-3.465.513-6.948.871-10.414a2.053,2.053,0,0,1,.358-1.2" fill="#f7e6c6"/>
        <path id="Trazado_135400" data-name="Trazado 135400" d="M50.492,27.607c.262.059.531.1.785.181,2.222.724,2.221.726,2.235,2.9.008,1.457.622,2.276,1.717,2.294S56.962,32.2,57,30.745c0-.154.017-.307.031-.536a23.963,23.963,0,0,1,3.132,1.468c.355.164.332.474.328.788-.007.62-.009,1.241,0,1.861.02,1.258.677,2.056,1.705,2.081s1.7-.738,1.784-2.005c.01-.153.026-.305.051-.611,1.079.582,2.081,1.142,3.1,1.662.363.185.338.469.338.777,0,.7-.018,1.4,0,2.093a1.739,1.739,0,0,0,1.749,1.894c1.022-.006,1.677-.725,1.735-1.913.013-.268,0-.537,0-.888,1.044.415,2,.818,2.972,1.169.461.166.543.46.525.89a16.723,16.723,0,0,0,.006,1.86A1.7,1.7,0,0,0,76.2,43.009,1.591,1.591,0,0,0,77.9,41.345c-.14-1.471.438-1.509,1.605-1.21a15.238,15.238,0,0,0,3,.328c.59.031.812.192.75.825-.254,2.582-.461,5.17-.686,7.755a1.519,1.519,0,0,1-1.317.258A41.558,41.558,0,0,1,67.717,45.34C63.3,43.272,59.031,40.9,54.546,38.976c-.748-.321-1.535-.538-2.262-.91a2.423,2.423,0,0,1-1.4-1.99c-.287-2.343-.4-4.7-.684-7.045a1.565,1.565,0,0,1,.294-1.424" fill="#f3d9a6"/>
        <path id="Trazado_135401" data-name="Trazado 135401" d="M47.927,19.609c-.225-.7.234-.935.916-1.167A109.161,109.161,0,0,1,65.382,14.41a2.189,2.189,0,0,0,1.985-1.792c.316-1.274.726-2.525,1.034-3.8.157-.651.384-.966,1.145-.938,1.817.067,3.64.049,5.459.006.616-.014.9.176,1.027.776q.432,2.1.944,4.184c.145.586-.055.807-.612.967a198.6,198.6,0,0,0-25.673,9.674c-1.449.644-2.432,0-2.538-1.57-.049-.733-.142-1.464-.226-2.307" fill="#efc77d"/>
        <path id="Trazado_135402" data-name="Trazado 135402" d="M47.215,71.658c-.505.505-1.406-.194-1.775.506-.324.616.137,1.275.173,1.928.216,3.879.453,7.757.888,11.621a1.489,1.489,0,0,0,1.767,1.505A46.734,46.734,0,0,0,64.23,83.812a124.35,124.35,0,0,0,13.006-6.356,61.522,61.522,0,0,1,19.718-6.75c2.857-.425,5.747-.517,8.626-.7.546-.035,1.024-.022,1.014-.747.577,2.545.577,2.552-1.864,2.577-10.5.1-20.172,3.13-29.328,8.125-5.326,2.9-10.7,5.729-16.61,7.348a57.759,57.759,0,0,1-13.069,1.908c-.608.024-.79-.16-.833-.764q-.558-7.824-1.193-15.643c-.069-.826.151-1.1.967-1.067.848.032,1.7-.049,2.551-.081" fill="#efc77e"/>
        <path id="Trazado_135403" data-name="Trazado 135403" d="M27.953,49.283h3.414c.013,1.12.009,2.24.044,3.359A1.722,1.722,0,0,0,33.2,54.487a1.74,1.74,0,0,0,1.7-1.825c.091-1.623.091-1.623,1.76-1.623,1.873,0,1.874,0,1.991,1.871.069,1.116.134,2.233.2,3.349a2.1,2.1,0,0,1-1.539.371q-13.342.01-26.684,0c-2.134,0-2.851-.743-2.856-2.88a3.413,3.413,0,0,1,.595-2.638,3.941,3.941,0,0,1,.456-.065c1.594-.049,1.594-.047,1.644,1.5a1.758,1.758,0,0,0,1.695,1.945,1.666,1.666,0,0,0,1.761-1.958c-.133-1.342.376-1.71,1.585-1.494a1.7,1.7,0,0,0,.578,0c1.087-.2,1.483.177,1.391,1.334-.107,1.338.631,2.125,1.722,2.121s1.822-.8,1.709-2.134c-.1-1.183.343-1.5,1.405-1.321a1.675,1.675,0,0,0,.578,0c1.235-.229,1.7.193,1.57,1.508a1.658,1.658,0,0,0,1.659,1.944c1.069.031,1.768-.721,1.8-1.957.025-1.082.028-2.164.041-3.246" fill="#f7e6c6"/>
        <path id="Trazado_135404" data-name="Trazado 135404" d="M7.435,61.583c-.1,2.923-.431,5.829-.641,8.743-.161,2.226-.341,4.45-.52,6.675-.3,3.755-.582,7.513-.924,11.265-.137,1.5.473,2.718,2.246,2.706,10.841-.079,21.682-.043,32.523-.033.747,0,1.44.035,1.329-1.027.624,2.839.624,2.839-2.16,2.839-11.464,0-22.929-.016-34.393.027-1.057,0-1.284-.265-1.2-1.284C4.32,83.932,4.89,76.366,5.477,68.8c.156-2.007.367-4.012.442-6.022.042-1.118.414-1.55,1.516-1.2" fill="#f3d9a7"/>
        <path id="Trazado_135405" data-name="Trazado 135405" d="M101.718,28.34h3.414c.013,1.12.009,2.24.044,3.36a1.723,1.723,0,0,0,1.787,1.845,1.741,1.741,0,0,0,1.7-1.825c.091-1.624.091-1.624,1.759-1.624,1.874,0,1.875,0,1.992,1.871.069,1.116.134,2.233.2,3.349a2.1,2.1,0,0,1-1.538.369q-9.854.012-19.708,0c-2.13-.006-2.846-.744-2.85-2.881a3.412,3.412,0,0,1,.593-2.636c.23-.023.463-.03.689-.072,1.146-.211,1.544.2,1.441,1.4a1.7,1.7,0,0,0,1.679,2.052c1.1.022,1.851-.76,1.753-2.1-.083-1.125.251-1.567,1.374-1.356a1.662,1.662,0,0,0,.58,0c1.19-.2,1.741.118,1.6,1.487a1.662,1.662,0,0,0,1.759,1.966,1.753,1.753,0,0,0,1.694-1.951c.025-1.085.028-2.169.041-3.254" fill="#f7e6c6"/>
        <path id="Trazado_135406" data-name="Trazado 135406" d="M50.492,27.607c.054,2.932.5,5.831.724,8.75.071.936.838,1.363,1.629,1.632a49.19,49.19,0,0,1,5.831,2.579c3.287,1.621,6.556,3.281,9.885,4.809a36.853,36.853,0,0,0,14.006,3.666c.03,1.767.026,1.8-1.746,1.619a40.087,40.087,0,0,1-13.5-4.295C66,45.725,64.668,45.1,63.383,44.4a2.019,2.019,0,0,0-2.863.5L56.6,43.015c.231-1.348-.044-1.925-1.312-2.442-1.606-.655-3.239-1.245-4.861-1.863-.388-.148-.793-.217-.841-.794-.3-3.58-.628-7.158-.955-10.831a4.355,4.355,0,0,1,1.857.522" fill="#efc77e"/>
        <path id="Trazado_135407" data-name="Trazado 135407" d="M37.912,13.959c-.368.325-.814.182-1.225.184-3.289.012-6.579.022-9.868-.005-.8-.007-1.176.075-1.279,1.083-.4,3.936-.769,7.874-1.133,11.813a53.926,53.926,0,0,0-.448,5.4,1.709,1.709,0,0,0,2,1.944c2.313-.053,4.618-.266,6.938-.242a55.03,55.03,0,0,1,11.9,1.335,6.56,6.56,0,0,0,1.035.08,4.007,4.007,0,0,1,.138,1.873c-7.649-1.912-15.374-1.7-23.109-1.061-.929.077-.819-.335-.764-.909q.648-6.646,1.288-13.293c.24-2.466.509-4.929.72-7.4.055-.635.268-.833.914-.828,4.3.032,8.6.021,12.9.024" fill="#f3d9a6"/>
        <path id="Trazado_135408" data-name="Trazado 135408" d="M70.23,63.456a17.218,17.218,0,0,0-3.516,1.757c-.782-1.226-1.359-1.459-2.7-.916A54.319,54.319,0,0,1,45.06,68.239c-1.806.053-1.8.114-1.777-1.743A53.639,53.639,0,0,0,67,61.374c4.676-2.214,9.309-4.518,13.955-6.793.112-.055.159-.243.236-.369.4.014.909-.184.959.488a1.072,1.072,0,0,1-.7,1.265c-3.18,1.309-6.181,3-9.286,4.465-1.353.639-2.121,1.484-1.937,3.026" fill="#61a9b7"/>
        <path id="Trazado_135409" data-name="Trazado 135409" d="M8.363,51.109a13.615,13.615,0,0,0-.234,2.99c.025,1.591.568,2.16,2.145,2.16H38.847c.039.189.064.381.119.565.287.978-.075,1.225-1.07,1.222q-15.21-.056-30.42,0c-.98,0-1.263-.211-1.11-1.221.219-1.449.274-2.926.366-4.392s.074-1.475,1.631-1.323" fill="#f0d7a4"/>
        <path id="Trazado_135410" data-name="Trazado 135410" d="M28.788,3.668c.021.54.022,1.082.066,1.62a1.739,1.739,0,0,0,3.475.027c.195-1.837.2-1.753,2.032-1.866,1.223-.075,1.585.3,1.493,1.5a1.687,1.687,0,0,0,1.714,2.013c1.079,0,1.715-.73,1.748-2.009.038-1.477.038-1.477,1.573-1.477,1.993,0,2.007,0,2.236,2.006.1.844.12,1.7.178,2.544.228.626-.027.956-.649,1.064a2.007,2.007,0,0,1-.345.042c-4.673.027-9.348.1-14.019-.038-1.6-.048-2.4-1.129-2.273-2.743.018-.231.062-.459.085-.69.232-2.361.26-2.381,2.686-2" fill="#f7e6c6"/>
        <path id="Trazado_135411" data-name="Trazado 135411" d="M89.109,30.166a13.6,13.6,0,0,0-.234,2.988c.025,1.593.566,2.162,2.142,2.162q10.8,0,21.6,0c.039.189.065.381.119.565.287.977-.073,1.227-1.069,1.222q-11.723-.062-23.446,0c-.984,0-1.255-.216-1.1-1.223.221-1.449.272-2.925.363-4.391s.074-1.474,1.631-1.322" fill="#f0d7a4"/>
        <path id="Trazado_135412" data-name="Trazado 135412" d="M28.788,3.668c-.155,0-.309.008-.464.009-1.731.008-1.729.008-1.81,1.776a4.247,4.247,0,0,1-.085.685c-.356,1.7.4,2.639,2.2,2.646,3.749.014,7.5,0,11.247,0,.849,0,1.7-.03,2.549.01.585.028.875-.183.879-.769a28.062,28.062,0,0,1,.4,4.252H39.353c-.362-1.418-.821-1.811-2.25-1.816-3.835-.013-7.671-.032-11.506.015-.874.011-1.119-.166-.987-1.08.25-1.722.35-3.465.515-5.2.028-.295-.04-.712.405-.7,1.087.037,2.192-.259,3.258.165" fill="#f3d9a6"/>
        <path id="Trazado_135413" data-name="Trazado 135413" d="M57.007,24.622c4.656,2.443,9.3,4.909,13.973,7.32a32.667,32.667,0,0,0,11.138,3.351c.634.077,1.332.183,1.606-.666-.288,2.884.332,2.537-2.683,2.205a31.238,31.238,0,0,1-10.591-3.6c-5.092-2.571-9.945-5.6-15.341-7.785a5.888,5.888,0,0,1,1.9-.825" fill="#61a9b7"/>
        <path id="Trazado_135414" data-name="Trazado 135414" d="M1.857,40.385c-.294-1.332.451-1.845,1.6-2.156a88.305,88.305,0,0,1,12.36-2.687c.781-.1,1.164-.391,1.2-1.314.077-2.028.32-4.05.547-6.069.044-.4.135-.683-.359-.769,2.7-.873,2.188-.73,2.017,1.542-.166,2.2-.457,4.386-.612,6.584-.066.946-.3,1.367-1.377,1.507A91.3,91.3,0,0,0,1.857,40.385" fill="#efc77e"/>
        <path id="Trazado_135415" data-name="Trazado 135415" d="M88.181,40.64c-.112,2.941-.359,5.871-.668,8.8-.148,1.406-.176,2.825-.258,4.237a3.6,3.6,0,0,1-1.51.467c.228-3.051.451-6.055.678-9.059.082-1.082.245-2.162.246-3.244,0-1.122.408-1.554,1.512-1.2" fill="#f2d9a6"/>
        <path id="Trazado_135416" data-name="Trazado 135416" d="M1.881,68.873c-.01-5.111,0-10.223-.049-15.333-.012-1.14,1-.566,1.38-1q-.6,7.948-1.2,15.895a2.229,2.229,0,0,1-.129.438" fill="#67acb9"/>
        <path id="Trazado_135417" data-name="Trazado 135417" d="M110.3,69.988c1.273,0,2.548-.051,3.817.021.821.046,1.123-.273,1.1-1.035a.864.864,0,0,1,.1.208c.4,2.628.4,2.629-2.224,2.629h-1.039c-1.766,0-1.766,0-1.746-1.823" fill="#efd6a4"/>
        <path id="Trazado_135418" data-name="Trazado 135418" d="M10.466,75.27c0-.543-.026-1.087,0-1.628a1.753,1.753,0,0,1,1.759-1.781,1.721,1.721,0,0,1,1.708,1.708c.048,1.2.053,2.4,0,3.6a1.7,1.7,0,0,1-1.749,1.658,1.726,1.726,0,0,1-1.711-1.7c-.041-.617-.008-1.24-.009-1.86" fill="#010100"/>
        <path id="Trazado_135419" data-name="Trazado 135419" d="M17.456,75.3a15.362,15.362,0,0,1,.013-1.859,1.624,1.624,0,0,1,1.712-1.562A1.585,1.585,0,0,1,20.9,73.425a27.269,27.269,0,0,1,0,3.835,1.582,1.582,0,0,1-1.7,1.557,1.612,1.612,0,0,1-1.721-1.544,15.665,15.665,0,0,1-.017-1.975" fill="#010100"/>
        <path id="Trazado_135420" data-name="Trazado 135420" d="M27.911,75.443c0,.543.028,1.087,0,1.628a1.734,1.734,0,0,1-1.774,1.758,1.709,1.709,0,0,1-1.694-1.714c-.045-1.162-.043-2.327,0-3.489a1.734,1.734,0,1,1,3.467-.043c.04.617.007,1.24.008,1.86" fill="#010100"/>
        <path id="Trazado_135421" data-name="Trazado 135421" d="M34.891,75.427c0,.582.037,1.166-.009,1.744A1.723,1.723,0,0,1,33.13,78.83a1.705,1.705,0,0,1-1.709-1.7c-.047-1.2-.051-2.405,0-3.6A1.715,1.715,0,0,1,33.17,71.86a1.744,1.744,0,0,1,1.714,1.707c.042.617.008,1.24.007,1.86" fill="#010100"/>
        <path id="Trazado_135422" data-name="Trazado 135422" d="M35.843,22.594a7.691,7.691,0,0,1,.014-1.392,1.624,1.624,0,0,1,1.777-1.479,1.605,1.605,0,0,1,1.66,1.6,17.262,17.262,0,0,1,.011,2.439,1.736,1.736,0,1,1-3.471-.01c-.028-.385-.005-.775-.005-1.162h.014" fill="#010101"/>
        <path id="Trazado_135423" data-name="Trazado 135423" d="M32.331,22.6c0,.426.034.856-.009,1.278A1.726,1.726,0,0,1,30.536,25.5a1.67,1.67,0,0,1-1.67-1.62,18.379,18.379,0,0,1-.009-2.439,1.736,1.736,0,0,1,3.471-.007c.028.385.005.775,0,1.162" fill="#010101"/>
      </g>
    </g>
  </g>
</svg>
