<svg xmlns="http://www.w3.org/2000/svg" xmlns:xlink="http://www.w3.org/1999/xlink" width="190" height="115" viewBox="0 0 190 115">
  <defs>
    <clipPath id="clip-path">
      <rect id="Rect치ngulo_38058" data-name="Rect치ngulo 38058" width="71.935" height="96.905" fill="none"/>
    </clipPath>
  </defs>
  <g id="Grupo_158885" data-name="Grupo 158885" transform="translate(11442 3326)">
    <rect id="Rect치ngulo_37703" data-name="Rect치ngulo 37703" width="190" height="115" transform="translate(-11442 -3326)" fill="#ff9fa3"/>
    <g id="Grupo_158884" data-name="Grupo 158884" transform="translate(-11383 -3317)">
      <g id="Grupo_158883" data-name="Grupo 158883" transform="translate(0 0)" clip-path="url(#clip-path)">
        <path id="Trazado_135424" data-name="Trazado 135424" d="M50.544,96.9a4.9,4.9,0,0,1-3.21-3.753c-.382-1.426-.683-2.879-1.152-4.275-.61-1.823-1.547-2.279-3.414-1.881a17.028,17.028,0,0,1-6.063.664,5.1,5.1,0,0,1-4.353-3.292,1.132,1.132,0,0,0-.725-.764,3.723,3.723,0,0,1-2.487-2.959c-.065-.326-.077-.642-.51-.808a3.473,3.473,0,0,1-2.147-2.679A1.714,1.714,0,0,0,25.633,76a34.454,34.454,0,0,0-7.919-3.464,1.009,1.009,0,0,0-1.111.227,3.341,3.341,0,0,1-3.776.565,9.77,9.77,0,0,1-2.533-1.618c-.951-.777-1.893-1.565-2.862-2.319a4.552,4.552,0,0,0-2.493-1.021,4.127,4.127,0,0,1-2.43-1.344A7.735,7.735,0,0,1,.137,63.565a2.471,2.471,0,0,1,.3-2.259,2.417,2.417,0,0,0,.5-1.8,2.984,2.984,0,0,1,1.93-3.054,6.749,6.749,0,0,1,2.658-.583,2.361,2.361,0,0,0,2.041-1.148,8.25,8.25,0,0,0,1.382-5.559c-.14-1.515.094-1.921,1.46-2.6a2.551,2.551,0,0,1,1.65-.243q25.635-.009,51.269.024a2.288,2.288,0,0,0,2.508-1.466c.288-.693.728-1.327,1.011-2.029.591-1.471.161-2.378-1.377-2.8a18.52,18.52,0,0,0-3.752-.378C60.8,39.6,59.9,39.5,58.992,39.38a4.4,4.4,0,0,1-3.249-2.05,17.133,17.133,0,0,0-1.152-1.5,5.552,5.552,0,0,0-3.809-2.052,29.775,29.775,0,0,1-7.388-1.533c-2.494-.956-4.367-2.5-4.925-5.27a9.8,9.8,0,0,1-.111-1.885,2.089,2.089,0,0,0-.986-1.819c-2.637-1.848-3.4-4.171-2.368-7.247a15.573,15.573,0,0,1,5.047-6.84,14.726,14.726,0,0,1,6.566-3.4c.692-.142.571-.473.2-.819a3.322,3.322,0,0,0-3.347-.744,9.622,9.622,0,0,0-4.119,2.245A17.478,17.478,0,0,1,32.7,10.128c-1.788.621-3.61,1.128-5.423,1.667a2.129,2.129,0,0,0-1.57,1.573,15.089,15.089,0,0,1-3.713,6.4,2.178,2.178,0,0,1-.882.7,4,4,0,0,0-2.317,2.063,6.567,6.567,0,0,1-4.767,3.085,3.071,3.071,0,0,0-2.062,1.224,5.666,5.666,0,0,0-1.344,4.206,1.822,1.822,0,0,1-1.54,2.191c-1.539.2-2.291-.38-2.489-1.937-.522-4.08,2.5-8.9,6.2-9.54A4.322,4.322,0,0,0,16.115,19.2a12.764,12.764,0,0,1,.663-1.141c.354-.537.826-1.14,1.44-1.131,1.273.021,1.7-.876,2.231-1.7a10.536,10.536,0,0,0,1.415-3.175,5.366,5.366,0,0,1,4.2-4.116A67.12,67.12,0,0,0,32.973,5.7,11.814,11.814,0,0,0,36.506,3.58a13.8,13.8,0,0,1,7-3.494,6.93,6.93,0,0,1,7.889,5.057,3.406,3.406,0,0,1-2.8,4.431c-4.039.5-6.7,2.935-8.922,6.05a6.258,6.258,0,0,0-.988,2.231,1.59,1.59,0,0,0,.831,2c2.055,1.015,2.777,2.785,2.867,4.944.106,2.536.436,2.964,2.823,3.8a20.764,20.764,0,0,0,5.45,1.075,10.118,10.118,0,0,1,7.969,4.752,2.21,2.21,0,0,0,1.815,1.094c1.821.136,3.653.155,5.461.452,3.465.568,5.548,3.03,5.251,6.244a8.082,8.082,0,0,1-1.482,4.033,2.88,2.88,0,0,0-.191,3.313,12.1,12.1,0,0,1,.981,2.645,3.6,3.6,0,0,1-.423,2.9,1.269,1.269,0,0,0-.039,1.243c.55,1.6,1.345,3.112,1.763,4.769,1.1,4.368-3.136,6.367-5.945,5.367a17.3,17.3,0,0,1-3.453-1.916,4.294,4.294,0,0,0-1.611-.754c-.532-.083-.847-.008-.59.7a6.855,6.855,0,0,1,.477,3.881,4.137,4.137,0,0,1-2.97,3.34c-.241.074-.482.144-.722.218-.761.236-1,.68-.614,1.428a12.763,12.763,0,0,1,1.3,3.626,7.049,7.049,0,0,1-.258,4.091,14.816,14.816,0,0,0-.876,7.328,16.078,16.078,0,0,1-.027,3.773,4.946,4.946,0,0,1-4.014,4.544c-.078.018-.139.105-.208.159Z" transform="translate(0 0)"/>
        <path id="Trazado_135425" data-name="Trazado 135425" d="M7.693,32.657A2.039,2.039,0,0,0,8.955,30.3a5.879,5.879,0,0,1,2.375-5.094,1.7,1.7,0,0,1,.947-.4c2.56-.176,4.192-1.705,5.419-3.773A2.044,2.044,0,0,1,19.047,19.9a4.075,4.075,0,0,0,2.11-1.671,15.738,15.738,0,0,0,2.968-5.749,1.913,1.913,0,0,1,1.5-1.476,61.257,61.257,0,0,0,8.66-2.928,11.957,11.957,0,0,0,2.988-1.958,11.185,11.185,0,0,1,4.962-2.8A3.168,3.168,0,0,1,46.2,5.212a17.2,17.2,0,0,0-11.81,9.062,7.609,7.609,0,0,0-.9,2.867,5.073,5.073,0,0,0,2.719,5.37,1.705,1.705,0,0,1,.982,1.577,19.112,19.112,0,0,0,.107,1.982c.391,2.882,2.287,4.421,4.839,5.374a25.863,25.863,0,0,0,6.914,1.436,5.9,5.9,0,0,1,4.9,2.941c1.295,2.273,3.286,2.848,5.618,2.962a29,29,0,0,1,4.421.384c1.885.385,2.376,1.334,1.743,3.162-.426,1.232-1.31,2.222-1.776,3.43-.09.233-.258.235-.45.235-.221,0-.441,0-.662,0H9.588c-.189,0-.378-.008-.567-.014q.106-2.344.215-4.689c.153-.27.446-.333.7-.452a1.5,1.5,0,0,0,.949-1.485,1.534,1.534,0,0,0-1.049-1.515c-.228-.092-.487-.144-.621-.391a12.937,12.937,0,0,0-.849-3.8,2,2,0,0,0-.669-.986" transform="translate(1.387 0.578)" fill="#fec044"/>
        <path id="Trazado_135426" data-name="Trazado 135426" d="M9.256,32.215c1.289.215,1.92.818,1.945,1.859.028,1.093-.581,1.721-1.92,1.984-1.229-.326-1.831-.951-1.839-1.912s.6-1.61,1.814-1.931" transform="translate(1.341 5.807)" fill="#010101"/>
        <path id="Trazado_135427" data-name="Trazado 135427" d="M38.764,42.667c8.448,0,16.9.009,25.345-.018.734,0,1.193.137,1.37.9a5.431,5.431,0,0,0,.438,1.041,1.3,1.3,0,0,1-.076,1.392,4.154,4.154,0,0,0-.091,3.737c.5,1.425,1.076,2.818,1.595,4.235.133.362.4.8-.025,1.124a1.113,1.113,0,0,1-1.258,0c-.954-.549-1.873-1.158-2.82-1.721a5.566,5.566,0,0,0-5.566-.522,3.3,3.3,0,0,0-2.006,4.248c.177.7.428,1.382.61,2.082s.03,1.223-.786,1.419a4.68,4.68,0,0,0-2.46,1.321,1.017,1.017,0,0,1-.869.247q-15.369,0-30.736.008a5.006,5.006,0,0,1-1.629-.431,19.929,19.929,0,0,0-3-.814,2.757,2.757,0,0,0-2.982.9c-.3.408-.531.191-.77,0-1.011-.8-2.006-1.626-3.018-2.429A9.893,9.893,0,0,0,5.2,56.962c-.8-.107-1.206-.858-1.679-1.438-.192-.236.083-.389.191-.561A2.969,2.969,0,0,0,4.2,52.713c-.111-.522.084-.723.539-.729a6.024,6.024,0,0,0,4.765-2.108,10.758,10.758,0,0,0,2.54-6.187c.077-.893.381-1.041,1.183-1.039,8.511.027,17.022.017,25.534.017" transform="translate(0.623 7.688)" fill="#60a3fe"/>
        <path id="Trazado_135428" data-name="Trazado 135428" d="M24.418,62.387h.964c7.251,0,14.5.008,21.753-.014.62,0,.968.109,1.13.774a9.416,9.416,0,0,0,.69,1.547,5.616,5.616,0,0,1,.185,4.747c-1.086,2.509-1.01,5.161-.831,7.816a12.851,12.851,0,0,1-.035,3.392,1.579,1.579,0,0,1-.309.778c-.523.6-1.054.516-1.269-.24-.4-1.39-.711-2.805-1.114-4.193-1.2-4.14-4.205-5.868-8.4-4.865a20.339,20.339,0,0,1-3.438.594c-1.573.1-2.111-.269-2.479-1.783a2.5,2.5,0,0,0-2.093-1.924.912.912,0,0,1-.82-1.037c-.032-1.71-.513-2.323-2.119-2.758-.36-.1-.539-.238-.58-.61a3.573,3.573,0,0,0-1.236-2.222" transform="translate(4.401 11.243)" fill="#fe5a58"/>
      </g>
    </g>
  </g>
</svg>
