<svg xmlns="http://www.w3.org/2000/svg" xmlns:xlink="http://www.w3.org/1999/xlink" width="190" height="158" viewBox="0 0 190 158">
  <defs>
    <clipPath id="clip-path">
      <rect id="Rect치ngulo_38062" data-name="Rect치ngulo 38062" width="120" height="119.919" fill="none"/>
    </clipPath>
  </defs>
  <g id="Grupo_158897" data-name="Grupo 158897" transform="translate(11073 3001)">
    <rect id="Rect치ngulo_37704" data-name="Rect치ngulo 37704" width="190" height="158" transform="translate(-11073 -3001)" fill="#ff9fa3"/>
    <g id="Grupo_158896" data-name="Grupo 158896" transform="translate(-11038 -2982)">
      <g id="Grupo_158895" data-name="Grupo 158895" clip-path="url(#clip-path)">
        <path id="Trazado_135472" data-name="Trazado 135472" d="M0,58.745a20.6,20.6,0,0,0,.881-4.1A165.752,165.752,0,0,1,11.728,22.437a7.106,7.106,0,0,1,2.31-3.107A2.039,2.039,0,0,0,14.7,18.1,142.322,142.322,0,0,1,20.273,3.991C21.383,1.519,23.2.019,25.932,0a5.878,5.878,0,0,1,5.653,3.816A133.07,133.07,0,0,1,41.533,33.81a23.123,23.123,0,0,1,.052,8.516c-.12.672-.15.93.67.775a30.081,30.081,0,0,1,3.19-.358c.609-.049.772-.268.69-.9a13.967,13.967,0,0,1,27.588-4.348A11.361,11.361,0,0,1,73.8,41.64c-.156.874.185,1.1.975,1.142,1.028.055,2.052.2,3.072.336.4.055.617.03.53-.455-1.462-8.176,1.489-15.648,3.8-23.193A116.5,116.5,0,0,1,88.269,3.907C89.409,1.494,91.21.034,93.882.017,96.61,0,98.465,1.465,99.587,3.943c4.471,9.869,8.153,20,10.015,30.712a19.949,19.949,0,0,1-2.39,13.874c-.39.668-.344.846.461,1.023,3.409.751,6.848,1.306,10.3,1.781,1.377.189,2.111.945,2.018,2.132a2.017,2.017,0,0,1-2.465,1.8,107.841,107.841,0,0,1-13.1-2.308,1.729,1.729,0,0,0-1.532.262,12.432,12.432,0,0,1-2.6,1.408c-.779.282-.888.709-.846,1.416a15.328,15.328,0,0,0,2.152,6.843,1.918,1.918,0,0,1-.705,2.775,2.026,2.026,0,0,1-2.783-.77c-.2-.3-.365-.611-.547-.917A3.458,3.458,0,0,1,96.39,62.1,18.484,18.484,0,0,1,95.2,57.284c-.071-.611-.165-1.073-.978-.972-.7.088-1.486-.232-1.611.968a17.565,17.565,0,0,1-1.447,5.477,2.143,2.143,0,0,1-.9,1.2c-.169.268-.332.539-.505.8a2.017,2.017,0,0,1-2.836.879,1.966,1.966,0,0,1-.605-2.893A15.243,15.243,0,0,0,88.4,56.01a1.189,1.189,0,0,0-.88-1.39A14.3,14.3,0,0,1,80.4,48.237a1.571,1.571,0,0,0-1.362-.93c-2.129-.212-4.25-.489-6.373-.752a1.094,1.094,0,0,0-1.073.3,26.629,26.629,0,0,0-4.974,6.771c-1.763,3.8-.923,6.34,2.96,7.937,4.055,1.667,8.234,3.028,12.342,4.566A79.085,79.085,0,0,1,98.37,73.982a22.945,22.945,0,0,1,5.317,4.719,10.365,10.365,0,0,1,.587,12.98,29.041,29.041,0,0,1-8.09,7.615c-4.612,3.18-9.669,5.54-14.673,8A86.566,86.566,0,0,0,64.788,118.1a7.69,7.69,0,0,1-5.127,1.814q-22.731-.04-45.462-.017c-2.951,0-4.773-1.894-4.468-4.587a4.491,4.491,0,0,1,.962-2.136c5.432-7.511,12.652-12.8,20.9-16.8,7.717-3.745,15.891-6.214,24.1-8.576a58.65,58.65,0,0,0,8.84-3.417c1.5-.711,1.528-1.029.135-2.009a52.46,52.46,0,0,0-5.543-3.207,116.279,116.279,0,0,1-12.065-6.854A24.024,24.024,0,0,1,42.61,68.4,9.547,9.547,0,0,1,41.42,56.741,24.66,24.66,0,0,1,49,48.976c1.317-.94,2.7-1.795,4.2-2.786-.6,0-1.081-.027-1.555,0q-5.461.353-10.878,1.135a1.3,1.3,0,0,0-1.118.718,13.24,13.24,0,0,1-4.275,4.865c-.788.53-.407,1.11-.291,1.66A29.838,29.838,0,0,1,35.5,66.6c-1.327,6.818-4.787,11.9-11.563,14.284-.694.244-.655.672-.6,1.188a16.843,16.843,0,0,0,2.324,6.8,1.918,1.918,0,0,1-.612,2.711,2.053,2.053,0,0,1-2.821-.638c-.226-.325-.41-.677-.613-1.016-1.1-.926-1.348-2.3-1.8-3.543a12.617,12.617,0,0,1-.67-3.127c-.063-.667-.347-1.092-1.118-1.108a1.074,1.074,0,0,0-1.238,1.11A16.955,16.955,0,0,1,15.332,88.5a2.731,2.731,0,0,1-1.008,1.428c-.149.233-.3.466-.447.7-.789,1.248-1.826,1.608-2.882,1s-1.3-1.713-.562-2.979a17.722,17.722,0,0,0,2.119-5.877,1.61,1.61,0,0,0-1.2-2.158c-6.308-2.488-9.6-7.43-10.889-13.906A4.644,4.644,0,0,0,0,64.7Z" transform="translate(0 0)"/>
        <path id="Trazado_135473" data-name="Trazado 135473" d="M77.556,56.088a18.968,18.968,0,0,0,2.1-7.33c.041-.6.268-.709.8-.689,2.175.08,2.205.062,2.5,2.217a18.926,18.926,0,0,0,1.9,5.809l-7.306-.007" transform="translate(12.705 7.874)" fill="#9f522d"/>
        <path id="Trazado_135474" data-name="Trazado 135474" d="M12.308,78.4a18.985,18.985,0,0,0,2.2-7.064c.083-1.067.715-1,1.457-1s1.383-.076,1.463.99a18.881,18.881,0,0,0,2.18,7.071l-7.3,0" transform="translate(2.016 11.524)" fill="#9f522d"/>
        <path id="Trazado_135475" data-name="Trazado 135475" d="M45.482,19.918a2.041,2.041,0,0,1-1.337,2.175,1.759,1.759,0,0,1-2.211-.656,39.565,39.565,0,0,1-2.292-4,1.735,1.735,0,0,1,.628-2.215,1.665,1.665,0,0,1,2.2-.137c1.536,1.358,2.246,3.262,3.015,4.837" transform="translate(6.464 2.412)" fill="#010101"/>
        <path id="Trazado_135476" data-name="Trazado 135476" d="M53.772,16.024c0,.711.04,1.425-.012,2.131a1.909,1.909,0,0,1-1.837,1.819,1.852,1.852,0,0,1-2.037-1.583,19.3,19.3,0,0,1-.013-4.72,1.881,1.881,0,0,1,2.1-1.649,1.933,1.933,0,0,1,1.789,1.871c.043.708.008,1.42.007,2.131" transform="translate(8.148 1.968)" fill="#010101"/>
        <path id="Trazado_135477" data-name="Trazado 135477" d="M60.462,22.226a1.967,1.967,0,0,1-1.905-2.736A32.13,32.13,0,0,1,60.8,15.6a1.9,1.9,0,0,1,2.524-.58,1.875,1.875,0,0,1,.895,2.431c-.7,1.408-1.535,2.75-2.37,4.084a1.768,1.768,0,0,1-1.386.688" transform="translate(9.564 2.421)"/>
        <path id="Trazado_135478" data-name="Trazado 135478" d="M56.6,109.376c-1.7.014-3.409.038-5.114.04-13.167,0-26.335,0-39.585,0a3.645,3.645,0,0,1,.974-1.569,49.092,49.092,0,0,1,15.9-12.981c7.579-4.065,15.706-6.675,23.929-9.014a69.871,69.871,0,0,0,12.3-4.645c3.325-1.669,3.827-4.975,1.161-7.566a23.9,23.9,0,0,0-5.319-3.553c-4.433-2.445-9.086-4.5-13.271-7.384a18.822,18.822,0,0,1-3.853-3.337c-2.052-2.456-2.253-4.66-.633-7.424a17.217,17.217,0,0,1,4.22-4.639,57.088,57.088,0,0,1,12.929-7.661c.376-.145.871-.275,1.086.052.272.414-.143.818-.412,1.134a23.554,23.554,0,0,0-3.973,6.013c-.955,2.247-1.22,4.5.073,6.713a7.671,7.671,0,0,0,3.616,2.967c1.5.691,3.064,1.25,4.567,1.946l14.991,5.6c2.125,1.118,4.42,1.885,6.478,3.141,3.287,2.005,6.569,4.014,8.641,7.437a8.239,8.239,0,0,1-.127,9.1c-1.923,3.2-4.762,5.486-7.785,7.56A82.322,82.322,0,0,1,75.586,97.9,91.717,91.717,0,0,0,58.3,108.29a6.7,6.7,0,0,1-1.695,1.086" transform="translate(1.95 6.469)" fill="#feea3a"/>
        <path id="Trazado_135479" data-name="Trazado 135479" d="M31.379,58.67c-.059,4.045-.85,7.893-3.391,11.163-3.3,4.248-7.824,5.52-12.934,4.786-4.921-.706-8.262-3.611-10.139-8.174C3,61.787,3.146,57,4.236,52.194a158.814,158.814,0,0,1,10.651-31.3,3.311,3.311,0,0,1,1.23-1.561,2.564,2.564,0,0,1,3.73,1.343,107.219,107.219,0,0,1,4.193,9.954,141.713,141.713,0,0,1,6.922,23.548,20.688,20.688,0,0,1,.415,4.491" transform="translate(0.563 3.105)" fill="#a3c300"/>
        <path id="Trazado_135480" data-name="Trazado 135480" d="M84.175,50.992c-7.353.868-12.711-3.494-13.6-10.867-.544-4.506.567-8.738,1.7-12.982A139.986,139.986,0,0,1,79.682,6.236c.208-.469.468-.916.7-1.372.935.066,1.016.911,1.287,1.509C83,9.3,84.151,12.3,85.221,15.327a116.826,116.826,0,0,1,5.111,18.06A20.407,20.407,0,0,1,89.3,44.839c-1.037,2.578-2.5,4.868-5.123,6.153" transform="translate(11.538 0.797)" fill="#a3c300"/>
        <path id="Trazado_135481" data-name="Trazado 135481" d="M35.342,38.152a14.828,14.828,0,0,1-3.451,9.487c-.216.254-.363.709-.767.6-.332-.091-.272-.542-.353-.833a178.006,178.006,0,0,0-9.025-25.1c-1.015-2.289-2.351-4.127-4.894-4.775-.492-.126-.526-.328-.376-.753A117.946,117.946,0,0,1,21.545,4.488a1.814,1.814,0,0,1,1.732-1.054A2.071,2.071,0,0,1,25.188,4.8a107.142,107.142,0,0,1,4.36,10.523A120.632,120.632,0,0,1,34.834,33.4c.32,1.641.361,3.3.507,4.747" transform="translate(2.686 0.563)" fill="#60a817"/>
        <path id="Trazado_135482" data-name="Trazado 135482" d="M82.773,51.223a17.072,17.072,0,0,0,3.983-4.475,18.356,18.356,0,0,0,1.97-6.031c.86-5.362-.748-10.382-2.129-15.431a147.764,147.764,0,0,0-6.524-18.4,3.457,3.457,0,0,0-1.089-1.792,2.051,2.051,0,0,1,1.94-1.637,2.126,2.126,0,0,1,2.054,1.516A127.318,127.318,0,0,1,92.69,34.423,15.655,15.655,0,0,1,90.364,46.69a10.259,10.259,0,0,1-7.59,4.533" transform="translate(12.939 0.566)" fill="#8fab00"/>
        <path id="Trazado_135483" data-name="Trazado 135483" d="M58.683,37.825c-3.8.014-7.608.016-11.411.05a21.156,21.156,0,0,0-2.963.2c-.874.133-1.17-.19-1.3-1.011-.993-6.192,4.767-12.122,10.956-11.251a.738.738,0,0,1,.211.1,11.875,11.875,0,0,1,5.046,10.516,1.8,1.8,0,0,1-.538,1.4" transform="translate(7.027 4.214)" fill="#fedb00"/>
        <path id="Trazado_135484" data-name="Trazado 135484" d="M50.313,105.916a24.282,24.282,0,0,1,3.988-3.135,102.081,102.081,0,0,1,16.257-9.248A59.8,59.8,0,0,0,84.615,84.8c2.513-2.186,4.736-4.645,5.311-8.179a7.9,7.9,0,0,0-1.976-6.457c-3.276-4.04-7.774-6.366-12.37-8.528-.59-.278-1.293-.4-1.676-1.026A65.652,65.652,0,0,1,88.666,67.89a16.3,16.3,0,0,1,4.044,3.824,6.191,6.191,0,0,1,.267,7.436A22.918,22.918,0,0,1,86.3,85.67a76.958,76.958,0,0,1-11.991,6.751,93.166,93.166,0,0,0-19.75,12.228,5.05,5.05,0,0,1-4.248,1.266" transform="translate(8.242 9.929)" fill="#fedb00"/>
        <path id="Trazado_135485" data-name="Trazado 135485" d="M59.021,58.476a18.561,18.561,0,0,1-7.061-3.14c-2.55-2.024-2.906-5.426-1.483-8.627a22.21,22.21,0,0,1,3.821-5.8c.284-.318.511-.688.773-1.045-.315-.364-.694-.133-1.008-.212a15.208,15.208,0,0,1,4.627-.033,40.54,40.54,0,0,0-2.958,4.213,12.853,12.853,0,0,0-2.091,6.829,8.139,8.139,0,0,0,3.524,6.555c.6.446,1.236.841,1.856,1.26" transform="translate(8.133 6.462)" fill="#fedb00"/>
        <path id="Trazado_135486" data-name="Trazado 135486" d="M57.1,37.8a11.439,11.439,0,0,0-3.351-10.584,4.29,4.29,0,0,1-1.158-1.329c5.382.32,9.759,6.2,8.583,11.492-.126.568-.372.7-.883.66-1.063-.092-2.127-.161-3.191-.239" transform="translate(8.615 4.241)" fill="#fdc008"/>
        <path id="Trazado_135487" data-name="Trazado 135487" d="M50.264,84.389a1.92,1.92,0,1,1-1.874-1.995,1.887,1.887,0,0,1,1.874,1.995" transform="translate(7.606 13.498)" fill="#fe9801"/>
        <path id="Trazado_135488" data-name="Trazado 135488" d="M72.364,65.216a2.015,2.015,0,1,1-1.982,2.019,2.185,2.185,0,0,1,1.982-2.019" transform="translate(11.53 10.684)" fill="#fe9801"/>
        <path id="Trazado_135489" data-name="Trazado 135489" d="M80.874,68.685A2.011,2.011,0,1,1,80.9,72.7a2.215,2.215,0,0,1-1.931-1.947,2.169,2.169,0,0,1,1.9-2.069" transform="translate(12.937 11.252)" fill="#fe9801"/>
        <path id="Trazado_135490" data-name="Trazado 135490" d="M43.2,51.5a1.882,1.882,0,0,1,1.938,1.948,2.16,2.16,0,0,1-1.878,2.072A1.886,1.886,0,0,1,41.3,53.464,1.862,1.862,0,0,1,43.2,51.5" transform="translate(6.766 8.437)" fill="#fe9801"/>
        <path id="Trazado_135491" data-name="Trazado 135491" d="M72.2,72.431a1.952,1.952,0,0,1,1.945-2.083,2.162,2.162,0,0,1,1.89,2.058,1.918,1.918,0,1,1-3.835.026" transform="translate(11.828 11.524)" fill="#fe9801"/>
        <path id="Trazado_135492" data-name="Trazado 135492" d="M50.264,94.716a1.918,1.918,0,1,1-3.836-.016,1.918,1.918,0,0,1,3.836.016" transform="translate(7.606 15.203)" fill="#fe9801"/>
        <path id="Trazado_135493" data-name="Trazado 135493" d="M6.957,54.139c0-.4-.02-.793,0-1.187a1.837,1.837,0,0,1,1.895-1.861,1.875,1.875,0,0,1,1.917,1.847c.209,1.948.192,3.935,1.159,5.742a5.058,5.058,0,0,0,4.433,2.882C17.9,61.646,19,62.626,18.849,63.8c-.165,1.235-1.558,1.948-3.029,1.738a9.109,9.109,0,0,1-6.1-3.032,12.572,12.572,0,0,1-2.761-8.363" transform="translate(1.138 8.37)" fill="#8fab00"/>
        <path id="Trazado_135494" data-name="Trazado 135494" d="M83.852,40.975a2.181,2.181,0,0,1-2.264,1.975c-4.44-.528-6.347-2.3-7.439-6.678a10.115,10.115,0,0,1-.3-3.287A2.377,2.377,0,0,1,75.6,30.86,2.107,2.107,0,0,1,77.815,32.6c.235.959.062,1.948.283,2.933.528,2.354,1.442,3.244,3.825,3.4a2.245,2.245,0,0,1,1.928,2.044" transform="translate(12.093 5.053)" fill="#8fab00"/>
      </g>
    </g>
  </g>
</svg>
