<svg xmlns="http://www.w3.org/2000/svg" xmlns:xlink="http://www.w3.org/1999/xlink" width="190" height="139" viewBox="0 0 190 139">
  <defs>
    <clipPath id="clip-path">
      <rect id="Rect치ngulo_38060" data-name="Rect치ngulo 38060" width="100.246" height="121.762" fill="none"/>
    </clipPath>
  </defs>
  <g id="Grupo_158891" data-name="Grupo 158891" transform="translate(11073 2819)">
    <rect id="Rect치ngulo_37705" data-name="Rect치ngulo 37705" width="190" height="139" transform="translate(-11073 -2819)" fill="#ff9fa3"/>
    <g id="Grupo_158890" data-name="Grupo 158890" transform="translate(-11028 -2810)">
      <g id="Grupo_158889" data-name="Grupo 158889" transform="translate(0 0)" clip-path="url(#clip-path)">
        <path id="Trazado_135445" data-name="Trazado 135445" d="M75.185,9.822a2.122,2.122,0,0,1-2-.4,47.1,47.1,0,0,0-14.95-5.758C38.523-.412,17.464,9.645,8.173,27.549A47.541,47.541,0,0,0,2.742,49.775c0,6.969-.034,13.939.008,20.908A46.524,46.524,0,1,0,95.8,70.64c.038-7.048.077-14.1-.007-21.146A46.276,46.276,0,0,0,80.657,15c-.144-.135-.294-.265-.433-.405-.927-.932-1.021-1.917-.262-2.706a2.047,2.047,0,0,1,.334-.277,46.932,46.932,0,0,1-4.024-3.9,1.7,1.7,0,0,1,.059.585,1.721,1.721,0,0,1-1.146,1.528M88.04,42.68a39.046,39.046,0,0,1,.585,6.85c-.042,8,.4,16.012-.176,23.989-.994,13.667-7.524,24.23-19.276,31.155A39.217,39.217,0,0,1,11.185,80.645,40.7,40.7,0,0,1,9.915,70.311c-.016-3.405,0-6.811,0-11.05.088-3.678-.2-8.2.149-12.7a38.45,38.45,0,0,1,14.393-27.7A38.065,38.065,0,0,1,50.108,9.989,39.348,39.348,0,0,1,88.04,42.68" transform="translate(0.849 0.86)" fill="#cfe1e6"/>
        <path id="Trazado_135446" data-name="Trazado 135446" d="M100.205,50.209A49.882,49.882,0,0,0,86.993,16.315c-1.109-1.233-2.33-2.371-3.551-3.5a1.775,1.775,0,0,0-2.3-.345c.115.1.222.208.338.307-.9.451-1.037,1.479-.249,2.376.965,1.1,2.1,2.025,3.1,3.1A46.312,46.312,0,0,1,96.522,43.9a49.626,49.626,0,0,1,.492,7.333c-.025,6.573-.005,13.147-.009,19.72a47.061,47.061,0,0,1-31.563,44.963,44.122,44.122,0,0,1-17.271,2.567A47.11,47.11,0,0,1,4.936,83.994,47.01,47.01,0,0,1,3.253,71.8Q3.2,61.283,3.248,50.77a46.091,46.091,0,0,1,9.821-29.155,45.984,45.984,0,0,1,30.62-17.8A46.055,46.055,0,0,1,73.738,9.735a7.439,7.439,0,0,0,.843.437c.922.378,1.694.182,2.052-.552a1.262,1.262,0,0,0-.181-1.494l.3.054c.121.134.252.257.374.389A2.357,2.357,0,0,0,75.875,7.22c-13.721-7.921-28.132-9.432-43-4A49.8,49.8,0,0,0,.039,50.213Q-.041,60.905.039,71.6A49.114,49.114,0,0,0,10.718,102.49a49.375,49.375,0,0,0,30.194,18.4,33.627,33.627,0,0,1,4.937.869h8.076c.11-.316.386-.2.6-.219a37.635,37.635,0,0,0,5.747-.818,50.173,50.173,0,0,0,39.946-49.607c.014-6.969.063-13.94-.012-20.908" transform="translate(0 0)"/>
        <path id="Trazado_135447" data-name="Trazado 135447" d="M75.687,7.335a1.26,1.26,0,0,1,.181,1.492,1.454,1.454,0,0,1-2.052.553,7.892,7.892,0,0,1-.843-.437A46.05,46.05,0,0,0,42.922,3.021,45.978,45.978,0,0,0,12.3,20.824,46.079,46.079,0,0,0,2.482,49.979q-.035,10.513.005,21.026A47.008,47.008,0,0,0,4.168,83.2,47.114,47.114,0,0,0,47.405,117.7a44.171,44.171,0,0,0,17.271-2.567A47.061,47.061,0,0,0,96.238,70.164c0-6.573-.017-13.146.009-19.719a49.655,49.655,0,0,0-.492-7.334,46.32,46.32,0,0,0-12.184-25.65c-1-1.07-2.139-2-3.1-3.1-.788-.9-.654-1.924.249-2.375-.117-.1-.223-.207-.338-.308a2.112,2.112,0,0,0-.336.277c-.758.791-.664,1.774.262,2.706.14.142.29.27.434.406A46.271,46.271,0,0,1,95.875,49.562c.084,7.048.045,14.1.007,21.147a46.524,46.524,0,1,1-93.048.042c-.042-6.969-.008-13.939-.008-20.908A47.545,47.545,0,0,1,8.257,27.617c9.29-17.9,30.348-27.96,50.059-23.882a47.066,47.066,0,0,1,14.95,5.757,2.125,2.125,0,0,0,2,.4,1.724,1.724,0,0,0,1.146-1.529,1.7,1.7,0,0,0-.059-.584c-.122-.134-.253-.256-.374-.389-.1-.016-.2-.034-.3-.054" transform="translate(0.766 0.791)"/>
        <path id="Trazado_135448" data-name="Trazado 135448" d="M22.755,17.139a38.447,38.447,0,0,0-14.394,27.7c-.346,4.506-.062,9.024-.148,12.7,0,4.239-.013,7.643,0,11.049A40.639,40.639,0,0,0,9.487,78.931a39.216,39.216,0,0,0,57.987,24.028C79.225,96.035,85.755,85.471,86.749,71.8c.581-7.975.134-15.991.176-23.987a38.909,38.909,0,0,0-.585-6.85A39.348,39.348,0,0,0,48.41,8.275a38.055,38.055,0,0,0-25.655,8.864M80.847,34.431A38.455,38.455,0,0,1,83.379,49.65c-.013.643-.228.808-.83.8-1.661-.031-3.324-.01-4.987-.012-1.543,0-3.088.028-4.631-.008A5.5,5.5,0,0,1,67.3,45.687,5.379,5.379,0,0,1,71.7,39.608a2.22,2.22,0,0,0,1.727-1.987A5.384,5.384,0,0,1,79.5,33.357a1.461,1.461,0,0,1,1.349,1.074M78.188,29.1c.093.161.163.337.283.591-4.093.435-6.858,2.4-8.273,6.147a1.125,1.125,0,0,1-.708.692c-4.291,1.912-6.514,5.906-5.648,10.1.927,4.479,4.5,7.321,9.306,7.363q4.63.041,9.263-.005c.662-.005,1,.075.983.882-.111,5.741.16,11.484-.18,17.221a32.658,32.658,0,0,1-1.031,6.086c-.534-.041-.8-.48-1.142-.782Q69.91,67.578,58.79,57.744a17.965,17.965,0,0,0-12.456-4.683c-3.641.033-7.284.018-10.926,0a7.945,7.945,0,0,0-7.628,4.5,8.037,8.037,0,0,0,.766,8.833c1.292,1.825,2.578,3.655,3.934,5.578-3.177.414-5.349,1.941-6.1,4.957a13.013,13.013,0,0,0,0,6.12,6.365,6.365,0,0,0,6.469,4.9c3.324.038,6.651.028,9.975-.005a1.574,1.574,0,0,1,1.558.787c.581.94,1.258,1.821,1.909,2.717.671.922,1.442,1.254,2.2,1l-2.646-3.632,2.646,3.632A1.947,1.947,0,0,0,49,92.175c.894-.645.972-1.681.165-2.821q-8.22-11.625-16.453-23.237c-.5-.709-1.021-1.41-1.495-2.139a4.522,4.522,0,0,1-.257-4.839,4.42,4.42,0,0,1,4.137-2.5c3.918-.005,7.838-.013,11.757.007a14.363,14.363,0,0,1,9.686,3.864q7.779,6.886,15.574,13.758c2.64,2.333,5.258,4.69,7.935,6.981a1.336,1.336,0,0,1,.459,1.87A36.119,36.119,0,0,1,59.728,102.78c-.724.277-1.029.077-1.414-.486-1.179-1.732-2.41-3.429-3.622-5.139-1-1.41-1.933-1.757-2.916-1.087a1.9,1.9,0,0,0-.389.357L55,101.388l-3.615-4.963c-.56.665-.445,1.589.365,2.739,1.115,1.583,2.23,3.162,3.42,4.849a27.94,27.94,0,0,1-6.5.864A35.923,35.923,0,0,1,12.924,78.052a37.446,37.446,0,0,1-1.145-9.4c-.014-6.85-.026-13.7,0-20.553.067-17.41,11.306-31.5,28.25-35.457C54.535,9.257,70.7,16.232,78.188,29.1M32.628,75.613c.631-.038,1.265,0,1.9-.02a.954.954,0,0,1,.881.469c1.9,2.712,3.818,5.417,5.864,8.315-3.042,0-5.84.056-8.635-.02a2.865,2.865,0,0,1-2.927-3.063c-.029-.909-.031-1.82.005-2.729a2.891,2.891,0,0,1,2.914-2.953" transform="translate(2.548 2.574)"/>
        <path id="Trazado_135449" data-name="Trazado 135449" d="M39.18,11.806C22.237,15.758,11,29.853,10.93,47.261c-.026,6.851-.014,13.7,0,20.554a37.5,37.5,0,0,0,1.145,9.4A35.923,35.923,0,0,0,47.825,104.04a27.937,27.937,0,0,0,6.5-.863c-1.189-1.688-2.305-3.268-3.419-4.849-.81-1.151-.926-2.076-.366-2.739l-2.9-3.986c-.755.258-1.525-.072-2.2-1-.652-.894-1.328-1.777-1.909-2.716a1.568,1.568,0,0,0-1.556-.787c-3.325.031-6.652.042-9.976,0a6.363,6.363,0,0,1-6.469-4.9,13.018,13.018,0,0,1,0-6.121c.754-3.016,2.925-4.542,6.1-4.957-1.356-1.922-2.642-3.753-3.934-5.578a8.035,8.035,0,0,1-.766-8.831,7.942,7.942,0,0,1,7.628-4.5c3.641.016,7.284.029,10.926,0A17.953,17.953,0,0,1,57.94,56.909q11.123,9.831,22.252,19.65c.342.3.608.741,1.142.783a32.7,32.7,0,0,0,1.031-6.086c.34-5.738.068-11.482.18-17.221.016-.808-.321-.889-.983-.884q-4.632.039-9.263.007c-4.81-.043-8.379-2.884-9.3-7.364-.868-4.191,1.356-8.185,5.646-10.1A1.123,1.123,0,0,0,69.349,35c1.416-3.742,4.18-5.713,8.274-6.149-.122-.254-.191-.429-.285-.591C69.855,15.395,53.685,8.421,39.18,11.806M49.814,33.247a8.075,8.075,0,0,1-7.823,6.378c-1.739.055-3.481.009-5.673.009a57.742,57.742,0,0,1-5.951-.13,8.01,8.01,0,0,1-2.215-15.219,2.3,2.3,0,0,0,1.235-1.273,7.662,7.662,0,0,1,7.379-4.824,7.681,7.681,0,0,1,7.35,4.874,2,2,0,0,0,1.039,1.16,7.909,7.909,0,0,1,4.659,9.024" transform="translate(3.397 3.411)" fill="#a3d3fe"/>
        <path id="Trazado_135450" data-name="Trazado 135450" d="M46.507,84.587c.983-.67,1.918-.323,2.916,1.087,1.212,1.711,2.443,3.408,3.623,5.14.383.563.69.763,1.412.485A36.115,36.115,0,0,0,75.241,71.636a1.336,1.336,0,0,0-.459-1.87c-2.676-2.291-5.295-4.648-7.935-6.981q-7.789-6.878-15.574-13.758a14.363,14.363,0,0,0-9.686-3.864c-3.918-.02-7.838-.012-11.757-.007a4.42,4.42,0,0,0-4.137,2.5A4.522,4.522,0,0,0,25.95,52.5c.473.729.991,1.429,1.495,2.139Q35.673,66.254,43.9,77.873c.806,1.141.729,2.175-.165,2.821a1.947,1.947,0,0,1-.519.265l2.9,3.986a1.871,1.871,0,0,1,.389-.358" transform="translate(7.817 14.055)" fill="#9c9c9c"/>
        <path id="Trazado_135451" data-name="Trazado 135451" d="M59.408,31.675a2.219,2.219,0,0,1-1.726,1.987,5.377,5.377,0,0,0-4.407,6.079,5.5,5.5,0,0,0,5.635,4.739c1.542.035,3.087.007,4.63.008,1.663,0,3.325-.02,4.987.013.6.01.818-.155.83-.8a38.442,38.442,0,0,0-2.532-15.22,1.459,1.459,0,0,0-1.348-1.073,5.384,5.384,0,0,0-6.069,4.263" transform="translate(16.57 8.52)" fill="#fefefe"/>
        <path id="Trazado_135452" data-name="Trazado 135452" d="M24.6,65.313a2.865,2.865,0,0,0,2.927,3.063c2.794.076,5.593.021,8.635.021-2.046-2.9-3.96-5.6-5.864-8.316a.955.955,0,0,0-.881-.469c-.632.024-1.267-.018-1.9.02a2.892,2.892,0,0,0-2.914,2.953c-.037.909-.033,1.82-.005,2.729" transform="translate(7.652 18.556)" fill="#5c5c5c"/>
        <path id="Trazado_135453" data-name="Trazado 135453" d="M41.141,21.345a7.681,7.681,0,0,0-7.35-4.874,7.659,7.659,0,0,0-7.379,4.823,2.285,2.285,0,0,1-1.235,1.273,8.01,8.01,0,0,0,2.215,15.219,57.4,57.4,0,0,0,5.951.131c2.191,0,3.934.045,5.673-.01a8.073,8.073,0,0,0,7.823-6.377A7.91,7.91,0,0,0,42.179,22.5a2,2,0,0,1-1.039-1.159m2.313,8.9a4.548,4.548,0,0,1-4.7,4.1c-1.659.028-3.318.005-4.978.005-1.619,0-3.239.013-4.858,0a4.577,4.577,0,0,1-4.832-3.959,4.511,4.511,0,0,1,3.637-4.94,2.008,2.008,0,0,0,1.613-1.646,4.472,4.472,0,0,1,8.839-.028,2.094,2.094,0,0,0,1.711,1.7,4.485,4.485,0,0,1,3.568,4.769" transform="translate(6.374 5.127)"/>
        <path id="Trazado_135454" data-name="Trazado 135454" d="M39.039,24.64a2.1,2.1,0,0,1-1.713-1.7,4.47,4.47,0,0,0-8.837.029,2.013,2.013,0,0,1-1.614,1.644,4.512,4.512,0,0,0-3.637,4.941,4.578,4.578,0,0,0,4.831,3.959c1.619.014,3.24,0,4.86,0,1.659,0,3.319.022,4.978-.005a4.549,4.549,0,0,0,4.7-4.1,4.486,4.486,0,0,0-3.568-4.769" transform="translate(7.22 5.966)" fill="#fefefe"/>
      </g>
    </g>
  </g>
</svg>
