<svg xmlns="http://www.w3.org/2000/svg" xmlns:xlink="http://www.w3.org/1999/xlink" width="67" height="67" viewBox="0 0 67 67">
  <defs>
    <clipPath id="clip-path">
      <rect id="Rectángulo_38059" data-name="Rectángulo 38059" width="46.996" height="47" transform="translate(0 0)" fill="none"/>
    </clipPath>
  </defs>
  <g id="Grupo_158888" data-name="Grupo 158888" transform="translate(11436 2579.848)">
    <circle id="Elipse_4854" data-name="Elipse 4854" cx="33.5" cy="33.5" r="33.5" transform="translate(-11436 -2579.848)" fill="#fc5f65"/>
    <g id="Grupo_158887" data-name="Grupo 158887" transform="translate(-11425.998 -2569.848)">
      <g id="Grupo_158886" data-name="Grupo 158886" transform="translate(0 0)" clip-path="url(#clip-path)">
        <path id="Trazado_135429" data-name="Trazado 135429" d="M47,3.58c-.283.778-.448,1.594-.774,2.361a24.352,24.352,0,0,1-5.175,7.492c-.652.667-1.324,1.314-1.975,1.983a.793.793,0,0,1-1.064.185c-.439-.315-.469-.713-.056-1.148.558-.587,1.144-1.145,1.712-1.723a12.232,12.232,0,0,0,.976-1.03c.164-.21.157-.311-.09-.447a7.258,7.258,0,0,1-1.317-.987,19.139,19.139,0,0,1-3.506-3.848c-.117-.185-.2-.245-.382-.094a7.315,7.315,0,0,0-.553.48Q27.448,14.15,20.113,21.5c-.965.974-1.924,1.963-2.792,3.031a1.818,1.818,0,0,1-.463.441c-.314.186-.627.251-.893-.091-.341-.5-.335-.7.082-1.168.737-.819,1.469-1.642,2.232-2.436.271-.282.29-.386-.082-.59Q9.915,16.14,1.647,11.566A2.882,2.882,0,0,1,.094,9.8,2.088,2.088,0,0,1,.611,7.683c.7-.729,1.415-1.44,2.139-2.144a2.186,2.186,0,0,1,2.33-.5c2.633.826,5.266,1.648,7.895,2.487a.559.559,0,0,0,.71-.177A10.892,10.892,0,0,1,16.9,4.881a.817.817,0,0,1,1.108.154c.858.873,1.731,1.73,2.593,2.6A.755.755,0,0,1,20.75,8.77c-.188.329-.38.654-.584,1,2.378.749,4.717,1.482,7.053,2.227.256.082.363-.074.5-.211q2.629-2.628,5.255-5.258A29.093,29.093,0,0,1,36.659,3.3,17.52,17.52,0,0,1,43.325.084c.034-.007.061-.055.091-.084h1.377a2.32,2.32,0,0,1,2.018,1.377A6.473,6.473,0,0,1,47,2.2Z" transform="translate(0 0)"/>
        <path id="Trazado_135430" data-name="Trazado 135430" d="M35.05,53.939c-.6.137-.757.061-1.087-.537q-3.051-5.528-6.094-11.061c-.187-.342-.282-.392-.587-.1a77.109,77.109,0,0,1-7.176,6.067c-.238.179-.292.293-.131.575.682,1.19,1.331,2.4,1.995,3.6a4.424,4.424,0,0,1-1.221,5.694,1.6,1.6,0,0,1-2.5-.328c-1.242-1.571-2.487-3.139-3.711-4.724-.211-.272-.355-.313-.642-.115a4.6,4.6,0,0,1-2.443.816,2.973,2.973,0,0,1-3.178-3.5,4.908,4.908,0,0,1,.831-2.2c.177-.251.123-.367-.1-.537q-2.388-1.859-4.759-3.74a1.576,1.576,0,0,1-.215-2.615,5.061,5.061,0,0,1,5.942-.987c1.1.565,2.16,1.2,3.224,1.828.287.169.419.126.609-.135.522-.716,1.082-1.4,1.623-2.107a.787.787,0,0,1,1-.321c.506.273.593.665.223,1.161-.793,1.065-1.62,2.105-2.424,3.162-1.238,1.628-2.512,3.229-3.728,4.875a3.388,3.388,0,0,0-.753,2.256,1.45,1.45,0,0,0,1.539,1.378,3.325,3.325,0,0,0,2.078-.75c3.124-2.405,6.307-4.733,9.339-7.257,2.058-1.712,3.992-3.554,5.884-5.444q4.234-4.229,8.464-8.462a2.566,2.566,0,0,1,.442-.4.64.64,0,0,1,.926.129c.286.56.264.722-.178,1.168q-.758.765-1.523,1.523c-.12.12-.242.219-.177.427.745,2.348,1.484,4.7,2.235,7.085.368-.216.711-.41,1.047-.615a.756.756,0,0,1,1.033.12q1.343,1.349,2.692,2.69a.772.772,0,0,1,.141,1.032,10.692,10.692,0,0,1-2.457,3.219.617.617,0,0,0-.2.785c.818,2.553,1.6,5.116,2.428,7.667A2.411,2.411,0,0,1,42.8,58c-.615.572-1.19,1.187-1.788,1.778a2.3,2.3,0,0,1-3.617-.276,32.846,32.846,0,0,1-1.87-3.3.687.687,0,0,1,.263-.922c.227-.294.487-.182.735-.048a1.358,1.358,0,0,1,.489.593c.464.826.905,1.665,1.379,2.486a1.494,1.494,0,0,0,.526.563.727.727,0,0,0,.965-.087c.69-.673,1.369-1.355,2.044-2.043a.853.853,0,0,0,.133-.942c-.3-.963-.594-1.929-.9-2.89-1.789-5.623-3.526-11.263-5.315-16.887-.165-.52-.3-1.048-.511-1.552-.174.039-.245.167-.339.26q-2.89,2.884-5.775,5.773c-.429.43-.421.427-.126.968C30.961,44.9,32.87,48.3,34.737,51.724c.219.4.457.8.66,1.207a.666.666,0,0,1-.347,1.008" transform="translate(-1.558 -13.533)"/>
        <path id="Trazado_135431" data-name="Trazado 135431" d="M14.77,42.457a3.159,3.159,0,0,1,.686-2.221c1.539-2.049,3.1-4.078,4.662-6.114.5-.654,1.014-1.3,1.515-1.953.379-.494.358-.739-.077-1.188.524-.205.7-.757,1.092-1.094.547.227.7.184,1.15-.3,5.772-6.266,11.961-12.119,17.95-18.17.032-.032.067-.062.1-.094.41-.384.39-.37.674.091a15.425,15.425,0,0,0,2.319,2.709c.366.367.749.717,1.123,1.075.037.282-.2.395-.355.547q-3.837,3.851-7.686,7.693c-2.617,2.617-5.214,5.254-7.857,7.845A78.468,78.468,0,0,1,22.1,37.969c-.128.1-.271.244-.41,0,.01-.263.231-.381.38-.547a4.967,4.967,0,0,0,.433-.471.508.508,0,0,0-.055-.706.521.521,0,0,0-.708-.072,2.239,2.239,0,0,0-.375.334q-2.623,2.622-5.244,5.242a2.377,2.377,0,0,0-.477.611c-.331.413-.661.448-.872.093" transform="translate(-6.682 -5.004)" fill="#dff2fb"/>
        <path id="Trazado_135432" data-name="Trazado 135432" d="M55.994,57.506c.42-.433.442-.611.134-1.171q-3.15-5.715-6.312-11.425a.52.52,0,0,1,.109-.761c2.023-2,4.028-4.016,6.039-6.027.107-.107.218-.208.372-.355.265.832.518,1.622.766,2.413q2.994,9.539,6,19.076a1.141,1.141,0,0,1-.327,1.349c-.587.535-1.13,1.118-1.693,1.679a1.006,1.006,0,0,1-1.762-.208c-.529-.893-1.011-1.813-1.516-2.72-.309-.555-.5-.642-1.065-.5l-.741-1.348" transform="translate(-22.502 -17.1)" fill="#fe2c5c"/>
        <path id="Trazado_135433" data-name="Trazado 135433" d="M21.74,41.386c.072.108.146.072.227.008,1.774-1.41,3.588-2.769,5.3-4.264q2.207-1.932,4.272-4.008Q38.582,26.06,45.64,19.007c.118-.118.223-.25.333-.375a7.417,7.417,0,0,0,1.649,1.119c.256.092.011.221-.055.289-.825.854-1.659,1.7-2.491,2.547-.1.1-.2.193-.29.292-.412.427-.429.664-.088,1.158l-1.143,1.027c-.558-.264-.712-.24-1.165.213-2.811,2.808-5.638,5.6-8.427,8.433a91.011,91.011,0,0,1-10.281,8.974c-1.625,1.218-3.225,2.47-4.838,3.705a3.9,3.9,0,0,1-2.461.969,1.5,1.5,0,0,1-1.6-1.469.5.5,0,0,0,.8-.186c.092.05.1.146.126.231a.567.567,0,0,0,.986.292,3.96,3.96,0,0,0,.364-.347q2.087-2.086,4.175-4.169c.143-.142.253-.359.514-.325" transform="translate(-6.692 -8.436)" fill="#c2d2da"/>
        <path id="Trazado_135434" data-name="Trazado 135434" d="M18.837,24.037q-2.691-1.473-5.381-2.946-5-2.752-9.986-5.512a2.461,2.461,0,0,1-.606-.408.937.937,0,0,1,0-1.447c.613-.619,1.245-1.22,1.843-1.855a1.035,1.035,0,0,1,1.2-.285c2.456.785,4.917,1.555,7.377,2.327L25.024,17.6c.086.027.169.068.253.1.046.225-.137.327-.259.45Q22.2,20.979,19.376,23.8c-.144.143-.273.355-.538.242" transform="translate(-1.141 -5.21)" fill="#fe2c5c"/>
        <path id="Trazado_135435" data-name="Trazado 135435" d="M32.338,29.163a.515.515,0,0,0,.346-.2q3.008-3.012,6.017-6.022a.685.685,0,0,0,.077-.113l2.135.635c0,.172-.123.23-.2.311-2.06,2.064-4.127,4.121-6.177,6.194a.441.441,0,0,1-.654.081c-.5-.311-1.026-.593-1.54-.887" transform="translate(-14.642 -10.337)" fill="#e52753"/>
        <path id="Trazado_135436" data-name="Trazado 135436" d="M72.929,8.222a8.744,8.744,0,0,0-3.891-2.889c.445-.288.846-.57,1.267-.818a13.638,13.638,0,0,1,4.558-1.922,6.289,6.289,0,0,1,.635-.048c.176.191.089.4.038.6a16.021,16.021,0,0,1-2.188,4.788c-.094.146-.186.329-.419.283" transform="translate(-31.259 -1.153)" fill="#dff2fb"/>
        <path id="Trazado_135437" data-name="Trazado 135437" d="M76.148,8.222a3.535,3.535,0,0,0,.883-1.248,14.608,14.608,0,0,0,1.637-3.98c.03-.147.033-.3.049-.448.948.016,1.378.431,1.374,1.369A7.238,7.238,0,0,1,79.414,6.6a19.4,19.4,0,0,1-1.158,2.275c-.285.5-.622.971-.965,1.5a8.314,8.314,0,0,0-1.143-2.152" transform="translate(-34.478 -1.153)" fill="#c2d2da"/>
        <path id="Trazado_135438" data-name="Trazado 135438" d="M27.2,13.345a7.285,7.285,0,0,1,2.242-1.757c.164-.089.251,0,.352.1.571.574,1.132,1.159,1.723,1.712.242.227.073.372-.024.544-.362.644-.363.642-1.047.425L27.2,13.345" transform="translate(-12.317 -5.231)" fill="#c2d2da"/>
        <path id="Trazado_135439" data-name="Trazado 135439" d="M72.154,14a.453.453,0,0,1-.2.41c-.162.122-.253-.041-.349-.117a21.636,21.636,0,0,1-3.528-3.526c-.083-.1-.269-.2-.108-.384a.417.417,0,0,1,.533-.125,7.264,7.264,0,0,1,1.474.919,7.528,7.528,0,0,1,2.06,2.546c.053.107.091.222.114.278" transform="translate(-30.748 -4.623)" fill="#51c3f4"/>
        <path id="Trazado_135440" data-name="Trazado 135440" d="M31.063,70.819a2.8,2.8,0,0,1-1.25,2.5c-.221.154-.354.15-.527-.071q-1.886-2.421-3.8-4.823c-.169-.211-.141-.312.063-.466q1.41-1.059,2.8-2.145c.188-.147.287-.2.431.067.648,1.21,1.326,2.4,1.98,3.61a2.7,2.7,0,0,1,.3,1.326" transform="translate(-11.491 -29.745)" fill="#fe2c5c"/>
        <path id="Trazado_135441" data-name="Trazado 135441" d="M9.528,54.559C8.421,53.7,7.317,52.834,6.2,51.982c-.251-.192-.172-.337,0-.517a3.521,3.521,0,0,1,3.6-.983,10.036,10.036,0,0,1,2.473,1.251c.125.179-.021.287-.119.387q-1.144,1.168-2.311,2.313c-.084.083-.176.173-.317.125" transform="translate(-2.736 -22.799)" fill="#fe2c5c"/>
        <path id="Trazado_135442" data-name="Trazado 135442" d="M12.411,55.7q1.331-1.31,2.659-2.623a.644.644,0,0,0,.089-.2c.452.251.9.508,1.359.748.2.1.229.193.085.377q-1.125,1.443-2.23,2.9c-.128.168-.223.21-.4.062-.514-.429-1.04-.844-1.561-1.264" transform="translate(-5.619 -23.941)" fill="#e52753"/>
        <path id="Trazado_135443" data-name="Trazado 135443" d="M70.08,55.014c-.385-1.224-.743-2.389-1.123-3.545-.1-.291-.1-.484.229-.6a1.651,1.651,0,0,0,.395-.228.278.278,0,0,1,.428.035c.561.583,1.139,1.15,1.714,1.72.115.114.2.207.1.39a7.747,7.747,0,0,1-1.74,2.226" transform="translate(-31.197 -22.892)" fill="#c2d2da"/>
        <path id="Trazado_135444" data-name="Trazado 135444" d="M22.392,58.539l-4.045,4.018c-.281.279-.566.554-.838.841a.764.764,0,0,1-.9.257.691.691,0,0,1-.383-.8,1.368,1.368,0,0,1,.347-.477L22.059,56.9a2.144,2.144,0,0,1,.236-.216.638.638,0,0,1,.911.05.623.623,0,0,1,.032.909c-.265.314-.563.6-.846.9" transform="translate(-7.345 -25.589)"/>
      </g>
    </g>
  </g>
</svg>
