<svg xmlns="http://www.w3.org/2000/svg" xmlns:xlink="http://www.w3.org/1999/xlink" width="67" height="67" viewBox="0 0 67 67">
  <defs>
    <clipPath id="clip-path">
      <rect id="Rectángulo_38061" data-name="Rectángulo 38061" width="40.917" height="54.294" fill="none"/>
    </clipPath>
  </defs>
  <g id="Grupo_158894" data-name="Grupo 158894" transform="translate(10918 2580)">
    <circle id="Elipse_4855" data-name="Elipse 4855" cx="33.5" cy="33.5" r="33.5" transform="translate(-10918 -2580)" fill="#fc5f65"/>
    <g id="Grupo_158893" data-name="Grupo 158893" transform="translate(-10904.97 -2573.267)">
      <g id="Grupo_158892" data-name="Grupo 158892" transform="translate(0 0)" clip-path="url(#clip-path)">
        <path id="Trazado_135455" data-name="Trazado 135455" d="M18.655,54.293a6.185,6.185,0,0,0-1.683-.3A20.539,20.539,0,0,1,.232,36.9,21.228,21.228,0,0,1,0,33.736c0-4.382-.009-8.764,0-13.146a20.453,20.453,0,1,1,40.906,0c0,4.364.011,8.729,0,13.093A20.473,20.473,0,0,1,24.826,53.82a14.262,14.262,0,0,1-2.562.378c-.084,0-.18-.017-.216.1Z" transform="translate(0 0)"/>
        <path id="Trazado_135456" data-name="Trazado 135456" d="M39.927,27.764c0,2.209.038,4.418-.007,6.626a18.478,18.478,0,0,1-8.892,16.038c-10.765,6.9-25.48.813-28.317-11.652A20.071,20.071,0,0,1,2.2,34.315c0-4.381-.012-8.764,0-13.146a18.859,18.859,0,0,1,37.213-4.439,20.272,20.272,0,0,1,.514,4.513q0,3.26,0,6.52" transform="translate(-0.604 -0.601)" fill="#cfe1e6"/>
        <path id="Trazado_135457" data-name="Trazado 135457" d="M14.783,6.733c-.072-.779.018-.92.78-1.21A17.289,17.289,0,0,1,38.6,18.281a16.6,16.6,0,0,1,.332,3.156c0,4.612.044,9.224-.007,13.835A17.262,17.262,0,0,1,4.681,38.164,18.224,18.224,0,0,1,4.386,34.9c0-4.382-.041-8.765.01-13.147a17.044,17.044,0,0,1,7.212-14.1c.562-.42.808-.4,1.351.047a.759.759,0,0,1-.168,1.216c-.623.466-1.212.97-1.8,1.483a12.63,12.63,0,0,0-1.6,1.8c.139.166.291.115.424.115,1.7,0,3.39-.008,5.085.009a.973.973,0,0,0,.983-.559c.2-.375.409-.742.634-1.1A1.948,1.948,0,0,1,18.31,9.654q3.363.039,6.728,0a1.934,1.934,0,0,1,1.753.98,11.22,11.22,0,0,0,.981,1.567.615.615,0,0,0,.448.119c1.835,0,3.67,0,5.5-.005.053,0,.106-.009.234-.105a15.064,15.064,0,0,0-4.837-4.121,15.4,15.4,0,0,0-5.8-1.844,15.232,15.232,0,0,0-6.913.825,2.491,2.491,0,0,1-.815.211c-.384,0-.757-.046-.813-.547" transform="translate(-1.203 -1.212)"/>
        <path id="Trazado_135458" data-name="Trazado 135458" d="M16.586,7.335c.367.508.815.478,1.354.278a15.421,15.421,0,0,1,12.471.628c.2.1.392.23.588.346a12.077,12.077,0,0,1,2.92,3.844c.237.443.153.579-.33.574-1.374-.014-2.749.045-4.123-.03-.344-.573-.69-1.144-1.028-1.72a1.632,1.632,0,0,0-1.52-.873q-3.469.015-6.938,0a1.6,1.6,0,0,0-1.477.852c-.294.5-.59,1-.867,1.515a.5.5,0,0,1-.5.291c-2.064-.008-4.128-.005-6.189-.005-.08-.191.074-.273.151-.373a15.02,15.02,0,0,1,3.272-3.142A.912.912,0,0,0,14.763,8.3a9.963,9.963,0,0,1,1.823-.963" transform="translate(-3.007 -1.814)" fill="#9ab8c0"/>
        <path id="Trazado_135459" data-name="Trazado 135459" d="M34.758,29.047c0,.035,0,.07,0,.105a1.439,1.439,0,0,0-.127.917c-.009,2.479,0,4.958-.005,7.436a3.219,3.219,0,0,1-.056.839c-.051.191-.047.438-.334.467q-3.553-2.033-7.106-4.067c-1.558-.894-3.107-1.807-4.67-2.692a1.112,1.112,0,0,1-.591-.741c-.989-3.746-2-7.487-3-11.23-.3-1.123-.578-1.342-1.734-1.342-1.254,0-2.507,0-3.761,0-.985,0-1.422.435-1.423,1.424q-.008,5.642,0,11.284a1.729,1.729,0,0,1-.12.773.936.936,0,0,0,.1.907c.26.44.507.887.77,1.325.327.545.548.623,1.188.442.264.091.3.359.433.555a7.169,7.169,0,0,0,.838,1.239c-.675.412-.751.723-.343,1.433,1.16,2.015,2.305,4.037,3.5,6.032.273.458.181.625-.248.852-.917.485-1.81,1.019-2.7,1.546a3.125,3.125,0,0,0-1.618,2.463,2.29,2.29,0,0,0,2.3,2.632c2.028.026,4.058.021,6.087,0,.422,0,.665.128.768.528.111.362-.205.367-.392.42a13.643,13.643,0,0,1-3.426.572c-.651.014-1.3-.018-1.954.009a4.174,4.174,0,0,1-1.435-.271,14.915,14.915,0,0,1-6.043-4.911,15.335,15.335,0,0,1-3.063-9.277q-.025-6.807,0-13.614A15.376,15.376,0,0,1,8.38,18.045a.553.553,0,0,1,.553-.375q12.261.016,24.521.012a1.06,1.06,0,0,1,.157.023,2.316,2.316,0,0,1,.425,1.7,4.769,4.769,0,0,0-1.942-.061,3.743,3.743,0,0,0-2.46,1.693.978.978,0,0,1-.865.495,4.169,4.169,0,0,0,.062,8.337c.935.028,1.872.009,2.808,0,.655,0,.857-.17,1.03-.821A3.7,3.7,0,0,1,34.4,28.9a.5.5,0,0,1,.359.143" transform="translate(-1.81 -4.865)" fill="#b8e3ee"/>
        <path id="Trazado_135460" data-name="Trazado 135460" d="M17.932,42.577a.4.4,0,0,1-.4-.26c-.28-.517-.579-1.023-.87-1.534.659-.554.271-1.1-.046-1.649.139-.115.283-.069.411-.069,2.189,0,4.378,0,6.567-.008a1.507,1.507,0,0,1,.794.222q5.921,3.427,11.846,6.846c.2.113.375.254.562.383a6.631,6.631,0,0,1-.748,2.5A16.733,16.733,0,0,1,28.4,57.248a1.714,1.714,0,0,1-.531.228c-.129.021-.3.059-.295-.168A10.2,10.2,0,0,1,28.867,56c.9-.8.982-1.274.391-2.3-1.542-2.668-3.1-5.331-4.618-8.009A1.559,1.559,0,0,0,23.1,44.8c-.935.03-1.871,0-2.806.014a.583.583,0,0,1-.621-.35c-.231-.454-.52-.88-.759-1.331a.934.934,0,0,0-.985-.558" transform="translate(-4.574 -10.753)" fill="#f0f3f5"/>
        <path id="Trazado_135461" data-name="Trazado 135461" d="M16.193,26.959c0-1.7.017-3.39-.011-5.084-.008-.456.138-.561.567-.546.917.032,1.836.02,2.753,0,.306,0,.461.061.55.4q1.371,5.212,2.787,10.412c.1.354.052.459-.335.456q-2.938-.024-5.877,0c-.355,0-.444-.112-.441-.451.015-1.73.007-3.46.007-5.19" transform="translate(-4.455 -5.872)" fill="#cf6161"/>
        <path id="Trazado_135462" data-name="Trazado 135462" d="M31.649,60.139c.167.2.327.048.47-.027A16.743,16.743,0,0,0,39.363,53.1a21.106,21.106,0,0,0,1.5-3.762c1.135.517,2.16,1.23,3.256,1.818.247.133.125.325.073.506a15.592,15.592,0,0,1-6.688,8.992,15.263,15.263,0,0,1-4.526,1.968c-.252.066-.376.034-.5-.2-.308-.572-.625-1.143-.977-1.689-.187-.29-.087-.442.145-.6" transform="translate(-8.647 -13.584)" fill="#dee9ee"/>
        <path id="Trazado_135463" data-name="Trazado 135463" d="M41.947,30.251l-1.788,0a.883.883,0,0,0-1.017-.773c-.881.02-1.763.011-2.644,0a2.585,2.585,0,1,1-.095-5.167,2.447,2.447,0,0,0,2.051-1.2,2.2,2.2,0,0,1,3.49-.378,1.932,1.932,0,0,1,.179.924c0,1.925,0,3.851,0,5.776a1.1,1.1,0,0,1-.172.808" transform="translate(-9.301 -6.07)" fill="#f0f3f5"/>
        <path id="Trazado_135464" data-name="Trazado 135464" d="M44.745,43.173a1.7,1.7,0,0,0,.222-1q0-4.062.005-8.124c0-.215-.127-.536.294-.535a.9.9,0,0,0,1.019.722c.617-.012,1.236.008,1.853-.008.256-.006.332.079.328.332-.06,3.388.1,6.778-.093,10.165-.029.5-.154.505-.539.269-1.018-.625-2.058-1.216-3.089-1.82" transform="translate(-12.319 -9.227)" fill="#92d7e3"/>
        <path id="Trazado_135465" data-name="Trazado 135465" d="M28.052,59l-5.66-9.809c.788,0,1.485.01,2.181-.005.229-.005.3.136.384.29q2.215,3.844,4.439,7.684a.342.342,0,0,1-.045.5c-.428.42-.836.859-1.3,1.341" transform="translate(-6.165 -13.541)" fill="#dee9ee"/>
        <path id="Trazado_135466" data-name="Trazado 135466" d="M25.036,60.878H22.609c-1.04,0-2.08.008-3.12,0-.651-.008-.941-.407-.807-1.049a1.517,1.517,0,0,1,.744-1.042c1-.589,2.012-1.162,3.015-1.748.175-.1.3-.151.425.073.695,1.222,1.4,2.437,2.17,3.771" transform="translate(-5.135 -15.679)" fill="#cf6161"/>
        <path id="Trazado_135467" data-name="Trazado 135467" d="M45.048,30.514q0-3.755,0-7.508a1.982,1.982,0,0,1,.659,1.273,2.116,2.116,0,0,0,2.414,2.081c.35,0,.443.1.433.44-.023.844-.028,1.69,0,2.534.013.373-.134.433-.455.422-.6-.02-1.2,0-1.794-.008a.839.839,0,0,0-.955.769h-.3" transform="translate(-12.401 -6.334)" fill="#dee9ee"/>
        <path id="Trazado_135468" data-name="Trazado 135468" d="M44.3,19.4q-.212-.848-.425-1.7c.687-.009,1.373-.009,2.06-.031a.437.437,0,0,1,.441.293,15.384,15.384,0,0,1,1.612,4.776c.027.167.262.46-.117.563a.655.655,0,0,1-.88-.444c-.049-.2-.054-.42-.1-.624A3.964,3.964,0,0,0,44.3,19.4" transform="translate(-12.081 -4.866)" fill="#92d7e3"/>
        <path id="Trazado_135469" data-name="Trazado 135469" d="M19.16,66.013a20.076,20.076,0,0,0,3.41.1,13.714,13.714,0,0,0,3.5-.588c.13-.036.289-.049.3-.24l1.252,2.1a15.2,15.2,0,0,1-8.459-1.367" transform="translate(-5.275 -17.973)" fill="#92d7e3"/>
        <path id="Trazado_135470" data-name="Trazado 135470" d="M22.611,15.032a1.249,1.249,0,0,1,1.5-1.039c1.71.075,3.428.075,5.138,0a1.251,1.251,0,0,1,1.5,1.039Z" transform="translate(-6.225 -3.852)" fill="#849ead"/>
        <path id="Trazado_135471" data-name="Trazado 135471" d="M36.512,13.735c1.341-.008,2.681-.022,4.021-.021.394,0,.557-.014.3-.486a16.694,16.694,0,0,0-2.686-3.7.811.811,0,0,1-.1-.18,14.941,14.941,0,0,1,5.024,4.316c-.028.138-.1.133-.169.134l-6.037.008c-.12,0-.249.025-.352-.07" transform="translate(-10.052 -2.573)" fill="#859fae"/>
      </g>
    </g>
  </g>
</svg>
