<svg xmlns="http://www.w3.org/2000/svg" xmlns:xlink="http://www.w3.org/1999/xlink" width="240.048" height="255.473" viewBox="0 0 240.048 255.473">
  <defs>
    <clipPath id="clip-path">
      <rect id="Rect치ngulo_38033" data-name="Rect치ngulo 38033" width="177.571" height="134.676" fill="none"/>
    </clipPath>
  </defs>
  <g id="_6" data-name="6" transform="translate(-0.048 -33)">
    <g id="Grupo_87689" data-name="Grupo 87689" transform="translate(0.048 33)">
      <g id="Grupo_87397" data-name="Grupo 87397">
        <path id="Rect치ngulo_34437" data-name="Rect치ngulo 34437" d="M0,0H163.048a77,77,0,0,1,77,77V255.472a0,0,0,0,1,0,0H0a0,0,0,0,1,0,0V0A0,0,0,0,1,0,0Z" fill="#ffdfe0"/>
      </g>
    </g>
    <g id="Grupo_158805" data-name="Grupo 158805" transform="translate(31.048 93)">
      <g id="Grupo_158805-2" data-name="Grupo 158805" clip-path="url(#clip-path)">
        <path id="Trazado_134846" data-name="Trazado 134846" d="M0,17.366c1.587-3.375,4.639-5.028,7.8-6.455,7.3-3.3,15.072-4.966,22.906-6.373A281.135,281.135,0,0,1,60.553,1.012C72.881.138,85.222-.194,97.569.109c18.338.451,36.611,1.724,54.623,5.473a82.154,82.154,0,0,1,17.325,5.249,34.994,34.994,0,0,1,3.812,2.034,7.917,7.917,0,0,1,4.231,7.682c-.257,6.167-.072,12.353-.07,18.531,0,1.77-.507,3.192-2.447,3.659-.849.268-.942-.357-1.09-.919a9.243,9.243,0,0,1-.029-1.555,4.793,4.793,0,0,0-2.96-4.839c-2.1-1.031-3.928-.471-5.631.868a7.149,7.149,0,0,0-2.112,2.916c-.173.408-.3,1.053-.822.986-.642-.082-.554-.78-.6-1.271a8.814,8.814,0,0,0-1.2-3.936c-2.495-4.053-7.163-5.4-12.021-3.492a11.862,11.862,0,0,0-6.635,6.472,8.2,8.2,0,0,1-.491,1.106c-.148.229-.283.533-.644.428-.247-.072-.325-.315-.393-.532a11.727,11.727,0,0,1-.208-1.368,10.172,10.172,0,0,0-11.787-8.2c-5.284.871-9,3.648-10.942,8.7-.163.424-.295,1.032-.777,1.055-.641.03-.74-.651-.863-1.13a20.826,20.826,0,0,0-.919-3.333,11.665,11.665,0,0,0-12.336-6.653c-6.459.949-10.749,4.405-12.818,10.61-.191.573-.262,1.394-1.093,1.342-.676-.043-.81-.77-.966-1.3a14.362,14.362,0,0,0-7.714-9.123c-5.807-2.875-12.746-2.092-16.521,3.529a9.914,9.914,0,0,0-1.683,4.672c-.055.577-.106,1.284-.787,1.392-.765.122-.826-.67-1.023-1.162-2.218-5.531-6.449-8.245-12.243-8.707a10.153,10.153,0,0,0-10.5,8.625,10.676,10.676,0,0,1-.129,1.2c-.082.319-.115.733-.565.736-.329,0-.462-.317-.581-.571-.392-.836-.7-1.709-1.116-2.535-2.687-5.33-9.824-7.632-14.807-4.785a8.613,8.613,0,0,0-4.3,6.371c-.069.4-.036.81-.134,1.2-.068.275-.139.595-.461.664-.347.074-.5-.232-.643-.472-.388-.643-.641-1.359-1.055-1.987a5.66,5.66,0,0,0-5.068-2.81A5.033,5.033,0,0,0,4,37.887c-.661,1.254-.315,2.61-.457,3.917-.148.564-.237,1.2-1.092.933C1.135,42.591.627,41.525,0,40.6Z" transform="translate(0 0)" fill="#fa7a76"/>
        <path id="Trazado_134847" data-name="Trazado 134847" d="M171.243,109.035c2.956.1,3.791.94,3.8,3.87.01,6.872-.185,13.751.079,20.613.144,3.758-1.606,5.937-4.521,7.664-5.18,3.066-10.9,4.673-16.684,6.017a239.12,239.12,0,0,1-35.04,4.983,393.247,393.247,0,0,1-43.776.851c-15.739-.488-31.419-1.828-46.868-5.093C21.4,146.5,14.634,144.833,8.47,141.359c-3.213-1.811-5-4.164-4.823-8.189.3-6.743.075-13.51.085-20.266,0-2.935.832-3.763,3.8-3.869.611-.164.954.286,1.351.6,2.8,2.217,5.946,1.761,8.065-1.172a24.261,24.261,0,0,0,1.3-2.244c.24-.419.542-1.074,1.077-.2.427,2.3.129,4.609.2,6.911a8.07,8.07,0,0,0,4.029,8.386c3.319,1.96,6.859,1.674,10.293.075a17.033,17.033,0,0,0,2.348-1.465c1.125-.769,1.454-.612,1.613.771a13.074,13.074,0,0,0,.391,2.21,9.841,9.841,0,0,0,9.143,6.932c6.374.285,10.7-2.523,13.309-8.234.184-.4.294-1.045.82-.994.663.065.587.761.608,1.246a47.519,47.519,0,0,0,.334,5.517,6.948,6.948,0,0,0,4.353,5.606c5.152,2.259,13.974,2.44,19.3-4.446A14.973,14.973,0,0,0,88.3,124.06c.209-.621.237-1.546,1.137-1.512.757.028.823.865,1.018,1.448a14.091,14.091,0,0,0,11.47,10.063,17.735,17.735,0,0,0,7.725-.26c4.817-1.238,6.841-3.783,7.005-8.759.04-1.211-.066-2.425.072-3.634.038-.334.105-.74.511-.8.428-.069.575.338.706.637a17.566,17.566,0,0,0,1.555,2.9,12.406,12.406,0,0,0,10.308,5.71c4.014.166,7.255-1.021,9.567-4.393a9.667,9.667,0,0,0,1.581-4.7c.133-1.458.5-1.615,1.716-.751a13.584,13.584,0,0,0,7.367,2.594,8.621,8.621,0,0,0,9.208-9.622,50.463,50.463,0,0,1,.171-6.9c.41-.839.78-.42,1.066.075a25.117,25.117,0,0,0,1.383,2.375c2.109,2.877,5.231,3.307,8.029,1.106.395-.311.738-.754,1.344-.59" transform="translate(-0.64 -18.598)" fill="#fa7b76"/>
        <path id="Trazado_134848" data-name="Trazado 134848" d="M148.8,63.384c-.391.286-.31.711-.327,1.107-.17,3.943-2.491,6.384-6.351,6.471s-7.736.062-11.6,0c-2.506-.037-4.134-1.064-6.121-3.7a10.557,10.557,0,0,1-1.523,4.157c-1.544,2.162-3.871,2.6-6.263,2.648-4.27.088-8.544.073-12.815.009-3.207-.047-5.821-1.22-7.169-4.514-1.016.852-1.242,2.086-2.17,2.788a8.872,8.872,0,0,1-5.484,1.736c-4.1.021-8.2.068-12.3-.01-4.842-.091-7.142-1.663-8.157-6.957-1.948,3.573-5.1,4.006-8.521,3.87-3.4-.134-6.836.35-10.193-.2-3.647-.6-5.179-2.635-5.337-6.3-.017-.4.064-.821-.327-1.107-.478-1.054-.184-2.161-.194-3.239-.029-3.282-.04-6.566,0-9.846a12.964,12.964,0,0,1,1.8-7.247c2.873-4.5,7.8-6.082,13.4-4.459a14.251,14.251,0,0,1,9.438,8.73c.656-3.247,1.9-6.154,4.735-8.183a12.6,12.6,0,0,1,9.319-2.311c7.35.947,11.823,5.154,13.917,12.085a15.6,15.6,0,0,1,13.125-12.05c5.274-.638,9.553.827,12.725,5.2,1.119,1.541,1.382,3.389,2.023,5.059A14.617,14.617,0,0,1,136.1,38.084c4.819-.833,11.068,2.363,12.205,7.6a28.737,28.737,0,0,1,.679,4.587c.058,3.927-.012,7.851.045,11.775a2.213,2.213,0,0,1-.231,1.34" transform="translate(-7.727 -6.465)" fill="#f4eec9"/>
        <path id="Trazado_134849" data-name="Trazado 134849" d="M46.914,96.627a11,11,0,0,1,8.271-2.754,32.535,32.535,0,0,1,6.03.26c4.549.966,7.08,3.5,7.878,8.169.034.2.049.4.131,1.086a9.521,9.521,0,0,1,5.15-5.619,7.7,7.7,0,0,1,2.326-.587,59.869,59.869,0,0,1,11.915-.045c3.964.388,6.466,2.935,7.782,6.881.859-1.325,1.193-2.613,2.032-3.641a8.313,8.313,0,0,1,6.07-3.283,60.274,60.274,0,0,1,12.084.175,8.3,8.3,0,0,1,6.611,4.94c.116.249.271.479.526.923.649-4.219,2.373-7.467,6.519-8.625a25.227,25.227,0,0,1,12.286-.014c1.409.307,2.381,1.354,3.517,2.12,2.435,1.823,2.8,4.536,2.915,7.245.145,3.39.048,6.79.036,10.184-.18,4.839-1.826,8.94-6.656,10.711-7.213,2.644-15.529-.693-17.887-8.337a31.5,31.5,0,0,0-.433,5.751,6.72,6.72,0,0,1-4.637,6.476c-8.842,3.541-20.094.607-22.939-10.47C95,124.932,89.2,129.662,81.966,130.026a19.92,19.92,0,0,1-7.671-1.091c-3.725-1.308-5.4-3.655-5.348-7.565a33.015,33.015,0,0,0-.4-4.821C66.251,123,60.3,126.658,52.652,125.338a9.326,9.326,0,0,1-7.972-7.23,14.331,14.331,0,0,1-.7-4.033c-.01-3.4-.116-6.8.03-10.194.116-2.711.468-5.427,2.9-7.253" transform="translate(-7.738 -16.511)" fill="#f4eec9"/>
        <path id="Trazado_134850" data-name="Trazado 134850" d="M37.252,50.376c.006,3.914.006,7.827.023,11.742a3.872,3.872,0,0,1-.337,1.843,5.985,5.985,0,0,1-6.21,4.477c-2.6.012-5.2,0-7.793,0-4.472,0-6.794-2.1-7.264-6.574a19.974,19.974,0,0,1-7.273.2c-2.6-.318-5.1-3.491-4.808-5.947.183-1.536,0-3.113.04-4.672a1.741,1.741,0,0,0-.659-1.665c.69-.09.658-.62.678-1.116a5.571,5.571,0,0,1,6.233-4.426c3.209.512,5.734,3.234,5.555,5.345-.287-1.2.378-2.821,1.085-4.349a8.709,8.709,0,0,1,8.151-5.254,12.086,12.086,0,0,1,11.7,6.913,18.146,18.146,0,0,1,.881,3.483" transform="translate(-0.523 -7.042)" fill="#f8e9af"/>
        <path id="Trazado_134851" data-name="Trazado 134851" d="M171.164,63.945a4.607,4.607,0,0,1-.33-2.361q.009-5.612.017-11.224c.774-6.884,6.527-10.091,11.662-10.448a9.489,9.489,0,0,1,9.533,6.686c.341,1.185.8,2.3.535,3.159-.116-2.285,2.517-5.049,5.67-5.54a5.616,5.616,0,0,1,6.223,4.421c.016.5-.013,1.018.662,1.127a1.725,1.725,0,0,0-.66,1.664,40.452,40.452,0,0,0,.04,4.325c.45,3.372-3.215,6.881-6.528,6.446-1.8-.236-3.678.339-5.548-.444a6.95,6.95,0,0,1-2.4,5.267,7.421,7.421,0,0,1-5.044,1.42c-2.075-.079-4.156.008-6.234-.029a11.544,11.544,0,0,1-3.256-.229,5.783,5.783,0,0,1-4.34-4.24" transform="translate(-30.09 -7.027)" fill="#f8e9af"/>
        <path id="Trazado_134852" data-name="Trazado 134852" d="M40.42,96.025c-3.224,4.283-2.323,9.277-2.427,14.1-.026,1.209-.018,2.419-.026,3.628a5.81,5.81,0,0,1-3.475,2.9,12.274,12.274,0,0,1-10.017.117,7.358,7.358,0,0,1-4.81-6.2l-.087-7.584c-.748-.921-.148-1.869-.065-2.756a6.959,6.959,0,0,1-4.527,5.482c-3.043,1.168-5.656.1-7.158-2.92-.087-.176-.194-.269-.386-.14a13.973,13.973,0,0,1,.474-8.111c1.069-2.617,3.82-3.838,6.917-3.346,2.622.416,4.513,2.685,4.934,6.11,1.253-3.358,3.226-6.007,6.7-6.529,4.317-.648,8.823-1.172,12.218,2.687a23.531,23.531,0,0,1,1.736,2.565" transform="translate(-1.245 -15.909)" fill="#f8e9af"/>
        <path id="Trazado_134853" data-name="Trazado 134853" d="M170.336,113.768c-.007-2.825-.112-5.653,0-8.473a14.591,14.591,0,0,0-2.466-9.268c.766-1,1.214-2.218,2.216-3.066a8.575,8.575,0,0,1,6.08-2.466,9.713,9.713,0,0,0,1.385,0c5.294-.5,9.047,1.563,10.987,6.826.42-3.492,2.425-5.82,5.1-6.12,3.332-.373,5.9.9,6.877,3.675a14.2,14.2,0,0,1,.34,7.793c-.74.218-.646,1.041-1.1,1.507-1.528,1.553-3.253,2.391-5.449,1.861a7.038,7.038,0,0,1-5.272-4.768c-.123-.348-.134-.724-.288-1.47.125,1.335.726,2.281-.023,3.2l-.087,7.586a8.515,8.515,0,0,1-8.618,7.086,13.107,13.107,0,0,1-7.3-1.52,5.493,5.493,0,0,1-2.386-2.383" transform="translate(-29.57 -15.927)" fill="#f8e9af"/>
        <path id="Trazado_134854" data-name="Trazado 134854" d="M7.515,104.688l.191-1.058c1.126,2.7,2.793,4.446,5.677,4.1,3.375-.405,5.122-2.728,6.109-5.832.373.517.151,1.064.183,1.57s-.012,1.035-.023,1.553c-1.031,2.088-1.912,4.268-4.308,5.274-2.531,1.062-4.26.788-6.235-1.125-.286-.277-.6-.524-.9-.784-.03-1.27-.9-2.383-.691-3.7" transform="translate(-1.318 -17.949)" fill="#f9c076"/>
        <path id="Trazado_134855" data-name="Trazado 134855" d="M193.184,104.929v-3.552c1.172,3.582,2.987,6.034,6.612,6.276,2.747.184,4.254-1.58,5.337-4.1.089.5.138.769.188,1.043.213,1.316-.663,2.428-.69,3.7a.5.5,0,0,0-.143.094c-3.485,4.566-9.128,2.2-10.938-2.716a7.949,7.949,0,0,0-.366-.742" transform="translate(-34.028 -17.857)" fill="#f9c076"/>
        <path id="Trazado_134856" data-name="Trazado 134856" d="M175.038,47.493c-.854-1.333-1.522-2.787-3.152-3.477a5.883,5.883,0,0,0-7.171,1.967,8.842,8.842,0,0,0-1.686,3.236A11.371,11.371,0,0,0,162.2,45.2a9.339,9.339,0,0,0-10.158-5.84c-5.891.884-9.006,4.5-10.624,9.859a10.513,10.513,0,0,0-11.07-11.37c-5.985.38-10.63,3.538-12.745,9.477-.076.21-.161.417-.328.849-.357-1.363-.62-2.515-.959-3.645a11.8,11.8,0,0,0-12.843-7.867,15.544,15.544,0,0,0-12.145,7.785,21.156,21.156,0,0,0-1.9,5.334,22.964,22.964,0,0,0-2.356-5.966,15.164,15.164,0,0,0-11.457-7.1c-4.906-.557-8.8.952-11.723,4.93a10.924,10.924,0,0,0-1.878,4.775,2.97,2.97,0,0,1-.535,1.649,17.309,17.309,0,0,0-2.8-5.241,13.848,13.848,0,0,0-13.978-4.5,10.64,10.64,0,0,0-7.321,10.891c-1.046-3.211-2.427-6.2-5.478-8.038-3.851-2.324-8.714-2.891-12.426.04-2.591,2.044-3.58,4.807-3.633,8.384-1.1-3.489-2.917-5.981-6.437-6.147C6.693,43.33,4.868,45.052,3.78,47.5c-.259-2.561.205-4.782,2.582-6.308,3.2-2.056,6.855-.076,8.192,2.275.421.741.77,1.521,1.3,2.585a9.4,9.4,0,0,1,8.194-9.91,10.977,10.977,0,0,1,5.747.837,12.4,12.4,0,0,1,4.764,3.364c1.323,1.481,1.888,3.358,2.749,5.374a10.8,10.8,0,0,1,9.165-10.975c5.99-1.04,11.571,2.7,15.085,10.106.391-.165.429-.514.433-.865.084-6.278,6.886-11.5,13.6-10.451,6.831,1.07,11.171,4.7,13.267,11.188a8.54,8.54,0,0,0,.325.794c.019.044.082.068.3.234,2.471-8.459,8.2-12.963,16.884-12.288,6.441.5,9.991,4.92,10.863,11.436a13.655,13.655,0,0,1,8.048-9.075c7.233-2.982,14.236.046,15.964,7.252a16.822,16.822,0,0,1,.238,2.042c3.594-6.895,8.657-10.157,13.874-8.943,4.118.96,7.594,4.09,7.6,10.012.958-2.781,2.338-4.72,4.871-5.591a5.5,5.5,0,0,1,7.2,4.991c.014.634,0,1.27,0,1.9" transform="translate(-0.655 -5.883)" fill="#f9c076"/>
        <path id="Trazado_134857" data-name="Trazado 134857" d="M144.693,118.079a12.149,12.149,0,0,0,9.347,3.475c4.129-.184,7.071-2.065,8.609-5.9.1-.259.231-.508.347-.762.774,5.1-3.957,10.134-9.31,9.778-3.715-.247-4.7-.4-8.948-3.314a10.5,10.5,0,0,1-2.228,6.727,9.032,9.032,0,0,1-6.013,3.719c-6.265.676-12-.341-16.022-9.292-.3,1.971-.094,3.913-.268,5.851-.406,4.527-3.242,6.55-7.158,7.515a17.178,17.178,0,0,1-12.583-1.3,14.15,14.15,0,0,1-7.121-8.71c-.145-.483-.337-.952-.541-1.523-.9.7-.749,1.719-1.078,2.519a15.157,15.157,0,0,1-14.136,9.561,18.8,18.8,0,0,1-5.8-.679c-5.938-1.852-6.418-4.525-6.822-9.087-.12-1.354-.019-2.729-.137-4.14a15.761,15.761,0,0,1-5.683,7.381c-3.9,2.642-11.37,3.091-15.049-.423a10.252,10.252,0,0,1-3.443-8.218c-1.878,1.376-3.6,2.714-5.754,3.116-5.893,1.1-10.7-.582-12.452-6.726a8.616,8.616,0,0,1-.107-2.751,9.744,9.744,0,0,0,5.121,5.917c3.052,1.377,9.4,1.02,12.256-1.985a8.813,8.813,0,0,1,.926-.749c-.326,6.084,4.7,10.978,11.011,10.828a13.777,13.777,0,0,0,13.129-9.941c.8,1.647.548,3.325.449,4.92-.31,5,2.656,7.833,6.97,8.809,4.552,1.03,8.937.894,13.043-1.457a13.971,13.971,0,0,0,7.093-10.1c.04-.224.078-.447.129-.669.01-.042.073-.072.263-.248a22.611,22.611,0,0,0,1.608,4.991c2.734,5.148,7.111,7.712,12.8,8.054a15.648,15.648,0,0,0,9.777-2.173,6.905,6.905,0,0,0,3.146-5.816c.107-2.058-.27-4.147.445-6.558a16.582,16.582,0,0,0,3.869,6.643c4,4.069,12.74,4.854,16.819,1.022a10.485,10.485,0,0,0,3.491-8.3" transform="translate(-3.926 -20.238)" fill="#f9c076"/>
      </g>
    </g>
  </g>
</svg>
