<svg xmlns="http://www.w3.org/2000/svg" xmlns:xlink="http://www.w3.org/1999/xlink" width="295" height="154" viewBox="0 0 295 154">
  <defs>
    <clipPath id="clip-path">
      <rect id="Rect치ngulo_38078" data-name="Rect치ngulo 38078" width="147.649" height="132.118" fill="none"/>
    </clipPath>
  </defs>
  <g id="Grupo_158942" data-name="Grupo 158942" transform="translate(-180 -6606)">
    <rect id="Rect치ngulo_37921" data-name="Rect치ngulo 37921" width="295" height="154" transform="translate(180 6606)" fill="#a6bbff"/>
    <g id="Grupo_158941" data-name="Grupo 158941" transform="translate(254 6617)">
      <g id="Grupo_158940" data-name="Grupo 158940" clip-path="url(#clip-path)">
        <path id="Trazado_135836" data-name="Trazado 135836" d="M137.927,54.9a4.554,4.554,0,0,0-2.031-3.918,5.057,5.057,0,0,0-2.133-.216c-8.211-.021-16.423-.047-24.633.022a5.361,5.361,0,0,1-4.182-1.747q-12.979-13.1-26.055-26.1c-.306-.306-.61-.613-.918-.916-2.749-2.7-5.587-2.717-8.316,0Q56.045,35.61,42.473,49.237a4.784,4.784,0,0,1-3.685,1.541c-10.18-.048-20.361-.029-30.54-.017a2.986,2.986,0,0,0-2.08.337C3.978,51.224,1.581,50.628,0,52.87v6.344c.506,1.818,1.807,2.443,3.577,2.486.81.02,1.231.061,1.455.3.517.015,1.03.046,1.534.1.182-.467.651-.472,1.868-.472,11.238,0,22.475-.043,33.714.032A7.7,7.7,0,0,0,48.032,59.2c6.724-6.791,13.5-13.53,20.26-20.288,1.392-1.392,2.775-2.793,4.18-4.174,1.2-1.18,1.473-1.169,2.712.021.311.3.613.609.918.915Q87.92,47.494,99.727,59.323a7.415,7.415,0,0,0,5.647,2.334c9.412-.071,18.824-.028,28.237-.033a5.639,5.639,0,0,0,2.275-.223,4.407,4.407,0,0,0,2.013-3.483,23.487,23.487,0,0,0,.029-3.02" transform="translate(0 -9.017)" fill="#e6ebf5"/>
        <path id="Trazado_135837" data-name="Trazado 135837" d="M2.314,221.76l3.754.013a2.42,2.42,0,0,1,1.654-.351c1.2-.013,2.4-.007,3.6,0,24.17.045,48.339-.111,72.508-.05,17.154.043,34.308.026,51.461.056a4.037,4.037,0,0,1,2.253.289,23.253,23.253,0,0,1,0,10.158c-.48.015-.959.042-1.438.042q-65.939,0-131.878.034c-1.852,0-3.266-.438-4.229-2.047v-6.056c.422-1.083.638-2.394,2.314-2.083" transform="translate(0 -99.828)" fill="#5e54ab"/>
        <path id="Trazado_135838" data-name="Trazado 135838" d="M140.874,42.113c-4.081-.023-8.163-.028-12.244-.072-5.663-.063-11.328.166-16.99-.12Q105.6,35.946,99.558,29.969q-8.22-8.187-16.411-16.4c-2.954-2.95-5.581-2.937-8.549.031Q60.941,27.252,47.3,40.924a3.569,3.569,0,0,1-2.782,1.142c-10.568-.037-21.137-.023-31.706-.019-.527,0-1.054.036-1.581.055a70.9,70.9,0,0,1,2.95-8.375Q19.492,19.289,24.891,4.885C26.241,1.267,28.01.051,31.807.05q43.442,0,86.883,0c.383,0,.766.029,1.15.044a6.467,6.467,0,0,1,4.274,4.332c1.993,5.3,3.934,10.615,5.911,15.92q3.718,9.98,7.423,19.964c.26.7.63,1.176,1.439,1.155a58.893,58.893,0,0,0,7.47-.183l.3.576a.531.531,0,0,1-.511.577c-1.771.155-3.562.536-5.273-.321" transform="translate(-5.066 -0.021)" fill="#5e54ab"/>
        <path id="Trazado_135839" data-name="Trazado 135839" d="M235.573,41.258c-.082.616-.549.56-.981.561-2.3,0-4.608-.024-6.911.023-.718.015-.993-.3-1.22-.911q-5.234-14.2-10.5-28.391c-1-2.691-2.018-5.373-2.966-8.08-.711-2.027-2.286-3.23-3.935-4.389,2.5-.015,5-.141,7.484-.015,2.8.141,4.516,1.816,5.465,4.38q3.876,10.481,7.774,20.954,2.816,7.589,5.626,15.179a5.8,5.8,0,0,1,.167.69" transform="translate(-94.282 0)" fill="#524797"/>
        <path id="Trazado_135840" data-name="Trazado 135840" d="M247.369,76.457c1.92-.255,3.873.23,5.783-.256.951.517,1.981.243,2.974.274a2.8,2.8,0,0,1,3.061,3.025c.032,1.345.029,2.691,0,4.036a2.857,2.857,0,0,1-3.051,3.046c-2.713.029-2.713.029-2.713,2.751l0,66.739a.485.485,0,0,1-.474-.247,6.06,6.06,0,0,1-.268-2.7q-.012-31.619-.007-63.237c0-2.831,0-2.816-2.827-2.854-.842-.011-1.747.2-2.473-.469,2.5-3.091,2.5-6.8,0-10.112" transform="translate(-111.561 -34.366)" fill="#d7e1f0"/>
        <path id="Trazado_135841" data-name="Trazado 135841" d="M254.579,221.591a.276.276,0,0,0,.268-.021c.815.022,1.631.027,2.445.068,2.211.11,3.319,1.268,3.327,3.459,0,1.25.014,2.5,0,3.748a2.894,2.894,0,0,1-3.025,3.1c-2.353.018-4.706-.023-7.059-.039q.008-5.019.016-10.037c1.208-.747,2.52-.306,3.791-.329l.238.053" transform="translate(-112.988 -99.863)" fill="#524797"/>
        <path id="Trazado_135842" data-name="Trazado 135842" d="M11.115,149.638c-.038-.379-.109-.758-.109-1.137Q11,117.985,11,87.469c0-.239.023-.479.035-.718a3.333,3.333,0,0,1,2.355-.4c11.24-.012,22.48-.052,33.719.017a12.762,12.762,0,0,0,9.67-3.98c5.894-5.993,11.872-11.9,17.816-17.847.373-.374.742-.753,1.127-1.115,2.182-2.052,3.989-2.069,6.144.046,3.5,3.431,6.937,6.92,10.4,10.383,2.956,2.954,5.935,5.885,8.857,8.872a11.717,11.717,0,0,0,8.792,3.622c8.31-.019,16.619-.007,24.929-.006.48,0,.961-.007,1.441,0,2.726.064,3.961,1.281,4.029,3.97.008.288,0,.576,0,.865q0,28.028-.015,56.055c0,.858.33,1.846-.583,2.516q-21.478.026-42.953.006c-1.476,0-1.625-.147-1.716-1.629-.035-.576-.018-1.153-.018-1.729q0-19.459,0-38.917c0-.673.027-1.347-.04-2.017a2.591,2.591,0,0,0-2.675-2.639c-.383-.036-.768-.032-1.152-.032q-12.395,0-24.791,0c-3.01,0-3.846.856-3.861,3.869-.031,6.678.054,13.356-.04,20.032.029.761.009,1.523.018,2.286.019,1.611.114,1.709,1.688,1.738.763.014,1.526-.022,2.288.021.513.03,1.069-.009,1.4.522-.593.911-1.538.626-2.356.642-3.056.059-3-.272-3,2.978,0,4.224.017,8.449-.008,12.672-.013,2.132-.106,2.2-2.172,2.2q-23.832,0-47.663-.005a3.656,3.656,0,0,1-1.563-.114" transform="translate(-4.962 -27.909)" fill="#e9b04d"/>
        <path id="Trazado_135843" data-name="Trazado 135843" d="M139.926,141.636c-.015-3.7-.042-7.4-.043-11.1q-.007-23.928,0-47.857c0-2.967-.911-3.895-3.827-3.9-8.7,0-17.393-.031-26.09.015a12.3,12.3,0,0,1-9.25-3.832C94.4,68.576,88.021,62.249,81.667,55.9c-2.185-2.184-3.656-2.176-5.86.027q-9.736,9.733-19.473,19.463A11.189,11.189,0,0,1,48.2,78.78q-18.594.021-37.189,0c-.021-1.92-.031-3.84-.07-5.76-.012-.608.213-.893.838-.845.334.025.673,0,1.009,0,11.483,0,22.965-.033,34.446.029a6.838,6.838,0,0,0,5.243-2.158Q64.658,57.77,76.924,45.576c1.828-1.828,1.83-1.829,3.707.047Q92.862,57.852,105.079,70.1a6.524,6.524,0,0,0,4.97,2.109c10.231-.069,20.464-.049,30.7-.061,1.534.019,3.071.089,4.6.037.94-.032,1.241.265,1.224,1.222-.055,3.168-.02,6.337-.021,9.5q-.012,29.381-.026,58.76l-.1.043a37.157,37.157,0,0,1-6.5-.073" transform="translate(-4.934 -19.939)" fill="#e6a42e"/>
        <path id="Trazado_135844" data-name="Trazado 135844" d="M139.975,182.831l6.5.073c-1.289.455-2.627.068-3.933.234q-53.433-.015-106.867-.031-12.313,0-24.627-.029a.525.525,0,0,1,.085-.215q24.78.01,49.56.042c1.085,0,1.392-.317,1.377-1.387-.055-4.225-.044-8.452-.01-12.678.011-1.331-.575-3.022.25-3.9.841-.9,2.551-.178,3.872-.306.559-.054,1.158.173,1.67-.231.669-.83,1.741-1.523,1.065-2.841-.627-1.221-1.8-1.037-2.9-1.119-1.315-.1-2.69.374-3.942-.379-.008-7.106-.026-14.212-.015-21.319a2.953,2.953,0,0,1,3.139-3.178q13.612-.028,27.224,0c2.077.005,3.118,1.2,3.119,3.46q.011,20.959,0,41.919c0,1.934,0,1.935,1.936,1.935q20.454,0,40.909,0c.527,0,1.055-.032,1.582-.05" transform="translate(-4.984 -61.133)" fill="#8a5e5e"/>
        <path id="Trazado_135845" data-name="Trazado 135845" d="M117.058,90.041a9.55,9.55,0,1,1,9.61,9.611,9.536,9.536,0,0,1-9.61-9.611" transform="translate(-52.792 -36.265)" fill="#9cc5fa"/>
        <path id="Trazado_135846" data-name="Trazado 135846" d="M58.861,189.782c.008,2.208.035,4.416.017,6.624a2.714,2.714,0,0,1-2.539,2.933,14.5,14.5,0,0,1-2.712.23q-9.865-.016-19.73-.005c-.384,0-.77.02-1.151-.009-2.963-.223-3.856-1.189-3.849-4.181,0-1.871.032-3.743.049-5.614a1.952,1.952,0,0,1,1.483-.419c3.7-.007,7.39-.059,11.085.022q2.362-.067,4.724,0c3.671-.082,7.341-.027,11.012-.027a2.178,2.178,0,0,1,1.611.448" transform="translate(-13.032 -85.38)" fill="#a9807f"/>
        <path id="Trazado_135847" data-name="Trazado 135847" d="M215.327,189.759c.016,2.208.074,4.416.036,6.623a2.835,2.835,0,0,1-2.563,2.959,13.1,13.1,0,0,1-2.568.229q-9.793-.015-19.587,0a15.514,15.514,0,0,1-2.854-.254,2.66,2.66,0,0,1-2.392-2.77c-.027-2.256.005-4.512.013-6.769a2.173,2.173,0,0,1,1.609-.446c3.664,0,7.327-.059,10.99.026,1.574-.043,3.149-.047,4.724,0,3.661-.08,7.322-.027,10.982-.026a2.123,2.123,0,0,1,1.611.423" transform="translate(-83.608 -85.38)" fill="#aa807f"/>
        <path id="Trazado_135848" data-name="Trazado 135848" d="M202.627,165.537l-4.605.007a2.751,2.751,0,0,1-.455-2.051c-.018-2.831.01-5.662-.014-8.493-.013-1.5-.143-1.631-1.666-1.644-2.831-.023-5.662,0-8.493-.013a2.846,2.846,0,0,1-2.055-.455,28.994,28.994,0,0,1,.007-4.606,2.807,2.807,0,0,1,2.051-.458c2.781-.015,5.561.005,8.342-.01,1.706-.01,1.808-.108,1.818-1.779.016-2.781-.007-5.561.013-8.342a2.66,2.66,0,0,1,.455-2.044l4.332-.013c.839.467.711,1.3.719,2.04.031,2.776,0,5.554.018,8.331.011,1.683.124,1.8,1.792,1.81,2.777.018,5.554-.007,8.331.013a2.627,2.627,0,0,1,2.039.458q0,2.3,0,4.6a2.647,2.647,0,0,1-2.041.455c-2.825.02-5.65-.009-8.476.015-1.5.013-1.629.142-1.643,1.661-.024,2.825,0,5.65-.014,8.476a2.715,2.715,0,0,1-.457,2.045" transform="translate(-83.546 -61.171)" fill="#80b3fa"/>
        <path id="Trazado_135849" data-name="Trazado 135849" d="M46.224,165.545l-4.6-.007a2.713,2.713,0,0,1-.457-2.045c-.018-2.825.009-5.651-.014-8.476-.013-1.518-.14-1.648-1.643-1.661-2.825-.024-5.65.006-8.476-.015a2.651,2.651,0,0,1-2.041-.455q-.007-2.167-.014-4.334c.469-.84,1.3-.708,2.043-.716,2.828-.031,5.656,0,8.485-.019,1.516-.013,1.638-.135,1.651-1.653.024-2.828-.012-5.656.019-8.485.008-.744-.125-1.575.718-2.042l4.332.012a2.662,2.662,0,0,1,.455,2.044c.02,2.781,0,5.561.013,8.342.01,1.67.111,1.769,1.818,1.779,2.781.016,5.561,0,8.342.01a2.8,2.8,0,0,1,2.051.459,28.937,28.937,0,0,1,.007,4.607,2.849,2.849,0,0,1-2.055.454c-2.831.015-5.662-.011-8.493.013-1.523.013-1.653.14-1.666,1.644-.024,2.831,0,5.662-.014,8.493a2.75,2.75,0,0,1-.455,2.051" transform="translate(-13.067 -61.172)" fill="#80b3fa"/>
        <path id="Trazado_135850" data-name="Trazado 135850" d="M28.993,167.043c3.783,0,7.566.034,11.348-.015,1.017-.014,1.31.328,1.3,1.318-.046,3.782-.017,7.565-.015,11.348l-12.639.013q0-6.332.008-12.664" transform="translate(-13.072 -75.328)" fill="#9cc5fa"/>
        <path id="Trazado_135851" data-name="Trazado 135851" d="M60.373,179.7c0-3.744.047-7.49-.024-11.232-.022-1.167.359-1.463,1.476-1.444,3.743.061,7.488.023,11.232.023q0,6.341-.01,12.683L60.373,179.7" transform="translate(-27.217 -75.325)" fill="#9cc5fa"/>
        <path id="Trazado_135852" data-name="Trazado 135852" d="M185.411,167.043c3.744,0,7.489.039,11.232-.022,1.117-.019,1.5.278,1.475,1.444-.071,3.743-.025,7.488-.024,11.232l-12.673.028q0-6.341-.01-12.683" transform="translate(-83.619 -75.325)" fill="#9cc5fa"/>
        <path id="Trazado_135853" data-name="Trazado 135853" d="M216.888,179.694c0-3.783.03-7.566-.015-11.348-.012-.99.279-1.332,1.3-1.318,3.782.049,7.565.017,11.347.015q0,6.331.009,12.663l-12.638-.012" transform="translate(-97.807 -75.328)" fill="#9cc5fa"/>
        <path id="Trazado_135854" data-name="Trazado 135854" d="M41.868,135.614a2.807,2.807,0,0,0-.274,1.668c0,3.252-.029,6.505.016,9.756.013.938-.294,1.247-1.233,1.234-3.251-.045-6.5-.018-9.756-.017a2.82,2.82,0,0,0-1.669.273c-.009-3.208-.043-6.416-.018-9.623a3.033,3.033,0,0,1,3.311-3.313c3.207-.025,6.415.011,9.622.021" transform="translate(-13.045 -61.147)" fill="#9cc5fa"/>
        <path id="Trazado_135855" data-name="Trazado 135855" d="M73.05,148.261c-3.739,0-7.479-.038-11.218.019-1.1.017-1.507-.253-1.483-1.434.073-3.738.025-7.479.023-11.218,3.2-.014,6.407-.065,9.61-.026a2.909,2.909,0,0,1,3.1,3.049c.029,3.2-.014,6.407-.027,9.61" transform="translate(-27.216 -61.149)" fill="#9cc5fa"/>
        <path id="Trazado_135856" data-name="Trazado 135856" d="M198.071,135.627c0,3.739-.051,7.48.023,11.218.023,1.181-.384,1.451-1.483,1.435-3.739-.057-7.479-.02-11.218-.019-.013-3.2-.055-6.407-.028-9.61a2.911,2.911,0,0,1,3.1-3.049c3.2-.04,6.407.013,9.61.026" transform="translate(-83.594 -61.148)" fill="#9cc5fa"/>
        <path id="Trazado_135857" data-name="Trazado 135857" d="M229.305,148.263q-4.461,0-8.922-.008c-3.7,0-3.7,0-3.7-3.774q0-3.6,0-7.2a2.823,2.823,0,0,0-.275-1.674c3.211-.01,6.422-.047,9.632-.022a3.005,3.005,0,0,1,3.3,3.185c.035,3.163-.016,6.326-.031,9.488" transform="translate(-97.598 -61.146)" fill="#9dc5f8"/>
        <path id="Trazado_135858" data-name="Trazado 135858" d="M103.974,180.193c1.678,0,3.356-.02,5.034,0a2.2,2.2,0,0,1,2.446,1.927,1.984,1.984,0,0,1-1.7,2.407c-1.519-.008-3.038-.06-4.555-.008-.907.031-1.3-.238-1.241-1.2.068-1.039.016-2.087.017-3.131" transform="translate(-46.881 -81.262)" fill="#fecf64"/>
        <path id="Trazado_135859" data-name="Trazado 135859" d="M128.428,162.7c-1.634,0-3.268.03-4.9-.008a1.965,1.965,0,0,1-2.205-2.227q-.03-2.594,0-5.189c.016-1.463.641-2.219,2.037-2.238q5.188-.072,10.378,0a1.879,1.879,0,0,1,2,2.137c-.011,1.778.015,3.556-.008,5.334a1.928,1.928,0,0,1-2.109,2.176c-1.728.048-3.459.012-5.189.012" transform="translate(-54.709 -69.001)" fill="#9cc5fa"/>
      </g>
    </g>
  </g>
</svg>
