<svg xmlns="http://www.w3.org/2000/svg" xmlns:xlink="http://www.w3.org/1999/xlink" width="240.048" height="255.473" viewBox="0 0 240.048 255.473">
  <defs>
    <clipPath id="clip-path">
      <rect id="Rect치ngulo_38034" data-name="Rect치ngulo 38034" width="198.439" height="204.822" fill="none"/>
    </clipPath>
  </defs>
  <g id="_7" data-name="7" transform="translate(-0.048 -33)">
    <g id="Grupo_87689" data-name="Grupo 87689" transform="translate(0.048 33)">
      <g id="Grupo_87397" data-name="Grupo 87397">
        <path id="Rect치ngulo_34437" data-name="Rect치ngulo 34437" d="M0,0H163.048a77,77,0,0,1,77,77V255.472a0,0,0,0,1,0,0H0a0,0,0,0,1,0,0V0A0,0,0,0,1,0,0Z" fill="#ffdfe0"/>
      </g>
    </g>
    <g id="Grupo_158806" data-name="Grupo 158806" transform="translate(21.048 58)">
      <g id="Grupo_158806-2" data-name="Grupo 158806" clip-path="url(#clip-path)">
        <path id="Trazado_134858" data-name="Trazado 134858" d="M97.222,8c1.367-2.8,2.5-5.749,4.785-8h2.4c2.05,1.554,2.939,3.916,3.962,6.1a11.246,11.246,0,0,0,6.177,6.08,30.954,30.954,0,0,1,4.019,2.2c2.745,1.617,2.745,4.3-.031,5.912-2.183,1.269-4.4,2.473-6.649,3.631a4.583,4.583,0,0,0-2.063,2.053c-1.169,2.24-2.366,4.467-3.629,6.653-1.624,2.81-4.259,2.8-5.855-.042a35.1,35.1,0,0,1-3.181-6.182,4.528,4.528,0,0,1,2.631-3.047,64.872,64.872,0,0,0,6.428-3.6c2.295-1.486,2.253-3.294-.024-4.857-2.195-1.509-4.687-2.5-6.926-3.934A3.6,3.6,0,0,1,97.222,8" transform="translate(-4.801 0)" fill="#feab1f"/>
        <path id="Trazado_134859" data-name="Trazado 134859" d="M120.855,208.065c-15.191.017-30.383.006-45.575.087-1.83.009-1.637-1.014-1.636-2.163q.007-42.679,0-85.356c0-10.061.145-20.126-.041-30.184-.181-9.683,3.353-17.311,11.5-22.687,1.015.794.709,1.936.712,2.952.026,11.169.123,22.341-.018,33.508-.114,8.959,3.846,15.084,12.039,18.552,6.472,2.216,12.311,1,17.509-3.343a18.233,18.233,0,0,0,4.319-5.189c.294-.53.781-1.818,1.608-.293a11.732,11.732,0,0,1,.213,3.182q.007,43.643-.009,87.287c0,1.236.29,2.554-.625,3.646" transform="translate(-3.637 -3.349)" fill="#f7c8ae"/>
        <path id="Trazado_134860" data-name="Trazado 134860" d="M193.642,209.29q-22.78.024-45.559.075c-1.344.006-1.674-.461-1.673-1.732.03-31.973-.1-63.947.125-95.917.047-6.78,3.4-12.465,8.766-16.784.867-.7,1.889-1.245,2.269-2.4.909.854.636,1.981.638,3.01.023,11.51.118,23.02-.02,34.529-.1,8.612,3.9,14.371,11.561,17.856.3.138.616.253.912.4,8.442,2.886,17.558-1.65,21.485-9.11.316-.6.387-1.882,1.709-1.212a5.844,5.844,0,0,1,.418,2.934q.013,32.654,0,65.308c0,1.046.175,2.154-.626,3.047" transform="translate(-7.235 -4.573)" fill="#f7c8ae"/>
        <path id="Trazado_134861" data-name="Trazado 134861" d="M47.229,209.334c-15.182.017-30.363,0-45.544.089-2.015.011-1.661-1.182-1.661-2.331Q.018,160.147.006,113.2a20.2,20.2,0,0,1,.625-4.917C2.206,101.98,5.5,96.849,11.186,93.445c.866.876.6,2,.606,3.033.021,10.929.214,21.862-.048,32.785-.226,9.424,4.068,15.545,12.518,19.11,8.832,2.714,17.188-1.342,21.486-9.125.317-.575.5-2.3,1.9-.849a11.467,11.467,0,0,1,.216,3.181q.009,32.054-.009,64.108c0,1.235.29,2.552-.624,3.645" transform="translate(0 -4.618)" fill="#f7c8ae"/>
        <path id="Trazado_134862" data-name="Trazado 134862" d="M123.3,208.1q-.009-45.989-.017-91.976c0-.933-.014-1.866-.022-2.8a2.46,2.46,0,0,1,0-2.118,36.011,36.011,0,0,0,1-8.9q-.05-15.271,0-30.541c0-1.1-.241-2.286.626-3.236,6.175,4.25,10.246,10.113,10.29,17.561.236,40.11.126,80.221.166,120.332,0,1.253-.282,1.791-1.651,1.752-3.462-.1-6.928-.06-10.392-.077" transform="translate(-6.079 -3.387)" fill="#feb09c"/>
        <path id="Trazado_134863" data-name="Trazado 134863" d="M25,147.768c-7.547-2.3-13.359-9.7-13.257-17.728.161-12.592.032-25.188.026-37.782.226-3.288-.394-6.622.562-9.874A18.446,18.446,0,0,1,24.638,69.449,16.014,16.014,0,0,1,34.766,78.21c-.062,1.051-.893,1.594-1.533,2.239q-7.6,7.631-15.222,15.236A11.787,11.787,0,0,0,16.527,97.3c-.715,1.046-.9,2.135.152,3.041,1,.859,1.972.5,2.834-.33,1.194-1.156,2.357-2.343,3.533-3.517,3.763-3.758,7.5-7.538,11.3-11.262.638-.625,1.248-1.753,2.467-.815.788,3.429.278,6.893.31,10.337a4.653,4.653,0,0,1-1.779,2.8q-8.686,8.7-17.381,17.387A8.666,8.666,0,0,0,16.28,116.9a1.837,1.837,0,0,0,.48,2.5,1.757,1.757,0,0,0,2.375.068,13.984,13.984,0,0,0,1.615-1.487c4.526-4.52,9.031-9.061,13.587-13.55.637-.628,1.247-1.758,2.472-.827.795,3.429.279,6.894.313,10.339a4.644,4.644,0,0,1-1.775,2.794q-6.771,6.783-13.55,13.557c-1.868,1.874-2.1,2.746-1.092,3.854,1.036,1.136,2.175.88,4.037-.968,3.307-3.281,6.567-6.61,9.91-9.855.554-.537,1.038-1.744,2.224-.864.481,6.379,1.046,12.752-3.1,18.375A20.152,20.152,0,0,1,25,147.768" transform="translate(-0.58 -3.432)" fill="#d1f0f6"/>
        <path id="Trazado_134864" data-name="Trazado 134864" d="M196.076,209.039q-.009-34.619-.029-69.237c0-.764.291-1.607-.351-2.286-.227-2.265.584-4.426.568-6.7-.093-13.316-.055-26.632-.031-39.949,0-1.16-.3-2.427.7-3.4.08.181.258.379.226.538-.742,3.795,1.243,6.054,3.919,8.492a21.587,21.587,0,0,1,6.986,16.575q-.006,46.84.047,93.68c0,1.975-.551,2.484-2.449,2.381-3.187-.171-6.389-.075-9.584-.092" transform="translate(-9.669 -4.322)" fill="#feb09c"/>
        <path id="Trazado_134865" data-name="Trazado 134865" d="M98.611,122.211a18.256,18.256,0,0,1-12.8-17.844c-.047-11.793-.011-23.586-.019-35.379,0-.8-.058-1.594-.089-2.391.308-2.956-.238-5.96.521-8.894,1.738-6.719,5.785-11.3,12.427-13.5,3.011.4,5.243,2.226,7.2,4.282,3.45,3.625,5.539,7.914,5.331,13.07-.135,3.364.374,6.747-.309,10.093-.876.9-1.754.326-2.546-.088-5.531-2.892-9.2-7.145-9.8-13.6-.025-.265-.036-.532-.081-.795A2.041,2.041,0,0,0,96.326,55.2c-1.333,0-1.838.886-1.937,2.085a13.073,13.073,0,0,0,.9,6.069,23.025,23.025,0,0,0,12.534,12.752c1.179.523,2.651.635,3.237,2.1a47.286,47.286,0,0,1-.015,9.465c-.444,1.063-1.347.714-2.059.547A23.685,23.685,0,0,1,95.5,80.253a9.731,9.731,0,0,1-1.471-3.033c-.432-1.221-1.166-2.2-2.637-1.86-1.429.327-1.467,1.55-1.422,2.719.086,2.274,1.342,4.009,2.758,5.613a27.784,27.784,0,0,0,15.316,8.768c1.06.234,2.318.119,2.976,1.313a42.846,42.846,0,0,1,.025,9.532c-.4.975-1.226.952-2.017.758-6.024-1.481-11.753-3.515-15.729-8.7a2.03,2.03,0,0,0-2.445-.842c-1.051.368-1.279,1.25-1.275,2.252a4.009,4.009,0,0,0,1.526,2.922,34.619,34.619,0,0,0,14.932,8.117c1.442.4,3.084.266,4.28,1.423.267,1.624-.6,2.96-1.271,4.267a19.111,19.111,0,0,1-8.346,8.18,4.863,4.863,0,0,1-2.088.531" transform="translate(-4.236 -2.184)" fill="#5198e7"/>
        <path id="Trazado_134866" data-name="Trazado 134866" d="M49.665,209.345q-.007-34.412-.017-68.824c0-.93-.029-1.86-.046-2.791a2.512,2.512,0,0,1-.145-2.117,50.311,50.311,0,0,0,.768-9.133c-.043-9.85-.025-19.7,0-29.55,0-1.107-.226-2.284.592-3.255,5.718,3.4,8.84,8.616,10.429,14.911a22.48,22.48,0,0,1,.433,5.549q.006,46.566.035,93.131c0,1.587-.3,2.25-2.056,2.169-3.324-.153-6.659-.073-9.989-.09" transform="translate(-2.436 -4.629)" fill="#feb09c"/>
        <path id="Trazado_134867" data-name="Trazado 134867" d="M171.421,147.785a18.654,18.654,0,0,1-13.253-17.666c.12-12.909,0-25.82-.018-38.729.138-3.306-.355-6.651.785-9.89a18.266,18.266,0,0,1,12.11-12.014c5.646,1.616,9.049,5.617,11.223,10.794,1.031,2.456,1.76,5.047.97,7.776-1.087.683-1.556-.327-2.1-.857-3.093-3.023-6.131-6.1-9.192-9.157a8.627,8.627,0,0,0-1.319-1.216,2.109,2.109,0,0,0-2.91.126,2.15,2.15,0,0,0-.067,2.924,10.889,10.889,0,0,0,1.359,1.458q6.562,6.566,13.121,13.133c.737.741,1.654,1.413,1.482,2.676-.106,3.627.189,7.258-.172,10.875-.252.817-.76.811-1.372.4a10.245,10.245,0,0,1-1.478-1.341q-6.646-6.64-13.289-13.283a5.68,5.68,0,0,0-2.209-1.671,2.145,2.145,0,0,0-2.645,3.258,10.9,10.9,0,0,0,1.6,1.782q8.832,8.838,17.666,17.672a4.806,4.806,0,0,1,1.813,2.791,102.919,102.919,0,0,1-.059,11.112c-.273.944-.83.885-1.493.406a12.556,12.556,0,0,1-1.462-1.355q-6.985-6.981-13.967-13.964a14.8,14.8,0,0,0-1.3-1.241,2.168,2.168,0,0,0-3.075-.077c-1.047,1.007-.81,2.175.072,3.207.734.859,1.576,1.62,2.375,2.419q8.109,8.115,16.215,16.231c.641.643,1.48,1.181,1.534,2.24-2.018,5.32-5.886,8.831-10.943,11.178" transform="translate(-7.816 -3.434)" fill="#fe8db1"/>
        <path id="Trazado_134868" data-name="Trazado 134868" d="M49.627,92.434c-.01,10.883-.049,21.766-.014,32.65a40.937,40.937,0,0,1-1.195,11.406,20.893,20.893,0,0,1-7.871,9.252,17.841,17.841,0,0,1-14.878,1.983c.019-.786.709-.89,1.21-1.159,6.873-3.686,10.539-9.3,10.4-17.223-.043-2.4-.013-4.8-.016-7.2-.2-.982.6-1.416,1.13-1.959,1.949-2.01,3.969-3.949,5.915-5.96.919-.95,1.73-2,.581-3.3-.868-.98-2.161-.737-3.522.394-1.337,1.111-2.111,2.941-4.081,3.26,0-3.127,0-6.255-.022-9.381-.006-.638.22-1.352-.41-1.862-.171-.969.612-1.408,1.139-1.951,1.754-1.807,3.553-3.568,5.33-5.353a5.124,5.124,0,0,0,1.144-1.365,2.039,2.039,0,0,0-.337-2.559,1.837,1.837,0,0,0-2.538-.05,28.761,28.761,0,0,0-2.32,2.17c-.57.514-1,1.283-1.948,1.193-.018-3.124-.025-6.247-.064-9.371-.009-.638.22-1.345-.365-1.88-.022-1.74,1.639-2.259,2.476-3.372,1.056-1.406.986-2.587-.352-3.341a1.973,1.973,0,0,0-2.079.075c-.5.283-.916.816-1.6.652A24.535,24.535,0,0,0,25.307,69.4a18.517,18.517,0,0,1,23.777,13.9,36.642,36.642,0,0,1,.543,9.126" transform="translate(-1.251 -3.388)" fill="#95e4fe"/>
        <path id="Trazado_134869" data-name="Trazado 134869" d="M111.313,103.7q0-5.187,0-10.376c.615-.63,1.364-.409,2.07-.289a12.639,12.639,0,0,0,4.553-.356c.991-.191,1.805-.677,1.817-1.8a2.05,2.05,0,0,0-1.824-2.065,22.807,22.807,0,0,0-3.982-.156c-.906-.048-1.888.2-2.641-.57q0-5.183.01-10.367c2.068-.761,3.985.51,6.009.46a7.481,7.481,0,0,0,2.361-.019,2.181,2.181,0,0,0,1.739-1.945c.057-1.1-.682-1.664-1.6-2.029a6.313,6.313,0,0,0-2.353-.331,15.343,15.343,0,0,1-4.5-.729c-.717-.22-1.6-.352-1.662-1.4,0-3.53-.1-7.064.029-10.589.236-6.249-4.407-13.625-10.841-16.278a8.477,8.477,0,0,1-1.169-.717c9.363-3.649,20.911,2.571,23.572,12.661.91,3.451.614,6.974.814,10.47-.029,11.151-.1,22.3-.065,33.457a31.952,31.952,0,0,1-1.561,11.336c-2.857,5.406-6.994,9.252-13.111,10.609a16.4,16.4,0,0,1-9.692-.523c3.883-1.876,7.29-4.283,9.55-8.106.892-1.508,1.337-3.175,2.072-4.73.728-.726,1.607-.483,2.451-.352a9.65,9.65,0,0,0,2.984.112c1-.157,1.8-.6,1.919-1.717a1.959,1.959,0,0,0-1.564-2.235,13.156,13.156,0,0,0-3.351-.494c-.784-.035-1.644.007-2.03-.932" transform="translate(-4.906 -2.13)" fill="#308efe"/>
        <path id="Trazado_134870" data-name="Trazado 134870" d="M183.669,88.184c.295-8.429-3.607-14.312-10.971-18.1a10.965,10.965,0,0,1-.982-.644c11.924-3.979,24.05,5.289,24.031,17.089q-.03,21.74-.067,43.48a11.544,11.544,0,0,1-.371,4.336c-.288.736-.532,1.489-.8,2.235-2.781,8.1-12.948,14.241-22.42,11.159.757-1.665,2.65-1.746,3.9-2.769a19.242,19.242,0,0,0,6.212-7.747c.107-.271.452-.448.686-.669.894-.217,1.283.546,1.837.967,1.291.98,2.485,1,3.361-.023,1-1.175.521-2.222-.374-3.186-1.132-1.221-2.372-2.339-3.5-3.568-.344-.375-.8-.75-.538-1.381q0-6.205,0-12.412c.977-.207,1.4.6,1.954,1.111,1.173,1.071,2.18,2.326,3.439,3.3,1.1.854,2.369,1.087,3.426.019,1.124-1.134.643-2.349-.3-3.352-2.358-2.512-4.871-4.876-7.267-7.351-.568-.586-1.441-1.038-1.268-2.092.006-3.376,0-6.753.026-10.129,0-.635-.221-1.34.366-1.872.915-.067,1.447.576,2.017,1.119,1.058,1.008,2.067,2.067,3.113,3.087,1,.975,2.06,1.2,3.155.177a2.032,2.032,0,0,0,.006-3.169c-2.383-2.592-4.971-4.987-7.414-7.521-.565-.587-1.453-1.03-1.263-2.094" transform="translate(-8.486 -3.385)" fill="#fe78a2"/>
        <path id="Trazado_134871" data-name="Trazado 134871" d="M47.083,37.822c.99-1.877,1.915-3.791,2.985-5.622,1.446-2.476,4.38-2.64,5.509-.07A19.806,19.806,0,0,0,66.337,42.878a2.884,2.884,0,0,1,.014,5.382A19.793,19.793,0,0,0,55.589,58.987c-1.1,2.612-4.022,2.434-5.521-.08-1.052-1.765-1.957-3.618-2.928-5.432-.641-1.458.39-2.068,1.394-2.616,1.694-.925,3.465-1.709,5.083-2.776,2.3-1.514,2.341-3.222.116-4.891-1.769-1.327-3.888-2.045-5.718-3.273-.781-.524-1.4-1.049-.933-2.1" transform="translate(-2.319 -1.496)" fill="#feab1f"/>
        <path id="Trazado_134872" data-name="Trazado 134872" d="M144.308,37.868c1.038-1.931,2-3.9,3.133-5.78,1.418-2.357,4.323-2.488,5.395,0a19.546,19.546,0,0,0,10.75,10.762,2.857,2.857,0,0,1,.084,5.365,20.47,20.47,0,0,0-10.9,10.9c-1.066,2.41-3.914,2.279-5.3,0-1.17-1.923-2.131-3.973-3.184-5.968-.47-1.259.569-1.653,1.305-2.128,1.679-1.085,3.552-1.827,5.231-2.925,2.415-1.58,2.439-3.606-.06-5.126-1.705-1.038-3.506-1.921-5.219-2.95-.769-.463-1.733-.91-1.233-2.145" transform="translate(-7.125 -1.496)" fill="#feab1f"/>
        <path id="Trazado_134873" data-name="Trazado 134873" d="M96.638,8.418c.929,2,2.785,2.915,4.586,3.893,1.575.856,3.193,1.644,4.72,2.58,2.6,1.59,2.619,3.983.07,5.628-1.392.9-2.834,1.728-4.3,2.5-1.917,1.006-3.943,1.838-5.141,3.8a8.282,8.282,0,0,0-3.979-3.377c-1.773-.893-3.507-1.866-5.227-2.856-2.69-1.548-2.695-4.146,0-5.728q2.569-1.506,5.236-2.841a8.054,8.054,0,0,0,4.032-3.6" transform="translate(-4.218 -0.416)" fill="#fec159"/>
        <path id="Trazado_134874" data-name="Trazado 134874" d="M143.835,38.263c.074,1.026.849,1.414,1.621,1.84,1.915,1.058,3.866,2.065,5.705,3.244a2.95,2.95,0,0,1-.1,5.312c-1.882,1.117-3.847,2.1-5.74,3.195-.657.381-1.5.681-1.512,1.683a4.261,4.261,0,0,0-1.993-1.827c-1.713-.874-3.377-1.84-5.07-2.753-1.226-.661-2.2-1.45-2.146-3.044a3.219,3.219,0,0,1,2.064-2.9c1.707-.882,3.349-1.895,5.068-2.752a4.965,4.965,0,0,0,2.1-2" transform="translate(-6.652 -1.891)" fill="#fec159"/>
        <path id="Trazado_134875" data-name="Trazado 134875" d="M46.605,38.215c-.057.86.448,1.277,1.152,1.655,1.981,1.066,3.991,2.1,5.87,3.332,2.634,1.727,2.484,4.178-.259,5.72q-2.6,1.462-5.245,2.831c-.881.459-1.58.991-1.46,2.116a4.979,4.979,0,0,0-2.507-2.387c-1.654-.842-3.285-1.735-4.892-2.664-2.683-1.551-2.677-4.164.022-5.741,1.66-.97,3.347-1.9,5.065-2.76a4.882,4.882,0,0,0,2.254-2.1" transform="translate(-1.841 -1.889)" fill="#fec159"/>
        <path id="Trazado_134876" data-name="Trazado 134876" d="M104.06,180.845c3.447.339,6.837-.309,10.208.4a2.787,2.787,0,0,1,2.477,2.887,2.752,2.752,0,0,1-2.517,2.861,15.52,15.52,0,0,1-2.549.321c-5.055-.011-10.11-.023-15.166.01a11.423,11.423,0,0,1-2.741-.4c-1.562-.369-2.084-1.394-2.056-2.931a2.484,2.484,0,0,1,2.1-2.7c3.419-.829,6.89-.093,10.247-.446" transform="translate(-4.533 -8.937)" fill="#feb19d"/>
        <path id="Trazado_134877" data-name="Trazado 134877" d="M104.2,198.27c-3.065,0-6.128.012-9.193,0-1.985-.011-3.239-1.154-3.267-2.923a2.96,2.96,0,0,1,3.185-3.054q9.392-.067,18.785,0a3.2,3.2,0,0,1,3.175,2.969c.047,1.7-1.3,2.98-3.293,3-3.13.041-6.261.011-9.393.011" transform="translate(-4.534 -9.501)" fill="#feb09d"/>
        <path id="Trazado_134878" data-name="Trazado 134878" d="M177.108,187.308c-2.762-.264-6.165.41-9.532-.352a2.936,2.936,0,0,1-.1-5.672,11.614,11.614,0,0,1,2.747-.38c5.063.026,10.127.036,15.189-.009a9.962,9.962,0,0,1,2.935.462,2.791,2.791,0,0,1,2.143,2.8,2.88,2.88,0,0,1-2.233,2.743,11.629,11.629,0,0,1-3.542.418c-2.33-.043-4.664-.012-7.607-.012" transform="translate(-8.171 -8.94)" fill="#feb19d"/>
        <path id="Trazado_134879" data-name="Trazado 134879" d="M177.706,198.269c-3.064,0-6.128.018-9.192,0a2.983,2.983,0,1,1-.238-5.96c6.461-.068,12.923-.057,19.383,0a3.2,3.2,0,0,1,2.845,3.075,2.93,2.93,0,0,1-3.007,2.874c-3.263.065-6.528.018-9.792.02" transform="translate(-8.172 -9.501)" fill="#feb09d"/>
        <path id="Trazado_134880" data-name="Trazado 134880" d="M29.927,187.308c-2.757-.27-6.151.4-9.517-.332a2.583,2.583,0,0,1-2.319-2.914,2.531,2.531,0,0,1,2.22-2.8,12.3,12.3,0,0,1,2.746-.356c4.856.019,9.711.009,14.567.01,3.628,0,5.514,1.068,5.564,3.145.051,2.127-1.9,3.245-5.663,3.246h-7.6" transform="translate(-0.894 -8.94)" fill="#feb19d"/>
        <path id="Trazado_134881" data-name="Trazado 134881" d="M30.34,198.271c-3.059,0-6.118.025-9.176-.009-2.162-.024-3.077-.971-3.051-3.032a2.882,2.882,0,0,1,3.031-2.948q9.375-.036,18.751,0a3.33,3.33,0,0,1,3.2,2.929,2.905,2.905,0,0,1-3.177,3.051c-3.191.035-6.383.01-9.575.01" transform="translate(-0.895 -9.502)" fill="#feb09c"/>
        <path id="Trazado_134882" data-name="Trazado 134882" d="M36.84,96.593q1.574-1.519,3.148-3.039c1.643-1.59,2.906-1.775,4.145-.6,1.128,1.069.937,2.694-.511,4.175q-3.617,3.7-7.251,7.379-7.717,7.664-15.436,15.329a11.108,11.108,0,0,1-1.465,1.346,2.264,2.264,0,0,1-3.075-.35,2.183,2.183,0,0,1-.5-2.887,8.7,8.7,0,0,1,1.4-1.669q9.763-9.851,19.546-19.685" transform="translate(-0.769 -4.556)" fill="#4890e2"/>
        <path id="Trazado_134883" data-name="Trazado 134883" d="M37.018,116.725c1.341-1.291,2.674-2.589,4.026-3.869a2.76,2.76,0,0,1,3.909-.275c1.134,1.078,1.066,2.435-.3,3.855-2.532,2.639-5.106,5.238-7.662,7.854l-11.2,11.023c-.473.466-.922.96-1.425,1.391-1.231,1.054-2.51,1.22-3.692-.041a2.326,2.326,0,0,1,.09-3.534c1-1.061,2.06-2.071,3.087-3.108q6.585-6.646,13.166-13.295" transform="translate(-0.984 -5.53)" fill="#4890e2"/>
        <path id="Trazado_134884" data-name="Trazado 134884" d="M34.854,78.608a17.567,17.567,0,0,1,1.575-1.184,2.327,2.327,0,0,1,3.183.652,2.128,2.128,0,0,1,.048,3.051c-1.038,1.195-2.162,2.315-3.248,3.467L21.4,99.483c-.425.422-.858.836-1.27,1.27a2.433,2.433,0,0,1-3.7.323c-1.165-.974-1.164-2.6.074-3.878,2.5-2.582,5.077-5.083,7.6-7.639Q29.494,84.1,34.854,78.608" transform="translate(-0.769 -3.807)" fill="#4890e2"/>
        <path id="Trazado_134885" data-name="Trazado 134885" d="M111.055,72.325c1.592,1.279,3.562,1.276,5.435,1.574a13.317,13.317,0,0,0,1.6.019c2.51.091,3.962,1.295,3.764,3.108-.194,1.771-2.231,2.815-4.55,2.378-2.072-.391-4.156-.725-6.234-1.085a25.088,25.088,0,0,1-13.592-9.86A16.506,16.506,0,0,1,94.227,58.2c.087-1.646.407-2.928,2.3-3.073,1.844-.143,2.856.886,2.926,2.947.23,6.8,5.122,11.81,10.81,14.172a2.749,2.749,0,0,0,.79.078" transform="translate(-4.656 -2.724)" fill="#3277d8"/>
        <path id="Trazado_134886" data-name="Trazado 134886" d="M110.828,89.729c1.981.008,3.963.008,5.944.027,1.727.016,3.166,1.132,3.249,2.494.093,1.551-.946,2.29-2.935,2.757a16.951,16.951,0,0,1-6.251-.042c-8.727-1.3-16.025-4.893-20.626-12.838a6.628,6.628,0,0,1-.528-4.076c.094-1.182,1.1-1.666,2.091-1.82a2.3,2.3,0,0,1,2.591,1.47c2.6,7.627,8.957,10.094,15.914,11.8a3.684,3.684,0,0,1,.55.233" transform="translate(-4.428 -3.766)" fill="#3277d8"/>
        <path id="Trazado_134887" data-name="Trazado 134887" d="M110.814,106.333c1.671.831,3.529.265,5.284.737,1.653.444,2.383,1.241,2.319,2.9-.067,1.743-1.262,2.16-2.666,2.366-1.811.265-3.542-.567-5.346-.387-3.185-.885-6.46-1.461-9.5-2.833a34.048,34.048,0,0,1-10.417-6.873,4.448,4.448,0,0,1-1.265-3.818,2.19,2.19,0,0,1,1.686-2,2.389,2.389,0,0,1,2.874.857c2.052,3.832,5.813,5.306,9.4,6.968a21.89,21.89,0,0,0,7.633,2.084" transform="translate(-4.408 -4.758)" fill="#3277d8"/>
        <path id="Trazado_134888" data-name="Trazado 134888" d="M183.163,109.771q4.233,4.326,8.468,8.652c1.756,1.792,2.02,3.433.741,4.647-1.2,1.145-3.142.856-4.752-.692-1.475-1.42-2.961-2.83-4.443-4.244q-6.65-6.743-13.3-13.485c-2.293-2.318-4.618-4.6-6.909-6.921-1.626-1.645-1.814-3.251-.586-4.544,1.064-1.12,3.106-.9,4.612.6q7.717,7.665,15.394,15.372a8.372,8.372,0,0,0,.778.615" transform="translate(-7.985 -4.57)" fill="#feb6cd"/>
        <path id="Trazado_134889" data-name="Trazado 134889" d="M183.157,131.585c1.471,1.533,2.951,3.057,4.408,4.6,1.424,1.51,1.52,2.808.336,4.018-1.208,1.237-2.683,1.143-4.188-.253-.436-.4-.9-.783-1.345-1.175q-6.864-6.951-13.73-13.9c-2.152-2.173-4.335-4.318-6.484-6.5-1.3-1.315-1.414-2.917-.34-4.041,1.129-1.182,2.8-1.088,4.183.293q7.772,7.747,15.528,15.51c.513.512,1.087.964,1.634,1.442" transform="translate(-7.961 -5.61)" fill="#feb6cd"/>
        <path id="Trazado_134890" data-name="Trazado 134890" d="M183.435,88.559c2.934,2.993,5.88,5.975,8.8,8.985,1.606,1.656,1.632,2.935.159,4.266a2.318,2.318,0,0,1-3.53-.034q-2.525-2.4-5.041-4.816c-2.315-2.84-5.087-5.236-7.634-7.851-2.692-2.763-5.458-5.454-8.171-8.2-1.283-1.3-1.372-2.938-.279-4.042a2.753,2.753,0,0,1,4.045.221q5.84,5.721,11.654,11.469" transform="translate(-8.252 -3.76)" fill="#feb6cd"/>
      </g>
    </g>
  </g>
</svg>
