<svg xmlns="http://www.w3.org/2000/svg" xmlns:xlink="http://www.w3.org/1999/xlink" width="295" height="154" viewBox="0 0 295 154">
  <defs>
    <clipPath id="clip-path">
      <rect id="Rect치ngulo_38079" data-name="Rect치ngulo 38079" width="142.269" height="142.27" fill="none"/>
    </clipPath>
  </defs>
  <g id="_70" data-name="70" transform="translate(-495 -6606)">
    <rect id="Rect치ngulo_37922" data-name="Rect치ngulo 37922" width="295" height="154" transform="translate(495 6606)" fill="#a6bbff"/>
    <g id="Grupo_158944" data-name="Grupo 158944" transform="translate(571 6612)">
      <g id="Grupo_158943" data-name="Grupo 158943" clip-path="url(#clip-path)">
        <path id="Trazado_135860" data-name="Trazado 135860" d="M187.294,38.068c-.449,1.865-.785,3.766-1.364,5.589-4.133,12.988-12.806,21.314-26.155,24.052-12.207,2.5-22.895-1.066-31.575-10.04a32.726,32.726,0,0,1-9.029-19.079A34.233,34.233,0,0,1,144.7,1.062,38.1,38.1,0,0,0,149.5,0h1.667a10.743,10.743,0,0,0,3.89,0h1.39a33.516,33.516,0,0,1,7.959,1.56A34.627,34.627,0,0,1,183,16.986a30.664,30.664,0,0,1,4.3,13.58v1.389a2.122,2.122,0,0,0,0,1.667Z" transform="translate(-45.025)" fill="#94d5a3"/>
        <path id="Trazado_135861" data-name="Trazado 135861" d="M174.736,0a5.79,5.79,0,0,1-3.89,0Z" transform="translate(-64.7)" fill="#a5dcb2"/>
        <path id="Trazado_135862" data-name="Trazado 135862" d="M228.794,53.1a1.255,1.255,0,0,1,0-1.667Z" transform="translate(-86.525 -19.478)" fill="#a0daae"/>
        <path id="Trazado_135863" data-name="Trazado 135863" d="M135.862,138.953l.225-.4a2.207,2.207,0,0,1,.475,1.817q.02,24.073,0,48.147a2.24,2.24,0,0,1-.469,1.82c-.462-2.055-.123-4.137-.2-6.206-.08-2.225.273-1.94-1.9-1.94q-51.251-.009-102.5-.006c-.6,0-1.2-.017-1.8-.026a1.246,1.246,0,0,1-.305-.458,4.994,4.994,0,0,1-.14-1.509q-.01-11.621,0-23.243a3.192,3.192,0,0,1,.368-2,2.83,2.83,0,0,1,1.862-.388c11.741.03,23.483-.092,35.221.06,1.444.055,2.626.87,3.874,1.437,11.041,5.012,22.125,9.928,33.147,14.981a36.406,36.406,0,0,0,3.567,1.536c.427.178.849.37,1.259.578a2.44,2.44,0,0,0,2.709-.235q11.451-7.684,22.945-15.3a2.6,2.6,0,0,0,1.281-2.41c-.03-4.8-.021-9.609-.006-14.413,0-.629-.153-1.311.385-1.835" transform="translate(-11.074 -52.47)" fill="#9c6b6b"/>
        <path id="Trazado_135864" data-name="Trazado 135864" d="M161.459,126.615c0,5.6,0,11.2.029,16.8a1.9,1.9,0,0,1-.945,1.819q-12.031,7.971-24.015,16.013a1.514,1.514,0,0,1-1.877.171,17.361,17.361,0,0,0-1.861-.908,79.813,79.813,0,0,1-18.439-12.184c-7.08-6.214-12.945-13.35-15.84-22.541a37.025,37.025,0,0,1-1.129-17.416c.13-.785.359-1.557-.436-2.139,2.123-.492,4.279-.1,6.416-.242a3.661,3.661,0,0,1,1.232,1.084c4.376,6.147,8.716,12.319,13.117,18.448,1.672,2.328,3.541,2.722,5.935,1.077,5.38-3.7,10.645-7.555,15.966-11.335a3.363,3.363,0,0,1,1.817-.938,89.282,89.282,0,0,1,18.989,11.638,2.382,2.382,0,0,0,1.042.654" transform="translate(-36.672 -40.132)" fill="#9cc5fa"/>
        <path id="Trazado_135865" data-name="Trazado 135865" d="M22.234,160.649c0,.073.007.145.01.218-.275.025-.549.067-.824.071-2.539.04-2.539.038-2.539,2.514,0,1.571.025,3.142-.007,4.711a5.113,5.113,0,0,1-4.984,5.229,5.324,5.324,0,0,1-4.3-5.378c-.021-.462-.014-.926-.014-1.389V89.133c0-.6-.014-1.2.035-1.8.227-2.836,1.561-4.39,4.286-5,3.029.122,4.971,2.226,4.976,5.471q.021,13.092.007,26.184c0,.553.033,1.106.051,1.659a1.8,1.8,0,0,1,.349,1.323c.007.16.007.319.007.48,0,.329,0,.658.008.988.064,3.146.076,6.291.021,9.436q.072,2.927,0,5.853c.075,7.866.012,15.732.033,23.6,0,.509.016,1.018.006,1.527-.018.9.349,1.387,1.3,1.377a2.144,2.144,0,0,1,1.569.424" transform="translate(-3.627 -31.178)" fill="#9c6b6b"/>
        <path id="Trazado_135866" data-name="Trazado 135866" d="M86.491,106.386c.662.048,1.271-.007,1.047,1.071-2.181,10.479.1,20.064,5.965,28.879a64.547,64.547,0,0,0,16.242,16.315,105.581,105.581,0,0,0,12.087,7.576,2.949,2.949,0,0,1,.5.44,77.952,77.952,0,0,1-7.213-3.142q-16.145-7.247-32.26-14.558a4.38,4.38,0,0,0-.526-.163c-4.26-1.37-8.191-3.5-12.256-5.319a1.345,1.345,0,0,1-.775-.752,47.228,47.228,0,0,1,.414-8.463,55.422,55.422,0,0,1,1.868-11.176c.191-.722.263-1.346-.4-1.853,2.137-1.329,2.938-3.853,4.857-5.4a12.506,12.506,0,0,1,6.306-3.132l4.137-.325" transform="translate(-26.217 -40.289)" fill="#698dd4"/>
        <path id="Trazado_135867" data-name="Trazado 135867" d="M10.273,82.3C7.4,83.4,6.358,85.532,6.363,88.559q.077,38.87-.017,77.741c-.011,3.254.839,5.687,3.917,7.062-1.85.016-3.7.093-5.551.031a4.941,4.941,0,0,1-4.7-4.9q-.017-40.686,0-81.371a4.876,4.876,0,0,1,4.716-4.857c1.848-.057,3.7.015,5.549.029" transform="translate(0 -31.147)" fill="#8a5e5e"/>
        <path id="Trazado_135868" data-name="Trazado 135868" d="M214.267,131.538a4.893,4.893,0,0,1,5.345,5.065q.04,25.172,0,50.344c0,3.091-2.2,5.1-5.35,5.087a5.245,5.245,0,0,1-4.248-4.983,14.9,14.9,0,0,1-.055-1.665q0-23.614,0-47.227a9.142,9.142,0,0,1,.276-2.753c.632-2.028,1.74-3.568,4.033-3.868" transform="translate(-79.511 -49.813)" fill="#9c6b6b"/>
        <path id="Trazado_135869" data-name="Trazado 135869" d="M145.406,114.332c-6.013,4.294-12.007,8.614-18.049,12.867a3.908,3.908,0,0,1-5.692-1.12Q114.507,116.033,107.339,106a91.994,91.994,0,0,1,34.688,6.832,11.67,11.67,0,0,1,3.38,1.5" transform="translate(-40.65 -40.141)" fill="#f8f5f8"/>
        <path id="Trazado_135870" data-name="Trazado 135870" d="M210.955,131.515c-2.728,1.176-3.9,3.259-3.894,6.215.036,15.737.065,31.474-.023,47.21-.019,3.227.82,5.7,3.912,7.072-1.666.014-3.332.069-5,.032a4.919,4.919,0,0,1-4.736-4.387q.013-21.381.025-42.761c0-3.008-.021-6.015-.032-9.023a4.844,4.844,0,0,1,4.654-4.383c1.7-.042,3.393.013,5.09.024" transform="translate(-76.2 -49.79)" fill="#8a5e5e"/>
        <path id="Trazado_135871" data-name="Trazado 135871" d="M54.328,120.095c1.017.06,1.258.367.918,1.486A57.192,57.192,0,0,0,53.181,133.1a1.164,1.164,0,0,1-1.323,1.23c-2.766-.032-5.53.065-8.3-.117-3.775-.249-7.546-.5-11.3-.978a49.858,49.858,0,0,1-5.312-.958,3.825,3.825,0,0,1-2.32-1.127l.007-1.4a12.764,12.764,0,0,1,6.717-5.823,43.922,43.922,0,0,1,9.621-2.834c.118-.022.214-.163.319-.248,1.9-.749,3.932-.625,5.9-.931,1.835-.015,3.648-.439,5.49-.305.582.042,1.213-.064,1.648.486" transform="translate(-9.326 -45.286)" fill="#f8f5f8"/>
        <path id="Trazado_135872" data-name="Trazado 135872" d="M65.652,22.042c-2.445,0-4.848,0-7.251,0a2.1,2.1,0,0,1-2.125-1.473,2.059,2.059,0,0,1,.678-2.247,1.735,1.735,0,0,1,1.4-.453c3.794.006,7.588.027,11.381-.014a2.067,2.067,0,0,1,2.009,1.181,1.985,1.985,0,0,1-.215,2.209q-3.857,5.911-7.7,11.833c-.477.735-.9,1.512-1.411,2.218-.55.753-.286.928.506.922,2.314-.015,4.627-.01,6.94,0a2.106,2.106,0,1,1-.032,4.164c-3.84.016-7.68-.009-11.52.016a2.332,2.332,0,0,1-2.225-1.143,2.411,2.411,0,0,1,.326-2.6q4.405-6.711,8.774-13.446a1.641,1.641,0,0,0,.466-1.164" transform="translate(-21.144 -6.761)" fill="#dcd9eb"/>
        <path id="Trazado_135873" data-name="Trazado 135873" d="M85.938,62.127c-1.353,0-2.459.03-3.563-.007-1.623-.055-2.5-.824-2.526-2.154-.03-1.389.874-2.229,2.558-2.258,2.265-.039,4.531-.022,6.8,0a2.744,2.744,0,0,1,2.638,1.447c.551,1.034-.1,1.779-.581,2.536-1.568,2.445-3.175,4.864-4.762,7.3a2.453,2.453,0,0,0-.59,1.495c1.342,0,2.669-.042,3.992.011a2.176,2.176,0,0,1,2.155,2.84,1.664,1.664,0,0,1-1.84,1.326c-2.774-.021-5.548,0-8.322-.011-2.075-.012-2.99-1.433-1.933-3.221,1.453-2.458,3.077-4.816,4.629-7.216.4-.614.8-1.227,1.349-2.081" transform="translate(-30.114 -21.845)" fill="#dcd9eb"/>
        <path id="Trazado_135874" data-name="Trazado 135874" d="M67.837,112.764l-7.216.175a1.618,1.618,0,0,1-.224-1.578,14.356,14.356,0,0,1,8.4-10.535,7.146,7.146,0,0,1,2.382-.6,12.849,12.849,0,0,1,7.794,4.152c-2.6,1.058-5.159,2.173-7.077,4.371a11.653,11.653,0,0,0-1.942,2.671,2.012,2.012,0,0,1-2.116,1.344" transform="translate(-22.835 -37.956)" fill="#365e7d"/>
        <path id="Trazado_135875" data-name="Trazado 135875" d="M67.826,100.017c-2.612,1.033-5.167,2.14-7.046,4.373a13.458,13.458,0,0,0-3.51,8.34,38.593,38.593,0,0,1-5.821.575c.706-6.828,4.508-11.544,10.643-13.135a10.353,10.353,0,0,1,5.734-.153" transform="translate(-19.484 -37.747)" fill="#2b4d66"/>
        <path id="Trazado_135876" data-name="Trazado 135876" d="M162.794,6.7A24.257,24.257,0,0,1,174.179,9.73c.185.882-.521,1.4-.857,2.068-.565,1.116-.467,2,.372,2.552.769.5,1.513.232,2.346-.752.522-.618.656-1.546,1.515-1.887a23.843,23.843,0,0,1,8.31,8.314c-.122.5-.569.693-.942.94-1.9,1.26-2.316,1.952-1.714,2.893.639,1,1.513.984,3.37-.058a1.971,1.971,0,0,1,1.28-.4,25.814,25.814,0,0,1,3,9.787,5.894,5.894,0,0,0,.249,1.625c-.973.6-2.052.258-3.082.333-.774.057-1.558-.047-2.329.075a1.72,1.72,0,0,0-1.534,1.194,1.508,1.508,0,0,0,.631,1.685,1.414,1.414,0,0,1,.526.616,17.917,17.917,0,0,0,4.662.178c.8.011,1.007.208.919,1.013a23.666,23.666,0,0,1-3.09,10.174c-.518.2-.879-.15-1.269-.372a5.846,5.846,0,0,0-1.371-.657,1.629,1.629,0,0,0-2.1.854,1.588,1.588,0,0,0,.728,2.03c.688.511,1.661.642,2.056,1.543a16.383,16.383,0,0,1-4.266,5.3c-1.234,1.115-2.34,2.482-4.052,2.975-.721-.2-.9-.868-1.218-1.407a2.5,2.5,0,0,0-.975-1.13,1.7,1.7,0,0,0-1.94.207,1.545,1.545,0,0,0-.265,1.9c.331.883,1.244,1.523,1.081,2.609a29.536,29.536,0,0,1-11.428,3.059c-.582-.777-.3-1.679-.351-2.529-.042-.776.006-1.556-.02-2.334-.031-.923-.249-1.8-1.268-2.042-1.056-.25-1.573.491-1.945,1.342a11.472,11.472,0,0,0-.212,3.435c-.082,1.472-.346,1.664-1.668,1.044a36.587,36.587,0,0,1-8.542-6.084,9.806,9.806,0,0,1-1.051-1.069,34.732,34.732,0,0,1-6.515-11.038q-5.955-18.427,6.77-33.059a3.4,3.4,0,0,1,.775-.774A34.138,34.138,0,0,1,156.232,8.2c2.476-1.346,2.741-1.186,2.763,1.608a5.354,5.354,0,0,0,.232,2.455,1.625,1.625,0,0,0,1.927,1.161c1.053-.239,1.238-1.1,1.257-2.022.021-1.051-.006-2.1.013-3.153a2.043,2.043,0,0,1,.37-1.554" transform="translate(-52.761 -2.537)" fill="#d2eefa"/>
        <path id="Trazado_135877" data-name="Trazado 135877" d="M142.992,17.752a36.692,36.692,0,0,0-5.895,9.132,32.391,32.391,0,0,0,5.05,33.928,8.707,8.707,0,0,1,.6.923,4.43,4.43,0,0,0-3.418,2.716.686.686,0,0,1-.549.357,19.257,19.257,0,0,1-6.237-5.254c-.774-.916-1.806-1.711-2.048-3.01.048-.564.536-.7.92-.916a5.176,5.176,0,0,0,1.235-.857c.585-.613.929-1.29.351-2.078a1.539,1.539,0,0,0-2.061-.525,13.449,13.449,0,0,0-1.324.724c-.392.233-.783.5-1.279.285a29.2,29.2,0,0,1-3.077-11.43c.648-.63,1.47-.4,2.23-.43,1.01-.041,2.023.029,3.033-.035.915-.058,1.673-.409,1.668-1.449,0-1-.723-1.446-1.627-1.553-1.189-.14-2.388-.032-3.582-.066a2.451,2.451,0,0,1-1.71-.364A29.96,29.96,0,0,1,128.339,26.4c.729-.154,1.192.393,1.743.683,1.5.79,2.449.782,2.951-.07.557-.946.117-1.894-1.278-2.759a3.473,3.473,0,0,1-1.48-1.193,32.022,32.022,0,0,1,7.878-8.02,4.013,4.013,0,0,1,.612-.291,1.319,1.319,0,0,1,.844.85,3.092,3.092,0,0,0,3.383,2.153" transform="translate(-47.438 -5.585)" fill="#9cc5fa"/>
        <path id="Trazado_135878" data-name="Trazado 135878" d="M163.785,12.257a9.075,9.075,0,0,1-.191-3.543c.012-1.173-.34-1.2-1.258-.721a30.541,30.541,0,0,0-7.413,5.236c-.354.348-.629.811-1.169.933a6.888,6.888,0,0,0-1.162-3.4.961.961,0,0,1-.17-1.021A23.1,23.1,0,0,1,163.787,6.7a6.9,6.9,0,0,1,0,5.561" transform="translate(-57.69 -2.536)" fill="#9cc5fa"/>
        <path id="Trazado_135879" data-name="Trazado 135879" d="M153.8,91.679c2.635,2.209,5.217,4.5,8.366,5.983.4.19.761.533,1.289.447.315-1.482-.212-3.018.3-4.48a6.993,6.993,0,0,1,.04,5.536,28.9,28.9,0,0,1-11.424-3.07.962.962,0,0,1,.163-1.022,8.3,8.3,0,0,0,1.271-3.394" transform="translate(-57.667 -34.719)" fill="#9cc5fa"/>
        <path id="Trazado_135880" data-name="Trazado 135880" d="M170.763,12.086q0-2.781,0-5.561a7.014,7.014,0,0,1,3.937,0c0,1.648-.013,3.3,0,4.942.006,1.186-.4,2.1-1.674,2.293a1.87,1.87,0,0,1-2.26-1.674" transform="translate(-64.668 -2.364)" fill="#365e7d"/>
        <path id="Trazado_135881" data-name="Trazado 135881" d="M212.32,55.836a1.843,1.843,0,0,1-1.665-2.27,1.953,1.953,0,0,1,2.207-1.649c1.748-.008,3.5.009,5.245.016,0,.968-.024,1.937.016,2.9.03.719-.251.971-.968.961-1.611-.023-3.223.022-4.836.04" transform="translate(-79.762 -19.66)" fill="#365e7d"/>
        <path id="Trazado_135882" data-name="Trazado 135882" d="M125.275,51.919c1.7,0,3.4-.031,5.1-.007,1.422.021,2.335.824,2.344,1.985s-.885,1.911-2.355,1.926c-1.7.016-3.4,0-5.1-.007q.007-1.949.012-3.9" transform="translate(-47.437 -19.655)" fill="#365e7d"/>
        <path id="Trazado_135883" data-name="Trazado 135883" d="M170.786,99.206q-.02-2.769-.04-5.537a1.951,1.951,0,0,1,2.127-1.883c1.1.025,1.794.965,1.81,2.339.019,1.7,0,3.391,0,5.087l-3.9-.006" transform="translate(-64.662 -34.76)" fill="#365e7d"/>
        <path id="Trazado_135884" data-name="Trazado 135884" d="M212.208,78.99c-.718-.406-1.451-.787-2.149-1.223a1.924,1.924,0,0,1-.886-2.68,1.973,1.973,0,0,1,2.841-.707c.734.372,1.437.8,2.154,1.211a6.912,6.912,0,0,1-1.96,3.4" transform="translate(-79.12 -28.05)" fill="#375f7d"/>
        <path id="Trazado_135885" data-name="Trazado 135885" d="M197.822,13.557c-.437.75-.839,1.525-1.32,2.245a1.918,1.918,0,0,1-2.716.77,1.959,1.959,0,0,1-.658-2.747c.4-.768.876-1.5,1.318-2.248a8.826,8.826,0,0,1,3.376,1.98" transform="translate(-73.026 -4.384)" fill="#375f7d"/>
        <path id="Trazado_135886" data-name="Trazado 135886" d="M214.206,31.52c-.83.479-1.638,1-2.5,1.425a1.793,1.793,0,0,1-2.488-.764,1.755,1.755,0,0,1,.53-2.538c.767-.569,1.635-1,2.458-1.5a9.425,9.425,0,0,1,1.995,3.374" transform="translate(-79.107 -10.659)" fill="#375f7d"/>
        <path id="Trazado_135887" data-name="Trazado 135887" d="M132.149,28.127c.842.474,1.712.9,2.517,1.434a1.963,1.963,0,0,1,.605,2.675,1.819,1.819,0,0,1-2.538.666c-.859-.444-1.682-.956-2.521-1.438l1.936-3.337" transform="translate(-49.312 -10.652)" fill="#365e7d"/>
        <path id="Trazado_135888" data-name="Trazado 135888" d="M194.454,95.534c-.474-.834-.982-1.651-1.413-2.507a1.767,1.767,0,0,1,.76-2.58,1.843,1.843,0,0,1,2.629.673c.477.726.9,1.489,1.341,2.235-.834,1.142-2.178,1.5-3.318,2.179" transform="translate(-73.002 -34.142)" fill="#375f7d"/>
        <path id="Trazado_135889" data-name="Trazado 135889" d="M150.4,11.595c.366.641.711,1.294,1.1,1.917a2.644,2.644,0,0,1,.229,2.505l-.511.54c-1.738.567-2.3.36-3.231-1.223-.345-.585-.664-1.185-.995-1.779a8.762,8.762,0,0,1,3.4-1.96" transform="translate(-55.667 -4.391)" fill="#375e7d"/>
        <path id="Trazado_135890" data-name="Trazado 135890" d="M151.812,91.124c.508,1.2-.159,2.127-.707,3.085-.251.439-.485.887-.727,1.331-1.174-.632-2.49-1.044-3.356-2.155.3-.508.637-1,.883-1.53a2.458,2.458,0,0,1,3.082-1.543l.824.81" transform="translate(-55.678 -34.165)" fill="#365e7d"/>
        <path id="Trazado_135891" data-name="Trazado 135891" d="M130.216,75.624c.807-.443,1.6-.917,2.425-1.321a1.942,1.942,0,0,1,1.985,3.338c-.718.5-1.5.9-2.252,1.351-1.09-.885-1.518-2.194-2.158-3.367" transform="translate(-49.313 -28.032)" fill="#365e7d"/>
        <path id="Trazado_135892" data-name="Trazado 135892" d="M52.73,155.248l12.706,5.858q-17.713.019-35.425.039c-.694,0-1.388.025-2.082.039a3.344,3.344,0,0,1-3.325-.069l.022-5.828a2.849,2.849,0,0,1,2.111-.438c5.166.013,10.332-.062,15.5.04a7.342,7.342,0,0,0,2.334-.174c2.33.144,4.666.14,7,.162a2.051,2.051,0,0,1,1.161.372" transform="translate(-9.317 -58.591)" fill="#f8f5f8"/>
        <path id="Trazado_135893" data-name="Trazado 135893" d="M24.6,165.017l3.325.068q0,13.44,0,26.878c-3.325.059-3.325.059-3.325-3.29q0-11.828,0-23.656" transform="translate(-9.315 -62.492)" fill="#8a5e5e"/>
        <path id="Trazado_135894" data-name="Trazado 135894" d="M52.737,148.991a48.436,48.436,0,0,1-8.132-.227,13.4,13.4,0,0,1-5.147-.7,29.682,29.682,0,0,1-3.037-.959,33.973,33.973,0,0,1-9.106-5.186,9.947,9.947,0,0,1-2.693-3.444c0-.1,0-.189,0-.285,4.4,1.442,8.965,1.842,13.542,2.254,4.5.405,9,.555,13.516.549.733,0,1.229-.16,1.5-.852-.18,2.947-.526,5.887-.443,8.847" transform="translate(-9.325 -52.334)" fill="#dcd9eb"/>
        <path id="Trazado_135895" data-name="Trazado 135895" d="M36.294,147.474c2.409.605,4.816,1.215,7.228,1.81a10.4,10.4,0,0,0,1.091.152c-.413.445-.954.258-1.438.26q-9.267.018-18.535.007,0-4.858,0-9.715c.29-.083.426.114.527.319,1.1,2.235,3.066,3.521,5.166,4.631a42.516,42.516,0,0,0,5.962,2.537" transform="translate(-9.33 -53.006)" fill="#fefefe"/>
        <path id="Trazado_135896" data-name="Trazado 135896" d="M36.288,146.976c-4.068-1.028-7.905-2.464-10.723-5.817-.433-.515-.516-1.176-.933-1.67l-.009-.837c2.869,3.9,6.842,6.24,11.236,8a1.994,1.994,0,0,1,.429.327" transform="translate(-9.325 -52.508)" fill="#f8f5f8"/>
        <path id="Trazado_135897" data-name="Trazado 135897" d="M166.979,42.025c0-2.034-.02-4.068.009-6.1a4.089,4.089,0,0,1,3.87-4.247,3.964,3.964,0,0,1,4.324,3.911c.128,3.6.141,7.213,0,10.813-.1,2.684-2.084,4.053-5.16,3.891a3.324,3.324,0,0,1-3.083-2.585,8.746,8.746,0,0,1,.04-5.682" transform="translate(-63.048 -11.994)" fill="#2b4d66"/>
        <path id="Trazado_135898" data-name="Trazado 135898" d="M158.147,48.336c0,1.1.044,2.207-.018,3.306A4.607,4.607,0,0,0,161.19,56.6c-4.66.015-9.321.066-13.982.03a4.092,4.092,0,0,1-4.047-4.088,4.145,4.145,0,0,1,4.193-4.1c2.905-.089,5.815-.021,8.723-.032.69,0,1.379-.049,2.069-.075" transform="translate(-54.216 -18.305)" fill="#365e7d"/>
      </g>
    </g>
  </g>
</svg>
