<svg xmlns="http://www.w3.org/2000/svg" xmlns:xlink="http://www.w3.org/1999/xlink" width="295" height="154" viewBox="0 0 295 154">
  <defs>
    <clipPath id="clip-path">
      <rect id="Rect치ngulo_38080" data-name="Rect치ngulo 38080" width="124.121" height="126.232" fill="none"/>
    </clipPath>
  </defs>
  <g id="_71" data-name="71" transform="translate(-810 -6606)">
    <rect id="Rect치ngulo_37923" data-name="Rect치ngulo 37923" width="295" height="154" transform="translate(810 6606)" fill="#a6bbff"/>
    <g id="Grupo_158947" data-name="Grupo 158947" transform="translate(895 6620)">
      <g id="Grupo_158946" data-name="Grupo 158946" clip-path="url(#clip-path)">
        <path id="Trazado_135899" data-name="Trazado 135899" d="M65.026,224.063c-2.382-1.069-3.14-2.977-2.962-5.471.173-2.438-.273-4.914.391-7.323,1.443-5.236,4.948-8.193,10.218-9.175,3.068-.186,6.139-.014,9.207-.092a1.6,1.6,0,0,1,1.169.582,21.991,21.991,0,0,1,1.907,1.915,2.12,2.12,0,0,0,2.8.694c.971-.427,2.023-.668,3.02-1.041a3.606,3.606,0,0,1,2.632-.017c1.075.4,2.2.673,3.257,1.111a1.92,1.92,0,0,0,2.492-.621c.442-.535,1-.97,1.462-1.491a2.917,2.917,0,0,1,2.4-1.224c2.151,0,4.3,0,6.451.019a2.643,2.643,0,0,1,1.428.173c-1.429.771-2.963.235-4.446.341a4.439,4.439,0,0,1-1.2-.139,11.559,11.559,0,0,1,7.285,5.15,12.106,12.106,0,0,1,1.874,6.889c-.07,1.843,0,3.69-.018,5.536a3.836,3.836,0,0,1-3.3,4.185Z" transform="translate(-30.06 -97.831)" fill="#5d9beb"/>
        <path id="Trazado_135900" data-name="Trazado 135900" d="M151.219,224.247a4.494,4.494,0,0,0,2.984-5.022,28.929,28.929,0,0,1-.008-4.664,11.861,11.861,0,0,0-8.833-11.858.791.791,0,0,1-.512-.415h6.174a12.009,12.009,0,0,1,11.27,11.483c.023,1.8-.085,3.613.03,5.41a4.633,4.633,0,0,1-2.976,5.068Z" transform="translate(-70.185 -98.015)" fill="#4a88db"/>
        <path id="Trazado_135901" data-name="Trazado 135901" d="M89.44,153.279c-1.326-1.084-2.881-1.826-4.188-2.962a21.682,21.682,0,0,1-7.668-17.45c.08-5.61-.423-11.212-.234-16.823.019-.561-.144-1.153.208-1.675.481.4.371.971.375,1.487.018,2.377,0,4.755.014,7.131a2.009,2.009,0,0,0,.187,1.292c1.335-1.244,2.615-2.5,3.825-3.813a2.267,2.267,0,0,1,3.015-.63,36.374,36.374,0,0,0,11.558,3.211,32.054,32.054,0,0,0,12.858-1.435q1.409-.436,2.784-.975a1.66,1.66,0,0,1,1.416-.158,2.149,2.149,0,0,1,.311,1.527c.009,3.81.051,7.622,0,11.431a22.382,22.382,0,0,1-18.023,22.034,12.627,12.627,0,0,1-6.435-2.192" transform="translate(-37.458 -55.416)" fill="#e9c5ba"/>
        <path id="Trazado_135902" data-name="Trazado 135902" d="M113.794,104.776c-2.342.706-4.608,1.646-7.009,2.179a33,33,0,0,1-19.276-1.594,10.721,10.721,0,0,1-2.268-.922c-1.24-.846-1.994-.364-2.861.6-1.364,1.512-2.857,2.909-4.586,4.647v-11.1A17.909,17.909,0,0,1,95.088,81.82c2.868-.087,5.74,0,8.61,0a2.152,2.152,0,0,1,.354,1.634c.012,2.826,0,5.652.009,8.478.007,1.447.077,1.5,1.5,1.639a11.031,11.031,0,0,1,5.3,1.784c2.34,1.612,3.147,3.99,3.282,6.684.039.776.04,1.555.035,2.334-.028.228-.093.423-.382.4" transform="translate(-37.694 -39.625)" fill="#955353"/>
        <path id="Trazado_135903" data-name="Trazado 135903" d="M34.818,56.437A13.831,13.831,0,0,1,24.6,42.859c.153-6.557,4.653-12.226,10.7-13.478a17.351,17.351,0,0,1,5.914,4.061A14.286,14.286,0,0,1,36.35,56.074a4.128,4.128,0,0,1-1.531.362" transform="translate(-11.919 -14.236)" fill="#ec5565"/>
        <path id="Trazado_135904" data-name="Trazado 135904" d="M10.341,125.253A13.972,13.972,0,0,1,9.189,98.63c.382-.139.771-.257,1.156-.385,5.426,1.388,9.816,7.186,9.934,12.842.124,5.918-2.485,10.2-7.417,13.241a9.334,9.334,0,0,1-2.522.925" transform="translate(0 -47.603)" fill="#ec5565"/>
        <path id="Trazado_135905" data-name="Trazado 135905" d="M186.214,109.731c1.015-5.911,4.462-9.676,10.132-11.476,5.415,1.355,9.793,7.094,9.935,12.71.151,5.97-2.418,10.313-7.421,13.363a6.772,6.772,0,0,1-2.518.926,13.818,13.818,0,0,1-10.134-11.466,3.587,3.587,0,0,1,.006-4.057" transform="translate(-89.921 -47.608)" fill="#ec5565"/>
        <path id="Trazado_135906" data-name="Trazado 135906" d="M164.632,51.519A19.31,19.31,0,0,1,162.1,45.34a14.032,14.032,0,0,1,8.589-15.32c.6-.236,1.228-.409,1.843-.611a15.509,15.509,0,0,1,7.571,6.158A14.242,14.242,0,0,1,178.265,52.8a15.072,15.072,0,0,1-4.325,3.178,3.943,3.943,0,0,1-1.882.456c-1.745-.307-3.142-1.37-4.668-2.154a6.121,6.121,0,0,1-2.757-2.763" transform="translate(-78.45 -14.25)" fill="#ec5565"/>
        <path id="Trazado_135907" data-name="Trazado 135907" d="M103.548,28.188c-6.5-2.049-10.545-7.527-10.331-14a14,14,0,0,1,10.328-13,12.887,12.887,0,0,1,8.514,7.259,14.193,14.193,0,0,1-6.991,19.275c-.5.224-1.037.24-1.52.471" transform="translate(-45.163 -0.574)" fill="#ec5565"/>
        <path id="Trazado_135908" data-name="Trazado 135908" d="M130.978,121.022l.282-.247c1.112-1.1,1.632-1.141,2.673-.124q2.332,2.28,4.607,4.618c-.015-2.757-.015-5.549,0-8.342,0-.555-.141-1.166.364-1.617a1.214,1.214,0,0,1,.234.927c-.017,5.781.027,11.564-.076,17.344A22.7,22.7,0,0,1,134,148a21.631,21.631,0,0,1-5.645,4.863c-.454.273-.885.582-1.326.874-1.265,1.234-2.962,1.511-4.548,2a23.8,23.8,0,0,1-7.806.569,1.631,1.631,0,0,1-1.416-.6,28.356,28.356,0,0,0,7.318-3,22.808,22.808,0,0,0,7.4-7.689,23.6,23.6,0,0,0,3.007-12.322q-.013-5.839-.007-11.679" transform="translate(-54.877 -55.872)" fill="#d2b0a8"/>
        <path id="Trazado_135909" data-name="Trazado 135909" d="M44.424,56.007A16.058,16.058,0,0,0,50.5,52.029,13.929,13.929,0,0,0,54.057,44a13.752,13.752,0,0,0-4.647-11.94,12.588,12.588,0,0,0-3.821-2.4c-.312-.13-.926-.024-.68-.709A13.913,13.913,0,0,1,61.874,39.408a13.484,13.484,0,0,1-1.859,10.716c-.428.655-.517,1.063.148,1.6A20.834,20.834,0,0,1,62,53.533c1.069,1.1,1.193,2.275.349,3.143s-2.055.772-3.142-.275a23.894,23.894,0,0,1-1.73-1.751c-.554-.656-.979-.766-1.779-.242a13.839,13.839,0,0,1-10.839,1.807,2.081,2.081,0,0,1-.44-.208" transform="translate(-21.525 -13.807)" fill="#d94453"/>
        <path id="Trazado_135910" data-name="Trazado 135910" d="M113.264,27.615c1.417-.948,3.055-1.495,4.393-2.613a13.484,13.484,0,0,0,5.2-10.145c.249-5.92-2.452-10.175-7.408-13.167-.7-.423-1.574-.485-2.188-1.079,6.933-2.353,15.283,2.357,17.217,9.713a13.942,13.942,0,0,1-10.3,17.384c-1.094.269-1.353.7-1.26,1.7a19.135,19.135,0,0,1,.005,2.585,1.98,1.98,0,1,1-3.956.035,10.545,10.545,0,0,1,.008-2.213c.23-1.41-.275-2.141-1.712-2.2" transform="translate(-54.879 0)" fill="#d94453"/>
        <path id="Trazado_135911" data-name="Trazado 135911" d="M20.062,124.733c.807-.79,1.968-.874,2.889-1.5,4.12-2.784,6.5-6.477,6.733-11.558a13.992,13.992,0,0,0-9.056-13.514.988.988,0,0,1-.562-.439,13.961,13.961,0,0,1,17.393,10.594c.185.826.478.963,1.185.936,1.024-.04,2.053-.045,3.076.006a1.938,1.938,0,0,1,1.994,2.046,1.918,1.918,0,0,1-2.009,1.9c-1.106.046-2.215.03-3.323.011-.526-.009-.74.127-.876.717-1.666,7.23-7.3,11.557-14.681,11.32a9.094,9.094,0,0,1-2.762-.518" transform="translate(-9.721 -47.083)" fill="#d94453"/>
        <path id="Trazado_135912" data-name="Trazado 135912" d="M146.07,98.953v10.786c-1.668-1.689-3.148-3.076-4.49-4.586-.935-1.052-1.828-1.656-3.153-.735-.547-.648-.208-1.414-.268-2.123a9.871,9.871,0,0,0-1.11-4.576c-1.694-2.727-4.359-3.681-7.364-3.9-1.624-.121-1.632-.044-1.633-1.658q0-5.225,0-10.448c2.488-.306,4.986-.058,7.477-.137.7-.022.647.445.646.91-.005,1.968.038,3.938-.02,5.9-.025.87.151,1.222,1.129,1.363a9.815,9.815,0,0,1,8.6,7.625c.149.53.088,1.057.185,1.577" transform="translate(-62.044 -39.515)" fill="#844747"/>
        <path id="Trazado_135913" data-name="Trazado 135913" d="M206.457,124.744a21.224,21.224,0,0,0,6.019-4.086c4.778-4.958,4.805-13.905-.016-18.828a14.517,14.517,0,0,0-5.546-3.7c-.175-.062-.3-.255-.453-.388a14.025,14.025,0,1,1,2.388,27.5,18.243,18.243,0,0,1-2.392-.5" transform="translate(-100.035 -47.097)" fill="#d94453"/>
        <path id="Trazado_135914" data-name="Trazado 135914" d="M181.6,56a16.444,16.444,0,0,0,6.27-4.124c3.94-4.086,4.721-11.579,1.646-16.389a14.877,14.877,0,0,0-7.052-6c-.243-.1-.634-.062-.386-.517,7.83-2.16,16.17,3.562,17.293,11.592a14.186,14.186,0,0,1-11.358,15.81A11.837,11.837,0,0,1,181.6,56" transform="translate(-87.99 -13.818)" fill="#d94453"/>
        <path id="Trazado_135915" data-name="Trazado 135915" d="M98.437,191.83a21.713,21.713,0,0,0,12.863-1.625c.295-.133.605-.231.908-.346,0,1.761.027,3.522,0,5.283-.008.6.152.952.805.928-1.464.262-2.279,1.447-3.083,2.457-1.215,1.525-2.484,1.847-4.162.943a7.367,7.367,0,0,0-7.327.013,2.809,2.809,0,0,1-4.12-1.008,5.309,5.309,0,0,0-5.389-2.268c-2.072.193-4.176.044-6.266.046a6.74,6.74,0,0,1,2.892-.2c1.8-.051,3.605-.046,5.406,0,.788.02,1.092-.219,1.07-1.041-.046-1.719,0-3.441,0-5.161a29.992,29.992,0,0,0,6.4,1.976" transform="translate(-40.056 -91.991)" fill="#f4f6f9"/>
        <path id="Trazado_135916" data-name="Trazado 135916" d="M163.953,72.3l2.757,2.763c-.914.938-1.8,1.909-2.752,2.8a1.989,1.989,0,1,1-2.808-2.814c.892-.957,1.865-1.838,2.8-2.753" transform="translate(-77.771 -35.033)" fill="#d94453"/>
        <path id="Trazado_135917" data-name="Trazado 135917" d="M181.02,120.518a8.428,8.428,0,0,0-.006,4.057c-1.307-.014-2.614-.015-3.921-.047-1.386-.034-2.2-.749-2.23-1.921-.032-1.225.808-2.011,2.236-2.046,1.306-.032,2.614-.03,3.921-.043" transform="translate(-84.727 -58.395)" fill="#d94453"/>
        <path id="Trazado_135918" data-name="Trazado 135918" d="M118.6,221.588a1.967,1.967,0,0,1,1.975,1.926,1.882,1.882,0,0,1-1.852,2,1.961,1.961,0,0,1-2.091-1.936,2.123,2.123,0,0,1,1.968-1.99" transform="translate(-56.512 -107.366)" fill="#f3f5f9"/>
        <path id="Trazado_135919" data-name="Trazado 135919" d="M51.746,45.229c0,.985.033,1.972-.008,2.955a1.953,1.953,0,0,1-3.89.315,34.025,34.025,0,0,1,.023-6.509A1.852,1.852,0,0,1,49.93,40.3a1.941,1.941,0,0,1,1.809,1.972c.007.081.012.164.012.246q0,1.355,0,2.709h-.006" transform="translate(-23.114 -19.524)" fill="#f4f6f9"/>
        <path id="Trazado_135920" data-name="Trazado 135920" d="M52,65.616a2.081,2.081,0,0,1-1.98,1.974,2.041,2.041,0,0,1-1.98-2.079A1.982,1.982,0,0,1,52,65.616" transform="translate(-23.275 -30.838)" fill="#f4f5f8"/>
        <path id="Trazado_135921" data-name="Trazado 135921" d="M27.3,113.942c0,.981.034,1.963-.007,2.942a1.95,1.95,0,0,1-1.97,2.063,1.916,1.916,0,0,1-1.976-2.043q-.063-2.941,0-5.885a1.881,1.881,0,0,1,1.894-1.986A1.915,1.915,0,0,1,27.285,111c.052.978.01,1.961.012,2.942" transform="translate(-11.295 -52.83)" fill="#f4f6f9"/>
        <path id="Trazado_135922" data-name="Trazado 135922" d="M27.373,134.25a1.918,1.918,0,0,1-1.958,1.919,1.984,1.984,0,0,1-2-1.914,2.072,2.072,0,0,1,2.053-2.02,1.97,1.97,0,0,1,1.9,2.015" transform="translate(-11.348 -64.071)" fill="#f4f5f8"/>
        <path id="Trazado_135923" data-name="Trazado 135923" d="M209.752,113.915c0-.944-.034-1.89.008-2.833a1.928,1.928,0,0,1,1.995-2.035,1.9,1.9,0,0,1,1.955,2.068q.058,2.893,0,5.789a1.917,1.917,0,0,1-1.982,2.051,1.949,1.949,0,0,1-1.961-2.084c-.038-.984-.008-1.971-.008-2.956Z" transform="translate(-101.626 -52.837)" fill="#f4f6f9"/>
        <path id="Trazado_135924" data-name="Trazado 135924" d="M213.8,134.3a1.938,1.938,0,0,1-1.98,1.908,2.032,2.032,0,0,1-1.971-1.964,2.059,2.059,0,0,1,2.086-1.982A1.955,1.955,0,0,1,213.8,134.3" transform="translate(-101.679 -64.085)" fill="#f4f5f8"/>
        <path id="Trazado_135925" data-name="Trazado 135925" d="M185.271,45.321c0-1.026-.043-2.055.011-3.078a1.875,1.875,0,0,1,1.846-1.921,1.77,1.77,0,0,1,1.99,1.617,29.855,29.855,0,0,1,0,6.746,1.724,1.724,0,0,1-2.042,1.53,1.742,1.742,0,0,1-1.784-1.816c-.048-1.024-.01-2.052-.01-3.078h-.012" transform="translate(-89.762 -19.537)" fill="#f4f6f9"/>
        <path id="Trazado_135926" data-name="Trazado 135926" d="M189.32,65.639a2.059,2.059,0,0,1-1.982,1.961,2,2,0,0,1-1.965-1.962,1.919,1.919,0,0,1,2.026-1.982,1.952,1.952,0,0,1,1.922,1.983" transform="translate(-89.819 -30.843)" fill="#f4f5f8"/>
        <path id="Trazado_135927" data-name="Trazado 135927" d="M116.552,16.65c0-.941-.032-1.884.01-2.823a1.97,1.97,0,1,1,3.938.028q.061,2.944,0,5.891a1.968,1.968,0,0,1-1.984,2.058,1.993,1.993,0,0,1-1.96-2.087c-.037-1.021-.007-2.045-.006-3.068" transform="translate(-56.467 -5.729)" fill="#f4f6f9"/>
        <path id="Trazado_135928" data-name="Trazado 135928" d="M118.616,39.056a1.975,1.975,0,0,1-1.973-1.944,2.1,2.1,0,0,1,1.958-2,1.963,1.963,0,0,1,1.991,2.044,1.9,1.9,0,0,1-1.975,1.9" transform="translate(-56.517 -17.015)" fill="#f4f4f8"/>
      </g>
    </g>
  </g>
</svg>
