<svg xmlns="http://www.w3.org/2000/svg" xmlns:xlink="http://www.w3.org/1999/xlink" width="295" height="154" viewBox="0 0 295 154">
  <defs>
    <clipPath id="clip-path">
      <rect id="Rect치ngulo_38083" data-name="Rect치ngulo 38083" width="90.956" height="129.212" fill="none"/>
    </clipPath>
  </defs>
  <g id="_72" data-name="72" transform="translate(-1125 -6606)">
    <rect id="Rect치ngulo_37924" data-name="Rect치ngulo 37924" width="295" height="154" transform="translate(1125 6606)" fill="#a6bbff"/>
    <g id="Grupo_158956" data-name="Grupo 158956" transform="translate(1227 6618)">
      <g id="Grupo_158955" data-name="Grupo 158955" clip-path="url(#clip-path)">
        <path id="Trazado_135980" data-name="Trazado 135980" d="M28.488,156.6a14.181,14.181,0,0,1,7.506-3,6.906,6.906,0,0,0,1.3,2.679,5.037,5.037,0,0,1,1.1,2.234c.462,5.058.975,10.109,1.364,15.17.036.456.159.924-.173,1.331H24.439c-.361-.521-.13-1.065-.015-1.579q1.734-7.737,3.436-15.482a3.582,3.582,0,0,1,.628-1.356" transform="translate(-7.23 -45.803)" fill="#665853"/>
        <path id="Trazado_135981" data-name="Trazado 135981" d="M87,153.6a14.171,14.171,0,0,1,7.507,3,3.783,3.783,0,0,1,.679,1.6c1.112,5,2.209,10,3.329,14.991.133.593.427,1.209.039,1.825H83.412c-.333-.407-.209-.874-.174-1.33.39-5.058.9-10.105,1.357-15.155a5.154,5.154,0,0,1,1.135-2.295A6.782,6.782,0,0,0,87,153.6" transform="translate(-24.806 -45.803)" fill="#665853"/>
        <path id="Trazado_135982" data-name="Trazado 135982" d="M21.278,157.871l-4.049,18.417H.066A10.154,10.154,0,0,1,2.755,170.2c3.381-4.19,7.837-7,12.48-9.55a47.238,47.238,0,0,1,6.043-2.78" transform="translate(-0.02 -47.076)" fill="#f5a3b6"/>
        <path id="Trazado_135983" data-name="Trazado 135983" d="M103.367,176.288,99.319,157.87a51.408,51.408,0,0,1,16.864,10.449,15,15,0,0,1,4.009,6,4.838,4.838,0,0,1,.339,1.966Z" transform="translate(-29.616 -47.076)" fill="#f5a3b6"/>
        <path id="Trazado_135984" data-name="Trazado 135984" d="M67.833,175.913H55.213a1.936,1.936,0,0,1-.246-1.672c.213-1.7.351-3.417.721-5.082a3.523,3.523,0,0,0-1.049-3.515,5.044,5.044,0,0,1-.72-.865c-.324-.624.061-1.044.447-1.436,2.063-2.095,4.153-4.165,6.231-6.246a1.124,1.124,0,0,1,1.836-.015c2.108,2.111,4.23,4.207,6.319,6.337.359.366.676.775.383,1.344-2.418,3.086-2.062,1.844-1.528,5.869.17,1.286.322,2.573.506,3.856a1.623,1.623,0,0,1-.279,1.426" transform="translate(-16.042 -46.701)" fill="#665853"/>
        <path id="Trazado_135985" data-name="Trazado 135985" d="M73.385,176.929a31.5,31.5,0,0,0-.848-6.664,3.8,3.8,0,0,1,1.392-4.033c.248-.222.485-.454.727-.681.679-.328,1.018.228,1.35.6.648.721,1.013.545,1.5-.2,1.12-1.717,2.167-3.481,3.343-5.161.218-.312.286-.833.858-.761-.287,3.508-.56,7.017-.867,10.523-.186,2.129-.424,4.253-.639,6.379Z" transform="translate(-21.594 -47.717)" fill="#f5a3b6"/>
        <path id="Trazado_135986" data-name="Trazado 135986" d="M51.007,165.55c.663.69,1.322,1.382,1.988,2.068.566.582.273,1.256.2,1.895-.3,2.472-.854,4.913-.912,7.415H45.462c-.6-5.625-1.143-11.255-1.505-16.9.572-.072.64.449.858.761,1.176,1.68,2.223,3.444,3.343,5.161.486.745.851.921,1.5.2.332-.37.671-.926,1.35-.6" transform="translate(-13.108 -47.717)" fill="#f5a3b6"/>
        <path id="Trazado_135987" data-name="Trazado 135987" d="M83.645,88.812a39.473,39.473,0,0,1-6.382,13.827,28.728,28.728,0,0,1-15.9,10.58c-.724.2-1.459.36-2.189.538a5.185,5.185,0,0,1-2.974.847,52.494,52.494,0,0,1-13.588-.11,33.67,33.67,0,0,0,15.8,2.875.942.942,0,0,1,.714.165c.02.233.041.466.062.7-.4.878-1.324,1.121-2.042,1.573-1.985,1.25-4.005,2.444-5.993,3.689a2.141,2.141,0,0,1-2.468.122q-3.737-2.32-7.513-4.577c-.316-.19-.664-.381-.735-.807.011-.839.029-1.679.032-2.518,0-1.961,0-1.967-1.932-2.449a28.325,28.325,0,0,1-14.243-8.3A34.938,34.938,0,0,1,16.509,90.62q-.261-.9-.52-1.808c-.182-.108-.384-.23-.437-.432a17.246,17.246,0,0,1-.986-5.753c1.168-2.427,1.076-5.072,1.3-7.655.56-6.441.641-12.93,1.989-19.291a25.943,25.943,0,0,1,.867-3.16,7.5,7.5,0,0,1,7.342-5.293c4.085-.168,8.024.722,11.994,1.417a67.516,67.516,0,0,0,11.875,1.416,69.252,69.252,0,0,0,11.745-1.437c3.889-.679,7.75-1.522,11.747-1.4,3.816.121,6.348,1.873,7.552,5.519A51.627,51.627,0,0,1,83,64.529c.417,4.727.615,9.472,1.07,14.2a9.934,9.934,0,0,0,1,3.886c-.048,2.163-.171,4.311-1.418,6.2" transform="translate(-4.336 -14.077)" fill="#fccb9a"/>
        <path id="Trazado_135988" data-name="Trazado 135988" d="M82.457,68.649c-1.2-1.281-1.074-2.96-1.234-4.5-.627-6.062-.706-12.171-1.53-18.215a35.757,35.757,0,0,0-1.524-7.259c-1.239-3.471-3.36-5-7.078-5.179-4.038-.2-7.933.733-11.854,1.45-4.883.893-9.764,1.795-14.764,1.359-3.94-.343-7.8-1.173-11.689-1.87a39.7,39.7,0,0,0-9.256-.936c-3.623.2-5.773,1.736-6.939,5.181a52.09,52.09,0,0,0-2.033,11.766c-.508,5.186-.512,10.413-1.287,15.575-.138.921-.087,1.969-.982,2.632-.9.018-1.043-.714-1.257-1.319a45.674,45.674,0,0,1-1.716-7.3c-.227-1.273-.427-2.552-.634-3.829a1.953,1.953,0,0,1,.047-1.462c-.452-3.88-.957-7.754-1.344-11.641a131.56,131.56,0,0,1-.93-20.263c.053-.964.165-1.926.291-2.883a3.965,3.965,0,0,1,3.061-3.588,4.74,4.74,0,0,0,3.618-3.29,5.175,5.175,0,0,1,1.331-2.117,2.927,2.927,0,0,1,3.758-.684,2.337,2.337,0,0,0,2.979-.454C22.242,9.08,23,8.352,23.711,7.575a4.694,4.694,0,0,1,4.682-1.5c.618.121,1.23.277,1.846.4a2.764,2.764,0,0,0,2.849-.88,18.117,18.117,0,0,1,1.764-1.8,3.714,3.714,0,0,1,5.489.359c.639.751.976.675,1.479-.069A13.74,13.74,0,0,1,43.977,1.46a4.676,4.676,0,0,1,6.788,0A17.3,17.3,0,0,1,53.081,4.28c.388.531.653.6,1.155.062,1.953-2.093,4.083-2.112,6.123-.123a.6.6,0,0,1,.09.088c1.446,2.15,3.339,2.616,5.792,1.822a4.379,4.379,0,0,1,4.792,1.444c.735.808,1.518,1.576,2.314,2.324a2.258,2.258,0,0,0,2.771.422,3.076,3.076,0,0,1,4.454,1.439,8.18,8.18,0,0,0,5.382,5.1c1.548.451,1.853,1.941,2.067,3.336a63.388,63.388,0,0,1,.145,13.093c-.374,6.972-1.159,13.9-2.136,20.814a5.194,5.194,0,0,0-.013.628.959.959,0,0,1,.145.718,72.326,72.326,0,0,1-2.449,11.876c-.2.607-.359,1.338-1.256,1.319" transform="translate(-1.891 0)" fill="#4c2d19"/>
        <path id="Trazado_135989" data-name="Trazado 135989" d="M48.211,148.408c2.712,1.656,5.445,3.28,8.126,4.986a2.04,2.04,0,0,0,2.5,0c2.681-1.706,5.413-3.33,8.126-4.986,2.43-.062,4.269,1.223,6.046,2.652.422.34.862.66,1.293.989.394.385.324.722.019,1.17-.741,1.087-1.407,2.225-2.1,3.342-1.428,2.189-2.9,4.353-4.259,6.582-.46.753-.717.695-1.255.142-.45-.462-.79-1.1-1.536-1.2.052-.392-.218-.611-.455-.848q-3.215-3.206-6.428-6.411c-.366-.365-.666-.749-1.225-.182-2.27,2.305-4.576,4.577-6.855,6.874-.128.128-.136.375-.2.567-.746.1-1.086.738-1.536,1.2-.538.554-.794.611-1.254-.142-1.362-2.229-2.832-4.393-4.259-6.582-.7-1.117-1.362-2.255-2.1-3.341-.305-.448-.375-.785.018-1.171a38.325,38.325,0,0,1,3.43-2.515,7.081,7.081,0,0,1,3.909-1.127" transform="translate(-12.107 -44.252)" fill="#f1788e"/>
        <path id="Trazado_135990" data-name="Trazado 135990" d="M6.836,77.992c.6,3.162,1.16,6.33,1.8,9.482.232,1.141.635,2.248.974,3.366a1.392,1.392,0,0,0,.785,1.065,43.64,43.64,0,0,0,1.258,6.086C7.024,99.249,3.04,97.147.876,92.305A11.025,11.025,0,0,1,5.334,78.6a11.9,11.9,0,0,1,1.5-.612" transform="translate(0 -23.257)" fill="#fbbb84"/>
        <path id="Trazado_135991" data-name="Trazado 135991" d="M114.263,91.905c.9-.53.982-1.519,1.233-2.369a88.891,88.891,0,0,0,2.055-10.323c.07-.411.18-.815.272-1.222,4.538,1.451,7.53,6.627,6.69,11.524a10.747,10.747,0,0,1-3.733,6.908,8.093,8.093,0,0,1-7.773,1.568,43.863,43.863,0,0,0,1.257-6.086" transform="translate(-33.698 -23.257)" fill="#fbbb84"/>
        <path id="Trazado_135992" data-name="Trazado 135992" d="M70.545,145.811a13.843,13.843,0,0,1-5.122.2,35.379,35.379,0,0,1-7.852-1.467,26.592,26.592,0,0,1-4.75-2.112,57.173,57.173,0,0,0,17.768-.4q-.022,1.889-.044,3.777" transform="translate(-15.751 -42.353)" fill="#fbbb85"/>
        <path id="Trazado_135993" data-name="Trazado 135993" d="M41.866,86.875A4.163,4.163,0,0,1,38.005,91.2a4.173,4.173,0,0,1-3.957-4.358,3.921,3.921,0,1,1,7.818.035" transform="translate(-10.153 -24.638)" fill="#3b2519"/>
        <path id="Trazado_135994" data-name="Trazado 135994" d="M86.28,84.363c-.252-.244-.118-.438.079-.625a3.687,3.687,0,0,1,2.2-1.091,3.971,3.971,0,0,1,4.337,4,3.934,3.934,0,1,1-7.76-.069c.1-.838-.032-1.915,1.152-2.249.265.241.242.6.365.9.138.335.36.573.749.486a.712.712,0,0,0,.626-.788c-.028-.382-.3-.561-.651-.634-.373-.076-.729.119-1.1.067" transform="translate(-25.38 -24.638)" fill="#3b2519"/>
        <path id="Trazado_135995" data-name="Trazado 135995" d="M36.79,70.256a14.768,14.768,0,0,0-4.534.971c-.642.193-1.392.51-1.87-.138a1.781,1.781,0,0,1,.189-2.015,5.475,5.475,0,0,1,3.5-2.487,9.743,9.743,0,0,1,5.946.111,4.091,4.091,0,0,1,2.894,3.988c-.07.868-.359,1.249-1.283.8a11.45,11.45,0,0,0-4.838-1.234" transform="translate(-8.988 -19.734)" fill="#4c2d19"/>
        <path id="Trazado_135996" data-name="Trazado 135996" d="M87.187,66.151a9.538,9.538,0,0,1,4.853,1.277,4.912,4.912,0,0,1,1.493,1.51c.4.672.752,1.443.272,2.124-.505.717-1.331.38-1.976.122a10.894,10.894,0,0,0-9.375.331c-.778.394-1.089.062-1.166-.688a3.648,3.648,0,0,1,1.542-3.394,7.449,7.449,0,0,1,4.357-1.282" transform="translate(-24.233 -19.726)" fill="#4c2d19"/>
        <path id="Trazado_135997" data-name="Trazado 135997" d="M62.056,112.132c-1.886-.192-3.817-.34-5.226-1.934a2.1,2.1,0,0,1-.257-.276c-.38-.637-1.02-1.428-.54-2.025.457-.568,1.218.119,1.773.41a8.866,8.866,0,0,0,8.734-.039c.53-.279,1.272-.888,1.675-.4.514.62-.059,1.437-.5,2.015-1.411,1.861-3.5,2.1-5.662,2.253" transform="translate(-16.658 -32.109)" fill="#fbbb85"/>
        <path id="Trazado_135998" data-name="Trazado 135998" d="M70.529,120.857a4.242,4.242,0,0,1-2.809,2.176,16.028,16.028,0,0,1-4.422.829,28.83,28.83,0,0,1-8.83-.557,6.18,6.18,0,0,1-3.284-1.748c-.135-.151-.355-.313-.245-.535.152-.306.423-.156.651-.075a30.332,30.332,0,0,0,4.828,1.369,23.647,23.647,0,0,0,11.858-.877,6.612,6.612,0,0,1,2.254-.583" transform="translate(-15.18 -36.033)" fill="#f6945e"/>
        <path id="Trazado_135999" data-name="Trazado 135999" d="M86.749,84.886a1.375,1.375,0,0,1,1.1-.5,1.068,1.068,0,0,1,1.074,1.031,1.1,1.1,0,0,1-.993,1.242,1,1,0,0,1-1.222-.813,3.512,3.512,0,0,1,.051-.985l-.011.029" transform="translate(-25.849 -25.161)" fill="#f7f6f6"/>
        <path id="Trazado_136000" data-name="Trazado 136000" d="M66.035,127.49c-.44,1.79-1.546,1.623-2.574,1.623-.874,0-1.338-.441-1.581-1.535a3.414,3.414,0,0,0,4.155-.088" transform="translate(-18.452 -38.017)" fill="#fbbc85"/>
        <path id="Trazado_136001" data-name="Trazado 136001" d="M37.886,85.573c-.155.7-.557,1.161-1.289,1.093a1.043,1.043,0,0,1-1.009-1.193A1.031,1.031,0,0,1,36.827,84.4c.7.049.986.524,1.059,1.169" transform="translate(-10.611 -25.167)" fill="#f8f8f7"/>
      </g>
    </g>
  </g>
</svg>
