<svg xmlns="http://www.w3.org/2000/svg" xmlns:xlink="http://www.w3.org/1999/xlink" width="295" height="154" viewBox="0 0 295 154">
  <defs>
    <clipPath id="clip-path">
      <rect id="Rect치ngulo_38081" data-name="Rect치ngulo 38081" width="132.604" height="132.678" fill="none"/>
    </clipPath>
  </defs>
  <g id="_73" data-name="73" transform="translate(-180 -7006)">
    <rect id="Rect치ngulo_37925" data-name="Rect치ngulo 37925" width="295" height="154" transform="translate(180 7006)" fill="#a6bbff"/>
    <g id="Grupo_158950" data-name="Grupo 158950" transform="translate(261 7017)">
      <g id="Grupo_158949" data-name="Grupo 158949" clip-path="url(#clip-path)">
        <path id="Trazado_135929" data-name="Trazado 135929" d="M28.895,146.907c2.828-1.587,5.646-3.192,8.491-4.748a2.136,2.136,0,0,0,1.221-1.63c1.772-8.947,3.781-17.842,5.869-26.72a19.256,19.256,0,0,1,4.7-8.677,13.616,13.616,0,0,1,7.538-4.576c.683.4.66,1.167.871,1.792,2.294,6.821,7.861,11.376,15.028,11.68a16.028,16.028,0,0,0,14.348-7.09,17.675,17.675,0,0,0,2.485-5.456c.126-.428.116-.925.587-1.183a1.3,1.3,0,0,1,1.052.119,36.568,36.568,0,0,1,5.723,3.141,5.677,5.677,0,0,1,1.336,1.518c3.27,3.111,4.557,7.141,5.5,11.407,1.779,8.067,3.7,16.1,5.224,24.225a1.948,1.948,0,0,0,1.149,1.411c2.723,1.5,5.429,3.029,8.141,4.548.11.531-.239.867-.553,1.184a4.416,4.416,0,0,0-1.234,3.374c.018.914-.027,1.829.014,2.742a3.555,3.555,0,0,0,3.712,3.749c3.286.007,2.817.51,2.86,3.076a10.356,10.356,0,0,0,.1,2.318,3.955,3.955,0,0,0,2.187,3.031c.295.139.7.28.595.764-4.344.475-8.183-1.359-12.139-2.655q-2.653-.868-5.3-1.739a.852.852,0,0,1-.462-.906c.055-1.284-.706-1.451-1.742-1.422a7.168,7.168,0,0,1-2.685-.177c-.612-.391-.5-1.029-.521-1.605a27.46,27.46,0,0,0-6.516-16.938,4.533,4.533,0,0,1-1.223-1.947,5.259,5.259,0,0,1,.583-1.527c1.914-4.642,1.576-9.014-1.6-13.024a4.981,4.981,0,0,1-1.161-3.281,3.912,3.912,0,0,0-.31-2.333,12.806,12.806,0,0,0-2.673,3.939c-.313.836.286,1.476.866,2.022a9.551,9.551,0,0,1,2.746,3.713c.982,2.833,1.211,5.623-.679,8.229-.807.262-1.257-.372-1.784-.75a26.394,26.394,0,0,0-9.318-4.411,32.363,32.363,0,0,0-4.77-.8,1.956,1.956,0,0,1-1.35-.52,3.923,3.923,0,0,1-.255-2.4c.044-.719.57-.946,1.165-1.158,1.587-.568,2.392-1.68,2.25-3.011A2.977,2.977,0,0,0,76,121.489a29.317,29.317,0,0,0-5.329.018,2.962,2.962,0,0,0-2.852,2.673c-.153,1.338.666,2.454,2.227,3.036,1.33.5,1.556,1.249,1.026,3.416a1.873,1.873,0,0,1-1.451.645,27.622,27.622,0,0,0-14.253,5.458,2.059,2.059,0,0,1-1.468.627c-1.613-1.536-1.818-3.547-1.642-5.56a9.689,9.689,0,0,1,3.4-6.54c1.357-1.205,1.4-1.661.376-3.128-.523-.75-1.024-1.518-1.618-2.216-.175-.206-.381-.47-.681-.339-.281.124-.268.448-.268.723a2.2,2.2,0,0,0,.065.545,4.261,4.261,0,0,1-.954,3.841,14.1,14.1,0,0,0-2.73,5.627,12.669,12.669,0,0,0,1.071,7.88,6.692,6.692,0,0,1,.62,1.52,1.571,1.571,0,0,1-.55,1.063,28.356,28.356,0,0,0-7,15.167c-.364,1.284.195,2.685-.5,3.926a5.265,5.265,0,0,1-2.931.31c-1.093-.02-1.763.248-1.688,1.5a1.071,1.071,0,0,1-.453,1.073c-2.844.935-5.723,1.776-8.521,2.83a20.992,20.992,0,0,1-8.95,1.321c-.1-.486.3-.624.594-.764a3.969,3.969,0,0,0,2.186-3.035,26.624,26.624,0,0,0,.11-3.677c.061-1.351.278-1.584,1.6-1.662.408-.024.819,0,1.228-.026a3.654,3.654,0,0,0,3.73-3.733c.055-1.09.033-2.183,0-3.276a4.168,4.168,0,0,0-.906-2.524c-.3-.381-.734-.715-.6-1.3" transform="translate(-7.167 -34.316)" fill="#fe7d71"/>
        <path id="Trazado_135930" data-name="Trazado 135930" d="M64.8,36.206c-2.388-6.592-3.246-13.345-1.649-20.225C64.2,11.45,66.7,7.97,71.493,6.705a7.961,7.961,0,0,1,5.366.508,1.347,1.347,0,0,0,1.835-.424C81.981,3.3,85.857.8,90.705.176a21.227,21.227,0,0,1,21.914,12.059c3.076,6.436,2.487,12.873.1,19.313-.586,1.579-1.371,3.084-2.064,4.624-.5.434-1.006.143-1.509.007a13.214,13.214,0,0,0-3.3-.17A37.4,37.4,0,0,1,94.956,34.9c-8.745-2.386-15.009-7.413-17.536-16.431-.059-.21-.071-.457-.411-.574A16.457,16.457,0,0,0,73.9,22.31a32.674,32.674,0,0,0-3.3,10.568,5.277,5.277,0,0,1-.659,2.619c-1.718.217-3.419.556-5.145.708" transform="translate(-21.342 0)" fill="#4a5870"/>
        <path id="Trazado_135931" data-name="Trazado 135931" d="M112.894,44.624c.452.137.863.469,1.382.3,3.034,2.085,3.812,4.533,2.262,7.275a5.4,5.4,0,0,1-3.331,2.647,1.618,1.618,0,0,1-.615.305c-1.378.195-2.787-.183-4.15.232a14.72,14.72,0,0,0-1.938,2.949,17.4,17.4,0,0,1-7.764,6.228,20.344,20.344,0,0,1-14.621.072,17.283,17.283,0,0,1-9.861-9.655A18.853,18.853,0,0,1,73,46a3.749,3.749,0,0,1,.573-1.944c.689-6.8,2.486-13.153,7.443-18.493A34.166,34.166,0,0,0,82.4,30.116c3.094,7.2,8.815,11.191,16.155,13.165a33.779,33.779,0,0,0,10.711,1.127c1.194.316,2.429-.072,3.625.216" transform="translate(-24.964 -8.752)" fill="#fec6b2"/>
        <path id="Trazado_135932" data-name="Trazado 135932" d="M47.525,193.527c.077-2.976.077-2.975,3.084-2.978.63,0,1.261-.018,1.891-.027a3.1,3.1,0,0,1,1.98-.4q28.021-.008,56.042,0a3.109,3.109,0,0,1,1.981.4c1.175.01,2.356.093,3.524.007,1.1-.08,1.606.239,1.442,1.405a7.751,7.751,0,0,0,.036,1.35c-.6,2.988-2.309,4.415-5.345,4.415q-29.674.007-59.349,0c-2.919,0-4.581-1.328-5.285-4.173" transform="translate(-16.271 -65.089)" fill="#4a5870"/>
        <path id="Trazado_135933" data-name="Trazado 135933" d="M16.79,187.12c-.14,1.912-1.574,2.726-3.007,3.541-2.825-.068-5.679.375-8.471-.253a7.007,7.007,0,0,1-5.3-6.687c-.024-2.058-.008-4.118,0-6.176a7.223,7.223,0,0,1,7.31-7.439c.777-.022,1.555-.015,2.333-.021a3.253,3.253,0,0,1,3.318-.023c1.991.006,3.983,0,5.975.024.485.005,1-.133,1.436.229-.817.746-1.824.395-2.752.45a10.761,10.761,0,0,1-2.527-.1c1.766,1.1,2.092,2.646,2.113,4.441.047,4.014-.318,8.009-.425,12.014" transform="translate(0 -58.072)" fill="#fec6b2"/>
        <path id="Trazado_135934" data-name="Trazado 135934" d="M177.023,190.662c-1.429-.817-2.869-1.627-3-3.542a.883.883,0,0,1-.109-.39c.116-3.88-.428-7.739-.324-11.624.049-1.792.351-3.336,2.066-4.408a34.374,34.374,0,0,1-3.986.06,1.429,1.429,0,0,1-1.242-.443c1.6-.52,3.238-.115,4.854-.226.77-.053,1.545-.016,2.319-.021a3.243,3.243,0,0,1,3.314.015,17.254,17.254,0,0,1,4.758.366,6.573,6.573,0,0,1,4.977,5.623,29.254,29.254,0,0,1-.151,9.407,6.988,6.988,0,0,1-6.479,5.2c-2.33.045-4.661-.007-6.993-.016" transform="translate(-58.347 -58.072)" fill="#fec6b2"/>
        <path id="Trazado_135935" data-name="Trazado 135935" d="M71.605,69.866a16.679,16.679,0,0,0,9.321,9.127,1.851,1.851,0,0,1,.437,1.256c-.034,1.943.079,3.89-.133,5.827-.256.641-.881.727-1.425.921-1.665.593-3.369,1.075-5.006,1.745-1.17.312-2.176,1.1-3.428,1.181a26.213,26.213,0,0,0-7.489,4.432c.8-8.49,1.258-17,1.464-25.523.633-.245,1.152.153,1.7.325a9.764,9.764,0,0,0,3.118.347,2.55,2.55,0,0,1,1.44.362" transform="translate(-21.871 -23.539)" fill="#4a5870"/>
        <path id="Trazado_135936" data-name="Trazado 135936" d="M112.175,79.406a17.863,17.863,0,0,0,9.093-9.061c1.54-.4,3.134.1,4.674-.281l.56.017a156.124,156.124,0,0,0,2.018,19.951c.247,1.571.481,3.144.72,4.716a26.244,26.244,0,0,0-8-4.648c-1.265-.076-2.282-.89-3.482-1.161-1.338-.419-2.624-.979-3.979-1.353-1.829-.5-1.931-.687-1.982-2.663-.067-1.324-.036-2.646-.03-3.968a2.191,2.191,0,0,1,.412-1.549" transform="translate(-38.26 -23.988)" fill="#585d71"/>
        <path id="Trazado_135937" data-name="Trazado 135937" d="M15.571,154.392l-3.318.022c0-3.979-.017-7.959,0-11.939a1.855,1.855,0,0,0-.815-1.714c-3.919-2.946-5-9.915-2.5-14.084a5.881,5.881,0,0,1,6.132-2.732,5.765,5.765,0,0,1,4.8,4.87c.931,4.659.464,9.031-3.719,12.2a1.622,1.622,0,0,0-.61,1.442c.024,3.979.024,7.959.033,11.938" transform="translate(-2.601 -42.401)" fill="#bfbfcd"/>
        <path id="Trazado_135938" data-name="Trazado 135938" d="M181.761,154.175l-3.314-.015c0-4.074-.007-8.149.022-12.222a3.7,3.7,0,0,0-1.941-3.392,6.628,6.628,0,0,1-3.611-6.424c.089-1.827.031-3.662.011-5.493-.012-1.019.161-1.84,1.43-1.881,1.144-.037,1.828.573,1.86,1.86.049,1.968.045,3.937.01,5.9a3.193,3.193,0,0,0,2,3.122c.4-.379.224-.813.226-1.188.018-3.067,0-6.134.015-9.2.007-1.319.66-2.1,1.67-2.091s1.614.783,1.619,2.127c.013,3.159,0,6.317.013,9.476,0,.293-.17.706.213.855.349.137.556-.226.792-.422a4.006,4.006,0,0,0,1.436-3.27c0-1.831.013-3.662,0-5.493-.009-.952.289-1.589,1.357-1.681a1.541,1.541,0,0,1,1.892,1.514,58.315,58.315,0,0,1-.069,7.129,6.318,6.318,0,0,1-3.329,4.936,4.449,4.449,0,0,0-2.316,4.315c.059,3.845.018,7.69.018,11.536" transform="translate(-59.197 -42.164)" fill="#bfbfcd"/>
        <path id="Trazado_135939" data-name="Trazado 135939" d="M156.747,92.277c4.779-2.338,7.07-6.263,8.091-11.451,1.238,4.745,2.352,9.259,6.685,11.908-4.159,3.784-5.622,6.109-6.467,10.477-.988-5.151-3.251-9.007-8.309-10.933" transform="translate(-53.665 -27.672)" fill="#fece64"/>
        <path id="Trazado_135940" data-name="Trazado 135940" d="M168.717,170.675h5.729c.026.135.073.255.049.272a5.107,5.107,0,0,0-2.224,4.922c.16,3.864.042,7.741.04,11.612-.535-1.085-.2-2.24-.241-3.36-.064-1.855-.019-1.888-1.855-1.85-1.755.036-3.257-.346-4.18-2.024a4.139,4.139,0,0,1-.579-2.077c.012-1.053.062-2.11-.011-3.159-.131-1.875,1.07-3.02,2.183-4.229l1.086-.108" transform="translate(-56.64 -58.433)" fill="#f19986"/>
        <path id="Trazado_135941" data-name="Trazado 135941" d="M24.38,187.483c0-3.735-.094-7.472.024-11.2.071-2.219-.18-4.163-2.236-5.6h5.8l1.347.348c2.631,2.206,2.023,5.212,1.784,8.005-.174,2.042-1.937,3.205-4.106,3.232-2.362.028-2.33.029-2.377,2.419-.018.933.276,1.906-.239,2.8" transform="translate(-7.59 -58.434)" fill="#f19986"/>
        <path id="Trazado_135942" data-name="Trazado 135942" d="M36.237,64.7a14.517,14.517,0,0,0,5.74,8.838c.3.232.635.465.034.779-3.03,1.582-4.1,4.516-5.12,7.477-.088.255-.185.508-.4,1.088a12.032,12.032,0,0,0-6.555-8.941c4.5-1.517,5.7-5.029,6.3-9.241" transform="translate(-10.25 -22.149)" fill="#fece64"/>
        <path id="Trazado_135943" data-name="Trazado 135943" d="M71.17,64.7c-2.129-.09-4.323.217-6.259-1.033-2.472-2.719-2.932-4.882-1.474-7.308a15.268,15.268,0,0,1,1.457-1.78,9.858,9.858,0,0,1,5.149-.9c.08,1.312-.281,2.587-.265,3.906A19.429,19.429,0,0,0,71.17,64.7" transform="translate(-21.436 -18.376)" fill="#f19986"/>
        <path id="Trazado_135944" data-name="Trazado 135944" d="M55.613,171.251a27.965,27.965,0,0,1,6.581-14.714c.349-.415.692-.835,1.038-1.252a5.158,5.158,0,0,1,2.558-2.407,32.543,32.543,0,0,1,10.471-5.447,53.92,53.92,0,0,1,6.566-1.171,6.118,6.118,0,0,1,4.884,0,41.465,41.465,0,0,1,6.353,1.133c4.384,2.817,7.518,10.267,6.358,15.111a11.751,11.751,0,0,1-11.167,9.117c-10.744.105-21.491.037-32.237.026a1.732,1.732,0,0,1-1.405-.4" transform="translate(-19.04 -49.901)" fill="#e2e1e7"/>
        <path id="Trazado_135945" data-name="Trazado 135945" d="M55.434,172.106q16.678,0,33.356,0a11.44,11.44,0,0,0,10.263-16.334,31.462,31.462,0,0,0-5.168-7.525,28.463,28.463,0,0,1,10.7,5.465,3.814,3.814,0,0,1,2.446,2.224,30.583,30.583,0,0,1,7.625,14.831,31.5,31.5,0,0,1,.433,5.42c-.548.015-1.1.042-1.645.043q-28.356,0-56.711,0c-.548,0-1.1-.028-1.646-.042.185-1.355-.235-2.761.345-4.083" transform="translate(-18.861 -50.755)" fill="#bfbfcd"/>
        <path id="Trazado_135946" data-name="Trazado 135946" d="M105.474,98.415a11.041,11.041,0,0,1,3.274,1.392,21.942,21.942,0,0,1-2.962,6.835,16.9,16.9,0,0,1-30.3-6.221,1.237,1.237,0,0,0-.211-.343,11.49,11.49,0,0,1,3.25-1.408c.542.45.562,1.127.736,1.73a13.21,13.21,0,0,0,25.239.83c.339-.934.307-2,.979-2.815" transform="translate(-25.77 -33.694)" fill="#e14949"/>
        <path id="Trazado_135947" data-name="Trazado 135947" d="M100.015,141.5H95.13c0-.32-.028-.643,0-.961.1-1.146.073-2.025-1.472-2.289a3.046,3.046,0,0,1-2.1-3.184,3.328,3.328,0,0,1,3.13-3.118,44.374,44.374,0,0,1,5.765,0,3.276,3.276,0,0,1,.376,6.507c-.644.134-.843.381-.818.984.03.686,0,1.374,0,2.06" transform="translate(-31.343 -45.144)" fill="#bfbfcd"/>
        <path id="Trazado_135948" data-name="Trazado 135948" d="M68.64,147l-2.558,2.407c-3.151-5.017-2.828-10.441.957-15.262a3.618,3.618,0,0,0,.842-3.552,4.159,4.159,0,0,1-.089-1.088.771.771,0,0,1,.5-.877c.429-.139.708.137.925.433.81,1.1,1.641,2.192,2.383,3.339a1.655,1.655,0,0,1-.439,2.425,9.487,9.487,0,0,0-3.856,6.684A8.721,8.721,0,0,0,68.64,147" transform="translate(-21.89 -44.026)" fill="#e14949"/>
        <path id="Trazado_135949" data-name="Trazado 135949" d="M131.051,149.2l-2.447-2.224a9.3,9.3,0,0,0-2.329-11.851c-1.308-1.217-1.342-1.97-.3-3.435.606-.856,1.232-1.7,1.816-2.567.256-.381.545-.645,1.007-.51s.376.569.38.923c.007.594.034,1.192-.018,1.783a4.156,4.156,0,0,0,1.175,3.232,12.513,12.513,0,0,1,.719,14.649" transform="translate(-42.878 -44.022)" fill="#e14949"/>
        <path id="Trazado_135950" data-name="Trazado 135950" d="M131.819,54.4c-1.206-.107-2.438.231-3.624-.216,1.208.07,2.443-.316,3.624.216" transform="translate(-43.89 -18.526)" fill="#585d71"/>
        <path id="Trazado_135951" data-name="Trazado 135951" d="M104.66,84.269q-.02,2.876-.039,5.752a2.806,2.806,0,0,1-1.74.019c-3.451-.586-6.917-1.068-10.365-1.67-1.973-.345-1.946-.332-2.039,1.632-.028.593.3,1.4-.661,1.656.152-2.452.049-4.9-.017-7.354a20.853,20.853,0,0,0,14.861-.035" transform="translate(-30.744 -28.851)" fill="#f19986"/>
        <path id="Trazado_135952" data-name="Trazado 135952" d="M90.764,61.178A1.616,1.616,0,1,1,89.1,62.831a1.543,1.543,0,0,1,1.663-1.653" transform="translate(-30.505 -20.945)" fill="#4c5970"/>
        <path id="Trazado_135953" data-name="Trazado 135953" d="M111.978,62.784c-.11,1.075-.71,1.677-1.7,1.628A1.53,1.53,0,0,1,108.7,62.7a1.487,1.487,0,0,1,1.624-1.5,1.55,1.55,0,0,1,1.652,1.58" transform="translate(-37.214 -20.954)" fill="#4b5970"/>
        <path id="Trazado_135954" data-name="Trazado 135954" d="M130.9,70.016c-1.529.575-3.121.1-4.674.281,1.522-.7,3.117-.182,4.674-.281" transform="translate(-43.214 -23.94)" fill="#aa7d7c"/>
        <path id="Trazado_135955" data-name="Trazado 135955" d="M86.534,93.408c.6-1.016.17-2.126.289-3.186.051-.453-.053-.948.714-.818,4.515.764,9.035,1.5,13.553,2.254a1.052,1.052,0,0,1,.249.114c-.145,1.156.271,1.748,1.5,2.03a37.87,37.87,0,0,1,4.325,1.52,13.567,13.567,0,0,1-26.657,1.732c-.124-.486-.2-.984-.3-1.478a37.975,37.975,0,0,1,6.322-2.169" transform="translate(-27.462 -30.602)" fill="#fec6b2"/>
        <path id="Trazado_135956" data-name="Trazado 135956" d="M86.645,162.289c-.01,2.471-2.329,4.86-4.731,4.652a4.784,4.784,0,0,1,.224-9.565c2.672.011,4.518,2.022,4.507,4.913" transform="translate(-26.458 -53.881)" fill="#fefefe"/>
      </g>
    </g>
  </g>
</svg>
