<svg xmlns="http://www.w3.org/2000/svg" xmlns:xlink="http://www.w3.org/1999/xlink" width="295" height="154" viewBox="0 0 295 154">
  <defs>
    <clipPath id="clip-path">
      <rect id="Rect치ngulo_38082" data-name="Rect치ngulo 38082" width="140.911" height="140.9" fill="none"/>
    </clipPath>
  </defs>
  <g id="_74" data-name="74" transform="translate(-495 -7010)">
    <rect id="Rect치ngulo_37926" data-name="Rect치ngulo 37926" width="295" height="154" transform="translate(495 7010)" fill="#a6bbff"/>
    <g id="Grupo_158953" data-name="Grupo 158953" transform="translate(572 7017)">
      <g id="Grupo_158952" data-name="Grupo 158952" clip-path="url(#clip-path)">
        <path id="Trazado_135957" data-name="Trazado 135957" d="M5.837,142.991a13.846,13.846,0,0,1-5.83-12.28c.127-4.743.139-9.495.4-14.231q.658-12.143,2.523-24.172A256.93,256.93,0,0,1,12.5,52.541a2.561,2.561,0,0,1,2-.487q27.138-.019,54.276,0a4.983,4.983,0,0,1,1.647.181c1.045.6.453,1.426.231,2.129-1.963,6.209-3.746,12.467-5.276,18.8-.782,3.238-1.444,6.5-2.1,9.768a4.478,4.478,0,0,0,.012,2.095c-.233.8-.926.643-1.5.7-9.184.931-18.208,2.58-26.811,6.06a25.045,25.045,0,0,0-7.432,4.331c-1.775,1.579-3,3.419-2.782,5.931a9.065,9.065,0,0,0,.153,2.65,45.845,45.845,0,0,0,3.5,13.1c2.072,5.2,4.082,10.421,6.072,15.651.229.6.769,1.292-.053,1.9-2.526.483-5.072.083-7.6.179-.806.013-1.613-.026-2.42-.025a13.784,13.784,0,0,0-12.147,6.7,3.168,3.168,0,0,1-1.174,1.35,9.022,9.022,0,0,1-5.257-.558" transform="translate(0 -23.362)" fill="#eddb99"/>
        <path id="Trazado_135958" data-name="Trazado 135958" d="M54.607,176.7q-3.782-9.782-7.56-19.566a33.82,33.82,0,0,1-2.495-10.676c-.121-.459-.278-.921.126-1.33a.781.781,0,0,1,.759.4c3.027,3.948,7.35,5.842,11.836,7.478.757.276,1.522.53,2.289.787a126.213,126.213,0,0,0,24.4,4.639,185.182,185.182,0,0,0,22.859.859c13.129-.323,26.124-1.662,38.758-5.494a43.407,43.407,0,0,0,9.047-3.855,14.407,14.407,0,0,0,5.05-4.5c.184-.279.329-.653.784-.6a1.922,1.922,0,0,1,.117,1.625,33.233,33.233,0,0,1-2.36,10.266q-4.1,10.648-8.267,21.27a23.953,23.953,0,0,1-10.939,12.666c-.513-.327-.6-.9-.809-1.4a6.459,6.459,0,0,0-7.246-4.084c-1.181.166-2.384.455-3.511-.252-.921-1.072-1.621-2.3-2.621-3.329a14.044,14.044,0,0,0-10.465-4.374q-28.507-.007-57.013-.014c-.927,0-1.939.271-2.737-.506" transform="translate(-19.938 -65.012)" fill="#379dc2"/>
        <path id="Trazado_135959" data-name="Trazado 135959" d="M56.243,202.654c1.313.017,2.626.047,3.938.047q27.889,0,55.778.013a14.271,14.271,0,0,1,13.458,8.187c1.422,1.111,1.487,2.807,1.765,4.357a13.4,13.4,0,0,1-.781,7.126,2.47,2.47,0,0,1-1,1.283c-2.668,5.154-6.928,8.09-12.7,8.118-22.779.11-45.56.045-68.339.043a2.438,2.438,0,0,1-.3-.036c.184-.8.928-.646,1.449-.8a14.185,14.185,0,0,0,0-27.442c-.519-.154-1.266,0-1.442-.8l8.174-.1" transform="translate(-21.575 -90.968)" fill="#723024"/>
        <path id="Trazado_135960" data-name="Trazado 135960" d="M74.825,29.228,16.5,29.205a7.352,7.352,0,0,1-7.58-7.672c0-3.185-.015-6.371,0-9.557A12.174,12.174,0,0,1,20.838.073Q52.62.042,84.4.056a3.905,3.905,0,0,1,.451.051c-.063.531-.518.547-.887.667-6.2,2.013-9.106,6-9.084,12.466,0,.5.013,1.007.014,1.512.023,2.209,0,4.418.013,6.627.019,3.056,1.155,5.443,4.017,6.858.392.194,1.364.2.853,1.156a7.537,7.537,0,0,1-4.953-.166" transform="translate(-4.002 -0.025)" fill="#ebe8bf"/>
        <path id="Trazado_135961" data-name="Trazado 135961" d="M121.755,29.2l5.083-.052c.538-.514,1.226-.384,1.867-.42a6.942,6.942,0,0,0,6.82-7.082c.031-1.667-.032-3.335.018-5,.036-1.185-.476-1.608-1.623-1.6-3.485.026-6.971.019-10.456,0a2.6,2.6,0,0,1-2.008-.459c-.43-5.11.968-9.435,5.344-12.49A15.53,15.53,0,0,1,131.781.082c4.661-.432,8.681.8,11.719,4.543a11.994,11.994,0,0,1,2.228,4.423c2.986,10.774,6.02,21.536,8.051,32.546.055.3.063.6.093.9-.253.525-.778.6-1.252.753a49.014,49.014,0,0,0-18.993,11.54,24.819,24.819,0,0,0-3.238,3.593c-1.218,1.759-2.639,3.007-4.883,3.035-3.359.107-6.711.284-10.051.645a1.753,1.753,0,0,1-1.425-.324c-.853-.23-.515-.878-.422-1.364A249.441,249.441,0,0,1,121.755,29.2" transform="translate(-50.931 0)" fill="#e78504"/>
        <path id="Trazado_135962" data-name="Trazado 135962" d="M186.266,48.641c3-4.85,6.012-9.692,8.994-14.553,3.432-5.594,6.82-11.214,10.26-16.8a6.906,6.906,0,0,1,7.465-3.482,6.686,6.686,0,0,1,5.585,5.129,6.757,6.757,0,0,1-.851,5.524Q207.8,40.664,197.866,56.868a1.462,1.462,0,0,0-.1.284c-1.643,2.53-4.138,2.73-6.794,2.479a4.357,4.357,0,0,1-1.164-.311,12.921,12.921,0,0,1-1.449-.731,8.728,8.728,0,0,1-3.006-3.82,7.133,7.133,0,0,1-.325-1.148c-.1-1.788-.219-3.582,1.242-4.98" transform="translate(-83.031 -6.142)" fill="#a5b1bb"/>
        <path id="Trazado_135963" data-name="Trazado 135963" d="M35.665,202.78a17.173,17.173,0,0,1,8.791,4.915c4.7,4.988,4.695,14.228,0,19.217a17.123,17.123,0,0,1-8.794,4.91c-6.557.544-11.642-1.83-15.016-7.585a3.444,3.444,0,0,1-.21-.554,1.766,1.766,0,0,1,1.588-.7c2.67-.126,5.317-.505,7.982-.681a5.565,5.565,0,0,0,4.5-2.109,4.789,4.789,0,0,0-2.575-7.531,27.45,27.45,0,0,0-5.4-.642,43.212,43.212,0,0,0-4.517-.4,1.7,1.7,0,0,1-1.589-.7,13.978,13.978,0,0,1,12.378-8.178c.948-.063,1.906.02,2.859.036" transform="translate(-9.17 -90.998)" fill="#974e3c"/>
        <path id="Trazado_135964" data-name="Trazado 135964" d="M230.776,131.841c-.825,2.143-2.554,3.473-4.371,4.65a35.356,35.356,0,0,1-9.91,4.413c-.073-.073-.169-.159-.159-.245.346-2.977-1.449-4.634-3.7-6a36.1,36.1,0,0,0-9.089-3.582c-.71-.2-1.515-.2-2.036-.863.161-1.786,1.143-3.308,1.605-5a64.211,64.211,0,0,0,1.738-7.954c.093-.657.04-1.469,1.012-1.6,7.406,1.439,14.655,3.318,21.073,7.525a12.938,12.938,0,0,1,3.172,3.005,5.772,5.772,0,0,1,1.2,4.412c-.206.4-.029.968-.533,1.241" transform="translate(-90.455 -51.917)" fill="#89cbe6"/>
        <path id="Trazado_135965" data-name="Trazado 135965" d="M187.76,105.288a2.08,2.08,0,0,0-.621,1.476,43.753,43.753,0,0,1-3.63,13.1,1.926,1.926,0,0,1-.3,1.719c-1.258,2.584-2.688,5.076-4.083,7.587a1.48,1.48,0,0,1-2.263.705c-3.387-1.927-3.788-1.592-1.778-5.048a49.19,49.19,0,0,0,3.29-6.292,45.415,45.415,0,0,0,3.54-12.122,3.175,3.175,0,0,0-.315-2.175c.979-1.683.707-3.556.824-5.378a18.2,18.2,0,0,1-1.608,3.006,2.221,2.221,0,0,0-.3,2.251,4.775,4.775,0,0,0-2.177,2.391c-1.974,3.837-4.038,7.626-6.04,11.449-1.922,3.661-3.936,7.273-5.8,10.963-.683,1.35-1.2,1.485-2.554.877-3.23-1.449-3.4-1.827-1.7-4.914,1.07-1.945,2.029-3.948,3.123-5.878a3.618,3.618,0,0,0,.471-1.865c1.437-1.016,1.967-2.665,2.737-4.109,1.756-3.3,3.485-6.606,5.265-9.889,1.048-2.154,2.338-4.18,3.342-6.357.611-.79.823-1.877,1.787-2.4a8.147,8.147,0,0,0,8.116-1.83c.213,2.355.5,4.707.611,7.066a38.954,38.954,0,0,1-.236,4.066,2.192,2.192,0,0,0,.3,1.6" transform="translate(-72.349 -41.548)" fill="#c3d3df"/>
        <path id="Trazado_135966" data-name="Trazado 135966" d="M11.3,217.362c3.122.507,6.279.67,9.426.914,2.5.194,4.64.945,5.685,3.483,1.519,3.686-1.275,7.263-5.681,7.468a82.494,82.494,0,0,0-9.427.9c-.952.052-1.912.044-2.855.166-4.166.54-7.444-1.537-8.225-5.28A6.693,6.693,0,0,1,5.6,217.178a1.756,1.756,0,0,0,.281-.111l5.421.295" transform="translate(-0.045 -97.438)" fill="#ac7d4d"/>
        <path id="Trazado_135967" data-name="Trazado 135967" d="M156.845,77.112a10.5,10.5,0,0,0-.889,5.222c-.494.818-1.416.9-2.178,1.232a44.055,44.055,0,0,0-16.459,11.915c-3.713,4.123-6.19,8.995-8.606,13.951.765.29,1.555-.1,2.11.5-.147.8-.825.675-1.322.655A2.042,2.042,0,0,0,127.417,112c-.844,1.781-1.731,3.543-2.646,5.29-.715,1.365-1.044,1.486-2.384.839-3.82-1.845-3.405-1.528-1.75-4.9.445-.908.9-1.81,1.346-2.717,2.556-4.727,4.554-9.754,7.641-14.292-.172-.414-.857-.146-1.013-.622,1.8.147,2.7-1.054,3.71-2.294a48.074,48.074,0,0,1,24.228-16.2c.1,0,.2.006.3,0" transform="translate(-53.609 -34.613)" fill="#c3d3df"/>
        <path id="Trazado_135968" data-name="Trazado 135968" d="M195.651,230.194a14.168,14.168,0,0,0,.016-12.767,27.151,27.151,0,0,0,2.717-.115c4.595-.637,7.42,1.281,8.513,5.832-.215,5.2-3.365,7.827-8.542,7.171-.892-.113-1.8-.084-2.7-.121" transform="translate(-87.825 -97.495)" fill="#956342"/>
        <path id="Trazado_135969" data-name="Trazado 135969" d="M254.613,144.011l.533-1.241a5.956,5.956,0,0,1-.216,2.765c-.193-.49.172-1.1-.317-1.524" transform="translate(-114.292 -64.087)" fill="#63b5d2"/>
        <path id="Trazado_135970" data-name="Trazado 135970" d="M94.834,110.66l1.822.133c-3.46,4.68-5.3,10.043-8.2,14.831a4.321,4.321,0,0,1-2.429.685c-7.029.809-13.962,2.029-20.54,4.791a16.922,16.922,0,0,0-3.922,2.249c-1.484,1.163-2.607,2.544-2.316,4.618a.789.789,0,0,1-.219.694c-4.428-1.382-8.712-3.044-12.208-6.246a8.886,8.886,0,0,1-2.053-2.563c-.674-.312-.279-1.021-.549-1.484-.365-3.469,1.75-5.549,4.239-7.325a40.9,40.9,0,0,1,12.973-5.7,102.4,102.4,0,0,1,21.093-3.758,1.309,1.309,0,0,0,.4-.177,116.545,116.545,0,0,1,11.9-.751" transform="translate(-19.832 -49.673)" fill="#89cbe6"/>
        <path id="Trazado_135971" data-name="Trazado 135971" d="M44.213,142.794l.549,1.484c-.443.335-.2.846-.326,1.263a5.834,5.834,0,0,1-.223-2.747" transform="translate(-19.823 -64.098)" fill="#56aac0"/>
        <path id="Trazado_135972" data-name="Trazado 135972" d="M70.966,149.926c-.6-2.454.106-4.088,2.449-5.779,3.166-2.284,6.822-3.436,10.511-4.452a96.4,96.4,0,0,1,16.466-2.807,28.437,28.437,0,0,1-2.184,4.638c-.387.783-.414,1.169.464,1.625,3.239,1.681,3.22,1.717,4.857-1.555.565-1.129,1.207-2.225,1.679-3.391.492-1.217,1.161-1.951,2.586-1.678a1.279,1.279,0,0,0,1.15-.235c1.315-.856,2.735-.466,4.131-.352.972.47.384,1.131.128,1.652-1.247,2.542-2.437,5.118-3.845,7.576-.582,1.017-.4,1.578.637,1.978.235.091.454.224.681.336,1.618.8,1.616.751,2.52-.854,1.689-3,3.168-6.1,4.724-9.169.319-.628.6-1.3,1.377-1.53,2.013.116,4.068-.174,6,.661.822.426.432.934.135,1.484-1.44,2.666-2.832,5.357-4.3,8.008-.477.864-.326,1.254.544,1.756,3.14,1.817,3.092,1.847,4.732-1.311,1.63-3.136,3.316-6.244,4.978-9.363a11.232,11.232,0,0,1,6.641.962,47.415,47.415,0,0,1-3.733,7.223c-.98,1.772-1.039,1.739.748,2.763,2.406,1.379,2.456,1.408,3.8-.944a55.93,55.93,0,0,0,4.08-7.91c4.391.992,8.68,2.257,12.422,4.89,2.368,1.666,3.053,3.324,2.458,5.776a70.4,70.4,0,0,1-13.177,3.3,174.374,174.374,0,0,1-37.144,2.369c-11.829-.414-23.563-1.7-34.975-5.086-.525-.155-1.029-.384-1.543-.579" transform="translate(-31.765 -60.937)" fill="#eddb99"/>
        <path id="Trazado_135973" data-name="Trazado 135973" d="M127.913,26.472c4.394.006,8.788.044,13.181,0,1.075-.011,1.417.338,1.361,1.387a26.948,26.948,0,0,0,0,4.239c.579,5.482-3.293,9.692-9.164,8.936-3.142-1.235-5.224-3.368-5.395-6.869-.125-2.557,0-5.126.013-7.691" transform="translate(-57.387 -11.881)" fill="#edbd33"/>
        <path id="Trazado_135974" data-name="Trazado 135974" d="M149.882,114.77c-1.934,3.767-3.9,7.517-5.781,11.311-.5,1-.928,1.168-1.946.635-2.967-1.55-2.991-1.5-1.49-4.487q1.87-3.717,3.735-7.436a.793.793,0,0,1,.057-.856c1.311-2.261,2.349-4.667,3.706-6.9a53.869,53.869,0,0,1,4.362-6.46c-.7.364-1.336.514-1.8-.343.057-.086.129-.206.211-.2,2.276.067,3.245-1.7,4.448-3.148a57.722,57.722,0,0,1,8.6-8.447c.386-.305.741-.722,1.33-.5.465,1.587,1.807,2.52,2.777,3.73.229.552-.215.793-.508,1.1a41.974,41.974,0,0,0-8.2,8.172,58.154,58.154,0,0,0-7.828,11.566,5.213,5.213,0,0,1-1.672,2.267" transform="translate(-62.703 -39.443)" fill="#c3d3df"/>
        <path id="Trazado_135975" data-name="Trazado 135975" d="M170.622,87.357A52.188,52.188,0,0,0,160,97.788c-1.048,1.328-2.073,2.235-3.831,1.937a5.754,5.754,0,0,1-4.657-.11c1.92-2.836,4.6-4.89,7.278-6.912a44.3,44.3,0,0,1,11.571-6.111l.266.765" transform="translate(-68.009 -38.87)" fill="#e78604"/>
        <path id="Trazado_135976" data-name="Trazado 135976" d="M158.187,124.9a73.172,73.172,0,0,1,8.689-13.5,1.164,1.164,0,0,1,.707-.5,5.685,5.685,0,0,1,5.165.374q-2.884,5.521-5.77,11.039c-.348.666-.749,1.307-1.054,1.991a1.348,1.348,0,0,1-1.386.925l-6.351-.325" transform="translate(-71.008 -49.576)" fill="#8acbe6"/>
        <path id="Trazado_135977" data-name="Trazado 135977" d="M187.4,127.935l-6.642-.962c2.251-4.209,4.525-8.408,6.734-12.64a1.666,1.666,0,0,1,1.773-1.058.794.794,0,0,1,1.185.084c.716.308.915.688.784,1.587a47.463,47.463,0,0,1-3.51,12.5,3.405,3.405,0,0,1-.325.489" transform="translate(-81.141 -50.746)" fill="#8acbe6"/>
        <path id="Trazado_135978" data-name="Trazado 135978" d="M180.4,104.993l-5.165-.374c-.038-.71.562-1.037.935-1.473a52.47,52.47,0,0,1,6.322-6.222c.267-.222.5-.5.9-.467a5.855,5.855,0,0,0,.328,2.151,42.567,42.567,0,0,1-3.324,6.385" transform="translate(-78.66 -43.297)" fill="#e78605"/>
        <path id="Trazado_135979" data-name="Trazado 135979" d="M144.136,110.222l4.656.11c.536.39,1.189.028,1.972.365-3.372,4.409-5.841,9.3-8.428,14.129l-4.52.006h-2.731c.793-1.614,1.465-3.03,2.179-4.427a58.924,58.924,0,0,1,5.572-8.936,11.2,11.2,0,0,1,1.3-1.247" transform="translate(-60.638 -49.477)" fill="#8acbe6"/>
      </g>
    </g>
  </g>
</svg>
