<svg xmlns="http://www.w3.org/2000/svg" width="1240" height="796" viewBox="0 0 1240 796">
  <g id="Grupo_159180" data-name="Grupo 159180" transform="translate(-179.544 -1151)">
    <rect id="Rectángulo_37938" data-name="Rectángulo 37938" width="1240" height="796" transform="translate(179.544 1151)" fill="#e1e8ff"/>
    <rect id="Rectángulo_37928" data-name="Rectángulo 37928" width="190" height="91" rx="10" transform="translate(442.544 1501)" fill="#3c3fa7"/>
    <path id="Trazado_137801" data-name="Trazado 137801" d="M10.39,14.658V19H7.305V6.2h5.106a5.948,5.948,0,0,1,2.6.541,4.074,4.074,0,0,1,1.749,1.538,4.2,4.2,0,0,1,.62,2.263,3.7,3.7,0,0,1-1.34,2.993,5.561,5.561,0,0,1-3.678,1.121Zm0-2.382h2.021a1.906,1.906,0,0,0,1.367-.448,1.665,1.665,0,0,0,.47-1.266,2.059,2.059,0,0,0-.483-1.433,1.712,1.712,0,0,0-1.318-.545H10.39Zm14.247-.105-.976-.07a1.752,1.752,0,0,0-1.793.879V19H18.907V9.49h2.777l.1,1.222a2.294,2.294,0,0,1,2.083-1.4,2.888,2.888,0,0,1,.826.105Zm5.669,7a4.889,4.889,0,0,1-3.542-1.305,4.507,4.507,0,0,1-1.354-3.4v-.246a5.84,5.84,0,0,1,.541-2.575,3.955,3.955,0,0,1,1.578-1.727,4.763,4.763,0,0,1,2.461-.611,4.117,4.117,0,0,1,3.164,1.244,4.887,4.887,0,0,1,1.16,3.467v1.151H28.425a2.135,2.135,0,0,0,.694,1.257,2.066,2.066,0,0,0,1.389.457,2.662,2.662,0,0,0,2.2-.984l1.354,1.6a3.784,3.784,0,0,1-1.569,1.217A5.3,5.3,0,0,1,30.306,19.176ZM29.972,11.6q-1.3,0-1.547,1.723h2.988v-.229a1.467,1.467,0,0,0-.36-1.1A1.434,1.434,0,0,0,29.972,11.6Zm14.361,2.716a5.735,5.735,0,0,1-1,3.538,3.2,3.2,0,0,1-2.694,1.323,2.742,2.742,0,0,1-2.153-.958v4.438H35.527V9.49H38.3l.088.879a2.742,2.742,0,0,1,2.241-1.055,3.224,3.224,0,0,1,2.733,1.3,5.805,5.805,0,0,1,.976,3.564Zm-2.962-.185q0-2.531-1.477-2.531a1.394,1.394,0,0,0-1.406.756V16.1a1.439,1.439,0,0,0,1.424.791q1.415,0,1.459-2.443Zm3.894.026a5.613,5.613,0,0,1,.554-2.536A3.96,3.96,0,0,1,47.41,9.912a4.791,4.791,0,0,1,2.435-.6,4.373,4.373,0,0,1,3.366,1.323,5.076,5.076,0,0,1,1.23,3.6v.105a4.925,4.925,0,0,1-1.235,3.529,4.384,4.384,0,0,1-3.344,1.305A4.434,4.434,0,0,1,46.6,17.958a4.761,4.761,0,0,1-1.327-3.3Zm2.962.185a3.538,3.538,0,0,0,.413,1.934,1.376,1.376,0,0,0,1.222.615q1.582,0,1.617-2.435v-.3q0-2.558-1.635-2.558-1.485,0-1.608,2.206Zm12.5,1.986a.684.684,0,0,0-.4-.606,6.016,6.016,0,0,0-1.5-.475A6.853,6.853,0,0,1,57,14.6a3.062,3.062,0,0,1-1.1-.971,2.319,2.319,0,0,1-.378-1.31A2.628,2.628,0,0,1,56.6,10.163a4.453,4.453,0,0,1,2.83-.848,4.934,4.934,0,0,1,3.023.853A2.666,2.666,0,0,1,63.6,12.408H60.628q0-1.143-1.2-1.143a1.194,1.194,0,0,0-.782.259.8.8,0,0,0-.316.646.737.737,0,0,0,.387.642,3.654,3.654,0,0,0,1.235.4,10.671,10.671,0,0,1,1.49.378,2.706,2.706,0,0,1,2.145,2.646,2.491,2.491,0,0,1-1.156,2.118,5.068,5.068,0,0,1-2.993.817,5.172,5.172,0,0,1-2.18-.439,3.645,3.645,0,0,1-1.494-1.2,2.707,2.707,0,0,1-.536-1.591h2.769a1.145,1.145,0,0,0,.439.962,1.808,1.808,0,0,0,1.081.3,1.422,1.422,0,0,0,.91-.246A.787.787,0,0,0,60.725,16.328ZM68.09,19H65.12V9.49H68.09ZM64.944,7.038A1.322,1.322,0,0,1,65.4,6a1.943,1.943,0,0,1,2.373,0,1.322,1.322,0,0,1,.457,1.037,1.322,1.322,0,0,1-.457,1.037,1.943,1.943,0,0,1-2.373,0A1.322,1.322,0,0,1,64.944,7.038Zm8.991,9.853a1.317,1.317,0,0,0,.967-.338,1.241,1.241,0,0,0,.334-.945h2.777a3.288,3.288,0,0,1-1.121,2.566,4.168,4.168,0,0,1-2.887,1,4.22,4.22,0,0,1-3.27-1.3,5.125,5.125,0,0,1-1.2-3.6v-.123a5.792,5.792,0,0,1,.532-2.544,3.872,3.872,0,0,1,1.534-1.7,4.573,4.573,0,0,1,2.373-.593,4.116,4.116,0,0,1,2.944,1.028,3.647,3.647,0,0,1,1.09,2.786H75.236A1.626,1.626,0,0,0,74.875,12a1.244,1.244,0,0,0-.967-.4q-1.151,0-1.345,1.468a10.357,10.357,0,0,0-.062,1.283,4.068,4.068,0,0,0,.343,1.986A1.187,1.187,0,0,0,73.935,16.891ZM82.39,19H79.419V9.49H82.39ZM79.244,7.038A1.322,1.322,0,0,1,79.7,6a1.943,1.943,0,0,1,2.373,0,1.322,1.322,0,0,1,.457,1.037,1.322,1.322,0,0,1-.457,1.037,1.943,1.943,0,0,1-2.373,0A1.322,1.322,0,0,1,79.244,7.038Zm4.6,7.119a5.613,5.613,0,0,1,.554-2.536,3.96,3.96,0,0,1,1.591-1.709,4.791,4.791,0,0,1,2.435-.6,4.373,4.373,0,0,1,3.366,1.323,5.076,5.076,0,0,1,1.23,3.6v.105a4.925,4.925,0,0,1-1.235,3.529,4.384,4.384,0,0,1-3.344,1.305,4.434,4.434,0,0,1-3.261-1.217,4.761,4.761,0,0,1-1.327-3.3Zm2.962.185a3.538,3.538,0,0,0,.413,1.934,1.376,1.376,0,0,0,1.222.615q1.582,0,1.617-2.435v-.3q0-2.558-1.635-2.558-1.485,0-1.608,2.206ZM97.042,9.49l.1,1.116a3.225,3.225,0,0,1,2.716-1.292,2.713,2.713,0,0,1,2.219.888,4.226,4.226,0,0,1,.76,2.672V19H99.863V13a1.6,1.6,0,0,0-.29-1.059,1.342,1.342,0,0,0-1.055-.338,1.413,1.413,0,0,0-1.292.686V19H94.264V9.49Zm12.032,9.686a4.889,4.889,0,0,1-3.542-1.305,4.507,4.507,0,0,1-1.354-3.4v-.246a5.84,5.84,0,0,1,.541-2.575A3.955,3.955,0,0,1,106.3,9.925a4.763,4.763,0,0,1,2.461-.611,4.117,4.117,0,0,1,3.164,1.244,4.887,4.887,0,0,1,1.16,3.467v1.151h-5.889a2.135,2.135,0,0,0,.694,1.257,2.066,2.066,0,0,0,1.389.457,2.662,2.662,0,0,0,2.2-.984l1.354,1.6a3.784,3.784,0,0,1-1.569,1.217A5.3,5.3,0,0,1,109.074,19.176ZM108.74,11.6q-1.3,0-1.547,1.723h2.988v-.229a1.467,1.467,0,0,0-.36-1.1A1.434,1.434,0,0,0,108.74,11.6Zm10.512,4.729a.684.684,0,0,0-.4-.606,6.016,6.016,0,0,0-1.5-.475,6.853,6.853,0,0,1-1.828-.646,3.062,3.062,0,0,1-1.1-.971,2.319,2.319,0,0,1-.378-1.31,2.628,2.628,0,0,1,1.081-2.158,4.453,4.453,0,0,1,2.83-.848,4.934,4.934,0,0,1,3.023.853,2.666,2.666,0,0,1,1.143,2.241h-2.971q0-1.143-1.2-1.143a1.194,1.194,0,0,0-.782.259.8.8,0,0,0-.316.646.737.737,0,0,0,.387.642,3.654,3.654,0,0,0,1.235.4,10.671,10.671,0,0,1,1.49.378,2.706,2.706,0,0,1,2.145,2.646,2.491,2.491,0,0,1-1.156,2.118,5.068,5.068,0,0,1-2.993.817,5.172,5.172,0,0,1-2.18-.439,3.645,3.645,0,0,1-1.494-1.2,2.707,2.707,0,0,1-.536-1.591h2.769a1.145,1.145,0,0,0,.439.962,1.808,1.808,0,0,0,1.081.3,1.422,1.422,0,0,0,.91-.246A.787.787,0,0,0,119.251,16.328ZM31.69,41.609H27.463L26.725,44h-3.3l4.693-12.8h2.9L35.751,44H32.438ZM28.2,39.228h2.751l-1.38-4.438Zm17.473-5.643H41.833V44H38.748V33.585H34.978V31.2h10.7Zm-.062,13.86-1.494-.7.3-.6a4.874,4.874,0,0,0,.642-2.18v-2.2h2.373l-.009,1.907a4.767,4.767,0,0,1-.519,2.057A5.226,5.226,0,0,1,45.612,47.445Zm19.266-9.58a7.546,7.546,0,0,1-.694,3.313A5.132,5.132,0,0,1,62.21,43.4a5.494,5.494,0,0,1-2.914.778,5.572,5.572,0,0,1-2.9-.751,5.123,5.123,0,0,1-1.973-2.149,7.329,7.329,0,0,1-.743-3.208v-.721a7.58,7.58,0,0,1,.69-3.318,5.119,5.119,0,0,1,1.978-2.219A5.854,5.854,0,0,1,62.18,31.8,5.211,5.211,0,0,1,64.162,34a7.362,7.362,0,0,1,.716,3.274Zm-3.138-.536a5.381,5.381,0,0,0-.637-2.9,2.044,2.044,0,0,0-1.824-.989q-2.32,0-2.452,3.48l-.009.94a5.535,5.535,0,0,0,.624,2.892A2.041,2.041,0,0,0,59.3,41.768a2.016,2.016,0,0,0,1.8-.993,5.383,5.383,0,0,0,.642-2.856ZM77.156,44H74.089l-4.535-7.963V44H66.469V31.2h3.085l4.526,7.963V31.2h3.076Zm2.856,3.445-1.494-.7.3-.6a4.874,4.874,0,0,0,.642-2.18v-2.2h2.373l-.009,1.907a4.767,4.767,0,0,1-.519,2.057A5.226,5.226,0,0,1,80.013,47.445ZM91.729,44H88.652V31.2h3.076Zm12.832,0h-3.067l-4.535-7.963V44H93.873V31.2h3.085l4.526,7.963V31.2h3.076Z" transform="translate(473.544 1524)" fill="#fff"/>
    <g id="Grupo_158511" data-name="Grupo 158511">
      <path id="Trazado_131806" data-name="Trazado 131806" d="M1861-10438.5h-48.368v112.045H1861" transform="translate(-873.456 11700)" fill="none" stroke="#3c3fa7" stroke-width="2"/>
      <line id="Línea_269" data-name="Línea 269" x2="105" transform="translate(834.044 1317.5)" fill="none" stroke="#3c3fa7" stroke-width="2"/>
    </g>
    <g id="Grupo_158514" data-name="Grupo 158514" transform="translate(-201.5 56.022)">
      <path id="Trazado_131806-2" data-name="Trazado 131806" d="M1861-10438.5h-48.368v465.184H1861" transform="translate(-873.456 11700.001)" fill="none" stroke="#3c3fa7" stroke-width="2"/>
    </g>
    <g id="Grupo_158512" data-name="Grupo 158512" transform="translate(0 231.478)">
      <path id="Trazado_131806-3" data-name="Trazado 131806" d="M1861-10438.5h-48.368v112.045H1861" transform="translate(-873.456 11700)" fill="none" stroke="#3c3fa7" stroke-width="2"/>
      <line id="Línea_269-2" data-name="Línea 269" x2="312" transform="translate(627.044 1317.5)" fill="none" stroke="#3c3fa7" stroke-width="2"/>
    </g>
    <g id="Grupo_158513" data-name="Grupo 158513" transform="translate(0 466.455)">
      <path id="Trazado_131806-4" data-name="Trazado 131806" d="M1861-10438.5h-48.368v112.045H1861" transform="translate(-873.456 11700)" fill="none" stroke="#3c3fa7" stroke-width="2"/>
      <line id="Línea_269-3" data-name="Línea 269" x2="105" transform="translate(834.044 1317.5)" fill="none" stroke="#3c3fa7" stroke-width="2"/>
    </g>
    <rect id="Rectángulo_37936" data-name="Rectángulo 37936" width="190" height="85" rx="10" transform="translate(967.544 1797)" fill="#acade1"/>
    <rect id="Rectángulo_37937" data-name="Rectángulo 37937" width="190" height="85" rx="10" transform="translate(967.544 1690)" fill="#acade1"/>
    <path id="Trazado_137805" data-name="Trazado 137805" d="M21.8,14.965H16.405v3.4h6.367V21H12.978V6.781h9.814V9.428H16.405v3H21.8Zm8.037-8.184h3.418v9.756a4.665,4.665,0,0,1-.63,2.422,4.3,4.3,0,0,1-1.758,1.65,5.372,5.372,0,0,1-2.515.586,5.179,5.179,0,0,1-3.613-1.172,4.259,4.259,0,0,1-1.289-3.32h3.438a2.348,2.348,0,0,0,.337,1.416,1.334,1.334,0,0,0,1.128.439,1.276,1.276,0,0,0,1.1-.532,2.5,2.5,0,0,0,.386-1.489Zm14.395,8.184H38.837v3.4H45.2V21H35.409V6.781h9.814V9.428H38.837v3h5.391ZM51.1,6.781l3.174,9.893L57.44,6.781h4.512V21H58.515V17.68l.332-6.8L55.409,21H53.144L49.7,10.873l.332,6.807V21H46.6V6.781Zm16.455,9.395V21H64.13V6.781H69.8a6.608,6.608,0,0,1,2.886.6,4.526,4.526,0,0,1,1.943,1.709,4.667,4.667,0,0,1,.688,2.515,4.114,4.114,0,0,1-1.489,3.325,6.179,6.179,0,0,1-4.087,1.245Zm0-2.646H69.8a2.118,2.118,0,0,0,1.519-.5,1.85,1.85,0,0,0,.522-1.406,2.287,2.287,0,0,0-.537-1.592,1.9,1.9,0,0,0-1.465-.605H67.558Zm13.018,4.834h5.967V21H77.147V6.781h3.428ZM99.4,14.184a8.385,8.385,0,0,1-.771,3.682,5.7,5.7,0,0,1-2.192,2.466A6.1,6.1,0,0,1,93.2,21.2a6.191,6.191,0,0,1-3.223-.835,5.692,5.692,0,0,1-2.192-2.388,8.144,8.144,0,0,1-.825-3.564v-.8a8.422,8.422,0,0,1,.767-3.687,5.688,5.688,0,0,1,2.2-2.466,6.5,6.5,0,0,1,6.479-.01,5.79,5.79,0,0,1,2.2,2.446,8.18,8.18,0,0,1,.8,3.638Zm-3.486-.6a5.979,5.979,0,0,0-.708-3.218,2.271,2.271,0,0,0-2.026-1.1q-2.578,0-2.725,3.867l-.01,1.045a6.149,6.149,0,0,0,.693,3.213A2.268,2.268,0,0,0,93.2,18.52a2.24,2.24,0,0,0,2-1.1,5.982,5.982,0,0,0,.713-3.174Z" transform="translate(987.544 1828)" fill="#12263f"/>
    <path id="Trazado_137806" data-name="Trazado 137806" d="M48.417,6.781v9.307a5.349,5.349,0,0,1-.674,2.739A4.365,4.365,0,0,1,45.81,20.59a6.812,6.812,0,0,1-2.979.605,5.885,5.885,0,0,1-4.092-1.348,4.806,4.806,0,0,1-1.523-3.691V6.781h3.447v9.443q.059,2.334,2.168,2.334a2.1,2.1,0,0,0,1.611-.586,2.739,2.739,0,0,0,.547-1.9V6.781ZM57.89,17.221a1.408,1.408,0,0,0-.532-1.172,6.615,6.615,0,0,0-1.87-.869,17.942,17.942,0,0,1-2.187-.869q-2.764-1.357-2.764-3.73A3.345,3.345,0,0,1,51.225,8.5a4.453,4.453,0,0,1,1.948-1.406A7.582,7.582,0,0,1,56,6.586a6.632,6.632,0,0,1,2.749.547,4.352,4.352,0,0,1,1.89,1.558A4.068,4.068,0,0,1,61.317,11H57.9a1.719,1.719,0,0,0-.532-1.348,2.075,2.075,0,0,0-1.44-.479,2.339,2.339,0,0,0-1.45.405A1.193,1.193,0,0,0,54.53,11.6a7.389,7.389,0,0,0,2.061.918,12.623,12.623,0,0,1,2.422,1.021,4.07,4.07,0,0,1,2.3,3.662,3.472,3.472,0,0,1-1.406,2.93A6.255,6.255,0,0,1,56.054,21.2a7.653,7.653,0,0,1-3.13-.62,4.719,4.719,0,0,1-2.109-1.7,4.428,4.428,0,0,1-.708-2.485h3.438a2.181,2.181,0,0,0,.591,1.685,2.793,2.793,0,0,0,1.919.542,2.206,2.206,0,0,0,1.343-.366A1.209,1.209,0,0,0,57.89,17.221Zm17.227-3.037a8.385,8.385,0,0,1-.771,3.682,5.7,5.7,0,0,1-2.192,2.466,6.1,6.1,0,0,1-3.237.864,6.191,6.191,0,0,1-3.223-.835A5.692,5.692,0,0,1,63.5,17.973a8.144,8.144,0,0,1-.825-3.564v-.8a8.422,8.422,0,0,1,.767-3.687,5.688,5.688,0,0,1,2.2-2.466,6.5,6.5,0,0,1,6.479-.01,5.79,5.79,0,0,1,2.2,2.446,8.18,8.18,0,0,1,.8,3.638Zm-3.486-.6a5.979,5.979,0,0,0-.708-3.218,2.271,2.271,0,0,0-2.026-1.1q-2.578,0-2.725,3.867l-.01,1.045a6.149,6.149,0,0,0,.693,3.213,2.268,2.268,0,0,0,2.061,1.123,2.24,2.24,0,0,0,2-1.1,5.982,5.982,0,0,0,.713-3.174Z" transform="translate(987.544 1721)" fill="#12263f"/>
    <rect id="Rectángulo_37931" data-name="Rectángulo 37931" width="85" height="85" rx="10" transform="translate(757.544 1740)" fill="#8284d2"/>
    <path id="Trazado_137804" data-name="Trazado 137804" d="M11.688,21H8.27V6.781h3.418Zm14.258,0H22.537L17.5,12.152V21H14.07V6.781H17.5l5.029,8.848V6.781h3.418Z" transform="translate(783.544 1771)" fill="#12263f"/>
    <rect id="Rectángulo_37940" data-name="Rectángulo 37940" width="190" height="85" rx="10" transform="translate(967.544 1570)" fill="#c4d1ff"/>
    <rect id="Rectángulo_37939" data-name="Rectángulo 37939" width="190" height="85" rx="10" transform="translate(967.544 1463)" fill="#c4d1ff"/>
    <path id="Trazado_137807" data-name="Trazado 137807" d="M21.8,14.965H16.405v3.4h6.367V21H12.978V6.781h9.814V9.428H16.405v3H21.8Zm8.037-8.184h3.418v9.756a4.665,4.665,0,0,1-.63,2.422,4.3,4.3,0,0,1-1.758,1.65,5.372,5.372,0,0,1-2.515.586,5.179,5.179,0,0,1-3.613-1.172,4.259,4.259,0,0,1-1.289-3.32h3.438a2.348,2.348,0,0,0,.337,1.416,1.334,1.334,0,0,0,1.128.439,1.276,1.276,0,0,0,1.1-.532,2.5,2.5,0,0,0,.386-1.489Zm14.395,8.184H38.837v3.4H45.2V21H35.409V6.781h9.814V9.428H38.837v3h5.391ZM51.1,6.781l3.174,9.893L57.44,6.781h4.512V21H58.515V17.68l.332-6.8L55.409,21H53.144L49.7,10.873l.332,6.807V21H46.6V6.781Zm16.455,9.395V21H64.13V6.781H69.8a6.608,6.608,0,0,1,2.886.6,4.526,4.526,0,0,1,1.943,1.709,4.667,4.667,0,0,1,.688,2.515,4.114,4.114,0,0,1-1.489,3.325,6.179,6.179,0,0,1-4.087,1.245Zm0-2.646H69.8a2.118,2.118,0,0,0,1.519-.5,1.85,1.85,0,0,0,.522-1.406,2.287,2.287,0,0,0-.537-1.592,1.9,1.9,0,0,0-1.465-.605H67.558Zm13.018,4.834h5.967V21H77.147V6.781h3.428ZM99.4,14.184a8.385,8.385,0,0,1-.771,3.682,5.7,5.7,0,0,1-2.192,2.466A6.1,6.1,0,0,1,93.2,21.2a6.191,6.191,0,0,1-3.223-.835,5.692,5.692,0,0,1-2.192-2.388,8.144,8.144,0,0,1-.825-3.564v-.8a8.422,8.422,0,0,1,.767-3.687,5.688,5.688,0,0,1,2.2-2.466,6.5,6.5,0,0,1,6.479-.01,5.79,5.79,0,0,1,2.2,2.446,8.18,8.18,0,0,1,.8,3.638Zm-3.486-.6a5.979,5.979,0,0,0-.708-3.218,2.271,2.271,0,0,0-2.026-1.1q-2.578,0-2.725,3.867l-.01,1.045a6.149,6.149,0,0,0,.693,3.213A2.268,2.268,0,0,0,93.2,18.52a2.24,2.24,0,0,0,2-1.1,5.982,5.982,0,0,0,.713-3.174Z" transform="translate(987.544 1601)" fill="#12263f"/>
    <path id="Trazado_137808" data-name="Trazado 137808" d="M48.417,6.781v9.307a5.349,5.349,0,0,1-.674,2.739A4.365,4.365,0,0,1,45.81,20.59a6.812,6.812,0,0,1-2.979.605,5.885,5.885,0,0,1-4.092-1.348,4.806,4.806,0,0,1-1.523-3.691V6.781h3.447v9.443q.059,2.334,2.168,2.334a2.1,2.1,0,0,0,1.611-.586,2.739,2.739,0,0,0,.547-1.9V6.781ZM57.89,17.221a1.408,1.408,0,0,0-.532-1.172,6.615,6.615,0,0,0-1.87-.869,17.942,17.942,0,0,1-2.187-.869q-2.764-1.357-2.764-3.73A3.345,3.345,0,0,1,51.225,8.5a4.453,4.453,0,0,1,1.948-1.406A7.582,7.582,0,0,1,56,6.586a6.632,6.632,0,0,1,2.749.547,4.352,4.352,0,0,1,1.89,1.558A4.068,4.068,0,0,1,61.317,11H57.9a1.719,1.719,0,0,0-.532-1.348,2.075,2.075,0,0,0-1.44-.479,2.339,2.339,0,0,0-1.45.405A1.193,1.193,0,0,0,54.53,11.6a7.389,7.389,0,0,0,2.061.918,12.623,12.623,0,0,1,2.422,1.021,4.07,4.07,0,0,1,2.3,3.662,3.472,3.472,0,0,1-1.406,2.93A6.255,6.255,0,0,1,56.054,21.2a7.653,7.653,0,0,1-3.13-.62,4.719,4.719,0,0,1-2.109-1.7,4.428,4.428,0,0,1-.708-2.485h3.438a2.181,2.181,0,0,0,.591,1.685,2.793,2.793,0,0,0,1.919.542,2.206,2.206,0,0,0,1.343-.366A1.209,1.209,0,0,0,57.89,17.221Zm17.227-3.037a8.385,8.385,0,0,1-.771,3.682,5.7,5.7,0,0,1-2.192,2.466,6.1,6.1,0,0,1-3.237.864,6.191,6.191,0,0,1-3.223-.835A5.692,5.692,0,0,1,63.5,17.973a8.144,8.144,0,0,1-.825-3.564v-.8a8.422,8.422,0,0,1,.767-3.687,5.688,5.688,0,0,1,2.2-2.466,6.5,6.5,0,0,1,6.479-.01,5.79,5.79,0,0,1,2.2,2.446,8.18,8.18,0,0,1,.8,3.638Zm-3.486-.6a5.979,5.979,0,0,0-.708-3.218,2.271,2.271,0,0,0-2.026-1.1q-2.578,0-2.725,3.867l-.01,1.045a6.149,6.149,0,0,0,.693,3.213,2.268,2.268,0,0,0,2.061,1.123,2.24,2.24,0,0,0,2-1.1,5.982,5.982,0,0,0,.713-3.174Z" transform="translate(987.544 1494)" fill="#12263f"/>
    <rect id="Rectángulo_37930" data-name="Rectángulo 37930" width="85" height="85" rx="10" transform="translate(757.544 1506.978)" fill="#a6bbff"/>
    <path id="Trazado_137803" data-name="Trazado 137803" d="M16.189,14.184a8.385,8.385,0,0,1-.771,3.682,5.7,5.7,0,0,1-2.192,2.466,6.1,6.1,0,0,1-3.237.864,6.191,6.191,0,0,1-3.223-.835,5.692,5.692,0,0,1-2.192-2.388,8.144,8.144,0,0,1-.825-3.564v-.8a8.422,8.422,0,0,1,.767-3.687,5.688,5.688,0,0,1,2.2-2.466,6.147,6.147,0,0,1,3.257-.869,6.087,6.087,0,0,1,3.223.859,5.79,5.79,0,0,1,2.2,2.446,8.18,8.18,0,0,1,.8,3.638Zm-3.486-.6A5.979,5.979,0,0,0,12,10.37a2.271,2.271,0,0,0-2.026-1.1q-2.578,0-2.725,3.867l-.01,1.045A6.149,6.149,0,0,0,7.928,17.4,2.268,2.268,0,0,0,9.988,18.52a2.24,2.24,0,0,0,2-1.1,5.982,5.982,0,0,0,.713-3.174ZM29.832,21H26.424l-5.039-8.848V21H17.957V6.781h3.428l5.029,8.848V6.781h3.418Z" transform="translate(783.544 1536.978)" fill="#12263f"/>
    <rect id="Rectángulo_37929" data-name="Rectángulo 37929" width="85" height="85" rx="10" transform="translate(757.544 1268)" fill="#fc5f65"/>
    <path id="Trazado_137802" data-name="Trazado 137802" d="M13.621,18.344h-4.7L8.1,21H4.441L9.656,6.781h3.223L18.133,21H14.451ZM9.744,15.7H12.8l-1.533-4.932Zm19.414-6.27H24.891V21H21.463V9.428H17.273V6.781H29.158Z" transform="translate(783.544 1299)" fill="#fff"/>
    <rect id="Rectángulo_37942" data-name="Rectángulo 37942" width="190" height="85" rx="10" transform="translate(967.544 1326)" fill="#ff9fa3"/>
    <rect id="Rectángulo_37941" data-name="Rectángulo 37941" width="190" height="85" rx="10" transform="translate(967.544 1219)" fill="#ff9fa3"/>
    <path id="Trazado_137809" data-name="Trazado 137809" d="M21.8,14.965H16.405v3.4h6.367V21H12.978V6.781h9.814V9.428H16.405v3H21.8Zm8.037-8.184h3.418v9.756a4.665,4.665,0,0,1-.63,2.422,4.3,4.3,0,0,1-1.758,1.65,5.372,5.372,0,0,1-2.515.586,5.179,5.179,0,0,1-3.613-1.172,4.259,4.259,0,0,1-1.289-3.32h3.438a2.348,2.348,0,0,0,.337,1.416,1.334,1.334,0,0,0,1.128.439,1.276,1.276,0,0,0,1.1-.532,2.5,2.5,0,0,0,.386-1.489Zm14.395,8.184H38.837v3.4H45.2V21H35.409V6.781h9.814V9.428H38.837v3h5.391ZM51.1,6.781l3.174,9.893L57.44,6.781h4.512V21H58.515V17.68l.332-6.8L55.409,21H53.144L49.7,10.873l.332,6.807V21H46.6V6.781Zm16.455,9.395V21H64.13V6.781H69.8a6.608,6.608,0,0,1,2.886.6,4.526,4.526,0,0,1,1.943,1.709,4.667,4.667,0,0,1,.688,2.515,4.114,4.114,0,0,1-1.489,3.325,6.179,6.179,0,0,1-4.087,1.245Zm0-2.646H69.8a2.118,2.118,0,0,0,1.519-.5,1.85,1.85,0,0,0,.522-1.406,2.287,2.287,0,0,0-.537-1.592,1.9,1.9,0,0,0-1.465-.605H67.558Zm13.018,4.834h5.967V21H77.147V6.781h3.428ZM99.4,14.184a8.385,8.385,0,0,1-.771,3.682,5.7,5.7,0,0,1-2.192,2.466A6.1,6.1,0,0,1,93.2,21.2a6.191,6.191,0,0,1-3.223-.835,5.692,5.692,0,0,1-2.192-2.388,8.144,8.144,0,0,1-.825-3.564v-.8a8.422,8.422,0,0,1,.767-3.687,5.688,5.688,0,0,1,2.2-2.466,6.5,6.5,0,0,1,6.479-.01,5.79,5.79,0,0,1,2.2,2.446,8.18,8.18,0,0,1,.8,3.638Zm-3.486-.6a5.979,5.979,0,0,0-.708-3.218,2.271,2.271,0,0,0-2.026-1.1q-2.578,0-2.725,3.867l-.01,1.045a6.149,6.149,0,0,0,.693,3.213A2.268,2.268,0,0,0,93.2,18.52a2.24,2.24,0,0,0,2-1.1,5.982,5.982,0,0,0,.713-3.174Z" transform="translate(987.544 1357)" fill="#12263f"/>
    <path id="Trazado_137810" data-name="Trazado 137810" d="M48.417,6.781v9.307a5.349,5.349,0,0,1-.674,2.739A4.365,4.365,0,0,1,45.81,20.59a6.812,6.812,0,0,1-2.979.605,5.885,5.885,0,0,1-4.092-1.348,4.806,4.806,0,0,1-1.523-3.691V6.781h3.447v9.443q.059,2.334,2.168,2.334a2.1,2.1,0,0,0,1.611-.586,2.739,2.739,0,0,0,.547-1.9V6.781ZM57.89,17.221a1.408,1.408,0,0,0-.532-1.172,6.615,6.615,0,0,0-1.87-.869,17.942,17.942,0,0,1-2.187-.869q-2.764-1.357-2.764-3.73A3.345,3.345,0,0,1,51.225,8.5a4.453,4.453,0,0,1,1.948-1.406A7.582,7.582,0,0,1,56,6.586a6.632,6.632,0,0,1,2.749.547,4.352,4.352,0,0,1,1.89,1.558A4.068,4.068,0,0,1,61.317,11H57.9a1.719,1.719,0,0,0-.532-1.348,2.075,2.075,0,0,0-1.44-.479,2.339,2.339,0,0,0-1.45.405A1.193,1.193,0,0,0,54.53,11.6a7.389,7.389,0,0,0,2.061.918,12.623,12.623,0,0,1,2.422,1.021,4.07,4.07,0,0,1,2.3,3.662,3.472,3.472,0,0,1-1.406,2.93A6.255,6.255,0,0,1,56.054,21.2a7.653,7.653,0,0,1-3.13-.62,4.719,4.719,0,0,1-2.109-1.7,4.428,4.428,0,0,1-.708-2.485h3.438a2.181,2.181,0,0,0,.591,1.685,2.793,2.793,0,0,0,1.919.542,2.206,2.206,0,0,0,1.343-.366A1.209,1.209,0,0,0,57.89,17.221Zm17.227-3.037a8.385,8.385,0,0,1-.771,3.682,5.7,5.7,0,0,1-2.192,2.466,6.1,6.1,0,0,1-3.237.864,6.191,6.191,0,0,1-3.223-.835A5.692,5.692,0,0,1,63.5,17.973a8.144,8.144,0,0,1-.825-3.564v-.8a8.422,8.422,0,0,1,.767-3.687,5.688,5.688,0,0,1,2.2-2.466,6.5,6.5,0,0,1,6.479-.01,5.79,5.79,0,0,1,2.2,2.446,8.18,8.18,0,0,1,.8,3.638Zm-3.486-.6a5.979,5.979,0,0,0-.708-3.218,2.271,2.271,0,0,0-2.026-1.1q-2.578,0-2.725,3.867l-.01,1.045a6.149,6.149,0,0,0,.693,3.213,2.268,2.268,0,0,0,2.061,1.123,2.24,2.24,0,0,0,2-1.1,5.982,5.982,0,0,0,.713-3.174Z" transform="translate(987.544 1250)" fill="#12263f"/>
  </g>
</svg>
