<svg xmlns="http://www.w3.org/2000/svg" width="212.865" height="435.001" viewBox="0 0 212.865 435.001">
  <g id="Grupo_158519" data-name="Grupo 158519" transform="translate(-31.362 -25)">
    <g id="Grupo_157493" data-name="Grupo 157493" transform="translate(31.362 25)">
      <path id="Trazado_114544" data-name="Trazado 114544" d="M151.166,442.293C123.03,429.529,93.851,412.307,82.519,383.5c-12.576-31.965.588-67.763.271-102.123-.251-27.22-9.048-53.507-15.97-79.828S54.815,147.265,61.957,121C66.738,103.422,76.892,87.515,90,74.893c23.085-22.227,56.345-34.254,87.947-29.171s60.311,28.245,69.55,58.97c13.089,43.531-12.479,90-7.045,135.136,2.126,17.662,8.931,34.364,13.546,51.543a211.691,211.691,0,0,1,7.231,56.078c-.172,28.974-7.5,59.888-29.055,79.183C210.431,446.1,178.07,454.5,151.166,442.293Z" transform="translate(-53.181 -44.565)" fill="#e1e8ff"/>
      <g id="Grupo_157492" data-name="Grupo 157492" transform="translate(0 13.838)">
        <g id="Grupo_83725" data-name="Grupo 83725" transform="translate(156.348 186.997)">
          <path id="Trazado_117626" data-name="Trazado 117626" d="M385.829,257.365s53.683,8.833,55.87-36.571c2.1-43.566-18.37-57.582-18.37-57.582l-38,58.723Z" transform="translate(-385.334 -163.213)" fill="#46467f"/>
        </g>
        <g id="Grupo_83727" data-name="Grupo 83727" transform="translate(163.023 109.371)">
          <path id="Trazado_117628" data-name="Trazado 117628" d="M388.352,259.257s35.836,5.94,47.416-35.963-45.656-95.183-45.656-95.183Z" transform="translate(-388.352 -128.111)" fill="#ffbf69"/>
        </g>
        <g id="Grupo_83728" data-name="Grupo 83728" transform="translate(30.324 235.467)">
          <path id="Trazado_117629" data-name="Trazado 117629" d="M462.169,200.8s7.468,46.551,7.468,81.26,3.686,72.8,0,76.188-40.271,14.753-84.5,12.213-57.5-13.932-56.761-17.97,5.9-7.444,5.9-7.444-2.95-100.337,8.846-127.194,62.073-32.72,62.073-32.72h54.074Z" transform="translate(-328.347 -185.131)" fill="#7772d3"/>
        </g>
        <g id="Grupo_83729" data-name="Grupo 83729" transform="translate(123.431 306.576)">
          <path id="Trazado_117630" data-name="Trazado 117630" d="M371.278,266.124a.838.838,0,0,1-.827-.873l2.641-47.177a.822.822,0,0,1,.874-.783.831.831,0,0,1,.783.874L372.1,265.341A.827.827,0,0,1,371.278,266.124Z" transform="translate(-370.449 -217.286)" fill="#fff"/>
        </g>
        <g id="Grupo_83730" data-name="Grupo 83730" transform="translate(81.568 92.204)">
          <path id="Trazado_117631" data-name="Trazado 117631" d="M358.215,273.783s42.093,9.385,63.175-.885,9.2-69.3,9.2-69.3-11.451-80.857-27.88-82.582a137.17,137.17,0,0,0-30.927.456l-20.264,68.712Z" transform="translate(-351.519 -120.348)" fill="#f7734f"/>
        </g>
        <g id="Grupo_83731" data-name="Grupo 83731" transform="translate(50.348 90.66)">
          <path id="Trazado_117632" data-name="Trazado 117632" d="M412.97,119.651s2.753.8,6.842,2.2l-28.262,1.767s-3.8,39.532-5.184,84.869c-.966,32.126.013,61.107.7,75.251l-39.89-.969s-19.027-130.265-3.985-144.233S395.524,119.9,395.524,119.9Z" transform="translate(-337.402 -119.651)" fill="#ffbf69"/>
        </g>
        <g id="Grupo_83732" data-name="Grupo 83732" transform="translate(132.803 92.889)">
          <path id="Trazado_117633" data-name="Trazado 117633" d="M411.143,284.21l-22.411-.548c1.263-17.225,3.454-58.261-.48-99.188-5.018-52.057-13.068-63.159-13.565-63.816,10.779,3.675,30.772,11.535,34.45,20.02C414.212,152.419,411.143,284.21,411.143,284.21Z" transform="translate(-374.687 -120.658)" fill="#ffbf69"/>
        </g>
        <g id="Grupo_83733" data-name="Grupo 83733" transform="translate(95.7 218.85)">
          <path id="Trazado_117634" data-name="Trazado 117634" d="M416.583,177.617l37.467,38.942-49.111,65.525L357.909,246.89Z" transform="translate(-357.909 -177.617)" fill="#a8a4ff"/>
        </g>
        <g id="Grupo_83734" data-name="Grupo 83734" transform="translate(101.89 225.402)">
          <path id="Trazado_117635" data-name="Trazado 117635" d="M419.382,180.58l37.467,38.941-49.111,65.525-47.029-35.194Z" transform="translate(-360.709 -180.58)" fill="#fff"/>
        </g>
        <g id="Grupo_83735" data-name="Grupo 83735" transform="translate(65.865)">
          <path id="Trazado_117636" data-name="Trazado 117636" d="M393.547,104.7s-20-40.985-42.907-20.124c-19.167,17.453,10.493,44.28,27.672,36.6S393.547,104.7,393.547,104.7Z" transform="translate(-344.418 -78.655)"/>
        </g>
        <g id="Grupo_83739" data-name="Grupo 83739" transform="translate(83.173 235.6)">
          <g id="Grupo_83738" data-name="Grupo 83738">
            <path id="Trazado_117638" data-name="Trazado 117638" d="M365.589,185.191s39.833,6.586,47.7,13.835-11.219,35.056-16.126,39.565S357.3,220.214,357.3,220.214l-5.055-19.98Z" transform="translate(-352.245 -185.191)" fill="#fca397"/>
          </g>
        </g>
        <g id="Grupo_83741" data-name="Grupo 83741" transform="translate(135.308 249.434)">
          <g id="Grupo_83740" data-name="Grupo 83740">
            <path id="Trazado_117639" data-name="Trazado 117639" d="M384.73,191.447s16.646,23.793,13.9,33.612-22.807-20.535-22.807-20.535Z" transform="translate(-375.82 -191.447)" fill="#fca397"/>
          </g>
        </g>
        <g id="Grupo_83743" data-name="Grupo 83743" transform="translate(97.808 273.566)">
          <g id="Grupo_83742" data-name="Grupo 83742">
            <path id="Trazado_117640" data-name="Trazado 117640" d="M375.949,211.192s-20.624-2.91-16.555,4.564,26.108,6.177,29.753,2.037-7.859-15.434-7.859-15.434Z" transform="translate(-358.863 -202.359)" fill="#fca397"/>
          </g>
        </g>
        <g id="Grupo_83744" data-name="Grupo 83744" transform="translate(105.472 277.247)">
          <path id="Trazado_117641" data-name="Trazado 117641" d="M369.084,211.43a.877.877,0,0,1-.3-.053l-5.927-2.256a.831.831,0,0,1-.2-1.442l4.724-3.5a.839.839,0,0,1,1.161.175.828.828,0,0,1-.177,1.159l-3.5,2.594,4.511,1.714a.83.83,0,0,1-.3,1.606Z" transform="translate(-362.328 -204.024)"/>
        </g>
        <g id="Grupo_83745" data-name="Grupo 83745" transform="translate(135.443 257.48)">
          <path id="Trazado_117642" data-name="Trazado 117642" d="M382.264,207.767a.83.83,0,0,1-.774-.529c-1.373-3.554-4.029-9.6-5.316-10.69a.83.83,0,1,1,1.075-1.265c2.03,1.727,5.409,10.376,5.787,11.356a.827.827,0,0,1-.475,1.073A.782.782,0,0,1,382.264,207.767Z" transform="translate(-375.881 -195.086)"/>
        </g>
        <g id="Grupo_83746" data-name="Grupo 83746" transform="translate(127.539 264.423)">
          <path id="Trazado_117643" data-name="Trazado 117643" d="M380.293,214.017a.828.828,0,0,1-.741-.456L372.4,199.428a.83.83,0,0,1,1.482-.75l7.156,14.136a.829.829,0,0,1-.741,1.2Z" transform="translate(-372.307 -198.225)"/>
        </g>
        <g id="Grupo_83747" data-name="Grupo 83747" transform="translate(88.676 14.779)">
          <path id="Trazado_117644" data-name="Trazado 117644" d="M409.042,130.068a27.108,27.108,0,0,0,5.162-21.7c-1.623-8.89-5.628-11.718-5.628-11.718s5.869-12.245-12.1-11.256-28.421,9.963-28.421,9.963-8.273-3.921-11.825,5.712.332,23.718.332,23.718Z" transform="translate(-354.733 -85.337)"/>
        </g>
        <g id="Grupo_83751" data-name="Grupo 83751" transform="translate(103.724 74.874)">
          <g id="Grupo_83750" data-name="Grupo 83750">
            <g id="Grupo_83749" data-name="Grupo 83749">
              <g id="Grupo_83748" data-name="Grupo 83748">
                <path id="Trazado_117645" data-name="Trazado 117645" d="M361.538,112.512l.858,21.938s4.2,6.152,17.077,6.694c9.591.4,12.426-4.626,12.426-4.626l-3.065-19.107-23.373-4.191Z" transform="translate(-361.538 -112.512)" fill="#fca397"/>
              </g>
            </g>
          </g>
        </g>
        <g id="Grupo_83755" data-name="Grupo 83755" transform="translate(103.707 73.533)">
          <g id="Grupo_83754" data-name="Grupo 83754">
            <g id="Grupo_83753" data-name="Grupo 83753">
              <g id="Grupo_83752" data-name="Grupo 83752">
                <path id="Trazado_117646" data-name="Trazado 117646" d="M361.53,111.906a7.2,7.2,0,0,0,.721,2.092c5.336,10.768,22.789,14.653,28.331,14.932l-1.738-10.785Z" transform="translate(-361.53 -111.906)"/>
              </g>
            </g>
          </g>
        </g>
        <g id="Grupo_83759" data-name="Grupo 83759" transform="translate(87.669 21.925)">
          <g id="Grupo_83758" data-name="Grupo 83758">
            <g id="Grupo_83757" data-name="Grupo 83757">
              <g id="Grupo_83756" data-name="Grupo 83756">
                <path id="Trazado_117647" data-name="Trazado 117647" d="M400.566,96.22s12.59,27.057,8.647,42.515-17.99,13.373-26.431,10.6-12.451-7.815-12.451-7.815a11.809,11.809,0,0,1-13.16-4.312c-5.4-7.15-2.378-15.577,2.043-17.6s9.806,1.081,9.806,1.081l-4.35-7.846S381.229,72.06,400.566,96.22Z" transform="translate(-354.278 -88.57)" fill="#fca397"/>
              </g>
            </g>
          </g>
        </g>
        <g id="Grupo_83763" data-name="Grupo 83763" transform="translate(95.463 17.84)">
          <g id="Grupo_83762" data-name="Grupo 83762">
            <g id="Grupo_83761" data-name="Grupo 83761">
              <g id="Grupo_83760" data-name="Grupo 83760">
                <path id="Trazado_117648" data-name="Trazado 117648" d="M364.751,122.933s11.791,2.207,19.775-10.991,7.16-18.561,7.16-18.561l8.326,13.395s1.69-9.392-2.141-15.31-7.7-4.626-7.7-4.626l-25.834,6.84L357.8,114.554Z" transform="translate(-357.802 -86.721)"/>
              </g>
            </g>
          </g>
        </g>
        <g id="Grupo_83764" data-name="Grupo 83764" transform="translate(130.114 51.398)">
          <path id="Trazado_117649" data-name="Trazado 117649" d="M376.857,114.8a.786.786,0,0,1-.232-.033.826.826,0,0,1-.564-1.026c1.475-5.066-2.393-10.469-2.43-10.524a.828.828,0,0,1,1.338-.977c.181.248,4.39,6.108,2.685,11.964A.829.829,0,0,1,376.857,114.8Z" transform="translate(-373.471 -101.897)"/>
        </g>
        <g id="Grupo_83765" data-name="Grupo 83765" transform="translate(93.063 57.447)">
          <path id="Trazado_117650" data-name="Trazado 117650" d="M365.105,114.036a.82.82,0,0,1-.595-.25l-7.559-7.745a.83.83,0,1,1,1.187-1.159l7.559,7.747a.828.828,0,0,1-.592,1.407Z" transform="translate(-356.717 -104.632)"/>
        </g>
        <g id="Grupo_83766" data-name="Grupo 83766" transform="translate(92.722 62.352)">
          <path id="Trazado_117651" data-name="Trazado 117651" d="M357.392,109.372a.828.828,0,0,1-.137-1.645l5.124-.865a.829.829,0,1,1,.276,1.634l-5.124.865A.758.758,0,0,1,357.392,109.372Z" transform="translate(-356.563 -106.849)"/>
        </g>
        <g id="Grupo_83767" data-name="Grupo 83767" transform="translate(132.755 39.4)">
          <path id="Trazado_117652" data-name="Trazado 117652" d="M380.361,98.906a.835.835,0,0,1-.128-.011l-4.87-.776a.829.829,0,0,1,.261-1.637l4.867.776a.829.829,0,0,1-.13,1.647Z" transform="translate(-374.665 -96.471)"/>
        </g>
        <g id="Grupo_83768" data-name="Grupo 83768" transform="translate(117.483 39.502)">
          <path id="Trazado_117653" data-name="Trazado 117653" d="M368.59,102.32a.829.829,0,0,1-.385-1.563l7.906-4.144a.83.83,0,0,1,.77,1.471l-7.906,4.142A.839.839,0,0,1,368.59,102.32Z" transform="translate(-367.76 -96.517)"/>
        </g>
        <g id="Grupo_83769" data-name="Grupo 83769" transform="translate(136.195 44.608)">
          <path id="Trazado_117654" data-name="Trazado 117654" d="M378.634,107.275a.827.827,0,0,1-.787-.575l-1.586-4.914a.829.829,0,0,1,.139-.772l1.491-1.875a.829.829,0,1,1,1.3,1.033l-1.212,1.528,1.446,4.491a.828.828,0,0,1-.533,1.044A.851.851,0,0,1,378.634,107.275Z" transform="translate(-376.221 -98.827)"/>
        </g>
        <g id="Grupo_83770" data-name="Grupo 83770" transform="translate(122.402 45.531)">
          <path id="Trazado_117655" data-name="Trazado 117655" d="M372.4,108.29a.825.825,0,0,1-.787-.575l-1.586-4.914a.827.827,0,0,1,.15-.785l2.059-2.472a.828.828,0,0,1,1.274,1.059l-1.767,2.123,1.446,4.48a.828.828,0,0,1-.535,1.044A.848.848,0,0,1,372.4,108.29Z" transform="translate(-369.984 -99.243)"/>
        </g>
        <g id="Grupo_83771" data-name="Grupo 83771" transform="translate(121.778 66.039)">
          <path id="Trazado_117656" data-name="Trazado 117656" d="M377.557,114.039c-3.372,0-7.119-3.618-7.612-4.107a.83.83,0,1,1,1.172-1.174c1.362,1.351,5.376,4.593,7.592,3.339a.828.828,0,1,1,.816,1.442A3.928,3.928,0,0,1,377.557,114.039Z" transform="translate(-369.702 -108.517)"/>
        </g>
        <g id="Grupo_83772" data-name="Grupo 83772" transform="translate(0 104.358)">
          <path id="Trazado_117657" data-name="Trazado 117657" d="M378.009,125.845s-63.878,40.567-63.371,103.135,85.179,81.291,85.179,81.291l26.04-64.453L382.35,220.942Z" transform="translate(-314.635 -125.845)" fill="#ffbf69"/>
        </g>
        <g id="Grupo_83773" data-name="Grupo 83773" transform="translate(139.21 95.197)">
          <path id="Trazado_117658" data-name="Trazado 117658" d="M377.584,121.7a176.292,176.292,0,0,1,19.1,45.6c7.008,26.7,11.853,47.221,11.853,47.221s7.1-55.315-2.91-75.114C400.727,129.711,377.584,121.7,377.584,121.7Z" transform="translate(-377.584 -121.703)" fill="#46467f"/>
        </g>
        <g id="Grupo_83774" data-name="Grupo 83774" transform="translate(35.42 372.232)">
          <path id="Trazado_117659" data-name="Trazado 117659" d="M331.48,250.29a.83.83,0,0,1-.192-1.637L338.2,247a.817.817,0,0,1,1,.615.827.827,0,0,1-.615,1l-6.913,1.652A.716.716,0,0,1,331.48,250.29Z" transform="translate(-330.651 -246.975)" fill="#fff"/>
        </g>
        <g id="Grupo_83777" data-name="Grupo 83777" transform="translate(60.547 192.141)">
          <path id="Trazado_117662" data-name="Trazado 117662" d="M380.547,191.618a.824.824,0,0,1-.5-.17c-.27-.206-27.206-20.666-37.478-24.3a.829.829,0,1,1,.553-1.564c10.516,3.72,36.816,23.7,37.931,24.545a.829.829,0,0,1-.5,1.488Z" transform="translate(-342.013 -165.539)" fill="#7772d3"/>
        </g>
        <g id="Grupo_83778" data-name="Grupo 83778" transform="translate(64.931 180.42)">
          <path id="Trazado_117663" data-name="Trazado 117663" d="M353.864,180.5a.843.843,0,0,1-.595-.25c-.416-.429-10.224-10.553-9.2-16.352a4.232,4.232,0,0,1,2.517-3.184,3.672,3.672,0,0,1,3.768.086c4.558,2.941,4.374,17.265,4.337,18.888a.835.835,0,0,1-.524.754A.822.822,0,0,1,353.864,180.5Zm-5.374-18.6a2.758,2.758,0,0,0-1.185.31,2.631,2.631,0,0,0-1.6,1.979c-.624,3.514,4.224,9.865,7.329,13.366-.091-5-.818-13.58-3.578-15.361A1.72,1.72,0,0,0,348.49,161.895Z" transform="translate(-343.996 -160.24)" fill="#7772d3"/>
        </g>
        <g id="Grupo_83779" data-name="Grupo 83779" transform="translate(154.856 124.159)">
          <path id="Trazado_117664" data-name="Trazado 117664" d="M399.688,136.54S384,156.957,384.681,165.057s6.544,4.007,6.544,4.007-3.536,9.074.155,10.975S397.828,176,397.828,176s-.029,7.831,4.4,8,22.444-21.009,22.785-27.265-7.5-4.631-7.5-4.631,1.926-9.766-1.639-11.831-8.8,3.074-8.8,3.074S407.6,130.163,399.688,136.54Z" transform="translate(-384.659 -134.798)" fill="#fca397"/>
        </g>
        <g id="Grupo_83780" data-name="Grupo 83780" transform="translate(171.943 149.388)">
          <path id="Trazado_117665" data-name="Trazado 117665" d="M392.973,163.9s-3.808,20.907,7.974,20.8c24.66-.221,14.452-38.49,14.452-38.49Z" transform="translate(-392.386 -146.207)" fill="#fca397"/>
        </g>
        <g id="Grupo_83781" data-name="Grupo 83781" transform="translate(169.281 187.195)">
          <path id="Trazado_117666" data-name="Trazado 117666" d="M398.051,206.455a.823.823,0,0,1-.639-.3c-7.079-8.589-6.217-40.684-6.177-42.046a.83.83,0,0,1,1.659.049c-.011.327-.887,32.833,5.8,40.943a.829.829,0,0,1-.113,1.168A.813.813,0,0,1,398.051,206.455Z" transform="translate(-391.182 -163.303)" fill="#7772d3"/>
        </g>
        <g id="Grupo_83782" data-name="Grupo 83782" transform="translate(160.592 134.077)">
          <path id="Trazado_117667" data-name="Trazado 117667" d="M388.083,164.46a.813.813,0,0,1-.411-.108.829.829,0,0,1-.31-1.13L400.768,139.7a.83.83,0,0,1,1.444.82L388.8,164.042A.826.826,0,0,1,388.083,164.46Z" transform="translate(-387.253 -139.283)"/>
        </g>
        <g id="Grupo_83783" data-name="Grupo 83783" transform="translate(169.431 143.32)">
          <path id="Trazado_117668" data-name="Trazado 117668" d="M392.079,166.355a.806.806,0,0,1-.431-.124.828.828,0,0,1-.277-1.139l12.984-21.232a.829.829,0,0,1,1.415.865l-12.984,21.232A.834.834,0,0,1,392.079,166.355Z" transform="translate(-391.25 -143.462)"/>
        </g>
        <g id="Grupo_83784" data-name="Grupo 83784" transform="translate(103.752 95.984)">
          <path id="Trazado_117669" data-name="Trazado 117669" d="M381.4,130.5c-.642,0-1.309-.031-2.017-.1-8.58-.789-17.112-6.59-17.471-6.836a.829.829,0,1,1,.938-1.367c.084.058,8.543,5.8,16.685,6.55,8.561.792,11.511-4.012,11.632-4.215a.83.83,0,0,1,1.437.829C392.474,125.593,389.558,130.5,381.4,130.5Z" transform="translate(-361.551 -122.057)" fill="#7772d3"/>
        </g>
      </g>
    </g>
  </g>
</svg>
