<svg xmlns="http://www.w3.org/2000/svg" xmlns:xlink="http://www.w3.org/1999/xlink" width="64.888" height="64.888" viewBox="0 0 64.888 64.888">
  <defs>
    <clipPath id="clip-path">
      <rect id="Rectángulo_38085" data-name="Rectángulo 38085" width="42.963" height="43.001" fill="none"/>
    </clipPath>
  </defs>
  <g id="Grupo_158515" data-name="Grupo 158515" transform="translate(0 -0.003)">
    <circle id="Elipse_4823" data-name="Elipse 4823" cx="32.444" cy="32.444" r="32.444" transform="translate(0 0.002)" fill="#ff9fa3"/>
    <g id="Grupo_158979" data-name="Grupo 158979" transform="translate(11 11.003)">
      <g id="Grupo_158979-2" data-name="Grupo 158979" transform="translate(0 0)" clip-path="url(#clip-path)">
        <path id="Trazado_136012" data-name="Trazado 136012" d="M6.78,36.279c-.472.276-.679.256-1.027-.122A21.012,21.012,0,0,1,.142,24.015,21.288,21.288,0,0,1,12.089,2.183a21.466,21.466,0,0,1,30.29,14.335,19.7,19.7,0,0,1,.507,3.225c0,.066-.011.143.078.172v3.274a21.431,21.431,0,0,1-.38,2.934,21.315,21.315,0,0,1-4.515,9.2A21.8,21.8,0,0,1,32.492,40.1a21.107,21.107,0,0,1-7.976,2.793c-.48.066-.969.026-1.449.11h-3.19a9.012,9.012,0,0,0-1.629-.245A21.56,21.56,0,0,1,7.824,38.109c-.347-.282-.376-.524-.148-.953A.594.594,0,0,1,8.6,37c.415.284.8.613,1.209.9a19.991,19.991,0,0,0,9.295,3.574A19.683,19.683,0,0,0,30.8,39.34a19.93,19.93,0,0,0,7.722-7.155,14.93,14.93,0,0,0,1.248-2.323,18.724,18.724,0,0,0,1.719-6.369,19.751,19.751,0,0,0-2.908-12.556A19.993,19.993,0,0,0,30.035,3.3a19.7,19.7,0,0,0-7.021-1.835A19.7,19.7,0,0,0,12.225,3.645a19.967,19.967,0,0,0-8.176,7.8,19.575,19.575,0,0,0-2.5,7.253,20.172,20.172,0,0,0,.618,8.467,22.038,22.038,0,0,0,1,2.67,18.572,18.572,0,0,0,2.511,4.14c.354.449.733.878,1.117,1.3.344.381.332.7-.01,1" transform="translate(0 0)"/>
        <path id="Trazado_136013" data-name="Trazado 136013" d="M43.137,61.672a15.962,15.962,0,0,1-2.177,3.709,19.725,19.725,0,0,1-12.271,7.726,19.914,19.914,0,0,1-16.462-3.954q-.167-.127-.331-.258a.641.641,0,0,0-.936.03l-.9-.878a.744.744,0,0,0-.153-1.041,19.8,19.8,0,0,1-3.418-5.026c-.047-.1-.079-.206-.118-.308.2-.029.257.138.33.265A20.871,20.871,0,0,0,17.24,71.07a20.684,20.684,0,0,0,5.447,1.308A20.726,20.726,0,0,0,37.2,68.32a21.23,21.23,0,0,0,5.567-6.308c.086-.146.125-.36.369-.339" transform="translate(-3.284 -31.768)" fill="#e5485d"/>
        <path id="Trazado_136014" data-name="Trazado 136014" d="M41.162,31.207a3.951,3.951,0,0,0-.634.971,19.894,19.894,0,0,1-3.805,4.586,20.3,20.3,0,0,1-8.468,4.614,23.353,23.353,0,0,1-3.934.673,20.176,20.176,0,0,1-6.172-.455A20.725,20.725,0,0,1,6.685,34.485,20.989,20.989,0,0,1,4.546,31.35a.7.7,0,0,0-.147-.143,18.288,18.288,0,0,1-1.665-5.679,19.389,19.389,0,0,1,.909-9.256A19.651,19.651,0,0,1,16.506,3.61,19.386,19.386,0,0,1,33.8,5.869a19.56,19.56,0,0,1,8.888,13.4,19.752,19.752,0,0,1-1.4,11.719c-.033.076-.079.147-.118.22" transform="translate(-1.308 -1.303)" fill="#fe5876"/>
        <path id="Trazado_136015" data-name="Trazado 136015" d="M38.656,14.161c.246.335.618.564.8.951a1.979,1.979,0,0,0,.558,1.42,16.392,16.392,0,0,1,3.112,8.073,16.588,16.588,0,0,1-1.409,8.739,1.406,1.406,0,0,1-.18.33c-.435.477-.732,1.052-1.117,1.566a17.348,17.348,0,0,1-11.4,6.941,18.57,18.57,0,0,1-2.081.2c-.163.009-.416.1-.457-.211a1.469,1.469,0,0,0,.4-1.188c-.016-.307,0-.615,0-.922a1.6,1.6,0,0,0-.042-.416c-.074-.273-.192-.507-.525-.5-.309.005-.425.225-.5.484a1.724,1.724,0,0,0-.048.457c0,.335.007.671,0,1.006a1.379,1.379,0,0,0,.389,1.069c.007.308-.241.229-.389.224a17.558,17.558,0,0,1-2.085-.194,17.494,17.494,0,0,1-11.871-7.544,6.5,6.5,0,0,0-.68-.955A13.039,13.039,0,0,1,9.9,30.316,15.748,15.748,0,0,1,9.43,26.2a17.079,17.079,0,0,1,1.464-6.626A16.9,16.9,0,0,1,24.212,9.669a16.681,16.681,0,0,1,9.949,1.784,15.52,15.52,0,0,1,3.305,2.28,1.281,1.281,0,0,0,1.19.428" transform="translate(-4.856 -4.907)" fill="#e3edf8"/>
        <path id="Trazado_136016" data-name="Trazado 136016" d="M37.41,12.951a.73.73,0,0,1-1.012-.119A16.211,16.211,0,0,0,27.54,8.618a16.357,16.357,0,0,0-13.271,3.79A16.253,16.253,0,0,0,8.5,22.692a16.06,16.06,0,0,0,1.469,9.735A20.848,20.848,0,0,0,13.5,37.189a16.66,16.66,0,0,0,9.389,4.535A16.649,16.649,0,0,0,39.232,34c.325-.521.653-1.041.961-1.572a15.35,15.35,0,0,0,1.525-5.146,16.527,16.527,0,0,0-1.912-10.12,15.438,15.438,0,0,0-1.525-2.3.722.722,0,0,1-.07-.956c.472-.3.72-.266,1.068.182A17.5,17.5,0,0,1,43.059,23.9a17.958,17.958,0,0,1-10.9,17.9A16.912,16.912,0,0,1,22.931,43.1,17.57,17.57,0,0,1,8.257,31.666,17.841,17.841,0,0,1,12.478,12.31,17.427,17.427,0,0,1,22.524,7.359a17.749,17.749,0,0,1,14.692,4.508c.444.393.472.581.194,1.085" transform="translate(-3.61 -3.697)"/>
        <path id="Trazado_136017" data-name="Trazado 136017" d="M26.215,30.465a.646.646,0,0,1-.934-.089c-1.157-1.035-2.323-2.059-3.474-3.1a1.893,1.893,0,1,1,2.526-2.816q3.576,3.175,7.142,6.361a1.178,1.178,0,0,0,1.517-.036c1.149-1.165,2.286-2.342,3.449-3.493a1.878,1.878,0,0,1,3.163.852,1.848,1.848,0,0,1-.514,1.847c-1.24,1.252-2.465,2.52-3.719,3.758-.376.371-.269.889-.5,1.3-.062.111.133.192.224.269q3.13,2.631,6.263,5.259a4.323,4.323,0,0,1,.346.3.625.625,0,0,1-.821.941c-.136-.1-.26-.212-.388-.32q-3.1-2.6-6.2-5.21a.409.409,0,0,0-.568-.058A2.761,2.761,0,0,1,29.651,34.5a.967.967,0,0,0-.313-.521c-.643-.56-1.278-1.13-1.914-1.7-.423-.379-.456-.551-.214-1.054a.6.6,0,0,1,.9-.134c.425.274.74.679,1.149.973.173.122.274.452.507.351s.364-.4.522-.63c.053-.077-.005-.16-.062-.225-.091-.105-.2-.2-.3-.295Q28.158,29.7,26.4,28.126c-.893-.8-1.808-1.581-2.682-2.4a2.6,2.6,0,0,0-.351-.3.532.532,0,0,0-.726.034.524.524,0,0,0,.034.756c.295.3.613.571.93.844.868.747,1.71,1.523,2.573,2.275.487.425.484.818.042,1.131" transform="translate(-10.872 -12.322)"/>
        <path id="Trazado_136018" data-name="Trazado 136018" d="M43.341,59.253A15.482,15.482,0,0,1,39.9,64.061a16.636,16.636,0,0,1-9.936,4.662,16.858,16.858,0,0,1-16.822-9.35.543.543,0,0,1-.028-.12,12.969,12.969,0,0,1,1.088,1.519A17.746,17.746,0,0,0,17.668,64.3a17.128,17.128,0,0,0,6.907,3.2,20.565,20.565,0,0,0,3.089.391c.133.008.282.045.4-.072a.218.218,0,0,1,.337,0,.974.974,0,0,0,.689.067,19.134,19.134,0,0,0,4.766-.925,17.577,17.577,0,0,0,5.712-3.294A19.362,19.362,0,0,0,43.126,59.5c.06-.092.1-.2.214-.246" transform="translate(-6.758 -30.523)" fill="#d4dff1"/>
        <path id="Trazado_136019" data-name="Trazado 136019" d="M30.571,33.518c-.336-.289-.679-.569-1-.869a.714.714,0,0,0-1.008-.068c-.35-.233-.575-.627-1-.767.331-.436.322-.663-.1-1.039-1.09-.979-2.189-1.947-3.288-2.916-.233-.206-.484-.4-.453-.754a.629.629,0,0,1,1.072-.389c.591.489,1.153,1.012,1.726,1.523q2.328,2.074,4.654,4.15a2.348,2.348,0,0,1,.168.185,1.445,1.445,0,0,1-.775.943" transform="translate(-12.221 -13.671)" fill="#405b6c"/>
        <path id="Trazado_136020" data-name="Trazado 136020" d="M43.776,73.527h-.337a.671.671,0,0,1-.462-.7c-.006-.6-.011-1.2,0-1.8.01-.441.245-.69.618-.7.39-.006.631.25.64.717.012.587,0,1.175,0,1.762a.742.742,0,0,1-.466.724" transform="translate(-22.136 -36.226)" fill="#020202"/>
        <path id="Trazado_136021" data-name="Trazado 136021" d="M44.234,13.428c0,.32.016.641,0,.96a.623.623,0,0,1-1.247-.007q-.031-.98,0-1.962a.582.582,0,0,1,.605-.613.613.613,0,0,1,.646.62.8.8,0,0,1,0,.083q0,.46,0,.919h0" transform="translate(-22.135 -6.081)" fill="#020202"/>
        <path id="Trazado_136022" data-name="Trazado 136022" d="M13.365,43.054c.306,0,.613-.016.918,0a.611.611,0,0,1,.64.626.6.6,0,0,1-.638.628q-.96.031-1.921,0a.605.605,0,0,1-.64-.625.624.624,0,0,1,.638-.632.8.8,0,0,1,.083,0h.919v0" transform="translate(-6.04 -22.176)" fill="#020202"/>
        <path id="Trazado_136023" data-name="Trazado 136023" d="M71.843,43.054c.32,0,.641-.016.961,0a.612.612,0,0,1,.642.625.605.605,0,0,1-.637.629c-.64.021-1.281.02-1.921,0a.6.6,0,0,1-.641-.624.61.61,0,0,1,.636-.63c.319-.02.641,0,.961,0" transform="translate(-36.187 -22.175)" fill="#020202"/>
        <path id="Trazado_136024" data-name="Trazado 136024" d="M48.775,35.4c.929-.945,1.856-1.893,2.789-2.834a.649.649,0,0,1,.9-.052.638.638,0,0,1,0,.905c-.969.984-1.952,1.954-2.929,2.93a1.92,1.92,0,0,1-.766-.949" transform="translate(-25.126 -16.669)" fill="#405b6b"/>
        <path id="Trazado_136025" data-name="Trazado 136025" d="M41.189,42.836a1.5,1.5,0,1,1,3,0,2.035,2.035,0,0,1-3,0" transform="translate(-21.217 -21.242)" fill="#fe5875"/>
        <path id="Trazado_136026" data-name="Trazado 136026" d="M41.191,44.536a3.87,3.87,0,0,0,1.115.516,2.147,2.147,0,0,0,1.667-.4,1.972,1.972,0,0,1,.218-.12,1.5,1.5,0,0,1-3,0" transform="translate(-21.219 -22.942)" fill="#e5485d"/>
        <path id="Trazado_136027" data-name="Trazado 136027" d="M37.846,39.93l.775-.943c.095.08.185.166.285.238.244.175.233.342,0,.517a.878.878,0,0,0-.141.152c-.433.547-.433.548-.921.035" transform="translate(-19.496 -20.084)" fill="#2d4355"/>
        <path id="Trazado_136028" data-name="Trazado 136028" d="M48.331,38.636a8.831,8.831,0,0,1,.766.949c-.41.482-.41.482-.814.046l-.029-.03c-.466-.494-.466-.494.077-.965" transform="translate(-24.682 -19.903)" fill="#2d4355"/>
      </g>
    </g>
  </g>
</svg>
