<svg xmlns="http://www.w3.org/2000/svg" xmlns:xlink="http://www.w3.org/1999/xlink" width="64.888" height="64.888" viewBox="0 0 64.888 64.888">
  <defs>
    <clipPath id="clip-path">
      <rect id="Rectángulo_38087" data-name="Rectángulo 38087" width="39.491" height="49.387" fill="none"/>
    </clipPath>
  </defs>
  <g id="_80" data-name="80" transform="translate(0 -0.003)">
    <circle id="Elipse_4823" data-name="Elipse 4823" cx="32.444" cy="32.444" r="32.444" transform="translate(0 0.002)" fill="#ff9fa3"/>
    <g id="Grupo_158981" data-name="Grupo 158981" transform="translate(12.887 7.363)">
      <g id="Grupo_158981-2" data-name="Grupo 158981" clip-path="url(#clip-path)">
        <path id="Trazado_136056" data-name="Trazado 136056" d="M59.545,0c.77.6.827.959.289,1.816L57.77,5.1c.615,0,1.164,0,1.714,0s.9.267.907.707-.343.736-.93.739c-.723,0-1.446-.009-2.168,0-.485.009-.943-.024-1.214-.5-.283-.5-.048-.917.22-1.337.613-.959,1.215-1.924,1.817-2.89.064-.1.174-.188.163-.38-.508,0-1.014-.011-1.52,0-.408.011-.789-.029-.96-.465s.084-.718.372-.985Z" transform="translate(-36.027)"/>
        <path id="Trazado_136057" data-name="Trazado 136057" d="M.685,23.282A.827.827,0,0,1,0,22.329,19.968,19.968,0,0,1,9.77,6.084a1.806,1.806,0,0,1,2.084-.018,1.837,1.837,0,0,1,.862,1.813,4.166,4.166,0,0,1-.321,1,15.509,15.509,0,0,0,2.764,15.928.492.492,0,0,0,.677.183c1.023-.416,2.063-.791,3.1-1.175a3.811,3.811,0,0,1,5.288,2.756c.069.265.19.3.428.3a18.7,18.7,0,0,1,3.412.146A7.717,7.717,0,0,1,32.058,29.1a.491.491,0,0,0,.62.118,15.888,15.888,0,0,0,3.695-2.037,1.907,1.907,0,0,1,3.006,2.134,19.825,19.825,0,0,1-3.345,6.4,14.261,14.261,0,0,1-1.162,1.351,1.258,1.258,0,0,0-.39,1.02c.027.9.012,1.8.007,2.7,0,.6-.157.786-.743.94a.689.689,0,0,1-.8-.676,10.136,10.136,0,0,1-.016-1.107c0-1.622.008-3.243,0-4.865a6.572,6.572,0,0,0-1.544-4.405,6.149,6.149,0,0,0-3.877-2.132,18.338,18.338,0,0,0-2.551-.1c-.409-.015-.528.172-.526.55.009,1.463,0,2.926,0,4.389a5.162,5.162,0,0,1-.014.578.864.864,0,0,1-.714.8.893.893,0,0,1-.909-.576,2.053,2.053,0,0,1-.1-.808c0-1.993.007-3.987,0-5.98a2.206,2.206,0,0,0-1.938-2.279,1.934,1.934,0,0,0-1,.094c-.789.276-1.569.578-2.351.872-.484.182-.506.27-.106.585a5.533,5.533,0,0,1,1.74,2.269,5.236,5.236,0,0,1,.379,2.024q-.006,9.548,0,19.1c0,.112,0,.225,0,.337,0,.969.14,1.1,1.127,1.1s1.961,0,2.941,0A4.174,4.174,0,0,0,27.3,48.625a5.827,5.827,0,0,0,.223-1.567c.016-2.631-.018-5.262.018-7.894.179-.511.473-.752.88-.722a.938.938,0,0,1,.811.879,5.351,5.351,0,0,1,.023.718c.017,1.678-.033,3.357.028,5.032.066.207.242.178.4.178A3.094,3.094,0,0,0,32.3,44.083a1.841,1.841,0,0,1,.416-.462c.258-.167.529-.315.817-.046.515.451.56.724.166,1.278a4.458,4.458,0,0,1-4.019,1.942c-.492-.018-.591.119-.593.6a5.7,5.7,0,0,1-5.694,5.7q-1.687.012-3.375,0A2.1,2.1,0,0,1,17.837,50.9c-.008-2.314-.015-4.628.008-6.942,0-.441-.084-.612-.561-.686A19.973,19.973,0,0,1,3.151,34.129a19.383,19.383,0,0,1-2.963-7.9c-.091-.606.035-.817.58-1.047.363-.167.6.026.809.287a1.087,1.087,0,0,1,.16.43,18.333,18.333,0,0,0,4.447,9.661,18.7,18.7,0,0,0,9.55,5.84c.513.135,1.037.22,1.559.311.3.052.412-.055.409-.352-.007-.723,0-1.446-.006-2.169,0-2.667-.029-5.334.011-8A3.806,3.806,0,0,0,16.2,28a17.042,17.042,0,0,1-5.824-8.876A17.05,17.05,0,0,1,10.86,8.478c.061-.166.135-.327.19-.5.061-.189.1-.386-.078-.532s-.34-.043-.492.046a12.938,12.938,0,0,0-1.167.768A18.418,18.418,0,0,0,1.679,21.306c-.049.4-.09.8-.123,1.2a.881.881,0,0,1-.432.762c-.144.049-.287.144-.438.018" transform="translate(0 -3.712)"/>
        <path id="Trazado_136058" data-name="Trazado 136058" d="M83.909,85.011a.9.9,0,0,0-1.046.469,3.159,3.159,0,0,1-3.357,1.239.265.265,0,0,1,.118-.081c1.177-.185,1.53-1.106,1.8-2.065a4.849,4.849,0,0,0,.146-1.338c-.006-2.217.014-4.435-.007-6.652a7.114,7.114,0,0,0-3.2-6.241c-.179-.12-.4-.22-.425-.486a6.371,6.371,0,0,1,5.4,5.519c.186,2,.037,4,.075,6.007.005.288.013.578,0,.866a.779.779,0,0,0,.7.917,4.274,4.274,0,0,1-.213,1.846" transform="translate(-50.376 -45.148)" fill="#bdd8fc"/>
        <path id="Trazado_136059" data-name="Trazado 136059" d="M69.374,36.234c.635,0,1.178,0,1.721,0,.563.006.879.274.876.733s-.3.708-.888.711c-.819,0-1.639.008-2.458,0a.974.974,0,0,1-.866-1.593c.709-1.144,1.429-2.281,2.2-3.506-.668,0-1.267.012-1.865,0a.713.713,0,0,1-.749-.8.7.7,0,0,1,.734-.633c.916-.014,1.833-.033,2.747,0a.96.96,0,0,1,.766,1.54c-.708,1.161-1.438,2.308-2.216,3.549" transform="translate(-43.516 -20.115)"/>
        <path id="Trazado_136060" data-name="Trazado 136060" d="M93.622,18.87c.629,0,1.171-.006,1.713,0,.569.008.881.277.876.734s-.312.7-.894.709c-.819.006-1.638.013-2.456,0a.974.974,0,0,1-.87-1.592c.632-1.022,1.278-2.035,1.914-3.055a.656.656,0,0,0,.185-.44c-.457,0-.913,0-1.37,0a3.236,3.236,0,0,1-.528-.027.661.661,0,0,1-.608-.735.624.624,0,0,1,.628-.663c.995-.022,1.992-.047,2.984.013a.933.933,0,0,1,.636,1.5c-.624,1.027-1.274,2.038-1.912,3.056-.083.133-.161.271-.3.5" transform="translate(-59.19 -8.904)"/>
        <path id="Trazado_136061" data-name="Trazado 136061" d="M1.938,55.189l.354-.077a5.723,5.723,0,0,1,.481,2.315.924.924,0,0,0-.752-.343q-.041-.947-.083-1.894" transform="translate(-1.253 -35.619)" fill="#e7a42e"/>
        <path id="Trazado_136062" data-name="Trazado 136062" d="M3.421,28.179a16.6,16.6,0,0,1-.481-2.315A.993.993,0,0,0,3.36,25a18.5,18.5,0,0,1,8.882-14.911c.239-.154.482-.372.777-.111s.13.528.025.8a17.079,17.079,0,0,0,5.145,19.779,3.925,3.925,0,0,1,1.554,3.255c-.029,2.683-.02,5.366-.026,8.049a1.264,1.264,0,0,1-.842-.015A19.642,19.642,0,0,1,3.813,29.567c-.126-.328-.173-.678-.279-1.011q-.057-.188-.113-.376" transform="translate(-1.9 -6.371)" fill="#edbf6b"/>
        <path id="Trazado_136063" data-name="Trazado 136063" d="M57.976,63.5a8.723,8.723,0,0,1,2.733,2.711,7.692,7.692,0,0,1,1.017,3.8c.037,2.362.013,4.725.009,7.088a4.187,4.187,0,0,1-1.093,2.939,1.306,1.306,0,0,1-1.106.324l-.029-5.346c0-.161,0-.322,0-.482-.009-.518-.227-.841-.634-.88a.717.717,0,0,0-.822.636c-.068,1.264-.015,2.529-.028,3.793-.009.9-.011,1.8,0,2.692,0,.284-.068.43-.366.506-.911.229-1.1.478-1.2,1.423a5.218,5.218,0,0,1-1.679,3.513,1.7,1.7,0,0,1-.857.492c-1.172.006-2.344.019-3.517.015A.662.662,0,0,1,49.69,86c-.007-.144,0-.289,0-.434,0-6.394-.02-12.788.012-19.182a5.408,5.408,0,0,0-2.207-4.622,1.132,1.132,0,0,1-.446-.459c1.056-.4,2.086-.83,3.148-1.167a2.35,2.35,0,0,1,3.066,2.253c.027,2.088.007,4.177.009,6.265a2.375,2.375,0,0,0,.015.432.714.714,0,0,0,.725.643.7.7,0,0,0,.7-.71c.018-.562.007-1.124.007-1.687q0-1.783,0-3.566c0-.2-.03-.386.279-.372a20.916,20.916,0,0,1,2.98.105" transform="translate(-30.407 -38.795)" fill="#dceafc"/>
        <path id="Trazado_136064" data-name="Trazado 136064" d="M4.619,62.721c.339.811.64,1.64,1.024,2.429a19.761,19.761,0,0,0,3.122,4.593A19.452,19.452,0,0,0,20.8,76.025c.006.8,0,1.606.025,2.408.008.29-.106.3-.343.268A18.9,18.9,0,0,1,4.727,63.577c-.052-.282-.073-.571-.108-.856" transform="translate(-2.985 -40.537)" fill="#e8a42d"/>
        <path id="Trazado_136065" data-name="Trazado 136065" d="M98.467,69.3a.389.389,0,0,1,.343.526,18.663,18.663,0,0,1-3.541,6.572,8.373,8.373,0,0,0-1.238-4.755l1.545-.691c.5.316.623.9.949,1.374a20.073,20.073,0,0,0,1.55-2.5c.1-.2.161-.426.392-.526" transform="translate(-60.773 -44.787)" fill="#e8a42d"/>
        <path id="Trazado_136066" data-name="Trazado 136066" d="M66.5,112.782a5.045,5.045,0,0,0,2.4-4.132,1.352,1.352,0,0,1,1.255-1.425c.378-.037.393-.2.392-.488q-.01-2.933,0-5.866c0-.17-.058-.355.075-.508,0,2.778.045,5.557-.01,8.335a4.2,4.2,0,0,1-4.115,4.084" transform="translate(-42.977 -64.865)" fill="#bdd8fc"/>
        <path id="Trazado_136067" data-name="Trazado 136067" d="M101.289,69.253a18.908,18.908,0,0,1-1.978,3.258A12.209,12.209,0,0,0,98.4,70.9a21.339,21.339,0,0,0,2.452-1.54.434.434,0,0,1,.438-.111" transform="translate(-63.595 -44.743)" fill="#edbf6a"/>
      </g>
    </g>
  </g>
</svg>
