<svg xmlns="http://www.w3.org/2000/svg" xmlns:xlink="http://www.w3.org/1999/xlink" width="64.888" height="64.888" viewBox="0 0 64.888 64.888">
  <defs>
    <clipPath id="clip-path">
      <rect id="Rectángulo_38157" data-name="Rectángulo 38157" width="40.603" height="43" fill="none"/>
    </clipPath>
  </defs>
  <g id="_84" data-name="84" transform="translate(0 -0.003)">
    <circle id="Elipse_4823" data-name="Elipse 4823" cx="32.444" cy="32.444" r="32.444" transform="translate(0 0.002)" fill="#ff9fa3"/>
    <g id="Grupo_159156" data-name="Grupo 159156" transform="translate(12 11.003)">
      <g id="Grupo_159156-2" data-name="Grupo 159156" transform="translate(0 0)" clip-path="url(#clip-path)">
        <path id="Trazado_137383" data-name="Trazado 137383" d="M1.037,45.36q0-.491.007-.983a1.784,1.784,0,0,0,.237-1.045q-.018-1.505,0-3.011a1.739,1.739,0,0,0-.234-1q0-.5-.008-1a1.856,1.856,0,0,0,.235-1.094q-.009-2.194,0-4.389c0-.7.09-.784.8-.784q17.259,0,34.517,0c.741,0,.824.08.825.805q.006,5.235,0,10.469c0,.223.067.516-.156.631s-.412-.129-.586-.261A10.813,10.813,0,0,0,24.625,43a1.881,1.881,0,0,1-.57.283c-.682.053-1.365.015-2.048.029-.757.016-.969.229-.97.988,0,.668-.013,1.336.009,2a12.208,12.208,0,0,1-.659,1.3,10.677,10.677,0,0,0,.9,10.982c.139.209.433.415.309.665s-.467.156-.718.156c-5.594,0-11.189-.019-16.783.018A2.739,2.739,0,0,1,1.275,56.6q0-4.481,0-8.963c0-.4-.009-.793,0-1.189a1.744,1.744,0,0,0-.242-1.091" transform="translate(-0.662 -20.452)" fill="#71c9f4"/>
        <path id="Trazado_137384" data-name="Trazado 137384" d="M.375,24.908c.368.087.387.359.386.672-.006,3.5.023,7.009-.016,10.514a2.662,2.662,0,0,0,2.736,2.758c5.683-.038,11.367-.015,17.05-.016.117,0,.234-.011.364-.018-2.964-4.224-3.282-8.54-.591-12.991a2.611,2.611,0,0,1,.794-1.2,7.051,7.051,0,0,1,2.244-1.9,12.059,12.059,0,0,1,3.765-1.579,10.835,10.835,0,0,1,9.268,2.195l.147.113c.147-.083.076-.22.076-.324,0-3.642,0-7.284.011-10.926,0-.341-.064-.466-.443-.466q-17.486.016-34.971,0c-.373,0-.451.115-.447.462.017,1.676,0,3.353.012,5.029,0,.307-.053.544-.386.628-.3-.091-.369-.3-.368-.6.008-3.659,0-7.317.009-10.976A3.26,3.26,0,0,1,3.281,3.043c1.3-.009,2.592-.02,3.887.008.411.009.538-.093.526-.518A2.314,2.314,0,0,1,9.056.284,2.4,2.4,0,0,1,11.644.5a2.955,2.955,0,0,1,.9,1.184.968.968,0,0,1,.23.807c-.007.312.129.445.438.429a1.372,1.372,0,0,1,.713.109c3.487,0,6.974,0,10.46.023.381,0,.327-.2.326-.426A2.421,2.421,0,0,1,26.249.208a2.466,2.466,0,0,1,3.115,1.066c.075.132.14.269.21.4a1.07,1.07,0,0,1,.217.814c-.009.313.133.44.439.428a1.565,1.565,0,0,1,.8.112c.879,0,1.76.04,2.637,0a3.43,3.43,0,0,1,3.374,1.858,1.815,1.815,0,0,1,.432,1.4c.006,1.859,0,3.718,0,5.578,0,3.856.005,7.711-.007,11.567a1.72,1.72,0,0,0,.421,1.206,10.994,10.994,0,0,1,2.661,6.2A11.128,11.128,0,0,1,25.957,42.418a10.858,10.858,0,0,1-3.976-2.355,1.047,1.047,0,0,0-.742-.29c-.716,0-1.433,0-2.149,0q-7.521,0-15.041,0a11.1,11.1,0,0,1-1.455-.128.863.863,0,0,1-.638-.313A3.55,3.55,0,0,1,0,35.863c.042-3.437.015-6.876.009-10.314,0-.3.03-.549.366-.642" transform="translate(0 0)"/>
        <path id="Trazado_137385" data-name="Trazado 137385" d="M.416,52.143a.476.476,0,0,1,.371.545q-.013,1.989,0,3.978c0,.278-.072.478-.373.534a.427.427,0,0,1-.365-.491q.009-2.033,0-4.065a.463.463,0,0,1,.368-.5" transform="translate(-0.031 -33.275)" fill="#3a2e5f"/>
        <path id="Trazado_137386" data-name="Trazado 137386" d="M33.169,43.34c0-.579,0-1.158,0-1.737.006-.527.248-.808.771-.816q1.783-.028,3.566,0a.727.727,0,0,1,.782.815q.008,1.737,0,3.475c0,.573-.262.827-.846.83q-1.714.008-3.429,0c-.6,0-.843-.255-.846-.873,0-.564,0-1.128,0-1.692" transform="translate(-21.166 -26.019)" fill="#d4fafd"/>
        <path id="Trazado_137387" data-name="Trazado 137387" d="M61.045,43.358c0,.579.005,1.159,0,1.738a.716.716,0,0,1-.817.81q-1.738.009-3.476,0c-.575,0-.825-.262-.827-.848q-.006-1.715,0-3.43a.736.736,0,0,1,.842-.843q1.715-.017,3.43,0c.6.006.846.273.849.881,0,.564,0,1.128,0,1.692" transform="translate(-35.685 -26.021)" fill="#d4fafd"/>
        <path id="Trazado_137388" data-name="Trazado 137388" d="M83.8,43.38c0,.563,0,1.127,0,1.691-.005.592-.246.841-.821.843q-1.714.006-3.427,0c-.629,0-.874-.255-.875-.893q0-1.645,0-3.29c0-.645.3-.94.958-.942q1.6,0,3.2,0c.729,0,.965.235.968.946,0,.549,0,1.1,0,1.645" transform="translate(-50.205 -26.028)" fill="#d4fafd"/>
        <path id="Trazado_137389" data-name="Trazado 137389" d="M12.935,45.906c-.594,0-1.188.006-1.782,0a.68.68,0,0,1-.74-.736q-.016-1.8,0-3.609a.7.7,0,0,1,.767-.771c1.188-.018,2.376-.015,3.564,0a.767.767,0,0,1,.786.786q.02,1.8,0,3.609a.694.694,0,0,1-.765.723c-.609.01-1.218,0-1.828,0" transform="translate(-6.64 -26.02)" fill="#d4fafd"/>
        <path id="Trazado_137390" data-name="Trazado 137390" d="M10.413,65.313c0-.564,0-1.128,0-1.691.005-.54.234-.824.752-.833,1.2-.021,2.407-.017,3.611,0a.76.76,0,0,1,.754.769q.021,1.828,0,3.657a.668.668,0,0,1-.705.687q-1.874.018-3.748,0a.655.655,0,0,1-.661-.713c-.008-.625,0-1.249,0-1.874" transform="translate(-6.644 -40.059)" fill="#d4fafd"/>
        <path id="Trazado_137391" data-name="Trazado 137391" d="M35.69,67.906c-.594,0-1.188.006-1.782,0a.683.683,0,0,1-.739-.738q-.015-1.8,0-3.609a.713.713,0,0,1,.778-.769q1.781-.026,3.564,0a.776.776,0,0,1,.777.832q.006,1.736,0,3.472a.718.718,0,0,1-.815.813c-.594.008-1.188,0-1.782,0" transform="translate(-21.162 -40.06)" fill="#d4fafd"/>
        <path id="Trazado_137392" data-name="Trazado 137392" d="M35.689,89.905c-.594,0-1.188.006-1.782,0a.683.683,0,0,1-.739-.739q-.015-1.8,0-3.609a.713.713,0,0,1,.779-.768q1.781-.026,3.564,0a.766.766,0,0,1,.774.795q.016,1.782,0,3.564a.7.7,0,0,1-.768.758c-.609.007-1.218,0-1.828,0" transform="translate(-21.162 -54.099)" fill="#d4fafd"/>
        <path id="Trazado_137393" data-name="Trazado 137393" d="M12.954,89.906c-.594,0-1.188.006-1.782,0a.678.678,0,0,1-.758-.758q-.009-1.759,0-3.518c0-.55.255-.834.8-.841,1.173-.016,2.346-.014,3.518,0a.77.77,0,0,1,.8.815q.016,1.781,0,3.564a.692.692,0,0,1-.75.738c-.609.012-1.218,0-1.827,0" transform="translate(-6.643 -54.1)" fill="#d4fafd"/>
        <path id="Trazado_137394" data-name="Trazado 137394" d="M58.989,62.807A12.225,12.225,0,0,0,55.951,65.9a10.787,10.787,0,0,1-.041-2.521c.022-.4.409-.578.809-.581.756-.005,1.513.006,2.27.01" transform="translate(-35.645 -40.073)" fill="#d4fafd"/>
        <path id="Trazado_137395" data-name="Trazado 137395" d="M19.972,17.672q-8.688,0-17.375.01c-.44,0-.563-.106-.554-.551.031-1.371.009-2.743.012-4.115a2.538,2.538,0,0,1,2.569-2.583c1.326,0,2.652.009,3.978-.008.327,0,.416.1.406.416-.021.685-.014,1.371,0,2.057a2.421,2.421,0,0,0,2.432,2.393,2.445,2.445,0,0,0,2.5-2.378c.016-.716.013-1.433,0-2.149-.005-.261.085-.338.341-.337q5.693.01,11.385,0c.281,0,.369.083.362.363-.017.67-.009,1.341,0,2.012a2.47,2.47,0,1,0,4.94.026c.008-.686.011-1.372,0-2.057-.005-.256.077-.344.338-.342,1.417.01,2.835-.013,4.252.011A2.53,2.53,0,0,1,37.912,12.9c.012,1.448-.008,2.9.012,4.344,0,.348-.1.432-.439.43-2.682-.013-5.365-.007-8.048-.007H19.972" transform="translate(-1.303 -6.653)" fill="#178aeb"/>
        <path id="Trazado_137396" data-name="Trazado 137396" d="M72.868,67.293a9.177,9.177,0,0,1,.761,4.123,10.181,10.181,0,0,1-2.516,6.426,10.175,10.175,0,0,1-14.145,1.263,10.043,10.043,0,0,1-3.8-8.633,9.755,9.755,0,0,1,.56-2.759c.048-.139.086-.3.242-.371a7.053,7.053,0,0,1,1.3-2.079,10.341,10.341,0,0,1,6.717-3.635,10.516,10.516,0,0,1,9.852,4.017,16.19,16.19,0,0,1,1.033,1.648" transform="translate(-33.92 -39.27)" fill="#ba608a"/>
        <path id="Trazado_137397" data-name="Trazado 137397" d="M23.3,5.7c0-.625-.01-1.25,0-1.875a1.732,1.732,0,0,1,3.463-.015q.031,1.874,0,3.749A1.732,1.732,0,0,1,23.3,7.527c-.009-.609,0-1.219,0-1.829" transform="translate(-14.868 -1.352)" fill="#d4fafd"/>
        <path id="Trazado_137398" data-name="Trazado 137398" d="M73.805,5.7c0,.625.011,1.25,0,1.874a1.731,1.731,0,0,1-3.46.029c-.025-1.264-.021-2.53,0-3.794a1.732,1.732,0,0,1,3.463.016c.013.625,0,1.249,0,1.874" transform="translate(-44.877 -1.352)" fill="#d4fafd"/>
        <path id="Trazado_137399" data-name="Trazado 137399" d="M74.29,66.185c-.216-.05-.24-.263-.33-.41a10.436,10.436,0,0,0-7.752-5.14,10.562,10.562,0,0,0-10.6,5.251c-.069.118-.145.231-.217.347a.749.749,0,0,1,.132-.474,10.223,10.223,0,0,1,18.767.426" transform="translate(-35.342 -38.161)" fill="#fefefe"/>
        <path id="Trazado_137400" data-name="Trazado 137400" d="M38.839,43.658c-.044.083-.092.193-.156.293-.511.792-1.022,1.585-1.541,2.373-.267.4-.437.42-.8.089-.313-.289-.619-.585-.932-.876-.19-.177-.367-.376-.143-.619s.429-.107.635.067c.261.22.473.677.776.613.235-.049.386-.507.569-.786.292-.445.58-.892.87-1.339a.389.389,0,0,1,.466-.2c.164.049.234.18.251.381" transform="translate(-22.441 -27.605)" fill="#3a2f5f"/>
        <path id="Trazado_137401" data-name="Trazado 137401" d="M58.173,44.777c.3.059.454.325.663.515.44.4.433.408.746-.075.364-.561.733-1.119,1.093-1.683.147-.231.331-.4.593-.229s.161.418.018.637c-.513.79-1.022,1.583-1.54,2.371-.258.393-.429.418-.763.113-.36-.327-.71-.667-1.062-1a.356.356,0,0,1-.1-.451.373.373,0,0,1,.351-.2" transform="translate(-36.872 -27.591)" fill="#3a2f5f"/>
        <path id="Trazado_137402" data-name="Trazado 137402" d="M84.646,43.608a.491.491,0,0,1-.125.333c-.521.8-1.048,1.6-1.564,2.411-.213.333-.446.387-.739.108q-.513-.488-1.028-.973c-.188-.178-.289-.383-.073-.589.185-.176.392-.115.569.05.033.031.065.064.1.1.712.663.712.663,1.234-.139.315-.484.633-.967.948-1.451a.371.371,0,0,1,.473-.165.3.3,0,0,1,.206.32" transform="translate(-51.688 -27.606)" fill="#3a2f5f"/>
        <path id="Trazado_137403" data-name="Trazado 137403" d="M13.984,46.63a.512.512,0,0,1-.323-.153c-.355-.334-.708-.669-1.064-1-.191-.178-.283-.385-.077-.591.182-.182.39-.119.568.043l.134.125c.683.638.683.638,1.2-.164.3-.459.6-.915.893-1.378.14-.222.325-.36.565-.217.275.164.2.4.046.629q-.79,1.2-1.568,2.408a.544.544,0,0,1-.378.3" transform="translate(-7.915 -27.591)" fill="#3a2f5f"/>
        <path id="Trazado_137404" data-name="Trazado 137404" d="M14.007,68.635a4.875,4.875,0,0,1-1.572-1.473.311.311,0,0,1,.148-.312.375.375,0,0,1,.466.04,5.873,5.873,0,0,1,.6.563c.225.263.339.172.49-.072.376-.608.776-1.2,1.162-1.8.15-.234.327-.456.619-.268s.147.442,0,.671q-.763,1.163-1.517,2.332c-.1.155-.2.31-.391.321" transform="translate(-7.935 -41.633)" fill="#3a2f5f"/>
        <path id="Trazado_137405" data-name="Trazado 137405" d="M38.82,65.5a.557.557,0,0,1-.12.436c-.521.8-1.04,1.61-1.569,2.41-.255.386-.426.4-.763.094s-.664-.628-1-.939c-.19-.177-.3-.381-.086-.589s.418-.111.6.064.387.346.56.537.268.15.4-.058c.41-.658.842-1.3,1.264-1.954a.405.405,0,0,1,.455-.225.324.324,0,0,1,.257.223" transform="translate(-22.443 -41.65)" fill="#3a2f5f"/>
        <path id="Trazado_137406" data-name="Trazado 137406" d="M38.834,87.617a.6.6,0,0,1-.142.34c-.513.791-1.024,1.585-1.542,2.373-.272.414-.436.433-.792.105-.336-.309-.664-.628-1-.939-.175-.164-.272-.354-.095-.556.191-.218.406-.147.6.024.034.03.066.063.1.094.715.654.715.654,1.235-.149.306-.472.616-.943.922-1.415a.392.392,0,0,1,.461-.208.337.337,0,0,1,.252.331" transform="translate(-22.444 -55.69)" fill="#3a2f5f"/>
        <path id="Trazado_137407" data-name="Trazado 137407" d="M16.075,87.66c-.05.094-.1.2-.163.3-.511.792-1.022,1.584-1.54,2.371-.269.408-.433.424-.793.093-.324-.3-.642-.605-.965-.906-.184-.171-.315-.371-.115-.589.215-.235.433-.116.633.066.245.224.531.643.74.61.32-.051.429-.533.634-.828.3-.424.566-.865.847-1.3a.391.391,0,0,1,.466-.2c.166.05.224.191.256.372" transform="translate(-7.912 -55.69)" fill="#3a2f5f"/>
        <path id="Trazado_137408" data-name="Trazado 137408" d="M66.587,81.882a7.949,7.949,0,0,1-6.745-4.3,8.1,8.1,0,0,1,.841-8.962A7.892,7.892,0,0,1,67.338,65.6a8.123,8.123,0,0,1,5.733,13.56,8.324,8.324,0,0,1-4.895,2.671,5.919,5.919,0,0,1-.682.049,2.98,2.98,0,0,1-.908,0" transform="translate(-37.566 -41.86)" fill="#3a2e5f"/>
        <path id="Trazado_137409" data-name="Trazado 137409" d="M80.2,110.6h.908a1.208,1.208,0,0,1-.908,0" transform="translate(-51.181 -70.58)" fill="#a85883"/>
        <path id="Trazado_137410" data-name="Trazado 137410" d="M68.347,82.434a7.442,7.442,0,1,1,7.432-7.451,7.443,7.443,0,0,1-7.432,7.451" transform="translate(-38.87 -43.107)" fill="#fdd6e4"/>
        <path id="Trazado_137411" data-name="Trazado 137411" d="M74.284,76.041c0,.929-.011,1.859.005,2.788.007.409-.144.575-.562.569-1.188-.016-2.376-.008-3.565,0-.267,0-.524-.039-.519-.362s.258-.372.526-.372c.99,0,1.981-.017,2.97.01.354.01.424-.1.42-.434-.017-1.584-.008-3.169-.008-4.753,0-.107,0-.213,0-.32,0-.252.115-.429.366-.43s.367.179.366.43q0,1.439,0,2.879" transform="translate(-44.443 -46.414)" fill="#3a2e5f"/>
      </g>
    </g>
  </g>
</svg>
