<svg xmlns="http://www.w3.org/2000/svg" xmlns:xlink="http://www.w3.org/1999/xlink" width="64.888" height="64.888" viewBox="0 0 64.888 64.888">
  <defs>
    <clipPath id="clip-path">
      <rect id="Rectángulo_37517" data-name="Rectángulo 37517" width="34.867" height="44.628" fill="none"/>
    </clipPath>
  </defs>
  <g id="_85" data-name="85" transform="translate(0 -0.002)">
    <circle id="Elipse_4823" data-name="Elipse 4823" cx="32.444" cy="32.444" r="32.444" transform="translate(0 0.002)" fill="#ff9fa3"/>
    <g id="Grupo_157929" data-name="Grupo 157929" transform="translate(14.838 9.894)">
      <g id="Grupo_157929-2" data-name="Grupo 157929" clip-path="url(#clip-path)">
        <path id="Trazado_130654" data-name="Trazado 130654" d="M4.878,23.723c-.7-.035-.705-.035-.694-.753a34.151,34.151,0,0,1,.156-4.691,13.963,13.963,0,0,1,3.727-7.641,1,1,0,0,0,.306-.758c-.012-2.7.015-5.4-.02-8.094A1.685,1.685,0,0,1,9.411,0h7.757a1.44,1.44,0,0,1,1.167,1.464c.055.51.057.509.582.508.882,0,1.765-.02,2.646.008.37.012.54-.1.539-.473a1.925,1.925,0,0,1,.24-.87A1.264,1.264,0,0,1,23.269,0h7.757a1.7,1.7,0,0,1,1.058,1.789c-.034,2.712-.01,5.426-.017,8.138a.849.849,0,0,0,.249.649,13.922,13.922,0,0,1,3.934,9.7c.026,1.9-.012,3.8.017,5.7.006.438-.1.6-.535.523a.678.678,0,0,0-.173.012c-.589.234-.822.092-.826-.532-.01-1.609-.024-3.218,0-4.827a14.176,14.176,0,0,0-1.568-6.92,10.593,10.593,0,0,0-9.6-5.733q-3.346.017-6.689,0a10.293,10.293,0,0,0-6.141,1.829,10.627,10.627,0,0,0-3.461,3.885A13.969,13.969,0,0,0,5.7,21.1c.013.7.009,1.393,0,2.089-.009.631-.227.768-.824.535" transform="translate(-2.788)"/>
        <path id="Trazado_130655" data-name="Trazado 130655" d="M32.772,49.944c.435,0,.871.006,1.306.015a.7.7,0,0,1,.782.781c0,4.2.018,8.4-.01,12.592A3.454,3.454,0,0,1,31.5,66.69c-.145,0-.29,0-.435,0H3.794A3.509,3.509,0,0,1,0,62.9Q0,56.9,0,50.913c0-.741.215-.952.958-.955.377,0,.755-.009,1.132-.014a1.141,1.141,0,0,1,.715-.116c.511-.014.547-.039.549-.544,0-1.709-.008-3.419,0-5.128a20.164,20.164,0,0,1,.133-3.425,9.571,9.571,0,0,1,1.45-3.6,9.326,9.326,0,0,1,6.889-4.013A5.626,5.626,0,0,1,12.4,33.1c3.355,0,6.711-.032,10.066.011a8.712,8.712,0,0,1,6.165,2.547,10.658,10.658,0,0,1,1.294,1.47,9.4,9.4,0,0,1,1.59,5.246c-.01,2.275,0,4.55,0,6.825,0,.615.01.62.637.631a.965.965,0,0,1,.628.116" transform="translate(0 -22.065)"/>
        <path id="Trazado_130656" data-name="Trazado 130656" d="M9.248,43.318A9.385,9.385,0,0,0,7.72,47.559c-.028.317-.046.636-.047.954,0,2.406-.009,4.811.006,7.217,0,.324-.077.436-.405.4s-.665-.016-1-.02V54.748c.025-.036.054-.079.095-.081.442-.025.455-.308.5-.671.059-.507-.328-.51-.592-.671V51.958c.7-.036.694-.036.7-.758a25.1,25.1,0,0,1,.261-5.058,11.984,11.984,0,0,1,1.388-3.8,9.847,9.847,0,0,1,.625.977" transform="translate(-4.185 -28.235)" fill="#dc923c"/>
        <path id="Trazado_130657" data-name="Trazado 130657" d="M92.421,56.11c-.447,0-1.015.157-1.306-.058s-.084-.81-.086-1.238c-.01-1.811-.049-3.624.007-5.434a10.106,10.106,0,0,0-1.589-6.065,7.83,7.83,0,0,1,.627-.98,11.831,11.831,0,0,1,1.471,4.318,49.055,49.055,0,0,1,.175,6.375,11.756,11.756,0,0,1-.006,1.259c-.029.363.083.507.447.445a1.2,1.2,0,0,1,.259.011V56.11" transform="translate(-59.649 -28.231)" fill="#dc923c"/>
        <path id="Trazado_130658" data-name="Trazado 130658" d="M4.882,75.312c.7.036.7.036.7.755,0,.632,0,.632-.7.668-.7-.036-.7-.036-.7-.733,0-.654,0-.654.7-.69" transform="translate(-2.791 -50.222)"/>
        <path id="Trazado_130659" data-name="Trazado 130659" d="M39.309,30.884a1.6,1.6,0,0,1-.627.98,9.282,9.282,0,0,0-4.832-3.525,9.174,9.174,0,0,0-2.7-.4c-3.209,0-6.419-.014-9.628,0A8.956,8.956,0,0,0,14.087,31.7c-.043.057-.094.108-.141.162-.394-.207-.478-.612-.625-.977a10.546,10.546,0,0,1,4.849-4.679,10.231,10.231,0,0,1,4.657-1.043c0,.2-.181.286-.291.413a.893.893,0,0,0,.47,1.5,2.266,2.266,0,0,0,.563.041h5.49a2.269,2.269,0,0,0,.564-.041.893.893,0,0,0,.47-1.5c-.11-.128-.288-.21-.292-.413a10.552,10.552,0,0,1,8.583,4.259,6.705,6.705,0,0,1,.924,1.461" transform="translate(-8.883 -16.78)" fill="#f1a042"/>
        <path id="Trazado_130660" data-name="Trazado 130660" d="M62.743,5.838a1.2,1.2,0,0,1-.431-1.523c.057-.16.169-.133.277-.133,1.679,0,3.359,0,5.038-.005.216,0,.276.072.252.28q-.311,2.605-.61,5.211c-.137.113-.279.044-.411,0a10.38,10.38,0,0,0-1.94-.463c-.509-.073-.547-.12-.541-.648A3.066,3.066,0,0,0,63.8,6.722a4.142,4.142,0,0,0-1.061-.883" transform="translate(-41.481 -2.785)" fill="#303030"/>
        <path id="Trazado_130661" data-name="Trazado 130661" d="M26.014,9.668q-.3-2.607-.609-5.213c-.026-.213.04-.279.252-.278q2.52.009,5.04,0c.2,0,.291.066.283.271a.869.869,0,0,0,.036.257.842.842,0,0,1-.476,1.135A2.939,2.939,0,0,0,28.9,8.684c.01.256-.067.456-.367.494a10.4,10.4,0,0,0-2.2.513.3.3,0,0,1-.328-.023" transform="translate(-16.938 -2.785)" fill="#303030"/>
        <path id="Trazado_130662" data-name="Trazado 130662" d="M47.427,25.166a1.729,1.729,0,0,1,.6.611,1.038,1.038,0,0,1-.972,1.459c-2.077.014-4.154.007-6.231,0a1.022,1.022,0,0,1-.98-.664.915.915,0,0,1,.275-1.134c.108-.1.222-.184.333-.276h6.975" transform="translate(-26.509 -16.782)" fill="#febd4f"/>
        <path id="Trazado_130663" data-name="Trazado 130663" d="M48.136,12.813a1.512,1.512,0,0,0-1.786-1.663,13.032,13.032,0,0,1-2.043,0,1.507,1.507,0,0,0-1.783,1.663c-.156.449-.271.524-.666.434a2.539,2.539,0,0,1,.551-2.115,2.076,2.076,0,0,1,1.55-.669c.9,0,1.8,0,2.7,0a2.09,2.09,0,0,1,2.158,2.175c0,.2-.008.406-.013.609-.4.09-.51.015-.667-.434" transform="translate(-27.9 -6.976)" fill="#dc923c"/>
        <path id="Trazado_130664" data-name="Trazado 130664" d="M27.225,13a10.754,10.754,0,0,1,2.52-.6c.3-.023.262-.214.255-.4a3.06,3.06,0,0,1,.575-2,2.129,2.129,0,0,1,1.175-.833,4.129,4.129,0,0,0-1.044,3.45c.04.445-.125.6-.547.645a9.726,9.726,0,0,0-2.545.678c-.255.1-.333.054-.322-.215A5.23,5.23,0,0,1,27.225,13" transform="translate(-18.149 -6.114)" fill="#121212"/>
        <path id="Trazado_130665" data-name="Trazado 130665" d="M63.821,9.165a2.637,2.637,0,0,1,1.748,2.444c.015.807.016.8.815.868a10.958,10.958,0,0,1,1.964.518c-.03.33-.06.66-.093,1.027a18.865,18.865,0,0,0-2.484-.716c-.9-.168-.932-.186-.89-1.112a3.98,3.98,0,0,0-1.059-3.029" transform="translate(-42.56 -6.112)" fill="#121212"/>
        <path id="Trazado_130666" data-name="Trazado 130666" d="M20.971,6.346V4.409l.059,0q.181,1.562.361,3.124c.138,1.218.262,2.438.417,3.653.04.308-.053.468-.331.55a3.25,3.25,0,0,1-.214-1.226c-.161-1.382-.206-2.773-.293-4.161" transform="translate(-13.985 -2.938)" fill="#234274"/>
        <path id="Trazado_130667" data-name="Trazado 130667" d="M81.488,11.743c-.309-.089-.362-.279-.32-.592.155-1.172.273-2.349.405-3.523.12-1.07.24-2.14.423-3.206V6.358c-.09,1.068-.085,2.141-.2,3.207-.069.62-.1,1.243-.181,1.863a.449.449,0,0,1-.123.316" transform="translate(-54.119 -2.949)" fill="#234173"/>
        <path id="Trazado_130668" data-name="Trazado 130668" d="M82.154,15.618c.031-.933.141-1.859.242-2.786.08-.742.129-1.487.193-2.231.011-.126-.039-.264.073-.369V15.9c-.215-.024-.346-.184-.507-.284" transform="translate(-54.785 -6.823)" fill="#355486"/>
        <path id="Trazado_130669" data-name="Trazado 130669" d="M20.971,10.23a1.993,1.993,0,0,1,.13.881c.159,1.5.258,3,.377,4.506l-.507.346Z" transform="translate(-13.985 -6.822)" fill="#355486"/>
        <path id="Trazado_130670" data-name="Trazado 130670" d="M60.7,17.52a.754.754,0,0,0,.667.434c0,.115,0,.23.016.343.038.277-.065.367-.352.369s-.374-.1-.35-.373.015-.516.02-.774" transform="translate(-40.46 -11.683)" fill="#af582a"/>
        <path id="Trazado_130671" data-name="Trazado 130671" d="M41.862,17.955a.754.754,0,0,0,.666-.434c.006.215.018.43.015.645,0,.238.1.506-.345.507s-.345-.261-.349-.5c0-.072.008-.143.013-.215" transform="translate(-27.904 -11.684)" fill="#af582a"/>
        <path id="Trazado_130672" data-name="Trazado 130672" d="M26.206,39.487q.007,1.325.014,2.649c0,.595.227.829.8.832q1.282.008,2.563,0c.562,0,.811-.26.816-.832.008-.883.01-1.766.015-2.649a.419.419,0,0,1,.317-.121,24.6,24.6,0,0,1,3.479.075,7.063,7.063,0,0,1,6.078,7.13q0,3.247,0,6.493a1.568,1.568,0,0,1-1.676,1.569,3.868,3.868,0,0,0-1.854-.374q-8.381.017-16.762,0a3.966,3.966,0,0,0-1.981.378,2.1,2.1,0,0,1-1.567-.8.69.69,0,0,1-.115-.5c0-2.422-.046-4.845.01-7.265a7.093,7.093,0,0,1,5.471-6.524,19.547,19.547,0,0,1,4.117-.175.373.373,0,0,1,.273.117" transform="translate(-10.88 -26.234)" fill="#303030"/>
        <path id="Trazado_130673" data-name="Trazado 130673" d="M37.55,53.447a3.03,3.03,0,0,0,1.335-.683.484.484,0,0,0,.15-.432c0-2.483.049-4.966-.02-7.447a6.491,6.491,0,0,0-1.65-4.059,6.813,6.813,0,0,0-4.684-2.434c-1.121-.112-2.262-.021-3.395-.021,0-.043-.011-.087-.012-.13-.013-.571-.012-.583.541-.569a22.433,22.433,0,0,1,3.862.166,7.731,7.731,0,0,1,5.98,6.485,12.048,12.048,0,0,1,.073,1.389q0,11.069.008,22.137c0,.378-.069.514-.489.513q-12.07-.021-24.139,0c-.364,0-.491-.064-.491-.467q.021-11.329.013-22.66a7.673,7.673,0,0,1,6.609-7.483c1.187-.155,2.378-.037,3.566-.081.2-.008.3.052.283.268-.013.144-.011.29-.015.435-1.06,0-2.123-.058-3.178.01A6.794,6.794,0,0,0,17.822,40a6.975,6.975,0,0,0-2.356,3.941,5.414,5.414,0,0,0-.133,1.114c-.012,2.337.006,4.675-.018,7.012a.912.912,0,0,0,.473.926,2.71,2.71,0,0,0,1.02.452c.041.2-.106.32-.211.453a2.017,2.017,0,0,0-.441,1.289q0,4.8,0,9.6a1.97,1.97,0,0,0,.48,1.318,1.391,1.391,0,0,1,.267.394,1.351,1.351,0,0,0,1.322,1.007c.145.012.29.007.436.007H35.7a4.554,4.554,0,0,0,.522-.013,1.3,1.3,0,0,0,1.234-.993,1.292,1.292,0,0,1,.264-.4,2.01,2.01,0,0,0,.487-1.36q0-4.761,0-9.523a2.07,2.07,0,0,0-.469-1.368c-.1-.12-.225-.235-.185-.419" transform="translate(-9.749 -25.118)" fill="#121212"/>
        <path id="Trazado_130674" data-name="Trazado 130674" d="M96,100.369c.447-.013,1.015-.188,1.3.057s.082.817.083,1.246c0,2.116-.007,4.233-.012,6.349a1.056,1.056,0,0,1-1.467-.746,2.42,2.42,0,0,1-.048-.6q0-2.821,0-5.641a.868.868,0,0,1,.138-.66" transform="translate(-63.923 -66.884)" fill="#dc923c"/>
        <path id="Trazado_130675" data-name="Trazado 130675" d="M4.2,108.128q-.008-3.7-.019-7.393c0-.2.049-.287.265-.277.376.019.753.013,1.13.018a.682.682,0,0,1,.138.53c0,1.982.009,3.963,0,5.944a1.2,1.2,0,0,1-.939,1.284.6.6,0,0,1-.572-.106" transform="translate(-2.785 -66.991)" fill="#dc923c"/>
        <path id="Trazado_130676" data-name="Trazado 130676" d="M94.869,100.49c0,2.1.032,4.2-.02,6.3-.022.879.452,1.474,1.395,1.35a2.086,2.086,0,0,1-1.7,2.069c-.282.059-.381,0-.378-.312.015-1.437.007-2.875.007-4.313v-4.444c0-.688,0-.688.7-.652" transform="translate(-62.793 -67.005)" fill="#bc731c"/>
        <path id="Trazado_130677" data-name="Trazado 130677" d="M4.234,108.134c.873.134,1.414-.4,1.393-1.35-.047-2.1-.016-4.2-.017-6.3a.856.856,0,0,1,.086-.011c.614-.018.614-.018.614.576q0,4.356,0,8.714c0,.538,0,.539-.538.39a2.043,2.043,0,0,1-1.538-2.017" transform="translate(-2.823 -66.996)" fill="#bc731c"/>
        <path id="Trazado_130678" data-name="Trazado 130678" d="M50.155,38.974c0-.16-.009-.32,0-.479.021-.285-.137-.715.064-.824.34-.184.79-.052,1.193-.058.152,0,.134.122.135.22,0,.784,0,1.568,0,2.352,0,.139-.035.226-.193.212a.588.588,0,0,0-.087,0c-1.115.055-1.115.055-1.115-1.031v-.392" transform="translate(-33.421 -25.056)" fill="#dc923c"/>
        <path id="Trazado_130679" data-name="Trazado 130679" d="M5.542,87.923c.029,0,.057-.008.086-.009.617-.018.617-.018.617.579,0,.636-.007,1.272,0,1.908,0,.224-.071.309-.3.3a12.263,12.263,0,0,0-1.3,0c-.392.03-.568-.089-.5-.5A1.936,1.936,0,0,0,4.167,90a.571.571,0,0,1,.184-.112,1.341,1.341,0,0,0,1.083-1.509.636.636,0,0,1,.108-.452" transform="translate(-2.759 -58.623)" fill="#0d0d0d"/>
        <path id="Trazado_130680" data-name="Trazado 130680" d="M96.24,89.965c0,.029.008.057.009.086.018.617.018.617-.579.617-.4,0-.81-.01-1.214,0-.229.008-.3-.078-.3-.3.01-.665.026-1.331,0-1.995-.019-.391.09-.569.5-.5a1.858,1.858,0,0,0,.216.013.7.7,0,0,1,.108.5,1.325,1.325,0,0,0,1.042,1.452.61.61,0,0,1,.225.126" transform="translate(-62.785 -58.592)" fill="#0d0d0d"/>
        <path id="Trazado_130681" data-name="Trazado 130681" d="M5.568,87.918c0,.574.1,1.164-.374,1.637a1.337,1.337,0,0,1-1,.436c0-.6,0-1.209-.016-1.814,0-.2.06-.284.27-.275.373.016.748.012,1.122.016" transform="translate(-2.785 -58.618)" fill="#303030"/>
        <path id="Trazado_130682" data-name="Trazado 130682" d="M97.657,89.884a1.363,1.363,0,0,1-1.381-1.42c0-.218,0-.435.005-.653.444-.008,1.006-.185,1.3.059s.068.812.088,1.238c.012.258-.006.518-.01.777" transform="translate(-64.202 -58.511)" fill="#303030"/>
        <path id="Trazado_130683" data-name="Trazado 130683" d="M19.6,97.223a2.579,2.579,0,0,1-.8-2.073q.04-4.464,0-8.928a2.583,2.583,0,0,1,.8-2.072,2.812,2.812,0,0,1,1.646-.443q8.768.017,17.537,0a2.671,2.671,0,0,1,1.558.442,2.572,2.572,0,0,1,.8,2.071q-.04,4.464,0,8.928a2.58,2.58,0,0,1-.8,2.073.842.842,0,0,1-.526.424,2.907,2.907,0,0,1-1.027.153H21.159a2.771,2.771,0,0,1-.985-.138,1,1,0,0,1-.574-.438" transform="translate(-12.539 -55.82)"/>
        <path id="Trazado_130684" data-name="Trazado 130684" d="M21.192,124.279a2.875,2.875,0,0,0,1.688.444q8.793-.019,17.586,0a2.511,2.511,0,0,0,1.469-.441,1.3,1.3,0,0,1-1.415,1.132c-1.191.007-2.382,0-3.573,0H22.7a1.363,1.363,0,0,1-1.506-1.133" transform="translate(-14.132 -82.876)" fill="#303030"/>
        <path id="Trazado_130685" data-name="Trazado 130685" d="M31.364,98.073c.037.7.037.7.769.7,3.32,0,6.641.006,9.961-.009.367,0,.454.1.449.456-.024,1.769-.018,3.538-.023,5.307a.846.846,0,0,1-.495.461,2.788,2.788,0,0,1-1.192.2q-8.06,0-16.121,0a2.787,2.787,0,0,1-1.192-.2.847.847,0,0,1-.495-.462c0-1.827,0-3.654-.019-5.48,0-.3.164-.272.358-.276s.361-.006.35.285c-.021.565-.01,1.131,0,1.7a.709.709,0,0,0,.8.809c.638.007,1.276.009,1.914,0a.7.7,0,0,0,.774-.788c.011-.9.011-1.8.016-2.7a1.937,1.937,0,0,1,1.345-.06.224.224,0,0,1,.119.171c.008.414.257.472.607.469s.607-.033.617-.457a.244.244,0,0,1,.113-.178,1.889,1.889,0,0,1,1.355.054" transform="translate(-15.342 -65.299)" fill="#c46532"/>
        <path id="Trazado_130686" data-name="Trazado 130686" d="M24.839,87.926c.551,0,1.1-.013,1.654-.013H42.436c.174,0,.348.009.522.013a1.564,1.564,0,0,1-1.116,2.179,3.98,3.98,0,0,1-.651.035H26.606a3.984,3.984,0,0,1-.651-.035,1.564,1.564,0,0,1-1.116-2.179" transform="translate(-16.467 -58.625)" fill="#f1a042"/>
        <path id="Trazado_130687" data-name="Trazado 130687" d="M23.71,87.954c0,.588-.1,1.194.406,1.668a1.373,1.373,0,0,0,.973.408q7.681,0,15.361,0a1.363,1.363,0,0,0,1.382-1.379c0-.232,0-.464,0-.7.5.078.692.279.7.761.009.537-.017,1.074.009,1.609.016.321-.071.417-.4.413-1.479-.019-2.958-.008-4.437-.008H32.129c-.732,0-.732,0-.769.7H30c-.035-.024-.079-.054-.081-.094-.026-.441-.309-.455-.671-.5-.506-.059-.51.328-.671.591H27.206c-.149-.552-.325-.7-.88-.7-.987,0-1.975-.011-2.961.006-.287,0-.373-.081-.363-.365.021-.551,0-1.1.008-1.655.007-.483.2-.684.7-.762" transform="translate(-15.339 -58.653)" fill="#bc731c"/>
        <path id="Trazado_130688" data-name="Trazado 130688" d="M23.046,117.741a2.433,2.433,0,0,0,1.607.529q8.14-.017,16.28,0a2.436,2.436,0,0,0,1.607-.529c0,.145.016.289.013.434a.7.7,0,0,1-.778.783c-.551.009-1.1,0-1.653,0H24.2c-1.053,0-1.209-.165-1.156-1.22" transform="translate(-15.362 -78.517)" fill="#af582a"/>
        <path id="Trazado_130689" data-name="Trazado 130689" d="M29.98,101.167c0,.1-.008.2,0,.3.024.25-.017.39-.335.39s-.4-.117-.368-.4a3.365,3.365,0,0,0,0-.648c-.028-.283.073-.373.359-.366.251.007.383.055.345.335a2.908,2.908,0,0,0,0,.389" transform="translate(-19.521 -66.981)" fill="#303030"/>
        <path id="Trazado_130690" data-name="Trazado 130690" d="M39.722,96.983c.037-.7.037-.7.755-.7.631,0,.631,0,.669.7-.037.7-.037.7-.755.7-.632,0-.632,0-.669-.7" transform="translate(-26.489 -64.208)"/>
      </g>
    </g>
  </g>
</svg>
