<svg xmlns="http://www.w3.org/2000/svg" xmlns:xlink="http://www.w3.org/1999/xlink" width="64.888" height="64.888" viewBox="0 0 64.888 64.888">
  <defs>
    <clipPath id="clip-path">
      <rect id="Rectángulo_38158" data-name="Rectángulo 38158" width="45.883" height="36.255" transform="translate(0 0)" fill="none"/>
    </clipPath>
  </defs>
  <g id="_87" data-name="87" transform="translate(0 -0.002)">
    <circle id="Elipse_4823" data-name="Elipse 4823" cx="32.444" cy="32.444" r="32.444" transform="translate(0 0.002)" fill="#ff9fa3"/>
    <g id="Grupo_159158" data-name="Grupo 159158" transform="translate(10 14.002)">
      <g id="Grupo_159158-2" data-name="Grupo 159158" transform="translate(0 0)" clip-path="url(#clip-path)">
        <path id="Trazado_137412" data-name="Trazado 137412" d="M20.968,49.928a5.453,5.453,0,0,0-1.639-3.353c-1.652-1.676-3.321-3.334-4.99-4.994a1.224,1.224,0,0,0-1.813-.075,1.238,1.238,0,0,0,.091,1.784c.725.741,1.469,1.465,2.2,2.2a2.313,2.313,0,0,1,.1,3.325,2.373,2.373,0,0,1-3.376-.064c-1.9-1.886-3.789-3.786-5.685-5.679a2.032,2.032,0,0,1-.629-1.449c-.005-.309,0-.62-.024-.928a.623.623,0,0,1,.436-.722h0a2.5,2.5,0,0,1,.072-.9.468.468,0,0,1-.518-.408c-.044-.318.185-.451.439-.549a2.391,2.391,0,0,1,.073-.906c-.388-.007-.551-.212-.542-.591.008-.34.008-.681-.007-1.021a1.407,1.407,0,0,0-1.395-1.387,1.379,1.379,0,0,0-1.371,1.4c.014,2.77.048,5.54.073,8.31a1.7,1.7,0,0,0,.611,1.2c3.11,3.105,6.209,6.223,9.332,9.315a1.545,1.545,0,0,1,.567,1.376,6.219,6.219,0,0,0,.009.88h8.07c-.005-2.258.131-4.519-.082-6.773m-6.99-6.88c-.413-.011-.931-.526-.914-.82a.469.469,0,0,1,.426-.467c.254-.037.874.591.869.856-.005.31-.189.432-.381.431M20.5,54.98c.006.349-.085.667-.461.673s-.478-.3-.475-.657c.009-1.238-.008-2.476.007-3.714a5.135,5.135,0,0,0-1.662-4.013c-.949-.887-1.844-1.831-2.763-2.751-.087-.087-.178-.173-.257-.268a.425.425,0,0,1-.006-.625.45.45,0,0,1,.664,0c.275.248.535.516.791.784,1,1.05,2.113,2,3.037,3.125a5.427,5.427,0,0,1,1.115,3.313c.033.679.006,1.361.007,2.042,0,.7-.008,1.393,0,2.089" transform="translate(-1.459 -20.912)" fill="#feb59e"/>
        <path id="Trazado_137413" data-name="Trazado 137413" d="M86.217,40.834c.022-1.734.042-3.468.051-5.2a1.348,1.348,0,0,0-.814-1.3,1.278,1.278,0,0,0-1.4.158,1.438,1.438,0,0,0-.561,1.215c-.016,1.873-.054,3.747-.053,5.62a2.516,2.516,0,0,1-.8,1.9c-1.831,1.8-3.643,3.628-5.455,5.451a2.394,2.394,0,0,1-2.457.707,2.276,2.276,0,0,1-.994-3.8c.736-.774,1.506-1.516,2.262-2.27a1.352,1.352,0,0,0,.451-.888,1.132,1.132,0,0,0-.62-1.153,1.158,1.158,0,0,0-1.309.1,2.849,2.849,0,0,0-.307.283c-1.567,1.565-3.125,3.138-4.7,4.693A6.119,6.119,0,0,0,67.6,50.837c-.009,1.95,0,3.9.006,5.852h8.071a.509.509,0,0,0,.014-.138A2.836,2.836,0,0,1,76.8,53.87c2.887-2.794,5.7-5.666,8.54-8.509a3.75,3.75,0,0,0,.7-.8.538.538,0,0,1,.606-.23h0l.019-.907a.476.476,0,0,1-.448-.453c-.014-.292.191-.434.449-.509a2.5,2.5,0,0,1,.071-.9c-.462-.035-.519-.348-.514-.724M74.653,55.016c-.293-.006-.46-.145-.452-.45s.44-.769.711-.738a.507.507,0,0,1,.474.482c.027.278-.436.706-.733.705M85.7,35.89c-.139,2.71-.048,5.293-.073,7.874a1.25,1.25,0,0,1-.4.905Q81,48.905,76.762,53.138a1.233,1.233,0,0,1-.332.246.426.426,0,0,1-.55-.088.414.414,0,0,1-.014-.553,4.889,4.889,0,0,1,.448-.529Q80.3,48.223,84.3,44.242a1.275,1.275,0,0,0,.414-1.014c-.023-1.748.009-3.5-.013-5.245-.009-.774.1-1.541.089-2.312,0-.276.061-.5.38-.535.337-.035.465.2.533.469a.8.8,0,0,1,.006.285" transform="translate(-41.316 -20.901)" fill="#feb59e"/>
        <path id="Trazado_137414" data-name="Trazado 137414" d="M36.5,16.27q1.793-1.787,3.581-3.58c.476-.476.659-.475,1.146.012q1.791,1.789,3.579,3.582a1.55,1.55,0,0,0,1.291.509,1.313,1.313,0,0,0,1.185-.9,1.4,1.4,0,0,0-.329-1.543q-1.569-1.584-3.154-3.153a.89.89,0,0,1-.293-.694c.012-1.115.014-2.23,0-3.344,0-.284.068-.365.358-.361,1.068.018,2.137.019,3.205,0a1.4,1.4,0,0,0,1.362-1.375A1.418,1.418,0,0,0,47.113,4c-.293-.021-.588-.012-.882-.012H42.3a4.2,4.2,0,0,0,.232-2.274,1.869,1.869,0,0,0-2-1.716A1.9,1.9,0,0,0,38.7,1.866a4.15,4.15,0,0,0,.243,2.1H31.632A3.977,3.977,0,0,0,31.864,1.7,1.875,1.875,0,0,0,29.84,0a1.911,1.911,0,0,0-1.811,1.884,4.131,4.131,0,0,0,.251,2.091H20.962A3.93,3.93,0,0,0,21.219,2a1.928,1.928,0,1,0-3.854-.048,3.982,3.982,0,0,0,.26,2.039c-1.569,0-3.081,0-4.594,0a1.411,1.411,0,1,0,0,2.809c1.007,0,2.013.013,3.02-.006.288-.005.364.073.36.359q-.026,1.672,0,3.345a.985.985,0,0,1-.325.775c-1.015,1-2.017,2.013-3.027,3.018a1.54,1.54,0,0,0-.48.827,1.439,1.439,0,0,0,2.445,1.288c1.256-1.241,2.5-2.494,3.749-3.741.439-.439.648-.441,1.083-.008Q21.68,14.478,23.5,16.3a1.464,1.464,0,0,0,2.31-.013q1.81-1.8,3.615-3.612c.46-.459.65-.459,1.115.005q1.792,1.789,3.581,3.581a1.482,1.482,0,0,0,2.379.008M39.628,1.9a.982.982,0,0,1,.938-.963.945.945,0,0,1,1.038.893,6.968,6.968,0,0,1,0,1.248.982.982,0,0,1-.991.912,1.016,1.016,0,0,1-.986-.978c-.013-.184,0-.37,0-.556s-.01-.371,0-.556m-10.65-.128a.992.992,0,0,1,1.961,0,4.479,4.479,0,0,1,.006.693h.032a5.515,5.515,0,0,1-.044.692,1,1,0,0,1-.976.83.986.986,0,0,1-.974-.832,4.758,4.758,0,0,1-.005-1.386m-10.664.046a.942.942,0,0,1,1-.883.983.983,0,0,1,.97.931c.017.2,0,.4,0,.6h0a5.751,5.751,0,0,1,0,.6,1.012,1.012,0,0,1-.993.919.97.97,0,0,1-.973-.878,7.012,7.012,0,0,1,0-1.293m12.875,10.2a1.49,1.49,0,0,0-2.413.005q-1.791,1.789-3.581,3.578c-.445.444-.639.444-1.081,0q-1.777-1.77-3.549-3.544a1.506,1.506,0,0,0-2.479-.016q-1.792,1.789-3.579,3.58c-.266.267-.555.463-.874.14s-.118-.612.148-.876c1-.992,1.988-2,2.994-2.983a1.768,1.768,0,0,0,.564-1.364c-.017-1.316,0-2.632-.006-3.948,0-.594-.116-.711-.7-.712-1.177,0-2.354-.006-3.53,0-.367,0-.688-.077-.675-.5.012-.4.33-.456.674-.455q8.453.006,16.907,0H46.638c.372,0,.792-.059.855.468.04.336-.238.484-.835.484-1.13,0-2.26,0-3.39,0-.56,0-.68.121-.682.681,0,1.316.01,2.632-.006,3.948a1.77,1.77,0,0,0,.576,1.359c1.029,1.007,2.038,2.034,3.058,3.05.252.251.365.531.093.809s-.564.163-.817-.073c-.079-.074-.154-.153-.231-.229q-1.674-1.675-3.349-3.35A1.507,1.507,0,0,0,39.4,12.06l-3.35,3.35c-.713.713-.75.713-1.479-.016q-1.691-1.691-3.383-3.383" transform="translate(-7.019 0)"/>
        <path id="Trazado_137415" data-name="Trazado 137415" d="M66,54.678c0-1.827-.027-3.654.005-5.48a5.915,5.915,0,0,1,1.733-4.142c1.622-1.661,3.277-3.291,4.923-4.93a1.432,1.432,0,0,1,1-.521,1.249,1.249,0,0,1,1.229.59,1.374,1.374,0,0,1-.058,1.5,3.007,3.007,0,0,1-.431.486c-.676.681-1.379,1.337-2.029,2.043a2.124,2.124,0,0,0,.641,3.485,2.07,2.07,0,0,0,2.377-.381q2.994-2.95,5.946-5.943A1.759,1.759,0,0,0,81.8,40.2c.144-1.948.059-3.9.084-5.847a1.659,1.659,0,0,1,.553-1.327,1.348,1.348,0,0,1,1.423-.3,1.451,1.451,0,0,1,1.031,1.313,42.745,42.745,0,0,1-.016,4.408c-.011.17-.031.339-.046.508a1.23,1.23,0,0,0,.421,1.163c.34-.073.417-.313.419-.622.013-1.781.035-3.562.049-5.342a2.249,2.249,0,0,0-.31-1.15,2.313,2.313,0,0,0-4.318,1.161q-.044,2.88-.06,5.76a1.538,1.538,0,0,1-.475,1.158c-1.847,1.831-3.68,3.678-5.523,5.514a1.463,1.463,0,0,1-2.111.113,1.4,1.4,0,0,1,.142-2.059c.72-.725,1.449-1.441,2.166-2.17a2.157,2.157,0,0,0,.05-3.114,2.131,2.131,0,0,0-3.072.081c-1.626,1.616-3.238,3.245-4.867,4.857a7.049,7.049,0,0,0-2.152,5.119c-.021,1.889-.007,3.778-.014,5.667,0,.286.039.546.362.612.349.072.5-.163.589-.454-.166-.162-.126-.374-.126-.57" transform="translate(-39.835 -19.46)"/>
        <path id="Trazado_137416" data-name="Trazado 137416" d="M67.4,50.649a6.118,6.118,0,0,1,1.919-4.479c1.576-1.555,3.135-3.129,4.7-4.694a2.885,2.885,0,0,1,.307-.283,1.158,1.158,0,0,1,1.309-.1,1.132,1.132,0,0,1,.621,1.153,1.35,1.35,0,0,1-.451.888c-.757.755-1.526,1.5-2.262,2.271a2.276,2.276,0,0,0,.994,3.8,2.4,2.4,0,0,0,2.457-.708c1.812-1.823,3.624-3.647,5.455-5.451a2.513,2.513,0,0,0,.8-1.9c0-1.873.037-3.747.053-5.62a1.437,1.437,0,0,1,.561-1.215,1.278,1.278,0,0,1,1.4-.159,1.348,1.348,0,0,1,.814,1.3q-.014,2.6-.051,5.2c0,.376.052.689.514.724a1.23,1.23,0,0,1-.421-1.163c.014-.17.035-.339.046-.508a42.753,42.753,0,0,0,.016-4.408,1.451,1.451,0,0,0-1.031-1.313,1.348,1.348,0,0,0-1.423.3,1.659,1.659,0,0,0-.553,1.327c-.024,1.949.06,3.9-.084,5.847a1.76,1.76,0,0,1-.467,1.176q-2.959,2.985-5.946,5.943a2.07,2.07,0,0,1-2.377.381,2.124,2.124,0,0,1-.641-3.485c.65-.706,1.353-1.362,2.029-2.043a3.006,3.006,0,0,0,.431-.486,1.374,1.374,0,0,0,.058-1.5,1.249,1.249,0,0,0-1.229-.59,1.434,1.434,0,0,0-1,.521c-1.645,1.639-3.3,3.269-4.923,4.93a5.915,5.915,0,0,0-1.733,4.142c-.032,1.826-.009,3.653-.005,5.48,0,.2-.04.408.126.57,0-1.95-.015-3.9-.006-5.851" transform="translate(-41.113 -20.713)"/>
        <path id="Trazado_137417" data-name="Trazado 137417" d="M26.562,59.655a6.548,6.548,0,0,0-1.854-4.53c-1.723-1.779-3.488-3.519-5.25-5.26a2,2,0,0,0-2.146-.487,2.132,2.132,0,0,0-.845,3.54c.771.8,1.58,1.573,2.356,2.373a1.362,1.362,0,0,1-1.306,2.286,1.667,1.667,0,0,1-.819-.5c-1.628-1.635-3.23-3.3-4.906-4.882a2.753,2.753,0,0,1-1.075-2.5.546.546,0,0,0-.492-.663,2.6,2.6,0,0,0,.288,2.952c1.92,1.935,3.867,3.842,5.773,5.791a2.334,2.334,0,0,0,3.083.063,2.17,2.17,0,0,0,.044-3.1c-.683-.738-1.417-1.43-2.129-2.142a2.1,2.1,0,0,1-.491-.669,1.381,1.381,0,0,1,.338-1.532,1.428,1.428,0,0,1,1.649-.042,4,4,0,0,1,.481.437l4.6,4.6a6.239,6.239,0,0,1,1.9,4.59c0,1.719,0,3.438,0,5.157,0,.21.055.439-.122.617.089.292.241.526.59.454.323-.066.363-.327.361-.612-.009-1.982.02-3.964-.026-5.945" transform="translate(-6.047 -29.971)"/>
        <path id="Trazado_137418" data-name="Trazado 137418" d="M25.589,65.142c.005-1.719,0-3.438,0-5.157a6.239,6.239,0,0,0-1.9-4.59l-4.6-4.6a3.909,3.909,0,0,0-.481-.437,1.426,1.426,0,0,0-1.648.041,1.381,1.381,0,0,0-.338,1.532,2.1,2.1,0,0,0,.492.669c.711.713,1.445,1.4,2.129,2.142a2.17,2.17,0,0,1-.044,3.1,2.334,2.334,0,0,1-3.083-.063c-1.905-1.949-3.853-3.856-5.773-5.792a2.6,2.6,0,0,1-.288-2.952.623.623,0,0,0-.437.722c.021.309.019.619.024.928a2.029,2.029,0,0,0,.63,1.449c1.895,1.893,3.782,3.794,5.684,5.68a2.373,2.373,0,0,0,3.376.063,2.313,2.313,0,0,0-.1-3.325c-.728-.739-1.471-1.463-2.2-2.2a1.238,1.238,0,0,1-.091-1.784,1.224,1.224,0,0,1,1.813.075c1.669,1.66,3.338,3.318,4.99,4.994a5.454,5.454,0,0,1,1.639,3.353c.213,2.253.077,4.515.082,6.773.177-.178.121-.407.121-.617" transform="translate(-5.876 -29.971)"/>
        <path id="Trazado_137419" data-name="Trazado 137419" d="M11.394,54.378a1.519,1.519,0,0,0-.528-1.264c-3.116-3.168-6.231-6.337-9.39-9.462a1.855,1.855,0,0,1-.6-1.447c.068-2.6-.149-5.2-.091-7.8a1.781,1.781,0,0,1,.5-1.353,1.358,1.358,0,0,1,1.452-.363,1.565,1.565,0,0,1,1.065,1.3,3.077,3.077,0,0,1,.021.742,1,1,0,0,0,.419,1,.5.5,0,0,0,.39-.552c-.009-.386.007-.774-.017-1.16A2.235,2.235,0,0,0,3.8,32.363a2.187,2.187,0,0,0-2.428-.351A2.2,2.2,0,0,0,0,34.141c.007,2.661.06,5.322.06,7.983a2.967,2.967,0,0,0,.934,2.229c2.92,2.9,5.809,5.832,8.745,8.715a2.124,2.124,0,0,1,.841,1.993.47.47,0,0,0,.355.611c.344.072.507-.148.585-.451a1.026,1.026,0,0,1-.126-.843" transform="translate(0 -19.432)"/>
        <path id="Trazado_137420" data-name="Trazado 137420" d="M12.734,55.622a1.545,1.545,0,0,0-.567-1.376c-3.123-3.093-6.221-6.21-9.332-9.315a1.7,1.7,0,0,1-.611-1.2c-.026-2.77-.059-5.54-.074-8.31a1.379,1.379,0,0,1,1.371-1.4A1.407,1.407,0,0,1,4.916,35.4c.016.34.016.681.007,1.021-.009.379.154.584.542.591a1,1,0,0,1-.419-1.005,3.117,3.117,0,0,0-.021-.742,1.565,1.565,0,0,0-1.065-1.3,1.357,1.357,0,0,0-1.452.363,1.78,1.78,0,0,0-.5,1.353c-.058,2.6.159,5.2.091,7.8a1.854,1.854,0,0,0,.6,1.447c3.159,3.126,6.274,6.294,9.39,9.462a1.519,1.519,0,0,1,.528,1.264,1.026,1.026,0,0,0,.126.843,6.219,6.219,0,0,1-.009-.88" transform="translate(-1.222 -20.713)"/>
        <path id="Trazado_137421" data-name="Trazado 137421" d="M97.737,61.757c-.206.2-.388.439-.6.647q-4.079,4.079-8.165,8.151a1.414,1.414,0,0,0-.486,1.18c.019.293.111.618-.113.889.076.3.24.521.583.451.318-.065.377-.322.364-.609-.008-.17.018-.343-.005-.509a1.2,1.2,0,0,1,.448-1.082q4.574-4.536,9.118-9.1a4.57,4.57,0,0,0,.571-.667.542.542,0,0,0-.114-.842,6.259,6.259,0,0,0-1.606,1.494" transform="translate(-54.019 -36.834)"/>
        <path id="Trazado_137422" data-name="Trazado 137422" d="M98.69,60.477a3.77,3.77,0,0,1-.7.8c-2.84,2.843-5.653,5.715-8.54,8.509a2.835,2.835,0,0,0-1.11,2.682.5.5,0,0,1-.014.138c.224-.271.132-.6.113-.889a1.415,1.415,0,0,1,.486-1.18q4.1-4.06,8.165-8.151c.208-.208.389-.441.6-.647A6.266,6.266,0,0,1,99.3,60.247a.537.537,0,0,0-.606.23" transform="translate(-53.971 -36.819)"/>
        <path id="Trazado_137423" data-name="Trazado 137423" d="M116.18,56.417c.274-.042.463-.171.466-.475s-.208-.422-.465-.486c-.384.477-.384.477,0,.961" transform="translate(-70.837 -33.896)" fill="#070605"/>
        <path id="Trazado_137424" data-name="Trazado 137424" d="M115.479,55.964a.476.476,0,0,0,.448.453c-.384-.484-.384-.484,0-.962-.259.074-.463.217-.449.509" transform="translate(-70.584 -33.896)" fill="#070605"/>
        <path id="Trazado_137425" data-name="Trazado 137425" d="M10.211,45.083a.2.2,0,0,1,.115.131.465.465,0,0,0,.394-.485c0-.318-.262-.368-.473-.472a.384.384,0,0,1-.125.185c-.262.254-.241.469.089.641" transform="translate(-6.077 -27.051)" fill="#050403"/>
        <path id="Trazado_137426" data-name="Trazado 137426" d="M9.588,44.806a.468.468,0,0,0,.518.409.2.2,0,0,0-.115-.131c-.329-.173-.351-.387-.089-.641a.382.382,0,0,0,.125-.185c-.254.1-.482.231-.439.549" transform="translate(-5.857 -27.051)" fill="#050403"/>
        <path id="Trazado_137427" data-name="Trazado 137427" d="M39.921,65.418A5.43,5.43,0,0,0,38.806,62.1c-.925-1.126-2.033-2.075-3.037-3.125-.257-.268-.516-.535-.791-.784a.451.451,0,0,0-.665,0,.426.426,0,0,0,.006.625c.079.095.169.18.257.268.919.919,1.814,1.863,2.763,2.751A5.133,5.133,0,0,1,39,65.851c-.015,1.237,0,2.475-.006,3.713,0,.353.1.662.475.657s.468-.323.461-.673c-.012-.7,0-1.392,0-2.088,0-.681.026-1.363-.006-2.042" transform="translate(-20.891 -35.481)" fill="#fadfe1"/>
        <path id="Trazado_137428" data-name="Trazado 137428" d="M30.275,53.624a.468.468,0,0,0-.426.467c-.017.294.5.809.914.82.192,0,.376-.122.381-.431,0-.265-.615-.893-.869-.856" transform="translate(-18.245 -32.776)" fill="#fadfe0"/>
        <path id="Trazado_137429" data-name="Trazado 137429" d="M98.014,36.612c-.318.033-.382.259-.38.534.007.772-.1,1.538-.088,2.312.021,1.748-.011,3.5.012,5.246a1.274,1.274,0,0,1-.414,1.014q-4,3.973-7.981,7.972a4.819,4.819,0,0,0-.449.529.412.412,0,0,0,.014.552.426.426,0,0,0,.549.088,1.224,1.224,0,0,0,.332-.246q4.238-4.231,8.471-8.468a1.249,1.249,0,0,0,.4-.905c.025-2.581-.066-5.164.073-7.874a.81.81,0,0,0-.005-.285c-.068-.268-.2-.5-.533-.469" transform="translate(-54.165 -22.376)" fill="#fadfe1"/>
        <path id="Trazado_137430" data-name="Trazado 137430" d="M85.3,84.7c-.27-.032-.7.426-.711.738s.159.444.452.45.76-.427.733-.705A.508.508,0,0,0,85.3,84.7" transform="translate(-51.703 -51.767)" fill="#fadee0"/>
        <path id="Trazado_137431" data-name="Trazado 137431" d="M37.537,23.143l3.35-3.35A1.508,1.508,0,0,1,43.4,19.8l3.349,3.35c.077.077.151.156.231.229.253.237.544.352.817.073s.159-.557-.094-.808c-1.021-1.015-2.029-2.043-3.058-3.05a1.767,1.767,0,0,1-.576-1.359c.016-1.316,0-2.632.006-3.948,0-.56.121-.68.681-.681,1.13,0,2.261,0,3.391,0,.6,0,.875-.149.835-.484-.063-.528-.484-.468-.855-.468H31.5q-8.453,0-16.907,0c-.344,0-.662.057-.674.456-.013.426.308.506.675.5,1.177-.008,2.353,0,3.53,0,.582,0,.7.119.7.712,0,1.316-.011,2.632.006,3.948a1.769,1.769,0,0,1-.564,1.365c-1.006.986-1.994,1.991-2.994,2.983-.266.264-.465.554-.148.876s.608.127.873-.14q1.785-1.794,3.579-3.579a1.506,1.506,0,0,1,2.479.016q1.776,1.772,3.55,3.544c.442.44.636.439,1.081,0q1.793-1.787,3.581-3.577a1.489,1.489,0,0,1,2.413-.005q1.693,1.689,3.383,3.383c.729.729.766.729,1.479.016m-8.045-4.708a1.476,1.476,0,0,1-.456,1.079c-.82.82-1.637,1.643-2.461,2.459-.353.35-.534.346-.9-.012-.823-.816-1.638-1.642-2.462-2.458a1.622,1.622,0,0,1-.5-1.207c0-1.345,0-2.69,0-4.036,0-.5.156-.65.673-.652.912,0,1.825,0,2.737,0s1.825.005,2.737,0c.422,0,.627.175.626.609-.007,1.407,0,2.814,0,4.221m3.9-.132c.01-1.345,0-2.69,0-4.035,0-.515.143-.657.661-.659.912,0,1.825,0,2.737,0,.9,0,1.794,0,2.691,0,.523,0,.678.144.68.646.005,1.375,0,2.752,0,4.128a1.578,1.578,0,0,1-.489,1.162c-.811.807-1.617,1.62-2.43,2.425-.356.353-.538.351-.9,0-.823-.817-1.64-1.641-2.462-2.459a1.6,1.6,0,0,1-.5-1.2" transform="translate(-8.505 -7.733)" fill="#72c1e8"/>
        <path id="Trazado_137432" data-name="Trazado 137432" d="M29.984,5.45a1.012,1.012,0,0,0,.993-.919,5.752,5.752,0,0,0,0-.6h0c0-.2.015-.4,0-.6a.982.982,0,0,0-.97-.931.941.941,0,0,0-1,.883,6.978,6.978,0,0,0,0,1.293.97.97,0,0,0,.973.878" transform="translate(-17.714 -1.464)" fill="#fdb59e"/>
        <path id="Trazado_137433" data-name="Trazado 137433" d="M57.387,5.451a1,1,0,0,0,.976-.83,5.449,5.449,0,0,0,.044-.692h-.032a4.479,4.479,0,0,0-.006-.693.992.992,0,0,0-1.96,0,4.742,4.742,0,0,0,0,1.386.987.987,0,0,0,.974.832" transform="translate(-34.449 -1.464)" fill="#fdb59e"/>
        <path id="Trazado_137434" data-name="Trazado 137434" d="M83.869,4.473a1.015,1.015,0,0,0,.986.977.982.982,0,0,0,.991-.911,7.009,7.009,0,0,0,0-1.248A.946.946,0,0,0,84.807,2.4a.983.983,0,0,0-.938.964c-.012.185,0,.37,0,.556s-.01.372,0,.556" transform="translate(-51.259 -1.465)" fill="#fdb59e"/>
        <path id="Trazado_137435" data-name="Trazado 137435" d="M42.715,15.1c-.912.008-1.824,0-2.737,0s-1.825,0-2.737,0c-.517,0-.671.147-.673.652,0,1.345,0,2.69,0,4.036a1.624,1.624,0,0,0,.5,1.207c.824.816,1.639,1.641,2.462,2.458.361.358.542.362.9.012.824-.816,1.641-1.639,2.461-2.459a1.477,1.477,0,0,0,.456-1.079c0-1.407,0-2.814,0-4.222,0-.434-.2-.612-.626-.608m-.3,4.732a.751.751,0,0,1-.24.575c-.659.653-1.322,1.3-1.964,1.973-.2.207-.3.15-.472-.023q-.972-1-1.968-1.97a.851.851,0,0,1-.275-.657c.009-1.114.014-2.228,0-3.341,0-.283.068-.373.359-.365.711.022,1.423.007,2.135.007.7,0,1.393.01,2.089-.005.251-.006.346.05.343.325-.015,1.16-.01,2.321,0,3.481" transform="translate(-22.35 -9.232)"/>
        <path id="Trazado_137436" data-name="Trazado 137436" d="M67.871,23.471c.813-.8,1.619-1.617,2.429-2.425a1.577,1.577,0,0,0,.49-1.161c0-1.376,0-2.752,0-4.129,0-.5-.157-.644-.68-.646-.9,0-1.794,0-2.691,0-.912,0-1.825,0-2.737,0-.518,0-.66.143-.661.659,0,1.346.005,2.691,0,4.036a1.6,1.6,0,0,0,.5,1.2c.822.818,1.639,1.642,2.462,2.459.358.355.54.357.9,0m-2.7-3.114a.708.708,0,0,1-.229-.534c.006-1.161.009-2.322,0-3.482,0-.246.072-.313.313-.308.711.016,1.424.005,2.136.005s1.424.011,2.136-.006c.263-.006.342.071.339.337-.014,1.145-.01,2.291,0,3.436a.809.809,0,0,1-.253.62c-.66.653-1.318,1.308-1.965,1.974-.169.173-.27.17-.438,0-.669-.688-1.352-1.362-2.032-2.039" transform="translate(-39.128 -9.234)"/>
      </g>
    </g>
  </g>
</svg>
