<svg xmlns="http://www.w3.org/2000/svg" xmlns:xlink="http://www.w3.org/1999/xlink" width="64.888" height="64.888" viewBox="0 0 64.888 64.888">
  <defs>
    <clipPath id="clip-path">
      <rect id="Rectángulo_38159" data-name="Rectángulo 38159" width="45.264" height="45.257" fill="none"/>
    </clipPath>
  </defs>
  <g id="_88" data-name="88" transform="translate(0 -0.428)">
    <circle id="Elipse_4823" data-name="Elipse 4823" cx="32.444" cy="32.444" r="32.444" transform="translate(0 0.428)" fill="#ff9fa3"/>
    <g id="Grupo_159159" data-name="Grupo 159159" transform="translate(10 9.428)">
      <g id="Grupo_159159-2" data-name="Grupo 159159" clip-path="url(#clip-path)">
        <path id="Trazado_137437" data-name="Trazado 137437" d="M18.74,0c.173.069.345.138.517.208a3.005,3.005,0,0,1,1.764,3.507.46.46,0,0,0,.157.523,4.4,4.4,0,0,1,1.447,3.429,27.45,27.45,0,0,1-.077,3.662,4.2,4.2,0,0,1-1.759,2.852.9.9,0,0,0-.438.859c.031.794.009.8.78.794a5.367,5.367,0,0,1,5.122,3.05c.829,1.557,1.693,3.095,2.522,4.652a1.015,1.015,0,0,0,1.018.608c1.222-.021,2.445-.012,3.668-.005a2.646,2.646,0,1,1-.018,5.287c-1.547.007-3.093,0-4.64,0a4.555,4.555,0,0,1-4.238-2.455c-.1-.179-.206-.356-.312-.532a.421.421,0,0,0-.071-.068c-.085.121-.045.253-.045.374,0,1.679.007,3.359-.006,5.038a1.7,1.7,0,0,0,.829,1.55c1.573,1.035,3.144,2.075,4.7,3.14a2.7,2.7,0,0,1,1.229,2.746,2.747,2.747,0,0,1-2.032,2.369c-.574.182-1.159.327-1.741.486-.992.27-1.985.541-2.979.805a.49.49,0,0,0-.4.379,2.653,2.653,0,0,1-3.376,1.885c-2.922-.79-5.84-1.6-8.759-2.393q-2.04-.558-4.082-1.113a2.874,2.874,0,0,1-.845-5.249c1.545-1.024,3.082-2.061,4.628-3.083a1.594,1.594,0,0,0,.776-1.4q0-2.7,0-5.392c0-.04.017-.093-.1-.115l-.325.573a4.573,4.573,0,0,1-4.241,2.455q-2.1,0-4.2,0c-1.867,0-2.557-.473-3.208-2.2v-.884a2.621,2.621,0,0,1,2.827-2.329c1.163,0,2.327-.014,3.49.005a1.045,1.045,0,0,0,1.035-.6c.829-1.526,1.677-3.043,2.489-4.579A5.564,5.564,0,0,1,15.026,15.7c.227,0,.527.129.654-.2a1.192,1.192,0,0,0-.245-1.141,4.859,4.859,0,0,1-1.8-2.555,3.715,3.715,0,0,1-.145-1c.005-1.09.022-2.18,0-3.269a4.577,4.577,0,0,1,1.328-3.268.774.774,0,0,0,.219-.706A3.068,3.068,0,0,1,16.506.31a3.058,3.058,0,0,1,1-.31Z"/>
        <path id="Trazado_137438" data-name="Trazado 137438" d="M101.559,0c.646.173,1.313.244,1.954.446a9.89,9.89,0,0,1,6.873,9.951,9.812,9.812,0,0,1-19.511.75A9.845,9.845,0,0,1,98.911.154c.176-.03.384.005.527-.154Z" transform="translate(-65.14)"/>
        <path id="Trazado_137439" data-name="Trazado 137439" d="M17.44,75.695c-.006-.176-.018-.352-.018-.528q0-4.463,0-8.925a2,2,0,0,0-.059-.567.68.68,0,0,0-.77-.519.693.693,0,0,0-.667.649.438.438,0,0,0-.008.132,3.582,3.582,0,0,1-.76,2.59c-.384.609-.71,1.254-1.081,1.872a2.991,2.991,0,0,1-2.663,1.536c-1.591.021-3.181.01-4.772,0a1.147,1.147,0,1,1,.007-2.274c1.237,0,2.474-.01,3.711,0a2.3,2.3,0,0,0,2.183-1.306c.865-1.589,1.748-3.168,2.592-4.768a3.893,3.893,0,0,1,3.757-2.23,2.95,2.95,0,0,0,.441,0c.335-.048.506.086.676.389a2.226,2.226,0,0,0,3.874-.02.605.605,0,0,1,.647-.373,7.8,7.8,0,0,1,1.625.119,3.8,3.8,0,0,1,2.5,1.952c.886,1.628,1.783,3.249,2.656,4.884a2.365,2.365,0,0,0,2.285,1.359c1.208-.016,2.415-.006,3.623,0a1.148,1.148,0,0,1,1.3,1.122c.008.707-.494,1.151-1.32,1.153-1.561,0-3.122.011-4.683,0a3.005,3.005,0,0,1-2.732-1.57c-.563-.966-1.107-1.943-1.668-2.909a1.056,1.056,0,0,1-.148-.586c.01-.339.016-.678,0-1.016a.734.734,0,0,0-.71-.707.753.753,0,0,0-.783.684,3,3,0,0,0-.005.353c0,2.739-.009,5.479.01,8.218,0,.423-.069.57-.539.563-2.032-.031-4.065-.015-6.1-.012-.583,0-.782.166-.919.732a2.152,2.152,0,0,1-1.477.007" transform="translate(-3.834 -44.02)" fill="#febb73"/>
        <path id="Trazado_137440" data-name="Trazado 137440" d="M30.873,112.121l1.477-.008c.118.58.343.774.933.774,2.062,0,4.123.007,6.185,0,.315,0,.485.032.572.4a2.81,2.81,0,0,0,1.267,1.691q2.331,1.558,4.662,3.115a1.328,1.328,0,0,1,.547,1.826,1.235,1.235,0,0,1-.793.657c-1.541.429-3.086.846-4.628,1.272-.137.038-.248.081-.33-.087a3.128,3.128,0,0,0-2.35-1.533c-.042-.01-.083-.023-.164-.045a2.1,2.1,0,0,1,.817-.3c.546-.172,1.1-.307,1.652-.472.528-.159.782-.55.656-.976a.8.8,0,0,0-1.083-.473c-1.019.281-2.035.575-3.051.867-.48.137-.96.273-1.437.422a1.483,1.483,0,0,1-.9-.009c-1.463-.436-2.932-.852-4.4-1.268-.715-.2-1.2.13-1.138.764.04.4.321.572.665.671q2.052.591,4.107,1.176c1.5.427,2.995.847,4.49,1.277a1.182,1.182,0,0,1,.9,1.482,1.149,1.149,0,0,1-1.5.785q-5.781-1.564-11.559-3.142c-.4-.108-.791-.224-1.191-.318a1.394,1.394,0,0,1-.447-2.627c1.439-.946,2.849-1.936,4.308-2.848a3.418,3.418,0,0,0,1.731-3.069" transform="translate(-17.266 -80.446)" fill="#427dc3"/>
        <path id="Trazado_137441" data-name="Trazado 137441" d="M53.46,32.81c0-.118.009-.237,0-.353-.026-.274.072-.4.367-.41a6.747,6.747,0,0,0,3.026-.857.461.461,0,0,1,.591.033,4.133,4.133,0,0,0,1.752.8c.143.031.265.033.294.244a3.213,3.213,0,0,1-1.7,3.317,3,3,0,0,1-4.325-2.77" transform="translate(-38.355 -22.315)" fill="#ac7868"/>
        <path id="Trazado_137442" data-name="Trazado 137442" d="M53.5,19.025a2.976,2.976,0,0,1,2.374-2.93,3.024,3.024,0,0,1,3.3,1.608,3.544,3.544,0,0,1,.341,1.748c0,.246-.095.255-.3.194a2.859,2.859,0,0,1-1.151-.706,1.144,1.144,0,0,0-1.59-.1,4.153,4.153,0,0,1-1.972.791c-.071.016-.147.007-.219.021-.791.151-.791.151-.787-.629" transform="translate(-38.385 -11.502)" fill="#774b43"/>
        <path id="Trazado_137443" data-name="Trazado 137443" d="M60.3,5.321a1.552,1.552,0,0,1,1.516,1.425c.008.228-.062.327-.311.26a4.129,4.129,0,0,0-2.461.017c-.2.068-.218-.024-.235-.184A1.5,1.5,0,0,1,60.3,5.321" transform="translate(-42.196 -3.818)" fill="#5b3c38"/>
        <path id="Trazado_137444" data-name="Trazado 137444" d="M62.851,54.147c0,.206.006.412,0,.618a.694.694,0,0,1-.69.752.762.762,0,0,1-.8-.664c-.036-.468-.009-.941-.014-1.412,0-.217.132-.233.294-.214a3.559,3.559,0,0,0,.522.064c.688-.022.688-.028.688.678v.177Z" transform="translate(-44.016 -38.189)" fill="#956155"/>
        <path id="Trazado_137445" data-name="Trazado 137445" d="M103.647,5.548c.167-.036.2.092.193.263a3.554,3.554,0,0,0,.017.529.69.69,0,0,0,.673.641.711.711,0,0,0,.779-.57,1.66,1.66,0,0,0,.039-.349c.017-.564.016-.568.558-.471a9.214,9.214,0,0,1,1.9.552c.2.083.246.166.121.35a2.792,2.792,0,0,0-.256.462.746.746,0,0,0,1.267.764,1.5,1.5,0,0,0,.1-.146c.367-.567.369-.569.877-.136a9.145,9.145,0,0,1,1.279,1.341c.131.168.138.268-.071.364a2.414,2.414,0,0,0-.454.27.734.734,0,0,0-.2.984.749.749,0,0,0,.96.3c.041-.017.078-.04.118-.06.6-.3.6-.3.839.358a8.034,8.034,0,0,1,.427,1.752c.027.212-.032.294-.251.284a2.308,2.308,0,0,0-.571.031.7.7,0,0,0-.6.753.715.715,0,0,0,.654.71l.044.006c.778.09.778.09.632.872a9.438,9.438,0,0,1-.451,1.519c-.092.251-.192.381-.454.169a1.641,1.641,0,0,0-.387-.209.731.731,0,0,0-.955.3.743.743,0,0,0,.2.985c.012.009.025.016.036.025.19.152.574.2.562.421s-.279.43-.45.63a10.65,10.65,0,0,1-1.148,1.1c-.257.222-.385.171-.5-.115a1.536,1.536,0,0,0-.2-.341.742.742,0,0,0-.982-.218.764.764,0,0,0-.3,1c.094.224.408.461.284.638-.136.193-.477.254-.738.347a9.317,9.317,0,0,1-1.5.362c-.261.046-.421.011-.386-.319a1.542,1.542,0,0,0-.048-.567.677.677,0,0,0-.763-.528.69.69,0,0,0-.68.634c0,.029-.007.058-.009.088-.065.745-.064.744-.806.614a8.963,8.963,0,0,1-1.6-.472c-.236-.089-.351-.183-.156-.429a1.708,1.708,0,0,0,.229-.426.723.723,0,0,0-.3-.917.738.738,0,0,0-.959.157c-.019.022-.035.047-.054.07-.156.188-.194.577-.42.565s-.428-.281-.63-.452a9.921,9.921,0,0,1-1.124-1.184c-.194-.229-.144-.337.1-.448a1.831,1.831,0,0,0,.411-.256.723.723,0,0,0,.15-.99.738.738,0,0,0-.932-.265c-.04.017-.079.038-.118.058-.6.307-.6.306-.827-.314a9.477,9.477,0,0,1-.436-1.706c-.045-.264-.005-.434.324-.387a1.636,1.636,0,0,0,.4-.006.717.717,0,0,0,.7-.713.732.732,0,0,0-.644-.768c-.029-.005-.059-.007-.087-.014-.229-.062-.565.138-.674-.117-.085-.2.028-.488.074-.733a9.491,9.491,0,0,1,.467-1.56c.1-.265.216-.31.44-.135a1.731,1.731,0,0,0,.385.212.747.747,0,0,0,.773-1.265,1.175,1.175,0,0,0-.108-.077c-.59-.405-.591-.406-.111-.965A9.783,9.783,0,0,1,99.548,7.2c.2-.165.316-.146.426.089a2.114,2.114,0,0,0,.276.45.727.727,0,0,0,.956.158.736.736,0,0,0,.305-.919c-.016-.041-.033-.082-.053-.121-.315-.649-.317-.651.381-.894a7.829,7.829,0,0,1,1.807-.415" transform="translate(-69.136 -3.977)" fill="#e3f1fe"/>
        <path id="Trazado_137446" data-name="Trazado 137446" d="M122.856,21.328c0-.588-.008-1.176,0-1.765.01-.514.281-.813.721-.826a.741.741,0,0,1,.781.818c.015.985.013,1.97,0,2.955a.544.544,0,0,0,.288.532c.522.327,1.033.674,1.541,1.024a.761.761,0,1,1-.847,1.245c-.688-.451-1.368-.913-2.057-1.363a.885.885,0,0,1-.432-.812c.009-.6,0-1.206,0-1.809" transform="translate(-88.152 -13.445)"/>
      </g>
    </g>
  </g>
</svg>
