<svg xmlns="http://www.w3.org/2000/svg" xmlns:xlink="http://www.w3.org/1999/xlink" width="64.888" height="64.888" viewBox="0 0 64.888 64.888">
  <defs>
    <clipPath id="clip-path">
      <rect id="Rectángulo_38160" data-name="Rectángulo 38160" width="43.216" height="37.413" fill="none"/>
    </clipPath>
  </defs>
  <g id="_89" data-name="89" transform="translate(0 -0.002)">
    <circle id="Elipse_4823" data-name="Elipse 4823" cx="32.444" cy="32.444" r="32.444" transform="translate(0 0.002)" fill="#ff9fa3"/>
    <g id="Grupo_159160" data-name="Grupo 159160" transform="translate(11 14.002)">
      <g id="Grupo_159160-2" data-name="Grupo 159160" transform="translate(0 0)" clip-path="url(#clip-path)">
        <path id="Trazado_137447" data-name="Trazado 137447" d="M43.216,27.91a4.338,4.338,0,0,0-.247,1.122A10.711,10.711,0,0,1,40.9,33.4c-.307.387-.5.427-.986.218-.346-.156-.36-.436-.256-.741a2.522,2.522,0,0,1,.394-.646,9.192,9.192,0,0,0-.261-11.246,8.984,8.984,0,0,0-6.11-3.4,9.155,9.155,0,0,0-9.768,5.969,8.928,8.928,0,0,0,2.11,9.735A8.815,8.815,0,0,0,31.895,36a9.157,9.157,0,0,0,5.874-1.55,1.852,1.852,0,0,1,.438-.252c.324-.1.616-.088.783.273.191.5.133.707-.289,1.007a10.6,10.6,0,0,1-12.808-.438,1.435,1.435,0,0,0-.984-.353c-7.2.011-14.4,0-21.6.014a3.068,3.068,0,0,1-3-1.7A2.994,2.994,0,0,1,0,31.6Q0,20.846,0,10.087a.739.739,0,0,1,.646-.838.633.633,0,0,1,.734.661,9.517,9.517,0,0,1,.014,1.1c0,.282.106.422.4.407.112-.007.225,0,.338,0h34.3c.833,0,.833,0,.833-.833,0-1,0-2,0-3a3.432,3.432,0,0,0-.139-1,1.487,1.487,0,0,0-1.364-1.075c-.323-.017-.647,0-.97-.005-.288-.005-.4.13-.4.411.005.337.005.675,0,1.013a2.627,2.627,0,0,1-5.215.422,6.185,6.185,0,0,1-.1-1.385c.013-.31-.091-.47-.431-.464-.7.012-1.407.01-2.109,0-.31,0-.425.127-.42.43a6.812,6.812,0,0,1-.064,1.3,2.681,2.681,0,0,1-2.662,2.3,2.709,2.709,0,0,1-2.579-2.592c-.022-.351-.009-.7-.008-1.055,0-.265-.116-.383-.381-.383q-1.14,0-2.278,0c-.267,0-.383.117-.38.382q0,.528,0,1.055a2.61,2.61,0,0,1-2.582,2.588A2.642,2.642,0,0,1,12.541,7c-.011-.351-.008-.7,0-1.055.005-.294-.1-.442-.418-.439-.745.007-1.491,0-2.237,0-.262,0-.387.109-.386.377,0,.351,0,.7,0,1.055A2.624,2.624,0,0,1,6.984,9.517,2.594,2.594,0,0,1,4.268,7.254,9.869,9.869,0,0,1,4.182,5.91c.007-.281-.114-.416-.4-.407-.253.007-.506,0-.759,0A1.537,1.537,0,0,0,1.405,7a2.62,2.62,0,0,1-.062.543.6.6,0,0,1-.72.466A.686.686,0,0,1,0,7.244,2.984,2.984,0,0,1,2.849,4.1,6.6,6.6,0,0,1,3.86,4.086c.371.029.526-.064.5-.473a8.47,8.47,0,0,1,.028-1.347A2.5,2.5,0,0,1,6.885,0,2.522,2.522,0,0,1,9.359,2.3a14.724,14.724,0,0,1,.011,1.476c-.008.247.079.307.312.3.886-.011,1.773-.016,2.659,0,.28.005.324-.1.316-.347-.015-.436-.014-.872,0-1.308a2.5,2.5,0,0,1,4.99-.083c.032.462.029.928.019,1.392-.005.242.045.351.321.346q1.328-.025,2.658,0c.257,0,.3-.1.294-.319-.014-.379-.01-.759,0-1.139a2.521,2.521,0,1,1,5.04-.054c.016.407.013.816,0,1.224-.008.22.062.291.285.288.886-.011,1.772-.016,2.658,0,.28.005.322-.105.319-.347a14.681,14.681,0,0,1,.037-1.474A2.493,2.493,0,0,1,31.781,0a2.525,2.525,0,0,1,2.478,2.346c.029.476.025.957.008,1.434-.009.248.081.305.312.3a6.7,6.7,0,0,1,1.722.079,3,3,0,0,1,2.32,3.188q0,5.105-.006,10.211a.8.8,0,0,0,.347.74,10.464,10.464,0,0,1,3.879,5.708c.165.585.252,1.193.375,1.79Z" transform="translate(0 0)"/>
        <path id="Trazado_137448" data-name="Trazado 137448" d="M1.036,11.541c.5-.123.629-.283.645-.783a1.737,1.737,0,0,1,1.94-1.879c1.13-.008,1.142-.008,1.128,1.135a2.649,2.649,0,0,0,1.384,2.637,2.5,2.5,0,0,0,3.644-2.066c.026-.463.02-.928.007-1.392-.006-.233.06-.321.306-.318.886.013,1.772.014,2.658,0,.276,0,.329.109.321.35-.014.422-.013.845,0,1.266a2.5,2.5,0,0,0,4.993.081c.028-.448.025-.9.014-1.349-.006-.245.056-.352.327-.348.886.014,1.772.011,2.659,0,.217,0,.3.064.291.287-.013.436-.019.873,0,1.307a2.508,2.508,0,0,0,4.928.619,6.237,6.237,0,0,0,.1-1.8c-.007-.294.046-.425.384-.415.815.026,1.632.022,2.447,0,.32-.008.449.067.433.415a8.833,8.833,0,0,0,.032,1.432,2.5,2.5,0,0,0,4.98-.082A13.406,13.406,0,0,0,34.679,9.2c-.01-.267.084-.342.338-.328.365.02.732,0,1.1.016a1.629,1.629,0,0,1,1.623,1.525c.1,1.149.028,2.3.036,3.457,0,.376.162.863-.069,1.1-.251.259-.745.083-1.132.083q-17.195.008-34.39.014c-.4,0-.558-.082-.507-.5.038-.305,0-.618.01-.927a.742.742,0,0,0-.625-.86q-.012-.621-.023-1.241" transform="translate(-0.413 -3.534)" fill="#ed534f"/>
        <path id="Trazado_137449" data-name="Trazado 137449" d="M54.34,45.987a.753.753,0,0,0-1.061,0,9.373,9.373,0,0,1-13.654-3.365,9.359,9.359,0,1,1,16.657-8.539,9.148,9.148,0,0,1-.911,9.9c-.408.572-.43.7-.11,1.155l-.922.852" transform="translate(-15.35 -11.521)" fill="#4fc1f7"/>
        <path id="Trazado_137450" data-name="Trazado 137450" d="M5.212,33.373c.913,0,1.827.009,2.74-.006.266,0,.367.057.365.345q-.018,2.7,0,5.395c0,.268-.088.324-.34.323q-2.781-.015-5.564,0c-.282,0-.314-.1-.313-.341q.013-2.7,0-5.4c0-.261.072-.332.331-.328.927.016,1.854.006,2.782.006" transform="translate(-0.836 -13.293)" fill="#cbcbcb"/>
        <path id="Trazado_137451" data-name="Trazado 137451" d="M17.593,39.424c-.913,0-1.827-.009-2.74.005-.252,0-.341-.056-.339-.323q.016-2.7,0-5.4c0-.289.1-.345.366-.344q2.761.015,5.522,0c.259,0,.331.068.33.328q-.016,2.7,0,5.4c0,.291-.1.343-.359.339-.927-.014-1.854-.005-2.782-.005" transform="translate(-5.782 -13.293)" fill="#cbcbcb"/>
        <path id="Trazado_137452" data-name="Trazado 137452" d="M5.195,27.283c-.913,0-1.827-.009-2.74.005-.262,0-.36-.047-.358-.339q.022-2.676,0-5.353c0-.279.078-.347.35-.345q2.761.018,5.523,0c.291,0,.347.1.345.359-.01,1.77-.013,3.541,0,5.311,0,.3-.1.374-.383.368-.913-.017-1.827-.006-2.74-.006" transform="translate(-0.835 -8.466)" fill="#cbcbcb"/>
        <path id="Trazado_137453" data-name="Trazado 137453" d="M17.646,27.283c-.928,0-1.855-.012-2.782.007-.289.006-.35-.093-.348-.36q.014-2.655,0-5.311c0-.247.025-.372.334-.369q2.782.024,5.565,0c.276,0,.318.092.315.336q-.014,2.677,0,5.353c0,.274-.068.355-.347.35-.913-.017-1.827-.007-2.739-.007" transform="translate(-5.783 -8.466)" fill="#cbcbcb"/>
        <path id="Trazado_137454" data-name="Trazado 137454" d="M30.061,27.283c-.942,0-1.884-.008-2.825.005-.241,0-.3-.069-.3-.306q.014-2.719,0-5.439c0-.259.1-.291.318-.29,1.855.008,3.71.013,5.566,0,.307,0,.336.12.335.369q-.011,2.656,0,5.312c0,.27-.064.364-.351.359-.913-.019-1.827-.007-2.74-.007" transform="translate(-10.729 -8.466)" fill="#cbcbcb"/>
        <path id="Trazado_137455" data-name="Trazado 137455" d="M17.625,51.565c-.914,0-1.827-.007-2.741,0-.251,0-.375-.033-.372-.338.014-1.8.011-3.6,0-5.4,0-.244.077-.305.312-.3q2.8.013,5.608,0c.25,0,.3.085.3.312-.008,1.8-.013,3.6,0,5.4,0,.307-.12.333-.367.33-.914-.011-1.827,0-2.741,0" transform="translate(-5.781 -18.139)" fill="#cbcbcb"/>
        <path id="Trazado_137456" data-name="Trazado 137456" d="M5.185,45.535c.927,0,1.855.011,2.781-.007.283-.005.352.081.35.353q-.016,2.655,0,5.31c0,.289-.072.384-.373.381-1.321-.016-2.641,0-3.962-.01a1.728,1.728,0,0,1-1.876-1.894c0-1.265.007-2.529-.008-3.793,0-.276.072-.353.348-.347.913.017,1.826.007,2.739.007" transform="translate(-0.836 -18.138)" fill="#cbcbcb"/>
        <path id="Trazado_137457" data-name="Trazado 137457" d="M32.594,51.544c-1.812.008-3.624.013-5.436.026-.2,0-.223-.1-.222-.257q.005-2.761,0-5.523c0-.2.063-.26.262-.258,1.208.014,2.416.016,3.624.023.224.355.115.764.174,1.145a12.665,12.665,0,0,0,1.474,4.309c.091.162.258.315.126.534" transform="translate(-10.73 -18.139)" fill="#c8c8c8"/>
        <path id="Trazado_137458" data-name="Trazado 137458" d="M26.966,39.36l.005-5.9c.116-.079.246-.042.369-.042q2.485,0,4.971,0c.459,0,.491.052.256.47a12.956,12.956,0,0,0-1.556,4.6c-.128.921-.141.919-1.064.919-.856,0-1.713,0-2.57,0a.723.723,0,0,1-.411-.041" transform="translate(-10.743 -13.309)" fill="#cbcbcb"/>
        <path id="Trazado_137459" data-name="Trazado 137459" d="M39.4,21.291a9.683,9.683,0,0,1,1.465-.032c1.457-.008,2.913,0,4.37-.008.248,0,.348.046.332.318-.028.489-.017.979-.022,1.469a5.022,5.022,0,0,1-1.345.455,13.322,13.322,0,0,0-4.376,2.622,1.455,1.455,0,0,1-.2.159c-.188.118-.275.082-.274-.156.007-1.585,0-3.171.007-4.756a.135.135,0,0,1,.039-.072" transform="translate(-15.678 -8.465)" fill="#cbcbcb"/>
        <path id="Trazado_137460" data-name="Trazado 137460" d="M36.907,5.543c0-.688,0-1.376,0-2.064a1.264,1.264,0,1,1,2.517-.008q.011,2.065,0,4.129a1.264,1.264,0,1,1-2.517.008c-.006-.688,0-1.376,0-2.064" transform="translate(-14.702 -0.834)" fill="#666"/>
        <path id="Trazado_137461" data-name="Trazado 137461" d="M11.812,5.553c0,.7.005,1.4,0,2.106a1.243,1.243,0,0,1-2.479.2A2.246,2.246,0,0,1,9.3,7.482c0-1.306-.01-2.612,0-3.918.009-1.013.71-1.623,1.582-1.4a1.2,1.2,0,0,1,.928,1.2c.01.73,0,1.46,0,2.19" transform="translate(-3.702 -0.844)" fill="#666"/>
        <path id="Trazado_137462" data-name="Trazado 137462" d="M53.195,5.57c0,.7.007,1.4,0,2.106a1.242,1.242,0,0,1-2.476.194,1.951,1.951,0,0,1-.038-.333c0-1.334-.007-2.668,0-4a1.319,1.319,0,0,1,.744-1.312,1.171,1.171,0,0,1,1.268.14,1.205,1.205,0,0,1,.5,1.016q0,1.1,0,2.19" transform="translate(-20.189 -0.836)" fill="#666"/>
        <path id="Trazado_137463" data-name="Trazado 137463" d="M25.613,5.535c0,.716.007,1.432,0,2.147a1.236,1.236,0,1,1-2.47,0q-.012-2.147,0-4.294a1.236,1.236,0,1,1,2.468,0c.01.715,0,1.431,0,2.147" transform="translate(-9.217 -0.833)" fill="#666"/>
        <path id="Trazado_137464" data-name="Trazado 137464" d="M39.392,21.32v5.008c.566-.451,1.065-.893,1.608-1.274a11.108,11.108,0,0,1,4.537-1.987c.005.561.005,1.122.019,1.683a.253.253,0,0,1-.222.291,10.679,10.679,0,0,0-4,2.151.443.443,0,0,1-.3.119c-.477,0-.955,0-1.432,0-.141,0-.242-.017-.244-.2-.009-1.92-.042-3.841.014-5.761,0-.01.019-.02.028-.03" transform="translate(-15.669 -8.494)" fill="#b6b6b6"/>
        <path id="Trazado_137465" data-name="Trazado 137465" d="M57.925,21.316c.119.1.059.236.059.353,0,1.22-.01,2.44,0,3.66,0,.322-.035.435-.383.271a10.3,10.3,0,0,0-5.442-.917c-.31.029-.424-.02-.4-.357.034-.5.017-1.008.022-1.512a4.5,4.5,0,0,1,2.146-.17,12.25,12.25,0,0,1,3.526.716c.272.1.355-.007.351-.267q-.008-.629,0-1.26a.676.676,0,0,1,.119-.516" transform="translate(-20.619 -8.492)" fill="#b6b6b6"/>
        <path id="Trazado_137466" data-name="Trazado 137466" d="M35.167,51.547c-.229-.461-.47-.917-.685-1.386a10.74,10.74,0,0,1-1.09-4.6c.534-.005,1.067-.008,1.6-.018.158,0,.252.014.269.215a10.564,10.564,0,0,0,2.194,5.69c.014.018.007.051.011.1Z" transform="translate(-13.303 -18.142)" fill="#bfbfbf"/>
        <path id="Trazado_137467" data-name="Trazado 137467" d="M26.966,39.337c1.165,0,2.331,0,3.5.006.259,0,.362-.058.379-.347a11.278,11.278,0,0,1,.949-3.844,8.05,8.05,0,0,1,.911-1.718h-5.73c.054-.131.17-.072.255-.072,1.84,0,3.68.007,5.52-.007.33,0,.432.085.424.422-.023.926-.007,1.854-.01,2.781a1.537,1.537,0,0,1-.029.376,14.144,14.144,0,0,0-.422,2.272c-.014.158-.071.214-.233.213q-2.7-.005-5.394,0c-.06,0-.109-.013-.117-.084" transform="translate(-10.743 -13.286)" fill="#b6b6b6"/>
        <path id="Trazado_137468" data-name="Trazado 137468" d="M57.931,21.292c0,.659-.01,1.319,0,1.979,0,.264,0,.375-.338.25a12.69,12.69,0,0,0-3.38-.753,17.046,17.046,0,0,0-2.423.021c0-.434-.006-.867-.016-1.3,0-.147.023-.232.2-.23,1.986.023,3.972-.038,5.957.034" transform="translate(-20.625 -8.468)" fill="#cbcbcb"/>
        <path id="Trazado_137469" data-name="Trazado 137469" d="M39.341,34.154c-.024-.824-.024-.824.565-.75a1.921,1.921,0,0,1-.565.75" transform="translate(-15.67 -13.296)" fill="#9a9a9a"/>
        <path id="Trazado_137470" data-name="Trazado 137470" d="M44,34.044c-.2-.531-.143-.714.339-1.066a7.863,7.863,0,1,1-2.089,2.277c.236-.4.458-.464.967-.3a.615.615,0,0,1,.253.895c-.183.455-.469.861-.618,1.336a6.322,6.322,0,0,0,1.428,6.57,6.257,6.257,0,0,0,2.6,1.67A6.456,6.456,0,1,0,49.657,32.9a6.329,6.329,0,0,0-4.449,1.148,1.332,1.332,0,0,1-.634.3A.5.5,0,0,1,44,34.044" transform="translate(-16.376 -12.541)"/>
        <path id="Trazado_137471" data-name="Trazado 137471" d="M47.674,46.552a6.15,6.15,0,0,1-3.75-3.219,6.348,6.348,0,0,1,.1-6.127c.215-.4.455-.8.022-1.21l.783-.914a.748.748,0,0,0,1.054-.017,5.507,5.507,0,0,1,1.965-.983c.006.217-.185.264-.316.354a7.124,7.124,0,0,0-.2,11.7c.148.106.376.163.351.421" transform="translate(-17.203 -13.577)" fill="#e4e4e4"/>
        <path id="Trazado_137472" data-name="Trazado 137472" d="M48.393,46.338c-.317-.25-.651-.48-.948-.751a7.255,7.255,0,0,1-1.873-8.3,6.915,6.915,0,0,1,2.837-3.28,1.032,1.032,0,0,0,.153-.138,6.567,6.567,0,1,1,2.8,12.785,5.563,5.563,0,0,1-2.973-.314" transform="translate(-17.921 -13.364)" fill="#fefefe"/>
        <path id="Trazado_137473" data-name="Trazado 137473" d="M56.189,43.009c-.759,0-1.518,0-2.277,0-.615,0-.833-.216-.835-.838q-.007-2.277,0-4.554c0-.535.238-.812.65-.8.39.008.606.26.609.747.006,1.265.013,2.53-.006,3.794,0,.312.068.4.392.4,1.208-.021,2.417-.009,3.626-.007a2.06,2.06,0,0,1,.418.028.581.581,0,0,1,.521.655.574.574,0,0,1-.611.572c-.829.011-1.659,0-2.488,0v0" transform="translate(-21.143 -14.666)"/>
      </g>
    </g>
  </g>
</svg>
