<svg xmlns="http://www.w3.org/2000/svg" xmlns:xlink="http://www.w3.org/1999/xlink" width="58.717" height="58.717" viewBox="0 0 58.717 58.717">
  <defs>
    <clipPath id="clip-path">
      <rect id="Rectángulo_38161" data-name="Rectángulo 38161" width="37.818" height="39.338" fill="none"/>
    </clipPath>
  </defs>
  <g id="_90" data-name="90" transform="translate(0.085 -0.433)">
    <circle id="Elipse_4823" data-name="Elipse 4823" cx="29.358" cy="29.358" r="29.358" transform="translate(-0.085 0.432)" fill="#ff9fa3"/>
    <g id="Grupo_159161" data-name="Grupo 159161" transform="translate(10.915 9.433)">
      <g id="Grupo_159161-2" data-name="Grupo 159161" transform="translate(0 0)" clip-path="url(#clip-path)">
        <path id="Trazado_137474" data-name="Trazado 137474" d="M35.388,23.1a.757.757,0,0,1,.889.612Q40.08,34.556,43.9,45.39c.114.324.182.631-.1.9a.76.76,0,0,1-.865.077q-6.211-2.193-12.426-4.375a.751.751,0,0,1-.595-.9.669.669,0,0,1,.963-.474c.669.242,1.364.415,2.012.71a.99.99,0,0,0,1.143-.17A9.455,9.455,0,0,1,38.189,39.2a6.117,6.117,0,0,1,1.611-.151c.257.021.343-.04.253-.306-.472-1.392-.993-2.765-1.452-4.161-.083-.25-.25-.3-.5-.288a16.149,16.149,0,0,0-7.319,2.447,21.926,21.926,0,0,0-2.683,1.906c-.248.206-.489.42-.729.648.157.186.378.166.555.248a.659.659,0,0,1,.374.986.735.735,0,0,1-1.023.317q-1.231-.452-2.477-.862a.763.763,0,0,1-.627-.919.625.625,0,0,1,.868-.484.954.954,0,0,0,1.1-.282,21.05,21.05,0,0,1,9.08-5.111,10.615,10.615,0,0,1,2.332-.369c.284-.007.394-.073.286-.386-.514-1.491-1.07-2.967-1.56-4.467a.4.4,0,0,0-.473-.318,22.908,22.908,0,0,0-16.288,8.43c-.285.354-.269.4.158.575.747.3,1.522.521,2.27.816a1.03,1.03,0,0,1,.664.536c.074.181.122.358-.08.494a.708.708,0,0,1-.981.334q-1.785-.634-3.575-1.257a1.986,1.986,0,0,1-.861-.748,5.99,5.99,0,0,1-1.051-4.834,15.481,15.481,0,0,1,4.364-8.312,16.72,16.72,0,0,1,7.668-4.9,7.41,7.41,0,0,1,5.467.242,2.683,2.683,0,0,1,1.588,1.462.724.724,0,0,1-.329.983c-.356.293-.633.072-.822-.192a3.961,3.961,0,0,0-3.884-1.455,12.209,12.209,0,0,0-6.754,3.136A16.982,16.982,0,0,0,17.732,30.7a6.205,6.205,0,0,0-.061,4.275c.038.1.081.2.125.3.095.212.208.194.337.029.277-.353.557-.7.856-1.038A24.091,24.091,0,0,1,33.84,26.307c.474-.072.949-.143,1.426-.172.263-.017.321-.1.229-.347-.2-.535-.373-1.082-.569-1.62a.718.718,0,0,1,.462-1.064" transform="translate(-6.184 -7.125)"/>
        <path id="Trazado_137475" data-name="Trazado 137475" d="M36.187,23.912a.753.753,0,0,0-.342,1.057c.226.573.417,1.161.627,1.741.072.2.1.32-.2.348a23.921,23.921,0,0,0-17.451,9.4.662.662,0,0,1-.11.078,4.646,4.646,0,0,1-.694-2.433,9.067,9.067,0,0,1,1.29-4.724,18.2,18.2,0,0,1,9.148-8.307,6.668,6.668,0,0,1,4.62-.339,4.741,4.741,0,0,1,1.358.685.769.769,0,0,1,.31.387.665.665,0,0,0,.872.473l.571,1.634" transform="translate(-6.984 -7.932)" fill="#fbad3f"/>
        <path id="Trazado_137476" data-name="Trazado 137476" d="M24.522,44.271A.693.693,0,0,0,24,43.383c-.86-.3-1.712-.625-2.58-.9-.416-.13-.372-.26-.142-.545a23.039,23.039,0,0,1,11.552-7.769,22.542,22.542,0,0,1,5.1-.9.33.33,0,0,1,.4.264q.837,2.406,1.688,4.806c.077.216.1.327-.2.348-4.307.3-7.869,2.261-11.08,5a3.24,3.24,0,0,0-.414.372c-.369.444-.746.72-1.366.394-.34-.178-.609.084-.794.381l-1.64-.566" transform="translate(-8.179 -12.899)" fill="#7f42df"/>
        <path id="Trazado_137477" data-name="Trazado 137477" d="M35.335,50.526c.083-.547-.06-.768-.577-.914-.2-.057-.4-.136-.641-.221a20.507,20.507,0,0,1,3.451-2.644,16.406,16.406,0,0,1,7.506-2.569c.412-.029.595.067.727.468.454,1.377.952,2.74,1.43,4.109a.828.828,0,0,1,.107.45,8.9,8.9,0,0,0-6.506,2.3.435.435,0,0,1-.5.085c-.781-.291-1.574-.548-2.354-.84a.737.737,0,0,0-1.02.343l-1.626-.568" transform="translate(-13.226 -17.124)" fill="#fbad3f"/>
        <path id="Trazado_137478" data-name="Trazado 137478" d="M1.947,13.105a2.118,2.118,0,0,0-.881-2.34,9.312,9.312,0,0,1-.844-.924A.645.645,0,0,1,.528,8.715C1.26,8.475,2,8.259,2.74,8.04a.748.748,0,0,0,.484-.384c.362-.663.74-1.318,1.125-1.969a.66.66,0,0,1,1.218-.069c.456.623.9,1.258,1.336,1.895a.623.623,0,0,0,.438.29c.728.135,1.451.3,2.176.453.746.159.925.626.471,1.244-.4.548-.8,1.1-1.23,1.628a1.031,1.031,0,0,0-.231.852c.089.69.162,1.382.239,2.073.075.658-.332,1-.961.794-.718-.235-1.432-.484-2.144-.737a.735.735,0,0,0-.612.031c-.667.318-1.347.612-2.026.906-.648.28-1.069.009-1.077-.686,0-.387,0-.774,0-1.256" transform="translate(0 -2.032)"/>
        <path id="Trazado_137479" data-name="Trazado 137479" d="M8.219,46.6a2.222,2.222,0,1,1-4.443-.007,2.186,2.186,0,0,1,2.23-2.231A2.164,2.164,0,0,1,8.219,46.6" transform="translate(-1.464 -17.197)"/>
        <path id="Trazado_137480" data-name="Trazado 137480" d="M44.662,13.954a2.312,2.312,0,0,1-2.232-2.271,2.354,2.354,0,0,1,2.279-2.241,2.322,2.322,0,0,1,2.235,2.227,2.351,2.351,0,0,1-2.282,2.285" transform="translate(-16.448 -3.66)"/>
        <path id="Trazado_137481" data-name="Trazado 137481" d="M40.687,1.869A1.931,1.931,0,0,1,38.81,3.683,1.9,1.9,0,0,1,37,1.813,1.932,1.932,0,0,1,38.93,0a1.89,1.89,0,0,1,1.757,1.868" transform="translate(-14.344 0)"/>
        <path id="Trazado_137482" data-name="Trazado 137482" d="M30.569,6.38a.637.637,0,0,1,.579.481c.5,1.762.991,3.525,1.471,5.293a.629.629,0,0,1-.451.8.618.618,0,0,1-.8-.453q-.757-2.665-1.475-5.34a.643.643,0,0,1,.672-.776" transform="translate(-11.582 -2.473)"/>
        <path id="Trazado_137483" data-name="Trazado 137483" d="M12.811,28.282a.652.652,0,0,1-.789.656,1.322,1.322,0,0,1-.3-.123q-2.238-1.16-4.475-2.321a.685.685,0,0,1-.456-.727.639.639,0,0,1,.953-.473c1.566.8,3.122,1.614,4.681,2.426a.664.664,0,0,1,.383.563" transform="translate(-2.631 -9.774)"/>
        <path id="Trazado_137484" data-name="Trazado 137484" d="M9.029,36.353c-.526,0-1.051.006-1.577,0-.461-.006-.745-.259-.744-.643a.648.648,0,0,1,.7-.648c1.113-.025,2.227-.034,3.341-.032a.6.6,0,0,1,.661.624.619.619,0,0,1-.666.668c-.571.015-1.144,0-1.716,0v.03" transform="translate(-2.6 -13.578)"/>
        <path id="Trazado_137485" data-name="Trazado 137485" d="M26.777,17.423a.64.64,0,0,1-.448.611.565.565,0,0,1-.7-.212c-.547-.911-1.083-1.829-1.59-2.764a.63.63,0,0,1,1.04-.668,26.826,26.826,0,0,1,1.664,2.875.532.532,0,0,1,.033.159" transform="translate(-9.292 -5.495)"/>
        <path id="Trazado_137486" data-name="Trazado 137486" d="M3.458,38.341A.657.657,0,0,1,4.1,38.7a.587.587,0,0,1-.072.69c-.334.361-.678.716-1.045,1.042a.576.576,0,0,1-.834-.026.558.558,0,0,1-.116-.789A7.834,7.834,0,0,1,3.2,38.439a.416.416,0,0,1,.257-.1" transform="translate(-0.744 -14.862)" fill="#010101"/>
        <path id="Trazado_137487" data-name="Trazado 137487" d="M3.011,29.878a.615.615,0,0,1,.445.166c.342.332.692.658,1.01,1.012a.588.588,0,0,1-.028.87.591.591,0,0,1-.871.032c-.356-.317-.685-.664-1.012-1.011a.572.572,0,0,1-.1-.683.658.658,0,0,1,.558-.387" transform="translate(-0.924 -11.582)" fill="#010101"/>
        <path id="Trazado_137488" data-name="Trazado 137488" d="M1.532,36.213c-.216-.012-.434-.007-.646-.039a.606.606,0,0,1-.564-.627.592.592,0,0,1,.59-.647,7.737,7.737,0,0,1,1.427.094.564.564,0,0,1,.467.65.607.607,0,0,1-.584.607,4.1,4.1,0,0,1-.691-.023v-.015" transform="translate(-0.125 -13.527)" fill="#010101"/>
        <path id="Trazado_137489" data-name="Trazado 137489" d="M24.122,5.728c.17,0,.34-.007.509,0a.6.6,0,0,1,.631.609.592.592,0,0,1-.568.668,6.244,6.244,0,0,1-1.247-.014.591.591,0,0,1-.563-.671.6.6,0,0,1,.636-.6c.2-.008.4,0,.6,0v.01" transform="translate(-8.87 -2.215)" fill="#010101"/>
        <path id="Trazado_137490" data-name="Trazado 137490" d="M22.176,8.8c0,.2.016.4,0,.6a.631.631,0,0,1-.678.609.6.6,0,0,1-.609-.625c-.017-.354-.013-.71,0-1.064a.649.649,0,1,1,1.3.017c.006.154,0,.308,0,.462h-.007" transform="translate(-8.092 -2.962)" fill="#010101"/>
        <path id="Trazado_137491" data-name="Trazado 137491" d="M22.207,3.166c0,.2.015.4,0,.6a.59.59,0,0,1-.618.566.573.573,0,0,1-.631-.5,3.861,3.861,0,0,1,.026-1.423.63.63,0,0,1,1.223.061,5.1,5.1,0,0,1,.006.691h0" transform="translate(-8.102 -0.759)" fill="#010101"/>
        <path id="Trazado_137492" data-name="Trazado 137492" d="M18.361,6.922c-.185,0-.37.012-.554,0a.586.586,0,0,1-.6-.584.581.581,0,0,1,.537-.685,5.937,5.937,0,0,1,1.29.017.577.577,0,0,1,.531.687.585.585,0,0,1-.605.576c-.2.013-.4,0-.6,0V6.922" transform="translate(-6.67 -2.18)" fill="#010101"/>
        <path id="Trazado_137493" data-name="Trazado 137493" d="M54.367,58.754l-7.286-2.565a7.321,7.321,0,0,1,5.362-1.646.645.645,0,0,1,.623.487c.4,1.216.841,2.418,1.3,3.724" transform="translate(-18.251 -21.122)" fill="#7f42df"/>
        <path id="Trazado_137494" data-name="Trazado 137494" d="M2.981,10.858c.577-.178,1.1-.351,1.634-.5a1.105,1.105,0,0,0,.726-.588c.258-.49.551-.962.847-1.473.358.508.7.982,1.031,1.467a.932.932,0,0,0,.633.418c.573.11,1.142.241,1.759.374-.349.469-.661.909-1,1.329a1.111,1.111,0,0,0-.266.939c.075.44.077.893.142,1.335.048.321-.053.336-.316.236-.431-.164-.878-.288-1.31-.451a1.024,1.024,0,0,0-.847.043c-.418.2-.851.363-1.263.573-.3.152-.338.044-.325-.228.021-.432,0-.866.033-1.3a1.172,1.172,0,0,0-.371-.953c-.375-.385-.724-.795-1.11-1.223" transform="translate(-1.156 -3.216)" fill="#fddf58"/>
        <path id="Trazado_137495" data-name="Trazado 137495" d="M6.856,48.331a.931.931,0,0,1-.926-.947.853.853,0,0,1,.9-.851.929.929,0,0,1,.922.95.838.838,0,0,1-.9.848" transform="translate(-2.299 -18.038)" fill="#f71e88"/>
        <path id="Trazado_137496" data-name="Trazado 137496" d="M46.448,12.584a.838.838,0,0,1-.874.876.911.911,0,0,1-.935-.936.837.837,0,0,1,.874-.874.909.909,0,0,1,.935.934" transform="translate(-17.304 -4.516)" fill="#f71e88"/>
        <path id="Trazado_137497" data-name="Trazado 137497" d="M39.171,2.666a.5.5,0,0,1,.55-.508.489.489,0,0,1,.489.517.481.481,0,0,1-.527.519.5.5,0,0,1-.512-.528" transform="translate(-15.185 -0.836)" fill="#f31d86"/>
      </g>
    </g>
  </g>
</svg>
