<svg xmlns="http://www.w3.org/2000/svg" xmlns:xlink="http://www.w3.org/1999/xlink" width="58.72" height="58.72" viewBox="0 0 58.72 58.72">
  <defs>
    <clipPath id="clip-path">
      <rect id="Rectángulo_38162" data-name="Rectángulo 38162" width="42.702" height="42.703" fill="none"/>
    </clipPath>
  </defs>
  <g id="_91" data-name="91" transform="translate(0 -0.003)">
    <circle id="Elipse_4823" data-name="Elipse 4823" cx="29.36" cy="29.36" r="29.36" transform="translate(0 0.002)" fill="#ff9fa3"/>
    <g id="Grupo_159162" data-name="Grupo 159162" transform="translate(8.009 8.012)">
      <g id="Grupo_159162-2" data-name="Grupo 159162" clip-path="url(#clip-path)">
        <path id="Trazado_137498" data-name="Trazado 137498" d="M21.6,0a1.758,1.758,0,0,1,.639.68c.437.756.886,1.505,1.341,2.251a3.6,3.6,0,0,0,5.04,1.36c.814-.445,1.619-.908,2.432-1.356.778-.429,1.378-.07,1.394.824.018,1.042.015,2.085.071,3.125a3.53,3.53,0,0,0,3.282,3.3c1.054.057,2.111.052,3.166.074.866.017,1.221.62.805,1.379-.439.8-.891,1.6-1.334,2.4a3.611,3.611,0,0,0,1.386,5.126c.773.462,1.551.917,2.323,1.382a.869.869,0,0,1-.012,1.628c-.772.464-1.55.919-2.323,1.382a3.614,3.614,0,0,0-1.368,5.131c.444.8.9,1.6,1.335,2.4a.847.847,0,0,1-.784,1.365c-1.056.022-2.112.017-3.166.072a3.53,3.53,0,0,0-3.309,3.312c-.055,1.04-.051,2.083-.071,3.125-.016.887-.623,1.237-1.407.8-.8-.442-1.595-.9-2.4-1.335a3.6,3.6,0,0,0-5.07,1.356c-.482.794-.95,1.6-1.433,2.39a.848.848,0,0,1-1.575.008c-.49-.805-.965-1.62-1.455-2.425a3.6,3.6,0,0,0-5.045-1.335c-.812.45-1.619.909-2.433,1.355-.759.416-1.362.058-1.378-.807-.02-1.042-.016-2.085-.071-3.125a3.525,3.525,0,0,0-3.34-3.325c-1.04-.054-2.083-.049-3.125-.07-.839-.017-1.2-.623-.8-1.355.452-.826.923-1.643,1.374-2.47a3.606,3.606,0,0,0-1.359-5.04c-.746-.454-1.495-.9-2.25-1.341A1.748,1.748,0,0,1,0,21.6v-.5a1.012,1.012,0,0,1,.581-.707c.744-.434,1.477-.886,2.219-1.325A3.589,3.589,0,0,0,4.684,16.23a3.273,3.273,0,0,0-.353-1.815C3.972,13.694,3.556,13,3.169,12.3c-.134-.244-.27-.486-.387-.738a.933.933,0,0,1,.854-1.406c.457-.024.918-.023,1.375,0a17.958,17.958,0,0,0,2.078-.107,3.474,3.474,0,0,0,2.985-3.2c.048-1.055.052-2.109.078-3.163A.935.935,0,0,1,11.6,2.8c.786.386,1.545.823,2.3,1.265a3.613,3.613,0,0,0,3.422.342,3.46,3.46,0,0,0,1.564-1.331c.528-.817,1.012-1.661,1.508-2.5A1.02,1.02,0,0,1,21.1,0Z"/>
        <path id="Trazado_137499" data-name="Trazado 137499" d="M42.883,35.93c-.646,0-1.215-.035-1.778.006A5.29,5.29,0,0,0,35.989,41.3c-.013.471,0,.943,0,1.451a2.838,2.838,0,0,1-.8-.388,6.4,6.4,0,0,0-2.707-1,5.19,5.19,0,0,0-4.868,2.227c-.31.424-.559.894-.833,1.344-.244.4-.238.4-.493-.016a14.249,14.249,0,0,0-1.056-1.644,5.29,5.29,0,0,0-6.516-1.357c-.5.262-1,.545-1.5.817-.021.011-.053,0-.159,0,0-.6.04-1.193-.007-1.783A5.273,5.273,0,0,0,11.7,35.917c-.471-.012-.943,0-1.5,0,.255-.464.468-.872.7-1.27a5.329,5.329,0,0,0-1.686-7.251,12.806,12.806,0,0,0-1.18-.7c-.367-.19-.27-.293.016-.462a9.922,9.922,0,0,0,2.057-1.4,5.3,5.3,0,0,0,1.027-6.073c-.275-.558-.587-1.1-.931-1.736.5,0,.95,0,1.4,0a5.453,5.453,0,0,0,2.791-.709,5.292,5.292,0,0,0,2.7-4.723c.01-.457,0-.915,0-1.468.494.276.92.517,1.348.753a5.3,5.3,0,0,0,6.174-.567,6.01,6.01,0,0,0,1.161-1.409,6.3,6.3,0,0,1,.779-1.206,8.728,8.728,0,0,1,.77,1.221,5.4,5.4,0,0,0,1.628,1.757,5.216,5.216,0,0,0,5.489.307c.5-.252.991-.538,1.553-.844,0,.53-.009.985,0,1.441a5.336,5.336,0,0,0,5.473,5.446c.443.008.887,0,1.422,0l-.751,1.35a5.33,5.33,0,0,0,1.878,7.263c.356.216.708.438,1.072.64.244.135.325.219.015.388-.45.245-.89.514-1.316.8a5.274,5.274,0,0,0-1.808,6.8c.27.541.576,1.065.91,1.677" transform="translate(-5.189 -5.118)" fill="#fe8649"/>
        <path id="Trazado_137500" data-name="Trazado 137500" d="M23.4,36.9A13.524,13.524,0,1,1,36.965,50.449,13.51,13.51,0,0,1,23.4,36.9" transform="translate(-15.58 -15.578)"/>
        <path id="Trazado_137501" data-name="Trazado 137501" d="M40.295,28.417a11.849,11.849,0,1,1-11.876,11.77,11.853,11.853,0,0,1,11.876-11.77" transform="translate(-18.922 -18.921)" fill="#fec265"/>
        <path id="Trazado_137502" data-name="Trazado 137502" d="M87.442,50.938a8.022,8.022,0,0,1-.093,1.374.866.866,0,0,1-.919.87.833.833,0,0,1-.743-1.045,8.7,8.7,0,0,0-1.351-5.993c-.1-.151-.211-.293-.307-.445a.835.835,0,1,1,1.366-.961,10.168,10.168,0,0,1,1.878,4.3,9,9,0,0,1,.168,1.9" transform="translate(-55.84 -29.538)"/>
        <path id="Trazado_137503" data-name="Trazado 137503" d="M77.926,40.168a.817.817,0,0,1-.831-.809.843.843,0,0,1,.834-.859.853.853,0,0,1,.835.821.825.825,0,0,1-.838.847" transform="translate(-51.332 -25.634)" fill="#010100"/>
      </g>
    </g>
  </g>
</svg>
