<svg xmlns="http://www.w3.org/2000/svg" xmlns:xlink="http://www.w3.org/1999/xlink" width="58.72" height="58.72" viewBox="0 0 58.72 58.72">
  <defs>
    <clipPath id="clip-path">
      <rect id="Rectángulo_38163" data-name="Rectángulo 38163" width="42.014" height="37.474" fill="none"/>
    </clipPath>
  </defs>
  <g id="_92" data-name="92" transform="translate(0 -0.433)">
    <circle id="Elipse_4823" data-name="Elipse 4823" cx="29.36" cy="29.36" r="29.36" transform="translate(0 0.432)" fill="#ff9fa3"/>
    <g id="Grupo_159163" data-name="Grupo 159163" transform="translate(8 10.432)">
      <g id="Grupo_159163-2" data-name="Grupo 159163" transform="translate(0 0)" clip-path="url(#clip-path)">
        <path id="Trazado_137504" data-name="Trazado 137504" d="M0,30.87V6.605A6.284,6.284,0,0,1,1.275,3.166,7.147,7.147,0,0,1,7.238.019C16.4-.014,25.569,0,34.734.006a7.538,7.538,0,0,1,7.149,5.752A6.5,6.5,0,0,1,42.01,7.14q0,11.535,0,23.071a7,7,0,0,1-3.828,6.331,7.179,7.179,0,0,1-3.69.932q-13.564-.011-27.127,0A7.541,7.541,0,0,1,.2,32.155c-.129-.421-.1-.862-.2-1.284" transform="translate(0 0)"/>
        <path id="Trazado_137505" data-name="Trazado 137505" d="M13.8,41.925a17.059,17.059,0,0,0,.44-2.906c.01-.2.067-.273.286-.273,3.237.008,6.474.005,9.71.008.119,0,.3-.065.271.177a11.191,11.191,0,0,1-.4,2.413.856.856,0,0,1-.425.128,1.812,1.812,0,0,0-1.591,1.7,1.866,1.866,0,0,0,3.581.891,1.821,1.821,0,0,0-.114-1.723,1.511,1.511,0,0,1-.192-.4,16.3,16.3,0,0,0,.453-2.942c.012-.2.071-.246.263-.246q4.867.009,9.734,0c.161,0,.245.017.227.221a11.676,11.676,0,0,1-.385,2.373,1.028,1.028,0,0,1-.425.13,1.805,1.805,0,0,0-1.605,1.735,1.839,1.839,0,0,0,1.331,1.923,1.878,1.878,0,0,0,2.177-.877,1.8,1.8,0,0,0,.025-1.8,1.71,1.71,0,0,1-.246-.512,16.8,16.8,0,0,0,.442-2.906c.01-.217.075-.294.31-.293q2.806.016,5.613,0c.265,0,.31.085.31.325q-.009,8.543,0,17.086c0,.268-.09.3-.325.306a19.126,19.126,0,0,0-2.821.068,3.977,3.977,0,0,0-3.3,3.741c-.028.7-.02,1.393-.011,2.089,0,.232-.067.331-.3.3a1.247,1.247,0,0,0-.164,0q-12.906,0-25.813,0a6.3,6.3,0,0,1-6.285-4.531,6.654,6.654,0,0,1-.245-1.9q0-8.543-.008-17.086c0-.329.094-.4.406-.4q3.912.018,7.826,0c.329,0,.4.075.365.4a12.159,12.159,0,0,1-.364,2.174,1.062,1.062,0,0,1-.459.156,1.851,1.851,0,0,0-1.532,2.153,1.877,1.877,0,0,0,3.719-.5,4.008,4.008,0,0,0-.474-1.2" transform="translate(-2.968 -26.65)" fill="#fefefe"/>
        <path id="Trazado_137506" data-name="Trazado 137506" d="M35.545,10.847A13.084,13.084,0,0,1,36,13.665c.014.186-.039.252-.217.238-.068-.005-.136,0-.2,0q-4.686,0-9.372.005c-.291,0-.421-.042-.44-.382a15.4,15.4,0,0,0-.515-3.221,2.229,2.229,0,0,1,.239-.426,1.883,1.883,0,1,0-2.193.754c.228.091.489.066.7.215a13.269,13.269,0,0,1,.473,2.851c.014.137-.033.206-.176.2-.082,0-.164,0-.245,0-3.135,0-6.271-.006-9.407.009-.338,0-.449-.1-.46-.421a15.464,15.464,0,0,0-.486-3.142,2.544,2.544,0,0,1,.225-.435,1.878,1.878,0,1,0-3.421-.89,1.957,1.957,0,0,0,1.507,1.691c.143.037.3.022.422.135a13.488,13.488,0,0,1,.456,2.821c.023.289-.154.231-.307.231q-1.906,0-3.811,0-2.07,0-4.139,0c-.151,0-.345.059-.339-.215a26.174,26.174,0,0,1,.079-3.724A6.234,6.234,0,0,1,10.76,4.65q10.45-.008,20.9,0c2.089,0,4.181-.088,6.268.051a6.206,6.206,0,0,1,5.579,5.666c.057,1.076.02,2.158.038,3.236,0,.233-.072.3-.3.3-1.872-.008-3.743-.012-5.615,0-.29,0-.3-.148-.314-.347A17.381,17.381,0,0,0,36.8,10.3a1.7,1.7,0,0,1,.236-.427,1.877,1.877,0,1,0-2.188.764,2.524,2.524,0,0,1,.7.214" transform="translate(-2.929 -3.182)" fill="#29abe1"/>
        <path id="Trazado_137507" data-name="Trazado 137507" d="M113.721,103.262a8.4,8.4,0,0,1,.055-1.24,2.625,2.625,0,0,1,2.474-2.167c.735-.032,1.472-.007,2.208-.017.2,0,.243.05.2.261a6.12,6.12,0,0,1-4.642,4.454c-.227.036-.317.008-.3-.246.021-.326,0-.654,0-1.047" transform="translate(-78.219 -68.675)" fill="#29abe1"/>
        <path id="Trazado_137508" data-name="Trazado 137508" d="M62.94,15.757a1.993,1.993,0,0,1-2.056-1.766,1.973,1.973,0,0,1,1.726-2.206A2,2,0,0,1,64.66,12.9a1.941,1.941,0,0,1-.464,2.31,7.222,7.222,0,0,0-.571-1.475.668.668,0,1,0-1.18.608,5.086,5.086,0,0,1,.494,1.412" transform="translate(-41.874 -8.091)" fill="#fefefe"/>
        <path id="Trazado_137509" data-name="Trazado 137509" d="M99.893,15.761A1.994,1.994,0,1,1,101.6,12.9a1.925,1.925,0,0,1-.454,2.31,8.691,8.691,0,0,0-.557-1.437.675.675,0,1,0-1.18.616,5.414,5.414,0,0,1,.483,1.372" transform="translate(-67.277 -8.095)" fill="#fefefe"/>
        <path id="Trazado_137510" data-name="Trazado 137510" d="M25.9,15.775a2,2,0,1,1,1.267-.5,8.05,8.05,0,0,0-.587-1.516.668.668,0,1,0-1.181.6,5.743,5.743,0,0,1,.5,1.413" transform="translate(-16.404 -8.109)" fill="#fefefe"/>
        <path id="Trazado_137511" data-name="Trazado 137511" d="M27.257,47.605a1.945,1.945,0,0,1,.319,2.427A1.994,1.994,0,0,1,23.884,48.8a1.969,1.969,0,0,1,1.673-1.755c.148-.021.3-.027.447-.04a6.55,6.55,0,0,1-.591,1.635.646.646,0,0,0,.261.961.659.659,0,0,0,.916-.338,10.458,10.458,0,0,0,.668-1.655" transform="translate(-16.424 -32.331)" fill="#29abe1"/>
        <path id="Trazado_137512" data-name="Trazado 137512" d="M64.244,47.659a1.965,1.965,0,0,1,.188,2.572,1.994,1.994,0,1,1-1.449-3.162,5.427,5.427,0,0,1-.555,1.561c-.229.456-.147.809.229,1.008s.714.052.961-.394a10.135,10.135,0,0,0,.626-1.585" transform="translate(-41.843 -32.375)" fill="#29abe1"/>
        <path id="Trazado_137513" data-name="Trazado 137513" d="M101.251,47.67a1.965,1.965,0,0,1,.251,2.47,2,2,0,0,1-2.371.779,1.975,1.975,0,0,1-1.271-2.1,1.938,1.938,0,0,1,1.77-1.74c.12-.013.243,0,.364-.007a6.292,6.292,0,0,1-.577,1.6.65.65,0,0,0,.238.969c.359.194.7.063.941-.351a10.814,10.814,0,0,0,.654-1.615" transform="translate(-67.304 -32.377)" fill="#29abe1"/>
        <path id="Trazado_137514" data-name="Trazado 137514" d="M39.491,72.776c0-.844.009-1.688-.005-2.532,0-.253.043-.367.329-.347a10.812,10.812,0,0,0,1.147,0c.2-.007.284.035.283.263q-.014,2.95,0,5.9c0,.225-.081.244-.277.27a1.452,1.452,0,0,1-1.75-.934,12.784,12.784,0,0,0-1.62-2.449c-.118.122-.065.249-.066.361-.005.915-.009,1.83,0,2.745,0,.224-.051.319-.294.308-.409-.018-.819-.012-1.229,0-.193,0-.26-.058-.259-.258q.009-2.971,0-5.941c0-.175.046-.244.228-.238.327.012.656.018.983,0,.2-.012.287.118.394.239.743.835,1.43,1.715,2.134,2.611" transform="translate(-24.592 -48.078)"/>
        <path id="Trazado_137515" data-name="Trazado 137515" d="M63.138,73.018c-.064,2.57-2.178,3.634-4.281,3a3.015,3.015,0,0,1-2.048-3.073,3.175,3.175,0,1,1,6.329.071" transform="translate(-39.076 -47.847)"/>
        <path id="Trazado_137516" data-name="Trazado 137516" d="M77.717,69.909c.6,0,1.168.007,1.74,0,.244,0,.241.191.289.331.395,1.131.78,2.265,1.169,3.4.017.049.037.1.094.24.155-.41.287-.739.4-1.073.3-.862.6-1.722.88-2.591a.366.366,0,0,1,.433-.308c.423.019.847.009,1.27,0,.186,0,.306-.012.216.257-.67,2.018-1.458,3.988-2.318,5.931a.294.294,0,0,1-.346.208.255.255,0,0,0-.041,0c-1.276.031-1.282.034-1.8-1.132a53.091,53.091,0,0,1-1.929-5.031c-.021-.062-.034-.127-.061-.23" transform="translate(-53.458 -48.083)"/>
        <path id="Trazado_137517" data-name="Trazado 137517" d="M65.319,76.432a1.812,1.812,0,0,1-.169.952,1.194,1.194,0,0,1-1.225.769,1.252,1.252,0,0,1-1.183-1.11,2.33,2.33,0,0,1,.03-1.29,1.247,1.247,0,0,1,1.43-.99,1.284,1.284,0,0,1,1.115,1.3c.009.122,0,.245,0,.367" transform="translate(-43.105 -51.417)" fill="#fefefe"/>
      </g>
    </g>
  </g>
</svg>
