<svg xmlns="http://www.w3.org/2000/svg" xmlns:xlink="http://www.w3.org/1999/xlink" width="58.72" height="58.72" viewBox="0 0 58.72 58.72">
  <defs>
    <clipPath id="clip-path">
      <rect id="Rectángulo_38164" data-name="Rectángulo 38164" width="40.665" height="40.889" fill="none"/>
    </clipPath>
  </defs>
  <g id="_93" data-name="93" transform="translate(0 -0.003)">
    <circle id="Elipse_4823" data-name="Elipse 4823" cx="29.36" cy="29.36" r="29.36" transform="translate(0 0.002)" fill="#ff9fa3"/>
    <g id="Grupo_159164" data-name="Grupo 159164" transform="translate(9.027 8.918)">
      <g id="Grupo_159164-2" data-name="Grupo 159164" clip-path="url(#clip-path)">
        <path id="Trazado_137518" data-name="Trazado 137518" d="M54.506,63.065c0-.764-.007-1.527,0-2.291,0-.226-.019-.334-.3-.33-1.118.019-2.237.015-3.355,0-.242,0-.287.079-.285.3.011,1.091,0,2.182.011,3.273,0,.267-.035.374-.342.37-.973-.014-.974,0-.974-.959,0-.873-.011-1.746.007-2.618.005-.27-.04-.373-.344-.367-1.091.021-2.182.015-3.273,0-.234,0-.372.032-.318.3a.2.2,0,0,1,0,.041c-.01,1.088-.01,1.083-1.117.977-.172-.017-.2-.079-.194-.224.008-.273-.009-.546.006-.818.011-.2-.036-.282-.263-.279q-1.7.019-3.4,0c-.255,0-.278.1-.277.308.009,1.1,0,2.209.01,3.314,0,.243-.046.32-.308.32-1.007,0-1.007.011-1.007-1.007,0-.846-.015-1.691.007-2.536.008-.313-.066-.417-.394-.4A3.221,3.221,0,0,1,35.6,59.229a3.262,3.262,0,0,1,1.768-5.224.444.444,0,0,0,.372-.351A5.215,5.215,0,0,1,44.7,50.377a.327.327,0,0,0,.483-.148,6.537,6.537,0,0,1,11.831,2.48c.087.382-.025.84.146,1.162s.68.3,1.011.506a3.274,3.274,0,0,1-1.619,6.072c-.734.019-.734.019-.734.742,0,1.391-.008,2.782.007,4.173,0,.275-.08.332-.339.33-.977-.005-.977,0-.977-.953V63.065" transform="translate(-26.945 -36.593)"/>
        <path id="Trazado_137519" data-name="Trazado 137519" d="M128.25,123.055c.5,0,.936.011,1.369,0,.217-.008.3.035.3.281.013,1.033.023,1.032-1.021,1.032h-.676c.254.254.447.465.661.654.164.145.14.236,0,.387-.721.756-.717.761-1.453.019l-.057-.058c-1.06-1.064-1.06-1.065-2.578-1-.1,0-.231-.052-.275.1-.039.134.075.192.149.266.529.532,1.055,1.066,1.592,1.589.144.14.171.222.015.387-.722.765-.716.771-1.454.034l-1.1-1.1c-.075-.075-.141-.179-.273-.121s-.076.163-.077.251c0,.464.007.927-.007,1.39a.483.483,0,0,0,.185.383c.465.461.92.931,1.394,1.382.169.161.173.263,0,.415-.247.214-.455.606-.712.635s-.464-.4-.71-.613c-.03-.025-.061-.049-.149-.121,0,.488-.011.929,0,1.368.008.219-.039.3-.283.3-1.031.013-1.031.023-1.031-1.022v-.668c-.242.239-.445.422-.627.624-.142.157-.247.221-.413.022-.216-.258-.616-.479-.641-.744-.02-.214.4-.469.622-.7a.217.217,0,0,1,.029-.029,2.34,2.34,0,0,0,1.029-2.526c-.022-.121.082-.29-.1-.353-.15-.051-.212.1-.294.176-.524.517-1.047,1.036-1.56,1.564-.141.145-.224.165-.387.01-.76-.724-.766-.717-.031-1.453l1.1-1.1c.075-.076.178-.142.118-.273s-.165-.074-.252-.075c-.464,0-.928.008-1.391-.007a.485.485,0,0,0-.382.187c-.452.455-.911.9-1.355,1.364-.157.164-.263.241-.444.022-.207-.252-.608-.457-.634-.712s.4-.465.616-.71c.025-.029.048-.06.116-.146-.5,0-.956-.008-1.41,0-.189,0-.249-.042-.258-.244-.043-1.069-.05-1.069,1.025-1.069h.673c-.254-.254-.448-.467-.662-.656-.164-.145-.14-.235,0-.386.72-.752.715-.757,1.453-.019l.058.058c1.066,1.066,1.066,1.067,2.577,1,.1,0,.231.052.275-.1.039-.134-.074-.193-.148-.267-.529-.531-1.056-1.065-1.592-1.589-.142-.139-.172-.22-.014-.386.726-.763.719-.769,1.454-.034l1.1,1.1c.075.075.14.18.272.121s.075-.164.076-.252c0-.464-.007-.927.007-1.39a.486.486,0,0,0-.185-.383c-.465-.461-.92-.932-1.394-1.383-.17-.162-.172-.262,0-.414.247-.214.455-.606.713-.635s.465.4.71.613c.029.025.06.049.148.12,0-.5.008-.956,0-1.41-.005-.188.039-.25.243-.259,1.07-.044,1.07-.051,1.07,1.024v.671c.263-.262.483-.467.686-.687.122-.133.2-.115.328,0,.81.722.813.718.048,1.483l-.058.058c-1.066,1.066-1.066,1.066-1,2.577,0,.1-.052.231.1.275.134.04.193-.074.267-.147.532-.529,1.066-1.055,1.589-1.592.14-.144.221-.171.387-.016.77.721.775.714.035,1.455l-1.1,1.1c-.075.075-.181.139-.123.272s.163.077.251.077c.464,0,.928-.007,1.391.007a.485.485,0,0,0,.384-.184c.46-.465.931-.92,1.383-1.393.159-.166.261-.181.416,0,.213.247.6.455.635.713s-.4.465-.611.71l-.126.151" transform="translate(-89.262 -90.031)"/>
        <path id="Trazado_137520" data-name="Trazado 137520" d="M9.564,131.043c.749,1.514,1.532,2.959,2.191,4.46a3.8,3.8,0,0,1-3.431,5.285c-1.417.028-2.836.024-4.253,0a3.819,3.819,0,0,1-3.412-5.468c.676-1.424,1.4-2.823,2.126-4.276l1.9,2.52,1.489-2.594,1.49,2.592,1.9-2.522" transform="translate(-0.217 -101.225)"/>
        <path id="Trazado_137521" data-name="Trazado 137521" d="M138.644,8.6a8.236,8.236,0,0,1,.916-3.217,23.371,23.371,0,0,1,3.5-5.245c.093-.107.154-.222.3-.043A19.484,19.484,0,0,1,147.6,7.32,4.6,4.6,0,1,1,138.644,8.6" transform="translate(-107.154 0)"/>
        <path id="Trazado_137522" data-name="Trazado 137522" d="M24.123,21.876a3.272,3.272,0,1,1-3.254-3.29,3.281,3.281,0,0,1,3.254,3.29" transform="translate(-13.585 -14.365)"/>
        <path id="Trazado_137523" data-name="Trazado 137523" d="M70.006,7.065A18.539,18.539,0,0,1,79.079,9.8c.27.162.331.286.127.539-.186.231-.3.637-.52.692s-.508-.243-.768-.385a17.461,17.461,0,0,0-13.9-1.473c-.394.118-.522.035-.634-.343-.236-.8-.26-.792.5-1.009a20.879,20.879,0,0,1,6.119-.758" transform="translate(-48.877 -5.46)"/>
        <path id="Trazado_137524" data-name="Trazado 137524" d="M64.119,165.1a18.937,18.937,0,0,1-6.864-1.4c-.219-.088-.306-.164-.179-.4.154-.285.2-.7.432-.848s.558.168.848.269a17.631,17.631,0,0,0,12.719-.236c.209-.083.31-.092.417.157.412.959.425.953-.558,1.309a19.553,19.553,0,0,1-6.815,1.146" transform="translate(-44.067 -125.532)"/>
        <path id="Trazado_137525" data-name="Trazado 137525" d="M6.046,69.555a18.63,18.63,0,0,1,.884-5.249c.085-.267.16-.4.464-.251.266.13.666.129.807.328.153.215-.109.55-.185.833a17.6,17.6,0,0,0,.636,11.45c.106.264.055.363-.2.472-.914.387-.91.4-1.242-.519a19.98,19.98,0,0,1-1.165-7.063" transform="translate(-4.673 -49.459)"/>
        <path id="Trazado_137526" data-name="Trazado 137526" d="M164.125,70.056a19.655,19.655,0,0,1-1.4,7.394c-.106.265-.215.277-.436.164-.277-.142-.69-.19-.814-.409s.166-.561.268-.85a17.642,17.642,0,0,0,.241-11.387c-.087-.28-.069-.393.232-.488.926-.293.914-.3,1.184.639a18.835,18.835,0,0,1,.72,4.939" transform="translate(-124.778 -49.698)"/>
        <path id="Trazado_137527" data-name="Trazado 137527" d="M75.2,121.1c0-1.4.007-2.809-.006-4.213,0-.266.066-.337.334-.335.982.006.982,0,.982.99,0,2.6-.006,5.209.008,7.813,0,.305-.069.384-.376.377-.941-.019-.941,0-.941-.95V121.1" transform="translate(-58.118 -90.076)"/>
        <path id="Trazado_137528" data-name="Trazado 137528" d="M9.63,11.644c-.611-.616-1.152-1.174-1.708-1.716-.155-.151-.144-.239.008-.374.254-.226.486-.646.738-.655.237-.007.491.409.732.644.312.305.607.628.931.92.18.162.156.253-.005.409-.244.236-.457.5-.7.772" transform="translate(-6.036 -6.877)" fill="#010101"/>
        <path id="Trazado_137529" data-name="Trazado 137529" d="M46.238,8.608c.323.313.8.568.873.909.057.273-.483.551-.746.839-.092.1-.192.194-.288.29-.775.775-.771.772-1.5-.047-.118-.132-.118-.2.007-.319.563-.555,1.114-1.122,1.657-1.672" transform="translate(-34.382 -6.653)" fill="#010101"/>
        <path id="Trazado_137530" data-name="Trazado 137530" d="M7.36,47.288c.6-.592,1.167-1.143,1.723-1.7.122-.123.185-.128.319-.009.822.733.825.729.05,1.5-.318.318-.642.631-.951.958-.13.138-.213.146-.35,0-.245-.255-.511-.489-.791-.753" transform="translate(-5.688 -35.156)" fill="#010101"/>
        <path id="Trazado_137531" data-name="Trazado 137531" d="M44,46.307c.286-.259.569-.5.827-.756.14-.141.209-.087.319.025.5.506.995,1.011,1.506,1.5.162.156.133.246-.016.379-.253.226-.472.619-.744.656-.2.027-.465-.4-.7-.626-.38-.372-.757-.746-1.2-1.179" transform="translate(-34.006 -35.14)" fill="#010101"/>
        <path id="Trazado_137532" data-name="Trazado 137532" d="M29.087,2.49c0-.354.01-.709,0-1.063-.007-.185.06-.218.233-.227C30.4,1.143,30.4,1.139,30.4,2.211c0,.45-.012.9.005,1.349.009.221-.067.264-.275.268-1.04.021-1.04.028-1.04-1.011V2.49" transform="translate(-22.477 -0.912)"/>
        <path id="Trazado_137533" data-name="Trazado 137533" d="M1.337,31.4H1.01c-1.032,0-1.1-.085-.953-1.14.021-.152.081-.171.2-.171.736,0,1.472.008,2.208,0,.2,0,.207.087.215.244.05,1.07.054,1.07-1.021,1.07Z" transform="translate(0 -23.256)"/>
        <path id="Trazado_137534" data-name="Trazado 137534" d="M53.441,30.094c.341,0,.682.01,1.022,0,.2-.008.275.038.28.263.024,1.05.033,1.05-1,1.05-.45,0-.9-.009-1.35,0-.2.006-.275-.038-.28-.263-.024-1.05-.033-1.05,1-1.05h.327" transform="translate(-40.27 -23.255)"/>
        <path id="Trazado_137535" data-name="Trazado 137535" d="M30.4,54.416v.327c0,1.082,0,1.077-1.1.988-.155-.012-.211-.047-.209-.208q.011-1.1,0-2.208c0-.158.045-.23.206-.207a.223.223,0,0,0,.041,0c1.065-.053,1.065-.053,1.065,1.022Z" transform="translate(-22.482 -41.032)"/>
        <path id="Trazado_137536" data-name="Trazado 137536" d="M52.148,129.309c0-.354.01-.709,0-1.063-.007-.185.06-.219.233-.227,1.081-.056,1.081-.061,1.081,1.011,0,.45-.012.9.005,1.349.009.221-.067.264-.275.268-1.04.022-1.04.028-1.04-1.011v-.327" transform="translate(-40.301 -98.927)"/>
        <path id="Trazado_137537" data-name="Trazado 137537" d="M98.269,135.073c0-.354.01-.709,0-1.063-.007-.185.06-.218.233-.227,1.081-.056,1.081-.061,1.081,1.011,0,.45-.012.9.005,1.349.009.221-.067.264-.275.268-1.04.021-1.04.028-1.04-1.011v-.327" transform="translate(-75.946 -103.382)"/>
        <path id="Trazado_137538" data-name="Trazado 137538" d="M51.729,63.615c-3.027,0-6.055.005-9.082,0A1.96,1.96,0,1,1,42.7,59.7c.36.01.519-.032.586-.466a3.916,3.916,0,0,1,5.99-2.86c.228.141.455.447.682.374.173-.055.247-.42.363-.649A5.233,5.233,0,0,1,60.231,59c0,.013,0,.027-.007.04-.089.65-.089.65.565.648a1.966,1.966,0,1,1,.022,3.924q-4.541.005-9.082,0" transform="translate(-31.4 -41.065)" fill="#e5e8ec"/>
        <path id="Trazado_137539" data-name="Trazado 137539" d="M145.719,146.067a.653.653,0,1,1-.635-.66.659.659,0,0,1,.635.66" transform="translate(-111.614 -112.381)" fill="#f8d46e"/>
        <path id="Trazado_137540" data-name="Trazado 137540" d="M19.495,142.523c.629,1.112,1.24,2.125,1.782,3.173a1.853,1.853,0,0,1-.57,2.307,1.984,1.984,0,0,1-2.427,0,1.854,1.854,0,0,1-.569-2.307c.543-1.048,1.154-2.061,1.783-3.172" transform="translate(-13.539 -110.152)" fill="#ec5565"/>
        <path id="Trazado_137541" data-name="Trazado 137541" d="M7.439,142.205c.312.416.581.791.869,1.151.12.15.03.248-.033.364a10.552,10.552,0,0,0-.747,1.4,3.185,3.185,0,0,0,.134,2.539c.056.119.169.216.156.367A2.443,2.443,0,0,1,6.146,144.9a26.971,26.971,0,0,1,1.293-2.692" transform="translate(-4.646 -109.907)" fill="#ee7284"/>
        <path id="Trazado_137542" data-name="Trazado 137542" d="M36.844,148.017a3.344,3.344,0,0,0-.2-3.87.817.817,0,0,1,.074-1.22,6.376,6.376,0,0,0,.545-.7,16.5,16.5,0,0,1,1.376,3.059,2.4,2.4,0,0,1-1.792,2.732" transform="translate(-28.135 -109.923)" fill="#ee7284"/>
        <path id="Trazado_137543" data-name="Trazado 137543" d="M150.962,15.782a3.276,3.276,0,1,1-6.5-.578,7.95,7.95,0,0,1,.558-1.869,20.132,20.132,0,0,1,2.49-4.106c.082-.109.145-.293.314-.062a16.357,16.357,0,0,1,3,5.606,3.911,3.911,0,0,1,.132,1.008" transform="translate(-111.617 -7)" fill="#69d5f3"/>
        <path id="Trazado_137544" data-name="Trazado 137544" d="M27.269,26.305a1.963,1.963,0,1,1-1.95-1.954,1.972,1.972,0,0,1,1.95,1.954" transform="translate(-18.041 -18.82)" fill="#fbd670"/>
      </g>
    </g>
  </g>
</svg>
