<svg xmlns="http://www.w3.org/2000/svg" xmlns:xlink="http://www.w3.org/1999/xlink" width="58.72" height="58.72" viewBox="0 0 58.72 58.72">
  <defs>
    <clipPath id="clip-path">
      <rect id="Rectángulo_38165" data-name="Rectángulo 38165" width="34.967" height="36.209" fill="none"/>
    </clipPath>
  </defs>
  <g id="_94" data-name="94" transform="translate(0 -0.433)">
    <circle id="Elipse_4823" data-name="Elipse 4823" cx="29.36" cy="29.36" r="29.36" transform="translate(0 0.432)" fill="#ff9fa3"/>
    <g id="Grupo_159165" data-name="Grupo 159165" transform="translate(12 11.432)">
      <g id="Grupo_159165-2" data-name="Grupo 159165" clip-path="url(#clip-path)">
        <path id="Trazado_137545" data-name="Trazado 137545" d="M28.43,36.209H2.582A2.982,2.982,0,0,1,.057,33.742,2.609,2.609,0,0,1,0,33.11Q0,18.789,0,4.468A3.124,3.124,0,0,1,3.146,1.344c.258.011.518,0,.776,0,.194,0,.307-.067.322-.281A1.078,1.078,0,0,1,5.67.031a1,1,0,0,1,.818.895c.066.415.066.419.482.42.965,0,1.93,0,2.9,0,.259,0,.4-.038.421-.356A1.063,1.063,0,0,1,11.443,0a1,1,0,0,1,1.117.971c.029.294.154.376.426.374q1.465-.012,2.93,0c.264,0,.4-.059.427-.364A1.017,1.017,0,0,1,17.464,0a1.028,1.028,0,0,1,1.16.979c.035.3.159.369.427.367q1.465-.013,2.93,0c.275,0,.391-.093.43-.377A1,1,0,0,1,23.537,0a1.072,1.072,0,0,1,1.15,1c.027.292.147.346.4.344q1.483-.012,2.966,0c.268,0,.4-.067.429-.367A.993.993,0,0,1,29.555,0a1.017,1.017,0,0,1,1.168.923c.05.35.014.415.52.421a5.154,5.154,0,0,1,1.506.113A3.114,3.114,0,0,1,34.96,4.419q0,12.414.007,24.828a1.225,1.225,0,0,1-.392.936q-2.856,2.837-5.694,5.691a1.716,1.716,0,0,1-.451.335" transform="translate(0 0)"/>
        <path id="Trazado_137546" data-name="Trazado 137546" d="M22.333,19.739q-7.66,0-15.32.007c-.3,0-.395-.05-.392-.377.018-2,.009-4,.009-6a1.434,1.434,0,0,1,1.62-1.628H36.49a1.434,1.434,0,0,1,1.618,1.63c0,2-.009,4,.01,6,0,.33-.1.375-.394.374q-7.7-.013-15.391-.006" transform="translate(-4.886 -8.661)" fill="#81bbf3"/>
        <path id="Trazado_137547" data-name="Trazado 137547" d="M48.519,73.835a5.227,5.227,0,0,1-.5,2.373A2.542,2.542,0,0,1,45.88,77.6a3.671,3.671,0,0,1-1.262-.078,2.482,2.482,0,0,1-1.806-1.585,5.3,5.3,0,0,1-.09-3.693,2.8,2.8,0,0,1,2.912-1.871,2.851,2.851,0,0,1,2.815,2.669c.045.3.055.609.071.79" transform="translate(-31.312 -51.929)" fill="#fefefe"/>
        <path id="Trazado_137548" data-name="Trazado 137548" d="M92.925,75.923c.644-.065,1.253-.121,1.86-.193a.246.246,0,0,1,.277.14,1,1,0,1,0,1.721-1.022.993.993,0,0,0-1.473-.2.5.5,0,0,1-.4.144c-.482-.022-.964-.045-1.446-.048-.2,0-.231-.08-.2-.253.211-1.18.422-2.36.618-3.542.029-.174.1-.2.249-.2q2.03.006,4.06,0c.154,0,.235.018.229.205-.014.423-.015.848,0,1.271.008.207-.088.222-.253.221-.835-.006-1.671.006-2.507-.008-.235,0-.337.062-.361.3a6.915,6.915,0,0,1-.148.722,2.907,2.907,0,0,1,2.419-.171,1.935,1.935,0,0,1,1.361,1.646,2.325,2.325,0,0,1-.866,2.353,3.969,3.969,0,0,1-4.339-.068,2.773,2.773,0,0,1-.8-1.295" transform="translate(-68.573 -52.205)" fill="#fefefe"/>
        <path id="Trazado_137549" data-name="Trazado 137549" d="M21.042,75.766c.938,0,1.876.008,2.814-.005.238,0,.334.048.318.306-.023.375-.014.753,0,1.13.006.188-.031.268-.246.267q-2.718-.013-5.437,0c-.193,0-.227-.061-.216-.242a3.049,3.049,0,0,1,1.411-2.253c.53-.408,1.1-.77,1.641-1.159a2.125,2.125,0,0,0,.606-.631c.285-.473.224-.9-.171-1.136a.966.966,0,0,0-1.3.3,1.159,1.159,0,0,0-.169.6c0,.205-.057.317-.307.3-.446-.024-.894-.018-1.341,0-.213.007-.248-.066-.232-.262a2.624,2.624,0,0,1,3.072-2.624,3.4,3.4,0,0,1,1.837.524,2.068,2.068,0,0,1,.211,3.2,9.341,9.341,0,0,1-1.6,1.081c-.3.182-.6.361-.9.542l.018.066" transform="translate(-13.484 -51.914)" fill="#fefefe"/>
        <path id="Trazado_137550" data-name="Trazado 137550" d="M74.121,73.907c0,1.083-.006,2.166,0,3.249,0,.22-.041.305-.283.3-.505-.021-1.012-.019-1.518,0-.223.008-.272-.06-.269-.274.011-1.165,0-2.331.012-3.5,0-.266-.066-.349-.332-.33-.351.024-.706,0-1.059.009-.178.007-.252-.035-.241-.23a8.509,8.509,0,0,0,0-.918c-.012-.209.046-.275.268-.288a1.742,1.742,0,0,0,1.791-1.4.236.236,0,0,1,.278-.191c.353.006.707.015,1.059,0,.227-.012.3.051.3.29-.014,1.095-.006,2.19-.006,3.284" transform="translate(-51.976 -51.9)" fill="#fefefe"/>
        <path id="Trazado_137551" data-name="Trazado 137551" d="M80.349,24.9c-.416-.109-.9.224-1.3-.217a1.624,1.624,0,0,1-1.19.294.86.86,0,0,1-.854-.781.817.817,0,0,1,.669-.9c.315-.086.648-.1.968-.175.149-.032.347-.02.4-.225a.173.173,0,0,0-.131-.219c-.182-.05-.392-.1-.531.058-.329.38-.745.106-1.114.169-.107.019-.074-.127-.062-.2a.742.742,0,0,1,.5-.591,2.961,2.961,0,0,1,1.965-.04.729.729,0,0,1,.516.684c.058.528.025,1.056.036,1.585a.841.841,0,0,0,.125.557" transform="translate(-56.825 -16.182)"/>
        <path id="Trazado_137552" data-name="Trazado 137552" d="M38.221,24.9c-.422-.085-.9.21-1.29-.211a1.535,1.535,0,0,1-1.621.156.717.717,0,0,1-.416-.714.743.743,0,0,1,.408-.721,3.241,3.241,0,0,1,1.017-.258,1.655,1.655,0,0,0,.21-.024c.15-.047.345-.034.406-.227a.176.176,0,0,0-.137-.217c-.18-.053-.39-.108-.529.055-.327.383-.744.1-1.112.172-.115.021-.08-.113-.068-.19a.748.748,0,0,1,.522-.612,3.027,3.027,0,0,1,1.9-.045.746.746,0,0,1,.562.763c.012.47.012.94.017,1.41a1,1,0,0,0,.13.663" transform="translate(-25.749 -16.182)"/>
        <path id="Trazado_137553" data-name="Trazado 137553" d="M65.532,24.713a1.209,1.209,0,0,1-1,.49.956.956,0,0,1-1.062-.973c-.035-.609-.01-1.222-.019-1.833,0-.145.058-.188.187-.172a.2.2,0,0,0,.035,0c.921-.042.921-.042.922.881,0,.247,0,.494.006.74s.1.473.409.465c.29-.007.412-.208.422-.468.017-.434.031-.871.006-1.3-.015-.278.083-.326.336-.322.827.012.827,0,.827.846,0,.576-.012,1.152.006,1.728.008.249-.038.38-.32.334a1.386,1.386,0,0,0-.387,0c-.257.032-.44-.009-.367-.413" transform="translate(-46.821 -16.391)"/>
        <path id="Trazado_137554" data-name="Trazado 137554" d="M23.91,19.661a7.177,7.177,0,0,1-.074,1.46,1.263,1.263,0,0,1-1.132,1,2.7,2.7,0,0,1-.772-.011,1.4,1.4,0,0,1-1.158-1.658c.02-.107.059-.137.157-.134a3.26,3.26,0,0,0,.493,0c.353-.045.572.03.549.453-.01.187.059.4.3.4.276,0,.331-.239.334-.456.011-.764.024-1.529,0-2.292-.01-.307.087-.385.37-.352.3.036.7-.126.879.062s.04.58.052.883c.007.188,0,.376,0,.648" transform="translate(-15.311 -13.311)"/>
        <path id="Trazado_137555" data-name="Trazado 137555" d="M100.414,22.181c.4,0,.821-.119,1.086.033s.238.627.344.958c.075.234.142.47.23.768.158-.547.311-1.035.435-1.53.046-.185.119-.264.307-.24a2.3,2.3,0,0,0,.282,0c.589,0,.591,0,.4.539-.289.83-.573,1.662-.873,2.488a1.047,1.047,0,0,1-1.2.852c-.129,0-.259-.011-.388,0-.177.012-.265-.046-.246-.237a2.056,2.056,0,0,0,0-.352c-.012-.16.04-.221.214-.234.429-.033.464-.094.32-.5-.3-.838-.6-1.674-.912-2.542" transform="translate(-74.099 -16.336)"/>
        <path id="Trazado_137556" data-name="Trazado 137556" d="M50.491,22.457a1.215,1.215,0,0,1,.986-.482.974.974,0,0,1,1.047.963c.035.61.014,1.223.025,1.834,0,.14-.048.193-.182.177a.452.452,0,0,0-.07,0c-.9.024-.9.024-.9-.872,0-.235,0-.47,0-.706-.007-.258-.083-.471-.393-.481s-.436.2-.444.473c-.013.447-.018.894,0,1.341.006.2-.061.248-.256.25-.891.01-.891.016-.891-.881,0-.588.007-1.176,0-1.764,0-.192.037-.285.248-.26a3.613,3.613,0,0,0,.423,0c.365,0,.365,0,.414.4" transform="translate(-36.458 -16.216)"/>
        <path id="Trazado_137557" data-name="Trazado 137557" d="M92.676,22.607a.968.968,0,0,1,.793-.626c.17-.015.27.01.247.216a2.215,2.215,0,0,0,0,.423c.024.306.032.546-.416.52-.334-.019-.476.272-.5.576a8.207,8.207,0,0,0-.017.987c.008.207-.066.249-.26.252-.9.015-.9.021-.9-.879,0-.564.012-1.13-.005-1.693-.007-.248.039-.385.32-.333a1.162,1.162,0,0,0,.211,0c.5,0,.5,0,.528.555" transform="translate(-67.606 -16.218)" fill="#010101"/>
        <path id="Trazado_137558" data-name="Trazado 137558" d="M52.283,78.472a5.162,5.162,0,0,1-.2,1.338.81.81,0,0,1-.8.623.762.762,0,0,1-.771-.648,5.335,5.335,0,0,1,.005-2.818.8.8,0,0,1,.795-.674.866.866,0,0,1,.827.692,4.763,4.763,0,0,1,.138,1.487" transform="translate(-37.141 -56.299)"/>
        <path id="Trazado_137559" data-name="Trazado 137559" d="M82.41,28.529c.006.5-.2.737-.567.682-.135-.02-.256-.075-.274-.227a.251.251,0,0,1,.185-.267.8.8,0,0,1,.095-.046c.18-.048.36-.092.561-.143" transform="translate(-60.191 -21.053)" fill="#81bbf3"/>
        <path id="Trazado_137560" data-name="Trazado 137560" d="M40.291,28.47c.009.5-.193.737-.553.7-.133-.014-.258-.053-.284-.209a.241.241,0,0,1,.188-.291c.21-.067.421-.129.649-.2" transform="translate(-29.11 -21.009)" fill="#81bbf3"/>
      </g>
    </g>
  </g>
</svg>
