<svg xmlns="http://www.w3.org/2000/svg" xmlns:xlink="http://www.w3.org/1999/xlink" width="58.72" height="58.72" viewBox="0 0 58.72 58.72">
  <defs>
    <clipPath id="clip-path">
      <rect id="Rectángulo_38166" data-name="Rectángulo 38166" width="36.611" height="34.213" fill="none"/>
    </clipPath>
  </defs>
  <g id="_96" data-name="96" transform="translate(0 -0.433)">
    <circle id="Elipse_4823" data-name="Elipse 4823" cx="29.36" cy="29.36" r="29.36" transform="translate(0 0.432)" fill="#ff9fa3"/>
    <g id="Grupo_159166" data-name="Grupo 159166" transform="translate(11 12.432)">
      <g id="Grupo_159166-2" data-name="Grupo 159166" transform="translate(0 0)" clip-path="url(#clip-path)">
        <path id="Trazado_137561" data-name="Trazado 137561" d="M0,13.465v-.571a1.349,1.349,0,0,1,.536-.928.708.708,0,0,0,.212-.648c0-2.059-.006-4.118,0-6.177A2.771,2.771,0,0,1,2.9,2.415a3.108,3.108,0,0,1,.71-.058H9.572c.5,0,.518,0,.579-.5A2.076,2.076,0,0,1,12.317,0a5.869,5.869,0,0,1,2.79.779,9.054,9.054,0,0,1,1.539.968.922.922,0,0,0,.693.2,12.29,12.29,0,0,1,1.855,0,1.037,1.037,0,0,0,.757-.225A10.336,10.336,0,0,1,22.475.332,4.568,4.568,0,0,1,24.289,0a2.065,2.065,0,0,1,2.125,1.862c.058.493.077.492.579.493q2.981,0,5.963,0a2.75,2.75,0,0,1,2.86,2.855q.008,3.017,0,6.034a.931.931,0,0,0,.347.845,1.526,1.526,0,0,1-.024,2.19.868.868,0,0,0-.322.817q.005,8.069,0,16.137a2.865,2.865,0,0,1-.927,2.234,2.765,2.765,0,0,1-1.736.739c-.071,0-.143,0-.214,0H3.631A2.773,2.773,0,0,1,1.312,33.09a2.869,2.869,0,0,1-.566-1.806q.007-3.517,0-7.033,0-4.57,0-9.14a.918.918,0,0,0-.366-.869A1.144,1.144,0,0,1,0,13.465" transform="translate(0 0)"/>
        <path id="Trazado_137562" data-name="Trazado 137562" d="M39.178,18.271c-.495-.006-.6.068-.766.562L32.257,37.073c-.036.107-.078.211-.149.4L22.529,9.118h1.664c.06,0,.128,0,.147.07.1.334.363.613.169,1.029a3.861,3.861,0,0,0-.409,2.176,1.876,1.876,0,0,0,1.76,1.671,5.231,5.231,0,0,0,2.779-.626,9.952,9.952,0,0,0,1.927-1.21.578.578,0,0,1,.515-.107,6.6,6.6,0,0,0,2.061,0,.628.628,0,0,1,.544.13,8.705,8.705,0,0,0,3.647,1.777,3.239,3.239,0,0,0,1.207.013,1.917,1.917,0,0,0,1.611-2.173,5.505,5.505,0,0,0-.453-1.714,1.354,1.354,0,0,1,.205-.99.208.208,0,0,1,.126-.043c.544,0,1.088,0,1.666,0-.474,1.409-.935,2.779-1.4,4.148-.329.978-.655,1.957-.992,2.932a.574.574,0,0,0,.289.8,2.162,2.162,0,0,1-.418,1.268" transform="translate(-13.831 -5.597)" fill="#e9e9f0"/>
        <path id="Trazado_137563" data-name="Trazado 137563" d="M55.7,20.113l.418-1.268c.508,0,.585-.057.746-.534q.989-2.919,1.977-5.838c.037-.11.079-.219.128-.355.144.081.167.217.218.325a20.815,20.815,0,0,0,3.708,5.424A22.026,22.026,0,0,0,65.6,20.291c.341.261.338.4-.016.645a11.442,11.442,0,0,1-5.321,1.972,15.466,15.466,0,0,1-2.24.121.526.526,0,0,0-.544.319.485.485,0,0,0,.158.6A8.278,8.278,0,0,0,60.2,25.466a12.449,12.449,0,0,0,1.594.5c.437.114.5.288.23.653q-2.282,3.035-4.572,6.063-2.813,3.729-5.622,7.461a.68.68,0,0,1-.644.332c-.463-.027-.928-.007-1.392-.007-.415,0-.416,0-.278-.408q1.507-4.455,3.015-8.908Q54.251,26.076,55.967,21c.156-.461.116-.586-.27-.883" transform="translate(-30.35 -7.439)" fill="#4d5561"/>
        <path id="Trazado_137564" data-name="Trazado 137564" d="M11.893,34.543a.61.61,0,0,0,.005-.866c-1.714-2.265-3.417-4.538-5.139-6.8-.435-.571-.556-.775.33-.988a9.63,9.63,0,0,0,3.534-1.637,4.187,4.187,0,0,0,.325-.278.5.5,0,0,0,.174-.632.6.6,0,0,0-.613-.339A12.4,12.4,0,0,1,3.8,21.438c-.278-.159-.546-.339-.81-.52-.319-.22-.323-.368-.015-.6a21.865,21.865,0,0,0,1.851-1.565,20.734,20.734,0,0,0,4.545-6.208c.066-.137.133-.273.2-.419.148.094.147.236.187.352q2.351,6.952,4.7,13.906,2.308,6.835,4.618,13.669c.143.423.142.424-.291.424-.476,0-.953-.014-1.428.006a.571.571,0,0,1-.535-.261q-1.675-2.242-3.365-4.473c-.209-.277-.413-.58-.843-.411a.2.2,0,0,1-.28-.067c-.173-.227-.435-.4-.445-.728" transform="translate(-1.689 -7.444)" fill="#4d5561"/>
        <path id="Trazado_137565" data-name="Trazado 137565" d="M15.487,59.319c-2.986,0-5.973.013-8.959,0a1.587,1.587,0,0,1-1.533-1.642q0-4.479,0-8.959Q5,45.778,5,42.834a1.981,1.981,0,0,1,1.1.393c.191.11.044.3-.053.432A2.571,2.571,0,0,0,5.7,45.969a3.053,3.053,0,0,0,.573.981c2.989,3.975,6,7.935,8.981,11.913.1.136.264.25.238.457" transform="translate(-3.065 -26.295)" fill="#39444d"/>
        <path id="Trazado_137566" data-name="Trazado 137566" d="M73.016,42.818q0,2.409.008,4.818,0,4.979,0,9.958a1.6,1.6,0,0,1-1.713,1.718q-4.39,0-8.78-.008c-.026-.207.136-.321.238-.457q4.5-5.972,9.007-11.935a2.781,2.781,0,0,0,.552-2.574,2.659,2.659,0,0,0-.4-.751c-.164-.246-.142-.366.139-.457.317-.1.577-.384.949-.312" transform="translate(-38.388 -26.28)" fill="#39444d"/>
        <path id="Trazado_137567" data-name="Trazado 137567" d="M15.483,57.213q-2.384-3.161-4.767-6.321C9.2,48.88,7.7,46.851,6.15,44.865a2.752,2.752,0,0,1-.108-3.441c.134-.162.084-.252-.086-.319L5,40.728c0-.369,0-.738-.012-1.106-.008-.227.056-.269.264-.168A12.569,12.569,0,0,0,8.792,40.6c.467.075.934.143,1.441.22A8.964,8.964,0,0,1,8,41.651a1.473,1.473,0,0,0-1.264,1.142,1.6,1.6,0,0,0,.451,1.367q2.6,3.45,5.216,6.9a.609.609,0,0,0,.861.233c.239.267.338.662.725.795-.369.3-.393.549-.1.936q1.526,2.021,3.048,4.046c.026.035.048.073.1.148Z" transform="translate(-3.061 -24.19)" fill="#2f393b"/>
        <path id="Trazado_137568" data-name="Trazado 137568" d="M70.539,40.728c-.295.124-.585.259-.885.367-.24.086-.294.153-.112.388a2.574,2.574,0,0,1,.076,3.026c-.217.324-.457.633-.692.945q-2.014,2.682-4.031,5.362-2.416,3.2-4.84,6.4H58.5c.392-.529.757-1.028,1.129-1.522Q61.016,53.846,62.412,52q2.962-3.912,5.923-7.825a1.475,1.475,0,0,0,.415-1.53,1.587,1.587,0,0,0-1.058-.934,12.739,12.739,0,0,1-2.408-.9,18.113,18.113,0,0,0,3.019-.583,14.361,14.361,0,0,0,1.984-.782c.211-.1.271-.056.264.169-.013.368-.008.737-.012,1.106" transform="translate(-35.912 -24.19)" fill="#2f393b"/>
        <path id="Trazado_137569" data-name="Trazado 137569" d="M30.449,9.284c-.9.005-1.285-.446-1.168-1.277a4.426,4.426,0,0,1,.494-1.44.783.783,0,0,0,0-.777,4.72,4.72,0,0,1-.493-1.553A.921.921,0,0,1,30.29,3.06a4.633,4.633,0,0,1,2.013.534,9.744,9.744,0,0,1,1.5.9c.153.107.158.172.05.33a2.244,2.244,0,0,0,0,2.723c.072.106.142.178-.009.284a7.708,7.708,0,0,1-3.072,1.434,2.587,2.587,0,0,1-.322.024" transform="translate(-17.964 -1.878)" fill="#ef484a"/>
        <path id="Trazado_137570" data-name="Trazado 137570" d="M56.713,9.269a5.3,5.3,0,0,1-2.077-.7,11.9,11.9,0,0,1-1.176-.737c-.125-.086-.138-.148-.046-.28a2.228,2.228,0,0,0-.006-2.776c-.1-.144-.053-.2.056-.277a7.511,7.511,0,0,1,3.074-1.423c.047-.008.094-.014.141-.018,1.037-.095,1.438.326,1.289,1.354a4.086,4.086,0,0,1-.439,1.31.892.892,0,0,0,.009.908,3.975,3.975,0,0,1,.451,1.379c.106.856-.27,1.283-1.277,1.264" transform="translate(-32.755 -1.867)" fill="#ef484a"/>
        <path id="Trazado_137571" data-name="Trazado 137571" d="M5,14.791c0-1.377-.013-2.753,0-4.13a1.57,1.57,0,0,1,1.5-1.51c.783-.013,1.567,0,2.35,0,.124.158.015.294-.045.429a18.259,18.259,0,0,1-2.555,4.05c-.3.369-.646.694-.96,1.05-.073.083-.141.21-.289.112" transform="translate(-3.067 -5.614)" fill="#39444d"/>
        <path id="Trazado_137572" data-name="Trazado 137572" d="M79.635,9.15c.783,0,1.567-.013,2.349,0a1.574,1.574,0,0,1,1.5,1.511c.008,1.377,0,2.753,0,4.129-.148.1-.212-.032-.29-.111a18.974,18.974,0,0,1-3.221-4.453c-.134-.251-.224-.523-.351-.778a.245.245,0,0,1,.013-.3" transform="translate(-48.855 -5.613)" fill="#39444d"/>
        <path id="Trazado_137573" data-name="Trazado 137573" d="M5.016,14.792a6.166,6.166,0,0,0,.945-.935A17.728,17.728,0,0,0,8,10.969a6.934,6.934,0,0,0,.86-1.818c.368,0,.736,0,1.1,0,.2,0,.291.035.2.265A19.268,19.268,0,0,1,7.6,13.818a23.377,23.377,0,0,1-2.279,2.488c-.082.08-.169.154-.3.274Z" transform="translate(-3.079 -5.615)" fill="#2f393b"/>
        <path id="Trazado_137574" data-name="Trazado 137574" d="M77.589,9.154a7.352,7.352,0,0,0,.857,1.819,19.67,19.67,0,0,0,2.835,3.751.452.452,0,0,0,.156.07v1.724c-.037-.006-.078,0-.1-.019a20.1,20.1,0,0,1-5-6.984c-.152-.359-.146-.363.252-.364.333,0,.666,0,1,0" transform="translate(-46.809 -5.618)" fill="#2f393b"/>
        <path id="Trazado_137575" data-name="Trazado 137575" d="M44.406,10.424a5.606,5.606,0,0,1-.654-.042A1.2,1.2,0,0,1,43.883,8c.427-.019.856-.019,1.283,0A1.208,1.208,0,0,1,46.3,9.123a1.222,1.222,0,0,1-.985,1.259,6.856,6.856,0,0,1-.909.042" transform="translate(-26.238 -4.901)" fill="#fc6064"/>
        <path id="Trazado_137576" data-name="Trazado 137576" d="M46.808,40.444a.925.925,0,1,1-.917-.942.936.936,0,0,1,.917.942" transform="translate(-27.6 -24.251)" fill="#010101"/>
        <path id="Trazado_137577" data-name="Trazado 137577" d="M45.88,52.254a.922.922,0,0,1,.929.925.925.925,0,0,1-1.85.007.921.921,0,0,1,.922-.932" transform="translate(-27.601 -32.08)" fill="#010101"/>
        <path id="Trazado_137578" data-name="Trazado 137578" d="M46.809,27.685a.925.925,0,1,1-1.85-.016.925.925,0,0,1,1.85.016" transform="translate(-27.601 -16.427)" fill="#010101"/>
      </g>
    </g>
  </g>
</svg>
