<svg xmlns="http://www.w3.org/2000/svg" xmlns:xlink="http://www.w3.org/1999/xlink" width="58.72" height="58.72" viewBox="0 0 58.72 58.72">
  <defs>
    <clipPath id="clip-path">
      <rect id="Rectángulo_38167" data-name="Rectángulo 38167" width="38.109" height="34.825" fill="none"/>
    </clipPath>
  </defs>
  <g id="_98" data-name="98" transform="translate(0 -0.433)">
    <circle id="Elipse_4823" data-name="Elipse 4823" cx="29.36" cy="29.36" r="29.36" transform="translate(0 0.432)" fill="#ff9fa3"/>
    <g id="Grupo_159167" data-name="Grupo 159167" transform="translate(10 12.433)">
      <g id="Grupo_159167-2" data-name="Grupo 159167" clip-path="url(#clip-path)">
        <path id="Trazado_137579" data-name="Trazado 137579" d="M38.109,30.807a1.181,1.181,0,0,1-1.23.676c-.89-.034-1.783,0-2.675-.014-.207,0-.273.05-.268.264.015.582.011,1.164,0,1.746a1.3,1.3,0,0,1-1.331,1.343c-.483.008-.966,0-1.449,0a.583.583,0,0,1-.652-.521c-.07-.42.125-.623.669-.7.359-.026.718,0,1.076-.015.4-.012.448-.056.451-.458.009-1.225,0-2.45,0-3.675,0-.841,0-1.683,0-2.524,0-.437-.035-.466-.46-.474-.359-.006-.718.008-1.077-.008a4.831,4.831,0,0,1-.521.011H6.14c-.734,0-.734,0-.734.73q0,2.827,0,5.653c0,.742,0,.743.733.744H27.9a3.02,3.02,0,0,1,.667.033.535.535,0,0,1,.478.621c-.142.484-.264.58-.759.58q-11.348,0-22.7,0a1.31,1.31,0,0,1-1.416-1.411c0-.546-.012-1.092.005-1.637.008-.239-.054-.312-.3-.307-.93.016-1.86,0-2.791.009a.981.981,0,0,1-.966-.5A.967.967,0,0,1,.235,29.9c.484-.719.954-1.448,1.439-2.165a1.757,1.757,0,0,0-.008-2.144C1.18,24.877.712,24.147.228,23.429a.953.953,0,0,1-.1-1.078.967.967,0,0,1,.937-.481c1.463.008,2.927,0,4.39.008.238,0,.322-.041.273-.3A13.551,13.551,0,0,1,14.077,6.4c.023-.009.045-.021.147-.071-.259-.242-.495-.469-.738-.687a1.169,1.169,0,0,1,.645-2.1c.786-.1,1.567-.241,2.353-.338a.487.487,0,0,0,.434-.325c.332-.7.691-1.4,1.028-2.1A1.18,1.18,0,0,1,20.17.793c.34.714.7,1.419,1.042,2.133A.439.439,0,0,0,21.6,3.2c.835.108,1.668.236,2.5.364a1.086,1.086,0,0,1,.921.763,1.088,1.088,0,0,1-.255,1.168c-.27.286-.555.556-.857.856a13.028,13.028,0,0,1,4.675,3.02,13.361,13.361,0,0,1,3.807,12.15c-.052.308.03.361.319.358,1.389-.014,2.778.013,4.167-.016a1.178,1.178,0,0,1,1.228.682v.521a3.059,3.059,0,0,1-.454.886c-.4.6-.8,1.195-1.2,1.8a1.571,1.571,0,0,0-.047,1.755c.394.675.853,1.309,1.287,1.959a2.586,2.586,0,0,1,.409.823Z" transform="translate(0 0)"/>
        <path id="Trazado_137580" data-name="Trazado 137580" d="M41.9,87.486a.588.588,0,0,0-.6.608,10.073,10.073,0,0,0-1.466-.061c-.1-.429-.388-.541-.8-.541q-11.22.01-22.439,0c-.514,0-.514,0-.515-.511q0-3.256,0-6.512c0-.225,0-.353.3-.353q12.726.013,25.453.008c.049,0,.1.009.148.014a.532.532,0,0,1,.119.416q.006,3.214,0,6.428a.548.548,0,0,1-.193.5" transform="translate(-10.789 -53.79)" fill="#bc847f"/>
        <path id="Trazado_137581" data-name="Trazado 137581" d="M6.342,9.181a.868.868,0,0,1,.8.49c.182.351.362.7.524,1.064a.417.417,0,0,0,.375.289c.406.044.808.122,1.212.184a.832.832,0,0,1,.7.583.86.86,0,0,1-.209.928c-.271.272-.538.55-.829.8a.5.5,0,0,0-.18.551c.077.338.129.681.187,1.022a.911.911,0,0,1-1.374,1,4.434,4.434,0,0,1-.586-.317.958.958,0,0,0-1.264.009,4.506,4.506,0,0,1-.688.361.85.85,0,0,1-.942-.1.861.861,0,0,1-.329-.858c.06-.379.127-.757.2-1.133a.492.492,0,0,0-.168-.523c-.269-.237-.515-.5-.777-.747a.888.888,0,0,1-.282-.974.853.853,0,0,1,.763-.614,4.046,4.046,0,0,1,.66-.1,1,1,0,0,0,1.1-.809,3.8,3.8,0,0,1,.33-.662.833.833,0,0,1,.769-.449" transform="translate(-1.797 -6.164)"/>
        <path id="Trazado_137582" data-name="Trazado 137582" d="M92.018,15.221c.058-.33.125-.758.211-1.182a.458.458,0,0,0-.157-.49c-.269-.237-.516-.5-.779-.745A.906.906,0,0,1,91,11.8a.866.866,0,0,1,.775-.6c.393-.05.782-.127,1.176-.172a.368.368,0,0,0,.325-.248c.145-.315.312-.618.453-.934a.938.938,0,0,1,.9-.657.952.952,0,0,1,.889.671c.118.259.276.5.367.769a.609.609,0,0,0,.6.435c.357.035.713.086,1.065.156a.877.877,0,0,1,.489,1.487c-.275.3-.572.586-.876.858a.434.434,0,0,0-.15.456c.072.364.128.732.2,1.1a.893.893,0,0,1-.346.954.883.883,0,0,1-.981.057c-.429-.215-.856-.6-1.286-.6s-.828.4-1.25.6a.9.9,0,0,1-1.327-.906" transform="translate(-61.06 -6.166)"/>
        <path id="Trazado_137583" data-name="Trazado 137583" d="M28.13,32.828a.68.68,0,0,0,.854-.32,10.066,10.066,0,0,1,3.765-3.01c.066-.031.135-.055.208-.083a.768.768,0,0,1-.023.411A1.172,1.172,0,0,0,34.7,31.137c.685-.371,1.384-.716,2.066-1.092a.521.521,0,0,1,.577-.009c.692.383,1.4.735,2.1,1.11a1.171,1.171,0,0,0,1.756-1.3c-.027-.131-.041-.266-.068-.447a9.375,9.375,0,0,1,2.2,1.283,10.262,10.262,0,0,1,2.1,14,.583.583,0,0,1-.543.279q-7.831-.011-15.663,0a.538.538,0,0,1-.512-.264,10.132,10.132,0,0,1-1.2-9.584c.136-.38.276-.729-.126-1.028-.082-.385.212-.627.36-.922.077-.153.136-.361.382-.336" transform="translate(-18.009 -19.734)" fill="#7cd2f7"/>
        <path id="Trazado_137584" data-name="Trazado 137584" d="M49.333,8.621a1.429,1.429,0,0,0,1.339.825,5.937,5.937,0,0,1,.689.114c.12.27-.082.421-.234.566-.536.51-1.079,1.012-1.607,1.531a.962.962,0,0,0-.318.989c.12.528.188,1.069.273,1.6.023.145.068.293-.055.419a.353.353,0,0,1-.105-.035,1.886,1.886,0,0,0-2.394.021c-.555.363-1.173.631-1.829.977.1-.573.18-1.086.267-1.6.063-.378.127-.757.194-1.134a1.3,1.3,0,0,0-.411-1.207c-.616-.625-1.2-1.277-1.8-1.91.52-.078,1.121-.177,1.726-.259,1.638-.221,1.527-.165,2.232-1.6.048-.1.109-.191.164-.286a.242.242,0,0,1,.151.153.983.983,0,0,0,.974.644,1.546,1.546,0,0,1,.742.187" transform="translate(-29.099 -5.126)" fill="#fde35a"/>
        <path id="Trazado_137585" data-name="Trazado 137585" d="M23.588,27.946a3.323,3.323,0,0,0-.741,1.258c-.477-.116-.672-.021-.853.454a11.263,11.263,0,0,0,.806,10.1c.049.085.1.168.188.314-.429,0-.814,0-1.2,0-.18,0-.193-.177-.25-.285a12.474,12.474,0,0,1,6.73-17.608c.407-.145.573-.006.533.418a.851.851,0,0,1-.611.826,10.849,10.849,0,0,0-4.667,3.56c-.308.4-.291.6.066.964" transform="translate(-13.467 -14.853)" fill="#f4eff2"/>
        <path id="Trazado_137586" data-name="Trazado 137586" d="M69.3,22.342c.106-.292.3-.289.551-.187a12.214,12.214,0,0,1,8.086,10.2A12.045,12.045,0,0,1,76.6,39.728a.508.508,0,0,1-.57.333,8.373,8.373,0,0,0-.847-.006c-.04-.1.023-.152.06-.213a11.343,11.343,0,0,0-2.033-14.375c-.072-.066-.137-.14-.206-.21a11.2,11.2,0,0,0-1.609-1.511,11.866,11.866,0,0,0-1.855-1.226.887.887,0,0,1-.235-.178" transform="translate(-46.525 -14.832)" fill="#e3dee2"/>
        <path id="Trazado_137587" data-name="Trazado 137587" d="M3.935,70H8.384c-.454.757-.873,1.482-1.32,2.19a1.655,1.655,0,0,0-.259.944c.013,1.3,0,2.6.01,3.906,0,.237-.057.322-.308.318-.83-.015-1.659-.006-2.487-.006-.052-.164.063-.247.127-.344.386-.591.79-1.171,1.166-1.769a2.754,2.754,0,0,0,0-3.148c-.435-.686-.892-1.359-1.375-2.091" transform="translate(-2.642 -46.997)" fill="#8c635e"/>
        <path id="Trazado_137588" data-name="Trazado 137588" d="M98.486,70h4.44c-.121.193-.215.346-.313.5-.355.538-.723,1.067-1.065,1.613a2.74,2.74,0,0,0,0,3.116c.434.69.9,1.363,1.342,2.035-.082.138-.193.088-.282.088-.719,0-1.439-.019-2.157.012-.345.014-.4-.105-.4-.418.017-1.277,0-2.554.012-3.831a1.6,1.6,0,0,0-.25-.91c-.446-.711-.869-1.436-1.329-2.2" transform="translate(-66.119 -46.997)" fill="#8c635e"/>
        <path id="Trazado_137589" data-name="Trazado 137589" d="M94.662,87.495a1.609,1.609,0,0,0,.078-.509q-.006-3.416,0-6.833c.47,0,.939,0,1.409-.017.177-.005.234.056.234.233q-.007,3.414,0,6.827c0,.218-.083.317-.307.313-.47-.01-.94-.01-1.409-.013" transform="translate(-63.552 -53.799)" fill="#a3766e"/>
        <path id="Trazado_137590" data-name="Trazado 137590" d="M61.093,18.6c-.058-.737-.219-1.459-.345-2.185a.746.746,0,0,1,.225-.736c.591-.562,1.176-1.13,1.764-1.7a.745.745,0,0,0,.3-.494l1.644.218c-.572.6-1.111,1.232-1.716,1.791a1.545,1.545,0,0,0-.5,1.6c.167.8.281,1.6.43,2.477l-1.8-.973" transform="translate(-40.771 -9.059)" fill="#fdd302"/>
        <path id="Trazado_137591" data-name="Trazado 137591" d="M57.754,5.639c-.415-.054-.836-.082-1.244-.171s-.482-.49-.622-.814l.685-1.46,1.182,2.444" transform="translate(-37.521 -2.145)" fill="#fdd302"/>
        <path id="Trazado_137592" data-name="Trazado 137592" d="M69.283,22.852a7.838,7.838,0,0,1,1.86,1.115A13.084,13.084,0,0,1,72.955,25.6c.045.046.134.1.028.171a12.114,12.114,0,0,0-3.438-2.012.245.245,0,0,1-.184-.243,2.946,2.946,0,0,1-.077-.659" transform="translate(-46.508 -15.342)" fill="#f3eef1"/>
        <path id="Trazado_137593" data-name="Trazado 137593" d="M17.389,74.381l.7-1.159c.169.364.308.672.454.977.085.177-.023.182-.148.182h-1" transform="translate(-11.674 -49.158)" fill="#754f4c"/>
        <path id="Trazado_137594" data-name="Trazado 137594" d="M95.454,73.2l.7,1.165c-.39,0-.715,0-1.041,0-.144,0-.17-.057-.11-.183.142-.3.278-.6.451-.983" transform="translate(-63.761 -49.144)" fill="#75504c"/>
        <path id="Trazado_137595" data-name="Trazado 137595" d="M68.219,87.149c0,.395.008.666,0,.936a.557.557,0,0,1-.54.59.568.568,0,0,1-.565-.573c-.021-.358-.008-.718-.009-1.077,0-.892,0-1.784,0-2.676,0-.594.186-.778.784-.771a5.86,5.86,0,0,1,1.185.044,1.616,1.616,0,0,1,1.275,1.25,1.531,1.531,0,0,1-.791,1.66c-.256.137-.218.216-.056.383.224.231.431.479.642.722.281.324.3.659.05.887s-.57.2-.87-.132c-.347-.383-.687-.772-1.1-1.242" transform="translate(-45.048 -56.105)"/>
        <path id="Trazado_137596" data-name="Trazado 137596" d="M55.242,88.093a.545.545,0,0,1-.38.57.527.527,0,0,1-.622-.2A.148.148,0,0,1,54.2,88.4c-.1-.743-.625-.721-1.173-.669a.662.662,0,0,1-.186,0c-.415-.082-.622.092-.739.5a.542.542,0,0,1-.76.429.567.567,0,0,1-.276-.808c.471-1.25.948-2.5,1.422-3.748a.66.66,0,0,1,.633-.488.649.649,0,0,1,.634.482c.473,1.263.952,2.524,1.427,3.786a1.933,1.933,0,0,1,.059.217" transform="translate(-34.243 -56.13)"/>
        <path id="Trazado_137597" data-name="Trazado 137597" d="M81.547,83.57a2.585,2.585,0,0,1,1.513.524.541.541,0,0,1,.153.756.55.55,0,0,1-.781.152,1.365,1.365,0,0,0-.971-.286c-.177.031-.354.1-.373.3s.161.223.3.278c.31.125.621.245.929.375a1.543,1.543,0,0,1,1.1,1.652,1.675,1.675,0,0,1-1.685,1.347,2.389,2.389,0,0,1-1.755-.679.561.561,0,1,1,.749-.824,1.291,1.291,0,0,0,1.158.354.471.471,0,0,0,.421-.368c.034-.222-.154-.326-.325-.4-.362-.158-.734-.3-1.1-.451a1.338,1.338,0,0,1-.921-1.3A1.437,1.437,0,0,1,81,83.688a4.867,4.867,0,0,1,.55-.118" transform="translate(-53.532 -56.105)"/>
        <path id="Trazado_137598" data-name="Trazado 137598" d="M39.325,86.13c0-.607,0-1.215,0-1.822,0-.477.174-.668.637-.683q.762-.024,1.524,0a.574.574,0,0,1,.608.569c-.007.315-.25.526-.63.539-.174.006-.347,0-.521,0-.468,0-.658.293-.5.752.048.138.149.106.24.108.248.005.5-.009.743.007a.554.554,0,0,1,0,1.107,5.814,5.814,0,0,1-.706,0c-.2-.01-.284.034-.288.26-.01.587-.022.584.559.588a3.735,3.735,0,0,1,.665.038.54.54,0,0,1-.073,1.067c-.582.015-1.165.018-1.747,0-.34-.011-.506-.218-.512-.6-.009-.644,0-1.289,0-1.933" transform="translate(-26.4 -56.134)"/>
        <path id="Trazado_137599" data-name="Trazado 137599" d="M26.81,85.072c.255-.391.481-.744.714-1.092.248-.372.542-.47.838-.289s.337.518.09.908a1.275,1.275,0,0,1-.1.155,3.989,3.989,0,0,0-1,3.246.554.554,0,0,1-.546.689.566.566,0,0,1-.55-.695,4.032,4.032,0,0,0-1.028-3.31,1.3,1.3,0,0,1-.141-.218.557.557,0,0,1,.161-.781.537.537,0,0,1,.775.185c.262.376.5.764.791,1.2" transform="translate(-16.778 -56.118)"/>
        <path id="Trazado_137600" data-name="Trazado 137600" d="M8.819,17.375l-.96.536c.062-.387.1-.719.171-1.046a.94.94,0,0,0-.282-.911c-.234-.236-.463-.477-.71-.732.477-.185,1.033-.045,1.455-.36s.473-.853.778-1.275c.37.468.4,1.173,1.034,1.423.026.178-.116.263-.215.365-.3.311-.6.619-.918.917a.581.581,0,0,0-.214.623.362.362,0,0,1-.139.458" transform="translate(-4.725 -9.122)" fill="#fec566"/>
        <path id="Trazado_137601" data-name="Trazado 137601" d="M12.458,20.283a.435.435,0,0,0,.065-.388c-.165-.374.044-.589.285-.821.388-.375.758-.769,1.136-1.155l1.193.181.088.068A1.828,1.828,0,0,0,14.41,20.8c-.72-.225-1.217-.842-1.952-.514" transform="translate(-8.364 -12.03)" fill="#f9b65f"/>
        <path id="Trazado_137602" data-name="Trazado 137602" d="M97.185,17.317l-1.035.568c-.006-.538.268-1.024.123-1.52s-.676-.729-.974-1.158c.5-.174,1.058-.039,1.477-.37.4-.314.467-.849.757-1.264.36.469.407,1.129.983,1.416.1.162-.027.256-.115.348a8.261,8.261,0,0,1-.846.83.684.684,0,0,0-.313.8.4.4,0,0,1-.056.354" transform="translate(-63.979 -9.113)" fill="#fec567"/>
        <path id="Trazado_137603" data-name="Trazado 137603" d="M100.867,20.21a2.686,2.686,0,0,0-.057-.436.633.633,0,0,1,.258-.706,4.518,4.518,0,0,0,1.129-1.185l1.27.2c-.286.454-.815.666-.975,1.163s.129.99.123,1.5c-.583-.186-1.049-.747-1.748-.534" transform="translate(-67.661 -12.006)" fill="#f9b65f"/>
        <path id="Trazado_137604" data-name="Trazado 137604" d="M70.051,49.988c0,.5.008.992,0,1.488a2.417,2.417,0,0,1-4.833,0q-.02-1.525,0-3.05a2.416,2.416,0,0,1,4.831,0c.011.521,0,1.041,0,1.562" transform="translate(-43.777 -30.919)"/>
        <path id="Trazado_137605" data-name="Trazado 137605" d="M51.946,49.973c0,.5.008.992,0,1.488a2.413,2.413,0,0,1-4.825.075c-.035-1.053-.037-2.109,0-3.161a2.412,2.412,0,0,1,4.823.074c.01.508,0,1.017,0,1.525" transform="translate(-31.616 -30.921)"/>
        <path id="Trazado_137606" data-name="Trazado 137606" d="M38.544,50.05q0,1.562,0,3.124c0,.46-.212.728-.563.726s-.552-.266-.552-.731c0-1.823-.012-3.645.01-5.468,0-.357-.109-.45-.431-.408a2.248,2.248,0,0,1-.446,0,.543.543,0,0,1-.541-.546.511.511,0,0,1,.493-.552,13.542,13.542,0,0,1,1.524,0c.334.017.505.265.507.659,0,1.066,0,2.133,0,3.2" transform="translate(-24.182 -30.998)"/>
        <path id="Trazado_137607" data-name="Trazado 137607" d="M70.491,87.418c-.019-.257-.059-.5.349-.467s.672.182.679.478c.007.313-.245.458-.694.495-.473.038-.31-.284-.334-.505" transform="translate(-47.317 -58.372)" fill="#b8827d"/>
        <path id="Trazado_137608" data-name="Trazado 137608" d="M56.762,89.616c.1.259.179.451.252.644.147.392.146.378-.273.394-.285.011-.4-.046-.251-.341.1-.2.162-.41.272-.7" transform="translate(-37.882 -60.164)" fill="#b17d78"/>
        <path id="Trazado_137609" data-name="Trazado 137609" d="M71.219,52.247c0,.495.008.99,0,1.485a1.3,1.3,0,0,1-2.6.011q-.019-1.5,0-3.006a1.3,1.3,0,0,1,2.6-.011c.013.507,0,1.014,0,1.522" transform="translate(-46.06 -33.2)" fill="#7cd2f7"/>
        <path id="Trazado_137610" data-name="Trazado 137610" d="M53.12,52.258c0,.484.006.968,0,1.451a1.3,1.3,0,0,1-2.593.082q-.044-1.543,0-3.088a1.3,1.3,0,0,1,2.594.067c.009.5,0,.992,0,1.488" transform="translate(-33.906 -33.201)" fill="#7cd2f7"/>
      </g>
    </g>
  </g>
</svg>
