<svg xmlns="http://www.w3.org/2000/svg" xmlns:xlink="http://www.w3.org/1999/xlink" width="64.888" height="64.888" viewBox="0 0 64.888 64.888">
  <defs>
    <clipPath id="clip-path">
      <rect id="Rectángulo_38170" data-name="Rectángulo 38170" width="42.493" height="42.509" fill="none"/>
    </clipPath>
  </defs>
  <g id="_99" data-name="99" transform="translate(0 -0.002)">
    <circle id="Elipse_4823" data-name="Elipse 4823" cx="32.444" cy="32.444" r="32.444" transform="translate(0 0.002)" fill="#ff9fa3"/>
    <g id="Grupo_159170" data-name="Grupo 159170" transform="translate(11 11.002)">
      <g id="Grupo_159170-2" data-name="Grupo 159170" clip-path="url(#clip-path)">
        <path id="Trazado_137668" data-name="Trazado 137668" d="M66.322,57.711a9.455,9.455,0,0,0-1.874-.318c-.516-.095-1.043-.133-1.565-.2-.063-.606-.487-.678-.986-.718-.528-.042-1.055-.118-1.578-.211a.939.939,0,0,1-.882-1.218q.718-5.595,1.466-11.185c.494-3.742.976-7.487,1.477-11.228.088-.655.131-.668.79-.566,1.967.306,3.945.534,5.918.8q4.89.651,9.781,1.288c.482.064.967.112,1.448.185.6.091.653.145.577.737-.273,2.135-.558,4.27-.837,6.4-.638,4.883-1.29,9.766-1.922,14.65-.083.643-.165,1.287-.261,1.929-.051.342-.252.522-.582.435a.717.717,0,0,0-.967.47,10.441,10.441,0,0,0-1.487-.17c-.117-.179-.043-.374-.044-.561,0-1.7,0-3.392,0-5.088,0-.754-.226-.929-.984-.834-1.711.216-3.423.422-5.133.645-.292.038-.562.1-.663.42-.107.339.083.556.325.755.364.3.755.567,1.11.879a.331.331,0,0,1,.016.562,15.9,15.9,0,0,1-2.888,2.108.263.263,0,0,1-.253.029" transform="translate(-40.212 -21.672)" fill="#51517a"/>
        <path id="Trazado_137669" data-name="Trazado 137669" d="M36.114,49.417c.072-.754.089-.789.891-.605.4.092.5.007.546-.4.17-1.469.394-2.932.586-4.4.164-1.249.3-2.5.468-3.752.19-1.438.4-2.872.595-4.309s.364-2.879.553-4.317c.195-1.481.4-2.961.6-4.442.089-.668.168-1.337.259-2.005.022-.16-.046-.2-.189-.223-1.119-.144-2.237-.3-3.355-.442L33.4,24.047l-3.093-.408-3.66-.485c-1.017-.134-2.032-.276-3.051-.395a4.388,4.388,0,0,1-.906-.166c-.246-.084-.352-.014-.382.236-.207,1.672-.409,3.345-.629,5.015S21.22,31.181,21,32.851c-.195,1.482-.361,2.968-.555,4.449-.189,1.438-.4,2.872-.6,4.309q-.279,2.069-.54,4.14a.753.753,0,0,0,.688.821c.77.1,1.538.214,2.309.3.364.042.548.161.37.553a.572.572,0,0,0,0,.219c-.1.683-.1.687-.763.606-.716-.087-1.434-.172-2.147-.279a2.023,2.023,0,0,1-1.6-1.116.451.451,0,0,0-.54-.29c-2.065.228-4.131.443-6.2.663s-4.13.46-6.2.656a2.149,2.149,0,0,1-2.56-2.144Q1.876,38.271,1.078,30.8.546,25.788.015,20.777a2.137,2.137,0,0,1,2.013-2.459c1.173-.112,2.345-.24,3.517-.369.745-.082.745-.088.845.625.309.612.225.8-.436.872-1.069.124-2.139.247-3.211.345-.059.005-.118.01-.176.017-.946.114-1.053.265-.954,1.226Q2.148,26.2,2.705,31.371c.369,3.475.728,6.951,1.113,10.424.052.469.1.938.141,1.408.025.306.146.42.488.38,2.4-.286,4.807-.526,7.212-.779,2.023-.213,4.045-.443,6.07-.64a.563.563,0,0,0,.58-.574q.784-5.989,1.567-11.979c.091-.687.14-1.384.279-2.06a13.245,13.245,0,0,0-.054-4.226c-.163-1.421-.3-2.845-.457-4.267-.06-.553.243-.759.8-.568.7-.03.7-.031.777.7.021.188.033.377.05.589.056-.025.109-.031.122-.057A2.117,2.117,0,0,1,23.767,18.5q4.23.555,8.46,1.107,4.558.6,9.117,1.2c.161.021.322.041.481.071a.7.7,0,0,1,.658.87c-.238,1.856-.487,3.711-.732,5.567q-.6,4.58-1.205,9.16-.6,4.558-1.2,9.116c-.16,1.213-.352,2.422-.465,3.64-.1,1.1-.52,1.285-1.35,1.08a6.053,6.053,0,0,0-1.1-.135c-.351-.02-.459-.165-.345-.5a1.13,1.13,0,0,0,.026-.263" transform="translate(0 -12.122)"/>
        <path id="Trazado_137670" data-name="Trazado 137670" d="M23.419,16.771a2.6,2.6,0,0,1-.264.026c-.4,0-.463.19-.417.562.187,1.535.34,3.073.5,4.61.059.556.109,1.114.179,1.669a10.462,10.462,0,0,1-.223,2.585c-.262,2.163-.56,4.321-.846,6.48-.31,2.349-.614,4.7-.938,7.048-.112.807-.139.775-.964.855-1.832.177-3.661.386-5.491.581-1.508.16-3.017.308-4.524.479a32.2,32.2,0,0,0-3.328.407c-.228.05-.244-.043-.262-.213-.109-1.025-.227-2.049-.337-3.074q-.343-3.161-.681-6.324c-.19-1.787-.371-3.574-.561-5.36q-.336-3.162-.68-6.324c-.066-.615-.137-1.23-.193-1.845-.054-.583.167-.852.749-.919,1.273-.146,2.544-.308,3.82-.412.416-.034.52-.153.395-.528a.7.7,0,0,1,0-.22l1.387-.162c.181.162.13.381.131.58.007.928,0,1.856,0,2.784.005.7.247.9.926.812,1.722-.225,3.448-.42,5.17-.642.3-.039.595-.1.695-.441a.773.773,0,0,0-.307-.778q-.246-.253-.5-.5c-.245-.243-.227-.449.055-.649a15.761,15.761,0,0,1,1.668-1.079A14.848,14.848,0,0,1,21.742,15.4c.181-.022.346.083.527.067.319.023.7-.219.93-.021s.112.612.153.931c.016.131.044.261.067.391" transform="translate(-2.968 -10.402)" fill="#5dc596"/>
        <path id="Trazado_137671" data-name="Trazado 137671" d="M42.632,99.817a20.3,20.3,0,0,0,2.933-2.1c.222-.186.447-.338.025-.594-.4-.241-.738-.579-1.115-.859a.706.706,0,0,1-.3-.809.715.715,0,0,1,.69-.516c1.569-.189,3.136-.4,4.7-.6.276-.036.552-.076.829-.1a.7.7,0,0,1,.829.743q.011,2.763,0,5.527a2.065,2.065,0,0,1-.074.387.689.689,0,0,1-1.167.181l-.526-.466a.526.526,0,0,0-.621-.086c-.212-.034-.25.175-.36.273A21.29,21.29,0,0,1,25.1,104.229c-.758-.355-.854-.637-.465-1.383.361-.691.721-1.384,1.086-2.072.29-.548.609-.667,1.156-.408a16.892,16.892,0,0,0,9.113,1.573,17.138,17.138,0,0,0,6.638-2.122" transform="translate(-16.522 -63.778)"/>
        <path id="Trazado_137672" data-name="Trazado 137672" d="M35.13,5.07a18.262,18.262,0,0,0-4.78,2.438c-.279.2-.332.338-.043.57a6.509,6.509,0,0,1,.628.622.689.689,0,0,1,.181.732.7.7,0,0,1-.621.49c-1.852.233-3.7.472-5.556.7a.712.712,0,0,1-.867-.795c-.01-1.179-.01-2.357-.014-3.535,0-.619.017-1.239.009-1.858a.741.741,0,0,1,1.351-.542c.3.307.618.594.9.913.191.215.315.248.559.046A20.488,20.488,0,0,1,34.737.772,21.037,21.037,0,0,1,49.63,2.134c.572.271.681.61.388,1.18q-.576,1.119-1.167,2.23a.741.741,0,0,1-1.131.384,16.844,16.844,0,0,0-9.157-1.575,15.922,15.922,0,0,0-3.07.621.354.354,0,0,1-.364.1" transform="translate(-16.281 0)"/>
        <path id="Trazado_137673" data-name="Trazado 137673" d="M99.962,113.193c.276-.475.441-.141.621.086a1.118,1.118,0,0,1-.621-.086" transform="translate(-67.648 -76.439)" fill="#5f5f84"/>
        <path id="Trazado_137674" data-name="Trazado 137674" d="M58.31,15.462c.127-.009.221-.145.364-.1l.088.093a.353.353,0,0,1-.452,0" transform="translate(-39.461 -10.392)" fill="#a8cac0"/>
        <path id="Trazado_137675" data-name="Trazado 137675" d="M85.969,50.942A7.064,7.064,0,0,1,78.9,58.032a7.067,7.067,0,1,1,0-14.134,7.063,7.063,0,0,1,7.067,7.043" transform="translate(-48.608 -29.708)"/>
        <path id="Trazado_137676" data-name="Trazado 137676" d="M71.494,91.968c-.041.352-.076.642-.107.933-.019.176-.108.2-.273.176-1.056-.145-2.114-.277-3.172-.41-.218-.027-.441-.021-.655-.063-.146-.028-.4-.018-.387-.21a6.076,6.076,0,0,1,.173-1.078c.039-.175.221-.125.339-.11,1,.124,2,.248,3,.4a8.258,8.258,0,0,1,.827.1c.212.054.329.086.259.262" transform="translate(-45.274 -61.71)"/>
        <path id="Trazado_137677" data-name="Trazado 137677" d="M71.161,24.123c.688.089,1.53.195,2.373.305q1.851.243,3.7.491l3.048.4q1.873.244,3.747.486,1.481.193,2.961.391c.363.048.725.108,1.089.135.268.02.375.125.32.394a6.287,6.287,0,0,0-.113.692c-.026.289-.177.37-.442.333-1.218-.172-2.435-.346-3.654-.508s-2.442-.305-3.661-.466c-1.263-.166-2.523-.347-3.786-.511-1.235-.161-2.471-.309-3.706-.463-.742-.092-1.485-.167-2.223-.286-.351-.056-.692-.18-.722-.642-.036-.555.2-.762,1.067-.754" transform="translate(-47.433 -16.325)" fill="#4a4a75"/>
        <path id="Trazado_137678" data-name="Trazado 137678" d="M13.663,100.428c-.643.015-.953-.223-.967-.683-.012-.4.324-.68.837-.734q3.659-.386,7.318-.782c1.884-.2,3.77-.4,5.653-.6.186-.02.245.041.231.21,0,.059-.007.118-.016.176-.163,1.108-.166,1.074-1.3,1.178-1.857.17-3.71.393-5.565.589-1.5.159-3.01.312-4.516.469-.584.061-1.169.124-1.679.178" transform="translate(-8.591 -66.066)" fill="#4bac7d"/>
        <path id="Trazado_137679" data-name="Trazado 137679" d="M28.413,44.348a7.083,7.083,0,1,1-7.087-7.084,7.1,7.1,0,0,1,7.087,7.084" transform="translate(-9.642 -25.218)"/>
        <path id="Trazado_137680" data-name="Trazado 137680" d="M21.857,85.181c-.043-.267.063-.354.335-.381,2.427-.25,4.851-.515,7.277-.776.57-.061,1.141-.113,1.71-.185.235-.029.357.024.371.284.016.293.059.584.1.875.027.187-.078.23-.227.245q-1.733.18-3.465.363c-1.8.191-3.6.375-5.392.58-.568.065-.563.09-.628-.483-.02-.175-.055-.348-.082-.522" transform="translate(-14.786 -56.732)"/>
        <path id="Trazado_137681" data-name="Trazado 137681" d="M50.369,99.343c1.05-.135,2-.251,2.94-.381.256-.035.211.131.212.27,0,.914,0,1.828,0,2.791-.281-.169-.508-.411-.846-.327a1.664,1.664,0,0,0-.725.558A19.907,19.907,0,0,1,30.2,106.495c-.325-.134-.382-.251-.21-.566.461-.846.437-.827,1.4-.5,7.342,2.516,13.856,1.109,19.539-4.164.669-.621.631-.97-.083-1.529-.137-.108-.27-.222-.482-.4" transform="translate(-20.233 -66.968)" fill="#f3c26e"/>
        <path id="Trazado_137682" data-name="Trazado 137682" d="M31.878,11.648c-.964.122-1.864.243-2.765.346-.634.072-.635.061-.635-.573V8.957c.179.166.305.277.425.394.474.463.762.486,1.258.049A19.432,19.432,0,0,1,35.92,5.832a19.721,19.721,0,0,1,15.119.09c.34.137.457.246.243.62-.464.812-.432.8-1.293.494A18.222,18.222,0,0,0,31.777,9.9c-.739.566-.735.848-.087,1.53.048.051.091.106.187.218" transform="translate(-19.272 -2.957)" fill="#f3c26e"/>
        <path id="Trazado_137683" data-name="Trazado 137683" d="M91.245,61.908a9.482,9.482,0,0,1-.295,1.769c-.066.241-.168.3-.442.257-1.012-.161-2.031-.284-3.05-.4-.634-.071-.656-.058-.633-.673a9.331,9.331,0,0,1,.293-1.954c.061-.242.166-.3.44-.257,1,.161,2,.285,3.006.4.68.076.683.057.68.86" transform="translate(-58.755 -41.036)" fill="#51517a"/>
        <path id="Trazado_137684" data-name="Trazado 137684" d="M76.1,61.231a5.217,5.217,0,0,1,.316-1.806.281.281,0,0,1,.351-.234c.462.065.925.122,1.389.176.278.032.416.139.319.448a5.71,5.71,0,0,0-.253,1.993c.016.341-.038.531-.471.412a5.764,5.764,0,0,0-1.172-.14c-.386-.025-.545-.2-.481-.584a1.6,1.6,0,0,0,0-.264" transform="translate(-51.49 -40.054)" fill="#515179"/>
        <path id="Trazado_137685" data-name="Trazado 137685" d="M106.227,63.86a4.873,4.873,0,0,1-.31,1.811c-.062.176-.142.276-.346.246-.448-.067-.9-.116-1.348-.184-.277-.042-.449-.126-.331-.494a9.393,9.393,0,0,0,.282-2.041c.03-.337.112-.379.423-.305a7.665,7.665,0,0,0,1.176.144c.361.028.528.186.457.559a1.446,1.446,0,0,0,0,.265" transform="translate(-70.283 -42.541)" fill="#515179"/>
        <path id="Trazado_137686" data-name="Trazado 137686" d="M88.086,73.824c.841.1,1.625.184,2.407.287.239.031.406.1.193.41a8.384,8.384,0,0,1-1.5,1.767c-.244.206-.351.119-.474-.071a8.034,8.034,0,0,1-.926-1.941c-.1-.315-.212-.658.3-.452" transform="translate(-59.352 -49.918)" fill="#515179"/>
        <path id="Trazado_137687" data-name="Trazado 137687" d="M92.934,52.087c-.8-.093-1.659-.188-2.517-.294-.289-.036-.4-.118-.19-.439a8.744,8.744,0,0,1,1.518-1.761c.129-.114.22-.233.372-.006a8.585,8.585,0,0,1,1.067,2.268c.046.151.065.315-.249.232" transform="translate(-60.986 -33.471)" fill="#515179"/>
        <path id="Trazado_137688" data-name="Trazado 137688" d="M77.521,72.535a9.979,9.979,0,0,1,1.51.18c.162.03.284.087.317.251a11.724,11.724,0,0,0,.851,2.443,5.6,5.6,0,0,1-2.678-2.874" transform="translate(-52.462 -49.087)" fill="#515179"/>
        <path id="Trazado_137689" data-name="Trazado 137689" d="M83.191,48.839c-.115.33-.377.5-.527.75a6.931,6.931,0,0,0-.569.889c-.2.487-.446.745-1.009.56a4.561,4.561,0,0,0-.783-.1c-.185-.026-.328-.077-.172-.31a5.36,5.36,0,0,1,3.06-1.789" transform="translate(-54.183 -33.051)" fill="#515179"/>
        <path id="Trazado_137690" data-name="Trazado 137690" d="M104.354,53.136a9.963,9.963,0,0,1-1.513-.181c-.161-.03-.289-.083-.318-.249a10.168,10.168,0,0,0-.785-2.361,5.318,5.318,0,0,1,2.617,2.792" transform="translate(-68.85 -34.07)" fill="#515179"/>
        <path id="Trazado_137691" data-name="Trazado 137691" d="M100.9,76a5.815,5.815,0,0,1-3.2,2.047c.051-.341.313-.486.453-.709.289-.46.582-.918.86-1.384a.309.309,0,0,1,.384-.175c.482.082.977.082,1.5.221" transform="translate(-66.117 -51.273)" fill="#515179"/>
        <path id="Trazado_137692" data-name="Trazado 137692" d="M29.508,55.679c-.031-1.02-.033-1.038.8-1.143.934-.117,1.874-.189,2.81-.3.3-.035.446.043.51.368a9.32,9.32,0,0,1,.223,2.1c-.006.195-.034.336-.28.36q-1.691.165-3.38.358c-.315.037-.442-.073-.5-.382a6.7,6.7,0,0,1-.181-1.367" transform="translate(-19.963 -36.701)" fill="#5dc596"/>
        <path id="Trazado_137693" data-name="Trazado 137693" d="M18.623,57.03c0-.1.007-.207,0-.31-.033-.41.094-.626.564-.611a5.639,5.639,0,0,0,1.183-.126c.274-.05.38,0,.365.3a7.329,7.329,0,0,0,.232,2.233c.064.245-.055.289-.231.308-.512.053-1.026.094-1.538.146-.219.022-.272-.118-.321-.284a5.475,5.475,0,0,1-.252-1.652" transform="translate(-12.599 -37.874)" fill="#5dc596"/>
        <path id="Trazado_137694" data-name="Trazado 137694" d="M48.807,54.946c0,.889,0,.892-.806,1.012-.334.049-.671.073-1,.126-.214.034-.25-.067-.252-.244a10.292,10.292,0,0,0-.254-2.271c-.059-.244.023-.307.239-.327.511-.047,1.023-.094,1.533-.159.216-.027.236.111.284.253a4.532,4.532,0,0,1,.261,1.611" transform="translate(-31.45 -35.921)" fill="#5dc596"/>
        <path id="Trazado_137695" data-name="Trazado 137695" d="M35.463,67.567c-.057.161-.122.357-.195.55a7.919,7.919,0,0,1-.913,1.712c-.105.152-.2.246-.379.082a7.983,7.983,0,0,1-1.558-1.968c-.121-.211.006-.26.177-.278.878-.092,1.756-.186,2.635-.27.089-.009.259-.083.232.172" transform="translate(-21.907 -45.598)" fill="#5dc596"/>
        <path id="Trazado_137696" data-name="Trazado 137696" d="M30.709,45.471c-.267.048-.291-.06-.216-.294a8.243,8.243,0,0,1,1.082-2.161c.127-.183.216-.191.374-.042a8.086,8.086,0,0,1,1.53,1.929c.082.145.158.274-.1.3l-2.673.268" transform="translate(-20.611 -29.013)" fill="#5dc596"/>
        <path id="Trazado_137697" data-name="Trazado 137697" d="M25.283,71.355a5.913,5.913,0,0,1-3.308-2.2c.618-.055,1.15-.1,1.682-.148.125-.011.18.086.223.181a11.025,11.025,0,0,0,1.4,2.172" transform="translate(-14.871 -46.696)" fill="#5dc496"/>
        <path id="Trazado_137698" data-name="Trazado 137698" d="M22.819,43.667a14.969,14.969,0,0,0-.84,2.4c-.026.107-.1.133-.193.144l-1.613.189a5.3,5.3,0,0,1,2.646-2.732" transform="translate(-13.652 -29.551)" fill="#5dc496"/>
        <path id="Trazado_137699" data-name="Trazado 137699" d="M40.722,42.513a4.262,4.262,0,0,1,2.123,1.005,7.468,7.468,0,0,1,.781.779c.146.158.2.305-.118.323-.4.022-.791.066-1.187.1-.152.014-.283.016-.363-.162a14.823,14.823,0,0,0-1.236-2.048" transform="translate(-27.558 -28.77)" fill="#5dc596"/>
        <path id="Trazado_137700" data-name="Trazado 137700" d="M43.9,68.958a9.28,9.28,0,0,0,.84-2.183c.038-.149.051-.276.254-.294.44-.039.876-.106,1.315-.154.115-.013.275-.021.178.176a5.33,5.33,0,0,1-2.38,2.469c-.044.023-.114-.005-.208-.013" transform="translate(-29.706 -44.882)" fill="#5dc596"/>
      </g>
    </g>
  </g>
</svg>
