<svg id="Grupo_158978" data-name="Grupo 158978" xmlns="http://www.w3.org/2000/svg" xmlns:xlink="http://www.w3.org/1999/xlink" width="20.34" height="20.336" viewBox="0 0 20.34 20.336">
  <defs>
    <clipPath id="clip-path">
      <rect id="Rectángulo_38084" data-name="Rectángulo 38084" width="20.34" height="20.336" fill="none"/>
    </clipPath>
  </defs>
  <g id="Grupo_158978-2" data-name="Grupo 158978" clip-path="url(#clip-path)">
    <path id="Trazado_136002" data-name="Trazado 136002" d="M88.5,20.248a6.458,6.458,0,0,1-1.219.089l0-.012a1.024,1.024,0,0,1-.133-.74q0-8.706,0-17.412c0-.541,0-1.082,0-1.623a.721.721,0,0,1,.133-.537l0-.012A6.439,6.439,0,0,1,88.5.09a.918.918,0,0,1,.128.66q0,3.226,0,6.452a4.131,4.131,0,0,0,.019.567A1.123,1.123,0,0,0,89.68,8.8a4.113,4.113,0,0,0,.567.019q3.226,0,6.452,0a.918.918,0,0,1,.66.128,8.1,8.1,0,0,1,0,2.437.918.918,0,0,1-.66.128q-3.226,0-6.452,0a4.112,4.112,0,0,0-.567.019,1.123,1.123,0,0,0-1.031,1.031,4.15,4.15,0,0,0-.019.567q0,3.226,0,6.452a.918.918,0,0,1-.128.66" transform="translate(-77.112 -0.001)" fill="#fe1f3d"/>
    <path id="Trazado_136003" data-name="Trazado 136003" d="M107.79,9.634H100.4a1.286,1.286,0,0,1-1.467-1.467q0-3.7,0-7.392a8.441,8.441,0,0,1,2.454.592,1.149,1.149,0,0,1,.116.668c0,1.487,0,2.973,0,4.46,0,.55.02.569.57.57,1.487,0,2.973,0,4.46,0a1.148,1.148,0,0,1,.668.116,8.624,8.624,0,0,1,.591,2.453" transform="translate(-87.542 -0.684)" fill="#e1def3"/>
    <path id="Trazado_136004" data-name="Trazado 136004" d="M98.929,107.784q0-3.7,0-7.392a1.285,1.285,0,0,1,1.466-1.467h7.392a8.646,8.646,0,0,1-.591,2.453,1.147,1.147,0,0,1-.668.116c-1.487,0-2.973,0-4.46,0-.55,0-.569.02-.569.57,0,1.487,0,2.973,0,4.46a1.148,1.148,0,0,1-.116.668,8.484,8.484,0,0,1-2.454.592" transform="translate(-87.542 -87.537)" fill="#e1def3"/>
    <path id="Trazado_136005" data-name="Trazado 136005" d="M125.927,11.729c-1.853,0-3.705.006-5.558.017-.213,0-.277-.063-.275-.275.012-1.853.013-3.705.018-5.558a10.162,10.162,0,0,1,5.815,5.816" transform="translate(-106.27 -5.232)" fill="#3340d7"/>
    <path id="Trazado_136006" data-name="Trazado 136006" d="M120.111,125.918c0-1.853-.006-3.705-.017-5.558,0-.213.062-.277.275-.275,1.852.012,3.7.013,5.558.018a10.169,10.169,0,0,1-5.815,5.815" transform="translate(-106.27 -106.262)" fill="#3340d7"/>
    <path id="Trazado_136007" data-name="Trazado 136007" d="M10.171.028V20.341a6.432,6.432,0,0,1-1.221-.08.913.913,0,0,1-.127-.661q-.005-3.208,0-6.417c0-.149,0-.3,0-.447a1.122,1.122,0,0,0-1.2-1.2c-1.137-.02-2.274-.005-3.411-.006-1.164,0-2.328,0-3.493,0a.851.851,0,0,1-.62-.127,8.041,8.041,0,0,1,0-2.439.915.915,0,0,1,.661-.127q3.208-.005,6.417,0c.149,0,.3,0,.447,0a1.122,1.122,0,0,0,1.2-1.2c.02-1.137.005-2.274.006-3.411,0-1.164,0-2.329,0-3.493A.851.851,0,0,1,8.95.108a6.4,6.4,0,0,1,1.221-.08" transform="translate(0 -0.016)" fill="#fe6378"/>
    <path id="Trazado_136008" data-name="Trazado 136008" d="M9.664.8q0,3.718,0,7.435A1.26,1.26,0,0,1,8.242,9.654H.807a8.218,8.218,0,0,1,.62-2.442,1.019,1.019,0,0,1,.665-.127c1.476,0,2.953,0,4.429,0,.551,0,.571-.021.571-.571,0-1.476,0-2.953,0-4.429a1.016,1.016,0,0,1,.127-.665A8.214,8.214,0,0,1,9.664.8" transform="translate(-0.714 -0.705)" fill="#f3f3f5"/>
    <path id="Trazado_136009" data-name="Trazado 136009" d="M.808,98.927H8.243a1.259,1.259,0,0,1,1.421,1.421q0,3.718,0,7.436a8.42,8.42,0,0,1-2.442-.621A1.016,1.016,0,0,1,7.1,106.5c0-1.476,0-2.953,0-4.429,0-.55-.021-.57-.571-.571-1.476,0-2.953,0-4.429,0a1.018,1.018,0,0,1-.665-.127,8.207,8.207,0,0,1-.62-2.443" transform="translate(-0.715 -87.54)" fill="#f3f3f5"/>
    <path id="Trazado_136010" data-name="Trazado 136010" d="M11.988,6.188c0,1.815,0,3.63.01,5.444,0,.286-.075.362-.36.359-1.815-.014-3.63-.009-5.444-.01A9.943,9.943,0,0,1,10.67,6.793a5.844,5.844,0,0,1,1.318-.6" transform="translate(-5.48 -5.476)" fill="#2681fe"/>
    <path id="Trazado_136011" data-name="Trazado 136011" d="M6.2,120.071c1.815,0,3.63,0,5.444-.01.285,0,.362.074.36.359-.014,1.815-.009,3.63-.01,5.444A9.885,9.885,0,0,1,6.2,120.071" transform="translate(-5.482 -106.242)" fill="#2681fe"/>
  </g>
</svg>
