<svg xmlns="http://www.w3.org/2000/svg" width="112.993" height="88.134" viewBox="0 0 112.993 88.134">
  <g id="Grupo_82652" data-name="Grupo 82652" transform="translate(-356.176 -142.342) rotate(5)">
    <path id="Trazado_114932" data-name="Trazado 114932" d="M410.376,132.093a14.182,14.182,0,0,0,1.663-.015c.473-.056.8.219,1.2.327a4.529,4.529,0,0,0,1.16.021h1.332c.525.641,1.244.305,1.86.3.477,0,.732.412,1.195.384.409-.025.894-.214,1.224.246a.216.216,0,0,0,.136.067c.475.069.99-.16,1.427.173.4.3.844.125,1.266.152.383.025.582.483,1.03.355a1.015,1.015,0,0,1,.883.284c.22.158.666-.037.966.061.231.076.375.343.7.321a1.927,1.927,0,0,1,1.382.292c.3.217.849-.146,1.216.284.1.117.411.048.622.081.42.064.914-.186,1.25.179.3.328.76-.046,1.041.335.229.31.616.1.93.147s.709-.036.942.123a1.041,1.041,0,0,0,.751.208,1.262,1.262,0,0,1,.878.313c.231.153.6-.02.9.249a1.221,1.221,0,0,0,.937.091c.5-.117.718.436,1.2.372.4-.053.886-.192,1.217.264a.346.346,0,0,0,.305.042c.635-.218,1.069.541,1.695.339.26.549.963.108,1.266.565.028.043.081.1.124.1a8.833,8.833,0,0,1,1.163.017c.351.054.612.465,1.028.317.486-.173.712.45,1.2.351a6,6,0,0,1,1.162-.015c.3.393.771.283,1.16.417.144.049.254.208.4.241.462.108.967-.164,1.414.216.372.315.85.072,1.277.116.331.034.463.444.864.358a4.348,4.348,0,0,1,.987,0c.344.613,1.035.094,1.477.462.468.39,1.055.149,1.586.171.391.017.578.472,1.032.364a3.228,3.228,0,0,1,.961.062c.384.591,1.242-.1,1.589.586a8.085,8.085,0,0,1,1.494.022c.4.076.723.409,1.2.324.377-.066.79.054,1.159-.03.451-.1.648.354,1.032.353s.849-.105,1.125.074a1.288,1.288,0,0,0,.9.25,2.275,2.275,0,0,1,1.206.315c.367.158.889-.139,1.19.342.574.165.919-.185,1.256-.557.029-.032.087-.073.114-.063.047.018.111.07.115.112a3.894,3.894,0,0,1,.024.656,1.131,1.131,0,0,0,.446,1.155c.454.317.146.814.2,1.228.005.038-.164.128-.259.142-.163.024-.333,0-.5.008a.829.829,0,0,0-.875.911c-.017.326.055.67-.3.878.017.438-.476.689-.391,1.18.062.357-.33.6-.362,1.021a1.961,1.961,0,0,1-.658,1.213c-.167.151-.137.162-.01.588a.645.645,0,0,1-.043.443c-.072.141-.23.236-.341.36s-.262.189-.242.4a1.688,1.688,0,0,1-.018.821c-.108.231-.375.385-.312.707.02.1.026.287-.023.312-.885.448-.4,1.518-.972,2.1.136.423-.206.692-.338,1.026-.153.389-.466.724-.332,1.2.067.237-.157.39-.213.573-.135.444-.569.79-.449,1.315a1.513,1.513,0,0,0-.344,1.194c.009.137-.106.285-.173.423a2.475,2.475,0,0,1-.362.677c-.277.277.068.683-.23.906-.275.205-.192.479-.231.742-.054.356-.377.6-.357,1.03.015.325-.322.612-.334,1.026a1.939,1.939,0,0,1-.5.944.426.426,0,0,0,.07.689c.131.1.1.128.026.246a12.785,12.785,0,0,0-.965,1.93c-.071.183-.317.3-.269.554a1.25,1.25,0,0,1-.537,1.28.417.417,0,0,0-.124.276,2.761,2.761,0,0,1-.027.823c-.094.232-.371.376-.322.705a.539.539,0,0,1-.128.434,1.4,1.4,0,0,0-.528,1.453c.049.294-.154.485-.263.725a2.552,2.552,0,0,0-.416,1.5c.057.362-.465.582-.329,1.028.1.338-.155.584-.29.874a2.673,2.673,0,0,0-.03,1.15,2.33,2.33,0,0,1-.616,1.409.607.607,0,0,1-.4.224,6.909,6.909,0,0,1-1,.005.423.423,0,0,1-.277-.123c-.308-.357-.812-.569-.732-1.2.044-.346-.289-.6-.607-.648s-.66,0-.862-.341c-.411.086-.556-.278-.807-.467-.122-.091-.28-.131-.411-.211a5.249,5.249,0,0,1-1.33-.836,1.72,1.72,0,0,0-.953-.471c-.334-.054-.644-.054-.858-.356-.631.073-1.072-.343-1.593-.579a3.867,3.867,0,0,0-.826-.4,1.416,1.416,0,0,1-.887-.306c-.2-.193-.647.1-.886-.252-.159-.232-.513-.068-.7-.341-.085-.12-.394-.1-.6-.113-.275-.02-.6.075-.813-.043a1.871,1.871,0,0,0-.7-.34c-.087-.01-.149-.2-.238-.215a7.015,7.015,0,0,1-1.11-.145,5.089,5.089,0,0,1-.929-.568.429.429,0,0,0-.156-.025c-.361-.06-.759.15-1.083-.207-.258-.284-.628-.1-.944-.117-.334-.022-.463-.443-.864-.36-.238.049-.568.151-.768-.121-.248-.338-.687-.04-.889-.249a1.164,1.164,0,0,0-.894-.284c-.576-.041-1.067-.534-1.694-.327-.313-.416-.767-.327-1.194-.333-.277,0-.655.113-.812-.024a1.9,1.9,0,0,0-1.041-.34c-.218-.045-.378-.332-.7-.313a1.947,1.947,0,0,1-1.382-.293c-.3-.216-.86.153-1.209-.295-.069-.089-.3-.057-.463-.066-.435-.025-.871-.042-1.307-.062-.321-.47-.9-.083-1.2-.3a2.46,2.46,0,0,0-1.549-.3c-.423-.023-.9.136-1.194-.334l-1.331,0c-.3-.471-.774-.3-1.2-.334-.535-.049-1.162.223-1.588-.158-.462-.414-1.141.167-1.5-.445-.034-.058-.2-.049-.3-.059-.737-.07-1.519.2-2.2-.323-.1-.08-.326.007-.49-.014-.572-.074-1.22.253-1.7-.315-.117.1-.336.3-.339.3-.6-.648-1.38-.32-2.039-.272-.557.04-.862-.422-1.365-.386a12.247,12.247,0,0,1-1.312-.035c-.437-.519-1.028-.207-1.546-.287-.395-.061-.642.059-.59.514a10.631,10.631,0,0,1-1.43,1.388,6.039,6.039,0,0,1-1.519.733c-.3.1-.467.5-.852.361-.08.187-.116.487-.248.538a2.549,2.549,0,0,0-1.031.727c-.678.1-1.124.786-1.861.733-.338-.025-.448.277-.645.448-.324.282-.567.695-1.108.561a.319.319,0,0,0-.261.146c-.249.478-.889.414-1.155.826s-.8.3-1.057.7-.9.354-1.161.822c-.058.1-.274.146-.422.159-.275.025-.561-.031-.83.015-.53.091-.876-.313-1.315-.46a.623.623,0,0,1-.416-.645,5.357,5.357,0,0,1,.025-.993c.1-.338.378-.618.511-.951a6.511,6.511,0,0,0,.51-1.3,6.086,6.086,0,0,1,.8-1.658c.513-.952.9-1.969,1.493-2.878-.094-.41.456-.571.362-1.034a1.3,1.3,0,0,1,.317-.846,1.537,1.537,0,0,0,.336-1.037c-.01-.192.281-.272.337-.523a1.93,1.93,0,0,1,.465-.958c.36-.338-.02-.858.434-1.184.245-.175.193-.745.434-.95.406-.346.158-.859.425-1.165.253-.289.189-.74.554-.943-.085-.692.376-1.174.666-1.722.216-.41.271-.9.649-1.229-.11-.463.226-.8.331-1.192.083-.314.511-.457.375-.847.343-.205.282-.544.329-.868.027-.182.248-.335.377-.505.094-.126.286-.3.254-.38-.22-.513.439-.747.35-1.2.39-.246.291-.8.666-1.056-.085-.416.475-.589.379-1.009.513-.231.127-.81.455-1.151a2.012,2.012,0,0,0,.478-.956c.066-.323.492-.47.362-.853.336-.2.328-.525.338-.864a.625.625,0,0,1,.254-.385c.573-.447.527-1.264,1.056-1.731-.141-.586.277-.994.475-1.469a6.269,6.269,0,0,1,.612-1.236,2.4,2.4,0,0,0,.272-.9,4.459,4.459,0,0,1,.526-.946c.161-.265.146-.628.455-.81a2.064,2.064,0,0,1,.291-1.043,2.291,2.291,0,0,1,.552-.771c.212-.241.135-.641.466-.808-.136-.39.369-.513.356-.851s.342-.407.464-.641c.191-.363.365-.736.532-1.111.072-.161.145-.27.349-.259.091.005.254-.062.267-.121a.888.888,0,0,0-.033-.445c-.032-.094-.188-.147-.218-.241-.055-.174-.5-.165-.238-.463a1.859,1.859,0,0,1,.506-.379c.085-.047.218-.008.329-.008Z"/>
    <path id="Trazado_114933" data-name="Trazado 114933" d="M372.947,174.512a6.136,6.136,0,0,1,.006-.665.684.684,0,0,1,.151-.428,1.608,1.608,0,0,0,.538-1.29c.048-.449.372-.851.316-1.364-.054-.493.038-1-.026-1.494-.063-.473.229-.8.325-1.2a5.85,5.85,0,0,0,.022-1.325c0-.444.011-.888-.005-1.331-.007-.2.082-.331.254-.341a10.741,10.741,0,0,1,1.163,0c.087,0,.243.111.242.169,0,.6.616.741.831,1.159a8.9,8.9,0,0,0,.7,1.048,8.909,8.909,0,0,1,.807,1.656c.07.166.117.277.312.293s.355-.073.352-.237c-.007-.383.179-.476.508-.432.478-.647,1.355-.965,1.53-1.861.353-.352.694-.718,1.062-1.054a2.231,2.231,0,0,0,.7-1.043c.635.1.485-.576.8-.814a4.931,4.931,0,0,0,.937-.939,5.945,5.945,0,0,0,.473-.964c.392-.781.78-1.564,1.19-2.335.17-.321.236-.7.576-.933a.53.53,0,0,0,.218-.4,1.526,1.526,0,0,1,.322-.874c.133-.257,0-.6.27-.893.313-.345-.165-.993.371-1.334a2.537,2.537,0,0,1,.363-1.183c.164-.309-.157-.763.223-1.072.321-.261-.084-.786.353-1.018.045-.024.1-.078.1-.119.008-.388,0-.776.006-1.164,0-.327.447-.469.339-.863s.123-.7.305-1.035c.168-.311-.173-.79.191-1.078s-.051-.778.342-1.032a.454.454,0,0,0,.15-.266c.08-.358-.165-.762.2-1.086.29-.256.04-.639.145-.935.14-.392.465-.726.329-1.194.42-.235.195-.735.383-1a2.785,2.785,0,0,0,.3-.883c.115-.333.482-.574.622-.9a3.205,3.205,0,0,0,.1-.956c.467-.219.055-.773.362-1.006.292-.221.2-.582.441-.835.274-.283-.017-.869.447-1.135,0-.428.519-.693.355-1.2-.04-.127.235-.332.3-.523.14-.388.521-.711.341-1.19.388-.247.285-.8.666-1.055-.088-.416.474-.59.376-1.009.338-.282.4-.721.616-1.077s.359-.738.554-1.1a2.1,2.1,0,0,0,.12-.449c.039-.15.031-.371.128-.437.652-.445.842-1.247,1.4-1.761a.37.37,0,0,0,.033-.562,2.491,2.491,0,0,0-.353-.351c-.332-.252-.188-.59-.186-.9.484-.3.3-.788.3-1.2a.864.864,0,0,1,.692-.946c.243-.069.458-.29.7-.31a5,5,0,0,1,1.478.04,2.787,2.787,0,0,1,.923.569c.213.155.34.427.68.394.054-.006.166.235.2.374.042.2-.055.443.166.6.172.12.066.208.011.359-.157.434-.584.767-.5,1.289.031.2-.079.285-.239.36a14.6,14.6,0,0,0-1.723.661c-.084.053-.268.043-.283.1-.22.809-1.121,1.272-1.1,2.214,0,.229-.265.453-.3.695-.049.325-.471.465-.354.86s-.467.588-.367,1.008c-.35.208-.229.57-.315.871a1.574,1.574,0,0,1-.513.613c-.221.2,0,.278.093.351.13.106.153.2-.012.235-.333.069-.643.108-.552.585a2.344,2.344,0,0,1,0,.664c-.016.15-.041.369-.14.43-.628.384-.432,1.176-.854,1.652.117.525-.286.885-.46,1.307-.091.223-.214.325.03.482.117.076.067.126-.035.241a3.112,3.112,0,0,0-.855,1.968c-.032.258-.29.364-.308.536-.049.477-.578.806-.38,1.353a.371.371,0,0,1-.106.45c-.308.232-.31.646-.523.953-.152.222.032.62-.29.881-.147.12.433.289.077.586-.181.152-.217.467-.374.664-.1.124-.128.144.008.248a.432.432,0,0,1,.09.688,2.206,2.206,0,0,0-.521,1.767c.112.464-.4.618-.362,1.032a1.82,1.82,0,0,1-.1,1.107,1.232,1.232,0,0,0-.213.916c.042.5-.592.818-.343,1.36-.47.3-.356.773-.32,1.191a.926.926,0,0,1-.381.849c-.163.139-.341.278-.3.54a1.408,1.408,0,0,1-.332,1.193c.128.42-.25.681-.321,1.029s-.51.586-.354,1.027a.344.344,0,0,1-.11.278,12.232,12.232,0,0,0-1.544,2.691c-.053.084-.038.248-.1.282-.255.134-.705.055-.566.576-.208.182-.253.462-.379.669a8.723,8.723,0,0,1-1.023,1.082c-.21.237-.594.368-.588.749.006.453-.44.224-.563.409-.171.256-.185.6-.476.8-.223.158-.374.418-.6.573-.423.293-.392.866-.809,1.176a10.129,10.129,0,0,0-1.068,1.046c-.353.353-.72.694-1.05,1.067a.632.632,0,0,0-.073.441c.006.058.165.135.259.142.276.018.658-.108.809.031a4.474,4.474,0,0,0,.971.505,2.594,2.594,0,0,0,1.3.5,2.12,2.12,0,0,1,.954.476.722.722,0,0,1,.351.687c-.014.347-.113.473-.471.49-.18.008-.339.254-.531.3-.352.09-.759-.128-1.073.231-.261.3-.775-.092-1.029.348-.051.089-.293.091-.447.094-.554.01-1.11-.018-1.663.01-.576.029-1.209-.194-1.693.327-.61,0-1.22.012-1.829-.005a.8.8,0,0,0-.725.278.311.311,0,0,1-.295.052c-.609-.566-1.354-.23-2.031-.333a.309.309,0,0,1-.207-.207C372.934,175.178,372.947,174.844,372.947,174.512Z"/>
    <path id="Trazado_114937" data-name="Trazado 114937" d="M390.932,189.836c-.073.07-.141.189-.222.2a1.518,1.518,0,0,1-.661,0c-.5-.172-.781.306-1.2.342-.379.032-.851-.09-1.117.094-.312.215-.626.145-.9.266a2.583,2.583,0,0,0-.809.426c-.219.231-.5.151-.715.323-.2.158-.5.2-.668.372-.237.24-.5.158-.76.193a.493.493,0,0,0-.266.152,4.544,4.544,0,0,1-.9.62,2.2,2.2,0,0,1-.913.234c-.138.031-.228.268-.368.3-.208.054-.526.108-.645,0-.357-.33-.943-.319-1.168-.807-.042-.092-.059-.281-.01-.316.458-.323.274-1.188,1.128-1.225.366-.016.512-.71,1.049-.651.659-.814,1.718-.969,2.523-1.536.355-.25.932.124,1.149-.444.367-.065.8.177,1.1-.143.336-.35.728-.154,1.092-.179a1.359,1.359,0,0,0,.732-.263.706.706,0,0,1,.89.09,1.855,1.855,0,0,0,.782.531c.539.15.594.817.868,1.256C390.954,189.712,390.932,189.781,390.932,189.836Z"/>
    <path id="Trazado_114940" data-name="Trazado 114940" d="M398.6,187.048h3.16c.221,0,.56-.09.644.017.29.375.7.224,1.027.363.227.1.447.24.689.345s.391.383.6.565c.184.161.305.383.159.559-.161.194-.286.492-.622.483-.166,0-.333,0-.5,0-.942,0-1.885.006-2.827,0-.424,0-.885.126-1.2-.324-.037-.052-.225.026-.32-.012-.428-.175-.63.64-1,.286a1.286,1.286,0,0,0-1.058-.278c-1.108-.007-2.217,0-3.326,0a.839.839,0,0,1-.762-.858c-.005-.219,0-.373.283-.49.422-.178.832-.441,1.244-.609a4.161,4.161,0,0,1,1.48-.039Z"/>
    <path id="Trazado_114941" data-name="Trazado 114941" d="M467.4,138.088c-.222,0-.486.075-.655-.019a1.866,1.866,0,0,1-.53-.583.326.326,0,0,1,.064-.293c.3-.326.615-.635.926-.95-.064-.554.464-.7.724-1.028.274-.344.676-.6.917-.958.3-.443.85-.441,1.175-.809a5,5,0,0,1,.95-.925,2.972,2.972,0,0,1,.821-.408,1.866,1.866,0,0,1,1.144.009,2.12,2.12,0,0,1,.9.887,1.45,1.45,0,0,1-.04.957.733.733,0,0,1-.463.439,1.48,1.48,0,0,0-1.12,1.037c-.069.168-.117.327-.291.3a1.041,1.041,0,0,0-.99.437c-.278.325-.793.277-1.052.7a1.053,1.053,0,0,1-.9.6C468.088,138.089,468.088,138.089,467.4,138.088Z"/>
    <path id="Trazado_114942" data-name="Trazado 114942" d="M483.02,156.739c-.221,0-.442.006-.662-.005-.041,0-.091-.066-.116-.113-.234-.427-.758-.02-1.013-.35-.153-.2-.409-.132-.561-.242-.338-.246-.552-.671-1.043-.689-.291-.4-.767-.549-1.143-.829-.35-.262-.618-.631-.949-.922-.445-.392-.751-.945-1.332-1.177s-.878-.794-1.336-1.171a.872.872,0,0,1-.318-.36c-.034-.126.068-.416.118-.418.48-.017.962.012,1.443.028.2.354.717.2.927.579.13.237.395.3.663.387.221.072.4.318.694.323.039,0,.092.066.115.113.237.482.866.421,1.147.822.205.292.551.295.8.472a9.435,9.435,0,0,1,.712.69c.43.384,1.054.4,1.5.8.166.149.461.175.675.359a1.355,1.355,0,0,1,.524,1.284c-.041.334-.076.414-.346.419C483.351,156.742,483.185,156.739,483.02,156.739Z"/>
    <path id="Trazado_114943" data-name="Trazado 114943" d="M419.856,194.042a1.784,1.784,0,0,1-.655-.016,1.1,1.1,0,0,1-.6-.5.7.7,0,0,1,.086-.77c.237-.231.432-.569.714-.671a1.63,1.63,0,0,0,.673-.377c.422-.436.856-.86,1.285-1.289.616-.05.846-.622,1.272-.929.248-.179.61-.16.8-.469a.644.644,0,0,1,.7-.315.893.893,0,0,0,.33,0,1.592,1.592,0,0,1,1.673.746c.081.108.122.4.074.426-.317.193-.273.562-.447.822-.2.305-.588.254-.8.469-.269.276-.744.18-.928.574-.156.335-.627.2-.788.473-.269.463-.866.421-1.157.814s-.915.325-1.166.809c-.056.107-.26.17-.4.191A4.55,4.55,0,0,1,419.856,194.042Z"/>
    <path id="Trazado_114944" data-name="Trazado 114944" d="M480.22,140.1a4.075,4.075,0,0,1,1.473.039c.427.177.731.66,1.072,1.023.178.19.474.317.424.655-.047.311.173.778-.177.895a1.182,1.182,0,0,1-1.1-.088,1.219,1.219,0,0,0-1.352-.066c-.129.057-.21.238-.357.032a.572.572,0,0,0-.739-.155c-.48.409-1.016.283-1.545.315-.417.026-.9-.175-1.2.309-.357-.6-1.064-.065-1.46-.44-.279-.265-.727-.194-.941-.573-.11-.193-.177-.414-.006-.571.156-.144.321-.351.5-.375a1.667,1.667,0,0,0,.886-.307c.273-.207.8.12,1.08-.16a.908.908,0,0,1,.915-.2c.482.087.8-.254,1.2-.332a7.082,7.082,0,0,1,1.328-.018Z"/>
    <path id="Trazado_114947" data-name="Trazado 114947" d="M435.229,183.917c-.007.4-.007.4-.46.464-.109.015-.259-.044-.326.01-.411.335-.74.822-1.386.666-.633.826-1.829.876-2.424,1.757l-1.092.567c-.8.214-1.191-.374-1.632-.846a.323.323,0,0,1,0-.316c.416-.443.838-.884,1.287-1.293.389-.353.649-.891,1.266-.942a2.566,2.566,0,0,1,1.158-.808c.377-.157.693-.465,1.129-.479.249-.42.678-.369,1.028-.293a2.1,2.1,0,0,1,1.235.608,1,1,0,0,1,.205.409A2.341,2.341,0,0,1,435.229,183.917Z"/>
    <path id="Trazado_114949" data-name="Trazado 114949" d="M438.641,182.052c-.33,0-.662-.021-.99.006s-.484-.223-.65-.418c-.084-.1-.137-.351-.075-.428a3.993,3.993,0,0,1,.817-.81c.2-.138.5.046.775-.119a7.2,7.2,0,0,1,1.938-.9,7.279,7.279,0,0,0,1.786-.865c.431-.242.854-.046,1.272-.125.349-.066.471.466.855.337.027-.009.115.061.116.1.014.481.026.961.013,1.442,0,.043-.176.079-.268.122-.23.11-.459.222-.688.333a2.771,2.771,0,0,1-.691.318c-.267.044-.521.016-.73.26-.078.092-.3.1-.45.08a1.59,1.59,0,0,0-1.026.329C439.964,182.081,439.948,182.053,438.641,182.052Z"/>
    <path id="Trazado_114950" data-name="Trazado 114950" d="M407.9,188.047a1.013,1.013,0,0,1,.864.311c.164.158.531-.1.764.132.077.076.148.195.24.215.363.078.8-.162,1.094.143a.9.9,0,0,0,.915.181c.633-.122,1.055.535,1.672.385a7.488,7.488,0,0,1,2.306,1.633,1.036,1.036,0,0,1,.086.9.962.962,0,0,1-.978.422c-.329-.138-.633-.336-.954-.494a2.914,2.914,0,0,0-1.617-.519c-.216.021-.45-.223-.69-.3-.195-.067-.516,0-.6-.121-.189-.275-.494-.163-.71-.327-.491-.373-1.133-.488-1.614-.892-.61.179-.88-.3-1.227-.634-.076-.072-.183-.159-.191-.247a1.477,1.477,0,0,1,.041-.641c.033-.088.273-.1.422-.141A.775.775,0,0,1,407.9,188.047Z"/>
    <path id="Trazado_114963" data-name="Trazado 114963" d="M410,133.425c.37.022.787-.124,1.044.294a14.879,14.879,0,0,0,1.648.025,2.47,2.47,0,0,1,1.2.331c.33.135.772-.146,1.07.232.034.044.078.111.118.112.388.009.779-.02,1.165.013.36.031.588.425,1.031.339a2.424,2.424,0,0,1,1.691.32c.437-.182.629.361,1.028.341.368-.019.753-.1,1.061.273.093.114.418.022.632.056.416.065.892-.184,1.247.2.285.307.784-.08,1.03.346a.383.383,0,0,0,.278.113c.388.013.776.008,1.164.009.235.42.654.309,1.019.353.233.428.764.155,1,.374.446.413.934.2,1.4.266a1.423,1.423,0,0,1,.768.169,2.068,2.068,0,0,0,1.783.484c.468-.133.571.5,1.037.369.281-.078.671-.15.895.22.025.041.1.1.125.087.735-.227,1.318.455,2.028.336.407-.068.576.484,1.033.35a.981.981,0,0,1,.892.259c.211.163.635.049.964.059.371.449.886.352,1.36.321a.867.867,0,0,1,.7.346c.477-.171.794.258,1.2.317a2.659,2.659,0,0,1,1.211.318c.316.206.823-.1,1.215.3.227.226.765-.056,1,.371.016.029.1.025.151.029.419.036.9-.147,1.2.327.387,0,.775.015,1.163,0,.34-.01.463.433.864.353.3-.058.672-.138.895.23a.213.213,0,0,0,.13.083c.364.075.783-.175,1.1.157s.753.219,1.089.153c.462-.091.622.406,1.034.371a7.609,7.609,0,0,1,1.134.062c.381.6,1.227-.087,1.6.579.041.072.316.013.481.013h1.5c.234.592.975.092,1.265.58a.542.542,0,0,0,.226-.071c.092-.048.193-.183.257-.164.294.085.57.238.866.313.257.065.635-.041.777.106a.957.957,0,0,0,.914.224c.461-.054.71.453,1.2.361a5.32,5.32,0,0,1,1.329-.009c.361.025.588.43,1.031.342a5.5,5.5,0,0,1,1.154,0c.36.524.913.21,1.367.323a6.768,6.768,0,0,1,1,.386c.143.061.1.128-.015.238-.32.293-.668.564-.567,1.109.026.136-.232.341-.384.49s-.31.313-.257.561c.067.318-.119.507-.325.7a4.852,4.852,0,0,0-.674,1.384c-.018.106.013.239-.042.315-.245.338-.657.518-.66,1.074a2.118,2.118,0,0,1-.524,1.1c-.239.321.065.748-.323,1.051-.21.165-.205.578-.451.8a2.168,2.168,0,0,1-.528,1.443c-.158.274-.068.53-.148.775-.061.192-.293.35-.3.533a1.216,1.216,0,0,1-.332.878c-.158.16.13.563-.142.758-.292.209-.125.651-.466.812a3.182,3.182,0,0,1-.706,1.705c.146.619-.55,1.052-.37,1.679-.567.216-.137.843-.46,1.137-.358.326-.128.728-.215,1.082-.035.144-.233.261-.238.4-.016.44-.516.682-.426,1.165.072.384-.476.581-.335,1.029.106.339-.45.471-.328.859.1.318-.135.5-.329.694.172.434-.523.576-.339,1.029.15.368-.437.511-.32.857.167.494-.49.7-.354,1.2.1.37-.366.587-.36,1.025a2.393,2.393,0,0,1-.515,1.1c-.054.085-.128.209-.1.284.156.441-.381.66-.331,1.029.07.514-.238.911-.326,1.366-.109.565-.547,1.052-.373,1.7.037.136-.217.338-.308.524-.175.362-.152.347-.332.215-.382-.282-.571-.766-1.142-.875-.378-.071-.519-.709-1.052-.66-.325-.378-.841-.4-1.227-.651-.61-.4-1.286-.652-1.923-.99-.781.074-1.255-.8-2.056-.669a.171.171,0,0,1-.142-.047c-.171-.332-.608-.2-.808-.47-.239-.321-.69.039-.89-.244-.215-.3-.64-.137-.825-.457-.039-.068-.182-.088-.281-.109-.312-.066-.684.154-.938-.138-.224-.257-.495-.159-.754-.2-.3-.052-.484-.443-.863-.329-.326.1-.443-.252-.691-.34a2.3,2.3,0,0,0-1.363-.32c-.572.142-.941-.584-1.528-.337a.88.88,0,0,0-1.025-.321c-.394.081-.508-.386-.865-.352a4.8,4.8,0,0,1-1-.006c-.138-.016-.248-.206-.392-.251-.493-.156-.925-.54-1.5-.4-.355.084-.473-.419-.863-.343a5.345,5.345,0,0,1-1,.012c-.4-.679-1.32.01-1.733-.659-.031-.05-.211-.005-.322-.007a2.188,2.188,0,0,1-1.383-.3c-.3-.216-.849.145-1.214-.289-.1-.117-.412-.045-.624-.076-.465-.068-1,.2-1.381-.289-.025-.033-.1-.04-.147-.04-.5,0-1,0-1.5,0-.373-.443-.887-.363-1.36-.321s-.711-.461-1.2-.361a5.855,5.855,0,0,1-1.163.015c-.469-.594-1.123-.3-1.694-.314-.45-.009-.667-.541-1.2-.376a4.679,4.679,0,0,1-1.325.025c-.779-.588-1.682-.236-2.526-.334-.416-.048-.856.138-1.232-.275-.13-.142-.522-.054-.795-.056-.666,0-1.332,0-2,0-.381,0-.58-.443-1.032-.352a6.833,6.833,0,0,1-1.328.019c-.389,0-.78-.03-1.165.007-.5.048-.8-.522-1.368-.363a5.039,5.039,0,0,1-1.324.019c-.247-.409-.65-.327-1.029-.332-.4,0-.4,0-.894.593-.106.127-.214.3-.355.342-.31.1-.655.109-.571.582.006.031-.077.116-.111.111-.588-.076-.706.616-1.206.722a2.684,2.684,0,0,0-.964.472c-.3.215-.5.574-.929.578-.5.672-1.368.762-1.974,1.265-.611-.047-.732.813-1.36.737-.335.345-.9.36-1.158.823-.073.134-.169.128-.23-.027-.037-.1-.078-.27-.033-.307a7.671,7.671,0,0,0,.992-1.427c-.194-.483.181-.818.346-1.188.335-.75.8-1.436,1.091-2.213.481-.245.019-.835.452-1.163a1.228,1.228,0,0,0,.408-.961c-.056-.455.45-.631.365-1.031-.1-.483.318-.651.534-.948a.862.862,0,0,0,.129-.442c.018-.332-.008-.667.017-1,.005-.066.158-.175.239-.171.4.018.444-.215.417-.524-.009-.109-.039-.278.016-.32a1.533,1.533,0,0,0,.664-1.572c-.017-.109.159-.269.275-.374a.905.905,0,0,0,.39-.848.569.569,0,0,1,.2-.4,1.191,1.191,0,0,0,.474-.984c-.012-.341.372-.6.338-1.029a1.59,1.59,0,0,1,.369-.83c.116-.179.318-.3.269-.557a.7.7,0,0,1,.308-.706c.128-.106.321-.224.337-.354a.81.81,0,0,1,.249-.572c.194-.176.089-.5.342-.7.119-.094.1-.4.09-.613a.779.779,0,0,1,.276-.724.788.788,0,0,0,.4-.832c-.06-.265.15-.408.315-.53a.857.857,0,0,0,.356-.86.382.382,0,0,1,.115-.279c.288-.256.222-.711.544-.943a1.221,1.221,0,0,1,.333-1.028c-.228-.492.226-.808.37-1.18a1.964,1.964,0,0,0,.3-1.042.968.968,0,0,0,.33-1.027c-.029-.244.159-.389.221-.574.262-.78.983-1.412.781-2.343.543-.312.085-1.093.653-1.395-.026-.487.562-.809.353-1.357-.087-.228.155-.388.213-.571.154-.491.62-.893.452-1.484a.447.447,0,0,1,.046-.309,6.983,6.983,0,0,0,.569-.93c.129-.333-.055-.78.368-1.014-.014-.3.028-.545.427-.513C409.554,133.44,409.777,133.425,410,133.425Z" fill="#fff"/>
    <path id="Trazado_114970" data-name="Trazado 114970" d="M432.9,154.918v.165c0,1.224-.091,1.169-.788,2.324a24.575,24.575,0,0,1-2,2.313c-.26.334-.69.262-.936.567-.206.255-.515.073-.775.112-.162.024-.332-.01-.495.008a.264.264,0,0,1-.328-.263c-.015-.325.036-.654-.3-.878a.315.315,0,0,1-.037-.3c.4-.326.268-.779.341-1.191s.485-.714.318-1.187a20.619,20.619,0,0,0,1.154-2.167,1.425,1.425,0,0,1,.231-.235c.039-.039.085-.114.117-.108.63.1.739-.8,1.365-.719.068.008.151-.148.234-.22a.25.25,0,0,1,.138-.063c.165-.008.33,0,.5,0,.22,0,.441-.011.661,0a1.014,1.014,0,0,1,.6.681C432.9,154.146,432.9,154.532,432.9,154.918Z" fill="#fff"/>
    <path id="Trazado_114971" data-name="Trazado 114971" d="M449.884,158.073c0,.22.005.441,0,.662-.014.422.131.89-.332,1.187q0,.66-.008,1.321c-.417.235-.306.651-.348,1.015-.471.356-.733.95-1.346,1.15-.19.063-.34.259-.531.31a.6.6,0,0,1-.407-.142c.089-.673-.316-1.406.288-2.034.138-.144,0-.535.026-.808.04-.358.442-.585.341-1.025a2.739,2.739,0,0,1,0-.989c.053-.351.424-.592.335-1.025a3.528,3.528,0,0,1-.006-.99c.025-.31.422-.471.337-.859a1.865,1.865,0,0,1,.006-.821c.046-.188.251-.333.369-.507.092-.136.125-.1.243.006.515.479.556,1.231,1.025,1.738.083.089.012.321.012.486Z" fill="#fff"/>
    <path id="Trazado_114972" data-name="Trazado 114972" d="M441.557,154.792a3.115,3.115,0,0,0,.005.493c.054.334-.178.515-.389.656-.3.2-.7.236-.9.588-.177.31-.635.125-.8.46-.019.039-.092.087-.126.078a1.212,1.212,0,0,1-.425-.153.323.323,0,0,1-.019-.305c.128-.222.421-.364.324-.688-.14-.467.159-.8.334-1.178s.46-.708.344-1.179c-.032-.13.048-.409.112-.421a1.372,1.372,0,0,1,.764.016,2.309,2.309,0,0,1,.588.562c.072.075.174.162.182.25C441.572,154.243,441.557,154.519,441.557,154.792Z" fill="#fff"/>
    <path id="Trazado_114973" data-name="Trazado 114973" d="M408.751,132.926a3.7,3.7,0,0,1-.181.826c-.094.2-.319.339-.485.506" fill="none" stroke="#000" stroke-linecap="round" stroke-linejoin="round" stroke-width="2"/>
    <path id="Trazado_131777" data-name="Trazado 131777" d="M2.48.121a.528.528,0,0,1,.361.112,1.748,1.748,0,0,1,.234.254,1.748,1.748,0,0,0,.234.254.528.528,0,0,0,.361.112.753.753,0,0,0,.083,0q.044,0,.093-.015A4.632,4.632,0,0,1,4.873.717,3.4,3.4,0,0,1,6.509,1.1a3.681,3.681,0,0,1,1.206,1.03,4.769,4.769,0,0,1,.747,1.475,5.741,5.741,0,0,1,.259,1.719,8.539,8.539,0,0,1-.312,2.4,5.791,5.791,0,0,1-.9,1.86,4.906,4.906,0,0,1-1.45,1.3,6.128,6.128,0,0,1-1.963.723.479.479,0,0,0-.19.088.85.85,0,0,0-.171.171,1.035,1.035,0,0,0-.127.215.549.549,0,0,0-.049.22v1.294q0,.356,0,.7t0,.63v.713a.924.924,0,0,1-.107.425,1.507,1.507,0,0,1-.278.381,1.443,1.443,0,0,1-.376.273.91.91,0,0,1-.41.1q-.225,0-.381-.332a3.722,3.722,0,0,1-.259-.9q-.1-.571-.161-1.338t-.088-1.631q-.029-.864-.039-1.787t-.01-1.807V7.343q0-.8-.02-1.421T1.357,4.9a1.041,1.041,0,0,0-.117-.483A1.013,1.013,0,0,0,.9,4.164q-.19-.088-.352-.171A1.162,1.162,0,0,1,.278,3.8a.4.4,0,0,1-.112-.3.76.76,0,0,1,.088-.361,1.728,1.728,0,0,1,.234-.332,3.233,3.233,0,0,1,.337-.327l.4-.337a2.978,2.978,0,0,0,.259-.234.82.82,0,0,0,.142-.2A1,1,0,0,0,1.7,1.483q.029-.132.068-.347.029-.127.078-.3A1.808,1.808,0,0,1,1.978.507.972.972,0,0,1,2.183.233.424.424,0,0,1,2.48.121ZM4.4,2.924a2,2,0,0,0-.586.068.511.511,0,0,0-.317.3,1.975,1.975,0,0,0-.127.669Q3.35,4.4,3.35,5.141v.645q0,.234,0,.566t.01.737q0,.405.01.806t0,.767v.63a.454.454,0,0,0,.107.283.42.42,0,0,0,.352.137h.1a.261.261,0,0,0,.1-.02,3.2,3.2,0,0,0,1.25-.581,3.643,3.643,0,0,0,.9-1.016,4.764,4.764,0,0,0,.542-1.353A6.8,6.8,0,0,0,6.9,5.15a4.634,4.634,0,0,0-.063-.742,1.625,1.625,0,0,0-.312-.723,1.8,1.8,0,0,0-.747-.547A3.564,3.564,0,0,0,4.4,2.924ZM14.629,9.945a3.161,3.161,0,0,1-.156,1.006,3.62,3.62,0,0,1-.415.859,3.694,3.694,0,0,1-.591.693,4.938,4.938,0,0,1-.669.518,3.613,3.613,0,0,1-.659.337,1.842,1.842,0,0,1-.566.132.466.466,0,0,0-.342.112.344.344,0,0,0-.088.229.6.6,0,0,0,.059.254,1.9,1.9,0,0,0,.107.205,1.147,1.147,0,0,0,.405.371,1.724,1.724,0,0,0,.815.146,4.646,4.646,0,0,0,.659-.059,3.721,3.721,0,0,0,.859-.249,4.719,4.719,0,0,0,1.958-1.548.389.389,0,0,1,.146-.117.409.409,0,0,1,.557.171,1.746,1.746,0,0,1-.029,1.553,2.505,2.505,0,0,1-.532.645,4.3,4.3,0,0,1-.781.542,5.913,5.913,0,0,1-.947.415,6.889,6.889,0,0,1-1.035.264,6.051,6.051,0,0,1-1.04.093,4.1,4.1,0,0,1-1.548-.278,3.1,3.1,0,0,1-1.162-.806,3.608,3.608,0,0,1-.728-1.289,5.454,5.454,0,0,1-.254-1.729,7.625,7.625,0,0,1,.1-1.206,7.4,7.4,0,0,1,.293-1.191A5.994,5.994,0,0,1,9.531,8.93a4,4,0,0,1,.688-.889,3.059,3.059,0,0,1,.894-.6,2.68,2.68,0,0,1,1.094-.22,2.314,2.314,0,0,1,1.157.264,2.225,2.225,0,0,1,.742.664,2.688,2.688,0,0,1,.4.884A3.735,3.735,0,0,1,14.629,9.945ZM10.781,11.6q0,.039,0,.107a.324.324,0,0,0,.039.132.293.293,0,0,0,.1.107.362.362,0,0,0,.2.044,1.082,1.082,0,0,0,.63-.249,3.059,3.059,0,0,0,.615-.615,3.9,3.9,0,0,0,.464-.786,1.892,1.892,0,0,0,.186-.752,1.286,1.286,0,0,0-.029-.259,1.179,1.179,0,0,0-.093-.273.612.612,0,0,0-.176-.22.454.454,0,0,0-.288-.088.827.827,0,0,0-.537.278,3.073,3.073,0,0,0-.537.7,5,5,0,0,0-.41.928A3.015,3.015,0,0,0,10.781,11.6Zm8.232-4.287a2.4,2.4,0,0,1,1.343.386A3.479,3.479,0,0,1,21.362,8.71,4.99,4.99,0,0,1,22,10.131a5.993,5.993,0,0,1,.22,1.611,4.958,4.958,0,0,1-.312,1.8,4.493,4.493,0,0,1-.825,1.387,3.687,3.687,0,0,1-1.182.894,3.168,3.168,0,0,1-1.372.317,2.26,2.26,0,0,1-1.26-.337,2.648,2.648,0,0,1-.835-.864,3.857,3.857,0,0,1-.459-1.177,5.971,5.971,0,0,1-.142-1.274,6.683,6.683,0,0,1,.112-1.2A7.482,7.482,0,0,1,16.26,10.1a6.92,6.92,0,0,1,.493-1.079,4.652,4.652,0,0,1,.645-.889,2.982,2.982,0,0,1,.767-.6A1.777,1.777,0,0,1,19.014,7.309Zm.166,1.855a.67.67,0,0,0-.483.308,3.263,3.263,0,0,0-.454.8,6.331,6.331,0,0,0-.337,1.113,5.972,5.972,0,0,0-.132,1.245q0,.1.01.381a2.919,2.919,0,0,0,.083.586,1.5,1.5,0,0,0,.244.537.563.563,0,0,0,.483.234.955.955,0,0,0,.615-.254,2.549,2.549,0,0,0,.542-.654,3.834,3.834,0,0,0,.386-.908,3.649,3.649,0,0,0,.146-1.016q0-.166-.01-.41a4.769,4.769,0,0,0-.049-.508,4.15,4.15,0,0,0-.112-.522,2.026,2.026,0,0,0-.2-.469,1.047,1.047,0,0,0-.3-.337A.736.736,0,0,0,19.18,9.164Zm4.512,12.021a.528.528,0,0,1-.435-.22,1.685,1.685,0,0,1-.269-.522,3.093,3.093,0,0,1-.132-.63,3.66,3.66,0,0,1-.024-.532q.039-1.289.068-2.29t.044-1.836q.015-.835.02-1.587t0-1.558V10.277q0-.928-.01-2.119a.884.884,0,0,1,.054-.269,1,1,0,0,1,.171-.308,1.088,1.088,0,0,1,.3-.254.835.835,0,0,1,.435-.107.66.66,0,0,1,.479.161,1,1,0,0,1,.249.405,2.6,2.6,0,0,1,.117.537q.034.293.073.566a1.55,1.55,0,0,0,.078.332.146.146,0,0,0,.146.088q.068,0,.161-.132t.225-.332q.132-.2.3-.43a3.119,3.119,0,0,1,.376-.43,2.015,2.015,0,0,1,.464-.332,1.19,1.19,0,0,1,.557-.132,2.224,2.224,0,0,1,1.9.952,3.134,3.134,0,0,1,.474,1.05,5.267,5.267,0,0,1,.156,1.318,6.7,6.7,0,0,1-.249,1.816,5.938,5.938,0,0,1-.684,1.577,3.971,3.971,0,0,1-1.011,1.108,2.052,2.052,0,0,1-1.23.42,2.271,2.271,0,0,1-.435-.039,3.687,3.687,0,0,1-.361-.088q-.161-.049-.3-.088a.98.98,0,0,0-.259-.039.269.269,0,0,0-.22.1.741.741,0,0,0-.127.234,1.279,1.279,0,0,0-.059.264q-.015.132-.024.19a8.457,8.457,0,0,0-.088,1.2q0,.581,0,1.128t-.054,1.064a3.833,3.833,0,0,1-.234,1.006.968.968,0,0,1-.225.332A.555.555,0,0,1,23.691,21.186Zm4.17-10.342a1.571,1.571,0,0,0-.078-.547.853.853,0,0,0-.2-.317.57.57,0,0,0-.244-.146.852.852,0,0,0-.215-.034.864.864,0,0,0-.488.166,2.494,2.494,0,0,0-.474.43,4.378,4.378,0,0,0-.43.591,5.573,5.573,0,0,0-.347.659,5.409,5.409,0,0,0-.234.625,2.138,2.138,0,0,0-.1.488,1.151,1.151,0,0,0,.059.356,1.082,1.082,0,0,0,.171.327.919.919,0,0,0,.273.239.7.7,0,0,0,.356.093,1.515,1.515,0,0,0,.776-.186,1.8,1.8,0,0,0,.532-.469,2.38,2.38,0,0,0,.342-.635,4.617,4.617,0,0,0,.19-.674,4.951,4.951,0,0,0,.083-.586Q27.861,10.961,27.861,10.844ZM30.439,6.5q.02-.371.039-1.011t.063-1.377q.044-.737.112-1.5t.181-1.372a4.849,4.849,0,0,1,.278-1q.166-.391.4-.391a1.158,1.158,0,0,1,.3.049,1.323,1.323,0,0,1,.342.151,1.057,1.057,0,0,1,.293.273.841.841,0,0,1,.156.405,6.738,6.738,0,0,1,.01.713q-.01.557-.044,1.382T32.5,4.687q-.039,1.04-.073,2.163t-.054,2.266q-.02,1.143,0,2.188t.073,1.929a11.45,11.45,0,0,0,.171,1.479q.078.381.166.688a4.11,4.11,0,0,1,.122.552.875.875,0,0,1-.029.42.592.592,0,0,1-.3.3.867.867,0,0,1-.391.1.834.834,0,0,1-.483-.151,1.935,1.935,0,0,1-.391-.356,2.7,2.7,0,0,1-.283-.405q-.112-.2-.151-.288a3.8,3.8,0,0,1-.22-.791q-.093-.5-.151-1.128T30.42,12.3q-.029-.723-.039-1.45t0-1.421q0-.693.015-1.279t.024-1.021Q30.43,6.693,30.439,6.5Zm8.9,3.447a3.161,3.161,0,0,1-.156,1.006,3.62,3.62,0,0,1-.415.859,3.694,3.694,0,0,1-.591.693,4.938,4.938,0,0,1-.669.518,3.613,3.613,0,0,1-.659.337,1.842,1.842,0,0,1-.566.132.466.466,0,0,0-.342.112.344.344,0,0,0-.088.229.6.6,0,0,0,.059.254,1.9,1.9,0,0,0,.107.205,1.147,1.147,0,0,0,.405.371,1.724,1.724,0,0,0,.815.146,4.646,4.646,0,0,0,.659-.059,3.721,3.721,0,0,0,.859-.249,4.719,4.719,0,0,0,1.958-1.548.388.388,0,0,1,.146-.117.409.409,0,0,1,.557.171,1.746,1.746,0,0,1-.029,1.553,2.505,2.505,0,0,1-.532.645,4.3,4.3,0,0,1-.781.542,5.913,5.913,0,0,1-.947.415,6.889,6.889,0,0,1-1.035.264,6.051,6.051,0,0,1-1.04.093,4.1,4.1,0,0,1-1.548-.278,3.1,3.1,0,0,1-1.162-.806,3.608,3.608,0,0,1-.728-1.289,5.454,5.454,0,0,1-.254-1.729,7.624,7.624,0,0,1,.1-1.206,7.4,7.4,0,0,1,.293-1.191,5.994,5.994,0,0,1,.488-1.089,4,4,0,0,1,.688-.889,3.059,3.059,0,0,1,.894-.6,2.68,2.68,0,0,1,1.094-.22,2.314,2.314,0,0,1,1.157.264,2.225,2.225,0,0,1,.742.664,2.688,2.688,0,0,1,.4.884A3.735,3.735,0,0,1,39.336,9.945ZM35.488,11.6q0,.039,0,.107a.324.324,0,0,0,.039.132.293.293,0,0,0,.1.107.362.362,0,0,0,.2.044,1.082,1.082,0,0,0,.63-.249,3.059,3.059,0,0,0,.615-.615,3.9,3.9,0,0,0,.464-.786,1.892,1.892,0,0,0,.186-.752,1.286,1.286,0,0,0-.029-.259,1.179,1.179,0,0,0-.093-.273.612.612,0,0,0-.176-.22.454.454,0,0,0-.288-.088.827.827,0,0,0-.537.278,3.073,3.073,0,0,0-.537.7,5,5,0,0,0-.41.928A3.015,3.015,0,0,0,35.488,11.6Z" transform="matrix(0.995, 0.105, -0.105, 0.995, 413.585, 143.86)"/>
    <path id="Trazado_131778" data-name="Trazado 131778" d="M6.924.883q.381,0,.654.5a5.473,5.473,0,0,1,.474,1.328,16.351,16.351,0,0,1,.327,1.914q.127,1.084.21,2.256t.127,2.354q.044,1.182.073,2.207t.054,1.821q.024.8.063,1.187a3.445,3.445,0,0,0,.083.513q.054.21.112.376t.1.317A1.392,1.392,0,0,1,9.238,16a.535.535,0,0,1-.615.6,1.221,1.221,0,0,1-.693-.2,1.723,1.723,0,0,1-.5-.518,3.182,3.182,0,0,1-.337-.728,5.993,5.993,0,0,1-.205-.825,7.387,7.387,0,0,1-.1-.825q-.024-.405-.024-.708a.76.76,0,0,0-.078-.361.331.331,0,0,0-.322-.146q-.156,0-.4,0t-.513.015q-.269.01-.547.029t-.513.039a1.066,1.066,0,0,0-.61.269,1.625,1.625,0,0,0-.415.522q-.215.479-.42.981t-.41.977q-.205.474-.41.9a5.855,5.855,0,0,1-.439.767,2.391,2.391,0,0,1-.205.259.39.39,0,0,1-.293.093.936.936,0,0,1-.415-.1,1.245,1.245,0,0,1-.352-.254,1.185,1.185,0,0,1-.239-.361A.97.97,0,0,1,.107,16a2.131,2.131,0,0,1,.1-.381q.088-.273.22-.625t.288-.737q.156-.386.293-.713L1.235,13q.093-.22.1-.239.107-.186.044-.283a.431.431,0,0,0-.215-.156,2.337,2.337,0,0,0-.361-.1,2.05,2.05,0,0,1-.4-.127.992.992,0,0,1-.322-.22.54.54,0,0,1-.132-.391.644.644,0,0,1,.142-.425,1.06,1.06,0,0,1,.347-.273,1.657,1.657,0,0,1,.444-.146,2.47,2.47,0,0,1,.444-.044,2.6,2.6,0,0,0,.322-.02,1.287,1.287,0,0,0,.3-.073.9.9,0,0,0,.259-.151.754.754,0,0,0,.2-.264q.234-.518.537-1.274t.645-1.616q.342-.859.7-1.763t.7-1.7q.347-.8.664-1.431a5.845,5.845,0,0,1,.571-.952A1.45,1.45,0,0,1,6.343,1.2a1.213,1.213,0,0,1,.166-.146A1.194,1.194,0,0,1,6.7.932.5.5,0,0,1,6.924.883ZM6.641,5.951q0-.469-.146-.469-.107,0-.244.3-.176.42-.356.894t-.356.952l-.347.942q-.171.464-.327.864a2.5,2.5,0,0,0-.137.435.667.667,0,0,0-.01.249.144.144,0,0,0,.078.112.354.354,0,0,0,.137.024.421.421,0,0,0,.068,0,.421.421,0,0,1,.068,0l1.406-.1a.228.228,0,0,0,.142-.054.217.217,0,0,0,.059-.1.5.5,0,0,0,.015-.122v-.1q0-.459-.01-1.016t-.015-1.1q0-.542-.015-1T6.641,5.951ZM16.514.092a.528.528,0,0,1,.435.22,1.685,1.685,0,0,1,.269.522,3.093,3.093,0,0,1,.132.63A3.66,3.66,0,0,1,17.373,2q-.059,1.943-.161,3.755t-.186,3.6q-.083,1.792-.107,3.608t.063,3.77a1.646,1.646,0,0,1-.02.239.852.852,0,0,1-.073.244.564.564,0,0,1-.146.19.344.344,0,0,1-.229.078.773.773,0,0,1-.571-.22,1.576,1.576,0,0,1-.347-.537,3.221,3.221,0,0,1-.186-.669q-.059-.352-.1-.625-.029-.215-.063-.415t-.068-.361A1.308,1.308,0,0,0,15.1,14.4q-.044-.1-.093-.1a.353.353,0,0,0-.234.127q-.127.127-.283.313t-.356.41a3,3,0,0,1-.449.41,2.49,2.49,0,0,1-.566.313,1.891,1.891,0,0,1-.708.127,2.49,2.49,0,0,1-1.118-.239,2.388,2.388,0,0,1-.811-.645,2.831,2.831,0,0,1-.493-.923,3.5,3.5,0,0,1-.166-1.074,7.116,7.116,0,0,1,.117-1.265,7.633,7.633,0,0,1,.342-1.265,7.291,7.291,0,0,1,.542-1.162,5.068,5.068,0,0,1,.708-.957,3.184,3.184,0,0,1,.859-.649,2.141,2.141,0,0,1,.986-.239,1.511,1.511,0,0,1,.42.054q.186.054.342.112t.283.112a.626.626,0,0,0,.244.054.3.3,0,0,0,.22-.083.554.554,0,0,0,.127-.2,1.03,1.03,0,0,0,.059-.234q.015-.117.024-.176.059-.41.1-.972t.073-1.191q.034-.63.073-1.284t.093-1.255q.054-.6.137-1.1a5.01,5.01,0,0,1,.2-.835A.785.785,0,0,1,16.05.248.759.759,0,0,1,16.514.092Zm-4.746,13.3a.875.875,0,0,0,.049.313.679.679,0,0,0,.117.205.421.421,0,0,0,.146.112.367.367,0,0,0,.146.034.863.863,0,0,0,.522-.2,2.769,2.769,0,0,0,.5-.5,5.268,5.268,0,0,0,.449-.674,8.015,8.015,0,0,0,.366-.728,5.426,5.426,0,0,0,.244-.659,1.811,1.811,0,0,0,.088-.459,1.065,1.065,0,0,0-.039-.273.815.815,0,0,0-.127-.269A.737.737,0,0,0,14,10.1a.655.655,0,0,0-.337-.083.861.861,0,0,0-.532.19,2.169,2.169,0,0,0-.459.493,4.337,4.337,0,0,0-.381.679,5.893,5.893,0,0,0-.283.752,7.08,7.08,0,0,0-.176.713A3.1,3.1,0,0,0,11.768,13.393ZM18.2,3.549a2.126,2.126,0,0,1,.073-.542,2.247,2.247,0,0,1,.2-.5,1.32,1.32,0,0,1,.283-.366A.516.516,0,0,1,19.1,2a2.9,2.9,0,0,1,.522.044,1.275,1.275,0,0,1,.415.146.724.724,0,0,1,.273.278.874.874,0,0,1,.1.43,3.417,3.417,0,0,1-.049.537A2.16,2.16,0,0,1,20.19,4a1.455,1.455,0,0,1-.317.449.681.681,0,0,1-.488.186,1.184,1.184,0,0,1-.415-.078,1.252,1.252,0,0,1-.381-.225,1.2,1.2,0,0,1-.278-.347A.9.9,0,0,1,18.2,3.549Zm.127,11.162q0-.977.024-1.655t.044-1.182q.02-.5.029-.894t-.01-.8a5.614,5.614,0,0,1,.044-1.309,2.93,2.93,0,0,1,.244-.8,1.076,1.076,0,0,1,.317-.405.643.643,0,0,1,.264-.122.676.676,0,0,1,.4.117,1.016,1.016,0,0,1,.278.3,1.294,1.294,0,0,1,.161.386,1.651,1.651,0,0,1,.049.381q0,.791,0,1.636t-.01,1.6q0,.752-.01,1.323t0,.806a17.741,17.741,0,0,1-.205,2.935,6.361,6.361,0,0,1-.61,1.943,2.6,2.6,0,0,1-1.006,1.079,2.85,2.85,0,0,1-1.4.332,3.138,3.138,0,0,1-.991-.142,2.125,2.125,0,0,1-.708-.381,1.578,1.578,0,0,1-.425-.547,1.513,1.513,0,0,1-.142-.64.814.814,0,0,1,.161-.493.485.485,0,0,1,.405-.22.386.386,0,0,1,.327.166l.264.361a1.779,1.779,0,0,0,.356.361.971.971,0,0,0,.605.166,1.084,1.084,0,0,0,.815-.317,2.093,2.093,0,0,0,.474-.889,6.311,6.311,0,0,0,.215-1.357Q18.33,15.658,18.33,14.711ZM26.9,9.945a3.161,3.161,0,0,1-.156,1.006,3.62,3.62,0,0,1-.415.859,3.694,3.694,0,0,1-.591.693,4.938,4.938,0,0,1-.669.518,3.613,3.613,0,0,1-.659.337,1.842,1.842,0,0,1-.566.132.466.466,0,0,0-.342.112.344.344,0,0,0-.088.229.6.6,0,0,0,.059.254,1.9,1.9,0,0,0,.107.205,1.147,1.147,0,0,0,.405.371,1.724,1.724,0,0,0,.815.146,4.646,4.646,0,0,0,.659-.059,3.721,3.721,0,0,0,.859-.249,4.719,4.719,0,0,0,1.958-1.548.389.389,0,0,1,.146-.117.409.409,0,0,1,.557.171,1.746,1.746,0,0,1-.029,1.553,2.505,2.505,0,0,1-.532.645,4.3,4.3,0,0,1-.781.542,5.913,5.913,0,0,1-.947.415,6.889,6.889,0,0,1-1.035.264,6.051,6.051,0,0,1-1.04.093,4.1,4.1,0,0,1-1.548-.278,3.1,3.1,0,0,1-1.162-.806,3.608,3.608,0,0,1-.728-1.289,5.454,5.454,0,0,1-.254-1.729,7.625,7.625,0,0,1,.1-1.206,7.4,7.4,0,0,1,.293-1.191,5.994,5.994,0,0,1,.488-1.089,4,4,0,0,1,.688-.889,3.059,3.059,0,0,1,.894-.6,2.68,2.68,0,0,1,1.094-.22,2.314,2.314,0,0,1,1.157.264,2.225,2.225,0,0,1,.742.664,2.688,2.688,0,0,1,.4.884A3.735,3.735,0,0,1,26.9,9.945ZM23.057,11.6q0,.039,0,.107a.324.324,0,0,0,.039.132.293.293,0,0,0,.1.107.362.362,0,0,0,.2.044,1.082,1.082,0,0,0,.63-.249,3.059,3.059,0,0,0,.615-.615,3.9,3.9,0,0,0,.464-.786,1.892,1.892,0,0,0,.186-.752,1.286,1.286,0,0,0-.029-.259,1.179,1.179,0,0,0-.093-.273A.612.612,0,0,0,25,8.832a.454.454,0,0,0-.288-.088.827.827,0,0,0-.537.278,3.073,3.073,0,0,0-.537.7,5,5,0,0,0-.41.928A3.015,3.015,0,0,0,23.057,11.6Zm7.666-7.051q-.01.117-.02.19a.243.243,0,0,0,.01.122.119.119,0,0,0,.078.068.638.638,0,0,0,.186.02h.1a1.092,1.092,0,0,0,.132-.01q.332-.02.649-.034t.649-.015q.352,0,.825.02a5.851,5.851,0,0,1,.894.1,2.378,2.378,0,0,1,.713.249.509.509,0,0,1,.293.459.6.6,0,0,1-.132.376,1.022,1.022,0,0,1-.415.293,3.042,3.042,0,0,1-.737.19,7.443,7.443,0,0,1-1.089.068q-.215,0-.459.02l-.483.039q-.239.02-.469.044t-.405.034a.4.4,0,0,0-.312.161.784.784,0,0,0-.117.386q-.068,1.064-.1,2.109t-.024,2q.01.957.073,1.792a14.055,14.055,0,0,0,.181,1.47q.088.42.19.752a5.615,5.615,0,0,1,.151.586.874.874,0,0,1-.01.435.565.565,0,0,1-.293.308.849.849,0,0,1-.381.1.834.834,0,0,1-.483-.151,1.935,1.935,0,0,1-.391-.356,2.7,2.7,0,0,1-.283-.405q-.112-.2-.151-.288a4.116,4.116,0,0,1-.259-.952q-.1-.6-.161-1.343t-.083-1.562q-.024-.82-.024-1.616t.02-1.5q.02-.708.049-1.206a1.461,1.461,0,0,0,.01-.273q-.01-.049-.215-.049h-.234a1.357,1.357,0,0,1-.791-.205.6.6,0,0,1-.293-.5.509.509,0,0,1,.1-.3,1.137,1.137,0,0,1,.269-.259,2.544,2.544,0,0,1,.4-.229q.229-.107.493-.215a.833.833,0,0,0,.283-.181.581.581,0,0,0,.117-.356q.02-.371.059-.786t.093-.815q.054-.4.132-.762a5.377,5.377,0,0,1,.176-.64,1.53,1.53,0,0,1,.225-.439.354.354,0,0,1,.273-.161,1.055,1.055,0,0,1,.293.049,1.207,1.207,0,0,1,.322.151.993.993,0,0,1,.273.273.9.9,0,0,1,.146.405q.01.078.015.322t0,.571q0,.327-.015.708T30.723,4.545Zm1.172,8.662q0-.342-.015-.908t-.01-1.211q0-.645.049-1.3a9.768,9.768,0,0,1,.146-1.191,2.885,2.885,0,0,1,.293-.869.562.562,0,0,1,.493-.337,1.245,1.245,0,0,1,.581.112.718.718,0,0,1,.3.513,4.434,4.434,0,0,1,.063.493q.024.3.024.718,0,.225.01.762t.015,1.221q0,.684.01,1.431t0,1.411q-.01.664-.039,1.152a3.335,3.335,0,0,1-.078.645.314.314,0,0,1-.156.181,1.156,1.156,0,0,1-.239.1,1.282,1.282,0,0,1-.234.044q-.112.01-.151.01a.587.587,0,0,1-.459-.229,1.864,1.864,0,0,1-.327-.635,5.178,5.178,0,0,1-.2-.947A9.261,9.261,0,0,1,31.895,13.207Zm.2-9.7a1.878,1.878,0,0,1,.073-.532,1.272,1.272,0,0,1,.22-.435.987.987,0,0,1,.371-.288,1.234,1.234,0,0,1,.518-.1,1.436,1.436,0,0,1,.405.059.933.933,0,0,1,.356.2,1.019,1.019,0,0,1,.254.352,1.3,1.3,0,0,1,.1.537,1.493,1.493,0,0,1-.107.586,1.16,1.16,0,0,1-.293.42,1.24,1.24,0,0,1-.425.249,1.494,1.494,0,0,1-.493.083,1,1,0,0,1-.493-.107.853.853,0,0,1-.3-.269.984.984,0,0,1-.146-.361A2.014,2.014,0,0,1,32.09,3.51Zm2.451,4.814V8.3a.259.259,0,0,1,.078-.181.838.838,0,0,1,.186-.146,1.164,1.164,0,0,1,.225-.1.662.662,0,0,1,.205-.039.791.791,0,0,1,.444.132,1.989,1.989,0,0,1,.356.3,1.786,1.786,0,0,1,.342.635q.166.459.322,1.04t.308,1.216q.151.635.288,1.157a8.3,8.3,0,0,0,.269.864q.132.342.239.342t.225-.273a6.715,6.715,0,0,0,.273-.723q.146-.449.308-1.025t.332-1.177q.171-.6.352-1.177t.356-1.025A4.168,4.168,0,0,1,40,7.4q.176-.273.332-.273a1.123,1.123,0,0,1,.728.225.939.939,0,0,1,.278.771q-.059.254-.171.747t-.278,1.123q-.166.63-.371,1.353t-.444,1.44q-.239.718-.513,1.377a9.529,9.529,0,0,1-.571,1.167,3.707,3.707,0,0,1-.615.811.936.936,0,0,1-.64.3.877.877,0,0,1-.6-.273,3.323,3.323,0,0,1-.566-.732,7.635,7.635,0,0,1-.518-1.069q-.244-.61-.454-1.284t-.391-1.367q-.181-.693-.317-1.333t-.225-1.172Q34.58,8.676,34.541,8.324ZM44.4,7.309a2.4,2.4,0,0,1,1.343.386A3.479,3.479,0,0,1,46.753,8.71a4.99,4.99,0,0,1,.635,1.421,5.993,5.993,0,0,1,.22,1.611,4.958,4.958,0,0,1-.312,1.8,4.493,4.493,0,0,1-.825,1.387,3.687,3.687,0,0,1-1.182.894,3.168,3.168,0,0,1-1.372.317,2.26,2.26,0,0,1-1.26-.337,2.648,2.648,0,0,1-.835-.864,3.857,3.857,0,0,1-.459-1.177,5.971,5.971,0,0,1-.142-1.274,6.683,6.683,0,0,1,.112-1.2A7.482,7.482,0,0,1,41.65,10.1a6.92,6.92,0,0,1,.493-1.079,4.652,4.652,0,0,1,.645-.889,2.982,2.982,0,0,1,.767-.6A1.777,1.777,0,0,1,44.4,7.309Zm.166,1.855a.67.67,0,0,0-.483.308,3.263,3.263,0,0,0-.454.8,6.331,6.331,0,0,0-.337,1.113,5.972,5.972,0,0,0-.132,1.245q0,.1.01.381a2.919,2.919,0,0,0,.083.586,1.5,1.5,0,0,0,.244.537.563.563,0,0,0,.483.234.955.955,0,0,0,.615-.254,2.549,2.549,0,0,0,.542-.654,3.834,3.834,0,0,0,.386-.908,3.649,3.649,0,0,0,.146-1.016q0-.166-.01-.41a4.769,4.769,0,0,0-.049-.508A4.15,4.15,0,0,0,45.5,10.1a2.026,2.026,0,0,0-.2-.469,1.047,1.047,0,0,0-.3-.337A.736.736,0,0,0,44.57,9.164Zm3.555,5.469a.949.949,0,0,1,.166-.571.464.464,0,0,1,.371-.229.424.424,0,0,1,.278.112q.132.112.308.244a2.2,2.2,0,0,0,.43.244,1.572,1.572,0,0,0,.635.112q.059,0,.21-.015a.876.876,0,0,0,.308-.093A.775.775,0,0,0,51.1,14.2a.739.739,0,0,0,.117-.449.919.919,0,0,0-.2-.61,2.085,2.085,0,0,0-.508-.43q-.308-.19-.664-.366a3.69,3.69,0,0,1-.664-.42,2.177,2.177,0,0,1-.518-.6,1.845,1.845,0,0,1-.229-.889,2.8,2.8,0,0,1,.19-1.055,2.88,2.88,0,0,1,.591-.947,2.967,2.967,0,0,1,.962-.679A3.078,3.078,0,0,1,51.465,7.5a3.145,3.145,0,0,1,.518.044,1.682,1.682,0,0,1,.479.151.93.93,0,0,1,.352.3.867.867,0,0,1,.137.508,1.9,1.9,0,0,1-.024.278,1.261,1.261,0,0,1-.093.317.772.772,0,0,1-.186.264.431.431,0,0,1-.3.107.588.588,0,0,1-.225-.044q-.107-.044-.215-.1t-.22-.1a.678.678,0,0,0-.249-.044,1.057,1.057,0,0,0-.386.083,1.408,1.408,0,0,0-.386.229,1.338,1.338,0,0,0-.293.342.785.785,0,0,0-.117.41.741.741,0,0,0,.21.513,3.376,3.376,0,0,0,.522.454q.312.225.674.474a4.473,4.473,0,0,1,.674.571,2.927,2.927,0,0,1,.522.747,2.235,2.235,0,0,1,.21,1,2.046,2.046,0,0,1-.278,1.113,2.168,2.168,0,0,1-.7.7,2.824,2.824,0,0,1-.908.361,4.4,4.4,0,0,1-.9.1,2.657,2.657,0,0,1-1-.166,2.074,2.074,0,0,1-.669-.415,1.568,1.568,0,0,1-.376-.537A1.442,1.442,0,0,1,48.125,14.633Z" transform="translate(406.662 107.219) rotate(-1)"/>
  </g>
</svg>
