<svg xmlns="http://www.w3.org/2000/svg" width="146.13" height="280.85" viewBox="0 0 146.13 280.85">
  <g id="Grupo_158084" data-name="Grupo 158084" transform="translate(-961.054 -202.386)">
    <g id="Grupo_81082" data-name="Grupo 81082" transform="translate(864.713 44.184)">
      <g id="Grupo_81073" data-name="Grupo 81073" transform="translate(108.194 248.526)">
        <g id="Grupo_81070" data-name="Grupo 81070" transform="translate(1.673 1.673)" style="mix-blend-mode: multiply;isolation: isolate">
          <path id="Trazado_115025" data-name="Trazado 115025" d="M123.758,285a1.474,1.474,0,0,1-1.431-1.151l-4.009-18.713-.08-.033-.047.08a1.486,1.486,0,0,1-1.321.826,1.455,1.455,0,0,1-.771-.222l-2.806-1.752a1.477,1.477,0,0,1-.658-.939,1.431,1.431,0,0,1,.213-1.106,15.489,15.489,0,0,0,2.586-7.922,1.466,1.466,0,0,1,1.155-1.377l3.561-.766a1.431,1.431,0,0,1,.308-.032,1.461,1.461,0,0,1,1.4,1.017c3.033,9.433,6,19.169,8.819,28.938a1.469,1.469,0,0,1-1.075,1.833l-5.506,1.28A1.493,1.493,0,0,1,123.758,285Z" transform="translate(-111.898 -251.192)" fill="#e8e8e8"/>
          <path id="Trazado_115026" data-name="Trazado 115026" d="M120.164,252.308a.764.764,0,0,1,.725.529q4.625,14.385,8.812,28.917a.763.763,0,0,1-.557.951l-5.506,1.279a.785.785,0,0,1-.175.02.759.759,0,0,1-.742-.6q-2.007-9.354-4.009-18.71a.743.743,0,0,0-.74-.595.754.754,0,0,0-.689.438c0,.012-.013.02-.016.032a.769.769,0,0,1-.692.44.75.75,0,0,1-.4-.115c-.935-.582-1.871-1.17-2.806-1.752a.752.752,0,0,1-.233-1.051,16.3,16.3,0,0,0,2.706-8.287.765.765,0,0,1,.6-.717c1.185-.253,2.374-.512,3.559-.766a.733.733,0,0,1,.16-.018m0-1.411a2.154,2.154,0,0,0-.461.05l-1.775.382q-.89.193-1.778.382a2.188,2.188,0,0,0-1.714,2.021,15.01,15.01,0,0,1-2.471,7.58,2.153,2.153,0,0,0-.313,1.642,2.18,2.18,0,0,0,.975,1.39l1.4.876,1.4.876a2.155,2.155,0,0,0,2.154.076q.876,4.086,1.751,8.176,1,4.677,2,9.356a2.171,2.171,0,0,0,2.617,1.654l5.506-1.279a2.175,2.175,0,0,0,1.594-2.713c-2.823-9.785-5.793-19.527-8.826-28.961a2.167,2.167,0,0,0-2.068-1.508Z" transform="translate(-111.604 -250.897)" fill="#e8e8e8"/>
        </g>
        <g id="Grupo_81072" data-name="Grupo 81072">
          <g id="Grupo_81071" data-name="Grupo 81071">
            <path id="Trazado_115027" data-name="Trazado 115027" d="M121.387,282.633a1.473,1.473,0,0,1-1.431-1.151l-4.01-18.712-.079-.033-.047.08a1.484,1.484,0,0,1-1.32.826,1.458,1.458,0,0,1-.772-.222l-2.806-1.753a1.471,1.471,0,0,1-.658-.939,1.429,1.429,0,0,1,.212-1.106,15.484,15.484,0,0,0,2.587-7.923,1.464,1.464,0,0,1,1.154-1.377l3.562-.766a1.433,1.433,0,0,1,.308-.033,1.462,1.462,0,0,1,1.4,1.018c3.033,9.433,6,19.169,8.819,28.938a1.469,1.469,0,0,1-1.075,1.833l-5.5,1.28A1.5,1.5,0,0,1,121.387,282.633Z" transform="translate(-109.527 -248.82)" fill="#ff5f65"/>
            <path id="Trazado_115028" data-name="Trazado 115028" d="M117.793,249.937a.763.763,0,0,1,.724.528q4.626,14.386,8.813,28.917a.763.763,0,0,1-.557.951l-5.506,1.279a.786.786,0,0,1-.175.02.758.758,0,0,1-.742-.6q-2.007-9.355-4.009-18.71a.743.743,0,0,0-.74-.595.753.753,0,0,0-.69.438c0,.012-.012.02-.015.031a.769.769,0,0,1-.692.441.75.75,0,0,1-.4-.115c-.935-.583-1.871-1.17-2.806-1.753a.751.751,0,0,1-.233-1.051,16.3,16.3,0,0,0,2.706-8.287.765.765,0,0,1,.6-.717c1.186-.253,2.375-.513,3.559-.766a.739.739,0,0,1,.161-.018m0-1.411a2.2,2.2,0,0,0-.461.049l-1.776.382q-.889.192-1.778.382a2.188,2.188,0,0,0-1.714,2.02,15,15,0,0,1-2.471,7.58,2.156,2.156,0,0,0-.314,1.642,2.183,2.183,0,0,0,.975,1.39l1.4.876,1.4.876a2.155,2.155,0,0,0,2.155.077q.876,4.086,1.751,8.176,1,4.677,2,9.356a2.174,2.174,0,0,0,2.616,1.654l5.506-1.279a2.175,2.175,0,0,0,1.594-2.714c-2.824-9.784-5.793-19.527-8.826-28.961a2.166,2.166,0,0,0-2.068-1.507Z" transform="translate(-109.233 -248.526)"/>
          </g>
        </g>
      </g>
      <g id="Grupo_81077" data-name="Grupo 81077" transform="translate(124.849 268.146)">
        <g id="Grupo_81074" data-name="Grupo 81074" transform="translate(1.673 1.673)" style="mix-blend-mode: overlay;isolation: isolate">
          <path id="Trazado_115029" data-name="Trazado 115029" d="M150.07,313.251a1.471,1.471,0,0,1-.526-.1c-4.384-1.707-8.711-3.578-12.864-5.561l-.432-.207.553-8.241.457-.146c2.869-.917,5.928-1.931,8.865-3.131a18.422,18.422,0,0,0,6.256-3.7,2.867,2.867,0,0,0,1.059-2.212,2.168,2.168,0,0,0-1.419-1.473,4.452,4.452,0,0,0-1.667-.3,6.561,6.561,0,0,0-1.832.277,13.492,13.492,0,0,0-2.478,1.059,1.475,1.475,0,0,1-.682.169,1.459,1.459,0,0,1-1.311-.81l-1.679-3.419a1.436,1.436,0,0,1,.075-1.421,9.245,9.245,0,0,1,4.235-3.5,11.193,11.193,0,0,1,4.331-.831,13.4,13.4,0,0,1,2.149.177,11.442,11.442,0,0,1,5.878,2.725,8.347,8.347,0,0,1,2.805,5.918,9.221,9.221,0,0,1-1.926,5.527,19.6,19.6,0,0,1-4.113,3.923,49.168,49.168,0,0,1-8.6,5.157l-.235.757.237-.665,5.605,2a1.463,1.463,0,0,1,.847,1.962l-2.235,5.173A1.46,1.46,0,0,1,150.07,313.251Z" transform="translate(-135.512 -278.995)" fill="#3c384f"/>
          <path id="Trazado_115030" data-name="Trazado 115030" d="M150.7,280.112a12.577,12.577,0,0,1,2.034.168,10.8,10.8,0,0,1,5.515,2.55,7.7,7.7,0,0,1,2.576,5.411,8.5,8.5,0,0,1-1.789,5.1,18.915,18.915,0,0,1-3.969,3.776,48.37,48.37,0,0,1-8.479,5.081.755.755,0,0,0,.064,1.4q2.8,1,5.605,2a.757.757,0,0,1,.437,1.016l-2.236,5.174a.759.759,0,0,1-.971.415q-6.508-2.533-12.815-5.539c.239-3.542.25-3.744.488-7.286,3.008-.961,6-1.955,8.917-3.149a19.024,19.024,0,0,0,6.489-3.859,3.461,3.461,0,0,0,1.255-2.828,2.832,2.832,0,0,0-1.855-2.011,5.14,5.14,0,0,0-1.926-.353,7.308,7.308,0,0,0-2.03.306,14,14,0,0,0-2.608,1.112.763.763,0,0,1-1.035-.333q-.835-1.7-1.675-3.414a.733.733,0,0,1,.032-.723,8.55,8.55,0,0,1,3.915-3.233,10.542,10.542,0,0,1,4.06-.777m0-1.411h0a11.892,11.892,0,0,0-4.6.886,9.97,9.97,0,0,0-4.564,3.778,2.138,2.138,0,0,0-.1,2.114l1.67,3.4a2.174,2.174,0,0,0,2.955.961,12.892,12.892,0,0,1,2.347-1.007,5.881,5.881,0,0,1,1.638-.25,3.727,3.727,0,0,1,1.4.251,1.5,1.5,0,0,1,.99.934c.067.4-.248.982-.864,1.6a17.816,17.816,0,0,1-6.017,3.545c-2.916,1.191-5.96,2.2-8.817,3.113l-.914.292-.065.957-.244,3.646-.244,3.64-.064.955.864.413c4.168,1.991,8.512,3.869,12.911,5.581a2.142,2.142,0,0,0,.783.147,2.166,2.166,0,0,0,2-1.33l1.192-2.758,1.038-2.4a2.169,2.169,0,0,0-1.25-2.9c-.943-.336-1.877-.67-2.811-1l-1.334-.478a49.908,49.908,0,0,0,7.316-4.542,20.259,20.259,0,0,0,4.261-4.07,9.922,9.922,0,0,0,2.063-5.959,9.056,9.056,0,0,0-3.034-6.427,12.129,12.129,0,0,0-6.235-2.9,14,14,0,0,0-2.267-.188Z" transform="translate(-135.205 -278.701)" fill="#3c384f"/>
        </g>
        <g id="Grupo_81076" data-name="Grupo 81076">
          <g id="Grupo_81075" data-name="Grupo 81075">
            <path id="Trazado_115031" data-name="Trazado 115031" d="M147.7,310.88a1.453,1.453,0,0,1-.525-.1c-4.384-1.707-8.712-3.578-12.864-5.561l-.432-.207.553-8.241.457-.146c2.869-.917,5.929-1.931,8.865-3.131a18.429,18.429,0,0,0,6.256-3.7,2.87,2.87,0,0,0,1.059-2.213,2.168,2.168,0,0,0-1.42-1.472,4.434,4.434,0,0,0-1.666-.3,6.59,6.59,0,0,0-1.833.277,13.511,13.511,0,0,0-2.477,1.059,1.464,1.464,0,0,1-1.993-.641L140,283.08a1.431,1.431,0,0,1,.075-1.42,9.241,9.241,0,0,1,4.235-3.5,11.192,11.192,0,0,1,4.33-.831,13.4,13.4,0,0,1,2.149.177,11.445,11.445,0,0,1,5.877,2.725,8.347,8.347,0,0,1,2.806,5.919,9.227,9.227,0,0,1-1.926,5.527,19.609,19.609,0,0,1-4.114,3.923,49.154,49.154,0,0,1-8.6,5.156l-.234.758.237-.665,5.605,2a1.465,1.465,0,0,1,.847,1.962l-2.235,5.172A1.46,1.46,0,0,1,147.7,310.88Z" transform="translate(-133.141 -276.624)" fill="#3c3fa7"/>
            <path id="Trazado_115032" data-name="Trazado 115032" d="M148.333,277.741a12.594,12.594,0,0,1,2.034.168,10.8,10.8,0,0,1,5.515,2.55,7.7,7.7,0,0,1,2.576,5.411,8.5,8.5,0,0,1-1.789,5.1,18.9,18.9,0,0,1-3.969,3.776,48.379,48.379,0,0,1-8.478,5.081.755.755,0,0,0,.064,1.4q2.8,1,5.605,2a.758.758,0,0,1,.437,1.016l-2.236,5.174a.761.761,0,0,1-.7.466.746.746,0,0,1-.271-.051c-4.338-1.689-8.62-3.535-12.815-5.539.239-3.542.25-3.744.489-7.285,3.008-.962,6-1.955,8.917-3.149A19.036,19.036,0,0,0,150.2,290a3.46,3.46,0,0,0,1.255-2.828,2.835,2.835,0,0,0-1.855-2.012,5.154,5.154,0,0,0-1.926-.352,7.306,7.306,0,0,0-2.029.3,14.047,14.047,0,0,0-2.608,1.112.762.762,0,0,1-1.035-.332l-1.676-3.414a.735.735,0,0,1,.032-.724,8.553,8.553,0,0,1,3.915-3.233,10.54,10.54,0,0,1,4.06-.777m0-1.411h0a11.9,11.9,0,0,0-4.6.886,9.964,9.964,0,0,0-4.563,3.778,2.138,2.138,0,0,0-.1,2.114l1.67,3.4a2.173,2.173,0,0,0,2.955.962,12.819,12.819,0,0,1,2.347-1.007,5.85,5.85,0,0,1,1.637-.25,3.734,3.734,0,0,1,1.4.251,1.5,1.5,0,0,1,.99.934c.067.4-.248.982-.864,1.6a17.8,17.8,0,0,1-6.017,3.545c-2.916,1.192-5.96,2.2-8.817,3.113l-.914.292-.065.958-.244,3.646-.244,3.64-.064.956.864.413c4.168,1.991,8.512,3.868,12.912,5.581a2.169,2.169,0,0,0,2.785-1.183l1.191-2.758,1.039-2.4a2.17,2.17,0,0,0-1.25-2.9l-2.811-1.006-1.334-.477a49.891,49.891,0,0,0,7.316-4.543,20.271,20.271,0,0,0,4.261-4.07,9.923,9.923,0,0,0,2.063-5.96,9.053,9.053,0,0,0-3.035-6.426,12.123,12.123,0,0,0-6.235-2.9,14,14,0,0,0-2.267-.188Z" transform="translate(-132.834 -276.33)"/>
          </g>
        </g>
      </g>
      <g id="Grupo_81081" data-name="Grupo 81081" transform="translate(105.705 297.744)">
        <g id="Grupo_81078" data-name="Grupo 81078" transform="translate(1.674 1.673)" style="mix-blend-mode: overlay;isolation: isolate">
          <path id="Trazado_115033" data-name="Trazado 115033" d="M124.94,354.35a1.462,1.462,0,0,1-1.3-.8l-1.537-3.005a1.457,1.457,0,0,1,.607-1.952,13.208,13.208,0,0,0,3.926-2.859c1.108-1.284,1.872-3.336,1.086-5.031a2.686,2.686,0,0,0-1.818-1.534,2.071,2.071,0,0,0-.391-.036,3.343,3.343,0,0,0-2.279,1.083,7.364,7.364,0,0,0-1.21,1.739,1.467,1.467,0,0,1-2.239.424l-1.865-1.584a1.474,1.474,0,0,1-.275-1.913c1.306-2.011,2.708-4.372,2.821-6.935a3.751,3.751,0,0,0-.221-1.619,1.637,1.637,0,0,0-.922-.943,1.287,1.287,0,0,0-.412-.066,2.469,2.469,0,0,0-1.183.366,5.292,5.292,0,0,0-2.015,2.372,10.111,10.111,0,0,0-.627,1.907,1.453,1.453,0,0,1-1.842,1.078l-3.113-.909a1.476,1.476,0,0,1-1.041-1.622c.466-2.988,1.189-6.052,3.307-8.248a8.652,8.652,0,0,1,6.221-2.623,8.278,8.278,0,0,1,1.229.091,8.552,8.552,0,0,1,6.929,10.886l.04.061a7.94,7.94,0,0,1,1.752-.2,8.294,8.294,0,0,1,4.478,1.322,9.519,9.519,0,0,1,4.1,6.723,11.68,11.68,0,0,1-1.792,7.641,13.566,13.566,0,0,1-10.308,6.172Z" transform="translate(-108.371 -320.939)" fill="#3c384f"/>
          <path id="Trazado_115034" data-name="Trazado 115034" d="M118.325,322.055a7.508,7.508,0,0,1,1.125.084,7.846,7.846,0,0,1,6.355,9.994.751.751,0,0,0,.718.961.788.788,0,0,0,.17-.019,7.09,7.09,0,0,1,1.582-.176,7.557,7.557,0,0,1,4.094,1.208,8.812,8.812,0,0,1,3.781,6.223,11.028,11.028,0,0,1-1.689,7.174,12.85,12.85,0,0,1-9.763,5.844h-.052a.763.763,0,0,1-.673-.416c-.511-1-1.024-2-1.534-3a.754.754,0,0,1,.315-1.01,14.056,14.056,0,0,0,4.124-3.018,5.582,5.582,0,0,0,1.191-5.789,3.393,3.393,0,0,0-2.322-1.93,2.844,2.844,0,0,0-.528-.049,4.043,4.043,0,0,0-2.782,1.3,8.21,8.21,0,0,0-1.327,1.9.754.754,0,0,1-.668.4.763.763,0,0,1-.495-.181c-.617-.524-1.241-1.051-1.861-1.581a.759.759,0,0,1-.142-.991c1.459-2.248,2.818-4.636,2.933-7.289a4.453,4.453,0,0,0-.275-1.923,2.332,2.332,0,0,0-1.348-1.338,1.965,1.965,0,0,0-.637-.1,3.155,3.155,0,0,0-1.536.46,5.948,5.948,0,0,0-2.3,2.688,10.846,10.846,0,0,0-.673,2.041.748.748,0,0,1-.951.563c-1.035-.3-2.075-.605-3.118-.911a.764.764,0,0,1-.542-.841c.447-2.867,1.126-5.8,3.118-7.861a8,8,0,0,1,5.712-2.408m0-1.411a9.36,9.36,0,0,0-6.731,2.843c-2.252,2.333-3.01,5.522-3.494,8.62a2.188,2.188,0,0,0,1.536,2.413l1.428.417,1.692.495a2.16,2.16,0,0,0,2.725-1.6,9.34,9.34,0,0,1,.581-1.769A4.591,4.591,0,0,1,117.795,330a1.779,1.779,0,0,1,.823-.267.563.563,0,0,1,.181.027.956.956,0,0,1,.5.546,3.091,3.091,0,0,1,.167,1.317c-.1,2.385-1.452,4.648-2.707,6.582a2.179,2.179,0,0,0,.405,2.83c.368.314.733.624,1.1.933l.768.653a2.193,2.193,0,0,0,1.41.517,2.166,2.166,0,0,0,1.91-1.14,6.756,6.756,0,0,1,1.094-1.584,2.672,2.672,0,0,1,1.773-.869,1.422,1.422,0,0,1,.265.024,2,2,0,0,1,1.306,1.142c.653,1.4-.023,3.156-.981,4.269a12.613,12.613,0,0,1-3.725,2.7,2.158,2.158,0,0,0-.9,2.892l.752,1.47.784,1.533a2.17,2.17,0,0,0,1.93,1.185c.049,0,.1,0,.149,0a14.284,14.284,0,0,0,10.859-6.5,12.383,12.383,0,0,0,1.9-8.106,10.234,10.234,0,0,0-4.411-7.227,9.009,9.009,0,0,0-4.863-1.436,8.652,8.652,0,0,0-.888.046,9.241,9.241,0,0,0-7.725-10.789,8.98,8.98,0,0,0-1.337-.1Z" transform="translate(-108.077 -320.644)" fill="#3c384f"/>
        </g>
        <g id="Grupo_81080" data-name="Grupo 81080" transform="translate(0 0)">
          <g id="Grupo_81079" data-name="Grupo 81079">
            <path id="Trazado_115035" data-name="Trazado 115035" d="M122.568,351.978a1.462,1.462,0,0,1-1.3-.8l-1.537-3.006a1.457,1.457,0,0,1,.606-1.951,13.2,13.2,0,0,0,3.926-2.859c1.108-1.284,1.872-3.336,1.085-5.031a2.683,2.683,0,0,0-1.817-1.535,2.133,2.133,0,0,0-.392-.036,3.344,3.344,0,0,0-2.278,1.084,7.358,7.358,0,0,0-1.21,1.738,1.464,1.464,0,0,1-1.291.771,1.479,1.479,0,0,1-.948-.346l-1.865-1.584a1.474,1.474,0,0,1-.275-1.913c1.306-2.012,2.708-4.372,2.821-6.935a3.752,3.752,0,0,0-.221-1.619,1.637,1.637,0,0,0-.922-.943,1.272,1.272,0,0,0-.413-.066,2.468,2.468,0,0,0-1.183.366,5.288,5.288,0,0,0-2.015,2.372,10.1,10.1,0,0,0-.627,1.907,1.456,1.456,0,0,1-1.842,1.078l-3.113-.909a1.477,1.477,0,0,1-1.042-1.622c.466-2.989,1.19-6.052,3.308-8.248a8.652,8.652,0,0,1,6.22-2.624,8.281,8.281,0,0,1,1.23.091,8.552,8.552,0,0,1,6.928,10.886l.041.061a7.89,7.89,0,0,1,1.751-.2,8.3,8.3,0,0,1,4.479,1.322,9.517,9.517,0,0,1,4.1,6.723,11.68,11.68,0,0,1-1.792,7.641,13.566,13.566,0,0,1-10.308,6.172Z" transform="translate(-105.999 -318.567)" fill="#ffe891"/>
            <path id="Trazado_115036" data-name="Trazado 115036" d="M115.953,319.684a7.508,7.508,0,0,1,1.125.084,7.846,7.846,0,0,1,6.355,9.994.751.751,0,0,0,.718.961.791.791,0,0,0,.17-.019,7.085,7.085,0,0,1,1.582-.176A7.559,7.559,0,0,1,130,331.736a8.81,8.81,0,0,1,3.781,6.223,11.03,11.03,0,0,1-1.689,7.175,12.852,12.852,0,0,1-9.764,5.844h-.051a.766.766,0,0,1-.674-.416l-1.534-3a.755.755,0,0,1,.315-1.01,14.063,14.063,0,0,0,4.125-3.018,5.581,5.581,0,0,0,1.19-5.789,3.389,3.389,0,0,0-2.321-1.93,2.842,2.842,0,0,0-.529-.049,4.045,4.045,0,0,0-2.782,1.3,8.221,8.221,0,0,0-1.327,1.9.753.753,0,0,1-.668.4.766.766,0,0,1-.495-.181c-.617-.525-1.241-1.051-1.861-1.581a.759.759,0,0,1-.141-.991c1.459-2.248,2.817-4.637,2.933-7.289a4.458,4.458,0,0,0-.275-1.924,2.334,2.334,0,0,0-1.348-1.337,1.946,1.946,0,0,0-.637-.1,3.145,3.145,0,0,0-1.536.46,5.942,5.942,0,0,0-2.3,2.687,10.837,10.837,0,0,0-.673,2.042.748.748,0,0,1-.951.563c-1.035-.3-2.075-.605-3.118-.911a.765.765,0,0,1-.542-.842c.448-2.867,1.126-5.8,3.118-7.86a8,8,0,0,1,5.712-2.408m0-1.411a9.358,9.358,0,0,0-6.731,2.842c-2.252,2.334-3.01,5.523-3.494,8.62a2.189,2.189,0,0,0,1.536,2.413l1.428.417q.848.247,1.692.495a2.16,2.16,0,0,0,2.725-1.6,9.391,9.391,0,0,1,.58-1.769,4.592,4.592,0,0,1,1.732-2.055,1.775,1.775,0,0,1,.824-.267.565.565,0,0,1,.181.026.962.962,0,0,1,.5.547,3.1,3.1,0,0,1,.167,1.317c-.1,2.385-1.452,4.648-2.708,6.582a2.18,2.18,0,0,0,.406,2.83c.367.314.732.624,1.1.933l.768.652a2.173,2.173,0,0,0,3.32-.622,6.743,6.743,0,0,1,1.094-1.583,2.672,2.672,0,0,1,1.772-.87,1.424,1.424,0,0,1,.265.025,2,2,0,0,1,1.306,1.142,4.216,4.216,0,0,1-.981,4.268,12.608,12.608,0,0,1-3.726,2.7,2.158,2.158,0,0,0-.9,2.893l.752,1.47.783,1.533a2.171,2.171,0,0,0,1.931,1.185c.049,0,.1,0,.149,0a14.288,14.288,0,0,0,10.859-6.5,12.384,12.384,0,0,0,1.9-8.106,10.23,10.23,0,0,0-4.412-7.227,9,9,0,0,0-4.863-1.436,8.844,8.844,0,0,0-.888.045,9.242,9.242,0,0,0-7.725-10.789,9.086,9.086,0,0,0-1.337-.1Z" transform="translate(-105.705 -318.273)"/>
          </g>
        </g>
      </g>
    </g>
    <g id="Grupo_158054" data-name="Grupo 158054" transform="translate(961.054 395.894) rotate(-22)">
      <path id="Trazado_117335" data-name="Trazado 117335" d="M209.184,942.7a.291.291,0,0,1-.147-.042c-.023-.026-.284-.21-.309-.235q-5.8-5.89-11.625-11.75a4.82,4.82,0,0,0-3.524-1.486,12.537,12.537,0,0,0-4.269,1.064,22.7,22.7,0,0,1-2.73.888c-1.449.336-2.934.712-4.443,1.1-5.236,1.327-10.65,2.7-15.785,2.7h0q-.483,0-.963-.016c-14.075-.494-16.67-10.476-19.955-23.11l-.284-1.09c-.585-2.248-1.4-4.776-2.253-7.454-3.346-10.454-7.511-23.463-2.383-31.849,2.553-4.177,8.307-6.227,13.033-7.545,3.85-1.074,7.677-2.222,11.506-3.369,4.078-1.223,8.3-2.487,12.463-3.634,1.223-.336,2.567-.728,4-1.148,6.8-1.983,16.107-4.7,24.09-4.7,4.952,0,8.892,1.056,11.711,3.141,7.108,5.257,9.181,15.27,11.009,24.106.341,1.644.673,3.25,1.027,4.781.215.928.439,1.867.665,2.813,2.369,9.917,4.819,20.171-.783,28.764-2.418,3.71-7.078,6.658-13.849,8.764a9.622,9.622,0,0,1-2.195.425c-2.224.2-2.309,1.225-2.533,3.951l-.039.473c-.361,4.32-.642,8.833-.858,13.793-.016.054-.029.106-.039.158a.429.429,0,0,1-.183.34A.657.657,0,0,1,209.184,942.7Z" transform="translate(-136.851 -849.761)" fill="#fff"/>
      <path id="Trazado_117336" data-name="Trazado 117336" d="M227.8,879.976c-2.306-9.965-3.667-23.074-12.514-29.617-10.3-7.614-30.228-.429-40.889,2.5-8.028,2.209-15.955,4.767-23.974,7-4.856,1.354-10.972,3.525-13.77,8.1-6.792,11.109,1.615,29.253,4.492,40.279,3.457,13.249,5.976,24.6,21.414,25.141,7.093.249,14.7-2.228,21.521-3.809,3.608-.837,6.8-3.361,9.345-.805q5.83,5.854,11.619,11.745a1.547,1.547,0,0,0,.612.462,1.61,1.61,0,0,0,1.78-.179,1.651,1.651,0,0,0,.741-1.162,1.589,1.589,0,0,0,.045-.184c0-.016.01-.026.011-.042.2-4.629.474-9.244.86-13.86.38-4.53.076-2.565,3.885-3.75,5.341-1.661,11.357-4.41,14.531-9.28C233.976,902.616,230.265,890.608,227.8,879.976Zm-1.039,26.22c-2.251,8.647-12.058,11.417-19.523,13.633a1.843,1.843,0,0,0-1.307,1.716c-.5,4.45-.811,8.919-1.043,13.39-4.328-5.273-9.218-11.9-15.636-10.273-9.874,2.5-28.4,9.769-37.325,1.9-4.774-4.206-5.807-13.483-7.35-19.261-1.86-6.967-3.562-13.979-5.271-20.984-1.208-4.955-2.525-10.345-.388-15.23,2.878-6.582,12.752-7.834,18.83-9.62,11.666-3.427,23.263-7.158,35.245-9.349,5.863-1.073,12.289-1.605,18.069.1,5.683,1.677,8.05,8.209,9.482,13.32,2.411,8.613,4.445,17.393,6.185,26.165A31.924,31.924,0,0,1,226.765,906.2Zm-25.5-39.373a11.822,11.822,0,0,1,2.474-3.566,13.308,13.308,0,0,1,3.456-3.3.323.323,0,0,1,.47.362,7.756,7.756,0,0,1-2.461,3.744,19.4,19.4,0,0,1-3.468,3.12A.322.322,0,0,1,201.267,866.823Zm6.23-.582c-.073.937-.722,1.336-1.456,1.819a5.528,5.528,0,0,1-2.149.963.351.351,0,0,1-.392-.511,5.767,5.767,0,0,1,1.814-1.9,2.268,2.268,0,0,1,1.918-.716A.356.356,0,0,1,207.5,866.241Zm-41.348,44.3a12.215,12.215,0,0,1-2.022,4.194c-.676.966-1.295,2.319-2.587,2.448a.231.231,0,0,1-.228-.174c-.19-1.293.967-2.2,1.7-3.136.931-1.192,1.866-2.352,2.858-3.495C165.986,910.251,166.187,910.393,166.15,910.546Zm-4.55.519a3.825,3.825,0,0,1,2.291-2.023.367.367,0,0,1,.445.445,4.112,4.112,0,0,1-1.808,2.507A.683.683,0,0,1,161.6,911.065Zm7.473.215a2.761,2.761,0,0,1,.137,1.97,6.522,6.522,0,0,1-.594,2.142c-.268.436-1.109.439-1.2-.156a4.937,4.937,0,0,1,.409-2.366,3.436,3.436,0,0,1,.895-1.635A.226.226,0,0,1,169.073,911.279Zm42.812-7.372a.557.557,0,0,1-.523.687c-1.2.142-2.242-1.237-3.019-1.99a33.891,33.891,0,0,1-2.649-2.671.154.154,0,0,1,.108-.261,6.057,6.057,0,0,1,3.564,1.6C210.22,901.933,211.718,902.765,211.885,903.907Zm-4.4-5.693c-.169-.072-.094-.307.046-.355,1.176-.411,3.142-.048,3.6,1.24a.223.223,0,0,1-.155.274,2.339,2.339,0,0,1-1.556-.358C208.779,898.736,208.124,898.49,207.482,898.214Zm-1.563,5.922a.637.637,0,0,1-.1.759c-.042.034-.083.067-.127.1a.635.635,0,0,1-.759-.1,5.651,5.651,0,0,1-1.559-2.567.209.209,0,0,1,.256-.256A4.16,4.16,0,0,1,205.919,904.136Zm-46.975-28.743a4.188,4.188,0,0,1,.613,1.235.251.251,0,0,1-.241.317,2.914,2.914,0,0,1-1.6-.449,16.258,16.258,0,0,1-1.437-1.126c-.885-.753-1.934-1.375-2.2-2.582a.364.364,0,0,1,.252-.445c1.3-.268,2.189.629,3.066,1.451A15.633,15.633,0,0,1,158.945,875.393Zm2.452-.177a2.084,2.084,0,0,1-.946-.438,3.811,3.811,0,0,1-.811-1.089,4.492,4.492,0,0,1-.84-2.327.884.884,0,0,1,1.314-.754,4.426,4.426,0,0,1,1.59,2.2,5.64,5.64,0,0,1,.434,1.254,2.035,2.035,0,0,1-.054.627A.547.547,0,0,1,161.4,875.216Zm-6.3,16.74c-1.268.746-3.583,1.024-4.663-.153a.3.3,0,0,1,0-.414c1.039-1.175,3.326-1.279,4.663-.592A.676.676,0,0,1,155.1,891.956Zm24.173-27.1a5.016,5.016,0,0,1,.243-2.768.31.31,0,0,1,.419-.109c1.738.784,1.852,3.989.67,5.314a.221.221,0,0,1-.269.035A3.355,3.355,0,0,1,179.271,864.851Zm35.646,15.5c-.518,1.507-3.3,1.883-4.6,1.283a.308.308,0,0,1-.062-.48,6.041,6.041,0,0,1,1.978-1.12,3.322,3.322,0,0,1,2.2-.538A.7.7,0,0,1,214.918,880.346Zm-19.739,34.543a.326.326,0,0,1-.438.115c-.879-.443-.988-1.193-1.4-2.021a9.726,9.726,0,0,1-.858-2.144.435.435,0,0,1,.632-.487C194.475,911.052,196.045,913.405,195.179,914.889Zm5.607-40.846c-7.235-7.464-17.458-.273-20.954,7.714-2.924-3.3-6.593-5.643-11.309-4.939-4.827.72-7.128,5.832-7.671,10.085-1.692,13.266,14.342,21.921,25.235,23.172a1.146,1.146,0,0,0,1.161-.513C196.043,902.53,212.088,885.7,200.786,874.043Zm-36.87,17.633c-.536-1.012-.924-3.144.439-3.7.16-.065.3.07.359.2a5.038,5.038,0,0,1,.208,1.634c.024.525.118,1.031.109,1.557A.6.6,0,0,1,163.916,891.676ZM182,905.5c-3.792.154-7.169-2.135-10.089-4.325-2.516-1.888-5.407-4.489-6.451-7.552a.084.084,0,0,1,.122-.095c2.914,1.968,5.1,4.906,8.056,6.882,2.712,1.811,5.7,2.894,8.53,4.467A.336.336,0,0,1,182,905.5Zm11.954-30.263a.112.112,0,0,1,.027-.2c4.107-1.287,10.326,5.858,7.383,9.462a.337.337,0,0,1-.525-.068c-1.058-1.714-1.026-3.792-2.27-5.458C197.315,877.284,195.641,876.393,193.957,875.234Zm7.307,13.921a.269.269,0,0,1-.361-.095c-.342-.508-.135-.95-.01-1.506.109-.487.1-.926.506-1.25a.259.259,0,0,1,.354,0C202.443,886.922,202.051,888.748,201.263,889.155Z" transform="translate(-134.072 -846.971)"/>
    </g>
    <g id="Grupo_158070" data-name="Grupo 158070">
      <g id="Grupo_157859" data-name="Grupo 157859" transform="matrix(0.985, -0.174, 0.174, 0.985, 1023.513, 215.434)">
        <path id="Trazado_118782" data-name="Trazado 118782" d="M-38.2,92.241c-3.256-3.645-8.408-4.715-12.982-5.432a224.327,224.327,0,0,0-43.17-2.523c-4.6.178-9.265.779-12.193,3.946-2.574,2.78-2.99,6.684-3.176,10.123a145.822,145.822,0,0,0,.016,16.088c.176,3.121.513,6.387,2.465,9.006,2.661,3.572,7.387,4.7,12.1,5.392A223.329,223.329,0,0,0-68.4,131.117a19.685,19.685,0,0,0,16.448,8.72,22.847,22.847,0,0,0,4.292-.416l2.618-.5-2.352-1.253a17.1,17.1,0,0,1-6.83-6.716c4.062-.317,8.824-1.2,12.421-4.246,5.173-4.377,6.174-11.5,6.754-18.414C-34.559,102.5-34.4,96.488-38.2,92.241Z" transform="translate(109.931 -84.122)" fill="#fff"/>
        <g id="Grupo_84976" data-name="Grupo 84976" transform="translate(0 0)">
          <g id="Grupo_84972" data-name="Grupo 84972">
            <path id="Trazado_118783" data-name="Trazado 118783" d="M-38.2,92.241c-3.256-3.645-8.408-4.715-12.982-5.432a224.335,224.335,0,0,0-43.17-2.523c-4.6.178-9.265.779-12.193,3.946-2.574,2.78-2.99,6.684-3.178,10.123a146.183,146.183,0,0,0,.018,16.088c.176,3.121.513,6.387,2.465,9.006,2.659,3.572,7.387,4.7,12.1,5.392A223.3,223.3,0,0,0-68.4,131.117a19.685,19.685,0,0,0,16.448,8.72,22.847,22.847,0,0,0,4.292-.416l2.618-.5-2.354-1.253a17.1,17.1,0,0,1-6.83-6.716c4.064-.317,8.826-1.2,12.421-4.246,5.175-4.377,6.175-11.5,6.755-18.414C-34.559,102.5-34.4,96.488-38.2,92.241Zm-4.82,33.028c-3.6,3.046-8.7,3.683-12.74,3.9l-1.381.072.576,1.258a19.106,19.106,0,0,0,6.027,7.408A17.725,17.725,0,0,1-67.1,129.673l-.27-.413-.5-.012a221.317,221.317,0,0,1-27-2.267c-4.311-.63-8.611-1.632-10.863-4.653-1.64-2.2-1.933-5.156-2.1-7.991a144.215,144.215,0,0,1-.016-15.879c.169-3.112.53-6.626,2.678-8.948,2.464-2.664,6.688-3.181,10.885-3.344,2.824-.107,5.689-.163,8.518-.163A222.333,222.333,0,0,1-51.47,88.668a34.555,34.555,0,0,1,7.111,1.726l-9.575,6.487a.707.707,0,0,0-.19.983.708.708,0,0,0,.586.31.707.707,0,0,0,.4-.122l10.295-6.974a11.263,11.263,0,0,1,2.952,2.136,127.139,127.139,0,0,1-16.63,12.037.709.709,0,0,0-.238.971.71.71,0,0,0,.605.341.713.713,0,0,0,.367-.1A128.686,128.686,0,0,0-39,94.31a10.957,10.957,0,0,1,1.612,3.36l-9.36,7.082a.706.706,0,0,0-.137.99.7.7,0,0,0,.564.281.7.7,0,0,0,.426-.144l8.862-6.7a23.718,23.718,0,0,1,.344,4.312c-2.079,1.537-4.087,2.956-6.03,4.32-1.809,1.272-3.516,2.474-5.079,3.636a.707.707,0,0,0-.144.989.706.706,0,0,0,.569.285.711.711,0,0,0,.422-.14c1.551-1.155,3.25-2.349,5.047-3.613,1.669-1.172,3.4-2.4,5.17-3.7-.044.954-.106,1.911-.185,2.865-.031.356-.062.713-.094,1.068l-9.069,6.863a.706.706,0,0,0-.137.99.7.7,0,0,0,.564.281.7.7,0,0,0,.426-.143l8.017-6.066C-37.838,116.639-39.1,121.953-43.016,125.269Z" transform="translate(109.931 -84.122)" fill="#231f20"/>
          </g>
          <g id="Grupo_84973" data-name="Grupo 84973" transform="translate(16.94 21.996)">
            <ellipse id="Elipse_4821" data-name="Elipse 4821" cx="2.662" cy="2.662" rx="2.662" ry="2.662" fill="#231f20"/>
          </g>
          <g id="Grupo_84974" data-name="Grupo 84974" transform="translate(34.907 21.996)">
            <ellipse id="Elipse_4822" data-name="Elipse 4822" cx="2.662" cy="2.662" rx="2.662" ry="2.662" fill="#231f20"/>
          </g>
          <g id="Grupo_84975" data-name="Grupo 84975" transform="translate(52.874 21.996)">
            <ellipse id="Elipse_4823" data-name="Elipse 4823" cx="2.662" cy="2.662" rx="2.662" ry="2.662" transform="translate(0)" fill="#231f20"/>
          </g>
        </g>
      </g>
      <path id="Trazado_131779" data-name="Trazado 131779" d="M8.234.953q.452,0,.777.592a6.5,6.5,0,0,1,.563,1.578A19.423,19.423,0,0,1,9.962,5.4q.151,1.288.249,2.68t.151,2.8q.052,1.4.087,2.622t.064,2.163q.029.945.075,1.409a4.092,4.092,0,0,0,.1.609q.064.249.133.447t.116.377a1.654,1.654,0,0,1,.046.412.636.636,0,0,1-.731.708,1.45,1.45,0,0,1-.824-.232,2.046,2.046,0,0,1-.592-.615,3.78,3.78,0,0,1-.4-.864,7.119,7.119,0,0,1-.244-.98,8.774,8.774,0,0,1-.116-.98q-.029-.481-.029-.841a.9.9,0,0,0-.093-.429.393.393,0,0,0-.383-.174q-.186,0-.476.006t-.609.017q-.319.012-.65.035t-.609.046a1.266,1.266,0,0,0-.725.319,1.931,1.931,0,0,0-.493.621q-.255.568-.5,1.166t-.487,1.16q-.244.563-.487,1.067a6.955,6.955,0,0,1-.522.911,2.84,2.84,0,0,1-.244.307.464.464,0,0,1-.348.11,1.112,1.112,0,0,1-.493-.116,1.479,1.479,0,0,1-.418-.3A1.408,1.408,0,0,1,.23,19.42a1.152,1.152,0,0,1-.093-.51,2.531,2.531,0,0,1,.116-.452q.1-.325.261-.742t.342-.876q.186-.458.348-.847t.273-.65q.11-.261.122-.284.128-.22.052-.336a.512.512,0,0,0-.255-.186,2.776,2.776,0,0,0-.429-.122,2.435,2.435,0,0,1-.476-.151A1.179,1.179,0,0,1,.108,14a.642.642,0,0,1-.157-.464.764.764,0,0,1,.168-.5,1.259,1.259,0,0,1,.412-.325,1.969,1.969,0,0,1,.528-.174,2.934,2.934,0,0,1,.528-.052,3.085,3.085,0,0,0,.383-.023,1.528,1.528,0,0,0,.354-.087,1.07,1.07,0,0,0,.307-.18.9.9,0,0,0,.232-.313q.278-.615.638-1.514t.766-1.92q.406-1.021.829-2.094t.835-2.024q.412-.951.789-1.7A6.943,6.943,0,0,1,7.4,1.5a1.723,1.723,0,0,1,.145-.174,1.441,1.441,0,0,1,.2-.174,1.418,1.418,0,0,1,.232-.139A.6.6,0,0,1,8.234.953ZM7.9,6.973q0-.557-.174-.557-.128,0-.29.36-.209.5-.423,1.061T6.587,8.968l-.412,1.119q-.2.551-.389,1.027a2.964,2.964,0,0,0-.162.516.792.792,0,0,0-.012.3.171.171,0,0,0,.093.133.42.42,0,0,0,.162.029.5.5,0,0,0,.081-.006.5.5,0,0,1,.081-.006l1.67-.116a.271.271,0,0,0,.168-.064.258.258,0,0,0,.07-.122.6.6,0,0,0,.017-.145v-.122q0-.545-.012-1.206T7.926,9q-.006-.644-.017-1.189T7.9,6.973ZM18.28,1.846a9.2,9.2,0,0,1,2.935,3.126,8.475,8.475,0,0,1,1.021,4.205,14.645,14.645,0,0,1-.377,3.439,11.861,11.861,0,0,1-1.038,2.8,9.132,9.132,0,0,1-1.549,2.14,8.309,8.309,0,0,1-1.9,1.456,5.82,5.82,0,0,1-1.247.51,4.2,4.2,0,0,1-1.061.151,2.745,2.745,0,0,1-1.293-.278,2.564,2.564,0,0,1-.806-.621,1.192,1.192,0,0,1-.3-.632q-.023-.29.22-.313.371-.035.447-.22a.843.843,0,0,0-.052-.557,10.783,10.783,0,0,1-.447-2.192q-.157-1.346-.186-2.97t.081-3.416q.11-1.792.354-3.544a.921.921,0,0,0-.041-.5q-.087-.2-.215-.226a1.5,1.5,0,0,1-.586-.22.719.719,0,0,1-.284-.36.851.851,0,0,1-.012-.464,1.907,1.907,0,0,1,.22-.534,2.77,2.77,0,0,1,.6-.719,3.266,3.266,0,0,1,.777-.493,3.849,3.849,0,0,1,.9-.278,5.436,5.436,0,0,1,.969-.087,5.651,5.651,0,0,1,1.554.215A4.634,4.634,0,0,1,18.28,1.846Zm-3.2,14.767a1.147,1.147,0,0,0,.157.458.332.332,0,0,0,.284.133.941.941,0,0,0,.215-.029,2.773,2.773,0,0,0,.284-.087,3.684,3.684,0,0,0,1.421-.992,7.734,7.734,0,0,0,1.282-1.879,12.135,12.135,0,0,0,.922-2.587A13.107,13.107,0,0,0,20,8.528a6.453,6.453,0,0,0-.238-1.775,4.783,4.783,0,0,0-.708-1.491,4.068,4.068,0,0,0-1.183-1.1,4.32,4.32,0,0,0-1.665-.58,1.154,1.154,0,0,0-.122-.017q-.064-.006-.133-.006a.371.371,0,0,0-.238.07.448.448,0,0,0-.133.18.936.936,0,0,0-.064.238,1.805,1.805,0,0,0-.017.244q-.035.673-.116,1.67t-.162,2.158q-.081,1.16-.157,2.384t-.11,2.372q-.035,1.148-.012,2.117A10.925,10.925,0,0,0,15.078,16.613ZM22.641,1.776a.551.551,0,0,1-.012-.128.541.541,0,0,1,.232-.481,1.058,1.058,0,0,1,.6-.157,2.44,2.44,0,0,1,.261.017,1.749,1.749,0,0,1,.325.07,1.341,1.341,0,0,1,.336.162.947.947,0,0,1,.284.3,4.234,4.234,0,0,1,.4,1.021q.2.708.412,1.659T25.889,6.3l.394,2.227q.2,1.114.383,2.146t.365,1.833a12.782,12.782,0,0,0,.342,1.276q.162.476.3.476.1,0,.226-.238a5.58,5.58,0,0,0,.267-.644q.145-.406.313-.963t.336-1.195q.168-.638.348-1.328t.365-1.363l.534-1.949q.267-.974.539-1.868t.534-1.659q.261-.766.5-1.328A5.92,5.92,0,0,1,32.1.837q.215-.325.389-.325a1.757,1.757,0,0,1,.6.087.96.96,0,0,1,.383.244.931.931,0,0,1,.209.365,1.5,1.5,0,0,1,.064.441,3.263,3.263,0,0,1-.075.545q-.075.383-.215.934t-.325,1.235q-.186.684-.394,1.438t-.441,1.554q-.232.8-.464,1.589-.336,1.148-.667,2.3t-.655,2.2q-.325,1.056-.638,1.978t-.6,1.63A7.974,7.974,0,0,1,28.7,18.2a1.235,1.235,0,0,1-.516.534q-.058.023-.232.081a1,1,0,0,1-.22.058.9.9,0,0,1-.539-.331,4.7,4.7,0,0,1-.737-1.108,17.153,17.153,0,0,1-.87-2.065q-.464-1.288-.957-3.184t-1-4.472Q23.117,5.14,22.641,1.776ZM34.81,12.68a.551.551,0,0,1-.128.012.694.694,0,0,1-.389-.128,1.234,1.234,0,0,1-.336-.342,2.012,2.012,0,0,1-.238-.493,1.822,1.822,0,0,1-.093-.58q0-.128.267-.232a5.256,5.256,0,0,1,.731-.209.529.529,0,0,0,.2-.087.233.233,0,0,0,.081-.11.3.3,0,0,0,.012-.116q-.006-.058-.006-.116,0-1.311.093-2.68t.232-2.633a.886.886,0,0,0-.046-.412q-.07-.18-.464-.331a1.363,1.363,0,0,1-.551-.371.765.765,0,0,1-.215-.51.918.918,0,0,1,.122-.481,1.222,1.222,0,0,1,.313-.348,1.933,1.933,0,0,1,.429-.244q.238-.1.481-.18a1.919,1.919,0,0,0,.3-.11.678.678,0,0,0,.191-.145,1.313,1.313,0,0,0,.18-.261q.093-.168.244-.47a1.179,1.179,0,0,1,.307-.371.766.766,0,0,1,.481-.139,1.18,1.18,0,0,1,.3.041,1.242,1.242,0,0,1,.284.11.847.847,0,0,1,.215.162.285.285,0,0,1,.087.2q.046.267.081.394t.255.128h.093q.568-.058,1.021-.087t.818-.046q.365-.017.673-.023t.586-.006a2.312,2.312,0,0,1,1.369.371,1.391,1.391,0,0,1,.522,1.218.593.593,0,0,1-.11.36.91.91,0,0,1-.278.249,1.338,1.338,0,0,1-.354.145,1.4,1.4,0,0,1-.336.046q-.568,0-1.061.029t-.963.075q-.47.046-.94.087t-1,.075a.5.5,0,0,0-.441.238,1.379,1.379,0,0,0-.139.563q-.093,1.148-.232,2.4a22.569,22.569,0,0,0-.139,2.494.6.6,0,0,0,.093.36.421.421,0,0,0,.36.128h.075a.36.36,0,0,0,.087-.012q.58-.07,1.183-.11t1.183-.058q.58-.017,1.119-.023t1-.006a.608.608,0,0,1,.458.174,1.1,1.1,0,0,1,.249.406,1.637,1.637,0,0,1,.093.458.977.977,0,0,1-.023.331q-.058.186-.574.3a12.292,12.292,0,0,1-1.293.2q-.777.087-1.717.174t-1.833.215a.415.415,0,0,0-.238.11.541.541,0,0,0-.128.2.749.749,0,0,0-.046.22,1,1,0,0,0,.006.191q.093.835.238,1.537a4.85,4.85,0,0,0,.4,1.206,2.137,2.137,0,0,0,.65.789,1.643,1.643,0,0,0,.986.284,6.58,6.58,0,0,0,1.067-.075q.452-.075.812-.162t.667-.157a2.854,2.854,0,0,1,.632-.07.943.943,0,0,1,.539.145,1.033,1.033,0,0,1,.336.371,1.742,1.742,0,0,1,.174.487,2.572,2.572,0,0,1,.052.5.824.824,0,0,1-.191.551,1.517,1.517,0,0,1-.5.377,3.146,3.146,0,0,1-.69.238,6.482,6.482,0,0,1-.783.128q-.4.041-.766.046t-.632.006h-.151a4.852,4.852,0,0,1-2.407-.539,4.394,4.394,0,0,1-1.543-1.433,6.473,6.473,0,0,1-.864-2.036,14.654,14.654,0,0,1-.371-2.349.527.527,0,0,0-.058-.209.11.11,0,0,0-.093-.046A.162.162,0,0,0,34.81,12.68ZM47.048.7a.677.677,0,0,1,.487.2,4.889,4.889,0,0,1,.4.441q.191.238.383.441a.584.584,0,0,0,.435.2h2.053a3.2,3.2,0,0,1,2.436,1.073,3.6,3.6,0,0,1,.7,1.195,4.354,4.354,0,0,1,.249,1.491,4.8,4.8,0,0,1-.255,1.56,7.111,7.111,0,0,1-.667,1.421,8.32,8.32,0,0,1-.951,1.264q-.539.592-1.1,1.1t-1.114.934q-.551.423-1,.76-.3.232-.267.394t.313.325q.406.232.974.545t1.189.684q.621.371,1.224.766a12.545,12.545,0,0,1,1.085.789,5.406,5.406,0,0,1,.777.76,1.1,1.1,0,0,1,.3.667.583.583,0,0,1-.174.429.727.727,0,0,1-.534.174,2.838,2.838,0,0,1-1-.232,13.692,13.692,0,0,1-1.247-.568q-.655-.336-1.305-.708t-1.172-.638a1.5,1.5,0,0,0-.2-.081.624.624,0,0,0-.2-.035.344.344,0,0,0-.244.1.4.4,0,0,0-.081.342q.023.418.041.7t.029.493q.012.209.012.36v.29a10.393,10.393,0,0,1-.052,1.177,2.3,2.3,0,0,1-.157.661.554.554,0,0,1-.244.29.743.743,0,0,1-.313.064,1.27,1.27,0,0,1-.615-.133,2.007,2.007,0,0,1-.348-.226,1.56,1.56,0,0,1-.383-.644,4.7,4.7,0,0,1-.2-.934q-.064-.522-.081-1.1T46.2,16.352q-.012-.563-.046-1.073a5.113,5.113,0,0,0-.128-.882,1.84,1.84,0,0,0-.168-.406q-.11-.2-.226-.394a2.684,2.684,0,0,1-.2-.412,1.284,1.284,0,0,1-.081-.458,1.621,1.621,0,0,1,.075-.493,2.3,2.3,0,0,1,.2-.458,1.835,1.835,0,0,0,.2-.644,7.123,7.123,0,0,0,.07-.829q.012-.429.006-.835T45.9,8.783l.023-1.926a.383.383,0,0,0-.075-.273.233.233,0,0,0-.168-.075.409.409,0,0,0-.162.035.6.6,0,0,0-.139.081q-.174.139-.342.284a2.884,2.884,0,0,0-.307.307,1.079,1.079,0,0,1-.441.319,1.437,1.437,0,0,1-.522.1,1.476,1.476,0,0,1-.47-.075,1.36,1.36,0,0,1-.406-.215A1.078,1.078,0,0,1,42.6,7a.945.945,0,0,1-.11-.458,1.082,1.082,0,0,1,.267-.655,4.64,4.64,0,0,1,.673-.684,10.6,10.6,0,0,1,.9-.679q.5-.336.963-.626a2.075,2.075,0,0,0,.69-.7,1.88,1.88,0,0,0,.261-.708q.023-.244.058-.493t.081-.47q.046-.22.087-.389a.631.631,0,0,1,.087-.226A.486.486,0,0,1,46.77.744.749.749,0,0,1,47.048.7Zm4.64,5.209a1.3,1.3,0,0,0-.157-.655A1.342,1.342,0,0,0,51.12,4.8a1.7,1.7,0,0,0-.58-.249,2.966,2.966,0,0,0-.673-.075,3.385,3.385,0,0,0-.777.093,1.084,1.084,0,0,0-.307.122.558.558,0,0,0-.2.215,1.123,1.123,0,0,0-.11.354,4.461,4.461,0,0,0-.046.539q-.012.394-.035.893t-.041,1q-.017.5-.035.986t-.029.864q-.012.708.209.708a1.062,1.062,0,0,0,.522-.3,10.6,10.6,0,0,0,.853-.795,9.609,9.609,0,0,0,.87-1.027,6.762,6.762,0,0,0,.673-1.125A2.594,2.594,0,0,0,51.689,5.906Zm14.118-.893a3.949,3.949,0,0,1-.186,1.253,4.526,4.526,0,0,1-.47,1,4.749,4.749,0,0,1-.615.783q-.331.336-.615.586t-.47.423q-.186.174-.186.278t.226.244q.226.128.568.3t.737.412a3.744,3.744,0,0,1,.737.586,2.974,2.974,0,0,1,.568.829,2.665,2.665,0,0,1,.226,1.143,4.7,4.7,0,0,1-.186,1.259,9.314,9.314,0,0,1-.493,1.346q-.307.679-.69,1.34t-.771,1.247q-.389.586-.76,1.061t-.638.777a3.382,3.382,0,0,1-.708.632,1.351,1.351,0,0,1-.719.191.984.984,0,0,1-.563-.139.735.735,0,0,1-.284-.365,1.208,1.208,0,0,1-.058-.51,2.3,2.3,0,0,1,.122-.568,3.675,3.675,0,0,1,.244-.551,2.178,2.178,0,0,1,.319-.452q.139-.151.394-.493t.557-.8q.3-.458.621-.986t.58-1.038a8.041,8.041,0,0,0,.423-.969,2.4,2.4,0,0,0,.162-.771,1.03,1.03,0,0,0-.168-.58,1.87,1.87,0,0,0-.435-.458,3,3,0,0,0-.609-.354,5.415,5.415,0,0,0-.684-.249,4.982,4.982,0,0,0-.661-.145,3.849,3.849,0,0,0-.539-.046.616.616,0,0,0-.087.006.712.712,0,0,1-.1.006l-.226.041a.657.657,0,0,0-.319.18,1.291,1.291,0,0,0-.29.47,3.034,3.034,0,0,0-.162.911q-.012.267-.035.766t-.052,1.038q-.029.539-.046,1.032t-.017.76a4.8,4.8,0,0,0,.058.742q.058.371.133.731t.133.708a4.092,4.092,0,0,1,.058.673,1.057,1.057,0,0,1-.157.574.574.574,0,0,1-.528.249q-.058,0-.128-.006a.44.44,0,0,1-.128-.029,1.844,1.844,0,0,1-.713-.458,3,3,0,0,1-.5-.713,4.2,4.2,0,0,1-.331-.882,9.2,9.2,0,0,1-.191-.951q-.07-.476-.093-.922t-.023-.795q0-.708.035-1.554t.1-1.763q.064-.916.145-1.868t.18-1.873q.1-.922.209-1.775t.226-1.56a.21.21,0,0,0-.075-.226.328.328,0,0,0-.168-.064.592.592,0,0,0-.394.2,2.483,2.483,0,0,0-.383.487,3.35,3.35,0,0,0-.284.58,1.443,1.443,0,0,0-.11.47,1.8,1.8,0,0,0,.023.284,1.8,1.8,0,0,1,.023.284,1.214,1.214,0,0,1-.081.464.308.308,0,0,1-.313.2,1.158,1.158,0,0,1-.139-.023A1.631,1.631,0,0,1,54.96,6.9a2.4,2.4,0,0,1-.336-1.288,3.219,3.219,0,0,1,.3-1.392A3.969,3.969,0,0,1,55.708,3.1a5.288,5.288,0,0,1,1.137-.858,7.775,7.775,0,0,1,1.346-.6A8.846,8.846,0,0,1,59.6,1.289a8.2,8.2,0,0,1,1.322-.116,6.072,6.072,0,0,1,1.688.249,5.462,5.462,0,0,1,1.578.737,4.077,4.077,0,0,1,1.166,1.206A3.028,3.028,0,0,1,65.806,5.013Zm-4.095-1.4q-.139,0-.313.012a1.79,1.79,0,0,0-.331.052.909.909,0,0,0-.278.122A.361.361,0,0,0,60.632,4L60.273,7.3a2.442,2.442,0,0,0-.012.789q.058.232.22.232a1.249,1.249,0,0,0,.626-.325q.394-.3.87-.725a11.1,11.1,0,0,0,.882-.876,7.192,7.192,0,0,0,.684-.882,1.433,1.433,0,0,0,.278-.742.675.675,0,0,0-.261-.534,2.182,2.182,0,0,0-.615-.36,3.747,3.747,0,0,0-.708-.2A3.286,3.286,0,0,0,61.711,3.609Z" transform="translate(1021.899 300.242) rotate(-22)"/>
    </g>
  </g>
</svg>
