<svg xmlns="http://www.w3.org/2000/svg" xmlns:xlink="http://www.w3.org/1999/xlink" width="1320" height="579.078" viewBox="0 0 1320 579.078">
  <defs>
    <clipPath id="clip-path">
      <path id="Rectangle_652" data-name="Rectangle 652" d="M1299.213,0H20.787C9.307,0,0,9.6,0,21.447V557.631c0,11.845,9.307,21.447,20.787,21.447H1299.213c11.48,0,20.787-9.6,20.787-21.447V21.447C1320,9.6,1310.693,0,1299.213,0Z" fill="#6b8dff"/>
    </clipPath>
  </defs>
  <g id="Grupo_82655" data-name="Grupo 82655" transform="translate(-144.333 -70)">
    <path id="Rectangle_652-2" data-name="Rectangle 652" d="M1299.213,0H20.787C9.307,0,0,9.6,0,21.447V557.631c0,11.845,9.307,21.447,20.787,21.447H1299.213c11.48,0,20.787-9.6,20.787-21.447V21.447C1320,9.6,1310.693,0,1299.213,0Z" transform="translate(144.333 70)" fill="#3c3fa7"/>
    <g id="Enmascarar_grupo_86" data-name="Enmascarar grupo 86" transform="translate(144.333 70)" clip-path="url(#clip-path)">
      <g id="Grupo_81201" data-name="Grupo 81201" transform="translate(-199.6 -264.342)">
        <path id="Trazado_115134" data-name="Trazado 115134" d="M73.524,1730.529c19.295-9.528,33.449-31.46,35.713-55.336,1.952-20.59-4.153-42.643,3.366-61.487,8.961-22.461,33.661-30.575,55.251-29.66s43.044,8.154,64.5,5.307c28.9-3.834,55.118-27.429,65.148-58.637,6.547-20.369,6-43.362-.7-63.631H43.6v268.457A53.126,53.126,0,0,0,73.524,1730.529Z" transform="translate(152.995 -1202.742)" fill="#3c3fa7" opacity="0.34"/>
        <path id="Trazado_115135" data-name="Trazado 115135" d="M97.583,1763.92c22.746-19.336,35.872-52.535,33.534-84.818-1.251-17.278-6.39-35.825.753-51.123,5.848-12.523,18.692-18.994,31.076-20.132s24.706,2.108,36.977,4.333c28.9,5.237,59.019,4.744,86.813-5.71s53.109-31.511,67.251-60.781c11.456-23.711,14.768-52.917,7.925-78.606h-65.1c6.693,20.27,7.243,43.262.7,63.631-10.03,31.209-36.244,54.8-65.148,58.637-21.46,2.847-42.914-4.391-64.5-5.307s-46.29,7.2-55.251,29.66c-7.519,18.844-1.414,40.9-3.366,61.487-2.264,23.877-16.418,45.809-35.713,55.336a53.126,53.126,0,0,1-29.919,5.011v47.024A78.111,78.111,0,0,0,97.583,1763.92Z" transform="translate(152.995 -1202.742)" fill="#a6bbff" opacity="0.34"/>
        <path id="Trazado_115136" data-name="Trazado 115136" d="M1041.51,1941.486c-22.788,20.133-41.469,46.26-65.961,63.587-33.64,23.8-74.727,28.633-114.252,30.693s-80.074,2.147-117.076,18.157c-29.572,12.795-56.827,38.584-67.941,71.447h75.914c16.916-30.082,42.463-53.93,72.244-65.068,59.454-22.236,128.594,3.108,184.606-28.726,39.678-22.55,66.491-70.914,108.972-85.334,30.736-10.432,64.558-.569,92.076,18.234A227.167,227.167,0,0,1,1243.6,1993.1v-70.578C1180.479,1885.309,1098.059,1891.525,1041.51,1941.486Z" transform="translate(276.987 -1278.335)" fill="#2c2f96"/>
        <path id="Trazado_115137" data-name="Trazado 115137" d="M1118.016,1940.832c-42.481,14.42-69.294,62.784-108.972,85.334-56.012,31.834-125.152,6.49-184.606,28.726-29.781,11.138-55.328,34.986-72.244,65.068H1243.6V1987.692a227.176,227.176,0,0,0-33.513-28.626C1182.574,1940.263,1148.752,1930.4,1118.016,1940.832Z" transform="translate(276.987 -1272.924)" fill="#3c3fa7"/>
        <g id="Grupo_81202" data-name="Grupo 81202" transform="translate(0 0)">
          <g id="Grupo_81065" data-name="Grupo 81065" transform="translate(12.381 14.146)" style="mix-blend-mode: overlay;isolation: isolate">
            <path id="Trazado_115015" data-name="Trazado 115015" d="M486.285,403.37c-25.158,29.412-51.156,57.744-77.651,85.575,11.456-29.591,23.805-58.711,34.682-88.612,12.328-33.9,26.662-80.1,11.117-115.661-35.424-81.047-124.969-1.521-157.923,39.274-3.509,4.349-6.861,8.889-10.255,13.376,11.775-32.944,22.375-66.794,19.576-102.387C301.982,186,262.715,174.255,228.911,197c-36.3,24.413-65.459,66.657-89.8,105.024-20.678,32.586,26.636,63.609,47.151,31.488a414.169,414.169,0,0,1,36.859-49.261q-2.937,6.148-5.937,12.272c-13.226,27-26.291,54.1-37.068,82.515-20.636,54.4-51.156,129.723-25.195,186.948,13.086,28.839,43.768,31.768,66.868,20.034,31.053-15.774,52.561-50.6,73.3-80.069,21.644-30.772,40.708-63.448,60.743-95.556,8.37-13.417,16.735-27.026,26.322-39.363.219-.286.449-.549.668-.829l-.24.865c-5.321,18.9-12.161,37.037-19.09,55.221-12.887,33.833-29.513,69.443-34.233,106.253-4.172,32.55,7.362,69.032,41.627,66.669,32.212-2.219,58.028-37.669,79.562-61.342,26.077-28.672,51.689-57.911,77.306-87.12C554.5,420.248,512.712,372.485,486.285,403.37Z" transform="translate(-128.709 -179.861)" fill="#3c384f"/>
            <path id="Trazado_115016" data-name="Trazado 115016" d="M372.087,610.26c-12.642,0-23.372-5.071-31.178-14.783-10.851-13.5-15.54-35.491-12.548-58.824,3.9-30.42,15.513-59.558,26.74-87.729,2.689-6.747,5.352-13.429,7.869-20.04,2.386-6.27,4.9-12.857,7.389-19.67q-2.287,3.642-4.527,7.243l-1.483,2.38q-7.809,12.51-15.477,25.093c-14.417,23.506-29.325,47.817-45.449,70.738-2.355,3.347-4.72,6.765-7.112,10.22-18.49,26.715-39.444,56.992-68.132,71.561-25.576,12.976-59.072,9.343-73.62-22.736-26.145-57.625,2.083-131.775,22.7-185.916l2.339-6.157c6.062-15.995,12.861-31.608,20.072-47.149q-2.507,3.732-4.919,7.517c-12.683,19.855-34.9,19.556-49.052,7.791-11.707-9.73-18.276-27.819-6.548-46.3,25.988-40.956,55.047-82.228,91.384-106.665,20.166-13.561,42.238-15.762,59.057-5.888,14.809,8.692,23.941,25.892,25.711,48.437,2.078,26.441-2.919,51.748-10.161,75.892,26.813-29.931,76.4-72.378,116.187-65.947,18.276,2.965,32.421,15.637,42.045,37.657,15.832,36.213,3.342,81.3-10.965,120.619-6.809,18.721-14.3,37.395-21.539,55.459l-2.564,6.39c21.55-23.088,40.828-44.6,58.519-65.273v.006c8.746-10.232,19.858-13.99,31.257-10.607,12.516,3.723,23.215,15.851,26.62,30.194a39.652,39.652,0,0,1-8.992,36.177l-2.914,3.317c-24.255,27.658-49.334,56.259-74.461,83.875-3.1,3.406-6.276,7.052-9.556,10.81-19.508,22.343-43.783,50.155-73.312,52.19C374.327,610.225,373.2,610.26,372.087,610.26ZM387.068,369.47a4.466,4.466,0,0,1,2.527.77,6.164,6.164,0,0,1,2.465,6.771l-.245.871c-5.577,19.819-12.85,38.916-19.268,55.764-2.543,6.676-5.232,13.417-7.942,20.219-10.924,27.419-22.223,55.769-25.91,84.519-2.5,19.521,1.295,38.307,9.905,49.022,6.386,7.947,15.2,11.544,26.234,10.828,25.565-1.766,47.339-26.7,66.55-48.712,3.331-3.812,6.564-7.517,9.707-10.977,25.059-27.545,50.107-56.1,74.33-83.726l2.908-3.317a26.659,26.659,0,0,0,6.292-24.6c-2.418-10.184-10.3-19.133-19.169-21.77-5.4-1.611-13.451-1.623-21.158,7.392v.006c-22.855,26.709-48.321,54.773-77.86,85.79a4.727,4.727,0,0,1-6.574.453,6.488,6.488,0,0,1-1.734-7.261c4.329-11.186,8.788-22.3,13.247-33.415,7.2-17.969,14.652-36.547,21.388-55.072,13.4-36.834,25.221-78.792,11.268-110.7-8.109-18.566-19.289-28.762-34.176-31.172-37.089-6-89.248,39.65-115.236,71.83-2.773,3.424-5.441,6.98-8.114,10.536l-2.021,2.691a4.767,4.767,0,0,1-6.684,1.187,6.423,6.423,0,0,1-2.1-7.338c11.211-31.381,21.931-64.921,19.205-99.607-1.462-18.584-8.407-32.031-20.082-38.886-13.618-7.994-31.93-5.912-48.989,5.554-34.682,23.333-62.9,63.477-88.225,103.389-8,12.612-3.06,23.589,4.235,29.651,9.879,8.2,25.314,9.17,34.473-5.178a422.3,422.3,0,0,1,37.377-49.959,4.748,4.748,0,0,1,6.825-.573,6.536,6.536,0,0,1,1.462,7.642q-2.953,6.175-5.968,12.326c-13.388,27.336-26.286,54.177-36.828,81.972l-2.345,6.169c-19.78,51.945-46.859,123.089-23.007,175.667,11.587,25.54,39.011,28.034,60.112,17.325,26.333-13.37,45.574-41.171,64.179-68.059,2.407-3.472,4.793-6.921,7.169-10.291,15.905-22.617,30.708-46.761,45.031-70.112q7.723-12.6,15.524-25.17l1.483-2.374c7.859-12.606,15.983-25.636,25.189-37.49l.465-.579A5.385,5.385,0,0,1,387.068,369.47ZM490.56,408.35h0Z" transform="translate(-132.979 -184.841)" fill="#3c384f"/>
            <path id="Trazado_115017" data-name="Trazado 115017" d="M160.229,225.8c-19.237,44.172-30.092,95.956-13.19,143.433,2.5,7.022,12.6,3.949,10.067-3.174-15.863-44.577-5.953-92.692,12.14-134.239C172.234,224.97,163.227,218.915,160.229,225.8Z" transform="translate(-108.991 3.49)" fill="#3c384f"/>
            <path id="Trazado_115018" data-name="Trazado 115018" d="M158.8,271.273c-.089-.012-.172-.042-.256-.06-.146-.322-.277-.674-.324-.77l-.026-.036c-.01-.048.005-.012-.01-.084-.674-2.667-1.154-5.363-1.666-8.078q-1.77-9.441-3.546-18.882c-.574-3.055-3.848-5.119-6.423-4.164-2.82,1.044-4.266,4.063-3.65,7.338q2.005,10.676,4.015,21.358c1.112,5.924,2.893,13.7,9.107,14.885a5.3,5.3,0,0,0,6.423-4.17C163.017,275.73,161.68,271.822,158.8,271.273Z" transform="translate(-91.701 83.939)" fill="#3c384f"/>
            <path id="Trazado_115019" data-name="Trazado 115019" d="M202.244,202.354c-5.927-3.615-11.206,6.682-5.269,10.3,8.2,5,10.7,15.177,11.023,25.176a196.6,196.6,0,0,1-2.355,34.2,250.512,250.512,0,0,1-18.124,64.086c-2.982,6.855,6.021,12.9,9.018,6.02a264.222,264.222,0,0,0,20.27-75.475C219.266,245.165,222.211,214.53,202.244,202.354Z" transform="translate(94.745 -101.635)" fill="#3c384f"/>
          </g>
          <g id="Grupo_81068" data-name="Grupo 81068" transform="translate(0 0)">
            <g id="Grupo_81067" data-name="Grupo 81067">
              <g id="Grupo_81066" data-name="Grupo 81066">
                <path id="Trazado_115020" data-name="Trazado 115020" d="M483.918,401c-25.158,29.412-51.156,57.744-77.656,85.569,11.456-29.585,23.811-58.711,34.687-88.606,12.328-33.9,26.657-80.1,11.117-115.661-35.424-81.047-124.97-1.527-157.923,39.274-3.514,4.343-6.861,8.883-10.255,13.376,11.77-32.944,22.37-66.794,19.576-102.387-3.848-48.938-43.115-60.679-76.92-37.943-36.306,24.419-65.459,66.663-89.807,105.03-20.678,32.586,26.641,63.609,47.157,31.488a414.712,414.712,0,0,1,36.854-49.267q-2.937,6.148-5.932,12.278c-13.226,27-26.291,54.1-37.068,82.509-20.641,54.409-51.156,129.723-25.194,186.954,13.085,28.839,43.763,31.769,66.868,20.034,31.053-15.774,52.561-50.6,73.3-80.069,21.644-30.772,40.7-63.448,60.738-95.556,8.376-13.417,16.741-27.026,26.322-39.369.219-.28.454-.543.674-.829l-.24.871c-5.321,18.9-12.166,37.037-19.09,55.221-12.892,33.827-29.513,69.437-34.233,106.253-4.177,32.55,7.363,69.032,41.627,66.669,32.207-2.219,58.023-37.669,79.557-61.342,26.082-28.672,51.694-57.917,77.312-87.126C552.128,417.878,510.339,370.115,483.918,401Z" transform="translate(-126.342 -177.491)" fill="#ffd947"/>
                <path id="Trazado_115021" data-name="Trazado 115021" d="M369.711,607.884c-12.642,0-23.367-5.065-31.173-14.778-10.851-13.5-15.54-35.491-12.548-58.83,3.9-30.414,15.508-59.552,26.74-87.729,2.684-6.747,5.347-13.423,7.869-20.033,2.386-6.27,4.9-12.857,7.389-19.67-1.525,2.422-3.034,4.844-4.527,7.243l-1.483,2.374q-7.809,12.511-15.482,25.093c-14.412,23.512-29.32,47.823-45.444,70.738-2.355,3.353-4.72,6.771-7.112,10.226-18.49,26.71-39.444,56.987-68.132,71.561-25.581,12.976-59.072,9.337-73.62-22.742-26.145-57.619,2.083-131.769,22.693-185.916l2.344-6.151c6.062-15.995,12.861-31.608,20.067-47.149q-2.5,3.732-4.919,7.511c-12.678,19.861-34.891,19.562-49.047,7.8-11.707-9.73-18.276-27.819-6.548-46.3,25.988-40.956,55.047-82.228,91.379-106.671,20.171-13.555,42.238-15.756,59.062-5.882,14.809,8.692,23.936,25.886,25.711,48.431,2.078,26.441-2.919,51.754-10.167,75.893,26.818-29.925,76.4-72.373,116.187-65.941,18.276,2.965,32.426,15.637,42.05,37.657,15.827,36.213,3.337,81.292-10.965,120.619-6.809,18.715-14.3,37.394-21.539,55.453l-2.564,6.389c21.55-23.082,40.828-44.589,58.519-65.267h0c8.746-10.231,19.858-13.984,31.257-10.6,12.516,3.723,23.215,15.851,26.615,30.194a39.624,39.624,0,0,1-8.986,36.171l-2.914,3.323c-24.255,27.658-49.334,56.253-74.461,83.875-3.1,3.407-6.276,7.052-9.561,10.81-19.5,22.342-43.778,50.156-73.307,52.19C371.951,607.848,370.828,607.884,369.711,607.884Zm14.981-240.79a4.46,4.46,0,0,1,2.527.776,6.155,6.155,0,0,1,2.47,6.771l-.245.871c-5.577,19.813-12.85,38.916-19.268,55.763-2.543,6.67-5.232,13.411-7.942,20.219C351.3,478.913,340,507.263,336.318,536.007c-2.5,19.521,1.295,38.307,9.911,49.028,6.381,7.941,15.2,11.544,26.234,10.828,25.565-1.766,47.339-26.7,66.545-48.712,3.331-3.818,6.569-7.523,9.712-10.977,25.059-27.545,50.107-56.1,74.33-83.726l2.908-3.323a26.648,26.648,0,0,0,6.287-24.6c-2.418-10.178-10.3-19.133-19.169-21.764-5.4-1.611-13.446-1.623-21.153,7.392h0c-22.855,26.709-48.321,54.773-77.86,85.8a4.728,4.728,0,0,1-6.574.453,6.48,6.48,0,0,1-1.734-7.26c4.329-11.186,8.788-22.3,13.242-33.421,7.206-17.963,14.652-36.541,21.393-55.065,13.4-36.834,25.221-78.792,11.268-110.71-8.114-18.56-19.294-28.756-34.176-31.172-37.089-6-89.253,39.655-115.242,71.83-2.767,3.43-5.436,6.986-8.109,10.536l-2.026,2.7a4.76,4.76,0,0,1-6.679,1.187,6.431,6.431,0,0,1-2.109-7.344c11.216-31.375,21.936-64.921,19.21-99.6-1.462-18.59-8.407-32.037-20.082-38.892-13.623-7.988-31.93-5.906-48.989,5.56-34.687,23.327-62.9,63.477-88.225,103.389-8,12.612-3.06,23.583,4.235,29.645,9.879,8.209,25.315,9.176,34.473-5.173a421.254,421.254,0,0,1,37.376-49.959,4.742,4.742,0,0,1,6.82-.573,6.522,6.522,0,0,1,1.462,7.637q-2.953,6.184-5.963,12.332c-13.393,27.336-26.286,54.177-36.833,81.972l-2.344,6.169c-19.774,51.945-46.854,123.089-23,175.661,11.587,25.546,39.011,28.04,60.111,17.331C247.9,569.8,267.142,542,285.747,515.114c2.407-3.478,4.793-6.92,7.164-10.3,15.91-22.611,30.714-46.755,45.037-70.106q7.723-12.6,15.524-25.176l1.483-2.368c7.859-12.606,15.983-25.642,25.184-37.49l.47-.579A5.381,5.381,0,0,1,384.691,367.093Zm103.493,38.886h0Z" transform="translate(-130.608 -182.47)"/>
              </g>
              <path id="Trazado_115022" data-name="Trazado 115022" d="M157.861,223.429c-19.242,44.172-30.092,95.95-13.2,143.433,2.5,7.016,12.605,3.949,10.073-3.174C138.87,319.105,148.78,271,166.878,229.449,169.86,222.594,160.858,216.545,157.861,223.429Z" transform="translate(-106.623 5.861)"/>
              <path id="Trazado_115023" data-name="Trazado 115023" d="M156.426,268.9c-.089-.012-.172-.042-.256-.06-.146-.328-.282-.674-.329-.77l-.021-.036c-.01-.048.005-.018-.01-.089-.674-2.661-1.159-5.363-1.666-8.072q-1.778-9.441-3.545-18.882c-.574-3.055-3.848-5.119-6.428-4.164-2.814,1.038-4.261,4.063-3.645,7.338l4.01,21.352c1.117,5.93,2.9,13.7,9.112,14.891a5.308,5.308,0,0,0,6.423-4.17C160.646,273.359,159.3,269.451,156.426,268.9Z" transform="translate(-89.33 86.311)"/>
              <path id="Trazado_115024" data-name="Trazado 115024" d="M199.874,199.983c-5.927-3.615-11.211,6.682-5.269,10.3,8.2,5,10.694,15.177,11.023,25.17a196.666,196.666,0,0,1-2.355,34.208,250.514,250.514,0,0,1-18.124,64.086c-2.987,6.855,6.021,12.9,9.018,6.02a264.5,264.5,0,0,0,20.27-75.475C216.9,242.788,219.842,212.153,199.874,199.983Z" transform="translate(97.115 -99.264)"/>
            </g>
          </g>
        </g>
        <g id="Grupo_81203" data-name="Grupo 81203" transform="translate(155.576 742.667)">
          <g id="Grupo_81065-2" data-name="Grupo 81065" transform="translate(5.879 6.717)" style="mix-blend-mode: overlay;isolation: isolate">
            <path id="Trazado_115015-2" data-name="Trazado 115015" d="M301.286,289.141c-11.947,13.967-24.293,27.421-36.874,40.637,5.44-14.052,11.3-27.88,16.47-42.079,5.854-16.1,12.661-38.039,5.279-54.924-16.822-38.487-59.345-.722-74.993,18.65-1.666,2.065-3.258,4.221-4.87,6.352,5.592-15.644,10.625-31.719,9.3-48.621-1.827-23.24-20.474-28.815-36.527-18.015-17.238,11.593-31.084,31.654-42.644,49.873-9.819,15.474,12.649,30.206,22.391,14.953a196.676,196.676,0,0,1,17.5-23.393q-1.395,2.919-2.819,5.828c-6.281,12.82-12.485,25.69-17.6,39.184-9.8,25.835-24.293,61.6-11.964,88.776,6.214,13.7,20.784,15.086,31.754,9.513,14.746-7.491,24.96-24.027,34.806-38.022,10.278-14.613,19.331-30.129,28.845-45.377a220.387,220.387,0,0,1,12.5-18.692c.1-.136.213-.261.317-.394l-.114.411c-2.527,8.975-5.775,17.588-9.066,26.223-6.12,16.066-14.015,32.977-16.256,50.457-1.981,15.457,3.5,32.781,19.767,31.659,15.3-1.054,27.556-17.888,37.782-29.129,12.383-13.616,24.546-27.5,36.711-41.371C333.679,297.156,313.835,274.474,301.286,289.141Z" transform="translate(-131.483 -183.003)" fill="#3c384f"/>
            <path id="Trazado_115016-2" data-name="Trazado 115016" d="M246.525,386.861a18.34,18.34,0,0,1-14.806-7.02c-5.153-6.411-7.379-16.854-5.958-27.934,1.852-14.446,7.367-28.282,12.7-41.66,1.277-3.2,2.542-6.377,3.737-9.516,1.133-2.977,2.326-6.105,3.509-9.341q-1.086,1.73-2.15,3.439l-.7,1.13q-3.708,5.941-7.35,11.916c-6.846,11.162-13.926,22.707-21.583,33.592-1.118,1.589-2.242,3.213-3.377,4.853-8.78,12.686-18.731,27.064-32.354,33.982-12.145,6.162-28.052,4.436-34.96-10.8-12.415-27.364.989-62.576,10.779-88.286l1.111-2.924c2.879-7.6,6.107-15.01,9.532-22.39q-1.19,1.772-2.336,3.57c-6.023,9.428-16.571,9.287-23.294,3.7-5.559-4.621-8.679-13.211-3.109-21.987,12.341-19.449,26.14-39.048,43.4-50.652,9.576-6.439,20.058-7.485,28.044-2.8,7.032,4.128,11.369,12.3,12.21,23,.987,12.556-1.386,24.574-4.825,36.039,12.733-14.213,36.282-34.371,55.174-31.317,8.679,1.408,15.4,7.425,19.966,17.882,7.518,17.2,1.587,38.606-5.207,57.279-3.233,8.89-6.789,17.758-10.228,26.336L273.22,320c10.233-10.964,19.388-21.177,27.789-31v0c4.153-4.859,9.43-6.644,14.843-5.037,5.944,1.768,11.024,7.527,12.641,14.338a18.83,18.83,0,0,1-4.27,17.18l-1.384,1.575c-11.518,13.134-23.427,26.716-35.359,39.83-1.47,1.618-2.98,3.349-4.538,5.133-9.264,10.61-20.792,23.817-34.814,24.784C247.589,386.844,247.053,386.861,246.525,386.861Zm7.114-114.345a2.12,2.12,0,0,1,1.2.366,2.927,2.927,0,0,1,1.17,3.215l-.117.414c-2.648,9.411-6.1,18.48-9.15,26.481-1.208,3.17-2.485,6.372-3.771,9.6-5.187,13.021-10.553,26.483-12.3,40.136-1.188,9.27.615,18.191,4.7,23.279,3.033,3.774,7.218,5.482,12.458,5.142,12.14-.839,22.48-12.681,31.6-23.132,1.582-1.81,3.117-3.57,4.61-5.213,11.9-13.08,23.794-26.642,35.3-39.759l1.381-1.575a12.66,12.66,0,0,0,2.988-11.684c-1.148-4.836-4.892-9.086-9.1-10.338-2.566-.765-6.388-.771-10.047,3.51v0c-10.853,12.684-22.946,26.01-36.974,40.739a2.245,2.245,0,0,1-3.122.215,3.081,3.081,0,0,1-.823-3.448c2.056-5.312,4.173-10.59,6.291-15.868,3.419-8.533,6.958-17.355,10.156-26.152,6.365-17.491,11.977-37.416,5.351-52.57-3.851-8.816-9.16-13.658-16.229-14.8-17.613-2.85-42.382,18.828-54.723,34.11-1.317,1.626-2.584,3.315-3.853,5l-.96,1.278a2.264,2.264,0,0,1-3.174.564,3.05,3.05,0,0,1-1-3.485c5.324-14.9,10.414-30.829,9.12-47.3-.694-8.825-3.992-15.211-9.537-18.466-6.467-3.8-15.163-2.808-23.264,2.638-16.47,11.08-29.869,30.144-41.9,49.1-3.8,5.989-1.453,11.2,2.011,14.08,4.691,3.9,12.021,4.354,16.37-2.459a200.543,200.543,0,0,1,17.749-23.724,2.255,2.255,0,0,1,3.241-.272,3.1,3.1,0,0,1,.694,3.629q-1.4,2.932-2.834,5.853c-6.358,12.981-12.482,25.727-17.489,38.926l-1.113,2.929c-9.393,24.667-22.252,58.451-10.925,83.419,5.5,12.128,18.525,13.312,28.545,8.227,12.5-6.349,21.642-19.551,30.477-32.319,1.143-1.649,2.276-3.286,3.4-4.887,7.553-10.74,14.583-22.205,21.384-33.294q3.667-5.983,7.372-11.953l.7-1.128a210.162,210.162,0,0,1,11.962-17.8l.221-.275A2.557,2.557,0,0,1,253.639,272.516Zm49.146,18.463h0Z" transform="translate(-132.979 -184.841)" fill="#3c384f"/>
            <path id="Trazado_115017-2" data-name="Trazado 115017" d="M148.9,224.206c-9.135,20.976-14.29,45.567-6.264,68.112,1.185,3.335,5.983,1.875,4.781-1.507-7.533-21.169-2.827-44.017,5.765-63.746C154.6,223.812,150.327,220.937,148.9,224.206Z" transform="translate(-124.572 -115.323)" fill="#3c384f"/>
            <path id="Trazado_115018-2" data-name="Trazado 115018" d="M150.374,254.308c-.042-.006-.082-.02-.121-.028-.069-.153-.131-.32-.154-.365l-.012-.017c0-.023,0-.006,0-.04-.32-1.266-.548-2.547-.791-3.836q-.841-4.483-1.684-8.967a2.476,2.476,0,0,0-3.05-1.977,2.971,2.971,0,0,0-1.733,3.485q.952,5.07,1.907,10.142c.528,2.813,1.374,6.5,4.324,7.068a2.519,2.519,0,0,0,3.05-1.98C152.378,256.424,151.743,254.568,150.374,254.308Z" transform="translate(-118.512 -85.627)" fill="#3c384f"/>
            <path id="Trazado_115019-2" data-name="Trazado 115019" d="M194.2,201.956c-2.814-1.717-5.321,3.173-2.5,4.893,3.893,2.374,5.081,7.207,5.234,11.956a93.361,93.361,0,0,1-1.118,16.242,118.961,118.961,0,0,1-8.607,30.433c-1.416,3.255,2.859,6.128,4.282,2.859a125.472,125.472,0,0,0,9.626-35.841C202.281,222.286,203.68,207.738,194.2,201.956Z" transform="translate(-53.166 -154.127)" fill="#3c384f"/>
          </g>
          <g id="Grupo_81068-2" data-name="Grupo 81068" transform="translate(0 0)">
            <g id="Grupo_81067-2" data-name="Grupo 81067">
              <g id="Grupo_81066-2" data-name="Grupo 81066">
                <path id="Trazado_115020-2" data-name="Trazado 115020" d="M298.916,286.771c-11.947,13.967-24.293,27.421-36.877,40.634,5.44-14.049,11.307-27.88,16.472-42.077,5.854-16.1,12.659-38.039,5.279-54.924-16.822-38.487-59.345-.725-74.993,18.65-1.669,2.063-3.258,4.218-4.87,6.352,5.589-15.644,10.623-31.719,9.3-48.621-1.827-23.24-20.474-28.815-36.527-18.018-17.241,11.6-31.084,31.656-42.647,49.876-9.819,15.474,12.651,30.206,22.393,14.953a196.94,196.94,0,0,1,17.5-23.4q-1.395,2.919-2.817,5.83c-6.281,12.82-12.485,25.69-17.6,39.181-9.8,25.837-24.293,61.6-11.964,88.779,6.214,13.695,20.782,15.086,31.754,9.513,14.746-7.491,24.96-24.027,34.806-38.022,10.278-14.613,19.329-30.13,28.843-45.377a222.1,222.1,0,0,1,12.5-18.7c.1-.133.216-.258.32-.394l-.114.414c-2.527,8.975-5.778,17.588-9.065,26.223-6.122,16.063-14.015,32.974-16.256,50.457-1.984,15.457,3.5,32.781,19.768,31.659,15.294-1.054,27.553-17.888,37.779-29.129,12.386-13.616,24.548-27.5,36.713-41.374C331.307,294.785,311.463,272.1,298.916,286.771Z" transform="translate(-129.113 -180.632)" fill="#3c3fa7"/>
                <path id="Trazado_115021-2" data-name="Trazado 115021" d="M244.151,384.487a18.332,18.332,0,0,1-14.8-7.017c-5.153-6.411-7.379-16.854-5.959-27.937,1.85-14.443,7.364-28.279,12.7-41.66,1.275-3.2,2.539-6.374,3.737-9.513,1.133-2.978,2.326-6.105,3.509-9.341-.724,1.15-1.441,2.3-2.15,3.439l-.7,1.128q-3.708,5.941-7.352,11.916c-6.844,11.165-13.923,22.71-21.58,33.591-1.118,1.592-2.242,3.216-3.377,4.856-8.78,12.684-18.731,27.061-32.354,33.982-12.148,6.162-28.052,4.434-34.96-10.8-12.415-27.362.989-62.574,10.776-88.286l1.113-2.921c2.879-7.6,6.107-15.01,9.529-22.39q-1.187,1.772-2.336,3.567c-6.02,9.431-16.569,9.29-23.291,3.7-5.559-4.621-8.679-13.211-3.109-21.987,12.341-19.449,26.14-39.048,43.393-50.655,9.579-6.437,20.058-7.482,28.047-2.793,7.032,4.128,11.367,12.293,12.21,23,.987,12.556-1.386,24.577-4.828,36.039,12.735-14.211,36.282-34.368,55.174-31.314,8.679,1.408,15.4,7.425,19.968,17.882,7.516,17.2,1.584,38.6-5.207,57.279-3.233,8.887-6.789,17.758-10.228,26.333l-1.217,3.034c10.233-10.961,19.388-21.174,27.789-30.994h0c4.153-4.859,9.43-6.641,14.843-5.034,5.944,1.768,11.024,7.527,12.639,14.338a18.816,18.816,0,0,1-4.267,17.177l-1.384,1.578c-11.518,13.134-23.427,26.713-35.359,39.83-1.47,1.618-2.98,3.349-4.54,5.133-9.261,10.61-20.789,23.818-34.811,24.784C245.215,384.47,244.682,384.487,244.151,384.487Zm7.114-114.345a2.118,2.118,0,0,1,1.2.368,2.923,2.923,0,0,1,1.173,3.216l-.117.414c-2.648,9.409-6.1,18.48-9.15,26.481-1.208,3.167-2.485,6.369-3.772,9.6-5.19,13.021-10.556,26.483-12.306,40.133-1.188,9.27.615,18.191,4.706,23.282,3.03,3.771,7.218,5.482,12.458,5.142,12.14-.839,22.48-12.681,31.6-23.132,1.582-1.813,3.119-3.572,4.612-5.213,11.9-13.08,23.794-26.642,35.3-39.759l1.381-1.578a12.655,12.655,0,0,0,2.985-11.683c-1.148-4.833-4.89-9.086-9.1-10.335-2.564-.765-6.385-.771-10.045,3.51h0c-10.853,12.684-22.946,26.01-36.973,40.742a2.245,2.245,0,0,1-3.122.215,3.077,3.077,0,0,1-.823-3.448c2.056-5.312,4.173-10.59,6.288-15.871,3.422-8.53,6.958-17.352,10.159-26.149,6.363-17.491,11.977-37.416,5.351-52.573-3.853-8.814-9.162-13.655-16.229-14.8-17.613-2.847-42.384,18.831-54.725,34.11-1.314,1.629-2.581,3.317-3.851,5L207.3,259.1a2.261,2.261,0,0,1-3.171.564,3.054,3.054,0,0,1-1-3.488c5.326-14.9,10.417-30.829,9.122-47.3-.694-8.828-3.992-15.213-9.537-18.469-6.469-3.793-15.163-2.8-23.264,2.64-16.472,11.077-29.869,30.144-41.9,49.1-3.8,5.989-1.453,11.2,2.011,14.077,4.691,3.9,12.021,4.357,16.37-2.456a200.042,200.042,0,0,1,17.749-23.724,2.252,2.252,0,0,1,3.238-.272,3.1,3.1,0,0,1,.694,3.626q-1.4,2.936-2.832,5.856c-6.36,12.981-12.482,25.727-17.491,38.926l-1.113,2.929c-9.39,24.667-22.25,58.452-10.923,83.416,5.5,12.131,18.525,13.315,28.545,8.23,12.5-6.349,21.642-19.554,30.477-32.319,1.143-1.652,2.276-3.286,3.4-4.89,7.555-10.737,14.585-22.2,21.387-33.291q3.667-5.983,7.372-11.955l.7-1.125a210.267,210.267,0,0,1,11.959-17.8l.223-.275A2.555,2.555,0,0,1,251.265,270.142Zm49.146,18.466h0Z" transform="translate(-130.608 -182.47)"/>
              </g>
              <path id="Trazado_115022-2" data-name="Trazado 115022" d="M146.533,221.836c-9.137,20.976-14.29,45.564-6.266,68.112,1.188,3.332,5.986,1.875,4.783-1.507-7.536-21.171-2.829-44.017,5.765-63.747C152.231,221.439,147.957,218.566,146.533,221.836Z" transform="translate(-122.202 -112.952)" fill="#ff5f65"/>
              <path id="Trazado_115023-2" data-name="Trazado 115023" d="M148,251.937c-.042-.006-.082-.02-.121-.028-.069-.156-.134-.32-.156-.365l-.01-.017c0-.023,0-.008,0-.042-.32-1.264-.55-2.547-.791-3.833q-.844-4.483-1.684-8.967a2.478,2.478,0,0,0-3.052-1.978,2.971,2.971,0,0,0-1.731,3.485l1.9,10.139c.531,2.816,1.376,6.508,4.327,7.071a2.521,2.521,0,0,0,3.05-1.98C150.007,254.053,149.37,252.2,148,251.937Z" transform="translate(-116.141 -83.256)" fill="#ff5f65"/>
              <path id="Trazado_115024-2" data-name="Trazado 115024" d="M191.827,199.585c-2.814-1.717-5.324,3.173-2.5,4.893,3.893,2.374,5.078,7.207,5.234,11.953a93.391,93.391,0,0,1-1.118,16.245,118.963,118.963,0,0,1-8.607,30.433c-1.418,3.255,2.859,6.128,4.282,2.859a125.6,125.6,0,0,0,9.626-35.841C199.911,219.912,201.309,205.364,191.827,199.585Z" transform="translate(-50.795 -151.756)"/>
            </g>
          </g>
        </g>
      </g>
    </g>
  </g>
</svg>
