<svg xmlns="http://www.w3.org/2000/svg" xmlns:xlink="http://www.w3.org/1999/xlink" width="85" height="85" viewBox="0 0 85 85">
  <defs>
    <clipPath id="clip-path">
      <rect id="Rectángulo_37353" data-name="Rectángulo 37353" width="46.508" height="53.65" fill="none"/>
    </clipPath>
  </defs>
  <g id="Grupo_157482" data-name="Grupo 157482" transform="translate(-9880 10686)">
    <circle id="Elipse_4841" data-name="Elipse 4841" cx="42.5" cy="42.5" r="42.5" transform="translate(9880 -10686)" fill="#3c3fa7"/>
    <g id="Grupo_157481" data-name="Grupo 157481" transform="translate(9899 -10670)">
      <g id="Grupo_157480" data-name="Grupo 157480" clip-path="url(#clip-path)">
        <path id="Trazado_128466" data-name="Trazado 128466" d="M37.914,82.657l-.009,5.974h-.314a.177.177,0,0,1-.014-.086,14.253,14.253,0,0,0,.054-1.462q0-9.572,0-19.144a2.389,2.389,0,0,1,.083-.931.238.238,0,0,1,.15-.128c.5.01,1.006.01,1.51.013a.819.819,0,0,1,.548.12c.12.538.493.617.979.6.976-.028,1.954-.013,2.931-.005a.89.89,0,0,1,.692.164c-.128.323-.421.258-.665.262-.941.016-1.882,0-2.823.009-.608,0-.654.047-.655.658-.005,2.928,0,5.857,0,8.785a3.034,3.034,0,0,1-.062.883c-.254.284-.206.708-.455,1a3.459,3.459,0,0,1-1.3.093c-.357.007-.5.156-.5.507q.006,1,0,1.991a1.019,1.019,0,0,1-.152.7" transform="translate(-19.654 -34.981)" fill="#536174"/>
        <path id="Trazado_128467" data-name="Trazado 128467" d="M18.2,32.014c-.008.191-.023.382-.023.573q-.021,10.247-.046,20.494c0,.187.157.476-.2.546L6.906,50.742c-2.122-.556-4.242-1.123-6.369-1.66-.4-.1-.538-.252-.538-.691Q.027,38.066.012,27.742.012,16.554,0,5.365c0-.39.073-.568.486-.675Q9.135,2.441,17.77.156a1.286,1.286,0,0,1,.155-.024c.405-.078.264.241.265.4.011,1.449-.037,2.9.014,4.347.21,5.983.069,11.968.113,17.951a6.607,6.607,0,0,1-.015.68c.03,2.666.01,5.332.01,8a.877.877,0,0,1-.118.5" transform="translate(0 -0.063)"/>
        <path id="Trazado_128468" data-name="Trazado 128468" d="M46.885,51.53q-1.911-.01-3.821-.019c-.747,0-.747,0-.783-.726a.65.65,0,0,1-.1-.15c-.074-.359-.055-.676.367-.809a16.119,16.119,0,0,1,1.621-.024q5.472-.006,10.944,0c.174,0,.349-.005.523,0,.5.025.6.115.613.636.016.89,0,1.78.008,2.67a.652.652,0,0,0,.085.462c.728-.535,1.449-1.073,2.162-1.622,2.186-1.681,4.393-3.334,6.582-5.011.61-.467.623-.482-.005-.956-2.4-1.809-4.772-3.644-7.175-5.442-.515-.385-1-.813-1.533-1.161-.179.11-.113.264-.114.389-.008.872,0,1.745-.008,2.618,0,.237.034.5-.252.636a1.549,1.549,0,0,1-.468.043q-6.3,0-12.609,0c-.713,0-.793-.093-.8-.829.012-.41-.1-.877.48-1.022a28.506,28.506,0,0,1,4.476.075,1,1,0,0,0,.156.011c2.346-.03,4.688.173,7.034.1a.312.312,0,0,0,.242-.066V35.8l14.029,10.66c-.384.3-.736.575-1.093.846L54.951,56.794c-.109.083-.209.18-.313.27-.29-.077-.144-.313-.145-.467-.013-1.516-.022-3.033,0-4.548.006-.4-.109-.5-.5-.492-1.167.027-2.345-.082-3.5.037-1.046.108-2.084.044-3.125.083a.941.941,0,0,1-.31-.041.437.437,0,0,1-.176-.105" transform="translate(-22.029 -18.724)"/>
        <path id="Trazado_128469" data-name="Trazado 128469" d="M54.832,33.549c-.117.2-.314.1-.469.1-2.216.007-4.433.051-6.647-.015-1.6-.047-3.208.017-4.81-.066a1.014,1.014,0,0,1-.164-.7q0-5.568,0-11.137a1.1,1.1,0,0,1,.128-.656.562.562,0,0,1,.383-.146q1.412-.044,2.825,0a.527.527,0,0,1,.552.567c.013.209.014.418.014.628q0,4.134,0,8.267c0,.759,0,.759.662,1.018.287.387.151.834.166,1.256.025.7.026.722.736.725.605,0,1.211,0,1.816,0a.994.994,0,0,1,.646.14l4.161.01" transform="translate(-22.354 -10.939)" fill="#72859d"/>
        <path id="Trazado_128470" data-name="Trazado 128470" d="M50.667,29.888c-1.007,0-2.014,0-3.02.019-.279,0-.362-.1-.352-.364.019-.572.015-1.145.021-1.718.52-.187.571-.589.569-1.08-.017-3.326-.008-6.653-.01-9.979a1.22,1.22,0,0,0-.1-.711c-.18-.2-.419-.146-.641-.147-1.206,0-2.411.005-3.616,0-.643-.006-.751-.122-.775-.771-.042-1.129.023-1.2,1.13-1.2,1.764,0,3.529,0,5.293,0,.724,0,.808.086.809.821q.006,6.027,0,12.054a1.178,1.178,0,0,0,.093.712c.15.2.452.1.6.308q0,1.029,0,2.057" transform="translate(-22.35 -7.288)" fill="#e4eaf4"/>
        <path id="Trazado_128471" data-name="Trazado 128471" d="M47.326,68.773c2.385-.006,4.77,0,7.155-.026.365,0,.379.159.377.437q-.014,2.324,0,4.649c0,.154-.105.35.1.464-.4.1-.2-.228-.2-.328-.018-1.166-.011-2.332-.011-3.5,0-.418-.01-.836,0-1.253.009-.271-.1-.368-.366-.365-1.114.009-2.228.011-3.342,0-.3,0-.394.116-.384.4.018.522.011,1.044.015,1.566a.246.246,0,0,1-.161.125c-.5.043-.548.371-.546.781.011,1.816.005,3.632,0,5.447,0,1.641,0,3.282,0,4.923,0,.762-.083.842-.841.843q-2.776.006-5.552,0c-.727,0-.82-.1-.839-.8-.03-1.1.033-1.166,1.114-1.167,1.118,0,2.235,0,3.352,0,.207,0,.425.032.58-.159a1.046,1.046,0,0,0,.09-.561q0-4.288,0-8.575a1.329,1.329,0,0,0-.068-.514c-.168-.248-.641-.188-.631-.609a3.433,3.433,0,0,1,.147-1.777" transform="translate(-22.353 -35.957)" fill="#e4eaf4"/>
        <path id="Trazado_128472" data-name="Trazado 128472" d="M50.376,26.173l-.73-.02a1.025,1.025,0,0,1-.053-.563q-.005-6.334.006-12.668c0-.415-.082-.57-.536-.563-2.145.035-4.292-.01-6.438.027-.461.008-.566-.261-.312-.8.08-.815.08-.815.914-.815,2.495,0,4.989.01,7.484-.01.4,0,.489.111.488.5q-.02,7.013-.009,14.026c0,.846,0,.846-.814.888" transform="translate(-22.06 -5.629)" fill="#010101"/>
        <path id="Trazado_128473" data-name="Trazado 128473" d="M40.216,10.155l-.007,12.478c-.514.125-.182.558-.3.827a2.833,2.833,0,0,1-2.035,0c-.015-.225-.043-.45-.044-.674,0-3.818,0-7.636,0-11.454Q37.818,5.951,37.785.565c0-.176.131-.442-.2-.5.44-.224.3.155.3.315.01,1.649.005,3.3.008,4.948,0,.207.017.415.026.623a1.091,1.091,0,0,1,.151.745c.006.622.014,1.245,0,1.867-.01.414.141.6.572.588a3.5,3.5,0,0,1,1.185.066c.307.237.2.649.394.934" transform="translate(-19.657 0)" fill="#536274"/>
        <path id="Trazado_128474" data-name="Trazado 128474" d="M51.189,73.322c0,4.292-.011,8.584,0,12.876,0,.467-.1.611-.593.606-2.46-.028-4.92-.012-7.38-.012-.834,0-.834,0-.914-.815-.282-.6-.155-.791.469-.788,2.148.013,4.3,0,6.444.013.384,0,.366-.2.366-.462q-.006-3.982,0-7.964c0-1.03.011-2.061-.006-3.091-.006-.332.075-.493.434-.444.391.053.8-.089,1.179.08" transform="translate(-22.053 -38.304)" fill="#010101"/>
        <path id="Trazado_128475" data-name="Trazado 128475" d="M40.248,15.85c-.541,0-1.083-.016-1.623,0-.293.01-.4-.082-.391-.383.021-.994.018-1.989.023-2.984l1.992,0c.074.752.074.752.863.752,1.969,0,3.939.013,5.909-.01.433-.005.551.107.549.545-.017,4.218-.01,8.436-.009,12.653,0,.208.014.417.021.626-.206-.162-.112-.389-.112-.585-.006-4.188-.012-8.376.006-12.564,0-.459-.114-.591-.58-.584-1.919.027-3.839.024-5.758,0-.444-.005-.611.088-.6.571.033,1.1.006,1.1,1.1,1.1,1.17,0,2.339,0,3.508,0,.182,0,.388-.075.54.1a1.021,1.021,0,0,1-.744.166c-1.216,0-2.433.019-3.648-.007-.492-.01-.9.041-1.052.587" transform="translate(-19.998 -6.53)" fill="#c9d7e9"/>
        <path id="Trazado_128476" data-name="Trazado 128476" d="M49.134,73.249c-1.573-.2-1.573-.2-1.573,1.317,0,3.349-.008,6.7.01,10.045,0,.431-.1.556-.545.55-1.97-.025-3.941-.011-5.912-.011-.79,0-.79,0-.864.752l-1.992,0c-.006-.995,0-1.99-.023-2.984-.006-.3.1-.393.391-.383.54.018,1.082,0,1.623,0,.156.547.56.6,1.052.587,1.216-.026,2.432-.01,3.648-.007a1.023,1.023,0,0,1,.744.166c-.152.177-.358.1-.54.1-1.378.007-2.755.015-4.133,0-.372-.005-.471.12-.472.48,0,1.192-.017,1.192,1.162,1.192,1.727,0,3.453-.015,5.179.01.452.007.592-.1.589-.575-.021-3.488-.011-6.976-.011-10.463,0-.9,0-.9.857-.939.262.094.587-.139.81.156" transform="translate(-19.998 -38.23)" fill="#c9d7e9"/>
        <path id="Trazado_128477" data-name="Trazado 128477" d="M47.5,68.791c-.008.506,0,1.012-.031,1.516-.026.4.039.654.518.571a.2.2,0,0,1,.224.093.984.984,0,0,1-.694.163c-.666.025-.7.05-.7.729-.005,2.106,0,4.212,0,6.318,0,1.444,0,1.444-1.425,1.444-.557,0-1.114.007-1.671,0a.8.8,0,0,1-.635-.171c0-3.348.007-6.7-.012-10.045,0-.447.141-.559.565-.548,1.063.027,2.127.012,3.191.006.185,0,.386.062.552-.083l.117.009" transform="translate(-22.532 -35.975)" fill="#72859d"/>
        <path id="Trazado_128478" data-name="Trazado 128478" d="M42.766,81.809c1.045.007,2.091,0,3.135.029.39.012.451-.142.449-.484-.012-2.492.01-4.984-.021-7.475-.006-.515.175-.627.623-.58.311.033.626.021.939.03.009,1.616.024,3.232.025,4.848,0,1.738-.01,3.476-.016,5.215-1.616,0-3.233-.015-4.848.02-.457.01-.648-.1-.565-.563a.66.66,0,0,0-.031-.2c.125-.27-.218-.714.309-.835" transform="translate(-22.206 -38.333)"/>
        <path id="Trazado_128479" data-name="Trazado 128479" d="M38.141,49.191l2.035,0a3.612,3.612,0,0,1,.019.418c-.018.282.114.347.378.346q6.629-.014,13.257-.011a1.241,1.241,0,0,0,.156-.018c-.013.253-.222.23-.38.256a4.3,4.3,0,0,1-.679.019q-5.729,0-11.458,0c-.81,0-.817.009-.818.814,0,1.709,0,3.418,0,5.128a1.094,1.094,0,0,1-.166.8c-.5.084-.189.5-.306.741a9.571,9.571,0,0,1-1.98.019.218.218,0,0,0-.077-.019c-.018-2.829-.059-5.658.021-8.486" transform="translate(-19.924 -25.726)" fill="#c11d44"/>
        <path id="Trazado_128480" data-name="Trazado 128480" d="M38.311,67.007l1.98-.019v.11a9.77,9.77,0,0,1-1.978-.092" transform="translate(-20.038 -35.037)" fill="#928197"/>
        <path id="Trazado_128481" data-name="Trazado 128481" d="M7.953,7.694Q14.134,6.061,20.312,4.42c.339-.091.406.016.378.311-.008.086,0,.175,0,.262V53.23c0,.669,0,.67-.629.5L7.953,50.527a1.638,1.638,0,0,1-.16-1.016q0-13.618,0-27.236,0-6.809,0-13.618a1.543,1.543,0,0,1,.16-.963" transform="translate(-4.072 -2.295)" fill="#f7e768"/>
        <path id="Trazado_128482" data-name="Trazado 128482" d="M5.606,11.319c.007.209.021.418.021.627q0,20.79,0,41.579c0,.209-.014.418-.021.628-.675-.172-1.348-.351-2.026-.512-.2-.048-.3-.135-.272-.351a2.374,2.374,0,0,0,0-.314q0-20.24-.012-40.48c0-.47.112-.673.584-.751.582-.1,1.149-.28,1.723-.425" transform="translate(-1.725 -5.92)" fill="#e29b2d"/>
        <path id="Trazado_128483" data-name="Trazado 128483" d="M43.089,53.551c0-2.111.012-4.222-.012-6.332-.005-.455.108-.59.578-.587,4.117.019,8.233.012,12.35.006.2,0,.422.095.588-.1V42.725c.2-.047.283.087.386.165q4.544,3.447,9.083,6.9c.173.132.479.23.1.516q-4.737,3.579-9.459,7.177c-.178-.1-.1-.259-.1-.381-.008-.977-.027-1.956.006-2.932.015-.459-.088-.616-.59-.613-4.1.023-8.2.013-12.3.012-.209,0-.418-.013-.627-.02" transform="translate(-22.531 -22.342)" fill="#d05573"/>
        <path id="Trazado_128484" data-name="Trazado 128484" d="M42.457,18.713c.079-.754.079-.755.856-.754l4.587.007q.009,5.825.024,11.651c0,.271-.1.329-.335.305a3.394,3.394,0,0,0-.417.009c-.828-.029-.828-.029-.828-.881,0-2.981-.013-5.961.012-8.942,0-.5-.148-.609-.611-.59-.992.039-1.986.023-2.979.031-.527-.122-.184-.565-.309-.836" transform="translate(-22.206 -9.393)"/>
        <path id="Trazado_128485" data-name="Trazado 128485" d="M19.355,53.181a2.78,2.78,0,1,1,2.8,2.772,2.779,2.779,0,0,1-2.8-2.772" transform="translate(-10.123 -26.352)"/>
        <path id="Trazado_128486" data-name="Trazado 128486" d="M52.279,58.014c-.793,0-.793,0-.792-.86,0-.713,0-.713.888-.713.686,0,.686,0,.685.913,0,.66,0,.66-.781.66" transform="translate(-26.929 -29.521)" fill="#fefdfd"/>
        <path id="Trazado_128487" data-name="Trazado 128487" d="M57.763,58.014c-.782,0-.782,0-.782-.87,0-.7,0-.7.9-.7.675,0,.682,0,.673.923-.008.764.117.635-.789.65" transform="translate(-29.803 -29.521)" fill="#fefefe"/>
        <path id="Trazado_128488" data-name="Trazado 128488" d="M22.654,54.908a1.2,1.2,0,0,1,1.18-1.218,1.208,1.208,0,1,1-1.18,1.218" transform="translate(-11.849 -28.082)" fill="#e4eaf4"/>
      </g>
    </g>
  </g>
</svg>
