<svg xmlns="http://www.w3.org/2000/svg" xmlns:xlink="http://www.w3.org/1999/xlink" width="84.573" height="84.573" viewBox="0 0 84.573 84.573">
  <defs>
    <clipPath id="clip-path">
      <rect id="Rectángulo_37345" data-name="Rectángulo 37345" width="55.202" height="49.271" fill="none"/>
    </clipPath>
  </defs>
  <g id="Grupo_157464" data-name="Grupo 157464" transform="translate(-222.5 -1961)">
    <circle id="Elipse_4823" data-name="Elipse 4823" cx="42.287" cy="42.287" r="42.287" transform="translate(222.5 1961)" fill="#3c3fa7"/>
    <g id="Grupo_157463" data-name="Grupo 157463" transform="translate(236.5 1978)">
      <g id="Grupo_157456" data-name="Grupo 157456" transform="translate(0 0)" clip-path="url(#clip-path)">
        <path id="Trazado_128363" data-name="Trazado 128363" d="M55.967,38.852l1.2,1.048c-.154.747.268,1.208.742,1.715a43.345,43.345,0,0,1,5.221,6.964.761.761,0,0,1,.138.431,16.919,16.919,0,0,1-2.321,3.948,23.786,23.786,0,0,1-15.963,9.69,21.316,21.316,0,0,1-9.577-.842A22.927,22.927,0,0,1,26.6,56.884a24.8,24.8,0,0,1-5.148-6.43,3.912,3.912,0,0,1-.7-1.495,1.7,1.7,0,0,1,.357-.774,53.029,53.029,0,0,1,3.115-4.413,1.35,1.35,0,0,1,1.23-.591,9.715,9.715,0,0,0,1.887-.154,1.585,1.585,0,0,1,1.087.239,17.792,17.792,0,0,0,6.315,2.361,1.6,1.6,0,0,0,1.693-.563,1.618,1.618,0,0,0,.192-1.733q-.6-1.432-1.222-2.853a.787.787,0,0,1,.236-1.055,10.519,10.519,0,0,0,1.333-1.347.71.71,0,0,1,.9-.252,10.935,10.935,0,0,1,3.205,1.767c.118.1.231.2.357.29.5.353.695.365,1.17-.041a10.406,10.406,0,0,1,3.963-2.144,11.1,11.1,0,0,1,5.058-.33A7.364,7.364,0,0,1,54.316,38.5a1.724,1.724,0,0,0,1.65.354" transform="translate(-10.125 -18.154)" fill="#fe3d43"/>
        <path id="Trazado_128364" data-name="Trazado 128364" d="M3.723,8.782a5.587,5.587,0,0,1,.833-1.327A2.386,2.386,0,0,0,6.4,6.515,13.609,13.609,0,0,1,13.471,3.1a15.529,15.529,0,0,1,5.58-.023,2.812,2.812,0,0,1,.828.218A17.411,17.411,0,0,1,23.7,5.722a10.957,10.957,0,0,1,3.89,7.256c.365,3.782-1.168,6.767-3.9,9.247-.366.333-.893.555-.7,1.234.056.2-.236.263-.4.355A15.022,15.022,0,0,1,15.813,25.1c-4.389-.218-8.213-1.728-10.936-5.331a9.1,9.1,0,0,1-1.216-9.5,1.972,1.972,0,0,0,.061-1.489" transform="translate(-1.392 -1.386)" fill="#fef4ce"/>
        <path id="Trazado_128365" data-name="Trazado 128365" d="M18.451,2.054A14.654,14.654,0,0,0,11.468,2,13.3,13.3,0,0,0,4.447,5.868a.946.946,0,0,1-1.283.2c-.37-.624-.35-.847.144-1.36A15.177,15.177,0,0,1,12.6.164a16.226,16.226,0,0,1,12.255,3.06,11.431,11.431,0,0,1,4.969,9.884,9.988,9.988,0,0,1-1.311,4.645c-.27.478-.167.6.3.762a9.111,9.111,0,0,1,2.694,1.494c.306.247.489.183.776-.019a12.173,12.173,0,0,1,10.511-1.948,8.371,8.371,0,0,1,2.64,1.351c.588.41.651.617.409,1.305a.857.857,0,0,1-1.238.083c-3.418-2.748-9.229-1.54-11.964.977-.632.582-.875.572-1.518.008a10.6,10.6,0,0,0-3.415-1.954.545.545,0,0,0-.73.187,8.517,8.517,0,0,1-1.463,1.456.469.469,0,0,0-.161.671c.44.975.844,1.967,1.276,2.946a1.794,1.794,0,0,1-.195,1.947,1.738,1.738,0,0,1-1.847.6,17.783,17.783,0,0,1-6.5-2.46.839.839,0,0,0-.635-.172,13.361,13.361,0,0,1-2.4.192.6.6,0,0,0-.559.2,44.682,44.682,0,0,0-3.77,5.406,1.953,1.953,0,0,0,.038,1.744,25.892,25.892,0,0,0,5.953,8.824c.409.4.876.74,1.294,1.132a.818.818,0,0,1,.052,1.284.872.872,0,0,1-1.279-.022A26.539,26.539,0,0,1,8.665,31.939a1.3,1.3,0,0,1,.146-1.19,57.945,57.945,0,0,1,3.484-5.186c.113-.149.22-.3.373-.513a21.178,21.178,0,0,1-2.954-.67A13.954,13.954,0,0,1,1.372,17.8a10.562,10.562,0,0,1-.341-9.765c.314-.708.546-.811,1.3-.637A.919.919,0,0,1,2.567,8.58,9.5,9.5,0,0,0,5.651,20.407c4.561,3.511,9.63,3.965,14.984,2.093.2-.069.391-.155.585-.233a.809.809,0,0,1,.973.34.832.832,0,0,1-.05.993,3.788,3.788,0,0,1-1.808.839,19.586,19.586,0,0,0,2.613.982c.535.151,1.073.287,1.618.4.37.077.446-.041.3-.389-.441-1.02-.871-2.044-1.311-3.064-.455-1.055-.408-1.268.5-2A10.225,10.225,0,0,0,27.8,14.735a9.177,9.177,0,0,0-2.385-8.65,15.072,15.072,0,0,0-6.965-4.031" transform="translate(0 0)"/>
        <path id="Trazado_128366" data-name="Trazado 128366" d="M27.921,73.1a.9.9,0,0,0-.27-1.3,25.442,25.442,0,0,1-7.293-10.194,1.234,1.234,0,0,1,.226-1.493,20.457,20.457,0,0,0,2.44,4.064,23.26,23.26,0,0,0,8.623,7.282,25.013,25.013,0,0,0,7.7,2.274A21.481,21.481,0,0,0,50.353,72.1a22.205,22.205,0,0,0,6.8-4.27,25.984,25.984,0,0,0,5.769-7.693.858.858,0,0,1,.452,1.218,26.224,26.224,0,0,1-1.564,3.389,24.8,24.8,0,0,1-4.085,5.528A22.668,22.668,0,0,1,46.1,76.625a19.745,19.745,0,0,1-4.438.542,21.718,21.718,0,0,1-4.6-.621,22.589,22.589,0,0,1-6.1-2.318,1.694,1.694,0,0,0-1.714-.258l-1.32-.875" transform="translate(-9.861 -29.329)" fill="#d62e2e"/>
        <path id="Trazado_128367" data-name="Trazado 128367" d="M37.758,65.147a.962.962,0,0,1,1.338-.124,22.741,22.741,0,0,0,10.917,3.147A20.318,20.318,0,0,0,57.6,66.8a23.259,23.259,0,0,0,13.146-12c.335-.665.582-1.374.914-2.041a1.112,1.112,0,0,0-.216-1.438,42.178,42.178,0,0,0-5.807-7.7.963.963,0,0,1-.216-1.364.887.887,0,0,1,1.315.154,48.607,48.607,0,0,1,6.691,9.012,1.143,1.143,0,0,1,.052,1.041A26.262,26.262,0,0,1,64.528,64.9a23.5,23.5,0,0,1-14.073,4.877,23.248,23.248,0,0,1-12.334-3.438.871.871,0,0,1-.363-1.188" transform="translate(-18.377 -20.505)"/>
        <path id="Trazado_128368" data-name="Trazado 128368" d="M30.984,58.826a8,8,0,0,0,4.4-1.467,19.905,19.905,0,0,1,12.049-3.234A20.232,20.232,0,0,1,57.091,57.3a7.43,7.43,0,0,0,5.069,1.485.736.736,0,0,1,.889.694.746.746,0,0,1-.651.874,6.154,6.154,0,0,1-3.006-.2,5.24,5.24,0,0,1-1.284-.485,1.724,1.724,0,0,0-1.706-.025,27.765,27.765,0,0,1-10.188,1.708A27.48,27.48,0,0,1,35.555,59.4a.77.77,0,0,0-.7.091,8.092,8.092,0,0,1-4.208.931,2.325,2.325,0,0,1-.671-.135.734.734,0,0,1-.461-.888.711.711,0,0,1,.721-.621c.247-.007.5.027.745.043" transform="translate(-14.393 -26.386)"/>
        <path id="Trazado_128369" data-name="Trazado 128369" d="M39.625,25.522c.314-.816.048-1.234-.825-1.3.156-.1.429-.135.218-.435-.18-.256-.075-.414.17-.606a11.3,11.3,0,0,0,4.369-6.955,9.5,9.5,0,0,0-.682-5.636,12.472,12.472,0,0,0-6.717-6.471.55.55,0,0,1-.125-.111c4.61.861,9.976,4.877,9.759,10.872a9.974,9.974,0,0,1-3.948,7.471,4.861,4.861,0,0,1-.407.318.89.89,0,0,0-.334,1.241c.515,1.171,1.013,2.348,1.516,3.524.065.153.222.32.122.474-.134.207-.36.047-.527.016a7.541,7.541,0,0,1-1.71-.434,20.954,20.954,0,0,1-.877-1.971" transform="translate(-17.58 -1.957)" fill="#feeba0"/>
        <path id="Trazado_128370" data-name="Trazado 128370" d="M22.487,19.724H15.825a1.623,1.623,0,0,1-.679-.081.752.752,0,0,1-.487-.822.716.716,0,0,1,.646-.694,3.2,3.2,0,0,1,.515-.022q6.662,0,13.324,0a3.458,3.458,0,0,1,.516.02.723.723,0,0,1,.653.691.752.752,0,0,1-.485.824,1.605,1.605,0,0,1-.679.084H22.487" transform="translate(-7.15 -8.833)" fill="#010100"/>
        <path id="Trazado_128371" data-name="Trazado 128371" d="M19.5,29.673c-1.283,0-2.567,0-3.85,0-.673,0-1.013-.291-1-.831.013-.51.347-.78.99-.781q3.85,0,7.7,0c.668,0,1.015.3,1,.83-.014.508-.349.779-.992.781-1.283,0-2.567,0-3.85,0" transform="translate(-7.15 -13.69)"/>
        <path id="Trazado_128372" data-name="Trazado 128372" d="M41.19,46.018c.376.131.333.522.463.794a2.39,2.39,0,0,1,.414,1.177,11.723,11.723,0,0,1-2.828-1.1,8.549,8.549,0,0,0,1.951-.873" transform="translate(-19.145 -22.453)" fill="#fcf2cd"/>
        <path id="Trazado_128373" data-name="Trazado 128373" d="M59.646,59.525a12.235,12.235,0,0,1,2.922,1.369,29.458,29.458,0,0,1-18.428.043,13.252,13.252,0,0,1,3.093-1.42,32.874,32.874,0,0,0,6.612.616,31.71,31.71,0,0,0,4.509-.4c.431-.069.865-.116,1.292-.213" transform="translate(-21.536 -29.039)" fill="#545456"/>
        <path id="Trazado_128374" data-name="Trazado 128374" d="M62.593,58.41c-.148.382-.532.263-.786.3a30.831,30.831,0,0,1-6.2.471,32.476,32.476,0,0,1-5.154-.559c-.146-.029-.262-.053-.275-.225a17,17,0,0,1,12.413.008" transform="translate(-24.483 -27.924)" fill="#67676b"/>
      </g>
    </g>
  </g>
</svg>
