<svg xmlns="http://www.w3.org/2000/svg" width="50" height="49.405" viewBox="0 0 50 49.405">
  <g id="Grupo_157343" data-name="Grupo 157343" transform="translate(-610 -2831)">
    <path id="Trazado_130372" data-name="Trazado 130372" d="M25,0A24.853,24.853,0,0,1,50,24.7,24.853,24.853,0,0,1,25,49.4,24.853,24.853,0,0,1,0,24.7,24.853,24.853,0,0,1,25,0Z" transform="translate(610 2831)" fill="#fc5f65"/>
    <path id="Trazado_130373" data-name="Trazado 130373" d="M-2.42.26A1.218,1.218,0,0,1-3.4-.13a1.389,1.389,0,0,1-.335-.937q0-.355.485-.608a4.429,4.429,0,0,1,1.278-.39A1.016,1.016,0,0,0-1.408-2.4a1.014,1.014,0,0,0,.26-.718q0-.766.007-1.6t.021-1.606q.014-.772.021-1.429t.007-1.066q0-.957.041-1.764t.1-1.559q.055-.752.109-1.49t.1-1.545Q-.725-15.75-1-15.75q-.164,0-.369.246-.287.355-.513.588a.809.809,0,0,1-.608.232,1.026,1.026,0,0,1-.465-.109,1.3,1.3,0,0,1-.39-.3,1.444,1.444,0,0,1-.273-.472,1.8,1.8,0,0,1-.1-.622,1.791,1.791,0,0,1,.294-.848,8.291,8.291,0,0,1,.745-1.06q.451-.554,1-1.114t1.046-1a9.46,9.46,0,0,1,.9-.718,1.331,1.331,0,0,1,.533-.273.861.861,0,0,1,.663.273,1.916,1.916,0,0,1,.4.7,4.137,4.137,0,0,1,.191.957q.048.533.048,1.053t-.021.964q-.021.444-.021.718,0,1.025-.062,2.194T1.853-11.99Q1.777-10.8,1.716-9.646T1.654-7.492q0,1-.055,2.071T1.518-3.377a2.617,2.617,0,0,0,.1.882.741.741,0,0,0,.554.472A1.879,1.879,0,0,1,3-1.579a1.261,1.261,0,0,1,.321.95,1.1,1.1,0,0,1-.075.417.756.756,0,0,1-.308.335L2.557.137Q2.174.15,1.6.164T.355.2Q-.314.219-.909.232T-1.928.253Z" transform="translate(635 2864)" fill="#fff"/>
  </g>
</svg>
