<svg xmlns="http://www.w3.org/2000/svg" xmlns:xlink="http://www.w3.org/1999/xlink" width="400" height="392.682" viewBox="0 0 400 392.682">
  <defs>
    <clipPath id="clip-path">
      <rect id="rect3283" width="400" height="392.682" rx="0.862" fill="none"/>
    </clipPath>
  </defs>
  <g id="Grupo_157029" data-name="Grupo 157029" transform="translate(0 0)">
    <g id="Grupo_81218" data-name="Grupo 81218" transform="translate(0 0)">
      <g id="Grupo_81217" data-name="Grupo 81217" clip-path="url(#clip-path)">
        <g id="layer1" transform="translate(2.487 3.773)">
          <ellipse id="circle3285" cx="170.614" cy="161.339" rx="170.614" ry="161.339" transform="translate(26.899 12.907)" fill="#ffdfe0"/>
          <g id="g3292" transform="translate(264.238 340.796)">
            <path id="path3288" d="M137.5,458.663a71.631,71.631,0,0,1-19.469,24.818L108.146,472.6l4.222,15.1a70.111,70.111,0,0,1-19.709,9.162,82.305,82.305,0,0,1-12.8,2.665L70.9,484.391,73,500.015c-16.487.294-26.572-6.124-32.693-9.8L52.48,477.061l-18.012,9.787c-6.523-4.687-13.356-14.767-13.356-14.767a127.9,127.9,0,0,1,26.38-23.527l7.774,9.637-3.2-12.466c8.2-4.755,17.51-8.452,27.27-9.17a59.166,59.166,0,0,1,9.242.058l5.132,15.906-.1-15.291a81.191,81.191,0,0,1,22.381,7.331l1.407,12.566,2.975-10.289A97.46,97.46,0,0,1,137.5,458.663Z" transform="translate(-21.112 -436.402)" fill="#ffb998"/>
            <path id="path3290" d="M137.3,458.663l-.015.032c-2.9.272-85.162,8-116.174,13.158a126.657,126.657,0,0,1,26.184-23.3l7.774,9.637-3.2-12.465c8.2-4.756,17.51-8.452,27.27-9.171a59.177,59.177,0,0,1,9.242.058l5.132,15.906-.1-15.291a81.16,81.16,0,0,1,22.381,7.331l1.407,12.566,2.975-10.289A97.507,97.507,0,0,1,137.3,458.662Z" transform="translate(-20.917 -436.402)" fill="#ec9982"/>
          </g>
          <g id="g3298" transform="translate(10.884 340.796)">
            <path id="path3294" d="M337.8,458.663a71.619,71.619,0,0,0,19.469,24.818l9.882-10.884-4.222,15.1a70.111,70.111,0,0,0,19.709,9.162,82.288,82.288,0,0,0,12.8,2.665l8.956-15.137-2.1,15.623c16.486.294,26.571-6.124,32.692-9.8l-12.177-13.158,18.011,9.787c6.523-4.687,13.357-14.767,13.357-14.767a127.926,127.926,0,0,0-26.38-23.527l-7.774,9.637,3.2-12.466c-8.2-4.755-17.51-8.452-27.271-9.17a59.156,59.156,0,0,0-9.241.058l-5.133,15.906.1-15.291a81.182,81.182,0,0,0-22.381,7.331L357.9,457.126l-2.975-10.289A97.423,97.423,0,0,0,337.8,458.663Z" transform="translate(-337.805 -436.402)" fill="#ffb998"/>
            <path id="path3296" d="M338.05,458.663l.014.032c2.9.272,85.163,8,116.174,13.158a126.613,126.613,0,0,0-26.183-23.3l-7.775,9.637,3.2-12.465c-8.2-4.756-17.511-8.452-27.271-9.171a59.167,59.167,0,0,0-9.241.058l-5.133,15.906.1-15.291a81.155,81.155,0,0,0-22.38,7.331l-1.407,12.566-2.975-10.289a97.5,97.5,0,0,0-17.124,11.827Z" transform="translate(-338.05 -436.402)" fill="#ec9982"/>
          </g>
          <g id="g3304" transform="translate(259.88 242.202)">
            <path id="path3300" d="M151.911,306.074s5.013,10.9,4.046,30.158l-12.408,6.56,11.74,1.093a124.559,124.559,0,0,1-5.734,24.583c-1.838,5.434-3.77,10.328-5.75,14.745l-14.494,3.979,10.834,3.569a101.927,101.927,0,0,1-24.907,31.465l-1.074-17.981-4.37,22.993c-6.653,5.26-16.806,8.844-16.806,8.844a164.339,164.339,0,0,1,.738-37.1l10.424-4.76-9.527-1.2a123.1,123.1,0,0,1,10.1-32.708c1.667-3.453,3.474-6.755,5.37-9.9l12.76.414-9.474-5.592a147.266,147.266,0,0,1,17.436-21.307l8.552,3.171-4.62-7.029a131.155,131.155,0,0,1,17.17-13.986Z" transform="translate(-92.28 -306.074)" fill="#ffb998"/>
            <path id="path3302" d="M157.12,306.074l.01.028c-1.508,3.22-44.237,94.452-58.962,129.684a163.165,163.165,0,0,1,.765-36.8l10.424-4.76-9.527-1.2a123.13,123.13,0,0,1,10.1-32.708c1.668-3.453,3.474-6.754,5.37-9.9l12.76.414-9.474-5.592a147.264,147.264,0,0,1,17.436-21.307l8.552,3.171-4.62-7.029a131.234,131.234,0,0,1,17.17-13.986Z" transform="translate(-97.489 -306.074)" fill="#ec9982"/>
          </g>
          <g id="g3310" transform="translate(67.825 242.202)">
            <path id="path3306" d="M336.54,306.074s-5.013,10.9-4.047,30.158l12.409,6.56-11.74,1.093a124.556,124.556,0,0,0,5.734,24.583c1.838,5.434,3.77,10.328,5.75,14.745l14.494,3.979-10.834,3.569a101.928,101.928,0,0,0,24.906,31.465l1.075-17.981,4.37,22.993c6.652,5.26,16.806,8.844,16.806,8.844a164.4,164.4,0,0,0-.738-37.1l-10.424-4.76,9.526-1.2a123.1,123.1,0,0,0-10.094-32.708c-1.668-3.453-3.474-6.755-5.37-9.9l-12.761.414,9.475-5.592a147.321,147.321,0,0,0-17.436-21.307l-8.553,3.171,4.62-7.029a131.186,131.186,0,0,0-17.17-13.986Z" transform="translate(-332.369 -306.074)" fill="#ffb998"/>
            <path id="path3308" d="M332.368,306.074l-.011.028c1.509,3.22,44.238,94.452,58.963,129.684a163.22,163.22,0,0,0-.765-36.8l-10.425-4.76,9.527-1.2a123.1,123.1,0,0,0-10.094-32.708c-1.668-3.453-3.474-6.754-5.371-9.9l-12.76.414,9.474-5.592a147.265,147.265,0,0,0-17.435-21.307l-8.553,3.171,4.62-7.029a131.266,131.266,0,0,0-17.17-13.986Z" transform="translate(-328.198 -306.074)" fill="#ec9982"/>
          </g>
          <g id="g3321" transform="translate(261.662 267.459)">
            <path id="path3313" d="M123.768,345.126c15.118,10.856,16,31.152-.88,44.009l-11.824-10.481,6.161,14.129c-.927.505-1.887.995-2.889,1.462-11.877,5.534-24.646,10.337-36.53,15.247l-7.621-9.415,3.12,11.3c-12.553,5.346-23.806,10.938-31.482,17.839C26.132,443.324,21.018,447.5,12.955,446.391S6.819,438.3,12.027,426.8a151.5,151.5,0,0,1,9.062-19.491l10.97,1.711-8.894-5.429a175.318,175.318,0,0,1,23.814-32.54,128.381,128.381,0,0,1,15.77-14.3l12.048,13.809-5.51-18.447c19.185-12.566,39.1-16.708,52.749-8.154q.9.562,1.735,1.163Z" transform="translate(-5.485 -339.46)" fill="#ffb998"/>
            <path id="path3315" d="M20.16,458.687s20.638-35.514,43.272-55.06,46.6-32.238,56.436-37.35a111.494,111.494,0,0,1,19.358-7.735s-27.11,6.044-60.55,30.6-61.8,66.678-61.8,66.678Z" transform="translate(-16.875 -344.106)" fill="#c5654a"/>
            <path id="path3317" d="M24.5,433.76a23.966,23.966,0,0,1,7.788-1.654c3.555.056,7.147,2.714,7.147,2.714a35.541,35.541,0,0,0-6.18-3.6,24.64,24.64,0,0,0-4.716-1.173l5.755-7.594a14.881,14.881,0,0,1,6.812-.214,14.256,14.256,0,0,1,6.8,4.061s-2.38-3.45-4.858-4.681a23.4,23.4,0,0,0-6.29-1.684l7.258-8.742a15.524,15.524,0,0,1,7.749,2.073,17.473,17.473,0,0,1,6.226,5.719s-2.6-4.414-5.451-6.4a23.7,23.7,0,0,0-7.339-2.908l8.1-7.846a23.369,23.369,0,0,1,8.394,3.136,25.355,25.355,0,0,1,7.662,7.828,27.206,27.206,0,0,0-5.784-8.288,25.814,25.814,0,0,0-8.154-4.712s9.727-8.166,13.692-10.821a62.024,62.024,0,0,0,6.854-5.329s3.9,2.471,9.965,7.087a30.269,30.269,0,0,1,8.79,11.284s-2.434-6.616-5.71-10.209S77.3,382.665,77.3,382.665s8.137-5.588,10.625-7.3a59.817,59.817,0,0,1,5.643-3.332,29.748,29.748,0,0,1,10.266,6.842c5.176,5.134,9.192,16.641,9.192,16.641s-3.016-10.657-6.9-15.94a38.546,38.546,0,0,0-10.133-8.936s7.615-4.731,10.109-6.067a45.662,45.662,0,0,1,5.282-2.338,130.382,130.382,0,0,1,10.654,8.982c5.127,4.878,8.658,14.334,8.658,14.334s-3.229-9-6.965-14.021-10.619-10-10.619-10a64.508,64.508,0,0,0-2.589-12.186,31.029,31.029,0,0,0-4.965-9.523s6.267,12.673,6.2,17.478-.789,4.749-.789,4.749l-15.337,8.037a63.517,63.517,0,0,0-4.286-13.044c-3.077-6.693-7.086-9.144-7.086-9.144s5.5,7.48,7.229,14.594,1.466,9.145,1.466,9.145l-15.982,10.3s-.63-3.093-4.341-9.606-10.858-10.484-10.858-10.484a42.68,42.68,0,0,1,9.215,10.111c3.966,6.191,4.4,10.692,4.4,10.692l-19.77,16.319a55.063,55.063,0,0,0-6.728-8.952c-4.164-4.483-7.771-4.943-7.771-4.943a20.291,20.291,0,0,1,7.159,5.917A30.2,30.2,0,0,1,53.4,401.1l-8.042,8.3a48.665,48.665,0,0,0-7.178-7.988c-3.773-3.149-5.9-3.084-5.9-3.084s2.273.4,6.966,5.509,5.032,6.823,5.032,6.823L36.431,419.4a18.136,18.136,0,0,0-4.939-5.248,12.461,12.461,0,0,0-6.958-2.35s2.93-.127,6.292,2.855a11.565,11.565,0,0,1,3.789,6.666l-6.458,7.715a25.5,25.5,0,0,0-4.4-4.618,8.3,8.3,0,0,0-4.239-1.993,27.432,27.432,0,0,1,5.126,4.476,9.532,9.532,0,0,1,2.289,4.319Z" transform="translate(-10.451 -339.548)" fill="#c5654a"/>
            <path id="path3319" d="M130.161,345.126a29.6,29.6,0,0,1,6.433,6.256c-14.134,5.676-43.575,18.817-66.362,37.884C50.413,405.848,29.785,430.324,17.4,445.921c-5.71-1.976-3.714-8.676,1.015-19.119a151.5,151.5,0,0,1,9.062-19.491l10.97,1.711-8.894-5.429a175.318,175.318,0,0,1,23.814-32.54,128.38,128.38,0,0,1,15.77-14.3l12.048,13.809-5.51-18.447c19.185-12.566,39.1-16.708,52.749-8.154q.9.562,1.735,1.163Z" transform="translate(-11.878 -339.46)" fill="#d66154" opacity="0.589" style="isolation: isolate"/>
          </g>
          <g id="g3331" transform="translate(0 267.459)">
            <path id="path3323" d="M348.675,345.126c-15.118,10.856-16,31.152.88,44.009l11.825-10.481-6.161,14.129c.927.505,1.886.995,2.889,1.462,11.876,5.534,24.645,10.337,36.529,15.247l7.621-9.415-3.119,11.3c12.552,5.346,23.806,10.938,31.482,17.839,15.692,14.107,20.806,18.284,28.869,17.174s6.136-8.091.928-19.589a151.5,151.5,0,0,0-9.062-19.491l-10.97,1.711,8.894-5.429a175.273,175.273,0,0,0-23.813-32.54,128.378,128.378,0,0,0-15.77-14.3l-12.048,13.809,5.51-18.447c-19.185-12.566-39.1-16.708-52.749-8.154q-.9.562-1.735,1.163Z" transform="translate(-337.114 -339.46)" fill="#ffb998"/>
            <path id="path3325" d="M453.652,458.687s-20.638-35.514-43.272-55.06-46.6-32.238-56.436-37.35a111.516,111.516,0,0,0-19.358-7.735s27.111,6.044,60.551,30.6,61.8,66.678,61.8,66.678Z" transform="translate(-327.092 -344.106)" fill="#c5654a"/>
            <path id="path3327" d="M452.1,433.76a23.959,23.959,0,0,0-7.787-1.654c-3.556.056-7.147,2.714-7.147,2.714a35.555,35.555,0,0,1,6.179-3.6,24.655,24.655,0,0,1,4.717-1.173l-5.756-7.594a14.878,14.878,0,0,0-6.811-.214,14.256,14.256,0,0,0-6.8,4.061s2.379-3.45,4.858-4.681a23.393,23.393,0,0,1,6.29-1.684l-7.258-8.742a15.523,15.523,0,0,0-7.749,2.073,17.464,17.464,0,0,0-6.226,5.719s2.6-4.414,5.45-6.4a23.712,23.712,0,0,1,7.34-2.908l-8.1-7.846a23.365,23.365,0,0,0-8.394,3.136,25.355,25.355,0,0,0-7.662,7.828,27.214,27.214,0,0,1,5.783-8.288,25.814,25.814,0,0,1,8.154-4.712s-9.727-8.166-13.693-10.821a62.057,62.057,0,0,1-6.854-5.329s-3.9,2.471-9.966,7.087a30.262,30.262,0,0,0-8.789,11.284s2.434-6.616,5.71-10.209,11.706-9.146,11.706-9.146-8.138-5.588-10.625-7.3a59.816,59.816,0,0,0-5.643-3.332,29.741,29.741,0,0,0-10.266,6.842c-5.176,5.134-9.193,16.641-9.193,16.641s3.017-10.657,6.9-15.94a38.544,38.544,0,0,1,10.134-8.936s-7.616-4.731-10.11-6.067a45.6,45.6,0,0,0-5.282-2.338,130.381,130.381,0,0,0-10.654,8.982c-5.126,4.878-8.657,14.334-8.657,14.334s3.228-9,6.965-14.021,10.619-10,10.619-10a64.472,64.472,0,0,1,2.588-12.186,31.03,31.03,0,0,1,4.965-9.523s-6.266,12.673-6.2,17.478.789,4.749.789,4.749l15.336,8.037a63.518,63.518,0,0,1,4.286-13.044c3.078-6.693,7.086-9.144,7.086-9.144s-5.5,7.48-7.229,14.594-1.465,9.145-1.465,9.145l15.982,10.3s.63-3.093,4.34-9.606,10.858-10.484,10.858-10.484a42.688,42.688,0,0,0-9.214,10.111c-3.966,6.191-4.4,10.692-4.4,10.692l19.77,16.319a55.086,55.086,0,0,1,6.727-8.952c4.164-4.483,7.772-4.943,7.772-4.943a20.291,20.291,0,0,0-7.159,5.917,30.213,30.213,0,0,0-5.124,10.111l8.043,8.3a48.643,48.643,0,0,1,7.178-7.988c3.774-3.149,5.9-3.084,5.9-3.084s-2.272.4-6.965,5.509-5.032,6.823-5.032,6.823l7.846,8.738a18.133,18.133,0,0,1,4.94-5.248,12.461,12.461,0,0,1,6.958-2.35s-2.93-.127-6.292,2.855a11.569,11.569,0,0,0-3.79,6.666l6.459,7.715a25.467,25.467,0,0,1,4.4-4.618,8.291,8.291,0,0,1,4.238-1.993,27.46,27.46,0,0,0-5.126,4.476,9.535,9.535,0,0,0-2.288,4.319Z" transform="translate(-336.309 -339.548)" fill="#c5654a"/>
            <path id="path3329" d="M343.567,345.126a29.6,29.6,0,0,0-6.432,6.256c14.134,5.676,43.575,18.817,66.362,37.884,19.818,16.583,40.447,41.059,52.827,56.656,5.71-1.976,3.714-8.676-1.016-19.119a151.5,151.5,0,0,0-9.062-19.491l-10.97,1.711,8.894-5.429a175.275,175.275,0,0,0-23.813-32.54,128.378,128.378,0,0,0-15.77-14.3l-12.048,13.809,5.51-18.447c-19.185-12.566-39.1-16.708-52.749-8.154q-.9.562-1.735,1.163Z" transform="translate(-332.006 -339.46)" fill="#d66154" opacity="0.589" style="isolation: isolate"/>
          </g>
          <path id="path3333" d="M436.992,77.113c7.738,1.052,10.674,6.681,6.207,13.091C401.572,149.938,400.906,70.378,436.992,77.113Z" transform="translate(-376.502 -37.25)" fill="#ffdfe0" opacity="0.589" style="isolation: isolate"/>
          <path id="path3335" d="M125.071,41.482c8.836,2.754,29.806,9.478,25.037,22.394-8.165,22.11-38.513-10.656-46.486-14.968-7.6-4.109-26.081-5.267-28.83-14.793C68.676,12.924,118.681,32.236,125.071,41.482Z" transform="translate(187.289 -24.551)" fill="#ffdfe0" opacity="0.589" style="isolation: isolate"/>
          <path id="path3337" d="M22.871,226.652a160,160,0,0,1-.049,31.328,146.23,146.23,0,0,1-3.316,17.858c-1.479,6.146-10.61,22.041-4.706,27.728.947.912,3.138.418,4.291.249,11.218-1.646,13.127-19.262,14.753-27.385,3.292-16.442,5.028-35.324,1.586-51.853-.824-3.953-8.707-18.625-13.656-9.36-1.98,3.708,2.434,7.676,1.1,11.435Z" transform="translate(349.937 -41.015)" fill="#ffdfe0" opacity="0.589" style="isolation: isolate"/>
          <path id="path3339" d="M482.546,262.625c-1.49,6.039-.533,12.235.537,18.263,1.306,7.361,6.41,15,5.462,22.664-.254,2.057-2.891,3.332-4.535,4.109-10.6,5.013-11.6-13.58-12.29-19.238C468.988,266.015,482.546,238.338,482.546,262.625Z" transform="translate(-468.233 -50.995)" fill="#ffdfe0" opacity="0.589" style="isolation: isolate"/>
        </g>
        <g id="Grupo_87697" data-name="Grupo 87697" transform="translate(2270 10364)">
          <g id="Grupo_87708" data-name="Grupo 87708" transform="translate(-2056.201 -10349)">
            <path id="Trazado_123216" data-name="Trazado 123216" d="M110.743,141.393s4.476,27.838,14.5,43.471a6.481,6.481,0,0,1-2.023,8.81c-11.323,7.318-43.182,21.193-83.872,5.3a6.5,6.5,0,0,1-4.012-6.8c.833-7.525,7.364-22.3,16.964-35.554Z" transform="translate(-12.367 -15.902)" fill="#f76b2c"/>
            <path id="Trazado_123217" data-name="Trazado 123217" d="M121.11,166.433a9.407,9.407,0,1,1-6.274-11.73,9.407,9.407,0,0,1,6.274,11.73" transform="translate(-79.157 -15.121)" fill="#f4ab7a"/>
            <path id="Trazado_123218" data-name="Trazado 123218" d="M63.9,184.982l.907,38.085,29.672-3.463L88.85,163.616Z" transform="translate(-10.965 -14.558)" fill="#ffb98a"/>
            <path id="Trazado_123219" data-name="Trazado 123219" d="M79.356,198s13.494-.681,14.075-16.023l-14.3,7.567Z" transform="translate(-26.078 -13.446)" fill="#2f1a2a"/>
            <path id="Trazado_123220" data-name="Trazado 123220" d="M71.745,131.958a13.741,13.741,0,0,0-4.491,7.856c-1.8,9-5.333,27.717-2.148,37.269,4.141,12.423,14.23,20.278,30.531,17.178,0,0,18.893-.86,23.553-28.623,6.612-39.389-27.127-50.852-47.446-33.68" transform="translate(-36.448 -16.941)" fill="#ffb98a"/>
            <path id="Trazado_123221" data-name="Trazado 123221" d="M114.519,158.843a2.153,2.153,0,1,1-1.535-2.629,2.153,2.153,0,0,1,1.535,2.629" transform="translate(-80.275 -15.01)" fill="#2f1a2a"/>
            <path id="Trazado_123222" data-name="Trazado 123222" d="M97.367,159.187a2.153,2.153,0,1,1-1.535-2.629,2.153,2.153,0,0,1,1.535,2.629" transform="translate(-44.933 -14.988)" fill="#2f1a2a"/>
            <path id="Trazado_123223" data-name="Trazado 123223" d="M107.795,163.21l-2.128,5.124,3.449.929" transform="translate(-69.903 -14.582)" fill="none" stroke="#2f1a2a" stroke-linecap="round" stroke-linejoin="round" stroke-width="0.873"/>
            <path id="Trazado_123224" data-name="Trazado 123224" d="M93.03,146.7s-6.674-1.181-7.029,1.887c0,0-.189,2.082,5.646,2.985s8.167.754,8.886-1.157-4.348-3.433-7.5-3.715" transform="translate(-40.534 -15.595)" fill="#f76b2c"/>
            <path id="Trazado_123225" data-name="Trazado 123225" d="M111.828,146.8s5.814-1.267,6.647,1.669c0,0,.525,2.009-4.585,2.977-3.72.705-5.107.065-5.486-1.282-.448-1.6,1.225-3.068,3.423-3.364" transform="translate(-82.105 -15.591)" fill="#f76b2c"/>
            <path id="Trazado_123226" data-name="Trazado 123226" d="M95.834,172.639l11.985.2s.027,4.827-6.081,4.765-5.9-4.963-5.9-4.963" transform="translate(-58.179 -14.011)" fill="#fff"/>
            <path id="Trazado_123227" data-name="Trazado 123227" d="M94.161,163.09s-9.866-8.728-7.9-25.71a164.467,164.467,0,0,1-36.643,1.5s4.437-26.252,42.258-19.956c39.3,6.541,24.8,51.99,10.2,65.3Z" transform="translate(-18.566 -17.321)" fill="#f76b2c"/>
            <path id="Trazado_123228" data-name="Trazado 123228" d="M75.312,168.56A11.415,11.415,0,1,1,67.7,154.324a11.415,11.415,0,0,1,7.613,14.235" transform="translate(19.292 -15.149)" fill="#ffb98a"/>
            <path id="Trazado_123229" data-name="Trazado 123229" d="M69.476,161.469s-8.369-2.4-10.595,6.805" transform="translate(19.353 -14.704)" fill="none" stroke="#2f1a2a" stroke-linecap="round" stroke-linejoin="round" stroke-width="0.873"/>
            <path id="Trazado_123230" data-name="Trazado 123230" d="M106.823,118.042c.052-.049-32.871.561-36.989,26.718l52.1,1.168,3.12-17.414Z" transform="translate(-47.838 -17.315)" fill="#f76b2c"/>
            <path id="Trazado_123231" data-name="Trazado 123231" d="M104.9,280.027l3.625,49.281L88.184,391.316h22.566l35.187-33.99-3.78-74.137Z" transform="translate(-88.184 -7.513)" fill="#ffb98a"/>
            <path id="Trazado_123232" data-name="Trazado 123232" d="M115.409,224.182s-25.721,18.58-18.148,78.186h42.09Z" transform="translate(-89.746 -10.892)" fill="#fff"/>
            <path id="Trazado_123233" data-name="Trazado 123233" d="M39.91,325.918,25.752,388.2c52.84,14.928,101.965,0,101.965,0s-2.752-23.921-21.118-62.711Z" transform="translate(-3.754 -4.761)" fill="#2f1a2a"/>
            <path id="Trazado_123234" data-name="Trazado 123234" d="M104.311,213.584l-51.7.864s-11.324,3.8-19.315,10.374l1.62,43.595,8.871,64.274,66.69-.425,13.114-99.874Z" transform="translate(-7.636 -11.533)" fill="#fff"/>
            <path id="Trazado_123235" data-name="Trazado 123235" d="M75.055,206.49a107.851,107.851,0,0,1,28.19,7.523s-4.314,16.775-29.118,16.851a32.112,32.112,0,0,1-12.158-2.173c-5.154-2.085-11.182-6.179-10.422-13.813Z" transform="translate(-6.569 -11.963)" fill="#ffb98a"/>
            <line id="Línea_188" data-name="Línea 188" x1="4.808" y1="35.18" transform="translate(26.243 255.235)" fill="none" stroke="#dbdbdb" stroke-linecap="round" stroke-linejoin="round" stroke-width="1.748"/>
            <path id="Trazado_123236" data-name="Trazado 123236" d="M48.616,331.617c.117-1.318-2.358-61.878-2.358-61.878h-28.6l-.446,45.127Z" transform="translate(84.401 -8.135)" fill="#ffb98a"/>
            <path id="Trazado_123237" data-name="Trazado 123237" d="M0,213.584s35.5,9.851,39.827,31.908S54.6,304.357,54.6,304.357L0,304.515l4.105-74.08Z" transform="translate(96.675 -11.533)" fill="#fff"/>
            <line id="Línea_189" data-name="Línea 189" x1="4.618" y1="32.758" transform="translate(94.037 264.063)" fill="none" stroke="#dbdbdb" stroke-linecap="round" stroke-linejoin="round" stroke-width="1.748"/>
            <path id="Trazado_123238" data-name="Trazado 123238" d="M23.891,269.782l-6.8,13.2,58,58.234a15.1,15.1,0,1,0,17.058-24.776l-8.135-5.561-14.287-9.766Z" transform="translate(33.302 -8.132)" fill="#ffb98a"/>
            <path id="Trazado_123239" data-name="Trazado 123239" d="M131.282,275.225l-.03-8.759a29.168,29.168,0,0,0-3.182-13.148l-3.655-7.17a3.091,3.091,0,0,0-4.6-1.079,3.957,3.957,0,0,0-1.471,4.178l2.16,8.265L99.6,234.831a3.166,3.166,0,0,0-4.227.241,2.876,2.876,0,0,0-.278,3.344l11.217,13.645L90.969,238.53a2.864,2.864,0,0,0-3.961.45,3.08,3.08,0,0,0,.295,3.643l17.738,15.614-16.673-9.984a2.394,2.394,0,0,0-3.529,1.211l-.1.291a2.391,2.391,0,0,0,.807,2.721L101.8,264.783l-10.781-6.159a2.394,2.394,0,0,0-2.562,4.038l35.022,25.1Z" transform="translate(-69.721 -10.29)" fill="#ffb98a"/>
            <line id="Línea_190" data-name="Línea 190" x2="16.525" y2="11.297" transform="translate(104.103 293.716)" fill="none" stroke="#f2a36d" stroke-linecap="round" stroke-linejoin="round" stroke-width="1.6"/>
            <path id="Trazado_123240" data-name="Trazado 123240" d="M41.814,94.095h58.5A27.347,27.347,0,0,0,127.658,66.75V50.819a27.346,27.346,0,0,0-27.347-27.345h-58.5A27.345,27.345,0,0,0,14.469,50.819V66.75A27.346,27.346,0,0,0,41.814,94.095" transform="translate(8.545 -23.474)" fill="#3c3fa7"/>
            <path id="Trazado_123241" data-name="Trazado 123241" d="M93.914,83.637,79.673,101.631A2.31,2.31,0,0,1,75.629,99.6l5-18.817Z" transform="translate(-22.756 -19.57)" fill="#3c3fa7"/>
            <text id="Hello_" data-name="Hello!" transform="translate(42.359 45)" fill="#fafbfd" font-size="25" font-family="Montserrat-Bold, Montserrat" font-weight="700" letter-spacing="0.016em"><tspan x="0" y="0">Hello!</tspan></text>
          </g>
          <g id="Grupo_87709" data-name="Grupo 87709" transform="translate(-2235.07 -10346.461)">
            <path id="Trazado_123242" data-name="Trazado 123242" d="M274.606,66.592H222.447a25.786,25.786,0,0,1-25.786-25.785V25.786A25.785,25.785,0,0,1,222.447,0h52.159a25.785,25.785,0,0,1,25.785,25.785V40.807a25.785,25.785,0,0,1-25.785,25.785" transform="translate(-176.33 -0.001)" fill="#fc5f65"/>
            <path id="Trazado_123243" data-name="Trazado 123243" d="M219.9,60,233.33,76.968a2.178,2.178,0,0,0,3.813-1.911L232.43,57.314Z" transform="translate(-136.403 -0.001)" fill="#fc5f65"/>
            <text id="_Hola_" data-name="¡Hola!" transform="translate(32.058 41.36)" fill="#fff" font-size="25" font-family="Montserrat-Bold, Montserrat" font-weight="700"><tspan x="0" y="0" letter-spacing="0.016em">¡Hola</tspan><tspan y="0">!</tspan></text>
            <path id="Trazado_123244" data-name="Trazado 123244" d="M161.219,155.054a10.187,10.187,0,1,0,7.692-12.18,10.187,10.187,0,0,0-7.692,12.18" transform="translate(-21.589 -15.001)" fill="#8c4d41"/>
            <path id="Trazado_123245" data-name="Trazado 123245" d="M228.9,177.469l-.917,40.054L191.5,214.911l7.411-65.1Z" transform="translate(-99.684 -15.001)" fill="#9b5e4e"/>
            <path id="Trazado_123246" data-name="Trazado 123246" d="M212.291,194.251s-19.829-1.646-20.786-25.357l21.159,9.714Z" transform="translate(-83.447 -15.001)" fill="#221914"/>
            <path id="Trazado_123247" data-name="Trazado 123247" d="M209.223,109.047a26.515,26.515,0,0,1,16.324,22.064c1.174,11.267,2.217,28.729-1.286,37.283-5.414,13.224-16.911,20.977-34.3,16.262,0,0-20.356-2.481-23.3-33.172-3.483-36.316,22.01-50.55,42.559-42.437" transform="translate(-72.279 -15.001)" fill="#9b5e4e"/>
            <path id="Trazado_123248" data-name="Trazado 123248" d="M168.864,146.6a2.331,2.331,0,1,0,1.863-2.719,2.332,2.332,0,0,0-1.863,2.719" transform="translate(-21.588 -15.001)" fill="#221914"/>
            <path id="Trazado_123249" data-name="Trazado 123249" d="M188.54,145.578a2.331,2.331,0,1,0,1.863-2.719,2.332,2.332,0,0,0-1.863,2.719" transform="translate(-60.94 -15.001)" fill="#221914"/>
            <path id="Trazado_123250" data-name="Trazado 123250" d="M177.9,148.164l1.652,6.716a1.292,1.292,0,0,1-1.01,1.576l-2.463.476" transform="translate(-34.942 -15.001)" fill="none" stroke="#2f1a2a" stroke-linecap="round" stroke-linejoin="round" stroke-width="1.012"/>
            <path id="Trazado_123251" data-name="Trazado 123251" d="M195.822,130.448s7.3-1.514,7.684,2.418c0,0,.206,2.668-6.172,3.826s-8.928.966-9.714-1.483,4.753-4.4,8.2-4.761" transform="translate(-70.329 -15.001)" fill="#221914"/>
            <path id="Trazado_123252" data-name="Trazado 123252" d="M171.594,130.809s-6.684-1.891-7.537,1.92c0,0-.532,2.609,5.339,4.08,4.274,1.072,5.837.288,6.223-1.459.457-2.071-1.5-4.067-4.025-4.541" transform="translate(-19.008 -15.001)" fill="#221914"/>
            <path id="Trazado_123253" data-name="Trazado 123253" d="M190.781,161.626l-14.194.538s.312,6.144,7.286,6.144c6.934,0,6.908-6.682,6.908-6.682" transform="translate(-46.646 -15.001)" fill="#221914"/>
            <path id="Trazado_123254" data-name="Trazado 123254" d="M181.536,172.183a5.308,5.308,0,1,0,2.61-7.039,5.309,5.309,0,0,0-2.61,7.039" transform="translate(-52.001 -15.001)" fill="#e275c2"/>
            <path id="Trazado_123255" data-name="Trazado 123255" d="M183.872,168.308c-6.974,0-7.286-6.144-7.286-6.144l14.2-.538s.025,6.682-6.91,6.682" transform="translate(-46.646 -15.001)" fill="none"/>
            <path id="Trazado_123256" data-name="Trazado 123256" d="M196.677,154.543s8.738-16.453,5.57-34.347c0,0,26.677,4.474,42.1-.438,0,0-3.624-22-39.5-19.159-49.134,3.9-34.774,56.256-11.343,65.215Z" transform="translate(-96.565 -20.925)" fill="#221914"/>
            <path id="Trazado_123257" data-name="Trazado 123257" d="M215.493,157.415a13.11,13.11,0,1,0,9.9-15.676,13.11,13.11,0,0,0-9.9,15.676" transform="translate(-139.441 -18.438)" fill="#9b5e4e"/>
            <path id="Trazado_123258" data-name="Trazado 123258" d="M221.921,149.785s9.785-2.061,11.572,8.673" transform="translate(-138.703 -17.942)" fill="none" stroke="#2f1a2a" stroke-linecap="round" stroke-linejoin="round" stroke-width="1.012"/>
            <path id="Trazado_123259" data-name="Trazado 123259" d="M148.849,280.027V343l29.534,51.743-29.024-3.425-35.187-33.99,3.78-74.137Z" transform="translate(30.676 -10.051)" fill="#9b5e4e"/>
            <path id="Trazado_123260" data-name="Trazado 123260" d="M146.708,221.747s22.907,13.371,26.581,46.435V315.2L135.9,313.918Z" transform="translate(12.726 -13.577)" fill="#a6bbff"/>
            <path id="Trazado_123261" data-name="Trazado 123261" d="M256.538,211.63s18.764,3.58,28.188,10.729l2.786,168.855c-60.267,36.348-129.172,1.061-129.172,1.061l18.692-169.043s2.44-9.528,28.63-11.568Z" transform="translate(-125.291 -14.189)" fill="#a6bbff"/>
            <path id="Trazado_123262" data-name="Trazado 123262" d="M187.449,211.783s21.614-4.772,50.877-.033c0,0,2.779,17.4-20.721,18.128-25.452.794-30.156-18.1-30.156-18.1" transform="translate(-107.08 -14.31)" fill="#9b5e4e"/>
            <line id="Línea_191" data-name="Línea 191" y1="59.227" x2="0.222" transform="translate(160.938 242.392)" fill="none" stroke="#3c3fa7" stroke-linecap="round" stroke-linejoin="round" stroke-width="1.7"/>
            <path id="Trazado_123263" data-name="Trazado 123263" d="M152.028,307.672s4.177-12.057,19.078-15.155l10.481-10.292a4.572,4.572,0,0,1,6.915,5.934l-5.162,7.169,2.831-1.22a21.725,21.725,0,0,0,10.529-9.639l6.614-12.259a4.344,4.344,0,0,1,7.875,3.626L204.565,293a24.754,24.754,0,0,1-14.574,14.33l-33.477,14.893Z" transform="translate(-42.572 -10.661)" fill="#9b5e4e"/>
            <path id="Trazado_123264" data-name="Trazado 123264" d="M306.658,305.518l-93.1,35.622c-8.053,3.482-11.951,17.186-8.353,25.187a15.725,15.725,0,0,0,23.143,6.584l82.794-52.839Z" transform="translate(-197.202 -8.508)" fill="#9b5e4e"/>
            <path id="Trazado_123265" data-name="Trazado 123265" d="M253.155,358.61l9.737-75.244,45.153-3.339-15.822,67.046Z" transform="translate(-246.378 -10.051)" fill="#9b5e4e"/>
            <path id="Trazado_123266" data-name="Trazado 123266" d="M304.653,214.719s-56.426,9.3-63.085,100.9h69.39l4.564-59.279Z" transform="translate(-241.568 -14.003)" fill="#a6bbff"/>
            <path id="Trazado_123267" data-name="Trazado 123267" d="M240.218,312.563h13.07l8.116-47.3" transform="translate(-186.019 -10.943)" fill="none" stroke="#3c3fa7" stroke-linecap="round" stroke-linejoin="round" stroke-width="1.7"/>
          </g>
        </g>
      </g>
    </g>
  </g>
</svg>
