<svg xmlns="http://www.w3.org/2000/svg" xmlns:xlink="http://www.w3.org/1999/xlink" width="173" height="89" viewBox="0 0 173 89">
  <defs>
    <clipPath id="clip-path">
      <rect id="Rect치ngulo_37364" data-name="Rect치ngulo 37364" width="82.037" height="73.343" fill="none"/>
    </clipPath>
  </defs>
  <g id="Grupo_157528" data-name="Grupo 157528" transform="translate(-3330 7439)">
    <rect id="Rect치ngulo_36130" data-name="Rect치ngulo 36130" width="173" height="89" transform="translate(3330 -7439)" fill="#e1e8ff"/>
    <g id="Grupo_157527" data-name="Grupo 157527" transform="translate(3375 -7431)">
      <g id="Grupo_157526" data-name="Grupo 157526" clip-path="url(#clip-path)">
        <path id="Trazado_128638" data-name="Trazado 128638" d="M0,189.524a2.022,2.022,0,0,1,2.059-.983c1.238.077,2.484.019,3.727.018a1.913,1.913,0,0,1,1.382-.255c7.5.05,14.994.025,22.491.03,4.935,0,9.87-.075,14.805-.009.575-.032,1.149-.025,1.725,0q14.367.025,28.734.015a1.893,1.893,0,0,1,1.311.22c1.436,0,2.871,0,4.307,0a1.44,1.44,0,0,1,1.47,1.354,17.7,17.7,0,0,1,0,1.913,1.441,1.441,0,0,1-1.449,1.376c-.691.008-1.382,0-2.073,0a2.367,2.367,0,0,1-1.47.261q-9.762,0-19.525,0-26.167,0-52.335,0a2.642,2.642,0,0,1-1.63-.26,11.625,11.625,0,0,0-1.492.012A1.917,1.917,0,0,1,0,192.247Z" transform="translate(0 -131.579)" fill="#fee9ce"/>
        <path id="Trazado_128639" data-name="Trazado 128639" d="M105.785,213.042c-1.959,2.376-3.7,4.931-5.821,7.17a5.286,5.286,0,0,1-3.858,1.653c-16.919.35-33.84.043-50.76.154-.258,0-.54.073-.761-.145a.623.623,0,0,1,.492-.23c1.569-.058,3.137-.044,4.5-.016a5.955,5.955,0,0,1-2.606-1.979c-1.523-1.857-2.994-3.756-4.488-5.637-.066-.084.01.025-.048-.064-.171-.262-.5-.514-.365-.839.158-.37.587-.275.921-.3.159-.014.32-.005.48-.005q30.465,0,60.929.005c.467,0,.969-.118,1.381.237" transform="translate(-29.378 -148.695)" fill="#fee9ce"/>
        <path id="Trazado_128640" data-name="Trazado 128640" d="M93.435,112.038a36.626,36.626,0,0,1,7.587.992c.212.376-.005.729-.073,1.083a4.97,4.97,0,0,0,2.7,5.683,4.733,4.733,0,0,0,5.2-.451A4.852,4.852,0,0,0,110.2,117.9c.132-.215.237-.5.586-.434a5.022,5.022,0,0,1,1.9,3.382,1.817,1.817,0,0,1-.17,1.009,1.735,1.735,0,0,1-.841,1.207,9.966,9.966,0,0,1-2.706,1.364c-.4.127-.843.2-1.091.607-.148,1.4-.046,2.8-.087,4.193a2.926,2.926,0,0,1-.223,1.036,3.339,3.339,0,0,1-2.663,1.91,3.248,3.248,0,0,1-3.424-3.2,18.549,18.549,0,0,1-.069-1.918c-.014-.326.084-.753-.479-.728-.485.022-.817.194-.819.758,0,.827,0,1.655-.006,2.482a6.8,6.8,0,0,1-.216,2.378,2.3,2.3,0,0,1-.543.712,3.122,3.122,0,0,1-5.516-1.935,24.359,24.359,0,0,1-.111-3.022c-.027-.778-.141-.874-.914-.781a9.135,9.135,0,0,1-2.929-.013c-.289-.168-.319-.48-.388-.755a5.043,5.043,0,0,0-7.555-3.209,4.6,4.6,0,0,0-2.082,2.379c-.137.305-.215.661-.587.8a20.667,20.667,0,0,1-6.948-1.662c-.18-.273-.03-.511.089-.746a5.193,5.193,0,0,0-1.345-6.354.737.737,0,0,1-.34-.519,18.78,18.78,0,0,1,6.41-3.069c.379-.044.557.259.788.462a12.58,12.58,0,0,0,4.084,2.407,3.489,3.489,0,0,0,2.923-.046,1.058,1.058,0,0,1,.468.087,2.342,2.342,0,0,0,1.857.092,9.792,9.792,0,0,0,5.613-3.641c.281-.317.3-.769.567-1.094" transform="translate(-49.422 -78.292)" fill="#fe624b"/>
        <path id="Trazado_128641" data-name="Trazado 128641" d="M84.6,207.331H20.849c1.408,1.775,2.717,3.432,4.035,5.083a11.79,11.79,0,0,0,2.608,2.774c.532.346,1.12.574,1.679.975H23.4a6.064,6.064,0,0,1-4.663-2.569c-2.258-2.788-4.467-5.616-6.692-8.431a4.481,4.481,0,0,1-.322-.548H86.68a26.54,26.54,0,0,1-2.083,2.717" transform="translate(-8.191 -142.984)" fill="#fed499"/>
        <path id="Trazado_128642" data-name="Trazado 128642" d="M90.852,27.674c-.239.013-.477.037-.716.038-1.635,0-2.3-.661-2.3-2.328-.008-1.863-.009-3.726-.013-5.588,0-.154,0-.308,0-.628-.352.38-.561.732-.95.841a1.285,1.285,0,0,1-1.448-1.038,3.845,3.845,0,0,1-.1-1.111q0-7.471,0-14.942a2.635,2.635,0,0,1,.255-1.475c.294-.467.641-.868,1.289-.673a1.488,1.488,0,0,1,.953,1.281,8.449,8.449,0,0,1,.39,3.131c.036,4.026.014,8.053.015,12.08,0,.24,0,.48,0,.72.02,1.554.577,2.041,2.217,1.86-.747-1.26-.45-2.63-.46-3.957-.031-4.266-.012-8.534-.011-12.8a4.916,4.916,0,0,1,.077-1.195A1.3,1.3,0,0,1,91.517.768a1.4,1.4,0,0,1,.962,1.258,9.006,9.006,0,0,1,.376,3.128c.035,4.123.014,8.247.015,12.37a6.463,6.463,0,0,0,.037,1.036,1.5,1.5,0,0,0,1.449,1.34,2.766,2.766,0,0,0,2.388-.6.363.363,0,0,1,.5-.09l0,.956c-.189,1.4-.459,1.683-1.92,1.828-.509.05-.7.267-.7.755,0,3.011-.007,6.022.006,9.034a1.658,1.658,0,0,0,.467,1.156c.174.189.423.343.4.658a4.188,4.188,0,0,1-1.74-.086,1.554,1.554,0,0,1-1.137-1.479c-.155-1.194-.029-2.393-.07-3.589-.085-2.448-.262-4.9-.123-7.381A1.841,1.841,0,0,1,90.665,22c-.618-.017-.86.281-.849.878.014.774,0,1.548,0,2.322a2.417,2.417,0,0,0,.881,2.13.344.344,0,0,1,.15.348" transform="translate(-59.624 -0.502)" fill="#fed451"/>
        <path id="Trazado_128643" data-name="Trazado 128643" d="M57.953,162.443l-31.619.012-7.124,0a17.47,17.47,0,0,1,7.1-10.691c.333-.239.767-.375.927-.814.026,0,.068-.019.076-.009a11.61,11.61,0,0,0,2.975,2.6c-.326.548-.941.667-1.441.937a13.81,13.81,0,0,0-6.336,7.165.611.611,0,0,0-.08.4,6.3,6.3,0,0,0,1.264.046.854.854,0,0,0,.857-.584,12.058,12.058,0,0,1,5.21-5.472,12.367,12.367,0,0,1,13.615,1.23,12.546,12.546,0,0,1,3.319,4.154,1.64,1.64,0,0,0,1.911.639c.248-.115.193-.284.13-.465-.132-.379-.308-.739-.472-1.1-.117-.26-.295-.528-.059-.82a12.391,12.391,0,0,0,3.559-1.085,15.152,15.152,0,0,1,2.771-.358,1.82,1.82,0,0,1,1.148.261.932.932,0,0,1,.241.733,2.921,2.921,0,0,0,1.7,2.83c.159.075.354.149.33.392" transform="translate(-13.424 -105.477)" fill="#fede74"/>
        <path id="Trazado_128644" data-name="Trazado 128644" d="M157.292,24.355l23.3-.017c2.962,0,5.924-.007,8.887,0,1.6,0,2.317.789,2.235,2.407a1.484,1.484,0,0,1-1.324,1.381,5.908,5.908,0,0,1-1.429.138q-14.594,0-29.188,0a5.98,5.98,0,0,1-.957-.05,1.794,1.794,0,0,1-1.745-1.923,2.913,2.913,0,0,1,.226-1.939" transform="translate(-109.72 -17.006)" fill="#da9b2e"/>
        <path id="Trazado_128645" data-name="Trazado 128645" d="M113.758,18.832a3.189,3.189,0,0,1-2.847.969,1.731,1.731,0,0,1-1.772-1.808q-.008-6.625,0-13.25a23.305,23.305,0,0,1-.147-3.092c.66-1.49,1.925-1.58,3.289-1.4a1.89,1.89,0,0,1,1.481,1.926c.035.478.017.96.022,1.441a1.426,1.426,0,0,1,.256,1.058q.01,5.349,0,10.7a1.522,1.522,0,0,1-.253,1.062l-.031,2.4" transform="translate(-76.138 -0.128)" fill="#fede74"/>
        <path id="Trazado_128646" data-name="Trazado 128646" d="M125,24.4q0-6.409,0-12.818c1.166,0,2.332,0,3.5,0,2.316.006,3.543,1.094,3.805,3.37.018.157.041.313.062.47a10.573,10.573,0,0,1,0,5.13q-.07.512-.139,1.024a3.23,3.23,0,0,1-3.085,2.8c-1.38.036-2.761.015-4.142.019" transform="translate(-87.345 -8.089)" fill="#da9b2e"/>
        <path id="Trazado_128647" data-name="Trazado 128647" d="M149.45,29.46q0-2.565,0-5.13l2.559.021c0,.613,0,1.227.011,1.84A1.566,1.566,0,0,0,153.676,28c.159.014.32,0,.48,0q14.922,0,29.846,0c1.008,0,1.985-.126,2.423-1.256a7.96,7.96,0,0,1,0,1.356A1.625,1.625,0,0,1,185,29.428a3.433,3.433,0,0,1-.718.036q-17.415,0-34.831,0" transform="translate(-104.434 -17.002)" fill="#bf6c0e"/>
        <path id="Trazado_128648" data-name="Trazado 128648" d="M193.391,147.49c.923-.383,1.861-.735,2.766-1.158a4.483,4.483,0,0,0,2.021-1.7c1.166.5,2.422.749,3.574,1.307a17.315,17.315,0,0,1,8.8,9.557,7.13,7.13,0,0,1,.642,2.207c0,.074.038.195-.053.2a5.651,5.651,0,0,1-2.824-.162,9.2,9.2,0,0,1-.9-1.773c-2.676-4.944-6.888-7.374-12.435-7.633-.346-.016-.693,0-1.039-.013-.555-.027-.783-.274-.559-.828" transform="translate(-135.082 -101.066)" fill="#fede74"/>
        <path id="Trazado_128649" data-name="Trazado 128649" d="M185.381,112.777c-.61.634-.909,1.547-1.763,1.961-1.875.611-3.358-.182-4.623-1.425a5.423,5.423,0,0,1-.672-6.716,3.621,3.621,0,0,1,1.275-1.18,5.231,5.231,0,0,1,5.96,6.51,1.82,1.82,0,0,0-.177.85" transform="translate(-124.012 -73.605)" fill="#be6c0d"/>
        <path id="Trazado_128650" data-name="Trazado 128650" d="M58.095,126.552a5.321,5.321,0,0,1,2.091,6.468c-.134.369-.326.716-.492,1.073a4.332,4.332,0,0,1-2.4,2.051,1.488,1.488,0,0,1-.827.131,5.451,5.451,0,0,1-3.789-4.788c-.226-2.186,1.205-5.022,3.822-5.547a5.018,5.018,0,0,1,1.6.612" transform="translate(-36.793 -88.007)" fill="#be6c0d"/>
        <path id="Trazado_128651" data-name="Trazado 128651" d="M81.209.364A1.461,1.461,0,0,0,79.92,1.832q-.015,8.151,0,16.3A1.462,1.462,0,0,0,81.209,19.6a3.985,3.985,0,0,1-2.414.089,1.79,1.79,0,0,1-1.269-1.671c-.034-.221.1-.49-.167-.651a.8.8,0,0,1-.135-.6q.075-6.775,0-13.55a.835.835,0,0,1,.128-.607c.3-.314.189-.744.29-1.114A1.569,1.569,0,0,1,78.792.279a4.1,4.1,0,0,1,2.417.084" transform="translate(-53.963 -0.097)" fill="#fede74"/>
        <path id="Trazado_128652" data-name="Trazado 128652" d="M97.29.266A1.464,1.464,0,0,0,96,1.735c-.011,5.438,0,10.877-.013,16.315,0,.678.523,1.008.941,1.587a14.644,14.644,0,0,1-2.024-.02A1.58,1.58,0,0,1,93.751,18c0-3.946-.034-7.891.016-11.836.019-1.546-.237-3.075-.173-4.618C94.416.065,95.55-.328,97.29.266" transform="translate(-65.397 0)" fill="#fede74"/>
        <path id="Trazado_128653" data-name="Trazado 128653" d="M65.434,21.673c-2.089.058-2.724-.559-2.724-2.651,0-3.964.04-7.929-.021-11.892-.023-1.468.826-2.731,3.1-2.276a3.531,3.531,0,0,0-.268,1.557c.008,4.8,0,9.6,0,14.4a1.779,1.779,0,0,1-.1.864" transform="translate(-43.807 -3.326)" fill="#fede74"/>
        <path id="Trazado_128654" data-name="Trazado 128654" d="M71.418,21.892a1.162,1.162,0,0,1-.163-.687q0-7.721,0-15.442c0-.391.036-.7.525-.69a1.531,1.531,0,0,1,1.405.982,4.55,4.55,0,0,1,.16,1.417q-.009,5.962,0,11.924a5.259,5.259,0,0,1-.156,1.419,1.764,1.764,0,0,1-1.77,1.076" transform="translate(-49.791 -3.545)" fill="#fed451"/>
        <path id="Trazado_128655" data-name="Trazado 128655" d="M116.464,78.7a2.373,2.373,0,0,1-1.13-2.282c.063-2.935.032-5.871.013-8.807,0-.53.117-.756.706-.754,1.457,0,1.667-.18,2.16-1.586,0,3.78.022,7.56.006,11.34a1.907,1.907,0,0,1-1.754,2.09" transform="translate(-80.594 -45.613)" fill="#fede74"/>
        <path id="Trazado_128656" data-name="Trazado 128656" d="M50.465,125.438a8.4,8.4,0,0,0-2.675,2.055,5.277,5.277,0,0,0,2.064,7.805,5.938,5.938,0,0,1,.608.364,2.384,2.384,0,0,1-2.9-.113,5.427,5.427,0,0,1-2.99-2.57,5.286,5.286,0,0,1,3.633-7.612,3.611,3.611,0,0,1,2.26.07" transform="translate(-30.762 -87.505)" fill="#a46021"/>
        <path id="Trazado_128657" data-name="Trazado 128657" d="M174.331,105.614a7.01,7.01,0,0,0-1.823,3.108c-.68,2.923,1.818,6.279,4.883,6.206.32-.008.64,0,.96.007a5.048,5.048,0,0,1-6.107.217,5.344,5.344,0,0,1-2.017-6.234c.04-.126.079-.252.118-.378a5.719,5.719,0,0,1,3.213-2.788,2.157,2.157,0,0,1,.774-.137" transform="translate(-118.745 -73.801)" fill="#a46021"/>
        <path id="Trazado_128658" data-name="Trazado 128658" d="M100.705,73.566a2.323,2.323,0,0,1-1.273-2.435c.008-.88.029-1.762-.007-2.641-.026-.619.193-.917.827-.833a2.02,2.02,0,0,0,2.217-1.265V77.92a3.084,3.084,0,0,1-.132-1.559c-.026-1.241-.008-2.483-.008-3.911-.49.644-.924,1.1-1.624,1.116" transform="translate(-69.477 -46.395)" fill="#fede74"/>
        <path id="Trazado_128659" data-name="Trazado 128659" d="M90.538,110.428a1.9,1.9,0,0,1,1.9-.413,13.821,13.821,0,0,1,3.181,1.194,6.336,6.336,0,0,1,2.839,2.28.508.508,0,0,1,.082.523,1.124,1.124,0,0,1-1.133.44,9.922,9.922,0,0,1-6.869-4.024" transform="translate(-63.268 -76.83)" fill="#cbbf33"/>
        <path id="Trazado_128660" data-name="Trazado 128660" d="M117.86,115.335l-.329-.2a1.1,1.1,0,0,1-.206-.9,8.106,8.106,0,0,1,4.859-3.81,10.126,10.126,0,0,1,2.45-.532,1.536,1.536,0,0,1,1.356.644,1.405,1.405,0,0,1-.414,1.159c-1.884-.492-3.413.421-4.953,1.265a11.125,11.125,0,0,0-2.764,2.367" transform="translate(-81.978 -76.798)" fill="#ccbf33"/>
        <path id="Trazado_128661" data-name="Trazado 128661" d="M98.363,115.4a1.411,1.411,0,0,1,.141.891,2.091,2.091,0,0,1-2.069.45,12.023,12.023,0,0,1-5.773-3.314c-.185-.617-.865-1.118-.442-1.879.692.438,1.145,1.133,1.8,1.632a11.711,11.711,0,0,0,4.732,2.182,1.939,1.939,0,0,0,1.452-.292c.261.01.256.148.16.331" transform="translate(-62.95 -77.949)" fill="#ad9b18"/>
        <path id="Trazado_128662" data-name="Trazado 128662" d="M110.467,115.414c-.014-.13-.025-.261-.16-.331a6.61,6.61,0,0,0-2.209-2.222c-.237-.164-.462-.345-.693-.518a25.4,25.4,0,0,1,4.343-.594,22.438,22.438,0,0,1,3.513-.151c-.786.481-1.636.842-2.388,1.392a6.224,6.224,0,0,0-2.056,2.153.4.4,0,0,1-.35.272" transform="translate(-75.055 -77.963)" fill="#fe624b"/>
        <path id="Trazado_128663" data-name="Trazado 128663" d="M180.212,181.311a3.643,3.643,0,0,0,2.894.13l.12.348q-14.541,0-29.082,0c-.345,0-.691-.02-1.036-.031.024-.214.192-.259.358-.305a2.285,2.285,0,0,0,2.809-1.6,3.124,3.124,0,0,1,.547-.773,1.022,1.022,0,0,1,.458-.476,6.717,6.717,0,0,1,1.541,1.47c-.088.492-.609.732-.74,1.332.9-.032,1.787.273,2.569-.418.194-.172.447-.355.653.022.237.457.671.37,1.058.371q4.715.009,9.428,0c.4,0,.8,0,1.2.02.664,0,1.329.009,1.995.014.306,0,.6.01.676-.38.275-.217.426.05.605.166a.865.865,0,0,0,1.352-.231,3.106,3.106,0,0,0,2.6.339" transform="translate(-106.992 -124.808)" fill="#fedd74"/>
        <path id="Trazado_128664" data-name="Trazado 128664" d="M139.544,168.89l-.354.126-1.587.015c-1.811-.652-2.334-2.059-2.244-3.826-.418-.677-.181-1.422-.226-2.136.038-.478-.2-.668-.661-.682-.388-.012-.811.076-1.125-.27a1.545,1.545,0,0,1,.113-1.56,17.154,17.154,0,0,0,3.256-.146c.667-.154.936.108.915.845a19.379,19.379,0,0,0,.114,3.417,2.843,2.843,0,0,0,2.72,2.613c.184.013.378-.017.509.159,0,.954-.732,1.182-1.43,1.444" transform="translate(-93.074 -112.066)" fill="#fe4b34"/>
        <path id="Trazado_128665" data-name="Trazado 128665" d="M114.124,149.848l-.02,1.621c.1.2,0,.374-.053.557-.174.342-.15.81-.611.972a5.809,5.809,0,0,1-5.292-.28c-2.485-1.421-3.292-5.034-2.052-6.864a5.262,5.262,0,0,1,8.028,3.994" transform="translate(-73.739 -101.356)" fill="#be6c0d"/>
        <path id="Trazado_128666" data-name="Trazado 128666" d="M208.153,164.209c.01.077.052.206.024.223a2.588,2.588,0,0,1-2.6-.548,18.472,18.472,0,0,0-3.025-3.769,11.893,11.893,0,0,0-8.532-2.9c-.4.016-.542.214-.579.6-.032.329.175.773-.335.941q-.008-2.059-.015-4.119c0-.181-.033-.376.147-.505-.082.575.244.658.717.633a13.962,13.962,0,0,1,6.656,1.265,13.516,13.516,0,0,1,7.538,8.181" transform="translate(-134.933 -107.706)" fill="#fec24c"/>
        <path id="Trazado_128667" data-name="Trazado 128667" d="M186.424,175.914l.22.63h-2.759c-.835-.422-1.448-1.158-2.31-1.562a9.025,9.025,0,0,0-8.664.3c-.337.186-.6.549-1.059.483-.921,1.155-2.194.732-3.412.781.1-.714.684-1.074,1.011-1.592.21-.187.453-.093.679-.065a2.837,2.837,0,0,0,2.79-1.105.632.632,0,0,1,.376-.27,4.4,4.4,0,0,0,2.384-1.768,3.765,3.765,0,0,1,2.555-.344,11.648,11.648,0,0,1,6.939,2.9,3.558,3.558,0,0,1,1.248,1.615" transform="translate(-117.707 -119.731)" fill="#fec24c"/>
        <path id="Trazado_128668" data-name="Trazado 128668" d="M101.04,147.735a6.3,6.3,0,0,0-.03,3.97,5.033,5.033,0,0,0,4.3,3.406,4.855,4.855,0,0,0,2.687-.369c.151-.067.289-.146.419.026a2.117,2.117,0,0,1-1.452,1.766,6.248,6.248,0,0,1-3.51.983.793.793,0,0,1-.684.1,5.527,5.527,0,0,1-4.364-4.632,2.524,2.524,0,0,1,.227-2.054,5.465,5.465,0,0,1,2.41-3.194" transform="translate(-68.682 -103.237)" fill="#a46021"/>
        <path id="Trazado_128669" data-name="Trazado 128669" d="M203.221,170.549a12.755,12.755,0,0,0-3.243-2.767,10.674,10.674,0,0,0-7.181-1.408,1.98,1.98,0,0,1-.319,0l.2-.964a.581.581,0,0,0,.134-.445c.065-1.31.066-1.318,1.408-1.308a12.017,12.017,0,0,1,10.83,6.423,1.52,1.52,0,0,1,.1.46c-.034.241.095.6-.293.621s-.8.181-1.125-.14c-.167-.164-.283-.379-.513-.475" transform="translate(-134.504 -114.365)" fill="#fede74"/>
        <path id="Trazado_128670" data-name="Trazado 128670" d="M143.061,129.987a2.939,2.939,0,1,1,5.876.159,2.883,2.883,0,0,1-3,2.863,2.81,2.81,0,0,1-2.877-3.022" transform="translate(-99.971 -88.825)" fill="#fe8f79"/>
        <path id="Trazado_128671" data-name="Trazado 128671" d="M172.261,164.382c-.789,1.456-2,1.908-3.845,1.44a4.1,4.1,0,0,1-1.457-1.425,32.414,32.414,0,0,0,.174-5.094,1.3,1.3,0,0,1,1.577-.962c.251.127.173.363.183.564a21.543,21.543,0,0,0,.138,2.781,2.848,2.848,0,0,0,2.722,2.535c.185.013.378-.016.509.161" transform="translate(-116.671 -110.602)" fill="#fe4b34"/>
        <path id="Trazado_128672" data-name="Trazado 128672" d="M77.541,154.617a6.292,6.292,0,0,0-.023,2.109,1.067,1.067,0,0,1-.908.172,39.151,39.151,0,0,1-7.766-1.6c-.267-.093-.583-.113-.738-.413a7.858,7.858,0,0,0,2.388-1.87,37.2,37.2,0,0,0,7.046,1.6" transform="translate(-47.593 -106.925)" fill="#fe4b34"/>
        <path id="Trazado_128673" data-name="Trazado 128673" d="M119.132,118.7a5.755,5.755,0,0,1,2.657-2.531,7.829,7.829,0,0,1,4.241-1.453c.326.009.652-.015.817.352a6.826,6.826,0,0,1-3.032,2.692,8.2,8.2,0,0,1-3.25,1.188,2.195,2.195,0,0,1-1.434-.247" transform="translate(-83.25 -80.162)" fill="#e9ce32"/>
        <path id="Trazado_128674" data-name="Trazado 128674" d="M154.282,182.736c.56-.4,1.179-.739,1.43-1.444a6.2,6.2,0,0,0,1.93-1.109c-.23.855-.894,1.495-1.153,2.337-.083.268-.336.212-.54.214-.556.006-1.112,0-1.668,0" transform="translate(-107.812 -125.912)" fill="#fec24c"/>
        <path id="Trazado_128675" data-name="Trazado 128675" d="M40.867,159.22a45.909,45.909,0,0,0,4.927,1.246,38.087,38.087,0,0,0,4.484.6,5.349,5.349,0,0,0,4.844,4.479c.265.636.508,1.282.8,1.9.253.533.052.677-.453.641a.706.706,0,0,0-.16,0,1.778,1.778,0,0,1-2.123-1.177,11.376,11.376,0,0,0-9.285-6.3,11.559,11.559,0,0,0-9.7,3.3,10.966,10.966,0,0,0-2.61,3.67c-.238.575-.659.511-1.109.511-1.636,0-1.6.018-.9-1.495a14.039,14.039,0,0,1,7.386-7.143.94.94,0,0,0,.186-.145,4.423,4.423,0,0,0,2.9.114l.812-.2" transform="translate(-20.354 -111.263)" fill="#fec24c"/>
        <path id="Trazado_128676" data-name="Trazado 128676" d="M45.961,177.18H43.1a10.476,10.476,0,0,1,8.7-4.918,10.792,10.792,0,0,1,9.8,4.921H58.806a17.818,17.818,0,0,0-3.276-1.944,8.728,8.728,0,0,0-8.9,1.518,4.122,4.122,0,0,1-.671.422" transform="translate(-30.119 -120.368)" fill="#fec24c"/>
        <path id="Trazado_128677" data-name="Trazado 128677" d="M52.6,182.291c3.054-3.67,9.679-3.608,12.846,0l-12.846,0" transform="translate(-36.753 -125.479)" fill="#fede74"/>
        <path id="Trazado_128678" data-name="Trazado 128678" d="M127.088,170.459a5.62,5.62,0,0,0,1.452-1.766c.282-.264.226-.685.453-.973a2.64,2.64,0,0,1,2.092.331l.01,2.251a7.492,7.492,0,0,0-3.3.063c-.235.027-.47.063-.7.1" transform="translate(-88.809 -117.162)" fill="#fec24c"/>
        <path id="Trazado_128679" data-name="Trazado 128679" d="M133.976,20.4c0,.053,0,.106,0,.16,0,.985-.308,1.464-.949,1.48-.668.018-1.085-.5-1.139-1.41a2.092,2.092,0,0,0-2.152-2.263c-.8-.1-1.1-.435-1.054-1.174s.487-.885,1.129-.927a4,4,0,0,1,4.165,4.133" transform="translate(-89.921 -11.36)" fill="#feb64b"/>
        <path id="Trazado_128680" data-name="Trazado 128680" d="M179.594,181.5a9.2,9.2,0,0,1,10.959-.278,9.526,9.526,0,0,1,1.073,1.06c-3.773,0-7.546-.011-11.319.027-.67.007-.931-.136-.713-.809" transform="translate(-125.448 -125.465)" fill="#fede74"/>
        <path id="Trazado_128681" data-name="Trazado 128681" d="M135.5,167.055c-.672-.267-1.435.04-2.091-.331l.181-.446a10.463,10.463,0,0,0,1.188-.027c.665-.087.864.192.722.8" transform="translate(-93.229 -116.166)" fill="#fbe072"/>
      </g>
    </g>
  </g>
</svg>
