<svg xmlns="http://www.w3.org/2000/svg" xmlns:xlink="http://www.w3.org/1999/xlink" width="240.048" height="255.472" viewBox="0 0 240.048 255.472">
  <defs>
    <clipPath id="clip-path">
      <rect id="Rect치ngulo_37508" data-name="Rect치ngulo 37508" width="197.129" height="197.117" fill="none"/>
    </clipPath>
  </defs>
  <g id="Grupo_157893" data-name="Grupo 157893" transform="translate(-0.048 -33)">
    <g id="Grupo_87689" data-name="Grupo 87689" transform="translate(0.048 33)">
      <g id="Grupo_87397" data-name="Grupo 87397">
        <path id="Rect치ngulo_34437" data-name="Rect치ngulo 34437" d="M0,0H163.048a77,77,0,0,1,77,77V255.472a0,0,0,0,1,0,0H0a0,0,0,0,1,0,0V0A0,0,0,0,1,0,0Z" fill="#ffdfe0"/>
      </g>
    </g>
    <g id="Grupo_157905" data-name="Grupo 157905" transform="translate(21.048 61.999)">
      <g id="Grupo_157905-2" data-name="Grupo 157905" clip-path="url(#clip-path)">
        <path id="Trazado_130321" data-name="Trazado 130321" d="M0,92.771c.372-2.972.677-5.954,1.128-8.914A96.6,96.6,0,0,1,26.1,31.809,97.019,97.019,0,0,1,78,2.176,80.68,80.68,0,0,1,90.921.342,2.921,2.921,0,0,0,92.771,0h11.548c3.03.378,6.071.684,9.088,1.147a89.922,89.922,0,0,1,24.018,6.935c.906,1.316,1.954,2.586,1.437,4.371a2.263,2.263,0,0,1-1.83-.335,95.25,95.25,0,0,0-77.447.225A91.584,91.584,0,0,0,29.18,34.19a94.873,94.873,0,0,0-17,102.991,2.118,2.118,0,0,1,.281,1.656c-1.8.577-3.06-.511-4.384-1.411a92.936,92.936,0,0,1-6.558-21.555C.789,112.045.669,108.148,0,104.319V92.771" fill="#c85757"/>
        <path id="Trazado_130322" data-name="Trazado 130322" d="M151.835,25.151l-1.546-4.207a76.238,76.238,0,0,1,16.952,9.22c20.228,14.193,33.586,33.214,39.765,57.18a94.363,94.363,0,0,1,2.616,31.982c-2.42,27.73-14.436,50.491-35.722,68.283a93.95,93.95,0,0,1-45.26,20.818c-27.029,4.577-51.874-.952-74.308-16.673A96.435,96.435,0,0,1,21.12,151.021a4.038,4.038,0,0,1-.175-.732l4.206,1.546c.931.279,1.158,1.15,1.521,1.873A94.035,94.035,0,0,0,47.424,181.2,93.008,93.008,0,0,0,98.7,205.216a93.966,93.966,0,0,0,42.341-3.845,92.689,92.689,0,0,0,32.223-18.328A94.586,94.586,0,0,0,196.93,152.1a93.022,93.022,0,0,0,8.7-31.736,94.747,94.747,0,0,0-4.066-37.977,92.893,92.893,0,0,0-18.092-32.361A97.166,97.166,0,0,0,166.066,34.1a101.789,101.789,0,0,0-12.185-7.338c-.772-.4-1.727-.612-2.046-1.607" transform="translate(-12.864 -12.863)" fill="#a43d3d"/>
        <path id="Trazado_130323" data-name="Trazado 130323" d="M144.446,17.638a103.258,103.258,0,0,1,19.581,12.4A94.863,94.863,0,0,1,195.631,78,92.372,92.372,0,0,1,199,110.1a93.006,93.006,0,0,1-20.594,53.126A94.718,94.718,0,0,1,92,198.276a93.324,93.324,0,0,1-42.935-16.7,95.075,95.075,0,0,1-30.916-36.6c-.112-.229-.257-.442-.386-.662a109.533,109.533,0,0,1-5.8-16.448c-7.63-32.352-1.007-61.414,20.653-86.693,14.076-16.428,32.09-26.562,53.3-30.666a93.46,93.46,0,0,1,57.1,6.611c.461.206.954.343,1.432.512" transform="translate(-5.474 -5.35)" fill="#fee3cb"/>
        <path id="Trazado_130324" data-name="Trazado 130324" d="M78.358,181.8c-1.554-1.487-3.136-2.946-4.655-4.469-2.306-2.312-2.476-4.975-.461-7.51,1.142-1.436,2.388-2.79,3.588-4.18.01-1.019.785-1.564,1.382-2.215,2.074-2.262,4.2-4.479,6.118-6.879,3.247-3.477,6.4-7.042,9.553-10.6.592-.667,1.032-2.1,2.482-1.247a13.812,13.812,0,0,1,.241,4.2c.024,1.372.618,2,1.994,1.958a72.16,72.16,0,0,0,8.447-.323,14.4,14.4,0,0,0,12.729-13.55c.1-1.65.619-2.511,2.29-2.976,6.966-1.943,10.954-7.2,11.233-14.531.037-.985-.294-2.086.661-2.873.877-.2,1.547.41,2.329.585a10.374,10.374,0,0,0,7.222-.13,5.611,5.611,0,0,1,2.726-.64,3.655,3.655,0,0,1,1.15.641c1.527.961,2.826.772,3.615-.51.771-1.255.406-2.515-1.032-3.538a4.118,4.118,0,0,1-.6-.472,12.252,12.252,0,0,1-1.393-2.936,11.032,11.032,0,0,0-3.691-4.8c-.767-.555-1.415-1.267-1-2.264,1.336-3.231.577-6.262-.735-9.266a1.863,1.863,0,0,1-.138-.939,11.656,11.656,0,0,1,2.291-3.125c1.934-2.043,3.761-4.184,5.7-6.227,1.051-1.38,2.436-2.46,3.459-3.866,1.618-1.751,3.067-3.654,4.75-5.348,2.458-2.537,4.5-5.455,7.166-7.8a25.188,25.188,0,0,0,3.976-4.1c3.234-4.265,7.187-4.552,11-.772,1.262,1.252,2.906,2.092,3.884,3.641,1.6,1.814,3.363,3.48,4.794,5.444a74.3,74.3,0,0,1,13,25.516,78.124,78.124,0,0,1,3.1,25.818c-.087,2.1-.382,4.2-.443,6.314a33.721,33.721,0,0,1-.809,4.215,91.889,91.889,0,0,1-3.956,13.795,74.768,74.768,0,0,1-9.037,16.839c-.384.568-.761,1.141-1.145,1.709a134.062,134.062,0,0,1-9.387,10.675,75.577,75.577,0,0,1-44.707,22.063c-19.589,2.518-37.856-1.572-54.345-12.76-1.169-.793-2.141-1.828-3.342-2.572" transform="translate(-44.124 -35.905)" fill="#fddd7a"/>
        <path id="Trazado_130325" data-name="Trazado 130325" d="M216.377,80.168c-1.381-1.828-3.217-3.3-4.23-5.416,6.2,5.254,12.513,10.416,18.012,16.406A77.946,77.946,0,0,1,249.524,129.5a77.136,77.136,0,0,1,1.457,19.06,80.687,80.687,0,0,1-7.319,29.558,78.744,78.744,0,0,1-56.318,44.095,75.748,75.748,0,0,1-13.67,1.529,80.132,80.132,0,0,1-32.844-6.407,75.948,75.948,0,0,1-20.98-13.281,17.1,17.1,0,0,1-3.209-3c.886-.59,1.62-.023,2.294.393a75.851,75.851,0,0,0,28.53,10.239,69.4,69.4,0,0,0,11.849.768c.978-.015,2.107-.252,2.721.913a5.54,5.54,0,0,0,.691,1.949,2.533,2.533,0,0,0,4.351-.628c.222-.531.257-1.112.437-1.658.521-1.118,1.588-1.179,2.6-1.335,2.791-.431,5.538-1.068,8.3-1.649a14.29,14.29,0,0,0,4.953-2.439c.683.964.177,1.98.117,2.972-.12,1.939.225,2.372,2.115,2.642a26.181,26.181,0,0,0,4.768.353,1.872,1.872,0,0,0,2-1.844c.363-2.151.253-4.33.535-6.48a2.449,2.449,0,0,1,1.468-1.415,65.823,65.823,0,0,0,13.1-8.531,2.655,2.655,0,0,1,1.185-.591,2.441,2.441,0,0,1,1.24.4,2.486,2.486,0,0,0,3-.157,2.7,2.7,0,0,0,.676-2.959,5.02,5.02,0,0,1-.21-.92c-.019-1.388,1.141-2.063,1.874-2.959,1.627-1.989,3.466-3.8,4.988-5.884,1.416-.306,2.788.262,4.2.2,1.349-.063,2.1-.672,2.1-1.962,0-2.306.553-4.586.274-6.9a2.274,2.274,0,0,1,.35-1.085,70.025,70.025,0,0,0,5.753-12.123,2.509,2.509,0,0,1,1.057-1.547,4.368,4.368,0,0,1,1.484-.239,2.148,2.148,0,0,0,2.257-1.638,2.5,2.5,0,0,0-1.107-2.795c-.4-.292-.9-.472-1.161-.947a13.581,13.581,0,0,1,1.268-5.387,2.421,2.421,0,0,1,1.25-.394c2.834-.33,2.838-.332,2.909-3.254a17.958,17.958,0,0,1,.216-2.268c.348-2.292.124-2.655-2.089-3.519a1.7,1.7,0,0,1-.93-.618,26.512,26.512,0,0,1,.008-9.195c.34-.5.727-.378,1.129-.077a6.947,6.947,0,0,0,1.252.862,2.227,2.227,0,0,0,3.023-.755,2.08,2.08,0,0,0-.249-2.93,2.416,2.416,0,0,0-3.145-.293,4.793,4.793,0,0,0-1.139,1.27c-.529.569-1.06.857-1.365-.161a14.292,14.292,0,0,1-.466-2.446A75.676,75.676,0,0,0,219.1,83.056c-.852-1-1.378-2.341-2.721-2.889" transform="translate(-71.637 -45.91)" fill="#f6c86f"/>
        <path id="Trazado_130326" data-name="Trazado 130326" d="M177.4,83.327a12.93,12.93,0,0,1-2.27,2.606c-.062-.016-.145-.011-.183-.05-1.926-1.969-1.936-1.995-4.689-.847-2.172.906-4.524,1.468-6.253,3.245a13.048,13.048,0,0,0-2.009,2.554c-1.063,1.836-1.708,1.949-3.7.784-.532-3.793.8-7.064,3.01-9.994a5.959,5.959,0,0,0,1.332-3.864c-.051-5.188-.009-10.378-.025-15.567-.007-2.115-.234-2.332-2.21-1.725-12.036,3.7-19.618,11.671-22.573,23.907a30.776,30.776,0,0,0,.194,14.847c.2.8.76,1.726-.23,2.459a43.542,43.542,0,0,1-11.488-.066c-1.336-1.114-1.1-2.758-1.376-4.214a17.589,17.589,0,0,1-.107-2.848,37.107,37.107,0,0,1,.806-11.927,44.757,44.757,0,0,1,2.3-7.384,3.447,3.447,0,0,1,1.342-1.991A46.512,46.512,0,0,1,139.92,59.3,43.744,43.744,0,0,1,188.7,53.28c.618.317,1.188.731,1.78,1.1.182,1.236-.894,1.768-1.516,2.471-1.674,1.89-3.076,4.051-5.223,5.5a1.727,1.727,0,0,1-.6,0,45.736,45.736,0,0,0-6.719-2.29c-1.661-.347-1.926-.159-1.944,1.571-.039,3.714,0,7.429-.014,11.144a25.725,25.725,0,0,1-.029,2.69,6.091,6.091,0,0,0,2.04,5.686,2.121,2.121,0,0,1,.926,2.182" transform="translate(-76.529 -29.76)" fill="#fe5331"/>
        <path id="Trazado_130327" data-name="Trazado 130327" d="M50.592,208.864A40.23,40.23,0,0,1,41.164,188.4c-1.955-12.562.836-24.018,8.686-34.128a42.985,42.985,0,0,1,14.563-11.977c.734-.376,1.459-.768,2.189-1.152.713-.926,1.546-1.444,2.722-.8a1.568,1.568,0,0,1,.114,1.289c-1.116,3.587-1.485,7.32-2.154,10.994a2.222,2.222,0,0,1-.248.563c-2.737,2.489-5.773,4.667-7.986,7.707q-11.248,15.45-3.709,33c.937,2.182,2.469,4.035,3.31,6.259.026.711-.469,1.147-.852,1.658-1.575,2.1-3.573,3.834-5.2,5.9-.47.6-.959,1.438-2.006,1.154" transform="translate(-24.912 -86.017)" fill="#fe5331"/>
        <path id="Trazado_130328" data-name="Trazado 130328" d="M202.692,340.777c.217,1.5-1.014,2.185-1.808,3.052-1.577,1.72-3.307,3.3-4.383,5.426-4.117-.415-4.117-.415-4.924,3.65A61.524,61.524,0,0,1,176.1,363.053c-1.827-.1-3.648-.259-5.462-.507-3-.41-3.3-.22-4.139,2.581a1.108,1.108,0,0,1-.429.607c-.252,1.419-1.2,1.989-2.525,2.355a73.969,73.969,0,0,1-10.734,2.288c-.825.1-1.853.024-2.123,1.192-1.167-.485-1.654-2-3.292-1.884-1.584.11-1.573,1.895-2.806,2.25-.226-1.163-1.163-.813-1.852-.8a77.244,77.244,0,0,1-40.659-10.759A6.354,6.354,0,0,0,99.5,359.2c-3.129-2.568-6.53-4.8-9.414-7.671-.49-.487-.906-1.049-1.357-1.577,1.3.163,2.151,1.14,3.128,1.823a76.177,76.177,0,0,0,32.114,12.787A80.817,80.817,0,0,0,143.83,365a75.57,75.57,0,0,0,38.939-15.136,84.669,84.669,0,0,0,16.091-16.084c.43-.548.955-1.021,1.435-1.529.769,1.321.309,2.761.161,4.072-.237,2.1-.061,3.74,2.237,4.453" transform="translate(-54.493 -204.057)" fill="#eeba60"/>
        <path id="Trazado_130329" data-name="Trazado 130329" d="M66.558,304.641a79.468,79.468,0,0,0,7.819-8.536.553.553,0,0,1,.511-.069c1.927,2.456,4.614,4.179,6.482,6.694-2.4,3.107-5.184,5.875-7.787,8.8a33.184,33.184,0,0,1-7.026-6.892" transform="translate(-40.877 -181.794)" fill="#ee4b30"/>
        <path id="Trazado_130330" data-name="Trazado 130330" d="M278.307,71.535l6.553-7.728c2.944,1.283,5.291,3.41,7.7,5.45-.4,1.512-1.772,2.288-2.665,3.421-1.3,1.647-2.819,3.117-4.246,4.662a57.878,57.878,0,0,0-6.658-4.8c-.363-.2-.833-.415-.685-1" transform="translate(-170.909 -39.188)" fill="#ee4b30"/>
        <path id="Trazado_130331" data-name="Trazado 130331" d="M110.225,123.292l-2.581.814c-.526-.365-.105-.647.1-.921a66.908,66.908,0,0,1,9.855-10.312c.245-.214.527-.85,1.092-.4a65.437,65.437,0,0,0-3.11,9.153c-1.574,1.233-3.472,1.422-5.354,1.664" transform="translate(-65.955 -68.981)" fill="#feeee1"/>
        <path id="Trazado_130332" data-name="Trazado 130332" d="M125.281,185.173c3.972.2,7.951-.385,11.92.117a9.9,9.9,0,0,1,6.494,2.905c1.019.906,1.783,1,2.822.156a16.819,16.819,0,0,1,3.327-1.92c4.473-1.926,9.185-1.394,13.845-1.348a1.664,1.664,0,0,1,1.773,1.847c.031,2.488.123,4.974.233,7.459-.814.574-.406,1.415-.405,2.123.011,8.159-4.179,13.709-12.064,15.827-.924.248-1.4.547-1.392,1.612.044,7.68-5.886,14.737-15.448,15.048-2.239.073-4.484.026-6.72.148-1.535.083-2.053-.6-2.047-2.03.007-1.661-.1-3.323-.16-4.984a13.232,13.232,0,0,1-.669-5.392,19.438,19.438,0,0,1,2.006-7.288c.492-.85-.073-1.436-.625-1.992a16.707,16.707,0,0,1-3.439-5.228,13.868,13.868,0,0,1-1.173-6.184c.127-2.888-.668-5.742-.34-8.631.136-1.2.245-2.539,2.063-2.245" transform="translate(-75.627 -113.609)" fill="#49bb6e"/>
        <path id="Trazado_130333" data-name="Trazado 130333" d="M194.765,147.269c1.642.584,2.54.117,3.317-1.585,1.012-2.216,3.084-3.523,5.34-4.428a47.151,47.151,0,0,0,4.61-1.862c1.651-.875,2.475-.434,2.893,1.266a4.353,4.353,0,0,0,.417.855c.406,1.2.768,2.428,1.229,3.612a9.14,9.14,0,0,1-.17,6.736c-.2.534-.6,1.114.118,1.51,3.387,1.865,4.467,5.281,5.8,8.532,1.477,1.785,1.308,2.633-.768,3.521a4.252,4.252,0,0,1-2.512.668c-2.382.534-4.548,1.938-7.137,1.671a8.56,8.56,0,0,1-3.28-.721c.671-4.466.226-8.958.309-13.437.021-1.122-.462-1.874-1.693-1.857a49.874,49.874,0,0,0-11.256,1.007,12.3,12.3,0,0,0-4.133,2,4.575,4.575,0,0,1-2.181,1.152c-1.435-1-1.685-2.612-2.053-4.13a1.478,1.478,0,0,1,.951-1.706,43.433,43.433,0,0,1,8.381-3.111,2.111,2.111,0,0,1,1.817.311" transform="translate(-112.745 -85.342)" fill="#49bb6e"/>
        <path id="Trazado_130334" data-name="Trazado 130334" d="M375.135,88.566c.589-.367.977.069,1.288.413a78.22,78.22,0,0,1,20.24,45.479c.088.867.222.863.738.3a1.262,1.262,0,0,1,.019,1.939c-.776,1.952-.189,3.983-.332,5.972-.086,1.2-.02,2.4-.022,3.6a1.46,1.46,0,0,1-1.526.483c-1.531-.34-3.105-.06-4.629-.4-.088-3.9.524-7.765.414-11.674a78.394,78.394,0,0,0-8.294-33.47,82.207,82.207,0,0,0-7.9-12.641" transform="translate(-230.394 -54.308)" fill="#eeba60"/>
        <path id="Trazado_130335" data-name="Trazado 130335" d="M398.6,255.249a22.385,22.385,0,0,1-1.139,5.278c-.18.379-.566.485-.887.681-1.891,1.156-2.124,2.157-.943,4.064a1.421,1.421,0,0,1,.364,1.045c-1.232,1.8-1.769,3.915-2.572,5.9a63.882,63.882,0,0,1-4.45,8.421,23.962,23.962,0,0,1-8.838-.818,74.566,74.566,0,0,0,12.748-29.914c.032-.17.2-.315.3-.471.826.826.577,1.894.57,2.868a2.008,2.008,0,0,0,1.989,2.253c.963.152,2.057-.16,2.854.693" transform="translate(-233.463 -153.194)" fill="#eeba60"/>
        <path id="Trazado_130336" data-name="Trazado 130336" d="M105.447,257.7q.1,2.856.2,5.713L94.31,275.821c-2.464-1.944-4.958-3.858-6.621-6.606-.221-.6.183-.969.519-1.333,4.493-4.855,8.872-9.812,13.255-14.766.441-.5.887-1.145,1.75-.853a37.375,37.375,0,0,1,2.232,5.434" transform="translate(-53.817 -154.886)" fill="#d21e1a"/>
        <path id="Trazado_130337" data-name="Trazado 130337" d="M262.289,83.836a60.059,60.059,0,0,1,6.549,4.585,1.738,1.738,0,0,1,.794,1.22l-4.679,5.267c-.739.17-.781-.507-1-.887a2.512,2.512,0,0,0-2.807-1.178,2.4,2.4,0,0,0-1.966,1.877c-.384,1.173.282,1.926,1.071,2.658.474.439,1.389.514,1.293,1.462l-5.781,6.217a4,4,0,0,0-.745-1.1c-3.332-2.427-2.843-5.938-2.714-9.354,1.973-2.979,4.574-5.428,6.911-8.1a11.245,11.245,0,0,1,2.695-2.655c.128-.011.256-.016.384-.015" transform="translate(-154.891 -51.489)" fill="#d21e1a"/>
        <path id="Trazado_130338" data-name="Trazado 130338" d="M188.554,175.177a16.6,16.6,0,0,1,11.3-4.3c2.2-.005,4.428-.289,6.653-.341,1.429-.034,1.978.59,1.978,1.913,0,4.149-.007,8.3.008,12.446a1.526,1.526,0,0,1-.9,1.543,3.6,3.6,0,0,1-1.811-.922c-1.345-2.062-.711-4.373-.706-6.565,0-1.72-.4-2.349-2.234-2.273-4.449.183-8.973-.4-13.2,1.585a2.847,2.847,0,0,1-1.092-3.084" transform="translate(-115.721 -104.734)" fill="#3da45d"/>
        <path id="Trazado_130339" data-name="Trazado 130339" d="M377.994,328.187a33.927,33.927,0,0,1,8.838.818c.651,2.778-.066,5.514-.28,8.262-.076.98-.733,1.408-1.728,1.339-1.765-.123-3.533-.219-5.3-.326-2.837-.2-3.1-.557-2.754-3.384.209-1.7-.1-3.449.357-5.14.066-.646.565-1.053.867-1.568" transform="translate(-231.325 -201.56)" fill="#eea8c8"/>
        <path id="Trazado_130340" data-name="Trazado 130340" d="M419.34,247.845c-1.257-.149-2.52-.046-3.79-.3a1.727,1.727,0,0,1-1.638-2.081c.055-1.142.014-2.289.015-3.434.449-1.365.175-2.867.8-4.2,1.33-.71,2.692-.433,4.074-.186a15.52,15.52,0,0,0,2.08.1c3.294.244,3.88,1.019,3.321,4.208a21.15,21.15,0,0,0-.228,3.03c-.073,2.485-.441,2.856-2.916,2.833-.572-.005-1.144.015-1.716.024" transform="translate(-254.206 -145.79)" fill="#f1a9c9"/>
        <path id="Trazado_130341" data-name="Trazado 130341" d="M316.25,200.525c-5.516.023-5.022.4-5.029-5.1-.006-5.309-.387-4.931,4.823-4.91.96,0,1.925.059,2.88-.012,1.711-.126,2.293.8,2.3,2.317.012,1.664.019,3.329,0,4.994-.025,2.3-.43,2.7-2.674,2.71-.768,0-1.536,0-2.3,0" transform="translate(-191.135 -116.993)" fill="#f7abcb"/>
        <path id="Trazado_130342" data-name="Trazado 130342" d="M262.895,336.851a23.851,23.851,0,0,1-.392,3.959c-.1,1.3-.858,1.93-2.036,1.705-1.783-.34-3.576-.2-5.353-.378-2.286-.223-2.929-1.1-2.449-3.324a29.164,29.164,0,0,0,.221-4.02c.179-2.311.544-2.694,2.789-2.622,1.658.053,3.314.115,4.973.251,1.914.157,2.476.927,2.256,2.656a17.356,17.356,0,0,0-.008,1.774" transform="translate(-155.085 -204.002)" fill="#f7abcb"/>
        <path id="Trazado_130343" data-name="Trazado 130343" d="M333.048,266.942a1.8,1.8,0,0,1-.739,1.768c-1.614,1.36-3.219,2.731-4.872,4.043a1.6,1.6,0,0,1-2.4-.21c-1.4-1.665-2.7-3.405-4.1-5.071a1.607,1.607,0,0,1,.223-2.517c1.549-1.334,3.2-2.554,4.764-3.866a1.722,1.722,0,0,1,2.8.2c1.34,1.63,2.71,3.237,4.031,4.882a1.935,1.935,0,0,1,.289.775" transform="translate(-196.798 -159.966)" fill="#f7abcb"/>
        <path id="Trazado_130344" data-name="Trazado 130344" d="M242.2,242.62a1.939,1.939,0,0,1-.857,1.457c-1.879,1.094-3.771,2.164-5.658,3.244a1.686,1.686,0,0,1-2.575-.749c-1-1.713-1.942-3.458-2.987-5.141a1.74,1.74,0,0,1,.618-2.748q2.624-1.59,5.309-3.078a1.658,1.658,0,0,1,2.4.359c1.256,2,2.388,4.08,3.564,6.131a2.908,2.908,0,0,1,.183.524" transform="translate(-141.078 -144.488)" fill="#f7abcb"/>
        <path id="Trazado_130345" data-name="Trazado 130345" d="M271.616,112.229c-.192-.5-.713-.476-1.087-.681-1.274-.7-2.136-1.714-1.881-3.206a2.89,2.89,0,0,1,2.573-2.67,2.926,2.926,0,0,1,3.461,1.986,4.8,4.8,0,0,0,.347.639l-3.414,3.932" transform="translate(-164.967 -64.878)" fill="#e2b160"/>
        <path id="Trazado_130346" data-name="Trazado 130346" d="M370.251,232.783a2.986,2.986,0,1,1-.135-5.97,2.9,2.9,0,0,1,2.913,2.91,2.954,2.954,0,0,1-2.778,3.06" transform="translate(-225.5 -139.299)" fill="#965326"/>
        <path id="Trazado_130347" data-name="Trazado 130347" d="M279.771,290.568a2.983,2.983,0,0,1,.525-5.941,3.1,3.1,0,0,1,2.649,3.224,3.14,3.14,0,0,1-3.173,2.717" transform="translate(-170.18 -174.794)" fill="#965326"/>
        <path id="Trazado_130348" data-name="Trazado 130348" d="M319.372,154.019a2.909,2.909,0,0,1,2.791,3.035,2.969,2.969,0,0,1-2.9,2.938,2.987,2.987,0,1,1,.113-5.973" transform="translate(-194.256 -94.592)" fill="#965326"/>
        <path id="Trazado_130349" data-name="Trazado 130349" d="M193.266,304.128a2.923,2.923,0,1,1-2.883-2.915,2.875,2.875,0,0,1,2.883,2.915" transform="translate(-115.107 -184.993)" fill="#965225"/>
        <path id="Trazado_130350" data-name="Trazado 130350" d="M265.123,202.624c.609-.307,1.2-.654,1.83-.914,2.3-.953,2.309-.942,1.45-3.275a2.605,2.605,0,0,1,2.21,2.91,2.916,2.916,0,0,1-5.489,1.279" transform="translate(-162.829 -121.872)" fill="#975527"/>
        <path id="Trazado_130351" data-name="Trazado 130351" d="M288.664,412.82c.03-4.105.436-4.192,4.66-3.682,1.778.215,3.784-.35,5.372,1a44.613,44.613,0,0,1-.363,7.614,1.626,1.626,0,0,1-1.742,1.632,46.7,46.7,0,0,1-6.847-.458c-1.065-.088-1.468-.916-1.4-1.935.091-1.392.213-2.782.323-4.173" transform="translate(-177.085 -251.144)" fill="#f6abcb"/>
        <path id="Trazado_130352" data-name="Trazado 130352" d="M422.879,319.609a2.957,2.957,0,0,1-2.855,2.981,3.02,3.02,0,0,1-2.982-3.1,3.094,3.094,0,0,1,3.019-2.88,2.9,2.9,0,0,1,2.818,3" transform="translate(-256.131 -194.45)" fill="#965326"/>
        <path id="Trazado_130353" data-name="Trazado 130353" d="M354.737,378.461c-.556-1.547-.569-3.028.916-4.052,1.386-.956,2.752-.54,4.008.4.922,1.56.927,3.055-.485,4.311-1.194,1.061-2.684.794-4.438-.661" transform="translate(-217.654 -229.615)" fill="#965326"/>
        <path id="Trazado_130354" data-name="Trazado 130354" d="M233.52,430.7c.562-1.342,1.075-2.694,2.9-2.758,1.747-.061,2.591.983,3.2,2.392-.115,1.463-.5,2.815-2.067,3.3a3.2,3.2,0,0,1-3.435-1.038,2.8,2.8,0,0,1-.6-1.9" transform="translate(-143.419 -262.827)" fill="#965225"/>
        <path id="Trazado_130355" data-name="Trazado 130355" d="M387.522,379.824a2.945,2.945,0,0,1-2.856-2.973,2.853,2.853,0,0,1,3.145-2.845,2.937,2.937,0,0,1,2.779,3.035,2.984,2.984,0,0,1-3.068,2.783" transform="translate(-236.247 -229.698)" fill="#965225"/>
        <path id="Trazado_130356" data-name="Trazado 130356" d="M360.277,403.329a2.992,2.992,0,0,1-5.982-.092,2.992,2.992,0,1,1,5.982.092" transform="translate(-217.595 -245.808)" fill="#975326"/>
        <path id="Trazado_130357" data-name="Trazado 130357" d="M324.379,412.176a2.995,2.995,0,0,1,.182,5.985,2.995,2.995,0,1,1-.182-5.985" transform="translate(-197.405 -253.143)" fill="#975326"/>
        <path id="Trazado_130358" data-name="Trazado 130358" d="M418.6,283.973c-1.042-.963-2.039-1.962-1.511-3.57a3.109,3.109,0,0,1,2.977-2.221c2.178.627,3.03,1.774,2.7,3.638-.306,1.748-1.494,2.361-4.17,2.153" transform="translate(-256.07 -170.849)" fill="#965225"/>
        <path id="Trazado_130359" data-name="Trazado 130359" d="M432.864,207.145q-.009-.969-.019-1.939c1.239-2.03,3.031-2.629,4.563-1.5a2.745,2.745,0,0,1,1.2,3.011,2.808,2.808,0,0,1-2.53,2.292,2.99,2.99,0,0,1-3.214-1.86" transform="translate(-265.838 -124.762)" fill="#965225"/>
        <path id="Trazado_130360" data-name="Trazado 130360" d="M168.318,117.74c.1,1.122,1.082,1.93,1.092,3.084-1.656.572-2.866,2.465-4.355,2.531-1.507.066-2.577-2.008-4.133-2.8-1.257-.639-2.644-.892-3.863-1.577-3.78-13.306-.845-24.876,9.211-34.418A30.315,30.315,0,0,1,180.53,77.1c1.3-.3,1.579.13,1.574,1.3q-.038,9.222,0,18.445a2.272,2.272,0,0,1-.652,1.727c-2.9,2.958-3.862,6.644-3.944,10.651-3.658.185-6.778,2.057-10.115,3.243-.876.311-.8,1-.495,1.735.494,1.171.951,2.358,1.423,3.538" transform="translate(-95.485 -47.297)" fill="#e4281a"/>
        <path id="Trazado_130361" data-name="Trazado 130361" d="M115.584,172.869c-.892.18-1.607.557-1.527,1.621.4,5.26-.3,10.631,1.578,15.743a3.557,3.557,0,0,1-.256,2.981c-.677.469-1.128-.035-1.432-.468a22.286,22.286,0,0,1-3.959-8.992.624.624,0,0,1,.082-.168c2.763-3.087,2.554-4.062-1.254-5.827a1.35,1.35,0,0,1-.544-.515c-.554-2.961-1.553-5.9-.37-8.933l-.015-.029c1.35-1.852,3.447-2.454,5.434-3.229.867-.338,1.266.188,1.483.94a24.22,24.22,0,0,0,.78,6.876" transform="translate(-65.929 -101.305)" fill="#d21e1a"/>
        <path id="Trazado_130362" data-name="Trazado 130362" d="M262.014,79.2c-.827,2.021-2.691,3.195-4.045,4.769-1.767,2.055-3.329,4.346-5.56,5.983-.006-4.079.007-8.159-.032-12.238-.012-1.18.1-1.693,1.593-1.346a31.574,31.574,0,0,1,8.044,2.832" transform="translate(-155 -46.835)" fill="#e4281a"/>
        <path id="Trazado_130363" data-name="Trazado 130363" d="M115.66,148.489c-.5-.938-1.262-.655-1.92-.33-1.685.832-3.334,1.741-5,2.618a55.5,55.5,0,0,1,1.882-10.822c.175-.605.289-1.229.431-1.844a18.023,18.023,0,0,1,5.354-1.664c-.524,4-1.462,7.968-.75,12.041" transform="translate(-66.786 -83.801)" fill="#ee4b30"/>
        <path id="Trazado_130364" data-name="Trazado 130364" d="M84.817,173.664a53.4,53.4,0,0,0,.758,9.172c-.071.49-.472.728-.781,1.043-1.784,1.825-1.271,3.892,1.156,4.652.418.131.894.123,1.167.554a38.167,38.167,0,0,0,3.7,8.187,3.475,3.475,0,0,0,1.284,1.382,8.471,8.471,0,0,1,0,5.4c-2.538,2.322-4.64,5.047-6.961,7.569-2.842,3.089-5.616,6.239-8.419,9.363-.125,0-.249-.01-.373-.018a42.014,42.014,0,0,1-5.247-10.8,31.9,31.9,0,0,1,3.508-26.084,32.32,32.32,0,0,1,10.211-10.425" transform="translate(-42.845 -106.658)" fill="#e4281a"/>
        <path id="Trazado_130365" data-name="Trazado 130365" d="M127.292,238.949c-.1-1.8-.458-3.6,0-5.4q.223-1.534.448-3.069a18.183,18.183,0,0,0,3.809,5.149c.4.352.964.688.474,1.406-1.506,2.207-1.951,4.763-2.357,7.328-1.5-1.492-1.829-3.5-2.378-5.413" transform="translate(-78.04 -141.552)" fill="#ee4b30"/>
        <path id="Trazado_130366" data-name="Trazado 130366" d="M196.127,115.2a3.181,3.181,0,1,1-3.234-3.208,3.571,3.571,0,0,1,3.234,3.208" transform="translate(-116.547 -68.782)" fill="#e2b160"/>
        <path id="Trazado_130367" data-name="Trazado 130367" d="M182.229,155.87a3.049,3.049,0,0,1-3.237-3.076,3.169,3.169,0,0,1,6.337.027,3.138,3.138,0,0,1-3.1,3.05" transform="translate(-109.93 -91.924)" fill="#e2b160"/>
        <path id="Trazado_130368" data-name="Trazado 130368" d="M108.434,203.679c-1.795.124-3.331-.316-3.831-2.256-.512-1.988.494-3.253,2.289-3.994,1.9-.064,3.308.7,3.708,2.616.368,1.758-.63,2.906-2.166,3.634" transform="translate(-64.162 -121.251)" fill="#e2b160"/>
        <path id="Trazado_130369" data-name="Trazado 130369" d="M96.883,235.319a3.005,3.005,0,0,1,3.015,3.049,3.267,3.267,0,0,1-3.22,3.148,3.078,3.078,0,0,1-2.959-3.338,2.927,2.927,0,0,1,3.163-2.86" transform="translate(-57.557 -144.524)" fill="#e2b160"/>
      </g>
    </g>
  </g>
</svg>
