<svg xmlns="http://www.w3.org/2000/svg" xmlns:xlink="http://www.w3.org/1999/xlink" width="118.076" height="118.076" viewBox="0 0 118.076 118.076">
  <defs>
    <clipPath id="clip-path">
      <rect id="Rectángulo_37517" data-name="Rectángulo 37517" width="63.447" height="81.21" fill="none"/>
    </clipPath>
  </defs>
  <g id="Grupo_157298" data-name="Grupo 157298" transform="translate(0 -0.002)">
    <circle id="Elipse_4823" data-name="Elipse 4823" cx="59.038" cy="59.038" r="59.038" transform="translate(0 0.002)" fill="#ff9fa3"/>
    <g id="Grupo_157929" data-name="Grupo 157929" transform="translate(27 18.003)">
      <g id="Grupo_157929-2" data-name="Grupo 157929" clip-path="url(#clip-path)">
        <path id="Trazado_130654" data-name="Trazado 130654" d="M5.45,43.168C4.184,43.1,4.167,43.1,4.187,41.8a62.144,62.144,0,0,1,.283-8.536,25.408,25.408,0,0,1,6.781-13.9,1.818,1.818,0,0,0,.558-1.38c-.022-4.91.027-9.82-.036-14.729A3.065,3.065,0,0,1,13.7,0H27.815a2.621,2.621,0,0,1,2.123,2.664c.1.929.1.926,1.06.924,1.605,0,3.211-.036,4.815.015.673.022.983-.176.981-.861a3.5,3.5,0,0,1,.437-1.583A2.3,2.3,0,0,1,38.916,0H53.032a3.091,3.091,0,0,1,1.926,3.255c-.062,4.936-.018,9.873-.031,14.809a1.545,1.545,0,0,0,.453,1.181A25.334,25.334,0,0,1,62.539,36.9c.047,3.457-.021,6.916.03,10.374.012.8-.186,1.1-.974.952a1.234,1.234,0,0,0-.314.022c-1.072.425-1.495.167-1.5-.969-.019-2.928-.044-5.857,0-8.783A25.8,25.8,0,0,0,56.928,25.9,19.276,19.276,0,0,0,39.46,15.466q-6.088.031-12.172,0A18.73,18.73,0,0,0,16.113,18.8a19.338,19.338,0,0,0-6.3,7.07A25.42,25.42,0,0,0,6.95,38.393c.024,1.266.016,2.535,0,3.8-.016,1.148-.413,1.4-1.5.974" transform="translate(-1.646)"/>
        <path id="Trazado_130655" data-name="Trazado 130655" d="M59.635,63.76c.792.008,1.585.01,2.376.027a1.28,1.28,0,0,1,1.423,1.42c0,7.638.033,15.277-.018,22.914a6.285,6.285,0,0,1-6.091,6.111c-.264.009-.528.006-.792.006H6.9c-4.281,0-6.9-2.625-6.9-6.911q0-10.9,0-21.8c0-1.348.391-1.733,1.744-1.739.686,0,1.373-.016,2.059-.025a2.077,2.077,0,0,1,1.3-.21c.931-.025,1-.07,1-.99.008-3.111-.015-6.222.009-9.332A36.693,36.693,0,0,1,6.353,47a17.416,17.416,0,0,1,2.638-6.553,16.97,16.97,0,0,1,12.535-7.3,10.238,10.238,0,0,1,1.029-.031c6.106,0,12.212-.058,18.316.019a15.853,15.853,0,0,1,11.219,4.634,19.4,19.4,0,0,1,2.354,2.675,17.106,17.106,0,0,1,2.893,9.546c-.018,4.14-.006,8.28,0,12.42,0,1.12.019,1.128,1.158,1.148a1.755,1.755,0,0,1,1.142.21" transform="translate(0 -13.03)"/>
        <path id="Trazado_130656" data-name="Trazado 130656" d="M11.684,44.118A17.078,17.078,0,0,0,8.9,51.837c-.052.577-.084,1.157-.085,1.736-.007,4.377-.016,8.755.01,13.133,0,.59-.139.794-.738.735s-1.211-.028-1.817-.037V64.917c.045-.065.1-.144.172-.148.8-.046.829-.561.906-1.221.108-.923-.6-.928-1.078-1.22V59.841c1.271-.065,1.263-.065,1.273-1.379.022-3.075-.169-6.161.474-9.2a21.807,21.807,0,0,1,2.525-6.916,17.919,17.919,0,0,1,1.137,1.777" transform="translate(-2.471 -16.673)" fill="#dc923c"/>
        <path id="Trazado_130657" data-name="Trazado 130657" d="M94.858,67.4c-.813-.007-1.847.285-2.376-.106-.508-.375-.152-1.474-.156-2.253-.018-3.3-.09-6.594.013-9.887a18.389,18.389,0,0,0-2.891-11.037,14.249,14.249,0,0,1,1.14-1.783,21.528,21.528,0,0,1,2.678,7.858c.6,3.851.219,7.734.318,11.6a21.4,21.4,0,0,1-.012,2.291c-.053.66.151.923.814.809a2.175,2.175,0,0,1,.472.021V67.4" transform="translate(-35.223 -16.671)" fill="#dc923c"/>
        <path id="Trazado_130658" data-name="Trazado 130658" d="M5.452,75.312c1.271.065,1.271.065,1.271,1.373,0,1.151,0,1.151-1.271,1.215-1.266-.065-1.266-.065-1.266-1.333,0-1.19,0-1.19,1.266-1.255" transform="translate(-1.648 -29.656)"/>
        <path id="Trazado_130659" data-name="Trazado 130659" d="M60.611,35.573a2.907,2.907,0,0,1-1.14,1.783,16.891,16.891,0,0,0-8.792-6.414,16.7,16.7,0,0,0-4.913-.732c-5.84,0-11.681-.025-17.52.009a16.3,16.3,0,0,0-13.53,6.841c-.078.1-.17.2-.256.295-.718-.376-.871-1.113-1.138-1.777a19.19,19.19,0,0,1,8.824-8.514,18.617,18.617,0,0,1,8.474-1.9c-.005.37-.33.52-.53.752a1.625,1.625,0,0,0,.856,2.727,4.123,4.123,0,0,0,1.025.074q4.995,0,9.99,0a4.128,4.128,0,0,0,1.026-.074,1.624,1.624,0,0,0,.855-2.727c-.2-.232-.524-.382-.53-.752a19.2,19.2,0,0,1,15.619,7.749,12.2,12.2,0,0,1,1.682,2.659" transform="translate(-5.246 -9.909)" fill="#f1a042"/>
        <path id="Trazado_130660" data-name="Trazado 130660" d="M63.184,7.2A2.185,2.185,0,0,1,62.4,4.428c.1-.291.308-.242.5-.242,3.056,0,6.112,0,9.168-.01.392,0,.5.131.458.51q-.566,4.74-1.111,9.483c-.25.2-.508.08-.748,0a18.889,18.889,0,0,0-3.529-.843c-.926-.132-.995-.219-.984-1.179a5.579,5.579,0,0,0-1.042-3.336A7.536,7.536,0,0,0,63.184,7.2" transform="translate(-24.495 -1.644)" fill="#303030"/>
        <path id="Trazado_130661" data-name="Trazado 130661" d="M26.518,14.169q-.552-4.744-1.109-9.486c-.047-.387.072-.507.458-.506q4.586.017,9.172,0c.373,0,.53.119.515.493a1.581,1.581,0,0,0,.065.468A1.532,1.532,0,0,1,34.753,7.2a5.347,5.347,0,0,0-2.976,5.176c.019.465-.121.83-.669.9a18.92,18.92,0,0,0-3.994.934.543.543,0,0,1-.6-.042" transform="translate(-10.002 -1.645)" fill="#303030"/>
        <path id="Trazado_130662" data-name="Trazado 130662" d="M53.718,25.166a3.147,3.147,0,0,1,1.094,1.112,1.888,1.888,0,0,1-1.77,2.656c-3.779.026-7.559.013-11.339.005a1.859,1.859,0,0,1-1.783-1.208,1.665,1.665,0,0,1,.5-2.064c.2-.173.4-.335.606-.5H53.718" transform="translate(-15.654 -9.91)" fill="#febd4f"/>
        <path id="Trazado_130663" data-name="Trazado 130663" d="M53.3,14.74a2.752,2.752,0,0,0-3.249-3.026,23.715,23.715,0,0,1-3.718,0,2.742,2.742,0,0,0-3.244,3.027c-.284.818-.492.953-1.212.79a4.619,4.619,0,0,1,1-3.849,3.777,3.777,0,0,1,2.82-1.217c1.637,0,3.274-.007,4.911,0a3.8,3.8,0,0,1,3.927,3.958c0,.369-.015.738-.024,1.108-.72.163-.928.028-1.213-.791" transform="translate(-16.475 -4.119)" fill="#dc923c"/>
        <path id="Trazado_130664" data-name="Trazado 130664" d="M27.233,16.135a19.57,19.57,0,0,1,4.586-1.094c.549-.042.476-.389.464-.721a5.569,5.569,0,0,1,1.047-3.637,3.874,3.874,0,0,1,2.139-1.516,7.513,7.513,0,0,0-1.9,6.278c.072.809-.227,1.093-.995,1.174a17.7,17.7,0,0,0-4.63,1.234c-.463.182-.606.1-.586-.39a9.517,9.517,0,0,1-.125-1.329" transform="translate(-10.717 -3.61)" fill="#121212"/>
        <path id="Trazado_130665" data-name="Trazado 130665" d="M63.821,9.165A4.8,4.8,0,0,1,67,13.612c.028,1.469.028,1.457,1.482,1.579a19.94,19.94,0,0,1,3.573.943c-.055.6-.109,1.2-.169,1.87a34.328,34.328,0,0,0-4.519-1.3c-1.642-.306-1.7-.339-1.62-2.024a7.243,7.243,0,0,0-1.927-5.511" transform="translate(-25.132 -3.609)" fill="#121212"/>
        <path id="Trazado_130666" data-name="Trazado 130666" d="M20.971,7.936V4.413l.108-.008q.329,2.842.657,5.685c.252,2.216.476,4.436.76,6.647.072.561-.1.851-.6,1a5.914,5.914,0,0,1-.389-2.23c-.293-2.515-.375-5.046-.533-7.572" transform="translate(-8.258 -1.735)" fill="#234274"/>
        <path id="Trazado_130667" data-name="Trazado 130667" d="M81.761,17.745c-.562-.162-.659-.507-.583-1.078.282-2.133.5-4.274.737-6.411.219-1.948.437-3.895.769-5.834V7.944c-.163,1.943-.154,3.9-.37,5.837-.126,1.128-.189,2.262-.33,3.389a.817.817,0,0,1-.223.575" transform="translate(-31.957 -1.741)" fill="#234173"/>
        <path id="Trazado_130668" data-name="Trazado 130668" d="M82.154,20.033c.056-1.7.257-3.383.439-5.07.146-1.35.235-2.707.35-4.06.019-.229-.07-.48.133-.671V20.549c-.391-.043-.63-.335-.923-.516" transform="translate(-32.351 -4.029)" fill="#355486"/>
        <path id="Trazado_130669" data-name="Trazado 130669" d="M20.971,10.23a3.626,3.626,0,0,1,.236,1.6c.289,2.727.469,5.465.686,8.2l-.923.63Z" transform="translate(-8.258 -4.028)" fill="#355486"/>
        <path id="Trazado_130670" data-name="Trazado 130670" d="M60.716,17.52a1.373,1.373,0,0,0,1.213.791c.008.209,0,.419.028.625.069.5-.119.669-.641.672s-.68-.187-.638-.68c.041-.467.027-.938.037-1.408" transform="translate(-23.892 -6.899)" fill="#af582a"/>
        <path id="Trazado_130671" data-name="Trazado 130671" d="M41.878,18.311a1.373,1.373,0,0,0,1.212-.79c.01.391.033.782.028,1.173-.006.432.183.921-.628.922s-.628-.475-.635-.915c0-.13.015-.26.023-.39" transform="translate(-16.477 -6.899)" fill="#af582a"/>
        <path id="Trazado_130672" data-name="Trazado 130672" d="M34.313,39.607q.013,2.411.026,4.821c.008,1.082.412,1.508,1.462,1.514q2.332.015,4.664,0c1.023-.007,1.476-.473,1.484-1.514.014-1.607.019-3.214.027-4.821a.762.762,0,0,1,.577-.221,44.756,44.756,0,0,1,6.331.136A12.852,12.852,0,0,1,59.943,52.5q0,5.908,0,11.815a2.853,2.853,0,0,1-3.05,2.855,7.039,7.039,0,0,0-3.374-.68q-15.251.031-30.5,0a7.217,7.217,0,0,0-3.605.689,3.83,3.83,0,0,1-2.851-1.465,1.255,1.255,0,0,1-.21-.908c-.008-4.407-.084-8.816.018-13.22a12.907,12.907,0,0,1,9.955-11.872c2.48-.564,4.992-.282,7.492-.318a.678.678,0,0,1,.5.213" transform="translate(-6.425 -15.491)" fill="#303030"/>
        <path id="Trazado_130673" data-name="Trazado 130673" d="M56.346,66.383a5.513,5.513,0,0,0,2.429-1.242.881.881,0,0,0,.273-.787c0-4.518.089-9.037-.037-13.552a11.812,11.812,0,0,0-3-7.386,12.4,12.4,0,0,0-8.523-4.43c-2.04-.2-4.117-.038-6.177-.038-.007-.079-.019-.158-.021-.236-.024-1.038-.022-1.061.984-1.035a40.82,40.82,0,0,1,7.028.3A14.068,14.068,0,0,1,60.18,49.78a21.925,21.925,0,0,1,.133,2.527q0,20.142.014,40.282c0,.687-.125.935-.889.934q-21.963-.039-43.925-.005c-.663,0-.894-.116-.893-.851q.038-20.616.023-41.234A13.963,13.963,0,0,1,26.669,37.818c2.161-.282,4.327-.068,6.49-.148.361-.014.55.095.514.487-.024.262-.019.527-.027.791-1.928,0-3.863-.105-5.783.018a12.364,12.364,0,0,0-7.414,2.95,12.692,12.692,0,0,0-4.288,7.172,9.852,9.852,0,0,0-.241,2.027c-.022,4.253.012,8.506-.032,12.76a1.659,1.659,0,0,0,.861,1.686,4.931,4.931,0,0,0,1.857.822c.075.368-.193.583-.384.824a3.671,3.671,0,0,0-.8,2.346q0,8.738,0,17.476a3.585,3.585,0,0,0,.874,2.4,2.532,2.532,0,0,1,.486.717,2.459,2.459,0,0,0,2.405,1.832c.264.022.529.013.793.013h31a8.286,8.286,0,0,0,.951-.024,2.371,2.371,0,0,0,2.245-1.807,2.352,2.352,0,0,1,.481-.719,3.657,3.657,0,0,0,.886-2.475q0-8.664,0-17.329a3.767,3.767,0,0,0-.854-2.489c-.18-.219-.409-.428-.337-.763" transform="translate(-5.757 -14.832)" fill="#121212"/>
        <path id="Trazado_130674" data-name="Trazado 130674" d="M96.116,100.428c.813-.023,1.848-.341,2.373.1.5.422.15,1.487.151,2.267.006,3.851-.013,7.7-.022,11.554a1.922,1.922,0,0,1-2.67-1.358,4.4,4.4,0,0,1-.087-1.1q0-5.133,0-10.266a1.579,1.579,0,0,1,.252-1.2" transform="translate(-37.747 -39.495)" fill="#dc923c"/>
        <path id="Trazado_130675" data-name="Trazado 130675" d="M4.211,114.416q-.015-6.726-.035-13.453c0-.365.089-.523.482-.5.684.034,1.371.024,2.056.033a1.241,1.241,0,0,1,.251.964c.007,3.606.017,7.212,0,10.817a2.187,2.187,0,0,1-1.708,2.336,1.1,1.1,0,0,1-1.041-.193" transform="translate(-1.644 -39.558)" fill="#dc923c"/>
        <path id="Trazado_130676" data-name="Trazado 130676" d="M95.448,100.5c0,3.823.059,7.647-.036,11.468-.039,1.6.823,2.683,2.538,2.456a3.8,3.8,0,0,1-3.1,3.766c-.513.107-.693-.005-.687-.568.027-2.616.012-5.232.012-7.849v-8.087c0-1.251,0-1.251,1.274-1.186" transform="translate(-37.079 -39.566)" fill="#bc731c"/>
        <path id="Trazado_130677" data-name="Trazado 130677" d="M4.234,114.419c1.588.244,2.573-.721,2.534-2.456-.085-3.821-.03-7.645-.032-11.468a1.549,1.549,0,0,1,.157-.021c1.117-.032,1.117-.032,1.118,1.049q0,7.928,0,15.856c0,.979,0,.981-.978.71a3.718,3.718,0,0,1-2.8-3.671" transform="translate(-1.667 -39.562)" fill="#bc731c"/>
        <path id="Trazado_130678" data-name="Trazado 130678" d="M50.186,40.122c0-.29-.017-.583,0-.872.038-.518-.25-1.3.116-1.5.62-.334,1.437-.094,2.171-.105.277,0,.244.222.245.4,0,1.426,0,2.853,0,4.279,0,.252-.064.412-.352.385a1.07,1.07,0,0,0-.159,0c-2.029.1-2.029.1-2.029-1.876v-.714" transform="translate(-19.735 -14.796)" fill="#dc923c"/>
        <path id="Trazado_130679" data-name="Trazado 130679" d="M6.694,87.935c.052-.005.1-.015.157-.016,1.123-.032,1.123-.032,1.123,1.054,0,1.157-.013,2.315.007,3.472.007.407-.129.563-.544.55A22.317,22.317,0,0,0,5.07,93c-.714.055-1.034-.162-.9-.9a3.523,3.523,0,0,0,.025-.393,1.039,1.039,0,0,1,.335-.2c1.545-.6,1.915-1.114,1.971-2.747a1.156,1.156,0,0,1,.2-.823" transform="translate(-1.629 -34.617)" fill="#0d0d0d"/>
        <path id="Trazado_130680" data-name="Trazado 130680" d="M97.953,91.688c.005.052.015.1.017.157.033,1.123.033,1.123-1.053,1.123-.737,0-1.474-.018-2.209.006-.416.014-.55-.142-.544-.549.019-1.21.048-2.422-.009-3.629-.034-.712.164-1.035.9-.9a3.386,3.386,0,0,0,.393.024,1.266,1.266,0,0,1,.2.9,2.411,2.411,0,0,0,1.9,2.642,1.111,1.111,0,0,1,.41.229" transform="translate(-37.075 -34.599)" fill="#0d0d0d"/>
        <path id="Trazado_130681" data-name="Trazado 130681" d="M6.709,87.932c0,1.044.184,2.119-.68,2.979a2.433,2.433,0,0,1-1.822.794c-.008-1.1-.005-2.2-.03-3.3-.008-.368.109-.517.49-.5.68.028,1.361.021,2.042.028" transform="translate(-1.645 -34.614)" fill="#303030"/>
        <path id="Trazado_130682" data-name="Trazado 130682" d="M98.789,91.64a2.481,2.481,0,0,1-2.512-2.584c0-.4.006-.792.01-1.188.807-.015,1.83-.337,2.36.107.509.427.124,1.477.161,2.252.022.469-.01.942-.018,1.413" transform="translate(-37.912 -34.551)" fill="#303030"/>
        <path id="Trazado_130683" data-name="Trazado 130683" d="M20.251,108.3A4.693,4.693,0,0,1,18.8,104.53q.073-8.123,0-16.247a4.7,4.7,0,0,1,1.448-3.771,5.117,5.117,0,0,1,2.995-.806q15.956.031,31.912,0a4.86,4.86,0,0,1,2.835.805,4.68,4.68,0,0,1,1.45,3.769q-.073,8.123,0,16.247A4.694,4.694,0,0,1,58,108.3a1.533,1.533,0,0,1-.957.772,5.289,5.289,0,0,1-1.868.278q-16.041,0-32.082,0A5.043,5.043,0,0,1,21.3,109.1a1.82,1.82,0,0,1-1.045-.8" transform="translate(-7.404 -32.962)"/>
        <path id="Trazado_130684" data-name="Trazado 130684" d="M21.192,124.28a5.232,5.232,0,0,0,3.071.807q16-.035,32-.005a4.568,4.568,0,0,0,2.673-.8,2.37,2.37,0,0,1-2.575,2.06c-2.167.012-4.334,0-6.5,0q-12.964,0-25.927,0a2.48,2.48,0,0,1-2.74-2.062" transform="translate(-8.345 -48.939)" fill="#303030"/>
        <path id="Trazado_130685" data-name="Trazado 130685" d="M38.215,98.2c.067,1.268.067,1.268,1.4,1.268,6.042,0,12.084.012,18.127-.016.668,0,.826.179.817.83-.043,3.218-.033,6.437-.041,9.656a1.539,1.539,0,0,1-.9.84,5.074,5.074,0,0,1-2.17.365q-14.667-.006-29.336,0a5.071,5.071,0,0,1-2.169-.365,1.541,1.541,0,0,1-.9-.84c-.008-3.324-.006-6.648-.035-9.972,0-.546.3-.495.652-.5.373-.007.657-.011.637.518-.038,1.028-.019,2.058-.008,3.086a1.291,1.291,0,0,0,1.448,1.473c1.161.013,2.322.016,3.483,0a1.278,1.278,0,0,0,1.408-1.434c.019-1.635.021-3.271.029-4.906a3.525,3.525,0,0,1,2.447-.109.407.407,0,0,1,.216.312c.015.754.467.86,1.1.854.617-.005,1.1-.061,1.123-.831a.443.443,0,0,1,.206-.324,3.438,3.438,0,0,1,2.465.1" transform="translate(-9.059 -38.559)" fill="#c46532"/>
        <path id="Trazado_130686" data-name="Trazado 130686" d="M24.958,87.938c1-.008,2.007-.024,3.01-.024q14.506,0,29.012,0c.316,0,.633.016.949.024A2.845,2.845,0,0,1,55.9,91.9a7.241,7.241,0,0,1-1.185.064q-13.271,0-26.54,0a7.248,7.248,0,0,1-1.185-.064,2.845,2.845,0,0,1-2.031-3.966" transform="translate(-9.724 -34.618)" fill="#f1a042"/>
        <path id="Trazado_130687" data-name="Trazado 130687" d="M24.291,87.954c0,1.071-.179,2.172.74,3.036a2.5,2.5,0,0,0,1.77.743q13.976,0,27.953,0a2.481,2.481,0,0,0,2.515-2.51c.009-.422,0-.844-.006-1.267.908.142,1.259.509,1.273,1.385.016.977-.032,1.955.017,2.929.03.584-.13.76-.735.752C55.126,92.984,52.435,93,49.744,93H39.612c-1.331,0-1.331,0-1.4,1.269H35.728c-.064-.044-.144-.1-.148-.172-.047-.8-.563-.827-1.221-.9-.921-.108-.928.6-1.221,1.076H30.653c-.27-1-.592-1.265-1.6-1.268-1.8,0-3.593-.021-5.389.01-.522.008-.68-.147-.66-.664.039-1,0-2.008.015-3.011.013-.878.363-1.245,1.273-1.387" transform="translate(-9.058 -34.635)" fill="#bc731c"/>
        <path id="Trazado_130688" data-name="Trazado 130688" d="M23.053,117.741a4.427,4.427,0,0,0,2.925.963q14.812-.031,29.625,0a4.433,4.433,0,0,0,2.925-.962c.008.263.029.527.023.79a1.28,1.28,0,0,1-1.415,1.425c-1,.016-2.005,0-3.008,0H25.156c-1.916,0-2.2-.3-2.1-2.219" transform="translate(-9.071 -46.364)" fill="#af582a"/>
        <path id="Trazado_130689" data-name="Trazado 130689" d="M30.559,101.76c0,.184-.015.369,0,.55.043.454-.03.709-.609.71s-.72-.213-.67-.733a6.123,6.123,0,0,0,0-1.178c-.05-.514.133-.679.654-.666.457.012.7.1.628.609a5.293,5.293,0,0,0-.005.707" transform="translate(-11.527 -39.553)" fill="#303030"/>
        <path id="Trazado_130690" data-name="Trazado 130690" d="M39.722,97.554c.068-1.269.068-1.269,1.374-1.269,1.149,0,1.149,0,1.217,1.269-.067,1.268-.067,1.268-1.374,1.268-1.149,0-1.149,0-1.217-1.268" transform="translate(-15.642 -37.915)"/>
      </g>
    </g>
  </g>
</svg>
