<svg xmlns="http://www.w3.org/2000/svg" xmlns:xlink="http://www.w3.org/1999/xlink" width="155" height="98" viewBox="0 0 155 98">
  <defs>
    <clipPath id="clip-path">
      <rect id="Rect치ngulo_37367" data-name="Rect치ngulo 37367" width="74.51" height="89.257" fill="none"/>
    </clipPath>
  </defs>
  <g id="Grupo_157538" data-name="Grupo 157538" transform="translate(-3339 6634)">
    <rect id="Rect치ngulo_36140" data-name="Rect치ngulo 36140" width="155" height="98" transform="translate(3339 -6634)" fill="#e1e8ff"/>
    <g id="Grupo_157537" data-name="Grupo 157537" transform="translate(3379 -6630)">
      <g id="Grupo_157536" data-name="Grupo 157536" clip-path="url(#clip-path)">
        <path id="Trazado_128733" data-name="Trazado 128733" d="M15.271,164.908a31.906,31.906,0,0,1-1.362-9.7c.15-3.861,1.083-7.482,3.757-10.422a13.039,13.039,0,0,1,12.163-4.314c.143.021.288.033.433.049.012.108.024.216.036.323a12.471,12.471,0,0,0,.118,2.419,6.434,6.434,0,0,0,8.946,5.128c2.961-1.271,4.167-3.684,3.97-6.85l.05-.717A12.915,12.915,0,0,1,49.1,144.3c3.175,3.378,4.215,7.536,4.169,12.052,0,.347-.106.494-.487.547-1.109.156-1.428.551-1.431,1.662-.005,2.116,0,4.232,0,6.347H22.418c0-2.112,0-4.225-.015-6.337-.008-1.075-.577-1.714-1.443-1.683s-1.325.617-1.328,1.683c-.005,2.112,0,4.225,0,6.337Z" transform="translate(-7.491 -75.652)" fill="#bbd051"/>
        <path id="Trazado_128734" data-name="Trazado 128734" d="M85.849,164.842c0-2.116,0-4.232,0-6.347,0-1.111.322-1.505,1.431-1.662.38-.053.483-.2.487-.547.045-4.515-.994-8.674-4.169-12.052a12.914,12.914,0,0,0-5.72-3.474.428.428,0,0,1,0-.149l.125-.157c7.039-1.441,13.8,2.957,15.674,10.227,1.128,4.362.636,8.683-.41,12.982-.1.392-.18.786-.27,1.179H88.637c0-1.973.017-3.946-.01-5.918a1.864,1.864,0,0,0-.789-1.848c-.206,1.419-.427,2.723-.576,4.037-.144,1.264-.694,2.446-.717,3.73Z" transform="translate(-41.987 -75.585)" fill="#8d9f26"/>
        <path id="Trazado_128735" data-name="Trazado 128735" d="M26.342,184.313q0-3.169,0-6.337c0-1.066.471-1.652,1.328-1.683s1.434.608,1.443,1.683c.017,2.112.011,4.225.014,6.337Z" transform="translate(-14.203 -95.056)" fill="#8ea026"/>
        <path id="Trazado_128736" data-name="Trazado 128736" d="M96.7,184.61c.023-1.284.572-2.466.716-3.73.149-1.313.371-2.618.577-4.037a1.864,1.864,0,0,1,.788,1.848c.026,1.972.009,3.945.01,5.918Z" transform="translate(-52.139 -95.354)" fill="#828d1f"/>
        <path id="Trazado_128737" data-name="Trazado 128737" d="M24.515,83.043c-1.23-.293-2.472-.544-3.687-.886a17.078,17.078,0,0,1-8.155-4.4A7.213,7.213,0,0,1,10.544,72.5a31.145,31.145,0,0,1,.132-4.514c.1-.607-.233-.661-.707-.652a7.421,7.421,0,0,1-3.811-.6,5.537,5.537,0,0,1-2.846-6.072A5.458,5.458,0,0,1,8.6,56.352l.7-.01q.744,2.906,1.488,5.812c.3-1.527.452-3.047.616-4.565a60.43,60.43,0,0,1,2.119-11.433c1.547-5,5.391-6.63,9.991-4.229,1.336.7,2.631,1.479,3.985,2.14a7.463,7.463,0,0,0,4.8.778,13.427,13.427,0,0,0,3.865-1.526,28.851,28.851,0,0,1,4.166-2.153,5.984,5.984,0,0,1,2.293,2.193c1.722,2.932,2.136,6.222,2.423,9.533a1.434,1.434,0,0,0-1.632-.107,4.8,4.8,0,0,1-5.332-.008,1.294,1.294,0,0,0-1.819.447,1.317,1.317,0,0,0,.355,1.781,7.152,7.152,0,0,0,8.759-.449c.462,3.116.662,6.261.851,9.4.17,2.833.232,5.676.24,8.52a8.375,8.375,0,0,1-3.6,6.985c-3.486,2.638-7.593,3.59-11.866,3.911a37.742,37.742,0,0,1-6.492-.329m11.7-13.861a6.445,6.445,0,0,0-4.422,1.666c-.752.678-.855,1.415-.308,2.05s1.266.629,2.067-.006a3.749,3.749,0,0,1,5.2.037,1.353,1.353,0,0,0,2.01,0,1.391,1.391,0,0,0-.264-2.061,6.3,6.3,0,0,0-4.279-1.689M21.352,52.552a7.351,7.351,0,0,0-3.922,1.154,1.351,1.351,0,0,0-.56,1.93,1.365,1.365,0,0,0,1.977.36,4.737,4.737,0,0,1,5.031-.012,1.363,1.363,0,1,0,1.385-2.321,7.557,7.557,0,0,0-3.911-1.111M42.241,60.04h0c0-.377.027-.758-.006-1.132A1.339,1.339,0,0,0,40.87,57.6a1.289,1.289,0,0,0-1.325,1.251,13.069,13.069,0,0,0,0,2.263,1.36,1.36,0,0,0,1.4,1.28A1.4,1.4,0,0,0,42.237,61c.022-.318,0-.639,0-.958m-19.666-.027h0a11.9,11.9,0,0,0-.007-1.217,1.316,1.316,0,0,0-2.62-.006,17.782,17.782,0,0,0,.007,2.433,1.2,1.2,0,0,0,1.3,1.149,1.224,1.224,0,0,0,1.308-1.144,9.815,9.815,0,0,0,.009-1.216" transform="translate(-1.711 -22.019)" fill="#f5ba92"/>
        <path id="Trazado_128738" data-name="Trazado 128738" d="M38.622,19.165a28.9,28.9,0,0,0-4.167,2.153,13.407,13.407,0,0,1-3.865,1.526,7.463,7.463,0,0,1-4.8-.778c-1.354-.66-2.648-1.442-3.985-2.14-4.6-2.4-8.445-.77-9.992,4.229A60.43,60.43,0,0,0,9.69,35.588c-.165,1.518-.312,3.038-.616,4.564q-.744-2.905-1.488-5.811-1.01-4.178-2.015-8.356a1.276,1.276,0,0,0-.4-.65,16.8,16.8,0,0,1-4.84-9.8A22.746,22.746,0,0,1,1.691,2.984c.8-1.952,1.851-2.24,3.556-1.03,2.591,1.84,5.52,2.1,8.562,1.814,3.18-.3,6.1-1.588,9.124-2.455A31.625,31.625,0,0,1,31.327.032a1.193,1.193,0,0,0,.308.134,24.076,24.076,0,0,1,8.974,2.753c2.284,1.291,4.471,2.717,5.5,5.315a.474.474,0,0,0,.455.315,5.926,5.926,0,0,1,3.221,1.568,13.155,13.155,0,0,0,.159,9.422,1.611,1.611,0,0,0-.271.425c-.616,2.476-1.219,4.955-1.825,7.434-.233-.858-.468-1.715-.7-2.574a8.492,8.492,0,0,0-3.6-5.325,4.811,4.811,0,0,0-4.932-.335" transform="translate(0 -0.017)" fill="#52668d"/>
        <path id="Trazado_128739" data-name="Trazado 128739" d="M107.278,21.775a13.161,13.161,0,0,1-.159-9.423l1.4-2.758a17.591,17.591,0,0,1,3.826-3.475,13.109,13.109,0,0,1,6.121-1.94,2.178,2.178,0,0,0,.518.295A9.921,9.921,0,0,1,125.1,9.016a14.3,14.3,0,0,1,2.028,10.578c-.654,3.54-2.244,6.6-5.405,8.549-1.253.774-2.572,1.384-3.174,2.849-.02.05-.082.081-.118.126a8.7,8.7,0,0,1-3.839,2.705c-.521-.378-.392-.761-.018-1.158a12.038,12.038,0,0,0,1.836-2.514c.251-.461.3-.751-.353-.89a12.589,12.589,0,0,1-4.548-2.067,13.627,13.627,0,0,1-4.228-5.42m9.775-2.935h-.007c0,.319-.005.639,0,.958.018.985.534,1.6,1.334,1.6a1.334,1.334,0,0,0,1.307-1.6c-.09-1.049.181-1.5,1.306-1.758a4.687,4.687,0,0,0,3.478-4.835,4.87,4.87,0,0,0-9.327-1.694,1.408,1.408,0,0,0,.52,1.965,1.37,1.37,0,0,0,1.917-.792c.054-.1.1-.211.158-.311a2.148,2.148,0,0,1,2.465-1.005,2.178,2.178,0,0,1,1.553,2.169,2.074,2.074,0,0,1-1.749,1.988,9.687,9.687,0,0,1-1.036.107,2,2,0,0,0-1.914,1.9c-.031.434-.005.871-.005,1.307m2.653,4.879a1.332,1.332,0,1,0-2.658-.014,1.363,1.363,0,0,0,1.37,1.469,1.343,1.343,0,0,0,1.288-1.455" transform="translate(-57.33 -2.254)" fill="#7bcbf0"/>
        <path id="Trazado_128740" data-name="Trazado 128740" d="M65.268,40.934a4.811,4.811,0,0,1,4.932.335,8.492,8.492,0,0,1,3.6,5.325c.23.858.465,1.716.7,2.573a3.773,3.773,0,0,0,.037.518c.576,2.733.926,5.5,1.24,8.27a15.343,15.343,0,0,0,.469,3.556A2.093,2.093,0,0,0,76.1,62.6q.178,2.263.353,4.526c.044,1.276.04,2.555.14,3.827.336,4.257-1.785,7.049-5.313,9A24.267,24.267,0,0,1,63.405,82.6c-.685.114-.944.343-.9,1.046.058.985.022,1.975.025,2.963,0,.068,0,.137.005.206a.417.417,0,0,0,0,.149c-.016.239-.033.478-.05.717-.346.011-.694,0-1.037.036a35.693,35.693,0,0,1-8.006-.128c-1.336-.149-2.661-.4-3.991-.6l-.036-.323q.015-1.924.031-3.849a37.741,37.741,0,0,0,6.492.329c4.273-.321,8.379-1.273,11.865-3.912a8.374,8.374,0,0,0,3.6-6.985c-.007-2.844-.07-5.688-.24-8.52-.188-3.137-.388-6.282-.851-9.4a1.671,1.671,0,0,0-.331-1.664c-.287-3.311-.7-6.6-2.423-9.533a5.986,5.986,0,0,0-2.293-2.193" transform="translate(-26.646 -21.787)" fill="#e39775"/>
        <path id="Trazado_128741" data-name="Trazado 128741" d="M124.257,33.813a8.7,8.7,0,0,0,3.839-2.7c.036-.046.1-.077.118-.127.6-1.464,1.921-2.075,3.174-2.848,3.161-1.951,4.751-5.008,5.405-8.549a14.3,14.3,0,0,0-2.028-10.579,9.919,9.919,0,0,0-6.115-4.541,2.194,2.194,0,0,1-.518-.295,12.738,12.738,0,0,1,4.834,24.746,2.5,2.5,0,0,0-1.328,1.015,9.248,9.248,0,0,1-6.467,3.987c-.3.048-.635.146-.914-.106" transform="translate(-66.999 -2.244)" fill="#50acdb"/>
        <path id="Trazado_128742" data-name="Trazado 128742" d="M107.654,85.5q-.176-2.264-.353-4.527a2.084,2.084,0,0,1,.146-1.094l1.781-5.4a5.505,5.505,0,1,1,.6,10.992c-.725.012-1.451.017-2.176.025" transform="translate(-57.849 -40.158)" fill="#f5ba93"/>
        <path id="Trazado_128743" data-name="Trazado 128743" d="M107.371,57.17l-1.781,5.4a15.345,15.345,0,0,1-.469-3.556c-.314-2.773-.665-5.537-1.24-8.269a3.642,3.642,0,0,1-.037-.518c.606-2.478,1.209-4.957,1.825-7.434a1.617,1.617,0,0,1,.271-.425,13.622,13.622,0,0,0,4.227,5.42l-2.8,9.386" transform="translate(-55.992 -22.843)" fill="#263c5e"/>
        <path id="Trazado_128744" data-name="Trazado 128744" d="M87.842,7.341l-1.4,2.758a5.924,5.924,0,0,0-3.22-1.568.474.474,0,0,1-.455-.314c-1.034-2.6-3.221-4.024-5.5-5.315A24.085,24.085,0,0,0,68.291.148a1.186,1.186,0,0,1-.308-.134A28.157,28.157,0,0,1,85.135,4.679a10.172,10.172,0,0,1,2.706,2.662" transform="translate(-36.656 0)" fill="#273d5f"/>
        <path id="Trazado_128745" data-name="Trazado 128745" d="M77.874,140.874c0-.069,0-.137-.005-.206a.216.216,0,0,1,.131.049l-.126.157" transform="translate(-41.987 -75.848)" fill="#bbd051"/>
        <path id="Trazado_128746" data-name="Trazado 128746" d="M49.472,141.483c1.33.2,2.655.456,3.991.6a35.664,35.664,0,0,0,8.005.128c.343-.039.691-.025,1.037-.035.2,3.166-1.009,5.578-3.97,6.85A6.434,6.434,0,0,1,49.59,143.9a12.47,12.47,0,0,1-.118-2.419" transform="translate(-26.664 -76.287)" fill="#f5ba92"/>
        <path id="Trazado_128747" data-name="Trazado 128747" d="M68.936,102.348a6.3,6.3,0,0,1,4.279,1.689,1.391,1.391,0,0,1,.264,2.061,1.353,1.353,0,0,1-2.01,0,3.749,3.749,0,0,0-5.2-.038c-.8.636-1.521.639-2.067.007s-.444-1.372.308-2.05a6.445,6.445,0,0,1,4.422-1.666" transform="translate(-34.433 -55.186)" fill="#283d5e"/>
        <path id="Trazado_128748" data-name="Trazado 128748" d="M37.127,66.259a7.548,7.548,0,0,1,3.91,1.111,1.363,1.363,0,1,1-1.384,2.321,4.737,4.737,0,0,0-5.032.012,1.365,1.365,0,0,1-1.977-.359,1.351,1.351,0,0,1,.56-1.93,7.353,7.353,0,0,1,3.922-1.154" transform="translate(-17.486 -35.727)" fill="#283d5e"/>
        <path id="Trazado_128749" data-name="Trazado 128749" d="M83.527,66.627a1.67,1.67,0,0,1,.332,1.664,7.151,7.151,0,0,1-8.759.448,1.317,1.317,0,0,1-.355-1.781,1.293,1.293,0,0,1,1.818-.446,4.8,4.8,0,0,0,5.332.008,1.433,1.433,0,0,1,1.632.107" transform="translate(-40.19 -35.754)" fill="#283d5e"/>
        <path id="Trazado_128750" data-name="Trazado 128750" d="M84.741,79.649c0,.32.018.641,0,.958A1.4,1.4,0,0,1,83.439,82a1.359,1.359,0,0,1-1.4-1.28,13.106,13.106,0,0,1,0-2.263,1.29,1.29,0,0,1,1.325-1.251,1.338,1.338,0,0,1,1.361,1.311c.034.375.006.755.006,1.133h0" transform="translate(-44.211 -41.628)" fill="#283d5e"/>
        <path id="Trazado_128751" data-name="Trazado 128751" d="M42.163,79.622a9.815,9.815,0,0,1-.009,1.216,1.224,1.224,0,0,1-1.308,1.144,1.2,1.2,0,0,1-1.3-1.149A17.783,17.783,0,0,1,39.54,78.4a1.316,1.316,0,0,1,2.62.006,11.9,11.9,0,0,1,.007,1.217h0" transform="translate(-21.299 -41.628)" fill="#263c5e"/>
        <path id="Trazado_128752" data-name="Trazado 128752" d="M127.16,24c0-.436-.026-.873.005-1.307a2,2,0,0,1,1.914-1.9,9.687,9.687,0,0,0,1.036-.107,2.074,2.074,0,0,0,1.749-1.988,2.178,2.178,0,0,0-1.553-2.169,2.148,2.148,0,0,0-2.465,1.005c-.059.1-.1.208-.158.311a1.37,1.37,0,0,1-1.917.792,1.408,1.408,0,0,1-.52-1.965,4.87,4.87,0,0,1,9.327,1.694A4.687,4.687,0,0,1,131.1,23.2c-1.126.259-1.4.708-1.306,1.758a1.333,1.333,0,0,1-1.307,1.6c-.8,0-1.317-.617-1.334-1.6-.006-.319,0-.639,0-.958h.007" transform="translate(-67.438 -7.414)" fill="#253d5f"/>
        <path id="Trazado_128753" data-name="Trazado 128753" d="M132.251,44.921a1.343,1.343,0,0,1-1.288,1.455,1.44,1.44,0,0,1-.029-2.875,1.341,1.341,0,0,1,1.317,1.421" transform="translate(-69.876 -23.455)" fill="#273d5f"/>
      </g>
    </g>
  </g>
</svg>
