<svg xmlns="http://www.w3.org/2000/svg" width="159.736" height="191" viewBox="0 0 159.736 191">
  <g id="Grupo_157920" data-name="Grupo 157920" transform="translate(-1230 -4240)">
    <g id="Grupo_157917" data-name="Grupo 157917" transform="translate(1230 4240)">
      <g id="Grupo_87397" data-name="Grupo 87397">
        <path id="Rectángulo_34437" data-name="Rectángulo 34437" d="M0,0H82.736a77,77,0,0,1,77,77V191a0,0,0,0,1,0,0H0a0,0,0,0,1,0,0V0A0,0,0,0,1,0,0Z" fill="#c4d1ff"/>
      </g>
    </g>
    <g id="Grupo_157924" data-name="Grupo 157924" transform="translate(1244 4270)">
      <g id="Grupo_157925" data-name="Grupo 157925" transform="translate(-6.125 -6.117)">
        <path id="Trazado_130432" data-name="Trazado 130432" d="M67.839,0H76.25c2.542.222,5.1.19,7.636.48A56.677,56.677,0,0,1,97.26,3.949a70.736,70.736,0,0,1,22.266,13.223A72.391,72.391,0,0,1,143.079,58a62.334,62.334,0,0,1,.608,7.37,6.239,6.239,0,0,0,.135,2.2v8.411c-.222,2.543-.2,5.1-.478,7.641a53.644,53.644,0,0,1-2.9,11.8,70.925,70.925,0,0,1-14.077,24.168,72.136,72.136,0,0,1-38.512,22.823,51.7,51.7,0,0,1-9.981,1.158c-3.731.118-7.457.057-11.188.023a57.851,57.851,0,0,1-19.658-3.907,70.654,70.654,0,0,1-22.525-13.343A72.354,72.354,0,0,1,.7,83.824C.261,81.054.3,78.25.14,75.462c-.979-16.719,3.16-32,12.988-45.642a72.1,72.1,0,0,1,41.031-28.2A51.393,51.393,0,0,1,66.337.133c.5-.012,1.024.154,1.5-.133" transform="translate(0)" fill="#fed05c"/>
        <path id="Trazado_130433" data-name="Trazado 130433" d="M145.907,83.15A62.219,62.219,0,1,1,83.767,20.887,62.142,62.142,0,0,1,145.907,83.15" transform="translate(-11.622 -11.307)" fill="#fe7058"/>
        <path id="Trazado_130434" data-name="Trazado 130434" d="M130.268,134.694a51.128,51.128,0,0,1-12.581,9.487,54.107,54.107,0,0,1-21.794,6.676,56.369,56.369,0,0,1-56.916-33.946,54.311,54.311,0,0,1-4.268-27.248A55.618,55.618,0,0,1,47.252,59.174a23.5,23.5,0,0,1,3.625-3.883c1.328-.446,2.135-1.607,3.223-2.385a55.773,55.773,0,0,1,12.073-6.454c.692-.273,1.463-.759,2.2-.023.156.724-.307,1.231-.617,1.8a9.148,9.148,0,0,0-.66,7.938,3.432,3.432,0,0,0,3.458,2.507c.513.013,1.027,0,1.539.029a3,3,0,0,1,2.789,1.994,13.113,13.113,0,0,1,.82,3.1,2.2,2.2,0,0,0,2.863,1.775,16.3,16.3,0,0,0,3.593-1.509c1.395-.786,1.538-2.128.459-3.479a17.7,17.7,0,0,1-.97-1.526,3.42,3.42,0,0,1,.91-4.492,4.062,4.062,0,0,0,1.151-5.429,8.477,8.477,0,0,0-3.522-4c-.606-.343-1.427-.678-.987-1.69a3.241,3.241,0,0,1,2.2-.723c2.557-.1,5.115-.065,7.673-.025a1.749,1.749,0,0,1,1.291.414c.522.752-.03,1.226-.488,1.672a9.425,9.425,0,0,0-2.052,2.8,7.468,7.468,0,0,0,3.029,9.5,9.426,9.426,0,0,0,11.664-.849,7.653,7.653,0,0,0,2.156-7.783c-.233-.689-.672-1.363-.31-2.145a1.717,1.717,0,0,1,1.846-.09,55.566,55.566,0,0,1,10.9,5.513c.488.309,1.048.68.79,1.444-.732.5-1.426.059-2.134-.085a9.613,9.613,0,0,0-7.963,1.409,6.663,6.663,0,0,0-1.474,1.466c-1.214,1.592-1.248,2.946.069,4.414a3.79,3.79,0,0,1,.719,2.712,3.146,3.146,0,0,1-1.52,2.5c-.643.518-1.424.889-1.786,1.7-.721,1.324-.642,1.969.5,2.874.911.719,1.792,1.478,2.746,2.142a1.945,1.945,0,0,0,2.935-.23q.626-1.324,1.341-2.6a2.844,2.844,0,0,1,2.1-1.664,7.412,7.412,0,0,1,3.3.633,3.042,3.042,0,0,0,3.249-.864c2.848-3.176,3.141-7.084.818-10.878-.355-.579-.9-1.09-.76-1.872.617-.591,1.164-.151,1.607.206a46.479,46.479,0,0,1,6.7,6.321,1.8,1.8,0,0,1,.6,1.641c-.375.7-1.11.79-1.754,1.033-3.258,1.229-5.548,4.066-5.635,6.986a8.148,8.148,0,0,0,6.144,8.157,9.674,9.674,0,0,0,8.5-1.438c.524-.371,1-.869,1.75-.714,1.617,1.364,1.759,2.767.406,3.914a10.687,10.687,0,0,0-3.434,1.834c-1.655,1.557-1.215,3.517.965,4.195a6.358,6.358,0,0,0,3.994.046c.531-.178,1.079-.377,1.576.107.88,1.584.852,3.36,1.055,5.083a1.172,1.172,0,0,1-.51,1.08c-.637.327-1.037-.157-1.483-.451a3.065,3.065,0,0,0-3.256-.411,4.536,4.536,0,0,1-2.842.026,3.415,3.415,0,0,1-1.931-2.351,6.186,6.186,0,0,0-.926-2.121c-.482-.9-1.2-1.377-2.175-.887a17.946,17.946,0,0,0-4.183,2.724,1.548,1.548,0,0,0-.117,2.529c.71,1.312,2.232,2.076,2.5,3.69a3.685,3.685,0,0,1-1.62,3.734c-1.1.75-1,2.187.015,3.765a8.949,8.949,0,0,0,14.758.672c.419-.534.67-1.406,1.657-1.208a1.737,1.737,0,0,1,.405,1.561,55.84,55.84,0,0,1-8.542,24.825,34.432,34.432,0,0,1-3.079,3.953,2.878,2.878,0,0,0-.911,1.368" transform="translate(-18.651 -23.089)" fill="#fed05c"/>
        <path id="Trazado_130435" data-name="Trazado 130435" d="M87.658,41.657a52.483,52.483,0,0,0-15.917,8.482c-.864.647-.859.7-1.481.443a50.468,50.468,0,0,1,12.754-9.691,53.785,53.785,0,0,1,21.9-6.728,56.279,56.279,0,0,1,46.126,17.511,54.874,54.874,0,0,1,14.577,30.119,55.47,55.47,0,0,1-8.674,39.385,43.262,43.262,0,0,1-7.3,8.806c-.516-.612.12-.982.378-1.3a52.671,52.671,0,0,0,9.559-18.473A52.047,52.047,0,0,0,161.665,98.3a.786.786,0,0,1-.258-.585c.937-2.515,1.2-5.02-.131-7.5a2.928,2.928,0,0,1-.384-1.383.79.79,0,0,1,.2-.352c.7-1.188-.1-2.337-.119-3.508a17.654,17.654,0,0,0-.444-2.735c-.211-.636.257-1.041.515-1.52,1.148-2.132.244-3.946-2.136-4.282-.543-.077-1.141-.015-1.452-.627.725-.288.954-.752.573-1.484-.313-.6-.58-1.226-.867-1.841a.484.484,0,0,1-.106-.4c.312-.625.561-1.28.879-1.9,2.685-5.279-1.331-9.619-4.884-10.884a38.4,38.4,0,0,0-4.537-.789.731.731,0,0,1-.3-.3,42.862,42.862,0,0,0-7.877-7.746,1.454,1.454,0,0,0-.866-.392,1.954,1.954,0,0,1-2.208-1.654,12.062,12.062,0,0,0-3.784-2.53c-3.084-1.7-6.14-3.5-9.652-4.238-.415.185-.679-.068-.945-.321A9.98,9.98,0,0,0,110.839,38.9a1.021,1.021,0,0,1-1.029-.05,2.4,2.4,0,0,0-.765-.263c-3.278.064-6.568-.282-9.83.277a3.284,3.284,0,0,0-.633.248.927.927,0,0,1-.567.312,10.887,10.887,0,0,0-7.135.515,4.625,4.625,0,0,0-2.022,1.379,1.045,1.045,0,0,1-1.2.338" transform="translate(-38.035 -18.379)" fill="#e8be56"/>
        <path id="Trazado_130436" data-name="Trazado 130436" d="M105.3,47.579l.825-.567a14.825,14.825,0,0,1,9.546-1.98l.553,0a11.158,11.158,0,0,1,4.949,4.721,6.775,6.775,0,0,1,.394,4.739,2.272,2.272,0,0,1-1.084,1.39c-2.112,1.434-2.336,2.67-.9,4.748.21.3.388.63.581.946.489,1.773.244,2.367-1.337,3.09a29.141,29.141,0,0,1-3.607,1.464,2.345,2.345,0,0,1-2.934-.908c-.274-.983-.524-1.975-.828-2.948a2.465,2.465,0,0,0-2.621-1.869c-4.336.06-6.261-2.109-5.955-6.536a11.835,11.835,0,0,1,2.42-6.291" transform="translate(-55.675 -24.301)" fill="#fefefe"/>
        <path id="Trazado_130437" data-name="Trazado 130437" d="M90.256,230.282c-1.665-.183-3.3.5-4.969.186-.385-.714-1.317-1.055-1.292-2.064.046-1.9-.2-3.821.5-5.65.224-.586.835-.85,1.346-1.172a3.415,3.415,0,0,1,2.252.443,4.312,4.312,0,0,0,3.6.085,2.4,2.4,0,0,0,1.511-2.118,3.886,3.886,0,0,1,1.3-2.173c2.184-1.321,4.27-.582,6.228.464a9.678,9.678,0,0,1,4.764,10.962c-1.264,4.414-5.213,7.108-10.126,6.907a3.679,3.679,0,0,1-3-3.776c-.02-1.178-1.026-1.778-2.114-2.1" transform="translate(-45.466 -117.531)" fill="#fefefe"/>
        <path id="Trazado_130438" data-name="Trazado 130438" d="M198.951,64.278l2.208,1.654c2.815,3.312,3.769,6.939,1.862,11.044a6.434,6.434,0,0,1-1.5,2.136c-1.489.866-2.946,1.216-4.525.1a2.534,2.534,0,0,0-2.531.129,5.23,5.23,0,0,0-2.261,2.833c-.239.486-.56.932-.843,1.4a3.074,3.074,0,0,1-3.733-.481c-.637-.535-1.276-1.082-1.967-1.558a2.843,2.843,0,0,1-1.315-3.363c.345-.9,1.172-1.3,1.891-1.79a3.6,3.6,0,0,0,1.582-2.046c.265-.86.518-1.817-.189-2.492-1.615-1.542-1.466-3.249-.729-5.081a9.627,9.627,0,0,1,10.471-3.023c.53.174,1.055.36,1.583.54" transform="translate(-99.717 -34.239)" fill="#fefefe"/>
        <path id="Trazado_130439" data-name="Trazado 130439" d="M142.95,154.2c-1.69.564-2.136,2.332-3.3,3.407a2.418,2.418,0,0,1-3.162-.488,25.468,25.468,0,0,1-2.569-2.737c-.954-1.246-1.246-2.463-.229-3.795,1.133-.844,2.77-1.014,3.4-2.532a2.324,2.324,0,0,0,.406-3.122,4.21,4.21,0,0,1-.515-4.2,9.756,9.756,0,0,1,14,.034,9.465,9.465,0,0,1-.493,13.721,3.717,3.717,0,0,1-4.285.02,2.97,2.97,0,0,0-3.261-.309" transform="translate(-72.028 -74.591)" fill="#fefefe"/>
        <path id="Trazado_130440" data-name="Trazado 130440" d="M66.962,139.314c-1.4-.6-2.308-2.058-3.932-2.277a2.363,2.363,0,0,0-2.9.978,3.751,3.751,0,0,1-4.093,1.584,9.365,9.365,0,0,1-5.674-10.553,9.624,9.624,0,0,1,9.238-7.9,7.683,7.683,0,0,1,4.277,1.064,4.137,4.137,0,0,1,1.482,4.336,2.665,2.665,0,0,0,.994,2.97c.709.932,1.792,1.026,2.813,1.272.486.117.962.28,1.442.422a2.365,2.365,0,0,1,.953,3.058,13.819,13.819,0,0,1-1.948,3.859,2.6,2.6,0,0,1-2.65,1.189" transform="translate(-27.161 -65.58)" fill="#fefefe"/>
        <path id="Trazado_130441" data-name="Trazado 130441" d="M247.915,145.74l.607,1.094a17.924,17.924,0,0,1,.037,7.968l-.055.472a10.307,10.307,0,0,1-5.811,4.9,9.511,9.511,0,0,1-11.011-4.092c-.452-1.825-.665-3.493,1.308-4.756,1.067-.683.8-1.963.467-3.068-.518-1.394-1.921-2.079-2.648-3.306a2.924,2.924,0,0,1,1.6-3.7,19.591,19.591,0,0,0,1.861-1.191,3.047,3.047,0,0,1,3.938-.252,3.6,3.6,0,0,1,.96,2.086,3.943,3.943,0,0,0,1.5,2.381,2.707,2.707,0,0,0,2.943.583,3.718,3.718,0,0,1,4.3.871" transform="translate(-124.874 -75.36)" fill="#fefefe"/>
        <path id="Trazado_130442" data-name="Trazado 130442" d="M110.993,179.63a8.159,8.159,0,0,1-10.179,7.839c-6.837-1.518-10.252-8.709-6.783-14.284,1.614-2.592,5.228-3.962,8.768-3.324a10.036,10.036,0,0,1,8.194,9.768" transform="translate(-50.16 -91.87)" fill="#fe7057"/>
        <path id="Trazado_130443" data-name="Trazado 130443" d="M77.655,98.815a9.655,9.655,0,0,1-7.7-3.126c-3.23-3.619-2.936-8.243.6-11.61,4.97-4.727,13.8-2.636,15.931,3.769C87.87,92.006,85.3,96.67,80.753,98.24a8.024,8.024,0,0,1-3.1.575" transform="translate(-36.652 -44.122)" fill="#fe7057"/>
        <path id="Trazado_130444" data-name="Trazado 130444" d="M193.833,122.168c4.346,0,7.814,2.187,9.183,5.52,2.079,5.063-1.373,10.807-7.6,11.6a9.855,9.855,0,0,1-8.06-2.409c-4.864-4.307-3.142-11.991,3.142-14.163a8.8,8.8,0,0,1,3.334-.544" transform="translate(-99.905 -66.128)" fill="#fe7057"/>
        <path id="Trazado_130445" data-name="Trazado 130445" d="M177.449,193.741c.006,3.651-2.068,6.54-5.731,8.049a10.16,10.16,0,0,1-11.257-2.607c-2.99-3.381-2.676-8.094.76-11.415,5.02-4.852,14-2.621,16.01,3.962a8.781,8.781,0,0,1,.217,2.01" transform="translate(-85.757 -100.232)" fill="#fe7057"/>
        <path id="Trazado_130446" data-name="Trazado 130446" d="M225.2,205.132a9.692,9.692,0,0,1-8.431-4.855c-2.2-3.741-.613-8.747,3.421-11.079a10.169,10.169,0,0,1,12.907,2.28c3.646,4.363,1.351,11.337-4.316,13.07a8.067,8.067,0,0,1-3.58.584" transform="translate(-116.808 -101.678)" fill="#fe7057"/>
        <path id="Trazado_130447" data-name="Trazado 130447" d="M46.944,176.219a9.966,9.966,0,0,1,9.715-10.062,8.192,8.192,0,0,1,8.193,8.2c.1,5.387-4.6,10.284-9.842,10.243a7.945,7.945,0,0,1-8.066-8.377" transform="translate(-25.404 -89.947)" fill="#fe7057"/>
        <path id="Trazado_130448" data-name="Trazado 130448" d="M161.883,242.394a8.089,8.089,0,0,1,8.38-8.232c5.243-.05,10.114,4.548,10.157,9.587a8.348,8.348,0,0,1-8.559,8.315,10.052,10.052,0,0,1-9.979-9.671" transform="translate(-87.634 -126.762)" fill="#fe7057"/>
        <path id="Trazado_130449" data-name="Trazado 130449" d="M109.1,112.97c5.7.005,9.406,3.669,9.194,8.851-.145,3.559-3.2,6.988-7.246,8.132-4.362,1.235-9.288-.826-10.918-4.565a8.844,8.844,0,0,1,4.991-11.641,8.516,8.516,0,0,1,3.98-.777" transform="translate(-53.818 -61.143)" fill="#fe7057"/>
        <path id="Trazado_130450" data-name="Trazado 130450" d="M165.4,46.272l.536.572a8.15,8.15,0,0,1-1.078,9.842,10.111,10.111,0,0,1-11.345,2.205c-5.187-2.367-6.966-7.642-4.131-12.263a11.566,11.566,0,0,1,2.532-2.584l.826-.289c.809-.129,1.659-.543,2.32.339.015,1.007-.827,1.281-1.492,1.636a5.908,5.908,0,0,0-3.182,6.291,5.41,5.41,0,0,0,3.7,4.79,2.531,2.531,0,0,0,2.139-.012,3.009,3.009,0,0,1,2.177-.194,4.7,4.7,0,0,0,5.62-2.456,6.3,6.3,0,0,0-.4-6.961c-.284-.416-.621-.863-.137-1.375.789-.475,1.294.225,1.911.461" transform="translate(-80.139 -23.573)" fill="#fe7057"/>
        <path id="Trazado_130451" data-name="Trazado 130451" d="M230.94,86.845l.309.06a2.814,2.814,0,0,1,2.07,2.584,1.114,1.114,0,0,1-1.579.443c-2.1-.99-3.606.065-4.907,1.471a6.059,6.059,0,0,0,2.557,9.868,2.385,2.385,0,0,0,1.753-.039,2.659,2.659,0,0,1,2.309-.17c1.8,1.018,2.978-.2,4.276-1.021.456-.29.736-.874,1.4-.81a1.162,1.162,0,0,1,.785,1.625c-.007.088-.017.175-.028.262-3.449,3.124-7.361,3.883-11.622,2.014a8.3,8.3,0,0,1-5.175-8.614c.189-2.975,2.8-6.024,6.117-7.142.573-.193,1.156-.355,1.735-.531" transform="translate(-120.755 -47.013)" fill="#fe7057"/>
        <path id="Trazado_130452" data-name="Trazado 130452" d="M146.657,254.717a13.33,13.33,0,0,1-.221,1.719c-.6,2.461-2.881,3.245-4.8,1.6a6.014,6.014,0,0,1-2.435-5.614,3.169,3.169,0,0,1,4.609-2.64c1.773.726,2.725,2.311,2.85,4.94" transform="translate(-75.32 -135.043)" fill="#40596b"/>
        <path id="Trazado_130453" data-name="Trazado 130453" d="M254.614,125.213c.326.015.653.053.978.042,1.523-.05,2.829.4,3.431,1.889a3.55,3.55,0,0,1-.957,4.093c-.132.129-.253.27-.378.4-1.958,1.445-4.039,1.265-6.087.318-2.165-1-2.485-3.1-.777-4.764a7.657,7.657,0,0,1,3.79-1.983" transform="translate(-135.19 -67.783)" fill="#40586a"/>
        <path id="Trazado_130454" data-name="Trazado 130454" d="M214.39,236a5.659,5.659,0,0,1,2.192.5c2.416.884,3,3.208,1.132,4.947-1.744,1.624-3.74,2.609-6.233,1.608-2.35-.943-3-3.234-1.393-5.183a5.163,5.163,0,0,1,4.3-1.871" transform="translate(-113.251 -127.753)" fill="#40596a"/>
        <path id="Trazado_130455" data-name="Trazado 130455" d="M198.05,173.969c0-2.9.753-4.225,2.219-4.584a4.136,4.136,0,0,1,4.616,2.356,6.3,6.3,0,0,1,.056,5.286,2.481,2.481,0,0,1-3.687,1.327,5.815,5.815,0,0,1-3.205-4.384" transform="translate(-107.213 -91.639)" fill="#40596b"/>
        <path id="Trazado_130456" data-name="Trazado 130456" d="M163.66,84.855a5.745,5.745,0,0,1-5.952,5.425,2.639,2.639,0,0,1-2.493-2.555c-.336-3.965,3.124-6.138,6.4-5.565,1.509.264,2.058,1.109,2.042,2.695" transform="translate(-84.012 -44.428)" fill="#40596b"/>
        <path id="Trazado_130457" data-name="Trazado 130457" d="M130.046,203.547a5.931,5.931,0,0,1,5.893,3.835,2.363,2.363,0,0,1-.661,2.662,4.4,4.4,0,0,1-6.329-.42,8.078,8.078,0,0,1-1.407-2.7c-.707-2.3.128-3.393,2.5-3.372" transform="translate(-68.912 -110.188)" fill="#40596a"/>
        <path id="Trazado_130458" data-name="Trazado 130458" d="M168.032,118.684c3.339.028,5.436,1.38,6.192,3.676a2.734,2.734,0,0,1-1.871,3.754,4.148,4.148,0,0,1-4.336-.759,5.935,5.935,0,0,1-2.071-5.118,1.821,1.821,0,0,1,2.086-1.553" transform="translate(-89.807 -64.249)" fill="#40596a"/>
        <path id="Trazado_130459" data-name="Trazado 130459" d="M123.419,84.919a4.014,4.014,0,0,0,4.1-.168,9.339,9.339,0,0,1,2.048-.864,2.192,2.192,0,0,0,1.732-2.614c1.324,1.781.923,3.518-1.057,4.415a33,33,0,0,1-3.354,1.359,2.547,2.547,0,0,1-3.467-2.129" transform="translate(-66.812 -43.997)" fill="#eeedec"/>
        <path id="Trazado_130460" data-name="Trazado 130460" d="M132.742,165.7c-.269,3.42,2.69,6.9,5.96,7.019-1.229,1.206-2.489,1.355-3.8.188a20.446,20.446,0,0,1-2.962-3.3c-1.09-1.514-.772-2.7.8-3.905" transform="translate(-71.078 -89.698)" fill="#eaeae9"/>
        <path id="Trazado_130461" data-name="Trazado 130461" d="M86.777,151.192c3.068-1.227,4.953-5.418,3.645-8.106a2.239,2.239,0,0,1,1.825,2.762,13.806,13.806,0,0,1-2.355,4.859,2.211,2.211,0,0,1-3.115.485" transform="translate(-46.976 -77.459)" fill="#ebebe8"/>
        <path id="Trazado_130462" data-name="Trazado 130462" d="M237.765,139.219c-2.959-.695-4.7,1.464-6.7,2.935-.644.474-.651,1.406-.7,2.2-.828-1.488-.677-2.64.672-3.664a27.33,27.33,0,0,1,3.524-2.255,2.344,2.344,0,0,1,3.2.78" transform="translate(-124.432 -74.76)" fill="#e9e8e6"/>
        <path id="Trazado_130463" data-name="Trazado 130463" d="M140.288,144.211c.19.154.361.359.271.595-.5,1.312.086,2.335.813,3.347a2.822,2.822,0,0,1-.055,3.034.627.627,0,0,1-.92.347,2.94,2.94,0,0,0-.672-3.078c-.956-1.076-.66-2.886.564-4.245" transform="translate(-75.331 -78.068)" fill="#ebeae9"/>
        <path id="Trazado_130464" data-name="Trazado 130464" d="M184.014,95.784a3.54,3.54,0,0,0,1.647,3.044,22.789,22.789,0,0,1,2.064,1.649c.981.812,2.158.683,3.3.709-1.2,1.1-2.249,1.2-3.452.292q-1.443-1.092-2.829-2.258a2.461,2.461,0,0,1-.733-3.436" transform="translate(-99.389 -51.852)" fill="#e9e9e7"/>
        <path id="Trazado_130465" data-name="Trazado 130465" d="M85.232,226.861c-2,2.146-1.343,4.783-1.292,7.29.006.323.454.694.777.939.386.293.153.449-.034.656a2.4,2.4,0,0,1-1.811-2.5,31.577,31.577,0,0,1,.265-4.144,2.359,2.359,0,0,1,2.1-2.246" transform="translate(-44.861 -122.81)" fill="#eae9e6"/>
        <path id="Trazado_130466" data-name="Trazado 130466" d="M154.63,172.5a2.253,2.253,0,0,1,3.23-.4,4.673,4.673,0,0,0,4.315.691c-1.706,1.543-3.278,1.707-5.068.471a4.01,4.01,0,0,0-2.478-.76" transform="translate(-83.708 -92.893)" fill="#ecebe9"/>
        <path id="Trazado_130467" data-name="Trazado 130467" d="M259.714,151.132a4.646,4.646,0,0,0-4.48-.2c-1.115.522-2.148-.15-2.765-1.255.68.094,1.385.4,2.038.03,2.1-1.2,3.7-.214,5.226,1.145a2.2,2.2,0,0,1-.02.279" transform="translate(-136.672 -80.751)" fill="#ecebe8"/>
        <path id="Trazado_130468" data-name="Trazado 130468" d="M62.948,157.723a4.658,4.658,0,0,0,3.833-2.2,2.11,2.11,0,0,1,3.164-.365,2.986,2.986,0,0,0-2.3,1.342c-1.193,1.744-2.63,2.087-4.7,1.22" transform="translate(-34.076 -83.705)" fill="#ebeae9"/>
        <path id="Trazado_130469" data-name="Trazado 130469" d="M82.523,130.771a2.139,2.139,0,0,1-1.6-2.585,5.39,5.39,0,0,0-.874-4.72,4.189,4.189,0,0,1,2.169,4.632,3.707,3.707,0,0,0,.307,2.674" transform="translate(-43.332 -66.837)" fill="#ecebe9"/>
        <path id="Trazado_130470" data-name="Trazado 130470" d="M233.767,158.951c.888,1.4,1.01,2.678-.153,3.444-1.742,1.146-1.666,2.711-1.622,4.381-1.164-2.527-1.056-3.193.956-5.1a3.578,3.578,0,0,0,.819-2.726" transform="translate(-125.183 -86.047)" fill="#eae8e5"/>
        <path id="Trazado_130471" data-name="Trazado 130471" d="M97.655,245.828c1.744.219,2.531.96,2.568,2.642.039,1.761,1.428,2.365,2.541,3.228a3.051,3.051,0,0,1-3.247-2.865,3.578,3.578,0,0,0-1.863-3.006" transform="translate(-52.865 -133.077)" fill="#e9e8e5"/>
        <path id="Trazado_130472" data-name="Trazado 130472" d="M189.07,70.909c-.386,1.744-.386,3.313,1.034,4.764a2.038,2.038,0,0,1-.116,2.809,3.528,3.528,0,0,0-.73-2.575c-1.341-1.577-1.367-3.141-.188-5" transform="translate(-101.89 -38.386)" fill="#e9e8e4"/>
        <path id="Trazado_130473" data-name="Trazado 130473" d="M206.565,97.328a2.182,2.182,0,0,1,3.227-.259c1.287,1.037,2.55.432,3.829.031a3.914,3.914,0,0,1-4.357.727,4.542,4.542,0,0,0-2.7-.5" transform="translate(-111.822 -52.225)" fill="#e9e7e2"/>
        <path id="Trazado_130474" data-name="Trazado 130474" d="M103.588,218.658a8.825,8.825,0,0,0-.921,2.274c-.2.954-.544,2.026-1.892,2.017a4.511,4.511,0,0,0,1.1-2.16,2.562,2.562,0,0,1,1.718-2.131" transform="translate(-54.553 -118.369)" fill="#eae8e5"/>
        <path id="Trazado_130475" data-name="Trazado 130475" d="M249.571,100.867l-.854-1.414a.848.848,0,0,1-.072-.784c1.405-3.034,1.15-5.684-.842-7.506a4.956,4.956,0,0,0-4.641-1.567.981.981,0,0,1-.33-.231l-1.927-2.449c5.5-.472,9.876,2.437,10.751,7.317a7.214,7.214,0,0,1-2.086,6.634" transform="translate(-130.413 -47.024)" fill="#e86851"/>
        <path id="Trazado_130476" data-name="Trazado 130476" d="M160.536,43.019c-.686-.438-1.53-.237-2.245-.557,3.458-2.338,9.863-1.559,12.659,2.517l-2-.266c-.667.321-1.158-.116-1.674-.4a2.926,2.926,0,0,0-2.9-.242,3.064,3.064,0,0,1-3.84-1.049" transform="translate(-85.69 -22.279)" fill="#e96852"/>
        <path id="Trazado_130477" data-name="Trazado 130477" d="M119.537,44.527a43.26,43.26,0,0,0-8.19,1.675c-.449.116-.9.2-1.356.306,2.142-2.37,6.233-3.219,9.546-1.981" transform="translate(-59.543 -23.798)" fill="#e9e7e5"/>
        <path id="Trazado_130478" data-name="Trazado 130478" d="M269.626,163.8q-.019-3.984-.037-7.968a8.622,8.622,0,0,1,.037,7.968" transform="translate(-145.94 -84.361)" fill="#eae9e7"/>
        <path id="Trazado_130479" data-name="Trazado 130479" d="M97.37,181.2c.748.421,1.248.951,2.008.955,1.135.005,2.049-.46,2.042-1.625-.011-1.76,1.11-2.419,2.406-3.056,1.451-.714,1.9-1.658,1.425-2.875-.355-.9-.945-1.266-2.449-1.511,1.53-.327,3.084-.436,3.491.2,1.133,1.76,3.063,2.457,4.453,3.731,1.876,1.719,1.733,4.4.686,6.8a6.8,6.8,0,0,1-8.3,3.623,1.894,1.894,0,0,1-1.393-1.415,2.084,2.084,0,0,0-1.647-1.547c-2.056-.608-2.329-.9-2.722-3.273" transform="translate(-52.711 -93.557)" fill="#f0543f"/>
        <path id="Trazado_130480" data-name="Trazado 130480" d="M102.369,188.211a.627.627,0,0,1-.727.566.794.794,0,0,1-.882-.69c-.028-.315.322-.387.616-.385a1.15,1.15,0,0,1,.993.51" transform="translate(-54.546 -101.611)" fill="#fec95b"/>
        <path id="Trazado_130481" data-name="Trazado 130481" d="M109.8,179.215c-.076.259-.084.637-.448.558-.469-.1-.589-.523-.572-.959.01-.256,0-.638.391-.548.453.1.564.538.629.949" transform="translate(-58.888 -96.496)" fill="#fec45b"/>
        <path id="Trazado_130482" data-name="Trazado 130482" d="M104.671,182.261c-.071.4-.335.452-.622.419a.643.643,0,0,1-.639-.6c-.032-.364.222-.465.527-.45a.73.73,0,0,1,.735.628" transform="translate(-55.979 -98.325)" fill="#fec75b"/>
        <path id="Trazado_130483" data-name="Trazado 130483" d="M71.516,92.136c-.038-2.191,2.842-5.873,5.226-6.418a1.6,1.6,0,0,1,1.3.351,2.191,2.191,0,0,0,2.627-.011A1.719,1.719,0,0,1,82.618,86c4.857,2.267,6.1,7.54,2.479,11.088-1.393,1.366-2.961,2.923-5.232,1.322a1.163,1.163,0,0,0-1.331.132c-1.24.871-2.391.512-3.512-.215a7.4,7.4,0,0,1-3.507-6.186" transform="translate(-38.714 -46.385)" fill="#f0543f"/>
        <path id="Trazado_130484" data-name="Trazado 130484" d="M188.27,132.944c.014-2.66,2.745-6.214,5.151-6.812a1.514,1.514,0,0,1,1.3.355,2.356,2.356,0,0,0,2.139.248,4.611,4.611,0,0,1,5.379,1.706c3.128,3.773,1.432,8.871-2.791,10.771a2.088,2.088,0,0,1-2.242-.129,1.44,1.44,0,0,0-1.694-.253c-2.1,1.4-3.677.147-5.115-1.1a6.744,6.744,0,0,1-2.123-4.789" transform="translate(-101.919 -68.26)" fill="#f0543f"/>
        <path id="Trazado_130485" data-name="Trazado 130485" d="M162.544,195.861c-.111-3.7,2.07-5.674,4.7-6.889a1.679,1.679,0,0,1,1.723.25c.549.393,1.226.732,1.827.335,2.283-1.508,3.934-.05,5.271,1.35,3.679,3.851,1.778,9.489-3.27,11.3a1.344,1.344,0,0,1-1.3-.283,1.916,1.916,0,0,0-2.114-.3c-2.136,1.354-3.61-.046-4.917-1.269a5.3,5.3,0,0,1-1.92-4.5" transform="translate(-87.974 -102.223)" fill="#f0543f"/>
        <path id="Trazado_130486" data-name="Trazado 130486" d="M235.314,198.765a7.669,7.669,0,0,1-4.91,6.575,1.723,1.723,0,0,1-1.6-.244,1.969,1.969,0,0,0-2.463-.071,2.4,2.4,0,0,1-2.636-.059,6.741,6.741,0,0,1-3.922-6.434c.112-3.169,2.155-5.014,4.788-6.353a1.426,1.426,0,0,1,1.585.156,2.282,2.282,0,0,0,2.743.05,1.95,1.95,0,0,1,1.73-.158,7.329,7.329,0,0,1,4.688,6.538" transform="translate(-118.974 -103.942)" fill="#f0543f"/>
        <path id="Trazado_130487" data-name="Trazado 130487" d="M64.923,176.808c.105,1.624-.11,3.1-2.18,3.539-.75.158-.87.928-.943,1.575a2.619,2.619,0,0,1-1.934,2.286c-2.364.871-4.692.939-6.8-.574a6.878,6.878,0,0,1-2.968-6.81,2.623,2.623,0,0,1,1.878-2.378,1.862,1.862,0,0,0,1.42-1.858,2.215,2.215,0,0,1,1.6-2.069c5.081-2.226,10.429,1.428,9.926,6.289" transform="translate(-27.086 -91.947)" fill="#f0543f"/>
        <path id="Trazado_130488" data-name="Trazado 130488" d="M180.089,245.458a6.845,6.845,0,0,1-7.88,6.819,2.14,2.14,0,0,1-1.881-1.238,1.911,1.911,0,0,0-1.553-1.252c-2.309-.3-3.478-1.525-3.8-3.912-.669-5.047,3.034-8.789,8.049-8.133a1.8,1.8,0,0,1,1.557,1.021,2.372,2.372,0,0,0,2.407,1.522c1.6,0,2.9,1.8,3.092,4.054.032.371,0,.746,0,1.119" transform="translate(-89.268 -128.66)" fill="#f0543f"/>
        <path id="Trazado_130489" data-name="Trazado 130489" d="M119.235,123.012a7.44,7.44,0,0,1-2.661,5.075,2.332,2.332,0,0,1-2.356.456,1.688,1.688,0,0,0-1.7.257c-1.941,1.545-3.939,1.5-5.991-.1a7.15,7.15,0,0,1,.161-11.442,1.944,1.944,0,0,1,1.856-.224,1.793,1.793,0,0,0,2.149-.54c.885-1.221,2.054-1.144,3.263-.815a7.225,7.225,0,0,1,5.278,7.333" transform="translate(-56.161 -62.509)" fill="#f0543f"/>
        <path id="Trazado_130490" data-name="Trazado 130490" d="M157.14,45.218a1.909,1.909,0,0,1,1.411.428,1.586,1.586,0,0,0,2.048.189c1.47-1.031,2.685-.431,3.92.39l1.035.686c1.959,2.624,2.7,5.384.966,8.435A8.293,8.293,0,0,1,162.6,58.57a1.634,1.634,0,0,1-1.714-.3,1.78,1.78,0,0,0-2.21-.062c-1.111.719-2.083.392-3.129-.193a6.764,6.764,0,0,1-.218-11.754c.593-.367,1.209-.7,1.814-1.045" transform="translate(-82.294 -24.478)" fill="#f0543f"/>
        <path id="Trazado_130491" data-name="Trazado 130491" d="M241.385,101.263l-.275.557a19.242,19.242,0,0,1-3.072,2.393,1.763,1.763,0,0,1-2.071-.008,1.976,1.976,0,0,0-2.367-.135,2.617,2.617,0,0,1-3-.133,6.707,6.707,0,0,1-.346-11.854c1.23-.782,2.346-1.314,3.678-.238a.989.989,0,0,0,1.293-.114l.281.006a3.806,3.806,0,0,1,1.8,2.471c.126.4-.069.861.164,1.22a4.037,4.037,0,0,1,.083,4.679,1.063,1.063,0,0,0,.269,1.274,1.381,1.381,0,0,0,1.41.316c.6-.119.974-.719,1.62-.722a.805.805,0,0,1,.532.286" transform="translate(-122.806 -49.392)" fill="#f0543f"/>
        <path id="Trazado_130492" data-name="Trazado 130492" d="M251.6,101.255l-.547,0c-.618-.729-.151-1.467.12-2.089.769-1.765-.211-3.155-.872-4.593-.305-.665-1.036-.7-1.722-.529-.477.121-.917.515-1.454.2-.313-.924-1.3-1.472-1.4-2.514a2.718,2.718,0,0,1,3.244.073c3.386,1.992,4.737,5.857,2.634,9.452" transform="translate(-133.019 -49.384)" fill="#dc503d"/>
        <path id="Trazado_130493" data-name="Trazado 130493" d="M114.593,192.759c-1.208.6-1.784-.311-2.1-1.114s-.344-1.735.969-2.008a2.526,2.526,0,0,0,1.979-2.571c.084-1.17.621-1.82,1.819-1.843a2.127,2.127,0,0,1,2.109,2c.238,2.1-1.924,5.671-4.777,5.545a2.53,2.53,0,0,1-.183-.331,2.139,2.139,0,0,0,.188.323" transform="translate(-60.796 -100.269)" fill="#fe7057"/>
        <path id="Trazado_130494" data-name="Trazado 130494" d="M73.315,94.536a4.365,4.365,0,0,1,1.837-4.175,2.283,2.283,0,0,1,2.929,0,1.847,1.847,0,0,1,.146,2.523,3.108,3.108,0,0,0,.092,3.635A1.779,1.779,0,0,1,78,99.207a2.122,2.122,0,0,1-3.01-.3c-.891-1.326-2.057-2.6-1.673-4.37" transform="translate(-39.648 -48.629)" fill="#fe7057"/>
        <path id="Trazado_130495" data-name="Trazado 130495" d="M98.141,95.087A5.133,5.133,0,0,1,96.88,98.82a1.724,1.724,0,0,1-2.432.613,1.751,1.751,0,0,1-.838-2.586c.79-1.3.968-2.38-.049-3.675a1.5,1.5,0,0,1,.335-2.136,1.916,1.916,0,0,1,2.567-.051,4.848,4.848,0,0,1,1.678,4.1" transform="translate(-50.485 -48.998)" fill="#fe7057"/>
        <path id="Trazado_130496" data-name="Trazado 130496" d="M195.3,138.107a1.567,1.567,0,0,1-1.029,1.662,2.088,2.088,0,0,1-2.466-.365c-2.56-2.657-2.725-6.447.016-8.734a2.195,2.195,0,0,1,2.711-.132,1.624,1.624,0,0,1,.572,2.328,3.9,3.9,0,0,0,.04,4.431,2.268,2.268,0,0,1,.156.81" transform="translate(-102.761 -70.447)" fill="#fe7058"/>
        <path id="Trazado_130497" data-name="Trazado 130497" d="M214.237,135.506a5.178,5.178,0,0,1-1.209,3.678,2.014,2.014,0,0,1-2.934.539c-.87-.65-.88-1.59-.145-2.735A2.457,2.457,0,0,0,209.88,134a1.667,1.667,0,0,1,.13-2.568,2.092,2.092,0,0,1,2.979.388,5.05,5.05,0,0,1,1.248,3.682" transform="translate(-113.325 -70.903)" fill="#fe7057"/>
        <path id="Trazado_130498" data-name="Trazado 130498" d="M167.133,203.307a2.023,2.023,0,0,1-1.3-.572c-2.489-2.5-3.154-6.369-.089-8.832a2.067,2.067,0,0,1,3.016.1,1.7,1.7,0,0,1-.006,2.5,2.811,2.811,0,0,0,.132,3.6,1.815,1.815,0,0,1,.188,2.086,2.4,2.4,0,0,1-1.94,1.114" transform="translate(-88.616 -104.64)" fill="#fe7057"/>
        <path id="Trazado_130499" data-name="Trazado 130499" d="M189,198.719a6.954,6.954,0,0,1-1.43,3.8,2.111,2.111,0,0,1-2.864.472,1.724,1.724,0,0,1-.361-2.594,2.326,2.326,0,0,0,.13-3.067c-.651-.863-.838-1.68.022-2.465a2.174,2.174,0,0,1,3.032.211A6.627,6.627,0,0,1,189,198.719" transform="translate(-99.562 -105.207)" fill="#fe7057"/>
        <path id="Trazado_130500" data-name="Trazado 130500" d="M221.249,200.751a4.545,4.545,0,0,1,1.686-3.872,2.394,2.394,0,0,1,3.035-.294c1,.82.856,1.692.244,2.707a2.925,2.925,0,0,0,.157,3.62,1.646,1.646,0,0,1-.221,2.484,1.87,1.87,0,0,1-2.757.088,5.873,5.873,0,0,1-2.145-4.733" transform="translate(-119.766 -106.194)" fill="#fe7058"/>
        <path id="Trazado_130501" data-name="Trazado 130501" d="M246.406,201.117a6.469,6.469,0,0,1-1.646,4.221,1.751,1.751,0,0,1-2.61.213,1.653,1.653,0,0,1-.309-2.556,2.391,2.391,0,0,0,.1-3.082c-.6-.878-.924-1.772.04-2.6.879-.754,1.972-.575,2.977.425a6.665,6.665,0,0,1,1.444,3.378" transform="translate(-130.665 -106.563)" fill="#fe7057"/>
        <path id="Trazado_130502" data-name="Trazado 130502" d="M54.311,183.647c.806.222,1.765.291,1.969,1.515a2.974,2.974,0,0,0,2.759,2.527c1.437.252,2.1,1.071,1.9,2.2a2.43,2.43,0,0,1-2.674,1.874c-3.811-.116-5.516-2.468-6.125-5.219a2.37,2.37,0,0,1,2.171-2.893" transform="translate(-28.195 -99.416)" fill="#fe7057"/>
        <path id="Trazado_130503" data-name="Trazado 130503" d="M65.577,171.773a5.476,5.476,0,0,1,5.165,4.277c.287,1.564-.437,2.7-1.728,2.738-.93.024-1.523-.33-1.588-1.333-.09-1.385-.993-1.906-2.222-2.024-1.657-.159-2.317-.667-2.254-1.8.064-1.166,1.066-1.875,2.627-1.859" transform="translate(-34.075 -92.988)" fill="#fe7057"/>
        <path id="Trazado_130504" data-name="Trazado 130504" d="M166.855,245.688a6.029,6.029,0,0,1,4.047-5.629,2.379,2.379,0,0,1,3.077,1.1c.536,1.257.124,2.127-1.369,2.811a2.483,2.483,0,0,0-1.55,2.286c-.119,2.016-.626,2.787-1.759,2.729-1.455-.073-2.432-1.28-2.446-3.021,0-.093,0-.187,0-.28" transform="translate(-90.325 -129.863)" fill="#fe7057"/>
        <path id="Trazado_130505" data-name="Trazado 130505" d="M187.32,254.98a5.713,5.713,0,0,1-3.323,2.6,2.007,2.007,0,0,1-2.481-1.224,1.7,1.7,0,0,1,1.315-2.359c1.414-.322,1.737-1.236,1.711-2.461-.023-1.091,0-2.117,1.51-2.121a2.056,2.056,0,0,1,2.13,2.225c.013,1.1.163,2.259-.808,3.114a1,1,0,0,1-.381-.117c.076.146.221.228.326.346" transform="translate(-98.201 -135.017)" fill="#fe7057"/>
        <path id="Trazado_130506" data-name="Trazado 130506" d="M192.275,260.023c-.265-.06-.532-.115-.8-.18-.41-.1-.806-.243-.915-.71-.045-.194.106-.337.3-.383.48-.112.766.2,1.048.5a6.564,6.564,0,0,1,.415.541c-.021.076-.039.152-.054.229" transform="translate(-103.156 -140.06)" fill="#febf5b"/>
        <path id="Trazado_130507" data-name="Trazado 130507" d="M105.128,127.4a4.975,4.975,0,0,1,1.489-3.212,2.075,2.075,0,0,1,3.245.468c.211.377.411.791.072,1.17-1.213,1.359-.349,2.435.508,3.439,1.2,1.411,1.442,2.4.622,3.261-1.038,1.088-2.549.98-3.835-.275a5.932,5.932,0,0,1-2.1-4.851" transform="translate(-56.91 -66.915)" fill="#fe7057"/>
        <path id="Trazado_130508" data-name="Trazado 130508" d="M125.27,120.412c.886.135,1.32.814,1.746,1.482a7.3,7.3,0,0,1,.732,4.883,2.247,2.247,0,0,1-1.084,1.573,1.675,1.675,0,0,1-2.685-1.857,3.021,3.021,0,0,0-.995-3.513c-.76-.646-1.156-1.426-.349-2.279.762-.806,1.639-1.311,2.637-.284-.158.152-.28.334-.424.5.146-.162.264-.349.421-.5" transform="translate(-66.147 -64.875)" fill="#fe7057"/>
        <path id="Trazado_130509" data-name="Trazado 130509" d="M153.4,53.959a4.539,4.539,0,0,1,1.875-4.007,2.193,2.193,0,0,1,2.93-.033c1.021.762.854,1.6.2,2.541a2.878,2.878,0,0,0,.019,3.525,1.8,1.8,0,0,1-.31,2.8,1.911,1.911,0,0,1-2.853-.322,5.958,5.958,0,0,1-1.864-4.508" transform="translate(-83.032 -26.729)" fill="#fe7058"/>
        <path id="Trazado_130510" data-name="Trazado 130510" d="M173.544,57.324c-.078-.51.31-.955.612-1.412a2.276,2.276,0,0,0-.1-2.849c-.616-.811-.818-1.63-.039-2.364a1.925,1.925,0,0,1,2.775.019,5.3,5.3,0,0,1,1.354,5.856,6.945,6.945,0,0,1-1.312,2.13,1.618,1.618,0,0,1-2.029.394,1.828,1.828,0,0,1-1.265-1.774" transform="translate(-93.93 -27.131)" fill="#fe7057"/>
        <path id="Trazado_130511" data-name="Trazado 130511" d="M233.714,96.777a2.149,2.149,0,0,1-.392,1.242,3.006,3.006,0,0,0,.072,3.628,1.783,1.783,0,0,1-.28,2.522,1.822,1.822,0,0,1-2.551.13c-2.794-2.4-3.3-6.24-.407-8.9a2.107,2.107,0,0,1,3.558,1.38" transform="translate(-123.541 -51.3)" fill="#fe7058"/>
        <path id="Trazado_130512" data-name="Trazado 130512" d="M248.605,96.748c.761-.682,1.662-1.206,2.628-.687a4.437,4.437,0,0,1,2.117,3.4,8.244,8.244,0,0,1-.816,4.29c-.675.354-1.051,1.162-1.991,1.145a1.913,1.913,0,0,1-1.827-1.015,1.566,1.566,0,0,1,.155-1.927,2.421,2.421,0,0,0,.013-3.3,1.834,1.834,0,0,1-.28-1.914" transform="translate(-134.501 -51.888)" fill="#f46c55"/>
        <path id="Trazado_130513" data-name="Trazado 130513" d="M123.37,189.569a.581.581,0,0,1-.681.438c-.466-.06-1.019-.175-1.079-.694-.043-.374.434-.416.767-.368a1.333,1.333,0,0,1,.993.625" transform="translate(-65.831 -102.275)" fill="#fec65b"/>
        <path id="Trazado_130514" data-name="Trazado 130514" d="M116.14,199.626c-.084-.036-.171-.066-.251-.109-.528-.283-.888-.659-.653-1.315.06-.166.163-.37.39-.266.563.259.56.775.537,1.288-.006.137-.018.273-.027.41l0-.009" transform="translate(-62.342 -107.136)" fill="#fec55b"/>
        <path id="Trazado_130515" data-name="Trazado 130515" d="M122.046,196.12a.975.975,0,0,1-1.327-.611c-.028-.07.111-.3.189-.3.613-.07.906.308,1.137.915" transform="translate(-65.348 -105.668)" fill="#fec65b"/>
        <path id="Trazado_130516" data-name="Trazado 130516" d="M78.208,99.235a.651.651,0,0,1-.776.6c-.381-.057-.732-.292-.71-.713.02-.383.411-.474.73-.506a.624.624,0,0,1,.756.616" transform="translate(-41.532 -53.384)" fill="#fec75b"/>
        <path id="Trazado_130517" data-name="Trazado 130517" d="M79.654,93.649a.882.882,0,0,1,.9.674c.067.281-.212.366-.461.369a.872.872,0,0,1-.944-.663c-.065-.272.217-.359.509-.38" transform="translate(-42.84 -50.696)" fill="#fec85b"/>
        <path id="Trazado_130518" data-name="Trazado 130518" d="M80.578,105.828c-.327.6-.718.8-1.268.629a.362.362,0,0,1-.1-.332c.322-.539.78-.466,1.368-.3" transform="translate(-42.873 -57.222)" fill="#fec85b"/>
        <path id="Trazado_130519" data-name="Trazado 130519" d="M100.017,100.166c-.415,0-.79-.006-.835-.415-.05-.451.274-.659.693-.668.4-.009.774.122.766.589-.007.4-.377.458-.623.494" transform="translate(-53.689 -53.637)" fill="#fecc5b"/>
        <path id="Trazado_130520" data-name="Trazado 130520" d="M98.321,105.2a1,1,0,0,1-1.346-.09c-.143-.147-.14-.39.065-.455a1.094,1.094,0,0,1,1.281.545" transform="translate(-52.443 -56.623)" fill="#fec75b"/>
        <path id="Trazado_130521" data-name="Trazado 130521" d="M98.216,93.013a.853.853,0,0,1-1.117.671c-.205-.044-.328-.216-.2-.408.308-.465.754-.42,1.319-.263" transform="translate(-52.427 -50.293)" fill="#fecc5b"/>
        <path id="Trazado_130522" data-name="Trazado 130522" d="M197.354,146.415a.653.653,0,0,1-.724.533c-.26,0-.644.066-.649-.322s.361-.506.7-.52c.265-.011.579-.061.671.31" transform="translate(-106.093 -79.088)" fill="#fecc5b"/>
        <path id="Trazado_130523" data-name="Trazado 130523" d="M197.426,135.361c-.006.331-.222.389-.468.364-.384-.039-.778-.157-.861-.574-.053-.263.265-.348.488-.368a.818.818,0,0,1,.842.577" transform="translate(-106.152 -72.962)" fill="#fec45b"/>
        <path id="Trazado_130524" data-name="Trazado 130524" d="M194.994,140.379c-.091.435-.433.427-.762.42-.3-.006-.645-.1-.623-.417.028-.4.434-.424.766-.42.288,0,.567.049.619.417" transform="translate(-104.808 -75.767)" fill="#fecd5b"/>
        <path id="Trazado_130525" data-name="Trazado 130525" d="M214.393,134.01c-.128.434-.477.524-.861.51-.26-.01-.632,0-.535-.411a.724.724,0,0,1,.825-.572c.258.027.561.094.571.474" transform="translate(-115.296 -72.286)" fill="#fec45b"/>
        <path id="Trazado_130526" data-name="Trazado 130526" d="M214.413,145.937c-.008.3-.223.355-.455.375-.374.032-.77.012-.909-.4-.132-.39.218-.422.481-.444a.788.788,0,0,1,.883.469" transform="translate(-115.317 -78.746)" fill="#fecd5b"/>
        <path id="Trazado_130527" data-name="Trazado 130527" d="M216.623,140.831c-.283-.02-.626-.021-.637-.389-.013-.478.393-.437.711-.435.282,0,.647.042.652.377.006.436-.4.425-.727.447" transform="translate(-116.923 -75.791)" fill="#fece5b"/>
        <path id="Trazado_130528" data-name="Trazado 130528" d="M168.2,203.478c-.4-.046-.777-.191-.8-.624s.376-.462.7-.472c.349-.009.67.068.7.5.028.41-.218.58-.6.6" transform="translate(-90.62 -109.558)" fill="#fecd5b"/>
        <path id="Trazado_130529" data-name="Trazado 130529" d="M171.293,209.325a2.145,2.145,0,0,1-1.82.779c.351-.949.885-1.112,1.82-.779" transform="translate(-91.743 -113.231)" fill="#fec15b"/>
        <path id="Trazado_130530" data-name="Trazado 130530" d="M169.606,197.651a1.167,1.167,0,0,1,1.661.525,1.243,1.243,0,0,1-1.661-.525" transform="translate(-91.815 -106.919)" fill="#feca5b"/>
        <path id="Trazado_130531" data-name="Trazado 130531" d="M191.226,203.138a.586.586,0,0,1-.591.673c-.384.053-.782,0-.851-.463a.658.658,0,0,1,.632-.754c.429-.063.633.278.81.544" transform="translate(-102.734 -109.669)" fill="#fec15b"/>
        <path id="Trazado_130532" data-name="Trazado 130532" d="M187.841,208.044c.323.181.877.135.877.7,0,.291-.314.31-.542.28a.885.885,0,0,1-.812-.66c-.067-.3.2-.358.477-.316" transform="translate(-101.422 -112.617)" fill="#fec15b"/>
        <path id="Trazado_130533" data-name="Trazado 130533" d="M187.393,196.948c.361-.43.768-.709,1.318-.467.19.083.1.332-.031.475-.413.439-.835.544-1.287-.008" transform="translate(-101.444 -106.315)" fill="#fec85b"/>
        <path id="Trazado_130534" data-name="Trazado 130534" d="M228.616,200.617a.5.5,0,0,1-.632.389c-.44-.063-.838-.279-.8-.77.024-.343.413-.306.679-.285a.735.735,0,0,1,.756.666" transform="translate(-122.982 -108.235)" fill="#fec65b"/>
        <path id="Trazado_130535" data-name="Trazado 130535" d="M226.17,206.1c-.027.436-.334.5-.673.5s-.725-.075-.763-.432c-.05-.472.389-.567.756-.594a.582.582,0,0,1,.68.522" transform="translate(-121.656 -111.287)" fill="#fec45b"/>
        <path id="Trazado_130536" data-name="Trazado 130536" d="M228.566,212.146c-.123.526-.481.587-.858.585-.266,0-.647,0-.589-.367a.8.8,0,0,1,.9-.658.552.552,0,0,1,.542.439" transform="translate(-122.946 -114.605)" fill="#fec65b"/>
        <path id="Trazado_130537" data-name="Trazado 130537" d="M246.3,199.775a.762.762,0,0,1-.782.641c-.269.012-.659.04-.662-.313-.005-.483.39-.7.838-.752.294-.032.555.055.607.423" transform="translate(-132.549 -107.914)" fill="#fec75b"/>
        <path id="Trazado_130538" data-name="Trazado 130538" d="M248.649,206.066c-.142.449-.489.522-.877.482-.358-.037-.66-.222-.567-.614.084-.356.436-.454.78-.416s.633.141.664.549" transform="translate(-133.813 -111.251)" fill="#fec65b"/>
        <path id="Trazado_130539" data-name="Trazado 130539" d="M246.2,211.7c-.085.415-.391.386-.661.378-.4-.012-.774-.166-.812-.6-.041-.469.359-.475.685-.433a.95.95,0,0,1,.788.656" transform="translate(-132.477 -114.238)" fill="#fec45b"/>
        <path id="Trazado_130540" data-name="Trazado 130540" d="M66.56,194.808c0,.439-.037.9-.552.985-.425.072-.506-.324-.544-.644a.834.834,0,0,1,.611-.965c.494-.128.416.342.485.624" transform="translate(-35.434 -105.109)" fill="#fec85b"/>
        <path id="Trazado_130541" data-name="Trazado 130541" d="M56.388,188.817c-.231-.01-.522-.038-.464-.331a.911.911,0,0,1,.861-.737c.267-.027.618.01.521.4a.909.909,0,0,1-.919.668" transform="translate(-30.27 -101.633)" fill="#fecb5b"/>
        <path id="Trazado_130542" data-name="Trazado 130542" d="M60.074,192.828c.338.05.377.279.349.51a.955.955,0,0,1-.711.91c-.293.064-.359-.225-.295-.467a1.226,1.226,0,0,1,.656-.953" transform="translate(-32.153 -104.386)" fill="#fec65b"/>
        <path id="Trazado_130543" data-name="Trazado 130543" d="M66.638,174.236c.052-.465.3-.871.737-.891.494-.023.458.519.5.851a.7.7,0,0,1-.631.795c-.478.054-.582-.357-.605-.755" transform="translate(-36.074 -93.839)" fill="#fec95b"/>
        <path id="Trazado_130544" data-name="Trazado 130544" d="M77.03,179.924c-.39.746-.677,1.2-1.312,1.238a.259.259,0,0,1-.28-.362c.251-.55.723-.777,1.592-.876" transform="translate(-40.824 -97.401)" fill="#fec75b"/>
        <path id="Trazado_130545" data-name="Trazado 130545" d="M73.508,175.433c-.129.4-.255.827-.772.831-.278,0-.378-.223-.284-.488.125-.354.292-.7.706-.766.288-.046.407.137.35.424" transform="translate(-39.202 -94.736)" fill="#fec25b"/>
        <path id="Trazado_130546" data-name="Trazado 130546" d="M171.325,247.167c.5.159,1.064.307,1.193.932.055.267-.241.351-.479.325a1.341,1.341,0,0,1-1.111-.885c-.121-.283.1-.392.4-.372" transform="translate(-92.512 -133.801)" fill="#febe5b"/>
        <path id="Trazado_130547" data-name="Trazado 130547" d="M170.878,253.955c.442.05.77.263.792.656.02.359-.355.344-.618.333-.374-.016-.784-.089-.763-.567.014-.3.363-.35.588-.422" transform="translate(-92.185 -137.477)" fill="#fec55b"/>
        <path id="Trazado_130548" data-name="Trazado 130548" d="M177.807,244.185c-.011.239-.033.509-.327.518-.472.015-.588-.375-.684-.733-.067-.255.028-.489.316-.492.446,0,.636.3.7.707" transform="translate(-95.696 -131.805)" fill="#fec75b"/>
        <path id="Trazado_130549" data-name="Trazado 130549" d="M193.037,252.924c-.025.416-.319.489-.577.53a.7.7,0,0,1-.834-.548c-.108-.415.267-.4.525-.411a.842.842,0,0,1,.886.428" transform="translate(-103.725 -136.685)" fill="#fec85b"/>
        <path id="Trazado_130550" data-name="Trazado 130550" d="M186.968,263.1c0,.354-.1.587-.379.553-.434-.053-.583-.411-.638-.8-.04-.278.116-.468.386-.439a.678.678,0,0,1,.631.682" transform="translate(-100.66 -142.055)" fill="#fec75b"/>
        <path id="Trazado_130551" data-name="Trazado 130551" d="M109.017,133.87c-.36-.049-.9.068-.925-.4-.023-.485.529-.6.929-.664.378-.064.857.057.892.458.048.561-.483.569-.9.6" transform="translate(-58.515 -71.886)" fill="#fec95b"/>
        <path id="Trazado_130552" data-name="Trazado 130552" d="M109.973,126.815c.47.009.841.211.867.683.022.394-.392.472-.7.518a.785.785,0,0,1-.928-.626c-.1-.526.467-.422.757-.575" transform="translate(-59.117 -68.65)" fill="#fec35b"/>
        <path id="Trazado_130553" data-name="Trazado 130553" d="M114.45,138.767a.741.741,0,0,1-.8.577c-.256,0-.477-.126-.435-.4.066-.445.455-.544.821-.6.269-.04.424.115.417.426" transform="translate(-61.284 -74.886)" fill="#fec35b"/>
        <path id="Trazado_130554" data-name="Trazado 130554" d="M128.793,133.758a.667.667,0,0,1,.822-.412c.433.071.854.3.769.793-.069.4-.514.305-.822.272a.868.868,0,0,1-.769-.653" transform="translate(-69.721 -72.176)" fill="#feca5b"/>
        <path id="Trazado_130555" data-name="Trazado 130555" d="M131.288,127.734a1.008,1.008,0,0,1-.963.758c-.292.039-.607-.1-.554-.443a.866.866,0,0,1,.969-.776c.321.013.448.261.548.461" transform="translate(-70.247 -68.898)" fill="#fec75b"/>
        <path id="Trazado_130556" data-name="Trazado 130556" d="M127.387,121.086c0,.093,0,.186,0,.278-.009.655-.464.857-1,.946a.368.368,0,0,1-.288-.215c-.043-.611.475-.719.881-.913a1.857,1.857,0,0,1,.405-.092l0,0" transform="translate(-68.264 -65.549)" fill="#fec25b"/>
        <path id="Trazado_130557" data-name="Trazado 130557" d="M159.864,53.2c.484.039.925.2,1.015.741.045.277-.249.348-.488.355a.969.969,0,0,1-1.086-.668c-.106-.394.286-.378.559-.427" transform="translate(-86.229 -28.801)" fill="#fec45b"/>
        <path id="Trazado_130558" data-name="Trazado 130558" d="M157.7,59.9c-.4-.028-.787-.089-.8-.469-.019-.472.421-.556.783-.57.343-.012.646.151.639.556-.007.446-.373.443-.62.483" transform="translate(-84.937 -31.864)" fill="#fec15b"/>
        <path id="Trazado_130559" data-name="Trazado 130559" d="M159.977,66.024c-.286-.038-.683.053-.677-.326.007-.485.4-.71.852-.715.307,0,.729.048.657.5-.068.426-.474.51-.832.544" transform="translate(-86.236 -35.178)" fill="#fec55b"/>
        <path id="Trazado_130560" data-name="Trazado 130560" d="M177.547,53.723c-.264-.046-.654-.024-.563-.417a.87.87,0,0,1,.944-.659c.253,0,.5.116.487.381-.024.522-.412.668-.867.7" transform="translate(-95.802 -28.5)" fill="#fec75b"/>
        <path id="Trazado_130561" data-name="Trazado 130561" d="M180.839,59.459a.641.641,0,0,1-.738.476c-.334-.009-.692-.092-.674-.5s.4-.473.714-.464.639.091.7.487" transform="translate(-97.131 -31.924)" fill="#fec75b"/>
        <path id="Trazado_130562" data-name="Trazado 130562" d="M178.366,64.921c.043.346-.171.421-.416.434a.891.891,0,0,1-.98-.62c-.1-.3.172-.4.414-.412a.964.964,0,0,1,.983.6" transform="translate(-95.79 -34.819)" fill="#fec85b"/>
        <path id="Trazado_130563" data-name="Trazado 130563" d="M233.436,105.113a.654.654,0,0,1-.873.433c-.3-.079-.709-.188-.561-.61s.569-.41.947-.37a.473.473,0,0,1,.487.548" transform="translate(-125.576 -56.597)" fill="#fec65b"/>
        <path id="Trazado_130564" data-name="Trazado 130564" d="M234.943,99.033c.42.02.812.087.872.529.058.426-.3.526-.631.5a.789.789,0,0,1-.776-.649c-.058-.391.325-.333.534-.382" transform="translate(-126.893 -53.611)" fill="#fec45b"/>
        <path id="Trazado_130565" data-name="Trazado 130565" d="M234.935,111.767c-.3-.018-.59-.107-.531-.374a.87.87,0,0,1,.929-.684c.253,0,.53.1.471.369a.851.851,0,0,1-.87.689" transform="translate(-126.889 -59.932)" fill="#fec95b"/>
        <path id="Trazado_130566" data-name="Trazado 130566" d="M255.912,105.014c-.033.406-.36.509-.666.559-.395.065-.749-.059-.782-.531-.024-.347.252-.451.545-.467.375-.022.733.013.9.439" transform="translate(-137.752 -56.608)" fill="#e8b555"/>
        <path id="Trazado_130567" data-name="Trazado 130567" d="M253.5,98.9a.88.88,0,0,1-.857.566c-.292-.012-.6-.15-.533-.495.1-.545.569-.535.993-.508.233.015.472.082.4.437" transform="translate(-136.473 -53.294)" fill="#e8b655"/>
        <path id="Trazado_130568" data-name="Trazado 130568" d="M253.552,110.721c-.064.4-.344.445-.617.409-.429-.059-.8-.261-.815-.746-.009-.292.289-.3.513-.3a1.006,1.006,0,0,1,.92.64" transform="translate(-136.483 -59.592)" fill="#fec95b"/>
      </g>
    </g>
  </g>
</svg>
