<svg id="Grupo_157824" data-name="Grupo 157824" xmlns="http://www.w3.org/2000/svg" xmlns:xlink="http://www.w3.org/1999/xlink" width="315" height="253.51" viewBox="0 0 315 253.51">
  <defs>
    <clipPath id="clip-path">
      <rect id="Rect치ngulo_37493" data-name="Rect치ngulo 37493" width="31.662" height="155.406" fill="#fff"/>
    </clipPath>
  </defs>
  <g id="Grupo_85023" data-name="Grupo 85023">
    <rect id="Rect치ngulo_34651" data-name="Rect치ngulo 34651" width="315" height="170" transform="translate(0 83.51)" fill="#6b8dff"/>
    <g id="Grupo_84254" data-name="Grupo 84254" transform="translate(20 0)">
      <g id="Grupo_84000" data-name="Grupo 84000" transform="translate(0 0)">
        <path id="Trazado_118280" data-name="Trazado 118280" d="M153.844,260.461q1.2-.2,2.42-.329c9.524-1,19.038,1.6,28.608,1.95,17.246.633,34.142-6.148,48.252-16.087s25.773-22.914,36.935-36.076c12-14.151,24.265-30.864,22.133-49.294-1.554-13.433-10.581-24.753-20.16-34.3-12.117-12.078-25.638-22.591-38.6-33.715-12.9-11.062-23.176-25.694-36.23-36.083-25.318-20.152-64.385-22.921-93.363-9.99C85.243,54.833,69.94,68.9,53,80.184c-12.12,8.075-25.648,15.244-33.431,27.553-9.43,14.915-8.31,34.063-5.164,51.426,5.324,29.378,16.037,58.687,36.5,80.428s52.013,34.594,80.929,27.161C139.227,264.852,146.341,261.7,153.844,260.461Z" transform="translate(-12.141 -38.664)" fill="#ffbfc1"/>
      </g>
      <g id="Grupo_157823" data-name="Grupo 157823" transform="translate(70 19.99)">
        <g id="Grupo_157827" data-name="Grupo 157827">
          <path id="Trazado_129999" data-name="Trazado 129999" d="M29.054,18.233c1.335-3.325,6.144-5.157,6.144-5.157-.867-1.56-7.548-12.5-6-13.061S42.479,15.156,42.479,15.156c2.431-4.054,9.62-8.409,6.98-2.678s-1.428,15.474-1.428,15.474,3.319,29.307,7.2,59.963c19.747,1.8,38.268,3.281,48.034,3.5a45.319,45.319,0,0,1,11.18,1.476c9.7,2.741,11.947,15.544,3.567,21.151-3.289,2.2-8.072,3.836-15.052,3.886a355.988,355.988,0,0,1-44.027-1.9c-6.11-.688-12.517-1.612-19.089-2.849a12.824,12.824,0,0,1-10.354-11.751c-.365-5.188-.585-10.555-.6-16.049-.06-18.322,2.134-37.981,8.6-56.877-5.609-2.827-9.625-7.309-8.432-10.278" transform="translate(-28.844 0)" fill="#fa9778"/>
          <path id="Trazado_130000" data-name="Trazado 130000" d="M29.72,56.112,28.056,86.431s44.3,9.4,42.991-15.661c0,0,.739-18.33-41.327-14.658" transform="translate(24.506 32.361)" fill="#b4cbdd"/>
          <path id="Trazado_130001" data-name="Trazado 130001" d="M70.482,84.167C67.554,79.073,69.3,56.2,69.3,56.2s-6.245,13.5-5.1,27.379Z" transform="translate(-31.858 32.698)" fill="#450d20"/>
          <path id="Trazado_130002" data-name="Trazado 130002" d="M14.947,106.459C18.048,90.516,17,73.546,27.829,70.827c7.107-1.786,11.645-1.855,15.661-4.521.677-1.068,2.309-3.712,3.869-6.8a35.734,35.734,0,0,0,3.216-8.4l0-.011a7.779,7.779,0,0,0,.09-3.345L83.514,40.5c-.049.089-.085.169-.134.256-1.235,2.471-10.827,21.879-10.652,33.774a21.349,21.349,0,0,0,7.384,4.181A15.043,15.043,0,0,1,88.367,85.3c2.521,4.389,3.663,11.533-1.859,22.551-11.044,22.036-21.057,42.032-23.834,56.662L5.188,147.044s6.36-23.1,9.76-40.585" transform="translate(41.294 23.564)" fill="#fa9778"/>
          <path id="Trazado_130003" data-name="Trazado 130003" d="M14.472,56.161c14.666,6.56,27.925-9.307,28.415-9.9a18.8,18.8,0,0,1-13.26,4.5,31.247,31.247,0,0,1-11.852-2.948c-.028-.021-.059-.03-.087-.051a35.708,35.708,0,0,1-3.216,8.4" transform="translate(74.182 26.913)" fill="#450d20"/>
          <path id="Trazado_130004" data-name="Trazado 130004" d="M5.579,135.66c8.447,1.509,52.874,9.682,63.608,16.131a1.18,1.18,0,0,0,1.8-.838A113.382,113.382,0,0,1,75.53,130.6c.168-.549.351-1.082.549-1.631.106-.305.214-.611.335-.9.182-.533.381-1.052.595-1.571a55.756,55.756,0,0,1,2.972-6.4C85.972,109.162,95.03,92.269,93.4,80.437a13.388,13.388,0,0,0-6.205-9.331l-10.84-6.844s-18.143,5.96-30.981-7.121c0,0-16.1,3.126-17.229,2.928-1.158-.2-7.455,4.559-10.305,25.721-2.471,18.478-11.023,42.475-13.159,48.3a1.176,1.176,0,0,0,.9,1.571" transform="translate(39.089 33.243)" fill="#b4cbdd"/>
          <path id="Trazado_130005" data-name="Trazado 130005" d="M42.758,68.232A15.473,15.473,0,0,1,52.9,58.811l-.345-1.485A16.8,16.8,0,0,0,41.326,67.71Z" transform="translate(21.689 33.351)" fill="#450d20"/>
          <path id="Trazado_130006" data-name="Trazado 130006" d="M46.058,104.745l.875-1.248c-.082-.059-8.42-5.982-11.874-13.972l-1.4.6c3.629,8.391,12.042,14.366,12.4,14.616" transform="translate(39.786 52.083)" fill="#450d20"/>
          <path id="Trazado_130007" data-name="Trazado 130007" d="M49.921,108.371l1.223-.914c-.106-.141-10.639-14.25-12.3-19.865l-1.46.432c1.734,5.878,12.094,19.759,12.536,20.348" transform="translate(29.682 50.958)" fill="#450d20"/>
          <path id="Trazado_130008" data-name="Trazado 130008" d="M15.674,103.6l.229,1.509,6.495-.93c.168-.549.351-1.082.549-1.631Z" transform="translate(92.22 59.66)" fill="#450d20"/>
          <path id="Trazado_130009" data-name="Trazado 130009" d="M15.086,99.483l4.529,4.574c.182-.535.381-1.052.595-1.571l-4.041-4.071Z" transform="translate(95.888 57.255)" fill="#450d20"/>
          <path id="Trazado_130010" data-name="Trazado 130010" d="M13.871,36.109C8.29,33.279,4.306,28.817,5.5,25.858,6.83,22.533,11.637,20.7,11.637,20.7c-.867-1.561-7.547-12.5-6-13.062S18.92,22.781,18.92,22.781c2.431-4.054,9.62-8.409,6.979-2.678S24.47,35.578,24.47,35.578l-.033.006c.179,1.568,3.418,30.085,7.191,59.887,19.747,1.8,38.268,3.281,48.034,3.5a45.319,45.319,0,0,1,11.18,1.476c9.7,2.741,11.947,15.544,3.567,21.15-3.288,2.2-8.072,3.837-15.052,3.888a355.988,355.988,0,0,1-44.027-1.9c-6.11-.688-12.517-1.612-19.089-2.85A12.821,12.821,0,0,1,5.886,108.992c-.365-5.188-.585-10.557-.6-16.049-.06-18.307,2.131-37.951,8.586-56.835" transform="translate(32.024 4.436)" fill="#fa9778"/>
          <path id="Trazado_130011" data-name="Trazado 130011" d="M4.656,64.493V94.858S49.4,101.813,46.723,76.864c0,0-.267-18.342-42.067-12.371" transform="translate(85.757 36.824)" fill="#b4cbdd"/>
          <path id="Trazado_130012" data-name="Trazado 130012" d="M21,87.682c14.761,0,24.084-6.514,24.2-6.6l-.886-1.24c-.146.1-14.657,10.2-36.136,4.649L7.8,85.969A52.577,52.577,0,0,0,21,87.682" transform="translate(82.421 46.451)" fill="#450d20"/>
          <path id="Trazado_130013" data-name="Trazado 130013" d="M36.655,64.75V92.533l-5.331-28.2Z" transform="translate(53.757 37.427)" fill="#450d20"/>
          <path id="Trazado_130014" data-name="Trazado 130014" d="M3.824,49.8c3.325-11.443,7.588-24.71,15.049-34.207,6.526-8.307,24.911-6.724,33.769,7.4,4.116,6.564,2.613,15.737-.166,23.685a4.473,4.473,0,0,1,.813-.076c2.637.134,4.538,2.729,4.571,5.256a6.939,6.939,0,0,1-2.537,5.264,8.738,8.738,0,0,1-4.76,2.017,11.184,11.184,0,0,1-3.364-.669A25.409,25.409,0,0,1,35.032,69.678a22.981,22.981,0,0,1-20.138-.949c-4.883-2.665-11.582-8.349-11.852-14.34A14.3,14.3,0,0,1,3.824,49.8" transform="translate(77.299 6.13)" fill="#fa9778"/>
          <path id="Trazado_130015" data-name="Trazado 130015" d="M31.664,27.894c-.531,1.748-1.653,2.955-2.507,2.7s-1.115-1.887-.584-3.635S30.226,24,31.081,24.261s1.115,1.885.584,3.633" transform="translate(63.259 14.094)" fill="#450d20"/>
          <path id="Trazado_130016" data-name="Trazado 130016" d="M20.11,29.527c-.531,1.748-.269,3.374.584,3.633s1.977-.946,2.507-2.694.27-3.375-.584-3.633-1.976.946-2.507,2.694" transform="translate(85.109 15.59)" fill="#450d20"/>
          <path id="Trazado_130017" data-name="Trazado 130017" d="M23.388,32.472a7.913,7.913,0,0,0,1.525,3.357,6.174,6.174,0,0,0,3.111,2.2,6.256,6.256,0,0,0,3.806-.142,11.845,11.845,0,0,0,1.694-.781c.506-.357,1-.718,1.469-1.107-.584.2-1.131.444-1.678.672-.577.147-1.121.38-1.689.478a6.671,6.671,0,0,1-3.32-.06,6.518,6.518,0,0,1-2.817-1.761,13.973,13.973,0,0,1-2.1-2.855" transform="translate(67.972 18.891)" fill="#450d20"/>
          <path id="Trazado_130018" data-name="Trazado 130018" d="M27.1,36.82a2.65,2.65,0,0,0,1.46,1.046,2.778,2.778,0,0,0,1.8-.057,8.544,8.544,0,0,1-1.685-.312A7.251,7.251,0,0,1,27.1,36.82" transform="translate(66.726 21.421)" fill="#450d20"/>
          <path id="Trazado_130019" data-name="Trazado 130019" d="M16.136,21.457A3.837,3.837,0,0,1,18.8,21.3a7.7,7.7,0,0,1,2.441,1.137A6.515,6.515,0,0,1,23.1,24.4a6.806,6.806,0,0,1,.936,2.431.773.773,0,0,1-1.422.555l-.046-.076a9.509,9.509,0,0,0-1.158-1.677,5.587,5.587,0,0,0-1.474-1.2,6.9,6.9,0,0,0-1.773-.732A7.321,7.321,0,0,1,16.242,23l-.18-.108a.808.808,0,0,1,.074-1.432" transform="translate(91.134 12.295)" fill="#450d20"/>
          <path id="Trazado_130020" data-name="Trazado 130020" d="M35.264,20.6a3.835,3.835,0,0,0-2.126-1.615,7.756,7.756,0,0,0-2.661-.413,6.523,6.523,0,0,0-2.637.6,6.833,6.833,0,0,0-2.131,1.5.774.774,0,0,0,.873,1.253l.081-.038a9.506,9.506,0,0,1,1.893-.748,5.561,5.561,0,0,1,1.9-.18,6.794,6.794,0,0,1,1.879.378,7.327,7.327,0,0,0,1.987.479l.209.011a.808.808,0,0,0,.736-1.231" transform="translate(64.28 10.803)" fill="#450d20"/>
          <path id="Trazado_130021" data-name="Trazado 130021" d="M31.06,23.879c-.636,1.109-1.2,2.232-1.773,3.338s-1.155,2.2-1.824,3.209c-.161.255-.331.5-.511.737a3.069,3.069,0,0,0-.579.94,2.151,2.151,0,0,0,.539,2.213,2.608,2.608,0,0,0,1.985.721,5.156,5.156,0,0,0,1.887-.47c-1.235.079-2.63.011-3.232-.816a1.271,1.271,0,0,1-.206-1.294,2.372,2.372,0,0,1,.444-.633c.21-.259.4-.527.585-.8a17.515,17.515,0,0,0,1.686-3.464,20.141,20.141,0,0,0,1-3.682" transform="translate(67.361 13.892)" fill="#450d20"/>
          <path id="Trazado_130022" data-name="Trazado 130022" d="M12.431,34.83a13.872,13.872,0,0,0-3.744,1.5A10.8,10.8,0,0,0,5.7,38.814l-.677-.834a12.52,12.52,0,0,1,3.2-1.248,4.792,4.792,0,0,1,1.846-.084,2.088,2.088,0,0,1,1.6,1.291,3.136,3.136,0,0,1-.9,3.439,4.563,4.563,0,0,1-3.1,1.265,4.925,4.925,0,0,0,2.616-1.7,2.466,2.466,0,0,0,.473-2.6c-.3-.748-1.292-.729-2.289-.506a14,14,0,0,0-2.92,1.106l-.028.014A.542.542,0,0,1,4.87,38.1a9.88,9.88,0,0,1,3.48-2.458,10.119,10.119,0,0,1,4.081-.816" transform="translate(120.052 20.262)" fill="#450d20"/>
          <path id="Trazado_130023" data-name="Trazado 130023" d="M42.241,53.4s-2.2-2.785-4.824-1.022a48.186,48.186,0,0,1-5.225,2.812,2.083,2.083,0,0,1-2.936-2.324l2.123-9.731a10.83,10.83,0,0,0-1.518-8.243c-2.885-4.419-8.116-11-14.391-12.452,0,0,.174,3.11,2.08,4.208,0,0-8.815-2.811-11.724-7.336,0,0-2.759,3.271-3.7,4.756,0,0-5.865-11.689,1.893-22.243,0,0,16.645,9.307,23.728,10.958,6.89,1.607,16.5,9.676,14.763,18.693,0,0,13.336,2.282-.267,21.922" transform="translate(91.604 1.06)" fill="#450d20"/>
          <path id="Trazado_130024" data-name="Trazado 130024" d="M41.608,147.965c4.279-5.433,7.95-9.788,10.8-12.7C61.048,126.42,68.86,118.8,75.743,112.7c11.618,1.2,23.088,3.323,34.559,5.593l2.344,16.773-11.338,12.9Z" transform="translate(-38.5 65.566)" fill="#f28e6f"/>
          <path id="Trazado_130025" data-name="Trazado 130025" d="M21.621,145.737c4.024-12.044,7.841-21.958,11.5-29.206l1.2.236c7.637,1.523,15.267,3.007,22.855,4.753,1.171.27,2.313.535,3.447.789l4.114,8.611L63.04,145.737Z" transform="translate(41.03 67.794)" fill="#fa9778"/>
          <path id="Trazado_130026" data-name="Trazado 130026" d="M18.471,151.246l20.713-24.731a.015.015,0,0,1,.016-.016.253.253,0,0,1,.06-.076,9.854,9.854,0,0,1,1.4-1.677l3.6-3.323,1.19-1.084,14.423-13.279L65,108.4l1.587.411L114.15,121.24l1.479.4,3.659.96,1.511.4,6.738,1.754s1.4,7.865-.8,26.5Z" transform="translate(-17.234 62.285)" fill="#69ceff"/>
          <path id="Trazado_130027" data-name="Trazado 130027" d="M23.009,145.532c.31-2.784.569-5.414.788-7.868.046-.519.09-1.022.136-1.525.794-9.3.962-15.963.976-19.256l1.511.4c-.052,4.529-.362,14.461-1.89,28.254Z" transform="translate(77.146 67.999)" fill="#450d20"/>
          <path id="Trazado_130028" data-name="Trazado 130028" d="M57.285,120.93a8.221,8.221,0,0,0,4.239,1.174,9.494,9.494,0,0,0,1.723-.168c7.271-1.326,14.255-10.611,16.359-13.614l-1.585-.413c-2.349,3.249-8.752,11.374-15.049,12.534a6.837,6.837,0,0,1-4.5-.595Z" transform="translate(-30.257 62.778)" fill="#450d20"/>
          <path id="Trazado_130029" data-name="Trazado 130029" d="M25.853,135.052a6.413,6.413,0,0,0,4.6,3.11,2.281,2.281,0,0,0,.32.062l.214-1.509a2.963,2.963,0,0,1-.4-.077,4.977,4.977,0,0,1-3.447-2.377c-2.866-4.742-.244-14.546.762-17.839l-1.479-.4c-1.082,3.521-3.8,13.736-.579,19.027" transform="translate(70.485 67.5)" fill="#450d20"/>
          <g id="Grupo_157828" data-name="Grupo 157828" transform="translate(-1 12.478)">
            <g id="Grupo_157827-2" data-name="Grupo 157827" transform="translate(9 -15)" clip-path="url(#clip-path)">
              <path id="Trazado_130036" data-name="Trazado 130036" d="M1.434,13.772a4.84,4.84,0,0,1-1.107-1.5A3.184,3.184,0,0,1,1.96,7.939c1.292-.613,2.367-.2,3.847,1.25L18.072,21.124,16.276,4.48c-.257-2.208.068-3.374,1.574-4.089a2.839,2.839,0,0,1,4.112,1.344,6.111,6.111,0,0,1,.56,2.2l1.566,22.732c.136,2.046-.365,3.119-1.8,3.8-1.4.664-2.475.341-3.8-.876Z" transform="translate(0 0)" fill="#fff"/>
              <path id="Trazado_130037" data-name="Trazado 130037" d="M19.817,107.494c2.962,1.035,5.541-.208,6.891.263a2.336,2.336,0,0,1,1.562,3.112c-.812,2.325-5.478,3.638-10.614,1.843a10.691,10.691,0,0,1-6.577-14.036c2.11-6.035,7.968-9.077,13.629-7.1a10.136,10.136,0,0,1,6.214,13.152c-.708,2.024-1.776,2.072-3.762,1.377l-10.571-3.695c-.511,2.3.68,4.192,3.229,5.083m5.843-6.245a4.006,4.006,0,0,0-2.592-4.86,4.255,4.255,0,0,0-5.2,2.135Z" transform="translate(-4.75 -41.6)" fill="#fff"/>
              <path id="Trazado_130038" data-name="Trazado 130038" d="M13.506,174.808c-2.049-2.27-2.3-4.025-.7-5.463a3.325,3.325,0,0,1,3.541-.521,5.91,5.91,0,0,1,1.744-4.409,3.171,3.171,0,0,1,4.434.171c1.675,1.857-.254,3.867-1.343,6.454-.739,1.789-.38,2.483,1.057,4.075L26.6,179.95c2.049,2.27,2.322,4.055.731,5.491s-3.34.982-5.389-1.288Z" transform="translate(-5.38 -74.806)" fill="#fff"/>
              <path id="Trazado_130039" data-name="Trazado 130039" d="M33.227,242.763a2.827,2.827,0,0,1,.871,4.208,6.173,6.173,0,0,1-1.661,1.509L11.78,261.762c-1.455.929-2.55,1.333-3.7.548a2.837,2.837,0,0,1-.849-4.24,4.981,4.981,0,0,1,1.638-1.477l5.295-3.159,3.121-15.722a4.17,4.17,0,0,1,.693-1.643,3.043,3.043,0,0,1,4.273-.826c1.442.988,1.425,2.276.915,4.285l-2.428,9.794,8.812-6.044c1.489-1.049,2.626-1.233,3.674-.515" transform="translate(-3.029 -107.32)" fill="#fff"/>
            </g>
          </g>
        </g>
      </g>
    </g>
  </g>
</svg>
