<svg id="Grupo_157561" data-name="Grupo 157561" xmlns="http://www.w3.org/2000/svg" xmlns:xlink="http://www.w3.org/1999/xlink" width="156.512" height="159" viewBox="0 0 156.512 159">
  <defs>
    <clipPath id="clip-path">
      <rect id="Rectángulo_37374" data-name="Rectángulo 37374" width="156.512" height="159" fill="none"/>
    </clipPath>
  </defs>
  <g id="Grupo_157561-2" data-name="Grupo 157561" transform="translate(0 0)" clip-path="url(#clip-path)">
    <path id="Trazado_128885" data-name="Trazado 128885" d="M65.51,159c-2.058-.843-4.288-.765-6.429-1.158a70.43,70.43,0,0,1-34.555-16.707A70.239,70.239,0,0,1,1.04,99.268,71.849,71.849,0,0,1,55.62,17.063a3.724,3.724,0,0,1,.6-.158c1.163-.068,1.279-.418.68-1.469A10.292,10.292,0,0,1,72.846,2.785c4.287,3.974,8.541,7.994,11.774,12.932a1.9,1.9,0,0,0,1.367.849,70.047,70.047,0,0,1,17.532,5.947,1.573,1.573,0,0,0,1.816-.222c3.436-2.294,6.859-4.611,10.339-6.84A11.426,11.426,0,0,1,133.351,22.7a10.52,10.52,0,0,1-.647,6.531c-.361.818-.225,1.033.643,1.336a11.389,11.389,0,0,1,7.032,15.151c-.2.54-.637.933.408,1.32,6.971,2.574,9.661,8.715,7.009,15.734a4.01,4.01,0,0,0-.117.485c4.411,1.294,7.392,4.058,8.493,8.577a11.2,11.2,0,0,1-4.681,12.082c-2.158,1.509-4.361,2.957-6.588,4.362a2.228,2.228,0,0,0-1.2,2.092,66.236,66.236,0,0,1-.971,9.245c-.209,1.31-.7,2.388-2.19,2.641-1.889.721-3.1-.836-3.079-2.539a42.136,42.136,0,0,1,.518-4.461c.057-.495.336-1.122-.158-1.447-.442-.292-.849.222-1.213.469-6.54,4.452-13.255,8.639-19.782,13.11-1.895,1.163-3.673,2.508-5.6,3.624a15.717,15.717,0,0,1-10.1,2.178,12.858,12.858,0,0,0-10.063,2.63c-.738.589-1.072,1.061-.7,2.065,1.365,3.665.317,6.819-2.991,9-11.365,7.473-22.638,15.081-34.037,22.5a4.546,4.546,0,0,0-1.464,1.171,63.32,63.32,0,0,0,14.869,2.9,47.513,47.513,0,0,0,8.971.112,66.56,66.56,0,0,0,18.314-3.708,65.878,65.878,0,0,0,25.032-15.881,68.886,68.886,0,0,0,13.026-18.37c.822-1.671,1.42-3.438,2.149-5.148a4.141,4.141,0,0,1,1.786-2.266,1.591,1.591,0,0,1,2.124.155c1.616,1.2,1.909,1.942,1.213,3.673q-15.246,38.013-55.427,46c-2.193.438-4.463.358-6.628.981h-.932c-.186-.2-.434-.148-.666-.161-.178,0-.357,0-.535,0-.232.011-.478-.043-.663.161H71.41a2.381,2.381,0,0,0-1.863,0H67.993a.706.706,0,0,0-.93,0Z" transform="translate(0 0)"/>
    <path id="Trazado_128886" data-name="Trazado 128886" d="M118.348,80.75c-2.1-.283-2.72.174-3.677,2.592-7.392,18.67-20.5,31.632-39.175,38.9a65.883,65.883,0,0,1-27.247,4.142,11.822,11.822,0,0,1-1.364-.216.889.889,0,0,1,.8-.387c4.354.038,8.136-1.909,11.9-3.664A69.2,69.2,0,0,0,96.155,80.979a4.671,4.671,0,0,1,.764-1.5q9.447-6.309,18.9-12.619a5.91,5.91,0,0,1,.906-.589c.636-.273,1.2-1.274,1.822-.812.486.361.128,1.365.044,2.075-.154,1.279-.405,2.546-.55,3.826-.266,2.327.377,3.089,2.707,3.306-.383.277-.95.25-1.1.9-.391,1.738-.861,3.459-1.3,5.187" transform="translate(19.803 27.594)" fill="#7570d5"/>
    <path id="Trazado_128887" data-name="Trazado 128887" d="M121.787,50.4a5.777,5.777,0,0,1,4.306,4.749,6.143,6.143,0,0,1-2.594,6.642c-2.262,1.613-4.626,3.084-6.934,4.631s-2.341,3.226-.075,4.835a6.814,6.814,0,0,0,5.031-.634c2.013-1.02,3.943-2.189,5.972-3.176a4.094,4.094,0,0,1,1.727-.6,5.8,5.8,0,0,1,4.554,4.919,6.2,6.2,0,0,1-2.86,6.705c-5.027,3.36-10.072,6.687-15.111,10.026-7.839,5.193-15.694,10.36-23.507,15.592a12.375,12.375,0,0,1-9.066,2.269c-4.891-.734-9.19.842-13.025,3.789-1.02.784-1.471.677-2.189-.417Q55.241,90.309,42.352,70.957a2.79,2.79,0,0,1-.465-2.421c2.361-10.05,4.785-20.089,6.918-30.19a34.219,34.219,0,0,0-4.566-25.6,7.2,7.2,0,0,1-1.4-3.4,5.135,5.135,0,0,1,2.89-5.223,4.993,4.993,0,0,1,5.927.68c7.467,6.568,13.76,14,17,23.625.593,1.759,1.264,3.492,1.922,5.229.88,2.328,2.387,2.83,4.466,1.458q12.673-8.374,25.329-16.775a6.67,6.67,0,0,1,5.56-1.215,6.2,6.2,0,0,1,4.863,4.882,6.077,6.077,0,0,1-2.4,6.6c-2.293,1.674-4.677,3.233-7.088,4.734a2.977,2.977,0,0,0-1.556,3.641c-.457,1.936.145,2.587,2.277,2.469a6.272,6.272,0,0,0,2.62-.858c2.6-1.381,5.156-2.83,7.793-4.135a2.866,2.866,0,0,1,1.885-.518,5.9,5.9,0,0,1,4.226,5.179,6.093,6.093,0,0,1-2.714,6.165c-2.269,1.6-4.623,3.077-6.931,4.62-1.761,1.178-2,1.886-1.336,3.886-.767.936-.3,1.442.614,1.821a4.563,4.563,0,0,0,4.129-.5c2.718-1.468,5.428-2.951,8.181-4.35.4-.2.775-.529,1.283-.361" transform="translate(17.65 1.459)" fill="#fcd6bc"/>
    <path id="Trazado_128888" data-name="Trazado 128888" d="M37.723,66.2c-1.383,1.613-1.412,2.347-.137,4.251q12.9,19.24,25.829,38.459c.764,1.128.693,1.586-.459,2.333-6.241,4.044-12.429,8.17-18.606,12.309a1.843,1.843,0,0,1-2.089.155Q11.113,108.526,4.2,74.581a1.466,1.466,0,0,1,.774-1.764q11.35-7.412,22.63-14.928c.808-.536,1.269-.671,1.785.312.478.909,1.185,1.694,1.7,2.586a2.952,2.952,0,0,0,3.5,1.592.43.43,0,0,1,.555-.082c1.206,1.07,2.355,2.186,2.576,3.909" transform="translate(1.751 24.275)" fill="#86dafe"/>
    <path id="Trazado_128889" data-name="Trazado 128889" d="M54.048,59.186c-3.936-2.64-5.96-2.631-9.826-.071Q24.7,72.038,5.173,84.964c-.42.277-.856.531-1.488.92a58.584,58.584,0,0,1-.134-8.507A67.126,67.126,0,0,1,54.16,15.739c4.727-1.165,4.719-1.163,5.826,3.691a34.909,34.909,0,0,1-.523,16.414c-1.913,7.715-3.6,15.487-5.415,23.342" transform="translate(1.461 6.377)" fill="#927de1"/>
    <path id="Trazado_128890" data-name="Trazado 128890" d="M29.143,70.13c-1-1.313-1.56-2.983-3.132-3.826,1.748-1.451,1.9-2.358.681-4.226-.649-1-1.279-2.006-1.981-2.961-.417-.568-.293-.861.252-1.219,4.708-3.085,9.392-6.209,14.11-9.279,1.245-.809,2.068-.5,3.05.979Q50.517,62.25,58.9,74.91,66.68,86.666,74.456,98.429c1.357,2.054,1.243,2.579-.853,3.97-4.175,2.769-8.382,5.492-12.511,8.326-1.043.715-1.461.513-2.108-.455Q46.048,90.87,33.037,71.516c-1.2-1.785-1.889-2.021-3.894-1.387" transform="translate(10.332 20.35)" fill="#6fc6fe"/>
    <path id="Trazado_128891" data-name="Trazado 128891" d="M101.547,75.275a62.432,62.432,0,0,1-9.254,19.417A69.129,69.129,0,0,1,69.385,115.7a77.223,77.223,0,0,1-13.575,5.931c-1.429.485-2.873.127-4.3.34a54.972,54.972,0,0,1-15.586-3.128c.169-.478.633-.627.987-.862Q53.956,106.684,71,95.4c4.5-2.977,5.223-5.038,3.4-10.1-.208-.579.054-.711.385-.97,3.345-2.621,6.991-4.048,11.365-3.341A14.181,14.181,0,0,0,95.8,78.913c1.949-1.158,3.835-2.422,5.749-3.638" transform="translate(15.175 31.793)" fill="#927de1"/>
    <path id="Trazado_128892" data-name="Trazado 128892" d="M62.182,15.63a61.489,61.489,0,0,1,11.1,3.866l-7.494,4.977c-1.168-2.926-2.125-5.8-3.609-8.843" transform="translate(26.263 6.601)" fill="#746fd5"/>
    <path id="Trazado_128893" data-name="Trazado 128893" d="M97.447,25.047c-3.311,1.759-6.61,3.545-9.942,5.264a4.886,4.886,0,0,1-4.724.171c-1.047-.542-1.5-1.07-.25-1.889.156-.1.229-.334.341-.5,1.548,1.649,2.364,1.755,4.253.523,1.546-1.007,3.057-2.071,4.628-3.035a5.763,5.763,0,0,1,5.694-.529" transform="translate(34.538 10.357)" fill="#f8c3a9"/>
    <path id="Trazado_128894" data-name="Trazado 128894" d="M102.564,36.592c-3.345,1.825-6.667,3.7-10.048,5.449a4.067,4.067,0,0,1-4.142-.091c-1.42-.848-1.438-1.026-.018-1.967,1.579,1.31,2.33,1.373,3.993.29,1.552-1.011,3.072-2.071,4.641-3.055a5.889,5.889,0,0,1,5.574-.626" transform="translate(36.872 15.27)" fill="#f8c4a9"/>
    <path id="Trazado_128895" data-name="Trazado 128895" d="M107.039,48.14a77.531,77.531,0,0,1-9.066,4.8,3.814,3.814,0,0,1-3.665-.388,3.775,3.775,0,0,0,2.9-.762q2.212-1.566,4.523-2.994a5.743,5.743,0,0,1,5.307-.653" transform="translate(39.832 20.171)" fill="#f8c3a9"/>
  </g>
</svg>
