<svg xmlns="http://www.w3.org/2000/svg" xmlns:xlink="http://www.w3.org/1999/xlink" width="85" height="85" viewBox="0 0 85 85">
  <defs>
    <clipPath id="clip-path">
      <rect id="Rectángulo_37349" data-name="Rectángulo 37349" width="55" height="55.04" fill="none"/>
    </clipPath>
  </defs>
  <g id="Grupo_157476" data-name="Grupo 157476" transform="translate(-705.5 -1019)">
    <circle id="Elipse_4839" data-name="Elipse 4839" cx="42.5" cy="42.5" r="42.5" transform="translate(705.5 1019)" fill="#3c3fa7"/>
    <g id="Grupo_157466" data-name="Grupo 157466" transform="translate(720.5 1034)">
      <g id="Grupo_157465" data-name="Grupo 157465" transform="translate(0 0)" clip-path="url(#clip-path)">
        <path id="Trazado_128411" data-name="Trazado 128411" d="M29.44,0a15.093,15.093,0,0,0,2.141.3A27.516,27.516,0,1,1,.735,33.843a27.856,27.856,0,0,1-.629-3.915c-.008-.1.03-.221-.106-.273v-4.3c.132-.93.087-1.876.289-2.8a9.7,9.7,0,0,1,.243-1.094.945.945,0,0,1,1.023-.755.984.984,0,0,1,.783,1.34,25.3,25.3,0,0,0-.583,5.808,25.943,25.943,0,0,0,2.057,9.762,25.422,25.422,0,0,0,6.378,8.937,25.263,25.263,0,0,0,11.681,6.079,25.026,25.026,0,0,0,6.717.612A25.83,25.83,0,0,0,52.5,33.737a24.63,24.63,0,0,0,.747-7.345A25.695,25.695,0,0,0,29.47,1.845,25.192,25.192,0,0,0,15.8,4.568,25.541,25.541,0,0,0,5.12,14.774a25.2,25.2,0,0,0-1.746,3.743c-.285.766-.674,1-1.366.862a.931.931,0,0,1-.491-1.3A27.722,27.722,0,0,1,15.089,2.8,26.481,26.481,0,0,1,23.661.131C24.222.058,24.8.1,25.357,0Z" transform="translate(0 0)"/>
        <path id="Trazado_128412" data-name="Trazado 128412" d="M2.9,22.1q.215-.759.43-1.518c.658.067.9-.087,1.148-.767a25.283,25.283,0,0,1,6.7-10.03A25.2,25.2,0,0,1,25.583,3.1,25.192,25.192,0,0,1,45,8.629a24.955,24.955,0,0,1,9.238,15.565,25.1,25.1,0,0,1-4.482,19.731A24.973,24.973,0,0,1,33.391,54.246a25.061,25.061,0,0,1-19.864-4.554A25.2,25.2,0,0,1,3.3,33.381,25.285,25.285,0,0,1,3.49,23.208.863.863,0,0,0,2.9,22.1" transform="translate(-1.267 -1.28)" fill="#d72e3d"/>
        <path id="Trazado_128413" data-name="Trazado 128413" d="M53.7,32.389A21.29,21.29,0,1,1,32.376,11.12,21.279,21.279,0,0,1,53.7,32.389" transform="translate(-4.904 -4.904)"/>
        <path id="Trazado_128414" data-name="Trazado 128414" d="M53.361,33.692A19.681,19.681,0,1,1,33.679,14,19.682,19.682,0,0,1,53.361,33.692" transform="translate(-6.173 -6.174)" fill="#eee6e3"/>
        <path id="Trazado_128415" data-name="Trazado 128415" d="M50.521,46.812a7.675,7.675,0,0,1-.866,1.3,1.907,1.907,0,0,0-1.5.643,6.807,6.807,0,0,1-4.677,1.675c-2.017-.031-4.035-.009-6.053-.006a6.679,6.679,0,0,1-1.848-.274,2.436,2.436,0,0,1-1.164-.626c-2.182-2.376-2.836-5.284-2.968-8.392a9.723,9.723,0,0,0-.705-3.818,2.661,2.661,0,0,1,.225-2.656A1.522,1.522,0,0,1,32.979,35a4.809,4.809,0,0,1,1.133,2.95c-.009.931-.006,1.861,0,2.792,0,.859.191,1.068,1.058.989a10.492,10.492,0,0,1,2.35.016A6.949,6.949,0,0,1,42.5,44.578c.2.277.33.594.518.877.27.406.623.538.95.368.358-.187.443-.549.2-1.025a7.815,7.815,0,0,0-4.913-4.04,16.333,16.333,0,0,0-2.589-.433c-.208-.027-.44-.017-.549-.263a2.254,2.254,0,0,1-.068-.746q0-6.74,0-13.478a1.854,1.854,0,0,1,.539-1.615,1.387,1.387,0,0,1,1.793,1.107,4.2,4.2,0,0,1,.046.854q0,4.9,0,9.8c0,.143,0,.286,0,.429.017,1.07.369,1.3,1.314.842a.812.812,0,0,0,.6-.8c.018-.214.012-.429.012-.643q0-6.3,0-12.6a2.183,2.183,0,0,1,.51-1.694A1.34,1.34,0,0,1,42.7,22.566a4.654,4.654,0,0,1,.027.749q0,5.945,0,11.892a4.178,4.178,0,0,0,.055.907q.225,1.015,1.121.518a2.326,2.326,0,0,1,.236-.125c.441-.144.511-.5.512-.9q0-1.845,0-3.69c0-1.765-.013-3.53.007-5.3a2,2,0,0,1,.665-1.779,1.392,1.392,0,0,1,1.666.892,2.972,2.972,0,0,1,.141,1.108q0,4.66,0,9.32c0,.178,0,.357,0,.535.016.945.284,1.141,1.2.874.531-.146.707-.358.721-.958.022-.927.006-1.854.007-2.781,0-1.069-.009-2.139.006-3.208a1.555,1.555,0,0,1,.562-1.377,1.4,1.4,0,0,1,1.78,1.212.851.851,0,0,1,.009.107c.014,3.776.04,7.552-.016,11.326a8.437,8.437,0,0,1-.71,3.073,2.182,2.182,0,0,0-.169,1.841" transform="translate(-13.443 -9.442)" fill="#f0cfa4"/>
        <path id="Trazado_128416" data-name="Trazado 128416" d="M42.477,35.419a.857.857,0,0,1-1.034.337c-.439-.184-.5-.557-.5-.973q0-6.412,0-12.822c0-.955-.38-1.481-1.141-1.623a.721.721,0,0,0-.52.049,1.983,1.983,0,0,0-.914,1.818c.019,4.349.012,8.7.005,13.046,0,.328.081.7-.266.931a.853.853,0,0,1-1.012.272c-.424-.187-.494-.561-.493-.983q.008-5.473,0-10.947a1.32,1.32,0,0,0-1.619-1.432,1.882,1.882,0,0,0-.915,1.7c.02,4.4.013,8.807.006,13.211,0,.419.037.788.481.973a11.186,11.186,0,0,1,4.42.952A7.892,7.892,0,0,1,42.661,43.6a.811.811,0,1,1-1.424.752c-1.528-2.944-4.116-3.822-7.212-3.715-.268.009-.534.057-.8.072a.782.782,0,0,1-.94-.883c-.01-1.074,0-2.149,0-3.223a4.64,4.64,0,0,0-1.093-2.734,1.471,1.471,0,0,0-1.8-.382,5.53,5.53,0,0,0-.571.562,1.488,1.488,0,0,0-.221,1.565,12.446,12.446,0,0,1,.845,4.65,11.948,11.948,0,0,0,2.082,6.646,9.982,9.982,0,0,0,1.29,1.345,4.466,4.466,0,0,0,2.618.8c2.323.027,4.646.044,6.968,0a6.139,6.139,0,0,0,4.3-1.9.946.946,0,0,1,1.283-.234c.388.586.367.875-.124,1.359a7.943,7.943,0,0,1-5.676,2.4c-1.987.019-3.975-.043-5.96.015-3.979.116-6.165-2.064-7.375-4.956a15.748,15.748,0,0,1-1.176-5.526,11.187,11.187,0,0,0-.753-4.133,3.133,3.133,0,0,1,1.046-3.654,3.3,3.3,0,0,1,3.813-.164c.145.1.285.2.5.353v-.579c0-2.416.091-4.837-.026-7.248a3.056,3.056,0,0,1,4.308-3.073c.051-.281.083-.563.155-.836A3,3,0,0,1,39.741,18.7a2.963,2.963,0,0,1,2.782,2.651c.032.316-.061.737.107.922s.538-.125.835-.164a2.99,2.99,0,0,1,3.425,2.922c.016.553,0,1.107,0,1.7a9.05,9.05,0,0,1,1.21-.249,2.925,2.925,0,0,1,3.1,2.921c.016,3.67.027,7.339-.017,11.008a11.481,11.481,0,0,1-1.155,4.7c-.249.537-.491.63-1.187.5a.974.974,0,0,1-.228-1.292,11.161,11.161,0,0,0,.986-4.731c-.012-3.344,0-6.688-.006-10.032a1.313,1.313,0,0,0-1.622-1.424,1.821,1.821,0,0,0-.922,1.689c.032,1.895.015,3.792.007,5.687,0,.372.035.77-.382.985-.829.475-1.4.154-1.4-.8,0-3.481,0-6.963,0-10.444a1.357,1.357,0,0,0-1.6-1.521,2.028,2.028,0,0,0-1.013,1.984q0,4.42,0,8.841c0,.3.068.615-.187.86" transform="translate(-11.771 -8.245)"/>
        <path id="Trazado_128417" data-name="Trazado 128417" d="M40.221,42.445c-.475.125-.674.025-.671-.547.025-4.615.012-9.23.016-13.845a1.32,1.32,0,0,1,1.083-1.49,2.009,2.009,0,0,0-.433,1.341q.012,7.271,0,14.542" transform="translate(-17.443 -11.715)" fill="#f0b987"/>
        <path id="Trazado_128418" data-name="Trazado 128418" d="M47.106,37.517a1.924,1.924,0,0,0,.11-.84q0-6.727,0-13.454a1.328,1.328,0,0,1,1.064-1.5,2.238,2.238,0,0,0-.431,1.455q0,6.684,0,13.368c0,.612-.179.843-.745.972" transform="translate(-20.775 -9.58)" fill="#efb785"/>
        <path id="Trazado_128419" data-name="Trazado 128419" d="M34.1,59.93a5.754,5.754,0,0,1-2.258-2.651,13.677,13.677,0,0,1-1.269-5.333,19.858,19.858,0,0,0-.312-3.145,7.026,7.026,0,0,0-.49-1.412,1.586,1.586,0,0,1,.9-2.226,3.048,3.048,0,0,0,.049,3.142,4.35,4.35,0,0,1,.36,1.71c.064.705.106,1.418.146,2.127a12.814,12.814,0,0,0,2.239,7.008c.2.273.53.433.632.779" transform="translate(-13.057 -19.919)" fill="#f0b886"/>
        <path id="Trazado_128420" data-name="Trazado 128420" d="M54.933,39.4c.023-.284.067-.567.068-.851.005-3.072,0-6.143,0-9.215,0-.978.3-1.4,1.131-1.618a2.267,2.267,0,0,0-.533,1.633q-.007,4.617,0,9.235c0,.472-.118.815-.671.816" transform="translate(-24.227 -12.222)" fill="#ebb483"/>
        <path id="Trazado_128421" data-name="Trazado 128421" d="M62.457,43.949a1.522,1.522,0,0,0,.216-.866q-.012-3.031,0-6.063a1.3,1.3,0,0,1,1.082-1.433,2.021,2.021,0,0,0-.434,1.34c.012,2.018.007,4.037,0,6.055,0,.634-.277.931-.866.966" transform="translate(-27.545 -15.695)" fill="#f0b986"/>
      </g>
    </g>
  </g>
</svg>
