<svg xmlns="http://www.w3.org/2000/svg" xmlns:xlink="http://www.w3.org/1999/xlink" width="260" height="234" viewBox="0 0 260 234">
  <defs>
    <clipPath id="clip-path">
      <rect id="Rectángulo_37560" data-name="Rectángulo 37560" width="260" height="234" transform="translate(828 7406)" fill="none" stroke="#707070" stroke-width="1"/>
    </clipPath>
    <clipPath id="clip-path-2">
      <rect id="Rectángulo_37554" data-name="Rectángulo 37554" width="260.334" height="225.32" fill="none"/>
    </clipPath>
    <clipPath id="clip-path-4">
      <rect id="Rectángulo_37552" data-name="Rectángulo 37552" width="3.741" height="3.111" fill="none"/>
    </clipPath>
  </defs>
  <g id="Enmascarar_grupo_183" data-name="Enmascarar grupo 183" transform="translate(-828 -7406)" clip-path="url(#clip-path)">
    <g id="Grupo_158010" data-name="Grupo 158010" transform="translate(828 7415)">
      <g id="Grupo_158009" data-name="Grupo 158009" clip-path="url(#clip-path-2)">
        <g id="Grupo_158008" data-name="Grupo 158008">
          <g id="Grupo_158007" data-name="Grupo 158007" clip-path="url(#clip-path-2)">
            <path id="Trazado_131175" data-name="Trazado 131175" d="M22.505,46.871c1.495,6.334,6.772,12.551,15.316,12.1,24.9-1.3,17.257,3.428,23.8,6.622,7.852,3.833,16.18.692,19.11-.94a8.268,8.268,0,0,0-2.958-4.775c-3.907-3.205-3.105-4.656.281-11.759s-1.819-16.8.725-21.323S79.828,11.71,67.693,8.944A107.493,107.493,0,0,0,55.826,6.863a21.134,21.134,0,0,0-15.476,4.3,15.566,15.566,0,0,0-4.54,5.491c-3.525,7.484.125,15.984-3.922,23.691-1.878,3.574-5.664,4.374-9.433,5.556,1.018.83-.246-.287.051.975" transform="translate(5.604 1.678)" fill="#32251d"/>
            <path id="Trazado_131176" data-name="Trazado 131176" d="M60.425,41.73a2.8,2.8,0,1,0,2.8-2.8,2.8,2.8,0,0,0-2.8,2.8" transform="translate(15.082 9.717)" fill="#fff"/>
            <path id="Trazado_131177" data-name="Trazado 131177" d="M76.676,74.767s2.2,45.919,8.631,53.435c0,0,17.581-7.414,32.178-10.5l3.375,9.2s-30.936,21.438-46.741,21.974-13.286-39.09-13.286-39.09Z" transform="translate(15.147 18.662)" fill="#32251d"/>
            <path id="Trazado_131178" data-name="Trazado 131178" d="M81.262,117.564a54.968,54.968,0,0,0-6.412,4.1c-.41.3-.01,1,.4.692a54.807,54.807,0,0,1,6.412-4.1c.452-.247.049-.94-.4-.692" transform="translate(18.64 29.331)" fill="#817868"/>
            <path id="Trazado_131179" data-name="Trazado 131179" d="M89.178,84.795a72.335,72.335,0,0,1-2.805,7.623c-.054.127-.107.259-.164.389-.152.371-.31.749-.467,1.127-.021.056-.045.112-.07.17-.961,2.316-2,4.813-3,7.539-.863,2.34-1.708,4.842-2.469,7.539a84.969,84.969,0,0,0-2.033,9.083q-.4,2.435-.676,5.051-.112,1.1-.2,2.237c-.176,2.337-.264,4.783-.242,7.346,0,.315.007.634.014.951,0,.169,0,.34.01.509q.052,2.232.222,4.582a.085.085,0,0,1,0,.024c.075,1.048-1.211,1.976-3.418,2.742q-.369.129-.77.249a32.48,32.48,0,0,1-3.161.777c-1.031.206-2.146.394-3.324.556-.277.04-.564.077-.85.115-1.859.235-3.864.42-5.946.545a.058.058,0,0,1-.024,0l-.054,0c-.307.019-.617.037-.93.052a101.9,101.9,0,0,1-18.588-.657c-.3-.04-.6-.082-.895-.127-4.064-.629-7.538-1.584-9.8-2.922a8.921,8.921,0,0,1-.815-.536,4.567,4.567,0,0,1-1.9-2.552c-.2-.84-.529-2.018-.96-3.471-.39-1.313-.862-2.857-1.4-4.576-.559-1.794-1.183-3.783-1.854-5.918-.917-2.923-1.916-6.122-2.937-9.463-1-3.271-2.018-6.678-3-10.1-.569-1.987-1.125-3.977-1.656-5.951-1.08-4.006-2.063-7.937-2.854-11.6-1.687-7.845-2.5-14.44-1.5-17.842a.241.241,0,0,1,.014-.042,3.494,3.494,0,0,1,1.408-2.118c1.2-.722,2.779-1.563,4.591-2.473h0l.6-.3c3.214-1.593,7.084-3.376,10.885-5.072,4.175-1.861,8.262-3.62,11.33-4.922h0c3.114-1.318,5.171-2.169,5.171-2.169l14.865,3.831h.007l4.49,1.161s.93.5,2.434,1.376c1.763,1.02,4.321,2.549,7.1,4.36h0a89.56,89.56,0,0,1,10.694,7.989c2.442,2.207,4.355,4.409,5.146,6.379a5.849,5.849,0,0,1,.281.87,15.183,15.183,0,0,1-.519,7.636" transform="translate(2.554 12.778)" fill="#fff"/>
            <path id="Trazado_131180" data-name="Trazado 131180" d="M62.718,83.186c-.107-.162-.215-.326-.319-.491-1.767-2.793-3.173-5.842-5.368-8.341a12.384,12.384,0,0,0-7.969-4.224,12.752,12.752,0,0,0-9.943,3.105c-.385.345.184.911.566.566a12.007,12.007,0,0,1,10.373-2.707c3.744.772,6.342,3.333,8.344,6.45,1.43,2.227,2.955,4.945,4.477,7.069.022-.374-.189-1.056-.161-1.428" transform="translate(9.732 17.483)" fill="#d6b59f"/>
            <path id="Trazado_131181" data-name="Trazado 131181" d="M44.993,66.238c2.363,1.586,4.96,3.271,7.93,3.149a5.41,5.41,0,0,0,5.1-3.68c.149-.48-.6-.685-.75-.207-.8,2.58-3.571,3.448-6.021,2.978a16.477,16.477,0,0,1-5.868-2.912c-.416-.28-.806.394-.392.672" transform="translate(11.186 16.281)" fill="#32251d"/>
            <path id="Trazado_131182" data-name="Trazado 131182" d="M78.935,76.635c-1.4-6.364-25.592-23.343-25.592-23.343v5.046S59.987,81.493,59.676,99.4s-.64,32.866-.64,32.866L73.259,130.7s-4.627-3.66,1.027-9.867" transform="translate(13.314 13.302)" fill="#32251d"/>
            <path id="Trazado_131183" data-name="Trazado 131183" d="M58.694,57.329a11.287,11.287,0,0,1-2.542,5.881c-.317.382.23.936.55.55a12.221,12.221,0,0,0,2.77-6.43c.06-.5-.719-.491-.778,0" transform="translate(13.992 14.217)" fill="#817868"/>
            <path id="Trazado_131184" data-name="Trazado 131184" d="M56.115,62.516a182.933,182.933,0,0,1,5.251,50.068q-.244,7.192-1.058,14.345c-.056.5.722.492.779,0A183.745,183.745,0,0,0,59.818,76.64q-1.188-7.222-2.954-14.332a.389.389,0,0,0-.75.207" transform="translate(14.003 15.483)" fill="#817868"/>
            <path id="Trazado_131185" data-name="Trazado 131185" d="M60.685,114.5a71.744,71.744,0,0,1,9.268-.847.389.389,0,0,0,0-.779,73.4,73.4,0,0,0-9.474.876c-.494.077-.285.827.206.75" transform="translate(15.025 28.173)" fill="#817868"/>
            <path id="Trazado_131186" data-name="Trazado 131186" d="M18.586,144.116S42.021,164.351,80.935,142l-.421-1.4-2.028-6.738-2.442-8.119-.7-2.34-.13-.025L61.863,120.9l-39.481-7.309-.08-.015a32.549,32.549,0,0,1,.345,4.1,63.346,63.346,0,0,1-.212,7.525,80.082,80.082,0,0,1-1.2,8.551c-.425,2.2-.968,4.537-1.657,7.014q-.452,1.636-.995,3.35" transform="translate(4.639 28.349)" fill="#fff"/>
            <path id="Trazado_131187" data-name="Trazado 131187" d="M65.4,141.277a27.278,27.278,0,0,1-11.831-17.3,26.393,26.393,0,0,1,4.279-20.255,25.053,25.053,0,0,1,1.854-2.4c.054-.444-.02-.891.026-1.336a27.562,27.562,0,0,0-6.5,11.681,27.192,27.192,0,0,0,3.1,21.407,27.683,27.683,0,0,0,8.673,8.893c.436.28.838-.414.4-.692" transform="translate(13.043 24.957)" fill="#d6b59f"/>
            <path id="Trazado_131188" data-name="Trazado 131188" d="M26.31,106.73a95.163,95.163,0,0,0,1.332,38.209c.121.5.895.289.772-.214a94.116,94.116,0,0,1-1.331-37.782c.085-.5-.687-.722-.774-.214" transform="translate(6.235 26.567)" fill="#d6b59f"/>
            <path id="Trazado_131189" data-name="Trazado 131189" d="M37.324,75.225c7.389,3.146,14.919,7.763,17.9,15.64a15.19,15.19,0,0,1,.145,11.063,12.172,12.172,0,0,1-8.07,7.389.4.4,0,0,0,.214.772c7.87-2.026,11.094-10.944,8.9-18.209C53.77,83.124,45.7,77.927,37.729,74.533c-.47-.2-.878.491-.4.692" transform="translate(9.263 18.594)" fill="#d6b59f"/>
            <path id="Trazado_131190" data-name="Trazado 131190" d="M67.241,135.11c-3.265-2.272-6.052-5.5-6.664-9.476a10.271,10.271,0,0,1-.126-1.387,8.682,8.682,0,0,1,4.065-7.669q0,.474.014.952a7.99,7.99,0,0,0-3.255,7.169c.016.232.04.46.072.686.535,3.821,3.206,6.882,6.3,9.032.422.294.021.988-.4.692" transform="translate(15.088 29.098)" fill="#d6b59f"/>
            <path id="Trazado_131191" data-name="Trazado 131191" d="M33.183,139.127a12.49,12.49,0,0,1,.531-11.446,11.69,11.69,0,0,1,9.639-5.748,12.231,12.231,0,0,1,10.2,4.595c2.582,3.175,3.818,7.231,4.942,11.1a.4.4,0,0,0,.774-.212c-1.843-6.334-4.459-13.674-11.461-15.751a12.821,12.821,0,0,0-15.639,7.393,13.245,13.245,0,0,0,.319,10.478c.22.466.912.06.692-.4" transform="translate(7.799 30.231)" fill="#d6b59f"/>
            <path id="Trazado_131192" data-name="Trazado 131192" d="M19.382,136.736a46.171,46.171,0,0,0,11.711,3.586A77.341,77.341,0,0,0,44.515,141.4a121.455,121.455,0,0,0,13.684-.826,182.29,182.29,0,0,0,22.115-4.009l-2.028-6.739A173.926,173.926,0,0,1,57.3,133.616c-11.726,1.327-26.363,1.44-36.262-3.894-.425,2.2-.968,4.537-1.657,7.014" transform="translate(4.838 32.379)" fill="#32251d"/>
            <path id="Trazado_131193" data-name="Trazado 131193" d="M50.877,69.147c-3.9-1.077-12.668-6.932-14.812-10.26l4.582-24.114L56,44.7l.656,5.257.94,7.509.861,6.882c.051.192.091.377.125.556.8,4.481-3.56,5.387-7.709,4.242" transform="translate(9.002 8.679)" fill="#b75441"/>
            <path id="Trazado_131194" data-name="Trazado 131194" d="M42.142,41.749c6.034,13.22,12.295,18.115,14.435,17.934L55.143,48.217Z" transform="translate(10.519 10.421)" fill="#32251d"/>
            <path id="Trazado_131195" data-name="Trazado 131195" d="M37.708,33.566c.312,5.383,1.365,7.375,3.972,13.133a19.42,19.42,0,0,0,10.394,9.558c10.407,3.265,16.316.1,18.29-14.578,1.223-9.113,4.828-13.532,3.346-17.5h0c-.116-.194-.235-.384-.354-.57a20.635,20.635,0,0,0-12.616-8.823c-25.7-6.132-23.479,11.051-23.03,18.778" transform="translate(9.351 3.367)" fill="#b75441"/>
            <path id="Trazado_131196" data-name="Trazado 131196" d="M52.673,30.683A2.152,2.152,0,0,1,54.715,32.2a.545.545,0,0,0,1.028-.361A3.265,3.265,0,0,0,52.6,29.6c-.7,0-.624,1.092.075,1.088" transform="translate(13.006 7.387)" fill="#32251d"/>
            <path id="Trazado_131197" data-name="Trazado 131197" d="M59.6,33.5A2.3,2.3,0,0,1,62.156,33c.651.254,1.127-.729.471-.983a3.448,3.448,0,0,0-3.859.772c-.507.485.327,1.187.831.706" transform="translate(14.629 7.921)" fill="#32251d"/>
            <path id="Trazado_131198" data-name="Trazado 131198" d="M76.482,21.455a31.882,31.882,0,0,1-.83,9.632c-2.257-.142-4.74.12-7.24-1.664l.07-6.38L67.139,29.01a24.611,24.611,0,0,0-7.148-1.967A66.3,66.3,0,0,0,51.852,27l-.685-7.37s-1.053,7.119-2.339,8.44-12.307-2.188-12.7-5.7S38.388,10.324,46.3,8.219a15.419,15.419,0,0,1,13.317,2.457,10.887,10.887,0,0,1,11.519.832,13.068,13.068,0,0,1,5.347,9.947" transform="translate(9.007 1.913)" fill="#32251d"/>
            <path id="Trazado_131199" data-name="Trazado 131199" d="M49.848,21.243s1.438,7.919-2.036,11.786-11.628-4.322-11.628-4.322-2.158-8.569,1.747-10.956,11.916,3.493,11.916,3.493" transform="translate(8.883 4.288)" fill="#32251d"/>
            <path id="Trazado_131200" data-name="Trazado 131200" d="M56.832,31.428a7.3,7.3,0,0,0,2.054,4.242.379.379,0,0,1-.075.59L56.69,37.45a.376.376,0,0,1-.379-.649l2.119-1.191c-.025.2-.05.394-.076.591a8.152,8.152,0,0,1-2.274-4.773c-.06-.479.691-.474.751,0" transform="translate(13.997 7.755)" fill="#32251d"/>
            <path id="Trazado_131201" data-name="Trazado 131201" d="M56.39,44.12a2.969,2.969,0,0,1-2.958-1.057c-.352-.494.431-1.015.782-.522a2.078,2.078,0,0,0,2.108.641c.6-.075.666.863.067.938" transform="translate(13.314 10.569)" fill="#86231d"/>
            <path id="Trazado_131202" data-name="Trazado 131202" d="M47.979,33.257c-.154.771.922,1.636,2.4,1.931s2.8-.091,2.958-.862-.921-1.636-2.4-1.931-2.8.091-2.958.862" transform="translate(11.972 8.061)" fill="#86231d"/>
            <path id="Trazado_131203" data-name="Trazado 131203" d="M60.122,36.335c-.154.774.922,1.637,2.4,1.932a4.384,4.384,0,0,0,1.879,0q.169-.986.312-2.043c.006-.03.007-.06.012-.085a4.524,4.524,0,0,0-1.647-.659c-1.478-.295-2.8.09-2.957.86" transform="translate(15.003 8.83)" fill="#86231d"/>
            <path id="Trazado_131204" data-name="Trazado 131204" d="M56.041,27.8a2.2,2.2,0,0,0-3.087.376c-.644,1.01-2.333.179-1.682-.846a4.037,4.037,0,0,1,5.613-1.211c1.015.639.182,2.328-.845,1.681" transform="translate(12.761 6.356)" fill="#32251d"/>
            <path id="Trazado_131205" data-name="Trazado 131205" d="M63.894,31.124c-.535-1.017-1.172-2.458-2.52-2.4a.941.941,0,0,1-.136-1.877c2.148-.095,3.319,1.515,4.221,3.23.559,1.062-1,2.117-1.565,1.045" transform="translate(15.075 6.7)" fill="#32251d"/>
            <path id="Trazado_131206" data-name="Trazado 131206" d="M61.618,39.476s-3.639-.086-9.557-2.97c0,0-.649,5.908,4.071,6.82,4,.775,5.486-3.85,5.486-3.85" transform="translate(12.987 9.112)" fill="#fff"/>
            <path id="Trazado_131207" data-name="Trazado 131207" d="M47.172,36.872a6.572,6.572,0,0,0,.322-5.732c-.971-2.419-2.9-6.227-5.446-6.383-3.746-.23-4.833,2.924-5.141,6.3s.99,8.134,5.679,8.355a4.764,4.764,0,0,0,4.585-2.537" transform="translate(9.201 6.176)" fill="#b75441"/>
            <path id="Trazado_131208" data-name="Trazado 131208" d="M43.206,36.694a3.8,3.8,0,0,1-3.539-.645c-.467-.372-1.135.286-.662.664a4.779,4.779,0,0,0,4.45.885c.576-.175.33-1.08-.249-.9" transform="translate(9.695 8.97)" fill="#86231d"/>
            <path id="Trazado_131209" data-name="Trazado 131209" d="M36.73,36.087a2.8,2.8,0,1,0,2.8-2.8,2.8,2.8,0,0,0-2.8,2.8" transform="translate(9.168 8.309)" fill="#fff"/>
            <path id="Trazado_131210" data-name="Trazado 131210" d="M41.709,34.885a8.386,8.386,0,0,0,.675-4.091c-.186-1.253-1.1-3.215-2.683-3.065-.531.05-.7-.77-.166-.821a3.4,3.4,0,0,1,3.275,2.337c.838,1.928.384,4.025-.311,5.918a.419.419,0,0,1-.79-.277" transform="translate(9.786 6.713)" fill="#32251d"/>
            <path id="Trazado_131211" data-name="Trazado 131211" d="M95.76,187.147c-2.81-20.139-5.4-34.208-5.4-34.208-22.137,7.185-42.494,13.241-50.711,32.643,0,0,.117.554.33,1.564Z" transform="translate(9.896 38.173)" fill="#ffa106"/>
            <path id="Trazado_131212" data-name="Trazado 131212" d="M60.68,185.279c.165-5.738.244-10.71.275-14.652.052-6.465-.015-10.2-.015-10.2l-46.4,3.956s-.384,5.442-1.027,14q-.045.59-.09,1.2c-.135,1.783-.28,3.693-.435,5.7Z" transform="translate(3.242 40.041)" fill="#ffa106"/>
            <path id="Trazado_131213" data-name="Trazado 131213" d="M77.747,124.454s-25.216,15.75-55.176,6.4c0,0-9.774,26.174-8.311,42.5s72.935,6.193,81.907-7.946c5.273-8.31-18.42-40.957-18.42-40.957" transform="translate(3.522 31.064)" fill="#ffa106"/>
            <path id="Trazado_131214" data-name="Trazado 131214" d="M50.422,139.07A34.031,34.031,0,0,1,27.25,170.3,34.056,34.056,0,0,1,15.3,171.986c-.714-.026-.717-1.138,0-1.112A33.079,33.079,0,0,0,39.14,161.99,33.083,33.083,0,0,0,49.31,139.07a.556.556,0,0,1,1.112,0" transform="translate(3.686 34.578)" fill="#bd6806"/>
            <path id="Trazado_131215" data-name="Trazado 131215" d="M59.011,134.608a31.148,31.148,0,0,0,26.6,29.645c.7.109.406,1.181-.295,1.072A32.246,32.246,0,0,1,57.9,134.608c-.031-.715,1.08-.714,1.111,0" transform="translate(14.452 33.464)" fill="#bd6806"/>
            <path id="Trazado_131216" data-name="Trazado 131216" d="M56.178,157.265c.062,5.075.076,10.153-.09,15.225-.1,3.035.439,11.13-4.67,10.171-.7-.131-.4-1.2.3-1.072,2.915.549,3-3.748,3.105-5.6.124-2.083.186-4.171.227-6.258.082-4.154.07-8.309.02-12.462a.556.556,0,0,1,1.111,0" transform="translate(12.734 39.119)" fill="#bd6806"/>
            <path id="Trazado_131217" data-name="Trazado 131217" d="M79.007,129.411a70.692,70.692,0,0,1-59.378,8.765c-.542-.166-.87.657-.324.825a71.756,71.756,0,0,0,47.943-2.309A69.667,69.667,0,0,0,79.567,130.1c.474-.317-.089-1-.56-.687" transform="translate(4.748 32.281)" fill="#bd6806"/>
            <path id="Trazado_131218" data-name="Trazado 131218" d="M61.272,127.262a15.474,15.474,0,0,1,2.464,5.683c.119.556.995.424.876-.136a16.65,16.65,0,0,0-2.653-6.107c-.326-.467-1.012.094-.687.56" transform="translate(15.272 31.581)" fill="#bd6806"/>
            <path id="Trazado_131219" data-name="Trazado 131219" d="M27.612,131.649a25.965,25.965,0,0,0-.993,8.11c.02.569.9.427.876-.137a24.574,24.574,0,0,1,.942-7.649c.156-.544-.667-.872-.825-.324" transform="translate(6.64 32.789)" fill="#bd6806"/>
            <path id="Trazado_131220" data-name="Trazado 131220" d="M40.517,132.456a19.748,19.748,0,0,0,.054,7.486c.11.557.986.425.876-.136a19.141,19.141,0,0,1-.049-7.249c.1-.562-.779-.66-.881-.1" transform="translate(10.03 32.968)" fill="#bd6806"/>
            <path id="Trazado_131221" data-name="Trazado 131221" d="M47.815,134.482a2.192,2.192,0,1,0,1.828-2.5,2.192,2.192,0,0,0-1.828,2.5" transform="translate(11.928 32.935)" fill="#bd6806"/>
            <path id="Trazado_131222" data-name="Trazado 131222" d="M51.72,185.98c.19-9.277.265-18.558.421-27.831a.556.556,0,0,0-1.112,0c-.1,5.776-.16,11.553-.241,17.328q-.073,5.248-.181,10.5Z" transform="translate(12.631 39.34)" fill="#bd6806"/>
            <path id="Trazado_131223" data-name="Trazado 131223" d="M19.371,130.648a43.1,43.1,0,0,0,5.924,2.463c9.874,3.274,20.781,3.665,31.166,1.918,1.021-9.952,1.856-22.463,1.186-33.2a247.285,247.285,0,0,0-5.479-38.784s-8.477-4.977-8.059-14.335c0,0-17.544,9.973-24.9,13.756C10.563,66.91,7,70,9.964,79.067s9.181,33.171,9.841,42.912a47.108,47.108,0,0,1-.434,8.668" transform="translate(2.23 12.157)" fill="#32251d"/>
            <path id="Trazado_131224" data-name="Trazado 131224" d="M15.518,62.585a17.358,17.358,0,0,1,11.121,5.4c2.782,3.161,3.856,6.918,4.286,11.026.052.491.831.5.778,0-.454-4.324-1.586-8.25-4.514-11.576a18.176,18.176,0,0,0-11.673-5.628c-.5-.056-.492.722,0,.777" transform="translate(3.781 15.426)" fill="#817868"/>
            <path id="Trazado_131225" data-name="Trazado 131225" d="M33.975,50.385A17.265,17.265,0,0,0,42.186,68.71a.389.389,0,0,0,.392-.672,16.464,16.464,0,0,1-7.854-17.446c.1-.49-.652-.7-.75-.207" transform="translate(8.396 12.506)" fill="#817868"/>
            <path id="Trazado_131226" data-name="Trazado 131226" d="M40.336,64.906a438.817,438.817,0,0,1,4.381,62.354.39.39,0,0,0,.779,0,440.25,440.25,0,0,0-4.41-62.56c-.072-.495-.822-.285-.75.206" transform="translate(10.067 16.078)" fill="#817868"/>
            <path id="Trazado_131227" data-name="Trazado 131227" d="M18.493,112.7a75.612,75.612,0,0,0,32.132,3.1c.492-.055.5-.833,0-.779A75.05,75.05,0,0,1,18.7,111.945c-.476-.159-.68.592-.206.75" transform="translate(4.549 27.936)" fill="#817868"/>
            <path id="Trazado_131228" data-name="Trazado 131228" d="M13.234,64.84S5.342,78.963,2.709,95.27c-.331,2.054-.734,4.229-1.067,6.49-1.726,11.644-2.688,25.488.2,34.84,6.282,20.341,64.512,33.129,64.512,33.129l3.839-10.109s-36.728-19.7-47.5-31.927c-2.259-2.568,1.733-14.543,5.092-23.269.052-.131.1-.261.151-.39,2-5.157,5.3-15.121,5.3-15.121Z" transform="translate(0 16.184)" fill="#32251d"/>
            <path id="Trazado_131229" data-name="Trazado 131229" d="M47.482,143.9a1.069,1.069,0,1,1-1.068-1.068,1.069,1.069,0,0,1,1.068,1.068" transform="translate(11.318 35.652)" fill="#817868"/>
            <path id="Trazado_131230" data-name="Trazado 131230" d="M54.807,142.012a36.7,36.7,0,0,0-9.509-4.49.389.389,0,0,0-.207.75,35.971,35.971,0,0,1,9.325,4.412c.424.267.815-.4.392-.672" transform="translate(11.186 34.321)" fill="#817868"/>
            <path id="Trazado_131231" data-name="Trazado 131231" d="M47.76,135.37a16.645,16.645,0,0,0-5.533,13.176c.024.5.8.5.779,0a15.9,15.9,0,0,1,5.3-12.626c.375-.334-.177-.882-.55-.55" transform="translate(10.535 33.762)" fill="#817868"/>
            <path id="Trazado_131232" data-name="Trazado 131232" d="M1.487,119.355A14.855,14.855,0,0,1,10.6,133.983c-.029.5.75.5.777,0a15.6,15.6,0,0,0-9.493-15.3c-.456-.192-.852.477-.392.672" transform="translate(0.32 29.615)" fill="#817868"/>
            <path id="Trazado_131233" data-name="Trazado 131233" d="M29.013,87.893a107.909,107.909,0,0,0-11.079,32.9c-.08.49.67.7.75.207a107.258,107.258,0,0,1,11-32.716c.234-.442-.439-.836-.672-.392" transform="translate(4.475 21.889)" fill="#817868"/>
            <path id="Trazado_131234" data-name="Trazado 131234" d="M29.132,91.418a40.649,40.649,0,0,0-4.295,1.455c-.459.185-.257.937.207.75a40.532,40.532,0,0,1,4.294-1.455.389.389,0,0,0-.206-.75" transform="translate(6.135 22.814)" fill="#817868"/>
            <path id="Trazado_131235" data-name="Trazado 131235" d="M32.7,88.675,11.355,65.8A111.236,111.236,0,0,0,2.168,95.032" transform="translate(0.541 16.423)" fill="#32251d"/>
            <path id="Trazado_131236" data-name="Trazado 131236" d="M50.993,141.446a6.8,6.8,0,0,0,1.281,9.341,16.671,16.671,0,0,1,3.818,4.186c2,3.544,3.368,8.285,4.882,9.789,2.234,2.221,2.349-1.175,2.306-1.6a47.183,47.183,0,0,0-1.313-6.378s3.436,5.994,3.751,8.7,2.385,4.016,3.534,1.325-1.263-10.084-2.485-11.951c0,0,3.074,3.15,3.621,6.8s1.232,4.881,2.159,6.052,3.082-.918,2.188-5.992a16.29,16.29,0,0,0-4.051-8.775,27.144,27.144,0,0,1,4.215,3.3c2.457,2.272,2.753,6.538,4.669,7.116,1.959.59,1.4-4.309-.114-6.873s-2.4-4.559-5.438-6.854a48.031,48.031,0,0,0-8.171-5.323c-2.148-.937-9.352-5.277-12.641-4.5a4.17,4.17,0,0,0-2.209,1.636" transform="translate(12.398 34.873)" fill="#b75441"/>
            <path id="Trazado_131237" data-name="Trazado 131237" d="M57.9,141.2s7.144.477,9.152,1.826,5.753,2.311,4.963,3.734-5.366.111-5.366.111Z" transform="translate(14.452 35.244)" fill="#b75441"/>
            <path id="Trazado_131238" data-name="Trazado 131238" d="M18.288,114.736a11.959,11.959,0,0,0-5.04-.422.383.383,0,0,1-.075-.761,12.843,12.843,0,0,1,5.426.485c.47.144.154.841-.311.7" transform="translate(3.205 28.318)" fill="#817868"/>
            <path id="Trazado_131239" data-name="Trazado 131239" d="M97.377,11.778s4.482-3.1,12.135-2.288a16.033,16.033,0,0,1,14.328,14c.727,7.135-.484,15.359,3.419,22.149s20.73,21.194,14.4,32.636-27.914-8.885-27.914-8.885Z" transform="translate(24.305 2.335)" fill="#32251d"/>
            <path id="Trazado_131240" data-name="Trazado 131240" d="M164.014,194.05c-4.654-27.121-11.1-54.109-24.3-68.769L93.754,127.7s-3.927,11.663-8.211,29.471c-.062.261-.124.522-.189.783-2.465,10.34-5.033,22.684-7.02,35.982-.006.036-.011.074-.016.11Z" transform="translate(19.548 31.27)" fill="#32251d"/>
            <path id="Trazado_131241" data-name="Trazado 131241" d="M80.822,187.68a23.072,23.072,0,0,0,13.437-10.728c4.235-7.841,3.271-18-4.072-23.615a17.143,17.143,0,0,0-4.645-2.533q-.092.392-.189.783a16.415,16.415,0,0,1,10.265,11.6c1.943,8.743-2.969,17.587-10.574,21.819a25.758,25.758,0,0,1-6.712,2.565c-.006.036-.011.074-.016.11Z" transform="translate(19.548 37.641)" fill="#817868"/>
            <path id="Trazado_131242" data-name="Trazado 131242" d="M118.621,136.346a25.732,25.732,0,0,0,23.05,26.85c.515.059.511-.75,0-.808a25.249,25.249,0,0,1-22.243-26.042c.021-.52-.786-.519-.807,0" transform="translate(29.602 33.935)" fill="#817868"/>
            <path id="Trazado_131243" data-name="Trazado 131243" d="M117.068,185.29a16.13,16.13,0,0,1,.014-5.992,20.544,20.544,0,0,1,8.269-12.341c5.167-3.739,11.556-5.285,17.826-5.768.515-.04.519-.847,0-.807-10.936.843-23.083,5.641-26.487,17.133a17.24,17.24,0,0,0-.454,7.775Z" transform="translate(28.951 40.031)" fill="#817868"/>
            <path id="Trazado_131244" data-name="Trazado 131244" d="M131.611,183.207h.87a12.086,12.086,0,0,1-.55-1.829c-1.28-6.124,3.416-12.6,10-11.771.515.065.51-.743,0-.807-6.755-.85-11.832,5.627-10.917,12a12.77,12.77,0,0,0,.6,2.407" transform="translate(32.674 42.113)" fill="#817868"/>
            <path id="Trazado_131245" data-name="Trazado 131245" d="M90.618,135.057c4.767,2.1,3.925,8.495,4.315,12.7a14.239,14.239,0,0,0,5.143,9.847c2.8,2.283,6.717,3.615,10.3,2.6,3.778-1.067,5.6-4.687,6.248-8.3.877-4.873.2-12.107,5.768-14.429.472-.2.265-.978-.215-.779-8.676,3.618-3.315,15.566-9.206,21.141-3.506,3.318-9.128,1.841-12.47-.936a13.537,13.537,0,0,1-3.59-4.645,18.166,18.166,0,0,1-1.307-7.316c-.121-3.815-.554-8.813-4.575-10.585-.471-.207-.882.489-.407.7" transform="translate(22.566 33.527)" fill="#817868"/>
            <path id="Trazado_131246" data-name="Trazado 131246" d="M99.954,182.209a8.82,8.82,0,0,0,3.76,1.868h4.247a10.1,10.1,0,0,0,2.893-1.118,9.3,9.3,0,0,0,4.451-9.862,9.557,9.557,0,0,0-8.552-7.811.442.442,0,0,0-.157-.04c-.087,0-.171.011-.257.01a10.27,10.27,0,0,0-1.626.027.4.4,0,0,0-.274.145,9.99,9.99,0,0,0-7.371,5.884,9.766,9.766,0,0,0,2.887,10.9m-2.527-9.393a9.107,9.107,0,0,1,8.221-6.747,8.726,8.726,0,0,1,8.512,5.837,8.634,8.634,0,0,1-2.46,9.487,8.943,8.943,0,0,1-10.048,1.042,9.111,9.111,0,0,1-4.225-9.619" transform="translate(24.066 41.243)" fill="#817868"/>
            <path id="Trazado_131247" data-name="Trazado 131247" d="M88.9,134.7a65.912,65.912,0,0,0,49.38-1.5c.457-.2.062-.872-.392-.672a65.133,65.133,0,0,1-48.782,1.427c-.469-.179-.671.574-.206.75" transform="translate(22.125 33.068)" fill="#817868"/>
            <path id="Trazado_131248" data-name="Trazado 131248" d="M139.134,160.867a251.465,251.465,0,0,1,7.251,32.869h.82q-.789-5.051-1.752-10.072c-2.6-13.508-6.094-26.971-11.4-39.69a94.4,94.4,0,0,0-9.126-17.254c-.292-.426-.993-.022-.7.407,6.983,10.16,11.419,21.985,14.9,33.739" transform="translate(30.991 31.584)" fill="#817868"/>
            <path id="Trazado_131249" data-name="Trazado 131249" d="M90.67,119.2v10.975s3.975,4.422,18.342,4.456c17.229.04,27.616-6.878,27.616-6.878l-1.178-12.384L90.67,117.729" transform="translate(22.631 28.797)" fill="#ff8763"/>
            <path id="Trazado_131250" data-name="Trazado 131250" d="M84.813,84.386c-3.151-9.742,1.719-14.614,5.445-19.485s25.216-13.754,25.216-13.754,17.766,9.743,26.075,12.321,10.315,12.608,6.878,27.509-9.457,42.409-9.457,42.409-25.321,10.332-47.958,4.887l-.467-16.636" transform="translate(20.916 12.766)" fill="#3642a8"/>
            <path id="Trazado_131251" data-name="Trazado 131251" d="M127.535,92.554a108.4,108.4,0,0,1-5.711,31.98c-.161.475.59.679.751.206a109.153,109.153,0,0,0,5.738-32.186.389.389,0,0,0-.779,0" transform="translate(30.402 23.008)" fill="#13136a"/>
            <path id="Trazado_131252" data-name="Trazado 131252" d="M91.629,73.034a4.354,4.354,0,0,0,2.394,4.747c2.307,1.241,5.153.526,7.511-.156a71.164,71.164,0,0,0,16.49-7.544.389.389,0,0,0-.392-.671,76.456,76.456,0,0,1-13.182,6.45,24.425,24.425,0,0,1-7.11,1.8c-2.44.089-5.649-1.473-4.961-4.417.115-.487-.636-.7-.75-.207" transform="translate(22.845 17.31)" fill="#13136a"/>
            <path id="Trazado_131253" data-name="Trazado 131253" d="M96.544,62.213s5.2,17.808,22.322-.234l-2.232-6.343-2.434-6.92-1.7-4.846L95.9,37.622Z" transform="translate(23.937 9.39)" fill="#ff8763"/>
            <path id="Trazado_131254" data-name="Trazado 131254" d="M99.622,43.736c8.437,11.284,14.093,10.985,16.085,10.374l-2.435-6.922Z" transform="translate(24.866 10.916)" fill="#32251d"/>
            <path id="Trazado_131255" data-name="Trazado 131255" d="M92.386,40.571c2.234,4.748,3.907,6.164,8.351,10.418a18.888,18.888,0,0,0,12.851,4.861c10.582-.825,14.768-5.829,11.229-19.8-2.2-8.673-.547-13.971-3.323-17.013h-.005q-.262-.2-.525-.385a20.076,20.076,0,0,0-14.593-3.393C80.942,19.045,89.179,33.756,92.386,40.571" transform="translate(22.096 3.753)" fill="#ff8763"/>
            <path id="Trazado_131256" data-name="Trazado 131256" d="M110.079,30.66l1.878,2.482c.279.367.726.68.344,1.053a6.717,6.717,0,0,1-1.247.729.389.389,0,0,0,.392.672c.581-.34,2.124-.85,1.907-1.772a5.237,5.237,0,0,0-1.055-1.513q-.774-1.022-1.547-2.043c-.3-.395-.975-.007-.672.392" transform="translate(27.457 7.514)" fill="#32251d"/>
            <path id="Trazado_131257" data-name="Trazado 131257" d="M113.681,16.414s1.052,7.3-4.953,11.306-13.371,3.24-13.371,3.24,4.375-17.238,18.324-14.547" transform="translate(23.801 4.026)" fill="#32251d"/>
            <path id="Trazado_131258" data-name="Trazado 131258" d="M106.307,31.53c.141.667.661,1.123,1.162,1.017a1.114,1.114,0,0,0,.651-1.4c-.141-.667-.661-1.123-1.162-1.017a1.114,1.114,0,0,0-.651,1.4" transform="translate(26.525 7.517)" fill="#32251d"/>
            <path id="Trazado_131259" data-name="Trazado 131259" d="M112.874,30.453c.141.667.661,1.123,1.161,1.017a1.114,1.114,0,0,0,.652-1.4c-.141-.667-.661-1.123-1.162-1.017a1.114,1.114,0,0,0-.651,1.4" transform="translate(28.164 7.248)" fill="#32251d"/>
            <path id="Trazado_131260" data-name="Trazado 131260" d="M116.245,36.241s-3.118,1.25-9.185.952c0,0,1.6,5.247,5.931,4.306,3.678-.8,3.254-5.258,3.254-5.258" transform="translate(26.722 9.046)" fill="#fff"/>
            <path id="Trazado_131261" data-name="Trazado 131261" d="M117.4,13.62s6.977,5.687,7.629,10.652c0,0-14.748-13.828-24.312,3.8,0,0,1.011,6.037-1.008,7.473s-5.626,2.272-8.646,4.429S86.6,32.492,88.081,26.337,100.443,9.819,117.4,13.62" transform="translate(21.838 3.196)" fill="#32251d"/>
            <path id="Trazado_131262" data-name="Trazado 131262" d="M109.963,11.818S91.252,3.876,84.119,24.066C78.488,40,90.58,52.333,85.734,63.91s-13.528,12.2-17.3,28.894S72,121.7,84.119,119.188,82.3,91.368,98.42,90.561s15.5-14.268,12.446-22.614S97.082,40,105.887,30.123s4.076-18.305,4.076-18.305" transform="translate(16.834 2.565)" fill="#32251d"/>
            <path id="Trazado_131263" data-name="Trazado 131263" d="M102.894,12.554S100.465.767,90.873.049s-9.115,6.542-9.115,6.542-5.325.326-6.4,6.919,8.795,9.872,8.795,9.872,15.59-.119,18.743-10.828" transform="translate(18.788 0)" fill="#32251d"/>
            <path id="Trazado_131264" data-name="Trazado 131264" d="M100.622,9.985c-7.63-.788-14.793,3.5-18.44,10.123-.241.439.43.831.672.392a18.348,18.348,0,0,1,17.768-9.737c.5.051.494-.727,0-.779" transform="translate(20.5 2.469)" fill="#ffa106"/>
            <path id="Trazado_131265" data-name="Trazado 131265" d="M113.733,42.311a2.882,2.882,0,0,1-3.054.119c-.5-.317.021-1.072.516-.755a2.023,2.023,0,0,0,2.136-.185c.517-.286.916.537.4.821" transform="translate(27.575 10.341)" fill="#ca582f"/>
            <path id="Trazado_131266" data-name="Trazado 131266" d="M102.206,35.284c.141.752,1.426,1.143,2.869.872s2.5-1.1,2.358-1.852-1.426-1.142-2.869-.872-2.5,1.1-2.358,1.852" transform="translate(25.507 8.323)" fill="#ca582f"/>
            <path id="Trazado_131267" data-name="Trazado 131267" d="M114.288,33.658c.14.755,1.425,1.143,2.867.873a4.251,4.251,0,0,0,1.694-.686c-.137-.634-.289-1.286-.459-1.958-.006-.029-.015-.056-.019-.081a4.433,4.433,0,0,0-1.728,0c-1.441.27-2.5,1.1-2.355,1.848" transform="translate(28.523 7.918)" fill="#ca582f"/>
            <path id="Trazado_131268" data-name="Trazado 131268" d="M107.228,28.232a2.144,2.144,0,0,0-2.65,1.458c-.215,1.147-2.042,1.01-1.826-.151a3.927,3.927,0,0,1,4.63-3.13c1.147.207,1.008,2.034-.154,1.823" transform="translate(25.642 6.574)" fill="#32251d"/>
            <path id="Trazado_131269" data-name="Trazado 131269" d="M115.716,28c-.851-.725-1.949-1.794-3.146-1.252-1.072.487-1.877-1.158-.8-1.646,1.9-.863,3.546.164,4.982,1.387.89.757-.136,2.276-1.033,1.511" transform="translate(27.77 6.187)" fill="#32251d"/>
            <path id="Trazado_131270" data-name="Trazado 131270" d="M102.511,39.027a6.4,6.4,0,0,0-1.788-5.293c-1.753-1.832-4.873-4.571-7.231-3.788-3.468,1.151-3.305,4.392-2.359,7.55s3.844,6.985,8.159,5.483a4.633,4.633,0,0,0,3.22-3.952" transform="translate(22.601 7.44)" fill="#ff8763"/>
            <path id="Trazado_131271" data-name="Trazado 131271" d="M97.286,38.733a8.172,8.172,0,0,0-.875-3.94c-.622-1.063-2.156-2.505-3.534-1.794-.461.239-.913-.44-.447-.681a3.307,3.307,0,0,1,3.8.923A7.7,7.7,0,0,1,98.1,38.7a.407.407,0,0,1-.813.036" transform="translate(23.022 7.994)" fill="#32251d"/>
            <path id="Trazado_131272" data-name="Trazado 131272" d="M126.932,88.806l26,38.443-10.455,22.087,4.656,12.771s23.246-14.655,28.547-29.879c3.47-9.971-25.962-50.511-25.962-50.511Z" transform="translate(31.682 20.396)" fill="#ff8763"/>
            <path id="Trazado_131273" data-name="Trazado 131273" d="M119.837,83.057l10.89,20.452s19.193-7.358,24.4-13.819c0,0-9.518-21.692-17.117-25.845-6.333-3.46-18.063.842-19.7,10.577a13.441,13.441,0,0,0,1.531,8.636" transform="translate(29.486 15.64)" fill="#3642a8"/>
            <path id="Trazado_131274" data-name="Trazado 131274" d="M130.52,60.423a15.948,15.948,0,0,0-13.141,8.391c-.235.441.437.835.672.392a15.151,15.151,0,0,1,12.469-8c.5-.029.5-.806,0-.779" transform="translate(29.285 15.081)" fill="#13136a"/>
            <path id="Trazado_131275" data-name="Trazado 131275" d="M150.742,80.975A65.767,65.767,0,0,1,126.4,94.188a.389.389,0,0,0,.207.75,66.686,66.686,0,0,0,24.686-13.413c.381-.326-.171-.875-.55-.55" transform="translate(31.481 20.186)" fill="#13136a"/>
            <path id="Trazado_131276" data-name="Trazado 131276" d="M115.451,78.151q7.693,10.585,16.049,20.658c.32.385.867-.167.55-.551q-8.289-9.992-15.926-20.5c-.292-.4-.967-.014-.672.391" transform="translate(28.798 19.367)" fill="#13136a"/>
            <path id="Trazado_131277" data-name="Trazado 131277" d="M116.645,82.969c1.053.079,2.107-.066,3.161-.029.5.016.5-.761,0-.778-1.055-.036-2.108.107-3.161.029-.5-.036-.5.741,0,.779" transform="translate(29.021 20.506)" fill="#13136a"/>
            <path id="Trazado_131278" data-name="Trazado 131278" d="M203.4,96.292s3.77,2.87,4.63,5.952-.641,6.017-2.9,6.4c0,0,1.136,13.369-.521,16.688s-6.032-.379-6.032-.379,3.186-23.5,4.827-28.662" transform="translate(49.563 24.034)" fill="#5b413c"/>
            <path id="Trazado_131279" data-name="Trazado 131279" d="M200.7,124.149s3.77,2.87,4.63,5.952-.641,6.016-2.9,6.4c0,0,1.136,13.369-.521,16.688s-6.032-.379-6.032-.379,3.186-23.5,4.827-28.662" transform="translate(48.889 30.987)" fill="#5b413c"/>
            <path id="Trazado_131280" data-name="Trazado 131280" d="M211.425,89.646s3.778,2.739-.212,28.557,1.872,45.672-9.451,56.152-39.356-12.741-39.356-12.741l15.268-82.369c11.777-5.045,29.957.22,33.752,10.4" transform="translate(40.536 19.296)" fill="#36251f"/>
            <path id="Trazado_131281" data-name="Trazado 131281" d="M188.16,168.581a13.381,13.381,0,0,0,7.846-1.615c2.935-1.792,4.833-6.328,5.8-13.868a173.643,173.643,0,0,0,.882-20.412c.015-3.658.03-7.111.194-9.717.721-11.5,6.3-31.967,6.355-32.172a.394.394,0,1,0-.76-.209c-.056.206-5.656,20.753-6.383,32.331-.165,2.628-.18,6.094-.195,9.763-.052,12.591-.125,29.835-6.309,33.612-4.334,2.645-10.4,1.3-13.627.261-5.638-1.811-10.926-5.288-12.04-7.914a.394.394,0,1,0-.726.307c1.212,2.86,6.6,6.453,12.525,8.357a27.158,27.158,0,0,0,6.433,1.275" transform="translate(42.225 22.538)" fill="#5b413c"/>
            <path id="Trazado_131282" data-name="Trazado 131282" d="M191.225,186.479c-1.323-16.9-3.205-30.866-3.205-30.866L155.2,180.046c.1,1.958.276,4.122.512,6.433Z" transform="translate(38.738 38.841)" fill="#6b294d"/>
            <path id="Trazado_131283" data-name="Trazado 131283" d="M187,187.186c4.707-1.592,7.914-3.39,8.434-5.246,2.337-8.336-1.1-29.158-1.1-29.158-18.644,8.237-39.955,11.361-65.745,5.418-.389,3.514-2.622,15.751,2.985,28.986Z" transform="translate(31.904 38.134)" fill="#6b294d"/>
            <path id="Trazado_131284" data-name="Trazado 131284" d="M153.369,182.192l-24.761-9.4-.312,9.4Z" transform="translate(32.023 43.128)" fill="#6b294d"/>
            <path id="Trazado_131285" data-name="Trazado 131285" d="M156.615,180.142c.01.425.016.85.024,1.275q.036,2.2.055,4.394h1.257q-.021-2.319-.057-4.659c-.01-.432-.018-.867-.026-1.3-.15-7.84-.435-15.524-.665-20.95-.01-.207-.018-.411-.026-.611h-1.26c.01.241.021.486.032.737.232,5.473.519,13.224.666,21.113" transform="translate(38.916 39.51)" fill="#96507a"/>
            <path id="Trazado_131286" data-name="Trazado 131286" d="M153.05,158.292c.015.336.031.679.047,1.031.335,7.1.848,17.149,1.187,19.522a1.4,1.4,0,0,0,.709,1.133,4.289,4.289,0,0,0,2.652.164,12.461,12.461,0,0,0,1.252-.289,14.5,14.5,0,0,0,1.753-.617.629.629,0,0,1,.5,1.152,16.053,16.053,0,0,1-2.232.765,12.688,12.688,0,0,1-1.255.264,8.759,8.759,0,0,1-1.2.1,4.227,4.227,0,0,1-2.092-.444,2.668,2.668,0,0,1-1.341-2.056c-.35-2.448-.867-12.512-1.2-19.63-.019-.376-.035-.74-.052-1.1Z" transform="translate(37.886 39.51)" fill="#96507a"/>
            <path id="Trazado_131287" data-name="Trazado 131287" d="M200.768,127.3c-.147,1.242-.274,2.777-.389,4.549q-.06.913-.119,1.9c-.325,5.513-.606,12.765-1.127,20.287-.047.674-.1,1.355-.151,2.031-1.215,16.194,3.664,34.23-3.132,36.011-45.234,11.856-63.741-.835-67.8-9.256-2.144-4.446,3.649-28.32,5.708-48.989.069-.7.094-2.248.162-2.922.551-5.624,1.05-10.647,1.461-13.312,2.922-18.921,2.368-24.393,4.244-30.123S161.35,76.055,161.35,76.055l20.567.872a71.693,71.693,0,0,1,16.637,12.962c8.292,8.632,3.769,24.247,2.213,37.412" transform="translate(31.844 18.983)" fill="#ff9918"/>
            <path id="Trazado_131288" data-name="Trazado 131288" d="M174.736,117.743c-9.812,0-17.98-3.879-23.228-7.253a48.635,48.635,0,0,1-9.671-8.012.609.609,0,0,1,.918-.8,48.38,48.38,0,0,0,9.442,7.809c5.431,3.486,14.072,7.53,24.4,6.99a.609.609,0,1,1,.064,1.216q-.973.051-1.928.05" transform="translate(35.365 25.327)" fill="#dd6a18"/>
            <path id="Trazado_131289" data-name="Trazado 131289" d="M176.16,87a.687.687,0,0,0-.827-.669A28.107,28.107,0,0,1,152.2,81.1a.687.687,0,0,0-.962.142l-.009.011a.69.69,0,0,0,.129.972c.63.474,1.31.951,2.039,1.418a29.321,29.321,0,0,0,15.871,4.7,31.116,31.116,0,0,0,6.315-.66A.707.707,0,0,0,176.16,87" transform="translate(37.711 20.208)" fill="#dd6a18"/>
            <path id="Trazado_131290" data-name="Trazado 131290" d="M178.256,159.684c-9.436,0-18.979-4.264-27.981-12.578a80.782,80.782,0,0,1-13.753-16.89.688.688,0,1,1,1.195-.685,79.292,79.292,0,0,0,13.516,16.587c7.7,7.106,19.891,14.838,34.227,11.311a.688.688,0,1,1,.329,1.336,31.448,31.448,0,0,1-7.531.918" transform="translate(34.053 32.245)" fill="#dd6a18"/>
            <path id="Trazado_131291" data-name="Trazado 131291" d="M169.3,146.463a.632.632,0,0,1-.151-.017c-11.388-2.555-20.352-17.118-20.727-17.737a.688.688,0,1,1,1.175-.715c.089.146,9.038,14.683,19.854,17.111a.688.688,0,0,1-.15,1.358" transform="translate(37.021 31.865)" fill="#dd6a18"/>
            <path id="Trazado_131292" data-name="Trazado 131292" d="M170.741,37.367a17.694,17.694,0,0,0,3.082,7.1,9.516,9.516,0,0,0,4.151-.351,14.754,14.754,0,0,1,12.946,1.993c7.255,4.977,10.709,15.131,15.706,14.132,4.35-.872,2.017-5.108,1.943-5.24.069.047,3.454,2.425,5.923-.359,2.222-2.5-1.358-6.738-1.637-7.059.252.259,3.127,3.15,4.72.311.861-1.536-1.629-16.923-22.815-21.4-10.8-2.279-16.991,1.113-20.466,4.988a19.033,19.033,0,0,0-3.553,5.881" transform="translate(42.617 6.43)" fill="#36251f"/>
            <path id="Trazado_131293" data-name="Trazado 131293" d="M170.741,36.224a17.694,17.694,0,0,0,3.082,7.1,9.516,9.516,0,0,0,4.151-.351,14.754,14.754,0,0,1,12.946,1.993c-3.716-10.878-12.006-13.828-16.626-14.622a19.033,19.033,0,0,0-3.553,5.881" transform="translate(42.617 7.574)" fill="#ff9918"/>
            <path id="Trazado_131294" data-name="Trazado 131294" d="M170.826,78.79S183,80.548,190.169,70.111c6.828-9.938,6.415-16.446,5.252-23.474-.875-5.293-6.434-13.943-17.872-15.434C166,29.7,156.034,32.48,151.8,40.949c-7.916,15.851-1.445,40.706,19.021,37.84" transform="translate(37.073 7.691)" fill="#36251f"/>
            <path id="Trazado_131295" data-name="Trazado 131295" d="M153.107,54.168s-2.717-4.212-5.026-.655-1.914,11.416,3.135,10.8Z" transform="translate(36.623 13.001)" fill="#8f2d00"/>
            <path id="Trazado_131296" data-name="Trazado 131296" d="M156.645,70.77l-1.773,10.275s7.074,9.028,21.229.052a23.732,23.732,0,0,1,1.272-13.287,20.364,20.364,0,0,0-3.385,1.183,10.927,10.927,0,0,1-1.386.4c-4.341,1.191-10.8,2.462-15.957,1.378" transform="translate(38.656 16.926)" fill="#b5591d"/>
            <path id="Trazado_131297" data-name="Trazado 131297" d="M156.459,70.534l-.841,4.871c4.606-.412,12.973-1.8,18.184-6.647-.432.129-.895.262-1.386.4-4.341,1.191-10.8,2.462-15.957,1.378" transform="translate(38.842 17.162)" fill="#36251f"/>
            <path id="Trazado_131298" data-name="Trazado 131298" d="M149.45,57.49q-.208,1.625-.372,3.07c-.827,7.246-.846,11.275.657,13.3,7.6,10.237,28.528,1.928,29.2,1.659a.044.044,0,0,1,.017-.007q.429-1.187.8-2.357a64.29,64.29,0,0,0,3.112-18.931A14.52,14.52,0,0,0,175.4,38.693c-5.847-3.034-11.7-1.055-15.139-.467-5.19.888-9.171,6.929-10.4,16.116q-.219,1.651-.411,3.149" transform="translate(37.069 9.247)" fill="#b5591d"/>
            <path id="Trazado_131299" data-name="Trazado 131299" d="M155.245,52.839h-.011a.481.481,0,0,1-.451-.507c0-.051.052-1.292-.926-1.553a2.306,2.306,0,0,0-2.034.785.48.48,0,1,1-.722-.632,3.252,3.252,0,0,1,3-1.08,2.419,2.419,0,0,1,1.636,2.537.479.479,0,0,1-.495.451" transform="translate(37.685 12.422)" fill="#36251f"/>
            <path id="Trazado_131300" data-name="Trazado 131300" d="M160.431,53.246l.013.006a.538.538,0,0,0,.714-.259c.025-.051.639-1.3,1.741-1.032,1.217.294,1.578,1.843,1.582,1.859a.537.537,0,1,0,1.047-.236,3.64,3.64,0,0,0-2.377-2.667,2.709,2.709,0,0,0-2.965,1.619.537.537,0,0,0,.246.709" transform="translate(39.969 12.692)" fill="#36251f"/>
            <path id="Trazado_131301" data-name="Trazado 131301" d="M155.715,60.082a8.393,8.393,0,0,0,4.755-.848.459.459,0,1,0-.395-.83c-3.885,1.847-6.48.01-6.588-.07a.46.46,0,0,0-.546.741,6.315,6.315,0,0,0,2.774,1.007" transform="translate(38.128 14.538)" fill="#36251f"/>
            <path id="Trazado_131302" data-name="Trazado 131302" d="M154.034,62.206a3.025,3.025,0,0,1-.309-.165.456.456,0,0,1,.489-.77,2.925,2.925,0,0,0,2.9.042.456.456,0,0,1,.652.215.484.484,0,0,1-.231.595,3.77,3.77,0,0,1-3.5.082" transform="translate(38.317 15.275)" fill="#8f2d00"/>
            <path id="Trazado_131303" data-name="Trazado 131303" d="M162.021,45.666s-1.848-.057-1.425,1.7,4.322.39,6.539,3.811c0,0,1.637-3.865-5.115-5.509" transform="translate(40.069 11.398)" fill="#36251f"/>
            <path id="Trazado_131304" data-name="Trazado 131304" d="M160.833,56.385c-.111.851,1.552,1.769,3.714,2.052s4-.18,4.116-1.031-1.552-1.769-3.714-2.052-4,.18-4.116,1.031" transform="translate(40.142 13.796)" fill="#8f2d00"/>
            <g id="Grupo_158006" data-name="Grupo 158006" transform="translate(186.145 66.737)" opacity="0.8">
              <g id="Grupo_158005" data-name="Grupo 158005">
                <g id="Grupo_158004" data-name="Grupo 158004" clip-path="url(#clip-path-4)">
                  <path id="Trazado_131305" data-name="Trazado 131305" d="M149.337,53.407q-.208,1.625-.372,3.07c1.994.186,3.63-.272,3.734-1.072s-1.373-1.671-3.361-2" transform="translate(-148.964 -53.407)" fill="#8f2d00"/>
                </g>
              </g>
            </g>
            <path id="Trazado_131306" data-name="Trazado 131306" d="M155.661,56.549a4.246,4.246,0,0,1-.957-.229.485.485,0,0,1-.254-.667l2.444-4.866a.485.485,0,1,1,.866.435l-2.176,4.332a3.812,3.812,0,0,0,2.024-.167.486.486,0,0,1,.346.907,4.727,4.727,0,0,1-2.294.255" transform="translate(38.538 12.61)" fill="#36251f"/>
            <path id="Trazado_131307" data-name="Trazado 131307" d="M170.311,63.644c.039.137,1.111,3.9,3.184,5.237l0,0,.014-.01c.286-.79.554-1.577.8-2.355a9.022,9.022,0,0,1-4-2.874" transform="translate(42.509 15.885)" fill="#36251f"/>
            <path id="Trazado_131308" data-name="Trazado 131308" d="M173.124,57.893s5.492-5.668,8.272-.289c2.292,4.434-4.424,14.332-9.534,9.973Z" transform="translate(42.897 13.799)" fill="#b5591d"/>
            <path id="Trazado_131309" data-name="Trazado 131309" d="M172.653,65.112a.389.389,0,0,1-.052-.01.484.484,0,0,1-.356-.586,9.075,9.075,0,0,1,6.214-6.577.485.485,0,0,1,.241.94,8.1,8.1,0,0,0-5.513,5.867.485.485,0,0,1-.534.366" transform="translate(42.989 14.458)" fill="#36251f"/>
            <path id="Trazado_131310" data-name="Trazado 131310" d="M177.109,62.294a.479.479,0,0,1-.289-.147c-.374-.392-1.535-1.392-2.39-1.287a.485.485,0,0,1-.117-.962c1.495-.182,3.04,1.4,3.211,1.582a.484.484,0,0,1-.019.686.479.479,0,0,1-.4.129" transform="translate(43.402 14.947)" fill="#36251f"/>
            <path id="Trazado_131311" data-name="Trazado 131311" d="M184.653,49.206s-7.158,5-9.663,3.206,2.535-6.517,2.535-6.517-10.148,3.9-13.572,1.771,3.683-5.7,3.683-5.7-8.075,5.493-12.144,4.575.726-5.574.726-5.574-4.717,6.793-7.12,5.843,2.3-10.971,11-13.456,29.588.891,24.555,15.852" transform="translate(37.059 8.14)" fill="#36251f"/>
            <path id="Trazado_131312" data-name="Trazado 131312" d="M173.1,47.378S169.25,60.45,172.6,60.949s7.419-4.255,6.368-15.058Z" transform="translate(42.739 11.454)" fill="#36251f"/>
            <path id="Trazado_131313" data-name="Trazado 131313" d="M156.381,44.8s1.8.419.942,2.007-4.279-.732-7.3,2.007c0,0-.59-4.156,6.357-4.014" transform="translate(37.443 11.182)" fill="#36251f"/>
            <path id="Trazado_131314" data-name="Trazado 131314" d="M156.724,54.348h0a6.317,6.317,0,1,1,6.692,5.918c-.13.01-.26.014-.39.014a6.327,6.327,0,0,1-6.3-5.932m5.981-5.686a5.31,5.31,0,1,0,.329-.01c-.109,0-.219,0-.329.01m-5.479,5.654h0Z" transform="translate(39.115 11.892)" fill="#f4ece1"/>
            <path id="Trazado_131315" data-name="Trazado 131315" d="M147.475,57.153a6.317,6.317,0,1,1,4.571,1.573c-.132.009-.264.012-.395.012a6.271,6.271,0,0,1-4.176-1.586m3.86-10.032a5.309,5.309,0,1,0,.329-.01c-.109,0-.219,0-.329.01" transform="translate(36.277 11.508)" fill="#f4ece1"/>
            <path id="Trazado_131316" data-name="Trazado 131316" d="M157.879,52.488a.5.5,0,0,0,.431-.762,3.024,3.024,0,0,0-1.686-1.288,2.216,2.216,0,0,0-1.746.345.5.5,0,0,0,.541.85,1.236,1.236,0,0,1,.97-.216,2.013,2.013,0,0,1,1.058.831.505.505,0,0,0,.431.241" transform="translate(38.599 12.575)" fill="#f4ece1"/>
            <path id="Trazado_131317" data-name="Trazado 131317" d="M178.321,56.423a.5.5,0,0,0,.389-.822c-4.194-5.118-11.714-4-12.032-3.952a.5.5,0,0,0,.156.995c.072-.011,7.273-1.072,11.1,3.6a.5.5,0,0,0,.39.185" transform="translate(41.496 12.857)" fill="#f4ece1"/>
            <path id="Trazado_131318" data-name="Trazado 131318" d="M186.233,84.525a34.159,34.159,0,0,0-14.248,21.586c-2.948,14.813,7.05,35.39,18.7,41.364a15.057,15.057,0,0,1-.659,10.805s-25.2-8.042-27.091-40.181,16.209-37.031,16.209-37.031c2.286-.626,5.817,1.562,7.094,3.456" transform="translate(40.633 20.207)" fill="#36251f"/>
            <path id="Trazado_131319" data-name="Trazado 131319" d="M172.056,97.71a21.442,21.442,0,0,0-6.9-1.923,2.193,2.193,0,0,0-2.344,1.962,92.826,92.826,0,0,0-.615,12.642,2.194,2.194,0,0,0,2.027,2.058l6.073.456a2.194,2.194,0,0,0,2.359-2.259,48.147,48.147,0,0,1,.641-10.5,2.188,2.188,0,0,0-1.24-2.438" transform="translate(40.471 23.907)" fill="#5b413c"/>
            <path id="Trazado_131320" data-name="Trazado 131320" d="M167.79,141.929a145.134,145.134,0,0,0,13.458,8.56,65.813,65.813,0,0,0,11.832,5.327,26.732,26.732,0,0,0,6.879,1.3c.274.01.545.016.813.016a16.42,16.42,0,0,0,4.572-.62,14.053,14.053,0,0,0,3.54-1.573,13.644,13.644,0,0,0,6.014-8.29,18.107,18.107,0,0,0,.514-5.759,26.344,26.344,0,0,0-.351-2.91c-.677-3.869-2.465-8.848-5.463-15.224-2.172-4.612-5-10.006-8.407-16.027-5.728-10.123-11.093-18.505-11.319-18.858a6.232,6.232,0,0,0-2.513-2.321,81.124,81.124,0,0,0-11.529,17.383c2.057,3.34,5.046,8.287,8.09,13.671a193.219,193.219,0,0,1,9.011,17.576c-1.2-.622-2.564-1.37-4.1-2.269-5.1-3-9.291-6.034-9.332-6.064a9.947,9.947,0,0,0-11.714,16.08" transform="translate(40.86 21.354)" fill="#ff9918"/>
            <path id="Trazado_131321" data-name="Trazado 131321" d="M197.093,145.461a14.053,14.053,0,0,0,3.54-1.573,13.649,13.649,0,0,0,6.014-8.29,18.143,18.143,0,0,0,.514-5.759c-3.937,1.936-12.149,7.085-10.068,15.622" transform="translate(49.111 32.408)" fill="#dd6a18"/>
            <path id="Trazado_131322" data-name="Trazado 131322" d="M201.454,133.934a.538.538,0,0,0,.376-.922c-4.636-4.527-13.742-8.846-14.127-9.027a.537.537,0,0,0-.459.972c.092.044,9.328,4.424,13.833,8.823a.53.53,0,0,0,.376.154" transform="translate(46.659 30.933)" fill="#dd6a18"/>
            <path id="Trazado_131323" data-name="Trazado 131323" d="M188.721,125.689a.563.563,0,0,0,.167-.026c2.169-.71,6.012-.2,6.051-.191a.538.538,0,1,0,.145-1.066c-.167-.022-4.127-.55-6.53.235a.538.538,0,0,0,.167,1.048" transform="translate(46.97 31.003)" fill="#dd6a18"/>
            <path id="Trazado_131324" data-name="Trazado 131324" d="M183.62,118.44a.538.538,0,0,0,.469-.8L172.8,97.531a.537.537,0,1,0-.937.526l11.29,20.109a.537.537,0,0,0,.47.275" transform="translate(42.879 24.275)" fill="#dd6a18"/>
            <path id="Trazado_131325" data-name="Trazado 131325" d="M172.328,103.065h3.335a.538.538,0,1,0,0-1.076h-3.335a.538.538,0,0,0,0,1.076" transform="translate(42.879 25.456)" fill="#dd6a18"/>
            <path id="Trazado_131326" data-name="Trazado 131326" d="M182.319,122.9s-6.022-8.387-8.495-9.141-3.578,0-3.578,0l.157,2.288s-8.84-2.825-10.129-1.966-.107,2.9-.107,2.9-.324-.43-.754.967,1.076,2.8,1.076,2.8-.539.322-.753,1.613,1.183,2.9,1.183,2.9-.645.861,0,2.8,7.85,6.129,13.012,6.452,10.215-5.592,8.387-11.614" transform="translate(39.77 28.311)" fill="#b5591d"/>
            <path id="Trazado_131327" data-name="Trazado 131327" d="M111.1,144.987a10.622,10.622,0,0,0,1.719,1.092,11.44,11.44,0,0,0,5.273,1.246,14.029,14.029,0,0,0,3.174-.377,24.5,24.5,0,0,0,4.952-1.827,78.479,78.479,0,0,0,8.676-5.038c5.452-3.555,10.445-7.334,10.654-7.493a9.945,9.945,0,0,0-3.571-17.571c4.968-6.208,9.787-11.66,12.476-14.547a9.947,9.947,0,0,0-14.557-13.561c-.244.262-6.043,6.5-12.772,14.831-9.313,11.53-15.665,21.181-18.88,28.68q-.161.379-.3.75a14.5,14.5,0,0,0-1,4.59,10.958,10.958,0,0,0,4.164,9.225" transform="translate(26.688 20.903)" fill="#ff9918"/>
            <path id="Trazado_131328" data-name="Trazado 131328" d="M111.1,135.513a10.622,10.622,0,0,0,1.719,1.092c1.238-6.2-2.408-11.89-4.878-14.906a14.5,14.5,0,0,0-1,4.59,10.958,10.958,0,0,0,4.164,9.225" transform="translate(26.688 30.376)" fill="#dd6a18"/>
            <path id="Trazado_131329" data-name="Trazado 131329" d="M113.295,122.985a.537.537,0,0,0,.335-.117c3.66-2.928,12.573-6.553,12.663-6.589a.538.538,0,0,0-.4-1c-.372.151-9.15,3.721-12.931,6.747a.538.538,0,0,0,.336.957" transform="translate(28.144 28.764)" fill="#dd6a18"/>
            <path id="Trazado_131330" data-name="Trazado 131330" d="M115.438,121.317a.538.538,0,0,0,.469-.272l3.233-5.687a.538.538,0,1,0-.935-.532l-3.234,5.688a.538.538,0,0,0,.467.8" transform="translate(28.679 28.592)" fill="#dd6a18"/>
            <path id="Trazado_131331" data-name="Trazado 131331" d="M149.792,79.017s-3.67,25.242-6.285,36.556c-2.644,11.438-10.8,27.134-11.559,26.825,0,0-.784-18.73,3.184-28.829s5.058-26.985,7.478-30.946,7.183-3.605,7.183-3.605" transform="translate(32.918 19.72)" fill="#36251f"/>
            <path id="Trazado_131332" data-name="Trazado 131332" d="M127.023,121.5s1.582-4.753,3.273-6.658a4.223,4.223,0,0,1,4.155-1.212l-.472,2.113s7.787-.029,8.757,1.182-.775,2.8-.775,2.8.437-.312.425,1.151-1.871,2.34-1.871,2.34.416.47.231,1.766-2.007,2.412-2.007,2.412a1.488,1.488,0,0,1-.89,2.306,8.843,8.843,0,0,1-7.144-.55c-1.674-.79-4.795-2.735-3.683-7.65" transform="translate(31.646 28.328)" fill="#b5591d"/>
            <path id="Trazado_131333" data-name="Trazado 131333" d="M138.185,95.326a21.467,21.467,0,0,1,7.163-.021,2.2,2.2,0,0,1,1.741,2.515,93.011,93.011,0,0,1-2.768,12.352,2.19,2.19,0,0,1-2.5,1.443l-5.976-1.173a2.192,2.192,0,0,1-1.674-2.8,48.249,48.249,0,0,0,2.171-10.292,2.19,2.19,0,0,1,1.844-2.022" transform="translate(33.464 23.714)" fill="#5b413c"/>
          </g>
        </g>
      </g>
    </g>
  </g>
</svg>
