<svg xmlns="http://www.w3.org/2000/svg" xmlns:xlink="http://www.w3.org/1999/xlink" width="260" height="234" viewBox="0 0 260 234">
  <defs>
    <clipPath id="clip-path">
      <rect id="Rectángulo_37570" data-name="Rectángulo 37570" width="260" height="234" transform="translate(-8219 -4294)" fill="none"/>
    </clipPath>
    <clipPath id="clip-path-2">
      <rect id="Rectángulo_37565" data-name="Rectángulo 37565" width="257.716" height="184.183" fill="none"/>
    </clipPath>
    <clipPath id="clip-path-4">
      <rect id="Rectángulo_37562" data-name="Rectángulo 37562" width="4.62" height="2.995" fill="none"/>
    </clipPath>
    <clipPath id="clip-path-5">
      <rect id="Rectángulo_37563" data-name="Rectángulo 37563" width="4.281" height="2.832" fill="none"/>
    </clipPath>
  </defs>
  <g id="Enmascarar_grupo_184" data-name="Enmascarar grupo 184" transform="translate(8219 4294)" clip-path="url(#clip-path)">
    <g id="Grupo_158039" data-name="Grupo 158039">
      <g id="Grupo_158028" data-name="Grupo 158028" transform="translate(-8218 -4244)">
        <g id="Grupo_158027" data-name="Grupo 158027" clip-path="url(#clip-path-2)">
          <g id="Grupo_158026" data-name="Grupo 158026">
            <g id="Grupo_158025" data-name="Grupo 158025" clip-path="url(#clip-path-2)">
              <path id="Trazado_131493" data-name="Trazado 131493" d="M175.265,193.891h53.393a2.417,2.417,0,0,0,.6-.893c4.9-14.022.8-28.829.8-28.829-22.368,7.767-41.6,6.966-58.935,1.319,0,0-1.12,19.033,1.732,26.3a4.665,4.665,0,0,0,2.412,2.1" transform="translate(-11.852 -9.708)" fill="#19251f"/>
              <path id="Trazado_131494" data-name="Trazado 131494" d="M205.864,166.976c.02.349.041.7.062,1.072.418,7.378.969,17.827.877,20.317a1.466,1.466,0,0,1-.6,1.249,4.378,4.378,0,0,1-2.7.457,13.168,13.168,0,0,1-1.311-.165,14.894,14.894,0,0,1-1.86-.447.645.645,0,0,0-.812.423.656.656,0,0,0,.42.821,16.375,16.375,0,0,0,2.366.549,12.662,12.662,0,0,0,1.311.137,8.845,8.845,0,0,0,1.234-.023,4.294,4.294,0,0,0,2.092-.686,2.784,2.784,0,0,0,1.152-2.27c.1-2.57-.454-13.034-.877-20.431-.021-.39-.043-.769-.064-1.142Z" transform="translate(-13.834 -9.866)" fill="#5b413c"/>
              <path id="Trazado_131495" data-name="Trazado 131495" d="M239.467,182.115s4.906.259,6.344-2.031,1.7-8.19-5.663-8.367-.681,10.4-.681,10.4" transform="translate(-16.414 -10.154)" fill="#32251d"/>
              <path id="Trazado_131496" data-name="Trazado 131496" d="M190.139,82.333A37.9,37.9,0,0,1,175.5,85.745c-8.189.176-6.621,5.025-6.621,5.025s9.67,44.379,10.568,56.095-4.122,20.365-3.6,20.662,59.933-1.816,64.114,1.531.047,7-4.7,7.35c0,0,7.666,1.092,8.363-4.009s-5.207-8.911-8.87-17.784-13.431-52.665-13.431-52.665-5.4-23.954-10.279-25.011-14.286,7.091-20.907,5.395" transform="translate(-11.704 -4.544)" fill="#cb4a00"/>
              <path id="Trazado_131497" data-name="Trazado 131497" d="M182.349,90.184a5.3,5.3,0,0,0,6.2,6.235c2.407-.424,4.744-1.815,6.876-2.957a73.365,73.365,0,0,0,7.042-4.316c.411-.284.022-.966-.393-.679a72.213,72.213,0,0,1-10.416,6.009c-1.892.886-4.278,1.911-6.288.779a4.646,4.646,0,0,1-2.268-4.862c.095-.495-.655-.707-.75-.209" transform="translate(-12.639 -5.227)" fill="#861900"/>
              <path id="Trazado_131498" data-name="Trazado 131498" d="M176.224,167.026c11.817-7.5,26.316-.024,39.088-2.1.493-.081.284-.839-.207-.759-12.9,2.1-27.306-5.416-39.274,2.184-.423.268-.034.949.393.679" transform="translate(-12.181 -9.63)" fill="#861900"/>
              <path id="Trazado_131499" data-name="Trazado 131499" d="M220.764,108.977c6.709,15.585,4.483,33.47,11.489,48.975a35.542,35.542,0,0,0,6.984,10.374c.355.359.9-.2.551-.556-11.738-11.923-11.442-30-14.338-45.436a64.806,64.806,0,0,0-4.014-13.754c-.2-.463-.87-.063-.672.4" transform="translate(-15.307 -6.408)" fill="#861900"/>
              <path id="Trazado_131500" data-name="Trazado 131500" d="M182.74,36.768s-3.968,4.162-4.6,7.646a14.34,14.34,0,0,0,.652,6.841s7.923-9.424,3.95-14.487" transform="translate(-12.342 -2.174)" fill="#32251d"/>
              <path id="Trazado_131501" data-name="Trazado 131501" d="M181.747,39.111a9.714,9.714,0,0,1-3.766-8.591c.329-5.913,11.634.175,11.634.175s-1.562-5.07,4.423-4.908,16.924,6.475,18.2,9.594c0,0,3.414-.035,4.747,1.065s-2.831,2.3-2.831,2.3,3.251.556,3.522,2.4-3.1.315-3.1.315a11.8,11.8,0,0,1,1.178,8.742,40.856,40.856,0,0,1-4.736,11.053s2.254,3.948-2.028,5.51-7.535-2.018-7.535-2.018,3.429-20.724-1.091-24.6-18.623-1.044-18.623-1.044" transform="translate(-12.341 -1.525)" fill="#32251d"/>
              <path id="Trazado_131502" data-name="Trazado 131502" d="M205.114,80.622c-21.7,17.966-19.452,4.227-19.452,4.227a31.813,31.813,0,0,0,1.056-7.731c.13-3.189.033-6.356-.058-8.285-.055-1.157-.107-1.868-.107-1.868L202.837,61.7l.611,5.094.066.532Z" transform="translate(-12.871 -3.648)" fill="#ff8763"/>
              <path id="Trazado_131503" data-name="Trazado 131503" d="M201.1,65.532a7.407,7.407,0,0,1,.827,1.541c.479,1.806-6.692,8.092-12.51,9.776a11.394,11.394,0,0,1-2.619.46c.13-3.19.034-6.357-.058-8.286l13.911-4.1Z" transform="translate(-12.95 -3.839)" fill="#32251d"/>
              <path id="Trazado_131504" data-name="Trazado 131504" d="M206.959,61.6c-2.771,3.8-11.084,8.387-16.991,9.014s-9.835.559-12.388-6.186a17.958,17.958,0,0,1-.592-8.605c.181-.885.379-1.785.592-2.688.808-3.44,1.8-6.936,2.664-9.809,3.9-12.888,19.967-17.331,29.539-7.949a16.636,16.636,0,0,1,2.234,2.69c5.948,8.987-2.288,19.736-5.058,23.534" transform="translate(-12.255 -1.796)" fill="#ff8763"/>
              <path id="Trazado_131505" data-name="Trazado 131505" d="M185.206,52.637,183.981,53.9a5.616,5.616,0,0,0-1.031,1.125c-.467.9,1.094,1.667,1.637,2.089.385.3.762-.364.381-.66-.306-.238-.653-.46-.936-.727a.908.908,0,0,1-.344-.43l.2-.208a2.572,2.572,0,0,1,.415-.429l1.439-1.488c.34-.352-.194-.892-.534-.54" transform="translate(-12.681 -3.106)" fill="#32251d"/>
              <path id="Trazado_131506" data-name="Trazado 131506" d="M191.42,53.844c-.22.639-.782,1.022-1.255.856a1.111,1.111,0,0,1-.462-1.458c.22-.64.782-1.023,1.255-.856a1.111,1.111,0,0,1,.462,1.458" transform="translate(-13.15 -3.095)" fill="#32251d"/>
              <path id="Trazado_131507" data-name="Trazado 131507" d="M183.021,51.349c-.22.639-.782,1.022-1.255.856a1.111,1.111,0,0,1-.462-1.458c.22-.639.782-1.023,1.256-.856a1.111,1.111,0,0,1,.461,1.458" transform="translate(-12.567 -2.948)" fill="#32251d"/>
              <path id="Trazado_131508" data-name="Trazado 131508" d="M180.124,59.118S183,60.735,188.943,61.2c0,0-2.2,4.962-6.3,3.5-3.479-1.244-2.516-5.578-2.516-5.578" transform="translate(-12.483 -3.496)" fill="#fff"/>
              <path id="Trazado_131509" data-name="Trazado 131509" d="M180.875,66.985a2.809,2.809,0,0,0,2.957.5c.523-.251.113-1.058-.409-.808a1.965,1.965,0,0,1-2.055-.449c-.467-.345-.957.415-.492.758" transform="translate(-12.531 -3.911)" fill="#ca582f"/>
              <path id="Trazado_131510" data-name="Trazado 131510" d="M195.494,59.282c-.23.723-1.527.947-2.9.5s-2.3-1.393-2.066-2.116,1.528-.946,2.9-.5,2.3,1.392,2.066,2.115" transform="translate(-13.211 -3.367)" fill="#ca582f"/>
              <path id="Trazado_131511" data-name="Trazado 131511" d="M180.134,55.642c-.228.723-1.525.945-2.9.5.181-.884.379-1.784.592-2.688.082.024.161.046.24.072,1.373.449,2.3,1.394,2.066,2.117" transform="translate(-12.291 -3.161)" fill="#ca582f"/>
              <path id="Trazado_131512" data-name="Trazado 131512" d="M192.015,49.387a2.105,2.105,0,0,1,2.4,1.766c.067,1.154,1.862,1.246,1.794.076a3.868,3.868,0,0,0-4.117-3.656c-1.143.062-1.233,1.877-.076,1.814" transform="translate(-13.259 -2.813)" fill="#32251d"/>
              <path id="Trazado_131513" data-name="Trazado 131513" d="M181.15,47.227c.908-.435,2.112-1.115,3.024-.356.818.68,1.9-.573,1.082-1.254-1.453-1.209-3.118-.694-4.65.04-.949.454-.413,2.029.544,1.57" transform="translate(-12.49 -2.655)" fill="#32251d"/>
              <path id="Trazado_131514" data-name="Trazado 131514" d="M182.689,38.774a5.955,5.955,0,0,0,7.319,2.8c5.145-1.619,5.522-.67,8.907.841s-2.02.9,1.546,4.565-1.107,1.329-2.061,5.059,1.326,3.063,4.525,3.418,3.763,4.315,1.835,7.865-.818,1.457-.818,1.457A20.457,20.457,0,0,0,214.9,51.05c1.384-5.937,1.219-13.116-5.094-17.891-12.5-9.454-25.712.273-27.117,5.614" transform="translate(-12.669 -1.726)" fill="#32251d"/>
              <path id="Trazado_131515" data-name="Trazado 131515" d="M201.746,58.748a6.162,6.162,0,0,1,1.68-5.068c1.656-1.756,4.6-4.384,6.836-3.639,3.282,1.093,3.135,4.2,2.248,7.217s-3.621,6.691-7.707,5.264a4.425,4.425,0,0,1-3.056-3.775" transform="translate(-13.987 -2.951)" fill="#ff8763"/>
              <path id="Trazado_131516" data-name="Trazado 131516" d="M206.577,59.15a7.876,7.876,0,0,1,.819-3.77c.586-1.02,2.034-2.4,3.34-1.725.437.227.863-.423.422-.652a3.108,3.108,0,0,0-3.6.89,7.432,7.432,0,0,0-1.753,5.225.386.386,0,0,0,.771.032" transform="translate(-14.272 -3.118)" fill="#32251d"/>
              <path id="Trazado_131517" data-name="Trazado 131517" d="M227.559,86.936s2.156,10.635,5.553,10.9,4.116-7,3.528-10.9Z" transform="translate(-15.781 -5.141)" fill="#32251d"/>
              <path id="Trazado_131518" data-name="Trazado 131518" d="M220.676,72.592s14.711-7.924,20.155-14.312l15.281-37.312,6.272.881S259.249,61,248.621,73.538c-7.5,8.852-23.576,14.9-23.576,14.9Z" transform="translate(-15.304 -1.24)" fill="#ff8763"/>
              <path id="Trazado_131519" data-name="Trazado 131519" d="M242.338,61.489a23.417,23.417,0,0,1,3.944,3.064c.272.263.685-.154.413-.417a24.147,24.147,0,0,0-4.062-3.157c-.322-.2-.615.31-.3.509" transform="translate(-16.796 -3.603)" fill="#ca582f"/>
              <path id="Trazado_131520" data-name="Trazado 131520" d="M274.978,14.646c.216,2.569-1.989,2.995-5.122,5.5-2.059,1.647-4.8,5.6-7.367,4.146a21.565,21.565,0,0,1-4.211-3.09,6.338,6.338,0,0,1-1.378-5.581s.98-4.755,2.143-5.445,2.813.668,2.813.668c1.12-.462,6.232-10.388,7.84-10.823,0,0,1.835-.41,1.139,2.045A45.139,45.139,0,0,1,267.4,9.2s5.66-7.471,7.394-7.416c.5.016.839.508.683,1.25-.226,1.074-1.332,2.14-1.986,3.015a52.7,52.7,0,0,0-3.17,4.689,3.4,3.4,0,0,1,2.505.193c1.039.659.141,2.093.141,2.093s1.874.033,2.007,1.618" transform="translate(-17.803 0)" fill="#ff8763"/>
              <path id="Trazado_131521" data-name="Trazado 131521" d="M258.21,22.784a8.064,8.064,0,0,0,4.127,3.236c.356.124.508-.446.155-.569a7.419,7.419,0,0,1-3.779-2.964c-.206-.316-.712-.021-.5.3" transform="translate(-17.903 -1.322)" fill="#ca582f"/>
              <path id="Trazado_131522" data-name="Trazado 131522" d="M262.979,17.286a3.916,3.916,0,0,0,.517.09,1.548,1.548,0,0,0,1.179-.281,1.2,1.2,0,0,0,.407-.869,2.724,2.724,0,0,0-.228-1.24,3.73,3.73,0,0,0-.249-.518,9.52,9.52,0,0,0-2.222-2.494.245.245,0,0,0-.342.047.248.248,0,0,0,.047.346,9.161,9.161,0,0,1,2.091,2.344,3.2,3.2,0,0,1,.221.457,2.265,2.265,0,0,1,.2,1.022.732.732,0,0,1-.233.527,1.085,1.085,0,0,1-.817.169,3.426,3.426,0,0,1-.451-.079,8.862,8.862,0,0,1-4.174-3.086.242.242,0,0,0-.343-.04.248.248,0,0,0-.039.346,9.223,9.223,0,0,0,4.44,3.26h0" transform="translate(-17.926 -0.705)" fill="#ca582f"/>
              <path id="Trazado_131523" data-name="Trazado 131523" d="M270.28,19.741a3.962,3.962,0,0,0,2.323-.517.248.248,0,0,0,.1-.334.244.244,0,0,0-.331-.1c-.467.253-1.794.8-2.315.3-.741-.713.84-2.787,1.454-3.457a.249.249,0,0,0,0-.329.241.241,0,0,0-.323-.041c-.6.418-2.3,1.365-3.023.742a.494.494,0,0,1-.174-.4c0-1.058,2-3.032,2.773-3.7a.249.249,0,0,0,.025-.348.243.243,0,0,0-.344-.025c-.3.263-2.945,2.6-2.943,4.079a.994.994,0,0,0,.345.775c.655.565,1.7.282,2.5-.081-.686.967-1.428,2.379-.628,3.148a1.193,1.193,0,0,0,.56.3" transform="translate(-18.551 -0.678)" fill="#ca582f"/>
              <path id="Trazado_131524" data-name="Trazado 131524" d="M268.629,11.173a.238.238,0,0,0,.166-.02.248.248,0,0,0,.108-.331,4.213,4.213,0,0,0-2.28-1.855.241.241,0,0,0-.314.146.247.247,0,0,0,.145.317,3.8,3.8,0,0,1,2.013,1.615.242.242,0,0,0,.162.129" transform="translate(-18.467 -0.529)" fill="#ca582f"/>
              <path id="Trazado_131525" data-name="Trazado 131525" d="M267.313,11.9a11.578,11.578,0,0,0-2.48,2.687,3.443,3.443,0,0,1,.236.492,11.652,11.652,0,0,1,2.529-2.767.262.262,0,0,0,.061-.35.256.256,0,0,0-.347-.062" transform="translate(-18.366 -0.701)" fill="#ca582f"/>
              <path id="Trazado_131526" data-name="Trazado 131526" d="M262.258,22.456a.243.243,0,0,0,.186.237l.057.013a.252.252,0,0,0,.238-.247,12.649,12.649,0,0,1,1.042-5.006,3.829,3.829,0,0,1-.482-.085,13.258,13.258,0,0,0-1.041,5.088" transform="translate(-18.187 -1.027)" fill="#ca582f"/>
              <path id="Trazado_131527" data-name="Trazado 131527" d="M208.2,77.713l16.916-5.958s1.269,21.615,5.973,24.257,4.313-9.1,4.313-9.1,1.583,7.373-2.541,10.547-9.089,7.269-9.089,7.269-18.861,5.543-15.573-27.018" transform="translate(-14.412 -4.243)" fill="#cb4a00"/>
              <path id="Trazado_131528" data-name="Trazado 131528" d="M224.4,105.981a51.15,51.15,0,0,1-12.027,5.571c-.48.151-.275.916.208.765a51.993,51.993,0,0,0,12.214-5.652c.427-.269.034-.955-.4-.684" transform="translate(-14.709 -6.263)" fill="#861900"/>
              <path id="Trazado_131529" data-name="Trazado 131529" d="M101.209,65.758s-9.2-3.035-15,1.106-8.027,15.3-8.027,15.3l18.007-.35Z" transform="translate(-5.422 -3.825)" fill="#5b413c"/>
              <path id="Trazado_131530" data-name="Trazado 131530" d="M86.994,96.15s-14.88-11.348-18.7,2.282c-4.117,14.684,3.867,23.5,3.867,23.5l9.816-9.725Z" transform="translate(-4.654 -5.424)" fill="#5b413c"/>
              <path id="Trazado_131531" data-name="Trazado 131531" d="M117.523,63.422S95.892,51.708,78.648,80.172s-6.83,62.635,8.375,71.259,32.619-2.239,32.619-2.239Z" transform="translate(-4.834 -3.609)" fill="#36251f"/>
              <path id="Trazado_131532" data-name="Trazado 131532" d="M136.308,193.865c-.148-2.263-.269-4.385-.365-6.3l32.367-23.827s1.825,13.691,3.08,30.129Z" transform="translate(-9.428 -9.682)" fill="#36251f"/>
              <path id="Trazado_131533" data-name="Trazado 131533" d="M102.442,194.408c.26-12.187.662-21.5.662-21.5l35.689,15.159c-.078,2-.18,4.129-.309,6.341Z" transform="translate(-7.104 -10.224)" fill="#36251f"/>
              <path id="Trazado_131534" data-name="Trazado 131534" d="M149.851,85.33c.016.051.029.1.045.149l.038.124.785,2.493.782,2.525,1.535,5.069q1.52,5.075,2.959,10.16.547,1.948,1.083,3.894.607,2.22,1.195,4.437.24.913.477,1.827c.873,3.379,1.7,6.754,2.42,10.077.354,1.655.7,3.31.969,4.9.077.4.131.788.2,1.183l.092.581.074.534.075.533c.023.18.039.365.06.547.036.365.085.724.108,1.1a59.554,59.554,0,0,1-.025,9.332,92.267,92.267,0,0,1-1.267,9.729c-.3,1.628-.632,3.255-1,4.87-.187.806-.378,1.611-.581,2.4l-.309,1.175-.294,1.052-.087.314a8.455,8.455,0,0,0,5.771,10.418,8.35,8.35,0,0,0,10.219-5.547l.252-.8.221-.718.413-1.409c.266-.933.516-1.862.757-2.793q.722-2.79,1.317-5.61a110.623,110.623,0,0,0,1.82-11.507c.2-1.962.342-3.947.41-5.965s.06-4.065-.058-6.155c-.021-.519-.07-1.048-.11-1.573-.021-.265-.039-.527-.066-.792l-.087-.8-.089-.8c-.031-.26-.067-.5-.1-.746-.069-.49-.133-.994-.212-1.47-.291-1.94-.635-3.8-.992-5.649-.718-3.69-1.52-7.283-2.361-10.85q-.3-1.273-.609-2.539c-.2-.814-.4-1.628-.6-2.44q-.7-2.825-1.431-5.634-1.369-5.273-2.819-10.506l-1.465-5.231-.749-2.616-.769-2.641A9.361,9.361,0,0,0,156.2,73.56a9.493,9.493,0,0,0-6.345,11.77" transform="translate(-10.365 -4.327)" fill="#ff9568"/>
              <path id="Trazado_131535" data-name="Trazado 131535" d="M157.643,111.846q.609,2.22,1.195,4.437l17.405-5.142c-.2-.814-.4-1.628-.6-2.44Z" transform="translate(-10.932 -6.428)" fill="#e0693e"/>
              <path id="Trazado_131536" data-name="Trazado 131536" d="M149.328,86.481l6.02,25.7,22.348-5.038s-5.012-27.088-11.751-32.172c-3.731-2.815-7.041-3.427-10.908-1.4a11.577,11.577,0,0,0-5.709,12.911" transform="translate(-10.334 -4.28)" fill="#236676"/>
              <path id="Trazado_131537" data-name="Trazado 131537" d="M156.758,193.653H106.421c-5.6-13.7-3.14-28.33-3.14-28.33,24.412,5.687,44.584,2.7,62.233-5.186,0,0,3.257,19.927,1.046,27.9-.556,2.006-4.362,3.947-9.8,5.612" transform="translate(-7.125 -9.469)" fill="#36251f"/>
              <path id="Trazado_131538" data-name="Trazado 131538" d="M138.65,193.97q-.018-1.492-.041-2.988c-.007-.468-.015-.935-.025-1.4-.16-8.689-.472-17.226-.726-23.255-.012-.276-.023-.546-.034-.812H139.2q.014.332.028.673c.25,5.977.562,14.439.724,23.076.011.477.019.956.029,1.432q.027,1.641.045,3.279Z" transform="translate(-9.558 -9.787)" fill="#5b413c"/>
              <path id="Trazado_131539" data-name="Trazado 131539" d="M133.16,165.511c.017.37.034.747.051,1.136.366,7.82.925,18.889,1.295,21.5a1.547,1.547,0,0,0,.772,1.249,4.628,4.628,0,0,0,2.89.18,13.619,13.619,0,0,0,1.363-.319,15.958,15.958,0,0,0,1.911-.678.682.682,0,0,1,.9.356.7.7,0,0,1-.352.912,17.363,17.363,0,0,1-2.433.843,13.524,13.524,0,0,1-1.366.291,9.365,9.365,0,0,1-1.3.114,4.553,4.553,0,0,1-2.279-.488,2.943,2.943,0,0,1-1.461-2.265c-.381-2.7-.944-13.782-1.307-21.621-.02-.414-.039-.815-.057-1.211Z" transform="translate(-9.139 -9.787)" fill="#5b413c"/>
              <path id="Trazado_131540" data-name="Trazado 131540" d="M98.729,111.655c.14,1.189.259,2.657.369,4.352q.056.874.112,1.819c.307,5.276.573,12.216,1.067,19.415.044.645.092,1.3.143,1.944,1.148,15.5-3.377,20.893,3.106,22.383,39.378,9.058,55.459-.024,60.251-3.816,5.293-4.187,1.724-20.963-.225-40.741-.064-.669-.126-1.327-.191-1.971-.521-5.383-.91-9.8-.92-12.382-.041-12-1.6-24.79-3.371-30.272s-21.559-9.834-21.559-9.834l-21.934.94a77.491,77.491,0,0,0-14.754,12.362c-7.85,8.26-3.567,23.2-2.095,35.8" transform="translate(-6.674 -3.699)" fill="#236676"/>
              <path id="Trazado_131541" data-name="Trazado 131541" d="M142.9,96.269l9.266,16.482-8.5.6,7.205,12-21.673-16.812,10.692-1.78-10.305-9.443Z" transform="translate(-8.96 -5.693)" fill="#104151"/>
              <path id="Trazado_131542" data-name="Trazado 131542" d="M145.807,63.841s3.831,24.575,6.126,35.255A72.3,72.3,0,0,0,162.2,123.548a75.748,75.748,0,0,0,6.459,8.163c.56.059,2.078-6.5-1.751-15.551-7.057-16.683-12.517-46.542-14.72-50.3s-6.376-2.019-6.376-2.019" transform="translate(-10.112 -3.751)" fill="#36251f"/>
              <path id="Trazado_131543" data-name="Trazado 131543" d="M157.294,85.275a20.9,20.9,0,0,0-7.065-.116,2.186,2.186,0,0,0-1.748,2.485,93.469,93.469,0,0,0,2.566,12.35,2.162,2.162,0,0,0,2.448,1.473l5.909-1.09a2.188,2.188,0,0,0,1.687-2.774,48.558,48.558,0,0,1-2.006-10.289,2.173,2.173,0,0,0-1.791-2.039" transform="translate(-10.295 -5.021)" fill="#5b413c"/>
              <path id="Trazado_131544" data-name="Trazado 131544" d="M120.354,79.309a27.536,27.536,0,0,0,15.023-4.5,28.855,28.855,0,0,0,7.388-6.74.663.663,0,0,0-.15-.918.646.646,0,0,0-.908.151c-.1.137-9.951,13.678-27.09,10.083a.65.65,0,0,0-.77.511.658.658,0,0,0,.5.778,29.2,29.2,0,0,0,6,.636" transform="translate(-7.894 -3.963)" fill="#104151"/>
              <path id="Trazado_131545" data-name="Trazado 131545" d="M105.124,70.759a32.137,32.137,0,0,1,13,20.491c2.561,13.977-7,33.216-17.913,38.693a14.316,14.316,0,0,0,.479,10.176s23.558-7.253,25.714-37.473-14.63-35.051-14.63-35.051c-2.12-.618-5.434,1.4-6.647,3.164" transform="translate(-6.901 -3.99)" fill="#36251f"/>
              <path id="Trazado_131546" data-name="Trazado 131546" d="M119.571,87.934a19.759,19.759,0,0,1,6.448-1.724,2.049,2.049,0,0,1,2.158,1.876,88.274,88.274,0,0,1,.416,11.9,2.053,2.053,0,0,1-1.912,1.911l-5.659.355a2.054,2.054,0,0,1-2.167-2.156,45.9,45.9,0,0,0-.467-9.888,2.064,2.064,0,0,1,1.184-2.279" transform="translate(-8.207 -5.098)" fill="#5b413c"/>
              <path id="Trazado_131547" data-name="Trazado 131547" d="M167.525,110.525h.02a.455.455,0,0,0,.431-.476c-.007-.161-.725-16.224-2.574-25.728a.451.451,0,0,0-.53-.359.456.456,0,0,0-.355.535c1.836,9.437,2.55,25.432,2.557,25.592a.453.453,0,0,0,.45.437" transform="translate(-11.408 -4.964)" fill="#104151"/>
              <path id="Trazado_131548" data-name="Trazado 131548" d="M166.055,90.654a.451.451,0,0,0,.429-.314l1.136-3.5a.458.458,0,0,0-.288-.576.449.449,0,0,0-.57.292l-1.136,3.5a.454.454,0,0,0,.429.6" transform="translate(-11.484 -5.1)" fill="#104151"/>
              <path id="Trazado_131549" data-name="Trazado 131549" d="M121.342,162.068c8.553.542,17.444-2.816,26.076-9.917a73.82,73.82,0,0,0,13.424-14.686.634.634,0,0,0-.177-.874.62.62,0,0,0-.866.18,72.607,72.607,0,0,1-13.194,14.421c-7.385,6.069-18.872,12.451-31.664,8.4a.625.625,0,0,0-.783.413.633.633,0,0,0,.409.792,28.31,28.31,0,0,0,6.773,1.274" transform="translate(-7.915 -8.071)" fill="#104151"/>
              <path id="Trazado_131550" data-name="Trazado 131550" d="M130.6,153.494a.618.618,0,0,0,.138-.007c10.467-1.688,19.419-14.516,19.795-15.061a.636.636,0,0,0-.155-.879.62.62,0,0,0-.869.157c-.089.129-9.026,12.933-18.967,14.536a.632.632,0,0,0,.059,1.253" transform="translate(-9.016 -8.127)" fill="#104151"/>
              <path id="Trazado_131551" data-name="Trazado 131551" d="M140.1,24s-1.173-6.036.357-11.044c1.506-4.928,1.506-7.874.567-8.747-2.956-2.754-5.736,3.944-5.736,3.944s.78-6.226-1.778-6.4-4.346,5.858-4.346,5.858S129.645-1.229,126.3.7s-4.583,7.823-4.583,7.823-11.5,1.936-15.729,9.735c0,0-3.461-3.728-5.714-1.529s2.427,5.837,2.427,5.837-3.6,2.392-3.04,5.827,4.826,1.081,4.826,1.081-.719,18.382,14.725,23.433S140.1,24,140.1,24" transform="translate(-6.907 -0.025)" fill="#d65900"/>
              <path id="Trazado_131552" data-name="Trazado 131552" d="M136.826,56.983l.741,5.564a16.426,16.426,0,0,1-1.643,1.628c-8.184,7.02-18.8,1.152-18.8,1.152l-2.567-19.291,19.614,9.642Z" transform="translate(-7.944 -2.722)" fill="#ff9568"/>
              <path id="Trazado_131553" data-name="Trazado 131553" d="M137.319,57.489l.741,5.564a16.428,16.428,0,0,1-1.643,1.628c-8.059-2.22-14.758-10.1-14.758-10.1l13,1.6Z" transform="translate(-8.437 -3.228)" fill="#36251f"/>
              <path id="Trazado_131554" data-name="Trazado 131554" d="M141.986,34.675s2.463-3.9,4.585-.623,1.79,10.528-2.823,9.976Z" transform="translate(-9.847 -1.936)" fill="#e0693e"/>
              <path id="Trazado_131555" data-name="Trazado 131555" d="M144.173,43.058s1.2,10.9-9.9,12.384a29.065,29.065,0,0,1-19.5-4.336l-.013-.008-.422-2.25-2.192-11.675-1.172-6.24s-2.914-11.127,7.451-14.638c7.573-2.566,15.036-2.251,19.26,1.348.137.116.27.236.4.36a9.781,9.781,0,0,1,2.795,4.987l1.846,11.243.452,2.756Z" transform="translate(-7.67 -0.864)" fill="#ff9568"/>
              <path id="Trazado_131556" data-name="Trazado 131556" d="M129.082,42.262s1.6,4.679,5.448,5.319c4.381.728,5.18-4.81,5.18-4.81Z" transform="translate(-8.952 -2.499)" fill="#f4ece1"/>
              <path id="Trazado_131557" data-name="Trazado 131557" d="M136.481,49.584a2.311,2.311,0,0,0,.256-.094.363.363,0,0,0,.178-.477.353.353,0,0,0-.471-.18,2.261,2.261,0,0,1-2.248-.288.354.354,0,0,0-.5.056.362.362,0,0,0,.056.506,2.914,2.914,0,0,0,2.731.476" transform="translate(-9.266 -2.866)" fill="#e0693e"/>
              <path id="Trazado_131558" data-name="Trazado 131558" d="M128.848,34.232c.143,1.078-.224,2.017-.821,2.1s-1.2-.727-1.34-1.806.224-2.017.821-2.1,1.2.727,1.34,1.806" transform="translate(-8.783 -1.917)" fill="#36251f"/>
              <path id="Trazado_131559" data-name="Trazado 131559" d="M140.184,32.707c.143,1.078-.224,2.018-.821,2.1s-1.2-.727-1.34-1.806.224-2.017.821-2.1,1.2.726,1.34,1.8" transform="translate(-9.57 -1.827)" fill="#36251f"/>
              <path id="Trazado_131560" data-name="Trazado 131560" d="M135.146,38.852a3.794,3.794,0,0,0,3.259-2.392.453.453,0,0,0-.054-.38c-2.277-3.472-4.591-7.043-4.613-7.079a.441.441,0,0,0-.613-.129.45.45,0,0,0-.128.619c.022.036,2.25,3.474,4.486,6.883a3.038,3.038,0,0,1-2.455,1.59.448.448,0,0,0,.118.887" transform="translate(-9.218 -1.703)" fill="#36251f"/>
              <path id="Trazado_131561" data-name="Trazado 131561" d="M122.447,20.257a2.617,2.617,0,0,0-2.18,2.462,4.259,4.259,0,0,1-1.765,3.1c-3.12,2.654-2.109,5.582-1,7.974s-3.217,7.679-7.066,1.883-2.8-19.257,6.214-21.117,21.438-.509,23,3.515a21.188,21.188,0,0,1,1.411,7.672,4.964,4.964,0,0,1-1.872-3.7c-.231-2.63-2.159-3.416-5.222-3.416a105.908,105.908,0,0,0-11.522,1.621" transform="translate(-7.513 -0.813)" fill="#d65900"/>
              <g id="Grupo_158021" data-name="Grupo 158021" transform="translate(130.887 33.37)" opacity="0.8">
                <g id="Grupo_158020" data-name="Grupo 158020">
                  <g id="Grupo_158019" data-name="Grupo 158019" clip-path="url(#clip-path-4)">
                    <path id="Trazado_131562" data-name="Trazado 131562" d="M145.26,38.223c-.272.065-.559.119-.855.159-1.97.268-3.655-.151-3.759-.936s1.41-1.64,3.381-1.908q.4-.054.781-.071Z" transform="translate(-140.64 -35.467)" fill="#e0693e"/>
                  </g>
                </g>
              </g>
              <path id="Trazado_131563" data-name="Trazado 131563" d="M129.238,38.968c.1.785-1.41,1.639-3.383,1.907s-3.656-.151-3.761-.935,1.41-1.639,3.383-1.907,3.657.151,3.761.935" transform="translate(-8.467 -2.244)" fill="#e0693e"/>
              <path id="Trazado_131564" data-name="Trazado 131564" d="M121.949,29.186h0a2.515,2.515,0,0,0,3.447.842,14.093,14.093,0,0,1,2.4-1.175,2.359,2.359,0,0,0,1.359-3.127s-5.228.224-7.207,3.461" transform="translate(-8.457 -1.521)" fill="#d65900"/>
              <path id="Trazado_131565" data-name="Trazado 131565" d="M142.915,26.4h0a2.527,2.527,0,0,1-3.106,1.733,13.976,13.976,0,0,0-2.622-.492,2.344,2.344,0,0,1-2.127-2.653s5.1-1.181,7.855,1.412" transform="translate(-9.365 -1.462)" fill="#d65900"/>
              <path id="Trazado_131566" data-name="Trazado 131566" d="M117.942,48.249c-.034.126-1,3.608-2.891,4.846l-.012-.009-.422-2.25a7.725,7.725,0,0,0,3.324-2.587" transform="translate(-7.949 -2.853)" fill="#36251f"/>
              <path id="Trazado_131567" data-name="Trazado 131567" d="M114.427,40.423s-5.034-5.211-7.552-.235c-2.075,4.1,4.091,13.208,8.741,9.168Z" transform="translate(-7.383 -2.249)" fill="#ff9568"/>
              <path id="Trazado_131568" data-name="Trazado 131568" d="M114.984,47.883l.048-.008a.449.449,0,0,0,.323-.543,8.322,8.322,0,0,0-5.7-6.046.442.442,0,0,0-.537.326.449.449,0,0,0,.321.543,7.426,7.426,0,0,1,5.054,5.393.442.442,0,0,0,.488.336" transform="translate(-7.566 -2.44)" fill="#36251f"/>
              <path id="Trazado_131569" data-name="Trazado 131569" d="M110.6,45.892a.437.437,0,0,0,.263-.136c.34-.365,1.394-1.29,2.177-1.2a.448.448,0,0,0,.1-.889c-1.362-.162-2.77,1.3-2.925,1.472a.45.45,0,0,0,.02.632.436.436,0,0,0,.362.118" transform="translate(-7.635 -2.582)" fill="#36251f"/>
              <path id="Trazado_131570" data-name="Trazado 131570" d="M83.456,136.578l.009.42c.008.563.037,1.117.07,1.669.07,1.1.187,2.188.338,3.254a50.307,50.307,0,0,0,3.284,11.859,67.306,67.306,0,0,0,5.3,10.255c.995,1.6,2.066,3.146,3.173,4.661.56.754,1.134,1.5,1.726,2.236.3.372.6.737.913,1.107l.479.56.552.632a6.991,6.991,0,0,0,9.894,1.178,7.173,7.173,0,0,0,1.164-10c.009,0-.01-.027-.027-.061l-.059-.1-.129-.223-.268-.47-.546-.984c-.367-.661-.724-1.339-1.072-2.022-.706-1.36-1.355-2.752-1.973-4.142a59.853,59.853,0,0,1-3.012-8.375,39.228,39.228,0,0,1-.908-4.1q-.159-1.009-.272-1.989c-.07-.652-.116-1.3-.139-1.924s-.027-1.249,0-1.849c.015-.3.031-.6.058-.888l.081-1.035c.12-1.46.284-2.981.5-4.538s.454-3.131.72-4.724.544-3.2.844-4.8q.466-2.454.963-4.923.3-1.506.62-3.016c.122-.585.246-1.173.372-1.76l1.063-4.87,1.1-4.875,1.13-4.87,1.139-4.8.036-.152a10.41,10.41,0,0,0-7.605-12.546A10.287,10.287,0,0,0,90.567,88.06l0,.01-.614,2.6c-.2.853-.384,1.7-.573,2.555-.376,1.7-.728,3.406-1.075,5.113s-.68,3.415-1,5.131-.637,3.431-.923,5.159q-.165.97-.324,1.945-.334,2.035-.641,4.085-.328,2.2-.616,4.41c-.226,1.76-.444,3.527-.631,5.317s-.342,3.6-.467,5.434-.211,3.715-.236,5.659l-.007.734Z" transform="translate(-5.788 -4.735)" fill="#ff9568"/>
              <path id="Trazado_131571" data-name="Trazado 131571" d="M85.562,116.571l19.7,2.6q.3-1.506.62-3.016L86.2,112.486q-.334,2.035-.641,4.085" transform="translate(-5.934 -6.652)" fill="#e0693e"/>
              <path id="Trazado_131572" data-name="Trazado 131572" d="M112.095,90.62l-6.211,25.649-22.309-5.208s5.213-27.049,11.99-32.083c3.751-2.786,7.066-3.372,10.917-1.313a11.577,11.577,0,0,1,5.613,12.954" transform="translate(-5.796 -4.52)" fill="#236676"/>
              <path id="Trazado_131573" data-name="Trazado 131573" d="M107.236,116.2a.451.451,0,0,0,.438-.351L112.25,96.37a.456.456,0,0,0-.334-.549.448.448,0,0,0-.544.338L106.8,115.634a.457.457,0,0,0,.335.549.438.438,0,0,0,.1.012" transform="translate(-7.405 -5.665)" fill="#104151"/>
              <path id="Trazado_131574" data-name="Trazado 131574" d="M110.951,101.656a.444.444,0,0,0,.255-.08L114,99.64a.459.459,0,0,0,.117-.634.449.449,0,0,0-.627-.119l-2.8,1.936a.459.459,0,0,0-.117.634.449.449,0,0,0,.372.2" transform="translate(-7.663 -5.843)" fill="#104151"/>
              <path id="Trazado_131575" data-name="Trazado 131575" d="M105.358,192.856a144.809,144.809,0,0,0,10.944-9.922l-.022-.045.042.024a50.062,50.062,0,0,0,3.608-4.223c-.313-.6-.593-1.113-.819-1.509a20.761,20.761,0,0,0-5.443-5.661c-1.459-.985-2.8-2.885-4.127-2.969-4.2-.265-9.6,3.316-9.593,5.548.012,3.288,1.711,9.868,2.139,12.346.173,1,1.033,4.135,2.083,7.434q.593-.512,1.188-1.023" transform="translate(-6.931 -9.966)" fill="#ff9568"/>
              <path id="Trazado_131576" data-name="Trazado 131576" d="M106.124,194.732H103.57l17.06-16.1a.852.852,0,0,1,1.172,0l.013.011a.879.879,0,0,1,0,1.28Z" transform="translate(-7.182 -10.549)" fill="#5b413c"/>
              <path id="Trazado_131577" data-name="Trazado 131577" d="M165.551,165.287s2.393,15.824,5.4,19.681c0,0,7.2-7.574,3.794-19.63-2.288-8.09-9.19-.051-9.19-.051" transform="translate(-11.481 -9.563)" fill="#ff9568"/>
              <path id="Trazado_131578" data-name="Trazado 131578" d="M118.583,129.366a9.122,9.122,0,0,1-4.775-.863c-7.765-3.709-16.45-10.857-25.812-21.244A179.259,179.259,0,0,1,76.474,93.118a9.429,9.429,0,0,1,2.069-13.075,9.2,9.2,0,0,1,12.93,2.089c4.556,6.345,18.87,24.005,30.248,29.441a9.406,9.406,0,0,1,4.417,12.466,9.259,9.259,0,0,1-7.555,5.328" transform="translate(-5.181 -4.628)" fill="#b5591d"/>
              <path id="Trazado_131579" data-name="Trazado 131579" d="M91.232,78.658l15.614,18.667L97.564,118.7,87.274,106.82s-1.487-23.712,3.958-28.162" transform="translate(-6.04 -4.651)" fill="#7f7134"/>
              <path id="Trazado_131580" data-name="Trazado 131580" d="M133.717,77.1a7.186,7.186,0,0,0-8.835,5.1l-.037.138-.81,3-.852,3.037q-.867,3.034-1.787,6.05c-1.227,4.016-2.521,8-3.914,11.878-.7,1.939-1.42,3.853-2.175,5.716s-1.544,3.675-2.369,5.36c-.412.84-.834,1.648-1.255,2.385l-.016.025c.554.912,1.149,1.8,1.764,2.68h15.783c.595-1.572,1.134-3.123,1.641-4.667.713-2.172,1.362-4.329,1.976-6.48,1.221-4.3,2.3-8.582,3.3-12.866q.748-3.212,1.434-6.43l.674-3.225.326-1.621.324-1.658a7.3,7.3,0,0,0-5.166-8.425" transform="translate(-7.744 -4.544)" fill="#b5591d"/>
              <path id="Trazado_131581" data-name="Trazado 131581" d="M125.532,83s1.762,8.3,13.172,8.164a8.159,8.159,0,0,1-.8,3.725s-9.32,0-13.349-7.87c0,0-.565-1.632.976-4.018" transform="translate(-8.631 -4.908)" fill="#36251f"/>
              <path id="Trazado_131582" data-name="Trazado 131582" d="M117.537,109.518a.526.526,0,0,1-.085.135c-1.413,1.617-2.4,5.144-2.407,5.179a.5.5,0,0,1-.62.354.51.51,0,0,1-.349-.627c.043-.154,1.058-3.788,2.622-5.578a.5.5,0,0,1,.709-.044.512.512,0,0,1,.129.582" transform="translate(-7.91 -6.434)" fill="#8f2d00"/>
              <path id="Trazado_131583" data-name="Trazado 131583" d="M116.862,109.76a.5.5,0,0,1-.129.092c-1.912.956-4.143,3.843-4.166,3.873a.5.5,0,0,1-.705.09.512.512,0,0,1-.089-.713c.1-.126,2.4-3.1,4.516-4.161a.5.5,0,0,1,.673.231.513.513,0,0,1-.1.588" transform="translate(-7.744 -6.439)" fill="#8f2d00"/>
              <path id="Trazado_131584" data-name="Trazado 131584" d="M133.989,88.967s7.834-.3,10.8-4.208c3.331-4.378-2.717-14.479-5.434-16.454-3.4-2.472-7.912,2.582-7.912,2.582s-3.394-7.146-5.22-6.18c-2.38,1.258,1.834,6.634-.83,12.786a6.3,6.3,0,0,0,.18,4.418c.9,2.694,3.1,6.608,8.414,7.055" transform="translate(-8.673 -3.821)" fill="#b5591d"/>
              <path id="Trazado_131585" data-name="Trazado 131585" d="M137.547,83.615a.473.473,0,0,1,.127-.434c.119-.119,2.947-2.911,5.614-3.607a.462.462,0,0,1,.562.335.471.471,0,0,1-.332.569c-2.427.633-5.168,3.341-5.2,3.368a.458.458,0,0,1-.652,0,.463.463,0,0,1-.122-.227" transform="translate(-9.538 -4.705)" fill="#8f2d00"/>
              <path id="Trazado_131586" data-name="Trazado 131586" d="M134.664,80.094a.468.468,0,0,1,.1-.407,12.813,12.813,0,0,1,6.324-3.7.462.462,0,0,1,.553.351v0a.466.466,0,0,1-.348.555,12.1,12.1,0,0,0-5.833,3.4.458.458,0,0,1-.651.043.463.463,0,0,1-.147-.25" transform="translate(-9.338 -4.493)" fill="#8f2d00"/>
              <path id="Trazado_131587" data-name="Trazado 131587" d="M132.927,75.773a.47.47,0,0,1,.1-.4,11.418,11.418,0,0,1,5.755-3.322.466.466,0,0,1,.209.909,10.687,10.687,0,0,0-5.263,3.02.459.459,0,0,1-.651.051.471.471,0,0,1-.15-.254" transform="translate(-9.218 -4.26)" fill="#8f2d00"/>
              <path id="Trazado_131588" data-name="Trazado 131588" d="M130.1,84.384a.471.471,0,0,1,.218-.5,7.439,7.439,0,0,0,3.191-5.064.462.462,0,1,1,.917.109,8.252,8.252,0,0,1-3.642,5.761.46.46,0,0,1-.632-.167.475.475,0,0,1-.052-.135" transform="translate(-9.021 -4.636)" fill="#8f2d00"/>
              <path id="Trazado_131589" data-name="Trazado 131589" d="M133,76.468a12.766,12.766,0,0,1-.256-3.844.462.462,0,1,1,.919.082c-.629,7.291,6.065,12.787,6.133,12.843a.47.47,0,0,1,.073.656.458.458,0,0,1-.649.073c-.241-.195-4.968-4.069-6.22-9.809" transform="translate(-9.202 -4.269)" fill="#8f2d00"/>
              <path id="Trazado_131590" data-name="Trazado 131590" d="M43.445,65.243s-8.276-5.074-14.852-2.377S17.329,75.921,17.329,75.921l17.614,3.8Z" transform="translate(-1.202 -3.671)" fill="#5b413c"/>
              <path id="Trazado_131591" data-name="Trazado 131591" d="M22.68,91.5S10.747,77.029,3.956,89.42C-3.36,102.771,2.427,113.2,2.427,113.2l11.75-7.209Z" transform="translate(-0.018 -4.991)" fill="#5b413c"/>
              <path id="Trazado_131592" data-name="Trazado 131592" d="M59.177,67.037S40.753,50.651,17.551,74.4s-20.76,59.417-7.9,71.316,32.267,5.329,32.267,5.329Z" transform="translate(0 -3.638)" fill="#36251f"/>
              <path id="Trazado_131593" data-name="Trazado 131593" d="M86.554,194.579l-1.19-18.772-31.5,3.857s.841,6.28,1.919,14.916Z" transform="translate(-3.735 -10.396)" fill="#632627"/>
              <path id="Trazado_131594" data-name="Trazado 131594" d="M61.648,195.377c-.4-3.291-.657-5.383-.668-5.472a.676.676,0,1,0-1.341.167c.011.088.258,2.11.648,5.3Z" transform="translate(-4.136 -11.194)" fill="#915054"/>
              <path id="Trazado_131595" data-name="Trazado 131595" d="M24.362,161.12s-2.89,15.741-.637,25.4c0,0,44.16,4.025,60.088-2.124,0,0-.2-15.708-1.942-23.334Z" transform="translate(-1.586 -9.524)" fill="#632627"/>
              <path id="Trazado_131596" data-name="Trazado 131596" d="M52.505,195c.459-5.222.738-8.464.738-8.464l-29.991-3.68L22.877,195Z" transform="translate(-1.586 -10.812)" fill="#632627"/>
              <path id="Trazado_131597" data-name="Trazado 131597" d="M54.577,159.164c-.007.169-.014.341-.021.516-.192,4.575-.431,11.053-.555,17.664-.008.364-.014.731-.022,1.1-.034,2.108-.058,4.222-.064,6.28a.529.529,0,0,0,.519.532h0a.528.528,0,0,0,.526-.529c.006-1.989.029-4.026.062-6.061.006-.358.011-.716.019-1.074.123-6.651.362-13.186.557-17.8.008-.211.018-.417.026-.621Z" transform="translate(-3.739 -9.412)" fill="#915054"/>
              <path id="Trazado_131598" data-name="Trazado 131598" d="M58.719,159.164c-.013.283-.026.572-.039.869-.279,5.986-.708,14.459-.991,16.46a1.187,1.187,0,0,1-.59.957,3.547,3.547,0,0,1-2.212.137,10.586,10.586,0,0,1-1.044-.244,12.12,12.12,0,0,1-1.462-.52.522.522,0,0,0-.691.273.532.532,0,0,0,.27.7,13.229,13.229,0,0,0,1.861.645,10.325,10.325,0,0,0,1.046.222,7.143,7.143,0,0,0,1,.087,3.478,3.478,0,0,0,1.744-.374,2.249,2.249,0,0,0,1.119-1.733c.292-2.063.723-10.55,1-16.551.016-.316.03-.624.044-.927Z" transform="translate(-3.582 -9.412)" fill="#915054"/>
              <path id="Trazado_131599" data-name="Trazado 131599" d="M50.324,195.346c.222-3.545.358-5.754.364-5.849a.676.676,0,1,0-1.349-.085c-.006.1-.143,2.339-.369,5.934Z" transform="translate(-3.396 -11.162)" fill="#915054"/>
              <path id="Trazado_131600" data-name="Trazado 131600" d="M85.789,113.186c-.221,1.063-.447,2.38-.68,3.9q-.12.785-.247,1.635c-.7,4.745-1.493,11-2.515,17.463-.092.58-.187,1.164-.285,1.745-2.275,13.915,2.1,14.183,1.195,18.69-3.472,17.349-54.574,11.585-59.543,5.2-2.331-2.993-.3-31.37,3.047-49.093.112-.6.22-1.189.329-1.766.9-4.824,1.605-8.785,1.82-11.118.995-10.843,3.421-22.28,5.465-27.09S54.65,65.631,54.65,65.631l19.036,3.218A45.973,45.973,0,0,1,89.481,81c6.436,8.107-1.355,20.919-3.692,32.188" transform="translate(-1.575 -3.881)" fill="#7f7134"/>
              <path id="Trazado_131601" data-name="Trazado 131601" d="M80.154,72.837a37.662,37.662,0,0,1-6.493,25.611C65,110.562,39.082,117.066,27.04,112.644a13.362,13.362,0,0,0-1.481,8.941s24.163,8.538,45.534-8.5c21.946-17.494,15.6-34.959,15.6-34.959-1.073-2.08-4.328-5.642-6.537-5.293" transform="translate(-1.757 -4.306)" fill="#36251f"/>
              <path id="Trazado_131602" data-name="Trazado 131602" d="M79.434,96.753a21.335,21.335,0,0,1,5.692,3.451,2.525,2.525,0,0,1,.218,3.536,89.523,89.523,0,0,1-8.437,8.7,2.129,2.129,0,0,1-2.825-.085l-4.374-4.1a2.188,2.188,0,0,1,.049-3.232,47.485,47.485,0,0,0,7.1-7.534,2.128,2.128,0,0,1,2.574-.743" transform="translate(-4.786 -5.711)" fill="#5b413c"/>
              <path id="Trazado_131603" data-name="Trazado 131603" d="M50.082,133.272a.677.677,0,0,0,.141.023c10.873.517,22.527-10.489,23.018-10.957a.654.654,0,0,0,.026-.917.637.637,0,0,0-.906-.026c-.116.111-11.752,11.1-22.078,10.605a.649.649,0,0,0-.2,1.273" transform="translate(-3.44 -7.168)" fill="#594e1e"/>
              <path id="Trazado_131604" data-name="Trazado 131604" d="M68.407,79.794C60.659,79.1,54.2,69.3,53.927,68.886a.63.63,0,0,1,.177-.867.614.614,0,0,1,.856.178c.063.1,6.407,9.706,13.557,10.351h.008c5.069.453,7.522-4.69,7.625-4.909a.616.616,0,0,1,.823-.3.628.628,0,0,1,.3.831c-.116.251-2.914,6.155-8.854,5.625h-.009" transform="translate(-3.733 -4.016)" fill="#594e1e"/>
              <path id="Trazado_131605" data-name="Trazado 131605" d="M88.4,119.757a.485.485,0,0,1-.1-.016.514.514,0,0,1-.359-.628c1.618-6.106,6.085-20.118,6.129-20.258a.506.506,0,0,1,.638-.331.514.514,0,0,1,.328.645c-.045.141-4.5,14.128-6.115,20.209a.507.507,0,0,1-.525.379" transform="translate(-6.097 -5.824)" fill="#594e1e"/>
              <path id="Trazado_131606" data-name="Trazado 131606" d="M83.688,39.052s7.531,2.014,7.693-4.9a5.886,5.886,0,0,0,3.626-6.6c-.592-3.6-4.3-2.975-4.3-2.975s3.448-6.579-1.89-8.441c0,0,2.428-5.26-1.158-7.3s-7.586,2.123-7.586,2.123.039-4.572-4.111-4.44-5.367,5.123-5.367,5.123-2.842-4.354-6.341-2.719-3.517,6.734-3.517,6.734-5.08-1.509-8.7,2.415a4.7,4.7,0,0,0,.221,7.1s-4.714.9-5.5,3.916,4.656,4.346,4.656,4.346-2.427,4.692,1.3,6.592,7.877.111,7.877.111Z" transform="translate(-3.238 -0.385)" fill="#36251f"/>
              <path id="Trazado_131607" data-name="Trazado 131607" d="M76.633,64.2l-.705,5.249a15.27,15.27,0,0,1-1.9,1.065c-9.185,4.314-17.39-3.713-17.39-3.713l1.174-11.772L74.54,62.337Z" transform="translate(-3.928 -3.254)" fill="#b5591d"/>
              <path id="Trazado_131608" data-name="Trazado 131608" d="M77.115,64.358l-.705,5.249a15.27,15.27,0,0,1-1.9,1.065c-6.782-4.059-10.925-12.921-10.925-12.921L75.022,62.5Z" transform="translate(-4.41 -3.415)" fill="#36251f"/>
              <path id="Trazado_131609" data-name="Trazado 131609" d="M86.983,44.767s3.207-2.921,4.326.594-.98,10.032-5.039,8.361Z" transform="translate(-5.983 -2.58)" fill="#8f2d00"/>
              <path id="Trazado_131610" data-name="Trazado 131610" d="M86.642,53.213s-1.609,10.22-12.071,8.76A27.591,27.591,0,0,1,57.9,53.09l-.01-.011.174-2.154.9-11.176.48-5.975s.106-10.86,10.4-11.43c7.525-.417,14.237,1.758,17.188,6.1.095.14.187.283.272.428a9.292,9.292,0,0,1,1.307,5.244l-1.106,10.7-.271,2.621Z" transform="translate(-4.015 -1.318)" fill="#b5591d"/>
              <path id="Trazado_131611" data-name="Trazado 131611" d="M73.427,48.4s.3,4.662,3.639,6.218c3.8,1.772,5.9-3.063,5.9-3.063Z" transform="translate(-5.092 -2.862)" fill="#f4ece1"/>
              <path id="Trazado_131612" data-name="Trazado 131612" d="M78.319,56.925a2.45,2.45,0,0,0,.257-.021.34.34,0,0,0,.279-.39.335.335,0,0,0-.383-.282A2.139,2.139,0,0,1,76.5,55.4a.334.334,0,0,0-.47-.076.343.343,0,0,0-.074.475,2.763,2.763,0,0,0,2.367,1.124" transform="translate(-5.263 -3.268)" fill="#8f2d00"/>
              <path id="Trazado_131613" data-name="Trazado 131613" d="M75.19,41.055c-.137,1.017-.7,1.779-1.267,1.7s-.908-.964-.772-1.981.7-1.778,1.267-1.7.908.964.772,1.981" transform="translate(-5.071 -2.31)" fill="#36251f"/>
              <path id="Trazado_131614" data-name="Trazado 131614" d="M85.885,42.507c-.137,1.017-.7,1.779-1.267,1.7s-.908-.964-.772-1.981.7-1.779,1.266-1.7.909.964.772,1.981" transform="translate(-5.813 -2.396)" fill="#36251f"/>
              <path id="Trazado_131615" data-name="Trazado 131615" d="M79.762,46.828a3.554,3.554,0,0,0,3.557-1.35.428.428,0,0,0,.046-.36c-1.211-3.734-2.432-7.569-2.444-7.608a.416.416,0,0,0-.526-.273.424.424,0,0,0-.269.532c.012.038,1.187,3.73,2.376,7.4a2.85,2.85,0,0,1-2.627.825.422.422,0,0,0-.113.836" transform="translate(-5.506 -2.201)" fill="#36251f"/>
              <path id="Trazado_131616" data-name="Trazado 131616" d="M72.619,26.934a2.451,2.451,0,0,0-2.593,1.688A3.988,3.988,0,0,1,67.651,31c-3.5,1.625-3.3,4.544-2.882,7s-4.828,6.171-6.894-.077S60.1,19.7,68.759,20.288s19.63,4.965,20.053,9.021a20.015,20.015,0,0,1-.617,7.337,4.709,4.709,0,0,1-.786-3.839c.441-2.451-1.119-3.654-3.905-4.431a100.047,100.047,0,0,0-10.884-1.442" transform="translate(-3.978 -1.198)" fill="#36251f"/>
              <g id="Grupo_158024" data-name="Grupo 158024" transform="translate(79.214 43.288)" opacity="0.8">
                <g id="Grupo_158023" data-name="Grupo 158023">
                  <g id="Grupo_158022" data-name="Grupo 158022" clip-path="url(#clip-path-5)">
                    <path id="Trazado_131617" data-name="Trazado 131617" d="M89.127,48.841a8.114,8.114,0,0,1-.817-.072c-1.859-.255-3.287-1.063-3.187-1.8s1.688-1.134,3.548-.879c.252.035.5.08.728.134Z" transform="translate(-85.117 -46.009)" fill="#8f2d00"/>
                  </g>
                </g>
              </g>
              <path id="Trazado_131618" data-name="Trazado 131618" d="M74.359,45.515c-.1.74-1.689,1.134-3.55.879s-3.289-1.063-3.19-1.8,1.689-1.134,3.55-.879,3.289,1.063,3.189,1.8" transform="translate(-4.689 -2.58)" fill="#8f2d00"/>
              <path id="Trazado_131619" data-name="Trazado 131619" d="M70.158,34.815h0a2.384,2.384,0,0,0,2.928,1.639,13.176,13.176,0,0,1,2.476-.461,2.213,2.213,0,0,0,2.01-2.5s-4.811-1.12-7.414,1.324" transform="translate(-4.865 -1.965)" fill="#36251f"/>
              <path id="Trazado_131620" data-name="Trazado 131620" d="M89.973,37.469h0a2.373,2.373,0,0,1-3.254.79,13.218,13.218,0,0,0-2.264-1.111,2.227,2.227,0,0,1-1.277-2.953s4.932.217,6.8,3.274" transform="translate(-5.756 -2.022)" fill="#36251f"/>
              <path id="Trazado_131621" data-name="Trazado 131621" d="M61.732,51.117c-.062.106-1.8,3.03-3.831,3.678l-.008-.012.173-2.154a7.24,7.24,0,0,0,3.666-1.512" transform="translate(-4.015 -3.023)" fill="#36251f"/>
              <path id="Trazado_131622" data-name="Trazado 131622" d="M60.469,43.125S57.18,37.11,53.657,41c-2.9,3.2.45,13.052,5.681,10.553Z" transform="translate(-3.647 -2.347)" fill="#b5591d"/>
              <path id="Trazado_131623" data-name="Trazado 131623" d="M59.2,50l.046,0a.419.419,0,0,0,.428-.411,7.912,7.912,0,0,0-3.684-6.944.416.416,0,0,0-.57.16.424.424,0,0,0,.158.575,7.069,7.069,0,0,1,3.261,6.187A.421.421,0,0,0,59.2,50" transform="translate(-3.84 -2.519)" fill="#36251f"/>
              <path id="Trazado_131624" data-name="Trazado 131624" d="M55.676,47.114a.415.415,0,0,0,.274-.058c.4-.245,1.588-.819,2.276-.537a.416.416,0,0,0,.544-.232.425.425,0,0,0-.23-.55c-1.2-.492-2.843.486-3.026.6a.425.425,0,0,0-.139.581.418.418,0,0,0,.3.2" transform="translate(-3.836 -2.696)" fill="#36251f"/>
              <path id="Trazado_131625" data-name="Trazado 131625" d="M11.151,193.052h21.04l27.336-8.918a.964.964,0,0,0,.614-1.212l-10.3-32.281a.95.95,0,0,0-1.2-.62L3.153,164.859a.964.964,0,0,0-.613,1.212Z" transform="translate(-0.173 -8.868)" fill="#ff9918"/>
              <path id="Trazado_131626" data-name="Trazado 131626" d="M46.753,178.99l-5.208-16.316a.755.755,0,0,1,.479-.947l3.887-1.268a.742.742,0,0,1,.937.485l5.208,16.316a.754.754,0,0,1-.48.947l-3.886,1.268a.743.743,0,0,1-.937-.486" transform="translate(-2.879 -9.486)" fill="#f4ece1"/>
              <path id="Trazado_131627" data-name="Trazado 131627" d="M33.2,194.88l27.337-8.918a.964.964,0,0,0,.613-1.212L59.923,180.9,17.068,194.88Z" transform="translate(-1.184 -10.697)" fill="#dd6a18"/>
              <path id="Trazado_131628" data-name="Trazado 131628" d="M38.9,101.425l-.045.131-1.425,4.119-.958,2.816-.465,1.365-.521,1.557-.879,2.628-1.362,4.187c-.9,2.79-1.753,5.58-2.575,8.353-.4,1.386-.8,2.772-1.162,4.145s-.731,2.741-1.051,4.09-.6,2.672-.836,3.947l-.165.9c-.05.254-.088.516-.128.777-.079.525-.129,1.068-.166,1.624s-.05,1.126-.047,1.706.029,1.171.064,1.773a33.877,33.877,0,0,0,.438,3.685,52.639,52.639,0,0,0,1.909,7.634c.423,1.277.871,2.559,1.371,3.818.248.633.5,1.262.765,1.876l.394.914.2.437.092.207.043.1c.014.03.027.061.02.056a6.336,6.336,0,0,1-1.9,8.69,6.182,6.182,0,0,1-8.6-1.925l-.429-.607-.372-.534c-.242-.354-.479-.7-.707-1.055-.455-.7-.893-1.408-1.321-2.122-.839-1.433-1.644-2.885-2.379-4.384a59.589,59.589,0,0,1-3.755-9.494,44.442,44.442,0,0,1-1.844-10.722c-.039-.951-.048-1.913-.01-2.891.02-.487.043-.978.083-1.473l.03-.369.034-.326.072-.642c.195-1.711.43-3.356.706-4.957s.566-3.182.888-4.735.668-3.09,1.024-4.619c.708-3.051,1.491-6.057,2.309-9.038.4-1.493.835-2.972,1.265-4.452l.162-.55c.381-1.295.767-2.585,1.169-3.871.025-.08.048-.158.073-.238.433-1.391.866-2.778,1.323-4.161.241-.732.478-1.464.728-2.2l.769-2.229,0-.008A9.069,9.069,0,0,1,33.32,89.711,9.221,9.221,0,0,1,38.9,101.425" transform="translate(-0.768 -5.274)" fill="#b5591d"/>
              <path id="Trazado_131629" data-name="Trazado 131629" d="M36.968,109.419l-.465,1.364-.521,1.558c-2.9.4-8.408.195-17.822-3.356.381-1.294.767-2.585,1.169-3.871.025-.08.048-.158.073-.238Z" transform="translate(-1.259 -6.202)" fill="#8f2d00"/>
              <path id="Trazado_131630" data-name="Trazado 131630" d="M28.345,138.761c-.211-.111-3.3-1.726-7.036-3.189a.506.506,0,0,0-.687.5.512.512,0,0,0,.322.448c3.753,1.474,6.888,3.11,6.94,3.137a.5.5,0,0,0,.675-.216.508.508,0,0,0-.214-.682" transform="translate(-1.43 -8.015)" fill="#8f2d00"/>
              <path id="Trazado_131631" data-name="Trazado 131631" d="M26.6,138.554a.521.521,0,0,1-.083-.135c-.82-1.981-3.519-4.4-3.546-4.429a.509.509,0,0,1-.044-.714.5.5,0,0,1,.706-.045c.118.105,2.9,2.6,3.806,4.8a.508.508,0,0,1-.268.662.5.5,0,0,1-.572-.136" transform="translate(-1.581 -7.871)" fill="#8f2d00"/>
              <path id="Trazado_131632" data-name="Trazado 131632" d="M32.207,166.512c.307.515,1.448,3.326,1.583,3.5,2.335,3.085,6.894,2.478,8.393,4.474,0,0,11.423,9.731,8.607,10.869-1.551.626-3.842-.665-5.585-1.949.061.167.123.318.184.462,1.282,3.013,5.959,6.454,4.2,8.474s-4.566-1.093-4.566-1.093-1.149,2.413-4.779.817a3.156,3.156,0,0,1-3.793.847s-2.178,1.981-4.347.362c-1.843-1.377-5.333-7.865-9.561-18.815,2.006-3.6,4.519-6.078,9.668-7.951" transform="translate(-1.563 -9.846)" fill="#b5591d"/>
              <path id="Trazado_131633" data-name="Trazado 131633" d="M36.25,70.826S24.825,75.806,18,102.451c0,0,8.921,6.762,20.37,6.442,0,0,7.25-15.139,9.048-23.923s-1.8-17.953-11.169-14.144" transform="translate(-1.248 -4.136)" fill="#7f7134"/>
              <path id="Trazado_131634" data-name="Trazado 131634" d="M41.981,108.338a.579.579,0,0,1-.1-.02.514.514,0,0,1-.334-.642c1.85-6.038,6.849-19.865,6.9-20a.506.506,0,0,1,.651-.306.514.514,0,0,1,.3.658c-.05.139-5.04,13.942-6.882,19.955a.508.508,0,0,1-.54.358" transform="translate(-2.88 -5.164)" fill="#594e1e"/>
            </g>
          </g>
        </g>
      </g>
    </g>
  </g>
</svg>
