<svg xmlns="http://www.w3.org/2000/svg" xmlns:xlink="http://www.w3.org/1999/xlink" width="260" height="234" viewBox="0 0 260 234">
  <defs>
    <clipPath id="clip-path">
      <rect id="Rectángulo_37550" data-name="Rectángulo 37550" width="260" height="234" transform="translate(-8833 -4294)" fill="#fff" stroke="#707070" stroke-width="1"/>
    </clipPath>
    <clipPath id="clip-path-2">
      <rect id="Rectángulo_37541" data-name="Rectángulo 37541" width="216.88" height="258.988" fill="none"/>
    </clipPath>
    <clipPath id="clip-path-4">
      <rect id="Rectángulo_37536" data-name="Rectángulo 37536" width="7.61" height="3.081" fill="none"/>
    </clipPath>
    <clipPath id="clip-path-5">
      <rect id="Rectángulo_37537" data-name="Rectángulo 37537" width="2.78" height="2.388" fill="none"/>
    </clipPath>
    <clipPath id="clip-path-6">
      <rect id="Rectángulo_37538" data-name="Rectángulo 37538" width="3.338" height="2.68" fill="none"/>
    </clipPath>
    <clipPath id="clip-path-7">
      <rect id="Rectángulo_37539" data-name="Rectángulo 37539" width="8.463" height="2.78" fill="none"/>
    </clipPath>
  </defs>
  <g id="Enmascarar_grupo_180" data-name="Enmascarar grupo 180" transform="translate(8833 4294)" clip-path="url(#clip-path)">
    <g id="Grupo_157987" data-name="Grupo 157987" transform="translate(-8811 -4294)">
      <g id="Grupo_157986" data-name="Grupo 157986" clip-path="url(#clip-path-2)">
        <g id="Grupo_157985" data-name="Grupo 157985">
          <g id="Grupo_157984" data-name="Grupo 157984" clip-path="url(#clip-path-2)">
            <path id="Trazado_130931" data-name="Trazado 130931" d="M134.113,216.111c3.852-26.475,7.962-62.3,7.962-62.3s-36.255-9.131-40.219,6.525c-2.8,11.084-5.576,33.926-7.706,55.778Z" transform="translate(26.526 42.877)" fill="#314fa5"/>
            <path id="Trazado_130932" data-name="Trazado 130932" d="M134.247,198.069q1.559.393,3.133.753c13.41,3.072,27.486,4.316,37.337,1.956,4.862-1.163,7.971-7.133,9.95-13.8a25.9,25.9,0,0,0,1.38-5.536c1.206-18.529-3.345-26.391-3.345-26.391l-72.515-8.114s-2.411,4.453-5.086,10.258a121.748,121.748,0,0,0-5.417,13.553l-.006.013a35.387,35.387,0,0,0-1.611,7.209c-.576,6.6,16.665,15.179,36.18,20.1" transform="translate(27.626 41.678)" fill="#314fa5"/>
            <path id="Trazado_130933" data-name="Trazado 130933" d="M134.357,213H178.08c-.529-17.545-1-35.964-1.255-44.9-.1-3.355-.162-5.322-.162-5.322s-35.735-4.117-42.627,8.075a8.709,8.709,0,0,0-1.05,3.145,92.338,92.338,0,0,0-.367,12.989c.163,7.258.806,16.325,1.737,26.012" transform="translate(37.35 45.984)" fill="#314fa5"/>
            <path id="Trazado_130934" data-name="Trazado 130934" d="M130.873,84.6l-.987,3.942c-.332,1.29-.661,2.576-1.011,3.856-.7,2.561-1.4,5.117-2.143,7.666-1.5,5.095-3.048,10.183-4.777,15.263s-3.547,10.17-5.688,15.3c-1.07,2.566-2.21,5.147-3.507,7.783a62.84,62.84,0,0,1-4.776,8.26c-.52.743-1.091,1.508-1.761,2.318a25.422,25.422,0,0,1-2.447,2.587,20.033,20.033,0,0,1-1.761,1.442,17.122,17.122,0,0,1-2.484,1.5,14.924,14.924,0,0,1-3.638,1.258,14.3,14.3,0,0,1-2.311.279l-.3.009h-.213l-.42-.006c-.288-.005-.538-.023-.8-.042a17.544,17.544,0,0,1-4.914-1.145,23.031,23.031,0,0,1-3.247-1.562,34.884,34.884,0,0,1-4.563-3.191,67.514,67.514,0,0,1-6.618-6.348c-1.956-2.118-3.761-4.242-5.5-6.381S63.613,133.1,62,130.941s-3.162-4.352-4.622-6.594-2.847-4.525-4.143-6.865q-.975-1.752-1.873-3.558c-.3-.6-.587-1.212-.874-1.825-.145-.306-.287-.614-.422-.928l-.42-.969a7.546,7.546,0,0,1,11.941-8.642l.323.291c.438.393.92.852,1.365,1.3s.914.893,1.36,1.349q1.342,1.363,2.652,2.75,2.617,2.771,5.127,5.588c1.68,1.87,3.329,3.75,4.967,5.612s3.3,3.679,4.983,5.43,3.375,3.438,5.068,4.988a47.574,47.574,0,0,0,4.921,4.015,11.949,11.949,0,0,0,1.884,1.112c.2.086.345.117.27.06a2.943,2.943,0,0,0-1.147-.281c-.1-.012-.194-.014-.319-.023l-.178,0-.272,0a8.1,8.1,0,0,0-3.172.75,6.831,6.831,0,0,0-.845.475c-.156.1-.254.181-.282.186-.077.046.023-.091.149-.291s.314-.494.506-.831c.391-.676.832-1.533,1.265-2.452s.879-1.916,1.306-2.951c.859-2.071,1.678-4.284,2.457-6.552,1.548-4.547,2.988-9.294,4.337-14.1,1.334-4.811,2.629-9.679,3.836-14.578.61-2.448,1.215-4.9,1.794-7.358l.872-3.679.827-3.608.047-.211a12.953,12.953,0,1,1,25.248,5.8l-.062.255" transform="translate(13.811 19.423)" fill="#eaad8f"/>
            <path id="Trazado_130935" data-name="Trazado 130935" d="M104.4,60.7a33.471,33.471,0,0,0-9.548,16.2c-2.99,11.785-10.514,34.252-10.514,34.252s20.546,12.878,29.393,12.557Z" transform="translate(23.761 17.218)" fill="#467b6c"/>
            <path id="Trazado_130936" data-name="Trazado 130936" d="M83.238,118.763l3.673,1.486c.642.259.2,1.244-.44.985L82.8,119.747c-.643-.259-.2-1.244.44-.985" transform="translate(23.239 33.675)" fill="#c6695d"/>
            <path id="Trazado_130937" data-name="Trazado 130937" d="M81.354,118.406a9.494,9.494,0,0,1,2.8,5.888.581.581,0,0,0,1.154-.126,10.743,10.743,0,0,0-3.217-6.658c-.534-.524-1.268.376-.738.9" transform="translate(22.869 33.287)" fill="#c6695d"/>
            <path id="Trazado_130938" data-name="Trazado 130938" d="M185.651,192.029a.375.375,0,0,1-.068.042l-.019.012c-.041.023-.077.049-.109.068a.892.892,0,0,0-.124.077.239.239,0,0,0-.049.026l-.105.064c-.019.009-.042.026-.062.036a.056.056,0,0,1,.019-.017c-.073.038-.122.071-.135.074s-.051.024-.079.041c-.292.169-.743.424-1,.571a.76.76,0,0,0-.073.039,71.171,71.171,0,0,1-7.765,3.71,78.588,78.588,0,0,1-9.3,3.126c-.583.16-1.17.308-1.76.458l-.141.032q-2.922.722-5.87,1.223-1.1.187-2.214.349c-2.647.389-5.3.655-7.94.806-.32.022-.641.039-.961.048-2.965.145-5.9.139-8.793,0l-.929-.049-.158-.009h0c-.478-.03-.952-.058-1.427-.1-1.57-.11-3.117-.273-4.649-.47-.536-.058-1.064-.131-1.589-.214a78.025,78.025,0,0,1-16.073-4.041c-.356-.135-.709-.268-1.061-.407-.256-.1-.506-.2-.759-.3-.062-.027-.119-.049-.183-.074-1.609-.667-3.149-1.389-4.608-2.153-.067-.036-.137-.072-.2-.1a44.528,44.528,0,0,1-5.332-3.312c.141-2.522.32-5.2.513-7.814v0c.045-.573.083-1.14.124-1.7.119-1.588.237-3.131.359-4.579a.048.048,0,0,1,0-.019c.292-3.04.555-6.191.8-9.33.006-.06.009-.1.009-.1.083-1.031.158-2.054.235-3.074.047-.635.092-1.262.135-1.887v0c.426-6,.763-11.707.983-16.209l0,0c.026-.516.051-1.01.073-1.492.051-1.1.1-2.112.132-3.02.083-1.96.131-3.866.167-5.725.038-1.816.047-3.585.041-5.3-.006-1.964-.038-3.877-.1-5.723-.015-.992-.058-1.967-.092-2.927v0c-.019-.443-.038-.883-.062-1.32-.019-.407-.038-.815-.064-1.216l0,0c-.006-.1-.01-.193-.017-.289-.022-.452-.051-.9-.079-1.344-.09-1.5-.2-2.959-.311-4.381-.265-3.177-.592-6.149-.961-8.923-.06-.484-.128-.965-.192-1.439-.673-4.8-1.461-8.986-2.249-12.638-.09-.438-.179-.865-.276-1.287C99.55,81.91,97.886,76.609,97.634,72.96a10.65,10.65,0,0,1,.013-1.793,12.738,12.738,0,0,1,.522-2.685,10.21,10.21,0,0,1,.981-2.18,13.31,13.31,0,0,1,6.12-4.931c.292-.137.583-.268.884-.4.8-.352,1.632-.683,2.474-1.021.3-.118.6-.241.907-.359.932-.368,1.878-.747,2.82-1.158a.085.085,0,0,1,.026-.008c.711-.313,1.419-.647,2.115-1,.3-.153.59-.311.881-.471s.561-.315.831-.484c.349-.218.7-.451,1.047-.688a16.662,16.662,0,0,0,4.787-4.981.206.206,0,0,0,.036-.053c.156-.249.308-.515.458-.788l22.232-2.285a28.279,28.279,0,0,0,3.92,2.009c.282.13.579.25.891.383.179.071.359.137.545.214.2.081.41.154.624.235.115.041.247.086.369.131.784.276,1.65.549,2.585.806.359.095.731.193,1.115.286.305.073.615.144.933.208.176.041.355.077.535.113.288.06.574.116.878.172.6.107,1.222.207,1.865.286.337.047.677.086,1.019.125q1.163.131,2.414.2a14.66,14.66,0,0,1,4.585.982c.308.119.609.246.91.388a15.407,15.407,0,0,1,2.916,1.782,16.739,16.739,0,0,1,1.474,1.273h0c.07.068.137.132.205.2.208.2.41.412.611.63.288.311.57.635.85.972a25.96,25.96,0,0,1,1.951,2.73c.209.335.41.675.609,1.024.177.309.35.623.517.947.141.261.276.526.406.795a51.974,51.974,0,0,1,3.958,11.785l0,.009q.442,2.008.8,4.165c.65,3.928,1.3,7.752,1.925,11.489.074.427.145.857.218,1.281q.352,2.122.7,4.213c.417,2.58.827,5.128,1.211,7.648.074.519.158,1.036.235,1.562.173,1.166.314,2.218.432,3.218.308,2.556.491,4.764.814,7.665,0,0,4.73,58.049-2.143,74.432" transform="translate(27.499 13.522)" fill="#467b6c"/>
            <path id="Trazado_130939" data-name="Trazado 130939" d="M166.678,152.53c-.009.33-.019.657-.028.988-.241,7.6-.824,15.421-1.859,23.292-.042.323-.083.644-.128.969q-.41,3.008-.91,6.027a.469.469,0,0,1-.414.388.406.406,0,0,1-.124-.005.465.465,0,0,1-.385-.537q.5-3.017.91-6.033c.045-.325.086-.648.128-.972,1.025-7.8,1.6-15.551,1.846-23.088.009-.33.019-.657.028-.985A305.658,305.658,0,0,0,157.1,72.943a.469.469,0,0,1,.327-.574.459.459,0,0,1,.577.323,306.6,306.6,0,0,1,8.671,79.837" transform="translate(44.258 20.522)" fill="#253f3d"/>
            <path id="Trazado_130940" data-name="Trazado 130940" d="M110.126,39.544s-4.618,1.168-6.14-2.267,2.282-6.547-2.792-9.762S91.086,16.641,96.3,11.749s7.962,2,12.082-4.036S114.528.954,120.66.089c5.993-.846,8.176,4.672,14.467,3.706s11.237,6.124,9.943,10.333c-1.819,5.911-2.076,4.99-1.3,9.858s-2.5,8.8-6.264,8.668-27.378,6.889-27.378,6.889" transform="translate(26.511 0)" fill="#171612"/>
            <path id="Trazado_130941" data-name="Trazado 130941" d="M140.2,50.534c-.42,4.027-5.831,9.4-9.017,10.843a18.93,18.93,0,0,1-14.693.547L115,54.214l-.3-1.572-.576-2.983,16.4-15.826.946-.914.638-.616.373.629.426.725-.035.345c2.771,7.231,3.553,11.665,7.329,16.532" transform="translate(32.154 9.162)" fill="#e9a48e"/>
            <path id="Trazado_130942" data-name="Trazado 130942" d="M115.827,56.52C123,53.3,126.09,46.76,127.15,42.77c-3.13,3.692-7.2,6.481-11.291,6.856a11.2,11.2,0,0,1-1.284.044Z" transform="translate(32.281 12.132)" fill="#171612"/>
            <path id="Trazado_130943" data-name="Trazado 130943" d="M104.624,29.532s-2.239.641-2.116,3.635,2.522,7.57,5.349,6.405-3.233-10.041-3.233-10.041" transform="translate(28.88 8.377)" fill="#c6695d"/>
            <path id="Trazado_130944" data-name="Trazado 130944" d="M136.852,41.978l0,0c-.037.009-.073.021-.108.03-.02.263-.051.528-.087.792-.014.117-.029.231-.049.349-.076.48-.181.968-.308,1.461-1.978,7.642-9.86,16.318-17.489,16.73a11.916,11.916,0,0,1-1.3,0c-7.489-.436-10.756-8.319-11.018-14.661-.01-.239-.018-.476-.018-.711,0,0-.088-.422-.255-1.158-.133-.585-.319-1.382-.545-2.322-.681-2.807-1.753-6.943-3.057-10.978-2.285-7.074.682-18.607,15-23.7,11.413-4.055,18.412,1.422,21.222,7.711a16.418,16.418,0,0,1,1.334,4.821A29.248,29.248,0,0,1,140,26.894c1.414-.137,3.04.371,4.264,2.7,2.257,4.3-2.262,10.956-7.415,12.385" transform="translate(28.716 1.821)" fill="#e9a48e"/>
            <path id="Trazado_130945" data-name="Trazado 130945" d="M134.665,24.882a13.231,13.231,0,0,1-4.125,2.625l-2.548,4.2-3.676-1.634s.9-4.633-1.575-5.726-1.788-4.121-1.788-4.121,8.833-6.473,12.543-6.712a16.4,16.4,0,0,1,1.334,4.821,29.251,29.251,0,0,1-.165,6.548" transform="translate(34.053 3.833)" fill="#171612"/>
            <path id="Trazado_130946" data-name="Trazado 130946" d="M101.466,23.646s9.218-8.686,15.617-7.054a16.443,16.443,0,0,1,9.336,6.195s11.736.3,13.926-3.035S137.23,5.382,128.134,4.568s-21.67,4.052-26.668,19.078" transform="translate(28.587 1.271)" fill="#171612"/>
            <path id="Trazado_130947" data-name="Trazado 130947" d="M106.673,31.392c.3,1.014.968,1.711,1.493,1.556s.71-1.1.411-2.118-.966-1.711-1.493-1.556-.71,1.1-.411,2.118" transform="translate(30.014 8.297)" fill="#171612"/>
            <path id="Trazado_130948" data-name="Trazado 130948" d="M110.048,29.877a.283.283,0,0,0,.113-.131.279.279,0,0,0-.15-.366c-.119-.05-2.936-1.2-4.8.8a.28.28,0,1,0,.409.381c1.6-1.716,4.148-.674,4.173-.662a.278.278,0,0,0,.253-.019" transform="translate(29.622 8.227)" fill="#171612"/>
            <g id="Grupo_157974" data-name="Grupo 157974" transform="translate(148.541 39.603)" opacity="0.5">
              <g id="Grupo_157973" data-name="Grupo 157973">
                <g id="Grupo_157972" data-name="Grupo 157972" clip-path="url(#clip-path-4)">
                  <path id="Trazado_130949" data-name="Trazado 130949" d="M115.9,33.31c.164.683,2,.825,4.091.318s3.659-1.472,3.494-2.155-2-.825-4.091-.318-3.659,1.472-3.494,2.155" transform="translate(-115.89 -30.852)" fill="#c6695d"/>
                </g>
              </g>
            </g>
            <g id="Grupo_157977" data-name="Grupo 157977" transform="translate(134.384 44.244)" opacity="0.5">
              <g id="Grupo_157976" data-name="Grupo 157976">
                <g id="Grupo_157975" data-name="Grupo 157975" clip-path="url(#clip-path-5)">
                  <path id="Trazado_130950" data-name="Trazado 130950" d="M105.391,36.855c1.418-.525,2.351-1.231,2.221-1.768s-1.273-.736-2.767-.557c.227.942.411,1.737.546,2.325" transform="translate(-104.845 -34.467)" fill="#c6695d"/>
                </g>
              </g>
            </g>
            <path id="Trazado_130951" data-name="Trazado 130951" d="M126.1,34.357a3.961,3.961,0,0,0,1.371.881,5.048,5.048,0,0,0,2.371.261c.019-.117.035-.234.049-.347.037-.268.067-.531.085-.795l.109-.03a5.305,5.305,0,0,1-.6.072,4.025,4.025,0,0,1-1.022-.05,2.992,2.992,0,0,1-1.584-.793.56.56,0,0,0-.782.8" transform="translate(35.48 9.473)" fill="#c6695d"/>
            <path id="Trazado_130952" data-name="Trazado 130952" d="M116.5,55.67a11.905,11.905,0,0,0,1.3,0c7.629-.413,15.512-9.09,17.488-16.73a2.442,2.442,0,0,0-2.062-1.72l-.9-9.173-3.679-1.635s-1.151,8.59-3.89,9.54-9.358,1.228-11.795,3.381c0,0-4.9-.7-7.48,1.674.261,6.34,3.53,14.224,11.02,14.662" transform="translate(29.719 7.492)" fill="#171612"/>
            <path id="Trazado_130953" data-name="Trazado 130953" d="M117.435,35.974s.974,4.87-2.993,6.154a4.275,4.275,0,0,1-5.417-2.563Z" transform="translate(30.717 10.204)" fill="#fff"/>
            <path id="Trazado_130954" data-name="Trazado 130954" d="M114.579,42.367a2.235,2.235,0,0,0,1.037-1.06.375.375,0,0,0-.692-.288,1.521,1.521,0,0,1-1.482.832.375.375,0,1,0-.022.75,2.43,2.43,0,0,0,1.159-.234" transform="translate(31.853 11.57)" fill="#5f5f75"/>
            <path id="Trazado_130955" data-name="Trazado 130955" d="M129.67,32.873a.561.561,0,0,0,.331-.548c-.261-3.964,3.811-6.773,3.852-6.8a.56.56,0,0,0-.625-.928c-.19.128-4.646,3.191-4.341,7.8a.561.561,0,0,0,.595.522.589.589,0,0,0,.19-.047" transform="translate(36.308 6.95)" fill="#c6695d"/>
            <path id="Trazado_130956" data-name="Trazado 130956" d="M133.6,28.836a.546.546,0,0,0,.176-.123.56.56,0,0,0-.015-.792,3.834,3.834,0,0,0-3.685-.764.56.56,0,0,0,.326,1.072,2.719,2.719,0,0,1,2.585.5.556.556,0,0,0,.614.109" transform="translate(36.535 7.652)" fill="#c6695d"/>
            <path id="Trazado_130957" data-name="Trazado 130957" d="M111.954,38.215a.56.56,0,0,0,0-1.024L108.523,35.7l2.422-1.4a.562.562,0,0,0,.27-.383l1.3-7.016a.559.559,0,1,0-1.1-.2l-1.254,6.762L107,35.284a.561.561,0,0,0,.056,1l4.444,1.933a.554.554,0,0,0,.45,0" transform="translate(30.069 7.442)" fill="#c6695d"/>
            <path id="Trazado_130958" data-name="Trazado 130958" d="M118.621,25.983a1.541,1.541,0,0,0,.326-2.616c-.159-.125-3.931-3.038-7.81-.674a1.538,1.538,0,0,0,1.6,2.629c2.079-1.266,4.289.447,4.312.463a1.532,1.532,0,0,0,1.575.2" transform="translate(31.104 6.175)" fill="#171612"/>
            <path id="Trazado_130959" data-name="Trazado 130959" d="M105.125,29.178a1.537,1.537,0,0,0,.861-1.008c.338-1.257,2.428-1.765,2.969-1.832a1.539,1.539,0,0,0-.377-3.055c-1.714.213-4.813,1.312-5.559,4.087a1.536,1.536,0,0,0,2.106,1.807" transform="translate(29.01 6.601)" fill="#171612"/>
            <path id="Trazado_130960" data-name="Trazado 130960" d="M113.586,29.437c.3,1.014.968,1.711,1.493,1.556s.71-1.1.411-2.118-.966-1.711-1.493-1.556-.71,1.1-.411,2.118" transform="translate(31.962 7.743)" fill="#171612"/>
            <path id="Trazado_130961" data-name="Trazado 130961" d="M117.547,28.172a.28.28,0,0,0,.026-.5c-.112-.064-2.761-1.565-4.859.184a.279.279,0,1,0,.356.43c1.8-1.5,4.2-.142,4.223-.128a.282.282,0,0,0,.254.013" transform="translate(31.728 7.662)" fill="#171612"/>
            <path id="Trazado_130962" data-name="Trazado 130962" d="M106.548,76.5a35.906,35.906,0,0,1-5.781,11.677c-.091-.439-.185-.866-.277-1.289a35.044,35.044,0,0,0,4.907-9.917,27,27,0,0,0-.941-18.537c.291-.139.583-.271.882-.4a27.792,27.792,0,0,1,1.21,18.467" transform="translate(28.312 16.461)" fill="#5fa68d"/>
            <path id="Trazado_130963" data-name="Trazado 130963" d="M175.205,59.7a35.365,35.365,0,0,1-12.3,14.331v0q-1.184.786-2.423,1.472c-7.975,4.413-17.186,5.4-25.986,7.1-8.835,1.709-17.047,4.576-23.951,10.521a43.441,43.441,0,0,0-7.889,8.951c-.063-.487-.128-.968-.192-1.442a44.753,44.753,0,0,1,7.134-7.986c6.146-5.4,13.475-8.544,21.4-10.321,9.081-2.037,18.646-2.669,27.155-6.721a33.314,33.314,0,0,0,5.13-3.04,34.48,34.48,0,0,0,11.315-13.89c.209.334.411.674.611,1.024" transform="translate(28.867 16.643)" fill="#5fa68d"/>
            <path id="Trazado_130964" data-name="Trazado 130964" d="M100.335,75.382c.067.317.588,2.86,1.257,6.468q.148.8.3,1.653c1.033,5.739,2.282,13.41,2.744,19.3a.547.547,0,0,1-.969.389l-.012-.014c-.441-5.88-1.725-13.762-2.772-19.6a.344.344,0,0,1-.017-.1c-.822-4.53-1.489-7.808-1.51-7.9a.5.5,0,1,1,.975-.2" transform="translate(27.991 21.269)" fill="#253f3d"/>
            <path id="Trazado_130965" data-name="Trazado 130965" d="M127.5,77.487a73.976,73.976,0,0,1-2.008-12.944,40.551,40.551,0,0,1,.709-9.48s7.384-4.242,9.457-9.884c0,0,8.6,1.127,10.191,6.979,0,0-8.576,20.243-18.348,25.329" transform="translate(35.35 12.815)" fill="#253f3d"/>
            <path id="Trazado_130966" data-name="Trazado 130966" d="M116.059,50.543s-5.265-.1-4.591,6.991c1.338,14.1,10.915,17.075,10.915,17.075l1.216-7.444a46.944,46.944,0,0,0,.173-11.125s-7.012.281-7.714-5.5" transform="translate(31.389 14.337)" fill="#253f3d"/>
            <path id="Trazado_130967" data-name="Trazado 130967" d="M125.013,62.664a1.5,1.5,0,1,1-1.648-1.344,1.5,1.5,0,0,1,1.648,1.344" transform="translate(34.377 17.391)" fill="#253f3d"/>
            <path id="Trazado_130968" data-name="Trazado 130968" d="M125.094,67.342A1.5,1.5,0,1,1,123.446,66a1.505,1.505,0,0,1,1.648,1.344" transform="translate(34.4 18.718)" fill="#253f3d"/>
            <path id="Trazado_130969" data-name="Trazado 130969" d="M125.358,71.54A1.5,1.5,0,1,1,123.71,70.2a1.5,1.5,0,0,1,1.648,1.344" transform="translate(34.474 19.909)" fill="#253f3d"/>
            <path id="Trazado_130970" data-name="Trazado 130970" d="M134.3,98.938c-.191,3.71-4.036,6.7-6.375,9.145q-12.164,12.729-24.331,25.456c.027-.516.051-1.012.074-1.492l4.354-4.556q8.675-9.073,17.341-18.146,2.253-2.355,4.507-4.712a14.148,14.148,0,0,0,3.045-4.147c.937-2.266-.04-4.493-2.556-4.829a10.945,10.945,0,0,0-4.6.664,67.105,67.105,0,0,0-22,11.709c-.019-.409-.038-.816-.063-1.218l0,0a68.16,68.16,0,0,1,6.6-4.562,69.229,69.229,0,0,1,9.6-4.859c3.06-1.255,6.68-2.925,10.068-2.743,2.4.131,4.471,1.712,4.335,4.294" transform="translate(29.188 26.842)" fill="#5fa68d"/>
            <path id="Trazado_130971" data-name="Trazado 130971" d="M156.417,73.373c-6.533,3.213-12.982,7.316-16.911,13.632-3.5,5.624-4.814,12.91-1.553,18.945a15.159,15.159,0,0,0,5.785,6c2.6,1.48,5.374,1.651,8.3,1.625,3.359-.028,7.931.039,8.5,4.332.458,3.459-1.723,6.776-1.76,10.228-.065,6.095,7.024,10.525,12.507,8.124.576-.252.224-1.169-.356-.915a8.057,8.057,0,0,1-8.542-1.611c-2.517-2.239-2.967-5.146-2.243-8.313.619-2.707,1.962-5.648,1.2-8.462a5.689,5.689,0,0,0-4.12-3.961c-2.683-.748-5.529-.222-8.266-.453a12.3,12.3,0,0,1-8-4.047c-4.736-5.158-4.8-12.544-1.9-18.639,3.517-7.4,10.6-12.073,17.72-15.575.561-.276.211-1.2-.356-.915" transform="translate(38.34 20.797)" fill="#5fa68d"/>
            <path id="Trazado_130972" data-name="Trazado 130972" d="M181.994,140.973c-.009.33-.019.657-.028.988-.314.019-.626.036-.936.041a23.767,23.767,0,0,1-5.415-.475,21.2,21.2,0,0,1-9.489-4.521c-3.374-2.882-5.729-6.713-8.11-10.408-2.448-3.8-5.089-7.653-8.915-10.2-4.473-2.968-9.511-2.891-14.27-.58-4.46,2.173-8.462,5.5-12.224,8.693a114.4,114.4,0,0,0-19.88,21.893c.047-.634.092-1.261.135-1.887v0a115.441,115.441,0,0,1,20.626-22.011c3.627-2.979,7.451-6.056,11.779-7.962a14.48,14.48,0,0,1,12.241-.177c3.663,1.743,6.56,4.824,8.9,8.074,2.679,3.723,4.828,7.825,7.844,11.3a20.507,20.507,0,0,0,10.68,6.627,22.761,22.761,0,0,0,6.127.648c.314-.01.626-.022.936-.045" transform="translate(28.943 32.078)" fill="#5fa68d"/>
            <path id="Trazado_130973" data-name="Trazado 130973" d="M173.9,161.591c-.291.168-.746.422-1.006.571-7.693-4.16-16.6-6.417-25.057-3.139-4.4,1.707-9.314,5.359-10.042,10.371a7.482,7.482,0,0,0,.04,2.511q-.479.035-.961.05c-.695-3.7,1.389-7.29,4.025-9.762a21.722,21.722,0,0,1,11.137-5.341c7.676-1.356,15.2,1.014,21.865,4.739" transform="translate(38.524 44.382)" fill="#5fa68d"/>
            <path id="Trazado_130974" data-name="Trazado 130974" d="M135.879,173.228c-.31-.014-.622-.032-.928-.049-.054-.005-.106-.006-.159-.01,2.347-4.606,4.5-10.5,2.944-15.421a7.165,7.165,0,0,0-7.6-4.895c-3.341.209-6.387,2.04-9.076,3.9a43.212,43.212,0,0,0-11.073,11.188c-.254-.1-.508-.2-.758-.3l-.182-.076c.365-.539.742-1.068,1.129-1.592a40.985,40.985,0,0,1,14.776-12.661c5.322-2.525,12.379-1.718,13.907,4.883,1.129,4.887-.655,10.4-2.984,15.037" transform="translate(30.724 43.111)" fill="#5fa68d"/>
            <path id="Trazado_130975" data-name="Trazado 130975" d="M180.441,159.175c-.042.325-.083.646-.128.969-.308-.047-.615-.1-.923-.16a30.382,30.382,0,0,1-3.115-.751c-8.188-2.413-13.984-8.359-20.059-14.02a44.8,44.8,0,0,0-9.921-7.5,20.074,20.074,0,0,0-14.157-1.592c-5.345,1.329-10.139,4.3-14.532,7.544a85.984,85.984,0,0,0-11,9.679q-2.663,2.788-5.069,5.789c.041-.571.083-1.14.124-1.7a85.9,85.9,0,0,1,6.229-6.774c6.778-6.627,15.182-13.54,24.639-15.639,8.936-1.983,16.358,2.259,22.8,8.051,6.584,5.925,12.542,12.725,21.35,15.266.94.27,1.888.5,2.843.678.308.06.611.112.923.163" transform="translate(28.607 38.157)" fill="#5fa68d"/>
            <path id="Trazado_130976" data-name="Trazado 130976" d="M104.339,97.55s1.718-8.987.7-11.9-.995-7.86-3.006-7.344-1.869,6.6-1.869,6.6Z" transform="translate(28.221 22.2)" fill="#eaad8f"/>
            <path id="Trazado_130977" data-name="Trazado 130977" d="M180.768,81.758l-1.036,4.135c-.347,1.353-.693,2.7-1.061,4.044-.729,2.687-1.47,5.366-2.247,8.039-1.568,5.344-3.2,10.681-5.009,16.008s-3.72,10.666-5.967,16.043c-1.123,2.692-2.317,5.4-3.679,8.163a65.682,65.682,0,0,1-5.008,8.663c-.546.779-1.143,1.583-1.847,2.431A26.886,26.886,0,0,1,152.348,152a21.286,21.286,0,0,1-1.846,1.511,18.105,18.105,0,0,1-2.606,1.579,15.664,15.664,0,0,1-3.816,1.318,14.909,14.909,0,0,1-2.424.291l-.315.01h-.223l-.441-.008c-.3-.005-.564-.024-.843-.045a18.414,18.414,0,0,1-5.153-1.2,24.131,24.131,0,0,1-3.407-1.639,36.52,36.52,0,0,1-4.783-3.346,70.521,70.521,0,0,1-6.942-6.658c-2.051-2.219-3.944-4.449-5.765-6.69s-3.558-4.5-5.253-6.765-3.316-4.563-4.846-6.916-2.986-4.746-4.345-7.2q-1.023-1.837-1.965-3.73c-.317-.629-.615-1.272-.916-1.915-.151-.32-.3-.643-.442-.974l-.44-1.015A7.913,7.913,0,0,1,108.1,99.543l.338.306c.459.411.965.893,1.432,1.358s.959.937,1.425,1.415q1.409,1.431,2.781,2.884,2.746,2.906,5.378,5.859c1.762,1.963,3.491,3.933,5.209,5.887s3.466,3.859,5.226,5.7,3.54,3.6,5.317,5.231a49.794,49.794,0,0,0,5.159,4.21,12.6,12.6,0,0,0,1.976,1.167c.214.09.363.122.283.063a3.067,3.067,0,0,0-1.2-.3c-.109-.012-.2-.014-.336-.023l-.186-.005-.286,0a8.643,8.643,0,0,0-1.416.163,8.306,8.306,0,0,0-1.91.624,7.007,7.007,0,0,0-.886.5c-.164.1-.267.189-.3.194-.081.049.024-.1.156-.305s.328-.519.532-.872c.409-.709.872-1.606,1.325-2.57s.922-2.01,1.37-3.1c.9-2.171,1.76-4.493,2.576-6.871,1.624-4.769,3.135-9.747,4.55-14.783,1.4-5.046,2.757-10.151,4.023-15.29.638-2.569,1.274-5.141,1.882-7.717l.914-3.857.866-3.785.051-.221a13.584,13.584,0,1,1,26.478,6.082c-.015.067-.049.2-.064.267" transform="translate(26.744 18.393)" fill="#eaad8f"/>
            <path id="Trazado_130978" data-name="Trazado 130978" d="M130.808,117.585l3.853,1.558c.674.273.211,1.305-.461,1.033l-3.853-1.558c-.674-.273-.212-1.305.461-1.033" transform="translate(36.631 33.34)" fill="#c6695d"/>
            <path id="Trazado_130979" data-name="Trazado 130979" d="M128.832,117.21a9.957,9.957,0,0,1,2.938,6.176.609.609,0,0,0,1.21-.132,11.266,11.266,0,0,0-3.374-6.983c-.56-.549-1.329.4-.774.94" transform="translate(36.244 32.933)" fill="#c6695d"/>
            <path id="Trazado_130980" data-name="Trazado 130980" d="M110.056,108.935A8.6,8.6,0,0,1,98.4,106.356a21.088,21.088,0,0,0-4.889-5.254c-4.266-2.886-10.105-5.108-11.847-7.176-2.572-3.051,1.723-2.847,2.251-2.748a59.493,59.493,0,0,1,7.912,2.316s-7.21-4.96-10.588-5.635-4.822-3.426-1.309-4.6,12.592,2.633,14.822,4.37c0,0-3.659-4.208-8.206-5.275S80.52,80.294,79.139,79s1.475-3.8,7.783-2.146a20.614,20.614,0,0,1,10.655,6.019,34.572,34.572,0,0,0-3.731-5.665c-2.613-3.336-7.966-4.149-8.5-6.63-.543-2.536,5.579-1.329,8.659.851s5.5,3.5,8.087,7.577,4.914,8.057,5.877,10.87,5.7,12.358,4.376,16.433a5.283,5.283,0,0,1-2.29,2.624" transform="translate(21.949 19.616)" fill="#eaad8f"/>
            <path id="Trazado_130981" data-name="Trazado 130981" d="M172.239,80.036a142.387,142.387,0,0,1-1.359,17.99c-.041.344-.09.684-.135,1.017-.964,7.124-2.044,12.481-2.044,12.481-2.464.058-6.969-.892-12.029-2.234-.317-.083-.637-.169-.957-.257-4.031-1.1-8.348-2.411-12.215-3.642l-1.743-.558c-2.8-.9-5.281-1.741-7.133-2.368h0l-1.391-.479c-1.295-.445-2.044-.712-2.044-.712s.929-4,2.333-9.573c.083-.326.17-.661.254-1,.374-1.475.782-3.049,1.207-4.672q.131-.491.256-.988c2.862-10.8,6.6-23.513,9-26.347a9.423,9.423,0,0,1,1.653-1.511c.263-.189.536-.368.818-.537a13.738,13.738,0,0,1,1.6-.8,16.147,16.147,0,0,1,13.974.466c.269.141.532.3.788.462a13.748,13.748,0,0,1,3.435,3.094,17.407,17.407,0,0,1,1.3,1.919c.154.254.3.513.451.787A31.775,31.775,0,0,1,171.9,73.492a54.062,54.062,0,0,1,.333,5.633q.01.452.009.911" transform="translate(36.961 15.453)" fill="#467b6c"/>
            <path id="Trazado_130982" data-name="Trazado 130982" d="M165.489,88.4c-.041.344-.09.684-.135,1.017a20.855,20.855,0,0,0-3.124.935,22.444,22.444,0,0,0-10.95,9.313c-.317-.083-.637-.169-.957-.257A23.553,23.553,0,0,1,161.541,89.6a21.8,21.8,0,0,1,3.948-1.194" transform="translate(42.353 25.076)" fill="#5fa68d"/>
            <path id="Trazado_130983" data-name="Trazado 130983" d="M167.425,60.956c-.449.112-.891.24-1.333.385-5.943,1.925-9.318,6.48-12.279,11.72-2.5,4.432-5.2,9.486-10.032,11.735a10.069,10.069,0,0,1-9.636-.381c.087-.327.173-.659.256-.988,3.894,2.984,9.546.982,12.789-2.291,3.993-4.035,5.858-9.582,9.261-14.05a19.113,19.113,0,0,1,10.523-6.916c.154.254.3.515.451.787" transform="translate(37.795 17.067)" fill="#5fa68d"/>
            <path id="Trazado_130984" data-name="Trazado 130984" d="M169.915,74.6c-4.783-.447-9.152,3.359-11.769,7.217-2.663,3.919-4.48,8.382-7.562,12.015a19.651,19.651,0,0,1-9.408,6.124l-1.743-.558c5.819-1.187,10.1-5.052,13.134-10.023,2.683-4.388,4.785-9.373,8.844-12.715a12.258,12.258,0,0,1,8.5-2.972q.01.452.009.911" transform="translate(39.284 20.894)" fill="#5fa68d"/>
            <path id="Trazado_130985" data-name="Trazado 130985" d="M134.174,94.462h0l-1.391-.479c3.33-1.305,6.441-3.6,3.99-7.015a11.84,11.84,0,0,0-3.7-3.269c.083-.327.17-.661.254-1a10.694,10.694,0,0,1,4.989,5.041c1.339,3.187-1.169,5.366-4.136,6.724" transform="translate(37.41 23.457)" fill="#5fa68d"/>
            <path id="Trazado_130986" data-name="Trazado 130986" d="M160.667,57.195c-.211.205-.423.411-.634.61-3.015,2.863-6.29,5.231-10.647,4.907a7.653,7.653,0,0,1-6.528-4.5c-.035-.074-.067-.145-.1-.218a11.611,11.611,0,0,1-.44-7.159c.305.073.615.144.933.208a10.55,10.55,0,0,0,.423,6.633c1.5,3.4,5.005,4.625,8.485,3.851a15.415,15.415,0,0,0,7.084-4.187c.273-.254.542-.513.811-.777.208.2.41.411.611.629" transform="translate(39.997 14.42)" fill="#5fa68d"/>
            <path id="Trazado_130987" data-name="Trazado 130987" d="M163.154,78.139a95.886,95.886,0,0,1-3.129,26.492.481.481,0,0,0,.927.255,96.884,96.884,0,0,0,3.163-26.747.481.481,0,0,0-.961,0" transform="translate(45.081 22.032)" fill="#253f3d"/>
            <path id="Trazado_130988" data-name="Trazado 130988" d="M12.1,139.32c.16.43.319.86.47,1.293,3.921,10.9,6.851,21.836,7.938,29.126,2.256,15.1,1.584,13.259-5.106,43.226,0,0-1.3,9.069-2.737,20.746h92.706c-1.139-7.291-2.966-15.984-5.151-25.317-.083-.193-.722-2.673-.916-3.213-.124-.336-.268-.736-.424-1.2-.916-2.651-2.393-7.264-3.948-12.846-.328-1.18-.66-2.4-.988-3.66-.866-3.29-1.721-6.814-2.487-10.4q-.433-2.029-.823-4.072c-.245-1.3-.476-2.59-.684-3.88-.226-1.358-.4-2.556-.523-3.565-.012-.083-.019-.163-.031-.24-.019-.176-.041-.349-.055-.515-.005-.033-.008-.064-.01-.094,0,0,.219-.218.6-.62.053-.055.108-.116.163-.18,1.759-1.906,6.05-6.993,7.6-12.605s-3.065-15.168-6.457-26.129c-.135-.438-.269-.882-.4-1.325a80.467,80.467,0,0,1-1.934-7.837c-2.765-14.648-2.075-20.433-25.039-24.545l-1-.09-25.19-2.266s-1.393.488-3.585,1.248c-4.537,1.576-12.5,4.328-18.59,6.363C1.673,101.34,2.6,116.45,8.345,129.858c1.321,3.072,2.579,6.26,3.75,9.462" transform="translate(1.237 25.278)" fill="#171612"/>
            <path id="Trazado_130989" data-name="Trazado 130989" d="M69.016,112.307q3.624,10.923,7.25,21.848c.158.479-.595.684-.752.208q-3.626-10.923-7.25-21.848c-.159-.479.595-.684.752-.208" transform="translate(19.227 31.779)" fill="#5a554d"/>
            <path id="Trazado_130990" data-name="Trazado 130990" d="M22.85,178.875a32.464,32.464,0,0,0,14.49,18.18.586.586,0,0,0,.591-1.012,31.242,31.242,0,0,1-13.953-17.481c-.226-.716-1.356-.409-1.128.312" transform="translate(6.429 50.534)" fill="#5a554d"/>
            <path id="Trazado_130991" data-name="Trazado 130991" d="M78.879,180.208a19.954,19.954,0,0,1-5.808,14.021c-.541.528.287,1.356.827.829a21.154,21.154,0,0,0,6.151-14.851.585.585,0,0,0-1.17,0" transform="translate(20.538 50.956)" fill="#5a554d"/>
            <path id="Trazado_130992" data-name="Trazado 130992" d="M54.975,92.622c4.1,3.73,8.406,7.217,12.465,10.989.026-.2.053-.406.078-.608q-5.278,2.938-10.3,6.3a.394.394,0,0,0-.078.608L70.5,124.372v-.547c-2.744,2.338-5.623,4.52-8.244,7-.363.343.185.891.547.548,2.621-2.48,5.5-4.661,8.244-7a.391.391,0,0,0,0-.547L57.683,109.364c-.026.2-.053.4-.078.608q5.022-3.358,10.3-6.3a.391.391,0,0,0,.078-.608C63.927,99.291,59.62,95.8,55.522,92.074c-.368-.335-.916.212-.547.548" transform="translate(15.454 26.087)" fill="#5a554d"/>
            <path id="Trazado_130993" data-name="Trazado 130993" d="M75.669,224.369c-5.063-43.1-14.09-101.177-14.2-101.882a.516.516,0,1,0-1.019.159c.11.7,9.118,58.667,14.181,101.723Z" transform="translate(17.029 34.619)" fill="#5a554d"/>
            <path id="Trazado_130994" data-name="Trazado 130994" d="M40.59,134.612a.488.488,0,0,1-.147-.022L27.17,130.625a.515.515,0,0,1-.329-.689l6.506-15.978-12.6-7.929a.516.516,0,0,1-.127-.761l9.782-12.183a.516.516,0,1,1,.8.647l-9.42,11.731,12.473,7.852a.514.514,0,0,1,.2.632L28.01,129.8l12.728,3.8a.517.517,0,0,1-.147,1.012" transform="translate(5.778 26.349)" fill="#5a554d"/>
            <path id="Trazado_130995" data-name="Trazado 130995" d="M36.543,192.1c-.168,11.522-.395,22.315-.651,31.553h1.029c.255-9.172.477-19.726.637-30.375.415-27.914.465-62.545-.765-68.277a.516.516,0,1,0-1.009.217c1.2,5.566,1.155,39.507.759,66.882" transform="translate(10.079 35.339)" fill="#5a554d"/>
            <path id="Trazado_130996" data-name="Trazado 130996" d="M35.287,107.894c1.188,3.81,2.4,8.259,3.6,13.395.074.316.149.634.22.956q.938,4.092,1.85,8.76c.156.806.305,1.72.443,2.726.037.267.074.544.109.828.609,4.834,1.023,11.621,1.286,19.622l.023.793c.106,3.375.188,6.956.244,10.69.006.308.009.619.014.929.117,8.3.122,17.323.053,26.5l-.008.879c-.029,3.547-.069,7.111-.119,10.663,0,.241-.005.483-.01.721-.049,3.43-.106,6.842-.173,10.21l-.015.825q-.063,3.36-.138,6.647c-.008.3-.013.587-.021.882q-.115,5.025-.245,9.792H80.794c-.506-4.64-1.052-9.58-1.629-14.711-.04-.358-.082-.718-.122-1.078-.65-5.782-1.336-11.775-2.043-17.793v0q-.092-.789-.186-1.58v0c-.67-5.7-1.36-11.414-2.05-16.976-.031-.262-.065-.525-.1-.788-.7-5.608-1.4-11.054-2.087-16.169-.042-.323-.085-.644-.129-.965-.888-6.571-1.752-12.57-2.563-17.64-.055-.345-.112-.688-.164-1.024-.037-.216-.072-.427-.106-.638-.919-5.59-1.857-10.693-2.79-15.343-.054-.254-.1-.51-.156-.761-1.63-8.023-3.251-14.67-4.763-20.126-.067-.243-.133-.484-.2-.72a144.06,144.06,0,0,0-5.372-16.012L31.144,89.115s-1.392.487-3.586,1.248c1.775,2.124,4.49,7.387,7.408,16.517.109.332.214.671.32,1.014" transform="translate(7.764 25.278)" fill="#fff"/>
            <path id="Trazado_130997" data-name="Trazado 130997" d="M33.338,102.955c.109.331.215.671.32,1.014a36.1,36.1,0,0,0,18.39,2.859,22.6,22.6,0,0,0,8.23-2.64c-.067-.243-.133-.484-.2-.72-6.709,3.868-15.432,3.313-22.583,1.067a38.245,38.245,0,0,1-4.157-1.579" transform="translate(9.393 29.203)" fill="#dbccc1"/>
            <path id="Trazado_130998" data-name="Trazado 130998" d="M36.4,114.179c.074.316.149.634.22.956a91.737,91.737,0,0,0,24.735,6.585c.97.1,1.969.162,2.981.169-.053-.254-.1-.51-.156-.761a48.025,48.025,0,0,1-7.1-.847,103.232,103.232,0,0,1-13.16-3.339q-3.813-1.234-7.517-2.764" transform="translate(10.255 32.387)" fill="#dbccc1"/>
            <path id="Trazado_130999" data-name="Trazado 130999" d="M38.359,123.872c.037.268.074.544.109.828a104.254,104.254,0,0,1,28.377,11.446q-.083-.518-.164-1.024a105.354,105.354,0,0,0-28.321-11.25" transform="translate(10.807 35.136)" fill="#dbccc1"/>
            <path id="Trazado_131000" data-name="Trazado 131000" d="M39.447,139.8q.012.395.024.793a104.3,104.3,0,0,1,29.761,9.636q-.063-.485-.131-.967A105.342,105.342,0,0,0,39.447,139.8" transform="translate(11.114 39.656)" fill="#dbccc1"/>
            <path id="Trazado_131001" data-name="Trazado 131001" d="M56.015,166.925c1.174,2.259,2.919,5.322,2.288,7.953-.716,3-4.223,3.5-6.8,3.62a25.235,25.235,0,0,1-11.779-2.322l-.008.878a24.54,24.54,0,0,0,14.326,1.973c12.451-2.3-1.356-19.46-5.724-23.695a45.636,45.636,0,0,0-8.661-6.583c.006.308.009.617.014.928a44.1,44.1,0,0,1,16.346,17.247" transform="translate(11.173 42.193)" fill="#dbccc1"/>
            <path id="Trazado_131002" data-name="Trazado 131002" d="M61.024,169.611a64.329,64.329,0,0,0,5.158,7.882q.831,1.194,1.675,2.379-.09-.789-.186-1.58v0q-2.384-3.393-4.651-6.859c-1.484-2.267-3.331-5.52-1.447-8.1a5.542,5.542,0,0,1,4.05-2.014c-.032-.263-.067-.526-.1-.789-.164.019-.331.04-.5.067a6.043,6.043,0,0,0-4.308,2.585c-1.246,2.023-.683,4.439.305,6.435" transform="translate(16.906 45.533)" fill="#dbccc1"/>
            <path id="Trazado_131003" data-name="Trazado 131003" d="M39.6,179.829c10.923,1.521,21.664,4.71,31.185,10.368,1.709,1.018,3.376,2.108,4.987,3.276-.038-.358-.082-.716-.122-1.077-10.638-7.5-23.129-11.481-36.04-13.288,0,.241-.005.483-.01.721" transform="translate(11.157 50.804)" fill="#dbccc1"/>
            <path id="Trazado_131004" data-name="Trazado 131004" d="M71.879,205.769h1.388a130.871,130.871,0,0,0-33.8-18.146c-.006.276-.012.549-.017.825.533.191,1.066.388,1.6.587a129.566,129.566,0,0,1,30.83,16.734" transform="translate(11.116 53.219)" fill="#dbccc1"/>
            <path id="Trazado_131005" data-name="Trazado 131005" d="M52.271,204.117h1.175a49.191,49.191,0,0,0-14.1-10.672c-.008.294-.013.587-.021.881a48.422,48.422,0,0,1,6.95,4.394,49.2,49.2,0,0,1,5.992,5.4" transform="translate(11.081 54.871)" fill="#dbccc1"/>
            <path id="Trazado_131006" data-name="Trazado 131006" d="M23.906,160.735c.072.426.14.846.205,1.264.205,1.29.386,2.548.537,3.762.178,1.406.318,2.759.413,4.041a29.418,29.418,0,0,1-.41,9.219,354.492,354.492,0,0,0-9.484,48.8h1.539a352.361,352.361,0,0,1,9.423-48.4,24.994,24.994,0,0,0,.595-6.806c-.035-1.571-.15-3.269-.332-5.068-.178-1.733-.415-3.558-.709-5.453-.064-.417-.129-.838-.2-1.264-3.4-20.837-12.58-48.821-13.107-50.423a.765.765,0,1,0-1.453.48c.127.392,9.481,28.895,12.985,49.848" transform="translate(3.066 31.167)" fill="#5a554d"/>
            <path id="Trazado_131007" data-name="Trazado 131007" d="M43.312,46.888s1.95-17.777-15.655-19.339C13.559,26.3,6.6,45.39,15.7,61.578S14.451,86.653,4.279,81.407c0,0,3.791,9.585,18.134,5.833s20.9-40.352,20.9-40.352" transform="translate(1.206 7.798)" fill="#171612"/>
            <path id="Trazado_131008" data-name="Trazado 131008" d="M21.058,75.68a31.323,31.323,0,0,0,8.874,10.481C40.7,94.618,49.892,100.624,62.38,94.408c3.771-1.961,6.464-6.663,6.536-6.793,1.921-3.494,3.216-10.449,3.375-16.469.156-5.942-.631-3.889,1.73-12.614C77.609,45.279,60.38,38.7,60.38,38.7c-6.269-3.9-24.026-6.8-35.922,6.2-7.323,8-8.959,16.981-3.927,28.828a10.12,10.12,0,0,1,.528,1.95" transform="translate(4.966 10.041)" fill="#171612"/>
            <path id="Trazado_131009" data-name="Trazado 131009" d="M37.706,37.05A27.383,27.383,0,0,0,19,55.984a.481.481,0,0,1-.927-.257A28.372,28.372,0,0,1,37.451,36.122a.482.482,0,0,1,.255.928" transform="translate(5.088 10.24)" fill="#e59f3f"/>
            <path id="Trazado_131010" data-name="Trazado 131010" d="M27.564,41.967c-1.364-3.631-4.895-6.436-8.912-6.083-.814.071-1.725.379-1.406,1.438.127.424.875,1.042,1.218,1.344A11.776,11.776,0,0,0,21.1,40.416a12.381,12.381,0,0,0,6.4,1.19c.618-.044.615.919,0,.963a13.24,13.24,0,0,1-8.422-2.213c-1.277-.87-4.384-3.318-2.275-4.918,1.746-1.323,5.091-.331,6.811.557a10.368,10.368,0,0,1,4.873,5.716c.218.58-.71.831-.927.255" transform="translate(4.534 9.87)" fill="#e59f3f"/>
            <path id="Trazado_131011" data-name="Trazado 131011" d="M25.646,42.963c-.693-2.724-1.43-5.706-.549-8.479.577-1.818,2.158-3.684,4.277-3.15,2,.5,2.321,2.8,1.723,4.481a16.909,16.909,0,0,1-4.625,6.411c-.456.417-1.137-.262-.681-.682,1.487-1.366,7.391-8.055,3.247-9.06a1.876,1.876,0,0,0-2.187.706,3.692,3.692,0,0,0-.669,1.151,7.777,7.777,0,0,0-.519,2.886,21.781,21.781,0,0,0,.909,5.48.481.481,0,0,1-.927.255" transform="translate(6.957 8.862)" fill="#e59f3f"/>
            <path id="Trazado_131012" data-name="Trazado 131012" d="M57.34,62.076s2.519.205,3.022,3.418-1.078,8.593-4.332,7.955,1.31-11.373,1.31-11.373" transform="translate(15.456 17.608)" fill="#632829"/>
            <path id="Trazado_131013" data-name="Trazado 131013" d="M53.241,72.537a4.43,4.43,0,1,1,4.246,4.613,4.439,4.439,0,0,1-4.246-4.613m1.295.053A3.135,3.135,0,1,0,57.8,69.58a3.142,3.142,0,0,0-3.261,3.009" transform="translate(14.999 19.368)" fill="#e59f3f"/>
            <line id="Línea_225" data-name="Línea 225" y2="0.003" transform="translate(64.057 104.72)" fill="#b1614f"/>
            <path id="Trazado_131014" data-name="Trazado 131014" d="M28.746,95.319a23.73,23.73,0,0,0,14.491,7.756c11.956,1.666,13.293-3.5,13.293-3.5a22.668,22.668,0,0,1-.975-4.954c-.056-.653-.092-1.323-.1-2.019a54.937,54.937,0,0,1,.315-6.36c.055-.56.115-1.142.185-1.743l.006-.071c-8.284-1.922-15.073-5.565-19.736-11.656l-1.245-.736-.84-.5-.151.484.165,1.539c.8,7.237-1.591,15.459-5.405,21.754" transform="translate(8.099 20.293)" fill="#b1614f"/>
            <path id="Trazado_131015" data-name="Trazado 131015" d="M29.412,89.488c2.552,4.393,5.308,8.668,8.274,12.792,2.825,3.929,5.9,8.518,9.828,11.437,2.18,1.62,5.1,2.828,7.779,1.7,2.808-1.18,3.149-4.349,3.177-7.018.06-5.714-.478-11.548-2.82-16.821-.25-.561.579-1.051.829-.485a37.541,37.541,0,0,1,2.9,13.875c.142,3.606.624,8.862-3.031,11.007-3.411,2-7.564.148-10.276-2.18-3.245-2.787-5.891-6.49-8.411-9.921a155.2,155.2,0,0,1-9.084-13.9.482.482,0,0,1,.831-.487" transform="translate(8.033 25.317)" fill="#1e1d12"/>
            <path id="Trazado_131016" data-name="Trazado 131016" d="M39.075,77.443c1.768,3.947,5.858,10.921,13.466,13.489a54.937,54.937,0,0,1,.315-6.36c.055-.56.115-1.142.185-1.743-.163.021-.331.035-.5.046-4.505.321-9.416-1.982-13.467-5.431" transform="translate(11.009 21.967)" fill="#171612"/>
            <path id="Trazado_131017" data-name="Trazado 131017" d="M25.06,67.767c-.26,4.493,3.217,10.215,9.075,10.718l.031,0h0l.124.012c.079.263.174.524.274.789.042.114.087.231.132.345a.147.147,0,0,0,.015.032c3.211,7.844,13.808,12.967,19.671,13.469a13.41,13.41,0,0,0,3.989-.284c6.3-.991,7.957-9.346,7.356-15.843a24.679,24.679,0,0,0-.4-2.68c-.013-.058-.026-.116-.037-.172,0,0,2.61-8.885,3.326-12.785C70,53.814,66.091,45.822,49.5,43.328S28.317,50.967,26.826,56.4c-.251.9-.385,6.373.477,7.307-1.628.715-2.156,2.553-2.243,4.063" transform="translate(7.057 12.18)" fill="#b1614f"/>
            <path id="Trazado_131018" data-name="Trazado 131018" d="M50.808,74.748a5.146,5.146,0,0,1-.615-.145,6.111,6.111,0,0,1-3.224-2.995.669.669,0,1,1,1.2-.58,4.829,4.829,0,0,0,2.406,2.293,2.363,2.363,0,0,0,2.4-.379.669.669,0,0,1,.977.915,3.546,3.546,0,0,1-3.147.891" transform="translate(13.215 20.039)" fill="#632829"/>
            <path id="Trazado_131019" data-name="Trazado 131019" d="M48.738,76.352a2.5,2.5,0,0,1-1.336-1,.421.421,0,0,1,.719-.439,1.71,1.71,0,0,0,1.789.664.421.421,0,1,1,.154.828,2.729,2.729,0,0,1-1.327-.056" transform="translate(13.338 21.193)" fill="#632829"/>
            <path id="Trazado_131020" data-name="Trazado 131020" d="M54.464,64.912c-.156,1.1-.746,1.927-1.316,1.846s-.907-1.04-.751-2.14.746-1.927,1.316-1.846.907,1.04.751,2.14" transform="translate(14.752 17.804)" fill="#171612"/>
            <path id="Trazado_131021" data-name="Trazado 131021" d="M52.023,63.866a.293.293,0,0,1-.137-.119.3.3,0,0,1,.1-.4c.117-.069,2.872-1.7,5.113.1a.294.294,0,0,1-.368.46c-1.923-1.542-4.417-.068-4.441-.053a.294.294,0,0,1-.267.019" transform="translate(14.607 17.756)" fill="#171612"/>
            <path id="Trazado_131022" data-name="Trazado 131022" d="M46.974,63.976c-.156,1.1-.746,1.927-1.316,1.846s-.907-1.04-.751-2.141.746-1.925,1.316-1.845.907,1.04.751,2.14" transform="translate(12.641 17.538)" fill="#171612"/>
            <path id="Trazado_131023" data-name="Trazado 131023" d="M44.156,63.276a.287.287,0,0,1-.151-.1.3.3,0,0,1,.049-.415c.106-.083,2.634-2.049,5.083-.551a.295.295,0,0,1-.306.5c-2.1-1.287-4.39.492-4.413.51a.29.29,0,0,1-.261.051" transform="translate(12.38 17.487)" fill="#171612"/>
            <path id="Trazado_131024" data-name="Trazado 131024" d="M30.5,67.2a.882.882,0,0,1-.054,1.309,3.141,3.141,0,1,0,2.349.684l.062-1.5A4.424,4.424,0,1,1,30.5,67.2" transform="translate(7.435 19.06)" fill="#e59f3f"/>
            <path id="Trazado_131025" data-name="Trazado 131025" d="M27.3,63.986a9.671,9.671,0,0,1,1.341.236,9.906,9.906,0,0,1,5.728,4.305c.22-1.529,1.779-8.543,11.969-9.8.146-.017.3-.035.467-.047a8.722,8.722,0,0,0,1.078-4.4c-1.06-4.142,18.931-2.243,19.668,4.126.309,2.669.477,4.407.568,5.535v0a10.842,10.842,0,0,1,.092,2.073s1.782,1.82,1.838-6.961A11.93,11.93,0,0,0,67,51.258c-4.036-4.809-11.64-8.209-20.017-9.195C34.581,40.6,25.688,53.735,25.145,58.5S27.3,63.986,27.3,63.986" transform="translate(7.064 11.899)" fill="#171612"/>
            <g id="Grupo_157980" data-name="Grupo 157980" transform="translate(69.448 86.51)" opacity="0.5">
              <g id="Grupo_157979" data-name="Grupo 157979">
                <g id="Grupo_157978" data-name="Grupo 157978" clip-path="url(#clip-path-6)">
                  <path id="Trazado_131026" data-name="Trazado 131026" d="M54.182,68.587c-.026.668,1.407,1.282,3.338,1.488a24.622,24.622,0,0,0-.4-2.68c-1.682.116-2.913.583-2.936,1.193" transform="translate(-54.182 -67.394)" fill="#632829"/>
                </g>
              </g>
            </g>
            <path id="Trazado_131027" data-name="Trazado 131027" d="M49.244,59.961A1.237,1.237,0,0,0,51.018,58.3a3.582,3.582,0,0,0-2.048-1.463,8.953,8.953,0,0,0-7.851,1.425s4.762.005,6.928,1a6.9,6.9,0,0,1,1.2.7" transform="translate(11.585 16.016)" fill="#171612"/>
            <path id="Trazado_131028" data-name="Trazado 131028" d="M53.984,60.737a1.237,1.237,0,0,1-1.339-2.027,3.584,3.584,0,0,1,2.331-.946c4.654-.288,5.8,2.783,5.8,2.783a16.372,16.372,0,0,0-5.465-.211,6.962,6.962,0,0,0-1.327.4" transform="translate(14.724 16.379)" fill="#171612"/>
            <g id="Grupo_157983" data-name="Grupo 157983" transform="translate(50.618 85.625)" opacity="0.5">
              <g id="Grupo_157982" data-name="Grupo 157982">
                <g id="Grupo_157981" data-name="Grupo 157981" clip-path="url(#clip-path-7)">
                  <path id="Trazado_131029" data-name="Trazado 131029" d="M47.955,68.265c-.032.762-1.951,1.3-4.287,1.209s-4.207-.789-4.175-1.551,1.95-1.3,4.285-1.209,4.207.789,4.177,1.551" transform="translate(-39.492 -66.704)" fill="#632829"/>
                </g>
              </g>
            </g>
            <path id="Trazado_131030" data-name="Trazado 131030" d="M32.137,71.02l.031,0h0l.124.012c.078.263.173.524.273.789.044.114.088.231.133.345a.225.225,0,0,0,.014.032,5.383,5.383,0,0,0,2.319-.766,4.286,4.286,0,0,0,1.271-1.227.608.608,0,0,0-1-.687A3.269,3.269,0,0,1,33.785,70.7a4.4,4.4,0,0,1-1.077.268,5.147,5.147,0,0,1-.572.047" transform="translate(9.054 19.645)" fill="#632829"/>
            <path id="Trazado_131031" data-name="Trazado 131031" d="M34.132,69.716a.606.606,0,0,1-.468-.513c-.563-4.273-5.491-6.4-5.541-6.417a.607.607,0,0,1,.468-1.121c.229.095,5.622,2.407,6.275,7.378a.607.607,0,0,1-.523.682.583.583,0,0,1-.211-.009" transform="translate(7.819 17.478)" fill="#632829"/>
            <path id="Trazado_131032" data-name="Trazado 131032" d="M28.833,66.413a.552.552,0,0,1-.213-.094.607.607,0,0,1-.153-.845,4.167,4.167,0,0,1,3.761-1.6.608.608,0,0,1-.119,1.209,2.956,2.956,0,0,0-2.646,1.082.6.6,0,0,1-.631.245" transform="translate(7.99 18.112)" fill="#632829"/>
            <path id="Trazado_131033" data-name="Trazado 131033" d="M28.89,82.618c3.329,2.409,6.715,3.664,10.328.421.329-5.281-.932-11.285-2.738-14.739-2.966-5.676,2.034-12.765,2.034-12.765-3.22,1.375-6.8,1.374-8.68,5.181,3.244,3.671,1.347,13.753-.945,21.9" transform="translate(8.14 15.753)" fill="#171612"/>
            <path id="Trazado_131034" data-name="Trazado 131034" d="M52.391,64.337a6.089,6.089,0,1,0-5.878,6.3,6.094,6.094,0,0,0,5.878-6.3m-5.9,5.456a5.549,5.549,0,0,1-1.364-.122,5.256,5.256,0,0,1-1.228-.463,5.177,5.177,0,0,1-2.788-3.959,3.9,3.9,0,0,1-.046-.526A5.239,5.239,0,0,1,46.13,59.3a5.737,5.737,0,0,1,1.309.109,5.281,5.281,0,0,1,2.633,1.479,5.085,5.085,0,0,1,1.079,1.638,5.029,5.029,0,0,1,.338,1.262,3.328,3.328,0,0,1,.055.571,5.241,5.241,0,0,1-5.051,5.434" transform="translate(11.331 16.579)" fill="#fff"/>
            <path id="Trazado_131035" data-name="Trazado 131035" d="M63.2,65.439a6.089,6.089,0,1,0-5.877,6.3,6.094,6.094,0,0,0,5.877-6.3m-5.9,5.456a5.543,5.543,0,0,1-1.364-.122,5.256,5.256,0,0,1-1.228-.463,5.177,5.177,0,0,1-2.788-3.959,3.9,3.9,0,0,1-.046-.526A5.239,5.239,0,0,1,56.942,60.4a5.737,5.737,0,0,1,1.309.109,5.281,5.281,0,0,1,2.633,1.479,5.085,5.085,0,0,1,1.079,1.638A5.029,5.029,0,0,1,62.3,64.89a3.328,3.328,0,0,1,.055.571A5.241,5.241,0,0,1,57.3,70.895" transform="translate(14.377 16.891)" fill="#fff"/>
            <path id="Trazado_131036" data-name="Trazado 131036" d="M42.544,62.772a.5.5,0,0,1-.251-.08A12.543,12.543,0,0,0,34.547,60.7a.5.5,0,0,1-.137-.994,13.361,13.361,0,0,1,8.426,2.141.5.5,0,0,1-.292.923" transform="translate(9.573 16.92)" fill="#fff"/>
            <path id="Trazado_131037" data-name="Trazado 131037" d="M61.019,65.759a.5.5,0,0,1-.21-.056,6.856,6.856,0,0,0-3.534-.669.492.492,0,0,1-.558-.439.5.5,0,0,1,.438-.557,7.836,7.836,0,0,1,4.118.777.5.5,0,0,1-.255.945" transform="translate(15.979 18.152)" fill="#fff"/>
            <path id="Trazado_131038" data-name="Trazado 131038" d="M51.153,70.907a.5.5,0,0,0,.279-.054L53.8,69.648a.51.51,0,0,0,.053-.877,7.343,7.343,0,0,1-3.122-5.358.509.509,0,1,0-1,.159,8.489,8.489,0,0,0,2.884,5.54l-1.634.833a.51.51,0,0,0,.182.961" transform="translate(14.007 17.865)" fill="#632829"/>
            <path id="Trazado_131039" data-name="Trazado 131039" d="M51.837,64.414a.5.5,0,0,1-.328-.141,1.423,1.423,0,0,0-1.677-.227.5.5,0,0,1-.49-.875,2.44,2.44,0,0,1,2.863.383.5.5,0,0,1-.369.861" transform="translate(13.831 17.833)" fill="#fff"/>
            <path id="Trazado_131040" data-name="Trazado 131040" d="M26.37,153.827c.677.253,16.75,6.272,33.783,11.331a206.141,206.141,0,0,0,25.229,6.124,58.012,58.012,0,0,0,8.859.8q1.131,0,2.161-.071a19.666,19.666,0,0,0,6.707-1.561q.6-.266,1.139-.562a13.132,13.132,0,0,0,4.923-4.611,13.659,13.659,0,0,0,1.857-8.821c-.023-.285-.056-.574-.1-.863a45.14,45.14,0,0,0-3.258-10.735c-2.047-4.964-5.142-11.309-9.2-18.853-6.76-12.566-13.862-24.165-14.162-24.651-1.016-1.66-4.3-4.137-5.9-4.988,2,6.272,4.658,13.86,6.459,20.2,1.448,5.1,3.49,9.875,4.375,15.1.67,3.982,2.047,8.459,1.307,12.48-.45,2.456-1.7,4.574-3.953,5.078.149.323.294.642.429.946a222.788,222.788,0,0,1-25.549-6.666c-14.564-4.516-27.583-9.392-27.713-9.441a10.548,10.548,0,0,0-7.394,19.757" transform="translate(5.503 27.334)" fill="#171612"/>
            <path id="Trazado_131041" data-name="Trazado 131041" d="M85.665,156.61A13.152,13.152,0,0,0,90.588,152a13.667,13.667,0,0,0,1.857-8.821c-3.735,2.916-7.849,7.571-6.78,13.432" transform="translate(24.087 40.613)" fill="#5a554d"/>
            <path id="Trazado_131042" data-name="Trazado 131042" d="M74.554,144.717Z" transform="translate(21.005 41.049)" fill="#171612"/>
            <path id="Trazado_131043" data-name="Trazado 131043" d="M.105,156.438c.063.9.141,1.842.326,3.032.054.323.106.628.174.964l.051.241.07.321.065.279.033.141.045.169c.059.229.124.458.192.684l.106.344.151.438c.1.291.215.581.332.865a13.25,13.25,0,0,0,1.238,2.3,13.511,13.511,0,0,0,2.8,3.02,14.25,14.25,0,0,0,2.31,1.5,16.2,16.2,0,0,0,3.159,1.235c.508.141.96.248,1.379.331.276.054.532.1.782.143.629.105,1.184.169,1.709.22,1.046.1,1.948.13,2.807.142s1.655,0,2.426-.031c1.546-.055,2.981-.164,4.386-.291,2.8-.263,5.444-.617,8.057-1.008s5.171-.827,7.71-1.285c5.076-.917,10.069-1.936,15.035-3s9.891-2.192,14.807-3.357q3.688-.872,7.361-1.779l3.677-.914L85,160.2a10.551,10.551,0,0,0-4.728-20.559l-.144.031-3.573.747-3.615.741q-3.616.726-7.244,1.427-7.248,1.394-14.491,2.643c-4.826.824-9.643,1.592-14.409,2.246-2.383.325-4.751.621-7.085.872-1.7.18-3.386.339-5.017.451.208-2.112.476-4.3.773-6.509.634-4.714,1.407-9.514,2.239-14.318q.625-3.6,1.3-7.21l.682-3.6.7-3.545.028-.144A13.087,13.087,0,1,0,4.735,108.4c-.033.168-.07.385-.1.552l-.586,3.834L3.5,116.566q-.538,3.782-1.032,7.58c-.656,5.069-1.254,10.159-1.733,15.365-.236,2.607-.445,5.241-.586,7.971-.069,1.37-.122,2.761-.142,4.219s-.013,2.974.1,4.735" transform="translate(0 27.748)" fill="#171612"/>
            <path id="Trazado_131044" data-name="Trazado 131044" d="M.512,146.787l.07.321.064.279.035.14.044.169c.06.23.126.458.194.685l.106.344.15.438c.105.291.217.58.333.864a13.2,13.2,0,0,0,1.238,2.3,13.579,13.579,0,0,0,2.8,3.022,14.306,14.306,0,0,0,2.31,1.5,16.256,16.256,0,0,0,3.161,1.235c.508.14.96.246,1.378.33-.7-6.654-7.309-10.056-11.878-11.627" transform="translate(0.144 41.636)" fill="#5a554d"/>
            <path id="Trazado_131045" data-name="Trazado 131045" d="M66.7,138.054c-1.05-2.078-.875-4.138-.728-6.314,1.241-1.128,2.367-2.073,2.906-2.612a43.45,43.45,0,0,1,7.178-5.113c2.935-1.8,4.9-1.881,7.561-2.307s6.96.728,5.814,2.182c-1.119,1.421-4.8.257-7.525,1.571a24.637,24.637,0,0,0-4.17,2.453,14.709,14.709,0,0,1,8.716-.5c4.56.929,5.6,3.435,4.313,3.828s-2.555.561-5.8-.187a13.069,13.069,0,0,0-6.912.795c1.974-.409,8.985.01,10.867,1.869s.095,3.167-2.283,2.535-8.552.275-8.552.275a42.544,42.544,0,0,1,5.795,1.009c.369.1,3.185,1.325.579,2.47-1.765.775-6.2.359-9.844.865a13.213,13.213,0,0,0-3.85,1.339,10.173,10.173,0,0,1-4.063-4.156" transform="translate(18.555 34.497)" fill="#b1614f"/>
            <path id="Trazado_131046" data-name="Trazado 131046" d="M65.988,131.026c.959-1.83,2.552-4.625,3.73-5.44,1.8-1.244,3.847-4.077,4.781-2.94s-1.683,4.553-1.683,4.553l-6.9,4.942c.023-.368.05-.741.073-1.115" transform="translate(18.571 34.714)" fill="#b1614f"/>
            <path id="Trazado_131047" data-name="Trazado 131047" d="M73.142,138.087a21.411,21.411,0,0,1,5.533,7.212c.251.561-.577,1.051-.831.487a20.827,20.827,0,0,0-5.382-7.018c-.46-.416.22-1.095.679-.68" transform="translate(20.373 39.132)" fill="#5a554d"/>
            <path id="Trazado_131048" data-name="Trazado 131048" d="M51.386,152.219a181.015,181.015,0,0,0-28.667-11.448.482.482,0,0,1,.256-.928,182.5,182.5,0,0,1,28.9,11.544c.554.279.068,1.109-.485.832" transform="translate(6.306 39.66)" fill="#5a554d"/>
            <path id="Trazado_131049" data-name="Trazado 131049" d="M19.174,142.73a13.088,13.088,0,0,0-5.035,4.9.481.481,0,0,1-.829-.486A14.042,14.042,0,0,1,18.69,141.9c.542-.3,1.028.533.484.832" transform="translate(3.73 40.231)" fill="#5a554d"/>
            <path id="Trazado_131050" data-name="Trazado 131050" d="M67.769,138.19a134.813,134.813,0,0,0-15.357-4.545c-.6-.14-.347-1.068.256-.928a134.878,134.878,0,0,1,15.355,4.545c.578.209.328,1.14-.255.928" transform="translate(14.67 37.641)" fill="#5a554d"/>
            <path id="Trazado_131051" data-name="Trazado 131051" d="M41.258,134.6a7.244,7.244,0,0,1-7.6,6.556,17.733,17.733,0,0,0-5.993.65c-4.087,1.422-8.521,4.24-10.788,4.373-3.345.2-1.046-2.6-.713-2.9a50.084,50.084,0,0,1,5.54-4.167s-6.964,2.363-9.12,4.3-4.731,1.525-3.75-1.435,8.111-7.161,10.4-7.79c0,0-4.671.347-7.676,2.874s-4.419,3.029-5.984,3.309-1.81-2.908,2.476-6.327a17.312,17.312,0,0,1,9.411-4.151,28.924,28.924,0,0,0-5.686-.338c-3.558.082-6.8,3.28-8.734,2.389-1.979-.91,1.916-4.43,4.931-5.408s5.126-1.946,9.166-1.635A51.025,51.025,0,0,1,27.4,126.406c2.374.768,11.174,2.384,13.249,5.326a4.452,4.452,0,0,1,.609,2.865" transform="translate(0.705 35.41)" fill="#b1614f"/>
            <path id="Trazado_131052" data-name="Trazado 131052" d="M29.875,128.968s-6.033-4.658-8.584-5-6.215-2.213-6.587-.52,4.2,3.874,4.2,3.874Z" transform="translate(4.137 34.818)" fill="#b1614f"/>
          </g>
        </g>
      </g>
    </g>
  </g>
</svg>
