<svg xmlns="http://www.w3.org/2000/svg" xmlns:xlink="http://www.w3.org/1999/xlink" width="240.048" height="255.472" viewBox="0 0 240.048 255.472">
  <defs>
    <clipPath id="clip-path">
      <rect id="Rect치ngulo_37502" data-name="Rect치ngulo 37502" width="185.913" height="185.886" fill="none"/>
    </clipPath>
  </defs>
  <g id="Grupo_87862" data-name="Grupo 87862" transform="translate(-0.048 -33)">
    <g id="Grupo_87689" data-name="Grupo 87689" transform="translate(0.048 33)">
      <g id="Grupo_87397" data-name="Grupo 87397">
        <path id="Rect치ngulo_34437" data-name="Rect치ngulo 34437" d="M0,0H163.048a77,77,0,0,1,77,77V255.472a0,0,0,0,1,0,0H0a0,0,0,0,1,0,0V0A0,0,0,0,1,0,0Z" fill="#ffdfe0"/>
      </g>
    </g>
    <g id="Grupo_157879" data-name="Grupo 157879" transform="translate(9.048 50)">
      <g id="Grupo_157879-2" data-name="Grupo 157879" transform="translate(17.763 17.761)" clip-path="url(#clip-path)">
        <path id="Trazado_130090" data-name="Trazado 130090" d="M47.539,378.386l-30.828-.026a2.926,2.926,0,0,1-2.024.547c-2.978,0-5.956.059-8.932-.029-.843-.011-1.688,0-2.532-.029-1.6-.048-2.8-.635-3.222-2.32v-2.9c.635-4.362,3.381-6.742,7.434-7.855a3.469,3.469,0,0,1,3.135.214q21.476,0,42.953,0a9.569,9.569,0,0,1,9.7,8.259c.374,3.032-.464,4-3.5,4.056-.3.005-.6.028-.9.043a1.634,1.634,0,0,1-.956.469,71.814,71.814,0,0,1-9.526-.032,1.663,1.663,0,0,1-.8-.4" transform="translate(0 -232.396)" fill="#f99701"/>
        <path id="Trazado_130091" data-name="Trazado 130091" d="M10.569,281.824C5.06,281.625,1.776,284.5,0,289.466V238.273c1.306-3.027,3.25-5.188,6.868-5.131a6.5,6.5,0,0,1,6.535,6.586c-.131,4.282-.522,8.558-.834,12.833-.545,7.468-1.149,14.931-1.656,22.4a37.271,37.271,0,0,0-.345,6.862" transform="translate(0 -148.238)" fill="#faa515"/>
        <path id="Trazado_130092" data-name="Trazado 130092" d="M353.929,399.728c-1.112,5.538-2.2,11.082-3.343,16.614-1.4,6.769-2.9,13.518-4.237,20.3a7.06,7.06,0,0,1-1.518,2.985h-4.357c-2.411-1.862-1.068-4.361-.942-6.538.246-4.255.859-8.489,1.3-12.733.59-5.68,1.176-11.361,1.726-17.045.116-1.2.066-2.412.092-3.619a1.2,1.2,0,0,1,.773-.436,61.313,61.313,0,0,1,9.752.013,1.123,1.123,0,0,1,.754.46" transform="translate(-215.576 -253.74)" fill="#fcd7a2"/>
        <path id="Trazado_130093" data-name="Trazado 130093" d="M474.021,439.606a4.139,4.139,0,0,1-1.758-3.02q-3.7-17.927-7.389-35.857c-.073-.353-.2-.694-.3-1.042,1.7-.87,9.6-.866,11.281.006.387,4.243.746,8.488,1.169,12.727.417,4.177.917,8.346,1.346,12.522.391,3.819.714,7.646,1.111,11.465a2.972,2.972,0,0,1-1.462,3.2Z" transform="translate(-295.388 -253.721)" fill="#fcd7a2"/>
        <path id="Trazado_130094" data-name="Trazado 130094" d="M7.607,400.824l11.28-.009q-2.73,12.97-5.461,25.94c-.808,3.823-1.69,7.632-2.437,11.467a3.833,3.833,0,0,1-1.552,2.515H5.444c-1.855-.8-2.2-1.334-1.951-3.882.386-4.02.809-8.038,1.206-12.058.67-6.779,1.382-13.554,2.03-20.335a6.919,6.919,0,0,1,.878-3.638" transform="translate(-2.177 -254.851)" fill="#fcd7a2"/>
        <path id="Trazado_130095" data-name="Trazado 130095" d="M130.542,400.815l11.28-.041c-.046,4.886.861,9.694,1.2,14.55.307,4.37.9,8.719,1.332,13.08.285,2.87.34,5.774.829,8.606a3.913,3.913,0,0,1-1.185,3.7h-4.357c-2.075-2.043-1.879-4.89-2.434-7.4-2.311-10.445-4.408-20.938-6.575-31.415a8.655,8.655,0,0,1-.092-1.082" transform="translate(-83.003 -254.825)" fill="#fcd7a2"/>
        <path id="Trazado_130096" data-name="Trazado 130096" d="M240.06,508.4l0,.365H199.4c0-.122,0-.243,0-.365a3.08,3.08,0,0,1,2.393-.581q17.936-.025,35.873,0a3.082,3.082,0,0,1,2.393.581" transform="translate(-126.784 -322.881)" fill="#edb285"/>
        <path id="Trazado_130097" data-name="Trazado 130097" d="M3.111,45.006Q7.354,35.019,11.6,25.032c.472-1.111.882-2.256,1.444-3.32a26.664,26.664,0,0,0,3.244-14.6C16,2.826,19.1.008,23.452.008q71.506-.015,143.012,0c3.687,0,6.2,2.008,6.9,5.392.342,2.646.059,5.305.161,7.956a1.086,1.086,0,0,1-1.034,1.231,11.464,11.464,0,0,1-2.171.117q-9.621.006-19.242,0c-2.96,0-2.9-.008-2.2,2.777,2.059,8.157,4.535,16.2,6.844,24.281.05.174.1.348.151.523.746,2.748.386,3.263-2.44,3.271q-12.706.032-25.413,0a5.706,5.706,0,0,1-1.975-.22,1.459,1.459,0,0,1-.545-.39,4.427,4.427,0,0,1-.684-2.222c-.955-6.518-1.84-13.045-2.816-19.56-.34-2.269-.9-4.5-1.205-6.778a1.713,1.713,0,0,0-1.936-1.681c-7.192,0-14.384.018-21.576-.007-1.672-.006-1.808.978-1.807,2.246q.011,12.511,0,25.021a7.137,7.137,0,0,1-.284,2.867,1.132,1.132,0,0,1-.5.477,6.32,6.32,0,0,1-2.495.279q-12.552.011-25.1,0a5.4,5.4,0,0,1-2.481-.327c-.137-.111-.3-.2-.358-.387-1.8,1.284-3.85.653-5.779.675-7.17.08-14.342.05-21.514.013-1.086-.005-2.327.365-3.154-.783-.14.157-.231.357-.424.471a5.7,5.7,0,0,1-2.672.343q-12.331.013-24.661,0c-1.007,0-2.078.19-2.941-.587" transform="translate(-1.978 0)" fill="#f92b3c"/>
        <path id="Trazado_130098" data-name="Trazado 130098" d="M338.934,54.442h27.58c2.756,0,2.727.008,1.97-2.612q-3.054-10.575-6.06-21.164c-.493-1.732-.813-3.521-1.41-5.215-.534-1.515-.133-1.9,1.4-1.892,7.318.053,14.637-.02,21.955.058,1.606.017,2.27-.332,2.151-2.079-.151-2.226-.018-4.472-.007-6.709.678,2.371.2,4.792.284,7.188a9.288,9.288,0,0,0,.73,3.491q5.916,13.6,11.741,27.236c.235.547.412,1.12.616,1.68-.8.741-1.808.589-2.759.591-7.557.016-15.114-.007-22.672.013-5.456.015-4.742-.461-4.806,4.711-.012,1.028.021,2.056-.018,3.083a2.566,2.566,0,0,1-.509,1.873,15.251,15.251,0,0,1-30.227-.386,1.989,1.989,0,0,1-.512-1.5c-.061-2.293-.068-4.587,0-6.88a1.943,1.943,0,0,1,.546-1.487" transform="translate(-215.125 -9.429)" fill="#f94954"/>
        <path id="Trazado_130099" data-name="Trazado 130099" d="M159.461,311.563l-41.544-.044c-3.18,0-4.1-.919-4.111-4.089,0-1.814-.008-3.629,0-5.443.015-2.9,1.021-3.9,3.958-3.9q30.751,0,61.5,0,16.781,0,33.563,0c2.942,0,3.958,1,3.974,3.883.01,1.935.014,3.87,0,5.805-.021,2.682-1.071,3.736-3.745,3.737q-20.319.009-40.639,0c-.423,0-.846.028-1.268.043a2.461,2.461,0,0,1-1.513.507q-4.331.089-8.662,0a2.459,2.459,0,0,1-1.513-.507" transform="translate(-72.358 -189.534)" fill="#e79758"/>
        <path id="Trazado_130100" data-name="Trazado 130100" d="M233.512,335.091H245.2c-.005,6.646-.164,13.3.034,19.936a109.645,109.645,0,0,0,1.846,15.382,62.586,62.586,0,0,1,1,9.317c.066,3.012.238,6.021.363,9.032a2.722,2.722,0,0,1-2.2.6q-6.89.039-13.781,0a2.722,2.722,0,0,1-2.2-.6,193.84,193.84,0,0,1,2.465-25.838c1.469-9.2.751-18.543.783-27.829" transform="translate(-146.409 -213.062)" fill="#fcd7a2"/>
        <path id="Trazado_130101" data-name="Trazado 130101" d="M394.249,378.375l-11.281-.006-30.828.022-11.279-.038c-4.453-.181-5.509-1.789-3.956-6.026a9.641,9.641,0,0,1,9.243-6.335q21.485-.031,42.97,0a3.456,3.456,0,0,1,3.121-.216c3.911,1.051,6.6,3.341,7.383,7.488.247,4.776.247,4.776-5.371,5.113" transform="translate(-213.787 -232.402)" fill="#f99701"/>
        <path id="Trazado_130102" data-name="Trazado 130102" d="M285.011,122.569q-.019,4.934-.038,9.868c-.715,1.075-.7,2.385-1.165,3.551-2.645,6.638-8.651,10.332-16.062,9.809-6.126-.432-11.708-5.455-13.245-11.89-.074-.311.312-1.176-.659-.74-.121-.132-.316-.239-.314-.428.051-3.185-.109-6.376.254-9.551a1.277,1.277,0,0,1,.373-.612h0a3.269,3.269,0,0,1,2.4-.591q13.029-.02,26.057,0a3.36,3.36,0,0,1,2.4.584Z" transform="translate(-161.202 -77.556)" fill="#fb8085"/>
        <path id="Trazado_130103" data-name="Trazado 130103" d="M85.685,123.093c.637-.634,1.29.031,1.932.025q13.507-.1,27.015-.006c.649,0,1.308-.585,1.952-.016a2.487,2.487,0,0,1,.546,1.684c.041,2.17.05,4.341-.005,6.511a2.06,2.06,0,0,1-.582,1.653c-.93,2.906-1.739,5.84-3.9,8.195-4.286,4.679-9.579,6.315-15.588,4.7-5.955-1.6-9.655-5.695-10.985-11.8-.088-.4-.008-.857-.382-1.165a1.94,1.94,0,0,1-.527-1.478q-.1-3.4,0-6.811a2.3,2.3,0,0,1,.522-1.493" transform="translate(-54.12 -78.092)" fill="#fb8085"/>
        <path id="Trazado_130104" data-name="Trazado 130104" d="M422.756,133.812c-.013-2.778.041-5.558-.066-8.332-.059-1.542.538-1.954,2.01-1.948,9.606.045,19.212.014,28.819.008.025,3.793.507,7.618-.3,11.366a15.278,15.278,0,0,1-29.79.078c-.107-.471-.1-.98-.67-1.173" transform="translate(-268.757 -78.546)" fill="#fb8085"/>
        <path id="Trazado_130105" data-name="Trazado 130105" d="M171.412,133.429q.021-4.924.042-9.848l30.49.015a87.876,87.876,0,0,1-.314,10.591,15.129,15.129,0,0,1-13.686,12.644c-7.739.412-14.283-4.16-16.117-11.275-.18-.7-.278-1.418-.414-2.128" transform="translate(-108.989 -78.577)" fill="#f94954"/>
        <path id="Trazado_130106" data-name="Trazado 130106" d="M33.367,123.572q0,4.891.007,9.782a15.363,15.363,0,0,1-4.674,9.287c-4.835,4.388-10.433,5.517-16.427,3.03-5.918-2.456-9.118-7.134-9.393-13.6-.119-2.825.029-5.662.055-8.493l30.432,0" transform="translate(-1.801 -78.571)" fill="#f94954"/>
        <path id="Trazado_130107" data-name="Trazado 130107" d="M486.972,288.681c-1.057-1.5-1.456-3.376-2.929-4.654a10.3,10.3,0,0,0-7.574-2.618c.116-4.726-.558-9.406-.851-14.108-.465-7.482-1.1-14.954-1.655-22.43-.139-1.869-.338-3.739-.351-5.61A6.7,6.7,0,0,1,487,238.946c.043,16.578-.011,33.156-.029,49.735" transform="translate(-301.138 -147.821)" fill="#faa515"/>
        <path id="Trazado_130108" data-name="Trazado 130108" d="M209.513,482.459H227.7c1.736.145,3.484-.154,5.22.318a8.971,8.971,0,0,1,6.636,7.745,1.657,1.657,0,0,1-.619,1.762H198.276c-.728-.484-.694-1.209-.6-1.941a8.921,8.921,0,0,1,8.935-7.86l2.9-.024" transform="translate(-125.658 -306.763)" fill="#e79758"/>
        <path id="Trazado_130109" data-name="Trazado 130109" d="M286.045,69.663l-30.856.008c0-9.68.022-19.36-.034-29.04-.008-1.4.346-1.874,1.818-1.86q11.342.108,22.687,0c1.266-.012,1.712.483,1.884,1.575.772,4.914,1.574,9.823,2.33,14.739.746,4.857,1.449,9.72,2.172,14.58" transform="translate(-162.236 -24.65)" fill="#f94954"/>
      </g>
    </g>
  </g>
</svg>
