<svg id="Grupo_157434" data-name="Grupo 157434" xmlns="http://www.w3.org/2000/svg" xmlns:xlink="http://www.w3.org/1999/xlink" width="90.97" height="151.587" viewBox="0 0 90.97 151.587">
  <defs>
    <clipPath id="clip-path">
      <rect id="Rectángulo_37298" data-name="Rectángulo 37298" width="90.97" height="151.587" fill="none"/>
    </clipPath>
  </defs>
  <g id="Grupo_157430" data-name="Grupo 157430" clip-path="url(#clip-path)">
    <path id="Trazado_128087" data-name="Trazado 128087" d="M62.89,171.18l.432-.924c-1.949-2.017-3.909-4.024-5.77-6.115-3.68-4.13-7.576-8.518-11.063-13.069-2.7,4.3-5.664,9.545-8.875,15.577-.64,1.2-1.358,2.728-2.141,4.532Z" transform="translate(-4.601 -19.592)" fill="#eb8e71"/>
    <path id="Trazado_128088" data-name="Trazado 128088" d="M88.873,173.022c-1.456-2.959-2.746-5.372-3.815-7.082-.14-.225-.278-.442-.417-.663-3.352,2.1-6.659,4.271-9.819,6.647-.484.364-.964.732-1.446,1.1Z" transform="translate(-9.516 -21.435)" fill="#fa9778"/>
    <path id="Trazado_128089" data-name="Trazado 128089" d="M87.178,170.324l-9.734-25.851-32.716,3.566c-3.669,7.831-6.952,15.3-9.876,22.285Z" transform="translate(-4.52 -18.737)" fill="#fcc574"/>
    <path id="Trazado_128090" data-name="Trazado 128090" d="M49.968,151.851q-3.439,9.1-6.876,18.193" transform="translate(-5.589 -19.694)" fill="none" stroke="#450d20" stroke-miterlimit="10" stroke-width="0.964"/>
    <path id="Trazado_128091" data-name="Trazado 128091" d="M60.454,151.851,53.69,170" transform="translate(-6.963 -19.694)" fill="none" stroke="#450d20" stroke-miterlimit="10" stroke-width="0.964"/>
    <path id="Trazado_128092" data-name="Trazado 128092" d="M64.817,151.851l7.647,18.1" transform="translate(-8.406 -19.694)" fill="none" stroke="#450d20" stroke-miterlimit="10" stroke-width="0.964"/>
    <path id="Trazado_128093" data-name="Trazado 128093" d="M77.526,149.833c2.473,6.795,5.955,12.887,8,19.875" transform="translate(-10.054 -19.432)" fill="none" stroke="#450d20" stroke-miterlimit="10" stroke-width="0.964"/>
    <path id="Trazado_128094" data-name="Trazado 128094" d="M77.578,89.39A8.276,8.276,0,0,0,72.1,87.449a11.758,11.758,0,0,1-4.591-.848c-2.226-6.155-.723-17.972-.525-19.478.01-.055.015-.1.024-.158l-15.78,9.67a4.269,4.269,0,0,1,.554,1.755V78.4a19.652,19.652,0,0,1-.164,4.946c-.257,1.877-.63,3.547-.791,4.229-1.611,2.108-3.958,2.958-7.334,5.163-5.143,3.359-5.345,12.454-2.976,21.352S48,138.685,48,138.685l27.962-3.006c-1.182-8.107,2.912-20.783,4.7-34.227.893-6.722-.983-10.232-3.084-12.062" transform="translate(-5.066 -8.685)" fill="#fa9778"/>
    <path id="Trazado_128095" data-name="Trazado 128095" d="M53.492,84.255c8.806.778,12.853-9.855,13-10.252A10.345,10.345,0,0,1,60.4,78.725a17.191,17.191,0,0,1-6.694.594c-.018-.005-.037,0-.055-.01a19.647,19.647,0,0,1-.164,4.945" transform="translate(-6.937 -9.597)" fill="#450d20"/>
    <path id="Trazado_128096" data-name="Trazado 128096" d="M4.58,128.25a97.464,97.464,0,0,0,14.405,25.92c.372,2.092,1.362,7.081,2.747,9.817h1.255a11.3,11.3,0,0,0-.533-2.629s.884,1.4,1.811,2.629h1.647c-.519-1.631-1.452-3.78-1.452-3.78a35.584,35.584,0,0,0,3.473,3.78H29a29.775,29.775,0,0,0-2.475-5.027s3.943,4.368,4.29,4.016c.865-.874-4.486-7.147-3.686-7.6.708-.4,2.6.554,3.462,1.194a.394.394,0,0,0,.565-.089c.249-.368.451-1.019-.41-1.748a20.633,20.633,0,0,0-5.66-3.515c-1.346-5.192-4.421-17.115-7.484-29.489,9.778-4.84,18.992-9.269,23.96-11.318A24.91,24.91,0,0,0,47,107.439a6.5,6.5,0,0,0-2.361-11.563,14.754,14.754,0,0,0-8.5.988,195.94,195.94,0,0,0-22.222,9.7c-3,1.564-6.105,3.308-9.233,5.246a7.055,7.055,0,0,0-2.986,8.083c.842,2.735,1.793,5.533,2.873,8.356" transform="translate(-0.18 -12.401)" fill="#fa9778"/>
    <path id="Trazado_128097" data-name="Trazado 128097" d="M100.212,3.008a.277.277,0,0,0-.449-.192c-.374.286-.969,1.09-1.589,3.312,0,0,.017-4.97-.658-5.659s-1.653,5.555-1.653,5.555S95.248.387,94.438.017s-.983,5.955-.983,5.955-.989-5.8-1.47-5.689c-1.2.275-.042,8.438-.959,8.392-.813-.041-1.9-1.859-2.284-2.864a.394.394,0,0,0-.524-.227c-.408.177-.927.619-.591,1.694a20.314,20.314,0,0,0,3.693,7.043C89.412,21.455,77.6,65.451,72.932,78.4a24.775,24.775,0,0,0-1.457,6.029A6.5,6.5,0,0,0,81.62,90.458,14.808,14.808,0,0,0,86.6,83.5c4.468-11.276,16.043-40.617,10.611-69.356.906-2.2,3.284-8.306,3-11.139" transform="translate(-9.266 0)" fill="#fa9778"/>
    <path id="Trazado_128098" data-name="Trazado 128098" d="M88.763,53.089s-.084.47-.244,1.309c-.043.243-.1.512-.16.822-1.317,6.753-5.77,27.9-11.786,38.5A77.691,77.691,0,0,1,71.347,127l-.5.11-29.175,6.6-7.684-24.956-14.965,7.969.528,2.391.185.822.545,2.449L3.717,125.022l-.7-2.425-.235-.814L.3,113.227a7.454,7.454,0,0,1,4.177-8.9L35.914,90.62S56.046,100.787,63.7,84.328L72.4,53.961l.236-.814.386-1.35Z" transform="translate(0 -6.718)" fill="#d13f40"/>
    <path id="Trazado_128099" data-name="Trazado 128099" d="M48.22,144.936l28.73-3.913.16-2.686Z" transform="translate(-6.254 -17.941)" fill="#450d20"/>
    <path id="Trazado_128100" data-name="Trazado 128100" d="M20.154,129.97,3.426,132.629l-.235-.814,16.778-2.667Z" transform="translate(-0.414 -16.749)" fill="#450d20"/>
    <path id="Trazado_128101" data-name="Trazado 128101" d="M99.309,54.6c-.042.243-.1.512-.159.822L83.194,54.162l.235-.814Z" transform="translate(-10.789 -6.919)" fill="#450d20"/>
    <path id="Trazado_128102" data-name="Trazado 128102" d="M54.228,102.087A30.651,30.651,0,0,1,40.5,98.326l.419-.727c.1.055,9.657,5.486,18.255,2.975,4.18-1.219,7.486-4.117,9.826-8.613l.743.387c-2.449,4.708-5.928,7.747-10.338,9.032a18.457,18.457,0,0,1-5.174.707" transform="translate(-5.252 -11.926)" fill="#450d20"/>
    <rect id="Rectángulo_37296" data-name="Rectángulo 37296" width="9.234" height="0.839" transform="translate(51.761 108.266) rotate(-35.123)" fill="#450d20"/>
    <rect id="Rectángulo_37297" data-name="Rectángulo 37297" width="3.783" height="0.839" transform="matrix(0.778, -0.628, 0.628, 0.778, 55.515, 109.123)" fill="#450d20"/>
    <path id="Trazado_128103" data-name="Trazado 128103" d="M84.183,101.179a47.474,47.474,0,0,1,1.276,8.143,56.2,56.2,0,0,1,.015,8.264,47.038,47.038,0,0,1-1.278,8.17,38.993,38.993,0,0,1-2.781,7.762q.3-.987.629-1.959l.32-.973.253-.994.534-1.975.415-2a64.1,64.1,0,0,0,1.07-8.09c.2-2.714.245-5.442.18-8.17-.041-1.364-.108-2.728-.224-4.09-.084-1.366-.239-2.725-.411-4.087" transform="translate(-10.559 -13.122)" fill="#450d20"/>
    <path id="Trazado_128104" data-name="Trazado 128104" d="M6.054,135.326,20.7,136.6l-.951-3.447Z" transform="translate(-0.785 -17.268)" fill="#450d20"/>
    <path id="Trazado_128105" data-name="Trazado 128105" d="M84.62,51.5l14.874-1.983-.449,3.222Z" transform="translate(-10.974 -6.421)" fill="#450d20"/>
    <path id="Trazado_128106" data-name="Trazado 128106" d="M71.834,58.606a2.883,2.883,0,0,0-3.321-1.913,2.511,2.511,0,0,0-.41.187c.017-4.635-.847-9.676-4.167-12.349-7.143-5.755-16.989-3.278-18.891,2.214A43.205,43.205,0,0,0,43.17,60.681c0,2.03.067,4.04.163,5.958.009.2.022.4.029.6a7.889,7.889,0,0,0,.419,2.527c1.211,3.069,5.717,4.822,8.736,5.329a12.639,12.639,0,0,0,10.646-3.124,13.976,13.976,0,0,0,4.315-8.014,6.121,6.121,0,0,0,1.868-.256,4.807,4.807,0,0,0,2.113-1.9,3.819,3.819,0,0,0,.374-3.194" transform="translate(-5.599 -5.349)" fill="#fa9778"/>
    <path id="Trazado_128107" data-name="Trazado 128107" d="M43.333,69.518a3.146,3.146,0,0,0,.792.073,3.076,3.076,0,0,0-.231-6.148,2.916,2.916,0,0,0-.724.117c0,2.03.067,4.039.163,5.957" transform="translate(-5.599 -8.228)" fill="#fa8864"/>
    <path id="Trazado_128108" data-name="Trazado 128108" d="M64.338,65.744a3.078,3.078,0,1,1-3.191-2.96,3.078,3.078,0,0,1,3.191,2.96" transform="translate(-7.546 -8.142)" fill="#fa8864"/>
    <path id="Trazado_128109" data-name="Trazado 128109" d="M45.909,58.586a1.919,1.919,0,0,0,1.06,1.2.329.329,0,1,1-.294.582l-.014-.01a2.106,2.106,0,0,1-.688-.789,2.629,2.629,0,0,1-.274-.943.106.106,0,0,1,.1-.116.1.1,0,0,1,.111.07Z" transform="translate(-5.927 -7.588)" fill="#450d20"/>
    <path id="Trazado_128110" data-name="Trazado 128110" d="M46.751,59.9a4.386,4.386,0,0,0,1.433.237,6.607,6.607,0,0,0,1.447-.215l.019,0a.283.283,0,0,1,.233.5,2.47,2.47,0,0,1-.8.424,2.816,2.816,0,0,1-.919.119,2.456,2.456,0,0,1-1.667-.724.211.211,0,0,1,.216-.346Z" transform="translate(-6.023 -7.766)" fill="#450d20"/>
    <path id="Trazado_128111" data-name="Trazado 128111" d="M59.319,58.586a1.919,1.919,0,0,1-1.06,1.2.329.329,0,0,0,.218.621.315.315,0,0,0,.077-.038l.014-.01a2.106,2.106,0,0,0,.688-.789,2.61,2.61,0,0,0,.273-.943.106.106,0,0,0-.205-.045Z" transform="translate(-7.527 -7.588)" fill="#450d20"/>
    <path id="Trazado_128112" data-name="Trazado 128112" d="M58.424,60.233a2.457,2.457,0,0,1-1.667.725,2.837,2.837,0,0,1-.919-.12,2.461,2.461,0,0,1-.8-.424.283.283,0,0,1,.232-.5l.019,0a6.615,6.615,0,0,0,1.447.215A4.392,4.392,0,0,0,58.17,59.9l.037-.011a.211.211,0,0,1,.217.346" transform="translate(-7.124 -7.766)" fill="#450d20"/>
    <path id="Trazado_128113" data-name="Trazado 128113" d="M49.075,66.218a4.353,4.353,0,0,0,1.4,1.472,3.394,3.394,0,0,0,2.013.586,3.443,3.443,0,0,0,1.953-.757,6.375,6.375,0,0,0,.742-.711c.2-.277.393-.554.566-.839-.267.211-.509.434-.753.651-.273.18-.515.4-.793.551a3.673,3.673,0,0,1-1.737.566,3.6,3.6,0,0,1-1.782-.41,7.679,7.679,0,0,1-1.6-1.108" transform="translate(-6.365 -8.555)" fill="#450d20"/>
    <path id="Trazado_128114" data-name="Trazado 128114" d="M51.971,69.845a1.461,1.461,0,0,0,.947.282,1.528,1.528,0,0,0,.924-.352,4.855,4.855,0,0,1-.933.14,4.038,4.038,0,0,1-.938-.07" transform="translate(-6.74 -9.049)" fill="#450d20"/>
    <path id="Trazado_128115" data-name="Trazado 128115" d="M54.927,52.363a2.112,2.112,0,0,1,1.357-.561,4.24,4.24,0,0,1,1.473.153,3.576,3.576,0,0,1,1.319.691,3.74,3.74,0,0,1,.923,1.1.425.425,0,0,1-.64.544l-.037-.031a5.228,5.228,0,0,0-.9-.664,3.085,3.085,0,0,0-.983-.361,3.758,3.758,0,0,0-1.053-.063,4.018,4.018,0,0,1-1.124-.023l-.113-.023a.445.445,0,0,1-.218-.758" transform="translate(-7.106 -6.717)" fill="#450d20"/>
    <path id="Trazado_128116" data-name="Trazado 128116" d="M49.1,52.571a2.106,2.106,0,0,0-1.4-.457,4.223,4.223,0,0,0-1.459.262,3.6,3.6,0,0,0-1.263.789,3.743,3.743,0,0,0-.838,1.163.426.426,0,0,0,.679.5l.034-.035a5.256,5.256,0,0,1,.851-.73,3.094,3.094,0,0,1,.954-.433,3.7,3.7,0,0,1,1.045-.141,4.05,4.05,0,0,0,1.119-.108l.111-.031a.445.445,0,0,0,.306-.55.437.437,0,0,0-.145-.223" transform="translate(-5.719 -6.759)" fill="#450d20"/>
    <path id="Trazado_128117" data-name="Trazado 128117" d="M52.17,56.607c-.131.691-.222,1.376-.323,2.055s-.205,1.352-.372,2c-.038.161-.082.32-.133.474a1.7,1.7,0,0,0-.132.593,1.185,1.185,0,0,0,.678,1.055,1.438,1.438,0,0,0,1.162.018,2.825,2.825,0,0,0,.9-.584c-.628.264-1.366.479-1.828.157a.7.7,0,0,1-.339-.636,1.3,1.3,0,0,1,.118-.409c.062-.172.116-.346.16-.52a9.647,9.647,0,0,0,.255-2.1,11.105,11.105,0,0,0-.143-2.094" transform="translate(-6.641 -7.341)" fill="#450d20"/>
    <path id="Trazado_128118" data-name="Trazado 128118" d="M74.4,61.028a7.616,7.616,0,0,0-2.059.823A5.931,5.931,0,0,0,70.7,63.22l-.372-.459a6.87,6.87,0,0,1,1.76-.687,2.636,2.636,0,0,1,1.016-.046,1.149,1.149,0,0,1,.879.71,1.726,1.726,0,0,1-.5,1.892,2.511,2.511,0,0,1-1.7.7,2.71,2.71,0,0,0,1.439-.936,1.356,1.356,0,0,0,.26-1.432c-.164-.412-.711-.4-1.259-.279a7.721,7.721,0,0,0-1.607.608L70.6,63.3a.3.3,0,0,1-.4-.128.3.3,0,0,1,.046-.339,5.431,5.431,0,0,1,1.916-1.352,5.564,5.564,0,0,1,2.245-.449" transform="translate(-9.1 -7.915)" fill="#450d20"/>
    <path id="Trazado_128119" data-name="Trazado 128119" d="M64.857,55.76s-1.822,2.587-3.185,2.43-4.681-6.573-2.307-10.171a6.088,6.088,0,0,1-6.62-2.787s-5.124,3.584-8.532,0a4.092,4.092,0,0,1-2.922,2.037,49.826,49.826,0,0,0-1.272,8.506s-.309,9.606.41,12.564c0,0,.416,2.134,3.634,3.843a22.527,22.527,0,0,0,5.01,1.753,26.05,26.05,0,0,1-.96,9.2,14.705,14.705,0,0,1-9.139,5.322l-.709-.33L20.2,96s-6.216-11.448,2.9-14.818c0,0-6.476-12.878,7.435-16.793,0,0-7.558-11.228,6.078-15.261,0,0-2.754-12.041,10.3-13.19,0,0,15.938-11.256,18.617,7.62,0,0,10.473.364,5.7,11.891a3.729,3.729,0,0,1,1.28,3.734L66.051,81.836l-.032.791L64.8,82.153a41.106,41.106,0,0,1-.527-19.485s4.2.083,4.419-3.788A3.221,3.221,0,0,0,67.571,56.2a2.725,2.725,0,0,0-2.715-.436" transform="translate(-2.352 -4.23)" fill="#450d20"/>
  </g>
</svg>
