<svg id="Grupo_157560" data-name="Grupo 157560" xmlns="http://www.w3.org/2000/svg" xmlns:xlink="http://www.w3.org/1999/xlink" width="83.213" height="76.79" viewBox="0 0 83.213 76.79">
  <defs>
    <clipPath id="clip-path">
      <rect id="Rectángulo_37373" data-name="Rectángulo 37373" width="83.213" height="76.79" fill="none"/>
    </clipPath>
  </defs>
  <g id="Grupo_157560-2" data-name="Grupo 157560" clip-path="url(#clip-path)">
    <path id="Trazado_128862" data-name="Trazado 128862" d="M83.213,52.2v1.624a4.314,4.314,0,0,1-4.58,3.793c-1.905.021-1.893.024-2.37,1.874a12.74,12.74,0,0,0,.25,7.109,1.185,1.185,0,0,0,1.341.976,5.345,5.345,0,0,1,4.3,1.493,3.935,3.935,0,0,1,1.058,2.289v1.623A4.394,4.394,0,0,1,78.7,76.785c-.189.006-.379,0-.568,0H7.755a7.66,7.66,0,0,1-5.68-2.163A6.514,6.514,0,0,1,0,69.854Q0,62.59,0,55.326a6.525,6.525,0,0,1,3.176-5.608,1.038,1.038,0,0,0,.51-1.439,4.55,4.55,0,0,1,4.165-6.043c.243-.02.487-.017.73-.019,1.4-.011,1.484-.068,1.868-1.381a12.329,12.329,0,0,0-.058-7.348c-.364-1.146-.4-1.177-1.585-1.182a5.574,5.574,0,0,1-3.534-.969A4.319,4.319,0,0,1,3.506,26.91a4.371,4.371,0,0,1,3.234-3.6A7.626,7.626,0,0,0,8,22.983,17.113,17.113,0,0,1,6.32,21.22,12.875,12.875,0,0,1,6.16,5.069,12.65,12.65,0,0,1,14.9.152,23.017,23.017,0,0,1,17.737,0q19.441,0,38.882,0a6.281,6.281,0,0,1,2.844.522A4.712,4.712,0,0,1,62.09,5.16,4.612,4.612,0,0,1,58.1,9.254c-1.912.274-1.879.28-2.251,2.194A9.954,9.954,0,0,0,56.1,15.7a1.18,1.18,0,0,0,1.291,1.042,4.638,4.638,0,0,1,4.7,4.191,3.4,3.4,0,0,1-.1,1.445c-.139.512.049.683.555.682a22.709,22.709,0,0,1,3.32.137,7.324,7.324,0,0,1,6.38,7.333c.01,4.437-.011,8.874.011,13.311a7.548,7.548,0,0,1-1.041,3.947c-.4.683-.355.751.44.753,2.408.008,4.816.017,7.224,0a4.577,4.577,0,0,1,3.608,1.717,3.775,3.775,0,0,1,.725,1.937" transform="translate(0)"/>
    <path id="Trazado_128863" data-name="Trazado 128863" d="M40.132,138.165c.59.545,1.172,1.1,1.772,1.632s1.226,1.013,2.089.642.962-1.143.964-1.953a2.53,2.53,0,0,1,.041-.318,1.476,1.476,0,0,1,1.075-.264q18.573-.007,37.147,0c1.087,0,1.166.092,1.1.966a16,16,0,0,0,.785,5.59c.144.445.1.657-.422.581a2.214,2.214,0,0,0-.324,0q-31.7,0-63.4-.008c-.325,0-.7.162-.973-.184-.148-2.074-.027-4.149-.064-6.224-.006-.363.229-.525.53-.623a3.346,3.346,0,0,1,1.044-.1q4.7,0,9.393,0c1.288,0,1.288.008,1.42,1.234.458,1.529,1.589,1.882,2.811.85.7-.591,1.358-1.231,2.035-1.849a4.138,4.138,0,0,1,2.984.023" transform="translate(-11.145 -77.203)" fill="#f8f6f7"/>
    <path id="Trazado_128864" data-name="Trazado 128864" d="M9.718,139.053a4.505,4.505,0,0,1-4.006-4.375q-.062-6.975,0-13.951a4.5,4.5,0,0,1,4.389-4.449c4.569-.079,9.139-.031,13.708-.051.433,0,.558.152.544.566-.026.81-.044,1.624.005,2.432.038.615-.117.824-.785.817-3.623-.037-7.246-.019-10.87-.016-2.16,0-3.232,1.074-3.234,3.238q-.007,4.461,0,8.922a2.881,2.881,0,0,0,2.243,3.145,3.182,3.182,0,0,0,.966.048q26,0,52.006,0c.216,0,.433.012.649,0,.519-.033.631.248.472.658a13.713,13.713,0,0,1-1.515,2.767.706.706,0,0,1-.631.305c-.216-.006-.433,0-.649,0q-26.206,0-52.411,0a2.3,2.3,0,0,1-.882-.057" transform="translate(-3.181 -65.082)" fill="#fedf7c"/>
    <path id="Trazado_128865" data-name="Trazado 128865" d="M42.4,10.186a1.342,1.342,0,0,0-.873,1.178,5.283,5.283,0,0,1-3.507,0,1.369,1.369,0,0,0-1.541-1.214c-4.135.018-8.27-.026-12.4.023a6.31,6.31,0,0,0-6.3,5.7,6.412,6.412,0,0,0,4.529,6.766,7.91,7.91,0,0,0,1.751.289,2.858,2.858,0,0,0,.885.047q12.755,0,25.509,0c1.039,0,1.12.072.783,1.037A5.638,5.638,0,0,1,49.864,26.8c-.161.015-.321.042-.482.042-8.379,0-16.758.03-25.137-.009a10.231,10.231,0,0,1-10.174-8c-1.439-6,3.178-12.35,9.105-12.519a2.265,2.265,0,0,1,.8-.053c8.617,0,17.235.009,25.852-.021a1.222,1.222,0,0,1,1.4,1c.183.649.413,1.287.558,1.946.169.774,0,.962-.8.964-2.566,0-5.133,0-7.7,0a3.239,3.239,0,0,0-.887.042" transform="translate(-7.731 -3.49)" fill="#fedf7c"/>
    <path id="Trazado_128866" data-name="Trazado 128866" d="M77.989,85.385c-.378.012-.755.035-1.133.036q-12.62,0-25.24.017c-.636,0-.837-.154-.791-.793a15.747,15.747,0,0,0,0-2.432c-.06-.714.217-.834.865-.823,2.353.039,4.707.016,7.06.014a4.993,4.993,0,0,0,.808-.038,1.11,1.11,0,0,0,1-1.187,1.093,1.093,0,0,0-.947-1.148,5.252,5.252,0,0,0-.968-.058q-13.432,0-26.863.012c-.792,0-1.373-.038-1.286-1.046a3.919,3.919,0,0,0-.092-.8c.018-.384.33-.378.583-.418a6.522,6.522,0,0,1,1.053-.032H75.381c2.382,0,2.87.482,2.873,2.834,0,1.569.005,3.139,0,4.708a1.578,1.578,0,0,1-.262,1.157" transform="translate(-17.022 -42.937)" fill="#f8f6f7"/>
    <path id="Trazado_128867" data-name="Trazado 128867" d="M43.478,77.827c.24-.275.557-.125.831-.125q13.88-.011,27.76,0c2.346,0,3.357-1.013,3.358-3.358q0-4.424,0-8.847a2.8,2.8,0,0,0-3.107-3.112q-26.989,0-53.977,0a2.175,2.175,0,0,1-1.191-.126c.435-.4.973-.266,1.472-.266q15.417-.013,30.834-.006H62.439c.271,0,.541,0,.811-.012.416-.016.6-.2.48-.624-.015-.052-.029-.1-.043-.157-.535-2.129-.7-2.254-2.905-2.254q-20.975,0-41.95-.007c-.523,0-1.093.149-1.546-.279a1.643,1.643,0,0,1,.875-.092c18.618,0,37.236.026,55.853-.017a4.954,4.954,0,0,1,5.208,5.213q-.174,6.287,0,12.581a4.919,4.919,0,0,1-5.147,5.186c-9.958-.052-19.917-.014-29.875-.016-.232,0-.488.092-.7-.1.384-.359.866-.254,1.313-.255,5.273-.008,10.546-.035,15.818.019a1.957,1.957,0,0,0,2.1-1.337c.768-1.764.812-1.748-1.063-1.748q-8.436,0-16.872,0a1.761,1.761,0,0,1-1.316-.258" transform="translate(-9.603 -32.781)" fill="#7edaad"/>
    <path id="Trazado_128868" data-name="Trazado 128868" d="M69.147,27.877a14.612,14.612,0,0,0,.638,4.453c-.213.175-.434.1-.637.1q-18.163.006-36.326,0a3.827,3.827,0,0,1-3.948-2.6,1.015,1.015,0,0,1,.473-1.183,4.557,4.557,0,0,1,2.926-1.033c1.813-.008,3.626,0,5.439,0q14.976,0,29.952,0a2.115,2.115,0,0,1,1.483.256" transform="translate(-16.136 -15.458)" fill="#f8f6f7"/>
    <path id="Trazado_128869" data-name="Trazado 128869" d="M15.427,58.791c.351.01.7.028,1.053.028q21.827,0,43.654-.019c.771,0,1.189.222,1.412.929s.451,1.385.715,2.063c.168.432.069.613-.4.595-.216-.009-.433,0-.649,0H15.858c-.189,0-.378.007-.567.011a1.829,1.829,0,0,1,.136-3.605" transform="translate(-7.744 -32.92)" fill="#a6e8a5"/>
    <path id="Trazado_128870" data-name="Trazado 128870" d="M116.167,132.737c.062-.734-.416-.708-.938-.708q-19.19.01-38.38,0c-.015-.89.011-1.783-.055-2.668-.053-.7.121-.943.9-.937,5.268.04,10.537.011,15.805.031a1.48,1.48,0,0,0,1.655-1.094c0-.347.269-.384.5-.4a16.941,16.941,0,0,1,2.51,0c.238.018.5.072.506.406a1.466,1.466,0,0,0,1.659,1.087c5.275-.019,10.551-.01,15.826-.009h.977a22.265,22.265,0,0,0-.96,4.289" transform="translate(-42.996 -71.067)" fill="#dcd9eb"/>
    <path id="Trazado_128871" data-name="Trazado 128871" d="M68.887,22.438q-18.454,0-36.908,0a4.431,4.431,0,0,0-2.764.973c-.315.242-.647.511-.6.991a3.867,3.867,0,0,1,2.959-5.208,8.259,8.259,0,0,1,1.213-.064q5.842-.007,11.683-.005c1.112,0,1.371-.2,1.7-1.227h3.507c.255,1.019.541,1.226,1.754,1.227,5.747,0,11.495.016,17.242-.016.769,0,.882.157.663.877a20.42,20.42,0,0,0-.449,2.457" transform="translate(-15.877 -10.019)" fill="#dedbec"/>
    <path id="Trazado_128872" data-name="Trazado 128872" d="M77.183,83.189q0-3.247,0-6.493c0-1.437-.513-1.942-1.951-1.942q-22.322,0-44.645.006c-.334,0-.711-.139-.994.181l-.633-2.165H29.8q24.381,0,48.762-.017c.8,0,1.074.178,1.058,1.025-.054,2.865-.035,5.733-.009,8.6.006.616-.141.918-.814.851-.536-.053-1.079-.033-1.618-.045" transform="translate(-16.216 -40.741)" fill="#dcd9eb"/>
    <path id="Trazado_128873" data-name="Trazado 128873" d="M98.667,121.379c-.261-.349-.643-.22-.96-.192-.851.077-1.734-.246-2.556.187-.213-1.1-.5-1.351-1.63-1.351-5.3,0-10.6-.016-15.9.016-.694,0-.881-.187-.828-.853a15.247,15.247,0,0,0,0-2.268c-.041-.6.192-.7.734-.7,6.245.018,12.49.006,18.736.014,3.27,0,6.539.032,9.809.048a8.3,8.3,0,0,1,1.069,3.1c.106.5-.2.576-.616.574-1.938-.012-3.877-.007-5.815,0a2.5,2.5,0,0,0-.8.045,1.308,1.308,0,0,0-1.247,1.382" transform="translate(-42.997 -65.076)" fill="#fedf7c"/>
    <path id="Trazado_128874" data-name="Trazado 128874" d="M59.159,106.559c-1.756-1.428-1.755-1.427-3.422.178-.642.618-1.293,1.226-1.929,1.829-.218-.043-.17-.2-.171-.321q0-10.172,0-20.344a2.355,2.355,0,0,1,.066-.393c1.72-.176,3.445-.03,5.167-.077.351-.01.463.22.521.5a4.787,4.787,0,0,1,.052.969q0,8.137,0,16.273c0,.472.111.983-.277,1.384" transform="translate(-30.032 -48.949)" fill="#ea5468"/>
    <path id="Trazado_128875" data-name="Trazado 128875" d="M14.856,163.364c.324-.008.649-.021.973-.021q26.138,0,52.276.021a1.427,1.427,0,0,0,1.49-.931c.323-.682.691-1.344,1.073-2,.332-.569.116-.708-.442-.659-.187.017-.378,0-.568,0q-25.894,0-51.789-.006c-.339,0-.706.117-1.017-.131.756,0,1.513.014,2.271.014q33.593,0,67.187.01a7,7,0,0,1,1.29.084,1.84,1.84,0,0,1,1.5,1.775,1.9,1.9,0,0,1-1.326,1.839,3.233,3.233,0,0,1-1.042.114q-35.419,0-70.839,0a1.923,1.923,0,0,1-1.031-.116" transform="translate(-8.319 -89.393)" fill="#fecf64"/>
    <path id="Trazado_128876" data-name="Trazado 128876" d="M76.882,102.365l19.381.009c.973,0,.966,0,.59.929-.355.876-.573,1.964-1.284,2.478-.691.5-1.778.145-2.69.148-5.325.018-10.65.015-15.975.019a18.439,18.439,0,0,1-.023-3.584" transform="translate(-43.007 -57.319)" fill="#a6e7a5"/>
    <path id="Trazado_128877" data-name="Trazado 128877" d="M54.328,10.126c.258-.224.57-.126.857-.127,2.542-.007,5.084,0,7.626-.006.826,0,.883-.089.639-.9-.2-.671-.441-1.332-.6-2.014-.148-.651-.493-.819-1.145-.818q-12.817.034-25.635.014c-.324,0-.648-.017-.972-.026a2.143,2.143,0,0,1,1.036-.111q20.293,0,40.585,0c1.557,0,2.53.926,2.353,2.215a1.9,1.9,0,0,1-1.619,1.68,7.4,7.4,0,0,1-1.131.063q-11,.019-22,.031" transform="translate(-19.654 -3.43)" fill="#fdcf63"/>
    <path id="Trazado_128878" data-name="Trazado 128878" d="M62.906,48a30.347,30.347,0,0,0,1.251-3.151c.147-.446.091-.609-.431-.6-2.08.026-4.16.011-6.24.011q-9.725,0-19.449-.005c-.313,0-.651.108-.938-.122.27-.009.54-.026.81-.026l39.777,0a3.357,3.357,0,0,1,1.28.151,1.957,1.957,0,0,1,1.225,2.07,1.9,1.9,0,0,1-1.705,1.684,8.954,8.954,0,0,1-.973.031q-6.9,0-13.8,0c-.269,0-.538-.028-.807-.042" transform="translate(-20.774 -24.698)" fill="#fecf64"/>
    <path id="Trazado_128879" data-name="Trazado 128879" d="M129.341,120.007a2.688,2.688,0,0,1,1.42-.118c1.614-.021,3.231-.057,4.842.012.828.036.848-.257.677-.914a21.023,21.023,0,0,1-.777-2.7c1.593-.017,3.186-.044,4.779-.048,3.6-.007,7.19-.015,10.786.006a1.887,1.887,0,0,1,1.965,2.625,1.845,1.845,0,0,1-1.8,1.152q-10.947,0-21.893-.019" transform="translate(-72.424 -65.086)" fill="#fecf64"/>
    <path id="Trazado_128880" data-name="Trazado 128880" d="M22.114,102.064c2.056,0,4.112.016,6.167-.012.5-.007.66.143.639.641-.037.864-.026,1.731,0,2.6.011.4-.09.583-.534.581-4.193-.013-8.386.007-12.578-.019a1.86,1.86,0,0,1-1.973-1.916,1.9,1.9,0,0,1,2.032-1.866c2.083-.021,4.166-.006,6.249-.006" transform="translate(-7.745 -57.144)" fill="#a6e8a5"/>
    <path id="Trazado_128881" data-name="Trazado 128881" d="M59.246,106.495q.008-9.187.026-18.374c0-.547-.2-.687-.708-.679-1.592.023-3.184,0-4.776,0a5.681,5.681,0,0,1,1.988-.1c1.675-.025,3.35.01,5.024-.01.5-.006.718.1.716.666q-.03,10.089-.019,20.178c0,.1-.014.2-.037.51l-2.215-2.19" transform="translate(-30.119 -48.886)" fill="#e3384e"/>
    <path id="Trazado_128882" data-name="Trazado 128882" d="M32.222,134.931c-.035-.931-.6-1-1.384-.988-3.268.044-6.538.017-9.807.019-1.065,0-1.1.043-1.105,1.087q-.011,2.8-.026,5.59c-.213-.2-.117-.459-.117-.689,0-2.894.024-5.788-.009-8.681-.008-.72.224-.917.929-.91q5.395.048,10.791,0c.615-.006.777.157.752.761-.052,1.269-.021,2.541-.023,3.811" transform="translate(-11.065 -72.994)" fill="#dcd9eb"/>
    <path id="Trazado_128883" data-name="Trazado 128883" d="M28.945,91.426a16.873,16.873,0,0,0,.809-3.612c.026-.323.168-.408.459-.407q3.359.007,6.719,0c.366,0,.45.161.445.492-.015,1.025-.01,2.05,0,3.076,0,.278-.034.459-.382.459-2.664-.008-5.329,0-8.048,0" transform="translate(-16.208 -48.942)" fill="#f8f6f7"/>
    <path id="Trazado_128884" data-name="Trazado 128884" d="M62.077,136.922l-2.984-.023a.24.24,0,0,1,.032-.073c1.461-1.577,1.461-1.577,2.951.1" transform="translate(-33.089 -75.96)" fill="#d9d6e8"/>
  </g>
</svg>
