<svg xmlns="http://www.w3.org/2000/svg" xmlns:xlink="http://www.w3.org/1999/xlink" width="85" height="85" viewBox="0 0 85 85">
  <defs>
    <clipPath id="clip-path">
      <rect id="Rectángulo_37347" data-name="Rectángulo 37347" width="47.81" height="59.791" fill="none"/>
    </clipPath>
  </defs>
  <g id="Grupo_157478" data-name="Grupo 157478" transform="translate(-705.5 -1263)">
    <circle id="Elipse_4840" data-name="Elipse 4840" cx="42.5" cy="42.5" r="42.5" transform="translate(705.5 1263)" fill="#3c3fa7"/>
    <g id="Grupo_157461" data-name="Grupo 157461" transform="translate(724.5 1276)">
      <g id="Grupo_157460" data-name="Grupo 157460" clip-path="url(#clip-path)">
        <path id="Trazado_128385" data-name="Trazado 128385" d="M60.346,0c.932.729,1,1.161.35,2.2-.814,1.3-1.626,2.592-2.5,3.982.745,0,1.41,0,2.075,0,.682,0,1.087.323,1.1.856.011.549-.415.891-1.126.894-.875,0-1.751-.011-2.625.005-.587.011-1.142-.029-1.47-.608-.342-.6-.059-1.11.266-1.618.743-1.16,1.47-2.33,2.2-3.5.078-.125.211-.227.2-.459-.615,0-1.228-.013-1.84,0-.494.014-.955-.035-1.162-.563s.1-.87.45-1.193Z" transform="translate(-31.874)"/>
        <path id="Trazado_128386" data-name="Trazado 128386" d="M.83,26.977A1,1,0,0,1,0,25.824,24.175,24.175,0,0,1,11.828,6.155a2.187,2.187,0,0,1,2.523-.022,2.224,2.224,0,0,1,1.043,2.2,5.044,5.044,0,0,1-.388,1.216,18.777,18.777,0,0,0,3.346,19.284.6.6,0,0,0,.82.221c1.239-.5,2.5-.957,3.752-1.423a4.614,4.614,0,0,1,6.4,3.337c.084.321.23.364.518.367a22.638,22.638,0,0,1,4.131.176,9.343,9.343,0,0,1,4.836,2.517.6.6,0,0,0,.751.143A19.236,19.236,0,0,0,44.036,31.7a2.309,2.309,0,0,1,3.639,2.583,24,24,0,0,1-4.05,7.747,17.266,17.266,0,0,1-1.406,1.636,1.523,1.523,0,0,0-.473,1.235c.032,1.089.015,2.179.008,3.269,0,.726-.19.951-.9,1.139a.834.834,0,0,1-.966-.818,12.271,12.271,0,0,1-.02-1.34c0-1.963.01-3.927,0-5.89A7.957,7.957,0,0,0,38,35.93,7.444,7.444,0,0,0,33.3,33.349a22.2,22.2,0,0,0-3.088-.117c-.495-.018-.639.208-.636.666.011,1.771.006,3.542,0,5.313a6.25,6.25,0,0,1-.017.7,1.046,1.046,0,0,1-.865.966,1.082,1.082,0,0,1-1.1-.7,2.486,2.486,0,0,1-.122-.978c0-2.413.008-4.826,0-7.239A2.671,2.671,0,0,0,25.128,29.2a2.341,2.341,0,0,0-1.206.114c-.955.334-1.9.7-2.846,1.056-.586.221-.612.327-.128.708a6.7,6.7,0,0,1,2.107,2.747,6.339,6.339,0,0,1,.459,2.45q-.008,11.56,0,23.12c0,.136,0,.272,0,.409.006,1.174.17,1.334,1.364,1.336s2.374,0,3.561,0a5.054,5.054,0,0,0,4.621-3.482,7.054,7.054,0,0,0,.27-1.9c.02-3.185-.021-6.371.021-9.556.216-.619.573-.911,1.065-.874A1.136,1.136,0,0,1,35.4,46.4a6.478,6.478,0,0,1,.028.87c.02,2.032-.04,4.064.034,6.093.08.251.292.215.482.215a3.746,3.746,0,0,0,3.166-1.414,2.228,2.228,0,0,1,.5-.559c.313-.2.641-.382.989-.055.623.546.678.876.2,1.547a5.4,5.4,0,0,1-4.866,2.351c-.6-.021-.716.144-.718.721a6.906,6.906,0,0,1-6.894,6.9q-2.043.015-4.086,0a2.546,2.546,0,0,1-2.64-2.653c-.01-2.8-.018-5.6.01-8.4.006-.534-.1-.741-.679-.83A24.181,24.181,0,0,1,3.815,40.109a23.466,23.466,0,0,1-3.588-9.57c-.11-.733.042-.989.7-1.268.44-.2.724.032.98.348a1.316,1.316,0,0,1,.194.52,22.2,22.2,0,0,0,5.384,11.7A22.639,22.639,0,0,0,19.05,48.9c.62.163,1.255.266,1.888.376.363.063.5-.066.5-.427-.009-.875,0-1.75-.007-2.626,0-3.229-.036-6.458.013-9.686a4.607,4.607,0,0,0-1.823-3.848,20.632,20.632,0,0,1-7.051-10.746,20.642,20.642,0,0,1,.584-12.894c.074-.2.164-.4.23-.6.074-.229.127-.467-.094-.644-.2-.164-.411-.052-.6.056a15.665,15.665,0,0,0-1.413.93A22.3,22.3,0,0,0,2.032,24.585c-.06.48-.109.965-.149,1.449a1.066,1.066,0,0,1-.523.922c-.174.06-.347.174-.531.022" transform="translate(0 -3.284)"/>
        <path id="Trazado_128387" data-name="Trazado 128387" d="M85.166,88.2a1.088,1.088,0,0,0-1.266.568,3.825,3.825,0,0,1-4.065,1.5.32.32,0,0,1,.143-.1c1.425-.224,1.853-1.339,2.183-2.5a5.87,5.87,0,0,0,.177-1.62c-.007-2.684.017-5.369-.009-8.053a8.612,8.612,0,0,0-3.87-7.556c-.217-.145-.488-.267-.514-.589a7.714,7.714,0,0,1,6.537,6.682c.225,2.419.045,4.848.09,7.273.006.349.016.7,0,1.048a.944.944,0,0,0,.853,1.111,5.175,5.175,0,0,1-.257,2.234" transform="translate(-44.568 -39.943)" fill="#bdd8fc"/>
        <path id="Trazado_128388" data-name="Trazado 128388" d="M69.8,37.311c.769,0,1.426-.005,2.083,0,.682.007,1.064.332,1.06.888s-.366.858-1.076.861c-.992.005-1.984.01-2.976,0a1.18,1.18,0,0,1-1.048-1.929c.858-1.385,1.73-2.762,2.661-4.245-.809,0-1.534.015-2.258,0a.863.863,0,0,1-.907-.971.853.853,0,0,1,.889-.767c1.109-.017,2.219-.04,3.326.006a1.163,1.163,0,0,1,.928,1.864c-.857,1.405-1.742,2.794-2.682,4.3" transform="translate(-38.499 -17.796)"/>
        <path id="Trazado_128389" data-name="Trazado 128389" d="M94.052,19.943c.761,0,1.417-.008,2.073,0,.689.01,1.067.335,1.061.889s-.378.853-1.082.858c-.991.007-1.983.015-2.974,0a1.179,1.179,0,0,1-1.053-1.927c.765-1.238,1.548-2.464,2.317-3.7a.8.8,0,0,0,.224-.532c-.553,0-1.106,0-1.658,0a3.917,3.917,0,0,1-.639-.033.8.8,0,0,1-.736-.89.756.756,0,0,1,.76-.8c1.2-.027,2.412-.057,3.612.015a1.13,1.13,0,0,1,.77,1.816c-.756,1.243-1.542,2.467-2.315,3.7-.1.161-.195.328-.36.606" transform="translate(-52.366 -7.877)"/>
        <path id="Trazado_128390" data-name="Trazado 128390" d="M1.938,55.206l.429-.094a6.929,6.929,0,0,1,.582,2.8,1.119,1.119,0,0,0-.911-.415q-.05-1.147-.1-2.294" transform="translate(-1.108 -31.512)" fill="#e7a42e"/>
        <path id="Trazado_128391" data-name="Trazado 128391" d="M3.522,32.039a20.1,20.1,0,0,1-.582-2.8,1.2,1.2,0,0,0,.508-1.045A22.392,22.392,0,0,1,14.2,10.139c.289-.186.584-.45.94-.134s.157.639.03.964A20.677,20.677,0,0,0,21.4,34.916a4.752,4.752,0,0,1,1.881,3.941c-.036,3.248-.024,6.5-.032,9.745a1.531,1.531,0,0,1-1.02-.018A23.781,23.781,0,0,1,4,33.719c-.152-.4-.209-.82-.337-1.224q-.069-.227-.137-.456" transform="translate(-1.681 -5.637)" fill="#edbf6b"/>
        <path id="Trazado_128392" data-name="Trazado 128392" d="M60.278,64.235a10.56,10.56,0,0,1,3.309,3.282,9.313,9.313,0,0,1,1.232,4.6c.045,2.86.015,5.721.011,8.581a5.069,5.069,0,0,1-1.323,3.558,1.582,1.582,0,0,1-1.339.392l-.035-6.472c0-.194,0-.389,0-.584-.011-.627-.274-1.018-.768-1.066a.869.869,0,0,0-.995.77c-.082,1.53-.018,3.062-.033,4.593-.011,1.086-.014,2.173,0,3.259.006.344-.083.521-.444.612-1.1.277-1.338.579-1.451,1.722a6.317,6.317,0,0,1-2.033,4.253,2.061,2.061,0,0,1-1.038.6c-1.419.007-2.838.024-4.258.018a.8.8,0,0,1-.871-.875c-.009-.175,0-.35,0-.525,0-7.741-.024-15.483.015-23.223a6.547,6.547,0,0,0-2.672-5.6,1.371,1.371,0,0,1-.54-.556c1.278-.478,2.526-1.005,3.811-1.412a2.846,2.846,0,0,1,3.712,2.728c.033,2.528.009,5.057.011,7.585A2.876,2.876,0,0,0,54.6,71a.864.864,0,0,0,.878.778.843.843,0,0,0,.845-.859c.022-.68.009-1.361.009-2.042q0-2.159,0-4.318c0-.239-.037-.468.338-.451a25.322,25.322,0,0,1,3.608.127" transform="translate(-26.901 -34.322)" fill="#dceafc"/>
        <path id="Trazado_128393" data-name="Trazado 128393" d="M4.619,62.721c.41.981.775,1.985,1.24,2.941a23.924,23.924,0,0,0,3.779,5.56,23.55,23.55,0,0,0,14.571,7.606c.008.972,0,1.944.031,2.915.01.351-.129.365-.415.324A22.881,22.881,0,0,1,4.75,63.758c-.063-.342-.088-.691-.131-1.037" transform="translate(-2.641 -35.863)" fill="#e8a42d"/>
        <path id="Trazado_128394" data-name="Trazado 128394" d="M99.4,69.3a.471.471,0,0,1,.416.636A22.6,22.6,0,0,1,95.53,77.89a10.137,10.137,0,0,0-1.5-5.757L95.9,71.3c.607.383.754,1.09,1.148,1.664a24.3,24.3,0,0,0,1.876-3.027c.119-.239.194-.516.474-.637" transform="translate(-53.766 -39.623)" fill="#e8a42d"/>
        <path id="Trazado_128395" data-name="Trazado 128395" d="M66.5,115.4a6.108,6.108,0,0,0,2.91-5,1.637,1.637,0,0,1,1.519-1.725c.458-.045.476-.244.475-.59q-.012-3.551,0-7.1c0-.206-.071-.43.091-.615,0,3.364.054,6.728-.012,10.09A5.08,5.08,0,0,1,66.5,115.4" transform="translate(-38.022 -57.386)" fill="#bdd8fc"/>
        <path id="Trazado_128396" data-name="Trazado 128396" d="M101.9,69.258A22.891,22.891,0,0,1,99.5,73.2a14.781,14.781,0,0,0-1.1-1.946,25.836,25.836,0,0,0,2.969-1.864.525.525,0,0,1,.53-.135" transform="translate(-56.263 -39.584)" fill="#edbf6a"/>
      </g>
    </g>
  </g>
</svg>
