<svg xmlns="http://www.w3.org/2000/svg" xmlns:xlink="http://www.w3.org/1999/xlink" width="240.048" height="255.473" viewBox="0 0 240.048 255.473">
  <defs>
    <clipPath id="clip-path">
      <rect id="Rect치ngulo_37503" data-name="Rect치ngulo 37503" width="191.137" height="191.313" fill="none"/>
    </clipPath>
  </defs>
  <g id="Grupo_157880" data-name="Grupo 157880" transform="translate(-0.048 -33)">
    <g id="Grupo_87689" data-name="Grupo 87689" transform="translate(0.048 33)">
      <g id="Grupo_87397" data-name="Grupo 87397">
        <path id="Rect치ngulo_34437" data-name="Rect치ngulo 34437" d="M0,0H163.048a77,77,0,0,1,77,77V255.472a0,0,0,0,1,0,0H0a0,0,0,0,1,0,0V0A0,0,0,0,1,0,0Z" fill="#ffdfe0"/>
      </g>
    </g>
    <g id="Grupo_157894" data-name="Grupo 157894" transform="translate(24.048 65)">
      <g id="Grupo_157894-2" data-name="Grupo 157894" clip-path="url(#clip-path)">
        <path id="Trazado_130110" data-name="Trazado 130110" d="M0,29.677V2.8C.835.253,1.2,0,4.227,0Q31.942,0,59.658,0q57.3,0,114.591,0c1.109.156,1.115,1.066,1.148,1.843a44.184,44.184,0,0,1-.036,6.337c-.515,5.075-4.327,9.3-9.73,10.881-1.67.489-3.385.815-5.038,1.367a11.631,11.631,0,0,0-8.283,11.38,65.052,65.052,0,0,1-.378,9.117,4.122,4.122,0,0,1-.462,1.783,1.815,1.815,0,0,1-1.484.663c-5.086-.054-10.187.521-15.249-.477a26.62,26.62,0,0,1-11.449-5.6q-8.552-6.777-17.15-13.493a9.527,9.527,0,0,0-1.689-1.156,1.928,1.928,0,0,0-2.674.441,2.041,2.041,0,0,0,.405,2.85,22.239,22.239,0,0,0,1.716,1.436c5.688,4.435,11.323,8.935,17.011,13.37a30.257,30.257,0,0,0,19.838,6.9c2.547-.065,5.1-.042,7.647.009.924.018,1.9-.008,2.476.964.748,2.635-.239,5.15-.605,7.688-.436,3.03-.586,3.031-3.737,3.044-3.348.014-6.7-.038-10.04.035-4.729.352-8.93-1.237-12.815-3.722-4.665-2.983-8.729-6.765-13.105-10.133a18.808,18.808,0,0,0-2.234-1.67,1.916,1.916,0,0,0-2.527.439,1.8,1.8,0,0,0-.027,2.532,10.344,10.344,0,0,0,1.879,1.8q5.367,4.322,10.761,8.611a30.909,30.909,0,0,0,17.855,6.652c3.009.641,6.052.219,9.076.3,2.917.079,3.4.6,2.748,3.45a76.749,76.749,0,0,1-2.483,8.935,3.515,3.515,0,0,1-1.394,2.115c-9.152.008-17.972-.945-25.153-7.627-2.951-2.746-6.319-5.031-9.478-7.55-1.857-1.482-3.009-1.579-3.9-.436-.839,1.076-.42,2.32,1.307,3.742,3.5,2.883,7.131,5.614,10.632,8.5a30.882,30.882,0,0,0,17.66,7.216c1.759.565,3.578.216,5.362.36,1.366.11,1.906.811,1.283,1.971a64.888,64.888,0,0,1-5.156,7.944,1.7,1.7,0,0,1-1.116.619c-2.338-1.1-4.91-1.022-7.382-1.46a23.867,23.867,0,0,1-9.237-3.754,12.566,12.566,0,0,0-2.572-1.482,1.676,1.676,0,0,0-2.126.637,1.778,1.778,0,0,0-.054,2.244,7.588,7.588,0,0,0,1.914,1.746,29.376,29.376,0,0,0,14.353,5.177,6.8,6.8,0,0,1,1.834.288c1.431.573,1.521,1.669,1.092,2.917a42,42,0,0,0-2.191,10.528,36.244,36.244,0,0,0,1.331,12.305c1.339,4.959,3.931,9.383,6.084,13.985,2.945,6.3,5.989,12.55,9,18.819a39.734,39.734,0,0,1,3.825,16.374c.145,5.586.037,11.178.028,16.767,0,.988.082,2.011-.742,2.785H26.877c-2.572-.636-3.285-1.42-3.317-4.115-.075-6.281-.193-12.569.035-18.844a34.948,34.948,0,0,1,3.931-13.912c4.25-8.789,8.58-17.541,12.618-26.43,5.511-12.135,4.595-23.938-2.357-35.255-3.283-5.344-7.032-10.4-8.8-16.571A147.623,147.623,0,0,1,25.067,57.4c-.526-3.5-.819-7.035-1.23-10.551-.609-5.2-3.329-8.89-8.428-10.562C11.505,35,7.48,34.169,3.5,33.189,1.56,32.712.228,31.782,0,29.677" transform="translate(0 0)" fill="#fdd1a3"/>
        <path id="Trazado_130111" data-name="Trazado 130111" d="M243.79.347C248.018.328,252.245.283,256.472.3a3.54,3.54,0,0,1,3.7,3.612q.066,12.5.005,25a3.522,3.522,0,0,1-3,3.543q-5.576,1.461-11.17,2.859c-6.6,1.639-9.945,6.077-10.515,12.911-.892,10.7-2.563,21.291-6.235,31.465-1.454,4.027-3.912,7.481-6.308,10.95a38.716,38.716,0,0,0-7.07,20.117,38.22,38.22,0,0,0,4.127,19.074c4.289,8.826,8.495,17.692,12.731,26.543a37.676,37.676,0,0,1,3.481,15.685c.1,4.662-.059,9.328.058,13.988.059,2.324-.6,4.124-2.591,5.371H219.878q0-8.95,0-17.9a41.661,41.661,0,0,0-4.24-18.677c-4.544-9.249-8.892-18.594-13.254-27.931a35.946,35.946,0,0,1-.607-27c.406-.984.952-2-.579-2.546.032-.053.054-.142.1-.154a4.345,4.345,0,0,0,3.276-3.967c2.191-2,3.21-4.818,4.973-7.122.5-.648,1.486-1.4,1.062-2.214-.431-.83-1.585-.254-2.412-.365-1.332-.178-2.727.339-4.014-.358.659-.891,1.645-.72,2.549-.755,1.173-.046,2.351.02,3.524-.03,1.975-.084,2.465-.639,2.377-2.647a1.646,1.646,0,0,1,.157-1.072c.737-.327.786-1.077,1-1.7,1.181-3.395,2.011-6.885,2.871-10.371.353-1.429-.076-1.776-1.394-1.755-2.79.044-5.582.021-8.373.007-.669,0-1.377.15-1.966-.343.6-.833,1.505-.769,2.368-.777,3.046-.027,6.093-.007,9.14-.011.56,0,1.119.011,1.678-.013,1.736-.075,2.775-.784,2.683-1.927-.13-1.612-1.372-1.726-2.6-1.74-3.606-.042-7.213.022-10.818-.039-.926-.016-2.058.225-2.44-1.094,3.9-.007,7.8-.05,11.7,0,1.234.015,1.681-.34,1.805-1.655.278-2.936,1.16-5.805,1.045-8.795.027-.054.041-.125.083-.161,2.655-2.228,2.654-2.228.741-5.128a.652.652,0,0,1-.071-.352c.184-4.09.353-8.178.441-12.274.114-5.29,4.4-9.745,10.35-11.215,2.712-.669,5.466-1.194,7.784-2.929a11.512,11.512,0,0,0,4.949-9.345c.05-2.238.021-4.477.027-6.716" transform="translate(-69.066 -0.103)" fill="#febc85"/>
        <path id="Trazado_130112" data-name="Trazado 130112" d="M66.977,59.728c-2.053,0-4.106.014-6.158,0-1.933-.017-3.087-1.011-3.14-2.659-.056-1.728,1.117-2.887,3.114-2.921,2.923-.049,5.853-.128,8.77.007,7.36.343,13.54-2.344,19.123-6.94,5.505-4.531,11.141-8.905,16.74-13.322,1.718-1.354,3.444-1.331,4.5-.052,1.2,1.45.808,2.972-1.169,4.541-6.17,4.894-12.279,9.869-18.532,14.655-5.671,4.341-12.05,6.872-19.329,6.7-1.305-.031-2.613,0-3.919,0" transform="translate(-19.973 -11.385)" fill="#f5a86c"/>
        <path id="Trazado_130113" data-name="Trazado 130113" d="M204.42,54.105c1.467.656,2.623,1.585,2.209,3.387a2.71,2.71,0,0,1-2.962,2.253c-3.542-.007-7.083-.033-10.625-.016A30.378,30.378,0,0,1,173.961,52.9c-6.226-4.809-12.342-9.76-18.512-14.64-1.747-1.382-2.151-2.832-1.148-4.272.959-1.375,2.738-1.536,4.452-.218,3.733,2.868,7.4,5.828,11.1,8.729,3.122,2.442,6.215,4.927,9.416,7.262a23.291,23.291,0,0,0,14.336,4.367c3.6-.034,7.208-.019,10.811-.026" transform="translate(-53.248 -11.382)" fill="#f5a86c"/>
        <path id="Trazado_130114" data-name="Trazado 130114" d="M70.542,87.067c-3.457,0-6.128-.009-8.8,0-1.573.008-2.654-.612-2.9-2.259-.231-1.547.6-2.643,2.311-3.014a12.994,12.994,0,0,1,2.574-.309c2.919-.037,5.852-.185,8.758.018,7.819.548,14.253-2.391,20.016-7.4,3.178-2.76,6.532-5.318,9.826-7.944a2.7,2.7,0,0,1,3.988.264,2.557,2.557,0,0,1-.393,3.914c-3.706,3.1-7.589,5.985-11.249,9.135a31.659,31.659,0,0,1-15.8,7.379c-3.012.5-6.075.108-8.327.21" transform="translate(-20.364 -22.651)" fill="#f5a86c"/>
        <path id="Trazado_130115" data-name="Trazado 130115" d="M191.2,81.459c.588.5,1.3.343,1.968.344,3.916.011,7.831-.01,11.747.008,2.109.01,3.11.89,3.083,2.625-.025,1.554-1.277,2.594-3.2,2.6-4.537.018-9.074.016-13.611.022A29.874,29.874,0,0,1,172.8,80.014q-5.221-4.171-10.441-8.344c-.579-.465-1.123-.975-1.658-1.492a2.5,2.5,0,0,1-.271-3.654,2.632,2.632,0,0,1,3.957-.445c2.678,2.1,5.305,4.265,7.963,6.393,3.963,3.172,7.784,6.559,12.826,8.026a18.951,18.951,0,0,0,6.023.961" transform="translate(-55.326 -22.643)" fill="#f5a86c"/>
        <path id="Trazado_130116" data-name="Trazado 130116" d="M109.523,251.838c.038,2.861-.58,3.759-2.218,3.966-1.749.221-2.887-.74-3.308-2.991-.922-4.926-1.79-9.864-2.657-14.8a18.293,18.293,0,0,0-6.372-10.646c-3.155-2.793-6.377-5.509-9.547-8.286a2.54,2.54,0,0,1-.3-3.654,2.913,2.913,0,0,1,4.306-.318c1.953,1.623,3.824,3.346,5.737,5.019,3.926,3.433,7.935,6.766,10.076,11.761a41.744,41.744,0,0,1,2.476,9.7c.615,3.659,1.283,7.309,1.8,10.253" transform="translate(-29.258 -74.215)" fill="#f5a86c"/>
        <path id="Trazado_130117" data-name="Trazado 130117" d="M169.6,251.635c.635-3.49,1.55-7.791,2.174-12.133a26.726,26.726,0,0,1,5.351-12.894c1.769-2.277,4.137-3.92,6.2-5.886,1.837-1.751,3.8-3.37,5.721-5.031a5.653,5.653,0,0,1,1.5-1.076,2.776,2.776,0,0,1,3.71,1.173,2.588,2.588,0,0,1-.71,3.5c-3.259,2.861-6.573,5.658-9.843,8.505-4.11,3.578-5.9,8.282-6.636,13.543-.543,3.857-1.251,7.693-1.966,11.523a3.316,3.316,0,0,1-1.521,2.647c-2.119,1.124-4.024-.305-3.977-3.875" transform="translate(-58.732 -74.225)" fill="#f5a86c"/>
        <path id="Trazado_130118" data-name="Trazado 130118" d="M76.636,115.977a9.3,9.3,0,0,1-3.274-.331,2.48,2.48,0,0,1-1.928-2.969A2.531,2.531,0,0,1,74.17,110.4a50.212,50.212,0,0,0,8.89-.595c5.2-.808,9.472-3.5,13.449-6.784q4.943-4.083,9.987-8.042c1.679-1.322,3.337-1.158,4.4.292.926,1.263.528,2.914-1.048,4.171-4.31,3.437-8.6,6.9-12.956,10.277a27.877,27.877,0,0,1-16.33,5.94c-1.36.054-2.69.51-3.925.312" transform="translate(-24.72 -32.581)" fill="#f5a86c"/>
        <path id="Trazado_130119" data-name="Trazado 130119" d="M199.059,111.16a2.762,2.762,0,0,1,.4,3.265c-.631,1.173-1.745,1.223-2.887,1.22-2.039,0-4.078.012-6.117.019-6.585-.227-12.269-2.783-17.364-6.8-3.943-3.106-7.837-6.274-11.746-9.422-1.575-1.268-1.977-2.908-1.051-4.171,1.063-1.449,2.727-1.609,4.405-.294,3.8,2.982,7.6,5.979,11.335,9.042a25.315,25.315,0,0,0,14.878,6.1c1.98.118,3.956.261,5.94.269a2.716,2.716,0,0,1,2.208.771" transform="translate(-55.34 -32.582)" fill="#f5a86c"/>
        <path id="Trazado_130120" data-name="Trazado 130120" d="M88.814,142.661c-.969-.09-2.013.3-2.9-.322-1.035-.722-1.761-1.69-1.318-3.006a3.212,3.212,0,0,1,3.321-2.225,23.98,23.98,0,0,0,9.73-2.149,47.378,47.378,0,0,0,5.572-3.357,2.4,2.4,0,0,1,2.946.134,2.854,2.854,0,0,1,1.069,2.817,3.248,3.248,0,0,1-1.556,2.016,29.937,29.937,0,0,1-12.8,5.7,12.685,12.685,0,0,1-4.061.392" transform="translate(-29.249 -45.422)" fill="#f5a86c"/>
        <path id="Trazado_130121" data-name="Trazado 130121" d="M195.412,138.56q1.274,3.995-3.374,4.122c-6.38.015-11.988-2.252-17.124-5.855a4.013,4.013,0,0,1-1.81-2.065,2.75,2.75,0,0,1,.849-2.885,2.384,2.384,0,0,1,3.078-.292c2.273,1.377,4.386,3.01,6.946,3.912a20.768,20.768,0,0,0,7.777,1.554,4.9,4.9,0,0,1,3.658,1.509" transform="translate(-59.908 -45.419)" fill="#f5a86c"/>
        <path id="Trazado_130122" data-name="Trazado 130122" d="M147.415,202.778c0,.932-.008,1.865,0,2.8.02,1.735-.984,2.46-2.563,2.536a2.348,2.348,0,0,1-2.7-2.572c-.041-1.926-.046-3.855.007-5.78a2.627,2.627,0,0,1,5.245.035c.042.993.007,1.989.008,2.983" transform="translate(-49.218 -68.327)" fill="#f5a86c"/>
      </g>
    </g>
  </g>
</svg>
