<svg xmlns="http://www.w3.org/2000/svg" xmlns:xlink="http://www.w3.org/1999/xlink" width="140.487" height="140.487" viewBox="0 0 140.487 140.487">
  <defs>
    <clipPath id="clip-path">
      <rect id="Rectángulo_37348" data-name="Rectángulo 37348" width="89.157" height="89.181" fill="none"/>
    </clipPath>
  </defs>
  <g id="Grupo_157479" data-name="Grupo 157479" transform="translate(-390.5 -1409)">
    <circle id="Elipse_4823" data-name="Elipse 4823" cx="70.244" cy="70.244" r="70.244" transform="translate(390.5 1409)" fill="#3c3fa7"/>
    <g id="Grupo_157462" data-name="Grupo 157462" transform="translate(416.5 1435)">
      <g id="Grupo_157462-2" data-name="Grupo 157462" clip-path="url(#clip-path)">
        <path id="Trazado_128397" data-name="Trazado 128397" d="M36.355,0H72.188C75.276.32,77,2.168,77.732,5.049a11.417,11.417,0,0,1,.093,3.468,5.879,5.879,0,0,0,1.087,3.656c3.21,5,6.364,10.039,9.534,15.065a4.552,4.552,0,0,1,.711,2.54q-.024,28.443-.014,56.887a5.455,5.455,0,0,1-.058,1.125,1.544,1.544,0,0,1-1.461,1.359c-.259.026-.521.007-.782.007q-38.138,0-76.275.025A10.944,10.944,0,0,1,.456,82.135,16.308,16.308,0,0,1,0,79.5V43.84a2.3,2.3,0,0,1,2.433-1.293q7.69.006,15.38,0c1.6,0,1.6,0,1.6-1.623,0-3.65.014-7.3-.01-10.95a4.629,4.629,0,0,1,.778-2.608c3.356-5.28,6.68-10.58,10.027-15.866a3.257,3.257,0,0,0,.519-1.8,28.887,28.887,0,0,1,.119-3.817C31.3,2.545,33.076.624,36.355,0"/>
        <path id="Trazado_128398" data-name="Trazado 128398" d="M102.429,20.219l5.66,8.972c1.189,1.885,2.372,3.773,3.571,5.652a2.429,2.429,0,0,1,.417,1.371q-.02,27.172,0,54.345c0,.616-.1.889-.787.824a13.1,13.1,0,0,0-2.258,0c-.649.053-.817-.145-.812-.8.033-4.319.019-8.637.013-12.956a4.327,4.327,0,0,0-.092-1.032,1.7,1.7,0,0,0-3.29.007,4.329,4.329,0,0,0-.089,1.032c-.006,4.319-.021,8.638.014,12.956.006.672-.188.8-.819.8q-5.216-.048-10.433,0c-.667.007-.8-.184-.8-.818q.027-27.216.011-54.431a1.872,1.872,0,0,1,.255-1.07q4.6-7.262,9.179-14.535a3.554,3.554,0,0,1,.255-.311" transform="translate(-26.484 -5.775)" fill="#4db9f5"/>
        <path id="Trazado_128399" data-name="Trazado 128399" d="M29.883,83.645c.006,6.175.1,12.352-.012,18.524a7.243,7.243,0,0,1-7.4,7.208q-5.086.087-10.175,0a7.343,7.343,0,0,1-7.423-7.47c-.052-5.305,0-10.612-.029-15.917,0-.609.251-.622.712-.62,3.13.015,6.262.01,9.393.006,1.444,0,1.921-.369,2.284-1.732a1.374,1.374,0,0,1,1.06-.264,24.907,24.907,0,0,1,3.02.062c.342.081.5.349.655.632.792,1.4,1.98,1.4,2.813,0a1.421,1.421,0,0,1,.359-.48,9.653,9.653,0,0,1,4.74.055" transform="translate(-1.384 -23.797)" fill="#fefefe"/>
        <path id="Trazado_128400" data-name="Trazado 128400" d="M52.179,43.34c6.345,0,12.689.009,19.034-.015.634,0,.824.13.819.8q-.05,6.78,0,13.559c0,.654-.163.809-.811.808q-14.6-.034-29.2,0c-.671,0-.8-.184-.793-.815.034-2.007-.5-2.507-2.515-2.508-1.912,0-3.825-.015-5.737.011-.485.006-.633-.125-.63-.622.021-3.535.035-7.07-.009-10.6-.009-.733.384-.615.81-.615H52.179" transform="translate(-9.235 -12.374)" fill="#72d7fe"/>
        <path id="Trazado_128401" data-name="Trazado 128401" d="M78.227,24.974c-1.585,2.519-3.092,4.882-4.557,7.27-.284.462-.655.382-1.042.382q-14,0-27.991,0H34.565c-.151-.262.068-.394.163-.545q4.251-6.757,8.506-13.511A.985.985,0,0,1,44.181,18q18.993.024,37.986.013c.106,0,.211.01.424.021-.7,1.129-1.362,2.171-2.007,3.221-.221.361-.562.231-.857.231q-8.519.011-17.038.006a5.74,5.74,0,0,0-.867.031,1.72,1.72,0,0,0,.02,3.42,6.045,6.045,0,0,0,.867.027q7.258,0,14.516,0h1" transform="translate(-9.857 -5.142)" fill="#c8f2fe"/>
        <path id="Trazado_128402" data-name="Trazado 128402" d="M40.84,113.674a11.639,11.639,0,0,0,2.843-8.577c-.071-1.94.009-3.885-.028-5.826-.01-.553.157-.664.68-.663q14.7.025,29.392,0c.553,0,.733.122.729.709q-.038,6.87-.005,13.741c0,.481-.046.712-.637.712q-16.347-.03-32.7-.018a1.637,1.637,0,0,1-.278-.078" transform="translate(-11.664 -28.163)" fill="#72d7fe"/>
        <path id="Trazado_128403" data-name="Trazado 128403" d="M29.883,78.344q-1.942,0-3.884,0a1.511,1.511,0,0,0-.917.164c-.268-.144-.244-.441-.345-.671a1.458,1.458,0,0,0-1.32-.969,1.4,1.4,0,0,0-1.339.8c-.135.247-.186.559-.5.676l-4.343,0c-.348-1.374-.823-1.745-2.265-1.745-3.131,0-6.262-.014-9.393.011-.543,0-.734-.105-.729-.7.03-3.508.024-7.016,0-10.524,0-.488.127-.625.621-.624q11.915.024,23.83,0c.394,0,.624.014.621.533-.031,4.349-.031,8.7-.041,13.045" transform="translate(-1.385 -18.496)" fill="#c8f2fe"/>
        <path id="Trazado_128404" data-name="Trazado 128404" d="M46.546,78.235c0,1.567-.029,3.043.009,4.518a1.735,1.735,0,0,0,2.294,1.826,1.6,1.6,0,0,0,1.157-1.567q.028-4.956,0-9.912a1.7,1.7,0,0,0-2.95-1.049c-.524.575-.988,1.207-1.462,1.8a1.084,1.084,0,0,1-.819-1.311,14.041,14.041,0,0,0,0-2.345c-.047-.634.116-.821.788-.814,3.535.04,7.07.019,10.606.019,6.2,0,12.4.011,18.606-.016.652,0,.807.158.8.807q-.044,7.912,0,15.825c0,.667-.179.8-.814.8q-14.606-.032-29.212,0c-.571,0-.794-.082-.782-.729.044-2.347.032-4.7.006-7.042-.006-.511.064-.741.639-.578a1.776,1.776,0,0,0,1.127-.22" transform="translate(-12.785 -19.814)" fill="#fefefe"/>
        <path id="Trazado_128405" data-name="Trazado 128405" d="M68.136,10.783c-6.317,0-12.633-.012-18.949.017-.71,0-.98-.151-.907-.9s-.016-1.508.046-2.257A2.87,2.87,0,0,1,51.3,4.873c1.217-.021,2.434-.005,3.651-.005H84.421c2.471,0,3.54,1.06,3.524,3.545,0,.769.341,1.793-.158,2.234-.43.381-1.43.132-2.179.133q-8.736.008-17.472,0" transform="translate(-13.786 -1.389)" fill="#72d7fe"/>
        <path id="Trazado_128406" data-name="Trazado 128406" d="M113.042,90.172a1.729,1.729,0,0,1-3.458.019,1.729,1.729,0,1,1,3.458-.019" transform="translate(-31.298 -25.262)" fill="#010102"/>
        <path id="Trazado_128407" data-name="Trazado 128407" d="M28.268,83.073a2.239,2.239,0,0,1,.839-1.436c1.214-.767,2.51,0,2.664,1.6A1.833,1.833,0,0,1,30.088,84.8c-.858.024-1.461-.548-1.82-1.727" transform="translate(-8.074 -23.231)" fill="#010101"/>
        <path id="Trazado_128408" data-name="Trazado 128408" d="M78.775,74.04c.321-.373.618-.764.963-1.106a1.724,1.724,0,0,1,2.42-.167,1.7,1.7,0,0,1,.218,2.353c-.8,1.064-1.64,2.1-2.524,3.091-.463.521-.558.872-.029,1.432.832.882,1.571,1.854,2.332,2.8a1.763,1.763,0,1,1-2.68,2.215c-.225-.263-.443-.532-.66-.794-.235.065-.209.262-.26.412a1.7,1.7,0,0,1-1.84,1.243A1.684,1.684,0,0,1,75.22,83.87c-.041-1.563-.021-3.127-.023-4.691s-.006-3.127,0-4.691c.006-1.258.493-1.95,1.472-2.121.9-.156,1.555.347,1.975,1.522.018.049.073.086.13.151" transform="translate(-21.476 -20.661)"/>
        <path id="Trazado_128409" data-name="Trazado 128409" d="M63.654,78.91q0-2.085,0-4.171a6.068,6.068,0,0,1,.025-.694,1.771,1.771,0,0,1,1.73-1.715,1.73,1.73,0,0,1,1.7,1.74c.056.982.024,1.969.027,2.953,0,1.1,0,2.2,0,3.3a3.872,3.872,0,0,0,.054,1.543c.228.471.888.119,1.349.238a1.824,1.824,0,0,1,1.439,1.73,1.679,1.679,0,0,1-1.5,1.656,20.952,20.952,0,0,1-3.294.005c-.994-.081-1.5-.8-1.524-1.982-.027-1.535-.007-3.07-.007-4.6" transform="translate(-18.178 -20.658)"/>
        <path id="Trazado_128410" data-name="Trazado 128410" d="M55.757,78.936c0-1.5-.008-3.008,0-4.513.009-1.258.689-2.069,1.721-2.082s1.748.8,1.752,2.048q.015,4.556,0,9.113c0,1.241-.731,2.059-1.762,2.038a1.8,1.8,0,0,1-1.71-2.005c-.015-1.533,0-3.066,0-4.6" transform="translate(-15.923 -20.661)"/>
      </g>
    </g>
  </g>
</svg>
