<svg xmlns="http://www.w3.org/2000/svg" width="291.322" height="745.792" viewBox="0 0 291.322 745.792">
  <g id="Grupo_157523" data-name="Grupo 157523" transform="translate(-1125 -2429.875)">
    <path id="Trazado_114544" data-name="Trazado 114544" d="M180.958,571.642c-37.182-16.915-75.743-39.738-90.718-77.908-16.619-42.361.777-89.8.359-135.336-.332-36.072-11.957-70.908-21.1-105.789S53.63,180.666,63.067,145.862c6.318-23.3,19.737-44.379,37.061-61.106C130.636,55.3,174.59,39.361,216.352,46.1s79.7,37.432,91.912,78.149c17.3,57.688-16.491,119.268-9.31,179.085,2.809,23.406,11.8,45.54,17.9,68.306a281.275,281.275,0,0,1,9.556,74.316c-.228,38.4-9.906,79.365-38.4,104.935C259.278,576.682,216.513,587.818,180.958,571.642Z" transform="translate(1078.496 2385.31)" fill="#e1e8ff"/>
    <g id="Grupo_157522" data-name="Grupo 157522" transform="translate(1125 2437)">
      <g id="Grupo_83785" data-name="Grupo 83785" transform="translate(205.792 644.25)">
        <path id="Trazado_117670" data-name="Trazado 117670" d="M97.1,331.886v25.77L54.3,380.236,31.21,364.042V327.381Z" transform="translate(-31.21 -327.381)" fill="#f27e64"/>
      </g>
      <g id="Grupo_83786" data-name="Grupo 83786" transform="translate(106.115 633.482)">
        <path id="Trazado_117671" data-name="Trazado 117671" d="M135.836,327.7v25.77l-42.8,22.581L69.947,359.858V323.2Z" transform="translate(-69.947 -323.196)" fill="#f27e64"/>
      </g>
      <g id="Grupo_83788" data-name="Grupo 83788" transform="translate(11.665 648.756)">
        <g id="Grupo_83787" data-name="Grupo 83787">
          <path id="Trazado_117672" data-name="Trazado 117672" d="M222.066,411.077a8.642,8.642,0,0,0,8.291-8.54c.775-18.761,4.807-60.725,1.382-60.867-4.364-.178-48.693,9.987-48.693,9.987s-.185-26.046-18.465-22.122c-14.029,3.013-30.791,18.887-37.831,26.111a15.671,15.671,0,0,1-8.052,4.467c-13.064,2.7-49.071,11.855-50.363,30.92-1.58,23.306,7.887,21.021,12.254,21.2C84.337,412.384,191.728,411.367,222.066,411.077Z" transform="translate(-68.159 -329.132)" fill="#6262c4"/>
        </g>
      </g>
      <g id="Grupo_83789" data-name="Grupo 83789" transform="translate(29.792 112.489)">
        <path id="Trazado_117673" data-name="Trazado 117673" d="M147.4,120.728s-75.465,79.86-56.317,134.4c14.137,40.271,54.367,42.558,76.741,34.118s14.727-118.818,14.727-118.818Z" transform="translate(-87.968 -120.728)" fill="#46467f"/>
      </g>
      <g id="Grupo_83790" data-name="Grupo 83790" transform="translate(41.914 280.455)">
        <path id="Trazado_117674" data-name="Trazado 117674" d="M119.026,186S67.86,325.555,67.86,368.973s41.673,191.707,41.673,191.707h93.786L168.745,220.918Z" transform="translate(-67.86 -186.002)" fill="#ffbf69"/>
      </g>
      <g id="Grupo_83792" data-name="Grupo 83792" transform="translate(93.081 266.935)">
        <path id="Trazado_117676" data-name="Trazado 117676" d="M157.442,186.428s19.147,54.017,19.147,86.679-1.127,111.5,0,130.652,39.419,165.184,39.419,165.184l-113.152,4.781s-36.828-142.934-40.68-175.6,4.336-148.672,4.336-148.672L27.271,207.122l75.586-26.373Z" transform="translate(-27.271 -180.749)" fill="#ffbf69"/>
      </g>
      <g id="Grupo_83796" data-name="Grupo 83796" transform="translate(82.49 99.901)">
        <path id="Trazado_117680" data-name="Trazado 117680" d="M117.154,115.836s38.827-.093,53.471,16.456,32.4,175.426,25.588,183.524c-7.316,8.695-106.683,9.156-128.082,5.563l-21.4-3.592s-4.789-183.413,5.633-189.362C65.622,120.856,117.154,115.836,117.154,115.836Z" transform="translate(-45.632 -115.836)" fill="#46467f"/>
      </g>
      <g id="Grupo_83797" data-name="Grupo 83797" transform="translate(161.867 276.511)">
        <path id="Trazado_117681" data-name="Trazado 117681" d="M62.725,186.158s0,84.473,3.379,88.415,24.577,13.71,24.577,13.71l.764-42.43L83,184.47Z" transform="translate(-62.725 -184.47)" fill="#6262c4"/>
      </g>
      <g id="Grupo_83800" data-name="Grupo 83800" transform="translate(99.92 137.316)">
        <path id="Trazado_117684" data-name="Trazado 117684" d="M155.458,238.6S88.444,175.523,81.684,138.355s-20.272,67.577-20.272,67.577l79.4,55.754Z" transform="translate(-61.412 -130.376)" fill="#7772d3"/>
      </g>
      <g id="Grupo_83804" data-name="Grupo 83804" transform="translate(155.151 38.794)">
        <path id="Trazado_117688" data-name="Trazado 117688" d="M93.023,102.152s-.926,16.705-8.448,17.472-18.584-8.736-18.584-8.736l5.182-18.8Z" transform="translate(-65.991 -92.088)"/>
      </g>
      <g id="Grupo_83806" data-name="Grupo 83806" transform="translate(122.881 80.229)">
        <g id="Grupo_83805" data-name="Grupo 83805">
          <path id="Trazado_117689" data-name="Trazado 117689" d="M110.914,108.191l-.232,26.2s-4.794,7.493-20.135,8.6c-11.428.826-15.416-1.791-15.416-1.791l1.711-13.257,1.685-12.928,27.734-5.844Z" transform="translate(-75.131 -108.191)" fill="#f27e64"/>
        </g>
      </g>
      <g id="Grupo_83808" data-name="Grupo 83808" transform="translate(124.591 81.216)">
        <g id="Grupo_83807" data-name="Grupo 83807" transform="translate(0)">
          <path id="Trazado_117690" data-name="Trazado 117690" d="M106.359,108.574a8.585,8.585,0,0,1-.785,2.522c-5.98,13.038-22.034,15.717-28.635,16.25l1.685-12.928Z" transform="translate(-76.939 -108.574)"/>
        </g>
      </g>
      <g id="Grupo_83810" data-name="Grupo 83810" transform="translate(110.999 17.69)">
        <g id="Grupo_83809" data-name="Grupo 83809">
          <path id="Trazado_117691" data-name="Trazado 117691" d="M77.824,93.476s-14.045,32.731-8.785,51.034,21.947,15.305,31.918,11.7,14.57-9.773,14.57-9.773a14.092,14.092,0,0,0,15.547-5.62c6.186-8.723,2.277-18.669-3.07-20.918s-11.662,1.642-11.662,1.642l4.907-9.518S100.025,63.954,77.824,93.476Z" transform="translate(-67.86 -83.886)" fill="#f27e64"/>
        </g>
      </g>
      <g id="Grupo_83811" data-name="Grupo 83811" transform="translate(159.371 59.102)">
        <path id="Trazado_117692" data-name="Trazado 117692" d="M70.456,110.3a.969.969,0,0,0,.556-.178l11.881-8.386a.965.965,0,1,0-1.114-1.575L69.9,108.543a.965.965,0,0,0,.558,1.752Z" transform="translate(-69.49 -99.98)"/>
      </g>
      <g id="Grupo_83812" data-name="Grupo 83812" transform="translate(162.375 65.366)">
        <path id="Trazado_117693" data-name="Trazado 117693" d="M78.646,106.415a.964.964,0,0,0,.247-1.9l-7.756-2.071a.965.965,0,1,0-.5,1.866l7.756,2.071A1.036,1.036,0,0,0,78.646,106.415Z" transform="translate(-69.924 -102.414)"/>
      </g>
      <g id="Grupo_83813" data-name="Grupo 83813" transform="translate(132.878 36.111)">
        <path id="Trazado_117694" data-name="Trazado 117694" d="M90.844,96.15a.965.965,0,0,0,.767-1.549,8.018,8.018,0,0,0-10.177-2.74.964.964,0,0,0,.9,1.706c.18-.09,4.4-2.208,7.743,2.2A.965.965,0,0,0,90.844,96.15Z" transform="translate(-80.922 -91.045)"/>
      </g>
      <g id="Grupo_83814" data-name="Grupo 83814" transform="translate(116.43 36.404)">
        <path id="Trazado_117695" data-name="Trazado 117695" d="M89.049,94.514a.97.97,0,0,0,.607-.216,5.262,5.262,0,0,1,5.875-.54.965.965,0,0,0,.991-1.657,7.176,7.176,0,0,0-8.082.7.964.964,0,0,0-.139,1.356A.953.953,0,0,0,89.049,94.514Z" transform="translate(-88.084 -91.159)"/>
      </g>
      <g id="Grupo_83815" data-name="Grupo 83815" transform="translate(168.419 278.437)">
        <path id="Trazado_117696" data-name="Trazado 117696" d="M71.656,185.828s42.757-2.226,48.724,1.824,19.508,47.048,16.582,52.928l-2.928,5.877s10.326,30.824,7.136,33.333-84.039,8.855-93.2,7.316-21.4-100-21.4-100Z" transform="translate(-26.565 -185.218)" fill="#7772d3"/>
      </g>
      <g id="Grupo_83816" data-name="Grupo 83816" transform="translate(120.611 49.354)">
        <path id="Trazado_117697" data-name="Trazado 117697" d="M89.3,114.461a.926.926,0,0,0,.25-.033.964.964,0,0,0,.684-1.181c-1.68-6.248,2.689-15.581,2.733-15.673a.965.965,0,1,0-1.742-.829c-.193.409-4.717,10.077-2.856,17A.965.965,0,0,0,89.3,114.461Z" transform="translate(-87.922 -96.193)"/>
      </g>
      <g id="Grupo_83817" data-name="Grupo 83817" transform="translate(116.435 44.424)">
        <path id="Trazado_117698" data-name="Trazado 117698" d="M91.1,102.2a.967.967,0,0,0,.929-.7l1.693-6a.965.965,0,1,0-1.858-.525l-1.693,6a.967.967,0,0,0,.666,1.191A.923.923,0,0,0,91.1,102.2Z" transform="translate(-90.134 -94.276)"/>
      </g>
      <g id="Grupo_83818" data-name="Grupo 83818" transform="translate(133.015 44.897)">
        <path id="Trazado_117699" data-name="Trazado 117699" d="M84.654,102.383a.967.967,0,0,0,.929-.7l1.693-6a.964.964,0,0,0-1.855-.525l-1.693,6a.963.963,0,0,0,.664,1.191A.933.933,0,0,0,84.654,102.383Z" transform="translate(-83.69 -94.46)"/>
      </g>
      <g id="Grupo_83819" data-name="Grupo 83819" transform="translate(119.093 13.977)">
        <path id="Trazado_117700" data-name="Trazado 117700" d="M70.429,100.5s1.938-2.617,8.476-2.6a14.135,14.135,0,0,1,10.313,4.652s.548,11.85,9.385,17.776,12.215,3.484,12.215,3.484l6.469-2.241,4.812-9.379L103.626,91.919l-22.2-9.475-11,12.228Z" transform="translate(-70.429 -82.444)"/>
      </g>
      <g id="Grupo_83820" data-name="Grupo 83820" transform="translate(127.023 68.497)">
        <path id="Trazado_117701" data-name="Trazado 117701" d="M84.78,110.366c1.727,0,6.68-.448,9.032-5.352a.964.964,0,0,0-1.74-.834c-2.267,4.727-7.485,4.264-7.7,4.246a.965.965,0,0,0-.2,1.92C84.183,110.346,84.4,110.366,84.78,110.366Z" transform="translate(-83.308 -103.632)"/>
      </g>
      <g id="Grupo_83822" data-name="Grupo 83822" transform="translate(111.495 655.551)">
        <g id="Grupo_83821" data-name="Grupo 83821">
          <path id="Trazado_117702" data-name="Trazado 117702" d="M183.27,413.717a8.646,8.646,0,0,0,8.291-8.54c.775-18.764,4.807-60.725,1.384-60.867-4.367-.178-48.7,9.987-48.7,9.987s-.185-26.049-18.465-22.122c-14.029,3.013-30.791,18.887-37.831,26.11a15.663,15.663,0,0,1-8.052,4.467c-13.064,2.7-49.071,11.855-50.363,30.917-1.58,23.306,7.887,21.023,12.254,21.2C45.541,415.024,152.932,414.008,183.27,413.717Z" transform="translate(-29.362 -331.771)" fill="#7772d3"/>
        </g>
      </g>
      <g id="Grupo_83873" data-name="Grupo 83873" transform="translate(119.093)">
        <path id="Trazado_117738" data-name="Trazado 117738" d="M121.845,141.27c4.593-4.676,8.384-16.209,7.462-22.7l-.185-1.31s7.6-.826,5.069-10.964-15.462-23.65-35.631-28.72-36.146,25.639-36.146,25.639,16.867-.883,29.54,8.7,17.318,18.19,17.318,18.19Z" transform="translate(-62.414 -77.012)" fill="#7c6053"/>
      </g>
      <g id="Grupo_83874" data-name="Grupo 83874" transform="translate(26.243 218.568)">
        <rect id="Rectángulo_34524" data-name="Rectángulo 34524" width="125.648" height="19.684" rx="1.736" fill="#e59e00"/>
      </g>
      <g id="Grupo_83875" data-name="Grupo 83875" transform="translate(76.295 227.035)">
        <path id="Trazado_117739" data-name="Trazado 117739" d="M161.934,165.242l4.326,53.811s-29.054,10.27-48.585,9.256S65.05,211.683,70.076,205.8c4.081-4.776,10.982-1.233,10.982-1.233s-16.415-7.069-6.688-11.235,39.774,3.018,39.774,3.018l30.938-5.45,2.2-25.663Z" transform="translate(-69.563 -165.242)" fill="#f27e64"/>
      </g>
      <g id="Grupo_83876" data-name="Grupo 83876" transform="translate(33.185 168.707)">
        <rect id="Rectángulo_34525" data-name="Rectángulo 34525" width="102.401" height="30.582" rx="1.736" fill="#f99931"/>
      </g>
      <g id="Grupo_83877" data-name="Grupo 83877" transform="translate(31.31 218.568)">
        <rect id="Rectángulo_34526" data-name="Rectángulo 34526" width="125.648" height="19.684" rx="1.736" fill="#ffbf69"/>
      </g>
      <g id="Grupo_83878" data-name="Grupo 83878" transform="translate(24.723 198.887)">
        <rect id="Rectángulo_34527" data-name="Rectángulo 34527" width="117.636" height="19.684" rx="1.736" fill="#a8a4ff"/>
      </g>
      <g id="Grupo_83879" data-name="Grupo 83879" transform="translate(25.187 237.342)">
        <rect id="Rectángulo_34528" data-name="Rectángulo 34528" width="130.08" height="19.684" rx="1.736" fill="#ffeebd"/>
      </g>
      <g id="Grupo_83880" data-name="Grupo 83880" transform="translate(43.839 150.858)">
        <rect id="Rectángulo_34529" data-name="Rectángulo 34529" width="83.626" height="18.271" rx="1.736" fill="#a8a4ff"/>
      </g>
      <g id="Grupo_83881" data-name="Grupo 83881" transform="translate(29.793 198.887)">
        <rect id="Rectángulo_34530" data-name="Rectángulo 34530" width="117.636" height="19.684" rx="1.736" fill="#fff"/>
      </g>
      <g id="Grupo_83882" data-name="Grupo 83882" transform="translate(34.03 124.389)">
        <rect id="Rectángulo_34531" data-name="Rectángulo 34531" width="90.578" height="26.468" rx="1.736" fill="#f99931"/>
      </g>
      <g id="Grupo_83883" data-name="Grupo 83883" transform="translate(38.254 168.707)">
        <rect id="Rectángulo_34532" data-name="Rectángulo 34532" width="102.402" height="30.582" rx="1.736" fill="#ffbf69"/>
      </g>
      <g id="Grupo_83884" data-name="Grupo 83884" transform="translate(30.255 237.342)">
        <rect id="Rectángulo_34533" data-name="Rectángulo 34533" width="130.08" height="19.684" rx="1.736" fill="#fff"/>
      </g>
      <g id="Grupo_83885" data-name="Grupo 83885" transform="translate(83.64 264.348)">
        <path id="Trazado_117740" data-name="Trazado 117740" d="M122.218,191.043a.965.965,0,0,0,.021-1.93c-5.538-.121-28.411-9.207-28.64-9.3a.964.964,0,0,0-.715,1.791c.955.381,23.429,9.31,29.311,9.439Z" transform="translate(-92.276 -179.744)"/>
      </g>
      <g id="Grupo_83886" data-name="Grupo 83886" transform="translate(167.22 103.38)">
        <path id="Trazado_117741" data-name="Trazado 117741" d="M38.541,117.188S156.2,159.263,147.187,240.841,25.024,304.4,25.024,304.4l-1.446-69.2,34.63-15.959Z" transform="translate(-23.578 -117.188)" fill="#46467f"/>
      </g>
      <g id="Grupo_83887" data-name="Grupo 83887" transform="translate(0 211.837)">
        <path id="Trazado_117742" data-name="Trazado 117742" d="M123.653,174.533s-16.893-7.964-7.573-13.867c7.926-5.018,46.233,5.5,49.246,9.441,3.381,4.426-10.136,9.413-10.136,9.413s19.147,1.992,18.584,8.88-16.332,5.99-16.332,5.99,14.644,2.174,9.575,11.711-42.8.715-46.742-4.2,2.254-7.506,2.254-7.506a13.5,13.5,0,0,1-6.477-10.29C115.205,176.705,123.653,174.533,123.653,174.533Z" transform="translate(-113.275 -159.336)" fill="#f27e64"/>
      </g>
      <g id="Grupo_83888" data-name="Grupo 83888" transform="translate(48.907 150.858)">
        <rect id="Rectángulo_34534" data-name="Rectángulo 34534" width="83.626" height="18.271" rx="1.736" fill="#fff"/>
      </g>
      <g id="Grupo_83889" data-name="Grupo 83889" transform="translate(39.099 124.389)">
        <rect id="Rectángulo_34535" data-name="Rectángulo 34535" width="90.577" height="26.468" rx="1.736" fill="#ffbf69"/>
      </g>
      <g id="Grupo_83890" data-name="Grupo 83890" transform="translate(197.507 338.714)">
        <path id="Trazado_117743" data-name="Trazado 117743" d="M30.166,212.729l77.441-2.156a.965.965,0,1,0-.051-1.93L30.14,210.8a.965.965,0,0,0,.026,1.93Z" transform="translate(-29.201 -208.643)" fill="#fff"/>
      </g>
      <g id="Grupo_83891" data-name="Grupo 83891" transform="translate(13.356 225.425)">
        <path id="Trazado_117744" data-name="Trazado 117744" d="M146.449,169.536a.965.965,0,0,0,.118-1.922l-23.933-2.99a.965.965,0,1,0-.239,1.914l23.934,2.99A.968.968,0,0,0,146.449,169.536Z" transform="translate(-121.549 -164.618)"/>
      </g>
      <g id="Grupo_83892" data-name="Grupo 83892" transform="translate(13.354 245.927)">
        <path id="Trazado_117745" data-name="Trazado 117745" d="M150.065,174.848a.965.965,0,0,0,.01-1.93l-29.847-.335a.965.965,0,1,0-.023,1.93l29.847.335Z" transform="translate(-119.251 -172.584)"/>
      </g>
      <g id="Grupo_83893" data-name="Grupo 83893" transform="translate(105.942 337.881)">
        <path id="Trazado_117746" data-name="Trazado 117746" d="M128.5,520.162a.881.881,0,0,0,.229-.028.964.964,0,0,0,.71-1.166c-.34-1.395-33.9-139.882-32.842-170.213,1.063-30.472,2.11-124.3,2.118-125.243a.968.968,0,0,0-.45-.829L75.585,208.466a.965.965,0,1,0-1.027,1.634l22.22,13.931c-.087,7.745-1.091,95.415-2.113,124.657-1.07,30.593,31.509,165.028,32.9,170.738A.966.966,0,0,0,128.5,520.162Z" transform="translate(-74.106 -208.319)" fill="#46467f"/>
      </g>
      <g id="Grupo_83894" data-name="Grupo 83894" transform="translate(175.638 202.007)">
        <path id="Trazado_117747" data-name="Trazado 117747" d="M45.21,173.045A.965.965,0,0,0,45.5,173c.425-.134,42.8-13.391,60.4-15.56a.964.964,0,1,0-.237-1.914c-17.771,2.19-60.316,15.5-60.743,15.635a.965.965,0,0,0,.288,1.886Z" transform="translate(-44.244 -155.516)" fill="#ffbf69"/>
      </g>
      <g id="Grupo_83895" data-name="Grupo 83895" transform="translate(209.758 186.753)">
        <path id="Trazado_117748" data-name="Trazado 117748" d="M47.175,172.528a.968.968,0,0,0,.535-.162c5.45-3.639,23.128-15.89,21.751-20.774-.35-1.245-1.6-1.917-3.705-2-12.833-.484-19.24,20.789-19.508,21.695a.964.964,0,0,0,.926,1.238Zm18.151-21.013q.178,0,.355.008c1.31.052,1.855.353,1.925.594.628,2.234-8.754,10.216-18.563,17.006C51.148,163.592,56.729,151.516,65.326,151.516Z" transform="translate(-46.208 -149.588)" fill="#ffbf69"/>
      </g>
      <g id="Grupo_83896" data-name="Grupo 83896" transform="translate(128.084 105.467)">
        <path id="Trazado_117749" data-name="Trazado 117749" d="M78.8,129c13.991,0,28.341-8.806,29.005-9.22a.964.964,0,1,0-1.016-1.639c-.175.108-17.655,10.828-32.165,8.628a.964.964,0,1,0-.288,1.907A29.709,29.709,0,0,0,78.8,129Z" transform="translate(-73.511 -117.999)" fill="#ffbf69"/>
      </g>
      <g id="Grupo_83897" data-name="Grupo 83897" transform="translate(41.985 104.15)">
        <rect id="Rectángulo_34536" data-name="Rectángulo 34536" width="81.995" height="20.401" rx="1.652" fill="#a8a4ff"/>
      </g>
      <g id="Grupo_83898" data-name="Grupo 83898" transform="translate(47.052 104.15)">
        <rect id="Rectángulo_34537" data-name="Rectángulo 34537" width="81.995" height="20.401" rx="1.652" fill="#fff"/>
      </g>
      <g id="Grupo_83899" data-name="Grupo 83899" transform="translate(181.218 33.942)">
        <path id="Trazado_117750" data-name="Trazado 117750" d="M68.908,98.786a.968.968,0,0,0,.836-1.444L65.939,90.69a.965.965,0,1,0-1.675.957L68.07,98.3A.962.962,0,0,0,68.908,98.786Z" transform="translate(-64.137 -90.202)" fill="#ffbf69"/>
      </g>
    </g>
  </g>
</svg>
