<svg xmlns="http://www.w3.org/2000/svg" xmlns:xlink="http://www.w3.org/1999/xlink" width="295" height="145" viewBox="0 0 295 145">
  <defs>
    <clipPath id="clip-path">
      <rect id="Rect치ngulo_37509" data-name="Rect치ngulo 37509" width="95.153" height="119.979" fill="none"/>
    </clipPath>
    <clipPath id="clip-path-2">
      <rect id="Rect치ngulo_37510" data-name="Rect치ngulo 37510" width="94.765" height="122.302" fill="none"/>
    </clipPath>
  </defs>
  <g id="Grupo_157913" data-name="Grupo 157913" transform="translate(-180 -3748)">
    <rect id="_951" data-name="951" width="295" height="145" transform="translate(180 3748)" fill="#ffdfe0"/>
    <g id="Grupo_157910" data-name="Grupo 157910" transform="translate(219 3761)">
      <g id="Grupo_157909" data-name="Grupo 157909" clip-path="url(#clip-path)">
        <path id="Trazado_130374" data-name="Trazado 130374" d="M24.212.023c2.592,0,5,.021,7.412-.012.8-.011.953.57,1.212,1.087Q37.268,9.951,41.7,18.806c.2.409.428.809.655,1.237.589-.271.664-.818.878-1.244C46.2,12.9,49.163,7.005,52.08,1.084A1.635,1.635,0,0,1,53.823,0c2.239.061,4.48.02,6.885.02-.544,1.671-1.04,3.225-1.556,4.773C58.446,6.916,57.738,9.037,57,11.15a2.658,2.658,0,0,0,.02,1.944C59.016,18.3,58.2,22.925,54.14,26.9c-3.239,3.175-4.374,9.358-2.571,13.507a9.432,9.432,0,0,0,2.489,3.322A63.872,63.872,0,0,1,72.8,72.754c3.819,11.848,7.865,23.624,11.81,35.431.536,1.606.534,1.607-1.1,1.607-3.388,0-6.776.022-10.164-.014-.951-.01-1.357.177-.97,1.223a15.084,15.084,0,0,1,.543,2.337,2.06,2.06,0,0,1-1.32,2.446,1.951,1.951,0,0,1-2.508-1.12,1.124,1.124,0,0,0-1.193-.824q-5.335.057-10.672,0c-.854-.008-1.163.246-.965,1.107.179.778.3,1.572.415,2.363a2.152,2.152,0,0,1-1.374,2.551,1.993,1.993,0,0,1-2.542-1.281.953.953,0,0,0-1.032-.668q-9.275.022-18.549,0a.92.92,0,0,0-1,.708,1.93,1.93,0,0,1-2.447,1.267,2.08,2.08,0,0,1-1.466-2.483c.118-.876.287-1.745.445-2.615.114-.627-.055-.943-.771-.939q-5.527.031-11.053,0a.883.883,0,0,0-.937.617,2.006,2.006,0,0,1-2.633,1.3,2.091,2.091,0,0,1-1.2-2.707,14.875,14.875,0,0,1,.437-1.973c.385-1.03.107-1.334-.983-1.319-3.556.052-7.115-.011-10.671.04-.945.014-1.02-.263-.751-1.063C4.577,95.506,8.9,82.223,13.465,69.019A58.105,58.105,0,0,1,25.158,49.438a66.284,66.284,0,0,1,5.46-5.472,10.09,10.09,0,0,0,3.147-11.238,16.36,16.36,0,0,0-3.9-6.926c-3.336-3.461-3.79-7.768-2.14-12.245a3.765,3.765,0,0,0,.081-2.769c-1.231-3.5-2.356-7.035-3.59-10.765" transform="translate(0 0)" fill="#feb2b2"/>
        <path id="Trazado_130375" data-name="Trazado 130375" d="M271.091,32.65a15.924,15.924,0,0,0-3.39-4.807c-1.378-1.259-3.062-2.093-4.665-3.374a13.4,13.4,0,0,0,7.992-8.03A13.486,13.486,0,0,0,279.16,24.5c-3.369,2.107-6.518,4.121-8.069,8.15" transform="translate(-196.044 -12.251)" fill="#fab440"/>
        <path id="Trazado_130376" data-name="Trazado 130376" d="M318.892,88.4c2.043,4.28,2.769,5.009,8.007,8.108-3.207,2.052-6.4,4.052-7.9,8.068a16.4,16.4,0,0,0-3.382-4.787c-1.379-1.261-3.059-2.1-4.679-3.383a13.29,13.29,0,0,0,7.953-8.006" transform="translate(-231.746 -65.882)" fill="#fab440"/>
        <path id="Trazado_130377" data-name="Trazado 130377" d="M23.185,104.148a13.434,13.434,0,0,0,8.129,8.07c-3.322,2.139-6.556,4.106-8.1,7.933-1.6-3.732-4.693-5.839-8.161-7.9a13.463,13.463,0,0,0,8.131-8.1" transform="translate(-11.22 -77.623)" fill="#fab440"/>
      </g>
    </g>
    <g id="Grupo_157912" data-name="Grupo 157912" transform="translate(350 3759)" clip-path="url(#clip-path-2)">
      <path id="Trazado_130378" data-name="Trazado 130378" d="M129,37.242c-.222-2.884-.449-5.768-.663-8.653a28.253,28.253,0,0,0-.94-3.8,32.14,32.14,0,0,1-.767-7.07c.05-4.682-.275-9.36-.062-14.046A4.007,4.007,0,0,1,129.052,0h2.15a3.464,3.464,0,0,1,2.723,3.677c.042,1.309.051,2.621,0,3.928a15.489,15.489,0,0,0,.462,3.648c.124,3.973-.176,7.963.5,11.913a15.284,15.284,0,0,0,.318,1.64,35.532,35.532,0,0,1,1.143,8.851c.042,1.469.274,2.929.254,4.405a1.464,1.464,0,0,0,1.523,1.623,42.181,42.181,0,0,0,7.383.286A54.041,54.041,0,0,0,153.08,39a9.07,9.07,0,0,0,3.183-1.294c.574-.4,1.2-.836,1.98-.463,3.46.192,4.633,2.686,2.818,5.994-.217.83-.943,1.151-1.589,1.507a22.689,22.689,0,0,1-7.948,2.34,58.188,58.188,0,0,1-15.41.063,1.638,1.638,0,0,1-.784-.244c-.285-.466-.556-.942-.862-1.4a3.718,3.718,0,0,1,.287-4.691c.659-.781.648-.9-.346-1.081A13.4,13.4,0,0,1,129,37.242" transform="translate(-96.204 0.001)" fill="#6aa96a"/>
      <path id="Trazado_130379" data-name="Trazado 130379" d="M238.829,10.717a23.636,23.636,0,0,0,.237-6.287c-.044-2.11.681-3.606,2.657-4.43h1.911A4.19,4.19,0,0,1,246.1,4.5c-.13,2.162.225,4.334-.054,6.5a1.833,1.833,0,0,1-1.23.369c-1.59.018-3.181.043-4.77-.015-.466-.017-1.1.118-1.216-.632" transform="translate(-181.639)" fill="#609f60"/>
      <path id="Trazado_130380" data-name="Trazado 130380" d="M59.3,183.931a5.771,5.771,0,0,0,2.64.42c6.333.537,12.639.407,18.8-1.416a11.521,11.521,0,0,0,4.362-2.35c2.344,4.6,4.7,9.2,7.03,13.81q11.025,21.824,22.033,43.657c1.527,3.026,1.014,4.906-1.793,6.8a24.287,24.287,0,0,1-11.635,3.858c-3.363.312-6.763.219-10.091.9-.579.119-1.145.3-1.717.452-2.007-11-4.259-21.957-6.386-32.937-1.105-5.707-2.28-11.4-3.334-17.116a12.073,12.073,0,0,0-.339-1.515c-.339-1.053-.978-1.541-1.789-1.379s-1.227.873-1.116,1.956c.028.278.09.55.144.823q4,20.393,8,40.788c.608,3.086,1.2,6.175,1.807,9.261.106.534.325,1.092-.095,1.6-5.311,5.452-11.676,8.444-19.384,8.065a23.607,23.607,0,0,1-14.716-6.01c-.892-.78-1.824-1.515-2.738-2.271,1.68-8.631,3.4-17.254,5.073-25.888,1.647-8.518,3.385-17.017,4.979-25.545a5.5,5.5,0,0,0,.134-1.422,1.347,1.347,0,0,0-1.015-1.322,1.3,1.3,0,0,0-1.509.69,5.34,5.34,0,0,0-.636,2.037c-2,10.029-3.944,20.071-5.919,30.106q-1.8,9.136-3.581,18.276a2.646,2.646,0,0,1-.605,1.643c-3.8-.992-7.732-.794-11.593-1.241a18.048,18.048,0,0,1-5.1-.955.373.373,0,0,0-.112-.206c-2.707-1.916-3.188-4.347-1.5-7.607,4.2-8.134,8.139-16.406,12.341-24.541,4.641-8.985,9.052-18.083,13.644-27.092.7-1.382,1.509-2.713,2.181-4.113a1.423,1.423,0,0,1,.787-.854,5.151,5.151,0,0,1,2.754.632" transform="translate(-20.24 -137.342)" fill="#77b677"/>
      <path id="Trazado_130381" data-name="Trazado 130381" d="M177.374,44.754c.328.418.794.264,1.206.267,2,.016,4.006.01,6.01.011.007,4.685.412,9.429-.886,13.991-1.149,4.039-1.087,8.165-1.481,12.262a6.673,6.673,0,0,0-2.426,1.179,12.386,12.386,0,0,1-5.234,1.413,47.082,47.082,0,0,1-8.759.524c-1.415-.093-2.821-.369-4.235-.412-1.055-.032-1.323-.7-1.334-1.455-.024-1.626-.2-3.24-.258-4.86A37.508,37.508,0,0,0,158.858,59a27.324,27.324,0,0,1-.788-6.333c-.087-2.462-.022-4.929-.023-7.394a4.03,4.03,0,0,0,1.728,1.406,11.32,11.32,0,0,1,5.264,4.314c.247.36.5.716.777,1.056,1.143,1.422,2.42,1.449,3.554.028,1.186-1.486,2.192-3.125,3.841-4.2a10.393,10.393,0,0,1,1.877-1.022,3.894,3.894,0,0,0,2.287-2.1" transform="translate(-120.184 -34.037)" fill="#76b676"/>
      <path id="Trazado_130382" data-name="Trazado 130382" d="M36.195,183.2c-5.12,9.8-9.88,19.773-14.946,29.595-4.721,9.152-9.228,18.409-13.888,27.591-1.4,2.763-.98,4.525,1.46,6.431.159.124.828.273.145.643a15.9,15.9,0,0,1-7.857-4.163c-1.474-1.449-1.332-3.3-.432-5.084q3.587-7.122,7.173-14.244,10.813-21.418,21.634-42.832c.141-.279.307-.546.462-.819.073-.04.168-.089.221-.052a25.956,25.956,0,0,0,5.794,2.673.548.548,0,0,1,.234.262" transform="translate(0 -137.086)" fill="#6aa96a"/>
      <path id="Trazado_130383" data-name="Trazado 130383" d="M241.266,302.572c-.493-2.64-.972-5.283-1.482-7.92q-2.491-12.857-5-25.709-1.815-9.247-3.682-18.483c-.307-1.526.1-2.423,1.33-2.723,1.136-.278,1.993.395,2.317,1.962.608,2.94,1.157,5.893,1.73,8.84,1.214,6.245,2.415,12.492,3.643,18.734q2.208,11.221,4.449,22.436a1.734,1.734,0,0,1-.2,1.38l-3.1,1.484" transform="translate(-175.685 -188.367)" fill="#609f60"/>
      <path id="Trazado_130384" data-name="Trazado 130384" d="M107.169,301.055q1.051-5.465,2.1-10.931,2.061-10.64,4.134-21.277,1.883-9.589,3.821-19.166c.3-1.493,1.389-2.166,2.53-1.7a1.537,1.537,0,0,1,1.056,1.665,47.467,47.467,0,0,1-1.042,6.067c-1.376,7.173-2.806,14.335-4.219,21.5q-1.97,9.994-3.944,19.987c-.282,1.433-.573,2.864-.816,4.3-.07.414-.109.787-.542.972l-3.08-1.423" transform="translate(-81.506 -188.489)" fill="#609f60"/>
      <path id="Trazado_130385" data-name="Trazado 130385" d="M128.338,164.379a15.477,15.477,0,0,1-6.249-2.882q-1.859-2.875-.023-4.856a3.5,3.5,0,0,1,2.871-1.13c1.645.233,2.719,1.76,4.4,1.931.543.055,1.071.251,1.611.36.931.188,1.074.593.285,1.158a3.419,3.419,0,0,0-.834,4.289,4.105,4.105,0,0,0,.8,1.019c.181.2.267.394,0,.59a12.342,12.342,0,0,1-2.864-.478" transform="translate(-92.143 -118.269)" fill="#609f60"/>
    </g>
  </g>
</svg>
