<svg xmlns="http://www.w3.org/2000/svg" xmlns:xlink="http://www.w3.org/1999/xlink" width="173" height="116" viewBox="0 0 173 116">
  <defs>
    <clipPath id="clip-path">
      <rect id="Rect치ngulo_37360" data-name="Rect치ngulo 37360" width="133" height="103.382" fill="none"/>
    </clipPath>
  </defs>
  <g id="Grupo_157513" data-name="Grupo 157513" transform="translate(-313 -2639)">
    <rect id="Rect치ngulo_36141" data-name="Rect치ngulo 36141" width="173" height="116" transform="translate(313 2639)" fill="#e1e8ff"/>
    <g id="Grupo_157512" data-name="Grupo 157512" transform="translate(333 2645)">
      <g id="Grupo_157511" data-name="Grupo 157511" clip-path="url(#clip-path)">
        <path id="Trazado_128559" data-name="Trazado 128559" d="M154.918,31.689a6.125,6.125,0,0,0,7.218-2.847,10.564,10.564,0,0,1,12.009-4.66,8.227,8.227,0,0,1,4.085,2.382,7.812,7.812,0,0,0,7.907,2.366c3.6-.728,6.757-.136,9.395,2.566a12.882,12.882,0,0,1,1.9,3.319v2.6a10.591,10.591,0,0,1-5.24,6.264,7.081,7.081,0,0,0-3.886,7.166c.377,4.745-1.922,8.263-5.654,10.968a1.257,1.257,0,0,1-1.045.4c-2.825,0-5.651.165-8.471-.088-.8-.256-.718-1.005-.861-1.6a14.116,14.116,0,0,0-8.417-10.181,11.941,11.941,0,0,0-3.368-.885c-7.851-1.329-14.61,4.833-15.669,11.329-.081.5-.066,1.065-.673,1.305a50.1,50.1,0,0,1-6.68.135c-1.114.011-2.23-.034-3.345-.007a29.853,29.853,0,0,1-4.813-.133c-.668-.265-.81-.89-1.013-1.474a10.829,10.829,0,0,1,1.784-9.152,11.062,11.062,0,0,1,3.927-3.35,11.865,11.865,0,0,1,2.769-1.006,5.458,5.458,0,0,0,3.868-3.094,8.979,8.979,0,0,0,.858-3.784,11.047,11.047,0,0,1,11.722-9.131,5.845,5.845,0,0,1,1.691.6" transform="translate(-64.433 -11.968)" fill="#4fe167"/>
        <path id="Trazado_128560" data-name="Trazado 128560" d="M66.125,99.965l4.963.083c8.39.136,14.8,8.278,15.482,15.575a18.026,18.026,0,0,1-4.187,13.628,30.747,30.747,0,0,1-17.96,10.883,24.77,24.77,0,0,1-5.156.52c-8.961-.023-17.922,0-26.883-.02a2.563,2.563,0,0,0-2.124.706c-.172-1.263-1.251-1.64-2.159-2.14A57.479,57.479,0,0,1,13.6,128.08,41.876,41.876,0,0,1,3.213,110.011,7.864,7.864,0,0,1,11.01,100c.626,0,1.3.221,1.883-.209a1.4,1.4,0,0,1,.869-.2c6.1.04,12.2-.05,18.3.043,1.572-.054,3.145-.041,4.718,0,1.724-.065,3.448-.018,5.173-.009,1.3-.031,2.6-.019,3.9,0,.967.021,1.935-.042,2.9.013,1.37-.035,2.741-.04,4.111,0q1.329-.045,2.657,0c1.375-.042,2.75-.029,4.126-.015,1.694.018,3.389-.055,5.083.019a2.574,2.574,0,0,1,1.4.326" transform="translate(-1.476 -50.147)" fill="#e8e2d4"/>
        <path id="Trazado_128561" data-name="Trazado 128561" d="M57.968,141.332c-.1-1,.5-1.063,1.3-1.061,9.264.018,18.528.039,27.791,0a28.421,28.421,0,0,0,17.4-6.093c3.924-2.986,7.322-6.5,8.781-11.4a17.226,17.226,0,0,0-3.165-16.308,15.963,15.963,0,0,0-10.939-6.243,1.1,1.1,0,0,1-.337-.18l10.353-.051a2.217,2.217,0,0,1,1.472-.4c5.833.008,11.667-.057,17.5.029,2.605-.069,5.211-.025,7.818-.028a2.345,2.345,0,0,1,1.586.382l9.88.009c1.765.13,3.551-.206,5.3.2a7.93,7.93,0,0,1,5.974,10.2c-2.6,8.719-7.713,15.759-14.528,21.66a60.171,60.171,0,0,1-11.558,7.848,1.439,1.439,0,0,0-.85,1.286c-.913,7.647-6.226,12.347-13.908,12.348q-23.176,0-46.351,0a13.2,13.2,0,0,1-13.329-10.647,15.089,15.089,0,0,1-.187-1.539" transform="translate(-29.184 -50.14)" fill="#b5afa1"/>
        <path id="Trazado_128562" data-name="Trazado 128562" d="M30.707,72.328q-9.143.025-18.287.041a4.935,4.935,0,0,1-1-.208,8.458,8.458,0,0,1-5.1-8.793,4.639,4.639,0,0,0-2.236-4.129c-.516-.39-1.09-.7-1.616-1.078a5.292,5.292,0,0,1-2.3-5.625A5.782,5.782,0,0,1,5.2,48.478a9.406,9.406,0,0,1,2.449.142A5.769,5.769,0,0,0,13.347,47a7.832,7.832,0,0,1,2.118-1.652c3.29-1.61,7.469.041,9.175,2.666,1.51,2.323,2.734,2.7,5.406,2.138.914-.193,1.872-.5,2.7.284.183.426-.058.762-.273,1.075a21.536,21.536,0,0,0-3.057,6.974c-.074.292-.137.6-.49.7-.488-.234-.526-.764-.751-1.166-1.388-2.475-4.036-2.91-6.053-.942-1.855,1.81-3.726,3.608-5.485,5.51a3.674,3.674,0,1,0,5.259,5.131c2.037-1.866,4.007-3.806,5.851-5.869.253-.283.369-1,1.019-.455.356,1.178.07,2.395.239,3.587a28.934,28.934,0,0,0,1.514,5.984c.159.431.43.861.193,1.355" transform="translate(0 -22.516)" fill="#4fe167"/>
        <path id="Trazado_128563" data-name="Trazado 128563" d="M48.395,36.866a4.715,4.715,0,0,0-3.171.08,4.241,4.241,0,0,1-4.763-1.755c-2.086-3.387-5.071-4.317-8.792-3.528a2.759,2.759,0,0,1-.517.012,8.93,8.93,0,0,1,6.71-2.1c4.127.352,5.762-.585,7.537-4.329a10.674,10.674,0,0,1,12.127-5.663c.292.07.587.128.881.191.659-.034.974.491,1.362.868,1.482,1.44,2.881,2.968,4.412,4.355a3.9,3.9,0,0,0,4.893.176,3.651,3.651,0,0,0,.847-4.666c-.167-.343-.432-.655-.34-1.079,2.9-2.122,6.074-2.288,9.4-1.29.45.34.207.8.181,1.2A21.589,21.589,0,0,0,81.5,31.4a19.929,19.929,0,0,0,8.214,8.229c.821.442,1.813.63,2.382,1.481A4.807,4.807,0,0,1,89,44c-1.2.446-2.445.793-3.67,1.185-.572-.316-.582-.927-.741-1.449a20.066,20.066,0,0,0-17.647-14.6A19.67,19.67,0,0,0,50.77,34.836c-.754.71-1.231,1.77-2.375,2.03" transform="translate(-15.686 -8.838)" fill="#00af4b"/>
        <path id="Trazado_128564" data-name="Trazado 128564" d="M158.109,20.989a10.739,10.739,0,0,0-10.389,3.132,10.39,10.39,0,0,0-2.756,5.452c-.556.339-1-.04-1.441-.26a17.05,17.05,0,0,1-8.507-20A16.281,16.281,0,0,1,137.562,4.1c.525-.686.965-1.581,2.048-1.586l7.979,7.89c.127.45-.21.717-.413,1.035a5.019,5.019,0,0,0,.449,6.024,5.17,5.17,0,0,0,5.948,1.186c.529-.246.969-.779,1.658-.568l2.879,2.9" transform="translate(-67.624 -1.268)" fill="#fe5368"/>
        <path id="Trazado_128565" data-name="Trazado 128565" d="M135.934,1.25c-2.745,2.137-4.021,5.163-4.636,8.4a16.313,16.313,0,0,0,4.822,15.32,14.061,14.061,0,0,0,5.168,3.333c-.122,1.368.054,2.805-.934,3.969-9.611-4.022-14.567-12.709-13.1-22.971a23.2,23.2,0,0,1,2.912-7.52c1.229-2.039,4.363-2.48,5.773-.533" transform="translate(-63.947 0)" fill="#c4324f"/>
        <path id="Trazado_128566" data-name="Trazado 128566" d="M95.887,14.489a4.11,4.11,0,0,1,.6,5.009,3.938,3.938,0,0,1-4.227,1.813,4.265,4.265,0,0,1-2.305-1.326c-1.739-1.727-3.5-3.436-5.244-5.151-1.643-2.155-1.753-4.138-.317-5.743a4,4,0,0,1,5.874-.142c1.893,1.825,3.747,3.692,5.618,5.54" transform="translate(-41.991 -3.896)" fill="#fe7e40"/>
        <path id="Trazado_128567" data-name="Trazado 128567" d="M167.079,26.087a6.813,6.813,0,0,1-4.068,1.378,5,5,0,0,1-4.646-3.124,4.774,4.774,0,0,1,.848-5.617,2.4,2.4,0,0,0,.225-.314,96.528,96.528,0,0,1,7.641,7.677" transform="translate(-79.472 -9.27)" fill="#fe7c8b"/>
        <path id="Trazado_128568" data-name="Trazado 128568" d="M86.785,73.663l-2.586,0a4.591,4.591,0,0,1,1.135-5.527,4.9,4.9,0,0,0,.036-7.329,4.05,4.05,0,0,1-1.559-3.719,16.033,16.033,0,0,0-.036-2.981c-.138-1.181-.856-2-1.686-2A2,2,0,0,0,80.4,54.24c-.061,1.3-.029,2.6-.017,3.892a2.418,2.418,0,0,1-1.042,2.1c-3,2.313-3.059,5.945-.1,8.242A2.554,2.554,0,0,1,80.38,70.9c-.089.924.278,1.911-.37,2.76l-2.764-.012c-.08-1.944-1.548-2.954-2.795-4.1a1.324,1.324,0,0,0-1.962.1,1.506,1.506,0,0,0-.416,1.956c.348.718,1.19,1.145,1.185,2.057l-5.193-.007a10.618,10.618,0,0,1-2.793-6.287c-.561-4.209-.138-8.33,2.309-11.962,3.836-5.7,9.183-8.672,16.1-7.962,6.748.693,11.495,4.39,14.216,10.634a16.074,16.074,0,0,1,1.052,3.6,2.366,2.366,0,0,1-.2,1.636A11.4,11.4,0,0,0,96.9,72.382a2.309,2.309,0,0,1-.761,1.282l-5.215.005c-.064-.692.5-1.06.809-1.559a1.849,1.849,0,0,0-.155-2.568c-.749-.608-1.574-.424-2.486.515a7.215,7.215,0,0,0-2.306,3.606" transform="translate(-32.757 -23.839)" fill="#fe5368"/>
        <path id="Trazado_128569" data-name="Trazado 128569" d="M94.776,59.573C94.521,52.215,88.245,45.43,81,44.181A16.767,16.767,0,0,0,61.99,56.254a16.287,16.287,0,0,0,1.772,12.969,6.809,6.809,0,0,1,.326.688l-4.6-.006a23.263,23.263,0,0,1-2.145-11.09,2,2,0,0,1,.3-2.149,25.485,25.485,0,0,1,3.848-8.545,21.8,21.8,0,0,1,11.468-7.562A20.777,20.777,0,0,1,98.131,55.312c.1.376.192.753.288,1.129a16.125,16.125,0,0,0-3.644,3.132" transform="translate(-28.778 -20.092)" fill="#c4324f"/>
        <path id="Trazado_128570" data-name="Trazado 128570" d="M180.065,87.331l-19,.026c.539-7.755,8.34-14.113,16.146-12.661,3.465,1.191,5.02,3.769,4.563,7.471-.227,1.843-.456,3.669-1.712,5.164" transform="translate(-81.104 -37.507)" fill="#fe5368"/>
        <path id="Trazado_128571" data-name="Trazado 128571" d="M207.707,51.2c1.3,0,2.591-.022,3.886,0a4,4,0,0,1,.332,7.984c-2.844.135-5.7.133-8.547,0a4,4,0,0,1,.313-7.983c1.338-.027,2.677,0,4.016-.006" transform="translate(-100.559 -25.777)" fill="#fe7e40"/>
        <path id="Trazado_128572" data-name="Trazado 128572" d="M196.441,87.541a25.73,25.73,0,0,0,1.372-5.2c.272-3.376-.775-5.585-3.793-7.157-.15-.078-.286-.182-.429-.275a14.157,14.157,0,0,1,12.229,12.646l-9.378-.011" transform="translate(-97.48 -37.718)" fill="#c4324f"/>
        <path id="Trazado_128573" data-name="Trazado 128573" d="M127.664,99.061a1.778,1.778,0,0,1,.761-1.281l.507,1.273-1.268.008" transform="translate(-64.284 -49.236)" fill="#c14053"/>
        <path id="Trazado_128574" data-name="Trazado 128574" d="M91.789,78.019c.006-.476-.008-.953.021-1.428a4.128,4.128,0,0,0-1.635-4.071c-2.613-2.032-2.149-6.275.619-8.114a2,2,0,0,0,1.033-2.013c-.077-1.294-.032-2.6-.015-3.894A2.491,2.491,0,0,1,93.8,55.993a2.37,2.37,0,0,1,2.136,2.362c.071,1.425.048,2.856.009,4.283a1.748,1.748,0,0,0,.876,1.712c3.426,2.232,2.785,7.356-.054,8.842a1.48,1.48,0,0,0-.821,1.585c.046,1.08.024,2.163.031,3.245l-4.188,0" transform="translate(-44.536 -28.194)" fill="#fe7b8a"/>
        <path id="Trazado_128575" data-name="Trazado 128575" d="M79.774,95.407c-.5-.641-1.054-1.25-1.49-1.933a1.73,1.73,0,0,1,.516-2.4,1.63,1.63,0,0,1,2.334-.111A26.881,26.881,0,0,1,83.5,93.339a1.811,1.811,0,0,1,.258,2.055l-3.986.013" transform="translate(-39.27 -45.581)" fill="#fece5d"/>
        <path id="Trazado_128576" data-name="Trazado 128576" d="M108.825,95.436a6.113,6.113,0,0,1,3.333-4.751,1.752,1.752,0,0,1,2.045.718,1.937,1.937,0,0,1,.095,2.3,16.36,16.36,0,0,1-1.335,1.738l-4.138-.006" transform="translate(-54.797 -45.612)" fill="#fece5d"/>
        <path id="Trazado_128577" data-name="Trazado 128577" d="M44.26,70.053a6.7,6.7,0,0,1-.3,2.149,58.593,58.593,0,0,1-6.879,7.04,3.864,3.864,0,0,1-5.487-.389,4.033,4.033,0,0,1,.174-5.53c1.745-1.806,3.555-3.547,5.313-5.34a4.077,4.077,0,0,1,7.178,2.07" transform="translate(-15.399 -33.479)" fill="#fe7e40"/>
        <path id="Trazado_128578" data-name="Trazado 128578" d="M149.727,35.051a2.024,2.024,0,0,1,1.227.624c.64.639,1.286,1.272,1.916,1.92a1.957,1.957,0,0,1-2.45,3.042,6.839,6.839,0,0,1-2.678-2.9,1.976,1.976,0,0,1,1.984-2.69" transform="translate(-74.316 -17.649)" fill="#fece5d"/>
        <path id="Trazado_128579" data-name="Trazado 128579" d="M147.223,22.821c0,.431.012.863,0,1.293a1.949,1.949,0,0,1-3.894.146,20.858,20.858,0,0,1-.005-3.1,1.939,1.939,0,0,1,1.992-1.814,1.976,1.976,0,0,1,1.891,1.923c.034.515.006,1.035.006,1.552h.014" transform="translate(-72.14 -9.741)" fill="#fece5d"/>
        <path id="Trazado_128580" data-name="Trazado 128580" d="M116.661,78.109a10.33,10.33,0,0,1,.009-1.419,1.9,1.9,0,0,1,1.865-1.807,1.876,1.876,0,0,1,2.014,1.473,7.118,7.118,0,0,1,.025,3.7,1.776,1.776,0,0,1-2.041,1.536,1.88,1.88,0,0,1-1.858-1.8,12.936,12.936,0,0,1-.014-1.677" transform="translate(-58.732 -37.704)" fill="#fece5d"/>
        <path id="Trazado_128581" data-name="Trazado 128581" d="M83.966,62.692c.028,1.178-2.751,4-3.929,3.981a1.94,1.94,0,0,1-1.714-2.932A7.725,7.725,0,0,1,81.015,61a1.953,1.953,0,0,1,2.95,1.69" transform="translate(-39.294 -30.578)" fill="#fece5d"/>
        <path id="Trazado_128582" data-name="Trazado 128582" d="M73.792,78.162a9.3,9.3,0,0,1,.012-1.417,2.223,2.223,0,0,1,2.254-1.89,2.266,2.266,0,0,1,1.794,2.462,5.291,5.291,0,0,0-.024,1.649,2.085,2.085,0,0,1-1.684,2.6,2.061,2.061,0,0,1-2.367-2.117c-.041-.426-.006-.859-.006-1.29h.022" transform="translate(-37.139 -37.685)" fill="#fecd5d"/>
        <path id="Trazado_128583" data-name="Trazado 128583" d="M112.345,66.652a1.817,1.817,0,0,1-1.153-.583c-.644-.637-1.305-1.262-1.907-1.938a2.012,2.012,0,0,1-.019-2.8,1.864,1.864,0,0,1,2.772-.079,17.512,17.512,0,0,1,2.075,2.129,2.088,2.088,0,0,1,.179,2.322c-.336.7-.958.951-1.946.953" transform="translate(-54.738 -30.549)" fill="#fece5d"/>
      </g>
    </g>
  </g>
</svg>
