<svg xmlns="http://www.w3.org/2000/svg" xmlns:xlink="http://www.w3.org/1999/xlink" width="240.048" height="255.473" viewBox="0 0 240.048 255.473">
  <defs>
    <clipPath id="clip-path">
      <rect id="Rect치ngulo_37504" data-name="Rect치ngulo 37504" width="208.472" height="160.356" fill="none"/>
    </clipPath>
  </defs>
  <g id="Grupo_157884" data-name="Grupo 157884" transform="translate(-0.048 -33)">
    <g id="Grupo_87689" data-name="Grupo 87689" transform="translate(0.048 33)">
      <g id="Grupo_87397" data-name="Grupo 87397">
        <path id="Rect치ngulo_34437" data-name="Rect치ngulo 34437" d="M0,0H163.048a77,77,0,0,1,77,77V255.472a0,0,0,0,1,0,0H0a0,0,0,0,1,0,0V0A0,0,0,0,1,0,0Z" fill="#ffdfe0"/>
      </g>
    </g>
    <g id="Grupo_157897" data-name="Grupo 157897" transform="translate(16.048 81)">
      <g id="Grupo_157897-2" data-name="Grupo 157897" clip-path="url(#clip-path)">
        <path id="Trazado_130137" data-name="Trazado 130137" d="M178.3,154.165c-.541-.654-.3-1.432-.306-2.153-.024-4.2-.087-8.411.027-12.612.044-1.589-.508-2.089-1.972-1.87a4.116,4.116,0,0,1-.61,0q-71.2,0-142.4-.043c-1.972,0-2.72.347-2.609,2.514.2,3.99.07,8,.045,12,0,.721.24,1.5-.312,2.15-.79-.75-.646-1.744-.655-2.673-.033-3.661.013-7.322-.024-10.983-.022-2.236-.223-2.385-2.458-2.464-3.043-.108-6.1.253-9.132-.195-1.7-.64-3.469-.244-5.2-.286-2.965-.071-5.934-.081-8.9.005A4.509,4.509,0,0,1,0,136.178V102.385c.388-1.673,1.53-2.251,3.143-2.256,2.644-.01,5.289.015,7.933-.016,2.355-.027,2.524-.18,2.529-2.576.019-8.679,0-17.359.013-26.038a10.128,10.128,0,0,1,.241-3.233,1.214,1.214,0,0,1,.505-.587.719.719,0,0,1,.616.424,7.872,7.872,0,0,1,.325,3.212c.012,8.613,0,17.225.011,25.837,0,2.849.1,2.939,2.993,2.947,11.257.031,22.513-.044,33.77.033,4.35-.018,8.7-.084,13.051.02q6.943-.118,13.887,0,18.878-.132,37.753,0c4.218-.069,8.435-.084,12.653,0,4.571-.062,9.143-.085,13.715.006l.787.012c15.469.022,30.937.035,46.407-.076,2.695-.019,2.808-.129,2.811-2.925.013-8.685,0-17.369.013-26.054a5.921,5.921,0,0,1,.447-3.181.507.507,0,0,1,.689-.152c.728.946.555,2.068.557,3.136q.027,13.022,0,26.046a7.6,7.6,0,0,0,1.068,4.662,4.97,4.97,0,0,1,.563,2.956q.016,14.447.008,28.894a10.7,10.7,0,0,1-.532,3.257c2.652.038,5.191-.015,7.727.031.993.017,2.065-.177,2.858.7-4.2.6-8.407.258-12.612.175-1.131-.023-2.265-.32-3.359.2-2.969.446-5.955.1-8.933.191-2.482.076-2.643.187-2.662,2.679-.026,3.595.013,7.19-.019,10.785-.009.929.137,1.925-.661,2.671" transform="translate(0 5.101)" fill="#d67e4a"/>
        <path id="Trazado_130138" data-name="Trazado 130138" d="M0,29.647c.793-1.421,2.037-1.708,3.585-1.7,14.139.044,28.278.027,42.418.027a1.453,1.453,0,0,1,.537,1.064c.105,5.077.4,10.156-.155,15.227-.762,1.329-2.087,1.068-3.259,1.074-8.112.035-16.223.009-24.334.022-1.436,0-2.906-.044-3.581,1.633a5.678,5.678,0,0,0-.385,2.786c0,6.1.006,12.19-.009,18.286a3.738,3.738,0,0,1-.554,2.715l0,.005a3.3,3.3,0,0,1-2.3.587c-1.688.017-3.386.122-5.062-.02A20.369,20.369,0,0,0,0,72.4Z" transform="translate(0 2.106)" fill="#ab5e2e"/>
        <path id="Trazado_130139" data-name="Trazado 130139" d="M0,69.4A6.373,6.373,0,0,1,4.781,67.75c3.157.092,6.319.03,9.478.033,0,10.286-.043,20.572.03,30.857.012,1.712-.51,2.216-2.181,2.142-2.837-.125-5.686.047-8.523-.066A3.514,3.514,0,0,0,0,102.378Z" transform="translate(0 5.106)" fill="#c76d36"/>
        <path id="Trazado_130140" data-name="Trazado 130140" d="M42.825,46.42q-.024-8.172-.047-16.344.029-13.017.058-26.035c.006-3.289.75-4.024,4.078-4.021Q63.185.04,79.455.066C80.886.636,81.188,1.86,81.23,3.2c.074,2.367.023,4.735.03,7.1a26.439,26.439,0,0,0,.505,6.942,4.91,4.91,0,0,1-2.957.48c-7.117.016-14.234,0-21.349.014-3.207.008-3.43.252-3.448,3.494-.009,1.695-.016,3.39,0,5.083.033,2.982.56,3.508,3.613,3.563,1.965.035,3.931.009,5.9.01,4.745,0,9.489-.01,14.233.009a4.918,4.918,0,0,1,2.955.505,4.065,4.065,0,0,1,.567,2.72c.025,3.111,0,6.223.011,9.334.006,3.3.01,3.3,3.223,3.311,2.029.006,4.058-.013,6.088.01a4.395,4.395,0,0,1,2.554.465.488.488,0,0,1,.077.684,4.286,4.286,0,0,1-2.742.523c-3.595.025-7.19-.023-10.784.022-2.62.032-3.248.619-3.276,3.265-.069,6.375-.009,12.751-.034,19.127,0,1.07.153,2.188-.568,3.139a2.508,2.508,0,0,1-1.529.48c-3.66.078-7.32.091-10.981-.006a2.569,2.569,0,0,1-1.35-.4c-.846-.89-.667-2.023-.671-3.087-.025-6.174.006-12.347-.018-18.521-.015-3.592-.826-4.39-4.47-4.417q-4.578-.034-9.156-.009c-1.658.174-3.412,1.081-4.827-.624" transform="translate(3.224 0.002)" fill="#fd646f"/>
        <path id="Trazado_130141" data-name="Trazado 130141" d="M104.091,30.062q.034-13.3.068-26.6c0-1.3-.068-2.634,1.581-3.091A3.488,3.488,0,0,1,107.535.2q15.75-.015,31.5-.005c2.636,0,3.51.781,3.606,3.493.129,3.655.1,7.316.011,10.972-.053,2.113-.554,2.56-2.764,2.574-6.977.046-13.955.011-20.932.022a4.592,4.592,0,0,0-2.567.393c-1.043.54-.98,1.539-.993,2.477-.032,2.3-.045,4.6,0,6.9.046,2.346.49,2.822,2.915,2.845,6.9.065,13.791.009,20.686.033a4.976,4.976,0,0,1,3.139.536,2.356,2.356,0,0,1,.483,1.507c.008,4.621.241,9.245-.125,13.862a1.949,1.949,0,0,1-.326.646c-1.309.926-2.89.181-4.266.694a2.591,2.591,0,0,0-1.734,2.051c-.189,6.923-.018,13.841-.088,20.759a4.992,4.992,0,0,1-.433,2.968,3.633,3.633,0,0,1-2.526.509c-2.709.022-5.418.011-8.127.008-3.768-.006-3.954-.189-3.962-4.062q-.019-9.244,0-18.488c0-1.665-.259-3.129-2.11-3.716-3.843-.425-7.693-.129-11.538-.156-1.14-.009-2.31.194-3.334-.537a3.384,3.384,0,0,1-.528-2.127q-.05-6.086,0-12.172a3.385,3.385,0,0,1,.571-2.116" transform="translate(7.801 0.013)" fill="#00f1a5"/>
        <path id="Trazado_130142" data-name="Trazado 130142" d="M182.864,70.839l-.249-.06c-1.039-.79-.777-1.951-.783-2.991-.034-6.226-.005-12.454-.022-18.68-.009-3.4-.349-3.739-3.7-3.748-3.181-.009-6.361-.008-9.543-.016-5.006.053-10.012.025-15.018.015a3.944,3.944,0,0,1-2.53-.548,3.166,3.166,0,0,1-.472-2.118q-.029-6.251,0-12.5c.005-.789-.108-1.641.638-2.231q21.151,0,42.3.012c2.932,0,3.634.677,3.63,3.541q-.021,20.438-.06,40.873c-3.864-1.488-7.9-.909-11.886-1.015a3.543,3.543,0,0,1-2.3-.531" transform="translate(11.346 2.107)" fill="#ab5e2e"/>
        <path id="Trazado_130143" data-name="Trazado 130143" d="M180.6,67.838c3.459-.02,6.92-.028,10.38-.069a5.425,5.425,0,0,1,3.809,1.615q.032,14.524.061,29.047c.011,11.986-.005,23.972.013,35.958,0,1.471-.216,2.717-1.93,3.068H180.793c1.663-1.326,1.438-2.7,1.438-4.036q0-14.543.011-29.088c0-1.249.014-2.422-1.111-3.295-.751-.582-.525-1.488-.525-2.283q-.013-15.46-.008-30.919" transform="translate(13.611 5.108)" fill="#c76d36"/>
        <path id="Trazado_130144" data-name="Trazado 130144" d="M141.865,46.391l.006-15.907c1.856-2.108,1.4-4.679,1.4-7.144,0-5.981.461-5.609-5.6-5.615-6.363-.005-12.727.018-19.09-.02-.964-.005-2.073.273-2.762-.79a4.342,4.342,0,0,1,2.2-.216c7.316-.013,14.632-.048,21.947.025,1.538.015,1.98-.47,1.941-1.972-.1-3.724-.01-7.451-.04-11.176-.019-2.392-.814-3.165-3.156-3.168Q122.145.39,105.583.387c.573-.531,1.285-.326,1.938-.327Q129.242.022,150.963,0c1.353,0,2.587.109,3.138,1.611a3.463,3.463,0,0,1,.179,1.8q.013,20.559,0,41.116c0,2.265-.137,2.421-2.4,2.452-2.645.037-5.292.027-7.937,0a2.507,2.507,0,0,1-2.082-.585" transform="translate(7.958 0)" fill="#05e29b"/>
        <path id="Trazado_130145" data-name="Trazado 130145" d="M79.31,17.053a2.037,2.037,0,0,1-1.265-2.181c.091-3.7-.016-7.4.061-11.095A5.207,5.207,0,0,0,76.884.067C80.537.048,84.189,0,87.842.022c2.045.014,2.858.9,2.866,3.039q.042,13.5.049,26.992a3.388,3.388,0,0,1,.585,2.113c.027,4.058.043,8.117-.01,12.175a2.422,2.422,0,0,1-.689,2.041c-3.528.008-7.059-.076-10.582.061-1.7.068-2.038-.581-2.012-2.112.078-4.612.023-9.227.017-13.84a4.815,4.815,0,0,0,1.478-4.179c-.106-3.085.125-6.18-.234-9.26" transform="translate(5.795 0.001)" fill="#fc4755"/>
        <path id="Trazado_130146" data-name="Trazado 130146" d="M89.679,44.278l.113-16.331,15.34.02q.048,8.181.095,16.361c-.2,1.01-1.065.961-1.752.981-3.98.112-7.963.09-11.944.015a1.88,1.88,0,0,1-1.779-.754.951.951,0,0,0-.073-.293" transform="translate(6.76 2.107)" fill="#ab5e2e"/>
        <path id="Trazado_130147" data-name="Trazado 130147" d="M16.641,132.955c.515-.637,1.237-.423,1.885-.427,2.765-.019,5.532.069,8.293-.039,1.55-.06,2.117.353,2.085,2.014-.1,4.92-.01,9.844.005,14.766-.287,1-1.1,1.086-1.935,1.088-2.71.008-5.419-.019-8.128.011-1.651.019-2.271-.765-2.254-2.379.057-5.011.038-10.024.047-15.035" transform="translate(1.251 9.986)" fill="#c76d36"/>
        <path id="Trazado_130148" data-name="Trazado 130148" d="M165.8,149.28c.017-4.924.1-9.849.012-14.771-.031-1.653.522-2.082,2.081-2.021,2.762.11,5.531.02,8.3.04.648,0,1.37-.21,1.886.426.01,5.011-.009,10.022.045,15.033.018,1.606-.588,2.4-2.248,2.383-2.709-.033-5.418,0-8.127-.013-.836,0-1.645-.089-1.946-1.076" transform="translate(12.497 9.986)" fill="#c76d36"/>
        <path id="Trazado_130149" data-name="Trazado 130149" d="M139.325,46.278c3.384.008,6.772-.08,10.149.059,1.755.072,2.124-.572,2.117-2.2-.056-14.211-.031-28.423-.031-42.635.671.677.385,1.536.389,2.313q.063,13.071.08,26.141.008,8.335.015,16.668a1.114,1.114,0,0,1-.821.538c-3.889.211-7.78.532-11.655-.181a.482.482,0,0,1-.232-.666Z" transform="translate(10.499 0.113)" fill="#35d5a9"/>
        <path id="Trazado_130150" data-name="Trazado 130150" d="M91.023,43.423c4.85.026,9.7.058,14.551.063a3.118,3.118,0,0,0,.924-.305l14.947.152c-.5,1.009-1.472.805-2.3.829-2.1.062-4.2.059-6.292.005-1.081-.027-1.267.218-1.127,1.384.54,4.507.241,9.046.181,13.574a1.849,1.849,0,0,1-.517,1.293,5.613,5.613,0,0,1-3.17.475c-6.716.017-13.431,0-20.147.014-3.092.009-3.322.26-3.339,3.394-.01,1.967-.028,3.935.008,5.9.044,2.438.39,2.815,2.88,2.831,6.919.046,13.838,0,20.758.027,1.069,0,2.189-.154,3.131.588a4.53,4.53,0,0,1,.511,2.736q.021,11.627,0,23.253c0,.99.153,2.048-.655,2.867l-37.781.06a3.261,3.261,0,0,1-.731-2.646q-.026-13.877,0-27.753a3.352,3.352,0,0,1,.613-2.491q.032-11.256.063-22.512c.01-3.022.65-3.637,3.713-3.652q6.893-.034,13.785-.087" transform="translate(5.49 3.255)" fill="#7ca0b0"/>
        <path id="Trazado_130151" data-name="Trazado 130151" d="M45.04,43.168a7.455,7.455,0,0,0,4.481.114,2.811,2.811,0,0,1,2.424,2.636,106.082,106.082,0,0,1,.042,13.587,1.5,1.5,0,0,1-.439.9,5.457,5.457,0,0,1-3.164.491c-6.717.016-13.433-.005-20.148.013-3.108.009-3.34.258-3.357,3.375-.01,1.967-.028,3.935.006,5.9.043,2.452.388,2.834,2.862,2.85,6.92.048,13.839,0,20.759.027,1.07,0,2.188-.152,3.138.574a4.462,4.462,0,0,1,.519,2.739q.021,11.554-.008,23.108c0,1.116.191,2.355-1.039,3.084-11.848.01-23.7-.018-35.545.071-1.759.014-1.952-.7-1.948-2.152.031-10.291,0-20.583-.017-30.874a72.158,72.158,0,0,1-.138-8.865c.019-5.045-.2-10.092.12-15.135.331-1.943,1.74-2.13,3.344-2.127q12.979.029,25.957,0c.722,0,1.5.222,2.149-.314" transform="translate(1.01 3.254)" fill="#fdc065"/>
        <path id="Trazado_130152" data-name="Trazado 130152" d="M169.883,43.493c3.727-.033,7.456-.13,11.182-.073,2.027.031,2.715.924,2.722,3.2.019,6.919,0,13.839.012,20.76,0,.744.055,1.487.085,2.231-.032,10.164-.138,20.327-.035,30.489.022,2.136-.611,2.509-2.586,2.5-15.113-.084-30.227-.043-45.339-.047-.742,0-1.485-.062-2.227-.1a.634.634,0,0,1,.391-.618,8.087,8.087,0,0,1,3.21-.306q15.027-.018,30.057-.01c3.043,0,3.094-.053,3.1-3.029.009-7.244,0-14.487.006-21.73a7.518,7.518,0,0,1,.3-2.808,5.094,5.094,0,0,0,1.825-4.85,34.624,34.624,0,0,1,0-4.875,4.206,4.206,0,0,0-1.72-4.067c-.6-1.361-.328-2.8-.37-4.207-.125-4.157.362-8.346-.6-12.464" transform="translate(10.077 3.272)" fill="#01bff9"/>
        <path id="Trazado_130153" data-name="Trazado 130153" d="M108.76,60.195c0-4.115-.023-8.232-.006-12.347.005-1.419.076-2.834-1.217-4.145,3.979-.459,7.664.219,11.293-.382,1.832.315,2.578,1.384,2.563,3.254-.053,7.037.017,14.077-.053,21.115-.014,1.465.31,2.02,1.892,1.972,3.99-.12,7.985-.055,11.978-.063a.482.482,0,0,1-.2.665c-2.582.8-5.234.323-7.852.384-5.689.133-5.109-.642-5.128,5.1-.028,7.915,0,15.83-.016,23.744,0,1.064.167,2.192-.7,3.071l-12.569-.066q.011-14.366.023-28.731a4.881,4.881,0,0,0,1.459-4.175c-.085-1.738-.079-3.485,0-5.224a4.776,4.776,0,0,0-1.463-4.169" transform="translate(8.106 3.265)" fill="#678c97"/>
        <path id="Trazado_130154" data-name="Trazado 130154" d="M48.993,60.213c-.006-4.136-.069-8.272.008-12.407.034-1.883-.391-3.44-2.012-4.527,3.649-.029,7.3-.116,10.945-.069,2.638.033,3.644,1.135,3.653,3.764q.037,11.356.045,22.713a2.73,2.73,0,0,1,.611,2.079q.06,14.277.008,28.553a3.077,3.077,0,0,1-.67,2.271l-12.995-.027a4.481,4.481,0,0,0,.388-2.571q.015-13.116.024-26.231a5.2,5.2,0,0,0,1.464-4.24,43.7,43.7,0,0,1,0-4.865,5.472,5.472,0,0,0-1.47-4.443" transform="translate(3.542 3.256)" fill="#fcb341"/>
        <path id="Trazado_130155" data-name="Trazado 130155" d="M60.557,100.734q.026-16.452.052-32.9,6.889,0,13.778-.014.029,14.621.062,29.239c0,1.217.034,2.435.053,3.652l-13.944.027" transform="translate(4.565 5.112)" fill="#c76d36"/>
        <path id="Trazado_130156" data-name="Trazado 130156" d="M120.345,100.694c.018-10.076.079-20.154.014-30.229-.011-1.8.38-2.467,2.315-2.387,3.848.159,7.707.042,11.562.039.732.705.573,1.631.575,2.494q.026,13.734.015,27.467a6.7,6.7,0,0,1-.454,2.579l-14.028.038" transform="translate(9.071 5.131)" fill="#c76d36"/>
        <path id="Trazado_130157" data-name="Trazado 130157" d="M133.4,102.392q-.029-14.95-.058-29.9c0-.88-.053-1.759-.08-2.639a1.249,1.249,0,0,0,.005-.385q0-11.158.016-22.314c0-.713-.261-1.5.375-2.115a3.334,3.334,0,0,1,.673,2.671q.029,25.9.005,51.8a4.047,4.047,0,0,1-.522,2.54,1.589,1.589,0,0,1-.087.288,1.12,1.12,0,0,1-.329.057" transform="translate(10.043 3.395)" fill="#40d4bf"/>
        <path id="Trazado_130158" data-name="Trazado 130158" d="M13.6,45.439q.008,12,.017,24c-.118.01-.237.017-.354.02q-.006-11.045,0-22.091c0-.652-.209-1.365.341-1.929" transform="translate(0.997 3.425)" fill="#c76d36"/>
        <path id="Trazado_130159" data-name="Trazado 130159" d="M81.138,15.864a2.225,2.225,0,0,1,.875,2.13c-.016,2.9-.071,5.811.019,8.714A2.179,2.179,0,0,1,79.894,29.3q-11.788-.037-23.575-.073c-3.364-.01-3.66-.309-3.661-3.738,0-2.371.053-4.745-.016-7.114-.053-1.777.593-2.6,2.477-2.587,8.672.067,17.346.056,26.019.073" transform="translate(3.968 1.19)" fill="#f2eff2"/>
        <path id="Trazado_130160" data-name="Trazado 130160" d="M133.79,102.176c-.034-.876-.1-1.754-.1-2.63q-.037-27.188-.061-54.377a1.771,1.771,0,0,1,1.658-1.637,12.727,12.727,0,0,1,4.472-.022l12.708-.041,17.417.03a5.163,5.163,0,0,1,1.258,3.885c-.1,4.266-.034,8.535-.032,12.8-.865.914-2.008.683-3.059.687-6.564.028-13.127,0-19.692.017-3.623.009-3.878.282-3.887,3.975,0,1.759-.032,3.519.012,5.278.065,2.413.475,2.863,2.879,2.879,6.834.045,13.669,0,20.5.032,1.113.005,2.332-.284,3.245.714,0,8.752-.042,17.506.032,26.259.014,1.659-.413,2.2-2.141,2.194-11.739-.075-23.475-.044-35.214-.046" transform="translate(10.073 3.266)" fill="#01cffa"/>
        <path id="Trazado_130161" data-name="Trazado 130161" d="M115.193,15.729q12.508.032,25.014.065c2.8.009,3.031.239,3.038,3.006.005,2.577-.061,5.154.025,7.728.051,1.539-.505,2.465-2.025,2.771q-11.985-.05-23.97-.1c-3.186-.012-3.373-.188-3.377-3.292,0-2.641.022-5.283-.01-7.924-.012-1.044.226-1.874,1.3-2.255" transform="translate(8.584 1.186)" fill="#f2eff2"/>
        <path id="Trazado_130162" data-name="Trazado 130162" d="M139.646,43.526l-4.472.023c1.433-.821,2.986-.2,4.472-.373,0,.117,0,.233,0,.351" transform="translate(10.189 3.25)" fill="#30deaf"/>
        <path id="Trazado_130163" data-name="Trazado 130163" d="M110.588,59.012c1.512.111,2.074.954,2.048,2.428q-.079,4.355,0,8.712c.026,1.466-.518,2.326-2.042,2.428q-12.2-.034-24.409-.071c-2.608-.008-2.886-.293-2.894-2.948q-.008-3.765,0-7.528c.008-2.668.282-2.951,2.89-2.958q12.2-.035,24.409-.063" transform="translate(6.278 4.448)" fill="#f2eff2"/>
        <path id="Trazado_130164" data-name="Trazado 130164" d="M50.769,59.02c1.506.191,1.991,1.14,1.977,2.544-.028,2.828-.013,5.656-.006,8.485,0,1.361-.385,2.4-1.966,2.52q-12.19-.031-24.38-.06c-2.768-.008-2.971-.216-2.978-3.055q-.006-3.555,0-7.111c0-3.14.135-3.264,3.379-3.269q11.987-.024,23.974-.053" transform="translate(1.765 4.449)" fill="#f2eff2"/>
        <path id="Trazado_130165" data-name="Trazado 130165" d="M170.393,72.588q-12.092-.037-24.184-.074c-2.7-.009-3.02-.324-3.028-3.048-.008-2.507-.012-5.014,0-7.521.013-2.415.445-2.856,2.823-2.865q12.193-.045,24.387-.074a2,2,0,0,1,2.153,2.329q-.074,4.465,0,8.932a1.982,1.982,0,0,1-2.152,2.321" transform="translate(10.792 4.448)" fill="#f2eff2"/>
      </g>
    </g>
  </g>
</svg>
