<svg xmlns="http://www.w3.org/2000/svg" width="240.048" height="255.472" viewBox="0 0 240.048 255.472">
  <g id="Grupo_157887" data-name="Grupo 157887" transform="translate(-0.048 -32.501)">
    <g id="Grupo_87689" data-name="Grupo 87689" transform="translate(0.048 32.501)">
      <g id="Grupo_87397" data-name="Grupo 87397">
        <path id="Rectángulo_34437" data-name="Rectángulo 34437" d="M0,0H163.048a77,77,0,0,1,77,77V255.472a0,0,0,0,1,0,0H0a0,0,0,0,1,0,0V0A0,0,0,0,1,0,0Z" fill="#ffdfe0"/>
      </g>
    </g>
    <g id="Grupo_157898" data-name="Grupo 157898" transform="translate(19.548 71.282)">
      <g id="Grupo_157899" data-name="Grupo 157899" transform="translate(0.5 -0.499)">
        <path id="Trazado_130166" data-name="Trazado 130166" d="M211.006,425.2h-161c-.281-1.025.514-1.539,1.069-2.118,5.647-5.889,11.237-11.833,16.867-17.738Q79.2,393.536,90.4,381.663c3.143-3.351,6.566-6.448,9.43-10.062a5.016,5.016,0,0,1,4.25-1.9q26.43.046,52.861,0a5.541,5.541,0,0,1,4.4,2.03c4.474,4.948,9.18,9.679,13.731,14.552,8.221,8.8,16.629,17.424,24.831,26.244,3.217,3.459,6.5,6.864,9.768,10.281.635.665,1.61,1.2,1.344,2.393" transform="translate(-30.835 -225.14)" fill="#afafaf"/>
        <path id="Trazado_130167" data-name="Trazado 130167" d="M1.289,200.467H.9a3.027,3.027,0,0,1-.186-1.71Q.7,100.605.708,2.453a6.468,6.468,0,0,1,.043-.965c1.292-.7,2.016.45,2.82.993,3.651,2.463,7.13,5.17,10.673,7.786C29.924,21.851,45.677,33.338,61.282,45.024A16.544,16.544,0,0,0,71.974,48.54c19.816-.192,39.634-.1,59.452-.065,1.153,0,2.5-.44,3.364.854a.893.893,0,0,1-.427.552,7.61,7.61,0,0,1-3.445.389q-30.319.013-60.637.007c-3.269,0-3.274.006-3.274,3.358Q67,90.775,67,127.914a12.526,12.526,0,0,1-.185,3.286,3.972,3.972,0,0,1-1.22,2.159c-5.859,6.03-11.455,12.311-17.427,18.232-.668.663-1.343,1.741-2.38,1.37-1.13-.4-.715-1.673-.719-2.584-.051-11.779.035-23.558-.059-35.338a43.015,43.015,0,0,1,.015-7.339c-.211-4.079-.071-8.161-.085-12.242-.027-8.1,0-16.2-.014-24.3-.007-3.627-.494-4.339-3.816-5.673q-11.633-4.669-23.274-9.316a15.594,15.594,0,0,0-1.645-.591c-2.236-.615-3.343-.069-4.247,2.1a8.627,8.627,0,0,0-.36,3.265q0,62.708.052,125.416a8.522,8.522,0,0,1-2.482,6.634c-2.591,2.524-4.835,5.412-7.866,7.473" transform="translate(-0.785 -0.406)" fill="#c4d1ff"/>
        <path id="Trazado_130168" data-name="Trazado 130168" d="M343.006,49.288c0-.126,0-.252,0-.377.236-.995,1.12-1.391,1.836-1.9,16.145-11.584,32.01-23.549,48.036-35.294,4.385-3.214,8.749-6.457,13.139-9.664a8.581,8.581,0,0,1,1.823-1.1.4.4,0,0,1,.5.084q0,98.729-.024,197.458c0,.569.449,1.319-.365,1.751a59.5,59.5,0,0,1-9.544-9.6c-.871-1.047-.749-2.3-.749-3.521q-.008-27.57,0-55.14c0-2.33.012-4.66-.011-6.99-.38-3.036-.019-6.071-.012-9.106q.065-28.067.025-56.133a7.185,7.185,0,0,0-.264-2.3c-.906-2.266-2.073-2.891-4.376-2.178-1.981.613-3.867,1.491-5.79,2.264-6.552,2.634-13.125,5.217-19.671,7.867-1.35.546-2.625,1.16-3.08,2.717a7.5,7.5,0,0,0-.283,2.884q0,39.245-.023,78.49c0,1.1.558,2.66-.7,3.179-1.206.5-2.023-.88-2.818-1.677-5.758-5.775-11.2-11.849-16.892-17.691a4.389,4.389,0,0,1-1.3-2.13,8.8,8.8,0,0,1-.231-2.7q-.006-37.847.005-75.694c0-1.21-.2-2.488.763-3.5" transform="translate(-209.117 -0.181)" fill="#a6bbff"/>
        <path id="Trazado_130169" data-name="Trazado 130169" d="M135.589,219.24l20.305,21.313a3.54,3.54,0,0,0,.345-2.346q.02-40.116.025-80.231c0-.88-.273-1.822.343-2.632,1.035,1,.719,2.3.72,3.49q.033,29.549.016,59.1c0,6.8.025,13.608-.018,20.412a5.636,5.636,0,0,0,1.632,4.167c7.162,7.664,14.456,15.2,21.661,22.827,3.067,3.245,6.148,6.479,9.217,9.634-.08-.793-.094-1.7-.094-2.611q0-27.9.01-55.793a6.6,6.6,0,0,1,.428-3.428.389.389,0,0,1,.592-.135q0,31.171-.033,62.342a4.387,4.387,0,0,0,1.395,3.406c2.513,2.518,4.93,5.134,7.366,7.728.427.454,1.053.795,1.071,1.542H181.9c-1.791-2.3-3.974-4.24-5.917-6.4-3.845-4.283-7.983-8.3-11.962-12.468-7.819-8.185-15.714-16.3-23.366-24.641-3.148-3.43-6.675-6.5-9.531-10.2a3.1,3.1,0,0,0-2.711-1.169q-27.014.044-54.027-.02a4,4,0,0,0-3.373,1.9c-2.694,3.5-6.1,6.324-9.007,9.632-3.883,4.419-8.163,8.488-12.23,12.747-7.729,8.092-15.5,16.149-23.093,24.365-1.926,2.084-4.054,3.993-5.782,6.262H2.237a19.677,19.677,0,0,1,4.9-5.423c3.96-3.286,5.049-7.192,5.021-12.333-.223-40.93-.126-81.861-.114-122.792a5,5,0,0,1,.264-2.665,2.29,2.29,0,0,1,.726,1.924c.057.841.03,1.685.03,2.527q0,61.542.011,123.084a4,4,0,0,0,.245,2.219c1.365-1.381,2.722-2.662,3.992-4.025,8.87-9.529,18.012-18.8,26.846-28.363a5.451,5.451,0,0,0,1.3-4.1q-.008-15.945,0-31.889a5.758,5.758,0,0,1,.465-3.223.464.464,0,0,1,.62-.148v38.118l20.665-21.693a2.5,2.5,0,0,1,2.075-.826c5,.009,10-.178,15,.1,2.585-.265,5.178-.114,7.767-.122,7.9-.023,15.806-.007,23.709-.01a17.276,17.276,0,0,1,2.713.131c5.007-.265,10.017-.092,15.026-.1a2.524,2.524,0,0,1,2.081.824" transform="translate(-1.733 -87.963)" fill="#636363"/>
        <path id="Trazado_130171" data-name="Trazado 130171" d="M104.01,1.3c.388-.019.775-.053,1.163-.053q47.7,0,95.392.011c-2.477,2.581-5.575,4.366-8.411,6.475q-23.532,17.5-47.179,34.851c-3.065,2.255-6.24,4.362-9.364,6.538-21.05,0-42.1-.124-63.15.086a16.261,16.261,0,0,1-10.452-3.5C44.916,33.009,27.726,20.435,10.63,7.733,7.793,5.625,4.714,3.813,2.214,1.261q47.792-.006,95.585-.01c.323,0,.646.034.969.053-.189.918-1.015.907-1.662,1.08a14.815,14.815,0,0,0-4.892,2.3c-5.1,3.683-5.116,10.022-.046,13.723a16.608,16.608,0,0,0,18.449-.005c4.772-3.487,5.069-9.124.7-13.12a13.412,13.412,0,0,0-5.456-2.846c-.7-.2-1.615-.137-1.85-1.131" transform="translate(-1.719 -0.395)" fill="#e1e8ff"/>
        <path id="Trazado_130172" data-name="Trazado 130172" d="M61.942,198.53c0,11.987-.028,23.973.03,35.96a5.174,5.174,0,0,1-1.574,3.928q-11.672,12.327-23.379,24.617c-2.839,3-5.927,5.772-8.607,9.132a3.56,3.56,0,0,1-.277-2.233q-.02-63.464-.014-126.928c0-.842-.034-1.683-.053-2.524.775-2.594,2.507-3.383,5.27-2.29,6.671,2.639,13.325,5.32,19.985,7.985,1.98.793,3.937,1.65,5.945,2.365a4.163,4.163,0,0,1,3.019,4.415c-.039,12.564-.026,25.127-.031,37.691a4.384,4.384,0,0,1-2.117,1.617,62.443,62.443,0,0,0-5.839,3.043c-1.667,1.109-2.073,2.411-1.334,3.761.785,1.434,2.212,1.811,4.031,1.019,1.066-.464,2.077-1.052,3.161-1.474.572-.223,1.163-.677,1.785-.084" transform="translate(-17.49 -83.634)" fill="#a46a43"/>
        <path id="Trazado_130173" data-name="Trazado 130173" d="M237.15,207.116l-17.093-.078a2.692,2.692,0,0,1-.718-1.951c.007-7.227-.19-14.455.1-21.68a44.3,44.3,0,0,1,.007-7.125,34.866,34.866,0,0,1-.126-4.856c-.019-7.263.029-14.526-.027-21.788-.019-2.458-.832-3.277-3.289-3.291q-13.028-.075-26.055,0c-2.558.014-3.307.86-3.312,3.675-.033,17.768,0,35.536-.025,53.3,0,1.273.243,2.623-.736,3.714l-17.091.081q-.019-29.348-.038-58.7-.006-10.2,0-20.408c.006-3.45-.352-3.066,3.164-3.068q29.917-.013,59.835,0,2.72,0,5.439,0-.016,41.085-.032,82.17" transform="translate(-103.294 -75.839)" fill="#95a7e2"/>
        <path id="Trazado_130174" data-name="Trazado 130174" d="M99.243,281.315c-1.568.728-3.133,1.462-4.7,2.183-2.082.955-3.915.481-4.851-1.243-1-1.837-.388-3.715,1.734-4.823,2.678-1.4,5.421-2.672,8.136-4q.027,3.921.054,7.842l-.188-.013Z" transform="translate(-54.79 -166.419)" fill="#bcc2c6"/>
        <path id="Trazado_130175" data-name="Trazado 130175" d="M431.875,208.58v63.613c-5.6-5.626-10.827-11.148-15.987-16.742-3.729-4.042-7.626-7.928-11.429-11.9-1.922-2.008-3.77-4.089-5.721-6.068a3.355,3.355,0,0,1-.689-2.715q-.005-41.316,0-82.632c0-.389-.011-.777-.018-1.166a3.092,3.092,0,0,1,2.187-2.248c8.911-3.569,17.818-7.148,26.746-10.673,2.381-.94,3.809-.269,5,2.1a5.12,5.12,0,0,1,.108,1.732q.008,28.435,0,56.871c0,2.44-.284,2.623-2.532,1.629-1.124-.5-2.189-1.117-3.333-1.571a2.4,2.4,0,0,0-3.244.816,2.653,2.653,0,0,0,.719,3.622c1.823,1.364,4,2.107,5.962,3.226.895.51,2.173.686,2.23,2.109" transform="translate(-243.157 -83.588)" fill="#a46a43"/>
        <path id="Trazado_130176" data-name="Trazado 130176" d="M468.827,212.5c-2.583-1.73-5.489-2.844-8.207-4.317a3.407,3.407,0,0,1-2-3.461A3.194,3.194,0,0,1,460.8,201.8a3.266,3.266,0,0,1,2.8.229c1.388.691,2.785,1.365,4.156,2.088.775.409,1.215.387,1.162-.644-.024-.452,0-.906,0-1.359q0-29.023,0-58.046c.435.5.308,1.1.308,1.673q.005,32.923,0,65.845c0,.323-.047.645-.072.967a1.506,1.506,0,0,0-.319-.051" transform="translate(-280.108 -87.51)" fill="#bcc2c6"/>
        <path id="Trazado_130177" data-name="Trazado 130177" d="M246.824,215.309q-.007,11.9-.014,23.79H212.625q-.019-28.972-.027-57.945c0-2.37,1.218-3.62,3.6-3.63q13.507-.057,27.015,0c2.391.01,3.621,1.25,3.625,3.6.017,9.074-.013,18.148-.026,27.222-.961.922-2.177.633-3.313.679a25.942,25.942,0,0,0-3.479.12c-1.368.242-2.449.846-2.537,2.45a2.706,2.706,0,0,0,2.342,2.869,19.779,19.779,0,0,0,4.242.218c.958.033,1.958-.1,2.76.623" transform="translate(-130.047 -107.9)" fill="#a46a43"/>
        <path id="Trazado_130178" data-name="Trazado 130178" d="M237.7,1.387a20.984,20.984,0,0,1,6.779,2.731c5.806,4.133,5.715,11.193-.219,15.157a17.1,17.1,0,0,1-18.361,0c-6-3.995-6.012-11.181-.056-15.261a21.67,21.67,0,0,1,6.616-2.627H237.7" transform="translate(-135.408 -0.479)" fill="#fed947"/>
        <path id="Trazado_130179" data-name="Trazado 130179" d="M284.474,263.559c-2.009-.005-4.019.015-6.027-.022-2.688-.049-4.173-1.361-4.125-3.585.046-2.159,1.47-3.325,4.11-3.343,2.009-.014,4.018-.008,6.027-.011q.008,3.481.015,6.961" transform="translate(-167.697 -156.15)" fill="#bcc2c6"/>
      </g>
    </g>
  </g>
</svg>
