<svg xmlns="http://www.w3.org/2000/svg" xmlns:xlink="http://www.w3.org/1999/xlink" width="173" height="104" viewBox="0 0 173 104">
  <defs>
    <clipPath id="clip-path">
      <rect id="Rect치ngulo_37361" data-name="Rect치ngulo 37361" width="88.805" height="91.649" fill="none"/>
    </clipPath>
  </defs>
  <g id="Grupo_157516" data-name="Grupo 157516" transform="translate(-313 -2773)">
    <rect id="Rect치ngulo_36142" data-name="Rect치ngulo 36142" width="173" height="104" transform="translate(313 2773)" fill="#e1e8ff"/>
    <g id="Grupo_157515" data-name="Grupo 157515" transform="translate(355 2779)">
      <g id="Grupo_157514" data-name="Grupo 157514" clip-path="url(#clip-path)">
        <path id="Trazado_128584" data-name="Trazado 128584" d="M127.236,0c1.729.673,2.084,2.323,2.655,3.794,1.668,4.291,3.283,8.6,4.956,12.893A22.487,22.487,0,0,1,136,22.6c.281,2.654.569,5.306.844,7.96.261,2.508.506,5.017.767,7.525q.418,4.025.852,8.048c.182,1.71.352,3.421.562,5.128a8.6,8.6,0,0,0,2.61,5.055q3.988,4.036,8,8.045c.052.607-.5.816-.8,1.179-.283.336-.617.63-.924.947-.507.489-.993,1-1.5,1.486-.251.24-.489.525-.9.448a2.83,2.83,0,0,1-.967-.776c-2.173-2.166-4.311-4.368-6.519-6.5a10.605,10.605,0,0,1-3.456-6.854c-.218-2.4-.49-4.791-.618-7.2-.009-.174-.005-.349-.008-.519.076,1.652.195,3.3.156,4.952a2.511,2.511,0,0,1-.123,1.056c-.119.25-.279.3-.446.027A3.794,3.794,0,0,1,133.4,51.2c0-5.326-.036-10.652.019-15.977a6.354,6.354,0,0,0-1.095-4.036,21.008,21.008,0,0,1-.615-4.671,23.856,23.856,0,0,0-1.808-7.5c-1.68-4.133-3.181-8.336-4.826-12.483-.742-1.869-1.254-2.2-3.286-2.2-.327,0-.663.029-.892-.282-.09-1.285.762-2.07,1.573-2.843A4.538,4.538,0,0,1,125.269,0Z" transform="translate(-76.231 0.001)" fill="#febb89"/>
        <path id="Trazado_128585" data-name="Trazado 128585" d="M92.347.9C92.624.4,93.24.381,93.6,0h1.968A5.394,5.394,0,0,1,100.3,4.7a4.006,4.006,0,0,1-.007,2.186,31.913,31.913,0,0,1-1.761,5.225c-.642,1.852-1.314,3.7-2.042,5.517a10.844,10.844,0,0,0-.629,5.174c.145,1.456.119,2.907.139,4.361a13.915,13.915,0,0,0,.136,2.488,1.568,1.568,0,0,1-.106,1.046c-.38.32-.729.03-1.068-.084a9.6,9.6,0,0,0-3.939-.5c-.965.085-1.1.251-1.119,1.221,0,.237.005.474,0,.712-.016.552.045.827.746.534,1.461-.61,2.845.017,4.219.464.392.127.741.371,1.136.506a.665.665,0,0,1,.362.744c-.358.626-.912.528-1.4.277a7.991,7.991,0,0,0-5.362-.706c-.516.1-.757-.164-.919-.614a4.082,4.082,0,0,1,.248-2.694,4.052,4.052,0,0,0,.3-1.651c.109-2.681-.178-5.351-.2-8.029a11.682,11.682,0,0,1,.8-4.359c1.143-2.973,2.176-5.988,3.33-8.957a5.668,5.668,0,0,0-.579-5.684c-.2-.278-.454-.578-.238-.973" transform="translate(-55.831 0.001)" fill="#febb89"/>
        <path id="Trazado_128586" data-name="Trazado 128586" d="M62.763,2.428c.189.705.767,1.183,1.063,1.829a5.78,5.78,0,0,1,.112,4.574q-1.875,5.092-3.749,10.183c-.763,2.075-.535,4.234-.393,6.351.137,2.022.03,4.037.1,6.054.01.3-.252.461-.357.7A6.209,6.209,0,0,0,57.8,36.993c.088,5.364.031,10.731.031,16.1,0,.269-.008.537,0,.8.037.8.37,1.225.975,1.265.63.041,1.093-.431,1.166-1.2.031-.327.016-.655.016-.983Q60,44.837,60,36.7c0-.544-.193-1.266.451-1.517.628-.245,1.1.3,1.517.717a8.665,8.665,0,0,1,2.647,6.172c.041,6.319.059,12.639-.008,18.958a9.656,9.656,0,0,1-2.931,6.993c-2.692,2.662-5.357,5.351-8.035,8.026a5.408,5.408,0,0,1-.861.778c-.459.232-.711-.115-1-.357-3.153-3.2-6.351-6.348-9.512-9.538-.277-.279-.7-.491-.638-1,2.515-2.538,4.968-5.141,7.562-7.594a11.317,11.317,0,0,0,3.384-7.8c.218-2.746.566-5.481.844-8.222.26-2.565.492-5.134.76-7.7s.574-5.123.846-7.686c.175-1.651.325-3.3.474-4.958a24.676,24.676,0,0,1,1.982-6.442c1.5-3.975,3.037-7.935,4.552-11.9a3.267,3.267,0,0,1,.731-1.2" transform="translate(-26.247 -1.531)" fill="#fcd0a6"/>
        <path id="Trazado_128587" data-name="Trazado 128587" d="M132.629,107.918c.3-.3.164-.679.166-1.022.013-1.8.006-3.6.158-5.412.248,2.5.52,4.988.738,7.486a10.188,10.188,0,0,0,2.981,6.669c2.446,2.4,4.852,4.845,7.28,7.265.209.209.447.388.672.581.071.432-.275.632-.514.872-3.112,3.134-6.251,6.242-9.361,9.378-.131.132-.228.376-.5.252q-5.77-5.786-11.543-11.569a10.251,10.251,0,0,1-2.96-5.472c-.045-.244-.049-.428-.354-.251-.239-.246-.167-.55-.164-.844.089-6.635.044-13.271.023-19.906,0-.178-.026-.356-.022-.533a5.828,5.828,0,0,0,.419-1.234,9.94,9.94,0,0,1,4.283-5.583,11.31,11.31,0,0,1,3.2-1.088c2.08-.316,3.061.487,3.066,2.583.013,5.445,0,10.89,0,16.335,0,.119,0,.238,0,.357.032.7-.146,1.484.685,1.876s1.224-.337,1.737-.739" transform="translate(-75.178 -55.138)" fill="#fcd0a6"/>
        <path id="Trazado_128588" data-name="Trazado 128588" d="M15.383,169.162q4.816,4.843,9.63,9.687c.208.209.4.432.6.648a3.843,3.843,0,0,1-.764,4.538c-2.746,2.892-5.613,5.668-8.44,8.481a.739.739,0,0,1-.464.245q-7.62-7.6-15.234-15.206a1.849,1.849,0,0,1,.057-2.962q3.622-3.642,7.266-7.262a3.692,3.692,0,0,1,5.42-.021q.965.924,1.925,1.852" transform="translate(0 -104.763)" fill="#1c95f8"/>
        <path id="Trazado_128589" data-name="Trazado 128589" d="M159,191.395q4.828-4.859,9.655-9.72c.249-.251.478-.521.717-.782l2.089-1.991a3.846,3.846,0,0,1,4.542.745c2.825,2.734,5.576,5.543,8.352,8.327a1,1,0,0,1,.366.6q-5.547,5.571-11.095,11.142c-1.219,1.224-2.434,2.452-3.668,3.661a1.9,1.9,0,0,1-3.1-.021q-3.422-3.4-6.825-6.823c-1.736-1.738-1.963-2.872-1.037-5.134" transform="translate(-99.922 -112.546)" fill="#1c95f8"/>
        <path id="Trazado_128590" data-name="Trazado 128590" d="M89.093,92.086a7.052,7.052,0,0,1,.164,1.766q-.01,8.362,0,16.724a14.973,14.973,0,0,1-.168,3.2,8.136,8.136,0,0,1-2.244,4.931c-4.045,4.144-8.183,8.2-12.285,12.286-.307.018-.489-.195-.678-.38-.787-.773-1.57-1.55-2.337-2.342-.194-.2-.491-.378-.354-.747,2.283-2.309,4.583-4.6,6.843-6.935a24.948,24.948,0,0,0,3.44-3.735,9.4,9.4,0,0,0,1.5-5.055q.077-9.569,0-19.139a8.333,8.333,0,0,0-2.951-6.259c-.241-.218-.536-.6-.9-.438-.4.173-.238.633-.238.974q-.011,8.809-.007,17.619c0,1.282-.907,1.97-1.949,1.489a1.131,1.131,0,0,1-.739-1.107c.009-6.35-.033-12.7.038-19.05A3.362,3.362,0,0,1,78.16,82.8c-.129.893-.576,1.746-.2,2.7.147.37.266.435.632.355a7.479,7.479,0,0,1,5.356.642c.471.256.994.522,1.382-.158.378-.17.624.1.867.293a8.543,8.543,0,0,1,2.979,4.608.853.853,0,0,1-.085.844" transform="translate(-44.867 -52.214)" fill="#febb89"/>
        <path id="Trazado_128591" data-name="Trazado 128591" d="M206.906,180.73l-8.351-8.274c-.232-.23-.451-.475-.7-.685a3.9,3.9,0,0,0-3.421-.8c-.259.05-.525.06-.788.088l1.87-1.993c.662-.641,1.321-1.286,1.988-1.921a3.664,3.664,0,0,1,5.22-.022c2.534,2.481,5.033,5,7.528,7.519a1.791,1.791,0,0,1,.085,2.707c-1.1,1.163-2.284,2.255-3.431,3.376" transform="translate(-122.11 -104.706)" fill="#1785f7"/>
        <path id="Trazado_128592" data-name="Trazado 128592" d="M53.542,202.875l3.369,3.468c.975,2.31.746,3.47-1.044,5.261q-3.372,3.375-6.748,6.744c-1.156,1.151-2.079,1.161-3.222.023-.924-.92-1.819-1.868-2.726-2.8l8.337-8.415a6.96,6.96,0,0,0,1.192-1.631c.576-1.072.174-2.144.139-3.218l.7.57" transform="translate(-27.223 -127.57)" fill="#1784f7"/>
        <path id="Trazado_128593" data-name="Trazado 128593" d="M119.714,11.328c.177.1.326.14.338-.149.008-.2-.032-.413.169-.553.589.463,1.257.054,1.891.164a2.4,2.4,0,0,1,2.017,1.4c1.052,2.581,2.054,5.182,3.066,7.78,1,2.569,1.984,5.146,2.988,7.714a15.828,15.828,0,0,1,.934,4.414c.163,1.855.364,3.7.566,5.554a.54.54,0,0,1-.508-.075c-1.829-1.141-3.748-.851-5.682-.369-.392.1-.772.353-1.2.105a1.016,1.016,0,0,1-.19-.674c.034-1.989-.079-3.976.107-5.969a15.161,15.161,0,0,0-.938-7.347c-1.109-2.691-2.048-5.454-3.045-8.191a10.172,10.172,0,0,0-.51-1.6,4.017,4.017,0,0,0-.008-2.2" transform="translate(-75.49 -6.701)" fill="#fcd0a6"/>
        <path id="Trazado_128594" data-name="Trazado 128594" d="M131.412,81.5a16.71,16.71,0,0,1,3.717-.736,5.354,5.354,0,0,1,3.637,1.109,5.518,5.518,0,0,1,1.281,3.769c-.062,6.02-.024,12.042-.023,18.063-.048.882-.683,1.161-1.394,1.2-.753.037-1.291-.646-1.293-1.518q-.009-8.8,0-17.593c0-1.908-.911-2.629-2.794-2.238a9.928,9.928,0,0,0-2.774.923c-.158.086-.34.293-.549.06a4.667,4.667,0,0,1-.12-2.771.317.317,0,0,1,.314-.263" transform="translate(-82.573 -50.929)" fill="#f4a771"/>
        <path id="Trazado_128595" data-name="Trazado 128595" d="M97.8,81.6l.07,2.82c-.363.275-.609-.076-.861-.2a10.108,10.108,0,0,0-3.076-.816,1.814,1.814,0,0,0-1.661.438c-.4.4-.636.207-.69-.275a8.678,8.678,0,0,1-.012-.981c0-1.792.443-2.113,2.3-1.936A9.967,9.967,0,0,1,97.8,81.6" transform="translate(-57.734 -50.827)" fill="#f4a771"/>
        <path id="Trazado_128596" data-name="Trazado 128596" d="M25.324,191.217a2.467,2.467,0,1,1-.071-4.932,2.467,2.467,0,1,1,.071,4.932" transform="translate(-14.381 -117.468)" fill="#e9f5fe"/>
        <path id="Trazado_128597" data-name="Trazado 128597" d="M180.151,213.276a2.5,2.5,0,0,1,2.434-2.549,2.565,2.565,0,0,1,2.552,2.462,2.507,2.507,0,0,1-2.465,2.525,2.438,2.438,0,0,1-2.521-2.437" transform="translate(-113.6 -132.88)" fill="#e9f5fe"/>
      </g>
    </g>
  </g>
</svg>
