<svg xmlns="http://www.w3.org/2000/svg" xmlns:xlink="http://www.w3.org/1999/xlink" width="85" height="85" viewBox="0 0 85 85">
  <defs>
    <clipPath id="clip-path">
      <rect id="Rectángulo_37350" data-name="Rectángulo 37350" width="48.634" height="45.449" transform="translate(0 0)" fill="none"/>
    </clipPath>
  </defs>
  <g id="Grupo_157475" data-name="Grupo 157475" transform="translate(-8594 10710)">
    <circle id="Elipse_4841" data-name="Elipse 4841" cx="42.5" cy="42.5" r="42.5" transform="translate(8594 -10710)" fill="#3c3fa7"/>
    <g id="Grupo_157468" data-name="Grupo 157468" transform="translate(8612 -10691.416)">
      <g id="Grupo_157467" data-name="Grupo 157467" transform="translate(0 0)" clip-path="url(#clip-path)">
        <path id="Trazado_128422" data-name="Trazado 128422" d="M0,17.886v-.759a1.792,1.792,0,0,1,.712-1.232.94.94,0,0,0,.282-.861c0-2.735-.008-5.47,0-8.205A3.681,3.681,0,0,1,3.852,3.208a4.129,4.129,0,0,1,.943-.076h7.92c.661,0,.689,0,.77-.663A2.757,2.757,0,0,1,16.362,0a7.8,7.8,0,0,1,3.706,1.035,12.027,12.027,0,0,1,2.045,1.286,1.225,1.225,0,0,0,.921.27,16.327,16.327,0,0,1,2.464,0,1.378,1.378,0,0,0,1.006-.3A13.73,13.73,0,0,1,29.856.441,6.069,6.069,0,0,1,32.266,0a2.743,2.743,0,0,1,2.823,2.473c.076.655.1.654.769.654q3.96,0,7.921,0a3.653,3.653,0,0,1,3.8,3.793q.011,4.007,0,8.015a1.237,1.237,0,0,0,.462,1.122A2.028,2.028,0,0,1,48,18.972a1.152,1.152,0,0,0-.427,1.086q.007,10.719.006,21.437a3.806,3.806,0,0,1-1.231,2.968,3.672,3.672,0,0,1-2.306.982c-.094.006-.19,0-.285,0H4.823a3.683,3.683,0,0,1-3.08-1.492,3.811,3.811,0,0,1-.752-2.4q.009-4.672,0-9.343,0-6.07.006-12.141A1.219,1.219,0,0,0,.514,18.92,1.519,1.519,0,0,1,0,17.886" transform="translate(0 0)"/>
        <path id="Trazado_128423" data-name="Trazado 128423" d="M44.646,21.277c-.657-.008-.8.091-1.017.747L35.451,46.253c-.048.142-.1.281-.2.533L22.529,9.118h2.21c.08,0,.17,0,.2.093.128.444.482.814.224,1.367a5.129,5.129,0,0,0-.543,2.891,2.492,2.492,0,0,0,2.338,2.22,6.949,6.949,0,0,0,3.692-.831,13.22,13.22,0,0,0,2.56-1.608.768.768,0,0,1,.685-.143,8.768,8.768,0,0,0,2.738,0,.835.835,0,0,1,.722.173,11.564,11.564,0,0,0,4.845,2.36,4.3,4.3,0,0,0,1.6.017,2.546,2.546,0,0,0,2.141-2.887,7.314,7.314,0,0,0-.6-2.277,1.8,1.8,0,0,1,.272-1.314.276.276,0,0,1,.168-.057c.723,0,1.446,0,2.214,0-.63,1.872-1.243,3.692-1.856,5.511-.437,1.3-.87,2.6-1.318,3.9a.763.763,0,0,0,.384,1.069,2.873,2.873,0,0,1-.555,1.685" transform="translate(-10.975 -4.441)" fill="#e9e9f0"/>
        <path id="Trazado_128424" data-name="Trazado 128424" d="M57.753,22.739l.555-1.685c.674,0,.776-.076.991-.709q1.313-3.878,2.626-7.756c.05-.147.1-.291.17-.472.191.108.222.289.289.432a27.65,27.65,0,0,0,4.926,7.205,29.26,29.26,0,0,0,3.594,3.219c.453.346.449.526-.021.856a15.2,15.2,0,0,1-7.068,2.62,20.546,20.546,0,0,1-2.976.161.7.7,0,0,0-.722.424.644.644,0,0,0,.21.8,11,11,0,0,0,3.407,2.009,16.537,16.537,0,0,0,2.118.67c.581.151.67.383.305.868q-3.031,4.032-6.074,8.055-3.737,4.953-7.468,9.912a.9.9,0,0,1-.855.441c-.614-.036-1.232-.009-1.849-.01-.551,0-.552,0-.369-.543q2-5.917,4.005-11.834,2.283-6.747,4.562-13.5c.207-.612.154-.778-.358-1.173" transform="translate(-24.082 -5.903)" fill="#4d5561"/>
        <path id="Trazado_128425" data-name="Trazado 128425" d="M14.9,41.905a.81.81,0,0,0,.007-1.15c-2.277-3.009-4.539-6.029-6.827-9.029-.578-.758-.738-1.03.438-1.312a12.793,12.793,0,0,0,4.7-2.175,5.562,5.562,0,0,0,.431-.37.663.663,0,0,0,.231-.84.793.793,0,0,0-.815-.45A16.477,16.477,0,0,1,4.148,24.5c-.37-.211-.725-.45-1.075-.691-.424-.292-.429-.489-.02-.8A29.046,29.046,0,0,0,5.511,20.93a27.543,27.543,0,0,0,6.037-8.247c.087-.182.176-.363.271-.556.2.125.2.313.248.468q3.123,9.235,6.24,18.473,3.066,9.079,6.135,18.158c.19.562.189.563-.387.563-.633,0-1.266-.018-1.9.008a.758.758,0,0,1-.71-.346q-2.225-2.979-4.47-5.942c-.277-.368-.548-.77-1.12-.546a.271.271,0,0,1-.372-.089c-.229-.3-.579-.533-.591-.967" transform="translate(-1.34 -5.907)" fill="#4d5561"/>
        <path id="Trazado_128426" data-name="Trazado 128426" d="M18.933,64.734c-3.967,0-7.934.017-11.9.006a2.108,2.108,0,0,1-2.037-2.181q0-5.95,0-11.9,0-3.912.011-7.823a2.632,2.632,0,0,1,1.466.522c.254.146.058.394-.07.573A3.415,3.415,0,0,0,5.926,47a4.055,4.055,0,0,0,.761,1.3c3.97,5.28,7.965,10.541,11.93,15.825.135.181.351.332.316.607" transform="translate(-2.432 -20.865)" fill="#39444d"/>
        <path id="Trazado_128427" data-name="Trazado 128427" d="M76.46,42.821q.006,3.2.011,6.4,0,6.614,0,13.228A2.13,2.13,0,0,1,74.2,64.733q-5.831,0-11.663-.011c-.035-.275.18-.427.316-.607q5.976-7.933,11.966-15.855a3.7,3.7,0,0,0,.734-3.419,3.532,3.532,0,0,0-.534-1c-.218-.327-.189-.486.185-.607.421-.137.766-.51,1.261-.415" transform="translate(-30.46 -20.852)" fill="#39444d"/>
        <path id="Trazado_128428" data-name="Trazado 128428" d="M18.93,63.063q-3.166-4.2-6.332-8.4c-2.017-2.673-4.005-5.368-6.066-8.006a3.655,3.655,0,0,1-.143-4.571c.178-.215.112-.334-.114-.424L5,41.164c0-.49,0-.981-.015-1.47-.01-.3.074-.357.351-.223a16.7,16.7,0,0,0,4.7,1.521c.62.1,1.241.19,1.915.293A11.908,11.908,0,0,1,8.992,42.39a1.956,1.956,0,0,0-1.679,1.517,2.132,2.132,0,0,0,.6,1.817q3.46,4.583,6.929,9.16a.81.81,0,0,0,1.144.309c.317.355.449.88.963,1.056-.49.4-.522.73-.135,1.243q2.027,2.685,4.049,5.374c.035.046.064.1.129.2Z" transform="translate(-2.429 -19.194)" fill="#2f393b"/>
        <path id="Trazado_128429" data-name="Trazado 128429" d="M74.495,41.164c-.391.164-.776.345-1.175.487-.319.114-.391.2-.149.516a3.419,3.419,0,0,1,.1,4.019c-.288.431-.608.841-.919,1.256Q69.676,51,67,54.565q-3.209,4.253-6.429,8.5H58.495c.521-.7,1.006-1.366,1.5-2.021q1.849-2.453,3.7-4.9,3.934-5.2,7.868-10.395a1.96,1.96,0,0,0,.551-2.032,2.108,2.108,0,0,0-1.405-1.241,16.923,16.923,0,0,1-3.2-1.192,24.061,24.061,0,0,0,4.011-.775A19.078,19.078,0,0,0,74.16,39.47c.28-.132.361-.075.35.225-.017.489-.011.979-.015,1.469" transform="translate(-28.495 -19.195)" fill="#2f393b"/>
        <path id="Trazado_128430" data-name="Trazado 128430" d="M30.839,11.328c-1.194.007-1.707-.592-1.552-1.7a5.88,5.88,0,0,1,.656-1.913,1.04,1.04,0,0,0,0-1.032,6.271,6.271,0,0,1-.655-2.063A1.224,1.224,0,0,1,30.629,3.06a6.155,6.155,0,0,1,2.674.709,12.944,12.944,0,0,1,1.987,1.189c.2.143.209.229.066.438a2.982,2.982,0,0,0,0,3.617c.1.141.189.236-.012.377a10.24,10.24,0,0,1-4.081,1.9,3.436,3.436,0,0,1-.428.032" transform="translate(-14.254 -1.49)" fill="#ef484a"/>
        <path id="Trazado_128431" data-name="Trazado 128431" d="M57.817,11.315a7.04,7.04,0,0,1-2.759-.936A15.806,15.806,0,0,1,53.5,9.4c-.166-.114-.184-.2-.062-.372a2.96,2.96,0,0,0-.008-3.687c-.135-.192-.07-.264.075-.368a9.978,9.978,0,0,1,4.083-1.89c.062-.011.125-.018.188-.024,1.378-.126,1.91.433,1.712,1.8A5.427,5.427,0,0,1,58.9,6.6,1.184,1.184,0,0,0,58.914,7.8a5.28,5.28,0,0,1,.6,1.831c.141,1.138-.359,1.7-1.7,1.679" transform="translate(-25.99 -1.481)" fill="#ef484a"/>
        <path id="Trazado_128432" data-name="Trazado 128432" d="M5.006,16.645c0-1.829-.017-3.658-.006-5.487A2.085,2.085,0,0,1,7,9.152c1.041-.017,2.081,0,3.122,0,.165.209.021.391-.06.57A24.255,24.255,0,0,1,6.665,15.1c-.4.491-.859.922-1.275,1.394-.1.11-.188.278-.384.148" transform="translate(-2.434 -4.454)" fill="#39444d"/>
        <path id="Trazado_128433" data-name="Trazado 128433" d="M79.653,9.152c1.041,0,2.081-.017,3.121,0a2.091,2.091,0,0,1,2,2.007c.011,1.829,0,3.657-.006,5.486-.2.131-.282-.042-.386-.147A25.205,25.205,0,0,1,80.1,10.582c-.178-.333-.3-.695-.466-1.034a.325.325,0,0,1,.017-.4" transform="translate(-38.765 -4.454)" fill="#39444d"/>
        <path id="Trazado_128434" data-name="Trazado 128434" d="M5.016,16.646A8.191,8.191,0,0,0,6.271,15.4a23.55,23.55,0,0,0,2.715-3.837,9.211,9.211,0,0,0,1.142-2.415c.489,0,.978,0,1.466-.006.265,0,.387.046.26.352a25.6,25.6,0,0,1-3.411,5.853,31.054,31.054,0,0,1-3.027,3.3c-.109.106-.225.2-.4.364Z" transform="translate(-2.443 -4.455)" fill="#2f393b"/>
        <path id="Trazado_128435" data-name="Trazado 128435" d="M78.03,9.155a9.766,9.766,0,0,0,1.139,2.417,26.129,26.129,0,0,0,3.766,4.983.6.6,0,0,0,.207.093v2.29c-.049-.008-.1,0-.13-.025a26.7,26.7,0,0,1-6.646-9.278c-.2-.477-.193-.483.335-.484.443,0,.885,0,1.328,0" transform="translate(-37.142 -4.457)" fill="#2f393b"/>
        <path id="Trazado_128436" data-name="Trazado 128436" d="M44.954,11.225a7.447,7.447,0,0,1-.869-.055A1.594,1.594,0,0,1,44.259,8c.567-.025,1.137-.025,1.7,0A1.6,1.6,0,0,1,47.47,9.5a1.623,1.623,0,0,1-1.308,1.672,9.108,9.108,0,0,1-1.208.055" transform="translate(-20.819 -3.889)" fill="#fc6064"/>
        <path id="Trazado_128437" data-name="Trazado 128437" d="M47.416,40.753A1.229,1.229,0,1,1,46.2,39.5a1.244,1.244,0,0,1,1.219,1.251" transform="translate(-21.9 -19.243)" fill="#010101"/>
        <path id="Trazado_128438" data-name="Trazado 128438" d="M46.183,52.254a1.225,1.225,0,0,1,1.234,1.229,1.229,1.229,0,0,1-2.458.009,1.224,1.224,0,0,1,1.224-1.238" transform="translate(-21.901 -25.455)" fill="#010101"/>
        <path id="Trazado_128439" data-name="Trazado 128439" d="M47.417,27.989a1.229,1.229,0,1,1-2.458-.022,1.229,1.229,0,0,1,2.458.022" transform="translate(-21.901 -13.035)" fill="#010101"/>
      </g>
    </g>
  </g>
</svg>
