<svg xmlns="http://www.w3.org/2000/svg" xmlns:xlink="http://www.w3.org/1999/xlink" width="24.943" height="24.945" viewBox="0 0 24.943 24.945">
  <defs>
    <clipPath id="clip-path">
      <rect id="Rectángulo_36216" data-name="Rectángulo 36216" width="24.943" height="24.945" fill="none"/>
    </clipPath>
  </defs>
  <g id="Grupo_157221" data-name="Grupo 157221" clip-path="url(#clip-path)">
    <path id="Trazado_125330" data-name="Trazado 125330" d="M239.917,510.815l.144,0c.018.007.025.015.02.025s-.011.015-.016.015h-.146c-.015-.009-.021-.018-.016-.027s.009-.015.014-.015" transform="translate(-228.206 -485.912)" fill="#6b6b6b"/>
    <path id="Trazado_125331" data-name="Trazado 125331" d="M265.206,510.753c.036-.06.093-.048.149-.042q.021.015.013.029c-.005.009-.01.013-.015.013Z" transform="translate(-252.277 -485.808)" fill="#3b3b3b"/>
    <path id="Trazado_125332" data-name="Trazado 125332" d="M24.887,10.777a12.046,12.046,0,0,0-1.273-4.038,12.5,12.5,0,0,0-2.545-3.351A12.893,12.893,0,0,0,18.122,1.3,12.647,12.647,0,0,0,11.159.054a11.6,11.6,0,0,0-4.184,1.2A12.339,12.339,0,0,0,3.42,3.885,12.906,12.906,0,0,0,1.085,7.328a12.72,12.72,0,0,0-1.033,6.5,11.526,11.526,0,0,0,1.22,4.227,12.452,12.452,0,0,0,3.152,4A12.364,12.364,0,0,0,10.1,24.783c.437.087.88.1,1.319.162h.195c.032-.034.074-.022.113-.025h.212c.039,0,.081-.009.112.025h.875c.041-.041.094-.019.141-.025h.089c.038,0,.079-.008.11.025h.195c.254-.046.513-.026.767-.059a12.062,12.062,0,0,0,3.727-1.125,12.532,12.532,0,0,0,4.1-3.206,12.351,12.351,0,0,0,2.707-5.6c.095-.46.118-.926.176-1.389V11.521c-.043-.246-.025-.5-.056-.744" transform="translate(0 0)"/>
    <path id="Trazado_125333" data-name="Trazado 125333" d="M238.364,510.717a.2.2,0,0,1,0,.042h-.1c.011-.061.055-.047.1-.042" transform="translate(-226.653 -485.814)" fill="#929292"/>
    <path id="Trazado_125334" data-name="Trazado 125334" d="M243.184,510.854c0-.013,0-.026,0-.04l.1,0c.017.008.023.018.018.027s-.011.015-.016.015Z" transform="translate(-231.325 -485.909)" fill="#494949"/>
    <path id="Trazado_125335" data-name="Trazado 125335" d="M245.21,510.811c0-.014,0-.028,0-.042a.083.083,0,0,1,.1.042Z" transform="translate(-233.254 -485.866)" fill="#373737"/>
    <path id="Trazado_125336" data-name="Trazado 125336" d="M268.2,510.85a.338.338,0,0,1,0-.042h.1q.021.015.013.028c-.005.009-.01.013-.015.013Z" transform="translate(-255.124 -485.905)" fill="#565656"/>
    <path id="Trazado_125337" data-name="Trazado 125337" d="M270.2,510.789a.357.357,0,0,1,0-.041c.04-.006.082-.015.095.041Z" transform="translate(-257.023 -485.844)" fill="#737373"/>
    <path id="Trazado_125338" data-name="Trazado 125338" d="M41.764,30.807a10.992,10.992,0,1,1-11.01,10.974,11.008,11.008,0,0,1,11.01-10.974" transform="translate(-29.255 -29.305)" fill="#fe5956"/>
    <path id="Trazado_125339" data-name="Trazado 125339" d="M132.042,129.773a2.345,2.345,0,0,1,1.687.707c.674.679,1.358,1.347,2.023,2.034.162.168.242.141.39-.009.686-.7,1.375-1.4,2.081-2.079a2.284,2.284,0,0,1,3.82,1.144,2.207,2.207,0,0,1-.631,2.138q-1.024,1.039-2.065,2.061c-.135.132-.138.2,0,.337.706.692,1.41,1.387,2.1,2.1a2.289,2.289,0,0,1-1.139,3.836,2.211,2.211,0,0,1-2.136-.639q-1.029-1.017-2.043-2.048c-.136-.139-.207-.16-.355-.008-.7.713-1.394,1.425-2.114,2.114a2.276,2.276,0,0,1-3.756-.958,2.2,2.2,0,0,1,.571-2.326q1.028-1.052,2.082-2.078c.133-.13.125-.194,0-.319-.716-.7-1.437-1.406-2.13-2.133a2.283,2.283,0,0,1,.941-3.751,2.873,2.873,0,0,1,.682-.118" transform="translate(-123.452 -123.442)"/>
    <path id="Trazado_125340" data-name="Trazado 125340" d="M168.369,169.186a.971.971,0,0,1-.692-.307q-1.285-1.293-2.577-2.579a.765.765,0,0,0-1.271-.007q-1.29,1.289-2.578,2.579a.875.875,0,0,1-.734.305.794.794,0,0,1-.707-.549.822.822,0,0,1,.231-.909q1.316-1.314,2.631-2.629a.909.909,0,0,0,.279-.418.766.766,0,0,0-.245-.768c-.879-.874-1.753-1.754-2.632-2.627a.878.878,0,0,1-.307-.756.793.793,0,0,1,.54-.687.8.8,0,0,1,.892.208c.467.461.929.927,1.393,1.391l1.255,1.254a.756.756,0,0,0,1.236-.008q1.3-1.3,2.6-2.6a.835.835,0,1,1,1.208,1.148c-.642.653-1.293,1.3-1.94,1.944-.246.246-.495.491-.738.74a.729.729,0,0,0,0,1.131c.886.891,1.776,1.776,2.662,2.666a.841.841,0,0,1-.5,1.473" transform="translate(-151.969 -151.988)" fill="#e6efee"/>
  </g>
</svg>
