<svg xmlns="http://www.w3.org/2000/svg" xmlns:xlink="http://www.w3.org/1999/xlink" width="190.446" height="406.083" viewBox="0 0 190.446 406.083">
  <defs>
    <clipPath id="clip-path">
      <rect id="Rect치ngulo_37370" data-name="Rect치ngulo 37370" width="142.235" height="406.083" fill="none"/>
    </clipPath>
    <clipPath id="clip-path-3">
      <rect id="Rect치ngulo_37368" data-name="Rect치ngulo 37368" width="5.504" height="3.531" fill="none"/>
    </clipPath>
  </defs>
  <g id="Grupo_157546" data-name="Grupo 157546" transform="translate(-180 -3395)">
    <path id="Trazado_114544" data-name="Trazado 114544" d="M145.551,418.194C119.12,406.2,91.709,390.024,81.064,362.967c-11.814-30.028.552-63.657.255-95.935-.236-25.57-8.5-50.265-15-74.991s-11.278-51-4.569-75.67c4.491-16.516,14.03-31.459,26.345-43.316,21.686-20.88,52.931-32.179,82.618-27.4s56.657,26.534,65.336,55.4c12.3,40.893-11.723,84.545-6.618,126.948,2,16.592,8.39,32.282,12.725,48.42a198.862,198.862,0,0,1,6.793,52.68c-.162,27.219-7.042,56.259-27.294,74.385C201.225,421.766,170.825,429.66,145.551,418.194Z" transform="translate(121.496 3372.562)" fill="#e1e8ff"/>
    <g id="Grupo_157545" data-name="Grupo 157545" transform="translate(204 3395)">
      <g id="Grupo_157544" data-name="Grupo 157544" transform="translate(0 0)" clip-path="url(#clip-path)">
        <g id="Grupo_157543" data-name="Grupo 157543">
          <g id="Grupo_157542" data-name="Grupo 157542" clip-path="url(#clip-path)">
            <path id="Trazado_128754" data-name="Trazado 128754" d="M119.267,65.526s-10.965-3.578-17.872,1.3S91.83,84.869,91.83,84.869l21.459-.413Z" transform="translate(-78.872 7.005)" fill="#5b413c"/>
            <path id="Trazado_128755" data-name="Trazado 128755" d="M129.971,96.518s-17.732-13.376-22.286,2.689c-4.905,17.308,4.609,27.7,4.609,27.7l11.7-11.463Z" transform="translate(-105.601 9.952)" fill="#5b413c"/>
            <path id="Trazado_128756" data-name="Trazado 128756" d="M128.371,63.426S102.594,49.618,82.045,83.169,73.906,157,92.025,167.164s38.871-2.639,38.871-2.639Z" transform="translate(-67.836 6.607)" fill="#36251f"/>
            <path id="Trazado_128757" data-name="Trazado 128757" d="M27.906,334.588l.68,9.642H12.516l-.68-9.642Z" transform="translate(100.523 36.474)" fill="#ff9568"/>
            <path id="Trazado_128758" data-name="Trazado 128758" d="M58.05,163.312s11.742,87.083-.589,99.595c-4.93,5-20.319,6.546-25.661-2.489-8.4-14.2-11.356-49.986-12.32-69.02Z" transform="translate(57.533 17.803)" fill="#36251f"/>
            <path id="Trazado_128759" data-name="Trazado 128759" d="M11.308,246.664s-4.6,9.081,3.126,36.39c5.9,20.848,18.458,65.64,18.458,65.64s12.159,1.457,20.283-1.9L42.738,221.164Z" transform="translate(78.025 24.109)" fill="#36251f"/>
            <path id="Trazado_128760" data-name="Trazado 128760" d="M55.821,336.912a.75.75,0,0,0,.191-.024.774.774,0,0,0,.561-.942c-.114-.457-11.581-45.756-14.8-56.173-3.186-10.312-4.566-30.256-4.58-30.457a.761.761,0,0,0-.063-.26c-6.429-14.658-9.606-44.043-9.637-44.338a.784.784,0,0,0-.853-.69.775.775,0,0,0-.69.853c.031.3,3.215,29.757,9.7,44.675.134,1.925,1.5,20.524,4.637,30.674,3.207,10.379,14.663,55.639,14.779,56.095a.776.776,0,0,0,.752.586" transform="translate(56.866 22.241)" fill="#5b413c"/>
            <path id="Trazado_128761" data-name="Trazado 128761" d="M13.62,330.558a87.818,87.818,0,0,0,18.03-2.316.776.776,0,0,0-.368-1.508c-.112.028-11.282,2.717-20.059,2.206a.775.775,0,1,0-.092,1.548c.816.048,1.649.07,2.489.07" transform="translate(98.457 35.615)" fill="#5b413c"/>
            <path id="Trazado_128762" data-name="Trazado 128762" d="M0,365.444c0,.135,0,.266.007.4.012.6.039,1.14.064,1.6.061,1.019.135,1.646.135,1.646H34.023a18.568,18.568,0,0,0,.039-3.248c-.222-3.456-1.369-8.913-6.039-12.518-6.392-4.943-3.924-3.911-5.236-6.164-.147-.251-1.3-4.079-1.421-4.342-1.1-2.34-2.11-3.446-8.169-3.446-8.035,0-8.741,3.9-9.6,5.952A38.244,38.244,0,0,0,2.261,350.1c-.2.854-.4,1.767-.6,2.7-.5,2.33-.958,4.763-1.273,6.7A35.2,35.2,0,0,0,0,365.444" transform="translate(108.125 36.995)" fill="#ff9918"/>
            <path id="Trazado_128763" data-name="Trazado 128763" d="M26.886,364.393c0,.135,0,.266.007.4.012.6.039,1.14.064,1.6a9.436,9.436,0,0,0,3.512-4.554c2.093-5.7-1.125-12.537-1.26-12.827l-.068.033c-.2.854-.4,1.767-.6,2.7.761,2.327,1.638,6.238.42,9.549a7.867,7.867,0,0,1-2.073,3.1" transform="translate(81.244 38.046)" fill="#dd6a18"/>
            <path id="Trazado_128764" data-name="Trazado 128764" d="M0,363.237c.045,1.925.2,3.249.2,3.249H34.012a18.665,18.665,0,0,0,.038-3.249Z" transform="translate(108.136 39.597)" fill="#dd6a18"/>
            <path id="Trazado_128765" data-name="Trazado 128765" d="M12.439,349.12a.958.958,0,0,0,.242-.031,16.715,16.715,0,0,1,7.84-.161.964.964,0,0,0,.513-1.859,18.508,18.508,0,0,0-8.835.153.964.964,0,0,0,.241,1.9" transform="translate(107.768 37.785)" fill="#f4ece1"/>
            <path id="Trazado_128766" data-name="Trazado 128766" d="M12.8,345.887a.973.973,0,0,0,.243-.031,16.712,16.712,0,0,1,7.838-.161.964.964,0,0,0,.513-1.859,18.508,18.508,0,0,0-8.836.153.964.964,0,0,0,.241,1.9" transform="translate(107.004 37.433)" fill="#f4ece1"/>
            <path id="Trazado_128767" data-name="Trazado 128767" d="M11.136,351.874a.968.968,0,0,0,.243-.031,16.87,16.87,0,0,1,7.84-.161.965.965,0,0,0,.513-1.86,18.539,18.539,0,0,0-8.837.154.964.964,0,0,0,.241,1.9" transform="translate(110.518 38.085)" fill="#f4ece1"/>
            <path id="Trazado_128768" data-name="Trazado 128768" d="M9.6,355.006a.959.959,0,0,0,.243-.031,16.87,16.87,0,0,1,7.84-.161.964.964,0,0,0,.512-1.859,18.515,18.515,0,0,0-8.835.152.965.965,0,0,0,.241,1.9" transform="translate(113.749 38.427)" fill="#f4ece1"/>
            <path id="Trazado_128769" data-name="Trazado 128769" d="M97.911,334.862l-1.564,11.73H81.793l1.564-11.73Z" transform="translate(-46.386 36.504)" fill="#ff9568"/>
            <path id="Trazado_128770" data-name="Trazado 128770" d="M79.849,368.725h52.993a7.458,7.458,0,0,0,.7-2.943c.329-4.482-1.1-11.636-1.8-16.146-.083-.527-.156-1.019-.214-1.464a15.755,15.755,0,0,1-.156-1.842c0-3.681-3.259-3.051-3.259-3.051-5.363,5.259-11.434-2.627-14.979-.04,0,0-1.526,1.093-5.734,4.88S96.035,354.4,89.943,356.95c-7.863,3.287-10.094,6.571-10.529,8.832a4.141,4.141,0,0,0,.435,2.943" transform="translate(-79.326 37.359)" fill="#ff9918"/>
            <path id="Trazado_128771" data-name="Trazado 128771" d="M79.892,366.456h52.993a7.458,7.458,0,0,0,.7-2.943H79.458a4.141,4.141,0,0,0,.435,2.943" transform="translate(-79.37 39.627)" fill="#dd6a18"/>
            <path id="Trazado_128772" data-name="Trazado 128772" d="M83.546,368.187H85.12a11.635,11.635,0,0,1-2.848-8.485,14.942,14.942,0,0,1,5.579-10.6c-.084-.527-.157-1.019-.214-1.464a16.236,16.236,0,0,0-6.627,12.005,12.858,12.858,0,0,0,2.536,8.548" transform="translate(-35.437 37.896)" fill="#dd6a18"/>
            <path id="Trazado_128773" data-name="Trazado 128773" d="M105.531,350.658a.873.873,0,0,0,.21-1.721l-3.31-.822a.873.873,0,1,0-.42,1.7l3.31.822a.912.912,0,0,0,.211.026" transform="translate(-76.564 37.946)" fill="#f4ece1"/>
            <path id="Trazado_128774" data-name="Trazado 128774" d="M102.9,348.028a.873.873,0,0,0,.21-1.721l-3.31-.822a.873.873,0,1,0-.42,1.695l3.31.823a.913.913,0,0,0,.211.025" transform="translate(-71.005 37.659)" fill="#f4ece1"/>
            <path id="Trazado_128775" data-name="Trazado 128775" d="M108.516,352.393a.874.874,0,0,0,.21-1.721l-3.31-.822a.873.873,0,1,0-.42,1.695l3.31.822a.857.857,0,0,0,.211.027" transform="translate(-82.858 38.135)" fill="#f4ece1"/>
            <path id="Trazado_128776" data-name="Trazado 128776" d="M111.5,354.061a.873.873,0,0,0,.21-1.721l-3.31-.822a.873.873,0,1,0-.42,1.695l3.31.823a.914.914,0,0,0,.211.026" transform="translate(-89.153 38.317)" fill="#f4ece1"/>
            <path id="Trazado_128777" data-name="Trazado 128777" d="M114.756,355.6a.873.873,0,0,0,.21-1.721l-3.31-.822a.873.873,0,1,0-.42,1.7l3.31.822a.912.912,0,0,0,.211.026" transform="translate(-96.018 38.485)" fill="#f4ece1"/>
            <path id="Trazado_128778" data-name="Trazado 128778" d="M118.285,356.919a.873.873,0,0,0,.21-1.721l-3.31-.822a.873.873,0,1,0-.42,1.695l3.31.822a.858.858,0,0,0,.211.027" transform="translate(-103.461 38.628)" fill="#f4ece1"/>
            <path id="Trazado_128779" data-name="Trazado 128779" d="M54.3,172.485s-3.116,71.35,1.418,88.323c1.055,3.949,22.307,3.613,27.4-3.624,10.051-14.269,12.889-46.157,13.705-66.83Z" transform="translate(-13.651 18.803)" fill="#36251f"/>
            <path id="Trazado_128780" data-name="Trazado 128780" d="M99.5,250.17a169.872,169.872,0,0,1-1.334,33.217c-3.143,21.438-15.851,67.15-15.851,67.15s-10.223.1-17.674-1.635l4.382-123.04Z" transform="translate(-29.23 24.622)" fill="#36251f"/>
            <path id="Trazado_128781" data-name="Trazado 128781" d="M97.361,332.063a.776.776,0,0,0,.042-1.55l-18.377-1.025a.776.776,0,1,0-.086,1.55l18.377,1.024h.044" transform="translate(-42.632 35.918)" fill="#5b413c"/>
            <path id="Trazado_128782" data-name="Trazado 128782" d="M61.294,337.988a.776.776,0,0,0,.752-.588c.113-.451,11.288-45.319,13.365-57.039C77.39,269.2,73.7,253.4,73.111,251c9.282-18.04,10.224-45.674,10.233-45.952a.777.777,0,0,0-.752-.8h-.024a.777.777,0,0,0-.775.753c-.008.276-.949,27.827-10.193,45.544a.776.776,0,0,0-.064.55c.044.173,4.389,17.47,2.348,29-2.069,11.668-13.231,56.482-13.344,56.934a.775.775,0,0,0,.566.939.738.738,0,0,0,.189.023" transform="translate(-8.223 22.265)" fill="#5b413c"/>
            <path id="Trazado_128783" data-name="Trazado 128783" d="M12.5,87.08c.019.06.034.118.053.175l.045.146.935,2.939.932,2.977L16.3,99.292q1.812,5.982,3.526,11.976.652,2.3,1.29,4.59.725,2.617,1.425,5.23.286,1.076.568,2.154c1.04,3.982,2.025,7.96,2.883,11.876.42,1.952.828,3.9,1.154,5.78.092.477.156.929.235,1.394l.11.684.088.63.09.628c.028.212.047.43.072.644.043.43.1.854.129,1.3a69.425,69.425,0,0,1-.03,11,107.621,107.621,0,0,1-1.509,11.468c-.353,1.919-.753,3.836-1.19,5.74-.223.95-.451,1.9-.692,2.832l-.368,1.385-.35,1.24-.1.37a9.951,9.951,0,0,0,19.053,5.741l.3-.939.263-.846.492-1.661c.317-1.1.614-2.195.9-3.293q.86-3.289,1.569-6.613a129.081,129.081,0,0,0,2.169-13.563c.237-2.312.408-4.652.488-7.031s.072-4.791-.069-7.255c-.026-.612-.083-1.235-.131-1.854-.026-.313-.047-.621-.079-.934l-.1-.942-.106-.94c-.037-.306-.08-.584-.122-.879-.082-.578-.159-1.171-.253-1.732-.347-2.288-.756-4.478-1.182-6.659-.856-4.35-1.811-8.585-2.814-12.789q-.359-1.5-.725-2.993c-.237-.959-.474-1.919-.718-2.876q-.835-3.33-1.706-6.641Q39.221,99.3,37.494,93.128l-1.746-6.166-.893-3.083-.916-3.113A11.174,11.174,0,0,0,12.5,87.08" transform="translate(79.966 7.93)" fill="#ff9568"/>
            <path id="Trazado_128784" data-name="Trazado 128784" d="M17.125,111.985q.725,2.617,1.424,5.23l20.741-6.061c-.238-.959-.475-1.919-.72-2.876Z" transform="translate(83.954 11.804)" fill="#e0693e"/>
            <path id="Trazado_128785" data-name="Trazado 128785" d="M15.3,88.58l7.174,30.287L49.1,112.928S43.128,81,35.1,75.006c-4.446-3.318-8.391-4.039-13-1.646A13.592,13.592,0,0,0,15.3,88.58" transform="translate(76.585 7.843)" fill="#236676"/>
            <path id="Trazado_128786" data-name="Trazado 128786" d="M97.415,159.713S101.3,183.2,98.662,192.6s-66.516,17.609-70.652,8.916c-7.977-16.768-4.754-35.695-4.754-35.695,29.09,6.7,53.128,3.18,74.16-6.113" transform="translate(17.579 17.411)" fill="#36251f"/>
            <path id="Trazado_128787" data-name="Trazado 128787" d="M56.162,165.088q.017.391.034.793c.3,7.044.669,17.02.863,27.2.012.561.021,1.127.033,1.688.053,3.247.091,6.5.1,9.671a.818.818,0,0,1-.808.818h-.007a.816.816,0,0,1-.817-.814c-.009-3.062-.044-6.2-.1-9.332-.009-.551-.018-1.1-.03-1.655-.192-10.242-.563-20.3-.866-27.411-.014-.325-.028-.643-.041-.957Z" transform="translate(24.571 17.997)" fill="#5b413c"/>
            <path id="Trazado_128788" data-name="Trazado 128788" d="M53.2,165.088c.02.436.041.881.061,1.339.436,9.217,1.1,22.265,1.543,25.345a1.824,1.824,0,0,0,.919,1.473,5.571,5.571,0,0,0,3.443.212,16.379,16.379,0,0,0,1.625-.376,19.151,19.151,0,0,0,2.277-.8.816.816,0,1,1,.655,1.494,20.844,20.844,0,0,1-2.9.994,16.275,16.275,0,0,1-1.628.343,11.289,11.289,0,0,1-1.553.134,5.476,5.476,0,0,1-2.716-.576A3.467,3.467,0,0,1,53.189,192c-.454-3.178-1.125-16.245-1.557-25.485-.024-.488-.047-.96-.068-1.427Z" transform="translate(20.837 17.997)" fill="#5b413c"/>
            <path id="Trazado_128789" data-name="Trazado 128789" d="M25.939,120.007c.166,1.4.308,3.132.439,5.13q.067,1.03.133,2.144c.366,6.219.683,14.4,1.272,22.884.052.76.11,1.527.171,2.291,1.369,18.265-4.025,24.627,3.7,26.383,46.925,10.676,66.089-.029,71.8-4.5,6.306-4.935,2.054-24.709-.269-48.022-.077-.788-.15-1.564-.227-2.323-.621-6.345-1.085-11.553-1.1-14.595-.049-14.143-1.9-29.22-4.017-35.682s-25.69-11.591-25.69-11.591L46.018,63.236A92.146,92.146,0,0,0,28.436,77.807c-9.355,9.736-4.251,27.35-2.5,42.2" transform="translate(10.008 6.773)" fill="#236676"/>
            <path id="Trazado_128790" data-name="Trazado 128790" d="M57.209,95.846l11.041,19.428-10.131.71L66.7,130.125,40.878,110.308l12.741-2.1-12.28-11.13Z" transform="translate(28.651 10.448)" fill="#104151"/>
            <path id="Trazado_128791" data-name="Trazado 128791" d="M23.569,63.489s4.565,28.967,7.3,41.556A84.739,84.739,0,0,0,43.1,133.866a89.468,89.468,0,0,0,7.7,9.622c.668.07,2.476-7.658-2.087-18.33C40.3,105.493,33.792,70.3,31.167,65.868s-7.6-2.38-7.6-2.38" transform="translate(64.382 6.869)" fill="#36251f"/>
            <path id="Trazado_128792" data-name="Trazado 128792" d="M43.155,84.918a25.172,25.172,0,0,0-8.419-.136,2.579,2.579,0,0,0-2.083,2.929,109.126,109.126,0,0,0,3.058,14.557A2.579,2.579,0,0,0,38.628,104l7.041-1.285a2.578,2.578,0,0,0,2.011-3.269,56.687,56.687,0,0,1-2.391-12.128,2.571,2.571,0,0,0-2.134-2.4" transform="translate(58.268 9.21)" fill="#5b413c"/>
            <path id="Trazado_128793" data-name="Trazado 128793" d="M57.476,81.081a33.066,33.066,0,0,0,17.9-5.3,34.226,34.226,0,0,0,8.8-7.945.776.776,0,0,0-1.261-.9c-.115.162-11.858,16.123-32.282,11.885a.776.776,0,0,0-.316,1.519,35.168,35.168,0,0,0,7.154.75" transform="translate(2.787 7.261)" fill="#104151"/>
            <path id="Trazado_128794" data-name="Trazado 128794" d="M72.838,70.922A37.893,37.893,0,0,1,88.326,95.075c3.052,16.474-8.342,39.153-21.347,45.608a16.7,16.7,0,0,0,.572,12s28.074-8.55,30.641-44.171S80.76,67.192,80.76,67.192c-2.526-.729-6.478,1.647-7.922,3.73" transform="translate(-29.54 7.31)" fill="#36251f"/>
            <path id="Trazado_128795" data-name="Trazado 128795" d="M66.77,87.82a23.748,23.748,0,0,1,7.683-2.032A2.433,2.433,0,0,1,77.025,88a102.929,102.929,0,0,1,.5,14.031,2.433,2.433,0,0,1-2.278,2.252L68.5,104.7a2.435,2.435,0,0,1-2.583-2.541,53.52,53.52,0,0,0-.557-11.655A2.427,2.427,0,0,1,66.77,87.82" transform="translate(-7.814 9.351)" fill="#5b413c"/>
            <path id="Trazado_128796" data-name="Trazado 128796" d="M30.114,114.851h.024a.539.539,0,0,0,.513-.561c-.009-.191-.864-19.124-3.068-30.326a.537.537,0,0,0-1.055.207c2.188,11.123,3.039,29.977,3.048,30.165a.537.537,0,0,0,.537.515" transform="translate(82.172 9.106)" fill="#104151"/>
            <path id="Trazado_128797" data-name="Trazado 128797" d="M27.5,91.019a.537.537,0,0,0,.511-.37l1.354-4.123a.538.538,0,0,0-1.023-.335l-1.354,4.123a.539.539,0,0,0,.344.679.55.55,0,0,0,.167.027" transform="translate(82.946 9.355)" fill="#104151"/>
            <path id="Trazado_128798" data-name="Trazado 128798" d="M38.916,166.216c10.192.64,20.787-3.319,31.073-11.689a87.32,87.32,0,0,0,16-17.311.744.744,0,1,0-1.242-.818,85.885,85.885,0,0,1-15.722,17c-8.8,7.153-22.489,14.677-37.732,9.9a.744.744,0,1,0-.445,1.421,34.065,34.065,0,0,0,8.071,1.5" transform="translate(22.499 14.832)" fill="#104151"/>
            <path id="Trazado_128799" data-name="Trazado 128799" d="M43.271,155.94a.681.681,0,0,0,.164-.007c12.473-1.99,23.141-17.11,23.589-17.754a.744.744,0,0,0-1.221-.849c-.106.152-10.756,15.244-22.6,17.134a.743.743,0,0,0,.07,1.476" transform="translate(27.864 14.936)" fill="#104151"/>
            <path id="Trazado_128800" data-name="Trazado 128800" d="M98.214,27.787s-1.4-7.114.426-13.018c1.794-5.809,1.794-9.28.675-10.31C95.793,1.214,92.48,9.108,92.48,9.108s.929-7.338-2.118-7.545-5.179,6.906-5.179,6.906S85.751-1.947,81.761.325,76.3,9.546,76.3,9.546,62.6,11.829,57.557,21.021c0,0-4.124-4.394-6.809-1.8S53.64,26.1,53.64,26.1s-4.285,2.819-3.624,6.868,5.752,1.274,5.752,1.274S54.91,55.909,73.315,61.863s24.9-34.075,24.9-34.075" transform="translate(-13.24 0)" fill="#d65900"/>
            <path id="Trazado_128801" data-name="Trazado 128801" d="M82.011,58.516l.883,6.559a19.474,19.474,0,0,1-1.957,1.919c-9.753,8.274-22.405,1.357-22.405,1.357L55.472,45.613,78.846,56.978Z" transform="translate(-2.177 4.972)" fill="#ff9568"/>
            <path id="Trazado_128802" data-name="Trazado 128802" d="M74.133,57.584l.883,6.559a19.476,19.476,0,0,1-1.957,1.919c-9.6-2.616-17.587-11.9-17.587-11.9l15.5,1.884Z" transform="translate(5.7 5.904)" fill="#36251f"/>
            <path id="Trazado_128803" data-name="Trazado 128803" d="M46.493,34.6s2.936-4.594,5.464-.734,2.133,12.41-3.364,11.759Z" transform="translate(37.221 3.523)" fill="#e0693e"/>
            <path id="Trazado_128804" data-name="Trazado 128804" d="M88.05,47.719s1.43,12.848-11.792,14.6A34.92,34.92,0,0,1,53.015,57.2L53,57.194l-.5-2.652L49.885,40.781l-1.4-7.355S45.017,20.31,57.368,16.172c9.024-3.024,17.917-2.654,22.951,1.589.163.136.322.278.472.425a11.5,11.5,0,0,1,3.33,5.878l2.2,13.253.539,3.248Z" transform="translate(0.864 1.547)" fill="#ff9568"/>
            <path id="Trazado_128805" data-name="Trazado 128805" d="M54.252,41.839s1.906,5.515,6.492,6.269c5.221.858,6.174-5.668,6.174-5.668Z" transform="translate(15.151 4.561)" fill="#f4ece1"/>
            <path id="Trazado_128806" data-name="Trazado 128806" d="M60.974,49.36a2.775,2.775,0,0,0,.3-.111.425.425,0,0,0-.349-.774,2.72,2.72,0,0,1-2.679-.339.425.425,0,1,0-.53.663,3.5,3.5,0,0,0,3.254.561" transform="translate(16.87 5.237)" fill="#e0693e"/>
            <path id="Trazado_128807" data-name="Trazado 128807" d="M68.323,34.133c.171,1.271-.267,2.379-.978,2.474s-1.425-.857-1.6-2.128.267-2.378.978-2.474,1.426.857,1.6,2.128" transform="translate(1.002 3.488)" fill="#36251f"/>
            <path id="Trazado_128808" data-name="Trazado 128808" d="M56.987,32.608c.171,1.271-.267,2.379-.978,2.474s-1.425-.857-1.6-2.128.267-2.378.978-2.473,1.426.856,1.6,2.127" transform="translate(24.909 3.322)" fill="#36251f"/>
            <path id="Trazado_128809" data-name="Trazado 128809" d="M58.567,40.226a4.508,4.508,0,0,0,3.884-2.819.529.529,0,0,0-.064-.448c-2.714-4.092-5.471-8.3-5.5-8.344a.528.528,0,0,0-.883.578c.027.042,2.682,4.094,5.345,8.114a3.618,3.618,0,0,1-2.926,1.874.528.528,0,1,0,.141,1.046" transform="translate(17.745 3.093)" fill="#36251f"/>
            <path id="Trazado_128810" data-name="Trazado 128810" d="M68.072,21a3.1,3.1,0,0,0-2.6,2.9,5.006,5.006,0,0,1-2.1,3.66c-3.719,3.129-2.513,6.58-1.188,9.4s-3.833,9.052-8.421,2.219-3.338-22.7,7.4-24.891,25.548-.6,27.406,4.143a24.728,24.728,0,0,1,1.681,9.043,5.837,5.837,0,0,1-2.229-4.36c-.276-3.1-2.574-4.027-6.224-4.027-2.489,0-9.514,1.168-13.731,1.911" transform="translate(-4.861 1.452)" fill="#d65900"/>
            <g id="Grupo_157541" data-name="Grupo 157541" transform="translate(82.222 38.863)" opacity="0.8">
              <g id="Grupo_157540" data-name="Grupo 157540" transform="translate(0)">
                <g id="Grupo_157539" data-name="Grupo 157539" transform="translate(0)" clip-path="url(#clip-path-3)">
                  <path id="Trazado_128811" data-name="Trazado 128811" d="M54.656,38.291c-.324.077-.667.14-1.019.187-2.348.316-4.355-.179-4.479-1.1s1.68-1.933,4.029-2.249q.477-.063.93-.083Z" transform="translate(-49.151 -35.043)" fill="#e0693e"/>
                </g>
              </g>
            </g>
            <path id="Trazado_128812" data-name="Trazado 128812" d="M73.5,38.727c.124.925-1.68,1.932-4.031,2.248s-4.356-.177-4.482-1.1,1.68-1.932,4.031-2.248,4.357.177,4.482,1.1" transform="translate(-3.33 4.091)" fill="#e0693e"/>
            <path id="Trazado_128813" data-name="Trazado 128813" d="M64.863,29.381h0a3.015,3.015,0,0,0,4.108.993,16.788,16.788,0,0,1,2.861-1.385A2.771,2.771,0,0,0,73.452,25.3s-6.23.264-8.588,4.079" transform="translate(-3.371 2.758)" fill="#d65900"/>
            <path id="Trazado_128814" data-name="Trazado 128814" d="M60.638,26.276h0a3.016,3.016,0,0,1-3.7,2.043,16.817,16.817,0,0,0-3.124-.58,2.77,2.77,0,0,1-2.535-3.127s6.077-1.392,9.36,1.665" transform="translate(24.757 2.648)" fill="#d65900"/>
            <path id="Trazado_128815" data-name="Trazado 128815" d="M80.526,47.826c-.041.149-1.192,4.253-3.445,5.713l-.014-.011-.5-2.652a9.2,9.2,0,0,0,3.961-3.05" transform="translate(-23.203 5.214)" fill="#36251f"/>
            <path id="Trazado_128816" data-name="Trazado 128816" d="M87.95,40.427s-6-6.142-9-.277c-2.473,4.832,4.875,15.568,10.416,10.806Z" transform="translate(-34.141 4.1)" fill="#ff9568"/>
            <path id="Trazado_128817" data-name="Trazado 128817" d="M85.923,48.641c.019,0,.038-.007.058-.01a.529.529,0,0,0,.385-.64,9.873,9.873,0,0,0-6.789-7.127.527.527,0,0,0-.257,1.023,8.814,8.814,0,0,1,6.023,6.358.528.528,0,0,0,.581.4" transform="translate(-31.669 4.453)" fill="#36251f"/>
            <path id="Trazado_128818" data-name="Trazado 128818" d="M81.561,45.868a.522.522,0,0,0,.314-.161c.4-.43,1.661-1.52,2.594-1.411a.528.528,0,0,0,.123-1.048c-1.624-.191-3.3,1.538-3.486,1.736a.528.528,0,0,0,.455.884" transform="translate(-32.611 4.713)" fill="#36251f"/>
            <path id="Trazado_128819" data-name="Trazado 128819" d="M80.764,146.252l.011.495c.01.663.044,1.316.083,1.967.083,1.3.223,2.58.4,3.835a58.8,58.8,0,0,0,3.914,13.978,78.925,78.925,0,0,0,6.314,12.087c1.186,1.891,2.462,3.709,3.781,5.494.668.888,1.351,1.764,2.057,2.637.352.437.718.867,1.088,1.3l.57.66.659.746a8.394,8.394,0,1,0,13.177-10.4c.011,0-.012-.032-.032-.071l-.07-.12-.154-.263-.319-.555-.651-1.159c-.437-.781-.863-1.579-1.278-2.384-.842-1.6-1.615-3.244-2.351-4.882a70.2,70.2,0,0,1-3.59-9.871,46.082,46.082,0,0,1-1.081-4.83q-.19-1.189-.324-2.344c-.083-.769-.139-1.527-.166-2.268s-.032-1.473,0-2.179c.018-.355.037-.7.069-1.047l.1-1.22c.143-1.721.338-3.513.593-5.349s.541-3.691.858-5.568.649-3.766,1.006-5.66q.556-2.891,1.148-5.8.359-1.775.739-3.555c.145-.69.292-1.383.444-2.075l1.265-5.74,1.316-5.746,1.346-5.74,1.357-5.658.043-.18a12.264,12.264,0,1,0-23.85-5.723l0,.012-.732,3.06c-.236,1.006-.458,2.008-.683,3.012-.449,2.006-.867,4.015-1.282,6.026s-.81,4.026-1.189,6.049-.76,4.045-1.1,6.081q-.2,1.143-.386,2.292-.4,2.4-.764,4.815-.391,2.588-.734,5.2c-.269,2.075-.529,4.158-.752,6.267s-.408,4.239-.558,6.406-.251,4.378-.281,6.671l-.009.865Z" transform="translate(-61.96 8.684)" fill="#ff9568"/>
            <path id="Trazado_128820" data-name="Trazado 128820" d="M87.357,116.878l23.478,3.07q.359-1.775.739-3.555l-23.452-4.33q-.4,2.4-.764,4.815" transform="translate(-66.218 12.216)" fill="#e0693e"/>
            <path id="Trazado_128821" data-name="Trazado 128821" d="M114.161,92.731l-7.4,30.233-26.584-6.138S86.387,84.943,94.463,79.01c4.469-3.284,8.42-3.975,13.01-1.547a13.589,13.589,0,0,1,6.688,15.269" transform="translate(-61.24 8.286)" fill="#236676"/>
            <path id="Trazado_128822" data-name="Trazado 128822" d="M82.623,119.416a.536.536,0,0,0,.522-.414L88.6,96.047a.538.538,0,0,0-1.046-.25L82.1,118.754a.538.538,0,0,0,.4.648.528.528,0,0,0,.124.014" transform="translate(-37.41 10.398)" fill="#104151"/>
            <path id="Trazado_128823" data-name="Trazado 128823" d="M80.818,101.742a.533.533,0,0,0,.3-.094l3.333-2.281a.538.538,0,0,0-.608-.888l-3.333,2.282a.538.538,0,0,0,.3.981" transform="translate(-31.485 10.725)" fill="#104151"/>
            <path id="Trazado_128824" data-name="Trazado 128824" d="M79.783,196.778a171.9,171.9,0,0,0,13.042-11.695c-.017-.035-.027-.053-.027-.053l.05.029a58.828,58.828,0,0,0,4.3-4.978c-.372-.7-.706-1.312-.976-1.778a24.59,24.59,0,0,0-6.487-6.673c-1.739-1.162-3.336-3.4-4.917-3.5-5.007-.313-11.441,3.908-11.432,6.54.014,3.876,2.038,11.63,2.549,14.551.206,1.18,1.231,4.875,2.482,8.763q.707-.6,1.416-1.207" transform="translate(-36.243 18.326)" fill="#ff9568"/>
            <path id="Trazado_128825" data-name="Trazado 128825" d="M71.282,198.323a1.041,1.041,0,0,1,.329-.759L92.3,178.248a1.024,1.024,0,0,1,1.4-.006l.016.013a1.03,1.03,0,0,1,.007,1.508L73.028,199.081a1.038,1.038,0,0,1-1.747-.759" transform="translate(-30.859 19.401)" fill="#5b413c"/>
            <path id="Trazado_128826" data-name="Trazado 128826" d="M18.344,165.5s2.851,18.652,6.43,23.2c0,0,8.585-8.928,4.523-23.138-2.727-9.535-10.953-.06-10.953-.06" transform="translate(91.504 17.584)" fill="#ff9568"/>
          </g>
        </g>
      </g>
    </g>
  </g>
</svg>
