<svg id="Grupo_157914" data-name="Grupo 157914" xmlns="http://www.w3.org/2000/svg" xmlns:xlink="http://www.w3.org/1999/xlink" width="89.953" height="89.969" viewBox="0 0 89.953 89.969">
  <defs>
    <clipPath id="clip-path">
      <rect id="Rectángulo_37511" data-name="Rectángulo 37511" width="89.953" height="89.969" fill="none"/>
    </clipPath>
  </defs>
  <g id="Grupo_157914-2" data-name="Grupo 157914" clip-path="url(#clip-path)">
    <path id="Trazado_130386" data-name="Trazado 130386" d="M.036,96.662C.025,96.275,0,95.888,0,95.5Q0,71.707,0,47.914,0,39.87,0,31.827A6.2,6.2,0,0,1,6.516,25.32c2.2,0,4.394-.026,6.59.015.662.012.882-.142.872-.842a14.712,14.712,0,0,1,.148-3.667,6.147,6.147,0,0,1,5.926-4.8q9.4-.036,18.8,0a6.171,6.171,0,0,1,6.122,6.115c.013.743.049,1.49-.01,2.228s.136.985.932.974c3.294-.047,6.59-.014,9.885-.011a.874.874,0,0,1,.334.768c.042,1.613.058,3.226-.009,4.839a1.081,1.081,0,0,1-.224.629A3.062,3.062,0,0,1,54,31.835q-21.161.011-42.323.007c-2.173,0-2.053-.13-2.057,2.054q0,2.47,0,4.939c0,1.677,0,1.679,1.726,1.679H33.141q10.363,0,20.726,0a7.549,7.549,0,0,1,1.638.08c.577.16.566.643.568,1.094.013,2.52.023,5.04,0,7.559-.01.944-.2,1.116-1.167,1.125-2.549.024-5.1,0-7.781.015,1.139,1.436,2.271,2.734,3.389,4.041q5.984,6.99,11.944,14c.712.836,1.432,1.664,2.145,2.5.339.4.572.411.915.005,3.149-3.722,6.351-7.4,9.533-11.09,1.559-1.81,3.095-3.641,4.69-5.419.262-.292.514-.747,1.017-.3a2.9,2.9,0,0,1,.2,1.425q.006,17.336,0,34.673a6.5,6.5,0,0,1-6.8,6.75q-36.271.013-72.541,0a2.108,2.108,0,0,1-1.573-.3" transform="translate(0 -12.894)" fill="#fcca00"/>
    <path id="Trazado_130387" data-name="Trazado 130387" d="M.159,135.284l74.211,0a6.174,6.174,0,0,0,6.4-6.377q0-17.584-.006-35.168c0-.371.142-.781-.178-1.107.035-.778.651-1.2,1.093-1.709.522-.6,1.026-1.21,1.61-1.9-.663-.041-1.234,0-1.8-.03-.387-.02-.784-.038-.931-.51-.2-3-.071-6.008-.074-9.011-.047-2.583,0-5.166-.023-7.749-.009-1.2-.069-1.255-1.261-1.265-1.13-.01-2.261.006-3.391-.007a1.971,1.971,0,0,1-1.3-.27,1.654,1.654,0,0,1-.247-1.016c-.016-1.385-.019-2.771,0-4.156a1.234,1.234,0,0,1,.34-1.064c3.037,0,6.073-.009,9.11,0a6.181,6.181,0,0,1,6.361,6.366q.009,32.613,0,65.225a6.106,6.106,0,0,1-5.943,5.944q-39.01.009-78.019,0a6.069,6.069,0,0,1-5.949-6.2" transform="translate(-0.123 -51.516)" fill="#dcb100"/>
    <path id="Trazado_130388" data-name="Trazado 130388" d="M268.033,12.428q0,3.1,0,6.2a1.5,1.5,0,0,1,.27,1c0,2.756.039,5.513-.017,8.269.045,2.576,0,5.153.021,7.73.008,1.255.054,1.3,1.309,1.307,1.127.007,2.255-.005,3.382.006a1.757,1.757,0,0,1,1.2.272h3.1l-3.274,3.9q-5.034,5.811-10.068,11.624c-1.771,2.048-3.533,4.1-5.348,6.211L240.234,37.416c.193-.308.478-.164.7-.166,2.549-.012,5.1-.017,7.647,0,.515,0,.829-.026.818-.7-.046-2.871-.037-5.742-.047-8.613a1.6,1.6,0,0,1-.277-1.1q-.015-3.562,0-7.123a1.741,1.741,0,0,1,.266-1.1q0-3.089,0-6.179c.016-3.809.058-7.619.028-11.428-.006-.791.165-1.014.988-1.007q8.381.062,16.762,0c.724,0,.9.171.9.9-.029,3.842,0,7.685.017,11.527" transform="translate(-193.555 0)" fill="#d70027"/>
    <path id="Trazado_130389" data-name="Trazado 130389" d="M66.335,337.9c-5.846,0-11.691-.011-17.537.014-.722,0-1-.134-.992-.94q.057-8.381.005-16.762c0-.7.141-.939.9-.937q17.73.037,35.461,0c.765,0,.892.257.889.944-.025,5.587-.033,11.175.006,16.761.006.817-.287.936-1,.933-5.91-.024-11.82-.014-17.731-.014" transform="translate(-38.517 -257.238)" fill="#5eab24"/>
    <path id="Trazado_130390" data-name="Trazado 130390" d="M94.224,95.728q.006,4.66.013,9.321-22.715,0-45.429.021c-.868,0-1.126-.195-1.1-1.088.068-2.42.059-4.843,0-7.264-.018-.793.167-1.008.988-1.007q22.763.04,45.526.017" transform="translate(-38.436 -77.114)" fill="#006def"/>
    <path id="Trazado_130391" data-name="Trazado 130391" d="M383.28,105.127q0-4.655,0-9.309c1.8,0,3.606.018,5.408-.01.542-.008.792.062.782.712-.044,2.864-.026,5.729-.031,8.594a14.115,14.115,0,0,1-6.161.013" transform="translate(-308.806 -77.191)" fill="#006def"/>
    <path id="Trazado_130392" data-name="Trazado 130392" d="M383.119,143.718l6.161-.013q0,4.644,0,9.287c-1.868.01-3.736.009-5.6.039-.469.008-.605-.164-.6-.616.025-2.9.028-5.8.039-8.7" transform="translate(-308.645 -115.782)" fill="#fecc00"/>
    <path id="Trazado_130393" data-name="Trazado 130393" d="M121.876,343.3q4.063,0,8.126,0c1.206,0,1.925.594,1.919,1.557s-.72,1.541-1.935,1.542q-8.126.005-16.253,0c-1.238,0-1.94-.548-1.966-1.51-.027-.99.71-1.587,1.982-1.589q4.063-.006,8.126,0" transform="translate(-90.049 -276.593)" fill="#f0f1f1"/>
    <path id="Trazado_130394" data-name="Trazado 130394" d="M121.839,378.326q-4.063,0-8.126,0c-1.218,0-1.931-.573-1.942-1.534s.706-1.564,1.909-1.564q8.175-.006,16.349,0c1.193,0,1.916.617,1.9,1.58-.02.93-.721,1.514-1.862,1.517-2.741.008-5.482,0-8.223,0" transform="translate(-90.053 -302.315)" fill="#f0f1f1"/>
    <path id="Trazado_130395" data-name="Trazado 130395" d="M74.181,343.292c1.581,0,2.307.475,2.326,1.523.02,1.073-.74,1.579-2.369,1.579-.225,0-.45.01-.674,0a1.55,1.55,0,1,1,.043-3.1c.224-.01.449,0,.674,0" transform="translate(-57.898 -276.585)" fill="#eff1f0"/>
    <path id="Trazado_130396" data-name="Trazado 130396" d="M74.205,375.218h.289c1.284.007,2.011.567,2.01,1.551s-.727,1.545-2.011,1.551c-.321,0-.643.01-.963,0a1.554,1.554,0,1,1,0-3.1c.224-.009.449,0,.674,0" transform="translate(-57.895 -302.309)" fill="#eff1f0"/>
  </g>
</svg>
