<svg xmlns="http://www.w3.org/2000/svg" xmlns:xlink="http://www.w3.org/1999/xlink" width="173" height="101" viewBox="0 0 173 101">
  <defs>
    <clipPath id="clip-path">
      <rect id="Rect치ngulo_37362" data-name="Rect치ngulo 37362" width="84.521" height="84.5" fill="none"/>
    </clipPath>
  </defs>
  <g id="Grupo_157519" data-name="Grupo 157519" transform="translate(-313 -2995)">
    <rect id="Rect치ngulo_36124" data-name="Rect치ngulo 36124" width="173" height="101" transform="translate(313 2995)" fill="#e1e8ff"/>
    <g id="Grupo_157518" data-name="Grupo 157518" transform="translate(357 3003)">
      <g id="Grupo_157517" data-name="Grupo 157517" clip-path="url(#clip-path)">
        <path id="Trazado_128598" data-name="Trazado 128598" d="M66.4,0h1.321A113.971,113.971,0,0,1,79.789,1.78q11.361,2,22.718,4.009c2.92.518,5.845,1.014,8.76,1.558.35.065.723.08.9.473a3,3,0,0,1-.031,1.783q-1.858,10.426-3.694,20.856c-1.318,7.466-2.61,14.937-3.959,22.4a2.417,2.417,0,0,1-.479,1.118c-.315.286-.673.162-1.02.1q-10.48-1.856-20.96-3.709c-7.341-1.291-14.686-2.552-22.019-3.885a3.248,3.248,0,0,0-3,.7c-.484.446-.823.321-1.068-.246.2-2.11.672-4.176,1.035-6.26Q59.05,28.73,61.167,16.79c.076-.43.347-.814.275-1.271.577-3.8,1.315-7.583,1.971-11.374.07-.406.143-.813.211-1.219C63.891,1.318,64.564.111,66.4,0" transform="translate(-37.341)" fill="#e54c3c"/>
        <path id="Trazado_128599" data-name="Trazado 128599" d="M0,83.382a.12.12,0,0,1,.134-.012,1.087,1.087,0,0,1,.007,1.673l-.071.006L0,85.033Z" transform="translate(0 -55.643)" fill="#c3c8cf"/>
        <path id="Trazado_128600" data-name="Trazado 128600" d="M.411,60.642q0-.837-.007-1.673c.51-5.019,3.886-8.563,9.127-9.509,5.05-.911,10.11-1.774,15.165-2.658-.466,2.733-.922,5.468-1.4,8.2Q21.275,66.567,19.238,78.13c.269.833-.023,1.708.2,2.546a2.426,2.426,0,0,0,1.335,1.665c.345.167.707.323.735.79a4.97,4.97,0,0,1-.171,2.18c-.365,2.009-.633,4.037-1.119,6.023a1.4,1.4,0,0,1-.931.584c-1.908.428-2.5,1.245-2.376,3.242a.849.849,0,0,1-.1.548,2.179,2.179,0,0,1-1,.545,9.935,9.935,0,0,0-6.877,8.253c-.071.416-.025.91-.588,1.058-.437-2.373-.888-4.743-1.308-7.119Q4.761,85.55,2.5,72.652q-1.054-6-2.087-12.01" transform="translate(-0.27 -31.242)" fill="#35495e"/>
        <path id="Trazado_128601" data-name="Trazado 128601" d="M53.51,144.084c-2.585-.929-2.693-2.9-2.071-4.914.037.25.107.374.333.118a3.322,3.322,0,0,1,3.381-.948c7.571,1.358,15.149,2.68,22.725,4.017Q87.942,144.134,98,145.917c.323.057.648.105.972.157a1.22,1.22,0,0,1,.93-.211,10.887,10.887,0,0,1,9.025,7.893,9.078,9.078,0,0,1,0,3.248,10.3,10.3,0,0,1-7.468,9.238c-.21.061-.418.128-.627.192-1.087.9-2.365.61-3.555.448-3.266-.444-6.493-1.14-9.754-1.628-.3-.045-.6-.081-.9-.119a9.954,9.954,0,0,0-3.248-.609c-6.543-1.16-13.084-2.335-19.632-3.47a12.846,12.846,0,0,0-2.436-.385c-3.186-.827-6.47-1.122-9.687-1.781a3.923,3.923,0,0,1-2.555-1.187c-.242-.306-.49-.612-.266-1.039-.579-2.368.395-3.769,2.851-4.112a2.044,2.044,0,0,0,.381-.132,11.255,11.255,0,0,1,3.828.457c6.867,1.289,13.757,2.443,20.635,3.671q10.235,1.827,20.48,3.6a6.25,6.25,0,0,0,2.371.166,3.965,3.965,0,0,0-.177-7.836c-2.7-.5-5.415-.971-8.124-1.447q-9.712-1.708-19.419-3.443c-4.656-.835-9.311-1.683-13.977-2.463-1.084-.182-2.175-.329-3.253-.545-.345-.069-.724-.1-.892-.5" transform="translate(-32.471 -92.282)" fill="#8c4241"/>
        <path id="Trazado_128602" data-name="Trazado 128602" d="M119.451,75.144c-.361,2.022-.759,4.239-1.153,6.457-.446,2.516-.882,5.033-1.337,7.547a1.455,1.455,0,0,1-1.93,1.356q-9.7-1.7-19.4-3.417c-3.327-.586-6.654-1.176-9.984-1.747C84.152,85.083,83.737,84.5,84,83q1.2-6.733,2.39-13.47c.223-1.258.834-1.7,2.084-1.477q14.77,2.61,29.538,5.23c1.052.187,1.484.7,1.433,1.86" transform="translate(-56.026 -45.393)" fill="#ebeff0"/>
        <path id="Trazado_128603" data-name="Trazado 128603" d="M210,80.649a10.5,10.5,0,0,0-5.342-9.494,14.016,14.016,0,0,0-4.612-1.436c.512-2.083.8-4.209,1.175-6.318q1.96-11,3.881-22,1.541-8.769,3.073-17.539a10.62,10.62,0,0,1,9.753,8.558,17.111,17.111,0,0,1-.415,5.952q-1.437,8.294-2.918,16.581-1.7,9.583-3.407,19.163c-.389,2.18-.792,4.356-1.188,6.535" transform="translate(-133.538 -15.928)" fill="#bf3a2b"/>
        <path id="Trazado_128604" data-name="Trazado 128604" d="M129.841,28.445c-1.915-.335-4-.7-6.082-1.065q-13.069-2.3-26.138-4.6c-.216-.038-.433-.08-.645-.138a1.445,1.445,0,0,1-1.127-1.668,1.363,1.363,0,0,1,1.562-1.149c1.443.186,2.876.45,4.31.7q13.88,2.447,27.759,4.9c.325.057.652.106.972.186a1.457,1.457,0,0,1,1.18,1.634c-.131.776-.754,1.24-1.789,1.2" transform="translate(-63.967 -13.223)" fill="#3f5c6c"/>
        <path id="Trazado_128605" data-name="Trazado 128605" d="M133.522,49.618a1.447,1.447,0,0,1-1.869,1.409q-4.586-.795-9.17-1.608Q116.6,48.38,110.72,47.335c-1.129-.2-1.679-.8-1.545-1.729.13-.891.893-1.323,2.017-1.126q10.426,1.831,20.853,3.668c.995.176,1.475.667,1.477,1.47" transform="translate(-72.866 -29.661)" fill="#3f5c6c"/>
        <path id="Trazado_128606" data-name="Trazado 128606" d="M70.373,201.75c2.575.183,5.084.788,7.619,1.214a19.508,19.508,0,0,0,6.6.46,2.742,2.742,0,0,1-2.355,2.128q-12.159,2.161-24.322,4.3c-7,1.235-14.009,2.418-21,3.718a10.3,10.3,0,0,1-12.447-8.754c-.063-.405-.109-.813-.163-1.22a11.863,11.863,0,0,1,2.6-6.532,10.333,10.333,0,0,1,5.653-3.408,3.647,3.647,0,0,0,2.94,1.835c3.217.56,6.451,1.027,9.638,1.748-.2.559-.728.537-1.16.618-3.052.569-6.108,1.115-9.164,1.662-.352.063-.7.125-1.052.205a3.971,3.971,0,0,0-3.022,4.762,4.045,4.045,0,0,0,4.625,3.033c9.663-1.678,19.319-3.4,28.981-5.088a21.943,21.943,0,0,1,6.026-.679" transform="translate(-16.225 -129.273)" fill="#2c3e50"/>
        <path id="Trazado_128607" data-name="Trazado 128607" d="M60.327,155.815c2.6.416,5.2.8,7.788,1.253,4.23.733,8.452,1.513,12.679,2.262q12.651,2.241,25.3,4.473a4.384,4.384,0,1,1-1.671,8.593c-7.031-1.24-14.068-2.452-21.1-3.685q-9.821-1.721-19.637-3.465c-1.4-.249-2.8-.531-4.206-.794-.239-.045-.507-.017-.628-.3l1.472-8.336" transform="translate(-39.288 -104.013)" fill="#f8e9af"/>
        <path id="Trazado_128608" data-name="Trazado 128608" d="M82.275,208.945c-2.091.392-4.18.8-6.274,1.172-2.658.474-5.321.914-7.98,1.381q-5.469.96-10.934,1.937-4.942.877-9.886,1.755a4.632,4.632,0,0,1-4.489-2.126,4.708,4.708,0,0,1,.138-4.749,4.548,4.548,0,0,1,3.195-1.9c3.668-.646,7.33-1.318,11-1.979,2.121.349,4.245.684,6.363,1.052,3.321.578,6.637,1.182,9.956,1.769,2.887.51,5.776,1.011,8.663,1.523.092.016.17.111.254.169" transform="translate(-28.127 -136.467)" fill="#aeaf9d"/>
      </g>
    </g>
  </g>
</svg>
