<svg xmlns="http://www.w3.org/2000/svg" xmlns:xlink="http://www.w3.org/1999/xlink" width="173" height="89" viewBox="0 0 173 89">
  <defs>
    <clipPath id="clip-path">
      <rect id="Rectángulo_37363" data-name="Rectángulo 37363" width="79.207" height="79.251" fill="none"/>
    </clipPath>
  </defs>
  <g id="Grupo_157529" data-name="Grupo 157529" transform="translate(-3330 7650)">
    <path id="Trazado_128637" data-name="Trazado 128637" d="M0,0H173V89H0Z" transform="translate(3330 -7650)" fill="#e1e8ff"/>
    <g id="Grupo_157525" data-name="Grupo 157525" transform="translate(3377 -7645)">
      <g id="Grupo_157524" data-name="Grupo 157524" clip-path="url(#clip-path)">
        <path id="Trazado_128609" data-name="Trazado 128609" d="M25.689,128.112c1.689-.948,3.372-1.907,5.072-2.836a1.276,1.276,0,0,0,.729-.974c1.059-5.344,2.258-10.657,3.506-15.961a11.5,11.5,0,0,1,2.809-5.183,8.133,8.133,0,0,1,4.5-2.734c.408.241.394.7.52,1.07a9.776,9.776,0,0,0,8.977,6.977,9.574,9.574,0,0,0,8.57-4.235,10.558,10.558,0,0,0,1.484-3.259c.075-.256.069-.553.35-.707a.775.775,0,0,1,.629.071,21.844,21.844,0,0,1,3.419,1.876,3.391,3.391,0,0,1,.8.907c1.953,1.858,2.722,4.266,3.284,6.813,1.063,4.819,2.21,9.618,3.121,14.47a1.164,1.164,0,0,0,.686.843c1.626.9,3.243,1.809,4.863,2.717.066.317-.143.518-.33.707a2.638,2.638,0,0,0-.737,2.016c.011.546-.016,1.092.009,1.638a2.124,2.124,0,0,0,2.217,2.239c1.963,0,1.682.3,1.708,1.838a6.186,6.186,0,0,0,.062,1.385,2.362,2.362,0,0,0,1.306,1.81c.176.083.416.167.355.456-2.595.284-4.888-.812-7.251-1.586l-3.168-1.039a.509.509,0,0,1-.276-.541c.033-.767-.422-.867-1.041-.85a4.282,4.282,0,0,1-1.6-.106c-.366-.233-.3-.615-.311-.959a16.4,16.4,0,0,0-3.892-10.117,2.708,2.708,0,0,1-.731-1.163,3.141,3.141,0,0,1,.348-.912,7.262,7.262,0,0,0-.953-7.78,2.975,2.975,0,0,1-.693-1.96,2.337,2.337,0,0,0-.185-1.394,7.649,7.649,0,0,0-1.6,2.353c-.187.5.171.882.517,1.208a5.7,5.7,0,0,1,1.64,2.218A5.034,5.034,0,0,1,64,122.345c-.482.156-.751-.222-1.066-.448a15.766,15.766,0,0,0-5.566-2.635,19.331,19.331,0,0,0-2.849-.479,1.169,1.169,0,0,1-.806-.311,2.343,2.343,0,0,1-.152-1.433c.026-.43.34-.565.7-.692a1.725,1.725,0,0,0,1.344-1.8,1.778,1.778,0,0,0-1.768-1.62,17.511,17.511,0,0,0-3.183.011,1.769,1.769,0,0,0-1.7,1.6,1.74,1.74,0,0,0,1.33,1.814c.794.3.929.746.613,2.041a1.119,1.119,0,0,1-.867.385,16.5,16.5,0,0,0-8.513,3.26,1.23,1.23,0,0,1-.877.375,3.823,3.823,0,0,1-.981-3.321,5.788,5.788,0,0,1,2.028-3.906c.811-.72.836-.992.224-1.869-.312-.448-.612-.907-.967-1.323-.1-.123-.228-.281-.407-.2s-.16.268-.16.432a1.312,1.312,0,0,0,.039.325,2.545,2.545,0,0,1-.57,2.294A8.423,8.423,0,0,0,38.2,118.2a7.567,7.567,0,0,0,.64,4.707,4,4,0,0,1,.37.908.938.938,0,0,1-.329.635,16.937,16.937,0,0,0-4.18,9.06c-.218.767.116,1.6-.3,2.345a3.145,3.145,0,0,1-1.751.185c-.653-.012-1.053.148-1.008.9a.64.64,0,0,1-.271.641c-1.7.559-3.418,1.061-5.09,1.691a12.539,12.539,0,0,1-5.346.789c-.062-.29.18-.373.355-.456a2.371,2.371,0,0,0,1.306-1.813,15.9,15.9,0,0,0,.066-2.2c.036-.807.166-.946.957-.993.244-.014.489,0,.733-.015a2.182,2.182,0,0,0,2.228-2.23c.033-.651.02-1.3,0-1.957a2.49,2.49,0,0,0-.541-1.508c-.178-.227-.438-.427-.36-.777" transform="translate(-12.711 -60.859)" fill="#fe7d71"/>
        <path id="Trazado_128610" data-name="Trazado 128610" d="M63.808,21.626a20.97,20.97,0,0,1-.985-12.081c.629-2.707,2.119-4.785,4.983-5.54a4.755,4.755,0,0,1,3.2.3.8.8,0,0,0,1.1-.253A11.847,11.847,0,0,1,79.281.105a12.679,12.679,0,0,1,13.09,7.2c1.837,3.844,1.486,7.689.059,11.536-.35.943-.819,1.842-1.233,2.762-.3.259-.6.085-.9,0a7.893,7.893,0,0,0-1.971-.1,22.34,22.34,0,0,1-6.5-.66c-5.224-1.425-8.965-4.428-10.475-9.815-.035-.126-.042-.273-.246-.343a9.83,9.83,0,0,0-1.857,2.635,19.516,19.516,0,0,0-1.969,6.313,3.152,3.152,0,0,1-.394,1.565c-1.026.13-2.042.332-3.073.423" transform="translate(-37.849 0)" fill="#4a5870"/>
        <path id="Trazado_128611" data-name="Trazado 128611" d="M96.8,36.948c.27.082.516.28.826.179,1.812,1.245,2.277,2.708,1.351,4.346a3.223,3.223,0,0,1-1.99,1.581.966.966,0,0,1-.367.182,15.562,15.562,0,0,0-2.479.139,8.792,8.792,0,0,0-1.158,1.762,10.393,10.393,0,0,1-4.638,3.72,12.152,12.152,0,0,1-8.733.043,10.323,10.323,0,0,1-5.89-5.767,11.261,11.261,0,0,1-.753-5.363,2.239,2.239,0,0,1,.342-1.161c.411-4.062,1.485-7.856,4.446-11.046a20.407,20.407,0,0,0,.83,2.72c1.848,4.3,5.265,6.685,9.65,7.863a20.177,20.177,0,0,0,6.4.673c.713.189,1.451-.043,2.165.129" transform="translate(-44.274 -15.521)" fill="#fec6b2"/>
        <path id="Trazado_128612" data-name="Trazado 128612" d="M47.525,192.153c.046-1.778.046-1.777,1.842-1.779.376,0,.753-.011,1.129-.016a1.85,1.85,0,0,1,1.183-.242q16.737,0,33.475,0a1.857,1.857,0,0,1,1.183.241c.7.006,1.407.055,2.1,0,.659-.048.959.143.861.839a4.63,4.63,0,0,0,.022.806,2.914,2.914,0,0,1-3.192,2.637q-17.725,0-35.45,0a2.908,2.908,0,0,1-3.157-2.492" transform="translate(-28.856 -115.434)" fill="#4a5870"/>
        <path id="Trazado_128613" data-name="Trazado 128613" d="M10.029,180.073c-.084,1.142-.94,1.628-1.8,2.115a25.61,25.61,0,0,1-5.06-.151,4.185,4.185,0,0,1-3.165-3.994c-.015-1.229,0-2.46,0-3.689a4.314,4.314,0,0,1,4.367-4.444c.464-.013.929-.009,1.394-.013a1.943,1.943,0,0,1,1.982-.014c1.189,0,2.379,0,3.569.014.29,0,.6-.079.858.137-.488.446-1.09.236-1.644.269a6.427,6.427,0,0,1-1.509-.06,2.78,2.78,0,0,1,1.262,2.653c.028,2.4-.19,4.784-.254,7.176" transform="translate(0 -102.99)" fill="#fec6b2"/>
        <path id="Trazado_128614" data-name="Trazado 128614" d="M174.366,182.189c-.854-.488-1.713-.972-1.795-2.116a.527.527,0,0,1-.065-.233c.07-2.318-.256-4.623-.193-6.943a2.8,2.8,0,0,1,1.234-2.633,20.529,20.529,0,0,1-2.381.036.853.853,0,0,1-.742-.265,11.525,11.525,0,0,1,2.9-.135c.46-.031.923-.01,1.385-.013a1.937,1.937,0,0,1,1.979.009,10.306,10.306,0,0,1,2.842.218,3.926,3.926,0,0,1,2.973,3.359,17.473,17.473,0,0,1-.09,5.619,4.174,4.174,0,0,1-3.87,3.106c-1.392.027-2.784,0-4.177-.01" transform="translate(-103.479 -102.991)" fill="#fec6b2"/>
        <path id="Trazado_128615" data-name="Trazado 128615" d="M68.5,69.418a9.963,9.963,0,0,0,5.567,5.452,1.106,1.106,0,0,1,.261.75c-.02,1.161.047,2.324-.08,3.481-.153.383-.526.434-.851.55-.995.354-2.012.642-2.99,1.043a10.583,10.583,0,0,1-2.047.705,15.657,15.657,0,0,0-4.473,2.647c.478-5.071.751-10.154.874-15.245.378-.147.688.091,1.016.194a5.833,5.833,0,0,0,1.862.207,1.523,1.523,0,0,1,.86.216" transform="translate(-38.788 -41.747)" fill="#4a5870"/>
        <path id="Trazado_128616" data-name="Trazado 128616" d="M112,75.644a10.67,10.67,0,0,0,5.431-5.412c.92-.236,1.872.06,2.792-.168l.334.01a93.256,93.256,0,0,0,1.205,11.917c.148.938.287,1.878.43,2.817a15.676,15.676,0,0,0-4.78-2.776,13.067,13.067,0,0,1-2.08-.694c-.8-.25-1.567-.585-2.377-.808-1.092-.3-1.153-.41-1.184-1.591-.04-.791-.021-1.581-.018-2.37a1.309,1.309,0,0,1,.246-.925" transform="translate(-67.853 -42.542)" fill="#585d71"/>
        <path id="Trazado_128617" data-name="Trazado 128617" d="M12.36,142.093l-1.982.013c0-2.377-.01-4.754,0-7.131a1.108,1.108,0,0,0-.487-1.024c-2.341-1.759-2.985-5.922-1.5-8.413a3.513,3.513,0,0,1,3.663-1.632,3.443,3.443,0,0,1,2.866,2.909c.556,2.783.277,5.395-2.221,7.284a.969.969,0,0,0-.365.861c.014,2.377.015,4.754.02,7.131" transform="translate(-4.613 -75.198)" fill="#bfbfcd"/>
        <path id="Trazado_128618" data-name="Trazado 128618" d="M178.2,141.683l-1.979-.009c0-2.433,0-4.867.013-7.3a2.207,2.207,0,0,0-1.159-2.026,3.959,3.959,0,0,1-2.157-3.837c.053-1.091.018-2.187.006-3.281-.007-.609.1-1.1.854-1.124.683-.022,1.092.342,1.111,1.111.029,1.175.027,2.352.006,3.527a1.907,1.907,0,0,0,1.193,1.865c.24-.226.134-.486.135-.71.011-1.832,0-3.664.009-5.5,0-.788.394-1.255,1-1.249s.964.467.967,1.271c.007,1.887,0,3.773.008,5.66,0,.175-.1.421.127.511.209.082.332-.135.473-.252a2.393,2.393,0,0,0,.858-1.953c0-1.094.008-2.188,0-3.281-.005-.568.172-.949.81-1a.92.92,0,0,1,1.13.9,34.829,34.829,0,0,1-.041,4.258,3.774,3.774,0,0,1-1.988,2.948,2.657,2.657,0,0,0-1.384,2.577c.035,2.3.011,4.594.011,6.89" transform="translate(-104.986 -74.777)" fill="#bfbfcd"/>
        <path id="Trazado_128619" data-name="Trazado 128619" d="M156.747,87.666c2.855-1.4,4.223-3.741,4.833-6.84.739,2.835,1.405,5.531,3.993,7.113-2.484,2.26-3.358,3.649-3.863,6.258-.59-3.077-1.942-5.38-4.963-6.531" transform="translate(-95.174 -49.076)" fill="#fece64"/>
        <path id="Trazado_128620" data-name="Trazado 128620" d="M167.4,170.675h3.422c.016.081.044.152.029.162a3.05,3.05,0,0,0-1.329,2.94c.1,2.308.025,4.624.024,6.936a4.589,4.589,0,0,1-.144-2.007c-.038-1.108-.011-1.128-1.108-1.1a2.5,2.5,0,0,1-2.842-2.449c.007-.629.037-1.261-.006-1.887a3.355,3.355,0,0,1,1.3-2.526l.649-.064" transform="translate(-100.451 -103.631)" fill="#f19986"/>
        <path id="Trazado_128621" data-name="Trazado 128621" d="M23.489,180.716c0-2.231-.056-4.463.015-6.692a3.451,3.451,0,0,0-1.336-3.346h3.465l.8.208C28.01,172.2,27.647,174,27.5,175.668a2.242,2.242,0,0,1-2.452,1.93c-1.411.017-1.392.017-1.42,1.445a3.215,3.215,0,0,1-.143,1.673" transform="translate(-13.46 -103.633)" fill="#f19986"/>
        <path id="Trazado_128622" data-name="Trazado 128622" d="M33.7,64.695a8.671,8.671,0,0,0,3.429,5.279c.18.139.379.278.02.465-1.81.945-2.447,2.7-3.058,4.466-.053.152-.11.3-.237.65a7.187,7.187,0,0,0-3.916-5.341c2.688-.906,3.4-3,3.762-5.52" transform="translate(-18.178 -39.282)" fill="#fece64"/>
        <path id="Trazado_128623" data-name="Trazado 128623" d="M67.723,60.262c-1.272-.054-2.582.13-3.739-.617-1.477-1.624-1.752-2.916-.881-4.365a9.119,9.119,0,0,1,.87-1.063,5.889,5.889,0,0,1,3.075-.539c.048.784-.168,1.545-.158,2.333a11.606,11.606,0,0,0,.832,4.251" transform="translate(-38.016 -32.591)" fill="#f19986"/>
        <path id="Trazado_128624" data-name="Trazado 128624" d="M55.613,160.983a16.7,16.7,0,0,1,3.931-8.789c.209-.248.414-.5.62-.748a3.081,3.081,0,0,1,1.528-1.438,19.439,19.439,0,0,1,6.254-3.253,32.205,32.205,0,0,1,3.922-.7,3.655,3.655,0,0,1,2.917,0,24.769,24.769,0,0,1,3.795.677c2.619,1.683,4.491,6.133,3.8,9.026a7.019,7.019,0,0,1-6.67,5.446c-6.418.063-12.837.022-19.255.015a1.035,1.035,0,0,1-.839-.237" transform="translate(-33.767 -88.499)" fill="#e2e1e7"/>
        <path id="Trazado_128625" data-name="Trazado 128625" d="M55.295,162.5q9.962,0,19.924,0a6.833,6.833,0,0,0,6.13-9.756,18.793,18.793,0,0,0-3.087-4.495,17,17,0,0,1,6.393,3.264,2.278,2.278,0,0,1,1.461,1.329,18.268,18.268,0,0,1,4.554,8.859,18.812,18.812,0,0,1,.258,3.238c-.328.009-.655.025-.983.026q-16.937,0-33.874,0c-.328,0-.655-.016-.983-.025a8.488,8.488,0,0,1,.206-2.439" transform="translate(-33.449 -90.014)" fill="#bfbfcd"/>
        <path id="Trazado_128626" data-name="Trazado 128626" d="M93.311,98.415a6.6,6.6,0,0,1,1.955.831,13.106,13.106,0,0,1-1.769,4.083,10.1,10.1,0,0,1-18.1-3.716.739.739,0,0,0-.126-.205,6.863,6.863,0,0,1,1.941-.841c.324.269.336.673.44,1.033a7.89,7.89,0,0,0,15.076.5,5.057,5.057,0,0,1,.585-1.681" transform="translate(-45.703 -59.756)" fill="#e14949"/>
        <path id="Trazado_128627" data-name="Trazado 128627" d="M96.605,137.62H93.688c0-.191-.017-.384,0-.574.062-.685.044-1.209-.879-1.367a1.819,1.819,0,0,1-1.254-1.9,1.988,1.988,0,0,1,1.87-1.862,26.5,26.5,0,0,1,3.443,0,1.957,1.957,0,0,1,.225,3.887c-.385.08-.5.228-.489.588.018.41,0,.821,0,1.231" transform="translate(-55.587 -80.062)" fill="#bfbfcd"/>
        <path id="Trazado_128628" data-name="Trazado 128628" d="M66.746,139.591l-1.528,1.438a7.49,7.49,0,0,1,.572-9.116,2.161,2.161,0,0,0,.5-2.122,2.484,2.484,0,0,1-.053-.65.46.46,0,0,1,.3-.524c.256-.083.423.082.553.259.484.658.98,1.309,1.424,1.994a.989.989,0,0,1-.262,1.448,5.667,5.667,0,0,0-2.3,3.993,5.209,5.209,0,0,0,.8,3.28" transform="translate(-38.822 -78.081)" fill="#e14949"/>
        <path id="Trazado_128629" data-name="Trazado 128629" d="M128.711,140.9l-1.462-1.329a5.556,5.556,0,0,0-1.391-7.079c-.781-.727-.8-1.177-.182-2.052.362-.511.736-1.014,1.085-1.534.153-.228.326-.385.6-.3s.224.34.227.552c0,.355.02.712-.011,1.065a2.483,2.483,0,0,0,.7,1.93,7.474,7.474,0,0,1,.43,8.75" transform="translate(-76.043 -78.072)" fill="#e14949"/>
        <path id="Trazado_128630" data-name="Trazado 128630" d="M130.36,54.283a7.758,7.758,0,0,1-2.165-.129,5.735,5.735,0,0,1,2.165.129" transform="translate(-77.838 -32.856)" fill="#585d71"/>
        <path id="Trazado_128631" data-name="Trazado 128631" d="M98.675,84.269q-.012,1.718-.023,3.436a1.676,1.676,0,0,1-1.039.011c-2.061-.35-4.132-.638-6.191-1-1.178-.206-1.162-.2-1.218.975-.016.354.178.839-.395.989.091-1.464.029-2.928-.01-4.392a12.456,12.456,0,0,0,8.876-.021" transform="translate(-54.525 -51.167)" fill="#f19986"/>
        <path id="Trazado_128632" data-name="Trazado 128632" d="M90.1,61.178a.965.965,0,1,1-.993.988.921.921,0,0,1,.993-.988" transform="translate(-54.101 -37.146)" fill="#4c5970"/>
        <path id="Trazado_128633" data-name="Trazado 128633" d="M110.657,62.148c-.066.642-.424,1-1.018.972A.914.914,0,0,1,108.7,62.1a.888.888,0,0,1,.97-.895.926.926,0,0,1,.987.944" transform="translate(-66 -37.162)" fill="#4b5970"/>
        <path id="Trazado_128634" data-name="Trazado 128634" d="M129.015,69.979a11.05,11.05,0,0,1-2.792.168c.909-.417,1.862-.108,2.792-.168" transform="translate(-76.641 -42.457)" fill="#aa7d7c"/>
        <path id="Trazado_128635" data-name="Trazado 128635" d="M83.988,91.787c.356-.607.1-1.27.173-1.9.031-.271-.032-.566.426-.489,2.7.456,5.4.9,8.1,1.347a.628.628,0,0,1,.148.068c-.087.691.162,1.044.9,1.213a22.621,22.621,0,0,1,2.584.908,8.1,8.1,0,0,1-15.923,1.035c-.074-.29-.119-.588-.177-.883a22.683,22.683,0,0,1,3.776-1.3" transform="translate(-48.703 -54.272)" fill="#fec6b2"/>
        <path id="Trazado_128636" data-name="Trazado 128636" d="M82.874,160.311a2.8,2.8,0,1,1-2.692-2.934,2.693,2.693,0,0,1,2.692,2.934" transform="translate(-46.923 -95.557)" fill="#fefefe"/>
      </g>
    </g>
  </g>
</svg>
