<svg xmlns="http://www.w3.org/2000/svg" xmlns:xlink="http://www.w3.org/1999/xlink" width="159.736" height="191" viewBox="0 0 159.736 191">
  <defs>
    <clipPath id="clip-path">
      <rect id="Rect치ngulo_37512" data-name="Rect치ngulo 37512" width="97.663" height="167.921" fill="none"/>
    </clipPath>
  </defs>
  <g id="Grupo_157918" data-name="Grupo 157918" transform="translate(-1230 -4240)">
    <g id="Grupo_157917" data-name="Grupo 157917" transform="translate(1230 4240)">
      <g id="Grupo_87397" data-name="Grupo 87397">
        <path id="Rect치ngulo_34437" data-name="Rect치ngulo 34437" d="M0,0H82.736a77,77,0,0,1,77,77V191a0,0,0,0,1,0,0H0a0,0,0,0,1,0,0V0A0,0,0,0,1,0,0Z" fill="#c4d1ff"/>
      </g>
    </g>
    <g id="Grupo_157916" data-name="Grupo 157916" transform="translate(1261 4252)">
      <g id="Grupo_157915" data-name="Grupo 157915" clip-path="url(#clip-path)">
        <path id="Trazado_130397" data-name="Trazado 130397" d="M68.771,368.811l-39.655.017a2.5,2.5,0,0,1-1.1-1.018c-2.261-4.09-4.143-8.281-4.046-13.118.137-6.853-.195-13.713.186-20.562.062-1.117-.405-1.306-1.3-1.3-2.349.015-4.7-.05-7.047.027-1.922.063-2.705.873-2.87,2.83-.08.949-.034,1.9-.035,2.856,0,4.381.2,8.774-.052,13.14a18.97,18.97,0,0,0,4.781,14.211c.716.82,1.674,1.617,1.544,2.929-.443.013-.886.04-1.329.035-2.784-.027-5.907.716-8.259-.307-2.494-1.086-4.3-3.816-6.328-5.9A10.672,10.672,0,0,1,.17,355.118c-.067-6.4-.029-12.8-.018-19.193,0-2.6,1.078-3.758,3.71-3.606,1.9.109,2.656-.411,2.406-2.386a27.313,27.313,0,0,1,.023-3.795,1.689,1.689,0,0,1,1.2-.494c3.089.034,6.2-.461,9.259.314.1.077.256.156.267.256.277,2.546,2.033,2.615,4,2.462a25.349,25.349,0,0,1,3.424,0c1.483.086,2.684-.108,2.791-1.959a1.114,1.114,0,0,1,.533-.764,3.645,3.645,0,0,1,1.845-.377c13.5,0,27-.086,40.495.039,3.484.059,6.977-.275,10.453.191a1.385,1.385,0,0,1,.553.392c.79,2.728.246,3.526-2.486,3.58-1.828.036-3.658-.026-5.485.026-.763.022-1.823-.292-2.072.8-.268,1.174,1.016,1.049,1.585,1.532a4.616,4.616,0,0,1,1.227,3.493c.021,6.793.08,13.587-.02,20.379-.065,4.394-2,8.212-4.095,11.945a2.316,2.316,0,0,1-.993.864" transform="translate(-0.081 -201.171)" fill="#e0e0e0"/>
        <path id="Trazado_130398" data-name="Trazado 130398" d="M6.209,91.962c-.019-1.523-.118-3.051-.032-4.569.072-1.29-.432-1.676-1.653-1.587a4.625,4.625,0,0,1-3.133-.493A2.6,2.6,0,0,1,.146,83.468c-.44-5.452-.173-10.431,4.969-14.221,5.694-4.2,10.861-9.106,16.27-13.69,3.766-3.191,7.523-6.395,11.348-9.515,1.671-1.363,2.938-2.795,2.365-5.136.973-.881,2.078-.622,3.181-.369a3.48,3.48,0,0,1-.146,4.628c-5.16,5.767-10.258,11.59-15.393,17.381-2.567,2.894-5.188,5.743-7.648,8.732a9.856,9.856,0,0,0-2.333,6.676c.031,1.523-.069,3.05.041,4.569.14,1.937.975,2.744,2.9,2.788,2.348.053,4.7-.02,7.046.029,1.134.023,1.48-.238,1.376-1.524a33.916,33.916,0,0,1,.209-9.48c.631-3.139,2.48-5.688,4.05-8.354q5.7-9.68,11.428-19.347c.872-1.474,1.792-2.928,1.745-4.755a1.327,1.327,0,0,1,.82-1.386A75.432,75.432,0,0,1,55.3,40.479a1.436,1.436,0,0,1,.867,1.545,7.5,7.5,0,0,0,1.392,4.066c4.7,7.9,9.345,15.819,14.016,23.73a14.975,14.975,0,0,1,2.17,7.774c0,1.711.031,3.422-.017,5.133a4.027,4.027,0,0,1-1.4,3.382c-.613.351-1.64.393-1.353,1.478.236.895,1.1.707,1.755.721,1.893.04,3.787-.006,5.68.021,2.817.039,3.318.7,2.687,3.483a1.183,1.183,0,0,1-.521.447c-3.489.536-7,.171-10.5.231-13.5.12-26.991.038-40.487.042a4.012,4.012,0,0,1-1.85-.338c-.149-.111-.375-.209-.4-.388-.29-2.423-1.971-2.538-3.856-2.371a10.482,10.482,0,0,1-1.9,0c-2.241-.215-4.307-.156-4.87,2.675a23.184,23.184,0,0,1-10.513-.144" transform="translate(0 -24.849)" fill="#e0e0e0"/>
        <path id="Trazado_130399" data-name="Trazado 130399" d="M16.255,175.564l10.646-.078c.083.1.165.192.249.287a6.063,6.063,0,0,1,.344,2.808q.013,25.91,0,51.82a6.1,6.1,0,0,1-.341,2.809c-.083.1-.167.19-.252.285l-10.646-.078V175.564" transform="translate(-10.046 -108.451)" fill="#4e87e7"/>
        <path id="Trazado_130400" data-name="Trazado 130400" d="M221.293,174.623q.026,25.889.049,51.778c0,2.03-.032,4.06-.049,6.089a1.9,1.9,0,0,1-1.352.58c-2.7.1-5.394.117-8.09-.01a2.2,2.2,0,0,1-1.209-.477l.045-.094a3.315,3.315,0,0,1-.628-2.511q-.021-26.42,0-52.842a3.315,3.315,0,0,1,.628-2.511l-.045-.094A3.05,3.05,0,0,1,212.6,174c2.259-.024,4.518-.034,6.777.006a2.521,2.521,0,0,1,1.915.621" transform="translate(-129.81 -107.516)" fill="#4173d9"/>
        <path id="Trazado_130401" data-name="Trazado 130401" d="M194.333,327.25l10.651-.093c.017,1.583.093,3.168.032,4.748-.042,1.1.375,1.493,1.432,1.39a11.007,11.007,0,0,1,1.709,0,2.865,2.865,0,0,1,2.959,3.032c.036,6.842.1,13.685-.029,20.524a11.225,11.225,0,0,1-3.4,7.433c-5.243,5.607-5.256,5.6-12.944,5.589-.759,0-1.519-.034-2.278-.052-.493-.872.108-1.521.594-2.015,4.738-4.817,5.819-10.681,5.368-17.169-.294-4.225-.05-8.486-.057-12.73-.006-3.726-.326-4.049-3.971-4.056-2.028,0-4.055.008-6.082-.006a3.3,3.3,0,0,1-2.347-.549c-.9-.191-2.292.608-2.316-1.315-.017-1.286.312-1.842,1.7-1.772,2.027.1,4.064.052,6.1.02,3.043-.048,2.949.616,2.877-2.976" transform="translate(-113.501 -202.183)" fill="#c9c9c9"/>
        <path id="Trazado_130402" data-name="Trazado 130402" d="M186.259,92.088,175.608,92a8.043,8.043,0,0,1,.031-.952c.225-1.531-.3-2.171-1.957-2.065-2.151.139-4.317.047-6.476.029-1.079-.009-2.3.391-2.292-1.55.006-1.994,1.315-1.4,2.337-1.506a3.2,3.2,0,0,1,2.355-.489c2.47-.019,4.941.024,7.411-.018,1.98-.033,2.6-.628,2.669-2.63.073-2.025.087-4.056-.007-6.08a9.3,9.3,0,0,0-2.538-5.808c-6.217-7.008-12.393-14.052-18.629-21.044a49.657,49.657,0,0,1-4.306-5.057c-.891-1.319-1.327-2.742-.048-4.138,1.118-.289,2.231-.533,3.224.341-.367,2.08.444,3.427,2.122,4.8,7.093,5.81,14.026,11.815,21.007,17.761,2.937,2.5,5.848,5.031,8.772,7.548a8.757,8.757,0,0,1,3.134,7.4c-.055,1.265,0,2.534-.011,3.8-.02,2.55-1.035,3.581-3.541,3.615-2.754.037-2.533-.43-2.556,2.519-.01,1.2-.033,2.407-.05,3.61" transform="translate(-94.776 -24.981)" fill="#c9c9c9"/>
        <path id="Trazado_130403" data-name="Trazado 130403" d="M183.6,343.173c3.425,0,6.851.047,10.275-.028a2.3,2.3,0,0,1,2.656,2.507c.06,7.357.148,14.718-.025,22.071-.087,3.72-2.476,6.525-4.657,9.334A7.393,7.393,0,0,0,190.1,379.7l-10.279,0c1.737-3.569,3.855-6.987,4.372-11.039a10.572,10.572,0,0,0,.17-1.308c.011-7.1-.017-14.192.035-21.287.008-1.087-.677-1.894-.793-2.9" transform="translate(-111.127 -212.063)" fill="#ababab"/>
        <path id="Trazado_130404" data-name="Trazado 130404" d="M38.919,379.734c-1.819-2.648-4.1-4.967-5.491-7.923a13.4,13.4,0,0,1-1.329-5.67c-.034-6.408-.018-12.817-.01-19.226,0-2.8.949-3.722,3.756-3.726,2.538,0,5.077.015,7.614-.013,1.048-.012,1.884.041,1.09,1.41a3.853,3.853,0,0,0-.263,2.049c-.006,4.822.254,9.662-.065,14.463a30.822,30.822,0,0,0,4.64,18.64l-9.941-.006" transform="translate(-19.825 -212.083)" fill="#ededed"/>
        <path id="Trazado_130405" data-name="Trazado 130405" d="M112.1,33.528h-3.475a3.022,3.022,0,0,1-3.429.006l-13.725.005a3.03,3.03,0,0,1-3.406,0l-3.473,0c-.761-.019-1.528.012-2.282-.069a2.271,2.271,0,0,1,0-4.54c.756-.07,1.522-.048,2.283-.067a2.984,2.984,0,0,1,1.964-.549c7.312,0,14.625-.084,21.936.037,1.225.024,2.5-.278,3.611.521.76.016,1.525-.013,2.28.058a2.27,2.27,0,0,1,0,4.539c-.753.081-1.52.045-2.28.061" transform="translate(-49.498 -17.479)" fill="#5c5c5c"/>
        <path id="Trazado_130406" data-name="Trazado 130406" d="M107.947.153l13.728,0c.231.212.57.394.618.694.458,2.892.835,5.788-.361,8.616a3.987,3.987,0,0,1-2.025.372q-5.49.027-10.981,0a3.905,3.905,0,0,1-2.022-.383c-1.221-2.713-.818-5.477-.207-8.231.128-.579.73-.831,1.25-1.072" transform="translate(-65.577 -0.095)" fill="#4e87e7"/>
        <path id="Trazado_130407" data-name="Trazado 130407" d="M147.237,9.1c-.283-3.005.546-6.058-.384-9.035,1.634-.022,3.269-.085,4.9-.055a2.881,2.881,0,0,1,3.087,3.046c.045,1.571-.092,3.153.042,4.713.11,1.285-.5,1.5-1.521,1.427-1.062.743-2.27.485-3.438.5-.933-.03-1.926.2-2.688-.6" transform="translate(-90.755 0)" fill="#4376db"/>
        <path id="Trazado_130408" data-name="Trazado 130408" d="M113.261,22.938l2.64.1a1.528,1.528,0,0,1,0,2.175l-24.022,0q0-1.092,0-2.184c.645-.729,1.515-.578,2.342-.6,1.286.032,2.619-.3,3.811.479l15.23.023" transform="translate(-56.779 -13.839)" fill="#e0e0e0"/>
        <path id="Trazado_130409" data-name="Trazado 130409" d="M91.691,9.1l-2.3.1c-1.034.07-1.66-.173-1.521-1.451a33.987,33.987,0,0,0,.028-3.6C87.9.949,88.88-.024,92.072.008c.378,0,.755.04,1.133.062a18,18,0,0,0-.981,7.484A2.008,2.008,0,0,1,91.691,9.1" transform="translate(-54.291 -0.004)" fill="#4e88e7"/>
        <path id="Trazado_130410" data-name="Trazado 130410" d="M97.862,9.194c0-1.582.1-3.171-.009-4.745A5.078,5.078,0,0,1,99.376.159l3.456-.007a4.856,4.856,0,0,0-1.158,3.876c.074,1.712.031,3.428.039,5.142l-3.85.024" transform="translate(-60.462 -0.094)" fill="#6798ea"/>
        <path id="Trazado_130411" data-name="Trazado 130411" d="M154.76,26.252q0-1.088,0-2.176l3.486-.007q0,1.1,0,2.2l-3.49-.014" transform="translate(-95.642 -14.875)" fill="#ababab"/>
        <path id="Trazado_130412" data-name="Trazado 130412" d="M70.982,175.487q20.122.02,40.244.042c.822,0,1.644.03,2.466.045a3.312,3.312,0,0,1,.607,2.514q.022,26.4,0,52.807a3.312,3.312,0,0,1-.607,2.514q-18.793.024-37.586.049c-1.708,0-3.416.025-5.125.038-.083-.1-.165-.192-.249-.287a6.061,6.061,0,0,1-.344-2.807q-.013-25.91,0-51.82a6.106,6.106,0,0,1,.341-2.809c.083-.1.168-.19.252-.285" transform="translate(-43.495 -108.451)" fill="#4e87e7"/>
        <path id="Trazado_130413" data-name="Trazado 130413" d="M183.764,233.525V175.691l10.679-.015V233.54l-10.679-.015" transform="translate(-113.566 -108.568)" fill="#477ddf"/>
        <path id="Trazado_130414" data-name="Trazado 130414" d="M54.69,326.275a11.66,11.66,0,0,0,.027,1.329c.176,1.356-.429,1.764-1.734,1.7-1.96-.091-3.927,0-5.89-.029-3.269-.051-3.078.608-3.035-3l-.041-.08a2.708,2.708,0,0,1,1.768-.549q3.589-.061,7.177,0a2.706,2.706,0,0,1,1.768.549Z" transform="translate(-27.203 -201.23)" fill="#ededed"/>
        <path id="Trazado_130415" data-name="Trazado 130415" d="M145.815,42.022l3.429-.006c-.4,2.239.741,3.8,2.147,5.369,4.641,5.173,9.152,10.463,13.812,15.62,2.925,3.237,5.843,6.475,8.628,9.833a7.862,7.862,0,0,1,1.676,4.56c.162,2.274.083,4.569.028,6.854-.047,1.944-.869,2.684-2.853,2.689-3.365.009-6.73,0-10.1,0,1.853-6.849.7-13.061-3.2-19.077-4.631-7.143-8.757-14.614-13.113-21.935-.741-1.245-.342-2.6-.463-3.9" transform="translate(-90.113 -25.966)" fill="#ababab"/>
        <path id="Trazado_130416" data-name="Trazado 130416" d="M58.225,42.046h3.406a7.6,7.6,0,0,1-1.357,5.366q-7.117,12-14.186,24.026a12.436,12.436,0,0,0-1.934,6.651c.071,2.7-.6,5.451.487,8.094.262.639-.2.77-.7.77-3.239,0-6.478.049-9.715-.028a2.232,2.232,0,0,1-2.144-2.109c-.176-3.885-1.007-7.948,1.363-11.469a58.391,58.391,0,0,1,4.939-5.985q9.568-10.78,19.207-21.5c1.061-1.181.413-2.548.631-3.817" transform="translate(-19.653 -25.984)" fill="#ededed"/>
        <path id="Trazado_130417" data-name="Trazado 130417" d="M44.031,170.571A11.749,11.749,0,0,0,44,169.242c-.176-1.356.429-1.764,1.734-1.7,1.96.091,3.927,0,5.89.029,3.269.051,3.078-.608,3.035,3l.041.08a2.707,2.707,0,0,1-1.768.549q-3.589.061-7.177,0a2.71,2.71,0,0,1-1.769-.549Z" transform="translate(-27.176 -103.536)" fill="#ededed"/>
        <path id="Trazado_130418" data-name="Trazado 130418" d="M44.016,175.7H54.73v57.849H44.016V175.7" transform="translate(-27.202 -108.58)" fill="#6798ea"/>
      </g>
    </g>
  </g>
</svg>
